<?xml version="1.0" encoding="UTF-8"?>
<svg xmlns="http://www.w3.org/2000/svg" xmlns:xlink="http://www.w3.org/1999/xlink" xmlns:cc="http://creativecommons.org/ns#" xmlns:dc="http://purl.org/dc/elements/1.1/" xmlns:rdf="http://www.w3.org/1999/02/22-rdf-syntax-ns#" xmlns:inkscape="http://www.inkscape.org/namespaces/inkscape" xmlns:sodipodi="http://sodipodi.sourceforge.net/DTD/sodipodi-0.dtd" width="48" height="48">
    <style type="text/css" id="current-color-scheme">
      .ColorScheme-Text {
        color:#7B7C7E;
      }
      .ColorScheme-Background{
        color:#EFF0F1;
      }
      .ColorScheme-Accent{
        color:#3DAEE6;
      }
      .ColorScheme-ButtonText {
        color:#7B7C7E;
      }
</style>
    <g style="fill:none" id="48-48-osd-duplicate" inkscape:label="#48-48-osd-duplicate">
      <rect id="rect4234" height="48" width="48" x="0" y="0" style="fill:none"/>
      <path style="color:#7b7c7e;fill:currentColor;fill-opacity:1;stroke:none" d="m 80,21 0,14 1,0 0,-12.998047 28,-0.002 0,16 -12,0 0,1 0,5 0,1 1,0 4,0 0,-1 -4,0 0,-5 12,0 0,-18 -30,0 z m -14,15 0,18 12,0 0,5 -4,0 0,1 9,0 1,0 4,0 0,-1 -4,0 0,-5 12,0 0,-18 -30,0 z m 29,1 0,16 -13,0 -1,0 L 67,53 67,37.001953 95,37 Z m -16,17 4,0 0,5 -4,0 0,-5 z" transform="translate(-64,-16)" id="path4238" inkscape:connector-curvature="0" class="ColorScheme-Text"/>
      <path style="fill:currentColor;fill-opacity:1;fill-rule:evenodd;stroke:none" d="m 87,24 0,11 1,0 0,-6 2,0 0,6 1,0 0,-6 11,0 0,6 -5,0 0,1 6,0 0,-12 -16,0 z m 10,1 1,0 0,1 -1,0 0,-1 z m 2,0 1,0 0,1 -1,0 0,-1 z m 2,0 1,0 0,1 -1,0 0,-1 z m -13,2 14,0 0,1 -14,0 0,-1 z m -15,12 0,12 16,0 0,-12 -16,0 z m 10,1 1,0 0,1 -1,0 0,-1 z m 2,0 1,0 0,1 -1,0 0,-1 z m 2,0 1,0 0,1 -1,0 0,-1 z m -13,2 14,0 0,1 -14,0 0,-1 z m 0,2 2,0 0,6 -2,0 0,-6 z m 3,0 11,0 0,6 -11,0 0,-6 z" transform="translate(-64,-16)" id="path4244" inkscape:connector-curvature="0" class="ColorScheme-Accent"/>
    </g>
</svg>
