<?xml version="1.0" encoding="UTF-8"?>
<svg xmlns="http://www.w3.org/2000/svg" xmlns:xlink="http://www.w3.org/1999/xlink" xmlns:cc="http://creativecommons.org/ns#" xmlns:dc="http://purl.org/dc/elements/1.1/" xmlns:rdf="http://www.w3.org/1999/02/22-rdf-syntax-ns#" xmlns:inkscape="http://www.inkscape.org/namespaces/inkscape" xmlns:sodipodi="http://sodipodi.sourceforge.net/DTD/sodipodi-0.dtd" width="48" height="48">
    <style type="text/css" id="current-color-scheme">
      .ColorScheme-Text {
        color:#7B7C7E;
      }
      .ColorScheme-Background{
        color:#EFF0F1;
      }
      .ColorScheme-Accent{
        color:#3DAEE6;
      }
      .ColorScheme-ButtonText {
        color:#7B7C7E;
      }
</style>
    <g style="fill:none" id="48-48-osd-shutd-screen">
      <rect id="rect4234-1" height="48" width="48" x="0" y="0" style="fill:none"/>
      <path style="color:#7b7c7e;fill:currentColor;fill-opacity:1;stroke:none" d="m 80,21 0,14 1,0 0,-12.998047 28,-0.002 0,16 -12,0 0,1 0,5 0,1 1,0 4,0 0,-1 -4,0 0,-5 12,0 0,-18 -30,0 z m -14,15 0,18 12,0 0,5 -4,0 0,1 9,0 1,0 4,0 0,-1 -4,0 0,-5 12,0 0,-18 -30,0 z m 29,1 0,16 -13,0 -1,0 L 67,53 67,37.001953 95,37 Z m -16,17 4,0 0,5 -4,0 0,-5 z" transform="translate(-64,-16.00004)" id="path4238-29" inkscape:connector-curvature="0" class="ColorScheme-Text"/>
      <path id="path4244-3" d="m 9,23 16,0 0,12 -16,0 0,-12 z m 1,5 0,6 2,0 0,-6 -2,0 z m 3,6 11,0 0,-6 -11,0 0,6 z m 11,-7 -14,0 0,-1 14,0 0,1 z m -4,-3 -1,0 0,1 1,0 0,-1 z m 2,0 -1,0 0,1 1,0 0,-1 z m 2,0 -1,0 0,1 1,0 0,-1 z" inkscape:connector-curvature="0" style="fill:currentColor;fill-opacity:1;fill-rule:evenodd;stroke:none" class="ColorScheme-Accent"/>
      <path id="path4248" d="M 27.4141,9.00002 26,10.4141 l 1.6426,1.6426 1.8925,1.8925 -1.7617,1.7618 -1.7734,1.7734 1.4141,1.4141 1.6425,-1.6426 1.8926,-1.8926 3.5352,3.5352 1.414,-1.4141 -3.5351,-3.5352 3.5351,-3.5351 -1.414,-1.41408 -3.5352,3.53518 -1.7617,-1.7617 -1.7734,-1.77348 0,0 z" inkscape:connector-curvature="0" style="fill:#da4453"/>
    </g>
</svg>
