<?xml version="1.0" encoding="UTF-8"?>
<svg xmlns="http://www.w3.org/2000/svg" xmlns:xlink="http://www.w3.org/1999/xlink" xmlns:cc="http://creativecommons.org/ns#" xmlns:dc="http://purl.org/dc/elements/1.1/" xmlns:rdf="http://www.w3.org/1999/02/22-rdf-syntax-ns#" xmlns:inkscape="http://www.inkscape.org/namespaces/inkscape" xmlns:sodipodi="http://sodipodi.sourceforge.net/DTD/sodipodi-0.dtd" width="48" height="48">
    <style type="text/css" id="current-color-scheme">
      .ColorScheme-Text {
        color:#7B7C7E;
      }
      .ColorScheme-Background{
        color:#EFF0F1;
      }
      .ColorScheme-Accent{
        color:#3DAEE6;
      }
      .ColorScheme-ButtonText {
        color:#7B7C7E;
      }
</style>
    <g style="fill:none" id="48-48-osd-sbs-left">
      <rect id="rect4224-2" height="48" width="48" x="0" y="0" style="fill:none"/>
      <path style="color:#7b7c7e;fill:currentColor;fill-opacity:1;stroke:none" d="m 66,27 0,18 12,0 0,5 -4,0 0,1 4,0 1,0 7,0 0,-1 -2,0 0,-4 -1,0 0,4 -4,0 0,-4 0,-1 0,-1 -12,0 0,-16 12,0 0,-1 -13,0 z m 14,0 0,18 12,0 0,5 -4,0 0,1 4,0 1,0 9,0 0,-1 -4,0 0,-5 12,0 0,-18 -30,0 z m 1,1 28,0.002 0,15.998 -14,0 -1,0 -13,0 0,-16 z m 12,17 4,0 0,5 -4,0 0,-5 z" transform="translate(-64,-16.00004)" id="path4228-6" inkscape:connector-curvature="0" class="ColorScheme-Text"/>
      <path style="fill:currentColor;fill-opacity:1;fill-rule:evenodd;stroke:none" d="m 71,30 0,12 8,0 0,-1 -4,0 0,-6 4,0 0,-1 -7,0 0,-1 7,0 0,-3 -8,0 z m 11,0 0,3 7,0 0,1 -7,0 0,1 7,0 0,6 -7,0 0,1 8,0 0,-12 -8,0 z m 2,1 1,0 0,1 -1,0 0,-1 z m 2,0 1,0 0,1 -1,0 0,-1 z m 2,0 1,0 0,1 -1,0 0,-1 z m -16,4 2,0 0,6 -2,0 0,-6 z" transform="translate(-64,-16.00004)" id="path4232" inkscape:connector-curvature="0" class="ColorScheme-Accent"/>
    </g>
</svg>
