<?xml version="1.0" encoding="UTF-8"?>
<svg xmlns="http://www.w3.org/2000/svg" xmlns:xlink="http://www.w3.org/1999/xlink" xmlns:cc="http://creativecommons.org/ns#" xmlns:dc="http://purl.org/dc/elements/1.1/" xmlns:rdf="http://www.w3.org/1999/02/22-rdf-syntax-ns#" xmlns:inkscape="http://www.inkscape.org/namespaces/inkscape" xmlns:sodipodi="http://sodipodi.sourceforge.net/DTD/sodipodi-0.dtd" width="48" height="48">
    <style type="text/css" id="current-color-scheme">
      .ColorScheme-Text {
        color:#7B7C7E;
      }
      .ColorScheme-Background{
        color:#EFF0F1;
      }
      .ColorScheme-Accent{
        color:#3DAEE6;
      }
      .ColorScheme-ButtonText {
        color:#7B7C7E;
      }
</style>
    <g style="fill:none" id="48-48-osd-rotate-normal">
      <rect id="rect4229" height="48" width="48" x="0" y="0" style="fill:none"/>
      <path style="color:#7b7c7e;fill:currentColor;fill-opacity:1;fill-rule:evenodd;stroke:none" d="m 66,23 0,28 18,0 0,5 -3,0 0,1 14,0 0,-1 -3,0 0,-5 18,0 0,-28 -44,0 z m 43,1 0,26 L 67,50 67,24.001953 109,24 Z m -41,1 0,24 40,0 0,-24 -40,0 z m 1,1 38,0 0,22 -38,0 0,-22 z m 16,25 6,0 0,5 -6,0 0,-5 z" transform="translate(-64,-16)" id="path4233" inkscape:connector-curvature="0" class="ColorScheme-Text"/>
      <path style="fill:currentColor;fill-opacity:1;fill-rule:evenodd;stroke:none" d="m 77,28 0,12 16,0 0,-12 -16,0 z m 10,1 1,0 0,1 -1,0 0,-1 z m 2,0 1,0 0,1 -1,0 0,-1 z m 2,0 1,0 0,1 -1,0 0,-1 z m -13,2 14,0 0,1 -14,0 0,-1 z m 0,2 2,0 0,6 -2,0 0,-6 z m 3,0 11,0 0,6 -11,0 0,-6 z m 13,1 0,1 0,1 0,1 4,0 0,1 -4,0 0,1 4,0 0,6 -11,0 0,-4 -1,0 0,4 -2,0 0,-4 -1,0 0,5 16,0 0,-12 -5,0 z m 1,1 1,0 0,1 -1,0 0,-1 z m 2,0 1,0 0,1 -1,0 0,-1 z" transform="translate(-64,-16)" id="path4241" inkscape:connector-curvature="0" class="ColorScheme-Accent"/>
    </g>
</svg>
