<?xml version="1.0" encoding="UTF-8"?>
<svg xmlns="http://www.w3.org/2000/svg" xmlns:xlink="http://www.w3.org/1999/xlink" xmlns:cc="http://creativecommons.org/ns#" xmlns:dc="http://purl.org/dc/elements/1.1/" xmlns:rdf="http://www.w3.org/1999/02/22-rdf-syntax-ns#" xmlns:inkscape="http://www.inkscape.org/namespaces/inkscape" xmlns:sodipodi="http://sodipodi.sourceforge.net/DTD/sodipodi-0.dtd" width="32" height="32">
    <style type="text/css" id="current-color-scheme">
      .ColorScheme-Text {
        color:#7B7C7E;
      }
      .ColorScheme-Background{
        color:#EFF0F1;
      }
      .ColorScheme-Highlight{
        color:#3DAEE6;
      }
      .ColorScheme-ViewText {
        color:#7B7C7E;
      }
      .ColorScheme-ViewBackground{
        color:#FCFCFC;
      }
      .ColorScheme-ViewHover {
        color:#3DAEE6;
      }
      .ColorScheme-ViewFocus{
        color:#1E92FF;
      }
      .ColorScheme-ButtonText {
        color:#7B7C7E;
      }
      .ColorScheme-ButtonBackground{
        color:#EFF0F1;
      }
      .ColorScheme-ButtonHover {
        color:#3DAEE6;
      }
      .ColorScheme-ButtonFocus{
        color:#1E92FF;
      }
</style>
    <g style="fill:none" id="32-32-osd-sbs-sright">
      <rect id="rect4203" height="32" width="32" x="0" y="0" style="fill:none"/>
      <path style="color:#7b7c7e;fill:currentColor;fill-opacity:1;stroke:none" d="m 114,41 0,14 17,0 0,-14 -17,0 z m 18,0 0,1 9,0 0,12 -9,0 0,1 10,0 0,-14 -10,0 z m -17,1 15,0 0,12 -15,0 0,-12 z" transform="translate(-112,-32.00004)" id="path4207" inkscape:connector-curvature="0" class="ColorScheme-Text"/>
      <path style="color:#3daee6;fill:currentColor;fill-opacity:1;fill-rule:evenodd;stroke:none" d="m 124,44 0,8 5,0 0,-1 -4,0 0,-4 4,0 0,-3 -5,0 z m 8,0 0,3 4,0 0,4 -4,0 0,1 5,0 0,-8 -5,0 z m 1,1 1,0 0,1 -1,0 0,-1 z m 2,0 1,0 0,1 -1,0 0,-1 z" transform="translate(-112,-32.00004)" id="path4213" inkscape:connector-curvature="0" class="ColorScheme-ButtonFocus"/>
    </g>
</svg>
