<?xml version="1.0" encoding="UTF-8"?>
<svg xmlns="http://www.w3.org/2000/svg" xmlns:xlink="http://www.w3.org/1999/xlink" xmlns:cc="http://creativecommons.org/ns#" xmlns:dc="http://purl.org/dc/elements/1.1/" xmlns:rdf="http://www.w3.org/1999/02/22-rdf-syntax-ns#" xmlns:inkscape="http://www.inkscape.org/namespaces/inkscape" xmlns:sodipodi="http://sodipodi.sourceforge.net/DTD/sodipodi-0.dtd" width="32" height="32">
    <style type="text/css" id="current-color-scheme">
      .ColorScheme-Text {
        color:#7B7C7E;
      }
      .ColorScheme-Background{
        color:#EFF0F1;
      }
      .ColorScheme-Accent{
        color:#3DAEE6;
      }
      .ColorScheme-ButtonText {
        color:#7B7C7E;
      }
</style>
    <g style="fill:none" id="32-32-osd-rotate-ccw" inkscape:label="#32-32-osd-rotate-ccw">
      <rect id="rect4196" height="32" width="32" x="0" y="0" style="fill:none"/>
      <path id="path4200" d="M 2,21.9999 2,4 30,4.00003 30,22 19,21.9999 19,27 l 4,0 0,1 -14,0 0,-1 4,0 0,-5.0001 -11,0 z m 16,0 -4,0 0,5.0001 4,0 0,-5.0001 z M 29,4.99997 2.99998,4.99997 2.99998,21 29,21 29,4.99997 Z" inkscape:connector-curvature="0" style="color:#7b7c7e;fill:currentColor;fill-opacity:1;stroke:none" class="ColorScheme-Text"/>
      <path style="fill:currentColor;fill-opacity:1;fill-rule:evenodd;stroke:none" d="m 121,39 0,4 0,2 1,0 1,0 1,0 3,0 0,-2 -2.44531,0 c 0.69291,-1.190604 1.96851,-2 3.44531,-2 2.2091,0 4,1.7909 4,4 0,2.2091 -1.7909,4 -4,4 l 0,2 c 3.3137,0 6,-2.6863 6,-6 0,-3.31371 -2.6863,-6 -6,-6 -2.08828,0 -3.92536,1.067135 -5,2.685547 L 123,39 l -2,0 z" transform="translate(-112,-32.00004)" id="path4204" inkscape:connector-curvature="0" class="ColorScheme-Accent"/>
    </g>
</svg>
