<svg xmlns="http://www.w3.org/2000/svg" viewBox="0 0 128 128">
  <defs
     id="defs4">
    <style
       id="current-color-scheme"
       type="text/css">
      .ColorScheme-Text {
        color:#4d4d4d;
      }
      .ColorScheme-Background {
        color:#eff0f1;
      }
      .ColorScheme-Highlight {
        color:#3daee9;
      }
      .ColorScheme-ViewText {
        color:#31363b;
      }
      .ColorScheme-ViewBackground {
        color:#fcfcfc;
      }
      .ColorScheme-ViewHover {
        color:#93cee9;
      }
      .ColorScheme-ViewFocus{
        color:#3daee9;
      }
      .ColorScheme-ButtonText {
        color:#31363b;
      }
      .ColorScheme-ButtonBackground {
        color:#eff0f1;
      }
      .ColorScheme-ButtonHover {
        color:#93cee9;
      }
      .ColorScheme-ButtonFocus{
        color:#3daee9;
      }
      </style>
    <linearGradient
       id="linearGradient4213"
       inkscape:collect="always">
      <stop
         id="stop4215"
         offset="0"
         style="stop-color:#000000;stop-opacity:1;" />
      <stop
         id="stop4217"
         offset="1"
         style="stop-color:#000000;stop-opacity:0;" />
    </linearGradient>
    <clipPath
       clipPathUnits="userSpaceOnUse"
       id="clipPath5154">
      <rect
         rx="2.0000384"
         ry="2.0000021"
         y="952.3623"
         x="5.1822917e-05"
         height="100"
         width="100"
         id="rect5156"
         style="opacity:1;fill:#000000;fill-opacity:1;stroke:none;stroke-opacity:1" />
    </clipPath>
    <linearGradient
       inkscape:collect="always"
       xlink:href="#linearGradient4213"
       id="linearGradient6632"
       gradientUnits="userSpaceOnUse"
       x1="60.000046"
       y1="982.36224"
       x2="115"
       y2="1037.3622"
       gradientTransform="matrix(1.2800007,0,0,1.28,-7e-5,-1219.0238)" />
  </defs>
  <g
     transform="translate(0,-924.36216)">
    <path
       style="fill:currentColor;fill-opacity:1;stroke:none" 
       class="ColorScheme-Highlight"
       d="M 0 0 L 0 128 L 128 128 L 128 0 L 0 0 z "
       transform="translate(0,924.36216)"
       id="rect5879" />
    <path
       style="opacity:0.2;fill:url(#linearGradient5921);fill-opacity:1;fill-rule:evenodd;stroke:none;stroke-width:1px;stroke-linecap:butt;stroke-linejoin:miter;stroke-opacity:1"
       d="M 89.599609 22.400391 L 76.800781 128 L 128 128 L 128 60.800781 L 89.599609 22.400391 z "
       transform="translate(0,924.36216)"
       id="path5856" />
    <path
       style="fill:currentColor;fill-opacity:1;stroke:none" 
       class="ColorScheme-Background"
       d="M 64 12.800781 C 50.643427 12.800781 32.709408 17.979437 27.193359 46.132812 C 26.78015 46.097431 26.376848 46.076253 25.994141 46.082031 C 22.062226 46.144541 19.631726 48.252038 19.257812 52.861328 C 18.659554 60.236058 22.966888 61.77479 22.488281 64.125 C 22.07725 66.143338 23.19796 68.192203 25.712891 68.994141 C 27.589728 97.394897 44.275383 111.84641 47.359375 128 L 80.640625 128 C 83.724548 111.84677 100.40964 97.395577 102.28711 68.996094 C 104.80357 68.194702 105.92288 66.143978 105.51172 64.125 C 105.03311 61.77479 109.34045 60.236098 108.74219 52.861328 C 108.36828 48.252038 105.93777 46.144551 102.00586 46.082031 C 101.62315 46.076253 101.21985 46.097432 100.80664 46.132812 C 95.29059 17.979437 77.356572 12.800781 64 12.800781 z M 47.128906 47.361328 C 47.380159 47.369402 47.641275 47.405926 47.912109 47.470703 C 50.078694 47.988913 50.24522 51.105506 49.722656 53.253906 C 49.20001 55.402306 48.186157 56.578727 46.019531 56.060547 C 43.852859 55.542327 43.131684 52.613264 43.654297 50.464844 C 44.111589 48.584985 45.370138 47.304809 47.128906 47.361328 z M 80.871094 47.361328 C 82.629862 47.304809 83.888411 48.584985 84.345703 50.464844 C 84.868316 52.613264 84.147142 55.542327 81.980469 56.060547 C 79.813844 56.578727 78.79999 55.402306 78.277344 53.253906 C 77.75478 51.105506 77.921307 47.988913 80.087891 47.470703 C 80.358725 47.405926 80.619841 47.369402 80.871094 47.361328 z M 51.119141 85.402344 C 53.502814 85.349644 58.539997 87.039062 64 87.039062 C 70.720004 87.039062 76.800077 84.479766 78.080078 85.759766 C 79.360078 87.039766 72.960005 94.720703 64 94.720703 C 55.039995 94.720703 48.639921 87.039766 49.919922 85.759766 C 50.159922 85.520066 50.569062 85.415344 51.119141 85.402344 z M 55.039062 87.039062 C 55.039062 87.039063 57.599996 90.880859 64 90.880859 C 70.400003 90.880859 72.960938 87.039063 72.960938 87.039062 C 72.960938 87.039062 66.560001 88.320312 64 88.320312 C 60.159998 88.320312 55.039062 87.039062 55.039062 87.039062 z "
       transform="translate(0,924.36216)"
       id="path5859" />
    <path
       style="opacity:1;fill:#2ecc71;fill-opacity:1;stroke:none"
       d="M 64 53.759766 C 60.159998 53.759766 52.479994 76.800781 64 76.800781 C 75.520006 76.800781 67.840002 53.759766 64 53.759766 z "
       transform="translate(0,924.36216)"
       id="path5867" />
    <path
       style="opacity:0.1;fill:url(#linearGradient5923);fill-opacity:1;fill-rule:evenodd;stroke:none;stroke-width:1px;stroke-linecap:butt;stroke-linejoin:miter;stroke-opacity:1"
       d="m 65.334968,978.85465 c 3.927685,3.92768 8.95409,22.30745 -1.335001,22.30745 -1.801376,0 -3.134467,-0.5645 -4.085002,-1.515 l 23.280013,23.28 13.105006,-13.1049 z"
       id="path5871"
       inkscape:connector-curvature="0"
       sodipodi:nodetypes="cscccc" />
  </g>
</svg>
