<svg xmlns="http://www.w3.org/2000/svg" viewBox="0 0 128 128">
  <defs
     id="defs4">
    <style
       id="current-color-scheme"
       type="text/css">
      .ColorScheme-Text {
        color:#4d4d4d;
      }
      .ColorScheme-Background {
        color:#eff0f1;
      }
      .ColorScheme-Highlight {
        color:#3daee9;
      }
      .ColorScheme-ViewText {
        color:#31363b;
      }
      .ColorScheme-ViewBackground {
        color:#fcfcfc;
      }
      .ColorScheme-ViewHover {
        color:#93cee9;
      }
      .ColorScheme-ViewFocus{
        color:#3daee9;
      }
      .ColorScheme-ButtonText {
        color:#31363b;
      }
      .ColorScheme-ButtonBackground {
        color:#eff0f1;
      }
      .ColorScheme-ButtonHover {
        color:#93cee9;
      }
      .ColorScheme-ButtonFocus{
        color:#3daee9;
      }
      </style>
    <linearGradient
       id="linearGradient4213"
       inkscape:collect="always">
      <stop
         id="stop4215"
         offset="0"
         style="stop-color:#000000;stop-opacity:1;" />
      <stop
         id="stop4217"
         offset="1"
         style="stop-color:#000000;stop-opacity:0;" />
    </linearGradient>
    <clipPath
       clipPathUnits="userSpaceOnUse"
       id="clipPath5154">
      <rect
         rx="2.0000384"
         ry="2.0000021"
         y="952.3623"
         x="5.1822917e-05"
         height="100"
         width="100"
         id="rect5156"
         style="opacity:1;fill:#000000;fill-opacity:1;stroke:none;stroke-opacity:1" />
    </clipPath>
    <linearGradient
       inkscape:collect="always"
       xlink:href="#linearGradient4213"
       id="linearGradient6632"
       gradientUnits="userSpaceOnUse"
       x1="60.000046"
       y1="982.36224"
       x2="115"
       y2="1037.3622"
       gradientTransform="matrix(1.2800007,0,0,1.28,-7e-5,-1219.0238)" />
  </defs>
  <g
     transform="translate(0,-924.36216)">
    <path
       style="fill:currentColor;fill-opacity:1;stroke:none" 
       class="ColorScheme-Highlight"
       d="M 0 0 L 0 128 L 128 128 L 128 0 L 0 0 z "
       transform="translate(0,924.36216)"
       id="rect5879" />
    <path
       style="opacity:0.2;fill:url(#linearGradient6632);fill-opacity:1;fill-rule:evenodd;stroke:none;stroke-width:1px;stroke-linecap:butt;stroke-linejoin:miter;stroke-opacity:1"
       d="M 89.599979,946.12209 128,984.52204 l 0,67.83996 -26.88001,0 z"
       id="path6588"
       inkscape:connector-curvature="0"
       sodipodi:nodetypes="ccccc" />
    <path
       style="fill:currentColor;fill-opacity:1;stroke:none" 
       class="ColorScheme-Background"
       d="M 64 12.800781 C 56.796054 12.800781 47.908142 14.309215 40.496094 20.109375 C 40.247646 20.210155 39.979529 20.330549 39.679688 20.480469 C 29.439681 25.600469 24.320312 40.958984 24.320312 40.958984 C 24.320314 40.958984 26.078721 40.091243 28.134766 39.789062 C 28.004909 40.248473 27.872765 40.703154 27.751953 41.177734 C 26.089831 41.515094 20.923195 43.630944 20.589844 47.740234 C 20.172999 52.878704 21.024376 56.406709 21.759766 58.880859 C 20.447709 63.214499 22.143648 76.565469 15.359375 84.480469 C 8.5742418 92.396569 17.285306 101.11313 11.519531 107.51953 C 5.7537578 113.92593 11.51969 120.7674 7.6796875 126.7207 C 7.3821583 127.182 6.9777988 127.60599 6.4960938 128 L 9.0566406 128 C 9.5383457 127.60599 9.9427063 127.182 10.240234 126.7207 C 14.080236 120.7674 8.3143035 113.92593 14.080078 107.51953 C 19.845853 101.11313 11.134789 92.396569 17.919922 84.480469 C 22.71818 78.882569 23.980372 70.692456 23.957031 65.347656 C 24.328192 65.763826 24.838284 66.096789 25.513672 66.349609 C 25.252364 71.879149 24.116762 80.022566 19.199219 85.759766 C 12.414086 93.675766 21.12515 102.39438 15.359375 108.80078 C 9.5935998 115.20718 15.359533 122.0467 11.519531 128 L 32.048828 128 C 34.084725 122.44791 33.050397 114.14882 35.839844 111.35938 C 39.679846 107.51937 33.684522 100.5794 37.119141 96 C 40.821715 91.0632 39.797289 90.842194 42.011719 86.246094 C 42.338748 86.578394 42.616374 86.868259 42.869141 87.130859 C 42.356483 89.607959 41.798237 92.000556 39.679688 95.285156 C 36.245069 100.61006 40.959143 108.67933 37.119141 113.14453 C 34.379324 116.33025 36.225904 122.55946 34.621094 128 L 46.072266 128 C 47.342055 123.63173 44.632761 119.20709 47.359375 116.48047 C 51.199377 112.64047 46.485304 105.69864 49.919922 101.11914 C 52.641801 97.489942 52.16325 95.775031 52.556641 93.269531 C 52.522091 93.247531 52.476861 93.220219 52.443359 93.199219 C 52.526809 92.262019 52.661267 90.005075 53 88.921875 C 55.762097 89.254875 60.665829 89.599609 64 89.599609 C 67.334171 89.599609 72.237903 89.254875 75 88.921875 C 75.338733 90.005075 75.473197 92.262019 75.556641 93.199219 C 75.521781 93.221219 75.475441 93.250438 75.439453 93.273438 C 75.833495 95.777338 75.360083 97.492442 78.080078 101.11914 C 81.514696 105.69864 75.519373 116.48031 79.359375 120.32031 C 81.00086 121.96175 81.640067 124.8668 82.357422 128 L 93.996094 128 C 92.254224 122.87984 92.057058 117.32986 89.529297 114.39062 C 85.689295 109.92543 89.604547 103.43828 86.169922 98.113281 C 84.05774 94.838581 84.400448 91.251313 84.525391 87.945312 C 84.963287 87.504614 85.401872 86.971453 86.009766 86.314453 C 88.056845 90.992053 85.035214 92.619875 88.730469 97.546875 C 92.165088 102.12637 86.970545 108.76547 90.810547 112.60547 C 93.393082 115.18801 94.342855 122.51457 96.527344 128 L 120.22266 128 C 119.74095 127.60599 119.33659 127.182 119.03906 126.7207 C 115.19906 120.7674 120.96499 119.04703 115.19922 112.64062 C 109.43344 106.23422 114.30466 96.236313 107.51953 88.320312 C 102.50672 82.472014 102.11112 72.711372 102.24414 66.451172 C 102.99941 66.214672 103.55563 65.882397 103.9668 65.466797 C 103.67086 71.346127 103.9935 81.430562 108.80078 87.039062 C 115.58591 94.955063 110.71469 104.95297 116.48047 111.35938 C 122.24624 117.76578 116.48031 119.48615 120.32031 125.43945 C 120.97397 126.45289 122.13511 127.2929 123.54688 128 L 126.10547 128 C 124.69423 127.2929 123.53451 126.45289 122.88086 125.43945 C 119.04086 119.48615 124.80484 117.76577 119.03906 111.35938 C 113.27329 104.95296 118.14447 94.955062 111.35938 87.039062 C 104.62157 79.178263 107.50676 63.447458 106.26172 58.986328 C 107.00379 56.508088 107.88558 52.950764 107.46289 47.740234 C 107.12489 43.573564 101.83175 41.461272 100.24805 41.169922 C 100.12793 40.698342 99.996232 40.247596 99.867188 39.791016 C 101.92227 40.093486 103.67969 40.958984 103.67969 40.958984 C 103.67969 40.958984 98.56032 25.600469 88.320312 20.480469 C 88.02193 20.331279 87.755296 20.211858 87.507812 20.111328 C 80.094687 14.309418 71.204852 12.800781 64 12.800781 z M 44.513672 47.007812 C 46.300671 46.907509 47.202761 48.133277 47.697266 50.166016 C 48.262326 52.489126 48.083008 55.861515 45.740234 56.421875 C 43.397363 56.982235 41.701839 55.504781 41.136719 53.181641 C 40.571607 50.858521 41.350488 47.693172 43.693359 47.132812 C 43.986211 47.062773 44.258386 47.022143 44.513672 47.007812 z M 83.484375 47.007812 C 83.739661 47.022142 84.013789 47.062773 84.306641 47.132812 C 86.649512 47.693172 87.428393 50.858521 86.863281 53.181641 C 86.298161 55.504781 84.602637 56.982235 82.259766 56.421875 C 79.916992 55.861515 79.737674 52.489126 80.302734 50.166016 C 80.797239 48.133277 81.697376 46.907509 83.484375 47.007812 z M 53.662109 93.947266 C 53.497902 96.136766 53.375144 98.217942 51.199219 101.11914 C 47.764601 105.69864 53.759924 112.64047 49.919922 116.48047 C 47.422139 118.97826 48.739568 123.64924 47.777344 128 L 79.900391 128 C 79.045991 126.02201 78.155677 124.23576 76.800781 122.88086 C 72.960779 119.04086 80.235399 105.69864 76.800781 101.11914 C 74.630436 98.225342 74.49508 96.135072 74.330078 93.951172 C 71.855129 95.410272 67.963471 97.279297 64 97.279297 C 60.03266 97.279297 56.136671 95.406966 53.662109 93.947266 z "
       transform="translate(0,924.36216)"
       id="path6590" />
    <path
       style="opacity:0.1;fill:url(#linearGradient6634);fill-opacity:1;fill-rule:evenodd;stroke:none;stroke-width:1px;stroke-linecap:butt;stroke-linejoin:miter;stroke-opacity:1"
       d="m 63.999965,976.84206 -7.928004,23.03997 23.280012,23.27997 15.613009,-15.3524 z"
       id="path6610"
       inkscape:connector-curvature="0"
       sodipodi:nodetypes="ccccc" />
    <path
       style="opacity:1;fill:#2ecc71;fill-opacity:1;stroke:none"
       d="m 63.999965,976.84203 c 1.920001,0 3.878921,9.4775 6.400003,15.36 3.840003,8.95997 2.560002,8.95997 -6.400003,8.95997 -8.960005,0 -10.240006,0 -6.400004,-8.95997 2.521083,-5.8825 4.480003,-15.36 6.400004,-15.36 z"
       />
  </g>
</svg>
