<?xml version="1.0" encoding="utf-8"?>
<svg height="64" version="1.1" viewBox="0 0 64 64" width="64" xmlns="http://www.w3.org/2000/svg" xmlns:svg="http://www.w3.org/2000/svg" xmlns:xlink="http://www.w3.org/1999/xlink">
 <namedview bordercolor="#666666" borderopacity="1.0" id="namedview-conformist" pagecolor="#ffffff" pageopacity="0.0" pageshadow="0" showgrid="true">
  <grid class="ColorScheme-Background" empspacing="4" fill="currentColor" opacity="0.6" type="xygrid"/>
 </namedview>
 <defs id="primary-definitions">
  <style class="ColorScheme-Background" fill="currentColor" opacity="0.6" type="text/css">
   .ColorScheme-Text           { color:#eff0f1; }
      .ColorScheme-Background     { color:#31363b; }
      .ColorScheme-Highlight      { color:#3daefd; }
      .ColorScheme-ViewBackground { color:#fcfcfc; }
      .ColorScheme-PositiveText   { color:#27ae60; }
      .ColorScheme-NeutralText    { color:#f67400; }
      .ColorScheme-NegativeText   { color:#da4453; }
  </style>
 </defs>
 <path class="ColorScheme-Background" d="M 32 6 C 17.596015 6 6 17.596015 6 32 C 6 46.403985 17.596015 58 32 58 C 46.403985 58 58 46.403985 58 32 C 58 17.596015 46.403985 6 32 6 z M 33.121094 7.0292969 C 40.094254 7.3342117 46.304705 10.467621 50.644531 15.318359 L 50.642578 15.324219 L 50.640625 15.324219 C 50.640977 15.324182 50.259766 16.259067 50.259766 16.888672 C 50.259766 17.518276 50.259068 18.148438 50.888672 18.148438 C 52.147881 18.148438 51.451809 19.755543 50.888672 20.037109 C 49.629463 20.666712 49.630859 21.296176 49.630859 21.925781 C 49.630859 22.555385 48.371792 22.870396 47.742188 23.5 C 46.797781 24.444407 47.020187 24.301644 46.482422 25.074219 C 46.231575 25.434592 46.156329 25.724451 45.851562 26.333984 C 45.221959 27.593193 45.851562 26.964146 45.851562 27.59375 C 45.851562 28.223355 45.852259 29.481025 45.222656 30.740234 C 44.593051 31.999443 47.111328 33.259067 47.111328 33.888672 C 47.111328 34.518276 47.751918 35.134313 49.630859 36.408203 C 50.239302 36.82072 52.148994 36.408203 53.408203 36.408203 C 54.420323 36.408203 55.439848 35.605761 56.779297 35.287109 C 55.228183 47.185649 45.381263 56.402249 33.191406 56.96875 C 33.456041 56.634333 33.7101 56.286831 33.890625 55.925781 C 34.52023 54.666572 34.089945 54.275747 34.519531 53.40625 C 34.949116 52.536754 37.038364 52.776787 37.667969 51.517578 C 38.297574 50.258369 38.927734 49.629048 38.927734 47.740234 C 38.927734 45.851421 40.816406 45.851148 40.816406 42.703125 C 40.186803 42.073521 38.297574 40.814453 37.667969 40.814453 C 37.038364 40.814453 33.88937 40.184292 33.259766 39.554688 C 32.630161 38.925083 31.37249 35.777344 30.113281 35.777344 C 28.854072 35.777344 28.223354 35.778042 27.59375 35.148438 C 26.964145 34.518833 25.704664 33.25851 22.556641 32.628906 C 19.408618 31.999302 18.150391 32.630162 18.150391 33.259766 C 18.150391 33.889371 15.631558 33.888672 15.001953 33.888672 C 14.372348 33.888672 13.742188 33.25851 13.742188 32.628906 C 13.742188 31.999302 14.371792 30.740932 13.742188 30.111328 C 13.112583 29.481723 11.854213 30.740932 11.224609 30.111328 C 10.595004 29.481723 12.484375 28.2221 12.484375 26.962891 C 10.595562 26.962891 10.594448 27.593052 9.9648438 28.222656 C 9.3352393 28.852261 8.7057765 28.851563 8.0761719 28.851562 C 7.7341916 28.851562 7.4669503 28.493287 7.2910156 28.162109 C 7.589854 26.206977 8.1182781 24.328903 8.8398438 22.552734 C 9.1600737 22.260375 9.5967813 21.925781 9.9648438 21.925781 C 10.594448 21.925781 11.270553 22.56125 11.853516 22.556641 C 12.436479 22.552141 12.482978 21.925781 13.742188 21.925781 C 15.001397 21.925781 15.630859 22.555942 15.630859 23.185547 C 15.630859 23.815151 16.261021 23.814453 16.890625 23.814453 C 16.890625 23.184849 16.260323 21.927179 17.519531 20.667969 C 18.778741 19.408761 19.408759 20.038507 20.667969 18.779297 C 21.927177 17.520088 21.297432 17.518975 22.556641 16.259766 C 23.186245 15.630162 24.056909 16.01306 24.445312 15.630859 C 24.833717 15.248657 24.445171 14.371792 26.333984 13.742188 C 28.222798 13.112583 26.964145 14.371094 27.59375 14.371094 C 28.223354 13.741489 31.371791 13.741631 30.742188 12.482422 C 30.112582 12.482422 30.112725 13.111328 28.853516 13.111328 C 27.594307 13.111328 30.112026 11.222656 29.482422 11.222656 C 28.852817 11.222656 28.223212 10.59375 29.482422 10.59375 C 29.97476 10.59375 29.913602 11.359564 30.742188 11.222656 C 31.126044 11.159226 30.111885 10.59375 31.371094 10.59375 C 32.630303 10.59375 32.630162 9.9648438 33.259766 9.9648438 C 33.889371 9.9648438 32.001953 11.853516 32.001953 11.853516 C 32.001953 11.853516 33.889926 12.482422 34.519531 12.482422 C 35.149135 12.482422 35.149135 11.85226 34.519531 11.222656 C 33.889926 10.593052 33.26102 11.223354 33.890625 10.59375 C 34.52023 9.9641453 35.149834 8.7038232 33.890625 8.0742188 C 33.328821 7.7933121 33.153755 7.3924864 33.121094 7.0292969 z M 25.384766 7.8847656 C 24.972876 8.1330109 24.249576 8.2719082 23.816406 8.7050781 C 23.186801 9.3346825 23.186245 9.9628906 22.556641 9.9628906 C 22.095911 9.9628906 22.106322 9.3417994 22.144531 9.0058594 C 23.188607 8.5599743 24.272396 8.1872551 25.384766 7.8847656 z M 17.804688 11.597656 C 18.660557 11.538631 19.251501 12.010218 18.779297 12.482422 C 18.233781 13.027938 17.666777 12.637388 16.300781 12.521484 C 16.670234 12.223742 17.049103 11.936801 17.435547 11.660156 C 17.561792 11.630336 17.686477 11.605809 17.804688 11.597656 z M 18.994141 13.03125 C 19.645107 12.97421 21.218873 13.742188 20.667969 13.742188 C 20.038364 13.742188 19.408901 14.371094 18.779297 14.371094 C 18.149692 14.371094 18.408296 13.482329 18.779297 13.111328 C 18.825707 13.064918 18.901148 13.03939 18.994141 13.03125 z M 18.150391 13.111328 C 18.46306 13.111328 17.67193 13.50845 17.205078 14.056641 C 16.731842 14.61233 16.262249 15.633342 15.945312 15.316406 C 15.63051 15.001604 16.261021 14.371793 16.890625 13.742188 C 17.52023 13.112583 17.520787 13.111328 18.150391 13.111328 z M 21.298828 13.898438 C 21.61363 13.898438 21.927734 14.056292 21.927734 14.371094 C 21.927734 15.000699 20.667969 15.000699 20.667969 14.371094 C 20.667969 14.056292 20.984026 13.898437 21.298828 13.898438 z M 18.150391 15 L 20.039062 15 C 20.039062 15 19.408901 15.630859 18.779297 15.630859 C 18.149692 15.630859 17.520787 15 18.150391 15 z M 52.800781 18.095703 C 53.054582 18.475561 53.29617 18.86352 53.529297 19.257812 C 52.19211 18.888549 52.190332 18.668339 52.800781 18.095703 z M 7.5859375 30.046875 C 8.5048291 30.129583 9.0799838 31.371094 9.9648438 31.371094 C 11.224053 31.371094 12.484375 32.630162 12.484375 33.259766 C 12.484375 33.889371 14.372348 35.148438 15.001953 35.148438 C 15.631558 35.148438 16.125196 33.910013 16.890625 35.777344 C 17.656055 37.644676 15.001953 38.925082 15.001953 39.554688 C 15.001953 40.184291 15.316406 40.184848 15.316406 40.814453 C 15.316406 41.444058 14.978444 41.431387 15.001953 42.074219 C 15.025433 42.717051 15.632115 42.703682 16.261719 43.962891 C 16.891323 45.222099 17.520787 47.110629 18.150391 47.740234 C 18.779996 48.369839 20.669224 48.369697 21.298828 49.628906 C 21.716369 50.463986 21.864585 53.136298 21.923828 54.894531 C 13.12123 51.03313 7 42.260043 7 32 C 7 31.368376 7.0325471 30.744592 7.078125 30.125 C 7.2593073 30.058951 7.428295 30.032686 7.5859375 30.046875 z " fill="currentColor" opacity="0.6"/>
 <path class="ColorScheme-Background" d="M 32,6 C 17.596015,6 6,17.596015 6,32 6,46.403985 17.596015,58 32,58 46.403985,58 58,46.403985 58,32 58,17.596015 46.403985,6 32,6 Z m 0,0.5 c 0.301298,0 0.580209,0.077648 0.878906,0.087891 l -0.289062,0.1230469 0.0332,0.3632813 c 0.044,0.489249 0.348159,1.0998549 1.042969,1.4472656 0.480427,0.2402136 0.491524,0.4178566 0.439453,0.7304687 C 34.075936,9.4292509 33.908018,9.6156748 33.7832,9.8125004 33.73773,9.7231574 33.71004,9.6256767 33.62695,9.5703129 33.492465,9.4807069 33.361608,9.4648442 33.259763,9.4648442 c -0.481284,0 -0.792934,0.2696321 -0.986328,0.3984374 -0.193394,0.1288053 -0.355981,0.2304684 -0.902344,0.2304684 -0.352225,0 -0.584192,0.0084 -0.837891,0.164062 -0.09815,0.06023 -0.170876,0.184283 -0.230469,0.304688 -0.04905,-0.06263 -0.09362,-0.128049 -0.195312,-0.220703 -0.134149,-0.12223 -0.372294,-0.248047 -0.625,-0.248047 -0.356423,0 -0.609555,0.02404 -0.859375,0.160156 -0.12491,0.06806 -0.263406,0.185556 -0.330078,0.367188 -0.06667,0.181631 -0.03126,0.38293 0.0332,0.511718 0.120442,0.240618 0.292128,0.33102 0.470703,0.416016 -0.08959,0.104841 -0.150507,0.179392 -0.25,0.298828 -0.20716,0.248684 -0.418308,0.469123 -0.519531,0.833985 -0.05061,0.18243 -0.03855,0.505402 0.167968,0.707031 0.076,0.0742 0.161236,0.04867 0.242188,0.08203 -0.04598,0.01269 -0.09152,0.02403 -0.136719,0.03711 -0.149028,0.04313 -0.262305,0.142153 -0.40039,0.191407 -0.01087,-0.09956 -0.01148,-0.201467 -0.0918,-0.31836 -0.110887,-0.161378 -0.30839,-0.265057 -0.478516,-0.296875 -0.340251,-0.06363 -0.65049,0.01566 -1.154297,0.183594 -2.040451,0.68015 -2.084961,2.010696 -2.082031,2.007813 -0.0016,0.0015 -0.174992,0.04692 -0.546875,0.08008 -0.371883,0.03316 -0.911626,0.118657 -1.34375,0.550781 -0.659125,0.659125 -0.881696,1.075545 -1.039063,1.390625 -0.157364,0.31508 -0.249527,0.528824 -0.849609,1.128906 -0.570653,0.570653 -0.9066,0.666853 -1.378906,0.824219 -0.472307,0.157366 -1.080975,0.375898 -1.769531,1.064453 -1.14209,1.142091 -0.961088,2.304485 -0.837891,2.958985 -0.03628,-0.0059 -0.123788,-0.0042 -0.146484,-0.01172 -0.0549,-0.01825 -0.05561,-0.02824 -0.04883,-0.01953 0.0068,0.0087 -0.002,0.01735 -0.002,-0.05664 0,-0.481431 -0.250466,-0.949346 -0.671875,-1.265625 -0.421409,-0.316279 -1.003786,-0.494141 -1.716796,-0.494141 -0.71251,0 -1.183726,0.208091 -1.470704,0.394531 -0.143489,0.09322 -0.240507,0.166567 -0.298828,0.199219 -0.05832,0.03265 -0.06678,0.03667 -0.123047,0.03711 -0.108292,8.56e-4 -0.378849,-0.102576 -0.701171,-0.261719 -0.322324,-0.159143 -0.700573,-0.369141 -1.1835942,-0.369141 -0.6710847,0 -1.1157838,0.440916 -1.4628907,0.757813 L 8.4375,22.244141 c 1.4959865,-3.630243 3.85387,-6.764064 6.75,-9.316407 l 1.070312,0.0918 c 0.25502,0.02164 0.40365,0.05564 0.609376,0.08984 -0.102192,0.09593 -0.193489,0.142707 -0.330079,0.279297 -0.314736,0.314736 -0.642011,0.634685 -0.880859,0.96875 -0.119424,0.167032 -0.224143,0.336487 -0.273438,0.5625 -0.0493,0.226013 0.01233,0.553344 0.208985,0.75 0.108901,0.108901 0.289046,0.199783 0.464844,0.205078 0.175798,0.0053 0.315908,-0.05552 0.417968,-0.119141 0.204121,-0.127237 0.317203,-0.27822 0.439453,-0.439453 0.244504,-0.322465 0.480336,-0.710633 0.671876,-0.935547 0.09714,-0.114064 0.237986,-0.214273 0.36914,-0.324218 0.0076,0.147101 -0.01149,0.291963 0.08789,0.443359 0.0056,0.0086 0.02128,0.0053 0.02734,0.01367 -0.09393,0.0047 -0.186656,0.0077 -0.291015,0.05078 -0.133057,0.05487 -0.296856,0.187693 -0.359375,0.375 -0.06252,0.187308 -0.01881,0.358749 0.0332,0.470703 0.05202,0.111955 0.116791,0.188843 0.185547,0.257813 0.275024,0.275879 0.658824,0.46289 1.140625,0.46289 0.4818,0 0.865642,-0.214203 1.144531,-0.40039 0.278889,-0.186187 0.46875,-0.376953 0.46875,-0.376953 l 0.22461,-0.22461 c 0.656421,0.408854 1.810546,0.174704 1.810546,-0.757812 0,-0.323698 -0.193425,-0.619398 -0.417968,-0.769532 -0.224544,-0.150133 -0.469964,-0.203125 -0.710938,-0.203124 -0.03246,-10e-7 -0.06316,0.02533 -0.0957,0.02734 -0.0011,-0.0018 0.001,-0.008 0,-0.0098 -0.05187,-0.08676 -0.09776,-0.129987 -0.140625,-0.167969 -0.171444,-0.151928 -0.347866,-0.234812 -0.574219,-0.337891 -0.368696,-0.1679 -0.808847,-0.273061 -1.251953,-0.30664 0.09574,-0.150411 0.214923,-0.2941 0.210938,-0.478516 -0.0059,-0.274141 -0.154931,-0.510366 -0.330078,-0.662109 -0.350295,-0.303488 -0.820659,-0.399629 -1.347657,-0.363282 -0.162817,0.01123 -0.31099,0.04157 -0.449219,0.07422 l -0.0059,0.002 c 1.362869,-0.960558 2.817562,-1.7929788 4.361328,-2.4746091 l -0.02734,0.2480469 c -0.02244,0.1972807 -0.04756,0.4755373 0.03125,0.7851562 0.03941,0.1548095 0.107014,0.327099 0.257812,0.478516 0.150798,0.151416 0.39162,0.25 0.619141,0.25 0.240549,0 0.481104,-0.07223 0.660156,-0.197266 C 23.395807,10.140599 23.50847,9.9869083 23.60152,9.8476622 23.787704,9.569158 23.913863,9.3146528 24.169922,9.0585938 24.444095,8.7844206 25.079666,8.6517662 25.642578,8.3125 L 25.292969,7.4941406 C 27.441499,6.9106372 29.660738,6.5 32,6.5 Z m 1.121094,0.5292969 c 6.770804,0.2960664 13.203085,3.6826361 17.521484,8.2949221 0,0 0.05614,0.07356 0,0 -0.109732,0.303261 -0.382812,1.10586 -0.382812,1.564453 0,0.629604 -6.98e-4,1.259766 0.628906,1.259766 1.259209,0 0.563137,1.607105 0,1.888671 -1.259209,0.629603 -1.257813,1.259067 -1.257813,1.888672 0,0.629604 -1.259067,0.944615 -1.888671,1.574219 -0.944407,0.944407 -0.722001,0.801644 -1.259766,1.574219 -0.250847,0.360373 -0.326092,0.650232 -0.63086,1.259765 -0.629603,1.259209 0,0.630162 0,1.259766 0,0.629605 6.97e-4,1.887275 -0.628906,3.146484 -0.629605,1.259209 1.888672,2.518833 1.888672,3.148438 0,0.629604 0.64059,1.245641 2.519531,2.519531 0.608443,0.412517 2.518135,0 3.777344,0 1.01212,0 2.031645,-0.802442 3.371094,-1.121094 -1.551114,11.89854 -11.398034,21.11514 -23.587891,21.681641 0.264635,-0.334417 0.518694,-0.681919 0.699219,-1.042969 0.629605,-1.259209 0.19932,-1.650034 0.628906,-2.519531 0.429585,-0.869496 2.518833,-0.629463 3.148438,-1.888672 0.629605,-1.259209 1.259765,-1.88853 1.259765,-3.777344 0,-1.888813 1.888672,-1.889086 1.888672,-5.037109 -0.629603,-0.629604 -2.518832,-1.888672 -3.148437,-1.888672 -0.629605,0 -3.778599,-0.630161 -4.408203,-1.259765 -0.629605,-0.629605 -1.887276,-3.777344 -3.146485,-3.777344 -1.259209,0 -1.889927,6.98e-4 -2.519531,-0.628906 -0.629605,-0.629605 -1.889086,-1.889928 -5.037109,-2.519532 -3.148023,-0.629604 -4.40625,0.0013 -4.40625,0.63086 0,0.629605 -2.518833,0.628906 -3.148438,0.628906 -0.629605,0 -1.259766,-0.630162 -1.259765,-1.259766 0,-0.629604 0.629604,-1.887974 0,-2.517578 -0.629605,-0.629605 -1.887975,0.629604 -2.517579,0 -0.629605,-0.629605 1.259766,-1.889228 1.259766,-3.148437 -1.888813,0 -1.889927,0.630161 -2.5195312,1.259765 -0.6296045,0.629605 -1.2590673,0.628908 -1.8886719,0.628906 -0.3419803,0 -0.6092216,-0.358275 -0.7851563,-0.689453 0.2988384,-1.955132 0.8272625,-3.833206 1.5488282,-5.609375 0.3202298,-0.292359 0.7569374,-0.626953 1.125,-0.626953 0.6296042,0 1.3057092,0.635469 1.8886722,0.63086 0.582963,-0.0045 0.629461,-0.63086 1.888672,-0.63086 1.259209,0 1.888671,0.630161 1.888671,1.259766 0,0.629604 0.630162,0.628906 1.259766,0.628906 0,-0.629604 -0.630302,-1.887274 0.628906,-3.146484 1.25921,-1.259208 1.889228,-0.629462 3.148438,-1.888672 1.259208,-1.259209 0.629463,-1.260322 1.888672,-2.519531 0.629604,-0.629604 1.500269,-0.246706 1.888671,-0.628907 0.388405,-0.382202 -1.41e-4,-1.259068 1.888672,-1.888671 1.888814,-0.629605 0.630161,0.628906 1.259766,0.628906 0.629604,-0.629605 3.778041,-0.629463 3.148438,-1.888672 -0.629606,0 -0.629463,0.628906 -1.888672,0.628906 -1.259209,0 1.25851,-1.888672 0.628906,-1.888672 -0.629605,0 -1.25921,-0.628906 0,-0.628906 0.492338,0 0.43118,0.765814 1.259766,0.628906 0.383856,-0.06343 -0.630303,-0.628906 0.628906,-0.628906 1.259209,0 1.259068,-0.6289062 1.888672,-0.6289062 0.629605,0 -1.257813,1.8886722 -1.257813,1.8886722 0,0 1.887973,0.628906 2.517578,0.628906 0.629604,0 0.629604,-0.630162 0,-1.259766 -0.629605,-0.629604 -1.258511,6.98e-4 -0.628906,-0.628906 0.629605,-0.6296047 1.259209,-1.8899268 0,-2.5195312 -0.561804,-0.2809067 -0.73687,-0.6817324 -0.769531,-1.0449219 z m -7.736328,0.8554687 c -0.41189,0.2482453 -1.13519,0.3871426 -1.56836,0.8203125 -0.629605,0.6296044 -0.630161,1.2578125 -1.259765,1.2578125 -0.46073,0 -0.450319,-0.6210912 -0.41211,-0.9570312 1.044076,-0.4458851 2.127865,-0.8186043 3.240235,-1.1210938 z m 8.402343,2.5410154 c 0.002,5.76e-4 0.0076,0.0071 0.0098,0.0078 -0.002,-4.3e-5 -0.0098,-0.0039 -0.01172,-0.0039 5.29e-4,-0.001 0.0014,-0.0029 0.002,-0.0039 z m -0.501953,0.75586 c 0.08306,0.08295 0.171802,0.188126 0.22461,0.203125 0.162524,0.04616 0.183442,0.02348 0.222656,0.02344 0.156856,-1.74e-4 0.236642,-0.02898 0.433594,0.167969 0.19141,0.19141 0.21229,0.296399 0.24414,0.382812 -0.20983,-0.02018 -0.752817,-0.130093 -1.248047,-0.271484 -0.138689,-0.0396 -0.13573,-0.04306 -0.257812,-0.08008 0.148757,-0.160677 0.187179,-0.186177 0.347656,-0.378906 0.01305,-0.01568 0.0203,-0.03127 0.0332,-0.04687 z m -15.480468,0.416015 c 0.855868,-0.05903 1.446813,0.412562 0.974609,0.884766 -0.545516,0.545516 -1.11252,0.154968 -2.478516,0.03906 0.369453,-0.297742 0.748322,-0.584683 1.134766,-0.861328 0.126245,-0.02982 0.25093,-0.05435 0.369141,-0.0625 z m 1.189453,1.433594 c 0.650966,-0.05704 2.224732,0.710937 1.673828,0.710938 -0.629605,0 -1.259068,0.628906 -1.888672,0.628906 -0.629605,0 -0.371001,-0.888765 0,-1.259766 0.04641,-0.04641 0.121851,-0.07194 0.214844,-0.08008 z m -0.84375,0.08008 c 0.312669,0 -0.478461,0.397122 -0.945313,0.945313 -0.473236,0.555689 -0.942829,1.576701 -1.259766,1.259765 -0.314802,-0.314802 0.315709,-0.944614 0.945313,-1.574218 0.629605,-0.629605 0.630162,-0.63086 1.259766,-0.63086 z m 3.148437,0.78711 c 0.314802,0 0.628906,0.157854 0.628906,0.472656 0,0.629605 -1.259765,0.629605 -1.259765,0 0,-0.314802 0.316057,-0.472657 0.630859,-0.472656 z M 18.150391,15 h 1.888671 c 0,0 -0.630161,0.630859 -1.259765,0.630859 C 18.149692,15.630859 17.520787,15 18.150391,15 Z m 33.023437,0.3125 c 0.580083,0.666672 1.176626,1.317618 1.685547,2.042969 l -0.400391,0.375 c -0.164362,0.154181 -0.304784,0.289725 -0.417968,0.476562 -0.0292,0.04821 -0.03234,0.114874 -0.03711,0.181641 -0.0093,-0.08823 -0.0307,-0.175632 -0.08789,-0.261719 -0.206895,-0.311416 -0.606186,-0.478515 -1.027344,-0.478515 -0.07399,0 -0.06535,-0.0087 -0.05664,-0.002 0.0087,0.0068 -0.0013,0.0061 -0.01953,-0.04883 -0.0365,-0.109807 -0.05273,-0.393998 -0.05273,-0.708984 0,-0.21389 0.07953,-0.582997 0.167968,-0.873047 0.02329,-0.07636 0.04264,-0.127341 0.06445,-0.191406 h 0.0098 z m 1.626953,2.783203 c 0.253801,0.379858 0.495389,0.767817 0.728516,1.162109 -1.337187,-0.369263 -1.338965,-0.589473 -0.728516,-1.162109 z m -0.746093,0.943359 c 0.13429,0.20134 0.305845,0.325649 0.503906,0.416016 0.222846,0.101675 0.49133,0.189454 0.83789,0.285156 l 1.00586,0.279297 C 56.314979,23.601855 57.5,27.636973 57.5,32 c 0,0.913971 -0.174882,1.777539 -0.267578,2.666016 l -0.56836,0.134765 c -1.467739,0.349172 -2.508017,1.107422 -3.255859,1.107422 -0.684204,0 -1.480287,0.106227 -2.169922,0.15625 -0.344817,0.02501 -0.661582,0.03604 -0.904297,0.01953 -0.242715,-0.01651 -0.402356,-0.07661 -0.421875,-0.08984 -0.930328,-0.630748 -1.543596,-1.095137 -1.892578,-1.441407 -0.348981,-0.34627 -0.408203,-0.518835 -0.408203,-0.664062 0,-0.245358 -0.100211,-0.411352 -0.197266,-0.550781 -0.09705,-0.13943 -0.208661,-0.259414 -0.332031,-0.382813 -0.24674,-0.246797 -0.538273,-0.499146 -0.796875,-0.757812 -0.258601,-0.258667 -0.478047,-0.525288 -0.582031,-0.740235 -0.103984,-0.214946 -0.11607,-0.326459 -0.0332,-0.492187 0.689224,-1.378451 0.681641,-2.741859 0.68164,-3.371094 0,-0.235478 -0.09057,-0.479991 -0.228515,-0.625 0.02834,-0.08257 0.05921,-0.177004 0.175781,-0.410156 0.318401,-0.6368 0.387939,-0.903545 0.59375,-1.199219 0.558193,-0.801923 0.268658,-0.571392 1.203125,-1.505859 0.226446,-0.226447 0.665294,-0.459645 1.083985,-0.710938 0.209345,-0.125646 0.415402,-0.257152 0.597656,-0.439453 0.182254,-0.182301 0.353515,-0.453295 0.353515,-0.777344 0,-0.315171 0.006,-0.525357 0.103516,-0.720703 0.09747,-0.195346 0.307031,-0.435742 0.876953,-0.720703 0.274103,-0.13705 0.451951,-0.347841 0.609375,-0.587891 0.157424,-0.240049 0.282475,-0.514575 0.341797,-0.8125 0.0028,-0.01403 -0.01034,-0.03068 -0.0078,-0.04492 z m -40.41211,8.595704 c -0.14641,0.286901 -0.209112,0.536168 -0.43164,0.847656 -0.199439,0.279166 -0.397046,0.547356 -0.521485,0.865234 -0.06222,0.158939 -0.10789,0.338959 -0.08984,0.542969 0.01804,0.20401 0.119105,0.421839 0.271485,0.574219 0.275212,0.275212 0.665296,0.349862 0.96875,0.322265 0.303453,-0.0276 0.564784,-0.122471 0.800781,-0.201171 0.235997,-0.0787 0.44693,-0.142544 0.576172,-0.154297 0.129242,-0.01175 0.132285,-0.0064 0.171875,0.0332 0.138103,0.138103 0.165512,0.403613 0.0957,0.822265 -0.06981,0.418653 -0.242188,0.860329 -0.242187,1.341797 -10e-7,0.481616 0.226254,0.903988 0.541015,1.21875 0.314762,0.314762 0.737134,0.541016 1.21875,0.541016 0.100145,0 0.412278,-0.02294 0.59375,-0.02539 -0.148049,0.06598 -0.303827,0.13769 -0.394531,0.191407 -0.131177,0.07769 -0.205733,0.09375 -0.199219,0.09375 0.0092,0 -0.207989,-0.04384 -0.441406,-0.15625 -0.233418,-0.112407 -0.510323,-0.277968 -0.763672,-0.458985 -0.253349,-0.181016 -0.485572,-0.381711 -0.636719,-0.548828 -0.151146,-0.167117 -0.175781,-0.317097 -0.175781,-0.224609 0,-0.324215 -0.130417,-0.582555 -0.300781,-0.837891 -0.170364,-0.255336 -0.396198,-0.501867 -0.666016,-0.726563 -0.539636,-0.44939 -1.256482,-0.824218 -2.0527342,-0.824218 -0.208587,0 -0.4829332,-0.189339 -0.8496094,-0.507813 -0.3666782,-0.31847 -0.8117347,-0.753906 -1.484376,-0.814451 -0.2442463,-0.02197 -0.4894936,0.01976 -0.7246094,0.105469 l -0.1777344,0.06641 c 0.039097,-0.43869 0.07004,-0.878691 0.1308594,-1.310547 0.1010127,0.188553 0.2250421,0.393824 0.4082031,0.576172 0.1875191,0.186687 0.462996,0.365234 0.8085938,0.365234 0.6292349,2e-6 1.4946289,-0.02783 2.2421871,-0.77539 0.373676,-0.373675 0.525882,-0.663989 0.734375,-0.820313 0.08591,-0.06441 0.431131,-0.07137 0.589844,-0.121093 z m -4.0566405,2.412109 c 0.9188916,0.08271 1.4940463,1.324219 2.3789063,1.324219 1.2592092,0 2.5195312,1.259068 2.5195312,1.888672 0,0.629605 1.887973,1.888672 2.517578,1.888672 0.629605,0 1.123243,-1.238425 1.888672,0.628906 0.76543,1.867332 -1.888672,3.147737 -1.888672,3.777344 0,0.629603 0.314453,0.63016 0.314453,1.259765 0,0.629605 -0.337962,0.616934 -0.314453,1.259766 0.02348,0.642832 0.630162,0.629463 1.259766,1.888672 0.629604,1.259208 1.259068,3.147738 1.888672,3.777343 0.629605,0.629605 2.518833,0.629463 3.148437,1.888672 0.417541,0.83508 0.565757,3.507392 0.625,5.265625 C 13.12123,51.03313 7,42.260043 7,32 7,31.368376 7.032547,30.744592 7.078125,30.125 7.2593073,30.05895 7.428295,30.0327 7.5859375,30.04687 Z M 20.521484,32.875 c 0.528092,0.01803 1.172523,0.09114 1.9375,0.244141 3.047342,0.609467 4.151488,1.75305 4.78125,2.382812 0.373897,0.373897 0.810152,0.593945 1.279297,0.6875 0.469145,0.09356 0.964239,0.08789 1.59375,0.08789 0.106488,0 0.32089,0.09618 0.580078,0.355468 0.259189,0.25929 0.540854,0.648483 0.806641,1.066407 0.265787,0.417923 0.518286,0.864091 0.748047,1.253906 0.22976,0.389815 0.412355,0.70923 0.658203,0.955078 0.275271,0.275271 0.622022,0.418298 1.042969,0.576172 0.420947,0.157874 0.907576,0.300584 1.392578,0.421875 0.485002,0.121291 0.966709,0.221822 1.373047,0.292969 0.406337,0.07115 0.712317,0.115234 0.953125,0.115234 -0.0092,0 0.211405,0.04524 0.458984,0.160156 0.247579,0.114919 0.54746,0.283862 0.849609,0.472657 0.531116,0.331863 1.008144,0.706901 1.306641,0.974609 -0.04702,1.276595 -0.391659,1.914036 -0.810547,2.472656 -0.448174,0.597675 -1.044922,1.234644 -1.044922,2.345703 0,1.777603 -0.547546,2.23572 -1.207031,3.554688 -0.210185,0.420369 -0.7149,0.635538 -1.351562,0.835937 -0.318332,0.1002 -0.653926,0.1918 -0.970703,0.333985 -0.316778,0.142184 -0.64539,0.350841 -0.828126,0.720703 -0.257336,0.520857 -0.265581,0.956712 -0.289062,1.300781 -0.02348,0.34407 -0.05272,0.646452 -0.337891,1.216797 -0.153998,0.307997 -0.387857,0.630722 -0.644531,0.955078 l -0.654297,0.828125 C 32.095079,57.486608 32.04952,57.5 32,57.5 c -3.387678,0 -6.599716,-0.685909 -9.550781,-1.873047 l -0.02539,-0.75 c -0.02981,-0.88462 -0.08123,-1.998967 -0.179687,-3.009765 -0.09846,-1.010799 -0.204452,-1.87375 -0.498047,-2.460938 -0.404268,-0.808535 -1.181794,-1.176893 -1.845703,-1.425781 -0.66391,-0.248888 -1.258511,-0.455777 -1.396485,-0.59375 -0.196964,-0.196965 -0.532613,-0.806282 -0.841797,-1.501953 -0.309183,-0.695672 -0.623416,-1.485114 -0.953125,-2.144532 -0.343847,-0.687694 -0.71545,-1.06981 -0.949218,-1.304687 -0.116885,-0.117439 -0.189401,-0.196572 -0.21875,-0.242188 -0.02935,-0.04561 -0.03606,-0.05456 -0.03906,-0.136718 -0.0086,-0.234088 0.0132,-0.234537 0.0918,-0.384766 0.07859,-0.150229 0.222656,-0.453156 0.222656,-0.857422 0,-0.398043 -0.130371,-0.695974 -0.208984,-0.853515 -0.06994,-0.14016 -0.09407,-0.187702 -0.09961,-0.355469 0.0036,-0.0078 0.0019,-0.009 0.01367,-0.02539 0.04204,-0.05851 0.127661,-0.154588 0.238282,-0.265625 0.221242,-0.222075 0.538902,-0.508029 0.845703,-0.849609 0.3068,-0.34158 0.608323,-0.742376 0.783203,-1.228516 0.174879,-0.486139 0.202272,-1.069221 -0.03516,-1.648437 -0.205867,-0.50223 -0.396074,-0.833865 -0.658204,-1.06836 -0.190094,-0.170055 -0.439597,-0.167609 -0.669921,-0.175781 0.309918,-0.01092 0.503857,3.52e-4 0.841797,-0.03711 0.374399,-0.0415 0.733541,-0.09949 1.048828,-0.212891 0.157643,-0.0567 0.308381,-0.123402 0.451172,-0.246094 0.142792,-0.122691 0.283203,-0.342496 0.283203,-0.58789 0,0.0092 -0.01787,0.0015 0.06445,-0.06641 0.08233,-0.06789 0.266016,-0.165509 0.566406,-0.232421 0.30039,-0.06691 0.712143,-0.103968 1.240234,-0.08594 z" fill="currentColor" opacity="0.6"/>
</svg>