<?xml version="1.0" encoding="utf-8"?>
<svg height="128" version="1.1" viewBox="0 0 128 128" width="128" xmlns="http://www.w3.org/2000/svg" xmlns:svg="http://www.w3.org/2000/svg" xmlns:xlink="http://www.w3.org/1999/xlink">
 <namedview bordercolor="#666666" borderopacity="1.0" id="namedview-conformist" pagecolor="#ffffff" pageopacity="0.0" pageshadow="0" showgrid="true">
  <grid class="ColorScheme-Background" empspacing="4" fill="currentColor" opacity="0.6" type="xygrid"/>
 </namedview>
 <defs id="primary-definitions">
  <style class="ColorScheme-Background" fill="currentColor" opacity="0.6" type="text/css">
   .ColorScheme-Text           { color:#eff0f1; }
      .ColorScheme-Background     { color:#31363b; }
      .ColorScheme-Highlight      { color:#3daefd; }
      .ColorScheme-ViewBackground { color:#fcfcfc; }
      .ColorScheme-PositiveText   { color:#27ae60; }
      .ColorScheme-NeutralText    { color:#f67400; }
      .ColorScheme-NegativeText   { color:#da4453; }
  </style>
 </defs>
 <path class="ColorScheme-Background" d="m 64,12 c -28.807964,0 -52,23.192036 -52,52 0,28.807964 23.192036,52 52,52 28.807964,0 52,-23.192036 52,-52 C 116,35.192036 92.807964,12 64,12 Z m 2.261719,1.056641 c 14.226654,0.615386 26.905299,7.001165 35.762841,16.891786 0,0 -0.93081,2.07523 -0.93081,3.354307 0,1.279079 2.2e-4,2.556641 1.2793,2.556641 2.55816,0 1.14405,3.265874 0,3.837891 -2.558157,1.279077 -2.556644,2.558812 -2.556644,3.83789 0,1.279078 -2.558812,1.918187 -3.83789,3.197266 -1.918616,1.918616 -1.466094,1.627735 -2.558594,3.197266 -0.50961,0.732117 -0.660147,1.320292 -1.279297,2.558593 -1.279078,2.558156 0,1.279515 0,2.558594 0,1.279077 -2.19e-4,3.836376 -1.279297,6.394531 -1.279078,2.558156 3.837891,5.117407 3.837891,6.396485 0,1.279077 1.300007,2.52725 5.117187,5.115234 1.236084,0.838051 5.115674,0 7.673824,0 2.11266,0 4.23881,-1.722958 7.07227,-2.330078 C 111.42629,94.99492 91.228429,113.8685 66.25,114.94336 c 0.600265,-0.7426 1.182249,-1.52662 1.587891,-2.33789 1.279078,-2.55816 0.40657,-3.35076 1.279297,-5.11719 0.872726,-1.76643 5.117407,-1.27778 6.396484,-3.83594 1.279078,-2.55816 2.55664,-3.838546 2.55664,-7.675778 0,-3.837233 3.837891,-3.837032 3.837891,-10.232421 -1.279079,-1.279078 -5.115453,-3.837891 -6.394531,-3.837891 -1.279077,0 -7.676001,-1.277562 -8.955078,-2.556641 -1.279078,-1.279077 -3.836375,-7.675781 -6.394532,-7.675781 -2.558154,0 -3.838109,-2.19e-4 -5.117187,-1.279297 -1.279077,-1.279078 -3.837032,-3.836157 -10.232422,-5.115234 -6.395388,-1.279078 -8.953125,2.2e-4 -8.953125,1.279297 0,1.279079 -5.115453,1.279297 -6.394531,1.279297 -1.279078,0 -2.558594,-1.279517 -2.558594,-2.558594 0,-1.279078 1.279078,-3.838111 0,-5.117188 -1.279077,-1.279079 -3.838109,1.279077 -5.117187,0 -1.279078,-1.279079 2.558593,-3.836375 2.558593,-6.394531 -3.837233,0 -3.836156,1.279517 -5.115234,2.558594 -1.279077,1.279078 -2.558814,1.279297 -3.837891,1.279297 -0.814756,0 -1.408293,-0.992557 -1.75,-1.730469 0.592628,-3.730723 1.592655,-7.319769 2.94336,-10.730469 0.639736,-0.63428 1.73782,-1.609375 2.644531,-1.609375 1.279078,0 2.651613,1.28866 3.835937,1.279297 1.184323,-0.009 1.279735,-1.279297 3.837891,-1.279297 2.558156,0 3.837891,1.279517 3.837891,2.558594 0,1.279079 1.277562,1.277344 2.55664,1.277344 0,-1.279079 -1.278859,-3.836376 1.279297,-6.394532 2.558155,-2.558154 3.83833,-1.279734 6.396485,-3.83789 2.558156,-2.558155 1.277782,-2.557078 3.835937,-5.115234 1.279079,-1.279078 3.048828,-0.502833 3.837891,-1.279297 0.789063,-0.776465 6.57e-4,-2.558814 3.83789,-3.837891 3.837234,-1.279079 1.277564,1.279297 2.556641,1.279297 1.279078,-1.279077 7.675561,-1.279735 6.396484,-3.837891 -1.279079,0 -1.279735,1.279297 -3.83789,1.279297 -2.558156,0 2.558374,-3.835937 1.279297,-3.835937 -1.279078,0 -2.558156,-1.279297 0,-1.279297 1.000213,0 0.875274,1.557432 2.558593,1.279297 0.779827,-0.128854 -1.278859,-1.279297 1.279297,-1.279297 2.558156,0 2.55686,-1.279297 3.835938,-1.279297 1.279077,0 -2.556641,3.83789 -2.556641,3.83789 0,0 3.836157,1.277344 5.115235,1.277344 1.279077,0 1.279077,-1.277562 0,-2.55664 -1.279078,-1.279078 -2.558374,-2.19e-4 -1.279297,-1.279297 1.279078,-1.279077 2.558156,-3.83811 0,-5.117188 -1.253045,-0.626529 -1.564056,-1.549207 -1.576172,-2.33789 z m -15.302735,1.61914 c -0.644286,0.746861 -2.533372,0.945482 -3.585937,1.998047 -1.279077,1.279077 -1.279515,2.558594 -2.558594,2.558594 -1.120834,0 -0.881458,-1.740015 -0.802734,-2.191406 2.237062,-0.948762 4.557989,-1.739424 6.947265,-2.365235 z m -15.796875,7.875 c 1.738747,-0.119913 2.937824,0.837567 1.978516,1.796875 -1.148777,1.148777 -2.338351,0.250415 -5.341797,0.05273 0.630874,-0.512978 1.274156,-1.011344 1.929688,-1.494141 0.494263,-0.194347 0.983559,-0.324432 1.433593,-0.355469 z m 2.41211,2.914063 c 1.322477,-0.115884 4.52349,1.441406 3.404297,1.441406 -1.279078,0 -2.558812,1.279297 -3.837891,1.279297 -1.279077,0 -0.753709,-1.804884 0,-2.558594 0.09427,-0.09427 0.244675,-0.14557 0.433594,-0.162109 z m -1.712891,0.162109 c 0.635202,0 -0.969533,0.806242 -1.917969,1.919922 -0.961406,1.128914 -1.914718,3.200517 -2.558593,2.556641 -0.639538,-0.639538 0.63889,-1.918189 1.917968,-3.197266 1.279078,-1.279079 1.279516,-1.279297 2.558594,-1.279297 z m 6.394531,1.599609 c 0.639539,0 1.279297,0.319446 1.279297,0.958985 0,1.279078 -2.55664,1.279078 -2.55664,0 0,-0.639539 0.637804,-0.958984 1.277343,-0.958985 z m -6.394531,2.238282 h 3.837891 c 0,0 -1.279515,1.279297 -2.558594,1.279297 -1.279077,0 -2.558375,-1.279297 -1.279297,-1.279297 z m 70.548832,6.136718 c 0.5676,0.848089 1.10412,1.718227 1.62109,2.601563 -3.21432,-0.851457 -3.08827,-1.253319 -1.62109,-2.601563 z M 14.400391,60.033203 c 1.86678,0.168028 3.03634,2.6875 4.833984,2.6875 2.558156,0 5.115234,2.558813 5.115234,3.837891 0,1.279078 3.83811,3.835937 5.117188,3.835937 1.279078,0 2.280924,-2.514294 3.835937,1.279297 1.555013,3.793592 -3.835937,6.396704 -3.835937,7.675781 0,1.279078 0.638672,1.277564 0.638672,2.556641 0,1.279079 -0.686433,1.252643 -0.638672,2.558594 0.04771,1.305952 1.277563,1.279734 2.556641,3.83789 1.279077,2.558156 2.558812,6.39475 3.83789,7.673828 1.279077,1.279078 5.115453,1.279735 6.394531,3.837891 0.865671,1.731347 1.166139,7.368077 1.28125,10.931637 C 25.530431,102.88972 13,84.966238 13,64 c 0,-1.25167 0.06066,-2.488245 0.148438,-3.716797 0.453267,-0.205545 0.868957,-0.284473 1.251953,-0.25 z" fill="currentColor" opacity="0.6"/>
 <path class="ColorScheme-Background" d="M 64 12 C 35.192036 12 12 35.192036 12 64 C 12 92.807964 35.192036 116 64 116 C 92.807964 116 116 92.807964 116 64 C 116 35.192036 92.807964 12 64 12 z M 64 12.5 C 64.725617 12.5 65.43032 12.57802 66.148438 12.607422 A 0.50005 0.50005 0 0 0 65.761719 13.064453 C 65.775759 13.978547 66.216163 15.142254 67.615234 15.841797 C 68.745199 16.406779 68.91644 17.071489 68.783203 17.871094 C 68.649966 18.670698 68.064947 19.577631 67.484375 20.158203 C 67.324485 20.318093 67.20328 20.439621 67.109375 20.539062 C 67.015465 20.638503 66.950694 20.688332 66.871094 20.847656 C 66.831294 20.927316 66.761621 21.087823 66.84375 21.298828 C 66.92588 21.509834 67.115033 21.595343 67.205078 21.621094 C 67.385168 21.672594 67.437608 21.652334 67.517578 21.652344 C 67.837459 21.652399 68.241984 21.622844 68.763672 22.144531 C 69.344354 22.725214 69.576172 23.291951 69.576172 23.548828 C 69.576172 23.677267 69.552212 23.713144 69.507812 23.751953 C 69.463413 23.790763 69.353723 23.847656 69.117188 23.847656 C 68.644091 23.847656 67.323633 23.544402 66.216797 23.228516 C 65.510372 23.026905 65.27685 22.943848 64.904297 22.824219 C 65.243401 22.474587 65.576162 22.153187 66.144531 21.470703 C 66.554548 20.978366 66.927026 20.494027 67.146484 20.054688 C 67.256214 19.835019 67.361734 19.632595 67.308594 19.314453 C 67.282024 19.155382 67.1735 18.963314 67.017578 18.859375 C 66.861656 18.755436 66.701047 18.732422 66.558594 18.732422 C 65.75236 18.732422 65.278426 19.165699 64.841797 19.457031 C 64.405168 19.748364 63.918385 20.011719 62.722656 20.011719 C 62.045642 20.011719 61.635515 20.056039 61.291016 20.267578 C 61.118766 20.373347 60.967436 20.558684 60.916016 20.757812 C 60.864596 20.956941 60.898593 21.128495 60.939453 21.255859 C 60.941953 21.263659 60.942712 21.261861 60.945312 21.269531 C 60.867582 21.256301 60.734035 21.276933 60.677734 21.251953 C 60.5339 21.188053 60.418901 21.083308 60.287109 20.929688 C 60.155318 20.776069 60.019581 20.575172 59.806641 20.380859 C 59.5937 20.186546 59.264577 20.011719 58.884766 20.011719 C 58.203554 20.011719 57.748224 20.07622 57.386719 20.273438 C 57.205966 20.372048 57.033639 20.52452 56.953125 20.744141 C 56.872615 20.963762 56.913367 21.205608 56.998047 21.375 C 57.16741 21.713785 57.450613 21.894999 57.775391 22.044922 C 57.954975 22.127822 58.18047 22.138832 58.388672 22.181641 C 58.151693 22.495089 57.764381 22.928633 57.380859 23.388672 C 56.970623 23.880755 56.575965 24.347137 56.423828 24.894531 C 56.347758 25.168228 56.367808 25.565364 56.628906 25.820312 C 56.89 26.075263 57.223221 26.126953 57.605469 26.126953 C 58.967893 26.126953 59.758778 25.752552 60.28125 25.404297 C 60.642911 25.163231 60.845687 25.103554 61.085938 25.019531 C 61.083838 25.036071 61.103029 25.070557 61.099609 25.085938 C 61.073089 25.205208 60.99971 25.327318 60.835938 25.46875 C 60.508389 25.751614 59.836677 26.034699 59.060547 26.267578 C 58.284417 26.500457 57.407779 26.69972 56.626953 26.925781 C 56.037817 27.096345 55.59571 27.338904 55.167969 27.609375 C 55.190979 27.469029 55.228306 27.323821 55.228516 27.066406 C 55.228654 26.890952 55.201596 26.672825 55.060547 26.466797 C 54.9195 26.260769 54.671281 26.121386 54.419922 26.074219 C 53.917203 25.979889 53.322956 26.101329 52.332031 26.431641 C 48.343115 27.761279 48.698506 29.997297 48.300781 30.388672 C 48.098827 30.587402 47.600939 30.631968 46.873047 30.697266 C 46.145155 30.762566 45.217768 30.913093 44.460938 31.669922 C 43.152394 32.978466 42.768664 33.718153 42.449219 34.357422 C 42.129774 34.996691 41.874609 35.535548 40.625 36.785156 C 39.404859 38.005297 38.582628 38.264051 37.623047 38.583984 C 36.663465 38.903918 35.566528 39.285036 34.228516 40.623047 C 31.770243 43.081319 32.551425 45.610887 32.740234 46.824219 C 32.357946 46.810049 31.931777 46.814321 31.703125 46.738281 C 31.526789 46.679621 31.425461 46.607857 31.361328 46.525391 C 31.297198 46.442921 31.246094 46.330285 31.246094 46.09375 C 31.246094 45.28746 30.832282 44.495288 30.085938 43.935547 C 29.339595 43.375805 28.270642 43.035156 26.908203 43.035156 C 25.546365 43.035156 24.737877 43.404057 24.201172 43.751953 C 23.932819 43.925901 23.734213 44.080092 23.566406 44.173828 C 23.398599 44.267568 23.273163 44.312882 23.066406 44.314453 C 22.657104 44.317653 22.060986 44.052313 21.408203 43.730469 C 20.75542 43.408624 20.041828 43.035156 19.234375 43.035156 C 18.601783 43.035156 18.035794 43.340295 17.527344 43.691406 C 17.018893 44.042518 16.568749 44.461413 16.238281 44.789062 A 0.50005 0.50005 0 0 0 16.183594 44.873047 C 19.410983 36.767396 24.750544 29.850768 31.367188 24.398438 A 0.50005 0.50005 0 0 0 31.765625 24.898438 C 33.006403 24.980107 33.824939 25.175784 34.607422 25.304688 C 34.534682 25.329648 34.431891 25.303584 34.359375 25.339844 C 33.92028 25.559391 33.588767 25.913185 32.949219 26.552734 C 32.30967 27.192283 31.658248 27.836914 31.216797 28.455078 C 30.996071 28.76416 30.820517 29.065501 30.746094 29.408203 C 30.671674 29.750905 30.753594 30.179345 31.03125 30.457031 C 31.180942 30.606723 31.403818 30.717767 31.625 30.724609 C 31.846182 30.731409 32.033943 30.652929 32.185547 30.558594 C 32.488755 30.369914 32.70967 30.100942 32.943359 29.792969 C 33.410739 29.177022 33.888507 28.382721 34.324219 27.871094 C 34.7468 27.374887 35.357161 26.909275 35.802734 26.564453 C 35.933027 26.463622 36.021773 26.373275 36.123047 26.285156 C 36.006853 26.557145 35.917492 26.840873 35.882812 27.128906 C 35.841232 27.474217 35.863442 27.842046 36.076172 28.166016 C 36.288901 28.489986 36.703266 28.685547 37.140625 28.685547 C 37.946859 28.685547 38.643501 28.312011 39.283203 27.992188 C 39.888981 27.689325 40.430001 27.463751 40.888672 27.4375 C 40.707911 27.664782 40.478516 27.865052 40.478516 28.185547 C 40.478516 30.130895 44.035156 30.130895 44.035156 28.185547 C 44.035156 27.699054 43.758681 27.281659 43.412109 27.050781 C 43.065538 26.819903 42.658877 26.726563 42.255859 26.726562 C 42.047508 26.726564 41.859703 26.838663 41.658203 26.894531 C 41.670333 26.741852 41.666704 26.581743 41.621094 26.505859 C 41.560064 26.404405 41.499171 26.345215 41.435547 26.289062 C 41.181049 26.064455 40.834592 25.885507 40.398438 25.6875 C 39.526128 25.291487 38.421453 24.888791 37.53125 24.966797 C 37.275815 24.989157 37.005275 25.055267 36.787109 25.273438 C 36.680407 25.38014 36.584171 25.501451 36.492188 25.626953 C 36.484807 25.551254 36.47054 25.472382 36.425781 25.400391 C 36.398931 25.357211 36.368721 25.365568 36.337891 25.335938 C 36.753199 25.241208 37.145005 25.050308 37.494141 24.701172 C 37.800201 24.395112 37.9886 24.02197 37.980469 23.634766 C 37.972369 23.247561 37.766182 22.905209 37.490234 22.666016 C 36.938339 22.18763 36.095324 21.985951 35.126953 22.052734 C 34.698617 22.082274 34.261488 22.221704 33.826172 22.373047 C 36.935505 20.119391 40.224487 18.108075 43.808594 16.587891 A 0.50005 0.50005 0 0 0 43.519531 16.955078 C 43.476221 17.203397 43.38343 17.781554 43.46875 18.376953 C 43.51141 18.674653 43.596571 18.989332 43.8125 19.263672 C 44.028429 19.538012 44.404876 19.732422 44.814453 19.732422 C 45.217584 19.732422 45.580809 19.618256 45.861328 19.421875 C 46.141848 19.225494 46.335605 18.97215 46.509766 18.710938 C 46.858087 18.188515 47.14595 17.607956 47.726562 17.027344 C 48.158209 16.595699 48.828388 16.29525 49.505859 16.023438 C 50.059931 15.801136 50.56285 15.541408 51.003906 15.1875 C 51.032046 15.1801 51.057787 15.167526 51.085938 15.160156 L 51.078125 15.146484 C 51.152425 15.082104 51.271892 15.078464 51.337891 15.001953 A 0.50005 0.50005 0 0 0 50.966797 14.214844 C 55.134014 13.134204 59.484632 12.5 64 12.5 z M 66.261719 13.056641 C 80.488373 13.672027 93.167849 20.058598 102.02539 29.949219 C 102.02539 29.949219 101.09375 32.023657 101.09375 33.302734 C 101.09375 34.581813 101.09397 35.859375 102.37305 35.859375 C 104.93121 35.859375 103.5171 39.125249 102.37305 39.697266 C 99.81489 40.976343 99.816406 42.256078 99.816406 43.535156 C 99.816406 44.814234 97.257594 45.453343 95.978516 46.732422 C 94.0599 48.651038 94.512422 48.360157 93.419922 49.929688 C 92.910312 50.661805 92.759775 51.24998 92.140625 52.488281 C 90.861547 55.046437 92.140625 53.767796 92.140625 55.046875 C 92.140625 56.325952 92.140406 58.883251 90.861328 61.441406 C 89.58225 63.999562 94.699219 66.558813 94.699219 67.837891 C 94.699219 69.116968 95.999226 70.365141 99.816406 72.953125 C 101.05249 73.791176 104.93208 72.953125 107.49023 72.953125 C 109.60289 72.953125 111.72904 71.230167 114.5625 70.623047 C 111.42629 94.99492 91.228429 113.8685 66.25 114.94336 C 66.850265 114.20076 67.432249 113.41674 67.837891 112.60547 C 69.116969 110.04731 68.24446 109.25471 69.117188 107.48828 C 69.989914 105.72185 74.234595 106.2105 75.513672 103.65234 C 76.79275 101.09418 78.070313 99.813794 78.070312 95.976562 C 78.070312 92.13933 81.908203 92.13953 81.908203 85.744141 C 80.629124 84.465063 76.79275 81.90625 75.513672 81.90625 C 74.234595 81.90625 67.837671 80.628688 66.558594 79.349609 C 65.279516 78.070532 62.72222 71.673828 60.164062 71.673828 C 57.605908 71.673828 56.325953 71.673609 55.046875 70.394531 C 53.767798 69.115453 51.209843 66.558374 44.814453 65.279297 C 38.419065 64.000219 35.861328 65.279517 35.861328 66.558594 C 35.861328 67.837673 30.745875 67.837891 29.466797 67.837891 C 28.187719 67.837891 26.908203 66.558374 26.908203 65.279297 C 26.908203 64.000219 28.187281 61.441186 26.908203 60.162109 C 25.629126 58.88303 23.070094 61.441186 21.791016 60.162109 C 20.511938 58.88303 24.349609 56.325734 24.349609 53.767578 C 20.512376 53.767578 20.513453 55.047095 19.234375 56.326172 C 17.955298 57.60525 16.675561 57.605469 15.396484 57.605469 C 14.581728 57.605469 13.988191 56.612912 13.646484 55.875 C 14.239112 52.144277 15.239139 48.555231 16.589844 45.144531 C 17.22958 44.510251 18.327664 43.535156 19.234375 43.535156 C 20.513453 43.535156 21.885988 44.823816 23.070312 44.814453 C 24.254635 44.805453 24.350047 43.535156 26.908203 43.535156 C 29.466359 43.535156 30.746094 44.814673 30.746094 46.09375 C 30.746094 47.372829 32.023656 47.371094 33.302734 47.371094 C 33.302734 46.092015 32.023875 43.534718 34.582031 40.976562 C 37.140186 38.418408 38.420361 39.696828 40.978516 37.138672 C 43.536672 34.580517 42.256298 34.581594 44.814453 32.023438 C 46.093532 30.74436 47.863281 31.520605 48.652344 30.744141 C 49.441407 29.967676 48.653001 28.185327 52.490234 26.90625 C 56.327468 25.627171 53.767798 28.185547 55.046875 28.185547 C 56.325953 26.90647 62.722436 26.905812 61.443359 24.347656 C 60.16428 24.347656 60.163624 25.626953 57.605469 25.626953 C 55.047313 25.626953 60.163843 21.791016 58.884766 21.791016 C 57.605688 21.791016 56.32661 20.511719 58.884766 20.511719 C 59.884979 20.511719 59.76004 22.069151 61.443359 21.791016 C 62.223186 21.662162 60.1645 20.511719 62.722656 20.511719 C 65.280812 20.511719 65.279516 19.232422 66.558594 19.232422 C 67.837671 19.232422 64.001953 23.070312 64.001953 23.070312 C 64.001953 23.070312 67.838109 24.347656 69.117188 24.347656 C 70.396265 24.347656 70.396265 23.070094 69.117188 21.791016 C 67.83811 20.511938 66.558814 21.790797 67.837891 20.511719 C 69.116969 19.232642 70.396047 16.673609 67.837891 15.394531 C 66.584846 14.768002 66.273835 13.845324 66.261719 13.056641 z M 50.958984 14.675781 C 50.314698 15.422642 48.425612 15.621263 47.373047 16.673828 C 46.09397 17.952905 46.093532 19.232422 44.814453 19.232422 C 43.693619 19.232422 43.932995 17.492407 44.011719 17.041016 C 46.248781 16.092254 48.569708 15.301592 50.958984 14.675781 z M 35.162109 22.550781 C 36.900856 22.430868 38.099933 23.388348 37.140625 24.347656 C 35.991848 25.496433 34.802274 24.598076 31.798828 24.400391 C 32.429702 23.887413 33.072984 23.389047 33.728516 22.90625 C 34.222779 22.711903 34.712075 22.581818 35.162109 22.550781 z M 37.574219 25.464844 C 38.896696 25.34896 42.097709 26.90625 40.978516 26.90625 C 39.699438 26.90625 38.419704 28.185547 37.140625 28.185547 C 35.861548 28.185547 36.386916 26.380663 37.140625 25.626953 C 37.234895 25.532683 37.3853 25.481383 37.574219 25.464844 z M 35.861328 25.626953 C 36.49653 25.626953 34.891795 26.433195 33.943359 27.546875 C 32.981953 28.675789 32.028641 30.747392 31.384766 30.103516 C 30.745228 29.463978 32.023656 28.185327 33.302734 26.90625 C 34.581812 25.627171 34.58225 25.626953 35.861328 25.626953 z M 42.255859 27.226562 C 42.895398 27.226562 43.535156 27.546008 43.535156 28.185547 C 43.535156 29.464625 40.978516 29.464625 40.978516 28.185547 C 40.978516 27.546008 41.61632 27.226563 42.255859 27.226562 z M 35.861328 28.964844 C 35.65977 28.964844 35.482783 28.984091 35.306641 29.056641 C 35.130498 29.129191 34.939833 29.287773 34.867188 29.505859 C 34.794537 29.723946 34.844103 29.932129 34.914062 30.082031 C 34.984032 30.231933 35.078086 30.349571 35.1875 30.458984 C 35.625155 30.896639 36.334392 31.244141 37.140625 31.244141 C 37.946859 31.244141 38.655312 30.869746 39.177734 30.521484 C 39.700157 30.173223 40.052734 29.818359 40.052734 29.818359 A 0.50005 0.50005 0 0 0 39.699219 28.964844 L 35.861328 28.964844 z M 35.861328 29.464844 L 39.699219 29.464844 C 39.699219 29.464844 38.419704 30.744141 37.140625 30.744141 C 35.861548 30.744141 34.58225 29.464844 35.861328 29.464844 z M 102.51172 30.044922 C 104.01264 31.747496 105.54525 33.423573 106.8125 35.316406 A 0.50005 0.50005 0 0 0 106.07227 35.234375 C 105.69899 35.577395 105.39701 35.863306 105.18164 36.171875 C 105.07395 36.32616 104.98405 36.489938 104.94141 36.6875 C 104.89871 36.885062 104.92198 37.118575 105.01758 37.310547 C 105.2087 37.69449 105.55902 37.888965 106.01953 38.085938 C 106.48005 38.282911 107.08857 38.469983 107.90234 38.685547 A 0.50005 0.50005 0 0 0 108.47461 38.384766 C 112.82556 45.947124 115.5 54.611126 115.5 64 C 115.5 66.235122 115.31041 68.419792 115.03711 70.578125 A 0.50005 0.50005 0 0 0 114.45703 70.134766 C 112.97061 70.453259 111.69645 71.055507 110.55469 71.558594 C 109.41293 72.06168 108.41064 72.453125 107.49023 72.453125 C 106.15656 72.453125 104.54402 72.666316 103.12109 72.769531 C 102.40963 72.821141 101.74689 72.845054 101.21094 72.808594 C 100.67499 72.772134 100.27409 72.658681 100.09766 72.539062 C 98.198145 71.251229 96.933831 70.298587 96.177734 69.548828 C 95.421638 68.799069 95.199219 68.308035 95.199219 67.837891 C 95.199219 67.511318 95.059426 67.255284 94.892578 67.015625 C 94.725731 66.775966 94.513547 66.54482 94.273438 66.304688 C 93.793218 65.824426 93.197143 65.308525 92.654297 64.765625 C 92.11145 64.222725 91.627364 63.652651 91.371094 63.123047 C 91.114823 62.593443 91.063374 62.154503 91.308594 61.664062 C 92.647269 58.986714 92.640625 56.326008 92.640625 55.046875 C 92.640625 54.643772 92.508597 54.307505 92.314453 54.113281 C 92.163336 53.962101 92.108176 53.950005 92.080078 53.943359 C 92.081678 53.925839 92.078991 53.939161 92.087891 53.900391 C 92.129321 53.720823 92.275578 53.335564 92.587891 52.710938 C 93.220865 51.444989 93.365828 50.881795 93.830078 50.214844 C 94.943014 48.615954 94.423346 48.994623 96.332031 47.085938 C 96.883131 46.534838 97.809966 46.057168 98.634766 45.5625 C 99.047166 45.315166 99.435717 45.062207 99.75 44.748047 C 100.06428 44.433887 100.31641 44.021635 100.31641 43.535156 C 100.31641 42.895421 100.32241 42.360217 100.58203 41.839844 C 100.84184 41.31947 101.37632 40.754222 102.5957 40.144531 C 103.01508 39.934844 103.34668 39.567266 103.63281 39.130859 C 103.91894 38.694453 104.14776 38.185516 104.25195 37.662109 C 104.35614 37.138703 104.34245 36.573023 104.0293 36.101562 C 103.71616 35.630103 103.11897 35.359375 102.37305 35.359375 C 102.13651 35.359375 102.02218 35.308405 101.93945 35.244141 C 101.85675 35.179871 101.78736 35.078689 101.72852 34.902344 C 101.61082 34.549653 101.59375 33.942245 101.59375 33.302734 C 101.59375 32.784483 101.80636 31.964496 102.03125 31.308594 C 102.25614 30.652692 102.48047 30.152344 102.48047 30.152344 A 0.50005 0.50005 0 0 0 102.51172 30.044922 z M 106.41016 35.601562 C 106.97776 36.449652 107.51428 37.319789 108.03125 38.203125 C 104.81693 37.351668 104.94298 36.949807 106.41016 35.601562 z M 23.667969 54.332031 C 23.446586 55.235369 22.851185 56.219977 22.183594 57.154297 C 21.781211 57.717447 21.401319 58.249586 21.185547 58.800781 C 21.077661 59.076379 21.008217 59.365727 21.035156 59.669922 C 21.062096 59.974117 21.203963 60.282088 21.4375 60.515625 C 21.87514 60.953265 22.469274 61.067415 22.996094 61.019531 C 23.522914 60.971651 24.028049 60.796603 24.507812 60.636719 C 24.987576 60.476834 25.442213 60.33284 25.794922 60.300781 C 26.147631 60.268721 26.352791 60.313731 26.554688 60.515625 C 27.017409 60.978346 27.045533 61.732453 26.894531 62.638672 C 26.743529 63.544891 26.408203 64.473092 26.408203 65.279297 C 26.408203 66.085558 26.795203 66.834265 27.353516 67.392578 C 27.911828 67.950891 28.660535 68.337891 29.466797 68.337891 C 30.106364 68.337891 31.720063 68.340191 33.199219 68.175781 C 33.938797 68.093561 34.642073 67.972426 35.210938 67.767578 C 35.49537 67.665154 35.749822 67.544258 35.964844 67.359375 C 36.179865 67.174492 36.361328 66.885117 36.361328 66.558594 C 36.361328 66.405464 36.424848 66.235294 36.679688 66.025391 C 36.934522 65.815487 37.383001 65.595263 38.048828 65.447266 C 39.380482 65.15127 41.56311 65.138794 44.716797 65.769531 C 51.011659 67.028503 53.414365 69.469051 54.693359 70.748047 C 55.391854 71.446541 56.152293 71.828884 57.027344 72.003906 C 57.902394 72.178928 58.884974 72.173828 60.164062 72.173828 C 60.595225 72.173828 61.135129 72.472831 61.708984 73.046875 C 62.282839 73.620919 62.869904 74.43614 63.419922 75.300781 C 63.96994 76.165423 64.485994 77.079504 64.949219 77.865234 C 65.412444 78.650964 65.79687 79.294918 66.205078 79.703125 C 66.642768 80.140816 67.315638 80.447913 68.142578 80.757812 C 68.969518 81.067713 69.941882 81.348992 70.914062 81.591797 C 71.886244 81.834602 72.855669 82.037706 73.667969 82.179688 C 74.480269 82.32167 75.110668 82.40625 75.513672 82.40625 C 75.666732 82.40625 76.130518 82.532393 76.662109 82.779297 C 77.1937 83.026201 77.818585 83.377679 78.445312 83.769531 C 79.62629 84.507918 80.754533 85.375814 81.375 85.962891 C 81.32348 88.868751 80.496764 90.310559 79.589844 91.519531 C 78.654378 92.766557 77.570313 93.891254 77.570312 95.976562 C 77.570312 99.702811 76.375196 100.8121 75.066406 103.42969 C 74.531503 104.4995 73.325764 104.97789 72.013672 105.39062 C 71.357626 105.59699 70.690938 105.78157 70.099609 106.04688 C 69.508281 106.31217 68.961501 106.67346 68.667969 107.26758 C 68.18914 108.23674 68.180352 108.99583 68.130859 109.71484 C 68.081369 110.43386 68.000589 111.16288 67.390625 112.38281 C 67.012909 113.13823 66.452759 113.89724 65.861328 114.62891 A 0.50005 0.50005 0 0 0 66.181641 115.39062 C 65.452542 115.4209 64.736836 115.5 64 115.5 C 56.673928 115.5 49.740154 113.9448 43.443359 111.21289 A 0.50005 0.50005 0 0 0 44.037109 110.73047 C 43.979379 108.94316 43.875249 106.63433 43.675781 104.54492 C 43.476313 102.45551 43.222677 100.6309 42.703125 99.591797 C 41.974172 98.13389 40.54744 97.439916 39.234375 96.947266 C 37.92131 96.454615 36.677675 96.085878 36.214844 95.623047 C 35.693097 95.1013 35.032554 93.842252 34.398438 92.416016 C 33.764322 90.989779 33.125125 89.388923 32.470703 88.080078 C 31.802192 86.743057 31.112373 86.039351 30.638672 85.5625 C 30.401821 85.324075 30.228384 85.144312 30.126953 84.986328 C 30.025523 84.828345 29.975861 84.695372 29.966797 84.447266 C 29.946107 83.881595 30.048268 83.719062 30.210938 83.408203 C 30.373614 83.097344 30.605469 82.635232 30.605469 81.90625 C 30.605469 81.183492 30.39209 80.723687 30.232422 80.404297 C 30.072754 80.084906 29.966797 79.905927 29.966797 79.349609 C 29.966797 79.365339 29.986207 79.260209 30.101562 79.099609 C 30.216918 78.939008 30.405924 78.72985 30.638672 78.496094 C 31.104169 78.028582 31.740298 77.456966 32.339844 76.789062 C 32.939389 76.121161 33.509682 75.354035 33.830078 74.462891 C 34.150474 73.571746 34.20044 72.545152 33.765625 71.484375 C 33.362374 70.50061 32.991387 69.887681 32.560547 69.501953 C 32.129707 69.116225 31.581656 69.018853 31.158203 69.126953 C 30.73475 69.235053 30.415317 69.463645 30.132812 69.630859 C 29.85031 69.798073 29.622757 69.894531 29.466797 69.894531 C 29.31361 69.894531 28.851346 69.769637 28.34375 69.525391 C 27.836154 69.281144 27.256459 68.932675 26.71875 68.548828 C 26.181041 68.164981 25.683939 67.741451 25.339844 67.361328 C 24.995749 66.981205 24.849609 66.628306 24.849609 66.558594 C 24.849609 66.072228 24.63836 65.611099 24.326172 65.142578 C 24.013983 64.674058 23.585368 64.203184 23.072266 63.775391 C 22.046062 62.919805 20.680161 62.220703 19.234375 62.220703 C 18.569144 62.220703 17.91973 61.711127 17.171875 61.0625 C 16.42402 60.413873 15.591648 59.638337 14.445312 59.535156 C 13.962278 59.491676 13.455545 59.594976 12.941406 59.828125 A 0.50005 0.50005 0 0 0 12.691406 60.1875 C 12.794615 58.768419 12.964823 57.372411 13.179688 55.988281 A 0.50005 0.50005 0 0 0 13.193359 56.085938 C 13.374678 56.477494 13.621068 56.944307 13.964844 57.34375 C 14.308619 57.743193 14.786069 58.105469 15.396484 58.105469 C 16.675617 58.105469 18.190923 58.07666 19.587891 56.679688 C 20.286424 55.981155 20.600223 55.3665 21.132812 54.966797 C 21.579272 54.631736 22.372204 54.408946 23.667969 54.332031 z M 14.400391 60.033203 C 16.267171 60.201231 17.436731 62.720703 19.234375 62.720703 C 21.792531 62.720703 24.349609 65.279516 24.349609 66.558594 C 24.349609 67.837672 28.187719 70.394531 29.466797 70.394531 C 30.745875 70.394531 31.747721 67.880237 33.302734 71.673828 C 34.857747 75.46742 29.466797 78.070532 29.466797 79.349609 C 29.466797 80.628687 30.105469 80.627173 30.105469 81.90625 C 30.105469 83.185329 29.419036 83.158893 29.466797 84.464844 C 29.514507 85.770796 30.74436 85.744578 32.023438 88.302734 C 33.302515 90.86089 34.58225 94.697485 35.861328 95.976562 C 37.140405 97.25564 40.976781 97.256297 42.255859 99.814453 C 43.12153 101.5458 43.421998 107.18253 43.537109 110.74609 C 25.530431 102.88972 13 84.966238 13 64 C 13 62.74833 13.060659 61.511755 13.148438 60.283203 C 13.601705 60.077658 14.017395 59.99873 14.400391 60.033203 z " fill="currentColor" opacity="0.6" stroke-linecap="round" stroke-linejoin="round"/>
</svg>