<?xml version="1.0" encoding="utf-8"?>
<svg height="32" version="1.1" viewBox="0 0 32 32" width="32" xmlns="http://www.w3.org/2000/svg" xmlns:svg="http://www.w3.org/2000/svg" xmlns:xlink="http://www.w3.org/1999/xlink">
 <namedview bordercolor="#666666" borderopacity="1.0" id="namedview-conformist" pagecolor="#ffffff" pageopacity="0.0" pageshadow="0" showgrid="true">
  <grid class="ColorScheme-Background" empspacing="4" fill="currentColor" opacity="0.6" type="xygrid"/>
 </namedview>
 <defs id="primary-definitions">
  <style class="ColorScheme-Background" fill="currentColor" opacity="0.6" type="text/css">
   .ColorScheme-Text           { color:#eff0f1; }
      .ColorScheme-Background     { color:#31363b; }
      .ColorScheme-Highlight      { color:#3daefd; }
      .ColorScheme-ViewBackground { color:#fcfcfc; }
      .ColorScheme-PositiveText   { color:#27ae60; }
      .ColorScheme-NeutralText    { color:#f67400; }
      .ColorScheme-NegativeText   { color:#da4453; }
  </style>
 </defs>
 <path class="ColorScheme-Background" d="m 16,2.9981234 c -0.71232,6.05e-4 -1.374268,0.3831302 -1.730464,0.9999969 L 2.1445733,25.000009 C 1.3994588,26.291099 2.3843622,27.998564 3.8750368,28 H 28.124963 c 1.490675,-0.0014 2.475577,-1.708901 1.730464,-2.999991 L 17.730463,3.9981203 C 17.374268,3.3812536 16.71232,2.9987284 16,2.9981234 Z m 0,0.9999969 a 1.0000969,1.0000969 0 0 1 0.865231,0.4999985 L 28.990194,25.500007 a 1.0000969,1.0000969 0 0 1 -0.865231,1.499996 H 3.8750368 A 1.0000969,1.0000969 0 0 1 3.0098051,25.500007 L 15.134768,4.4981188 A 1.0000969,1.0000969 0 0 1 16,3.9981203 Z" fill="currentColor" opacity="0.6" paint-order="stroke fill markers" stroke-linecap="round" stroke-linejoin="round"/>
 <path class="ColorScheme-Background" d="m 16,9.0000582 c -1.10454,0 -2.156199,0.906556 -1.999994,1.9999938 l 0.999997,6.999978 c 0.0767,0.536918 0.382158,0.999997 0.999997,0.999997 0.617838,0 0.923294,-0.463078 0.999997,-0.999997 l 0.999997,-6.999978 C 18.156199,9.9066142 17.104539,9.0000582 16,9.0000582 Z m 0,11.9999628 c -1.104559,0 -2.000009,0.895449 -1.999994,1.999994 -1.5e-5,1.104547 0.895435,1.999994 1.999994,1.999994 1.104559,0 2.000008,-0.895447 1.999994,-1.999994 C 18.000008,21.89547 17.104559,21.000021 16,21.000021 Z" fill="currentColor" opacity="0.6"/>
 <path class="ColorScheme-Background" d="M 16 9 C 14.89546 9 13.843795 9.9065622 14 11 L 15 18 C 15.0767 18.536918 15.382161 19 16 19 C 16.617838 19 16.923297 18.536919 17 18 L 18 11 C 18.156205 9.9065622 17.104539 9 16 9 z M 16 9.5 C 16.415477 9.5 16.842598 9.6784772 17.128906 9.9511719 C 17.415215 10.223867 17.55901 10.557634 17.505859 10.929688 L 16.505859 17.929688 C 16.477799 18.126082 16.407099 18.282815 16.330078 18.369141 C 16.253053 18.455466 16.184 18.5 16 18.5 C 15.816 18.5 15.746947 18.45547 15.669922 18.369141 C 15.592892 18.282811 15.522196 18.126081 15.494141 17.929688 L 14.494141 10.929688 C 14.44099 10.557634 14.584785 10.223866 14.871094 9.9511719 C 15.157402 9.6784773 15.584523 9.5 16 9.5 z M 16 21 C 14.895441 21 13.999985 21.895455 14 23 C 13.999985 24.104547 14.895441 25 16 25 C 17.104559 25 18.000014 24.104547 18 23 C 18.000014 21.895455 17.104559 21 16 21 z M 16 21.5 C 16.83433 21.5 17.500011 22.165691 17.5 23 C 17.500011 23.834312 16.834331 24.5 16 24.5 C 15.165669 24.5 14.499989 23.834311 14.5 23 C 14.499989 22.165691 15.16567 21.5 16 21.5 z " fill="currentColor" opacity="0.6"/>
 <path class="ColorScheme-Background" d="m 16,2.9981234 c -0.71232,6.05e-4 -1.374268,0.3831302 -1.730464,0.9999969 L 2.1445733,25.000009 C 1.3994588,26.291099 2.3843622,27.998564 3.8750368,28 H 28.124963 c 1.490675,-0.0014 2.475577,-1.708901 1.730464,-2.999991 L 17.730463,3.9981203 C 17.374268,3.3812536 16.71232,2.9987284 16,2.9981234 Z m 0,0.9999969 a 1.0000969,1.0000969 0 0 1 0.865231,0.4999985 L 28.990194,25.500007 a 1.0000969,1.0000969 0 0 1 -0.865231,1.499996 H 3.8750368 A 1.0000969,1.0000969 0 0 1 3.0098051,25.500007 L 15.134768,4.4981188 A 1.0000969,1.0000969 0 0 1 16,3.9981203 Z" fill="currentColor" opacity="0.6" paint-order="stroke fill markers" stroke-linecap="round" stroke-linejoin="round"/>
</svg>