<?xml version="1.0" encoding="utf-8"?>
<svg height="48" version="1.1" viewBox="0 0 48 48" width="48" xmlns="http://www.w3.org/2000/svg" xmlns:svg="http://www.w3.org/2000/svg" xmlns:xlink="http://www.w3.org/1999/xlink">
 <namedview bordercolor="#666666" borderopacity="1.0" id="namedview-conformist" pagecolor="#ffffff" pageopacity="0.0" pageshadow="0" showgrid="true">
  <grid class="ColorScheme-Background" empspacing="4" fill="currentColor" opacity="0.6" type="xygrid"/>
 </namedview>
 <defs id="primary-definitions">
  <style class="ColorScheme-Background" fill="currentColor" opacity="0.6" type="text/css">
   .ColorScheme-Text           { color:#eff0f1; }
      .ColorScheme-Background     { color:#31363b; }
      .ColorScheme-Highlight      { color:#3daefd; }
      .ColorScheme-ViewBackground { color:#fcfcfc; }
      .ColorScheme-PositiveText   { color:#27ae60; }
      .ColorScheme-NeutralText    { color:#f67400; }
      .ColorScheme-NegativeText   { color:#da4453; }
  </style>
 </defs>
 <path class="ColorScheme-Background" d="M 24 4 C 12.920013 4 4 12.920013 4 24 C 4 35.079987 12.920013 44 24 44 C 35.079987 44 44 35.079987 44 24 C 44 12.920013 35.079987 4 24 4 z M 24.859375 5.0214844 C 30.16528 5.2556565 34.890076 7.645786 38.1875 11.341797 C 38.157395 11.417759 37.916016 12.032851 37.916016 12.484375 C 37.916016 12.964166 37.914741 13.445313 38.394531 13.445312 C 39.354112 13.445312 38.82367 14.6702 38.394531 14.884766 C 37.43495 15.364556 37.435547 15.844429 37.435547 16.324219 C 37.435547 16.80401 36.475883 17.043647 35.996094 17.523438 C 35.276408 18.243122 35.446913 18.133915 35.037109 18.722656 C 34.845951 18.997279 34.788888 19.217146 34.556641 19.681641 C 34.07685 20.641222 34.556641 20.160835 34.556641 20.640625 C 34.556641 21.120416 34.555963 22.081435 34.076172 23.041016 C 33.596382 24.000597 35.515625 24.959662 35.515625 25.439453 C 35.515625 25.919243 36.0037 26.388605 37.435547 27.359375 C 37.899212 27.673733 39.354873 27.359375 40.314453 27.359375 C 41.072037 27.359375 41.836005 26.770724 42.830078 26.519531 C 41.644044 35.538374 34.184816 42.525141 24.947266 42.974609 C 25.133442 42.735565 25.313298 42.488638 25.441406 42.232422 C 25.921196 41.272841 25.592556 40.975099 25.919922 40.3125 C 26.247288 39.6499 27.838568 39.832629 28.318359 38.873047 C 28.798149 37.913466 29.279297 37.433512 29.279297 35.994141 C 29.279297 34.55477 30.71875 34.555202 30.71875 32.15625 C 30.238959 31.676459 28.798149 30.716797 28.318359 30.716797 C 27.838568 30.716797 25.440729 30.237604 24.960938 29.757812 C 24.481147 29.278022 23.522081 26.878906 22.5625 26.878906 C 21.602919 26.878906 21.122369 26.878228 20.642578 26.398438 C 20.162789 25.918647 19.20364 24.96026 16.804688 24.480469 C 14.405734 24.00068 13.445313 24.479193 13.445312 24.958984 C 13.445312 25.438774 11.526666 25.439453 11.046875 25.439453 C 10.567085 25.439453 10.087891 24.96026 10.087891 24.480469 C 10.087891 24.00068 10.567681 23.040338 10.087891 22.560547 C 9.6081001 22.080756 8.6477592 23.040338 8.1679688 22.560547 C 7.6881784 22.080756 9.1269531 21.12169 9.1269531 20.162109 C 7.687582 20.162109 7.6887749 20.641303 7.2089844 21.121094 C 6.7291941 21.600883 6.2493215 21.601562 5.7695312 21.601562 C 5.5334903 21.601562 5.3462408 21.374451 5.2128906 21.144531 C 5.4432745 19.60388 5.8587433 18.125024 6.4335938 16.730469 C 6.6680589 16.527685 6.9577074 16.324219 7.2089844 16.324219 C 7.6887748 16.324219 8.20419 16.806246 8.6484375 16.802734 C 9.0926851 16.799334 9.1283097 16.324219 10.087891 16.324219 C 11.047471 16.324219 11.527344 16.803413 11.527344 17.283203 C 11.527344 17.762994 12.006537 17.763672 12.486328 17.763672 C 12.486328 17.283881 12.007216 16.322862 12.966797 15.363281 C 13.926378 14.403701 14.405653 14.883408 15.365234 13.923828 C 16.324815 12.964247 15.845107 12.965441 16.804688 12.005859 C 17.284477 11.52607 17.948159 11.816647 18.244141 11.525391 C 18.540124 11.234134 18.244222 10.565729 19.683594 10.085938 C 21.122965 9.6061469 20.162789 10.566406 20.642578 10.566406 C 21.122369 10.086615 23.520806 10.086534 23.041016 9.1269531 C 22.561225 9.1269531 22.561143 9.6054688 21.601562 9.6054688 C 20.641981 9.6054688 22.561821 8.1660156 22.082031 8.1660156 C 21.60224 8.1660156 21.12245 7.6875 22.082031 7.6875 C 22.457217 7.6875 22.409592 8.2703459 23.041016 8.1660156 C 23.333535 8.1176816 22.561903 7.6875 23.521484 7.6875 C 24.481064 7.6875 24.481147 7.2070312 24.960938 7.2070312 C 25.440728 7.2070312 24.001953 8.6464844 24.001953 8.6464844 C 24.001953 8.6464844 25.440132 9.1269531 25.919922 9.1269531 C 26.399713 9.1269531 26.399713 8.6458059 25.919922 8.1660156 C 25.440132 7.6862251 24.961615 8.1672905 25.441406 7.6875 C 25.921196 7.2077097 26.400987 6.2473686 25.441406 5.7675781 C 25.0397 5.5667075 24.896595 5.2843586 24.859375 5.0214844 z M 18.666016 5.7578125 C 18.364818 5.8806828 18.007732 6.0039873 17.763672 6.2480469 C 17.283881 6.7278372 17.284476 7.2070312 16.804688 7.2070312 C 16.475412 7.2070312 16.464749 6.7965543 16.488281 6.5332031 C 17.19246 6.2314444 17.920467 5.9740743 18.666016 5.7578125 z M 13.183594 8.4511719 C 13.835809 8.4061915 14.285624 8.7671103 13.925781 9.1269531 C 13.520049 9.5326861 13.098761 9.257748 12.111328 9.1621094 C 12.407221 8.9250644 12.711375 8.6977843 13.021484 8.4785156 C 13.075555 8.4696278 13.131774 8.4547457 13.183594 8.4511719 z M 14.087891 9.5449219 C 14.58396 9.5014529 15.785051 10.085937 15.365234 10.085938 C 14.885444 10.085938 14.40557 10.566406 13.925781 10.566406 C 13.44599 10.566406 13.643059 9.88819 13.925781 9.6054688 C 13.961141 9.5701078 14.01703 9.5511252 14.087891 9.5449219 z M 13.445312 9.6054688 C 13.683582 9.6054688 13.082327 9.9084223 12.726562 10.326172 C 12.365932 10.749635 12.007147 11.526677 11.765625 11.285156 C 11.52573 11.04526 12.006537 10.565728 12.486328 10.085938 C 12.966118 9.606147 12.965522 9.6054688 13.445312 9.6054688 z M 15.84375 10.205078 C 16.083645 10.205078 16.324219 10.326511 16.324219 10.566406 C 16.324219 11.046196 15.365234 11.046196 15.365234 10.566406 C 15.365234 10.326511 15.603854 10.205078 15.84375 10.205078 z M 13.445312 11.044922 L 14.884766 11.044922 C 14.884766 11.044922 14.40557 11.525391 13.925781 11.525391 C 13.44599 11.525391 12.965522 11.044922 13.445312 11.044922 z M 39.814453 13.443359 C 39.994785 13.713631 40.169353 13.98769 40.335938 14.267578 C 39.428718 14.00903 39.402836 13.837785 39.814453 13.443359 z M 5.3964844 22.511719 C 6.096726 22.574747 6.5346765 23.519531 7.2089844 23.519531 C 8.1685652 23.519531 9.1269531 24.479194 9.1269531 24.958984 C 9.1269531 25.438775 10.567085 26.398438 11.046875 26.398438 C 11.526666 26.398438 11.903032 25.455905 12.486328 26.878906 C 13.069624 28.301906 11.046875 29.278022 11.046875 29.757812 C 11.046875 30.237603 11.287109 30.237006 11.287109 30.716797 C 11.287109 31.196586 11.02896 31.18591 11.046875 31.675781 C 11.064775 32.165652 11.526069 32.155653 12.005859 33.115234 C 12.48565 34.074814 12.965522 35.51435 13.445312 35.994141 C 13.925104 36.473931 15.363959 36.474014 15.84375 37.433594 C 16.157891 38.061876 16.271998 40.050317 16.318359 41.390625 C 9.6408963 38.450703 5 31.788587 5 24 C 5 23.511574 5.0246973 23.029729 5.0605469 22.550781 C 5.1794181 22.514137 5.291163 22.502239 5.3964844 22.511719 z " fill="currentColor" opacity="0.6"/>
 <path class="ColorScheme-Background" d="M 24,4 C 12.920013,4 4,12.920013 4,24 4,35.079987 12.920013,44 24,44 35.079987,44 44,35.079987 44,24 44,12.920013 35.079987,4 24,4 Z m 0,0.5 c 0.09714,0 0.186412,0.027899 0.283203,0.029297 l 0.08203,0.5625 c 0.05519,0.389807 0.32666,0.8595957 0.853516,1.1230469 0.330624,0.1653123 0.302873,0.2295329 0.269531,0.4296874 -0.01131,0.067872 -0.09452,0.1509345 -0.134765,0.234375 -0.02187,-0.021528 -0.02211,-0.055762 -0.04687,-0.072266 -0.129569,-0.08636 -0.253213,-0.099609 -0.345703,-0.099609 -0.406798,0 -0.681086,0.2325842 -0.81836,0.3242188 -0.137273,0.091635 -0.224755,0.15625 -0.621094,0.15625 -0.277253,0 -0.46672,-0.00158 -0.699218,0.140625 -0.04837,0.029587 -0.0727,0.1037859 -0.117188,0.1542969 -0.02588,-0.028791 -0.02931,-0.040404 -0.06641,-0.074219 C 22.522721,7.3025194 22.305285,7.1875 22.082031,7.1875 c -0.281451,0 -0.486935,0.012907 -0.710937,0.1347656 -0.112001,0.060929 -0.243052,0.170786 -0.306641,0.34375 -0.06359,0.1729641 -0.02863,0.3649302 0.03125,0.484375 0.08246,0.1644864 0.195019,0.2072199 0.302735,0.2714844 -0.04747,0.055478 -0.07159,0.085162 -0.121094,0.1445312 -0.160512,0.1925166 -0.330163,0.3570817 -0.419922,0.6796876 -0.0422,0.1516611 -0.01176,0.4250347 0.15039,0.6152343 -0.02051,0.00592 -0.03827,0.023188 -0.05859,0.029297 C 20.931669,9.83819 20.94392,9.79929 20.90625,9.7441406 20.802725,9.5927493 20.616395,9.4953062 20.464844,9.4667969 c -0.303102,-0.057019 -0.547965,0.014035 -0.939453,0.1445312 -1.421326,0.4737759 -1.680805,1.4134389 -1.652344,1.5429689 -0.04277,0.0045 -0.141615,0.0265 -0.324219,0.04297 -0.289813,0.02617 -0.740564,0.09799 -1.097656,0.455078 -0.509174,0.509175 -0.692532,0.848294 -0.8125,1.08789 -0.119968,0.239597 -0.176548,0.379673 -0.626953,0.830078 -0.420901,0.4209 -0.644193,0.479642 -1.003907,0.59961 -0.359714,0.119968 -0.855852,0.301165 -1.394531,0.839844 -0.735919,0.735919 -0.766228,1.478944 -0.707031,2.044922 -0.06933,-0.30989 -0.167669,-0.626427 -0.439453,-0.830079 -0.34662,-0.259727 -0.815887,-0.40039 -1.378906,-0.40039 -0.5623121,0 -0.954166,0.170035 -1.1835941,0.318359 -0.2294282,0.148324 -0.215771,0.15982 -0.2597657,0.160156 -0.039772,3.15e-4 -0.2363436,-0.06659 -0.4824218,-0.1875 -0.2460783,-0.120912 -0.5457866,-0.291015 -0.953125,-0.291015 -0.5211858,0 -0.8381579,0.29953 -1.1015625,0.527343 l -0.089844,0.07813 C 7.1336453,13.765962 8.8629732,11.456739 10.972656,9.5546875 L 12.0625,9.6601562 c 0.05384,0.00521 0.08245,0.013218 0.132812,0.019531 -0.02252,0.022844 -0.0379,0.028136 -0.0625,0.052734 -0.239739,0.2397383 -0.491528,0.4836001 -0.683593,0.7519531 -0.09603,0.134177 -0.185001,0.273558 -0.228516,0.472656 -0.04351,0.199098 0.01349,0.503723 0.191406,0.681641 0.09947,0.09947 0.268475,0.1863 0.433594,0.191406 0.165119,0.0051 0.294051,-0.05302 0.384766,-0.109375 0.181429,-0.112721 0.27243,-0.236063 0.36914,-0.363281 0.07058,-0.09284 0.120251,-0.162958 0.185547,-0.257813 -0.0041,0.114722 -0.01187,0.237257 0.02149,0.308594 0.04812,0.102946 0.106565,0.171018 0.166015,0.230469 0.237802,0.237802 0.546328,0.386719 0.953125,0.386719 0.406797,0 0.715016,-0.175564 0.9375,-0.324219 0.222484,-0.148656 0.375,-0.302734 0.375,-0.302734 l 0.125,-0.126954 c 0.579851,0.278288 1.460938,0.07291 1.460938,-0.705078 0,-0.287085 -0.176684,-0.554076 -0.373047,-0.6855466 -0.196363,-0.1314711 -0.403109,-0.1757813 -0.607422,-0.1757813 -0.0078,0 -0.01565,0.00573 -0.02344,0.00586 -0.02583,-0.030397 -0.05399,-0.070268 -0.07617,-0.089844 C 15.591746,9.4865984 15.455565,9.4246833 15.277344,9.34375 15.031592,9.2321496 14.725588,9.1879833 14.427734,9.1386719 c 0.04176,-0.098713 0.127369,-0.1723476 0.125,-0.2851563 -0.0052,-0.2478229 -0.139328,-0.4618254 -0.291015,-0.59375 C 13.958344,7.9959164 13.57399,7.9237768 13.148438,7.953125 c -0.122098,0.00842 -0.1883,0.027849 -0.208985,0.03125 l -0.08008,0.013672 c 0.986463,-0.6862505 2.044992,-1.2688197 3.154297,-1.765625 l -0.02344,0.2558593 c -0.01441,0.1612813 -0.03113,0.3728542 0.04492,0.625 0.03803,0.126073 0.105909,0.2728045 0.242188,0.3964844 0.136279,0.1236799 0.341142,0.1972658 0.527344,0.1972656 0.203177,0 0.41665,-0.062979 0.572265,-0.171875 0.155615,-0.1088956 0.250091,-0.2383719 0.324219,-0.3496093 0.148255,-0.222475 0.235046,-0.4030148 0.416016,-0.5839844 0.131173,-0.1311718 0.417435,-0.2499742 0.738281,-0.3808594 L 18.556641,5.359375 C 20.294062,4.8556982 22.094785,4.5 24,4.5 Z m 0.859375,0.5214844 c 5.305905,0.2341721 10.030701,2.6243015 13.328125,6.3203126 -0.0301,0.07596 -0.271484,0.691054 -0.271484,1.142578 0,0.479791 -0.0013,0.960939 0.478515,0.960937 0.959581,0 0.429139,1.224888 0,1.439454 -0.959581,0.47979 -0.958984,0.959663 -0.958984,1.439453 0,0.479791 -0.959664,0.719428 -1.439453,1.199219 -0.719686,0.719684 -0.549181,0.610477 -0.958985,1.199218 -0.191158,0.274623 -0.248221,0.49449 -0.480468,0.958985 -0.479791,0.959581 0,0.479194 0,0.958984 0,0.479791 -6.78e-4,1.44081 -0.480469,2.400391 -0.47979,0.959581 1.439453,1.918646 1.439453,2.398437 0,0.47979 0.488075,0.949152 1.919922,1.919922 0.463665,0.314358 1.919326,0 2.878906,0 0.757584,0 1.521552,-0.588651 2.515625,-0.839844 -1.186034,9.018843 -8.645262,16.00561 -17.882812,16.455078 0.186176,-0.239044 0.366032,-0.485971 0.49414,-0.742187 0.47979,-0.959581 0.15115,-1.257323 0.478516,-1.919922 0.327366,-0.6626 1.918646,-0.479871 2.398437,-1.439453 0.47979,-0.959581 0.960938,-1.439535 0.960938,-2.878906 0,-1.439371 1.439453,-1.438939 1.439453,-3.837891 -0.479791,-0.479791 -1.920601,-1.439453 -2.400391,-1.439453 -0.479791,0 -2.877631,-0.479193 -3.357421,-0.958985 -0.479791,-0.47979 -1.438857,-2.878906 -2.398438,-2.878906 -0.959581,0 -1.440131,-6.79e-4 -1.919922,-0.480468 -0.479789,-0.479791 -1.438938,-1.438178 -3.83789,-1.917969 -2.398954,-0.479789 -3.359375,-0.0013 -3.359376,0.478515 0,0.47979 -1.918646,0.480469 -2.398437,0.480469 -0.47979,0 -0.958984,-0.479193 -0.958984,-0.958984 0,-0.479789 0.47979,-1.440131 0,-1.919922 -0.4797913,-0.479791 -1.4401319,0.479791 -1.9199222,0 -0.4797904,-0.479791 0.9589843,-1.438857 0.9589843,-2.398438 -1.4393711,0 -1.4381782,0.479194 -1.9179687,0.958985 -0.4797903,0.479789 -0.9596629,0.480469 -1.4394532,0.480468 -0.2360408,0 -0.4232904,-0.227111 -0.5566406,-0.457031 0.2303839,-1.540651 0.6458526,-3.019507 1.2207032,-4.414062 0.2344651,-0.202784 0.5241136,-0.40625 0.7753906,-0.40625 0.4797904,0 0.9952056,0.482027 1.4394531,0.478515 0.4442476,-0.0034 0.4798718,-0.478515 1.4394535,-0.478515 0.95958,0 1.439453,0.479194 1.439453,0.958984 0,0.479791 0.479193,0.480469 0.958984,0.480469 0,-0.479791 -0.479112,-1.44081 0.480469,-2.400391 0.959581,-0.95958 1.438856,-0.479873 2.398437,-1.439453 0.959581,-0.959581 0.479872,-0.958387 1.439454,-1.917969 0.479789,-0.479789 1.143471,-0.189212 1.439453,-0.480468 0.295983,-0.291257 8.1e-5,-0.959663 1.439453,-1.439453 1.439371,-0.4797916 0.479195,0.480468 0.958984,0.480468 0.479791,-0.479791 2.878228,-0.479872 2.398438,-1.4394529 -0.479791,0 -0.479873,0.4785157 -1.439454,0.4785157 -0.959581,0 0.960259,-1.4394532 0.480469,-1.4394532 -0.479791,0 -0.959581,-0.4785156 0,-0.4785156 0.375186,0 0.327561,0.5828459 0.958985,0.4785156 C 23.333535,8.1176816 22.561903,7.6875 23.521484,7.6875 c 0.95958,0 0.959662,-0.4804688 1.439454,-0.4804688 0.47979,0 -0.958985,1.4394532 -0.958985,1.4394532 0,0 1.438179,0.4804687 1.917969,0.4804687 0.479791,0 0.479791,-0.4811472 0,-0.9609375 -0.47979,-0.4797905 -0.958307,0.00127 -0.478516,-0.4785156 0.47979,-0.4797903 0.959581,-1.4401314 0,-1.9199219 C 25.0397,5.5667075 24.896595,5.2843586 24.859375,5.0214844 Z m -6.193359,0.7363281 c -0.301198,0.1228703 -0.658284,0.2461748 -0.902344,0.4902344 -0.479791,0.4797903 -0.479197,0.9589843 -0.958984,0.9589843 -0.329277,0 -0.339939,-0.4104769 -0.316407,-0.6738281 0.704179,-0.3017587 1.432186,-0.5591288 2.177735,-0.7753906 z M 25,8.296875 c 0.04404,0.024777 0.09166,0.099684 0.119141,0.1074219 0.158688,0.044691 0.17344,0.021563 0.203125,0.021484 0.118738,-3.157e-4 0.122096,-0.028294 0.24414,0.09375 0.02046,0.020461 0.0066,0.015318 0.02344,0.035156 -0.205974,-0.039378 -0.398653,-0.070208 -0.671875,-0.1484375 -0.0083,-0.00236 -0.0074,-0.00154 -0.01563,-0.00391 C 24.947777,8.3512766 24.954231,8.3505171 25,8.296875 Z M 13.183594,8.4511719 c 0.652215,-0.04498 1.10203,0.3159384 0.742187,0.6757812 -0.405732,0.405733 -0.82702,0.1307952 -1.814453,0.035156 0.295893,-0.237045 0.600047,-0.4643251 0.910156,-0.6835938 0.05407,-0.00889 0.11029,-0.02377 0.16211,-0.027344 z m 0.904297,1.09375 c 0.496069,-0.043469 1.69716,0.5410141 1.277343,0.5410161 -0.47979,0 -0.959664,0.480468 -1.439453,0.480468 -0.479791,0 -0.282722,-0.678216 0,-0.9609372 0.03536,-0.035361 0.09125,-0.054344 0.16211,-0.060547 z m 1.277343,0.041016 c -0.04376,0 -0.06028,0.027527 -0.101562,0.03125 0.0043,-0.00145 0.0139,-0.014514 0.01758,-0.015625 0.06293,-0.019001 0.08122,-0.015625 0.08398,-0.015625 z m -1.919922,0.019531 c 0.23827,0 -0.362985,0.3029535 -0.71875,0.7207032 -0.36063,0.423463 -0.719415,1.200505 -0.960937,0.958984 -0.239895,-0.239896 0.240912,-0.719429 0.720703,-1.199218 0.47979,-0.4797914 0.479195,-0.4804692 0.958984,-0.4804692 z m 2.398438,0.5996092 c 0.239895,0 0.480469,0.121433 0.480469,0.361328 0,0.47979 -0.958985,0.47979 -0.958985,0 0,-0.239895 0.23862,-0.361328 0.478516,-0.361328 z m -2.617188,0.339844 c 0.0041,0.01292 0.0029,0.02411 0.0078,0.03711 -0.02117,0.0047 -0.0402,0.0046 -0.0625,0.01172 0.01584,-0.0165 0.03739,-0.03215 0.05469,-0.04883 z m 0.21875,0.5 h 1.439454 c 0,0 -0.479196,0.480469 -0.958985,0.480469 -0.479791,0 -0.960259,-0.480469 -0.480469,-0.480469 z m 25.28711,0.27539 c 0.388845,0.45191 0.79021,0.892046 1.136719,1.378907 l -0.400391,0.382812 c -0.08297,0.0795 -0.151348,0.173166 -0.220703,0.267578 -0.175264,-0.241974 -0.485998,-0.363288 -0.800781,-0.378906 -0.0171,-0.06239 -0.03125,-0.25439 -0.03125,-0.486328 0,-0.273324 0.209517,-0.891324 0.236328,-0.958984 z m 1.082031,2.123047 c 0.180332,0.270272 0.3549,0.544331 0.521485,0.824219 -0.907221,-0.258548 -0.933102,-0.429793 -0.521485,-0.824219 z m -0.466797,0.878907 c 0.0848,0.07024 0.159543,0.171039 0.251953,0.214843 0.167793,0.07954 0.359416,0.142485 0.59961,0.210938 l 1.046875,0.298828 C 42.639165,17.735726 43.5,20.748494 43.5,24 c 0,0.644894 -0.127068,1.252467 -0.1875,1.880859 l -0.605469,0.154297 c -1.114964,0.281741 -1.893998,0.824219 -2.392578,0.824219 -0.534389,0 -1.14153,0.08139 -1.662109,0.119141 -0.26029,0.01888 -0.49676,0.02558 -0.671875,0.01367 -0.175115,-0.01191 -0.280374,-0.05821 -0.263672,-0.04688 -0.706784,-0.479188 -1.170818,-0.831002 -1.425781,-1.083984 -0.254963,-0.252981 -0.275391,-0.351525 -0.275391,-0.421875 0,-0.226647 -0.09089,-0.370026 -0.171875,-0.486328 -0.08099,-0.116302 -0.171109,-0.212156 -0.267578,-0.308594 -0.192938,-0.192875 -0.414345,-0.385116 -0.607422,-0.578125 -0.193077,-0.193008 -0.351064,-0.388983 -0.419922,-0.53125 -0.06886,-0.142267 -0.07081,-0.180649 -0.02539,-0.271484 0.539425,-1.078847 0.533203,-2.142785 0.533203,-2.623047 0,-0.162869 -0.08301,-0.322562 -0.171875,-0.457031 0.02032,-0.05634 0.03589,-0.112793 0.11914,-0.279297 0.245821,-0.491643 0.297035,-0.686271 0.44336,-0.896485 0.430391,-0.618317 0.192696,-0.421213 0.902343,-1.130859 0.151464,-0.151464 0.477629,-0.328457 0.802735,-0.523437 0.162553,-0.09749 0.326637,-0.201687 0.478515,-0.353516 0.151879,-0.151829 0.304688,-0.389153 0.304688,-0.675781 0,-0.240102 0.0062,-0.37552 0.06641,-0.496094 0.06021,-0.120574 0.19512,-0.286037 0.615235,-0.496094 0.240631,-0.120313 0.383987,-0.293484 0.511718,-0.488281 0.100624,-0.153456 0.163849,-0.336235 0.21875,-0.521484 z M 8.28125,20.828125 C 8.1887489,20.983211 8.1789291,21.084233 8.0605469,21.25 c -0.1524801,0.213513 -0.3069056,0.421539 -0.4101563,0.685547 -0.051625,0.132004 -0.092239,0.287905 -0.076172,0.46875 0.016067,0.180844 0.1066379,0.376169 0.2402343,0.509765 0.2378451,0.237847 0.5819525,0.302199 0.8339844,0.279297 0.2520319,-0.0229 0.4567025,-0.09823 0.6367187,-0.158203 0.1800163,-0.05997 0.3341431,-0.104243 0.4121094,-0.111328 0.077966,-0.0071 0.035059,-0.01178 0.037109,-0.0098 0.063025,0.06303 0.092112,0.216698 0.041016,0.523438 -0.051096,0.30674 -0.1875,0.636408 -0.1875,1.042969 0,0.288224 0.1693181,0.500329 0.3164063,0.71875 -0.055282,-0.04999 -0.134129,-0.104579 -0.1738281,-0.148438 -0.1068094,-0.117999 -0.1035157,-0.221981 -0.1035157,-0.0918 0,-0.286406 -0.1107264,-0.498867 -0.2480469,-0.705078 -0.1373206,-0.20621 -0.3178848,-0.400161 -0.53125,-0.578125 -0.4267302,-0.355928 -0.9922011,-0.65625 -1.6386718,-0.65625 -0.1036349,0 -0.2896402,-0.115592 -0.5683594,-0.357422 -0.2104608,-0.182605 -0.4674071,-0.430327 -0.8222656,-0.5625 0.4791819,-0.0022 1.1649554,-0.04582 1.7441406,-0.625 0.2988937,-0.298894 0.4121032,-0.513625 0.5449219,-0.613281 0.022627,-0.01698 0.1442927,-0.01671 0.1738281,-0.0332 z m -3.5175781,0.537109 0.017578,0.0293 c 0.081786,0.141015 0.1810864,0.294773 0.3320312,0.433594 0.07398,0.06804 0.1677965,0.134883 0.2753907,0.185547 -0.1574567,-0.0076 -0.3179738,0.01036 -0.4746094,0.05859 l -0.2285156,0.07031 c 0.024674,-0.259822 0.043457,-0.520671 0.078125,-0.777344 z m 0.6328125,1.146485 c 0.7002416,0.06303 1.1381921,1.007812 1.8125,1.007812 0.9595808,0 1.9179687,0.959663 1.9179687,1.439453 0,0.479791 1.4401319,1.439453 1.9199219,1.439454 0.479791,0 0.856157,-0.942533 1.439453,0.480468 0.583296,1.423 -1.439453,2.399116 -1.439453,2.878906 0,0.479791 0.240234,0.479194 0.240234,0.958985 0,0.479789 -0.258149,0.469113 -0.240234,0.958984 0.0179,0.489871 0.479194,0.479872 0.958984,1.439453 0.479791,0.95958 0.959664,2.399116 1.439453,2.878907 0.479792,0.47979 1.918647,0.479873 2.398438,1.439453 0.314141,0.628282 0.428248,2.616723 0.474609,3.957031 C 9.6408967,38.450703 5,31.788587 5,24 c 0,-0.488426 0.024697,-0.970271 0.060547,-1.449219 0.1188712,-0.03664 0.2306161,-0.04854 0.3359375,-0.03906 z M 15.25,24.787109 c 0.394706,0.01386 0.879257,0.06804 1.457031,0.183594 2.298523,0.459705 3.102431,1.301648 3.582031,1.78125 0.298831,0.29883 0.659708,0.481387 1.035157,0.556641 0.375448,0.07525 0.758373,0.07031 1.238281,0.07031 0.03155,0 0.172647,0.04955 0.359375,0.236328 0.186728,0.186779 0.397284,0.47603 0.597656,0.791016 0.200372,0.314986 0.392346,0.654567 0.56836,0.953125 0.176014,0.298558 0.311153,0.543576 0.519531,0.751953 0.237767,0.237767 0.51075,0.344137 0.83789,0.466797 0.327142,0.12266 0.699875,0.231162 1.072266,0.324219 0.372391,0.09306 0.74218,0.16996 1.054688,0.224609 0.312507,0.05465 0.542916,0.08984 0.746093,0.08984 -0.04673,0 0.116682,0.02681 0.298829,0.111328 0.182148,0.08452 0.409345,0.211504 0.636718,0.353516 0.369129,0.230548 0.674468,0.476617 0.902344,0.671875 -0.04893,0.875839 -0.254312,1.378259 -0.556641,1.78125 -0.335851,0.447675 -0.820312,0.973014 -0.820312,1.859375 0,1.327944 -0.398441,1.636724 -0.908203,2.65625 -0.135336,0.270671 -0.47832,0.424767 -0.958985,0.576171 -0.240332,0.0757 -0.498579,0.145974 -0.751953,0.259766 -0.253374,0.113792 -0.532314,0.287415 -0.689453,0.605469 -0.206289,0.417535 -0.215023,0.777707 -0.232422,1.035156 -0.0174,0.25745 -0.03392,0.462368 -0.24414,0.882813 -0.10186,0.203719 -0.261876,0.427691 -0.441407,0.658203 l -0.642578,0.822265 c -2.50301,-0.01147 -4.875261,-0.517737 -7.066406,-1.378906 l -0.02539,-0.738281 c -0.02338,-0.67578 -0.06323,-1.51547 -0.138671,-2.277344 -0.07544,-0.761873 -0.148073,-1.403567 -0.388672,-1.884765 -0.329304,-0.658606 -0.956835,-0.951757 -1.470704,-1.144532 -0.51387,-0.192775 -0.958291,-0.362588 -1.021484,-0.425781 -0.122034,-0.122034 -0.382854,-0.58213 -0.617187,-1.109375 -0.234334,-0.527245 -0.473713,-1.129068 -0.728516,-1.638672 -0.26887,-0.537741 -0.568162,-0.846308 -0.746094,-1.02539 -0.08897,-0.08954 -0.137706,-0.144309 -0.15039,-0.164063 -0.01269,-0.01975 -0.0082,-8.33e-4 -0.0098,-0.04492 -0.0058,-0.157415 -0.0027,-0.119543 0.05664,-0.232422 0.05932,-0.112878 0.183593,-0.379415 0.183593,-0.708984 0,-0.323346 -0.113769,-0.583327 -0.173828,-0.703125 -0.04542,-0.0906 -0.04612,-0.126111 -0.05078,-0.19336 0.03009,-0.03814 0.07529,-0.09064 0.146484,-0.162109 0.164903,-0.16554 0.409178,-0.385937 0.648438,-0.652344 0.23926,-0.266406 0.479793,-0.581832 0.621094,-0.974609 0.1413,-0.392777 0.162603,-0.873647 -0.0293,-1.341797 -0.151302,-0.369113 -0.30103,-0.614744 -0.503907,-0.810547 0.01427,-0.0015 0.02092,-3.2e-4 0.03516,-0.002 0.290027,-0.03232 0.569509,-0.07741 0.826172,-0.169922 0.128331,-0.04625 0.254846,-0.102538 0.380859,-0.210937 0.117035,-0.100677 0.235158,-0.28335 0.251953,-0.490235 0.0016,-2.04e-4 -0.0011,0.0046 0.01172,-0.0059 0.04255,-0.03498 0.166364,-0.104392 0.382812,-0.152344 0.216449,-0.04795 0.52131,-0.07441 0.916016,-0.06055 z" fill="currentColor" opacity="0.6"/>
</svg>