<?xml version="1.0" encoding="utf-8"?>
<svg height="32" version="1.1" viewBox="0 0 32 32" width="32" xmlns="http://www.w3.org/2000/svg" xmlns:svg="http://www.w3.org/2000/svg" xmlns:xlink="http://www.w3.org/1999/xlink">
 <namedview bordercolor="#666666" borderopacity="1.0" id="namedview-conformist" pagecolor="#ffffff" pageopacity="0.0" pageshadow="0" showgrid="true">
  <grid class="ColorScheme-Background" empspacing="4" fill="currentColor" opacity="0.6" type="xygrid"/>
 </namedview>
 <defs id="primary-definitions">
  <style class="ColorScheme-Background" fill="currentColor" opacity="0.6" type="text/css">
   .ColorScheme-Text           { color:#eff0f1; }
      .ColorScheme-Background     { color:#31363b; }
      .ColorScheme-Highlight      { color:#3daefd; }
      .ColorScheme-ViewBackground { color:#fcfcfc; }
      .ColorScheme-PositiveText   { color:#27ae60; }
      .ColorScheme-NeutralText    { color:#f67400; }
      .ColorScheme-NegativeText   { color:#da4453; }
  </style>
 </defs>
 <path class="ColorScheme-Background" d="M 16 3 A 13 13 0 0 0 3 16 A 13 13 0 0 0 16 29 A 13 13 0 0 0 29 16 A 13 13 0 0 0 16 3 z M 16.996094 4.0449219 A 12 12 0 0 1 27.955078 15.003906 C 27.422637 15.027831 27 15.461449 27 16 C 27 16.529097 27.408562 16.954546 27.927734 16.992188 A 12 12 0 0 1 16.992188 27.927734 C 16.954546 27.408562 16.529097 27 16 27 C 15.470903 27 15.045454 27.408562 15.007812 27.927734 A 12 12 0 0 1 4.0722656 16.992188 C 4.5914379 16.954546 5 16.529097 5 16 C 5 15.470903 4.5914379 15.045454 4.0722656 15.007812 A 12 12 0 0 1 15.007812 4.0722656 C 15.045454 4.5914379 15.470903 5 16 5 C 16.538551 5 16.972169 4.5773626 16.996094 4.0449219 z M 19.630859 6.7226562 C 19.43598 6.7238752 19.253328 6.839314 19.173828 7.03125 L 16.078125 14.501953 A 1.5 1.5 0 0 0 16 14.5 A 1.5 1.5 0 0 0 14.5 16 A 1.5 1.5 0 0 0 16 17.5 A 1.5 1.5 0 0 0 16.193359 17.486328 L 19.818359 22.208984 C 20.0713 22.538623 20.539502 22.600597 20.869141 22.347656 C 21.198779 22.094716 21.260753 21.62456 21.007812 21.294922 L 17.384766 16.572266 A 1.5 1.5 0 0 0 17.5 16 A 1.5 1.5 0 0 0 17.003906 14.884766 L 20.097656 7.4140625 C 20.20366 7.1581479 20.082087 6.8677221 19.826172 6.7617188 C 19.762193 6.7352178 19.695819 6.72225 19.630859 6.7226562 z " fill="currentColor" opacity="0.6"/>
 <path class="ColorScheme-Background" d="M 16 3 A 13 13 0 0 0 3 16 A 13 13 0 0 0 16 29 A 13 13 0 0 0 29 16 A 13 13 0 0 0 16 3 z M 16 3.5 C 16.177307 3.5 16.34208 3.5454444 16.517578 3.5527344 L 16.496094 4.0234375 C 16.483793 4.2970862 16.276962 4.5 16 4.5 C 15.728299 4.5 15.52522 4.3021796 15.505859 4.0351562 L 15.472656 3.5527344 C 15.651393 3.5451703 15.819381 3.5 16 3.5 z M 17.382812 3.6386719 C 18.302041 3.7409419 19.184248 3.9385227 20.029297 4.2226562 C 19.183709 3.9392701 18.298171 3.7421459 17.382812 3.6386719 z M 14.263672 3.6855469 C 13.612264 3.7776733 12.976305 3.9188025 12.361328 4.1054688 C 12.975937 3.9179758 13.609849 3.7766287 14.263672 3.6855469 z M 16.996094 4.0449219 A 12 12 0 0 1 27.955078 15.003906 C 27.422637 15.027831 27 15.461449 27 16 C 27 16.529097 27.408562 16.954546 27.927734 16.992188 A 12 12 0 0 1 16.992188 27.927734 C 16.954546 27.408562 16.529097 27 16 27 C 15.470903 27 15.045454 27.408562 15.007812 27.927734 A 12 12 0 0 1 4.0722656 16.992188 C 4.5914379 16.954546 5 16.529097 5 16 C 5 15.470903 4.5914379 15.045454 4.0722656 15.007812 A 12 12 0 0 1 15.007812 4.0722656 C 15.045454 4.5914379 15.470903 5 16 5 C 16.538551 5 16.972169 4.5773626 16.996094 4.0449219 z M 19.630859 6.7226562 C 19.43598 6.7238752 19.253328 6.839314 19.173828 7.03125 L 16.078125 14.501953 A 1.5 1.5 0 0 0 16 14.5 A 1.5 1.5 0 0 0 14.5 16 A 1.5 1.5 0 0 0 16 17.5 A 1.5 1.5 0 0 0 16.193359 17.486328 L 19.818359 22.208984 C 20.0713 22.538623 20.539502 22.600597 20.869141 22.347656 C 21.198779 22.094716 21.260754 21.62456 21.007812 21.294922 L 17.384766 16.572266 A 1.5 1.5 0 0 0 17.5 16 A 1.5 1.5 0 0 0 17.003906 14.884766 L 20.097656 7.4140625 C 20.20366 7.1581479 20.082087 6.8677221 19.826172 6.7617188 C 19.762193 6.7352178 19.695819 6.72225 19.630859 6.7226562 z M 24.404297 6.8632812 C 24.663605 7.1016433 24.898357 7.3363947 25.136719 7.5957031 C 24.899267 7.3374772 24.662523 7.1007331 24.404297 6.8632812 z M 18.019531 11.121094 L 16.40625 15.019531 L 16.669922 15.255859 C 16.88077 15.445781 17.000134 15.716228 17 16 C 16.999374 16.130324 16.973928 16.260535 16.923828 16.380859 L 16.8125 16.646484 L 20.611328 21.599609 C 20.700478 21.71579 20.680693 21.861971 20.564453 21.951172 C 20.447514 22.040902 20.304803 22.021527 20.214844 21.904297 L 16.414062 16.951172 L 16.125 16.990234 C 16.08356 16.995834 16.04182 16.9996 16 17 C 15.441793 17 15 16.558207 15 16 C 15 15.441793 15.441793 15 16 15 C 16.01737 14.999982 16.035394 15.001053 16.052734 15.001953 L 16.404297 15.019531 L 18.019531 11.121094 z M 27.777344 11.970703 C 28.061477 12.815752 28.259058 13.697959 28.361328 14.617188 C 28.257854 13.701829 28.06073 12.816291 27.777344 11.970703 z M 4.1054688 12.361328 C 3.9188025 12.976305 3.7776733 13.612264 3.6855469 14.263672 C 3.7766287 13.609849 3.9179758 12.975937 4.1054688 12.361328 z M 3.5527344 15.472656 L 4.0351562 15.505859 C 4.3021796 15.525224 4.5 15.728299 4.5 16 C 4.5 16.271701 4.3021796 16.47478 4.0351562 16.494141 L 3.5527344 16.527344 C 3.5451703 16.348607 3.5 16.180619 3.5 16 C 3.5 15.819381 3.5451704 15.651396 3.5527344 15.472656 z M 28.447266 15.482422 C 28.454556 15.657887 28.5 15.822693 28.5 16 C 28.5 16.180619 28.454826 16.348604 28.447266 16.527344 L 27.964844 16.494141 C 27.697817 16.474777 27.5 16.271701 27.5 16 C 27.5 15.723038 27.702914 15.516203 27.976562 15.503906 L 28.447266 15.482422 z M 3.6855469 17.736328 C 3.7776733 18.387736 3.9188025 19.023695 4.1054688 19.638672 C 3.9179758 19.024063 3.7766287 18.390151 3.6855469 17.736328 z M 28.314453 17.736328 C 28.223371 18.390151 28.082024 19.024063 27.894531 19.638672 C 28.081197 19.023695 28.222327 18.387736 28.314453 17.736328 z M 16 27.5 C 16.271701 27.5 16.47478 27.697821 16.494141 27.964844 L 16.527344 28.447266 C 16.348607 28.45483 16.180619 28.5 16 28.5 C 15.819381 28.5 15.651396 28.454826 15.472656 28.447266 L 15.505859 27.964844 C 15.525223 27.697817 15.728299 27.5 16 27.5 z M 12.361328 27.894531 C 12.976305 28.081197 13.612264 28.222327 14.263672 28.314453 C 13.609849 28.223371 12.975937 28.082024 12.361328 27.894531 z M 19.638672 27.894531 C 19.024063 28.082024 18.390151 28.223371 17.736328 28.314453 C 18.387736 28.222327 19.023695 28.081197 19.638672 27.894531 z " fill="currentColor" opacity="0.6"/>
</svg>