<?xml version="1.0" encoding="utf-8"?>
<svg height="16" version="1.1" viewBox="0 0 16 16" width="16" xmlns="http://www.w3.org/2000/svg" xmlns:svg="http://www.w3.org/2000/svg" xmlns:xlink="http://www.w3.org/1999/xlink">
 <namedview bordercolor="#666666" borderopacity="1.0" id="namedview-conformist" pagecolor="#ffffff" pageopacity="0.0" pageshadow="0" showgrid="true">
  <grid class="ColorScheme-Background" empspacing="4" fill="currentColor" opacity="0.6" type="xygrid"/>
 </namedview>
 <defs id="primary-definitions">
  <style class="ColorScheme-Background" fill="currentColor" opacity="0.6" type="text/css">
   .ColorScheme-Text           { color:#eff0f1; }
      .ColorScheme-Background     { color:#31363b; }
      .ColorScheme-Highlight      { color:#3daefd; }
      .ColorScheme-ViewBackground { color:#fcfcfc; }
      .ColorScheme-PositiveText   { color:#27ae60; }
      .ColorScheme-NeutralText    { color:#f67400; }
      .ColorScheme-NegativeText   { color:#da4453; }
  </style>
 </defs>
 <path class="ColorScheme-Background" d="M 8.1210938,2 A 1.0001,1.0001 0 0 0 7.1992188,2.609375 L 5.953125,5.5449219 2.7753906,5.8242188 a 1.0001,1.0001 0 0 0 -0.5683594,1.75 l 2.40625,2.09375 -0.7167968,3.1074222 a 1.0001,1.0001 0 0 0 1.4902344,1.082031 l 2.734375,-1.642578 2.7343752,1.642578 a 1.0001,1.0001 0 0 0 1.488281,-1.082031 l -0.716797,-3.1074222 2.40625,-2.09375 a 1.0001,1.0001 0 0 0 -0.568359,-1.75 L 10.287109,5.5449219 9.0410156,2.609375 A 1.0001,1.0001 0 0 0 8.1210938,2 Z" fill="currentColor" opacity="0.6" paint-order="stroke fill markers" stroke-linecap="round" stroke-linejoin="round"/>
 <path class="ColorScheme-Background" d="M 8.1210938 2 A 1.0001 1.0001 0 0 0 7.1992188 2.609375 L 5.953125 5.5449219 L 2.7753906 5.8242188 A 1.0001 1.0001 0 0 0 2.2070312 7.5742188 L 4.6132812 9.6679688 L 3.8964844 12.775391 A 1.0001 1.0001 0 0 0 5.3867188 13.857422 L 8.1210938 12.214844 L 10.855469 13.857422 A 1.0001 1.0001 0 0 0 12.34375 12.775391 L 11.626953 9.6679688 L 14.033203 7.5742188 A 1.0001 1.0001 0 0 0 13.464844 5.8242188 L 10.287109 5.5449219 L 9.0410156 2.609375 A 1.0001 1.0001 0 0 0 8.1210938 2 z M 8.1210938 2.5 C 8.3230405 2.5001402 8.5011803 2.6187905 8.5800781 2.8046875 L 9.8261719 5.7402344 A 0.50005 0.50005 0 0 0 10.244141 6.0429688 L 13.421875 6.3222656 C 13.660312 6.3442306 13.792166 6.4831312 13.851562 6.6660156 C 13.911122 6.8494078 13.886473 7.0391299 13.705078 7.1972656 L 11.298828 9.2910156 A 0.50005 0.50005 0 0 0 11.140625 9.78125 L 11.857422 12.888672 L 11.855469 12.886719 C 11.909339 13.121285 11.820039 13.2909 11.664062 13.404297 C 11.50809 13.517694 11.317846 13.551318 11.111328 13.427734 L 8.3789062 11.787109 A 0.50005 0.50005 0 0 0 7.8632812 11.787109 L 5.1289062 13.429688 C 4.9221553 13.554157 4.7325065 13.519762 4.5761719 13.40625 C 4.4198372 13.292738 4.3284664 13.1238 4.3828125 12.888672 L 5.0996094 9.78125 A 0.50005 0.50005 0 0 0 4.9414062 9.2910156 L 2.5351562 7.1972656 C 2.3537623 7.0391299 2.3291103 6.8494078 2.3886719 6.6660156 C 2.4480685 6.4831312 2.5799226 6.3442306 2.8183594 6.3222656 L 5.9960938 6.0429688 A 0.50005 0.50005 0 0 0 6.4140625 5.7402344 L 7.6601562 2.8046875 C 7.7391971 2.618453 7.9187804 2.4997454 8.1210938 2.5 z " fill="currentColor" opacity="0.6" paint-order="stroke fill markers" stroke-linecap="round" stroke-linejoin="round"/>
</svg>