<?xml version="1.0" encoding="utf-8"?>
<svg height="128" version="1.1" viewBox="0 0 128 128" width="128" xmlns="http://www.w3.org/2000/svg" xmlns:svg="http://www.w3.org/2000/svg" xmlns:xlink="http://www.w3.org/1999/xlink">
 <namedview bordercolor="#666666" borderopacity="1.0" id="namedview-conformist" pagecolor="#ffffff" pageopacity="0.0" pageshadow="0" showgrid="true">
  <grid class="ColorScheme-Background" empspacing="4" fill="currentColor" opacity="0.6" type="xygrid"/>
 </namedview>
 <defs id="primary-definitions">
  <style class="ColorScheme-Background" fill="currentColor" opacity="0.6" type="text/css">
   .ColorScheme-Text           { color:#eff0f1; }
      .ColorScheme-Background     { color:#31363b; }
      .ColorScheme-Highlight      { color:#3daefd; }
      .ColorScheme-ViewBackground { color:#fcfcfc; }
      .ColorScheme-PositiveText   { color:#27ae60; }
      .ColorScheme-NeutralText    { color:#f67400; }
      .ColorScheme-NegativeText   { color:#da4453; }
  </style>
 </defs>
 <path class="ColorScheme-Background" d="m 49,16 c -1.108,0 -2,0.892 -2,2 V 80 H 32 c -8.836556,0 -16,7.163444 -16,16 0,8.83656 7.163444,16 16,16 8.836556,0 16,-7.16344 16,-16 V 37 h 63 V 64 H 96 c -8.836556,0 -16,7.163444 -16,16 0,8.836556 7.163444,16 16,16 8.83656,0 16,-7.163444 16,-16 V 18 c 0,-1.108 -0.892,-2 -2,-2 z m -1,16 h 63 v 4 H 48 Z" fill="currentColor" opacity="0.6" paint-order="stroke fill markers" stop-color="#000000" stroke-linecap="round" stroke-linejoin="round"/>
 <path class="ColorScheme-Background" d="m 49,16 c -1.108,0 -2,0.892 -2,2 V 80 H 32 c -8.836556,0 -16,7.163444 -16,16 0,8.83656 7.163444,16 16,16 8.836556,0 16,-7.16344 16,-16 V 37 h 63 V 64 H 96 c -8.836556,0 -16,7.163444 -16,16 0,8.836556 7.163444,16 16,16 8.83656,0 16,-7.163444 16,-16 V 18 c 0,-1.108 -0.892,-2 -2,-2 z m 0,0.5 h 61 c 0.83965,0 1.5,0.660352 1.5,1.5 v 14 c -3e-5,-0.276131 -0.22387,-0.499972 -0.5,-0.5 H 48 c -0.276131,2.8e-5 -0.499972,0.223869 -0.5,0.5 V 18 c 0,-0.839648 0.660352,-1.5 1.5,-1.5 z M 48,32 h 63 v 4 H 48 Z m 63.5,32 v 16 c 0,8.566328 -6.93367,15.5 -15.5,15.5 -8.566327,0 -15.5,-6.933673 -15.5,-15.5 0,-8.566327 6.933673,-15.5 15.5,-15.5 h 15 c 0.27613,-2.8e-5 0.49997,-0.223869 0.5,-0.5 z m -64,16 v 16 c 0,8.56633 -6.933672,15.5 -15.5,15.5 -8.566328,0 -15.5,-6.93367 -15.5,-15.5 0,-8.566327 6.933673,-15.5 15.5,-15.5 h 15 c 0.276131,-2.8e-5 0.499972,-0.223869 0.5,-0.5 z" fill="currentColor" opacity="0.6" paint-order="stroke fill markers" stroke-linecap="round" stroke-linejoin="round"/>
</svg>