<?xml version="1.0" encoding="utf-8"?>
<svg height="32" version="1.1" width="32" xmlns="http://www.w3.org/2000/svg" xmlns:svg="http://www.w3.org/2000/svg" xmlns:xlink="http://www.w3.org/1999/xlink">
 <namedview bordercolor="#666666" borderopacity="1.0" id="namedview-conformist" pagecolor="#ffffff" pageopacity="0.0" pageshadow="0" showgrid="true">
  <grid class="ColorScheme-Background" empspacing="4" fill="currentColor" opacity="0.6" type="xygrid"/>
 </namedview>
 <defs id="primary-definitions">
  <style class="ColorScheme-Background" fill="currentColor" opacity="0.6" type="text/css">
   .ColorScheme-Text           { color:#eff0f1; }
      .ColorScheme-Background     { color:#31363b; }
      .ColorScheme-Highlight      { color:#3daefd; }
      .ColorScheme-ViewBackground { color:#fcfcfc; }
      .ColorScheme-PositiveText   { color:#27ae60; }
      .ColorScheme-NeutralText    { color:#f67400; }
      .ColorScheme-NegativeText   { color:#da4453; }
  </style>
 </defs>
 <path class="ColorScheme-Background" d="m 16,3 a 6,6 0 0 0 -6,6 6,6 0 0 0 6,6 6,6 0 0 0 6,-6 6,6 0 0 0 -6,-6 z m 0,14 c -5.54,0 -10,4.46 -10,10 0,1.108 0.892,2 2,2 h 16 c 1.108,0 2,-0.892 2,-2 0,-5.54 -4.46,-10 -10,-10 z" fill="currentColor" opacity="0.6" paint-order="stroke markers fill" stop-color="#000000" stroke-linecap="round" stroke-linejoin="round"/>
 <path class="ColorScheme-Background" d="M 16 3 A 6 6 0 0 0 10 9 A 6 6 0 0 0 16 15 A 6 6 0 0 0 22 9 A 6 6 0 0 0 16 3 z M 16 3.5 C 19.043485 3.5 21.5 5.9565146 21.5 9 C 21.5 12.043485 19.043485 14.5 16 14.5 C 12.956515 14.5 10.5 12.043485 10.5 9 C 10.5 5.9565146 12.956515 3.5 16 3.5 z M 16 17 C 10.46 17 6 21.46 6 27 C 6 28.108 6.892 29 8 29 L 24 29 C 25.108 29 26 28.108 26 27 C 26 21.46 21.54 17 16 17 z M 16 17.5 C 21.271643 17.5 25.5 21.728357 25.5 27 C 25.5 27.839648 24.839648 28.5 24 28.5 L 8 28.5 C 7.1603522 28.5 6.5 27.839648 6.5 27 C 6.5 21.728357 10.728357 17.5 16 17.5 z " fill="currentColor" opacity="0.6" paint-order="stroke markers fill" stroke-linecap="round" stroke-linejoin="round"/>
</svg>