<?xml version="1.0" encoding="utf-8"?>
<svg height="128" version="1.1" viewBox="0 0 128 128" width="128" xmlns="http://www.w3.org/2000/svg" xmlns:svg="http://www.w3.org/2000/svg" xmlns:xlink="http://www.w3.org/1999/xlink">
 <namedview bordercolor="#666666" borderopacity="1.0" id="namedview-conformist" pagecolor="#ffffff" pageopacity="0.0" pageshadow="0" showgrid="true">
  <grid class="ColorScheme-Background" empspacing="4" fill="currentColor" opacity="0.6" type="xygrid"/>
 </namedview>
 <defs id="primary-definitions">
  <style class="ColorScheme-Background" fill="currentColor" opacity="0.6" type="text/css">
   .ColorScheme-Text           { color:#eff0f1; }
      .ColorScheme-Background     { color:#31363b; }
      .ColorScheme-Highlight      { color:#3daefd; }
      .ColorScheme-ViewBackground { color:#fcfcfc; }
      .ColorScheme-PositiveText   { color:#27ae60; }
      .ColorScheme-NeutralText    { color:#f67400; }
      .ColorScheme-NegativeText   { color:#da4453; }
  </style>
 </defs>
 <path class="ColorScheme-Background" d="M 64 13 A 51 51 0 0 0 13 64 A 51 51 0 0 0 64 115 A 51 51 0 0 0 115 64 A 51 51 0 0 0 64 13 z M 65.986328 14.048828 A 50 50 0 0 1 113.95117 62.013672 A 2 2 0 0 0 112 64 A 2 2 0 0 0 113.85938 65.962891 A 50 50 0 0 1 65.984375 113.85742 A 2 2 0 0 0 64 112 A 2 2 0 0 0 62.037109 113.85938 A 50 50 0 0 1 14.140625 65.962891 A 2 2 0 0 0 16 64 A 2 2 0 0 0 14.142578 62.015625 A 50 50 0 0 1 62.037109 14.140625 A 2 2 0 0 0 64 16 A 2 2 0 0 0 65.986328 14.048828 z M 78.917969 26.96875 C 78.528218 26.971188 78.159002 27.202071 78 27.585938 L 64.558594 60.039062 A 4 4 0 0 0 64 60 A 4 4 0 0 0 60 64 A 4 4 0 0 0 64 68 A 4 4 0 0 0 64.953125 67.875 L 80.871094 88.621094 C 81.545598 89.500124 82.796751 89.664738 83.675781 88.990234 C 84.554812 88.315731 84.719426 87.064577 84.044922 86.185547 L 67.847656 65.078125 A 4 4 0 0 0 68 64 A 4 4 0 0 0 66.40625 60.804688 L 79.847656 28.351562 C 80.059659 27.839744 79.818456 27.256924 79.306641 27.044922 C 79.178686 26.991922 79.047886 26.96793 78.917969 26.96875 z " fill="currentColor" opacity="0.6" paint-order="stroke fill markers" stop-color="#000000" stroke-linecap="round" stroke-linejoin="round"/>
 <path class="ColorScheme-Background" d="M 64 13 A 51 51 0 0 0 13 64 A 51 51 0 0 0 64 115 A 51 51 0 0 0 115 64 A 51 51 0 0 0 64 13 z M 64 13.5 C 64.635668 13.5 65.252845 13.57048 65.882812 13.59375 A 0.50005 0.50005 0 0 0 65.486328 14.037109 C 65.466488 14.850373 64.814557 15.489257 64.001953 15.498047 C 63.222331 15.482167 62.589939 14.884108 62.535156 14.105469 A 0.50005 0.50005 0 0 0 62.015625 13.640625 C 35.773664 14.723809 14.736465 35.752624 13.642578 61.994141 A 0.50005 0.50005 0 0 0 14.107422 62.513672 C 14.891734 62.569712 15.490545 63.210611 15.498047 63.996094 C 15.483127 64.776615 14.884758 65.410016 14.105469 65.464844 A 0.50005 0.50005 0 0 0 13.640625 65.984375 C 13.742155 68.445379 14.018877 70.859714 14.458984 73.216797 C 13.872708 70.226456 13.5 67.164297 13.5 64 C 13.5 36.103726 36.103726 13.5 64 13.5 z M 66.613281 13.630859 C 68.040416 13.704044 69.449388 13.838513 70.839844 14.029297 C 69.448674 13.838814 68.039108 13.70519 66.613281 13.630859 z M 65.986328 14.048828 A 50 50 0 0 1 113.95117 62.013672 A 2 2 0 0 0 112 64 A 2 2 0 0 0 113.85938 65.962891 A 50 50 0 0 1 65.984375 113.85742 A 2 2 0 0 0 64 112 A 2 2 0 0 0 62.037109 113.85938 A 50 50 0 0 1 14.140625 65.962891 A 2 2 0 0 0 16 64 A 2 2 0 0 0 14.142578 62.015625 A 50 50 0 0 1 62.037109 14.140625 A 2 2 0 0 0 64 16 A 2 2 0 0 0 65.986328 14.048828 z M 78.917969 26.96875 C 78.528218 26.971188 78.159002 27.202071 78 27.585938 L 64.558594 60.039062 A 4 4 0 0 0 64 60 A 4 4 0 0 0 60 64 A 4 4 0 0 0 64 68 A 4 4 0 0 0 64.953125 67.875 L 80.871094 88.621094 C 81.545598 89.500124 82.796751 89.664738 83.675781 88.990234 C 84.554812 88.315731 84.719426 87.064577 84.044922 86.185547 L 67.847656 65.078125 A 4 4 0 0 0 68 64 A 4 4 0 0 0 66.40625 60.804688 L 79.847656 28.351562 C 80.059659 27.839744 79.818456 27.256924 79.306641 27.044922 C 79.178686 26.991922 79.047886 26.96793 78.917969 26.96875 z M 78.921875 27.46875 C 78.988115 27.468332 79.049292 27.480503 79.115234 27.507812 C 79.379035 27.617083 79.4941 27.896201 79.384766 28.160156 L 65.943359 60.613281 A 0.50005 0.50005 0 0 0 66.105469 61.203125 C 66.983921 61.864651 67.500002 62.900321 67.5 64 C 67.4986 64.318405 67.45423 64.635121 67.367188 64.941406 A 0.50005 0.50005 0 0 0 67.451172 65.382812 L 83.648438 86.490234 C 84.159532 87.156305 84.03713 88.082683 83.371094 88.59375 C 82.705023 89.104844 81.778646 88.982443 81.267578 88.316406 L 65.349609 67.570312 A 0.50005 0.50005 0 0 0 64.828125 67.390625 C 64.55742 67.459994 64.279419 67.496754 64 67.5 C 62.061083 67.5 60.5 65.938917 60.5 64 C 60.5 62.061083 62.061083 60.5 64 60.5 C 64.163522 60.499961 64.326357 60.510413 64.488281 60.533203 A 0.50005 0.50005 0 0 0 65.021484 60.230469 L 78.462891 27.777344 C 78.544291 27.580818 78.727599 27.469965 78.921875 27.46875 z M 113.9707 57.160156 C 114.16149 58.550612 114.29596 59.959584 114.36914 61.386719 C 114.29481 59.960892 114.16119 58.551326 113.9707 57.160156 z M 114.4082 62.179688 C 114.42996 62.788953 114.5 63.385413 114.5 64 C 114.5 91.896274 91.896274 114.5 64 114.5 C 60.835703 114.5 57.773545 114.12729 54.783203 113.54102 C 57.140286 113.98112 59.554621 114.25784 62.015625 114.35938 A 0.50005 0.50005 0 0 0 62.535156 113.89453 C 62.589986 113.11524 63.223384 112.51687 64.003906 112.50195 C 64.789388 112.50995 65.430283 113.10827 65.486328 113.89258 A 0.50005 0.50005 0 0 0 66.005859 114.35742 C 92.247377 113.26354 113.27618 92.226337 114.35938 65.984375 A 0.50005 0.50005 0 0 0 113.89453 65.464844 C 113.11589 65.410064 112.51783 64.777671 112.50195 63.998047 C 112.51095 63.185444 113.14963 62.533516 113.96289 62.513672 A 0.50005 0.50005 0 0 0 114.4082 62.179688 z M 14.953125 75.554688 C 19.334775 94.093185 33.906818 108.66521 52.445312 113.04688 C 33.86933 108.68165 19.318339 94.13067 14.953125 75.554688 z " fill="currentColor" opacity="0.6" paint-order="stroke fill markers" stroke-linecap="round" stroke-linejoin="round"/>
</svg>