<?xml version="1.0" encoding="utf-8"?>
<svg height="16" version="1.1" viewBox="0 0 16 16" width="16" xmlns="http://www.w3.org/2000/svg" xmlns:svg="http://www.w3.org/2000/svg" xmlns:xlink="http://www.w3.org/1999/xlink">
 <namedview bordercolor="#666666" borderopacity="1.0" id="namedview-conformist" pagecolor="#ffffff" pageopacity="0.0" pageshadow="0" showgrid="true">
  <grid class="ColorScheme-Background" empspacing="4" fill="currentColor" opacity="0.6" type="xygrid"/>
 </namedview>
 <defs id="primary-definitions">
  <style class="ColorScheme-Background" fill="currentColor" opacity="0.6" type="text/css">
   .ColorScheme-Text           { color:#eff0f1; }
      .ColorScheme-Background     { color:#31363b; }
      .ColorScheme-Highlight      { color:#3daefd; }
      .ColorScheme-ViewBackground { color:#fcfcfc; }
      .ColorScheme-PositiveText   { color:#27ae60; }
      .ColorScheme-NeutralText    { color:#f67400; }
      .ColorScheme-NegativeText   { color:#da4453; }
  </style>
 </defs>
 <path class="ColorScheme-Background" d="M 3 2 C 1.892 2 1 2.892 1 4 L 1 12 C 1 13.108 1.892 14 3 14 L 13 14 C 14.108 14 15 13.108 15 12 L 15 4 C 15 2.892 14.108 2 13 2 L 3 2 z M 3 3 L 13 3 C 13.554 3 14 3.446 14 4 L 14 12 C 14 12.554 13.554 13 13 13 L 3 13 C 2.446 13 2 12.554 2 12 L 2 4 C 2 3.446 2.446 3 3 3 z " fill="currentColor" opacity="0.6" paint-order="stroke fill markers" stop-color="#000000" stroke-linecap="round" stroke-linejoin="round"/>
 <path class="ColorScheme-Background" d="M 3,2 C 1.892,2 1,2.892 1,4 v 8 c 0,1.108 0.892,2 2,2 h 10 c 1.108,0 2,-0.892 2,-2 V 4 C 15,2.892 14.108,2 13,2 Z m 0,1 h 10 c 0.554,0 1,0.446 1,1 v 8 c 0,0.554 -0.446,1 -1,1 H 3 C 2.446,13 2,12.554 2,12 V 4 C 2,3.446 2.446,3 3,3 Z" fill="currentColor" opacity="0.6" paint-order="stroke fill markers" stop-color="#000000" stroke-linecap="round" stroke-linejoin="round"/>
 <rect class="ColorScheme-Background" fill="currentColor" height="2" opacity="0.6" paint-order="stroke fill markers" ry="1" stop-color="#000000" stroke-linecap="round" stroke-linejoin="round" width="6" x="5" y="4"/>
 <path class="ColorScheme-Background" d="M 4 7 C 3.446 7 3 7.446 3 8 L 3 9 C 3 9.554 3.446 10 4 10 L 6 10 C 6.554 10 7 9.554 7 9 L 7 8 C 7 7.446 6.554 7 6 7 L 4 7 z M 8.4765625 7 C 8.2130339 7 8 7.2130339 8 7.4765625 L 8 7.5234375 C 8 7.7869661 8.2130339 8 8.4765625 8 L 12.523438 8 C 12.786966 8 13 7.7869661 13 7.5234375 L 13 7.4765625 C 13 7.2130339 12.786966 7 12.523438 7 L 8.4765625 7 z M 4 8 L 6 8 L 6 9 L 4 9 L 4 8 z M 8.4550781 9 C 8.2031535 9 8 9.2031535 8 9.4550781 L 8 9.5449219 C 8 9.7968465 8.2031535 10 8.4550781 10 L 12.544922 10 C 12.796847 10 13 9.7968465 13 9.5449219 L 13 9.4550781 C 13 9.2031535 12.796847 9 12.544922 9 L 8.4550781 9 z M 3.4199219 11 C 3.1868743 11 3 11.186874 3 11.419922 L 3 11.580078 C 3 11.813126 3.1868743 12 3.4199219 12 L 10.580078 12 C 10.813126 12 11 11.813126 11 11.580078 L 11 11.419922 C 11 11.186874 10.813126 11 10.580078 11 L 3.4199219 11 z " fill="currentColor" opacity="0.6" paint-order="stroke fill markers" stop-color="#000000" stroke-linecap="round" stroke-linejoin="round"/>
 <path class="ColorScheme-Background" d="M 6 4 C 5.446 4 5 4.446 5 5 C 5 5.554 5.446 6 6 6 L 10 6 C 10.554 6 11 5.554 11 5 C 11 4.446 10.554 4 10 4 L 6 4 z M 6 4.5 L 10 4.5 C 10.285648 4.5 10.5 4.7143517 10.5 5 C 10.5 5.2856483 10.285648 5.5 10 5.5 L 6 5.5 C 5.7143517 5.5 5.5 5.2856483 5.5 5 C 5.5 4.7143517 5.7143517 4.5 6 4.5 z " fill="currentColor" opacity="0.6" paint-order="stroke fill markers" stroke-linecap="round" stroke-linejoin="round"/>
 <path class="ColorScheme-Background" d="M 4,7 C 3.446,7 3,7.446 3,8 v 1 c 0,0.554 0.446,1 1,1 H 6 C 6.554,10 7,9.554 7,9 V 8 C 7,7.446 6.554,7 6,7 Z M 8.4765625,7 C 8.2130339,7 8,7.2130339 8,7.4765625 v 0.046875 C 8,7.7869661 8.2130339,8 8.4765625,8 H 12.523438 C 12.786966,8 13,7.7869661 13,7.5234375 V 7.4765625 C 13,7.2130339 12.786966,7 12.523438,7 Z M 4,8 H 6 V 9 H 4 Z M 8.4550781,9 C 8.2031535,9 8,9.2031535 8,9.4550781 v 0.089844 C 8,9.7968465 8.2031535,10 8.4550781,10 H 12.544922 C 12.796847,10 13,9.7968465 13,9.5449219 V 9.4550781 C 13,9.2031535 12.796847,9 12.544922,9 Z M 3.4199219,11 C 3.1868743,11 3,11.186874 3,11.419922 v 0.160156 C 3,11.813126 3.1868743,12 3.4199219,12 H 10.580078 C 10.813126,12 11,11.813126 11,11.580078 V 11.419922 C 11,11.186874 10.813126,11 10.580078,11 Z" fill="currentColor" opacity="0.6" paint-order="stroke fill markers" stop-color="#000000" stroke-linecap="round" stroke-linejoin="round"/>
</svg>