<?xml version="1.0" encoding="utf-8"?>
<svg height="128" version="1.1" viewBox="0 0 128 128" width="128" xmlns="http://www.w3.org/2000/svg" xmlns:svg="http://www.w3.org/2000/svg" xmlns:xlink="http://www.w3.org/1999/xlink">
 <namedview bordercolor="#666666" borderopacity="1.0" id="namedview-conformist" pagecolor="#ffffff" pageopacity="0.0" pageshadow="0" showgrid="true">
  <grid class="ColorScheme-Background" empspacing="4" fill="currentColor" opacity="0.6" type="xygrid"/>
 </namedview>
 <defs id="primary-definitions">
  <style class="ColorScheme-Background" fill="currentColor" opacity="0.6" type="text/css">
   .ColorScheme-Text           { color:#eff0f1; }
      .ColorScheme-Background     { color:#31363b; }
      .ColorScheme-Highlight      { color:#3daefd; }
      .ColorScheme-ViewBackground { color:#fcfcfc; }
      .ColorScheme-PositiveText   { color:#27ae60; }
      .ColorScheme-NeutralText    { color:#f67400; }
      .ColorScheme-NegativeText   { color:#da4453; }
  </style>
 </defs>
 <path class="ColorScheme-Background" d="M 12 8 C 9.784 8 8 9.784 8 12 L 8 116 C 8 118.216 9.784 120 12 120 L 116 120 C 118.216 120 120 118.216 120 116 L 120 12 C 120 9.784 118.216 8 116 8 L 12 8 z M 12 9 L 116 9 C 117.662 9 119 10.338 119 12 L 119 116 C 119 117.662 117.662 119 116 119 L 12 119 C 10.338 119 9 117.662 9 116 L 9 12 C 9 10.338 10.338 9 12 9 z " fill="currentColor" opacity="0.6" paint-order="stroke fill markers" stop-color="#000000" stroke-linecap="round" stroke-linejoin="round"/>
 <path class="ColorScheme-Background" d="M 12 10 C 10.892 10 10 10.892 10 12 L 10 31 L 44 31 L 44 10 L 12 10 z M 45 10 L 45 31 L 83 31 L 83 10 L 45 10 z M 84 10 L 84 31 L 118 31 L 118 12 C 118 10.892 117.108 10 116 10 L 84 10 z M 10 32 L 10 52 L 44 52 L 44 32 L 10 32 z M 45 32 L 45 52 L 83 52 L 83 32 L 45 32 z M 84 32 L 84 52 L 118 52 L 118 32 L 84 32 z M 10 53 L 10 75 L 44 75 L 44 53 L 10 53 z M 45 53 L 45 75 L 83 75 L 83 53 L 45 53 z M 84 53 L 84 75 L 118 75 L 118 53 L 84 53 z M 10 76 L 10 96 L 44 96 L 44 76 L 10 76 z M 45 76 L 45 96 L 83 96 L 83 76 L 45 76 z M 84 76 L 84 96 L 118 96 L 118 76 L 84 76 z M 10 97 L 10 116 C 10 117.108 10.892 118 12 118 L 44 118 L 44 97 L 10 97 z M 45 97 L 45 118 L 83 118 L 83 97 L 45 97 z M 84 97 L 84 118 L 116 118 C 117.108 118 118 117.108 118 116 L 118 97 L 84 97 z " fill="currentColor" opacity="0.6" paint-order="stroke fill markers" stop-color="#000000" stroke-linecap="round" stroke-linejoin="round"/>
 <path class="ColorScheme-Background" d="M 12,8 C 9.784,8 8,9.784 8,12 v 104 c 0,2.216 1.784,4 4,4 h 104 c 2.216,0 4,-1.784 4,-4 V 12 c 0,-2.216 -1.784,-4 -4,-4 z m 0,1 h 104 c 1.662,0 3,1.338 3,3 v 104 c 0,1.662 -1.338,3 -3,3 H 12 c -1.662,0 -3,-1.338 -3,-3 V 12 c 0,-1.662 1.338,-3 3,-3 z" fill="currentColor" opacity="0.6" paint-order="stroke fill markers" stop-color="#000000" stroke-linecap="round" stroke-linejoin="round"/>
 <path class="ColorScheme-Background" d="M 12 10 C 10.892 10 10 10.892 10 12 L 10 31 L 44 31 L 44 10 L 12 10 z M 45 10 L 45 31 L 83 31 L 83 10 L 45 10 z M 84 10 L 84 31 L 118 31 L 118 12 C 118 10.892 117.108 10 116 10 L 84 10 z M 12 10.5 L 43.5 10.5 L 43.5 30.5 L 10.5 30.5 L 10.5 12 C 10.5 11.160352 11.160352 10.5 12 10.5 z M 45.5 10.5 L 82.5 10.5 L 82.5 30.5 L 45.5 30.5 L 45.5 10.5 z M 84.5 10.5 L 116 10.5 C 116.83965 10.5 117.5 11.160352 117.5 12 L 117.5 30.5 L 84.5 30.5 L 84.5 10.5 z M 10 32 L 10 52 L 44 52 L 44 32 L 10 32 z M 45 32 L 45 52 L 83 52 L 83 32 L 45 32 z M 84 32 L 84 52 L 118 52 L 118 32 L 84 32 z M 10.5 32.5 L 43.5 32.5 L 43.5 51.5 L 10.5 51.5 L 10.5 32.5 z M 45.5 32.5 L 82.5 32.5 L 82.5 51.5 L 45.5 51.5 L 45.5 32.5 z M 84.5 32.5 L 117.5 32.5 L 117.5 51.5 L 84.5 51.5 L 84.5 32.5 z M 10 53 L 10 75 L 44 75 L 44 53 L 10 53 z M 45 53 L 45 75 L 83 75 L 83 53 L 45 53 z M 84 53 L 84 75 L 118 75 L 118 53 L 84 53 z M 10.5 53.5 L 43.5 53.5 L 43.5 74.5 L 10.5 74.5 L 10.5 53.5 z M 45.5 53.5 L 82.5 53.5 L 82.5 74.5 L 45.5 74.5 L 45.5 53.5 z M 84.5 53.5 L 117.5 53.5 L 117.5 74.5 L 84.5 74.5 L 84.5 53.5 z M 10 76 L 10 96 L 44 96 L 44 76 L 10 76 z M 45 76 L 45 96 L 83 96 L 83 76 L 45 76 z M 84 76 L 84 96 L 118 96 L 118 76 L 84 76 z M 10.5 76.5 L 43.5 76.5 L 43.5 95.5 L 10.5 95.5 L 10.5 76.5 z M 45.5 76.5 L 82.5 76.5 L 82.5 95.5 L 45.5 95.5 L 45.5 76.5 z M 84.5 76.5 L 117.5 76.5 L 117.5 95.5 L 84.5 95.5 L 84.5 76.5 z M 10 97 L 10 116 C 10 117.108 10.892 118 12 118 L 44 118 L 44 97 L 10 97 z M 45 97 L 45 118 L 83 118 L 83 97 L 45 97 z M 84 97 L 84 118 L 116 118 C 117.108 118 118 117.108 118 116 L 118 97 L 84 97 z M 10.5 97.5 L 43.5 97.5 L 43.5 117.5 L 12 117.5 C 11.160352 117.5 10.5 116.83965 10.5 116 L 10.5 97.5 z M 45.5 97.5 L 82.5 97.5 L 82.5 117.5 L 45.5 117.5 L 45.5 97.5 z M 84.5 97.5 L 117.5 97.5 L 117.5 116 C 117.5 116.83965 116.83965 117.5 116 117.5 L 84.5 117.5 L 84.5 97.5 z " fill="currentColor" opacity="0.6" paint-order="stroke fill markers" stroke-linecap="round" stroke-linejoin="round"/>
</svg>