<?xml version="1.0" encoding="utf-8"?>
<svg height="16" version="1.1" width="16" xmlns="http://www.w3.org/2000/svg" xmlns:svg="http://www.w3.org/2000/svg" xmlns:xlink="http://www.w3.org/1999/xlink">
 <namedview bordercolor="#666666" borderopacity="1.0" id="namedview-conformist" pagecolor="#ffffff" pageopacity="0.0" pageshadow="0" showgrid="true">
  <grid class="ColorScheme-Background" empspacing="4" fill="currentColor" opacity="0.6" type="xygrid"/>
 </namedview>
 <defs id="primary-definitions">
  <style class="ColorScheme-Background" fill="currentColor" opacity="0.6" type="text/css">
   .ColorScheme-Text           { color:#eff0f1; }
      .ColorScheme-Background     { color:#31363b; }
      .ColorScheme-Highlight      { color:#3daefd; }
      .ColorScheme-ViewBackground { color:#fcfcfc; }
      .ColorScheme-PositiveText   { color:#27ae60; }
      .ColorScheme-NeutralText    { color:#f67400; }
      .ColorScheme-NegativeText   { color:#da4453; }
  </style>
 </defs>
 <path class="ColorScheme-Background" d="M 1.5,2 C 1.223,2 1,2.223 1,2.5 1,2.777 1.223,3 1.5,3 h 12 C 13.777,3 14,2.777 14,2.5 14,2.223 13.777,2 13.5,2 Z m 0,2 C 1.223,4 1,4.223 1,4.5 1,4.777 1.223,5 1.5,5 h 10 C 11.777,5 12,4.777 12,4.5 12,4.223 11.777,4 11.5,4 Z m 0,2 C 1.223,6 1,6.223 1,6.5 1,6.777 1.223,7 1.5,7 h 13 C 14.777,7 15,6.777 15,6.5 15,6.223 14.777,6 14.5,6 Z M 1.474609,8 C 1.209695,8.0133421 1,8.2316563 1,8.5 1,8.777 1.223,9 1.5,9 h 7 C 8.777,9 9,8.777 9,8.5 9,8.223 8.777,8 8.5,8 h -7 C 1.49134,8 1.483155,7.9995696 1.474609,8 Z M 1.5,10 C 1.223,10 1,10.223 1,10.5 1,10.777 1.223,11 1.5,11 h 10 C 11.777,11 12,10.777 12,10.5 12,10.223 11.777,10 11.5,10 Z m 0,2 C 1.223,12 1,12.223 1,12.5 1,12.777 1.223,13 1.5,13 h 12 C 13.777,13 14,12.777 14,12.5 14,12.223 13.777,12 13.5,12 Z" fill="currentColor" opacity="0.6"/>
 <path class="ColorScheme-Background" d="M 1.5,2 C 1.223,2 1,2.223 1,2.5 1,2.777 1.223,3 1.5,3 h 12 C 13.777,3 14,2.777 14,2.5 14,2.223 13.777,2 13.5,2 Z m 0,2 C 1.223,4 1,4.223 1,4.5 1,4.777 1.223,5 1.5,5 h 10 C 11.777,5 12,4.777 12,4.5 12,4.223 11.777,4 11.5,4 Z m 0,2 C 1.223,6 1,6.223 1,6.5 1,6.777 1.223,7 1.5,7 h 13 C 14.777,7 15,6.777 15,6.5 15,6.223 14.777,6 14.5,6 Z M 1.474609,8 C 1.209695,8.013342 1,8.2316564 1,8.5 1,8.777 1.223,9 1.5,9 h 7 C 8.777,9 9,8.777 9,8.5 9,8.223 8.777,8 8.5,8 h -7 C 1.49134,8 1.483156,7.9995696 1.474609,8 Z M 1.5,10 C 1.223,10 1,10.223 1,10.5 1,10.777 1.223,11 1.5,11 h 10 C 11.777,11 12,10.777 12,10.5 12,10.223 11.777,10 11.5,10 Z m 0,2 C 1.223,12 1,12.223 1,12.5 1,12.777 1.223,13 1.5,13 h 12 C 13.777,13 14,12.777 14,12.5 14,12.223 13.777,12 13.5,12 Z" fill="currentColor" opacity="0.6"/>
</svg>