<?xml version="1.0" encoding="utf-8"?>
<svg height="16" version="1.1" viewBox="0 0 16 16" width="16" xmlns="http://www.w3.org/2000/svg" xmlns:svg="http://www.w3.org/2000/svg" xmlns:xlink="http://www.w3.org/1999/xlink">
 <namedview bordercolor="#666666" borderopacity="1.0" id="namedview-conformist" pagecolor="#ffffff" pageopacity="0.0" pageshadow="0" showgrid="true">
  <grid class="ColorScheme-Background" empspacing="4" fill="currentColor" opacity="0.6" type="xygrid"/>
 </namedview>
 <defs id="primary-definitions">
  <style class="ColorScheme-Background" fill="currentColor" opacity="0.6" type="text/css">
   .ColorScheme-Text           { color:#eff0f1; }
      .ColorScheme-Background     { color:#31363b; }
      .ColorScheme-Highlight      { color:#3daefd; }
      .ColorScheme-ViewBackground { color:#fcfcfc; }
      .ColorScheme-PositiveText   { color:#27ae60; }
      .ColorScheme-NeutralText    { color:#f67400; }
      .ColorScheme-NegativeText   { color:#da4453; }
  </style>
 </defs>
 <path class="ColorScheme-Background" d="M 3 2 C 1.892 2 1 2.892 1 4 L 1 12 C 1 13.108 1.892 14 3 14 L 13 14 C 14.108 14 15 13.108 15 12 L 15 4 C 15 2.892 14.108 2 13 2 L 3 2 z M 2 6 L 14 6 L 14 12 C 14 12.554 13.554 13 13 13 L 3 13 C 2.446 13 2 12.554 2 12 L 2 6 z " fill="currentColor" opacity="0.6"/>
 <path class="ColorScheme-Background" d="M 3,7 V 9 H 6 V 7 Z M 7,7 V 9 H 9 V 7 Z m 3,0 v 2 h 3 V 7 Z m -7,3 v 2 h 3 v -2 z m 4,0 v 2 h 2 v -2 z m 3,0 v 2 h 3 v -2 z" fill="currentColor" opacity="0.6" paint-order="stroke fill markers" stop-color="#000000" stroke-linecap="round" stroke-linejoin="round"/>
 <path class="ColorScheme-Background" d="M 3,7 V 9 H 6 V 7 Z M 7,7 V 9 H 9 V 7 Z m 3,0 v 2 h 3 V 7 Z M 3.5,7.5 h 2 v 1 h -2 z m 4,0 h 1 v 1 h -1 z m 3,0 h 2 v 1 h -2 z M 3,10 v 2 h 3 v -2 z m 4,0 v 2 h 2 v -2 z m 3,0 v 2 h 3 v -2 z m -6.5,0.5 h 2 v 1 h -2 z m 4,0 h 1 v 1 h -1 z m 3,0 h 2 v 1 h -2 z" fill="currentColor" opacity="0.6" paint-order="stroke fill markers" stroke-linecap="round" stroke-linejoin="round"/>
 <path class="ColorScheme-Background" d="M 3,2 C 1.892,2 1,2.892 1,4 v 8 c 0,1.108 0.892,2 2,2 h 10 c 1.108,0 2,-0.892 2,-2 V 4 C 15,2.892 14.108,2 13,2 Z m 0,0.5 h 10 c 0.839648,0 1.5,0.6603522 1.5,1.5 V 5.5 H 1.5 V 4 C 1.5,3.1603522 2.1603522,2.5 3,2.5 Z M 2,6 h 12 v 6 c 0,0.554 -0.446,1 -1,1 H 3 C 2.446,13 2,12.554 2,12 Z" fill="currentColor" opacity="0.6"/>
</svg>