<?xml version="1.0" encoding="utf-8"?>
<svg height="48" version="1.1" viewBox="0 0 48 48" width="48" xmlns="http://www.w3.org/2000/svg" xmlns:svg="http://www.w3.org/2000/svg" xmlns:xlink="http://www.w3.org/1999/xlink">
 <namedview bordercolor="#666666" borderopacity="1.0" id="namedview-conformist" pagecolor="#ffffff" pageopacity="0.0" pageshadow="0" showgrid="true">
  <grid class="ColorScheme-Background" empspacing="4" fill="currentColor" opacity="0.6" type="xygrid"/>
 </namedview>
 <defs id="primary-definitions">
  <style class="ColorScheme-Background" fill="currentColor" opacity="0.6" type="text/css">
   .ColorScheme-Text           { color:#eff0f1; }
      .ColorScheme-Background     { color:#31363b; }
      .ColorScheme-Highlight      { color:#3daefd; }
      .ColorScheme-ViewBackground { color:#fcfcfc; }
      .ColorScheme-PositiveText   { color:#27ae60; }
      .ColorScheme-NeutralText    { color:#f67400; }
      .ColorScheme-NegativeText   { color:#da4453; }
  </style>
 </defs>
 <path class="ColorScheme-Background" d="M 4.5 6 C 4.223 6 4 6.223 4 6.5 C 4 6.777 4.223 7 4.5 7 L 41.5 7 C 41.777 7 42 6.777 42 6.5 C 42 6.223 41.777 6 41.5 6 L 4.5 6 z M 4.5 13 C 4.223 13 4 13.223 4 13.5 C 4 13.777 4.223 14 4.5 14 L 35.5 14 C 35.777 14 36 13.777 36 13.5 C 36 13.223 35.777 13 35.5 13 L 4.5 13 z M 4.5 20 C 4.223 20 4 20.223 4 20.5 C 4 20.777 4.223 21 4.5 21 L 43.5 21 C 43.777 21 44 20.777 44 20.5 C 44 20.223 43.777 20 43.5 20 L 4.5 20 z M 4.5 27 C 4.223 27 4 27.223 4 27.5 C 4 27.777 4.223 28 4.5 28 L 27.5 28 C 27.777 28 28 27.777 28 27.5 C 28 27.223 27.777 27 27.5 27 L 4.5 27 z M 4.5 34 C 4.223 34 4 34.223 4 34.5 C 4 34.777 4.223 35 4.5 35 L 35.5 35 C 35.777 35 36 34.777 36 34.5 C 36 34.223 35.777 34 35.5 34 L 4.5 34 z M 4.5 41 C 4.223 41 4 41.223 4 41.5 C 4 41.777 4.223 42 4.5 42 L 41.5 42 C 41.777 42 42 41.777 42 41.5 C 42 41.223 41.777 41 41.5 41 L 4.5 41 z " fill="currentColor" opacity="0.6"/>
 <path class="ColorScheme-Background" d="M 4.5,6 C 4.223,6 4,6.223 4,6.5 4,6.777 4.223,7 4.5,7 h 37 C 41.777,7 42,6.777 42,6.5 42,6.223 41.777,6 41.5,6 Z m 0,7 C 4.223,13 4,13.223 4,13.5 4,13.777 4.223,14 4.5,14 h 31 C 35.777,14 36,13.777 36,13.5 36,13.223 35.777,13 35.5,13 Z m 0,7 C 4.223,20 4,20.223 4,20.5 4,20.777 4.223,21 4.5,21 h 39 C 43.777,21 44,20.777 44,20.5 44,20.223 43.777,20 43.5,20 Z m 0,7 C 4.223,27 4,27.223 4,27.5 4,27.777 4.223,28 4.5,28 h 23 C 27.777,28 28,27.777 28,27.5 28,27.223 27.777,27 27.5,27 Z m 0,7 C 4.223,34 4,34.223 4,34.5 4,34.777 4.223,35 4.5,35 h 31 C 35.777,35 36,34.777 36,34.5 36,34.223 35.777,34 35.5,34 Z m 0,7 C 4.223,41 4,41.223 4,41.5 4,41.777 4.223,42 4.5,42 h 37 C 41.777,42 42,41.777 42,41.5 42,41.223 41.777,41 41.5,41 Z" fill="currentColor" opacity="0.6"/>
</svg>