<?xml version="1.0" encoding="utf-8"?>
<svg height="24" version="1.1" viewBox="0 0 24 24" width="24" xmlns="http://www.w3.org/2000/svg" xmlns:svg="http://www.w3.org/2000/svg" xmlns:xlink="http://www.w3.org/1999/xlink">
 <namedview bordercolor="#666666" borderopacity="1.0" id="namedview-conformist" pagecolor="#ffffff" pageopacity="0.0" pageshadow="0" showgrid="true">
  <grid class="ColorScheme-Background" empspacing="4" fill="currentColor" opacity="0.6" type="xygrid"/>
 </namedview>
 <defs id="primary-definitions">
  <style class="ColorScheme-Background" fill="currentColor" opacity="0.6" type="text/css">
   .ColorScheme-Text           { color:#eff0f1; }
      .ColorScheme-Background     { color:#31363b; }
      .ColorScheme-Highlight      { color:#3daefd; }
      .ColorScheme-ViewBackground { color:#fcfcfc; }
      .ColorScheme-PositiveText   { color:#27ae60; }
      .ColorScheme-NeutralText    { color:#f67400; }
      .ColorScheme-NegativeText   { color:#da4453; }
  </style>
 </defs>
 <path class="ColorScheme-Background" d="M 7 3 C 6.446 3 6 3.446 6 4 L 6 5 L 5 5 C 4.446 5 4 5.446 4 6 L 4 7 L 3 7 C 2.446 7 2 7.446 2 8 L 2 20 C 2 20.554 2.446 21 3 21 L 21 21 C 21.554 21 22 20.554 22 20 L 22 8 C 22 7.446 21.554 7 21 7 L 20 7 L 20 6 C 20 5.446 19.554 5 19 5 L 18 5 L 18 4 C 18 3.446 17.554 3 17 3 L 7 3 z M 7 4 L 17 4 L 17 5 L 7 5 L 7 4 z M 5 6 L 19 6 L 19 7 L 5 7 L 5 6 z M 3 8 L 21 8 L 21 20 L 3 20 L 3 8 z " fill="currentColor" opacity="0.6" paint-order="stroke fill markers" stop-color="#000000" stroke-linecap="round" stroke-linejoin="round"/>
 <path class="ColorScheme-Background" d="m 11,16 v -4 l 3,2 z" fill="currentColor" opacity="0.6" stroke-linecap="butt" stroke-linejoin="miter" stroke-opacity="1"/>
 <path class="ColorScheme-Background" d="M 7,3 C 6.446,3 6,3.446 6,4 V 5 H 5 C 4.446,5 4,5.446 4,6 V 7 H 3 C 2.446,7 2,7.446 2,8 v 12 c 0,0.554 0.446,1 1,1 h 18 c 0.554,0 1,-0.446 1,-1 V 8 C 22,7.446 21.554,7 21,7 H 20 V 6 C 20,5.446 19.554,5 19,5 H 18 V 4 C 18,3.446 17.554,3 17,3 Z M 7,4 H 17 V 5 H 7 Z M 5,6 H 19 V 7 H 5 Z M 3,8 H 21 V 20 H 3 Z" fill="currentColor" opacity="0.6" paint-order="stroke fill markers" stop-color="#000000" stroke-linecap="round" stroke-linejoin="round"/>
 <path class="ColorScheme-Background" d="M 11 12 L 11 16 L 14 14 L 11 12 z M 11.5 12.933594 L 13.097656 14 L 11.5 15.066406 L 11.5 12.933594 z " fill="currentColor" opacity="0.6"/>
</svg>