<?xml version="1.0" encoding="utf-8"?>
<svg height="128" version="1.1" viewBox="0 0 128 128" width="128" xmlns="http://www.w3.org/2000/svg" xmlns:svg="http://www.w3.org/2000/svg" xmlns:xlink="http://www.w3.org/1999/xlink">
 <namedview bordercolor="#666666" borderopacity="1.0" id="namedview-conformist" pagecolor="#ffffff" pageopacity="0.0" pageshadow="0" showgrid="true">
  <grid class="ColorScheme-Background" empspacing="4" fill="currentColor" opacity="0.6" type="xygrid"/>
 </namedview>
 <defs id="primary-definitions">
  <style class="ColorScheme-Background" fill="currentColor" opacity="0.6" type="text/css">
   .ColorScheme-Text           { color:#eff0f1; }
      .ColorScheme-Background     { color:#31363b; }
      .ColorScheme-Highlight      { color:#3daefd; }
      .ColorScheme-ViewBackground { color:#fcfcfc; }
      .ColorScheme-PositiveText   { color:#27ae60; }
      .ColorScheme-NeutralText    { color:#f67400; }
      .ColorScheme-NegativeText   { color:#da4453; }
  </style>
 </defs>
 <path class="ColorScheme-Background" d="M 26 14 C 24.892 14 24 14.892 24 16 L 24 18 L 18 18 C 16.892 18 16 18.892 16 20 L 16 24 L 11 24 C 9.892 24 9 24.892 9 26 L 9 112 C 9 113.108 9.892 114 11 114 L 118 114 C 119.108 114 120 113.108 120 112 L 120 26 C 120 24.892 119.108 24 118 24 L 112 24 L 112 20 C 112 18.892 111.108 18 110 18 L 104 18 L 104 16 C 104 14.892 103.108 14 102 14 L 26 14 z M 26 15 L 102 15 C 102.554 15 102.75224 15.504486 103 16 L 103 18 L 25 18 L 25 16 C 25 15.446 25.446 15 26 15 z M 18 19 L 110 19 C 110.554 19 110.60826 19.608263 111 20 L 111 24 L 17 24 L 17 20 C 17 19.446 17.446 19 18 19 z M 11 25 L 118 25 C 118.554 25 119 25.446 119 26 L 119 112 C 119 112.554 118.554 113 118 113 L 11 113 C 10.446 113 10 112.554 10 112 L 10 26 C 10 25.446 10.446 25 11 25 z " fill="currentColor" opacity="0.6" paint-order="stroke fill markers" stop-color="#000000" stroke-linecap="round" stroke-linejoin="round"/>
 <path class="ColorScheme-Background" d="m 26,14 c -1.108,0 -2,0.892 -2,2 v 2 h -6 c -1.108,0 -2,0.892 -2,2 v 4 h -5 c -1.108,0 -2,0.892 -2,2 v 86 c 0,1.108 0.892,2 2,2 h 107 c 1.108,0 2,-0.892 2,-2 V 26 c 0,-1.108 -0.892,-2 -2,-2 h -6 v -4 c 0,-1.108 -0.892,-2 -2,-2 h -6 v -2 c 0,-1.108 -0.892,-2 -2,-2 z m 0,1 h 76 c 0.554,0 0.75224,0.504486 1,1 v 2 H 25 v -2 c 0,-0.554 0.446,-1 1,-1 z m -8,4 h 92 c 0.554,0 0.60826,0.608263 1,1 v 4 H 17 v -4 c 0,-0.554 0.446,-1 1,-1 z m -7,6 h 107 c 0.554,0 1,0.446 1,1 v 86 c 0,0.554 -0.446,1 -1,1 H 11 c -0.554,0 -1,-0.446 -1,-1 V 26 c 0,-0.554 0.446,-1 1,-1 z" fill="currentColor" opacity="0.6" paint-order="stroke fill markers" stop-color="#000000" stroke-linecap="round" stroke-linejoin="round"/>
 <path class="ColorScheme-Background" d="M 56,80 V 62 l 16,9 z" fill="currentColor" opacity="0.6" stroke-linecap="butt" stroke-linejoin="miter" stroke-opacity="1"/>
 <path class="ColorScheme-Background" d="M 56 62 L 56 80 L 72 71 L 56 62 z M 56.5 62.855469 L 70.980469 71 L 56.5 79.144531 L 56.5 62.855469 z " fill="currentColor" opacity="0.6"/>
</svg>