<?xml version="1.0" encoding="utf-8"?>
<svg height="24" version="1.1" viewBox="0 0 24 24" width="24" xmlns="http://www.w3.org/2000/svg" xmlns:svg="http://www.w3.org/2000/svg" xmlns:xlink="http://www.w3.org/1999/xlink">
 <namedview bordercolor="#666666" borderopacity="1.0" id="namedview-conformist" pagecolor="#ffffff" pageopacity="0.0" pageshadow="0" showgrid="true">
  <grid class="ColorScheme-Background" empspacing="4" fill="currentColor" opacity="0.6" type="xygrid"/>
 </namedview>
 <defs id="primary-definitions">
  <style class="ColorScheme-Background" fill="currentColor" opacity="0.6" type="text/css">
   .ColorScheme-Text           { color:#eff0f1; }
      .ColorScheme-Background     { color:#31363b; }
      .ColorScheme-Highlight      { color:#3daefd; }
      .ColorScheme-ViewBackground { color:#fcfcfc; }
      .ColorScheme-PositiveText   { color:#27ae60; }
      .ColorScheme-NeutralText    { color:#f67400; }
      .ColorScheme-NegativeText   { color:#da4453; }
  </style>
 </defs>
 <path class="ColorScheme-Background" d="m 4,8 v 2 H 9 V 8 Z m 6,0 v 2 h 4 V 8 Z m 5,0 v 2 h 5 V 8 Z M 4,11 v 2 h 5 v -2 z m 6,0 v 2 h 4 v -2 z m 5,0 v 2 h 5 V 11 Z M 4,14 v 2 h 5 v -2 z m 6,0 v 2 h 4 v -2 z m 5,0 v 2 h 5 V 14 Z M 4,17 v 2 h 5 v -2 z m 6,0 v 2 h 4 v -2 z m 5,0 v 2 h 5 v -2 z" fill="currentColor" opacity="0.6" paint-order="stroke fill markers" stop-color="#000000" stroke-linecap="round" stroke-linejoin="round"/>
 <path class="ColorScheme-Background" d="m 4,8 v 2 H 9 V 8 Z m 6,0 v 2 h 4 V 8 Z m 5,0 v 2 h 5 V 8 Z M 4.5,8.5 h 4 v 1 h -4 z m 6,0 h 3 v 1 h -3 z m 5,0 h 4 v 1 h -4 z M 4,11 v 2 h 5 v -2 z m 6,0 v 2 h 4 v -2 z m 5,0 v 2 h 5 V 11 Z M 4.5,11.5 h 4 v 1 h -4 z m 6,0 h 3 v 1 h -3 z m 5,0 h 4 v 1 h -4 z M 4,14 v 2 h 5 v -2 z m 6,0 v 2 h 4 v -2 z m 5,0 v 2 h 5 V 14 Z M 4.5,14.5 h 4 v 1 h -4 z m 6,0 h 3 v 1 h -3 z m 5,0 h 4 v 1 h -4 z M 4,17 v 2 h 5 v -2 z m 6,0 v 2 h 4 v -2 z m 5,0 v 2 h 5 V 17 Z M 4.5,17.5 h 4 v 1 h -4 z m 6,0 h 3 v 1 h -3 z m 5,0 h 4 v 1 h -4 z" fill="currentColor" opacity="0.6" paint-order="stroke fill markers" stroke-linecap="round" stroke-linejoin="round"/>
 <path class="ColorScheme-Background" d="M 4,3 C 2.892,3 2,3.892 2,5 v 14 c 0,1.108 0.892,2 2,2 h 16 c 1.108,0 2,-0.892 2,-2 V 5 C 22,3.892 21.108,3 20,3 Z M 3,7 h 18 v 12 c 0,0.554 -0.446,1 -1,1 H 4 C 3.446,20 3,19.554 3,19 Z" fill="currentColor" opacity="0.6"/>
 <path class="ColorScheme-Background" d="M 4,3 C 2.892,3 2,3.892 2,5 v 14 c 0,1.108 0.892,2 2,2 h 16 c 1.108,0 2,-0.892 2,-2 V 5 C 22,3.892 21.108,3 20,3 Z m 0,0.5 h 16 c 0.839648,0 1.5,0.6603522 1.5,1.5 V 6.5 H 2.5 V 5 C 2.5,4.1603522 3.1603522,3.5 4,3.5 Z M 3,7 h 18 v 12 c 0,0.554 -0.446,1 -1,1 H 4 C 3.446,20 3,19.554 3,19 Z" fill="currentColor" opacity="0.6"/>
</svg>