<?xml version="1.0" encoding="utf-8"?>
<svg height="64" version="1.1" viewBox="0 0 64 64" width="64" xmlns="http://www.w3.org/2000/svg" xmlns:svg="http://www.w3.org/2000/svg" xmlns:xlink="http://www.w3.org/1999/xlink">
 <namedview bordercolor="#666666" borderopacity="1.0" id="namedview-conformist" pagecolor="#ffffff" pageopacity="0.0" pageshadow="0" showgrid="true">
  <grid class="ColorScheme-Background" empspacing="4" fill="currentColor" opacity="0.6" type="xygrid"/>
 </namedview>
 <defs id="primary-definitions">
  <style class="ColorScheme-Background" fill="currentColor" opacity="0.6" type="text/css">
   .ColorScheme-Text           { color:#eff0f1; }
      .ColorScheme-Background     { color:#31363b; }
      .ColorScheme-Highlight      { color:#3daefd; }
      .ColorScheme-ViewBackground { color:#fcfcfc; }
      .ColorScheme-PositiveText   { color:#27ae60; }
      .ColorScheme-NeutralText    { color:#f67400; }
      .ColorScheme-NegativeText   { color:#da4453; }
  </style>
 </defs>
 <path class="ColorScheme-Background" d="m 6,17 v 9 h 16 v -9 z m 17,0 v 9 h 18 v -9 z m 19,0 v 9 H 58 V 17 Z M 6,27 V 37 H 22 V 27 Z m 17,0 V 37 H 41 V 27 Z m 19,0 V 37 H 58 V 27 Z M 6,38 v 9 h 16 v -9 z m 17,0 v 9 h 18 v -9 z m 19,0 v 9 H 58 V 38 Z M 6,48 V 58 H 22 V 48 Z m 17,0 V 58 H 41 V 48 Z m 19,0 V 58 H 58 V 48 Z" fill="currentColor" opacity="0.6" paint-order="stroke fill markers" stop-color="#000000" stroke-linecap="round" stroke-linejoin="round"/>
 <path class="ColorScheme-Background" d="m 6,17 v 9 h 16 v -9 z m 17,0 v 9 h 18 v -9 z m 19,0 v 9 H 58 V 17 Z M 6.5,17.5 h 15 v 8 h -15 z m 17,0 h 17 v 8 h -17 z m 19,0 h 15 v 8 h -15 z M 6,27 V 37 H 22 V 27 Z m 17,0 V 37 H 41 V 27 Z m 19,0 V 37 H 58 V 27 Z M 6.5,27.5 h 15 v 9 h -15 z m 17,0 h 17 v 9 h -17 z m 19,0 h 15 v 9 h -15 z M 6,38 v 9 h 16 v -9 z m 17,0 v 9 h 18 v -9 z m 19,0 v 9 H 58 V 38 Z M 6.5,38.5 h 15 v 8 h -15 z m 17,0 h 17 v 8 h -17 z m 19,0 h 15 v 8 h -15 z M 6,48 V 58 H 22 V 48 Z m 17,0 V 58 H 41 V 48 Z m 19,0 V 58 H 58 V 48 Z M 6.5,48.5 h 15 v 9 h -15 z m 17,0 h 17 v 9 h -17 z m 19,0 h 15 v 9 h -15 z" fill="currentColor" opacity="0.6" paint-order="stroke fill markers" stroke-linecap="round" stroke-linejoin="round"/>
 <path class="ColorScheme-Background" d="M 6,4 C 4.892,4 4,4.892 4,6 v 52 c 0,1.108 0.892,2 2,2 h 52 c 1.108,0 2,-0.892 2,-2 V 6 C 60,4.892 59.108,4 58,4 Z M 5,16 h 54 v 42 c 0,0.554 -0.446,1 -1,1 H 6 C 5.446,59 5,58.554 5,58 Z" fill="currentColor" opacity="0.6"/>
 <path class="ColorScheme-Background" d="M 6,4 C 4.892,4 4,4.892 4,6 v 52 c 0,1.108 0.892,2 2,2 h 52 c 1.108,0 2,-0.892 2,-2 V 6 C 60,4.892 59.108,4 58,4 Z m 0,0.5 h 52 c 0.839648,0 1.5,0.6603522 1.5,1.5 v 9.5 H 4.5 V 6 C 4.5,5.1603522 5.160352,4.5 6,4.5 Z M 5,16 h 54 v 42 c 0,0.554 -0.446,1 -1,1 H 6 C 5.446,59 5,58.554 5,58 Z" fill="currentColor" opacity="0.6"/>
</svg>