<?xml version="1.0" encoding="utf-8"?>
<svg height="16" version="1.1" viewBox="0 0 16 16" width="16" xmlns="http://www.w3.org/2000/svg" xmlns:svg="http://www.w3.org/2000/svg" xmlns:xlink="http://www.w3.org/1999/xlink">
 <namedview bordercolor="#666666" borderopacity="1.0" id="namedview-conformist" pagecolor="#ffffff" pageopacity="0.0" pageshadow="0" showgrid="true">
  <grid class="ColorScheme-Background" empspacing="4" fill="currentColor" opacity="0.6" type="xygrid"/>
 </namedview>
 <defs id="primary-definitions">
  <style class="ColorScheme-Background" fill="currentColor" opacity="0.6" type="text/css">
   .ColorScheme-Text           { color:#eff0f1; }
      .ColorScheme-Background     { color:#31363b; }
      .ColorScheme-Highlight      { color:#3daefd; }
      .ColorScheme-ViewBackground { color:#fcfcfc; }
      .ColorScheme-PositiveText   { color:#27ae60; }
      .ColorScheme-NeutralText    { color:#f67400; }
      .ColorScheme-NegativeText   { color:#da4453; }
  </style>
 </defs>
 <path class="ColorScheme-Background" d="M 8 4 A 7 7 0 0 0 2.9140625 6.2070312 L 1.3535156 4.6464844 A 0.5 0.5 0 0 0 1 4.5 A 0.5 0.5 0 0 0 0.64648438 4.6464844 A 0.5 0.5 0 0 0 0.64648438 5.3535156 L 2.28125 6.9882812 A 7 7 0 0 0 1 11 L 1 12 C 1 12.554 1.446 13 2 13 L 14 13 C 14.554 13 15 12.554 15 12 L 15 11 A 7 7 0 0 0 13.728516 6.9785156 L 15.353516 5.3535156 A 0.5 0.5 0 0 0 15.353516 4.6464844 A 0.5 0.5 0 0 0 14.646484 4.6464844 L 13.09375 6.1992188 A 7 7 0 0 0 8 4 z M 5 8 A 1 1 0 0 1 6 9 A 1 1 0 0 1 5 10 A 1 1 0 0 1 4 9 A 1 1 0 0 1 5 8 z M 11 8 A 1 1 0 0 1 12 9 A 1 1 0 0 1 11 10 A 1 1 0 0 1 10 9 A 1 1 0 0 1 11 8 z " fill="currentColor" opacity="0.6" paint-order="stroke fill markers" stop-color="#000000" stroke-linecap="round" stroke-linejoin="round"/>
 <path class="ColorScheme-Background" d="M 8 4 A 7 7 0 0 0 2.9140625 6.2070312 L 1.3535156 4.6464844 A 0.5 0.5 0 0 0 1 4.5 A 0.5 0.5 0 0 0 0.64648438 4.6464844 A 0.5 0.5 0 0 0 0.64648438 5.3535156 L 2.28125 6.9882812 A 7 7 0 0 0 1 11 L 1 12 C 1 12.554 1.446 13 2 13 L 14 13 C 14.554 13 15 12.554 15 12 L 15 11 A 7 7 0 0 0 13.728516 6.9785156 L 15.353516 5.3535156 A 0.5 0.5 0 0 0 15.353516 4.6464844 A 0.5 0.5 0 0 0 14.646484 4.6464844 L 13.09375 6.1992188 A 7 7 0 0 0 8 4 z M 8 4.5 L 8.0019531 4.5 C 9.7920899 4.5006926 11.502707 5.2401264 12.730469 6.5429688 A 0.50005 0.50005 0 0 0 13.447266 6.5527344 L 13.375 6.625 A 0.50005 0.50005 0 0 0 13.320312 7.265625 C 14.088457 8.3594281 14.499721 9.6634197 14.5 11 L 14.5 12 C 14.5 12.285648 14.285648 12.5 14 12.5 L 2 12.5 C 1.7143517 12.5 1.5 12.285648 1.5 12 L 1.5 11.001953 L 1.5 11 C 1.5051947 9.666222 1.9202427 8.3670183 2.6894531 7.2773438 A 0.50005 0.50005 0 0 0 2.6347656 6.6347656 L 2.5605469 6.5605469 A 0.50005 0.50005 0 0 0 3.2792969 6.5488281 C 4.5040778 5.245144 6.2112985 4.5045706 8 4.5 z M 5 7.5 C 4.177496 7.5 3.5 8.177496 3.5 9 C 3.5 9.822504 4.177496 10.5 5 10.5 C 5.822504 10.5 6.5 9.822504 6.5 9 C 6.5 8.177496 5.822504 7.5 5 7.5 z M 11 7.5 C 10.177496 7.5 9.5 8.177496 9.5 9 C 9.5 9.822504 10.177496 10.5 11 10.5 C 11.822504 10.5 12.5 9.822504 12.5 9 C 12.5 8.177496 11.822504 7.5 11 7.5 z M 5 8 A 1 1 0 0 1 6 9 A 1 1 0 0 1 5 10 A 1 1 0 0 1 4 9 A 1 1 0 0 1 5 8 z M 11 8 A 1 1 0 0 1 12 9 A 1 1 0 0 1 11 10 A 1 1 0 0 1 10 9 A 1 1 0 0 1 11 8 z " fill="currentColor" opacity="0.6" paint-order="stroke fill markers" stroke-linecap="round" stroke-linejoin="round"/>
</svg>