<?xml version="1.0" encoding="utf-8"?>
<svg height="16" version="1.1" viewBox="0 0 16 16" width="16" xmlns="http://www.w3.org/2000/svg" xmlns:svg="http://www.w3.org/2000/svg" xmlns:xlink="http://www.w3.org/1999/xlink">
 <namedview bordercolor="#666666" borderopacity="1.0" id="namedview-conformist" pagecolor="#ffffff" pageopacity="0.0" pageshadow="0" showgrid="true">
  <grid class="ColorScheme-Background" empspacing="4" fill="currentColor" opacity="0.6" type="xygrid"/>
 </namedview>
 <defs id="primary-definitions">
  <style class="ColorScheme-Background" fill="currentColor" opacity="0.6" type="text/css">
   .ColorScheme-Text           { color:#eff0f1; }
      .ColorScheme-Background     { color:#31363b; }
      .ColorScheme-Highlight      { color:#3daefd; }
      .ColorScheme-ViewBackground { color:#fcfcfc; }
      .ColorScheme-PositiveText   { color:#27ae60; }
      .ColorScheme-NeutralText    { color:#f67400; }
      .ColorScheme-NegativeText   { color:#da4453; }
  </style>
 </defs>
 <path class="ColorScheme-Background" d="M 2,1 C 1.446,1 1,1.446 1,2 v 12 c 0,0.554 0.446,1 1,1 H 9 9.4042969 14 c 0.554,0 1,-0.446 1,-1 V 2 C 15,1.446 14.554,1 14,1 Z M 7.8613281,2 H 14 V 14 H 9.2421875 c -0.049886,-0.364229 -0.090649,-0.729489 -0.125,-1.089844 C 8.7710629,12.966172 8.3987504,13 8,13 5.1458362,13 3.6269534,11.332031 3.6269531,11.332031 3.4439109,11.125887 3.4622587,10.810482 3.6679691,10.626953 3.7667891,10.538353 3.8967788,10.492685 4.0292972,10.5 c 0.1323204,0.0082 0.2559664,0.06862 0.34375,0.167969 0,0 1.1477889,1.332031 3.6269531,1.332031 0.3766564,0 0.7212718,-0.03183 1.0371094,-0.08398 C 8.9015706,9.7621001 9,8 9,8 H 7 C 7,8 6.8130674,4.8907275 7.8613281,2 Z m 1.1757813,9.916016 c 0.02041,0.324296 0.047908,0.656691 0.080078,0.99414 2.1313565,-0.34493 3.2558595,-1.578125 3.2558595,-1.578125 0.183042,-0.206144 0.164694,-0.521549 -0.04102,-0.705078 -0.07906,-0.06987 -0.178184,-0.112938 -0.283203,-0.123047 -0.158745,-0.01574 -0.315474,0.04521 -0.421875,0.164063 4e-6,-4e-6 -0.826828,0.956942 -2.5898436,1.248047 z M 4.4746094,5 C 4.483155,4.9995696 4.4913438,5 4.5,5 4.777,5 5,5.223 5,5.5 v 1 C 5,6.777 4.777,7 4.5,7 4.223,7 4,6.777 4,6.5 v -1 C 4,5.2316562 4.209695,5.0133421 4.4746094,5 Z M 11.474609,5 C 11.209695,5.0133421 11,5.2316562 11,5.5 v 1 C 11,6.777 11.223,7 11.5,7 11.777,7 12,6.777 12,6.5 v -1 C 12,5.223 11.777,5 11.5,5 c -0.0087,0 -0.01685,-4.304e-4 -0.02539,0 z" fill="currentColor" nodetypes="ssssccssssscccccsccccscccccccccccssssssssssssssss" opacity="0.6"/>
 <path class="ColorScheme-Background" d="M 2,1 C 1.446,1 1,1.446 1,2 v 12 c 0,0.554 0.446,1 1,1 H 9 9.4042969 14 c 0.554,0 1,-0.446 1,-1 V 2 C 15,1.446 14.554,1 14,1 Z M 2,1.5 H 7.5800781 C 6.3350477,4.6188283 6.5,8.0292969 6.5,8.0292969 6.5155569,8.2939248 6.7349155,8.5004304 7,8.5 H 8.5058594 C 8.4904959,8.834991 8.4726287,9.9192077 8.5351562,11.457031 8.3588876,11.473567 8.1952409,11.5 8,11.5 6.8499674,11.5 6.0325332,11.193611 5.5,10.896484 4.9674668,10.599358 4.7519531,10.341797 4.7519531,10.341797 c -0.00129,-0.002 -0.00259,-0.0039 -0.00391,-0.0059 C 4.5726106,10.137427 4.324996,10.016394 4.0605469,10 c -0.0013,-5.1e-6 -0.0026,-5.1e-6 -0.00391,0 -0.2642068,-0.014584 -0.5233809,0.07768 -0.7207031,0.253906 -0.4070336,0.363145 -0.4442125,1.002266 -0.082031,1.410156 0.00129,0.0013 0.0026,0.0026 0.00391,0.0039 0,0 1.6932273,1.832031 4.7421875,1.832031 0.2445106,0 0.4593624,-0.03326 0.6855469,-0.05469 0.039272,0.350946 0.089168,0.702266 0.1445312,1.054688 H 2 C 1.7143517,14.500009 1.5,14.285648 1.5,14 V 2 C 1.5,1.7143517 1.7143517,1.5 2,1.5 Z M 7.8613281,2 H 14 V 14 H 9.2421875 c -0.049886,-0.364229 -0.090649,-0.729489 -0.125,-1.089844 C 8.7710629,12.966172 8.3987504,13 8,13 5.1458362,13 3.6269534,11.332031 3.6269531,11.332031 3.4439108,11.125887 3.4622585,10.810482 3.6679688,10.626953 3.7667888,10.538357 3.8967785,10.492685 4.0292969,10.5 c 0.1323204,0.0082 0.2559664,0.06862 0.34375,0.167969 C 4.3730469,10.667969 5.5208358,12 8,12 8.3766564,12 8.7212718,11.968166 9.0371094,11.916016 8.9015706,9.7620997 9,8 9,8 H 7 C 7,8 6.8130674,4.8907275 7.8613281,2 Z m 1.1757813,9.916016 c 0.02041,0.324296 0.047908,0.656691 0.080078,0.99414 2.1313565,-0.34493 3.2558595,-1.578125 3.2558595,-1.578125 0.183042,-0.206144 0.164694,-0.521549 -0.04102,-0.705078 -0.07906,-0.06987 -0.178184,-0.112938 -0.283203,-0.123047 -0.158745,-0.01574 -0.315474,0.04521 -0.421875,0.164063 4e-6,-4e-6 -0.826828,0.956942 -2.5898436,1.248047 z M 4.4492188,4.5 C 3.9238874,4.5264577 3.5,4.9711762 3.5,5.5 v 1 c 0,0.5453508 0.4546492,1 1,1 0.5453508,0 1,-0.4546492 1,-1 v -1 c 0,-0.5453508 -0.4546492,-1 -1,-1 0.00792,0 -0.00948,-0.00208 -0.050781,0 z M 4.4746094,5 C 4.483155,4.9995696 4.4913438,5 4.5,5 4.777,5 5,5.223 5,5.5 v 1 C 5,6.777 4.777,7 4.5,7 4.223,7 4,6.777 4,6.5 v -1 C 4,5.2316562 4.209695,5.0133421 4.4746094,5 Z M 11.474609,5 C 11.209695,5.0133421 11,5.2316562 11,5.5 v 1 C 11,6.777 11.223,7 11.5,7 11.777,7 12,6.777 12,6.5 v -1 C 12,5.223 11.777,5 11.5,5 c -0.0087,0 -0.01685,-4.304e-4 -0.02539,0 z" fill="currentColor" nodetypes="ssssccsssssscccccsscccccccscccssscccccsccccscccccccccccsssssscssssssssscssssssc" opacity="0.6"/>
</svg>