<?xml version="1.0" encoding="utf-8"?>
<svg height="64" version="1.1" viewBox="0 0 64 64" width="64" xmlns="http://www.w3.org/2000/svg" xmlns:svg="http://www.w3.org/2000/svg" xmlns:xlink="http://www.w3.org/1999/xlink">
 <namedview bordercolor="#666666" borderopacity="1.0" id="namedview-conformist" pagecolor="#ffffff" pageopacity="0.0" pageshadow="0" showgrid="true">
  <grid class="ColorScheme-Background" empspacing="4" fill="currentColor" opacity="0.6" type="xygrid"/>
 </namedview>
 <defs id="primary-definitions">
  <style class="ColorScheme-Background" fill="currentColor" opacity="0.6" type="text/css">
   .ColorScheme-Text           { color:#eff0f1; }
      .ColorScheme-Background     { color:#31363b; }
      .ColorScheme-Highlight      { color:#3daefd; }
      .ColorScheme-ViewBackground { color:#fcfcfc; }
      .ColorScheme-PositiveText   { color:#27ae60; }
      .ColorScheme-NeutralText    { color:#f67400; }
      .ColorScheme-NegativeText   { color:#da4453; }
  </style>
 </defs>
 <path class="ColorScheme-Background" d="M 12 8 C 9.784 8 8 9.784 8 12 L 8 31 L 31 31 L 31 8 L 12 8 z M 33 8 L 33 31 L 56 31 L 56 12 C 56 9.784 54.216 8 52 8 L 33 8 z M 8 33 L 8 52 C 8 54.216 9.784 56 12 56 L 31 56 L 31 33 L 8 33 z M 33 33 L 33 56 L 52 56 C 54.216 56 56 54.216 56 52 L 56 33 L 33 33 z " fill="currentColor" opacity="0.6" paint-order="stroke fill markers" stop-color="#000000" stroke-linecap="round" stroke-linejoin="round"/>
 <path class="ColorScheme-Background" d="M 12 8 C 9.784 8 8 9.784 8 12 L 8 31 L 31 31 L 31 8 L 12 8 z M 33 8 L 33 31 L 56 31 L 56 12 C 56 9.784 54.216 8 52 8 L 33 8 z M 12 8.5 L 30.5 8.5 L 30.5 30.5 L 8.5 30.5 L 8.5 12 C 8.5 10.052353 10.052353 8.5 12 8.5 z M 33.5 8.5 L 52 8.5 C 53.947647 8.5 55.5 10.052353 55.5 12 L 55.5 30.5 L 33.5 30.5 L 33.5 8.5 z M 8 33 L 8 52 C 8 54.216 9.784 56 12 56 L 31 56 L 31 33 L 8 33 z M 33 33 L 33 56 L 52 56 C 54.216 56 56 54.216 56 52 L 56 33 L 33 33 z M 8.5 33.5 L 30.5 33.5 L 30.5 55.5 L 12 55.5 C 10.052353 55.5 8.5 53.947647 8.5 52 L 8.5 33.5 z M 33.5 33.5 L 55.5 33.5 L 55.5 52 C 55.5 53.947647 53.947647 55.5 52 55.5 L 33.5 55.5 L 33.5 33.5 z " fill="currentColor" opacity="0.6" paint-order="stroke fill markers" stroke-linecap="round" stroke-linejoin="round"/>
</svg>