<?xml version="1.0" encoding="utf-8"?>
<svg height="24" version="1.1" viewBox="0 0 24 24" width="24" xmlns="http://www.w3.org/2000/svg" xmlns:svg="http://www.w3.org/2000/svg" xmlns:xlink="http://www.w3.org/1999/xlink">
 <namedview bordercolor="#666666" borderopacity="1.0" id="namedview-conformist" pagecolor="#ffffff" pageopacity="0.0" pageshadow="0" showgrid="true">
  <grid class="ColorScheme-Background" empspacing="4" fill="currentColor" opacity="0.6" type="xygrid"/>
 </namedview>
 <defs id="primary-definitions">
  <style class="ColorScheme-Background" fill="currentColor" opacity="0.6" type="text/css">
   .ColorScheme-Text           { color:#eff0f1; }
      .ColorScheme-Background     { color:#31363b; }
      .ColorScheme-Highlight      { color:#3daefd; }
      .ColorScheme-ViewBackground { color:#fcfcfc; }
      .ColorScheme-PositiveText   { color:#27ae60; }
      .ColorScheme-NeutralText    { color:#f67400; }
      .ColorScheme-NegativeText   { color:#da4453; }
  </style>
 </defs>
 <path class="ColorScheme-Background" d="M 4,2 C 2.892,2 2,2.892 2,4 v 16 c 0,1.108 0.892,2 2,2 h 16 c 1.108,0 2,-0.892 2,-2 V 4 C 22,2.892 21.108,2 20,2 Z m 8.660156,1 H 20 c 0.554,0 1,0.446 1,1 v 16 c 0,0.554 -0.446,1 -1,1 H 14.011719 C 13.794219,19.753172 13.65482,18.525774 13.570312,17.396484 13.083286,17.462065 12.560172,17.5 12,17.5 9.9166688,17.5 8.3369713,16.977079 7.2773438,16.447266 6.2177163,15.917452 5.6464844,15.353516 5.6464844,15.353516 c -0.1952123,-0.195254 -0.1952123,-0.511778 0,-0.707032 C 5.7402372,14.552711 5.8673995,14.50002 6,14.5 c 0.1326005,2e-5 0.2597628,0.05271 0.3535156,0.146484 0,0 0.4287701,0.436065 1.3691406,0.90625 C 8.6630272,16.02292 10.083335,16.5 12,16.5 c 0.543628,0 1.045624,-0.03975 1.509766,-0.105469 C 13.37795,13.841831 13.5,12 13.5,12 h -3 c 0,0 -0.377194,-4.4873281 2.160156,-9 z m 0.84961,13.394531 c 0.01675,0.324372 0.03471,0.656734 0.06055,1.001953 1.32428,-0.17832 2.377633,-0.561863 3.152344,-0.949218 1.059628,-0.529814 1.63086,-1.09375 1.63086,-1.09375 0.195212,-0.195254 0.195212,-0.511778 0,-0.707032 C 18.259763,14.552711 18.132601,14.50002 18,14.5 c -0.132601,2e-5 -0.259763,0.05271 -0.353516,0.146484 0,0 -0.42877,0.436065 -1.36914,0.90625 -0.673652,0.336826 -1.5953,0.675818 -2.767578,0.841797 z M 6.4746094,8 C 6.483155,7.9995696 6.4913438,8 6.5,8 6.777,8 7,8.223 7,8.5 v 1 C 7,9.777 6.777,10 6.5,10 6.223,10 6,9.777 6,9.5 v -1 C 6,8.2316563 6.209695,8.0133421 6.4746094,8 Z M 17.474609,8 C 17.209695,8.0133421 17,8.2316563 17,8.5 v 1 C 17,9.777 17.223,10 17.5,10 17.777,10 18,9.777 18,9.5 v -1 C 18,8.223 17.777,8 17.5,8 c -0.0087,0 -0.01685,-4.304e-4 -0.02539,0 z" fill="currentColor" nodetypes="ssssssssscssssccsscsccssccccccscsccscssssssssssssssss" opacity="0.6"/>
 <path class="ColorScheme-Background" d="M 4,2 C 2.892,2 2,2.892 2,4 v 16 c 0,1.108 0.892,2 2,2 h 16 c 1.108,0 2,-0.892 2,-2 V 4 C 22,2.892 21.108,2 20,2 Z m 0,0.5 h 8.470703 c -2.774331,4.7393222 -2.46875,9.541016 -2.46875,9.541016 0.02136,0.259249 0.23792,0.458821 0.498047,0.458984 h 2.501953 c -0.01865,0.332492 -0.05476,1.572916 0.0078,3.429688 C 12.684168,15.962442 12.364264,16 12,16 10.166307,16 8.8265659,15.546096 7.9453125,15.105469 7.0611694,14.663397 6.7109375,14.296875 6.7109375,14.296875 c -0.00129,-0.0013 -0.0026,-0.0026 -0.00391,-0.0039 C 6.5196654,14.105553 6.2650087,14.00004 6,14 c -0.2650087,4e-5 -0.5196616,0.105559 -0.7070312,0.292969 -0.3862397,0.386321 -0.3862397,1.027741 0,1.414062 6.492e-4,6.53e-4 0.0013,0.0013 0.00195,0.002 0,0 0.6374916,0.62441 1.7597656,1.185547 C 8.1744002,17.454338 9.8330035,18 12,18 c 0.405406,0 0.769141,-0.03952 1.138672,-0.07422 0.09717,1.132372 0.259266,2.342345 0.490234,3.574219 H 4 C 3.1603522,21.500001 2.5,20.839648 2.5,20 V 4 C 2.5,3.1603522 3.1603522,2.5 4,2.5 Z M 12.660156,3 H 20 c 0.554,0 1,0.446 1,1 v 16 c 0,0.554 -0.446,1 -1,1 H 14.011719 C 13.794219,19.753172 13.65482,18.525774 13.570312,17.396484 13.083286,17.462065 12.560172,17.5 12,17.5 9.9166688,17.5 8.3369713,16.977079 7.2773438,16.447266 6.2177163,15.917452 5.6464844,15.353516 5.6464844,15.353516 c -0.1952123,-0.195254 -0.1952123,-0.511778 0,-0.707032 C 5.7402372,14.552711 5.8673995,14.50002 6,14.5 c 0.1326005,2e-5 0.2597628,0.05271 0.3535156,0.146484 0,0 0.4287701,0.436065 1.3691406,0.90625 C 8.6630272,16.02292 10.083335,16.5 12,16.5 c 0.543628,0 1.045624,-0.03975 1.509766,-0.105469 C 13.37795,13.841831 13.5,12 13.5,12 h -3 c 0,0 -0.377194,-4.4873281 2.160156,-9 z m 0.84961,13.394531 c 0.01675,0.324372 0.03471,0.656734 0.06055,1.001953 1.32428,-0.17832 2.377633,-0.561863 3.152344,-0.949218 1.059628,-0.529814 1.63086,-1.09375 1.63086,-1.09375 0.195212,-0.195254 0.195212,-0.511778 0,-0.707032 C 18.259763,14.552711 18.132601,14.50002 18,14.5 c -0.132601,2e-5 -0.259763,0.05271 -0.353516,0.146484 0,0 -0.42877,0.436065 -1.36914,0.90625 -0.673652,0.336826 -1.5953,0.675818 -2.767578,0.841797 z M 6.4492188,7.5 C 5.9238872,7.5264577 5.5,7.9711762 5.5,8.5 v 1 c 0,0.545351 0.4546492,1 1,1 0.5453508,0 1,-0.454649 1,-1 v -1 c 0,-0.5453508 -0.4546492,-1 -1,-1 0.00792,0 -0.00948,-0.00208 -0.050781,0 z M 6.4746094,8 C 6.483155,7.9995696 6.4913438,8 6.5,8 6.777,8 7,8.223 7,8.5 v 1 C 7,9.777 6.777,10 6.5,10 6.223,10 6,9.777 6,9.5 v -1 C 6,8.2316563 6.209695,8.0133421 6.4746094,8 Z M 17.474609,8 C 17.209695,8.0133421 17,8.2316563 17,8.5 v 1 C 17,9.777 17.223,10 17.5,10 17.777,10 18,9.777 18,9.5 v -1 C 18,8.223 17.777,8 17.5,8 17.4913,8 17.48315,7.9995696 17.474609,8 Z" fill="currentColor" nodetypes="sssssssssscccccsscccssccscccssscssssccsscsccssccccccscsccscsssssscssssssssscssssssc" opacity="0.6"/>
</svg>