<?xml version="1.0" encoding="utf-8"?>
<svg height="64" version="1.1" viewBox="0 0 64 64" width="64" xmlns="http://www.w3.org/2000/svg" xmlns:svg="http://www.w3.org/2000/svg" xmlns:xlink="http://www.w3.org/1999/xlink">
 <namedview bordercolor="#666666" borderopacity="1.0" id="namedview-conformist" pagecolor="#ffffff" pageopacity="0.0" pageshadow="0" showgrid="true">
  <grid class="ColorScheme-Background" empspacing="4" fill="currentColor" opacity="0.6" type="xygrid"/>
 </namedview>
 <defs id="primary-definitions">
  <style class="ColorScheme-Background" fill="currentColor" opacity="0.6" type="text/css">
   .ColorScheme-Text           { color:#eff0f1; }
      .ColorScheme-Background     { color:#31363b; }
      .ColorScheme-Highlight      { color:#3daefd; }
      .ColorScheme-ViewBackground { color:#fcfcfc; }
      .ColorScheme-PositiveText   { color:#27ae60; }
      .ColorScheme-NeutralText    { color:#f67400; }
      .ColorScheme-NegativeText   { color:#da4453; }
  </style>
 </defs>
 <path class="ColorScheme-Background" d="M 8,4 C 5.784,4 4,5.784 4,8 v 48 c 0,2.216 1.784,4 4,4 h 48 c 2.216,0 4,-1.784 4,-4 V 8 C 60,5.784 58.216,4 56,4 Z M 32.658203,5 H 56 c 1.662,0 3,1.338 3,3 v 48 c 0,1.662 -1.338,3 -3,3 H 37.445312 C 36.905383,55.917768 36.534754,52.755972 36.294922,49.720703 34.967407,49.895164 33.538334,50 32,50 26.510422,50 22.358832,48.71062 19.576172,47.40625 16.793516,46.10188 15.316406,44.730469 15.316406,44.730469 14.912738,44.35304 14.891745,43.71974 15.269531,43.316406 15.450771,43.122608 15.701602,43.008785 15.966797,43 c 0.265231,-0.0088 0.523094,0.08814 0.716797,0.269531 0,0 1.189561,1.128591 3.740234,2.324219 C 22.974501,46.789378 26.822922,48 32,48 33.495283,48 34.87604,47.897062 36.150391,47.724609 35.602083,39.079129 36,32 36,32 h -8 c 0,0 -0.885871,-14.704579 4.658203,-27 z m 3.492188,42.724609 c 0.04157,0.655437 0.09151,1.325054 0.144531,1.996094 3.409751,-0.448105 6.126029,-1.375604 8.128906,-2.314453 2.782655,-1.30437 4.259766,-2.675781 4.259766,-2.675781 0.403668,-0.377429 0.424661,-1.010729 0.04687,-1.414063 -0.244088,-0.261052 -0.608938,-0.371996 -0.957031,-0.291015 -0.171148,0.03981 -0.328784,0.124019 -0.457032,0.24414 0,0 -1.189562,1.128591 -3.740234,2.324219 -1.813965,0.850294 -4.287982,1.706233 -7.425781,2.130859 z M 17,20 c 0.554,0 1,0.446 1,1 v 4 c 0,0.554 -0.446,1 -1,1 -0.554,0 -1,-0.446 -1,-1 v -4 c 0,-0.554 0.446,-1 1,-1 z m 30,0 c -0.554,0 -1,0.446 -1,1 v 4 c 0,0.554 0.446,1 1,1 0.554,0 1,-0.446 1,-1 v -4 c 0,-0.554 -0.446,-1 -1,-1 z" fill="currentColor" nodetypes="ssssssssscssssccssccccssccccccsccscscssssssssssssss" opacity="0.6"/>
 <path class="ColorScheme-Background" d="M 8,4 C 5.784,4 4,5.784 4,8 v 48 c 0,2.216 1.784,4 4,4 h 48 c 2.216,0 4,-1.784 4,-4 V 8 C 60,5.784 58.216,4 56,4 Z M 8,4.5 H 32.380859 C 26.609696,17.014018 27.5,32.029297 27.5,32.029297 27.515557,32.293925 27.734916,32.50043 28,32.5 h 7.484375 c -0.03785,0.727753 -0.312054,6.834447 0.15625,14.757812 C 34.503233,47.395412 33.312501,47.5 32,47.5 c -5.099125,0 -8.870171,-1.19073 -11.363281,-2.359375 -2.495278,-1.169661 -3.609375,-2.234375 -3.609375,-2.234375 -6.65e-4,-6.69e-4 -0.0013,-0.0013 -0.002,-0.002 C 16.735485,42.632815 16.348159,42.487292 15.951172,42.5 h -0.002 c -0.396919,0.01364 -0.773615,0.184503 -1.044922,0.474609 -0.562619,0.600666 -0.530849,1.559007 0.07031,2.121094 6.65e-4,6.69e-4 0.0013,0.0013 0.002,0.002 0,0 1.543684,1.429046 4.386719,2.761719 C 22.204336,49.191069 26.432135,50.5 32,50.5 c 1.381987,0 2.645087,-0.107963 3.859375,-0.25 0.251679,3.035725 0.634409,6.180487 1.189453,9.25 H 8 C 6.0523533,59.5 4.5,57.947647 4.5,56 V 8 C 4.5,6.052353 6.0523533,4.5 8,4.5 Z M 32.658203,5 H 56 c 1.662,0 3,1.338 3,3 v 48 c 0,1.662 -1.338,3 -3,3 H 37.445312 C 36.905383,55.917768 36.534754,52.755972 36.294922,49.720703 34.967407,49.895164 33.538334,50 32,50 26.510422,50 22.358832,48.71062 19.576172,47.40625 16.793516,46.10188 15.316406,44.730469 15.316406,44.730469 14.912738,44.35304 14.891745,43.71974 15.269531,43.316406 15.450771,43.122608 15.701602,43.008785 15.966797,43 c 0.265231,-0.0088 0.523094,0.08814 0.716797,0.269531 0,0 1.189561,1.128591 3.740234,2.324219 C 22.974501,46.789378 26.822922,48 32,48 33.495283,48 34.87604,47.897062 36.150391,47.724609 35.602083,39.079129 36,32 36,32 h -8 c 0,0 -0.885871,-14.704579 4.658203,-27 z m 3.492188,42.724609 c 0.04157,0.655437 0.09151,1.325054 0.144531,1.996094 3.409751,-0.448105 6.126029,-1.375604 8.128906,-2.314453 2.782655,-1.30437 4.259766,-2.675781 4.259766,-2.675781 0.403667,-0.377431 0.424658,-1.010731 0.04687,-1.414063 -0.244088,-0.261052 -0.608938,-0.371996 -0.957031,-0.291015 -0.171148,0.03981 -0.328784,0.124019 -0.457032,0.24414 0,0 -1.189562,1.128591 -3.740234,2.324219 -1.813965,0.850294 -4.287982,1.706233 -7.425781,2.130859 z M 17,19.5 c -0.822351,0 -1.5,0.677649 -1.5,1.5 v 4 c 0,0.822351 0.677649,1.5 1.5,1.5 0.822351,0 1.5,-0.677649 1.5,-1.5 v -4 c 0,-0.822351 -0.677649,-1.5 -1.5,-1.5 z m 0,0.5 c 0.554,0 1,0.446 1,1 v 4 c 0,0.554 -0.446,1 -1,1 -0.554,0 -1,-0.446 -1,-1 v -4 c 0,-0.554 0.446,-1 1,-1 z m 30,0 c -0.554,0 -1,0.446 -1,1 v 4 c 0,0.554 0.446,1 1,1 0.554,0 1,-0.446 1,-1 v -4 c 0,-0.554 -0.446,-1 -1,-1 z m 0,0.5 c 0.285648,0 0.5,0.214352 0.5,0.5 v 4 c 0,0.285648 -0.214352,0.5 -0.5,0.5 -0.285648,0 -0.5,-0.214352 -0.5,-0.5 v -4 c 0,-0.285648 0.214352,-0.5 0.5,-0.5 z m 0.886719,23.011719 c 0.174828,-0.04067 0.355923,0.01537 0.478515,0.146484 0.192954,0.206 0.182737,0.51426 -0.02344,0.707031 -0.0029,0.0027 -1.411402,1.313145 -4.130859,2.587891 -1.846891,0.865731 -4.372576,1.69488 -7.458985,2.160156 -0.02529,-0.332903 -0.04995,-0.663975 -0.07227,-0.992187 2.951165,-0.452328 5.354137,-1.251453 7.109374,-2.074219 2.603128,-1.220216 3.866291,-2.409426 3.869141,-2.412109 l 0.002,-0.002 c 0.06378,-0.0591 0.141837,-0.101384 0.226563,-0.121093 z" fill="currentColor" nodetypes="sssssssssscccccssccccccccsccsssscssssccssccccssccccscsccscsssssssssssssssssssssssssssssssccssccscccc" opacity="0.6"/>
</svg>