<?xml version="1.0" encoding="utf-8"?>
<svg height="48" version="1.1" viewBox="0 0 48 48" width="48" xmlns="http://www.w3.org/2000/svg" xmlns:svg="http://www.w3.org/2000/svg" xmlns:xlink="http://www.w3.org/1999/xlink">
 <namedview bordercolor="#666666" borderopacity="1.0" id="namedview-conformist" pagecolor="#ffffff" pageopacity="0.0" pageshadow="0" showgrid="true">
  <grid class="ColorScheme-Background" empspacing="4" fill="currentColor" opacity="0.6" type="xygrid"/>
 </namedview>
 <defs id="primary-definitions">
  <style class="ColorScheme-Background" fill="currentColor" opacity="0.6" type="text/css">
   .ColorScheme-Text           { color:#eff0f1; }
      .ColorScheme-Background     { color:#31363b; }
      .ColorScheme-Highlight      { color:#3daefd; }
      .ColorScheme-ViewBackground { color:#fcfcfc; }
      .ColorScheme-PositiveText   { color:#27ae60; }
      .ColorScheme-NeutralText    { color:#f67400; }
      .ColorScheme-NegativeText   { color:#da4453; }
  </style>
 </defs>
 <path class="ColorScheme-Background" d="M 8 6 C 6.892 6 6 6.892 6 8 L 6 23 L 23 23 L 23 6 L 8 6 z M 25 6 L 25 23 L 42 23 L 42 8 C 42 6.892 41.108 6 40 6 L 25 6 z M 6 25 L 6 40 C 6 41.108 6.892 42 8 42 L 23 42 L 23 25 L 6 25 z M 25 25 L 25 42 L 40 42 C 41.108 42 42 41.108 42 40 L 42 25 L 25 25 z " fill="currentColor" opacity="0.6" paint-order="stroke fill markers" stop-color="#000000" stroke-linecap="round" stroke-linejoin="round"/>
 <path class="ColorScheme-Background" d="M 8 6 C 6.892 6 6 6.892 6 8 L 6 23 L 23 23 L 23 6 L 8 6 z M 25 6 L 25 23 L 42 23 L 42 8 C 42 6.892 41.108 6 40 6 L 25 6 z M 8 6.5 L 22.5 6.5 L 22.5 22.5 L 6.5 22.5 L 6.5 8 C 6.5 7.1603522 7.1603522 6.5 8 6.5 z M 25.5 6.5 L 40 6.5 C 40.839648 6.5 41.5 7.1603522 41.5 8 L 41.5 22.5 L 25.5 22.5 L 25.5 6.5 z M 6 25 L 6 40 C 6 41.108 6.892 42 8 42 L 23 42 L 23 25 L 6 25 z M 25 25 L 25 42 L 40 42 C 41.108 42 42 41.108 42 40 L 42 25 L 25 25 z M 6.5 25.5 L 22.5 25.5 L 22.5 41.5 L 8 41.5 C 7.1603522 41.5 6.5 40.839648 6.5 40 L 6.5 25.5 z M 25.5 25.5 L 41.5 25.5 L 41.5 40 C 41.5 40.839648 40.839648 41.5 40 41.5 L 25.5 41.5 L 25.5 25.5 z " fill="currentColor" opacity="0.6" paint-order="stroke fill markers" stroke-linecap="round" stroke-linejoin="round"/>
</svg>