<?xml version="1.0" encoding="utf-8"?>
<svg height="64" version="1.1" viewBox="0 0 64 64" width="64" xmlns="http://www.w3.org/2000/svg" xmlns:svg="http://www.w3.org/2000/svg" xmlns:xlink="http://www.w3.org/1999/xlink">
 <namedview bordercolor="#666666" borderopacity="1.0" id="namedview-conformist" pagecolor="#ffffff" pageopacity="0.0" pageshadow="0" showgrid="true">
  <grid class="ColorScheme-Background" empspacing="4" fill="currentColor" opacity="0.6" type="xygrid"/>
 </namedview>
 <defs id="primary-definitions">
  <style class="ColorScheme-Background" fill="currentColor" opacity="0.6" type="text/css">
   .ColorScheme-Text           { color:#eff0f1; }
      .ColorScheme-Background     { color:#31363b; }
      .ColorScheme-Highlight      { color:#3daefd; }
      .ColorScheme-ViewBackground { color:#fcfcfc; }
      .ColorScheme-PositiveText   { color:#27ae60; }
      .ColorScheme-NeutralText    { color:#f67400; }
      .ColorScheme-NegativeText   { color:#da4453; }
  </style>
 </defs>
 <path class="ColorScheme-Background" d="m 5,12 c -0.554,0 -1,0.446 -1,1 v 38 c 0,0.554 0.446,1 1,1 h 54 c 0.554,0 1,-0.446 1,-1 V 13 c 0,-0.554 -0.446,-1 -1,-1 z m 2,2 h 1 c 1,0 1,1 2,1 h 1 c 0,0 1,0 1,1 v 2 c 0,1 -1,1 -1,1 H 7 c 0,0 -1,0 -1,-1 v -3 c 0,-1 1,-1 1,-1 z m 0,7 h 1 c 1,0 1,1 2,1 h 1 c 0,0 1,0 1,1 v 2 c 0,1 -1,1 -1,1 H 7 C 7,26 6,26 6,25 V 22 C 6,21 7,21 7,21 Z M 5,47 h 54 v 4 H 5 Z m 2,1 c -0.554,0 -1,0.446 -1,1 0,0.554 0.446,1 1,1 0.554,0 1,-0.446 1,-1 0,-0.554 -0.446,-1 -1,-1 z m 45,0 c -0.554,0 -1,0.446 -1,1 0,0.554 0.446,1 1,1 0.554,0 1,-0.446 1,-1 0,-0.554 -0.446,-1 -1,-1 z m 3,0 c -0.554,0 -1,0.446 -1,1 0,0.554 0.446,1 1,1 h 2 c 0.554,0 1,-0.446 1,-1 0,-0.554 -0.446,-1 -1,-1 z" fill="currentColor" opacity="0.6" paint-order="stroke fill markers" stop-color="#000000" stroke-linecap="round" stroke-linejoin="round"/>
 <path class="ColorScheme-Background" d="M 5 12 C 4.446 12 4 12.446 4 13 L 4 51 C 4 51.554 4.446 52 5 52 L 59 52 C 59.554 52 60 51.554 60 51 L 60 13 C 60 12.446 59.554 12 59 12 L 5 12 z M 5 12.5 L 59 12.5 C 59.285648 12.5 59.5 12.714352 59.5 13 L 59.5 47 A 0.50005 0.50005 0 0 0 59 46.5 L 5 46.5 A 0.50005 0.50005 0 0 0 4.5 47 L 4.5 13 C 4.5 12.714352 4.7143517 12.5 5 12.5 z M 7 13.5 C 7 13.5 6.6466003 13.4931 6.2773438 13.677734 C 5.9080872 13.862363 5.5 14.333334 5.5 15 L 5.5 18 C 5.5 18.666666 5.9080873 19.137637 6.2773438 19.322266 C 6.6466003 19.506894 7 19.5 7 19.5 L 11 19.5 C 11 19.5 11.3534 19.5069 11.722656 19.322266 C 12.091913 19.137637 12.5 18.666666 12.5 18 L 12.5 16 C 12.5 15.333334 12.091913 14.862363 11.722656 14.677734 C 11.3534 14.493106 11 14.5 11 14.5 L 10 14.5 C 9.666667 14.5 9.6035154 14.396484 9.3535156 14.146484 C 9.1035159 13.896485 8.666666 13.5 8 13.5 L 7 13.5 z M 7 14 L 8 14 C 9 14 9 15 10 15 L 11 15 C 11 15 12 15 12 16 L 12 18 C 12 19 11 19 11 19 L 7 19 C 7 19 6 19 6 18 L 6 15 C 6 14 7 14 7 14 z M 7 20.5 C 7 20.5 6.6466003 20.4931 6.2773438 20.677734 C 5.9080872 20.862363 5.5 21.333334 5.5 22 L 5.5 25 C 5.5 25.666666 5.9080873 26.137637 6.2773438 26.322266 C 6.6466003 26.506894 7 26.5 7 26.5 L 11 26.5 C 11 26.5 11.3534 26.5069 11.722656 26.322266 C 12.091913 26.137637 12.5 25.666666 12.5 25 L 12.5 23 C 12.5 22.333334 12.091913 21.862363 11.722656 21.677734 C 11.3534 21.493106 11 21.5 11 21.5 L 10 21.5 C 9.666667 21.5 9.6035154 21.396484 9.3535156 21.146484 C 9.1035159 20.896485 8.666666 20.5 8 20.5 L 7 20.5 z M 7 21 L 8 21 C 9 21 9 22 10 22 L 11 22 C 11 22 12 22 12 23 L 12 25 C 12 26 11 26 11 26 L 7 26 C 7 26 6 26 6 25 L 6 22 C 6 21 7 21 7 21 z M 5 47 L 59 47 L 59 51 L 5 51 L 5 47 z M 7 48 C 6.446 48 6 48.446 6 49 C 6 49.554 6.446 50 7 50 C 7.554 50 8 49.554 8 49 C 8 48.446 7.554 48 7 48 z M 52 48 C 51.446 48 51 48.446 51 49 C 51 49.554 51.446 50 52 50 C 52.554 50 53 49.554 53 49 C 53 48.446 52.554 48 52 48 z M 55 48 C 54.446 48 54 48.446 54 49 C 54 49.554 54.446 50 55 50 L 57 50 C 57.554 50 58 49.554 58 49 C 58 48.446 57.554 48 57 48 L 55 48 z M 7 48.5 C 7.2856483 48.5 7.5 48.714352 7.5 49 C 7.5 49.285648 7.2856483 49.5 7 49.5 C 6.7143517 49.5 6.5 49.285648 6.5 49 C 6.5 48.714352 6.7143517 48.5 7 48.5 z M 52 48.5 C 52.285648 48.5 52.5 48.714352 52.5 49 C 52.5 49.285648 52.285648 49.5 52 49.5 C 51.714352 49.5 51.5 49.285648 51.5 49 C 51.5 48.714352 51.714352 48.5 52 48.5 z M 55 48.5 L 57 48.5 C 57.285648 48.5 57.5 48.714352 57.5 49 C 57.5 49.285648 57.285648 49.5 57 49.5 L 55 49.5 C 54.714352 49.5 54.5 49.285648 54.5 49 C 54.5 48.714352 54.714352 48.5 55 48.5 z " fill="currentColor" opacity="0.6" paint-order="stroke fill markers" stroke-linecap="round" stroke-linejoin="round"/>
</svg>