<?xml version="1.0" encoding="utf-8"?>
<svg height="24" version="1.1" viewBox="0 0 24 24" width="24" xmlns="http://www.w3.org/2000/svg" xmlns:svg="http://www.w3.org/2000/svg" xmlns:xlink="http://www.w3.org/1999/xlink">
 <namedview bordercolor="#666666" borderopacity="1.0" id="namedview-conformist" pagecolor="#ffffff" pageopacity="0.0" pageshadow="0" showgrid="true">
  <grid class="ColorScheme-Background" empspacing="4" fill="currentColor" opacity="0.6" type="xygrid"/>
 </namedview>
 <defs id="primary-definitions">
  <style class="ColorScheme-Background" fill="currentColor" opacity="0.6" type="text/css">
   .ColorScheme-Text           { color:#eff0f1; }
      .ColorScheme-Background     { color:#31363b; }
      .ColorScheme-Highlight      { color:#3daefd; }
      .ColorScheme-ViewBackground { color:#fcfcfc; }
      .ColorScheme-PositiveText   { color:#27ae60; }
      .ColorScheme-NeutralText    { color:#f67400; }
      .ColorScheme-NegativeText   { color:#da4453; }
  </style>
 </defs>
 <path class="ColorScheme-Background" d="M 12,4 C 9.6774243,3.999746 7.4124336,4.734745 5.5332031,6.099609 1.6801642,8.898575 0.06473379,13.871348 1.5371094,18.400391 a 1.0001,1.0001 0 0 0 1.2617187,0.640625 L 5.3339844,18.216797 A 1.0001,1.0001 0 0 0 5.9765625,16.957031 C 5.7758692,16.339066 5.6660156,15.683793 5.6660156,15 c 0,-1.860385 0.4757352,-3.841842 1.484375,-5.277344 C 8.1590304,8.287155 9.6219404,7.333984 12,7.333984 c 1.915591,0 3.236718,0.618502 4.205078,1.609375 l 2.269531,-2.835937 c -0.0034,-0.0024 -0.0064,-0.0054 -0.0098,-0.0078 C 16.585649,4.734743 14.322577,3.999746 12,4 Z m 0,1 c 1.755091,-1.92e-4 3.424637,0.561291 4.935547,1.429687 L 15.982422,7.619141 C 14.921908,6.874027 13.652517,6.333984 12,6.333984 9.3547306,6.333984 7.4824485,7.511158 6.3320312,9.148437 5.1595674,10.817095 4.6660156,12.969138 4.6660156,15 c 0,0.790894 0.1276475,1.552101 0.359375,2.265625 l -2.5351562,0.824219 a 1.0001,1.0001 0 0 0 -0.00195,0 C 1.1499922,13.97051 2.6167281,9.453881 6.1210938,6.908203 7.8293139,5.667542 9.8884701,4.999769 12,5 Z m 7.253906,1.732422 -2.40039,3 c 0.881797,1.259885 1.354776,2.93679 1.457031,4.583984 l 2.3125,0.304688 c 0.806741,0.106209 1.397225,0.876852 1.291015,1.683594 -0.106208,0.806739 -0.874899,1.397225 -1.68164,1.291015 l -2.253906,-0.296875 a 1.0001,1.0001 0 0 0 0.685546,0.917969 l 2.535157,0.824219 a 1.0001,1.0001 0 0 0 1.261719,-0.640625 C 23.828122,14.194911 22.530768,9.60743 19.253906,6.732422 Z M 12,14 a 1,1 0 0 0 -1,1 1,1 0 0 0 1,1 1,1 0 0 0 0.791016,-0.392578 l 7.570312,0.998047 c 0.27463,0.03616 0.526344,-0.157011 0.5625,-0.431641 0.03616,-0.27463 -0.15701,-0.524391 -0.43164,-0.560547 l -7.56836,-0.996093 A 1,1 0 0 0 12,14 Z" fill="currentColor" opacity="0.6" paint-order="stroke fill markers" stop-color="#000000" stroke-dasharray="none" stroke-linecap="round" stroke-linejoin="round" stroke-miterlimit="4" stroke-opacity="1"/>
 <path class="ColorScheme-Background" d="M 12,4 C 9.6774243,3.999746 7.4124336,4.734745 5.5332031,6.099609 1.6801642,8.898575 0.06473377,13.871348 1.5371094,18.400391 1.7084,18.925897 2.2734881,19.212815 2.7988281,19.041016 L 5.3339844,18.216797 C 5.8592554,18.04631 6.1469223,17.482343 5.9765625,16.957031 5.7758692,16.339066 5.6660156,15.683793 5.6660156,15 c 0,-1.860385 0.4757352,-3.841842 1.484375,-5.277344 C 8.1590304,8.287155 9.6219404,7.333984 12,7.333984 c 1.915591,0 3.236718,0.618502 4.205078,1.609375 0,0 2.263166,-2.8413 2.259766,-2.84375 C 16.585684,4.73474 14.322577,3.999746 12,4 Z m 0,1 c 1.755091,-1.92e-4 3.424637,0.561291 4.935547,1.429687 L 15.982422,7.619141 C 14.921908,6.874027 13.652517,6.333984 12,6.333984 9.3547306,6.333984 7.4824485,7.511158 6.3320312,9.148437 5.1595674,10.817095 4.6660156,12.969138 4.6660156,15 c 0,0.790894 0.1276475,1.552101 0.359375,2.265625 l -2.5351562,0.824219 h -0.00195 C 1.1499891,13.97051 2.6167281,9.453881 6.1210938,6.908203 7.8293139,5.667542 9.8884701,4.999769 12,5 Z m 7.253906,1.732422 -2.40039,3 c 0.881797,1.259885 1.354776,2.93679 1.457031,4.583984 l 2.3125,0.304688 c 0.806741,0.106209 1.397226,0.876851 1.291015,1.683594 -0.106207,0.806739 -0.874899,1.397225 -1.68164,1.291015 l -2.253906,-0.296875 c 0.01324,0.419533 0.287037,0.78616 0.685546,0.917969 l 2.535157,0.824219 c 0.52534,0.171799 1.090428,-0.115119 1.261719,-0.640625 1.367184,-4.20548 0.06983,-8.792961 -3.207032,-11.667969 z m 0.01563,0.78125 c 2.316901,2.254874 3.417268,5.415212 3.074214,8.607422 C 22.33675,15.142763 21.682022,14.255931 20.6875,14.125 L 18.736328,13.867188 C 18.594059,12.420191 18.173977,10.999565 17.435547,9.806641 Z M 12,14 c -0.552285,0 -1,0.447715 -1,1 0,0.552285 0.447715,1 1,1 0.3103,-10e-4 0.602534,-0.146079 0.791016,-0.392578 l 7.570312,0.998047 c 0.27463,0.03616 0.526344,-0.157011 0.5625,-0.431641 0.03616,-0.27463 -0.15701,-0.524391 -0.43164,-0.560547 l -7.56836,-0.996093 C 12.769014,14.243581 12.404412,13.999999 12,14 Z m 0,0.5 c 0.203641,0 0.384934,0.120465 0.462891,0.308594 0.06811,0.163241 0.217387,0.278357 0.392578,0.302734 -0.177149,-0.02247 -0.352838,0.05123 -0.460938,0.19336 C 12.300416,15.427772 12.154862,15.498913 12,15.5 c -0.282064,0 -0.5,-0.217936 -0.5,-0.5 0,-0.282064 0.217936,-0.5 0.5,-0.5 z m 10.257812,2.132812 c -0.08515,0.539288 -0.09879,1.082064 -0.271484,1.613282 -0.0875,0.268427 -0.362517,0.408067 -0.630859,0.320312 -6.51e-4,-1e-6 -0.0013,-1e-6 -0.002,0 l -1.646485,-0.535156 0.460938,0.06055 c 0.977184,0.128649 1.812058,-0.542376 2.089843,-1.458985 z" fill="currentColor" opacity="0.6" paint-order="stroke fill markers" stroke-linecap="round" stroke-linejoin="round"/>
</svg>