<?xml version="1.0" encoding="utf-8"?>
<svg height="64" version="1.1" viewBox="0 0 64 64" width="64" xmlns="http://www.w3.org/2000/svg" xmlns:svg="http://www.w3.org/2000/svg" xmlns:xlink="http://www.w3.org/1999/xlink">
 <namedview bordercolor="#666666" borderopacity="1.0" id="namedview-conformist" pagecolor="#ffffff" pageopacity="0.0" pageshadow="0" showgrid="true">
  <grid class="ColorScheme-Background" empspacing="4" fill="currentColor" opacity="0.6" type="xygrid"/>
 </namedview>
 <defs id="primary-definitions">
  <style class="ColorScheme-Background" fill="currentColor" opacity="0.6" type="text/css">
   .ColorScheme-Text           { color:#eff0f1; }
      .ColorScheme-Background     { color:#31363b; }
      .ColorScheme-Highlight      { color:#3daefd; }
      .ColorScheme-ViewBackground { color:#fcfcfc; }
      .ColorScheme-PositiveText   { color:#27ae60; }
      .ColorScheme-NeutralText    { color:#f67400; }
      .ColorScheme-NegativeText   { color:#da4453; }
  </style>
 </defs>
 <g class="ColorScheme-Background" fill="currentColor" transform="matrix(1.9999725,0,0,1.9999725,8.8e-4,0)">
  <path class="ColorScheme-Background" d="M 31.998047 12.964844 C 26.297153 12.964219 20.743413 14.769093 16.130859 18.119141 C 6.6690648 24.99248 2.7065805 37.186709 6.3222656 48.308594 A 1.0001 1.0001 0 0 0 7.5820312 48.951172 L 14.175781 46.804688 A 1.0001 1.0001 0 0 0 14.818359 45.544922 C 14.246795 43.784986 13.933594 41.912818 13.933594 39.962891 C 13.933594 34.862653 15.209109 29.415942 18.083984 25.324219 C 20.95886 21.232491 25.35363 18.431641 31.998047 18.431641 C 37.153672 18.431641 40.934914 20.135108 43.732422 22.794922 A 1.0001 1.0001 0 0 0 45.203125 22.695312 L 47.839844 19.398438 A 1.0001 1.0001 0 0 0 47.638672 17.958984 C 43.071697 14.713762 37.605998 12.964229 31.998047 12.964844 z M 31.996094 13.964844 C 37.395986 13.964252 42.66038 15.648134 47.058594 18.773438 L 44.421875 22.070312 C 41.452784 19.24736 37.371986 17.433594 31.996094 17.433594 C 25.070661 17.433594 20.292688 20.441669 17.265625 24.75 C 14.230755 29.069441 12.933594 34.697884 12.933594 39.964844 C 12.933594 42.021849 13.26442 43.999454 13.867188 45.855469 L 7.2734375 48 C 3.7906148 37.286801 7.6045768 25.550503 16.71875 18.929688 C 21.160669 15.70357 26.506339 13.964242 31.996094 13.964844 z M 49.318359 19.654297 A 1.0001 1.0001 0 0 0 48.619141 20.025391 L 45.658203 23.728516 A 1.0001 1.0001 0 0 0 45.636719 24.949219 C 48.703463 29.082376 50.064453 34.704921 50.064453 39.962891 C 50.064453 40.095019 50.059573 40.226054 50.056641 40.357422 L 55.066406 41.017578 C 56.147769 41.159942 56.931422 42.180356 56.789062 43.261719 C 56.646698 44.343082 55.626285 45.126733 54.544922 44.984375 L 49.525391 44.324219 C 49.423475 44.736478 49.309828 45.1442 49.179688 45.544922 A 1.0001 1.0001 0 0 0 49.822266 46.804688 L 56.416016 48.951172 A 1.0001 1.0001 0 0 0 57.675781 48.308594 C 60.996414 38.094276 57.924664 26.980053 50.070312 19.908203 A 1.0001 1.0001 0 0 0 49.318359 19.654297 z M 32 38 A 1.9999725 1.9999725 0 0 0 30 40 A 1.9999725 1.9999725 0 0 0 32 42 A 1.9999725 1.9999725 0 0 0 33.585938 41.216797 L 54.671875 43.992188 C 55.221128 44.064498 55.722611 43.682065 55.794922 43.132812 C 55.867232 42.58356 55.482847 42.082076 54.933594 42.009766 L 33.849609 39.234375 A 1.9999725 1.9999725 0 0 0 32 38 z " fill="currentColor" opacity="0.6" paint-order="stroke fill markers" stop-color="#000000" stroke-dasharray="none" stroke-linecap="round" stroke-linejoin="round" stroke-miterlimit="4" stroke-opacity="1" transform="matrix(0.50000688,0,0,0.50000688,-4.4000605e-4,0)"/>
  <path class="ColorScheme-Background" d="M 31.998047 12.964844 C 26.297151 12.964219 20.743413 14.769092 16.130859 18.119141 C 6.6690651 24.99248 2.7065805 37.186709 6.3222656 48.308594 A 1.0001 1.0001 0 0 0 7.5820312 48.951172 L 14.175781 46.804688 A 1.0001 1.0001 0 0 0 14.818359 45.544922 C 14.246795 43.784986 13.933594 41.912818 13.933594 39.962891 C 13.933594 34.862653 15.209109 29.41594 18.083984 25.324219 C 20.95886 21.232491 25.353628 18.431641 31.998047 18.431641 C 37.153672 18.431641 40.934914 20.135108 43.732422 22.794922 A 1.0001 1.0001 0 0 0 45.203125 22.695312 L 47.839844 19.398438 A 1.0001 1.0001 0 0 0 47.638672 17.958984 C 43.071697 14.713762 37.605998 12.964229 31.998047 12.964844 z M 31.996094 13.964844 C 37.395986 13.964252 42.66038 15.648133 47.058594 18.773438 L 44.421875 22.070312 C 41.452784 19.24736 37.371986 17.433594 31.996094 17.433594 C 25.070659 17.433594 20.292688 20.441669 17.265625 24.75 C 14.230755 29.069441 12.933594 34.697884 12.933594 39.964844 C 12.933594 42.021849 13.26442 43.999454 13.867188 45.855469 L 7.2734375 48 C 3.7906148 37.286801 7.6045767 25.550502 16.71875 18.929688 C 21.160669 15.703569 26.506339 13.964242 31.996094 13.964844 z M 49.318359 19.654297 A 1.0001 1.0001 0 0 0 48.619141 20.025391 L 45.658203 23.728516 A 1.0001 1.0001 0 0 0 45.636719 24.949219 C 48.703463 29.082376 50.064453 34.704921 50.064453 39.962891 C 50.064453 40.095029 50.059641 40.226054 50.056641 40.357422 L 55.066406 41.017578 C 56.147769 41.159936 56.931423 42.180356 56.789062 43.261719 C 56.646704 44.343082 55.626285 45.126733 54.544922 44.984375 L 49.525391 44.324219 C 49.423472 44.736479 49.309828 45.144201 49.179688 45.544922 A 1.0001 1.0001 0 0 0 49.822266 46.804688 L 56.416016 48.951172 A 1.0001 1.0001 0 0 0 57.675781 48.308594 C 60.996446 38.094276 57.924667 26.980053 50.070312 19.908203 A 1.0001 1.0001 0 0 0 49.318359 19.654297 z M 49.359375 20.152344 C 49.497093 20.140944 49.631742 20.188731 49.734375 20.28125 C 57.443305 27.222163 60.45888 38.12958 57.199219 48.15625 C 57.11214 48.42454 56.838625 48.563577 56.570312 48.476562 L 49.976562 46.328125 C 49.708272 46.241046 49.569235 45.967531 49.65625 45.699219 C 49.744689 45.426926 49.816032 45.15096 49.890625 44.875 L 54.480469 45.480469 C 55.837604 45.659126 57.106523 44.685038 57.285156 43.328125 C 57.463814 41.970992 56.489726 40.702071 55.132812 40.523438 L 50.554688 39.921875 C 50.547288 34.589976 49.184467 28.891515 46.039062 24.652344 C 45.903044 24.469246 45.906257 24.22202 46.046875 24.042969 L 46.046875 24.039062 L 49.007812 20.339844 C 49.094031 20.232365 49.222039 20.163504 49.359375 20.152344 z M 32 38 A 1.9999725 1.9999725 0 0 0 30 40 A 1.9999725 1.9999725 0 0 0 32 42 A 1.9999725 1.9999725 0 0 0 33.585938 41.216797 L 54.671875 43.992188 C 55.221127 44.064487 55.722611 43.682065 55.794922 43.132812 C 55.867241 42.58356 55.482846 42.082077 54.933594 42.009766 L 33.849609 39.234375 A 1.9999725 1.9999725 0 0 0 32 38 z M 32 38.5 C 32.60859 38.4994 33.153748 38.863547 33.386719 39.425781 A 0.50004998 0.50004998 0 0 0 33.785156 39.730469 L 54.867188 42.507812 C 55.149772 42.545012 55.338023 42.783552 55.300781 43.066406 C 55.263602 43.348838 55.022307 43.533481 54.738281 43.496094 L 33.652344 40.722656 A 0.50004998 0.50004998 0 0 0 33.1875 40.914062 C 32.903602 41.284409 32.466638 41.499694 32 41.5 C 31.165649 41.500012 30.499988 40.834351 30.5 40 C 30.499988 39.165649 31.165649 38.499988 32 38.5 z " fill="currentColor" opacity="0.6" paint-order="stroke fill markers" stroke-linecap="round" stroke-linejoin="round" transform="matrix(0.50000688,0,0,0.50000688,-4.4000605e-4,0)"/>
 </g>
</svg>