<?xml version="1.0" encoding="utf-8"?>
<svg height="48" version="1.1" viewBox="0 0 48 48" width="48" xmlns="http://www.w3.org/2000/svg" xmlns:svg="http://www.w3.org/2000/svg" xmlns:xlink="http://www.w3.org/1999/xlink">
 <namedview bordercolor="#666666" borderopacity="1.0" id="namedview-conformist" pagecolor="#ffffff" pageopacity="0.0" pageshadow="0" showgrid="true">
  <grid class="ColorScheme-Background" empspacing="4" fill="currentColor" opacity="0.6" type="xygrid"/>
 </namedview>
 <defs id="primary-definitions">
  <style class="ColorScheme-Background" fill="currentColor" opacity="0.6" type="text/css">
   .ColorScheme-Text           { color:#eff0f1; }
      .ColorScheme-Background     { color:#31363b; }
      .ColorScheme-Highlight      { color:#3daefd; }
      .ColorScheme-ViewBackground { color:#fcfcfc; }
      .ColorScheme-PositiveText   { color:#27ae60; }
      .ColorScheme-NeutralText    { color:#f67400; }
      .ColorScheme-NegativeText   { color:#da4453; }
  </style>
 </defs>
 <path class="ColorScheme-Background" clip-rule="nonzero" color-interpolation="sRGB" color-interpolation-filters="linearRGB" color-rendering="auto" connector-curvature="0" d="M 26.383963,43.88668 C 24.237976,43.529248 21.161864,42.314131 19.256014,41.071014 15.070391,38.340896 12.3368,35.310024 10.645047,31.523669 10.083009,30.26575 9.7759074,29.289606 8.8974574,25.968886 8.6790304,25.143183 8.4072044,24.23386 8.2933814,23.948158 c -0.66194,-2.069012 0.220989,-5.845502 0.359612,-6.062837 0.223065,0.185582 0.46969,-0.389797 0.624988,-1.459726 0.169367,-1.907489 1.0478916,-3.317138 1.8611576,-4.568801 0.660691,-1.254219 1.064383,-1.651969 1.178569,-1.630168 0.11,0.02091 0.291556,-0.118185 0.48169,-0.369086 0.826866,-1.091312 4.72139,-4.311029 5.081784,-4.201261 0.09837,0.03 1.965762,-0.73519 1.965762,-0.567493 -1.06802,0.746618 2.084332,-0.727032 2.085895,-0.198498 0,0.12237 1.251845,-0.156114 1.251845,-0.260845 0,-0.134738 3.040657,0.05328 3.633968,0.14617 2.03646,0.530281 2.238225,-0.722155 2.942271,-0.118369 3.557321,0.541743 6.747625,2.912376 8.486106,5.227169 0.729354,0.95051 -0.176757,0.270519 -0.176757,0.270519 0,0 1.929815,3.434123 1.87874,3.581183 -0.022,0.06309 -0.359158,-0.356613 -0.749463,-0.932598 -0.390282,-0.575947 -1.878227,-2.375902 -1.974395,-2.257008 -0.06437,0.07965 -0.105308,1.025911 -0.0848,0.966909 0.109815,-0.315957 1.559256,2.152023 1.559256,2.152023 l -0.639461,-0.401468 c 0,0 0.82932,1.121494 0.835793,1.39905 0.01277,0.512454 0.317849,1.11784 0.4842,0.958198 0.560957,-0.456834 -0.04071,0.795187 0.338688,2.136623 0.403967,1.614772 -0.274713,-0.04228 -0.207831,0.504086 0.154551,0.421486 0.269937,1.052037 0.237845,1.299518 -0.05982,0.461818 -0.363479,-0.899178 -0.363479,-0.899178 0,0 -0.341232,3.093859 -0.307416,3.333031 0.06346,0.449944 0.01855,0.467381 -0.373322,0.145093 -0.15946,-0.131277 -0.145093,2.410874 -0.501586,1.78475 0,-0.356757 -0.141461,-0.229789 -0.573619,0.515001 -1.167097,2.0112 -3.013783,3.567674 -5.103858,4.301828 -1.232208,0.432834 -2.058674,0.593331 -3.44827,0.669661 l -1.251535,0.06872 c 0,0 1.409795,0.352703 2.130621,0.296877 0.944361,-0.07328 2.892141,-0.529879 2.961489,-0.464248 0.16346,0.156914 -1.288956,0.773846 -2.151151,0.913634 -1.46707,0.237861 -3.430886,-0.01928 -5.164423,-0.676026 -1.176169,-0.445633 -2.921541,-1.606239 -2.654077,-1.764863 0.05072,-0.03 0.382723,0.121647 0.737899,0.337212 0.453999,0.275465 0.645769,0.348012 0.645769,0.244245 -0.392499,-0.623618 1.088849,0.573462 2.476999,0.905153 0.786573,0.228319 0.481599,-0.04837 -0.573621,-0.520527 -3.336482,-1.492637 -4.72155,-2.985618 -5.411848,-5.833321 -1.061957,-3.236337 1.147082,-5.877533 2.088894,-6.670259 1.246172,-1.19588 2.5418,-1.692353 4.223698,-1.618476 0.813048,0.03582 1.160296,0.10437 1.83694,0.362922 0.767481,0.293319 1.733862,0.907342 1.437905,0.913651 -0.06965,0.0015 -0.37465,-0.09655 -0.677915,-0.217827 -0.460999,-0.184351 -0.75659,-0.22128 -1.802938,-0.225189 -1.469307,-0.0054 -2.18746,0.194552 -3.233135,0.900596 -1.48249,1.001 -2.306865,2.153968 -2.598821,3.634677 -0.195899,0.993563 -0.201899,1.268863 -0.04909,2.254409 0.206697,1.473102 0.313349,0.134677 0.405645,0.831804 0,0.351978 0.798064,1.779738 1.351539,2.417979 1.332175,1.536292 5.310498,3.457202 8.240498,1.899432 0.317102,-0.16946 1.873286,-1.092821 2.313683,-1.735625 0.244827,-0.357359 0.510983,-0.649734 0.591458,-0.649734 -0.391154,1.405369 1.799004,-2.151858 1.799004,-2.151858 0,0 -0.125815,-1.278302 0.177371,-1.583767 0.292047,-0.294156 0.318284,-0.381231 0.351939,-1.167625 0.03018,-0.703824 0.0091,-0.84994 -0.12,-0.85074 -0.120354,-6.84e-4 -0.171997,-0.186054 -0.223817,-0.801639 -0.06855,-0.814685 -0.759792,-3.556093 -0.920725,-3.651552 -0.04855,-0.02872 -0.183371,-0.292409 -0.29952,-0.585784 C 35.324015,13.233813 34.636426,12.281778 33.564334,11.244632 32.021696,9.752323 30.078481,8.599972 28.242923,8.08899 26.681557,7.654339 24.030207,7.812108 22.141701,8.452021 c -0.921687,0.312321 -2.153423,1.023237 -2.20706,0.991417 -0.05655,-0.03346 -0.769481,0.120554 -1.512708,0.774957 -0.449325,0.395631 -0.43887,0.676079 -0.553359,0.88154 -0.07346,0.131646 -0.455763,0.368359 -0.924416,0.572367 -2.5655,1.563082 -1.581348,1.460239 -1.581348,1.518963 0,0.285828 -0.270628,0.604949 -0.671496,0.791865 -0.888168,0.414088 -2.448389,2.625933 -3.284145,4.655823 -0.37245,0.90456 -0.366541,0.873142 -0.164007,0.873142 0.499987,-0.0634 -0.91045,1.572294 -0.05709,5.804991 0.566693,3.120076 0.89776,4.162332 1.527236,4.808155 0.147646,0.151462 0.291193,0.473764 0.355177,0.79752 0.07637,0.386577 0.204662,0.641714 0.444707,0.884522 0.218845,0.221373 0.291828,0.357141 0.207753,0.386561 -0.164914,0.05765 0.351431,0.796538 0.82254,1.176951 0.237008,0.191371 0.412651,0.2557 0.602913,0.22079 0.417014,-0.07655 0.841593,0.154006 1.493999,0.810993 0.677989,0.68277 0.745918,0.866323 0.297246,0.803138 -0.289391,-0.04072 -0.296009,-0.03328 -0.153646,0.17546 0.082,0.120001 0.384068,0.408379 0.67148,0.640934 0.403668,0.326666 0.507636,0.46798 0.456962,0.621204 -0.07291,0.220335 0.134908,0.425888 0.605167,0.598404 0.291556,0.106907 0.385505,0.337666 0.166006,0.407849 -0.06637,0.02128 0.344248,0.42687 0.91256,0.901397 0.640296,0.534619 1.071002,0.827649 1.132386,0.77041 0.162188,-0.151092 0.369996,-0.105092 0.373722,0.08272 0.0037,0.204952 0.188134,0.42027 0.85034,0.994618 0.41847,0.362941 0.522929,0.408615 0.77943,0.340811 0.234881,-0.06218 0.382595,-0.02218 0.713389,0.192353 0.659969,0.428144 1.060148,0.599041 1.402796,0.599041 0.337157,0 0.385159,0.09291 0.210099,0.406923 -0.09272,0.166188 -0.07291,0.193588 0.140185,0.193588 0.136369,0 0.520891,0.09 0.854341,0.200172 0.758172,0.250337 1.074438,0.267355 0.884414,0.04763 -0.280702,-0.324576 0.01637,-0.235882 1.019909,0.303812 1.401377,0.754153 2.110294,0.840302 4.900885,0.595602 0.413161,-0.03619 0.547547,-0.01461 0.547547,0.08619 0,0.08691 -0.358503,0.217426 -1.016872,0.370268 -0.865467,0.200917 -1.327411,0.239791 -3.102749,0.261082 -1.398941,0.01637 -2.35452,-0.01982 -2.901595,-0.110908 z M 21.828507,27.599077 c 0,-0.153462 0.03618,-0.279046 0.08037,-0.279046 0.150369,0 1.926398,1.779027 1.88756,1.890832 -0.02254,0.06472 -1.967929,-1.322485 -1.96793,-1.611786 z m 0.909306,-0.457108 c -0.551729,-0.535038 -0.728518,-0.822811 -0.505527,-0.822811 0.134,0 1.160623,1.128022 1.160623,1.275245 0,0.06928 -0.326996,-0.134261 -0.655044,-0.452383 z m 6.104493,-2.190206 c -0.291283,-0.112739 -0.109462,-0.321793 0.365031,-0.419489 0.272465,-0.05618 1.447544,-0.485453 1.4702,-0.463725 0.02272,0.02181 -0.561131,0.949071 -1.131242,0.941398 -0.315502,-0.0037 -0.632295,-0.03037 -0.703989,-0.05818 z m 3.128822,-2.238808 c -0.281519,-0.108554 -0.293175,-0.293375 -0.05818,-0.922688 0.20188,-0.540528 0.722995,-0.848864 0.7739,-0.818718 0.129092,0.07655 0.115277,0.867867 -0.02419,1.399887 -0.122,0.464727 -0.231645,0.518874 -0.691607,0.341449 z m 0.409725,-3.597203 c -0.162006,-0.210354 -0.21199,-0.376414 -0.166006,-0.552147 0.09437,-0.360886 0.341285,-0.309557 0.523436,0.108739 0.283374,0.650859 0.03746,0.955889 -0.357413,0.443324 z M 20.599354,4.68619 c 0.042,-0.120739 1.480635,-0.686189 1.746026,-0.686189 0.311794,0 -0.247518,0.366631 -0.892614,0.585112 -0.719263,0.243609 -0.910797,0.266283 -0.853412,0.101092 z" display="inline" enable-background="accumulate" fill="currentColor" fill-rule="nonzero" image-rendering="auto" isolation="auto" mix-blend-mode="normal" opacity="0.6" overflow="visible" shape-rendering="auto" solid-color="#000000" solid-opacity="1" stroke-dasharray="none" stroke-dashoffset="0" stroke-linecap="butt" stroke-linejoin="miter" stroke-miterlimit="4" stroke-opacity="1" text-rendering="auto" visibility="visible"/>
 <path class="ColorScheme-Background" d="m 22.345703,4 c -0.265391,0 -1.704094,0.5648079 -1.746094,0.6855469 -0.05739,0.165191 0.134253,0.1439996 0.853516,-0.099609 C 22.098221,4.3674565 22.657497,4 22.345703,4 Z m 7.056641,0.4902344 c -0.485753,-0.028953 -0.929361,0.7160095 -2.583985,0.2851562 -0.593311,-0.09289 -3.632812,-0.2812223 -3.632812,-0.1464844 0,0.1047311 -1.251953,0.3840888 -1.251953,0.2617188 -0.0016,-0.528534 -3.153958,0.9438836 -2.085938,0.1972656 0,-0.167697 -1.868427,0.5983594 -1.966797,0.5683594 -0.360394,-0.109768 -4.255165,3.1098599 -5.082031,4.2011719 -0.190134,0.2509011 -0.370469,0.3900511 -0.480469,0.3691401 -0.114186,-0.0218 -0.518996,0.376641 -1.179687,1.63086 -0.813266,1.251663 -1.6919613,2.66087 -1.8613282,4.568359 -0.1552981,1.069929 -0.401935,1.644567 -0.625,1.458985 -0.1386231,0.217335 -1.021315,3.993488 -0.359375,6.0625 0.113823,0.285702 0.3850886,1.195781 0.6035156,2.021484 0.87845,3.32072 1.1860086,4.296768 1.7480466,5.554688 1.691753,3.786355 4.425705,6.816757 8.611328,9.546874 1.90585,1.243118 4.98292,2.458975 7.128907,2.816407 v -0.002 c 0.547075,0.09109 1.501449,0.127698 2.90039,0.111328 1.775338,-0.02129 2.238049,-0.0608 3.103516,-0.261719 0.658369,-0.152842 1.017578,-0.282231 1.017578,-0.369141 0,-0.1008 -0.135667,-0.122127 -0.548828,-0.08594 -2.790591,0.2447 -3.499014,0.15845 -4.900391,-0.595703 C 26.953492,42.1439 26.656798,42.05433 26.9375,42.378906 c 0.190024,0.219725 -0.126594,0.203462 -0.884766,-0.04687 -0.33345,-0.110172 -0.717146,-0.201172 -0.853515,-0.201172 -0.213095,0 -0.233345,-0.02717 -0.140625,-0.193359 0.17506,-0.314013 0.126219,-0.40625 -0.210938,-0.40625 -0.342648,0 -0.742374,-0.171465 -1.402344,-0.599609 -0.330793,-0.214533 -0.478009,-0.253587 -0.71289,-0.191407 -0.256501,0.0678 -0.360827,0.02114 -0.779297,-0.341796 -0.662206,-0.574349 -0.847863,-0.789189 -0.851563,-0.994141 -0.0037,-0.187812 -0.210858,-0.233123 -0.373046,-0.08203 -0.06138,0.05724 -0.492517,-0.236866 -1.132813,-0.771485 -0.568312,-0.474527 -0.978479,-0.87911 -0.912109,-0.90039 0.219499,-0.07018 0.12554,-0.301297 -0.166016,-0.408203 -0.01579,-0.0058 -0.02582,-0.01171 -0.04102,-0.01758 -0.04431,0.04692 -0.08168,0.111124 -0.130859,0.173829 0.0064,-0.02282 -0.0075,-0.03892 0.0039,-0.06055 0.03151,-0.05971 0.07119,-0.0972 0.107422,-0.123047 -0.42177,-0.166986 -0.614186,-0.362948 -0.544922,-0.572266 0.05067,-0.153224 -0.05336,-0.294428 -0.457031,-0.621094 -0.287412,-0.232555 -0.589875,-0.520624 -0.671875,-0.640625 -0.142363,-0.20874 -0.135094,-0.216501 0.154297,-0.175781 0.448672,0.06318 0.381114,-0.119964 -0.296875,-0.802734 -0.652406,-0.656987 -1.077127,-0.887097 -1.494141,-0.810547 -0.190262,0.03491 -0.366507,-0.02933 -0.603515,-0.220703 -0.235555,-0.190207 -0.481077,-0.469505 -0.648438,-0.708985 -0.16736,-0.23948 -0.256285,-0.439925 -0.173828,-0.46875 0.08408,-0.02942 0.01181,-0.165345 -0.207031,-0.386718 -0.240045,-0.242808 -0.368943,-0.498189 -0.445313,-0.884766 -0.06398,-0.323756 -0.207822,-0.645413 -0.355468,-0.796875 -0.629476,-0.645823 -0.960651,-1.688518 -1.527344,-4.808594 -0.85336,-4.232697 0.556628,-5.868087 0.05664,-5.804687 -0.164518,0 -0.186506,-0.0073 0.0059,-0.484375 -0.02478,-0.0064 -0.05196,-0.0138 -0.06836,-0.01172 l 0.0625,-0.0039 c -0.0059,0 0.01176,0.0034 0.0098,0.0039 0.04384,-0.108515 0.08644,-0.212153 0.154297,-0.376953 0.835756,-2.02989 2.396988,-4.242162 3.285156,-4.65625 0.400868,-0.186916 0.671875,-0.505188 0.671875,-0.791016 0,-0.05872 -0.985422,0.04355 1.580078,-1.519531 0.468653,-0.204008 0.852322,-0.44062 0.925782,-0.572266 0.114489,-0.205461 0.103409,-0.485228 0.552734,-0.880859 0.743227,-0.654403 1.457122,-0.8088506 1.513672,-0.7753906 0.05364,0.03182 1.285344,-0.6798665 2.207031,-0.9921875 1.888506,-0.639913 4.538244,-0.7959792 6.09961,-0.3613281 1.835557,0.510982 3.779627,1.6619878 5.322265,3.1542972 1.072092,1.037146 1.76033,1.990396 2.152344,2.980468 0.116149,0.293375 0.250278,0.557218 0.298828,0.585938 0.160933,0.09546 0.851372,2.835705 0.919922,3.650391 0.05182,0.615585 0.104255,0.80205 0.224609,0.802734 0.1291,8e-4 0.149321,0.145785 0.119141,0.849609 -0.03366,0.786394 -0.05952,0.873813 -0.351563,1.167969 C 36.624548,21.586715 36.75,22.865234 36.75,22.865234 c 0,0 -2.189982,3.557713 -1.798828,2.152344 -0.08047,0 -0.34697,0.291079 -0.591797,0.648438 -0.440397,0.642804 -1.995398,1.566868 -2.3125,1.736328 -2.93,1.55777 -6.908059,-0.364099 -8.240234,-1.900391 -0.553475,-0.638241 -1.351563,-2.065991 -1.351563,-2.417969 -0.0923,-0.697127 -0.199553,0.643024 -0.40625,-0.830078 -0.152809,-0.985546 -0.147071,-1.262296 0.04883,-2.255859 0.291956,-1.480709 1.11712,-2.633766 2.59961,-3.634766 1.045675,-0.706044 1.763114,-0.90579 3.232422,-0.90039 1.046347,0.0039 1.341735,0.04221 1.802734,0.226562 0.303265,0.121277 0.608084,0.218297 0.677734,0.216797 0.295957,-0.0063 -0.670019,-0.620743 -1.4375,-0.914062 -0.676644,-0.258553 -1.022889,-0.327462 -1.835937,-0.363282 -1.681898,-0.07388 -2.978438,0.423261 -4.22461,1.619141 -0.941812,0.792726 -3.149847,3.433585 -2.08789,6.669922 0.690298,2.847703 2.073674,4.341347 5.410156,5.833984 1.05522,0.472157 1.360792,0.74785 0.574219,0.519531 -1.38815,-0.331691 -2.869062,-1.527915 -2.476563,-0.904296 0,0.103767 -0.192485,0.03132 -0.646484,-0.244141 -0.355176,-0.215565 -0.687561,-0.367891 -0.738281,-0.337891 -0.267464,0.158624 1.478127,1.319992 2.654296,1.765625 1.733537,0.656746 3.698946,0.913642 5.166016,0.675781 0.862195,-0.139787 2.313851,-0.757148 2.150391,-0.914062 -0.06935,-0.06563 -2.016577,0.391564 -2.960938,0.464844 -0.720826,0.05583 -2.130859,-0.296875 -2.130859,-0.296875 l 1.251953,-0.06836 c 1.389596,-0.07633 2.215058,-0.237088 3.447266,-0.669921 2.090075,-0.734155 3.936418,-2.291535 5.103515,-4.302735 0.432158,-0.74479 0.574219,-0.870429 0.574219,-0.513672 0.356493,0.626124 0.342493,-1.916433 0.501953,-1.785156 0.391872,0.322288 0.436507,0.305413 0.373047,-0.144531 -0.03382,-0.239172 0.306641,-3.333985 0.306641,-3.333985 0,0 0.303461,1.360256 0.363281,0.898438 0.03209,-0.247481 -0.08178,-0.877342 -0.236328,-1.298828 -0.06688,-0.546366 0.610998,1.110865 0.207031,-0.503907 -0.379398,-1.341436 0.223066,-2.593552 -0.337891,-2.136718 -0.166351,0.159642 -0.471605,-0.446531 -0.484375,-0.958985 -0.0065,-0.277556 -0.835937,-1.398437 -0.835937,-1.398437 l 0.638672,0.402344 c 0,0 -1.448779,-2.468301 -1.558594,-2.152344 -0.02051,0.059 0.01961,-0.887147 0.08398,-0.966797 0.09617,-0.118894 1.584328,1.679912 1.97461,2.255859 0.390305,0.575985 0.728,0.996684 0.75,0.933594 0.05107,-0.14706 -1.878907,-3.582031 -1.878907,-3.582031 0,0 0.905136,0.680979 0.175782,-0.2695314 C 36.507613,7.5699726 33.31904,5.1999461 29.761719,4.6582031 29.62971,4.5449933 29.514441,4.4969158 29.402344,4.4902344 Z M 29.375,4.9785156 c 2.31e-4,0.00175 0.0094,0.014765 0.06055,0.058594 l 0.109375,0.09375 0.140625,0.021484 c 3.386677,0.5157557 6.501583,2.8222065 8.162109,5.0332032 l 0.002,0.002 v 0.002 c 0.0088,0.01145 0.0016,0.0025 0.0098,0.01367 l -0.111328,0.09766 c -0.03956,-0.03653 -0.07887,-0.07885 -0.121094,-0.111328 -0.04311,-0.03316 -0.08364,-0.06701 -0.175781,-0.105469 -0.04607,-0.01923 -0.107331,-0.04422 -0.21875,-0.04297 -0.11142,0.0013 -0.295428,0.06647 -0.396484,0.191406 -0.152012,0.188095 -0.110584,0.217923 -0.123047,0.27539 -0.01246,0.05747 -0.01997,0.10989 -0.02734,0.167969 -0.01475,0.116159 -0.02491,0.246916 -0.0332,0.373047 -0.0083,0.126131 -0.01342,0.246278 -0.01563,0.337891 -0.0011,0.04581 -0.0015,0.08128 0,0.123047 7.35e-4,0.02088 -0.0072,0.02276 0.01172,0.109375 0.0047,0.02165 0.03688,0.110841 0.03711,0.111328 1.16e-4,2.43e-4 0.08972,0.128776 0.08984,0.128906 6.1e-5,6.5e-5 0.113217,0.08981 0.113281,0.08984 3.7e-5,2.1e-5 0.05877,0.01897 0.113281,0.03711 0.01927,0.02035 0.01403,0.014 0.03906,0.04492 0.128098,0.158246 0.318272,0.43084 0.501953,0.712891 0.176542,0.271089 0.213909,0.34478 0.347656,0.564453 l -0.232422,0.251953 c 0,0 0.201228,0.272739 0.400391,0.574219 0.09958,0.150739 0.198563,0.308724 0.265625,0.43164 0.06594,0.120858 0.07575,0.267371 0.07227,0.109375 0.0087,0.350454 0.10189,0.673163 0.238282,0.94336 0.0682,0.135098 0.136606,0.25885 0.287109,0.380859 0.04451,0.03608 0.13159,0.05699 0.203125,0.08594 -0.0311,0.395907 -0.05294,1.004979 0.105469,1.675781 -0.01333,0.0093 -0.03332,0.0053 -0.04492,0.01563 -0.194357,0.17324 -0.173038,0.301431 -0.177735,0.373047 -0.0047,0.07162 0.0015,0.119983 0.0078,0.171875 l 0.0059,0.05859 0.01953,0.05273 c 0.01623,0.04427 0.02711,0.110145 0.04297,0.162109 l -0.195312,0.01172 c 0,0 -0.08659,0.77571 -0.167969,1.582031 -0.04069,0.403161 -0.07975,0.813743 -0.107422,1.142578 -0.01033,0.122748 -0.01699,0.219925 -0.02344,0.316407 -0.168207,0.03512 -0.261801,0.131155 -0.308594,0.191406 -0.09428,0.121394 -0.09598,0.175531 -0.111328,0.230468 -0.03069,0.109878 -0.04214,0.204047 -0.05664,0.31836 -0.029,0.228625 -0.05266,0.51256 -0.08203,0.773437 -0.0049,0.04319 -0.01,0.05179 -0.01563,0.09375 -0.142002,0.03549 -0.21933,0.09576 -0.271484,0.142579 -0.226441,0.203289 -0.325101,0.408805 -0.546875,0.791015 -1.108384,1.910023 -2.869415,3.388637 -4.837891,4.080078 -1.202714,0.422474 -1.946484,0.567758 -3.308594,0.642578 l -1.251953,0.06836 -0.05664,0.591797 c -0.0354,-0.0066 -0.07003,-0.01846 -0.105469,-0.02539 0.03727,-0.05646 0.09911,-0.07163 0.109375,-0.140625 0.02966,-0.199297 -0.0454,-0.313414 -0.08789,-0.376953 -0.04249,-0.06354 -0.07695,-0.09558 -0.109375,-0.125 -0.129704,-0.117691 -0.251631,-0.182272 -0.43164,-0.279297 -0.180009,-0.09702 -0.405508,-0.20827 -0.677735,-0.330078 -3.270115,-1.462947 -4.46721,-2.756374 -5.130859,-5.494141 l -0.0039,-0.01953 -0.0059,-0.01953 c -0.486394,-1.482297 -0.227024,-2.804746 0.271484,-3.884766 0.49851,-1.08002 1.255115,-1.901881 1.664063,-2.246094 l 0.01172,-0.0098 0.01172,-0.01172 c 0.773769,-0.742541 1.573326,-1.089815 2.445313,-1.28125 -0.43017,0.154612 -0.844368,0.323472 -1.285156,0.621094 -1.558815,1.052535 -2.493564,2.345487 -2.810547,3.953125 -0.198275,1.005614 -0.206459,1.42544 -0.05273,2.419922 0.05394,0.384452 0.08627,0.585055 0.173828,0.785156 0.03813,0.08713 0.131891,0.213588 0.316406,0.302734 0.03164,0.09392 0.03863,0.203536 0.08398,0.308594 0.09334,0.216194 0.216733,0.459238 0.357422,0.710938 0.281379,0.503399 0.621696,1.031716 0.941406,1.40039 0.759907,0.87634 2.137413,1.755573 3.75,2.259766 1.612588,0.504192 3.480478,0.616814 5.103516,-0.246094 h 0.002 c 0.191628,-0.102406 0.653776,-0.375453 1.15625,-0.720703 0.502475,-0.34525 1.021678,-0.717984 1.333985,-1.173828 0.03214,-0.04692 0.05939,-0.07343 0.0918,-0.117188 0.121316,0.01718 0.222298,-0.0014 0.285157,-0.02539 0.138609,-0.05288 0.19205,-0.10797 0.251953,-0.16211 0.239611,-0.21656 0.45693,-0.524307 0.71289,-0.890625 0.511922,-0.732635 1.060547,-1.626953 1.060547,-1.626953 l 0.08984,-0.142578 -0.01758,-0.167969 c 0,0 -0.0273,-0.296035 -0.02148,-0.61914 0.0029,-0.161553 0.01473,-0.329134 0.03711,-0.447266 0.02238,-0.118132 0.07874,-0.176845 0.01953,-0.117188 0.158129,-0.159269 0.320625,-0.355736 0.396485,-0.607421 0.07586,-0.251685 0.08258,-0.492671 0.09961,-0.890625 0.01537,-0.35837 0.02561,-0.570696 -0.0039,-0.779297 -0.01476,-0.104301 -0.0337,-0.226812 -0.146485,-0.369141 -0.03135,-0.03956 -0.08453,-0.03286 -0.128906,-0.0625 -0.01515,-0.06438 -0.04294,-0.225164 -0.06641,-0.503906 -0.04212,-0.500573 -0.232724,-1.36365 -0.4375,-2.175781 -0.102389,-0.406066 -0.207723,-0.790167 -0.300782,-1.087891 -0.04653,-0.148862 -0.08964,-0.275397 -0.132812,-0.382812 -0.02159,-0.05371 -0.04274,-0.10211 -0.07227,-0.15625 -0.01907,-0.03497 -0.04685,-0.08172 -0.103515,-0.138672 -0.02806,-0.0282 -0.04735,-0.05465 -0.107422,-0.0918 0.06245,0.03928 0.0849,0.05988 0.09766,0.07422 -0.0099,-0.01621 -0.02302,-0.03707 -0.04102,-0.07227 -0.0447,-0.08743 -0.101723,-0.216816 -0.154297,-0.34961 -0.425421,-1.074243 -1.164328,-2.085118 -2.269532,-3.154296 -1.600998,-1.5487664 -3.600331,-2.7387283 -5.535156,-3.2773441 -1.73236,-0.4822522 -4.39692,-0.3064508 -6.396484,0.3710937 -0.505936,0.1714406 -1.054415,0.4346433 -1.490235,0.6503906 -0.21791,0.1078736 -0.406742,0.2039658 -0.537109,0.2675782 -0.04507,0.021989 -0.06877,0.032689 -0.0957,0.044922 -0.005,3.741e-4 -0.01269,-4.241e-4 -0.01758,0 -0.06083,0.00528 -0.113873,0.015447 -0.173828,0.029297 -0.119911,0.027699 -0.259158,0.072708 -0.421875,0.140625 -0.325434,0.1358346 -0.73582,0.3656774 -1.152344,0.7324219 -0.472391,0.41594 -0.60737,0.839477 -0.644531,0.960938 -0.02435,0.0223 -0.08031,0.08187 -0.15625,0.128906 -0.136322,0.08441 -0.331819,0.185681 -0.546875,0.279297 l -0.03125,0.01367 -0.0293,0.01953 c -0.651424,0.396893 -1.082417,0.690329 -1.376953,0.921875 -0.294537,0.231545 -0.463869,0.366509 -0.576172,0.632812 -0.05323,0.126225 -0.0621,0.330262 0.01172,0.498047 -0.0493,0.06969 -0.06951,0.140844 -0.261719,0.230469 -0.65147,0.303733 -1.231558,0.996687 -1.859375,1.886719 -0.627817,0.890031 -1.240543,1.976091 -1.675782,3.033203 -0.185803,0.451256 -0.279758,0.615543 -0.328124,0.873047 -0.01209,0.06438 -0.0268,0.147328 0.0078,0.279296 0.02154,0.08208 0.108176,0.145617 0.179688,0.21875 -0.04929,0.191369 -0.128939,0.461063 -0.212891,0.886719 -0.193119,0.979157 -0.335318,2.524383 0.101562,4.699219 6.59e-4,0.0036 0.0013,0.0042 0.002,0.0078 v 0.002 c 0.283503,1.55983 0.509025,2.613816 0.753907,3.384765 0.245584,0.773164 0.528255,1.286017 0.90625,1.673828 0.01324,0.01358 0.174012,0.298787 0.222656,0.544922 0.0889,0.449989 0.279537,0.834672 0.580078,1.138672 0.0276,0.02792 0.01936,0.022 0.03906,0.04492 -4.86e-4,0.0078 -0.0076,0.02007 -0.0078,0.02734 -0.0041,0.145576 0.02908,0.225296 0.05859,0.300781 0.05903,0.15097 0.138905,0.276611 0.236328,0.416016 0.194846,0.278808 0.454947,0.57898 0.744141,0.8125 0.288338,0.232817 0.656583,0.388663 1.007812,0.324218 0.09119,-0.01674 0.161694,-0.01329 0.330078,0.07813 0.168384,0.09141 0.410155,0.282988 0.71875,0.59375 0.03765,0.03792 0.05062,0.05545 0.08398,0.08984 -0.01736,0.01531 -0.0298,0.0059 -0.04687,0.02539 -0.115472,0.131781 -0.137983,0.325513 -0.123047,0.425781 0.01494,0.100268 0.04234,0.149587 0.0625,0.189453 0.04033,0.07973 0.07199,0.120964 0.109375,0.175781 v 0.002 c 0.09709,0.142089 0.193654,0.230927 0.326172,0.357422 0.132517,0.126496 0.287676,0.262703 0.443359,0.388672 0.167549,0.135589 0.241031,0.21174 0.273437,0.248047 -0.01237,0.24719 0.09417,0.507969 0.246094,0.658203 0.142968,0.141381 0.330735,0.218317 0.521485,0.300782 -0.0105,0.134084 0.01957,0.208154 0.03906,0.253906 0.04166,0.0978 0.07158,0.12926 0.103516,0.169922 0.06388,0.08132 0.135986,0.154673 0.226562,0.24414 0.181152,0.178935 0.432133,0.40618 0.72461,0.650391 0.327987,0.273855 0.603015,0.487553 0.822265,0.636719 0.109626,0.07458 0.201724,0.131227 0.304688,0.179687 0.05148,0.02423 0.103748,0.04944 0.193359,0.06641 0.03096,0.0059 0.11283,-0.04494 0.164063,-0.04492 0.0523,0.105155 0.06362,0.224416 0.140625,0.314453 0.164776,0.192669 0.3875,0.39707 0.724609,0.689453 0.216949,0.18816 0.363235,0.318147 0.578125,0.412109 0.21489,0.09396 0.484968,0.07848 0.65625,0.0332 0.06673,-0.01767 0.04225,-0.01329 0.0625,-0.0078 0.02025,0.0055 0.10316,0.04022 0.251953,0.136718 0.558262,0.362164 0.949651,0.482246 1.361328,0.552735 -0.02819,0.09897 -0.05628,0.306074 0.07422,0.486328 0.133655,0.184607 0.294834,0.211934 0.380859,0.226563 0.08603,0.01463 0.144996,0.01367 0.208985,0.01367 -0.04181,0 0.09932,0.01433 0.238281,0.04687 0.138961,0.03255 0.308111,0.07906 0.458984,0.128907 0.395538,0.1306 0.661829,0.210292 0.927735,0.224609 0.06648,0.0036 0.135569,0.0053 0.232422,-0.01758 0.04732,-0.01117 0.111872,-0.09037 0.175781,-0.128906 0.158577,0.07451 0.219852,0.09392 0.488281,0.238281 0.351589,0.189208 0.69205,0.233317 1.021485,0.353515 -0.986517,-0.0041 -1.890946,-0.01997 -2.275391,-0.08398 -2.041215,-0.339981 -5.112975,-1.550163 -6.9375,-2.740234 -4.127266,-2.692115 -6.777278,-5.638101 -8.427735,-9.332032 -0.55041,-1.231893 -0.843426,-2.162231 -1.7207026,-5.478515 -0.2214448,-0.837111 -0.4755183,-1.70782 -0.6230469,-2.078125 l 0.011719,0.03125 C 8.4851245,22.905958 8.518926,21.48085 8.6699219,20.285156 c 0.075498,-0.597847 0.1750541,-1.142988 0.2636719,-1.544922 0.039433,-0.178851 0.074878,-0.315536 0.1054687,-0.427734 0.026289,-0.01553 0.070529,-0.01655 0.091797,-0.0332 0.1817053,-0.142265 0.2493403,-0.29132 0.3203125,-0.457031 0.1419443,-0.331422 0.2410423,-0.764629 0.3222656,-1.324219 l 0.00195,-0.01367 v -0.01367 c 0.1578145,-1.777379 0.9737534,-3.096006 1.7832034,-4.341797 l 0.01172,-0.01953 0.01172,-0.01953 c 0.320932,-0.60924 0.576538,-1.001437 0.746094,-1.21875 0.06928,-0.08879 0.11058,-0.127661 0.140625,-0.15625 0.157025,-0.02569 0.270712,-0.102902 0.363281,-0.173828 0.135797,-0.104048 0.250761,-0.2298 0.365235,-0.38086 0.328179,-0.4331363 1.528544,-1.5525893 2.636718,-2.4687498 0.554088,-0.4580801 1.093839,-0.8782725 1.50586,-1.1699218 0.20601,-0.1458247 0.383004,-0.2599471 0.498047,-0.3242188 0.03793,-0.021193 0.0512,-0.027999 0.07031,-0.037109 0.05675,-5.641e-4 0.08603,-0.012386 0.111328,-0.017578 0.04287,-0.0088 0.07762,-0.018272 0.115235,-0.029297 0.07523,-0.02205 0.160202,-0.05045 0.257812,-0.083984 0.195221,-0.067069 0.436095,-0.1543539 0.671875,-0.2363281 0.127183,-0.044218 0.221102,-0.07106 0.333985,-0.1074219 0.04566,0.023821 0.09387,0.095904 0.125,0.1035156 0.174614,0.042693 0.220878,0.012633 0.283203,0.00195 0.249297,-0.042708 0.509987,-0.1407145 0.833984,-0.2441406 0.323997,-0.1034261 0.678919,-0.2090947 0.908203,-0.2519531 0.08017,-0.014986 0.100998,-0.013978 0.126953,-0.015625 0.01939,0.014892 0.02869,0.065976 0.04492,0.074219 0.101898,0.051753 0.159349,0.056857 0.208985,0.0625 0.09927,0.011287 0.167832,0.0049 0.24414,-0.00195 0.152616,-0.013701 0.319631,-0.043328 0.490234,-0.080078 0.170605,-0.03675 0.33812,-0.079094 0.482422,-0.1269532 0.07215,-0.02393 0.136254,-0.047976 0.210938,-0.085937 0.01294,-0.00658 0.03263,-0.023231 0.04687,-0.03125 0.06072,-0.00396 0.143757,-0.00787 0.263672,-0.00781 0.278933,1.238e-4 0.673697,0.014516 1.085937,0.035156 0.82448,0.04128 1.769651,0.1181145 1.988282,0.1523437 1.087083,0.2709485 1.820208,0.063492 2.248046,-0.1230468 0.217221,-0.094709 0.356022,-0.1541853 0.38086,-0.1582032 0.01242,-0.00201 0.0037,-0.011518 0.0039,-0.00977 z m 7.001953,9.4824224 c 0.0024,0.0039 0.0083,0.01525 0.0098,0.01758 0.0038,0.006 0.0056,-3.14e-4 -0.0098,-0.01758 z M 19.96875,8.9472656 c 0.0074,4.05e-4 0.0091,-8.406e-4 0.01758,0 0.0032,3.115e-4 0.0073,0.00129 0.01172,0.00195 -0.0089,-4.21e-5 -0.02122,-0.00175 -0.0293,-0.00195 z m -7.732422,1.7675784 c 0.06315,0.01068 0.117397,0.0091 0.169922,0.0059 -0.04069,0.0051 -0.09191,0.0064 -0.169922,-0.0059 z m 24.810547,0.318359 c -0.04335,0.01079 -0.08177,0.01758 -0.123047,0.03906 0.03185,-0.01613 0.06448,-0.03321 0.06445,-0.0332 -1.9e-5,5e-6 0.03483,-0.0036 0.05859,-0.0059 z m -0.228516,0.107422 c -0.071,0.07033 -0.129184,0.147971 -0.15039,0.208984 0.0036,-0.01025 0.01577,-0.04135 0.01563,-0.04101 -1.53e-4,3.39e-4 0.03921,-0.07053 0.03906,-0.07031 -1.14e-4,1.72e-4 0.06365,-0.06409 0.0957,-0.09766 z m -4.375,7.185547 c -0.09629,-0.02001 -0.18133,0.05784 -0.228515,0.238281 -0.04598,0.175733 0.004,0.340427 0.166015,0.550781 0.394873,0.512565 0.640796,0.2075 0.357422,-0.443359 -0.09108,-0.209148 -0.198628,-0.325695 -0.294922,-0.345703 z m 4.783203,0.466797 c 0.09004,0.02303 0.197348,0.0622 0.238282,0.111328 0.0054,0.0065 -3.13e-4,2.7e-4 0.0039,0.0059 -0.08662,-0.05101 -0.164119,-0.105785 -0.242188,-0.117187 z M 32.6875,20.970703 c -0.05091,-0.03015 -0.573511,0.279785 -0.775391,0.820313 -0.234995,0.629313 -0.222925,0.813321 0.05859,0.921875 0.459962,0.177425 0.569406,0.12293 0.691406,-0.341797 0.139467,-0.53202 0.154483,-1.323841 0.02539,-1.400391 z m -10.732422,2.113281 c 0,0.0052 0.0038,0.0066 0.0039,0.01172 -2.67e-4,-7.9e-4 -0.0037,-0.0032 -0.0039,-0.0039 z m 8.722656,0.984375 c -0.02266,-0.02173 -1.198238,0.408664 -1.470703,0.464844 -0.474493,0.0977 -0.656517,0.30523 -0.365234,0.417969 0.07169,0.02781 0.389576,0.05489 0.705078,0.05859 0.570111,0.0077 1.153579,-0.919597 1.130859,-0.941407 z m -8.445312,2.25 c -0.222991,0 -0.04587,0.289181 0.505859,0.824219 0.328048,0.318122 0.654297,0.520452 0.654297,0.451172 0,-0.147223 -1.026156,-1.275391 -1.160156,-1.275391 z m -0.324219,1.001953 c -0.04419,10e-7 -0.08008,0.125835 -0.08008,0.279297 1e-6,0.289301 1.94621,1.676049 1.96875,1.611329 0.03884,-0.111806 -1.738303,-1.890626 -1.888672,-1.890626 z" fill="currentColor" opacity="0.6"/>
</svg>