<?xml version="1.0" encoding="utf-8"?>
<svg height="128" version="1.1" viewBox="0 0 128 128" width="128" xmlns="http://www.w3.org/2000/svg" xmlns:svg="http://www.w3.org/2000/svg" xmlns:xlink="http://www.w3.org/1999/xlink">
 <namedview bordercolor="#666666" borderopacity="1.0" id="namedview-conformist" pagecolor="#ffffff" pageopacity="0.0" pageshadow="0" showgrid="true">
  <grid class="ColorScheme-Background" empspacing="4" fill="currentColor" opacity="0.6" type="xygrid"/>
 </namedview>
 <defs id="primary-definitions">
  <style class="ColorScheme-Background" fill="currentColor" opacity="0.6" type="text/css">
   .ColorScheme-Text           { color:#eff0f1; }
      .ColorScheme-Background     { color:#31363b; }
      .ColorScheme-Highlight      { color:#3daefd; }
      .ColorScheme-ViewBackground { color:#fcfcfc; }
      .ColorScheme-PositiveText   { color:#27ae60; }
      .ColorScheme-NeutralText    { color:#f67400; }
      .ColorScheme-NegativeText   { color:#da4453; }
  </style>
 </defs>
 <path class="ColorScheme-Background" d="M 64 8 C 46.326888 8 32 22.326888 32 40 L 32 44 A 4 4 0 0 0 36 48 A 4 4 0 0 0 40 44 L 40 40 C 40 26.745166 50.745168 16 64 16 C 77.254832 16 88 26.745166 88 40 L 88 64 L 26 64 C 24.892 64 24 64.892 24 66 L 24 118 C 24 119.108 24.892 120 26 120 L 102 120 C 103.108 120 104 119.108 104 118 L 104 66 C 104 64.892 103.108 64 102 64 L 96 64 L 96 40 C 96 22.326888 81.673112 8 64 8 z M 64 9 A 30.999997 30.999997 0 0 1 95 40 L 95 64 L 89 64 L 89 40 A 24.999997 24.999997 0 0 0 64 15 A 24.999997 24.999997 0 0 0 39 40 L 39 44 A 3 3 0 0 1 36 47 A 3 3 0 0 1 33 44 L 33 40 A 30.999997 30.999997 0 0 1 64 9 z M 26 65 L 102 65 C 102.554 65 103 65.446 103 66 L 103 118 C 103 118.554 102.554 119 102 119 L 26 119 C 25.446 119 25 118.554 25 118 L 25 66 C 25 65.446 25.446 65 26 65 z " fill="currentColor" opacity="0.6" paint-order="fill markers stroke" stop-color="#000000" stroke-linecap="round" stroke-linejoin="round"/>
 <path class="ColorScheme-Background" d="M 64,8 C 46.326888,8 32,22.326888 32,40 v 4 a 4,4 0 0 0 4,4 4,4 0 0 0 4,-4 V 40 C 40,26.745166 50.745168,16 64,16 77.254832,16 88,26.745166 88,40 V 64 H 26 c -1.108,0 -2,0.892 -2,2 v 52 c 0,1.108 0.892,2 2,2 h 76 c 1.108,0 2,-0.892 2,-2 V 66 c 0,-1.108 -0.892,-2 -2,-2 H 96 V 40 C 96,22.326888 81.673112,8 64,8 Z m 0,1 A 30.999997,30.999997 0 0 1 95,40 V 64 H 89 V 40 A 24.999997,24.999997 0 0 0 64,15 24.999997,24.999997 0 0 0 39,40 v 4 a 3,3 0 0 1 -3,3 3,3 0 0 1 -3,-3 V 40 A 30.999997,30.999997 0 0 1 64,9 Z M 26,65 h 76 c 0.554,0 1,0.446 1,1 v 52 c 0,0.554 -0.446,1 -1,1 H 26 c -0.554,0 -1,-0.446 -1,-1 V 66 c 0,-0.554 0.446,-1 1,-1 z" fill="currentColor" opacity="0.6" paint-order="fill markers stroke" stop-color="#000000" stroke-linecap="round" stroke-linejoin="round"/>
</svg>