<?xml version="1.0" encoding="utf-8"?>
<svg height="24" version="1.1" viewBox="0 0 24 24" width="24" xmlns="http://www.w3.org/2000/svg" xmlns:svg="http://www.w3.org/2000/svg" xmlns:xlink="http://www.w3.org/1999/xlink">
 <namedview bordercolor="#666666" borderopacity="1.0" id="namedview-conformist" pagecolor="#ffffff" pageopacity="0.0" pageshadow="0" showgrid="true">
  <grid class="ColorScheme-Background" empspacing="4" fill="currentColor" opacity="0.6" type="xygrid"/>
 </namedview>
 <defs id="primary-definitions">
  <style class="ColorScheme-Background" fill="currentColor" opacity="0.6" type="text/css">
   .ColorScheme-Text           { color:#eff0f1; }
      .ColorScheme-Background     { color:#31363b; }
      .ColorScheme-Highlight      { color:#3daefd; }
      .ColorScheme-ViewBackground { color:#fcfcfc; }
      .ColorScheme-PositiveText   { color:#27ae60; }
      .ColorScheme-NeutralText    { color:#f67400; }
      .ColorScheme-NegativeText   { color:#da4453; }
  </style>
 </defs>
 <path class="ColorScheme-Background" d="M 5 9 A 3 3 0 0 0 2 12 A 3 3 0 0 0 5 15 A 3 3 0 0 0 8 12 A 3 3 0 0 0 5 9 z M 12 9 A 3 3 0 0 0 9 12 A 3 3 0 0 0 12 15 A 3 3 0 0 0 15 12 A 3 3 0 0 0 12 9 z M 19 9 A 2.9999995 2.9999995 0 0 0 16 12 A 2.9999995 2.9999995 0 0 0 19 15 A 2.9999995 2.9999995 0 0 0 22 12 A 2.9999995 2.9999995 0 0 0 19 9 z " fill="currentColor" opacity="0.6" paint-order="stroke fill markers" stop-color="#000000" stroke-linecap="round" stroke-linejoin="round"/>
 <path class="ColorScheme-Background" d="M 5 9 A 3 3 0 0 0 2 12 A 3 3 0 0 0 5 15 A 3 3 0 0 0 8 12 A 3 3 0 0 0 5 9 z M 12 9 A 3 3 0 0 0 9 12 A 3 3 0 0 0 12 15 A 3 3 0 0 0 15 12 A 3 3 0 0 0 12 9 z M 19 9 A 2.9999995 2.9999995 0 0 0 16 12 A 2.9999995 2.9999995 0 0 0 19 15 A 2.9999995 2.9999995 0 0 0 22 12 A 2.9999995 2.9999995 0 0 0 19 9 z M 5 9.5 C 6.3866328 9.5 7.5 10.613367 7.5 12 C 7.5 13.386633 6.3866328 14.5 5 14.5 C 3.6133672 14.5 2.5 13.386633 2.5 12 C 2.5 10.613367 3.6133672 9.5 5 9.5 z M 12 9.5 C 13.386633 9.5 14.5 10.613367 14.5 12 C 14.5 13.386633 13.386633 14.5 12 14.5 C 10.613367 14.5 9.5 13.386633 9.5 12 C 9.5 10.613367 10.613367 9.5 12 9.5 z M 19 9.5 C 20.386633 9.4999998 21.5 10.613367 21.5 12 C 21.5 13.386633 20.386633 14.5 19 14.5 C 17.613367 14.5 16.5 13.386633 16.5 12 C 16.5 10.613367 17.613367 9.4999998 19 9.5 z " fill="currentColor" opacity="0.6" paint-order="stroke fill markers" stroke-linecap="round" stroke-linejoin="round"/>
</svg>