<?xml version="1.0" encoding="utf-8"?>
<svg height="48" version="1.1" viewBox="0 0 48 48" width="48" xmlns="http://www.w3.org/2000/svg" xmlns:svg="http://www.w3.org/2000/svg" xmlns:xlink="http://www.w3.org/1999/xlink">
 <namedview bordercolor="#666666" borderopacity="1.0" id="namedview-conformist" pagecolor="#ffffff" pageopacity="0.0" pageshadow="0" showgrid="true">
  <grid class="ColorScheme-Background" empspacing="4" fill="currentColor" opacity="0.6" type="xygrid"/>
 </namedview>
 <defs id="primary-definitions">
  <style class="ColorScheme-Background" fill="currentColor" opacity="0.6" type="text/css">
   .ColorScheme-Text           { color:#eff0f1; }
      .ColorScheme-Background     { color:#31363b; }
      .ColorScheme-Highlight      { color:#3daefd; }
      .ColorScheme-ViewBackground { color:#fcfcfc; }
      .ColorScheme-PositiveText   { color:#27ae60; }
      .ColorScheme-NeutralText    { color:#f67400; }
      .ColorScheme-NegativeText   { color:#da4453; }
  </style>
 </defs>
 <path class="ColorScheme-Background" d="M 24 7.3457031 C 19.566351 7.345217 15.245738 8.7479294 11.658203 11.353516 C 4.3000195 16.698726 1.2174721 26.184784 4.0292969 34.833984 A 1.0001 1.0001 0 0 0 5.2890625 35.476562 L 10.361328 33.826172 A 1.0001 1.0001 0 0 0 11.003906 32.566406 C 10.5714 31.234651 10.333984 29.818618 10.333984 28.34375 C 10.333984 24.458722 11.311016 20.310586 13.486328 17.214844 C 15.66164 14.119102 18.955771 12.011719 24 12.011719 C 28.051132 12.011719 30.957295 13.386142 33.087891 15.517578 A 1.0001 1.0001 0 0 0 34.564453 15.447266 L 36.666016 12.908203 A 1.0001 1.0001 0 0 0 36.492188 11.466797 C 36.476357 11.455087 36.427748 11.415947 36.341797 11.353516 C 32.754264 8.7479254 28.433654 7.345217 24 7.3457031 z M 24 8.3457031 C 28.22266 8.3452402 32.337189 9.6805818 35.753906 12.162109 C 35.823056 12.212339 35.815186 12.209309 35.896484 12.269531 A 1.0001 1.0001 0 0 0 35.896484 12.271484 L 33.794922 14.810547 C 31.494849 12.50952 28.277307 11.011719 24 11.011719 C 18.677256 11.011719 14.993577 13.330993 12.667969 16.640625 C 10.332045 19.964938 9.3339844 24.291068 9.3339844 28.34375 C 9.3339844 29.925933 9.5891136 31.447435 10.052734 32.875 L 4.9804688 34.525391 C 2.3015483 26.285006 5.2356342 17.254722 12.246094 12.162109 C 15.662814 9.6805853 19.777346 8.3452402 24 8.3457031 z M 38.125 13.232422 A 1.0001 1.0001 0 0 0 37.402344 13.59375 L 34.939453 16.570312 A 1.0001 1.0001 0 0 0 34.865234 17.744141 C 36.794656 20.771904 37.666016 24.67582 37.666016 28.34375 C 37.666016 28.605048 37.655294 28.863631 37.640625 29.121094 L 40.832031 29.541016 C 41.776062 29.6653 42.462175 30.559875 42.337891 31.503906 C 42.213607 32.447938 41.319031 33.136003 40.375 33.011719 L 36.996094 32.566406 A 1.0001 1.0001 0 0 0 37.638672 33.826172 L 42.710938 35.476562 A 1.0001 1.0001 0 0 0 43.970703 34.833984 C 46.433779 27.257535 44.377808 19.041394 38.880859 13.525391 A 1.0001 1.0001 0 0 0 38.125 13.232422 z M 23.988281 27.025391 A 1.987241 1.987241 0 0 0 22.001953 29.013672 A 1.987241 1.987241 0 0 0 23.988281 31 A 1.987241 1.987241 0 0 0 25.671875 30.068359 L 40.503906 32.019531 C 40.915827 32.073762 41.291473 31.786921 41.345703 31.375 C 41.399934 30.963079 41.113093 30.587434 40.701172 30.533203 L 25.929688 28.587891 A 1.987241 1.987241 0 0 0 23.988281 27.025391 z " fill="currentColor" opacity="0.6" paint-order="stroke fill markers" stop-color="#000000" stroke-dasharray="none" stroke-linecap="round" stroke-linejoin="round" stroke-miterlimit="4" stroke-opacity="1"/>
 <path class="ColorScheme-Background" d="M 24,7.3457031 C 19.566351,7.345217 15.245738,8.747929 11.658203,11.353516 4.3000196,16.698726 1.2174721,26.184784 4.0292969,34.833984 c 0.1704867,0.525271 0.7344536,0.812938 1.2597656,0.642578 l 5.0722655,-1.65039 c 0.525271,-0.170487 0.812938,-0.734454 0.642578,-1.259766 -0.432506,-1.331755 -0.669922,-2.747788 -0.669922,-4.222656 0,-3.885028 0.977032,-8.033164 3.152344,-11.128906 C 15.66164,14.119102 18.955771,12.011719 24,12.011719 c 4.051132,0 6.957295,1.374423 9.087891,3.505859 0.416916,0.415807 1.101044,0.38323 1.476562,-0.07031 l 2.101563,-2.539063 c 0.36602,-0.441447 0.286645,-1.099631 -0.173828,-1.441406 -0.01583,-0.01171 -0.06444,-0.05085 -0.150391,-0.113281 C 32.754264,8.747923 28.433654,7.345217 24,7.3457031 Z m 0,1 c 4.22266,-4.629e-4 8.337189,1.3348791 11.753906,3.8164059 0.06915,0.05023 0.06128,0.0472 0.142578,0.107422 v 0.002 l -2.101562,2.539063 C 31.494849,12.509473 28.277307,11.011719 24,11.011719 c -5.322744,0 -9.006423,2.319274 -11.332031,5.628906 -2.335924,3.324313 -3.3339846,7.650443 -3.3339846,11.703125 0,1.582183 0.2551296,3.103685 0.7187496,4.53125 L 4.9804688,34.525391 C 2.3015483,26.285006 5.235634,17.254722 12.246094,12.162109 15.662814,9.6805857 19.777346,8.3452402 24,8.3457031 Z m 14.125,4.8867189 c -0.280982,0.01345 -0.543307,0.144613 -0.722656,0.361328 l -2.462891,2.976562 c -0.276522,0.333841 -0.30649,0.807818 -0.07422,1.173829 1.929422,3.027763 2.800782,6.931679 2.800782,10.599609 0,0.261298 -0.01072,0.519881 -0.02539,0.777344 l 3.191406,0.419922 c 0.944031,0.124284 1.630144,1.018859 1.50586,1.96289 -0.124284,0.944032 -1.01886,1.632097 -1.962891,1.507813 l -3.378906,-0.445313 c -0.17036,0.525312 0.117307,1.089279 0.642578,1.259766 l 5.072266,1.65039 c 0.525312,0.170359 1.089278,-0.117308 1.259765,-0.642578 2.463076,-7.576449 0.407105,-15.79259 -5.089844,-21.308593 C 38.681553,13.325422 38.407011,13.21901 38.125,13.232422 Z m 0.02344,0.5 c 0.14128,-0.0067 0.27906,0.04631 0.378906,0.146484 5.36571,5.38431 7.373672,13.403215 4.96875,20.800782 -0.08708,0.26829 -0.362549,0.407326 -0.63086,0.320312 v 0.002 l -5.072265,-1.650391 c -0.07983,-0.02591 -0.04119,-0.133499 -0.0957,-0.1875 l 2.613281,0.34375 c 1.221327,0.160792 2.36273,-0.71876 2.523437,-1.939453 0.160703,-1.220655 -0.71672,-2.362718 -1.9375,-2.523437 L 38.15625,28.683594 c 0.0034,-0.11352 0.0098,-0.224006 0.0098,-0.339844 0,-3.746516 -0.882148,-7.732925 -2.878907,-10.867188 v -0.002 c -0.115949,-0.184407 -0.101966,-0.418033 0.03711,-0.585937 l 2.46289,-2.976563 c 0.08985,-0.108565 0.220569,-0.172949 0.361329,-0.179687 z M 23.988281,27.025391 c -1.097573,5.04e-4 -1.986903,0.890708 -1.986328,1.988281 5.04e-4,1.09681 0.889518,1.985824 1.986328,1.986328 0.684152,-3.5e-5 1.32018,-0.35199 1.683594,-0.931641 l 14.832031,1.951172 c 0.411921,0.05423 0.787567,-0.23261 0.841797,-0.644531 0.05423,-0.411921 -0.23261,-0.787566 -0.644531,-0.841797 L 25.929688,28.587891 c -0.199603,-0.912306 -1.00752,-1.562541 -1.941407,-1.5625 z m 0,0.5 c 0.701785,-3.1e-5 1.30313,0.484354 1.453125,1.169921 0.0452,0.205958 0.214735,0.361432 0.423828,0.388672 l 14.771485,1.945313 c 0.145459,0.01915 0.232205,0.134539 0.21289,0.28125 -0.01915,0.145458 -0.134539,0.232205 -0.28125,0.212891 L 25.736328,29.572266 c -0.193814,-0.0252 -0.384546,0.06482 -0.488281,0.230468 -0.272334,0.434377 -0.747078,0.697239 -1.259766,0.697266 -0.826751,-3.8e-4 -1.485948,-0.659577 -1.486328,-1.486328 -4.33e-4,-0.82734 0.658988,-1.487901 1.486328,-1.488281 z" fill="currentColor" opacity="0.6" paint-order="stroke fill markers" stroke-linecap="round" stroke-linejoin="round"/>
</svg>