<?xml version="1.0" encoding="utf-8"?>
<svg height="16" version="1.1" viewBox="0 0 16 16" width="16" xmlns="http://www.w3.org/2000/svg" xmlns:svg="http://www.w3.org/2000/svg" xmlns:xlink="http://www.w3.org/1999/xlink">
 <namedview bordercolor="#666666" borderopacity="1.0" id="namedview-conformist" pagecolor="#ffffff" pageopacity="0.0" pageshadow="0" showgrid="true">
  <grid class="ColorScheme-Background" empspacing="4" fill="currentColor" opacity="0.6" type="xygrid"/>
 </namedview>
 <defs id="primary-definitions">
  <style class="ColorScheme-Background" fill="currentColor" opacity="0.6" type="text/css">
   .ColorScheme-Text           { color:#eff0f1; }
      .ColorScheme-Background     { color:#31363b; }
      .ColorScheme-Highlight      { color:#3daefd; }
      .ColorScheme-ViewBackground { color:#fcfcfc; }
      .ColorScheme-PositiveText   { color:#27ae60; }
      .ColorScheme-NeutralText    { color:#f67400; }
      .ColorScheme-NegativeText   { color:#da4453; }
  </style>
 </defs>
 <path class="ColorScheme-Background" d="M 8 2 C 6.3107854 1.999815 4.6655963 2.5346752 3.2988281 3.5273438 C 0.49582547 5.5635302 -0.6785431 9.1778767 0.39257812 12.472656 A 0.50005 0.50005 0 0 0 1.0214844 12.792969 L 2.9238281 12.173828 A 0.50005 0.50005 0 0 0 3.2441406 11.544922 C 3.0858248 11.057443 3 10.53972 3 10 C 3 8.5635211 3.3622019 7.0313103 4.1582031 5.8984375 C 4.9542044 4.7655647 6.1442699 4 8 4 C 9.4252814 4 10.455756 4.453017 11.21875 5.1757812 L 12.595703 3.453125 C 11.250039 2.5084389 9.6462595 1.9998197 8 2 z M 13.376953 4.0800781 L 11.878906 5.953125 C 12.287708 6.5517012 12.575001 7.2583845 12.757812 8 L 13.5 8 C 14.331 8 15 8.669 15 9.5 C 15 10.331 14.331 11 13.5 11 L 12.896484 11 C 12.858704 11.185139 12.813514 11.367407 12.755859 11.544922 A 0.50005 0.50005 0 0 0 13.076172 12.173828 L 14.978516 12.792969 A 0.50005 0.50005 0 0 0 15.607422 12.472656 C 16.587691 9.4573376 15.6853 6.176071 13.376953 4.0800781 z M 8 9 A 1 1 0 0 0 7 10 A 1 1 0 0 0 8 11 A 1 1 0 0 0 9 10 L 13.525391 10 C 13.787845 10 14 9.7878449 14 9.5253906 L 14 9.4746094 C 14 9.2121551 13.787845 9 13.525391 9 L 8.4746094 9 C 8.4058425 9 8.3401116 9.0148851 8.28125 9.0410156 A 1 1 0 0 0 8 9 z " fill="currentColor" opacity="0.6" paint-order="stroke fill markers" stroke-linecap="round" stroke-linejoin="round"/>
 <path class="ColorScheme-Background" d="M 8 2 C 6.3107854 1.999815 4.6655963 2.5346752 3.2988281 3.5273438 C 0.4958255 5.5635302 -0.67854309 9.1778769 0.39257812 12.472656 A 0.50005 0.50005 0 0 0 1.0214844 12.792969 L 2.9238281 12.173828 A 0.50005 0.50005 0 0 0 3.2441406 11.544922 C 3.0858248 11.057443 3 10.53972 3 10 C 3 8.5635211 3.3622019 7.0313103 4.1582031 5.8984375 C 4.9542044 4.7655647 6.1442699 4 8 4 C 9.4252814 4 10.455756 4.453017 11.21875 5.1757812 L 12.595703 3.453125 C 11.250039 2.5084389 9.6462595 1.9998197 8 2 z M 8 2.5 C 9.3592528 2.4998511 10.660728 2.9276427 11.820312 3.6210938 L 11.101562 4.5214844 C 10.294522 3.9184276 9.2995983 3.5 8 3.5 C 6.0067582 3.5 4.6198557 4.3733455 3.75 5.6113281 C 2.8730958 6.8593425 2.5 8.4794741 2.5 10 C 2.5 10.592725 2.595489 11.163315 2.7695312 11.699219 L 2.7675781 11.699219 L 0.8671875 12.318359 L 0.8671875 12.316406 C -0.1364153 9.226621 0.96323251 5.8411097 3.5917969 3.9316406 C 4.8732984 3.0009002 6.4163667 2.4998266 8 2.5 z M 13.376953 4.0800781 L 11.878906 5.953125 C 12.287708 6.5517012 12.575001 7.2583845 12.757812 8 L 13.5 8 C 14.331 8 15 8.669 15 9.5 C 15 10.331 14.331 11 13.5 11 L 12.896484 11 C 12.858704 11.185139 12.813514 11.367407 12.755859 11.544922 A 0.50005 0.50005 0 0 0 13.076172 12.173828 L 14.978516 12.792969 A 0.50005 0.50005 0 0 0 15.607422 12.472656 C 16.587691 9.4573379 15.6853 6.176071 13.376953 4.0800781 z M 13.386719 4.8691406 C 14.532364 6.0740347 15.208469 7.5935838 15.382812 9.2167969 C 15.226767 8.2697525 14.48921 7.5 13.5 7.5 L 13.080078 7.5 C 12.92552 6.9868701 12.715759 6.4979592 12.449219 6.0410156 L 13.386719 4.8691406 z M 8 9 A 1 1 0 0 0 7 10 A 1 1 0 0 0 8 11 A 1 1 0 0 0 9 10 L 13.525391 10 C 13.787845 10 14 9.7878449 14 9.5253906 L 14 9.4746094 C 14 9.2121551 13.787845 9 13.525391 9 L 8.4746094 9 C 8.4058425 9 8.3401116 9.0148851 8.28125 9.0410156 A 1 1 0 0 0 8 9 z M 7.9980469 9.5 L 8 9.5 C 8.046957 9.5002869 8.093633 9.5062203 8.1386719 9.5195312 A 0.50005 0.50005 0 0 0 8.4746094 9.5 C 8.4746094 9.5 8.4765625 9.5 8.4765625 9.5 L 9 9.5 A 0.50005 0.50005 0 0 0 8.5 10 C 8.5 10.282064 8.2820644 10.5 8 10.5 C 7.7179356 10.5 7.5 10.282064 7.5 10 C 7.5 9.7184865 7.716784 9.5008491 7.9980469 9.5 z M 15.435547 9.6542969 C 15.478007 10.540887 15.418556 11.436663 15.132812 12.316406 L 15.132812 12.318359 L 13.232422 11.699219 L 13.230469 11.699219 C 13.252089 11.632659 13.264783 11.566574 13.283203 11.5 L 13.5 11.5 C 14.539259 11.5 15.344451 10.671038 15.435547 9.6542969 z " fill="currentColor" opacity="0.6" paint-order="stroke fill markers" stroke-linecap="round" stroke-linejoin="round"/>
</svg>