<?xml version="1.0" encoding="utf-8"?>
<svg height="32" version="1.1" viewBox="0 0 32 32" width="32" xmlns="http://www.w3.org/2000/svg" xmlns:svg="http://www.w3.org/2000/svg" xmlns:xlink="http://www.w3.org/1999/xlink">
 <namedview bordercolor="#666666" borderopacity="1.0" id="namedview-conformist" pagecolor="#ffffff" pageopacity="0.0" pageshadow="0" showgrid="true">
  <grid class="ColorScheme-Background" empspacing="4" fill="currentColor" opacity="0.6" type="xygrid"/>
 </namedview>
 <defs id="primary-definitions">
  <style class="ColorScheme-Background" fill="currentColor" opacity="0.6" type="text/css">
   .ColorScheme-Text           { color:#eff0f1; }
      .ColorScheme-Background     { color:#31363b; }
      .ColorScheme-Highlight      { color:#3daefd; }
      .ColorScheme-ViewBackground { color:#fcfcfc; }
      .ColorScheme-PositiveText   { color:#27ae60; }
      .ColorScheme-NeutralText    { color:#f67400; }
      .ColorScheme-NegativeText   { color:#da4453; }
  </style>
 </defs>
 <path class="ColorScheme-Background" d="M 16 5.9824219 C 13.04401 5.9820977 10.163219 6.9172066 7.7714844 8.6542969 C 2.8668279 12.21719 0.81131278 18.543431 2.6855469 24.308594 A 1.0001 1.0001 0 0 0 3.9453125 24.951172 L 7.2421875 23.876953 A 1.0001 1.0001 0 0 0 7.8847656 22.617188 C 7.6145199 21.785059 7.4667969 20.903565 7.4667969 19.982422 C 7.4667969 17.514587 8.0925684 14.88279 9.4511719 12.949219 C 10.809775 11.015647 12.822024 9.7148434 16 9.7148438 C 18.618547 9.7148438 20.443957 10.599605 21.765625 11.992188 L 24.357422 8.7539062 C 24.31336 8.7211033 24.271096 8.6866467 24.226562 8.6542969 C 21.834829 6.9172067 18.955993 5.9820977 16 5.9824219 z M 16 6.9824219 C 18.441038 6.9821542 20.776008 7.7682572 22.835938 9.0546875 L 21.550781 10.658203 C 20.125414 9.5246412 18.356007 8.7148436 16 8.7148438 C 12.549149 8.7148432 10.137157 10.234008 8.6328125 12.375 C 7.1118556 14.539633 6.4667969 17.345542 6.4667969 19.982422 C 6.4667969 21.010477 6.6323323 21.99815 6.9335938 22.925781 A 1.0001 1.0001 0 0 0 6.9316406 22.925781 L 3.6367188 24 C 1.895449 18.643837 3.8026306 12.77305 8.359375 9.4628906 C 10.580253 7.8498915 13.25498 6.9821208 16 6.9824219 z M 25.138672 9.3769531 L 22.419922 12.775391 C 22.462552 12.833121 22.505472 12.89029 22.546875 12.949219 C 23.837335 14.785808 24.46551 17.251756 24.525391 19.609375 L 27.597656 20.013672 C 28.404397 20.119882 28.996835 20.890525 28.890625 21.697266 C 28.784416 22.504006 28.013771 23.09449 27.207031 22.988281 L 24.123047 22.582031 C 24.119345 22.593593 24.11703 22.605645 24.113281 22.617188 A 1.0001 1.0001 0 0 0 24.755859 23.876953 L 28.052734 24.951172 A 1.0001 1.0001 0 0 0 29.3125 24.308594 C 31.065972 18.914893 29.37962 13.030522 25.138672 9.3769531 z M 16 19 A 1 1 0 0 0 15 20 A 1 1 0 0 0 16 21 A 1 1 0 0 0 16.791016 20.607422 L 27.335938 21.996094 C 27.610568 22.03225 27.860329 21.841036 27.896484 21.566406 C 27.93264 21.291776 27.741427 21.042015 27.466797 21.005859 L 16.923828 19.617188 A 1 1 0 0 0 16 19 z " fill="currentColor" opacity="0.6" paint-order="stroke fill markers" stroke-linecap="round" stroke-linejoin="round"/>
 <path class="ColorScheme-Background" d="M 16,5.9824219 C 13.04401,5.9820977 10.163219,6.9172066 7.7714844,8.6542969 2.8668279,12.217189 0.81131271,18.543431 2.6855469,24.308594 c 0.1704867,0.525271 0.7344536,0.812938 1.2597656,0.642578 l 3.296875,-1.074219 C 7.7674579,23.706466 8.0551247,23.1425 7.8847656,22.617188 7.6145199,21.785059 7.4667969,20.903565 7.4667969,19.982422 c 0,-2.467835 0.6257715,-5.099632 1.984375,-7.033203 C 10.809775,11.015647 12.822024,9.7148433 16,9.7148438 c 2.618547,0 4.443957,0.8847612 5.765625,2.2773442 l 2.591797,-3.2382818 c -0.04406,-0.032803 -0.08633,-0.06726 -0.13086,-0.099609 C 21.834829,6.9172064 18.955993,5.9820977 16,5.9824219 Z m 0,1 c 2.441038,-2.677e-4 4.776008,0.7858353 6.835938,2.0722656 L 21.550781,10.658203 C 20.125414,9.5246418 18.356007,8.7148436 16,8.7148438 c -3.450851,-6e-7 -5.862843,1.5191642 -7.3671875,3.6601562 -1.5209569,2.164633 -2.1660156,4.970542 -2.1660156,7.607422 0,1.028055 0.1655354,2.015728 0.4667969,2.943359 h -0.00195 L 3.6367188,24 C 1.8954489,18.643837 3.8026306,12.77305 8.359375,9.4628906 10.580253,7.8498915 13.25498,6.9821208 16,6.9824219 Z m 9.138672,2.3945312 -2.71875,3.3984379 c 0.04263,0.05773 0.08555,0.114899 0.126953,0.173828 1.29046,1.836589 1.918635,4.302537 1.978516,6.660156 l 3.072265,0.404297 c 0.806741,0.10621 1.399179,0.876853 1.292969,1.683594 -0.106209,0.80674 -0.876854,1.397224 -1.683594,1.291015 l -3.083984,-0.40625 c -0.0037,0.01156 -0.006,0.02361 -0.0098,0.03516 -0.170359,0.525312 0.117308,1.089278 0.642578,1.259765 l 3.296875,1.074219 c 0.525312,0.17036 1.089279,-0.117307 1.259766,-0.642578 1.753472,-5.393701 0.06712,-11.278072 -4.173828,-14.9316409 z m 0.01758,0.7773439 c 3.115627,2.907318 4.587847,7.06928 4.136719,11.265625 -0.05565,-0.936162 -0.671119,-1.775991 -1.63086,-1.902344 L 24.960938,19.162109 C 24.84074,16.916677 24.25022,14.627145 23.027344,12.816406 Z M 16,19 c -0.552285,0 -1,0.447715 -1,1 0,0.552285 0.447715,1 1,1 0.3103,-0.001 0.602534,-0.146079 0.791016,-0.392578 l 10.544922,1.388672 c 0.274629,0.03616 0.524391,-0.155058 0.560546,-0.429688 0.03616,-0.27463 -0.155057,-0.524391 -0.429687,-0.560547 L 16.923828,19.617188 C 16.769014,19.243581 16.404412,18.999999 16,19 Z m 0,0.5 c 0.203641,0 0.384934,0.120465 0.462891,0.308594 0.06811,0.163241 0.217387,0.278357 0.392578,0.302734 -0.176779,-0.02292 -0.352391,0.05001 -0.460938,0.191406 C 16.300415,20.425821 16.154865,20.498915 16,20.5 c -0.282064,0 -0.5,-0.217936 -0.5,-0.5 0,-0.282064 0.217936,-0.5 0.5,-0.5 z m 13.175781,2.623047 c -0.109577,0.6789 -0.120429,1.362335 -0.33789,2.03125 -0.08708,0.2683 -0.362542,0.407338 -0.63086,0.320312 v 0.002 l -3.296875,-1.074218 c 1e-6,-6.51e-4 1e-6,-0.0013 0,-0.002 -0.09584,-0.03111 -0.05663,-0.154484 -0.115234,-0.22461 l 2.347656,0.308594 c 0.936952,0.123352 1.71661,-0.506468 2.033203,-1.361328 z" fill="currentColor" opacity="0.6" paint-order="stroke fill markers" stroke-linecap="round" stroke-linejoin="round"/>
</svg>