<?xml version="1.0" encoding="utf-8"?>
<svg height="16" version="1.1" viewBox="0 0 16 16" width="16" xmlns="http://www.w3.org/2000/svg" xmlns:svg="http://www.w3.org/2000/svg" xmlns:xlink="http://www.w3.org/1999/xlink">
 <namedview bordercolor="#666666" borderopacity="1.0" id="namedview-conformist" pagecolor="#ffffff" pageopacity="0.0" pageshadow="0" showgrid="true">
  <grid class="ColorScheme-Background" empspacing="4" fill="currentColor" opacity="0.6" type="xygrid"/>
 </namedview>
 <defs id="primary-definitions">
  <style class="ColorScheme-Background" fill="currentColor" opacity="0.6" type="text/css">
   .ColorScheme-Text           { color:#eff0f1; }
      .ColorScheme-Background     { color:#31363b; }
      .ColorScheme-Highlight      { color:#3daefd; }
      .ColorScheme-ViewBackground { color:#fcfcfc; }
      .ColorScheme-PositiveText   { color:#27ae60; }
      .ColorScheme-NeutralText    { color:#f67400; }
      .ColorScheme-NegativeText   { color:#da4453; }
  </style>
 </defs>
 <path class="ColorScheme-Background" d="M 2,2 C 1.446,2 1,2.446 1,3 v 10 c 0,0.554 0.446,1 1,1 h 12 c 0.554,0 1,-0.446 1,-1 V 3 C 15,2.446 14.554,2 14,2 Z M 3,3 C 3.5522847,3 4,3.4477153 4,4 4,4.5522847 3.5522847,5 3,5 2.4477153,5 2,4.5522847 2,4 2,3.4477153 2.4477153,3 3,3 Z M 3,6 C 3.5522847,6 4,6.4477153 4,7 4,7.5522847 3.5522847,8 3,8 2.4477153,8 2,7.5522847 2,7 2,6.4477153 2.4477153,6 3,6 Z m -1,6 h 12 v 1 H 2 Z" fill="currentColor" opacity="0.6" paint-order="stroke fill markers" stop-color="#000000" stroke-linecap="round" stroke-linejoin="round"/>
 <path class="ColorScheme-Background" d="M 2 2 C 1.446 2 1 2.446 1 3 L 1 13 C 1 13.554 1.446 14 2 14 L 14 14 C 14.554 14 15 13.554 15 13 L 15 3 C 15 2.446 14.554 2 14 2 L 2 2 z M 2 2.5 L 3 2.5 L 14 2.5 C 14.285648 2.5 14.5 2.7143517 14.5 3 L 14.5 12 A 0.50005 0.50005 0 0 0 14 11.5 L 2 11.5 A 0.50005 0.50005 0 0 0 1.5 12 L 1.5 7 L 1.5 4 L 1.5 3 C 1.5 2.7143517 1.7143517 2.5 2 2.5 z M 1.5 4 C 1.5 4.822504 2.177496 5.5 3 5.5 C 3.822504 5.5 4.5 4.822504 4.5 4 C 4.5 3.177496 3.822504 2.5 3 2.5 C 2.177496 2.5 1.5 3.177496 1.5 4 z M 3 5.5 C 2.177496 5.5 1.5 6.177496 1.5 7 C 1.5 7.822504 2.177496 8.5 3 8.5 C 3.822504 8.5 4.5 7.822504 4.5 7 C 4.5 6.177496 3.822504 5.5 3 5.5 z M 3 3 C 3.5522847 3 4 3.4477153 4 4 C 4 4.5522847 3.5522847 5 3 5 C 2.4477153 5 2 4.5522847 2 4 C 2 3.4477153 2.4477153 3 3 3 z M 3 6 C 3.5522847 6 4 6.4477153 4 7 C 4 7.5522847 3.5522847 8 3 8 C 2.4477153 8 2 7.5522847 2 7 C 2 6.4477153 2.4477153 6 3 6 z M 2 12 L 14 12 L 14 13 L 2 13 L 2 12 z " fill="currentColor" opacity="0.6" paint-order="stroke fill markers" stroke-linecap="round" stroke-linejoin="round"/>
</svg>