<?xml version="1.0" encoding="utf-8"?>
<svg height="64" version="1.1" viewBox="0 0 64 64" width="64" xmlns="http://www.w3.org/2000/svg" xmlns:svg="http://www.w3.org/2000/svg" xmlns:xlink="http://www.w3.org/1999/xlink">
 <namedview bordercolor="#666666" borderopacity="1.0" id="namedview-conformist" pagecolor="#ffffff" pageopacity="0.0" pageshadow="0" showgrid="true">
  <grid class="ColorScheme-Background" empspacing="4" fill="currentColor" opacity="0.6" type="xygrid"/>
 </namedview>
 <defs id="primary-definitions">
  <style class="ColorScheme-Background" fill="currentColor" opacity="0.6" type="text/css">
   .ColorScheme-Text           { color:#eff0f1; }
      .ColorScheme-Background     { color:#31363b; }
      .ColorScheme-Highlight      { color:#3daefd; }
      .ColorScheme-ViewBackground { color:#fcfcfc; }
      .ColorScheme-PositiveText   { color:#27ae60; }
      .ColorScheme-NeutralText    { color:#f67400; }
      .ColorScheme-NegativeText   { color:#da4453; }
  </style>
 </defs>
 <path class="ColorScheme-Background" clip-rule="nonzero" color-interpolation="sRGB" color-interpolation-filters="linearRGB" color-rendering="auto" connector-curvature="0" d="M 35.629901,57.852566 C 32.840123,57.387906 28.841184,55.808257 26.363582,54.192207 20.922279,50.64306 17.368617,46.70293 15.169343,41.780676 14.438694,40.145385 14.039462,38.876399 12.897478,34.559469 12.613525,33.486058 12.260149,32.303938 12.11218,31.932527 c -0.249585,-0.626503 -0.260552,-0.837843 -0.15175,-2.927512 0.103294,-1.985334 0.439037,-4.671629 0.619247,-4.954164 0.03498,-0.05484 0.11724,-0.06784 0.182951,-0.02884 0.22219,0.131896 0.427644,-0.477896 0.629529,-1.868803 0.110622,-0.762039 0.284403,-1.561165 0.386208,-1.775861 0.101877,-0.214626 0.274263,-0.688504 0.383254,-1.052919 0.250814,-0.838765 0.592797,-1.483493 1.650041,-3.110653 0.464967,-0.715616 0.9483,-1.495052 1.074049,-1.732062 0.147969,-0.278871 0.309648,-0.415494 0.458089,-0.387153 0.143005,0.02718 0.379022,-0.153642 0.626196,-0.479811 1.074925,-1.418704 6.137797,-5.6043297 6.606309,-5.4616317 0.127878,0.039 0.662125,-0.136859 1.187225,-0.390581 0.949766,-0.458986 1.368262,-0.565165 1.368262,-0.347159 0,0.06288 -0.137332,0.205644 -0.305061,0.317282 -0.294449,0.195952 -0.288539,0.199261 0.169478,0.09289 0.261002,-0.06075 0.700559,-0.147023 0.976807,-0.191934 0.341297,-0.05555 0.480071,-0.137332 0.432986,-0.255022 -0.04136,-0.103294 0.05697,-0.205643 0.243416,-0.25365 0.466739,-0.119841 1.194032,-0.100222 1.194032,0.03238 0,0.159078 -0.415849,0.319716 -0.745706,0.288326 -0.225026,-0.02127 -0.236514,-0.0024 -0.06784,0.108022 0.167824,0.110622 0.169952,0.134259 0.01182,0.135914 -0.105658,0.0011 -0.157187,0.03522 -0.114877,0.07611 0.04255,0.04066 0.325201,-0.04727 0.628229,-0.195716 0.303053,-0.148441 0.858077,-0.332953 1.233388,-0.4102 0.462013,-0.09502 0.682406,-0.205407 0.682406,-0.341557 0,-0.175151 0.214626,-0.190043 1.660867,-0.115349 0.913506,0.04727 2.291979,0.184606 3.063284,0.305368 1.4023,0.21959 1.402418,0.21959 1.925012,-0.06902 0.626811,-0.34619 1.635008,-0.391242 1.899933,-0.08486 0.09691,0.112041 0.363701,0.296765 0.592841,0.41046 0.3738,0.185552 0.39853,0.185788 0.24054,0.0024 -0.30013,-0.34723 -0.002,-0.338485 1.15678,0.03404 3.73602,1.200745 6.78174,3.3392247 9.04176,6.3484507 0.53595,0.713607 0.56841,1.034647 0.0607,0.600267 l -0.29055,-0.248593 0.22195,0.416417 c 0.12197,0.229044 0.22196,0.486406 0.22196,0.571948 0,0.08557 0.35928,0.717885 0.79837,1.40516 0.98964,1.548968 1.26648,2.07083 1.20008,2.262008 -0.0286,0.08202 -0.4669,-0.463596 -0.9743,-1.212375 -0.50737,-0.748732 -1.25821,-1.757567 -1.6685,-2.241821 -0.61273,-0.723156 -0.7732,-0.84685 -0.89822,-0.692286 -0.0837,0.103531 -0.28816,0.206825 -0.45435,0.229989 l -0.30213,0.04184 0.29889,0.562305 c 0.16428,0.309269 0.32069,0.499549 0.34735,0.422846 0.14277,-0.410743 0.80707,0.129295 1.10918,0.901475 0.0978,0.250459 0.35843,0.766246 0.57882,1.146191 0.2203,0.379944 0.37293,0.717412 0.33903,0.74996 -0.0338,0.03262 -0.23495,-0.07162 -0.44648,-0.231408 l -0.38481,-0.290501 0.26244,0.432395 c 0.14442,0.237837 0.38606,0.52874 0.53713,0.6465 0.18839,0.147024 0.27854,0.379046 0.28696,0.739868 0.0165,0.66619 0.4132,1.45319 0.62945,1.245656 0.3369,-0.32331 0.40619,-0.121259 0.3214,0.937545 -0.0624,0.780074 -0.0293,1.29423 0.11889,1.84006 0.22503,0.828673 0.17657,1.033205 -0.15246,0.64591 -0.20919,-0.2463 -0.21131,-0.246134 -0.11771,0.0095 0.20092,0.547933 0.35092,1.367647 0.3092,1.689373 -0.0778,0.600361 -0.31277,0.350752 -0.39358,-0.418307 l -0.0789,-0.750623 -0.0236,0.798819 c -0.0118,0.439368 -0.12008,1.288345 -0.2389,1.886625 -0.12008,0.604309 -0.18106,1.336565 -0.1371,1.647488 0.0825,0.584926 0.0241,0.607594 -0.48531,0.188625 -0.2073,-0.17066 -0.24307,-0.13615 -0.38548,0.371435 -0.11984,0.427076 -0.1189,0.670232 0.005,1.02791 0.0886,0.257692 0.14017,0.607192 0.1144,0.776647 -0.0593,0.391077 -0.38578,0.513021 -0.38578,0.144187 0,-0.463786 -0.1839,-0.298727 -0.74571,0.669499 -1.51722,2.614556 -3.91791,4.63797 -6.635,5.592369 -1.60187,0.562683 -2.67627,0.771328 -4.482746,0.870557 l -1.626995,0.08935 0.803877,0.237979 c 0.648203,0.191934 1.028856,0.220535 1.965929,0.147969 1.227665,-0.09526 2.669135,-0.350847 3.322745,-0.589323 0.26086,-0.09526 0.43703,-0.09951 0.52718,-0.01418 0.2125,0.203989 -1.67564,1.005999 -2.79649,1.187721 -1.907187,0.309222 -4.460145,-0.02506 -6.713737,-0.87883 -1.529019,-0.579324 -3.797999,-2.088109 -3.450296,-2.29432 0.06595,-0.039 0.497539,0.158133 0.959268,0.438375 0.590196,0.358104 0.839498,0.452416 0.839498,0.317519 0,-0.254785 0.08722,-0.242565 0.556183,0.07777 0.423436,0.289366 1.725869,0.82664 2.66391,1.09894 1.022545,0.296812 0.626078,-0.06287 -0.745706,-0.676685 -4.337352,-1.940471 -6.137938,-3.881344 -7.035324,-7.583352 -0.329076,-1.357531 0.02364,-4.333618 0.623668,-5.265656 0.152223,-0.236135 0.276555,-0.526636 0.276555,-0.64546 0,-0.515622 0.895967,-1.877927 1.815335,-2.760209 1.620022,-1.554641 3.304337,-2.200054 5.4908,-2.104016 1.05696,0.04657 1.508383,0.135677 2.388017,0.471798 0.997726,0.381315 2.254019,1.179543 1.869279,1.187745 -0.0905,0.0019 -0.48705,-0.125514 -0.881292,-0.283174 -0.599297,-0.239657 -0.983567,-0.287664 -2.343816,-0.292746 -1.910097,-0.0071 -2.843695,0.252918 -4.203069,1.170773 -1.927234,1.301298 -2.99892,2.800155 -3.378463,4.725073 -0.254667,1.29163 -0.262467,1.649521 -0.06382,2.930727 0.114404,0.73826 0.195716,0.954895 0.338957,0.902184 0.120313,-0.0442 0.188388,0.02127 0.188388,0.17917 0,0.457569 1.037484,2.313655 1.757,3.143367 1.731825,1.997177 4.533209,3.271646 7.191282,3.271646 1.379603,0 2.494813,-0.254123 3.521353,-0.802388 0.41223,-0.220298 0.93255,-0.489336 1.15626,-0.598162 0.78931,-0.383939 1.279,-0.822503 1.85152,-1.658148 0.31827,-0.464566 0.66428,-0.844652 0.76889,-0.844652 0.15459,0 0.14797,0.06713 -0.0357,0.357796 -0.60518,0.958465 0.81511,-0.784258 1.5506,-1.902604 l 0.8238,-1.252605 -0.0898,-0.822834 c -0.0863,-0.790687 -0.0737,-0.838954 0.32041,-1.236059 0.37966,-0.382402 0.41376,-0.495601 0.45752,-1.517909 0.0392,-0.914972 0.0118,-1.10492 -0.15601,-1.10596 -0.15648,-8.99e-4 -0.22361,-0.24188 -0.29097,-1.04214 -0.0891,-1.059088 -0.98773,-4.622913 -1.19694,-4.747008 -0.0631,-0.03735 -0.23838,-0.380133 -0.38938,-0.761519 -0.50962,-1.287092 -1.40348,-2.524735 -2.7972,-3.873024 -2.00542,-1.939998 -4.5316,-3.438051 -6.917822,-4.102327 -2.029772,-0.565047 -5.476522,-0.359947 -7.931575,0.47194 -1.198192,0.406016 -2.378751,0.94362 -2.577966,1.173964 -0.09029,0.104476 -0.22148,0.156242 -0.29121,0.114877 -0.07351,-0.04349 -0.05318,-0.16026 0.04822,-0.277477 0.452274,-0.522973 -1.048545,0.434191 -2.014739,1.284917 -0.584122,0.514322 -1.083339,0.950782 -1.109364,0.969905 -0.026,0.01891 0.08769,8.98e-4 0.252658,-0.04042 0.274546,-0.06878 0.286176,-0.05058 0.137332,0.216516 -0.09549,0.171134 -0.592489,0.478866 -1.201738,0.744075 -1.023655,0.445585 -1.685733,0.9353 -2.211755,1.636001 -0.209898,0.279769 -0.222189,0.34002 -0.05602,0.278847 0.116531,-0.04302 0.212026,-0.01655 0.212026,0.0598 0,0.371577 -0.351816,0.786433 -0.872945,1.029424 -1.154606,0.538313 -3.182889,3.413705 -4.269372,6.05256 -0.484184,1.175927 -0.476502,1.135082 -0.213207,1.135082 0.277477,0 0.258165,0.302414 -0.122914,1.926903 -0.555213,2.366295 -0.555875,2.290585 0.04869,5.619575 0.7367,4.056093 1.167086,5.411024 1.985405,6.250593 0.191934,0.196897 0.37855,0.61589 0.461729,1.036774 0.09928,0.50255 0.26606,0.834227 0.578118,1.149878 0.284497,0.287783 0.379377,0.464281 0.270079,0.502526 -0.21439,0.07493 0.456859,1.035498 1.069299,1.530035 0.30811,0.248782 0.536445,0.33241 0.783785,0.287027 0.542119,-0.09951 1.094071,0.200207 1.942196,1.054289 0.881384,0.8876 0.969692,1.126217 0.386421,1.044078 -0.376209,-0.05295 -0.384813,-0.04326 -0.199734,0.228099 0.106604,0.156005 0.499288,0.530891 0.872921,0.83321 0.524769,0.424666 0.659927,0.608374 0.59405,0.807565 -0.09479,0.286435 0.175388,0.553654 0.786716,0.777923 0.379022,0.138987 0.501156,0.438966 0.215808,0.530206 -0.08628,0.02766 0.447522,0.55493 1.186326,1.171813 0.832384,0.695004 1.392301,1.075941 1.4721,1.001531 0.210844,-0.196425 0.480993,-0.136623 0.485839,0.107549 0.0047,0.266439 0.244574,0.54635 1.10544,1.293002 0.54401,0.471821 0.679805,0.531198 1.013255,0.443055 0.305345,-0.08084 0.497374,-0.02884 0.927405,0.250058 0.857959,0.556584 1.37819,0.77875 1.823632,0.77875 0.438305,0 0.500707,0.120786 0.273128,0.529 -0.12055,0.216044 -0.09479,0.251666 0.182243,0.251666 0.177279,0 0.677158,0.117004 1.11064,0.260221 0.985623,0.325437 1.396769,0.347561 1.149736,0.06193 -0.364911,-0.421948 0.02127,-0.306645 1.325881,0.394953 1.821788,0.9804 2.743383,1.092393 6.371143,0.774284 0.53711,-0.04704 0.71181,-0.01891 0.71181,0.11204 0,0.112986 -0.46605,0.282653 -1.32193,0.481348 -1.12511,0.26119 -1.72563,0.311727 -4.033571,0.339406 -1.818621,0.02127 -3.060873,-0.02576 -3.772068,-0.144187 z m -1.85462,-19.504883 c 0,-0.02766 -0.167824,-0.148206 -0.372853,-0.267952 l -0.372853,-0.217934 0.320094,0.267951 c 0.312342,0.261451 0.425612,0.319433 0.425612,0.217935 z M 52.442695,24.711652 c -0.0433,-0.103768 -0.0754,-0.07304 -0.082,0.07871 -0.007,0.137096 0.0262,0.213917 0.0712,0.170661 0.0451,-0.04326 0.0499,-0.155533 0.009,-0.249372 z M 21.590147,10.976746 c 0.16877,-0.206352 0.163806,-0.21108 -0.05129,-0.04917 -0.130477,0.09833 -0.23727,0.20068 -0.23727,0.227627 0,0.107076 0.111332,0.03806 0.288469,-0.178461 z m 1.541901,-1.2035337 c 0.134968,-0.143241 0.214862,-0.260222 0.177515,-0.260222 -0.03735,0 -0.178224,0.117004 -0.313169,0.260222 -0.134968,0.143241 -0.214862,0.2602217 -0.177515,0.2602217 0.03735,0 0.178224,-0.1170037 0.313193,-0.2602217 z M 24.8387,8.8585713 c 0.446932,-0.145132 0.70089,-0.170897 0.795131,-0.08037 0.09431,0.09053 0.443977,0.03687 1.094898,-0.168061 0.526022,-0.16546 0.932227,-0.324089 0.90268,-0.352454 -0.02955,-0.02836 -0.462674,0.07942 -0.962458,0.239587 -0.686448,0.220062 -0.93348,0.252681 -1.010041,0.133786 -0.129295,-0.200916 -1.363062,0.195007 -1.893338,0.607689 l -0.362358,0.281944 0.389399,-0.224317 c 0.214152,-0.123386 0.684911,-0.320379 1.046087,-0.437714 z m 3.908786,-0.330282 c 0.393748,-0.112277 0.692404,-0.226681 0.663709,-0.2541 -0.06335,-0.06075 -1.465955,0.32468 -1.465955,0.402872 0,0.07871 0.01182,0.07682 0.802246,-0.148678 z m 2.248345,-0.709305 0.542356,-0.09502 -0.47454,-0.01182 c -0.261002,-0.0071 -0.627071,0.07824 -0.813498,0.187916 -0.219353,0.129295 -0.243345,0.166878 -0.06784,0.106603 0.14915,-0.05106 0.515196,-0.135677 0.813473,-0.187915 z m 1.076863,-0.245543 c 0.04184,-0.06477 -0.04609,-0.08722 -0.195479,-0.04987 -0.316597,0.07942 -0.356614,0.167824 -0.07588,0.167824 0.10755,0 0.229517,-0.05318 0.271355,-0.11795 z m 4.377512,0.03924 c -0.04515,-0.04326 -0.161915,-0.04775 -0.259867,-0.0094 -0.108258,0.0416 -0.07611,0.07233 0.08202,0.07871 0.143005,0.0047 0.222898,-0.02506 0.177988,-0.06831 z m -0.810661,-0.141114 c -0.130477,-0.03262 -0.344039,-0.03262 -0.47454,0 -0.130477,0.03262 -0.02364,0.05957 0.23727,0.05957 0.261002,0 0.367771,-0.02671 0.23727,-0.05957 z m -1.352236,-0.134971 c -0.277666,-0.02789 -0.765774,-0.02836 -1.084663,-8.51e-4 -0.318889,0.02742 -0.09171,0.05035 0.504843,0.05082 0.596579,4.73e-4 0.857486,-0.02127 0.57982,-0.04987 z m -1.768983,-0.114167 c -0.04515,-0.04326 -0.161915,-0.04798 -0.259867,-0.0094 -0.108258,0.0416 -0.07611,0.07233 0.08202,0.07871 0.143005,0.0047 0.222899,-0.02506 0.177988,-0.06831 z M 31.600565,38.495557 c -1.38105,-0.9496 -1.892747,-1.440757 -1.892747,-1.816849 0,-0.199497 0.04704,-0.362759 0.104476,-0.362759 0.19548,0 2.504312,2.312732 2.453823,2.458077 -0.02931,0.08415 -0.307827,-0.03238 -0.665599,-0.278469 z M 30.889913,36.08447 c -0.717246,-0.695548 -0.947071,-1.069654 -0.657184,-1.069654 0.174206,0 1.508808,1.466427 1.508808,1.657818 0,0.09006 -0.01655,0.163805 -0.03806,0.163805 -0.02127,0 -0.387035,-0.338342 -0.813497,-0.751899 z m 7.93583,-2.847265 c -0.378668,-0.14655 -0.142296,-0.41833 0.47454,-0.545333 0.354203,-0.07304 0.917099,-0.249963 1.250852,-0.393417 0.33376,-0.143478 0.63095,-0.237672 0.6604,-0.209426 0.0296,0.02837 -0.12173,0.317448 -0.33567,0.642624 -0.38687,0.587621 -0.39379,0.591166 -1.134938,0.581191 -0.410152,-0.0047 -0.821983,-0.03947 -0.915184,-0.07564 z m 4.067462,-2.910446 c -0.36597,-0.141114 -0.38113,-0.381386 -0.0756,-1.199492 0.26245,-0.702687 0.53465,-0.841319 0.38323,-0.195244 -0.0546,0.23259 -0.12717,0.569255 -0.16168,0.748141 l -0.0626,0.325295 0.27096,-0.296127 c 0.16026,-0.175151 0.30875,-0.586509 0.36347,-1.006897 0.0508,-0.390935 0.14655,-0.678694 0.21273,-0.639504 0.16783,0.09951 0.14986,1.128227 -0.0314,1.819851 -0.1586,0.604143 -0.30113,0.674534 -0.89908,0.443882 z M 10.808542,28.693784 c -0.04515,-0.113222 -0.08226,-0.557199 -0.08226,-0.986687 0,-0.56663 0.04657,-0.766104 0.169479,-0.727079 0.201388,0.06382 0.319503,1.919575 0.122204,1.919575 -0.06997,0 -0.164042,-0.09266 -0.209426,-0.20588 z m 32.617303,-3.043382 c -0.21061,-0.273458 -0.27558,-0.489337 -0.21581,-0.71779 0.12268,-0.469151 0.44367,-0.402423 0.68047,0.14135 0.36839,0.846117 0.0487,1.242654 -0.46464,0.576322 z m -32.645194,-2.0657 c -0.0095,-0.737788 -7.1e-5,-0.760598 0.340257,-0.748141 0.288586,0.0095 0.358269,0.08344 0.39155,0.410105 0.03758,0.368362 -0.379873,1.099011 -0.627875,1.099011 -0.05129,0 -0.09809,-0.342432 -0.104003,-0.760975 z M 45.925145,7.5897743 c 0.0189,-1.164391 0.22337,-1.558848 0.38266,-0.743602 0.1111,0.568049 -0.0303,1.57114 -0.24533,1.742486 -0.117,0.09313 -0.15198,-0.160733 -0.13733,-0.998884 z M 28.10992,6.8920053 c 0.0546,-0.156951 1.924824,-0.892044 2.269832,-0.892044 0.40533,0 -0.321773,0.47662 -1.160397,0.760644 -0.935039,0.316691 -1.184033,0.346167 -1.109435,0.131423 z" display="inline" enable-background="accumulate" fill="currentColor" fill-rule="nonzero" image-rendering="auto" isolation="auto" mix-blend-mode="normal" opacity="0.6" overflow="visible" shape-rendering="auto" solid-color="#000000" solid-opacity="1" stroke-dasharray="none" stroke-dashoffset="0" stroke-linecap="butt" stroke-linejoin="miter" stroke-miterlimit="4" stroke-opacity="1" text-rendering="auto" visibility="visible"/>
 <path class="ColorScheme-Background" d="m 30.378906,6 c -0.345008,0 -2.214931,0.7356271 -2.269531,0.8925781 -0.0746,0.214744 0.174336,0.1838785 1.109375,-0.1328125 C 30.057374,6.4757416 30.784236,6 30.378906,6 Z m 15.742188,0.4160156 c -0.100454,0.018868 -0.1835,0.4460838 -0.195313,1.1738282 -0.01465,0.838151 0.01972,1.0911768 0.136719,0.9980468 0.21503,-0.171346 0.357194,-1.1741385 0.246094,-1.7421875 -0.05973,-0.3057172 -0.127228,-0.4410083 -0.1875,-0.4296875 z m -6.916016,0.2363282 c -0.363516,0.016239 -0.772532,0.1140143 -1.085937,0.2871093 -0.522594,0.28861 -0.521529,0.2879494 -1.923829,0.068359 C 35.424008,6.8870505 34.044365,6.750395 33.130859,6.703125 31.684618,6.628431 31.470703,6.6432084 31.470703,6.8183594 c 0,0.13615 -0.219628,0.2467769 -0.681641,0.3417968 -0.37531,0.077247 -0.931322,0.2617153 -1.234374,0.4101563 -0.303029,0.148446 -0.584404,0.2359725 -0.626954,0.1953125 -0.04231,-0.04089 0.0076,-0.075072 0.113282,-0.076172 0.158132,-0.00165 0.156105,-0.026097 -0.01172,-0.1367187 -0.168674,-0.110422 -0.156667,-0.1286919 0.06836,-0.1074219 0.329857,0.03139 0.746094,-0.1280314 0.746094,-0.2871094 0,-0.132602 -0.72662,-0.1530441 -1.193359,-0.033203 -0.186446,0.048007 -0.285501,0.1506123 -0.244141,0.2539062 0.04708,0.1176901 -0.0923,0.1983563 -0.433594,0.2539063 -0.276248,0.044911 -0.71556,0.1326094 -0.976562,0.1933594 -0.458017,0.106371 -0.464371,0.102202 -0.169922,-0.09375 0.167729,-0.111638 0.304687,-0.2535263 0.304687,-0.3164063 0,-0.218006 -0.417421,-0.1132829 -1.367187,0.3457032 -0.5251,0.253722 -1.059622,0.4296249 -1.1875,0.390625 -0.468512,-0.142698 -5.530544,4.0441862 -6.605469,5.4628902 -0.247174,0.326169 -0.483948,0.505696 -0.626953,0.478516 -0.148441,-0.02834 -0.311015,0.109801 -0.458984,0.388672 -0.125749,0.23701 -0.607299,1.014853 -1.072266,1.730469 -1.057244,1.62716 -1.399577,2.272563 -1.650391,3.111328 -0.108991,0.364415 -0.280935,0.838108 -0.382812,1.052734 -0.101805,0.214696 -0.276097,1.013352 -0.386719,1.775391 -0.201885,1.390907 -0.408669,2.001036 -0.630859,1.86914 -0.06571,-0.039 -0.146661,-0.02554 -0.181641,0.0293 -0.18021,0.282535 -0.515847,2.969744 -0.61914,4.955078 -0.108803,2.089669 -0.09919,2.299279 0.15039,2.925782 0.147969,0.371411 0.503156,1.553542 0.78711,2.626953 1.141984,4.31693 1.540835,5.587365 2.271484,7.222656 2.199274,4.922254 5.752056,8.861009 11.193359,12.410156 2.477602,1.61605 6.4778,3.19745 9.267578,3.66211 v -0.002 c 0.711195,0.118427 1.952864,0.163849 3.771485,0.142579 2.307941,-0.02768 2.908093,-0.0767 4.033203,-0.337891 0.85588,-0.198695 1.322265,-0.369436 1.322265,-0.482422 0,-0.13095 -0.173827,-0.158368 -0.710937,-0.111328 -3.62776,0.318109 -4.549306,0.205009 -6.371094,-0.775391 -1.304611,-0.701598 -1.691083,-0.816479 -1.326172,-0.394531 0.247033,0.285631 -0.164767,0.26489 -1.15039,-0.06055 -0.433482,-0.143217 -0.932096,-0.261719 -1.109375,-0.261719 -0.277033,0 -0.304144,-0.03591 -0.183594,-0.251953 0.227579,-0.408214 0.164867,-0.527343 -0.273438,-0.527343 -0.445442,0 -0.964306,-0.222713 -1.822265,-0.779297 -0.430031,-0.278898 -0.62239,-0.33084 -0.927735,-0.25 -0.333449,0.08814 -0.469661,0.02846 -1.013671,-0.44336 -0.860866,-0.746652 -1.100769,-1.026529 -1.105469,-1.292968 -0.0048,-0.244172 -0.275484,-0.303847 -0.486328,-0.107422 -0.0798,0.07441 -0.638319,-0.306949 -1.470703,-1.001953 -0.738804,-0.616883 -1.27378,-1.144215 -1.1875,-1.171875 0.285348,-0.09124 0.164178,-0.39031 -0.214844,-0.529297 -0.611328,-0.224269 -0.881899,-0.492862 -0.787109,-0.779297 0.06588,-0.199191 -0.06898,-0.381975 -0.59375,-0.806641 -0.373634,-0.302319 -0.766443,-0.677979 -0.873047,-0.833984 -0.185079,-0.271359 -0.176991,-0.279513 0.199218,-0.226563 0.583271,0.08214 0.494666,-0.157322 -0.386718,-1.044921 -0.848125,-0.854083 -1.399288,-1.154198 -1.941407,-1.054688 -0.24734,0.04538 -0.475093,-0.03833 -0.783203,-0.287109 -0.61244,-0.494537 -1.284702,-1.454367 -1.070312,-1.529297 0.109298,-0.03824 0.01497,-0.21417 -0.269531,-0.501953 C 18.58638,41.83474 18.419593,41.50255 18.320312,41 c -0.08318,-0.420884 -0.270956,-0.840212 -0.46289,-1.037109 -0.818319,-0.839569 -1.247675,-2.193907 -1.984375,-6.25 -0.604565,-3.32899 -0.604041,-3.254799 -0.04883,-5.621094 0.381079,-1.624489 0.400524,-1.925781 0.123047,-1.925781 -0.263295,0 -0.271294,0.04116 0.21289,-1.134766 1.086483,-2.638855 3.114925,-5.514421 4.269532,-6.052734 0.521129,-0.242991 0.873046,-0.65772 0.873046,-1.029297 0,-0.07635 -0.09636,-0.103567 -0.21289,-0.06055 -0.166169,0.06117 -0.153258,4.72e-4 0.05664,-0.279297 0.526022,-0.700701 1.189236,-1.189181 2.212891,-1.634766 0.609249,-0.265209 1.105682,-0.573006 1.201172,-0.74414 0.148844,-0.267096 0.137827,-0.285577 -0.136719,-0.216797 -0.164968,0.04132 -0.279906,0.05992 -0.253906,0.04102 0.02603,-0.01912 0.525253,-0.456382 1.109375,-0.970704 0.966194,-0.850726 2.467899,-1.808129 2.015625,-1.285156 -0.1014,0.117217 -0.122338,0.233854 -0.04883,0.277344 0.06973,0.04137 0.200725,-0.01076 0.291015,-0.115234 0.199215,-0.230345 1.379933,-0.767813 2.578125,-1.173829 2.455053,-0.831887 5.901869,-1.03575 7.931641,-0.470703 2.386222,0.664276 4.912549,2.161565 6.917969,4.101563 1.39372,1.348289 2.287255,2.585955 2.796875,3.873047 0.151,0.381386 0.325572,0.724368 0.388672,0.761718 0.20921,0.124095 1.108165,3.687006 1.197265,4.746094 0.06736,0.80026 0.134536,1.04207 0.291016,1.042969 0.16781,10e-4 0.19545,0.190497 0.15625,1.105469 -0.04376,1.022308 -0.07737,1.135176 -0.457031,1.517578 -0.39411,0.397105 -0.406613,0.445641 -0.320313,1.236328 l 0.08984,0.824219 -0.824219,1.251953 c -0.73549,1.118346 -2.155961,2.860808 -1.550781,1.902344 0.18367,-0.290666 0.189746,-0.357422 0.03516,-0.357422 -0.10461,0 -0.449308,0.379184 -0.767578,0.84375 -0.57252,0.835645 -1.062252,1.274264 -1.851562,1.658203 -0.223711,0.108826 -0.74402,0.379311 -1.15625,0.599609 -1.02654,0.548265 -2.141882,0.800781 -3.521485,0.800781 -2.658073,0 -5.459581,-1.274307 -7.191406,-3.271484 -0.719516,-0.829712 -1.757813,-2.685009 -1.757813,-3.142578 0,-0.1579 -0.06719,-0.223888 -0.1875,-0.179688 -0.143241,0.05271 -0.225439,-0.164083 -0.339843,-0.902343 -0.198647,-1.281206 -0.190214,-1.638058 0.06445,-2.929688 0.379543,-1.924918 1.451672,-3.425264 3.378906,-4.726562 1.359374,-0.917855 2.293028,-1.177022 4.203125,-1.169922 1.360249,0.0051 1.744453,0.05331 2.34375,0.292968 0.394242,0.157661 0.790359,0.285104 0.880859,0.283204 0.38474,-0.0082 -0.871414,-0.806185 -1.86914,-1.1875 -0.879634,-0.336121 -1.331712,-0.426087 -2.388672,-0.472657 -2.186463,-0.09604 -3.870213,0.548875 -5.490234,2.103516 -0.919368,0.882282 -1.816407,2.246097 -1.816407,2.761719 0,0.118824 -0.123167,0.408396 -0.27539,0.644531 -0.600028,0.932038 -0.952123,3.908094 -0.623047,5.265625 0.897386,3.702008 2.697804,5.643513 7.035156,7.583984 1.371784,0.613815 1.766686,0.972594 0.744141,0.675782 -0.938041,-0.2723 -2.238674,-0.808291 -2.66211,-1.097657 -0.468963,-0.320335 -0.55664,-0.33291 -0.55664,-0.07813 0,0.134897 -0.249648,0.03974 -0.839844,-0.318359 -0.461729,-0.280242 -0.893034,-0.4765 -0.958985,-0.4375 -0.347702,0.206211 1.9202,1.715598 3.449219,2.294922 2.253592,0.85377 4.807657,1.186175 6.714844,0.876953 1.12085,-0.181722 3.009375,-0.983511 2.796875,-1.1875 -0.09015,-0.08533 -0.266484,-0.07964 -0.527344,0.01563 -0.65361,0.238476 -2.096553,0.492631 -3.324218,0.587891 -0.937074,0.07257 -1.316641,0.04545 -1.964844,-0.146485 L 37.503906,39.125 39.130859,39.03516 c 1.806476,-0.09923 2.880552,-0.308411 4.482422,-0.871094 2.71709,-0.954399 5.119499,-2.97724 6.636719,-5.591796 0.56181,-0.968226 0.744141,-1.133708 0.744141,-0.669922 0,0.368834 0.327418,0.246545 0.386718,-0.144532 0.02577,-0.169455 -0.02663,-0.517698 -0.115234,-0.77539 -0.1239,-0.357678 -0.123746,-0.602221 -0.0039,-1.029297 0.14241,-0.507585 0.177465,-0.541754 0.384765,-0.371094 0.50941,0.418969 0.568829,0.397426 0.486328,-0.1875 -0.04396,-0.310923 0.01664,-1.044128 0.136719,-1.648437 0.11882,-0.59828 0.226481,-1.447351 0.238281,-1.886719 l 0.02344,-0.798828 0.08008,0.751953 c 0.08081,0.769059 0.314778,1.01833 0.392578,0.417969 0.04172,-0.321726 -0.107674,-1.14152 -0.308594,-1.689453 -0.0936,-0.255634 -0.092,-0.256066 0.117188,-0.0098 0.32903,0.387295 0.377374,0.182189 0.152344,-0.646484 -0.14819,-0.54583 -0.181541,-1.05977 -0.119141,-1.839844 0.08479,-1.058804 0.01659,-1.26081 -0.320312,-0.9375 -0.21625,0.207534 -0.61436,-0.579904 -0.63086,-1.246094 -0.0084,-0.360822 -0.09677,-0.59321 -0.285156,-0.740234 -0.15107,-0.11776 -0.392689,-0.408648 -0.537109,-0.646485 l -0.263672,-0.43164 0.384765,0.291015 c 0.21153,0.159788 0.413466,0.263089 0.447266,0.230469 0.0339,-0.03255 -0.119544,-0.370056 -0.339844,-0.75 -0.22039,-0.379945 -0.480325,-0.896025 -0.578125,-1.146484 -0.30211,-0.77218 -0.966605,-1.311134 -1.109375,-0.900391 -0.02666,0.0767 -0.183376,-0.114559 -0.347656,-0.423828 l -0.298828,-0.560547 0.302734,-0.04297 c 0.16619,-0.02316 0.369425,-0.126937 0.453125,-0.230468 0.12502,-0.154564 0.285708,-0.0298 0.898438,0.693359 0.41029,0.484254 1.162552,1.493455 1.669922,2.242187 0.5074,0.74878 0.944056,1.292958 0.972656,1.210938 0.0664,-0.191178 -0.209579,-0.712751 -1.199219,-2.261719 -0.43909,-0.687275 -0.798828,-1.318727 -0.798828,-1.404297 0,-0.08554 -0.09873,-0.343221 -0.220703,-0.572265 L 50.822266,14.001953 51.113281,14.25 c 0.50771,0.43438 0.475403,0.113998 -0.06055,-0.599609 -2.26002,-3.009226 -5.306948,-5.1488648 -9.042968,-6.3496098 -1.15878,-0.372525 -1.45638,-0.3804331 -1.15625,-0.033203 0.15799,0.183388 0.133565,0.1835989 -0.240235,-0.00195 C 40.384141,7.15193 40.116441,6.9655566 40.019531,6.8535156 39.887069,6.7003246 39.568594,6.6361047 39.205078,6.6523438 Z m 0.02344,0.5 c 0.290788,-0.01299 0.494786,0.122653 0.414062,0.029297 0.216053,0.2497861 0.464169,0.390395 0.748047,0.53125 0.09538,0.047346 0.169188,0.0835 0.236328,0.1132813 0.06714,0.029781 0.05575,0.07569 0.300781,0.078125 0.03063,3.043e-4 0.06862,-0.00113 0.117188,-0.011719 0.02428,-0.00529 0.0507,-0.01369 0.08008,-0.025391 0.02938,-0.0117 0.09322,-0.048478 0.09375,-0.048828 9.67e-4,-6.418e-4 0.130656,-0.1434579 0.154297,-0.1699219 0.171542,0.042876 0.20575,0.039334 0.484375,0.1289063 3.64674,1.1720506 6.596134,3.2441805 8.794922,6.1718755 0.01372,0.01827 0.01636,0.0273 0.0293,0.04492 l -0.292969,0.236328 c -0.02746,-0.02375 -0.06577,-0.07804 -0.09375,-0.09961 -0.105421,-0.08125 -0.234049,-0.173718 -0.451172,-0.179687 -0.217123,-0.006 -0.425113,0.139483 -0.509766,0.24414 0.06436,-0.07961 -0.114328,0.04793 -0.134765,0.05078 l -1.009766,0.138672 0.634766,1.195312 c 0.09305,0.175175 0.181295,0.315845 0.28125,0.4375 0.04998,0.06083 0.08412,0.119047 0.21875,0.195313 0.06731,0.03813 0.185816,0.101967 0.378906,0.06055 0.05206,-0.01117 0.05891,-0.06366 0.103516,-0.0918 0.130087,0.111421 0.332509,0.371616 0.449218,0.669921 0.108504,0.277872 0.333917,0.702243 0.542969,1.074219 l -0.417969,0.376953 0.263672,0.431641 c 0.178964,0.294725 0.394179,0.576964 0.65625,0.78125 0.04824,0.03765 0.08911,0.07482 0.0957,0.357422 v 0.002 c 0.01059,0.427377 0.126959,0.833268 0.292969,1.162109 0.08301,0.164421 0.167818,0.310619 0.333985,0.445313 0.07598,0.06159 0.189623,0.119572 0.335937,0.142578 0.0026,0.141704 0.0083,0.130517 -0.01172,0.380859 -0.0605,0.756271 -0.01172,1.310069 0.125,1.873047 -0.0054,0.0013 -0.02143,0.0058 -0.02148,0.0059 -3.95e-4,1.6e-4 -0.142256,0.08761 -0.142578,0.08789 -6.44e-4,5.66e-4 -0.146126,0.217693 -0.146485,0.21875 -5e-5,1.5e-4 -0.003,0.01576 -0.0039,0.01953 h -0.480469 l 0.195313,0.451171 c -0.0044,0.03439 -0.01023,0.07025 -0.01172,0.103516 v 0.002 0.002 c -0.0058,0.111933 -0.01456,0.203026 0.05469,0.367188 0.01199,0.02842 0.08526,0.06747 0.109375,0.105469 l -0.01758,0.603515 c -0.01006,0.374588 -0.115994,1.236173 -0.228515,1.802735 -0.09808,0.493567 -0.111427,0.952555 -0.109375,1.382812 -0.157179,-0.04586 -0.4573,-0.0028 -0.587891,0.123047 -0.135752,0.13082 -0.162599,0.231102 -0.199219,0.330078 -0.03662,0.09898 -0.06684,0.203265 -0.103515,0.333984 -0.133361,0.475262 -0.132911,0.904961 0.01367,1.328125 0.0027,0.008 0.0013,0.01474 0.0039,0.02344 -0.158976,0.03569 -0.238174,0.103751 -0.298828,0.158203 -0.253258,0.227362 -0.39504,0.500212 -0.681641,0.994141 -1.458506,2.513377 -3.771697,4.459407 -6.367187,5.371093 -1.572376,0.552323 -2.566714,0.744078 -4.345703,0.841797 l -1.626954,0.08984 -0.08984,0.771484 c -0.124683,-0.02306 -0.246114,-0.06546 -0.371094,-0.0918 0.09684,-0.07475 0.214384,-0.151362 0.236328,-0.298829 0.02996,-0.201306 -0.04541,-0.31638 -0.08984,-0.382812 -0.04443,-0.06643 -0.0826,-0.10356 -0.11914,-0.136719 -0.146177,-0.132636 -0.299882,-0.218141 -0.529297,-0.341797 -0.229415,-0.123656 -0.52168,-0.266606 -0.873047,-0.423828 -4.270986,-1.91078 -5.88317,-3.65207 -6.753906,-7.244141 -0.135195,-0.557715 -0.142844,-1.623813 -0.02539,-2.615234 0.117452,-0.99142 0.390948,-1.961871 0.583984,-2.261719 0.09311,-0.144443 0.172182,-0.296201 0.234376,-0.441406 0.06219,-0.145204 0.121093,-0.240805 0.121093,-0.474609 0,0.0159 0.02582,-0.134609 0.109375,-0.316406 0.08356,-0.181797 0.214108,-0.410679 0.373047,-0.652344 0.317878,-0.48333 0.754218,-1.023334 1.179688,-1.431641 1.544982,-1.48263 3.045943,-2.056078 5.123047,-1.964844 0.30254,0.01333 0.438078,0.105929 0.652343,0.128907 -1.674454,0.04359 -2.787542,0.336892 -4.082031,1.210937 -2.003558,1.352834 -3.183321,2.991122 -3.587891,5.042969 -0.257682,1.306926 -0.269468,1.806421 -0.06836,3.103516 0.05881,0.379531 0.103087,0.628135 0.185547,0.847656 0.04123,0.10976 0.0854,0.228066 0.232422,0.349609 0.04103,0.03392 0.10713,0.0071 0.164062,0.02734 0.03485,0.18149 0.0697,0.350947 0.154297,0.546875 0.118382,0.274189 0.276037,0.586349 0.457031,0.910156 0.361989,0.647613 0.804301,1.330512 1.207032,1.794922 1.837691,2.119264 4.752418,3.443359 7.570312,3.443359 1.441002,0 2.653216,-0.272417 3.755859,-0.861328 0.407224,-0.217622 0.934168,-0.48941 1.140626,-0.589843 0.850842,-0.413869 1.443369,-0.9462 2.044921,-1.824219 0.0059,-0.0087 0.01161,-0.01288 0.01758,-0.02148 0.02086,0.0036 0.169148,0.02931 0.169921,0.0293 8.27e-4,-1.3e-5 0.08827,-0.0077 0.119141,-0.01563 0.03088,-0.0079 0.05469,-0.01711 0.07422,-0.02539 0.07811,-0.03314 0.103573,-0.05657 0.128906,-0.07617 0.101333,-0.07841 0.140957,-0.131669 0.214844,-0.214844 0.07389,-0.08317 0.159965,-0.185071 0.255859,-0.302734 0.383576,-0.470654 0.925176,-1.186528 1.308594,-1.769532 l 0.921875,-1.404296 -0.109375,-1 c -0.04275,-0.391643 -0.03928,-0.562512 -0.0332,-0.585938 0.0061,-0.02343 0.02109,-0.05089 0.21289,-0.244141 0.201937,-0.203394 0.388477,-0.427828 0.478516,-0.726562 0.09004,-0.298734 0.100963,-0.607137 0.123047,-1.123047 0.01988,-0.463941 0.02899,-0.740358 -0.0059,-0.986328 -0.01741,-0.122985 -0.03953,-0.25648 -0.158203,-0.40625 -0.04594,-0.05798 -0.121198,-0.05269 -0.189453,-0.08984 v -0.002 c -0.02454,-0.08853 -0.06292,-0.337116 -0.0957,-0.726563 -0.05239,-0.622785 -0.301179,-1.752821 -0.566406,-2.804687 -0.132614,-0.525933 -0.269061,-1.021625 -0.388672,-1.404297 -0.05981,-0.191336 -0.114469,-0.353207 -0.167969,-0.486328 -0.02675,-0.06656 -0.05223,-0.125704 -0.08594,-0.1875 -0.0337,-0.0618 -0.02537,-0.130299 -0.230469,-0.251953 0.06823,0.04038 0.07753,0.05269 0.0918,0.06641 -0.0147,-0.02432 -0.03528,-0.06198 -0.0625,-0.115234 -0.06099,-0.119286 -0.138987,-0.290001 -0.208985,-0.466797 -0.542901,-1.37115 -1.48723,-2.668507 -2.914062,-4.048828 -2.063781,-1.996455 -4.645371,-3.5327 -7.130859,-4.22461 -2.200767,-0.612648 -5.660452,-0.389049 -8.226563,0.480469 -0.615351,0.208516 -1.222455,0.449429 -1.710937,0.671875 -0.222584,0.101361 -0.411054,0.196867 -0.578125,0.289063 -0.08835,-0.0633 -0.184087,-0.113467 -0.246094,-0.121094 -0.156401,-0.01924 -0.210465,0.01166 -0.265625,0.0293 -0.220639,0.07056 -0.370466,0.171682 -0.603516,0.320312 -0.4661,0.29726 -1.091899,0.756324 -1.601562,1.205078 -0.291687,0.256832 -0.561289,0.494688 -0.761719,0.669922 -0.100215,0.08762 -0.183579,0.15819 -0.242188,0.208985 -0.0293,0.0254 -0.05267,0.04713 -0.06836,0.06055 l -0.002,0.002 c -0.01432,0.01045 -0.03126,0.02436 -0.05273,0.04492 -0.02194,0.021 -0.0798,0.09721 -0.08008,0.09766 -1.38e-4,2.24e-4 -0.04681,0.09745 -0.04688,0.09766 -7.3e-5,2.07e-4 -0.02733,0.142389 -0.02734,0.142578 -9e-6,1.89e-4 0.02143,0.177562 0.02148,0.177735 9e-6,2.8e-5 0.01,0.01828 0.01367,0.02539 -0.164021,0.09184 -0.331892,0.186564 -0.544922,0.279297 -1.074237,0.467603 -1.832304,1.022578 -2.412109,1.794922 -0.05624,0.07496 -0.102117,0.137704 -0.142578,0.201172 -0.04046,0.06347 -0.08229,0.104056 -0.115235,0.267578 -0.01647,0.08176 -0.03299,0.238515 0.07813,0.402344 -0.09147,0.125639 -0.108263,0.232126 -0.347656,0.34375 -0.784688,0.365846 -1.547944,1.254777 -2.357422,2.402343 -0.809478,1.147567 -1.60346,2.550516 -2.164062,3.91211 -0.241671,0.586939 -0.361722,0.818352 -0.416016,1.107422 -0.01357,0.07227 -0.02991,0.160688 0.0059,0.296875 0.03573,0.136186 0.174496,0.300398 0.296875,0.359375 0.01706,0.0082 0.01002,-0.0027 0.02539,0.0039 -0.02362,0.223422 -0.09723,0.62827 -0.271484,1.371094 -0.554651,2.363897 -0.561371,2.494527 0.04297,5.822265 0.36966,2.035258 0.663245,3.401979 0.978516,4.394531 0.315271,0.992554 0.668208,1.632504 1.140625,2.117188 0.05753,0.05902 0.26224,0.439944 0.330078,0.783203 0.111808,0.565963 0.340338,1.029407 0.712891,1.40625 0.0681,0.06888 0.0736,0.08069 0.107422,0.123047 -0.0034,0.02501 -0.02283,0.05849 -0.02344,0.08008 -0.0043,0.153519 0.03201,0.242096 0.06641,0.330078 0.0688,0.175966 0.166536,0.336392 0.289063,0.511719 0.245053,0.350654 0.581545,0.732855 0.941406,1.023437 0.35944,0.290229 0.779192,0.465544 1.1875,0.390626 0.153747,-0.02822 0.287014,-0.01328 0.527344,0.117187 0.24033,0.130469 0.564248,0.387566 0.970703,0.796875 0.105393,0.106136 0.158139,0.168564 0.238281,0.253906 -0.06253,0.02524 -0.11691,0.02545 -0.183594,0.101563 -0.116966,0.133502 -0.14038,0.330355 -0.125,0.433593 0.01538,0.10324 0.04206,0.15494 0.06445,0.199219 0.04479,0.08856 0.08475,0.14437 0.132812,0.214844 h 0.002 c 0.109393,0.160085 0.23332,0.280062 0.402344,0.441406 0.169024,0.161344 0.369566,0.337197 0.568359,0.498047 0.242992,0.196639 0.37421,0.329181 0.416016,0.382813 -0.04329,0.293863 0.07762,0.614916 0.269531,0.804687 0.199146,0.196931 0.461101,0.32021 0.763672,0.4375 -0.0073,0.02151 -0.0426,0.03493 -0.04492,0.05469 -0.01824,0.155369 0.02124,0.224384 0.04297,0.27539 0.04345,0.102013 0.07759,0.141528 0.115234,0.189453 0.07529,0.09585 0.165865,0.188761 0.28125,0.302735 0.230771,0.227947 0.555871,0.520548 0.933594,0.835937 0.424032,0.354048 0.778775,0.629315 1.056641,0.81836 0.138933,0.09452 0.254332,0.167817 0.375,0.224609 0.06033,0.0284 0.119562,0.05423 0.214843,0.07227 0.05284,0.01 0.172108,-0.05374 0.269532,-0.07422 0.06162,0.161595 0.08927,0.330076 0.21289,0.474609 0.203599,0.238044 0.489351,0.50038 0.925782,0.878906 0.279718,0.242602 0.464856,0.403264 0.71289,0.511719 0.248034,0.108455 0.546103,0.09256 0.75586,0.03711 0.101963,-0.02699 0.107612,-0.02391 0.160156,-0.0098 0.05254,0.01418 0.168776,0.06858 0.367187,0.197266 0.792077,0.513844 1.32848,0.716107 1.876953,0.769531 -0.01557,0.0336 -0.03269,0.05662 -0.04687,0.103516 -0.03134,0.103535 -0.06049,0.32492 0.07617,0.513671 0.13666,0.188752 0.305253,0.22015 0.400391,0.236329 0.09514,0.01618 0.16612,0.01562 0.246094,0.01562 -0.02136,0 0.158331,0.02102 0.34375,0.06445 0.185419,0.04343 0.408482,0.105502 0.609375,0.171875 0.509263,0.16815 0.857042,0.266459 1.167969,0.283203 0.07773,0.0042 0.154187,0.0069 0.257812,-0.01758 0.07182,-0.01695 0.170655,-0.106465 0.261719,-0.1875 0.212166,0.09819 0.326139,0.13897 0.707031,0.34375 0.754647,0.406115 1.431141,0.594917 2.167969,0.75 -0.112761,0.0016 -0.08651,0.01611 -0.208985,0.01758 v -0.002 c -1.807338,0.02114 -3.044298,-0.03026 -3.683593,-0.136719 l -0.01563,-0.002 C 33.012364,56.905199 29.029016,55.333847 26.636719,53.773438 21.253814,50.262381 17.782978,46.406 15.625,41.576172 c -0.719021,-1.609265 -1.10333,-2.832039 -2.244141,-7.144531 -0.286971,-1.08482 -0.623013,-2.227582 -0.804687,-2.683594 -0.118571,-0.297633 -0.157823,-0.409432 -0.175781,-0.755859 -0.01796,-0.346427 0.0043,-0.91785 0.05859,-1.960938 0.0508,-0.97628 0.161467,-2.137372 0.279297,-3.080078 0.05891,-0.471353 0.119982,-0.889211 0.175781,-1.197266 0.01767,-0.09755 0.033,-0.160096 0.04883,-0.232422 h 0.002 c 0.158273,-0.03927 0.265447,-0.12775 0.335937,-0.207031 0.140981,-0.158562 0.195345,-0.310661 0.257813,-0.496094 0.124936,-0.370864 0.225211,-0.884715 0.328125,-1.59375 0.05353,-0.368772 0.122349,-0.750032 0.189453,-1.058593 0.0671,-0.308561 0.159102,-0.584354 0.154297,-0.574219 0.130439,-0.274799 0.29379,-0.735926 0.410156,-1.125 0.235222,-0.786622 0.538638,-1.362602 1.589844,-2.980469 0.469089,-0.72196 0.936008,-1.46486 1.097656,-1.769531 0.04121,-0.07766 0.0637,-0.101378 0.08203,-0.123047 0.22589,-0.0041 0.380452,-0.108409 0.511719,-0.208984 0.160667,-0.123105 0.304273,-0.280058 0.447266,-0.46875 0.33932,-0.447842 1.519596,-1.487966 2.58789,-2.425782 0.05481,0.06713 0.09498,0.14358 0.181641,0.177735 0.277889,0.109516 0.42409,-0.0053 0.503906,-0.05469 0.06433,-0.03982 0.09137,-0.08842 0.134766,-0.128906 l 0.04102,0.002 0.158203,-0.193359 c 0.04355,-0.05324 0.0775,-0.09359 0.109376,-0.136719 0.01594,-0.02157 0.03118,-0.04009 0.05664,-0.08594 0.01273,-0.02292 0.02905,-0.04901 0.04883,-0.123046 0.0049,-0.01851 0.01361,-0.06788 0.01367,-0.06836 6e-5,-4.81e-4 0.002,-0.105078 0.002,-0.105468 -3.3e-5,-3.92e-4 -0.03698,-0.152044 -0.03711,-0.152344 -1.03e-4,-2.45e-4 -0.06519,-0.09522 -0.09375,-0.136719 0.09819,-0.07998 0.173121,-0.13366 0.269531,-0.210937 h 0.03516 c 0.0144,0.02769 0.03106,0.05833 0.03125,0.05859 4.98e-4,6.61e-4 0.136002,0.124554 0.136719,0.125 7.17e-4,4.46e-4 0.104296,0.05143 0.150391,0.0625 0.04609,0.01107 0.08535,0.01367 0.11914,0.01367 0.27039,0 0.26844,-0.06881 0.316407,-0.09961 0.04797,-0.0308 0.08429,-0.0596 0.123046,-0.0918 0.07751,-0.06439 0.157858,-0.141224 0.238282,-0.226563 l 0.154297,-0.1640621 0.002,0.00195 0.390625,-0.2226562 c 0.138736,-0.079935 0.623038,-0.2903385 0.949219,-0.3964844 0.0046,-0.00151 0.0052,-4.808e-4 0.0098,-0.00195 0.198245,-0.063664 0.34901,-0.09869 0.416016,-0.1054687 0.04217,-0.00427 -0.0358,-0.03765 -0.08008,-0.054687 v -0.011719 c 0.134522,0.1043545 0.271427,0.1479625 0.375,0.15625 0.11763,0.00941 0.222252,-1.291e-4 0.335937,-0.017578 0.227371,-0.034898 0.49208,-0.1045246 0.830078,-0.2109375 0.243087,-0.076463 0.446986,-0.1495956 0.619141,-0.2148437 0.03923,0.096237 0.111452,0.2253455 0.220703,0.2851562 0.251408,0.1376357 0.340237,0.065881 0.421875,0.050781 0.163275,-0.030199 0.34865,-0.086391 0.744141,-0.1992188 L 29.248047,8.90625 V 8.890625 c 0.05243,-0.017986 0.123096,-0.037505 0.167969,-0.054687 0.07099,-0.027185 0.128924,-0.048868 0.197265,-0.085937 0.03417,-0.018535 0.06795,-0.031444 0.140625,-0.1015625 0.01817,-0.01753 0.04021,-0.040236 0.06445,-0.074219 0.01212,-0.016991 0.02427,-0.035856 0.03711,-0.060547 0.0036,-0.00691 0.0053,-0.014548 0.0098,-0.025391 0.0088,0.00317 0.09429,0.033785 0.126954,0.039063 0.03418,0.00552 0.0607,0.00769 0.08203,0.00781 0.04267,2.383e-4 0.06771,-0.0044 0.08984,-0.00781 0.08853,-0.013661 0.124025,-0.027758 0.179688,-0.046875 0.07213,-0.024693 0.46191,-0.1215203 0.738281,-0.1699219 l 0.542969,-0.09375 -0.0039,-0.046875 c 0.0587,0.00803 0.121739,0.021484 0.179687,0.021484 0.136186,0 0.25116,-0.028239 0.361328,-0.076172 0.110169,-0.047933 0.222845,-0.1035216 0.330079,-0.2695313 0.0093,-0.014354 -0.0016,-0.058867 0.0078,-0.078125 0.05523,-0.005 0.09811,0.00489 0.177734,-0.025391 0.0076,-0.00291 0.02242,-0.025931 0.03125,-0.029297 0.02612,0.021844 0.08548,0.071982 0.08594,0.072266 0.0011,6.941e-4 0.09033,0.046542 0.115234,0.054688 0.09963,0.032586 0.116105,0.025646 0.152344,0.029297 0.144956,0.014604 0.339899,0.017338 0.644531,0.017578 0.304422,2.414e-4 0.514457,-0.00321 0.660157,-0.015625 0.03643,-0.0031 0.06573,-0.00509 0.123046,-0.017578 0.02866,-0.00624 0.05665,-0.00133 0.158204,-0.060547 0.01014,-0.00591 0.02012,-0.01631 0.03711,-0.029297 0.0023,0.00334 0.03268,0.047877 0.04883,0.066406 0.03337,0.038287 0.06349,0.063352 0.08984,0.082031 0.105422,0.074717 0.151709,0.075956 0.191406,0.085937 0.158788,0.039925 0.239049,0.033203 0.386719,0.033203 0.143858,0 0.2258,0.00337 0.376953,-0.033203 0.0036,0.00384 0.0023,0.016111 0.0059,0.019531 0.16672,0.1598151 0.239166,0.1349033 0.300782,0.1464844 0.06162,0.011581 0.11101,0.015359 0.166015,0.017578 h 0.002 0.002 c 0.109186,0.00359 0.195239,0.011363 0.353516,-0.048828 0.07914,-0.030096 0.228198,-0.075884 0.318359,-0.3085937 0.02767,-0.071415 0.008,-0.1485726 0.002,-0.2265626 0.1685,0.019015 0.43765,0.071373 0.576171,0.066406 0.333916,-0.011972 0.594158,-0.1427968 0.855469,-0.2871094 0.222129,-0.1226825 0.576399,-0.2116193 0.867188,-0.2246093 z m 9.269531,12.5371092 c 0.0018,0.0029 0.0063,0.01132 0.0078,0.01367 0.0089,0.01388 0.01669,0.0099 -0.0078,-0.01367 z M 32.359375,7.1816406 c 0.07009,0.00153 0.267003,0.04753 0.132852,0.093747 -0.03282,0.011109 -0.0843,0.017862 -0.152344,0.015625 -0.15813,-0.00638 -0.190289,-0.036525 -0.08203,-0.078125 0.03939,-0.015513 0.0815,-0.017711 0.121094,-0.019531 -0.0068,-0.00397 -0.01278,-0.00696 -0.01953,-0.011719 z m -0.548828,0.3632813 c 0.02385,-0.00717 0.0381,-0.014384 0.06641,-0.021484 0.149389,-0.03735 0.237153,-0.013989 0.195313,0.050781 -0.02757,0.042678 -0.09201,0.073034 -0.16211,0.09375 0.06178,0.043135 0.103063,0.050288 0.142578,0.056641 -0.0037,0.041653 -0.346088,0.1991524 -0.429719,0.00977 -0.07228,-0.1636778 0.155323,-0.2606098 0.1875,-0.1894531 z m 1.949219,-0.2304688 c 0.196596,1.651e-4 0.38851,0.00754 0.527343,0.021484 0.277666,0.0286 0.0165,0.051254 -0.580078,0.050781 -0.596553,-4.7e-4 -0.822795,-0.023361 -0.503906,-0.050781 0.159444,-0.013755 0.360044,-0.021649 0.556641,-0.021484 z m 1.455078,0.097656 c 0.128672,0.01496 0.262114,0.022006 0.378906,0.037109 9.64e-4,0.00882 10e-4,0.00898 0.002,0.017578 0.0131,0.00242 0.03112,9.432e-4 0.04297,0.00391 0.08156,0.020536 0.0464,0.036161 -0.03711,0.046875 0.0014,0.013347 0.0039,0.04313 0.0039,0.042969 1.11e-4,-8.671e-4 -0.06694,0.1922954 -0.06641,0.1914062 5.32e-4,-8.892e-4 -0.05736,0.078112 -0.08203,0.1015625 -0.02168,0.020609 -0.03875,0.033907 -0.05469,0.044922 -0.01589,-0.011001 -0.03308,-0.024358 -0.05469,-0.044922 -0.02459,-0.023399 -0.08256,-0.1024531 -0.08203,-0.1015625 5.33e-4,8.906e-4 -0.06652,-0.190321 -0.06641,-0.1894531 2.2e-5,1.688e-4 0.0027,-0.03289 0.0039,-0.044922 -0.08351,-0.010763 -0.120603,-0.026489 -0.03906,-0.046875 0.01229,-0.00307 0.0313,-0.00141 0.04492,-0.00391 0.0025,-0.023945 0.0032,-0.029801 0.0059,-0.054687 z m 0.96875,0.097656 c 0.183387,0.028895 0.24074,0.023764 0.380859,0.044922 0.0183,0.063876 0.06685,0.1033195 0.05664,0.1679687 -0.026,0.1646648 -0.107515,0.2404203 -0.150391,0.2792969 -0.08272,0.075003 -0.0966,0.067025 -0.09766,0.066406 h -0.002 c -0.01816,0.00707 -0.02311,0.00876 -0.04883,0.00781 -0.02672,-9.855e-4 -0.09209,0.019792 -0.21875,-0.1015625 l -0.06055,-0.1191406 c 0.0097,-0.00945 0.01709,-0.013618 0.02734,-0.025391 0.01671,-0.019193 0.05053,-0.067944 0.05078,-0.068359 2.54e-4,-4.157e-4 0.04477,-0.093328 0.04492,-0.09375 7e-6,-2.09e-5 -3.3e-5,-0.00561 0,-0.00586 -0.02926,-0.010822 -0.02585,-0.024872 0.0059,-0.042969 0.0035,-0.030752 0.0066,-0.061266 0.01172,-0.109375 z m -5.119141,0.203125 0.474609,0.011719 -0.542968,0.09375 c -0.298277,0.052238 -0.665303,0.13644 -0.814453,0.1875 -0.175505,0.060275 -0.150994,0.023826 0.06836,-0.1054688 0.186427,-0.109676 0.553451,-0.1946 0.814453,-0.1875 z m -5.150391,0.5273438 c 0.02216,0.01037 0.04112,0.031052 0.06641,0.048828 -0.0027,5.023e-4 -0.0091,0.00147 -0.01172,0.00195 -0.02493,-0.021802 -0.04675,-0.027436 -0.07227,-0.042969 0.0062,-0.00291 0.01135,-0.00488 0.01758,-0.00781 z m 1.716797,0.017578 c 0.02955,0.028365 -0.376321,0.1861025 -0.902343,0.3515625 -0.650921,0.204931 -0.99944,0.2584987 -1.09375,0.1679688 -0.09424,-0.090527 -0.349943,-0.063101 -0.796875,0.082031 -0.361176,0.117335 -0.83077,0.314114 -1.044922,0.4375 l -0.390625,0.2246094 0.363281,-0.2832032 c 0.530276,-0.412682 1.763283,-0.8083378 1.892578,-0.6074218 0.07656,0.118895 0.325271,0.08725 1.011719,-0.1328125 0.499784,-0.160167 0.931387,-0.2685944 0.960937,-0.2402342 z m 1.78125,0.015625 c 0.02869,0.027419 -0.270314,0.1416292 -0.664062,0.2539063 v 0.00195 c -0.790426,0.225498 -0.802735,0.2271475 -0.802735,0.1484375 10e-7,-0.078192 1.403447,-0.4650469 1.466797,-0.4042969 z m -6.103515,1.2402344 c 0.03073,0 -0.0277,0.087444 -0.121094,0.1953125 0.0061,0.00567 0.02353,0.021601 0.02344,0.021484 -4.97e-4,-6.606e-4 0.0745,0.1454008 0.07422,0.1445312 -2.81e-4,-8.696e-4 0.02127,0.08384 0.02344,0.1171875 5.53e-4,0.00853 -1.2e-4,0.013745 0,0.021483 -0.03146,0 -0.06907,-0.0031 -0.113282,-0.01367 -0.04421,-0.010616 -0.145247,-0.060992 -0.144531,-0.060546 2.52e-4,1.566e-4 -0.02862,-0.025619 -0.04687,-0.042969 -0.08436,0.076942 -0.160678,0.1367185 -0.185547,0.1367185 -0.03104,0 0.03169,-0.087715 0.126953,-0.1972654 l -0.0098,-0.019531 c 0.02925,-0.022532 0.05842,-0.044947 0.08789,-0.068359 0.125776,-0.1293723 0.250419,-0.234375 0.285156,-0.234375 z m -1.59961,1.3007807 c 0.0031,0.0029 -0.03787,0.04943 -0.05273,0.07031 0.04296,0.03656 0.09439,0.07037 0.109375,0.105468 0.0357,0.08358 0.03516,0.134125 0.03516,0.164063 0,0.107948 -0.02299,0.122832 -0.04102,0.15625 -0.0033,1.8e-5 -0.0922,0.0019 -0.0918,0.002 4.07e-4,3.1e-5 -0.140939,-0.03332 -0.140625,-0.0332 2.8e-4,1.08e-4 -0.119263,-0.07663 -0.146485,-0.09375 -0.05085,0.03198 -0.08008,0.02278 -0.08008,-0.03125 0,-0.02695 0.107805,-0.128233 0.238281,-0.226563 0.04165,-0.03135 0.04025,-0.02437 0.06641,-0.04297 0.0099,-0.0087 0.01436,-0.01614 0.02539,-0.02539 l 0.0039,0.0039 c 0.02159,-0.01413 0.07116,-0.05176 0.07422,-0.04883 z m 28.376954,5.117188 c -0.0075,0.02149 -0.03949,0.08455 -0.107422,0.132812 -0.0208,0.01478 -0.03959,0.0085 -0.0625,0.01758 0.05505,-0.06001 0.15279,-0.101103 0.169922,-0.15039 z m -38.964844,6.904297 c -0.340328,-0.01246 -0.349344,0.01026 -0.339844,0.748046 0.0059,0.418543 0.05223,0.761719 0.103516,0.761719 0.248002,0 0.664533,-0.731247 0.626953,-1.099609 -0.03328,-0.326665 -0.102039,-0.400657 -0.390625,-0.410156 z m 41.064453,1.761718 c 0.01248,0.03664 0.02324,0.07202 0.03906,0.115235 0.03292,0.08978 0.05535,0.214001 0.08594,0.322265 l -0.1875,0.0078 c -0.01498,-0.01264 -0.05643,-0.02308 -0.06641,-0.0332 -0.08068,-0.0819 -0.07537,-0.100697 -0.07617,-0.103516 v -0.002 z m -8.677735,0.02539 c -0.125182,-0.02601 -0.235534,0.07402 -0.296874,0.308594 -0.05977,0.228453 0.0042,0.445292 0.214843,0.71875 0.51334,0.666332 0.833234,0.269945 0.464844,-0.576172 -0.1184,-0.271887 -0.25763,-0.425162 -0.382813,-0.451172 z m 8.88086,0.03125 c 0.01426,-0.01368 0.03304,0.0048 0.05469,0.05664 h -0.002 c 0.0409,0.09384 0.03533,0.206739 -0.0098,0.25 -0.045,0.04326 -0.07731,-0.03283 -0.07031,-0.169922 0.0033,-0.07587 0.01308,-0.123039 0.02734,-0.136719 z m -2.746094,0.6875 c 0.089,5.11e-4 0.234118,0.07469 0.279297,0.128906 0.03747,0.04496 0.02441,0.0363 0.01563,0.01367 -0.106948,-0.05734 -0.212553,-0.142068 -0.294922,-0.142578 z m -38.746094,1.638672 c -0.122909,-0.03902 -0.169922,0.159932 -0.169922,0.726562 0,0.429488 0.03688,0.873106 0.08203,0.986328 0.04538,0.11322 0.139014,0.207032 0.208984,0.207032 0.197299,0 0.08029,-1.856102 -0.121094,-1.919922 z M 43.824219,28.0625 c -0.06618,-0.03919 -0.162091,0.24969 -0.212891,0.640625 -0.05472,0.420388 -0.203021,0.830708 -0.363281,1.005859 l -0.271485,0.296875 0.0625,-0.326171 c 0.03451,-0.178887 0.10751,-0.515457 0.16211,-0.748047 0.15142,-0.646075 -0.120363,-0.507375 -0.382813,0.195312 -0.30553,0.818106 -0.291751,1.058105 0.07422,1.199219 0.59795,0.230652 0.741791,0.160784 0.900391,-0.44336 0.18126,-0.691624 0.19908,-1.720802 0.03125,-1.820312 z m -2.613281,4.027344 c -0.02945,-0.02825 -0.326397,0.06551 -0.660157,0.208984 -0.333753,0.143454 -0.895797,0.319538 -1.25,0.392578 -0.616836,0.127003 -0.853277,0.398372 -0.474609,0.544922 0.0932,0.03617 0.50391,0.07147 0.914062,0.07617 0.741148,0.01 0.747896,0.0075 1.134766,-0.580078 0.21394,-0.325176 0.365538,-0.614208 0.335938,-0.642578 z m -10.978516,2.925781 c -0.289887,0 -0.05904,0.372811 0.658203,1.068359 0.426462,0.413557 0.79123,0.751954 0.8125,0.751954 0.02151,0 0.03906,-0.074 0.03906,-0.164063 -10e-7,-0.191391 -1.33556,-1.65625 -1.509766,-1.65625 z M 29.8125,36.316406 c -0.05744,0 -0.105469,0.161831 -0.105469,0.361328 0,0.376092 0.511528,0.86876 1.892578,1.81836 0.357772,0.246089 0.636706,0.361494 0.666016,0.277344 0.05049,-0.145346 -2.257645,-2.457032 -2.453125,-2.457032 z m 3.216797,1.544922 0.373047,0.21875 c 0.205029,0.119746 0.373047,0.239918 0.373047,0.267578 0,0.101498 -0.11344,0.0427 -0.425782,-0.21875 z m -7.5625,11.40625 c -0.06475,0.02076 -0.09119,0.117321 -0.152344,0.183594 0.0052,-0.01579 -0.004,-0.02595 0.0039,-0.04102 0.05329,-0.100987 0.134215,-0.13803 0.148438,-0.142578 z" fill="currentColor" opacity="0.6"/>
</svg>