<?xml version="1.0" encoding="utf-8"?>
<svg height="128" version="1.1" viewBox="0 0 128 128" width="128" xmlns="http://www.w3.org/2000/svg" xmlns:svg="http://www.w3.org/2000/svg" xmlns:xlink="http://www.w3.org/1999/xlink">
 <namedview bordercolor="#666666" borderopacity="1.0" id="namedview-conformist" pagecolor="#ffffff" pageopacity="0.0" pageshadow="0" showgrid="true">
  <grid class="ColorScheme-Background" empspacing="4" fill="currentColor" opacity="0.6" type="xygrid"/>
 </namedview>
 <defs id="primary-definitions">
  <style class="ColorScheme-Background" fill="currentColor" opacity="0.6" type="text/css">
   .ColorScheme-Text           { color:#eff0f1; }
      .ColorScheme-Background     { color:#31363b; }
      .ColorScheme-Highlight      { color:#3daefd; }
      .ColorScheme-ViewBackground { color:#fcfcfc; }
      .ColorScheme-PositiveText   { color:#27ae60; }
      .ColorScheme-NeutralText    { color:#f67400; }
      .ColorScheme-NegativeText   { color:#da4453; }
  </style>
 </defs>
 <path class="ColorScheme-Background" d="m 9,24 c -0.554,0 -1,0.446 -1,1 v 78 c 0,0.554 0.446,1 1,1 h 110 c 0.554,0 1,-0.446 1,-1 V 25 c 0,-0.554 -0.446,-1 -1,-1 z m 3,3 h 2 c 1,0 1.343233,1 2,1 h 2 c 0.554,0 1,0.446 1,1 v 3 c 0,0.554 -0.446,1 -1,1 h -6 c -0.554,0 -1,-0.446 -1,-1 v -4 c 0,-0.554 0.517619,-1 1,-1 z m 0,8 h 2 c 1,0 1.343233,1 2,1 h 2 c 0.554,0 1,0.446 1,1 v 3 c 0,0.554 -0.446,1 -1,1 h -6 c -0.554,0 -1,-0.446 -1,-1 v -4 c 0,-0.554 0.517619,-1 1,-1 z M 9,99 h 110 v 4 H 9 Z m 2,1 c -0.552285,0 -1,0.44772 -1,1 0,0.55228 0.447715,1 1,1 0.552285,0 1,-0.44772 1,-1 0,-0.55228 -0.447715,-1 -1,-1 z m 101,0 c -0.554,0 -1,0.446 -1,1 0,0.554 0.446,1 1,1 0.554,0 1,-0.446 1,-1 0,-0.554 -0.446,-1 -1,-1 z m 3,0 c -0.554,0 -1,0.446 -1,1 0,0.554 0.446,1 1,1 h 2 c 0.554,0 1,-0.446 1,-1 0,-0.554 -0.446,-1 -1,-1 z" fill="currentColor" opacity="0.6" paint-order="stroke fill markers" stop-color="#000000" stroke-linecap="round" stroke-linejoin="round"/>
 <path class="ColorScheme-Background" d="M 9 24 C 8.446 24 8 24.446 8 25 L 8 103 C 8 103.554 8.446 104 9 104 L 119 104 C 119.554 104 120 103.554 120 103 L 120 25 C 120 24.446 119.554 24 119 24 L 9 24 z M 9 24.5 L 119 24.5 C 119.28565 24.5 119.5 24.714352 119.5 25 L 119.5 99 A 0.50005 0.50005 0 0 0 119 98.5 L 9 98.5 A 0.50005 0.50005 0 0 0 8.5 99 L 8.5 25 C 8.5 24.714352 8.7143517 24.5 9 24.5 z M 12 26.5 C 11.209426 26.5 10.5 27.134557 10.5 28 L 10.5 32 C 10.5 32.822351 11.177649 33.5 12 33.5 L 18 33.5 C 18.822351 33.5 19.5 32.822351 19.5 32 L 19.5 29 C 19.5 28.177649 18.822351 27.5 18 27.5 L 16 27.5 C 15.92539 27.5 15.764367 27.384793 15.453125 27.119141 C 15.141883 26.853489 14.666666 26.5 14 26.5 L 12 26.5 z M 12 27 L 14 27 C 15 27 15.343233 28 16 28 L 18 28 C 18.554 28 19 28.446 19 29 L 19 32 C 19 32.554 18.554 33 18 33 L 12 33 C 11.446 33 11 32.554 11 32 L 11 28 C 11 27.446 11.517619 27 12 27 z M 12 34.5 C 11.209426 34.5 10.5 35.134557 10.5 36 L 10.5 40 C 10.5 40.822351 11.177649 41.5 12 41.5 L 18 41.5 C 18.822351 41.5 19.5 40.822351 19.5 40 L 19.5 37 C 19.5 36.177649 18.822351 35.5 18 35.5 L 16 35.5 C 15.92539 35.5 15.764367 35.384793 15.453125 35.119141 C 15.141883 34.853489 14.666666 34.5 14 34.5 L 12 34.5 z M 12 35 L 14 35 C 15 35 15.343233 36 16 36 L 18 36 C 18.554 36 19 36.446 19 37 L 19 40 C 19 40.554 18.554 41 18 41 L 12 41 C 11.446 41 11 40.554 11 40 L 11 36 C 11 35.446 11.517619 35 12 35 z M 9 99 L 119 99 L 119 103 L 9 103 L 9 99 z M 11 100 C 10.447715 100 10 100.44772 10 101 C 10 101.55228 10.447715 102 11 102 C 11.552285 102 12 101.55228 12 101 C 12 100.44772 11.552285 100 11 100 z M 112 100 C 111.446 100 111 100.446 111 101 C 111 101.554 111.446 102 112 102 C 112.554 102 113 101.554 113 101 C 113 100.446 112.554 100 112 100 z M 115 100 C 114.446 100 114 100.446 114 101 C 114 101.554 114.446 102 115 102 L 117 102 C 117.554 102 118 101.554 118 101 C 118 100.446 117.554 100 117 100 L 115 100 z M 11 100.5 C 11.282062 100.5 11.5 100.71794 11.5 101 C 11.5 101.28206 11.282062 101.5 11 101.5 C 10.717938 101.5 10.5 101.28206 10.5 101 C 10.5 100.71794 10.717938 100.5 11 100.5 z M 112 100.5 C 112.28565 100.5 112.5 100.71435 112.5 101 C 112.5 101.28565 112.28565 101.5 112 101.5 C 111.71435 101.5 111.5 101.28565 111.5 101 C 111.5 100.71435 111.71435 100.5 112 100.5 z M 115 100.5 L 117 100.5 C 117.28565 100.5 117.5 100.71435 117.5 101 C 117.5 101.28565 117.28565 101.5 117 101.5 L 115 101.5 C 114.71435 101.5 114.5 101.28565 114.5 101 C 114.5 100.71435 114.71435 100.5 115 100.5 z " fill="currentColor" opacity="0.6" paint-order="stroke fill markers" stroke-linecap="round" stroke-linejoin="round"/>
</svg>