<?xml version="1.0" encoding="utf-8"?>
<svg height="32" version="1.1" width="32" xmlns="http://www.w3.org/2000/svg" xmlns:svg="http://www.w3.org/2000/svg" xmlns:xlink="http://www.w3.org/1999/xlink">
 <namedview bordercolor="#666666" borderopacity="1.0" id="namedview-conformist" pagecolor="#ffffff" pageopacity="0.0" pageshadow="0" showgrid="true">
  <grid class="ColorScheme-Background" empspacing="4" fill="currentColor" opacity="0.6" type="xygrid"/>
 </namedview>
 <defs id="primary-definitions">
  <style class="ColorScheme-Background" fill="currentColor" opacity="0.6" type="text/css">
   .ColorScheme-Text           { color:#eff0f1; }
      .ColorScheme-Background     { color:#31363b; }
      .ColorScheme-Highlight      { color:#3daefd; }
      .ColorScheme-ViewBackground { color:#fcfcfc; }
      .ColorScheme-PositiveText   { color:#27ae60; }
      .ColorScheme-NeutralText    { color:#f67400; }
      .ColorScheme-NegativeText   { color:#da4453; }
  </style>
 </defs>
 <path class="ColorScheme-Background" d="m 22.5,1.4211619 c -0.239889,-0.1385 -0.544513,-0.05688 -0.683013,0.183013 l -0.75,1.2990376 -0.433013,-0.25 c -0.479778,-0.277 -1.089025,-0.1137526 -1.366025,0.3660254 l -5,8.6602541 c -0.277,0.479778 -0.113753,1.089026 0.366025,1.366026 l 1.732051,1 c 0.479778,0.277 1.089025,0.113752 1.366025,-0.366026 l 3.729493,-6.45967 c 0.190266,0.7472661 0.192088,1.6672935 -0.363467,2.6295429 l -4.5,7.7942291 a 0.5,0.5 0 0 0 0.183013,0.683012 0.5,0.5 0 0 0 0.683012,-0.183012 l 4.5,-7.794229 C 22.9076,8.7151768 22.571668,7.1557557 22.103144,6.1085355 L 22.73205,5.0192379 c 0.277,-0.479778 0.113753,-1.0890254 -0.366025,-1.3660254 l -0.433013,-0.25 0.75,-1.2990381 C 22.821512,1.8642854 22.739892,1.5596619 22.5,1.4211619 Z M 13.267949,13.411543 8.2679494,22.071797 C 6.2679492,25.535899 6,30 6,30 c 0,0 3.7320504,-2.464101 5.73205,-5.928203 l 5,-8.660254 z" fill="currentColor" opacity="0.6" stroke-linecap="butt" stroke-linejoin="miter" stroke-opacity="1"/>
 <path class="ColorScheme-Background" d="m 17.914062,21.667969 c -1.092801,0.07529 -1.753201,1.160537 -2.051709,2.105214 -0.01054,0.850851 -0.853925,0.826631 -1.476567,1.001302 -0.93813,0.219788 -1.883951,0.407009 -2.835011,0.561497 -0.876534,0.237299 -0.184095,1.289133 0.456104,0.9291 1.041319,-0.206471 2.080115,-0.426677 3.112262,-0.675238 -0.215087,0.537612 -0.244361,1.403149 -0.874955,1.579453 -0.686795,0.178965 -1.462625,1.052333 -0.721721,1.659088 0.61151,0.527986 1.437041,-0.101975 1.698992,-0.708532 0.355559,-0.683094 1.437861,-0.637355 2.121949,-0.926406 0.388489,-0.08427 1.137426,-0.423476 0.647231,0.152773 -0.620008,0.698934 0.560589,1.381807 0.8661,0.501123 0.309475,-0.523335 0.618949,-1.046669 0.928424,-1.570004 0.425295,0.156707 0.46492,0.976741 1.179723,0.890625 0.405717,0.0593 1.177789,-0.604642 0.767578,0.15039 -0.65836,0.751029 -1.291038,1.60383 -1.492188,2.601563 -0.104233,1.035828 1.332499,0.863369 1.490721,0.0028 0.379505,-0.676054 0.666814,-1.4005 0.897947,-2.13948 0.224156,-0.168354 0.449738,-0.925046 0.709129,-0.371679 0.904957,0.168918 0.964376,-1.283062 1.93096,-1.310673 0.287329,-0.0096 -0.253664,0.718842 -0.208554,1.046952 -0.172319,0.839266 0.770962,1.57184 1.489775,0.99615 0.734636,-0.471187 1.379117,-1.080029 1.961982,-1.724716 0.348729,-0.795351 -0.839248,-0.896681 -1.119703,-0.268906 -0.353698,0.286948 -1.03713,1.103098 -1.310813,0.992279 0.178411,-0.657205 0.540426,-1.246344 0.766434,-1.882693 -0.151682,-1.087542 -1.473357,-0.124103 -1.969242,-0.108394 0.127716,-0.350173 0.430949,-0.719234 0.113629,-1.059538 -0.722077,-0.526882 -0.905505,0.577123 -1.283273,0.944943 -0.303068,0.258759 -0.735953,0.964896 -1.006527,0.879984 -0.338722,-0.180788 -0.360473,-0.134184 -0.04059,-0.398376 0.418768,-0.847057 -0.743092,-1.308992 -1.405131,-1.053674 -0.462004,-0.08575 -0.916486,1.026856 -0.96548,0.538132 -0.329367,-0.623972 -0.941295,-0.166295 -1.0888,0.295838 -0.159496,0.345339 -0.361581,0.630062 -0.795223,0.59921 -0.88054,0.2153 -1.76928,0.413978 -2.624385,0.7173 0.324591,-0.657724 0.342803,-1.605312 1.282462,-1.607003 0.854081,-0.308468 1.884634,-0.622693 2.302751,-1.508422 0.323783,-0.879901 -0.59642,-1.82515 -1.454281,-1.831947 z m 0.04688,1 c 1.018376,0.309432 -0.03144,1.076556 -0.621964,1.135123 -0.342862,0.153069 -0.508102,0.196913 -0.277937,-0.19376 0.11606,-0.425981 0.44277,-0.867546 0.899901,-0.941363 z" fill="currentColor" opacity="0.6" stroke-linecap="round" stroke-linejoin="round"/>
 <path class="ColorScheme-Background" d="m 17.914062,21.667969 c -1.092801,0.07529 -1.753201,1.160537 -2.051709,2.105214 -0.01054,0.850851 -0.853925,0.826631 -1.476567,1.001302 -0.93813,0.219788 -1.883951,0.407009 -2.835011,0.561497 -0.876534,0.237299 -0.184095,1.289133 0.456104,0.9291 1.041319,-0.206471 2.080115,-0.426677 3.112262,-0.675238 -0.215087,0.537612 -0.244361,1.403149 -0.874955,1.579453 -0.686795,0.178965 -1.462625,1.052333 -0.721721,1.659088 0.61151,0.527986 1.437041,-0.101975 1.698992,-0.708532 0.355559,-0.683094 1.437861,-0.637355 2.121949,-0.926406 0.388489,-0.08427 1.137426,-0.423476 0.647231,0.152773 -0.620008,0.698934 0.560589,1.381807 0.8661,0.501123 0.309475,-0.523335 0.618949,-1.046669 0.928424,-1.570004 0.425295,0.156707 0.46492,0.976741 1.179723,0.890625 0.405717,0.0593 1.177789,-0.604642 0.767578,0.15039 -0.65836,0.751029 -1.291038,1.60383 -1.492188,2.601563 -0.104233,1.035828 1.332499,0.863369 1.490721,0.0028 0.379505,-0.676054 0.666814,-1.4005 0.897947,-2.13948 0.224156,-0.168354 0.449738,-0.925046 0.709129,-0.371679 0.904957,0.168918 0.964376,-1.283062 1.93096,-1.310673 0.287329,-0.0096 -0.253664,0.718842 -0.208554,1.046952 -0.172319,0.839266 0.770962,1.57184 1.489775,0.99615 0.734636,-0.471187 1.379117,-1.080029 1.961982,-1.724716 0.348729,-0.795351 -0.839248,-0.896681 -1.119703,-0.268906 -0.353698,0.286948 -1.03713,1.103098 -1.310813,0.992279 0.178411,-0.657205 0.540426,-1.246344 0.766434,-1.882693 -0.151682,-1.087542 -1.473357,-0.124103 -1.969242,-0.108394 0.127716,-0.350173 0.430949,-0.719234 0.113629,-1.059538 -0.722077,-0.526882 -0.905505,0.577123 -1.283273,0.944943 -0.303068,0.258759 -0.735953,0.964896 -1.006527,0.879984 -0.338722,-0.180788 -0.360473,-0.134184 -0.04059,-0.398376 0.418768,-0.847057 -0.743092,-1.308992 -1.405131,-1.053674 -0.462004,-0.08575 -0.916486,1.026856 -0.96548,0.538132 -0.329367,-0.623972 -0.941295,-0.166295 -1.0888,0.295838 -0.159496,0.345339 -0.361581,0.630062 -0.795223,0.59921 -0.88054,0.2153 -1.76928,0.413978 -2.624385,0.7173 0.324591,-0.657724 0.342803,-1.605312 1.282462,-1.607003 0.854081,-0.308468 1.884634,-0.622693 2.302751,-1.508422 0.323783,-0.879901 -0.59642,-1.82515 -1.454281,-1.831947 z m 0.04688,1 c 1.018376,0.309432 -0.03144,1.076556 -0.621964,1.135123 -0.342862,0.153069 -0.508102,0.196913 -0.277937,-0.19376 0.11606,-0.425981 0.44277,-0.867546 0.899901,-0.941363 z" fill="currentColor" opacity="0.6" stroke-linecap="round" stroke-linejoin="round"/>
 <path class="ColorScheme-Background" d="M 22.214844 1.3554688 C 22.054859 1.3666517 21.902969 1.4535825 21.816406 1.6035156 L 21.066406 2.9023438 L 20.634766 2.6523438 C 20.154988 2.3753437 19.544578 2.5397533 19.267578 3.0195312 L 14.267578 11.679688 C 13.990578 12.159465 14.154988 12.767922 14.634766 13.044922 L 16.365234 14.044922 C 16.845012 14.321922 17.455422 14.159465 17.732422 13.679688 L 21.460938 7.2207031 C 21.651204 7.9679692 21.653211 8.88736 21.097656 9.8496094 L 16.597656 17.644531 A 0.5 0.5 0 0 0 16.78125 18.326172 A 0.5 0.5 0 0 0 17.464844 18.144531 L 21.964844 10.349609 C 22.908343 8.7154212 22.57204 7.1565952 22.103516 6.109375 L 22.732422 5.0195312 C 23.009422 4.5397533 22.845012 3.9293437 22.365234 3.6523438 L 21.933594 3.4023438 L 22.683594 2.1035156 C 22.822094 1.8636266 22.739892 1.560375 22.5 1.421875 C 22.410042 1.3699375 22.310835 1.348759 22.214844 1.3554688 z M 20.097656 3.015625 C 20.192998 3.0096076 20.291998 3.0323784 20.384766 3.0859375 L 21.25 3.5859375 L 22.115234 4.0859375 C 22.362613 4.2287616 22.441652 4.5221525 22.298828 4.7695312 L 21.642578 5.90625 L 21.542969 6.0800781 L 17.298828 13.429688 C 17.156004 13.677065 16.862613 13.756105 16.615234 13.613281 L 14.884766 12.613281 C 14.637387 12.470457 14.558348 12.177066 14.701172 11.929688 L 19.701172 3.2695312 C 19.790437 3.1149194 19.938753 3.0256541 20.097656 3.015625 z M 13.267578 13.412109 L 8.2675781 22.072266 C 6.2675779 25.536368 6 30 6 30 C 6 30 9.7324223 27.536368 11.732422 24.072266 L 16.732422 15.412109 L 13.267578 13.412109 z M 13.451172 14.09375 L 16.048828 15.59375 L 11.298828 23.822266 C 9.8229099 26.378632 7.751371 28.02916 6.6757812 28.830078 C 6.8314996 27.498577 7.2249773 24.87911 8.7011719 22.322266 L 13.451172 14.09375 z " fill="currentColor" opacity="0.6"/>
</svg>