<?xml version="1.0" encoding="utf-8"?>
<svg height="24" version="1.1" viewBox="0 0 24 24" width="24" xmlns="http://www.w3.org/2000/svg" xmlns:svg="http://www.w3.org/2000/svg" xmlns:xlink="http://www.w3.org/1999/xlink">
 <namedview bordercolor="#666666" borderopacity="1.0" id="namedview-conformist" pagecolor="#ffffff" pageopacity="0.0" pageshadow="0" showgrid="true">
  <grid class="ColorScheme-Background" empspacing="4" fill="currentColor" opacity="0.6" type="xygrid"/>
 </namedview>
 <defs id="primary-definitions">
  <style class="ColorScheme-Background" fill="currentColor" opacity="0.6" type="text/css">
   .ColorScheme-Text           { color:#eff0f1; }
      .ColorScheme-Background     { color:#31363b; }
      .ColorScheme-Highlight      { color:#3daefd; }
      .ColorScheme-ViewBackground { color:#fcfcfc; }
      .ColorScheme-PositiveText   { color:#27ae60; }
      .ColorScheme-NeutralText    { color:#f67400; }
      .ColorScheme-NegativeText   { color:#da4453; }
  </style>
 </defs>
 <path class="ColorScheme-Background" d="m 15.75,0.9163521 c -0.239889,-0.1385 -0.544513,-0.0568763 -0.683013,0.1830127 l -0.75,1.2990381 c -0.479778,-0.277 -1.089025,-0.1137527 -1.366025,0.3660254 l -4.0000001,6.9282032 2.5980761,1.5000005 2.5,-4.3301275 0.433012,0.25 c 0.239147,0.1380712 0.321084,0.4438664 0.183013,0.6830127 l -3,5.1961528 c -0.138499,0.239889 -0.05687,0.544512 0.183013,0.683012 0.239889,0.1385 0.544513,0.05688 0.683013,-0.183012 l 3,-5.1961528 c 0.414213,-0.7174389 0.1684,-1.6348245 -0.549039,-2.0490381 l -0.433012,-0.25 1,-1.7320508 c 0.277,-0.4797781 0.113752,-1.0890254 -0.366026,-1.3660254 l 0.75,-1.2990381 C 16.071512,1.3594758 15.989892,1.0548521 15.75,0.9163521 Z M 8.4509619,10.558657 4.6579929,17.128272 C 3.1483959,19.742971 3,23 3,23 3,23 5.7464733,21.242973 7.2560691,18.628272 l 3.7929689,-6.569615 z" fill="currentColor" opacity="0.6" stroke-linecap="butt" stroke-linejoin="miter" stroke-opacity="1"/>
 <path class="ColorScheme-Background" d="m 12.832984,15.68218 c -1.001834,0.01389 -1.823117,0.91836 -1.956612,1.875471 0.03609,0.644836 -0.461079,0.987774 -1.071184,0.932183 -0.6076611,0.066 -1.2215028,-0.08129 -1.8218369,0.03056 -0.9206761,0.419939 -0.2598127,1.626636 0.5680477,1.464453 0.556026,0.02858 1.1139737,0.02584 1.6692842,-0.01567 -0.2847648,0.373799 -0.7081887,0.703053 -0.8860886,1.174164 -0.2995984,0.60851 -0.2490986,1.570831 0.4880515,1.827327 0.6301151,0.223311 1.2996611,-0.304584 1.3811711,-0.934429 0.03459,-0.664129 0.34527,-1.207001 1.008651,-1.413753 0.900657,-0.386519 1.912191,-0.542562 2.887254,-0.443883 0.734254,-0.0027 -0.121325,0.68143 -0.134715,1.08735 -0.210143,0.539991 -0.406066,1.290984 0.119242,1.718816 0.481339,0.412593 1.139734,0.05744 1.453524,-0.385752 0.43014,-0.544614 0.782405,-1.207178 0.797039,-1.911491 -0.03383,-0.283342 0.614265,-0.889043 0.814195,-0.830327 -0.143819,0.564789 -0.160732,1.367214 0.471685,1.641217 0.587355,0.28047 1.140846,-0.209187 1.613114,-0.498411 0.497979,-0.378643 1.065938,-0.744506 1.37352,-1.303569 0.309585,-0.986602 -1.068334,-1.287733 -1.568768,-0.53122 -0.230404,0.152953 -0.561628,0.56044 -0.429972,0.03403 -0.04724,-0.783584 -0.972675,-1.183973 -1.663021,-0.975477 -0.602321,0.01798 -1.212798,0.663779 -1.595812,0.762735 -0.34484,-0.311874 -0.915437,-0.301778 -1.370244,-0.332684 -0.523716,-0.0045 -1.045484,0.05611 -1.562714,0.133101 0.649881,-0.314854 0.951437,-1.129643 0.860334,-1.819069 -0.0995,-0.697772 -0.733783,-1.278983 -1.444135,-1.285666 z" fill="currentColor" opacity="0.6" stroke-linecap="round" stroke-linejoin="round"/>
 <path class="ColorScheme-Background" d="m 12.832984,15.68218 c -1.001834,0.01389 -1.823117,0.91836 -1.956612,1.875471 0.03609,0.644836 -0.461079,0.987774 -1.071184,0.932183 -0.6076611,0.066 -1.2215028,-0.08129 -1.8218369,0.03056 -0.9206761,0.419939 -0.2598127,1.626636 0.5680477,1.464453 0.556026,0.02858 1.1139737,0.02584 1.6692842,-0.01567 -0.2847648,0.373799 -0.7081887,0.703053 -0.8860886,1.174164 -0.2995984,0.60851 -0.2490986,1.570831 0.4880515,1.827327 0.6301151,0.223311 1.2996611,-0.304584 1.3811711,-0.934429 0.03459,-0.664129 0.34527,-1.207001 1.008651,-1.413753 0.900657,-0.386519 1.912191,-0.542562 2.887254,-0.443883 0.734254,-0.0027 -0.121325,0.68143 -0.134715,1.08735 -0.210143,0.539991 -0.406066,1.290984 0.119242,1.718816 0.481339,0.412593 1.139734,0.05744 1.453524,-0.385752 0.43014,-0.544614 0.782405,-1.207178 0.797039,-1.911491 -0.03383,-0.283342 0.614265,-0.889043 0.814195,-0.830327 -0.143819,0.564789 -0.160732,1.367214 0.471685,1.641217 0.587355,0.28047 1.140846,-0.209187 1.613114,-0.498411 0.497979,-0.378643 1.065938,-0.744506 1.37352,-1.303569 0.309585,-0.986602 -1.068334,-1.287733 -1.568768,-0.53122 -0.230404,0.152953 -0.561628,0.56044 -0.429972,0.03403 -0.04724,-0.783584 -0.972675,-1.183973 -1.663021,-0.975477 -0.602321,0.01798 -1.212798,0.663779 -1.595812,0.762735 -0.34484,-0.311874 -0.915437,-0.301778 -1.370244,-0.332684 -0.523716,-0.0045 -1.045484,0.05611 -1.562714,0.133101 0.649881,-0.314854 0.951437,-1.129643 0.860334,-1.819069 -0.0995,-0.697772 -0.733783,-1.278983 -1.444135,-1.285666 z" fill="currentColor" opacity="0.6" stroke-linecap="round" stroke-linejoin="round"/>
 <path class="ColorScheme-Background" d="M 15.464844 0.84960938 C 15.304859 0.86079309 15.152969 0.94967875 15.066406 1.0996094 L 14.316406 2.3984375 C 13.836628 2.1214375 13.228172 2.2838938 12.951172 2.7636719 L 8.9511719 9.6933594 L 11.548828 11.193359 L 14.048828 6.8632812 L 14.482422 7.1132812 C 14.721569 7.2513524 14.804087 7.5557756 14.666016 7.7949219 L 11.666016 12.992188 C 11.527517 13.232076 11.607773 13.535328 11.847656 13.673828 C 12.087545 13.812328 12.39275 13.73208 12.53125 13.492188 L 15.53125 8.2949219 C 15.945463 7.577483 15.699861 6.6603074 14.982422 6.2460938 L 14.548828 5.9960938 L 15.548828 4.2636719 C 15.825828 3.7838938 15.663372 3.1754375 15.183594 2.8984375 L 15.933594 1.5996094 C 16.072094 1.3597204 15.989892 1.0545156 15.75 0.91601562 C 15.660042 0.86407813 15.560835 0.84289915 15.464844 0.84960938 z M 13.779297 2.7617188 C 13.874295 2.7560446 13.97364 2.7784722 14.066406 2.8320312 L 14.5 3.0820312 L 14.933594 3.3320312 C 15.180973 3.4748555 15.258058 3.7662934 15.115234 4.0136719 L 13.865234 6.1796875 L 11.365234 10.509766 L 9.6347656 9.5097656 L 13.384766 3.0136719 C 13.474031 2.8590601 13.620967 2.7711756 13.779297 2.7617188 z M 14.894531 6.796875 C 15.197646 7.0615525 15.308339 7.4802502 15.179688 7.8613281 C 15.303897 7.484891 15.190141 7.0608221 14.894531 6.796875 z M 8.4511719 10.558594 L 4.6582031 17.128906 C 3.1486061 19.743605 3 23 3 23 C 3 23 5.7462636 21.243607 7.2558594 18.628906 L 11.048828 12.058594 L 8.4511719 10.558594 z M 8.6347656 11.242188 L 10.365234 12.242188 L 6.8222656 18.378906 C 5.8342073 20.090276 4.5397698 21.185601 3.6601562 21.857422 C 3.8021323 20.759819 4.1036446 19.090436 5.0917969 17.378906 L 8.6347656 11.242188 z " fill="currentColor" opacity="0.6"/>
</svg>