<?xml version="1.0" encoding="utf-8"?>
<svg height="24" version="1.1" viewBox="0 0 24 24" width="24" xmlns="http://www.w3.org/2000/svg" xmlns:svg="http://www.w3.org/2000/svg" xmlns:xlink="http://www.w3.org/1999/xlink">
 <namedview bordercolor="#666666" borderopacity="1.0" id="namedview-conformist" pagecolor="#ffffff" pageopacity="0.0" pageshadow="0" showgrid="true">
  <grid class="ColorScheme-Background" empspacing="4" fill="currentColor" opacity="0.6" type="xygrid"/>
 </namedview>
 <defs id="primary-definitions">
  <style class="ColorScheme-Background" fill="currentColor" opacity="0.6" type="text/css">
   .ColorScheme-Text           { color:#eff0f1; }
      .ColorScheme-Background     { color:#31363b; }
      .ColorScheme-Highlight      { color:#3daefd; }
      .ColorScheme-ViewBackground { color:#fcfcfc; }
      .ColorScheme-PositiveText   { color:#27ae60; }
      .ColorScheme-NeutralText    { color:#f67400; }
      .ColorScheme-NegativeText   { color:#da4453; }
  </style>
 </defs>
 <path class="ColorScheme-Background" d="M 7.5 5 C 7.223 5 7 5.223 7 5.5 L 7 9 L 3.453125 9 C 3.2023461 9 3 9.2023461 3 9.453125 L 3 9.546875 C 3 9.7976539 3.2023461 10 3.453125 10 L 7 10 L 7 14 L 3.5 14 C 3.223 14 3 14.223 3 14.5 C 3 14.777 3.223 15 3.5 15 L 7 15 L 7 18.5 C 7 18.777 7.223 19 7.5 19 C 7.777 19 8 18.777 8 18.5 L 8 15 L 12 15 L 12 18.5 C 12 18.777 12.223 19 12.5 19 C 12.777 19 13 18.777 13 18.5 L 13 15 L 16.5 15 C 16.777 15 17 14.777 17 14.5 C 17 14.223 16.777 14 16.5 14 L 13 14 L 13 10 L 16.546875 10 C 16.797654 10 17 9.7976539 17 9.546875 L 17 9.453125 C 17 9.2023461 16.797654 9 16.546875 9 L 13 9 L 13 5.5 C 13 5.223 12.777 5 12.5 5 C 12.223 5 12 5.223 12 5.5 L 12 9 L 8 9 L 8 5.5 C 8 5.223 7.777 5 7.5 5 z M 20.5 5 C 20.223 5 20 5.223 20 5.5 L 20 15.5 C 20 15.777 20.223 16 20.5 16 C 20.777 16 21 15.777 21 15.5 L 21 5.5 C 21 5.223 20.777 5 20.5 5 z M 8 10 L 12 10 L 12 14 L 8 14 L 8 10 z M 20.474609 18 C 20.209695 18.013342 20 18.231656 20 18.5 C 20 18.777 20.223 19 20.5 19 C 20.777 19 21 18.777 21 18.5 C 21 18.223 20.777 18 20.5 18 C 20.491344 18 20.483155 17.99957 20.474609 18 z " fill="currentColor" opacity="0.6" paint-order="stroke fill markers" stop-color="#000000" stroke-linecap="round" stroke-linejoin="round"/>
 <path class="ColorScheme-Background" d="M 7.5,5 C 7.223,5 7,5.223 7,5.5 V 9 H 3.453125 C 3.2023461,9 3,9.2023461 3,9.453125 v 0.09375 C 3,9.7976539 3.2023461,10 3.453125,10 H 7 v 4 H 3.5 C 3.223,14 3,14.223 3,14.5 3,14.777 3.223,15 3.5,15 H 7 v 3.5 C 7,18.777 7.223,19 7.5,19 7.777,19 8,18.777 8,18.5 V 15 h 4 v 3.5 c 0,0.277 0.223,0.5 0.5,0.5 0.277,0 0.5,-0.223 0.5,-0.5 V 15 h 3.5 C 16.777,15 17,14.777 17,14.5 17,14.223 16.777,14 16.5,14 H 13 v -4 h 3.546875 C 16.797654,10 17,9.7976539 17,9.546875 V 9.453125 C 17,9.2023461 16.797654,9 16.546875,9 H 13 V 5.5 C 13,5.223 12.777,5 12.5,5 12.223,5 12,5.223 12,5.5 V 9 H 8 V 5.5 C 8,5.223 7.777,5 7.5,5 Z m 13,0 C 20.223,5 20,5.223 20,5.5 v 10 c 0,0.277 0.223,0.5 0.5,0.5 0.277,0 0.5,-0.223 0.5,-0.5 V 5.5 C 21,5.223 20.777,5 20.5,5 Z M 8,10 h 4 v 4 H 8 Z m 12.474609,8 C 20.209695,18.013342 20,18.231656 20,18.5 20,18.777 20.223,19 20.5,19 20.777,19 21,18.777 21,18.5 21,18.223 20.777,18 20.5,18 c -0.0087,0 -0.01685,-4.3e-4 -0.02539,0 z" fill="currentColor" opacity="0.6" paint-order="stroke fill markers" stop-color="#000000" stroke-linecap="round" stroke-linejoin="round"/>
</svg>