<svg viewBox="0 0 24 24" xmlns="http://www.w3.org/2000/svg">
    <style type="text/css" id="current-color-scheme">
        .ColorScheme-Text {
            color:#eff0f1;
        }
    </style>
    <path d="m18.5 3.9999997a1.5 1.4999998 0 0 0 -1.060547.439453l-2 2-.939453-.939453-1 1 .646484.646484-8.5898434 8.5898443c-.37168.37168-.5566406.862598-.5566406 1.353516v.910156l-1.5 1.5 1 1 1.5-1.5h.9101562c.490918 0 .981836-.184962 1.353516-.556641l8.5898438-8.589843.646484.646484 1-1-.939453-.939453 1.984375-1.9843753a1.5 1.4999998 0 0 0 .01563-.01563 1.5 1.4999998 0 0 0 .439448-1.060542v-.5a1 1 0 0 0 -1-1zm-3.646484 3.8535163 1.292968 1.292968-5.853515 5.853516h-2.5859378z" class="ColorScheme-Text" fill="currentColor"/>
</svg>
