<svg version="1.1" viewBox="0 0 24 24" xmlns="http://www.w3.org/2000/svg">
    <defs>
        <style type="text/css" id="current-color-scheme">.ColorScheme-Text {
        color:#eff0f1;
      }</style>
    </defs>
    <path class="ColorScheme-Text" d="m10.03125 4.0254237-7.0000001 6.0000003 3.0000001 8 4.372881 0.02542-0.3125 2 4.3125-2.40625 4.3125 2.40625-0.8125-5.0625 3.5-3.59375-4.84375-0.75-2.15625-4.5937506-0.372881 0.7478814zm-0.03125 0.9745763 3.655549 2.5803035-1.407668 3.0642945-4.84375 0.75 3.5 3.59375-0.34375 2.187499-4.029131-0.02542-2.4375001-6.968749zm4.404131 2.8008474 1.625 3.4687506 3.625 0.53125-2.625 2.6875 0.625 3.812499-3.25-1.78125-3.25 1.78125 0.625-3.812499-2.625-2.6875 3.625-0.53125z" fill="currentColor"/>
    <path d="m6.373657 17.393298c-0.8331833-2.348148-1.7309171-5.018682-2.5611571-7.367874 2.0068306-1.7320062 4.2077191-3.5974491 6.2187501-5.3245283 1.351977 0.9033222 2.049329 1.5151118 3.802262 2.7489271-0.496886 1.1791386-0.823187 1.9493326-1.361905 3.3954252-1.574419 0.216959-3.074701 0.410197-4.684618 0.679394 1.244261 1.089253 1.979119 1.945416 3.244261 3.268763-0.09666 0.802255-0.198148 1.96033-0.333748 2.756683-1.666252-0.04034-3.263572-0.0744-4.323845-0.15679z" class="ColorScheme-Text" fill="currentColor" fill-opacity=".50196078"/>
    <path d="m10.6496 18.552911c2.77e-4 -0.0071 0.157401-0.923651 0.349165-2.036752l0.348662-2.023822-0.241833-0.234162c-0.844598-0.817801-2.681779-2.623452-2.67543-2.629513 0.0042-4e-3 0.911787-0.133887 2.016868-0.288628 1.105082-0.154741 2.012718-0.284666 2.016968-0.288723 0.0043-0.0041 0.404607-0.815837 0.889682-1.8039568 0.485073-0.988119 0.893148-1.816556 0.90683-1.8409709 0.02409-0.04299 0.05334 0.013656 0.927378 1.7959584 0.650334 1.3261373 0.912295 1.8440943 0.93755 1.8537523 0.01928 0.0074 0.910388 0.134459 1.980246 0.282416 1.069858 0.147958 1.966491 0.274572 1.992516 0.281364 0.04509 0.01178-0.01892 0.0771-1.358133 1.386407-0.772999 0.755731-1.431732 1.400255-1.463851 1.432275l-0.0584 0.05822 0.346372 2.01715c0.190507 1.109433 0.34205 2.021278 0.336764 2.026322-0.0083 0.0079-1.116527-0.566987-3.072312-1.59372-0.289151-0.151795-0.533852-0.27623-0.543781-0.276522-0.0154-4.5e-4 -3.484939 1.805848-3.596334 1.872309-0.02169 0.01294-0.03921 0.01771-0.03893 0.0106z" class="ColorScheme-Text" fill="currentColor" fill-opacity=".50196078"/>
</svg>
