<svg version="1.1" viewBox="0 0 24 24" xmlns="http://www.w3.org/2000/svg">
    <defs>
        <style type="text/css" id="current-color-scheme">.ColorScheme-Text {
        color:#eff0f1;
      }</style>
    </defs>
    <path class="ColorScheme-Text" d="M 12,4 4.082,10.075745 7,20 h 10 l 2.918,-9.994197 z M 12,5.3196667 18.598333,10.325162 16,19 H 8 L 5.400347,10.381908 Z" fill="currentColor"/>
    <path d="m7.50138 19.216977c-0.0799-0.134257-2.756646-8.640305-2.756298-8.758848 1.87e-4 -0.06338 1.619617-1.3442548 3.598734-2.8463941 3.131269-2.3766176 3.622273-2.7164094 3.782335-2.617516 0.101166 0.062506 1.748024 1.2875385 3.65968 2.722295l3.475739 2.6086481-0.188452 0.616556c-0.103647 0.339106-0.719075 2.34508-1.367616 4.45772l-1.179161 3.841161-4.490202 0.02563c-2.469611 0.01409-4.510253-0.0082-4.534759-0.04925z" class="ColorScheme-Text" fill="currentColor" fill-opacity=".50196078"/>
</svg>
