<svg version="1.1" viewBox="0 0 24 24" xmlns="http://www.w3.org/2000/svg">
    <defs>
        <style type="text/css" id="current-color-scheme">.ColorScheme-Text {
        color:#eff0f1;
      }</style>
    </defs>
    <path class="ColorScheme-Text" d="m12 4c-4.432 0-8 3.568-8 8s3.568 8 8 8 8-3.568 8-8-3.568-8-8-8zm0 1c3.878 0 7 3.122 7 7s-3.122 7-7 7-7-3.122-7-7 3.122-7 7-7zm0 4a3 3 0 0 0-3 3 3 3 0 0 0 3 3 3 3 0 0 0 3-3 3 3 0 0 0-3-3zm0 1a2 2 0 0 1 2 2 2 2 0 0 1-2 2 2 2 0 0 1-2-2 2 2 0 0 1 2-2z" fill="currentColor"/>
    <path d="m11.335772 19.651743c-1.8088242-0.184648-3.4219301-0.939811-4.6781254-2.190027-1.0569773-1.051949-1.7758787-2.354791-2.1191545-3.840477-0.1328775-0.575094-0.1882528-2.048606-0.1004652-2.673459 0.4524189-3.2203652 2.804316-5.7657682 5.9906921-6.4835849 0.739479-0.1665873 2.010777-0.191715 2.79892-0.055318 2.77168 0.4796625 5.035603 2.4074379 5.954314 5.0702108 1.469833 4.2601285-1.031941 8.8932875-5.384165 9.9712125-0.798339 0.197726-1.742032 0.274939-2.462012 0.201444zm3.333949-7.816054c-0.842156-1.8969237-1.759861-3.2733853-2.848133-2.554103-1.644416 1.08686-2.2759171 1.258431-2.1975415 2.994124 0.058357 1.292463 0.8438045 1.803392 2.2762785 2.213226 1.4061-0.568649 2.101043-1.336538 2.769396-2.653247z" class="ColorScheme-Text" fill="currentColor" fill-opacity=".50196078"/>
</svg>
