<svg version="1.1" viewBox="0 0 24 24" xmlns="http://www.w3.org/2000/svg">
    <defs>
        <style type="text/css" id="current-color-scheme">.ColorScheme-Text {
        color:#eff0f1;
      }</style>
    </defs>
    <path class="ColorScheme-Text" d="m4 11v1c0 4.432 3.568 8 8 8s8-3.568 8-8v-1h-16zm1 1h14c0 3.878-3.122 7-7 7s-7-3.122-7-7z" fill="currentColor"/>
    <path d="m11.4254 19.373816c-0.034-0.0039-0.161171-0.01654-0.282601-0.02787-0.476705-0.044506-1.029324-0.162711-1.5189778-0.324912-2.1458106-0.710813-3.8777055-2.406318-4.7040936-4.605253-0.3131566-0.833277-0.4792225-1.667685-0.5175148-2.600282l-0.01199-0.29201h15.003826l-0.01136 0.25493c-0.0062 0.14021-0.02301 0.380077-0.03726 0.533034-0.216585 2.326173-1.408821 4.4204-3.266656 5.738063-0.987895 0.700659-2.130119 1.141049-3.346344 1.290197-0.223211 0.02737-1.15689 0.05173-1.307027 0.0341z" class="ColorScheme-Text" fill="currentColor" fill-opacity=".50196078"/>
</svg>
