<svg version="1.1" viewBox="0 0 24 24" xmlns="http://www.w3.org/2000/svg">
    <defs>
        <style type="text/css" id="current-color-scheme">.ColorScheme-Text {
        color:#eff0f1;
      }</style>
    </defs>
    <path class="ColorScheme-Text" d="m12 4c-4.432 0-8.0000003 3.568-8.0000003 8s3.5680003 8 8.0000003 8 8-3.568 8-8-3.568-8-8-8m0 1c3.878 0 7 3.122 7 7s-3.122 7-7 7-7.0000003-3.122-7.0000003-7 3.1220003-7 7.0000003-7" fill="currentColor"/>
    <path d="m10.54897 19.491855c-1.386304-0.277887-2.811936-1.054825-3.847134-2.096603-1.1240846-1.131228-1.8125246-2.479881-2.0932992-4.100766-0.2820927-1.628495-0.0694251-3.105392 0.6687871-4.6444778 1.8687061-3.8960327 6.7140591-5.4004412 10.538051-3.2719045 0.450911 0.2509892 1.020765 0.7163205 1.624347 1.3264077 0.790603 0.7991229 0.998614 1.0839426 1.389785 1.9029561 0.630977 1.3211124 0.81807 2.2515945 0.755964 3.7597105-0.08522 2.069469-0.705434 3.500571-2.160692 4.985673-1.835965 1.873615-4.329665 2.649384-6.875809 2.139004z" class="ColorScheme-Text" fill="currentColor" fill-opacity=".50196078"/>
</svg>
