<svg version="1.1" viewBox="0 0 24 24" xmlns="http://www.w3.org/2000/svg">
    <defs>
        <style type="text/css" id="current-color-scheme">.ColorScheme-Text {
        color:#eff0f1;
      }</style>
    </defs>
    <path class="ColorScheme-Text" d="m12 4c-4.432 0-8 3.568-8 8s3.568 8 8 8h1v-16h-1zm0 1v14c-3.878 0-7-3.122-7-7s3.122-7 7-7z" fill="currentColor"/>
    <path d="m36.356271 27.012316c-1.954402-0.369149-3.860203-1.589489-4.975265-3.185807-1.199565-1.717289-1.596735-3.959131-1.057058-5.966598 0.405932-1.509969 1.543072-3.139468 2.817906-4.038004 1.213979-0.855643 3.094787-1.527415 4.27641-1.527415h0.426472v14.868644l-0.394629-0.0094c-0.217045-0.0051-0.709272-0.06881-1.093836-0.141443z" class="ColorScheme-Text" fill="currentColor" fill-opacity=".50196078"/>
    <path d="m10.918316 19.514434c-1.9544022-0.369149-3.8602034-1.589489-4.9752658-3.185807-1.1995645-1.717289-1.5967351-3.959131-1.0570583-5.966598 0.4059321-1.509968 1.5430729-3.1394677 2.8179069-4.0380031 1.2139785-0.855643 3.0947862-1.5274157 4.2764092-1.5274157h0.426472v14.868644l-0.394629-0.0094c-0.217045-0.0051-0.709272-0.06881-1.093835-0.141443z" class="ColorScheme-Text" fill="currentColor" fill-opacity=".50196078"/>
</svg>
