<svg version="1.1" viewBox="0 0 24 24" xmlns="http://www.w3.org/2000/svg">
    <defs>
        <style type="text/css" id="current-color-scheme">.ColorScheme-Text {
        color:#eff0f1;
      }</style>
    </defs>
    <path class="ColorScheme-Text" d="m11 4v16h1c4.432 0 8-3.568 8-8s-3.568-8-8-8h-1zm1 1c3.878 0 7 3.122 7 7s-3.122 7-7 7v-14z" fill="currentColor"/>
    <path d="m11.567797 12.006263v-7.4130427l0.801175 0.062065c1.865705 0.1445302 3.436783 0.8492381 4.903878 2.1996361 0.842852 0.7758097 1.064612 1.0523203 1.481634 1.8474403 0.672678 1.2825706 0.872134 2.1859073 0.805924 3.6500253-0.09086 2.009095-0.752055 3.398448-2.303488 4.840224-0.878107 0.816041-1.681102 1.313264-2.763289 1.711059-0.701671 0.257925-1.944706 0.511474-2.519468 0.513914l-0.406366 0.0017z" class="ColorScheme-Text" fill="currentColor" fill-opacity=".50196078"/>
</svg>
