<svg version="1.1" viewBox="0 0 24 24" xmlns="http://www.w3.org/2000/svg">
    <defs>
        <style type="text/css" id="current-color-scheme">.ColorScheme-Text {
        color:#eff0f1;
      }</style>
    </defs>
    <path class="ColorScheme-Text" d="M 12,4 9.5273438,9.267578 4,10.111328 8,14.210938 7.0566406,20 12,17.267578 16.943359,20 16,14.210938 l 4,-4.09961 -5.527344,-0.84375 z m 0,2 1.853516,4.114011 L 18,10.748776 15,13.658203 15.708984,18.164792 12,16.114011 8.2910156,18.164792 9,13.658203 6,10.748776 10.146484,10.114011 Z" fill="currentColor"/>
    <path d="m8.1081658 18.600794c0.023703-0.103709 0.7499232-4.688381 0.7499232-4.734317 0-0.03405-0.383922-0.416489-1.1661968-1.161685-0.6414082-0.611006-1.3726711-1.309344-1.6250284-1.551861l-0.4588315-0.440942 2.2431763-0.335185c1.3507797-0.20184 2.2535804-0.347445 2.2693274-0.366 0.01438-0.01695 0.473214-1.006826 1.019626-2.199728 0.54641-1.192902 1.000628-2.16117 1.009372-2.151706 0.0088 0.0095 0.459588 0.986992 1.001876 2.172287 0.542286 1.185294 0.9997 2.167518 1.016472 2.182721 0.01678 0.0152 1.028454 0.176515 2.248182 0.358473 1.219727 0.181958 2.227177 0.333321 2.238778 0.336362 0.0116 3e-3 -0.504585 0.506378-1.147079 1.118526-0.642495 0.612147-1.377377 1.313714-1.633072 1.559038l-0.464902 0.446045 0.382234 2.386595c0.210229 1.312628 0.379221 2.395481 0.375538 2.406342-0.0037 0.01086-0.91098-0.471743-2.016217-1.072451l-2.009523-1.092197-2.008694 1.091768c-1.1047819 0.600472-2.0146094 1.091768-2.0218393 1.091768-0.00723 0-0.00863-0.01973-0.00312-0.04385z" class="ColorScheme-Text" fill="currentColor" fill-opacity=".50196078"/>
</svg>
