<svg version="1.1" viewBox="0 0 24 24" xmlns="http://www.w3.org/2000/svg">
    <defs>
        <style type="text/css" id="current-color-scheme">.ColorScheme-Text {
        color:#eff0f1;
      }</style>
    </defs>
    <path class="ColorScheme-Text" d="m12 6a8 6 0 0 0-8 6 8 6 0 0 0 8 6 8 6 0 0 0 8-6 8 6 0 0 0-8-6zm0 1a7 5 0 0 1 7 5 7 5 0 0 1-7 5 7 5 0 0 1-7-5 7 5 0 0 1 7-5z" fill="currentColor"/>
    <path d="m11.044121 17.460283c-3.3012767-0.285597-5.9624649-2.210644-6.4378613-4.657013-0.4615539-2.375135 1.3574104-4.6724753 4.4867958-5.6667934 2.3690015-0.7527163 5.0949905-0.5436637 7.3003395 0.5598538 1.093053 0.5469438 2.339173 1.7467516 2.785338 2.6818206 0.265363 0.556146 0.292121 0.710463 0.292705 1.688023 6.05e-4 1.038944-0.0124 1.102649-0.378785 1.853716-1.166128 2.390467-4.481773 3.848956-8.048532 3.540393z" class="ColorScheme-Text" fill="currentColor" fill-opacity=".50196078"/>
</svg>
