<svg xmlns="http://www.w3.org/2000/svg" viewBox="0 0 24 24">
  <defs id="defs3051">
    <style type="text/css" id="current-color-scheme">
      .ColorScheme-Text {
        color:#f2f2f2
      }
      </style>
  </defs>
  <a transform="translate(1,1)">
 <path 
     style="fill:currentColor;fill-opacity:1;stroke:none" 
     d="M 8 4 L 8 5 L 20 5 L 20 4 L 8 4 z M 8 6 L 8 7 L 13 7 L 13 6 L 8 6 z M 8 10 L 8 11 L 20 11 L 20 10 L 8 10 z M 8 12 L 8 13 L 14 13 L 14 12 L 8 12 z M 8 16 L 8 17 L 20 17 L 20 16 L 8 16 z M 8 18 L 8 19 L 17 19 L 17 18 L 8 18 z "
	 class="ColorScheme-Text"
     />
    <path
       style="opacity:1;fill:#27ae60;fill-opacity:1;stroke:none"
       d="M 5.5 4 C 4.67158 4 4.00001 4.67157 4 5.5 C 4.00001 6.32843 4.67158 7 5.5 7 C 6.32842 7 6.99999 6.32843 7 5.5 C 6.99999 4.67157 6.32842 4 5.5 4 z M 5.5 10 C 4.67157 10 4 10.67157 4 11.5 C 4 12.32843 4.67157 13 5.5 13 C 6.32843 13 7 12.32843 7 11.5 C 7 10.67157 6.32843 10 5.5 10 z "
       />
    <path
       style="opacity:1;fill:#da4453;fill-opacity:1;stroke:none"
       d="M 5.5 16 C 4.67157 16 4 16.67157 4 17.5 C 4 18.32843 4.67157 19 5.5 19 C 6.32843 19 7 18.32843 7 17.5 C 7 16.67157 6.32843 16 5.5 16 z M 18 19 L 18 20 L 20 20 L 20 19 L 18 19 z "
       />
 </a>
</svg>
