<?xml version="1.0" encoding="UTF-8" standalone="no"?>

<!-- Created with Inkscape (http://www.inkscape.org/) -->
<svg width="48" version="1.1" xmlns="http://www.w3.org/2000/svg" height="48" xmlns:xlink="http://www.w3.org/1999/xlink" xmlns:inkscape="http://www.inkscape.org/namespaces/inkscape">
 <defs id="defs5455">
  <linearGradient inkscape:collect="always" id="linearGradient4159">
   <stop style="stop-color:#2a2c2f" id="stop4161"/>
   <stop offset="1" style="stop-color:#424649" id="stop4163"/>
  </linearGradient>
  <linearGradient inkscape:collect="always" xlink:href="#linearGradient4159" id="linearGradient4250" y1="536.79797" y2="503.798" x2="0" gradientUnits="userSpaceOnUse"/>
  <linearGradient inkscape:collect="always" xlink:href="#linearGradient4303" id="linearGradient4272" y1="547.79797" y2="536.79797" x2="0" gradientUnits="userSpaceOnUse" gradientTransform="matrix(1 0 0 1 -384.57143 -499.798)"/>
  <linearGradient inkscape:collect="always" id="linearGradient4303">
   <stop style="stop-color:#c6cdd1" id="stop4305"/>
   <stop offset="1" style="stop-color:#e0e5e7" id="stop4307"/>
  </linearGradient>
  <linearGradient inkscape:collect="always" id="linearGradient4591">
   <stop style="stop-color:#7e8f9e" id="stop4593"/>
   <stop offset="1" style="stop-color:#84ced5" id="stop4595"/>
  </linearGradient>
  <linearGradient inkscape:collect="always" xlink:href="#linearGradient4591" id="linearGradient4597-5" y1="541.79797" y2="489.798" x2="0" gradientUnits="userSpaceOnUse" gradientTransform="matrix(1 0 0 1 -392.57141 -493.798)"/>
  <linearGradient inkscape:collect="always" xlink:href="#linearGradient4675" id="linearGradient4681" y1="535.79797" x1="394.57144" y2="522.79797" x2="404.57144" gradientUnits="userSpaceOnUse" gradientTransform="matrix(1 0 0 1 -392.57141 -493.798)"/>
  <linearGradient inkscape:collect="always" id="linearGradient4675">
   <stop style="stop-color:#e4a56d" id="stop4677"/>
   <stop offset="1" style="stop-color:#a7bd78" id="stop4679"/>
  </linearGradient>
  <linearGradient inkscape:collect="always" xlink:href="#linearGradient4683" id="linearGradient4689" x1="404.57144" x2="421.57144" gradientUnits="userSpaceOnUse" gradientTransform="matrix(1 0 0 1 -392.57141 -493.798)"/>
  <linearGradient inkscape:collect="always" id="linearGradient4683">
   <stop style="stop-color:#c3a278" id="stop4685"/>
   <stop offset="1" style="stop-color:#6688aa" id="stop4687"/>
  </linearGradient>
  <linearGradient inkscape:collect="always" xlink:href="#linearGradient4722" id="linearGradient4728" y1="536.79797" x1="430.57144" y2="524.79797" x2="437.49963" gradientUnits="userSpaceOnUse" gradientTransform="matrix(1 0 0 1 -392.57141 -493.798)"/>
  <linearGradient inkscape:collect="always" id="linearGradient4722">
   <stop style="stop-color:#6588af" id="stop4724"/>
   <stop offset="1" style="stop-color:#8ba8cd" id="stop4726"/>
  </linearGradient>
  <linearGradient inkscape:collect="always" xlink:href="#linearGradient4834" id="linearGradient4840" x1="421.57144" x2="438.57144" gradientUnits="userSpaceOnUse" gradientTransform="matrix(1 0 0 1 -7.999983 6)"/>
  <linearGradient inkscape:collect="always" id="linearGradient4834">
   <stop style="stop-color:#89ad8b" id="stop4836"/>
   <stop offset="1" style="stop-color:#82b3c7" id="stop4838"/>
  </linearGradient>
  <linearGradient inkscape:collect="always" xlink:href="#linearGradient4778" id="linearGradient4784" y1="525.79797" x1="387.57144" y2="513.79797" x2="401.57144" gradientUnits="userSpaceOnUse" gradientTransform="matrix(1 0 0 1 -392.57141 -493.798)"/>
  <linearGradient inkscape:collect="always" id="linearGradient4778">
   <stop style="stop-color:#e1b16f" id="stop4780"/>
   <stop offset="1" style="stop-color:#99bf83" id="stop4782"/>
  </linearGradient>
  <linearGradient inkscape:collect="always" xlink:href="#linearGradient4786" id="linearGradient4792" y1="510.798" x1="404.57144" y2="498.798" x2="391.57144" gradientUnits="userSpaceOnUse" gradientTransform="matrix(1 0 0 1 -392.57141 -493.798)"/>
  <linearGradient inkscape:collect="always" id="linearGradient4786">
   <stop style="stop-color:#99c487" id="stop4788"/>
   <stop offset="1" style="stop-color:#b4d99e" id="stop4790"/>
  </linearGradient>
  <linearGradient inkscape:collect="always" xlink:href="#linearGradient4802" id="linearGradient4808" x1="404.57144" x2="421.57144" gradientUnits="userSpaceOnUse" gradientTransform="matrix(1 0 0 1 -392.57141 -493.798)"/>
  <linearGradient inkscape:collect="always" id="linearGradient4802">
   <stop style="stop-color:#75d5c7" id="stop4804"/>
   <stop offset="1" style="stop-color:#66afb9" id="stop4806"/>
  </linearGradient>
  <linearGradient inkscape:collect="always" xlink:href="#linearGradient4770" id="linearGradient4776" y1="495.798" x1="428.57144" y2="504.798" x2="438.57144" gradientUnits="userSpaceOnUse" gradientTransform="matrix(1 0 0 1 -392.57141 -493.798)"/>
  <linearGradient inkscape:collect="always" id="linearGradient4770">
   <stop style="stop-color:#5c7b9e" id="stop4772"/>
   <stop offset="1" style="stop-color:#839dc0" id="stop4774"/>
  </linearGradient>
  <linearGradient inkscape:collect="always" xlink:href="#linearGradient4810" id="linearGradient4816" x1="421.57144" x2="406.57144" gradientUnits="userSpaceOnUse" gradientTransform="matrix(1 0 0 1 -392.57141 -493.798)"/>
  <linearGradient inkscape:collect="always" id="linearGradient4810">
   <stop style="stop-color:#7fbcc6" id="stop4812"/>
   <stop offset="1" style="stop-color:#8ee4e3" id="stop4814"/>
  </linearGradient>
  <linearGradient inkscape:collect="always" xlink:href="#linearGradient4818" id="linearGradient4824" x1="421.57144" x2="436.57144" gradientUnits="userSpaceOnUse" gradientTransform="matrix(1 0 0 1 -392.57141 -493.798)"/>
  <linearGradient inkscape:collect="always" id="linearGradient4818">
   <stop style="stop-color:#84d5d7" id="stop4820"/>
   <stop offset="1" style="stop-color:#84a8ba" id="stop4822"/>
  </linearGradient>
 </defs>
 <metadata id="metadata5458"/>
 <g inkscape:label="Capa 1" inkscape:groupmode="layer" id="layer1" transform="matrix(1 0 0 1 -384.57143 -499.798)">
  <path inkscape:connector-curvature="0" style="stroke-opacity:0.550265;fill:url(#linearGradient4272);stroke-width:2.8" id="rect4254" d="m 18,37 0,7 0,2 0,2 12,0 0,-2 0,-2 0,-7 z" transform="matrix(1 0 0 1 384.57143 499.798)"/>
  <rect width="48" x="384.57144" y="503.798" height="35.999996" style="stroke-opacity:0.550265;fill:url(#linearGradient4250);stroke-width:2.8" id="rect4173"/>
  <g id="g3733">
   <path style="fill:url(#linearGradient4597-5)" id="path4589-5" d="M 2 6 L 2 36 L 46 36 L 46 6 L 2 6 z " transform="matrix(1 0 0 1 384.57143 499.798)"/>
   <path style="fill:url(#linearGradient4681);fill-rule:evenodd" id="path4476-9" d="M 12 22 L 2 30.234375 L 2 36 L 12 36 L 12 22 z " transform="matrix(1 0 0 1 384.57143 499.798)"/>
   <path style="fill:url(#linearGradient4689);fill-rule:evenodd" id="path4478-4" d="M 12 22 L 12 36 L 29 36 L 12 22 z " transform="matrix(1 0 0 1 384.57143 499.798)"/>
   <path style="fill:url(#linearGradient4728);fill-rule:evenodd" id="path4488-0-8" d="M 46 22 L 29 36 L 46 36 L 46 22 z " transform="matrix(1 0 0 1 384.57143 499.798)"/>
   <path inkscape:connector-curvature="0" style="fill:url(#linearGradient4840);fill-rule:evenodd" id="path4188-3" d="m 413.57144,529.798 0,-22 16.99999,14 -16.99999,14 z"/>
   <path style="fill:url(#linearGradient4784);fill-rule:evenodd" id="path4192-6" d="M 2 13.765625 L 2 30.234375 L 12 22 L 2 13.765625 z " transform="matrix(1 0 0 1 384.57143 499.798)"/>
   <path style="fill:url(#linearGradient4792);fill-rule:evenodd" id="path4198-3" d="M 2 6 L 2 13.765625 L 12 22 L 12 16 L 12 6 L 2 6 z " transform="matrix(1 0 0 1 384.57143 499.798)"/>
   <path style="fill:url(#linearGradient4808);fill-rule:evenodd" id="path4200-1" d="M 12 6 L 12 16 L 12 22 L 29 8 L 26.570312 6 L 12 6 z " transform="matrix(1 0 0 1 384.57143 499.798)"/>
   <path style="fill:url(#linearGradient4776);fill-rule:evenodd" id="path4202-1" d="M 31.429688 6 L 29 8 L 46 22 L 46 16 L 46 6 L 31.429688 6 z " transform="matrix(1 0 0 1 384.57143 499.798)"/>
   <path style="fill:url(#linearGradient4816);fill-rule:evenodd" id="path4206-9-2" d="M 26.570312 6 L 29 8 L 29 6 L 26.570312 6 z " transform="matrix(1 0 0 1 384.57143 499.798)"/>
   <path style="fill:url(#linearGradient4824);fill-rule:evenodd" id="path4208-1-1" d="M 29 6 L 29 8 L 31.429688 6 L 29 6 z " transform="matrix(1 0 0 1 384.57143 499.798)"/>
  </g>
  <rect width="22" x="397.57144" y="546.79797" height="0.999974" style="stroke-opacity:0.550265;fill:#99a1a7;stroke-width:2.8" id="rect4295"/>
  <rect width="43.999989" x="386.57144" y="531.79803" height="3.999939" style="fill:#ffffff;fill-opacity:0.784314" id="rect4267"/>
  <circle cx="427.57144" cy="533.79791" style="fill:#4d4d4d" id="path4166" r="1"/>
  <path inkscape:connector-curvature="0" style="fill:#4d4d4d" id="rect4183" d="m 388.57143,532.79794 0,1 1,0 0,-1 -1,0 z m 1,1 0,1 1,0 0,-1 -1,0 z"/>
  <rect width="18.999958" x="388.57147" y="507.798" height="16.14996" style="fill:#ffffff;fill-opacity:0.784314" id="rect3432"/>
  <path inkscape:connector-curvature="0" style="fill:#3580ca" id="rect4160" d="m 389.57143,508.798 0,4 4,0 0,-3 -1,0 -1,-1 z"/>
  <path inkscape:connector-curvature="0" style="fill:#ff9955" id="rect4235" d="m 396.57143,508.798 0,5 4,0 0,-3 -2,-2 z"/>
  <path inkscape:connector-curvature="0" style="fill:#d45500;fill-rule:evenodd" id="path4237" d="m 398.57144,508.79797 2,2 -2,0 z"/>
  <path inkscape:connector-curvature="0" style="fill:#7aabdc" id="rect4272" d="m 389.57144,509.798 4.99999,0 0,4 -4.99999,0 z"/>
  <path inkscape:connector-curvature="0" style="fill:#71c837" id="path4275" d="m 402.57143,508.798 0,5 4,0 0,-3 -2,-2 z"/>
  <path inkscape:connector-curvature="0" style="fill:#447821;fill-rule:evenodd" id="path4277" d="m 404.57144,508.79797 2,2 -2,0 z"/>
 </g>
</svg>
