<svg height="256" version="1.1" width="256" xmlns="http://www.w3.org/2000/svg" xmlns:svg="http://www.w3.org/2000/svg" xmlns:xlink="http://www.w3.org/1999/xlink">
<defs id="primary-definitions">
<style id="current-color-scheme" type="text/css">
      .ColorScheme-Text           { color:#fff; }
      .ColorScheme-Background     { color:#111; }
      .ColorScheme-Highlight      { color:#3daefd; }
      .ColorScheme-ViewBackground { color:#000; }
      .ColorScheme-PositiveText   { color:#27ae60; }
      .ColorScheme-NeutralText    { color:#f67400; }
      .ColorScheme-NegativeText   { color:#da4453; }
    </style>
<style id="extended-color-scheme" type="text/css">
      .ExScheme-Black     { color:#3e3e3e; }
      .ExScheme-White     { color:#fcfcfc; }
      .ExScheme-Grey-1    { color:#cfd5d5; }
      .ExScheme-Grey-2    { color:#909c9c; }
      .ExScheme-Grey-3    { color:#536161; }
      .ExScheme-Red-1     { color:#ffafa5; }
      .ExScheme-Red-2     { color:#bf4231; }
      .ExScheme-Red-3     { color:#4d2f2b; }
      .ExScheme-Green-1   { color:#abf9c7; }
      .ExScheme-Green-2   { color:#3bb566; }
      .ExScheme-Green-3   { color:#377d50; }
      .ExScheme-Blue-1    { color:#abdaf9; }
      .ExScheme-Blue-2    { color:#3daefd; }
      .ExScheme-Blue-3    { color:#2b3c4d; }
      .ExScheme-Yellow-1  { color:#faffa5; }
      .ExScheme-Yellow-2  { color:#cac726; }
      .ExScheme-Yellow-3  { color:#4b4d2b; }
      .ExScheme-Orange-1  { color:#ffdaa5; }
      .ExScheme-Orange-2  { color:#ff9701; }
      .ExScheme-Orange-3  { color:#4d372b; }
      .ExScheme-Brown-1   { color:#e9d6bb; }
      .ExScheme-Brown-2   { color:#997657; }
      .ExScheme-Brown-3   { color:#433a35; }
      .ExScheme-Purple-1  { color:#e2abf9; }
      .ExScheme-Purple-2  { color:#b401ff; }
      .ExScheme-Purple-3  { color:#432b4d; }
      .ExScheme-Cyan-1    { color:#b2f2e6; }
      .ExScheme-Cyan-2    { color:#31bfa6; }
      .ExScheme-Cyan-3    { color:#2b4d47; }
      .ExScheme-Magenta-1 { color:#f8a6d8; }
      .ExScheme-Magenta-2 { color:#f00091; }
      .ExScheme-Magenta-3 { color:#770048; }
    </style>
<linearGradient id="u5J">
<stop offset="0"/>
<stop offset="1" stop-opacity="0"/>
</linearGradient>
<linearGradient id="u5K">
<stop offset="0" stop-color="#fff"/>
<stop offset="1" stop-color="#fff" stop-opacity="0"/>
</linearGradient>
<linearGradient id="u5L">
<stop offset="0" stop-color="#172525"/>
<stop offset="1" stop-color="#172525" stop-opacity="0"/>
</linearGradient><radialGradient cx="19.74" cy="-20.34" gradientTransform="matrix(-2.66 .67 -.2 -.85 255.3 31.47)" gradientUnits="userSpaceOnUse" id="u5M" r="15" spreadMethod="reflect" xlink:href="#u5J"/><linearGradient gradientTransform="matrix(7.5 -2.85 2.85 7.5 -213.24 30.85)" gradientUnits="userSpaceOnUse" id="u5N" x1="-12" x2="-12" xlink:href="#u5J" y1="33" y2="31"/><linearGradient gradientTransform="matrix(6.2 1.3 -1.07 5.17 104.26 11.17)" gradientUnits="userSpaceOnUse" id="u5O" x1="9" x2="9" xlink:href="#u5J" y1="14" y2="20"/><linearGradient id="u5P" xlink:href="#u5J" y1="1" y2="0"/><linearGradient gradientTransform="matrix(-2.93 0 0 2.93 98.93 146.6)" gradientUnits="userSpaceOnUse" id="u5Q" x1="21.07" x2="24.74" xlink:href="#u5L" y1="24.96" y2="18.89"/><linearGradient gradientTransform="matrix(8 0 0 8 .15 8.06)" gradientUnits="userSpaceOnUse" id="u5R" x1="23.6" x2="22.05" xlink:href="#u5L" y1="19.29" y2="14.47"/><path d="m70 90-62 5.86v112.14h240l-197-4e-4 189-78z" id="u5S"></path><path d="m10 32c-1.1 0-2 .9-2 2v77.86l9.05-4.6 48.8-11.6 6.1.23 176.06 36.6v-98.53c0-1.1-.9-2-2-2z" id="u5T"></path></defs>
<g id="content" transform="translate(0,0)"><path class="ColorScheme-Highlight" d="m49.07 203.1-41.07 4.9v14c0 1.1.9 2 2 2h236c1.1 0 2-.94 2-2v-14z" fill="currentColor"/><path d="m49.07 203.1-41.07 4.9v14c0 1.1.9 2 2 2h236c1.1 0 2-.9 2-2v-14z" fill="url(#u5Q)"/><use class="ColorScheme-Highlight" fill="currentColor" href="#u5S"></use><use fill="url(#u5M)" href="#u5S" opacity=".075"></use><use href="#u5S" opacity=".5"></use><path d="m248 120.66-229.5 87.34h85.5l143.97-54.8z" fill="url(#u5N)" opacity=".4"/><path d="M 248,124.3 44,208 H 248 Z" fill="#334545"/><g opacity=".4">
<path d="m248 201.6-15.6 6.4h15.6z" opacity=".6"/>
<path d="m154.7 201.2-3.86 6.8h33.6z" opacity=".3"/>
<path d="m229.66 189.8-44.36 18.2h34z" opacity=".6"/>
<path d="m199.4 182.9-44.66 18.3 29.73 6.8h.63z" opacity=".5"/>
<path d="m199.4 182.9-14.3 25.1h.2l44.36-18.2z" opacity=".7"/>
<path d="m154.7 201.2-16.5 6.8h12.66z"/>
<path d="m94.16 187.4-11.7 20.6h8.7l33.3-13.67z" opacity=".6"/>
<path d="m124.44 194.33 44.66-18.33-14.4 25.23z" opacity=".3"/>
<path d="m124.44 194.33-33.3 13.67h25.5z"/>
<path d="m124.44 194.33-7.8 13.67h21.56l16.5-6.8z" opacity=".5"/>
<path d="m94.16 187.43 44.66-18.33-14.4 25.23z" opacity=".5"/>
<path d="m169.1 176-44.66 18.33 14.4-25.23z"/>
<path d="m199.38 182.9-44.66 18.33 14.4-25.23z" opacity=".75"/>
<path d="m94.16 187.4-44.66 18.33 9.86 2.25h23.1z"/>
<path d="m49.5 205.75-1.3 2.25h11.14z" opacity=".6"/>
<path d="m199.38 182.9 44.66-18.33-14.4 25.23z" opacity=".6"/>
<path d="m248 143.6-34.23 14.05 30.27 6.9 3.97-6.95z" opacity=".6"/>
<path d="m169.1 176 44.66-18.33-14.4 25.23z" opacity=".3"/>
<path d="m244.04 164.57-44.66 18.33 14.4-25.23z"/>
<path d="m248 162.95-3.97 1.6 3.97.9z" opacity=".6"/>
<path d="m244.03 164.6-14.4 25.2 18.34-7.53v-16.8z"/>
<path d="m138.8 169.1 44.66-18.33-14.4 25.23z" opacity=".5"/>
<path d="m229.66 189.8-10.4 18.2h13.1l15.6-6.4v-7.6z" opacity=".5"/>
<path d="m248 182.27-18.34 7.53 18.34 4.2z" opacity=".75"/>
<path d="m183.5 150.77 44.66-18.33-14.4 25.23z"/>
<path d="m213.76 157.67-44.66 18.33 14.4-25.23z" opacity=".6"/>
<path d="m228.14 132.44-14.4 25.23 34.23-14.05v-6.66z" opacity=".75"/>
<path d="m248 124.3-19.86 8.14 19.86 4.53z" opacity=".5"/>
<path d="m248 157.6-3.97 6.95 3.97-1.6z" opacity=".6"/>
<path d="m248 124.3-204 83.7h9.77l194.2-79.7z"/>
</g><path d="m8.6 34.55c-.4.7-.6 1.5-.6 2.33v62.1l240 49.9v-59.44z" fill="url(#u5O)" opacity=".4"/><path d="m10 32c-1.1 0-2 .9-2 2v77.86l9.05-4.6 48.8-11.6 6.1.23 176.06 36.6v-98.53c0-1.1-.9-2-2-2z"/><use class="ColorScheme-Highlight" fill="currentColor" href="#u5T" opacity=".6"></use><use class="ColorScheme-NeutralText" fill="currentColor" href="#u5T" opacity=".15"></use><path class="ColorScheme-NeutralText" d="m10 32c-1.1 0-2 .9-2 2v77.86l9.05-4.6 48.8-11.6 6.1.23 176.06 6.67v-68.6c0-1.1-.9-2-2-2z" fill="currentColor" opacity=".15"/><path class="ColorScheme-NeutralText" d="m10 32c-1.1 0-2 .9-2 2v77.86l9.05-4.6 230.95-70.73v-2.53c0-1.1-.9-2-2-2z" fill="currentColor" opacity=".15"/><path class="ColorScheme-NeutralText" d="m10 32c-1.1 0-2 .9-2 2v77.86l125.6-79.86z" fill="currentColor" opacity=".15"/><path d="m125.53 32-117.53 75.77v4.1l9.03-4.6 48.8-11.6 6.14.23 176.05 36.6v-3.7l-154.2-32.06 154.2 5.84v-3.64l-180.6-7.1 180.6-55.3v-2.54c0-.4-.16-.8-.4-1.1l-224.93 69.76 110.9-70.65z" fill="#fffefc" opacity=".15"/><path d="m93.85 96.76-21.85-.83 176 36.6v-29.93z" fill="url(#u5R)" opacity=".6"/><path class="ColorScheme-Background" d="m8 208v14c0 1.1.9 2 2 2h236c1.1 0 2-.9 2-2v-14z" fill="currentColor" opacity=".8"/><rect class="ColorScheme-Background" fill="currentColor" height=".5" opacity=".2" width="240" x="8" y="208"/><rect fill="url(#u5P)" height="4" opacity=".2" width="240" x="8" y="204"/><rect class="ColorScheme-Text" fill="currentColor" height="4" ry="2" width="18" x="223" y="214"/><rect class="ColorScheme-Text" fill="currentColor" height="4" ry="2" width="4" x="215" y="214"/><rect class="ColorScheme-Text" fill="currentColor" height="8" ry="4" width="8" x="15" y="212"/><path d="m8 35v-1c0-1.1.9-2 2-2h236c1.1 0 2 .9 2 2v1c0-1.1-.9-2-2-2h-236c-1.1 0-2 .9-2 2z" fill="#fff" opacity=".1"/><path d="m8 34.5v-.5c0-1.1.9-2 2-2h236c1.1 0 2 .9 2 2v.5c0-1.1-.9-2-2-2h-236c-1.1 0-2 .9-2 2z" fill="#fff" opacity=".1"/><path class="ColorScheme-Text" d="m8 221v1c0 1.1.9 2 2 2h236c1.1 0 2-.9 2-2v-1c0 1.1-.9 2-2 2h-236c-1.1 0-2-.9-2-2z" fill="currentColor" opacity=".1"/><path class="ColorScheme-Text" d="m8 221.5v.5c0 1.1.9 2 2 2h236c1.1 0 2-.9 2-2v-.5c0 1.1-.9 2-2 2h-236c-1.1 0-2-.9-2-2z" fill="currentColor" opacity=".1"/></g>
</svg>