<svg height="256" version="1.1" width="256" xmlns="http://www.w3.org/2000/svg" xmlns:svg="http://www.w3.org/2000/svg" xmlns:xlink="http://www.w3.org/1999/xlink">
<defs id="primary-definitions">
<style id="current-color-scheme" type="text/css">
      .ColorScheme-Text         { color: #232629; }
      .ColorScheme-Background   { color: #eff0f1; }
      .ColorScheme-Highlight    { color: #7ec9f0; }
      .ColorScheme-PositiveText { color: #27ae60; }
      .ColorScheme-NeutralText  { color: #f67400; }
      .ColorScheme-NegativeText { color: #da4453; }
      .ColorScheme-ActiveText   { color: #3daee9; }
      .ColorScheme-Complement   { color: #ffffff; }
      .ColorScheme-Contrast     { color: #000000; }
    </style>
<style id="extended-color-scheme" type="text/css">
      .ExScheme-Black     { color:#3e3e3e; }
      .ExScheme-White     { color:#fcfcfc; }
      .ExScheme-Grey-1    { color:#cfd5d5; }
      .ExScheme-Grey-2    { color:#909c9c; }
      .ExScheme-Grey-3    { color:#536161; }
      .ExScheme-Red-1     { color:#ffafa5; }
      .ExScheme-Red-2     { color:#bf4231; }
      .ExScheme-Red-3     { color:#4d2f2b; }
      .ExScheme-Green-1   { color:#abf9c7; }
      .ExScheme-Green-2   { color:#3bb566; }
      .ExScheme-Green-3   { color:#377d50; }
      .ExScheme-Blue-1    { color:#abdaf9; }
      .ExScheme-Blue-2    { color:#3daefd; }
      .ExScheme-Blue-3    { color:#2b3c4d; }
      .ExScheme-Yellow-1  { color:#faffa5; }
      .ExScheme-Yellow-2  { color:#cac726; }
      .ExScheme-Yellow-3  { color:#4b4d2b; }
      .ExScheme-Orange-1  { color:#ffdaa5; }
      .ExScheme-Orange-2  { color:#ff9701; }
      .ExScheme-Orange-3  { color:#4d372b; }
      .ExScheme-Brown-1   { color:#e9d6bb; }
      .ExScheme-Brown-2   { color:#997657; }
      .ExScheme-Brown-3   { color:#433a35; }
      .ExScheme-Purple-1  { color:#e2abf9; }
      .ExScheme-Purple-2  { color:#b401ff; }
      .ExScheme-Purple-3  { color:#432b4d; }
      .ExScheme-Cyan-1    { color:#b2f2e6; }
      .ExScheme-Cyan-2    { color:#31bfa6; }
      .ExScheme-Cyan-3    { color:#2b4d47; }
      .ExScheme-Magenta-1 { color:#f8a6d8; }
      .ExScheme-Magenta-2 { color:#f00091; }
      .ExScheme-Magenta-3 { color:#770048; }
    </style>
<linearGradient id="uO1">
<stop offset="0"/>
<stop offset="1" stop-opacity="0"/>
</linearGradient>
<linearGradient id="uO2">
<stop offset="0" stop-color="#fff"/>
<stop offset="1" stop-color="#fff" stop-opacity="0"/>
</linearGradient>
<style id="uO3" type="text/css">
        .force-display-for-editing { display: inline !important; }
    </style><style class="remove-if__show-crease" type="text/css">
        .enable-if__show-crease { display: none; }
    </style><style class="remove-if__color-sync-mimes-places" type="text/css">
        .enable-if__color-sync-mimes-places { display: none; }
    </style><radialGradient cx=".5" cy="0" id="uO4" r="1" xlink:href="#uO2"/><linearGradient id="uO5" xlink:href="#uO1" y1="1" y2=".5"/><style class="ColorScheme-Background" fill="currentColor" opacity=".6" type="text/css">
   .ColorScheme-Text           { color:#eff0f1; }
      .ColorScheme-Background     { color:#31363b; }
      .ColorScheme-Highlight      { color:#3daefd; }
      .ColorScheme-ViewBackground { color:#fcfcfc; }
      .ColorScheme-PositiveText   { color:#27ae60; }
      .ColorScheme-NeutralText    { color:#f67400; }
      .ColorScheme-NegativeText   { color:#da4453; }
  </style><path d="m 40,32 c -6.65,0 -12,5.35 -12,12 v 28 c -6.65,0 -12,5.35 -12,12 v 128 c 0,6.65 5.35,12 12,12 h 200 c 6.65,0 12,-5.35 12,-12 V 104 84 76 c 0,-6.65 -5.35,-12 -12,-12 V 52 c 0,-6.65 -5.35,-12 -12,-12 H 112 C 96,40 96,32 84,32 Z" id="uO6"></path><path d="m 40,32 c -6.65,0 -12,5.35 -12,12 v 28 h 52 c 16,0 16,-8 28,-8 H 228 V 52 c 0,-6.65 -5.35,-12 -12,-12 H 112 C 96,40 96,32 84,32 Z" id="uO7"></path></defs>
<g id="content" transform="translate(0,0)"><use class="sync-color enable-if__color-sync-mimes-places force-display-for-editing ColorScheme-ActiveText" fill="currentColor" href="#uO6"></use><use class="primary-color remove-if__color-sync-mimes-places ColorScheme-ActiveText" fill="currentColor" href="#uO6"></use><use class="ColorScheme-Contrast" fill="currentColor" href="#uO6" opacity=".1"></use><g id="panorama" transform="translate(16,64)"><g transform="scale(2)">
<rect fill="#fcfcfc" height="28.00004" ry="4" stop-color="#000000" transform="rotate(7.5)" width="28.00004" x="44.938217" y="15.165679"/>
<path d="m 46.3,23.4 c -1.1,-.14 -2.1,.6 -2.24,1.7 l -2.6,19.83 c -.14,1.1 .6,2.1 1.7,2.24 l 19.83,2.6 c 1.1,.14 2.1,-.6 2.24,-1.7 L 67.83,28.26 c .14,-1.1 -.6,-2.1 -1.7,-2.24 z m 2.25,3.6 4.05,5.3 -5.3,4.05 -1.2,-1.6 3.7,-2.83 -2.83,-3.7 z" fill="#68377d" id="rect37578" stop-color="#000000"/>
<path color="#000000" d="M 97.3 90.3 C 96.5 90.3 95.75 90.45 95 90.66 C 93.5 91.06 92.04 91.74 90.8 93 L 69.9 113.9 C 67.34 116.45 66.5 119.5 67.45 122.95 L 75.2 151.5 C 75.57 153.23 76.5 154.54 77.6 155.63 C 78.67 156.7 79.97 157.65 81.7 158.1 L 88.76 160 L 122.65 160 L 140.2 142.44 C 141.5 141.16 142.16 139.7 142.56 138.2 C 142.96 136.7 143.1 135.14 142.64 133.4 L 135 104.85 C 134.5 103.1 133.6 101.8 132.5 100.7 C 131.4 99.6 130.1 98.7 128.37 98.23 L 99.8 90.6 C 98.95 90.35 98.13 90.27 97.3 90.3 z " fill="#fcfcfc" transform="scale(0.5)"/>
<path d="M 64.84,51.77 C 64.5,51.43 64.1,51.16 63.67,51.05 L 49.4,47.2 c -.8,-.2 -2,.1 -2.6,.7 L 36.35,58.37 c -.6,.6 -.9,1.77 -.7,2.6 l 3.8,14.27 c .1,.4 .4,.83 .7,1.17 L 53.9,64.74 Z" fill="#659ad2"/>
<path d="m 69.35,68.7 c .13,-.47 .15,-.97 .04,-1.4 L 65.56,52.94 c -.1,-.4 -.4,-.83 -.7,-1.17 l -12.3,12.3 2.8,3.4 z" fill="#00599c"/>
<path d="M 105.04 128.17 L 80.4 152.8 C 81.2 153.5 81.94 154.03 82.76 154.25 L 104.2 160 L 117 160 L 137.4 139.6 C 138 139 138.45 138.13 138.8 137.2 L 105.04 128.17 z " fill="#004382" transform="scale(0.5)"/>
<path d="m 55.2,74.06 c -5.5,1.47 -11.17,-1.8 -12.64,-7.3 -1.47,-5.5 1.8,-11.17 7.3,-12.64 3.55,-.95 7.37,.07 9.97,2.67 l -3.65,3.65 c -1.3,-1.3 -3.2,-1.8 -5,-1.34 -2.75,.74 -4.4,3.57 -3.65,6.3 .74,2.75 3.57,4.4 6.3,3.65 1.77,-.5 3.17,-1.87 3.65,-3.65 l 5,1.34 c -.95,3.55 -3.75,6.34 -7.3,7.3 z" fill="#ffffff"/>
<polygon fill="#ffffff" points="232.334,177.841 232.334,189.175 243.666,189.175 243.666,177.841 255,177.841 255,166.508 243.666,166.508 243.666,155.175 232.334,155.175 232.334,166.508 221,166.508 221,177.841 " transform="matrix(.1,-.026,.026,.1,33.06,51.267)"/>
<polygon fill="#ffffff" points="274.834,177.841 274.834,189.175 286.166,189.175 286.166,177.841 297.5,177.841 297.5,166.508 286.166,166.508 286.166,155.175 274.834,155.175 274.834,166.508 263.5,166.508 263.5,177.841 " transform="matrix(.1,-.026,.026,.1,33.06,51.267)"/>
<path d="M 81.45 2.9 C 77.37 5.2 73.5 8 64 8 L 33.53 8 A 34 34 0 0 0 28.4 36.4 A 34 34 0 0 0 70.06 60.43 A 34 34 0 0 0 91.97 42.13 L 81.45 2.9 z " fill="#fcfcfc" stop-color="#000000" stroke-opacity=".2" transform="scale(0.5)"/>
<path d="M 79.63 3.93 C 76.2 5.95 72.2 8 64 8 L 38.6 8 A 30 30 0 0 0 31.35 25.37 A 30 30 0 0 0 50.34 55.5 L 56.17 36.2 A 10 10 0 0 1 51.3 26.86 A 10 10 0 0 1 62 17.64 A 10 10 0 0 1 71.23 28.35 A 10 10 0 0 1 65 36.86 L 67.9 56.84 A 30 30 0 0 0 90.16 35.4 L 82.37 6.3 A 30 30 0 0 0 79.63 3.93 z " fill="#3bb566" stop-color="#000000" stroke-opacity=".2" transform="scale(0.5)"/>
<path color="#000000" d="m 31.26,19.3 -2.15,.3 c -1.2,.15 -1.97,1.3 -1.7,2.46 0,0 .16,.66 .3,1.55 .1,.74 -.2,3 -.27,3.4 -.3,-.23 -.5,-.55 -1,-.6 -1,-.14 -2.24,.67 -2.6,1.47 -.35,.8 -.3,1.5 -.2,2.2 .26,1.54 .7,1.83 1.13,2.54 -.35,.45 -.77,.86 -.77,1.77 0,.5 -.05,.67 -.07,.73 -.3,.54 -.74,1.5 -.3,2.93 .4,1.46 1.23,1.93 1.95,2.47 .36,.27 .7,.5 1.06,.7 .16,.1 .54,.26 .6,.3 .2,.2 -.3,2.86 -.2,3.83 .1,.97 .47,1.77 .94,2.46 .25,.37 -.04,1.6 -.36,2.06 -1.1,1.26 -2,2.8 -2.36,4.6 -.36,1.8 -.1,3.9 1.2,5.6 .83,1.1 1.9,2.2 3.26,3 .66,.4 1.4,.7 2.23,.85 -0,.07 -0,.1 -0,.16 -.2,.9 -.54,2.1 -.2,3.53 .07,.3 .2,.56 .4,.8 .67,.83 1.9,1.4 2.9,1.3 1,-.1 1.7,-.55 2.25,-.96 1.1,-.84 2.03,-1.86 2.2,-2 1,-.7 1.55,-1.54 2,-2.1 .4,-.5 .63,-.66 .8,-.73 1.25,-.23 2.54,-.16 3.47,.14 .96,1.57 2.26,3.6 4.96,4.06 .14,.03 .3,.04 .43,.03 .5,-0.02 1,-.1 1.5,-.34 .55,-.26 1.16,-.9 1.36,-1.55 .4,-1.35 -.14,-2.03 -.4,-2.55 -.3,-.53 -1,-3.34 -1.1,-4.16 .4,-.35 1,-.6 1.2,-.96 .44,-.77 .53,-1.6 .53,-1.6 0,-.35 -.06,-.7 -.2,-1 .16,-.2 .4,-.3 .5,-.5 .4,-.64 .8,-1.67 .3,-2.76 -.45,-1 -1.43,-1.5 -2.3,-1.67 -.3,-.1 -.6,-.16 -.9,-.23 -.46,-.4 -1.06,-.54 -1.64,-.43 -.57,-.15 -1.14,-.3 -1.73,-.47 -0,-.1 -.03,-.15 -.04,-.43 -0,-.44 0,-1.05 -.26,-1.86 -.07,-.2 -.24,-.65 -.1,-.7 2.77,-1.1 6.4,-2.75 7.9,-6.5 0,-.06 .04,-.1 .06,-.17 1.1,-3.7 -2.35,-9.15 -3.35,-9.93 l 2.13,-4.2 c .5,-1.03 .07,-2.3 -1,-2.74 L 51.7,22.6 c -.6,-.06 -1.2,.16 -1.6,.6 -.04,-.07 -.1,-.14 -.13,-.2 l -1.64,-1.1 c -1.4,-.9 -3.2,.16 -3.1,1.8 l .2,2.8 c -1.07,-.3 -2.1,-.7 -3.24,-.7 -.05,-.03 -.1,-.05 -.16,-.07 -2.17,-.03 -4.2,.74 -6.07,1.86 l -.17,-.25 2.57,-2.1 c .8,-.66 .97,-1.84 .37,-2.7 l -1.35,-1.9 c -.7,-.96 -2.04,-1.14 -2.93,-.37 l -.95,.8 c -.1,-1.13 -1.1,-1.96 -2.2,-1.84 z" fill="#fcfcfc" fill-rule="evenodd"/>
<path d="m 46.4,29.26 1.17,-.84 -.33,-4.8 1.64,1.1 .47,3 1.6,-3.23 1.73,.75 -3,5.9 z" fill="#ffafa5" fill-rule="evenodd"/>
<path d="m 42,27.8 c -3.6,-.04 -7.26,2 -8.64,5.43 -.7,2.1 -1.44,4.2 -2.16,6.33 1.2,1 2.5,1.9 3.65,2.95 1.2,1.5 3.35,1.5 4.9,2.5 .56,1.3 -.33,1.3 -1.26,1.44 -.75,1.3 1.13,3.04 -.2,4.45 -.8,1.67 -1.8,3.26 -2.76,4.83 -1.7,-.3 -4.33,-.6 -4.37,-2.8 0,-1.35 -.67,-3.94 -2.04,-1.86 -1.85,2 -2.94,5.37 -1.1,7.76 1.4,1.87 3.7,3.7 6.17,3.1 .2,1.8 -.97,3.44 -.55,5.2 1.43,1.8 3.4,-1.14 4.64,-2.03 1.3,-.9 1.9,-2.65 3.4,-3.16 1.7,-.34 3.65,-.4 5.2,.3 1,1.6 2.14,3.56 4.14,3.9 2.66,-.1 -.5,-2.6 -.26,-3.95 -.15,-1.87 -.5,-3.7 -.8,-5.57 .95,-.07 -.2,-1.6 .86,-1.3 1.46,.3 3.36,-2 1.1,-2.33 -1.6,-.4 -3.1,-.8 -4.74,-1.25 -2.1,-.76 -.05,-3.8 -2.25,-4.36 -.7,-1.46 .9,-2.1 2.04,-2.4 2.67,-1.1 5.65,-2.54 6.8,-5.4 .8,-2.7 -.7,-5.45 -2.36,-7.47 -2.3,-2.7 -5.8,-4.45 -9.37,-4.36 z" fill="#54d883" fill-rule="evenodd"/>
<path d="m 45.36,52.7 .9,-.4 c 0,0 .4,1.35 1.8,.9 1.4,-.47 2.2,-1.03 2.2,-1.03 0,0 1.17,2.25 -.1,3.65 -1.26,1.4 -2,1.6 -2,1.6 -1.3,-1.15 -2.4,-2.54 -2.8,-4.7 z" fill="#ffe5e1" fill-rule="evenodd"/>
<path d="m 39.73,45.36 c 0,0 .47,.94 .23,1.73 -.23,.8 -1.45,1.73 -1.45,1.73 0,0 -.66,2.15 -1.9,3.93 -.63,.9 -1.46,1.03 -2.27,1.13 -.75,-1.4 -1.65,-.6 -2.6,.2 .17,.23 .36,.4 .55,.6 -0,0 -0,0 -.03,.04 -1.03,1.4 2.3,1.87 2.3,1.87 0,0 .4,-1.27 3.9,-.7 3.46,.56 4.63,2.85 9.1,3.2 4.44,.33 4.63,-2.3 4.63,-2.3 0,0 -1.73,-.66 -4.6,-3.93 -2.85,-3.3 -2.5,-6.65 -2.5,-6.65 l -5.34,-.84 z m -9.15,6.2 c -.2,.73 -.1,1.36 .67,1.84 1.1,-1.45 .24,-1.64 -.67,-1.84 z" fill="#ffafa5" fill-rule="evenodd"/>
<path d="m 35.63,30.7 -2.53,-3.7 4,-3.3 -1.35,-1.9 -4.07,3.46 -.14,-4.03 -2.15,.3 c 0,0 .84,3.4 .2,5.3 -.66,1.87 -1.73,3.75 -1.73,3.75 l 1.7,1.03 2.15,-3.5 2.2,4.77 c 0,0 .6,-.3 1.2,-1 .6,-.7 .56,-1.17 .56,-1.17 z" fill="#ffafa5" fill-rule="evenodd"/>
<path d="m 33.43,30.7 -1.5,1.3 c 0,0 -.66,-2 -.8,-3.05 -.13,-1.06 -.13,-2.85 -1.26,-2.6 -1.13,.26 -.73,5.1 -.73,5.1 0,0 -1.06,.53 -1.7,-1.5 -.66,-2.05 -2.1,-2.25 -1.8,-.26 .33,2 1.4,3.2 1.4,3.2 0,0 -1,.66 -1,1.46 0,.8 -.13,1.3 -.13,1.3 0,0 -.6,.86 -.33,1.8 .26,.93 2.2,2.2 2.5,2.1 .33,-.07 .8,1.13 1.9,1.6 1.13,.46 2.3,3.24 2.3,3.24 l 1.85,-.33 .93,-2.1 -.33,-2.05 z" fill="#54d883" fill-rule="evenodd"/>
<path d="m 38.55,45.36 c 0,0 .56,.9 .5,1.73 -.05,.84 -.8,1.87 -.8,1.87 0,0 -3.7,.94 -5.8,.05 -2.1,-.9 -4.54,-3.65 -3,-5.24 1.54,-1.6 5,-3.46 5.8,-2.06 .8,1.4 .75,4.36 1.64,4.2 .9,-.14 1.64,-.56 1.64,-.56 z" fill="#ffe5e1" fill-rule="evenodd"/>
<path color="#000000" d="M 134.8 0 C 134.1 .14 133.36 .3 132.65 .5 A 4 4 0 0 0 132.64 .5 C 124.14 2.8 117.4 8.8 113.26 16.5 C 112.87 16.55 112.5 16.5 112.1 16.5 A 4 4 0 0 0 112.1 16.5 C 110.7 16.87 109.5 17.6 108.5 18.6 C 106.5 20.6 105.7 23.55 106.43 26.3 L 110 39.7 L 113.6 53.07 C 114.87 57.8 120.14 59.8 124.35 58.1 C 131.8 62.73 140.66 64.6 149.3 62.3 A 4 4 0 0 0 149.2 62.3 C 166.24 57.75 176.4 40.14 171.84 23.1 C 168.57 10.93 158.63 2.27 147 0 L 134.8 0 z " fill="#fcfcfc" transform="scale(0.5)"/>
<path d="m 66.84,2.2 a 14,14 0 0 0 -9.2,8 l -.03,-0 a 2,2 0 0 0 -1.04,-0 2,2 0 0 0 -.9,.5 2,2 0 0 0 -.5,1.93 l 1.8,6.7 1.8,6.7 a 2,2 0 0 0 3.35,.9 l 0,-0 A 14,14 0 0 0 74.1,29.23 14,14 0 0 0 84,12.1 14,14 0 0 0 66.84,2.2 Z" fill="#3bb566" stop-color="#000000"/>
<path d="m 32,18 -6,3.46 v -6.93 z" fill="#fcfcfc" opacity="1" stop-color="#000000" transform="matrix(1.93,-.52,.52,1.93,-.673,-2.507)"/>
<path d="m 67.36,4.1 a 12,12 0 0 0 -7.8,6.6 l 2,.53 A 10,10 0 0 1 67.9,6.04 10,10 0 0 1 80.1,13.1 10,10 0 0 1 73.05,25.36 10,10 0 0 1 64.97,24.03 l -1.45,1.45 a 12,12 0 0 0 10.05,1.8 12,12 0 0 0 8.5,-14.7 12,12 0 0 0 -14.7,-8.5 z" fill="#fcfcfc" stop-color="#000000"/>
<path d="m 68.4,7.97 a 8,8 0 0 0 -4.87,3.8 l 2,.54 a 6,6 0 0 1 3.4,-2.4 6,6 0 0 1 7.35,4.24 6,6 0 0 1 -4.24,7.35 6,6 0 0 1 -4.13,-.4 l -1.5,1.5 a 8,8 0 0 0 6.1,.85 8,8 0 0 0 5.66,-9.8 A 8,8 0 0 0 68.4,7.97 Z" fill="#fcfcfc" stop-color="#000000"/>
<path color="#000000" d="m 61.37,21.75 c -1.8,1.1 -2.64,3.3 -2.1,5.33 l 5.4,20.83 -1.03,.65 -0,0 c -1.1,.7 -1.6,2 -1.3,3.26 l 0,0 3.4,12.54 -0,0 c .5,1.86 2.8,2.75 4.4,1.73 l 0,-0 27.47,-17.3 0,-0 c 1.63,-1.03 1.8,-3.5 .34,-4.73 l -0,0 -9.85,-8.47 -0,-0 c -1,-.84 -2.4,-.94 -3.5,-.25 L 83.57,35.97 67.2,22.14 C 65.5,20.8 63.15,20.6 61.37,21.75 Z" fill="#fcfcfc"/>
<path d="m 62.43,23.44 a 2.86,2.86 0 0 0 -1.24,3.14 l 6.27,24.27 a 2.86,2.86 0 0 0 2.85,2.15 c 3.2,-.1 6.5,-1.36 8.93,-2.9 2.44,-1.54 5,-3.96 6.47,-6.8 A 2.86,2.86 0 0 0 85,39.8 L 65.8,23.67 a 2.86,2.86 0 0 0 -3.37,-.23 z" fill="#ffddad"/>
<path d="m 70.67,27.74 c -1.14,1.17 -2.4,2.2 -3.64,2.96 -1.23,.8 -2.7,1.5 -4.24,2 l 1.83,7.07 c 2.37,-.47 4.67,-1.47 6.5,-2.6 1.8,-1.15 3.7,-2.8 5.16,-4.73 l 5.33,4.47 z m 10.9,9.17 c -1.46,2.8 -4,5.2 -6.4,6.7 -2.4,1.5 -5.66,2.8 -8.8,2.9 l .6,2.4 -2.27,1.43 a .95,.95 0 0 0 -.4,1.06 l 3.4,12.54 a .95,.95 0 0 0 1.43,.56 L 96.54,47.1 a .95,.95 0 0 0 .1,-1.53 l -9.85,-8.46 a .95,.95 0 0 0 -1.13,-.1 l -2.27,1.43 z" fill="#eb9419"/>
<path color="#31363b" d="M 6,4 C 2.7,4 2.36e-4,6.7 2.37e-4,10 V 20.5 L 1.3,19.5 c 1.25,4.5 5,8.1 9.9,8.75 6.55,.86 12.6,-3.8 13.46,-10.33 .4,-3.17 -.46,-6.24 -2.2,-8.64 -0,-0 -0,-0 -0,-.03 L 18.47,4 Z" fill="#fcfcfc"/>
<path class="ColorScheme-Background" color="#31363b" d="M 11.04,4 12.8,6.27 2.8,4.95 C 1.5,5.8 .53,7.1 .17,8.64 L 4.8,9.25 2.37e-4,12.9 v 5.05 L 2.77,15.84 c -.27,5.16 3.47,9.74 8.7,10.43 5.5,.7 10.5,-3.13 11.2,-8.6 .35,-2.65 -.4,-5.2 -1.84,-7.2 L 15.97,4 Z m 1.14,6.4 a 6,6 0 0 1 1.34,0 6,6 0 0 1 5.17,6.73 6,6 0 0 1 -6.73,5.17 6,6 0 0 1 -5.16,-6.73 6,6 0 0 1 5.4,-5.2 z m .8,4 a 2,2 0 0 0 -2.25,1.7 2,2 0 0 0 1.7,2.24 2,2 0 0 0 2.24,-1.7 2,2 0 0 0 -1.7,-2.25 z" fill="#ffa92d"/>
<path color="#000000" d="M 32.25 46.3 C 30.9 46.27 29.5 46.43 28.03 46.86 C 23.17 48.3 20.65 52.34 19.56 55.46 C 18.47 58.6 18.46 61.37 18.46 61.37 A 4 4 0 0 0 18.5 61.5 L 1.45 49.84 A 4 4 0 0 0 0 49.26 L 0 80.67 C .8 81.84 1.75 83 2.97 84.1 C 7.06 87.86 12.46 88.15 16.83 88.17 C 18.37 88.2 18.4 88.06 19.65 87.96 C 18.3 90.55 16.3 91.75 16.3 91.75 A 4 4 0 0 0 14.1 95.33 L 14.1 105.34 A 4 4 0 0 0 21.7 107.1 L 23.85 102.67 C 25 102.73 25.6 102.8 28.74 102.87 C 34.9 103.04 41.05 100.4 45.04 95.54 C 49.03 90.7 50.25 83.16 46.2 76 C 43.13 70.64 42.2 67.56 41.8 65.75 L 60.5 61.27 A 4 4 0 0 0 60.1 53.4 L 43.07 51.16 C 41.9 49.95 39.34 47.45 34.57 46.55 C 33.83 46.4 33.05 46.3 32.25 46.3 z " fill="#fcfcfc" transform="scale(0.5)"/>
<path d="m 10.7,49.25 -1.67,3.4 v -5 c 7.6,.8 13.06,-3.57 9.6,-11.3 -.76,-1.7 -.54,-4.4 .16,-5 -1,1.96 1.3,4.96 2.8,8.45 .2,.5 .43,1 .5,1.65 .1,.85 .1,1.45 -.05,2.13 -.6,2.75 -2.9,4.2 -3.7,4.67 -2.8,1.5 -5.26,1.4 -7.7,1.03 z" fill="#2a7fff" fill-rule="evenodd" stroke="#000000" stroke-dasharray="none" stroke-linejoin="miter" stroke-width="0"/>
<path d="m 12.3,32.6 c -1.5,-2.2 2.06,-7.97 7.16,-3.9 H 29.8 L 20.77,27.5 C 16.05,21.7 9.17,27.25 11.76,31.84 Z" fill="#1a1a1a" fill-rule="evenodd" stroke="#000000" stroke-dasharray="none" stroke-linejoin="miter" stroke-width="0"/>
<path d="M 0 53.7 L 0 67.6 C 1.13 69.27 2.75 70.8 4.93 72.15 L .86 71.16 C 2.34 78.9 4.43 83.66 14.5 83.9 L 16.63 83.74 C 12.17 83.4 8.2 81.94 6.5 74.83 L 25.3 77.7 C 20.2 76.55 16.87 75.67 12.6 74.33 C 11.27 73.9 9.83 73.45 8.64 72.7 C 3.5 68.4 3.17 64.17 3.9 59.87 L 27.5 72.45 L 0 53.7 z " fill="#2a7fff" fill-rule="evenodd" stroke="#000000" stroke-dasharray="none" stroke-linejoin="miter" stroke-width="0" transform="scale(0.5)"/>
<path d="M 62.5 92.06 C 59.67 92 56.9 93.43 55.37 96.07 L 48.26 108.4 L 48.26 147.4 L 70.1 160 L 82.94 160 C 83.3 159.6 83.6 159.2 83.87 158.7 L 103.87 124.07 C 106.1 120.23 104.77 115.36 100.94 113.14 L 66.3 93.14 C 65.2 92.45 63.8 92.1 62.5 92.06 z " fill="#fcfcfc" id="rect1342" stop-color="#000000" stroke-opacity=".2" transform="scale(0.5)"/>
<path d="m 31.33,47.9 c -.73,-0 -1.45,.35 -1.85,1.04 l -2.06,3.57 4.53,2.6 c .76,-.5 1.75,-.57 2.6,-.1 .84,.5 1.3,1.4 1.2,2.3 l 4.37,2.5 c .76,-.5 1.77,-.6 2.6,-.1 1.2,.7 1.6,2.2 .9,3.37 -.7,1.2 -2.2,1.6 -3.37,.9 -.9,-.5 -1.33,-1.5 -1.2,-2.45 l -4.07,-2.35 2.26,8.45 c .26,.05 .5,.14 .75,.3 1.2,.7 1.6,2.2 .9,3.37 -.7,1.2 -2.2,1.6 -3.36,.9 -1.2,-.7 -1.6,-2.2 -.9,-3.37 .17,-.3 .4,-.54 .64,-.73 l -2.3,-8.53 c -.3,-.04 -.63,-.14 -.9,-.3 -.9,-.5 -1.34,-1.5 -1.2,-2.46 l -4.46,-2.6 -2.27,3.94 -1e-6,12.86 13.4,7.75 c 1,.57 2.26,.23 2.83,-.76 l 9.9,-17.1 c .57,-1 .23,-2.26 -.76,-2.83 v -0 L 32.3,48.17 c -.3,-.2 -.65,-.27 -1,-.3 z" fill="#f05133"/>
<path color="#000000" d="M 45.53 102.73 C 45.4 102.7 45.26 102.7 45.1 102.73 C 42.9 102.84 41.7 104.54 41.2 105.54 C 40.9 106.15 40.85 106.56 40.73 107.04 C 38.5 106.45 36.3 106.1 34.2 106.1 C 32.4 106.1 30.76 106.3 29.27 106.7 C 28.46 106.93 27.8 107.8 27 108.26 C 25.7 108.1 23.43 107.7 18.2 108.97 C 12.15 110.46 9 113.24 8.3 113.9 C 7.7 114.2 3.5 116.35 0 121.56 L 0 148 C 0 149.4 .24 150.7 .66 151.9 C .73 152.03 .8 152.13 .87 152.24 C 1.7 153.54 2.95 155.05 4.6 156.66 C 5.37 157.44 6.27 158.24 7.24 159 C 8.8 159.65 10.3 160 12 160 L 44.16 160 C 44.3 159.9 44.46 159.84 44.6 159.74 C 45.3 159.3 46.07 158.95 46.8 157.56 C 47.05 157.04 47.05 156.2 47 155.46 C 47.4 155.35 47.83 155.66 48.17 155.5 C 49.76 154.7 51.1 153.4 52.64 151.44 C 55.14 148.27 56.53 143.87 57 139.05 C 57.57 133.43 56.64 127.23 53.4 122.1 C 54 121.3 54.44 120.5 54.7 119.64 C 55.24 118.76 55.76 117.86 56.04 116.7 C 56.2 115.96 56.34 115.17 56.17 114.15 C 56 113.13 55.3 111.7 54.04 110.97 C 53.2 110.5 52 110.3 51.04 110.5 C 50.7 110.57 50.57 110.75 50.3 110.87 C 50.3 110.56 50.24 110.25 50.2 109.95 C 50.24 109.17 50.27 108.16 50 106.94 C 49.74 105.7 48.95 103.6 46.65 102.9 C 46.3 102.8 45.93 102.74 45.53 102.73 z M 40.8 106.96 C 40.8 107 40.8 107 40.8 107.06 C 40.8 107.06 40.77 107.06 40.77 107.06 L 40.8 106.96 z " fill="#fcfcfc" transform="scale(0.5)"/>
<path d="M 13.76,55.7 C 12.7,55.73 8.35,56 6.3,58.83 4.4,61.45 5.8,70.06 6.76,72.7 7,73.36 8,72.2 8,72.2 c 0,0 -.75,-6 3,-5.13 4.66,1.06 -.7,7.33 -.7,7.33 -.6,1.05 -1.43,.5 -2.13,-.6 0,0 .4,4.54 2.5,6.33 h 4.93 C 20.5,78.43 27.6,73.75 26.55,66.1 25.25,56.8 14,55.7 14,55.7 c 0,0 -.1,-0 -.23,0 z" fill="#01195f"/>
<path d="m 20.44,67.26 3.05,2.2 3.37,-.1 c .26,-2.64 -.17,-5.6 -1.7,-7.76 -2.74,-3.97 -5.33,1.74 -5.33,1.74 0,0 .8,2.4 .6,3.9 z" fill="#43a6fa"/>
<path d="m 4.46,77.44 c 0,0 -3.65,-3.04 -4.2,-6.1 -.5,-3.07 .24,-4.1 .24,-4.1 0,0 -.83,-3 .8,-5.5 1.65,-2.47 3.7,-3.4 3.7,-3.4 0,0 1.44,-1.5 4.46,-2.25 3.03,-.75 4.5,-.4 4.5,-.4 0,0 -5.1,.86 -6.2,4.1 -1.07,3.2 .9,6.2 0,9.45 -.86,3.24 -1.4,4.7 -1.4,4.7 z" fill="#43a6fa"/>
<path d="m 17,54.7 c -1.5,0 -2.7,.36 -3,.87 -3.1,5.67 6.03,6.9 -1.76,15.06 -5.3,5.54 .4,7.66 3.17,9.47 h 2 c .96,-1.04 1.2,-2.73 .4,-5.16 -2.05,-5.96 -1.27,-9.24 2.1,-10.2 3.36,-1 5.76,-3.05 4,-6.84 -1.1,-2.37 -4.4,-3.2 -6.9,-3.2 z M 6,68.2 c -.04,-0 -.1,4.26e-4 -.13,0 -1.5,.24 .9,4.55 -.2,5.55 -1.1,1 -.54,-2.3 -2.2,-1.66 -1.65,.63 1.17,3.37 .5,3.96 -.8,.7 -1.9,-2.3 -2.57,-1.8 -.3,.25 2.1,3.9 6.27,5.9 h 7.63 C 7.66,77.43 8.7,71.86 8.27,71.74 7.8,71.6 7.8,72.6 7.5,72.66 6.37,72.8 7.3,68.25 6,68.2 Z" fill="#a2cefb"/>
<circle cx="37.79" cy="61.62" fill="#43a6fa" id="path16506-3" r="1.2" stop-color="#000000" transform="rotate(22.94)"/>
<path d="m 19.46,79.5 c 1.44,-.76 3,-1.3 2.33,-1.9 -.7,-.57 -1.33,.96 -2.4,1.2 -1.07,.2 -2.54,-.3 -2.85,.8 -.23,.8 1.5,.67 2.93,-.1 z" fill="#43a6fa"/>
<path d="m 20.44,67.26 c -.07,.45 -.2,.8 -.5,1.03 -1.3,.93 -3.1,-1.56 -4.46,-.2 -1.36,1.36 1.43,3.6 3.5,2.93 2.1,-.67 1.65,2.07 -1.95,1.5 -3.6,-.6 -4.2,-1.7 -4.8,.8 -.57,2.54 5,1.56 5.85,1.05 .87,-.5 2.1,-.8 2.26,-.47 .17,.3 -1.9,1 -1.44,1.54 .47,.5 3.64,-3.3 4.4,-2.3 .8,1 -1.45,1.2 -1.43,2.26 0,1.04 1,1.94 3.1,-.7 .94,-1.2 1.6,-3.16 1.84,-5.33 z" fill="#43a6fa"/>
<path d="m 15.85,57.05 c .84,-.8 3,-1.7 3.63,-.3 .65,1.4 -1.2,2.06 -2.1,2.03 -.9,-0 -1.94,-1.13 -1.54,-1.73 z" fill="#01195f"/>
<path d="m 21.8,54.6 c 0,0 .17,-1.8 1.04,-1.56 .86,.26 .56,2.33 .56,2.33 z" fill="#43a6fa"/>
<path d="m 22.4,57.1 c 0,0 -1.23,-2.67 -.3,-3 .9,-.3 1.5,.5 1.45,1.6 -.04,1.1 -.35,2.3 -.35,2.3 z" fill="#a2cefb"/>
<path d="m 24.86,58.2 c 0,0 .6,-1.7 1.34,-1.3 .7,.4 -.2,2.4 -.6,2.53 -.4,.23 -.7,-1.25 -.7,-1.25 z" fill="#43a6fa"/>
<path d="m 24.1,59.5 c 0,0 .84,-2.24 1.5,-2 .67,.25 .36,2.1 -.3,2.77 -.64,.7 -1.53,.9 -1.53,.9 z" fill="#a2cefb"/>
<path d="m 18,56.9 a 1.37,1.37 0 0 0 -1.8,.73 1.37,1.37 0 0 0 -.1,.45 c .1,.13 .25,.26 .4,.37 a 1,1 0 0 1 .04,-.7 1,1 0 0 1 1.3,-.54 1,1 0 0 1 .54,1.3 1,1 0 0 1 -.04,.07 c .16,-.05 .3,-.1 .46,-.2 A 1.37,1.37 0 0 0 18,56.9 Z" fill="#43a6fa" stop-color="#000000"/>
<path d="M 46,-4.8e-4 C 40.05,-4.8e-4 40,3.93 32.05,4 L 28.9,15.73 c -.65,2.43 .8,4.9 3.2,5.56 l 18.3,4.9 c 2.43,.65 4.9,-.8 5.56,-3.2 L 60.85,4.7 C 61.33,2.9 60.7,1.1 59.3,-4.8e-4 Z" fill="#fcfcfc" id="rect33149" stop-color="#000000"/>
<path d="M 46,-4.8e-4 C 40.63,-4.8e-4 40.05,3.2 34.16,3.87 L 30.96,15.8 c -.43,1.6 .5,3.24 2.1,3.67 l 17.4,4.66 c 1.6,.43 3.24,-.5 3.67,-2.1 L 58.8,4.63 C 59.23,3.03 58.3,1.4 56.7,.96 L 53.1,-4.8e-4 Z M 45.6,1.4 l 2.96,.5 -1.43,5.2 5.2,-4.1 2.9,1.53 -5.33,4.04 2.5,6.46 -3.27,.14 -2.33,-6.65 -1.36,5.07 -2.97,-.34 z m -4.4,1.64 c 0,-0 .03,-0 .05,0 .03,0 .07,0 .1,.05 l 1.8,2 c .3,-.07 .6,-.1 .94,-.14 l -.3,1.2 c -1.8,.3 -3.33,1.6 -3.83,3.46 -.7,2.54 .83,5.14 3.36,5.8 1.8,.5 3.6,-.13 4.76,-1.4 .4,1.1 .7,1.95 .7,1.95 0,.04 .05,.06 .1,.06 l .27,-0 .43,1.5 c 0,.07 -0,.14 -.07,.2 l -1.44,.83 c -.06,.04 -.14,0 -.2,-.03 l -1.74,-1.95 c -.5,.14 -1,.2 -1.55,.2 l -1.23,2.25 c -.03,.06 -.1,.1 -.17,.07 l -1.6,-.43 c -.07,-0 -.1,-.1 -.1,-.16 l .14,-2.54 c -.45,-.26 -.85,-.57 -1.2,-.93 l -2.5,.73 c -.07,0 -.14,-0 -.17,-.07 L 36.83,14.23 c -.04,-.06 -0,-.14 .03,-.2 l 1.93,-1.7 c -.14,-.5 -.2,-1.07 -.2,-1.63 L 36.4,9.5 c -.06,-.03 -.1,-.1 -.07,-.17 l .43,-1.6 c 0,-.07 .1,-.1 .16,-.1 l 2.57,.14 C 39.73,7.33 40.04,6.96 40.4,6.6 L 39.64,4.1 c -0,-.07 0,-.14 .07,-.2 l 1.43,-.83 c 0,-0 .03,-0 .05,-0 z" fill="#3daefd"/>
<path d="M 170.47 0 A 34 34 0 0 0 164.03 30.23 A 34 34 0 0 0 205.67 54.27 A 34 34 0 0 0 224 41.9 L 224 40 L 224 20 L 224 12 C 224 5.35 218.65 0 212 0 L 170.47 0 z " fill="#fcfcfc" stop-color="#000000" transform="scale(0.5)"/>
<path d="M 175.87 0 C 168.4 7.33 165 18.36 167.9 29.2 C 172.2 45.2 188.63 54.7 204.63 50.4 C 213.5 48.03 220.37 41.9 224 34.2 L 224 20 L 224 12 C 224 5.35 218.65 0 212 0 L 209.5 0 C 214.93 3.2 219.15 8.43 220.9 15 C 221.45 17.03 221.7 19.07 221.73 21.1 L 206.9 11.45 L 196.73 32 L 200 16 L 194.8 10.64 L 180.4 40.1 C 176.85 36.96 174.15 32.8 172.83 27.87 C 169.87 16.83 174.83 5.54 184.2 0 L 175.87 0 z " fill="#dc682e" id="XMLID_9_" transform="scale(0.5)"/>
<path color="#000000" d="M 214.83 21.1 C 213.64 21.3 212.6 22 212 23 L 204.1 36.4 C 203.14 36.3 202.24 36.64 201.5 37.25 L 199.33 39.86 C 198.67 40.65 198.35 41.66 198.4 42.7 C 193.5 41.7 188.6 41.96 183.65 43.4 C 183.5 42.7 183.17 42.03 182.7 41.5 L 179 37.5 C 176.4 34.74 171.75 36.8 172.06 40.57 L 172.77 49.15 C 165.23 56.26 160.9 67 164.35 77.5 C 164.43 77.7 164.5 77.94 164.64 78.15 C 167.55 83.53 172.8 86.93 178.5 88.3 C 178.4 88.87 178.05 89.5 178.1 89.94 C 178.2 90.8 178.45 91.44 178.7 92 C 179.26 93.14 180.7 96.74 183.34 97.6 C 181.1 100.35 178.75 103.34 177.3 107.4 C 177 108.1 175.84 114.06 175.9 114.97 C 175.94 115.87 176.25 117.2 177.3 118.3 C 178.34 119.35 179.8 119.76 180.86 119.8 C 181.9 119.84 182.76 119.66 183.66 119.4 C 186.33 118.76 188.57 117.9 190.4 117.5 C 192.3 117.06 193.6 117 195.1 117.57 C 195.44 117.7 195.8 117.8 196.2 117.8 C 199.86 118.1 203.8 118.07 207.76 117.65 C 211.27 120.76 215.1 122.7 216.6 124.67 C 216.9 125.06 219.43 126.64 220.86 126.67 C 221.9 126.7 223.1 126.2 224 125.53 L 224 86.86 C 220.9 88 218 89.14 215.17 89.9 C 215.04 89.94 214.9 90 214.77 90.04 C 213.3 90.6 213.7 90.34 213.53 90.1 C 213.36 89.8 214.3 85.46 214.4 84.85 C 216.8 85.3 219.47 85.33 222.4 84.25 L 222.4 84.25 C 222.9 84.05 223.46 83.86 224 83.66 L 224 40 L 224 23.27 C 219.85 22.04 215 21.1 214.83 21.1 z " fill="#fcfcfc" fill-rule="evenodd" transform="scale(0.5)"/>
<path d="M 89.4,24.03 89.9,22.1 88,20.1 88.43,25.06 Z" fill="#ffa92d" fill-rule="evenodd"/>
<path d="M 224 54.8 C 217.7 60.2 209.33 68.9 208.6 77.3 L 208.65 77.34 C 208.65 77.34 213.6 83.24 221 80.5 C 221.97 80.14 223 79.77 224 79.4 L 224 54.8 z " fill="#f58273" fill-rule="evenodd" transform="scale(0.5)"/>
<path d="M 224 27.6 C 223.9 27.6 223.8 27.6 223.7 27.63 C 219.9 30.1 219.46 35.2 218.55 39.26 C 218.34 40.85 213.9 34.97 212.53 39.37 C 211.67 41.8 215.96 44.5 213.3 47.56 C 212.56 49.94 211.7 52.3 209.2 50 C 200.2 45.73 188.86 43.03 179.8 48.44 C 170.66 53.94 164.7 65.7 168.16 76.25 C 171.86 83.1 180.73 86.67 188.2 84.57 C 186.57 86.1 188.23 90.16 186.03 86.97 C 182.65 85.3 186.9 91.6 183.9 88.86 C 180.07 87.55 183.1 92.6 185.24 92.8 C 182.9 98.7 195 90.77 189.63 96.16 C 186.6 100.23 182.8 103.9 181.04 108.75 C 181.56 111.23 177.2 117.1 182.6 115.54 C 187.33 114.43 191.7 112 196.5 113.83 C 200.7 114.16 204.93 114.34 209.1 113.67 C 212.15 117.2 216.9 118.5 219.8 122.24 C 223.63 124.6 221.2 116.7 221.2 114.6 C 220.3 111.5 220.06 109.3 223.9 109.13 C 223.9 109.1 223.96 109.1 224 109.1 L 224 91.14 C 221.43 92.1 218.86 93.04 216.23 93.76 C 210.7 95.9 207.74 90.4 210.17 85.93 C 211.1 81.1 211.84 76.25 212.5 71.4 C 216.33 66.75 220.27 62.2 224 57.5 L 224 40 L 224 27.6 z " fill="#3bb567" fill-rule="evenodd" transform="scale(0.5)"/>
<path d="m 93.57,38.67 c 0,0 .5,1.9 1.85,3 1.37,1.1 3.7,1.5 3.7,1.5 0,0 .8,-4.2 1.85,-6.5 1.03,-2.34 2.34,-5.7 2.34,-5.7 0,0 -4.66,2.06 -6.5,3.8 -1.85,1.7 -3.23,3.9 -3.23,3.9 z" fill="#f58273" fill-rule="evenodd"/>
<path d="m 101.4,24.03 -.2,-2.8 1.1,-1.3 .4,1.03 5,-8.4 -.2,4.2 -3,4.2 1.37,.7 -1.24,1.3 -.75,-1.03 -.75,1.3 v 1.65 c 0,0 -.55,-.07 -1.16,-.2 -.6,-.14 -.55,-.55 -.55,-.55 z" fill="#ffa92d" fill-rule="evenodd"/>
<path color="#000000" d="m 63.04,43.65 c -.1,0 -.37,.13 -.37,.13 -.2,.1 -.4,.2 -.55,.4 -.26,.24 -.53,.7 -.6,1.17 -.07,.5 .05,.9 .2,1.2 .27,.54 .5,.66 .66,.8 .3,.23 .47,.3 .66,.36 .4,.15 .8,.3 1.3,.4 1.07,.3 2.57,.57 4.5,.8 1.57,.2 3.8,.85 5.47,1.5 .7,.27 1.2,.5 1.6,.73 -.33,1.7 -.26,3.6 .53,5.85 -.06,.1 -.1,.17 -.2,.34 -.16,.3 -.36,.63 -.5,1.1 -.16,.5 -.33,1.25 .04,2.1 0,0 0,0 0,.03 .25,.55 1,1.17 1.66,1.3 .13,0 .15,-.04 .25,-.04 .03,.2 .03,.37 .17,.67 .2,.4 .84,1.2 1.8,1.3 .04,0 .1,0 .1,0 .9,0 1.13,-.3 1.33,-.43 .2,-.14 .3,-.25 .4,-.35 .2,-.2 .3,-.37 .47,-.57 .3,-.4 .6,-.85 .9,-1.3 .26,-.4 .5,-.76 .7,-1.05 2.4,-.1 4.86,-.5 6.7,-1.1 1.1,-.35 2.03,-.7 2.7,-1 .23,-.1 1.8,-.03 2.46,.06 .65,.1 1.3,.2 1.9,.2 .3,0 .57,.03 .9,0 .16,-0 .3,-0 .55,-.1 .24,-.06 .6,-.1 1.14,-.67 .1,-.1 .2,-.26 .3,-.4 .3,-.55 -.03,-1.1 -.15,-1.74 .1,-0 .14,-0 .25,-.03 .2,-.05 .4,-.1 .76,-.34 .34,-.23 .83,-.8 .9,-1.5 0,-.04 0,-.07 0,-.1 .07,-1.14 -.5,-1.7 -.86,-2.1 -.36,-.4 -.7,-.63 -1.05,-.86 -.1,-.06 1.05,-1.2 1.74,-1.87 .7,-.66 1.37,-1.37 1.9,-2.2 .54,-.8 1.2,-1.96 .6,-3.43 -.6,-1.4 -1.9,-2.24 -3.04,-2.6 -1.17,-.4 -2.34,-.45 -3.4,-.45 -.9,0 -1.7,.1 -2.37,.15 -.1,-.3 -.16,-.56 -.3,-.9 -.3,-.63 -.63,-1.34 -1.5,-1.95 -.87,-.6 -2.54,-.56 -3.5,.1 -.5,.36 -.5,.9 -.7,1.43 -.2,-.04 -.3,-.13 -.53,-.1 -.56,0 -1.2,.26 -1.65,.65 -0,0 -.04,.04 -.06,.06 -.7,.7 -1.04,1.74 -1,2.53 .03,.8 .26,1.4 .5,1.86 .14,.3 .24,.46 .35,.66 -.03,.14 -.2,.4 -.2,.5 -0,0 -0,0 -0,.03 -.43,.1 -1.1,.2 -1.84,.3 -1.6,.17 -3.3,.2 -4.6,.46 l -0,0 c -1.04,.2 -1.66,.74 -2.17,1.16 -2.25,-1.2 -5.5,-2.6 -9.26,-2.6 -0,1.39e-4 -0,-0 -0,-0 -.8,-0 -2.1,-.17 -3.13,-.35 -.53,-.1 -1,-.17 -1.37,-.24 -.2,-.03 -.33,-.06 -.5,-.1 -.07,-0 -.14,-0 -.25,-.03 -.05,-0 -.1,-0 -.23,-0 -.06,2.73e-4 -.13,0 -.25,0 -.06,0 -.13,0 -.2,.04 z" fill="#fcfcfc"/>
<path d="m 63.5,45.6 c -.17,.16 1.9,.84 5.6,1.3 3.67,.5 9.17,2.7 8.96,3.35 -.67,1.8 -.8,3.8 .45,6.77 .23,.5 -1.2,1.9 -.87,2.7 .27,.6 1.73,-1.13 2,-.93 .24,.4 -.24,2.94 .24,3 .34,0 2.4,-3.5 2.6,-3.5 5,.16 10.73,-2.5 10.84,-2.6 -0,-0 4.87,.9 5.2,.53 .7,-1.3 -2.47,-2 -2.16,-2.7 .1,-.36 3.66,.24 3.7,-.2 .04,-.74 -2.03,-1.7 -2.4,-2.1 -.33,-.33 -.54,-.95 -.1,-1.5 .46,-.55 5.67,-4.3 4.96,-5.97 -1.26,-3 -8.25,-1.35 -8.43,-1.6 -.1,-.1 -.9,-4.54 -2.7,-3.2 -1.1,.8 .64,3.3 .8,3.6 .16,.3 -.47,.44 -.63,.33 -.35,-.25 -2,-2.9 -2.9,-2.1 -1.23,1.2 .8,3.3 .53,3.46 -.45,.44 -.23,1.16 -.5,1.87 -.44,1.2 -6.13,1.13 -7.86,1.5 -1.27,.26 -2.2,1.6 -2.34,1.5 -1.93,-1.1 -5.8,-2.93 -9.5,-2.9 -2.1,-0 -5.37,-.76 -5.5,-.7 z m 31.8,-2.27 a .7,.6 75 0 1 .8,.5 .7,.6 75 0 1 -.4,.84 .7,.6 75 0 1 -.8,-.5 .7,.6 75 0 1 .4,-.84 z m -1.24,.8 c .55,1.03 1.04,1.27 2.2,.9 -1.14,1.8 -2.7,-.34 -2.2,-.9 z m 4,2 c .1,-.03 .17,-.04 .2,-0 .66,.06 -2.2,2.04 -2.27,1.9 -.06,-.1 1.4,-1.65 2.05,-1.9 z m .6,.6 c .03,-0 .06,-0 .1,-0 .7,.4 -1.2,2.17 -1.3,2.23 -.2,-.06 .7,-2.05 1.2,-2.2 z" fill="#020202" stroke="#000002" stroke-width="0.222496pt"/>
<path d="m 73.9,53.64 c -.97,.03 -1.94,.3 -2.84,.8 l -3.46,2 c -2.9,1.66 -3.86,5.3 -2.2,8.3 l 1,1.73 -1.73,1 c -2.9,1.66 -3.86,5.3 -2.2,8.3 l 2,3.46 c .2,.35 .43,.67 .7,.96 L 89.25,80 c 1.06,-1.8 1.15,-4.1 0,-6.04 l -1,-1.73 1.73,-1 c 2.9,-1.66 3.86,-5.3 2.2,-8.3 l -2,-3.46 c -1.66,-2.9 -5.3,-3.86 -8.3,-2.2 l -1.73,1 -1,-1.73 C 78.13,54.67 76.05,53.6 73.9,53.64 Z" fill="#fcfcfc" id="rect3048" stop-color="#000000" stroke-opacity=".2"/>
<path d="m 85.9,60.3 c -.64,0 -1.3,.2 -1.9,.54 l -1.73,1 1,1.73 c 1.1,1.9 .45,4.36 -1.46,5.46 l -6.93,4 c -.96,.55 -1.3,1.77 -.73,2.73 l 2.44,4.23 L 86.7,80 c 1.44,-1.23 1.85,-3.33 .87,-5.04 l -1,-1.73 -4.33,2.5 c -.5,.3 -1.1,.1 -1.37,-.36 -.3,-.5 -.2,-1.3 .37,-1.37 l 7.8,-4.5 c 1.9,-1.1 2.57,-3.55 1.46,-5.46 l -1,-1.73 c -.76,-1.3 -2.15,-2.04 -3.57,-2 z m -.4,16.03 c .3,0 .6,.2 .8,.5 .27,.46 .13,1.05 -.3,1.34 -0,0 -.03,0 -.05,0 -.5,.3 -1.1,.1 -1.36,-.36 -.27,-.46 -.13,-1.06 .3,-1.34 0,-0 .03,-0 .04,-0 .2,-.1 .4,-.15 .57,-.13 z" fill="#ffe32b" stop-color="#000000"/>
<path d="m 73.97,55.64 c -.64,0 -1.3,.2 -1.9,.54 l -3.46,2 c -1.9,1.1 -2.57,3.55 -1.46,5.46 l 1,1.73 4.33,-2.5 c .5,-.3 1.1,-.1 1.36,.37 .3,.5 .1,1.1 -.36,1.37 l -4.33,2.5 -3.46,2 c -1.9,1.1 -2.57,3.54 -1.46,5.46 l 2,3.46 c .65,1.1 1.75,1.8 2.93,1.96 h 1.07 c .5,-.07 1,-.23 1.46,-.5 l 1.73,-1 -1,-1.73 c -1.1,-1.9 -.46,-4.36 1.46,-5.46 l 3.46,-2 3.46,-2 c .96,-.55 1.3,-1.77 .73,-2.73 L 80.54,62.84 77.54,57.64 c -.76,-1.3 -2.15,-2.04 -3.57,-2 z m -4.66,4.64 c .3,0 .6,.2 .8,.5 .3,.5 .1,1.1 -.37,1.37 -.5,.3 -1.1,.1 -1.37,-.37 -.27,-.46 -.1,-1.05 .3,-1.34 0,-0 .03,-0 .04,-.03 .2,-.1 .4,-.15 .57,-.13 z" fill="#3daefd" id="rect940" stop-color="#000000"/>
<path d="M 201.8 102.1 C 197.9 102.05 193.9 102.8 190.1 104.37 C 174.75 110.7 167.47 128.3 173.8 143.63 C 177.04 151.4 183.14 157.1 190.37 160 L 212 160 C 212.3 160 212.6 160 212.9 159.95 C 212.97 159.93 213 159.9 213.1 159.9 C 216.76 158.37 219.96 156.2 222.64 153.56 C 223.5 151.9 224 150 224 148 L 224 112.1 C 218.34 105.8 210.23 102.14 201.8 102.1 z " fill="#fcfcfc" transform="scale(0.5)"/>
<path d="M 201.76 106.17 C 198.4 106.15 194.96 106.8 191.65 108.15 C 178.4 113.64 172.1 128.8 177.6 142.06 C 183.1 155.3 198.27 161.6 211.5 156.1 C 216.97 153.85 221.24 149.94 224 145.3 L 224 119.07 C 219.3 111 210.76 106.24 201.76 106.17 z M 206.8 111.63 C 211.2 111.5 208.34 121.75 204.97 123.15 C 201.25 124.7 198.6 114.76 205.2 112.03 C 205.8 111.77 206.35 111.65 206.8 111.63 z M 196.05 117.27 C 198.8 117.05 199.5 124.2 197.64 124.8 C 195.6 125.5 191.63 119.6 195.14 117.57 C 195.25 117.5 195.36 117.46 195.47 117.4 C 195.67 117.33 195.86 117.3 196.05 117.27 z M 190.6 122.5 C 192.7 122.5 194.5 127.64 193.2 128.5 C 191.67 129.56 187 125.5 189.5 123.05 C 189.67 122.87 189.85 122.74 190.03 122.66 C 190.1 122.63 190.14 122.6 190.2 122.6 C 190.34 122.54 190.5 122.5 190.6 122.5 z M 205.73 125.13 C 207.2 125.1 208.4 125.56 209.06 126.6 C 212.77 132.5 197.5 141.57 205.53 143.7 C 208.06 144.36 209.56 142.43 208.3 140.3 C 207.3 138.5 213.7 134.5 214.36 137.57 C 215.2 141.6 212.65 146.15 209.37 147.5 C 202.7 150.27 193.1 145.16 192 139.05 C 191.04 133.4 196.74 128.03 201.9 126 C 203.26 125.46 204.6 125.15 205.73 125.13 z M 187.33 128.53 C 189.15 128.44 191.5 132.36 190.55 133.34 C 189.4 134.55 184.55 131.87 186.26 129.23 C 186.47 128.9 186.7 128.8 187 128.6 C 187.1 128.56 187.2 128.53 187.33 128.53 z " fill="#0087ed" transform="scale(0.5)"/>
</g></g><use href="#uO7" opacity=".4"></use><use fill="url(#uO5)" href="#uO7" opacity=".2"></use><path d="M 108,64 C 96,64 96,72 80,72 H 28 c -6.65,0 -12,5.35 -12,12 v 128 c 0,6.65 5.35,12 12,12 h 200 c 6.65,0 12,-5.35 12,-12 V 104 84 76 c 0,-6.65 -5.35,-12 -12,-12 z" fill="url(#uO4)" opacity=".2"/><path class="ColorScheme-Contrast" d="m 16,211 v 1 c 0,6.65 5.35,12 12,12 h 200 c 6.65,0 12,-5.35 12,-12 v -1 c 0,6.65 -5.35,12 -12,12 H 28 c -6.65,0 -12,-5.35 -12,-12 z" fill="currentColor" opacity=".1"/><path class="ColorScheme-Contrast" d="m 16,211.5 v 0.5 c 0,6.65 5.35,12 12,12 h 200 c 6.65,0 12,-5.35 12,-12 v -0.5 c 0,6.65 -5.35,12 -12,12 H 28 c -6.65,0 -12,-5.35 -12,-12 z" fill="currentColor" opacity=".2"/><path d="M 108,64 C 96,64 96,72 80,72 H 28 c -6.65,0 -12,5.35 -12,12 v 1 c 0,-6.65 5.35,-12 12,-12 h 52 c 16,0 16,-8 28,-8 h 120 c 6.65,0 12,5.35 12,12 v -1 c 0,-6.65 -5.35,-12 -12,-12 z" fill="#fff" opacity=".1"/><path d="M 108,64 C 96,64 96,72 80,72 H 28 c -6.65,0 -12,5.35 -12,12 v 0.5 c 0,-6.65 5.35,-12 12,-12 h 52 c 16,0 16,-8 28,-8 h 120 c 6.65,0 12,5.35 12,12 V 76 c 0,-6.65 -5.35,-12 -12,-12 z" fill="#fff" opacity=".2"/><path d="M 108,63 C 96,63 96,71 80,71 H 28 v 1 h 52 c 16,0 16,-8 28,-8 h 120 v -1 z" opacity=".1"/><path d="m 108,63.5 c -12,0 -12,8 -28,8 H 28 V 72 h 52 c 16,0 16,-8 28,-8 h 120 v -0.5 z" opacity=".2"/></g>
</svg>