<svg height="256" version="1.1" width="256" xmlns="http://www.w3.org/2000/svg" xmlns:svg="http://www.w3.org/2000/svg" xmlns:xlink="http://www.w3.org/1999/xlink">
<defs id="primary-definitions">
<style id="current-color-scheme" type="text/css">
      .ColorScheme-Text           { color:#fff; }
      .ColorScheme-Background     { color:#111; }
      .ColorScheme-Highlight      { color:#3daefd; }
      .ColorScheme-ViewBackground { color:#000; }
      .ColorScheme-PositiveText   { color:#27ae60; }
      .ColorScheme-NeutralText    { color:#f67400; }
      .ColorScheme-NegativeText   { color:#da4453; }
    </style>
<style id="extended-color-scheme" type="text/css">
      .ExScheme-Black     { color:#3e3e3e; }
      .ExScheme-White     { color:#fcfcfc; }
      .ExScheme-Grey-1    { color:#cfd5d5; }
      .ExScheme-Grey-2    { color:#909c9c; }
      .ExScheme-Grey-3    { color:#536161; }
      .ExScheme-Red-1     { color:#ffafa5; }
      .ExScheme-Red-2     { color:#bf4231; }
      .ExScheme-Red-3     { color:#4d2f2b; }
      .ExScheme-Green-1   { color:#abf9c7; }
      .ExScheme-Green-2   { color:#3bb566; }
      .ExScheme-Green-3   { color:#377d50; }
      .ExScheme-Blue-1    { color:#abdaf9; }
      .ExScheme-Blue-2    { color:#3daefd; }
      .ExScheme-Blue-3    { color:#2b3c4d; }
      .ExScheme-Yellow-1  { color:#faffa5; }
      .ExScheme-Yellow-2  { color:#cac726; }
      .ExScheme-Yellow-3  { color:#4b4d2b; }
      .ExScheme-Orange-1  { color:#ffdaa5; }
      .ExScheme-Orange-2  { color:#ff9701; }
      .ExScheme-Orange-3  { color:#4d372b; }
      .ExScheme-Brown-1   { color:#e9d6bb; }
      .ExScheme-Brown-2   { color:#997657; }
      .ExScheme-Brown-3   { color:#433a35; }
      .ExScheme-Purple-1  { color:#e2abf9; }
      .ExScheme-Purple-2  { color:#b401ff; }
      .ExScheme-Purple-3  { color:#432b4d; }
      .ExScheme-Cyan-1    { color:#b2f2e6; }
      .ExScheme-Cyan-2    { color:#31bfa6; }
      .ExScheme-Cyan-3    { color:#2b4d47; }
      .ExScheme-Magenta-1 { color:#f8a6d8; }
      .ExScheme-Magenta-2 { color:#f00091; }
      .ExScheme-Magenta-3 { color:#770048; }
    </style>
<linearGradient id="ucU">
<stop offset="0"/>
<stop offset="1" stop-opacity="0"/>
</linearGradient>
<linearGradient id="ucV">
<stop offset="0" stop-color="#fff"/>
<stop offset="1" stop-color="#fff" stop-opacity="0"/>
</linearGradient>
<style class="toggle-enable-crease" type="text/css">
        .folder-crease { display: none; }
    </style><style class="toggle-manilla-folders" type="text/css">
        .folder-manilla { display: none; }
    </style><radialGradient cx=".5" cy="0" id="ucW" r="1" xlink:href="#ucV"/><linearGradient id="ucX" xlink:href="#ucU" y1="1" y2=".5"/><path d="m 40,32 c -6.65,0 -12,5.35 -12,12 v 28 c -6.65,0 -12,5.35 -12,12 v 128 c 0,6.65 5.35,12 12,12 h 200 c 6.65,0 12,-5.35 12,-12 V 104 84 76 c 0,-6.65 -5.35,-12 -12,-12 V 52 c 0,-6.65 -5.35,-12 -12,-12 H 112 C 96,40 96,32 84,32 Z" id="ucY"></path><path d="m 40,32 c -6.65,0 -12,5.35 -12,12 v 28 h 52 c 16,0 16,-8 28,-8 H 228 V 52 c 0,-6.65 -5.35,-12 -12,-12 H 112 C 96,40 96,32 84,32 Z" id="ucZ"></path></defs>
<g id="content" transform="translate(0,0)"><use class="folder-manilla ExScheme-Brown-1" fill="currentColor" href="#ucY"></use><use class="toggle-manilla-folders ColorScheme-Highlight ExScheme-Red-2" fill="currentColor" href="#ucY" id="primary-color"></use><use class="ColorScheme-Text" fill="currentColor" href="#ucY" opacity=".1"></use><g id="emblem" transform="translate(64,84)"><path class="ColorScheme-Background" d="M 20 20 L 20 28 L 28 28 L 28 20 L 20 20 z M 28 28 L 28 36 L 36 36 L 36 28 L 28 28 z M 36 28 L 44 28 L 44 20 L 36 20 L 36 28 z M 36 36 L 36 44 L 44 44 L 44 36 L 36 36 z M 28 36 L 20 36 L 20 44 L 28 44 L 28 36 z M 84 20 L 84 28 L 92 28 L 92 20 L 84 20 z M 92 28 L 92 36 L 100 36 L 100 28 L 92 28 z M 100 28 L 108 28 L 108 20 L 100 20 L 100 28 z M 100 36 L 100 44 L 108 44 L 108 36 L 100 36 z M 92 36 L 84 36 L 84 44 L 92 44 L 92 36 z M 28 92 L 28 100 L 100 100 L 100 92 L 28 92 z M 100 100 L 100 108 L 108 108 L 108 100 L 100 100 z M 28 100 L 20 100 L 20 108 L 28 108 L 28 100 z " fill="currentColor" opacity=".6" stop-color="#000000" stroke-opacity=".16"/><path class="ColorScheme-Background" d="M 20 20 L 20 28 L 28 28 L 28 20 L 20 20 z M 28 28 L 28 36 L 36 36 L 36 28 L 28 28 z M 36 28 L 44 28 L 44 20 L 36 20 L 36 28 z M 36 36 L 36 44 L 44 44 L 44 36 L 36 36 z M 28 36 L 20 36 L 20 44 L 28 44 L 28 36 z M 84 20 L 84 28 L 92 28 L 92 20 L 84 20 z M 92 28 L 92 36 L 100 36 L 100 28 L 92 28 z M 100 28 L 108 28 L 108 20 L 100 20 L 100 28 z M 100 36 L 100 44 L 108 44 L 108 36 L 100 36 z M 92 36 L 84 36 L 84 44 L 92 44 L 92 36 z M 20.5 20.5 L 27.5 20.5 L 27.5 27.5 L 20.5 27.5 L 20.5 20.5 z M 36.5 20.5 L 43.5 20.5 L 43.5 27.5 L 36.5 27.5 L 36.5 20.5 z M 84.5 20.5 L 91.5 20.5 L 91.5 27.5 L 84.5 27.5 L 84.5 20.5 z M 100.5 20.5 L 107.5 20.5 L 107.5 27.5 L 100.5 27.5 L 100.5 20.5 z M 28.5 28.5 L 35.5 28.5 L 35.5 35.5 L 28.5 35.5 L 28.5 28.5 z M 92.5 28.5 L 99.5 28.5 L 99.5 35.5 L 92.5 35.5 L 92.5 28.5 z M 20.5 36.5 L 27.5 36.5 L 27.5 43.5 L 20.5 43.5 L 20.5 36.5 z M 36.5 36.5 L 43.5 36.5 L 43.5 43.5 L 36.5 43.5 L 36.5 36.5 z M 84.5 36.5 L 91.5 36.5 L 91.5 43.5 L 84.5 43.5 L 84.5 36.5 z M 100.5 36.5 L 107.5 36.5 L 107.5 43.5 L 100.5 43.5 L 100.5 36.5 z M 28 92 L 28 100 L 100 100 L 100 92 L 28 92 z M 100 100 L 100 108 L 108 108 L 108 100 L 100 100 z M 28 100 L 20 100 L 20 108 L 28 108 L 28 100 z M 28.5 92.5 L 99.5 92.5 L 99.5 99.5 L 28.5 99.5 L 28.5 92.5 z M 20.5 100.5 L 27.5 100.5 L 27.5 107.5 L 20.5 107.5 L 20.5 100.5 z M 100.5 100.5 L 107.5 100.5 L 107.5 107.5 L 100.5 107.5 L 100.5 100.5 z " fill="currentColor" opacity=".6"/></g><use href="#ucZ" opacity=".4"></use><use class="toggle-flat-design" fill="url(#ucX)" href="#ucZ" opacity=".2"></use><path class="toggle-flat-design" d="M 108,64 C 96,64 96,72 80,72 H 28 c -6.65,0 -12,5.35 -12,12 v 128 c 0,6.65 5.35,12 12,12 h 200 c 6.65,0 12,-5.35 12,-12 V 104 84 76 c 0,-6.65 -5.35,-12 -12,-12 z" fill="url(#ucW)" opacity=".2"/><path class="folder-crease " d="m 16,176 v 8 h 36 c 2.2,0 4,-1.8 4,-4 0,-2.2 -1.8,-4 -4,-4 z m 188,0 c -2.2,0 -4,1.8 -4,4 0,2.2 1.8,4 4,4 h 36 v -8 z" opacity=".4"/><path class="ColorScheme-Text" d="m 16,211 v 1 c 0,6.65 5.35,12 12,12 h 200 c 6.65,0 12,-5.35 12,-12 v -1 c 0,6.65 -5.35,12 -12,12 H 28 c -6.65,0 -12,-5.35 -12,-12 z" fill="currentColor" opacity=".1"/><path class="ColorScheme-Text" d="m 16,211.5 v 0.5 c 0,6.65 5.35,12 12,12 h 200 c 6.65,0 12,-5.35 12,-12 v -0.5 c 0,6.65 -5.35,12 -12,12 H 28 c -6.65,0 -12,-5.35 -12,-12 z" fill="currentColor" opacity=".2"/><path d="M 108,64 C 96,64 96,72 80,72 H 28 c -6.65,0 -12,5.35 -12,12 v 1 c 0,-6.65 5.35,-12 12,-12 h 52 c 16,0 16,-8 28,-8 h 120 c 6.65,0 12,5.35 12,12 v -1 c 0,-6.65 -5.35,-12 -12,-12 z" fill="#fff" opacity=".1"/><path d="M 108,64 C 96,64 96,72 80,72 H 28 c -6.65,0 -12,5.35 -12,12 v 0.5 c 0,-6.65 5.35,-12 12,-12 h 52 c 16,0 16,-8 28,-8 h 120 c 6.65,0 12,5.35 12,12 V 76 c 0,-6.65 -5.35,-12 -12,-12 z" fill="#fff" opacity=".2"/><path d="M 108,63 C 96,63 96,71 80,71 H 28 v 1 h 52 c 16,0 16,-8 28,-8 h 120 v -1 z" opacity=".1"/><path d="m 108,63.5 c -12,0 -12,8 -28,8 H 28 V 72 h 52 c 16,0 16,-8 28,-8 h 120 v -0.5 z" opacity=".2"/></g>
</svg>