<svg height="256" version="1.1" width="256" xmlns="http://www.w3.org/2000/svg" xmlns:svg="http://www.w3.org/2000/svg" xmlns:xlink="http://www.w3.org/1999/xlink">
<defs id="primary-definitions">
<style id="current-color-scheme" type="text/css">
      .ColorScheme-Text         { color: #232629; }
      .ColorScheme-Background   { color: #eff0f1; }
      .ColorScheme-Highlight    { color: #7ec9f0; }
      .ColorScheme-PositiveText { color: #27ae60; }
      .ColorScheme-NeutralText  { color: #f67400; }
      .ColorScheme-NegativeText { color: #da4453; }
      .ColorScheme-ActiveText   { color: #3daee9; }
      .ColorScheme-Complement   { color: #ffffff; }
      .ColorScheme-Contrast     { color: #000000; }
    </style>
<style id="extended-color-scheme" type="text/css">
      .ExScheme-Black     { color:#3e3e3e; }
      .ExScheme-White     { color:#fcfcfc; }
      .ExScheme-Grey-1    { color:#cfd5d5; }
      .ExScheme-Grey-2    { color:#909c9c; }
      .ExScheme-Grey-3    { color:#536161; }
      .ExScheme-Red-1     { color:#ffafa5; }
      .ExScheme-Red-2     { color:#bf4231; }
      .ExScheme-Red-3     { color:#4d2f2b; }
      .ExScheme-Green-1   { color:#abf9c7; }
      .ExScheme-Green-2   { color:#3bb566; }
      .ExScheme-Green-3   { color:#377d50; }
      .ExScheme-Blue-1    { color:#abdaf9; }
      .ExScheme-Blue-2    { color:#3daefd; }
      .ExScheme-Blue-3    { color:#2b3c4d; }
      .ExScheme-Yellow-1  { color:#faffa5; }
      .ExScheme-Yellow-2  { color:#cac726; }
      .ExScheme-Yellow-3  { color:#4b4d2b; }
      .ExScheme-Orange-1  { color:#ffdaa5; }
      .ExScheme-Orange-2  { color:#ff9701; }
      .ExScheme-Orange-3  { color:#4d372b; }
      .ExScheme-Brown-1   { color:#e9d6bb; }
      .ExScheme-Brown-2   { color:#997657; }
      .ExScheme-Brown-3   { color:#433a35; }
      .ExScheme-Purple-1  { color:#e2abf9; }
      .ExScheme-Purple-2  { color:#b401ff; }
      .ExScheme-Purple-3  { color:#432b4d; }
      .ExScheme-Cyan-1    { color:#b2f2e6; }
      .ExScheme-Cyan-2    { color:#31bfa6; }
      .ExScheme-Cyan-3    { color:#2b4d47; }
      .ExScheme-Magenta-1 { color:#f8a6d8; }
      .ExScheme-Magenta-2 { color:#f00091; }
      .ExScheme-Magenta-3 { color:#770048; }
    </style>
<linearGradient id="u6I">
<stop offset="0"/>
<stop offset="1" stop-opacity="0"/>
</linearGradient>
<linearGradient id="u6J">
<stop offset="0" stop-color="#fff"/>
<stop offset="1" stop-color="#fff" stop-opacity="0"/>
</linearGradient>
<style id="u6K" type="text/css">
        .force-display-for-editing { display: inline !important; }
    </style><style class="remove-if__show-crease" type="text/css">
        .enable-if__show-crease { display: none; }
    </style><style class="remove-if__color-sync-mimes-places" type="text/css">
        .enable-if__color-sync-mimes-places { display: none; }
    </style><radialGradient cx=".5" cy="0" id="u6L" r="1" xlink:href="#u6J"/><linearGradient id="u6M" xlink:href="#u6I" y1="1" y2=".5"/><style class="ColorScheme-Background" fill="currentColor" opacity=".6" type="text/css">
   .ColorScheme-Text           { color:#eff0f1; }
      .ColorScheme-Background     { color:#31363b; }
      .ColorScheme-Highlight      { color:#3daefd; }
      .ColorScheme-ViewBackground { color:#fcfcfc; }
      .ColorScheme-PositiveText   { color:#27ae60; }
      .ColorScheme-NeutralText    { color:#f67400; }
      .ColorScheme-NegativeText   { color:#da4453; }
  </style><path d="m 40,32 c -6.65,0 -12,5.35 -12,12 v 28 c -6.65,0 -12,5.35 -12,12 v 128 c 0,6.65 5.35,12 12,12 h 200 c 6.65,0 12,-5.35 12,-12 V 104 84 76 c 0,-6.65 -5.35,-12 -12,-12 V 52 c 0,-6.65 -5.35,-12 -12,-12 H 112 C 96,40 96,32 84,32 Z" id="u6N"></path><path d="m 40,32 c -6.65,0 -12,5.35 -12,12 v 28 h 52 c 16,0 16,-8 28,-8 H 228 V 52 c 0,-6.65 -5.35,-12 -12,-12 H 112 C 96,40 96,32 84,32 Z" id="u6O"></path></defs>
<g id="content" transform="translate(0,0)"><use class="sync-color enable-if__color-sync-mimes-places force-display-for-editing ColorScheme-ActiveText" fill="currentColor" href="#u6N"></use><use class="primary-color remove-if__color-sync-mimes-places ColorScheme-ActiveText" fill="#f89406" href="#u6N"></use><use class="ColorScheme-Contrast" fill="currentColor" href="#u6N" opacity=".1"></use><g id="decal" transform="translate(64,84)"><path class="ColorScheme-Background" d="m 62,8 c -2.04,0 -4.1,.8 -5.66,2.34 -3.13,3.13 -3.13,8.2 0,11.33 L 75,40 H 16 c -4.43,0 -8,3.57 -8,8 0,4.43 3.57,8 8,8 H 44.7 L 10.35,90.33 c -3.13,3.13 -3.13,8.2 0,11.33 3.13,3.13 8.2,3.13 11.33,0 L 40.15,83.2 C 41.77,103.8 59,120 80,120 102.1,120 120,102.1 120,80 c 0,-10.7 -4.2,-20.4 -11.06,-27.6 L 67.7,10.34 C 66.1,8.8 64.05,8 62,8 Z m 18,48 a 24,24 0 0 1 24,24 24,24 0 0 1 -24,24 24,24 0 0 1 -24,-24 24,24 0 0 1 24,-24 z m 0,16 a 8,8 0 0 0 -8,8 8,8 0 0 0 8,8 8,8 0 0 0 8,-8 8,8 0 0 0 -8,-8 z" fill="currentColor" opacity=".6" stop-color="#000000"/><path class="ColorScheme-Background" d="M 62 8 C 59.96 8 57.9 8.8 56.35 10.34 C 53.2 13.5 53.2 18.54 56.35 21.67 L 75 40 L 16 40 C 11.57 40 8 43.57 8 48 C 8 52.43 11.57 56 16 56 L 44.7 56 L 10.35 90.33 C 7.2 93.46 7.2 98.5 10.35 101.66 C 13.5 104.8 18.54 104.8 21.7 101.66 L 40.15 83.2 C 41.77 103.8 59 120 80 120 C 102.1 120 120 102.1 120 80 C 120 69.3 115.8 59.6 108.94 52.4 L 67.7 10.34 C 66.1 8.8 64.05 8 62 8 z M 62 8.5 C 63.9 8.5 65.85 9.23 67.3 10.7 L 108.6 52.76 L 108.6 52.75 C 115.34 59.84 119.5 69.43 119.5 80 C 119.5 101.8 101.83 119.5 80 119.5 C 59.24 119.5 42.25 103.5 40.64 83.15 A .5 .5 0 0 0 39.8 82.83 L 21.3 101.3 C 18.4 104.25 13.65 104.25 10.7 101.3 C 7.76 98.36 7.76 93.63 10.7 90.7 L 45.05 56.35 A .5 .5 0 0 0 44.7 55.5 L 16 55.5 C 11.84 55.5 8.5 52.16 8.5 48 C 8.5 43.84 11.84 40.5 16 40.5 L 75 40.5 A .5 .5 0 0 0 75.36 39.64 L 56.7 21.3 C 53.76 18.37 53.76 13.64 56.7 10.7 C 58.17 9.23 60.1 8.5 62 8.5 z M 80 55.5 C 66.5 55.5 55.5 66.47 55.5 80 C 55.5 93.53 66.5 104.5 80 104.5 C 93.53 104.5 104.5 93.53 104.5 80 C 104.5 66.47 93.53 55.5 80 55.5 z M 80 56 A 24 24 0 0 1 104 80 A 24 24 0 0 1 80 104 A 24 24 0 0 1 56 80 A 24 24 0 0 1 80 56 z M 80 72 A 8 8 0 0 0 72 80 A 8 8 0 0 0 80 88 A 8 8 0 0 0 88 80 A 8 8 0 0 0 80 72 z M 80 72.5 C 84.15 72.5 87.5 75.85 87.5 80 C 87.5 84.15 84.15 87.5 80 87.5 C 75.86 87.5 72.5 84.15 72.5 80 C 72.5 75.85 75.86 72.5 80 72.5 z " fill="currentColor" opacity=".6"/></g><use href="#u6O" opacity=".4"></use><use fill="url(#u6M)" href="#u6O" opacity=".2"></use><path d="M 108,64 C 96,64 96,72 80,72 H 28 c -6.65,0 -12,5.35 -12,12 v 128 c 0,6.65 5.35,12 12,12 h 200 c 6.65,0 12,-5.35 12,-12 V 104 84 76 c 0,-6.65 -5.35,-12 -12,-12 z" fill="url(#u6L)" opacity=".2"/><path class="ColorScheme-Contrast" d="m 16,211 v 1 c 0,6.65 5.35,12 12,12 h 200 c 6.65,0 12,-5.35 12,-12 v -1 c 0,6.65 -5.35,12 -12,12 H 28 c -6.65,0 -12,-5.35 -12,-12 z" fill="currentColor" opacity=".1"/><path class="ColorScheme-Contrast" d="m 16,211.5 v 0.5 c 0,6.65 5.35,12 12,12 h 200 c 6.65,0 12,-5.35 12,-12 v -0.5 c 0,6.65 -5.35,12 -12,12 H 28 c -6.65,0 -12,-5.35 -12,-12 z" fill="currentColor" opacity=".2"/><path d="M 108,64 C 96,64 96,72 80,72 H 28 c -6.65,0 -12,5.35 -12,12 v 1 c 0,-6.65 5.35,-12 12,-12 h 52 c 16,0 16,-8 28,-8 h 120 c 6.65,0 12,5.35 12,12 v -1 c 0,-6.65 -5.35,-12 -12,-12 z" fill="#fff" opacity=".1"/><path d="M 108,64 C 96,64 96,72 80,72 H 28 c -6.65,0 -12,5.35 -12,12 v 0.5 c 0,-6.65 5.35,-12 12,-12 h 52 c 16,0 16,-8 28,-8 h 120 c 6.65,0 12,5.35 12,12 V 76 c 0,-6.65 -5.35,-12 -12,-12 z" fill="#fff" opacity=".2"/><path d="M 108,63 C 96,63 96,71 80,71 H 28 v 1 h 52 c 16,0 16,-8 28,-8 h 120 v -1 z" opacity=".1"/><path d="m 108,63.5 c -12,0 -12,8 -28,8 H 28 V 72 h 52 c 16,0 16,-8 28,-8 h 120 v -0.5 z" opacity=".2"/></g>
</svg>