<svg height="256" version="1.1" width="256" xmlns="http://www.w3.org/2000/svg" xmlns:svg="http://www.w3.org/2000/svg" xmlns:xlink="http://www.w3.org/1999/xlink">
<defs id="primary-definitions">
<style id="current-color-scheme" type="text/css">
      .ColorScheme-Text         { color: #232629; }
      .ColorScheme-Background   { color: #eff0f1; }
      .ColorScheme-Highlight    { color: #7ec9f0; }
      .ColorScheme-PositiveText { color: #27ae60; }
      .ColorScheme-NeutralText  { color: #f67400; }
      .ColorScheme-NegativeText { color: #da4453; }
      .ColorScheme-ActiveText   { color: #3daee9; }
      .ColorScheme-Complement   { color: #ffffff; }
      .ColorScheme-Contrast     { color: #000000; }
    </style>
<style id="extended-color-scheme" type="text/css">
      .ExScheme-Black     { color:#3e3e3e; }
      .ExScheme-White     { color:#fcfcfc; }
      .ExScheme-Grey-1    { color:#cfd5d5; }
      .ExScheme-Grey-2    { color:#909c9c; }
      .ExScheme-Grey-3    { color:#536161; }
      .ExScheme-Red-1     { color:#ffafa5; }
      .ExScheme-Red-2     { color:#bf4231; }
      .ExScheme-Red-3     { color:#4d2f2b; }
      .ExScheme-Green-1   { color:#abf9c7; }
      .ExScheme-Green-2   { color:#3bb566; }
      .ExScheme-Green-3   { color:#377d50; }
      .ExScheme-Blue-1    { color:#abdaf9; }
      .ExScheme-Blue-2    { color:#3daefd; }
      .ExScheme-Blue-3    { color:#2b3c4d; }
      .ExScheme-Yellow-1  { color:#faffa5; }
      .ExScheme-Yellow-2  { color:#cac726; }
      .ExScheme-Yellow-3  { color:#4b4d2b; }
      .ExScheme-Orange-1  { color:#ffdaa5; }
      .ExScheme-Orange-2  { color:#ff9701; }
      .ExScheme-Orange-3  { color:#4d372b; }
      .ExScheme-Brown-1   { color:#e9d6bb; }
      .ExScheme-Brown-2   { color:#997657; }
      .ExScheme-Brown-3   { color:#433a35; }
      .ExScheme-Purple-1  { color:#e2abf9; }
      .ExScheme-Purple-2  { color:#b401ff; }
      .ExScheme-Purple-3  { color:#432b4d; }
      .ExScheme-Cyan-1    { color:#b2f2e6; }
      .ExScheme-Cyan-2    { color:#31bfa6; }
      .ExScheme-Cyan-3    { color:#2b4d47; }
      .ExScheme-Magenta-1 { color:#f8a6d8; }
      .ExScheme-Magenta-2 { color:#f00091; }
      .ExScheme-Magenta-3 { color:#770048; }
    </style>
<linearGradient id="uCh">
<stop offset="0"/>
<stop offset="1" stop-opacity="0"/>
</linearGradient>
<linearGradient id="uCi">
<stop offset="0" stop-color="#fff"/>
<stop offset="1" stop-color="#fff" stop-opacity="0"/>
</linearGradient>
<style id="uCj" type="text/css">
        .force-display-for-editing { display: inline !important; }
    </style><style class="remove-if__show-crease" type="text/css">
        .enable-if__show-crease { display: none; }
    </style><style class="remove-if__color-sync-mimes-places" type="text/css">
        .enable-if__color-sync-mimes-places { display: none; }
    </style><radialGradient cx=".5" cy="0" id="uCk" r="1" xlink:href="#uCi"/><linearGradient id="uCl" xlink:href="#uCh" y1="1" y2=".5"/><style class="ColorScheme-Background" fill="currentColor" opacity=".6" type="text/css">
   .ColorScheme-Text           { color:#eff0f1; }
      .ColorScheme-Background     { color:#31363b; }
      .ColorScheme-Highlight      { color:#3daefd; }
      .ColorScheme-ViewBackground { color:#fcfcfc; }
      .ColorScheme-PositiveText   { color:#27ae60; }
      .ColorScheme-NeutralText    { color:#f67400; }
      .ColorScheme-NegativeText   { color:#da4453; }
  </style><path d="m 40,32 c -6.65,0 -12,5.35 -12,12 v 28 c -6.65,0 -12,5.35 -12,12 v 128 c 0,6.65 5.35,12 12,12 h 200 c 6.65,0 12,-5.35 12,-12 V 104 84 76 c 0,-6.65 -5.35,-12 -12,-12 V 52 c 0,-6.65 -5.35,-12 -12,-12 H 112 C 96,40 96,32 84,32 Z" id="uCm"></path><path d="m 40,32 c -6.65,0 -12,5.35 -12,12 v 28 h 52 c 16,0 16,-8 28,-8 H 228 V 52 c 0,-6.65 -5.35,-12 -12,-12 H 112 C 96,40 96,32 84,32 Z" id="uCn"></path></defs>
<g id="content" transform="translate(0,0)"><use class="sync-color enable-if__color-sync-mimes-places force-display-for-editing ColorScheme-ActiveText" fill="currentColor" href="#uCm"></use><use class="primary-color remove-if__color-sync-mimes-places ColorScheme-ActiveText" fill="currentColor" href="#uCm"></use><use class="ColorScheme-Contrast" fill="currentColor" href="#uCm" opacity=".1"></use><g id="decal" transform="translate(64,84)"><path class="ColorScheme-Background" d="M 64 40 A 24 24 0 0 0 40 64 A 24 24 0 0 0 64 88 A 24 24 0 0 0 88 64 A 24 24 0 0 0 64 40 z M 88 64 A 16 16 0 0 0 104 80 A 16 16 0 0 0 120 64 A 16 16 0 0 0 104 48 A 16 16 0 0 0 88 64 z M 40 64 A 16 16 0 0 0 24 48 A 16 16 0 0 0 8 64 A 16 16 0 0 0 24 80 A 16 16 0 0 0 40 64 z M 64 50 A 14 14 0 0 1 78 64 A 14 14 0 0 1 64 78 A 14 14 0 0 1 50 64 A 14 14 0 0 1 64 50 z M 24 58 A 6 6 0 0 1 30 64 A 6 6 0 0 1 24 70 A 6 6 0 0 1 18 64 A 6 6 0 0 1 24 58 z M 104 58 A 6 6 0 0 1 110 64 A 6 6 0 0 1 104 70 A 6 6 0 0 1 98 64 A 6 6 0 0 1 104 58 z " fill="currentColor" opacity=".6" stop-color="#000000"/><path class="ColorScheme-Background" d="M 64 40 A 24 24 0 0 0 40 64 A 24 24 0 0 0 64 88 A 24 24 0 0 0 88 64 A 24 24 0 0 0 64 40 z M 88 64 A 16 16 0 0 0 104 80 A 16 16 0 0 0 120 64 A 16 16 0 0 0 104 48 A 16 16 0 0 0 88 64 z M 40 64 A 16 16 0 0 0 24 48 A 16 16 0 0 0 8 64 A 16 16 0 0 0 24 80 A 16 16 0 0 0 40 64 z M 64 40.5 C 77 40.5 87.5 51 87.5 64 C 87.5 77 77 87.5 64 87.5 C 51 87.5 40.5 77 40.5 64 C 40.5 51 51 40.5 64 40.5 z M 24 48.5 C 32.57 48.5 39.5 55.43 39.5 64 C 39.5 72.57 32.57 79.5 24 79.5 C 15.43 79.5 8.5 72.57 8.5 64 C 8.5 55.43 15.43 48.5 24 48.5 z M 104 48.5 C 112.57 48.5 119.5 55.43 119.5 64 C 119.5 72.57 112.57 79.5 104 79.5 C 95.43 79.5 88.5 72.57 88.5 64 C 88.5 55.43 95.43 48.5 104 48.5 z M 64 49.5 C 56 49.5 49.5 56 49.5 64 C 49.5 72 56 78.5 64 78.5 C 72 78.5 78.5 72 78.5 64 C 78.5 56 72 49.5 64 49.5 z M 64 50 A 14 14 0 0 1 78 64 A 14 14 0 0 1 64 78 A 14 14 0 0 1 50 64 A 14 14 0 0 1 64 50 z M 24 57.5 C 20.4 57.5 17.5 60.4 17.5 64 C 17.5 67.6 20.4 70.5 24 70.5 C 27.6 70.5 30.5 67.6 30.5 64 C 30.5 60.4 27.6 57.5 24 57.5 z M 104 57.5 C 100.4 57.5 97.5 60.4 97.5 64 C 97.5 67.6 100.4 70.5 104 70.5 C 107.6 70.5 110.5 67.6 110.5 64 C 110.5 60.4 107.6 57.5 104 57.5 z M 24 58 A 6 6 0 0 1 30 64 A 6 6 0 0 1 24 70 A 6 6 0 0 1 18 64 A 6 6 0 0 1 24 58 z M 104 58 A 6 6 0 0 1 110 64 A 6 6 0 0 1 104 70 A 6 6 0 0 1 98 64 A 6 6 0 0 1 104 58 z " fill="currentColor" opacity=".6"/></g><use href="#uCn" opacity=".4"></use><use fill="url(#uCl)" href="#uCn" opacity=".2"></use><path d="M 108,64 C 96,64 96,72 80,72 H 28 c -6.65,0 -12,5.35 -12,12 v 128 c 0,6.65 5.35,12 12,12 h 200 c 6.65,0 12,-5.35 12,-12 V 104 84 76 c 0,-6.65 -5.35,-12 -12,-12 z" fill="url(#uCk)" opacity=".2"/><path class="ColorScheme-Contrast" d="m 16,211 v 1 c 0,6.65 5.35,12 12,12 h 200 c 6.65,0 12,-5.35 12,-12 v -1 c 0,6.65 -5.35,12 -12,12 H 28 c -6.65,0 -12,-5.35 -12,-12 z" fill="currentColor" opacity=".1"/><path class="ColorScheme-Contrast" d="m 16,211.5 v 0.5 c 0,6.65 5.35,12 12,12 h 200 c 6.65,0 12,-5.35 12,-12 v -0.5 c 0,6.65 -5.35,12 -12,12 H 28 c -6.65,0 -12,-5.35 -12,-12 z" fill="currentColor" opacity=".2"/><path d="M 108,64 C 96,64 96,72 80,72 H 28 c -6.65,0 -12,5.35 -12,12 v 1 c 0,-6.65 5.35,-12 12,-12 h 52 c 16,0 16,-8 28,-8 h 120 c 6.65,0 12,5.35 12,12 v -1 c 0,-6.65 -5.35,-12 -12,-12 z" fill="#fff" opacity=".1"/><path d="M 108,64 C 96,64 96,72 80,72 H 28 c -6.65,0 -12,5.35 -12,12 v 0.5 c 0,-6.65 5.35,-12 12,-12 h 52 c 16,0 16,-8 28,-8 h 120 c 6.65,0 12,5.35 12,12 V 76 c 0,-6.65 -5.35,-12 -12,-12 z" fill="#fff" opacity=".2"/><path d="M 108,63 C 96,63 96,71 80,71 H 28 v 1 h 52 c 16,0 16,-8 28,-8 h 120 v -1 z" opacity=".1"/><path d="m 108,63.5 c -12,0 -12,8 -28,8 H 28 V 72 h 52 c 16,0 16,-8 28,-8 h 120 v -0.5 z" opacity=".2"/></g>
</svg>