<svg height="256" version="1.1" width="256" xmlns="http://www.w3.org/2000/svg" xmlns:svg="http://www.w3.org/2000/svg" xmlns:xlink="http://www.w3.org/1999/xlink">
<defs id="primary-definitions">
<style id="current-color-scheme" type="text/css">
      .ColorScheme-Text           { color:#fff; }
      .ColorScheme-Background     { color:#111; }
      .ColorScheme-Highlight      { color:#3daefd; }
      .ColorScheme-ViewBackground { color:#000; }
      .ColorScheme-PositiveText   { color:#27ae60; }
      .ColorScheme-NeutralText    { color:#f67400; }
      .ColorScheme-NegativeText   { color:#da4453; }
    </style>
<style id="extended-color-scheme" type="text/css">
      .ExScheme-Black     { color:#3e3e3e; }
      .ExScheme-White     { color:#fcfcfc; }
      .ExScheme-Grey-1    { color:#cfd5d5; }
      .ExScheme-Grey-2    { color:#909c9c; }
      .ExScheme-Grey-3    { color:#536161; }
      .ExScheme-Red-1     { color:#ffafa5; }
      .ExScheme-Red-2     { color:#bf4231; }
      .ExScheme-Red-3     { color:#4d2f2b; }
      .ExScheme-Green-1   { color:#abf9c7; }
      .ExScheme-Green-2   { color:#3bb566; }
      .ExScheme-Green-3   { color:#377d50; }
      .ExScheme-Blue-1    { color:#abdaf9; }
      .ExScheme-Blue-2    { color:#3daefd; }
      .ExScheme-Blue-3    { color:#2b3c4d; }
      .ExScheme-Yellow-1  { color:#faffa5; }
      .ExScheme-Yellow-2  { color:#cac726; }
      .ExScheme-Yellow-3  { color:#4b4d2b; }
      .ExScheme-Orange-1  { color:#ffdaa5; }
      .ExScheme-Orange-2  { color:#ff9701; }
      .ExScheme-Orange-3  { color:#4d372b; }
      .ExScheme-Brown-1   { color:#e9d6bb; }
      .ExScheme-Brown-2   { color:#997657; }
      .ExScheme-Brown-3   { color:#433a35; }
      .ExScheme-Purple-1  { color:#e2abf9; }
      .ExScheme-Purple-2  { color:#b401ff; }
      .ExScheme-Purple-3  { color:#432b4d; }
      .ExScheme-Cyan-1    { color:#b2f2e6; }
      .ExScheme-Cyan-2    { color:#31bfa6; }
      .ExScheme-Cyan-3    { color:#2b4d47; }
      .ExScheme-Magenta-1 { color:#f8a6d8; }
      .ExScheme-Magenta-2 { color:#f00091; }
      .ExScheme-Magenta-3 { color:#770048; }
    </style>
<linearGradient id="uff">
<stop offset="0"/>
<stop offset="1" stop-opacity="0"/>
</linearGradient>
<linearGradient id="ufg">
<stop offset="0" stop-color="#fff"/>
<stop offset="1" stop-color="#fff" stop-opacity="0"/>
</linearGradient>
<style class="toggle-enable-crease" type="text/css">
        .folder-crease { display: none; }
    </style><style class="toggle-manilla-folders" type="text/css">
        .folder-manilla { display: none; }
    </style><radialGradient cx=".5" cy="0" id="ufh" r="1" xlink:href="#ufg"/><linearGradient id="ufi" xlink:href="#uff" y1="1" y2=".5"/><path d="m 40,32 c -6.65,0 -12,5.35 -12,12 v 28 c -6.65,0 -12,5.35 -12,12 v 128 c 0,6.65 5.35,12 12,12 h 200 c 6.65,0 12,-5.35 12,-12 V 104 84 76 c 0,-6.65 -5.35,-12 -12,-12 V 52 c 0,-6.65 -5.35,-12 -12,-12 H 112 C 96,40 96,32 84,32 Z" id="ufj"></path><path d="m 40,32 c -6.65,0 -12,5.35 -12,12 v 28 h 52 c 16,0 16,-8 28,-8 H 228 V 52 c 0,-6.65 -5.35,-12 -12,-12 H 112 C 96,40 96,32 84,32 Z" id="ufk"></path></defs>
<g id="content" transform="translate(0,0)"><use class="folder-manilla ExScheme-Brown-1" fill="currentColor" href="#ufj"></use><use class="toggle-manilla-folders ColorScheme-Highlight" fill="currentColor" href="#ufj" id="primary-color"></use><use class="ColorScheme-Text" fill="currentColor" href="#ufj" opacity=".1"></use><g id="emblem" transform="translate(64,84)"><path class="ColorScheme-Background" d="M 31 8 L 31 15 L 34 15 L 34 58.54 A 5.5 5.5 0 0 0 29 64 A 5.5 5.5 0 0 0 34 69.46 L 34 113 L 31 113 L 31 120 L 38 120 L 38 113 L 35 113 L 35 75.76 C 38.6 96 51.54 107.1 65.2 113.04 C 81.1 120.02 98 120 102 120 A 1 1 0 0 0 103 119 A 1 1 0 0 0 102 118 C 98 118 81.4 117.98 65.9 111.2 C 51.4 104.9 37.9 92.85 36.2 69.13 A 5.5 5.5 0 0 0 40 64 A 5.5 5.5 0 0 0 36.2 58.86 C 37.9 35.15 51.4 23.1 65.9 16.8 C 81.4 10 98 10 102 10 A 1 1 0 0 0 103 9 A 1 1 0 0 0 102 8 C 98 8 81.1 8 65.2 14.96 C 51.54 20.9 38.6 32 35 52.24 L 35 15 L 38 15 L 38 8 L 31 8 z M 32 9 L 37 9 L 37 14 L 32 14 L 32 9 z M 34.5 59.5 A 4.5 4.5 0 0 1 39 64 A 4.5 4.5 0 0 1 34.5 68.5 A 4.5 4.5 0 0 1 30 64 A 4.5 4.5 0 0 1 34.5 59.5 z M 32 114 L 37 114 L 37 119 L 32 119 L 32 114 z " fill="currentColor" opacity=".6"/><path class="ColorScheme-Background" d="m 31,8 v 7 h 3 V 58.54 A 5.5,5.5 0 0 0 29,64 5.5,5.5 0 0 0 34,69.46 V 113 h -3 v 7 h 7 v -7 H 35 V 75.76 C 38.6,96 51.54,107.1 65.2,113.04 81.1,120.02 98,120 102,120 a 1,1 0 0 0 1,-1 1,1 0 0 0 -1,-1 C 98,118 81.4,117.98 65.9,111.2 51.4,104.9 37.9,92.85 36.2,69.13 A 5.5,5.5 0 0 0 40,64 5.5,5.5 0 0 0 36.2,58.86 C 37.9,35.15 51.4,23.1 65.9,16.8 81.4,10 98,10 102,10 a 1,1 0 0 0 1,-1 1,1 0 0 0 -1,-1 C 98,8 81.1,8 65.2,14.96 51.54,20.9 38.6,32 35,52.24 V 15 h 3 V 8 Z m 1,1 h 5 v 5 h -5 z m 2.5,50.5 A 4.5,4.5 0 0 1 39,64 4.5,4.5 0 0 1 34.5,68.5 4.5,4.5 0 0 1 30,64 4.5,4.5 0 0 1 34.5,59.5 Z M 32,114 h 5 v 5 h -5 z" fill="currentColor" opacity=".6"/><path class="ColorScheme-Background" d="m 31,8 v 7 h 3 V 58.54 C 31.17,58.8 29,61.16 29,64 c 0,2.84 2.17,5.2 5,5.46 V 113 h -3 v 7 h 7 v -7 H 35 V 75.76 C 38.6,96 51.54,107.1 65.2,113.04 81.1,120.02 98,120 102,120 c .55,0 1,-.45 1,-1 0,-.55 -.45,-1 -1,-1 -4,0 -20.6,-0.02 -36.1,-6.8 C 51.4,104.9 37.9,92.85 36.2,69.13 38.4,68.4 39.95,66.35 40,64 39.96,61.65 38.4,59.6 36.2,58.86 37.9,35.15 51.4,23.1 65.9,16.8 81.4,10 98,10 102,10 c .55,0 1,-.45 1,-1 0,-.55 -.45,-1 -1,-1 C 98,8 81.1,8 65.2,14.96 51.54,20.9 38.6,32 35,52.24 V 15 h 3 V 8 Z m 71,0.5 c .3,0 0.5,.2 0.5,0.5 0,.3 -.2,0.5 -0.5,0.5 -4,0 -20.67,0 -36.4,6.83 -14.6,6.4 -28.3,18.6 -30,42.5 -0,.2 .13,.4 .33,.5 C 35.53,59.15 35.04,59 34.5,59 c -.4,0 -.77,.14 -1.15,.23 .24,-.06 .45,-.2 .7,-.2 .26,-0 .46,-.24 .46,-.5 v -6.3 c 8.62e-4,.6 .9,.7 1,.1 3.6,-20.07 16.35,-31.03 29.8,-36.9 C 81.17,8.5 98,8.5 102,8.5 Z M 32,9 h 5 v 5 h -5 z m 2.5,50.5 c 2.5,0 4.5,2 4.5,4.5 0,2.5 -2,4.5 -4.5,4.5 -2.5,0 -4.5,-2 -4.5,-4.5 0,-2.5 2,-4.5 4.5,-4.5 z m 1.5,9.3 c -.2,.1 -.3,.26 -.3,.47 1.7,23.9 15.4,36.13 30,42.5 C 81.33,118.5 98,118.5 102,118.5 c .3,0 0.5,.2 0.5,0.5 0,.3 -.2,0.5 -0.5,0.5 -4,0 -20.83,0 -36.7,-6.9 C 51.84,106.7 39.1,95.74 35.5,75.67 35.4,75.07 34.5,75.15 34.5,75.76 v -6.3 c 1.2e-5,-.26 -.2,-.47 -.46,-.5 -.25,-0 -.46,-.14 -.7,-.2 C 33.73,68.86 34.1,69 34.5,69 c .53,0 1,-.15 1.5,-.3 z M 32,114 h 5 v 5 h -5 z" fill="currentColor" opacity=".6"/></g><use href="#ufk" opacity=".4"></use><use class="toggle-flat-design" fill="url(#ufi)" href="#ufk" opacity=".2"></use><path class="toggle-flat-design" d="M 108,64 C 96,64 96,72 80,72 H 28 c -6.65,0 -12,5.35 -12,12 v 128 c 0,6.65 5.35,12 12,12 h 200 c 6.65,0 12,-5.35 12,-12 V 104 84 76 c 0,-6.65 -5.35,-12 -12,-12 z" fill="url(#ufh)" opacity=".2"/><path class="folder-crease " d="m 16,176 v 8 h 36 c 2.2,0 4,-1.8 4,-4 0,-2.2 -1.8,-4 -4,-4 z m 188,0 c -2.2,0 -4,1.8 -4,4 0,2.2 1.8,4 4,4 h 36 v -8 z" opacity=".4"/><path class="ColorScheme-Text" d="m 16,211 v 1 c 0,6.65 5.35,12 12,12 h 200 c 6.65,0 12,-5.35 12,-12 v -1 c 0,6.65 -5.35,12 -12,12 H 28 c -6.65,0 -12,-5.35 -12,-12 z" fill="currentColor" opacity=".1"/><path class="ColorScheme-Text" d="m 16,211.5 v 0.5 c 0,6.65 5.35,12 12,12 h 200 c 6.65,0 12,-5.35 12,-12 v -0.5 c 0,6.65 -5.35,12 -12,12 H 28 c -6.65,0 -12,-5.35 -12,-12 z" fill="currentColor" opacity=".2"/><path d="M 108,64 C 96,64 96,72 80,72 H 28 c -6.65,0 -12,5.35 -12,12 v 1 c 0,-6.65 5.35,-12 12,-12 h 52 c 16,0 16,-8 28,-8 h 120 c 6.65,0 12,5.35 12,12 v -1 c 0,-6.65 -5.35,-12 -12,-12 z" fill="#fff" opacity=".1"/><path d="M 108,64 C 96,64 96,72 80,72 H 28 c -6.65,0 -12,5.35 -12,12 v 0.5 c 0,-6.65 5.35,-12 12,-12 h 52 c 16,0 16,-8 28,-8 h 120 c 6.65,0 12,5.35 12,12 V 76 c 0,-6.65 -5.35,-12 -12,-12 z" fill="#fff" opacity=".2"/><path d="M 108,63 C 96,63 96,71 80,71 H 28 v 1 h 52 c 16,0 16,-8 28,-8 h 120 v -1 z" opacity=".1"/><path d="m 108,63.5 c -12,0 -12,8 -28,8 H 28 V 72 h 52 c 16,0 16,-8 28,-8 h 120 v -0.5 z" opacity=".2"/></g>
</svg>