<svg height="256" version="1.1" width="256" xmlns="http://www.w3.org/2000/svg" xmlns:svg="http://www.w3.org/2000/svg" xmlns:xlink="http://www.w3.org/1999/xlink">
<defs id="primary-definitions">
<style id="current-color-scheme" type="text/css">
      .ColorScheme-Text         { color: #232629; }
      .ColorScheme-Background   { color: #eff0f1; }
      .ColorScheme-Highlight    { color: #7ec9f0; }
      .ColorScheme-PositiveText { color: #27ae60; }
      .ColorScheme-NeutralText  { color: #f67400; }
      .ColorScheme-NegativeText { color: #da4453; }
      .ColorScheme-ActiveText   { color: #3daee9; }
      .ColorScheme-Complement   { color: #ffffff; }
      .ColorScheme-Contrast     { color: #000000; }
    </style>
<style id="extended-color-scheme" type="text/css">
      .ExScheme-Black     { color:#3e3e3e; }
      .ExScheme-White     { color:#fcfcfc; }
      .ExScheme-Grey-1    { color:#cfd5d5; }
      .ExScheme-Grey-2    { color:#909c9c; }
      .ExScheme-Grey-3    { color:#536161; }
      .ExScheme-Red-1     { color:#ffafa5; }
      .ExScheme-Red-2     { color:#bf4231; }
      .ExScheme-Red-3     { color:#4d2f2b; }
      .ExScheme-Green-1   { color:#abf9c7; }
      .ExScheme-Green-2   { color:#3bb566; }
      .ExScheme-Green-3   { color:#377d50; }
      .ExScheme-Blue-1    { color:#abdaf9; }
      .ExScheme-Blue-2    { color:#3daefd; }
      .ExScheme-Blue-3    { color:#2b3c4d; }
      .ExScheme-Yellow-1  { color:#faffa5; }
      .ExScheme-Yellow-2  { color:#cac726; }
      .ExScheme-Yellow-3  { color:#4b4d2b; }
      .ExScheme-Orange-1  { color:#ffdaa5; }
      .ExScheme-Orange-2  { color:#ff9701; }
      .ExScheme-Orange-3  { color:#4d372b; }
      .ExScheme-Brown-1   { color:#e9d6bb; }
      .ExScheme-Brown-2   { color:#997657; }
      .ExScheme-Brown-3   { color:#433a35; }
      .ExScheme-Purple-1  { color:#e2abf9; }
      .ExScheme-Purple-2  { color:#b401ff; }
      .ExScheme-Purple-3  { color:#432b4d; }
      .ExScheme-Cyan-1    { color:#b2f2e6; }
      .ExScheme-Cyan-2    { color:#31bfa6; }
      .ExScheme-Cyan-3    { color:#2b4d47; }
      .ExScheme-Magenta-1 { color:#f8a6d8; }
      .ExScheme-Magenta-2 { color:#f00091; }
      .ExScheme-Magenta-3 { color:#770048; }
    </style>
<linearGradient id="uQJ">
<stop offset="0"/>
<stop offset="1" stop-opacity="0"/>
</linearGradient>
<linearGradient id="uQK">
<stop offset="0" stop-color="#fff"/>
<stop offset="1" stop-color="#fff" stop-opacity="0"/>
</linearGradient>
<style id="uQL" type="text/css">
        .force-display-for-editing { display: inline !important; }
    </style><style class="remove-if__show-crease" type="text/css">
        .enable-if__show-crease { display: none; }
    </style><style class="remove-if__color-sync-mimes-places" type="text/css">
        .enable-if__color-sync-mimes-places { display: none; }
    </style><radialGradient cx=".5" cy="0" id="uQM" r="1" xlink:href="#uQK"/><linearGradient id="uQN" xlink:href="#uQJ" y1="1" y2=".5"/><style class="ColorScheme-Background" fill="currentColor" opacity=".6" type="text/css">
   .ColorScheme-Text           { color:#eff0f1; }
      .ColorScheme-Background     { color:#31363b; }
      .ColorScheme-Highlight      { color:#3daefd; }
      .ColorScheme-ViewBackground { color:#fcfcfc; }
      .ColorScheme-PositiveText   { color:#27ae60; }
      .ColorScheme-NeutralText    { color:#f67400; }
      .ColorScheme-NegativeText   { color:#da4453; }
  </style><path d="m 40,32 c -6.65,0 -12,5.35 -12,12 v 28 c -6.65,0 -12,5.35 -12,12 v 128 c 0,6.65 5.35,12 12,12 h 200 c 6.65,0 12,-5.35 12,-12 V 104 84 76 c 0,-6.65 -5.35,-12 -12,-12 V 52 c 0,-6.65 -5.35,-12 -12,-12 H 112 C 96,40 96,32 84,32 Z" id="uQO"></path><path d="m 40,32 c -6.65,0 -12,5.35 -12,12 v 28 h 52 c 16,0 16,-8 28,-8 H 228 V 52 c 0,-6.65 -5.35,-12 -12,-12 H 112 C 96,40 96,32 84,32 Z" id="uQP"></path></defs>
<g id="content" transform="translate(0,0)"><use class="sync-color enable-if__color-sync-mimes-places force-display-for-editing ColorScheme-ActiveText" fill="currentColor" href="#uQO"></use><use class="primary-color remove-if__color-sync-mimes-places ColorScheme-ActiveText" fill="currentColor" href="#uQO"></use><use class="ColorScheme-Contrast" fill="currentColor" href="#uQO" opacity=".1"></use><g id="panorama" transform="translate(16,64)"><path class="ColorScheme-Background" d="M 211 34.4 C 210.85 34.4 210.67 34.45 210.5 34.55 L 20 146.13 C 19.13 146.65 19.5 148 20.5 148 L 35 148 L 35 143.5 C 35 143.2 35.2 143 35.5 143 C 35.8 143 36 143.2 36 143.5 L 36 148 L 39 148 L 39 146.5 C 39 146.2 39.2 146 39.5 146 C 39.8 146 40 146.2 40 146.5 L 40 148 L 43 148 L 43 146.5 C 43 146.2 43.2 146 43.5 146 C 43.8 146 44 146.2 44 146.5 L 44 148 L 47 148 L 47 146.5 C 47 146.2 47.2 146 47.5 146 C 47.8 146 48 146.2 48 146.5 L 48 148 L 51 148 L 51 146.5 C 51 146.2 51.2 146 51.5 146 C 51.8 146 52 146.2 52 146.5 L 52 148 L 55 148 L 55 146.5 C 55 146.2 55.2 146 55.5 146 C 55.8 146 56 146.2 56 146.5 L 56 148 L 59 148 L 59 143.5 C 59 143.2 59.2 143 59.5 143 C 59.8 143 60 143.2 60 143.5 L 60 148 L 63 148 L 63 146.5 C 63 146.2 63.2 146 63.5 146 C 63.8 146 64 146.2 64 146.5 L 64 148 L 67 148 L 67 146.5 C 67 146.2 67.2 146 67.5 146 C 67.8 146 68 146.2 68 146.5 L 68 148 L 71 148 L 71 146.5 C 71 146.2 71.2 146 71.5 146 C 71.8 146 72 146.2 72 146.5 L 72 148 L 75 148 L 75 146.5 C 75 146.2 75.2 146 75.5 146 C 75.8 146 76 146.2 76 146.5 L 76 148 L 79 148 L 79 146.5 C 79 146.2 79.2 146 79.5 146 C 79.8 146 80 146.2 80 146.5 L 80 148 L 83 148 L 83 143.5 C 83 143.2 83.2 143 83.5 143 C 83.8 143 84 143.2 84 143.5 L 84 148 L 87 148 L 87 146.5 C 87 146.2 87.2 146 87.5 146 C 87.8 146 88 146.2 88 146.5 L 88 148 L 91 148 L 91 146.5 C 91 146.2 91.2 146 91.5 146 C 91.8 146 92 146.2 92 146.5 L 92 148 L 95 148 L 95 146.5 C 95 146.2 95.2 146 95.5 146 C 95.8 146 96 146.2 96 146.5 L 96 148 L 99 148 L 99 146.5 C 99 146.2 99.2 146 99.5 146 C 99.8 146 100 146.2 100 146.5 L 100 148 L 103 148 L 103 146.5 C 103 146.2 103.2 146 103.5 146 C 103.8 146 104 146.2 104 146.5 L 104 148 L 107 148 L 107 143.5 C 107 143.2 107.2 143 107.5 143 C 107.8 143 108 143.2 108 143.5 L 108 148 L 111 148 L 111 146.5 C 111 146.2 111.2 146 111.5 146 C 111.8 146 112 146.2 112 146.5 L 112 148 L 115 148 L 115 146.5 C 115 146.2 115.2 146 115.5 146 C 115.8 146 116 146.2 116 146.5 L 116 148 L 119 148 L 119 146.5 C 119 146.2 119.2 146 119.5 146 C 119.8 146 120 146.2 120 146.5 L 120 148 L 123 148 L 123 146.5 C 123 146.2 123.2 146 123.5 146 C 123.8 146 124 146.2 124 146.5 L 124 148 L 127 148 L 127 146.5 C 127 146.2 127.2 146 127.5 146 C 127.8 146 128 146.2 128 146.5 L 128 148 L 131 148 L 131 143.5 C 131 143.2 131.2 143 131.5 143 C 131.8 143 132 143.2 132 143.5 L 132 148 L 135 148 L 135 146.5 C 135 146.2 135.2 146 135.5 146 C 135.8 146 136 146.2 136 146.5 L 136 148 L 139 148 L 139 146.5 C 139 146.2 139.2 146 139.5 146 C 139.8 146 140 146.2 140 146.5 L 140 148 L 143 148 L 143 146.5 C 143 146.2 143.2 146 143.5 146 C 143.8 146 144 146.2 144 146.5 L 144 148 L 147 148 L 147 146.5 C 147 146.2 147.2 146 147.5 146 C 147.8 146 148 146.2 148 146.5 L 148 148 L 151 148 L 151 146.5 C 151 146.2 151.2 146 151.5 146 C 151.8 146 152 146.2 152 146.5 L 152 148 L 155 148 L 155 143.5 C 155 143.2 155.2 143 155.5 143 C 155.8 143 156 143.2 156 143.5 L 156 148 L 159 148 L 159 146.5 C 159 146.2 159.2 146 159.5 146 C 159.8 146 160 146.2 160 146.5 L 160 148 L 163 148 L 163 146.5 C 163 146.2 163.2 146 163.5 146 C 163.8 146 164 146.2 164 146.5 L 164 148 L 167 148 L 167 146.5 C 167 146.2 167.2 146 167.5 146 C 167.8 146 168 146.2 168 146.5 L 168 148 L 171 148 L 171 146.5 C 171 146.2 171.2 146 171.5 146 C 171.8 146 172 146.2 172 146.5 L 172 148 L 175 148 L 175 146.5 C 175 146.2 175.2 146 175.5 146 C 175.8 146 176 146.2 176 146.5 L 176 148 L 179 148 L 179 143.5 C 179 143.2 179.2 143 179.5 143 C 179.8 143 180 143.2 180 143.5 L 180 148 L 183 148 L 183 146.5 C 183 146.2 183.2 146 183.5 146 C 183.8 146 184 146.2 184 146.5 L 184 148 L 187 148 L 187 146.5 C 187 146.2 187.2 146 187.5 146 C 187.8 146 188 146.2 188 146.5 L 188 148 L 191 148 L 191 146.5 C 191 146.2 191.2 146 191.5 146 C 191.8 146 192 146.2 192 146.5 L 192 148 L 195 148 L 195 146.5 C 195 146.2 195.2 146 195.5 146 C 195.8 146 196 146.2 196 146.5 L 196 148 L 199 148 L 199 146.5 C 199 146.2 199.2 146 199.5 146 C 199.8 146 200 146.2 200 146.5 L 200 148 L 203 148 L 203 143.5 C 203 143.2 203.2 143 203.5 143 C 203.8 143 204 143.2 204 143.5 L 204 148 L 211 148 C 211.55 148 212 147.55 212 147 L 212 140 L 207.5 140 C 207.2 140 207 139.8 207 139.5 C 207 139.2 207.2 139 207.5 139 L 212 139 L 212 136 L 210.5 136 C 210.2 136 210 135.8 210 135.5 C 210 135.2 210.2 135 210.5 135 L 212 135 L 212 132 L 210.5 132 C 210.2 132 210 131.8 210 131.5 C 210 131.2 210.2 131 210.5 131 L 212 131 L 212 128 L 210.5 128 C 210.2 128 210 127.8 210 127.5 C 210 127.2 210.2 127 210.5 127 L 212 127 L 212 124 L 210.5 124 C 210.2 124 210 123.8 210 123.5 C 210 123.2 210.2 123 210.5 123 L 212 123 L 212 120 L 210.5 120 C 210.2 120 210 119.8 210 119.5 C 210 119.2 210.2 119 210.5 119 L 212 119 L 212 116 L 207.5 116 C 207.2 116 207 115.8 207 115.5 C 207 115.2 207.2 115 207.5 115 L 212 115 L 212 112 L 210.5 112 C 210.2 112 210 111.8 210 111.5 C 210 111.2 210.2 111 210.5 111 L 212 111 L 212 108 L 210.5 108 C 210.2 108 210 107.8 210 107.5 C 210 107.2 210.2 107 210.5 107 L 212 107 L 212 104 L 210.5 104 C 210.2 104 210 103.8 210 103.5 C 210 103.2 210.2 103 210.5 103 L 212 103 L 212 100 L 210.5 100 C 210.2 100 210 99.8 210 99.5 C 210 99.2 210.2 99 210.5 99 L 212 99 L 212 96 L 210.5 96 C 210.2 96 210 95.8 210 95.5 C 210 95.2 210.2 95 210.5 95 L 212 95 L 212 92 L 207.5 92 C 207.2 92 207 91.8 207 91.5 C 207 91.2 207.2 91 207.5 91 L 212 91 L 212 88 L 210.5 88 C 210.2 88 210 87.8 210 87.5 C 210 87.2 210.2 87 210.5 87 L 212 87 L 212 84 L 210.5 84 C 210.2 84 210 83.8 210 83.5 C 210 83.2 210.2 83 210.5 83 L 212 83 L 212 80 L 210.5 80 C 210.2 80 210 79.8 210 79.5 C 210 79.2 210.2 79 210.5 79 L 212 79 L 212 76 L 210.5 76 C 210.2 76 210 75.8 210 75.5 C 210 75.2 210.2 75 210.5 75 L 212 75 L 212 72 L 210.5 72 C 210.2 72 210 71.8 210 71.5 C 210 71.2 210.2 71 210.5 71 L 212 71 L 212 68 L 207.5 68 C 207.2 68 207 67.8 207 67.5 C 207 67.2 207.2 67 207.5 67 L 212 67 L 212 64 L 210.5 64 C 210.2 64 210 63.8 210 63.5 C 210 63.2 210.2 63 210.5 63 L 212 63 L 212 60 L 210.5 60 C 210.2 60 210 59.8 210 59.5 C 210 59.2 210.2 59 210.5 59 L 212 59 L 212 56 L 210.5 56 C 210.2 56 210 55.8 210 55.5 C 210 55.2 210.2 55 210.5 55 L 212 55 L 212 52 L 210.5 52 C 210.2 52 210 51.8 210 51.5 C 210 51.2 210.2 51 210.5 51 L 212 51 L 212 48 L 210.5 48 C 210.2 48 210 47.8 210 47.5 C 210 47.2 210.2 47 210.5 47 L 212 47 L 212 44 L 207.5 44 C 207.2 44 207 43.8 207 43.5 C 207 43.2 207.2 43 207.5 43 L 212 43 L 212 35.4 C 212 34.73 211.54 34.36 211 34.4 z M 183 81.45 L 183 119 L 121.74 119 L 183 81.45 z " fill="currentColor" opacity=".6"/><path class="ColorScheme-Background" d="M 211 34.4 C 210.85 34.4 210.67 34.45 210.5 34.55 L 20 146.13 C 19.13 146.65 19.5 148 20.5 148 L 35 148 L 35 143.5 C 35 143.2 35.2 143 35.5 143 C 35.8 143 36 143.2 36 143.5 L 36 148 L 39 148 L 39 146.5 C 39 146.2 39.2 146 39.5 146 C 39.8 146 40 146.2 40 146.5 L 40 148 L 43 148 L 43 146.5 C 43 146.2 43.2 146 43.5 146 C 43.8 146 44 146.2 44 146.5 L 44 148 L 47 148 L 47 146.5 C 47 146.2 47.2 146 47.5 146 C 47.8 146 48 146.2 48 146.5 L 48 148 L 51 148 L 51 146.5 C 51 146.2 51.2 146 51.5 146 C 51.8 146 52 146.2 52 146.5 L 52 148 L 55 148 L 55 146.5 C 55 146.2 55.2 146 55.5 146 C 55.8 146 56 146.2 56 146.5 L 56 148 L 59 148 L 59 143.5 C 59 143.2 59.2 143 59.5 143 C 59.8 143 60 143.2 60 143.5 L 60 148 L 63 148 L 63 146.5 C 63 146.2 63.2 146 63.5 146 C 63.8 146 64 146.2 64 146.5 L 64 148 L 67 148 L 67 146.5 C 67 146.2 67.2 146 67.5 146 C 67.8 146 68 146.2 68 146.5 L 68 148 L 71 148 L 71 146.5 C 71 146.2 71.2 146 71.5 146 C 71.8 146 72 146.2 72 146.5 L 72 148 L 75 148 L 75 146.5 C 75 146.2 75.2 146 75.5 146 C 75.8 146 76 146.2 76 146.5 L 76 148 L 79 148 L 79 146.5 C 79 146.2 79.2 146 79.5 146 C 79.8 146 80 146.2 80 146.5 L 80 148 L 83 148 L 83 143.5 C 83 143.2 83.2 143 83.5 143 C 83.8 143 84 143.2 84 143.5 L 84 148 L 87 148 L 87 146.5 C 87 146.2 87.2 146 87.5 146 C 87.8 146 88 146.2 88 146.5 L 88 148 L 91 148 L 91 146.5 C 91 146.2 91.2 146 91.5 146 C 91.8 146 92 146.2 92 146.5 L 92 148 L 95 148 L 95 146.5 C 95 146.2 95.2 146 95.5 146 C 95.8 146 96 146.2 96 146.5 L 96 148 L 99 148 L 99 146.5 C 99 146.2 99.2 146 99.5 146 C 99.8 146 100 146.2 100 146.5 L 100 148 L 103 148 L 103 146.5 C 103 146.2 103.2 146 103.5 146 C 103.8 146 104 146.2 104 146.5 L 104 148 L 107 148 L 107 143.5 C 107 143.2 107.2 143 107.5 143 C 107.8 143 108 143.2 108 143.5 L 108 148 L 111 148 L 111 146.5 C 111 146.2 111.2 146 111.5 146 C 111.8 146 112 146.2 112 146.5 L 112 148 L 115 148 L 115 146.5 C 115 146.2 115.2 146 115.5 146 C 115.8 146 116 146.2 116 146.5 L 116 148 L 119 148 L 119 146.5 C 119 146.2 119.2 146 119.5 146 C 119.8 146 120 146.2 120 146.5 L 120 148 L 123 148 L 123 146.5 C 123 146.2 123.2 146 123.5 146 C 123.8 146 124 146.2 124 146.5 L 124 148 L 127 148 L 127 146.5 C 127 146.2 127.2 146 127.5 146 C 127.8 146 128 146.2 128 146.5 L 128 148 L 131 148 L 131 143.5 C 131 143.2 131.2 143 131.5 143 C 131.8 143 132 143.2 132 143.5 L 132 148 L 135 148 L 135 146.5 C 135 146.2 135.2 146 135.5 146 C 135.8 146 136 146.2 136 146.5 L 136 148 L 139 148 L 139 146.5 C 139 146.2 139.2 146 139.5 146 C 139.8 146 140 146.2 140 146.5 L 140 148 L 143 148 L 143 146.5 C 143 146.2 143.2 146 143.5 146 C 143.8 146 144 146.2 144 146.5 L 144 148 L 147 148 L 147 146.5 C 147 146.2 147.2 146 147.5 146 C 147.8 146 148 146.2 148 146.5 L 148 148 L 151 148 L 151 146.5 C 151 146.2 151.2 146 151.5 146 C 151.8 146 152 146.2 152 146.5 L 152 148 L 155 148 L 155 143.5 C 155 143.2 155.2 143 155.5 143 C 155.8 143 156 143.2 156 143.5 L 156 148 L 159 148 L 159 146.5 C 159 146.2 159.2 146 159.5 146 C 159.8 146 160 146.2 160 146.5 L 160 148 L 163 148 L 163 146.5 C 163 146.2 163.2 146 163.5 146 C 163.8 146 164 146.2 164 146.5 L 164 148 L 167 148 L 167 146.5 C 167 146.2 167.2 146 167.5 146 C 167.8 146 168 146.2 168 146.5 L 168 148 L 171 148 L 171 146.5 C 171 146.2 171.2 146 171.5 146 C 171.8 146 172 146.2 172 146.5 L 172 148 L 175 148 L 175 146.5 C 175 146.2 175.2 146 175.5 146 C 175.8 146 176 146.2 176 146.5 L 176 148 L 179 148 L 179 143.5 C 179 143.2 179.2 143 179.5 143 C 179.8 143 180 143.2 180 143.5 L 180 148 L 183 148 L 183 146.5 C 183 146.2 183.2 146 183.5 146 C 183.8 146 184 146.2 184 146.5 L 184 148 L 187 148 L 187 146.5 C 187 146.2 187.2 146 187.5 146 C 187.8 146 188 146.2 188 146.5 L 188 148 L 191 148 L 191 146.5 C 191 146.2 191.2 146 191.5 146 C 191.8 146 192 146.2 192 146.5 L 192 148 L 195 148 L 195 146.5 C 195 146.2 195.2 146 195.5 146 C 195.8 146 196 146.2 196 146.5 L 196 148 L 199 148 L 199 146.5 C 199 146.2 199.2 146 199.5 146 C 199.8 146 200 146.2 200 146.5 L 200 148 L 203 148 L 203 143.5 C 203 143.2 203.2 143 203.5 143 C 203.8 143 204 143.2 204 143.5 L 204 148 L 211 148 C 211.55 148 212 147.55 212 147 L 212 140 L 207.5 140 C 207.2 140 207 139.8 207 139.5 C 207 139.2 207.2 139 207.5 139 L 212 139 L 212 136 L 210.5 136 C 210.2 136 210 135.8 210 135.5 C 210 135.2 210.2 135 210.5 135 L 212 135 L 212 132 L 210.5 132 C 210.2 132 210 131.8 210 131.5 C 210 131.2 210.2 131 210.5 131 L 212 131 L 212 128 L 210.5 128 C 210.2 128 210 127.8 210 127.5 C 210 127.2 210.2 127 210.5 127 L 212 127 L 212 124 L 210.5 124 C 210.2 124 210 123.8 210 123.5 C 210 123.2 210.2 123 210.5 123 L 212 123 L 212 120 L 210.5 120 C 210.2 120 210 119.8 210 119.5 C 210 119.2 210.2 119 210.5 119 L 212 119 L 212 116 L 207.5 116 C 207.2 116 207 115.8 207 115.5 C 207 115.2 207.2 115 207.5 115 L 212 115 L 212 112 L 210.5 112 C 210.2 112 210 111.8 210 111.5 C 210 111.2 210.2 111 210.5 111 L 212 111 L 212 108 L 210.5 108 C 210.2 108 210 107.8 210 107.5 C 210 107.2 210.2 107 210.5 107 L 212 107 L 212 104 L 210.5 104 C 210.2 104 210 103.8 210 103.5 C 210 103.2 210.2 103 210.5 103 L 212 103 L 212 100 L 210.5 100 C 210.2 100 210 99.8 210 99.5 C 210 99.2 210.2 99 210.5 99 L 212 99 L 212 96 L 210.5 96 C 210.2 96 210 95.8 210 95.5 C 210 95.2 210.2 95 210.5 95 L 212 95 L 212 92 L 207.5 92 C 207.2 92 207 91.8 207 91.5 C 207 91.2 207.2 91 207.5 91 L 212 91 L 212 88 L 210.5 88 C 210.2 88 210 87.8 210 87.5 C 210 87.2 210.2 87 210.5 87 L 212 87 L 212 84 L 210.5 84 C 210.2 84 210 83.8 210 83.5 C 210 83.2 210.2 83 210.5 83 L 212 83 L 212 80 L 210.5 80 C 210.2 80 210 79.8 210 79.5 C 210 79.2 210.2 79 210.5 79 L 212 79 L 212 76 L 210.5 76 C 210.2 76 210 75.8 210 75.5 C 210 75.2 210.2 75 210.5 75 L 212 75 L 212 72 L 210.5 72 C 210.2 72 210 71.8 210 71.5 C 210 71.2 210.2 71 210.5 71 L 212 71 L 212 68 L 207.5 68 C 207.2 68 207 67.8 207 67.5 C 207 67.2 207.2 67 207.5 67 L 212 67 L 212 64 L 210.5 64 C 210.2 64 210 63.8 210 63.5 C 210 63.2 210.2 63 210.5 63 L 212 63 L 212 60 L 210.5 60 C 210.2 60 210 59.8 210 59.5 C 210 59.2 210.2 59 210.5 59 L 212 59 L 212 56 L 210.5 56 C 210.2 56 210 55.8 210 55.5 C 210 55.2 210.2 55 210.5 55 L 212 55 L 212 52 L 210.5 52 C 210.2 52 210 51.8 210 51.5 C 210 51.2 210.2 51 210.5 51 L 212 51 L 212 48 L 210.5 48 C 210.2 48 210 47.8 210 47.5 C 210 47.2 210.2 47 210.5 47 L 212 47 L 212 44 L 207.5 44 C 207.2 44 207 43.8 207 43.5 C 207 43.2 207.2 43 207.5 43 L 212 43 L 212 35.4 C 212 34.73 211.54 34.36 211 34.4 z M 211.05 34.9 C 211.2 34.9 211.3 34.9 211.36 35 C 211.43 35.07 211.5 35.2 211.5 35.4 L 211.5 42.5 L 207.5 42.5 C 206.95 42.5 206.5 42.95 206.5 43.5 C 206.5 44.05 206.95 44.5 207.5 44.5 L 211.5 44.5 L 211.5 46.5 L 210.5 46.5 C 209.95 46.5 209.5 46.95 209.5 47.5 C 209.5 48.05 209.95 48.5 210.5 48.5 L 211.5 48.5 L 211.5 50.5 L 210.5 50.5 C 209.95 50.5 209.5 50.95 209.5 51.5 C 209.5 52.05 209.95 52.5 210.5 52.5 L 211.5 52.5 L 211.5 54.5 L 210.5 54.5 C 209.95 54.5 209.5 54.95 209.5 55.5 C 209.5 56.05 209.95 56.5 210.5 56.5 L 211.5 56.5 L 211.5 58.5 L 210.5 58.5 C 209.95 58.5 209.5 58.95 209.5 59.5 C 209.5 60.05 209.95 60.5 210.5 60.5 L 211.5 60.5 L 211.5 62.5 L 210.5 62.5 C 209.95 62.5 209.5 62.95 209.5 63.5 C 209.5 64.05 209.95 64.5 210.5 64.5 L 211.5 64.5 L 211.5 66.5 L 207.5 66.5 C 206.95 66.5 206.5 66.95 206.5 67.5 C 206.5 68.05 206.95 68.5 207.5 68.5 L 211.5 68.5 L 211.5 70.5 L 210.5 70.5 C 209.95 70.5 209.5 70.95 209.5 71.5 C 209.5 72.05 209.95 72.5 210.5 72.5 L 211.5 72.5 L 211.5 74.5 L 210.5 74.5 C 209.95 74.5 209.5 74.95 209.5 75.5 C 209.5 76.05 209.95 76.5 210.5 76.5 L 211.5 76.5 L 211.5 78.5 L 210.5 78.5 C 209.95 78.5 209.5 78.95 209.5 79.5 C 209.5 80.05 209.95 80.5 210.5 80.5 L 211.5 80.5 L 211.5 82.5 L 210.5 82.5 C 209.95 82.5 209.5 82.95 209.5 83.5 C 209.5 84.05 209.95 84.5 210.5 84.5 L 211.5 84.5 L 211.5 86.5 L 210.5 86.5 C 209.95 86.5 209.5 86.95 209.5 87.5 C 209.5 88.05 209.95 88.5 210.5 88.5 L 211.5 88.5 L 211.5 90.5 L 207.5 90.5 C 206.95 90.5 206.5 90.95 206.5 91.5 C 206.5 92.05 206.95 92.5 207.5 92.5 L 211.5 92.5 L 211.5 94.5 L 210.5 94.5 C 209.95 94.5 209.5 94.95 209.5 95.5 C 209.5 96.05 209.95 96.5 210.5 96.5 L 211.5 96.5 L 211.5 98.5 L 210.5 98.5 C 209.95 98.5 209.5 98.95 209.5 99.5 C 209.5 100.05 209.95 100.5 210.5 100.5 L 211.5 100.5 L 211.5 102.5 L 210.5 102.5 C 209.95 102.5 209.5 102.95 209.5 103.5 C 209.5 104.05 209.95 104.5 210.5 104.5 L 211.5 104.5 L 211.5 106.5 L 210.5 106.5 C 209.95 106.5 209.5 106.95 209.5 107.5 C 209.5 108.05 209.95 108.5 210.5 108.5 L 211.5 108.5 L 211.5 110.5 L 210.5 110.5 C 209.95 110.5 209.5 110.95 209.5 111.5 C 209.5 112.05 209.95 112.5 210.5 112.5 L 211.5 112.5 L 211.5 114.5 L 207.5 114.5 C 206.95 114.5 206.5 114.95 206.5 115.5 C 206.5 116.05 206.95 116.5 207.5 116.5 L 211.5 116.5 L 211.5 118.5 L 210.5 118.5 C 209.95 118.5 209.5 118.95 209.5 119.5 C 209.5 120.05 209.95 120.5 210.5 120.5 L 211.5 120.5 L 211.5 122.5 L 210.5 122.5 C 209.95 122.5 209.5 122.95 209.5 123.5 C 209.5 124.05 209.95 124.5 210.5 124.5 L 211.5 124.5 L 211.5 126.5 L 210.5 126.5 C 209.95 126.5 209.5 126.95 209.5 127.5 C 209.5 128.05 209.95 128.5 210.5 128.5 L 211.5 128.5 L 211.5 130.5 L 210.5 130.5 C 209.95 130.5 209.5 130.95 209.5 131.5 C 209.5 132.05 209.95 132.5 210.5 132.5 L 211.5 132.5 L 211.5 134.5 L 210.5 134.5 C 209.95 134.5 209.5 134.95 209.5 135.5 C 209.5 136.05 209.95 136.5 210.5 136.5 L 211.5 136.5 L 211.5 138.5 L 207.5 138.5 C 206.95 138.5 206.5 138.95 206.5 139.5 C 206.5 140.05 206.95 140.5 207.5 140.5 L 211.5 140.5 L 211.5 147 C 211.5 147.3 211.3 147.5 211 147.5 L 204.5 147.5 L 204.5 143.5 C 204.5 142.95 204.05 142.5 203.5 142.5 C 202.95 142.5 202.5 142.95 202.5 143.5 L 202.5 147.5 L 200.5 147.5 L 200.5 146.5 C 200.5 145.95 200.05 145.5 199.5 145.5 C 198.95 145.5 198.5 145.95 198.5 146.5 L 198.5 147.5 L 196.5 147.5 L 196.5 146.5 C 196.5 145.95 196.05 145.5 195.5 145.5 C 194.95 145.5 194.5 145.95 194.5 146.5 L 194.5 147.5 L 192.5 147.5 L 192.5 146.5 C 192.5 145.95 192.05 145.5 191.5 145.5 C 190.95 145.5 190.5 145.95 190.5 146.5 L 190.5 147.5 L 188.5 147.5 L 188.5 146.5 C 188.5 145.95 188.05 145.5 187.5 145.5 C 186.95 145.5 186.5 145.95 186.5 146.5 L 186.5 147.5 L 184.5 147.5 L 184.5 146.5 C 184.5 145.95 184.05 145.5 183.5 145.5 C 182.95 145.5 182.5 145.95 182.5 146.5 L 182.5 147.5 L 180.5 147.5 L 180.5 143.5 C 180.5 142.95 180.05 142.5 179.5 142.5 C 178.95 142.5 178.5 142.95 178.5 143.5 L 178.5 147.5 L 176.5 147.5 L 176.5 146.5 C 176.5 145.95 176.05 145.5 175.5 145.5 C 174.95 145.5 174.5 145.95 174.5 146.5 L 174.5 147.5 L 172.5 147.5 L 172.5 146.5 C 172.5 145.95 172.05 145.5 171.5 145.5 C 170.95 145.5 170.5 145.95 170.5 146.5 L 170.5 147.5 L 168.5 147.5 L 168.5 146.5 C 168.5 145.95 168.05 145.5 167.5 145.5 C 166.95 145.5 166.5 145.95 166.5 146.5 L 166.5 147.5 L 164.5 147.5 L 164.5 146.5 C 164.5 145.95 164.05 145.5 163.5 145.5 C 162.95 145.5 162.5 145.95 162.5 146.5 L 162.5 147.5 L 160.5 147.5 L 160.5 146.5 C 160.5 145.95 160.05 145.5 159.5 145.5 C 158.95 145.5 158.5 145.95 158.5 146.5 L 158.5 147.5 L 156.5 147.5 L 156.5 143.5 C 156.5 142.95 156.05 142.5 155.5 142.5 C 154.95 142.5 154.5 142.95 154.5 143.5 L 154.5 147.5 L 152.5 147.5 L 152.5 146.5 C 152.5 145.95 152.05 145.5 151.5 145.5 C 150.95 145.5 150.5 145.95 150.5 146.5 L 150.5 147.5 L 148.5 147.5 L 148.5 146.5 C 148.5 145.95 148.05 145.5 147.5 145.5 C 146.95 145.5 146.5 145.95 146.5 146.5 L 146.5 147.5 L 144.5 147.5 L 144.5 146.5 C 144.5 145.95 144.05 145.5 143.5 145.5 C 142.95 145.5 142.5 145.95 142.5 146.5 L 142.5 147.5 L 140.5 147.5 L 140.5 146.5 C 140.5 145.95 140.05 145.5 139.5 145.5 C 138.95 145.5 138.5 145.95 138.5 146.5 L 138.5 147.5 L 136.5 147.5 L 136.5 146.5 C 136.5 145.95 136.05 145.5 135.5 145.5 C 134.95 145.5 134.5 145.95 134.5 146.5 L 134.5 147.5 L 132.5 147.5 L 132.5 143.5 C 132.5 142.95 132.05 142.5 131.5 142.5 C 130.95 142.5 130.5 142.95 130.5 143.5 L 130.5 147.5 L 128.5 147.5 L 128.5 146.5 C 128.5 145.95 128.05 145.5 127.5 145.5 C 126.95 145.5 126.5 145.95 126.5 146.5 L 126.5 147.5 L 124.5 147.5 L 124.5 146.5 C 124.5 145.95 124.05 145.5 123.5 145.5 C 122.95 145.5 122.5 145.95 122.5 146.5 L 122.5 147.5 L 120.5 147.5 L 120.5 146.5 C 120.5 145.95 120.05 145.5 119.5 145.5 C 118.95 145.5 118.5 145.95 118.5 146.5 L 118.5 147.5 L 116.5 147.5 L 116.5 146.5 C 116.5 145.95 116.05 145.5 115.5 145.5 C 114.95 145.5 114.5 145.95 114.5 146.5 L 114.5 147.5 L 112.5 147.5 L 112.5 146.5 C 112.5 145.95 112.05 145.5 111.5 145.5 C 110.95 145.5 110.5 145.95 110.5 146.5 L 110.5 147.5 L 108.5 147.5 L 108.5 143.5 C 108.5 142.95 108.05 142.5 107.5 142.5 C 106.95 142.5 106.5 142.95 106.5 143.5 L 106.5 147.5 L 104.5 147.5 L 104.5 146.5 C 104.5 145.95 104.05 145.5 103.5 145.5 C 102.95 145.5 102.5 145.95 102.5 146.5 L 102.5 147.5 L 100.5 147.5 L 100.5 146.5 C 100.5 145.95 100.05 145.5 99.5 145.5 C 98.95 145.5 98.5 145.95 98.5 146.5 L 98.5 147.5 L 96.5 147.5 L 96.5 146.5 C 96.5 145.95 96.05 145.5 95.5 145.5 C 94.95 145.5 94.5 145.95 94.5 146.5 L 94.5 147.5 L 92.5 147.5 L 92.5 146.5 C 92.5 145.95 92.05 145.5 91.5 145.5 C 90.95 145.5 90.5 145.95 90.5 146.5 L 90.5 147.5 L 88.5 147.5 L 88.5 146.5 C 88.5 145.95 88.05 145.5 87.5 145.5 C 86.95 145.5 86.5 145.95 86.5 146.5 L 86.5 147.5 L 84.5 147.5 L 84.5 143.5 C 84.5 142.95 84.05 142.5 83.5 142.5 C 82.95 142.5 82.5 142.95 82.5 143.5 L 82.5 147.5 L 80.5 147.5 L 80.5 146.5 C 80.5 145.95 80.05 145.5 79.5 145.5 C 78.95 145.5 78.5 145.95 78.5 146.5 L 78.5 147.5 L 76.5 147.5 L 76.5 146.5 C 76.5 145.95 76.05 145.5 75.5 145.5 C 74.95 145.5 74.5 145.95 74.5 146.5 L 74.5 147.5 L 72.5 147.5 L 72.5 146.5 C 72.5 145.95 72.05 145.5 71.5 145.5 C 70.95 145.5 70.5 145.95 70.5 146.5 L 70.5 147.5 L 68.5 147.5 L 68.5 146.5 C 68.5 145.95 68.05 145.5 67.5 145.5 C 66.95 145.5 66.5 145.95 66.5 146.5 L 66.5 147.5 L 64.5 147.5 L 64.5 146.5 C 64.5 145.95 64.05 145.5 63.5 145.5 C 62.95 145.5 62.5 145.95 62.5 146.5 L 62.5 147.5 L 60.5 147.5 L 60.5 143.5 C 60.5 142.95 60.05 142.5 59.5 142.5 C 58.95 142.5 58.5 142.95 58.5 143.5 L 58.5 147.5 L 56.5 147.5 L 56.5 146.5 C 56.5 145.95 56.05 145.5 55.5 145.5 C 54.95 145.5 54.5 145.95 54.5 146.5 L 54.5 147.5 L 52.5 147.5 L 52.5 146.5 C 52.5 145.95 52.05 145.5 51.5 145.5 C 50.95 145.5 50.5 145.95 50.5 146.5 L 50.5 147.5 L 48.5 147.5 L 48.5 146.5 C 48.5 145.95 48.05 145.5 47.5 145.5 C 46.95 145.5 46.5 145.95 46.5 146.5 L 46.5 147.5 L 44.5 147.5 L 44.5 146.5 C 44.5 145.95 44.05 145.5 43.5 145.5 C 42.95 145.5 42.5 145.95 42.5 146.5 L 42.5 147.5 L 40.5 147.5 L 40.5 146.5 C 40.5 145.95 40.05 145.5 39.5 145.5 C 38.95 145.5 38.5 145.95 38.5 146.5 L 38.5 147.5 L 36.5 147.5 L 36.5 143.5 C 36.5 142.95 36.05 142.5 35.5 142.5 C 34.95 142.5 34.5 142.95 34.5 143.5 L 34.5 147.5 L 20.5 147.5 C 20.23 147.5 20.1 147.34 20.04 147.13 C 20 146.9 20 146.7 20.27 146.57 A .5 .5 0 0 0 20.27 146.57 L 210.75 35 C 210.86 34.9 210.96 34.9 211.05 34.9 z M 183.24 81 A .5 .5 0 0 0 182.74 81 L 121.5 118.57 A .5 .5 0 0 0 121.74 119.5 L 183 119.5 A .5 .5 0 0 0 183.5 119 L 183.5 81.45 A .5 .5 0 0 0 183.24 81 z M 183 81.45 L 183 119 L 121.74 119 L 183 81.45 z " fill="currentColor" opacity=".6"/></g><use href="#uQP" opacity=".4"></use><use fill="url(#uQN)" href="#uQP" opacity=".2"></use><path d="M 108,64 C 96,64 96,72 80,72 H 28 c -6.65,0 -12,5.35 -12,12 v 128 c 0,6.65 5.35,12 12,12 h 200 c 6.65,0 12,-5.35 12,-12 V 104 84 76 c 0,-6.65 -5.35,-12 -12,-12 z" fill="url(#uQM)" opacity=".2"/><path class="ColorScheme-Contrast" d="m 16,211 v 1 c 0,6.65 5.35,12 12,12 h 200 c 6.65,0 12,-5.35 12,-12 v -1 c 0,6.65 -5.35,12 -12,12 H 28 c -6.65,0 -12,-5.35 -12,-12 z" fill="currentColor" opacity=".1"/><path class="ColorScheme-Contrast" d="m 16,211.5 v 0.5 c 0,6.65 5.35,12 12,12 h 200 c 6.65,0 12,-5.35 12,-12 v -0.5 c 0,6.65 -5.35,12 -12,12 H 28 c -6.65,0 -12,-5.35 -12,-12 z" fill="currentColor" opacity=".2"/><path d="M 108,64 C 96,64 96,72 80,72 H 28 c -6.65,0 -12,5.35 -12,12 v 1 c 0,-6.65 5.35,-12 12,-12 h 52 c 16,0 16,-8 28,-8 h 120 c 6.65,0 12,5.35 12,12 v -1 c 0,-6.65 -5.35,-12 -12,-12 z" fill="#fff" opacity=".1"/><path d="M 108,64 C 96,64 96,72 80,72 H 28 c -6.65,0 -12,5.35 -12,12 v 0.5 c 0,-6.65 5.35,-12 12,-12 h 52 c 16,0 16,-8 28,-8 h 120 c 6.65,0 12,5.35 12,12 V 76 c 0,-6.65 -5.35,-12 -12,-12 z" fill="#fff" opacity=".2"/><path d="M 108,63 C 96,63 96,71 80,71 H 28 v 1 h 52 c 16,0 16,-8 28,-8 h 120 v -1 z" opacity=".1"/><path d="m 108,63.5 c -12,0 -12,8 -28,8 H 28 V 72 h 52 c 16,0 16,-8 28,-8 h 120 v -0.5 z" opacity=".2"/></g>
</svg>