<svg height="256" version="1.1" width="256" xmlns="http://www.w3.org/2000/svg" xmlns:svg="http://www.w3.org/2000/svg" xmlns:xlink="http://www.w3.org/1999/xlink">
<defs id="primary-definitions">
<style id="current-color-scheme" type="text/css">
      .ColorScheme-Text           { color:#fff; }
      .ColorScheme-Background     { color:#111; }
      .ColorScheme-Highlight      { color:#3daefd; }
      .ColorScheme-ViewBackground { color:#000; }
      .ColorScheme-PositiveText   { color:#27ae60; }
      .ColorScheme-NeutralText    { color:#f67400; }
      .ColorScheme-NegativeText   { color:#da4453; }
    </style>
<style id="extended-color-scheme" type="text/css">
      .ExScheme-Black     { color:#3e3e3e; }
      .ExScheme-White     { color:#fcfcfc; }
      .ExScheme-Grey-1    { color:#cfd5d5; }
      .ExScheme-Grey-2    { color:#909c9c; }
      .ExScheme-Grey-3    { color:#536161; }
      .ExScheme-Red-1     { color:#ffafa5; }
      .ExScheme-Red-2     { color:#bf4231; }
      .ExScheme-Red-3     { color:#4d2f2b; }
      .ExScheme-Green-1   { color:#abf9c7; }
      .ExScheme-Green-2   { color:#3bb566; }
      .ExScheme-Green-3   { color:#377d50; }
      .ExScheme-Blue-1    { color:#abdaf9; }
      .ExScheme-Blue-2    { color:#3daefd; }
      .ExScheme-Blue-3    { color:#2b3c4d; }
      .ExScheme-Yellow-1  { color:#faffa5; }
      .ExScheme-Yellow-2  { color:#cac726; }
      .ExScheme-Yellow-3  { color:#4b4d2b; }
      .ExScheme-Orange-1  { color:#ffdaa5; }
      .ExScheme-Orange-2  { color:#ff9701; }
      .ExScheme-Orange-3  { color:#4d372b; }
      .ExScheme-Brown-1   { color:#e9d6bb; }
      .ExScheme-Brown-2   { color:#997657; }
      .ExScheme-Brown-3   { color:#433a35; }
      .ExScheme-Purple-1  { color:#e2abf9; }
      .ExScheme-Purple-2  { color:#b401ff; }
      .ExScheme-Purple-3  { color:#432b4d; }
      .ExScheme-Cyan-1    { color:#b2f2e6; }
      .ExScheme-Cyan-2    { color:#31bfa6; }
      .ExScheme-Cyan-3    { color:#2b4d47; }
      .ExScheme-Magenta-1 { color:#f8a6d8; }
      .ExScheme-Magenta-2 { color:#f00091; }
      .ExScheme-Magenta-3 { color:#770048; }
    </style>
<linearGradient id="uEx">
<stop offset="0"/>
<stop offset="1" stop-opacity="0"/>
</linearGradient>
<linearGradient id="uEy">
<stop offset="0" stop-color="#fff"/>
<stop offset="1" stop-color="#fff" stop-opacity="0"/>
</linearGradient>
<style class="toggle-enable-crease" type="text/css">
        .folder-crease { display: none; }
    </style><style class="toggle-manilla-folders" type="text/css">
        .folder-manilla { display: none; }
    </style><radialGradient cx=".5" cy="0" id="uEz" r="1" xlink:href="#uEy"/><linearGradient id="uEA" xlink:href="#uEx" y1="1" y2=".5"/><path d="m 40,32 c -6.65,0 -12,5.35 -12,12 v 28 c -6.65,0 -12,5.35 -12,12 v 128 c 0,6.65 5.35,12 12,12 h 200 c 6.65,0 12,-5.35 12,-12 V 104 84 76 c 0,-6.65 -5.35,-12 -12,-12 V 52 c 0,-6.65 -5.35,-12 -12,-12 H 112 C 96,40 96,32 84,32 Z" id="uEB"></path><path d="m 40,32 c -6.65,0 -12,5.35 -12,12 v 28 h 52 c 16,0 16,-8 28,-8 H 228 V 52 c 0,-6.65 -5.35,-12 -12,-12 H 112 C 96,40 96,32 84,32 Z" id="uEC"></path></defs>
<g id="content" transform="translate(0,0)"><use class="folder-manilla ExScheme-Brown-1" fill="currentColor" href="#uEB"></use><use class="toggle-manilla-folders ColorScheme-Highlight" fill="currentColor" href="#uEB" id="primary-color"></use><use class="ColorScheme-Text" fill="currentColor" href="#uEB" opacity=".1"></use><g id="emblem" transform="translate(64,84)"><path class="ColorScheme-Background" d="M 64 13 A 51 51 0 0 0 13 64 A 51 51 0 0 0 64 115 A 51 51 0 0 0 115 64 A 51 51 0 0 0 64 13 z M 66 14.05 A 50 50 0 0 1 113.95 62 A 2 2 0 0 0 112 64 A 2 2 0 0 0 113.86 65.96 A 50 50 0 0 1 66 113.86 A 2 2 0 0 0 64 112 A 2 2 0 0 0 62.04 113.86 A 50 50 0 0 1 14.14 65.96 A 2 2 0 0 0 16 64 A 2 2 0 0 0 14.14 62 A 50 50 0 0 1 62.04 14.14 A 2 2 0 0 0 64 16 A 2 2 0 0 0 66 14.05 z M 78.9 26.97 C 78.53 26.97 78.16 27.2 78 27.6 L 64.56 60.04 A 4 4 0 0 0 64 60 A 4 4 0 0 0 60 64 A 4 4 0 0 0 64 68 A 4 4 0 0 0 64.95 67.9 L 80.87 88.6 C 81.55 89.5 82.8 89.66 83.7 89 C 84.55 88.3 84.7 87.06 84.04 86.2 L 67.85 65.1 A 4 4 0 0 0 68 64 A 4 4 0 0 0 66.4 60.8 L 79.85 28.35 C 80.06 27.84 79.8 27.26 79.3 27.04 C 79.2 27 79.05 26.97 78.9 26.97 z " fill="currentColor" opacity=".6" stop-color="#000000"/><path class="ColorScheme-Background" d="M 64 13 A 51 51 0 0 0 13 64 A 51 51 0 0 0 64 115 A 51 51 0 0 0 115 64 A 51 51 0 0 0 64 13 z M 64 13.5 C 64.64 13.5 65.25 13.57 65.9 13.6 A .5 .5 0 0 0 65.5 14.04 C 65.47 14.85 64.8 15.5 64 15.5 C 63.2 15.5 62.6 14.9 62.54 14.1 A .5 .5 0 0 0 62 13.64 C 35.77 14.7 14.74 35.75 13.64 62 A .5 .5 0 0 0 14.1 62.5 C 14.9 62.57 15.5 63.2 15.5 64 C 15.5 64.8 14.9 65.4 14.1 65.46 A .5 .5 0 0 0 13.64 66 C 13.74 68.45 14 70.86 14.46 73.2 C 13.87 70.23 13.5 67.16 13.5 64 C 13.5 36.1 36.1 13.5 64 13.5 z M 66.6 13.63 C 68.04 13.7 69.45 13.84 70.84 14.03 C 69.45 13.84 68.04 13.7 66.6 13.63 z M 66 14.05 A 50 50 0 0 1 113.95 62 A 2 2 0 0 0 112 64 A 2 2 0 0 0 113.86 65.96 A 50 50 0 0 1 66 113.86 A 2 2 0 0 0 64 112 A 2 2 0 0 0 62.04 113.86 A 50 50 0 0 1 14.14 65.96 A 2 2 0 0 0 16 64 A 2 2 0 0 0 14.14 62 A 50 50 0 0 1 62.04 14.14 A 2 2 0 0 0 64 16 A 2 2 0 0 0 66 14.05 z M 78.9 26.97 C 78.53 26.97 78.16 27.2 78 27.6 L 64.56 60.04 A 4 4 0 0 0 64 60 A 4 4 0 0 0 60 64 A 4 4 0 0 0 64 68 A 4 4 0 0 0 64.95 67.9 L 80.87 88.6 C 81.55 89.5 82.8 89.66 83.7 89 C 84.55 88.3 84.7 87.06 84.04 86.2 L 67.85 65.1 A 4 4 0 0 0 68 64 A 4 4 0 0 0 66.4 60.8 L 79.85 28.35 C 80.06 27.84 79.8 27.26 79.3 27.04 C 79.2 27 79.05 26.97 78.9 26.97 z M 78.9 27.47 C 79 27.47 79.05 27.5 79.1 27.5 C 79.4 27.6 79.5 27.9 79.4 28.16 L 65.94 60.6 A .5 .5 0 0 0 66.1 61.2 C 67 61.86 67.5 62.9 67.5 64 C 67.5 64.3 67.45 64.64 67.37 64.94 A .5 .5 0 0 0 67.45 65.4 L 83.65 86.5 C 84.16 87.16 84.04 88.1 83.37 88.6 C 82.7 89.1 81.8 89 81.27 88.3 L 65.35 67.57 A .5 .5 0 0 0 64.83 67.4 C 64.56 67.46 64.3 67.5 64 67.5 C 62.06 67.5 60.5 65.94 60.5 64 C 60.5 62.06 62.06 60.5 64 60.5 C 64.16 60.5 64.33 60.5 64.5 60.53 A .5 .5 0 0 0 65 60.23 L 78.46 27.8 C 78.54 27.6 78.73 27.47 78.9 27.47 z M 113.97 57.16 C 114.16 58.55 114.3 59.96 114.37 61.4 C 114.3 59.96 114.16 58.55 113.97 57.16 z M 114.4 62.2 C 114.43 62.8 114.5 63.4 114.5 64 C 114.5 91.9 91.9 114.5 64 114.5 C 60.84 114.5 57.77 114.13 54.8 113.54 C 57.14 114 59.55 114.26 62 114.36 A .5 .5 0 0 0 62.54 113.9 C 62.6 113.1 63.2 112.5 64 112.5 C 64.8 112.5 65.43 113.1 65.5 113.9 A .5 .5 0 0 0 66 114.36 C 92.25 113.26 113.3 92.23 114.36 66 A .5 .5 0 0 0 113.9 65.46 C 113.1 65.4 112.5 64.8 112.5 64 C 112.5 63.2 113.15 62.53 113.96 62.5 A .5 .5 0 0 0 114.4 62.2 z M 14.95 75.55 C 19.33 94.1 33.9 108.67 52.45 113.05 C 33.87 108.7 19.3 94.13 14.95 75.55 z " fill="currentColor" opacity=".6"/></g><use href="#uEC" opacity=".4"></use><use class="toggle-flat-design" fill="url(#uEA)" href="#uEC" opacity=".2"></use><path class="toggle-flat-design" d="M 108,64 C 96,64 96,72 80,72 H 28 c -6.65,0 -12,5.35 -12,12 v 128 c 0,6.65 5.35,12 12,12 h 200 c 6.65,0 12,-5.35 12,-12 V 104 84 76 c 0,-6.65 -5.35,-12 -12,-12 z" fill="url(#uEz)" opacity=".2"/><path class="folder-crease " d="m 16,176 v 8 h 36 c 2.2,0 4,-1.8 4,-4 0,-2.2 -1.8,-4 -4,-4 z m 188,0 c -2.2,0 -4,1.8 -4,4 0,2.2 1.8,4 4,4 h 36 v -8 z" opacity=".4"/><path class="ColorScheme-Text" d="m 16,211 v 1 c 0,6.65 5.35,12 12,12 h 200 c 6.65,0 12,-5.35 12,-12 v -1 c 0,6.65 -5.35,12 -12,12 H 28 c -6.65,0 -12,-5.35 -12,-12 z" fill="currentColor" opacity=".1"/><path class="ColorScheme-Text" d="m 16,211.5 v 0.5 c 0,6.65 5.35,12 12,12 h 200 c 6.65,0 12,-5.35 12,-12 v -0.5 c 0,6.65 -5.35,12 -12,12 H 28 c -6.65,0 -12,-5.35 -12,-12 z" fill="currentColor" opacity=".2"/><path d="M 108,64 C 96,64 96,72 80,72 H 28 c -6.65,0 -12,5.35 -12,12 v 1 c 0,-6.65 5.35,-12 12,-12 h 52 c 16,0 16,-8 28,-8 h 120 c 6.65,0 12,5.35 12,12 v -1 c 0,-6.65 -5.35,-12 -12,-12 z" fill="#fff" opacity=".1"/><path d="M 108,64 C 96,64 96,72 80,72 H 28 c -6.65,0 -12,5.35 -12,12 v 0.5 c 0,-6.65 5.35,-12 12,-12 h 52 c 16,0 16,-8 28,-8 h 120 c 6.65,0 12,5.35 12,12 V 76 c 0,-6.65 -5.35,-12 -12,-12 z" fill="#fff" opacity=".2"/><path d="M 108,63 C 96,63 96,71 80,71 H 28 v 1 h 52 c 16,0 16,-8 28,-8 h 120 v -1 z" opacity=".1"/><path d="m 108,63.5 c -12,0 -12,8 -28,8 H 28 V 72 h 52 c 16,0 16,-8 28,-8 h 120 v -0.5 z" opacity=".2"/></g>
</svg>