<svg height="256" version="1.1" width="256" xmlns="http://www.w3.org/2000/svg" xmlns:svg="http://www.w3.org/2000/svg" xmlns:xlink="http://www.w3.org/1999/xlink">
<defs id="primary-definitions">
<style id="current-color-scheme" type="text/css">
      .ColorScheme-Text         { color: #232629; }
      .ColorScheme-Background   { color: #eff0f1; }
      .ColorScheme-Highlight    { color: #7ec9f0; }
      .ColorScheme-PositiveText { color: #27ae60; }
      .ColorScheme-NeutralText  { color: #f67400; }
      .ColorScheme-NegativeText { color: #da4453; }
      .ColorScheme-ActiveText   { color: #3daee9; }
      .ColorScheme-Complement   { color: #ffffff; }
      .ColorScheme-Contrast     { color: #000000; }
    </style>
<style id="extended-color-scheme" type="text/css">
      .ExScheme-Black     { color:#3e3e3e; }
      .ExScheme-White     { color:#fcfcfc; }
      .ExScheme-Grey-1    { color:#cfd5d5; }
      .ExScheme-Grey-2    { color:#909c9c; }
      .ExScheme-Grey-3    { color:#536161; }
      .ExScheme-Red-1     { color:#ffafa5; }
      .ExScheme-Red-2     { color:#bf4231; }
      .ExScheme-Red-3     { color:#4d2f2b; }
      .ExScheme-Green-1   { color:#abf9c7; }
      .ExScheme-Green-2   { color:#3bb566; }
      .ExScheme-Green-3   { color:#377d50; }
      .ExScheme-Blue-1    { color:#abdaf9; }
      .ExScheme-Blue-2    { color:#3daefd; }
      .ExScheme-Blue-3    { color:#2b3c4d; }
      .ExScheme-Yellow-1  { color:#faffa5; }
      .ExScheme-Yellow-2  { color:#cac726; }
      .ExScheme-Yellow-3  { color:#4b4d2b; }
      .ExScheme-Orange-1  { color:#ffdaa5; }
      .ExScheme-Orange-2  { color:#ff9701; }
      .ExScheme-Orange-3  { color:#4d372b; }
      .ExScheme-Brown-1   { color:#e9d6bb; }
      .ExScheme-Brown-2   { color:#997657; }
      .ExScheme-Brown-3   { color:#433a35; }
      .ExScheme-Purple-1  { color:#e2abf9; }
      .ExScheme-Purple-2  { color:#b401ff; }
      .ExScheme-Purple-3  { color:#432b4d; }
      .ExScheme-Cyan-1    { color:#b2f2e6; }
      .ExScheme-Cyan-2    { color:#31bfa6; }
      .ExScheme-Cyan-3    { color:#2b4d47; }
      .ExScheme-Magenta-1 { color:#f8a6d8; }
      .ExScheme-Magenta-2 { color:#f00091; }
      .ExScheme-Magenta-3 { color:#770048; }
    </style>
<linearGradient id="uJP">
<stop offset="0"/>
<stop offset="1" stop-opacity="0"/>
</linearGradient>
<linearGradient id="uJQ">
<stop offset="0" stop-color="#fff"/>
<stop offset="1" stop-color="#fff" stop-opacity="0"/>
</linearGradient>
<style id="uJR" type="text/css">
        .force-display-for-editing { display: inline !important; }
    </style><style class="remove-if__show-crease" type="text/css">
        .enable-if__show-crease { display: none; }
    </style><style class="remove-if__color-sync-mimes-places" type="text/css">
        .enable-if__color-sync-mimes-places { display: none; }
    </style><radialGradient cx=".5" cy="0" id="uJS" r="1" xlink:href="#uJQ"/><linearGradient id="uJT" xlink:href="#uJP" y1="1" y2=".5"/><style class="ColorScheme-Background" fill="currentColor" opacity=".6" type="text/css">
   .ColorScheme-Text           { color:#eff0f1; }
      .ColorScheme-Background     { color:#31363b; }
      .ColorScheme-Highlight      { color:#3daefd; }
      .ColorScheme-ViewBackground { color:#fcfcfc; }
      .ColorScheme-PositiveText   { color:#27ae60; }
      .ColorScheme-NeutralText    { color:#f67400; }
      .ColorScheme-NegativeText   { color:#da4453; }
  </style><path d="m 40,32 c -6.65,0 -12,5.35 -12,12 v 28 c -6.65,0 -12,5.35 -12,12 v 128 c 0,6.65 5.35,12 12,12 h 200 c 6.65,0 12,-5.35 12,-12 V 104 84 76 c 0,-6.65 -5.35,-12 -12,-12 V 52 c 0,-6.65 -5.35,-12 -12,-12 H 112 C 96,40 96,32 84,32 Z" id="uJU"></path><path d="m 40,32 c -6.65,0 -12,5.35 -12,12 v 28 h 52 c 16,0 16,-8 28,-8 H 228 V 52 c 0,-6.65 -5.35,-12 -12,-12 H 112 C 96,40 96,32 84,32 Z" id="uJV"></path></defs>
<g id="content" transform="translate(0,0)"><use class="sync-color enable-if__color-sync-mimes-places force-display-for-editing ColorScheme-ActiveText" fill="currentColor" href="#uJU"></use><use class="primary-color remove-if__color-sync-mimes-places ColorScheme-ActiveText" fill="#d81b1e" href="#uJU"></use><use class="ColorScheme-Contrast" fill="currentColor" href="#uJU" opacity=".1"></use><g id="decal" transform="translate(64,84)"><path class="ColorScheme-Background" d="M 64 26.93 C 52.8 26.93 41.9 30.47 32.85 37.04 C 14.27 50.54 6.5 74.47 13.6 96.3 A 1 1 0 0 0 14.85 96.95 L 28.04 92.66 A 1 1 0 0 0 28.7 91.4 C 27.5 87.8 26.87 83.93 26.87 79.93 C 26.87 69.56 29.44 58.5 35.35 50.07 C 41.26 41.66 50.4 35.86 64 35.86 C 75.2 35.86 83.35 39.8 89.2 45.9 A 1 1 0 0 0 90.7 45.8 L 96.1 39.06 A 1 1 0 0 0 95.93 37.64 C 95.7 37.45 95.43 37.25 95.15 37.04 C 86.1 30.47 75.2 26.93 64 26.93 z M 64 27.93 C 75 27.93 85.67 31.4 94.56 37.85 C 94.8 38.05 95.07 38.24 95.33 38.44 L 89.9 45.2 C 83.9 38.94 75.4 34.86 64 34.86 C 50.14 34.86 40.6 40.87 34.53 49.5 C 28.46 58.13 25.87 69.4 25.87 79.93 C 25.87 84.04 26.53 88 27.73 91.7 L 14.54 96 C 7.6 74.57 15.2 51.1 33.44 37.85 C 42.3 31.4 53 27.93 64 27.93 z M 97.6 39.3 A 1 1 0 0 0 96.9 39.7 L 91.15 46.86 A 1 1 0 0 0 91.16 48.1 C 98.1 56.7 101.13 68.73 101.13 79.93 C 101.13 80.93 101.1 81.93 101 82.9 L 109.86 84.1 C 110.94 84.23 111.73 85.25 111.6 86.33 C 111.44 87.4 110.4 88.2 109.34 88.05 L 100.46 86.9 C 100.17 88.4 99.8 89.93 99.3 91.4 A 1 1 0 0 0 99.95 92.66 L 113.14 96.95 A 1 1 0 0 0 114.4 96.3 C 121.1 75.76 114.6 53.36 98.3 39.55 A 1 1 0 0 0 97.6 39.3 z M 64 77 A 3 3 0 0 0 61 80 A 3 3 0 0 0 64 83 A 3 3 0 0 0 66.63 81.4 L 109.47 87.06 C 110 87.13 110.5 86.75 110.6 86.2 C 110.67 85.65 110.3 85.15 109.73 85.1 L 66.95 79.45 A 3 3 0 0 0 64 77 z " fill="currentColor" opacity=".6" stop-color="#000000"/><path class="ColorScheme-Background" d="M 64,26.93 C 52.8,26.93 41.9,30.47 32.85,37.04 14.27,50.54 6.5,74.47 13.6,96.3 c .17,.53 .73,.8 1.26,.64 l 13.2,-4.3 c .53,-.17 .8,-.73 .64,-1.26 -1.17,-3.6 -1.8,-7.47 -1.8,-11.47 0,-10.37 2.6,-21.45 8.5,-29.86 5.9,-8.4 15.07,-14.2 28.65,-14.2 11.2,0 19.35,3.95 25.2,10.03 .4,.44 1.1,.4 1.5,-.07 L 96.1,39.06 c .35,-.44 .27,-1.1 -.2,-1.4 -.25,-.2 -.5,-.4 -.8,-.6 C 86.1,30.47 75.2,26.93 64,26.93 Z m 0,1 c 11,-0 21.7,3.47 30.56,9.9 .27,.2 .5,.4 .77,.6 l -5.4,6.76 C 83.9,38.94 75.4,34.86 64,34.86 c -13.86,0 -23.4,6 -29.47,14.63 -6.07,8.64 -8.67,20 -8.67,30.43 0,4.1 .66,8.07 1.87,11.8 L 14.54,96 C 7.6,74.57 15.2,51.1 33.44,37.85 42.3,31.4 53,27.93 64,27.93 Z M 97.6,39.3 c -.27,.03 -.5,.16 -.7,.37 l -5.74,7.2 c -.3,.37 -.3,.9 0,1.25 6.96,8.6 9.97,20.6 9.97,31.8 0,1 -.04,2 -.1,3 l 8.86,1.17 c 1.1,.14 1.86,1.16 1.7,2.24 -.14,1.1 -1.16,1.87 -2.24,1.7 l -8.9,-1.17 c -.3,1.54 -.7,3.05 -1.16,4.5 -.17,.53 .1,1.1 .64,1.26 l 13.2,4.3 c .53,.17 1.1,-.1 1.26,-.64 6.7,-20.55 .2,-42.94 -16.1,-56.76 -.2,-.2 -.47,-.26 -.74,-.23 z m .05,.5 c .13,-0 .27,.03 .37,.1 16.1,13.7 22.55,35.87 15.93,56.23 -6.5e-4,-10e-7 -0,-10e-7 -0,0 -.1,.27 -.36,.4 -.63,.3 v 0 l -13.2,-4.3 c -.27,-.1 -.4,-.36 -.3,-.63 h -0 c .43,-1.34 .77,-2.7 1.05,-4.1 l 8.44,1.1 c 1.36,.2 2.63,-.8 2.8,-2.15 .2,-1.36 -.8,-2.63 -2.15,-2.8 l -8.4,-1.1 c .06,-.85 .1,-1.7 .1,-2.56 0,-11.3 -3.03,-23.4 -10.1,-32.13 -.15,-.2 -.15,-.44 -0,-.63 l 5.74,-7.2 c .1,-.1 .2,-.17 .34,-.2 z M 64,77 c -1.66,1.7e-5 -3,1.34 -3,3 1.7e-5,1.66 1.34,3 3,3 1.1,-0 2.1,-.6 2.63,-1.6 l 42.84,5.64 c .55,.07 1.05,-.3 1.1,-.86 .07,-.55 -.3,-1.05 -.86,-1.1 L 66.95,79.45 C 66.7,78.03 65.44,77 64,77 Z m 0,0.5 c 1.2,4.15e-4 2.23,.85 2.46,2.04 .04,.2 .2,.4 .43,.4 l 42.8,5.63 c .3,.04 .47,.3 .43,.56 -.04,.3 -.3,.47 -.56,.43 L 66.7,80.93 c -.2,-.03 -.4,.1 -.5,.26 C 65.76,82 64.9,82.5 64,82.5 c -1.4,-1.4e-5 -2.5,-1.1 -2.5,-2.5 1.4e-5,-1.4 1.1,-2.5 2.5,-2.5 z" fill="currentColor" opacity=".6"/></g><use href="#uJV" opacity=".4"></use><use fill="url(#uJT)" href="#uJV" opacity=".2"></use><path d="M 108,64 C 96,64 96,72 80,72 H 28 c -6.65,0 -12,5.35 -12,12 v 128 c 0,6.65 5.35,12 12,12 h 200 c 6.65,0 12,-5.35 12,-12 V 104 84 76 c 0,-6.65 -5.35,-12 -12,-12 z" fill="url(#uJS)" opacity=".2"/><path class="ColorScheme-Contrast" d="m 16,211 v 1 c 0,6.65 5.35,12 12,12 h 200 c 6.65,0 12,-5.35 12,-12 v -1 c 0,6.65 -5.35,12 -12,12 H 28 c -6.65,0 -12,-5.35 -12,-12 z" fill="currentColor" opacity=".1"/><path class="ColorScheme-Contrast" d="m 16,211.5 v 0.5 c 0,6.65 5.35,12 12,12 h 200 c 6.65,0 12,-5.35 12,-12 v -0.5 c 0,6.65 -5.35,12 -12,12 H 28 c -6.65,0 -12,-5.35 -12,-12 z" fill="currentColor" opacity=".2"/><path d="M 108,64 C 96,64 96,72 80,72 H 28 c -6.65,0 -12,5.35 -12,12 v 1 c 0,-6.65 5.35,-12 12,-12 h 52 c 16,0 16,-8 28,-8 h 120 c 6.65,0 12,5.35 12,12 v -1 c 0,-6.65 -5.35,-12 -12,-12 z" fill="#fff" opacity=".1"/><path d="M 108,64 C 96,64 96,72 80,72 H 28 c -6.65,0 -12,5.35 -12,12 v 0.5 c 0,-6.65 5.35,-12 12,-12 h 52 c 16,0 16,-8 28,-8 h 120 c 6.65,0 12,5.35 12,12 V 76 c 0,-6.65 -5.35,-12 -12,-12 z" fill="#fff" opacity=".2"/><path d="M 108,63 C 96,63 96,71 80,71 H 28 v 1 h 52 c 16,0 16,-8 28,-8 h 120 v -1 z" opacity=".1"/><path d="m 108,63.5 c -12,0 -12,8 -28,8 H 28 V 72 h 52 c 16,0 16,-8 28,-8 h 120 v -0.5 z" opacity=".2"/></g>
</svg>