<svg height="256" version="1.1" width="256" xmlns="http://www.w3.org/2000/svg" xmlns:svg="http://www.w3.org/2000/svg" xmlns:xlink="http://www.w3.org/1999/xlink">
<defs id="primary-definitions">
<style id="current-color-scheme" type="text/css">
      .ColorScheme-Text           { color:#fff; }
      .ColorScheme-Background     { color:#111; }
      .ColorScheme-Highlight      { color:#3daefd; }
      .ColorScheme-ViewBackground { color:#000; }
      .ColorScheme-PositiveText   { color:#27ae60; }
      .ColorScheme-NeutralText    { color:#f67400; }
      .ColorScheme-NegativeText   { color:#da4453; }
    </style>
<style id="extended-color-scheme" type="text/css">
      .ExScheme-Black     { color:#3e3e3e; }
      .ExScheme-White     { color:#fcfcfc; }
      .ExScheme-Grey-1    { color:#cfd5d5; }
      .ExScheme-Grey-2    { color:#909c9c; }
      .ExScheme-Grey-3    { color:#536161; }
      .ExScheme-Red-1     { color:#ffafa5; }
      .ExScheme-Red-2     { color:#bf4231; }
      .ExScheme-Red-3     { color:#4d2f2b; }
      .ExScheme-Green-1   { color:#abf9c7; }
      .ExScheme-Green-2   { color:#3bb566; }
      .ExScheme-Green-3   { color:#377d50; }
      .ExScheme-Blue-1    { color:#abdaf9; }
      .ExScheme-Blue-2    { color:#3daefd; }
      .ExScheme-Blue-3    { color:#2b3c4d; }
      .ExScheme-Yellow-1  { color:#faffa5; }
      .ExScheme-Yellow-2  { color:#cac726; }
      .ExScheme-Yellow-3  { color:#4b4d2b; }
      .ExScheme-Orange-1  { color:#ffdaa5; }
      .ExScheme-Orange-2  { color:#ff9701; }
      .ExScheme-Orange-3  { color:#4d372b; }
      .ExScheme-Brown-1   { color:#e9d6bb; }
      .ExScheme-Brown-2   { color:#997657; }
      .ExScheme-Brown-3   { color:#433a35; }
      .ExScheme-Purple-1  { color:#e2abf9; }
      .ExScheme-Purple-2  { color:#b401ff; }
      .ExScheme-Purple-3  { color:#432b4d; }
      .ExScheme-Cyan-1    { color:#b2f2e6; }
      .ExScheme-Cyan-2    { color:#31bfa6; }
      .ExScheme-Cyan-3    { color:#2b4d47; }
      .ExScheme-Magenta-1 { color:#f8a6d8; }
      .ExScheme-Magenta-2 { color:#f00091; }
      .ExScheme-Magenta-3 { color:#770048; }
    </style>
<linearGradient id="umN">
<stop offset="0"/>
<stop offset="1" stop-opacity="0"/>
</linearGradient>
<linearGradient id="umO">
<stop offset="0" stop-color="#fff"/>
<stop offset="1" stop-color="#fff" stop-opacity="0"/>
</linearGradient>
<style class="toggle-enable-crease" type="text/css">
        .folder-crease { display: none; }
    </style><style class="toggle-manilla-folders" type="text/css">
        .folder-manilla { display: none; }
    </style><radialGradient cx=".5" cy="0" id="umP" r="1" xlink:href="#umO"/><linearGradient id="umQ" xlink:href="#umN" y1="1" y2=".5"/><path d="m 40,32 c -6.65,0 -12,5.35 -12,12 v 28 c -6.65,0 -12,5.35 -12,12 v 128 c 0,6.65 5.35,12 12,12 h 200 c 6.65,0 12,-5.35 12,-12 V 104 84 76 c 0,-6.65 -5.35,-12 -12,-12 V 52 c 0,-6.65 -5.35,-12 -12,-12 H 112 C 96,40 96,32 84,32 Z" id="umR"></path><path d="m 40,32 c -6.65,0 -12,5.35 -12,12 v 28 h 52 c 16,0 16,-8 28,-8 H 228 V 52 c 0,-6.65 -5.35,-12 -12,-12 H 112 C 96,40 96,32 84,32 Z" id="umS"></path></defs>
<g id="content" transform="translate(0,0)"><use class="folder-manilla ExScheme-Brown-1" fill="currentColor" href="#umR"></use><use class="toggle-manilla-folders ColorScheme-Highlight" fill="currentColor" href="#umR" id="primary-color"></use><use class="ColorScheme-Text" fill="currentColor" href="#umR" opacity=".1"></use><g id="panorama" transform="translate(16,64)"><path class="ColorScheme-Background" d="M 76 60 C 68 60 44 64 36 72 C 24.45 97.4 16 128 16 148 C 16 152.74 16.1 156.67 16.57 160 L 50.3 160 L 64 148 C 64 148 68 144 72 144 L 152 144 C 156 144 160 148 160 148 L 173.7 160 L 207.43 160 C 207.9 156.67 208 152.74 208 148 C 208 128 199.55 97.4 188 72 C 180 64 156 60 148 60 C 144 60 144 64 144 64 L 140 92 C 140 92 140 96 136 96 L 88 96 C 84 96 84 92 84 92 L 80 64 C 80 64 80 60 76 60 z M 107.7 60 C 98.23 60.03 87.54 60.25 80.5 61.9 C 81 63 81 64 81 64 L 81 63.86 L 85 91.93 L 85 92 C 85 92 85 92.8 85.4 93.55 C 85.8 94.3 86.33 95 88 95 L 136 95 C 137.67 95 138.2 94.3 138.6 93.55 C 139 92.8 139 92 139 92 L 139 91.93 L 143 63.86 L 143 64 C 143 64 143 63 143.5 61.9 C 135.5 60 123.75 60 112 60 C 110.5 60 109.06 60 107.7 60 z M 72 68 C 74.2 68 76 69.8 76 72 C 76 74.2 74.2 76 72 76 C 69.8 76 68 74.2 68 72 C 68 69.8 69.8 68 72 68 z M 152 68 C 154.2 68 156 69.8 156 72 C 156 74.2 154.2 76 152 76 C 149.8 76 148 74.2 148 72 C 148 69.8 149.8 68 152 68 z M 168 74 C 171.3 74 174 76.7 174 80 C 174 83.3 171.3 86 168 86 C 164.7 86 162 83.3 162 80 C 162 76.7 164.7 74 168 74 z M 56 76 C 64.84 76 72 83.17 72 92 C 72 100.84 64.84 108 56 108 C 47.16 108 40 100.84 40 92 C 40 83.17 47.16 76 56 76 z M 56 84 C 51.6 84 48 87.6 48 92 C 48 96.4 51.6 100 56 100 C 60.4 100 64 96.4 64 92 C 64 87.6 60.4 84 56 84 z M 156 86 C 159.3 86 162 88.7 162 92 C 162 95.3 159.3 98 156 98 C 152.7 98 150 95.3 150 92 C 150 88.7 152.7 86 156 86 z M 180 86 C 183.3 86 186 88.7 186 92 C 186 95.3 183.3 98 180 98 C 176.7 98 174 95.3 174 92 C 174 88.7 176.7 86 180 86 z M 168 98 C 171.3 98 174 100.7 174 104 C 174 107.3 171.3 110 168 110 C 164.7 110 162 107.3 162 104 C 162 100.7 164.7 98 168 98 z M 136 104 C 144.84 104 152 111.17 152 120 C 152 128.84 144.84 136 136 136 C 127.16 136 120 128.84 120 120 C 120 111.17 127.16 104 136 104 z M 86 107 L 90 107 C 91.1 107 92 107.9 92 109 L 92 116 L 99 116 C 100.1 116 101 116.9 101 118 L 101 122 C 101 123.1 100.1 124 99 124 L 92 124 L 92 131 C 92 132.1 91.1 133 90 133 L 86 133 C 84.9 133 84 132.1 84 131 L 84 124 L 77 124 C 75.9 124 75 123.1 75 122 L 75 118 C 75 116.9 75.9 116 77 116 L 84 116 L 84 109 C 84 107.9 84.9 107 86 107 z M 136 112 C 131.6 112 128 115.6 128 120 C 128 124.4 131.6 128 136 128 C 140.4 128 144 124.4 144 120 C 144 115.6 140.4 112 136 112 z " fill="currentColor" opacity=".6"/><path class="ColorScheme-Background" d="M 86 108 C 85.45 108 85 108.45 85 109 L 85 117 L 77 117 C 76.45 117 76 117.45 76 118 L 76 122 C 76 122.55 76.45 123 77 123 L 85 123 L 85 131 C 85 131.55 85.45 132 86 132 L 90 132 C 90.55 132 91 131.55 91 131 L 91 123 L 99 123 C 99.55 123 100 122.55 100 122 L 100 118 C 100 117.45 99.55 117 99 117 L 91 117 L 91 109 C 91 108.45 90.55 108 90 108 L 86 108 z " fill="currentColor" opacity=".6" stop-color="#000000"/><path class="ColorScheme-Background" d="M 76 60 C 68 60 44 64 36 72 C 24.45 97.4 16 128 16 148 C 16 152.74 16.1 156.67 16.57 160 L 50.3 160 L 64 148 C 64 148 68 144 72 144 L 152 144 C 156 144 160 148 160 148 L 173.7 160 L 207.43 160 C 207.9 156.67 208 152.74 208 148 C 208 128 199.55 97.4 188 72 C 180 64 156 60 148 60 C 144 60 144 64 144 64 L 140 92 C 140 92 140 96 136 96 L 88 96 C 84 96 84 92 84 92 L 80 64 C 80 64 80 60 76 60 z M 107.7 60 C 98.23 60.03 87.54 60.25 80.5 61.9 C 81 63 81 64 81 64 L 81 63.86 L 85 91.93 L 85 92 C 85 92 85 92.8 85.4 93.55 C 85.8 94.3 86.33 95 88 95 L 136 95 C 137.67 95 138.2 94.3 138.6 93.55 C 139 92.8 139 92 139 92 L 139 91.93 L 143 63.86 L 143 64 C 143 64 143 63 143.5 61.9 C 135.5 60 123.75 60 112 60 C 110.5 60 109.06 60 107.7 60 z M 76 60.5 C 77.83 60.5 78.6 61.34 79.05 62.2 C 79.5 63.1 79.5 64 79.5 64 L 79.5 64.04 L 83.5 92.07 C 83.5 92.2 83.5 93.16 84.05 94.2 C 84.6 95.34 85.83 96.5 88 96.5 L 136 96.5 C 138.17 96.5 139.4 95.34 139.95 94.2 C 140.5 93.16 140.5 92.2 140.5 92.07 L 144.5 64.04 L 144.5 64 C 144.5 64 144.5 63.1 144.95 62.2 C 145.4 61.34 146.17 60.5 148 60.5 C 151.9 60.5 159.9 61.5 167.9 63.5 C 175.8 65.47 183.7 68.5 187.6 72.3 C 199.1 97.65 207.5 128.17 207.5 148 C 207.5 152.56 207.4 156.3 206.95 159.5 L 173.9 159.5 L 160.33 147.6 L 160.35 147.65 C 160.35 147.65 159.3 146.6 157.8 145.6 C 156.23 144.56 154.17 143.5 152 143.5 L 72 143.5 C 69.83 143.5 67.77 144.56 66.2 145.6 C 64.7 146.6 63.65 147.65 63.65 147.65 L 63.67 147.6 L 50.1 159.5 L 17.05 159.5 C 16.6 156.3 16.5 152.56 16.5 148 C 16.5 128.17 24.9 97.65 36.4 72.3 C 40.3 68.5 48.2 65.47 56.1 63.5 C 64.1 61.5 72.1 60.5 76 60.5 z M 107.67 60.5 C 107.67 60.5 107.7 60.5 107.7 60.5 C 109.06 60.5 110.5 60.5 112 60.5 C 123.53 60.5 135 60.54 142.9 62.3 C 142.8 63 142.55 63.67 142.54 63.8 L 142.5 63.8 L 142.5 63.8 L 138.5 91.9 L 138.5 92 C 138.5 92 138.5 92.7 138.16 93.33 C 138 93.7 137.8 93.95 137.5 94.15 C 137.2 94.35 136.76 94.5 136 94.5 L 88 94.5 C 87.24 94.5 86.8 94.35 86.5 94.15 C 86.2 93.95 86 93.7 85.84 93.33 C 85.5 92.7 85.5 92 85.5 92 L 85.5 91.9 L 81.5 63.8 L 81.46 63.8 C 81.45 63.67 81.3 63 81.1 62.3 C 88.04 60.77 98.43 60.53 107.67 60.5 z M 72 67.5 C 69.5 67.5 67.5 69.5 67.5 72 C 67.5 74.5 69.5 76.5 72 76.5 C 74.5 76.5 76.5 74.5 76.5 72 C 76.5 69.5 74.5 67.5 72 67.5 z M 152 67.5 C 149.5 67.5 147.5 69.5 147.5 72 C 147.5 74.5 149.5 76.5 152 76.5 C 154.5 76.5 156.5 74.5 156.5 72 C 156.5 69.5 154.5 67.5 152 67.5 z M 72 68 C 74.2 68 76 69.8 76 72 C 76 74.2 74.2 76 72 76 C 69.8 76 68 74.2 68 72 C 68 69.8 69.8 68 72 68 z M 152 68 C 154.2 68 156 69.8 156 72 C 156 74.2 154.2 76 152 76 C 149.8 76 148 74.2 148 72 C 148 69.8 149.8 68 152 68 z M 168 73.5 C 164.4 73.5 161.5 76.4 161.5 80 C 161.5 83.6 164.4 86.5 168 86.5 C 171.6 86.5 174.5 83.6 174.5 80 C 174.5 76.4 171.6 73.5 168 73.5 z M 168 74 C 171.3 74 174 76.7 174 80 C 174 83.3 171.3 86 168 86 C 164.7 86 162 83.3 162 80 C 162 76.7 164.7 74 168 74 z M 56 75.5 C 46.9 75.5 39.5 82.9 39.5 92 C 39.5 101.1 46.9 108.5 56 108.5 C 65.1 108.5 72.5 101.1 72.5 92 C 72.5 82.9 65.1 75.5 56 75.5 z M 56 76 C 64.84 76 72 83.17 72 92 C 72 100.84 64.84 108 56 108 C 47.16 108 40 100.84 40 92 C 40 83.17 47.16 76 56 76 z M 56 84 C 51.6 84 48 87.6 48 92 C 48 96.4 51.6 100 56 100 C 60.4 100 64 96.4 64 92 C 64 87.6 60.4 84 56 84 z M 56 84.5 C 60.15 84.5 63.5 87.85 63.5 92 C 63.5 96.15 60.15 99.5 56 99.5 C 51.85 99.5 48.5 96.15 48.5 92 C 48.5 87.85 51.85 84.5 56 84.5 z M 156 85.5 C 152.4 85.5 149.5 88.4 149.5 92 C 149.5 95.6 152.4 98.5 156 98.5 C 159.6 98.5 162.5 95.6 162.5 92 C 162.5 88.4 159.6 85.5 156 85.5 z M 180 85.5 C 176.4 85.5 173.5 88.4 173.5 92 C 173.5 95.6 176.4 98.5 180 98.5 C 183.6 98.5 186.5 95.6 186.5 92 C 186.5 88.4 183.6 85.5 180 85.5 z M 156 86 C 159.3 86 162 88.7 162 92 C 162 95.3 159.3 98 156 98 C 152.7 98 150 95.3 150 92 C 150 88.7 152.7 86 156 86 z M 180 86 C 183.3 86 186 88.7 186 92 C 186 95.3 183.3 98 180 98 C 176.7 98 174 95.3 174 92 C 174 88.7 176.7 86 180 86 z M 168 97.5 C 164.4 97.5 161.5 100.4 161.5 104 C 161.5 107.6 164.4 110.5 168 110.5 C 171.6 110.5 174.5 107.6 174.5 104 C 174.5 100.4 171.6 97.5 168 97.5 z M 168 98 C 171.3 98 174 100.7 174 104 C 174 107.3 171.3 110 168 110 C 164.7 110 162 107.3 162 104 C 162 100.7 164.7 98 168 98 z M 136 103.5 C 126.9 103.5 119.5 110.9 119.5 120 C 119.5 129.1 126.9 136.5 136 136.5 C 145.1 136.5 152.5 129.1 152.5 120 C 152.5 110.9 145.1 103.5 136 103.5 z M 136 104 C 144.84 104 152 111.17 152 120 C 152 128.84 144.84 136 136 136 C 127.16 136 120 128.84 120 120 C 120 111.17 127.16 104 136 104 z M 86 106.5 C 84.6 106.5 83.5 107.6 83.5 109 L 83.5 115.5 L 77 115.5 C 75.6 115.5 74.5 116.6 74.5 118 L 74.5 122 C 74.5 123.4 75.6 124.5 77 124.5 L 83.5 124.5 L 83.5 131 C 83.5 132.4 84.6 133.5 86 133.5 L 90 133.5 C 91.4 133.5 92.5 132.4 92.5 131 L 92.5 124.5 L 99 124.5 C 100.4 124.5 101.5 123.4 101.5 122 L 101.5 118 C 101.5 116.6 100.4 115.5 99 115.5 L 92.5 115.5 L 92.5 109 C 92.5 107.6 91.4 106.5 90 106.5 L 86 106.5 z M 86 107 L 90 107 C 91.1 107 92 107.9 92 109 L 92 116 L 99 116 C 100.1 116 101 116.9 101 118 L 101 122 C 101 123.1 100.1 124 99 124 L 92 124 L 92 131 C 92 132.1 91.1 133 90 133 L 86 133 C 84.9 133 84 132.1 84 131 L 84 124 L 77 124 C 75.9 124 75 123.1 75 122 L 75 118 C 75 116.9 75.9 116 77 116 L 84 116 L 84 109 C 84 107.9 84.9 107 86 107 z M 136 112 C 131.6 112 128 115.6 128 120 C 128 124.4 131.6 128 136 128 C 140.4 128 144 124.4 144 120 C 144 115.6 140.4 112 136 112 z M 136 112.5 C 140.15 112.5 143.5 115.85 143.5 120 C 143.5 124.15 140.15 127.5 136 127.5 C 131.85 127.5 128.5 124.15 128.5 120 C 128.5 115.85 131.85 112.5 136 112.5 z " fill="currentColor" opacity=".6"/></g><use href="#umS" opacity=".4"></use><use class="toggle-flat-design" fill="url(#umQ)" href="#umS" opacity=".2"></use><path class="toggle-flat-design" d="M 108,64 C 96,64 96,72 80,72 H 28 c -6.65,0 -12,5.35 -12,12 v 128 c 0,6.65 5.35,12 12,12 h 200 c 6.65,0 12,-5.35 12,-12 V 104 84 76 c 0,-6.65 -5.35,-12 -12,-12 z" fill="url(#umP)" opacity=".2"/><path class="folder-crease " d="m 16,176 v 8 h 8 c 2.2,0 4,-1.8 4,-4 0,-2.2 -1.8,-4 -4,-4 z m 216,0 c -2.2,0 -4,1.8 -4,4 0,2.2 1.8,4 4,4 h 8 v -8 z" opacity=".4"/><path class="ColorScheme-Text" d="m 16,211 v 1 c 0,6.65 5.35,12 12,12 h 200 c 6.65,0 12,-5.35 12,-12 v -1 c 0,6.65 -5.35,12 -12,12 H 28 c -6.65,0 -12,-5.35 -12,-12 z" fill="currentColor" opacity=".1"/><path class="ColorScheme-Text" d="m 16,211.5 v 0.5 c 0,6.65 5.35,12 12,12 h 200 c 6.65,0 12,-5.35 12,-12 v -0.5 c 0,6.65 -5.35,12 -12,12 H 28 c -6.65,0 -12,-5.35 -12,-12 z" fill="currentColor" opacity=".2"/><path d="M 108,64 C 96,64 96,72 80,72 H 28 c -6.65,0 -12,5.35 -12,12 v 1 c 0,-6.65 5.35,-12 12,-12 h 52 c 16,0 16,-8 28,-8 h 120 c 6.65,0 12,5.35 12,12 v -1 c 0,-6.65 -5.35,-12 -12,-12 z" fill="#fff" opacity=".1"/><path d="M 108,64 C 96,64 96,72 80,72 H 28 c -6.65,0 -12,5.35 -12,12 v 0.5 c 0,-6.65 5.35,-12 12,-12 h 52 c 16,0 16,-8 28,-8 h 120 c 6.65,0 12,5.35 12,12 V 76 c 0,-6.65 -5.35,-12 -12,-12 z" fill="#fff" opacity=".2"/><path d="M 108,63 C 96,63 96,71 80,71 H 28 v 1 h 52 c 16,0 16,-8 28,-8 h 120 v -1 z" opacity=".1"/><path d="m 108,63.5 c -12,0 -12,8 -28,8 H 28 V 72 h 52 c 16,0 16,-8 28,-8 h 120 v -0.5 z" opacity=".2"/></g>
</svg>