<svg height="256" version="1.1" width="256" xmlns="http://www.w3.org/2000/svg" xmlns:svg="http://www.w3.org/2000/svg" xmlns:xlink="http://www.w3.org/1999/xlink">
<defs id="primary-definitions">
<style id="current-color-scheme" type="text/css">
      .ColorScheme-Text           { color:#fff; }
      .ColorScheme-Background     { color:#111; }
      .ColorScheme-Highlight      { color:#3daefd; }
      .ColorScheme-ViewBackground { color:#000; }
      .ColorScheme-PositiveText   { color:#27ae60; }
      .ColorScheme-NeutralText    { color:#f67400; }
      .ColorScheme-NegativeText   { color:#da4453; }
    </style>
<style id="extended-color-scheme" type="text/css">
      .ExScheme-Black     { color:#3e3e3e; }
      .ExScheme-White     { color:#fcfcfc; }
      .ExScheme-Grey-1    { color:#cfd5d5; }
      .ExScheme-Grey-2    { color:#909c9c; }
      .ExScheme-Grey-3    { color:#536161; }
      .ExScheme-Red-1     { color:#ffafa5; }
      .ExScheme-Red-2     { color:#bf4231; }
      .ExScheme-Red-3     { color:#4d2f2b; }
      .ExScheme-Green-1   { color:#abf9c7; }
      .ExScheme-Green-2   { color:#3bb566; }
      .ExScheme-Green-3   { color:#377d50; }
      .ExScheme-Blue-1    { color:#abdaf9; }
      .ExScheme-Blue-2    { color:#3daefd; }
      .ExScheme-Blue-3    { color:#2b3c4d; }
      .ExScheme-Yellow-1  { color:#faffa5; }
      .ExScheme-Yellow-2  { color:#cac726; }
      .ExScheme-Yellow-3  { color:#4b4d2b; }
      .ExScheme-Orange-1  { color:#ffdaa5; }
      .ExScheme-Orange-2  { color:#ff9701; }
      .ExScheme-Orange-3  { color:#4d372b; }
      .ExScheme-Brown-1   { color:#e9d6bb; }
      .ExScheme-Brown-2   { color:#997657; }
      .ExScheme-Brown-3   { color:#433a35; }
      .ExScheme-Purple-1  { color:#e2abf9; }
      .ExScheme-Purple-2  { color:#b401ff; }
      .ExScheme-Purple-3  { color:#432b4d; }
      .ExScheme-Cyan-1    { color:#b2f2e6; }
      .ExScheme-Cyan-2    { color:#31bfa6; }
      .ExScheme-Cyan-3    { color:#2b4d47; }
      .ExScheme-Magenta-1 { color:#f8a6d8; }
      .ExScheme-Magenta-2 { color:#f00091; }
      .ExScheme-Magenta-3 { color:#770048; }
    </style>
<linearGradient id="uxp">
<stop offset="0"/>
<stop offset="1" stop-opacity="0"/>
</linearGradient>
<linearGradient id="uxq">
<stop offset="0" stop-color="#fff"/>
<stop offset="1" stop-color="#fff" stop-opacity="0"/>
</linearGradient>
<style class="toggle-enable-crease" type="text/css">
        .folder-crease { display: none; }
    </style><style class="toggle-manilla-folders" type="text/css">
        .folder-manilla { display: none; }
    </style><radialGradient cx=".5" cy="0" id="uxr" r="1" xlink:href="#uxq"/><linearGradient id="uxs" xlink:href="#uxp" y1="1" y2=".5"/><path d="m 40,32 c -6.65,0 -12,5.35 -12,12 v 28 c -6.65,0 -12,5.35 -12,12 v 128 c 0,6.65 5.35,12 12,12 h 200 c 6.65,0 12,-5.35 12,-12 V 104 84 76 c 0,-6.65 -5.35,-12 -12,-12 V 52 c 0,-6.65 -5.35,-12 -12,-12 H 112 C 96,40 96,32 84,32 Z" id="uxt"></path><path d="m 40,32 c -6.65,0 -12,5.35 -12,12 v 28 h 52 c 16,0 16,-8 28,-8 H 228 V 52 c 0,-6.65 -5.35,-12 -12,-12 H 112 C 96,40 96,32 84,32 Z" id="uxu"></path></defs>
<g id="content" transform="translate(0,0)"><use class="folder-manilla ExScheme-Brown-1" fill="currentColor" href="#uxt"></use><use class="toggle-manilla-folders ColorScheme-Highlight" fill="currentColor" href="#uxt" id="primary-color"></use><use class="ColorScheme-Text" fill="currentColor" href="#uxt" opacity=".1"></use><g id="panorama" transform="translate(16,64)"><path class="ColorScheme-Background" d="M 36 32 C 29.37 32 24 37.37 24 44 C 24 50.63 29.37 56 36 56 C 42.63 56 48 50.63 48 44 C 48 37.37 42.63 32 36 32 z M 140 62.8 C 139.5 62.8 139 63 138.6 63.4 L 42 160 L 212 160 C 218.65 160 224 154.65 224 148 L 224 146 L 141.4 63.4 C 141 63 140.5 62.8 140 62.8 z M 72 74.83 C 71.5 74.83 71 75 70.6 75.4 L 0 146 L 0 148 C 0 154.65 5.35 160 12 160 L 40.5 160 L 99.25 101.25 L 73.4 75.4 C 73 75 72.5 74.83 72 74.83 z " fill="currentColor" opacity=".6"/><path class="ColorScheme-Background" d="M 36 32 C 29.37 32 24 37.37 24 44 C 24 50.63 29.37 56 36 56 C 42.63 56 48 50.63 48 44 C 48 37.37 42.63 32 36 32 z M 36 32.5 C 42.36 32.5 47.5 37.64 47.5 44 C 47.5 50.36 42.36 55.5 36 55.5 C 29.64 55.5 24.5 50.36 24.5 44 C 24.5 37.64 29.64 32.5 36 32.5 z M 140 62.8 C 139.5 62.8 139 63 138.6 63.4 L 42 160 L 212 160 C 218.65 160 224 154.65 224 148 L 224 146 L 141.4 63.4 C 141 63 140.5 62.8 140 62.8 z M 140 63.3 C 140.4 63.3 140.76 63.47 141.06 63.77 L 223.5 146.2 L 223.5 148 C 223.5 154.4 218.4 159.5 212 159.5 L 43.2 159.5 L 138.94 63.77 C 139.24 63.47 139.6 63.3 140 63.3 z M 72 74.83 C 71.5 74.83 71 75 70.6 75.4 L 0 146 L 0 148 C 0 154.65 5.35 160 12 160 L 40.5 160 L 99.25 101.25 L 73.4 75.4 C 73 75 72.5 74.83 72 74.83 z M 72 75.33 C 72.4 75.33 72.76 75.47 73.06 75.77 L 98.54 101.25 L 40.3 159.5 L 12 159.5 C 5.6 159.5 0.5 154.4 0.5 148 L 0.5 146.2 L 70.94 75.77 L 70.94 75.77 C 71.24 75.47 71.6 75.33 72 75.33 z " fill="currentColor" opacity=".6"/></g><use href="#uxu" opacity=".4"></use><use class="toggle-flat-design" fill="url(#uxs)" href="#uxu" opacity=".2"></use><path class="toggle-flat-design" d="M 108,64 C 96,64 96,72 80,72 H 28 c -6.65,0 -12,5.35 -12,12 v 128 c 0,6.65 5.35,12 12,12 h 200 c 6.65,0 12,-5.35 12,-12 V 104 84 76 c 0,-6.65 -5.35,-12 -12,-12 z" fill="url(#uxr)" opacity=".2"/><path class="folder-crease " d="m 16,176 v 8 h 8 c 2.2,0 4,-1.8 4,-4 0,-2.2 -1.8,-4 -4,-4 z m 216,0 c -2.2,0 -4,1.8 -4,4 0,2.2 1.8,4 4,4 h 8 v -8 z" opacity=".4"/><path class="ColorScheme-Text" d="m 16,211 v 1 c 0,6.65 5.35,12 12,12 h 200 c 6.65,0 12,-5.35 12,-12 v -1 c 0,6.65 -5.35,12 -12,12 H 28 c -6.65,0 -12,-5.35 -12,-12 z" fill="currentColor" opacity=".1"/><path class="ColorScheme-Text" d="m 16,211.5 v 0.5 c 0,6.65 5.35,12 12,12 h 200 c 6.65,0 12,-5.35 12,-12 v -0.5 c 0,6.65 -5.35,12 -12,12 H 28 c -6.65,0 -12,-5.35 -12,-12 z" fill="currentColor" opacity=".2"/><path d="M 108,64 C 96,64 96,72 80,72 H 28 c -6.65,0 -12,5.35 -12,12 v 1 c 0,-6.65 5.35,-12 12,-12 h 52 c 16,0 16,-8 28,-8 h 120 c 6.65,0 12,5.35 12,12 v -1 c 0,-6.65 -5.35,-12 -12,-12 z" fill="#fff" opacity=".1"/><path d="M 108,64 C 96,64 96,72 80,72 H 28 c -6.65,0 -12,5.35 -12,12 v 0.5 c 0,-6.65 5.35,-12 12,-12 h 52 c 16,0 16,-8 28,-8 h 120 c 6.65,0 12,5.35 12,12 V 76 c 0,-6.65 -5.35,-12 -12,-12 z" fill="#fff" opacity=".2"/><path d="M 108,63 C 96,63 96,71 80,71 H 28 v 1 h 52 c 16,0 16,-8 28,-8 h 120 v -1 z" opacity=".1"/><path d="m 108,63.5 c -12,0 -12,8 -28,8 H 28 V 72 h 52 c 16,0 16,-8 28,-8 h 120 v -0.5 z" opacity=".2"/></g>
</svg>