<svg height="256" version="1.1" width="256" xmlns="http://www.w3.org/2000/svg" xmlns:svg="http://www.w3.org/2000/svg" xmlns:xlink="http://www.w3.org/1999/xlink">
<defs id="primary-definitions">
<style id="current-color-scheme" type="text/css">
      .ColorScheme-Text           { color:#fff; }
      .ColorScheme-Background     { color:#111; }
      .ColorScheme-Highlight      { color:#3daefd; }
      .ColorScheme-ViewBackground { color:#000; }
      .ColorScheme-PositiveText   { color:#27ae60; }
      .ColorScheme-NeutralText    { color:#f67400; }
      .ColorScheme-NegativeText   { color:#da4453; }
    </style>
<style id="extended-color-scheme" type="text/css">
      .ExScheme-Black     { color:#3e3e3e; }
      .ExScheme-White     { color:#fcfcfc; }
      .ExScheme-Grey-1    { color:#cfd5d5; }
      .ExScheme-Grey-2    { color:#909c9c; }
      .ExScheme-Grey-3    { color:#536161; }
      .ExScheme-Red-1     { color:#ffafa5; }
      .ExScheme-Red-2     { color:#bf4231; }
      .ExScheme-Red-3     { color:#4d2f2b; }
      .ExScheme-Green-1   { color:#abf9c7; }
      .ExScheme-Green-2   { color:#3bb566; }
      .ExScheme-Green-3   { color:#377d50; }
      .ExScheme-Blue-1    { color:#abdaf9; }
      .ExScheme-Blue-2    { color:#3daefd; }
      .ExScheme-Blue-3    { color:#2b3c4d; }
      .ExScheme-Yellow-1  { color:#faffa5; }
      .ExScheme-Yellow-2  { color:#cac726; }
      .ExScheme-Yellow-3  { color:#4b4d2b; }
      .ExScheme-Orange-1  { color:#ffdaa5; }
      .ExScheme-Orange-2  { color:#ff9701; }
      .ExScheme-Orange-3  { color:#4d372b; }
      .ExScheme-Brown-1   { color:#e9d6bb; }
      .ExScheme-Brown-2   { color:#997657; }
      .ExScheme-Brown-3   { color:#433a35; }
      .ExScheme-Purple-1  { color:#e2abf9; }
      .ExScheme-Purple-2  { color:#b401ff; }
      .ExScheme-Purple-3  { color:#432b4d; }
      .ExScheme-Cyan-1    { color:#b2f2e6; }
      .ExScheme-Cyan-2    { color:#31bfa6; }
      .ExScheme-Cyan-3    { color:#2b4d47; }
      .ExScheme-Magenta-1 { color:#f8a6d8; }
      .ExScheme-Magenta-2 { color:#f00091; }
      .ExScheme-Magenta-3 { color:#770048; }
    </style>
<linearGradient id="uFH">
<stop offset="0"/>
<stop offset="1" stop-opacity="0"/>
</linearGradient>
<linearGradient id="uFI">
<stop offset="0" stop-color="#fff"/>
<stop offset="1" stop-color="#fff" stop-opacity="0"/>
</linearGradient>
<style class="toggle-enable-crease" type="text/css">
        .folder-crease { display: none; }
    </style><style class="toggle-manilla-folders" type="text/css">
        .folder-manilla { display: none; }
    </style><radialGradient cx=".5" cy="0" id="uFJ" r="1" xlink:href="#uFI"/><linearGradient id="uFK" xlink:href="#uFH" y1="1" y2=".5"/><path d="m 40,32 c -6.65,0 -12,5.35 -12,12 v 28 c -6.65,0 -12,5.35 -12,12 v 128 c 0,6.65 5.35,12 12,12 h 200 c 6.65,0 12,-5.35 12,-12 V 104 84 76 c 0,-6.65 -5.35,-12 -12,-12 V 52 c 0,-6.65 -5.35,-12 -12,-12 H 112 C 96,40 96,32 84,32 Z" id="uFL"></path><path d="m 40,32 c -6.65,0 -12,5.35 -12,12 v 28 h 52 c 16,0 16,-8 28,-8 H 228 V 52 c 0,-6.65 -5.35,-12 -12,-12 H 112 C 96,40 96,32 84,32 Z" id="uFM"></path></defs>
<g id="content" transform="translate(0,0)"><use class="folder-manilla ExScheme-Brown-1" fill="currentColor" href="#uFL"></use><use class="toggle-manilla-folders ColorScheme-Highlight" fill="currentColor" href="#uFL" id="primary-color"></use><use class="ColorScheme-Text" fill="currentColor" href="#uFL" opacity=".1"></use><g id="emblem" transform="translate(64,84)"><path class="ColorScheme-Background" d="M 8.5 21 C 8.2 21 8 21.2 8 21.5 C 8 21.8 8.2 22 8.5 22 L 111.5 22 C 111.8 22 112 21.8 112 21.5 C 112 21.2 111.8 21 111.5 21 L 8.5 21 z M 8.5 38 C 8.2 38 8 38.2 8 38.5 C 8 38.8 8.2 39 8.5 39 L 99.5 39 C 99.8 39 100 38.8 100 38.5 C 100 38.2 99.8 38 99.5 38 L 8.5 38 z M 8.5 55 C 8.2 55 8 55.2 8 55.5 C 8 55.8 8.2 56 8.5 56 L 119.5 56 C 119.8 56 120 55.8 120 55.5 C 120 55.2 119.8 55 119.5 55 L 8.5 55 z M 8.5 72 C 8.2 72 8 72.2 8 72.5 C 8 72.8 8.2 73 8.5 73 L 79.5 73 C 79.8 73 80 72.8 80 72.5 C 80 72.2 79.8 72 79.5 72 L 8.5 72 z M 8.5 89 C 8.2 89 8 89.2 8 89.5 C 8 89.8 8.2 90 8.5 90 L 103.5 90 C 103.8 90 104 89.8 104 89.5 C 104 89.2 103.8 89 103.5 89 L 8.5 89 z M 8.5 106 C 8.2 106 8 106.2 8 106.5 C 8 106.8 8.2 107 8.5 107 L 119.5 107 C 119.8 107 120 106.8 120 106.5 C 120 106.2 119.8 106 119.5 106 L 8.5 106 z " fill="currentColor" opacity=".6"/><path class="ColorScheme-Background" d="M 8.5,21 C 8.2,21 8,21.2 8,21.5 8,21.8 8.2,22 8.5,22 h 103 c .3,0 0.5,-.2 0.5,-0.5 0,-.3 -.2,-0.5 -0.5,-0.5 z m 0,17 C 8.2,38 8,38.2 8,38.5 8,38.8 8.2,39 8.5,39 h 91 c .3,0 0.5,-.2 0.5,-0.5 0,-.3 -.2,-0.5 -0.5,-0.5 z m 0,17 C 8.2,55 8,55.2 8,55.5 8,55.8 8.2,56 8.5,56 h 111 c .3,0 0.5,-.2 0.5,-0.5 0,-.3 -.2,-0.5 -0.5,-0.5 z m 0,17 C 8.2,72 8,72.2 8,72.5 8,72.8 8.2,73 8.5,73 h 71 C 79.8,73 80,72.8 80,72.5 80,72.2 79.8,72 79.5,72 Z m 0,17 C 8.2,89 8,89.2 8,89.5 8,89.8 8.2,90 8.5,90 h 95 c .3,0 0.5,-.2 0.5,-0.5 0,-.3 -.2,-0.5 -0.5,-0.5 z m 0,17 c -.3,0 -0.5,.2 -0.5,0.5 0,.3 .2,0.5 0.5,0.5 h 111 c .3,0 0.5,-.2 0.5,-0.5 0,-.3 -.2,-0.5 -0.5,-0.5 z" fill="currentColor" opacity=".6"/></g><use href="#uFM" opacity=".4"></use><use class="toggle-flat-design" fill="url(#uFK)" href="#uFM" opacity=".2"></use><path class="toggle-flat-design" d="M 108,64 C 96,64 96,72 80,72 H 28 c -6.65,0 -12,5.35 -12,12 v 128 c 0,6.65 5.35,12 12,12 h 200 c 6.65,0 12,-5.35 12,-12 V 104 84 76 c 0,-6.65 -5.35,-12 -12,-12 z" fill="url(#uFJ)" opacity=".2"/><path class="folder-crease " d="m 16,176 v 8 h 36 c 2.2,0 4,-1.8 4,-4 0,-2.2 -1.8,-4 -4,-4 z m 188,0 c -2.2,0 -4,1.8 -4,4 0,2.2 1.8,4 4,4 h 36 v -8 z" opacity=".4"/><path class="ColorScheme-Text" d="m 16,211 v 1 c 0,6.65 5.35,12 12,12 h 200 c 6.65,0 12,-5.35 12,-12 v -1 c 0,6.65 -5.35,12 -12,12 H 28 c -6.65,0 -12,-5.35 -12,-12 z" fill="currentColor" opacity=".1"/><path class="ColorScheme-Text" d="m 16,211.5 v 0.5 c 0,6.65 5.35,12 12,12 h 200 c 6.65,0 12,-5.35 12,-12 v -0.5 c 0,6.65 -5.35,12 -12,12 H 28 c -6.65,0 -12,-5.35 -12,-12 z" fill="currentColor" opacity=".2"/><path d="M 108,64 C 96,64 96,72 80,72 H 28 c -6.65,0 -12,5.35 -12,12 v 1 c 0,-6.65 5.35,-12 12,-12 h 52 c 16,0 16,-8 28,-8 h 120 c 6.65,0 12,5.35 12,12 v -1 c 0,-6.65 -5.35,-12 -12,-12 z" fill="#fff" opacity=".1"/><path d="M 108,64 C 96,64 96,72 80,72 H 28 c -6.65,0 -12,5.35 -12,12 v 0.5 c 0,-6.65 5.35,-12 12,-12 h 52 c 16,0 16,-8 28,-8 h 120 c 6.65,0 12,5.35 12,12 V 76 c 0,-6.65 -5.35,-12 -12,-12 z" fill="#fff" opacity=".2"/><path d="M 108,63 C 96,63 96,71 80,71 H 28 v 1 h 52 c 16,0 16,-8 28,-8 h 120 v -1 z" opacity=".1"/><path d="m 108,63.5 c -12,0 -12,8 -28,8 H 28 V 72 h 52 c 16,0 16,-8 28,-8 h 120 v -0.5 z" opacity=".2"/></g>
</svg>