<svg height="256" version="1.1" width="256" xmlns="http://www.w3.org/2000/svg" xmlns:svg="http://www.w3.org/2000/svg" xmlns:xlink="http://www.w3.org/1999/xlink">
<defs id="primary-definitions">
<style id="current-color-scheme" type="text/css">
      .ColorScheme-Text           { color:#fff; }
      .ColorScheme-Background     { color:#111; }
      .ColorScheme-Highlight      { color:#3daefd; }
      .ColorScheme-ViewBackground { color:#000; }
      .ColorScheme-PositiveText   { color:#27ae60; }
      .ColorScheme-NeutralText    { color:#f67400; }
      .ColorScheme-NegativeText   { color:#da4453; }
    </style>
<style id="extended-color-scheme" type="text/css">
      .ExScheme-Black     { color:#3e3e3e; }
      .ExScheme-White     { color:#fcfcfc; }
      .ExScheme-Grey-1    { color:#cfd5d5; }
      .ExScheme-Grey-2    { color:#909c9c; }
      .ExScheme-Grey-3    { color:#536161; }
      .ExScheme-Red-1     { color:#ffafa5; }
      .ExScheme-Red-2     { color:#bf4231; }
      .ExScheme-Red-3     { color:#4d2f2b; }
      .ExScheme-Green-1   { color:#abf9c7; }
      .ExScheme-Green-2   { color:#3bb566; }
      .ExScheme-Green-3   { color:#377d50; }
      .ExScheme-Blue-1    { color:#abdaf9; }
      .ExScheme-Blue-2    { color:#3daefd; }
      .ExScheme-Blue-3    { color:#2b3c4d; }
      .ExScheme-Yellow-1  { color:#faffa5; }
      .ExScheme-Yellow-2  { color:#cac726; }
      .ExScheme-Yellow-3  { color:#4b4d2b; }
      .ExScheme-Orange-1  { color:#ffdaa5; }
      .ExScheme-Orange-2  { color:#ff9701; }
      .ExScheme-Orange-3  { color:#4d372b; }
      .ExScheme-Brown-1   { color:#e9d6bb; }
      .ExScheme-Brown-2   { color:#997657; }
      .ExScheme-Brown-3   { color:#433a35; }
      .ExScheme-Purple-1  { color:#e2abf9; }
      .ExScheme-Purple-2  { color:#b401ff; }
      .ExScheme-Purple-3  { color:#432b4d; }
      .ExScheme-Cyan-1    { color:#b2f2e6; }
      .ExScheme-Cyan-2    { color:#31bfa6; }
      .ExScheme-Cyan-3    { color:#2b4d47; }
      .ExScheme-Magenta-1 { color:#f8a6d8; }
      .ExScheme-Magenta-2 { color:#f00091; }
      .ExScheme-Magenta-3 { color:#770048; }
    </style>
<linearGradient id="usH">
<stop offset="0"/>
<stop offset="1" stop-opacity="0"/>
</linearGradient>
<linearGradient id="usI">
<stop offset="0" stop-color="#fff"/>
<stop offset="1" stop-color="#fff" stop-opacity="0"/>
</linearGradient>
<style class="toggle-enable-crease" type="text/css">
        .folder-crease { display: none; }
    </style><style class="toggle-manilla-folders" type="text/css">
        .folder-manilla { display: none; }
    </style><radialGradient cx=".5" cy="0" id="usJ" r="1" xlink:href="#usI"/><linearGradient id="usK" xlink:href="#usH" y1="1" y2=".5"/><path d="m 40,32 c -6.65,0 -12,5.35 -12,12 v 28 c -6.65,0 -12,5.35 -12,12 v 128 c 0,6.65 5.35,12 12,12 h 200 c 6.65,0 12,-5.35 12,-12 V 104 84 76 c 0,-6.65 -5.35,-12 -12,-12 V 52 c 0,-6.65 -5.35,-12 -12,-12 H 112 C 96,40 96,32 84,32 Z" id="usL"></path><path d="m 40,32 c -6.65,0 -12,5.35 -12,12 v 28 h 52 c 16,0 16,-8 28,-8 H 228 V 52 c 0,-6.65 -5.35,-12 -12,-12 H 112 C 96,40 96,32 84,32 Z" id="usM"></path></defs>
<g id="content" transform="translate(0,0)"><use class="folder-manilla ExScheme-Brown-1" fill="currentColor" href="#usL"></use><use class="toggle-manilla-folders ExScheme-Grey-1" fill="currentColor" href="#usL" id="primary-color"></use><use class="ColorScheme-Text" fill="currentColor" href="#usL" opacity=".1"></use><g id="emblem" transform="translate(64,84)"><path class="ExScheme-Grey-3" d="M 16 8 C 11.57 8 8 11.57 8 16 L 8 112 C 8 116.43 11.57 120 16 120 L 38 120 L 75.23 120 L 112 120 C 116.43 120 120 116.43 120 112 L 120 16 C 120 11.57 116.43 8 112 8 L 66.25 8 L 38 8 L 16 8 z M 65.8 9 L 112 9 C 115.9 9 119 12.1 119 16 L 119 112 C 119 115.9 115.9 119 112 119 L 75.06 119 C 73.9 112.5 73.2 105.84 72.6 99.44 C 69.93 99.8 67.1 100 64 100 C 53 100 44.7 97.4 39.15 94.8 C 33.6 92.2 30.63 89.46 30.63 89.46 A 2 2 0 0 1 30.54 86.63 A 2 2 0 0 1 31.93 86 A 2 2 0 0 1 33.37 86.54 C 33.37 86.54 35.75 88.8 40.85 91.2 C 45.95 93.6 53.65 96 64 96 C 67 96 69.75 95.8 72.3 95.45 C 71.2 78.16 72 64 72 64 L 56 64 C 56 64 54.2 33.8 65.8 9 z M 72.3 95.45 C 72.4 96.76 72.5 98.1 72.6 99.44 C 79.4 98.55 84.84 96.7 88.85 94.8 C 94.4 92.2 97.37 89.46 97.37 89.46 A 2 2 0 0 0 97.46 86.63 A 2 2 0 0 0 95.55 86.05 A 2 2 0 0 0 94.63 86.54 C 94.63 86.54 92.25 88.8 87.15 91.2 C 83.5 92.9 78.6 94.6 72.3 95.45 z M 34 40 C 35.1 40 36 40.9 36 42 L 36 50 C 36 51.1 35.1 52 34 52 C 32.9 52 32 51.1 32 50 L 32 42 C 32 40.9 32.9 40 34 40 z M 94 40 C 92.9 40 92 40.9 92 42 L 92 50 C 92 51.1 92.9 52 94 52 C 95.1 52 96 51.1 96 50 L 96 42 C 96 40.9 95.1 40 94 40 z " fill="currentColor" opacity=".6"/><path class="ExScheme-Grey-3" d="M 16 8 C 11.57 8 8 11.57 8 16 L 8 112 C 8 116.43 11.57 120 16 120 L 75 120 L 75.23 120 L 112 120 C 116.43 120 120 116.43 120 112 L 120 16 C 120 11.57 116.43 8 112 8 L 66.25 8 L 66 8 L 16 8 z M 16 8.5 L 65.5 8.5 C 53.7 33.5 55.5 64.03 55.5 64.03 A .5 .5 0 0 0 56 64.5 L 71.5 64.5 C 71.44 65.27 70.8 78.4 71.8 95 C 69.4 95.3 66.8 95.5 64 95.5 C 53.7 95.5 46.1 93.1 41.06 90.73 C 36 88.37 33.7 86.2 33.7 86.2 A .5 .5 0 0 0 33.7 86.17 C 33.23 85.7 32.6 85.5 31.9 85.5 L 31.9 85.5 C 31.25 85.5 30.63 85.8 30.17 86.3 C 29.23 87.3 29.3 88.9 30.3 89.83 A .5 .5 0 0 0 30.3 89.83 C 30.3 89.83 33.3 92.63 38.94 95.27 C 44.56 97.9 52.94 100.5 64 100.5 C 66.9 100.5 69.7 100.3 72.14 99.97 C 72.66 106.37 73.45 113.04 74.65 119.5 L 16 119.5 C 11.84 119.5 8.5 116.16 8.5 112 L 8.5 16 C 8.5 11.84 11.84 8.5 16 8.5 z M 65.8 9 L 112 9 C 115.9 9 119 12.1 119 16 L 119 112 C 119 115.9 115.9 119 112 119 L 75.06 119 C 73.9 112.5 73.2 105.84 72.6 99.44 C 69.93 99.8 67.1 100 64 100 C 53 100 44.7 97.4 39.15 94.8 C 33.6 92.2 30.63 89.46 30.63 89.46 A 2 2 0 0 1 30.54 86.63 A 2 2 0 0 1 31.93 86 A 2 2 0 0 1 33.37 86.54 C 33.37 86.54 35.75 88.8 40.85 91.2 C 45.95 93.6 53.65 96 64 96 C 67 96 69.75 95.8 72.3 95.45 C 71.2 78.16 72 64 72 64 L 56 64 C 56 64 54.2 33.8 65.8 9 z M 72.3 95.45 C 72.4 96.76 72.5 98.1 72.6 99.44 C 79.4 98.55 84.84 96.7 88.85 94.8 C 94.4 92.2 97.37 89.46 97.37 89.46 A 2 2 0 0 0 97.46 86.63 A 2 2 0 0 0 95.55 86.05 A 2 2 0 0 0 94.63 86.54 C 94.63 86.54 92.25 88.8 87.15 91.2 C 83.5 92.9 78.6 94.6 72.3 95.45 z M 34 39.5 C 32.6 39.5 31.5 40.6 31.5 42 L 31.5 50 C 31.5 51.4 32.6 52.5 34 52.5 C 35.4 52.5 36.5 51.4 36.5 50 L 36.5 42 C 36.5 40.6 35.4 39.5 34 39.5 z M 34 40 C 35.1 40 36 40.9 36 42 L 36 50 C 36 51.1 35.1 52 34 52 C 32.9 52 32 51.1 32 50 L 32 42 C 32 40.9 32.9 40 34 40 z M 94 40 C 92.9 40 92 40.9 92 42 L 92 50 C 92 51.1 92.9 52 94 52 C 95.1 52 96 51.1 96 50 L 96 42 C 96 40.9 95.1 40 94 40 z M 94 40.5 C 94.84 40.5 95.5 41.16 95.5 42 L 95.5 50 C 95.5 50.84 94.84 51.5 94 51.5 C 93.16 51.5 92.5 50.84 92.5 50 L 92.5 42 C 92.5 41.16 93.16 40.5 94 40.5 z M 96.05 86.5 C 96.44 86.5 96.8 86.7 97.1 86.97 C 97.67 87.6 97.64 88.53 97.03 89.1 C 97 89.1 94.14 91.8 88.63 94.36 C 84.8 96.16 79.54 97.9 73.05 98.83 C 72.97 97.83 72.9 96.83 72.83 95.85 C 78.9 94.97 83.8 93.3 87.37 91.64 C 92.5 89.2 94.97 86.9 94.97 86.9 L 95 86.9 C 95.17 86.7 95.4 86.6 95.66 86.54 C 95.8 86.5 95.9 86.5 96.05 86.5 z " fill="currentColor" opacity=".6"/></g><use href="#usM" opacity=".4"></use><use class="toggle-flat-design" fill="url(#usK)" href="#usM" opacity=".2"></use><path class="toggle-flat-design" d="M 108,64 C 96,64 96,72 80,72 H 28 c -6.65,0 -12,5.35 -12,12 v 128 c 0,6.65 5.35,12 12,12 h 200 c 6.65,0 12,-5.35 12,-12 V 104 84 76 c 0,-6.65 -5.35,-12 -12,-12 z" fill="url(#usJ)" opacity=".2"/><path class="folder-crease " d="m 16,176 v 8 h 36 c 2.2,0 4,-1.8 4,-4 0,-2.2 -1.8,-4 -4,-4 z m 188,0 c -2.2,0 -4,1.8 -4,4 0,2.2 1.8,4 4,4 h 36 v -8 z" opacity=".4"/><path class="ColorScheme-Text" d="m 16,211 v 1 c 0,6.65 5.35,12 12,12 h 200 c 6.65,0 12,-5.35 12,-12 v -1 c 0,6.65 -5.35,12 -12,12 H 28 c -6.65,0 -12,-5.35 -12,-12 z" fill="currentColor" opacity=".1"/><path class="ColorScheme-Text" d="m 16,211.5 v 0.5 c 0,6.65 5.35,12 12,12 h 200 c 6.65,0 12,-5.35 12,-12 v -0.5 c 0,6.65 -5.35,12 -12,12 H 28 c -6.65,0 -12,-5.35 -12,-12 z" fill="currentColor" opacity=".2"/><path d="M 108,64 C 96,64 96,72 80,72 H 28 c -6.65,0 -12,5.35 -12,12 v 1 c 0,-6.65 5.35,-12 12,-12 h 52 c 16,0 16,-8 28,-8 h 120 c 6.65,0 12,5.35 12,12 v -1 c 0,-6.65 -5.35,-12 -12,-12 z" fill="#fff" opacity=".1"/><path d="M 108,64 C 96,64 96,72 80,72 H 28 c -6.65,0 -12,5.35 -12,12 v 0.5 c 0,-6.65 5.35,-12 12,-12 h 52 c 16,0 16,-8 28,-8 h 120 c 6.65,0 12,5.35 12,12 V 76 c 0,-6.65 -5.35,-12 -12,-12 z" fill="#fff" opacity=".2"/><path d="M 108,63 C 96,63 96,71 80,71 H 28 v 1 h 52 c 16,0 16,-8 28,-8 h 120 v -1 z" opacity=".1"/><path d="m 108,63.5 c -12,0 -12,8 -28,8 H 28 V 72 h 52 c 16,0 16,-8 28,-8 h 120 v -0.5 z" opacity=".2"/></g>
</svg>