<svg height="256" version="1.1" width="256" xmlns="http://www.w3.org/2000/svg" xmlns:svg="http://www.w3.org/2000/svg" xmlns:xlink="http://www.w3.org/1999/xlink">
<defs id="primary-definitions">
<style id="current-color-scheme" type="text/css">
      .ColorScheme-Text         { color: #232629; }
      .ColorScheme-Background   { color: #eff0f1; }
      .ColorScheme-Highlight    { color: #7ec9f0; }
      .ColorScheme-PositiveText { color: #27ae60; }
      .ColorScheme-NeutralText  { color: #f67400; }
      .ColorScheme-NegativeText { color: #da4453; }
      .ColorScheme-ActiveText   { color: #3daee9; }
      .ColorScheme-Complement   { color: #ffffff; }
      .ColorScheme-Contrast     { color: #000000; }
    </style>
<style id="extended-color-scheme" type="text/css">
      .ExScheme-Black     { color:#3e3e3e; }
      .ExScheme-White     { color:#fcfcfc; }
      .ExScheme-Grey-1    { color:#cfd5d5; }
      .ExScheme-Grey-2    { color:#909c9c; }
      .ExScheme-Grey-3    { color:#536161; }
      .ExScheme-Red-1     { color:#ffafa5; }
      .ExScheme-Red-2     { color:#bf4231; }
      .ExScheme-Red-3     { color:#4d2f2b; }
      .ExScheme-Green-1   { color:#abf9c7; }
      .ExScheme-Green-2   { color:#3bb566; }
      .ExScheme-Green-3   { color:#377d50; }
      .ExScheme-Blue-1    { color:#abdaf9; }
      .ExScheme-Blue-2    { color:#3daefd; }
      .ExScheme-Blue-3    { color:#2b3c4d; }
      .ExScheme-Yellow-1  { color:#faffa5; }
      .ExScheme-Yellow-2  { color:#cac726; }
      .ExScheme-Yellow-3  { color:#4b4d2b; }
      .ExScheme-Orange-1  { color:#ffdaa5; }
      .ExScheme-Orange-2  { color:#ff9701; }
      .ExScheme-Orange-3  { color:#4d372b; }
      .ExScheme-Brown-1   { color:#e9d6bb; }
      .ExScheme-Brown-2   { color:#997657; }
      .ExScheme-Brown-3   { color:#433a35; }
      .ExScheme-Purple-1  { color:#e2abf9; }
      .ExScheme-Purple-2  { color:#b401ff; }
      .ExScheme-Purple-3  { color:#432b4d; }
      .ExScheme-Cyan-1    { color:#b2f2e6; }
      .ExScheme-Cyan-2    { color:#31bfa6; }
      .ExScheme-Cyan-3    { color:#2b4d47; }
      .ExScheme-Magenta-1 { color:#f8a6d8; }
      .ExScheme-Magenta-2 { color:#f00091; }
      .ExScheme-Magenta-3 { color:#770048; }
    </style>
<linearGradient id="upZ">
<stop offset="0"/>
<stop offset="1" stop-opacity="0"/>
</linearGradient>
<linearGradient id="uq0">
<stop offset="0" stop-color="#fff"/>
<stop offset="1" stop-color="#fff" stop-opacity="0"/>
</linearGradient>
<style id="uq1" type="text/css">
        .force-display-for-editing { display: inline !important; }
    </style><style class="remove-if__show-crease" type="text/css">
        .enable-if__show-crease { display: none; }
    </style><style class="remove-if__color-sync-mimes-places" type="text/css">
        .enable-if__color-sync-mimes-places { display: none; }
    </style><radialGradient cx=".5" cy="0" id="uq2" r="1" xlink:href="#uq0"/><linearGradient id="uq3" xlink:href="#upZ" y1="1" y2=".5"/><style class="ColorScheme-Background" fill="currentColor" opacity=".6" type="text/css">
   .ColorScheme-Text           { color:#eff0f1; }
      .ColorScheme-Background     { color:#31363b; }
      .ColorScheme-Highlight      { color:#3daefd; }
      .ColorScheme-ViewBackground { color:#fcfcfc; }
      .ColorScheme-PositiveText   { color:#27ae60; }
      .ColorScheme-NeutralText    { color:#f67400; }
      .ColorScheme-NegativeText   { color:#da4453; }
  </style><path d="m 40,32 c -6.65,0 -12,5.35 -12,12 v 28 c -6.65,0 -12,5.35 -12,12 v 128 c 0,6.65 5.35,12 12,12 h 200 c 6.65,0 12,-5.35 12,-12 V 104 84 76 c 0,-6.65 -5.35,-12 -12,-12 V 52 c 0,-6.65 -5.35,-12 -12,-12 H 112 C 96,40 96,32 84,32 Z" id="uq4"></path><path d="m 40,32 c -6.65,0 -12,5.35 -12,12 v 28 h 52 c 16,0 16,-8 28,-8 H 228 V 52 c 0,-6.65 -5.35,-12 -12,-12 H 112 C 96,40 96,32 84,32 Z" id="uq5"></path></defs>
<g id="content" transform="translate(0,0)"><use class="sync-color enable-if__color-sync-mimes-places force-display-for-editing ColorScheme-ActiveText" fill="currentColor" href="#uq4"></use><use class="primary-color remove-if__color-sync-mimes-places ColorScheme-ActiveText" fill="currentColor" href="#uq4"></use><use class="ColorScheme-Contrast" fill="currentColor" href="#uq4" opacity=".1"></use><g id="decal" transform="translate(64,84)"><path class="ColorScheme-Background" d="m 64,12 c -28.8,0 -52,23.2 -52,52 0,28.8 23.2,52 52,52 28.8,0 52,-23.2 52,-52 C 116,35.2 92.8,12 64,12 Z m 2.26,1.06 c 14.23,.6 26.9,7 35.76,16.9 0,0 -.93,2.1 -.93,3.35 0,1.3 2.2e-4,2.56 1.3,2.56 2.56,0 1.14,3.27 0,3.84 -2.56,1.3 -2.56,2.56 -2.56,3.84 0,1.3 -2.56,1.9 -3.84,3.2 -1.9,1.9 -1.47,1.63 -2.56,3.2 -.5,.73 -.66,1.3 -1.3,2.56 -1.3,2.56 0,1.3 0,2.56 0,1.3 -2.19e-4,3.84 -1.3,6.4 -1.3,2.56 3.84,5.1 3.84,6.4 0,1.3 1.3,2.53 5.1,5.1 1.24,.84 5.1,0 7.67,0 2.1,0 4.24,-1.7 7.07,-2.33 C 111.43,95 91.23,113.87 66.25,114.94 c .6,-.74 1.2,-1.53 1.6,-2.34 1.3,-2.56 .4,-3.35 1.3,-5.1 .87,-1.77 5.1,-1.3 6.4,-3.84 1.3,-2.56 2.56,-3.84 2.56,-7.7 0,-3.84 3.84,-3.84 3.84,-10.23 -1.3,-1.3 -5.1,-3.84 -6.4,-3.84 -1.3,0 -7.7,-1.3 -8.96,-2.56 -1.3,-1.3 -3.84,-7.7 -6.4,-7.7 -2.56,0 -3.84,-2.19e-4 -5.1,-1.3 -1.3,-1.3 -3.84,-3.84 -10.23,-5.1 -6.4,-1.3 -8.95,2.2e-4 -8.95,1.3 0,1.3 -5.1,1.3 -6.4,1.3 -1.3,0 -2.56,-1.3 -2.56,-2.56 0,-1.3 1.3,-3.84 0,-5.1 -1.3,-1.3 -3.84,1.3 -5.1,0 -1.3,-1.3 2.56,-3.84 2.56,-6.4 -3.84,0 -3.84,1.3 -5.1,2.56 -1.3,1.3 -2.56,1.3 -3.84,1.3 -.8,0 -1.4,-1 -1.75,-1.73 .6,-3.73 1.6,-7.3 2.94,-10.73 .64,-.63 1.74,-1.6 2.64,-1.6 1.3,0 2.65,1.3 3.84,1.3 1.2,-0 1.3,-1.3 3.84,-1.3 2.56,0 3.84,1.3 3.84,2.56 0,1.3 1.3,1.3 2.56,1.3 0,-1.3 -1.3,-3.84 1.3,-6.4 2.56,-2.56 3.84,-1.3 6.4,-3.84 2.56,-2.56 1.3,-2.56 3.84,-5.1 1.3,-1.3 3.05,-.5 3.84,-1.3 .8,-.8 6.57e-4,-2.56 3.84,-3.84 3.84,-1.3 1.3,1.3 2.56,1.3 1.3,-1.3 7.7,-1.3 6.4,-3.84 -1.3,0 -1.3,1.3 -3.84,1.3 -2.56,0 2.56,-3.84 1.3,-3.84 -1.3,0 -2.56,-1.3 0,-1.3 1,0 .9,1.56 2.56,1.3 .8,-.13 -1.3,-1.3 1.3,-1.3 2.56,0 2.56,-1.3 3.84,-1.3 1.3,0 -2.56,3.84 -2.56,3.84 0,0 3.84,1.3 5.1,1.3 1.3,0 1.3,-1.3 0,-2.56 -1.3,-1.3 -2.56,-2.19e-4 -1.3,-1.3 1.3,-1.3 2.56,-3.84 0,-5.1 -1.25,-.63 -1.56,-1.55 -1.6,-2.34 z m -15.3,1.6 c -.64,.75 -2.53,.95 -3.6,2 -1.3,1.3 -1.3,2.56 -2.56,2.56 -1.1,0 -.9,-1.74 -.8,-2.2 2.24,-.95 4.56,-1.74 6.95,-2.37 z m -15.8,7.9 c 1.74,-.1 2.94,.84 2,1.8 -1.15,1.15 -2.34,.25 -5.34,.05 .63,-.5 1.27,-1 1.93,-1.5 .5,-.2 1,-.3 1.43,-.36 z m 2.4,2.9 c 1.3,-.1 4.5,1.44 3.4,1.44 -1.3,0 -2.56,1.3 -3.84,1.3 -1.3,0 -.75,-1.8 0,-2.56 .1,-.1 .24,-.15 .43,-.16 z m -1.7,.16 c .64,0 -.97,.8 -1.9,1.9 -.96,1.13 -1.9,3.2 -2.56,2.56 -.64,-.64 .64,-1.9 1.9,-3.2 1.3,-1.3 1.3,-1.3 2.56,-1.3 z m 6.4,1.6 c .64,0 1.3,.3 1.3,.96 0,1.3 -2.56,1.3 -2.56,0 0,-.64 .64,-.96 1.3,-.96 z m -6.4,2.24 h 3.84 c 0,0 -1.3,1.3 -2.56,1.3 -1.3,0 -2.56,-1.3 -1.3,-1.3 z m 70.55,6.14 c .57,.85 1.1,1.7 1.6,2.6 -3.2,-.85 -3.1,-1.25 -1.6,-2.6 z M 14.4,60.03 c 1.87,.17 3.04,2.7 4.83,2.7 2.56,0 5.1,2.56 5.1,3.84 0,1.3 3.84,3.84 5.1,3.84 1.3,0 2.3,-2.5 3.84,1.3 1.56,3.8 -3.84,6.4 -3.84,7.7 0,1.3 .64,1.3 .64,2.56 0,1.3 -.7,1.25 -.64,2.56 .05,1.3 1.3,1.3 2.56,3.84 1.3,2.56 2.56,6.4 3.84,7.67 1.3,1.3 5.1,1.3 6.4,3.84 .87,1.73 1.17,7.37 1.3,10.93 C 25.53,102.9 13,84.97 13,64 c 0,-1.25 .06,-2.5 .15,-3.7 .45,-.2 .87,-.3 1.25,-0.25 z" fill="currentColor" opacity=".6"/><path class="ColorScheme-Background" d="M 64 12 C 35.2 12 12 35.2 12 64 C 12 92.8 35.2 116 64 116 C 92.8 116 116 92.8 116 64 C 116 35.2 92.8 12 64 12 z M 64 12.5 C 64.73 12.5 65.43 12.6 66.15 12.6 A .5 .5 0 0 0 65.76 13.06 C 65.8 14 66.2 15.14 67.6 15.84 C 68.75 16.4 68.9 17.07 68.8 17.87 C 68.65 18.67 68.06 19.6 67.5 20.16 C 67.3 20.3 67.2 20.44 67.1 20.54 C 67 20.64 66.95 20.7 66.87 20.85 C 66.83 20.93 66.76 21.1 66.84 21.3 C 66.93 21.5 67.1 21.6 67.2 21.6 C 67.4 21.67 67.44 21.65 67.5 21.65 C 67.84 21.65 68.24 21.6 68.76 22.14 C 69.34 22.73 69.6 23.3 69.6 23.55 C 69.6 23.7 69.55 23.7 69.5 23.75 C 69.46 23.8 69.35 23.85 69.1 23.85 C 68.64 23.85 67.3 23.54 66.2 23.23 C 65.5 23.03 65.3 22.94 64.9 22.8 C 65.24 22.47 65.6 22.15 66.14 21.47 C 66.55 21 66.93 20.5 67.15 20.05 C 67.26 19.84 67.36 19.63 67.3 19.3 C 67.3 19.16 67.17 18.96 67 18.86 C 66.86 18.76 66.7 18.73 66.56 18.73 C 65.75 18.73 65.3 19.17 64.84 19.46 C 64.4 19.75 63.9 20 62.7 20 C 62.05 20 61.64 20.06 61.3 20.27 C 61.1 20.37 60.97 20.56 60.9 20.76 C 60.86 20.96 60.9 21.13 60.94 21.26 C 60.94 21.26 60.94 21.26 60.95 21.27 C 60.87 21.26 60.73 21.3 60.7 21.25 C 60.53 21.2 60.4 21.1 60.3 20.93 C 60.16 20.8 60 20.6 59.8 20.4 C 59.6 20.2 59.26 20 58.9 20 C 58.2 20 57.75 20.1 57.4 20.27 C 57.2 20.37 57.03 20.5 56.95 20.74 C 56.87 20.96 56.9 21.2 57 21.4 C 57.17 21.7 57.45 21.9 57.8 22.04 C 57.95 22.13 58.2 22.14 58.4 22.2 C 58.15 22.5 57.76 22.93 57.4 23.4 C 56.97 23.9 56.6 24.35 56.4 24.9 C 56.35 25.17 56.37 25.57 56.63 25.8 C 56.89 26.1 57.2 26.13 57.6 26.13 C 58.97 26.13 59.76 25.75 60.3 25.4 C 60.64 25.16 60.85 25.1 61.1 25 C 61.1 25.04 61.1 25.07 61.1 25.1 C 61.07 25.2 61 25.33 60.84 25.47 C 60.5 25.75 59.84 26.03 59.06 26.27 C 58.3 26.5 57.4 26.7 56.63 26.93 C 56.04 27.1 55.6 27.34 55.17 27.6 C 55.2 27.47 55.23 27.3 55.23 27.07 C 55.23 26.9 55.2 26.67 55.06 26.47 C 54.9 26.26 54.67 26.1 54.4 26.07 C 53.9 26 53.3 26.1 52.33 26.43 C 48.34 27.76 48.7 30 48.3 30.4 C 48.1 30.6 47.6 30.63 46.87 30.7 C 46.15 30.76 45.2 30.9 44.46 31.67 C 43.15 33 42.77 33.7 42.45 34.36 C 42.13 35 41.87 35.54 40.6 36.8 C 39.4 38 38.6 38.26 37.6 38.6 C 36.66 38.9 35.57 39.3 34.23 40.6 C 31.77 43.1 32.55 45.6 32.74 46.8 C 32.36 46.8 31.93 46.8 31.7 46.74 C 31.53 46.7 31.43 46.6 31.36 46.53 C 31.3 46.44 31.25 46.33 31.25 46.1 C 31.25 45.3 30.83 44.5 30.1 43.94 C 29.34 43.4 28.27 43.04 26.9 43.04 C 25.55 43.04 24.74 43.4 24.2 43.75 C 23.93 43.93 23.73 44.1 23.57 44.17 C 23.4 44.27 23.27 44.3 23.07 44.3 C 22.66 44.3 22.06 44.05 21.4 43.73 C 20.76 43.4 20.04 43.04 19.23 43.04 C 18.6 43.04 18.04 43.34 17.53 43.7 C 17 44.04 16.57 44.46 16.24 44.8 A .5 .5 0 0 0 16.2 44.87 C 19.4 36.77 24.75 29.85 31.37 24.4 A .5 .5 0 0 0 31.77 24.9 C 33 25 33.8 25.2 34.6 25.3 C 34.53 25.33 34.43 25.3 34.36 25.34 C 33.9 25.56 33.6 25.9 32.95 26.55 C 32.3 27.2 31.66 27.84 31.2 28.46 C 31 28.76 30.8 29.07 30.75 29.4 C 30.67 29.75 30.75 30.2 31.03 30.46 C 31.2 30.6 31.4 30.7 31.6 30.7 C 31.85 30.73 32.03 30.65 32.2 30.56 C 32.5 30.37 32.7 30.1 32.94 29.8 C 33.4 29.2 33.9 28.4 34.3 27.87 C 34.75 27.37 35.36 26.9 35.9 26.56 C 35.93 26.46 36 26.37 36.1 26.3 C 36 26.56 35.9 26.84 35.9 27.13 C 35.84 27.47 35.86 27.84 36.1 28.17 C 36.3 28.5 36.7 28.7 37.14 28.7 C 37.95 28.7 38.64 28.3 39.3 28 C 39.9 27.7 40.43 27.46 40.9 27.44 C 40.7 27.66 40.5 27.87 40.5 28.2 C 40.5 30.13 44.04 30.13 44.04 28.2 C 44.04 27.7 43.76 27.3 43.4 27.05 C 43.07 26.8 42.66 26.73 42.26 26.73 C 42.05 26.73 41.86 26.84 41.66 26.9 C 41.67 26.74 41.67 26.6 41.6 26.5 C 41.56 26.4 41.5 26.35 41.44 26.3 C 41.2 26.06 40.83 25.9 40.4 25.7 C 39.53 25.3 38.4 24.9 37.53 24.97 C 37.3 25 37 25.06 36.8 25.27 C 36.7 25.4 36.6 25.5 36.5 25.63 C 36.5 25.55 36.47 25.47 36.43 25.4 C 36.4 25.36 36.37 25.37 36.34 25.34 C 36.75 25.24 37.15 25.05 37.5 24.7 C 37.9 24.4 38 24 38 23.63 C 37.97 23.25 37.77 22.9 37.5 22.67 C 36.94 22.2 36.1 22 35.13 22.05 C 34.7 22.1 34.26 22.2 33.83 22.37 C 36.94 20.1 40.2 18.1 43.8 16.6 A .5 .5 0 0 0 43.5 16.96 C 43.5 17.2 43.4 17.8 43.47 18.4 C 43.5 18.67 43.6 19 43.8 19.26 C 44.03 19.54 44.4 19.73 44.8 19.73 C 45.2 19.73 45.6 19.6 45.86 19.4 C 46.14 19.23 46.34 18.97 46.5 18.7 C 46.86 18.2 47.15 17.6 47.73 17.03 C 48.16 16.6 48.83 16.3 49.5 16 C 50.06 15.8 50.56 15.54 51 15.2 C 51.03 15.2 51.06 15.17 51.1 15.16 L 51.1 15.15 C 51.15 15.1 51.27 15.1 51.34 15 A .5 .5 0 0 0 50.97 14.2 C 55.13 13.13 59.5 12.5 64 12.5 z M 66.26 13.06 C 80.5 13.67 93.17 20.06 102.03 29.95 C 102.03 29.95 101.1 32 101.1 33.4 C 101.1 34.6 101.1 35.86 102.37 35.86 C 104.93 35.86 103.5 39.13 102.37 39.7 C 99.8 41 99.8 42.26 99.8 43.54 C 99.8 44.8 97.26 45.45 96 46.73 C 94.06 48.65 94.5 48.36 93.4 49.93 C 92.9 50.66 92.76 51.25 92.14 52.5 C 90.86 55.05 92.14 53.77 92.14 55.05 C 92.14 56.33 92.14 58.9 90.86 61.44 C 89.6 64 94.7 66.56 94.7 67.84 C 94.7 69.1 96 70.37 99.8 72.95 C 101.05 73.8 104.93 72.95 107.5 72.95 C 109.6 72.95 111.73 71.23 114.56 70.6 C 111.43 95 91.23 113.87 66.25 114.94 C 66.85 114.2 67.43 113.4 67.84 112.6 C 69.1 110.05 68.24 109.25 69.1 107.5 C 70 105.7 74.23 106.2 75.5 103.65 C 76.8 101.1 78.07 99.8 78.07 96 C 78.07 92.14 81.9 92.14 81.9 85.74 C 80.63 84.47 76.8 81.9 75.5 81.9 C 74.23 81.9 67.84 80.63 66.56 79.35 C 65.3 78.07 62.7 71.67 60.16 71.67 C 57.6 71.67 56.33 71.67 55.05 70.4 C 53.77 69.1 51.2 66.56 44.8 65.3 C 38.4 64 35.86 65.3 35.86 66.56 C 35.86 67.84 30.75 67.84 29.47 67.84 C 28.2 67.84 26.9 66.56 26.9 65.3 C 26.9 64 28.2 61.44 26.9 60.16 C 25.63 58.9 23.07 61.44 21.8 60.16 C 20.5 58.9 24.35 56.33 24.35 53.77 C 20.5 53.77 20.5 55.05 19.23 56.33 C 17.96 57.6 16.7 57.6 15.4 57.6 C 14.6 57.6 14 56.6 13.65 55.9 C 14.24 52.14 15.24 48.56 16.6 45.14 C 17.23 44.5 18.33 43.54 19.23 43.54 C 20.5 43.54 21.9 44.8 23.07 44.8 C 24.25 44.8 24.35 43.54 26.9 43.54 C 29.47 43.54 30.75 44.8 30.75 46.1 C 30.75 47.37 32 47.37 33.4 47.37 C 33.4 46.1 32 43.53 34.6 41 C 37.14 38.4 38.4 39.7 41 37.14 C 43.54 34.6 42.26 34.6 44.8 32 C 46.1 30.74 47.86 31.5 48.65 30.74 C 49.44 29.97 48.65 28.2 52.5 26.9 C 56.33 25.63 53.77 28.2 55.05 28.2 C 56.33 26.9 62.7 26.9 61.44 24.35 C 60.16 24.35 60.16 25.63 57.6 25.63 C 55.05 25.63 60.16 21.8 58.9 21.8 C 57.6 21.8 56.33 20.5 58.9 20.5 C 59.9 20.5 59.76 22.07 61.44 21.8 C 62.2 21.66 60.16 20.5 62.7 20.5 C 65.3 20.5 65.3 19.23 66.56 19.23 C 67.84 19.23 64 23.07 64 23.07 C 64 23.07 67.84 24.35 69.1 24.35 C 70.4 24.35 70.4 23.07 69.1 21.8 C 67.84 20.5 66.56 21.8 67.84 20.5 C 69.1 19.23 70.4 16.67 67.84 15.4 C 66.6 14.77 66.27 13.85 66.26 13.06 z M 50.96 14.7 C 50.3 15.4 48.43 15.6 47.37 16.67 C 46.1 17.95 46.1 19.23 44.8 19.23 C 43.7 19.23 43.93 17.5 44 17.04 C 46.25 16.1 48.57 15.3 50.96 14.7 z M 35.16 22.55 C 36.9 22.43 38.1 23.4 37.14 24.35 C 36 25.5 34.9 24.6 31.8 24.4 C 32.43 23.9 33.07 23.4 33.73 22.9 C 34.2 22.7 34.7 22.6 35.16 22.55 z M 37.57 25.46 C 38.9 25.35 42.1 26.9 41 26.9 C 39.7 26.9 38.4 28.2 37.14 28.2 C 35.86 28.2 36.4 26.4 37.14 25.63 C 37.23 25.53 37.4 25.5 37.57 25.46 z M 35.86 25.63 C 36.5 25.63 34.9 26.43 33.94 27.55 C 33 28.7 32.03 30.75 31.4 30.1 C 30.75 29.46 32 28.2 33.4 26.9 C 34.6 25.63 34.6 25.63 35.86 25.63 z M 42.26 27.23 C 42.9 27.23 43.54 27.55 43.54 28.2 C 43.54 29.46 41 29.46 41 28.2 C 41 27.55 41.6 27.23 42.26 27.23 z M 35.86 28.96 C 35.66 28.96 35.5 29 35.3 29.06 C 35.13 29.13 34.94 29.3 34.87 29.5 C 34.8 29.7 34.84 29.93 34.9 30.1 C 35 30.23 35.1 30.35 35.2 30.46 C 35.63 30.9 36.33 31.24 37.14 31.24 C 37.95 31.24 38.66 30.87 39.2 30.5 C 39.7 30.17 40.05 29.8 40.05 29.8 A .5 .5 0 0 0 39.7 28.96 L 35.86 28.96 z M 35.86 29.46 L 39.7 29.46 C 39.7 29.46 38.4 30.74 37.14 30.74 C 35.86 30.74 34.6 29.46 35.86 29.46 z M 102.5 30.04 C 104 31.75 105.55 33.4 106.8 35.3 A .5 .5 0 0 0 106.07 35.23 C 105.7 35.6 105.4 35.86 105.2 36.17 C 105.07 36.33 105 36.5 104.94 36.7 C 104.9 36.9 104.9 37.1 105 37.3 C 105.2 37.7 105.56 37.9 106 38.1 C 106.5 38.3 107.1 38.47 107.9 38.7 A .5 .5 0 0 0 108.47 38.4 C 112.83 45.95 115.5 54.6 115.5 64 C 115.5 66.24 115.3 68.4 115.04 70.6 A .5 .5 0 0 0 114.46 70.13 C 112.97 70.45 111.7 71.06 110.55 71.56 C 109.4 72.06 108.4 72.45 107.5 72.45 C 106.16 72.45 104.54 72.67 103.1 72.77 C 102.4 72.8 101.75 72.85 101.2 72.8 C 100.67 72.77 100.27 72.66 100.1 72.54 C 98.2 71.25 96.93 70.3 96.2 69.55 C 95.4 68.8 95.2 68.3 95.2 67.84 C 95.2 67.5 95.06 67.26 94.9 67 C 94.73 66.8 94.5 66.54 94.27 66.3 C 93.8 65.8 93.2 65.3 92.65 64.77 C 92.1 64.2 91.63 63.65 91.37 63.1 C 91.1 62.6 91.06 62.15 91.3 61.66 C 92.65 59 92.64 56.33 92.64 55.05 C 92.64 54.64 92.5 54.3 92.3 54.1 C 92.16 53.96 92.1 53.95 92.1 53.94 C 92.1 53.93 92.1 53.94 92.1 53.9 C 92.13 53.7 92.3 53.34 92.6 52.7 C 93.2 51.44 93.37 50.9 93.83 50.2 C 94.94 48.6 94.4 49 96.33 47.1 C 96.9 46.53 97.8 46.06 98.63 45.56 C 99.05 45.3 99.44 45.06 99.75 44.75 C 100.06 44.43 100.3 44 100.3 43.54 C 100.3 42.9 100.3 42.36 100.6 41.84 C 100.84 41.3 101.4 40.75 102.6 40.14 C 103 39.93 103.35 39.57 103.63 39.13 C 103.9 38.7 104.15 38.2 104.25 37.66 C 104.36 37.14 104.34 36.57 104.03 36.1 C 103.7 35.63 103.1 35.36 102.37 35.36 C 102.14 35.36 102 35.3 101.94 35.24 C 101.86 35.2 101.8 35.1 101.73 34.9 C 101.6 34.55 101.6 33.94 101.6 33.4 C 101.6 32.8 101.8 31.96 102.03 31.3 C 102.26 30.65 102.5 30.15 102.5 30.15 A .5 .5 0 0 0 102.5 30.04 z M 106.4 35.6 C 107 36.45 107.5 37.3 108.03 38.2 C 104.8 37.35 104.94 36.95 106.4 35.6 z M 23.67 54.33 C 23.45 55.24 22.85 56.2 22.2 57.15 C 21.8 57.7 21.4 58.25 21.2 58.8 C 21.1 59.1 21 59.37 21.04 59.67 C 21.06 59.97 21.2 60.3 21.44 60.5 C 21.9 60.95 22.47 61.07 23 61 C 23.5 60.97 24.03 60.8 24.5 60.64 C 25 60.5 25.44 60.33 25.8 60.3 C 26.15 60.27 26.35 60.3 26.55 60.5 C 27 61 27.05 61.73 26.9 62.64 C 26.74 63.54 26.4 64.47 26.4 65.3 C 26.4 66.1 26.8 66.83 27.35 67.4 C 27.9 67.95 28.66 68.34 29.47 68.34 C 30.1 68.34 31.7 68.34 33.2 68.2 C 33.94 68.1 34.64 67.97 35.2 67.77 C 35.5 67.67 35.75 67.54 35.96 67.36 C 36.2 67.17 36.36 66.9 36.36 66.56 C 36.36 66.4 36.4 66.24 36.7 66.03 C 36.93 65.8 37.4 65.7 38.05 65.45 C 39.4 65.15 41.56 65.14 44.7 65.77 C 51 67.03 53.4 69.47 54.7 70.75 C 55.4 71.45 56.15 71.83 57.03 72 C 57.9 72.2 58.9 72.17 60.16 72.17 C 60.6 72.17 61.14 72.47 61.7 73.05 C 62.3 73.6 62.87 74.44 63.4 75.3 C 63.97 76.17 64.5 77.1 64.95 77.87 C 65.4 78.65 65.8 79.3 66.2 79.7 C 66.64 80.14 67.3 80.45 68.14 80.76 C 68.97 81.07 69.94 81.35 70.9 81.6 C 71.9 81.83 72.86 82.04 73.67 82.2 C 74.5 82.3 75.1 82.4 75.5 82.4 C 75.67 82.4 76.13 82.53 76.66 82.8 C 77.2 83.03 77.8 83.4 78.45 83.77 C 79.63 84.5 80.75 85.4 81.4 85.96 C 81.3 88.87 80.5 90.3 79.6 91.5 C 78.65 92.77 77.57 93.9 77.57 96 C 77.57 99.7 76.4 100.8 75.07 103.43 C 74.53 104.5 73.33 105 72 105.4 C 71.36 105.6 70.7 105.8 70.2 106.05 C 69.5 106.3 68.96 106.67 68.67 107.27 C 68.2 108.24 68.2 109 68.13 109.7 C 68.1 110.43 68 111.16 67.4 112.4 C 67 113.14 66.45 113.9 65.86 114.63 A .5 .5 0 0 0 66.2 115.4 C 65.45 115.4 64.74 115.5 64 115.5 C 56.67 115.5 49.74 113.94 43.44 111.2 A .5 .5 0 0 0 44.04 110.73 C 44 108.94 43.9 106.63 43.7 104.54 C 43.5 102.46 43.2 100.63 42.7 99.6 C 41.97 98.13 40.55 97.44 39.23 96.95 C 37.9 96.45 36.7 96.1 36.2 95.6 C 35.7 95.1 35.03 93.84 34.4 92.4 C 33.76 91 33.13 89.4 32.47 88.1 C 31.8 86.74 31.1 86.04 30.64 85.56 C 30.4 85.3 30.23 85.14 30.13 85 C 30.03 84.83 30 84.7 29.97 84.45 C 29.95 83.9 30.05 83.7 30.2 83.4 C 30.37 83.1 30.6 82.64 30.6 81.9 C 30.6 81.2 30.4 80.7 30.23 80.4 C 30.07 80.1 29.97 79.9 29.97 79.35 C 29.97 79.37 30 79.26 30.1 79.2 C 30.2 78.94 30.4 78.73 30.64 78.5 C 31.1 78.03 31.74 77.46 32.34 76.8 C 32.94 76.1 33.5 75.35 33.83 74.46 C 34.15 73.57 34.2 72.55 33.77 71.5 C 33.36 70.5 33 69.9 32.56 69.5 C 32.13 69.1 31.6 69 31.16 69.13 C 30.73 69.24 30.4 69.46 30.13 69.63 C 29.85 69.8 29.6 69.9 29.47 69.9 C 29.3 69.9 28.85 69.77 28.34 69.53 C 27.84 69.3 27.26 68.93 26.7 68.55 C 26.2 68.16 25.7 67.74 25.34 67.36 C 25 67 24.85 66.63 24.85 66.56 C 24.85 66.07 24.64 65.6 24.33 65.14 C 24 64.67 23.6 64.2 23.07 63.8 C 22.05 62.9 20.7 62.2 19.23 62.2 C 18.57 62.2 17.9 61.7 17.17 61.06 C 16.4 60.4 15.6 59.64 14.45 59.54 C 13.96 59.5 13.46 59.6 12.94 59.83 A .5 .5 0 0 0 12.7 60.2 C 12.8 58.77 12.96 57.37 13.2 56 A .5 .5 0 0 0 13.2 56.1 C 13.37 56.5 13.6 56.94 13.96 57.34 C 14.3 57.74 14.8 58.1 15.4 58.1 C 16.7 58.1 18.2 58.1 19.6 56.7 C 20.3 56 20.6 55.37 21.13 54.97 C 21.6 54.63 22.37 54.4 23.67 54.33 z M 14.4 60.03 C 16.27 60.2 17.44 62.7 19.23 62.7 C 21.8 62.7 24.35 65.3 24.35 66.56 C 24.35 67.84 28.2 70.4 29.47 70.4 C 30.75 70.4 31.75 67.9 33.4 71.67 C 34.86 75.47 29.47 78.07 29.47 79.35 C 29.47 80.63 30.1 80.63 30.1 81.9 C 30.1 83.2 29.4 83.16 29.47 84.46 C 29.5 85.77 30.74 85.74 32 88.3 C 33.4 90.86 34.6 94.7 35.86 96 C 37.14 97.26 41 97.26 42.26 99.8 C 43.1 101.55 43.4 107.2 43.54 110.75 C 25.53 102.9 13 84.97 13 64 C 13 62.75 13.06 61.5 13.15 60.3 C 13.6 60.1 14 60 14.4 60.03 z " fill="currentColor" opacity=".6"/></g><use href="#uq5" opacity=".4"></use><use fill="url(#uq3)" href="#uq5" opacity=".2"></use><path d="M 108,64 C 96,64 96,72 80,72 H 28 c -6.65,0 -12,5.35 -12,12 v 128 c 0,6.65 5.35,12 12,12 h 200 c 6.65,0 12,-5.35 12,-12 V 104 84 76 c 0,-6.65 -5.35,-12 -12,-12 z" fill="url(#uq2)" opacity=".2"/><path class="ColorScheme-Contrast" d="m 16,211 v 1 c 0,6.65 5.35,12 12,12 h 200 c 6.65,0 12,-5.35 12,-12 v -1 c 0,6.65 -5.35,12 -12,12 H 28 c -6.65,0 -12,-5.35 -12,-12 z" fill="currentColor" opacity=".1"/><path class="ColorScheme-Contrast" d="m 16,211.5 v 0.5 c 0,6.65 5.35,12 12,12 h 200 c 6.65,0 12,-5.35 12,-12 v -0.5 c 0,6.65 -5.35,12 -12,12 H 28 c -6.65,0 -12,-5.35 -12,-12 z" fill="currentColor" opacity=".2"/><path d="M 108,64 C 96,64 96,72 80,72 H 28 c -6.65,0 -12,5.35 -12,12 v 1 c 0,-6.65 5.35,-12 12,-12 h 52 c 16,0 16,-8 28,-8 h 120 c 6.65,0 12,5.35 12,12 v -1 c 0,-6.65 -5.35,-12 -12,-12 z" fill="#fff" opacity=".1"/><path d="M 108,64 C 96,64 96,72 80,72 H 28 c -6.65,0 -12,5.35 -12,12 v 0.5 c 0,-6.65 5.35,-12 12,-12 h 52 c 16,0 16,-8 28,-8 h 120 c 6.65,0 12,5.35 12,12 V 76 c 0,-6.65 -5.35,-12 -12,-12 z" fill="#fff" opacity=".2"/><path d="M 108,63 C 96,63 96,71 80,71 H 28 v 1 h 52 c 16,0 16,-8 28,-8 h 120 v -1 z" opacity=".1"/><path d="m 108,63.5 c -12,0 -12,8 -28,8 H 28 V 72 h 52 c 16,0 16,-8 28,-8 h 120 v -0.5 z" opacity=".2"/></g>
</svg>