<svg height="256" version="1.1" width="256" xmlns="http://www.w3.org/2000/svg" xmlns:svg="http://www.w3.org/2000/svg" xmlns:xlink="http://www.w3.org/1999/xlink">
<defs id="primary-definitions">
<style id="current-color-scheme" type="text/css">
      .ColorScheme-Text           { color:#fff; }
      .ColorScheme-Background     { color:#111; }
      .ColorScheme-Highlight      { color:#3daefd; }
      .ColorScheme-ViewBackground { color:#000; }
      .ColorScheme-PositiveText   { color:#27ae60; }
      .ColorScheme-NeutralText    { color:#f67400; }
      .ColorScheme-NegativeText   { color:#da4453; }
    </style>
<style id="extended-color-scheme" type="text/css">
      .ExScheme-Black     { color:#3e3e3e; }
      .ExScheme-White     { color:#fcfcfc; }
      .ExScheme-Grey-1    { color:#cfd5d5; }
      .ExScheme-Grey-2    { color:#909c9c; }
      .ExScheme-Grey-3    { color:#536161; }
      .ExScheme-Red-1     { color:#ffafa5; }
      .ExScheme-Red-2     { color:#bf4231; }
      .ExScheme-Red-3     { color:#4d2f2b; }
      .ExScheme-Green-1   { color:#abf9c7; }
      .ExScheme-Green-2   { color:#3bb566; }
      .ExScheme-Green-3   { color:#377d50; }
      .ExScheme-Blue-1    { color:#abdaf9; }
      .ExScheme-Blue-2    { color:#3daefd; }
      .ExScheme-Blue-3    { color:#2b3c4d; }
      .ExScheme-Yellow-1  { color:#faffa5; }
      .ExScheme-Yellow-2  { color:#cac726; }
      .ExScheme-Yellow-3  { color:#4b4d2b; }
      .ExScheme-Orange-1  { color:#ffdaa5; }
      .ExScheme-Orange-2  { color:#ff9701; }
      .ExScheme-Orange-3  { color:#4d372b; }
      .ExScheme-Brown-1   { color:#e9d6bb; }
      .ExScheme-Brown-2   { color:#997657; }
      .ExScheme-Brown-3   { color:#433a35; }
      .ExScheme-Purple-1  { color:#e2abf9; }
      .ExScheme-Purple-2  { color:#b401ff; }
      .ExScheme-Purple-3  { color:#432b4d; }
      .ExScheme-Cyan-1    { color:#b2f2e6; }
      .ExScheme-Cyan-2    { color:#31bfa6; }
      .ExScheme-Cyan-3    { color:#2b4d47; }
      .ExScheme-Magenta-1 { color:#f8a6d8; }
      .ExScheme-Magenta-2 { color:#f00091; }
      .ExScheme-Magenta-3 { color:#770048; }
    </style>
<linearGradient id="uDn">
<stop offset="0"/>
<stop offset="1" stop-opacity="0"/>
</linearGradient>
<linearGradient id="uDo">
<stop offset="0" stop-color="#fff"/>
<stop offset="1" stop-color="#fff" stop-opacity="0"/>
</linearGradient>
<style class="toggle-enable-crease" type="text/css">
        .folder-crease { display: none; }
    </style><style class="toggle-manilla-folders" type="text/css">
        .folder-manilla { display: none; }
    </style><radialGradient cx=".5" cy="0" id="uDp" r="1" xlink:href="#uDo"/><linearGradient id="uDq" xlink:href="#uDn" y1="1" y2=".5"/><path d="m 40,32 c -6.65,0 -12,5.35 -12,12 v 28 c -6.65,0 -12,5.35 -12,12 v 128 c 0,6.65 5.35,12 12,12 h 200 c 6.65,0 12,-5.35 12,-12 V 104 84 76 c 0,-6.65 -5.35,-12 -12,-12 V 52 c 0,-6.65 -5.35,-12 -12,-12 H 112 C 96,40 96,32 84,32 Z" id="uDr"></path><path d="m 40,32 c -6.65,0 -12,5.35 -12,12 v 28 h 52 c 16,0 16,-8 28,-8 H 228 V 52 c 0,-6.65 -5.35,-12 -12,-12 H 112 C 96,40 96,32 84,32 Z" id="uDs"></path></defs>
<g id="content" transform="translate(0,0)"><use class="folder-manilla ExScheme-Brown-1" fill="currentColor" href="#uDr"></use><use class="toggle-manilla-folders ColorScheme-Highlight" fill="currentColor" href="#uDr" id="primary-color"></use><use class="ColorScheme-Text" fill="currentColor" href="#uDr" opacity=".1"></use><g id="emblem" transform="translate(64,84)"><path class="ColorScheme-Background" d="m 90,5.7 c -.96,-.55 -2.2,-.23 -2.73,.73 l -3,5.2 -1.73,-1 c -1.9,-1.1 -4.36,-.46 -5.46,1.46 L 57.07,46.7 c -1.1,1.9 -.46,4.36 1.46,5.46 l 6.93,4 c 1.9,1.1 4.36,.46 5.46,-1.46 L 85.85,28.9 c .76,3 .77,6.67 -1.45,10.5 L 66.4,70.6 a 2,2 0 0 0 .73,2.73 2,2 0 0 0 2.73,-.73 L 87.86,41.4 c 3.77,-6.54 2.43,-12.77 .56,-16.96 l 2.5,-4.36 c 1.1,-1.9 .46,-4.36 -1.46,-5.46 L 87.73,13.6 90.73,8.4 C 91.3,7.46 90.96,6.24 90,5.7 Z M 53.07,53.65 33.07,88.3 C 25.07,102.15 24,120 24,120 c 0,0 14.93,-9.86 22.93,-23.7 L 66.93,61.65 Z" fill="currentColor" opacity=".6"/><path class="ColorScheme-Background" d="M 72.3 88.17 C 72.2 88.17 72.13 88.17 72.03 88.2 C 70.53 88.33 69.16 89.34 67.94 90.76 C 66.07 92.93 64.7 96.1 63.7 99.2 C 63.55 99.23 63.4 99.3 63.24 99.34 C 55.46 101.5 47.05 102.8 47.05 102.8 A 0.5 0.5 0 0 0 46.63 103.4 A 0.5 0.5 0 0 0 47.2 103.8 C 47.2 103.8 55.54 102.5 63.34 100.34 C 63.2 100.9 62.9 101.46 62.8 102 C 62.27 104.7 61.3 107.2 60.3 109.3 C 59.5 109.6 58.5 109.87 57.87 110.17 C 56.9 110.65 56.1 111.13 55.57 111.65 C 55.3 111.9 55.1 112.2 55 112.54 C 54.9 112.87 55 113.26 55.2 113.56 C 55.5 114.04 55.85 114.4 56.3 114.53 C 56.75 114.7 57.24 114.6 57.67 114.4 C 58.54 114.03 59.3 113.15 60.1 111.97 C 60.4 111.46 60.7 110.7 61 110.1 C 62.54 109.5 63.94 108.93 65.7 108.4 C 70.4 107 75.03 105.96 76.54 105.63 L 73.33 111.05 A 0.5 0.5 0 0 0 73.5 111.74 A 0.5 0.5 0 0 0 74.2 111.56 L 79.35 102.85 C 79.53 103.4 79.94 103.9 80.67 104.15 C 81.04 104.3 81.8 104.1 82.35 104.13 C 82.3 104.75 82.2 105.4 82.4 105.9 C 82.7 106.66 83.46 107.2 84.4 107.17 C 86.04 107.1 87.44 106.34 88.46 105.86 C 88.97 105.63 89.4 105.47 89.6 105.45 C 89.73 105.44 89.8 105.46 89.8 105.47 C 89.83 105.5 89.87 105.5 89.93 105.64 C 89.9 105.6 89.96 106 89.9 106.5 C 89.8 107 89.64 107.7 89.4 108.5 C 89.37 108.64 89.3 108.85 89.23 109 C 88.07 110.5 86.93 112.07 86 113.57 C 84.9 115.27 84.04 116.86 83.53 118.13 C 83.3 118.77 83.1 119.3 83.07 119.8 C 83.05 120.05 83.06 120.3 83.13 120.5 C 83.2 120.73 83.35 120.96 83.57 121.1 C 83.8 121.24 84.13 121.23 84.37 121.14 C 84.6 121.05 84.8 120.9 85 120.7 C 85.35 120.36 85.7 119.84 86.1 119.2 C 86.87 117.9 87.7 116.1 88.47 114.2 C 89.13 112.6 89.67 110.96 90.1 109.5 C 91.5 107.7 92.93 106.1 94.2 104.96 C 95.17 104.1 95.85 103.37 96.5 102.66 L 94.1 108.25 L 94.1 108.25 C 94.1 108.25 94.07 108.27 94.07 108.27 A .5 .5 0 0 0 95 108.65 L 95 108.63 L 95 108.63 C 95 108.6 96.5 104.8 100.34 103.3 C 103.7 102 104.6 101.8 105.13 101.7 C 104.87 102.3 104.6 102.96 104 104.4 C 103.6 105.35 103.23 106.37 102.93 107.25 C 102.6 108.13 102.4 108.8 102.37 109.3 C 102.34 109.7 102.3 110.3 102.53 110.85 C 102.63 111.13 102.8 111.4 103.1 111.6 C 103.36 111.8 103.74 111.9 104.15 111.9 C 104.96 111.83 105.97 111.37 107.4 110.3 C 108.87 109.26 110.77 107.6 113.3 105.04 A 0.5 0.5 0 0 0 113.3 104.33 A 0.5 0.5 0 0 0 112.57 104.33 C 110.1 106.87 108.2 108.5 106.83 109.5 C 105.45 110.5 104.54 110.86 104.1 110.9 C 103.85 110.9 103.75 110.86 103.67 110.8 C 103.6 110.74 103.5 110.65 103.46 110.5 C 103.36 110.2 103.35 109.73 103.37 109.4 C 103.4 109.17 103.6 108.43 103.87 107.6 C 104.17 106.73 104.56 105.7 104.94 104.75 C 105.7 102.8 106.47 101.05 106.47 101.05 A .5 .5 0 0 0 105.9 100.37 C 105.9 100.37 104.05 100.77 99.97 102.36 C 98.66 102.9 97.67 103.63 96.83 104.43 L 99.63 98 L 99.6 97.97 C 99.6 97.97 99.67 97.87 99.67 97.87 A .5 .5 0 0 0 99.1 97.3 A .5 .5 0 0 0 98.7 97.6 L 98.54 98 C 98.5 98.16 98.47 98.4 97.9 99.3 C 97.2 100.44 95.9 102.1 93.54 104.2 C 92.65 105 91.7 106.15 90.73 107.26 C 90.77 107.07 90.84 106.83 90.87 106.66 C 90.96 106.1 91.04 105.7 90.84 105.23 C 90.73 104.97 90.54 104.74 90.3 104.6 C 90.06 104.46 89.8 104.43 89.54 104.45 C 89.04 104.5 88.57 104.7 88.04 104.96 C 87 105.45 85.7 106.1 84.35 106.17 C 83.8 106.2 83.53 106 83.33 105.5 C 83.2 105.2 83.26 104.63 83.3 104.1 C 83.73 104.07 83.9 104.2 84.43 104.1 C 86.16 103.75 87.45 103.3 88.4 102.8 C 89.3 102.3 89.9 101.8 90.1 101.1 C 90.2 100.8 90.15 100.43 90 100.14 C 89.8 99.85 89.54 99.64 89.2 99.5 C 88.6 99.2 87.7 99.1 86.6 99.2 C 84.3 99.44 82.9 101.34 82.4 103.16 C 81.96 103.15 81.23 103.3 81 103.2 C 80.4 103 80.3 102.77 80.2 102.43 C 80.1 101.75 80.63 100.7 80.64 100.7 C 80.64 100.7 80.64 100.7 80.64 100.7 L 80.64 100.67 A .5 .5 0 0 0 79.8 100.17 L 79.77 100.17 L 79.77 100.2 L 77.2 104.53 A 0.5 0.5 0 0 0 77 104.5 C 77 104.5 71.2 105.76 65.44 107.44 C 64 107.86 62.94 108.35 61.64 108.8 C 62.5 106.8 63.3 104.6 63.8 102.2 C 63.93 101.5 64.3 100.7 64.5 100 C 68.06 98.94 71.44 97.74 73.76 96.34 C 75.04 95.6 76 94.76 76.54 93.8 C 77.06 92.85 77.04 91.7 76.34 90.7 C 75.1 88.96 73.7 88.14 72.3 88.17 z M 72.54 89.17 C 73.5 89.2 74.5 89.8 75.5 91.3 C 76.05 92.04 76.04 92.63 75.66 93.3 C 75.3 94 74.44 94.77 73.25 95.5 C 71.2 96.7 68.14 97.8 64.9 98.8 C 65.85 96.04 67.2 93.27 68.7 91.4 C 69.83 90.1 71.03 89.3 72.13 89.2 C 72.27 89.17 72.4 89.16 72.54 89.17 z M 87.4 100.16 C 88.03 100.16 88.5 100.26 88.8 100.4 C 89 100.5 89.1 100.57 89.1 100.64 C 89.15 100.7 89.16 100.74 89.1 100.84 C 89.06 101.05 88.7 101.5 87.9 101.9 C 87.1 102.35 85.9 102.8 84.23 103.1 C 83.86 103.2 83.8 103.1 83.5 103.13 C 84 101.73 85.03 100.37 86.7 100.2 C 86.95 100.17 87.2 100.16 87.4 100.16 z M 59.67 110.6 C 59.5 110.83 59.4 111.2 59.25 111.43 C 58.54 112.53 57.8 113.26 57.26 113.5 C 57 113.63 56.8 113.64 56.6 113.6 C 56.44 113.5 56.24 113.37 56 113.03 C 55.96 112.93 55.95 112.9 56 112.8 C 56 112.7 56.1 112.54 56.3 112.36 C 56.65 112 57.37 111.53 58.3 111.07 C 58.65 110.9 59.27 110.75 59.67 110.6 z M 88.04 112.4 C 87.86 112.9 87.75 113.33 87.54 113.83 C 86.8 115.7 85.97 117.46 85.24 118.7 C 84.9 119.3 84.53 119.76 84.3 120 C 84.2 120.1 84.13 120.13 84.1 120.16 C 84.07 120.1 84.06 120.03 84.07 119.9 C 84.1 119.6 84.23 119.1 84.46 118.5 C 84.93 117.33 85.77 115.77 86.8 114.1 C 87.2 113.54 87.65 112.97 88.04 112.4 z " fill="currentColor" opacity=".6"/><path class="ColorScheme-Background" d="m 72.3,88.17 c -.1,0 -.2,0 -.3,0 -1.5,.15 -2.87,1.16 -4.1,2.6 -1.87,2.17 -3.25,5.34 -4.2,8.4 -.17,.05 -.3,.1 -.5,.15 -7.77,2.2 -16.2,3.5 -16.2,3.5 a 0.5,0.5 0 0 0 -.4,.57 0.5,0.5 0 0 0 .57,.4 c 0,0 8.34,-1.3 16.14,-3.47 -.15,.55 -.43,1.1 -.53,1.65 -.54,2.7 -1.5,5.2 -2.5,7.3 -.77,.3 -1.8,.57 -2.43,.9 -1,.5 -1.77,.95 -2.3,1.5 -.26,.26 -.46,.55 -.56,.9 -.1,.34 -.03,.7 .16,1.03 .3,.47 .7,.8 1.13,.96 .45,.15 .93,.1 1.37,-.1 .87,-.4 1.65,-1.27 2.4,-2.45 .33,-.5 .6,-1.26 .9,-1.87 1.5,-.6 2.93,-1.17 4.7,-1.7 4.66,-1.4 9.3,-2.44 10.8,-2.77 l -3.2,5.4 a 0.5,0.5 0 0 0 .2,.7 0.5,0.5 0 0 0 .7,-.17 l 5.16,-8.7 c .2,.54 .6,1.06 1.3,1.3 .4,.13 1.15,-.03 1.7,-.03 -.05,.6 -.16,1.26 .06,1.77 .3,.76 1.05,1.3 2,1.27 1.64,-.1 3.04,-.83 4.06,-1.3 .5,-.24 .94,-.4 1.16,-.4 .1,-0 .16,0 .2,0 .03,0 .07,.04 .1,.17 -0,-.05 .03,.34 -.05,.86 -.1,.5 -.25,1.2 -.47,2 -.04,.16 -.14,.37 -.2,.54 -1.16,1.5 -2.4,3.05 -3.25,4.56 -1.07,1.7 -1.94,3.3 -2.45,4.56 -.25,.64 -.4,1.2 -.46,1.67 -0,.24 -0,.47 .05,.7 .07,.23 .2,.45 .44,.6 .25,.15 .57,.14 .8,.05 .23,-.1 .4,-.24 .6,-.4 .37,-.36 .74,-.9 1.1,-1.53 .77,-1.3 1.6,-3.1 2.37,-5 .66,-1.63 1.2,-3.25 1.65,-4.7 1.4,-1.77 2.8,-3.4 4.1,-4.53 .97,-.86 1.65,-1.6 2.3,-2.3 l -2.43,5.6 0,0 c -4.5e-5,1.1e-4 -0,0 -0,0 a .5,.5 0 0 0 .9,.4 l 0,-0 0,-0 c 0,-0 1.5,-3.84 5.33,-5.33 3.35,-1.3 4.3,-1.5 4.8,-1.6 -.26,.6 -.56,1.3 -1.1,2.7 -.4,1 -.8,2 -1.1,2.9 -.3,.9 -.53,1.56 -.56,2.07 -.03,.4 -.05,.97 .16,1.53 .1,.3 .3,.56 .56,.76 .3,.2 .65,.3 1.06,.27 .8,-.05 1.8,-.5 3.27,-1.57 1.45,-1.06 3.35,-2.73 5.86,-5.3 a 0.5,0.5 0 0 0 -0,-.7 0.5,0.5 0 0 0 -.7,0 c -2.5,2.53 -4.36,4.17 -5.74,5.2 -1.4,1 -2.3,1.35 -2.75,1.4 -.23,0 -.34,-.03 -.4,-.1 -0.08,-.06 -.15,-.15 -.2,-.3 -.1,-.3 -.1,-.77 -.1,-1.1 0,-.2 .2,-.96 .5,-1.8 .3,-.85 .7,-1.86 1.07,-2.83 .77,-1.93 1.53,-3.7 1.53,-3.7 a .5,.5 0 0 0 -.56,-.7 c 0,0 -1.86,.4 -5.94,2 -1.3,.5 -2.4,1.27 -3.14,2.07 l 2.8,-6.45 -0,-0 c 9.16e-4,-0 .05,-.1 .05,-.1 a .5,.5 0 0 0 -.6,-.6 .5,.5 0 0 0 -.37,.3 l -.2,.4 c -.04,.16 -.07,.4 -.63,1.33 -.7,1.1 -2,2.8 -4.36,4.9 -.9,.8 -1.86,1.94 -2.8,3.04 .04,-.2 .1,-.43 .14,-.6 .1,-.6 .17,-1 -.03,-1.43 -.1,-.27 -.3,-.5 -.54,-.63 -.24,-.14 -.5,-.17 -.76,-.15 -.5,.04 -.97,.26 -1.5,.5 -1.06,.5 -2.33,1.14 -3.7,1.2 -.57,.03 -.8,-.2 -1,-.65 -.14,-.33 -.07,-.9 -.03,-1.4 .4,-.04 .6,.1 1.1,-0 1.73,-.35 3.03,-.8 3.95,-1.3 .9,-.5 1.5,-1 1.7,-1.7 .1,-.33 .06,-.7 -.1,-1 -.17,-.3 -.44,-.5 -.76,-.66 -.64,-.3 -1.5,-.4 -2.6,-.3 -2.4,.24 -3.7,2.13 -4.2,3.96 -.43,-0 -1.16,.1 -1.4,.04 -.57,-.2 -.7,-.44 -.77,-.8 -.13,-.7 .4,-1.75 .4,-1.75 0,0 0,-0 0,-0 v -0 a .5,.5 0 0 0 -.86,-.5 l -0,0 -0,0 -2.6,4.36 a 0.5,0.5 0 0 0 -.2,-.03 c 0,0 -5.9,1.26 -11.57,2.94 -1.4,.4 -2.5,.9 -3.8,1.37 .9,-2 1.67,-4.2 2.15,-6.63 .14,-.7 .5,-1.46 .7,-2.2 3.55,-1.04 6.93,-2.23 9.25,-3.63 1.27,-.77 2.26,-1.6 2.8,-2.54 .5,-.95 .5,-2.1 -.2,-3.1 -1.2,-1.75 -2.6,-2.56 -4,-2.54 z m .23,1 c .97,.05 1.95,.63 2.97,2.1 .53,.77 .53,1.35 .15,2.04 -.4,.7 -1.2,1.45 -2.4,2.17 -2.03,1.23 -5.1,2.33 -8.36,3.3 .95,-2.76 2.2,-5.53 3.8,-7.4 1.13,-1.3 2.33,-2.13 3.43,-2.23 .14,-0 .3,-0 .4,-0 z m 14.85,11 c .64,-0 1.1,.1 1.4,.23 .2,.1 .3,.2 .3,.25 .04,.06 .04,.1 0,.2 -.06,.2 -.4,.65 -1.2,1.1 -.8,.43 -2,.86 -3.7,1.2 -.37,.07 -.4,-0 -.73,0 .5,-1.4 1.5,-2.76 3.2,-2.94 .25,-.03 .5,-.04 .7,-.04 z m -27.73,10.43 c -.14,.25 -.27,.6 -.4,.84 -.7,1.1 -1.45,1.84 -2,2.1 -.27,.1 -.46,.13 -.64,.07 -.2,-.06 -.4,-.2 -.6,-.55 -.06,-.1 -.07,-.13 -.04,-.23 .03,-.1 .1,-.25 .3,-.44 .37,-.37 1.1,-.83 2,-1.3 .34,-.17 .96,-.3 1.36,-.5 z m 28.4,1.8 c -.2,.5 -.3,.94 -0.5,1.43 -.75,1.85 -1.6,3.63 -2.4,4.85 -.36,.6 -.7,1.1 -.96,1.33 -.1,.1 -.15,.1 -.2,.15 -0,-.06 -0,-.13 -0,-.26 .03,-.3 .16,-.8 .4,-1.4 .47,-1.17 1.3,-2.73 2.36,-4.4 .36,-.56 .8,-1.13 1.2,-1.7 z" fill="currentColor" opacity=".6"/><path class="ColorScheme-Background" d="M 88.86 5.4 C 88.2 5.46 87.6 5.8 87.27 6.4 L 84.27 11.6 L 82.54 10.6 C 80.6 9.5 78.2 10.16 77.07 12.1 L 57.07 46.7 C 55.96 48.64 56.6 51.1 58.54 52.2 L 65.46 56.2 C 67.4 57.3 69.8 56.64 70.93 54.7 L 85.85 28.9 C 86.6 31.87 86.6 35.55 84.4 39.4 L 66.4 70.6 A 2 2 0 0 0 67.1 73.3 A 2 2 0 0 0 69.86 72.6 L 87.86 41.4 C 91.63 34.86 90.3 28.6 88.4 24.44 L 90.93 20.1 C 92.04 18.16 91.4 15.7 89.46 14.6 L 87.73 13.6 L 90.73 8.4 C 91.3 7.46 90.96 6.24 90 5.7 C 89.64 5.5 89.24 5.4 88.86 5.4 z M 89.2 5.93 C 89.4 5.95 89.57 6 89.75 6.1 C 90.5 6.54 90.7 7.44 90.3 8.17 L 87.05 13.8 L 89.2 15.05 C 90.9 16 91.47 18.14 90.5 19.83 L 87.85 24.4 L 87.96 24.64 C 89.8 28.74 91.1 34.8 87.4 41.15 L 69.4 72.33 C 69 73.05 68.2 73.3 67.4 72.9 C 66.65 72.46 66.4 71.55 66.83 70.83 L 84.83 39.65 C 87.1 35.7 87.1 31.84 86.33 28.76 L 86.03 27.57 L 70.5 54.47 C 69.5 56.16 67.4 56.7 65.7 55.75 L 58.8 51.75 C 57.1 50.8 56.53 48.66 57.5 46.97 L 77.5 12.33 C 78.5 10.64 80.7 10.07 82.3 11.05 L 84.45 12.3 L 87.7 6.67 C 87.9 6.3 88.24 6.06 88.6 5.96 C 88.8 5.9 89 5.9 89.2 5.93 z M 53.07 53.65 L 33.07 88.3 C 25.07 102.15 24 120 24 120 C 24 120 38.93 110.15 46.93 96.3 L 66.93 61.65 L 53.07 53.65 z M 53.26 54.33 L 66.25 61.83 L 46.5 96.04 C 39.3 108.5 26.9 117.4 24.6 118.95 C 24.83 116.2 26.3 101 33.5 88.54 L 53.26 54.33 z " fill="currentColor" opacity=".6"/></g><use href="#uDs" opacity=".4"></use><use class="toggle-flat-design" fill="url(#uDq)" href="#uDs" opacity=".2"></use><path class="toggle-flat-design" d="M 108,64 C 96,64 96,72 80,72 H 28 c -6.65,0 -12,5.35 -12,12 v 128 c 0,6.65 5.35,12 12,12 h 200 c 6.65,0 12,-5.35 12,-12 V 104 84 76 c 0,-6.65 -5.35,-12 -12,-12 z" fill="url(#uDp)" opacity=".2"/><path class="folder-crease " d="m 16,176 v 8 h 36 c 2.2,0 4,-1.8 4,-4 0,-2.2 -1.8,-4 -4,-4 z m 188,0 c -2.2,0 -4,1.8 -4,4 0,2.2 1.8,4 4,4 h 36 v -8 z" opacity=".4"/><path class="ColorScheme-Text" d="m 16,211 v 1 c 0,6.65 5.35,12 12,12 h 200 c 6.65,0 12,-5.35 12,-12 v -1 c 0,6.65 -5.35,12 -12,12 H 28 c -6.65,0 -12,-5.35 -12,-12 z" fill="currentColor" opacity=".1"/><path class="ColorScheme-Text" d="m 16,211.5 v 0.5 c 0,6.65 5.35,12 12,12 h 200 c 6.65,0 12,-5.35 12,-12 v -0.5 c 0,6.65 -5.35,12 -12,12 H 28 c -6.65,0 -12,-5.35 -12,-12 z" fill="currentColor" opacity=".2"/><path d="M 108,64 C 96,64 96,72 80,72 H 28 c -6.65,0 -12,5.35 -12,12 v 1 c 0,-6.65 5.35,-12 12,-12 h 52 c 16,0 16,-8 28,-8 h 120 c 6.65,0 12,5.35 12,12 v -1 c 0,-6.65 -5.35,-12 -12,-12 z" fill="#fff" opacity=".1"/><path d="M 108,64 C 96,64 96,72 80,72 H 28 c -6.65,0 -12,5.35 -12,12 v 0.5 c 0,-6.65 5.35,-12 12,-12 h 52 c 16,0 16,-8 28,-8 h 120 c 6.65,0 12,5.35 12,12 V 76 c 0,-6.65 -5.35,-12 -12,-12 z" fill="#fff" opacity=".2"/><path d="M 108,63 C 96,63 96,71 80,71 H 28 v 1 h 52 c 16,0 16,-8 28,-8 h 120 v -1 z" opacity=".1"/><path d="m 108,63.5 c -12,0 -12,8 -28,8 H 28 V 72 h 52 c 16,0 16,-8 28,-8 h 120 v -0.5 z" opacity=".2"/></g>
</svg>