<svg height="256" version="1.1" width="256" xmlns="http://www.w3.org/2000/svg" xmlns:svg="http://www.w3.org/2000/svg" xmlns:xlink="http://www.w3.org/1999/xlink">
<defs id="primary-definitions">
<style id="current-color-scheme" type="text/css">
      .ColorScheme-Text           { color:#fff; }
      .ColorScheme-Background     { color:#111; }
      .ColorScheme-Highlight      { color:#3daefd; }
      .ColorScheme-ViewBackground { color:#000; }
      .ColorScheme-PositiveText   { color:#27ae60; }
      .ColorScheme-NeutralText    { color:#f67400; }
      .ColorScheme-NegativeText   { color:#da4453; }
    </style>
<style id="extended-color-scheme" type="text/css">
      .ExScheme-Black     { color:#3e3e3e; }
      .ExScheme-White     { color:#fcfcfc; }
      .ExScheme-Grey-1    { color:#cfd5d5; }
      .ExScheme-Grey-2    { color:#909c9c; }
      .ExScheme-Grey-3    { color:#536161; }
      .ExScheme-Red-1     { color:#ffafa5; }
      .ExScheme-Red-2     { color:#bf4231; }
      .ExScheme-Red-3     { color:#4d2f2b; }
      .ExScheme-Green-1   { color:#abf9c7; }
      .ExScheme-Green-2   { color:#3bb566; }
      .ExScheme-Green-3   { color:#377d50; }
      .ExScheme-Blue-1    { color:#abdaf9; }
      .ExScheme-Blue-2    { color:#3daefd; }
      .ExScheme-Blue-3    { color:#2b3c4d; }
      .ExScheme-Yellow-1  { color:#faffa5; }
      .ExScheme-Yellow-2  { color:#cac726; }
      .ExScheme-Yellow-3  { color:#4b4d2b; }
      .ExScheme-Orange-1  { color:#ffdaa5; }
      .ExScheme-Orange-2  { color:#ff9701; }
      .ExScheme-Orange-3  { color:#4d372b; }
      .ExScheme-Brown-1   { color:#e9d6bb; }
      .ExScheme-Brown-2   { color:#997657; }
      .ExScheme-Brown-3   { color:#433a35; }
      .ExScheme-Purple-1  { color:#e2abf9; }
      .ExScheme-Purple-2  { color:#b401ff; }
      .ExScheme-Purple-3  { color:#432b4d; }
      .ExScheme-Cyan-1    { color:#b2f2e6; }
      .ExScheme-Cyan-2    { color:#31bfa6; }
      .ExScheme-Cyan-3    { color:#2b4d47; }
      .ExScheme-Magenta-1 { color:#f8a6d8; }
      .ExScheme-Magenta-2 { color:#f00091; }
      .ExScheme-Magenta-3 { color:#770048; }
    </style>
<linearGradient id="uPI">
<stop offset="0"/>
<stop offset="1" stop-opacity="0"/>
</linearGradient>
<linearGradient id="uPJ">
<stop offset="0" stop-color="#fff"/>
<stop offset="1" stop-color="#fff" stop-opacity="0"/>
</linearGradient>
<style class="toggle-enable-crease" type="text/css">
        .folder-crease { display: none; }
    </style><style class="toggle-manilla-folders" type="text/css">
        .folder-manilla { display: none; }
    </style><radialGradient cx=".5" cy="0" id="uPK" r="1" xlink:href="#uPJ"/><linearGradient id="uPL" xlink:href="#uPI" y1="1" y2=".5"/><path d="m 40,32 c -6.65,0 -11,5.43 -12,12 v 52 h -8 c -6.65,0 -12.5,5.37 -12,12 l 8,72 v 32 c 0,6.65 5.35,12 12,12 h 200 c 6.65,0 11.53,-5.37 12,-12 v -32 l 8,-80 c .66,-6.6 -5.35,-12 -12,-12 h -8 V 52 c 0,-6.65 -5.35,-12 -12,-12 H 112 C 96,40 96,32 84,32 Z" id="uPM"></path><path d="m 40,32 c -6.65,0 -12,5.35 -12,12 v 52 h 52 c 16,0 16,-7.9 28,-8 H 228 V 52 c 0,-6.65 -5.35,-12 -12,-12 H 112 C 96,40 96,32 84,32 Z" id="uPN"></path></defs>
<g id="content" transform="translate(0,0)"><use class="folder-manilla ExScheme-Brown-1" fill="currentColor" href="#uPM"></use><use class="toggle-manilla-folders ExScheme-Brown-2" fill="currentColor" href="#uPM" id="primary-color"></use><use class="ColorScheme-Text" fill="currentColor" href="#uPM" opacity=".1"></use><use href="#uPN" opacity=".4"></use><use class="toggle-flat-design" fill="url(#uPL)" href="#uPN" opacity=".2"></use><path class="toggle-flat-design" d="M 108,88 C 96,88 96,96 80,96 H 20 c -6.65,0 -12.5,5.37 -12,12 l 8,72 v 32 c 0,6.65 5.35,12 12,12 h 200 c 6.65,0 11.53,-5.37 12,-12 v -32 l 8,-80 c .66,-6.6 -5.35,-12 -12,-12 z" fill="url(#uPK)" opacity=".2"/><path class="folder-crease " d="M 15.55 176 L 16 180 L 16 184 L 240 184 L 240 180 L 240.4 176 L 15.55 176 z " opacity=".4"/><path class="ColorScheme-Text" d="m 16,211 v 1 c 0,6.65 5.35,12 12,12 h 200 c 6.65,0 12,-5.35 12,-12 v -1 c 0,6.65 -5.35,12 -12,12 H 28 c -6.65,0 -12,-5.35 -12,-12 z" fill="currentColor" opacity=".1"/><path class="ColorScheme-Text" d="m 16,211.5 v 0.5 c 0,6.65 5.35,12 12,12 h 200 c 6.65,0 12,-5.35 12,-12 v -0.5 c 0,6.65 -5.35,12 -12,12 H 28 c -6.65,0 -12,-5.35 -12,-12 z" fill="currentColor" opacity=".2"/><path d="M 108,88 C 96,88 96,96 80,96 H 20 c -6.65,0 -12,5.35 -12,12 v 1 c 0,-6.65 5.35,-12 12,-12 h 60 c 16,0 16,-8 28,-8 h 128 c 6.65,0 12,5.35 12,12 v -1 c 0,-6.65 -5.35,-12 -12,-12 z" fill="#fff" opacity=".1"/><path d="M 108,88 C 96,88 96,96 80,96 H 20 c -6.65,0 -12,5.35 -12,12 v 0.5 c 0,-6.65 5.35,-12 12,-12 h 60 c 16,0 16,-8 28,-8 h 128 c 6.65,0 12,5.35 12,12 V 100 c 0,-6.65 -5.35,-12 -12,-12 z" fill="#fff" opacity=".2"/><path d="M 108,87 C 96,87 96,95 80,95 H 28 v 1 h 52 c 16,0 16,-8 28,-8 h 120 v -1 z" opacity=".1"/><path d="m 108,87.5 c -12,0 -12,8 -28,8 H 28 V 96 h 52 c 16,0 16,-8 28,-8 h 120 v -0.5 z" opacity=".2"/></g>
</svg>