<svg height="256" version="1.1" width="256" xmlns="http://www.w3.org/2000/svg" xmlns:svg="http://www.w3.org/2000/svg" xmlns:xlink="http://www.w3.org/1999/xlink">
<defs id="primary-definitions">
<style id="current-color-scheme" type="text/css">
      .ColorScheme-Text           { color:#fff; }
      .ColorScheme-Background     { color:#111; }
      .ColorScheme-Highlight      { color:#3daefd; }
      .ColorScheme-ViewBackground { color:#000; }
      .ColorScheme-PositiveText   { color:#27ae60; }
      .ColorScheme-NeutralText    { color:#f67400; }
      .ColorScheme-NegativeText   { color:#da4453; }
    </style>
<style id="extended-color-scheme" type="text/css">
      .ExScheme-Black     { color:#3e3e3e; }
      .ExScheme-White     { color:#fcfcfc; }
      .ExScheme-Grey-1    { color:#cfd5d5; }
      .ExScheme-Grey-2    { color:#909c9c; }
      .ExScheme-Grey-3    { color:#536161; }
      .ExScheme-Red-1     { color:#ffafa5; }
      .ExScheme-Red-2     { color:#bf4231; }
      .ExScheme-Red-3     { color:#4d2f2b; }
      .ExScheme-Green-1   { color:#abf9c7; }
      .ExScheme-Green-2   { color:#3bb566; }
      .ExScheme-Green-3   { color:#377d50; }
      .ExScheme-Blue-1    { color:#abdaf9; }
      .ExScheme-Blue-2    { color:#3daefd; }
      .ExScheme-Blue-3    { color:#2b3c4d; }
      .ExScheme-Yellow-1  { color:#faffa5; }
      .ExScheme-Yellow-2  { color:#cac726; }
      .ExScheme-Yellow-3  { color:#4b4d2b; }
      .ExScheme-Orange-1  { color:#ffdaa5; }
      .ExScheme-Orange-2  { color:#ff9701; }
      .ExScheme-Orange-3  { color:#4d372b; }
      .ExScheme-Brown-1   { color:#e9d6bb; }
      .ExScheme-Brown-2   { color:#997657; }
      .ExScheme-Brown-3   { color:#433a35; }
      .ExScheme-Purple-1  { color:#e2abf9; }
      .ExScheme-Purple-2  { color:#b401ff; }
      .ExScheme-Purple-3  { color:#432b4d; }
      .ExScheme-Cyan-1    { color:#b2f2e6; }
      .ExScheme-Cyan-2    { color:#31bfa6; }
      .ExScheme-Cyan-3    { color:#2b4d47; }
      .ExScheme-Magenta-1 { color:#f8a6d8; }
      .ExScheme-Magenta-2 { color:#f00091; }
      .ExScheme-Magenta-3 { color:#770048; }
    </style>
<linearGradient id="uwP">
<stop offset="0"/>
<stop offset="1" stop-opacity="0"/>
</linearGradient>
<linearGradient id="uwQ">
<stop offset="0" stop-color="#fff"/>
<stop offset="1" stop-color="#fff" stop-opacity="0"/>
</linearGradient>
<style class="toggle-enable-crease" type="text/css">
        .folder-crease { display: none; }
    </style><style class="toggle-manilla-folders" type="text/css">
        .folder-manilla { display: none; }
    </style><radialGradient cx=".5" cy="0" id="uwR" r="1" xlink:href="#uwQ"/><linearGradient id="uwS" xlink:href="#uwP" y1="1" y2=".5"/><path d="m 40,32 c -6.65,0 -12,5.35 -12,12 v 28 c -6.65,0 -12,5.35 -12,12 v 128 c 0,6.65 5.35,12 12,12 h 200 c 6.65,0 12,-5.35 12,-12 V 104 84 76 c 0,-6.65 -5.35,-12 -12,-12 V 52 c 0,-6.65 -5.35,-12 -12,-12 H 112 C 96,40 96,32 84,32 Z" id="uwT"></path><path d="m 40,32 c -6.65,0 -12,5.35 -12,12 v 28 h 52 c 16,0 16,-8 28,-8 H 228 V 52 c 0,-6.65 -5.35,-12 -12,-12 H 112 C 96,40 96,32 84,32 Z" id="uwU"></path></defs>
<g id="content" transform="translate(0,0)"><use class="folder-manilla ExScheme-Brown-1" fill="currentColor" href="#uwT"></use><use class="toggle-manilla-folders ColorScheme-Highlight" fill="currentColor" href="#uwT" id="primary-color"></use><use class="ColorScheme-Text" fill="currentColor" href="#uwT" opacity=".1"></use><g id="emblem" transform="translate(64,84)"><path class="ColorScheme-Background" d="M 113.6 8 C 108.3 7.94 64.55 48.4 56.2 56.66 L 53.3 59.5 C 52.6 60.2 53.16 60.8 52.44 61.5 C 51.7 62.2 51.15 61.63 50.43 62.34 C 49.7 63.05 50.3 63.6 49.56 64.33 C 48.84 65.04 48.27 64.47 47.55 65.2 C 42.5 70.15 33.15 83.67 33.15 83.67 L 37.47 87.93 C 37.47 87.93 51.14 78.67 56.2 73.7 C 56.9 73 56.3 72.4 57.04 71.7 C 57.76 71 58.34 71.57 59.06 70.86 C 59.8 70.15 59.2 69.6 59.9 68.87 C 60.64 68.16 61.2 68.73 61.94 68 L 64.8 65.2 C 73.46 56.66 116.9 10.97 114 8.13 C 113.93 8.04 113.8 8 113.6 8 z M 115 44.97 C 112.56 45.14 109.8 50.17 107.9 59.63 C 103.85 79.8 65.8 102.35 59.44 95.97 C 55.4 91.93 59.93 85.04 51.37 87.9 C 44.5 90.2 41.5 91.17 38.75 90.86 C 38.76 91.03 38.8 91.2 38.8 91.36 C 38.86 92.7 38.7 94.23 38.35 95.77 C 37.7 98.86 36.47 102 34.7 103.7 C 30.2 108.17 24.34 111.04 21.26 113.4 C 20.5 114 20 114.57 19.55 115.05 C 19.2 115.5 19.1 115.87 19.14 116.2 C 19.17 116.5 19.35 116.93 19.9 117.5 C 20.5 118.06 21.4 118.73 22.8 119.46 A 1 1 0 0 1 23.3 120.14 C 35.1 116.2 27.36 120.2 63.5 120.2 C 99.8 120.2 120 87.9 120 63.67 C 120 50.8 117.7 44.77 115 44.97 z M 67.73 81.76 C 66.57 81.8 65.35 82.1 64.4 82.8 C 62.27 84.4 59.76 86.77 60.83 88.2 C 61.9 89.6 66.14 89.6 68.3 88 C 70.4 86.4 72.3 84.44 71.2 83 C 70.6 82.2 69.2 81.73 67.73 81.76 z M 27.47 83.25 C 23.23 83.35 17.4 84.95 13.7 88.6 C 5.07 97.13 4.97 120 22.27 120 C 11.07 114 25.23 111.3 33.87 102.8 C 36.75 99.96 38.9 90.74 36.75 88.6 L 32.43 84.35 C 31.75 83.7 30.24 83.3 28.3 83.25 C 28 83.24 27.75 83.24 27.47 83.25 z " fill="currentColor" opacity=".6"/><path class="ColorScheme-Background" d="M 113.6 8 C 108.3 7.94 64.55 48.4 56.2 56.66 L 53.3 59.5 C 52.6 60.2 53.16 60.8 52.44 61.5 C 51.7 62.2 51.15 61.63 50.43 62.34 C 49.7 63.05 50.3 63.6 49.56 64.33 C 48.84 65.04 48.27 64.47 47.55 65.2 C 42.5 70.15 33.15 83.67 33.15 83.67 L 37.47 87.93 C 37.47 87.93 51.14 78.67 56.2 73.7 C 56.9 73 56.3 72.4 57.04 71.7 C 57.76 71 58.34 71.57 59.06 70.86 C 59.8 70.15 59.2 69.6 59.9 68.87 C 60.64 68.16 61.2 68.73 61.94 68 L 64.8 65.2 C 73.46 56.66 116.9 10.97 114 8.13 C 113.93 8.04 113.8 8 113.6 8 z M 113.67 8.5 C 113.64 8.46 113.66 8.44 113.66 8.53 C 113.66 8.6 113.63 8.8 113.56 9 C 113.4 9.4 113.1 10.04 112.66 10.8 C 111.75 12.3 110.26 14.34 108.37 16.74 C 104.6 21.53 99.15 27.77 93.37 34.2 C 81.8 47 68.77 60.6 64.47 64.8 L 61.6 67.66 C 61.3 67.9 61.2 67.9 60.9 67.95 C 60.55 68 60.03 68.07 59.57 68.5 C 59.1 68.96 59.03 69.5 59 69.8 C 58.96 70.13 59 70.24 58.7 70.5 C 58.45 70.76 58.3 70.75 58 70.8 C 57.67 70.8 57.15 70.9 56.7 71.36 C 56.24 71.8 56.15 72.33 56.1 72.65 C 56.1 72.97 56.1 73.1 55.83 73.34 C 51 78.2 38.1 86.9 37.53 87.3 L 33.8 83.6 C 34.23 83 43.1 70.3 47.9 65.53 C 48.16 65.27 48.3 65.3 48.6 65.25 C 48.93 65.2 49.46 65.13 49.9 64.7 C 50.37 64.24 50.45 63.7 50.5 63.4 C 50.53 63.07 50.5 62.95 50.8 62.7 C 51.04 62.43 51.16 62.45 51.5 62.4 C 51.8 62.4 52.33 62.3 52.8 61.85 C 53.24 61.4 53.33 60.87 53.37 60.55 C 53.4 60.23 53.4 60.1 53.66 59.85 L 56.54 57 C 60.7 52.9 73.73 40.7 86.37 29.6 C 92.7 24 98.9 18.7 103.9 14.8 C 106.36 12.86 108.53 11.26 110.23 10.15 C 111.1 9.6 111.8 9.2 112.4 8.9 C 113 8.6 113.44 8.5 113.6 8.5 C 113.7 8.5 113.7 8.5 113.67 8.5 z M 115 44.97 C 112.56 45.14 109.8 50.17 107.9 59.63 C 103.85 79.8 65.8 102.35 59.44 95.97 C 55.4 91.93 59.93 85.04 51.37 87.9 C 44.5 90.2 41.5 91.17 38.75 90.86 C 38.76 91.03 38.8 91.2 38.8 91.36 C 38.86 92.7 38.7 94.23 38.35 95.77 C 37.7 98.86 36.47 102 34.7 103.7 C 30.2 108.17 24.34 111.04 21.26 113.4 C 20.5 114 20 114.57 19.55 115.05 C 19.2 115.5 19.1 115.87 19.14 116.2 C 19.17 116.5 19.35 116.93 19.9 117.5 C 20.5 118.06 21.4 118.73 22.8 119.46 A 1 1 0 0 1 23.3 120.14 C 35.1 116.2 27.36 120.2 63.5 120.2 C 99.8 120.2 120 87.9 120 63.67 C 120 50.8 117.7 44.77 115 44.97 z M 115 45.46 C 115.5 45.43 116 45.65 116.53 46.3 C 117.06 46.97 117.6 48.05 118.04 49.56 C 118.93 52.57 119.5 57.26 119.5 63.67 C 119.5 75.64 114.5 89.7 105 100.7 C 95.5 111.7 81.5 119.7 63.5 119.7 C 45.44 119.7 38.4 118.7 34.3 118.2 C 30.35 117.7 29 117.76 23.43 119.6 C 23.3 119.4 23.23 119.14 23 119 L 23 119 C 21.7 118.3 20.8 117.65 20.27 117.14 C 19.75 116.63 19.65 116.3 19.64 116.14 C 19.6 115.95 19.65 115.76 19.96 115.34 C 20.26 114.93 20.8 114.4 21.56 113.8 C 24.56 111.5 30.47 108.6 35.06 104.07 C 36.95 102.21 38.16 99 38.84 95.9 C 39.2 94.3 39.36 92.74 39.3 91.34 C 39.3 91.3 39.3 91.3 39.3 91.3 C 42.06 91.45 45.06 90.5 51.5 88.37 C 53.6 87.67 54.85 87.6 55.5 87.85 C 56.15 88.1 56.4 88.6 56.6 89.46 C 57.03 91.2 56.9 94.14 59.1 96.3 C 60 97.26 61.47 97.6 63.2 97.57 C 64.94 97.5 67 97.07 69.3 96.3 C 73.9 94.75 79.4 91.9 84.83 88.2 C 95.7 80.8 106.3 70.1 108.4 59.73 C 109.3 55.03 110.5 51.44 111.7 49.04 C 112.3 47.84 112.9 46.94 113.47 46.35 C 114.05 45.76 114.57 45.5 115 45.46 z M 67.73 81.76 C 66.57 81.8 65.35 82.1 64.4 82.8 C 62.27 84.4 59.76 86.77 60.83 88.2 C 61.9 89.6 66.14 89.6 68.3 88 C 70.4 86.4 72.3 84.44 71.2 83 C 70.6 82.2 69.2 81.73 67.73 81.76 z M 67.74 82.26 C 69.1 82.23 70.4 82.7 70.8 83.3 C 71 83.56 71.05 83.8 71 84.1 C 70.97 84.4 70.8 84.75 70.54 85.14 C 70 85.93 69.03 86.8 68 87.6 C 67.03 88.3 65.5 88.7 64.14 88.7 C 62.76 88.75 61.57 88.35 61.23 87.9 C 61.06 87.67 61.03 87.45 61.1 87.1 C 61.2 86.76 61.45 86.33 61.8 85.9 C 62.5 84.97 63.66 84 64.7 83.2 C 65.55 82.6 66.67 82.3 67.74 82.26 z M 27.47 83.25 C 23.23 83.35 17.4 84.95 13.7 88.6 C 5.07 97.13 4.97 120 22.27 120 C 11.07 114 25.23 111.3 33.87 102.8 C 36.75 99.96 38.9 90.74 36.75 88.6 L 32.43 84.35 C 31.75 83.7 30.24 83.3 28.3 83.25 C 28 83.24 27.75 83.24 27.47 83.25 z M 27.5 83.75 C 27.75 83.74 28 83.74 28.3 83.75 C 30.16 83.8 31.6 84.23 32.1 84.7 L 36.4 88.96 C 36.8 89.34 37.06 90.2 37.1 91.35 C 37.17 92.5 37 93.9 36.7 95.33 C 36.1 98.2 34.8 101.2 33.5 102.45 C 29.3 106.63 23.63 109.4 20.33 111.94 C 19.5 112.6 18.8 113.2 18.34 113.87 C 17.86 114.53 17.6 115.25 17.65 116 C 17.7 116.8 18.13 117.5 18.85 118.23 C 19.2 118.6 19.9 119 20.46 119.35 C 17.2 119 14.63 117.8 12.77 115.94 C 10.6 113.75 9.27 110.73 8.76 107.4 C 7.73 100.8 9.9 93.07 14.06 88.96 C 17.64 85.43 23.36 83.85 27.5 83.75 z " fill="currentColor" opacity=".6"/></g><use href="#uwU" opacity=".4"></use><use class="toggle-flat-design" fill="url(#uwS)" href="#uwU" opacity=".2"></use><path class="toggle-flat-design" d="M 108,64 C 96,64 96,72 80,72 H 28 c -6.65,0 -12,5.35 -12,12 v 128 c 0,6.65 5.35,12 12,12 h 200 c 6.65,0 12,-5.35 12,-12 V 104 84 76 c 0,-6.65 -5.35,-12 -12,-12 z" fill="url(#uwR)" opacity=".2"/><path class="folder-crease " d="m 16,176 v 8 h 36 c 2.2,0 4,-1.8 4,-4 0,-2.2 -1.8,-4 -4,-4 z m 188,0 c -2.2,0 -4,1.8 -4,4 0,2.2 1.8,4 4,4 h 36 v -8 z" opacity=".4"/><path class="ColorScheme-Text" d="m 16,211 v 1 c 0,6.65 5.35,12 12,12 h 200 c 6.65,0 12,-5.35 12,-12 v -1 c 0,6.65 -5.35,12 -12,12 H 28 c -6.65,0 -12,-5.35 -12,-12 z" fill="currentColor" opacity=".1"/><path class="ColorScheme-Text" d="m 16,211.5 v 0.5 c 0,6.65 5.35,12 12,12 h 200 c 6.65,0 12,-5.35 12,-12 v -0.5 c 0,6.65 -5.35,12 -12,12 H 28 c -6.65,0 -12,-5.35 -12,-12 z" fill="currentColor" opacity=".2"/><path d="M 108,64 C 96,64 96,72 80,72 H 28 c -6.65,0 -12,5.35 -12,12 v 1 c 0,-6.65 5.35,-12 12,-12 h 52 c 16,0 16,-8 28,-8 h 120 c 6.65,0 12,5.35 12,12 v -1 c 0,-6.65 -5.35,-12 -12,-12 z" fill="#fff" opacity=".1"/><path d="M 108,64 C 96,64 96,72 80,72 H 28 c -6.65,0 -12,5.35 -12,12 v 0.5 c 0,-6.65 5.35,-12 12,-12 h 52 c 16,0 16,-8 28,-8 h 120 c 6.65,0 12,5.35 12,12 V 76 c 0,-6.65 -5.35,-12 -12,-12 z" fill="#fff" opacity=".2"/><path d="M 108,63 C 96,63 96,71 80,71 H 28 v 1 h 52 c 16,0 16,-8 28,-8 h 120 v -1 z" opacity=".1"/><path d="m 108,63.5 c -12,0 -12,8 -28,8 H 28 V 72 h 52 c 16,0 16,-8 28,-8 h 120 v -0.5 z" opacity=".2"/></g>
</svg>