<svg height="256" version="1.1" width="256" xmlns="http://www.w3.org/2000/svg" xmlns:svg="http://www.w3.org/2000/svg" xmlns:xlink="http://www.w3.org/1999/xlink">
<defs id="primary-definitions">
<style id="current-color-scheme" type="text/css">
      .ColorScheme-Text         { color: #232629; }
      .ColorScheme-Background   { color: #eff0f1; }
      .ColorScheme-Highlight    { color: #7ec9f0; }
      .ColorScheme-PositiveText { color: #27ae60; }
      .ColorScheme-NeutralText  { color: #f67400; }
      .ColorScheme-NegativeText { color: #da4453; }
      .ColorScheme-ActiveText   { color: #3daee9; }
      .ColorScheme-Complement   { color: #ffffff; }
      .ColorScheme-Contrast     { color: #000000; }
    </style>
<style id="extended-color-scheme" type="text/css">
      .ExScheme-Black     { color:#3e3e3e; }
      .ExScheme-White     { color:#fcfcfc; }
      .ExScheme-Grey-1    { color:#cfd5d5; }
      .ExScheme-Grey-2    { color:#909c9c; }
      .ExScheme-Grey-3    { color:#536161; }
      .ExScheme-Red-1     { color:#ffafa5; }
      .ExScheme-Red-2     { color:#bf4231; }
      .ExScheme-Red-3     { color:#4d2f2b; }
      .ExScheme-Green-1   { color:#abf9c7; }
      .ExScheme-Green-2   { color:#3bb566; }
      .ExScheme-Green-3   { color:#377d50; }
      .ExScheme-Blue-1    { color:#abdaf9; }
      .ExScheme-Blue-2    { color:#3daefd; }
      .ExScheme-Blue-3    { color:#2b3c4d; }
      .ExScheme-Yellow-1  { color:#faffa5; }
      .ExScheme-Yellow-2  { color:#cac726; }
      .ExScheme-Yellow-3  { color:#4b4d2b; }
      .ExScheme-Orange-1  { color:#ffdaa5; }
      .ExScheme-Orange-2  { color:#ff9701; }
      .ExScheme-Orange-3  { color:#4d372b; }
      .ExScheme-Brown-1   { color:#e9d6bb; }
      .ExScheme-Brown-2   { color:#997657; }
      .ExScheme-Brown-3   { color:#433a35; }
      .ExScheme-Purple-1  { color:#e2abf9; }
      .ExScheme-Purple-2  { color:#b401ff; }
      .ExScheme-Purple-3  { color:#432b4d; }
      .ExScheme-Cyan-1    { color:#b2f2e6; }
      .ExScheme-Cyan-2    { color:#31bfa6; }
      .ExScheme-Cyan-3    { color:#2b4d47; }
      .ExScheme-Magenta-1 { color:#f8a6d8; }
      .ExScheme-Magenta-2 { color:#f00091; }
      .ExScheme-Magenta-3 { color:#770048; }
    </style>
<linearGradient id="u4A">
<stop offset="0"/>
<stop offset="1" stop-opacity="0"/>
</linearGradient>
<linearGradient id="u4B">
<stop offset="0" stop-color="#fff"/>
<stop offset="1" stop-color="#fff" stop-opacity="0"/>
</linearGradient>
<style id="u4C" type="text/css">
        .force-display-for-editing { display: inline !important; }
    </style><style class="remove-if__show-crease" type="text/css">
        .enable-if__show-crease { display: none; }
    </style><style class="remove-if__color-sync-mimes-places" type="text/css">
        .enable-if__color-sync-mimes-places { display: none; }
    </style><radialGradient cx=".5" cy="0" id="u4D" r="1" xlink:href="#u4B"/><linearGradient id="u4E" xlink:href="#u4A" y1="1" y2=".5"/><style class="ColorScheme-Background" fill="currentColor" opacity=".6" type="text/css">
   .ColorScheme-Text           { color:#eff0f1; }
      .ColorScheme-Background     { color:#31363b; }
      .ColorScheme-Highlight      { color:#3daefd; }
      .ColorScheme-ViewBackground { color:#fcfcfc; }
      .ColorScheme-PositiveText   { color:#27ae60; }
      .ColorScheme-NeutralText    { color:#f67400; }
      .ColorScheme-NegativeText   { color:#da4453; }
  </style><path d="m 40,32 c -6.65,0 -12,5.35 -12,12 v 28 c -6.65,0 -12,5.35 -12,12 v 128 c 0,6.65 5.35,12 12,12 h 200 c 6.65,0 12,-5.35 12,-12 V 104 84 76 c 0,-6.65 -5.35,-12 -12,-12 V 52 c 0,-6.65 -5.35,-12 -12,-12 H 112 C 96,40 96,32 84,32 Z" id="u4F"></path><path d="m 40,32 c -6.65,0 -12,5.35 -12,12 v 28 h 52 c 16,0 16,-8 28,-8 H 228 V 52 c 0,-6.65 -5.35,-12 -12,-12 H 112 C 96,40 96,32 84,32 Z" id="u4G"></path></defs>
<g id="content" transform="translate(0,0)"><use class="sync-color enable-if__color-sync-mimes-places force-display-for-editing ColorScheme-ActiveText" fill="currentColor" href="#u4F"></use><use class="primary-color remove-if__color-sync-mimes-places ColorScheme-ActiveText" fill="#3ddc84" href="#u4F"></use><use class="ColorScheme-Contrast" fill="currentColor" href="#u4F" opacity=".1"></use><g id="decal" transform="translate(64,84)"><path class="ColorScheme-Background" d="M 64 28 A 56 56 0 0 0 22 47.16 L 9.4 34.6 A 2 2 0 0 0 8 34 A 2 2 0 0 0 6.6 34.6 A 2 2 0 0 0 6.6 37.4 L 19.4 50.2 A 56 56 0 0 0 8 84 L 8 92 C 8 96.43 11.57 100 16 100 L 112 100 C 116.43 100 120 96.43 120 92 L 120 84 A 56 56 0 0 0 108.63 50.2 L 121.4 37.4 A 2 2 0 0 0 121.4 34.6 A 2 2 0 0 0 118.6 34.6 L 106.1 47.07 A 56 56 0 0 0 64 28 z M 40 60 A 8 8 0 0 1 48 68 A 8 8 0 0 1 40 76 A 8 8 0 0 1 32 68 A 8 8 0 0 1 40 60 z M 88 60 A 8 8 0 0 1 96 68 A 8 8 0 0 1 88 76 A 8 8 0 0 1 80 68 A 8 8 0 0 1 88 60 z " fill="currentColor" opacity=".6" stop-color="#000000"/><path class="ColorScheme-Background" d="M 64 28 A 56 56 0 0 0 22 47.16 L 9.4 34.6 A 2 2 0 0 0 8 34 A 2 2 0 0 0 6.6 34.6 A 2 2 0 0 0 6.6 37.4 L 19.4 50.2 A 56 56 0 0 0 8 84 L 8 92 C 8 96.43 11.57 100 16 100 L 112 100 C 116.43 100 120 96.43 120 92 L 120 84 A 56 56 0 0 0 108.63 50.2 L 121.4 37.4 A 2 2 0 0 0 121.4 34.6 A 2 2 0 0 0 118.6 34.6 L 106.1 47.07 A 56 56 0 0 0 64 28 z M 64 28.5 L 64 28.5 C 80 28.5 95.2 35.4 105.7 47.4 A .5 .5 0 0 0 106.45 47.43 L 118.94 34.94 C 119.53 34.35 120.47 34.35 121.06 34.94 C 121.65 35.53 121.65 36.47 121.06 37.06 L 108.3 49.84 A .5 .5 0 0 0 108.23 50.5 C 115.54 60.14 119.5 71.9 119.5 84 L 119.5 92 C 119.5 96.16 116.16 99.5 112 99.5 L 16 99.5 C 11.84 99.5 8.5 96.16 8.5 92 L 8.5 84 C 8.5 71.9 12.47 60.14 19.77 50.5 A .5 .5 0 0 0 19.73 49.85 L 6.94 37.06 C 6.35 36.47 6.35 35.53 6.94 34.94 C 7.2 34.66 7.6 34.5 8 34.5 C 8.4 34.5 8.8 34.66 9.06 34.94 L 21.63 47.5 A .5 .5 0 0 0 22.36 47.5 C 32.87 35.46 48.04 28.55 64 28.5 z M 40 59.5 C 35.3 59.5 31.5 63.3 31.5 68 C 31.5 72.7 35.3 76.5 40 76.5 C 44.7 76.5 48.5 72.7 48.5 68 C 48.5 63.3 44.7 59.5 40 59.5 z M 88 59.5 C 83.3 59.5 79.5 63.3 79.5 68 C 79.5 72.7 83.3 76.5 88 76.5 C 92.7 76.5 96.5 72.7 96.5 68 C 96.5 63.3 92.7 59.5 88 59.5 z M 40 60 A 8 8 0 0 1 48 68 A 8 8 0 0 1 40 76 A 8 8 0 0 1 32 68 A 8 8 0 0 1 40 60 z M 88 60 A 8 8 0 0 1 96 68 A 8 8 0 0 1 88 76 A 8 8 0 0 1 80 68 A 8 8 0 0 1 88 60 z " fill="currentColor" opacity=".6"/></g><use href="#u4G" opacity=".4"></use><use fill="url(#u4E)" href="#u4G" opacity=".2"></use><path d="M 108,64 C 96,64 96,72 80,72 H 28 c -6.65,0 -12,5.35 -12,12 v 128 c 0,6.65 5.35,12 12,12 h 200 c 6.65,0 12,-5.35 12,-12 V 104 84 76 c 0,-6.65 -5.35,-12 -12,-12 z" fill="url(#u4D)" opacity=".2"/><path class="ColorScheme-Contrast" d="m 16,211 v 1 c 0,6.65 5.35,12 12,12 h 200 c 6.65,0 12,-5.35 12,-12 v -1 c 0,6.65 -5.35,12 -12,12 H 28 c -6.65,0 -12,-5.35 -12,-12 z" fill="currentColor" opacity=".1"/><path class="ColorScheme-Contrast" d="m 16,211.5 v 0.5 c 0,6.65 5.35,12 12,12 h 200 c 6.65,0 12,-5.35 12,-12 v -0.5 c 0,6.65 -5.35,12 -12,12 H 28 c -6.65,0 -12,-5.35 -12,-12 z" fill="currentColor" opacity=".2"/><path d="M 108,64 C 96,64 96,72 80,72 H 28 c -6.65,0 -12,5.35 -12,12 v 1 c 0,-6.65 5.35,-12 12,-12 h 52 c 16,0 16,-8 28,-8 h 120 c 6.65,0 12,5.35 12,12 v -1 c 0,-6.65 -5.35,-12 -12,-12 z" fill="#fff" opacity=".1"/><path d="M 108,64 C 96,64 96,72 80,72 H 28 c -6.65,0 -12,5.35 -12,12 v 0.5 c 0,-6.65 5.35,-12 12,-12 h 52 c 16,0 16,-8 28,-8 h 120 c 6.65,0 12,5.35 12,12 V 76 c 0,-6.65 -5.35,-12 -12,-12 z" fill="#fff" opacity=".2"/><path d="M 108,63 C 96,63 96,71 80,71 H 28 v 1 h 52 c 16,0 16,-8 28,-8 h 120 v -1 z" opacity=".1"/><path d="m 108,63.5 c -12,0 -12,8 -28,8 H 28 V 72 h 52 c 16,0 16,-8 28,-8 h 120 v -0.5 z" opacity=".2"/></g>
</svg>