<svg height="256" version="1.1" width="256" xmlns="http://www.w3.org/2000/svg" xmlns:svg="http://www.w3.org/2000/svg" xmlns:xlink="http://www.w3.org/1999/xlink">
<defs id="primary-definitions">
<style id="current-color-scheme" type="text/css">
      .ColorScheme-Text         { color: #232629; }
      .ColorScheme-Background   { color: #eff0f1; }
      .ColorScheme-Highlight    { color: #7ec9f0; }
      .ColorScheme-PositiveText { color: #27ae60; }
      .ColorScheme-NeutralText  { color: #f67400; }
      .ColorScheme-NegativeText { color: #da4453; }
      .ColorScheme-ActiveText   { color: #3daee9; }
      .ColorScheme-Complement   { color: #ffffff; }
      .ColorScheme-Contrast     { color: #000000; }
    </style>
<style id="extended-color-scheme" type="text/css">
      .ExScheme-Black     { color:#3e3e3e; }
      .ExScheme-White     { color:#fcfcfc; }
      .ExScheme-Grey-1    { color:#cfd5d5; }
      .ExScheme-Grey-2    { color:#909c9c; }
      .ExScheme-Grey-3    { color:#536161; }
      .ExScheme-Red-1     { color:#ffafa5; }
      .ExScheme-Red-2     { color:#bf4231; }
      .ExScheme-Red-3     { color:#4d2f2b; }
      .ExScheme-Green-1   { color:#abf9c7; }
      .ExScheme-Green-2   { color:#3bb566; }
      .ExScheme-Green-3   { color:#377d50; }
      .ExScheme-Blue-1    { color:#abdaf9; }
      .ExScheme-Blue-2    { color:#3daefd; }
      .ExScheme-Blue-3    { color:#2b3c4d; }
      .ExScheme-Yellow-1  { color:#faffa5; }
      .ExScheme-Yellow-2  { color:#cac726; }
      .ExScheme-Yellow-3  { color:#4b4d2b; }
      .ExScheme-Orange-1  { color:#ffdaa5; }
      .ExScheme-Orange-2  { color:#ff9701; }
      .ExScheme-Orange-3  { color:#4d372b; }
      .ExScheme-Brown-1   { color:#e9d6bb; }
      .ExScheme-Brown-2   { color:#997657; }
      .ExScheme-Brown-3   { color:#433a35; }
      .ExScheme-Purple-1  { color:#e2abf9; }
      .ExScheme-Purple-2  { color:#b401ff; }
      .ExScheme-Purple-3  { color:#432b4d; }
      .ExScheme-Cyan-1    { color:#b2f2e6; }
      .ExScheme-Cyan-2    { color:#31bfa6; }
      .ExScheme-Cyan-3    { color:#2b4d47; }
      .ExScheme-Magenta-1 { color:#f8a6d8; }
      .ExScheme-Magenta-2 { color:#f00091; }
      .ExScheme-Magenta-3 { color:#770048; }
    </style>
<linearGradient id="utn">
<stop offset="0"/>
<stop offset="1" stop-opacity="0"/>
</linearGradient>
<linearGradient id="uto">
<stop offset="0" stop-color="#fff"/>
<stop offset="1" stop-color="#fff" stop-opacity="0"/>
</linearGradient>
<style id="utp" type="text/css">
        .force-display-for-editing { display: inline !important; }
    </style><style class="remove-if__show-crease" type="text/css">
        .enable-if__show-crease { display: none; }
    </style><style class="remove-if__color-sync-mimes-places" type="text/css">
        .enable-if__color-sync-mimes-places { display: none; }
    </style><radialGradient cx=".5" cy="0" id="utq" r="1" xlink:href="#uto"/><linearGradient id="utr" xlink:href="#utn" y1="1" y2=".5"/><style class="ColorScheme-Background" fill="currentColor" opacity=".6" type="text/css">
   .ColorScheme-Text           { color:#eff0f1; }
      .ColorScheme-Background     { color:#31363b; }
      .ColorScheme-Highlight      { color:#3daefd; }
      .ColorScheme-ViewBackground { color:#fcfcfc; }
      .ColorScheme-PositiveText   { color:#27ae60; }
      .ColorScheme-NeutralText    { color:#f67400; }
      .ColorScheme-NegativeText   { color:#da4453; }
  </style><path d="m 40,32 c -6.65,0 -12,5.35 -12,12 v 28 c -6.65,0 -12,5.35 -12,12 v 128 c 0,6.65 5.35,12 12,12 h 200 c 6.65,0 12,-5.35 12,-12 V 104 84 76 c 0,-6.65 -5.35,-12 -12,-12 V 52 c 0,-6.65 -5.35,-12 -12,-12 H 112 C 96,40 96,32 84,32 Z" id="uts"></path><path d="m 40,32 c -6.65,0 -12,5.35 -12,12 v 28 h 52 c 16,0 16,-8 28,-8 H 228 V 52 c 0,-6.65 -5.35,-12 -12,-12 H 112 C 96,40 96,32 84,32 Z" id="utt"></path></defs>
<g id="content" transform="translate(0,0)"><use class="sync-color enable-if__color-sync-mimes-places force-display-for-editing ColorScheme-ActiveText" fill="currentColor" href="#uts"></use><use class="primary-color remove-if__color-sync-mimes-places ColorScheme-ActiveText" fill="currentColor" href="#uts"></use><use class="ColorScheme-Contrast" fill="currentColor" href="#uts" opacity=".1"></use><g id="decal" transform="translate(64,84)"><path class="ColorScheme-Background" d="m 64.35,8 a 4,4 0 0 0 -1.4,.13 4,4 0 0 0 -1.8,1.03 l -9.17,9.17 9.94,9.94 a 8,8 0 0 1 2.06,-.3 8,8 0 0 1 8,8 8,8 0 0 1 -.3,2.06 l 18.2,18.2 a 8,8 0 0 1 2.06,-.3 8,8 0 0 1 8,8 8,8 0 0 1 -8,8 8,8 0 0 1 -8,-8 8,8 0 0 1 .3,-2.06 L 68,45.66 v 39.4 a 8,8 0 0 1 4,6.9 8,8 0 0 1 -8,8 8,8 0 0 1 -8,-8 8,8 0 0 1 4,-6.9 V 42.9 A 8,8 0 0 1 56,36 8,8 0 0 1 56.3,33.94 L 46.34,24 9.17,61.17 a 4,4 0 0 0 0,5.66 L 61.17,118.83 a 4,4 0 0 0 5.66,0 L 118.83,66.83 a 4,4 0 0 0 0,-5.66 L 66.83,9.17 A 4,4 0 0 0 64.35,8 Z" fill="currentColor" opacity=".6"/><path class="ColorScheme-Background" d="M 64.35 8 A 4 4 0 0 0 62.97 8.14 A 4 4 0 0 0 61.17 9.17 L 52 18.34 L 61.94 28.3 A 8 8 0 0 1 64 28 A 8 8 0 0 1 72 36 A 8 8 0 0 1 71.7 38.06 L 89.94 56.3 A 8 8 0 0 1 92 56 A 8 8 0 0 1 100 64 A 8 8 0 0 1 92 72 A 8 8 0 0 1 84 64 A 8 8 0 0 1 84.3 61.94 L 68 45.66 L 68 85.1 A 8 8 0 0 1 72 92 A 8 8 0 0 1 64 100 A 8 8 0 0 1 56 92 A 8 8 0 0 1 60 85.1 L 60 42.9 A 8 8 0 0 1 56 36 A 8 8 0 0 1 56.3 33.94 L 46.34 24 L 9.17 61.17 A 4 4 0 0 0 9.17 66.83 L 61.17 118.83 A 4 4 0 0 0 66.83 118.83 L 118.83 66.83 A 4 4 0 0 0 118.83 61.17 L 66.83 9.17 A 4 4 0 0 0 64.35 8 z M 64.3 8.5 L 64.3 8.5 C 65.13 8.6 65.9 8.94 66.47 9.5 L 118.47 61.53 C 119.85 62.9 119.85 65.2 118.47 66.47 L 66.47 118.47 C 65.2 119.85 62.9 119.85 61.53 118.47 L 9.53 66.47 C 8.15 65.2 8.15 62.9 9.53 61.53 L 46.34 24.7 L 55.76 34.1 C 55.6 34.74 55.5 35.36 55.5 36 A .5 .5 0 0 0 55.5 36 C 55.5 38.9 57.04 41.6 59.5 43.15 L 59.5 84.85 C 57.04 86.4 55.5 89.1 55.5 92 A .5 .5 0 0 0 55.5 92 C 55.5 96.7 59.3 100.5 64 100.5 C 68.7 100.5 72.5 96.7 72.5 92 C 72.5 89.07 70.96 86.4 68.5 84.84 L 68.5 46.86 L 83.76 62.1 C 83.6 62.74 83.5 63.36 83.5 64 A .5 .5 0 0 0 83.5 64 C 83.5 68.7 87.3 72.5 92 72.5 C 96.7 72.5 100.5 68.7 100.5 64 C 100.5 59.3 96.7 55.5 92 55.5 A .5 .5 0 0 0 92 55.5 C 91.36 55.5 90.74 55.6 90.1 55.76 L 72.24 37.9 C 72.4 37.26 72.5 36.64 72.5 36 A .5 .5 0 0 0 72.5 36 C 72.5 31.3 68.7 27.5 64 27.5 A .5 .5 0 0 0 64 27.5 C 63.36 27.5 62.74 27.6 62.1 27.75 L 52.7 18.34 L 61.53 9.53 C 61.96 9.1 62.5 8.8 63.1 8.6 A .5 .5 0 0 0 63.1 8.6 C 63.5 8.5 63.9 8.5 64.3 8.5 z " fill="currentColor" opacity=".6"/></g><use href="#utt" opacity=".4"></use><use fill="url(#utr)" href="#utt" opacity=".2"></use><path d="M 108,64 C 96,64 96,72 80,72 H 28 c -6.65,0 -12,5.35 -12,12 v 128 c 0,6.65 5.35,12 12,12 h 200 c 6.65,0 12,-5.35 12,-12 V 104 84 76 c 0,-6.65 -5.35,-12 -12,-12 z" fill="url(#utq)" opacity=".2"/><path class="ColorScheme-Contrast" d="m 16,211 v 1 c 0,6.65 5.35,12 12,12 h 200 c 6.65,0 12,-5.35 12,-12 v -1 c 0,6.65 -5.35,12 -12,12 H 28 c -6.65,0 -12,-5.35 -12,-12 z" fill="currentColor" opacity=".1"/><path class="ColorScheme-Contrast" d="m 16,211.5 v 0.5 c 0,6.65 5.35,12 12,12 h 200 c 6.65,0 12,-5.35 12,-12 v -0.5 c 0,6.65 -5.35,12 -12,12 H 28 c -6.65,0 -12,-5.35 -12,-12 z" fill="currentColor" opacity=".2"/><path d="M 108,64 C 96,64 96,72 80,72 H 28 c -6.65,0 -12,5.35 -12,12 v 1 c 0,-6.65 5.35,-12 12,-12 h 52 c 16,0 16,-8 28,-8 h 120 c 6.65,0 12,5.35 12,12 v -1 c 0,-6.65 -5.35,-12 -12,-12 z" fill="#fff" opacity=".1"/><path d="M 108,64 C 96,64 96,72 80,72 H 28 c -6.65,0 -12,5.35 -12,12 v 0.5 c 0,-6.65 5.35,-12 12,-12 h 52 c 16,0 16,-8 28,-8 h 120 c 6.65,0 12,5.35 12,12 V 76 c 0,-6.65 -5.35,-12 -12,-12 z" fill="#fff" opacity=".2"/><path d="M 108,63 C 96,63 96,71 80,71 H 28 v 1 h 52 c 16,0 16,-8 28,-8 h 120 v -1 z" opacity=".1"/><path d="m 108,63.5 c -12,0 -12,8 -28,8 H 28 V 72 h 52 c 16,0 16,-8 28,-8 h 120 v -0.5 z" opacity=".2"/></g>
</svg>