<svg height="256" version="1.1" width="256" xmlns="http://www.w3.org/2000/svg" xmlns:svg="http://www.w3.org/2000/svg" xmlns:xlink="http://www.w3.org/1999/xlink">
<defs id="primary-definitions">
<style id="current-color-scheme" type="text/css">
      .ColorScheme-Text         { color: #232629; }
      .ColorScheme-Background   { color: #eff0f1; }
      .ColorScheme-Highlight    { color: #7ec9f0; }
      .ColorScheme-PositiveText { color: #27ae60; }
      .ColorScheme-NeutralText  { color: #f67400; }
      .ColorScheme-NegativeText { color: #da4453; }
      .ColorScheme-ActiveText   { color: #3daee9; }
      .ColorScheme-Complement   { color: #ffffff; }
      .ColorScheme-Contrast     { color: #000000; }
    </style>
<style id="extended-color-scheme" type="text/css">
      .ExScheme-Black     { color:#3e3e3e; }
      .ExScheme-White     { color:#fcfcfc; }
      .ExScheme-Grey-1    { color:#cfd5d5; }
      .ExScheme-Grey-2    { color:#909c9c; }
      .ExScheme-Grey-3    { color:#536161; }
      .ExScheme-Red-1     { color:#ffafa5; }
      .ExScheme-Red-2     { color:#bf4231; }
      .ExScheme-Red-3     { color:#4d2f2b; }
      .ExScheme-Green-1   { color:#abf9c7; }
      .ExScheme-Green-2   { color:#3bb566; }
      .ExScheme-Green-3   { color:#377d50; }
      .ExScheme-Blue-1    { color:#abdaf9; }
      .ExScheme-Blue-2    { color:#3daefd; }
      .ExScheme-Blue-3    { color:#2b3c4d; }
      .ExScheme-Yellow-1  { color:#faffa5; }
      .ExScheme-Yellow-2  { color:#cac726; }
      .ExScheme-Yellow-3  { color:#4b4d2b; }
      .ExScheme-Orange-1  { color:#ffdaa5; }
      .ExScheme-Orange-2  { color:#ff9701; }
      .ExScheme-Orange-3  { color:#4d372b; }
      .ExScheme-Brown-1   { color:#e9d6bb; }
      .ExScheme-Brown-2   { color:#997657; }
      .ExScheme-Brown-3   { color:#433a35; }
      .ExScheme-Purple-1  { color:#e2abf9; }
      .ExScheme-Purple-2  { color:#b401ff; }
      .ExScheme-Purple-3  { color:#432b4d; }
      .ExScheme-Cyan-1    { color:#b2f2e6; }
      .ExScheme-Cyan-2    { color:#31bfa6; }
      .ExScheme-Cyan-3    { color:#2b4d47; }
      .ExScheme-Magenta-1 { color:#f8a6d8; }
      .ExScheme-Magenta-2 { color:#f00091; }
      .ExScheme-Magenta-3 { color:#770048; }
    </style>
<linearGradient id="uXJ">
<stop offset="0"/>
<stop offset="1" stop-opacity="0"/>
</linearGradient>
<linearGradient id="uXK">
<stop offset="0" stop-color="#fff"/>
<stop offset="1" stop-color="#fff" stop-opacity="0"/>
</linearGradient>
<linearGradient id="uXL">
<stop offset="0" stop-color="#909c9c"/>
<stop offset=".105" stop-color="#909c9c"/>
<stop offset=".5" stop-color="#b0b8b8"/>
<stop offset=".895" stop-color="#909c9c"/>
<stop offset="1" stop-color="#6f8181"/>
</linearGradient><linearGradient id="uXM">
<stop offset="0" stop-color="#000000"/>
<stop offset="1" stop-color="#000000" stop-opacity="0"/>
</linearGradient><style class="toggle-enable-crease" type="text/css">
        .folder-crease { display: none; }
    </style><style class="toggle-manilla-folders" type="text/css">
        .folder-manilla { display: none; }
    </style><radialGradient cx=".5" cy="0" id="uXN" r="1" xlink:href="#uXK"/><linearGradient id="uXO" xlink:href="#uXJ" y1="1" y2=".5"/><clipPath clipPathUnits="userSpaceOnUse" id="uXP">
<rect height="900" width="1600" x="0" y="58.874992"/>
</clipPath><radialGradient cx="8" cy="32" fx="8" fy="32" gradientTransform="matrix(0,8.5,-4.26,0,264.27,-36.14)" gradientUnits="userSpaceOnUse" id="uXQ" r="22.54" xlink:href="#uXK"/><linearGradient gradientTransform="matrix(4,0,0,4,0,1.2e-6)" gradientUnits="userSpaceOnUse" id="uXR" x1="12.11" x2="20.39" xlink:href="#uXJ" y1="32.02" y2="31.5"/><linearGradient gradientTransform="matrix(-4,0,0,4,256,1.2e-6)" gradientUnits="userSpaceOnUse" id="uXS" x1="12.11" x2="20.39" xlink:href="#uXM" y1="32.02" y2="31.5"/><linearGradient gradientTransform="matrix(4,0,0,4,0,1.2e-6)" gradientUnits="userSpaceOnUse" id="uXT" x1="13" x2="51" xlink:href="#uXL" y1="50" y2="50"/><path d="M 53.2,32 C 46.56,32 40.65,37.37 41.2,44 L 52.2,176.05 128,192 203.8,176.05 214.8,44 C 215.35,37.37 209.44,32 202.8,32 Z" id="uXU" opacity=".4"></path><path d="m 70.45,39.4 4.16,1.5 -1.36,4.67 3.83,1.2 6.96,-4.7 -1.26,-2.4 3.25,-3.2 -5.87,-3.1 -3.37,1.7 z" id="uXV"></path><path d="m 74.6,40.8 -1.36,4.67 3.3,-1.83 z" id="uXW"></path><path d="m 80.16,33.35 -3.37,1.7 .7,1.8 4.06,.54 z" fill="#b0b8b8" id="uXX"></path><path d="m 74.6,40.8 2.9,-3.97 6.54,5.2 z" id="uXY"></path><path d="m 70.45,39.4 7.05,-2.45 5.3,2.83 -8.17,1.13 -1.36,4.67 z" fill="#fcfcfc" id="uXZ"></path><path d="m 72.53,48.4 -2.65,-2.74 2.8,-6.95 6.9,.1 3.6,-1.47 3.1,4.47 -1.76,4.9 -6.65,2.13 z" fill="#cfd5d5" id="uY0"></path><path d="m 72.7,38.7 1.1,4.4 4.2,-.2 1.6,-4.2 z" id="uY1"></path><path d="m 78,42.9 -5.47,5.5 5.4,.44 2.6,-2.97 z" fill="#909c9c" id="uY2"></path><path d="m 84.6,46.7 -1.65,-1.4 1.6,-2.97 1.8,-.55 z" id="uY3"></path><path d="M 83.2,37.34 80.5,45.87 79.7,38.8 Z" id="uY4"></path><path d="m 69.9,45.67 3.9,-2.56 4.2,-.2 5.2,-5.56 -2.7,8.53 -8,2.53 z" fill="#eff1f1" id="uY5"></path><path d="m 68.5,41.9 -2.1,-2.6 .57,-3.05 4.2,-1.25 .44,-2.8 3.33,-1.3 6.14,1 .5,4.67 .97,1.2 -1.4,1.4 -7.95,3.03 -2.34,-.03 z" fill="#cfd5d5" id="uY6"></path><path d="m 68.5,41.9 1.9,-3.2 2.87,-1.5 2.2,.93 3.3,-.14 .8,-.56 -.64,1.77 -5.85,.75 z" id="uY7"></path><path d="m 66.97,36.26 3.44,2.44 2.87,-1.5 -2.2,-2.17 z" fill="#b0b8b8" id="uY8"></path><path d="m 75.5,38.1 -.66,-7.17 6.14,1 -1.4,5.47 -.8,.56 z" fill="#b0b8b8" id="uY9"></path><path d="m 73.13,42.27 -.04,-2.34 5.85,-.75 2.14,.06 z" fill="#b0b8b8" id="uYa"></path><path d="m 71.07,35 9.9,-3.07 -6.14,-1 -3.33,1.3 z" id="uYb"></path><path d="m 25.05,29.6 6.25,4 -1.85,3.9 -8.2,-4.3 z" id="uYc"></path><path d="m 38.86,20.56 7.1,-1.4 -5.07,-6.63 -5.86,-.07 2.2,4.3 -1.16,4.64 z" id="uYd"></path><path d="m 31.45,39.4 7.06,3.9 5.1,-1.7 -1.4,-3.57 -9.83,-.55 z" id="uYe"></path></defs>
<g id="content" transform="translate(0,0)"><use class="ColorScheme-Text" fill="currentColor" href="#uXU"></use><g id="trash-contents" transform="matrix(4.06,0,0,4.06,-2.343,-3.66)">
<g transform="matrix(.27,-1.053,1.053,.27,-30.46,98.07)">
<use fill="#eff1f1" href="#uXV"></use>
<use fill="#b0b8b8" href="#uXW"></use>
<use href="#uXX"></use>
<use fill="#b0b8b8" href="#uXY"></use>
<use href="#uXZ"></use>
</g>
<path d="m 333.7,66.5 -19.7,21.67 3.64,16.25 11.2,31.74 29.5,-5.2 9.27,-15.06 -12.1,-34.76 -11.6,2.77 z" opacity=".5" transform="matrix(.246,0,0,.246,-51.174,.9)"/>
<g transform="rotate(100.56,59.707,4.655)">
<use href="#uY0"></use>
<use fill="#b0b8b8" href="#uY1"></use>
<use href="#uY2"></use>
<use fill="#b0b8b8" href="#uY3"></use>
<use fill="#b0b8b8" href="#uY4"></use>
<use href="#uY5"></use>
</g>
<g transform="matrix(1.087,0,0,1.087,-61.947,-7.26)">
<path d="m 70.45,39.4 4.25,-.44 -.1,1.96 -1.36,4.67 3.83,1.2 6.96,-4.7 -1.26,-2.4 3.25,-3.2 -5.87,-3.1 -3.37,1.7 z" fill="#eff1f1"/>
<use fill="#b0b8b8" href="#uXW"></use>
<use href="#uXX"></use>
<use fill="#b0b8b8" href="#uXY"></use>
<path d="m 70.45,39.4 7.05,-2.45 5.3,2.83 -8.17,1.13 -1.36,4.67 .96,-6.17 z" fill="#6f8181"/>
</g>
<g transform="matrix(-1.24,.07,-.07,-1.24,135.425,55.033)">
<use href="#uY6"></use>
<use fill="#eff1f1" href="#uY7"></use>
<use href="#uY8"></use>
<use href="#uY9"></use>
<use href="#uYa"></use>
<use fill="#eff1f1" href="#uYb"></use>
</g>
<path d="m 17.5,7.15 -3.2,2.1 -1.4,5.2 .87,6.93 4.5,2.63 4.96,-2.25 -.8,-3.8 1.35,-6.76 z m 27.17,.55 -2.9,.13 -9.64,4.3 -1.6,1.84 1.3,1.45 .95,5.75 7.7,.8 4.03,-1.8 .34,-3.5 5,-1.84 .5,-3.8 -2.77,-3.1 z m -19.53,21.3 -3.66,1.86 -6.9,4.6 4.1,0 -1.04,6.7 4.16,1.3 7.56,-5 -1.37,-2.6 3.53,-3.5 z" opacity=".2"/>
<g transform="rotate(167.475,61.5,29.93)">
<use fill="#cfd5d5" href="#uXV"></use>
<use fill="#eff1f1" href="#uXW"></use>
<use href="#uXX"></use>
<use fill="#eff1f1" href="#uXY"></use>
<use href="#uXZ"></use>
</g>
<g transform="translate(-36.493,-9.024)">
<use href="#uY0"></use>
<use fill="#909c9c" href="#uY1"></use>
<use href="#uY2"></use>
<use fill="#909c9c" href="#uY3"></use>
<use fill="#909c9c" href="#uY4"></use>
<use href="#uY5"></use>
</g>
<g transform="rotate(167.475,48.846,28.447)">
<use href="#uY6"></use>
<use fill="#eff1f1" href="#uY7"></use>
<use href="#uY8"></use>
<use href="#uY9"></use>
<use href="#uYa"></use>
<use fill="#909c9c" href="#uYb"></use>
</g>
<g transform="rotate(118.504,63.385,15.576)">
<use href="#uY6"></use>
<use fill="#909c9c" href="#uY7"></use>
<use href="#uY8"></use>
<use href="#uY9"></use>
<use href="#uYa"></use>
<use fill="#eff1f1" href="#uYb"></use>
</g>
<g transform="matrix(1.127,0,0,1.127,-55.89,-27.475)">
<use href="#uY6"></use>
<use fill="#909c9c" href="#uY7"></use>
<use href="#uY8"></use>
<use href="#uY9"></use>
<use href="#uYa"></use>
<use fill="#eff1f1" href="#uYb"></use>
</g>
<g transform="rotate(-142.69,58.245,45.66)">
<use href="#uY6"></use>
<use fill="#eff1f1" href="#uY7"></use>
<use href="#uY8"></use>
<use href="#uY9"></use>
<use href="#uYa"></use>
<use fill="#909c9c" href="#uYb"></use>
</g>
<path d="m 41.1,6.9 -3.3,.6 -1.37,1.86 -1.15,2.05 -1.13,8.43 .6,1.9 1.54,-.27 1.5,.6 -.9,.9 1.75,2.06 -2.47,3.85 3.13,.86 -3.06,-.04 -2.8,6.95 .86,.9 .03,1.24 -2.43,4 4.27,4.5 3.4,1 2.04,-1.96 4,1.5 2.4,-2.1 -.1,-3.34 -1.63,-1.64 -1.85,-1.45 -.73,-.2 4.45,-1.43 1.76,-4.9 -3.1,-4.47 -2.7,1.1 1.4,-1.17 5.27,-5.5 -4.1,-5.43 -2.1,-.17 .3,-2.34 -2.25,-1.7 .86,-4.2 z m -14.34,12.65 -2.3,.2 -2.4,.5 -7.1,4.7 -1.04,1.67 1.2,1 1.5,4.45 3.3,-.2 -5.43,3.63 4.1,0 -1.04,6.7 4.16,1.3 7.56,-5 -1.37,-2.6 3.53,-3.5 -5.65,-3 -.16,-2.5 3.73,-2.1 -.1,-3.1 z" opacity=".2"/>
<use fill="#01ff5b" href="#uYc"></use>
<use fill="#001909" href="#uYc" opacity=".2"></use>
<path d="m 29.45,37.5 -7.36,-1.7 -.83,-2.6 7.44,3.4 1.96,-.9 z" fill="#01ff5b"/>
<use fill="#ffa92d" href="#uYd"></use>
<use fill="#3daefd" href="#uYe"></use>
<use href="#uYe" opacity=".2"></use>
<g transform="rotate(100.56,58.634,12.673)">
<use href="#uY0"></use>
<use fill="#b0b8b8" href="#uY1"></use>
<use href="#uY2"></use>
<use fill="#b0b8b8" href="#uY3"></use>
<use fill="#b0b8b8" href="#uY4"></use>
<use href="#uY5"></use>
</g>
<use fill="#010202" href="#uYd" opacity=".2"></use>
<g transform="rotate(-157.83,55.22,32.353)">
<use href="#uY6"></use>
<use fill="#536161" href="#uY7"></use>
<use href="#uY8"></use>
<use href="#uY9"></use>
<use href="#uYa"></use>
<use fill="#909c9c" href="#uYb"></use>
</g>
<g transform="matrix(.28,1.05,-1.05,.28,56.043,-58.51)">
<use fill="#eff1f1" href="#uXV"></use>
<use fill="#b0b8b8" href="#uXW"></use>
<use href="#uXX"></use>
<use fill="#b0b8b8" href="#uXY"></use>
<path d="m 70.45,39.4 7.05,-2.45 -4.5,2.57 1.6,1.4 -1.36,4.67 .26,-4.2 z" fill="#536161"/>
</g>
<g transform="translate(-48.26,6.82)">
<use href="#uY6"></use>
<use fill="#909c9c" href="#uY7"></use>
<use href="#uY8"></use>
<use href="#uY9"></use>
<use href="#uYa"></use>
<use fill="#eff1f1" href="#uYb"></use>
</g>
<path d="m 38.5,43.2 3.7,-5.27 2.45,1.4 -1.07,2.14 z" fill="#3daefd"/>
<path d="m 35.04,12.44 5.86,.07 -3.2,2.6 -1,2.64 -5.74,-.8 .6,-2.9 z" fill="#ffa92d"/>
</g><path class="ColorScheme-Text" d="m 53.2,32 c -6.65,0 -12.55,5.37 -12,12 l 11,132.05 7.8,7.95 .1,-8 L 49.2,44 C 48.65,37.37 54.56,32 61.2,32 Z M 194.8,32 c 6.65,0 12.55,5.37 12,12 l -10.9,132 .1,8 7.8,-7.95 11,-132.05 C 215.35,37.37 209.44,32 202.8,32 Z" fill="currentColor" opacity=".4"/><use class="ColorScheme-Text" fill="currentColor" href="#uXU"></use><path d="m 52.2,176 3,36 c .55,6.63 5.35,12 12,12 H 188.8 c 6.65,0 11.45,-5.37 12,-12 l 3,-36 z" fill="url(#uXT)" id="metal-cup"/><path d="m 53.2,32 c -6.65,0 -12.55,5.37 -12,12 l 14,168 c .55,6.63 5.35,12 12,12 H 96 V 32 Z" fill="url(#uXR)" opacity=".2"/><path d="m 160,32 v 192 h 28.8 c 6.65,0 11.45,-5.37 12,-12 L 214.8,44 C 215.35,37.37 209.44,32 202.8,32 Z" fill="url(#uXS)" opacity=".2"/><path class="ColorScheme-Contrast" d="M 52.16 175.5 L 52.2 176 L 203.8 176 L 203.84 175.5 L 52.16 175.5 z " fill="currentColor" opacity=".1"/><path class="ColorScheme-Complement" d="M 52.2 176 L 52.24 176.5 L 203.76 176.5 L 203.8 176 L 52.2 176 z " fill="currentColor" opacity=".2"/><path class="ColorScheme-Contrast" d="M 53.2,32 C 46.7,32 40.9,37.15 41.2,43.6 41.5,37.63 47.04,33 53.2,33 H 202.8 c 6.17,0 11.7,4.63 12,10.6 C 215.1,37.15 209.3,32 202.8,32 Z" fill="currentColor" opacity=".05"/><path class="ColorScheme-Contrast" d="m 53.2,32 c -6.3,0 -11.9,4.85 -12,11 C 41.6,37.1 47.06,32.5 53.2,32.5 H 202.8 c 6.14,0 11.63,4.6 12,10.5 C 214.7,36.85 209.1,32 202.8,32 Z" fill="currentColor" opacity=".1"/><path class="ColorScheme-Contrast" d="m 55.26,212.45 c .73,6.4 5.45,11.55 11.95,11.55 H 188.8 c 6.5,0 11.2,-5.14 11.95,-11.55 -.2,.7 -.4,1.4 -.7,2.06 -1.66,4.9 -5.83,8.5 -11.25,8.5 H 67.2 c -5.4,0 -9.6,-3.6 -11.25,-8.5 -.3,-.66 -.5,-1.35 -.7,-2.06 z" fill="currentColor" opacity=".1"/><path class="ColorScheme-Contrast" d="M 55.4 213.5 C 56.5 219.4 61.06 224 67.2 224 L 188.8 224 C 194.94 224 199.5 219.4 200.6 213.5 C 200.43 214 200.26 214.5 200.05 215 C 198.4 219.9 194.2 223.5 188.8 223.5 L 67.2 223.5 C 61.8 223.5 57.6 219.9 55.95 215 C 55.74 214.5 55.57 214 55.4 213.5 z " fill="currentColor" opacity=".2"/><path d="m 53.2,32 c -6.65,0 -12.55,5.37 -12,12 L 55.2,212 c .55,6.63 5.35,12 12,12 h 121.6 c 6.65,0 11.45,-5.37 12,-12 L 214.8,44 C 215.35,37.37 209.44,32 202.8,32 Z" fill="url(#uXQ)" id="gloss" opacity=".2"/></g>
</svg>