<?xml version="1.0" encoding="UTF-8" standalone="no"?>
<svg
   viewBox="0 0 42 30"
   version="1.1"
   id="svg6"
   sodipodi:docname="overlay-digital-bottom.42.svg"
   inkscape:version="1.1.1 (1:1.1+202109281949+c3084ef5ed)"
   width="42"
   height="30"
   xmlns:inkscape="http://www.inkscape.org/namespaces/inkscape"
   xmlns:sodipodi="http://sodipodi.sourceforge.net/DTD/sodipodi-0.dtd"
   xmlns:xlink="http://www.w3.org/1999/xlink"
   xmlns="http://www.w3.org/2000/svg"
   xmlns:svg="http://www.w3.org/2000/svg">
  <path
     fill="#fff"
     opacity=".2"
     d="m 24,30 h 3 v -3 h -3 z m -3,0 v -3 h -3 v 3 z m -6,0 v -3 h -3 v 3 z M 12,27 V 24 H 9 v 3 z M 9,27 H 6 v 3 H 9 Z M 6,27 V 24 H 3 v 3 z M 3,27 H 0 v 1 c 0,1.108 0.892,2 2,2 H 3 Z M 3,24 V 21 H 0 v 3 z M 3,21 H 6 V 19 H 3 Z M 3,19 V 17 H 2 v 2 z m 3,2 v 3 h 3 v -3 z m 33,9 v -3 h -3 v 3 z m -3,-3 v -3 h -3 v 3 z m -3,0 h -3 v 3 h 3 z m 3,-3 h 3 v -3 h -3 z m 3,-3 h 2 v -2 h -2 z m 0,3 v 3 h 3 v -3 z" />
  <rect
     id="emblem"
     fill="#ffcc00"
     width="24"
     height="24"
     x="9"
     y="3" />
</svg>
