<?xml version="1.0" encoding="UTF-8" standalone="no"?>
<svg
   viewBox="0 0 84 60"
   version="1.1"
   id="svg6"
   sodipodi:docname="overlay-digital-bottom.84.svg"
   inkscape:version="1.1.1 (1:1.1+202109281949+c3084ef5ed)"
   width="84"
   height="60"
   xmlns:inkscape="http://www.inkscape.org/namespaces/inkscape"
   xmlns:sodipodi="http://sodipodi.sourceforge.net/DTD/sodipodi-0.dtd"
   xmlns="http://www.w3.org/2000/svg"
   xmlns:svg="http://www.w3.org/2000/svg">
  <path
     fill="#fff"
     opacity=".2"
     d="m 54,60 v -6 h -6 v 6 z m -12,0 v -6 h -6 v 6 z m -12,0 v -6 h -6 v 6 z m -6,-6 v -6 h -6 v 6 z m -6,0 h -6 v 6 h 6 z m -6,0 V 48 H 6 v 6 z M 6,54 H 0 v 4 c 0,1.108 0.892,2 2,2 H 6 Z M 6,48 V 42 H 0 v 6 z m 0,-6 h 6 V 39 H 6 Z M 6,39 V 33 H 3 v 6 z m 6,3 v 6 h 6 v -6 z m 66,18 v -6 h -6 v 6 z m -6,-6 v -6 h -6 v 6 z m -6,0 h -6 v 6 h 6 z m 6,-6 h 6 v -6 h -6 z m 6,-6 h 3 v -3 h -3 z m 0,6 v 6 h 6 v -6 z" />
  <rect
     fill="#ffcc00"
     id="emblem"
     width="48"
     height="48"
     x="18"
     y="6" />
</svg>
