<?xml version="1.0" encoding="UTF-8" standalone="no"?>
<svg
   viewBox="0 0 112 80"
   version="1.1"
   id="svg6"
   sodipodi:docname="overlay-digital-top.112.svg"
   inkscape:version="1.1.1 (1:1.1+202109281949+c3084ef5ed)"
   width="112"
   height="80"
   xmlns:inkscape="http://www.inkscape.org/namespaces/inkscape"
   xmlns:sodipodi="http://sodipodi.sourceforge.net/DTD/sodipodi-0.dtd"
   xmlns:xlink="http://www.w3.org/1999/xlink"
   xmlns="http://www.w3.org/2000/svg"
   xmlns:svg="http://www.w3.org/2000/svg">
  <path
     fill="#fff"
     opacity=".2"
     d="M 44,0 C 42.666706,0 41.333294,0.45919136 40,1.0517578 V 8 h 8 V 0 Z m 12,0 v 8 h 8 V 0 Z m 16,0 v 8 h 8 V 0 Z m 8,8 v 8 h 8 V 8 Z m 8,0 h 8 V 0 h -8 z m 8,0 v 8 h 8 V 8 Z m 8,0 h 8 V 1 c 0,-0.554 -0.446,-1 -1,-1 h -7 z m 0,8 v 8 h 8 v -8 z m 0,8 h -8 v 4 h 8 z m 0,4 v 8 h 4 v -8 z m -8,-4 v -8 h -8 v 8 z M 8,4 v 4 h 8 V 4 Z m 8,4 v 8 h 8 V 8 Z m 8,0 h 8 V 4 h -8 z m -8,8 H 8 v 8 h 8 z M 8,24 H 4 v 4 H 8 Z M 8,16 V 8 H 0 v 8 z" />
  <rect
     id="emblem"
     fill="#ffcc00"
     width="64"
     height="64"
     x="24"
     y="8" />
</svg>
