<?xml version="1.0" encoding="UTF-8" standalone="no"?>
<svg
   viewBox="0 0 56 40"
   version="1.1"
   id="svg6"
   sodipodi:docname="digital-top.56.svg"
   inkscape:version="1.1.1 (1:1.1+202109281949+c3084ef5ed)"
   width="56"
   height="40"
   xmlns:inkscape="http://www.inkscape.org/namespaces/inkscape"
   xmlns:sodipodi="http://sodipodi.sourceforge.net/DTD/sodipodi-0.dtd"
   xmlns="http://www.w3.org/2000/svg"
   xmlns:svg="http://www.w3.org/2000/svg">
  <defs
     id="defs8" />
  <sodipodi:namedview
     id="namedview6"
     pagecolor="#ffffff"
     bordercolor="#666666"
     borderopacity="1.0"
     inkscape:pageshadow="2"
     inkscape:pageopacity="0.0"
     inkscape:pagecheckerboard="0"
     showgrid="false"
     inkscape:zoom="15.9"
     inkscape:cx="17.358491"
     inkscape:cy="20"
     inkscape:window-width="1920"
     inkscape:window-height="1017"
     inkscape:window-x="0"
     inkscape:window-y="0"
     inkscape:window-maximized="1"
     inkscape:current-layer="svg6" />
  <rect
     id="emblem"
     fill="#ffcc00"
     width="32"
     height="32"
     x="12"
     y="4" />
  <path
     id="rect3342"
     style="opacity:0.2;fill:#ffffff;stroke-linecap:round;stroke-linejoin:round;paint-order:stroke fill markers;stop-color:#000000;fill-opacity:1"
     d="M 22 0 L 22 2 L 24 2 L 24 0 L 22 0 z M 24 2 L 24 4 L 26 4 L 26 2 L 24 2 z M 26 2 L 28 2 L 28 0 L 26 0 L 26 2 z M 28 2 L 28 4 L 30 4 L 30 2 L 28 2 z M 30 2 L 32 2 L 32 0 L 30 0 L 30 2 z M 32 2 L 32 4 L 34 4 L 34 2 L 32 2 z M 34 2 L 36 2 L 36 0 L 34 0 L 34 2 z M 36 2 L 36 4 L 38 4 L 38 2 L 36 2 z M 38 2 L 40 2 L 40 0 L 38 0 L 38 2 z M 40 2 L 40 4 L 42 4 L 42 2 L 40 2 z M 42 2 L 44 2 L 44 0 L 42 0 L 42 2 z M 44 2 L 44 4 L 46 4 L 46 2 L 44 2 z M 46 2 L 48 2 L 48 0 L 46 0 L 46 2 z M 48 2 L 48 4 L 50 4 L 50 2 L 48 2 z M 50 2 L 52 2 L 52 0 L 50 0 L 50 2 z M 52 2 L 52 4 L 54 4 L 54 2 L 52 2 z M 54 2 L 56 2 C 56 0.892 55.108 0 54 0 L 54 2 z M 22 2 L 20 2 L 20 4 L 22 4 L 22 2 z M 20 2 L 20 0.52539062 C 19.333177 0.82173917 18.666823 1.1782608 18 1.4746094 L 18 2 L 20 2 z M 18 2 L 16 2 L 16 4 L 18 4 L 18 2 z M 2 2 C 0.89 2 0 2.892 0 4 L 2 4 L 2 2 z M 4 2 L 4 4 L 6 4 L 6 2 L 4 2 z M 8 2 L 8 4 L 10 4 L 10 2 L 8 2 z M 12 2 L 12 4 L 14 4 L 14 2 L 12 2 z " />
</svg>
