<?xml version="1.0" encoding="UTF-8" standalone="no"?>
<svg
   viewBox="0 0 112 80"
   version="1.1"
   id="svg6"
   sodipodi:docname="digital-bottom.112.svg"
   inkscape:version="1.1.1 (1:1.1+202109281949+c3084ef5ed)"
   width="112"
   height="80"
   xmlns:inkscape="http://www.inkscape.org/namespaces/inkscape"
   xmlns:sodipodi="http://sodipodi.sourceforge.net/DTD/sodipodi-0.dtd"
   xmlns:xlink="http://www.w3.org/1999/xlink"
   xmlns="http://www.w3.org/2000/svg"
   xmlns:svg="http://www.w3.org/2000/svg">
  <defs
     id="defs1026">
    <radialGradient
       xlink:href="#gradientLight"
       id="gl1"
       cx="54.089872"
       cy="37.862911"
       r="94.657277"
       gradientTransform="scale(1.183216,0.84515425)"
       fx="54.089872"
       fy="37.862911"
       gradientUnits="userSpaceOnUse" />
    <linearGradient
       id="gradientLight">
      <stop
         stop-opacity="1"
         offset="0"
         stop-color="#fff"
         id="stop9" />
      <stop
         stop-opacity="0"
         offset="1"
         stop-color="#fff"
         id="stop11" />
    </linearGradient>
  </defs>
  <sodipodi:namedview
     id="namedview1024"
     pagecolor="#ffffff"
     bordercolor="#666666"
     borderopacity="1.0"
     inkscape:pageshadow="2"
     inkscape:pageopacity="0.0"
     inkscape:pagecheckerboard="0"
     showgrid="true"
     inkscape:zoom="15.9"
     inkscape:cx="12.138365"
     inkscape:cy="69.685535"
     inkscape:window-width="1920"
     inkscape:window-height="1017"
     inkscape:window-x="0"
     inkscape:window-y="0"
     inkscape:window-maximized="1"
     inkscape:current-layer="svg6"
     inkscape:snap-bbox="true"
     inkscape:snap-bbox-edge-midpoints="false"
     inkscape:bbox-nodes="true">
    <inkscape:grid
       type="xygrid"
       id="grid5454" />
  </sodipodi:namedview>
  <rect
     id="emblem"
     fill="#ffcc00"
     width="64"
     height="64"
     x="24"
     y="8" />
  <path
     id="rect3899"
     style="opacity:0.2;fill:#ffffff;stroke-linecap:round;stroke-linejoin:round;paint-order:stroke fill markers;stop-color:#000000;fill-opacity:1"
     d="M 0 74 C 0 74.705698 0.14341053 75.372123 0.36523438 76 L 2 76 L 2 74 L 0 74 z M 2 76 L 2 78 L 4 78 L 4 76 L 2 76 z M 4 76 L 6 76 L 6 74 L 4 74 L 4 76 z M 6 76 L 6 78 L 8 78 L 8 76 L 6 76 z M 8 76 L 10 76 L 10 74 L 8 74 L 8 76 z M 10 76 L 10 78 L 12 78 L 12 76 L 10 76 z M 12 76 L 14 76 L 14 74 L 12 74 L 12 76 z M 14 76 L 14 78 L 16 78 L 16 76 L 14 76 z M 16 76 L 18 76 L 18 74 L 16 74 L 16 76 z M 18 76 L 18 78 L 20 78 L 20 76 L 18 76 z M 20 76 L 22 76 L 22 74 L 20 74 L 20 76 z M 22 76 L 22 78 L 24 78 L 24 76 L 22 76 z M 24 76 L 26 76 L 26 74 L 24 74 L 24 76 z M 26 76 L 26 78 L 28 78 L 28 76 L 26 76 z M 28 76 L 30 76 L 30 74 L 28 74 L 28 76 z M 30 76 L 30 78 L 32 78 L 32 76 L 30 76 z M 32 76 L 34 76 L 34 74 L 32 74 L 32 76 z M 34 76 L 34 78 L 36 78 L 36 76 L 34 76 z M 36 76 L 38 76 L 38 74 L 36 74 L 36 76 z M 38 76 L 38 78 L 40 78 L 40 76 L 38 76 z M 40 76 L 42 76 L 42 74 L 40 74 L 40 76 z M 42 76 L 42 78 L 44 78 L 44 76 L 42 76 z M 44 76 L 46 76 L 46 74 L 44 74 L 44 76 z M 46 76 L 46 78 L 48 78 L 48 76 L 46 76 z M 48 76 L 50 76 L 50 74 L 48 74 L 48 76 z M 50 76 L 50 78 L 52 78 L 52 76 L 50 76 z M 52 76 L 54 76 L 54 74 L 52 74 L 52 76 z M 54 76 L 54 78 L 56 78 L 56 76 L 54 76 z M 56 76 L 58 76 L 58 74 L 56 74 L 56 76 z M 58 76 L 58 78 L 60 78 L 60 76 L 58 76 z M 60 76 L 62 76 L 62 74 L 60 74 L 60 76 z M 62 76 L 62 78 L 64 78 L 64 76 L 62 76 z M 64 76 L 66 76 L 66 74 L 64 74 L 64 76 z M 66 76 L 66 78 L 68 78 L 68 76 L 66 76 z M 68 76 L 70 76 L 70 74 L 68 74 L 68 76 z M 70 76 L 70 78 L 72 78 L 72 76 L 70 76 z M 72 76 L 74 76 L 74 74 L 72 74 L 72 76 z M 74 76 L 74 78 L 76 78 L 76 76 L 74 76 z M 76 76 L 78 76 L 78 74 L 76 74 L 76 76 z M 78 76 L 78 78 L 80 78 L 80 76 L 78 76 z M 80 76 L 82 76 L 82 74 L 80 74 L 80 76 z M 82 76 L 82 78 L 84 78 L 84 76 L 82 76 z M 84 76 L 86 76 L 86 74 L 84 74 L 84 76 z M 86 76 L 86 78 L 88 78 L 88 76 L 86 76 z M 88 76 L 90 76 L 90 74 L 88 74 L 88 76 z M 90 76 L 90 78 L 92 78 L 92 76 L 90 76 z M 92 76 L 94 76 L 94 74 L 92 74 L 92 76 z M 94 76 L 94 78 L 96 78 L 96 76 L 94 76 z M 96 76 L 98 76 L 98 74 L 96 74 L 96 76 z M 98 76 L 98 78 L 100 78 L 100 76 L 98 76 z M 100 76 L 102 76 L 102 74 L 100 74 L 100 76 z M 102 76 L 102 78 L 104 78 L 104 76 L 102 76 z M 104 76 L 106 76 L 106 74 L 104 74 L 104 76 z M 106 76 L 106 78 L 108 78 L 108 76 L 106 76 z M 108 76 L 110 76 L 110 74 L 108 74 L 108 76 z M 110 76 L 110 78 L 110.44922 78 C 110.96822 77.42266 111.37041 76.748278 111.63477 76 L 110 76 z M 110 78 L 108 78 L 108 79.634766 C 108.74828 79.370405 109.42266 78.968223 110 78.449219 L 110 78 z M 106 78 L 104 78 L 104 80 L 106 80 L 106 78 z M 102 78 L 100 78 L 100 80 L 102 80 L 102 78 z M 98 78 L 96 78 L 96 80 L 98 80 L 98 78 z M 94 78 L 92 78 L 92 80 L 94 80 L 94 78 z M 90 78 L 88 78 L 88 80 L 90 80 L 90 78 z M 86 78 L 84 78 L 84 80 L 86 80 L 86 78 z M 82 78 L 80 78 L 80 80 L 82 80 L 82 78 z M 78 78 L 76 78 L 76 80 L 78 80 L 78 78 z M 74 78 L 72 78 L 72 80 L 74 80 L 74 78 z M 70 78 L 68 78 L 68 80 L 70 80 L 70 78 z M 66 78 L 64 78 L 64 80 L 66 80 L 66 78 z M 62 78 L 60 78 L 60 80 L 62 80 L 62 78 z M 58 78 L 56 78 L 56 80 L 58 80 L 58 78 z M 54 78 L 52 78 L 52 80 L 54 80 L 54 78 z M 50 78 L 48 78 L 48 80 L 50 80 L 50 78 z M 46 78 L 44 78 L 44 80 L 46 80 L 46 78 z M 42 78 L 40 78 L 40 80 L 42 80 L 42 78 z M 38 78 L 36 78 L 36 80 L 38 80 L 38 78 z M 34 78 L 32 78 L 32 80 L 34 80 L 34 78 z M 30 78 L 28 78 L 28 80 L 30 80 L 30 78 z M 26 78 L 24 78 L 24 80 L 26 80 L 26 78 z M 22 78 L 20 78 L 20 80 L 22 80 L 22 78 z M 18 78 L 16 78 L 16 80 L 18 80 L 18 78 z M 14 78 L 12 78 L 12 80 L 14 80 L 14 78 z M 10 78 L 8 78 L 8 80 L 10 80 L 10 78 z M 6 78 L 4 78 L 4 79.634766 C 4.627877 79.856589 5.2943023 80 6 80 L 6 78 z M 2 78 L 1.5507812 78 C 1.6930642 78.158275 1.8417246 78.306936 2 78.449219 L 2 78 z " />
</svg>
