<?xml version="1.0" encoding="UTF-8" standalone="no"?>
<svg
   viewBox="0 0 224 160"
   version="1.1"
   id="svg6"
   sodipodi:docname="overlay-digital-top.224.svg"
   inkscape:version="1.1.1 (1:1.1+202109281949+c3084ef5ed)"
   width="224"
   height="160"
   xmlns:inkscape="http://www.inkscape.org/namespaces/inkscape"
   xmlns:sodipodi="http://sodipodi.sourceforge.net/DTD/sodipodi-0.dtd"
   xmlns:xlink="http://www.w3.org/1999/xlink"
   xmlns="http://www.w3.org/2000/svg"
   xmlns:svg="http://www.w3.org/2000/svg">
  <path
     fill="#fff"
     opacity=".2"
     d="M 88 0 C 85.333412 0 82.666588 0.91838272 80 2.1035156 L 80 16 L 96 16 L 96 0 L 88 0 z M 112 0 L 112 16 L 128 16 L 128 0 L 112 0 z M 144 0 L 144 16 L 160 16 L 160 0 L 144 0 z M 160 16 L 160 32 L 176 32 L 176 16 L 160 16 z M 176 16 L 192 16 L 192 0 L 176 0 L 176 16 z M 192 16 L 192 32 L 208 32 L 208 16 L 192 16 z M 208 16 L 224 16 L 224 2 C 224 0.892 223.108 0 222 0 L 208 0 L 208 16 z M 208 32 L 208 48 L 224 48 L 224 32 L 208 32 z M 208 48 L 192 48 L 192 56 L 208 56 L 208 48 z M 208 56 L 208 72 L 216 72 L 216 56 L 208 56 z M 192 48 L 192 32 L 176 32 L 176 48 L 192 48 z M 16 8 L 16 16 L 32 16 L 32 8 L 16 8 z M 32 16 L 32 32 L 48 32 L 48 16 L 32 16 z M 48 16 L 64 16 L 64 8 L 48 8 L 48 16 z M 32 32 L 16 32 L 16 48 L 32 48 L 32 32 z M 16 48 L 8 48 L 8 56 L 16 56 L 16 48 z M 16 32 L 16 16 L 0 16 L 0 32 L 16 32 z " />
  <rect
     id="emblem"
     fill="#ffcc00"
     width="128"
     height="128"
     x="48"
     y="16" />
</svg>
