<?xml version="1.0" encoding="UTF-8" standalone="no"?>
<svg
   viewBox="0 0 224 160"
   version="1.1"
   id="svg6"
   sodipodi:docname="overlay-digital-bottom.224.svg"
   inkscape:version="1.1.1 (1:1.1+202109281949+c3084ef5ed)"
   width="224"
   height="160"
   xmlns:inkscape="http://www.inkscape.org/namespaces/inkscape"
   xmlns:sodipodi="http://sodipodi.sourceforge.net/DTD/sodipodi-0.dtd"
   xmlns="http://www.w3.org/2000/svg"
   xmlns:svg="http://www.w3.org/2000/svg">
  <path
     fill="#fff"
     opacity=".2"
     d="M 144,159.89648 V 144 h -16 v 16 z M 112,160 V 144 H 96 v 16 z m -32,0 V 144 H 64 v 16 z M 64,144 V 128 H 48 v 16 z m -16,0 H 32 v 16 h 16 z m -16,0 V 128 H 16 v 16 z m -16,0 H 0 v 14 c 0,1.108 0.892,2 2,2 h 14 z m 0,-16 V 112 H 0 v 16 z m 0,-16 h 16 v -8 H 16 Z m 0,-8 V 88 H 8 v 16 z m 16,8 v 16 h 16 v -16 z m 176,48 v -16 h -16 v 16 z m -16,-16 v -16 h -16 v 16 z m -16,0 h -16 v 16 h 16 z m 16,-16 h 16 v -16 h -16 z m 16,-16 h 8 v -8 h -8 z m 0,16 v 16 h 16 v -16 z" />
  <rect
     id="emblem"
     fill="#ffcc00"
     width="128"
     height="128"
     x="48"
     y="16" />
</svg>
