<?xml version="1.0" encoding="UTF-8" standalone="no"?>
<svg
   viewBox="0 0 42 30"
   version="1.1"
   id="svg6"
   sodipodi:docname="overlay-digital-top.42.svg"
   inkscape:version="1.1.1 (1:1.1+202109281949+c3084ef5ed)"
   width="42"
   height="30"
   xmlns:inkscape="http://www.inkscape.org/namespaces/inkscape"
   xmlns:sodipodi="http://sodipodi.sourceforge.net/DTD/sodipodi-0.dtd"
   xmlns:xlink="http://www.w3.org/1999/xlink"
   xmlns="http://www.w3.org/2000/svg"
   xmlns:svg="http://www.w3.org/2000/svg">
  <path
     fill="#fff"
     opacity=".2"
     d="M 18 0 C 17 0 16 0.5 15 1 L 15 3 L 18 3 L 18 0 z M 21 0 L 21 3 L 24 3 L 24 0 L 21 0 z M 27 0 L 27 3 L 30 3 L 30 0 L 27 0 z M 30 3 L 30 6 L 33 6 L 33 3 L 30 3 z M 33 3 L 36 3 L 36 0 L 33 0 L 33 3 z M 36 3 L 36 6 L 39 6 L 39 3 L 36 3 z M 39 3 L 42 3 L 42 2 C 42 0.892 41.108 0 40 0 L 39 0 L 39 3 z M 39 6 L 39 9 L 42 9 L 42 6 L 39 6 z M 39 9 L 36 9 L 36 11 L 39 11 L 39 9 z M 39 11 L 39 13 L 40 13 L 40 11 L 39 11 z M 36 9 L 36 6 L 33 6 L 33 9 L 36 9 z M 3 2 L 3 3 L 6 3 L 6 2 L 3 2 z M 6 3 L 6 6 L 9 6 L 9 3 L 6 3 z M 9 3 L 12 3 L 12 2 L 9 2 L 9 3 z M 6 6 L 3 6 L 3 9 L 6 9 L 6 6 z M 3 9 L 1 9 L 1 11 L 3 11 L 3 9 z M 3 6 L 3 3 L 0.27539062 3 C 0.1045119 3.2950013 -3.7007434e-17 3.6330699 0 4 L 0 6 L 3 6 z " />
  <rect
     id="emblem"
     fill="#ffcc00"
     width="24"
     height="24"
     x="9"
     y="3" />
</svg>
