<?xml version="1.0" encoding="UTF-8" standalone="no"?>
<svg
   viewBox="0 0 56 40"
   version="1.1"
   id="svg6"
   sodipodi:docname="overlay-digital-bottom.56.svg"
   inkscape:version="1.1.1 (1:1.1+202109281949+c3084ef5ed)"
   width="56"
   height="40"
   xmlns:inkscape="http://www.inkscape.org/namespaces/inkscape"
   xmlns:sodipodi="http://sodipodi.sourceforge.net/DTD/sodipodi-0.dtd"
   xmlns="http://www.w3.org/2000/svg"
   xmlns:svg="http://www.w3.org/2000/svg">
  <path
     fill="#fff"
     opacity=".2"
     d="m 36,40 v -4 h -4 v 4 z m -8,0 v -4 h -4 v 4 z m -8,0 v -4 h -4 v 4 z m -4,-4 v -4 h -4 v 4 z m -4,0 H 8 v 4 h 4 z M 8,36 V 32 H 4 v 4 z M 4,36 H 0 v 2 c 0,1.108 0.892,2 2,2 H 4 Z M 4,32 V 28 H 0 v 4 z M 4,28 H 8 V 26 H 4 Z M 4,26 V 22 H 2 v 4 z m 4,2 v 4 h 4 v -4 z m 44,12 v -4 h -4 v 4 z m -4,-4 v -4 h -4 v 4 z m -4,0 h -4 v 4 h 4 z m 4,-4 h 4 v -4 h -4 z m 4,-4 h 2 v -2 h -2 z m 0,4 v 4 h 4 v -4 z" />
  <rect
     id="emblem"
     fill="#ffcc00"
     width="32"
     height="32"
     x="12"
     y="4" />
</svg>
