<?xml version="1.0" encoding="UTF-8" standalone="no"?>
<svg
   viewBox="0 0 112 80"
   version="1.1"
   id="svg6"
   sodipodi:docname="overlay-digital-bottom.112.svg"
   inkscape:version="1.1.1 (1:1.1+202109281949+c3084ef5ed)"
   width="112"
   height="80"
   xmlns:inkscape="http://www.inkscape.org/namespaces/inkscape"
   xmlns:sodipodi="http://sodipodi.sourceforge.net/DTD/sodipodi-0.dtd"
   xmlns="http://www.w3.org/2000/svg"
   xmlns:svg="http://www.w3.org/2000/svg">
  <path
     fill="#fff"
     opacity=".2"
     d="m 72,80 v -8 h -8 v 8 z m -16,0 v -8 h -8 v 8 z m -16,0 v -8 h -8 v 8 z m -8,-8 v -8 h -8 v 8 z m -8,0 h -8 v 8 h 8 z m -8,0 V 64 H 8 v 8 z M 8,72 H 0 v 6 c 0,1.108 0.892,2 2,2 H 8 Z M 8,64 V 56 H 0 v 8 z m 0,-8 h 8 V 52 H 8 Z M 8,52 V 44 H 4 v 8 z m 8,4 v 8 h 8 v -8 z m 88,24 v -8 h -8 v 8 z m -8,-8 v -8 h -8 v 8 z m -8,0 h -8 v 8 h 8 z m 8,-8 h 8 v -8 h -8 z m 8,-8 h 4 v -4 h -4 z m 0,8 v 8 h 8 v -8 z" />
  <rect
     id="emblem"
     fill="#ffcc00"
     width="64"
     height="64"
     x="24"
     y="8" />
</svg>
