<?xml version="1.0" encoding="UTF-8" standalone="no"?>
<!-- Created with Inkscape (http://www.inkscape.org/) -->

<svg
   xmlns:dc="http://purl.org/dc/elements/1.1/"
   xmlns:cc="http://creativecommons.org/ns#"
   xmlns:rdf="http://www.w3.org/1999/02/22-rdf-syntax-ns#"
   xmlns:svg="http://www.w3.org/2000/svg"
   xmlns="http://www.w3.org/2000/svg"
   xmlns:sodipodi="http://sodipodi.sourceforge.net/DTD/sodipodi-0.dtd"
   xmlns:inkscape="http://www.inkscape.org/namespaces/inkscape"
   width="22"
   version="1.1"
   height="22"
   id="svg2"
   inkscape:version="0.91 r13725"
   sodipodi:docname="application-msoutlook-22.svg">
  <sodipodi:namedview
     pagecolor="#ffffff"
     bordercolor="#666666"
     borderopacity="1"
     objecttolerance="10"
     gridtolerance="10"
     guidetolerance="10"
     inkscape:pageopacity="0"
     inkscape:pageshadow="2"
     inkscape:window-width="1366"
     inkscape:window-height="699"
     id="namedview14"
     showgrid="false"
     inkscape:zoom="10.727273"
     inkscape:cx="11.652542"
     inkscape:cy="11"
     inkscape:window-x="0"
     inkscape:window-y="0"
     inkscape:window-maximized="1"
     inkscape:current-layer="outlook" />
  <defs
     id="defs3871" />
  <metadata
     id="metadata3874">
    <rdf:RDF>
      <cc:Work
         rdf:about="">
        <dc:format>image/svg+xml</dc:format>
        <dc:type
           rdf:resource="http://purl.org/dc/dcmitype/StillImage" />
      </cc:Work>
    </rdf:RDF>
  </metadata>
  <g
     inkscape:label="Capa 1"
     inkscape:groupmode="layer"
     id="layer1"
     transform="matrix(1 0 0 1 -326 -534.3622)">
    <rect
       width="0"
       x="326.49567"
       y="535.98694"
       height="10.999983"
       style="fill:#22a7f0"
       id="rect4035" />
    <rect
       width="0"
       x="321.94366"
       y="538.50604"
       height="10.999983"
       style="fill:#22a7f0"
       id="rect4035-7" />
    <rect
       width="0"
       x="317.43588"
       y="526.08746"
       height="10.999983"
       style="fill:#22a7f0"
       id="rect4035-9" />
    <rect
       width="0"
       x="318.27991"
       y="538.32489"
       height="10.999983"
       style="fill:#22a7f0"
       id="rect4035-96" />
    <rect
       width="0"
       x="313.72791"
       y="540.84399"
       height="10.999983"
       style="fill:#22a7f0"
       id="rect4035-7-0" />
    <rect
       width="0"
       x="309.22012"
       y="528.42542"
       height="10.999983"
       style="fill:#22a7f0"
       id="rect4035-9-6" />
    <g
       transform="matrix(0.18204292,0,0,0.18204292,269.77536,537.6271)"
       id="outlook">
      <path
         style="fill:#3e58a6;fill-opacity:1"
         inkscape:connector-curvature="0"
         d="M 371.02,0 377,0 c 0,6.67 0,13.33 0,20 10.36,0.02 20.71,-0.03 31.06,0 2.04,-0.1 4.83,0.49 4.79,3.06 0.38,12.65 0.01,25.33 0.18,37.99 0.04,2.24 -0.03,5.77 -3.08,5.8 -10.97,0.38 -21.97,0.03 -32.95,0.15 0,6.33 0,12.67 0,19 l -6.2,0 C 355.56,83.23 340.28,80.68 325.02,78 325.01,54.67 325.01,31.34 325.01,8.02 340.35,5.33 355.69,2.73 371.02,0 Z"
         id="path40" />
      <path
         style="fill:#ffffff;fill-opacity:1"
         inkscape:connector-curvature="0"
         d="m 377,23 c 11.08,0.01 22.15,-0.03 33.23,0.02 -0.19,1.31 -0.59,2.6 -1.69,3.42 -6.62,6.17 -13.2,12.37 -19.8,18.56 -3.97,-3.59 -7.83,-7.3 -11.74,-10.95 0,-3.69 0,-7.37 0,-11.05 z"
         id="path42" />
      <path
         style="fill:#ffffff;fill-opacity:1"
         inkscape:connector-curvature="0"
         d="m 346.45,26.66 c 5.64,-2.13 12.23,0.86 14.62,6.31 3.26,7.5 2.8,17.76 -3.68,23.43 -5.97,5.11 -15.98,2.2 -18.7,-5.06 -3.58,-8.37 -1.84,-21.25 7.76,-24.68 z"
         id="path44" />
      <path
         style="fill:#ffffff;fill-opacity:1"
         inkscape:connector-curvature="0"
         d="m 391.88,45.89 c 6.01,-5.71 12.07,-11.38 18.11,-17.06 0.03,11.72 0,23.45 0.01,35.17 -11,0 -22,0 -33,0 0,-8.72 -0.01,-17.44 0.01,-26.15 3.73,3.3 7.07,7.06 11.03,10.07 1.63,0.3 2.73,-1.11 3.84,-2.03 z"
         id="path46" />
      <path
         style="fill:#3e58a6;fill-opacity:1"
         inkscape:connector-curvature="0"
         d="m 347.42,32.67 c 2.66,-1.27 5.99,0.02 7.24,2.65 2,3.96 1.99,8.79 0.68,12.97 -0.93,2.97 -4.18,5.42 -7.33,4.25 -3.93,-1.24 -5.12,-5.9 -5.16,-9.55 -0.05,-3.78 0.82,-8.49 4.57,-10.32 z"
         id="path48" />
    </g>
  </g>
</svg>
