<?xml version="1.0" encoding="UTF-8" standalone="no"?>
<!-- Created with Inkscape (http://www.inkscape.org/) -->

<svg
   xmlns:dc="http://purl.org/dc/elements/1.1/"
   xmlns:cc="http://creativecommons.org/ns#"
   xmlns:rdf="http://www.w3.org/1999/02/22-rdf-syntax-ns#"
   xmlns:svg="http://www.w3.org/2000/svg"
   xmlns="http://www.w3.org/2000/svg"
   xmlns:sodipodi="http://sodipodi.sourceforge.net/DTD/sodipodi-0.dtd"
   xmlns:inkscape="http://www.inkscape.org/namespaces/inkscape"
   width="22"
   version="1.1"
   height="22"
   id="svg2"
   inkscape:version="0.91 r13725"
   sodipodi:docname="application-vnd.ms-powerpoint.template.macroenabled.12-22.svg">
  <sodipodi:namedview
     pagecolor="#ffffff"
     bordercolor="#666666"
     borderopacity="1"
     objecttolerance="10"
     gridtolerance="10"
     guidetolerance="10"
     inkscape:pageopacity="0"
     inkscape:pageshadow="2"
     inkscape:window-width="1366"
     inkscape:window-height="699"
     id="namedview12"
     showgrid="false"
     inkscape:zoom="32.531137"
     inkscape:cx="11.494409"
     inkscape:cy="11"
     inkscape:window-x="0"
     inkscape:window-y="0"
     inkscape:window-maximized="1"
     inkscape:current-layer="powerpoint" />
  <defs
     id="defs3871" />
  <metadata
     id="metadata3874">
    <rdf:RDF>
      <cc:Work
         rdf:about="">
        <dc:format>image/svg+xml</dc:format>
        <dc:type
           rdf:resource="http://purl.org/dc/dcmitype/StillImage" />
      </cc:Work>
    </rdf:RDF>
  </metadata>
  <g
     inkscape:label="Capa 1"
     inkscape:groupmode="layer"
     id="layer1"
     transform="matrix(1 0 0 1 -326 -534.3622)">
    <rect
       width="0"
       x="326.49567"
       y="535.98694"
       height="10.999983"
       style="fill:#6c7a89"
       id="rect4035" />
    <rect
       width="0"
       x="321.94366"
       y="538.50604"
       height="10.999983"
       style="fill:#6c7a89"
       id="rect4035-7" />
    <rect
       width="0"
       x="317.43588"
       y="526.08746"
       height="10.999983"
       style="fill:#6c7a89"
       id="rect4035-9" />
    <path
       inkscape:connector-curvature="0"
       style="fill:#6c7a89;stroke-linecap:round;stroke-linejoin:round;stroke-width:2"
       id="rect4169-4"
       d="m 336.9995,542.3622 c -0.83305,0 -1.61102,0.25574 -2.15908,0.73537 C 334.29225,543.5772 334,544.25818 334,544.98718 l 1.71383,0 c 0,-0.39586 0.13665,-0.6525 0.33838,-0.8289 0.20159,-0.17672 0.49525,-0.2961 0.94729,-0.2961 0.45287,0 0.7457,0.1194 0.94782,0.2961 0.20184,0.1764 0.33785,0.43304 0.33785,0.8289 0,0.3438 -0.076,0.49004 -0.18053,0.61969 -0.4469,0.39461 -0.98704,0.73165 -1.42122,1.05465 -0.49028,0.32186 -0.96904,0.74396 -0.96904,1.32568 l 0,0.37498 1.71403,0 0,-0.37498 c 0.60947,-0.54572 1.51702,-1.02166 2.0825,-1.522 0.29841,-0.37423 0.48909,-0.88402 0.48909,-1.47828 0,-0.729 -0.29241,-1.40972 -0.84025,-1.88935 -0.54823,-0.47963 -1.32672,-0.73537 -2.1599,-0.73537 z m -1.28512,7.50028 0,1.49972 1.71403,0 0,-1.49972 z" />
    <path
       inkscape:connector-curvature="0"
       style="fill:#ffffff;stroke-width:2;stroke-linecap:round;stroke-linejoin:round"
       id="rect4169-4-4"
       d="m 337.25293,542.69872 c -0.64806,0 -1.25315,0.22726 -1.67945,0.65354 -0.42628,0.4263 -0.65354,1.0314 -0.65354,1.67945 l 1.33313,0 c 0,-0.3518 0.10599,-0.57992 0.26299,-0.73688 0.15695,-0.15695 0.38506,-0.26298 0.73687,-0.26298 0.3518,0 0.57991,0.10599 0.73686,0.26298 0.15696,0.15696 0.26299,0.38508 0.26299,0.73688 0,0.30551 -0.0603,0.43548 -0.14061,0.55069 -0.34747,0.35056 -0.7677,0.65028 -1.1053,0.93737 -0.38107,0.2861 -0.75361,0.66121 -0.75361,1.17821 l 0,0.33328 1.33314,0 0,-0.33328 c 0.47381,-0.48503 1.17981,-0.90797 1.61936,-1.35267 0.23207,-0.33264 0.38016,-0.78591 0.38016,-1.3136 0,-0.64805 -0.22726,-1.25315 -0.65355,-1.67945 -0.4263,-0.42628 -1.03139,-0.65354 -1.67944,-0.65354 z m -0.99967,6.66568 0,1.33314 1.33314,0 0,-1.33314 z" />
    <path
       inkscape:connector-curvature="0"
       style="fill:#ffffff;stroke-width:2;stroke-linecap:round;stroke-linejoin:round"
       id="rect4169-4-6"
       d="m 337.35123,542.41476 c -0.70892,0 -1.37084,0.24862 -1.83714,0.71492 -0.46633,0.46633 -0.71492,1.12825 -0.71492,1.83714 l 1.4583,0 c 0,-0.38482 0.11599,-0.63437 0.28769,-0.80606 0.1717,-0.1717 0.42123,-0.28767 0.80607,-0.28767 0.38484,0 0.63435,0.11598 0.80606,0.28767 0.17169,0.17169 0.28767,0.42124 0.28767,0.80606 0,0.33421 -0.0658,0.47639 -0.1538,0.60242 -0.3801,0.38348 -0.83978,0.71132 -1.2091,1.02538 -0.41685,0.31298 -0.82436,0.7233 -0.82436,1.28885 l 0,0.36458 1.4583,0 0,-0.36458 c 0.51831,-0.53057 1.2906,-0.99322 1.77142,-1.47969 0.25387,-0.36386 0.41586,-0.8597 0.41586,-1.43696 0,-0.70889 -0.2486,-1.37081 -0.71492,-1.83714 -0.46632,-0.4663 -1.12823,-0.71492 -1.83713,-0.71492 z m -1.09353,7.29162 0,1.45832 1.4583,0 0,-1.45832 z" />
    <g
       transform="matrix(0.13626473,0,0,0.13626473,319.98437,545.91188)"
       id="powerpoint">
      <path
         style="fill:#6c7a89;fill-opacity:1"
         inkscape:connector-curvature="0"
         d="m 127.7056,-60.267781 7.55889,0 c 0,3.999411 0,7.998821 0,11.998231 14.25123,0.07999 28.51579,-0.146645 42.75369,0.06666 3.06622,-0.29329 5.46587,2.093025 5.15924,5.159239 0.22664,24.902995 -0.0533,49.8193212 0.13332,74.735647 -0.13332,2.692937 0.26663,5.679163 -1.27981,8.065478 -1.94638,1.413125 -4.47934,1.226486 -6.75901,1.333136 -13.33136,-0.06666 -26.66273,-0.03999 -40.00743,-0.03999 0,4.439346 0,8.892023 0,13.331368 l -8.29211,0 c -20.317,-3.70612 -40.674002,-7.092288 -61.004337,-10.665094 -0.01333,-31.102081 0,-62.204161 0,-93.292911 20.5703,-3.559475 41.140597,-7.185607 61.737557,-10.691757 z"
         id="path29" />
      <path
         style="fill:#ffffff;fill-opacity:1"
         inkscape:connector-curvature="0"
         d="m 135.26449,-44.270139 c 14.6645,0 29.32901,0 43.99351,0 0,27.10267 0,54.2186717 0,81.321342 -14.6645,0 -29.32901,0 -43.99351,0 0,-3.559475 0,-7.105619 0,-10.665094 10.66509,0 21.33019,0 31.99528,0 0,-1.773072 0,-3.559475 0,-5.332547 -10.66509,0 -21.33019,0 -31.99528,0 0,-2.226338 0,-4.439345 0,-6.665684 10.66509,0 21.33019,0 31.99528,0 0,-1.773072 0,-3.559475 0,-5.3325469 -10.66509,0 -21.33019,0 -31.98195,0 -0.0133,-2.6129481 -0.0133,-5.2258962 -0.0267,-7.8388442 5.27922,1.6397582 11.29167,1.5997641 16.01097,-1.57310139 5.10591,-3.02622041 7.77219,-8.79870251 8.21212,-14.55785351 -5.85247,-0.03999 -11.70494,-0.02666 -17.54408,-0.02666 -0.0133,-5.799144 0.0667,-11.598289 -0.11998,-17.384103 -2.18634,0.426604 -4.37269,0.87987 -6.5457,1.346468 0,-4.426014 0,-8.865359 0,-13.291373 z"
         id="path31" />
      <path
         style="fill:#6c7a89;fill-opacity:1"
         inkscape:connector-curvature="0"
         d="m 144.60978,-35.11149 c 9.2653,0.426604 17.05082,8.225454 17.54408,17.464092 -5.85247,0.06666 -11.70494,0.03999 -17.55741,0.03999 0,-5.839139 -0.0133,-11.678278 0.0133,-17.504086 z"
         id="path33" />
      <path
         style="fill:#ffffff;fill-opacity:1"
         inkscape:connector-curvature="0"
         d="m 87.351556,-25.046307 c 7.238933,0.346615 16.010974,-2.866244 22.010084,2.559622 5.74582,6.972306 4.22605,19.7970812 -4.2927,23.9697992 -3.02622,1.5464387 -6.492372,1.3331368 -9.78522,1.2264859 -0.01333,5.2125647 -0.02666,10.4251299 -0.01333,15.6376939 -2.639611,-0.226633 -5.292553,-0.453266 -7.932164,-0.666568 -0.119982,-14.2379007 -0.146645,-28.489133 0.01333,-42.727033 z"
         id="path35" />
      <path
         style="fill:#6c7a89;fill-opacity:1"
         inkscape:connector-curvature="0"
         d="m 95.270389,-17.834037 c 2.626279,-0.119983 5.879131,-0.599912 7.652201,1.866391 1.51978,2.612948 1.43979,6.0524411 0.17331,8.7453773 -1.51977,2.7462616 -4.959267,2.4796343 -7.612209,2.7995871 -0.279959,-4.466008 -0.253296,-8.9320164 -0.213302,-13.4113554 z"
         id="path37" />
    </g>
  </g>
</svg>
