<?xml version="1.0" encoding="UTF-8" standalone="no"?>

<!-- Created with Inkscape (http://www.inkscape.org/) -->
<svg width="22" version="1.1" xmlns="http://www.w3.org/2000/svg" height="22" xmlns:inkscape="http://www.inkscape.org/namespaces/inkscape">
 <defs id="defs3871"/>
 <metadata id="metadata3874"/>
 <g inkscape:label="Capa 1" inkscape:groupmode="layer" id="layer1" transform="matrix(1 0 0 1 -326 -534.3622)">
  <rect width="0" x="318.27991" y="538.32489" height="10.999983" style="fill:#f62459" id="rect4035"/>
  <rect width="0" x="313.72791" y="540.84399" height="10.999983" style="fill:#8e44ad" id="rect4035-7"/>
  <rect width="0" x="309.22012" y="528.42542" height="10.999983" style="fill:#f62459" id="rect4035-9"/>
  <path inkscape:connector-curvature="0" style="fill:#6c7a89" id="rect4139" d="m 329.9999,537.3623 0,16 1,0 8,0 1,0 0,-0.01 0.008,0.01 3.99219,-3.9922 0,-0.008 0,-1.40625 0,-10.59375 -1,0 -12,0 -1,0 z m 1,1 12,0 0,10 -4,0 0,1 0,3 -8,0 0,-14 z"/>
 </g>
</svg>
