<?xml version="1.0" encoding="UTF-8" standalone="no"?>
<!-- Created with Inkscape (http://www.inkscape.org/) -->

<svg
   xmlns:dc="http://purl.org/dc/elements/1.1/"
   xmlns:cc="http://creativecommons.org/ns#"
   xmlns:rdf="http://www.w3.org/1999/02/22-rdf-syntax-ns#"
   xmlns:svg="http://www.w3.org/2000/svg"
   xmlns="http://www.w3.org/2000/svg"
   xmlns:sodipodi="http://sodipodi.sourceforge.net/DTD/sodipodi-0.dtd"
   xmlns:inkscape="http://www.inkscape.org/namespaces/inkscape"
   width="22"
   version="1.1"
   height="22"
   id="svg2"
   inkscape:version="0.91 r13725"
   sodipodi:docname="application-vnd.visio-22.svg">
  <sodipodi:namedview
     pagecolor="#ffffff"
     bordercolor="#666666"
     borderopacity="1"
     objecttolerance="10"
     gridtolerance="10"
     guidetolerance="10"
     inkscape:pageopacity="0"
     inkscape:pageshadow="2"
     inkscape:window-width="1366"
     inkscape:window-height="699"
     id="namedview7"
     showgrid="false"
     inkscape:zoom="28.315414"
     inkscape:cx="11.652542"
     inkscape:cy="11"
     inkscape:window-x="0"
     inkscape:window-y="0"
     inkscape:window-maximized="1"
     inkscape:current-layer="svg2" />
  <defs
     id="defs3871" />
  <metadata
     id="metadata3874">
    <rdf:RDF>
      <cc:Work
         rdf:about="">
        <dc:format>image/svg+xml</dc:format>
        <dc:type
           rdf:resource="http://purl.org/dc/dcmitype/StillImage" />
      </cc:Work>
    </rdf:RDF>
  </metadata>
  <path
     d="M 10.303046,18.688078 C 9.5011803,18.54659 7.5282518,18.208602 5.9245339,17.933446 l -2.9320797,-0.487482 0,-6.044861 c 0,-4.252636 0.023577,-6.0370556 0.086448,-6.0370556 3.1738954,-0.372141 5.7105369,-1.0401381 9.0827304,-1.5609332 0.01199,0.643075 0.02784,1.0264317 0.02784,7.6138128 l 0,7.546307 c -0.698514,-0.146629 -1.260855,-0.163586 -1.886467,-0.275156 z m 8.65186,-13.0828409 c -0.02784,1.7378387 -0.02784,10.4285009 -0.0067,11.5709919 -0.744855,0.004 -1.036648,0.05741 -3.354464,0.05741 l -3.089366,0 0,-0.903926 0,-0.896106 1.006172,-0.02358 0.998366,-0.02358 0.02358,-0.683994 0.02358,-0.683995 0.762437,-0.02358 0.762438,-0.02358 0.03929,-1.509264 0.03929,-1.51707 0.809658,-0.809658 c 0.440261,-0.4402603 0.801866,-0.8568911 0.801866,-0.919736 0,-0.070597 -0.42445,-0.5423073 -0.94334,-1.0612108 L 15.884403,7.219051 15.03553,8.0601314 l -0.856692,0.84148 -0.84108,0 -0.833275,0 0,-1.6507384 0,-1.6507509 3.089165,0 c 1.12062,-7.193e-4 2.241239,0.00266 3.361831,0.00533 z M 16.418531,8.6891535 16.906013,9.1844403 16.371511,9.7111362 15.837009,10.237845 15.333917,9.7269473 14.830838,9.2160625 15.333917,8.7051777 c 0.275156,-0.282962 0.526709,-0.5108981 0.550313,-0.5108981 0.02358,0 0.267151,0.2197175 0.534301,0.4948739 z m -1.61131,1.5328805 0.77023,0.77023 -0.02358,1.210704 -0.02358,1.218497 -0.487481,0.02358 -0.487481,0.02358 -0.02358,-0.652372 -0.02358,-0.652373 -0.998366,-0.02358 -1.006184,-0.02358 0,-1.281342 c 0,-0.699592 0.02358,-1.3047312 0.05501,-1.328348 0.02358,-0.031436 0.369411,-0.055013 0.762451,-0.055013 l 0.715191,0 z m -0.888314,3.513815 0,1.061198 -0.707398,0 -0.707412,0 0,-1.061198 0,-1.061211 0.707412,0 0.707398,0 z"
     id="path10"
     inkscape:connector-curvature="0"
     sodipodi:nodetypes="cccsccsccccscccccccccccssccccccccccccccccscccccccccccscscccccccccccc"
     style="fill:#3a539b;fill-opacity:1" />
  <path
     inkscape:connector-curvature="0"
     d="M 8.6520944,8.8148167 C 8.4713919,8.8621036 8.431964,8.9799079 8.01532,10.772147 7.7715861,11.817534 7.5594611,12.690236 7.5358576,12.713853 7.5202729,12.73743 7.3157272,11.927812 7.0878044,10.929433 6.8598684,9.9232611 6.6633547,9.0507583 6.6475436,8.9957323 6.592531,8.8462392 5.7436316,8.8620503 5.7436316,9.0193091 c 0,0.086449 0.5895275,2.4684149 1.1870738,4.7793449 l 0.078723,0.298773 0.5188903,-0.02358 0.5187037,-0.02358 0.6918005,-2.554877 c 0.3852082,-1.407005 0.691787,-2.6018843 0.6995927,-2.6569102 0,-0.1020331 -0.4482663,-0.1178842 -0.7862543,-0.023577 z"
     id="path12"
     style="fill:#ffffff;fill-opacity:1" />
</svg>
