<svg version="1.1" viewBox="0 0 22 22" xmlns="http://www.w3.org/2000/svg">
    <g transform="translate(-326 -534.3622)">
        <path d="m335.6385 537.36405s-0.0477 0.0724-0.0714 0.10885c-0.56989 0.87468-1.09771 1.83802-1.58334 2.8896-0.59917 1.32095-1.04859 2.69447-1.34818 4.12109-0.32263 1.42661-0.46056 2.73452-0.41447 3.92337 0.0692 1.16242 0.28775 2.14014 0.65648 2.9327 0.36872 0.79256 0.87537 1.36047 1.52064 1.70392 0.64527 0.34344 1.40617 0.40905 2.2819 0.19771 0.85266-0.21136 1.71754-0.67157 2.59251-1.3861 0.16031-0.13091 1.06733-1.02013 1.69075-1.70843 0.46227-0.51038 0.69707-0.86655 0.82416-1.00756v-2.41519c-0.077 0.0687-0.26068 0.40289-0.71057 0.88515-0.55485 0.59476-1.3945 1.35726-1.49279 1.43239-0.69136 0.50195-1.36031 0.79237-2.00558 0.87162-0.66832 0.0793-1.23221-0.0531-1.69311-0.39648-0.46091-0.34345-0.81838-0.85865-1.07187-1.54554-0.23046-0.68689-0.34586-1.50542-0.34586-2.4565 0-0.97749 0.13793-2.03479 0.41447-3.1708 0.27655-1.136 0.66872-2.21912 1.17572-3.24946 0.29011-0.60468 0.59516-1.16624 0.91533-1.68452 0.01-0.0159 0.0295-0.0477 0.0295-0.0477z" fill="#da2c2c"/>
    </g>
</svg>
