<?xml version="1.0" encoding="UTF-8" standalone="no"?>
<!-- Created with Inkscape (http://www.inkscape.org/) -->

<svg
   xmlns:dc="http://purl.org/dc/elements/1.1/"
   xmlns:cc="http://creativecommons.org/ns#"
   xmlns:rdf="http://www.w3.org/1999/02/22-rdf-syntax-ns#"
   xmlns:svg="http://www.w3.org/2000/svg"
   xmlns="http://www.w3.org/2000/svg"
   xmlns:sodipodi="http://sodipodi.sourceforge.net/DTD/sodipodi-0.dtd"
   xmlns:inkscape="http://www.inkscape.org/namespaces/inkscape"
   width="22"
   version="1.1"
   height="22"
   id="svg2"
   inkscape:version="0.91 r13725"
   sodipodi:docname="application-x-ms-dos-executable.svg">
  <sodipodi:namedview
     pagecolor="#ffffff"
     bordercolor="#666666"
     borderopacity="1"
     objecttolerance="10"
     gridtolerance="10"
     guidetolerance="10"
     inkscape:pageopacity="0"
     inkscape:pageshadow="2"
     inkscape:window-width="1920"
     inkscape:window-height="1013"
     id="namedview12"
     showgrid="true"
     inkscape:zoom="16.263418"
     inkscape:cx="-9.6042255"
     inkscape:cy="10.860351"
     inkscape:window-x="0"
     inkscape:window-y="38"
     inkscape:window-maximized="1"
     inkscape:current-layer="layer1">
    <inkscape:grid
       type="xygrid"
       id="grid4140" />
  </sodipodi:namedview>
  <defs
     id="defs3871" />
  <metadata
     id="metadata3874">
    <rdf:RDF>
      <cc:Work
         rdf:about="">
        <dc:format>image/svg+xml</dc:format>
        <dc:type
           rdf:resource="http://purl.org/dc/dcmitype/StillImage" />
        <dc:title />
      </cc:Work>
    </rdf:RDF>
  </metadata>
  <g
     inkscape:label="Capa 1"
     inkscape:groupmode="layer"
     id="layer1"
     transform="matrix(1 0 0 1 -326 -534.3622)">
    <rect
       width="0"
       x="326.49567"
       y="535.98694"
       height="10.999983"
       style="fill:#6c7a89"
       id="rect4035" />
    <rect
       width="0"
       x="321.94366"
       y="538.50604"
       height="10.999983"
       style="fill:#6c7a89"
       id="rect4035-7" />
    <rect
       width="0"
       x="317.43588"
       y="526.08746"
       height="10.999983"
       style="fill:#6c7a89"
       id="rect4035-9" />
    <path
       style="fill:#25548c;fill-opacity:1"
       d="M 9.4003906 3.0136719 C 9.2004906 3.0136719 9.0358862 3.1616594 9.0039062 3.3496094 L 8.7050781 5.46875 C 8.2172881 5.67265 7.7653656 5.9360094 7.3535156 6.2558594 L 5.3613281 5.4511719 C 5.1813981 5.3831719 4.9730169 5.45307 4.8730469 5.625 L 3.2734375 8.3945312 C 3.1733675 8.5664513 3.2191938 8.7823 3.3710938 8.90625 L 5.0566406 10.230469 C 5.0246406 10.486359 5.0019531 10.745866 5.0019531 11.009766 C 5.0019531 11.273676 5.0245406 11.533172 5.0566406 11.789062 L 3.3710938 13.113281 C 3.2191537 13.233231 3.1734175 13.44908 3.2734375 13.625 L 4.8730469 16.396484 C 4.9731069 16.568424 5.1813981 16.640309 5.3613281 16.568359 L 7.3535156 15.763672 C 7.7653656 16.079542 8.2172881 16.346861 8.7050781 16.550781 L 9.0039062 18.669922 C 9.0358063 18.857862 9.2004906 19.005859 9.4003906 19.005859 L 12.597656 19.005859 C 12.797596 19.005859 12.962151 18.857862 12.994141 18.669922 L 13.294922 16.550781 C 13.782722 16.346861 14.234654 16.083532 14.646484 15.763672 L 16.636719 16.568359 C 16.816659 16.636359 17.02504 16.568424 17.125 16.396484 L 18.724609 13.625 C 18.824609 13.45308 18.780806 13.237231 18.628906 13.113281 L 16.941406 11.789062 C 16.973206 11.533172 16.996094 11.273676 16.996094 11.009766 C 16.996094 10.745866 16.973506 10.486359 16.941406 10.230469 L 18.632812 8.90625 C 18.784742 8.7863 18.828516 8.5704413 18.728516 8.3945312 L 17.128906 5.625 C 17.028846 5.45307 16.820545 5.3792019 16.640625 5.4511719 L 14.650391 6.2558594 C 14.238551 5.9400094 13.786628 5.67265 13.298828 5.46875 L 12.998047 3.3496094 C 12.962047 3.1616594 12.797596 3.0136719 12.597656 3.0136719 L 9.4003906 3.0136719 z "
       transform="translate(326,534.3622)"
       id="path6" />
    <path
       inkscape:connector-curvature="0"
       style="fill:#ff531f;fill-opacity:1"
       d="m 334.36891,544.92047 c 0.7812,-0.35847 1.59531,-0.30028 2.43686,0.10562 l 0.65637,-2.3237 c -0.784,-0.39172 -1.58797,-0.56369 -2.45195,-0.0754 l -0.64128,2.29352 z"
       id="path4" />
    <path
       inkscape:connector-curvature="0"
       style="fill:#82b31f;fill-opacity:1"
       d="m 337.66814,542.75972 c 1.10908,0.50612 1.90019,0.32724 2.49754,0.16414 l -0.63977,2.22746 c -1.15492,0.56178 -1.84517,0.20114 -2.52169,-0.0528 l 0.66392,-2.33879 z"
       id="path6-6" />
    <path
       inkscape:connector-curvature="0"
       style="fill:#ffb807;fill-opacity:1"
       d="m 336.95141,545.30976 c 0.74235,0.3129 1.52361,0.50913 2.50477,0.10561 l -0.79218,2.53495 c -0.93572,0.46903 -1.64882,0.3115 -2.44441,-0.0603 l 0.73182,-2.5802 z"
       id="path8" />
    <path
       inkscape:connector-curvature="0"
       style="fill:#04a7d1;fill-opacity:1"
       d="m 333.57904,547.72399 c 0.7907,-0.41207 1.60595,-0.32133 2.43684,0.0905 l 0.73183,-2.58777 c -0.33719,-0.15404 -1.11203,-0.57708 -2.4595,-0.0302 l -0.70917,2.5274 z"
       id="path10" />
  </g>
</svg>
