<svg version="1.1" viewBox="0 0 22 22" xmlns="http://www.w3.org/2000/svg">
 <path d="m3.4980469 2.9960938a0.50005 0.50005 0 0 0-0.3476563 0.8574218l1.859375 1.859375a8 8 0 0 0-2.0097656 5.2871094v8h16v-8a8 8 0 0 0-1.998047-5.2792969l1.859375-1.859375a0.50005 0.50005 0 0 0-0.357422-0.8613281 0.50005 0.50005 0 0 0-0.349609 0.1542969l-1.861328 1.8613281a8 8 0 0 0-5.292969-2.015625 8 8 0 0 0-5.2851562 2.0039062l-1.8574219-1.8574218a0.50005 0.50005 0 0 0-0.359375-0.1503906zm7.4101561 1.0039062a7 7 0 0 1 0.091797 0 7 7 0 0 1 4.587891 1.7207031 7 7 0 0 1 0.703125 0.7109375 7 7 0 0 1 1.708984 4.5683594h-14a7 7 0 0 1 1.7148438-4.5820312 7 7 0 0 1 0.6425781-0.6445313 7 7 0 0 1 0.0664062-0.0605469 7 7 0 0 1 4.4843749-1.7128906zm-2.908203 3a1 1 0 0 0-1 1 1 1 0 0 0 1 1 1 1 0 0 0 1-1 1 1 0 0 0-1-1zm6 0a1 1 0 0 0-1 1 1 1 0 0 0 1 1 1 1 0 0 0 1-1 1 1 0 0 0-1-1zm-10 5h6v1h1v-1h7v6h-14zm7 1v1h1v-1zm0 1h-1v2h2v-1h-1z" fill="#2f80ed"/>
</svg>
