<?xml version="1.0" encoding="UTF-8" standalone="no"?>

<!-- Created with Inkscape (http://www.inkscape.org/) -->
<svg width="22" version="1.1" xmlns="http://www.w3.org/2000/svg" height="22" xmlns:inkscape="http://www.inkscape.org/namespaces/inkscape">
 <defs id="defs3871"/>
 <metadata id="metadata3874"/>
 <g inkscape:label="Capa 1" inkscape:groupmode="layer" id="layer1" transform="matrix(1 0 0 1 -326 -534.3622)">
  <rect width="0" x="256.22556" y="514.69751" height="14.668059" style="fill:#6c7a89" id="rect4035"/>
  <rect width="0" x="263.18613" y="537.26813" height="14.668059" style="fill:#6c7a89" id="rect4035-8"/>
  <rect width="0" x="264.99942" y="536.2074" height="14.668059" style="fill:#6c7a89" id="rect4035-0"/>
  <rect width="0" x="256.22556" y="514.69751" height="14.668059" style="fill:#6c7a89" id="rect4035-3"/>
  <rect width="0" x="263.18613" y="537.26813" height="14.668059" style="fill:#6c7a89" id="rect4035-8-9"/>
  <rect width="0" x="264.99942" y="536.2074" height="14.668059" style="fill:#6c7a89" id="rect4035-0-4"/>
  <rect width="0" x="256.22556" y="514.69751" height="14.668059" style="fill:#6c7a89" id="rect4035-2"/>
  <rect width="0" x="263.18613" y="537.26813" height="14.668059" style="fill:#6c7a89" id="rect4035-8-99"/>
  <rect width="0" x="264.99942" y="536.2074" height="14.668059" style="fill:#6c7a89" id="rect4035-0-43"/>
  <rect width="0" x="256.22556" y="514.69751" height="14.668059" style="fill:#6c7a89" id="rect4035-3-9"/>
  <rect width="0" x="263.18613" y="537.26813" height="14.668059" style="fill:#6c7a89" id="rect4035-8-9-9"/>
  <rect width="0" x="264.99942" y="536.2074" height="14.668059" style="fill:#6c7a89" id="rect4035-0-4-4"/>
  <path style="fill:#6c7a89" id="rect4119-3" d="M 11 3 C 6.568 3 3 6.568 3 11 C 3 15.432 6.568 19 11 19 C 11.33985 19 11.67193 18.971187 12 18.929688 L 12 17.919922 C 11.67285 17.967522 11.34095 18 11 18 C 7.122 18 4 14.878 4 11 C 4 7.122 7.122 4 11 4 C 14.53722 4 17.438065 6.60064 17.921875 10 L 18.931641 10 C 18.441581 6.04433 15.09254 3 11 3 z M 11 5 C 7.676 5 5 7.676 5 11 L 8 11 C 8 9.338 9.338 8 11 8 L 11 5 z M 11 9 C 9.892 9 9 9.892 9 11 C 9 12.108 9.892 13 11 13 C 12.108 13 13 12.108 13 11 C 13 9.892 12.108 9 11 9 z M 11 10 C 11.554 10 12 10.446 12 11 C 12 11.554 11.554 12 11 12 C 10.446 12 10 11.554 10 11 C 10 10.446 10.446 10 11 10 z M 16 11 L 16 12 L 16 15 L 16 15.269531 A 1.9999913 1.9999913 0 0 0 15 15 A 1.9999913 1.9999913 0 0 0 13 17 A 1.9999913 1.9999913 0 0 0 15 19 A 1.9999913 1.9999913 0 0 0 17 17 L 17 15 L 17 13 L 19 13 C 19 11.892 18.108 11 17 11 L 16 11 z " transform="matrix(1 0 0 1 326 534.3622)"/>
 </g>
</svg>
