<?xml version="1.0" encoding="UTF-8" standalone="no"?>

<!-- Created with Inkscape (http://www.inkscape.org/) -->
<svg width="22" version="1.1" xmlns="http://www.w3.org/2000/svg" height="22" xmlns:inkscape="http://www.inkscape.org/namespaces/inkscape">
 <defs id="defs3871"/>
 <metadata id="metadata3874"/>
 <g inkscape:label="Capa 1" inkscape:groupmode="layer" id="layer1" transform="matrix(1 0 0 1 -326 -534.3622)">
  <rect width="0" x="273.38181" y="518.47876" height="14.668059" style="fill:#8e44ad" id="rect4035"/>
  <rect width="0" x="280.34238" y="541.04938" height="14.668059" style="fill:#8e44ad" id="rect4035-8"/>
  <rect width="0" x="282.15567" y="539.98865" height="14.668059" style="fill:#8e44ad" id="rect4035-0"/>
  <path inkscape:connector-curvature="0" style="fill:#8e44ad;stroke-width:2" id="rect4250" d="M 13.232422,3 13.033203,3.7441406 13,3.8710938 9.6601562,16.390625 7.8378906,13.199219 6.8691406,11.503906 6.5820312,11 6,11 5.4277344,11 3,11 3,12 6,12 7.8378906,15.216797 10,19 13,7.7539062 13,7.75 14,4 19,4 19,2.999999 14.267578,3 14,3 Z" transform="matrix(1 0 0 1 326 534.3622)"/>
 </g>
</svg>
