<svg id="svg1740" version="1.1" viewBox="0 0 22 22" xmlns="http://www.w3.org/2000/svg">
    <g id="g1738" transform="translate(-326 -534.36)">
        <g id="g1736" transform="matrix(.072953 0 0 .072953 315.11 516.91)" fill="#be1756">
            <path id="path1734" d="m299.84 259.81c-30.462 0.0566-59.939 10.79-83.306 30.332-12.987 12.962-20.301 31.149-20.618 48.15-3.3e-4 37.281 30.222 67.503 67.503 67.503 10.132-4e-3 20.133-2.2866 29.262-6.6816l5e-3 7e-3 40.582-19.527c0.21964-0.10793 0.44021-0.21391 0.66166-0.31805l0.48289-0.23217 0.0232 0.0441c5.4052-2.3644 11.238-3.5932 17.138-3.6101 23.787-3e-5 43.071 19.283 43.07 43.07-0.0292 15.088-7.9512 29.06-20.883 36.832-8.9331 7.372-37.175 8.9538-45.397-11.508-5.5011-13.689-3.8639-28.71 13.817-31.644 32.519-2.4286 24.472 33.07-1.4047 17.735-0.84728-0.0651 13.893 17.46 27.341 9.5522 24.334-14.308 1.374-48.264-24.407-48.544-5.9494-0.0647-12.23 1.4864-18.382 5.2236-38.34 23.29-27.247 82.599 27.142 84.435-26.339 15.99-53.93 17.492-71.87 10.807-43.625-16.256-42-39.699-26.095-49.538 13.076-8.0885 30.492-0.0651 30.879 20.074 24.125-45.853-57.313-54.142-59.823-8.6112-0.58172 10.551 3.9663 21.428 14.773 31.98-11.651-6.8494-43.432-29.113-43.038-56.8 0 0 0.70155-22.531 20.621-23.077-14.82-13.582-31.039-4.0584-32.653 16.374-6.2499-11.891-15.094-44.582 1.9634-80.144-16.446 28.662-19.498 37.34-20.284 58.081 1.68 49.188 33.939 88.038 78.638 108.64l0.47826 0.20662c16.893 7.6698 35.23 11.642 53.782 11.65 71.924-7e-5 130.23-58.306 130.23-130.23-7e-5 -71.924-58.306-130.23-130.23-130.23z" fill="#be1756" stroke-width="4.3206"/>
        </g>
    </g>
</svg>
