<svg version="1.1" viewBox="0 0 22 22" xmlns="http://www.w3.org/2000/svg">
    <g transform="translate(-326 -534.3622)">
        <path d="m330 536.3622v2.99219h3v-2.99219h-3zm14 0c-5.25449 3e-3 -9.98966 2.19569-12 5.55664v-2.55664h-1v3.55078c-1.16388 0.23758-1.99987 1.26134-2 2.44922 2e-3 1.18641 0.83756 2.20803 2 2.44531v3.55469h-1v3h3v-3h-1v-2.54492c2.01561 3.35635 6.74962 5.54383 12 5.54492v-1c-5.30357-3e-3 -9.9753-2.32644-11.49023-5.71484 0.90521-0.39968 1.4895-1.29564 1.49023-2.28516-1e-3 -0.99044-0.5874-1.88666-1.49414-2.28516 1.51535-3.38932 6.18913-5.7131 11.49414-5.71484v-1zm-13 1.03516h1v1h-1v-1zm0.5 6.46484a1.5 1.5 0 0 1 1.5 1.5 1.5 1.5 0 0 1-1.5 1.5 1.5 1.5 0 0 1-1.5-1.5 1.5 1.5 0 0 1 1.5-1.5zm-0.5 8.5h1v1h-1v-1z" fill="#f9b425"/>
    </g>
</svg>
