<?xml version="1.0" encoding="UTF-8"?>
<svg id="svg37" version="1.1" viewBox="0 0 32 32" xmlns="http://www.w3.org/2000/svg" xmlns:cc="http://creativecommons.org/ns#" xmlns:dc="http://purl.org/dc/elements/1.1/" xmlns:rdf="http://www.w3.org/1999/02/22-rdf-syntax-ns#" xmlns:xlink="http://www.w3.org/1999/xlink">
 <metadata id="metadata41">
  <rdf:RDF>
   <cc:Work rdf:about="">
    <dc:format>image/svg+xml</dc:format>
    <dc:type rdf:resource="http://purl.org/dc/dcmitype/StillImage"/>
   </cc:Work>
  </rdf:RDF>
 </metadata>
 <defs id="defs13">
  <linearGradient id="c" x2="0" y1="392.36" y2="365.36" gradientTransform="translate(309.57 152.44)" gradientUnits="userSpaceOnUse">
   <stop id="stop2" stop-color="#fff" stop-opacity="0" offset="0"/>
   <stop id="stop4" stop-color="#fff" stop-opacity=".2" offset="1"/>
  </linearGradient>
  <linearGradient id="b" x1="47" x2="54" y1="17" y2="24" gradientTransform="translate(357.57 507.8)" gradientUnits="userSpaceOnUse">
   <stop id="stop7" stop-color="#060606" offset="0"/>
   <stop id="stop9" stop-opacity="0" offset="1"/>
  </linearGradient>
  <path id="a" d="m389.57 545.8v-28h15l7 7v21h-14z"/>
 </defs>
 <g id="g29" transform="translate(-384.57 -515.8)">
  <g id="g23">
   <use id="use15" width="100%" height="100%" fill="#2e6ad1" xlink:href="#a"/>
   <path id="path17" d="m389.57 518.8h15v-1h-15z" fill="#fff" opacity=".5"/>
   <path id="path19" d="m389.57 545.8h22v-1h-22z" opacity=".25"/>
   <path id="path21" d="m411.57 524.8-7-7v7z" fill="#fff" fill-rule="evenodd" opacity=".5"/>
  </g>
  <path id="path25" d="m404.57 524.8 7 7v-7z" fill="url(#b)" fill-rule="evenodd" opacity=".2"/>
  <use id="use27" width="100%" height="100%" fill="url(#c)" xlink:href="#a"/>
 </g>
 <g id="g35" fill="#fff" opacity=".6">
  <path id="path31" d="m15.209 22.19a88.68 88.68 0 0 0-0.502-2.041c-0.064-0.195-0.155-0.22-0.188-0.053-0.026 0.132-0.413 3.073-0.415 3.153-3e-3 0.117-0.079-0.082-0.388-1.019l-0.32-0.966 6e-3 -1.686 0.194 0.626c0.107 0.345 0.213 0.658 0.236 0.696 0.076 0.127 0.134 0.046 0.182-0.253 0.05-0.31 0.307-2.692 0.352-3.255 0.014-0.179 0.038-0.325 0.052-0.325 0.015 0 0.137 0.462 0.272 1.027 0.288 1.203 0.705 2.792 0.757 2.88 0.05 0.084 0.107 0.078 0.153-0.017 0.033-0.068 0.44-2.914 0.6-4.189l0.052-0.421 0.05 0.193c0.028 0.106 0.19 0.786 0.36 1.51 0.472 2.013 0.51 2.143 0.61 2.143 0.029 0 0.061-0.028 0.073-0.062 0.032-0.095 0.128-0.778 0.26-1.852 0.067-0.541 0.134-1.013 0.15-1.048 0.019-0.043 0.102 0.16 0.253 0.621l0.226 0.685-3e-3 0.802-2e-3 0.801-0.11-0.345c-0.114-0.355-0.172-0.45-0.235-0.39-0.037 0.034-0.142 0.701-0.377 2.403-0.147 1.072-0.18 1.267-0.201 1.212-8e-3 -0.02-0.173-0.801-0.367-1.738-0.431-2.08-0.43-2.073-0.5-2.097-0.12-0.04-0.092-0.2-0.444 2.553-0.155 1.208-0.295 2.225-0.31 2.26-0.019 0.041-0.195-0.631-0.476-1.809z"/>
  <path id="path33" d="m15.997 11c-0.64-2e-3 -1.296 0.01-1.937 0.22-1.924 0.625-3.334 2.153-3.863 4.19-0.196 0.753-0.2 0.908-0.196 3.09 3e-3 1.83 7e-3 1.902 0.062 2.167a2.794 2.794 0 0 0 1.712 2.048c0.096 0.039 0.196 0.079 0.298 0.109 0.039 0.011 0.084 0.018 0.123 0.034 0.086 0.034 0.16 0.082 0.196 0.113 0.022 0.019 0.048 0.028 0.073 0.038a0.119 0.119 0 0 0 0.029 0.058c0.063 0.057 0.126 0.059 0.171 0.071 0.1 0.043 0.217 0.028 0.326 0.03l0.046 2e-3a1.43 1.43 0 0 0 0.386-0.042c0.109-0.03 0.202-0.068 0.257-0.16 0.026-0.047 0.018-0.05 0.02-0.07l7e-3 -0.068c4e-3 -0.054 7e-3 -0.126 0.01-0.214 6e-3 -0.177 0.01-0.417 0.01-0.69 0-0.511 0.015-1.727 0.033-2.7 0.019-0.998 0.033-1.459 5e-3 -1.709-0.014-0.125-0.041-0.212-0.105-0.272-0.063-0.06-0.128-0.072-0.189-0.097-0.18-0.072-0.416-0.077-0.629-0.05a1.177 1.177 0 0 0-0.288 0.07 0.344 0.344 0 0 0-0.165 0.113c-0.105 0.047-0.239 0.1-0.337 0.128-1.332 0.703-1.277 0.339-0.962-1.034 0.36-2.5 1.797-4.063 4.165-4.425 0.445-0.068 1.275-0.068 1.666 0 1.495 0.26 2.808 1.245 3.512 2.636 0.305 0.602 0.383 1.111 0.462 1.818 0.27 1.51 0.4 1.49-0.904 1.036a4.698 4.698 0 0 1-0.447-0.163l-0.11-0.086c-0.167-0.13-0.417-0.154-0.652-0.134h-1e-3c-0.118 0.01-0.232 0.034-0.33 0.073a0.435 0.435 0 0 0-0.237 0.185c-0.02 0.037-0.017 0.05-0.02 0.075a1.208 1.208 0 0 0-7e-3 0.091 7.824 7.824 0 0 0-4e-3 0.328c0 0.292 6e-3 0.744 0.02 1.416 0.02 0.986 0.038 2.226 0.04 2.752l7e-3 1.013 0.124 0.09c0.068 0.05 0.148 0.085 0.221 0.103h3e-3l2e-3 2e-3 9e-3 1e-3a1.954 1.954 0 0 0 0.337 0.017c0.14-5e-3 0.26-0.027 0.36-0.068a0.448 0.448 0 0 0 0.138-0.09c0.041-0.025 0.08-0.052 0.125-0.088 0.022-0.02 0.145-0.068 0.219-0.101 0.068-0.03 0.152-0.044 0.232-0.071 0.45-0.15 0.746-0.335 1.104-0.688 0.354-0.35 0.545-0.645 0.702-1.087 0.233-0.787 0.163-1.693 0.168-2.51 0.01-2.383-0.044-2.397-0.223-3.12a5.73 5.73 0 0 0-1.597-2.782 5.853 5.853 0 0 0-2.262-1.367c-0.651-0.213-1.275-0.229-1.915-0.231z"/>
 </g>
</svg>
