<?xml version="1.0" encoding="utf-8"?><svg height="32" width="32" xmlns="http://www.w3.org/2000/svg" xmlns:svg="http://www.w3.org/2000/svg" xmlns:xlink="http://www.w3.org/1999/xlink"><defs id="primary-definitions"><style id="current-color-scheme" type="text/css">.ColorScheme-Text           { color:#fff; }
      .ColorScheme-Background     { color:#111; }
      .ColorScheme-Highlight      { color:#3daefd; }
      .ColorScheme-ViewBackground { color:#000; }
      .ColorScheme-PositiveText   { color:#27ae60; }
      .ColorScheme-NeutralText    { color:#f67400; }
      .ColorScheme-NegativeText   { color:#da4453; }
  </style><style id="extended-color-scheme" type="text/css">.ExScheme-Black     { color:#3e3e3e; }
      .ExScheme-White     { color:#fcfcfc; }
      .ExScheme-Grey-1    { color:#cfd5d5; }
      .ExScheme-Grey-2    { color:#909c9c; }
      .ExScheme-Grey-3    { color:#536161; }
      .ExScheme-Red-1     { color:#ffafa5; }
      .ExScheme-Red-2     { color:#bf4231; }
      .ExScheme-Red-3     { color:#4d2f2b; }
      .ExScheme-Green-1   { color:#abf9c7; }
      .ExScheme-Green-2   { color:#3bb566; }
      .ExScheme-Green-3   { color:#377d50; }
      .ExScheme-Blue-1    { color:#abdaf9; }
      .ExScheme-Blue-2    { color:#3daefd; }
      .ExScheme-Blue-3    { color:#2b3c4d; }
      .ExScheme-Yellow-1  { color:#faffa5; }
      .ExScheme-Yellow-2  { color:#cac726; }
      .ExScheme-Yellow-3  { color:#4b4d2b; }
      .ExScheme-Orange-1  { color:#ffdaa5; }
      .ExScheme-Orange-2  { color:#ff9701; }
      .ExScheme-Orange-3  { color:#4d372b; }
      .ExScheme-Brown-1   { color:#e9d6bb; }
      .ExScheme-Brown-2   { color:#997657; }
      .ExScheme-Brown-3   { color:#433a35; }
      .ExScheme-Purple-1  { color:#e2abf9; }
      .ExScheme-Purple-2  { color:#b401ff; }
      .ExScheme-Purple-3  { color:#432b4d; }
      .ExScheme-Cyan-1    { color:#b2f2e6; }
      .ExScheme-Cyan-2    { color:#31bfa6; }
      .ExScheme-Cyan-3    { color:#2b4d47; }
      .ExScheme-Magenta-1 { color:#f8a6d8; }
      .ExScheme-Magenta-2 { color:#f00091; }
      .ExScheme-Magenta-3 { color:#770048; }
  </style><linearGradient id="gradientDark"><stop offset="0"/><stop offset="1" stop-opacity="0"/></linearGradient><linearGradient id="gradientLight"><stop offset="0" stop-color="#fff"/><stop offset="1" stop-color="#fff" stop-opacity="0"/></linearGradient><style class="toggle-enable-crease" type="text/css">.folder-crease { display: none; }
  </style><style class="toggle-manilla-folders" type="text/css">.folder-manilla { display: none; }
  </style><radialGradient cx=".5" cy="0" id="gl1" r="1" xlink:href="#gradientLight"/><linearGradient id="gd1" xlink:href="#gradientDark" y1="1" y2=".5"/><radialGradient cx="5.94" cy="32" fx="5.94" fy="32" gradientTransform="matrix(0,.9984,-1.0246,0,48.7875,-2.9613)" gradientUnits="userSpaceOnUse" id="radialGradient4483" r="26" xlink:href="#gradientLight"/><path -inkscape-stroke="none" d="M 4.5,3 C 3.669,3 3,3.669 3,4.5 v 23 C 3,28.331 3.669,29 4.5,29 h 23 C 28.331,29 29,28.331 29,27.5 V 4.5 C 29,3.669 28.331,3 27.5,3 H 25 v 15 c 0,0.554 -0.446,1 -1,1 h -2 c -0.554,0 -1,-0.446 -1,-1 V 3 Z" id="use-path-1" stop-color="#000000" stroke-opacity="0"/></defs><g id="content"><namedview bordercolor="#666666" borderopacity="1.0" current-layer="svg47" cx="0" cy="8.93" pagecheckerboard="0" pagecolor="#ffffff" pageopacity="0.0" pageshadow="2" showgrid="false" window-height="1017" window-maximized="1" window-width="1920" window-x="0" window-y="0" zoom="11.313708"><grid type="xygrid"/></namedview><path -inkscape-stroke="none" d="M 4.5,3 C 3.669,3 3,3.669 3,4.5 v 23 C 3,28.331 3.669,29 4.5,29 h 23 C 28.331,29 29,28.331 29,27.5 V 4.5 C 29,3.669 28.331,3 27.5,3 H 27 5 Z" fill="#3daefd" id="primary-color" stop-color="#000000" stroke-opacity="0"/><use fill="#ffffff" href="#use-path-1" id="rect2310-2-6" opacity=".1"/><g id="emblem" transform="translate(4,13)"><path class="ColorScheme-Background" d="M 8 2 C 6.31 2 4.666 2.535 3.3 3.527 C .496 5.564 -.68 9.178 .393 12.473 A .5 .5 0 0 0 1.02 12.793 L 2.924 12.174 A .5 .5 0 0 0 3.244 11.545 C 3.086 11.057 3 10.54 3 10 C 3 8.564 3.362 7.03 4.158 5.898 C 4.954 4.766 6.144 4 8 4 C 9.425 4 10.456 4.453 11.22 5.176 L 12.596 3.453 C 11.25 2.508 9.646 2 8 2 z M 13.377 4.08 L 11.88 5.953 C 12.288 6.552 12.575 7.258 12.758 8 L 13.5 8 C 14.331 8 15 8.669 15 9.5 C 15 10.331 14.331 11 13.5 11 L 12.896 11 C 12.86 11.185 12.814 11.367 12.756 11.545 A .5 .5 0 0 0 13.076 12.174 L 14.98 12.793 A .5 .5 0 0 0 15.607 12.473 C 16.588 9.457 15.685 6.176 13.377 4.08 z M 8 9 A 1 1 0 0 0 7 10 A 1 1 0 0 0 8 11 A 1 1 0 0 0 9 10 L 13.525 10 C 13.788 10 14 9.788 14 9.525 L 14 9.475 C 14 9.212 13.788 9 13.525 9 L 8.475 9 C 8.406 9 8.34 9.015 8.28 9.04 A 1 1 0 0 0 8 9 z " fill="currentColor" opacity=".6"/><path class="ColorScheme-Background" d="M 8 2 C 6.31 2 4.666 2.535 3.3 3.527 C .496 5.564 -.68 9.178 .393 12.473 A .5 .5 0 0 0 1.02 12.793 L 2.924 12.174 A .5 .5 0 0 0 3.244 11.545 C 3.086 11.057 3 10.54 3 10 C 3 8.564 3.362 7.03 4.158 5.898 C 4.954 4.766 6.144 4 8 4 C 9.425 4 10.456 4.453 11.22 5.176 L 12.596 3.453 C 11.25 2.508 9.646 2 8 2 z M 8 2.5 C 9.36 2.5 10.66 2.928 11.82 3.62 L 11.102 4.52 C 10.295 3.918 9.3 3.5 8 3.5 C 6.007 3.5 4.62 4.373 3.75 5.61 C 2.873 6.86 2.5 8.48 2.5 10 C 2.5 10.593 2.595 11.163 2.77 11.7 L 2.768 11.7 L .867 12.318 L .867 12.316 C -.136 9.227 .963 5.84 3.592 3.932 C 4.873 3 6.416 2.5 8 2.5 z M 13.377 4.08 L 11.88 5.953 C 12.288 6.552 12.575 7.258 12.758 8 L 13.5 8 C 14.331 8 15 8.669 15 9.5 C 15 10.331 14.331 11 13.5 11 L 12.896 11 C 12.86 11.185 12.814 11.367 12.756 11.545 A .5 .5 0 0 0 13.076 12.174 L 14.98 12.793 A .5 .5 0 0 0 15.607 12.473 C 16.588 9.457 15.685 6.176 13.377 4.08 z M 13.387 4.87 C 14.532 6.074 15.208 7.594 15.383 9.217 C 15.227 8.27 14.49 7.5 13.5 7.5 L 13.08 7.5 C 12.926 6.987 12.716 6.498 12.45 6.04 L 13.387 4.87 z M 8 9 A 1 1 0 0 0 7 10 A 1 1 0 0 0 8 11 A 1 1 0 0 0 9 10 L 13.525 10 C 13.788 10 14 9.788 14 9.525 L 14 9.475 C 14 9.212 13.788 9 13.525 9 L 8.475 9 C 8.406 9 8.34 9.015 8.28 9.04 A 1 1 0 0 0 8 9 z M 7.998 9.5 L 8 9.5 C 8.047 9.5 8.094 9.506 8.14 9.52 A .5 .5 0 0 0 8.475 9.5 C 8.475 9.5 8.477 9.5 8.477 9.5 L 9 9.5 A .5 .5 0 0 0 8.5 10 C 8.5 10.282 8.282 10.5 8 10.5 C 7.718 10.5 7.5 10.282 7.5 10 C 7.5 9.718 7.717 9.5 7.998 9.5 z M 15.436 9.654 C 15.478 10.54 15.42 11.437 15.133 12.316 L 15.133 12.318 L 13.232 11.7 L 13.23 11.7 C 13.252 11.633 13.265 11.567 13.283 11.5 L 13.5 11.5 C 14.54 11.5 15.344 10.67 15.436 9.654 z " fill="currentColor" opacity=".6"/></g><use fill="url(#radialGradient4483)" href="#use-path-1" id="rect2310-2" opacity=".2"/><path -inkscape-stroke="none" d="m 3,27 v 0.5 C 3,28.331 3.669,29 4.5,29 h 23 C 28.331,29 29,28.331 29,27.5 V 27 c 0,0.831 -0.669,1.5 -1.5,1.5 H 4.5 C 3.669,28.5 3,27.831 3,27 Z" id="rect2310-6" opacity=".1" stop-color="#000000" stroke-opacity="0"/><path -inkscape-stroke="none" d="M 3,27.25 V 27.5 C 3,28.331 3.669,29 4.5,29 h 23 c 0.831,0 1.5,-0.669 1.5,-1.5 v -0.25 c 0,0.831 -0.669,1.5 -1.5,1.5 H 4.5 C 3.669,28.75 3,28.081 3,27.25 Z" id="rect2310-6-9" opacity=".2" stop-color="#000000" stroke-opacity="0"/><path -inkscape-stroke="none" d="M 4.5,3 C 3.669,3 3,3.669 3,4.5 V 5 C 3,4.169 3.669,3.5 4.5,3.5 H 21 V 3 Z M 25,3 v 0.5 h 2.5 C 28.331,3.5 29,4.169 29,5 V 4.5 C 29,3.669 28.331,3 27.5,3 Z" fill="#fefefe" id="rect2310-6-3" opacity=".1" stop-color="#000000" stroke-opacity="0"/><path -inkscape-stroke="none" d="M 4.5,3 C 3.669,3 3,3.669 3,4.5 V 4.75 C 3,3.919 3.669,3.25 4.5,3.25 H 21 V 3 Z M 25,3 v 0.25 h 2.5 c 0.831,0 1.5,0.669 1.5,1.5 V 4.5 C 29,3.669 28.331,3 27.5,3 Z" fill="#fefefe" id="rect2310-6-9-6" opacity=".2" stop-color="#000000" stroke-opacity="0"/><path -inkscape-stroke="none" d="m 21,3 v 15 c 0,0.554 0.446,1 1,1 h 2 c 0.554,0 1,-0.446 1,-1 V 3 H 24 V 4 H 22 V 3 Z m 1,2 h 2 V 8 C 24,8.554 23.554,9 23,9 22.446,9 22,8.554 22,8 Z m 2,5 v 1 h -1 v 1 h 1 v 1 h -1 v 1 h 1 v 1 h -1 v 1 h 1 v 1 1 h -2 v -1 h 1 v -1 h -1 v -1 h 1 v -1 h -1 v -1 h 1 v -1 h -1 v -1 h 1 v -1 z" id="rect1143" opacity=".4" stop-color="#000000" stroke-opacity="0"/><path -inkscape-stroke="none" d="m 22,3 v 1 h 2 V 3 Z m 0,2 v 3 c 0,0.554 0.446,1 1,1 0.554,0 1,-0.446 1,-1 V 5 Z m 1,5 v 1 h 1 v -1 z m 0,1 h -1 v 1 h 1 z m 0,1 v 1 h 1 v -1 z m 0,1 h -1 v 1 h 1 z m 0,1 v 1 h 1 v -1 z m 0,1 h -1 v 1 h 1 z m 0,1 v 1 h -1 v 1 h 2 v -1 -1 z" fill="#ffffff" id="rect1145" opacity=".6" stop-color="#000000" stroke-opacity="0"/><path -inkscape-stroke="none" d="m 21,18 v 1 c 0,0.554 0.446,1 1,1 h 2 c 0.554,0 1,-0.446 1,-1 v -1 c 0,0.554 -0.446,1 -1,1 h -2 c -0.554,0 -1,-0.446 -1,-1 z" fill="#ffffff" id="rect4145" opacity=".1" stop-color="#000000" stroke-opacity="0"/><path -inkscape-stroke="none" d="m 21,18 v 0.5 c 0,0.554 0.446,1 1,1 h 2 c 0.554,0 1,-0.446 1,-1 V 18 c 0,0.554 -0.446,1 -1,1 h -2 c -0.554,0 -1,-0.446 -1,-1 z" fill="#ffffff" id="rect4145-7" opacity=".2" stop-color="#000000" stroke-opacity="0"/></g></svg>