<svg version="1.1" viewBox="0 0 32 32" xmlns="http://www.w3.org/2000/svg">
    <defs>
        <linearGradient id="a" x2="0" y1="392.36" y2="365.2" gradientTransform="translate(365.57 152.44)" gradientUnits="userSpaceOnUse">
            <stop stop-color="#fff" stop-opacity="0" offset="0"/>
            <stop stop-color="#fff" stop-opacity=".2" offset="1"/>
        </linearGradient>
    </defs>
    <g transform="translate(-384.57-515.8)">
        <g color="#000000" color-rendering="auto" image-rendering="auto" shape-rendering="auto" text-rendering="auto">
            <path d="m389.57 517.8v28h22v-28h-14z" fill="#da2c2c"/>
            <rect x="389.57" y="544.8" width="22" height="1" opacity=".25"/>
            <rect x="389.57" y="517.8" width="22" height="1" fill="#fff" opacity=".5"/>
        </g>
        <rect x="392.57" y="518.8" width="1" height="26" fill="#fff" fill-opacity=".252"/>
        <g color="#000000" color-rendering="auto" image-rendering="auto" shape-rendering="auto" text-rendering="auto">
            <rect x="393.57" y="518.8" width="1" height="26" fill-opacity=".083"/>
            <path transform="translate(384.57,515.8)" d="m18.125582 3.0026338s-0.06884 0.104507-0.103102 0.157093c-0.822481 1.262362-1.584246 2.652687-2.285117 4.170352-0.864747 1.9064169-1.513358 3.8887322-1.945734 5.9476602-0.46563 2.058924-0.664689 3.946544-0.598171 5.662318 0.09978 1.677645 0.41529 3.088698 0.947441 4.23255 0.532155 1.143843 1.263374 1.963473 2.194636 2.45914 0.931268 0.49567 2.02943 0.590365 3.293293 0.285341 1.230597-0.305028 2.478817-0.969227 3.741587-2.00045 0.231365-0.18894 1.540406-1.472277 2.440137-2.465653 0.667157-0.736593 1.006035-1.250622 1.189448-1.454131v-3.485678c-0.11108 0.09923-0.376219 0.581465-1.025514 1.277472-0.800762 0.858368-2.012573 1.958841-2.154434 2.06726-0.997787 0.724438-1.963245 1.143568-2.894512 1.257951-0.964525 0.114389-1.778352-0.07656-2.443541-0.572214-0.665188-0.495667-1.181097-1.239229-1.546952-2.230565-0.332595-0.991334-0.499146-2.172662-0.499146-3.545277 0-1.410745 0.199057-2.936664 0.598173-4.576182 0.399113-1.6395102 0.965121-3.2027032 1.696828-4.6897072 0.418692-0.872706 0.858955-1.683154 1.321029-2.431156 0.01421-0.02298 0.04265-0.06877 0.04265-0.06877z" fill="#fff" opacity=".8"/>
            <path d="m389.57 517.8v28h22v-28h-17z" fill="url(#a)"/>
        </g>
    </g>
</svg>
