<?xml version="1.0" encoding="UTF-8" standalone="no"?>
<!-- Created with Inkscape (http://www.inkscape.org/) -->

<svg
   xmlns:dc="http://purl.org/dc/elements/1.1/"
   xmlns:cc="http://creativecommons.org/ns#"
   xmlns:rdf="http://www.w3.org/1999/02/22-rdf-syntax-ns#"
   xmlns:svg="http://www.w3.org/2000/svg"
   xmlns="http://www.w3.org/2000/svg"
   xmlns:xlink="http://www.w3.org/1999/xlink"
   xmlns:sodipodi="http://sodipodi.sourceforge.net/DTD/sodipodi-0.dtd"
   xmlns:inkscape="http://www.inkscape.org/namespaces/inkscape"
   width="32"
   version="1.1"
   height="32"
   id="svg2"
   inkscape:version="0.91 r13725"
   sodipodi:docname="application-msword-template.svg">
  <sodipodi:namedview
     pagecolor="#ffffff"
     bordercolor="#666666"
     borderopacity="1"
     objecttolerance="10"
     gridtolerance="10"
     guidetolerance="10"
     inkscape:pageopacity="0"
     inkscape:pageshadow="2"
     inkscape:window-width="1360"
     inkscape:window-height="708"
     id="namedview31"
     showgrid="false"
     inkscape:zoom="1"
     inkscape:cx="-38.0705"
     inkscape:cy="24.629364"
     inkscape:window-x="0"
     inkscape:window-y="0"
     inkscape:window-maximized="1"
     inkscape:current-layer="layer1"
     inkscape:object-nodes="true"
     inkscape:snap-bbox="true"
     inkscape:bbox-nodes="true">
    <inkscape:grid
       type="xygrid"
       id="grid4330" />
  </sodipodi:namedview>
  <defs
     id="defs5455">
    <linearGradient
       inkscape:collect="always"
       id="linearGradient6251">
      <stop
         style="stop-color:#ffffff;stop-opacity:0"
         offset="0"
         id="stop6253" />
      <stop
         style="stop-color:#ffffff;stop-opacity:0.2"
         offset="1"
         id="stop6255" />
    </linearGradient>
    <linearGradient
       inkscape:collect="always"
       id="linearGradient9654">
      <stop
         style="stop-color:#060606;stop-opacity:1"
         offset="0"
         id="stop9656" />
      <stop
         style="stop-color:#000000;stop-opacity:0"
         offset="1"
         id="stop9658" />
    </linearGradient>
    <linearGradient
       y2="365.36221"
       x2="58"
       y1="392.36221"
       x1="58"
       gradientTransform="translate(309.57338,152.43775)"
       gradientUnits="userSpaceOnUse"
       id="linearGradient4178"
       xlink:href="#linearGradient6251"
       inkscape:collect="always" />
    <linearGradient
       y2="24"
       x2="54"
       y1="17"
       x1="47"
       gradientTransform="translate(357.57338,507.79995)"
       gradientUnits="userSpaceOnUse"
       id="linearGradient4257"
       xlink:href="#linearGradient9654"
       inkscape:collect="always" />
  </defs>
  <metadata
     id="metadata5458">
    <rdf:RDF>
      <cc:Work
         rdf:about="">
        <dc:format>image/svg+xml</dc:format>
        <dc:type
           rdf:resource="http://purl.org/dc/dcmitype/StillImage" />
      </cc:Work>
    </rdf:RDF>
  </metadata>
  <g
     inkscape:label="Capa 1"
     inkscape:groupmode="layer"
     id="layer1"
     transform="matrix(1 0 0 1 -384.57143 -515.798)">
    <path
       sodipodi:nodetypes="cccccccc"
       inkscape:export-ydpi="96"
       inkscape:export-xdpi="96"
       inkscape:connector-curvature="0"
       style="color:#000000;clip-rule:nonzero;display:inline;overflow:visible;visibility:visible;opacity:1;isolation:auto;mix-blend-mode:normal;color-interpolation:sRGB;color-interpolation-filters:linearRGB;solid-color:#000000;solid-opacity:1;fill:#0b0b64;fill-opacity:1;fill-rule:nonzero;stroke-width:1;stroke-linecap:butt;stroke-linejoin:miter;stroke-miterlimit:4;stroke-dasharray:none;stroke-dashoffset:0;stroke-opacity:1;color-rendering:auto;image-rendering:auto;shape-rendering:auto;text-rendering:auto;enable-background:accumulate;filter-blend-mode:normal;filter-gaussianBlur-deviation:0"
       id="path4211"
       d="m 389.57338,545.79995 0,-28 15,0 7.00001,7 0,0 0,21 -14.00001,0 z" />
    <path
       style="color:#000000;clip-rule:nonzero;display:inline;overflow:visible;visibility:visible;opacity:0.1;isolation:auto;mix-blend-mode:normal;color-interpolation:sRGB;color-interpolation-filters:linearRGB;solid-color:#000000;solid-opacity:1;fill:#ffffff;fill-opacity:1;fill-rule:nonzero;stroke-width:1;stroke-linecap:butt;stroke-linejoin:miter;stroke-miterlimit:4;stroke-dasharray:none;stroke-dashoffset:0;stroke-opacity:1;color-rendering:auto;image-rendering:auto;shape-rendering:auto;text-rendering:auto;enable-background:accumulate"
       d="m 391.57143,517.79995 0,1.99805 -1.99805,0 0,1 0.99805,0 1,0 0,1 0,1 -1.99805,0 0,1 1.99805,0 0,2 -1.99805,0 0,1 1.99805,0 0,2 -1.99805,0 0,1 1.99805,0 0,2 -1.99805,0 0,1 1.99805,0 0,2 -1.99805,0 0,1 0.99805,0 1,0 0,1 0,1 -1.99805,0 0,1 1.99805,0 0,1 0,1 -1.99805,0 0,1 1.99805,0 0,1 0,1 -1.99805,0 0,1 1.99805,0 0,1 0,0.002 1,0 0,-1.00195 2,0 0,1.00195 1,0 0,-1.00195 2,0 0,1.00195 0.002,0 0.99805,0 0,-1.00195 2,0 0,1.00195 1,0 0,-1.00195 2,0 0,1.00195 1,0 0,-1.00195 2,0 0,1.00195 1,0 0,-1.00195 2,0 0,1.00195 1,0 0,-1.00195 1,0 0.002,0 0,-1 -0.002,0 -1,0 0,-1 0,-1 1,0 0.002,0 0,-1 -0.002,0 -1,0 0,-1 0,-1 1,0 0.002,0 0,-1 -0.002,0 -1,0 0,-2 1,0 0.002,0 0,-1 -0.002,0 -1,0 0,-2 1,0 0.002,0 0,-1 -0.002,0 -1,0 0,-2 1,0 0.002,0 0,-1 -0.002,0 -1,0 0,-2 1.00195,0 0,-1 -1.00195,0 0,-2 -1,-1 -2,0 0,-2 -1,-1 -2,0 0,-1.99805 -1,0 0,1.99805 -2,0 0,-1.99805 -1,0 0,1.99805 -2,0 0,-1.99805 -1,0 0,1.99805 -2,0 0,-1.99805 -1,0 0,1.99805 -2,0 0,-1.99805 -1,0 z m 1,2.99805 2,0 0,2 -2,0 0,-2 z m 3,0 2,0 0,2 -2,0 0,-2 z m 3,0 2,0 0,2 -2,0 0,-2 z m 3,0 2,0 0,2 -2,0 0,-2 z m 3,0 2,0 0,2 -2,0 0,-2 z m -12,3 1,0 1,0 0,1 0,1 -2,0 0,-2 z m 3,0 2,0 0,2 -2,0 0,-2 z m 3,0 2,0 0,2 -2,0 0,-2 z m 3,0 2,0 0,2 -2,0 0,-2 z m 3,0 2,0 0,2 -2,0 0,-2 z m 3,0 2,0 0,2 -2,0 0,-2 z m -15,3 2,0 0,2 -2,0 0,-2 z m 3,0 2,0 0,2 -2,0 0,-2 z m 3,0 2,0 0,2 -2,0 0,-2 z m 3,0 2,0 0,2 -2,0 0,-2 z m 3,0 2,0 0,1 0,1 -1,0 -1,0 0,-2 z m 3,0 2,0 0,1 0,1 -2,0 0,-2 z m -15,3 2,0 0,2 -2,0 0,-2 z m 3,0 2,0 0,2 -2,0 0,-2 z m 3,0 2,0 0,2 -2,0 0,-2 z m 3,0 2,0 0,2 -2,0 0,-2 z m 3,0 1,0 1,0 0,2 -1,0 -1,0 0,-2 z m 3,0 2,0 0,2 -2,0 0,-2 z m -15,3 2,0 0,2 -2,0 0,-2 z m 3,0 2,0 0,2 -2,0 0,-2 z m 3,0 2,0 0,2 -2,0 0,-2 z m 3,0 2,0 0,2 -2,0 0,-2 z m 3,0 1,0 1,0 0,2 -1,0 -1,0 0,-2 z m 3,0 2,0 0,2 -2,0 0,-2 z m -15,3 2,0 0,2 -2,0 0,-2 z m 3,0 2,0 0,2 -2,0 0,-2 z m 3,0 2,0 0,2 -2,0 0,-2 z m 3,0 2,0 0,2 -2,0 0,-2 z m 3,0 1,0 1,0 0,2 -1,0 -1,0 0,-2 z m 3,0 2,0 0,2 -2,0 0,-2 z m -15,3 1,0 1,0 0,1 0,1 -2,0 0,-1 0,-1 z m 3,0 2,0 0,1 0,1 -2,0 0,-1 0,-1 z m 3,0 2,0 0,1 0,1 -2,0 0,-1 0,-1 z m 3,0 2,0 0,1 0,1 -2,0 0,-1 0,-1 z m 3,0 1,0 1,0 0,1 0,1 -1,0 -1,0 0,-1 0,-1 z m 3,0 2,0 0,1 0,1 -2,0 0,-1 0,-1 z m -15,3 2,0 0,1 0,1 -2,0 0,-1 0,-1 z m 3,0 2,0 0,1 0,1 -2,0 0,-1 0,-1 z m 3,0 2,0 0,1 0,1 -2,0 0,-1 0,-1 z m 3,0 2,0 0,1 0,1 -2,0 0,-1 0,-1 z m 3,0 1,0 1,0 0,1 0,1 -2,0 0,-1 0,-1 z m 3,0 2,0 0,1 0,1 -2,0 0,-1 0,-1 z"
       id="path4274"
       inkscape:connector-curvature="0" />
    <rect
       width="14.999983"
       x="389.57339"
       y="-518.79993"
       height="0.999973"
       style="color:#000000;clip-rule:nonzero;display:inline;overflow:visible;visibility:visible;opacity:0.5;isolation:auto;mix-blend-mode:normal;color-interpolation:sRGB;color-interpolation-filters:linearRGB;solid-color:#000000;solid-opacity:1;fill:#ffffff;fill-opacity:1;fill-rule:nonzero;stroke-width:1;stroke-linecap:butt;stroke-linejoin:miter;stroke-miterlimit:4;stroke-dasharray:none;stroke-dashoffset:0;stroke-opacity:1;color-rendering:auto;image-rendering:auto;shape-rendering:auto;text-rendering:auto;enable-background:accumulate;filter-blend-mode:normal;filter-gaussianBlur-deviation:0"
       id="rect4169-9-2"
       transform="scale(1,-1)" />
    <rect
       width="21.999994"
       x="389.57339"
       y="-545.79993"
       height="1.00003"
       style="color:#000000;clip-rule:nonzero;display:inline;overflow:visible;visibility:visible;opacity:0.25;isolation:auto;mix-blend-mode:normal;color-interpolation:sRGB;color-interpolation-filters:linearRGB;solid-color:#000000;solid-opacity:1;fill:#000000;fill-opacity:1;fill-rule:nonzero;stroke-width:1;stroke-linecap:butt;stroke-linejoin:miter;stroke-miterlimit:4;stroke-dasharray:none;stroke-dashoffset:0;stroke-opacity:1;color-rendering:auto;image-rendering:auto;shape-rendering:auto;text-rendering:auto;enable-background:accumulate;filter-blend-mode:normal;filter-gaussianBlur-deviation:0"
       id="rect4236-1-2"
       transform="scale(1,-1)" />
    <path
       inkscape:export-ydpi="96"
       inkscape:export-xdpi="96"
       inkscape:connector-curvature="0"
       style="opacity:0.2;fill:url(#linearGradient4257);fill-rule:evenodd"
       id="path4255"
       d="m 404.57338,524.79995 7.00001,7 0,-7 z"
       sodipodi:nodetypes="cccc" />
    <path
       inkscape:connector-curvature="0"
       style="color:#000000;clip-rule:nonzero;display:inline;overflow:visible;visibility:visible;opacity:1;isolation:auto;mix-blend-mode:normal;color-interpolation:sRGB;color-interpolation-filters:linearRGB;solid-color:#000000;solid-opacity:1;fill:#8282dd;fill-opacity:1;fill-rule:nonzero;stroke-width:1;stroke-linecap:butt;stroke-linejoin:miter;stroke-miterlimit:4;stroke-dasharray:none;stroke-dashoffset:0;stroke-opacity:1;color-rendering:auto;image-rendering:auto;shape-rendering:auto;text-rendering:auto;enable-background:accumulate;filter-blend-mode:normal;filter-gaussianBlur-deviation:0"
       id="path4314-2-8"
       d="m 411.57339,524.79992 -7.00001,-7 0,7 z" />
    <path
       d="m 389.57338,545.79995 0,-28 15,0 7.00001,7 0,0 0,21 -14.00001,0 z"
       id="path7628-2"
       style="fill:url(#linearGradient4178);fill-opacity:1"
       inkscape:connector-curvature="0"
       inkscape:export-xdpi="96"
       inkscape:export-ydpi="96"
       sodipodi:nodetypes="cccccccc" />
    <rect
       width="0"
       x="415.89221"
       y="526.79797"
       height="10.999983"
       style="fill:#ffffff"
       id="rect4035-75" />
    <rect
       width="0"
       x="415.57144"
       y="525.79797"
       height="10.999983"
       style="fill:#ffffff"
       id="rect4035-4-3" />
    <rect
       width="0"
       x="414.03558"
       y="525.68414"
       height="11.1139"
       style="fill:#fbd2bf"
       id="rect4035-3-56" />
    <rect
       width="0"
       x="415.57144"
       y="525.79797"
       height="10.999983"
       style="fill:#fbd2bf"
       id="rect4035-1-2" />
    <rect
       width="0"
       x="415.57144"
       y="525.79797"
       height="10.999983"
       style="fill:#fbfbfb"
       id="rect4035-5-9" />
    <rect
       width="0"
       x="415.89221"
       y="526.79797"
       height="10.999983"
       style="fill:#ffffff"
       id="rect4035-7-1" />
    <rect
       width="0"
       x="415.57144"
       y="525.79797"
       height="10.999983"
       style="fill:#ffffff"
       id="rect4035-4-53" />
    <rect
       width="0"
       x="414.03558"
       y="525.68414"
       height="11.1139"
       style="fill:#fbd2bf"
       id="rect4035-3-5" />
    <rect
       width="0"
       x="415.57144"
       y="525.79797"
       height="10.999983"
       style="fill:#fbd2bf"
       id="rect4035-1-6" />
    <rect
       width="0"
       x="415.57144"
       y="525.79797"
       height="10.999983"
       style="fill:#fbfbfb"
       id="rect4035-5-2" />
    <rect
       width="0"
       x="415.89221"
       y="526.79797"
       height="10.999983"
       style="fill:#ffffff"
       id="rect4035-53" />
    <rect
       width="0"
       x="415.57144"
       y="525.79797"
       height="10.999983"
       style="fill:#ffffff"
       id="rect4035-4-5" />
    <rect
       width="0"
       x="415.89221"
       y="526.79797"
       height="10.999983"
       style="fill:#ffffff"
       id="rect4035-6" />
    <rect
       width="0"
       x="415.57144"
       y="525.79797"
       height="10.999983"
       style="fill:#ffffff"
       id="rect4035-4-2" />
    <rect
       width="0"
       x="414.03558"
       y="525.68414"
       height="11.1139"
       style="fill:#fbd2bf"
       id="rect4035-3-9" />
    <rect
       width="0"
       x="415.57144"
       y="525.79797"
       height="10.999983"
       style="fill:#fbd2bf"
       id="rect4035-1-1" />
    <rect
       width="0"
       x="415.57144"
       y="525.79797"
       height="10.999983"
       style="fill:#fbfbfb"
       id="rect4035-5-27" />
    <rect
       width="0"
       x="415.57144"
       y="525.79797"
       height="10.999983"
       style="fill:#fffcf9"
       id="rect4035-8-0" />
    <rect
       width="0"
       x="415.57144"
       y="525.79797"
       height="10.999983"
       style="fill:#e8d9eb"
       id="rect4035-44" />
    <rect
       width="0"
       x="415.57144"
       y="525.79797"
       height="10.999983"
       style="fill:#e8d9eb"
       id="rect4035-7" />
    <rect
       width="0"
       x="415.89221"
       y="526.79797"
       height="10.999983"
       style="fill:#ffffff"
       id="rect4035-753" />
    <rect
       width="0"
       x="415.57144"
       y="525.79797"
       height="10.999983"
       style="fill:#ffffff"
       id="rect4035-4-56" />
    <rect
       width="0"
       x="414.03558"
       y="525.68414"
       height="11.1139"
       style="fill:#fbd2bf"
       id="rect4035-3-2" />
    <rect
       width="0"
       x="415.57144"
       y="525.79797"
       height="10.999983"
       style="fill:#fbd2bf"
       id="rect4035-1-9" />
    <rect
       width="0"
       x="415.57144"
       y="525.79797"
       height="10.999983"
       style="fill:#fbfbfb"
       id="rect4035-5-1" />
    <rect
       width="0"
       x="415.57144"
       y="525.79797"
       height="10.999983"
       style="fill:#fffcf9"
       id="rect4035-8-2" />
    <rect
       width="0"
       x="415.89221"
       y="526.79797"
       height="10.999983"
       style="fill:#ffffff"
       id="rect4035" />
    <rect
       width="0"
       x="415.57144"
       y="525.79797"
       height="10.999983"
       style="fill:#ffffff"
       id="rect4035-4" />
    <rect
       width="0"
       x="414.03558"
       y="525.68414"
       height="11.1139"
       style="fill:#fbd2bf"
       id="rect4035-3" />
    <rect
       width="0"
       x="415.57144"
       y="525.79797"
       height="10.999983"
       style="fill:#fbd2bf"
       id="rect4035-1" />
    <rect
       width="0"
       x="415.57144"
       y="525.79797"
       height="10.999983"
       style="fill:#fbfbfb"
       id="rect4035-5" />
    <rect
       width="0"
       x="415.57144"
       y="525.79797"
       height="10.999983"
       style="fill:#fffcf9"
       id="rect4035-8" />
    <path
       inkscape:connector-curvature="0"
       style="opacity:0.75;fill:#8282dd;fill-opacity:1;stroke:none;stroke-width:10;stroke-miterlimit:4;stroke-dasharray:none;stroke-opacity:1"
       d="m 395.57143,538.798 c -0.55401,0 -1,-0.44598 -1,-1 l 0,-10 c 0,-0.55402 0.44599,-1 1,-1 l 9,0 c 0.55402,0 1,0.44598 1,1 l 0,10 c 0,0.55402 -0.44598,1 -1,1 z m 0,-1 9,0 0,-10 -9,0 z m 1,-2 0,-1 7,0 0,1 z m 0,-2 0,-1 7,0 0,1 z m 0,-2 0,-1 7,0 0,1 z m 0,-2 0,-1 7,0 0,1 z"
       id="rect4222"
       sodipodi:nodetypes="sssssssssccccccccccccccccccccccccc" />
    <rect
       width="0"
       x="405.57339"
       y="565.79993"
       height="10.999983"
       style="fill:#036b53"
       id="rect4035-70" />
    <rect
       width="0"
       x="405.89417"
       y="566.79993"
       height="10.999983"
       style="fill:#ffffff"
       id="rect4035-67" />
    <rect
       width="0"
       x="405.57339"
       y="565.79993"
       height="10.999983"
       style="fill:#ffffff"
       id="rect4035-4-93" />
    <rect
       width="0"
       x="404.03754"
       y="565.6861"
       height="11.1139"
       style="fill:#fbd2bf"
       id="rect4035-3-60" />
    <rect
       width="0"
       x="405.57339"
       y="565.79993"
       height="10.999983"
       style="fill:#fbd2bf"
       id="rect4035-1-62" />
    <rect
       width="0"
       x="405.57339"
       y="565.79993"
       height="10.999983"
       style="fill:#fbfbfb"
       id="rect4035-5-6" />
    <rect
       width="0"
       x="405.57339"
       y="565.79993"
       height="10.999983"
       style="fill:#fffcf9"
       id="rect4035-8-1" />
    <rect
       width="0"
       x="405.89417"
       y="526.79993"
       height="10.999983"
       style="fill:#ffffff"
       id="rect4035-6-8" />
    <rect
       width="0"
       x="405.57339"
       y="525.79993"
       height="10.999983"
       style="fill:#ffffff"
       id="rect4035-4-2-7" />
    <rect
       width="0"
       x="404.03754"
       y="525.6861"
       height="11.1139"
       style="fill:#fbd2bf"
       id="rect4035-3-9-9" />
    <rect
       width="0"
       x="405.57339"
       y="525.79993"
       height="10.999983"
       style="fill:#fbd2bf"
       id="rect4035-1-1-2" />
    <rect
       width="0"
       x="405.57339"
       y="525.79993"
       height="10.999983"
       style="fill:#fbfbfb"
       id="rect4035-5-2-0" />
    <rect
       width="0"
       x="405.57339"
       y="525.79993"
       height="10.999983"
       style="fill:#fffcf9"
       id="rect4035-8-7" />
    <rect
       width="0"
       x="405.57339"
       y="525.79993"
       height="10.999983"
       style="fill:#e8d9eb"
       id="rect4035-44-2" />
    <rect
       width="0"
       x="365.89417"
       y="526.79993"
       height="10.999983"
       style="fill:#ffffff"
       id="rect4035-62" />
    <rect
       width="0"
       x="365.57339"
       y="525.79993"
       height="10.999983"
       style="fill:#ffffff"
       id="rect4035-4-9" />
    <rect
       width="0"
       x="364.03754"
       y="525.6861"
       height="11.1139"
       style="fill:#fbd2bf"
       id="rect4035-3-1" />
    <rect
       width="0"
       x="365.57339"
       y="525.79993"
       height="10.999983"
       style="fill:#fbd2bf"
       id="rect4035-1-2-3" />
    <rect
       width="0"
       x="365.57339"
       y="525.79993"
       height="10.999983"
       style="fill:#fbfbfb"
       id="rect4035-5-7" />
    <rect
       width="0"
       x="365.57339"
       y="525.79993"
       height="10.999983"
       style="fill:#fffcf9"
       id="rect4035-8-0-7" />
    <rect
       width="0"
       x="365.57339"
       y="525.79993"
       height="10.999983"
       style="fill:#e8d9eb"
       id="rect4035-44-9" />
    <rect
       width="0"
       x="365.57339"
       y="525.79993"
       height="10.999983"
       style="fill:#e8d9eb"
       id="rect4035-7-5" />
    <rect
       width="0"
       x="366.84332"
       y="526.79993"
       height="10.999983"
       style="fill:#ffffff"
       id="rect4035-36" />
    <rect
       width="0"
       x="366.52255"
       y="525.79993"
       height="10.999983"
       style="fill:#ffffff"
       id="rect4035-4-0" />
    <rect
       width="0"
       x="364.98669"
       y="525.6861"
       height="11.1139"
       style="fill:#fbd2bf"
       id="rect4035-3-6" />
    <rect
       width="0"
       x="366.52255"
       y="525.79993"
       height="10.999983"
       style="fill:#fbd2bf"
       id="rect4035-1-26" />
    <rect
       width="0"
       x="366.52255"
       y="525.79993"
       height="10.999983"
       style="fill:#fbfbfb"
       id="rect4035-5-1-9" />
    <rect
       width="0"
       x="366.52255"
       y="525.79993"
       height="10.999983"
       style="fill:#fffcf9"
       id="rect4035-8-8" />
    <rect
       width="0"
       x="366.52255"
       y="525.79993"
       height="10.999983"
       style="fill:#e8d9eb"
       id="rect4035-44-7" />
    <rect
       width="0"
       x="366.52255"
       y="525.79993"
       height="10.999983"
       style="fill:#e8d9eb"
       id="rect4035-7-9" />
  </g>
</svg>
