<?xml version="1.0" encoding="UTF-8" standalone="no"?>
<!-- Created with Inkscape (http://www.inkscape.org/) -->

<svg
   xmlns:dc="http://purl.org/dc/elements/1.1/"
   xmlns:cc="http://creativecommons.org/ns#"
   xmlns:rdf="http://www.w3.org/1999/02/22-rdf-syntax-ns#"
   xmlns:svg="http://www.w3.org/2000/svg"
   xmlns="http://www.w3.org/2000/svg"
   xmlns:xlink="http://www.w3.org/1999/xlink"
   xmlns:sodipodi="http://sodipodi.sourceforge.net/DTD/sodipodi-0.dtd"
   xmlns:inkscape="http://www.inkscape.org/namespaces/inkscape"
   width="32"
   version="1.1"
   height="32"
   id="svg2"
   inkscape:version="0.91 r13725"
   sodipodi:docname="application-vnd.ms-publisher.svg">
  <sodipodi:namedview
     pagecolor="#ffffff"
     bordercolor="#666666"
     borderopacity="1"
     objecttolerance="10"
     gridtolerance="10"
     guidetolerance="10"
     inkscape:pageopacity="0"
     inkscape:pageshadow="2"
     inkscape:window-width="1920"
     inkscape:window-height="1025"
     id="namedview33"
     showgrid="true"
     inkscape:zoom="14.76"
     inkscape:cx="-4.3489088"
     inkscape:cy="17.962255"
     inkscape:window-x="0"
     inkscape:window-y="26"
     inkscape:window-maximized="1"
     inkscape:current-layer="layer1"
     inkscape:object-nodes="true">
    <inkscape:grid
       type="xygrid"
       id="grid4604" />
  </sodipodi:namedview>
  <defs
     id="defs5455">
    <linearGradient
       y2="24"
       x2="54"
       y1="17"
       x1="47"
       gradientTransform="translate(357.57133,507.79795)"
       gradientUnits="userSpaceOnUse"
       id="linearGradient4257"
       xlink:href="#linearGradient9654"
       inkscape:collect="always" />
    <linearGradient
       inkscape:collect="always"
       id="linearGradient9654">
      <stop
         style="stop-color:#060606;stop-opacity:1"
         offset="0"
         id="stop9656" />
      <stop
         style="stop-color:#000000;stop-opacity:0"
         offset="1"
         id="stop9658" />
    </linearGradient>
    <linearGradient
       y2="365.36221"
       x2="58"
       y1="392.36221"
       x1="58"
       gradientTransform="translate(309.57133,152.43575)"
       gradientUnits="userSpaceOnUse"
       id="linearGradient4178"
       xlink:href="#linearGradient6251"
       inkscape:collect="always" />
    <linearGradient
       inkscape:collect="always"
       id="linearGradient6251">
      <stop
         style="stop-color:#ffffff;stop-opacity:0"
         offset="0"
         id="stop6253" />
      <stop
         style="stop-color:#ffffff;stop-opacity:0.2"
         offset="1"
         id="stop6255" />
    </linearGradient>
  </defs>
  <metadata
     id="metadata5458">
    <rdf:RDF>
      <cc:Work
         rdf:about="">
        <dc:format>image/svg+xml</dc:format>
        <dc:type
           rdf:resource="http://purl.org/dc/dcmitype/StillImage" />
      </cc:Work>
    </rdf:RDF>
  </metadata>
  <g
     inkscape:label="Capa 1"
     inkscape:groupmode="layer"
     id="layer1"
     transform="matrix(1 0 0 1 -384.57143 -515.798)">
    <rect
       width="0"
       x="415.89221"
       y="526.79797"
       height="10.999983"
       style="fill:#ffffff"
       id="rect4035-75" />
    <rect
       width="0"
       x="415.57144"
       y="525.79797"
       height="10.999983"
       style="fill:#ffffff"
       id="rect4035-4-3" />
    <rect
       width="0"
       x="414.03558"
       y="525.68414"
       height="11.1139"
       style="fill:#fbd2bf"
       id="rect4035-3-56" />
    <rect
       width="0"
       x="415.57144"
       y="525.79797"
       height="10.999983"
       style="fill:#fbd2bf"
       id="rect4035-1-2" />
    <rect
       width="0"
       x="415.57144"
       y="525.79797"
       height="10.999983"
       style="fill:#fbfbfb"
       id="rect4035-5-9" />
    <rect
       width="0"
       x="415.89221"
       y="526.79797"
       height="10.999983"
       style="fill:#ffffff"
       id="rect4035-7-1" />
    <rect
       width="0"
       x="415.57144"
       y="525.79797"
       height="10.999983"
       style="fill:#ffffff"
       id="rect4035-4-53" />
    <rect
       width="0"
       x="414.03558"
       y="525.68414"
       height="11.1139"
       style="fill:#fbd2bf"
       id="rect4035-3-5" />
    <rect
       width="0"
       x="415.57144"
       y="525.79797"
       height="10.999983"
       style="fill:#fbd2bf"
       id="rect4035-1-6" />
    <rect
       width="0"
       x="415.57144"
       y="525.79797"
       height="10.999983"
       style="fill:#fbfbfb"
       id="rect4035-5-2" />
    <rect
       width="0"
       x="415.89221"
       y="526.79797"
       height="10.999983"
       style="fill:#ffffff"
       id="rect4035-53" />
    <rect
       width="0"
       x="415.57144"
       y="525.79797"
       height="10.999983"
       style="fill:#ffffff"
       id="rect4035-4-5" />
    <rect
       width="0"
       x="415.89221"
       y="526.79797"
       height="10.999983"
       style="fill:#ffffff"
       id="rect4035-6" />
    <rect
       width="0"
       x="415.57144"
       y="525.79797"
       height="10.999983"
       style="fill:#ffffff"
       id="rect4035-4-2" />
    <rect
       width="0"
       x="414.03558"
       y="525.68414"
       height="11.1139"
       style="fill:#fbd2bf"
       id="rect4035-3-9" />
    <rect
       width="0"
       x="415.57144"
       y="525.79797"
       height="10.999983"
       style="fill:#fbd2bf"
       id="rect4035-1-1" />
    <rect
       width="0"
       x="415.57144"
       y="525.79797"
       height="10.999983"
       style="fill:#fbfbfb"
       id="rect4035-5-27" />
    <rect
       width="0"
       x="415.57144"
       y="525.79797"
       height="10.999983"
       style="fill:#fffcf9"
       id="rect4035-8-0" />
    <rect
       width="0"
       x="415.57144"
       y="525.79797"
       height="10.999983"
       style="fill:#e8d9eb"
       id="rect4035-44-7" />
    <rect
       width="0"
       x="415.57144"
       y="525.79797"
       height="10.999983"
       style="fill:#e8d9eb"
       id="rect4035-7-5" />
    <rect
       width="0"
       x="415.89221"
       y="526.79797"
       height="10.999983"
       style="fill:#ffffff"
       id="rect4035-35" />
    <rect
       width="0"
       x="415.57144"
       y="525.79797"
       height="10.999983"
       style="fill:#ffffff"
       id="rect4035-4-6" />
    <rect
       width="0"
       x="414.03558"
       y="525.68414"
       height="11.1139"
       style="fill:#fbd2bf"
       id="rect4035-3-2" />
    <rect
       width="0"
       x="415.57144"
       y="525.79797"
       height="10.999983"
       style="fill:#fbd2bf"
       id="rect4035-1-9" />
    <rect
       width="0"
       x="415.57144"
       y="525.79797"
       height="10.999983"
       style="fill:#fbfbfb"
       id="rect4035-5-1" />
    <rect
       width="0"
       x="415.57144"
       y="525.79797"
       height="10.999983"
       style="fill:#fffcf9"
       id="rect4035-8-2" />
    <rect
       width="0"
       x="415.89221"
       y="526.79797"
       height="10.999983"
       style="fill:#ffffff"
       id="rect4035" />
    <rect
       width="0"
       x="415.57144"
       y="525.79797"
       height="10.999983"
       style="fill:#ffffff"
       id="rect4035-4" />
    <rect
       width="0"
       x="414.03558"
       y="525.68414"
       height="11.1139"
       style="fill:#fbd2bf"
       id="rect4035-3" />
    <rect
       width="0"
       x="415.57144"
       y="525.79797"
       height="10.999983"
       style="fill:#fbd2bf"
       id="rect4035-1" />
    <rect
       width="0"
       x="415.57144"
       y="525.79797"
       height="10.999983"
       style="fill:#fbfbfb"
       id="rect4035-5" />
    <rect
       width="0"
       x="415.57144"
       y="525.79797"
       height="10.999983"
       style="fill:#fffcf9"
       id="rect4035-8" />
    <rect
       width="0"
       x="415.57144"
       y="525.79797"
       height="10.999983"
       style="fill:#e8d9eb"
       id="rect4035-44" />
    <rect
       width="0"
       x="415.57144"
       y="525.79797"
       height="10.999983"
       style="fill:#e8d9eb"
       id="rect4035-7" />
    <rect
       width="0"
       x="415.89221"
       y="526.79797"
       height="10.999983"
       style="fill:#ffffff"
       id="rect4035-75-5" />
    <rect
       width="0"
       x="415.57144"
       y="525.79797"
       height="10.999983"
       style="fill:#ffffff"
       id="rect4035-4-3-6" />
    <rect
       width="0"
       x="414.03558"
       y="525.68414"
       height="11.1139"
       style="fill:#fbd2bf"
       id="rect4035-3-56-2" />
    <rect
       width="0"
       x="415.57144"
       y="525.79797"
       height="10.999983"
       style="fill:#fbd2bf"
       id="rect4035-1-2-91" />
    <rect
       width="0"
       x="415.57144"
       y="525.79797"
       height="10.999983"
       style="fill:#fbfbfb"
       id="rect4035-5-9-2" />
    <rect
       width="0"
       x="415.89221"
       y="526.79797"
       height="10.999983"
       style="fill:#ffffff"
       id="rect4035-7-1-7" />
    <rect
       width="0"
       x="415.57144"
       y="525.79797"
       height="10.999983"
       style="fill:#ffffff"
       id="rect4035-4-53-09" />
    <rect
       width="0"
       x="414.03558"
       y="525.68414"
       height="11.1139"
       style="fill:#fbd2bf"
       id="rect4035-3-5-3" />
    <rect
       width="0"
       x="415.57144"
       y="525.79797"
       height="10.999983"
       style="fill:#fbd2bf"
       id="rect4035-1-6-60" />
    <rect
       width="0"
       x="415.57144"
       y="525.79797"
       height="10.999983"
       style="fill:#fbfbfb"
       id="rect4035-5-2-62" />
    <rect
       width="0"
       x="415.89221"
       y="526.79797"
       height="10.999983"
       style="fill:#ffffff"
       id="rect4035-53-61" />
    <rect
       width="0"
       x="415.57144"
       y="525.79797"
       height="10.999983"
       style="fill:#ffffff"
       id="rect4035-4-5-87" />
    <rect
       width="0"
       x="415.89221"
       y="526.79797"
       height="10.999983"
       style="fill:#ffffff"
       id="rect4035-6-9" />
    <rect
       width="0"
       x="415.57144"
       y="525.79797"
       height="10.999983"
       style="fill:#ffffff"
       id="rect4035-4-2-2" />
    <rect
       width="0"
       x="414.03558"
       y="525.68414"
       height="11.1139"
       style="fill:#fbd2bf"
       id="rect4035-3-9-02" />
    <rect
       width="0"
       x="415.57144"
       y="525.79797"
       height="10.999983"
       style="fill:#fbd2bf"
       id="rect4035-1-1-3" />
    <rect
       width="0"
       x="415.57144"
       y="525.79797"
       height="10.999983"
       style="fill:#fbfbfb"
       id="rect4035-5-27-75" />
    <rect
       width="0"
       x="415.57144"
       y="525.79797"
       height="10.999983"
       style="fill:#fffcf9"
       id="rect4035-8-0-9" />
    <rect
       width="0"
       x="415.57144"
       y="525.79797"
       height="10.999983"
       style="fill:#e8d9eb"
       id="rect4035-44-22" />
    <rect
       width="0"
       x="415.57144"
       y="525.79797"
       height="10.999983"
       style="fill:#e8d9eb"
       id="rect4035-7-8" />
    <rect
       width="0"
       x="415.89221"
       y="526.79797"
       height="10.999983"
       style="fill:#ffffff"
       id="rect4035-753" />
    <rect
       width="0"
       x="415.57144"
       y="525.79797"
       height="10.999983"
       style="fill:#ffffff"
       id="rect4035-4-56" />
    <rect
       width="0"
       x="414.03558"
       y="525.68414"
       height="11.1139"
       style="fill:#fbd2bf"
       id="rect4035-3-2-97" />
    <rect
       width="0"
       x="415.57144"
       y="525.79797"
       height="10.999983"
       style="fill:#fbd2bf"
       id="rect4035-1-9-36" />
    <rect
       width="0"
       x="415.57144"
       y="525.79797"
       height="10.999983"
       style="fill:#fbfbfb"
       id="rect4035-5-12" />
    <rect
       width="0"
       x="415.57144"
       y="525.79797"
       height="10.999983"
       style="fill:#fffcf9"
       id="rect4035-8-1" />
    <rect
       width="0"
       x="415.89221"
       y="526.79797"
       height="10.999983"
       style="fill:#ffffff"
       id="rect4035-93" />
    <rect
       width="0"
       x="415.57144"
       y="525.79797"
       height="10.999983"
       style="fill:#ffffff"
       id="rect4035-4-1" />
    <rect
       width="0"
       x="414.03558"
       y="525.68414"
       height="11.1139"
       style="fill:#fbd2bf"
       id="rect4035-3-947" />
    <rect
       width="0"
       x="415.57144"
       y="525.79797"
       height="10.999983"
       style="fill:#fbd2bf"
       id="rect4035-1-8" />
    <rect
       width="0"
       x="435.57144"
       y="525.79797"
       height="10.999983"
       style="fill:#fbfbfb"
       id="rect4035-2" />
    <rect
       width="0"
       x="415.57144"
       y="525.79797"
       height="10.999983"
       style="fill:#fbfbfb"
       id="rect4035-8-45" />
    <rect
       width="0"
       x="415.89221"
       y="526.79791"
       height="10.999983"
       style="fill:#ffffff"
       id="rect4035-75-2" />
    <rect
       width="0"
       x="415.57144"
       y="525.79791"
       height="10.999983"
       style="fill:#ffffff"
       id="rect4035-4-3-7" />
    <rect
       width="0"
       x="414.03558"
       y="525.68408"
       height="11.1139"
       style="fill:#fbd2bf"
       id="rect4035-3-56-0" />
    <rect
       width="0"
       x="415.57144"
       y="525.79791"
       height="10.999983"
       style="fill:#fbd2bf"
       id="rect4035-1-2-9" />
    <rect
       width="0"
       x="415.57144"
       y="525.79791"
       height="10.999983"
       style="fill:#fbfbfb"
       id="rect4035-5-9-3" />
    <rect
       width="0"
       x="415.89221"
       y="526.79791"
       height="10.999983"
       style="fill:#ffffff"
       id="rect4035-7-1-6" />
    <rect
       width="0"
       x="415.57144"
       y="525.79791"
       height="10.999983"
       style="fill:#ffffff"
       id="rect4035-4-53-0" />
    <rect
       width="0"
       x="414.03558"
       y="525.68408"
       height="11.1139"
       style="fill:#fbd2bf"
       id="rect4035-3-5-6" />
    <rect
       width="0"
       x="415.57144"
       y="525.79791"
       height="10.999983"
       style="fill:#fbd2bf"
       id="rect4035-1-6-2" />
    <rect
       width="0"
       x="415.57144"
       y="525.79791"
       height="10.999983"
       style="fill:#fbfbfb"
       id="rect4035-5-2-6" />
    <rect
       width="0"
       x="415.89221"
       y="526.79791"
       height="10.999983"
       style="fill:#ffffff"
       id="rect4035-53-1" />
    <rect
       width="0"
       x="415.57144"
       y="525.79791"
       height="10.999983"
       style="fill:#ffffff"
       id="rect4035-4-5-8" />
    <rect
       width="0"
       x="415.89221"
       y="526.79791"
       height="10.999983"
       style="fill:#ffffff"
       id="rect4035-6-7" />
    <rect
       width="0"
       x="415.57144"
       y="525.79791"
       height="10.999983"
       style="fill:#ffffff"
       id="rect4035-4-2-92" />
    <rect
       width="0"
       x="414.03558"
       y="525.68408"
       height="11.1139"
       style="fill:#fbd2bf"
       id="rect4035-3-9-0" />
    <rect
       width="0"
       x="415.57144"
       y="525.79791"
       height="10.999983"
       style="fill:#fbd2bf"
       id="rect4035-1-1-23" />
    <rect
       width="0"
       x="415.57144"
       y="525.79791"
       height="10.999983"
       style="fill:#fbfbfb"
       id="rect4035-5-27-7" />
    <rect
       width="0"
       x="415.57144"
       y="525.79791"
       height="10.999983"
       style="fill:#fffcf9"
       id="rect4035-8-0-5" />
    <rect
       width="0"
       x="415.57144"
       y="525.79791"
       height="10.999983"
       style="fill:#e8d9eb"
       id="rect4035-44-92" />
    <rect
       width="0"
       x="415.57144"
       y="525.79791"
       height="10.999983"
       style="fill:#e8d9eb"
       id="rect4035-7-2" />
    <rect
       width="0"
       x="415.89221"
       y="526.79791"
       height="10.999983"
       style="fill:#ffffff"
       id="rect4035-753-8" />
    <rect
       width="0"
       x="415.57144"
       y="525.79791"
       height="10.999983"
       style="fill:#ffffff"
       id="rect4035-4-56-9" />
    <rect
       width="0"
       x="414.03558"
       y="525.68408"
       height="11.1139"
       style="fill:#fbd2bf"
       id="rect4035-3-2-7" />
    <rect
       width="0"
       x="415.57144"
       y="525.79791"
       height="10.999983"
       style="fill:#fbd2bf"
       id="rect4035-1-9-3" />
    <rect
       width="0"
       x="415.57144"
       y="525.79791"
       height="10.999983"
       style="fill:#fbfbfb"
       id="rect4035-5-61" />
    <rect
       width="0"
       x="415.57144"
       y="525.79791"
       height="10.999983"
       style="fill:#fffcf9"
       id="rect4035-8-1-2" />
    <rect
       width="0"
       x="415.89221"
       y="526.79791"
       height="10.999983"
       style="fill:#ffffff"
       id="rect4035-9" />
    <rect
       width="0"
       x="415.57144"
       y="525.79791"
       height="10.999983"
       style="fill:#ffffff"
       id="rect4035-4-31" />
    <rect
       width="0"
       x="414.03558"
       y="525.68408"
       height="11.1139"
       style="fill:#fbd2bf"
       id="rect4035-3-94" />
    <rect
       width="0"
       x="415.57144"
       y="525.79791"
       height="10.999983"
       style="fill:#fbd2bf"
       id="rect4035-1-7" />
    <rect
       width="0"
       x="435.57144"
       y="525.79791"
       height="10.999983"
       style="fill:#fbfbfb"
       id="rect4035-2-8" />
    <rect
       width="0"
       x="415.57144"
       y="525.79791"
       height="10.999983"
       style="fill:#fbfbfb"
       id="rect4035-8-4" />
    <rect
       width="0"
       x="415.89017"
       y="526.79602"
       height="10.999983"
       style="fill:#ffffff"
       id="rect4035-75-1" />
    <rect
       width="0"
       x="415.5694"
       y="525.79602"
       height="10.999983"
       style="fill:#ffffff"
       id="rect4035-4-3-2" />
    <rect
       width="0"
       x="414.03354"
       y="525.68219"
       height="11.1139"
       style="fill:#fbd2bf"
       id="rect4035-3-56-7" />
    <rect
       width="0"
       x="415.5694"
       y="525.79602"
       height="10.999983"
       style="fill:#fbd2bf"
       id="rect4035-1-2-0" />
    <rect
       width="0"
       x="415.5694"
       y="525.79602"
       height="10.999983"
       style="fill:#fbfbfb"
       id="rect4035-5-9-9" />
    <rect
       width="0"
       x="415.89017"
       y="526.79602"
       height="10.999983"
       style="fill:#ffffff"
       id="rect4035-7-1-3" />
    <rect
       width="0"
       x="415.5694"
       y="525.79602"
       height="10.999983"
       style="fill:#ffffff"
       id="rect4035-4-53-6" />
    <rect
       width="0"
       x="414.03354"
       y="525.68219"
       height="11.1139"
       style="fill:#fbd2bf"
       id="rect4035-3-5-0" />
    <rect
       width="0"
       x="415.5694"
       y="525.79602"
       height="10.999983"
       style="fill:#fbd2bf"
       id="rect4035-1-6-6" />
    <rect
       width="0"
       x="415.5694"
       y="525.79602"
       height="10.999983"
       style="fill:#fbfbfb"
       id="rect4035-5-2-2" />
    <rect
       width="0"
       x="415.89017"
       y="526.79602"
       height="10.999983"
       style="fill:#ffffff"
       id="rect4035-53-6" />
    <rect
       width="0"
       x="415.5694"
       y="525.79602"
       height="10.999983"
       style="fill:#ffffff"
       id="rect4035-4-5-1" />
    <rect
       width="0"
       x="415.89017"
       y="526.79602"
       height="10.999983"
       style="fill:#ffffff"
       id="rect4035-6-87" />
    <rect
       width="0"
       x="415.5694"
       y="525.79602"
       height="10.999983"
       style="fill:#ffffff"
       id="rect4035-4-2-9" />
    <rect
       width="0"
       x="414.03354"
       y="525.68219"
       height="11.1139"
       style="fill:#fbd2bf"
       id="rect4035-3-9-2" />
    <rect
       width="0"
       x="415.5694"
       y="525.79602"
       height="10.999983"
       style="fill:#fbd2bf"
       id="rect4035-1-1-0" />
    <rect
       width="0"
       x="415.5694"
       y="525.79602"
       height="10.999983"
       style="fill:#fbfbfb"
       id="rect4035-5-27-2" />
    <rect
       width="0"
       x="415.5694"
       y="525.79602"
       height="10.999983"
       style="fill:#fffcf9"
       id="rect4035-8-0-3" />
    <rect
       width="0"
       x="415.5694"
       y="525.79602"
       height="10.999983"
       style="fill:#e8d9eb"
       id="rect4035-44-75" />
    <rect
       width="0"
       x="415.5694"
       y="525.79602"
       height="10.999983"
       style="fill:#e8d9eb"
       id="rect4035-7-92" />
    <rect
       width="0"
       x="415.89017"
       y="526.79602"
       height="10.999983"
       style="fill:#ffffff"
       id="rect4035-753-2" />
    <rect
       width="0"
       x="415.5694"
       y="525.79602"
       height="10.999983"
       style="fill:#ffffff"
       id="rect4035-4-56-8" />
    <rect
       width="0"
       x="414.03354"
       y="525.68219"
       height="11.1139"
       style="fill:#fbd2bf"
       id="rect4035-3-2-9" />
    <rect
       width="0"
       x="415.5694"
       y="525.79602"
       height="10.999983"
       style="fill:#fbd2bf"
       id="rect4035-1-9-7" />
    <rect
       width="0"
       x="415.5694"
       y="525.79602"
       height="10.999983"
       style="fill:#fbfbfb"
       id="rect4035-5-1-0" />
    <rect
       width="0"
       x="415.5694"
       y="525.79602"
       height="10.999983"
       style="fill:#fffcf9"
       id="rect4035-8-2-3" />
    <rect
       width="0"
       x="415.89017"
       y="526.79602"
       height="10.999983"
       style="fill:#ffffff"
       id="rect4035-361" />
    <rect
       width="0"
       x="415.5694"
       y="525.79602"
       height="10.999983"
       style="fill:#ffffff"
       id="rect4035-4-29" />
    <rect
       width="0"
       x="414.03354"
       y="525.68219"
       height="11.1139"
       style="fill:#fbd2bf"
       id="rect4035-3-3" />
    <rect
       width="0"
       x="415.5694"
       y="525.79602"
       height="10.999983"
       style="fill:#fbd2bf"
       id="rect4035-1-19" />
    <rect
       width="0"
       x="415.5694"
       y="525.79602"
       height="10.999983"
       style="fill:#fbfbfb"
       id="rect4035-5-4" />
    <rect
       width="0"
       x="415.5694"
       y="525.79602"
       height="10.999983"
       style="fill:#fffcf9"
       id="rect4035-8-78" />
    <path
       sodipodi:nodetypes="cccccccc"
       inkscape:export-ydpi="96"
       inkscape:export-xdpi="96"
       inkscape:connector-curvature="0"
       style="color:#000000;clip-rule:nonzero;display:inline;overflow:visible;visibility:visible;opacity:1;isolation:auto;mix-blend-mode:normal;color-interpolation:sRGB;color-interpolation-filters:linearRGB;solid-color:#000000;solid-opacity:1;fill:#4bc94b;fill-opacity:1;fill-rule:nonzero;stroke-width:1;stroke-linecap:butt;stroke-linejoin:miter;stroke-miterlimit:4;stroke-dasharray:none;stroke-dashoffset:0;stroke-opacity:1;color-rendering:auto;image-rendering:auto;shape-rendering:auto;text-rendering:auto;enable-background:accumulate"
       id="path4211"
       d="m 389.57133,545.79795 0,-28 15,0 7.00001,7 0,0 0,21 -14.00001,0 z" />
    <rect
       width="14.999983"
       x="389.57135"
       y="-518.79797"
       height="0.999973"
       style="color:#000000;clip-rule:nonzero;display:inline;overflow:visible;visibility:visible;opacity:0.5;isolation:auto;mix-blend-mode:normal;color-interpolation:sRGB;color-interpolation-filters:linearRGB;solid-color:#000000;solid-opacity:1;fill:#ffffff;fill-opacity:1;fill-rule:nonzero;stroke-width:1;stroke-linecap:butt;stroke-linejoin:miter;stroke-miterlimit:4;stroke-dasharray:none;stroke-dashoffset:0;stroke-opacity:1;color-rendering:auto;image-rendering:auto;shape-rendering:auto;text-rendering:auto;enable-background:accumulate"
       id="rect4169-9-2"
       transform="scale(1,-1)" />
    <rect
       width="21.999994"
       x="389.57135"
       y="-545.79797"
       height="1.00003"
       style="color:#000000;clip-rule:nonzero;display:inline;overflow:visible;visibility:visible;opacity:0.25;isolation:auto;mix-blend-mode:normal;color-interpolation:sRGB;color-interpolation-filters:linearRGB;solid-color:#000000;solid-opacity:1;fill:#000000;fill-opacity:1;fill-rule:nonzero;stroke-width:1;stroke-linecap:butt;stroke-linejoin:miter;stroke-miterlimit:4;stroke-dasharray:none;stroke-dashoffset:0;stroke-opacity:1;color-rendering:auto;image-rendering:auto;shape-rendering:auto;text-rendering:auto;enable-background:accumulate"
       id="rect4236-1-2"
       transform="scale(1,-1)" />
    <path
       inkscape:export-ydpi="96"
       inkscape:export-xdpi="96"
       inkscape:connector-curvature="0"
       style="opacity:0.2;fill:url(#linearGradient4257);fill-rule:evenodd"
       id="path4255"
       d="m 404.57133,524.79795 7.00001,7 0,-7 z"
       sodipodi:nodetypes="cccc" />
    <path
       inkscape:connector-curvature="0"
       style="color:#000000;clip-rule:nonzero;display:inline;overflow:visible;visibility:visible;opacity:0.5;isolation:auto;mix-blend-mode:normal;color-interpolation:sRGB;color-interpolation-filters:linearRGB;solid-color:#000000;solid-opacity:1;fill:#ffffff;fill-opacity:1;fill-rule:nonzero;stroke-width:1;stroke-linecap:butt;stroke-linejoin:miter;stroke-miterlimit:4;stroke-dasharray:none;stroke-dashoffset:0;stroke-opacity:1;color-rendering:auto;image-rendering:auto;shape-rendering:auto;text-rendering:auto;enable-background:accumulate"
       id="path4314-2-8"
       d="m 411.57134,524.79792 -7.00001,-7 0,7 z" />
    <rect
       width="0"
       x="405.57135"
       y="565.79797"
       height="10.999983"
       style="fill:#036b53"
       id="rect4035-70" />
    <rect
       width="0"
       x="405.89212"
       y="566.79797"
       height="10.999983"
       style="fill:#ffffff"
       id="rect4035-67" />
    <rect
       width="0"
       x="405.57135"
       y="565.79797"
       height="10.999983"
       style="fill:#ffffff"
       id="rect4035-4-93" />
    <rect
       width="0"
       x="404.03549"
       y="565.68414"
       height="11.1139"
       style="fill:#fbd2bf"
       id="rect4035-3-60" />
    <rect
       width="0"
       x="405.57135"
       y="565.79797"
       height="10.999983"
       style="fill:#fbd2bf"
       id="rect4035-1-62" />
    <rect
       width="0"
       x="405.57135"
       y="565.79797"
       height="10.999983"
       style="fill:#fbfbfb"
       id="rect4035-5-6" />
    <rect
       width="0"
       x="405.57135"
       y="565.79797"
       height="10.999983"
       style="fill:#fffcf9"
       id="rect4035-8-1-4" />
    <rect
       width="0"
       x="405.89212"
       y="526.79797"
       height="10.999983"
       style="fill:#ffffff"
       id="rect4035-6-8" />
    <rect
       width="0"
       x="405.57135"
       y="525.79797"
       height="10.999983"
       style="fill:#ffffff"
       id="rect4035-4-2-7" />
    <rect
       width="0"
       x="404.03549"
       y="525.68414"
       height="11.1139"
       style="fill:#fbd2bf"
       id="rect4035-3-9-9" />
    <rect
       width="0"
       x="405.57135"
       y="525.79797"
       height="10.999983"
       style="fill:#fbd2bf"
       id="rect4035-1-1-2" />
    <rect
       width="0"
       x="405.57135"
       y="525.79797"
       height="10.999983"
       style="fill:#fbfbfb"
       id="rect4035-5-2-0" />
    <rect
       width="0"
       x="405.57135"
       y="525.79797"
       height="10.999983"
       style="fill:#fffcf9"
       id="rect4035-8-7" />
    <rect
       width="0"
       x="405.57135"
       y="525.79797"
       height="10.999983"
       style="fill:#e8d9eb"
       id="rect4035-44-2" />
    <rect
       width="0"
       x="365.89212"
       y="526.79797"
       height="10.999983"
       style="fill:#ffffff"
       id="rect4035-62" />
    <rect
       width="0"
       x="365.57135"
       y="525.79797"
       height="10.999983"
       style="fill:#ffffff"
       id="rect4035-4-9" />
    <rect
       width="0"
       x="364.03549"
       y="525.68414"
       height="11.1139"
       style="fill:#fbd2bf"
       id="rect4035-3-1" />
    <rect
       width="0"
       x="365.57135"
       y="525.79797"
       height="10.999983"
       style="fill:#fbd2bf"
       id="rect4035-1-2-3" />
    <rect
       width="0"
       x="365.57135"
       y="525.79797"
       height="10.999983"
       style="fill:#fbfbfb"
       id="rect4035-5-7" />
    <rect
       width="0"
       x="365.57135"
       y="525.79797"
       height="10.999983"
       style="fill:#fffcf9"
       id="rect4035-8-0-7" />
    <rect
       width="0"
       x="365.57135"
       y="525.79797"
       height="10.999983"
       style="fill:#e8d9eb"
       id="rect4035-44-9" />
    <rect
       width="0"
       x="365.57135"
       y="525.79797"
       height="10.999983"
       style="fill:#e8d9eb"
       id="rect4035-7-5-6" />
    <rect
       width="0"
       x="366.84128"
       y="526.79797"
       height="10.999983"
       style="fill:#ffffff"
       id="rect4035-36" />
    <rect
       width="0"
       x="366.52051"
       y="525.79797"
       height="10.999983"
       style="fill:#ffffff"
       id="rect4035-4-0" />
    <rect
       width="0"
       x="364.98465"
       y="525.68414"
       height="11.1139"
       style="fill:#fbd2bf"
       id="rect4035-3-6" />
    <rect
       width="0"
       x="366.52051"
       y="525.79797"
       height="10.999983"
       style="fill:#fbd2bf"
       id="rect4035-1-26" />
    <rect
       width="0"
       x="366.52051"
       y="525.79797"
       height="10.999983"
       style="fill:#fbfbfb"
       id="rect4035-5-1-9" />
    <rect
       width="0"
       x="366.52051"
       y="525.79797"
       height="10.999983"
       style="fill:#fffcf9"
       id="rect4035-8-8" />
    <rect
       width="0"
       x="366.52051"
       y="525.79797"
       height="10.999983"
       style="fill:#e8d9eb"
       id="rect4035-44-7-1" />
    <rect
       width="0"
       x="366.52051"
       y="525.79797"
       height="10.999983"
       style="fill:#e8d9eb"
       id="rect4035-7-9" />
    <rect
       width="0"
       x="374.42261"
       y="608.65887"
       height="10.999983"
       style="fill:#036b53"
       id="rect4035-0" />
    <rect
       width="0"
       x="374.74338"
       y="609.65887"
       height="10.999983"
       style="fill:#ffffff"
       id="rect4035-67-6" />
    <rect
       width="0"
       x="374.42261"
       y="608.65887"
       height="10.999983"
       style="fill:#ffffff"
       id="rect4035-4-15" />
    <rect
       width="0"
       x="372.88675"
       y="608.54504"
       height="11.1139"
       style="fill:#fbd2bf"
       id="rect4035-3-54" />
    <rect
       width="0"
       x="374.42261"
       y="608.65887"
       height="10.999983"
       style="fill:#fbd2bf"
       id="rect4035-1-76" />
    <rect
       width="0"
       x="374.42261"
       y="608.65887"
       height="10.999983"
       style="fill:#fbfbfb"
       id="rect4035-5-5" />
    <rect
       width="0"
       x="374.42261"
       y="608.65887"
       height="10.999983"
       style="fill:#fffcf9"
       id="rect4035-8-6" />
    <rect
       width="0"
       x="374.74338"
       y="569.65887"
       height="10.999983"
       style="fill:#ffffff"
       id="rect4035-6-93" />
    <rect
       width="0"
       x="374.42261"
       y="568.65887"
       height="10.999983"
       style="fill:#ffffff"
       id="rect4035-4-2-74" />
    <rect
       width="0"
       x="372.88675"
       y="568.54504"
       height="11.1139"
       style="fill:#fbd2bf"
       id="rect4035-3-9-5" />
    <rect
       width="0"
       x="374.42261"
       y="568.65887"
       height="10.999983"
       style="fill:#fbd2bf"
       id="rect4035-1-1-25" />
    <rect
       width="0"
       x="374.42261"
       y="568.65887"
       height="10.999983"
       style="fill:#fbfbfb"
       id="rect4035-5-2-4" />
    <rect
       width="0"
       x="374.42261"
       y="568.65887"
       height="10.999983"
       style="fill:#fffcf9"
       id="rect4035-8-7-7" />
    <rect
       width="0"
       x="374.42261"
       y="568.65887"
       height="10.999983"
       style="fill:#e8d9eb"
       id="rect4035-44-4" />
    <path
       style="fill:#ffffff;fill-opacity:1;opacity:0.75"
       d="M 14 11 C 13.446 11 13 11.446 13 12 L 13 13 L 11 13 C 10.445985 13 10 13.445985 10 14 L 10 22 C 10 22.554015 10.445985 23 11 23 L 19 23 C 19.554015 23 20 22.554015 20 22 L 20 21 L 21 21 C 21.554015 21 22 20.554015 22 20 L 22 19 L 22 12 C 22 11.446 21.554 11 21 11 L 19 11 L 14 11 z M 14 12 L 19 12 L 21 12 L 21 18 L 21 19 L 21 20 L 20 20 L 20 14 C 20 13.445985 19.554015 13 19 13 L 15.025391 13 C 14.409297 12.735329 13.974372 12.425101 14 12 z M 11 14 L 19 14 L 19 22 L 11 22 L 11 14 z M 12 15 L 12 17 L 18 17 L 18 15 L 12 15 z M 12 18 L 12 19 L 18 19 L 18 18 L 12 18 z M 12 20 L 12 21 L 18 21 L 18 20 L 12 20 z "
       transform="translate(384.57143,515.798)"
       id="rect4191" />
    <path
       d="m 389.57133,545.79795 0,-28 15,0 7.00001,7 0,0 0,21 -14.00001,0 z"
       id="path7628-2"
       style="fill:url(#linearGradient4178);fill-opacity:1"
       inkscape:connector-curvature="0"
       inkscape:export-xdpi="96"
       inkscape:export-ydpi="96"
       sodipodi:nodetypes="cccccccc" />
  </g>
</svg>
