<?xml version="1.0" encoding="UTF-8" standalone="no"?>
<!-- Created with Inkscape (http://www.inkscape.org/) -->

<svg
   xmlns:dc="http://purl.org/dc/elements/1.1/"
   xmlns:cc="http://creativecommons.org/ns#"
   xmlns:rdf="http://www.w3.org/1999/02/22-rdf-syntax-ns#"
   xmlns:svg="http://www.w3.org/2000/svg"
   xmlns="http://www.w3.org/2000/svg"
   xmlns:xlink="http://www.w3.org/1999/xlink"
   xmlns:sodipodi="http://sodipodi.sourceforge.net/DTD/sodipodi-0.dtd"
   xmlns:inkscape="http://www.inkscape.org/namespaces/inkscape"
   width="32"
   version="1.1"
   height="32"
   id="svg2"
   inkscape:version="0.91 r13725"
   sodipodi:docname="application-x-cd-image.svg">
  <sodipodi:namedview
     pagecolor="#ffffff"
     bordercolor="#666666"
     borderopacity="1"
     objecttolerance="10"
     gridtolerance="10"
     guidetolerance="10"
     inkscape:pageopacity="0"
     inkscape:pageshadow="2"
     inkscape:window-width="1920"
     inkscape:window-height="1013"
     id="namedview31"
     showgrid="true"
     inkscape:zoom="14.75"
     inkscape:cx="8.8871984"
     inkscape:cy="13.256335"
     inkscape:window-x="0"
     inkscape:window-y="0"
     inkscape:window-maximized="1"
     inkscape:current-layer="layer1">
    <inkscape:grid
       type="xygrid"
       id="grid4159" />
  </sodipodi:namedview>
  <defs
     id="defs5455">
    <linearGradient
       inkscape:collect="always"
       id="linearGradient4300-7">
      <stop
         style="stop-color:#5e6b78"
         id="stop4302-2" />
      <stop
         offset="1"
         style="stop-color:#768492"
         id="stop4304-4" />
    </linearGradient>
    <linearGradient
       inkscape:collect="always"
       xlink:href="#linearGradient4300-7"
       id="linearGradient4169"
       x1="395.57144"
       y1="545.79797"
       x2="395.57144"
       y2="517.79797"
       gradientUnits="userSpaceOnUse" />
  </defs>
  <metadata
     id="metadata5458">
    <rdf:RDF>
      <cc:Work
         rdf:about="">
        <dc:format>image/svg+xml</dc:format>
        <dc:type
           rdf:resource="http://purl.org/dc/dcmitype/StillImage" />
      </cc:Work>
    </rdf:RDF>
  </metadata>
  <g
     inkscape:label="Capa 1"
     inkscape:groupmode="layer"
     id="layer1"
     transform="matrix(1 0 0 1 -384.57143 -515.798)">
    <path
       style="color:#4d4d4d;clip-rule:nonzero;display:inline;overflow:visible;visibility:visible;opacity:1;isolation:auto;mix-blend-mode:normal;color-interpolation:sRGB;color-interpolation-filters:linearRGB;solid-color:#000000;solid-opacity:1;fill:url(#linearGradient4169);fill-opacity:1;fill-rule:nonzero;stroke:none;stroke-width:2;stroke-linecap:square;stroke-linejoin:miter;stroke-miterlimit:4;stroke-dasharray:none;stroke-dashoffset:0;stroke-opacity:1;color-rendering:auto;image-rendering:auto;shape-rendering:auto;text-rendering:auto;enable-background:accumulate"
       id="path4161"
       sodipodi:type="arc"
       sodipodi:cx="400.57144"
       sodipodi:cy="531.79797"
       sodipodi:rx="14"
       sodipodi:ry="14"
       sodipodi:start="0"
       sodipodi:end="6.225301"
       d="m 414.57144,531.79797 a 14,14 0 0 1 -13.79741,13.99854 14,14 0 0 1 -14.19673,-13.5934 14,14 0 0 1 13.38655,-14.39195 14,14 0 0 1 14.58414,13.17689"
       sodipodi:open="true" />
    <rect
       width="0"
       x="375.89221"
       y="526.79797"
       height="10.999983"
       style="fill:#ffffff"
       id="rect4035" />
    <rect
       width="0"
       x="375.57144"
       y="525.79797"
       height="10.999983"
       style="fill:#ffffff"
       id="rect4035-4" />
    <rect
       width="0"
       x="374.03558"
       y="525.68414"
       height="11.1139"
       style="fill:#fbd2bf"
       id="rect4035-3" />
    <rect
       width="0"
       x="375.57144"
       y="525.79797"
       height="10.999983"
       style="fill:#fbd2bf"
       id="rect4035-1" />
    <rect
       width="0"
       x="395.57144"
       y="525.79797"
       height="10.999983"
       style="fill:#fbfbfb"
       id="rect4035-2" />
    <rect
       width="0"
       x="375.57144"
       y="525.79797"
       height="10.999983"
       style="fill:#fbfbfb"
       id="rect4035-8" />
    <path
       style="color:#4d4d4d;clip-rule:nonzero;display:inline;overflow:visible;visibility:visible;opacity:1;isolation:auto;mix-blend-mode:normal;color-interpolation:sRGB;color-interpolation-filters:linearRGB;solid-color:#000000;solid-opacity:1;fill:#2e3132;fill-opacity:0.29411765;fill-rule:nonzero;stroke:none;stroke-width:2;stroke-linecap:square;stroke-linejoin:miter;stroke-miterlimit:4;stroke-dasharray:none;stroke-dashoffset:0;stroke-opacity:1;color-rendering:auto;image-rendering:auto;shape-rendering:auto;text-rendering:auto;enable-background:accumulate"
       d="m 399.964,545.78481 a 14,14 0 0 1 -13.38671,-14.39063 14,14 0 0 1 0.0156,-0.26757 14,14 0 0 0 13.37109,13.6582 14,14 0 0 0 14.58398,-13.17578 l 0.006,-0.17578 a 14,14 0 0 1 0.0176,0.36523 l -0.0234,0.81055 a 14,14 0 0 1 -14.58398,13.17578 z"
       id="path4161-5-1"
       inkscape:connector-curvature="0" />
    <path
       style="color:#4d4d4d;clip-rule:nonzero;display:inline;overflow:visible;visibility:visible;opacity:1;isolation:auto;mix-blend-mode:normal;color-interpolation:sRGB;color-interpolation-filters:linearRGB;solid-color:#000000;solid-opacity:1;fill:#fbfbfb;fill-opacity:1;fill-rule:nonzero;stroke:none;stroke-width:2;stroke-linecap:square;stroke-linejoin:miter;stroke-miterlimit:4;stroke-dasharray:none;stroke-dashoffset:0;stroke-opacity:1;color-rendering:auto;image-rendering:auto;shape-rendering:auto;text-rendering:auto;enable-background:accumulate"
       d="M 16 10.001953 A 6 6 0 0 0 15.740234 10.005859 A 6 6 0 0 0 10.001953 16 L 12.003906 16 A 4 4 0 0 1 15.826172 12.003906 A 4 4 0 0 1 16 12.003906 L 16 10.001953 z M 20 16 A 4 4 0 0 1 16.058594 20 A 4 4 0 0 1 16 19.998047 L 16 21.998047 A 6 6 0 0 0 16.085938 22 A 6 6 0 0 0 22 16 L 20 16 z "
       transform="translate(384.57143,515.798)"
       id="path4235" />
    <path
       style="color:#4d4d4d;clip-rule:nonzero;display:inline;overflow:visible;visibility:visible;opacity:1;isolation:auto;mix-blend-mode:normal;color-interpolation:sRGB;color-interpolation-filters:linearRGB;solid-color:#000000;solid-opacity:1;fill:#fbfbfb;fill-opacity:1;fill-rule:nonzero;stroke:none;stroke-width:2;stroke-linecap:square;stroke-linejoin:miter;stroke-miterlimit:4;stroke-dasharray:none;stroke-dashoffset:0;stroke-opacity:1;color-rendering:auto;image-rendering:auto;shape-rendering:auto;text-rendering:auto;enable-background:accumulate"
       d="M 15.914062 14.001953 A 2 2 0 0 0 14 16.058594 A 2 2 0 0 0 16.029297 18 A 2 2 0 0 0 18 16 L 17.996094 15.884766 A 2 2 0 0 0 15.914062 14.001953 z M 15.957031 15 A 1 1 0 0 1 16.998047 15.941406 L 17 16 A 1 1 0 0 1 16.013672 17 A 1 1 0 0 1 15 16.029297 A 1 1 0 0 1 15.957031 15 z "
       transform="translate(384.57143,515.798)"
       id="path4246" />
  </g>
</svg>
