<?xml version="1.0" encoding="UTF-8" standalone="no"?>
<!-- Created with Inkscape (http://www.inkscape.org/) -->

<svg
   xmlns:dc="http://purl.org/dc/elements/1.1/"
   xmlns:cc="http://creativecommons.org/ns#"
   xmlns:rdf="http://www.w3.org/1999/02/22-rdf-syntax-ns#"
   xmlns:svg="http://www.w3.org/2000/svg"
   xmlns="http://www.w3.org/2000/svg"
   xmlns:xlink="http://www.w3.org/1999/xlink"
   xmlns:sodipodi="http://sodipodi.sourceforge.net/DTD/sodipodi-0.dtd"
   xmlns:inkscape="http://www.inkscape.org/namespaces/inkscape"
   width="32"
   version="1.1"
   height="32"
   id="svg2"
   inkscape:version="0.91 r13725"
   sodipodi:docname="application-x-xliff-32.svg">
  <sodipodi:namedview
     pagecolor="#ffffff"
     bordercolor="#666666"
     borderopacity="1"
     objecttolerance="10"
     gridtolerance="10"
     guidetolerance="10"
     inkscape:pageopacity="0"
     inkscape:pageshadow="2"
     inkscape:window-width="1366"
     inkscape:window-height="699"
     id="namedview33"
     showgrid="false"
     inkscape:zoom="7.375"
     inkscape:cx="16"
     inkscape:cy="16"
     inkscape:window-x="0"
     inkscape:window-y="0"
     inkscape:window-maximized="1"
     inkscape:current-layer="layer1" />
  <defs
     id="defs5455">
    <linearGradient
       inkscape:collect="always"
       xlink:href="#linearGradient4300-3"
       id="linearGradient4306"
       y1="61"
       y2="3"
       x2="0"
       gradientUnits="userSpaceOnUse"
       gradientTransform="matrix(0.49999977 0 0 0.48275841 384.57144 516.34974)" />
    <linearGradient
       inkscape:collect="always"
       xlink:href="#linearGradient4351-6"
       id="linearGradient4357"
       y1="61"
       y2="47"
       x2="0"
       gradientUnits="userSpaceOnUse"
       gradientTransform="matrix(0.48275841 0 0 0.48275841 385.26109 516.10836)" />
    <linearGradient
       inkscape:collect="always"
       xlink:href="#linearGradient4410"
       id="linearGradient4427"
       y1="31"
       x1="54"
       y2="16.500048"
       x2="39.500008"
       gradientUnits="userSpaceOnUse"
       gradientTransform="matrix(0.48275841 0 0 -0.48275841 378.50247 553.76351)" />
    <linearGradient
       inkscape:collect="always"
       id="linearGradient4410">
      <stop
         style="stop-color:#383e51"
         id="stop4412" />
      <stop
         offset="1"
         style="stop-color:#655c6f;stop-opacity:0"
         id="stop4414" />
    </linearGradient>
    <linearGradient
       inkscape:collect="always"
       id="linearGradient4351-6">
      <stop
         style="stop-color:#444e7e"
         id="stop4353-7" />
      <stop
         offset="1"
         style="stop-color:#5a669e"
         id="stop4355-8" />
    </linearGradient>
    <linearGradient
       inkscape:collect="always"
       id="linearGradient4300-3">
      <stop
         style="stop-color:#8892bf"
         id="stop4302-4" />
      <stop
         offset="1"
         style="stop-color:#939dc9"
         id="stop4304-0" />
    </linearGradient>
  </defs>
  <metadata
     id="metadata5458">
    <rdf:RDF>
      <cc:Work
         rdf:about="">
        <dc:format>image/svg+xml</dc:format>
        <dc:type
           rdf:resource="http://purl.org/dc/dcmitype/StillImage" />
        <dc:title></dc:title>
      </cc:Work>
    </rdf:RDF>
  </metadata>
  <g
     inkscape:label="Capa 1"
     inkscape:groupmode="layer"
     id="layer1"
     transform="matrix(1 0 0 1 -384.57143 -515.798)">
    <path
       inkscape:connector-curvature="0"
       style="fill:url(#linearGradient4306)"
       id="rect3500"
       d="m 389.57144,517.79801 0,27.99999 14.99999,0 7.00003,-7 -3e-5,-14.24137 0,-6.75862 -7,0 z" />
    <rect
       width="14.999983"
       x="389.57144"
       y="544.79797"
       height="0.999973"
       style="fill:#2e3132;fill-opacity:0.294118"
       id="rect4169" />
    <rect
       width="21.999994"
       x="389.57144"
       y="517.79797"
       height="1.00003"
       style="fill:#ffffff;fill-opacity:0.411765"
       id="rect4236" />
    <path
       inkscape:connector-curvature="0"
       style="fill:url(#linearGradient4357);fill-rule:evenodd"
       id="path4314"
       d="m 411.57144,538.798 -7.00001,7 0,-7 z" />
    <path
       inkscape:connector-curvature="0"
       style="fill:url(#linearGradient4427);opacity:0.2;fill-rule:evenodd"
       id="path4320"
       d="m 397.57143,545.79797 7,-6.99997 0,7 z" />
    <rect
       width="0"
       x="375.89221"
       y="526.79797"
       height="10.999983"
       style="fill:#ffffff"
       id="rect4035" />
    <rect
       width="0"
       x="375.57144"
       y="525.79797"
       height="10.999983"
       style="fill:#ffffff"
       id="rect4035-4" />
    <rect
       width="0"
       x="374.03558"
       y="525.68414"
       height="11.1139"
       style="fill:#fbd2bf"
       id="rect4035-3" />
    <rect
       width="0"
       x="375.57144"
       y="525.79797"
       height="10.999983"
       style="fill:#fbd2bf"
       id="rect4035-1" />
    <rect
       width="0"
       x="375.57144"
       y="525.79797"
       height="10.999983"
       style="fill:#fbfbfb"
       id="rect4035-5" />
    <rect
       width="0"
       x="375.57144"
       y="525.79797"
       height="10.999983"
       style="fill:#fffcf9"
       id="rect4035-8" />
    <rect
       width="0"
       x="375.57144"
       y="525.79797"
       height="10.999983"
       style="fill:#e8d9eb"
       id="rect4035-44" />
    <rect
       width="0"
       x="375.57144"
       y="525.79797"
       height="10.999983"
       style="fill:#e8d9eb"
       id="rect4035-7" />
    <path
       inkscape:connector-curvature="0"
       d="m 400.71299,532.43365 -1.40297,-1.3864 0.0166,-0.0166 c 0.96109,-1.07155 1.646,-2.30329 2.04921,-3.60684 l 1.61838,0 0,-1.1047 -3.86644,0 0,-1.10469 -1.1047,0 0,1.10469 -3.86644,0 0,1.09918 6.16974,0 c -0.37008,1.06604 -0.95557,2.07684 -1.75095,2.96059 -0.51368,-0.56892 -0.93899,-1.19307 -1.27592,-1.85037 l -1.10471,0 c 0.40322,0.90033 0.95557,1.75095 1.64601,2.51871 l -2.81146,2.7728 0.78434,0.78433 2.76174,-2.76174 1.71781,1.7178 0.41979,-1.12679 z m 3.10972,-2.80041 -1.10469,0 -2.48558,6.62819 1.1047,0 0.61863,-1.65705 2.62366,0 0.62415,1.65705 1.1047,0 -2.48557,-6.62819 z m -1.44715,3.86644 0.8948,-2.39167 0.89481,2.39167 -1.78961,0 z"
       id="path6"
       style="fill:#656f9d;fill-opacity:1" />
  </g>
</svg>
