<?xml version="1.0" encoding="UTF-8" standalone="no"?>

<!-- Created with Inkscape (http://www.inkscape.org/) -->
<svg width="32" version="1.1" xmlns="http://www.w3.org/2000/svg" height="32" xmlns:xlink="http://www.w3.org/1999/xlink" xmlns:inkscape="http://www.inkscape.org/namespaces/inkscape">
 <defs id="defs5455">
  <linearGradient inkscape:collect="always" xlink:href="#linearGradient4300-3" id="linearGradient4306" y1="61" y2="3" x2="0" gradientUnits="userSpaceOnUse" gradientTransform="matrix(0.49999977 0 0 0.48275841 384.57144 516.34974)"/>
  <linearGradient inkscape:collect="always" xlink:href="#linearGradient4351-5" id="linearGradient4357" y1="61" y2="47" x2="0" gradientUnits="userSpaceOnUse" gradientTransform="matrix(0.48275841 0 0 0.48275841 385.26109 516.10836)"/>
  <linearGradient inkscape:collect="always" xlink:href="#linearGradient4410" id="linearGradient4427" y1="31" x1="54" y2="16.500048" x2="39.500008" gradientUnits="userSpaceOnUse" gradientTransform="matrix(0.48275841 0 0 -0.48275841 378.50247 553.76351)"/>
  <linearGradient inkscape:collect="always" id="linearGradient4410">
   <stop style="stop-color:#383e51" id="stop4412"/>
   <stop offset="1" style="stop-color:#655c6f;stop-opacity:0" id="stop4414"/>
  </linearGradient>
  <linearGradient id="linearGradient4351-5">
   <stop style="stop-color:#fddda3" id="stop4353-1"/>
   <stop offset="1" style="stop-color:#fde3a7" id="stop4355-8"/>
  </linearGradient>
  <linearGradient id="linearGradient4300-3">
   <stop style="stop-color:#f39c12" id="stop4302-0"/>
   <stop offset="1" style="stop-color:#f9a11f" id="stop4304-0"/>
  </linearGradient>
 </defs>
 <metadata id="metadata5458"/>
 <g inkscape:label="Capa 1" inkscape:groupmode="layer" id="layer1" transform="matrix(1 0 0 1 -384.57143 -515.798)">
  <path inkscape:connector-curvature="0" style="fill:url(#linearGradient4306)" id="rect3500" d="m 389.57144,517.79801 0,27.99999 14.99999,0 7.00003,-7 -3e-5,-14.24137 0,-6.75862 -7,0 z"/>
  <rect width="14.999983" x="389.57144" y="544.79797" height="0.999973" style="fill:#2e3132;fill-opacity:0.294118" id="rect4169"/>
  <rect width="21.999994" x="389.57144" y="517.79797" height="1.00003" style="fill:#ffffff;fill-opacity:0.411765" id="rect4236"/>
  <path inkscape:connector-curvature="0" style="fill:url(#linearGradient4357);fill-rule:evenodd" id="path4314" d="m 411.57144,538.798 -7.00001,7 0,-7 z"/>
  <path inkscape:connector-curvature="0" style="fill:url(#linearGradient4427);opacity:0.2;fill-rule:evenodd" id="path4320" d="m 397.57143,545.79797 7,-6.99997 0,7 z"/>
  <rect width="0" x="375.89221" y="526.79797" height="10.999983" style="fill:#ffffff" id="rect4035"/>
  <rect width="0" x="375.57144" y="525.79797" height="10.999983" style="fill:#ffffff" id="rect4035-4"/>
  <rect width="0" x="374.03558" y="525.68414" height="11.1139" style="fill:#fbd2bf" id="rect4035-3"/>
  <rect width="0" x="375.57144" y="525.79797" height="10.999983" style="fill:#fbd2bf" id="rect4035-1"/>
  <path inkscape:label="Capa 1" inkscape:connector-curvature="0" style="fill:#fddda3;color:#4d4d4d" id="path2993" d="m 7.5,2 0,1.125 C 6.657105,3.2031674 5.9928939,3.4158583 5.5,3.8125 4.95761,4.2447 4.6875,4.88402 4.6875,5.71875 4.6875,6.88402 5.38454,7.63984 6.8125,8 L 7.5,8.1875 7.5,11.875 C 6.6128298,11.795706 5.7812569,11.601634 5,11.21875 L 4.65625,12.125 c 0.31778,0.19491 0.7516,0.3787 1.28125,0.53125 C 6.4023232,12.785363 6.9259807,12.84223 7.5,12.875 L 7.5,14 7.75,14 8.34375,14 8.5,14 8.5,12.875 C 9.349811,12.80657 10.03337,12.547817 10.53125,12.09375 11.06515,11.61071 11.34374,10.91102 11.34375,10 11.34374,9.26271 11.14405,8.7108 10.75,8.3125 10.35592,7.90995 9.7627,7.61971 9,7.4375 l -0.5,-0.125 0,-3.25 c 0.3855531,0.028944 0.78709,0.083097 1.15625,0.1875 0.42373,0.11442 0.74151,0.26219 1,0.40625 L 10.96875,3.75 C 10.328483,3.3513511 9.507613,3.1129214 8.5,3.0625 L 8.5,2 8.34375,2 7.75,2 7.5,2 Z M 7.28125,4.09375 c 0.065458,-0.010982 0.1489476,0.00794 0.21875,0 L 7.5,7.0625 7.21875,7 C 6.74841,6.8856 6.39353,6.71611 6.15625,6.5 5.9232,6.27967 5.81249,5.98518 5.8125,5.625 5.8124912,4.76855 6.2950199,4.2592177 7.28125,4.09375 Z M 8.5,8.40625 8.6875,8.46875 c 0.57626,0.14407 0.97139,0.33952 1.1875,0.59375 0.22034,0.25001 0.31249,0.59323 0.3125,1 -10e-6,1.13306 -0.5629367,1.734764 -1.6875,1.84375 l 0,-3.5 z" transform="matrix(1 0 0 1 392.57143 522.798)"/>
 </g>
</svg>
