<?xml version="1.0" encoding="UTF-8" standalone="no"?>
<svg
   width="32"
   height="32"
   version="1.1"
   id="svg1239"
   xmlns:xlink="http://www.w3.org/1999/xlink"
   xmlns="http://www.w3.org/2000/svg"
   xmlns:svg="http://www.w3.org/2000/svg">
  <defs
     id="defs1211">
    <linearGradient
       id="a"
       y1="392.36"
       y2="365.36"
       gradientUnits="userSpaceOnUse"
       x2="0"
       gradientTransform="translate(309.57,152.44)">
      <stop
         stop-color="#ffffff"
         stop-opacity="0"
         id="stop1200" />
      <stop
         offset="1"
         stop-color="#ffffff"
         stop-opacity=".2"
         id="stop1202" />
    </linearGradient>
    <linearGradient
       id="b"
       y1="17"
       x1="47"
       y2="24"
       gradientUnits="userSpaceOnUse"
       x2="54"
       gradientTransform="translate(-27,-8)">
      <stop
         stop-color="#060606"
         id="stop1205" />
      <stop
         offset="1"
         stop-opacity="0"
         id="stop1207" />
    </linearGradient>
    <path
       id="c"
       d="m389.57 545.8v-28h15l7 7v21h-14z" />
  </defs>
  <use
     fill="#555555"
     xlink:href="#c"
     id="use1213"
     transform="translate(-384.57,-515.8)"
     style="color:#000000;color-interpolation:sRGB;color-interpolation-filters:linearRGB;color-rendering:auto;image-rendering:auto;shape-rendering:auto;text-rendering:auto" />
  <g
     transform="matrix(1,0,0,-1,-384.57,-515.8)"
     id="g1219"
     style="color:#000000;color-interpolation:sRGB;color-interpolation-filters:linearRGB;color-rendering:auto;image-rendering:auto;shape-rendering:auto;text-rendering:auto">
    <rect
       opacity="0.4"
       x="389.57001"
       y="-518.79999"
       width="15"
       fill="#ffffff"
       height="1"
       id="rect1215" />
    <rect
       opacity="0.35"
       x="389.57001"
       y="-545.79999"
       width="22"
       height="1"
       id="rect1217" />
  </g>
  <path
     opacity="0.5"
     fill="#ffffff"
     fill-rule="evenodd"
     d="M 27,9 20,2 v 7 z"
     id="path1221"
     style="color:#000000;color-interpolation:sRGB;color-interpolation-filters:linearRGB;color-rendering:auto;image-rendering:auto;shape-rendering:auto;text-rendering:auto" />
  <path
     opacity="0.4"
     fill="url(#b)"
     fill-rule="evenodd"
     d="m 20,9 7,7 V 9 Z"
     id="path1225"
     style="fill:url(#b)" />
  <path
     fill="#343434"
     d="m 18.99,16.11 c 0.019,-0.152 0.033,-0.306 0.033,-0.463 0,-0.157 -0.014,-0.311 -0.033,-0.463 l 1,-0.785 c 0.09,-0.071 0.116,-0.199 0.057,-0.304 l -0.949,-1.644 c -0.059,-0.102 -0.183,-0.145 -0.289,-0.102 l -1.182,0.477 C 17.383,12.639 17.114,12.48 16.825,12.359 L 16.647,11.101 C 16.626,10.989 16.528,10.902 16.41,10.902 h -1.898 c -0.119,0 -0.216,0.088 -0.235,0.199 l -0.178,1.258 c -0.289,0.121 -0.558,0.278 -0.802,0.467 l -1.182,-0.477 c -0.107,-0.04 -0.23,0 -0.289,0.102 l -0.949,1.644 c -0.059,0.102 -0.033,0.23 0.057,0.304 l 1,0.785 c -0.019,0.152 -0.033,0.306 -0.033,0.463 0,0.157 0.014,0.311 0.033,0.463 l -1,0.785 c -0.09,0.071 -0.116,0.199 -0.057,0.304 l 0.949,1.644 c 0.059,0.102 0.183,0.145 0.289,0.102 l 1.182,-0.477 c 0.244,0.187 0.513,0.346 0.802,0.467 l 0.178,1.258 c 0.019,0.112 0.116,0.199 0.235,0.199 h 1.898 c 0.119,0 0.216,-0.088 0.235,-0.199 l 0.178,-1.258 c 0.289,-0.121 0.558,-0.278 0.802,-0.467 l 1.182,0.477 c 0.107,0.04 0.23,0 0.289,-0.102 l 0.949,-1.644 c 0.059,-0.102 0.033,-0.23 -0.057,-0.304 z m -3.526,1.198 c -0.918,0 -1.661,-0.743 -1.661,-1.661 0,-0.918 0.743,-1.661 1.661,-1.661 0.918,0 1.661,0.743 1.661,1.661 0,0.918 -0.743,1.661 -1.661,1.661"
     id="path1227" />
  <path
     fill="#e0e0e0"
     d="m 17.99,15.11 c 0.019,-0.152 0.033,-0.306 0.033,-0.463 0,-0.157 -0.014,-0.311 -0.033,-0.463 l 1,-0.785 c 0.09,-0.071 0.116,-0.199 0.057,-0.304 l -0.949,-1.644 c -0.059,-0.102 -0.183,-0.145 -0.289,-0.102 l -1.182,0.477 C 16.383,11.639 16.114,11.48 15.825,11.359 L 15.647,10.101 C 15.626,9.989 15.528,9.902 15.41,9.902 h -1.898 c -0.119,0 -0.216,0.088 -0.235,0.199 l -0.178,1.258 c -0.289,0.121 -0.558,0.278 -0.802,0.467 l -1.182,-0.477 c -0.107,-0.04 -0.23,0 -0.289,0.102 l -0.949,1.644 c -0.059,0.102 -0.033,0.23 0.057,0.304 l 1,0.785 c -0.019,0.152 -0.033,0.306 -0.033,0.463 0,0.157 0.014,0.311 0.033,0.463 l -1,0.785 c -0.09,0.071 -0.116,0.199 -0.057,0.304 l 0.949,1.644 c 0.059,0.102 0.183,0.145 0.289,0.102 l 1.182,-0.477 c 0.244,0.187 0.513,0.346 0.802,0.467 l 0.178,1.258 c 0.019,0.112 0.116,0.199 0.235,0.199 h 1.898 c 0.119,0 0.216,-0.088 0.235,-0.199 l 0.178,-1.258 c 0.289,-0.121 0.558,-0.278 0.802,-0.467 l 1.182,0.477 c 0.107,0.04 0.23,0 0.289,-0.102 l 0.949,-1.644 c 0.059,-0.102 0.033,-0.23 -0.057,-0.304 z m -3.526,1.198 c -0.918,0 -1.661,-0.743 -1.661,-1.661 0,-0.918 0.743,-1.661 1.661,-1.661 0.918,0 1.661,0.743 1.661,1.661 0,0.918 -0.743,1.661 -1.661,1.661"
     id="path1229" />
  <path
     fill="#343434"
     d="m 21.7,24.5 c 0.065,-0.091 0.129,-0.185 0.184,-0.286 0.055,-0.101 0.1,-0.205 0.141,-0.309 l 0.921,-0.153 c 0.083,-0.014 0.145,-0.087 0.143,-0.175 l -0.033,-1.39 C 23.053,22.101 22.989,22.03 22.906,22.02 L 21.979,21.912 C 21.888,21.706 21.771,21.51 21.628,21.33 l 0.327,-0.871 c 0.025,-0.079 -0.006,-0.17 -0.083,-0.211 l -1.22,-0.666 c -0.076,-0.042 -0.17,-0.019 -0.221,0.046 l -0.555,0.746 C 19.648,20.35 19.42,20.357 19.197,20.393 L 18.605,19.672 C 18.55,19.609 18.457,19.591 18.383,19.636 l -1.187,0.724 c -0.074,0.045 -0.102,0.136 -0.07,0.215 l 0.368,0.856 c -0.065,0.091 -0.129,0.185 -0.184,0.286 -0.055,0.101 -0.1,0.205 -0.141,0.309 L 16.25,22.18 c -0.083,0.014 -0.145,0.087 -0.143,0.175 l 0.033,1.39 c 0.003,0.086 0.067,0.157 0.15,0.167 l 0.927,0.108 c 0.091,0.206 0.208,0.402 0.351,0.582 l -0.327,0.871 c -0.027,0.078 0.005,0.169 0.081,0.21 l 1.22,0.666 c 0.076,0.042 0.17,0.019 0.221,-0.046 l 0.555,-0.746 c 0.228,0.024 0.456,0.017 0.679,-0.019 l 0.592,0.721 c 0.055,0.063 0.148,0.081 0.222,0.036 l 1.187,-0.724 c 0.074,-0.045 0.102,-0.136 0.07,-0.215 z m -2.686,-0.467 c -0.59,-0.322 -0.807,-1.06 -0.485,-1.65 0.322,-0.59 1.06,-0.807 1.65,-0.485 0.59,0.322 0.807,1.06 0.485,1.65 -0.322,0.59 -1.06,0.807 -1.65,0.485"
     id="path1231" />
  <g
     id="g1474"
     transform="translate(-1)">
    <path
       fill="#343434"
       d="m 9,21 v 3 h 3 v -3 z m 4,0 v 3 h 3 v -3 z m -4,4 v 3 h 3 v -3 z m 4,0 v 3 h 3 v -3 z"
       id="path1069-3"
       style="color:#000000;color-interpolation:sRGB;color-interpolation-filters:linearRGB;color-rendering:auto;image-rendering:auto;shape-rendering:auto;text-rendering:auto" />
    <path
       fill="#e0e0e0"
       d="m 8,20 v 3 h 3 v -3 z m 4,0 v 3 h 3 v -3 z m -4,4 v 3 h 3 v -3 z m 4,0 v 3 h 3 v -3 z"
       id="path1071-6"
       style="color:#000000;color-interpolation:sRGB;color-interpolation-filters:linearRGB;color-rendering:auto;image-rendering:auto;shape-rendering:auto;text-rendering:auto" />
  </g>
  <path
     fill="#e0e0e0"
     d="m 20.7,23.5 c 0.065,-0.091 0.129,-0.185 0.184,-0.286 0.055,-0.101 0.1,-0.205 0.141,-0.309 l 0.921,-0.153 c 0.083,-0.014 0.145,-0.087 0.143,-0.175 l -0.033,-1.39 C 22.053,21.101 21.989,21.03 21.906,21.02 L 20.979,20.912 C 20.888,20.706 20.771,20.51 20.628,20.33 l 0.327,-0.871 c 0.025,-0.079 -0.006,-0.17 -0.083,-0.211 l -1.22,-0.666 c -0.076,-0.042 -0.17,-0.019 -0.221,0.046 l -0.555,0.746 C 18.648,19.35 18.42,19.357 18.197,19.393 L 17.605,18.672 C 17.55,18.609 17.457,18.591 17.383,18.636 l -1.187,0.724 c -0.074,0.045 -0.102,0.136 -0.07,0.215 l 0.368,0.856 c -0.065,0.091 -0.129,0.185 -0.184,0.286 -0.055,0.101 -0.1,0.205 -0.141,0.309 L 15.25,21.18 c -0.083,0.014 -0.145,0.087 -0.143,0.175 l 0.033,1.39 c 0.003,0.086 0.067,0.157 0.15,0.167 l 0.927,0.108 c 0.091,0.206 0.208,0.402 0.351,0.582 l -0.327,0.871 c -0.027,0.078 0.005,0.169 0.081,0.21 l 1.22,0.666 c 0.076,0.042 0.17,0.019 0.221,-0.046 l 0.555,-0.746 c 0.228,0.024 0.456,0.017 0.679,-0.019 l 0.592,0.721 c 0.055,0.063 0.148,0.081 0.222,0.036 l 1.187,-0.724 c 0.074,-0.045 0.102,-0.136 0.07,-0.215 z m -2.686,-0.467 c -0.59,-0.322 -0.807,-1.06 -0.485,-1.65 0.322,-0.59 1.06,-0.807 1.65,-0.485 0.59,0.322 0.807,1.06 0.485,1.65 -0.322,0.59 -1.06,0.807 -1.65,0.485"
     id="path1233" />
  <use
     fill="url(#a)"
     xlink:href="#c"
     id="use1235"
     style="fill:url(#a)"
     transform="translate(-384.57,-515.8)" />
</svg>
