<?xml version="1.0" encoding="UTF-8" standalone="no"?>
<!-- Created with Inkscape (http://www.inkscape.org/) -->

<svg
   xmlns:dc="http://purl.org/dc/elements/1.1/"
   xmlns:cc="http://creativecommons.org/ns#"
   xmlns:rdf="http://www.w3.org/1999/02/22-rdf-syntax-ns#"
   xmlns:svg="http://www.w3.org/2000/svg"
   xmlns="http://www.w3.org/2000/svg"
   xmlns:xlink="http://www.w3.org/1999/xlink"
   xmlns:sodipodi="http://sodipodi.sourceforge.net/DTD/sodipodi-0.dtd"
   xmlns:inkscape="http://www.inkscape.org/namespaces/inkscape"
   width="32"
   version="1.1"
   height="32"
   id="svg2"
   inkscape:version="0.91 r13725"
   sodipodi:docname="application-dicom-32.svg">
  <sodipodi:namedview
     pagecolor="#ffffff"
     bordercolor="#666666"
     borderopacity="1"
     objecttolerance="10"
     gridtolerance="10"
     guidetolerance="10"
     inkscape:pageopacity="0"
     inkscape:pageshadow="2"
     inkscape:window-width="1366"
     inkscape:window-height="699"
     id="namedview30"
     showgrid="false"
     inkscape:zoom="22.401143"
     inkscape:cx="16.312484"
     inkscape:cy="17.785623"
     inkscape:window-x="0"
     inkscape:window-y="0"
     inkscape:window-maximized="1"
     inkscape:current-layer="layer1" />
  <defs
     id="defs5455">
    <linearGradient
       inkscape:collect="always"
       xlink:href="#linearGradient4300-7"
       id="linearGradient4306"
       y1="61"
       y2="3"
       x2="0"
       gradientUnits="userSpaceOnUse"
       gradientTransform="matrix(0.49999977 0 0 0.48275841 384.57144 516.34974)" />
    <linearGradient
       inkscape:collect="always"
       xlink:href="#linearGradient4351-8"
       id="linearGradient4357"
       y1="61"
       y2="47"
       x2="0"
       gradientUnits="userSpaceOnUse"
       gradientTransform="matrix(0.48275841 0 0 0.48275841 385.26109 516.10836)" />
    <linearGradient
       inkscape:collect="always"
       xlink:href="#linearGradient4410"
       id="linearGradient4427"
       y1="31"
       x1="54"
       y2="16.500048"
       x2="39.500008"
       gradientUnits="userSpaceOnUse"
       gradientTransform="matrix(0.48275841 0 0 -0.48275841 378.50247 553.76351)" />
    <linearGradient
       inkscape:collect="always"
       id="linearGradient4410">
      <stop
         style="stop-color:#383e51"
         id="stop4412" />
      <stop
         offset="1"
         style="stop-color:#655c6f;stop-opacity:0"
         id="stop4414" />
    </linearGradient>
    <linearGradient
       inkscape:collect="always"
       id="linearGradient4351-8">
      <stop
         style="stop-color:#dedede"
         id="stop4353-5" />
      <stop
         offset="1"
         style="stop-color:#fbfbfb"
         id="stop4355-8-4" />
    </linearGradient>
    <linearGradient
       inkscape:collect="always"
       id="linearGradient4300-7">
      <stop
         style="stop-color:#5e6b78"
         id="stop4302-2" />
      <stop
         offset="1"
         style="stop-color:#768492"
         id="stop4304-4" />
    </linearGradient>
  </defs>
  <metadata
     id="metadata5458">
    <rdf:RDF>
      <cc:Work
         rdf:about="">
        <dc:format>image/svg+xml</dc:format>
        <dc:type
           rdf:resource="http://purl.org/dc/dcmitype/StillImage" />
        <dc:title></dc:title>
      </cc:Work>
    </rdf:RDF>
  </metadata>
  <g
     inkscape:label="Capa 1"
     inkscape:groupmode="layer"
     id="layer1"
     transform="matrix(1 0 0 1 -384.57143 -515.798)">
    <path
       inkscape:connector-curvature="0"
       style="fill:url(#linearGradient4306)"
       id="rect3500"
       d="m 389.57144,517.79801 0,27.99999 14.99999,0 7.00003,-7 -3e-5,-14.24137 0,-6.75862 -7,0 z" />
    <rect
       width="14.999983"
       x="389.57144"
       y="544.79797"
       height="0.999973"
       style="fill:#2e3132;fill-opacity:0.294118"
       id="rect4169" />
    <rect
       width="21.999994"
       x="389.57144"
       y="517.79797"
       height="1.00003"
       style="fill:#ffffff;fill-opacity:0.411765"
       id="rect4236" />
    <path
       inkscape:connector-curvature="0"
       style="fill:url(#linearGradient4357);fill-rule:evenodd"
       id="path4314"
       d="m 411.57144,538.798 -7.00001,7 0,-7 z" />
    <path
       inkscape:connector-curvature="0"
       style="fill:url(#linearGradient4427);opacity:0.2;fill-rule:evenodd"
       id="path4320"
       d="m 397.57143,545.79797 7,-6.99997 0,7 z" />
    <rect
       width="0"
       x="375.89221"
       y="526.79797"
       height="10.999983"
       style="fill:#ffffff"
       id="rect4035" />
    <rect
       width="0"
       x="375.57144"
       y="525.79797"
       height="10.999983"
       style="fill:#ffffff"
       id="rect4035-4" />
    <rect
       width="0"
       x="374.03558"
       y="525.68414"
       height="11.1139"
       style="fill:#fbd2bf"
       id="rect4035-3" />
    <rect
       width="0"
       x="375.57144"
       y="525.79797"
       height="10.999983"
       style="fill:#fbd2bf"
       id="rect4035-1" />
    <path
       inkscape:connector-curvature="0"
       d="m 398.24231,529.8628 c -0.0919,0.42012 -0.46664,0.73567 -0.9139,0.73567 -0.11924,0 -0.21591,0.0966 -0.21591,0.21592 0,0.11927 0.0967,0.21592 0.21591,0.21592 0.68443,0 1.25295,-0.50545 1.3521,-1.16267 0.41905,-0.0453 0.80588,-0.23204 1.10535,-0.53769 0.0834,-0.0852 0.082,-0.22191 -0.003,-0.30533 -0.0852,-0.0834 -0.22188,-0.0821 -0.30533,0.003 -0.26483,0.27033 -0.61905,0.41919 -0.99742,0.41919 -0.7699,0 -1.39626,-0.62636 -1.39626,-1.39625 0,-0.11927 -0.0967,-0.21592 -0.21592,-0.21592 -0.11924,0 -0.21591,0.0967 -0.21591,0.21592 0,0.92743 0.69436,1.6952 1.59044,1.81214 z"
       id="path5"
       style="fill:#d5dadc;fill-opacity:1" />
    <path
       inkscape:connector-curvature="0"
       d="m 399.1565,531.73563 c 0,-0.11927 -0.0967,-0.21592 -0.21592,-0.21592 -1.00801,0 -1.82808,0.82008 -1.82808,1.82809 0,0.0104 4.2e-4,0.0209 5.4e-4,0.0313 -0.0803,-0.0108 -0.16205,-0.0169 -0.24525,-0.0169 -0.11925,0 -0.21592,0.0967 -0.21592,0.21592 0,0.11928 0.0967,0.21592 0.21592,0.21592 0.7699,0 1.39626,0.62635 1.39626,1.39626 0,0.11927 0.0967,0.21591 0.21591,0.21591 0.11924,0 0.21591,-0.0966 0.21591,-0.21591 0,-0.7661 -0.47391,-1.42323 -1.1438,-1.69472 -0.005,-0.0489 -0.008,-0.0984 -0.008,-0.14777 0,-0.7699 0.62636,-1.39625 1.39626,-1.39625 0.11924,0 0.21592,-0.0967 0.21592,-0.21592 z"
       id="path7"
       style="fill:#d5dadc;fill-opacity:1" />
    <path
       inkscape:connector-curvature="0"
       d="m 406.52644,529.89315 c 0,-0.49157 -0.19634,-0.9574 -0.54339,-1.29999 0.055,-0.17584 0.0828,-0.35773 0.0828,-0.5425 0,-0.88882 -0.63773,-1.63114 -1.47957,-1.79438 0.0643,-0.16038 0.0977,-0.33231 0.0977,-0.50872 0,-0.56303 -0.3421,-1.04754 -0.8293,-1.25695 -0.8117,-0.64649 -1.69946,-1.03176 -2.38066,-1.03176 -0.37865,0 -0.71445,0.1862 -0.92124,0.47167 -0.20679,-0.28547 -0.54258,-0.47167 -0.92124,-0.47167 -0.6812,0 -1.56897,0.38527 -2.38067,1.03176 -0.48719,0.20941 -0.82929,0.69392 -0.82929,1.25695 0,0.17641 0.0333,0.34834 0.0977,0.50872 -0.84184,0.16324 -1.47957,0.90556 -1.47957,1.79438 0,0.18477 0.0278,0.36663 0.0828,0.5425 -0.34705,0.34259 -0.54339,0.80842 -0.54339,1.29999 0,0.38427 0.11945,0.74105 0.32281,1.03567 -0.21134,0.30551 -0.32281,0.66189 -0.32281,1.03712 0,0.66468 0.36237,1.27368 0.9361,1.59479 -0.01,0.0821 -0.0149,0.16496 -0.0149,0.2477 0,0.8966 0.58485,1.68929 1.43339,1.95945 0.36911,0.63169 1.04144,1.02019 1.77656,1.02019 0.80595,0 1.50477,-0.46583 1.84249,-1.14217 0.33772,0.67634 1.03654,1.14217 1.84248,1.14217 0.73512,0 1.40746,-0.3885 1.77656,-1.02019 0.84855,-0.27018 1.4334,-1.06288 1.4334,-1.95945 0,-0.0827 -0.005,-0.1656 -0.0149,-0.2477 0.57373,-0.32111 0.9361,-0.93011 0.9361,-1.59479 0,-0.37523 -0.11147,-0.73161 -0.32281,-1.03712 0.20335,-0.29462 0.3228,-0.6514 0.3228,-1.03567 z m -7.81617,6.46309 c -0.6054,0 -1.15704,-0.33378 -1.43969,-0.87104 -0.028,-0.0532 -0.0769,-0.0924 -0.13497,-0.10798 -0.70858,-0.1907 -1.20345,-0.8358 -1.20345,-1.56879 0,-0.10969 0.0111,-0.21955 0.0328,-0.32659 0.0202,-0.0992 -0.0313,-0.19921 -0.12385,-0.24038 -0.50435,-0.22421 -0.83024,-0.7249 -0.83024,-1.27552 0,-0.25043 0.065,-0.48981 0.18888,-0.70184 0.32232,0.28417 0.74491,0.45713 1.20738,0.45713 0.11924,0 0.21591,-0.0966 0.21591,-0.21591 0,-0.11927 -0.0967,-0.21591 -0.21591,-0.21591 -0.7699,0 -1.39626,-0.62636 -1.39626,-1.39626 0,-0.41444 0.18287,-0.80505 0.50173,-1.07155 0.072,-0.0602 0.0969,-0.15993 0.0616,-0.24684 -0.0682,-0.16801 -0.10272,-0.34434 -0.10272,-0.5241 0,-0.7699 0.62636,-1.39626 1.39626,-1.39626 0.7699,0 1.39626,0.62636 1.39626,1.39626 0,0.11928 0.0967,0.21592 0.21591,0.21592 0.11925,0 0.21592,-0.0966 0.21592,-0.21592 0,-0.96851 -0.75721,-1.76311 -1.71066,-1.82391 -0.0864,-0.14447 -0.13183,-0.30873 -0.13183,-0.47919 0,-0.38488 0.23366,-0.71612 0.56651,-0.85961 0.0128,-0.004 0.0255,-0.009 0.0377,-0.0152 0.10312,-0.0392 0.2148,-0.0609 0.33148,-0.0609 0.3615,0 0.68422,0.20213 0.84224,0.52756 0.0521,0.10729 0.18132,0.15203 0.28855,0.0999 0.10727,-0.0521 0.15201,-0.18125 0.0999,-0.28852 -0.18039,-0.37146 -0.52179,-0.63845 -0.91497,-0.73302 0.55108,-0.33625 1.09361,-0.52715 1.52676,-0.52715 0.38891,0 0.70532,0.31639 0.70532,0.70532 l 0,2.79399 c -0.194,-0.15391 -0.43902,-0.24617 -0.70532,-0.24617 -0.11924,0 -0.21592,0.0966 -0.21592,0.21591 0,0.11927 0.0967,0.21591 0.21592,0.21591 0.38891,0 0.70532,0.31639 0.70532,0.70533 l 0,5.19002 c -0.26845,-0.34636 -0.64691,-0.60776 -1.0921,-0.72737 -0.11513,-0.0308 -0.23359,0.0374 -0.26454,0.15249 -0.031,0.11518 0.0374,0.23362 0.15249,0.26454 0.70899,0.1905 1.20415,0.83568 1.20415,1.56902 0,0.89688 -0.72968,1.62657 -1.62656,1.62657 z m 6.5541,-3.11475 c -0.0926,0.0412 -0.14406,0.14112 -0.12385,0.24039 0.0218,0.10703 0.0328,0.21689 0.0328,0.32657 0,0.733 -0.49488,1.37809 -1.20346,1.56879 -0.0581,0.0156 -0.10697,0.0548 -0.13496,0.10799 -0.28265,0.53723 -0.8343,0.87101 -1.4397,0.87101 -0.89689,0 -1.62657,-0.72969 -1.62657,-1.62657 0,-0.0607 -0.003,-0.12091 -0.008,-0.18053 0.005,-0.0184 0.008,-0.0378 0.008,-0.0579 l 0,-7.13148 c 0,-0.38894 0.31642,-0.70533 0.70533,-0.70533 0.11924,0 0.21592,-0.0966 0.21592,-0.21592 0,-0.11927 -0.0967,-0.21591 -0.21592,-0.21591 -0.2663,0 -0.51132,0.0923 -0.70533,0.24617 l 0,-1.87274 c 0,-0.38894 0.31642,-0.70533 0.70533,-0.70533 0.43316,0 0.97568,0.1909 1.52676,0.52716 -0.39317,0.0945 -0.73458,0.36156 -0.91497,0.73302 -0.0521,0.1073 -0.007,0.23647 0.0999,0.28852 0.10726,0.0521 0.23644,0.007 0.28855,-0.0999 0.15802,-0.32543 0.48074,-0.52755 0.84224,-0.52755 0.11668,0 0.22839,0.0216 0.33148,0.0609 0.0121,0.006 0.0248,0.0113 0.0376,0.0151 0.33292,0.14348 0.56659,0.47472 0.56659,0.85963 0,0.17045 -0.0454,0.33473 -0.13182,0.47919 -0.95346,0.0608 -1.71066,0.8554 -1.71066,1.82392 0,0.11926 0.0967,0.21591 0.21591,0.21591 0.11925,0 0.21592,-0.0967 0.21592,-0.21591 0,-0.76991 0.62636,-1.39626 1.39626,-1.39626 0.7699,0 1.39626,0.62635 1.39626,1.39626 0,0.17975 -0.0345,0.35608 -0.10269,0.52409 -0.0353,0.087 -0.0104,0.18667 0.0616,0.24684 0.31883,0.2665 0.5017,0.6571 0.5017,1.07155 0,0.7699 -0.62636,1.39625 -1.39626,1.39625 -0.11924,0 -0.21591,0.0966 -0.21591,0.21592 0,0.11927 0.0967,0.21592 0.21591,0.21592 0.46246,0 0.88506,-0.17297 1.20737,-0.45714 0.12397,0.21203 0.18889,0.45141 0.18889,0.70184 0,0.55062 -0.32589,1.05132 -0.83024,1.27555 z"
       id="path9"
       style="fill:#d5dadc;fill-opacity:1" />
    <path
       inkscape:connector-curvature="0"
       d="m 404.23773,530.36816 c -0.44727,0 -0.82204,-0.31555 -0.9139,-0.73567 0.89608,-0.11694 1.59044,-0.88471 1.59044,-1.81214 0,-0.11927 -0.0967,-0.21591 -0.21592,-0.21591 -0.11924,0 -0.21592,0.0966 -0.21592,0.21591 0,0.7699 -0.62636,1.39626 -1.39625,1.39626 -0.37838,0 -0.73259,-0.14887 -0.99742,-0.41919 -0.0834,-0.0852 -0.22015,-0.0866 -0.30533,-0.003 -0.0852,0.0834 -0.0866,0.22014 -0.003,0.30532 0.29946,0.30566 0.6863,0.49238 1.10535,0.5377 0.0992,0.65722 0.66767,1.16266 1.35209,1.16266 0.11924,0 0.21592,-0.0966 0.21592,-0.21592 0,-0.11927 -0.0967,-0.21591 -0.21592,-0.21591 z"
       id="path11"
       style="fill:#d5dadc;fill-opacity:1" />
    <path
       inkscape:connector-curvature="0"
       d="m 403.5468,532.90158 c -0.0832,0 -0.16497,0.006 -0.24526,0.0169 1.8e-4,-0.0105 5.5e-4,-0.0209 5.5e-4,-0.0313 0,-1.00801 -0.82008,-1.8281 -1.82809,-1.8281 -0.11925,0 -0.21592,0.0966 -0.21592,0.21592 0,0.11928 0.0967,0.21592 0.21592,0.21592 0.7699,0 1.39626,0.62636 1.39626,1.39626 0,0.0493 -0.003,0.0989 -0.008,0.14777 -0.66989,0.27148 -1.14381,0.92861 -1.14381,1.69471 0,0.11927 0.0967,0.21591 0.21592,0.21591 0.11924,0 0.21592,-0.0966 0.21592,-0.21591 0,-0.7699 0.62635,-1.39625 1.39625,-1.39625 0.11924,0 0.21592,-0.0966 0.21592,-0.21592 0,-0.11928 -0.0967,-0.21592 -0.21592,-0.21592 z"
       id="path13"
       style="fill:#d5dadc;fill-opacity:1" />
  </g>
</svg>
