<?xml version="1.0" encoding="UTF-8" standalone="no"?>

<!-- Created with Inkscape (http://www.inkscape.org/) -->
<svg width="32" version="1.1" xmlns="http://www.w3.org/2000/svg" height="32" xmlns:xlink="http://www.w3.org/1999/xlink" xmlns:inkscape="http://www.inkscape.org/namespaces/inkscape">
 <defs id="defs5455">
  <linearGradient inkscape:collect="always" xlink:href="#linearGradient4300-1" id="linearGradient4306" y1="61" y2="3" x2="0" gradientUnits="userSpaceOnUse" gradientTransform="matrix(0.49999977 0 0 0.48275841 384.57144 516.34974)"/>
  <linearGradient inkscape:collect="always" xlink:href="#linearGradient4351-2" id="linearGradient4357" y1="61" y2="47" x2="0" gradientUnits="userSpaceOnUse" gradientTransform="matrix(0.48275841 0 0 0.48275841 385.26109 516.10836)"/>
  <linearGradient inkscape:collect="always" xlink:href="#linearGradient4410" id="linearGradient4427" y1="31" x1="54" y2="16.500048" x2="39.500008" gradientUnits="userSpaceOnUse" gradientTransform="matrix(0.48275841 0 0 -0.48275841 378.50247 553.76351)"/>
  <linearGradient inkscape:collect="always" id="linearGradient4410">
   <stop style="stop-color:#383e51" id="stop4412"/>
   <stop offset="1" style="stop-color:#655c6f;stop-opacity:0" id="stop4414"/>
  </linearGradient>
  <linearGradient inkscape:collect="always" id="linearGradient4351-2">
   <stop style="stop-color:#d3bdd7" id="stop4353-8"/>
   <stop offset="1" style="stop-color:#e8d9eb" id="stop4355-6"/>
  </linearGradient>
  <linearGradient inkscape:collect="always" id="linearGradient4300-1">
   <stop style="stop-color:#8e44ad" id="stop4302-0"/>
   <stop offset="1" style="stop-color:#9b59b6" id="stop4304-6"/>
  </linearGradient>
 </defs>
 <metadata id="metadata5458"/>
 <g inkscape:label="Capa 1" inkscape:groupmode="layer" id="layer1" transform="matrix(1 0 0 1 -384.57143 -515.798)">
  <path inkscape:connector-curvature="0" style="fill:url(#linearGradient4306)" id="rect3500" d="m 389.57144,517.79801 0,27.99999 14.99999,0 7.00003,-7 -3e-5,-14.24137 0,-6.75862 -7,0 z"/>
  <rect width="14.999983" x="389.57144" y="544.79797" height="0.999973" style="fill:#2e3132;fill-opacity:0.294118" id="rect4169"/>
  <rect width="21.999994" x="389.57144" y="517.79797" height="1.00003" style="fill:#ffffff;fill-opacity:0.411765" id="rect4236"/>
  <path inkscape:connector-curvature="0" style="fill:url(#linearGradient4357);fill-rule:evenodd" id="path4314" d="m 411.57144,538.798 -7.00001,7 0,-7 z"/>
  <path inkscape:connector-curvature="0" style="fill:url(#linearGradient4427);opacity:0.2;fill-rule:evenodd" id="path4320" d="m 397.57143,545.79797 7,-6.99997 0,7 z"/>
  <rect width="0" x="375.89221" y="526.79797" height="10.999983" style="fill:#ffffff" id="rect4035"/>
  <rect width="0" x="375.57144" y="525.79797" height="10.999983" style="fill:#ffffff" id="rect4035-4"/>
  <rect width="0" x="374.03558" y="525.68414" height="11.1139" style="fill:#fbd2bf" id="rect4035-3"/>
  <rect width="0" x="375.57144" y="525.79797" height="10.999983" style="fill:#fbd2bf" id="rect4035-1"/>
  <rect width="0" x="375.57144" y="525.79797" height="10.999983" style="fill:#fbfbfb" id="rect4035-5"/>
  <rect width="0" x="375.57144" y="525.79797" height="10.999983" style="fill:#fffcf9" id="rect4035-8"/>
  <g inkscape:label="Capa 1" style="fill:#e8d9eb" id="layer1-65" transform="matrix(1.0414341 0 0 1.0103562 391.73995 -524.44191)">
   <rect width="0" x="-17" y="1039.3622" height="10.999983" id="rect4035-7"/>
   <path inkscape:connector-curvature="0" id="path4124" d="m 6.7511089,1048.9387 c -0.978627,0 -1.6458726,-0.4892 -1.4679404,-1.7347 0.2224151,-1.557 1.156559,-2.0686 4.1146816,-2.4912 0.02224,0 0.9341429,-0.1556 0.9341429,-0.1556 l -0.3781054,2.758 c -0.8006948,1.0008 -2.2463933,1.6235 -3.2027787,1.6235 z m 3.0470879,-0.1333 0.044479,1.2899 1.2677672,0 1.156559,-8.3406 c 0.355865,-2.5355 -1.089835,-3.2695 -3.1138132,-3.2695 -1.4456985,0 -2.8691559,0.4226 -3.7143337,0.912 l 0.2446567,1.3789 c 0.9119024,-0.4448 2.1574275,-0.7561 3.2917451,-0.7561 1.4012161,0 1.9127701,0.6894 1.7348391,2.0239 l -0.200174,1.2678 -1.0453519,0.1334 c -2.6912238,0.4226 -5.3157233,0.8452 -5.7383122,3.8255 -0.3113813,2.1352 0.9563854,3.0916 2.6467411,3.0916 1.0675928,0 2.3798431,-0.4003 3.4251938,-1.5568 z"/>
  </g>
 </g>
</svg>
