<?xml version="1.0" encoding="utf-8"?><svg height="32" width="32" xmlns="http://www.w3.org/2000/svg" xmlns:svg="http://www.w3.org/2000/svg" xmlns:xlink="http://www.w3.org/1999/xlink"><defs id="primary-definitions"><style id="current-color-scheme" type="text/css">.ColorScheme-Text           { color:#fff; }
      .ColorScheme-Background     { color:#111; }
      .ColorScheme-Highlight      { color:#3daefd; }
      .ColorScheme-ViewBackground { color:#000; }
      .ColorScheme-PositiveText   { color:#27ae60; }
      .ColorScheme-NeutralText    { color:#f67400; }
      .ColorScheme-NegativeText   { color:#da4453; }
  </style><style id="extended-color-scheme" type="text/css">.ExScheme-Black     { color:#3e3e3e; }
      .ExScheme-White     { color:#fcfcfc; }
      .ExScheme-Grey-1    { color:#cfd5d5; }
      .ExScheme-Grey-2    { color:#909c9c; }
      .ExScheme-Grey-3    { color:#536161; }
      .ExScheme-Red-1     { color:#ffafa5; }
      .ExScheme-Red-2     { color:#bf4231; }
      .ExScheme-Red-3     { color:#4d2f2b; }
      .ExScheme-Green-1   { color:#abf9c7; }
      .ExScheme-Green-2   { color:#3bb566; }
      .ExScheme-Green-3   { color:#377d50; }
      .ExScheme-Blue-1    { color:#abdaf9; }
      .ExScheme-Blue-2    { color:#3daefd; }
      .ExScheme-Blue-3    { color:#2b3c4d; }
      .ExScheme-Yellow-1  { color:#faffa5; }
      .ExScheme-Yellow-2  { color:#cac726; }
      .ExScheme-Yellow-3  { color:#4b4d2b; }
      .ExScheme-Orange-1  { color:#ffdaa5; }
      .ExScheme-Orange-2  { color:#ff9701; }
      .ExScheme-Orange-3  { color:#4d372b; }
      .ExScheme-Brown-1   { color:#e9d6bb; }
      .ExScheme-Brown-2   { color:#997657; }
      .ExScheme-Brown-3   { color:#433a35; }
      .ExScheme-Purple-1  { color:#e2abf9; }
      .ExScheme-Purple-2  { color:#b401ff; }
      .ExScheme-Purple-3  { color:#432b4d; }
      .ExScheme-Cyan-1    { color:#b2f2e6; }
      .ExScheme-Cyan-2    { color:#31bfa6; }
      .ExScheme-Cyan-3    { color:#2b4d47; }
      .ExScheme-Magenta-1 { color:#f8a6d8; }
      .ExScheme-Magenta-2 { color:#f00091; }
      .ExScheme-Magenta-3 { color:#770048; }
  </style><linearGradient id="gradientDark"><stop offset="0"/><stop offset="1" stop-opacity="0"/></linearGradient><linearGradient id="gradientLight"><stop offset="0" stop-color="#fff"/><stop offset="1" stop-color="#fff" stop-opacity="0"/></linearGradient><style class="toggle-enable-crease" type="text/css">.folder-crease { display: none; }
  </style><style class="toggle-manilla-folders" type="text/css">.folder-manilla { display: none; }
  </style><radialGradient cx=".5" cy="0" id="gl1" r="1" xlink:href="#gradientLight"/><linearGradient id="gd1" xlink:href="#gradientDark" y1="1" y2=".5"/><radialGradient cx="5.94" cy="32" fx="5.94" fy="32" gradientTransform="matrix(0,.9984,-1.0246,0,48.7875,-2.9613)" gradientUnits="userSpaceOnUse" id="radialGradient4483" r="26" xlink:href="#gradientLight"/><path -inkscape-stroke="none" d="M 4.5,3 C 3.669,3 3,3.669 3,4.5 v 23 C 3,28.331 3.669,29 4.5,29 h 23 C 28.331,29 29,28.331 29,27.5 V 4.5 C 29,3.669 28.331,3 27.5,3 H 25 v 15 c 0,0.554 -0.446,1 -1,1 h -2 c -0.554,0 -1,-0.446 -1,-1 V 3 Z" id="use-path-0" stop-color="#000000" stroke-opacity="0"/></defs><g id="content"><namedview bordercolor="#666666" borderopacity="1.0" current-layer="svg47" cx="0" cy="8.93" pagecheckerboard="0" pagecolor="#ffffff" pageopacity="0.0" pageshadow="2" showgrid="false" window-height="1017" window-maximized="1" window-width="1920" window-x="0" window-y="0" zoom="11.313708"><grid type="xygrid"/></namedview><path -inkscape-stroke="none" d="M 4.5,3 C 3.669,3 3,3.669 3,4.5 v 23 C 3,28.331 3.669,29 4.5,29 h 23 C 28.331,29 29,28.331 29,27.5 V 4.5 C 29,3.669 28.331,3 27.5,3 H 27 5 Z" fill="#3daefd" id="primary-color" stop-color="#000000" stroke-opacity="0"/><use fill="#ffffff" href="#use-path-0" id="rect2310-2-6" opacity=".1"/><g id="emblem" transform="translate(4,13)"><path class="ColorScheme-Background" d="M 8.593,1.04 C 6.86,.97 5.192,1.48 3.766,3.044 2.34,4.607 1.807,7.545 3.103,10.4 4.202,12.82 7.32,15.8 11.303,14.803 6.73,14.355 6.155,12.797 5.023,11.3 3.89,9.8 5.27,11.897 4.52,11.317 3.77,10.737 2.868,7.56 3.397,6.254 4.706,3.02 8.477,.897 11.176,3.207 13.874,5.517 12.32,10.574 8.755,9.026 6.202,7.918 7.208,4.117 10.267,5.007 9.167,4.126 6.442,4.76 6.578,7.4 6.62,8.248 7.485,9.185 8.69,9.697 7.854,9.53 7.734,9.39 7.17,8.922 7.334,9.863 9.794,10.723 11.13,9.8 c -.333,.043 -.62,.074 -.88,.09 .79,-.134 1.638,-.63 2.458,-1.685 1.944,-2.502 -.263,-5.11 -.263,-5.11 0,0 .422,-.233 1.217,1.133 -.672,-2.306 -2.802,-3.07 -3.61,-3.226 -.066,-.013 -.26,.152 -.26,.152 0,0 -.674,-.093 -1.202,-.114 z" fill="currentColor" opacity=".6"/><path class="ColorScheme-Background" d="M 10.055,1 C 9.99,.987 9.795,1.152 9.795,1.152 c 0,0 -.673,-.092 -1.2,-.113 C 6.86,.97 5.19,1.48 3.766,3.043 2.34,4.606 1.807,7.545 3.104,10.4 4.202,12.819 7.32,15.8 11.303,14.803 6.73,14.356 6.156,12.797 5.023,11.3 3.89,9.8 5.27,11.896 4.51,11.316 3.77,10.737 2.868,7.56 3.396,6.254 4.705,3.02 8.477,.897 11.176,3.207 13.874,5.517 12.32,10.573 8.754,9.025 6.2,7.917 7.21,4.117 10.268,5.008 9.168,4.127 6.443,4.76 6.578,7.398 6.622,8.248 7.484,9.185 8.69,9.697 7.854,9.53 7.733,9.39 7.17,8.922 7.334,9.863 9.794,10.724 11.13,9.8 10.797,9.843 10.51,9.874 10.252,9.89 11.042,9.756 11.89,9.26 12.71,8.205 14.653,5.703 12.445,3.094 12.445,3.094 c 0,0 .423,-.233 1.22,1.133 C 12.992,1.92 10.862,1.157 10.055,1 Z M 8.27,1.533 c .1,-8.82e-5 .2,.002 .303,.006 .486,.02 1.154,.11 1.154,.11 C 9.853,1.66 9.98,1.623 10.08,1.545 10.436,1.626 11.027,1.803 11.625,2.22 11.814,2.35 11.98,2.548 12.158,2.72 11.94,2.888 11.77,3.058 11.5,2.826 10.006,1.547 8.14,1.488 6.56,2.195 5.104,2.848 3.902,4.152 3.164,5.707 2.91,5.46 3.633,3.93 4.135,3.38 5.383,2.013 6.765,1.535 8.27,1.533 Z M 4.834,11.844 c .238,.33 .594,.665 .877,1.01 C 5.345,12.544 4.952,12.257 4.658,11.906 c .02,.002 .123,-.045 .176,-.062 z" fill="currentColor" opacity=".6"/></g><use fill="url(#radialGradient4483)" href="#use-path-0" id="rect2310-2" opacity=".2"/><path -inkscape-stroke="none" d="m 3,27 v 0.5 C 3,28.331 3.669,29 4.5,29 h 23 C 28.331,29 29,28.331 29,27.5 V 27 c 0,0.831 -0.669,1.5 -1.5,1.5 H 4.5 C 3.669,28.5 3,27.831 3,27 Z" id="rect2310-6" opacity=".1" stop-color="#000000" stroke-opacity="0"/><path -inkscape-stroke="none" d="M 3,27.25 V 27.5 C 3,28.331 3.669,29 4.5,29 h 23 c 0.831,0 1.5,-0.669 1.5,-1.5 v -0.25 c 0,0.831 -0.669,1.5 -1.5,1.5 H 4.5 C 3.669,28.75 3,28.081 3,27.25 Z" id="rect2310-6-9" opacity=".2" stop-color="#000000" stroke-opacity="0"/><path -inkscape-stroke="none" d="M 4.5,3 C 3.669,3 3,3.669 3,4.5 V 5 C 3,4.169 3.669,3.5 4.5,3.5 H 21 V 3 Z M 25,3 v 0.5 h 2.5 C 28.331,3.5 29,4.169 29,5 V 4.5 C 29,3.669 28.331,3 27.5,3 Z" fill="#fefefe" id="rect2310-6-3" opacity=".1" stop-color="#000000" stroke-opacity="0"/><path -inkscape-stroke="none" d="M 4.5,3 C 3.669,3 3,3.669 3,4.5 V 4.75 C 3,3.919 3.669,3.25 4.5,3.25 H 21 V 3 Z M 25,3 v 0.25 h 2.5 c 0.831,0 1.5,0.669 1.5,1.5 V 4.5 C 29,3.669 28.331,3 27.5,3 Z" fill="#fefefe" id="rect2310-6-9-6" opacity=".2" stop-color="#000000" stroke-opacity="0"/><path -inkscape-stroke="none" d="m 21,3 v 15 c 0,0.554 0.446,1 1,1 h 2 c 0.554,0 1,-0.446 1,-1 V 3 H 24 V 4 H 22 V 3 Z m 1,2 h 2 V 8 C 24,8.554 23.554,9 23,9 22.446,9 22,8.554 22,8 Z m 2,5 v 1 h -1 v 1 h 1 v 1 h -1 v 1 h 1 v 1 h -1 v 1 h 1 v 1 1 h -2 v -1 h 1 v -1 h -1 v -1 h 1 v -1 h -1 v -1 h 1 v -1 h -1 v -1 h 1 v -1 z" id="rect1143" opacity=".4" stop-color="#000000" stroke-opacity="0"/><path -inkscape-stroke="none" d="m 22,3 v 1 h 2 V 3 Z m 0,2 v 3 c 0,0.554 0.446,1 1,1 0.554,0 1,-0.446 1,-1 V 5 Z m 1,5 v 1 h 1 v -1 z m 0,1 h -1 v 1 h 1 z m 0,1 v 1 h 1 v -1 z m 0,1 h -1 v 1 h 1 z m 0,1 v 1 h 1 v -1 z m 0,1 h -1 v 1 h 1 z m 0,1 v 1 h -1 v 1 h 2 v -1 -1 z" fill="#ffffff" id="rect1145" opacity=".6" stop-color="#000000" stroke-opacity="0"/><path -inkscape-stroke="none" d="m 21,18 v 1 c 0,0.554 0.446,1 1,1 h 2 c 0.554,0 1,-0.446 1,-1 v -1 c 0,0.554 -0.446,1 -1,1 h -2 c -0.554,0 -1,-0.446 -1,-1 z" fill="#ffffff" id="rect4145" opacity=".1" stop-color="#000000" stroke-opacity="0"/><path -inkscape-stroke="none" d="m 21,18 v 0.5 c 0,0.554 0.446,1 1,1 h 2 c 0.554,0 1,-0.446 1,-1 V 18 c 0,0.554 -0.446,1 -1,1 h -2 c -0.554,0 -1,-0.446 -1,-1 z" fill="#ffffff" id="rect4145-7" opacity=".2" stop-color="#000000" stroke-opacity="0"/></g></svg>