<?xml version="1.0" encoding="UTF-8"?>
<svg id="svg9" width="32" height="32" version="1.1" xmlns="http://www.w3.org/2000/svg">
 <defs id="defs4">
  <linearGradient id="a" x1="404.57" x2="411.57" y1="524.8" y2="531.8" gradientUnits="userSpaceOnUse">
   <stop id="stop1" stop-color="#383e51" offset="0"/>
   <stop id="stop2" stop-color="#655c6f" stop-opacity="0" offset="1"/>
  </linearGradient>
  <linearGradient id="b" x1="6.508" x2="7.322" y1="3.421" y2="61.14" gradientTransform="matrix(.5 0 0 -.48276 384.57 547.25)" gradientUnits="userSpaceOnUse">
   <stop id="stop3" stop-color="#fff" stop-opacity="0" offset="0"/>
   <stop id="stop4" stop-color="#fff" stop-opacity=".2" offset="1"/>
  </linearGradient>
 </defs>
 <g id="g9" transform="translate(-384.57-515.8)">
  <path id="path4" d="m389.57 517.8v27h22v-20l-7-7z" fill="#ccc"/>
  <path id="path1" class="ColorScheme-Text" d="m400.57 526.8c-3.3137 0-6 2.6863-6 6l-2e-3 3-1.3438-1.4551-0.65625 0.69531 2.3125 2.5312 0.18945 0.22071 0.1875-0.22071 2.3125-2.5312-0.65625-0.69531-1.3438 1.4551v-3c0-2.7614 2.2386-5 5-5s5 2.2386 5 5-2.2386 5-5 5c-0.71415 0-1.3855-0.15992-2-0.42969v1.0274c0.63157 0.22593 1.2908 0.40234 2 0.40234 3.3137 0 6-2.6863 6-6s-2.6863-6-6-6zm-1 2v5h5v-1h-4v-4z" color="#232629" opacity=".5"/>
  <g id="g5" fill="#fff">
   <rect id="rect4" transform="scale(1-1)" x="389.57" y="-518.8" width="15" height="1" opacity=".5"/>
   <path id="path5" d="m411.57 524.8-7-7v7z" fill-rule="evenodd" opacity=".5"/>
  </g>
  <path id="path6" d="m411.57 531.8-7-7h7z" fill="url(#a)" fill-rule="evenodd" opacity=".2"/>
  <path id="path8" d="m389.57 545.8v-28h15l7 7v21h-7z" fill="url(#b)"/>
  <path id="path9" transform="translate(384.57,515.8)" d="m5 29v1h22v-1z" color="#000000" color-rendering="auto" image-rendering="auto" opacity=".25" shape-rendering="auto" text-rendering="auto"/>
 </g>
</svg>
