<svg width="32" height="32" viewBox="0 0 32 32" fill="none" xmlns="http://www.w3.org/2000/svg">
<path d="M5 30V2H20L27 9V30H13H5Z" fill="#559F2F"/>
<path opacity="0.5" d="M20 2H5V3H20V2Z" fill="white"/>
<path opacity="0.25" d="M27 29H5V30H27V29Z" fill="black"/>
<path opacity="0.1" fill-rule="evenodd" clip-rule="evenodd" d="M20 9L27 16V9H20Z" fill="url(#paint0_linear)"/>
<path opacity="0.5" fill-rule="evenodd" clip-rule="evenodd" d="M27 9L20 2V9H27Z" fill="white"/>
<path d="M5 30V2H20L27 9V30H13H5Z" fill="url(#paint1_linear)"/>
<path d="M25.5 20.5C25.5 20.538 25.4841 20.6161 25.3691 20.7326C25.2519 20.8514 25.0575 20.9812 24.7779 21.1011C24.2204 21.34 23.4154 21.5 22.5 21.5C21.5846 21.5 20.7796 21.34 20.2221 21.1011C19.9425 20.9812 19.7481 20.8514 19.6309 20.7326C19.5159 20.6161 19.5 20.538 19.5 20.5C19.5 20.462 19.5159 20.3839 19.6309 20.2674C19.7481 20.1486 19.9425 20.0188 20.2221 19.8989C20.7796 19.66 21.5846 19.5 22.5 19.5C23.4154 19.5 24.2204 19.66 24.7779 19.8989C25.0575 20.0188 25.2519 20.1486 25.3691 20.2674C25.4841 20.3839 25.5 20.462 25.5 20.5Z" stroke="white"/>
<rect x="19" y="20.5" width="1" height="4" fill="white"/>
<rect x="25" y="20.5" width="1" height="4" fill="white"/>
<path fill-rule="evenodd" clip-rule="evenodd" d="M20.1426 22.5H19C19 23.3284 20.567 24 22.5 24C24.433 24 26 23.3284 26 22.5H24.8574C24.7879 22.5433 24.6971 22.5918 24.581 22.6415C24.0994 22.8479 23.3643 23 22.5 23C21.6357 23 20.9006 22.8479 20.419 22.6415C20.3029 22.5918 20.2121 22.5433 20.1426 22.5Z" fill="white"/>
<path fill-rule="evenodd" clip-rule="evenodd" d="M20.1426 24.5H19C19 25.3284 20.567 26 22.5 26C24.433 26 26 25.3284 26 24.5H24.8574C24.7879 24.5433 24.6971 24.5918 24.581 24.6415C24.0994 24.8479 23.3643 25 22.5 25C21.6357 25 20.9006 24.8479 20.419 24.6415C20.3029 24.5918 20.2121 24.5433 20.1426 24.5Z" fill="white"/>
<path fill-rule="evenodd" clip-rule="evenodd" d="M8 16C8 11.5817 11.5817 8 16 8C20.4183 8 24 11.5817 24 16C24 17.0609 23.7935 18.0736 23.4185 19H22.3264C22.7583 18.0907 23 17.0736 23 16C22.9971 13.6659 21.831 11.4868 19.8906 10.1895C19.9547 10.4552 19.9913 10.7268 20 11C19.9714 12.3999 19.2128 13.683 18 14.3828V15.293L18.8535 16.1465L19.207 16.5L18 17.707V18.293L18.8535 19.1465L19 19.293V19.707L18 20.707L17.707 21L16 22.707L14 20.707V14.3828C12.7872 13.683 12.0286 12.3999 12 11C12.0177 10.7325 12.0622 10.4675 12.1328 10.209C10.1892 11.4971 9.01461 13.6684 9 16C9 19.866 12.134 23 16 23C17.0736 23 18.0907 22.7583 19 22.3264V23.4185C18.0736 23.7935 17.0609 24 16 24C11.5817 24 8 20.4183 8 16ZM17.7891 9.24219C17.2057 9.08457 16.6043 9.0032 16 9C15.3873 9.01546 14.7792 9.11133 14.1914 9.28516C14.0837 9.50946 14.0188 9.75189 14 10C14 11.1046 14.8954 12 16 12C17.1046 12 18 11.1046 18 10C17.9805 9.73592 17.9088 9.47834 17.7891 9.24219ZM16 15H15V20H16V15Z" fill="white"/>
<defs>
<linearGradient id="paint0_linear" x1="20" y1="9" x2="27" y2="16" gradientUnits="userSpaceOnUse">
<stop stop-color="#060606"/>
<stop offset="1" stop-opacity="0"/>
</linearGradient>
<linearGradient id="paint1_linear" x1="-75" y1="29" x2="-75" y2="2" gradientUnits="userSpaceOnUse">
<stop stop-color="white" stop-opacity="0"/>
<stop offset="1" stop-color="white" stop-opacity="0.2"/>
</linearGradient>
</defs>
</svg>
