<?xml version="1.0" encoding="UTF-8" standalone="no"?>
<!-- Created with Inkscape (http://www.inkscape.org/) -->

<svg
   xmlns:dc="http://purl.org/dc/elements/1.1/"
   xmlns:cc="http://creativecommons.org/ns#"
   xmlns:rdf="http://www.w3.org/1999/02/22-rdf-syntax-ns#"
   xmlns:svg="http://www.w3.org/2000/svg"
   xmlns="http://www.w3.org/2000/svg"
   xmlns:xlink="http://www.w3.org/1999/xlink"
   xmlns:sodipodi="http://sodipodi.sourceforge.net/DTD/sodipodi-0.dtd"
   xmlns:inkscape="http://www.inkscape.org/namespaces/inkscape"
   width="32"
   version="1.1"
   height="32"
   id="svg2"
   inkscape:version="0.91 r13725"
   sodipodi:docname="application-x-wmf.svg">
  <sodipodi:namedview
     pagecolor="#ffffff"
     bordercolor="#666666"
     borderopacity="1"
     objecttolerance="10"
     gridtolerance="10"
     guidetolerance="10"
     inkscape:pageopacity="0"
     inkscape:pageshadow="2"
     inkscape:window-width="1920"
     inkscape:window-height="1013"
     id="namedview26"
     showgrid="false"
     inkscape:zoom="7.375"
     inkscape:cx="29.288136"
     inkscape:cy="14.915254"
     inkscape:window-x="0"
     inkscape:window-y="0"
     inkscape:window-maximized="1"
     inkscape:current-layer="layer1" />
  <defs
     id="defs5455">
    <linearGradient
       inkscape:collect="always"
       id="linearGradient4300">
      <stop
         style="stop-color:#22a7f0"
         id="stop4302" />
      <stop
         offset="1"
         style="stop-color:#19b5fe"
         id="stop4304" />
    </linearGradient>
    <linearGradient
       inkscape:collect="always"
       xlink:href="#linearGradient4300"
       id="linearGradient4306-3-3"
       y1="61"
       y2="3"
       x2="0"
       gradientUnits="userSpaceOnUse"
       gradientTransform="matrix(0.63636277,0,0,0.48275841,380.2078,516.34983)" />
  </defs>
  <metadata
     id="metadata5458">
    <rdf:RDF>
      <cc:Work
         rdf:about="">
        <dc:format>image/svg+xml</dc:format>
        <dc:type
           rdf:resource="http://purl.org/dc/dcmitype/StillImage" />
      </cc:Work>
    </rdf:RDF>
  </metadata>
  <g
     inkscape:label="Capa 1"
     inkscape:groupmode="layer"
     id="layer1"
     transform="matrix(1 0 0 1 -384.57143 -515.798)">
    <rect
       width="0"
       x="415.89221"
       y="566.79797"
       height="10.999983"
       style="fill:#ffffff"
       id="rect4035" />
    <rect
       width="0"
       x="415.89221"
       y="566.79797"
       height="10.999983"
       style="fill:#ffffff"
       id="rect4035-36" />
    <rect
       width="0"
       x="415.57144"
       y="565.79797"
       height="10.999983"
       style="fill:#ffffff"
       id="rect4035-4" />
    <rect
       width="0"
       x="414.03558"
       y="565.68414"
       height="11.1139"
       style="fill:#fbd2bf"
       id="rect4035-3" />
    <rect
       width="0"
       x="415.57144"
       y="565.79797"
       height="10.999983"
       style="fill:#fbd2bf"
       id="rect4035-1" />
    <rect
       width="0"
       x="415.57144"
       y="565.79797"
       height="10.999983"
       style="fill:#fbfbfb"
       id="rect4035-5" />
    <rect
       width="0"
       x="415.57144"
       y="565.79797"
       height="10.999983"
       style="fill:#fffcf9"
       id="rect4035-8" />
    <rect
       width="0"
       x="415.89221"
       y="526.79797"
       height="10.999983"
       style="fill:#ffffff"
       id="rect4035-6" />
    <rect
       width="0"
       x="415.57144"
       y="525.79797"
       height="10.999983"
       style="fill:#ffffff"
       id="rect4035-4-2" />
    <rect
       width="0"
       x="414.03558"
       y="525.68414"
       height="11.1139"
       style="fill:#fbd2bf"
       id="rect4035-3-9" />
    <rect
       width="0"
       x="415.57144"
       y="525.79797"
       height="10.999983"
       style="fill:#fbd2bf"
       id="rect4035-1-1" />
    <rect
       width="0"
       x="415.57144"
       y="525.79797"
       height="10.999983"
       style="fill:#fbfbfb"
       id="rect4035-5-2" />
    <rect
       width="0"
       x="415.57144"
       y="525.79797"
       height="10.999983"
       style="fill:#fffcf9"
       id="rect4035-8-7" />
    <rect
       width="0"
       x="415.57144"
       y="525.79797"
       height="10.999983"
       style="fill:#e8d9eb"
       id="rect4035-44" />
    <rect
       width="0"
       x="375.57144"
       y="565.79797"
       height="10.999983"
       style="fill:#036b53"
       id="rect4035-35" />
    <rect
       width="0"
       x="375.89221"
       y="566.79797"
       height="10.999983"
       style="fill:#ffffff"
       id="rect4035-67" />
    <rect
       width="0"
       x="375.57144"
       y="565.79797"
       height="10.999983"
       style="fill:#ffffff"
       id="rect4035-4-6" />
    <rect
       width="0"
       x="374.03558"
       y="565.68414"
       height="11.1139"
       style="fill:#fbd2bf"
       id="rect4035-3-2" />
    <rect
       width="0"
       x="375.57144"
       y="565.79797"
       height="10.999983"
       style="fill:#fbd2bf"
       id="rect4035-1-9" />
    <rect
       width="0"
       x="375.57144"
       y="565.79797"
       height="10.999983"
       style="fill:#fbfbfb"
       id="rect4035-5-12" />
    <rect
       width="0"
       x="375.57144"
       y="565.79797"
       height="10.999983"
       style="fill:#fffcf9"
       id="rect4035-8-70" />
    <path
       inkscape:connector-curvature="0"
       style="fill:url(#linearGradient4306-3-3);fill-opacity:1.0"
       id="rect3500-5-9"
       d="m 386.57143,517.7981 0,27.99999 19.09088,0 8.90912,0 -4e-5,-21.24137 0,-6.75862 -8.90908,0 z"
       sodipodi:nodetypes="cccccccc" />
    <rect
       width="0"
       x="375.89221"
       y="526.79797"
       height="10.999983"
       style="fill:#ffffff"
       id="rect4035-6-3" />
    <rect
       width="0"
       x="375.57144"
       y="525.79797"
       height="10.999983"
       style="fill:#ffffff"
       id="rect4035-4-2-6" />
    <rect
       width="0"
       x="374.03558"
       y="525.68414"
       height="11.1139"
       style="fill:#fbd2bf"
       id="rect4035-3-9-0" />
    <rect
       width="0"
       x="375.57144"
       y="525.79797"
       height="10.999983"
       style="fill:#fbd2bf"
       id="rect4035-1-1-6" />
    <rect
       width="0"
       x="375.57144"
       y="525.79797"
       height="10.999983"
       style="fill:#fbfbfb"
       id="rect4035-5-2-2" />
    <rect
       width="0"
       x="375.57144"
       y="525.79797"
       height="10.999983"
       style="fill:#fffcf9"
       id="rect4035-8-7-6" />
    <rect
       width="0"
       x="375.57144"
       y="525.79797"
       height="10.999983"
       style="fill:#e8d9eb"
       id="rect4035-44-1" />
    <path
       inkscape:connector-curvature="0"
       style="fill:#ffffff;fill-opacity:0.41176471"
       d="m 394.57143,517.79803 0,8 -8,0 0,1 8,0 0,10 -8,0 0,1 8,0 0,8 1,0 0,-8 10,0 0,8 1,0 0,-8 8,0 0,-1 -8,0 0,-10 8,0 0,-1 -8,0 0,-8 -1,0 0,8 -10,0 0,-8 -1,0 z m 1,9 10,0 0,10 -10,0 0,-10 z"
       id="rect4169-3-3" />
    <path
       inkscape:connector-curvature="0"
       style="color:#000000;color-interpolation:sRGB;color-interpolation-filters:linearRGB;fill:#ffffff;fill-opacity:1;color-rendering:auto;image-rendering:auto;shape-rendering:auto;text-rendering:auto"
       id="rect4139-9"
       d="m 396.57141,525.79803 c -1.108,0 -2,0.892 -2,2 0,1.108 0.892,2 2,2 0.503,0 0.95592,-0.18973 1.30664,-0.49414 0.43078,0.73415 0.69336,1.57738 0.69336,2.49414 0,0.91676 -0.26258,1.75999 -0.69336,2.49414 -0.35072,-0.30442 -0.80364,-0.49414 -1.30664,-0.49414 -1.108,0 -2,0.892 -2,2 0,1.108 0.892,2 2,2 0.74107,0 1.37905,-0.4042 1.72461,-1 l 5.27539,0 0,1 3,0 0,-3 -3,0 0,1 -5,0 c 0,-0.19695 -0.0373,-0.383 -0.0898,-0.5625 0.68341,-0.97209 1.08984,-2.15337 1.08984,-3.4375 0,-1.2799 -0.41662,-2.44727 -1.0957,-3.41797 0.0563,-0.18526 0.0957,-0.37788 0.0957,-0.58203 l 4,0 0,2 4,0 0,-4 -4,0 0,1 -4.27539,0 c -0.34556,-0.5958 -0.98354,-1 -1.72461,-1 z m 0,1 c 0.554,0 1,0.446 1,1 0,0.554 -0.446,1 -1,1 -0.554,0 -1,-0.446 -1,-1 0,-0.554 0.446,-1 1,-1 z m 7,0 2,0 0,2 -2,0 0,-2 z m -7,8 c 0.554,0 1,0.446 1,1 0,0.554 -0.446,1 -1,1 -0.554,0 -1,-0.446 -1,-1 0,-0.554 0.446,-1 1,-1 z m 8,1 1,0 0,1 -1,0 0,-1 z" />
    <rect
       width="27.999992"
       x="386.57144"
       y="517.79797"
       height="1.00003"
       style="fill:#ffffff;fill-opacity:0.41176501"
       id="rect4236-5-8" />
    <rect
       width="27.999979"
       x="386.57144"
       y="544.79797"
       height="0.999973"
       style="fill:#2e3132;fill-opacity:0.29411801"
       id="rect4169-3-7" />
    <rect
       width="0"
       x="335.89221"
       y="526.79797"
       height="10.999983"
       style="fill:#ffffff"
       id="rect4035-62" />
    <rect
       width="0"
       x="335.57144"
       y="525.79797"
       height="10.999983"
       style="fill:#ffffff"
       id="rect4035-4-9" />
    <rect
       width="0"
       x="334.03558"
       y="525.68414"
       height="11.1139"
       style="fill:#fbd2bf"
       id="rect4035-3-1" />
    <rect
       width="0"
       x="335.57144"
       y="525.79797"
       height="10.999983"
       style="fill:#fbd2bf"
       id="rect4035-1-2" />
    <rect
       width="0"
       x="335.57144"
       y="525.79797"
       height="10.999983"
       style="fill:#fbfbfb"
       id="rect4035-5-7" />
    <rect
       width="0"
       x="335.57144"
       y="525.79797"
       height="10.999983"
       style="fill:#fffcf9"
       id="rect4035-8-0" />
    <rect
       width="0"
       x="335.57144"
       y="525.79797"
       height="10.999983"
       style="fill:#e8d9eb"
       id="rect4035-44-9" />
    <rect
       width="0"
       x="335.57144"
       y="525.79797"
       height="10.999983"
       style="fill:#e8d9eb"
       id="rect4035-7" />
    <rect
       width="0"
       x="336.84137"
       y="526.79797"
       height="10.999983"
       style="fill:#ffffff"
       id="rect4035-36-9" />
    <rect
       width="0"
       x="336.5206"
       y="525.79797"
       height="10.999983"
       style="fill:#ffffff"
       id="rect4035-4-0" />
    <rect
       width="0"
       x="334.98474"
       y="525.68414"
       height="11.1139"
       style="fill:#fbd2bf"
       id="rect4035-3-6" />
    <rect
       width="0"
       x="336.5206"
       y="525.79797"
       height="10.999983"
       style="fill:#fbd2bf"
       id="rect4035-1-26" />
    <rect
       width="0"
       x="336.5206"
       y="525.79797"
       height="10.999983"
       style="fill:#fbfbfb"
       id="rect4035-5-1" />
    <rect
       width="0"
       x="336.5206"
       y="525.79797"
       height="10.999983"
       style="fill:#fffcf9"
       id="rect4035-8-8" />
    <rect
       width="0"
       x="336.5206"
       y="525.79797"
       height="10.999983"
       style="fill:#e8d9eb"
       id="rect4035-44-7" />
    <rect
       width="0"
       x="336.5206"
       y="525.79797"
       height="10.999983"
       style="fill:#e8d9eb"
       id="rect4035-7-9" />
  </g>
</svg>
