<?xml version="1.0" encoding="UTF-8"?>
<svg width="32" height="32" version="1.1" xmlns="http://www.w3.org/2000/svg">
 <defs>
  <linearGradient id="a" x2="0" y1="61" y2="3" gradientTransform="matrix(.5 0 0-.48276 384.57 547.25)" gradientUnits="userSpaceOnUse">
   <stop stop-color="#d91e18" offset="0"/>
   <stop stop-color="#cf000f" offset="1"/>
  </linearGradient>
  <linearGradient id="b" x2="0" y1="518.04" y2="524.8" gradientUnits="userSpaceOnUse">
   <stop stop-color="#fcbcbe" offset="0"/>
   <stop stop-color="#fb7d80" offset="1"/>
  </linearGradient>
  <linearGradient id="c" x1="404.57" x2="411.57" y1="524.8" y2="531.8" gradientUnits="userSpaceOnUse">
   <stop stop-color="#383e51" offset="0"/>
   <stop stop-color="#655c6f" stop-opacity="0" offset="1"/>
  </linearGradient>
 </defs>
 <g transform="translate(-384.57,-515.8)">
  <path d="m389.57 545.8v-28h15l7 7v21h-7z" fill="url(#a)"/>
  <g transform="scale(1,-1)">
   <rect x="389.57" y="-518.8" width="15" height="1" fill="#fff" fill-opacity=".412"/>
   <rect x="389.57" y="-545.8" width="22" height="1" fill="#2e3132" fill-opacity=".294"/>
  </g>
  <g fill-rule="evenodd">
   <path d="m411.57 524.8-7-7v7z" fill="url(#b)"/>
   <path d="m411.57 531.8-7-7h7z" fill="url(#c)" opacity=".2"/>
  </g>
  <path class="ColorScheme-Text" d="m400.64 526.65s-1.5 1.9936-6 2.4936c0 0 0 7 6 9.5064 6-2.5064 6-9.5064 6-9.5064-4.5-0.50003-6-2.4936-6-2.4936zm0 3.5c0.82843 0 1.5 0.67155 1.5 1.5 0 0.6213-0.3835 1.1473-0.92188 1.375l0.42188 2.125h-2l0.42188-2.125c-0.53838-0.2277-0.92188-0.75368-0.92188-1.375 0-0.82845 0.67157-1.5 1.5-1.5z" color="#232629" fill="#fcbcbe"/>
 </g>
</svg>
