<?xml version="1.0" encoding="UTF-8" standalone="no"?>
<svg xmlns="http://www.w3.org/2000/svg" xmlns:xlink="http://www.w3.org/1999/xlink" xmlns:sodipodi="http://sodipodi.sourceforge.net/DTD/sodipodi-0.dtd" xmlns:inkscape="http://www.inkscape.org/namespaces/inkscape" width="32" version="1.1" height="32">
 <defs id="defs5455">
  <linearGradient id="linearGradient4300-2">
   <stop id="stop4302-4" stop-color="#913d88"/>
   <stop offset="1" id="stop4304-1" stop-color="#9b4792"/>
  </linearGradient>
  <linearGradient y2="24" x2="54" y1="17" x1="47" gradientTransform="translate(357.57143,507.798)" gradientUnits="userSpaceOnUse" id="linearGradient4257" xlink:href="#linearGradient9654" inkscape:collect="always"/>
  <linearGradient id="linearGradient9654" inkscape:collect="always">
   <stop id="stop9656" stop-color="#060606"/>
   <stop id="stop9658" offset="1" stop-opacity="0"/>
  </linearGradient>
  <linearGradient y2="365.36221" x2="0" y1="392.36221" gradientTransform="translate(309.57143,152.4358)" gradientUnits="userSpaceOnUse" id="linearGradient4178" xlink:href="#linearGradient6251" inkscape:collect="always"/>
  <linearGradient inkscape:collect="always" id="linearGradient6251">
   <stop id="stop6253" stop-color="#ffffff" stop-opacity="0"/>
   <stop offset="1" id="stop6255" stop-color="#ffffff" stop-opacity="0.2"/>
  </linearGradient>
 </defs>
 <g inkscape:label="Capa 1" inkscape:groupmode="layer" id="layer1" transform="matrix(1 0 0 1 -384.57143 -515.798)">
  <path sodipodi:nodetypes="cccccccc" inkscape:export-ydpi="96" inkscape:export-xdpi="96" inkscape:connector-curvature="0" id="path4211" d="m 389.57143,545.798 0,-28 15,0 7.00001,7 0,0 0,21 -14.00001,0 z" mix-blend-mode="normal" solid-color="#000000" color-interpolation-filters="linearRGB" color="#000000" image-rendering="auto" color-rendering="auto" isolation="auto" color-interpolation="sRGB" solid-opacity="1" fill="#ff8b23" shape-rendering="auto"/>
  <rect width="14.999983" x="389.57144" y="-518.79797" height="0.999973" id="rect4169-9-9" transform="scale(1,-1)" mix-blend-mode="normal" solid-color="#000000" opacity="0.5" color-interpolation-filters="linearRGB" color="#000000" image-rendering="auto" color-rendering="auto" isolation="auto" color-interpolation="sRGB" solid-opacity="1" fill="#ffffff" shape-rendering="auto"/>
  <rect width="21.999994" x="389.57144" y="-545.79797" height="1.00003" id="rect4236-1-3" transform="scale(1,-1)" mix-blend-mode="normal" solid-color="#000000" opacity="0.25" color-interpolation-filters="linearRGB" color="#000000" image-rendering="auto" color-rendering="auto" isolation="auto" color-interpolation="sRGB" solid-opacity="1" shape-rendering="auto"/>
  <path inkscape:connector-curvature="0" id="path4314-2-6" d="m 411.57144,524.79797 -7.00001,-7 0,7 z" mix-blend-mode="normal" solid-color="#000000" opacity="0.6" color-interpolation-filters="linearRGB" color="#000000" image-rendering="auto" color-rendering="auto" fill-rule="evenodd" isolation="auto" color-interpolation="sRGB" solid-opacity="1" shape-rendering="auto"/>
  <path inkscape:export-ydpi="96" inkscape:export-xdpi="96" inkscape:connector-curvature="0" id="path4255" d="m 404.57143,524.798 7.00001,7 0,-7 z" sodipodi:nodetypes="cccc" opacity="0.1" fill="url(#linearGradient4257)" fill-rule="evenodd"/>
  <path inkscape:connector-curvature="0" id="rect4166" d="m 399.57143,526.798 0,3 1,0 0,-3 -1,0 z m -2,1 0,2 1,0 0,-2 -1,0 z m 4,0 0,2 1,0 0,-2 -1,0 z m -6,1 0,1 1,0 0,-1 -1,0 z m -1,2 0,4 c 0,1.8131 1.0056,3 3,3 l -2,0 0,1 8,0 0,-1 -2,0 c 1.57239,0 2.50725,-0.7275 3,-2 l 1,0 c 1,0 1,-0.003 1,-1.09375 l 0,-1.09375 c 0,-1.8182 0,-1.8125 -1,-1.8125 l -1,0 0,-1 -10,0 z m 1,1 8,0 0,0.46875 0,0.53125 0,2 c 0,1.5109 -1.338,2 -3,2 l -2,0 c -1.662,0 -3,-0.4891 -3,-2 l 0,-3 z m 9,1 0.5,0 0.5,0 0,1 0,1 -1,0 0,-2 z" opacity="0.7"/>
  <path d="m 389.57143,545.798 0,-28 15,0 7.00001,7 0,0 0,21 -14.00001,0 z" id="path7628-2" inkscape:connector-curvature="0" inkscape:export-xdpi="96" inkscape:export-ydpi="96" sodipodi:nodetypes="cccccccc" fill="url(#linearGradient4178)"/>
 </g>
</svg>
