<?xml version="1.0" encoding="UTF-8" standalone="no"?>
<!-- Created with Inkscape (http://www.inkscape.org/) -->

<svg
   xmlns:dc="http://purl.org/dc/elements/1.1/"
   xmlns:cc="http://creativecommons.org/ns#"
   xmlns:rdf="http://www.w3.org/1999/02/22-rdf-syntax-ns#"
   xmlns:svg="http://www.w3.org/2000/svg"
   xmlns="http://www.w3.org/2000/svg"
   xmlns:xlink="http://www.w3.org/1999/xlink"
   xmlns:sodipodi="http://sodipodi.sourceforge.net/DTD/sodipodi-0.dtd"
   xmlns:inkscape="http://www.inkscape.org/namespaces/inkscape"
   width="32"
   version="1.1"
   height="32"
   id="svg2"
   inkscape:version="0.91 r13725"
   sodipodi:docname="application-vnd.oasis.opendocument.formula.svg">
  <sodipodi:namedview
     pagecolor="#ffffff"
     bordercolor="#666666"
     borderopacity="1"
     objecttolerance="10"
     gridtolerance="10"
     guidetolerance="10"
     inkscape:pageopacity="0"
     inkscape:pageshadow="2"
     inkscape:window-width="1920"
     inkscape:window-height="1025"
     id="namedview34"
     showgrid="false"
     inkscape:zoom="7.375"
     inkscape:cx="-22.508475"
     inkscape:cy="13.830508"
     inkscape:window-x="0"
     inkscape:window-y="26"
     inkscape:window-maximized="1"
     inkscape:current-layer="layer1" />
  <defs
     id="defs5455">
    <linearGradient
       inkscape:collect="always"
       xlink:href="#linearGradient9654"
       id="linearGradient4257"
       gradientUnits="userSpaceOnUse"
       gradientTransform="translate(357.57143,507.79803)"
       x1="47"
       y1="17"
       x2="54"
       y2="24" />
    <linearGradient
       inkscape:collect="always"
       id="linearGradient9654">
      <stop
         style="stop-color:#060606;stop-opacity:1"
         offset="0"
         id="stop9656" />
      <stop
         style="stop-color:#000000;stop-opacity:0"
         offset="1"
         id="stop9658" />
    </linearGradient>
    <linearGradient
       inkscape:collect="always"
       xlink:href="#linearGradient6251"
       id="linearGradient4178"
       gradientUnits="userSpaceOnUse"
       gradientTransform="translate(309.57143,152.43583)"
       x1="58"
       y1="392.36221"
       x2="58"
       y2="365.36221" />
    <linearGradient
       inkscape:collect="always"
       id="linearGradient6251">
      <stop
         style="stop-color:#ffffff;stop-opacity:0"
         offset="0"
         id="stop6253" />
      <stop
         style="stop-color:#ffffff;stop-opacity:0.2"
         offset="1"
         id="stop6255" />
    </linearGradient>
  </defs>
  <metadata
     id="metadata5458">
    <rdf:RDF>
      <cc:Work
         rdf:about="">
        <dc:format>image/svg+xml</dc:format>
        <dc:type
           rdf:resource="http://purl.org/dc/dcmitype/StillImage" />
      </cc:Work>
    </rdf:RDF>
  </metadata>
  <g
     inkscape:label="Capa 1"
     inkscape:groupmode="layer"
     id="layer1"
     transform="matrix(1 0 0 1 -384.57143 -515.798)">
    <rect
       width="0"
       x="415.89221"
       y="526.79797"
       height="10.999983"
       style="fill:#ffffff"
       id="rect4035" />
    <rect
       width="0"
       x="415.57144"
       y="525.79797"
       height="10.999983"
       style="fill:#ffffff"
       id="rect4035-4" />
    <rect
       width="0"
       x="414.03558"
       y="525.68414"
       height="11.1139"
       style="fill:#fbd2bf"
       id="rect4035-3" />
    <rect
       width="0"
       x="415.57144"
       y="525.79797"
       height="10.999983"
       style="fill:#fbd2bf"
       id="rect4035-1" />
    <rect
       width="0"
       x="335.89221"
       y="526.79797"
       height="10.999983"
       style="fill:#ffffff"
       id="rect4035-7" />
    <rect
       width="0"
       x="335.57144"
       y="525.79797"
       height="10.999983"
       style="fill:#ffffff"
       id="rect4035-4-5" />
    <rect
       width="0"
       x="334.03558"
       y="525.68414"
       height="11.1139"
       style="fill:#fbd2bf"
       id="rect4035-3-3" />
    <rect
       width="0"
       x="335.57144"
       y="525.79797"
       height="10.999983"
       style="fill:#fbd2bf"
       id="rect4035-1-5" />
    <rect
       width="0"
       x="375.89221"
       y="-536.79797"
       height="10.999983"
       style="fill:#ffffff"
       id="rect4035-5"
       transform="scale(1,-1)" />
    <rect
       width="0"
       x="375.57144"
       y="-537.79797"
       height="10.999983"
       style="fill:#ffffff"
       id="rect4035-4-6"
       transform="scale(1,-1)" />
    <rect
       width="0"
       x="374.03558"
       y="-537.9118"
       height="11.1139"
       style="fill:#fbd2bf"
       id="rect4035-3-2"
       transform="scale(1,-1)" />
    <rect
       width="0"
       x="375.57144"
       y="-537.79797"
       height="10.999983"
       style="fill:#fbd2bf"
       id="rect4035-1-9"
       transform="scale(1,-1)" />
    <rect
       width="0"
       x="225.8186"
       y="520.90253"
       height="20.166639"
       style="fill:#5e6b78"
       id="rect4035-6" />
    <rect
       width="0"
       x="417.29352"
       y="522.06915"
       height="21.99995"
       style="fill:#ffffff"
       id="rect4035-75" />
    <rect
       width="0"
       x="416.65198"
       y="520.06915"
       height="21.99995"
       style="fill:#ffffff"
       id="rect4035-4-7" />
    <rect
       width="0"
       x="413.58023"
       y="519.84149"
       height="22.227785"
       style="fill:#fbd2bf"
       id="rect4035-3-5" />
    <rect
       width="0"
       x="416.65198"
       y="520.06915"
       height="21.99995"
       style="fill:#fbd2bf"
       id="rect4035-1-3" />
    <rect
       width="0"
       x="456.65195"
       y="520.06915"
       height="21.99995"
       style="fill:#fbfbfb"
       id="rect4035-2" />
    <rect
       width="0"
       x="416.65198"
       y="520.06915"
       height="21.99995"
       style="fill:#fbfbfb"
       id="rect4035-8" />
    <rect
       width="0"
       x="257.29358"
       y="522.06915"
       height="21.99995"
       style="fill:#ffffff"
       id="rect4035-7-5" />
    <rect
       width="0"
       x="256.65204"
       y="520.06915"
       height="21.99995"
       style="fill:#ffffff"
       id="rect4035-4-5-6" />
    <rect
       width="0"
       x="253.58032"
       y="519.84149"
       height="22.227785"
       style="fill:#fbd2bf"
       id="rect4035-3-3-2" />
    <rect
       width="0"
       x="256.65204"
       y="520.06915"
       height="21.99995"
       style="fill:#fbd2bf"
       id="rect4035-1-5-9" />
    <rect
       width="0"
       x="337.29352"
       y="-542.06915"
       height="21.99995"
       style="fill:#ffffff"
       id="rect4035-5-1"
       transform="scale(1,-1)" />
    <rect
       width="0"
       x="336.65198"
       y="-544.06915"
       height="21.99995"
       style="fill:#ffffff"
       id="rect4035-4-6-2"
       transform="scale(1,-1)" />
    <rect
       width="0"
       x="333.58029"
       y="-544.29681"
       height="22.227785"
       style="fill:#fbd2bf"
       id="rect4035-3-2-7"
       transform="scale(1,-1)" />
    <rect
       width="0"
       x="336.65198"
       y="-544.06915"
       height="21.99995"
       style="fill:#fbd2bf"
       id="rect4035-1-9-0"
       transform="scale(1,-1)" />
    <rect
       width="0"
       x="415.8923"
       y="526.79803"
       height="10.999983"
       style="fill:#ffffff"
       id="rect4035-75-8" />
    <rect
       width="0"
       x="415.57153"
       y="525.79803"
       height="10.999983"
       style="fill:#ffffff"
       id="rect4035-4-3" />
    <rect
       width="0"
       x="414.03568"
       y="525.6842"
       height="11.1139"
       style="fill:#fbd2bf"
       id="rect4035-3-56" />
    <rect
       width="0"
       x="415.57153"
       y="525.79803"
       height="10.999983"
       style="fill:#fbd2bf"
       id="rect4035-1-2" />
    <rect
       width="0"
       x="415.57153"
       y="525.79803"
       height="10.999983"
       style="fill:#fbfbfb"
       id="rect4035-5-9" />
    <rect
       width="0"
       x="415.8923"
       y="526.79803"
       height="10.999983"
       style="fill:#ffffff"
       id="rect4035-7-1" />
    <rect
       width="0"
       x="415.57153"
       y="525.79803"
       height="10.999983"
       style="fill:#ffffff"
       id="rect4035-4-53" />
    <rect
       width="0"
       x="414.03568"
       y="525.6842"
       height="11.1139"
       style="fill:#fbd2bf"
       id="rect4035-3-5-7" />
    <rect
       width="0"
       x="415.57153"
       y="525.79803"
       height="10.999983"
       style="fill:#fbd2bf"
       id="rect4035-1-6" />
    <rect
       width="0"
       x="415.57153"
       y="525.79803"
       height="10.999983"
       style="fill:#fbfbfb"
       id="rect4035-5-2" />
    <rect
       width="0"
       x="415.8923"
       y="526.79803"
       height="10.999983"
       style="fill:#ffffff"
       id="rect4035-53" />
    <rect
       width="0"
       x="415.57153"
       y="525.79803"
       height="10.999983"
       style="fill:#ffffff"
       id="rect4035-4-5-9" />
    <rect
       width="0"
       x="415.8923"
       y="526.79803"
       height="10.999983"
       style="fill:#ffffff"
       id="rect4035-6-2" />
    <rect
       width="0"
       x="415.57153"
       y="525.79803"
       height="10.999983"
       style="fill:#ffffff"
       id="rect4035-4-2" />
    <rect
       width="0"
       x="414.03568"
       y="525.6842"
       height="11.1139"
       style="fill:#fbd2bf"
       id="rect4035-3-9" />
    <rect
       width="0"
       x="415.57153"
       y="525.79803"
       height="10.999983"
       style="fill:#fbd2bf"
       id="rect4035-1-1" />
    <rect
       width="0"
       x="415.57153"
       y="525.79803"
       height="10.999983"
       style="fill:#fbfbfb"
       id="rect4035-5-27" />
    <rect
       width="0"
       x="415.57153"
       y="525.79803"
       height="10.999983"
       style="fill:#fffcf9"
       id="rect4035-8-0" />
    <rect
       width="0"
       x="415.57153"
       y="525.79803"
       height="10.999983"
       style="fill:#e8d9eb"
       id="rect4035-44" />
    <rect
       width="0"
       x="415.57153"
       y="525.79803"
       height="10.999983"
       style="fill:#e8d9eb"
       id="rect4035-7-0" />
    <rect
       width="0"
       x="415.8923"
       y="526.79803"
       height="10.999983"
       style="fill:#ffffff"
       id="rect4035-753" />
    <rect
       width="0"
       x="415.57153"
       y="525.79803"
       height="10.999983"
       style="fill:#ffffff"
       id="rect4035-4-56" />
    <rect
       width="0"
       x="414.03568"
       y="525.6842"
       height="11.1139"
       style="fill:#fbd2bf"
       id="rect4035-3-2-2" />
    <rect
       width="0"
       x="415.57153"
       y="525.79803"
       height="10.999983"
       style="fill:#fbd2bf"
       id="rect4035-1-9-37" />
    <rect
       width="0"
       x="415.57153"
       y="525.79803"
       height="10.999983"
       style="fill:#fbfbfb"
       id="rect4035-5-5" />
    <rect
       width="0"
       x="415.57153"
       y="525.79803"
       height="10.999983"
       style="fill:#fffcf9"
       id="rect4035-8-1" />
    <rect
       width="0"
       x="415.8923"
       y="526.79803"
       height="10.999983"
       style="fill:#ffffff"
       id="rect4035-92" />
    <rect
       width="0"
       x="415.57153"
       y="525.79803"
       height="10.999983"
       style="fill:#ffffff"
       id="rect4035-4-28" />
    <rect
       width="0"
       x="414.03568"
       y="525.6842"
       height="11.1139"
       style="fill:#fbd2bf"
       id="rect4035-3-97" />
    <rect
       width="0"
       x="415.57153"
       y="525.79803"
       height="10.999983"
       style="fill:#fbd2bf"
       id="rect4035-1-36" />
    <rect
       width="0"
       x="435.57153"
       y="525.79803"
       height="10.999983"
       style="fill:#fbfbfb"
       id="rect4035-2-1" />
    <rect
       width="0"
       x="415.57153"
       y="525.79803"
       height="10.999983"
       style="fill:#fbfbfb"
       id="rect4035-8-29" />
    <rect
       width="0"
       x="415.8923"
       y="526.79797"
       height="10.999983"
       style="fill:#ffffff"
       id="rect4035-75-2" />
    <rect
       width="0"
       x="415.57153"
       y="525.79797"
       height="10.999983"
       style="fill:#ffffff"
       id="rect4035-4-3-7" />
    <rect
       width="0"
       x="414.03568"
       y="525.68414"
       height="11.1139"
       style="fill:#fbd2bf"
       id="rect4035-3-56-0" />
    <rect
       width="0"
       x="415.57153"
       y="525.79797"
       height="10.999983"
       style="fill:#fbd2bf"
       id="rect4035-1-2-9" />
    <rect
       width="0"
       x="415.57153"
       y="525.79797"
       height="10.999983"
       style="fill:#fbfbfb"
       id="rect4035-5-9-3" />
    <rect
       width="0"
       x="415.8923"
       y="526.79797"
       height="10.999983"
       style="fill:#ffffff"
       id="rect4035-7-1-6" />
    <rect
       width="0"
       x="415.57153"
       y="525.79797"
       height="10.999983"
       style="fill:#ffffff"
       id="rect4035-4-53-0" />
    <rect
       width="0"
       x="414.03568"
       y="525.68414"
       height="11.1139"
       style="fill:#fbd2bf"
       id="rect4035-3-5-6" />
    <rect
       width="0"
       x="415.57153"
       y="525.79797"
       height="10.999983"
       style="fill:#fbd2bf"
       id="rect4035-1-6-2" />
    <rect
       width="0"
       x="415.57153"
       y="525.79797"
       height="10.999983"
       style="fill:#fbfbfb"
       id="rect4035-5-2-6" />
    <rect
       width="0"
       x="415.8923"
       y="526.79797"
       height="10.999983"
       style="fill:#ffffff"
       id="rect4035-53-1" />
    <rect
       width="0"
       x="415.57153"
       y="525.79797"
       height="10.999983"
       style="fill:#ffffff"
       id="rect4035-4-5-8" />
    <rect
       width="0"
       x="415.8923"
       y="526.79797"
       height="10.999983"
       style="fill:#ffffff"
       id="rect4035-6-7" />
    <rect
       width="0"
       x="415.57153"
       y="525.79797"
       height="10.999983"
       style="fill:#ffffff"
       id="rect4035-4-2-92" />
    <rect
       width="0"
       x="414.03568"
       y="525.68414"
       height="11.1139"
       style="fill:#fbd2bf"
       id="rect4035-3-9-0" />
    <rect
       width="0"
       x="415.57153"
       y="525.79797"
       height="10.999983"
       style="fill:#fbd2bf"
       id="rect4035-1-1-23" />
    <rect
       width="0"
       x="415.57153"
       y="525.79797"
       height="10.999983"
       style="fill:#fbfbfb"
       id="rect4035-5-27-7" />
    <rect
       width="0"
       x="415.57153"
       y="525.79797"
       height="10.999983"
       style="fill:#fffcf9"
       id="rect4035-8-0-5" />
    <rect
       width="0"
       x="415.57153"
       y="525.79797"
       height="10.999983"
       style="fill:#e8d9eb"
       id="rect4035-44-92" />
    <rect
       width="0"
       x="415.57153"
       y="525.79797"
       height="10.999983"
       style="fill:#e8d9eb"
       id="rect4035-7-2" />
    <rect
       width="0"
       x="415.8923"
       y="526.79797"
       height="10.999983"
       style="fill:#ffffff"
       id="rect4035-753-8" />
    <rect
       width="0"
       x="415.57153"
       y="525.79797"
       height="10.999983"
       style="fill:#ffffff"
       id="rect4035-4-56-9" />
    <rect
       width="0"
       x="414.03568"
       y="525.68414"
       height="11.1139"
       style="fill:#fbd2bf"
       id="rect4035-3-2-7-3" />
    <rect
       width="0"
       x="415.57153"
       y="525.79797"
       height="10.999983"
       style="fill:#fbd2bf"
       id="rect4035-1-9-3" />
    <rect
       width="0"
       x="415.57153"
       y="525.79797"
       height="10.999983"
       style="fill:#fbfbfb"
       id="rect4035-5-61" />
    <rect
       width="0"
       x="415.57153"
       y="525.79797"
       height="10.999983"
       style="fill:#fffcf9"
       id="rect4035-8-1-2" />
    <rect
       width="0"
       x="415.8923"
       y="526.79797"
       height="10.999983"
       style="fill:#ffffff"
       id="rect4035-9" />
    <rect
       width="0"
       x="415.57153"
       y="525.79797"
       height="10.999983"
       style="fill:#ffffff"
       id="rect4035-4-31" />
    <rect
       width="0"
       x="414.03568"
       y="525.68414"
       height="11.1139"
       style="fill:#fbd2bf"
       id="rect4035-3-94" />
    <rect
       width="0"
       x="415.57153"
       y="525.79797"
       height="10.999983"
       style="fill:#fbd2bf"
       id="rect4035-1-7" />
    <rect
       width="0"
       x="435.57153"
       y="525.79797"
       height="10.999983"
       style="fill:#fbfbfb"
       id="rect4035-2-8" />
    <rect
       width="0"
       x="415.57153"
       y="525.79797"
       height="10.999983"
       style="fill:#fbfbfb"
       id="rect4035-8-4" />
    <rect
       width="0"
       x="415.89026"
       y="526.79608"
       height="10.999983"
       style="fill:#ffffff"
       id="rect4035-75-1" />
    <rect
       width="0"
       x="415.56949"
       y="525.79608"
       height="10.999983"
       style="fill:#ffffff"
       id="rect4035-4-3-2" />
    <rect
       width="0"
       x="414.03363"
       y="525.68225"
       height="11.1139"
       style="fill:#fbd2bf"
       id="rect4035-3-56-7" />
    <rect
       width="0"
       x="415.56949"
       y="525.79608"
       height="10.999983"
       style="fill:#fbd2bf"
       id="rect4035-1-2-0" />
    <rect
       width="0"
       x="415.56949"
       y="525.79608"
       height="10.999983"
       style="fill:#fbfbfb"
       id="rect4035-5-9-9" />
    <rect
       width="0"
       x="415.89026"
       y="526.79608"
       height="10.999983"
       style="fill:#ffffff"
       id="rect4035-7-1-3" />
    <rect
       width="0"
       x="415.56949"
       y="525.79608"
       height="10.999983"
       style="fill:#ffffff"
       id="rect4035-4-53-6" />
    <rect
       width="0"
       x="414.03363"
       y="525.68225"
       height="11.1139"
       style="fill:#fbd2bf"
       id="rect4035-3-5-0" />
    <rect
       width="0"
       x="415.56949"
       y="525.79608"
       height="10.999983"
       style="fill:#fbd2bf"
       id="rect4035-1-6-6" />
    <rect
       width="0"
       x="415.56949"
       y="525.79608"
       height="10.999983"
       style="fill:#fbfbfb"
       id="rect4035-5-2-2" />
    <rect
       width="0"
       x="415.89026"
       y="526.79608"
       height="10.999983"
       style="fill:#ffffff"
       id="rect4035-53-6" />
    <rect
       width="0"
       x="415.56949"
       y="525.79608"
       height="10.999983"
       style="fill:#ffffff"
       id="rect4035-4-5-1" />
    <rect
       width="0"
       x="415.89026"
       y="526.79608"
       height="10.999983"
       style="fill:#ffffff"
       id="rect4035-6-87" />
    <rect
       width="0"
       x="415.56949"
       y="525.79608"
       height="10.999983"
       style="fill:#ffffff"
       id="rect4035-4-2-9" />
    <rect
       width="0"
       x="414.03363"
       y="525.68225"
       height="11.1139"
       style="fill:#fbd2bf"
       id="rect4035-3-9-2" />
    <rect
       width="0"
       x="415.56949"
       y="525.79608"
       height="10.999983"
       style="fill:#fbd2bf"
       id="rect4035-1-1-0" />
    <rect
       width="0"
       x="415.56949"
       y="525.79608"
       height="10.999983"
       style="fill:#fbfbfb"
       id="rect4035-5-27-2" />
    <rect
       width="0"
       x="415.56949"
       y="525.79608"
       height="10.999983"
       style="fill:#fffcf9"
       id="rect4035-8-0-3" />
    <rect
       width="0"
       x="415.56949"
       y="525.79608"
       height="10.999983"
       style="fill:#e8d9eb"
       id="rect4035-44-75" />
    <rect
       width="0"
       x="415.56949"
       y="525.79608"
       height="10.999983"
       style="fill:#e8d9eb"
       id="rect4035-7-92" />
    <rect
       width="0"
       x="415.89026"
       y="526.79608"
       height="10.999983"
       style="fill:#ffffff"
       id="rect4035-753-2" />
    <rect
       width="0"
       x="415.56949"
       y="525.79608"
       height="10.999983"
       style="fill:#ffffff"
       id="rect4035-4-56-8" />
    <rect
       width="0"
       x="414.03363"
       y="525.68225"
       height="11.1139"
       style="fill:#fbd2bf"
       id="rect4035-3-2-9" />
    <rect
       width="0"
       x="415.56949"
       y="525.79608"
       height="10.999983"
       style="fill:#fbd2bf"
       id="rect4035-1-9-7" />
    <rect
       width="0"
       x="415.56949"
       y="525.79608"
       height="10.999983"
       style="fill:#fbfbfb"
       id="rect4035-5-1-1" />
    <rect
       width="0"
       x="415.56949"
       y="525.79608"
       height="10.999983"
       style="fill:#fffcf9"
       id="rect4035-8-2" />
    <rect
       width="0"
       x="415.89026"
       y="526.79608"
       height="10.999983"
       style="fill:#ffffff"
       id="rect4035-361" />
    <rect
       width="0"
       x="415.56949"
       y="525.79608"
       height="10.999983"
       style="fill:#ffffff"
       id="rect4035-4-29" />
    <rect
       width="0"
       x="414.03363"
       y="525.68225"
       height="11.1139"
       style="fill:#fbd2bf"
       id="rect4035-3-3-9" />
    <rect
       width="0"
       x="415.56949"
       y="525.79608"
       height="10.999983"
       style="fill:#fbd2bf"
       id="rect4035-1-19" />
    <rect
       width="0"
       x="415.56949"
       y="525.79608"
       height="10.999983"
       style="fill:#fbfbfb"
       id="rect4035-5-4" />
    <rect
       width="0"
       x="415.56949"
       y="525.79608"
       height="10.999983"
       style="fill:#fffcf9"
       id="rect4035-8-78" />
    <rect
       width="0"
       x="405.57144"
       y="565.79803"
       height="10.999983"
       style="fill:#036b53"
       id="rect4035-70" />
    <rect
       width="0"
       x="405.89221"
       y="566.79803"
       height="10.999983"
       style="fill:#ffffff"
       id="rect4035-67" />
    <rect
       width="0"
       x="405.57144"
       y="565.79803"
       height="10.999983"
       style="fill:#ffffff"
       id="rect4035-4-93" />
    <rect
       width="0"
       x="404.03558"
       y="565.6842"
       height="11.1139"
       style="fill:#fbd2bf"
       id="rect4035-3-60" />
    <rect
       width="0"
       x="405.57144"
       y="565.79803"
       height="10.999983"
       style="fill:#fbd2bf"
       id="rect4035-1-62" />
    <rect
       width="0"
       x="405.57144"
       y="565.79803"
       height="10.999983"
       style="fill:#fbfbfb"
       id="rect4035-5-6" />
    <rect
       width="0"
       x="405.57144"
       y="565.79803"
       height="10.999983"
       style="fill:#fffcf9"
       id="rect4035-8-1-4" />
    <rect
       width="0"
       x="405.89221"
       y="526.79803"
       height="10.999983"
       style="fill:#ffffff"
       id="rect4035-6-8" />
    <rect
       width="0"
       x="405.57144"
       y="525.79803"
       height="10.999983"
       style="fill:#ffffff"
       id="rect4035-4-2-7" />
    <rect
       width="0"
       x="404.03558"
       y="525.6842"
       height="11.1139"
       style="fill:#fbd2bf"
       id="rect4035-3-9-9" />
    <rect
       width="0"
       x="405.57144"
       y="525.79803"
       height="10.999983"
       style="fill:#fbd2bf"
       id="rect4035-1-1-2" />
    <rect
       width="0"
       x="405.57144"
       y="525.79803"
       height="10.999983"
       style="fill:#fbfbfb"
       id="rect4035-5-2-0" />
    <rect
       width="0"
       x="405.57144"
       y="525.79803"
       height="10.999983"
       style="fill:#fffcf9"
       id="rect4035-8-7" />
    <rect
       width="0"
       x="405.57144"
       y="525.79803"
       height="10.999983"
       style="fill:#e8d9eb"
       id="rect4035-44-2" />
    <rect
       width="0"
       x="365.89221"
       y="526.79803"
       height="10.999983"
       style="fill:#ffffff"
       id="rect4035-62" />
    <rect
       width="0"
       x="365.57144"
       y="525.79803"
       height="10.999983"
       style="fill:#ffffff"
       id="rect4035-4-9" />
    <rect
       width="0"
       x="364.03558"
       y="525.6842"
       height="11.1139"
       style="fill:#fbd2bf"
       id="rect4035-3-1" />
    <rect
       width="0"
       x="365.57144"
       y="525.79803"
       height="10.999983"
       style="fill:#fbd2bf"
       id="rect4035-1-2-3" />
    <rect
       width="0"
       x="365.57144"
       y="525.79803"
       height="10.999983"
       style="fill:#fbfbfb"
       id="rect4035-5-7" />
    <rect
       width="0"
       x="365.57144"
       y="525.79803"
       height="10.999983"
       style="fill:#fffcf9"
       id="rect4035-8-0-7" />
    <rect
       width="0"
       x="365.57144"
       y="525.79803"
       height="10.999983"
       style="fill:#e8d9eb"
       id="rect4035-44-9" />
    <rect
       width="0"
       x="365.57144"
       y="525.79803"
       height="10.999983"
       style="fill:#e8d9eb"
       id="rect4035-7-5-4" />
    <rect
       width="0"
       x="366.84137"
       y="526.79803"
       height="10.999983"
       style="fill:#ffffff"
       id="rect4035-36" />
    <rect
       width="0"
       x="366.5206"
       y="525.79803"
       height="10.999983"
       style="fill:#ffffff"
       id="rect4035-4-0" />
    <rect
       width="0"
       x="364.98474"
       y="525.6842"
       height="11.1139"
       style="fill:#fbd2bf"
       id="rect4035-3-6" />
    <rect
       width="0"
       x="366.5206"
       y="525.79803"
       height="10.999983"
       style="fill:#fbd2bf"
       id="rect4035-1-26" />
    <rect
       width="0"
       x="366.5206"
       y="525.79803"
       height="10.999983"
       style="fill:#fbfbfb"
       id="rect4035-5-1-9" />
    <rect
       width="0"
       x="366.5206"
       y="525.79803"
       height="10.999983"
       style="fill:#fffcf9"
       id="rect4035-8-8" />
    <rect
       width="0"
       x="366.5206"
       y="525.79803"
       height="10.999983"
       style="fill:#e8d9eb"
       id="rect4035-44-7" />
    <rect
       width="0"
       x="366.5206"
       y="525.79803"
       height="10.999983"
       style="fill:#e8d9eb"
       id="rect4035-7-9" />
    <path
       sodipodi:nodetypes="cccccccc"
       inkscape:export-ydpi="96"
       inkscape:export-xdpi="96"
       inkscape:connector-curvature="0"
       style="color:#000000;clip-rule:nonzero;display:inline;overflow:visible;visibility:visible;opacity:1;isolation:auto;mix-blend-mode:normal;color-interpolation:sRGB;color-interpolation-filters:linearRGB;solid-color:#000000;solid-opacity:1;fill:#555555;fill-opacity:1;fill-rule:nonzero;stroke-width:1;stroke-linecap:butt;stroke-linejoin:miter;stroke-miterlimit:4;stroke-dasharray:none;stroke-dashoffset:0;stroke-opacity:1;color-rendering:auto;image-rendering:auto;shape-rendering:auto;text-rendering:auto;enable-background:accumulate"
       id="path4211"
       d="m 389.57143,545.79803 0,-28 15,0 7.00001,7 0,0 0,21 -14.00001,0 z" />
    <rect
       width="14.999983"
       x="389.57144"
       y="-518.79803"
       height="0.999973"
       style="color:#000000;clip-rule:nonzero;display:inline;overflow:visible;visibility:visible;opacity:0.5;isolation:auto;mix-blend-mode:normal;color-interpolation:sRGB;color-interpolation-filters:linearRGB;solid-color:#000000;solid-opacity:1;fill:#ffffff;fill-opacity:1;fill-rule:nonzero;stroke-width:1;stroke-linecap:butt;stroke-linejoin:miter;stroke-miterlimit:4;stroke-dasharray:none;stroke-dashoffset:0;stroke-opacity:1;color-rendering:auto;image-rendering:auto;shape-rendering:auto;text-rendering:auto;enable-background:accumulate"
       id="rect4169-9-2"
       transform="scale(1,-1)" />
    <rect
       width="21.999994"
       x="389.57144"
       y="-545.79803"
       height="1.00003"
       style="color:#000000;clip-rule:nonzero;display:inline;overflow:visible;visibility:visible;opacity:0.25;isolation:auto;mix-blend-mode:normal;color-interpolation:sRGB;color-interpolation-filters:linearRGB;solid-color:#000000;solid-opacity:1;fill:#000000;fill-opacity:1;fill-rule:nonzero;stroke-width:1;stroke-linecap:butt;stroke-linejoin:miter;stroke-miterlimit:4;stroke-dasharray:none;stroke-dashoffset:0;stroke-opacity:1;color-rendering:auto;image-rendering:auto;shape-rendering:auto;text-rendering:auto;enable-background:accumulate"
       id="rect4236-1-2"
       transform="scale(1,-1)" />
    <path
       inkscape:export-ydpi="96"
       inkscape:export-xdpi="96"
       inkscape:connector-curvature="0"
       style="opacity:0.2;fill:url(#linearGradient4257);fill-rule:evenodd"
       id="path4255"
       d="m 404.57143,524.79803 7.00001,7 0,-7 z"
       sodipodi:nodetypes="cccc" />
    <path
       inkscape:connector-curvature="0"
       style="color:#000000;clip-rule:nonzero;display:inline;overflow:visible;visibility:visible;opacity:1;isolation:auto;mix-blend-mode:normal;color-interpolation:sRGB;color-interpolation-filters:linearRGB;solid-color:#000000;solid-opacity:1;fill:#afafaf;fill-opacity:1;fill-rule:nonzero;stroke-width:1;stroke-linecap:butt;stroke-linejoin:miter;stroke-miterlimit:4;stroke-dasharray:none;stroke-dashoffset:0;stroke-opacity:1;color-rendering:auto;image-rendering:auto;shape-rendering:auto;text-rendering:auto;enable-background:accumulate"
       id="path4314-2-8"
       d="m 411.57144,524.798 -7.00001,-7 0,7 z" />
    <path
       id="path4694"
       d="m 406.40194,528.0792 -7,0.004 -2.441,6.691 -1.555,-2.695 -1,0 0,1 0.428,0 2.133,3.693 3.02,-7.693 6.42,0 z m -4,2 c -1.662,0 -3,1.338 -3,3 0,1.662 1.338,3 3,3 0.773,0 1.469,-0.298 2,-0.775 l 0,0.775 1,0 0,-6 -1,0 0,0.775 c -0.531,-0.477 -1.227,-0.775 -2,-0.775 m 0,1 c 1.108,0 2,0.892 2,2 0,1.108 -0.892,2 -2,2 -1.108,0 -2,-0.892 -2,-2 0,-1.108 0.892,-2 2,-2"
       inkscape:connector-curvature="0"
       style="color:#000000;clip-rule:nonzero;display:inline;overflow:visible;visibility:visible;opacity:0.75;isolation:auto;mix-blend-mode:normal;color-interpolation:sRGB;color-interpolation-filters:linearRGB;solid-color:#000000;solid-opacity:1;fill:#ffffff;fill-opacity:1;fill-rule:nonzero;stroke-width:1;stroke-linecap:butt;stroke-linejoin:miter;stroke-miterlimit:4;stroke-dasharray:none;stroke-dashoffset:0;stroke-opacity:1;color-rendering:auto;image-rendering:auto;shape-rendering:auto;text-rendering:auto;enable-background:accumulate"
       sodipodi:nodetypes="ccccccccccccssccccccccsssc" />
    <path
       d="m 389.57143,545.79803 0,-28 15,0 7.00001,7 0,0 0,21 -14.00001,0 z"
       id="path7628-2"
       style="fill:url(#linearGradient4178);fill-opacity:1"
       inkscape:connector-curvature="0"
       inkscape:export-xdpi="96"
       inkscape:export-ydpi="96"
       sodipodi:nodetypes="cccccccc" />
  </g>
</svg>
