<?xml version="1.0" encoding="UTF-8" standalone="no"?>
<!-- Created with Inkscape (http://www.inkscape.org/) -->

<svg
   xmlns:dc="http://purl.org/dc/elements/1.1/"
   xmlns:cc="http://creativecommons.org/ns#"
   xmlns:rdf="http://www.w3.org/1999/02/22-rdf-syntax-ns#"
   xmlns:svg="http://www.w3.org/2000/svg"
   xmlns="http://www.w3.org/2000/svg"
   xmlns:xlink="http://www.w3.org/1999/xlink"
   xmlns:sodipodi="http://sodipodi.sourceforge.net/DTD/sodipodi-0.dtd"
   xmlns:inkscape="http://www.inkscape.org/namespaces/inkscape"
   width="32"
   version="1.1"
   height="32"
   id="svg2"
   inkscape:version="0.91 r13725"
   sodipodi:docname="application-vnd.ms-powerpoint.addin.macroenabled.12.svg">
  <sodipodi:namedview
     pagecolor="#ffffff"
     bordercolor="#666666"
     borderopacity="1"
     objecttolerance="10"
     gridtolerance="10"
     guidetolerance="10"
     inkscape:pageopacity="0"
     inkscape:pageshadow="2"
     inkscape:window-width="1920"
     inkscape:window-height="1013"
     id="namedview27"
     showgrid="false"
     inkscape:zoom="12.849487"
     inkscape:cx="32.32607"
     inkscape:cy="8.2332078"
     inkscape:window-x="0"
     inkscape:window-y="38"
     inkscape:window-maximized="1"
     inkscape:current-layer="layer1" />
  <defs
     id="defs5455">
    <linearGradient
       inkscape:collect="always"
       id="linearGradient4410">
      <stop
         style="stop-color:#383e51"
         id="stop4412" />
      <stop
         offset="1"
         style="stop-color:#655c6f;stop-opacity:0"
         id="stop4414" />
    </linearGradient>
    <linearGradient
       inkscape:collect="always"
       id="linearGradient4351-4">
      <stop
         style="stop-color:#f7ab89"
         id="stop4353-8" />
      <stop
         offset="1"
         style="stop-color:#fbd2bf"
         id="stop4355-5" />
    </linearGradient>
    <linearGradient
       inkscape:collect="always"
       id="linearGradient4300-8">
      <stop
         style="stop-color:#f27935"
         id="stop4302-5" />
      <stop
         offset="1"
         style="stop-color:#f2784b"
         id="stop4304-7" />
    </linearGradient>
    <linearGradient
       inkscape:collect="always"
       xlink:href="#linearGradient4300-8"
       id="linearGradient4306-3"
       y1="61"
       y2="3"
       x2="0"
       gradientUnits="userSpaceOnUse"
       gradientTransform="matrix(0.49999977,0,0,-0.48275841,384.57144,547.24623)" />
    <linearGradient
       inkscape:collect="always"
       xlink:href="#linearGradient4351-4"
       id="linearGradient4357-7"
       y1="61"
       y2="47"
       x2="0"
       gradientUnits="userSpaceOnUse"
       gradientTransform="matrix(0.48275841,0,0,-0.48275841,385.26109,547.48761)" />
    <linearGradient
       inkscape:collect="always"
       xlink:href="#linearGradient4410"
       id="linearGradient4427-3"
       y1="31"
       x1="54"
       y2="16.500048"
       x2="39.500008"
       gradientUnits="userSpaceOnUse"
       gradientTransform="matrix(0,-0.48275841,-0.48275841,0,419.53694,550.86696)" />
  </defs>
  <metadata
     id="metadata5458">
    <rdf:RDF>
      <cc:Work
         rdf:about="">
        <dc:format>image/svg+xml</dc:format>
        <dc:type
           rdf:resource="http://purl.org/dc/dcmitype/StillImage" />
      </cc:Work>
    </rdf:RDF>
  </metadata>
  <g
     inkscape:label="Capa 1"
     inkscape:groupmode="layer"
     id="layer1"
     transform="matrix(1 0 0 1 -384.57143 -515.798)">
    <rect
       width="0"
       x="415.89221"
       y="526.79797"
       height="10.999983"
       style="fill:#ffffff"
       id="rect4035-75" />
    <rect
       width="0"
       x="415.57144"
       y="525.79797"
       height="10.999983"
       style="fill:#ffffff"
       id="rect4035-4-3" />
    <rect
       width="0"
       x="414.03558"
       y="525.68414"
       height="11.1139"
       style="fill:#fbd2bf"
       id="rect4035-3-56" />
    <rect
       width="0"
       x="415.57144"
       y="525.79797"
       height="10.999983"
       style="fill:#fbd2bf"
       id="rect4035-1-2" />
    <rect
       width="0"
       x="415.57144"
       y="525.79797"
       height="10.999983"
       style="fill:#fbfbfb"
       id="rect4035-5-9" />
    <rect
       width="0"
       x="415.89221"
       y="526.79797"
       height="10.999983"
       style="fill:#ffffff"
       id="rect4035-7-1" />
    <rect
       width="0"
       x="415.57144"
       y="525.79797"
       height="10.999983"
       style="fill:#ffffff"
       id="rect4035-4-53" />
    <rect
       width="0"
       x="414.03558"
       y="525.68414"
       height="11.1139"
       style="fill:#fbd2bf"
       id="rect4035-3-5" />
    <rect
       width="0"
       x="415.57144"
       y="525.79797"
       height="10.999983"
       style="fill:#fbd2bf"
       id="rect4035-1-6" />
    <rect
       width="0"
       x="415.57144"
       y="525.79797"
       height="10.999983"
       style="fill:#fbfbfb"
       id="rect4035-5-2" />
    <path
       inkscape:connector-curvature="0"
       style="fill:url(#linearGradient4306-3);fill-opacity:1.0"
       id="rect3500-2"
       d="m 389.57144,545.79796 0,-27.99999 14.99999,0 7.00003,7 -3e-5,14.24137 0,6.75862 -7,0 z" />
    <rect
       width="14.999983"
       x="389.57144"
       y="-518.79797"
       height="0.999973"
       style="fill:#ffffff;fill-opacity:0.41176471"
       id="rect4169-9"
       transform="scale(1,-1)" />
    <rect
       width="21.999994"
       x="389.57144"
       y="-545.79797"
       height="1.00003"
       style="fill:#2e3132;fill-opacity:0.29411765"
       id="rect4236-1"
       transform="scale(1,-1)" />
    <path
       inkscape:connector-curvature="0"
       style="fill:url(#linearGradient4357-7);fill-opacity:1.0;fill-rule:evenodd"
       id="path4314-2"
       d="m 411.57144,524.79797 -7.00001,-7 0,7 z" />
    <path
       inkscape:connector-curvature="0"
       style="opacity:0.2;fill:url(#linearGradient4427-3);fill-rule:evenodd"
       id="path4320-7"
       d="m 411.5714,531.798 -6.99997,-7 7,0 z" />
    <rect
       width="0"
       x="415.89221"
       y="526.79797"
       height="10.999983"
       style="fill:#ffffff"
       id="rect4035-53" />
    <rect
       width="0"
       x="415.57144"
       y="525.79797"
       height="10.999983"
       style="fill:#ffffff"
       id="rect4035-4-5" />
    <rect
       width="0"
       x="415.89221"
       y="526.79797"
       height="10.999983"
       style="fill:#ffffff"
       id="rect4035-6" />
    <rect
       width="0"
       x="415.57144"
       y="525.79797"
       height="10.999983"
       style="fill:#ffffff"
       id="rect4035-4-2" />
    <rect
       width="0"
       x="414.03558"
       y="525.68414"
       height="11.1139"
       style="fill:#fbd2bf"
       id="rect4035-3-9" />
    <rect
       width="0"
       x="415.57144"
       y="525.79797"
       height="10.999983"
       style="fill:#fbd2bf"
       id="rect4035-1-1" />
    <rect
       width="0"
       x="415.57144"
       y="525.79797"
       height="10.999983"
       style="fill:#fbfbfb"
       id="rect4035-5-27" />
    <rect
       width="0"
       x="415.57144"
       y="525.79797"
       height="10.999983"
       style="fill:#fffcf9"
       id="rect4035-8-0" />
    <rect
       width="0"
       x="415.57144"
       y="525.79797"
       height="10.999983"
       style="fill:#e8d9eb"
       id="rect4035-44" />
    <rect
       width="0"
       x="415.57144"
       y="525.79797"
       height="10.999983"
       style="fill:#e8d9eb"
       id="rect4035-7" />
    <rect
       width="0"
       x="415.89221"
       y="526.79797"
       height="10.999983"
       style="fill:#ffffff"
       id="rect4035-535" />
    <rect
       width="0"
       x="415.57144"
       y="525.79797"
       height="10.999983"
       style="fill:#ffffff"
       id="rect4035-4-6" />
    <rect
       width="0"
       x="414.03558"
       y="525.68414"
       height="11.1139"
       style="fill:#fbd2bf"
       id="rect4035-3" />
    <rect
       width="0"
       x="415.57144"
       y="525.79797"
       height="10.999983"
       style="fill:#fbd2bf"
       id="rect4035-1" />
    <rect
       width="0"
       x="415.57144"
       y="525.79797"
       height="10.999983"
       style="fill:#fbfbfb"
       id="rect4035-5" />
    <rect
       width="0"
       x="415.57144"
       y="525.79797"
       height="10.999983"
       style="fill:#fffcf9"
       id="rect4035-8" />
    <rect
       width="0"
       x="415.89221"
       y="526.79797"
       height="10.999983"
       style="fill:#ffffff"
       id="rect4035" />
    <rect
       width="0"
       x="415.57144"
       y="525.79797"
       height="10.999983"
       style="fill:#ffffff"
       id="rect4035-4" />
    <g
       transform="matrix(0.13632577,0,0,0.13953488,364.16866,527.798)"
       id="powerpoint">
      <path
         style="fill:#ffffff;fill-opacity:1"
         inkscape:connector-curvature="0"
         d="M 269.33,0 275,0 c 0,3 0,6 0,9 10.69,0.06 21.39,-0.11 32.07,0.05 2.3,-0.22 4.1,1.57 3.87,3.87 0.17,18.68 -0.04,37.37 0.1,56.06 -0.1,2.02 0.2,4.26 -0.96,6.05 -1.46,1.06 -3.36,0.92 -5.07,1 -10,-0.05 -20,-0.03 -30.01,-0.03 0,3.33 0,6.67 0,10 l -6.22,0 c -15.24,-2.78 -30.51,-5.32 -45.76,-8 -0.01,-23.33 0,-46.66 0,-69.98 C 238.45,5.35 253.88,2.63 269.33,0 Z"
         id="path29" />
      <path
         style="fill:#f2784a;fill-opacity:1"
         inkscape:connector-curvature="0"
         d="m 275,12 c 11,0 22,0 33,0 0,20.33 0,40.67 0,61 -11,0 -22,0 -33,0 0,-2.67 0,-5.33 0,-8 8,0 16,0 24,0 0,-1.33 0,-2.67 0,-4 -8,0 -16,0 -24,0 0,-1.67 0,-3.33 0,-5 8,0 16,0 24,0 0,-1.33 0,-2.67 0,-4 -8,0 -16,0 -23.99,0 -0.01,-1.96 -0.01,-3.92 -0.02,-5.88 3.96,1.23 8.47,1.2 12.01,-1.18 3.83,-2.27 5.83,-6.6 6.16,-10.92 C 288.77,33.99 284.38,34 280,34 c -0.01,-4.35 0.05,-8.7 -0.09,-13.04 -1.64,0.32 -3.28,0.66 -4.91,1.01 0,-3.32 0,-6.65 0,-9.97 z"
         id="path31" />
      <path
         style="fill:#ffffff;fill-opacity:1"
         inkscape:connector-curvature="0"
         d="m 282.01,18.87 c 6.95,0.32 12.79,6.17 13.16,13.1 -4.39,0.05 -8.78,0.03 -13.17,0.03 0,-4.38 -0.01,-8.76 0.01,-13.13 z"
         id="path33" />
      <path
         style="fill:#f2784a;fill-opacity:1"
         inkscape:connector-curvature="0"
         d="m 239.06,26.42 c 5.43,0.26 12.01,-2.15 16.51,1.92 4.31,5.23 3.17,14.85 -3.22,17.98 -2.27,1.16 -4.87,1 -7.34,0.92 -0.01,3.91 -0.02,7.82 -0.01,11.73 -1.98,-0.17 -3.97,-0.34 -5.95,-0.5 -0.09,-10.68 -0.11,-21.37 0.01,-32.05 z"
         id="path35" />
      <path
         style="fill:#ffffff;fill-opacity:1"
         inkscape:connector-curvature="0"
         d="m 245,31.83 c 1.97,-0.09 4.41,-0.45 5.74,1.4 1.14,1.96 1.08,4.54 0.13,6.56 -1.14,2.06 -3.72,1.86 -5.71,2.1 -0.21,-3.35 -0.19,-6.7 -0.16,-10.06 z"
         id="path37" />
    </g>
  </g>
</svg>
