<?xml version="1.0" encoding="UTF-8" standalone="no"?>
<!-- Created with Inkscape (http://www.inkscape.org/) -->

<svg
   xmlns:dc="http://purl.org/dc/elements/1.1/"
   xmlns:cc="http://creativecommons.org/ns#"
   xmlns:rdf="http://www.w3.org/1999/02/22-rdf-syntax-ns#"
   xmlns:svg="http://www.w3.org/2000/svg"
   xmlns="http://www.w3.org/2000/svg"
   xmlns:xlink="http://www.w3.org/1999/xlink"
   xmlns:sodipodi="http://sodipodi.sourceforge.net/DTD/sodipodi-0.dtd"
   xmlns:inkscape="http://www.inkscape.org/namespaces/inkscape"
   width="32"
   version="1.1"
   height="32"
   id="svg2"
   inkscape:version="0.91 r13725"
   sodipodi:docname="application-vnd.oasis.opendocument.spreadsheet-template.svg">
  <sodipodi:namedview
     pagecolor="#ffffff"
     bordercolor="#666666"
     borderopacity="1"
     objecttolerance="10"
     gridtolerance="10"
     guidetolerance="10"
     inkscape:pageopacity="0"
     inkscape:pageshadow="2"
     inkscape:window-width="1920"
     inkscape:window-height="1013"
     id="namedview30"
     showgrid="false"
     inkscape:zoom="10.429825"
     inkscape:cx="7.1680538"
     inkscape:cy="11.725649"
     inkscape:window-x="0"
     inkscape:window-y="0"
     inkscape:window-maximized="1"
     inkscape:current-layer="layer1" />
  <defs
     id="defs5455">
    <linearGradient
       inkscape:collect="always"
       id="linearGradient4300-7">
      <stop
         style="stop-color:#5e6b78"
         id="stop4302-2" />
      <stop
         offset="1"
         style="stop-color:#768492"
         id="stop4304-4" />
    </linearGradient>
    <linearGradient
       inkscape:collect="always"
       xlink:href="#linearGradient4300-7"
       id="linearGradient4306-3"
       y1="61"
       y2="3"
       x2="0"
       gradientUnits="userSpaceOnUse"
       gradientTransform="matrix(0.49999977,0,0,-0.48275841,384.57144,547.24623)" />
  </defs>
  <metadata
     id="metadata5458">
    <rdf:RDF>
      <cc:Work
         rdf:about="">
        <dc:format>image/svg+xml</dc:format>
        <dc:type
           rdf:resource="http://purl.org/dc/dcmitype/StillImage" />
      </cc:Work>
    </rdf:RDF>
  </metadata>
  <g
     inkscape:label="Capa 1"
     inkscape:groupmode="layer"
     id="layer1"
     transform="matrix(1 0 0 1 -384.57143 -515.798)">
    <rect
       width="0"
       x="415.89221"
       y="526.79797"
       height="10.999983"
       style="fill:#ffffff"
       id="rect4035" />
    <rect
       width="0"
       x="415.57144"
       y="525.79797"
       height="10.999983"
       style="fill:#ffffff"
       id="rect4035-4" />
    <rect
       width="0"
       x="414.03558"
       y="525.68414"
       height="11.1139"
       style="fill:#fbd2bf"
       id="rect4035-3" />
    <rect
       width="0"
       x="415.57144"
       y="525.79797"
       height="10.999983"
       style="fill:#fbd2bf"
       id="rect4035-1" />
    <rect
       width="0"
       x="435.57144"
       y="525.79797"
       height="10.999983"
       style="fill:#fbfbfb"
       id="rect4035-2" />
    <rect
       width="0"
       x="335.89221"
       y="526.79797"
       height="10.999983"
       style="fill:#ffffff"
       id="rect4035-7" />
    <rect
       width="0"
       x="335.57144"
       y="525.79797"
       height="10.999983"
       style="fill:#ffffff"
       id="rect4035-4-5" />
    <rect
       width="0"
       x="334.03558"
       y="525.68414"
       height="11.1139"
       style="fill:#fbd2bf"
       id="rect4035-3-3" />
    <rect
       width="0"
       x="335.57144"
       y="525.79797"
       height="10.999983"
       style="fill:#fbd2bf"
       id="rect4035-1-5" />
    <path
       inkscape:connector-curvature="0"
       style="fill:url(#linearGradient4306-3);fill-opacity:1"
       d="m 389.57143,517.798 0,28 15,0 7,0 0,-6.75781 0,-12.82813 -8.41406,-8.41406 -13.58594,0 z"
       id="rect3500-6" />
    <rect
       width="22"
       x="389.57144"
       y="-545.79797"
       height="0.999973"
       style="fill:#2e3132;fill-opacity:0.29411801"
       id="rect4169-7"
       transform="scale(1,-1)" />
    <path
       inkscape:connector-curvature="0"
       style="fill:#ffffff;fill-opacity:0.40983599"
       d="m 389.57143,517.798 0,1 14.58594,0 -1,-1 -13.58594,0 z"
       id="rect4236-5" />
    <path
       inkscape:connector-curvature="0"
       style="fill:#4a5c6d;fill-opacity:1;fill-rule:evenodd"
       id="path4314-3"
       d="m 404.57142,517.79796 7.00001,7 0,-7 z" />
    <rect
       width="0"
       x="375.89221"
       y="-536.79797"
       height="10.999983"
       style="fill:#ffffff"
       id="rect4035-5"
       transform="scale(1,-1)" />
    <rect
       width="0"
       x="375.57144"
       y="-537.79797"
       height="10.999983"
       style="fill:#ffffff"
       id="rect4035-4-6"
       transform="scale(1,-1)" />
    <rect
       width="0"
       x="374.03558"
       y="-537.9118"
       height="11.1139"
       style="fill:#fbd2bf"
       id="rect4035-3-2"
       transform="scale(1,-1)" />
    <rect
       width="0"
       x="375.57144"
       y="-537.79797"
       height="10.999983"
       style="fill:#fbd2bf"
       id="rect4035-1-9"
       transform="scale(1,-1)" />
    <path
       inkscape:connector-curvature="0"
       style="fill:#d5dadc;fill-opacity:1"
       id="rect4031"
       d="m 394.57143,526.798 0,1 0,10 0,1 1,0 11,0 0,-1 0,-11 -11,0 -1,0 z m 1,1 10,0 0,2 -10,0 0,-2 z m 0,3 2,0 0,3 -2,0 0,-3 z m 3,0 4,0 0,3 -4,0 0,-3 z m 5,0 2,0 0,3 -2,0 0,-3 z m -8,4 2,0 0,3 -2,0 0,-3 z m 3,0 4,0 0,3 -4,0 0,-3 z m 5,0 2,0 0,3 -2,0 0,-3 z" />
  </g>
</svg>
