<?xml version="1.0" encoding="UTF-8" standalone="no"?>
<!-- Created with Inkscape (http://www.inkscape.org/) -->

<svg
   xmlns:dc="http://purl.org/dc/elements/1.1/"
   xmlns:cc="http://creativecommons.org/ns#"
   xmlns:rdf="http://www.w3.org/1999/02/22-rdf-syntax-ns#"
   xmlns:svg="http://www.w3.org/2000/svg"
   xmlns="http://www.w3.org/2000/svg"
   xmlns:xlink="http://www.w3.org/1999/xlink"
   xmlns:sodipodi="http://sodipodi.sourceforge.net/DTD/sodipodi-0.dtd"
   xmlns:inkscape="http://www.inkscape.org/namespaces/inkscape"
   width="32"
   version="1.1"
   height="32"
   id="svg2"
   inkscape:version="0.91 r13725"
   sodipodi:docname="application-ogg.svg">
  <sodipodi:namedview
     pagecolor="#ffffff"
     bordercolor="#666666"
     borderopacity="1"
     objecttolerance="10"
     gridtolerance="10"
     guidetolerance="10"
     inkscape:pageopacity="0"
     inkscape:pageshadow="2"
     inkscape:window-width="1360"
     inkscape:window-height="708"
     id="namedview25"
     showgrid="true"
     inkscape:zoom="7.375"
     inkscape:cx="17.325827"
     inkscape:cy="9.1750359"
     inkscape:window-x="0"
     inkscape:window-y="0"
     inkscape:window-maximized="1"
     inkscape:current-layer="layer1">
    <inkscape:grid
       type="xygrid"
       id="grid4240" />
  </sodipodi:namedview>
  <defs
     id="defs5455">
    <linearGradient
       id="linearGradient6251"
       inkscape:collect="always">
      <stop
         id="stop6253"
         offset="0"
         style="stop-color:#ffffff;stop-opacity:0" />
      <stop
         id="stop6255"
         offset="1"
         style="stop-color:#ffffff;stop-opacity:0.2" />
    </linearGradient>
    <linearGradient
       inkscape:collect="always"
       xlink:href="#linearGradient6251"
       id="linearGradient4405"
       x1="16.779661"
       y1="29.830509"
       x2="16.847458"
       y2="2"
       gradientUnits="userSpaceOnUse" />
  </defs>
  <metadata
     id="metadata5458">
    <rdf:RDF>
      <cc:Work
         rdf:about="">
        <dc:format>image/svg+xml</dc:format>
        <dc:type
           rdf:resource="http://purl.org/dc/dcmitype/StillImage" />
      </cc:Work>
    </rdf:RDF>
  </metadata>
  <g
     inkscape:label="Capa 1"
     inkscape:groupmode="layer"
     id="layer1"
     transform="matrix(1 0 0 1 -384.57143 -515.798)">
    <rect
       width="0"
       x="455.89221"
       y="526.79797"
       height="10.999983"
       style="fill:#ffffff"
       id="rect4035" />
    <rect
       width="0"
       x="455.57144"
       y="525.79797"
       height="10.999983"
       style="fill:#ffffff"
       id="rect4035-4" />
    <rect
       width="0"
       x="454.03558"
       y="525.68414"
       height="11.1139"
       style="fill:#fbd2bf"
       id="rect4035-3" />
    <rect
       width="0"
       x="455.57144"
       y="525.79797"
       height="10.999983"
       style="fill:#fbd2bf"
       id="rect4035-1" />
    <rect
       width="0"
       x="475.57144"
       y="525.79797"
       height="10.999983"
       style="fill:#fbfbfb"
       id="rect4035-2" />
    <rect
       width="0"
       x="455.57144"
       y="525.79797"
       height="10.999983"
       style="fill:#fbfbfb"
       id="rect4035-8" />
    <rect
       width="0"
       x="455.57144"
       y="525.79797"
       height="10.999983"
       style="fill:#fbfbfb"
       id="rect4035-9" />
    <rect
       width="0"
       x="455.89221"
       y="526.79797"
       height="10.999983"
       style="fill:#ffffff"
       id="rect4035-36" />
    <rect
       width="0"
       x="455.89221"
       y="526.79797"
       height="10.999983"
       style="fill:#ffffff"
       id="rect4035-7" />
    <rect
       width="0"
       x="455.57144"
       y="525.79797"
       height="10.999983"
       style="fill:#ffffff"
       id="rect4035-4-7" />
    <rect
       width="0"
       x="454.03558"
       y="525.68414"
       height="11.1139"
       style="fill:#fbd2bf"
       id="rect4035-3-53" />
    <rect
       width="0"
       x="455.57144"
       y="525.79797"
       height="10.999983"
       style="fill:#fbd2bf"
       id="rect4035-1-5" />
    <rect
       width="0"
       x="475.57144"
       y="525.79797"
       height="10.999983"
       style="fill:#fbfbfb"
       id="rect4035-2-6" />
    <rect
       width="0"
       x="455.57144"
       y="525.79797"
       height="10.999983"
       style="fill:#fbfbfb"
       id="rect4035-8-2" />
    <rect
       width="0"
       x="455.57144"
       y="525.79797"
       height="10.999983"
       style="fill:#fbfbfb"
       id="rect4035-9-9" />
    <path
       style="opacity:1;fill:#fbeaab;fill-opacity:1;stroke:none;stroke-width:0.1;stroke-linecap:round;stroke-linejoin:miter;stroke-miterlimit:4;stroke-dasharray:none;stroke-opacity:0.29943501"
       d="m 403.11696,518.673 a 11.45454,13.124995 0 0 0 -11.45453,13.125 11.45454,13.124995 0 0 0 11.45453,13.125 11.45454,13.124995 0 0 0 11.45455,-13.125 11.45454,13.124995 0 0 0 -11.45455,-13.125 z m 0,9.33334 a 3.3090857,3.7916609 0 0 1 3.3091,3.79166 3.3090857,3.7916609 0 0 1 -3.3091,3.79167 3.3090857,3.7916609 0 0 1 -3.30908,-3.79167 3.3090857,3.7916609 0 0 1 3.30908,-3.79166 z m 0,0.875 a 2.5454495,2.916661 0 0 0 -2.54545,2.91666 2.5454495,2.916661 0 0 0 2.54545,2.91667 2.5454495,2.916661 0 0 0 2.54547,-2.91667 2.5454495,2.916661 0 0 0 -2.54547,-2.91666 z m 0,1.45833 a 1.2727222,1.4583277 0 0 1 1.27274,1.45833 1.2727222,1.4583277 0 0 1 -1.27274,1.45834 1.2727222,1.4583277 0 0 1 -1.27272,-1.45834 1.2727222,1.4583277 0 0 1 1.27272,-1.45833 z"
       id="circle4543"
       inkscape:connector-curvature="0" />
    <path
       style="opacity:1;fill:#f9d24c;fill-opacity:1;stroke:none;stroke-width:0.1;stroke-linecap:round;stroke-linejoin:miter;stroke-miterlimit:4;stroke-dasharray:none;stroke-opacity:0.29943501"
       d="m 386.57143,517.798 0,28 24.43636,0 0,-11.95833 -2.29091,0 c -0.98713,0 -1.78181,-0.91058 -1.78181,-2.04167 0,-1.13108 0.79468,-2.04166 1.78181,-2.04166 l 2.29091,0 0,-11.95834 -24.43636,0 z"
       id="rect4188"
       inkscape:connector-curvature="0" />
    <path
       inkscape:connector-curvature="0"
       style="fill:#ffffff;fill-opacity:1;opacity:0.75"
       id="path3763-9-1"
       d="m 394.57143,526.798 0,1 0,7.28125 c -0.29454,-0.17076 -0.63503,-0.28125 -1,-0.28125 -1.10457,0 -2,0.89544 -2,2 0,1.10456 0.89543,2 2,2 1.10457,0 2,-0.89544 2,-2 l 0,-7 7,0 0,4.28125 c -0.29454,-0.17076 -0.63504,-0.28125 -1,-0.28125 -1.10457,0 -2,0.89544 -2,2 0,1.10456 0.89543,2 2,2 1.10457,0 2,-0.89544 2,-2 l 0,-8 0,-1 -9,0 z m 1,1 7,0 0,1 -7,0 0,-1 z" />
    <rect
       width="0"
       x="468.82913"
       y="534.55237"
       height="10.999983"
       style="fill:#ffffff"
       id="rect4035-75" />
    <rect
       width="0"
       x="468.50836"
       y="533.55237"
       height="10.999983"
       style="fill:#ffffff"
       id="rect4035-4-3" />
    <rect
       width="0"
       x="466.9725"
       y="533.43854"
       height="11.1139"
       style="fill:#fbd2bf"
       id="rect4035-3-56" />
    <rect
       width="0"
       x="468.50836"
       y="533.55237"
       height="10.999983"
       style="fill:#fbd2bf"
       id="rect4035-1-2" />
    <rect
       width="0"
       x="468.50836"
       y="533.55237"
       height="10.999983"
       style="fill:#fbfbfb"
       id="rect4035-5-9" />
    <rect
       width="0"
       x="468.82913"
       y="534.55237"
       height="10.999983"
       style="fill:#ffffff"
       id="rect4035-7-1" />
    <rect
       width="0"
       x="468.50836"
       y="533.55237"
       height="10.999983"
       style="fill:#ffffff"
       id="rect4035-4-53" />
    <rect
       width="0"
       x="466.9725"
       y="533.43854"
       height="11.1139"
       style="fill:#fbd2bf"
       id="rect4035-3-5" />
    <rect
       width="0"
       x="468.50836"
       y="533.55237"
       height="10.999983"
       style="fill:#fbd2bf"
       id="rect4035-1-6" />
    <rect
       width="0"
       x="468.50836"
       y="533.55237"
       height="10.999983"
       style="fill:#fbfbfb"
       id="rect4035-5-2" />
    <rect
       width="0"
       x="468.82913"
       y="534.55237"
       height="10.999983"
       style="fill:#ffffff"
       id="rect4035-53" />
    <rect
       width="0"
       x="468.50836"
       y="533.55237"
       height="10.999983"
       style="fill:#ffffff"
       id="rect4035-4-5" />
    <rect
       width="0"
       x="468.82913"
       y="534.55237"
       height="10.999983"
       style="fill:#ffffff"
       id="rect4035-535" />
    <rect
       width="0"
       x="468.50836"
       y="533.55237"
       height="10.999983"
       style="fill:#ffffff"
       id="rect4035-4-6" />
    <rect
       width="0"
       x="466.9725"
       y="533.43854"
       height="11.1139"
       style="fill:#fbd2bf"
       id="rect4035-3-2" />
    <rect
       width="0"
       x="468.50836"
       y="533.55237"
       height="10.999983"
       style="fill:#fbd2bf"
       id="rect4035-1-9" />
    <rect
       width="0"
       x="468.50836"
       y="533.55237"
       height="10.999983"
       style="fill:#fbfbfb"
       id="rect4035-5" />
    <rect
       width="0"
       x="468.50836"
       y="533.55237"
       height="10.999983"
       style="fill:#fffcf9"
       id="rect4035-8-0" />
    <rect
       width="0"
       x="468.50836"
       y="533.55237"
       height="10.999983"
       style="fill:#e8d9eb"
       id="rect4035-44" />
    <rect
       width="0"
       x="468.50836"
       y="533.55237"
       height="10.999983"
       style="fill:#e8d9eb"
       id="rect4035-7-6" />
    <rect
       width="0"
       x="468.82913"
       y="534.55237"
       height="10.999983"
       style="fill:#ffffff"
       id="rect4035-26" />
    <rect
       width="0"
       x="468.50836"
       y="533.55237"
       height="10.999983"
       style="fill:#ffffff"
       id="rect4035-4-1" />
    <rect
       width="0"
       x="466.9725"
       y="533.43854"
       height="11.1139"
       style="fill:#fbd2bf"
       id="rect4035-3-8" />
    <rect
       width="0"
       x="468.50836"
       y="533.55237"
       height="10.999983"
       style="fill:#fbd2bf"
       id="rect4035-1-7" />
    <rect
       width="24.404537"
       x="386.57144"
       y="544.79797"
       height="0.999973"
       style="fill:#2e3132;fill-opacity:0.29411801"
       id="rect4169-5" />
    <rect
       width="24.404537"
       x="386.57144"
       y="517.79797"
       height="1.00003"
       style="fill:#ffffff;fill-opacity:0.41176501"
       id="rect4236-6" />
    <rect
       width="0"
       x="465.16406"
       y="529.4408"
       height="22.785679"
       style="fill:#ffffff"
       id="rect4035-753" />
    <rect
       width="0"
       x="465.16406"
       y="529.4408"
       height="22.785679"
       style="fill:#ffffff"
       id="rect4035-7-5" />
    <rect
       width="0"
       x="464.49963"
       y="527.36938"
       height="22.785679"
       style="fill:#ffffff"
       id="rect4035-4-62" />
    <rect
       width="0"
       x="461.31824"
       y="527.13361"
       height="23.02165"
       style="fill:#fbd2bf"
       id="rect4035-3-9" />
    <rect
       width="0"
       x="464.49963"
       y="527.36938"
       height="22.785679"
       style="fill:#fbd2bf"
       id="rect4035-1-1" />
    <rect
       width="0"
       x="505.9281"
       y="527.36938"
       height="22.785679"
       style="fill:#fbfbfb"
       id="rect4035-2-2" />
    <rect
       width="0"
       x="464.49963"
       y="527.36938"
       height="22.785679"
       style="fill:#fbfbfb"
       id="rect4035-8-7" />
    <rect
       width="0"
       x="464.49963"
       y="527.36938"
       height="22.785679"
       style="fill:#fbfbfb"
       id="rect4035-9-0" />
    <rect
       width="0"
       x="491.96191"
       y="545.50348"
       height="22.785679"
       style="fill:#ffffff"
       id="rect4035-75-6" />
    <rect
       width="0"
       x="491.29742"
       y="543.43207"
       height="22.785679"
       style="fill:#ffffff"
       id="rect4035-4-3-0" />
    <rect
       width="0"
       x="488.11603"
       y="543.19623"
       height="23.02165"
       style="fill:#fbd2bf"
       id="rect4035-3-56-6" />
    <rect
       width="0"
       x="491.29742"
       y="543.43207"
       height="22.785679"
       style="fill:#fbd2bf"
       id="rect4035-1-2-2" />
    <rect
       width="0"
       x="491.29742"
       y="543.43207"
       height="22.785679"
       style="fill:#fbfbfb"
       id="rect4035-5-9-6" />
    <rect
       width="0"
       x="491.96191"
       y="545.50348"
       height="22.785679"
       style="fill:#ffffff"
       id="rect4035-7-1-1" />
    <rect
       width="0"
       x="491.29742"
       y="543.43207"
       height="22.785679"
       style="fill:#ffffff"
       id="rect4035-4-53-8" />
    <rect
       width="0"
       x="488.11603"
       y="543.19623"
       height="23.02165"
       style="fill:#fbd2bf"
       id="rect4035-3-5-7" />
    <rect
       width="0"
       x="491.29742"
       y="543.43207"
       height="22.785679"
       style="fill:#fbd2bf"
       id="rect4035-1-6-9" />
    <rect
       width="0"
       x="491.29742"
       y="543.43207"
       height="22.785679"
       style="fill:#fbfbfb"
       id="rect4035-5-2-2" />
    <rect
       width="0"
       x="491.96191"
       y="545.50348"
       height="22.785679"
       style="fill:#ffffff"
       id="rect4035-53-0" />
    <rect
       width="0"
       x="491.29742"
       y="543.43207"
       height="22.785679"
       style="fill:#ffffff"
       id="rect4035-4-5-2" />
    <rect
       width="0"
       x="491.96191"
       y="545.50348"
       height="22.785679"
       style="fill:#ffffff"
       id="rect4035-535-3" />
    <rect
       width="0"
       x="491.29742"
       y="543.43207"
       height="22.785679"
       style="fill:#ffffff"
       id="rect4035-4-6-7" />
    <rect
       width="0"
       x="488.11603"
       y="543.19623"
       height="23.02165"
       style="fill:#fbd2bf"
       id="rect4035-3-2-5" />
    <rect
       width="0"
       x="491.29742"
       y="543.43207"
       height="22.785679"
       style="fill:#fbd2bf"
       id="rect4035-1-9-9" />
    <rect
       width="0"
       x="491.29742"
       y="543.43207"
       height="22.785679"
       style="fill:#fbfbfb"
       id="rect4035-5-22" />
    <rect
       width="0"
       x="491.29742"
       y="543.43207"
       height="22.785679"
       style="fill:#fffcf9"
       id="rect4035-8-0-8" />
    <rect
       width="0"
       x="491.29742"
       y="543.43207"
       height="22.785679"
       style="fill:#e8d9eb"
       id="rect4035-44-9" />
    <rect
       width="0"
       x="491.29742"
       y="543.43207"
       height="22.785679"
       style="fill:#e8d9eb"
       id="rect4035-7-6-7" />
    <rect
       width="0"
       x="491.96191"
       y="545.50348"
       height="22.785679"
       style="fill:#ffffff"
       id="rect4035-26-3" />
    <rect
       width="0"
       x="491.29742"
       y="543.43207"
       height="22.785679"
       style="fill:#ffffff"
       id="rect4035-4-1-6" />
    <rect
       width="0"
       x="488.11603"
       y="543.19623"
       height="23.02165"
       style="fill:#fbd2bf"
       id="rect4035-3-8-1" />
    <rect
       width="0"
       x="491.29742"
       y="543.43207"
       height="22.785679"
       style="fill:#fbd2bf"
       id="rect4035-1-7-2" />
    <rect
       width="0"
       x="443.92676"
       y="515.4408"
       height="22.785679"
       style="fill:#ffffff"
       id="rect4035-367" />
    <rect
       width="0"
       x="443.92676"
       y="515.4408"
       height="22.785679"
       style="fill:#ffffff"
       id="rect4035-7-53" />
    <rect
       width="0"
       x="443.26233"
       y="513.36938"
       height="22.785679"
       style="fill:#ffffff"
       id="rect4035-4-56" />
    <rect
       width="0"
       x="440.08093"
       y="513.13361"
       height="23.02165"
       style="fill:#fbd2bf"
       id="rect4035-3-29" />
    <rect
       width="0"
       x="443.26233"
       y="513.36938"
       height="22.785679"
       style="fill:#fbd2bf"
       id="rect4035-1-12" />
    <rect
       width="0"
       x="484.6908"
       y="513.36938"
       height="22.785679"
       style="fill:#fbfbfb"
       id="rect4035-2-7" />
    <rect
       width="0"
       x="443.26233"
       y="513.36938"
       height="22.785679"
       style="fill:#fbfbfb"
       id="rect4035-8-09" />
    <rect
       width="0"
       x="443.26233"
       y="513.36938"
       height="22.785679"
       style="fill:#fbfbfb"
       id="rect4035-9-3" />
    <rect
       width="0"
       x="470.72461"
       y="531.50348"
       height="22.785679"
       style="fill:#ffffff"
       id="rect4035-75-60" />
    <rect
       width="0"
       x="470.06012"
       y="529.43207"
       height="22.785679"
       style="fill:#ffffff"
       id="rect4035-4-3-6" />
    <rect
       width="0"
       x="466.87872"
       y="529.19623"
       height="23.02165"
       style="fill:#fbd2bf"
       id="rect4035-3-56-2" />
    <rect
       width="0"
       x="470.06012"
       y="529.43207"
       height="22.785679"
       style="fill:#fbd2bf"
       id="rect4035-1-2-6" />
    <rect
       width="0"
       x="470.06012"
       y="529.43207"
       height="22.785679"
       style="fill:#fbfbfb"
       id="rect4035-5-9-1" />
    <rect
       width="0"
       x="470.72461"
       y="531.50348"
       height="22.785679"
       style="fill:#ffffff"
       id="rect4035-7-1-8" />
    <rect
       width="0"
       x="470.06012"
       y="529.43207"
       height="22.785679"
       style="fill:#ffffff"
       id="rect4035-4-53-7" />
    <rect
       width="0"
       x="466.87872"
       y="529.19623"
       height="23.02165"
       style="fill:#fbd2bf"
       id="rect4035-3-5-9" />
    <rect
       width="0"
       x="470.06012"
       y="529.43207"
       height="22.785679"
       style="fill:#fbd2bf"
       id="rect4035-1-6-2" />
    <rect
       width="0"
       x="470.06012"
       y="529.43207"
       height="22.785679"
       style="fill:#fbfbfb"
       id="rect4035-5-2-0" />
    <rect
       width="0"
       x="470.72461"
       y="531.50348"
       height="22.785679"
       style="fill:#ffffff"
       id="rect4035-53-2" />
    <rect
       width="0"
       x="470.06012"
       y="529.43207"
       height="22.785679"
       style="fill:#ffffff"
       id="rect4035-4-5-3" />
    <rect
       width="0"
       x="470.72461"
       y="531.50348"
       height="22.785679"
       style="fill:#ffffff"
       id="rect4035-535-7" />
    <rect
       width="0"
       x="470.06012"
       y="529.43207"
       height="22.785679"
       style="fill:#ffffff"
       id="rect4035-4-6-5" />
    <rect
       width="0"
       x="466.87872"
       y="529.19623"
       height="23.02165"
       style="fill:#fbd2bf"
       id="rect4035-3-2-9" />
    <rect
       width="0"
       x="470.06012"
       y="529.43207"
       height="22.785679"
       style="fill:#fbd2bf"
       id="rect4035-1-9-2" />
    <rect
       width="0"
       x="470.06012"
       y="529.43207"
       height="22.785679"
       style="fill:#fbfbfb"
       id="rect4035-5-28" />
    <rect
       width="0"
       x="470.06012"
       y="529.43207"
       height="22.785679"
       style="fill:#fffcf9"
       id="rect4035-8-0-9" />
    <rect
       width="0"
       x="470.06012"
       y="529.43207"
       height="22.785679"
       style="fill:#e8d9eb"
       id="rect4035-44-7" />
    <rect
       width="0"
       x="470.06012"
       y="529.43207"
       height="22.785679"
       style="fill:#e8d9eb"
       id="rect4035-7-6-3" />
    <rect
       width="0"
       x="470.72461"
       y="531.50348"
       height="22.785679"
       style="fill:#ffffff"
       id="rect4035-26-6" />
    <rect
       width="0"
       x="470.06012"
       y="529.43207"
       height="22.785679"
       style="fill:#ffffff"
       id="rect4035-4-1-1" />
    <rect
       width="0"
       x="466.87872"
       y="529.19623"
       height="23.02165"
       style="fill:#fbd2bf"
       id="rect4035-3-8-2" />
    <rect
       width="0"
       x="470.06012"
       y="529.43207"
       height="22.785679"
       style="fill:#fbd2bf"
       id="rect4035-1-7-9" />
    <path
       style="opacity:1;fill:url(#linearGradient4405);fill-opacity:1;stroke:none;stroke-width:0.1;stroke-linecap:round;stroke-linejoin:miter;stroke-miterlimit:4;stroke-dasharray:none;stroke-opacity:0.29943501"
       d="M 2 2 L 2 30 L 26.435547 30 L 26.435547 25.492188 A 11.45454 13.124995 0 0 0 30 16 A 11.45454 13.124995 0 0 0 26.435547 6.4941406 L 26.435547 2 L 2 2 z "
       transform="translate(384.57143,515.798)"
       id="circle4543-3" />
  </g>
</svg>
