<?xml version="1.0" encoding="utf-8"?><svg height="32" width="32" xmlns="http://www.w3.org/2000/svg" xmlns:svg="http://www.w3.org/2000/svg" xmlns:xlink="http://www.w3.org/1999/xlink"><defs id="primary-definitions"><style id="current-color-scheme" type="text/css">.ColorScheme-Text           { color:#fff; }
      .ColorScheme-Background     { color:#111; }
      .ColorScheme-Highlight      { color:#3daefd; }
      .ColorScheme-ViewBackground { color:#000; }
      .ColorScheme-PositiveText   { color:#27ae60; }
      .ColorScheme-NeutralText    { color:#f67400; }
      .ColorScheme-NegativeText   { color:#da4453; }
  </style><style id="extended-color-scheme" type="text/css">.ExScheme-Black     { color:#3e3e3e; }
      .ExScheme-White     { color:#fcfcfc; }
      .ExScheme-Grey-1    { color:#cfd5d5; }
      .ExScheme-Grey-2    { color:#909c9c; }
      .ExScheme-Grey-3    { color:#536161; }
      .ExScheme-Red-1     { color:#ffafa5; }
      .ExScheme-Red-2     { color:#bf4231; }
      .ExScheme-Red-3     { color:#4d2f2b; }
      .ExScheme-Green-1   { color:#abf9c7; }
      .ExScheme-Green-2   { color:#3bb566; }
      .ExScheme-Green-3   { color:#377d50; }
      .ExScheme-Blue-1    { color:#abdaf9; }
      .ExScheme-Blue-2    { color:#3daefd; }
      .ExScheme-Blue-3    { color:#2b3c4d; }
      .ExScheme-Yellow-1  { color:#faffa5; }
      .ExScheme-Yellow-2  { color:#cac726; }
      .ExScheme-Yellow-3  { color:#4b4d2b; }
      .ExScheme-Orange-1  { color:#ffdaa5; }
      .ExScheme-Orange-2  { color:#ff9701; }
      .ExScheme-Orange-3  { color:#4d372b; }
      .ExScheme-Brown-1   { color:#e9d6bb; }
      .ExScheme-Brown-2   { color:#997657; }
      .ExScheme-Brown-3   { color:#433a35; }
      .ExScheme-Purple-1  { color:#e2abf9; }
      .ExScheme-Purple-2  { color:#b401ff; }
      .ExScheme-Purple-3  { color:#432b4d; }
      .ExScheme-Cyan-1    { color:#b2f2e6; }
      .ExScheme-Cyan-2    { color:#31bfa6; }
      .ExScheme-Cyan-3    { color:#2b4d47; }
      .ExScheme-Magenta-1 { color:#f8a6d8; }
      .ExScheme-Magenta-2 { color:#f00091; }
      .ExScheme-Magenta-3 { color:#770048; }
  </style><linearGradient id="gradientDark"><stop offset="0"/><stop offset="1" stop-opacity="0"/></linearGradient><linearGradient id="gradientLight"><stop offset="0" stop-color="#fff"/><stop offset="1" stop-color="#fff" stop-opacity="0"/></linearGradient><style class="toggle-enable-crease" type="text/css">.folder-crease { display: none; }
  </style><style class="toggle-manilla-folders" type="text/css">.folder-manilla { display: none; }
  </style><radialGradient cx=".5" cy="0" id="gl1" r="1" xlink:href="#gradientLight"/><linearGradient id="gd1" xlink:href="#gradientDark" y1="1" y2=".5"/><radialGradient cx="5.94" cy="32" fx="5.94" fy="32" gradientTransform="matrix(0,.9984,-1.0246,0,48.7875,-2.9613)" gradientUnits="userSpaceOnUse" id="radialGradient4483" r="26" xlink:href="#gradientLight"/><linearGradient gradientTransform="scale(0.5)" gradientUnits="userSpaceOnUse" id="linearGradient4893" x1="14" x2="14" xlink:href="#gradientDark" y1="26" y2="6"/><path -inkscape-stroke="none" d="M 13,1 A 12,12 0 0 0 11.88,1.08 L 11.47,3.125 A 10,10 0 0 0 9.4,3.696 L 7.993,2.096 a 12,12 0 0 0 -1.924,1.142 l .67,1.988 A 10,10 0 0 0 5.226,6.74 l -1.988,-.67 a 12,12 0 0 0 -1.142,1.924 l 1.6,1.408 A 10,10 0 0 0 3.125,11.47 L 1.08,11.88 A 12,12 0 0 0 1,13 12,12 0 0 0 1.08,14.12 L 3.125,14.53 a 10,10 0 0 0 .57,2.067 l -1.6,1.408 a 12,12 0 0 0 1.142,1.924 l 1.988,-.67 a 10,10 0 0 0 1.515,1.515 l -.67,1.988 a 12,12 0 0 0 1.924,1.142 l 1.408,-1.6 a 10,10 0 0 0 2.067,.57 l .41,2.045 A 12,12 0 0 0 13,25 12,12 0 0 0 14.12,24.92 L 14.53,22.875 a 10,10 0 0 0 2.067,-.57 l 1.408,1.6 a 12,12 0 0 0 1.924,-1.142 l -.67,-1.988 a 10,10 0 0 0 1.515,-1.515 l 1.988,.67 a 12,12 0 0 0 1.142,-1.924 l -1.6,-1.408 A 10,10 0 0 0 22.875,14.53 l 2.045,-.415 A 12,12 0 0 0 25,13 12,12 0 0 0 24.947,11.885 l -2.066,-.415 A 10,10 0 0 0 22.32,9.387 l 1.582,-1.393 A 12,12 0 0 0 22.786,6.062 L 20.792,6.734 A 10,10 0 0 0 19.266,5.208 L 19.938,3.214 A 12,12 0 0 0 18.006,2.097 L 16.613,3.68 A 10,10 0 0 0 14.53,3.12 L 14.115,1.053 A 12,12 0 0 0 13,1 Z m 0,4 a 8,8 0 0 1 8,8 8,8 0 0 1 -8,8 8,8 0 0 1 -8,-8 8,8 0 0 1 8,-8 z m 0,0.5 A 7.5,7.5 0 0 0 5.5,13 7.5,7.5 0 0 0 13,20.5 7.5,7.5 0 0 0 20.5,13 7.5,7.5 0 0 0 13,5.5 Z m 0,5.5 a 2,2 0 0 1 2,2 2,2 0 0 1 -2,2 2,2 0 0 1 -2,-2 2,2 0 0 1 2,-2 z" id="use-path-4" stop-color="#000000" stroke-opacity="0"/><path -inkscape-stroke="none" d="M 4.5 3 C 3.669 3 3 3.669 3 4.5 L 3 27.5 C 3 28.331 3.669 29 4.5 29 L 27.5 29 C 28.331 29 29 28.331 29 27.5 L 29 4.5 C 29 3.669 28.331 3 27.5 3 L 27 3 L 27 11.5 C 27 12.331 26.331 13 25.5 13 L 25 13 L 25 18 C 25 18.554 24.554 19 24 19 L 22 19 C 21.446 19 21 18.554 21 18 L 21 13 L 6.5 13 C 5.669 13 5 12.331 5 11.5 L 5 3 L 4.5 3 z " id="use-path-5" stop-color="#000000" stroke-opacity="0"/></defs><g id="content"><namedview bordercolor="#666666" borderopacity="1.0" current-layer="svg47" cx="3.36" cy="14.36" pagecheckerboard="0" pagecolor="#ffffff" pageopacity="0.0" pageshadow="2" showgrid="true" window-height="1017" window-maximized="1" window-width="1920" window-x="0" window-y="0" zoom="22.627417"><grid type="xygrid"/></namedview><rect -inkscape-stroke="none" fill="#536161" height="10" opacity="1" ry="0" stop-color="#000000" stroke-opacity="0" width="22" x="5" y="3"/><rect -inkscape-stroke="none" fill="url(#linearGradient4893)" height="10" opacity=".2" ry="0" stop-color="#000000" stroke-opacity="0" width="22" x="5" y="3"/><g id="insert" transform="translate(3,3)"><path -inkscape-stroke="none" d="M 13,4.5 A 8.5,8.5 0 0 0 4.5,13 8.5,8.5 0 0 0 13,21.5 8.5,8.5 0 0 0 21.5,13 8.5,8.5 0 0 0 13,4.5 Z m 0,6 A 2.5,2.5 0 0 1 15.5,13 2.5,2.5 0 0 1 13,15.5 2.5,2.5 0 0 1 10.5,13 2.5,2.5 0 0 1 13,10.5 Z" fill="#6f8181" stop-color="#000000" stroke-opacity="0"/><use fill="#b0b8b8" href="#use-path-4"/><path -inkscape-stroke="none" d="M 13,25 A 12,12 0 0 1 11.88,24.92 L 11.47,22.875 a 10,10 0 0 1 -2.067,-.57 l -1.408,1.6 a 12,12 0 0 1 -1.924,-1.142 l .67,-1.988 A 10,10 0 0 1 5.226,19.26 l -1.988,.67 a 12,12 0 0 1 -1.142,-1.924 l 1.6,-1.408 A 10,10 0 0 1 3.125,14.53 L 1.08,14.12 A 12,12 0 0 1 1,13 12,12 0 0 1 1.08,11.88 L 3.125,11.47 A 10,10 0 0 1 3.696,9.4 l -1.6,-1.408 a 12,12 0 0 1 1.142,-1.924 l 1.988,.67 a 10,10 0 0 1 1.515,-1.515 l -.67,-1.988 a 12,12 0 0 1 1.924,-1.142 L 9.4,3.696 A 10,10 0 0 1 11.47,3.125 L 11.88,1.08 A 12,12 0 0 1 13,1 12,12 0 0 1 14.12,1.08 L 14.53,3.125 a 10,10 0 0 1 2.067,.57 l 1.408,-1.6 a 12,12 0 0 1 1.924,1.142 l -.67,1.988 a 10,10 0 0 1 1.515,1.515 l 1.988,-.67 a 12,12 0 0 1 1.142,1.924 l -1.6,1.408 a 10,10 0 0 1 .57,2.067 l 2.045,.41 A 12,12 0 0 1 25,13 12,12 0 0 1 24.947,14.115 l -2.066,.415 A 10,10 0 0 1 22.32,16.613 l 1.582,1.393 a 12,12 0 0 1 -1.117,1.933 L 20.792,19.266 a 10,10 0 0 1 -1.526,1.526 l .673,1.994 a 12,12 0 0 1 -1.933,1.117 L 16.613,22.32 a 10,10 0 0 1 -2.083,.56 l -.415,2.066 A 12,12 0 0 1 13,25 Z m 0,-4 a 8,8 0 0 0 8,-8 8,8 0 0 0 -8,-8 8,8 0 0 0 -8,8 8,8 0 0 0 8,8 z m 0,-0.5 A 7.5,7.5 0 0 1 5.5,13 7.5,7.5 0 0 1 13,5.5 7.5,7.5 0 0 1 20.5,13 7.5,7.5 0 0 1 13,20.5 Z M 13,15 a 2,2 0 0 0 2,-2 2,2 0 0 0 -2,-2 2,2 0 0 0 -2,2 2,2 0 0 0 2,2 z" fill="url(#radialGradient28208-7-9)" stop-color="#000000" stroke-opacity="0"/><use fill="url(#radialGradient28208-7-9-9)" href="#use-path-4"/><use fill="url(#linearGradient215554)" href="#use-path-4" opacity=".2"/></g><path -inkscape-stroke="none" d="M 4.5,3 C 3.669,3 3,3.669 3,4.5 v 23 C 3,28.331 3.669,29 4.5,29 h 23 C 28.331,29 29,28.331 29,27.5 V 4.5 C 29,3.669 28.331,3 27.5,3 H 27 L 22,12.5 21,13 18.5,12.5 5,3 Z" fill="#3daefd" id="primary-color" opacity="1" stop-color="#000000" stroke-opacity="0"/><use fill="#ffffff" href="#use-path-5" id="rect2310-2-6" opacity=".1"/><use fill="url(#radialGradient4483)" href="#use-path-5" id="rect2310-2" opacity=".2"/><path -inkscape-stroke="none" d="m 5,3 v 8.5 c 0,0.831 .67,1.557 1.5,1.5 H 21 Z m 16,10 h 4.5 C 26.331,13 27,12.331 27,11.5 V 3 Z" fill="#3daefd" id="secondary-color" opacity="1" stop-color="#000000" stroke-opacity="0"/><path -inkscape-stroke="none" d="m 3,27 v 0.5 C 3,28.331 3.669,29 4.5,29 h 23 C 28.331,29 29,28.331 29,27.5 V 27 c 0,0.831 -0.669,1.5 -1.5,1.5 H 4.5 C 3.669,28.5 3,27.831 3,27 Z" id="rect2310-6" opacity=".1" stop-color="#000000" stroke-opacity="0"/><path -inkscape-stroke="none" d="M 3,27.25 V 27.5 C 3,28.331 3.669,29 4.5,29 h 23 c 0.831,0 1.5,-0.669 1.5,-1.5 v -0.25 c 0,0.831 -0.669,1.5 -1.5,1.5 H 4.5 C 3.669,28.75 3,28.081 3,27.25 Z" id="rect2310-6-9" opacity=".2" stop-color="#000000" stroke-opacity="0"/><path -inkscape-stroke="none" d="M 5,11.5 V 12 c 0,0.831 0.669,1.5 1.5,1.5 h 19 C 26.331,13.5 27,12.831 27,12 V 11.5 C 27,12.331 26.331,13 25.5,13 H 6.5 C 5.669,13 5,12.331 5,11.5 Z" id="rect5086" opacity=".1" stop-color="#000000" stroke-opacity="0"/><path -inkscape-stroke="none" d="m 5,11.5 v 0.25 c 0,0.831 0.669,1.5 1.5,1.5 h 19 c 0.831,0 1.5,-0.669 1.5,-1.5 V 11.5 C 27,12.331 26.331,13 25.5,13 H 6.5 C 5.669,13 5,12.331 5,11.5 Z" id="rect5086-2" opacity=".2" stop-color="#000000" stroke-opacity="0"/><g id="emblem" transform="translate(4,13)"><path class="ColorScheme-Background" d="M 8 4 A 7 7 0 0 0 2.914 6.207 L 1.354 4.646 A 0.5 0.5 0 0 0 1 4.5 A 0.5 0.5 0 0 0 .646 4.646 A 0.5 0.5 0 0 0 .646 5.354 L 2.28 6.988 A 7 7 0 0 0 1 11 L 1 12 C 1 12.554 1.446 13 2 13 L 14 13 C 14.554 13 15 12.554 15 12 L 15 11 A 7 7 0 0 0 13.73 6.98 L 15.354 5.354 A 0.5 0.5 0 0 0 15.354 4.646 A 0.5 0.5 0 0 0 14.646 4.646 L 13.094 6.2 A 7 7 0 0 0 8 4 z M 5 8 A 1 1 0 0 1 6 9 A 1 1 0 0 1 5 10 A 1 1 0 0 1 4 9 A 1 1 0 0 1 5 8 z M 11 8 A 1 1 0 0 1 12 9 A 1 1 0 0 1 11 10 A 1 1 0 0 1 10 9 A 1 1 0 0 1 11 8 z " fill="currentColor" opacity=".6" stop-color="#000000"/><path class="ColorScheme-Background" d="M 8 4 A 7 7 0 0 0 2.914 6.207 L 1.354 4.646 A 0.5 0.5 0 0 0 1 4.5 A 0.5 0.5 0 0 0 .646 4.646 A 0.5 0.5 0 0 0 .646 5.354 L 2.28 6.988 A 7 7 0 0 0 1 11 L 1 12 C 1 12.554 1.446 13 2 13 L 14 13 C 14.554 13 15 12.554 15 12 L 15 11 A 7 7 0 0 0 13.73 6.98 L 15.354 5.354 A 0.5 0.5 0 0 0 15.354 4.646 A 0.5 0.5 0 0 0 14.646 4.646 L 13.094 6.2 A 7 7 0 0 0 8 4 z M 8 4.5 L 8.002 4.5 C 9.792 4.5 11.503 5.24 12.73 6.543 A .5 .5 0 0 0 13.447 6.553 L 13.375 6.625 A .5 .5 0 0 0 13.32 7.266 C 14.088 8.36 14.5 9.663 14.5 11 L 14.5 12 C 14.5 12.286 14.286 12.5 14 12.5 L 2 12.5 C 1.714 12.5 1.5 12.286 1.5 12 L 1.5 11.002 L 1.5 11 C 1.505 9.666 1.92 8.367 2.69 7.277 A .5 .5 0 0 0 2.635 6.635 L 2.56 6.56 A .5 .5 0 0 0 3.28 6.55 C 4.504 5.245 6.21 4.505 8 4.5 z M 5 7.5 C 4.177 7.5 3.5 8.177 3.5 9 C 3.5 9.823 4.177 10.5 5 10.5 C 5.823 10.5 6.5 9.823 6.5 9 C 6.5 8.177 5.823 7.5 5 7.5 z M 11 7.5 C 10.177 7.5 9.5 8.177 9.5 9 C 9.5 9.823 10.177 10.5 11 10.5 C 11.823 10.5 12.5 9.823 12.5 9 C 12.5 8.177 11.823 7.5 11 7.5 z M 5 8 A 1 1 0 0 1 6 9 A 1 1 0 0 1 5 10 A 1 1 0 0 1 4 9 A 1 1 0 0 1 5 8 z M 11 8 A 1 1 0 0 1 12 9 A 1 1 0 0 1 11 10 A 1 1 0 0 1 10 9 A 1 1 0 0 1 11 8 z " fill="currentColor" opacity=".6"/></g><path -inkscape-stroke="none" d="m 21,13 v 5 c 0,0.554 0.446,1 1,1 h 2 c 0.554,0 .967,-.447 1,-1 v -5 z m 1,1 h 2 v 3 c 0,0.554 -0.446,1 -1,1 -0.554,0 -1,-0.446 -1,-1 z" id="rect1143" opacity=".4" stop-color="#000000" stroke-opacity="0"/><path -inkscape-stroke="none" d="m 22,14 v 3 c 0,0.554 0.446,1 1,1 0.554,0 1,-0.446 1,-1 v -3 z" fill="#ffffff" id="rect1145" opacity=".6" stop-color="#000000" stroke-opacity="0"/><path -inkscape-stroke="none" d="m 21,18 v 1 c 0,0.554 0.446,1 1,1 h 2 c 0.554,0 1,-0.446 1,-1 v -1 c 0,0.554 -0.446,1 -1,1 h -2 c -0.554,0 -1,-0.446 -1,-1 z" fill="#ffffff" id="rect4145" opacity=".1" stop-color="#000000" stroke-opacity="0"/><path -inkscape-stroke="none" d="m 21,18 v 0.5 c 0,0.554 0.446,1 1,1 h 2 c 0.554,0 1,-0.446 1,-1 V 18 c 0,0.554 -0.446,1 -1,1 h -2 c -0.554,0 -1,-0.446 -1,-1 z" fill="#ffffff" id="rect4145-7" opacity=".2" stop-color="#000000" stroke-opacity="0"/><path -inkscape-stroke="none" d="m 5,3 v 8.5 c 0,0.831 .67,1.557 1.5,1.5 H 21 Z m 16,10 h 4.5 C 26.331,13 27,12.331 27,11.5 V 3 Z" fill="#feffff" id="group-1" opacity=".4" stop-color="#000000" stroke-opacity="0"/></g></svg>