<?xml version="1.0" encoding="UTF-8"?>
<svg id="svg9" width="32" height="32" version="1.1" xmlns="http://www.w3.org/2000/svg" xmlns:xlink="http://www.w3.org/1999/xlink">
 <defs id="defs4">
  <linearGradient id="a" x2="0" y1="392.36" y2="365.36" gradientTransform="translate(309.57,152.44)" gradientUnits="userSpaceOnUse">
   <stop id="stop1" stop-color="#fff" stop-opacity="0" offset="0"/>
   <stop id="stop2" stop-color="#fff" stop-opacity=".2" offset="1"/>
  </linearGradient>
  <linearGradient id="b" x1="47" x2="54" y1="17" y2="24" gradientTransform="translate(357.57 507.8)" gradientUnits="userSpaceOnUse">
   <stop id="stop3" stop-color="#060606" offset="0"/>
   <stop id="stop4" stop-opacity="0" offset="1"/>
  </linearGradient>
  <path id="c" d="m389.57 545.8v-28h15l7 7v21h-14z"/>
 </defs>
 <g id="g9" transform="translate(-384.57-515.8)">
  <g id="g6" color="#000000" color-rendering="auto" image-rendering="auto" shape-rendering="auto" text-rendering="auto">
   <use id="use4" fill="#555555" xlink:href="#c"/>
   <g id="g5" transform="scale(1-1)">
    <rect id="rect4" x="389.57" y="-518.8" width="15" height="1" fill="#fff" opacity=".4"/>
    <rect id="rect5" x="389.57" y="-545.8" width="22" height="1" opacity=".35"/>
   </g>
   <path id="path5" d="m411.57 524.8-7-7v7z" fill="#fff" fill-rule="evenodd" opacity=".5"/>
  </g>
  <path id="path6" d="m404.57 524.8 7 7v-7z" fill="url(#b)" fill-rule="evenodd" opacity=".4"/>
  <g id="g8" color="#000000" color-rendering="auto" fill="#e0e0e0" image-rendering="auto" shape-rendering="auto" text-rendering="auto">
   <path id="path1" class="ColorScheme-Text" d="m393.57 527.8v12h13v-12zm1 2h11v9h-11z" color="#555555"/>
   <rect id="rect1" x="396.57" y="530.8" width="3" height="3" stroke-linecap="round" stroke-linejoin="round" stroke-width="1.5"/>
   <rect id="rect2" x="400.57" y="530.8" width="3" height="3" stroke-linecap="round" stroke-linejoin="round" stroke-width="1.5"/>
   <rect id="rect3" x="396.57" y="534.8" width="3" height="3" stroke-linecap="round" stroke-linejoin="round" stroke-width="1.5"/>
   <rect id="rect4-6" x="400.57" y="534.8" width="3" height="3" stroke-linecap="round" stroke-linejoin="round" stroke-width="1.5"/>
  </g>
  <use id="use8" fill="url(#a)" xlink:href="#c"/>
 </g>
</svg>
