<?xml version="1.0" encoding="UTF-8" standalone="no"?>
<!-- Created with Inkscape (http://www.inkscape.org/) -->

<svg
   xmlns:dc="http://purl.org/dc/elements/1.1/"
   xmlns:cc="http://creativecommons.org/ns#"
   xmlns:rdf="http://www.w3.org/1999/02/22-rdf-syntax-ns#"
   xmlns:svg="http://www.w3.org/2000/svg"
   xmlns="http://www.w3.org/2000/svg"
   xmlns:xlink="http://www.w3.org/1999/xlink"
   xmlns:sodipodi="http://sodipodi.sourceforge.net/DTD/sodipodi-0.dtd"
   xmlns:inkscape="http://www.inkscape.org/namespaces/inkscape"
   width="32"
   version="1.1"
   height="32"
   id="svg2"
   inkscape:version="0.91 r13725"
   sodipodi:docname="application-x-wmf.svg">
  <sodipodi:namedview
     pagecolor="#ffffff"
     bordercolor="#666666"
     borderopacity="1"
     objecttolerance="10"
     gridtolerance="10"
     guidetolerance="10"
     inkscape:pageopacity="0"
     inkscape:pageshadow="2"
     inkscape:window-width="1920"
     inkscape:window-height="1025"
     id="namedview26"
     showgrid="false"
     inkscape:zoom="5.2149125"
     inkscape:cx="9.5230081"
     inkscape:cy="7.7666938"
     inkscape:window-x="0"
     inkscape:window-y="26"
     inkscape:window-maximized="1"
     inkscape:current-layer="layer1" />
  <defs
     id="defs5455">
    <linearGradient
       id="linearGradient9654"
       inkscape:collect="always">
      <stop
         id="stop9656"
         offset="0"
         style="stop-color:#060606;stop-opacity:1" />
      <stop
         id="stop9658"
         offset="1"
         style="stop-color:#000000;stop-opacity:0" />
    </linearGradient>
    <linearGradient
       inkscape:collect="always"
       id="linearGradient6251">
      <stop
         style="stop-color:#ffffff;stop-opacity:0"
         offset="0"
         id="stop6253" />
      <stop
         style="stop-color:#ffffff;stop-opacity:0.2"
         offset="1"
         id="stop6255" />
    </linearGradient>
    <linearGradient
       y2="24"
       x2="54"
       y1="17"
       x1="47"
       gradientTransform="translate(357.57133,507.79795)"
       gradientUnits="userSpaceOnUse"
       id="linearGradient4257"
       xlink:href="#linearGradient9654"
       inkscape:collect="always" />
    <linearGradient
       y2="365.36221"
       x2="58"
       y1="392.36221"
       x1="58"
       gradientTransform="translate(309.57133,152.43575)"
       gradientUnits="userSpaceOnUse"
       id="linearGradient4178"
       xlink:href="#linearGradient6251"
       inkscape:collect="always" />
  </defs>
  <metadata
     id="metadata5458">
    <rdf:RDF>
      <cc:Work
         rdf:about="">
        <dc:format>image/svg+xml</dc:format>
        <dc:type
           rdf:resource="http://purl.org/dc/dcmitype/StillImage" />
      </cc:Work>
    </rdf:RDF>
  </metadata>
  <g
     inkscape:label="Capa 1"
     inkscape:groupmode="layer"
     id="layer1"
     transform="matrix(1 0 0 1 -384.57143 -515.798)">
    <rect
       width="0"
       x="415.89221"
       y="566.79797"
       height="10.999983"
       style="fill:#ffffff"
       id="rect4035" />
    <rect
       width="0"
       x="415.89221"
       y="566.79797"
       height="10.999983"
       style="fill:#ffffff"
       id="rect4035-36" />
    <rect
       width="0"
       x="415.57144"
       y="565.79797"
       height="10.999983"
       style="fill:#ffffff"
       id="rect4035-4" />
    <rect
       width="0"
       x="414.03558"
       y="565.68414"
       height="11.1139"
       style="fill:#fbd2bf"
       id="rect4035-3" />
    <rect
       width="0"
       x="415.57144"
       y="565.79797"
       height="10.999983"
       style="fill:#fbd2bf"
       id="rect4035-1" />
    <rect
       width="0"
       x="415.57144"
       y="565.79797"
       height="10.999983"
       style="fill:#fbfbfb"
       id="rect4035-5" />
    <rect
       width="0"
       x="415.57144"
       y="565.79797"
       height="10.999983"
       style="fill:#fffcf9"
       id="rect4035-8" />
    <rect
       width="0"
       x="415.89221"
       y="526.79797"
       height="10.999983"
       style="fill:#ffffff"
       id="rect4035-6" />
    <rect
       width="0"
       x="415.57144"
       y="525.79797"
       height="10.999983"
       style="fill:#ffffff"
       id="rect4035-4-2" />
    <rect
       width="0"
       x="414.03558"
       y="525.68414"
       height="11.1139"
       style="fill:#fbd2bf"
       id="rect4035-3-9" />
    <rect
       width="0"
       x="415.57144"
       y="525.79797"
       height="10.999983"
       style="fill:#fbd2bf"
       id="rect4035-1-1" />
    <rect
       width="0"
       x="415.57144"
       y="525.79797"
       height="10.999983"
       style="fill:#fbfbfb"
       id="rect4035-5-2" />
    <rect
       width="0"
       x="415.57144"
       y="525.79797"
       height="10.999983"
       style="fill:#fffcf9"
       id="rect4035-8-7" />
    <rect
       width="0"
       x="415.57144"
       y="525.79797"
       height="10.999983"
       style="fill:#e8d9eb"
       id="rect4035-44" />
    <rect
       width="0"
       x="375.57144"
       y="565.79797"
       height="10.999983"
       style="fill:#036b53"
       id="rect4035-35" />
    <rect
       width="0"
       x="375.89221"
       y="566.79797"
       height="10.999983"
       style="fill:#ffffff"
       id="rect4035-67" />
    <rect
       width="0"
       x="375.57144"
       y="565.79797"
       height="10.999983"
       style="fill:#ffffff"
       id="rect4035-4-6" />
    <rect
       width="0"
       x="374.03558"
       y="565.68414"
       height="11.1139"
       style="fill:#fbd2bf"
       id="rect4035-3-2" />
    <rect
       width="0"
       x="375.57144"
       y="565.79797"
       height="10.999983"
       style="fill:#fbd2bf"
       id="rect4035-1-9" />
    <rect
       width="0"
       x="375.57144"
       y="565.79797"
       height="10.999983"
       style="fill:#fbfbfb"
       id="rect4035-5-12" />
    <rect
       width="0"
       x="375.57144"
       y="565.79797"
       height="10.999983"
       style="fill:#fffcf9"
       id="rect4035-8-70" />
    <rect
       width="0"
       x="375.89221"
       y="526.79797"
       height="10.999983"
       style="fill:#ffffff"
       id="rect4035-6-3" />
    <rect
       width="0"
       x="375.57144"
       y="525.79797"
       height="10.999983"
       style="fill:#ffffff"
       id="rect4035-4-2-6" />
    <rect
       width="0"
       x="374.03558"
       y="525.68414"
       height="11.1139"
       style="fill:#fbd2bf"
       id="rect4035-3-9-0" />
    <rect
       width="0"
       x="375.57144"
       y="525.79797"
       height="10.999983"
       style="fill:#fbd2bf"
       id="rect4035-1-1-6" />
    <rect
       width="0"
       x="375.57144"
       y="525.79797"
       height="10.999983"
       style="fill:#fbfbfb"
       id="rect4035-5-2-2" />
    <rect
       width="0"
       x="375.57144"
       y="525.79797"
       height="10.999983"
       style="fill:#fffcf9"
       id="rect4035-8-7-6" />
    <rect
       width="0"
       x="375.57144"
       y="525.79797"
       height="10.999983"
       style="fill:#e8d9eb"
       id="rect4035-44-1" />
    <rect
       width="0"
       x="335.89221"
       y="526.79797"
       height="10.999983"
       style="fill:#ffffff"
       id="rect4035-62" />
    <rect
       width="0"
       x="335.57144"
       y="525.79797"
       height="10.999983"
       style="fill:#ffffff"
       id="rect4035-4-9" />
    <rect
       width="0"
       x="334.03558"
       y="525.68414"
       height="11.1139"
       style="fill:#fbd2bf"
       id="rect4035-3-1" />
    <rect
       width="0"
       x="335.57144"
       y="525.79797"
       height="10.999983"
       style="fill:#fbd2bf"
       id="rect4035-1-2" />
    <rect
       width="0"
       x="335.57144"
       y="525.79797"
       height="10.999983"
       style="fill:#fbfbfb"
       id="rect4035-5-7" />
    <rect
       width="0"
       x="335.57144"
       y="525.79797"
       height="10.999983"
       style="fill:#fffcf9"
       id="rect4035-8-0" />
    <rect
       width="0"
       x="335.57144"
       y="525.79797"
       height="10.999983"
       style="fill:#e8d9eb"
       id="rect4035-44-9" />
    <rect
       width="0"
       x="335.57144"
       y="525.79797"
       height="10.999983"
       style="fill:#e8d9eb"
       id="rect4035-7" />
    <rect
       width="0"
       x="336.84137"
       y="526.79797"
       height="10.999983"
       style="fill:#ffffff"
       id="rect4035-36-9" />
    <rect
       width="0"
       x="336.5206"
       y="525.79797"
       height="10.999983"
       style="fill:#ffffff"
       id="rect4035-4-0" />
    <rect
       width="0"
       x="334.98474"
       y="525.68414"
       height="11.1139"
       style="fill:#fbd2bf"
       id="rect4035-3-6" />
    <rect
       width="0"
       x="336.5206"
       y="525.79797"
       height="10.999983"
       style="fill:#fbd2bf"
       id="rect4035-1-26" />
    <rect
       width="0"
       x="336.5206"
       y="525.79797"
       height="10.999983"
       style="fill:#fbfbfb"
       id="rect4035-5-1" />
    <rect
       width="0"
       x="336.5206"
       y="525.79797"
       height="10.999983"
       style="fill:#fffcf9"
       id="rect4035-8-8" />
    <rect
       width="0"
       x="336.5206"
       y="525.79797"
       height="10.999983"
       style="fill:#e8d9eb"
       id="rect4035-44-7" />
    <rect
       width="0"
       x="336.5206"
       y="525.79797"
       height="10.999983"
       style="fill:#e8d9eb"
       id="rect4035-7-9" />
    <rect
       width="0"
       x="239.89064"
       y="520.46179"
       height="20.166639"
       style="fill:#5e6b78"
       id="rect4035-367" />
    <rect
       width="0"
       x="431.36557"
       y="521.62848"
       height="21.99995"
       style="fill:#ffffff"
       id="rect4035-75" />
    <rect
       width="0"
       x="430.72403"
       y="519.62848"
       height="21.99995"
       style="fill:#ffffff"
       id="rect4035-4-53" />
    <rect
       width="0"
       x="427.65228"
       y="519.40082"
       height="22.227785"
       style="fill:#fbd2bf"
       id="rect4035-3-5" />
    <rect
       width="0"
       x="430.72403"
       y="519.62848"
       height="21.99995"
       style="fill:#fbd2bf"
       id="rect4035-1-6" />
    <rect
       width="0"
       x="470.72397"
       y="519.62848"
       height="21.99995"
       style="fill:#fbfbfb"
       id="rect4035-2" />
    <rect
       width="0"
       x="430.72403"
       y="519.62848"
       height="21.99995"
       style="fill:#fbfbfb"
       id="rect4035-8-2" />
    <rect
       width="0"
       x="271.36563"
       y="521.62848"
       height="21.99995"
       style="fill:#ffffff"
       id="rect4035-7-91" />
    <rect
       width="0"
       x="270.72409"
       y="519.62848"
       height="21.99995"
       style="fill:#ffffff"
       id="rect4035-4-5" />
    <rect
       width="0"
       x="267.65237"
       y="519.40082"
       height="22.227785"
       style="fill:#fbd2bf"
       id="rect4035-3-3" />
    <rect
       width="0"
       x="270.72409"
       y="519.62848"
       height="21.99995"
       style="fill:#fbd2bf"
       id="rect4035-1-5" />
    <rect
       width="0"
       x="351.36557"
       y="-541.62848"
       height="21.99995"
       style="fill:#ffffff"
       id="rect4035-5-27"
       transform="scale(1,-1)" />
    <rect
       width="0"
       x="350.72403"
       y="-543.62848"
       height="21.99995"
       style="fill:#ffffff"
       id="rect4035-4-6-0"
       transform="scale(1,-1)" />
    <rect
       width="0"
       x="347.65231"
       y="-543.85614"
       height="22.227785"
       style="fill:#fbd2bf"
       id="rect4035-3-2-9"
       transform="scale(1,-1)" />
    <rect
       width="0"
       x="350.72403"
       y="-543.62848"
       height="21.99995"
       style="fill:#fbd2bf"
       id="rect4035-1-9-3"
       transform="scale(1,-1)" />
    <rect
       width="0"
       x="160.2494"
       y="576.37421"
       height="10.999983"
       style="fill:#036b53"
       id="rect4035-35-6" />
    <rect
       width="0"
       x="160.57018"
       y="577.37421"
       height="10.999983"
       style="fill:#ffffff"
       id="rect4035-67-0" />
    <rect
       width="0"
       x="160.2494"
       y="576.37421"
       height="10.999983"
       style="fill:#ffffff"
       id="rect4035-4-62" />
    <rect
       width="0"
       x="158.71355"
       y="576.26038"
       height="11.1139"
       style="fill:#fbd2bf"
       id="rect4035-3-91" />
    <rect
       width="0"
       x="160.2494"
       y="576.37421"
       height="10.999983"
       style="fill:#fbd2bf"
       id="rect4035-1-27" />
    <rect
       width="0"
       x="160.2494"
       y="576.37421"
       height="10.999983"
       style="fill:#fbfbfb"
       id="rect4035-5-0" />
    <rect
       width="0"
       x="160.2494"
       y="576.37421"
       height="10.999983"
       style="fill:#fffcf9"
       id="rect4035-8-9" />
    <rect
       width="0"
       x="160.57018"
       y="537.37421"
       height="10.999983"
       style="fill:#ffffff"
       id="rect4035-6-6" />
    <rect
       width="0"
       x="160.2494"
       y="536.37421"
       height="10.999983"
       style="fill:#ffffff"
       id="rect4035-4-2-2" />
    <rect
       width="0"
       x="158.71355"
       y="536.26038"
       height="11.1139"
       style="fill:#fbd2bf"
       id="rect4035-3-9-6" />
    <rect
       width="0"
       x="160.2494"
       y="536.37421"
       height="10.999983"
       style="fill:#fbd2bf"
       id="rect4035-1-1-1" />
    <rect
       width="0"
       x="160.2494"
       y="536.37421"
       height="10.999983"
       style="fill:#fbfbfb"
       id="rect4035-5-2-8" />
    <rect
       width="0"
       x="160.2494"
       y="536.37421"
       height="10.999983"
       style="fill:#fffcf9"
       id="rect4035-8-7-7" />
    <rect
       width="0"
       x="160.2494"
       y="536.37421"
       height="10.999983"
       style="fill:#e8d9eb"
       id="rect4035-44-92" />
    <rect
       width="0"
       x="120.57018"
       y="537.37421"
       height="10.999983"
       style="fill:#ffffff"
       id="rect4035-62-0" />
    <rect
       width="0"
       x="120.2494"
       y="536.37421"
       height="10.999983"
       style="fill:#ffffff"
       id="rect4035-4-9-2" />
    <rect
       width="0"
       x="118.71355"
       y="536.26038"
       height="11.1139"
       style="fill:#fbd2bf"
       id="rect4035-3-1-3" />
    <rect
       width="0"
       x="120.2494"
       y="536.37421"
       height="10.999983"
       style="fill:#fbd2bf"
       id="rect4035-1-2-7" />
    <rect
       width="0"
       x="120.2494"
       y="536.37421"
       height="10.999983"
       style="fill:#fbfbfb"
       id="rect4035-5-7-5" />
    <rect
       width="0"
       x="120.2494"
       y="536.37421"
       height="10.999983"
       style="fill:#fffcf9"
       id="rect4035-8-0-9" />
    <rect
       width="0"
       x="120.2494"
       y="536.37421"
       height="10.999983"
       style="fill:#e8d9eb"
       id="rect4035-44-9-2" />
    <rect
       width="0"
       x="120.2494"
       y="536.37421"
       height="10.999983"
       style="fill:#e8d9eb"
       id="rect4035-7-6" />
    <rect
       width="0"
       x="121.51933"
       y="537.37421"
       height="10.999983"
       style="fill:#ffffff"
       id="rect4035-36-2" />
    <rect
       width="0"
       x="121.19856"
       y="536.37421"
       height="10.999983"
       style="fill:#ffffff"
       id="rect4035-4-0-8" />
    <rect
       width="0"
       x="119.6627"
       y="536.26038"
       height="11.1139"
       style="fill:#fbd2bf"
       id="rect4035-3-6-9" />
    <rect
       width="0"
       x="121.19856"
       y="536.37421"
       height="10.999983"
       style="fill:#fbd2bf"
       id="rect4035-1-26-7" />
    <rect
       width="0"
       x="121.19856"
       y="536.37421"
       height="10.999983"
       style="fill:#fbfbfb"
       id="rect4035-5-1-3" />
    <rect
       width="0"
       x="121.19856"
       y="536.37421"
       height="10.999983"
       style="fill:#fffcf9"
       id="rect4035-8-8-6" />
    <rect
       width="0"
       x="121.19856"
       y="536.37421"
       height="10.999983"
       style="fill:#e8d9eb"
       id="rect4035-44-7-1" />
    <rect
       width="0"
       x="121.19856"
       y="536.37421"
       height="10.999983"
       style="fill:#e8d9eb"
       id="rect4035-7-9-2" />
    <rect
       width="0"
       x="375.89221"
       y="566.79797"
       height="10.999983"
       style="fill:#ffffff"
       id="rect4035-47" />
    <rect
       width="0"
       x="375.57144"
       y="565.79797"
       height="10.999983"
       style="fill:#ffffff"
       id="rect4035-4-8" />
    <rect
       width="0"
       x="374.03558"
       y="565.68414"
       height="11.1139"
       style="fill:#fbd2bf"
       id="rect4035-3-4" />
    <rect
       width="0"
       x="375.57144"
       y="565.79797"
       height="10.999983"
       style="fill:#fbd2bf"
       id="rect4035-1-50" />
    <rect
       width="0"
       x="375.57144"
       y="565.79797"
       height="10.999983"
       style="fill:#fbfbfb"
       id="rect4035-5-36" />
    <rect
       width="0"
       x="375.57144"
       y="565.79797"
       height="10.999983"
       style="fill:#fffcf9"
       id="rect4035-8-1" />
    <rect
       width="0"
       x="375.89221"
       y="566.79797"
       height="10.999983"
       style="fill:#ffffff"
       id="rect4035-7-0" />
    <rect
       width="0"
       x="375.57144"
       y="565.79797"
       height="10.999983"
       style="fill:#ffffff"
       id="rect4035-4-5-6" />
    <rect
       width="0"
       x="374.03558"
       y="565.68414"
       height="11.1139"
       style="fill:#fbd2bf"
       id="rect4035-3-3-3" />
    <rect
       width="0"
       x="375.57144"
       y="565.79797"
       height="10.999983"
       style="fill:#fbd2bf"
       id="rect4035-1-5-2" />
    <rect
       width="0"
       x="375.57144"
       y="565.79797"
       height="10.999983"
       style="fill:#fbfbfb"
       id="rect4035-5-6" />
    <rect
       width="0"
       x="375.57144"
       y="565.79797"
       height="10.999983"
       style="fill:#fffcf9"
       id="rect4035-8-2-0" />
    <rect
       width="0"
       x="375.89221"
       y="526.79797"
       height="10.999983"
       style="fill:#ffffff"
       id="rect4035-6-61" />
    <rect
       width="0"
       x="375.57144"
       y="525.79797"
       height="10.999983"
       style="fill:#ffffff"
       id="rect4035-4-2-5" />
    <rect
       width="0"
       x="374.03558"
       y="525.68414"
       height="11.1139"
       style="fill:#fbd2bf"
       id="rect4035-3-9-5" />
    <rect
       width="0"
       x="375.57144"
       y="525.79797"
       height="10.999983"
       style="fill:#fbd2bf"
       id="rect4035-1-1-4" />
    <rect
       width="0"
       x="375.57144"
       y="525.79797"
       height="10.999983"
       style="fill:#fbfbfb"
       id="rect4035-5-2-7" />
    <rect
       width="0"
       x="375.57144"
       y="525.79797"
       height="10.999983"
       style="fill:#fffcf9"
       id="rect4035-8-7-65" />
    <rect
       width="0"
       x="375.57144"
       y="525.79797"
       height="10.999983"
       style="fill:#e8d9eb"
       id="rect4035-44-6" />
    <rect
       width="0"
       x="375.57135"
       y="565.79791"
       height="10.999983"
       style="fill:#036b53"
       id="rect4035-12" />
    <rect
       width="0"
       x="375.89212"
       y="566.79791"
       height="10.999983"
       style="fill:#ffffff"
       id="rect4035-67-9" />
    <rect
       width="0"
       x="375.57135"
       y="565.79791"
       height="10.999983"
       style="fill:#ffffff"
       id="rect4035-4-7" />
    <rect
       width="0"
       x="374.03549"
       y="565.68408"
       height="11.1139"
       style="fill:#fbd2bf"
       id="rect4035-3-0" />
    <rect
       width="0"
       x="375.57135"
       y="565.79791"
       height="10.999983"
       style="fill:#fbd2bf"
       id="rect4035-1-9-37" />
    <rect
       width="0"
       x="375.57135"
       y="565.79791"
       height="10.999983"
       style="fill:#fbfbfb"
       id="rect4035-5-3" />
    <rect
       width="0"
       x="375.57135"
       y="565.79791"
       height="10.999983"
       style="fill:#fffcf9"
       id="rect4035-8-6" />
    <rect
       width="0"
       x="375.89212"
       y="526.79791"
       height="10.999983"
       style="fill:#ffffff"
       id="rect4035-6-0" />
    <rect
       width="0"
       x="375.57135"
       y="525.79791"
       height="10.999983"
       style="fill:#ffffff"
       id="rect4035-4-2-6-4" />
    <rect
       width="0"
       x="374.03549"
       y="525.68408"
       height="11.1139"
       style="fill:#fbd2bf"
       id="rect4035-3-9-2" />
    <rect
       width="0"
       x="375.57135"
       y="525.79791"
       height="10.999983"
       style="fill:#fbd2bf"
       id="rect4035-1-1-6-5" />
    <rect
       width="0"
       x="375.57135"
       y="525.79791"
       height="10.999983"
       style="fill:#fbfbfb"
       id="rect4035-5-2-1" />
    <rect
       width="0"
       x="375.57135"
       y="525.79791"
       height="10.999983"
       style="fill:#fffcf9"
       id="rect4035-8-7-8" />
    <rect
       width="0"
       x="375.57135"
       y="525.79791"
       height="10.999983"
       style="fill:#e8d9eb"
       id="rect4035-44-79" />
    <rect
       width="0"
       x="335.89212"
       y="526.79791"
       height="10.999983"
       style="fill:#ffffff"
       id="rect4035-62-2" />
    <rect
       width="0"
       x="335.57135"
       y="525.79791"
       height="10.999983"
       style="fill:#ffffff"
       id="rect4035-4-9-5" />
    <rect
       width="0"
       x="334.03549"
       y="525.68408"
       height="11.1139"
       style="fill:#fbd2bf"
       id="rect4035-3-1-4" />
    <rect
       width="0"
       x="335.57135"
       y="525.79791"
       height="10.999983"
       style="fill:#fbd2bf"
       id="rect4035-1-2-74" />
    <rect
       width="0"
       x="335.57135"
       y="525.79791"
       height="10.999983"
       style="fill:#fbfbfb"
       id="rect4035-5-7-4" />
    <rect
       width="0"
       x="335.57135"
       y="525.79791"
       height="10.999983"
       style="fill:#fffcf9"
       id="rect4035-8-0-3" />
    <rect
       width="0"
       x="335.57135"
       y="525.79791"
       height="10.999983"
       style="fill:#e8d9eb"
       id="rect4035-44-9-0" />
    <rect
       width="0"
       x="335.57135"
       y="525.79791"
       height="10.999983"
       style="fill:#e8d9eb"
       id="rect4035-7-2" />
    <rect
       width="0"
       x="336.84128"
       y="526.79791"
       height="10.999983"
       style="fill:#ffffff"
       id="rect4035-36-7" />
    <rect
       width="0"
       x="336.52051"
       y="525.79791"
       height="10.999983"
       style="fill:#ffffff"
       id="rect4035-4-0-86" />
    <rect
       width="0"
       x="334.98465"
       y="525.68408"
       height="11.1139"
       style="fill:#fbd2bf"
       id="rect4035-3-6-8" />
    <rect
       width="0"
       x="336.52051"
       y="525.79791"
       height="10.999983"
       style="fill:#fbd2bf"
       id="rect4035-1-26-8" />
    <rect
       width="0"
       x="336.52051"
       y="525.79791"
       height="10.999983"
       style="fill:#fbfbfb"
       id="rect4035-5-1-4" />
    <rect
       width="0"
       x="336.52051"
       y="525.79791"
       height="10.999983"
       style="fill:#fffcf9"
       id="rect4035-8-8-3" />
    <rect
       width="0"
       x="336.52051"
       y="525.79791"
       height="10.999983"
       style="fill:#e8d9eb"
       id="rect4035-44-7-14" />
    <rect
       width="0"
       x="336.52051"
       y="525.79791"
       height="10.999983"
       style="fill:#e8d9eb"
       id="rect4035-7-9-9" />
    <path
       sodipodi:nodetypes="cccccccc"
       inkscape:export-ydpi="96"
       inkscape:export-xdpi="96"
       inkscape:connector-curvature="0"
       style="color:#000000;clip-rule:nonzero;display:inline;overflow:visible;visibility:visible;opacity:1;isolation:auto;mix-blend-mode:normal;color-interpolation:sRGB;color-interpolation-filters:linearRGB;solid-color:#000000;solid-opacity:1;fill:#35bedc;fill-opacity:1;fill-rule:nonzero;stroke-width:1;stroke-linecap:butt;stroke-linejoin:miter;stroke-miterlimit:4;stroke-dasharray:none;stroke-dashoffset:0;stroke-opacity:1;color-rendering:auto;image-rendering:auto;shape-rendering:auto;text-rendering:auto;enable-background:accumulate"
       id="path4211"
       d="m 389.57133,545.79795 0,-28 15,0 7.00001,7 0,0 0,21 -14.00001,0 z" />
    <path
       style="color:#000000;clip-rule:nonzero;display:inline;overflow:visible;visibility:visible;opacity:0.3;isolation:auto;mix-blend-mode:normal;color-interpolation:sRGB;color-interpolation-filters:linearRGB;solid-color:#000000;solid-opacity:1;fill:#ffffff;fill-opacity:1;fill-rule:nonzero;stroke-width:1;stroke-linecap:butt;stroke-linejoin:miter;stroke-miterlimit:4;stroke-dasharray:none;stroke-dashoffset:0;stroke-opacity:1;color-rendering:auto;image-rendering:auto;shape-rendering:auto;text-rendering:auto;enable-background:accumulate"
       d="M 6.9980469 2 L 6.9980469 3.9980469 L 5 3.9980469 L 5 4.9980469 L 5.9980469 4.9980469 L 6.9980469 4.9980469 L 6.9980469 5.9980469 L 6.9980469 6.9980469 L 5 6.9980469 L 5 7.9980469 L 6.9980469 7.9980469 L 6.9980469 9.9980469 L 5 9.9980469 L 5 10.998047 L 6.9980469 10.998047 L 6.9980469 12.998047 L 5 12.998047 L 5 13.998047 L 6.9980469 13.998047 L 6.9980469 15.998047 L 5 15.998047 L 5 16.998047 L 6.9980469 16.998047 L 6.9980469 18.998047 L 5 18.998047 L 5 19.998047 L 5.9980469 19.998047 L 6.9980469 19.998047 L 6.9980469 20.998047 L 6.9980469 21.998047 L 5 21.998047 L 5 22.998047 L 6.9980469 22.998047 L 6.9980469 23.998047 L 6.9980469 24.998047 L 5 24.998047 L 5 25.998047 L 6.9980469 25.998047 L 6.9980469 26.998047 L 6.9980469 27.998047 L 5 27.998047 L 5 28.998047 L 6.9980469 28.998047 L 6.9980469 29.998047 L 6.9980469 30 L 7.9980469 30 L 7.9980469 28.998047 L 9.9980469 28.998047 L 9.9980469 30 L 10.998047 30 L 10.998047 28.998047 L 12.998047 28.998047 L 12.998047 30 L 13 30 L 13.998047 30 L 13.998047 28.998047 L 15.998047 28.998047 L 15.998047 30 L 16.998047 30 L 16.998047 28.998047 L 18.998047 28.998047 L 18.998047 30 L 19.998047 30 L 19.998047 28.998047 L 21.998047 28.998047 L 21.998047 30 L 22.998047 30 L 22.998047 28.998047 L 24.998047 28.998047 L 24.998047 30 L 25.998047 30 L 25.998047 28.998047 L 26.998047 28.998047 L 27 28.998047 L 27 27.998047 L 26.998047 27.998047 L 25.998047 27.998047 L 25.998047 26.998047 L 25.998047 25.998047 L 26.998047 25.998047 L 27 25.998047 L 27 24.998047 L 26.998047 24.998047 L 25.998047 24.998047 L 25.998047 23.998047 L 25.998047 22.998047 L 26.998047 22.998047 L 27 22.998047 L 27 21.998047 L 26.998047 21.998047 L 25.998047 21.998047 L 25.998047 19.998047 L 26.998047 19.998047 L 27 19.998047 L 27 18.998047 L 26.998047 18.998047 L 25.998047 18.998047 L 25.998047 16.998047 L 26.998047 16.998047 L 27 16.998047 L 27 15.998047 L 26.998047 15.998047 L 25.998047 15.998047 L 25.998047 13.998047 L 26.998047 13.998047 L 27 13.998047 L 27 12.998047 L 26.998047 12.998047 L 25.998047 12.998047 L 25.998047 10.998047 L 27 10.998047 L 27 9.9980469 L 25.998047 9.9980469 L 25.998047 9 L 24.998047 9 L 24.998047 9.9980469 L 22.998047 9.9980469 L 22.998047 9 L 21.998047 9 L 21.998047 9.9980469 L 19.998047 9.9980469 L 19.998047 7.9980469 L 20 7.9980469 L 20 6.9980469 L 19.998047 6.9980469 L 19.998047 4.9980469 L 20 4.9980469 L 20 3.9980469 L 19.998047 3.9980469 L 19.998047 2 L 18.998047 2 L 18.998047 3.9980469 L 16.998047 3.9980469 L 16.998047 2 L 15.998047 2 L 15.998047 3.9980469 L 13.998047 3.9980469 L 13.998047 2 L 12.998047 2 L 12.998047 3.9980469 L 10.998047 3.9980469 L 10.998047 2 L 9.9980469 2 L 9.9980469 3.9980469 L 7.9980469 3.9980469 L 7.9980469 2 L 6.9980469 2 z M 7.9980469 4.9980469 L 9.9980469 4.9980469 L 9.9980469 6.9980469 L 7.9980469 6.9980469 L 7.9980469 4.9980469 z M 10.998047 4.9980469 L 12.998047 4.9980469 L 12.998047 6.9980469 L 10.998047 6.9980469 L 10.998047 4.9980469 z M 13.998047 4.9980469 L 15.998047 4.9980469 L 15.998047 6.9980469 L 13.998047 6.9980469 L 13.998047 4.9980469 z M 16.998047 4.9980469 L 18.998047 4.9980469 L 18.998047 6.9980469 L 16.998047 6.9980469 L 16.998047 4.9980469 z M 7.9980469 7.9980469 L 8.9980469 7.9980469 L 9.9980469 7.9980469 L 9.9980469 8.9980469 L 9.9980469 9.9980469 L 7.9980469 9.9980469 L 7.9980469 7.9980469 z M 10.998047 7.9980469 L 12.998047 7.9980469 L 12.998047 9.9980469 L 10.998047 9.9980469 L 10.998047 7.9980469 z M 13.998047 7.9980469 L 15.998047 7.9980469 L 15.998047 9.9980469 L 13.998047 9.9980469 L 13.998047 7.9980469 z M 16.998047 7.9980469 L 18.998047 7.9980469 L 18.998047 9.9980469 L 16.998047 9.9980469 L 16.998047 7.9980469 z M 7.9980469 10.998047 L 9.9980469 10.998047 L 9.9980469 12.998047 L 7.9980469 12.998047 L 7.9980469 10.998047 z M 10.998047 10.998047 L 12.998047 10.998047 L 12.998047 12.998047 L 10.998047 12.998047 L 10.998047 10.998047 z M 13.998047 10.998047 L 15.998047 10.998047 L 15.998047 12.998047 L 13.998047 12.998047 L 13.998047 10.998047 z M 16.998047 10.998047 L 18.998047 10.998047 L 18.998047 12.998047 L 16.998047 12.998047 L 16.998047 10.998047 z M 19.998047 10.998047 L 21.998047 10.998047 L 21.998047 11.998047 L 21.998047 12.998047 L 20.998047 12.998047 L 19.998047 12.998047 L 19.998047 10.998047 z M 22.998047 10.998047 L 24.998047 10.998047 L 24.998047 11.998047 L 24.998047 12.998047 L 22.998047 12.998047 L 22.998047 10.998047 z M 7.9980469 13.998047 L 9.9980469 13.998047 L 9.9980469 15.998047 L 7.9980469 15.998047 L 7.9980469 13.998047 z M 10.998047 13.998047 L 12.998047 13.998047 L 12.998047 15.998047 L 10.998047 15.998047 L 10.998047 13.998047 z M 13.998047 13.998047 L 15.998047 13.998047 L 15.998047 15.998047 L 13.998047 15.998047 L 13.998047 13.998047 z M 16.998047 13.998047 L 18.998047 13.998047 L 18.998047 15.998047 L 16.998047 15.998047 L 16.998047 13.998047 z M 19.998047 13.998047 L 20.998047 13.998047 L 21.998047 13.998047 L 21.998047 15.998047 L 20.998047 15.998047 L 19.998047 15.998047 L 19.998047 13.998047 z M 22.998047 13.998047 L 24.998047 13.998047 L 24.998047 15.998047 L 22.998047 15.998047 L 22.998047 13.998047 z M 7.9980469 16.998047 L 9.9980469 16.998047 L 9.9980469 18.998047 L 7.9980469 18.998047 L 7.9980469 16.998047 z M 10.998047 16.998047 L 12.998047 16.998047 L 12.998047 18.998047 L 10.998047 18.998047 L 10.998047 16.998047 z M 13.998047 16.998047 L 15.998047 16.998047 L 15.998047 18.998047 L 13.998047 18.998047 L 13.998047 16.998047 z M 16.998047 16.998047 L 18.998047 16.998047 L 18.998047 18.998047 L 16.998047 18.998047 L 16.998047 16.998047 z M 19.998047 16.998047 L 20.998047 16.998047 L 21.998047 16.998047 L 21.998047 18.998047 L 20.998047 18.998047 L 19.998047 18.998047 L 19.998047 16.998047 z M 22.998047 16.998047 L 24.998047 16.998047 L 24.998047 18.998047 L 22.998047 18.998047 L 22.998047 16.998047 z M 7.9980469 19.998047 L 9.9980469 19.998047 L 9.9980469 21.998047 L 7.9980469 21.998047 L 7.9980469 19.998047 z M 10.998047 19.998047 L 12.998047 19.998047 L 12.998047 21.998047 L 10.998047 21.998047 L 10.998047 19.998047 z M 13.998047 19.998047 L 15.998047 19.998047 L 15.998047 21.998047 L 13.998047 21.998047 L 13.998047 19.998047 z M 16.998047 19.998047 L 18.998047 19.998047 L 18.998047 21.998047 L 16.998047 21.998047 L 16.998047 19.998047 z M 19.998047 19.998047 L 20.998047 19.998047 L 21.998047 19.998047 L 21.998047 21.998047 L 20.998047 21.998047 L 19.998047 21.998047 L 19.998047 19.998047 z M 22.998047 19.998047 L 24.998047 19.998047 L 24.998047 21.998047 L 22.998047 21.998047 L 22.998047 19.998047 z M 7.9980469 22.998047 L 8.9980469 22.998047 L 9.9980469 22.998047 L 9.9980469 23.998047 L 9.9980469 24.998047 L 7.9980469 24.998047 L 7.9980469 23.998047 L 7.9980469 22.998047 z M 10.998047 22.998047 L 12.998047 22.998047 L 12.998047 23.998047 L 12.998047 24.998047 L 10.998047 24.998047 L 10.998047 23.998047 L 10.998047 22.998047 z M 13.998047 22.998047 L 15.998047 22.998047 L 15.998047 23.998047 L 15.998047 24.998047 L 13.998047 24.998047 L 13.998047 23.998047 L 13.998047 22.998047 z M 16.998047 22.998047 L 18.998047 22.998047 L 18.998047 23.998047 L 18.998047 24.998047 L 16.998047 24.998047 L 16.998047 23.998047 L 16.998047 22.998047 z M 19.998047 22.998047 L 20.998047 22.998047 L 21.998047 22.998047 L 21.998047 23.998047 L 21.998047 24.998047 L 20.998047 24.998047 L 19.998047 24.998047 L 19.998047 23.998047 L 19.998047 22.998047 z M 22.998047 22.998047 L 24.998047 22.998047 L 24.998047 23.998047 L 24.998047 24.998047 L 22.998047 24.998047 L 22.998047 23.998047 L 22.998047 22.998047 z M 7.9980469 25.998047 L 9.9980469 25.998047 L 9.9980469 26.998047 L 9.9980469 27.998047 L 7.9980469 27.998047 L 7.9980469 26.998047 L 7.9980469 25.998047 z M 10.998047 25.998047 L 12.998047 25.998047 L 12.998047 26.998047 L 12.998047 27.998047 L 10.998047 27.998047 L 10.998047 26.998047 L 10.998047 25.998047 z M 13.998047 25.998047 L 15.998047 25.998047 L 15.998047 26.998047 L 15.998047 27.998047 L 13.998047 27.998047 L 13.998047 26.998047 L 13.998047 25.998047 z M 16.998047 25.998047 L 18.998047 25.998047 L 18.998047 26.998047 L 18.998047 27.998047 L 16.998047 27.998047 L 16.998047 26.998047 L 16.998047 25.998047 z M 19.998047 25.998047 L 20.998047 25.998047 L 21.998047 25.998047 L 21.998047 26.998047 L 21.998047 27.998047 L 19.998047 27.998047 L 19.998047 26.998047 L 19.998047 25.998047 z M 22.998047 25.998047 L 24.998047 25.998047 L 24.998047 26.998047 L 24.998047 27.998047 L 22.998047 27.998047 L 22.998047 26.998047 L 22.998047 25.998047 z "
       transform="translate(384.57143,515.798)"
       id="path4274" />
    <rect
       width="14.999983"
       x="389.57135"
       y="-518.79791"
       height="0.999973"
       style="color:#000000;clip-rule:nonzero;display:inline;overflow:visible;visibility:visible;opacity:0.5;isolation:auto;mix-blend-mode:normal;color-interpolation:sRGB;color-interpolation-filters:linearRGB;solid-color:#000000;solid-opacity:1;fill:#ffffff;fill-opacity:1;fill-rule:nonzero;stroke-width:1;stroke-linecap:butt;stroke-linejoin:miter;stroke-miterlimit:4;stroke-dasharray:none;stroke-dashoffset:0;stroke-opacity:1;color-rendering:auto;image-rendering:auto;shape-rendering:auto;text-rendering:auto;enable-background:accumulate"
       id="rect4169-9"
       transform="scale(1,-1)" />
    <rect
       width="21.999994"
       x="389.57135"
       y="-545.79791"
       height="1.00003"
       style="color:#000000;clip-rule:nonzero;display:inline;overflow:visible;visibility:visible;opacity:0.25;isolation:auto;mix-blend-mode:normal;color-interpolation:sRGB;color-interpolation-filters:linearRGB;solid-color:#000000;solid-opacity:1;fill:#000000;fill-opacity:1;fill-rule:nonzero;stroke-width:1;stroke-linecap:butt;stroke-linejoin:miter;stroke-miterlimit:4;stroke-dasharray:none;stroke-dashoffset:0;stroke-opacity:1;color-rendering:auto;image-rendering:auto;shape-rendering:auto;text-rendering:auto;enable-background:accumulate"
       id="rect4236-1"
       transform="scale(1,-1)" />
    <path
       inkscape:export-ydpi="96"
       inkscape:export-xdpi="96"
       inkscape:connector-curvature="0"
       style="opacity:0.1;fill:url(#linearGradient4257);fill-rule:evenodd"
       id="path4255"
       d="m 404.57133,524.79795 7.00001,7 0,-7 z"
       sodipodi:nodetypes="cccc" />
    <path
       inkscape:connector-curvature="0"
       id="path4459"
       d="m 395.57133,525.79795 0,3 1,0 0,1.65039 a 1.5000058,1.5000058 0 0 0 -1,1.41211 1.5000058,1.5000058 0 0 0 1,1.41211 l 0,1.52539 -1,0 0,3 3,0 0,-1.80859 a 6.9999943,6 0 0 0 5,1.80859 l 0,-1 a 5.9999957,5.0000067 0 0 1 -5.76953,-3.63086 1.5000058,1.5000058 0 0 0 0.76953,-1.30664 1.5000058,1.5000058 0 0 0 -0.79883,-1.32227 5.9999957,5.0000067 0 0 1 5.79883,-3.74023 l 0,-1 a 6.9999943,6 0 0 0 -5,1.80273 l 0,-1.80273 -3,0 z m 1,1 1,0 0,1 -1,0 0,-1 z m 0,9 1,0 0,1 -1,0 0,-1 z"
       style="color:#4d4d4d;clip-rule:nonzero;display:inline;overflow:visible;visibility:visible;opacity:0.9;isolation:auto;mix-blend-mode:normal;color-interpolation:sRGB;color-interpolation-filters:linearRGB;solid-color:#000000;solid-opacity:1;fill:#ffffff;fill-opacity:1;fill-rule:evenodd;stroke:none;stroke-width:1;stroke-linecap:butt;stroke-linejoin:miter;stroke-miterlimit:4;stroke-dasharray:none;stroke-dashoffset:0;stroke-opacity:1;marker:none;color-rendering:auto;image-rendering:auto;shape-rendering:auto;text-rendering:auto;enable-background:accumulate" />
    <path
       inkscape:connector-curvature="0"
       style="color:#000000;clip-rule:nonzero;display:inline;overflow:visible;visibility:visible;opacity:0.5;isolation:auto;mix-blend-mode:normal;color-interpolation:sRGB;color-interpolation-filters:linearRGB;solid-color:#000000;solid-opacity:1;fill:#ffffff;fill-opacity:1;fill-rule:evenodd;stroke-width:1;stroke-linecap:butt;stroke-linejoin:miter;stroke-miterlimit:4;stroke-dasharray:none;stroke-dashoffset:0;stroke-opacity:1;color-rendering:auto;image-rendering:auto;shape-rendering:auto;text-rendering:auto;enable-background:accumulate"
       id="path4314-2"
       d="m 411.57134,524.79792 -7.00001,-7 0,7 z" />
    <path
       d="m 389.57133,545.79795 0,-28 15,0 7.00001,7 0,0 0,21 -14.00001,0 z"
       id="path7628-2"
       style="fill:url(#linearGradient4178);fill-opacity:1"
       inkscape:connector-curvature="0"
       inkscape:export-xdpi="96"
       inkscape:export-ydpi="96"
       sodipodi:nodetypes="cccccccc" />
  </g>
</svg>
