<?xml version="1.0" encoding="UTF-8" standalone="no"?>
<!-- Created with Inkscape (http://www.inkscape.org/) -->

<svg
   xmlns:dc="http://purl.org/dc/elements/1.1/"
   xmlns:cc="http://creativecommons.org/ns#"
   xmlns:rdf="http://www.w3.org/1999/02/22-rdf-syntax-ns#"
   xmlns:svg="http://www.w3.org/2000/svg"
   xmlns="http://www.w3.org/2000/svg"
   xmlns:xlink="http://www.w3.org/1999/xlink"
   xmlns:sodipodi="http://sodipodi.sourceforge.net/DTD/sodipodi-0.dtd"
   xmlns:inkscape="http://www.inkscape.org/namespaces/inkscape"
   width="32"
   version="1.1"
   height="32"
   id="svg2"
   inkscape:version="0.91 r13725"
   sodipodi:docname="application-pdf.svg">
  <sodipodi:namedview
     pagecolor="#ffffff"
     bordercolor="#666666"
     borderopacity="1"
     objecttolerance="10"
     gridtolerance="10"
     guidetolerance="10"
     inkscape:pageopacity="0"
     inkscape:pageshadow="2"
     inkscape:window-width="1360"
     inkscape:window-height="708"
     id="namedview30"
     showgrid="true"
     inkscape:object-nodes="true"
     inkscape:zoom="14.75"
     inkscape:cx="2.3979895"
     inkscape:cy="16.555257"
     inkscape:window-x="0"
     inkscape:window-y="0"
     inkscape:window-maximized="1"
     inkscape:current-layer="layer1">
    <inkscape:grid
       type="xygrid"
       id="grid4158" />
  </sodipodi:namedview>
  <defs
     id="defs5455">
    <linearGradient
       inkscape:collect="always"
       xlink:href="#linearGradient6251"
       id="linearGradient4306-3-3"
       y1="61"
       y2="3"
       x2="0"
       gradientUnits="userSpaceOnUse"
       gradientTransform="matrix(0.49999977,0,0,-0.48275841,384.57144,547.24623)" />
    <linearGradient
       id="linearGradient6251"
       inkscape:collect="always">
      <stop
         id="stop6253"
         offset="0"
         style="stop-color:#ffffff;stop-opacity:0" />
      <stop
         id="stop6255"
         offset="1"
         style="stop-color:#ffffff;stop-opacity:0.2" />
    </linearGradient>
  </defs>
  <metadata
     id="metadata5458">
    <rdf:RDF>
      <cc:Work
         rdf:about="">
        <dc:format>image/svg+xml</dc:format>
        <dc:type
           rdf:resource="http://purl.org/dc/dcmitype/StillImage" />
      </cc:Work>
    </rdf:RDF>
  </metadata>
  <g
     inkscape:label="Capa 1"
     inkscape:groupmode="layer"
     id="layer1"
     transform="matrix(1 0 0 1 -384.57143 -515.798)">
    <path
       inkscape:connector-curvature="0"
       style="fill:#da2c2c;fill-opacity:1"
       id="rect3500"
       d="m 389.57144,517.79801 0,27.99999 14.99999,0 7,0 0,-21.24137 0,-6.75862 -7,0 z"
       sodipodi:nodetypes="cccccccc" />
    <rect
       width="0"
       x="375.89221"
       y="526.79797"
       height="10.999983"
       style="fill:#ffffff"
       id="rect4035" />
    <rect
       width="0"
       x="375.57144"
       y="525.79797"
       height="10.999983"
       style="fill:#ffffff"
       id="rect4035-4" />
    <rect
       width="0"
       x="374.03558"
       y="525.68414"
       height="11.1139"
       style="fill:#fbd2bf"
       id="rect4035-3" />
    <rect
       width="0"
       x="375.57144"
       y="525.79797"
       height="10.999983"
       style="fill:#fbd2bf"
       id="rect4035-1" />
    <rect
       width="0"
       x="375.57144"
       y="525.79797"
       height="10.999983"
       style="fill:#fbfbfb"
       id="rect4035-5" />
    <path
       inkscape:label="Capa 1"
       inkscape:connector-curvature="0"
       style="opacity:0.8;fill:#ffffff;fill-opacity:1"
       id="path26"
       d="m 398.43449,527.798 c -0.16212,0.01 -0.33623,0 -0.52736,0.13226 -1.70517,0.73371 -0.56146,2.74658 1.61203,4.27882 0.013,-0.28865 0.13316,-0.91726 0.13016,-1.19389 -1.85427,-1.27125 -2.93902,-2.50883 -1.75721,-2.99947 1.24586,-0.51719 1.63253,0.89482 1.65455,2.94416 0.11608,0.12023 0.9202,0.65436 1.04228,0.73862 -0.045,-1.86899 -1.03869,-3.77666 -1.99334,-3.88487 -0.051,-0.01 -0.10708,-0.01 -0.16111,-0.01 m 1.73591,3.25165 -0.38799,-0.15109 -0.32168,0.21672 -0.0648,0.68201 0.40632,0.3116 0.16862,0.22623 c 1.25086,0.8299 2.31653,1.46913 3.71849,1.99714 l 0.87431,0.12985 0.5754,0 c 0.53036,-0.3127 0.21414,-0.43303 2.14147,-0.67349 l -2.17149,0.16832 c -1.67515,-0.64945 -3.3846,-1.58214 -4.93966,-2.59969 m 3.82249,2.72042 c 0.25117,0 2.21092,-0.17002 2.99045,-0.24216 0.77153,-0.12033 1.71918,-0.1564 1.54006,0.74563 0.20414,-0.48102 -0.26101,-1.29769 -0.92247,-1.44197 -1.0227,-0.22854 -2.64558,0.39817 -3.22898,0.59064 m 0.94025,0.24998 c -0.30421,0.12033 -0.9992,0.20729 -1.32742,0.3155 0.46532,0.24056 2.80157,1.10322 3.76623,0.92278 0.1541,0 0.80541,-0.4685 0.82142,-0.80535 -0.05,0.61338 -2.90599,0.1564 -3.26023,-0.44496 m 0.63543,0.011 c -0.25017,-0.12023 -1.4216,-0.11432 -1.68078,-0.2105 -1.46763,0.51339 -3.44173,1.7187 -4.8547,2.53167 l -0.40928,0.12033 c -0.0789,0.56148 -0.42489,0.75485 -0.7405,1.11845 l 0.47832,0.48112 0.37426,-0.61338 c 1.65413,-0.99822 4.92437,-2.61102 6.83168,-3.38561 m -6.83168,3.38561 c -0.20214,0.12023 -0.39527,0.24056 -0.5784,0.3608 -0.42429,1.20391 -0.91863,2.01447 -1.39095,1.9796 0.7295,0.34877 2.30077,-1.36993 2.83013,-2.98634 m -2.83013,2.98634 c -1.11276,-0.66147 1.24265,-1.86689 1.77001,-2.21686 0.11908,-0.33675 -0.20645,-0.89472 -0.10038,-1.29168 -1.66114,1.03438 -2.6433,2.53076 -2.08592,3.24032 0.1341,0.16843 0.27619,0.25259 0.41729,0.26461 m 1.61662,-2.51994 c 0.0774,-0.31 1.10347,-1.01505 1.28859,-1.12336 0.24826,-1.95426 0.26008,-2.14723 0.47095,-3.66645 -0.12608,-0.12023 -0.90215,-0.72519 -1.02223,-0.80935 -0.14902,1.62362 -0.42928,3.82385 -0.82555,5.29347" />
    <rect
       width="21.999989"
       x="389.57144"
       y="-518.79797"
       height="0.99997365"
       style="opacity:0.5;fill:#ffffff;fill-opacity:1"
       id="rect4169"
       transform="scale(1,-1)" />
    <rect
       width="21.999994"
       x="389.57144"
       y="-545.79797"
       height="1.00003"
       style="opacity:0.25;fill:#000000;fill-opacity:1"
       id="rect4236"
       transform="scale(1,-1)" />
    <rect
       id="rect5238-3"
       style="fill:#ffffff;fill-opacity:0.32057417"
       height="25.999977"
       y="518.79797"
       x="392.57144"
       width="1" />
    <rect
       width="1"
       x="393.57144"
       y="518.79797"
       height="25.999977"
       style="color:#000000;clip-rule:nonzero;display:inline;overflow:visible;visibility:visible;opacity:1;isolation:auto;mix-blend-mode:normal;color-interpolation:sRGB;color-interpolation-filters:linearRGB;solid-color:#000000;solid-opacity:1;fill:#000000;fill-opacity:0.05741625;fill-rule:nonzero;stroke-width:1;stroke-linecap:butt;stroke-linejoin:miter;stroke-miterlimit:4;stroke-dasharray:none;stroke-dashoffset:0;stroke-opacity:1;color-rendering:auto;image-rendering:auto;shape-rendering:auto;text-rendering:auto;enable-background:accumulate"
       id="rect5240-6" />
    <path
       inkscape:connector-curvature="0"
       style="fill:url(#linearGradient4306-3-3);fill-opacity:1"
       id="rect3500-2-5"
       d="m 389.57144,545.79796 0,-27.99999 14.99999,0 7,3e-5 0,21.24134 0,6.75862 -7,0 z"
       sodipodi:nodetypes="cccccccc" />
  </g>
</svg>
