<?xml version="1.0" encoding="UTF-8" standalone="no"?>
<!-- Created with Inkscape (http://www.inkscape.org/) -->

<svg
   xmlns:dc="http://purl.org/dc/elements/1.1/"
   xmlns:cc="http://creativecommons.org/ns#"
   xmlns:rdf="http://www.w3.org/1999/02/22-rdf-syntax-ns#"
   xmlns:svg="http://www.w3.org/2000/svg"
   xmlns="http://www.w3.org/2000/svg"
   xmlns:xlink="http://www.w3.org/1999/xlink"
   xmlns:sodipodi="http://sodipodi.sourceforge.net/DTD/sodipodi-0.dtd"
   xmlns:inkscape="http://www.inkscape.org/namespaces/inkscape"
   width="32"
   version="1.1"
   height="32"
   id="svg4180"
   inkscape:version="0.91 r13725"
   sodipodi:docname="application-x-trash-32.svg">
  <sodipodi:namedview
     pagecolor="#ffffff"
     bordercolor="#666666"
     borderopacity="1"
     objecttolerance="10"
     gridtolerance="10"
     guidetolerance="10"
     inkscape:pageopacity="0"
     inkscape:pageshadow="2"
     inkscape:window-width="1366"
     inkscape:window-height="699"
     id="namedview4206"
     showgrid="true"
     inkscape:zoom="20.85965"
     inkscape:cx="9.4997093"
     inkscape:cy="17.074725"
     inkscape:window-x="0"
     inkscape:window-y="0"
     inkscape:window-maximized="1"
     inkscape:current-layer="layer1">
    <inkscape:grid
       type="xygrid"
       id="grid4161" />
  </sodipodi:namedview>
  <defs
     id="defs5455">
    <linearGradient
       inkscape:collect="always"
       xlink:href="#linearGradient4300-3"
       id="linearGradient4306"
       y1="61"
       y2="3"
       x2="0"
       gradientUnits="userSpaceOnUse"
       gradientTransform="matrix(0.49999977,0,0,-0.48275841,384.57144,547.24623)" />
    <linearGradient
       inkscape:collect="always"
       id="linearGradient4300-3">
      <stop
         style="stop-color:#26c281"
         id="stop4302-0" />
      <stop
         offset="1"
         style="stop-color:#3fc380"
         id="stop4304-7" />
    </linearGradient>
    <linearGradient
       inkscape:collect="always"
       xlink:href="#linearGradient4351-4"
       id="linearGradient4357"
       y1="61"
       y2="47"
       x2="0"
       gradientUnits="userSpaceOnUse"
       gradientTransform="matrix(0.48275841,0,0,-0.48275841,385.26109,547.48761)" />
    <linearGradient
       inkscape:collect="always"
       id="linearGradient4351-4">
      <stop
         style="stop-color:#036b53"
         id="stop4353-0" />
      <stop
         offset="1"
         style="stop-color:#036b53"
         id="stop4355-2" />
    </linearGradient>
    <linearGradient
       inkscape:collect="always"
       xlink:href="#linearGradient4410"
       id="linearGradient4427"
       y1="31"
       x1="54"
       y2="16.500048"
       x2="39.500008"
       gradientUnits="userSpaceOnUse"
       gradientTransform="matrix(0,-0.48275841,-0.48275841,0,419.53694,550.86696)" />
    <linearGradient
       inkscape:collect="always"
       id="linearGradient4410">
      <stop
         style="stop-color:#383e51"
         id="stop4412" />
      <stop
         offset="1"
         style="stop-color:#655c6f;stop-opacity:0"
         id="stop4414" />
    </linearGradient>
  </defs>
  <metadata
     id="metadata5458">
    <rdf:RDF>
      <cc:Work
         rdf:about="">
        <dc:format>image/svg+xml</dc:format>
        <dc:type
           rdf:resource="http://purl.org/dc/dcmitype/StillImage" />
        <dc:title></dc:title>
      </cc:Work>
    </rdf:RDF>
  </metadata>
  <g
     inkscape:label="Capa 1"
     inkscape:groupmode="layer"
     id="layer1"
     transform="matrix(1 0 0 1 -384.57143 -515.798)">
    <path
       inkscape:connector-curvature="0"
       style="fill:url(#linearGradient4306)"
       id="rect3500"
       d="m 389.57144,545.79796 0,-27.99999 14.99999,0 7.00003,7 -3e-5,14.24137 0,6.75862 -7,0 z" />
    <rect
       width="14.999983"
       x="389.57144"
       y="-518.79797"
       height="0.999973"
       style="fill:#ffffff;fill-opacity:0.41176471"
       id="rect4169"
       transform="scale(1,-1)" />
    <rect
       width="21.999994"
       x="389.57144"
       y="-545.79797"
       height="1.00003"
       style="fill:#2e3132;fill-opacity:0.29411765"
       id="rect4236"
       transform="scale(1,-1)" />
    <path
       inkscape:connector-curvature="0"
       style="fill:url(#linearGradient4357);fill-rule:evenodd"
       id="path4314"
       d="m 411.57144,524.79797 -7.00001,-7 0,7 z" />
    <path
       inkscape:connector-curvature="0"
       style="opacity:0.2;fill:url(#linearGradient4427);fill-rule:evenodd"
       id="path4320"
       d="m 411.5714,531.798 -6.99997,-7 7,0 z" />
    <g
       id="g16"
       transform="matrix(0.12468238,0,0,0.12468238,411.52803,493.61991)"
       style="fill:#036b53;fill-opacity:1">
      <path
         d="m -119.09324,339.54433 c -0.97847,1.75743 -1.75741,4.40162 -1.75741,6.06765 0,0.38678 0,0.87871 0.0959,1.56119 l -12.22992,-21.03439 c -0.39157,-0.68247 -0.68307,-1.66155 -0.68307,-2.54384 0,-0.88321 0.2915,-1.95695 0.68307,-2.64062 l 5.87141,-10.27301 -6.55448,-3.71466 21.32799,-0.39486 10.36889,18.68559 -6.65094,-3.81501 -10.47286,18.10136 m 9.39433,-59.28635 c 1.85716,-3.232 4.89294,-4.9927 8.60758,-4.9927 4.01393,0 7.145572,1.86137 9.394319,5.67158 l 3.328474,5.57602 -11.547197,19.96185 -18.685586,-10.86023 8.903,-15.35712 m 1.36584,76.20734 c -5.57602,0 -10.17326,-4.59784 -10.17326,-10.17356 0,-1.56566 0.68696,-4.20927 1.66544,-5.87141 l 3.12743,-5.57601 23.191465,0 0,21.62158 -17.810775,0 m 18.592702,-76.80053 c -1.465908,-2.54025 -3.423141,-4.30574 -5.771645,-5.28481 l 24.066261,0 c 2.152868,0 3.814411,0.88321 4.796477,2.54834 l 5.96728,10.17356 6.455027,-3.81862 -10.3734,18.59272 -21.22522,-0.299 6.554481,-3.71464 -10.468663,-18.19725 m 37.083554,55.37368 c 2.931816,0 5.38009,-0.78284 7.433187,-2.34521 l -12.134384,21.13026 c -0.978474,1.66154 -2.735881,2.6406 -4.789592,2.6406 l -11.450418,0 0,7.53176 -10.956096,-18.29312 10.956096,-18.29911 0,7.63362 20.942105,0 m 9.386245,-17.61065 c 0.882595,1.56568 1.37392,3.22721 1.37392,4.98912 0,3.52291 -2.252639,7.24115 -5.380075,8.99975 -1.469799,0.78733 -3.526803,1.27807 -5.576024,1.27807 l -6.462511,0 -11.539696,-19.96185 18.68559,-10.6646 8.899095,15.36011"
         id="path20"
         inkscape:connector-curvature="0"
         style="fill:#036b53;fill-opacity:1" />
    </g>
  </g>
</svg>
