<svg version="1.1" viewBox="0 0 32 32" xmlns="http://www.w3.org/2000/svg" xmlns:xlink="http://www.w3.org/1999/xlink">
  <defs>
    <linearGradient id="linearGradient5" x1="4" x2="4" y1="30" y2="6" gradientUnits="userSpaceOnUse">
      <stop stop-color="#fff" stop-opacity="0" offset="0"/>
      <stop stop-color="#fff" stop-opacity="0.2" offset="1"/>
    </linearGradient>
  </defs>
<rect x="4" y="6" width="24" height="24" fill="#2f80ed"/>
<rect x="4" y="29" width="24" height="1" opacity=".25"/>
<rect x="4" y="6" width="24" height="1" fill="#fff" opacity=".5"/>
<path d="m20 7v1h1v-1zm1 1v1h1v-1zm0 1h-1v1h1zm0 1v1h1v-1zm0 1h-1v1h1zm0 1v1h1v-1zm0 1h-1v2h2v-1h-1z" fill="#fff" opacity=".75"/>
<path d="m6.498047 15.988281c-0.447077 0.0019-0.667176 0.544711-0.347656 0.857422l1.277343 1.277344c-0.919868 1.082549-1.425793 2.456367-1.427734 3.876953v6h12v-6c3.25e-4 -1.418684-0.502059-2.791591-1.417969-3.875l1.279297-1.279297c0.325295-0.317986 0.09148-0.869844-0.363281-0.857422-0.129762 0.0036-0.25303 0.05755-0.34375 0.150391l-1.285156 1.285156c-1.081048-0.916724-2.451734-1.421131-3.869141-1.423828-1.415933-5.8e-4 -2.78645 0.499613-3.869141 1.412109l-1.273437-1.273437c-0.09454-0.09665-0.224178-0.150904-0.359375-0.150391zm5.501953 1.011719c2.761424 0 5 2.238576 5 5v5h-10v-5c0-2.761424 2.238576-5 5-5zm-2 2c-0.552285 0-1 0.447715-1 1s0.447715 1 1 1 1-0.447715 1-1-0.447715-1-1-1zm4 0c-0.552285 0-1 0.447715-1 1s0.447715 1 1 1 1-0.447715 1-1-0.447715-1-1-1z" fill="#fff" opacity=".75"/>
<rect x="4" y="6" width="24" height="24" fill="url(#linearGradient5)"/>
</svg>
