<svg version="1.1" viewBox="0 0 32 32" xmlns="http://www.w3.org/2000/svg">
    <defs>
        <linearGradient id="a" x2="0" y1="392.36" y2="365.2" gradientTransform="translate(365.57 152.44)" gradientUnits="userSpaceOnUse">
            <stop stop-color="#fff" stop-opacity="0" offset="0"/>
            <stop stop-color="#fff" stop-opacity=".2" offset="1"/>
        </linearGradient>
    </defs>
    <g transform="translate(-384.57-515.8)">
        <g color="#000000" color-rendering="auto" image-rendering="auto" shape-rendering="auto" text-rendering="auto">
            <path d="m389.57 517.8v28h22v-28h-14z" fill="#da2c2c"/>
            <rect x="389.57" y="544.8" width="22" height="1" opacity=".25"/>
            <rect x="389.57" y="517.8" width="22" height="1" fill="#fff" opacity=".5"/>
        </g>
        <rect x="392.57" y="518.8" width="1" height="26" fill="#fff" fill-opacity=".252"/>
        <g color="#000000" color-rendering="auto" image-rendering="auto" shape-rendering="auto" text-rendering="auto">
            <rect x="393.57" y="518.8" width="1" height="26" fill-opacity=".083"/>
            <path d="m389.57 517.8v28h22v-28h-17z" fill="url(#a)"/>
        </g>
        <path d="m397.57 537.8c-0.554 0-1-0.446-1-1v-10c0-0.554 0.446-1 1-1h8c0.554 0 1 0.446 1 1v10c0 0.554-0.446 1-1 1zm0-1h8v-10h-8zm1-2v-1h6v1zm0-2v-1h6v1zm0-2v-1h6v1zm0-2v-1h6v1z" color="#000000" color-rendering="auto" fill="#f8d3d3" image-rendering="auto" shape-rendering="auto" text-rendering="auto"/>
    </g>
</svg>
