<?xml version="1.0" encoding="UTF-8" standalone="no"?>
<!-- Created with Inkscape (http://www.inkscape.org/) -->

<svg
   xmlns:dc="http://purl.org/dc/elements/1.1/"
   xmlns:cc="http://creativecommons.org/ns#"
   xmlns:rdf="http://www.w3.org/1999/02/22-rdf-syntax-ns#"
   xmlns:svg="http://www.w3.org/2000/svg"
   xmlns="http://www.w3.org/2000/svg"
   xmlns:xlink="http://www.w3.org/1999/xlink"
   xmlns:sodipodi="http://sodipodi.sourceforge.net/DTD/sodipodi-0.dtd"
   xmlns:inkscape="http://www.inkscape.org/namespaces/inkscape"
   width="32"
   version="1.1"
   height="32"
   id="svg2"
   inkscape:version="0.91 r13725"
   sodipodi:docname="audio-x-flac.svg">
  <sodipodi:namedview
     pagecolor="#ffffff"
     bordercolor="#666666"
     borderopacity="1"
     objecttolerance="10"
     gridtolerance="10"
     guidetolerance="10"
     inkscape:pageopacity="0"
     inkscape:pageshadow="2"
     inkscape:window-width="1920"
     inkscape:window-height="1025"
     id="namedview26"
     showgrid="false"
     inkscape:zoom="7.375"
     inkscape:cx="-39.006299"
     inkscape:cy="17.921245"
     inkscape:window-x="0"
     inkscape:window-y="26"
     inkscape:window-maximized="1"
     inkscape:current-layer="layer1">
    <inkscape:grid
       type="xygrid"
       id="grid5920" />
  </sodipodi:namedview>
  <defs
     id="defs5455">
    <linearGradient
       inkscape:collect="always"
       id="linearGradient6251">
      <stop
         style="stop-color:#ffffff;stop-opacity:0"
         offset="0"
         id="stop6253" />
      <stop
         style="stop-color:#ffffff;stop-opacity:0.2"
         offset="1"
         id="stop6255" />
    </linearGradient>
    <linearGradient
       gradientTransform="matrix(0.96206154,0,0,1.1023622,382.49871,223.0631)"
       gradientUnits="userSpaceOnUse"
       y2="267.36673"
       x2="6.6145825"
       y1="292.76672"
       x1="6.6145825"
       id="linearGradient4306-3"
       xlink:href="#linearGradient6251"
       inkscape:collect="always" />
  </defs>
  <metadata
     id="metadata5458">
    <rdf:RDF>
      <cc:Work
         rdf:about="">
        <dc:format>image/svg+xml</dc:format>
        <dc:type
           rdf:resource="http://purl.org/dc/dcmitype/StillImage" />
      </cc:Work>
    </rdf:RDF>
  </metadata>
  <g
     inkscape:label="Capa 1"
     inkscape:groupmode="layer"
     id="layer1"
     transform="matrix(1 0 0 1 -384.57143 -515.798)">
    <rect
       width="0"
       x="455.89221"
       y="526.79797"
       height="10.999983"
       style="fill:#ffffff"
       id="rect4035" />
    <rect
       width="0"
       x="455.89221"
       y="526.79797"
       height="10.999983"
       style="fill:#ffffff"
       id="rect4035-7" />
    <rect
       width="0"
       x="455.57144"
       y="525.79797"
       height="10.999983"
       style="fill:#ffffff"
       id="rect4035-4" />
    <rect
       width="0"
       x="454.03558"
       y="525.68414"
       height="11.1139"
       style="fill:#fbd2bf"
       id="rect4035-3" />
    <rect
       width="0"
       x="455.57144"
       y="525.79797"
       height="10.999983"
       style="fill:#fbd2bf"
       id="rect4035-1" />
    <rect
       width="0"
       x="475.57144"
       y="525.79797"
       height="10.999983"
       style="fill:#fbfbfb"
       id="rect4035-2" />
    <rect
       width="0"
       x="455.57144"
       y="525.79797"
       height="10.999983"
       style="fill:#fbfbfb"
       id="rect4035-8" />
    <rect
       width="0"
       x="455.57144"
       y="525.79797"
       height="10.999983"
       style="fill:#fbfbfb"
       id="rect4035-9" />
    <path
       style="opacity:1;fill:#9adfee;fill-opacity:1;stroke:none;stroke-width:0.1;stroke-linecap:round;stroke-linejoin:miter;stroke-miterlimit:4;stroke-dasharray:none;stroke-opacity:0.29943501"
       d="m 403.11696,518.673 a 11.45454,13.124995 0 0 0 -11.45453,13.125 11.45454,13.124995 0 0 0 11.45453,13.125 11.45454,13.124995 0 0 0 11.45455,-13.125 11.45454,13.124995 0 0 0 -11.45455,-13.125 z m 0,9.33334 a 3.3090857,3.7916609 0 0 1 3.3091,3.79166 3.3090857,3.7916609 0 0 1 -3.3091,3.79167 3.3090857,3.7916609 0 0 1 -3.30908,-3.79167 3.3090857,3.7916609 0 0 1 3.30908,-3.79166 z m 0,0.875 a 2.5454495,2.916661 0 0 0 -2.54545,2.91666 2.5454495,2.916661 0 0 0 2.54545,2.91667 2.5454495,2.916661 0 0 0 2.54547,-2.91667 2.5454495,2.916661 0 0 0 -2.54547,-2.91666 z m 0,1.45833 a 1.2727222,1.4583277 0 0 1 1.27274,1.45833 1.2727222,1.4583277 0 0 1 -1.27274,1.45834 1.2727222,1.4583277 0 0 1 -1.27272,-1.45834 1.2727222,1.4583277 0 0 1 1.27272,-1.45833 z"
       id="circle4543"
       inkscape:connector-curvature="0" />
    <path
       style="opacity:1;fill:#35bedc;fill-opacity:1;stroke:none;stroke-width:0.1;stroke-linecap:round;stroke-linejoin:miter;stroke-miterlimit:4;stroke-dasharray:none;stroke-opacity:0.29943501"
       d="m 386.57143,517.798 0,28 24.43636,0 0,-11.95833 -2.29091,0 c -0.98713,0 -1.78181,-0.91058 -1.78181,-2.04167 0,-1.13108 0.79468,-2.04166 1.78181,-2.04166 l 2.29091,0 0,-11.95834 -24.43636,0 z"
       id="rect4188"
       inkscape:connector-curvature="0" />
    <path
       inkscape:connector-curvature="0"
       style="fill:#ffffff;fill-opacity:1;opacity:0.75"
       id="path3763-9"
       d="m 394.57143,526.798 0,1 0,7.28125 c -0.29454,-0.17076 -0.63503,-0.28125 -1,-0.28125 -1.10457,0 -2,0.89544 -2,2 0,1.10456 0.89543,2 2,2 1.10457,0 2,-0.89544 2,-2 l 0,-7 7,0 0,4.28125 c -0.29454,-0.17076 -0.63504,-0.28125 -1,-0.28125 -1.10457,0 -2,0.89544 -2,2 0,1.10456 0.89543,2 2,2 1.10457,0 2,-0.89544 2,-2 l 0,-8 0,-1 -9,0 z m 1,1 7,0 0,1 -7,0 0,-1 z" />
    <rect
       width="0"
       x="468.82913"
       y="534.55237"
       height="10.999983"
       style="fill:#ffffff"
       id="rect4035-75" />
    <rect
       width="0"
       x="468.50836"
       y="533.55237"
       height="10.999983"
       style="fill:#ffffff"
       id="rect4035-4-3" />
    <rect
       width="0"
       x="466.9725"
       y="533.43854"
       height="11.1139"
       style="fill:#fbd2bf"
       id="rect4035-3-56" />
    <rect
       width="0"
       x="468.50836"
       y="533.55237"
       height="10.999983"
       style="fill:#fbd2bf"
       id="rect4035-1-2" />
    <rect
       width="0"
       x="468.50836"
       y="533.55237"
       height="10.999983"
       style="fill:#fbfbfb"
       id="rect4035-5-9" />
    <rect
       width="0"
       x="468.82913"
       y="534.55237"
       height="10.999983"
       style="fill:#ffffff"
       id="rect4035-7-1" />
    <rect
       width="0"
       x="468.50836"
       y="533.55237"
       height="10.999983"
       style="fill:#ffffff"
       id="rect4035-4-53" />
    <rect
       width="0"
       x="466.9725"
       y="533.43854"
       height="11.1139"
       style="fill:#fbd2bf"
       id="rect4035-3-5" />
    <rect
       width="0"
       x="468.50836"
       y="533.55237"
       height="10.999983"
       style="fill:#fbd2bf"
       id="rect4035-1-6" />
    <rect
       width="0"
       x="468.50836"
       y="533.55237"
       height="10.999983"
       style="fill:#fbfbfb"
       id="rect4035-5-2" />
    <rect
       width="0"
       x="468.82913"
       y="534.55237"
       height="10.999983"
       style="fill:#ffffff"
       id="rect4035-53" />
    <rect
       width="0"
       x="468.50836"
       y="533.55237"
       height="10.999983"
       style="fill:#ffffff"
       id="rect4035-4-5" />
    <rect
       width="0"
       x="468.82913"
       y="534.55237"
       height="10.999983"
       style="fill:#ffffff"
       id="rect4035-535" />
    <rect
       width="0"
       x="468.50836"
       y="533.55237"
       height="10.999983"
       style="fill:#ffffff"
       id="rect4035-4-6" />
    <rect
       width="0"
       x="466.9725"
       y="533.43854"
       height="11.1139"
       style="fill:#fbd2bf"
       id="rect4035-3-2" />
    <rect
       width="0"
       x="468.50836"
       y="533.55237"
       height="10.999983"
       style="fill:#fbd2bf"
       id="rect4035-1-9" />
    <rect
       width="0"
       x="468.50836"
       y="533.55237"
       height="10.999983"
       style="fill:#fbfbfb"
       id="rect4035-5" />
    <rect
       width="0"
       x="468.50836"
       y="533.55237"
       height="10.999983"
       style="fill:#fffcf9"
       id="rect4035-8-0" />
    <rect
       width="0"
       x="468.50836"
       y="533.55237"
       height="10.999983"
       style="fill:#e8d9eb"
       id="rect4035-44" />
    <rect
       width="0"
       x="468.50836"
       y="533.55237"
       height="10.999983"
       style="fill:#e8d9eb"
       id="rect4035-7-6" />
    <rect
       width="0"
       x="468.82913"
       y="534.55237"
       height="10.999983"
       style="fill:#ffffff"
       id="rect4035-26" />
    <rect
       width="0"
       x="468.50836"
       y="533.55237"
       height="10.999983"
       style="fill:#ffffff"
       id="rect4035-4-1" />
    <rect
       width="0"
       x="466.9725"
       y="533.43854"
       height="11.1139"
       style="fill:#fbd2bf"
       id="rect4035-3-8" />
    <rect
       width="0"
       x="468.50836"
       y="533.55237"
       height="10.999983"
       style="fill:#fbd2bf"
       id="rect4035-1-7" />
    <rect
       width="24.404537"
       x="386.57144"
       y="544.79797"
       height="0.999973"
       style="fill:#2e3132;fill-opacity:0.29411801"
       id="rect4169-5" />
    <rect
       width="24.404537"
       x="386.57144"
       y="517.79797"
       height="1.00003"
       style="fill:#ffffff;fill-opacity:0.41176501"
       id="rect4236-6" />
    <rect
       width="0"
       x="447.06061"
       y="520.11359"
       height="22.785679"
       style="fill:#ffffff"
       id="rect4035-36" />
    <rect
       width="0"
       x="447.06061"
       y="520.11359"
       height="22.785679"
       style="fill:#ffffff"
       id="rect4035-7-7" />
    <rect
       width="0"
       x="446.39618"
       y="518.04218"
       height="22.785679"
       style="fill:#ffffff"
       id="rect4035-4-535" />
    <rect
       width="0"
       x="443.21478"
       y="517.8064"
       height="23.02165"
       style="fill:#fbd2bf"
       id="rect4035-3-6" />
    <rect
       width="0"
       x="446.39618"
       y="518.04218"
       height="22.785679"
       style="fill:#fbd2bf"
       id="rect4035-1-29" />
    <rect
       width="0"
       x="487.82465"
       y="518.04218"
       height="22.785679"
       style="fill:#fbfbfb"
       id="rect4035-2-1" />
    <rect
       width="0"
       x="446.39618"
       y="518.04218"
       height="22.785679"
       style="fill:#fbfbfb"
       id="rect4035-8-2" />
    <rect
       width="0"
       x="446.39618"
       y="518.04218"
       height="22.785679"
       style="fill:#fbfbfb"
       id="rect4035-9-7" />
    <rect
       width="0"
       x="473.85846"
       y="536.17627"
       height="22.785679"
       style="fill:#ffffff"
       id="rect4035-75-0" />
    <rect
       width="0"
       x="473.19397"
       y="534.10486"
       height="22.785679"
       style="fill:#ffffff"
       id="rect4035-4-3-9" />
    <rect
       width="0"
       x="470.01257"
       y="533.86908"
       height="23.02165"
       style="fill:#fbd2bf"
       id="rect4035-3-56-3" />
    <rect
       width="0"
       x="473.19397"
       y="534.10486"
       height="22.785679"
       style="fill:#fbd2bf"
       id="rect4035-1-2-6" />
    <rect
       width="0"
       x="473.19397"
       y="534.10486"
       height="22.785679"
       style="fill:#fbfbfb"
       id="rect4035-5-9-0" />
    <rect
       width="0"
       x="473.85846"
       y="536.17627"
       height="22.785679"
       style="fill:#ffffff"
       id="rect4035-7-1-6" />
    <rect
       width="0"
       x="473.19397"
       y="534.10486"
       height="22.785679"
       style="fill:#ffffff"
       id="rect4035-4-53-2" />
    <rect
       width="0"
       x="470.01257"
       y="533.86908"
       height="23.02165"
       style="fill:#fbd2bf"
       id="rect4035-3-5-6" />
    <rect
       width="0"
       x="473.19397"
       y="534.10486"
       height="22.785679"
       style="fill:#fbd2bf"
       id="rect4035-1-6-1" />
    <rect
       width="0"
       x="473.19397"
       y="534.10486"
       height="22.785679"
       style="fill:#fbfbfb"
       id="rect4035-5-2-8" />
    <rect
       width="0"
       x="473.85846"
       y="536.17627"
       height="22.785679"
       style="fill:#ffffff"
       id="rect4035-53-7" />
    <rect
       width="0"
       x="473.19397"
       y="534.10486"
       height="22.785679"
       style="fill:#ffffff"
       id="rect4035-4-5-9" />
    <rect
       width="0"
       x="473.85846"
       y="536.17627"
       height="22.785679"
       style="fill:#ffffff"
       id="rect4035-535-2" />
    <rect
       width="0"
       x="473.19397"
       y="534.10486"
       height="22.785679"
       style="fill:#ffffff"
       id="rect4035-4-6-0" />
    <rect
       width="0"
       x="470.01257"
       y="533.86908"
       height="23.02165"
       style="fill:#fbd2bf"
       id="rect4035-3-2-2" />
    <rect
       width="0"
       x="473.19397"
       y="534.10486"
       height="22.785679"
       style="fill:#fbd2bf"
       id="rect4035-1-9-3" />
    <rect
       width="0"
       x="473.19397"
       y="534.10486"
       height="22.785679"
       style="fill:#fbfbfb"
       id="rect4035-5-7" />
    <rect
       width="0"
       x="473.19397"
       y="534.10486"
       height="22.785679"
       style="fill:#fffcf9"
       id="rect4035-8-0-5" />
    <rect
       width="0"
       x="473.19397"
       y="534.10486"
       height="22.785679"
       style="fill:#e8d9eb"
       id="rect4035-44-9" />
    <rect
       width="0"
       x="473.19397"
       y="534.10486"
       height="22.785679"
       style="fill:#e8d9eb"
       id="rect4035-7-6-2" />
    <rect
       width="0"
       x="473.85846"
       y="536.17627"
       height="22.785679"
       style="fill:#ffffff"
       id="rect4035-26-2" />
    <rect
       width="0"
       x="473.19397"
       y="534.10486"
       height="22.785679"
       style="fill:#ffffff"
       id="rect4035-4-1-8" />
    <rect
       width="0"
       x="470.01257"
       y="533.86908"
       height="23.02165"
       style="fill:#fbd2bf"
       id="rect4035-3-8-9" />
    <rect
       width="0"
       x="473.19397"
       y="534.10486"
       height="22.785679"
       style="fill:#fbd2bf"
       id="rect4035-1-7-7" />
    <path
       style="opacity:1;fill:url(#linearGradient4306-3);fill-opacity:1;stroke:none;stroke-width:0.1;stroke-linecap:round;stroke-linejoin:miter;stroke-miterlimit:4;stroke-dasharray:none;stroke-opacity:0.29943501"
       d="m 386.57143,517.798 0,28 24.43636,0 0,-11.95833 -2.29091,0 c -0.98713,0 -1.78181,-0.91058 -1.78181,-2.04167 0,-1.13108 0.79468,-2.04166 1.78181,-2.04166 l 2.29091,0 0,-11.95834 -24.43636,0 z"
       id="rect4188-2"
       inkscape:connector-curvature="0" />
  </g>
</svg>
