<?xml version="1.0" encoding="UTF-8" standalone="no"?>

<!-- Created with Inkscape (http://www.inkscape.org/) -->
<svg width="32" version="1.1" xmlns="http://www.w3.org/2000/svg" height="32" xmlns:xlink="http://www.w3.org/1999/xlink" xmlns:inkscape="http://www.inkscape.org/namespaces/inkscape">
 <defs id="defs5455">
  <linearGradient inkscape:collect="always" xlink:href="#linearGradient4300-2" id="linearGradient4306" y1="61" y2="3" x2="0" gradientUnits="userSpaceOnUse" gradientTransform="matrix(0.49999977 0 0 0.48275841 384.57144 516.34974)"/>
  <linearGradient inkscape:collect="always" xlink:href="#linearGradient4351-5" id="linearGradient4357" y1="61" y2="47" x2="0" gradientUnits="userSpaceOnUse" gradientTransform="matrix(0.48275841 0 0 0.48275841 385.26109 516.10836)"/>
  <linearGradient inkscape:collect="always" xlink:href="#linearGradient4410" id="linearGradient4427" y1="31" x1="54" y2="16.500048" x2="39.500008" gradientUnits="userSpaceOnUse" gradientTransform="matrix(0.48275841 0 0 -0.48275841 378.50247 553.76351)"/>
  <linearGradient inkscape:collect="always" id="linearGradient4410">
   <stop style="stop-color:#383e51" id="stop4412"/>
   <stop offset="1" style="stop-color:#655c6f;stop-opacity:0" id="stop4414"/>
  </linearGradient>
  <linearGradient inkscape:collect="always" id="linearGradient4351-5">
   <stop style="stop-color:#9be4df" id="stop4353-7"/>
   <stop offset="1" style="stop-color:#c7efed" id="stop4355-5"/>
  </linearGradient>
  <linearGradient inkscape:collect="always" id="linearGradient4300-2">
   <stop style="stop-color:#32cab4" id="stop4302-5"/>
   <stop offset="1" style="stop-color:#4ecdc4" id="stop4304-4"/>
  </linearGradient>
 </defs>
 <metadata id="metadata5458"/>
 <g inkscape:label="Capa 1" inkscape:groupmode="layer" id="layer1" transform="matrix(1 0 0 1 -384.57143 -515.798)">
  <path inkscape:connector-curvature="0" style="fill:url(#linearGradient4306)" id="rect3500" d="m 389.57144,517.79801 0,27.99999 14.99999,0 7.00003,-7 -3e-5,-14.24137 0,-6.75862 -7,0 z"/>
  <rect width="14.999983" x="389.57144" y="544.79797" height="0.999973" style="fill:#2e3132;fill-opacity:0.294118" id="rect4169"/>
  <rect width="21.999994" x="389.57144" y="517.79797" height="1.00003" style="fill:#ffffff;fill-opacity:0.411765" id="rect4236"/>
  <path inkscape:connector-curvature="0" style="fill:url(#linearGradient4357);fill-rule:evenodd" id="path4314" d="m 411.57144,538.798 -7.00001,7 0,-7 z"/>
  <path inkscape:connector-curvature="0" style="fill:url(#linearGradient4427);opacity:0.2;fill-rule:evenodd" id="path4320" d="m 397.57143,545.79797 7,-6.99997 0,7 z"/>
  <rect width="0" x="375.89221" y="526.79797" height="10.999983" style="fill:#ffffff" id="rect4035"/>
  <rect width="0" x="375.57144" y="525.79797" height="10.999983" style="fill:#ffffff" id="rect4035-4"/>
  <rect width="0" x="374.03558" y="525.68414" height="11.1139" style="fill:#fbd2bf" id="rect4035-3"/>
  <rect width="0" x="375.57144" y="525.79797" height="10.999983" style="fill:#fbd2bf" id="rect4035-1"/>
  <rect width="0" x="375.57144" y="525.79797" height="10.999983" style="fill:#fbfbfb" id="rect4035-5"/>
  <rect width="0" x="375.57144" y="525.79797" height="10.999983" style="fill:#fffcf9" id="rect4035-8"/>
  <rect width="0" x="375.57144" y="525.79797" height="10.999983" style="fill:#e8d9eb" id="rect4035-44"/>
  <rect width="0" x="375.57144" y="525.79797" height="10.999983" style="fill:#e8d9eb" id="rect4035-7"/>
  <path inkscape:label="Capa 1" inkscape:connector-curvature="0" style="fill:#c7efed" id="rect4139" d="m 2,2 0,8.992188 -1,1 0,0.0078 1,0 0,2 12,0 0,-2.998047 1,0 0,-0.0098 L 14,9.9921875 14,2 2,2 Z M 3,3 13,3 13,8.9921875 9.0058594,5 9,5 l 0,0.00195 -0.00586,0 L 6.4980469,7.4941406 6.0039062,7 6,7 5.9960938,7 3,9.9941406 3,3 Z M 5,4 C 4.446,4 4,4.446 4,5 4,5.554 4.446,6 5,6 5.554,6 6,5.554 6,5 6,4.446 5.554,4 5,4 Z M 9,6.4101562 13,10.408203 13,11 10.007812,11 7.2070312,8.203125 9,6.4101562 Z m -3,2 0.5,0.5 L 8.5898438,11 3.4082031,11 6,8.4101562 Z M 3,12 l 6.5898438,0 0.00195,0.002 1.4082032,0 0,-0.002 2,0 0,1 -10.0000001,0 0,-1 z" transform="matrix(1 0 0 1 392.57143 522.79801)"/>
 </g>
</svg>
