<?xml version="1.0" encoding="UTF-8" standalone="no"?>
<!-- Created with Inkscape (http://www.inkscape.org/) -->

<svg
   xmlns:dc="http://purl.org/dc/elements/1.1/"
   xmlns:cc="http://creativecommons.org/ns#"
   xmlns:rdf="http://www.w3.org/1999/02/22-rdf-syntax-ns#"
   xmlns:svg="http://www.w3.org/2000/svg"
   xmlns="http://www.w3.org/2000/svg"
   xmlns:xlink="http://www.w3.org/1999/xlink"
   xmlns:sodipodi="http://sodipodi.sourceforge.net/DTD/sodipodi-0.dtd"
   xmlns:inkscape="http://www.inkscape.org/namespaces/inkscape"
   width="32"
   version="1.1"
   height="32"
   id="svg2"
   inkscape:version="0.91 r13725"
   sodipodi:docname="image-gif.svg">
  <sodipodi:namedview
     pagecolor="#ffffff"
     bordercolor="#666666"
     borderopacity="1"
     objecttolerance="10"
     gridtolerance="10"
     guidetolerance="10"
     inkscape:pageopacity="0"
     inkscape:pageshadow="2"
     inkscape:window-width="1920"
     inkscape:window-height="1013"
     id="namedview33"
     showgrid="true"
     inkscape:zoom="7.375"
     inkscape:cx="-10.266705"
     inkscape:cy="6.7048473"
     inkscape:window-x="0"
     inkscape:window-y="0"
     inkscape:window-maximized="1"
     inkscape:current-layer="layer1"
     inkscape:object-nodes="true">
    <inkscape:grid
       type="xygrid"
       id="grid4207" />
  </sodipodi:namedview>
  <defs
     id="defs5455">
    <linearGradient
       inkscape:collect="always"
       id="linearGradient4300-2">
      <stop
         style="stop-color:#32cab4"
         id="stop4302-5" />
      <stop
         offset="1"
         style="stop-color:#4ecdc4"
         id="stop4304-4" />
    </linearGradient>
    <linearGradient
       inkscape:collect="always"
       xlink:href="#linearGradient4300-2"
       id="linearGradient4306-3"
       y1="61"
       y2="3"
       x2="0"
       gradientUnits="userSpaceOnUse"
       gradientTransform="matrix(0.63636277,0,0,0.48275841,380.2078,516.3498)" />
    <linearGradient
       inkscape:collect="always"
       xlink:href="#linearGradient4351-5"
       id="linearGradient4391-2"
       x1="111"
       y1="55"
       x2="53"
       y2="-3"
       gradientUnits="userSpaceOnUse"
       gradientTransform="matrix(0,0.5,-0.5,0,29,-26.5)" />
    <linearGradient
       inkscape:collect="always"
       id="linearGradient4351-5">
      <stop
         style="stop-color:#9be4df"
         id="stop4353-7" />
      <stop
         offset="1"
         style="stop-color:#c7efed"
         id="stop4355-5" />
    </linearGradient>
  </defs>
  <metadata
     id="metadata5458">
    <rdf:RDF>
      <cc:Work
         rdf:about="">
        <dc:format>image/svg+xml</dc:format>
        <dc:type
           rdf:resource="http://purl.org/dc/dcmitype/StillImage" />
      </cc:Work>
    </rdf:RDF>
  </metadata>
  <g
     inkscape:label="Capa 1"
     inkscape:groupmode="layer"
     id="layer1"
     transform="matrix(1 0 0 1 -384.57143 -515.798)">
    <rect
       width="0"
       x="375.89221"
       y="566.79797"
       height="10.999983"
       style="fill:#ffffff"
       id="rect4035" />
    <rect
       width="0"
       x="375.57144"
       y="565.79797"
       height="10.999983"
       style="fill:#ffffff"
       id="rect4035-4" />
    <rect
       width="0"
       x="374.03558"
       y="565.68414"
       height="11.1139"
       style="fill:#fbd2bf"
       id="rect4035-3" />
    <rect
       width="0"
       x="375.57144"
       y="565.79797"
       height="10.999983"
       style="fill:#fbd2bf"
       id="rect4035-1" />
    <rect
       width="0"
       x="375.57144"
       y="565.79797"
       height="10.999983"
       style="fill:#fbfbfb"
       id="rect4035-5" />
    <rect
       width="0"
       x="375.57144"
       y="565.79797"
       height="10.999983"
       style="fill:#fffcf9"
       id="rect4035-8" />
    <rect
       width="0"
       x="375.57144"
       y="565.79797"
       height="10.999983"
       style="fill:#e8d9eb"
       id="rect4035-44" />
    <rect
       width="0"
       x="375.57144"
       y="565.79797"
       height="10.999983"
       style="fill:#e8d9eb"
       id="rect4035-7" />
    <rect
       width="0"
       x="375.89221"
       y="566.79797"
       height="10.999983"
       style="fill:#ffffff"
       id="rect4035-36" />
    <rect
       width="0"
       x="375.57144"
       y="565.79797"
       height="10.999983"
       style="fill:#ffffff"
       id="rect4035-4-7" />
    <rect
       width="0"
       x="374.03558"
       y="565.68414"
       height="11.1139"
       style="fill:#fbd2bf"
       id="rect4035-3-5" />
    <rect
       width="0"
       x="375.57144"
       y="565.79797"
       height="10.999983"
       style="fill:#fbd2bf"
       id="rect4035-1-3" />
    <rect
       width="0"
       x="375.57144"
       y="565.79797"
       height="10.999983"
       style="fill:#fbfbfb"
       id="rect4035-5-5" />
    <rect
       width="0"
       x="375.57144"
       y="565.79797"
       height="10.999983"
       style="fill:#fffcf9"
       id="rect4035-8-6" />
    <path
       inkscape:connector-curvature="0"
       style="fill:url(#linearGradient4306-3);fill-opacity:1.0"
       id="rect3500-5"
       d="m 386.57143,517.79807 0,27.99999 19.09088,0 8.90912,0 -4e-5,-21.24137 0,-6.75862 -8.90908,0 z"
       sodipodi:nodetypes="cccccccc" />
    <rect
       width="27.999979"
       x="386.57144"
       y="544.79797"
       height="0.999973"
       style="fill:#2e3132;fill-opacity:0.29411801"
       id="rect4169-3" />
    <rect
       width="27.999992"
       x="386.57144"
       y="517.79797"
       height="1.00003"
       style="fill:#ffffff;fill-opacity:0.41176501"
       id="rect4236-5" />
    <rect
       width="0"
       x="375.89221"
       y="526.79797"
       height="10.999983"
       style="fill:#ffffff"
       id="rect4035-6" />
    <rect
       width="0"
       x="375.57144"
       y="525.79797"
       height="10.999983"
       style="fill:#ffffff"
       id="rect4035-4-2" />
    <rect
       width="0"
       x="374.03558"
       y="525.68414"
       height="11.1139"
       style="fill:#fbd2bf"
       id="rect4035-3-9" />
    <rect
       width="0"
       x="375.57144"
       y="525.79797"
       height="10.999983"
       style="fill:#fbd2bf"
       id="rect4035-1-1" />
    <rect
       width="0"
       x="375.57144"
       y="525.79797"
       height="10.999983"
       style="fill:#fbfbfb"
       id="rect4035-5-2" />
    <rect
       width="0"
       x="375.57144"
       y="525.79797"
       height="10.999983"
       style="fill:#fffcf9"
       id="rect4035-8-7" />
    <rect
       width="0"
       x="375.57144"
       y="525.79797"
       height="10.999983"
       style="fill:#e8d9eb"
       id="rect4035-44-2" />
    <path
       style="fill:#c7efed;fill-opacity:1"
       d="m 397.57143,526.79803 c -0.554,0 -1,0.446 -1,1 0,0.554 0.446,1 1,1 0.554,0 1,-0.446 1,-1 0,-0.554 -0.446,-1 -1,-1 z m 4,1 0,0.002 -0.006,0 -2.49609,2.49219 -0.4941,-0.49419 -0.004,0 -0.004,0 c 0.004,0 -4.9961,4.99219 -4.9961,4.99219 l -0.99971,1.00781 1.4484,0 1.95951,-1.99981 2.5918,-2.58984 0.5,0.5 2.08984,2.08984 1.99474,1.99981 1.29031,0 c 0,0 -3.07324,-3.20429 -4.66786,-4.79669 l 1.79297,-1.79296 4.74832,4.58984 0.036,0.002 1.21573,0 0,-0.01 -5.99414,-5.9922 z"
       id="rect4139-9"
       inkscape:connector-curvature="0"
       sodipodi:nodetypes="ssssscccccccccccccccccccccccc" />
    <path
       style="fill:url(#linearGradient4391-2);fill-opacity:1;stroke:none;stroke-width:2;stroke-miterlimit:4;stroke-dasharray:none;stroke-opacity:1"
       d="M 3 4 L 3 6 L 5 6 L 5 4 L 3 4 z M 6 4 L 6 6 L 8 6 L 8 4 L 6 4 z M 9 4 L 9 6 L 11 6 L 11 4 L 9 4 z M 12 4 L 12 6 L 14 6 L 14 4 L 12 4 z M 15 4 L 15 6 L 17 6 L 17 4 L 15 4 z M 18 4 L 18 6 L 20 6 L 20 4 L 18 4 z M 21 4 L 21 6 L 23 6 L 23 4 L 21 4 z M 24 4 L 24 6 L 26 6 L 26 4 L 24 4 z M 27 4 L 27 6 L 29 6 L 29 4 L 27 4 z M 3 26 L 3 28 L 5 28 L 5 26 L 3 26 z M 6 26 L 6 28 L 8 28 L 8 26 L 6 26 z M 9 26 L 9 28 L 11 28 L 11 26 L 9 26 z M 12 26 L 12 28 L 14 28 L 14 26 L 12 26 z M 15 26 L 15 28 L 17 28 L 17 26 L 15 26 z M 18 26 L 18 28 L 20 28 L 20 26 L 18 26 z M 21 26 L 21 28 L 23 28 L 23 26 L 21 26 z M 24 26 L 24 28 L 26 28 L 26 26 L 24 26 z M 27 26 L 27 28 L 29 28 L 29 26 L 27 26 z "
       transform="translate(384.57143,515.798)"
       id="rect4159-3" />
  </g>
</svg>
