<?xml version="1.0" encoding="UTF-8" standalone="no"?>
<!-- Created with Inkscape (http://www.inkscape.org/) -->

<svg
   xmlns:dc="http://purl.org/dc/elements/1.1/"
   xmlns:cc="http://creativecommons.org/ns#"
   xmlns:rdf="http://www.w3.org/1999/02/22-rdf-syntax-ns#"
   xmlns:svg="http://www.w3.org/2000/svg"
   xmlns="http://www.w3.org/2000/svg"
   xmlns:xlink="http://www.w3.org/1999/xlink"
   xmlns:sodipodi="http://sodipodi.sourceforge.net/DTD/sodipodi-0.dtd"
   xmlns:inkscape="http://www.inkscape.org/namespaces/inkscape"
   width="32"
   version="1.1"
   height="32"
   id="svg2"
   inkscape:version="0.91 r13725"
   sodipodi:docname="libreoffice-drawing.svg">
  <sodipodi:namedview
     pagecolor="#ffffff"
     bordercolor="#666666"
     borderopacity="1"
     objecttolerance="10"
     gridtolerance="10"
     guidetolerance="10"
     inkscape:pageopacity="0"
     inkscape:pageshadow="2"
     inkscape:window-width="1920"
     inkscape:window-height="1013"
     id="namedview26"
     showgrid="false"
     inkscape:zoom="1"
     inkscape:cx="-7.011299"
     inkscape:cy="19.106669"
     inkscape:window-x="0"
     inkscape:window-y="0"
     inkscape:window-maximized="1"
     inkscape:current-layer="layer1"
     inkscape:snap-bbox="true"
     inkscape:bbox-nodes="true">
    <inkscape:grid
       type="xygrid"
       id="grid4443" />
  </sodipodi:namedview>
  <defs
     id="defs5455">
    <linearGradient
       id="linearGradient4300-3">
      <stop
         style="stop-color:#f39c12"
         id="stop4302-0" />
      <stop
         offset="1"
         style="stop-color:#f9a11f"
         id="stop4304-0" />
    </linearGradient>
    <linearGradient
       inkscape:collect="always"
       id="linearGradient9654">
      <stop
         style="stop-color:#060606;stop-opacity:1"
         offset="0"
         id="stop9656" />
      <stop
         style="stop-color:#000000;stop-opacity:0"
         offset="1"
         id="stop9658" />
    </linearGradient>
    <linearGradient
       inkscape:collect="always"
       id="linearGradient6251">
      <stop
         style="stop-color:#ffffff;stop-opacity:0"
         offset="0"
         id="stop6253" />
      <stop
         style="stop-color:#ffffff;stop-opacity:0.2"
         offset="1"
         id="stop6255" />
    </linearGradient>
    <linearGradient
       y2="365.36221"
       x2="58"
       y1="392.36221"
       x1="58"
       gradientTransform="translate(309.57143,152.43575)"
       gradientUnits="userSpaceOnUse"
       id="linearGradient4178"
       xlink:href="#linearGradient6251"
       inkscape:collect="always" />
    <linearGradient
       y2="24"
       x2="54"
       y1="17"
       x1="47"
       gradientTransform="translate(357.57143,507.79795)"
       gradientUnits="userSpaceOnUse"
       id="linearGradient4257"
       xlink:href="#linearGradient9654"
       inkscape:collect="always" />
  </defs>
  <metadata
     id="metadata5458">
    <rdf:RDF>
      <cc:Work
         rdf:about="">
        <dc:format>image/svg+xml</dc:format>
        <dc:type
           rdf:resource="http://purl.org/dc/dcmitype/StillImage" />
      </cc:Work>
    </rdf:RDF>
  </metadata>
  <g
     inkscape:label="Capa 1"
     inkscape:groupmode="layer"
     id="layer1"
     transform="matrix(1 0 0 1 -384.57143 -515.798)">
    <rect
       width="0"
       x="335.57144"
       y="565.79797"
       height="10.999983"
       style="fill:#036b53"
       id="rect4035" />
    <rect
       width="0"
       x="335.89221"
       y="566.79797"
       height="10.999983"
       style="fill:#ffffff"
       id="rect4035-67" />
    <rect
       width="0"
       x="335.57144"
       y="565.79797"
       height="10.999983"
       style="fill:#ffffff"
       id="rect4035-4" />
    <rect
       width="0"
       x="334.03558"
       y="565.68414"
       height="11.1139"
       style="fill:#fbd2bf"
       id="rect4035-3" />
    <rect
       width="0"
       x="335.57144"
       y="565.79797"
       height="10.999983"
       style="fill:#fbd2bf"
       id="rect4035-1" />
    <rect
       width="0"
       x="335.57144"
       y="565.79797"
       height="10.999983"
       style="fill:#fbfbfb"
       id="rect4035-5" />
    <rect
       width="0"
       x="335.57144"
       y="565.79797"
       height="10.999983"
       style="fill:#fffcf9"
       id="rect4035-8" />
    <rect
       width="0"
       x="335.89221"
       y="526.79797"
       height="10.999983"
       style="fill:#ffffff"
       id="rect4035-6" />
    <rect
       width="0"
       x="335.57144"
       y="525.79797"
       height="10.999983"
       style="fill:#ffffff"
       id="rect4035-4-2" />
    <rect
       width="0"
       x="334.03558"
       y="525.68414"
       height="11.1139"
       style="fill:#fbd2bf"
       id="rect4035-3-9" />
    <rect
       width="0"
       x="335.57144"
       y="525.79797"
       height="10.999983"
       style="fill:#fbd2bf"
       id="rect4035-1-1" />
    <rect
       width="0"
       x="335.57144"
       y="525.79797"
       height="10.999983"
       style="fill:#fbfbfb"
       id="rect4035-5-2" />
    <rect
       width="0"
       x="335.57144"
       y="525.79797"
       height="10.999983"
       style="fill:#fffcf9"
       id="rect4035-8-7" />
    <rect
       width="0"
       x="335.57144"
       y="525.79797"
       height="10.999983"
       style="fill:#e8d9eb"
       id="rect4035-44" />
    <rect
       width="0"
       x="295.89221"
       y="526.79797"
       height="10.999983"
       style="fill:#ffffff"
       id="rect4035-62" />
    <rect
       width="0"
       x="295.57144"
       y="525.79797"
       height="10.999983"
       style="fill:#ffffff"
       id="rect4035-4-9" />
    <rect
       width="0"
       x="294.03558"
       y="525.68414"
       height="11.1139"
       style="fill:#fbd2bf"
       id="rect4035-3-1" />
    <rect
       width="0"
       x="295.57144"
       y="525.79797"
       height="10.999983"
       style="fill:#fbd2bf"
       id="rect4035-1-2" />
    <rect
       width="0"
       x="295.57144"
       y="525.79797"
       height="10.999983"
       style="fill:#fbfbfb"
       id="rect4035-5-7" />
    <rect
       width="0"
       x="295.57144"
       y="525.79797"
       height="10.999983"
       style="fill:#fffcf9"
       id="rect4035-8-0" />
    <rect
       width="0"
       x="295.57144"
       y="525.79797"
       height="10.999983"
       style="fill:#e8d9eb"
       id="rect4035-44-9" />
    <rect
       width="0"
       x="295.57144"
       y="525.79797"
       height="10.999983"
       style="fill:#e8d9eb"
       id="rect4035-7" />
    <rect
       width="0"
       x="296.84137"
       y="526.79797"
       height="10.999983"
       style="fill:#ffffff"
       id="rect4035-36" />
    <rect
       width="0"
       x="296.5206"
       y="525.79797"
       height="10.999983"
       style="fill:#ffffff"
       id="rect4035-4-0" />
    <rect
       width="0"
       x="294.98474"
       y="525.68414"
       height="11.1139"
       style="fill:#fbd2bf"
       id="rect4035-3-6" />
    <rect
       width="0"
       x="296.5206"
       y="525.79797"
       height="10.999983"
       style="fill:#fbd2bf"
       id="rect4035-1-26" />
    <rect
       width="0"
       x="296.5206"
       y="525.79797"
       height="10.999983"
       style="fill:#fbfbfb"
       id="rect4035-5-1" />
    <rect
       width="0"
       x="296.5206"
       y="525.79797"
       height="10.999983"
       style="fill:#fffcf9"
       id="rect4035-8-8" />
    <rect
       width="0"
       x="296.5206"
       y="525.79797"
       height="10.999983"
       style="fill:#e8d9eb"
       id="rect4035-44-7" />
    <rect
       width="0"
       x="296.5206"
       y="525.79797"
       height="10.999983"
       style="fill:#e8d9eb"
       id="rect4035-7-9" />
    <rect
       width="0"
       x="415.89221"
       y="526.79797"
       height="10.999983"
       style="fill:#ffffff"
       id="rect4035-675" />
    <rect
       width="0"
       x="415.57144"
       y="525.79797"
       height="10.999983"
       style="fill:#ffffff"
       id="rect4035-4-3" />
    <rect
       width="0"
       x="414.03558"
       y="525.68414"
       height="11.1139"
       style="fill:#fbd2bf"
       id="rect4035-3-5" />
    <rect
       width="0"
       x="415.57144"
       y="525.79797"
       height="10.999983"
       style="fill:#fbd2bf"
       id="rect4035-1-6" />
    <rect
       width="0"
       x="435.57144"
       y="525.79797"
       height="10.999983"
       style="fill:#fbfbfb"
       id="rect4035-2" />
    <rect
       width="0"
       x="415.57144"
       y="525.79797"
       height="10.999983"
       style="fill:#fbfbfb"
       id="rect4035-8-2" />
    <rect
       width="0"
       x="335.89221"
       y="526.79797"
       height="10.999983"
       style="fill:#ffffff"
       id="rect4035-7-91" />
    <rect
       width="0"
       x="335.57144"
       y="525.79797"
       height="10.999983"
       style="fill:#ffffff"
       id="rect4035-4-5" />
    <rect
       width="0"
       x="334.03558"
       y="525.68414"
       height="11.1139"
       style="fill:#fbd2bf"
       id="rect4035-3-3" />
    <rect
       width="0"
       x="335.57144"
       y="525.79797"
       height="10.999983"
       style="fill:#fbd2bf"
       id="rect4035-1-5" />
    <rect
       width="0"
       x="375.89221"
       y="-536.79797"
       height="10.999983"
       style="fill:#ffffff"
       id="rect4035-5-70"
       transform="scale(1,-1)" />
    <rect
       width="0"
       x="375.57144"
       y="-537.79797"
       height="10.999983"
       style="fill:#ffffff"
       id="rect4035-4-6"
       transform="scale(1,-1)" />
    <rect
       width="0"
       x="374.03558"
       y="-537.9118"
       height="11.1139"
       style="fill:#fbd2bf"
       id="rect4035-3-2"
       transform="scale(1,-1)" />
    <rect
       width="0"
       x="375.57144"
       y="-537.79797"
       height="10.999983"
       style="fill:#fbd2bf"
       id="rect4035-1-9"
       transform="scale(1,-1)" />
    <rect
       width="0"
       x="188.3652"
       y="517.88556"
       height="20.166639"
       style="fill:#5e6b78"
       id="rect4035-53" />
    <rect
       width="0"
       x="379.84012"
       y="519.05219"
       height="21.99995"
       style="fill:#ffffff"
       id="rect4035-75" />
    <rect
       width="0"
       x="379.19858"
       y="517.05219"
       height="21.99995"
       style="fill:#ffffff"
       id="rect4035-4-56" />
    <rect
       width="0"
       x="376.12683"
       y="516.82452"
       height="22.227785"
       style="fill:#fbd2bf"
       id="rect4035-3-29" />
    <rect
       width="0"
       x="379.19858"
       y="517.05219"
       height="21.99995"
       style="fill:#fbd2bf"
       id="rect4035-1-12" />
    <rect
       width="0"
       x="419.19855"
       y="517.05219"
       height="21.99995"
       style="fill:#fbfbfb"
       id="rect4035-2-7" />
    <rect
       width="0"
       x="379.19858"
       y="517.05219"
       height="21.99995"
       style="fill:#fbfbfb"
       id="rect4035-8-09" />
    <rect
       width="0"
       x="219.84018"
       y="519.05219"
       height="21.99995"
       style="fill:#ffffff"
       id="rect4035-7-3" />
    <rect
       width="0"
       x="219.19864"
       y="517.05219"
       height="21.99995"
       style="fill:#ffffff"
       id="rect4035-4-5-6" />
    <rect
       width="0"
       x="216.12692"
       y="516.82452"
       height="22.227785"
       style="fill:#fbd2bf"
       id="rect4035-3-3-0" />
    <rect
       width="0"
       x="219.19864"
       y="517.05219"
       height="21.99995"
       style="fill:#fbd2bf"
       id="rect4035-1-5-6" />
    <rect
       width="0"
       x="299.84012"
       y="-539.05219"
       height="21.99995"
       style="fill:#ffffff"
       id="rect4035-5-26"
       transform="scale(1,-1)" />
    <rect
       width="0"
       x="299.19858"
       y="-541.05219"
       height="21.99995"
       style="fill:#ffffff"
       id="rect4035-4-6-1"
       transform="scale(1,-1)" />
    <rect
       width="0"
       x="296.12689"
       y="-541.27985"
       height="22.227785"
       style="fill:#fbd2bf"
       id="rect4035-3-2-8"
       transform="scale(1,-1)" />
    <rect
       width="0"
       x="299.19858"
       y="-541.05219"
       height="21.99995"
       style="fill:#fbd2bf"
       id="rect4035-1-9-7"
       transform="scale(1,-1)" />
    <rect
       width="0"
       x="108.72398"
       y="573.79797"
       height="10.999983"
       style="fill:#036b53"
       id="rect4035-35" />
    <rect
       width="0"
       x="109.04475"
       y="574.79797"
       height="10.999983"
       style="fill:#ffffff"
       id="rect4035-67-9" />
    <rect
       width="0"
       x="108.72398"
       y="573.79797"
       height="10.999983"
       style="fill:#ffffff"
       id="rect4035-4-62" />
    <rect
       width="0"
       x="107.18812"
       y="573.68414"
       height="11.1139"
       style="fill:#fbd2bf"
       id="rect4035-3-91" />
    <rect
       width="0"
       x="108.72398"
       y="573.79797"
       height="10.999983"
       style="fill:#fbd2bf"
       id="rect4035-1-27" />
    <rect
       width="0"
       x="108.72398"
       y="573.79797"
       height="10.999983"
       style="fill:#fbfbfb"
       id="rect4035-5-0" />
    <rect
       width="0"
       x="108.72398"
       y="573.79797"
       height="10.999983"
       style="fill:#fffcf9"
       id="rect4035-8-9" />
    <rect
       width="0"
       x="109.04475"
       y="534.79797"
       height="10.999983"
       style="fill:#ffffff"
       id="rect4035-6-2" />
    <rect
       width="0"
       x="108.72398"
       y="533.79797"
       height="10.999983"
       style="fill:#ffffff"
       id="rect4035-4-2-0" />
    <rect
       width="0"
       x="107.18812"
       y="533.68414"
       height="11.1139"
       style="fill:#fbd2bf"
       id="rect4035-3-9-2" />
    <rect
       width="0"
       x="108.72398"
       y="533.79797"
       height="10.999983"
       style="fill:#fbd2bf"
       id="rect4035-1-1-3" />
    <rect
       width="0"
       x="108.72398"
       y="533.79797"
       height="10.999983"
       style="fill:#fbfbfb"
       id="rect4035-5-2-7" />
    <rect
       width="0"
       x="108.72398"
       y="533.79797"
       height="10.999983"
       style="fill:#fffcf9"
       id="rect4035-8-7-5" />
    <rect
       width="0"
       x="108.72398"
       y="533.79797"
       height="10.999983"
       style="fill:#e8d9eb"
       id="rect4035-44-92" />
    <rect
       width="0"
       x="69.044746"
       y="534.79797"
       height="10.999983"
       style="fill:#ffffff"
       id="rect4035-62-2" />
    <rect
       width="0"
       x="68.723976"
       y="533.79797"
       height="10.999983"
       style="fill:#ffffff"
       id="rect4035-4-9-8" />
    <rect
       width="0"
       x="67.188118"
       y="533.68414"
       height="11.1139"
       style="fill:#fbd2bf"
       id="rect4035-3-1-9" />
    <rect
       width="0"
       x="68.723976"
       y="533.79797"
       height="10.999983"
       style="fill:#fbd2bf"
       id="rect4035-1-2-7" />
    <rect
       width="0"
       x="68.723976"
       y="533.79797"
       height="10.999983"
       style="fill:#fbfbfb"
       id="rect4035-5-7-3" />
    <rect
       width="0"
       x="68.723976"
       y="533.79797"
       height="10.999983"
       style="fill:#fffcf9"
       id="rect4035-8-0-6" />
    <rect
       width="0"
       x="68.723976"
       y="533.79797"
       height="10.999983"
       style="fill:#e8d9eb"
       id="rect4035-44-9-1" />
    <rect
       width="0"
       x="68.723976"
       y="533.79797"
       height="10.999983"
       style="fill:#e8d9eb"
       id="rect4035-7-6" />
    <rect
       width="0"
       x="69.993904"
       y="534.79797"
       height="10.999983"
       style="fill:#ffffff"
       id="rect4035-36-2" />
    <rect
       width="0"
       x="69.673134"
       y="533.79797"
       height="10.999983"
       style="fill:#ffffff"
       id="rect4035-4-0-9" />
    <rect
       width="0"
       x="68.137276"
       y="533.68414"
       height="11.1139"
       style="fill:#fbd2bf"
       id="rect4035-3-6-3" />
    <rect
       width="0"
       x="69.673134"
       y="533.79797"
       height="10.999983"
       style="fill:#fbd2bf"
       id="rect4035-1-26-1" />
    <rect
       width="0"
       x="69.673134"
       y="533.79797"
       height="10.999983"
       style="fill:#fbfbfb"
       id="rect4035-5-1-9" />
    <rect
       width="0"
       x="69.673134"
       y="533.79797"
       height="10.999983"
       style="fill:#fffcf9"
       id="rect4035-8-8-4" />
    <rect
       width="0"
       x="69.673134"
       y="533.79797"
       height="10.999983"
       style="fill:#e8d9eb"
       id="rect4035-44-7-7" />
    <rect
       width="0"
       x="69.673134"
       y="533.79797"
       height="10.999983"
       style="fill:#e8d9eb"
       id="rect4035-7-9-8" />
    <rect
       width="0"
       x="268.3652"
       y="517.88556"
       height="20.166639"
       style="fill:#5e6b78"
       id="rect4035-59" />
    <rect
       width="0"
       x="459.84012"
       y="519.05219"
       height="21.99995"
       style="fill:#ffffff"
       id="rect4035-75-2" />
    <rect
       width="0"
       x="459.19858"
       y="517.05219"
       height="21.99995"
       style="fill:#ffffff"
       id="rect4035-4-28" />
    <rect
       width="0"
       x="456.12683"
       y="516.82452"
       height="22.227785"
       style="fill:#fbd2bf"
       id="rect4035-3-97" />
    <rect
       width="0"
       x="459.19858"
       y="517.05219"
       height="21.99995"
       style="fill:#fbd2bf"
       id="rect4035-1-3" />
    <rect
       width="0"
       x="499.19855"
       y="517.05219"
       height="21.99995"
       style="fill:#fbfbfb"
       id="rect4035-2-6" />
    <rect
       width="0"
       x="459.19858"
       y="517.05219"
       height="21.99995"
       style="fill:#fbfbfb"
       id="rect4035-8-1" />
    <rect
       width="0"
       x="299.84018"
       y="519.05219"
       height="21.99995"
       style="fill:#ffffff"
       id="rect4035-7-2" />
    <rect
       width="0"
       x="299.19864"
       y="517.05219"
       height="21.99995"
       style="fill:#ffffff"
       id="rect4035-4-5-9" />
    <rect
       width="0"
       x="296.12692"
       y="516.82452"
       height="22.227785"
       style="fill:#fbd2bf"
       id="rect4035-3-3-3" />
    <rect
       width="0"
       x="299.19864"
       y="517.05219"
       height="21.99995"
       style="fill:#fbd2bf"
       id="rect4035-1-5-1" />
    <rect
       width="0"
       x="379.84012"
       y="-539.05219"
       height="21.99995"
       style="fill:#ffffff"
       id="rect4035-5-9"
       transform="scale(1,-1)" />
    <rect
       width="0"
       x="379.19858"
       y="-541.05219"
       height="21.99995"
       style="fill:#ffffff"
       id="rect4035-4-6-4"
       transform="scale(1,-1)" />
    <rect
       width="0"
       x="376.12689"
       y="-541.27985"
       height="22.227785"
       style="fill:#fbd2bf"
       id="rect4035-3-2-7"
       transform="scale(1,-1)" />
    <rect
       width="0"
       x="379.19858"
       y="-541.05219"
       height="21.99995"
       style="fill:#fbd2bf"
       id="rect4035-1-9-8"
       transform="scale(1,-1)" />
    <rect
       width="0"
       x="405.57144"
       y="565.79791"
       height="10.999983"
       style="fill:#036b53"
       id="rect4035-20" />
    <rect
       width="0"
       x="405.89221"
       y="566.79791"
       height="10.999983"
       style="fill:#ffffff"
       id="rect4035-67-6" />
    <rect
       width="0"
       x="405.57144"
       y="565.79791"
       height="10.999983"
       style="fill:#ffffff"
       id="rect4035-4-1" />
    <rect
       width="0"
       x="404.03558"
       y="565.68408"
       height="11.1139"
       style="fill:#fbd2bf"
       id="rect4035-3-55" />
    <rect
       width="0"
       x="405.57144"
       y="565.79791"
       height="10.999983"
       style="fill:#fbd2bf"
       id="rect4035-1-4" />
    <rect
       width="0"
       x="405.57144"
       y="565.79791"
       height="10.999983"
       style="fill:#fbfbfb"
       id="rect4035-5-76" />
    <rect
       width="0"
       x="405.57144"
       y="565.79791"
       height="10.999983"
       style="fill:#fffcf9"
       id="rect4035-8-5" />
    <rect
       width="0"
       x="405.89221"
       y="526.79791"
       height="10.999983"
       style="fill:#ffffff"
       id="rect4035-6-6" />
    <rect
       width="0"
       x="405.57144"
       y="525.79791"
       height="10.999983"
       style="fill:#ffffff"
       id="rect4035-4-2-9" />
    <rect
       width="0"
       x="404.03558"
       y="525.68408"
       height="11.1139"
       style="fill:#fbd2bf"
       id="rect4035-3-9-3" />
    <rect
       width="0"
       x="405.57144"
       y="525.79791"
       height="10.999983"
       style="fill:#fbd2bf"
       id="rect4035-1-1-7" />
    <rect
       width="0"
       x="405.57144"
       y="525.79791"
       height="10.999983"
       style="fill:#fbfbfb"
       id="rect4035-5-2-4" />
    <rect
       width="0"
       x="405.57144"
       y="525.79791"
       height="10.999983"
       style="fill:#fffcf9"
       id="rect4035-8-7-52" />
    <rect
       width="0"
       x="405.57144"
       y="525.79791"
       height="10.999983"
       style="fill:#e8d9eb"
       id="rect4035-44-5" />
    <rect
       width="0"
       x="365.89221"
       y="526.79791"
       height="10.999983"
       style="fill:#ffffff"
       id="rect4035-62-4" />
    <rect
       width="0"
       x="365.57144"
       y="525.79791"
       height="10.999983"
       style="fill:#ffffff"
       id="rect4035-4-9-7" />
    <rect
       width="0"
       x="364.03558"
       y="525.68408"
       height="11.1139"
       style="fill:#fbd2bf"
       id="rect4035-3-1-4" />
    <rect
       width="0"
       x="365.57144"
       y="525.79791"
       height="10.999983"
       style="fill:#fbd2bf"
       id="rect4035-1-2-4" />
    <rect
       width="0"
       x="365.57144"
       y="525.79791"
       height="10.999983"
       style="fill:#fbfbfb"
       id="rect4035-5-7-30" />
    <rect
       width="0"
       x="365.57144"
       y="525.79791"
       height="10.999983"
       style="fill:#fffcf9"
       id="rect4035-8-0-7" />
    <rect
       width="0"
       x="365.57144"
       y="525.79791"
       height="10.999983"
       style="fill:#e8d9eb"
       id="rect4035-44-9-8" />
    <rect
       width="0"
       x="365.57144"
       y="525.79791"
       height="10.999983"
       style="fill:#e8d9eb"
       id="rect4035-7-68" />
    <rect
       width="0"
       x="366.84137"
       y="526.79791"
       height="10.999983"
       style="fill:#ffffff"
       id="rect4035-36-8" />
    <rect
       width="0"
       x="366.5206"
       y="525.79791"
       height="10.999983"
       style="fill:#ffffff"
       id="rect4035-4-0-4" />
    <rect
       width="0"
       x="364.98474"
       y="525.68408"
       height="11.1139"
       style="fill:#fbd2bf"
       id="rect4035-3-6-31" />
    <rect
       width="0"
       x="366.5206"
       y="525.79791"
       height="10.999983"
       style="fill:#fbd2bf"
       id="rect4035-1-26-4" />
    <rect
       width="0"
       x="366.5206"
       y="525.79791"
       height="10.999983"
       style="fill:#fbfbfb"
       id="rect4035-5-1-92" />
    <rect
       width="0"
       x="366.5206"
       y="525.79791"
       height="10.999983"
       style="fill:#fffcf9"
       id="rect4035-8-8-0" />
    <rect
       width="0"
       x="366.5206"
       y="525.79791"
       height="10.999983"
       style="fill:#e8d9eb"
       id="rect4035-44-7-6" />
    <rect
       width="0"
       x="366.5206"
       y="525.79791"
       height="10.999983"
       style="fill:#e8d9eb"
       id="rect4035-7-9-89" />
    <g
       id="g4637">
      <path
         d="m 389.57143,545.79795 0,-28 15,0 7.00001,7 0,0 0,21 -14.00001,0 z"
         id="path4211"
         style="color:#000000;clip-rule:nonzero;display:inline;overflow:visible;visibility:visible;opacity:1;isolation:auto;mix-blend-mode:normal;color-interpolation:sRGB;color-interpolation-filters:linearRGB;solid-color:#000000;solid-opacity:1;fill:#febf10;fill-opacity:1;fill-rule:nonzero;stroke-width:1;stroke-linecap:butt;stroke-linejoin:miter;stroke-miterlimit:4;stroke-dasharray:none;stroke-dashoffset:0;stroke-opacity:1;color-rendering:auto;image-rendering:auto;shape-rendering:auto;text-rendering:auto;enable-background:accumulate;filter-blend-mode:normal;filter-gaussianBlur-deviation:0"
         inkscape:connector-curvature="0"
         inkscape:export-xdpi="96"
         inkscape:export-ydpi="96"
         sodipodi:nodetypes="cccccccc" />
      <rect
         transform="scale(1,-1)"
         id="rect4169-9"
         style="color:#000000;clip-rule:nonzero;display:inline;overflow:visible;visibility:visible;opacity:0.5;isolation:auto;mix-blend-mode:normal;color-interpolation:sRGB;color-interpolation-filters:linearRGB;solid-color:#000000;solid-opacity:1;fill:#ffffff;fill-opacity:1;fill-rule:nonzero;stroke-width:1;stroke-linecap:butt;stroke-linejoin:miter;stroke-miterlimit:4;stroke-dasharray:none;stroke-dashoffset:0;stroke-opacity:1;color-rendering:auto;image-rendering:auto;shape-rendering:auto;text-rendering:auto;enable-background:accumulate;filter-blend-mode:normal;filter-gaussianBlur-deviation:0"
         height="0.999973"
         y="-518.79791"
         x="389.57144"
         width="14.999983" />
      <rect
         transform="scale(1,-1)"
         id="rect4236-1"
         style="color:#000000;clip-rule:nonzero;display:inline;overflow:visible;visibility:visible;opacity:0.25;isolation:auto;mix-blend-mode:normal;color-interpolation:sRGB;color-interpolation-filters:linearRGB;solid-color:#000000;solid-opacity:1;fill:#000000;fill-opacity:1;fill-rule:nonzero;stroke-width:1;stroke-linecap:butt;stroke-linejoin:miter;stroke-miterlimit:4;stroke-dasharray:none;stroke-dashoffset:0;stroke-opacity:1;color-rendering:auto;image-rendering:auto;shape-rendering:auto;text-rendering:auto;enable-background:accumulate;filter-blend-mode:normal;filter-gaussianBlur-deviation:0"
         height="1.00003"
         y="-545.79791"
         x="389.57144"
         width="21.999994" />
      <path
         sodipodi:nodetypes="cccc"
         d="m 404.57143,524.79795 7.00001,7 0,-7 z"
         id="path4255"
         style="opacity:0.1;fill:url(#linearGradient4257);fill-rule:evenodd"
         inkscape:connector-curvature="0"
         inkscape:export-xdpi="96"
         inkscape:export-ydpi="96" />
      <path
         d="m 411.57144,524.79792 -7.00001,-7 0,7 z"
         id="path4314-2"
         style="color:#000000;clip-rule:nonzero;display:inline;overflow:visible;visibility:visible;opacity:0.5;isolation:auto;mix-blend-mode:normal;color-interpolation:sRGB;color-interpolation-filters:linearRGB;solid-color:#000000;solid-opacity:1;fill:#ffffff;fill-opacity:1;fill-rule:evenodd;stroke-width:1;stroke-linecap:butt;stroke-linejoin:miter;stroke-miterlimit:4;stroke-dasharray:none;stroke-dashoffset:0;stroke-opacity:1;color-rendering:auto;image-rendering:auto;shape-rendering:auto;text-rendering:auto;enable-background:accumulate;filter-blend-mode:normal;filter-gaussianBlur-deviation:0"
         inkscape:connector-curvature="0" />
      <path
         sodipodi:nodetypes="cccccccc"
         inkscape:export-ydpi="96"
         inkscape:export-xdpi="96"
         inkscape:connector-curvature="0"
         style="fill:url(#linearGradient4178);fill-opacity:1"
         id="path7628-2"
         d="m 389.57143,545.79795 0,-28 15,0 7.00001,7 0,0 0,21 -14.00001,0 z" />
      <path
         style="color:#4d4d4d;clip-rule:nonzero;display:inline;overflow:visible;visibility:visible;opacity:0.9;isolation:auto;mix-blend-mode:normal;color-interpolation:sRGB;color-interpolation-filters:linearRGB;solid-color:#000000;solid-opacity:1;fill:#ffffff;fill-opacity:1;fill-rule:evenodd;stroke:none;stroke-width:1;stroke-linecap:butt;stroke-linejoin:miter;stroke-miterlimit:4;stroke-dasharray:none;stroke-dashoffset:0;stroke-opacity:1;marker:none;color-rendering:auto;image-rendering:auto;shape-rendering:auto;text-rendering:auto;enable-background:accumulate;filter-blend-mode:normal;filter-gaussianBlur-deviation:0"
         d="m 395.57143,525.79795 0,3 1,0 0,1.65039 a 1.5000058,1.5000058 0 0 0 -1,1.41211 1.5000058,1.5000058 0 0 0 1,1.41211 l 0,1.52539 -1,0 0,3 3,0 0,-1.80859 a 6.9999943,6 0 0 0 5,1.80859 l 0,-1 a 5.9999957,5.0000067 0 0 1 -5.76953,-3.63086 1.5000058,1.5000058 0 0 0 0.76953,-1.30664 1.5000058,1.5000058 0 0 0 -0.79883,-1.32227 5.9999957,5.0000067 0 0 1 5.79883,-3.74023 l 0,-1 a 6.9999943,6 0 0 0 -5,1.80273 l 0,-1.80273 -3,0 z m 1,1 1,0 0,1 -1,0 0,-1 z m 0,9 1,0 0,1 -1,0 0,-1 z"
         id="path4459"
         inkscape:connector-curvature="0" />
    </g>
  </g>
</svg>
