<svg width="32" xmlns="http://www.w3.org/2000/svg" height="32">
 <defs>
  <linearGradient id="a" y1="61" y2="3" x2="0" gradientUnits="userSpaceOnUse" gradientTransform="matrix(.5 0 0 .48276 384.57 516.35)">
   <stop stop-color="#96281b"/>
   <stop offset="1" stop-color="#a5281b"/>
  </linearGradient>
  <linearGradient id="b" y1="545.56" y2="538.8" x2="0" gradientUnits="userSpaceOnUse">
   <stop stop-color="#e87c73"/>
   <stop offset="1" stop-color="#f0aba4"/>
  </linearGradient>
  <linearGradient id="c" y1="538.8" x1="404.57" y2="545.8" x2="397.57" gradientUnits="userSpaceOnUse">
   <stop stop-color="#383e51"/>
   <stop offset="1" stop-color="#655c6f" stop-opacity="0"/>
  </linearGradient>
 </defs>
 <g transform="translate(-384.57-515.8)">
  <path fill="url(#a)" d="m389.57 517.8v28h15l7-7v-21h-7z"/>
  <rect width="15" x="389.57" y="544.8" fill="#2e3132" height="1" fill-opacity=".294"/>
  <rect width="22" x="389.57" y="517.8" fill="#ffffff" height="1" fill-opacity=".412"/>
  <g fill-rule="evenodd">
   <path fill="url(#b)" d="m411.57 538.8l-7 7v-7z"/>
   <path opacity=".2" fill="url(#c)" d="m397.57 545.8l7-7v7z"/>
  </g>
  <g fill="#f0aba4" color-rendering="auto" color-interpolation-filters="linearRGB" shape-rendering="auto" image-rendering="auto" text-rendering="auto" color-interpolation="sRGB" color="#4d4d4d">
   <path d="m394.57 532.8c4 .064 8-.287 12-2v4c-4.761 1.786-8.275 1.737-12 2z"/>
   <path d="m394.57 526.8c4 .064 8-.287 12-2v4c-4.761 1.786-8.275 1.737-12 2z"/>
  </g>
 </g>
</svg>
