<svg width="32" xmlns="http://www.w3.org/2000/svg" height="32">
 <defs>
  <linearGradient id="a" y1="61" y2="3" x2="0" gradientUnits="userSpaceOnUse" gradientTransform="matrix(.5 0 0 .48276 384.57 516.35)">
   <stop stop-color="#5e6b78"/>
   <stop offset="1" stop-color="#768492"/>
  </linearGradient>
  <linearGradient id="b" y1="545.56" y2="538.8" x2="0" gradientUnits="userSpaceOnUse">
   <stop stop-color="#dedede"/>
   <stop offset="1" stop-color="#fbfbfb"/>
  </linearGradient>
  <linearGradient id="c" y1="538.8" x1="404.57" y2="545.8" x2="397.57" gradientUnits="userSpaceOnUse">
   <stop stop-color="#383e51"/>
   <stop offset="1" stop-color="#655c6f" stop-opacity="0"/>
  </linearGradient>
 </defs>
 <g transform="translate(-384.57-515.8)">
  <path fill="url(#a)" d="m389.57 517.8v28h15l7-7v-21h-7z"/>
  <rect width="15" x="389.57" y="544.8" fill="#2e3132" height="1" fill-opacity=".294"/>
  <rect width="22" x="389.57" y="517.8" fill="#ffffff" height="1" fill-opacity=".412"/>
  <g fill-rule="evenodd">
   <path fill="url(#b)" d="m411.57 538.8l-7 7v-7z"/>
   <path opacity=".2" fill="url(#c)" d="m397.57 545.8l7-7v7z"/>
  </g>
  <path color-interpolation-filters="linearRGB" color="#4d4d4d" image-rendering="auto" color-rendering="auto" d="M13 9A3 3 0 0 0 10 12 3 3 0 0 0 13 15 3 3 0 0 0 16 12 3 3 0 0 0 13 9M16 12A3 3 0 0 0 19 15 3 3 0 0 0 22 12 3 3 0 0 0 19 9 3 3 0 0 0 16 12M13 10A2 2 0 0 1 15 12 2 2 0 0 1 13 14 2 2 0 0 1 11.628906 13.451172 1.5 1.5 0 0 0 12 13.5 1.5 1.5 0 0 0 13.5 12 1.5 1.5 0 0 0 12 10.5 1.5 1.5 0 0 0 11.625 10.548828 2 2 0 0 1 13 10M19 10A2 2 0 0 1 21 12 2 2 0 0 1 19 14 2 2 0 0 1 17.628906 13.451172 1.5 1.5 0 0 0 18 13.5 1.5 1.5 0 0 0 19.5 12 1.5 1.5 0 0 0 18 10.5 1.5 1.5 0 0 0 17.625 10.548828 2 2 0 0 1 19 10M20.08 16.15C19.14 16.683 17.623 16.999 16 17 14.606 16.999 13.275 16.766 12.33 16.355L11.701 17.09C12.09 17.288 12.532 17.444 13 17.58V19A2 2 0 0 0 15 21 2 2 0 0 0 16.5 20.320312 2 2 0 0 0 18 21 2 2 0 0 0 20 19V17.227C20.272 17.1 20.528 16.974 20.754 16.826zM19 17.576V19A1 1 0 0 1 18 20 1 1 0 0 1 17 19V17.941C17.712 17.88 18.382 17.756 19 17.576M14 17.814C14.638 17.928 15.309 18 16 18V19A1 1 0 0 1 15 20 1 1 0 0 1 14 19z" color-interpolation="sRGB" text-rendering="auto" fill="#d5dadc" shape-rendering="auto" transform="translate(384.57 515.8)"/>
 </g>
</svg>
