<svg width="32" height="32" version="1.1" xmlns="http://www.w3.org/2000/svg">
 <linearGradient id="a" x2="0" y1="61" y2="3" gradientTransform="matrix(.5 0 0 -.48276 384.57 547.25)" gradientUnits="userSpaceOnUse">
  <stop stop-color="#f3d400" offset="0"/>
  <stop stop-color="#f3cd00" offset="1"/>
 </linearGradient>
 <linearGradient id="b" x2="0" y1="518.04" y2="524.8" gradientUnits="userSpaceOnUse">
  <stop stop-color="#fcfda3" offset="0"/>
  <stop stop-color="#fdf4a7" offset="1"/>
 </linearGradient>
 <linearGradient id="c" x1="404.57" x2="411.57" y1="524.8" y2="531.8" gradientUnits="userSpaceOnUse">
  <stop stop-color="#383e51" offset="0"/>
  <stop stop-color="#655c6f" stop-opacity="0" offset="1"/>
 </linearGradient>
 <g transform="translate(-384.57 -515.8)">
  <path d="m389.57 545.8v-28h15l7 7v21h-7z" fill="url(#a)"/>
  <g transform="scale(1 -1)">
   <path d="m389.57-518.8h15v1h-15z" fill="#fff" fill-opacity=".412"/>
   <path d="m389.57-545.8h22v1h-22z" fill="#2e3132" fill-opacity=".294"/>
  </g>
  <g fill-rule="evenodd">
   <path d="m411.57 524.8-7-7v7z" fill="url(#b)"/>
   <path d="m411.57 531.8-7-7h7z" fill="url(#c)" opacity=".2"/>
  </g>
  <path d="m399.57 527.8c-1.108 0-2 0.892-2 2h3v1h-4c-1.108 0-2 0.892-2 2v2c0 1.108 0.892 2 2 2v-1c0-0.889 0.39-1.676 1-2.225l2e-3 -2e-3c0.132-0.119 0.275-0.226 0.426-0.32 1e-3 -1e-3 3e-3 -1e-3 4e-3 -2e-3 0.149-0.093 0.306-0.172 0.471-0.238 0.03-0.012 0.062-0.019 0.092-0.029 0.14-0.051 0.283-0.097 0.432-0.127 0.186-0.036 0.377-0.057 0.574-0.057h4v-3c0-1.108-0.892-2-2-2zm0 0.5c0.277 0 0.5 0.223 0.5 0.5s-0.223 0.5-0.5 0.5-0.5-0.223-0.5-0.5 0.223-0.5 0.5-0.5m5 2.5v1c0 0.889-0.392 1.678-1 2.227-0.132 0.119-0.275 0.226-0.426 0.32-1e-3 1e-3 -3e-3 1e-3 -4e-3 2e-3 -0.149 0.093-0.306 0.172-0.471 0.238-0.03 0.012-0.062 0.019-0.092 0.029-0.14 0.051-0.283 0.097-0.432 0.127-0.186 0.036-0.377 0.057-0.574 0.057h-4v3c0 1.108 0.892 2 2 2h2c1.108 0 2-0.892 2-2h-3v-1h4c1.108 0 2-0.892 2-2v-2c0-1.108-0.892-2-2-2m-3 7.5c0.277 0 0.5 0.223 0.5 0.5s-0.223 0.5-0.5 0.5-0.5-0.223-0.5-0.5 0.223-0.5 0.5-0.5" display="none" fill="#fddda3"/>
  <g transform="matrix(.5959 0 0 .5959 381.5 514.73)" fill="#fff39f">
   <g transform="matrix(1.019 0 0 1.019 15.695 15.696)" fill="#fff39f">
    <path d="m16.111 6.405s-1.073 0.847-2.167 1.69a15.361 15.361 0 0 0-4.527 0.651c-1.1-0.7-2.07-1.469-2.07-1.469s-0.827 1.423-1.347 2.258a11.382 11.382 0 0 0-2.236 1.482c-0.803-0.317-1.734-0.707-1.764-0.717 1.063 2.145 1.778 4.292 3.722 5.583 3.1-4.889 17.48-4.439 20.639-0.028 2.039-1.068 2.839-3.355 3.639-5.475-0.088 0.029-1.181 0.395-1.889 0.665a11.489 11.489 0 0 0-1.986-1.51c-0.537-0.984-1.319-2.313-1.319-2.313s-0.927 0.689-2 1.44a21.265 21.265 0 0 0-4.681-0.512c-1-0.826-2.014-1.746-2.014-1.746z"/>
    <path d="m3.1 14.854 2.554 6.185c4.435 5.85 15.759 6.257 20.7 0.113 1.168-2.633 2.745-6.333 2.745-6.333a13.379 13.379 0 0 1-4.6 3.869 12.217 12.217 0 0 1-2.983 0.793l-5.465-2.832-5.5 2.775a15.679 15.679 0 0 1-2.983-0.764 14.076 14.076 0 0 1-4.468-3.806z"/>
   </g>
  </g>
 </g>
</svg>
