<svg width="32" xmlns="http://www.w3.org/2000/svg" height="32">
 <defs>
  <linearGradient id="a" y1="61" y2="3" x2="0" gradientUnits="userSpaceOnUse" gradientTransform="matrix(.5 0 0 .48276 384.57 516.35)">
   <stop stop-color="#3a539b"/>
   <stop offset="1" stop-color="#3f5aa9"/>
  </linearGradient>
  <linearGradient id="b" y1="545.56" y2="538.8" x2="0" gradientUnits="userSpaceOnUse">
   <stop stop-color="#97aad8"/>
   <stop offset="1" stop-color="#c1cae7"/>
  </linearGradient>
  <linearGradient id="c" y1="538.8" x1="404.57" y2="545.8" x2="397.57" gradientUnits="userSpaceOnUse">
   <stop stop-color="#383e51"/>
   <stop offset="1" stop-color="#655c6f" stop-opacity="0"/>
  </linearGradient>
 </defs>
 <g transform="translate(-384.57-515.8)">
  <path fill="url(#a)" d="m389.57 517.8v28h15l7-7v-21h-7z"/>
  <rect width="15" x="389.57" y="544.8" fill="#2e3132" height="1" fill-opacity=".294"/>
  <rect width="22" x="389.57" y="517.8" fill="#ffffff" height="1" fill-opacity=".412"/>
  <g fill-rule="evenodd">
   <path fill="url(#b)" d="m411.57 538.8l-7 7v-7z"/>
   <path opacity=".2" fill="url(#c)" d="m397.57 545.8l7-7v7z"/>
  </g>
  <path color-interpolation-filters="linearRGB" color="#4d4d4d" image-rendering="auto" color-rendering="auto" d="M20.5 9A1.5 1.5 0 0 0 19 10.5 1.5 1.5 0 0 0 20.5 12 1.5 1.5 0 0 0 22 10.5 1.5 1.5 0 0 0 20.5 9M15.5 10A5.5 5.5 0 0 0 10 15.5 5.5 5.5 0 0 0 15.5 21 5.5 5.5 0 0 0 21 15.5 5.5 5.5 0 0 0 19.716797 11.976562 2 2 0 0 1 20 13 2 2 0 0 1 18 15 2 2 0 0 1 16 13 2 2 0 0 1 18 11 2 2 0 0 1 19.05273 11.302734 5.5 5.5 0 0 0 15.5 10" color-interpolation="sRGB" text-rendering="auto" fill="#c1cae7" shape-rendering="auto" transform="translate(384.57 515.8)"/>
 </g>
</svg>
