<?xml version="1.0" encoding="UTF-8" standalone="no"?>
<svg
   xmlns:dc="http://purl.org/dc/elements/1.1/"
   xmlns:cc="http://creativecommons.org/ns#"
   xmlns:rdf="http://www.w3.org/1999/02/22-rdf-syntax-ns#"
   xmlns:svg="http://www.w3.org/2000/svg"
   xmlns="http://www.w3.org/2000/svg"
   xmlns:xlink="http://www.w3.org/1999/xlink"
   xmlns:sodipodi="http://sodipodi.sourceforge.net/DTD/sodipodi-0.dtd"
   xmlns:inkscape="http://www.inkscape.org/namespaces/inkscape"
   width="32"
   height="32"
   id="svg2"
   version="1.1"
   inkscape:version="0.91 r13725"
   sodipodi:docname="text-x-go.svg">
  <metadata
     id="metadata39">
    <rdf:RDF>
      <cc:Work
         rdf:about="">
        <dc:format>image/svg+xml</dc:format>
        <dc:type
           rdf:resource="http://purl.org/dc/dcmitype/StillImage" />
      </cc:Work>
    </rdf:RDF>
  </metadata>
  <sodipodi:namedview
     pagecolor="#ffffff"
     bordercolor="#666666"
     borderopacity="1"
     objecttolerance="10"
     gridtolerance="10"
     guidetolerance="10"
     inkscape:pageopacity="0"
     inkscape:pageshadow="2"
     inkscape:window-width="1920"
     inkscape:window-height="985"
     id="namedview37"
     showgrid="false"
     inkscape:zoom="7.375"
     inkscape:cx="-3.7966102"
     inkscape:cy="16"
     inkscape:window-x="0"
     inkscape:window-y="30"
     inkscape:window-maximized="1"
     inkscape:current-layer="svg2" />
  <defs
     id="defs4">
    <linearGradient
       id="a"
       y1="61"
       y2="3"
       x2="0"
       gradientUnits="userSpaceOnUse"
       gradientTransform="matrix(0.5,0,0,0.48276,0,0.55)">
      <stop
         stop-color="#5e6b78"
         id="stop7" />
      <stop
         offset="1"
         stop-color="#768492"
         id="stop9" />
    </linearGradient>
    <linearGradient
       id="b"
       y1="545.56"
       y2="538.8"
       x2="0"
       gradientUnits="userSpaceOnUse">
      <stop
         stop-color="#dedede"
         id="stop12" />
      <stop
         offset="1"
         stop-color="#fbfbfb"
         id="stop14" />
    </linearGradient>
    <linearGradient
       id="c"
       y1="538.8"
       x1="404.57"
       y2="545.8"
       x2="397.57"
       gradientUnits="userSpaceOnUse">
      <stop
         stop-color="#383e51"
         id="stop17" />
      <stop
         offset="1"
         stop-color="#655c6f"
         stop-opacity="0"
         id="stop19" />
    </linearGradient>
    <linearGradient
       inkscape:collect="always"
       xlink:href="#linearGradient4300-7"
       id="linearGradient4306-3"
       y1="61"
       y2="3"
       x2="0"
       gradientUnits="userSpaceOnUse"
       gradientTransform="matrix(0.49999977,0,0,-0.48275841,10e-6,31.44823)" />
    <linearGradient
       inkscape:collect="always"
       id="linearGradient4300-7">
      <stop
         style="stop-color:#5e6b78"
         id="stop4302-2" />
      <stop
         offset="1"
         style="stop-color:#768492"
         id="stop4304-4" />
    </linearGradient>
    <linearGradient
       inkscape:collect="always"
       xlink:href="#linearGradient4351-8"
       id="linearGradient4357-7"
       y1="61"
       y2="47"
       x2="0"
       gradientUnits="userSpaceOnUse"
       gradientTransform="matrix(0.48275841,0,0,-0.48275841,0.68966,31.68961)" />
    <linearGradient
       inkscape:collect="always"
       id="linearGradient4351-8">
      <stop
         style="stop-color:#dedede"
         id="stop4353-5" />
      <stop
         offset="1"
         style="stop-color:#fbfbfb"
         id="stop4355-8-4" />
    </linearGradient>
    <linearGradient
       inkscape:collect="always"
       xlink:href="#linearGradient4410"
       id="linearGradient4427-3"
       y1="31"
       x1="54"
       y2="16.500048"
       x2="39.500008"
       gradientUnits="userSpaceOnUse"
       gradientTransform="matrix(0,-0.48275841,-0.48275841,0,34.96551,35.06896)" />
    <linearGradient
       inkscape:collect="always"
       id="linearGradient4410">
      <stop
         style="stop-color:#383e51"
         id="stop4412" />
      <stop
         offset="1"
         style="stop-color:#655c6f;stop-opacity:0"
         id="stop4414" />
    </linearGradient>
  </defs>
  <rect
     width="0"
     x="31.320782"
     y="10.999974"
     height="10.999983"
     style="fill:#ffffff"
     id="rect4035" />
  <rect
     width="0"
     x="31.000011"
     y="9.9999743"
     height="10.999983"
     style="fill:#ffffff"
     id="rect4035-4" />
  <rect
     width="0"
     x="29.464153"
     y="9.8861437"
     height="11.1139"
     style="fill:#fbd2bf"
     id="rect4035-3" />
  <rect
     width="0"
     x="31.000011"
     y="9.9999743"
     height="10.999983"
     style="fill:#fbd2bf"
     id="rect4035-1" />
  <rect
     width="0"
     x="31.320782"
     y="10.999974"
     height="10.999983"
     style="fill:#ffffff"
     id="rect4035-7" />
  <rect
     width="0"
     x="31.000011"
     y="9.9999743"
     height="10.999983"
     style="fill:#ffffff"
     id="rect4035-4-53" />
  <rect
     width="0"
     x="29.464153"
     y="9.8861437"
     height="11.1139"
     style="fill:#fbd2bf"
     id="rect4035-3-5" />
  <rect
     width="0"
     x="31.000011"
     y="9.9999743"
     height="10.999983"
     style="fill:#fbd2bf"
     id="rect4035-1-6" />
  <rect
     width="0"
     x="31.000011"
     y="9.9999743"
     height="10.999983"
     style="fill:#fbfbfb"
     id="rect4035-5" />
  <path
     inkscape:connector-curvature="0"
     style="fill:url(#linearGradient4306-3);fill-opacity:1"
     id="rect3500-2"
     d="m 5.00001,29.99996 0,-27.99999 14.99999,0 7.00003,7 -3e-5,14.24137 0,6.75862 -7,0 z" />
  <rect
     width="14.999983"
     x="5.0000114"
     y="-2.9999735"
     height="0.999973"
     style="fill:#ffffff;fill-opacity:0.41176471"
     id="rect4169-9"
     transform="scale(1,-1)" />
  <rect
     width="21.999994"
     x="5.0000114"
     y="-29.999973"
     height="1.00003"
     style="fill:#2e3132;fill-opacity:0.29411765"
     id="rect4236-1"
     transform="scale(1,-1)" />
  <path
     inkscape:connector-curvature="0"
     style="fill:url(#linearGradient4357-7);fill-opacity:1;fill-rule:evenodd"
     id="path4314-2"
     d="m 27.00001,8.99997 -7.00001,-7 0,7 z" />
  <path
     inkscape:connector-curvature="0"
     style="opacity:0.2;fill:url(#linearGradient4427-3);fill-rule:evenodd"
     id="path4320-7"
     d="M 26.99997,16 20,9 27,9 Z" />
  <rect
     width="0"
     x="31.320782"
     y="10.999974"
     height="10.999983"
     style="fill:#ffffff"
     id="rect4035-53" />
  <rect
     width="0"
     x="31.000011"
     y="9.9999743"
     height="10.999983"
     style="fill:#ffffff"
     id="rect4035-4-5" />
  <path
     style="color:#4d4d4d;color-interpolation:sRGB;color-interpolation-filters:linearRGB;fill:#fbfbfb;color-rendering:auto;image-rendering:auto;shape-rendering:auto;text-rendering:auto;fill-opacity:1"
     inkscape:connector-curvature="0"
     id="path35"
     d="m 13,12 a 3,3 0 0 0 -3,3 3,3 0 0 0 3,3 3,3 0 0 0 3,-3 3,3 0 0 0 -3,-3 m 3,3 a 3,3 0 0 0 3,3 3,3 0 0 0 3,-3 3,3 0 0 0 -3,-3 3,3 0 0 0 -3,3 m -3,-2 a 2,2 0 0 1 2,2 2,2 0 0 1 -2,2 A 2,2 0 0 1 11.628906,16.451172 1.5,1.5 0 0 0 12,16.5 1.5,1.5 0 0 0 13.5,15 1.5,1.5 0 0 0 12,13.5 1.5,1.5 0 0 0 11.625,13.548828 2,2 0 0 1 13,13 m 6,0 a 2,2 0 0 1 2,2 2,2 0 0 1 -2,2 A 2,2 0 0 1 17.628906,16.451172 1.5,1.5 0 0 0 18,16.5 1.5,1.5 0 0 0 19.5,15 1.5,1.5 0 0 0 18,13.5 1.5,1.5 0 0 0 17.625,13.548828 2,2 0 0 1 19,13 m 1.08,6.15 C 19.14,19.683 17.623,19.999 16,20 14.606,19.999 13.275,19.766 12.33,19.355 l -0.629,0.735 c 0.389,0.198 0.831,0.354 1.299,0.49 L 13,22 a 2,2 0 0 0 2,2 2,2 0 0 0 1.5,-0.679688 A 2,2 0 0 0 18,24 2,2 0 0 0 20,22 l 0,-1.773 c 0.272,-0.127 0.528,-0.253 0.754,-0.401 z M 19,20.576 19,22 a 1,1 0 0 1 -1,1 1,1 0 0 1 -1,-1 l 0,-1.059 c 0.712,-0.061 1.382,-0.185 2,-0.365 m -5,0.238 C 14.638,20.928 15.309,21 16,21 l 0,1 a 1,1 0 0 1 -1,1 1,1 0 0 1 -1,-1 z" />
</svg>
