<?xml version="1.0" encoding="UTF-8" standalone="no"?>
<svg
   xmlns:dc="http://purl.org/dc/elements/1.1/"
   xmlns:cc="http://creativecommons.org/ns#"
   xmlns:rdf="http://www.w3.org/1999/02/22-rdf-syntax-ns#"
   xmlns:svg="http://www.w3.org/2000/svg"
   xmlns="http://www.w3.org/2000/svg"
   xmlns:xlink="http://www.w3.org/1999/xlink"
   version="1.1"
   id="svg2"
   height="32"
   width="32">
  <metadata
     id="metadata39">
    <rdf:RDF>
      <cc:Work
         rdf:about="">
        <dc:format>image/svg+xml</dc:format>
        <dc:type
           rdf:resource="http://purl.org/dc/dcmitype/StillImage" />
        <dc:title></dc:title>
      </cc:Work>
    </rdf:RDF>
  </metadata>
  <defs
     id="defs4">
    <linearGradient
       gradientTransform="translate(309.57,152.44)"
       gradientUnits="userSpaceOnUse"
       x2="0"
       y2="365.36"
       y1="392.36"
       id="a">
      <stop
         id="stop7"
         stop-opacity="0"
         stop-color="#ffffff" />
      <stop
         id="stop9"
         stop-opacity=".2"
         stop-color="#ffffff"
         offset="1" />
    </linearGradient>
    <linearGradient
       gradientTransform="translate(-27,-8)"
       gradientUnits="userSpaceOnUse"
       x2="54"
       x1="47"
       y2="24"
       y1="17"
       id="b">
      <stop
         id="stop12"
         stop-color="#060606" />
      <stop
         id="stop14"
         stop-opacity="0"
         offset="1" />
    </linearGradient>
    <path
       d="m389.57 545.8v-28h15l7 7v21h-14z"
       id="c" />
  </defs>
  <use
     transform="translate(-384.57,-515.8)"
     height="100%"
     width="100%"
     y="0"
     x="0"
     style="color:#000000;color-interpolation:sRGB;color-interpolation-filters:linearRGB;fill:#084263;color-rendering:auto;image-rendering:auto;shape-rendering:auto;text-rendering:auto"
     id="use21"
     xlink:href="#c" />
  <rect
     transform="scale(1,-1)"
     x="5.0000072"
     y="-2.9999878"
     width="15"
     height="1"
     id="rect25"
     style="color:#000000;opacity:0.5;color-interpolation:sRGB;color-interpolation-filters:linearRGB;fill:#ffffff;color-rendering:auto;image-rendering:auto;shape-rendering:auto;text-rendering:auto" />
  <rect
     transform="scale(1,-1)"
     x="5.0000072"
     y="-29.999989"
     width="22"
     height="1"
     id="rect27"
     style="color:#000000;opacity:0.25;color-interpolation:sRGB;color-interpolation-filters:linearRGB;color-rendering:auto;image-rendering:auto;shape-rendering:auto;text-rendering:auto" />
  <path
     style="color:#000000;color-interpolation:sRGB;color-interpolation-filters:linearRGB;fill:#13a4f7;color-rendering:auto;image-rendering:auto;shape-rendering:auto;text-rendering:auto"
     id="path29"
     d="M 27,9 20,2 20,9 Z" />
  <path
     d="m 20,9 7,7 0,-7 z"
     id="path31"
     style="opacity:0.1;fill:url(#b);fill-rule:evenodd" />
  <use
     transform="translate(-384.57,-515.8)"
     xlink:href="#c"
     id="use33"
     style="fill:url(#a)"
     x="0"
     y="0"
     width="100%"
     height="100%" />
  <path
     d="m 13,10 0,12 1,0 0,-5 3,0 0,-1 -3,0 0,-6 z m 4,7 0,1 1,0 0,-1 z m 1,1 0,4 1,0 0,-4 z"
     id="rect4139-2"
     style="fill:#13a4f7;fill-opacity:1" />
</svg>
