<?xml version="1.0" encoding="UTF-8" standalone="no"?>
<!-- Created with Inkscape (http://www.inkscape.org/) -->

<svg
   xmlns:dc="http://purl.org/dc/elements/1.1/"
   xmlns:cc="http://creativecommons.org/ns#"
   xmlns:rdf="http://www.w3.org/1999/02/22-rdf-syntax-ns#"
   xmlns:svg="http://www.w3.org/2000/svg"
   xmlns="http://www.w3.org/2000/svg"
   xmlns:xlink="http://www.w3.org/1999/xlink"
   xmlns:sodipodi="http://sodipodi.sourceforge.net/DTD/sodipodi-0.dtd"
   xmlns:inkscape="http://www.inkscape.org/namespaces/inkscape"
   width="32"
   version="1.1"
   height="32"
   id="svg2"
   inkscape:version="0.91 r13725"
   sodipodi:docname="video-x-theora+ogg.svg">
  <sodipodi:namedview
     pagecolor="#ffffff"
     bordercolor="#666666"
     borderopacity="1"
     objecttolerance="10"
     gridtolerance="10"
     guidetolerance="10"
     inkscape:pageopacity="0"
     inkscape:pageshadow="2"
     inkscape:window-width="1854"
     inkscape:window-height="1051"
     id="namedview27"
     showgrid="false"
     inkscape:object-nodes="true"
     inkscape:zoom="2"
     inkscape:cx="167.77108"
     inkscape:cy="106.90361"
     inkscape:window-x="66"
     inkscape:window-y="0"
     inkscape:window-maximized="1"
     inkscape:current-layer="layer1"
     inkscape:snap-bbox="true"
     inkscape:bbox-nodes="true">
    <inkscape:grid
       type="xygrid"
       id="grid4155" />
  </sodipodi:namedview>
  <defs
     id="defs5455">
    <linearGradient
       id="linearGradient6251"
       inkscape:collect="always">
      <stop
         id="stop6253"
         offset="0"
         style="stop-color:#ffffff;stop-opacity:0" />
      <stop
         id="stop6255"
         offset="1"
         style="stop-color:#ffffff;stop-opacity:0.2" />
    </linearGradient>
    <linearGradient
       inkscape:collect="always"
       xlink:href="#linearGradient6251"
       id="linearGradient4268"
       gradientUnits="userSpaceOnUse"
       gradientTransform="matrix(0.48275862,0,0,0.40835267,384.6404,384.68474)"
       x1="57.857132"
       y1="394.5444"
       x2="57.857132"
       y2="325.97623" />
    <linearGradient
       id="linearGradient4351-4">
      <stop
         id="stop4353-0"
         style="stop-color:#036b53" />
      <stop
         id="stop4355-6"
         style="stop-color:#036b53"
         offset="1" />
    </linearGradient>
    <linearGradient
       id="linearGradient4351-1">
      <stop
         id="stop4353-6"
         style="stop-color:#c8e3fe" />
      <stop
         id="stop4355-2"
         style="stop-color:#ffffff"
         offset="1" />
    </linearGradient>
    <linearGradient
       id="linearGradient4300-3-3">
      <stop
         id="stop4302-6"
         style="stop-color:#f39c12" />
      <stop
         id="stop4304-7-6"
         style="stop-color:#f89406"
         offset="1" />
    </linearGradient>
    <linearGradient
       id="linearGradient4351-5">
      <stop
         id="stop4353-1"
         style="stop-color:#fddda3" />
      <stop
         id="stop4355-8"
         style="stop-color:#fde3a7"
         offset="1" />
    </linearGradient>
  </defs>
  <metadata
     id="metadata5458">
    <rdf:RDF>
      <cc:Work
         rdf:about="">
        <dc:format>image/svg+xml</dc:format>
        <dc:type
           rdf:resource="http://purl.org/dc/dcmitype/StillImage" />
      </cc:Work>
    </rdf:RDF>
  </metadata>
  <g
     inkscape:label="Capa 1"
     inkscape:groupmode="layer"
     id="layer1"
     transform="matrix(1 0 0 1 -384.57143 -515.798)">
    <rect
       width="0"
       x="375.89221"
       y="526.79797"
       height="10.999983"
       style="fill:#ffffff"
       id="rect4035" />
    <rect
       width="0"
       x="375.57144"
       y="525.79797"
       height="10.999983"
       style="fill:#ffffff"
       id="rect4035-4" />
    <g
       id="g4499">
      <path
         sodipodi:nodetypes="cccccccc"
         d="m 414.57145,545.79801 -27.99999,0 0,-14.99999 -3e-5,-7.00002 21.24139,2e-5 6.75862,0 0,7 z"
         id="rect3500"
         style="color:#000000;clip-rule:nonzero;display:inline;overflow:visible;visibility:visible;opacity:1;isolation:auto;mix-blend-mode:normal;color-interpolation:sRGB;color-interpolation-filters:linearRGB;solid-color:#000000;solid-opacity:1;fill:#f9d24c;fill-opacity:1;fill-rule:nonzero;stroke-width:1;stroke-linecap:butt;stroke-linejoin:miter;stroke-miterlimit:4;stroke-dasharray:none;stroke-dashoffset:0;stroke-opacity:1;color-rendering:auto;image-rendering:auto;shape-rendering:auto;text-rendering:auto;enable-background:accumulate;stroke:none;marker:none;filter-blend-mode:normal;filter-gaussianBlur-deviation:0"
         inkscape:connector-curvature="0" />
      <rect
         id="rect4169"
         style="color:#000000;clip-rule:nonzero;display:inline;overflow:visible;visibility:visible;opacity:0.25;isolation:auto;mix-blend-mode:normal;color-interpolation:sRGB;color-interpolation-filters:linearRGB;solid-color:#000000;solid-opacity:1;fill:#000000;fill-opacity:1;fill-rule:nonzero;stroke-width:1;stroke-linecap:butt;stroke-linejoin:miter;stroke-miterlimit:4;stroke-dasharray:none;stroke-dashoffset:0;stroke-opacity:1;color-rendering:auto;image-rendering:auto;shape-rendering:auto;text-rendering:auto;enable-background:accumulate;filter-blend-mode:normal;filter-gaussianBlur-deviation:0"
         height="0.999973"
         y="544.79797"
         x="386.57144"
         width="28.000013" />
      <rect
         id="rect4236"
         style="color:#000000;clip-rule:nonzero;display:inline;overflow:visible;visibility:visible;opacity:0.5;isolation:auto;mix-blend-mode:normal;color-interpolation:sRGB;color-interpolation-filters:linearRGB;solid-color:#000000;solid-opacity:1;fill:#ffffff;fill-opacity:1;fill-rule:nonzero;stroke-width:1;stroke-linecap:butt;stroke-linejoin:miter;stroke-miterlimit:4;stroke-dasharray:none;stroke-dashoffset:0;stroke-opacity:1;color-rendering:auto;image-rendering:auto;shape-rendering:auto;text-rendering:auto;enable-background:accumulate;filter-blend-mode:normal;filter-gaussianBlur-deviation:0"
         height="1.00003"
         y="523.79797"
         x="386.57144"
         width="27.999981" />
      <path
         inkscape:connector-curvature="0"
         id="path4157"
         d="m 400.57143,528.798 a 6,6 0 0 0 -6,6 6,6 0 0 0 6,6 6,6 0 0 0 6,-6 6,6 0 0 0 -6,-6 z m 0,1 a 5,5 0 0 1 5,5 5,5 0 0 1 -5,5 5,5 0 0 1 -5,-5 5,5 0 0 1 5,-5 z m -2,2 0,6 5,-3 -5,-3 z"
         style="color:#000000;clip-rule:nonzero;display:inline;overflow:visible;visibility:visible;opacity:0.75;isolation:auto;mix-blend-mode:normal;color-interpolation:sRGB;color-interpolation-filters:linearRGB;solid-color:#000000;solid-opacity:1;fill:#ffffff;fill-opacity:1;fill-rule:nonzero;stroke:none;stroke-width:2;stroke-linecap:butt;stroke-linejoin:miter;stroke-miterlimit:4;stroke-dasharray:none;stroke-dashoffset:0;stroke-opacity:1;color-rendering:auto;image-rendering:auto;shape-rendering:auto;text-rendering:auto;enable-background:accumulate" />
      <path
         inkscape:connector-curvature="0"
         id="rect4165"
         d="m 387.57143,525.798 0,2 2,0 0,-2 -2,0 z m 24,0 0,2 2,0 0,-2 -2,0 z m -24,4 0,2 2,0 0,-2 -2,0 z m 24,0 0,2 2,0 0,-2 -2,0 z m -24,4 0,2 2,0 0,-2 -2,0 z m 24,0 0,2 2,0 0,-2 -2,0 z m -24,4 0,2 2,0 0,-2 -2,0 z m 24,0 0,2 2,0 0,-2 -2,0 z m -24,4 0,2 2,0 0,-2 -2,0 z m 24,0 0,2 2,0 0,-2 -2,0 z"
         style="color:#000000;clip-rule:nonzero;display:inline;overflow:visible;visibility:visible;opacity:0.75;isolation:auto;mix-blend-mode:normal;color-interpolation:sRGB;color-interpolation-filters:linearRGB;solid-color:#000000;solid-opacity:1;fill:#ffffff;fill-opacity:1;fill-rule:nonzero;stroke:none;stroke-width:2;stroke-linecap:butt;stroke-linejoin:miter;stroke-miterlimit:4;stroke-dasharray:none;stroke-dashoffset:0;stroke-opacity:1;color-rendering:auto;image-rendering:auto;shape-rendering:auto;text-rendering:auto;enable-background:accumulate" />
      <path
         sodipodi:nodetypes="cccccc"
         inkscape:connector-curvature="0"
         d="m 386.57144,523.79802 -10e-6,21.99998 21.24138,0 6.75862,0 10e-6,-21.99998 z"
         id="path4266"
         style="color:#000000;clip-rule:nonzero;display:inline;overflow:visible;visibility:visible;opacity:1;isolation:auto;mix-blend-mode:normal;color-interpolation:sRGB;color-interpolation-filters:linearRGB;solid-color:#000000;solid-opacity:1;fill:url(#linearGradient4268);fill-opacity:1;fill-rule:nonzero;stroke:none;stroke-width:1;stroke-linecap:butt;stroke-linejoin:miter;stroke-miterlimit:4;stroke-dasharray:none;stroke-dashoffset:0;stroke-opacity:1;marker:none;color-rendering:auto;image-rendering:auto;shape-rendering:auto;text-rendering:auto;enable-background:accumulate" />
    </g>
    <rect
       width="0"
       x="379.97827"
       y="565.86578"
       height="10.999983"
       style="fill:#036b53"
       id="rect4035-5356" />
    <rect
       width="0"
       x="379.97827"
       y="565.86578"
       height="10.999983"
       style="fill:#036b53"
       id="rect4035-6" />
    <rect
       width="0"
       x="379.97827"
       y="565.86578"
       height="10.999983"
       style="fill:#036b53"
       id="rect4035-3" />
    <rect
       width="0"
       x="380.29904"
       y="526.86578"
       height="10.999983"
       style="fill:#ffffff"
       id="rect4035-62" />
    <rect
       width="0"
       x="379.97827"
       y="525.86578"
       height="10.999983"
       style="fill:#ffffff"
       id="rect4035-4-2" />
    <rect
       width="0"
       x="387.89221"
       y="538.79797"
       height="10.999983"
       style="fill:#ffffff"
       id="rect4035-367" />
    <rect
       width="0"
       x="387.57144"
       y="537.79797"
       height="10.999983"
       style="fill:#ffffff"
       id="rect4035-4-535" />
    <rect
       width="0"
       x="386.03558"
       y="537.68414"
       height="11.1139"
       style="fill:#fbd2bf"
       id="rect4035-3-6" />
    <rect
       width="0"
       x="387.57144"
       y="537.79797"
       height="10.999983"
       style="fill:#fbd2bf"
       id="rect4035-1" />
    <rect
       width="0"
       x="407.57144"
       y="537.79797"
       height="10.999983"
       style="fill:#fbfbfb"
       id="rect4035-2" />
    <rect
       width="0"
       x="387.57144"
       y="537.79797"
       height="10.999983"
       style="fill:#fbfbfb"
       id="rect4035-8" />
    <rect
       width="0"
       x="387.57144"
       y="537.79797"
       height="10.999983"
       style="fill:#fbfbfb"
       id="rect4035-9" />
    <rect
       width="0"
       x="387.89221"
       y="538.79797"
       height="10.999983"
       style="fill:#ffffff"
       id="rect4035-36" />
    <rect
       width="0"
       x="387.89221"
       y="538.79797"
       height="10.999983"
       style="fill:#ffffff"
       id="rect4035-7" />
    <rect
       width="0"
       x="387.57144"
       y="537.79797"
       height="10.999983"
       style="fill:#ffffff"
       id="rect4035-4-7" />
    <rect
       width="0"
       x="386.03558"
       y="537.68414"
       height="11.1139"
       style="fill:#fbd2bf"
       id="rect4035-3-53" />
    <rect
       width="0"
       x="387.57144"
       y="537.79797"
       height="10.999983"
       style="fill:#fbd2bf"
       id="rect4035-1-5" />
    <rect
       width="0"
       x="407.57144"
       y="537.79797"
       height="10.999983"
       style="fill:#fbfbfb"
       id="rect4035-2-6" />
    <rect
       width="0"
       x="387.57144"
       y="537.79797"
       height="10.999983"
       style="fill:#fbfbfb"
       id="rect4035-8-2" />
    <rect
       width="0"
       x="387.57144"
       y="537.79797"
       height="10.999983"
       style="fill:#fbfbfb"
       id="rect4035-9-9" />
    <rect
       width="0"
       x="400.82913"
       y="546.55237"
       height="10.999983"
       style="fill:#ffffff"
       id="rect4035-75" />
    <rect
       width="0"
       x="400.50836"
       y="545.55237"
       height="10.999983"
       style="fill:#ffffff"
       id="rect4035-4-3" />
    <rect
       width="0"
       x="398.9725"
       y="545.43854"
       height="11.1139"
       style="fill:#fbd2bf"
       id="rect4035-3-56" />
    <rect
       width="0"
       x="400.50836"
       y="545.55237"
       height="10.999983"
       style="fill:#fbd2bf"
       id="rect4035-1-2" />
    <rect
       width="0"
       x="400.50836"
       y="545.55237"
       height="10.999983"
       style="fill:#fbfbfb"
       id="rect4035-5-9" />
    <rect
       width="0"
       x="400.82913"
       y="546.55237"
       height="10.999983"
       style="fill:#ffffff"
       id="rect4035-7-1" />
    <rect
       width="0"
       x="400.50836"
       y="545.55237"
       height="10.999983"
       style="fill:#ffffff"
       id="rect4035-4-53" />
    <rect
       width="0"
       x="398.9725"
       y="545.43854"
       height="11.1139"
       style="fill:#fbd2bf"
       id="rect4035-3-5" />
    <rect
       width="0"
       x="400.50836"
       y="545.55237"
       height="10.999983"
       style="fill:#fbd2bf"
       id="rect4035-1-6" />
    <rect
       width="0"
       x="400.50836"
       y="545.55237"
       height="10.999983"
       style="fill:#fbfbfb"
       id="rect4035-5-2" />
    <rect
       width="0"
       x="400.82913"
       y="546.55237"
       height="10.999983"
       style="fill:#ffffff"
       id="rect4035-53" />
    <rect
       width="0"
       x="400.50836"
       y="545.55237"
       height="10.999983"
       style="fill:#ffffff"
       id="rect4035-4-5" />
    <rect
       width="0"
       x="400.82913"
       y="546.55237"
       height="10.999983"
       style="fill:#ffffff"
       id="rect4035-535" />
    <rect
       width="0"
       x="400.50836"
       y="545.55237"
       height="10.999983"
       style="fill:#ffffff"
       id="rect4035-4-6" />
    <rect
       width="0"
       x="398.9725"
       y="545.43854"
       height="11.1139"
       style="fill:#fbd2bf"
       id="rect4035-3-2" />
    <rect
       width="0"
       x="400.50836"
       y="545.55237"
       height="10.999983"
       style="fill:#fbd2bf"
       id="rect4035-1-9" />
    <rect
       width="0"
       x="400.50836"
       y="545.55237"
       height="10.999983"
       style="fill:#fbfbfb"
       id="rect4035-5" />
    <rect
       width="0"
       x="400.50836"
       y="545.55237"
       height="10.999983"
       style="fill:#fffcf9"
       id="rect4035-8-0" />
    <rect
       width="0"
       x="400.50836"
       y="545.55237"
       height="10.999983"
       style="fill:#e8d9eb"
       id="rect4035-44" />
    <rect
       width="0"
       x="400.50836"
       y="545.55237"
       height="10.999983"
       style="fill:#e8d9eb"
       id="rect4035-7-6" />
    <rect
       width="0"
       x="400.82913"
       y="546.55237"
       height="10.999983"
       style="fill:#ffffff"
       id="rect4035-26" />
    <rect
       width="0"
       x="400.50836"
       y="545.55237"
       height="10.999983"
       style="fill:#ffffff"
       id="rect4035-4-1" />
    <rect
       width="0"
       x="398.9725"
       y="545.43854"
       height="11.1139"
       style="fill:#fbd2bf"
       id="rect4035-3-8" />
    <rect
       width="0"
       x="400.50836"
       y="545.55237"
       height="10.999983"
       style="fill:#fbd2bf"
       id="rect4035-1-7" />
    <rect
       width="0"
       x="397.16406"
       y="541.4408"
       height="22.785679"
       style="fill:#ffffff"
       id="rect4035-753" />
    <rect
       width="0"
       x="397.16406"
       y="541.4408"
       height="22.785679"
       style="fill:#ffffff"
       id="rect4035-7-5" />
    <rect
       width="0"
       x="396.49963"
       y="539.36938"
       height="22.785679"
       style="fill:#ffffff"
       id="rect4035-4-62" />
    <rect
       width="0"
       x="393.31824"
       y="539.13361"
       height="23.02165"
       style="fill:#fbd2bf"
       id="rect4035-3-9" />
    <rect
       width="0"
       x="396.49963"
       y="539.36938"
       height="22.785679"
       style="fill:#fbd2bf"
       id="rect4035-1-1" />
    <rect
       width="0"
       x="437.9281"
       y="539.36938"
       height="22.785679"
       style="fill:#fbfbfb"
       id="rect4035-2-2" />
    <rect
       width="0"
       x="396.49963"
       y="539.36938"
       height="22.785679"
       style="fill:#fbfbfb"
       id="rect4035-8-7" />
    <rect
       width="0"
       x="396.49963"
       y="539.36938"
       height="22.785679"
       style="fill:#fbfbfb"
       id="rect4035-9-0" />
    <rect
       width="0"
       x="423.96191"
       y="557.50348"
       height="22.785679"
       style="fill:#ffffff"
       id="rect4035-75-6" />
    <rect
       width="0"
       x="423.29742"
       y="555.43207"
       height="22.785679"
       style="fill:#ffffff"
       id="rect4035-4-3-0" />
    <rect
       width="0"
       x="420.11603"
       y="555.19623"
       height="23.02165"
       style="fill:#fbd2bf"
       id="rect4035-3-56-6" />
    <rect
       width="0"
       x="423.29742"
       y="555.43207"
       height="22.785679"
       style="fill:#fbd2bf"
       id="rect4035-1-2-2" />
    <rect
       width="0"
       x="423.29742"
       y="555.43207"
       height="22.785679"
       style="fill:#fbfbfb"
       id="rect4035-5-9-6" />
    <rect
       width="0"
       x="423.96191"
       y="557.50348"
       height="22.785679"
       style="fill:#ffffff"
       id="rect4035-7-1-1" />
    <rect
       width="0"
       x="423.29742"
       y="555.43207"
       height="22.785679"
       style="fill:#ffffff"
       id="rect4035-4-53-8" />
    <rect
       width="0"
       x="420.11603"
       y="555.19623"
       height="23.02165"
       style="fill:#fbd2bf"
       id="rect4035-3-5-7" />
    <rect
       width="0"
       x="423.29742"
       y="555.43207"
       height="22.785679"
       style="fill:#fbd2bf"
       id="rect4035-1-6-9" />
    <rect
       width="0"
       x="423.29742"
       y="555.43207"
       height="22.785679"
       style="fill:#fbfbfb"
       id="rect4035-5-2-2" />
    <rect
       width="0"
       x="423.96191"
       y="557.50348"
       height="22.785679"
       style="fill:#ffffff"
       id="rect4035-53-0" />
    <rect
       width="0"
       x="423.29742"
       y="555.43207"
       height="22.785679"
       style="fill:#ffffff"
       id="rect4035-4-5-2" />
    <rect
       width="0"
       x="423.96191"
       y="557.50348"
       height="22.785679"
       style="fill:#ffffff"
       id="rect4035-535-3" />
    <rect
       width="0"
       x="423.29742"
       y="555.43207"
       height="22.785679"
       style="fill:#ffffff"
       id="rect4035-4-6-7" />
    <rect
       width="0"
       x="420.11603"
       y="555.19623"
       height="23.02165"
       style="fill:#fbd2bf"
       id="rect4035-3-2-5" />
    <rect
       width="0"
       x="423.29742"
       y="555.43207"
       height="22.785679"
       style="fill:#fbd2bf"
       id="rect4035-1-9-9" />
    <rect
       width="0"
       x="423.29742"
       y="555.43207"
       height="22.785679"
       style="fill:#fbfbfb"
       id="rect4035-5-22" />
    <rect
       width="0"
       x="423.29742"
       y="555.43207"
       height="22.785679"
       style="fill:#fffcf9"
       id="rect4035-8-0-8" />
    <rect
       width="0"
       x="423.29742"
       y="555.43207"
       height="22.785679"
       style="fill:#e8d9eb"
       id="rect4035-44-9" />
    <rect
       width="0"
       x="423.29742"
       y="555.43207"
       height="22.785679"
       style="fill:#e8d9eb"
       id="rect4035-7-6-7" />
    <rect
       width="0"
       x="423.96191"
       y="557.50348"
       height="22.785679"
       style="fill:#ffffff"
       id="rect4035-26-3" />
    <rect
       width="0"
       x="423.29742"
       y="555.43207"
       height="22.785679"
       style="fill:#ffffff"
       id="rect4035-4-1-6" />
    <rect
       width="0"
       x="420.11603"
       y="555.19623"
       height="23.02165"
       style="fill:#fbd2bf"
       id="rect4035-3-8-1" />
    <rect
       width="0"
       x="423.29742"
       y="555.43207"
       height="22.785679"
       style="fill:#fbd2bf"
       id="rect4035-1-7-2" />
  </g>
</svg>
