<?xml version="1.0" encoding="UTF-8" standalone="no"?>
<!-- Created with Inkscape (http://www.inkscape.org/) -->

<svg
   xmlns:dc="http://purl.org/dc/elements/1.1/"
   xmlns:cc="http://creativecommons.org/ns#"
   xmlns:rdf="http://www.w3.org/1999/02/22-rdf-syntax-ns#"
   xmlns:svg="http://www.w3.org/2000/svg"
   xmlns="http://www.w3.org/2000/svg"
   xmlns:xlink="http://www.w3.org/1999/xlink"
   xmlns:sodipodi="http://sodipodi.sourceforge.net/DTD/sodipodi-0.dtd"
   xmlns:inkscape="http://www.inkscape.org/namespaces/inkscape"
   width="32"
   version="1.1"
   height="32"
   id="svg2"
   inkscape:version="0.91 r13725"
   sodipodi:docname="x-office-presentation.svg">
  <sodipodi:namedview
     pagecolor="#ffffff"
     bordercolor="#666666"
     borderopacity="1"
     objecttolerance="10"
     gridtolerance="10"
     guidetolerance="10"
     inkscape:pageopacity="0"
     inkscape:pageshadow="2"
     inkscape:window-width="1920"
     inkscape:window-height="1013"
     id="namedview29"
     showgrid="true"
     inkscape:object-nodes="true"
     showguides="true"
     inkscape:guide-bbox="true"
     inkscape:zoom="10.429825"
     inkscape:cx="9.2016396"
     inkscape:cy="8.1979859"
     inkscape:window-x="0"
     inkscape:window-y="0"
     inkscape:window-maximized="1"
     inkscape:current-layer="layer1">
    <inkscape:grid
       type="xygrid"
       id="grid4157" />
    <sodipodi:guide
       position="17.569806,34.42052"
       orientation="0,1"
       id="guide4163" />
  </sodipodi:namedview>
  <defs
     id="defs5455">
    <linearGradient
       inkscape:collect="always"
       xlink:href="#linearGradient4300-8"
       id="linearGradient4306"
       y1="61"
       y2="3"
       x2="0"
       gradientUnits="userSpaceOnUse"
       gradientTransform="matrix(0.49999977,0,0,-0.48275841,10e-6,31.44823)" />
    <linearGradient
       inkscape:collect="always"
       id="linearGradient4300-8">
      <stop
         style="stop-color:#f27935"
         id="stop4302-5" />
      <stop
         offset="1"
         style="stop-color:#f2784b"
         id="stop4304-7" />
    </linearGradient>
  </defs>
  <metadata
     id="metadata5458">
    <rdf:RDF>
      <cc:Work
         rdf:about="">
        <dc:format>image/svg+xml</dc:format>
        <dc:type
           rdf:resource="http://purl.org/dc/dcmitype/StillImage" />
      </cc:Work>
    </rdf:RDF>
  </metadata>
  <g
     inkscape:label="Capa 1"
     inkscape:groupmode="layer"
     id="layer1"
     transform="matrix(1 0 0 1 -384.57143 -515.798)">
    <path
       style="fill:url(#linearGradient4306)"
       d="M 5 2 L 5 30 L 20 30 L 27 30 L 27 23.242188 L 27 10.414062 L 18.585938 2 L 5 2 z "
       transform="translate(384.57143,515.798)"
       id="rect3500" />
    <rect
       width="22"
       x="389.57144"
       y="-545.79797"
       height="0.999973"
       style="fill:#2e3132;fill-opacity:0.29411801"
       id="rect4169"
       transform="scale(1,-1)" />
    <path
       style="fill:#ffffff;fill-opacity:0.40983599"
       d="M 5 2 L 5 3 L 19.585938 3 L 18.585938 2 L 5 2 z "
       transform="translate(384.57143,515.798)"
       id="rect4236" />
    <path
       inkscape:connector-curvature="0"
       style="fill:#b86333;fill-rule:evenodd;fill-opacity:1"
       id="path4314"
       d="m 404.57142,517.79796 7.00001,7 0,-7 z" />
    <rect
       width="0"
       x="375.89221"
       y="-536.79797"
       height="10.999983"
       style="fill:#ffffff"
       id="rect4035"
       transform="scale(1,-1)" />
    <rect
       width="0"
       x="375.57144"
       y="-537.79797"
       height="10.999983"
       style="fill:#ffffff"
       id="rect4035-4"
       transform="scale(1,-1)" />
    <rect
       width="0"
       x="374.03558"
       y="-537.9118"
       height="11.1139"
       style="fill:#fbd2bf"
       id="rect4035-3"
       transform="scale(1,-1)" />
    <rect
       width="0"
       x="375.57144"
       y="-537.79797"
       height="10.999983"
       style="fill:#fbd2bf"
       id="rect4035-1"
       transform="scale(1,-1)" />
    <path
       inkscape:connector-curvature="0"
       style="color:#000000;fill:#fbd2bf;stroke-width:0.1"
       id="rect3764"
       d="m 394.57143,526.798 0,9 4,0 0,2 -1,0 0,1 6,0 0,-1 -1,0 0,-2 4,0 0,-9 z m 1,1 10,0 0,7 -10,0 z m 4,1 0,5 3,-2.5 z m 0,7 2,0 0,2 -2,0 z" />
  </g>
</svg>
