<?xml version="1.0" encoding="UTF-8" standalone="no"?>
<!-- Created with Inkscape (http://www.inkscape.org/) -->

<svg
   xmlns:dc="http://purl.org/dc/elements/1.1/"
   xmlns:cc="http://creativecommons.org/ns#"
   xmlns:rdf="http://www.w3.org/1999/02/22-rdf-syntax-ns#"
   xmlns:svg="http://www.w3.org/2000/svg"
   xmlns="http://www.w3.org/2000/svg"
   xmlns:xlink="http://www.w3.org/1999/xlink"
   xmlns:sodipodi="http://sodipodi.sourceforge.net/DTD/sodipodi-0.dtd"
   xmlns:inkscape="http://www.inkscape.org/namespaces/inkscape"
   width="32"
   version="1.1"
   height="32"
   id="svg2"
   inkscape:version="0.91 r13725"
   sodipodi:docname="x-office-drawing.svg">
  <sodipodi:namedview
     pagecolor="#ffffff"
     bordercolor="#666666"
     borderopacity="1"
     objecttolerance="10"
     gridtolerance="10"
     guidetolerance="10"
     inkscape:pageopacity="0"
     inkscape:pageshadow="2"
     inkscape:window-width="1920"
     inkscape:window-height="1013"
     id="namedview26"
     showgrid="false"
     inkscape:zoom="2.8284271"
     inkscape:cx="118.97191"
     inkscape:cy="-3.3110497"
     inkscape:window-x="0"
     inkscape:window-y="0"
     inkscape:window-maximized="1"
     inkscape:current-layer="layer1"
     inkscape:snap-bbox="true"
     inkscape:bbox-nodes="true">
    <inkscape:grid
       type="xygrid"
       id="grid4242" />
  </sodipodi:namedview>
  <defs
     id="defs5455">
    <linearGradient
       id="linearGradient9654"
       inkscape:collect="always">
      <stop
         id="stop9656"
         offset="0"
         style="stop-color:#060606;stop-opacity:1" />
      <stop
         id="stop9658"
         offset="1"
         style="stop-color:#000000;stop-opacity:0" />
    </linearGradient>
    <linearGradient
       inkscape:collect="always"
       id="linearGradient6251">
      <stop
         style="stop-color:#ffffff;stop-opacity:0"
         offset="0"
         id="stop6253" />
      <stop
         style="stop-color:#ffffff;stop-opacity:0.2"
         offset="1"
         id="stop6255" />
    </linearGradient>
    <linearGradient
       inkscape:collect="always"
       xlink:href="#linearGradient6251"
       id="linearGradient4178"
       gradientUnits="userSpaceOnUse"
       gradientTransform="translate(309.57143,152.4358)"
       x1="58"
       y1="392.36221"
       x2="58"
       y2="365.36221" />
    <linearGradient
       inkscape:collect="always"
       xlink:href="#linearGradient9654"
       id="linearGradient4257"
       gradientUnits="userSpaceOnUse"
       gradientTransform="translate(357.57143,507.798)"
       x1="47"
       y1="17"
       x2="54"
       y2="24" />
  </defs>
  <metadata
     id="metadata5458">
    <rdf:RDF>
      <cc:Work
         rdf:about="">
        <dc:format>image/svg+xml</dc:format>
        <dc:type
           rdf:resource="http://purl.org/dc/dcmitype/StillImage" />
      </cc:Work>
    </rdf:RDF>
  </metadata>
  <g
     inkscape:label="Capa 1"
     inkscape:groupmode="layer"
     id="layer1"
     transform="matrix(1 0 0 1 -384.57143 -515.798)">
    <rect
       width="0"
       x="375.57144"
       y="565.79797"
       height="10.999983"
       style="fill:#036b53"
       id="rect4035" />
    <rect
       width="0"
       x="375.89221"
       y="566.79797"
       height="10.999983"
       style="fill:#ffffff"
       id="rect4035-67" />
    <rect
       width="0"
       x="375.57144"
       y="565.79797"
       height="10.999983"
       style="fill:#ffffff"
       id="rect4035-4" />
    <rect
       width="0"
       x="374.03558"
       y="565.68414"
       height="11.1139"
       style="fill:#fbd2bf"
       id="rect4035-3" />
    <rect
       width="0"
       x="375.57144"
       y="565.79797"
       height="10.999983"
       style="fill:#fbd2bf"
       id="rect4035-1" />
    <rect
       width="0"
       x="375.57144"
       y="565.79797"
       height="10.999983"
       style="fill:#fbfbfb"
       id="rect4035-5" />
    <rect
       width="0"
       x="375.57144"
       y="565.79797"
       height="10.999983"
       style="fill:#fffcf9"
       id="rect4035-8" />
    <rect
       width="0"
       x="375.89221"
       y="526.79797"
       height="10.999983"
       style="fill:#ffffff"
       id="rect4035-6" />
    <rect
       width="0"
       x="375.57144"
       y="525.79797"
       height="10.999983"
       style="fill:#ffffff"
       id="rect4035-4-2" />
    <rect
       width="0"
       x="374.03558"
       y="525.68414"
       height="11.1139"
       style="fill:#fbd2bf"
       id="rect4035-3-9" />
    <rect
       width="0"
       x="375.57144"
       y="525.79797"
       height="10.999983"
       style="fill:#fbd2bf"
       id="rect4035-1-1" />
    <rect
       width="0"
       x="375.57144"
       y="525.79797"
       height="10.999983"
       style="fill:#fbfbfb"
       id="rect4035-5-2" />
    <rect
       width="0"
       x="375.57144"
       y="525.79797"
       height="10.999983"
       style="fill:#fffcf9"
       id="rect4035-8-7" />
    <rect
       width="0"
       x="375.57144"
       y="525.79797"
       height="10.999983"
       style="fill:#e8d9eb"
       id="rect4035-44" />
    <rect
       width="0"
       x="335.89221"
       y="526.79797"
       height="10.999983"
       style="fill:#ffffff"
       id="rect4035-62" />
    <rect
       width="0"
       x="335.57144"
       y="525.79797"
       height="10.999983"
       style="fill:#ffffff"
       id="rect4035-4-9" />
    <rect
       width="0"
       x="334.03558"
       y="525.68414"
       height="11.1139"
       style="fill:#fbd2bf"
       id="rect4035-3-1" />
    <rect
       width="0"
       x="335.57144"
       y="525.79797"
       height="10.999983"
       style="fill:#fbd2bf"
       id="rect4035-1-2" />
    <rect
       width="0"
       x="335.57144"
       y="525.79797"
       height="10.999983"
       style="fill:#fbfbfb"
       id="rect4035-5-7" />
    <rect
       width="0"
       x="335.57144"
       y="525.79797"
       height="10.999983"
       style="fill:#fffcf9"
       id="rect4035-8-0" />
    <rect
       width="0"
       x="335.57144"
       y="525.79797"
       height="10.999983"
       style="fill:#e8d9eb"
       id="rect4035-44-9" />
    <rect
       width="0"
       x="335.57144"
       y="525.79797"
       height="10.999983"
       style="fill:#e8d9eb"
       id="rect4035-7" />
    <rect
       width="0"
       x="336.84137"
       y="526.79797"
       height="10.999983"
       style="fill:#ffffff"
       id="rect4035-36" />
    <rect
       width="0"
       x="336.5206"
       y="525.79797"
       height="10.999983"
       style="fill:#ffffff"
       id="rect4035-4-0" />
    <rect
       width="0"
       x="334.98474"
       y="525.68414"
       height="11.1139"
       style="fill:#fbd2bf"
       id="rect4035-3-6" />
    <rect
       width="0"
       x="336.5206"
       y="525.79797"
       height="10.999983"
       style="fill:#fbd2bf"
       id="rect4035-1-26" />
    <rect
       width="0"
       x="336.5206"
       y="525.79797"
       height="10.999983"
       style="fill:#fbfbfb"
       id="rect4035-5-1" />
    <rect
       width="0"
       x="336.5206"
       y="525.79797"
       height="10.999983"
       style="fill:#fffcf9"
       id="rect4035-8-8" />
    <rect
       width="0"
       x="336.5206"
       y="525.79797"
       height="10.999983"
       style="fill:#e8d9eb"
       id="rect4035-44-7" />
    <rect
       width="0"
       x="336.5206"
       y="525.79797"
       height="10.999983"
       style="fill:#e8d9eb"
       id="rect4035-7-9" />
    <g
       id="g4534">
      <path
         d="m 389.57143,545.798 0,-28 15,0 7.00001,7 0,0 0,21 -14.00001,0 z"
         id="path4211"
         style="color:#000000;clip-rule:nonzero;display:inline;overflow:visible;visibility:visible;opacity:1;isolation:auto;mix-blend-mode:normal;color-interpolation:sRGB;color-interpolation-filters:linearRGB;solid-color:#000000;solid-opacity:1;fill:#35bedc;fill-opacity:1;fill-rule:nonzero;stroke-width:1;stroke-linecap:butt;stroke-linejoin:miter;stroke-miterlimit:4;stroke-dasharray:none;stroke-dashoffset:0;stroke-opacity:1;color-rendering:auto;image-rendering:auto;shape-rendering:auto;text-rendering:auto;enable-background:accumulate;filter-blend-mode:normal;filter-gaussianBlur-deviation:0"
         inkscape:connector-curvature="0"
         inkscape:export-xdpi="96"
         inkscape:export-ydpi="96"
         sodipodi:nodetypes="cccccccc" />
      <path
         inkscape:connector-curvature="0"
         id="path4274"
         d="m 391.56948,517.798 0,1.99805 -1.99805,0 0,1 0.99805,0 1,0 0,1 0,1 -1.99805,0 0,1 1.99805,0 0,2 -1.99805,0 0,1 1.99805,0 0,2 -1.99805,0 0,1 1.99805,0 0,2 -1.99805,0 0,1 1.99805,0 0,2 -1.99805,0 0,1 0.99805,0 1,0 0,1 0,1 -1.99805,0 0,1 1.99805,0 0,1 0,1 -1.99805,0 0,1 1.99805,0 0,1 0,1 -1.99805,0 0,1 1.99805,0 0,1 0,0.002 1,0 0,-1.00195 2,0 0,1.00195 1,0 0,-1.00195 2,0 0,1.00195 0.002,0 0.99805,0 0,-1.00195 2,0 0,1.00195 1,0 0,-1.00195 2,0 0,1.00195 1,0 0,-1.00195 2,0 0,1.00195 1,0 0,-1.00195 2,0 0,1.00195 1,0 0,-1.00195 1,0 0.002,0 0,-1 -0.002,0 -1,0 0,-1 0,-1 1,0 0.002,0 0,-1 -0.002,0 -1,0 0,-1 0,-1 1,0 0.002,0 0,-1 -0.002,0 -1,0 0,-2 1,0 0.002,0 0,-1 -0.002,0 -1,0 0,-2 1,0 0.002,0 0,-1 -0.002,0 -1,0 0,-2 1,0 0.002,0 0,-1 -0.002,0 -1,0 0,-2 1.00195,0 0,-1 -1.00195,0 0,-2 -1,-1 -2,0 0,-2 -1,-1 -2,0 0,-1.99805 -1,0 0,1.99805 -2,0 0,-1.99805 -1,0 0,1.99805 -2,0 0,-1.99805 -1,0 0,1.99805 -2,0 0,-1.99805 -1,0 0,1.99805 -2,0 0,-1.99805 -1,0 z m 1,2.99805 2,0 0,2 -2,0 0,-2 z m 3,0 2,0 0,2 -2,0 0,-2 z m 3,0 2,0 0,2 -2,0 0,-2 z m 3,0 2,0 0,2 -2,0 0,-2 z m 3,0 2,0 0,2 -2,0 0,-2 z m -12,3 1,0 1,0 0,1 0,1 -2,0 0,-2 z m 3,0 2,0 0,2 -2,0 0,-2 z m 3,0 2,0 0,2 -2,0 0,-2 z m 3,0 2,0 0,2 -2,0 0,-2 z m 3,0 2,0 0,2 -2,0 0,-2 z m 3,0 2,0 0,2 -2,0 0,-2 z m -15,3 2,0 0,2 -2,0 0,-2 z m 3,0 2,0 0,2 -2,0 0,-2 z m 3,0 2,0 0,2 -2,0 0,-2 z m 3,0 2,0 0,2 -2,0 0,-2 z m 3,0 2,0 0,1 0,1 -1,0 -1,0 0,-2 z m 3,0 2,0 0,1 0,1 -2,0 0,-2 z m -15,3 2,0 0,2 -2,0 0,-2 z m 3,0 2,0 0,2 -2,0 0,-2 z m 3,0 2,0 0,2 -2,0 0,-2 z m 3,0 2,0 0,2 -2,0 0,-2 z m 3,0 1,0 1,0 0,2 -1,0 -1,0 0,-2 z m 3,0 2,0 0,2 -2,0 0,-2 z m -15,3 2,0 0,2 -2,0 0,-2 z m 3,0 2,0 0,2 -2,0 0,-2 z m 3,0 2,0 0,2 -2,0 0,-2 z m 3,0 2,0 0,2 -2,0 0,-2 z m 3,0 1,0 1,0 0,2 -1,0 -1,0 0,-2 z m 3,0 2,0 0,2 -2,0 0,-2 z m -15,3 2,0 0,2 -2,0 0,-2 z m 3,0 2,0 0,2 -2,0 0,-2 z m 3,0 2,0 0,2 -2,0 0,-2 z m 3,0 2,0 0,2 -2,0 0,-2 z m 3,0 1,0 1,0 0,2 -1,0 -1,0 0,-2 z m 3,0 2,0 0,2 -2,0 0,-2 z m -15,3 1,0 1,0 0,1 0,1 -2,0 0,-1 0,-1 z m 3,0 2,0 0,1 0,1 -2,0 0,-1 0,-1 z m 3,0 2,0 0,1 0,1 -2,0 0,-1 0,-1 z m 3,0 2,0 0,1 0,1 -2,0 0,-1 0,-1 z m 3,0 1,0 1,0 0,1 0,1 -1,0 -1,0 0,-1 0,-1 z m 3,0 2,0 0,1 0,1 -2,0 0,-1 0,-1 z m -15,3 2,0 0,1 0,1 -2,0 0,-1 0,-1 z m 3,0 2,0 0,1 0,1 -2,0 0,-1 0,-1 z m 3,0 2,0 0,1 0,1 -2,0 0,-1 0,-1 z m 3,0 2,0 0,1 0,1 -2,0 0,-1 0,-1 z m 3,0 1,0 1,0 0,1 0,1 -2,0 0,-1 0,-1 z m 3,0 2,0 0,1 0,1 -2,0 0,-1 0,-1 z"
         style="color:#000000;display:inline;opacity:0.2;color-interpolation:sRGB;color-interpolation-filters:linearRGB;fill:#ffffff;fill-opacity:1;color-rendering:auto;image-rendering:auto;shape-rendering:auto;text-rendering:auto" />
      <rect
         transform="scale(1,-1)"
         id="rect4169-9"
         style="color:#000000;clip-rule:nonzero;display:inline;overflow:visible;visibility:visible;opacity:0.5;isolation:auto;mix-blend-mode:normal;color-interpolation:sRGB;color-interpolation-filters:linearRGB;solid-color:#000000;solid-opacity:1;fill:#ffffff;fill-opacity:1;fill-rule:nonzero;stroke-width:1;stroke-linecap:butt;stroke-linejoin:miter;stroke-miterlimit:4;stroke-dasharray:none;stroke-dashoffset:0;stroke-opacity:1;color-rendering:auto;image-rendering:auto;shape-rendering:auto;text-rendering:auto;enable-background:accumulate"
         height="0.999973"
         y="-518.79797"
         x="389.57144"
         width="14.999983" />
      <rect
         transform="scale(1,-1)"
         id="rect4236-1"
         style="color:#000000;clip-rule:nonzero;display:inline;overflow:visible;visibility:visible;opacity:0.25;isolation:auto;mix-blend-mode:normal;color-interpolation:sRGB;color-interpolation-filters:linearRGB;solid-color:#000000;solid-opacity:1;fill:#000000;fill-opacity:1;fill-rule:nonzero;stroke-width:1;stroke-linecap:butt;stroke-linejoin:miter;stroke-miterlimit:4;stroke-dasharray:none;stroke-dashoffset:0;stroke-opacity:1;color-rendering:auto;image-rendering:auto;shape-rendering:auto;text-rendering:auto;enable-background:accumulate"
         height="1.00003"
         y="-545.79797"
         x="389.57144"
         width="21.999994" />
      <path
         sodipodi:nodetypes="cccc"
         d="m 404.57143,524.798 7.00001,7 0,-7 z"
         id="path4255"
         style="opacity:0.2;fill:url(#linearGradient4257);fill-rule:evenodd"
         inkscape:connector-curvature="0"
         inkscape:export-xdpi="96"
         inkscape:export-ydpi="96" />
      <path
         d="m 411.57144,524.79797 -7.00001,-7 0,7 z"
         id="path4314-2"
         style="color:#000000;clip-rule:nonzero;display:inline;overflow:visible;visibility:visible;opacity:1;isolation:auto;mix-blend-mode:normal;color-interpolation:sRGB;color-interpolation-filters:linearRGB;solid-color:#000000;solid-opacity:1;fill:#9adfee;fill-opacity:1;fill-rule:evenodd;stroke-width:1;stroke-linecap:butt;stroke-linejoin:miter;stroke-miterlimit:4;stroke-dasharray:none;stroke-dashoffset:0;stroke-opacity:1;color-rendering:auto;image-rendering:auto;shape-rendering:auto;text-rendering:auto;enable-background:accumulate;filter-blend-mode:normal;filter-gaussianBlur-deviation:0"
         inkscape:connector-curvature="0" />
      <path
         sodipodi:nodetypes="cccccccc"
         inkscape:export-ydpi="96"
         inkscape:export-xdpi="96"
         inkscape:connector-curvature="0"
         style="fill:url(#linearGradient4178);fill-opacity:1"
         id="path7628-2"
         d="m 389.57143,545.798 0,-28 15,0 7.00001,7 0,0 0,21 -14.00001,0 z" />
      <path
         style="color:#4d4d4d;clip-rule:nonzero;display:inline;overflow:visible;visibility:visible;opacity:0.9;isolation:auto;mix-blend-mode:normal;color-interpolation:sRGB;color-interpolation-filters:linearRGB;solid-color:#000000;solid-opacity:1;fill:#ffffff;fill-opacity:1;fill-rule:evenodd;stroke:none;stroke-width:1;stroke-linecap:butt;stroke-linejoin:miter;stroke-miterlimit:4;stroke-dasharray:none;stroke-dashoffset:0;stroke-opacity:1;marker:none;color-rendering:auto;image-rendering:auto;shape-rendering:auto;text-rendering:auto;enable-background:accumulate"
         d="m 395.57143,525.798 0,3 1,0 0,1.65039 a 1.5000058,1.5000058 0 0 0 -1,1.41211 1.5000058,1.5000058 0 0 0 1,1.41211 l 0,1.52539 -1,0 0,3 3,0 0,-1.80859 a 6.9999943,6 0 0 0 5,1.80859 l 0,-1 a 5.9999957,5.0000067 0 0 1 -5.76953,-3.63086 1.5000058,1.5000058 0 0 0 0.76953,-1.30664 1.5000058,1.5000058 0 0 0 -0.79883,-1.32227 5.9999957,5.0000067 0 0 1 5.79883,-3.74023 l 0,-1 a 6.9999943,6 0 0 0 -5,1.80273 l 0,-1.80273 -3,0 z m 1,1 1,0 0,1 -1,0 0,-1 z m 0,9 1,0 0,1 -1,0 0,-1 z"
         id="path4459"
         inkscape:connector-curvature="0" />
    </g>
  </g>
</svg>
