<?xml version="1.0" encoding="UTF-8" standalone="no"?>
<!-- Created with Inkscape (http://www.inkscape.org/) -->

<svg
   xmlns:dc="http://purl.org/dc/elements/1.1/"
   xmlns:cc="http://creativecommons.org/ns#"
   xmlns:rdf="http://www.w3.org/1999/02/22-rdf-syntax-ns#"
   xmlns:svg="http://www.w3.org/2000/svg"
   xmlns="http://www.w3.org/2000/svg"
   xmlns:sodipodi="http://sodipodi.sourceforge.net/DTD/sodipodi-0.dtd"
   xmlns:inkscape="http://www.inkscape.org/namespaces/inkscape"
   id="svg3014"
   height="22"
   width="26"
   version="1.1"
   inkscape:version="0.48.5 r10040"
   sodipodi:docname="xfpm-ups-100.svg">
  <defs
     id="defs11" />
  <sodipodi:namedview
     pagecolor="#ffffff"
     bordercolor="#666666"
     borderopacity="1"
     objecttolerance="10"
     gridtolerance="10"
     guidetolerance="10"
     inkscape:pageopacity="0"
     inkscape:pageshadow="2"
     inkscape:window-width="1366"
     inkscape:window-height="744"
     id="namedview9"
     showgrid="true"
     inkscape:zoom="11.313709"
     inkscape:cx="19.786907"
     inkscape:cy="19.115585"
     inkscape:window-x="0"
     inkscape:window-y="24"
     inkscape:window-maximized="1"
     inkscape:current-layer="svg3014"
     showguides="true"
     inkscape:guide-bbox="true"
     inkscape:snap-nodes="true">
    <inkscape:grid
       type="xygrid"
       id="grid2995" />
  </sodipodi:namedview>
  <metadata
     id="metadata3019">
    <rdf:RDF>
      <cc:Work
         rdf:about="">
        <dc:format>image/svg+xml</dc:format>
        <dc:type
           rdf:resource="http://purl.org/dc/dcmitype/StillImage" />
        <dc:title></dc:title>
      </cc:Work>
    </rdf:RDF>
  </metadata>
  <rect
     id="rect3190"
     style="fill:#f2f2f2;fill-opacity:1;fill-rule:evenodd"
     transform="matrix(0,1,-1,0,0,0)"
     rx="0"
     ry="0"
     height="18"
     width="8"
     y="-21"
     x="7" />
  <rect
     style="opacity:1;fill:#4ff000;fill-opacity:0;stroke:none"
     id="rect2991"
     width="2"
     height="2"
     x="21"
     y="10" />
  <path
     style="fill:#f2f2f2;fill-opacity:1;stroke:none"
     d="M 2.299368,6.0176099 0.999999,5 l 22,0 0,3 2,0 0,6 -2,0 0,3 -22,0 0,-11 9,7 L 12,7 l 9,7 -8,-5 -2,6 -9.000001,-7 0,8 L 22,16 l -1e-6,-3 2,0 0,-4 -2,0 L 22,6 z"
     id="path2990"
     inkscape:connector-curvature="0"
     sodipodi:nodetypes="cccccccccccccccccccccccc" />
  <path
     style="fill:#ffffff;fill-opacity:1;stroke:none"
     d="M 3,7.5620211 3,8.773438 11,15 l 2,-6 8,5 -9,-7 -2,6 z"
     id="path3768"
     inkscape:connector-curvature="0"
     sodipodi:nodetypes="cccccccc" />
</svg>
