<?xml version="1.0" encoding="UTF-8" standalone="no"?>
<!-- Created with Inkscape (http://www.inkscape.org/) -->

<svg
   xmlns:dc="http://purl.org/dc/elements/1.1/"
   xmlns:cc="http://creativecommons.org/ns#"
   xmlns:rdf="http://www.w3.org/1999/02/22-rdf-syntax-ns#"
   xmlns:svg="http://www.w3.org/2000/svg"
   xmlns="http://www.w3.org/2000/svg"
   xmlns:sodipodi="http://sodipodi.sourceforge.net/DTD/sodipodi-0.dtd"
   xmlns:inkscape="http://www.inkscape.org/namespaces/inkscape"
   id="svg3213"
   height="22"
   width="22"
   version="1.0"
   inkscape:version="0.48.5 r10040"
   sodipodi:docname="blueman-tray.svg">
  <defs
     id="defs12" />
  <sodipodi:namedview
     pagecolor="#ffffff"
     bordercolor="#666666"
     borderopacity="1"
     objecttolerance="10"
     gridtolerance="10"
     guidetolerance="10"
     inkscape:pageopacity="0"
     inkscape:pageshadow="2"
     inkscape:window-width="1366"
     inkscape:window-height="744"
     id="namedview10"
     showgrid="true"
     inkscape:zoom="15.170655"
     inkscape:cx="1.3872043"
     inkscape:cy="14.054854"
     inkscape:window-x="0"
     inkscape:window-y="24"
     inkscape:window-maximized="1"
     inkscape:current-layer="svg3213">
    <inkscape:grid
       type="xygrid"
       id="grid2989"
       empspacing="5"
       visible="true"
       enabled="true"
       snapvisiblegridlinesonly="true" />
  </sodipodi:namedview>
  <metadata
     id="metadata12">
    <rdf:RDF>
      <cc:Work
         rdf:about="">
        <dc:format>image/svg+xml</dc:format>
        <dc:type
           rdf:resource="http://purl.org/dc/dcmitype/StillImage" />
        <dc:title></dc:title>
      </cc:Work>
    </rdf:RDF>
  </metadata>
  <path
     style="fill:#f2f2f2;fill-opacity:1;stroke:none"
     d="m 4.863209,7.000001 3,3 0,-8 5,5 -4,4 4,4 -5,5 0,-8 -3,3 0,-1 3,-3 1,7 3,-3 -3,-4 3,-4 -3,-3 -1,7 -3,-3 z"
     id="path2991"
     inkscape:connector-curvature="0" />
  <path
     inkscape:connector-curvature="0"
     style="text-decoration:none;opacity:1;color:#ffffff;fill:#f2f2f2;fill-opacity:1;fill-rule:nonzero;stroke:none;visibility:visible;display:inline;overflow:visible;enable-background:accumulate"
     d="m 15.727463,12.500523 c -0.881232,0 -1.590672,0.709439 -1.590672,1.590671 l 0,1.908806 -0.636268,0 -0.318135,0 0,0.318134 0,2.863209 0,0.318135 5.090149,0 0,-0.318135 0,-3.181342 -0.954403,0 0,-1.908807 c 0,-0.881232 -0.709439,-1.590671 -1.590671,-1.590671 z m 0,0.318135 C 16.432448,12.818658 17,13.386209 17,14.091194 L 17,16 l -2.545075,0 0,-1.908806 c 0,-0.704985 0.567552,-1.272536 1.272538,-1.272536 z m -2.22694,3.499476 4.45388,0 0,2.863209 -4.45388,0 0,-2.863209 z"
     id="rect4166" />
</svg>
