<svg version="1.1" viewBox="0 0 22 22" xmlns="http://www.w3.org/2000/svg">
    <defs>
        <style type="text/css" id="current-color-scheme">
            .ColorScheme-Text {
                color: #eff0f1;
            }
            .ColorScheme-NeutralText {
                color: #f67400;
            }
        </style>
    </defs>
    <path class="ColorScheme-Text" d="M 11,2.625 A 8.3755615,8.3755615 0 0 0 2.625,11 8.3755615,8.3755615 0 0 0 11,19.375 8.3755615,8.3755615 0 0 0 19.375,11 8.3755615,8.3755615 0 0 0 11,2.625 Z m 0,1.1796875 a 7.1963102,7.1963102 0 0 1 1.429688,0.1445313 7.1963102,7.1963102 0 0 1 0.623046,0.1582031 2.0748725,2.0748725 0 0 1 0.02149,0.2929687 A 2.0748725,2.0748725 0 0 1 11,6.4746094 2.0748725,2.0748725 0 0 1 8.9257812,4.4003906 2.0748725,2.0748725 0 0 1 8.9492188,4.109375 a 7.1963102,7.1963102 0 0 1 0.625,-0.1542969 7.1963102,7.1963102 0 0 1 0.095703,-0.021484 7.1963102,7.1963102 0 0 1 0.5507811,-0.078125 7.1963102,7.1963102 0 0 1 0.175781,-0.021484 A 7.1963102,7.1963102 0 0 1 11,3.8046875 Z M 6.6523438,5.2753906 A 4.3508725,4.3508725 0 0 0 6.6484375,5.3808594 4.3508725,4.3508725 0 0 0 9,9.2421875 V 16 l 2,2 2,-2 v -1 l 1,-1 -1,-1 V 12.535156 L 14.535156,11 13,9.4648438 V 9.2382812 A 4.3508725,4.3508725 0 0 0 15.351562,5.3808594 4.3508725,4.3508725 0 0 0 15.347656,5.2792969 7.1963102,7.1963102 0 0 1 18.195312,11 7.1963102,7.1963102 0 0 1 11,18.195312 7.1963102,7.1963102 0 0 1 3.8046875,11 7.1963102,7.1963102 0 0 1 6.6523438,5.2753906 Z M 10,10 h 1 v 5 h -1 z" fill="currentColor"/>
    <g transform="translate(-8.366694,-1)">
        <path class="ColorScheme-NeutralText" d="m23.366694 14c-0.554 0-1 0.446-1 1v6c0 0.554 0.446 1 1 1h6c0.554 0 1-0.446 1-1v-6c0-0.554-0.446-1-1-1z" fill="currentColor"/>
        <path d="m26.366694 15a2 2 0 0 0-2 2l2e-3 1h-1.002v3h6v-3h-1v-1a2 2 0 0 0-2-2zm0 1a1 1 0 0 1 1 1v1h-2v-1a1 1 0 0 1 1-1z" fill="#fff"/>
    </g>
</svg>
