<svg viewBox="0 0 22 22" xmlns="http://www.w3.org/2000/svg">
    <style type="text/css" id="current-color-scheme">
        .ColorScheme-Text {
            color:#eff0f1;
        }
    </style>
    <path d="m11 3c-4.418278 0-8 3.581722-8 8s3.581722 8 8 8 8-3.581722 8-8-3.581722-8-8-8zm0 1c.604308.0032 1.205662.08457 1.789062.242188.119786.236149.191484.493735.210938.757812 0 1.104569-.895431 2-2 2s-2-.895431-2-2c.01878-.248113.08369-.490544.191406-.714844.58778-.173825 1.195845-.269697 1.808594-.285156zm3.890625 1.189453c1.940387 1.29731 3.10649 3.476429 3.109375 5.810547 0 3.865993-3.134007 7-7 7s-7-3.134007-7-7c.01461-2.331628 1.189233-4.502916 3.132812-5.791016-.070661.258556-.115156.52356-.132812.791016.02863 1.399937.787197 2.68299 2 3.382812v6.324219l2 2 1.707031-1.707031.292969-.292969 1.207031-1.207031-.353515-.353516-.853516-.853515v-.585938l1.207031-1.207031-.353515-.353516-.853516-.853515v-.910157c1.212803-.699822 1.971375-1.982875 2-3.382812-.0087-.27321-.04532-.544812-.109375-.810547zm-4.890625 4.810547h1v5h-1z" class="ColorScheme-Text" fill="currentColor" fill-rule="evenodd"/>
</svg>
