<?xml version="1.0" encoding="UTF-8" standalone="no"?>
<svg
   xmlns:dc="http://purl.org/dc/elements/1.1/"
   xmlns:cc="http://creativecommons.org/ns#"
   xmlns:rdf="http://www.w3.org/1999/02/22-rdf-syntax-ns#"
   xmlns:svg="http://www.w3.org/2000/svg"
   xmlns="http://www.w3.org/2000/svg"
   xmlns:sodipodi="http://sodipodi.sourceforge.net/DTD/sodipodi-0.dtd"
   xmlns:inkscape="http://www.inkscape.org/namespaces/inkscape"
   viewBox="0 0 22 22 "
   id="svg2"
   version="1.1"
   inkscape:version="0.91 r"
   sodipodi:docname="nm-signal-25-secure.svg">
  <metadata
     id="metadata12">
    <rdf:RDF>
      <cc:Work
         rdf:about="">
        <dc:format>image/svg+xml</dc:format>
        <dc:type
           rdf:resource="http://purl.org/dc/dcmitype/StillImage" />
      </cc:Work>
    </rdf:RDF>
  </metadata>
  <sodipodi:namedview
     pagecolor="#ffffff"
     bordercolor="#666666"
     borderopacity="1"
     objecttolerance="10"
     gridtolerance="10"
     guidetolerance="10"
     inkscape:pageopacity="0"
     inkscape:pageshadow="2"
     inkscape:window-width="1128"
     inkscape:window-height="715"
     id="namedview10"
     showgrid="false"
     inkscape:zoom="14.392348"
     inkscape:cx="1.5818143"
     inkscape:cy="11"
     inkscape:window-x="59"
     inkscape:window-y="24"
     inkscape:window-maximized="0"
     inkscape:current-layer="svg2" />
  <defs
     id="defs3051">
    <style
       type="text/css"
       id="current-color-scheme">
      .ColorScheme-Text {
        color:#f2f2f2;
      }
      </style>
  </defs>
  <g
     transform="translate(0,-1030.3622)"
     id="g6">
    <path
       style="fill:currentColor;fill-opacity:1;stroke:none;opacity:0.5"
       d="M 11 3 C 6.845001 3 3.0940644 4.6715125 0.3828125 7.3828125 L 1.0917969 8.0917969 C 3.6222976 5.5612969 7.1220066 4 11 4 C 14.878001 4 18.377702 5.5612969 20.908203 8.0917969 L 21.617188 7.3828125 C 18.905936 4.6715125 15.155007 3 11 3 z M 11 7 C 7.9530063 7 5.2030906 8.2265438 3.2148438 10.214844 L 3.921875 10.921875 C 5.7293791 9.114375 8.2300034 8 11 8 C 13.770004 8 16.270612 9.114375 18.078125 10.921875 L 18.785156 10.214844 C 16.796909 8.2265438 14.047002 7 11 7 z M 11 11 C 9.0610031 11 7.3101723 11.779722 6.0449219 13.044922 L 6.7539062 13.753906 C 7.8384139 12.669406 9.3380002 12 11 12 C 12.661999 12 14.161595 12.669406 15.246094 13.753906 L 15.955078 13.044922 C 14.689828 11.779722 12.939005 11 11 11 z "
       transform="translate(0,1030.3622)"
       class="ColorScheme-Text"
       id="rect4152-67" />
    <path
       style="fill:currentColor;fill-opacity:1;stroke:none"
       d="m 10.999995,1045.3622 c -1.1079971,0 -1.9999961,0.892 -1.9999961,2 0,1.108 0.891999,2 1.9999961,2 1.108005,0 2.000004,-0.892 2.000004,-2 0,-1.108 -0.891999,-2 -2.000004,-2 z m 0,1 c 0.554002,0 1.000002,0.446 1.000002,1 0,0.554 -0.446,1 -1.000002,1 -0.553994,0 -0.999994,-0.446 -0.999994,-1 0,-0.554 0.446,-1 0.999994,-1 z"
       class="ColorScheme-Text"
       id="rect4155-66" />
  </g>
  <path
     sodipodi:nodetypes="sscccccccccccccccssssccss"
     inkscape:connector-curvature="0"
     d="m 19.164926,11.363905 c -0.973598,0 -1.757397,0.828121 -1.757397,1.846227 l 0,0.880844 -0.878698,0 0,3.636095 0,0.909024 5.27219,0 0,-0.909024 0,-1.818047 0,-0.909024 -0.878699,0.909024 0,1.818047 -3.514793,0 0,-2.727071 3.514793,0 0.878699,-0.909024 -0.878699,0 0,-0.880844 c 0,-1.018106 -0.783798,-1.846227 -1.757396,-1.846227 z m 0,0.909024 c 0.486799,0 0.878698,0.401788 0.878698,0.909024 l 0,0.909023 -1.757396,0 0,-0.909023 c 0,-0.507236 0.391899,-0.909024 0.878698,-0.909024 z"
     style="fill:#f2f2f2;fill-opacity:1"
     id="rect2822" />
</svg>
