<svg xmlns="http://www.w3.org/2000/svg" viewBox="0 0 22 22">
  <defs id="defs3051">
    <style type="text/css" id="current-color-scheme">
      .ColorScheme-Text {
        color:#f2f2f2;
      }
      </style>
  </defs>
  <g
     transform="translate(0,-1030.3622)">
    <path
       style="opacity:1;fill:currentColor;fill-opacity:1;stroke:none"
       d="M 11 3 C 11 3 9 5.6575188 3 6.3242188 C 3 6.3242188 3 15.6581 11 19 C 19 15.6581 19 6.3242188 19 6.3242188 C 13 5.6575188 11 3 11 3 z M 11 4.3769531 C 12.586995 5.7216531 14.87716 6.6187125 17.845703 7.0703125 C 17.684444 8.5155125 17.529828 9.6030969 17.15625 10.654297 C 16.37116 12.863397 15.455775 14.207328 14.634766 15.173828 C 13.362538 16.671528 12.207192 17.277659 11 17.880859 C 9.792808 17.277659 8.6374614 16.671528 7.3652344 15.173828 C 6.5442254 14.207328 5.62884 12.863397 4.84375 10.654297 C 4.470172 9.6030969 4.3155559 8.5155125 4.1542969 7.0703125 C 7.1228399 6.6187125 9.413005 5.7216531 11 4.3769531 z M 11 5.5761719 C 9.256509 6.7864719 7.2978492 7.3994063 5.3320312 7.8164062 C 6.2628772 13.098406 8.268115 15.357084 11 16.771484 C 13.731885 15.357084 15.737124 13.098406 16.667969 7.8164062 C 14.702151 7.3994063 12.743491 6.7864719 11 5.5761719 z "
       transform="translate(0,1030.3622)"
       class="ColorScheme-Text"
       id="path4943-9-4-1-2" />
    <path
       style="opacity:1;fill:#da4453;fill-opacity:1;stroke:none"
       d="m 12.000035,1041.3622 5.99993,0 c 0.554019,0 1.000035,0.446 1.000035,1 l 0,5.9999 c 0,0.5541 -0.446016,1.0001 -1.000035,1.0001 l -5.99993,0 C 11.446016,1049.3622 11,1048.9162 11,1048.3621 l 0,-5.9999 c 0,-0.554 0.446016,-1 1.000035,-1 z"
       id="rect4153-8" />
    <path
       style="fill:#ffffff"
       d="m 13,1042.3622 -1,1 2,2 -2,2 1,1 2,-2 2,2 1,-1 -2,-2 2,-2 -1,-1 -2,2 -2,-2 z"
       id="path4141" />
  </g>
</svg>
