<?xml version="1.0" encoding="UTF-8" standalone="no"?>
<svg
   width="32"
   height="32"
   version="1.1"
   id="svg47"
   sodipodi:docname="archive-open.32.svg"
   inkscape:version="1.1.1 (1:1.1+202109281949+c3084ef5ed)"
   xmlns:inkscape="http://www.inkscape.org/namespaces/inkscape"
   xmlns:sodipodi="http://sodipodi.sourceforge.net/DTD/sodipodi-0.dtd"
   xmlns:xlink="http://www.w3.org/1999/xlink"
   xmlns="http://www.w3.org/2000/svg"
   xmlns:svg="http://www.w3.org/2000/svg">
  <sodipodi:namedview
     id="namedview49"
     pagecolor="#ffffff"
     bordercolor="#666666"
     borderopacity="1.0"
     inkscape:pageshadow="2"
     inkscape:pageopacity="0.0"
     inkscape:pagecheckerboard="0"
     showgrid="true"
     inkscape:zoom="22.627417"
     inkscape:cx="3.3587572"
     inkscape:cy="14.363106"
     inkscape:window-width="1920"
     inkscape:window-height="1017"
     inkscape:window-x="0"
     inkscape:window-y="0"
     inkscape:window-maximized="1"
     inkscape:current-layer="svg47">
    <inkscape:grid
       type="xygrid"
       id="grid1071" />
  </sodipodi:namedview>
  <defs
     id="defs20">
    <style
       type="text/css"
       id="current-color-scheme">
        .ColorScheme-Text           { color:#fff; }
        .ColorScheme-Background     { color:#111; }
        .ColorScheme-Highlight      { color:#3daefd; }
        .ColorScheme-ViewBackground { color:#000; }
        .ColorScheme-PositiveText   { color:#27ae60; }
        .ColorScheme-NeutralText    { color:#f67400; }
        .ColorScheme-NegativeText   { color:#da4453; }
    </style>
    <style
       type="text/css"
       id="extended-color-scheme">
        .ExScheme-Black     { color:#172525; }
        .ExScheme-White     { color:#fcfcfc; }
        .ExScheme-Grey-1    { color:#cfd5d5; }
        .ExScheme-Grey-2    { color:#909c9c; }
        .ExScheme-Grey-3    { color:#536161; }
        .ExScheme-Red-1     { color:#ffafa5; }
        .ExScheme-Red-2     { color:#bf4231; }
        .ExScheme-Red-3     { color:#4d2f2b; }
        .ExScheme-Green-1   { color:#abf9c7; }
        .ExScheme-Green-2   { color:#3bb566; }
        .ExScheme-Green-3   { color:#377d50; }
        .ExScheme-Blue-1    { color:#abdaf9; }
        .ExScheme-Blue-2    { color:#3daefd; }
        .ExScheme-Blue-3    { color:#2b3c4d; }
        .ExScheme-Yellow-1  { color:#faffa5; }
        .ExScheme-Yellow-2  { color:#cac726; }
        .ExScheme-Yellow-3  { color:#4b4d2b; }
        .ExScheme-Orange-1  { color:#ffdaa5; }
        .ExScheme-Orange-2  { color:#ff9701; }
        .ExScheme-Orange-3  { color:#4d372b; }
        .ExScheme-Brown-1   { color:#e9d6bb; }
        .ExScheme-Brown-2   { color:#997657; }
        .ExScheme-Brown-3   { color:#433a35; }
        .ExScheme-Purple-1  { color:#e2abf9; }
        .ExScheme-Purple-2  { color:#b401ff; }
        .ExScheme-Purple-3  { color:#432b4d; }
        .ExScheme-Cyan-1    { color:#b2f2e6; }
        .ExScheme-Cyan-2    { color:#31bfa6; }
        .ExScheme-Cyan-3    { color:#2b4d47; }
        .ExScheme-Magenta-1 { color:#f8a6d8; }
        .ExScheme-Magenta-2 { color:#f00091; }
        .ExScheme-Magenta-3 { color:#770048; }
    </style>
    <linearGradient
       id="gradientDark">
      <stop
         stop-opacity="1"
         offset="0"
         stop-color="#000"
         id="stop4" />
      <stop
         stop-opacity="0"
         offset="1"
         stop-color="#000"
         id="stop6" />
    </linearGradient>
    <linearGradient
       id="gradientLight">
      <stop
         stop-opacity="1"
         offset="0"
         stop-color="#fff"
         id="stop9" />
      <stop
         stop-opacity="0"
         offset="1"
         stop-color="#fff"
         id="stop11" />
    </linearGradient>
    <style
       type="text/css"
       class="toggle-enable-crease"
       id="style14">
        .folder-crease { display: none; }
    </style>
    <style
       type="text/css"
       class="toggle-manilla-folders"
       id="style16">
        .folder-manilla { display: none; }
    </style>
    <radialGradient
       xlink:href="#gradientLight"
       id="gl1"
       cx="0.5"
       cy="0"
       r="1" />
    <linearGradient
       xlink:href="#gradientDark"
       id="gd1"
       x1="0"
       y1="1"
       x2="0"
       y2="0.5" />
    <radialGradient
       inkscape:collect="always"
       xlink:href="#gradientLight"
       id="radialGradient4483"
       cx="5.9412994"
       cy="32"
       fx="5.9412994"
       fy="32"
       r="26"
       gradientUnits="userSpaceOnUse"
       gradientTransform="matrix(0,0.9984247,-1.0246102,0,48.787528,-2.9612902)" />
    <linearGradient
       inkscape:collect="always"
       xlink:href="#gradientDark"
       id="linearGradient4893"
       x1="14"
       y1="26"
       x2="14"
       y2="6"
       gradientUnits="userSpaceOnUse"
       gradientTransform="scale(0.5)" />
  </defs>
  <rect
     style="opacity:1;fill:#536161;fill-opacity:1;stroke:none;stroke-width:1;stroke-linecap:round;stroke-opacity:0;-inkscape-stroke:none;paint-order:stroke fill markers;stop-color:#000000"
     id="rect3361"
     width="22"
     height="10"
     x="5"
     y="3"
     ry="0" />
  <rect
     style="opacity:0.2;fill:url(#linearGradient4893);fill-opacity:1;stroke:none;stroke-width:1;stroke-linecap:round;stroke-opacity:0;-inkscape-stroke:none;paint-order:stroke fill markers;stop-color:#000000"
     id="rect3361-0"
     width="22"
     height="10"
     x="5"
     y="3"
     ry="0" />
  <rect
     style="opacity:0.6;fill:#ffcc00;fill-opacity:1;stroke:none;stroke-width:1;stroke-linecap:round;stroke-opacity:0;-inkscape-stroke:none;paint-order:stroke fill markers;stop-color:#000000"
     id="insert"
     width="26"
     height="26"
     x="3"
     y="3" />
  <path
     id="primary-color"
     style="opacity:1;fill:#3daefd;fill-opacity:1;stroke:none;stroke-width:1;stroke-linecap:round;stroke-opacity:0;-inkscape-stroke:none;paint-order:stroke fill markers;stop-color:#000000"
     d="M 4.5,3 C 3.669,3 3,3.669 3,4.5 v 23 C 3,28.331 3.669,29 4.5,29 h 23 C 28.331,29 29,28.331 29,27.5 V 4.5 C 29,3.669 28.331,3 27.5,3 H 27 L 22,12.5 21,13 18.5,12.5 5,3 Z"
     sodipodi:nodetypes="sssssssscccccs" />
  <path
     id="rect2310-2-6"
     style="opacity:0.1;fill:#ffffff;fill-opacity:1;stroke:none;stroke-width:1;stroke-linecap:round;stroke-opacity:0;-inkscape-stroke:none;paint-order:stroke fill markers;stop-color:#000000"
     d="M 4.5 3 C 3.669 3 3 3.669 3 4.5 L 3 27.5 C 3 28.331 3.669 29 4.5 29 L 27.5 29 C 28.331 29 29 28.331 29 27.5 L 29 4.5 C 29 3.669 28.331 3 27.5 3 L 27 3 L 27 11.5 C 27 12.331 26.331 13 25.5 13 L 25 13 L 25 18 C 25 18.554 24.554 19 24 19 L 22 19 C 21.446 19 21 18.554 21 18 L 21 13 L 6.5 13 C 5.669 13 5 12.331 5 11.5 L 5 3 L 4.5 3 z " />
  <path
     id="rect2310-2"
     style="opacity:0.2;fill:url(#radialGradient4483);fill-opacity:1;stroke:none;stroke-width:1;stroke-linecap:round;stroke-opacity:0;-inkscape-stroke:none;paint-order:stroke fill markers;stop-color:#000000"
     d="M 4.5 3 C 3.669 3 3 3.669 3 4.5 L 3 27.5 C 3 28.331 3.669 29 4.5 29 L 27.5 29 C 28.331 29 29 28.331 29 27.5 L 29 4.5 C 29 3.669 28.331 3 27.5 3 L 27 3 L 27 11.5 C 27 12.331 26.331 13 25.5 13 L 25 13 L 25 18 C 25 18.554 24.554 19 24 19 L 22 19 C 21.446 19 21 18.554 21 18 L 21 13 L 6.5 13 C 5.669 13 5 12.331 5 11.5 L 5 3 L 4.5 3 z " />
  <path
     id="secondary-color"
     style="opacity:1;fill:#3daefd;fill-opacity:1;stroke:none;stroke-width:1;stroke-linecap:round;stroke-opacity:0;-inkscape-stroke:none;paint-order:stroke fill markers;stop-color:#000000"
     d="m 5,3 v 8.5 c 0,0.831 0.6709692,1.557175 1.5,1.5 H 21 Z m 16,10 h 4.5 C 26.331,13 27,12.331 27,11.5 V 3 Z"
     sodipodi:nodetypes="csscccsscc" />
  <path
     id="rect2310-6"
     style="opacity:0.1;fill:#000000;fill-opacity:1;stroke:none;stroke-width:1;stroke-linecap:round;stroke-opacity:0;-inkscape-stroke:none;paint-order:stroke fill markers;stop-color:#000000"
     d="m 3,27 v 0.5 C 3,28.331 3.669,29 4.5,29 h 23 C 28.331,29 29,28.331 29,27.5 V 27 c 0,0.831 -0.669,1.5 -1.5,1.5 H 4.5 C 3.669,28.5 3,27.831 3,27 Z" />
  <path
     id="rect2310-6-9"
     style="opacity:0.2;fill:#000000;fill-opacity:1;stroke:none;stroke-width:1;stroke-linecap:round;stroke-opacity:0;-inkscape-stroke:none;paint-order:stroke fill markers;stop-color:#000000"
     d="M 3,27.25 V 27.5 C 3,28.331 3.669,29 4.5,29 h 23 c 0.831,0 1.5,-0.669 1.5,-1.5 v -0.25 c 0,0.831 -0.669,1.5 -1.5,1.5 H 4.5 C 3.669,28.75 3,28.081 3,27.25 Z" />
  <path
     id="rect5086"
     style="opacity:0.1;fill:#000000;fill-opacity:1;stroke:none;stroke-width:1;stroke-linecap:round;stroke-opacity:0;-inkscape-stroke:none;paint-order:stroke fill markers;stop-color:#000000"
     d="M 5,11.5 V 12 c 0,0.831 0.669,1.5 1.5,1.5 h 19 C 26.331,13.5 27,12.831 27,12 V 11.5 C 27,12.331 26.331,13 25.5,13 H 6.5 C 5.669,13 5,12.331 5,11.5 Z" />
  <path
     id="rect5086-2"
     style="opacity:0.2;fill:#000000;fill-opacity:1;stroke:none;stroke-width:1;stroke-linecap:round;stroke-opacity:0;-inkscape-stroke:none;paint-order:stroke fill markers;stop-color:#000000"
     d="m 5,11.5 v 0.25 c 0,0.831 0.669,1.5 1.5,1.5 h 19 c 0.831,0 1.5,-0.669 1.5,-1.5 V 11.5 C 27,12.331 26.331,13 25.5,13 H 6.5 C 5.669,13 5,12.331 5,11.5 Z" />
  <rect
     style="opacity:0.6;fill:#ffcc00;fill-opacity:1;stroke:none;stroke-width:1.14286;stroke-linecap:round;stroke-opacity:0;-inkscape-stroke:none;paint-order:stroke fill markers;stop-color:#000000"
     id="emblem"
     width="16"
     height="16"
     x="4"
     y="13" />
  <path
     id="rect1143"
     style="opacity:0.4;fill:#000000;fill-opacity:1;stroke:none;stroke-width:2;stroke-linecap:round;stroke-opacity:0;-inkscape-stroke:none;paint-order:stroke fill markers;stop-color:#000000"
     d="m 21,13 v 5 c 0,0.554 0.446,1 1,1 h 2 c 0.554,0 0.967468,-0.446956 1,-1 v -5 z m 1,1 h 2 v 3 c 0,0.554 -0.446,1 -1,1 -0.554,0 -1,-0.446 -1,-1 z"
     sodipodi:nodetypes="cssscccccsssc" />
  <path
     id="rect1145"
     style="opacity:0.6;fill:#ffffff;fill-opacity:1;stroke:none;stroke-width:2;stroke-linecap:round;stroke-opacity:0;-inkscape-stroke:none;paint-order:stroke fill markers;stop-color:#000000"
     d="m 22,14 v 3 c 0,0.554 0.446,1 1,1 0.554,0 1,-0.446 1,-1 v -3 z"
     sodipodi:nodetypes="cssscc" />
  <path
     id="rect4145"
     style="opacity:0.1;fill:#ffffff;fill-opacity:1;stroke:none;stroke-width:2;stroke-linecap:round;stroke-opacity:0;-inkscape-stroke:none;paint-order:stroke fill markers;stop-color:#000000"
     d="m 21,18 v 1 c 0,0.554 0.446,1 1,1 h 2 c 0.554,0 1,-0.446 1,-1 v -1 c 0,0.554 -0.446,1 -1,1 h -2 c -0.554,0 -1,-0.446 -1,-1 z" />
  <path
     id="rect4145-7"
     style="opacity:0.2;fill:#ffffff;fill-opacity:1;stroke:none;stroke-width:2;stroke-linecap:round;stroke-opacity:0;-inkscape-stroke:none;paint-order:stroke fill markers;stop-color:#000000"
     d="m 21,18 v 0.5 c 0,0.554 0.446,1 1,1 h 2 c 0.554,0 1,-0.446 1,-1 V 18 c 0,0.554 -0.446,1 -1,1 h -2 c -0.554,0 -1,-0.446 -1,-1 z" />
  <path
     id="group-1"
     style="opacity:0.4;fill:#feffff;fill-opacity:1;stroke:none;stroke-width:1;stroke-linecap:round;stroke-opacity:0;-inkscape-stroke:none;paint-order:stroke fill markers;stop-color:#000000"
     d="m 5,3 v 8.5 c 0,0.831 0.670969,1.557175 1.5,1.5 H 21 Z m 16,10 h 4.5 C 26.331,13 27,12.331 27,11.5 V 3 Z"
     sodipodi:nodetypes="csscccsscc" />
</svg>
