<?xml version="1.0" encoding="UTF-8" standalone="no"?>
<svg
   width="48"
   height="48"
   version="1.1"
   id="svg47"
   sodipodi:docname="archive.48.svg"
   inkscape:version="1.1.1 (1:1.1+202109281949+c3084ef5ed)"
   xmlns:inkscape="http://www.inkscape.org/namespaces/inkscape"
   xmlns:sodipodi="http://sodipodi.sourceforge.net/DTD/sodipodi-0.dtd"
   xmlns:xlink="http://www.w3.org/1999/xlink"
   xmlns="http://www.w3.org/2000/svg"
   xmlns:svg="http://www.w3.org/2000/svg">
  <sodipodi:namedview
     id="namedview49"
     pagecolor="#ffffff"
     bordercolor="#666666"
     borderopacity="1.0"
     inkscape:pageshadow="2"
     inkscape:pageopacity="0.0"
     inkscape:pagecheckerboard="0"
     showgrid="true"
     inkscape:zoom="16"
     inkscape:cx="9.5"
     inkscape:cy="25.625"
     inkscape:window-width="1920"
     inkscape:window-height="1017"
     inkscape:window-x="0"
     inkscape:window-y="0"
     inkscape:window-maximized="1"
     inkscape:current-layer="svg47">
    <inkscape:grid
       type="xygrid"
       id="grid1071" />
  </sodipodi:namedview>
  <defs
     id="defs20">
    <style
       type="text/css"
       id="current-color-scheme">
        .ColorScheme-Text           { color:#fff; }
        .ColorScheme-Background     { color:#111; }
        .ColorScheme-Highlight      { color:#3daefd; }
        .ColorScheme-ViewBackground { color:#000; }
        .ColorScheme-PositiveText   { color:#27ae60; }
        .ColorScheme-NeutralText    { color:#f67400; }
        .ColorScheme-NegativeText   { color:#da4453; }
    </style>
    <style
       type="text/css"
       id="extended-color-scheme">
        .ExScheme-Black     { color:#172525; }
        .ExScheme-White     { color:#fcfcfc; }
        .ExScheme-Grey-1    { color:#cfd5d5; }
        .ExScheme-Grey-2    { color:#909c9c; }
        .ExScheme-Grey-3    { color:#536161; }
        .ExScheme-Red-1     { color:#ffafa5; }
        .ExScheme-Red-2     { color:#bf4231; }
        .ExScheme-Red-3     { color:#4d2f2b; }
        .ExScheme-Green-1   { color:#abf9c7; }
        .ExScheme-Green-2   { color:#3bb566; }
        .ExScheme-Green-3   { color:#377d50; }
        .ExScheme-Blue-1    { color:#abdaf9; }
        .ExScheme-Blue-2    { color:#3daefd; }
        .ExScheme-Blue-3    { color:#2b3c4d; }
        .ExScheme-Yellow-1  { color:#faffa5; }
        .ExScheme-Yellow-2  { color:#cac726; }
        .ExScheme-Yellow-3  { color:#4b4d2b; }
        .ExScheme-Orange-1  { color:#ffdaa5; }
        .ExScheme-Orange-2  { color:#ff9701; }
        .ExScheme-Orange-3  { color:#4d372b; }
        .ExScheme-Brown-1   { color:#e9d6bb; }
        .ExScheme-Brown-2   { color:#997657; }
        .ExScheme-Brown-3   { color:#433a35; }
        .ExScheme-Purple-1  { color:#e2abf9; }
        .ExScheme-Purple-2  { color:#b401ff; }
        .ExScheme-Purple-3  { color:#432b4d; }
        .ExScheme-Cyan-1    { color:#b2f2e6; }
        .ExScheme-Cyan-2    { color:#31bfa6; }
        .ExScheme-Cyan-3    { color:#2b4d47; }
        .ExScheme-Magenta-1 { color:#f8a6d8; }
        .ExScheme-Magenta-2 { color:#f00091; }
        .ExScheme-Magenta-3 { color:#770048; }
    </style>
    <linearGradient
       id="gradientDark">
      <stop
         stop-opacity="1"
         offset="0"
         stop-color="#000"
         id="stop4" />
      <stop
         stop-opacity="0"
         offset="1"
         stop-color="#000"
         id="stop6" />
    </linearGradient>
    <linearGradient
       id="gradientLight">
      <stop
         stop-opacity="1"
         offset="0"
         stop-color="#fff"
         id="stop9" />
      <stop
         stop-opacity="0"
         offset="1"
         stop-color="#fff"
         id="stop11" />
    </linearGradient>
    <style
       type="text/css"
       class="toggle-enable-crease"
       id="style14">
        .folder-crease { display: none; }
    </style>
    <style
       type="text/css"
       class="toggle-manilla-folders"
       id="style16">
        .folder-manilla { display: none; }
    </style>
    <radialGradient
       xlink:href="#gradientLight"
       id="gl1"
       cx="0.5"
       cy="0"
       r="1" />
    <linearGradient
       xlink:href="#gradientDark"
       id="gd1"
       x1="0"
       y1="1"
       x2="0"
       y2="0.5" />
    <radialGradient
       inkscape:collect="always"
       xlink:href="#gradientLight"
       id="radialGradient4483-3"
       cx="5.9412994"
       cy="25.168135"
       fx="5.9412994"
       fy="25.168135"
       r="26"
       gradientUnits="userSpaceOnUse"
       gradientTransform="matrix(0,1.5395904,-1.9230769,0,72.400259,-5.176518)" />
  </defs>
  <path
     id="primary-color"
     style="fill:#3daefd;fill-opacity:1;stroke:none;stroke-width:1;stroke-linecap:round;stroke-opacity:0;-inkscape-stroke:none;paint-order:stroke fill markers;stop-color:#000000"
     d="M 6 4 C 4.892 4 4 4.892 4 6 L 4 42 C 4 43.108 4.892 44 6 44 L 42 44 C 43.108 44 44 43.108 44 42 L 44 6 C 44 4.892 43.108 4 42 4 L 6 4 z " />
  <path
     id="rect2310-2-5-3"
     style="opacity:0.1;fill:#ffffff;fill-opacity:1;stroke:none;stroke-width:1;stroke-linecap:round;stroke-opacity:0;-inkscape-stroke:none;paint-order:stroke fill markers;stop-color:#000000"
     d="M 6,4 C 4.892,4 4,4.892 4,6 v 36 c 0,1.108 0.892,2 2,2 h 36 c 1.108,0 2,-0.892 2,-2 V 6 C 44,4.892 43.108,4 42,4 h -5 v 21 c 0,0.554 -0.446,1 -1,1 h -3 c -0.554,0 -1.026351,-0.446627 -1,-1 V 4 Z"
     sodipodi:nodetypes="sssssssscsssccs" />
  <rect
     style="opacity:1;fill:#ffcc00;fill-opacity:1;stroke:none;stroke-width:1.5;stroke-linecap:round;stroke-opacity:0;-inkscape-stroke:none;paint-order:stroke fill markers;stop-color:#000000"
     id="rect1153-2"
     width="24"
     height="24"
     x="6"
     y="18" />
  <path
     id="rect2310-2-5"
     style="opacity:0.2;fill:url(#radialGradient4483-3);fill-opacity:1;stroke:none;stroke-width:1;stroke-linecap:round;stroke-opacity:0;-inkscape-stroke:none;paint-order:stroke fill markers;stop-color:#000000"
     d="M 6,4 C 4.892,4 4,4.892 4,6 v 36 c 0,1.108 0.892,2 2,2 h 36 c 1.108,0 2,-0.892 2,-2 V 6 C 44,4.892 43.108,4 42,4 h -5 v 21 c 0,0.554 -0.446,1 -1,1 h -3 c -0.554,0 -0.973649,-0.446627 -1,-1 V 4 Z"
     sodipodi:nodetypes="sssssssscsssccs" />
  <path
     id="rect4145"
     style="opacity:0.1;fill:#ffffff;fill-opacity:1;stroke:none;stroke-width:2;stroke-linecap:round;stroke-opacity:0;-inkscape-stroke:none;paint-order:stroke fill markers;stop-color:#000000"
     d="m 32,25 v 1 c 0,0.554 0.446,1 1,1 h 3 c 0.554,0 1,-0.446 1,-1 v -1 c 0,0.554 -0.446,1 -1,1 h -3 c -0.554,0 -1,-0.446 -1,-1 z"
     sodipodi:nodetypes="csssscssc" />
  <path
     id="rect4145-7"
     style="opacity:0.2;fill:#ffffff;fill-opacity:1;stroke:none;stroke-width:2;stroke-linecap:round;stroke-opacity:0;-inkscape-stroke:none;paint-order:stroke fill markers;stop-color:#000000"
     d="m 32,25 v 0.5 c 0,0.554 0.446,1 1,1 h 3 c 0.554,0 1,-0.446 1,-1 V 25 c 0,0.554 -0.446,1 -1,1 h -3 c -0.554,0 -1,-0.446 -1,-1 z"
     sodipodi:nodetypes="csssscssc" />
  <path
     id="rect1143"
     style="opacity:0.4;fill:#000000;fill-opacity:1;stroke:none;stroke-width:2;stroke-linecap:round;stroke-opacity:0;-inkscape-stroke:none;paint-order:stroke fill markers;stop-color:#000000"
     d="m 32,4 v 21 c 0,0.554 0.446,1 1,1 h 3 c 0.554,0 1,-0.446 1,-1 V 4 h -1 c 0,0.554 -0.446,1 -1,1 H 34 C 33.446,5 33,4.554 33,4 Z m 2,2 h 1 c 0.554,0 1,0.446 1,1 v 3 c 0,0.554 -0.446,1 -1,1 h -1 c -0.554,0 -1,-0.446 -1,-1 V 7 c 0,-0.554 0.446,-1 1,-1 z m 0.474609,2 C 34.209695,8.0133421 34,8.2316563 34,8.5 v 1 c 0,0.277 0.223,0.5 0.5,0.5 0.277,0 0.500001,-0.223 0.5,-0.5 v -1 C 35,8.223 34.777,8 34.5,8 34.4913,8 34.48311,7.9995696 34.474609,8 Z M 33,12 h 1.5 l -1.5,1 1.5,1 -1.5,1 1.5,1 -1.5,1 1.5,1 -1.5,1 1.5,1 -1.5,1 1.5,1 -1.5,1 h 1.5 L 36,22 34.5,21 36,20 34.5,19 36,18 34.5,17 36,16 34.5,15 36,14 34.5,13 36,12 v 2 2 2 2 2 2 1 h -3 v -2 -2 -2 -2 -2 -2 z" />
  <path
     id="path3979"
     style="opacity:0.6;fill:#fdfdfd;fill-opacity:1;stroke:none;stroke-width:0.866025px;stroke-linecap:butt;stroke-linejoin:miter;stroke-opacity:1"
     d="m 33,4 c 0,0.554 0.446,1 1,1 h 1 c 0.554,0 1,-0.446 1,-1 z m 1,2 c -0.554,0 -1,0.446 -1,1 v 3 c 0,0.554 0.446,1 1,1 h 1 c 0.554,0 1,-0.446 1,-1 V 7 C 36,6.446 35.554,6 35,6 Z m 0.474609,2 c 0.0085,-4.304e-4 0.01673,0 0.02539,0 0.277,0 0.5,0.223 0.5,0.5 v 1 C 35,9.777 34.777,10 34.5,10 34.223,10 34,9.777 34,9.5 v -1 C 34,8.2316563 34.209695,8.0133421 34.474609,8 Z M 33,12 v 1 l 1.5,-1 z m 0,1 v 2 l 1.5,-1 z m 0,2 v 2 l 1.5,-1 z m 0,2 v 2 l 1.5,-1 z m 0,2 v 2 l 1.5,-1 z m 0,2 v 2 l 1.5,-1 z m 0,2 v 2 h 3 v -1 -2 l -1.5,1 z m 3,-1 v -2 l -1.5,1 z m 0,-2 v -2 l -1.5,1 z m 0,-2 v -2 l -1.5,1 z m 0,-2 v -2 l -1.5,1 z m 0,-2 v -2 l -1.5,1 z" />
  <path
     id="rect6569"
     style="opacity:0.1;fill:#000000;fill-opacity:1;stroke:none;stroke-width:2;stroke-linecap:round;stroke-linejoin:round;stroke-opacity:0;-inkscape-stroke:none;paint-order:stroke fill markers;stop-color:#000000"
     d="M 4 41 L 4 42 C 4 43.108 4.892 44 6 44 L 42 44 C 43.108 44 44 43.108 44 42 L 44 41 C 44 42.108 43.108 43 42 43 L 6 43 C 4.892 43 4 42.108 4 41 z " />
  <path
     id="rect6569-5"
     style="opacity:0.2;fill:#000000;fill-opacity:1;stroke:none;stroke-width:2;stroke-linecap:round;stroke-linejoin:round;stroke-opacity:0;-inkscape-stroke:none;paint-order:stroke fill markers;stop-color:#000000"
     d="M 4,41.5 V 42 c 0,1.108 0.892,2 2,2 h 36 c 1.108,0 2,-0.892 2,-2 v -0.5 c 0,1.108 -0.892,2 -2,2 H 6 c -1.108,0 -2,-0.892 -2,-2 z" />
  <path
     id="rect6569-3"
     style="opacity:0.1;fill:#ffffff;fill-opacity:1;stroke:none;stroke-width:2;stroke-linecap:round;stroke-linejoin:round;stroke-opacity:0;-inkscape-stroke:none;paint-order:stroke fill markers;stop-color:#000000"
     d="M 6,4 C 4.892,4 4,4.892 4,6 V 7 C 4,5.892 4.892,5 6,5 H 32 V 4 Z m 31,0 v 1 h 5 c 1.108,0 2,0.892 2,2 V 6 C 44,4.892 43.108,4 42,4 Z"
     sodipodi:nodetypes="sscsccsccscssc" />
  <path
     id="rect6569-5-6"
     style="opacity:0.2;fill:#ffffff;fill-opacity:1;stroke:none;stroke-width:2;stroke-linecap:round;stroke-linejoin:round;stroke-opacity:0;-inkscape-stroke:none;paint-order:stroke fill markers;stop-color:#000000"
     d="M 6,4 C 4.892,4 4,4.892 4,6 v 0.5 c 0,-1.108 0.892,-2 2,-2 H 32 V 4 Z m 31,0 v 0.5 h 5 c 1.108,0 2,0.892 2,2 V 6 C 44,4.892 43.108,4 42,4 Z"
     sodipodi:nodetypes="sscsccsccscssc" />
</svg>
