<?xml version="1.0" encoding="UTF-8" standalone="no"?>
<svg
   width="64"
   height="64"
   version="1.1"
   id="svg47"
   sodipodi:docname="archive.64.svg"
   inkscape:version="1.1.1 (1:1.1+202109281949+c3084ef5ed)"
   xmlns:inkscape="http://www.inkscape.org/namespaces/inkscape"
   xmlns:sodipodi="http://sodipodi.sourceforge.net/DTD/sodipodi-0.dtd"
   xmlns:xlink="http://www.w3.org/1999/xlink"
   xmlns="http://www.w3.org/2000/svg"
   xmlns:svg="http://www.w3.org/2000/svg">
  <sodipodi:namedview
     id="namedview49"
     pagecolor="#ffffff"
     bordercolor="#666666"
     borderopacity="1.0"
     inkscape:pageshadow="2"
     inkscape:pageopacity="0.0"
     inkscape:pagecheckerboard="0"
     showgrid="true"
     inkscape:zoom="11.313708"
     inkscape:cx="23.422912"
     inkscape:cy="25.367456"
     inkscape:window-width="1920"
     inkscape:window-height="1017"
     inkscape:window-x="0"
     inkscape:window-y="0"
     inkscape:window-maximized="1"
     inkscape:current-layer="svg47">
    <inkscape:grid
       type="xygrid"
       id="grid1071" />
  </sodipodi:namedview>
  <defs
     id="defs20">
    <style
       type="text/css"
       id="current-color-scheme">
        .ColorScheme-Text           { color:#fff; }
        .ColorScheme-Background     { color:#111; }
        .ColorScheme-Highlight      { color:#3daefd; }
        .ColorScheme-ViewBackground { color:#000; }
        .ColorScheme-PositiveText   { color:#27ae60; }
        .ColorScheme-NeutralText    { color:#f67400; }
        .ColorScheme-NegativeText   { color:#da4453; }
    </style>
    <linearGradient
       id="gradientDark">
      <stop
         stop-opacity="1"
         offset="0"
         stop-color="#000"
         id="stop4" />
      <stop
         stop-opacity="0"
         offset="1"
         stop-color="#000"
         id="stop6" />
    </linearGradient>
    <linearGradient
       id="gradientLight">
      <stop
         stop-opacity="1"
         offset="0"
         stop-color="#fff"
         id="stop9" />
      <stop
         stop-opacity="0"
         offset="1"
         stop-color="#fff"
         id="stop11" />
    </linearGradient>
    <style
       type="text/css"
       class="toggle-enable-crease"
       id="style14">
        .folder-crease { display: none; }
    </style>
    <style
       type="text/css"
       class="toggle-manilla-folders"
       id="style16">
        .folder-manilla { display: none; }
    </style>
    <radialGradient
       xlink:href="#gradientLight"
       id="gl1"
       cx="0.5"
       cy="0"
       r="1" />
    <linearGradient
       xlink:href="#gradientDark"
       id="gd1"
       x1="0"
       y1="1"
       x2="0"
       y2="0.5" />
    <radialGradient
       inkscape:collect="always"
       xlink:href="#gradientLight"
       id="radialGradient4483"
       cx="5.9412994"
       cy="32"
       fx="5.9412994"
       fy="32"
       r="26"
       gradientUnits="userSpaceOnUse"
       gradientTransform="matrix(0,1.9968494,-2.0492205,0,97.57506,-5.92258)" />
  </defs>
  <path
     id="primary-color"
     style="opacity:1;fill:#3daefd;fill-opacity:1;stroke:none;stroke-width:2;stroke-linecap:round;stroke-opacity:0;-inkscape-stroke:none;paint-order:stroke fill markers;stop-color:#000000"
     d="M 9,6 C 7.338,6 6,7.338 6,9 v 46 c 0,1.662 1.338,3 3,3 h 46 c 1.662,0 3,-1.338 3,-3 V 9 C 58,7.338 56.662,6 55,6 H 54 10 Z"
     sodipodi:nodetypes="ssssssssccs" />
  <path
     id="rect2310-2-6"
     style="opacity:0.1;fill:#ffffff;fill-opacity:1;stroke:none;stroke-width:2;stroke-linecap:round;stroke-opacity:0;-inkscape-stroke:none;paint-order:stroke fill markers;stop-color:#000000"
     d="M 9,6 C 7.338,6 6,7.338 6,9 v 46 c 0,1.662 1.338,3 3,3 h 46 c 1.662,0 3,-1.338 3,-3 V 9 C 58,7.338 56.662,6 55,6 h -5 v 31 c 0,1.108 -0.892,2 -2,2 h -4 c -1.108,0 -2,-0.892 -2,-2 V 6 Z" />
  <rect
     style="opacity:1;fill:#ffcc00;fill-opacity:1;stroke:none;stroke-width:2.28572;stroke-linecap:round;stroke-opacity:0;-inkscape-stroke:none;paint-order:stroke fill markers;stop-color:#000000"
     id="emblem"
     width="32"
     height="32"
     x="8"
     y="26" />
  <path
     id="rect2310-2"
     style="opacity:0.2;fill:url(#radialGradient4483);fill-opacity:1;stroke:none;stroke-width:2;stroke-linecap:round;stroke-opacity:0;-inkscape-stroke:none;paint-order:stroke fill markers;stop-color:#000000"
     d="M 9,6 C 7.338,6 6,7.338 6,9 v 46 c 0,1.662 1.338,3 3,3 h 46 c 1.662,0 3,-1.338 3,-3 V 9 C 58,7.338 56.662,6 55,6 h -5 v 31 c 0,1.108 -0.892,2 -2,2 h -4 c -1.108,0 -2,-0.892 -2,-2 V 6 Z" />
  <path
     id="rect2310-6"
     style="fill:#000000;fill-opacity:1;stroke:none;stroke-width:2;stroke-linecap:round;stroke-opacity:0;-inkscape-stroke:none;paint-order:stroke fill markers;stop-color:#000000;opacity:0.1"
     d="M 6 54 L 6 55 C 6 56.662 7.338 58 9 58 L 55 58 C 56.662 58 58 56.662 58 55 L 58 54 C 58 55.662 56.662 57 55 57 L 9 57 C 7.338 57 6 55.662 6 54 z " />
  <path
     id="rect2310-6-9"
     style="fill:#000000;fill-opacity:1;stroke:none;stroke-width:2;stroke-linecap:round;stroke-opacity:0;-inkscape-stroke:none;paint-order:stroke fill markers;stop-color:#000000;opacity:0.2"
     d="M 6 54.5 L 6 55 C 6 56.662 7.338 58 9 58 L 55 58 C 56.662 58 58 56.662 58 55 L 58 54.5 C 58 56.162 56.662 57.5 55 57.5 L 9 57.5 C 7.338 57.5 6 56.162 6 54.5 z " />
  <path
     id="rect2310-6-3"
     style="opacity:0.1;fill:#fefefe;fill-opacity:1;stroke:none;stroke-width:2;stroke-linecap:round;stroke-opacity:0;-inkscape-stroke:none;paint-order:stroke fill markers;stop-color:#000000"
     d="M 9,6 C 7.338,6 6,7.338 6,9 v 1 C 6,8.338 7.338,7 9,7 H 42 V 6 Z m 41,0 v 1 h 5 c 1.662,0 3,1.338 3,3 V 9 C 58,7.338 56.662,6 55,6 Z"
     sodipodi:nodetypes="sscsccsccscssc" />
  <path
     id="rect2310-6-9-6"
     style="opacity:0.2;fill:#fefefe;fill-opacity:1;stroke:none;stroke-width:2;stroke-linecap:round;stroke-opacity:0;-inkscape-stroke:none;paint-order:stroke fill markers;stop-color:#000000"
     d="M 9,6 C 7.338,6 6,7.338 6,9 v 0.5 c 0,-1.662 1.338,-3 3,-3 H 42 V 6 Z m 41,0 v 0.5 h 5 c 1.662,0 3,1.338 3,3 V 9 C 58,7.338 56.662,6 55,6 Z"
     sodipodi:nodetypes="sscsccsccscssc" />
  <path
     id="rect279192-9-5-7-5-6"
     style="opacity:0.4;fill:#050505;fill-opacity:1;stroke:none;stroke-width:1;stroke-linecap:round;stroke-linejoin:round;stroke-miterlimit:4;stroke-dasharray:none;stroke-opacity:1;paint-order:markers stroke fill;stop-color:#000000"
     d="m 42,6 v 31 c 0,1.108 0.892,2 2,2 h 4 c 1.108,0 2,-0.892 2,-2 V 6 Z m 3,0 h 2 v 4 h -2 z m -1,2 v 2 c 0,0.554 0.446,1 1,1 h 2 c 0.554,0 1,-0.446 1,-1 V 8 c 0.554,0 1,0.446 1,1 v 7 c 0,0.554 -0.446,1 -1,1 h -4 c -0.554,0 -1,-0.446 -1,-1 V 9 c 0,-0.554 0.446,-1 1,-1 z m 1,4 c -0.554,0 -1,0.446 -1,1 v 2 c 0,0.554 0.446,1 1,1 h 2 c 0.554,0 1,-0.446 1,-1 v -2 c 0,-0.554 -0.446,-1 -1,-1 z m 1,7 v 2 h 2 v 2 h -2 v 2 h 2 v 2 h -2 v 2 h 2 v 2 h -2 v 2 h 2 v 2 2 h -2 -2 v -2 h 2 v -2 h -2 v -2 h 2 v -2 h -2 v -2 h 2 v -2 h -2 v -2 h 2 v -2 h -2 v -2 z"
     sodipodi:nodetypes="cssssccccccccsssscsssssscsssssssssccccccccccccccccccccccccccccccccccccc" />
  <path
     id="path68139"
     style="opacity:0.6;fill:#ffffff;fill-opacity:1;stroke:none;stroke-width:0.707107;stroke-linecap:round;stroke-linejoin:round;stroke-miterlimit:4;stroke-dasharray:none;stroke-opacity:1;paint-order:markers stroke fill;stop-color:#000000"
     d="m 44,8 c -0.554,0 -1,0.446 -1,1 v 7 c 0,0.554 0.446,1 1,1 h 4 c 0.554,0 1,-0.446 1,-1 V 9 C 49,8.446 48.554,8 48,8 v 2 c 0,0.554 -0.446,1 -1,1 h -2 c -0.554,0 -1,-0.446 -1,-1 z m 1,4 h 2 c 0.554,0 1,0.446 1,1 v 2 c 0,0.554 -0.446,1 -1,1 h -2 c -0.554,0 -1,-0.446 -1,-1 v -2 c 0,-0.554 0.446,-1 1,-1 z" />
  <path
     style="opacity:0.6;fill:#ffffff;fill-opacity:1;stroke:none;stroke-width:0.707107;stroke-linecap:round;stroke-linejoin:round;stroke-miterlimit:4;stroke-dasharray:none;stroke-opacity:1;paint-order:markers stroke fill;stop-color:#000000"
     d="m 45,6 v 4 h 2 V 6 Z"
     id="path68137" />
  <g
     id="g68174"
     transform="translate(-802,-366)">
    <path
       id="path68135"
       style="opacity:0.6;fill:#ffffff;fill-opacity:1;stroke:none;stroke-width:0.707107;stroke-linecap:round;stroke-linejoin:round;stroke-miterlimit:4;stroke-dasharray:none;stroke-opacity:1;paint-order:markers stroke fill;stop-color:#000000"
       d="m 848,385 h -2 v 2 h 2 z m 0,2 v 2 h 2 v -2 z m 0,2 h -2 v 2 h 2 z m 0,2 v 2 h 2 v -2 z m 0,2 h -2 v 2 h 2 z m 0,2 v 2 h 2 v -2 z m 0,2 h -2 v 2 h 2 z m 0,2 v 2 h -2 v 2 h 2 2 v -2 -2 z"
       sodipodi:nodetypes="cccccccccccccccccccccccccccccccccccccccccccc" />
  </g>
  <path
     id="rect90872"
     style="opacity:0.1;fill:#f9ffff;fill-opacity:1;stroke:none;stroke-width:1;stroke-linecap:round;stroke-miterlimit:4;stroke-dasharray:none;stroke-opacity:1;paint-order:stroke fill markers;stop-color:#000000"
     d="m 42,37 v 1 c 0,1.108 0.892,2 2,2 h 4 c 1.108,0 2,-0.892 2,-2 v -1 c 0,1.108 -0.892,2 -2,2 h -4 c -1.108,0 -2,-0.892 -2,-2 z" />
  <path
     id="rect90872-3"
     style="opacity:0.2;fill:#f9ffff;fill-opacity:1;stroke:none;stroke-width:1;stroke-linecap:round;stroke-miterlimit:4;stroke-dasharray:none;stroke-opacity:1;paint-order:stroke fill markers;stop-color:#000000"
     d="m 42,37 v 0.5 c 0,1.108 0.892,2 2,2 h 4 c 1.108,0 2,-0.892 2,-2 V 37 c 0,1.108 -0.892,2 -2,2 h -4 c -1.108,0 -2,-0.892 -2,-2 z" />
</svg>
