<?xml version="1.0" encoding="UTF-8"?>
<svg width="48" height="48" version="1.1" xmlns="http://www.w3.org/2000/svg" xmlns:xlink="http://www.w3.org/1999/xlink">
  <defs>
    <style id="current-color-scheme" type="text/css">.ColorScheme-Text           { color:#fff; }
        .ColorScheme-Background     { color:#222; }
        .ColorScheme-Highlight      { color:#3daefd; }
        .ColorScheme-ViewBackground { color:#000; }
        .ColorScheme-PositiveText   { color:#27ae60; }
        .ColorScheme-NeutralText    { color:#f67400; }
        .ColorScheme-NegativeText   { color:#da4453; }</style>
    <style id="extended-color-scheme" type="text/css">.ExScheme-Black     { color:#172525; }
        .ExScheme-White     { color:#fcfcfc; }
        .ExScheme-Grey-1    { color:#cfd5d5; }
        .ExScheme-Grey-2    { color:#909c9c; }
        .ExScheme-Grey-3    { color:#536161; }
        .ExScheme-Red-1     { color:#ffafa5; }
        .ExScheme-Red-2     { color:#bf4231; }
        .ExScheme-Red-3     { color:#4d2f2b; }
        .ExScheme-Green-1   { color:#abf9c7; }
        .ExScheme-Green-2   { color:#3bb566; }
        .ExScheme-Green-3   { color:#377d50; }
        .ExScheme-Blue-1    { color:#abdaf9; }
        .ExScheme-Blue-2    { color:#3daefd; }
        .ExScheme-Blue-3    { color:#2b3c4d; }
        .ExScheme-Yellow-1  { color:#faffa5; }
        .ExScheme-Yellow-2  { color:#cac726; }
        .ExScheme-Yellow-3  { color:#4b4d2b; }
        .ExScheme-Orange-1  { color:#ffdaa5; }
        .ExScheme-Orange-2  { color:#ff9701; }
        .ExScheme-Orange-3  { color:#4d372b; }
        .ExScheme-Brown-1   { color:#e9d6bb; }
        .ExScheme-Brown-2   { color:#997657; }
        .ExScheme-Brown-3   { color:#433a35; }
        .ExScheme-Purple-1  { color:#e2abf9; }
        .ExScheme-Purple-2  { color:#b401ff; }
        .ExScheme-Purple-3  { color:#432b4d; }
        .ExScheme-Cyan-1    { color:#b2f2e6; }
        .ExScheme-Cyan-2    { color:#31bfa6; }
        .ExScheme-Cyan-3    { color:#2b4d47; }
        .ExScheme-Magenta-1 { color:#f8a6d8; }
        .ExScheme-Magenta-2 { color:#f00091; }
        .ExScheme-Magenta-3 { color:#770048; }</style>
    <linearGradient id="gradientDark">
      <stop offset="0"/>
      <stop stop-opacity="0" offset="1"/>
    </linearGradient>
    <linearGradient id="gradientPanel">
      <stop stop-color="#172525" offset="0"/>
      <stop stop-color="#172525" stop-opacity="0" offset="1"/>
    </linearGradient>
    <radialGradient id="gd1" cx="19.742" cy="-20.3427" r="15" gradientTransform="matrix(-.506875 .12841 -.041031 -.161963 48.2859 5.89946)" gradientUnits="userSpaceOnUse" spreadMethod="reflect" xlink:href="#gradientDark"/>
    <linearGradient id="gd2" x1="-12" x2="-12" y1="33" y2="31" gradientTransform="matrix(1.42649 -.542914 .542914 1.42649 -41.1042 5.20191)" gradientUnits="userSpaceOnUse" xlink:href="#gradientDark"/>
    <linearGradient id="gd3" x1="9" x2="9" y1="14" y2="20" gradientTransform="matrix(1.18301 .246064 -.205053 .985845 19.4711 2.02559)" gradientUnits="userSpaceOnUse" xlink:href="#gradientDark"/>
    <linearGradient id="gd4" x1="0" x2="0" y1="1" y2="0" xlink:href="#gradientDark"/>
    <linearGradient id="gp1" x1="21.0089" x2="22.5529" y1="25.027" y2="22.4497" gradientTransform="matrix(-2.93333 0 0 2.93333 76.9333 -34.4125)" gradientUnits="userSpaceOnUse" xlink:href="#gradientPanel"/>
    <linearGradient id="gp2" x1="23.3163" x2="22.0538" y1="19.112" y2="14.4714" gradientTransform="matrix(1.49995 0 0 1.49995 -.498399 1.5926)" gradientUnits="userSpaceOnUse" xlink:href="#gradientPanel"/>
  </defs>
  <path d="m27.0664 30.1211-25.0664 8.87891v1c0 1.108.892 2 2 2h40c1.108 0 2-.892 2-2v-1z" class="ColorScheme-Highlight" fill="currentColor" />
  <path d="m27.0664 30.1211-25.0664 8.87891v1c0 1.108.892 2 2 2h40c1.108 0 2-.892 2-2v-1z" fill="url(#gp1)" />
  <path d="M 3,10 2,20.72855 2,39.00003 h 8 L 45,24 Z" class="ColorScheme-Highlight" fill="currentColor"/>
  <path d="M 3,10 2,20.72855 2,39.00003 h 8 L 45,24 Z" fill="url(#gd1)" opacity=".075"/>
  <path d="M 3,10 2,20.72855 2,39.00003 h 8 L 45,24 Z" fill="#000" opacity=".5"/>
  <path d="m46 22.6758-42.8887 16.3242h16.3164l26.5723-10.1152z" fill="url(#gd2)" opacity=".4" />
  <path d="m2.43555 6.76562c-.268863.340492-.435547.7649-.435547 1.23438v10.959l44 9.1543v-11.3594z" fill="url(#gd3)" opacity=".4"/>
  <path d="M 46,23.398438 7.9765625,39 H 46 Z" fill="#334545"/>
  <g style="opacity: .4">
    <path d="M 46,38.144531 43.919922,39 H 46 Z" opacity=".6" />
    <path d="m29.0977 37.7062-.736329 1.29379h6.40934z" opacity=".3" />
    <path d="m43.3949 35.527-8.4633 3.47296h6.48386z" opacity=".6" />
    <path d="m37.6176 34.2124-8.51994 3.49383 5.67301 1.29379h.119251z" opacity=".5" />
    <path d="m37.6176 34.2124-2.72769 4.78762h.04173l8.4633-3.47296z" opacity=".7" />
    <path d="m29.0977 37.7062-3.15101 1.29379h2.41468z" opacity=".4" />
    <path d="m17.543 35.0739-2.23581 3.92609h1.65748l6.35568-2.60845z" opacity=".6" />
    <path d="m23.321 36.3911 8.52038-3.49657-2.74323 4.81311z" opacity=".3" />
    <path d="m23.3203 36.3916-6.35568 2.60845h4.86811z" opacity=".4" />
    <path d="m23.3203 36.3916-1.48756 2.60845h4.1139l3.15101-1.29379z" opacity=".5" />
    <path d="m17.5439 35.0745 8.52038-3.49657-2.74323 4.81311z" opacity=".5" />
    <path d="m31.8414 32.8945-8.52038 3.49657 2.74323-4.81311z" opacity=".4" />
    <path d="m37.6185 34.211-8.52037 3.49657 2.74323-4.81311z" opacity=".75" />
    <path d="m17.543 35.0739-8.51994 3.49681 1.88106.429276h4.40306z" opacity=".4" />
    <path d="m9.02303 38.5707-.244449.429276h2.12551z" opacity=".6" />
    <path d="m 46,30.7715 -8.38086,3.43945 5.77734,1.31641 L 46,30.959 Z" opacity=".6" />
    <path d="m46 27.0859-5.63672 2.3125 5.63672 1.28516z" opacity=".6" />
    <path d="m31.8414 32.8945 8.52037-3.49657-2.74323 4.81311z" opacity=".3" />
    <path d="m40.3613 29.3984-2.74219 4.8125 8.38086-3.43945v-.08789z" opacity=".4" />
    <path d="m46 30.9551-2.60547 4.57227 2.60547-1.07031z" opacity=".4" />
    <path d="m26.0642 31.578 8.52038-3.49657-2.74323 4.81311z" opacity=".5" />
    <path d="m43.3945 35.5273-1.97852 3.47266h2.50391l2.08008-.855469v-2.02344z" opacity=".5" />
    <path d="m46 34.457-2.60547 1.07031 2.60547.59375z" opacity=".75" />
    <path d="m34.5846 28.0814 8.52037-3.49657-2.74323 4.81311z" opacity=".4" />
    <path d="m40.3618 29.3979-8.52037 3.49657 2.74323-4.81311z" opacity=".6" />
    <path d="m43.1055 24.584-2.74219 4.81445 5.63672-2.3125v-1.8418z" opacity=".75" />
    <path d="m46 23.3984-38.0234 15.6016h1.86328l36.1602-14.8398z" opacity=".4"/>
  </g>
  <path d="m4 6c-1.108 0-2 .892-2 2v12.7285l.832031-.421875 9.30664-2.20898 1.16602.04492 32.6953 6.79883v-16.9414c0-1.108-.892-2-2-2z"/>
  <path d="m4 6c-1.108 0-2 .892-2 2v12.7285l.832031-.421875 9.30664-2.20898 1.16602.04492 32.6953 6.79883v-16.9414c0-1.108-.892-2-2-2z" class="ColorScheme-Highlight" fill="currentColor" opacity=".6"/>
  <path d="m4 6c-1.108 0-2 .892-2 2v12.7285l.832031-.421875 9.30664-2.20898 1.16602.04492 32.6953 6.79883v-16.9414c0-1.108-.892-2-2-2z" class="ColorScheme-NeutralText" fill="currentColor" opacity=".15"/>
  <path d="m4 6c-1.108 0-2 .892-2 2v12.7285l.832031-.421875 9.30664-2.20898 1.16602.04492 32.6953 1.24024v-11.3828c0-1.108-.892-2-2-2z" class="ColorScheme-NeutralText" fill="currentColor" opacity=".15"/>
  <path d="m4 6c-1.108 0-2 .892-2 2v12.7285l.832031-.421875 42.9609-13.1797c-.324004-.665682-1.0002-1.12695-1.79297-1.12695z" class="ColorScheme-NeutralText" fill="currentColor" opacity=".15"/>
  <path d="m4 6c-1.108 0-2 .892-2 2v12.7285l23.0645-14.7285z" class="ColorScheme-NeutralText" fill="currentColor" opacity=".15"/>
  <path d="m23.5293 6-21.5293 13.9473v.78125l.828125-.421875 9.30664-2.20898 1.17188.04492 32.6934 6.79883v-.708984l-28.5234-5.93164 28.5234 1.08203v-.695312l-33.7108-1.25643 33.4979-10.3158c-.114937-.232228-.273059-.437446-.464843-.607422l-41.1257 12.8419 20.8679-13.3497z" fill="#fffefc" opacity=".15"/>
  <path d="m17.4766 18.3008-4.17187-.158203 32.6953 6.79883v-5.55859z" fill="url(#gp2)" opacity=".6"/>
  
  <!-- panel -->
  <path d="m2 39v1c0 1.108.892 2 2 2h40c1.108 0 2-.892 2-2v-1z" class="ColorScheme-Background" fill="currentColor" opacity=".8" />
  <rect class="ColorScheme-Background" fill="currentColor" x="2" y="39" width="44" height=".5" opacity=".2" />
  <rect fill="url(#gd4)" x="2" y="38" width="44" height="1" opacity=".2" />
  
  <!-- panel buttons -->
  <rect class="ColorScheme-Text" fill="currentColor" x="4" y="40" width="2" height="1" ry=".5" />
  <rect class="ColorScheme-Text" fill="currentColor" x="41" y="40" width="3" height="1" ry=".5" />
  <rect class="ColorScheme-Text" fill="currentColor" x="39" y="40" width="1" height="1" ry=".5" />
  
  <!-- top highlight -->
  <path d="m2 8.5v-.5c0-1.108.892-2 2-2h40c1.108 0 2 .89201 2 2v.5c0-1.10799-.892-2-2-2h-40c-1.108 0-2 .892-2 2z" fill="#fff" opacity=".1" />
  <path d="m2 9v-1c0-1.108.892-2 2-2h40c1.108 0 2 .89201 2 2v1c0-1.10799-.892-2-2-2h-40c-1.108 0-2 .892-2 2z" fill="#fff" opacity=".1" />
  
  <!-- bottom shadow/highlight -->
  <path class="ColorScheme-Text" fill="currentColor" d="m2 39v1c0 1.108.892 2 2 2h40c1.108 0 2-.89201 2-2v-1c0 1.10799-.892 2-2 2h-40c-1.108 0-2-.892-2-2z" opacity=".1" />
  <path class="ColorScheme-Text" fill="currentColor" d="m2 39.5v.5c0 1.108.892 2 2 2h40c1.108 0 2-.89201 2-2v-.5c0 1.10799-.892 2-2 2h-40c-1.108 0-2-.892-2-2z" opacity=".1" />
</svg>
