<?xml version="1.0" encoding="UTF-8"?>
<svg width="128" height="128" version="1.1" xmlns="http://www.w3.org/2000/svg" xmlns:xlink="http://www.w3.org/1999/xlink">
  <defs>
    <style id="current-color-scheme" type="text/css">.ColorScheme-Text           { color:#fff; }
        .ColorScheme-Background     { color:#222; }
        .ColorScheme-Highlight      { color:#3daefd; }
        .ColorScheme-ViewBackground { color:#000; }
        .ColorScheme-PositiveText   { color:#27ae60; }
        .ColorScheme-NeutralText    { color:#f67400; }
        .ColorScheme-NegativeText   { color:#da4453; }</style>
    <style id="extended-color-scheme" type="text/css">.ExScheme-Black     { color:#172525; }
        .ExScheme-White     { color:#fcfcfc; }
        .ExScheme-Grey-1    { color:#cfd5d5; }
        .ExScheme-Grey-2    { color:#909c9c; }
        .ExScheme-Grey-3    { color:#536161; }
        .ExScheme-Red-1     { color:#ffafa5; }
        .ExScheme-Red-2     { color:#bf4231; }
        .ExScheme-Red-3     { color:#4d2f2b; }
        .ExScheme-Green-1   { color:#abf9c7; }
        .ExScheme-Green-2   { color:#3bb566; }
        .ExScheme-Green-3   { color:#377d50; }
        .ExScheme-Blue-1    { color:#abdaf9; }
        .ExScheme-Blue-2    { color:#3daefd; }
        .ExScheme-Blue-3    { color:#2b3c4d; }
        .ExScheme-Yellow-1  { color:#faffa5; }
        .ExScheme-Yellow-2  { color:#cac726; }
        .ExScheme-Yellow-3  { color:#4b4d2b; }
        .ExScheme-Orange-1  { color:#ffdaa5; }
        .ExScheme-Orange-2  { color:#ff9701; }
        .ExScheme-Orange-3  { color:#4d372b; }
        .ExScheme-Brown-1   { color:#e9d6bb; }
        .ExScheme-Brown-2   { color:#997657; }
        .ExScheme-Brown-3   { color:#433a35; }
        .ExScheme-Purple-1  { color:#e2abf9; }
        .ExScheme-Purple-2  { color:#b401ff; }
        .ExScheme-Purple-3  { color:#432b4d; }
        .ExScheme-Cyan-1    { color:#b2f2e6; }
        .ExScheme-Cyan-2    { color:#31bfa6; }
        .ExScheme-Cyan-3    { color:#2b4d47; }
        .ExScheme-Magenta-1 { color:#f8a6d8; }
        .ExScheme-Magenta-2 { color:#f00091; }
        .ExScheme-Magenta-3 { color:#770048; }</style>
    <linearGradient id="gradientDark">
      <stop offset="0"/>
      <stop stop-opacity="0" offset="1"/>
    </linearGradient>
    <linearGradient id="gradientPanel">
      <stop stop-color="#172525" offset="0"/>
      <stop stop-color="#172525" stop-opacity="0" offset="1"/>
    </linearGradient>
    <radialGradient id="gd1" cx="19.742" cy="-20.3427" r="15" gradientTransform="matrix(-1.32836 .336521 -.10753 -.424455 127.646 15.7365)" gradientUnits="userSpaceOnUse" spreadMethod="reflect" xlink:href="#gradientDark"/>
    <linearGradient id="gd2" x1="-12" x2="-12" y1="33" y2="31" gradientTransform="matrix(3.7384 -1.42281 1.42281 3.7384 -106.618 15.4257)" gradientUnits="userSpaceOnUse" xlink:href="#gradientDark"/>
    <linearGradient id="gd3" x1="9" x2="9" y1="14" y2="20" gradientTransform="matrix(3.10031 .644857 -.537381 2.58359 52.1312 5.5843)" gradientUnits="userSpaceOnUse" xlink:href="#gradientDark"/>
    <linearGradient id="gd4" x1="0" x2="0" y1="1" y2="0" xlink:href="#gradientDark"/>
    <linearGradient id="gp1" x1="21.0684" x2="24.7427" y1="24.9573" y2="18.8882" gradientTransform="matrix(-2.93333 0 0 2.93333 94.9333 34.5875)" gradientUnits="userSpaceOnUse" xlink:href="#gradientPanel"/>
    <linearGradient id="gp2" x1="23.5953" x2="22.0538" y1="19.2929" y2="14.4714" gradientTransform="matrix(3.99858 0 0 3.99898 .044019 4.01589)" gradientUnits="userSpaceOnUse" xlink:href="#gradientPanel"/>
  </defs>
  <path d="m45.0664 99.1211-41.0664 4.87891v6c0 1.108.892 2 2 2h116c1.108 0 2.18215-.90708 2-2v-6z" class="ColorScheme-Highlight" fill="currentColor"/>
  <path d="m45.0664 99.1211-41.0664 4.87891v6c0 1.108.892 2 2 2h116c1.108 0 2.18215-.90708 2-2v-6z" fill="url(#gp1)"/>
  <path d="m10 30-6 25.9297-4e-5 48.0703h22l94-39z" class="ColorScheme-Highlight" fill="currentColor"/>
  <path d="m10 30-6 25.9297-4e-5 48.0703h22l94-39z" fill="url(#gd1)" opacity=".075"/>
  <path d="m10 30-6 25.9297-4e-5 48.0703h22l94-39z" fill="#000" opacity=".5"/>
  <path d="m4.30469 17.2734c-.188724.34653-.304688.74007-.304688 1.16406v31.0391l120 24.9609v-29.7187z" fill="url(#gd3)" opacity=".4"/>
  <rect x="113" y="99" width="1" height="1" stroke-linecap="round" stroke-linejoin="round" stroke-width="2"/>
  <path d="m124 60.3281-114.742 43.6719h42.7578l71.9844-27.3984z" fill="url(#gd2)" opacity=".4" stroke-linecap="round" stroke-linejoin="round" stroke-width="8"/>
  <path d="m124 62.1484-101.992 41.8516h101.992z" fill="#334545"/>
  <g style="opacity: .4">
    <path d="m124 100.797-7.79688 3.20312h7.79688z" opacity=".6" />
    <path d="m77.3594 100.609-1.92969 3.39062h16.7969z" opacity=".3" />
    <path d="m114.828 94.8984-22.1797 9.10156h16.9922z" opacity=".6" />
    <path d="m99.6875 91.4531-22.3281 9.15625 14.8672 3.39062h.31252z" opacity=".5" />
    <path d="m99.6875 91.4531-7.14844 12.5469h.10936l22.1797-9.10156z" opacity=".7" />
    <path d="m77.3594 100.609-8.25781 3.39062h6.32812z" opacity=".4" />
    <path d="m47.0781 93.7109-5.85937 10.2891h4.34375l16.6563-6.83594z" opacity=".6" />
    <path d="m62.2206 97.1628 22.3293-9.16342-7.18914 12.6137z" opacity=".3" />
    <path d="m62.2188 97.1641-16.6563 6.83594h12.7578z" opacity=".4" />
    <path d="m62.2188 97.1641-3.89844 6.83594h10.7813l8.25781-3.39062z" opacity=".5" />
    <path d="m47.0805 93.7125 22.3293-9.16343-7.18915 12.6137z" opacity=".5" />
    <path d="m84.5499 87.9993-22.3293 9.16343 7.18915-12.6137z" opacity=".4" />
    <path d="m99.69 91.4496-22.3293 9.16343 7.18914-12.6137z" opacity=".75" />
    <path d="m47.0781 93.7109-22.3281 9.16406 4.92969 1.125h11.5391z" opacity=".4" />
    <path d="m24.75 102.875-.640625 1.125h5.57031z" opacity=".6" />
    <path d="m99.69 91.4496 22.3293-9.16342-7.18915 12.6137z" opacity=".6" />
    <path d="m124 71.8125-17.1172 7.02344 15.1328 3.45313 1.98438-3.47656z" opacity=".6" />
    <path d="m84.5499 87.9994 22.3293-9.16343-7.18914 12.6137z" opacity=".3" />
    <path d="m122.019 82.2862-22.3293 9.16343 7.18914-12.6137z" opacity=".4" />
    <path d="m124 81.4766-1.98438.8125 1.98438.453124z" opacity=".6" />
    <path d="m122.016 82.2891-7.1875 12.6094 9.17188-3.76562v-8.39062z" opacity=".4" />
    <path d="m69.4098 84.5491 22.3293-9.16343-7.18915 12.6137z" opacity=".5" />
    <path d="m114.828 94.8984-5.1875 9.10156h6.5625l7.79688-3.20312v-3.80469z" opacity=".5" />
    <path d="m124 91.1328-9.17188 3.76562 9.17188 2.09375z" opacity=".75" />
    <path d="m91.739 75.3857 22.3293-9.16342-7.18915 12.6137z" opacity=".4" />
    <path d="m106.879 78.8359-22.3293 9.16343 7.18915-12.6137z" opacity=".6" />
    <path d="m114.07 66.2188-7.1875 12.6172 17.1172-7.02344v-3.32812z" opacity=".75" />
    <path d="m124 62.1484-9.92969 4.07032 9.92969 2.26562z" opacity=".5" />
    <path d="m124 78.8125-1.98438 3.47656 1.98438-.8125z" opacity=".6" />
    <path d="m124 62.1484-101.992 41.8516h4.88281l97.1094-39.8516z" opacity=".4"/>
  </g>
  <path d="m6 16c-1.108 0-2 .892-2 2v37.9297l4.52344-2.29688 24.3906-5.78906 3.05469.117188 88.0312 18.3047v-48.2656c0-1.108-.892-2-2-2z"/>
  <path d="m6 16c-1.108 0-2 .892-2 2v37.9297l4.52344-2.29688 24.3906-5.78906 3.05469.117188 88.0312 18.3047v-48.2656c0-1.108-.892-2-2-2z" class="ColorScheme-Highlight" fill="currentColor" opacity=".6"/>
  <path d="m6 16c-1.108 0-2 .892-2 2v37.9297l4.52344-2.29688 24.3906-5.78906 3.05469.117188 88.0312 18.3047v-48.2656c0-1.108-.892-2-2-2z" class="ColorScheme-NeutralText" fill="currentColor" opacity=".15"/>
  <path d="m6 16c-1.108 0-2 .892-2 2v37.9297l4.52344-2.29688 24.3906-5.78906 3.05469.117188 88.0312 3.33594v-33.2969c0-1.108-.892-2-2-2z" class="ColorScheme-NeutralText" fill="currentColor" opacity=".15"/>
  <path d="m6 16c-1.108 0-2 .892-2 2v37.9297l4.52344-2.29688 115.477-35.3672v-.265625c0-1.108-.892-2-2-2z" class="ColorScheme-NeutralText" fill="currentColor" opacity=".15"/>
  <path d="m6 16c-1.108 0-2 .892-2 2v37.9297l62.7891-39.9297z" class="ColorScheme-NeutralText" fill="currentColor" opacity=".15"/>
  <path d="m62.7656 16-58.7656 37.8828v2.04688l4.51562-2.29688 24.3906-5.78906 3.07031.117188 88.0234 18.3047v-1.85938l-77.0938-16.0312 77.0938 2.92188v-1.82031l-91.2621-3.24714 91.2621-27.9618v-.267578c0-.578511-.2466-1.09446-.63672-1.45898l-112.951 35.319 56.377-35.86z" fill="#fffefc" opacity=".15"/>
  <path d="m46.9062 48.375-10.9297-.414062 88.0234 18.3047v-14.9687z" fill="url(#gp2)" opacity=".6"/>
  
  <!-- panel -->
  <path d="m4 104v6c0 1.108.892 2 2 2h116c1.108 0 2.18215-.90708 2-2v-6z" class="ColorScheme-Background" fill="currentColor" opacity=".8" />
  <rect class="ColorScheme-Background" fill="currentColor" x="4" y="104" width="120" height=".5" opacity=".2" />
  <rect fill="url(#gd4)" x="4" y="100" width="120" height="4" opacity=".2" />
  
  <!-- panel buttons -->
  <rect class="ColorScheme-Text" fill="currentColor" x="111" y="107" width="9" height="2" ry="1" />
  <rect class="ColorScheme-Text" fill="currentColor" x="107" y="107" width="2" height="2" ry="1" />
  <rect class="ColorScheme-Text" fill="currentColor" x="7" y="106" width="4" height="4" ry="2" />
  
  <!-- top highlight -->
  <path d="m4 19v-1c0-1.108.892-2 2-2h116c1.108 0 2 .89201 2 2v1c0-1.10799-.892-2-2-2h-116c-1.108 0-2 .892-2 2z" fill="#fff" opacity=".1" />
  <path d="m4 18.5v-.5c0-1.108.892-2 2-2h116c1.108 0 2 .89201 2 2v.5c0-1.10799-.892-2-2-2h-116c-1.108 0-2 .892-2 2z" fill="#fff" opacity=".1" />
  
  
  <!-- bottom shadow/highlight -->
  <path class="ColorScheme-Text" fill="currentColor" d="m4 109v1c0 1.108.892 2 2 2h116c1.108 0 2-.89201 2-2v-1c0 1.10799-.892 2-2 2h-116c-1.108 0-2-.892-2-2z" opacity=".1" />
  <path class="ColorScheme-Text" fill="currentColor" d="m4 109.5v.5c0 1.108.892 2 2 2h116c1.108 0 2-.89201 2-2v-.5c0 1.10799-.892 2-2 2h-116c-1.108 0-2-.892-2-2z" opacity=".1" />
</svg>
