<?xml version="1.0" encoding="UTF-8" standalone="no"?>
<svg
   width="48"
   height="48"
   version="1.1"
   id="svg47"
   sodipodi:docname="document.48.svg"
   inkscape:version="1.1.1 (1:1.1+202109281949+c3084ef5ed)"
   xmlns:inkscape="http://www.inkscape.org/namespaces/inkscape"
   xmlns:sodipodi="http://sodipodi.sourceforge.net/DTD/sodipodi-0.dtd"
   xmlns:xlink="http://www.w3.org/1999/xlink"
   xmlns="http://www.w3.org/2000/svg"
   xmlns:svg="http://www.w3.org/2000/svg">
  <sodipodi:namedview
     id="namedview49"
     pagecolor="#ffffff"
     bordercolor="#666666"
     borderopacity="1.0"
     inkscape:pageshadow="2"
     inkscape:pageopacity="0.0"
     inkscape:pagecheckerboard="0"
     showgrid="true"
     inkscape:zoom="5.6568543"
     inkscape:cx="1.2374369"
     inkscape:cy="18.915106"
     inkscape:window-width="1920"
     inkscape:window-height="1017"
     inkscape:window-x="0"
     inkscape:window-y="0"
     inkscape:window-maximized="1"
     inkscape:current-layer="svg47">
    <inkscape:grid
       type="xygrid"
       id="grid1071" />
  </sodipodi:namedview>
  <defs
     id="defs20">
    <style
       type="text/css"
       id="current-color-scheme">
        .ColorScheme-Text           { color:#fff; }
        .ColorScheme-Background     { color:#111; }
        .ColorScheme-Highlight      { color:#3daefd; }
        .ColorScheme-ViewBackground { color:#000; }
        .ColorScheme-PositiveText   { color:#27ae60; }
        .ColorScheme-NeutralText    { color:#f67400; }
        .ColorScheme-NegativeText   { color:#da4453; }
    </style>
    <style
       type="text/css"
       id="extended-color-scheme">
        .ExScheme-Black     { color:#172525; }
        .ExScheme-White     { color:#fcfcfc; }
        .ExScheme-Grey-1    { color:#cfd5d5; }
        .ExScheme-Grey-2    { color:#909c9c; }
        .ExScheme-Grey-3    { color:#536161; }
        .ExScheme-Red-1     { color:#ffafa5; }
        .ExScheme-Red-2     { color:#bf4231; }
        .ExScheme-Red-3     { color:#4d2f2b; }
        .ExScheme-Green-1   { color:#abf9c7; }
        .ExScheme-Green-2   { color:#3bb566; }
        .ExScheme-Green-3   { color:#377d50; }
        .ExScheme-Blue-1    { color:#abdaf9; }
        .ExScheme-Blue-2    { color:#3daefd; }
        .ExScheme-Blue-3    { color:#2b3c4d; }
        .ExScheme-Yellow-1  { color:#faffa5; }
        .ExScheme-Yellow-2  { color:#cac726; }
        .ExScheme-Yellow-3  { color:#4b4d2b; }
        .ExScheme-Orange-1  { color:#ffdaa5; }
        .ExScheme-Orange-2  { color:#ff9701; }
        .ExScheme-Orange-3  { color:#4d372b; }
        .ExScheme-Brown-1   { color:#e9d6bb; }
        .ExScheme-Brown-2   { color:#997657; }
        .ExScheme-Brown-3   { color:#433a35; }
        .ExScheme-Purple-1  { color:#e2abf9; }
        .ExScheme-Purple-2  { color:#b401ff; }
        .ExScheme-Purple-3  { color:#432b4d; }
        .ExScheme-Cyan-1    { color:#b2f2e6; }
        .ExScheme-Cyan-2    { color:#31bfa6; }
        .ExScheme-Cyan-3    { color:#2b4d47; }
        .ExScheme-Magenta-1 { color:#f8a6d8; }
        .ExScheme-Magenta-2 { color:#f00091; }
        .ExScheme-Magenta-3 { color:#770048; }
    </style>
    <linearGradient
       id="gradientDark">
      <stop
         stop-opacity="1"
         offset="0"
         stop-color="#000"
         id="stop4" />
      <stop
         stop-opacity="0"
         offset="1"
         stop-color="#000"
         id="stop6" />
    </linearGradient>
    <linearGradient
       id="gradientLight">
      <stop
         stop-opacity="1"
         offset="0"
         stop-color="#fff"
         id="stop9" />
      <stop
         stop-opacity="0"
         offset="1"
         stop-color="#fff"
         id="stop11" />
    </linearGradient>
    <style
       type="text/css"
       class="toggle-enable-crease"
       id="style14">
        .folder-crease { display: none; }
    </style>
    <style
       type="text/css"
       class="toggle-manilla-folders"
       id="style16">
        .folder-manilla { display: none; }
    </style>
    <radialGradient
       xlink:href="#gradientLight"
       id="gl1"
       cx="0.5"
       cy="0"
       r="1" />
    <linearGradient
       xlink:href="#gradientDark"
       id="gd1"
       x1="0"
       y1="1"
       x2="0"
       y2="0.5" />
    <radialGradient
       inkscape:collect="always"
       xlink:href="#gradientLight"
       id="radialGradient4483-3"
       cx="5.9412994"
       cy="25.168135"
       fx="5.9412994"
       fy="25.168135"
       r="26"
       gradientUnits="userSpaceOnUse"
       gradientTransform="matrix(0,1.5395904,-1.9230769,0,22.400259,-5.176518)" />
    <radialGradient
       inkscape:collect="always"
       xlink:href="#linearGradient5024"
       id="radialGradient482235-8"
       cx="3.999999"
       cy="32"
       fx="3.999999"
       fy="32"
       r="22"
       gradientTransform="matrix(0,2.5454546,-2.6363635,0,156.36364,-8.18182)"
       gradientUnits="userSpaceOnUse" />
    <linearGradient
       inkscape:collect="always"
       id="linearGradient5024">
      <stop
         style="stop-color:#eef8ff;stop-opacity:1;"
         offset="0"
         id="stop5020" />
      <stop
         style="stop-color:#eef8ff;stop-opacity:0;"
         offset="1"
         id="stop5022" />
    </linearGradient>
  </defs>
  <g
     id="g928"
     transform="translate(50)">
    <path
       id="primary-color"
       style="fill:#3daefd;fill-opacity:1;stroke:none;stroke-width:1;stroke-linecap:round;stroke-opacity:0;-inkscape-stroke:none;paint-order:stroke fill markers;stop-color:#000000"
       d="m -44,4 c -1.108,0 -2,0.892 -2,2 v 36 c 0,1.108 0.892,2 2,2 h 36 c 1.108,0 2,-0.892 2,-2 V 6 C -6,4.892 -6.892,4 -8,4 Z" />
    <path
       id="rect2310-2-5-3"
       style="opacity:0.1;fill:#ffffff;fill-opacity:1;stroke:none;stroke-width:1;stroke-linecap:round;stroke-opacity:0;-inkscape-stroke:none;paint-order:stroke fill markers;stop-color:#000000"
       d="m -44,4 c -1.108,0 -2,0.892 -2,2 v 36 c 0,1.108 0.892,2 2,2 h 36 c 1.108,0 2,-0.892 2,-2 V 6 C -6,4.892 -6.892,4 -8,4 h -5 v 21 c 0,0.554 -0.446,1 -1,1 h -3 c -0.554,0 -1.026351,-0.446627 -1,-1 V 4 Z"
       sodipodi:nodetypes="sssssssscsssccs" />
    <rect
       style="opacity:1;fill:#ffcc00;fill-opacity:1;stroke:none;stroke-width:1.5;stroke-linecap:round;stroke-opacity:0;-inkscape-stroke:none;paint-order:stroke fill markers;stop-color:#000000"
       id="rect1153-2"
       width="24"
       height="24"
       x="-44"
       y="18" />
    <path
       id="rect2310-2-5"
       style="opacity:0.2;fill:url(#radialGradient4483-3);fill-opacity:1;stroke:none;stroke-width:1;stroke-linecap:round;stroke-opacity:0;-inkscape-stroke:none;paint-order:stroke fill markers;stop-color:#000000"
       d="m -44,4 c -1.108,0 -2,0.892 -2,2 v 36 c 0,1.108 0.892,2 2,2 h 36 c 1.108,0 2,-0.892 2,-2 V 6 C -6,4.892 -6.892,4 -8,4 h -5 v 21 c 0,0.554 -0.446,1 -1,1 h -3 c -0.554,0 -0.973649,-0.446627 -1,-1 V 4 Z"
       sodipodi:nodetypes="sssssssscsssccs" />
    <path
       id="rect4145"
       style="opacity:0.1;fill:#ffffff;fill-opacity:1;stroke:none;stroke-width:2;stroke-linecap:round;stroke-opacity:0;-inkscape-stroke:none;paint-order:stroke fill markers;stop-color:#000000"
       d="m -18,25 v 1 c 0,0.554 0.446,1 1,1 h 3 c 0.554,0 1,-0.446 1,-1 v -1 c 0,0.554 -0.446,1 -1,1 h -3 c -0.554,0 -1,-0.446 -1,-1 z"
       sodipodi:nodetypes="csssscssc" />
    <path
       id="rect4145-7"
       style="opacity:0.2;fill:#ffffff;fill-opacity:1;stroke:none;stroke-width:2;stroke-linecap:round;stroke-opacity:0;-inkscape-stroke:none;paint-order:stroke fill markers;stop-color:#000000"
       d="m -18,25 v 0.5 c 0,0.554 0.446,1 1,1 h 3 c 0.554,0 1,-0.446 1,-1 V 25 c 0,0.554 -0.446,1 -1,1 h -3 c -0.554,0 -1,-0.446 -1,-1 z"
       sodipodi:nodetypes="csssscssc" />
    <path
       id="rect1143"
       style="opacity:0.4;fill:#000000;fill-opacity:1;stroke:none;stroke-width:2;stroke-linecap:round;stroke-opacity:0;-inkscape-stroke:none;paint-order:stroke fill markers;stop-color:#000000"
       d="m -18,4 v 21 c 0,0.554 0.446,1 1,1 h 3 c 0.554,0 1,-0.446 1,-1 V 4 h -1 c 0,0.554 -0.446,1 -1,1 h -1 c -0.554,0 -1,-0.446 -1,-1 z m 2,2 h 1 c 0.554,0 1,0.446 1,1 v 3 c 0,0.554 -0.446,1 -1,1 h -1 c -0.554,0 -1,-0.446 -1,-1 V 7 c 0,-0.554 0.446,-1 1,-1 z m 0.474609,2 C -15.790305,8.0133421 -16,8.2316563 -16,8.5 v 1 c 0,0.277 0.223,0.5 0.5,0.5 0.277,0 0.500001,-0.223 0.5,-0.5 v -1 C -15,8.223 -15.223,8 -15.5,8 c -0.0087,0 -0.01689,-4.304e-4 -0.02539,0 z M -17,12 h 1.5 l -1.5,1 1.5,1 -1.5,1 1.5,1 -1.5,1 1.5,1 -1.5,1 1.5,1 -1.5,1 1.5,1 -1.5,1 h 1.5 l 1.5,-1 -1.5,-1 1.5,-1 -1.5,-1 1.5,-1 -1.5,-1 1.5,-1 -1.5,-1 1.5,-1 -1.5,-1 1.5,-1 v 2 2 2 2 2 2 1 h -3 v -2 -2 -2 -2 -2 -2 z" />
    <path
       id="path3979"
       style="opacity:0.6;fill:#fdfdfd;fill-opacity:1;stroke:none;stroke-width:0.866025px;stroke-linecap:butt;stroke-linejoin:miter;stroke-opacity:1"
       d="m -17,4 c 0,0.554 0.446,1 1,1 h 1 c 0.554,0 1,-0.446 1,-1 z m 1,2 c -0.554,0 -1,0.446 -1,1 v 3 c 0,0.554 0.446,1 1,1 h 1 c 0.554,0 1,-0.446 1,-1 V 7 c 0,-0.554 -0.446,-1 -1,-1 z m 0.474609,2 c 0.0085,-4.304e-4 0.01673,0 0.02539,0 0.277,0 0.5,0.223 0.5,0.5 v 1 C -15,9.777 -15.223,10 -15.5,10 -15.777,10 -16,9.777 -16,9.5 v -1 c 0,-0.2683437 0.209695,-0.4866579 0.474609,-0.5 z M -17,12 v 1 l 1.5,-1 z m 0,1 v 2 l 1.5,-1 z m 0,2 v 2 l 1.5,-1 z m 0,2 v 2 l 1.5,-1 z m 0,2 v 2 l 1.5,-1 z m 0,2 v 2 l 1.5,-1 z m 0,2 v 2 h 3 v -1 -2 l -1.5,1 z m 3,-1 v -2 l -1.5,1 z m 0,-2 v -2 l -1.5,1 z m 0,-2 v -2 l -1.5,1 z m 0,-2 v -2 l -1.5,1 z m 0,-2 v -2 l -1.5,1 z" />
    <path
       id="rect6569"
       style="opacity:0.1;fill:#000000;fill-opacity:1;stroke:none;stroke-width:2;stroke-linecap:round;stroke-linejoin:round;stroke-opacity:0;-inkscape-stroke:none;paint-order:stroke fill markers;stop-color:#000000"
       d="m -46,41 v 1 c 0,1.108 0.892,2 2,2 h 36 c 1.108,0 2,-0.892 2,-2 v -1 c 0,1.108 -0.892,2 -2,2 h -36 c -1.108,0 -2,-0.892 -2,-2 z" />
    <path
       id="rect6569-5"
       style="opacity:0.2;fill:#000000;fill-opacity:1;stroke:none;stroke-width:2;stroke-linecap:round;stroke-linejoin:round;stroke-opacity:0;-inkscape-stroke:none;paint-order:stroke fill markers;stop-color:#000000"
       d="M -46,41.5 V 42 c 0,1.108 0.892,2 2,2 h 36 c 1.108,0 2,-0.892 2,-2 v -0.5 c 0,1.108 -0.892,2 -2,2 h -36 c -1.108,0 -2,-0.892 -2,-2 z" />
    <path
       id="rect6569-3"
       style="opacity:0.1;fill:#ffffff;fill-opacity:1;stroke:none;stroke-width:2;stroke-linecap:round;stroke-linejoin:round;stroke-opacity:0;-inkscape-stroke:none;paint-order:stroke fill markers;stop-color:#000000"
       d="m -44,4 c -1.108,0 -2,0.892 -2,2 v 1 c 0,-1.108 0.892,-2 2,-2 h 26 V 4 Z m 31,0 v 1 h 5 c 1.108,0 2,0.892 2,2 V 6 C -6,4.892 -6.892,4 -8,4 Z"
       sodipodi:nodetypes="sscsccsccscssc" />
    <path
       id="rect6569-5-6"
       style="opacity:0.2;fill:#ffffff;fill-opacity:1;stroke:none;stroke-width:2;stroke-linecap:round;stroke-linejoin:round;stroke-opacity:0;-inkscape-stroke:none;paint-order:stroke fill markers;stop-color:#000000"
       d="m -44,4 c -1.108,0 -2,0.892 -2,2 v 0.5 c 0,-1.108 0.892,-2 2,-2 h 26 V 4 Z m 31,0 v 0.5 h 5 c 1.108,0 2,0.892 2,2 V 6 C -6,4.892 -6.892,4 -8,4 Z"
       sodipodi:nodetypes="sscsccsccscssc" />
  </g>
  <path
     id="rect875-27-98"
     style="fill:#3daefd;stroke-linecap:round;stroke-linejoin:round;stroke-opacity:0.74902;paint-order:markers stroke fill;stop-color:#000000"
     d="m 52,2 c -1.108,0 -2,0.892 -2,2 v 52 c 0,1.108 0.892,2 2,2 h 40 c 1.108,0 2,-0.892 2,-2 V 16 L 85,11 80,2 Z"
     sodipodi:nodetypes="sssssscccs" />
  <path
     id="rect875-27-9-4"
     style="opacity:0.1;fill:#000508;fill-opacity:1;stroke-linecap:round;stroke-linejoin:round;stroke-opacity:0.74902;paint-order:markers stroke fill;stop-color:#000000"
     d="m 52,2 c -1.108,0 -2,0.892 -2,2 v 52 c 0,1.108 0.892,2 2,2 h 40 c 1.108,0 2,-0.892 2,-2 V 16 L 85,11 80,2 Z"
     sodipodi:nodetypes="sssssscccs" />
  <path
     id="tint-inverse-5-4"
     style="opacity:0.1;fill:#0e0e0e;fill-opacity:1;stroke-linecap:round;stroke-linejoin:round;stroke-opacity:0.74902;paint-order:markers stroke fill;stop-color:#000000"
     d="m 52,2 c -1.108,0 -2,0.892 -2,2 v 52 c 0,1.108 0.892,2 2,2 h 40 c 1.108,0 2,-0.892 2,-2 V 16 L 85,11 80,2 Z"
     sodipodi:nodetypes="sssssscccs" />
  <path
     style="color:#000000;opacity:0.75;fill:#ffffff;fill-opacity:1;stroke-width:2;-inkscape-stroke:none"
     d="m 61,20.00001 v 1 h 22 v -1 z m 0,3 v 1 h 22 v -1 z m 0,3 v 1 h 11 v -1 z m 0,4 v 1 h 22 v -1 z m 0,3 v 1 h 9 v -1 z m 0,2 v 1 h 5 v -1 z m 0,3 v 1 h 10 v -1 z m 0,3 v 1 h 6 v -1 z"
     id="path236793-2-1"
     sodipodi:nodetypes="cccccccccccccccccccccccccccccccccccccccc" />
  <path
     id="rect875-5-8-9"
     style="opacity:0.1;fill:#ffffff;fill-opacity:1;stroke-linecap:round;stroke-linejoin:round;stroke-opacity:0.74902;paint-order:markers stroke fill;stop-color:#000000"
     d="M 52,2 C 50.892,2 50,2.892 50,4 V 5 C 50,3.892 50.892,3 52,3 H 80 V 2 Z" />
  <path
     id="rect875-5-9-6-6"
     style="opacity:0.1;fill:#ffffff;fill-opacity:1;stroke-linecap:round;stroke-linejoin:round;stroke-opacity:0.74902;paint-order:markers stroke fill;stop-color:#000000"
     d="m 52,2 c -1.108,0 -2,0.892 -2,2 v 0.5 c 0,-1.108 0.892,-2 2,-2 H 80 V 2 Z" />
  <path
     id="rect875-2-6-8"
     style="opacity:0.1;fill:#ffffff;fill-opacity:1;stroke-linecap:round;stroke-linejoin:round;stroke-opacity:0.74902;paint-order:markers stroke fill;stop-color:#000000"
     d="m 50,55 v 1 c 0,1.108 0.892,2 2,2 h 40 c 1.108,0 2,-0.892 2,-2 v -1 c 0,1.108 -0.892,2 -2,2 H 52 c -1.108,0 -2,-0.892 -2,-2 z" />
  <path
     id="rect875-2-9-0-0"
     style="opacity:0.1;fill:#ffffff;fill-opacity:1;stroke-linecap:round;stroke-linejoin:round;stroke-opacity:0.74902;paint-order:markers stroke fill;stop-color:#000000"
     d="M 50,55.5 V 56 c 0,1.108 0.892,2 2,2 h 40 c 1.108,0 2,-0.892 2,-2 v -0.5 c 0,1.108 -0.892,2 -2,2 H 52 c -1.108,0 -2,-0.892 -2,-2 z" />
  <path
     id="rect875-1-0-9"
     style="opacity:0.2;fill:url(#radialGradient482235-8);fill-opacity:1;stroke-linecap:round;stroke-linejoin:round;stroke-opacity:0.74902;paint-order:markers stroke fill;stop-color:#000000"
     d="m 52,2 c -1.108,0 -2,0.892 -2,2 v 52 c 0,1.108 0.892,2 2,2 h 40 c 1.108,0 2,-0.892 2,-2 V 16 L 85,11 80,2 Z"
     sodipodi:nodetypes="sssssscccs" />
  <path
     id="path4193-3-9-3"
     style="fill:#3daefd;fill-rule:evenodd"
     d="m 80,2 v 12 c 0,1.108 0.892,2 2,2 h 12 z" />
  <path
     id="tint-inverse2-8-6"
     style="opacity:0.1;fill:#0c0c0c;fill-opacity:1;fill-rule:evenodd"
     d="m 80,2 v 12 c 0,1.108 0.892,2 2,2 h 12 z" />
  <path
     id="path4193-3-6-12-3"
     style="opacity:0.4;fill:#ffffff;fill-opacity:1;fill-rule:evenodd"
     d="m 80,2 v 12 c 0,1.108 0.892,2 2,2 h 12 z" />
  <path
     id="path4193-3-6-6-6-8"
     style="opacity:0.2;fill:#000000;fill-opacity:1;fill-rule:evenodd"
     d="m 80,14 v 1 c 0,1.108 0.892,2 2,2 H 94 V 16 H 82 c -1.108,0 -2,-0.892 -2,-2 z" />
  <path
     id="path4193-3-6-6-2-94-9"
     style="opacity:0.2;fill:#000000;fill-opacity:1;fill-rule:evenodd"
     d="m 80,14 v 0.5 c 0,1.108 0.892,2 2,2 H 94 V 16 H 82 c -1.108,0 -2,-0.892 -2,-2 z" />
  <g
     id="g232580-2-50"
     transform="translate(40,-2)">
    <path
       style="opacity:0.1;fill:#151515;fill-opacity:1;stroke:none;stroke-width:1px;stroke-linecap:butt;stroke-linejoin:miter;stroke-opacity:1"
       d="M 40,5 V 4 l 14,14 h -1 z"
       id="path2976-82-1" />
    <path
       style="opacity:0.1;fill:#151515;fill-opacity:1;stroke:none;stroke-width:1px;stroke-linecap:butt;stroke-linejoin:miter;stroke-opacity:1"
       d="M 40,4.5 53.5,18 H 54 L 40,4 Z"
       id="path3077-7-7" />
  </g>
  <rect
     style="opacity:0.6;fill:#ffffff;fill-opacity:1;stroke:none;stroke-width:1;stroke-linecap:round;stroke-linejoin:round;stroke-miterlimit:4;stroke-dasharray:none;stroke-opacity:1;paint-order:fill markers stroke;stop-color:#000000"
     id="rect479456-19"
     width="9"
     height="9"
     x="74"
     y="33" />
  <path
     id="rect479456-6-8"
     style="opacity:0.4;fill:#ffffff;fill-opacity:1;stroke:none;stroke-width:1;stroke-linecap:round;stroke-linejoin:round;stroke-miterlimit:4;stroke-dasharray:none;stroke-opacity:1;paint-order:fill markers stroke;stop-color:#000000"
     d="m 74,33 v 9 h 9 v -9 z m 0.5,0.5 h 8 v 8 h -8 z" />
</svg>
