<svg width="128" height="128" version="1.1" xmlns:xlink="http://www.w3.org/1999/xlink" xmlns="http://www.w3.org/2000/svg" xmlns:svg="http://www.w3.org/2000/svg">
  <defs>
    <style type="text/css" id="current-color-scheme">
        .ColorScheme-Text           { color:#fff; }
        .ColorScheme-Background     { color:#111; }
        .ColorScheme-Highlight      { color:#3daefd; }
        .ColorScheme-ViewBackground { color:#000; }
        .ColorScheme-PositiveText   { color:#27ae60; }
        .ColorScheme-NeutralText    { color:#f67400; }
        .ColorScheme-NegativeText   { color:#da4453; }
    </style>
    <style type="text/css" id="extended-color-scheme">
        .ExScheme-Black     { color:#172525; }
        .ExScheme-White     { color:#fcfcfc; }
        .ExScheme-Grey-1    { color:#cfd5d5; }
        .ExScheme-Grey-2    { color:#909c9c; }
        .ExScheme-Grey-3    { color:#536161; }
        .ExScheme-Red-1     { color:#ffafa5; }
        .ExScheme-Red-2     { color:#bf4231; }
        .ExScheme-Red-3     { color:#4d2f2b; }
        .ExScheme-Green-1   { color:#abf9c7; }
        .ExScheme-Green-2   { color:#3bb566; }
        .ExScheme-Green-3   { color:#377d50; }
        .ExScheme-Blue-1    { color:#abdaf9; }
        .ExScheme-Blue-2    { color:#3daefd; }
        .ExScheme-Blue-3    { color:#2b3c4d; }
        .ExScheme-Yellow-1  { color:#faffa5; }
        .ExScheme-Yellow-2  { color:#cac726; }
        .ExScheme-Yellow-3  { color:#4b4d2b; }
        .ExScheme-Orange-1  { color:#ffdaa5; }
        .ExScheme-Orange-2  { color:#ff9701; }
        .ExScheme-Orange-3  { color:#4d372b; }
        .ExScheme-Brown-1   { color:#e9d6bb; }
        .ExScheme-Brown-2   { color:#997657; }
        .ExScheme-Brown-3   { color:#433a35; }
        .ExScheme-Purple-1  { color:#e2abf9; }
        .ExScheme-Purple-2  { color:#b401ff; }
        .ExScheme-Purple-3  { color:#432b4d; }
        .ExScheme-Cyan-1    { color:#b2f2e6; }
        .ExScheme-Cyan-2    { color:#31bfa6; }
        .ExScheme-Cyan-3    { color:#2b4d47; }
        .ExScheme-Magenta-1 { color:#f8a6d8; }
        .ExScheme-Magenta-2 { color:#f00091; }
        .ExScheme-Magenta-3 { color:#770048; }
    </style>
    <linearGradient id="gradientDark">
      <stop stop-opacity="1" offset="0" stop-color="#000" />
      <stop stop-opacity="0" offset="1" stop-color="#000" />
    </linearGradient>
    <linearGradient id="gradientLight">
      <stop stop-opacity="1" offset="0" stop-color="#fff" />
      <stop stop-opacity="0" offset="1" stop-color="#fff" />
    </linearGradient>
    <style type="text/css" class="toggle-enable-crease">
        .folder-crease { display: none; }
    </style>
    <style type="text/css" class="toggle-manilla-folders">
        .folder-manilla { display: none; }
    </style>
    <radialGradient
       xlink:href="#gradientLight"
       id="gl1"
       cx="0.5"
       cy="0"
       r="1" />
    <linearGradient
       xlink:href="#gradientDark"
       id="gd1"
       x1="0"
       y1="1"
       x2="0"
       y2="0.5" />
  </defs>
  <path
     class="folder-manilla-placeholder ExScheme-Brown-1"
     fill="currentColor"
     d="m 20,16 c -3.324,0 -6,2.676 -6,6 v 14 c -3.324,0 -6,2.676 -6,6 v 64 c 0,3.324 2.676,6 6,6 h 100 c 3.324,0 6,-2.676 6,-6 V 52 42 38 c 0,-3.324 -2.676,-6 -6,-6 v -6 c 0,-3.324 -2.676,-6 -6,-6 H 56 c -8,0 -8,-4 -14,-4 z" />
  <path
     id="primary-color"
     class="toggle-manilla-folders ColorScheme-Highlight"
     fill="currentColor"
     d="m 20,16 c -3.324,0 -6,2.676 -6,6 v 14 c -3.324,0 -6,2.676 -6,6 v 64 c 0,3.324 2.676,6 6,6 h 100 c 3.324,0 6,-2.676 6,-6 V 52 42 38 c 0,-3.324 -2.676,-6 -6,-6 v -6 c 0,-3.324 -2.676,-6 -6,-6 H 56 c -8,0 -8,-4 -14,-4 z" />
  <path
     class="ColorScheme-Text"
     fill="currentColor"
     opacity="0.1"
     d="m 20,16 c -3.324,0 -6,2.676 -6,6 v 14 c -3.324,0 -6,2.676 -6,6 v 64 c 0,3.324 2.676,6 6,6 h 100 c 3.324,0 6,-2.676 6,-6 V 52 42 38 c 0,-3.324 -2.676,-6 -6,-6 v -6 c 0,-3.324 -2.676,-6 -6,-6 H 56 c -8,0 -8,-4 -14,-4 z" />
  <rect
     id="emblem"
     fill="#fc0"
     width="64"
     height="64"
     x="32"
     y="42" />
  <path
     fill="#000"
     opacity="0.4"
     d="m 20,16 c -3.324,0 -6,2.676 -6,6 v 14 h 26 c 8,0 8,-4 14,-4 h 60 v -6 c 0,-3.324 -2.676,-6 -6,-6 H 56 c -8,0 -8,-4 -14,-4 z" />
  <path
     class="toggle-flat-design"
     fill="url(#gd1)"
     opacity="0.2"
     d="m 20,16 c -3.324,0 -6,2.676 -6,6 v 14 h 26 c 8,0 8,-4 14,-4 h 60 v -6 c 0,-3.324 -2.676,-6 -6,-6 H 56 c -8,0 -8,-4 -14,-4 z" />
  <path
     class="toggle-flat-design"
     fill="url(#gl1)"
     opacity="0.2"
     d="m 54,32 c -6,0 -6,4 -14,4 H 14 c -3.324,0 -6,2.676 -6,6 v 64 c 0,3.324 2.676,6 6,6 h 100 c 3.324,0 6,-2.676 6,-6 V 52 42 38 c 0,-3.324 -2.676,-6 -6,-6 z" />
  <path
     class="folder-crease-placeholder"
     fill="#000"
     opacity="0.4"
     d="m 8,88 v 4 h 18 c 1.108,0 2,-0.892 2,-2 0,-1.108001 -0.892,-2 -2,-2 z m 94,0 c -1.108,0 -2,0.891999 -2,2 0,1.108 0.892,2 2,2 h 18 v -4 z" />
  <path
     class="ColorScheme-Text"
     fill="currentColor"
     opacity="0.1"
     d="m 8,105 v 1 c 0,3.324 2.676,6 6,6 h 100 c 3.324,0 6,-2.676 6,-6 v -1 c 0,3.324 -2.676,6 -6,6 H 14 c -3.324,0 -6,-2.676 -6,-6 z" />
  <path
     class="ColorScheme-Text"
     fill="currentColor"
     opacity="0.2"
     d="m 8,105.5 v 0.5 c 0,3.324 2.676,6 6,6 h 100 c 3.324,0 6,-2.676 6,-6 v -0.5 c 0,3.324 -2.676,6 -6,6 H 14 c -3.324,0 -6,-2.676 -6,-6 z" />
  <path
     fill="#fff"
     opacity="0.1"
     d="m 54,32 c -6,0 -6,4 -14,4 H 14 c -3.324,0 -6,2.676 -6,6 v 1 c 0,-3.324 2.676,-6 6,-6 h 26 c 8,0 8,-4 14,-4 h 60 c 3.324,0 6,2.676 6,6 v -1 c 0,-3.324 -2.676,-6 -6,-6 z" />
  <path
     fill="#fff"
     opacity="0.2"
     d="m 54,32 c -6,0 -6,4 -14,4 H 14 c -3.324,0 -6,2.676 -6,6 v 0.5 c 0,-3.324 2.676,-6 6,-6 h 26 c 8,0 8,-4 14,-4 h 60 c 3.324,0 6,2.676 6,6 V 38 c 0,-3.324 -2.676,-6 -6,-6 z" />
  <path
     fill="#000"
     opacity="0.1"
     d="m 54,31 c -6,0 -6,4 -14,4 H 14 v 1 h 26 c 8,0 8,-4 14,-4 h 60 v -1 z" />
  <path
     fill="#000"
     opacity="0.2"
     d="m 54,31.5 c -6,0 -6,4 -14,4 H 14 V 36 h 26 c 8,0 8,-4 14,-4 h 60 v -0.5 z" />
</svg>