<svg width="32" height="32" version="1.1" xmlns:xlink="http://www.w3.org/1999/xlink" xmlns="http://www.w3.org/2000/svg" xmlns:svg="http://www.w3.org/2000/svg">
  <defs>
    <style type="text/css" id="current-color-scheme">
        .ColorScheme-Text           { color:#fff; }
        .ColorScheme-Background     { color:#111; }
        .ColorScheme-Highlight      { color:#3daefd; }
        .ColorScheme-ViewBackground { color:#000; }
        .ColorScheme-PositiveText   { color:#27ae60; }
        .ColorScheme-NeutralText    { color:#f67400; }
        .ColorScheme-NegativeText   { color:#da4453; }
    </style>
    <style type="text/css" id="extended-color-scheme">
        .ExScheme-Black     { color:#172525; }
        .ExScheme-White     { color:#fcfcfc; }
        .ExScheme-Grey-1    { color:#cfd5d5; }
        .ExScheme-Grey-2    { color:#909c9c; }
        .ExScheme-Grey-3    { color:#536161; }
        .ExScheme-Red-1     { color:#ffafa5; }
        .ExScheme-Red-2     { color:#bf4231; }
        .ExScheme-Red-3     { color:#4d2f2b; }
        .ExScheme-Green-1   { color:#abf9c7; }
        .ExScheme-Green-2   { color:#3bb566; }
        .ExScheme-Green-3   { color:#377d50; }
        .ExScheme-Blue-1    { color:#abdaf9; }
        .ExScheme-Blue-2    { color:#3daefd; }
        .ExScheme-Blue-3    { color:#2b3c4d; }
        .ExScheme-Yellow-1  { color:#faffa5; }
        .ExScheme-Yellow-2  { color:#cac726; }
        .ExScheme-Yellow-3  { color:#4b4d2b; }
        .ExScheme-Orange-1  { color:#ffdaa5; }
        .ExScheme-Orange-2  { color:#ff9701; }
        .ExScheme-Orange-3  { color:#4d372b; }
        .ExScheme-Brown-1   { color:#e9d6bb; }
        .ExScheme-Brown-2   { color:#997657; }
        .ExScheme-Brown-3   { color:#433a35; }
        .ExScheme-Purple-1  { color:#e2abf9; }
        .ExScheme-Purple-2  { color:#b401ff; }
        .ExScheme-Purple-3  { color:#432b4d; }
        .ExScheme-Cyan-1    { color:#b2f2e6; }
        .ExScheme-Cyan-2    { color:#31bfa6; }
        .ExScheme-Cyan-3    { color:#2b4d47; }
        .ExScheme-Magenta-1 { color:#f8a6d8; }
        .ExScheme-Magenta-2 { color:#f00091; }
        .ExScheme-Magenta-3 { color:#770048; }
    </style>
    <linearGradient id="gradientDark">
      <stop stop-opacity="1" offset="0" stop-color="#000" />
      <stop stop-opacity="0" offset="1" stop-color="#000" />
    </linearGradient>
    <linearGradient id="gradientLight">
      <stop stop-opacity="1" offset="0" stop-color="#fff" />
      <stop stop-opacity="0" offset="1" stop-color="#fff" />
    </linearGradient>
    <style type="text/css" class="toggle-enable-crease">
        .folder-crease { display: none; }
    </style>
    <style type="text/css" class="toggle-manilla-folders">
        .folder-manilla { display: none; }
    </style>
    <radialGradient
       xlink:href="#gradientLight"
       id="gl1"
       cx="0.5"
       cy="0"
       r="1" />
    <linearGradient
       xlink:href="#gradientDark"
       id="gd1"
       x1="0"
       y1="1"
       x2="0"
       y2="0.5" />
  </defs>
  <path
     class="folder-manilla-placeholder ExScheme-Brown-1"
     fill="currentColor"
     d="M 5 4 C 3.892 4 3 4.892 3 6 L 3 13 C 1.892 13 1 14 1 15 L 2 23 L 2 26 C 2 27.108 2.892 28 4 28 L 28 28 C 29.108 28 30 27.108 30 26 L 30 23 L 31 14 C 31 13 30.108 12 29 12 L 29 7 C 29 5.892 28.108 5 27 5 L 13 5 C 12 5 11 4 10 4 L 5 4 z" />
  <path
     id="primary-color"
     class="toggle-manilla-folders ColorScheme-Highlight"
     fill="currentColor"
     d="M 5 4 C 3.892 4 3 4.892 3 6 L 3 13 C 1.892 13 1 14 1 15 L 2 23 L 2 26 C 2 27.108 2.892 28 4 28 L 28 28 C 29.108 28 30 27.108 30 26 L 30 23 L 31 14 C 31 13 30.108 12 29 12 L 29 7 C 29 5.892 28.108 5 27 5 L 13 5 C 12 5 11 4 10 4 L 5 4 z" />
  <path
     class="ColorScheme-Text"
     fill="currentColor"
     opacity="0.1"
     d="M 5 4 C 3.892 4 3 4.892 3 6 L 3 13 C 1.892 13 1 14 1 15 L 2 23 L 2 26 C 2 27.108 2.892 28 4 28 L 28 28 C 29.108 28 30 27.108 30 26 L 30 23 L 31 14 C 31 13 30.108 12 29 12 L 29 7 C 29 5.892 28.108 5 27 5 L 13 5 C 12 5 11 4 10 4 L 5 4 z" />
  <path
     fill="#000"
     opacity="0.4"
     d="M 5,4 C 3.892,4 3,4.892 3,6 v 7 h 7 c 1,0 2,-1 3,-1 H 29 V 7 C 29,5.892 28.108,5 27,5 H 13 C 12,5 11,4 10,4 Z" />
  <path
     class="toggle-flat-design"
     fill="url(#gd1)"
     opacity="0.1"
     d="M 5,4 C 3.892,4 3,4.892 3,6 v 7 h 7 c 1,0 2,-1 3,-1 H 29 V 7 C 29,5.892 28.108,5 27,5 H 13 C 12,5 11,4 10,4 Z" />
  <path
     class="toggle-flat-design"
     fill="url(#gl1)"
     opacity="0.2"
     d="m 3,13 h 7 c 1,0 2,-1 3,-1 h 16 c 1.108,0 2,1 2,2 l -1,9 v 3 c 0,1.108 -0.892,2 -2,2 H 4 C 2.892,28 2,27.108 2,26 V 23 L 1,15 c 0,-1 0.892,-2 2,-2 z" />
  <path
     class="folder-crease-placeholder"
     fill="#000"
     opacity="0.4"
     d="M 1.875 22 L 2 23 L 30 23 L 30.111328 22 L 1.875 22 z " />
  <path
     class="ColorScheme-Text"
     fill="currentColor"
     opacity="0.1"
     d="m 2,25 v 1 c 0,1.108 0.892,2 2,2 h 24 c 1.108,0 2,-0.892 2,-2 v -1 c 0,1.108 -0.892,2 -2,2 H 4 C 2.892,27 2,26.108 2,25 Z" />
  <path
     class="ColorScheme-Text"
     fill="currentColor"
     opacity="0.2"
     d="M 2,25.5 V 26 c 0,1.108 0.892,2 2,2 h 24 c 1.108,0 2,-0.892 2,-2 v -0.5 c 0,1.108 -0.892,2 -2,2 H 4 c -1.108,0 -2,-0.892 -2,-2 z" />
  <path
     fill="#fff"
     opacity="0.2"
     d="M 13 12 C 12 12 11 13 10 13 L 3 13 C 1.892 13 1 14 1 15 L 1.0664062 15.53125 C 1.2890829 14.709742 2.0665926 14 3 14 L 10 14 C 11 14 12 13 13 13 L 29 13 C 29.940837 13 30.723974 13.720978 30.939453 14.550781 L 31 14 C 31 13 30.108 12 29 12 L 13 12 z" />
  <path
     fill="#fff"
     opacity="0.1"
     d="M 13 12 C 12 12 11 13 10 13 L 3 13 C 1.892 13 1 14 1 15 L 1.0273438 15.212891 C 1.1766633 14.317335 1.9984753 13.5 3 13.5 L 10 13.5 C 11 13.5 12 12.5 13 12.5 L 29 12.5 C 30.005897 12.5 30.830573 13.324469 30.974609 14.224609 L 31 14 C 31 13 30.108 12 29 12 L 13 12 z" />
  <path
     fill="#000"
     opacity="0.2"
     d="m 13,11 c -1,0 -2,1 -3,1 H 3 v 1 h 7 c 1,0 2,-1 3,-1 h 16 v -1 z" />
  <path
     fill="#000"
     opacity="0.1"
     d="m 13,11.5 c -1,0 -2,1 -3,1 H 3 V 13 h 7 c 1,0 2,-1 3,-1 h 16 v -0.5 z" />
</svg>
