<svg width="256" height="256" version="1.1" xmlns:xlink="http://www.w3.org/1999/xlink" xmlns="http://www.w3.org/2000/svg" xmlns:svg="http://www.w3.org/2000/svg">
  <defs>
    <style type="text/css" id="current-color-scheme">
        .ColorScheme-Text           { color:#fff; }
        .ColorScheme-Background     { color:#111; }
        .ColorScheme-Highlight      { color:#3daefd; }
        .ColorScheme-ViewBackground { color:#000; }
        .ColorScheme-PositiveText   { color:#27ae60; }
        .ColorScheme-NeutralText    { color:#f67400; }
        .ColorScheme-NegativeText   { color:#da4453; }
    </style>
    <style type="text/css" id="extended-color-scheme">
        .ExScheme-Black     { color:#172525; }
        .ExScheme-White     { color:#fcfcfc; }
        .ExScheme-Grey-1    { color:#cfd5d5; }
        .ExScheme-Grey-2    { color:#909c9c; }
        .ExScheme-Grey-3    { color:#536161; }
        .ExScheme-Red-1     { color:#ffafa5; }
        .ExScheme-Red-2     { color:#bf4231; }
        .ExScheme-Red-3     { color:#4d2f2b; }
        .ExScheme-Green-1   { color:#abf9c7; }
        .ExScheme-Green-2   { color:#3bb566; }
        .ExScheme-Green-3   { color:#377d50; }
        .ExScheme-Blue-1    { color:#abdaf9; }
        .ExScheme-Blue-2    { color:#3daefd; }
        .ExScheme-Blue-3    { color:#2b3c4d; }
        .ExScheme-Yellow-1  { color:#faffa5; }
        .ExScheme-Yellow-2  { color:#cac726; }
        .ExScheme-Yellow-3  { color:#4b4d2b; }
        .ExScheme-Orange-1  { color:#ffdaa5; }
        .ExScheme-Orange-2  { color:#ff9701; }
        .ExScheme-Orange-3  { color:#4d372b; }
        .ExScheme-Brown-1   { color:#e9d6bb; }
        .ExScheme-Brown-2   { color:#997657; }
        .ExScheme-Brown-3   { color:#433a35; }
        .ExScheme-Purple-1  { color:#e2abf9; }
        .ExScheme-Purple-2  { color:#b401ff; }
        .ExScheme-Purple-3  { color:#432b4d; }
        .ExScheme-Cyan-1    { color:#b2f2e6; }
        .ExScheme-Cyan-2    { color:#31bfa6; }
        .ExScheme-Cyan-3    { color:#2b4d47; }
        .ExScheme-Magenta-1 { color:#f8a6d8; }
        .ExScheme-Magenta-2 { color:#f00091; }
        .ExScheme-Magenta-3 { color:#770048; }
    </style>
    <linearGradient id="gradientDark">
      <stop stop-opacity="1" offset="0" stop-color="#000" />
      <stop stop-opacity="0" offset="1" stop-color="#000" />
    </linearGradient>
    <linearGradient id="gradientLight">
      <stop stop-opacity="1" offset="0" stop-color="#fff" />
      <stop stop-opacity="0" offset="1" stop-color="#fff" />
    </linearGradient>
    <style type="text/css" class="toggle-enable-crease">
        .folder-crease { display: none; }
    </style>
    <style type="text/css" class="toggle-manilla-folders">
        .folder-manilla { display: none; }
    </style>
    <radialGradient
       xlink:href="#gradientLight"
       id="gl1"
       cx="0.5"
       cy="0"
       r="1" />
    <linearGradient
       xlink:href="#gradientDark"
       id="gd1"
       x1="0"
       y1="1"
       x2="0"
       y2="0.5" />
  </defs>
  <path
     class="folder-manilla-placeholder ExScheme-Brown-1"
     fill="currentColor"
     d="m 40,32 c -6.648,0 -12,5.352 -12,12 v 28 c -6.648,0 -12,5.352 -12,12 v 128 c 0,6.648 5.352,12 12,12 h 200 c 6.648,0 12,-5.352 12,-12 V 104 84 76 c 0,-6.648 -5.352,-12 -12,-12 V 52 c 0,-6.648 -5.352,-12 -12,-12 H 112 C 96,40 96,32 84,32 Z" />
  <path
     id="primary-color"
     class="toggle-manilla-folders ColorScheme-Highlight"
     fill="currentColor"
     d="m 40,32 c -6.648,0 -12,5.352 -12,12 v 28 c -6.648,0 -12,5.352 -12,12 v 128 c 0,6.648 5.352,12 12,12 h 200 c 6.648,0 12,-5.352 12,-12 V 104 84 76 c 0,-6.648 -5.352,-12 -12,-12 V 52 c 0,-6.648 -5.352,-12 -12,-12 H 112 C 96,40 96,32 84,32 Z" />
  <path
     class="ColorScheme-Text"
     fill="currentColor"
     opacity="0.1"
     d="m 40,32 c -6.648,0 -12,5.352 -12,12 v 28 c -6.648,0 -12,5.352 -12,12 v 128 c 0,6.648 5.352,12 12,12 h 200 c 6.648,0 12,-5.352 12,-12 V 104 84 76 c 0,-6.648 -5.352,-12 -12,-12 V 52 c 0,-6.648 -5.352,-12 -12,-12 H 112 C 96,40 96,32 84,32 Z" />
  <rect
     id="emblem"
     fill="#fc0"
     width="128"
     height="128"
     x="64"
     y="84" />
  <path
     fill="#000"
     opacity="0.4"
     d="m 40,32 c -6.648,0 -12,5.352 -12,12 v 28 h 52 c 16,0 16,-8 28,-8 H 228 V 52 c 0,-6.648 -5.352,-12 -12,-12 H 112 C 96,40 96,32 84,32 Z" />
  <path
     class="toggle-flat-design"
     fill="url(#gd1)"
     opacity="0.2"
     d="m 40,32 c -6.648,0 -12,5.352 -12,12 v 28 h 52 c 16,0 16,-8 28,-8 H 228 V 52 c 0,-6.648 -5.352,-12 -12,-12 H 112 C 96,40 96,32 84,32 Z" />
  <path
     class="toggle-flat-design"
     fill="url(#gl1)"
     opacity="0.2"
     d="M 108,64 C 96,64 96,72 80,72 H 28 c -6.648,0 -12,5.352 -12,12 v 128 c 0,6.648 5.352,12 12,12 h 200 c 6.648,0 12,-5.352 12,-12 V 104 84 76 c 0,-6.648 -5.352,-12 -12,-12 z" />
  <path
     class="folder-crease-placeholder"
     fill="#000"
     opacity="0.4"
     d="m 16,176 v 8 h 36 c 2.216,0 4,-1.784 4,-4 0,-2.216 -1.784,-4 -4,-4 z m 188,0 c -2.216,0 -4,1.784 -4,4 0,2.216 1.784,4 4,4 h 36 v -8 z" />
  <path
     class="ColorScheme-Text"
     fill="currentColor"
     opacity="0.1"
     d="m 16,211 v 1 c 0,6.648 5.352,12 12,12 h 200 c 6.648,0 12,-5.352 12,-12 v -1 c 0,6.648 -5.352,12 -12,12 H 28 c -6.648,0 -12,-5.352 -12,-12 z" />
  <path
     class="ColorScheme-Text"
     fill="currentColor"
     opacity="0.2"
     d="m 16,211.5 v 0.5 c 0,6.648 5.352,12 12,12 h 200 c 6.648,0 12,-5.352 12,-12 v -0.5 c 0,6.648 -5.352,12 -12,12 H 28 c -6.648,0 -12,-5.352 -12,-12 z" />
  <path
     fill="#fff"
     opacity="0.1"
     d="M 108,64 C 96,64 96,72 80,72 H 28 c -6.648,0 -12,5.352 -12,12 v 1 c 0,-6.648 5.352,-12 12,-12 h 52 c 16,0 16,-8 28,-8 h 120 c 6.648,0 12,5.352 12,12 v -1 c 0,-6.648 -5.352,-12 -12,-12 z" />
  <path
     fill="#fff"
     opacity="0.2"
     d="M 108,64 C 96,64 96,72 80,72 H 28 c -6.648,0 -12,5.352 -12,12 v 0.5 c 0,-6.648 5.352,-12 12,-12 h 52 c 16,0 16,-8 28,-8 h 120 c 6.648,0 12,5.352 12,12 V 76 c 0,-6.648 -5.352,-12 -12,-12 z" />
  <path
     fill="#000"
     opacity="0.1"
     d="M 108,63 C 96,63 96,71 80,71 H 28 v 1 h 52 c 16,0 16,-8 28,-8 h 120 v -1 z" />
  <path
     fill="#000"
     opacity="0.2"
     d="m 108,63.5 c -12,0 -12,8 -28,8 H 28 V 72 h 52 c 16,0 16,-8 28,-8 h 120 v -0.5 z" />
</svg>