<?xml version="1.0" encoding="UTF-8" standalone="no"?>
<svg
   width="48"
   height="48"
   version="1.1"
   id="svg49"
   sodipodi:docname="folder-blank.48.svg"
   inkscape:version="1.1.1 (1:1.1+202109281949+c3084ef5ed)"
   xmlns:inkscape="http://www.inkscape.org/namespaces/inkscape"
   xmlns:sodipodi="http://sodipodi.sourceforge.net/DTD/sodipodi-0.dtd"
   xmlns:xlink="http://www.w3.org/1999/xlink"
   xmlns="http://www.w3.org/2000/svg"
   xmlns:svg="http://www.w3.org/2000/svg">
  <sodipodi:namedview
     id="namedview51"
     pagecolor="#fff"
     bordercolor="#666666"
     borderopacity="1.0"
     inkscape:pageshadow="2"
     inkscape:pageopacity="0.0"
     inkscape:pagecheckerboard="0"
     showgrid="true"
     inkscape:zoom="13.25"
     inkscape:cx="24"
     inkscape:cy="24"
     inkscape:window-width="1920"
     inkscape:window-height="1017"
     inkscape:window-x="0"
     inkscape:window-y="0"
     inkscape:window-maximized="1"
     inkscape:current-layer="svg49">
    <inkscape:grid
       type="xygrid"
       id="grid868" />
  </sodipodi:namedview>
  <defs
     id="defs20">
    <style
       type="text/css"
       id="current-color-scheme">
        .ColorScheme-Text           { color:#fff; }
        .ColorScheme-Background     { color:#111; }
        .ColorScheme-Highlight      { color:#3daefd; }
        .ColorScheme-ViewBackground { color:#000; }
        .ColorScheme-PositiveText   { color:#27ae60; }
        .ColorScheme-NeutralText    { color:#f67400; }
        .ColorScheme-NegativeText   { color:#da4453; }
    </style>
    <style
       type="text/css"
       id="extended-color-scheme">
        .ExScheme-Black     { color:#172525; }
        .ExScheme-White     { color:#fcfcfc; }
        .ExScheme-Grey-1    { color:#cfd5d5; }
        .ExScheme-Grey-2    { color:#909c9c; }
        .ExScheme-Grey-3    { color:#536161; }
        .ExScheme-Red-1     { color:#ffafa5; }
        .ExScheme-Red-2     { color:#bf4231; }
        .ExScheme-Red-3     { color:#4d2f2b; }
        .ExScheme-Green-1   { color:#abf9c7; }
        .ExScheme-Green-2   { color:#3bb566; }
        .ExScheme-Green-3   { color:#377d50; }
        .ExScheme-Blue-1    { color:#abdaf9; }
        .ExScheme-Blue-2    { color:#3daefd; }
        .ExScheme-Blue-3    { color:#2b3c4d; }
        .ExScheme-Yellow-1  { color:#faffa5; }
        .ExScheme-Yellow-2  { color:#cac726; }
        .ExScheme-Yellow-3  { color:#4b4d2b; }
        .ExScheme-Orange-1  { color:#ffdaa5; }
        .ExScheme-Orange-2  { color:#ff9701; }
        .ExScheme-Orange-3  { color:#4d372b; }
        .ExScheme-Brown-1   { color:#e9d6bb; }
        .ExScheme-Brown-2   { color:#997657; }
        .ExScheme-Brown-3   { color:#433a35; }
        .ExScheme-Purple-1  { color:#e2abf9; }
        .ExScheme-Purple-2  { color:#b401ff; }
        .ExScheme-Purple-3  { color:#432b4d; }
        .ExScheme-Cyan-1    { color:#b2f2e6; }
        .ExScheme-Cyan-2    { color:#31bfa6; }
        .ExScheme-Cyan-3    { color:#2b4d47; }
        .ExScheme-Magenta-1 { color:#f8a6d8; }
        .ExScheme-Magenta-2 { color:#f00091; }
        .ExScheme-Magenta-3 { color:#770048; }
    </style>
    <linearGradient
       id="gradientDark">
      <stop
         stop-opacity="1"
         offset="0"
         stop-color="#000"
         id="stop4" />
      <stop
         stop-opacity="0"
         offset="1"
         stop-color="#000"
         id="stop6" />
    </linearGradient>
    <linearGradient
       id="gradientLight">
      <stop
         stop-opacity="1"
         offset="0"
         stop-color="#fff"
         id="stop9" />
      <stop
         stop-opacity="0"
         offset="1"
         stop-color="#fff"
         id="stop11" />
    </linearGradient>
    <style type="text/css" class="toggle-enable-crease">
        .folder-crease { display: none; }
    </style>
    <style type="text/css" class="toggle-manilla-folders">
        .folder-manilla { display: none; }
    </style>
    <radialGradient
       xlink:href="#gradientLight"
       id="gl1"
       cx="0.5"
       cy="0"
       r="1" />
    <linearGradient
       xlink:href="#gradientDark"
       id="gd1"
       x1="0"
       y1="1"
       x2="0"
       y2="0.5" />
    </defs>
  <path
     class="folder-manilla-placeholder ExScheme-Brown-1"
     fill="currentColor"
     d="M 7,6 C 5.892,6 5,6.892 5,8 v 2 8 H 3 c -1.108,0 -2.11025012,0.897499 -2,2 l 2,14 v 6 c 0,1.108 0.892,2 2,2 h 38 c 1.108,0 1.899686,-0.89655 2,-2 v -6 l 2,-16 c 0.137431,-1.099444 -0.892,-2 -2,-2 H 43 V 10 C 43,8.892 42.108,8 41,8 H 21 C 18,8 18,6 15,6 Z"
     id="path22" />
  <path
     id="primary-color"
     class="toggle-manilla-folders ColorScheme-Highlight"
     fill="currentColor"
     d="M 7,6 C 5.892,6 5,6.892 5,8 v 2 8 H 3 c -1.108,0 -2.11025012,0.897499 -2,2 l 2,14 v 6 c 0,1.108 0.892,2 2,2 h 38 c 1.108,0 1.899686,-0.89655 2,-2 v -6 l 2,-16 c 0.137431,-1.099444 -0.892,-2 -2,-2 H 43 V 10 C 43,8.892 42.108,8 41,8 H 21 C 18,8 18,6 15,6 Z" />
  <path
     class="ColorScheme-Text"
     fill="currentColor"
     opacity="0.1"
     d="M 7,6 C 5.892,6 5,6.892 5,8 v 2 8 H 3 c -1.108,0 -2.11025012,0.897499 -2,2 l 2,14 v 6 c 0,1.108 0.892,2 2,2 h 38 c 1.108,0 1.899686,-0.89655 2,-2 v -6 l 2,-16 c 0.137431,-1.099444 -0.892,-2 -2,-2 H 43 V 10 C 43,8.892 42.108,8 41,8 H 21 C 18,8 18,6 15,6 Z" />
  <path
     fill="#000"
     opacity="0.4"
     d="M 7,6 C 5.892,6 5,6.892 5,8 v 2 8 h 10 c 3,0 3.003094,-1.863777 6,-2 H 43 V 10 C 43,8.892 42.108,8 41,8 H 21 C 18,8 18,6 15,6 Z" />
  <path
     class="toggle-flat-design"
     fill="url(#gd1)"
     opacity="0.1"
     d="M 7,6 C 5.892,6 5,6.892 5,8 v 2 8 h 10 c 3,0 3.003094,-1.863777 6,-2 H 43 V 10 C 43,8.892 42.108,8 41,8 H 21 C 18,8 18,6 15,6 Z" />
  <path
     class="toggle-flat-design"
     fill="url(#gl1)"
     opacity="0.2"
     d="m 21,16 c -3,0 -3,2 -6,2 H 3 c -1.108,0 -2.11025012,0.897499 -2,2 l 2,14 v 6 c 0,1.108 0.892,2 2,2 h 38 c 1.108,0 1.899686,-0.89655 2,-2 v -6 l 2,-16 c 0.137431,-1.099444 -0.892,-2 -2,-2 z" />
  <path
     class="folder-crease-placeholder"
     fill="#000"
     opacity="0.4"
     d="M 2.8574219 33 L 3 34 L 45 34 L 45.125 33 L 2.8574219 33 z " />
  <path
     class="ColorScheme-Text"
     fill="currentColor"
     opacity="0.1"
     d="m 3,39 v 1 c 0,1.108 0.892,2 2,2 h 38 c 1.108,0 2,-0.892 2,-2 v -1 c 0,1.108 -0.892,2 -2,2 H 5 C 3.892,41 3,40.108 3,39 Z" />
  <path
     class="ColorScheme-Text"
     fill="currentColor"
     opacity="0.2"
     d="M 3,39.5 V 40 c 0,1.108 0.892,2 2,2 h 38 c 1.108,0 2,-0.892 2,-2 v -0.5 c 0,1.108 -0.892,2 -2,2 H 5 c -1.108,0 -2,-0.892 -2,-2 z" />
  <path
     fill="#fff"
     opacity="0.1"
     d="m 21,16 c -3,0 -3,2 -6,2 H 3 c -1.108,0 -2,0.892 -2,2 v 1 c 0,-1.108 0.892,-2 2,-2 h 12 c 3,0 3,-2 6,-2 h 24 c 1.108,0 2,0.892 2,2 v -1 c 0,-1.108 -0.892,-2 -2,-2 z"
     id="path41" />
  <path
     fill="#fff"
     opacity="0.2"
     d="m 21,16 c -3,0 -3,2 -6,2 H 3 c -1.108,0 -2,0.892 -2,2 v 0.5 c 0,-1.108 0.892,-2 2,-2 h 12 c 3,0 3,-2 6,-2 h 24 c 1.108,0 2,0.892 2,2 V 18 c 0,-1.108 -0.892,-2 -2,-2 z"
     id="path43" />
  <path
     fill="#000"
     opacity="0.1"
     d="m 21,15 c -3,0 -3,2 -6,2 H 5 v 1 h 10 c 3,0 3,-2 6,-2 h 22 v -1 z"
     id="path45" />
  <path
     fill="#000"
     opacity="0.2"
     d="m 21,15.5 c -3,0 -3,2 -6,2 H 5 V 18 h 10 c 3,0 3,-2 6,-2 h 22 v -0.5 z" />
</svg>
