<?xml version="1.0" encoding="UTF-8" standalone="no"?>
<!-- Created with Inkscape (http://www.inkscape.org/) -->

<svg
   xmlns:dc="http://purl.org/dc/elements/1.1/"
   xmlns:cc="http://creativecommons.org/ns#"
   xmlns:rdf="http://www.w3.org/1999/02/22-rdf-syntax-ns#"
   xmlns:svg="http://www.w3.org/2000/svg"
   xmlns="http://www.w3.org/2000/svg"
   xmlns:sodipodi="http://sodipodi.sourceforge.net/DTD/sodipodi-0.dtd"
   xmlns:inkscape="http://www.inkscape.org/namespaces/inkscape"
   width="22"
   height="22"
   viewBox="0 0 5.8208331 5.8208331"
   version="1.1"
   id="svg8"
   inkscape:version="0.92.2 5c3e80d, 2017-08-06"
   sodipodi:docname="folder-games.svg">
  <defs
     id="defs2">
    <style
       type="text/css"
       id="current-color-scheme">
      .ColorScheme-Text {
        color:#4d4d4d;
      }
      </style>
    <style
       id="current-color-scheme-6"
       type="text/css">
      .ColorScheme-Text {
        color:#4d4d4d;
      }
      </style>
    <style
       id="current-color-scheme-7"
       type="text/css">
      .ColorScheme-Text {
        color:#4d4d4d;
      }
      </style>
  </defs>
  <sodipodi:namedview
     id="base"
     pagecolor="#ffffff"
     bordercolor="#666666"
     borderopacity="1.0"
     inkscape:pageopacity="0.0"
     inkscape:pageshadow="2"
     inkscape:zoom="11.2"
     inkscape:cx="23.197554"
     inkscape:cy="6.5273052"
     inkscape:document-units="mm"
     inkscape:current-layer="layer1"
     showgrid="false"
     units="px"
     inkscape:window-width="1920"
     inkscape:window-height="1019"
     inkscape:window-x="0"
     inkscape:window-y="0"
     inkscape:window-maximized="1" />
  <metadata
     id="metadata5">
    <rdf:RDF>
      <cc:Work
         rdf:about="">
        <dc:format>image/svg+xml</dc:format>
        <dc:type
           rdf:resource="http://purl.org/dc/dcmitype/StillImage" />
        <dc:title />
      </cc:Work>
    </rdf:RDF>
  </metadata>
  <g
     inkscape:label="Layer 1"
     inkscape:groupmode="layer"
     id="layer1"
     transform="translate(0,-291.17917)">
    <rect
       width="0"
       x="98.957848"
       y="123.39531"
       height="3.880924"
       style="fill:#4d4d4d;stroke-width:0.26458332"
       id="rect4035-062" />
    <rect
       width="0"
       x="100.7995"
       y="129.36713"
       height="3.880924"
       style="fill:#4d4d4d;stroke-width:0.26458332"
       id="rect4035-8-6" />
    <rect
       width="0"
       x="101.27927"
       y="129.08647"
       height="3.880924"
       style="fill:#4d4d4d;stroke-width:0.26458332"
       id="rect4035-0-1" />
    <rect
       width="0"
       x="94.418587"
       y="122.39486"
       height="3.880924"
       style="fill:#4d4d4d;stroke-width:0.26458332"
       id="rect4035-06-8" />
    <rect
       width="0"
       x="96.260239"
       y="128.36667"
       height="3.880924"
       style="fill:#4d4d4d;stroke-width:0.26458332"
       id="rect4035-8-7-7" />
    <rect
       width="0"
       x="96.740005"
       y="128.08601"
       height="3.880924"
       style="fill:#4d4d4d;stroke-width:0.26458332"
       id="rect4035-0-42-9" />
    <rect
       width="0"
       x="94.418587"
       y="122.39486"
       height="3.880924"
       style="fill:#4d4d4d;stroke-width:0.26458332"
       id="rect4035-3-2" />
    <rect
       width="0"
       x="96.260239"
       y="128.36667"
       height="3.880924"
       style="fill:#4d4d4d;stroke-width:0.26458332"
       id="rect4035-8-9-0" />
    <rect
       width="0"
       x="96.740005"
       y="128.08601"
       height="3.880924"
       style="fill:#4d4d4d;stroke-width:0.26458332"
       id="rect4035-0-4-2" />
    <rect
       width="0"
       x="94.418587"
       y="122.39486"
       height="3.880924"
       style="fill:#4d4d4d;stroke-width:0.26458332"
       id="rect4035-2-3" />
    <rect
       width="0"
       x="96.260239"
       y="128.36667"
       height="3.880924"
       style="fill:#4d4d4d;stroke-width:0.26458332"
       id="rect4035-8-99-7" />
    <rect
       width="0"
       x="96.740005"
       y="128.08601"
       height="3.880924"
       style="fill:#4d4d4d;stroke-width:0.26458332"
       id="rect4035-0-43-5" />
    <rect
       width="0"
       x="94.418587"
       y="122.39486"
       height="3.880924"
       style="fill:#4d4d4d;stroke-width:0.26458332"
       id="rect4035-3-9-9" />
    <rect
       width="0"
       x="96.260239"
       y="128.36667"
       height="3.880924"
       style="fill:#4d4d4d;stroke-width:0.26458332"
       id="rect4035-8-9-9-2" />
    <rect
       width="0"
       x="96.740005"
       y="128.08601"
       height="3.880924"
       style="fill:#4d4d4d;stroke-width:0.26458332"
       id="rect4035-0-4-4-2" />
    <rect
       width="0"
       x="113.01089"
       y="128.02768"
       height="2.9104121"
       style="fill:#4d4d4d;stroke-width:0.26458332"
       id="rect4035-5-8" />
    <rect
       width="0"
       x="111.8065"
       y="128.6942"
       height="2.9104121"
       style="fill:#4d4d4d;stroke-width:0.26458332"
       id="rect4035-7-9" />
    <rect
       width="0"
       x="110.61382"
       y="125.40845"
       height="2.9104121"
       style="fill:#4d4d4d;stroke-width:0.26458332"
       id="rect4035-9-7" />
    <rect
       width="0"
       x="110.83714"
       y="128.64627"
       height="2.9104121"
       style="fill:#4d4d4d;stroke-width:0.26458332"
       id="rect4035-96-3" />
    <rect
       width="0"
       x="109.63275"
       y="129.31277"
       height="2.9104121"
       style="fill:#4d4d4d;stroke-width:0.26458332"
       id="rect4035-7-0-6" />
    <rect
       width="0"
       x="108.44007"
       y="126.02703"
       height="2.9104121"
       style="fill:#4d4d4d;stroke-width:0.26458332"
       id="rect4035-9-6-1" />
    <rect
       width="0"
       x="113.01089"
       y="128.02768"
       height="2.9104121"
       style="fill:#4d4d4d;stroke-width:0.26458332"
       id="rect4035-1-2" />
    <rect
       width="0"
       x="111.8065"
       y="128.6942"
       height="2.9104121"
       style="fill:#4d4d4d;stroke-width:0.26458332"
       id="rect4035-7-2-9" />
    <rect
       width="0"
       x="110.61382"
       y="125.40845"
       height="2.9104121"
       style="fill:#4d4d4d;stroke-width:0.26458332"
       id="rect4035-9-0-3" />
    <rect
       width="0"
       x="110.83714"
       y="128.64627"
       height="2.9104121"
       style="fill:#4d4d4d;stroke-width:0.26458332"
       id="rect4035-96-9-1" />
    <rect
       width="0"
       x="109.63275"
       y="129.31277"
       height="2.9104121"
       style="fill:#4d4d4d;stroke-width:0.26458332"
       id="rect4035-7-0-9-9" />
    <rect
       width="0"
       x="108.44007"
       y="126.02703"
       height="2.9104121"
       style="fill:#4d4d4d;stroke-width:0.26458332"
       id="rect4035-9-6-9-4" />
    <path
       id="path4220-4-9-2"
       d="m 2.0557152,292.94996 c -0.472063,0 -0.85471,0.38265 -0.85471,0.85471 l -0.134088,1.07197 c -0.0055,0.0222 -0.0084,0.0449 -0.0085,0.0677 0,0.15736 0.127551,0.2849 0.284902,0.2849 0.08466,-8e-5 0.164881,-0.0379 0.218953,-0.10301 l 2.47e-4,6.1e-4 0.41026,-0.47161 c 0.02725,0.002 0.05497,0.005 0.08292,0.005 0.05777,-5e-5 0.114655,-0.008 0.170699,-0.0196 a 0.28491453,0.28491453 0 0 0 0.256541,0.16196 0.28491453,0.28491453 0 0 0 0.284902,-0.2849 h 0.285146 a 0.28491453,0.28491453 0 0 0 0.284906,0.2849 0.28491453,0.28491453 0 0 0 0.256532,-0.16197 c 0.05604,0.0117 0.112928,0.0196 0.170699,0.0196 0.02802,0 0.05583,-10e-4 0.08317,-0.005 l 0.41002,0.4716 2.47e-4,-6.1e-4 c 0.05406,0.0651 0.134292,0.10301 0.218953,0.10301 0.157351,0 0.284902,-0.12755 0.284902,-0.2849 -6.8e-5,-0.0228 -0.003,-0.0455 -0.0085,-0.0677 l -0.134062,-1.07197 c 0,-0.47206 -0.382648,-0.85471 -0.85471,-0.85471 h -0.71211 -0.285141 z m -0.284905,0.42724 h 0.284905 v 0.2849 h 0.284903 v 0.2849 h -0.284903 v 0.28491 H 1.7708102 V 293.947 h -0.284902 v -0.2849 h 0.284902 z m 2.136898,0 a 0.14245727,0.14245727 0 0 1 0.14233,0.14258 0.14245727,0.14245727 0 0 1 -0.14233,0.14232 0.14245727,0.14245727 0 0 1 -0.142573,-0.14232 0.14245727,0.14245727 0 0 1 0.142573,-0.14258 z m -0.284905,0.2849 a 0.14245727,0.14245727 0 0 1 0.142332,0.14257 0.14245727,0.14245727 0 0 1 -0.142332,0.14233 0.14245727,0.14245727 0 0 1 -0.142573,-0.14233 0.14245727,0.14245727 0 0 1 0.142573,-0.14257 z m 0.569807,0 a 0.14245727,0.14245727 0 0 1 0.142332,0.14257 0.14245727,0.14245727 0 0 1 -0.142332,0.14233 0.14245727,0.14245727 0 0 1 -0.142572,-0.14233 0.14245727,0.14245727 0 0 1 0.142572,-0.14257 z m -0.284902,0.2849 a 0.14245727,0.14245727 0 0 1 0.14233,0.14257 0.14245727,0.14245727 0 0 1 -0.14233,0.14234 0.14245727,0.14245727 0 0 1 -0.142573,-0.14234 0.14245727,0.14245727 0 0 1 0.142573,-0.14257 z m -1.424761,0.42748 a 0.14245642,0.14245642 0 0 1 0.142575,0.14233 0.14245642,0.14245642 0 0 1 -0.142575,0.14257 0.14245642,0.14245642 0 0 1 -0.142329,-0.14257 0.14245642,0.14245642 0 0 1 0.142329,-0.14233 z m 0.854952,0 a 0.14245813,0.14245813 0 0 1 0.14233,0.14233 0.14245813,0.14245813 0 0 1 -0.14233,0.14257 0.14245813,0.14245813 0 0 1 -0.142573,-0.14257 0.14245813,0.14245813 0 0 1 0.142573,-0.14233 z"
       style="opacity:1;fill:#f2f2f2;fill-opacity:1;fill-rule:evenodd;stroke:none;stroke-width:0.07448709;stroke-linecap:round;stroke-linejoin:bevel;stroke-miterlimit:4;stroke-dasharray:none;stroke-opacity:1"
       inkscape:connector-curvature="0" />
  </g>
</svg>
