<?xml version="1.0" encoding="UTF-8" standalone="no"?>

<!-- Created with Inkscape (http://www.inkscape.org/) -->
<svg width="32" version="1.1" xmlns="http://www.w3.org/2000/svg" height="32" xmlns:xlink="http://www.w3.org/1999/xlink" xmlns:inkscape="http://www.inkscape.org/namespaces/inkscape">
 <defs id="defs5455">
  <linearGradient inkscape:collect="always" xlink:href="#linearGradient4300" id="linearGradient4306" y1="61" y2="3" x2="0" gradientUnits="userSpaceOnUse" gradientTransform="matrix(0.49999977 0 0 0.48275841 384.57144 516.34974)"/>
  <linearGradient inkscape:collect="always" xlink:href="#linearGradient4351-9" id="linearGradient4357" y1="61" y2="47" x2="0" gradientUnits="userSpaceOnUse" gradientTransform="matrix(0.48275841 0 0 0.48275841 385.26109 516.10836)"/>
  <linearGradient inkscape:collect="always" xlink:href="#linearGradient4410" id="linearGradient4427" y1="31" x1="54" y2="16.500048" x2="39.500008" gradientUnits="userSpaceOnUse" gradientTransform="matrix(0.48275841 0 0 -0.48275841 378.50247 553.76351)"/>
  <linearGradient inkscape:collect="always" id="linearGradient4410">
   <stop style="stop-color:#383e51" id="stop4412"/>
   <stop offset="1" style="stop-color:#655c6f;stop-opacity:0" id="stop4414"/>
  </linearGradient>
  <linearGradient inkscape:collect="always" id="linearGradient4300">
   <stop style="stop-color:#cf000f" id="stop4302"/>
   <stop offset="1" style="stop-color:#d91e18" id="stop4304"/>
  </linearGradient>
  <linearGradient inkscape:collect="always" id="linearGradient4351-9">
   <stop style="stop-color:#fb7d80" id="stop4353-8"/>
   <stop offset="1" style="stop-color:#fcbcbe" id="stop4355-3"/>
  </linearGradient>
 </defs>
 <metadata id="metadata5458"/>
 <g inkscape:label="Capa 1" inkscape:groupmode="layer" id="layer1" transform="matrix(1 0 0 1 -384.57143 -515.798)">
  <path inkscape:connector-curvature="0" style="fill:url(#linearGradient4306)" id="rect3500" d="m 389.57144,517.79801 0,27.99999 14.99999,0 7.00003,-7 -3e-5,-14.24137 0,-6.75862 -7,0 z"/>
  <rect width="14.999983" x="389.57144" y="544.79797" height="0.999973" style="fill:#2e3132;fill-opacity:0.294118" id="rect4169"/>
  <rect width="21.999994" x="389.57144" y="517.79797" height="1.00003" style="fill:#ffffff;fill-opacity:0.411765" id="rect4236"/>
  <path inkscape:connector-curvature="0" style="fill:url(#linearGradient4357);fill-rule:evenodd" id="path4314" d="m 411.57144,538.798 -7.00001,7 0,-7 z"/>
  <path inkscape:connector-curvature="0" style="fill:url(#linearGradient4427);opacity:0.2;fill-rule:evenodd" id="path4320" d="m 397.57143,545.79797 7,-6.99997 0,7 z"/>
  <rect width="0" x="375.89221" y="526.79797" height="10.999983" style="fill:#ffffff" id="rect4035"/>
  <rect width="0" x="375.57144" y="525.79797" height="10.999983" style="fill:#ffffff" id="rect4035-4"/>
  <rect width="0" x="374.03558" y="525.68414" height="11.1139" style="fill:#fbd2bf" id="rect4035-3"/>
  <rect width="0" x="375.57144" y="525.79797" height="10.999983" style="fill:#fbd2bf" id="rect4035-1"/>
  <rect width="0" x="375.57144" y="525.79797" height="10.999983" style="fill:#fbfbfb" id="rect4035-5"/>
  <path inkscape:label="Capa 1" inkscape:connector-curvature="0" style="fill:#fcbcbe" id="path26" d="m 3.8563926,1038.3619 c -0.1620039,0.01 -0.3360071,0 -0.5270111,0.132 -1.7040376,0.7323 -0.5610818,2.7413 1.610965,4.2706 0.013004,-0.2881 0.1330718,-0.9155 0.1300718,-1.1916 -1.8530404,-1.2688 -2.9370637,-2.504 -1.7560385,-2.9937 1.2450273,-0.5162 1.6314446,0.8931 1.6534449,2.9385 0.1160024,0.12 0.9195931,0.6531 1.0415955,0.7372 -0.045,-1.8654 -1.0380041,-3.7694 -1.9920247,-3.8774 -0.051,-0.01 -0.1070024,-0.01 -0.1610035,-0.01 m 1.734762,3.2454 -0.3877326,-0.1508 -0.3214651,0.2163 -0.064748,0.6807 0.4060512,0.311 0.1685119,0.2258 c 1.2500277,0.8283 2.314987,1.4663 3.7160175,1.9933 l 0.8737343,0.1296 0.5750118,0 c 0.530011,-0.3121 0.214005,-0.4322 2.140047,-0.6722 l -2.170047,0.168 c -1.6740362,-0.6482 -3.3823484,-1.5791 -4.936383,-2.5947 m 3.8199596,2.7152 c 0.2510051,0 2.2094464,-0.1697 2.9884634,-0.2417 0.771017,-0.1201 1.718038,-0.1561 1.539034,0.7442 0.204004,-0.4801 -0.260838,-1.2952 -0.921853,-1.4392 -1.022022,-0.2281 -2.643825,0.3974 -3.2268372,0.5895 m 0.9396202,0.2495 c -0.304006,0.1201 -0.9985291,0.2069 -1.326536,0.3149 0.4650108,0.2401 2.79971,1.1011 3.763731,0.921 0.154003,0 0.804875,-0.4676 0.820876,-0.8038 -0.05,0.6122 -2.904063,0.1561 -3.258071,-0.4441 m 0.635014,0.011 c -0.250006,-0.12 -1.4206556,-0.1141 -1.6796614,-0.2101 -1.4666569,0.5124 -3.4394495,1.7154 -4.8514807,2.5268 l -0.4090085,0.1201 c -0.078868,0.5604 -0.4246069,0.7534 -0.740016,1.1163 l 0.4780107,0.4802 0.3740078,-0.6122 c 1.6530354,-0.9963 4.9211068,-2.606 6.8271481,-3.3791 m -6.8271481,3.3791 c -0.2020041,0.12 -0.3950083,0.2401 -0.5780127,0.3601 -0.424009,1.2016 -0.9180196,2.0106 -1.3900303,1.9758 0.7290164,0.3481 2.2992398,-1.3673 2.828251,-2.9806 m -2.828251,2.9806 c -1.1120236,-0.6602 1.2418265,-1.8633 1.7688375,-2.2126 0.1190029,-0.3361 -0.2063133,-0.893 -0.1003117,-1.2892 -1.6600363,1.0324 -2.6415472,2.5259 -2.0845351,3.2341 0.1340029,0.1681 0.276006,0.2521 0.4170093,0.2641 m 1.615552,-2.5151 c 0.077302,-0.3094 1.1027298,-1.0131 1.2877338,-1.1212 0.2480895,-1.9505 0.259907,-2.1431 0.4706356,-3.6594 -0.1260022,-0.12 -0.9015505,-0.7238 -1.0215527,-0.8078 -0.1489201,1.6205 -0.4289977,3.8165 -0.8250059,5.2833" transform="matrix(1.000664 0 0 1.0019257 392.57554 -515.56347)"/>
 </g>
</svg>
