<?xml version="1.0" encoding="UTF-8" standalone="no"?>

<!-- Created with Inkscape (http://www.inkscape.org/) -->
<svg width="32" version="1.1" xmlns="http://www.w3.org/2000/svg" height="32" xmlns:xlink="http://www.w3.org/1999/xlink" xmlns:inkscape="http://www.inkscape.org/namespaces/inkscape">
 <defs id="defs5455">
  <linearGradient inkscape:collect="always" xlink:href="#linearGradient4300-8" id="linearGradient4306" y1="61" y2="3" x2="0" gradientUnits="userSpaceOnUse" gradientTransform="matrix(0.49999977 0 0 0.48275841 384.57144 516.34974)"/>
  <linearGradient inkscape:collect="always" xlink:href="#linearGradient4351-4" id="linearGradient4357" y1="61" y2="47" x2="0" gradientUnits="userSpaceOnUse" gradientTransform="matrix(0.48275841 0 0 0.48275841 385.26109 516.10836)"/>
  <linearGradient inkscape:collect="always" xlink:href="#linearGradient4410" id="linearGradient4427" y1="31" x1="54" y2="16.500048" x2="39.500008" gradientUnits="userSpaceOnUse" gradientTransform="matrix(0.48275841 0 0 -0.48275841 378.50247 553.76351)"/>
  <linearGradient inkscape:collect="always" id="linearGradient4410">
   <stop style="stop-color:#383e51" id="stop4412"/>
   <stop offset="1" style="stop-color:#655c6f;stop-opacity:0" id="stop4414"/>
  </linearGradient>
  <linearGradient inkscape:collect="always" id="linearGradient4351-4">
   <stop style="stop-color:#f7ab89" id="stop4353-8"/>
   <stop offset="1" style="stop-color:#fbd2bf" id="stop4355-5"/>
  </linearGradient>
  <linearGradient inkscape:collect="always" id="linearGradient4300-8">
   <stop style="stop-color:#f27935" id="stop4302-5"/>
   <stop offset="1" style="stop-color:#f2784b" id="stop4304-7"/>
  </linearGradient>
 </defs>
 <metadata id="metadata5458"/>
 <g inkscape:label="Capa 1" inkscape:groupmode="layer" id="layer1" transform="matrix(1 0 0 1 -384.57143 -515.798)">
  <path inkscape:connector-curvature="0" style="fill:url(#linearGradient4306)" id="rect3500" d="m 389.57144,517.79801 0,27.99999 14.99999,0 7.00003,-7 -3e-5,-14.24137 0,-6.75862 -7,0 z"/>
  <rect width="14.999983" x="389.57144" y="544.79797" height="0.999973" style="fill:#2e3132;fill-opacity:0.294118" id="rect4169"/>
  <rect width="21.999994" x="389.57144" y="517.79797" height="1.00003" style="fill:#ffffff;fill-opacity:0.409836" id="rect4236"/>
  <path inkscape:connector-curvature="0" style="fill:url(#linearGradient4357);fill-rule:evenodd" id="path4314" d="m 411.57144,538.798 -7.00001,7 0,-7 z"/>
  <path inkscape:connector-curvature="0" style="fill:url(#linearGradient4427);opacity:0.2;fill-rule:evenodd" id="path4320" d="m 397.57143,545.79797 7,-6.99997 0,7 z"/>
  <rect width="0" x="375.89221" y="526.79797" height="10.999983" style="fill:#ffffff" id="rect4035"/>
  <rect width="0" x="375.57144" y="525.79797" height="10.999983" style="fill:#ffffff" id="rect4035-4"/>
  <path style="fill:#fbd2bf;stroke-linecap:square;stroke-width:2" id="path4177" d="M 15.380859 8.9492188 A 0.5 0.5 0 0 0 15.035156 9.0957031 A 0.5 0.5 0 0 0 15.035156 9.8027344 L 18.240234 13.007812 A 4 4 0 0 0 18 13 L 10.5 13 A 0.5 0.5 0 0 0 10 13.5 A 0.5 0.5 0 0 0 10.5 14 L 15.292969 14 L 10.146484 19.146484 A 0.50001151 0.5 0 0 0 10.146484 19.853516 A 0.50001151 0.5 0 0 0 10.853516 19.853516 L 14.017578 16.689453 A 4 4 0 0 0 14 17 A 4 4 0 0 0 18 21 A 4 4 0 0 0 22 17 A 4 4 0 0 0 21.039062 14.404297 L 21.044922 14.398438 L 20.910156 14.263672 A 4 4 0 0 0 20.707031 14.060547 L 15.742188 9.0957031 A 0.5 0.5 0 0 0 15.380859 8.9492188 z M 18 14 A 3 3 0 0 1 19.996094 14.763672 L 20.222656 14.990234 A 3 3 0 0 1 21 17 A 3 3 0 0 1 18 20 A 3 3 0 0 1 15 17 A 3 3 0 0 1 18 14 z M 18 16 A 1 1 0 0 0 17 17 A 1 1 0 0 0 18 18 A 1 1 0 0 0 19 17 A 1 1 0 0 0 18 16 z " transform="matrix(1 0 0 1 384.57143 515.798)"/>
 </g>
</svg>
