<?xml version="1.0" encoding="UTF-8" standalone="no"?>

<!-- Created with Inkscape (http://www.inkscape.org/) -->
<svg width="32" version="1.1" xmlns="http://www.w3.org/2000/svg" height="32" xmlns:xlink="http://www.w3.org/1999/xlink" xmlns:inkscape="http://www.inkscape.org/namespaces/inkscape">
 <defs id="defs5455">
  <linearGradient inkscape:collect="always" xlink:href="#linearGradient4300" id="linearGradient4306" y1="61" y2="3" x2="0" gradientUnits="userSpaceOnUse" gradientTransform="matrix(0.49999977 0 0 0.48275841 384.57144 516.34974)"/>
  <linearGradient inkscape:collect="always" id="linearGradient4300">
   <stop style="stop-color:#22a7f0" id="stop4302"/>
   <stop offset="1" style="stop-color:#19b5fe" id="stop4304"/>
  </linearGradient>
  <linearGradient inkscape:collect="always" xlink:href="#linearGradient4351" id="linearGradient4357" y1="61" y2="47" x2="0" gradientUnits="userSpaceOnUse" gradientTransform="matrix(0.48275841 0 0 0.48275841 385.26109 516.10836)"/>
  <linearGradient inkscape:collect="always" id="linearGradient4351">
   <stop style="stop-color:#c8e3fe" id="stop4353"/>
   <stop offset="1" style="stop-color:#ffffff" id="stop4355"/>
  </linearGradient>
  <linearGradient inkscape:collect="always" xlink:href="#linearGradient4410" id="linearGradient4427" y1="31" x1="54" y2="16.500048" x2="39.500008" gradientUnits="userSpaceOnUse" gradientTransform="matrix(0.48275841 0 0 -0.48275841 378.50247 553.76351)"/>
  <linearGradient inkscape:collect="always" id="linearGradient4410">
   <stop style="stop-color:#383e51" id="stop4412"/>
   <stop offset="1" style="stop-color:#655c6f;stop-opacity:0" id="stop4414"/>
  </linearGradient>
 </defs>
 <metadata id="metadata5458"/>
 <g inkscape:label="Capa 1" inkscape:groupmode="layer" id="layer1" transform="matrix(1 0 0 1 -384.57143 -515.798)">
  <path inkscape:connector-curvature="0" style="fill:url(#linearGradient4306)" id="rect3500" d="m 389.57144,517.79801 0,27.99999 14.99999,0 7.00003,-7 -3e-5,-14.24137 0,-6.75862 -7,0 z"/>
  <rect width="14.999983" x="389.57144" y="544.79797" height="0.999973" style="fill:#2e3132;fill-opacity:0.294118" id="rect4169"/>
  <rect width="21.999994" x="389.57144" y="517.79797" height="1.00003" style="fill:#ffffff;fill-opacity:0.409836" id="rect4236"/>
  <path inkscape:connector-curvature="0" style="fill:url(#linearGradient4357);fill-rule:evenodd" id="path4314" d="m 411.57144,538.798 -7.00001,7 0,-7 z"/>
  <path inkscape:connector-curvature="0" style="fill:url(#linearGradient4427);opacity:0.2;fill-rule:evenodd" id="path4320" d="m 397.57143,545.79797 7,-6.99997 0,7 z"/>
  <rect width="0" x="375.89221" y="526.79797" height="10.999983" style="fill:#ffffff" id="rect4035"/>
  <path inkscape:connector-curvature="0" style="fill:#ffffff" id="path3763" d="m 397.57143,524.798 0,1 0,7.28125 c -0.29454,-0.17076 -0.63503,-0.28125 -1,-0.28125 -1.10457,0 -2,0.89544 -2,2 0,1.10456 0.89543,2 2,2 1.10457,0 2,-0.89544 2,-2 l 0,-7 7,0 0,4.28125 c -0.29454,-0.17076 -0.63504,-0.28125 -1,-0.28125 -1.10457,0 -2,0.89544 -2,2 0,1.10456 0.89543,2 2,2 1.10457,0 2,-0.89544 2,-2 l 0,-8 0,-1 -9,0 z m 1,1 7,0 0,1 -7,0 0,-1 z"/>
 </g>
</svg>
