<?xml version="1.0" encoding="UTF-8" standalone="no"?>

<!-- Created with Inkscape (http://www.inkscape.org/) -->
<svg width="32" version="1.1" xmlns="http://www.w3.org/2000/svg" height="32" xmlns:xlink="http://www.w3.org/1999/xlink" xmlns:inkscape="http://www.inkscape.org/namespaces/inkscape">
 <defs id="defs5455">
  <linearGradient inkscape:collect="always" xlink:href="#linearGradient4300-1" id="linearGradient4306" y1="61" y2="3" x2="0" gradientUnits="userSpaceOnUse" gradientTransform="matrix(0.49999977 0 0 0.48275841 384.57144 516.34974)"/>
  <linearGradient inkscape:collect="always" xlink:href="#linearGradient4351-2" id="linearGradient4357" y1="61" y2="47" x2="0" gradientUnits="userSpaceOnUse" gradientTransform="matrix(0.48275841 0 0 0.48275841 385.26109 516.10836)"/>
  <linearGradient inkscape:collect="always" xlink:href="#linearGradient4410" id="linearGradient4427" y1="31" x1="54" y2="16.500048" x2="39.500008" gradientUnits="userSpaceOnUse" gradientTransform="matrix(0.48275841 0 0 -0.48275841 378.50247 553.76351)"/>
  <linearGradient inkscape:collect="always" id="linearGradient4410">
   <stop style="stop-color:#383e51" id="stop4412"/>
   <stop offset="1" style="stop-color:#655c6f;stop-opacity:0" id="stop4414"/>
  </linearGradient>
  <linearGradient inkscape:collect="always" id="linearGradient4351-2">
   <stop style="stop-color:#d3bdd7" id="stop4353-8"/>
   <stop offset="1" style="stop-color:#e8d9eb" id="stop4355-6"/>
  </linearGradient>
  <linearGradient inkscape:collect="always" id="linearGradient4300-1">
   <stop style="stop-color:#8e44ad" id="stop4302-0"/>
   <stop offset="1" style="stop-color:#9b59b6" id="stop4304-6"/>
  </linearGradient>
 </defs>
 <metadata id="metadata5458"/>
 <g inkscape:label="Capa 1" inkscape:groupmode="layer" id="layer1" transform="matrix(1 0 0 1 -384.57143 -515.798)">
  <path inkscape:connector-curvature="0" style="fill:url(#linearGradient4306)" id="rect3500" d="m 389.57144,517.79801 0,27.99999 14.99999,0 7.00003,-7 -3e-5,-14.24137 0,-6.75862 -7,0 z"/>
  <rect width="14.999983" x="389.57144" y="544.79797" height="0.999973" style="fill:#2e3132;fill-opacity:0.294118" id="rect4169"/>
  <rect width="21.999994" x="389.57144" y="517.79797" height="1.00003" style="fill:#ffffff;fill-opacity:0.411765" id="rect4236"/>
  <path inkscape:connector-curvature="0" style="fill:url(#linearGradient4357);fill-rule:evenodd" id="path4314" d="m 411.57144,538.798 -7.00001,7 0,-7 z"/>
  <path inkscape:connector-curvature="0" style="fill:url(#linearGradient4427);opacity:0.2;fill-rule:evenodd" id="path4320" d="m 397.57143,545.79797 7,-6.99997 0,7 z"/>
  <rect width="0" x="375.89221" y="526.79797" height="10.999983" style="fill:#ffffff" id="rect4035"/>
  <rect width="0" x="375.57144" y="525.79797" height="10.999983" style="fill:#ffffff" id="rect4035-4"/>
  <rect width="0" x="374.03558" y="525.68414" height="11.1139" style="fill:#fbd2bf" id="rect4035-3"/>
  <rect width="0" x="375.57144" y="525.79797" height="10.999983" style="fill:#fbd2bf" id="rect4035-1"/>
  <rect width="0" x="375.57144" y="525.79797" height="10.999983" style="fill:#fbfbfb" id="rect4035-5"/>
  <rect width="0" x="375.57144" y="525.79797" height="10.999983" style="fill:#fffcf9" id="rect4035-8"/>
  <rect width="0" x="375.57144" y="525.79797" height="10.999983" style="fill:#e8d9eb" id="rect4035-44"/>
  <path inkscape:connector-curvature="0" style="fill:#e8d9eb" id="path88" d="m 406.20638,524.8036 a 1.500133,6.7506007 44.989453 0 0 -5.58354,3.8242 1.500133,6.7506007 44.989453 0 0 -2.65703,3.0857 c 0.80698,0.2571 1.43596,0.8862 1.69296,1.6935 a 1.500133,6.7506007 44.989453 0 0 3.08472,-2.6579 1.500133,6.7506007 44.989453 0 0 3.71163,-5.8345 1.500133,6.7506007 44.989453 0 0 -0.24902,-0.1114 m -8.63475,7.9939 c -2.99992,0.8042 -0.74998,2.7036 -2.99992,4.0009 2.99992,0 4.49987,-1.5014 4.49987,-2.5026 0,-0.4991 0.051,-1.4173 -1.49995,-1.5003"/>
 </g>
</svg>
