<?xml version="1.0" encoding="UTF-8" standalone="no"?>

<!-- Created with Inkscape (http://www.inkscape.org/) -->
<svg width="32" version="1.1" xmlns="http://www.w3.org/2000/svg" height="32" xmlns:xlink="http://www.w3.org/1999/xlink" xmlns:inkscape="http://www.inkscape.org/namespaces/inkscape">
 <defs id="defs5455">
  <linearGradient inkscape:collect="always" xlink:href="#linearGradient4300" id="linearGradient4306" y1="61" y2="3" x2="0" gradientUnits="userSpaceOnUse" gradientTransform="matrix(0.49999977 0 0 0.48275841 384.57144 516.34974)"/>
  <linearGradient inkscape:collect="always" id="linearGradient4300">
   <stop style="stop-color:#22a7f0" id="stop4302"/>
   <stop offset="1" style="stop-color:#19b5fe" id="stop4304"/>
  </linearGradient>
  <linearGradient inkscape:collect="always" xlink:href="#linearGradient4351" id="linearGradient4357" y1="61" y2="47" x2="0" gradientUnits="userSpaceOnUse" gradientTransform="matrix(0.48275841 0 0 0.48275841 385.26109 516.10836)"/>
  <linearGradient inkscape:collect="always" id="linearGradient4351">
   <stop style="stop-color:#c8e3fe" id="stop4353"/>
   <stop offset="1" style="stop-color:#ffffff" id="stop4355"/>
  </linearGradient>
  <linearGradient inkscape:collect="always" xlink:href="#linearGradient4410" id="linearGradient4427" y1="31" x1="54" y2="16.500048" x2="39.500008" gradientUnits="userSpaceOnUse" gradientTransform="matrix(0.48275841 0 0 -0.48275841 378.50247 553.76351)"/>
  <linearGradient inkscape:collect="always" id="linearGradient4410">
   <stop style="stop-color:#383e51" id="stop4412"/>
   <stop offset="1" style="stop-color:#655c6f;stop-opacity:0" id="stop4414"/>
  </linearGradient>
 </defs>
 <metadata id="metadata5458"/>
 <g inkscape:label="Capa 1" inkscape:groupmode="layer" id="layer1" transform="matrix(1 0 0 1 -384.57143 -515.798)">
  <path inkscape:connector-curvature="0" style="fill:url(#linearGradient4306)" id="rect3500" d="m 389.57144,517.79801 0,27.99999 14.99999,0 7.00003,-7 -3e-5,-14.24137 0,-6.75862 -7,0 z"/>
  <rect width="14.999983" x="389.57144" y="544.79797" height="0.999973" style="fill:#2e3132;fill-opacity:0.294118" id="rect4169"/>
  <rect width="21.999994" x="389.57144" y="517.79797" height="1.00003" style="fill:#ffffff;fill-opacity:0.409836" id="rect4236"/>
  <path inkscape:connector-curvature="0" style="fill:url(#linearGradient4357);fill-rule:evenodd" id="path4314" d="m 411.57144,538.798 -7.00001,7 0,-7 z"/>
  <path inkscape:connector-curvature="0" style="fill:url(#linearGradient4427);opacity:0.2;fill-rule:evenodd" id="path4320" d="m 397.57143,545.79797 7,-6.99997 0,7 z"/>
  <rect width="0" x="375.89221" y="526.79797" height="10.999983" style="fill:#ffffff" id="rect4035"/>
  <rect width="0" x="375.57144" y="525.79797" height="10.999983" style="fill:#ffffff" id="rect4035-4"/>
  <path inkscape:connector-curvature="0" style="fill:#ffffff" id="rect4112" d="m 399.07143,523.798 c -1.385,0 -2.5,1.115 -2.5,2.5 0,1.385 1.115,2.5 2.5,2.5 1.385,0 2.5,-1.115 2.5,-2.5 0,-1.385 -1.115,-2.5 -2.5,-2.5 z m 0,1 c 0.831,0 1.5,0.669 1.5,1.5 0,0.831 -0.669,1.5 -1.5,1.5 -0.831,0 -1.5,-0.669 -1.5,-1.5 0,-0.831 0.669,-1.5 1.5,-1.5 z m 5.5,1 c -1.108,0 -2,0.892 -2,2 0,1.108 0.892,2 2,2 1.108,0 2,-0.892 2,-2 0,-1.108 -0.892,-2 -2,-2 z m 0,1 c 0.554,0 1,0.446 1,1 0,0.554 -0.446,1 -1,1 -0.554,0 -1,-0.446 -1,-1 0,-0.554 0.446,-1 1,-1 z m -5.5,3 c -2.49299,0 -4.5,2.007 -4.5,4.5 l 0,0.5 0,1 0.27539,0 0.72461,0 0.3457,0 6.3086,0 1.07031,0 0.27539,0 0,-1 0,-0.5 c 0,-2.493 -2.00701,-4.5 -4.5,-4.5 z m 0,1 c 1.93899,0 3.5,1.561 3.5,3.5 l 0,0.5 -7,0 0,-0.5 c 0,-1.939 1.56101,-3.5 3.5,-3.5 z m 5.5,0 c -0.55473,0 -1.06689,0.15952 -1.51172,0.41992 0.24314,0.2369 0.46541,0.49505 0.65625,0.77735 0.26011,-0.1234 0.54745,-0.19727 0.85547,-0.19727 1.108,0 2,0.892 2,2 l -2.09961,0 c 0.0651,0.3231 0.0996,0.6572 0.0996,1 l 1.72461,0 1.09375,0 0.18164,0 0,-1 c 0,-1.662 -1.338,-3 -3,-3 z"/>
 </g>
</svg>
