<svg id="svg1" version="1.1" viewBox="0 0 32 32" xmlns="http://www.w3.org/2000/svg">
    <style id="current-color-scheme" type="text/css">.ColorScheme-Text {
        color:#31363b;
      }
      .ColorScheme-Background {
        color:#eff0f1;
      }
      .ColorScheme-Accent {
        color:#3daee9;
      }
      .ColorScheme-ButtonText {
        color:#31363b;
      }</style>
    <g id="g1" transform="translate(2.6042099 .706503)" fill="currentColor">
        <path id="path1" class="ColorScheme-Text" d="m10.428993 3.023438c-1.120898 0-2.0234372 0.9025597-2.0234372 2.0234375v4.6074219h1v-4.6308594c0-0.5539988 0.4460013-1 1.0000002-1h10c0.553998 0 1 0.4460012 1 1v22c0 0.553998-0.446002 1-1 1h-10c-0.5539989 0-1.0000002-0.446002-1.0000002-1v-4.630859h-1v4.607421c0 1.120898 0.9025592 2.023438 2.0234372 2.023438h9.94336c1.120897 0 2.023437-0.90256 2.023437-2.023438v-21.953124c0-1.1208978-0.90256-2.0234375-2.023437-2.0234375zm0.976563 2c-0.552285 0-1 0.4477153-1 1s0.447715 1 1 1 1-0.4477153 1-1-0.447715-1-1-1zm1.499996 21c-0.277 0-0.5 0.223-0.5 0.5s0.223 0.5 0.5 0.5h5c0.276999 0 0.5-0.223 0.5-0.5s-0.223001-0.5-0.5-0.5z"/>
        <path id="path1-8" d="m10.468869 10.220421-1.0730789 1.073076 3.1550449 3.253606h-11.155045v1.492789h11.15505l-3.2281278 3.180527 1.0730778 1.073078 4.673318-4.673317 0.326682-0.326683-0.326682-0.326683z" color="#31363b" stroke-width="1.10769"/>
    </g>
</svg>
