<?xml version="1.0" encoding="UTF-8" standalone="no"?>

<!-- Created with Inkscape (http://www.inkscape.org/) -->
<svg width="16" version="1.1" xmlns="http://www.w3.org/2000/svg" height="16" viewBox="0 0 16 16" xmlns:inkscape="http://www.inkscape.org/namespaces/inkscape">
 <defs id="defs4"/>
 <metadata id="metadata7"/>
 <g inkscape:label="Capa 1" inkscape:groupmode="layer" style="fill:#f27935" id="layer1-1" transform="matrix(1 0 0 1 -421.71429 -531.79074)">
  <path inkscape:connector-curvature="0" style="color:#4d4d4d;stroke-linecap:round" id="rect4449" d="M 2,2 2,14 14,14 14,2 12,2 12,4 10,4 10,2 6,2 6,4 4,4 4,2 2,2 Z m 1,3 10,0 0,8 -10,0 0,-8 z" transform="matrix(1 0 0 1 421.71429 531.79074)"/>
  <path inkscape:connector-curvature="0" style="color:#4d4d4d;stroke-linecap:round" id="rect4634" d="m 428.71429,540.79074 0,3 1,0 0,-1 3,0 0,1 1,0 0,-3 -1,0 0,1 -3,0 0,-1 -1,0 z"/>
  <path inkscape:connector-curvature="0" style="color:#4d4d4d;stroke-linecap:round" id="rect4634-8" d="m 425.71429,537.79074 0,3 1,0 0,-1 4,0 0,1 1,0 0,-3 -1,0 0,1 -4,0 0,-1 z"/>
 </g>
</svg>
