<?xml version="1.0" encoding="UTF-8" standalone="no"?>
<!-- Created with Inkscape (http://www.inkscape.org/) -->

<svg
   xmlns:dc="http://purl.org/dc/elements/1.1/"
   xmlns:cc="http://creativecommons.org/ns#"
   xmlns:rdf="http://www.w3.org/1999/02/22-rdf-syntax-ns#"
   xmlns:svg="http://www.w3.org/2000/svg"
   xmlns="http://www.w3.org/2000/svg"
   xmlns:sodipodi="http://sodipodi.sourceforge.net/DTD/sodipodi-0.dtd"
   xmlns:inkscape="http://www.inkscape.org/namespaces/inkscape"
   width="16"
   version="1.1"
   height="16"
   viewBox="0 0 16 16"
   id="svg2"
   inkscape:version="0.91 r13725"
   sodipodi:docname="application-pkix-cert.svg">
  <sodipodi:namedview
     pagecolor="#ffffff"
     bordercolor="#666666"
     borderopacity="1"
     objecttolerance="10"
     gridtolerance="10"
     guidetolerance="10"
     inkscape:pageopacity="0"
     inkscape:pageshadow="2"
     inkscape:window-width="1024"
     inkscape:window-height="717"
     id="namedview7"
     showgrid="true"
     inkscape:object-nodes="true"
     inkscape:zoom="29.5"
     inkscape:cx="8.2343984"
     inkscape:cy="8.2839496"
     inkscape:window-x="0"
     inkscape:window-y="0"
     inkscape:window-maximized="1"
     inkscape:current-layer="svg2">
    <inkscape:grid
       type="xygrid"
       id="grid4156" />
  </sodipodi:namedview>
  <defs
     id="defs4" />
  <metadata
     id="metadata7">
    <rdf:RDF>
      <cc:Work
         rdf:about="">
        <dc:format>image/svg+xml</dc:format>
        <dc:type
           rdf:resource="http://purl.org/dc/dcmitype/StillImage" />
        <dc:title></dc:title>
      </cc:Work>
    </rdf:RDF>
  </metadata>
  <path
     style="fill:#22a7f0;fill-opacity:1;stroke:none"
     d="M 2 3 L 2 4 L 3 4 L 13 4 L 13 12 L 3 12 L 2 12 L 2 13 L 14 13 L 14 3 L 2 3 z M 4.5 5 C 3.669 5 3 5.669 3 6.5 L 3 8 L 2 8 L 2 11 L 7 11 L 7 8 L 6 8 L 6 6.5 C 6 5.669 5.331 5 4.5 5 z M 4.5 6 C 4.777 6 5 6.223 5 6.5 L 5 8 L 4 8 L 4 6.5 C 4 6.223 4.223 6 4.5 6 z M 8 6 L 8 7 L 12 7 L 12 6 L 8 6 z M 8 8 L 8 9 L 11 9 L 11 8 L 8 8 z M 8 10 L 8 11 L 10 11 L 10 10 L 8 10 z "
     id="path6" />
</svg>
