<?xml version="1.0" encoding="UTF-8" standalone="no"?>
<!-- Created with Inkscape (http://www.inkscape.org/) -->

<svg
   xmlns:dc="http://purl.org/dc/elements/1.1/"
   xmlns:cc="http://creativecommons.org/ns#"
   xmlns:rdf="http://www.w3.org/1999/02/22-rdf-syntax-ns#"
   xmlns:svg="http://www.w3.org/2000/svg"
   xmlns="http://www.w3.org/2000/svg"
   xmlns:sodipodi="http://sodipodi.sourceforge.net/DTD/sodipodi-0.dtd"
   xmlns:inkscape="http://www.inkscape.org/namespaces/inkscape"
   width="16"
   height="16"
   id="svg2"
   version="1.1"
   inkscape:version="0.91 r13725"
   viewBox="0 0 16 16"
   sodipodi:docname="application-x-skg.svg">
  <defs
     id="defs4">
    <style
       id="current-color-scheme"
       type="text/css">
      .ColorScheme-Text {
        color:#4d4d4d;
      }
      .ColorScheme-Background {
        color:#eff0f1;
      }
      .ColorScheme-Highlight {
        color:#3daee9;
      }
      .ColorScheme-ViewText {
        color:#31363b;
      }
      .ColorScheme-ViewBackground {
        color:#fcfcfc;
      }
      .ColorScheme-ViewHover {
        color:#93cee9;
      }
      .ColorScheme-ViewFocus{
        color:#3daee9;
      }
      .ColorScheme-ButtonText {
        color:#31363b;
      }
      .ColorScheme-ButtonBackground {
        color:#eff0f1;
      }
      .ColorScheme-ButtonHover {
        color:#93cee9;
      }
      .ColorScheme-ButtonFocus{
        color:#3daee9;
      }
      </style>
  </defs>
  <sodipodi:namedview
     id="base"
     pagecolor="#ffffff"
     bordercolor="#666666"
     borderopacity="1.0"
     inkscape:pageopacity="0.0"
     inkscape:pageshadow="2"
     inkscape:zoom="33.782026"
     inkscape:cx="0.19171178"
     inkscape:cy="8.5848143"
     inkscape:document-units="px"
     inkscape:current-layer="layer1"
     showgrid="true"
     inkscape:showpageshadow="false"
     borderlayer="true"
     units="px"
     inkscape:window-width="1920"
     inkscape:window-height="1023"
     inkscape:window-x="0"
     inkscape:window-y="0"
     inkscape:window-maximized="1"
     showguides="true">
    <inkscape:grid
       type="xygrid"
       id="grid4062" />
    <sodipodi:guide
       position="2,14.000017"
       orientation="12,0"
       id="guide4066" />
    <sodipodi:guide
       position="2,2.0000174"
       orientation="0,12"
       id="guide4068" />
    <sodipodi:guide
       position="14,2.0000174"
       orientation="-12,0"
       id="guide4070" />
    <sodipodi:guide
       position="14,14.000017"
       orientation="0,-12"
       id="guide4072" />
  </sodipodi:namedview>
  <metadata
     id="metadata7">
    <rdf:RDF>
      <cc:Work
         rdf:about="">
        <dc:format>image/svg+xml</dc:format>
        <dc:type
           rdf:resource="http://purl.org/dc/dcmitype/StillImage" />
        <dc:title></dc:title>
      </cc:Work>
    </rdf:RDF>
  </metadata>
  <g
     inkscape:label="Capa 1"
     inkscape:groupmode="layer"
     id="layer1"
     transform="translate(0,-1036.3622)">
    <g
       transform="translate(-421.71429,504.57146)"
       id="layer1-1"
       inkscape:label="Capa 1"
       style="fill:#fdd285;fill-opacity:1">
      <path
         class="ColorScheme-Text"
         id="path2993"
         transform="translate(421.71429,531.79074)"
         d="m 7.5,2 0,1.125 C 6.657105,3.2031674 5.9928939,3.4158583 5.5,3.8125 4.95761,4.2447 4.6875,4.88402 4.6875,5.71875 4.6875,6.88402 5.38454,7.63984 6.8125,8 L 7.5,8.1875 7.5,11.875 C 6.6128298,11.795706 5.7812569,11.601634 5,11.21875 L 4.65625,12.125 c 0.31778,0.19491 0.7516,0.3787 1.28125,0.53125 C 6.4023232,12.785363 6.9259807,12.84223 7.5,12.875 L 7.5,14 7.75,14 8.34375,14 8.5,14 8.5,12.875 C 9.349811,12.80657 10.03337,12.547817 10.53125,12.09375 11.06515,11.61071 11.34374,10.91102 11.34375,10 11.34374,9.26271 11.14405,8.7108 10.75,8.3125 10.35592,7.90995 9.7627,7.61971 9,7.4375 l -0.5,-0.125 0,-3.25 c 0.3855531,0.028944 0.78709,0.083097 1.15625,0.1875 0.42373,0.11442 0.74151,0.26219 1,0.40625 L 10.96875,3.75 C 10.328483,3.3513511 9.507613,3.1129214 8.5,3.0625 L 8.5,2 8.34375,2 7.75,2 7.5,2 Z M 7.28125,4.09375 c 0.065458,-0.010982 0.1489476,0.00794 0.21875,0 L 7.5,7.0625 7.21875,7 C 6.74841,6.8856 6.39353,6.71611 6.15625,6.5 5.9232,6.27967 5.81249,5.98518 5.8125,5.625 5.8124912,4.76855 6.2950199,4.2592177 7.28125,4.09375 Z M 8.5,8.40625 8.6875,8.46875 c 0.57626,0.14407 0.97139,0.33952 1.1875,0.59375 0.22034,0.25001 0.31249,0.59323 0.3125,1 -10e-6,1.13306 -0.5629367,1.734764 -1.6875,1.84375 l 0,-3.5 z"
         style="color:#4d4d4d;font-style:normal;font-variant:normal;font-weight:normal;font-stretch:normal;font-size:13px;line-height:125%;font-family:Oxygen;-inkscape-font-specification:Oxygen;letter-spacing:0px;word-spacing:0px;fill:#fdd285;fill-opacity:1;stroke:none"
         inkscape:connector-curvature="0" />
    </g>
  </g>
</svg>
