<?xml version="1.0" encoding="UTF-8" standalone="no"?>
<!-- Created with Inkscape (http://www.inkscape.org/) -->

<svg
   xmlns:dc="http://purl.org/dc/elements/1.1/"
   xmlns:cc="http://creativecommons.org/ns#"
   xmlns:rdf="http://www.w3.org/1999/02/22-rdf-syntax-ns#"
   xmlns:svg="http://www.w3.org/2000/svg"
   xmlns="http://www.w3.org/2000/svg"
   xmlns:sodipodi="http://sodipodi.sourceforge.net/DTD/sodipodi-0.dtd"
   xmlns:inkscape="http://www.inkscape.org/namespaces/inkscape"
   width="16"
   height="16"
   id="svg2"
   version="1.1"
   inkscape:version="0.91 r13725"
   viewBox="0 0 16 16"
   sodipodi:docname="application-x-xliff-16.svg">
  <defs
     id="defs4" />
  <sodipodi:namedview
     id="base"
     pagecolor="#ffffff"
     bordercolor="#666666"
     borderopacity="1.0"
     inkscape:pageopacity="0.0"
     inkscape:pageshadow="2"
     inkscape:zoom="13.788817"
     inkscape:cx="-9.7580449"
     inkscape:cy="12.959453"
     inkscape:document-units="px"
     inkscape:current-layer="layer1"
     showgrid="true"
     inkscape:showpageshadow="false"
     borderlayer="true"
     inkscape:window-width="1366"
     inkscape:window-height="699"
     inkscape:window-x="0"
     inkscape:window-y="0"
     inkscape:window-maximized="1"
     units="px"
     inkscape:snap-bbox="true"
     inkscape:snap-global="false">
    <inkscape:grid
       type="xygrid"
       id="grid4101" />
    <sodipodi:guide
       position="2,14.000017"
       orientation="12,0"
       id="guide4071" />
    <sodipodi:guide
       position="2,2.0000174"
       orientation="0,12"
       id="guide4073" />
    <sodipodi:guide
       position="14,2.0000174"
       orientation="-12,0"
       id="guide4075" />
    <sodipodi:guide
       position="14,14.000017"
       orientation="0,-12"
       id="guide4077" />
  </sodipodi:namedview>
  <metadata
     id="metadata7">
    <rdf:RDF>
      <cc:Work
         rdf:about="">
        <dc:format>image/svg+xml</dc:format>
        <dc:type
           rdf:resource="http://purl.org/dc/dcmitype/StillImage" />
        <dc:title></dc:title>
      </cc:Work>
    </rdf:RDF>
  </metadata>
  <g
     inkscape:label="Capa 1"
     inkscape:groupmode="layer"
     id="layer1"
     transform="translate(0,-1036.3622)">
    <path
       inkscape:connector-curvature="0"
       d="m 8.4884289,1046.5213 -1.3858793,-1.3696 0.016374,-0.016 c 0.949384,-1.0586 1.6259565,-2.2752 2.0242551,-3.5629 l 1.5986782,0 0,-1.0912 -3.8193583,0 0,-1.0913 -1.0912451,0 0,1.0913 -3.8193509,0 0,1.0857 6.0945946,0 c -0.3655646,1.0531 -0.9439284,2.0516 -1.7296212,2.9246 -0.5074259,-0.562 -0.9275541,-1.1786 -1.2603918,-1.8279 l -1.091238,0 c 0.3983056,0.8894 0.9439281,1.7296 1.6259563,2.488 l -2.7772138,2.7391 0.7747815,0.7747 2.7281058,-2.728 1.6968872,1.6968 0.4146656,-1.113 z m 3.0718551,-2.7664 -1.091238,0 -2.455309,6.5475 1.0912451,0 0.6110975,-1.6368 2.5917074,0 0.616546,1.6368 1.091245,0 -2.455294,-6.5475 z m -1.429532,3.8194 0.883909,-2.3625 0.883909,2.3625 -1.767818,0 z"
       id="path6"
       style="fill:#656f9d;fill-opacity:1" />
  </g>
</svg>
