<?xml version="1.0" encoding="UTF-8" standalone="no"?>

<!-- Created with Inkscape (http://www.inkscape.org/) -->
<svg width="16" version="1.1" xmlns="http://www.w3.org/2000/svg" height="16" viewBox="0 0 16 16" xmlns:inkscape="http://www.inkscape.org/namespaces/inkscape">
 <defs id="defs4"/>
 <metadata id="metadata7"/>
 <path inkscape:label="Capa 1" inkscape:groupmode="layer" style="fill:#6c7a89;color:#000000;stroke-width:0.1" id="path3787" d="M 8 2 C 4.686287 2 2 4.6863 2 8 C 2 11.3137 4.686287 14 8 14 C 11.313713 14 14 11.3137 14 8 C 14 4.6863 11.313713 2 8 2 z M 8 3 C 10.761424 3 13 5.2386 13 8 C 13 10.7614 10.761424 13 8 13 C 5.238576 13 3 10.7614 3 8 C 3 5.2386 5.238576 3 8 3 z M 8 4 C 5.790861 4 4 5.7909 4 8 L 6 8 C 6 6.8954 6.895431 6 8 6 L 8 4 z M 8 7 A 1 1 0 0 0 7 8 A 1 1 0 0 0 8 9 A 1 1 0 0 0 9 8 A 1 1 0 0 0 8 7 z M 10 8 C 10 9.1046 9.104569 10 8 10 L 8 12 C 10.209139 12 12 10.2091 12 8 L 10 8 z "/>
</svg>
