<?xml version="1.0" encoding="UTF-8" standalone="no"?>

<!-- Created with Inkscape (http://www.inkscape.org/) -->
<svg width="16" version="1.1" xmlns="http://www.w3.org/2000/svg" height="16" viewBox="0 0 16 16" xmlns:inkscape="http://www.inkscape.org/namespaces/inkscape">
 <defs id="defs4"/>
 <metadata id="metadata7"/>
 <path inkscape:label="Capa 1" inkscape:groupmode="layer" inkscape:connector-curvature="0" style="fill:#04896a" id="rect4136" d="m 8,1038.3622 c -1.662,0 -3,1.338 -3,3 l 0,3 -2,0 0,0.75 0,5.25 c 3.4472235,0 7.033564,0 10,0 l 0,-6 c -0.833333,0 -1.166667,0 -2,0 l 0,-3 c 0,-1.662 -1.338,-3 -3,-3 z m 0,1 c 1.2465,0 2,0.5458 2,2 l 0,3 -4,0 0,-3 c 0,-1.4542 0.753506,-2 2,-2 z m -4,6 8,0 0,4 -8,0 z" transform="matrix(1 0 0 1 0 -1036.3622)"/>
</svg>
