<?xml version="1.0" encoding="UTF-8" standalone="no"?>

<!-- Created with Inkscape (http://www.inkscape.org/) -->
<svg width="16" version="1.1" xmlns="http://www.w3.org/2000/svg" height="16" viewBox="0 0 16 16" xmlns:inkscape="http://www.inkscape.org/namespaces/inkscape">
 <defs id="defs4"/>
 <metadata id="metadata7"/>
 <path inkscape:label="Capa 1" inkscape:groupmode="layer" style="fill:#f27935;color:#000000;stroke-width:0.1" id="path3843" d="M 2 2 L 2 3 L 2 4 C 7.5228475 4 12 8.4771538 12 14 L 14 14 C 14 13.978814 14.00011 13.95866 14 13.9375 C 14 13.54628 13.974212 13.162781 13.9375 12.78125 C 13.935396 12.760535 13.939709 12.739434 13.9375 12.71875 C 13.898865 12.337871 13.823537 11.963149 13.75 11.59375 C 13.745921 11.573817 13.754178 11.551147 13.75 11.53125 C 13.513576 10.374719 13.106737 9.2893029 12.5625 8.28125 C 12.558349 8.2736081 12.566667 8.2576318 12.5625 8.25 C 11.083622 5.5263066 8.5791561 3.4520375 5.5625 2.53125 C 5.2059209 2.4203423 4.8387302 2.327682 4.46875 2.25 C 4.4487903 2.2459197 4.426246 2.2539806 4.40625 2.25 C 4.0357216 2.1741789 3.6633615 2.1033085 3.28125 2.0625 C 3.2607145 2.060417 3.2393163 2.064479 3.21875 2.0625 C 2.8359783 2.0236274 2.4550493 2.0020345 2.0625 2 C 2.0414115 2 2.0210627 1.999891 2 2 z M 2 6 L 2 7 L 2 8 C 5.3137084 8 8 10.686305 8 14 L 9 14 L 10 14 C 10 9.5817315 6.418278 6 2 6 z M 4 10 C 2.8954305 10 2 10.895431 2 12 C 2 13.104569 2.8954305 14 4 14 C 5.1045695 14 6 13.104569 6 12 C 6 10.895431 5.1045695 10 4 10 z "/>
</svg>
