<?xml version="1.0" encoding="UTF-8" standalone="no"?>

<!-- Created with Inkscape (http://www.inkscape.org/) -->
<svg width="16" version="1.1" xmlns="http://www.w3.org/2000/svg" height="16" viewBox="0 0 16 16" xmlns:inkscape="http://www.inkscape.org/namespaces/inkscape">
 <defs id="defs4"/>
 <metadata id="metadata7"/>
 <g inkscape:label="Capa 1" inkscape:groupmode="layer" id="layer1" transform="matrix(1 0 0 1 0 -1036.3622)">
  <rect width="0" x="-17" y="1039.3622" height="10.999983" style="fill:#e00a5e" id="rect4035"/>
  <path inkscape:connector-curvature="0" style="fill:#e00a5e" id="path88" d="m 13.634953,1038.3678 a 1.500133,6.7506007 44.989453 0 0 -5.5835433,3.8242 1.500133,6.7506007 44.989453 0 0 -2.657025,3.0857 c 0.8069772,0.2571 1.4359595,0.8862 1.6929526,1.6935 a 1.500133,6.7506007 44.989453 0 0 3.0847227,-2.6579 1.500133,6.7506007 44.989453 0 0 3.711626,-5.8345 1.500133,6.7506007 44.989453 0 0 -0.249013,-0.1114 m -8.6347572,7.9939 C 2,1047.1655 4.249937,1049.0649 2,1050.3622 c 2.9999158,0 4.4998734,-1.5014 4.4998734,-2.5026 0,-0.4991 0.051,-1.4173 -1.4999576,-1.5003"/>
 </g>
</svg>
