<?xml version="1.0" encoding="UTF-8" standalone="no"?>

<!-- Created with Inkscape (http://www.inkscape.org/) -->
<svg width="16" version="1.1" xmlns="http://www.w3.org/2000/svg" height="16" viewBox="0 0 16 16" xmlns:inkscape="http://www.inkscape.org/namespaces/inkscape">
 <defs id="defs4"/>
 <metadata id="metadata7"/>
 <path inkscape:label="Capa 1" inkscape:groupmode="layer" style="fill:#8e44ad" id="path4147" d="M 8 2 A 6 2 0 0 0 2 4 L 2 8 A 6 2 0 0 0 7 9.9707031 L 7 12 L 5 12 L 5 11 L 2 11 L 2 14 L 5 14 L 5 13 L 11 13 L 11 14 L 14 14 L 14 11 L 11 11 L 11 12 L 9 12 L 9 9.9707031 A 6 2 0 0 0 14 8 L 13 8 A 5 1 0 0 1 8 9 A 5 1 0 0 1 3 8 L 3 7 L 3 6.8964844 L 3 5.1015625 A 6 2 0 0 0 8 6 L 8 5 A 5 1 0 0 1 3 4 A 5 1 0 0 1 8 3 L 8 2 z M 9 2 L 9 3 L 9 4 L 9 5 L 10 5 L 10 4 L 10.5 4 C 11.331 4 12 4.669 12 5.5 C 12 6.331 11.331 7 10.5 7 L 9 7 L 9 8 L 10.5 8 C 11.885 8 13 6.885 13 5.5 C 13 4.115 11.885 3 10.5 3 L 12 3 L 12 2 L 9 2 z M 3 12 L 4 12 L 4 13 L 3 13 L 3 12 z M 12 12 L 13 12 L 13 13 L 12 13 L 12 12 z "/>
</svg>
