<?xml version="1.0" encoding="UTF-8" standalone="no"?>

<!-- Created with Inkscape (http://www.inkscape.org/) -->
<svg width="16" version="1.1" xmlns="http://www.w3.org/2000/svg" height="16" viewBox="0 0 16 16" xmlns:inkscape="http://www.inkscape.org/namespaces/inkscape">
 <defs id="defs4"/>
 <metadata id="metadata7"/>
 <path inkscape:label="Capa 1" inkscape:groupmode="layer" inkscape:connector-curvature="0" style="fill:#7fcc74;color:#4d4d4d" id="rect3179" d="M 7.5,3 C 4.4624342,3 2,5.4624326 2,8.5 2,11.537567 4.4624342,14 7.5,14 10.537566,14 13,11.537567 13,8.5 13,5.4624326 10.537566,3 7.5,3 Z m 0,1 C 9.985281,4 12,6.0147312 12,8.5 12,10.985269 9.985281,13 7.5,13 5.0147189,13 3,10.985269 3,8.5 3,6.0147312 5.0147189,4 7.5,4 Z M 7,5 7,6 8,6 8,5 7,5 Z m 0,2 0,5 1,0 0,-5 -1,0 z" transform="matrix(0.99999998 0 0 1 0 0.000005)"/>
</svg>
