<?xml version="1.0" encoding="UTF-8" standalone="no"?>
<!-- Created with Inkscape (http://www.inkscape.org/) -->

<svg
   xmlns:dc="http://purl.org/dc/elements/1.1/"
   xmlns:cc="http://creativecommons.org/ns#"
   xmlns:rdf="http://www.w3.org/1999/02/22-rdf-syntax-ns#"
   xmlns:svg="http://www.w3.org/2000/svg"
   xmlns="http://www.w3.org/2000/svg"
   xmlns:sodipodi="http://sodipodi.sourceforge.net/DTD/sodipodi-0.dtd"
   xmlns:inkscape="http://www.inkscape.org/namespaces/inkscape"
   width="16"
   version="1.1"
   height="16"
   viewBox="0 0 16 16"
   id="svg2"
   inkscape:version="0.91 r13725"
   sodipodi:docname="application-x-gettext-translation-16.svg">
  <sodipodi:namedview
     pagecolor="#ffffff"
     bordercolor="#666666"
     borderopacity="1"
     objecttolerance="10"
     gridtolerance="10"
     guidetolerance="10"
     inkscape:pageopacity="0"
     inkscape:pageshadow="2"
     inkscape:window-width="1366"
     inkscape:window-height="699"
     id="namedview9"
     showgrid="false"
     inkscape:zoom="29.495206"
     inkscape:cx="8.2373267"
     inkscape:cy="8"
     inkscape:window-x="0"
     inkscape:window-y="0"
     inkscape:window-maximized="1"
     inkscape:current-layer="layer1" />
  <defs
     id="defs4" />
  <metadata
     id="metadata7">
    <rdf:RDF>
      <cc:Work
         rdf:about="">
        <dc:format>image/svg+xml</dc:format>
        <dc:type
           rdf:resource="http://purl.org/dc/dcmitype/StillImage" />
        <dc:title></dc:title>
      </cc:Work>
    </rdf:RDF>
  </metadata>
  <g
     inkscape:label="Capa 1"
     inkscape:groupmode="layer"
     id="layer1"
     transform="matrix(1 0 0 1 0 -1036.3622)">
    <path
       inkscape:connector-curvature="0"
       style="fill:#6c7a89"
       id="rect4138"
       d="M 2,2 2,5 2,13.25 2,14 14,14 14,13.25 14,9.5 14,5 14,2 Z m 1,3 10,0 0,8 C 9.449069,12.963 6.549687,12.923 3,13 Z"
       transform="matrix(1 0 0 1 0 1036.3622)" />
    <path
       inkscape:connector-curvature="0"
       d="m 8.3377825,1046.5543 -1.0317886,-1.0196 0.012146,-0.012 c 0.7068109,-0.788 1.2105156,-1.6938 1.5070445,-2.6525 l 1.1902086,0 0,-0.8125 -2.8434896,0 0,-0.8124 -0.8124234,0 0,0.8124 -2.843489,0 0,0.8084 4.5373945,0 c -0.2721646,0.784 -0.7027478,1.5274 -1.2876938,2.1773 -0.3777843,-0.4184 -0.6905584,-0.8774 -0.9383515,-1.3608 l -0.8124306,0 c 0.2965362,0.6621 0.7027551,1.2877 1.2105233,1.8524 l -2.0676338,2.0391 0.5768342,0.5768 2.0310584,-2.0311 1.2633222,1.2634 0.3087179,-0.8287 z m 2.2869715,-2.0595 -0.8124316,0 -1.8279522,4.8746 0.8124302,0 0.454962,-1.2186 1.9295026,0 0.459018,1.2186 0.812424,0 -1.827953,-4.8746 z m -1.0642805,2.8435 0.6580615,-1.7589 0.658068,1.7589 -1.3161295,0 z"
       id="path6"
       style="fill:#6c7a89;fill-opacity:1" />
  </g>
</svg>
