<?xml version="1.0" encoding="UTF-8" standalone="no"?>

<!-- Created with Inkscape (http://www.inkscape.org/) -->
<svg width="16" version="1.1" xmlns="http://www.w3.org/2000/svg" height="16" viewBox="0 0 16 16" xmlns:inkscape="http://www.inkscape.org/namespaces/inkscape">
 <defs id="defs4"/>
 <metadata id="metadata7"/>
 <path inkscape:label="Capa 1" inkscape:groupmode="layer" style="fill:#4f5b93;color:#000000;stroke-width:0.1" id="rect3918" d="M 9.0898438 2 L 5.9433594 13.740234 L 6.9101562 14 L 10.056641 2.2597656 L 9.0898438 2 z M 5.2851562 4 L 2.3242188 7.1445312 L 2 7.4921875 L 2.3242188 7.8378906 L 5.2675781 11 L 5.9824219 10.304688 L 3.3613281 7.4921875 L 6 4.6953125 L 5.2851562 4 z M 12 4 C 10.892 4 10 4.892 10 6 L 10 7 L 11 7 L 11 6 C 11 5.446 11.446 5 12 5 C 12.554 5 13 5.446 13 6 L 13 7 C 11.892 7 11 7.892 11 9 L 12 9 C 12 8.446 12.446 8 13 8 L 14 8 L 14 7.2773438 L 14 6 C 14 4.892 13.108 4 12 4 z M 11.5 10 A 0.5 0.5 0 0 0 11 10.5 A 0.5 0.5 0 0 0 11.5 11 A 0.5 0.5 0 0 0 12 10.5 A 0.5 0.5 0 0 0 11.5 10 z "/>
</svg>
