<?xml version="1.0" encoding="UTF-8" standalone="no"?>

<!-- Created with Inkscape (http://www.inkscape.org/) -->
<svg width="16" version="1.1" xmlns="http://www.w3.org/2000/svg" height="16" viewBox="0 0 16 16" xmlns:inkscape="http://www.inkscape.org/namespaces/inkscape">
 <defs id="defs4"/>
 <metadata id="metadata7"/>
 <path inkscape:label="Capa 1" inkscape:groupmode="layer" style="fill:#6c7a89" id="rect4153" d="M 3 2 L 3 3 L 3 5 L 1 5 L 1 6 L 1 12 L 1 12.5 C 1 13.331 1.669 14 2.5 14 L 14 14 L 15 14 L 15 2 L 14 2 L 4 2 L 3 2 z M 4 3 L 14 3 L 14 13 L 4 13 L 4 6 L 4 5 L 4 3 z M 5 4 L 5 5 L 13 5 L 13 4 L 5 4 z M 2 6 L 3 6 L 3 13 L 2.5 13 C 2.223 13 2 12.777 2 12.5 L 2 11.900391 L 2 6 z M 5 6 L 5 10 L 9 10 L 9 6 L 5 6 z M 10 6 L 10 7 L 13 7 L 13 6 L 10 6 z M 10 9 L 10 10 L 13 10 L 13 9 L 10 9 z M 5 11 L 5 12 L 13 12 L 13 11 L 5 11 z "/>
</svg>
