<?xml version="1.0" encoding="UTF-8" standalone="no"?>

<!-- Created with Inkscape (http://www.inkscape.org/) -->
<svg width="16" version="1.1" xmlns="http://www.w3.org/2000/svg" height="16" viewBox="0 0 16 16" xmlns:inkscape="http://www.inkscape.org/namespaces/inkscape">
 <defs id="defs4"/>
 <metadata id="metadata7"/>
 <path inkscape:label="Capa 1" inkscape:groupmode="layer" inkscape:connector-curvature="0" style="fill:#f27935;stroke-linecap:square;stroke-width:2" id="rect4177" d="m 2,1038.3622 0,12 12,0 0,-12 -12,0 z m 1,1 10,0 0,1 -10,0 0,-1 z m 6,2 3,0 0,1 -3,0 0,-1 z m -6,2 10,0 0,2 -10,0 0,-2 z m 6,3 3,0 0,1 -3,0 0,-1 z m -6,2 10,0 0,1 -10,0 0,-1 z" transform="matrix(1 0 0 1 0 -1036.3622)"/>
</svg>
