<?xml version="1.0" encoding="UTF-8" standalone="no"?>

<!-- Created with Inkscape (http://www.inkscape.org/) -->
<svg width="16" version="1.1" xmlns="http://www.w3.org/2000/svg" height="16" viewBox="0 0 16 16" xmlns:inkscape="http://www.inkscape.org/namespaces/inkscape">
 <defs id="defs4"/>
 <metadata id="metadata7"/>
 <path inkscape:label="Capa 1" inkscape:groupmode="layer" style="fill:#04896a" id="rect4089" d="M 2 2 L 2 14 L 14 14 L 14 2 L 12 2 L 12 3 L 10 3 L 10 2 L 6 2 L 6 3 L 4 3 L 4 2 L 2 2 z M 3 5 L 13 5 L 13 13 L 3 13 L 3 5 z M 4 6 L 4 8 L 6 8 L 6 6 L 4 6 z M 7 6 L 7 8 L 9 8 L 9 6 L 7 6 z M 10 6 L 10 8 L 12 8 L 12 6 L 10 6 z M 7 9 L 7 11 L 9 11 L 9 9 L 7 9 z M 10 9 L 10 11 L 12 11 L 12 9 L 10 9 z "/>
</svg>
