<?xml version="1.0" encoding="UTF-8" standalone="no"?>
<!-- Created with Inkscape (http://www.inkscape.org/) -->

<svg
   xmlns:dc="http://purl.org/dc/elements/1.1/"
   xmlns:cc="http://creativecommons.org/ns#"
   xmlns:rdf="http://www.w3.org/1999/02/22-rdf-syntax-ns#"
   xmlns:svg="http://www.w3.org/2000/svg"
   xmlns="http://www.w3.org/2000/svg"
   xmlns:sodipodi="http://sodipodi.sourceforge.net/DTD/sodipodi-0.dtd"
   xmlns:inkscape="http://www.inkscape.org/namespaces/inkscape"
   width="22"
   version="1.1"
   height="22"
   id="svg2"
   inkscape:version="0.91 r13725"
   sodipodi:docname="image-x-generic.svg">
  <sodipodi:namedview
     pagecolor="#ffffff"
     bordercolor="#666666"
     borderopacity="1"
     objecttolerance="10"
     gridtolerance="10"
     guidetolerance="10"
     inkscape:pageopacity="0"
     inkscape:pageshadow="2"
     inkscape:window-width="1366"
     inkscape:window-height="699"
     id="namedview14"
     showgrid="false"
     inkscape:zoom="28.31664"
     inkscape:cx="11.652542"
     inkscape:cy="11"
     inkscape:window-x="0"
     inkscape:window-y="0"
     inkscape:window-maximized="1"
     inkscape:current-layer="layer1" />
  <defs
     id="defs3871" />
  <metadata
     id="metadata3874">
    <rdf:RDF>
      <cc:Work
         rdf:about="">
        <dc:format>image/svg+xml</dc:format>
        <dc:type
           rdf:resource="http://purl.org/dc/dcmitype/StillImage" />
      </cc:Work>
    </rdf:RDF>
  </metadata>
  <g
     inkscape:label="Capa 1"
     inkscape:groupmode="layer"
     id="layer1"
     transform="matrix(1 0 0 1 -326 -534.3622)">
    <rect
       width="0"
       x="326.49567"
       y="535.98694"
       height="10.999983"
       style="fill:#f27935"
       id="rect4035" />
    <rect
       width="0"
       x="321.94366"
       y="538.50604"
       height="10.999983"
       style="fill:#f27935"
       id="rect4035-7" />
    <rect
       width="0"
       x="317.43588"
       y="526.08746"
       height="10.999983"
       style="fill:#f27935"
       id="rect4035-9" />
    <rect
       width="0"
       x="318.27991"
       y="538.32489"
       height="10.999983"
       style="fill:#f27935"
       id="rect4035-96" />
    <rect
       width="0"
       x="313.72791"
       y="540.84399"
       height="10.999983"
       style="fill:#f27935"
       id="rect4035-7-0" />
    <rect
       width="0"
       x="309.22012"
       y="528.42542"
       height="10.999983"
       style="fill:#f27935"
       id="rect4035-9-6" />
    <g
       transform="matrix(0.13474114,0,0,0.13474114,268.82866,540.03443)"
       id="publisher">
      <path
         style="fill:#7fcc74;fill-opacity:1"
         inkscape:connector-curvature="0"
         d="m 507.7253,-15.852959 7.91321,0 c 0,7.993138 0,15.98627598 0,23.979414 3.11732,0 6.24797,0 9.37862,0 0.37301,-4.7559171 -1.77182,-12.3094325 4.22304,-14.2544294 8.28622,-0.9724985 16.69233,-0.093253 25.03184,-0.4396226 3.29051,0.2930817 7.50023,-0.7993138 9.9781,2.0116064 0.70606,1.9050312 0.61281,3.99656895 0.70606,6.0081753 -0.04,18.1977113 -0.0666,36.4087433 0.0133,54.6064543 -0.0533,2.424585 -0.0133,4.929102 -0.82595,7.247112 -4.03654,1.318868 -8.37948,0.666095 -12.53591,0.785992 -0.19983,6.074785 0.51955,12.242823 -0.4263,18.26432 -1.13236,3.117324 -4.83585,2.970783 -7.54019,3.050714 -9.33865,0.02664 -18.66398,-0.03997 -28.00263,-0.01332 0,4.436192 0,8.885705 0,13.321897 l -8.24625,0 c -20.3159,-3.690165 -40.67175,-7.087249 -61.00097,-10.657517 -0.0133,-31.079985 -0.0133,-62.15997 0,-93.2399548 20.43579,-3.5569464 40.89822,-7.0606052 61.33401,-10.6708392 z"
         id="path77" />
      <path
         style="fill:#ffffff;fill-opacity:1"
         inkscape:connector-curvature="0"
         d="m 531.46492,-2.1314054 c 9.7916,-0.8659233 19.6498,-0.1865066 29.46804,-0.3996569 0,20.4224673 0,40.8582573 0,61.2807243 -3.11733,0 -6.22133,0 -9.32533,0 -0.0266,-16.01292 0.04,-32.012517 -0.0266,-48.025437 C 545.3197,5.7684793 536.91358,3.7035853 531.46492,-2.1314054 Z"
         id="path79" />
      <path
         style="fill:#ffffff;fill-opacity:1"
         inkscape:connector-curvature="0"
         d="m 515.63851,12.123024 c 10.21789,0 20.42247,0 30.64036,0 0,23.086847 0,46.187016 0,69.273862 -10.21789,0 -20.42247,0 -30.64036,0 -0.0133,-2.664379 -0.0133,-5.328758 0,-7.993138 7.55352,0 15.09371,0 22.64722,0 -0.0133,-1.771812 -0.0133,-3.556946 0,-5.328758 -7.55351,0 -15.0937,0 -22.64722,0 -0.0133,-2.224757 -0.0133,-4.436192 0,-6.660949 7.55352,0 15.09371,0 22.64722,0 -0.0133,-1.771812 -0.0133,-3.556946 0,-5.328758 -7.55351,0 -15.0937,0 -22.64722,0 -0.0133,-2.224757 -0.0133,-4.436192 0,-6.660949 7.55352,0 15.09371,0 22.64722,0 -0.0133,-1.771812 -0.0133,-3.556946 0,-5.328758 -7.55351,0 -15.0937,0 -22.64722,0 -0.0133,-2.224757 -0.0133,-4.436192 0,-6.660948 7.55352,0 15.09371,0 22.64722,0 0,-6.221326 0,-12.42933 0,-18.650656 -7.55351,0 -15.0937,0 -22.64722,0 -0.0133,-2.224756 -0.0133,-4.436191 0,-6.660948 z"
         id="path81" />
      <path
         style="fill:#ffffff;fill-opacity:1"
         inkscape:connector-curvature="0"
         d="m 467.67968,19.410101 c 7.26044,0.226473 16.07953,-2.930817 22.10103,2.517839 5.71509,6.993996 4.18307,19.756373 -4.32962,23.926126 -3.02407,1.54534 -6.48776,1.345512 -9.76495,1.212293 -0.0133,5.222183 -0.0266,10.444367 -0.0133,15.679872 -2.69102,-0.266438 -5.38205,-0.532876 -8.05975,-0.825957 0.13322,-14.174498 0.0133,-28.335675 0.0666,-42.510173 z"
         id="path83" />
      <path
         style="fill:#7fcc74;fill-opacity:1"
         inkscape:connector-curvature="0"
         d="m 475.67282,26.56396 c 2.63774,-0.146541 5.94157,-0.626129 7.70006,1.918353 1.46541,2.611092 1.35883,6.008175 0.11989,8.685877 -1.54534,2.730988 -4.95574,2.46455 -7.62012,2.770954 -0.26644,-4.449513 -0.22647,-8.912349 -0.19983,-13.375184 z"
         id="path85" />
    </g>
  </g>
</svg>
