<?xml version="1.0" encoding="UTF-8" standalone="no"?>

<!-- Created with Inkscape (http://www.inkscape.org/) -->
<svg width="22" version="1.1" xmlns="http://www.w3.org/2000/svg" height="22" xmlns:inkscape="http://www.inkscape.org/namespaces/inkscape">
 <defs id="defs3871"/>
 <metadata id="metadata3874"/>
 <g inkscape:label="Capa 1" inkscape:groupmode="layer" id="layer1" transform="matrix(1 0 0 1 -326 -534.3622)">
  <rect width="0" x="256.22556" y="514.69751" height="14.668059" style="fill:#6c7a89" id="rect4035"/>
  <rect width="0" x="263.18613" y="537.26813" height="14.668059" style="fill:#6c7a89" id="rect4035-8"/>
  <rect width="0" x="264.99942" y="536.2074" height="14.668059" style="fill:#6c7a89" id="rect4035-0"/>
  <rect width="0" x="256.22556" y="514.69751" height="14.668059" style="fill:#6c7a89" id="rect4035-3"/>
  <rect width="0" x="263.18613" y="537.26813" height="14.668059" style="fill:#6c7a89" id="rect4035-8-9"/>
  <rect width="0" x="264.99942" y="536.2074" height="14.668059" style="fill:#6c7a89" id="rect4035-0-4"/>
  <path inkscape:label="Capa 1" inkscape:connector-curvature="0" style="fill:#6c7a89" id="rect4119" d="m 11,3 c -4.432,0 -8,3.568 -8,8 0,4.432 3.568,8 8,8 4.432,0 8,-3.568 8,-8 0,-4.432 -3.568,-8 -8,-8 z m 0,1 c 3.878,0 7,3.122 7,7 0,3.878 -3.122,7 -7,7 C 7.122,18 4,14.878 4,11 4,7.122 7.122,4 11,4 Z m 0,1 C 7.676004,5 5,7.676004 5,11 l 3,0 C 8,9.3380018 9.3380018,8 11,8 l 0,-3 z m 0,4 c -1.1079987,0 -2,0.8920013 -2,2 0,1.107999 0.8920013,2 2,2 1.107999,0 2,-0.892001 2,-2 0,-1.1079987 -0.892001,-2 -2,-2 z m 0,1 c 0.553999,0 1,0.446001 1,1 0,0.553999 -0.446001,1 -1,1 -0.553999,0 -1,-0.446001 -1,-1 0,-0.553999 0.446001,-1 1,-1 z m 3,1 c 0,1.661998 -1.338002,3 -3,3 l 0,3 c 3.323996,0 6,-2.676004 6,-6 l -3,0 z" transform="matrix(1 0 0 1 326 534.3622)"/>
 </g>
</svg>
