<?xml version="1.0" encoding="UTF-8" standalone="no"?>
<!-- Created with Inkscape (http://www.inkscape.org/) -->

<svg
   xmlns:dc="http://purl.org/dc/elements/1.1/"
   xmlns:cc="http://creativecommons.org/ns#"
   xmlns:rdf="http://www.w3.org/1999/02/22-rdf-syntax-ns#"
   xmlns:svg="http://www.w3.org/2000/svg"
   xmlns="http://www.w3.org/2000/svg"
   xmlns:sodipodi="http://sodipodi.sourceforge.net/DTD/sodipodi-0.dtd"
   xmlns:inkscape="http://www.inkscape.org/namespaces/inkscape"
   width="22"
   version="1.1"
   height="22"
   id="svg2"
   inkscape:version="0.91 r13725"
   sodipodi:docname="application-vnd.ms-excel.template.macroenabled.12-22.svg">
  <sodipodi:namedview
     pagecolor="#ffffff"
     bordercolor="#666666"
     borderopacity="1"
     objecttolerance="10"
     gridtolerance="10"
     guidetolerance="10"
     inkscape:pageopacity="0"
     inkscape:pageshadow="2"
     inkscape:window-width="1366"
     inkscape:window-height="699"
     id="namedview12"
     showgrid="false"
     inkscape:zoom="32.527278"
     inkscape:cx="11.652542"
     inkscape:cy="13.459474"
     inkscape:window-x="0"
     inkscape:window-y="0"
     inkscape:window-maximized="1"
     inkscape:current-layer="layer1" />
  <defs
     id="defs3871" />
  <metadata
     id="metadata3874">
    <rdf:RDF>
      <cc:Work
         rdf:about="">
        <dc:format>image/svg+xml</dc:format>
        <dc:type
           rdf:resource="http://purl.org/dc/dcmitype/StillImage" />
      </cc:Work>
    </rdf:RDF>
  </metadata>
  <g
     inkscape:label="Capa 1"
     inkscape:groupmode="layer"
     id="layer1"
     transform="matrix(1 0 0 1 -326 -534.3622)">
    <rect
       width="0"
       x="326.49567"
       y="535.98694"
       height="10.999983"
       style="fill:#6c7a89"
       id="rect4035" />
    <rect
       width="0"
       x="321.94366"
       y="538.50604"
       height="10.999983"
       style="fill:#6c7a89"
       id="rect4035-7" />
    <rect
       width="0"
       x="317.43588"
       y="526.08746"
       height="10.999983"
       style="fill:#6c7a89"
       id="rect4035-9" />
    <path
       inkscape:connector-curvature="0"
       style="fill:#6c7a89;stroke-linecap:round;stroke-linejoin:round;stroke-width:2"
       id="rect4169-4"
       d="m 336.9995,542.3622 c -0.83305,0 -1.61102,0.25574 -2.15908,0.73537 C 334.29225,543.5772 334,544.25818 334,544.98718 l 1.71383,0 c 0,-0.39586 0.13665,-0.6525 0.33838,-0.8289 0.20159,-0.17672 0.49525,-0.2961 0.94729,-0.2961 0.45287,0 0.7457,0.1194 0.94782,0.2961 0.20184,0.1764 0.33785,0.43304 0.33785,0.8289 0,0.3438 -0.076,0.49004 -0.18053,0.61969 -0.4469,0.39461 -0.98704,0.73165 -1.42122,1.05465 -0.49028,0.32186 -0.96904,0.74396 -0.96904,1.32568 l 0,0.37498 1.71403,0 0,-0.37498 c 0.60947,-0.54572 1.51702,-1.02166 2.0825,-1.522 0.29841,-0.37423 0.48909,-0.88402 0.48909,-1.47828 0,-0.729 -0.29241,-1.40972 -0.84025,-1.88935 -0.54823,-0.47963 -1.32672,-0.73537 -2.1599,-0.73537 z m -1.28512,7.50028 0,1.49972 1.71403,0 0,-1.49972 z" />
    <path
       inkscape:connector-curvature="0"
       style="fill:#ffffff;stroke-width:2;stroke-linecap:round;stroke-linejoin:round"
       id="rect4169-4-1"
       d="m 337.26532,542.6729 c -0.64674,0 -1.2506,0.22679 -1.67603,0.65221 -0.42542,0.42543 -0.65222,1.0293 -0.65222,1.67603 l 1.33043,0 c 0,-0.35108 0.10577,-0.57873 0.26245,-0.73538 0.15663,-0.15663 0.38428,-0.26244 0.73537,-0.26244 0.35108,0 0.57873,0.10577 0.73536,0.26244 0.15665,0.15665 0.26246,0.3843 0.26246,0.73538 0,0.3049 -0.0601,0.4346 -0.14032,0.54957 -0.34677,0.34985 -0.76614,0.64896 -1.10306,0.93547 -0.38029,0.28552 -0.75208,0.65986 -0.75208,1.17581 l 0,0.33261 1.33043,0 0,-0.33261 c 0.47285,-0.48404 1.17741,-0.90612 1.61607,-1.34991 0.2316,-0.33197 0.37938,-0.78432 0.37938,-1.31094 0,-0.64673 -0.2268,-1.2506 -0.65221,-1.67603 -0.42543,-0.42542 -1.0293,-0.65221 -1.67603,-0.65221 z m -0.99764,6.65213 0,1.33042 1.33043,0 0,-1.33042 z" />
    <path
       inkscape:connector-curvature="0"
       style="fill:#ffffff;stroke-width:2;stroke-linecap:round;stroke-linejoin:round"
       id="rect4169-4-5"
       d="m 337.4032,542.39996 c -0.70809,0 -1.36925,0.24831 -1.83503,0.71409 -0.46578,0.46577 -0.7141,1.12694 -0.7141,1.83503 l 1.45665,0 c 0,-0.3844 0.11588,-0.63364 0.28735,-0.80515 0.17149,-0.17147 0.42073,-0.28734 0.80513,-0.28734 0.38439,0 0.63363,0.11588 0.80514,0.28734 0.1715,0.17151 0.28734,0.42075 0.28734,0.80515 0,0.33382 -0.0659,0.47583 -0.15364,0.60173 -0.37965,0.38301 -0.8388,0.7105 -1.20769,1.02419 -0.41636,0.31262 -0.82341,0.72247 -0.82341,1.28737 l 0,0.36415 1.45663,0 0,-0.36415 c 0.5177,-0.52998 1.28911,-0.9921 1.76938,-1.478 0.25358,-0.36343 0.41538,-0.85871 0.41538,-1.43529 0,-0.70809 -0.2483,-1.36926 -0.7141,-1.83503 -0.46579,-0.46578 -1.12694,-0.71409 -1.83503,-0.71409 z m -1.09226,7.28322 0,1.45663 1.45663,0 0,-1.45663 z" />
    <path
       style="fill:#6c7a89;fill-opacity:1"
       inkscape:connector-curvature="0"
       d="m 337.36136,537.70644 1.07749,0 c 0,0.48434 0,0.96685 0,1.45118 1.81577,0 3.63155,0.004 5.44733,-0.005 0.30657,0.0133 0.64397,-0.009 0.91061,0.17413 0.18683,0.26847 0.16508,0.60951 0.17777,0.91787 -0.009,3.14905 -0.005,6.29626 -0.004,9.44349 -0.009,0.52788 0.049,1.06662 -0.0617,1.58723 -0.0725,0.37729 -0.52606,0.38637 -0.829,0.39907 -1.87925,0.005 -3.76034,-0.004 -5.64142,0 0,0.54419 0,1.08837 0,1.63257 l -1.12647,0 c -2.76447,-0.50246 -5.53439,-0.96685 -8.3025,-1.45118 0,-4.23198 0,-8.46395 0,-12.69592 2.78444,-0.48434 5.56887,-0.96141 8.3515,-1.453 z"
       id="path12" />
    <path
       style="fill:#ffffff;fill-opacity:1"
       inkscape:connector-curvature="0"
       d="m 338.43885,539.7018 c 1.99536,0 3.99072,0 5.98608,0 0,3.80933 0,7.61866 0,11.42799 -1.99536,0 -3.99072,0 -5.98608,0 0,-0.36279 0,-0.7256 0,-1.0884 0.48434,0 0.96684,0 1.45117,0 0,-0.42263 0,-0.8471 0,-1.26975 -0.48433,0 -0.96683,0 -1.45117,0 0,-0.24126 0,-0.48435 0,-0.72561 0.48434,0 0.96684,0 1.45117,0 0,-0.42264 0,-0.8471 0,-1.26975 -0.48433,0 -0.96683,0 -1.45117,0 0,-0.24126 0,-0.48433 0,-0.72559 0.48434,0 0.96684,0 1.45117,0 0,-0.42266 0,-0.84712 0,-1.26977 -0.48433,0 -0.96683,0 -1.45117,0 0,-0.24126 0,-0.48435 0,-0.72559 0.48434,0 0.96684,0 1.45117,0 0,-0.42266 0,-0.84712 0,-1.26977 -0.48433,0 -0.96683,0 -1.45117,0 0,-0.24126 0,-0.48435 0,-0.72559 0.48434,0 0.96684,0 1.45117,0 0,-0.42265 0,-0.84712 0,-1.26977 -0.48433,0 -0.96683,0 -1.45117,0 0,-0.3628 0,-0.72559 0,-1.0884 z"
       id="path14" />
    <path
       style="fill:#6c7a89;fill-opacity:1"
       inkscape:connector-curvature="0"
       d="m 340.61561,540.7902 c 0.84712,0 1.69242,0 2.53954,0 0,0.42265 0,0.84712 0,1.26977 -0.84712,0 -1.69242,0 -2.53954,0 0,-0.42265 0,-0.84712 0,-1.26977 z"
       id="path16" />
    <path
       style="fill:#ffffff;fill-opacity:1"
       inkscape:connector-curvature="0"
       d="m 334.38283,542.48987 c 0.40996,-0.0291 0.82172,-0.0544 1.23349,-0.0744 -0.48433,0.99224 -0.97047,1.98448 -1.46387,2.97308 0.49885,1.01583 1.00856,2.02438 1.50922,3.04021 -0.43716,-0.0254 -0.87252,-0.0526 -1.30968,-0.0834 -0.30837,-0.75642 -0.68387,-1.48745 -0.90516,-2.27833 -0.24671,0.73647 -0.59862,1.43121 -0.8816,2.15317 -0.39726,-0.005 -0.79452,-0.0218 -1.19177,-0.038 0.46619,-0.91242 0.91605,-1.83211 1.39675,-2.73908 -0.40815,-0.9342 -0.8562,-1.85026 -1.27703,-2.77899 0.39908,-0.0237 0.79815,-0.0472 1.19721,-0.0689 0.27029,0.70925 0.56597,1.40944 0.78908,2.13684 0.23945,-0.77092 0.5968,-1.49652 0.90336,-2.24205 z"
       id="path18" />
    <path
       style="fill:#6c7a89;fill-opacity:1"
       inkscape:connector-curvature="0"
       d="m 340.61561,542.78556 c 0.84712,0 1.69242,0 2.53954,0 0,0.42265 0,0.84711 0,1.26977 -0.84712,0 -1.69242,0 -2.53954,0 0,-0.42266 0,-0.84712 0,-1.26977 z"
       id="path20" />
    <path
       style="fill:#6c7a89;fill-opacity:1"
       inkscape:connector-curvature="0"
       d="m 340.61561,544.78092 c 0.84712,0 1.69242,0 2.53954,0 0,0.42265 0,0.84711 0,1.26977 -0.84712,0 -1.69242,0 -2.53954,0 0,-0.42266 0,-0.84712 0,-1.26977 z"
       id="path22" />
    <path
       style="fill:#6c7a89;fill-opacity:1"
       inkscape:connector-curvature="0"
       d="m 340.61561,546.77628 c 0.84712,0 1.69242,0 2.53954,0 0,0.42265 0,0.84711 0,1.26975 -0.84712,0 -1.69242,0 -2.53954,0 0,-0.42264 0,-0.8471 0,-1.26975 z"
       id="path24" />
    <path
       style="fill:#6c7a89;fill-opacity:1"
       inkscape:connector-curvature="0"
       d="m 340.61561,548.77164 c 0.84712,0 1.69242,0 2.53954,0 0,0.42265 0,0.84712 0,1.26975 -0.84712,0 -1.69242,0 -2.53954,0 0,-0.42263 0,-0.8471 0,-1.26975 z"
       id="path26" />
  </g>
</svg>
