<?xml version="1.0" encoding="UTF-8" standalone="no"?>

<!-- Created with Inkscape (http://www.inkscape.org/) -->
<svg width="22" version="1.1" xmlns="http://www.w3.org/2000/svg" height="22" xmlns:inkscape="http://www.inkscape.org/namespaces/inkscape">
 <defs id="defs3871"/>
 <metadata id="metadata3874"/>
 <g inkscape:label="Capa 1" inkscape:groupmode="layer" id="layer1" transform="matrix(1 0 0 1 -326 -534.3622)">
  <rect width="0" x="318.27991" y="538.32489" height="10.999983" style="fill:#f62459" id="rect4035"/>
  <path inkscape:label="Capa 1" inkscape:connector-curvature="0" style="fill:#6c7a89" id="rect4139-4" d="m 3.999983,1033.3622 0,1 0,14 0,1 5,0 0,-1 -4,0 0,-14 12,0 0,7 1,0 0,-8 -14,0 z m 12,8 -0.996094,0.9941 -0.0039,0 -5,4.9942 0.0078,0.01 -0.0039,1.002 -0.0039,0 0,0.9902 0,0.01 2,0 0.0059,-0.01 0.0039,0 0.0098,0 -0.0059,-0.01 0.986328,-0.9864 4,-3.9921 -0.705078,-0.709 -4.990234,4.9824 -0.59375,-0.5918 4.992187,-4.9844 0.591797,0.5938 0.705078,0.7031 1,-1 -2,-1.9961 z" transform="matrix(1 0 0 1 326 -496.00025)"/>
 </g>
</svg>
