<svg width="22" height="22" viewBox="0 0 22 22" fill="none" xmlns="http://www.w3.org/2000/svg">
<path fill-rule="evenodd" clip-rule="evenodd" d="M3 11C3 6.58172 6.58172 3 11 3C15.4183 3 19 6.58172 19 11C19 11.6906 18.9125 12.3608 18.748 13H17.7101C17.8987 12.3663 18 11.695 18 11C17.9971 8.66588 16.831 6.48676 14.8906 5.18945C14.9547 5.45519 14.9913 5.72679 15 6C14.9714 7.39994 14.2128 8.68299 13 9.38281V10.293L13.8535 11.1465L14.207 11.5L13 12.707V13V13.293V15.707L12.707 16L11 17.707L9 15.707V9.38281C7.7872 8.68299 7.02863 7.39994 7 6C7.01766 5.73254 7.06215 5.46754 7.13281 5.20898C5.18923 6.49708 4.01461 8.66837 4 11C4 14.866 7.13401 18 11 18C11.695 18 12.3663 17.8987 13 17.7101V18.748C12.3608 18.9125 11.6906 19 11 19C6.58172 19 3 15.4183 3 11ZM12.7891 4.24219C12.2057 4.08457 11.6043 4.0032 11 4C10.3873 4.01546 9.77919 4.11133 9.19141 4.28516C9.08369 4.50946 9.01878 4.75189 9 5C9 6.10457 9.89543 7 11 7C12.1046 7 13 6.10457 13 5C12.9805 4.73592 12.9088 4.47834 12.7891 4.24219ZM11 10H10V15H11V10Z" fill="#87D062"/>
<path d="M19.5 14.5C19.5 14.538 19.4841 14.6161 19.3691 14.7326C19.2519 14.8514 19.0575 14.9812 18.7779 15.1011C18.2204 15.34 17.4154 15.5 16.5 15.5C15.5846 15.5 14.7796 15.34 14.2221 15.1011C13.9425 14.9812 13.7481 14.8514 13.6309 14.7326C13.5159 14.6161 13.5 14.538 13.5 14.5C13.5 14.462 13.5159 14.3839 13.6309 14.2674C13.7481 14.1486 13.9425 14.0188 14.2221 13.8989C14.7796 13.66 15.5846 13.5 16.5 13.5C17.4154 13.5 18.2204 13.66 18.7779 13.8989C19.0575 14.0188 19.2519 14.1486 19.3691 14.2674C19.4841 14.3839 19.5 14.462 19.5 14.5Z" stroke="#87D062"/>
<rect x="13" y="14.5" width="1" height="4" fill="#87D062"/>
<rect x="19" y="14.5" width="1" height="4" fill="#87D062"/>
<path fill-rule="evenodd" clip-rule="evenodd" d="M14.1426 16.5H13C13 17.3284 14.567 18 16.5 18C18.433 18 20 17.3284 20 16.5H18.8574C18.7879 16.5433 18.6971 16.5918 18.581 16.6415C18.0994 16.8479 17.3643 17 16.5 17C15.6357 17 14.9006 16.8479 14.419 16.6415C14.3029 16.5918 14.2121 16.5433 14.1426 16.5Z" fill="#87D062"/>
<path fill-rule="evenodd" clip-rule="evenodd" d="M14.1426 18.5H13C13 19.3284 14.567 20 16.5 20C18.433 20 20 19.3284 20 18.5H18.8574C18.7879 18.5433 18.6971 18.5918 18.581 18.6415C18.0994 18.8479 17.3643 19 16.5 19C15.6357 19 14.9006 18.8479 14.419 18.6415C14.3029 18.5918 14.2121 18.5433 14.1426 18.5Z" fill="#87D062"/>
</svg>
