<?xml version="1.0" encoding="UTF-8" standalone="no"?>

<!-- Created with Inkscape (http://www.inkscape.org/) -->
<svg width="22" version="1.1" xmlns="http://www.w3.org/2000/svg" height="22" xmlns:inkscape="http://www.inkscape.org/namespaces/inkscape">
 <defs id="defs3871"/>
 <metadata id="metadata3874"/>
 <g inkscape:label="Capa 1" inkscape:groupmode="layer" id="layer1" transform="matrix(1 0 0 1 -326 -534.3622)">
  <rect width="0" x="326.49567" y="535.98694" height="10.999983" style="fill:#f27935" id="rect4035"/>
  <rect width="0" x="321.94366" y="538.50604" height="10.999983" style="fill:#f27935" id="rect4035-7"/>
  <rect width="0" x="317.43588" y="526.08746" height="10.999983" style="fill:#f27935" id="rect4035-9"/>
  <rect width="0" x="318.27991" y="538.32489" height="10.999983" style="fill:#f27935" id="rect4035-96"/>
  <rect width="0" x="313.72791" y="540.84399" height="10.999983" style="fill:#f27935" id="rect4035-7-0"/>
  <rect width="0" x="309.22012" y="528.42542" height="10.999983" style="fill:#f27935" id="rect4035-9-6"/>
  <g inkscape:label="Capa 1" style="fill:#8e44ad" id="layer1-9" transform="matrix(1.3333337 0 0 1.3333332 -235.95256 -174.35867)">
   <rect width="0" x="404.71429" y="534.79071" height="10.999983" id="rect4035-6"/>
   <rect width="0" x="422.75507" y="532.73938" height="10.999983" id="rect4035-5"/>
   <rect width="0" x="404.71429" y="534.79071" height="10.999983" id="rect4035-8"/>
   <rect width="0" x="404.71429" y="534.79071" height="10.999983" id="rect4035-59"/>
   <path inkscape:connector-curvature="0" id="path88" d="m 435.34925,533.79631 a 1.500133,6.7506007 44.989453 0 0 -5.58354,3.8242 1.500133,6.7506007 44.989453 0 0 -2.65703,3.0857 c 0.80698,0.2571 1.43596,0.8862 1.69296,1.6935 a 1.500133,6.7506007 44.989453 0 0 3.08472,-2.6579 1.500133,6.7506007 44.989453 0 0 3.71163,-5.8345 1.500133,6.7506007 44.989453 0 0 -0.24902,-0.1114 m -8.63475,7.9939 c -2.99992,0.8042 -0.74998,2.7036 -2.99992,4.0009 2.99992,0 4.49987,-1.5014 4.49987,-2.5026 0,-0.4991 0.051,-1.4173 -1.49995,-1.5003"/>
  </g>
 </g>
</svg>
