<?xml version="1.0" encoding="UTF-8" standalone="no"?>

<!-- Created with Inkscape (http://www.inkscape.org/) -->
<svg width="22" version="1.1" xmlns="http://www.w3.org/2000/svg" height="22" xmlns:inkscape="http://www.inkscape.org/namespaces/inkscape">
 <defs id="defs3871"/>
 <metadata id="metadata3874"/>
 <g inkscape:label="Capa 1" inkscape:groupmode="layer" id="layer1" transform="matrix(1 0 0 1 -326 -534.3622)">
  <rect width="0" x="256.22556" y="514.69751" height="14.668059" style="fill:#16907d" id="rect4035"/>
  <rect width="0" x="263.18613" y="537.26813" height="14.668059" style="fill:#16907d" id="rect4035-8"/>
  <rect width="0" x="264.99942" y="536.2074" height="14.668059" style="fill:#16907d" id="rect4035-0"/>
  <rect width="0" x="256.22556" y="514.69751" height="14.668059" style="fill:#16907d" id="rect4035-3"/>
  <rect width="0" x="263.18613" y="537.26813" height="14.668059" style="fill:#16907d" id="rect4035-8-9"/>
  <rect width="0" x="264.99942" y="536.2074" height="14.668059" style="fill:#16907d" id="rect4035-0-4"/>
  <rect width="0" x="256.22556" y="514.69751" height="14.668059" style="fill:#16907d" id="rect4035-2"/>
  <rect width="0" x="263.18613" y="537.26813" height="14.668059" style="fill:#16907d" id="rect4035-8-99"/>
  <rect width="0" x="264.99942" y="536.2074" height="14.668059" style="fill:#16907d" id="rect4035-0-43"/>
  <rect width="0" x="256.22556" y="514.69751" height="14.668059" style="fill:#16907d" id="rect4035-3-9"/>
  <rect width="0" x="263.18613" y="537.26813" height="14.668059" style="fill:#16907d" id="rect4035-8-9-9"/>
  <rect width="0" x="264.99942" y="536.2074" height="14.668059" style="fill:#16907d" id="rect4035-0-4-4"/>
  <path style="fill:#16907d;stroke-width:2" id="rect4503" d="M 7 3 L 7 4 L 16 4 L 16 3 L 7 3 z M 16 4 L 16 5 L 17 5 L 17 4 L 16 4 z M 17 5 L 17 6 L 18 6 L 18 5 L 17 5 z M 18 6 L 18 7 L 19 7 L 19 6 L 18 6 z M 7 4 L 6 4 L 6 5 L 7 5 L 7 4 z M 6 5 L 5 5 L 5 6 L 6 6 L 6 5 z M 5 6 L 4 6 L 4 7 L 5 7 L 5 6 z M 4 7 L 3 7 L 3 15 L 4 15 L 4 7 z M 4 15 L 4 16 L 5 16 L 5 15 L 4 15 z M 5 16 L 5 17 L 6 17 L 6 16 L 5 16 z M 6 17 L 6 18 L 7 18 L 7 17 L 6 17 z M 7 18 L 7 19 L 16 19 L 16 18 L 7 18 z M 16 18 L 17 18 L 17 17 L 16 17 L 16 18 z M 17 17 L 18 17 L 18 16 L 17 16 L 17 17 z M 18 16 L 19 16 L 19 15 L 18 15 L 18 16 z " transform="matrix(1 0 0 1 326 534.3622)"/>
 </g>
</svg>
