<?xml version="1.0" encoding="UTF-8" standalone="no"?>

<!-- Created with Inkscape (http://www.inkscape.org/) -->
<svg width="22" version="1.1" xmlns="http://www.w3.org/2000/svg" height="22" xmlns:inkscape="http://www.inkscape.org/namespaces/inkscape">
 <defs id="defs3871"/>
 <metadata id="metadata3874"/>
 <g inkscape:label="Capa 1" inkscape:groupmode="layer" id="layer1" transform="matrix(1 0 0 1 -326 -534.3622)">
  <rect width="0" x="256.22556" y="514.69751" height="14.668059" style="fill:#22a7f0" id="rect4035"/>
  <rect width="0" x="263.18613" y="537.26813" height="14.668059" style="fill:#22a7f0" id="rect4035-8"/>
  <rect width="0" x="264.99942" y="536.2074" height="14.668059" style="fill:#22a7f0" id="rect4035-0"/>
  <rect width="0" x="256.22556" y="514.69751" height="14.668059" style="fill:#22a7f0" id="rect4035-3"/>
  <rect width="0" x="263.18613" y="537.26813" height="14.668059" style="fill:#22a7f0" id="rect4035-8-9"/>
  <rect width="0" x="264.99942" y="536.2074" height="14.668059" style="fill:#22a7f0" id="rect4035-0-4"/>
  <rect width="0" x="256.22556" y="514.69751" height="14.668059" style="fill:#22a7f0" id="rect4035-2"/>
  <rect width="0" x="263.18613" y="537.26813" height="14.668059" style="fill:#22a7f0" id="rect4035-8-99"/>
  <rect width="0" x="264.99942" y="536.2074" height="14.668059" style="fill:#22a7f0" id="rect4035-0-43"/>
  <rect width="0" x="256.22556" y="514.69751" height="14.668059" style="fill:#22a7f0" id="rect4035-3-9"/>
  <rect width="0" x="263.18613" y="537.26813" height="14.668059" style="fill:#22a7f0" id="rect4035-8-9-9"/>
  <rect width="0" x="264.99942" y="536.2074" height="14.668059" style="fill:#22a7f0" id="rect4035-0-4-4"/>
  <rect width="0" x="273.38181" y="518.47876" height="14.668059" style="fill:#22a7f0" id="rect4035-6"/>
  <rect width="0" x="280.34238" y="541.04938" height="14.668059" style="fill:#22a7f0" id="rect4035-8-8"/>
  <rect width="0" x="282.15567" y="539.98865" height="14.668059" style="fill:#22a7f0" id="rect4035-0-6"/>
  <rect width="0" x="326.49567" y="535.98694" height="10.999983" style="fill:#f27935" id="rect4035-34"/>
  <rect width="0" x="321.94366" y="538.50604" height="10.999983" style="fill:#f27935" id="rect4035-7"/>
  <rect width="0" x="317.43588" y="526.08746" height="10.999983" style="fill:#f27935" id="rect4035-9"/>
  <rect width="0" x="318.27991" y="538.32489" height="10.999983" style="fill:#f27935" id="rect4035-96"/>
  <rect width="0" x="313.72791" y="540.84399" height="10.999983" style="fill:#f27935" id="rect4035-7-0"/>
  <rect width="0" x="309.22012" y="528.42542" height="10.999983" style="fill:#f27935" id="rect4035-9-6"/>
  <path inkscape:connector-curvature="0" style="fill:#1d7390;stroke-linecap:square;stroke-width:2" id="rect4153" d="m 329,537.3622 0,16 16,0 0,-16 -16,0 z m 1,1 14,0 0,2 -14,0 0,-2 z m 0,3 1,0 0,2 -1,0 0,-2 z m 2,0 1,0 0,2 -1,0 0,-2 z m 2,0 1,0 0,2 -1,0 0,-2 z m 2,0 1,0 0,2 -1,0 0,-2 z m 2,0 1,0 0,2 -1,0 0,-2 z m 2,0 1,0 0,2 -1,0 0,-2 z m 2,0 2,0 0,1 -2,0 0,-1 z m -12,3 14,0 0,2 -14,0 0,-2 z m 0,3 1,0 0,2 -1,0 0,-2 z m 2,0 1,0 0,2 -1,0 0,-2 z m 2,0 1,0 0,2 -1,0 0,-2 z m 2,0 1,0 0,2 -1,0 0,-2 z m 2,0 1,0 0,2 -1,0 0,-2 z m 2,0 1,0 0,2 -1,0 0,-2 z m 2,0 2,0 0,1 -2,0 0,-1 z m -12,3 12,0 2,0 0,2 -14,0 0,-2 z"/>
 </g>
</svg>
