<?xml version="1.0" encoding="UTF-8" standalone="no"?>

<!-- Created with Inkscape (http://www.inkscape.org/) -->
<svg width="22" version="1.1" xmlns="http://www.w3.org/2000/svg" height="22" xmlns:inkscape="http://www.inkscape.org/namespaces/inkscape">
 <defs id="defs3871"/>
 <metadata id="metadata3874"/>
 <g inkscape:label="Capa 1" inkscape:groupmode="layer" id="layer1" transform="matrix(1 0 0 1 -326 -534.3622)">
  <rect width="0" x="273.38181" y="518.47876" height="14.668059" style="fill:#8e44ad" id="rect4035"/>
  <rect width="0" x="280.34238" y="541.04938" height="14.668059" style="fill:#8e44ad" id="rect4035-8"/>
  <rect width="0" x="282.15567" y="539.98865" height="14.668059" style="fill:#8e44ad" id="rect4035-0"/>
  <path style="fill:#04896a;stroke-width:2" id="rect4376" d="M 3 3 L 3 19 L 19 19 L 19 3 L 3 3 z M 4 4 L 18 4 L 18 8 L 4 8 L 4 4 z M 4 9 L 8 9 L 8 13 L 4 13 L 4 9 z M 9 9 L 13 9 L 13 13 L 9 13 L 9 9 z M 14 9 L 18 9 L 18 13 L 14 13 L 14 9 z M 4 14 L 8 14 L 8 18 L 4 18 L 4 14 z M 9 14 L 13 14 L 13 18 L 9 18 L 9 14 z M 14 14 L 18 14 L 18 18 L 14 18 L 14 14 z " transform="matrix(1 0 0 1 326 534.3622)"/>
 </g>
</svg>
