<?xml version="1.0" encoding="utf-8"?><svg height="32" width="32" xmlns="http://www.w3.org/2000/svg" xmlns:svg="http://www.w3.org/2000/svg" xmlns:xlink="http://www.w3.org/1999/xlink"><defs id="primary-definitions"><style id="current-color-scheme" type="text/css">.ColorScheme-Text           { color:#fff; }
      .ColorScheme-Background     { color:#111; }
      .ColorScheme-Highlight      { color:#3daefd; }
      .ColorScheme-ViewBackground { color:#000; }
      .ColorScheme-PositiveText   { color:#27ae60; }
      .ColorScheme-NeutralText    { color:#f67400; }
      .ColorScheme-NegativeText   { color:#da4453; }
  </style><style id="extended-color-scheme" type="text/css">.ExScheme-Black     { color:#3e3e3e; }
      .ExScheme-White     { color:#fcfcfc; }
      .ExScheme-Grey-1    { color:#cfd5d5; }
      .ExScheme-Grey-2    { color:#909c9c; }
      .ExScheme-Grey-3    { color:#536161; }
      .ExScheme-Red-1     { color:#ffafa5; }
      .ExScheme-Red-2     { color:#bf4231; }
      .ExScheme-Red-3     { color:#4d2f2b; }
      .ExScheme-Green-1   { color:#abf9c7; }
      .ExScheme-Green-2   { color:#3bb566; }
      .ExScheme-Green-3   { color:#377d50; }
      .ExScheme-Blue-1    { color:#abdaf9; }
      .ExScheme-Blue-2    { color:#3daefd; }
      .ExScheme-Blue-3    { color:#2b3c4d; }
      .ExScheme-Yellow-1  { color:#faffa5; }
      .ExScheme-Yellow-2  { color:#cac726; }
      .ExScheme-Yellow-3  { color:#4b4d2b; }
      .ExScheme-Orange-1  { color:#ffdaa5; }
      .ExScheme-Orange-2  { color:#ff9701; }
      .ExScheme-Orange-3  { color:#4d372b; }
      .ExScheme-Brown-1   { color:#e9d6bb; }
      .ExScheme-Brown-2   { color:#997657; }
      .ExScheme-Brown-3   { color:#433a35; }
      .ExScheme-Purple-1  { color:#e2abf9; }
      .ExScheme-Purple-2  { color:#b401ff; }
      .ExScheme-Purple-3  { color:#432b4d; }
      .ExScheme-Cyan-1    { color:#b2f2e6; }
      .ExScheme-Cyan-2    { color:#31bfa6; }
      .ExScheme-Cyan-3    { color:#2b4d47; }
      .ExScheme-Magenta-1 { color:#f8a6d8; }
      .ExScheme-Magenta-2 { color:#f00091; }
      .ExScheme-Magenta-3 { color:#770048; }
  </style><linearGradient id="gradientDark"><stop offset="0"/><stop offset="1" stop-opacity="0"/></linearGradient><linearGradient id="gradientLight"><stop offset="0" stop-color="#fff"/><stop offset="1" stop-color="#fff" stop-opacity="0"/></linearGradient><style class="toggle-enable-crease" type="text/css">.folder-crease { display: none; }
  </style><style class="toggle-manilla-folders" type="text/css">.folder-manilla { display: none; }
  </style><radialGradient cx=".5" cy="0" id="gl1" r="1" xlink:href="#gradientLight"/><linearGradient id="gd1" xlink:href="#gradientDark" y1="1" y2=".5"/><path d="M 5,4 C 3.892,4 3,4.892 3,6 V 9.268 C 2.402,9.613 2,10.257 2,11 v 15 c 0,1.108 0.892,2 2,2 h 24 c 1.108,0 2,-0.892 2,-2 V 11 10 C 30,9.257 29.598,8.613 29,8.268 V 7 C 29,5.892 28.108,5 27,5 H 14 C 12,5 12,4 10,4 Z" id="use-path-4h"/><path d="M 5,4 C 3.892,4 3,4.892 3,6 V 9.268 C 3.294,9.098 3.635,9 4,9 h 6 c 2,0 2,-1 4,-1 h 14 c .365,0 0.706,.098 1,.268 V 7 C 29,5.892 28.108,5 27,5 H 14 C 12,5 12,4 10,4 Z" id="use-path-4i"/></defs><g id="content"><use class="folder-manilla ExScheme-Brown-1" fill="currentColor" href="#use-path-4h"/><use class="toggle-manilla-folders ColorScheme-Highlight" fill="currentColor" href="#use-path-4h" id="primary-color"/><use class="ColorScheme-Text" fill="currentColor" href="#use-path-4h" opacity=".1"/><g id="panorama" transform="translate(2,8)"><path class="ColorScheme-Background" d="M 2.5 4.5 A 0.5 0.5 0 0 0 2 5 L 2 20 L 3 20 L 3 18 L 5 18 L 5 20 L 6 20 L 6 19 C 6 18.41 6.296 18 7 18 L 21 18 C 21.554 18 22 18.446 22 19 L 22 20 L 23 20 L 23 18 L 25 18 L 25 20 L 26 20 L 26 5 A 0.5 0.5 0 0 0 25.5 4.5 A 0.5 0.5 0 0 0 25 5 L 23 5 A 0.5 0.5 0 0 0 22.5 4.5 A 0.5 0.5 0 0 0 22 5 C 22 5.554 21.554 6 21 6 L 7 6 C 6.446 6 6 5.554 6 5 A 0.5 0.5 0 0 0 5.5 4.5 A 0.5 0.5 0 0 0 5 5 L 3 5 A 0.5 0.5 0 0 0 2.5 4.5 z M 3 6 L 5 6 L 5 8 L 3 8 L 3 6 z M 23 6 L 25 6 L 25 8 L 23 8 L 23 6 z M 7 7 L 21 7 C 21.554 7 22 7.446 22 8 L 22 16 C 22 16.554 21.554 17 21 17 L 7 17 C 6.446 17 6 16.554 6 16 L 6 8 C 6 7.446 6.446 7 7 7 z M 7 8 L 7 16 L 21 16 L 21 8 L 7 8 z M 3 9 L 5 9 L 5 11 L 3 11 L 3 9 z M 23 9 L 25 9 L 25 11 L 23 11 L 23 9 z M 3 12 L 5 12 L 5 14 L 3 14 L 3 12 z M 23 12 L 25 12 L 25 14 L 23 14 L 23 12 z M 3 15 L 5 15 L 5 17 L 3 17 L 3 15 z M 23 15 L 25 15 L 25 17 L 23 17 L 23 15 z M 7 19 L 7 20 L 21 20 L 21 19 L 7 19 z " fill="currentColor" opacity=".6" stop-color="#000000" stroke-opacity=".96"/><path class="ColorScheme-Background" d="M 2.5,4.5 C 2.224,4.5 2,4.724 2,5 v 15 h 1 v -2 h 2 v 2 h 1 v -1 c 0,-.59 .296,-1 1,-1 h 14 c 0.554,0 1,0.446 1,1 v 1 h 1 v -2 h 2 v 2 h 1 V 5 C 26,4.724 25.776,4.5 25.5,4.5 25.224,4.5 25,4.724 25,5 H 23 C 23,4.724 22.776,4.5 22.5,4.5 22.224,4.5 22,4.724 22,5 22,5.554 21.554,6 21,6 H 7 C 6.446,6 6,5.554 6,5 6,4.724 5.776,4.5 5.5,4.5 5.224,4.5 5,4.724 5,5 H 3 C 3,4.724 2.776,4.5 2.5,4.5 Z M 5.5,5 C 5.5,5.822 6.178,6.5 7,6.5 6.178,6.5 5.5,7.178 5.5,8 c 0,0 -2.76e-5,-2.724 0,-3 z m 17,0 c 2.8e-5,.276 0,3 0,3 0,-.822 -.678,-1.5 -1.5,-1.5 .822,0 1.5,-.678 1.5,-1.5 z M 25,5.5 c .276,-2.76e-5 .276,2.76e-5 0,0 z M 3,6 H 5 V 8 H 3 Z m 20,0 h 2 V 8 H 23 Z M 7,7 h 14 c 0.554,0 1,0.446 1,1 v 8 c 0,0.554 -0.446,1 -1,1 H 7 C 6.446,17 6,16.554 6,16 V 8 C 6,7.446 6.446,7 7,7 Z m 0,1 v 8 H 21 V 8 Z m 0.5,0.5 h 13 v 7 H 7.5 Z M 3,9 h 2 v 2 H 3 Z m 20,0 h 2 v 2 H 23 Z M 3,12 h 2 v 2 H 3 Z m 20,0 h 2 v 2 H 23 Z M 3,15 h 2 v 2 H 3 Z m 20,0 h 2 v 2 H 23 Z M 5.5,16 c 0,.822 .678,1.5 1.5,1.5 -.45,0 -.863,.146 -1.133,.44 C 5.597,18.233 5.5,18.62 5.5,19 Z m 17,0 v 1 c 2.8e-5,.276 2.8e-5,.724 0,1 v 1 c 0,-.822 -.678,-1.5 -1.5,-1.5 .822,0 1.5,-.678 1.5,-1.5 z M 7,19 v 1 h 14 v -1 z" fill="currentColor" opacity=".6"/></g><use href="#use-path-4i" opacity=".4"/><use class="toggle-flat-design" fill="url(#gd1)" href="#use-path-4i" opacity=".1"/><path class="toggle-flat-design" d="M 14,8 C 12,8 12,9 10,9 H 4 C 2.892,9 2,9.892 2,11 v 15 c 0,1.108 0.892,2 2,2 h 24 c 1.108,0 2,-0.892 2,-2 V 11 10 C 30,8.892 29.108,8 28,8 Z" fill="url(#gl1)" opacity=".2"/><path class="folder-crease" d="m 2,22 v 1 H 3 C 3.277,23 3.5,22.777 3.5,22.5 3.5,22.223 3.277,22 3,22 Z m 27,0 c -0.277,0 -0.5,0.223 -0.5,0.5 0,0.277 0.223,0.5 0.5,0.5 h 1 v -1 z" opacity=".4"/><path class="ColorScheme-Text" d="m 2,25 v 1 c 0,1.108 0.892,2 2,2 h 24 c 1.108,0 2,-0.892 2,-2 v -1 c 0,1.108 -0.892,2 -2,2 H 4 C 2.892,27 2,26.108 2,25 Z" fill="currentColor" opacity=".1"/><path class="ColorScheme-Text" d="M 2,25.5 V 26 c 0,1.108 0.892,2 2,2 h 24 c 1.108,0 2,-0.892 2,-2 v -0.5 c 0,1.108 -0.892,2 -2,2 H 4 c -1.108,0 -2,-0.892 -2,-2 z" fill="currentColor" opacity=".2"/><path d="M 14,8 C 12,8 12,9 10,9 H 4 C 2.892,9 2,9.892 2,11 v 0.5 c 0,-1.108 0.892,-2 2,-2 h 6 c 2,0 2,-1 4,-1 h 14 c 1.108,0 2,0.892 2,2 V 10 C 30,8.892 29.108,8 28,8 Z" fill="#fff" opacity=".2"/><path d="M 14,8 C 12,8 12,9 10,9 H 4 C 2.892,9 2,9.892 2,11 v 1 c 0,-1.108 0.892,-2 2,-2 h 6 c 2,0 2,-1 4,-1 h 14 c 1.108,0 2,0.892 2,2 V 10 C 30,8.892 29.108,8 28,8 Z" fill="#fff" opacity=".1"/><path d="m 14,7.5 c -2,0 -2,1 -4,1 H 4 C 3.635,8.5 3.294,8.598 3,8.768 v 0.5 C 3.294,9.098 3.635,9 4,9 h 6 c 2,0 2,-1 4,-1 h 14 c .365,0 .706,.098 1,.268 v -0.5 C 28.706,7.598 28.365,7.5 28,7.5 Z" opacity=".2"/><path d="M 14,7 C 12,7 12,8 10,8 H 4 C 3.635,8 3.294,8.098 3,8.268 v 1 C 3.294,9.098 3.635,9 4,9 h 6 c 2,0 2,-1 4,-1 h 14 c .365,0 .706,.098 1,.268 v -1 C 28.706,7.098 28.365,7 28,7 Z" opacity=".1"/></g></svg>