<svg height="32" version="1.1" width="32" xmlns="http://www.w3.org/2000/svg" xmlns:svg="http://www.w3.org/2000/svg" xmlns:xlink="http://www.w3.org/1999/xlink">
<defs id="primary-definitions">
<style id="current-color-scheme" type="text/css">
      .ColorScheme-Text         { color: #232629; }
      .ColorScheme-Background   { color: #eff0f1; }
      .ColorScheme-Highlight    { color: #7ec9f0; }
      .ColorScheme-PositiveText { color: #27ae60; }
      .ColorScheme-NeutralText  { color: #f67400; }
      .ColorScheme-NegativeText { color: #da4453; }
      .ColorScheme-ActiveText   { color: #3daee9; }
      .ColorScheme-Complement   { color: #ffffff; }
      .ColorScheme-Contrast     { color: #000000; }
    </style>
<style id="extended-color-scheme" type="text/css">
      .ExScheme-Black     { color:#3e3e3e; }
      .ExScheme-White     { color:#fcfcfc; }
      .ExScheme-Grey-1    { color:#cfd5d5; }
      .ExScheme-Grey-2    { color:#909c9c; }
      .ExScheme-Grey-3    { color:#536161; }
      .ExScheme-Red-1     { color:#ffafa5; }
      .ExScheme-Red-2     { color:#bf4231; }
      .ExScheme-Red-3     { color:#4d2f2b; }
      .ExScheme-Green-1   { color:#abf9c7; }
      .ExScheme-Green-2   { color:#3bb566; }
      .ExScheme-Green-3   { color:#377d50; }
      .ExScheme-Blue-1    { color:#abdaf9; }
      .ExScheme-Blue-2    { color:#3daefd; }
      .ExScheme-Blue-3    { color:#2b3c4d; }
      .ExScheme-Yellow-1  { color:#faffa5; }
      .ExScheme-Yellow-2  { color:#cac726; }
      .ExScheme-Yellow-3  { color:#4b4d2b; }
      .ExScheme-Orange-1  { color:#ffdaa5; }
      .ExScheme-Orange-2  { color:#ff9701; }
      .ExScheme-Orange-3  { color:#4d372b; }
      .ExScheme-Brown-1   { color:#e9d6bb; }
      .ExScheme-Brown-2   { color:#997657; }
      .ExScheme-Brown-3   { color:#433a35; }
      .ExScheme-Purple-1  { color:#e2abf9; }
      .ExScheme-Purple-2  { color:#b401ff; }
      .ExScheme-Purple-3  { color:#432b4d; }
      .ExScheme-Cyan-1    { color:#b2f2e6; }
      .ExScheme-Cyan-2    { color:#31bfa6; }
      .ExScheme-Cyan-3    { color:#2b4d47; }
      .ExScheme-Magenta-1 { color:#f8a6d8; }
      .ExScheme-Magenta-2 { color:#f00091; }
      .ExScheme-Magenta-3 { color:#770048; }
    </style>
<linearGradient id="uNs">
<stop offset="0"/>
<stop offset="1" stop-opacity="0"/>
</linearGradient>
<linearGradient id="uNt">
<stop offset="0" stop-color="#fff"/>
<stop offset="1" stop-color="#fff" stop-opacity="0"/>
</linearGradient>
<style id="uNu" type="text/css">
        .force-display-for-editing { display: inline !important; }
    </style><style class="remove-if__show-crease" type="text/css">
        .enable-if__show-crease { display: none; }
    </style><style class="remove-if__color-sync-mimes-places" type="text/css">
        .enable-if__color-sync-mimes-places { display: none; }
    </style><radialGradient cx=".5" cy="0" id="uNv" r="1" xlink:href="#uNt"/><linearGradient id="uNw" xlink:href="#uNs" y1="1" y2=".5"/><style class="ColorScheme-Background" fill="currentColor" opacity=".6" type="text/css">
   .ColorScheme-Text           { color:#eff0f1; }
      .ColorScheme-Background     { color:#31363b; }
      .ColorScheme-Highlight      { color:#3daefd; }
      .ColorScheme-ViewBackground { color:#fcfcfc; }
      .ColorScheme-PositiveText   { color:#27ae60; }
      .ColorScheme-NeutralText    { color:#f67400; }
      .ColorScheme-NegativeText   { color:#da4453; }
  </style><path d="M 5,4 C 3.9,4 3,4.9 3,6 V 9.27 C 2.4,9.6 2,10.26 2,11 v 15 c 0,1.1 .9,2 2,2 h 24 c 1.1,0 2,-.9 2,-2 V 11 10 C 30,9.26 29.6,8.6 29,8.27 V 7 C 29,5.9 28.1,5 27,5 H 14 C 12,5 12,4 10,4 Z" id="uNx"></path><path d="M 5,4 C 3.9,4 3,4.9 3,6 V 9.27 C 3.3,9.1 3.63,9 4,9 h 6 c 2,0 2,-1 4,-1 h 14 c .37,0 .7,.1 1,.27 V 7 C 29,5.9 28.1,5 27,5 H 14 C 12,5 12,4 10,4 Z" id="uNy"></path></defs>
<g id="content" transform="translate(0,0)"><use class="sync-color enable-if__color-sync-mimes-places force-display-for-editing ColorScheme-ActiveText" fill="currentColor" href="#uNx"></use><use class="primary-color remove-if__color-sync-mimes-places ColorScheme-ActiveText" fill="currentColor" href="#uNx"></use><use class="ColorScheme-Contrast" fill="currentColor" href="#uNx" opacity=".1"></use><g id="panorama" transform="translate(2,8)"><rect fill="#fcfcfc" height="6.9999928" ry="1" stop-color="#000000" transform="rotate(7.5)" width="6.9999928" x="11.234632" y="3.791621"/><path d="m 11.57,5.85 c -.27,-.04 -.5,.16 -.56,.43 l -.65,4.96 c -.04,.27 .16,.5 .43,.56 l 4.96,.65 c .27,.04 .5,-.16 .56,-.43 L 16.96,7.07 C 17,6.8 16.8,6.54 16.53,6.5 Z m .56,.9 1,1.3 -1.3,1 -.3,-.4 .9,-.7 -.7,-.9 z" fill="#68377d" id="rect37578" stop-color="#000000"/><path color="#000000" d="M 12.17 11.3 C 12.07 11.3 11.97 11.3 11.9 11.33 C 11.7 11.4 11.5 11.47 11.35 11.6 L 8.73 14.24 C 8.4 14.56 8.3 14.94 8.43 15.37 L 9.4 18.94 C 9.44 19.15 9.56 19.3 9.8 19.46 C 9.83 19.6 10 19.7 10.2 19.77 L 11.1 20 L 15.33 20 L 17.53 17.8 C 17.7 17.64 17.77 17.46 17.8 17.3 C 17.87 17.1 17.9 16.9 17.83 16.7 L 16.87 13.1 C 16.8 12.9 16.7 12.73 16.56 12.6 C 16.43 12.45 16.26 12.34 16.05 12.3 L 12.5 11.3 C 12.37 11.3 12.27 11.3 12.17 11.3 z " fill="#fcfcfc"/><path d="m 16.2,12.94 c -.1,-.1 -.2,-.15 -.3,-.2 L 12.35,11.8 c -.2,-.06 -.5,0 -.65,.17 L 9.1,14.6 C 8.94,14.74 8.86,15.03 8.9,15.24 l .96,3.57 c .03,.1 .1,.2 .2,.3 l 3.4,-2.9 z" fill="#659ad2"/><path d="m 17.34,17.15 c .03,-.1 .04,-.24 0,-.34 l -.96,-3.57 c -.03,-.1 -.1,-.2 -.2,-.3 l -3.1,3.1 .7,.84 z" fill="#00599c"/><path d="M 13.13 16 L 10.05 19.1 C 10.14 19.2 10.24 19.25 10.35 19.3 L 13.03 20 L 14.6 20 L 17.17 17.45 C 17.25 17.4 17.3 17.27 17.34 17.15 L 13.13 16 z " fill="#004382"/><path d="M 10.2 .4 C 9.6 .7 9.13 1 8 1 L 4.2 1 A 4.25 4.25 0 0 0 3.55 4.55 A 4.25 4.25 0 0 0 8.76 7.55 A 4.25 4.25 0 0 0 11.5 5.27 L 10.2 .4 z " fill="#fcfcfc" stop-color="#000000" stroke-opacity=".2"/><path d="M 10 .5 C 9.5 .76 9 1 8 1 L 4.83 1 A 3.75 3.75 0 0 0 3.9 3.17 A 3.75 3.75 0 0 0 6.3 6.94 L 7 4.53 A 1.25 1.25 0 0 1 6.4 3.36 A 1.25 1.25 0 0 1 7.75 2.2 A 1.25 1.25 0 0 1 8.9 3.54 A 1.25 1.25 0 0 1 8.13 4.6 L 8.5 7.1 A 3.75 3.75 0 0 0 11.27 4.4 L 10.3 .8 A 3.75 3.75 0 0 0 10 .5 z " fill="#3bb566" stop-color="#000000" stroke-opacity=".2"/><path color="#000000" d="M 7.8,4.8 7.3,4.9 C 7,4.93 6.8,5.2 6.86,5.5 c 0,0 .04,.17 .07,.4 0,.2 -.05,.75 -.07,.85 C 6.8,6.7 6.73,6.6 6.6,6.6 6.36,6.56 6.05,6.76 5.96,6.96 5.87,7.16 5.9,7.33 5.9,7.5 6,7.9 6.1,7.97 6.2,8.15 6.1,8.26 6,8.36 6,8.6 c 0,.1 -0,.17 -0,.2 C 5.9,8.9 5.8,9.14 5.9,9.5 6,9.87 6.2,10 6.4,10.1 c .1,.07 .2,.1 .27,.17 .04,0 .14,.06 .14,.1 .04,.05 -.07,.7 -.05,.96 0,.24 .1,.44 .24,.6 .06,.1 -0,.4 -.1,.5 -.3,.3 -.5,.7 -.6,1.14 -.1,.45 -.03,1 .3,1.4 .2,.27 .47,.55 .8,.75 .16,.1 .36,.17 .56,.2 -0,0 -0,0 -0,.04 -.06,.2 -.14,.53 -.05,.9 0,.07 .05,.14 .1,.2 .17,.2 .47,.35 .73,.3 .25,-0 .4,-.14 .56,-.24 .3,-.2 .5,-.47 .55,-.5 .25,-.2 .4,-.4 .5,-.5 .1,-.1 .16,-.16 .2,-.2 .3,-.06 .63,-.04 .87,.04 .24,.4 .57,.9 1.24,1 .04,0 .07,0 .1,0 .1,-0 .24,-0 .4,-.1 .14,-.07 .3,-.2 .34,-.4 .1,-.34 -.04,-.5 -.1,-.64 -.07,-.13 -.25,-.84 -.3,-1.04 .1,-.1 .24,-.15 .3,-.24 .1,-.2 .13,-.4 .13,-.4 0,-.1 -0,-.2 -.06,-.26 .04,-.05 .1,-.07 .13,-.1 .1,-.16 .2,-.4 .1,-.7 -.1,-.25 -.36,-.37 -.6,-.4 -.1,-0 -.15,-.04 -.23,-.06 -.1,-.1 -.27,-.13 -.4,-.1 -.14,-.04 -.3,-.1 -.43,-.1 -0,-.03 -0,-.04 -0,-.1 -0,-.1 0,-.26 -.07,-.46 -0,-.05 -.06,-.16 -.03,-.2 .7,-.3 1.6,-.7 1.97,-1.6 0,-0 0,-.03 0,-.04 .27,-.9 -.6,-2.3 -.84,-2.5 l .53,-1.05 c .13,-.26 0,-.57 -.25,-.7 L 12.93,5.65 c -.15,-0 -.3,.04 -.4,.15 -0,-0 -0,-.03 -.03,-.05 L 12.1,5.5 c -.35,-.23 -.8,.04 -.77,.45 l .05,.7 C 11.1,6.57 10.83,6.46 10.55,6.47 c -0,-0 -.03,-0 -.04,-0 -.54,-0 -1.05,.2 -1.5,.46 L 8.95,6.85 9.6,6.3 C 9.8,6.16 9.83,5.86 9.7,5.65 L 9.34,5.17 C 9.17,4.93 8.83,4.9 8.6,5.1 L 8.37,5.3 C 8.35,5 8.1,4.8 7.8,4.8 Z" fill="#fcfcfc" fill-rule="evenodd"/><path d="m 11.6,7.3 .3,-.2 -.1,-1.2 .4,.27 .1,.75 .4,-.8 .43,.2 -.75,1.47 z" fill="#ffafa5" fill-rule="evenodd"/><path d="M 10.5,6.95 C 9.5,6.9 8.5,7.6 8.24,8.6 8.1,9.03 7.95,9.46 7.8,9.9 c .37,.3 .76,.6 1.1,.9 .3,.3 1.2,.2 1,.73 -.7,.03 -.04,.75 -.3,1.1 -.3,.4 -.45,1 -.83,1.26 -.5,-0 -1.1,-.3 -1.03,-.9 .03,-.37 -.36,-.6 -.54,-.2 -.47,.5 -.7,1.4 -.17,2 .35,.43 .9,.83 1.47,.7 .1,.46 -.4,1.06 0,1.4 .45,.1 .7,-.4 1,-.6 .37,-.27 .56,-.84 1.1,-.83 .54,-.1 1.16,-0 1.36,.57 .15,.3 .9,.8 1,.3 -.33,-.46 -.35,-1 -.4,-1.54 -.1,-.37 -.1,-.64 .04,-.94 .5,.2 .9,-.65 .2,-.6 -.4,-.2 -1.1,-.1 -1.3,-.6 0,-.33 -.04,-.7 -.34,-.85 -.1,-.46 .5,-.46 .8,-.6 .63,-.3 1.34,-.7 1.5,-1.43 C 13.57,8.9 13.03,8.14 12.43,7.64 11.9,7.2 11.2,6.94 10.5,6.95 Z" fill="#54d883" fill-rule="evenodd"/><path d="m 11.34,13.17 .2,-.1 c 0,0 .1,.34 .46,.2 .35,-.1 .55,-.26 .55,-.26 0,0 .3,.56 -0,.9 -.3,.35 -.5,.4 -.5,.4 -.3,-.3 -.6,-.64 -.7,-1.17 z" fill="#ffe5e1" fill-rule="evenodd"/><path d="m 9.93,11.34 c 0,0 .1,.23 .06,.43 -.06,.2 -.36,.43 -.36,.43 0,0 -.16,.54 -.5,1 -.16,.2 -.37,.26 -.57,.3 -.2,-.35 -.4,-.15 -.65,.05 .04,.06 .1,.1 .14,.15 -0,0 -0,0 -0,0 -.26,.35 .57,.47 .57,.47 0,0 .1,-.3 .97,-.2 .87,.14 1.16,.7 2.27,.8 1.1,.1 1.16,-.57 1.16,-.57 0,0 -.43,-.16 -1.15,-1 -.7,-.8 -.6,-1.66 -.6,-1.66 L 9.93,11.34 Z m -2.3,1.54 c -.05,.2 -0,.34 .17,.46 .3,-.36 .06,-.4 -.17,-.46 z" fill="#ffafa5" fill-rule="evenodd"/><path d="M 8.9,7.7 8.3,6.76 9.27,5.94 8.93,5.46 7.9,6.3 7.9,5.3 7.34,5.4 c 0,0 .2,.85 .05,1.3 C 7.2,7.2 6.95,7.65 6.95,7.65 L 7.4,7.9 7.9,7.03 8.46,8.2 c 0,0 .15,-.07 .3,-.25 C 8.9,7.8 8.9,7.7 8.9,7.7 Z" fill="#ffafa5" fill-rule="evenodd"/><path d="M 8.36,7.7 C 8.23,7.8 8.1,7.9 8,8 7.86,7.67 7.77,7.33 7.75,6.97 7.73,6.8 7.7,6.6 7.5,6.6 7.3,6.65 7.3,6.9 7.3,7.04 7.25,7.3 7.26,7.6 7.3,7.9 7.1,7.95 6.94,7.74 6.9,7.6 6.8,7.4 6.75,7.17 6.55,7.1 6.34,7.1 6.4,7.36 6.4,7.5 6.47,7.76 6.6,8 6.75,8.23 6.57,8.34 6.47,8.54 6.5,8.75 c 0,.2 -.15,.33 -.1,.53 0,.24 .25,.4 .43,.5 .14,.1 .3,.1 .4,.26 .1,.14 .27,.2 .4,.3 .2,.2 .35,.5 .47,.74 .15,-.03 .3,-.06 .46,-.1 .1,-.2 .15,-.35 .23,-.53 C 8.63,9.6 8.5,8.7 8.4,7.83 8.37,7.8 8.36,7.73 8.36,7.7 Z" fill="#54d883" fill-rule="evenodd"/><path d="m 9.64,11.34 c 0,0 .14,.2 .13,.43 -0,.2 -.2,.47 -.2,.47 0,0 -.9,.23 -1.45,0 C 7.6,12.03 7,11.34 7.37,10.94 7.75,10.55 8.6,10.1 8.8,10.43 9,10.8 9,11.5 9.23,11.5 9.45,11.45 9.64,11.34 9.64,11.34 Z" fill="#ffe5e1" fill-rule="evenodd"/><path color="#000000" d="M 16.85 0 C 16.76 0 16.67 .04 16.6 .06 A .5 .5 0 0 0 16.6 .06 C 15.5 .35 14.7 1.1 14.16 2.06 C 14.1 2.07 14.06 2.05 14 2.06 A .5 .5 0 0 0 14 2.06 C 13.84 2.1 13.7 2.2 13.56 2.3 C 13.3 2.57 13.2 2.94 13.3 3.3 L 13.75 4.96 L 14.2 6.63 C 14.36 7.2 15 7.5 15.54 7.27 C 16.5 7.84 17.6 8.07 18.65 7.8 A .5 .5 0 0 0 18.65 7.8 C 20.8 7.2 22.05 5 21.5 2.9 C 21.07 1.37 19.83 .3 18.4 0 L 16.85 0 z " fill="#fcfcfc"/><path d="M 16.7,.55 A 3.5,3.5 0 0 0 14.4,2.55 l -0,-0 A .5,.5 0 0 0 14.14,2.55 .5,.5 0 0 0 13.9,2.7 .5,.5 0 0 0 13.8,3.16 l .45,1.67 .45,1.67 a .5,.5 0 0 0 .84,.2 l 0,-0 A 3.5,3.5 0 0 0 18.5,7.3 3.5,3.5 0 0 0 21,3 3.5,3.5 0 0 0 16.7,.55 Z" fill="#3bb566" stop-color="#000000"/><path d="m 32,18 -6,3.46 v -6.93 z" fill="#fcfcfc" opacity="1" stop-color="#000000" transform="matrix(.483,-.13,.13,.483,-.17,-.626)"/><path d="m 16.84,1.03 a 3,3 0 0 0 -1.95,1.65 l .5,.13 A 2.5,2.5 0 0 1 16.97,1.5 2.5,2.5 0 0 1 20.03,3.3 2.5,2.5 0 0 1 18.26,6.34 2.5,2.5 0 0 1 16.24,6 l -.36,.36 a 3,3 0 0 0 2.5,.46 3,3 0 0 0 2.1,-3.67 3,3 0 0 0 -3.67,-2.1 z" fill="#fcfcfc" stop-color="#000000"/><path d="m 17.1,2 a 2,2 0 0 0 -1.2,.95 l .5,.13 A 1.5,1.5 0 0 1 17.23,2.5 1.5,1.5 0 0 1 19.06,3.54 1.5,1.5 0 0 1 18,5.37 1.5,1.5 0 0 1 16.97,5.3 L 16.6,5.64 A 2,2 0 0 0 18.13,5.86 2,2 0 0 0 19.55,3.4 2,2 0 0 0 17.1,2 Z" fill="#fcfcfc" stop-color="#000000"/><path color="#000000" d="m 15.34,5.44 c -.45,.3 -.66,.8 -.53,1.33 l 1.35,5.2 -.26,.16 -8.46e-4,5.34e-4 c -.27,.17 -.4,.5 -.3,.8 l 5.33e-4,8.45e-4 .85,3.13 -8.46e-4,5.33e-4 c .13,.47 .7,.7 1.1,.43 l 8.45e-4,-5.34e-4 6.87,-4.33 8.46e-4,-5.33e-4 c .4,-.26 .45,-.87 .1,-1.2 l -8.46e-4,5.33e-4 -2.46,-2.1 -5.33e-4,-8.46e-4 C 21.8,8.7 21.4,8.66 21.15,8.83 L 20.9,9 16.77,5.53 C 16.37,5.2 15.8,5.16 15.34,5.44 Z" fill="#fcfcfc"/><path d="M 15.9,5.76 A .7,.7 0 0 0 15.6,5.86 .7,.7 0 0 0 15.3,6.64 l 1.44,5.56 -.57,.36 a .24,.24 0 0 0 -.1,.26 l .85,3.13 a .24,.24 0 0 0 .36,.14 l 6.87,-4.33 a .24,.24 0 0 0 .03,-.4 l -2.46,-2.1 a .24,.24 0 0 0 -.3,-0 l -.57,.36 -4.4,-3.7 a .7,.7 0 0 0 -.56,-.16 z" fill="#ffa92d"/><path color="#31363b" d="M 2 1 C .9 1 0 1.9 0 3 L 0 5.1 L .3 4.87 C .63 6 1.57 6.9 2.8 7.06 C 4.43 7.3 5.95 6.1 6.16 4.5 C 6.27 3.7 6.05 2.9 5.6 2.3 C 5.6 2.3 5.6 2.3 5.6 2.3 L 4.6 1 L 2 1 z " fill="#fcfcfc"/><path class="ColorScheme-Background" color="#31363b" d="M 2.76 1 L 3.2 1.57 L 1 1.3 C .63 1.5 .35 1.8 .2 2.2 L 1.2 2.3 L 0 3.23 L 0 4.5 L .7 3.96 C .6 5.25 1.56 6.4 2.86 6.57 C 4.23 6.75 5.5 5.8 5.67 4.4 C 5.75 3.75 5.57 3.1 5.2 2.6 L 4 1 L 2.76 1 z M 3.2 2.6 A 1.5 1.5 0 0 1 3.4 2.6 A 1.5 1.5 0 0 1 4.7 4.3 A 1.5 1.5 0 0 1 3 5.57 A 1.5 1.5 0 0 1 1.7 3.9 A 1.5 1.5 0 0 1 3.05 2.6 A 1.5 1.5 0 0 1 3.2 2.6 z M 3.25 3.6 A .5 .5 0 0 0 2.7 4 A .5 .5 0 0 0 3.1 4.6 A .5 .5 0 0 0 3.7 4.15 A .5 .5 0 0 0 3.25 3.6 z " fill="#ffa92d"/><path color="#000000" d="M 4.03 5.8 C 3.86 5.8 3.7 5.8 3.5 5.86 C 2.9 6.03 2.6 6.54 2.45 6.93 C 2.3 7.3 2.3 7.67 2.3 7.67 A .5 .5 0 0 0 2.3 7.7 L .2 6.23 A .5 .5 0 0 0 0 6.15 L 0 10.1 C .1 10.23 .2 10.4 .37 10.5 C .9 11 1.56 11 2.1 11 C 2.4 11 2.4 11 2.46 11 C 2.3 11.3 2.04 11.47 2.04 11.47 A .5 .5 0 0 0 1.76 11.9 L 1.76 13.17 A .5 .5 0 0 0 2.7 13.4 L 3 12.83 C 3.13 12.84 3.2 12.85 3.6 12.86 C 4.36 12.9 5.13 12.55 5.63 11.94 C 6.13 11.34 6.3 10.4 5.77 9.5 C 5.4 8.83 5.3 8.44 5.23 8.2 L 7.56 7.66 A .5 .5 0 0 0 7.5 6.7 L 5.4 6.4 C 5.24 6.24 4.9 5.93 4.3 5.8 C 4.23 5.8 4.13 5.8 4.03 5.8 z " fill="#fcfcfc"/><path d="M 2.7,12.3 2.26,13.17 V 11.9 C 4.17,12.1 5.53,11 4.66,9.1 4.47,8.66 4.53,8 4.7,7.83 4.46,8.3 5.03,9.07 5.4,9.94 c .05,.1 .1,.25 .13,.4 0,.2 .03,.36 -0,.53 C 5.37,11.6 4.8,11.94 4.7,12.06 3.9,12.43 3.3,12.4 2.7,12.3 Z" fill="#2a7fff" fill-rule="evenodd" stroke="#000000" stroke-dasharray="none" stroke-linejoin="miter" stroke-width="0"/><path d="M 3.07,8.15 C 2.7,7.6 3.6,6.16 4.86,7.17 H 7.45 L 5.2,6.87 C 4,5.43 2.3,6.8 2.94,7.96 Z" fill="#1a1a1a" fill-rule="evenodd" stroke="#000000" stroke-dasharray="none" stroke-linejoin="miter" stroke-width="0"/><path d="M 0 6.7 L 0 8.45 C .14 8.66 .34 8.85 .6 9 L .1 8.9 C .3 9.86 .55 10.46 1.8 10.5 L 2.1 10.47 C 1.5 10.43 1 10.24 .8 9.35 L 3.16 9.7 C 2.53 9.57 2.1 9.46 1.57 9.3 C 1.4 9.24 1.23 9.2 1.1 9.07 C .43 8.55 .4 8 .5 7.5 L 3.44 9.06 L 0 6.7 z " fill="#2a7fff" fill-rule="evenodd" stroke="#000000" stroke-dasharray="none" stroke-linejoin="miter" stroke-width="0"/><path d="M 7.8 11.5 C 7.46 11.5 7.1 11.7 6.9 12 L 6.03 13.55 L 6.03 18.4 L 8.76 20 L 10.37 20 C 10.4 19.95 10.45 20 10.5 19.84 L 13 15.5 C 13.26 15.03 13.1 14.4 12.6 14.14 L 8.3 11.64 C 8.14 11.56 7.97 11.5 7.8 11.5 z " fill="#fcfcfc" id="rect1342" stop-color="#000000" stroke-opacity=".2"/><path d="m 7.83,11.97 c -.2,-0 -.36,.1 -.46,.26 l -.5,.9 1.13,.65 c .2,-.13 .44,-.14 .65,-0 .2,.1 .3,.35 .3,.6 l 1.1,.63 c .2,-.13 .44,-.15 .65,-0 .3,.17 .4,.55 .23,.84 -.17,.3 -.55,.4 -.84,.23 C 9.85,15.9 9.74,15.63 9.77,15.4 l -1,-.6 .57,2.1 c .06,0 .13,.04 .2,.07 .3,.17 .4,.55 .23,.84 C 9.56,18.13 9.2,18.23 8.9,18.06 8.6,17.9 8.5,17.5 8.66,17.2 8.8,17.14 8.76,17.1 8.8,17.03 L 8.25,14.9 c -.1,-0.01 -.16,-.03 -.23,-.1 C 7.8,14.7 7.7,14.45 7.7,14.2 L 6.6,13.56 6.03,14.55 v 3.2 l 3.35,1.94 c .25,.14 .56,.06 .7,-.2 l 2.47,-4.3 c .14,-.25 .06,-.56 -.2,-.7 v -10e-4 L 8.1,12.04 c -.1,-.04 -.16,-.07 -.25,-.07 z" fill="#f05133"/><path color="#000000" d="M 5.64 12.97 C 5.36 13 5.2 13.2 5.15 13.3 C 5.1 13.4 5.1 13.45 5.1 13.5 C 4.8 13.43 4.54 13.4 4.3 13.4 C 4.05 13.4 3.85 13.4 3.66 13.46 C 3.56 13.5 3.47 13.6 3.4 13.66 C 3.2 13.64 2.93 13.6 2.3 13.75 C 1.5 13.93 1.13 14.3 1.04 14.37 C .96 14.4 .44 14.67 0 15.3 L 0 18 C 0 19.1 .9 20 2 20 L 5.7 20 C 5.76 19.96 5.8 19.9 5.85 19.8 C 5.9 19.76 5.9 19.65 5.9 19.56 C 5.9 19.54 6 19.6 6 19.56 C 6.2 19.46 6.4 19.3 6.6 19.05 C 6.9 18.66 7.07 18.1 7.13 17.5 C 7.2 16.8 7.1 16.03 6.7 15.4 C 6.75 15.3 6.8 15.2 6.84 15.1 C 6.9 14.97 6.97 14.86 7 14.7 C 7.03 14.6 7.04 14.5 7 14.4 C 7 14.27 6.9 14.1 6.76 14 C 6.65 13.94 6.5 13.9 6.4 13.94 C 6.34 13.95 6.3 13.97 6.3 14 C 6.3 13.95 6.3 13.9 6.3 13.87 C 6.3 13.77 6.3 13.64 6.25 13.5 C 6.2 13.34 6.1 13.1 5.83 13 C 5.8 12.97 5.7 12.96 5.64 12.97 z M 5.2 13.5 C 5.2 13.5 5.2 13.5 5.2 13.5 C 5.2 13.5 5.2 13.5 5.2 13.5 L 5.2 13.5 z " fill="#fcfcfc"/><path d="M 3.44 14.05 C 3.2 14.06 2.1 14.1 1.57 14.83 C 1.1 15.5 1.45 17.64 1.7 18.3 C 1.75 18.46 2 18.2 2 18.2 C 2 18.2 1.8 16.7 2.76 16.9 C 3.9 17.16 2.6 18.73 2.6 18.73 C 2.43 19 2.23 18.85 2.05 18.57 C 2.05 18.57 2.14 19.5 2.54 20 L 4.3 20 C 5.47 19.5 6.9 18.37 6.64 16.65 C 6.3 14.33 3.5 14.05 3.5 14.05 C 3.5 14.05 3.5 14.05 3.44 14.05 z " fill="#01195f"/><path d="m 5.1,16.94 .76,.55 .84,-.03 C 6.8,16.8 6.67,16.07 6.3,15.5 5.6,14.53 4.96,15.96 4.96,15.96 c 0,0 .2,.6 .15,1 z" fill="#43a6fa"/><path d="m 1.1,19.5 c 0,0 -.9,-.76 -1.04,-1.53 -.13,-.77 -.15,-1.8 .26,-2.4 .4,-.6 1.3,-1.23 2.04,-1.4 .76,-.2 1.13,-.1 1.13,-.1 0,0 -1.3,.2 -1.55,1 -.27,.8 .2,1.55 0,2.36 -.2,.8 -.35,1.2 -.35,1.2 z" fill="#43a6fa"/><path d="M 4.25 13.8 C 3.87 13.8 3.57 13.9 3.5 14 C 2.7 15.44 5 15.75 3.06 17.8 C 1.9 19 2.9 19.57 3.6 20 L 4.47 20 C 4.6 19.74 4.6 19.37 4.45 18.87 C 3.94 17.4 4.13 16.56 4.97 16.3 C 5.8 16.07 6.4 15.55 5.97 14.6 C 5.7 14 4.9 13.8 4.25 13.8 z M 1.5 17.17 C 1.5 17.17 1.47 17.17 1.46 17.17 C 1.1 17.23 1.7 18.3 1.4 18.56 C 1.14 18.8 1.3 18 .87 18.14 C .46 18.3 1.16 19 1 19.13 C .8 19.3 .5 18.55 .36 18.7 C .3 18.74 .74 19.44 1.54 19.95 C 1.7 20 1.84 20 2 20 L 3.45 20 C 1.95 19.3 2.17 18.1 2.07 18.06 C 1.95 18.03 1.95 18.3 1.9 18.3 C 1.6 18.3 1.8 17.2 1.5 17.17 z " fill="#a2cefb"/><circle cx="9.5" cy="15.52" fill="#43a6fa" id="path16506-3" r=".3" stop-color="#000000" transform="rotate(22.94)"/><path d="M 5.37 19.5 C 5.2 19.5 5.07 19.77 4.85 19.8 C 4.6 19.87 4.23 19.75 4.14 20 L 4.85 20 C 4.86 20 4.86 20 4.87 20 C 5.23 19.8 5.6 19.67 5.45 19.5 C 5.4 19.5 5.4 19.5 5.37 19.5 z " fill="#43a6fa"/><path d="m 5.1,16.94 c -0,.1 -.06,.2 -.13,.26 -.33,.23 -.77,-.4 -1.1,-.05 -.34,.34 .36,.9 .9,.73 .5,-.17 .4,.5 -.5,.37 -.9,-.14 -1.05,-.43 -1.2,.2 -.14,.64 1.25,.4 1.46,.26 .2,-.13 .5,-.2 .57,-.1 .04,.1 -.5,.25 -.36,.4 .1,.13 .9,-.83 1.1,-.6 .2,.25 -.36,.3 -.36,.56 0,.26 .25,.5 .77,-.2 .24,-.3 .4,-.8 .46,-1.33 z" fill="#43a6fa"/><path d="m 3.96,14.4 c .2,-.2 .74,-.43 .9,-.07 .16,.35 -.3,.5 -.5,.5 -.2,-0 -.5,-.3 -.4,-.43 z" fill="#01195f"/><path d="m 5.45,13.8 c 0,0 .04,-.46 .26,-.4 .2,.07 .14,.6 .14,.6 z" fill="#43a6fa"/><path d="m 5.6,14.4 c 0,0 -.3,-.67 -.1,-.75 .23,-.1 .37,.1 .36,.4 -0,.3 -.1,.6 -.1,.6 z" fill="#a2cefb"/><path d="m 6.2,14.7 c 0,0 .15,-.4 .33,-.3 .2,.1 -.05,.6 -.15,.63 -.1,.06 -.2,-.3 -.2,-.3 z" fill="#43a6fa"/><path d="m 6,15 c 0,0 .2,-.56 .4,-.5 .17,.06 .1,.5 -.07,.7 C 6.16,15.36 5.94,15.4 5.94,15.4 Z" fill="#a2cefb"/><path d="m 4.5,14.35 a .34,.34 0 0 0 -.45,.2 .34,.34 0 0 0 -.03,.1 c .03,.03 .06,.07 .1,.1 a .25,.25 0 0 1 0,-.17 .25,.25 0 0 1 .33,-.13 .25,.25 0 0 1 .13,.33 .25,.25 0 0 1 -0,0 c .04,-0 .1,-.03 .1,-.05 a .34,.34 0 0 0 -.2,-.4 z" fill="#43a6fa" stop-color="#000000"/><path d="M 12 0 C 10.2 0 10 .8 8.5 .97 C 8.47 1 8.4 1 8.36 1 C 8.3 1 8.3 1 8.24 1 C 8.2 1 8.2 1 8.2 1 C 8.13 1 8.1 1 8 1 L 7.23 3.93 C 7.06 4.54 7.4 5.16 8.03 5.3 L 12.6 6.55 C 13.2 6.7 13.83 6.35 14 5.75 L 15.2 1.2 C 15.33 .73 15.17 .27 14.83 0 L 12 0 z " fill="#fcfcfc" id="rect33149" stop-color="#000000"/><path d="M 12 0 C 10.3 0 10 .8 8.54 .97 L 7.74 3.95 C 7.63 4.35 7.87 4.76 8.27 4.87 L 12.6 6.04 C 13 6.14 13.43 5.9 13.54 5.5 L 14.7 1.16 C 14.8 .76 14.57 .35 14.17 .24 L 13.3 0 L 12 0 z M 11.4 .36 L 12.14 .5 L 11.8 1.8 L 13.1 .76 L 13.8 1.15 L 12.46 2.16 L 13.1 3.77 L 12.27 3.8 L 11.7 2.14 L 11.35 3.4 L 10.6 3.33 L 11.4 .36 z M 10.3 .77 C 10.3 .76 10.3 .76 10.3 .77 C 10.3 .77 10.33 .77 10.33 .8 L 10.8 1.3 C 10.86 1.26 10.93 1.25 11 1.24 L 10.93 1.54 C 10.5 1.6 10.1 1.94 10 2.4 C 9.8 3.04 10.2 3.7 10.8 3.86 C 11.26 4 11.7 3.83 12 3.5 C 12.1 3.8 12.2 4 12.2 4 C 12.2 4 12.2 4 12.2 4 L 12.27 4 L 12.4 4.4 C 12.4 4.4 12.37 4.4 12.36 4.4 L 12 4.63 C 12 4.64 11.96 4.63 11.95 4.6 L 11.5 4.13 C 11.4 4.17 11.26 4.2 11.13 4.2 L 10.8 4.75 C 10.8 4.76 10.8 4.77 10.8 4.77 L 10.4 4.66 C 10.36 4.65 10.35 4.64 10.35 4.6 L 10.4 4 C 10.27 3.9 10.17 3.84 10.1 3.75 L 9.46 3.94 C 9.44 3.94 9.4 3.93 9.4 3.9 L 9.2 3.56 C 9.3 3.54 9.3 3.5 9.2 3.5 L 9.8 3.1 C 9.67 2.95 9.65 2.8 9.65 2.7 L 9.1 2.37 C 9.1 2.36 9.1 2.35 9.1 2.33 L 9.2 1.93 C 9.2 1.9 9.2 1.9 9.23 1.9 L 9.87 1.94 C 9.93 1.83 10 1.74 10.1 1.66 L 9.9 1 C 9.9 1 9.9 1 9.93 1 L 10.3 .77 C 10.3 .77 10.3 .77 10.3 .77 z " fill="#3daefd"/><path d="M 21.3 0 A 4.25 4.25 0 0 0 20.5 3.8 A 4.25 4.25 0 0 0 25.7 6.8 A 4.25 4.25 0 0 0 28 5.24 L 28 3 L 28 2 C 28 .9 27.1 0 26 0 L 21.3 0 z " fill="#fcfcfc" stop-color="#000000"/><path d="M 22 0 C 21.05 .9 20.6 2.3 21 3.65 C 21.5 5.65 23.6 6.84 25.6 6.3 C 26.7 6 27.55 5.24 28 4.3 L 28 3 L 28 2 C 28 .96 27.2 .1 26.2 0 C 26.87 .4 27.4 1.06 27.6 1.87 C 27.7 2.13 27.7 2.4 27.7 2.64 L 25.86 1.43 L 24.6 4 L 25 2 L 24.35 1.33 L 22.55 5 C 22.1 4.6 21.77 4.2 21.6 3.5 C 21.23 2.1 21.85 .7 23.03 0 L 22 0 z " fill="#dc682e" id="XMLID_9_"/><path color="#000000" d="M 26.85 2.64 C 26.7 2.66 26.57 2.75 26.5 2.9 L 25.5 4.54 C 25.4 4.54 25.3 4.6 25.2 4.66 L 24.9 5 C 24.83 5.1 24.8 5.2 24.8 5.33 C 24.2 5.2 23.57 5.24 22.96 5.4 C 22.94 5.34 22.9 5.25 22.83 5.2 L 22.37 4.7 C 22.05 4.34 21.47 4.7 21.5 5.07 L 21.6 6.14 C 20.65 7.03 20.1 8.4 20.54 9.7 C 20.55 9.7 20.57 9.74 20.6 9.77 C 20.94 10.44 21.6 10.87 22.3 11.04 C 22.3 11.1 22.26 11.2 22.26 11.24 C 22.27 11.35 22.3 11.43 22.34 11.5 C 22.4 11.64 22.6 12.1 22.9 12.2 C 22.64 12.54 22.34 12.9 22.16 13.4 C 22.13 13.5 22 14.26 22 14.37 C 22 14.5 22.03 14.65 22.16 14.8 C 22.3 14.9 22.47 14.97 22.6 14.97 C 22.74 15 22.84 14.96 22.96 14.9 C 23.3 14.84 23.57 14.74 23.8 14.7 C 24.04 14.63 24.2 14.6 24.4 14.7 C 24.43 14.7 24.5 14.7 24.53 14.73 C 25 14.76 25.47 14.76 25.97 14.7 C 26.4 15.1 26.9 15.33 27.1 15.6 C 27.1 15.63 27.43 15.83 27.6 15.83 C 27.74 15.84 27.9 15.77 28 15.7 L 28 10.86 C 27.6 11 27.25 11.14 26.9 11.24 C 26.9 11.24 26.86 11.25 26.85 11.25 C 26.67 11.3 26.7 11.3 26.7 11.26 C 26.67 11.23 26.8 10.7 26.8 10.6 C 27.1 10.66 27.43 10.67 27.8 10.53 L 27.8 10.53 C 27.87 10.5 27.93 10.5 28 10.46 L 28 3 L 28 2.9 C 27.5 2.75 26.87 2.64 26.85 2.64 z " fill="#fcfcfc" fill-rule="evenodd"/><path d="m 25.3,5.3 .27,-.33 1.35,-1.85 -.05,1.05 -.4,1.2 -.3,.33 -.4,.5 c 0,0 -.14,-0 -.3,-.05 C 25.33,6.1 25.3,5.3 25.3,5.3 Z" fill="#ffa92d" fill-rule="evenodd"/><path d="m 22.35,6 .1,-.5 -.46,-.5 .1,1.24 z" fill="#ffa92d" fill-rule="evenodd"/><path d="M 28 6.85 C 27.2 7.53 26.17 8.6 26.1 9.66 L 26.1 9.67 C 26.1 9.67 26.7 10.4 27.63 10.06 C 27.75 10 27.87 9.97 28 9.93 L 28 6.85 z " fill="#f28172" fill-rule="evenodd"/><path d="M 28 3.47 C 27.96 3.5 27.9 3.5 27.9 3.5 C 27.4 3.8 27.54 4.7 27.2 4.9 C 26.87 4.5 26.3 4.9 26.67 5.34 C 26.95 5.7 26.5 6.7 26.04 6.2 C 24.9 5.66 23.37 5.37 22.26 6.2 C 21.24 6.9 20.6 8.3 21 9.53 C 21.5 10.4 22.6 10.83 23.53 10.57 C 23.4 10.85 23.47 11.16 23.14 10.84 C 23 11 23.26 11.36 22.9 11.1 C 22.44 11.24 23.3 11.57 23.1 11.8 C 23.3 12.07 24.2 11.5 23.7 12 C 23.3 12.6 22.66 13.13 22.6 13.9 C 22.4 14.2 22.47 14.7 22.94 14.4 C 23.6 14.14 24.3 14.1 24.96 14.26 C 25.57 14.3 26.2 14.05 26.63 14.6 C 27.04 14.74 27.3 15.33 27.7 15.3 C 27.9 14.8 27.4 14.15 27.7 13.7 C 27.8 13.7 27.9 13.67 28 13.63 L 28 11.4 C 27.57 11.55 27.13 11.73 26.7 11.8 C 25.8 11.6 26.34 10.6 26.4 10.06 C 26.45 9.37 26.56 8.7 27.13 8.24 C 27.4 7.9 27.7 7.55 28 7.2 L 28 3.47 z " fill="#3bb767" fill-rule="evenodd"/><path d="m 23.4,9.67 c 0,0 .1,.5 .46,.75 .34,.27 .93,.4 .93,.4 0,0 .2,-1.05 .46,-1.63 .26,-.6 .6,-1.4 .6,-1.4 0,0 -1.17,.5 -1.63,.94 -.46,.43 -.8,1 -.8,1 z" fill="#f58273" fill-rule="evenodd"/><path color="#000000" d="m 15.76,10.9 c -0,0 -.1,.03 -.1,.03 -.05,0 -.1,.05 -.14,.1 -.06,.06 -.13,.17 -.15,.3 -0,.1 0,.23 .05,.3 .07,.14 .13,.17 .17,.2 .1,.06 .1,.07 .17,.1 .1,.04 .2,.07 .33,.1 .27,.07 .64,.14 1.1,.2 .4,.05 .95,.2 1.37,.37 .17,.07 .3,.13 .4,.2 -.1,.4 -.06,.9 .13,1.46 -0,.03 -0,.04 -.05,.1 -.04,.07 -.1,.16 -.13,.3 -.04,.1 -.1,.3 0,.53 9.02e-4,0 0,0 0,0 .06,.14 .25,.3 .4,.3 .03,0 .04,-0 .06,-0 0,.05 0,.1 .04,.17 .05,.1 .2,.3 .45,.33 0,9.29e-4 0,0 .03,0 .2,0 .3,-.07 .33,-.1 .05,-.04 .07,-.06 .1,-.1 .05,-.05 .1,-.1 .1,-.14 .07,-.1 .15,-.2 .2,-.3 .07,-.1 .13,-.2 .2,-.26 .6,-.03 1.2,-.13 1.7,-.3 .27,-.1 .5,-.17 .7,-.24 .06,-0 .45,-0 .6,0 .16,0 .33,.04 .5,.05 .07,0 .14,0 .2,0 .04,-0 .1,-0 .14,-0 .06,-0 .15,-0 .3,-.17 .03,-.03 .05,-.06 .07,-.1 .07,-.14 -0,-.3 -.04,-.43 0,-0 .04,-7.7e-4 .06,-0 .05,-0 .1,-.03 .2,-.1 .1,-.06 .2,-.2 .23,-.37 0,-0 0,-0 0,-.03 0,-.3 -.1,-.43 -.2,-.5 -.1,-.1 -.2,-.16 -.26,-.2 -0,-0 .26,-.3 .43,-.47 .17,-.17 .34,-.34 .5,-.55 .14,-.2 .3,-.5 .15,-.86 -.15,-.35 -.47,-.56 -.76,-.65 -.3,-.1 -.6,-.1 -.86,-.1 -.23,0 -.4,0 -.6,.04 -.03,-.07 -.04,-.14 -.1,-.2 -.07,-.16 -.16,-.34 -.4,-.5 -.2,-.15 -.64,-.14 -.87,.03 -.1,.1 -.13,.23 -.17,.36 -.05,-0 -.1,-.03 -.13,-.03 -.14,0 -.3,.07 -.4,.16 -0,0 -0,0 -0,0 -.2,.17 -.26,.43 -.25,.63 0,.2 .07,.35 .1,.47 .03,.1 .06,.1 .1,.16 -0,.04 -.05,.1 -.05,.1 -6.46e-4,0 -4.78e-4,0 -0,0 -.1,.03 -.27,.05 -.46,.07 -.4,.04 -.83,.05 -1.15,.1 l -9.66e-4,2.59e-4 c -.26,.05 -.4,.2 -.54,.3 -.56,-.3 -1.4,-.65 -2.3,-.65 -0,3.5e-5 -0,-4.04e-4 -0,-3.67e-4 -.2,-0 -.5,-.04 -.8,-.1 -.13,-0 -.25,-.04 -.34,-.06 -.05,-0 -.1,-0 -.1,-0 -0,-0 -.04,-0 -.06,-0 -0,-0 -.03,-0 -.06,-0 -0,6.8e-5 -.03,7.74e-4 -.06,0 -0,0 -.03,0 -.06,0 z" fill="#fcfcfc"/><path d="m 15.87,11.4 c -.04,.04 .5,.2 1.4,.33 .9,.1 2.3,.7 2.24,.84 -.17,.45 -.2,.95 .1,1.7 .06,.13 -.3,.5 -.2,.7 .07,.15 .43,-.3 .5,-.23 .06,.1 -.06,.73 .06,.75 .1,0 .6,-.87 .65,-.87 1.25,.04 2.7,-.63 2.7,-.65 -0,-0 1.2,.2 1.3,.13 .17,-.3 -.6,-.5 -.54,-.7 0.03,-.1 .9,.06 .93,-.05 0,-.2 -.5,-.43 -.6,-.5 -.1,-.1 -.14,-.24 -0,-.37 .1,-.14 1.4,-1.1 1.24,-1.5 -.3,-.75 -2.06,-.34 -2.1,-.4 -0,-.03 -.2,-1.14 -.7,-.8 -.3,.2 .16,.8 .2,.9 .04,.1 -.1,.1 -.16,.1 -.1,-.06 -.5,-.7 -.7,-.53 -.3,.3 .2,.83 .13,.87 -.1,.1 -.06,.3 -.13,.47 -.1,.3 -1.53,.3 -1.97,.37 -.3,.07 -.55,.4 -.6,.4 -.5,-.3 -1.45,-.73 -2.37,-.7 -.5,-0 -1.34,-.2 -1.37,-.2 z" fill="#020202" stroke="#000002" stroke-width="0.0556239pt"/><path d="m 18.5,13.4 c -.24,0 -.5,.07 -.7,.2 l -.87,.5 c -.7,.4 -.96,1.33 -.55,2.05 l 0.25,.43 -.43,0.25 c -.7,.4 -.96,1.33 -.55,2.05 l 0.5,.87 c .05,.1 .1,.17 .17,.24 h 6 c .26,-.45 .3,-1 0,-1.5 l -0.25,-.43 .43,-0.25 c .7,-.4 .97,-1.33 .55,-2.05 l -.5,-.87 c -.4,-.7 -1.33,-.96 -2.05,-.55 l -.43,.25 -.25,-.43 C 19.53,13.67 19,13.4 18.5,13.4 Z" fill="#fcfcfc" id="rect3048" stop-color="#000000" stroke-opacity=".2"/><path d="m 21.47,15.1 c -.16,0 -.3,.05 -.47,.13 l -.43,0.25 0.25,.43 c .3,.5 .1,1.1 -.37,1.37 l -1.73,1 c -.24,.14 -.3,.44 -.2,.7 l .6,1.06 h 2.5 c .36,-.3 .46,-.83 .2,-1.26 l -0.25,-.43 -1.1,.6 c -.1,.07 -.27,.03 -.34,-.1 -.07,-.1 -.05,-.3 .1,-.34 L 22.25,17.4 c .5,-.3 .64,-.9 .37,-1.37 l -0.25,-.43 c -.2,-.33 -.54,-.5 -.9,-.5 z m -.1,4 c .1,0 .16,.05 .2,.1 .07,.1 .03,.26 -.1,.33 -0,0 -0,0 -0,0 -.1,.07 -.27,.03 -.34,-.1 -.07,-.1 -.03,-.26 .1,-.34 0,-0 0,-0 0,-0 .04,-.03 .1,-.04 .14,-.03 z" fill="#ffe32b" stop-color="#000000"/><path d="m 18.5,13.9 c -.16,0 -.3,.05 -.47,.13 l -.87,0.5 c -.5,.3 -.64,.9 -.37,1.37 l 0.25,.43 1.1,-.6 c .1,-.07 .27,-.03 .34,.1 .07,.1 .03,.27 -.1,.34 l -1.1,.6 -.87,0.5 c -.5,.3 -.64,.9 -.37,1.37 l .5,.87 c .16,.3 .44,.45 .73,.5 h .27 c .1,-0 .25,-.06 .37,-.1 l .43,-0.25 -.25,-.43 c -.3,-.5 -.1,-1.1 .37,-1.37 l .87,-.5 .87,-0.5 c .24,-.14 .3,-.44 .2,-.7 l -.25,-.43 -0.75,-1.3 C 19.2,14.1 18.85,13.9 18.5,13.9 Z m -1.16,1.16 c .1,0 .16,.05 .2,.1 .07,.1 .03,.27 -.1,.34 -.1,.07 -.27,.03 -.34,-.1 -.07,-.1 -.03,-.26 .1,-.33 0,-0 0,-0 0,-0 .04,-.03 .1,-.04 .14,-.03 z" fill="#3daefd" id="rect940" stop-color="#000000"/><path d="M 25.2 12.76 C 24.74 12.76 24.24 12.85 23.76 13.05 C 21.84 13.84 20.93 16.04 21.73 17.95 C 22.13 18.9 22.9 19.64 23.8 20 L 26 20 C 27.1 20 28 19.1 28 18 L 28 14 C 27.3 13.2 26.3 12.77 25.2 12.76 z " fill="#fcfcfc"/><path d="M 25.2 13.27 C 24.8 13.27 24.37 13.35 23.96 13.5 C 22.3 14.2 21.5 16.1 22.2 17.76 C 22.9 19.4 24.8 20.2 26.44 19.5 C 27.1 19.23 27.65 18.75 28 18.17 C 28 18.1 28 18.06 28 18 L 28 14.9 C 27.4 13.9 26.35 13.3 25.2 13.27 z M 25.85 13.96 C 26.4 13.94 26.04 15.2 25.6 15.4 C 25.16 15.6 24.8 14.35 25.65 14 C 25.73 13.97 25.8 13.96 25.85 13.96 z M 24.5 14.66 C 24.85 14.63 24.94 15.5 24.7 15.6 C 24.45 15.7 23.95 14.95 24.4 14.7 C 24.4 14.7 24.4 14.7 24.43 14.7 C 24.46 14.67 24.5 14.66 24.5 14.66 z M 23.83 15.3 C 24.1 15.3 24.3 15.96 24.15 16.07 C 23.96 16.2 23.4 15.7 23.7 15.4 C 23.7 15.36 23.73 15.34 23.75 15.33 C 23.76 15.33 23.77 15.33 23.8 15.3 C 23.8 15.3 23.8 15.3 23.83 15.3 z M 25.8 15.64 C 25.93 15.65 26.06 15.7 26.13 15.8 C 26.6 16.56 24.7 17.7 25.7 17.96 C 26 18.04 26.2 17.8 26.04 17.54 C 25.9 17.3 26.7 16.8 26.8 17.2 C 26.9 17.7 26.6 18.27 26.17 18.44 C 25.34 18.8 24.14 18.14 24 17.4 C 23.9 16.7 24.6 16 25.24 15.75 C 25.43 15.67 25.6 15.63 25.8 15.64 z M 23.4 16.07 C 23.64 16.06 23.94 16.54 23.8 16.67 C 23.67 16.8 23.07 16.5 23.3 16.15 C 23.3 16.1 23.34 16.1 23.37 16.07 C 23.4 16.07 23.4 16.07 23.4 16.07 z " fill="#0087ed"/></g><use href="#uNy" opacity=".4"></use><use fill="url(#uNw)" href="#uNy" opacity=".1"></use><path d="M 14,8 C 12,8 12,9 10,9 H 4 C 2.9,9 2,9.9 2,11 v 15 c 0,1.1 .9,2 2,2 h 24 c 1.1,0 2,-.9 2,-2 V 11 10 C 30,8.9 29.1,8 28,8 Z" fill="url(#uNv)" opacity=".2"/><path class="ColorScheme-Contrast" d="m 2,25 v 1 c 0,1.1 .9,2 2,2 h 24 c 1.1,0 2,-.9 2,-2 v -1 c 0,1.1 -.9,2 -2,2 H 4 C 2.9,27 2,26.1 2,25 Z" fill="currentColor" opacity=".1"/><path class="ColorScheme-Contrast" d="M 2,25.5 V 26 c 0,1.1 .9,2 2,2 h 24 c 1.1,0 2,-.9 2,-2 v -0.5 c 0,1.1 -.9,2 -2,2 H 4 c -1.1,0 -2,-.9 -2,-2 z" fill="currentColor" opacity=".2"/><path d="M 14,8 C 12,8 12,9 10,9 H 4 C 2.9,9 2,9.9 2,11 v 0.5 c 0,-1.1 .9,-2 2,-2 h 6 c 2,0 2,-1 4,-1 h 14 c 1.1,0 2,.9 2,2 V 10 C 30,8.9 29.1,8 28,8 Z" fill="#fff" opacity=".2"/><path d="M 14,8 C 12,8 12,9 10,9 H 4 C 2.9,9 2,9.9 2,11 v 1 c 0,-1.1 .9,-2 2,-2 h 6 c 2,0 2,-1 4,-1 h 14 c 1.1,0 2,.9 2,2 V 10 C 30,8.9 29.1,8 28,8 Z" fill="#fff" opacity=".1"/><path d="m 14,7.5 c -2,0 -2,1 -4,1 H 4 C 3.63,8.5 3.3,8.6 3,8.77 v 0.5 C 3.3,9.1 3.63,9 4,9 h 6 c 2,0 2,-1 4,-1 h 14 c .37,0 .7,.1 1,.27 v -0.5 C 28.7,7.6 28.37,7.5 28,7.5 Z" opacity=".2"/><path d="M 14,7 C 12,7 12,8 10,8 H 4 C 3.63,8 3.3,8.1 3,8.27 v 1 C 3.3,9.1 3.63,9 4,9 h 6 c 2,0 2,-1 4,-1 h 14 c .37,0 .7,.1 1,.27 v -1 C 28.7,7.1 28.37,7 28,7 Z" opacity=".1"/></g>
</svg>