<svg height="32" version="1.1" width="32" xmlns="http://www.w3.org/2000/svg" xmlns:svg="http://www.w3.org/2000/svg" xmlns:xlink="http://www.w3.org/1999/xlink">
<defs id="primary-definitions">
<style id="current-color-scheme" type="text/css">
      .ColorScheme-Text           { color:#fff; }
      .ColorScheme-Background     { color:#111; }
      .ColorScheme-Highlight      { color:#3daefd; }
      .ColorScheme-ViewBackground { color:#000; }
      .ColorScheme-PositiveText   { color:#27ae60; }
      .ColorScheme-NeutralText    { color:#f67400; }
      .ColorScheme-NegativeText   { color:#da4453; }
    </style>
<style id="extended-color-scheme" type="text/css">
      .ExScheme-Black     { color:#3e3e3e; }
      .ExScheme-White     { color:#fcfcfc; }
      .ExScheme-Grey-1    { color:#cfd5d5; }
      .ExScheme-Grey-2    { color:#909c9c; }
      .ExScheme-Grey-3    { color:#536161; }
      .ExScheme-Red-1     { color:#ffafa5; }
      .ExScheme-Red-2     { color:#bf4231; }
      .ExScheme-Red-3     { color:#4d2f2b; }
      .ExScheme-Green-1   { color:#abf9c7; }
      .ExScheme-Green-2   { color:#3bb566; }
      .ExScheme-Green-3   { color:#377d50; }
      .ExScheme-Blue-1    { color:#abdaf9; }
      .ExScheme-Blue-2    { color:#3daefd; }
      .ExScheme-Blue-3    { color:#2b3c4d; }
      .ExScheme-Yellow-1  { color:#faffa5; }
      .ExScheme-Yellow-2  { color:#cac726; }
      .ExScheme-Yellow-3  { color:#4b4d2b; }
      .ExScheme-Orange-1  { color:#ffdaa5; }
      .ExScheme-Orange-2  { color:#ff9701; }
      .ExScheme-Orange-3  { color:#4d372b; }
      .ExScheme-Brown-1   { color:#e9d6bb; }
      .ExScheme-Brown-2   { color:#997657; }
      .ExScheme-Brown-3   { color:#433a35; }
      .ExScheme-Purple-1  { color:#e2abf9; }
      .ExScheme-Purple-2  { color:#b401ff; }
      .ExScheme-Purple-3  { color:#432b4d; }
      .ExScheme-Cyan-1    { color:#b2f2e6; }
      .ExScheme-Cyan-2    { color:#31bfa6; }
      .ExScheme-Cyan-3    { color:#2b4d47; }
      .ExScheme-Magenta-1 { color:#f8a6d8; }
      .ExScheme-Magenta-2 { color:#f00091; }
      .ExScheme-Magenta-3 { color:#770048; }
    </style>
<linearGradient id="uAr">
<stop offset="0"/>
<stop offset="1" stop-opacity="0"/>
</linearGradient>
<linearGradient id="uAs">
<stop offset="0" stop-color="#fff"/>
<stop offset="1" stop-color="#fff" stop-opacity="0"/>
</linearGradient>
<style class="toggle-enable-crease" type="text/css">
        .folder-crease { display: none; }
    </style><style class="toggle-manilla-folders" type="text/css">
        .folder-manilla { display: none; }
    </style><radialGradient cx=".5" cy="0" id="uAt" r="1" xlink:href="#uAs"/><linearGradient id="uAu" xlink:href="#uAr" y1="1" y2=".5"/><path d="M 5,4 C 3.9,4 3,4.9 3,6 V 9.27 C 2.4,9.6 2,10.26 2,11 v 15 c 0,1.1 .9,2 2,2 h 24 c 1.1,0 2,-.9 2,-2 V 11 10 C 30,9.26 29.6,8.6 29,8.27 V 7 C 29,5.9 28.1,5 27,5 H 14 C 12,5 12,4 10,4 Z" id="uAv"></path><path d="M 5,4 C 3.9,4 3,4.9 3,6 V 9.27 C 3.3,9.1 3.63,9 4,9 h 6 c 2,0 2,-1 4,-1 h 14 c .37,0 .7,.1 1,.27 V 7 C 29,5.9 28.1,5 27,5 H 14 C 12,5 12,4 10,4 Z" id="uAw"></path></defs>
<g id="content" transform="translate(0,0)"><use class="folder-manilla ExScheme-Brown-1" fill="currentColor" href="#uAv"></use><use class="toggle-manilla-folders ColorScheme-Highlight" fill="#d81b1e" href="#uAv" id="primary-color"></use><use class="ColorScheme-Text" fill="currentColor" href="#uAv" opacity=".1"></use><g id="emblem" transform="translate(8,10)"><path class="ColorScheme-Background" d="M 8 2 C 6.3 2 4.67 2.53 3.3 3.53 C .5 5.56 -.7 9.2 .4 12.47 A .5 .5 0 0 0 1 12.8 L 2.9 12.17 A .5 .5 0 0 0 3.24 11.54 C 3.1 11.06 3 10.54 3 10 C 3 8.56 3.36 7.03 4.16 5.9 C 4.95 4.77 6.14 4 8 4 C 9.43 4 10.46 4.45 11.2 5.2 L 12.6 3.45 C 11.25 2.5 9.65 2 8 2 z M 13.4 4.1 L 11.9 5.95 C 12.3 6.55 12.6 7.26 12.76 8 L 13.5 8 C 14.33 8 15 8.67 15 9.5 C 15 10.33 14.33 11 13.5 11 L 12.9 11 C 12.86 11.2 12.8 11.37 12.76 11.54 A .5 .5 0 0 0 13.1 12.17 L 15 12.8 A .5 .5 0 0 0 15.6 12.47 C 16.6 9.46 15.7 6.2 13.4 4.1 z M 8 9 A 1 1 0 0 0 7 10 A 1 1 0 0 0 8 11 A 1 1 0 0 0 9 10 L 13.53 10 C 13.8 10 14 9.8 14 9.53 L 14 9.47 C 14 9.2 13.8 9 13.53 9 L 8.47 9 C 8.4 9 8.34 9 8.3 9.04 A 1 1 0 0 0 8 9 z " fill="currentColor" opacity=".6"/><path class="ColorScheme-Background" d="M 8 2 C 6.3 2 4.67 2.53 3.3 3.53 C .5 5.56 -.7 9.2 .4 12.47 A .5 .5 0 0 0 1 12.8 L 2.9 12.17 A .5 .5 0 0 0 3.24 11.54 C 3.1 11.06 3 10.54 3 10 C 3 8.56 3.36 7.03 4.16 5.9 C 4.95 4.77 6.14 4 8 4 C 9.43 4 10.46 4.45 11.2 5.2 L 12.6 3.45 C 11.25 2.5 9.65 2 8 2 z M 8 2.5 C 9.36 2.5 10.66 2.93 11.8 3.6 L 11.1 4.5 C 10.3 3.9 9.3 3.5 8 3.5 C 6 3.5 4.6 4.37 3.75 5.6 C 2.87 6.86 2.5 8.5 2.5 10 C 2.5 10.6 2.6 11.16 2.77 11.7 L 2.77 11.7 L .87 12.3 L .87 12.3 C -.14 9.23 .96 5.84 3.6 3.93 C 4.87 3 6.4 2.5 8 2.5 z M 13.4 4.1 L 11.9 5.95 C 12.3 6.55 12.6 7.26 12.76 8 L 13.5 8 C 14.33 8 15 8.67 15 9.5 C 15 10.33 14.33 11 13.5 11 L 12.9 11 C 12.86 11.2 12.8 11.37 12.76 11.54 A .5 .5 0 0 0 13.1 12.17 L 15 12.8 A .5 .5 0 0 0 15.6 12.47 C 16.6 9.46 15.7 6.2 13.4 4.1 z M 13.4 4.87 C 14.53 6.07 15.2 7.6 15.4 9.2 C 15.23 8.27 14.5 7.5 13.5 7.5 L 13.1 7.5 C 12.93 7 12.7 6.5 12.45 6.04 L 13.4 4.87 z M 8 9 A 1 1 0 0 0 7 10 A 1 1 0 0 0 8 11 A 1 1 0 0 0 9 10 L 13.53 10 C 13.8 10 14 9.8 14 9.53 L 14 9.47 C 14 9.2 13.8 9 13.53 9 L 8.47 9 C 8.4 9 8.34 9 8.3 9.04 A 1 1 0 0 0 8 9 z M 8 9.5 L 8 9.5 C 8.05 9.5 8.1 9.5 8.14 9.5 A .5 .5 0 0 0 8.47 9.5 C 8.47 9.5 8.5 9.5 8.5 9.5 L 9 9.5 A .5 .5 0 0 0 8.5 10 C 8.5 10.3 8.3 10.5 8 10.5 C 7.7 10.5 7.5 10.3 7.5 10 C 7.5 9.7 7.7 9.5 8 9.5 z M 15.44 9.65 C 15.5 10.54 15.4 11.44 15.13 12.3 L 15.13 12.3 L 13.23 11.7 L 13.23 11.7 C 13.25 11.63 13.26 11.57 13.3 11.5 L 13.5 11.5 C 14.54 11.5 15.34 10.67 15.44 9.65 z " fill="currentColor" opacity=".6"/></g><use href="#uAw" opacity=".4"></use><use class="toggle-flat-design" fill="url(#uAu)" href="#uAw" opacity=".1"></use><path class="toggle-flat-design" d="M 14,8 C 12,8 12,9 10,9 H 4 C 2.9,9 2,9.9 2,11 v 15 c 0,1.1 .9,2 2,2 h 24 c 1.1,0 2,-.9 2,-2 V 11 10 C 30,8.9 29.1,8 28,8 Z" fill="url(#uAt)" opacity=".2"/><path class="folder-crease " d="m 2,22 v 1 H 6.5 C 6.8,23 7,22.8 7,22.5 7,22.2 6.8,22 6.5,22 Z m 23.5,0 c -.3,0 -0.5,.2 -0.5,0.5 0,.3 .2,0.5 0.5,0.5 H 30 v -1 z" opacity=".4"/><path class="ColorScheme-Text" d="m 2,25 v 1 c 0,1.1 .9,2 2,2 h 24 c 1.1,0 2,-.9 2,-2 v -1 c 0,1.1 -.9,2 -2,2 H 4 C 2.9,27 2,26.1 2,25 Z" fill="currentColor" opacity=".1"/><path class="ColorScheme-Text" d="M 2,25.5 V 26 c 0,1.1 .9,2 2,2 h 24 c 1.1,0 2,-.9 2,-2 v -0.5 c 0,1.1 -.9,2 -2,2 H 4 c -1.1,0 -2,-.9 -2,-2 z" fill="currentColor" opacity=".2"/><path d="M 14,8 C 12,8 12,9 10,9 H 4 C 2.9,9 2,9.9 2,11 v 0.5 c 0,-1.1 .9,-2 2,-2 h 6 c 2,0 2,-1 4,-1 h 14 c 1.1,0 2,.9 2,2 V 10 C 30,8.9 29.1,8 28,8 Z" fill="#fff" opacity=".2"/><path d="M 14,8 C 12,8 12,9 10,9 H 4 C 2.9,9 2,9.9 2,11 v 1 c 0,-1.1 .9,-2 2,-2 h 6 c 2,0 2,-1 4,-1 h 14 c 1.1,0 2,.9 2,2 V 10 C 30,8.9 29.1,8 28,8 Z" fill="#fff" opacity=".1"/><path d="m 14,7.5 c -2,0 -2,1 -4,1 H 4 C 3.63,8.5 3.3,8.6 3,8.77 v 0.5 C 3.3,9.1 3.63,9 4,9 h 6 c 2,0 2,-1 4,-1 h 14 c .37,0 .7,.1 1,.27 v -0.5 C 28.7,7.6 28.37,7.5 28,7.5 Z" opacity=".2"/><path d="M 14,7 C 12,7 12,8 10,8 H 4 C 3.63,8 3.3,8.1 3,8.27 v 1 C 3.3,9.1 3.63,9 4,9 h 6 c 2,0 2,-1 4,-1 h 14 c .37,0 .7,.1 1,.27 v -1 C 28.7,7.1 28.37,7 28,7 Z" opacity=".1"/></g>
</svg>