<?xml version="1.0" encoding="utf-8"?><svg height="32" width="32" xmlns="http://www.w3.org/2000/svg" xmlns:svg="http://www.w3.org/2000/svg" xmlns:xlink="http://www.w3.org/1999/xlink"><defs id="primary-definitions"><style id="current-color-scheme" type="text/css">.ColorScheme-Text           { color:#fff; }
      .ColorScheme-Background     { color:#111; }
      .ColorScheme-Highlight      { color:#3daefd; }
      .ColorScheme-ViewBackground { color:#000; }
      .ColorScheme-PositiveText   { color:#27ae60; }
      .ColorScheme-NeutralText    { color:#f67400; }
      .ColorScheme-NegativeText   { color:#da4453; }
  </style><style id="extended-color-scheme" type="text/css">.ExScheme-Black     { color:#3e3e3e; }
      .ExScheme-White     { color:#fcfcfc; }
      .ExScheme-Grey-1    { color:#cfd5d5; }
      .ExScheme-Grey-2    { color:#909c9c; }
      .ExScheme-Grey-3    { color:#536161; }
      .ExScheme-Red-1     { color:#ffafa5; }
      .ExScheme-Red-2     { color:#bf4231; }
      .ExScheme-Red-3     { color:#4d2f2b; }
      .ExScheme-Green-1   { color:#abf9c7; }
      .ExScheme-Green-2   { color:#3bb566; }
      .ExScheme-Green-3   { color:#377d50; }
      .ExScheme-Blue-1    { color:#abdaf9; }
      .ExScheme-Blue-2    { color:#3daefd; }
      .ExScheme-Blue-3    { color:#2b3c4d; }
      .ExScheme-Yellow-1  { color:#faffa5; }
      .ExScheme-Yellow-2  { color:#cac726; }
      .ExScheme-Yellow-3  { color:#4b4d2b; }
      .ExScheme-Orange-1  { color:#ffdaa5; }
      .ExScheme-Orange-2  { color:#ff9701; }
      .ExScheme-Orange-3  { color:#4d372b; }
      .ExScheme-Brown-1   { color:#e9d6bb; }
      .ExScheme-Brown-2   { color:#997657; }
      .ExScheme-Brown-3   { color:#433a35; }
      .ExScheme-Purple-1  { color:#e2abf9; }
      .ExScheme-Purple-2  { color:#b401ff; }
      .ExScheme-Purple-3  { color:#432b4d; }
      .ExScheme-Cyan-1    { color:#b2f2e6; }
      .ExScheme-Cyan-2    { color:#31bfa6; }
      .ExScheme-Cyan-3    { color:#2b4d47; }
      .ExScheme-Magenta-1 { color:#f8a6d8; }
      .ExScheme-Magenta-2 { color:#f00091; }
      .ExScheme-Magenta-3 { color:#770048; }
  </style><linearGradient id="gradientDark"><stop offset="0"/><stop offset="1" stop-opacity="0"/></linearGradient><linearGradient id="gradientLight"><stop offset="0" stop-color="#fff"/><stop offset="1" stop-color="#fff" stop-opacity="0"/></linearGradient><style class="toggle-enable-crease" type="text/css">.folder-crease { display: none; }
  </style><style class="toggle-manilla-folders" type="text/css">.folder-manilla { display: none; }
  </style><radialGradient cx=".5" cy="0" id="gl1" r="1" xlink:href="#gradientLight"/><linearGradient id="gd1" xlink:href="#gradientDark" y1="1" y2=".5"/><path d="M 5,4 C 3.892,4 3,4.892 3,6 V 9.268 C 2.402,9.613 2,10.257 2,11 v 15 c 0,1.108 0.892,2 2,2 h 24 c 1.108,0 2,-0.892 2,-2 V 11 10 C 30,9.257 29.598,8.613 29,8.268 V 7 C 29,5.892 28.108,5 27,5 H 14 C 12,5 12,4 10,4 Z" id="use-path-3x"/><path d="M 5,4 C 3.892,4 3,4.892 3,6 V 9.268 C 3.294,9.098 3.635,9 4,9 h 6 c 2,0 2,-1 4,-1 h 14 c .365,0 0.706,.098 1,.268 V 7 C 29,5.892 28.108,5 27,5 H 14 C 12,5 12,4 10,4 Z" id="use-path-3y"/></defs><g id="content"><use class="folder-manilla ExScheme-Brown-1" fill="currentColor" href="#use-path-3x"/><use class="toggle-manilla-folders ColorScheme-Highlight" fill="currentColor" href="#use-path-3x" id="primary-color"/><use class="ColorScheme-Text" fill="currentColor" href="#use-path-3x" opacity=".1"/><g id="emblem" transform="translate(8,10)"><path class="ColorScheme-Background" d="M 8.12,2 A 1,1 0 0 0 7.2,2.61 L 5.953,5.545 2.775,5.824 a 1,1 0 0 0 -.568,1.75 l 2.406,2.094 -.717,3.107 a 1,1 0 0 0 1.49,1.082 l 2.734,-1.643 2.734,1.643 a 1,1 0 0 0 1.488,-1.082 l -.717,-3.107 2.406,-2.094 a 1,1 0 0 0 -.568,-1.75 L 10.287,5.545 9.04,2.61 A 1,1 0 0 0 8.12,2 Z" fill="currentColor" opacity=".6"/><path class="ColorScheme-Background" d="M 8.12 2 A 1 1 0 0 0 7.2 2.61 L 5.953 5.545 L 2.775 5.824 A 1 1 0 0 0 2.207 7.574 L 4.613 9.668 L 3.896 12.775 A 1 1 0 0 0 5.387 13.857 L 8.12 12.215 L 10.855 13.857 A 1 1 0 0 0 12.344 12.775 L 11.627 9.668 L 14.033 7.574 A 1 1 0 0 0 13.465 5.824 L 10.287 5.545 L 9.04 2.61 A 1 1 0 0 0 8.12 2 z M 8.12 2.5 C 8.323 2.5 8.5 2.62 8.58 2.805 L 9.826 5.74 A .5 .5 0 0 0 10.244 6.043 L 13.422 6.322 C 13.66 6.344 13.792 6.483 13.852 6.666 C 13.91 6.85 13.886 7.04 13.705 7.197 L 11.3 9.29 A .5 .5 0 0 0 11.14 9.78 L 11.857 12.89 L 11.855 12.887 C 11.91 13.12 11.82 13.29 11.664 13.404 C 11.508 13.518 11.318 13.55 11.11 13.428 L 8.38 11.787 A .5 .5 0 0 0 7.863 11.787 L 5.13 13.43 C 4.922 13.554 4.733 13.52 4.576 13.406 C 4.42 13.293 4.328 13.124 4.383 12.89 L 5.09 9.78 A .5 .5 0 0 0 4.94 9.29 L 2.535 7.197 C 2.354 7.04 2.33 6.85 2.39 6.666 C 2.448 6.483 2.58 6.344 2.818 6.322 L 5.996 6.043 A .5 .5 0 0 0 6.414 5.74 L 7.66 2.805 C 7.74 2.618 7.92 2.5 8.12 2.5 z " fill="currentColor" opacity=".6"/></g><use href="#use-path-3y" opacity=".4"/><use class="toggle-flat-design" fill="url(#gd1)" href="#use-path-3y" opacity=".1"/><path class="toggle-flat-design" d="M 14,8 C 12,8 12,9 10,9 H 4 C 2.892,9 2,9.892 2,11 v 15 c 0,1.108 0.892,2 2,2 h 24 c 1.108,0 2,-0.892 2,-2 V 11 10 C 30,8.892 29.108,8 28,8 Z" fill="url(#gl1)" opacity=".2"/><path class="folder-crease" d="m 2,22 v 1 H 6.5 C 6.777,23 7,22.777 7,22.5 7,22.223 6.777,22 6.5,22 Z m 23.5,0 c -0.277,0 -0.5,0.223 -0.5,0.5 0,0.277 0.223,0.5 0.5,0.5 H 30 v -1 z" opacity=".4"/><path class="ColorScheme-Text" d="m 2,25 v 1 c 0,1.108 0.892,2 2,2 h 24 c 1.108,0 2,-0.892 2,-2 v -1 c 0,1.108 -0.892,2 -2,2 H 4 C 2.892,27 2,26.108 2,25 Z" fill="currentColor" opacity=".1"/><path class="ColorScheme-Text" d="M 2,25.5 V 26 c 0,1.108 0.892,2 2,2 h 24 c 1.108,0 2,-0.892 2,-2 v -0.5 c 0,1.108 -0.892,2 -2,2 H 4 c -1.108,0 -2,-0.892 -2,-2 z" fill="currentColor" opacity=".2"/><path d="M 14,8 C 12,8 12,9 10,9 H 4 C 2.892,9 2,9.892 2,11 v 0.5 c 0,-1.108 0.892,-2 2,-2 h 6 c 2,0 2,-1 4,-1 h 14 c 1.108,0 2,0.892 2,2 V 10 C 30,8.892 29.108,8 28,8 Z" fill="#fff" opacity=".2"/><path d="M 14,8 C 12,8 12,9 10,9 H 4 C 2.892,9 2,9.892 2,11 v 1 c 0,-1.108 0.892,-2 2,-2 h 6 c 2,0 2,-1 4,-1 h 14 c 1.108,0 2,0.892 2,2 V 10 C 30,8.892 29.108,8 28,8 Z" fill="#fff" opacity=".1"/><path d="m 14,7.5 c -2,0 -2,1 -4,1 H 4 C 3.635,8.5 3.294,8.598 3,8.768 v 0.5 C 3.294,9.098 3.635,9 4,9 h 6 c 2,0 2,-1 4,-1 h 14 c .365,0 .706,.098 1,.268 v -0.5 C 28.706,7.598 28.365,7.5 28,7.5 Z" opacity=".2"/><path d="M 14,7 C 12,7 12,8 10,8 H 4 C 3.635,8 3.294,8.098 3,8.268 v 1 C 3.294,9.098 3.635,9 4,9 h 6 c 2,0 2,-1 4,-1 h 14 c .365,0 .706,.098 1,.268 v -1 C 28.706,7.098 28.365,7 28,7 Z" opacity=".1"/></g></svg>