<?xml version="1.0" encoding="utf-8"?><svg height="32" width="32" xmlns="http://www.w3.org/2000/svg" xmlns:svg="http://www.w3.org/2000/svg" xmlns:xlink="http://www.w3.org/1999/xlink"><defs id="primary-definitions"><style id="current-color-scheme" type="text/css">.ColorScheme-Text           { color:#fff; }
      .ColorScheme-Background     { color:#111; }
      .ColorScheme-Highlight      { color:#3daefd; }
      .ColorScheme-ViewBackground { color:#000; }
      .ColorScheme-PositiveText   { color:#27ae60; }
      .ColorScheme-NeutralText    { color:#f67400; }
      .ColorScheme-NegativeText   { color:#da4453; }
  </style><style id="extended-color-scheme" type="text/css">.ExScheme-Black     { color:#3e3e3e; }
      .ExScheme-White     { color:#fcfcfc; }
      .ExScheme-Grey-1    { color:#cfd5d5; }
      .ExScheme-Grey-2    { color:#909c9c; }
      .ExScheme-Grey-3    { color:#536161; }
      .ExScheme-Red-1     { color:#ffafa5; }
      .ExScheme-Red-2     { color:#bf4231; }
      .ExScheme-Red-3     { color:#4d2f2b; }
      .ExScheme-Green-1   { color:#abf9c7; }
      .ExScheme-Green-2   { color:#3bb566; }
      .ExScheme-Green-3   { color:#377d50; }
      .ExScheme-Blue-1    { color:#abdaf9; }
      .ExScheme-Blue-2    { color:#3daefd; }
      .ExScheme-Blue-3    { color:#2b3c4d; }
      .ExScheme-Yellow-1  { color:#faffa5; }
      .ExScheme-Yellow-2  { color:#cac726; }
      .ExScheme-Yellow-3  { color:#4b4d2b; }
      .ExScheme-Orange-1  { color:#ffdaa5; }
      .ExScheme-Orange-2  { color:#ff9701; }
      .ExScheme-Orange-3  { color:#4d372b; }
      .ExScheme-Brown-1   { color:#e9d6bb; }
      .ExScheme-Brown-2   { color:#997657; }
      .ExScheme-Brown-3   { color:#433a35; }
      .ExScheme-Purple-1  { color:#e2abf9; }
      .ExScheme-Purple-2  { color:#b401ff; }
      .ExScheme-Purple-3  { color:#432b4d; }
      .ExScheme-Cyan-1    { color:#b2f2e6; }
      .ExScheme-Cyan-2    { color:#31bfa6; }
      .ExScheme-Cyan-3    { color:#2b4d47; }
      .ExScheme-Magenta-1 { color:#f8a6d8; }
      .ExScheme-Magenta-2 { color:#f00091; }
      .ExScheme-Magenta-3 { color:#770048; }
  </style><linearGradient id="gradientDark"><stop offset="0"/><stop offset="1" stop-opacity="0"/></linearGradient><linearGradient id="gradientLight"><stop offset="0" stop-color="#fff"/><stop offset="1" stop-color="#fff" stop-opacity="0"/></linearGradient><style class="toggle-enable-crease" type="text/css">.folder-crease { display: none; }
  </style><style class="toggle-manilla-folders" type="text/css">.folder-manilla { display: none; }
  </style><radialGradient cx=".5" cy="0" id="gl1" r="1" xlink:href="#gradientLight"/><linearGradient id="gd1" xlink:href="#gradientDark" y1="1" y2=".5"/><path d="M 5,4 C 3.892,4 3,4.892 3,6 V 9.268 C 2.402,9.613 2,10.257 2,11 v 15 c 0,1.108 0.892,2 2,2 h 24 c 1.108,0 2,-0.892 2,-2 V 11 10 C 30,9.257 29.598,8.613 29,8.268 V 7 C 29,5.892 28.108,5 27,5 H 14 C 12,5 12,4 10,4 Z" id="use-path-43"/><path d="M 5,4 C 3.892,4 3,4.892 3,6 V 9.268 C 3.294,9.098 3.635,9 4,9 h 6 c 2,0 2,-1 4,-1 h 14 c .365,0 0.706,.098 1,.268 V 7 C 29,5.892 28.108,5 27,5 H 14 C 12,5 12,4 10,4 Z" id="use-path-44"/></defs><g id="content"><use class="folder-manilla ExScheme-Brown-1" fill="currentColor" href="#use-path-43"/><use class="toggle-manilla-folders ColorScheme-Highlight" fill="currentColor" href="#use-path-43" id="primary-color"/><use class="ColorScheme-Text" fill="currentColor" href="#use-path-43" opacity=".1"/><g id="panorama" transform="translate(2,8)"><path class="ColorScheme-Background" d="M 9.5,7.5 C 8.5,7.5 5.5,8 4.5,9 3.056,12.176 2,16 2,18.5 c 0,.592 .01,1.083 .07,1.5 H 6.285 L 8,18.5 C 8,18.5 8.5,18 9,18 h 10 c 0.5,0 1,0.5 1,0.5 l 1.715,1.5 h 4.215 C 25.99,19.583 26,19.092 26,18.5 26,16 24.944,12.176 23.5,9 22.5,8 19.5,7.5 18.5,7.5 18,7.5 18,8 18,8 l -0.5,3.5 c 0,0 0,0.5 -0.5,0.5 h -6 c -0.5,0 -0.5,-0.5 -0.5,-0.5 L 10,8 C 10,8 10,7.5 9.5,7.5 Z m 3.96,0 C 12.25,7.503 11.875,7.53 11,7.75 L 11.5,11 h 5 L 17,7.75 C 16,7.5 15.5,7.5 14,7.5 c -.188,0 -.366,-4.89e-4 -.54,0 z M 21.5,9.5 c .414,0 0.75,.336 0.75,0.75 0,.414 -.336,0.75 -0.75,0.75 -.414,0 -0.75,-.336 -0.75,-0.75 0,-.414 .336,-0.75 0.75,-0.75 z M 7,9 C 8.105,9 9,9.895 9,11 9,12.105 8.105,13 7,13 5.895,13 5,12.105 5,11 5,9.895 5.895,9 7,9 Z m 13.25,1.75 c .414,0 0.75,.336 0.75,0.75 0,.414 -.336,0.75 -0.75,0.75 -.414,0 -0.75,-.336 -0.75,-0.75 0,-.414 .336,-0.75 0.75,-0.75 z m 2.5,0 c .414,0 0.75,.336 0.75,0.75 0,.414 -.336,0.75 -0.75,0.75 -.414,0 -0.75,-.336 -0.75,-0.75 0,-.414 .336,-0.75 0.75,-0.75 z M 7,10 c -.552,0 -1,.448 -1,1 0,.552 .448,1 1,1 .552,0 1,-.448 1,-1 0,-.552 -.448,-1 -1,-1 z m 14.5,2 c .414,0 0.75,.336 0.75,0.75 0,.414 -.336,0.75 -0.75,0.75 -.414,0 -0.75,-.336 -0.75,-0.75 0,-.414 .336,-0.75 0.75,-0.75 z M 11,13 c 1.105,0 2,.895 2,2 0,1.105 -.895,2 -2,2 -1.105,0 -2,-.895 -2,-2 0,-1.105 .895,-2 2,-2 z m 6,0 c 1.105,0 2,.895 2,2 0,1.105 -.895,2 -2,2 -1.105,0 -2,-.895 -2,-2 0,-1.105 .895,-2 2,-2 z m -6,1 c -.552,0 -1,.448 -1,1 0,.552 .448,1 1,1 .552,0 1,-.448 1,-1 0,-.552 -.448,-1 -1,-1 z m 6,0 c -.552,0 -1,.448 -1,1 0,.552 .448,1 1,1 .552,0 1,-.448 1,-1 0,-.552 -.448,-1 -1,-1 z" fill="currentColor" opacity=".6"/><path class="ColorScheme-Background" d="M 9.5 7.5 C 8.5 7.5 5.5 8 4.5 9 C 3.056 12.176 2 16 2 18.5 C 2 19.092 2.01 19.583 2.06 20 L 6.285 20 L 8 18.5 C 8 18.5 8.5 18 9 18 L 19 18 C 19.5 18 20 18.5 20 18.5 L 21.715 20 L 25.93 20 C 25.99 19.583 26 19.092 26 18.5 C 26 16 24.944 12.176 23.5 9 C 22.5 8 19.5 7.5 18.5 7.5 C 18 7.5 18 8 18 8 L 17.5 11.5 C 17.5 11.5 17.5 12 17 12 L 11 12 C 10.5 12 10.5 11.5 10.5 11.5 L 10 8 C 10 8 10 7.5 9.5 7.5 z M 13.46 7.5 C 12.25 7.503 11.875 7.53 11 7.75 L 11.5 11 L 16.5 11 L 17 7.75 C 16 7.5 15.5 7.5 14 7.5 C 13.812 7.5 13.634 7.5 13.46 7.5 z M 9.5 8 L 9.5 8.035 L 10.006 11.57 C 10.01 11.645 10.023 11.788 10.115 11.973 C 10.237 12.217 10.583 12.5 11 12.5 L 17 12.5 C 17.417 12.5 17.763 12.217 17.885 11.973 C 17.977 11.788 17.99 11.645 17.994 11.57 L 17.994 11.568 L 18.5 8.035 L 18.5 8 C 18.917 8 19.917 8.12 20.88 8.36 C 21.816 8.594 22.715 8.982 23.088 9.328 C 23.266 9.726 23.37 10.164 23.533 10.578 C 23.315 10.394 23.054 10.25 22.75 10.25 C 22.75 9.566 22.184 9 21.5 9 C 20.816 9 20.25 9.566 20.25 10.25 C 19.566 10.25 19 10.816 19 11.5 C 19 12.184 19.566 12.75 20.25 12.75 C 20.25 13.434 20.816 14 21.5 14 C 22.184 14 22.75 13.434 22.75 12.75 C 23.365 12.75 23.827 12.268 23.926 11.678 C 24.815 14.176 25.5 16.732 25.5 18.5 C 25.5 18.91 25.477 19.198 25.455 19.5 L 21.902 19.5 L 20.32 18.123 C 20.3 18.093 20.17 17.97 19.965 17.834 C 19.735 17.68 19.417 17.5 19 17.5 L 17 17.5 L 11 17.5 L 9 17.5 C 8.583 17.5 8.265 17.68 8.035 17.834 C 7.83 17.97 7.7 18.093 7.67 18.123 L 6.098 19.5 L 2.545 19.5 C 2.523 19.198 2.5 18.91 2.5 18.5 C 2.5 16.17 3.52 12.43 4.912 9.328 C 5.105 9.15 5.438 8.96 5.844 8.787 C 5.047 9.206 4.5 10.042 4.5 11 C 4.5 12.375 5.625 13.5 7 13.5 C 8.375 13.5 9.5 12.375 9.5 11 C 9.5 9.625 8.375 8.5 7 8.5 C 6.78 8.5 6.568 8.532 6.365 8.586 C 6.608 8.502 6.862 8.424 7.12 8.36 C 8.083 8.12 9.083 8 9.5 8 z M 11 17.5 C 12.375 17.5 13.5 16.375 13.5 15 C 13.5 13.625 12.375 12.5 11 12.5 C 9.625 12.5 8.5 13.625 8.5 15 C 8.5 16.375 9.625 17.5 11 17.5 z M 17 17.5 C 18.375 17.5 19.5 16.375 19.5 15 C 19.5 13.625 18.375 12.5 17 12.5 C 15.625 12.5 14.5 13.625 14.5 15 C 14.5 16.375 15.625 17.5 17 17.5 z M 13.463 8 C 13.634 8 13.812 8 14 8 C 15.264 8 15.726 8.055 16.426 8.197 L 16.07 10.5 L 11.93 10.5 L 11.574 8.19 C 12.13 8.073 12.493 8.003 13.463 8 z M 7 9 C 8.105 9 9 9.895 9 11 C 9 12.105 8.105 13 7 13 C 5.895 13 5 12.105 5 11 C 5 9.895 5.895 9 7 9 z M 21.5 9.5 C 21.914 9.5 22.25 9.836 22.25 10.25 C 22.25 10.664 21.914 11 21.5 11 C 21.086 11 20.75 10.664 20.75 10.25 C 20.75 9.836 21.086 9.5 21.5 9.5 z M 7 10 C 6.448 10 6 10.448 6 11 C 6 11.552 6.448 12 7 12 C 7.552 12 8 11.552 8 11 C 8 10.448 7.552 10 7 10 z M 7 10.5 C 7.282 10.5 7.5 10.718 7.5 11 C 7.5 11.282 7.282 11.5 7 11.5 C 6.718 11.5 6.5 11.282 6.5 11 C 6.5 10.718 6.718 10.5 7 10.5 z M 20.25 10.75 C 20.664 10.75 21 11.086 21 11.5 C 21 11.914 20.664 12.25 20.25 12.25 C 19.836 12.25 19.5 11.914 19.5 11.5 C 19.5 11.086 19.836 10.75 20.25 10.75 z M 22.75 10.75 C 23.164 10.75 23.5 11.086 23.5 11.5 C 23.5 11.914 23.164 12.25 22.75 12.25 C 22.336 12.25 22 11.914 22 11.5 C 22 11.086 22.336 10.75 22.75 10.75 z M 21.5 12 C 21.914 12 22.25 12.336 22.25 12.75 C 22.25 13.164 21.914 13.5 21.5 13.5 C 21.086 13.5 20.75 13.164 20.75 12.75 C 20.75 12.336 21.086 12 21.5 12 z M 11 13 C 12.105 13 13 13.895 13 15 C 13 16.105 12.105 17 11 17 C 9.895 17 9 16.105 9 15 C 9 13.895 9.895 13 11 13 z M 17 13 C 18.105 13 19 13.895 19 15 C 19 16.105 18.105 17 17 17 C 15.895 17 15 16.105 15 15 C 15 13.895 15.895 13 17 13 z M 11 14 C 10.448 14 10 14.448 10 15 C 10 15.552 10.448 16 11 16 C 11.552 16 12 15.552 12 15 C 12 14.448 11.552 14 11 14 z M 17 14 C 16.448 14 16 14.448 16 15 C 16 15.552 16.448 16 17 16 C 17.552 16 18 15.552 18 15 C 18 14.448 17.552 14 17 14 z M 11 14.5 C 11.282 14.5 11.5 14.718 11.5 15 C 11.5 15.282 11.282 15.5 11 15.5 C 10.718 15.5 10.5 15.282 10.5 15 C 10.5 14.718 10.718 14.5 11 14.5 z M 17 14.5 C 17.282 14.5 17.5 14.718 17.5 15 C 17.5 15.282 17.282 15.5 17 15.5 C 16.718 15.5 16.5 15.282 16.5 15 C 16.5 14.718 16.718 14.5 17 14.5 z " fill="currentColor" opacity=".6"/></g><use href="#use-path-44" opacity=".4"/><use class="toggle-flat-design" fill="url(#gd1)" href="#use-path-44" opacity=".1"/><path class="toggle-flat-design" d="M 14,8 C 12,8 12,9 10,9 H 4 C 2.892,9 2,9.892 2,11 v 15 c 0,1.108 0.892,2 2,2 h 24 c 1.108,0 2,-0.892 2,-2 V 11 10 C 30,8.892 29.108,8 28,8 Z" fill="url(#gl1)" opacity=".2"/><path class="folder-crease" d="m 2,22 v 1 H 3 C 3.277,23 3.5,22.777 3.5,22.5 3.5,22.223 3.277,22 3,22 Z m 27,0 c -0.277,0 -0.5,0.223 -0.5,0.5 0,0.277 0.223,0.5 0.5,0.5 h 1 v -1 z" opacity=".4"/><path class="ColorScheme-Text" d="m 2,25 v 1 c 0,1.108 0.892,2 2,2 h 24 c 1.108,0 2,-0.892 2,-2 v -1 c 0,1.108 -0.892,2 -2,2 H 4 C 2.892,27 2,26.108 2,25 Z" fill="currentColor" opacity=".1"/><path class="ColorScheme-Text" d="M 2,25.5 V 26 c 0,1.108 0.892,2 2,2 h 24 c 1.108,0 2,-0.892 2,-2 v -0.5 c 0,1.108 -0.892,2 -2,2 H 4 c -1.108,0 -2,-0.892 -2,-2 z" fill="currentColor" opacity=".2"/><path d="M 14,8 C 12,8 12,9 10,9 H 4 C 2.892,9 2,9.892 2,11 v 0.5 c 0,-1.108 0.892,-2 2,-2 h 6 c 2,0 2,-1 4,-1 h 14 c 1.108,0 2,0.892 2,2 V 10 C 30,8.892 29.108,8 28,8 Z" fill="#fff" opacity=".2"/><path d="M 14,8 C 12,8 12,9 10,9 H 4 C 2.892,9 2,9.892 2,11 v 1 c 0,-1.108 0.892,-2 2,-2 h 6 c 2,0 2,-1 4,-1 h 14 c 1.108,0 2,0.892 2,2 V 10 C 30,8.892 29.108,8 28,8 Z" fill="#fff" opacity=".1"/><path d="m 14,7.5 c -2,0 -2,1 -4,1 H 4 C 3.635,8.5 3.294,8.598 3,8.768 v 0.5 C 3.294,9.098 3.635,9 4,9 h 6 c 2,0 2,-1 4,-1 h 14 c .365,0 .706,.098 1,.268 v -0.5 C 28.706,7.598 28.365,7.5 28,7.5 Z" opacity=".2"/><path d="M 14,7 C 12,7 12,8 10,8 H 4 C 3.635,8 3.294,8.098 3,8.268 v 1 C 3.294,9.098 3.635,9 4,9 h 6 c 2,0 2,-1 4,-1 h 14 c .365,0 .706,.098 1,.268 v -1 C 28.706,7.098 28.365,7 28,7 Z" opacity=".1"/></g></svg>