<?xml version="1.0" encoding="utf-8"?><svg height="32" width="32" xmlns="http://www.w3.org/2000/svg" xmlns:svg="http://www.w3.org/2000/svg" xmlns:xlink="http://www.w3.org/1999/xlink"><defs id="primary-definitions"><style id="current-color-scheme" type="text/css">.ColorScheme-Text           { color:#fff; }
      .ColorScheme-Background     { color:#111; }
      .ColorScheme-Highlight      { color:#3daefd; }
      .ColorScheme-ViewBackground { color:#000; }
      .ColorScheme-PositiveText   { color:#27ae60; }
      .ColorScheme-NeutralText    { color:#f67400; }
      .ColorScheme-NegativeText   { color:#da4453; }
  </style><style id="extended-color-scheme" type="text/css">.ExScheme-Black     { color:#3e3e3e; }
      .ExScheme-White     { color:#fcfcfc; }
      .ExScheme-Grey-1    { color:#cfd5d5; }
      .ExScheme-Grey-2    { color:#909c9c; }
      .ExScheme-Grey-3    { color:#536161; }
      .ExScheme-Red-1     { color:#ffafa5; }
      .ExScheme-Red-2     { color:#bf4231; }
      .ExScheme-Red-3     { color:#4d2f2b; }
      .ExScheme-Green-1   { color:#abf9c7; }
      .ExScheme-Green-2   { color:#3bb566; }
      .ExScheme-Green-3   { color:#377d50; }
      .ExScheme-Blue-1    { color:#abdaf9; }
      .ExScheme-Blue-2    { color:#3daefd; }
      .ExScheme-Blue-3    { color:#2b3c4d; }
      .ExScheme-Yellow-1  { color:#faffa5; }
      .ExScheme-Yellow-2  { color:#cac726; }
      .ExScheme-Yellow-3  { color:#4b4d2b; }
      .ExScheme-Orange-1  { color:#ffdaa5; }
      .ExScheme-Orange-2  { color:#ff9701; }
      .ExScheme-Orange-3  { color:#4d372b; }
      .ExScheme-Brown-1   { color:#e9d6bb; }
      .ExScheme-Brown-2   { color:#997657; }
      .ExScheme-Brown-3   { color:#433a35; }
      .ExScheme-Purple-1  { color:#e2abf9; }
      .ExScheme-Purple-2  { color:#b401ff; }
      .ExScheme-Purple-3  { color:#432b4d; }
      .ExScheme-Cyan-1    { color:#b2f2e6; }
      .ExScheme-Cyan-2    { color:#31bfa6; }
      .ExScheme-Cyan-3    { color:#2b4d47; }
      .ExScheme-Magenta-1 { color:#f8a6d8; }
      .ExScheme-Magenta-2 { color:#f00091; }
      .ExScheme-Magenta-3 { color:#770048; }
  </style><linearGradient id="gradientDark"><stop offset="0"/><stop offset="1" stop-opacity="0"/></linearGradient><linearGradient id="gradientLight"><stop offset="0" stop-color="#fff"/><stop offset="1" stop-color="#fff" stop-opacity="0"/></linearGradient><style class="toggle-enable-crease" type="text/css">.folder-crease { display: none; }
  </style><style class="toggle-manilla-folders" type="text/css">.folder-manilla { display: none; }
  </style><radialGradient cx=".5" cy="0" id="gl1" r="1" xlink:href="#gradientLight"/><linearGradient id="gd1" xlink:href="#gradientDark" y1="1" y2=".5"/><path d="M 5,4 C 3.892,4 3,4.892 3,6 V 9.268 C 2.402,9.613 2,10.257 2,11 v 15 c 0,1.108 0.892,2 2,2 h 24 c 1.108,0 2,-0.892 2,-2 V 11 10 C 30,9.257 29.598,8.613 29,8.268 V 7 C 29,5.892 28.108,5 27,5 H 14 C 12,5 12,4 10,4 Z" id="use-path-4y"/><path d="M 5,4 C 3.892,4 3,4.892 3,6 V 9.268 C 3.294,9.098 3.635,9 4,9 h 6 c 2,0 2,-1 4,-1 h 14 c .365,0 0.706,.098 1,.268 V 7 C 29,5.892 28.108,5 27,5 H 14 C 12,5 12,4 10,4 Z" id="use-path-4z"/></defs><g id="content"><use class="folder-manilla ExScheme-Brown-1" fill="currentColor" href="#use-path-4y"/><use class="toggle-manilla-folders ColorScheme-Highlight" fill="currentColor" href="#use-path-4y" id="primary-color"/><use class="ColorScheme-Text" fill="currentColor" href="#use-path-4y" opacity=".1"/><g id="emblem" transform="translate(8,10)"><path class="ColorScheme-Background" d="M 8 1 A 7 7 0 0 0 1 8 A 7 7 0 0 0 8 15 A 7 7 0 0 0 15 8 A 7 7 0 0 0 8 1 z M 7.008 2.082 C 7.05 2.597 7.474 3 8 3 C 8.526 3 8.94 2.597 8.992 2.082 C 11.51 2.5 13.5 4.49 13.918 7.008 C 13.403 7.05 13 7.474 13 8 C 13 8.526 13.403 8.94 13.918 8.992 C 13.5 11.51 11.51 13.5 8.992 13.918 C 8.94 13.403 8.526 13 8 13 C 7.474 13 7.05 13.403 7.008 13.918 C 4.49 13.5 2.5 11.51 2.082 8.992 C 2.597 8.94 3 8.526 3 8 C 3 7.474 2.597 7.05 2.082 7.008 C 2.5 4.49 4.49 2.5 7.008 2.082 z M 9.72 3.342 C 9.524 3.343 9.34 3.458 9.26 3.65 L 7.87 7.01 A 1 1 0 0 0 7 8 A 1 1 0 0 0 8 9 A 1 1 0 0 0 8.13 8.99 L 9.734 11.082 C 9.903 11.302 10.216 11.342 10.436 11.174 C 10.655 11.005 10.696 10.692 10.527 10.473 L 8.922 8.383 A 1 1 0 0 0 9 8 A 1 1 0 0 0 8.793 7.393 L 10.184 4.033 C 10.29 3.777 10.17 3.487 9.914 3.38 C 9.85 3.354 9.784 3.34 9.72 3.342 z " fill="currentColor" opacity=".6"/><path class="ColorScheme-Background" d="M 8,1 C 4.134,1 1,4.134 1,8 c 0,3.866 3.134,7 7,7 3.866,0 7,-3.134 7,-7 C 15,4.134 11.866,1 8,1 Z M 8.53,1.607 8.494,2.04 C 8.472,2.305 8.27,2.5 8,2.5 7.73,2.5 7.528,2.305 7.506,2.04 L 7.47,1.607 c .184,-.016 .875,-.016 1.06,0 z M 7.008,2.082 C 7.05,2.597 7.474,3 8,3 8.526,3 8.94,2.597 8.992,2.082 11.51,2.5 13.5,4.49 13.918,7.008 13.403,7.05 13,7.474 13,8 13,8.526 13.403,8.94 13.918,8.992 13.5,11.51 11.51,13.5 8.992,13.918 8.94,13.403 8.526,13 8,13 7.474,13 7.05,13.403 7.008,13.918 4.49,13.5 2.5,11.51 2.082,8.992 2.597,8.94 3,8.526 3,8 3,7.474 2.597,7.05 2.082,7.008 2.5,4.49 4.49,2.5 7.008,2.082 Z M 9.72,3.342 C 9.524,3.343 9.34,3.458 9.26,3.65 l -1.39,3.36 C 7.372,7.075 7,7.5 7,8 7,8.552 7.448,9 8,9 8.044,9 8.088,8.996 8.13,8.99 l 1.604,2.092 c .17,.22 .48,.26 .7,.092 .22,-.17 .26,-.48 .092,-.7 L 8.922,8.383 C 8.973,8.262 9,8.13 9,8 9,7.78 8.927,7.567 8.793,7.393 L 10.184,4.033 C 10.29,3.777 10.17,3.487 9.914,3.38 9.85,3.354 9.784,3.34 9.72,3.342 Z m -8.11,4.13 .434,.035 C 2.305,7.528 2.5,7.73 2.5,8 2.5,8.27 2.305,8.472 2.04,8.494 l -.434,.035 c -.016,-.184 -.016,-.875 0,-1.06 z m 12.785,0 c .016,.184 .016,.875 0,1.06 l -.434,-.035 C 13.695,8.472 13.5,8.27 13.5,8 13.5,7.73 13.695,7.528 13.96,7.506 Z M 8,13.5 c .27,0 .472,.195 .494,.46 l .035,.434 c -.184,.016 -.875,.016 -1.06,0 l .035,-.434 C 7.528,13.695 7.73,13.5 8,13.5 Z" fill="currentColor" opacity=".6"/></g><use href="#use-path-4z" opacity=".4"/><use class="toggle-flat-design" fill="url(#gd1)" href="#use-path-4z" opacity=".1"/><path class="toggle-flat-design" d="M 14,8 C 12,8 12,9 10,9 H 4 C 2.892,9 2,9.892 2,11 v 15 c 0,1.108 0.892,2 2,2 h 24 c 1.108,0 2,-0.892 2,-2 V 11 10 C 30,8.892 29.108,8 28,8 Z" fill="url(#gl1)" opacity=".2"/><path class="folder-crease" d="m 2,22 v 1 H 6.5 C 6.777,23 7,22.777 7,22.5 7,22.223 6.777,22 6.5,22 Z m 23.5,0 c -0.277,0 -0.5,0.223 -0.5,0.5 0,0.277 0.223,0.5 0.5,0.5 H 30 v -1 z" opacity=".4"/><path class="ColorScheme-Text" d="m 2,25 v 1 c 0,1.108 0.892,2 2,2 h 24 c 1.108,0 2,-0.892 2,-2 v -1 c 0,1.108 -0.892,2 -2,2 H 4 C 2.892,27 2,26.108 2,25 Z" fill="currentColor" opacity=".1"/><path class="ColorScheme-Text" d="M 2,25.5 V 26 c 0,1.108 0.892,2 2,2 h 24 c 1.108,0 2,-0.892 2,-2 v -0.5 c 0,1.108 -0.892,2 -2,2 H 4 c -1.108,0 -2,-0.892 -2,-2 z" fill="currentColor" opacity=".2"/><path d="M 14,8 C 12,8 12,9 10,9 H 4 C 2.892,9 2,9.892 2,11 v 0.5 c 0,-1.108 0.892,-2 2,-2 h 6 c 2,0 2,-1 4,-1 h 14 c 1.108,0 2,0.892 2,2 V 10 C 30,8.892 29.108,8 28,8 Z" fill="#fff" opacity=".2"/><path d="M 14,8 C 12,8 12,9 10,9 H 4 C 2.892,9 2,9.892 2,11 v 1 c 0,-1.108 0.892,-2 2,-2 h 6 c 2,0 2,-1 4,-1 h 14 c 1.108,0 2,0.892 2,2 V 10 C 30,8.892 29.108,8 28,8 Z" fill="#fff" opacity=".1"/><path d="m 14,7.5 c -2,0 -2,1 -4,1 H 4 C 3.635,8.5 3.294,8.598 3,8.768 v 0.5 C 3.294,9.098 3.635,9 4,9 h 6 c 2,0 2,-1 4,-1 h 14 c .365,0 .706,.098 1,.268 v -0.5 C 28.706,7.598 28.365,7.5 28,7.5 Z" opacity=".2"/><path d="M 14,7 C 12,7 12,8 10,8 H 4 C 3.635,8 3.294,8.098 3,8.268 v 1 C 3.294,9.098 3.635,9 4,9 h 6 c 2,0 2,-1 4,-1 h 14 c .365,0 .706,.098 1,.268 v -1 C 28.706,7.098 28.365,7 28,7 Z" opacity=".1"/></g></svg>