<svg height="32" version="1.1" width="32" xmlns="http://www.w3.org/2000/svg" xmlns:svg="http://www.w3.org/2000/svg" xmlns:xlink="http://www.w3.org/1999/xlink">
<defs id="primary-definitions">
<style id="current-color-scheme" type="text/css">
      .ColorScheme-Text         { color: #232629; }
      .ColorScheme-Background   { color: #eff0f1; }
      .ColorScheme-Highlight    { color: #7ec9f0; }
      .ColorScheme-PositiveText { color: #27ae60; }
      .ColorScheme-NeutralText  { color: #f67400; }
      .ColorScheme-NegativeText { color: #da4453; }
      .ColorScheme-ActiveText   { color: #3daee9; }
      .ColorScheme-Complement   { color: #ffffff; }
      .ColorScheme-Contrast     { color: #000000; }
    </style>
<style id="extended-color-scheme" type="text/css">
      .ExScheme-Black     { color:#3e3e3e; }
      .ExScheme-White     { color:#fcfcfc; }
      .ExScheme-Grey-1    { color:#cfd5d5; }
      .ExScheme-Grey-2    { color:#909c9c; }
      .ExScheme-Grey-3    { color:#536161; }
      .ExScheme-Red-1     { color:#ffafa5; }
      .ExScheme-Red-2     { color:#bf4231; }
      .ExScheme-Red-3     { color:#4d2f2b; }
      .ExScheme-Green-1   { color:#abf9c7; }
      .ExScheme-Green-2   { color:#3bb566; }
      .ExScheme-Green-3   { color:#377d50; }
      .ExScheme-Blue-1    { color:#abdaf9; }
      .ExScheme-Blue-2    { color:#3daefd; }
      .ExScheme-Blue-3    { color:#2b3c4d; }
      .ExScheme-Yellow-1  { color:#faffa5; }
      .ExScheme-Yellow-2  { color:#cac726; }
      .ExScheme-Yellow-3  { color:#4b4d2b; }
      .ExScheme-Orange-1  { color:#ffdaa5; }
      .ExScheme-Orange-2  { color:#ff9701; }
      .ExScheme-Orange-3  { color:#4d372b; }
      .ExScheme-Brown-1   { color:#e9d6bb; }
      .ExScheme-Brown-2   { color:#997657; }
      .ExScheme-Brown-3   { color:#433a35; }
      .ExScheme-Purple-1  { color:#e2abf9; }
      .ExScheme-Purple-2  { color:#b401ff; }
      .ExScheme-Purple-3  { color:#432b4d; }
      .ExScheme-Cyan-1    { color:#b2f2e6; }
      .ExScheme-Cyan-2    { color:#31bfa6; }
      .ExScheme-Cyan-3    { color:#2b4d47; }
      .ExScheme-Magenta-1 { color:#f8a6d8; }
      .ExScheme-Magenta-2 { color:#f00091; }
      .ExScheme-Magenta-3 { color:#770048; }
    </style>
<linearGradient id="uhI">
<stop offset="0"/>
<stop offset="1" stop-opacity="0"/>
</linearGradient>
<linearGradient id="uhJ">
<stop offset="0" stop-color="#fff"/>
<stop offset="1" stop-color="#fff" stop-opacity="0"/>
</linearGradient>
<style id="uhK" type="text/css">
        .force-display-for-editing { display: inline !important; }
    </style><style class="remove-if__show-crease" type="text/css">
        .enable-if__show-crease { display: none; }
    </style><style class="remove-if__color-sync-mimes-places" type="text/css">
        .enable-if__color-sync-mimes-places { display: none; }
    </style><radialGradient cx=".5" cy="0" id="uhL" r="1" xlink:href="#uhJ"/><linearGradient id="uhM" xlink:href="#uhI" y1="1" y2=".5"/><style class="ColorScheme-Background" fill="currentColor" opacity=".6" type="text/css">
   .ColorScheme-Text           { color:#eff0f1; }
      .ColorScheme-Background     { color:#31363b; }
      .ColorScheme-Highlight      { color:#3daefd; }
      .ColorScheme-ViewBackground { color:#fcfcfc; }
      .ColorScheme-PositiveText   { color:#27ae60; }
      .ColorScheme-NeutralText    { color:#f67400; }
      .ColorScheme-NegativeText   { color:#da4453; }
  </style><path d="M 5,4 C 3.9,4 3,4.9 3,6 V 9.27 C 2.4,9.6 2,10.26 2,11 v 15 c 0,1.1 .9,2 2,2 h 24 c 1.1,0 2,-.9 2,-2 V 11 10 C 30,9.26 29.6,8.6 29,8.27 V 7 C 29,5.9 28.1,5 27,5 H 14 C 12,5 12,4 10,4 Z" id="uhN"></path><path d="M 5,4 C 3.9,4 3,4.9 3,6 V 9.27 C 3.3,9.1 3.63,9 4,9 h 6 c 2,0 2,-1 4,-1 h 14 c .37,0 .7,.1 1,.27 V 7 C 29,5.9 28.1,5 27,5 H 14 C 12,5 12,4 10,4 Z" id="uhO"></path></defs>
<g id="content" transform="translate(0,0)"><use class="sync-color enable-if__color-sync-mimes-places force-display-for-editing ColorScheme-ActiveText" fill="currentColor" href="#uhN"></use><use class="primary-color remove-if__color-sync-mimes-places ColorScheme-ActiveText ExScheme-Grey-3" fill="currentColor" href="#uhN"></use><use class="ColorScheme-Contrast" fill="currentColor" href="#uhN" opacity=".1"></use><g id="panorama" transform="translate(2,8)"><g id="decal" transform="translate(6,2)"><path class="ExScheme-White" d="M 8 1 C 5.8 1 4 2.8 4 5 L 4 5.5 A 0.5 0.5 0 0 0 4.5 6 A 0.5 0.5 0 0 0 5 5.5 A 0.5 0.5 0 0 0 5 5.5 A 0.5 0.5 0 0 0 5 5.5 A 0.5 0.5 0 0 0 5 5.5 A 0.5 0.5 0 0 0 5 5.5 A 0.5 0.5 0 0 0 5 5.5 A 0.5 0.5 0 0 0 5 5.5 A 0.5 0.5 0 0 0 5 5.5 A 0.5 0.5 0 0 0 5 5.5 A 0.5 0.5 0 0 0 5 5.5 A 0.5 0.5 0 0 0 5 5.5 A 0.5 0.5 0 0 0 5 5.5 A 0.5 0.5 0 0 0 5 5.5 A 0.5 0.5 0 0 0 5 5.47 L 5 5 C 5 3.34 6.34 2 8 2 C 9.66 2 11 3.34 11 5 L 11 8 L 5 8 C 3.9 8 3 8.9 3 10 L 3 13 C 3 14.1 3.9 15 5 15 L 11 15 C 12.1 15 13 14.1 13 13 L 13 10 C 13 9.26 12.6 8.6 12 8.27 L 12 5 C 12 2.8 10.2 1 8 1 z M 5 9 L 11 9 C 11.55 9 12 9.45 12 10 L 12 13 C 12 13.55 11.55 14 11 14 L 5 14 C 4.45 14 4 13.55 4 13 L 4 10 C 4 9.45 4.45 9 5 9 z " fill="currentColor" opacity=".6" stop-color="#000000"/><path class="ExScheme-White" d="M 8,1 C 5.8,1 4,2.8 4,5 V 5.5 A 0.5,0.5 0 0 0 4.5,6 0.5,0.5 0 0 0 5,5.5 0.5,0.5 0 0 0 5,5.5 0.5,0.5 0 0 0 5,5.5 0.5,0.5 0 0 0 5,5.5 0.5,0.5 0 0 0 5,5.5 0.5,0.5 0 0 0 5,5.5 0.5,0.5 0 0 0 5,5.5 0.5,0.5 0 0 0 5,5.5 0.5,0.5 0 0 0 5,5.5 0.5,0.5 0 0 0 5,5.5 0.5,0.5 0 0 0 5,5.5 0.5,0.5 0 0 0 5,5.5 0.5,0.5 0 0 0 5,5.5 0.5,0.5 0 0 0 5,5.47 V 5 C 5,3.34 6.34,2 8,2 9.66,2 11,3.34 11,5 V 8 H 5 C 3.9,8 3,8.9 3,10 v 3 c 0,1.1 .9,2 2,2 h 6 c 1.1,0 2,-.9 2,-2 V 10 C 13,9.26 12.6,8.6 12,8.27 V 5 C 12,2.8 10.2,1 8,1 Z M 5,9 h 6 c .55,0 1,.45 1,1 v 3 c 0,.55 -.45,1 -1,1 H 5 C 4.45,14 4,13.55 4,13 V 10 C 4,9.45 4.45,9 5,9 Z" fill="currentColor" opacity=".6" stop-color="#000000"/></g><path d="M 12 0 C 11.6 0 11.27 .04 11 .1 L 11 1 L 12 1 L 12 0 z M 12 1 L 12 2 L 13 2 L 13 1 L 12 1 z M 13 1 L 14 1 L 14 0 L 13 0 L 13 1 z M 14 1 L 14 2 L 15 2 L 15 1 L 14 1 z M 15 1 L 16 1 L 16 0 L 15 0 L 15 1 z M 16 1 L 16 2 L 17 2 L 17 1 L 16 1 z M 17 1 L 18 1 L 18 0 L 17 0 L 17 1 z M 18 1 L 18 2 L 19 2 L 19 1 L 18 1 z M 19 1 L 20 1 L 20 0 L 19 0 L 19 1 z M 20 1 L 20 2 L 21 2 L 21 1 L 20 1 z M 21 1 L 22 1 L 22 0 L 21 0 L 21 1 z M 22 1 L 22 2 L 23 2 L 23 1 L 22 1 z M 23 1 L 24 1 L 24 0 L 23 0 L 23 1 z M 24 1 L 24 2 L 25 2 L 25 1 L 24 1 z M 25 1 L 26 1 L 26 0 L 25 0 L 25 1 z M 26 1 L 26 2 L 27 2 L 27 1 L 26 1 z M 27 1 L 27.73 1 C 27.56 .7 27.3 .44 27 .27 L 27 1 z M 11 1 L 10 1 L 10 2 L 11 2 L 11 1 z M 10 1 L 10 0.5 C 9.8 .65 9.4 .8 9 .9 L 9 1 L 10 1 z M 9 1 L 8 1 L 8 2 L 9 2 L 9 1 z M 2 1 L 2 2 L 3 2 L 3 1 L 2 1 z M 4 1 L 4 2 L 5 2 L 5 1 L 4 1 z M 6 1 L 6 2 L 7 2 L 7 1 L 6 1 z M 1 1.27 C .7 1.44 .44 1.7 .27 2 L 1 2 L 1 1.27 z " fill="#ffffff" id="rect1192" opacity=".2" stop-color="#000000"/></g><use href="#uhO" opacity=".4"></use><use fill="url(#uhM)" href="#uhO" opacity=".1"></use><path d="M 14,8 C 12,8 12,9 10,9 H 4 C 2.9,9 2,9.9 2,11 v 15 c 0,1.1 .9,2 2,2 h 24 c 1.1,0 2,-.9 2,-2 V 11 10 C 30,8.9 29.1,8 28,8 Z" fill="url(#uhL)" opacity=".2"/><path class="ColorScheme-Contrast" d="m 2,25 v 1 c 0,1.1 .9,2 2,2 h 24 c 1.1,0 2,-.9 2,-2 v -1 c 0,1.1 -.9,2 -2,2 H 4 C 2.9,27 2,26.1 2,25 Z" fill="currentColor" opacity=".1"/><path class="ColorScheme-Contrast" d="M 2,25.5 V 26 c 0,1.1 .9,2 2,2 h 24 c 1.1,0 2,-.9 2,-2 v -0.5 c 0,1.1 -.9,2 -2,2 H 4 c -1.1,0 -2,-.9 -2,-2 z" fill="currentColor" opacity=".2"/><path d="M 14,8 C 12,8 12,9 10,9 H 4 C 2.9,9 2,9.9 2,11 v 0.5 c 0,-1.1 .9,-2 2,-2 h 6 c 2,0 2,-1 4,-1 h 14 c 1.1,0 2,.9 2,2 V 10 C 30,8.9 29.1,8 28,8 Z" fill="#fff" opacity=".2"/><path d="M 14,8 C 12,8 12,9 10,9 H 4 C 2.9,9 2,9.9 2,11 v 1 c 0,-1.1 .9,-2 2,-2 h 6 c 2,0 2,-1 4,-1 h 14 c 1.1,0 2,.9 2,2 V 10 C 30,8.9 29.1,8 28,8 Z" fill="#fff" opacity=".1"/><path d="m 14,7.5 c -2,0 -2,1 -4,1 H 4 C 3.63,8.5 3.3,8.6 3,8.77 v 0.5 C 3.3,9.1 3.63,9 4,9 h 6 c 2,0 2,-1 4,-1 h 14 c .37,0 .7,.1 1,.27 v -0.5 C 28.7,7.6 28.37,7.5 28,7.5 Z" opacity=".2"/><path d="M 14,7 C 12,7 12,8 10,8 H 4 C 3.63,8 3.3,8.1 3,8.27 v 1 C 3.3,9.1 3.63,9 4,9 h 6 c 2,0 2,-1 4,-1 h 14 c .37,0 .7,.1 1,.27 v -1 C 28.7,7.1 28.37,7 28,7 Z" opacity=".1"/></g>
</svg>