<svg height="32" version="1.1" width="32" xmlns="http://www.w3.org/2000/svg" xmlns:svg="http://www.w3.org/2000/svg" xmlns:xlink="http://www.w3.org/1999/xlink">
<defs id="primary-definitions">
<style id="current-color-scheme" type="text/css">
      .ColorScheme-Text         { color: #232629; }
      .ColorScheme-Background   { color: #eff0f1; }
      .ColorScheme-Highlight    { color: #7ec9f0; }
      .ColorScheme-PositiveText { color: #27ae60; }
      .ColorScheme-NeutralText  { color: #f67400; }
      .ColorScheme-NegativeText { color: #da4453; }
      .ColorScheme-ActiveText   { color: #3daee9; }
      .ColorScheme-Complement   { color: #ffffff; }
      .ColorScheme-Contrast     { color: #000000; }
    </style>
<style id="extended-color-scheme" type="text/css">
      .ExScheme-Black     { color:#3e3e3e; }
      .ExScheme-White     { color:#fcfcfc; }
      .ExScheme-Grey-1    { color:#cfd5d5; }
      .ExScheme-Grey-2    { color:#909c9c; }
      .ExScheme-Grey-3    { color:#536161; }
      .ExScheme-Red-1     { color:#ffafa5; }
      .ExScheme-Red-2     { color:#bf4231; }
      .ExScheme-Red-3     { color:#4d2f2b; }
      .ExScheme-Green-1   { color:#abf9c7; }
      .ExScheme-Green-2   { color:#3bb566; }
      .ExScheme-Green-3   { color:#377d50; }
      .ExScheme-Blue-1    { color:#abdaf9; }
      .ExScheme-Blue-2    { color:#3daefd; }
      .ExScheme-Blue-3    { color:#2b3c4d; }
      .ExScheme-Yellow-1  { color:#faffa5; }
      .ExScheme-Yellow-2  { color:#cac726; }
      .ExScheme-Yellow-3  { color:#4b4d2b; }
      .ExScheme-Orange-1  { color:#ffdaa5; }
      .ExScheme-Orange-2  { color:#ff9701; }
      .ExScheme-Orange-3  { color:#4d372b; }
      .ExScheme-Brown-1   { color:#e9d6bb; }
      .ExScheme-Brown-2   { color:#997657; }
      .ExScheme-Brown-3   { color:#433a35; }
      .ExScheme-Purple-1  { color:#e2abf9; }
      .ExScheme-Purple-2  { color:#b401ff; }
      .ExScheme-Purple-3  { color:#432b4d; }
      .ExScheme-Cyan-1    { color:#b2f2e6; }
      .ExScheme-Cyan-2    { color:#31bfa6; }
      .ExScheme-Cyan-3    { color:#2b4d47; }
      .ExScheme-Magenta-1 { color:#f8a6d8; }
      .ExScheme-Magenta-2 { color:#f00091; }
      .ExScheme-Magenta-3 { color:#770048; }
    </style>
<linearGradient id="ukq">
<stop offset="0"/>
<stop offset="1" stop-opacity="0"/>
</linearGradient>
<linearGradient id="ukr">
<stop offset="0" stop-color="#fff"/>
<stop offset="1" stop-color="#fff" stop-opacity="0"/>
</linearGradient>
<style id="uks" type="text/css">
        .force-display-for-editing { display: inline !important; }
    </style><style class="remove-if__show-crease" type="text/css">
        .enable-if__show-crease { display: none; }
    </style><style class="remove-if__color-sync-mimes-places" type="text/css">
        .enable-if__color-sync-mimes-places { display: none; }
    </style><radialGradient cx=".5" cy="0" id="ukt" r="1" xlink:href="#ukr"/><linearGradient id="uku" xlink:href="#ukq" y1="1" y2=".5"/><style class="ColorScheme-Background" fill="currentColor" opacity=".6" type="text/css">
   .ColorScheme-Text           { color:#eff0f1; }
      .ColorScheme-Background     { color:#31363b; }
      .ColorScheme-Highlight      { color:#3daefd; }
      .ColorScheme-ViewBackground { color:#fcfcfc; }
      .ColorScheme-PositiveText   { color:#27ae60; }
      .ColorScheme-NeutralText    { color:#f67400; }
      .ColorScheme-NegativeText   { color:#da4453; }
  </style><path d="M 5,4 C 3.9,4 3,4.9 3,6 V 9.27 C 2.4,9.6 2,10.26 2,11 v 15 c 0,1.1 .9,2 2,2 h 24 c 1.1,0 2,-.9 2,-2 V 11 10 C 30,9.26 29.6,8.6 29,8.27 V 7 C 29,5.9 28.1,5 27,5 H 14 C 12,5 12,4 10,4 Z" id="ukv"></path><path d="M 5,4 C 3.9,4 3,4.9 3,6 V 9.27 C 3.3,9.1 3.63,9 4,9 h 6 c 2,0 2,-1 4,-1 h 14 c .37,0 .7,.1 1,.27 V 7 C 29,5.9 28.1,5 27,5 H 14 C 12,5 12,4 10,4 Z" id="ukw"></path></defs>
<g id="content" transform="translate(0,0)"><use class="sync-color enable-if__color-sync-mimes-places force-display-for-editing ColorScheme-ActiveText" fill="currentColor" href="#ukv"></use><use class="primary-color remove-if__color-sync-mimes-places ColorScheme-ActiveText" fill="currentColor" href="#ukv"></use><use class="ColorScheme-Contrast" fill="currentColor" href="#ukv" opacity=".1"></use><g id="decal" transform="translate(8,10)"><path class="ColorScheme-Background" d="M 2.9 1 C 2.66 1 2.5 1.2 2.5 1.4 L 2.5 14.6 C 2.5 14.83 2.66 15 2.9 15 L 13.16 15 C 13.37 15 13.55 14.83 13.55 14.6 L 13.55 4.37 L 13.5 4.33 L 10.23 1 L 2.9 1 z M 2.9 1.26 L 10.1 1.26 L 10.2 1.3 L 10.2 3.64 C 10.2 4.06 10.5 4.4 10.94 4.4 L 13.23 4.4 L 13.3 4.47 L 13.3 14.6 C 13.3 14.7 13.24 14.76 13.16 14.76 L 2.9 14.76 C 2.8 14.76 2.73 14.7 2.73 14.6 L 2.73 1.4 C 2.73 1.3 2.8 1.26 2.9 1.26 z M 3.9 2.65 C 3.74 2.65 3.6 2.8 3.6 2.97 C 3.6 3.15 3.74 3.3 3.9 3.3 L 7.3 3.3 C 7.46 3.3 7.6 3.15 7.6 2.97 C 7.6 2.8 7.46 2.65 7.3 2.65 L 3.9 2.65 z M 3.9 4.45 C 3.74 4.45 3.6 4.6 3.6 4.77 C 3.6 4.94 3.74 5.1 3.9 5.1 L 8.64 5.1 C 8.8 5.1 8.96 4.94 8.96 4.77 C 8.96 4.6 8.8 4.45 8.64 4.45 L 3.9 4.45 z M 3.97 6.24 C 3.76 6.24 3.6 6.4 3.6 6.6 L 3.6 9 C 3.6 9.3 3.76 9.36 3.97 9.36 L 8.37 9.36 C 8.57 9.36 8.73 9.3 8.73 9 L 8.73 6.6 C 8.73 6.4 8.57 6.24 8.37 6.24 L 3.97 6.24 z M 3.97 6.43 L 8.37 6.43 C 8.47 6.43 8.55 6.5 8.55 6.6 L 8.55 8.8 L 7.07 7.34 C 7 7.27 6.9 7.24 6.8 7.24 C 6.7 7.24 6.6 7.27 6.55 7.34 L 4.7 9.2 L 4.43 9.2 L 5.7 7.9 L 5.46 7.65 C 5.4 7.57 5.3 7.54 5.2 7.54 C 5.1 7.54 5 7.6 4.95 7.65 L 3.8 8.8 L 3.8 6.6 C 3.8 6.5 3.87 6.43 3.97 6.43 z M 9.85 6.6 C 9.7 6.6 9.6 6.7 9.6 6.84 L 9.6 7 C 9.6 7.1 9.7 7.23 9.85 7.23 L 12.37 7.23 C 12.5 7.23 12.6 7.1 12.6 7 L 12.6 6.84 C 12.6 6.7 12.5 6.6 12.37 6.6 L 9.85 6.6 z M 4.4 6.6 C 4.27 6.6 4.15 6.73 4.15 6.9 C 4.15 7.04 4.27 7.16 4.4 7.16 C 4.6 7.16 4.7 7.04 4.7 6.9 C 4.7 6.73 4.6 6.6 4.4 6.6 z M 9.83 8.45 C 9.8 8.47 9.6 8.57 9.6 8.8 L 9.6 8.84 C 9.6 9 9.7 9.1 9.85 9.1 L 11.87 9.1 C 12 9.1 12.1 9 12.1 8.84 L 12.1 8.8 C 12.1 8.56 12 8.45 11.87 8.45 L 9.85 8.45 C 9.84 8.45 9.84 8.45 9.83 8.45 z M 3.9 10.5 C 3.74 10.5 3.6 10.66 3.6 10.84 C 3.6 11 3.74 11.16 3.9 11.16 L 11 11.16 C 11.16 11.16 11.3 11 11.3 10.84 C 11.3 10.66 11.16 10.5 11 10.5 L 3.9 10.5 z M 3.8 12.3 C 3.7 12.3 3.6 12.4 3.6 12.5 L 3.6 12.75 C 3.6 12.86 3.7 12.95 3.8 12.95 L 8.24 12.95 C 8.35 12.95 8.44 12.86 8.44 12.75 L 8.44 12.5 C 8.44 12.4 8.35 12.3 8.24 12.3 L 3.8 12.3 z M 9.2 12.3 C 9.1 12.3 9 12.4 9 12.5 L 9 12.75 C 9 12.86 9.1 12.95 9.2 12.95 L 11.97 12.95 C 12.1 12.95 12.17 12.86 12.17 12.75 L 12.17 12.5 C 12.17 12.4 12.1 12.3 11.97 12.3 L 9.2 12.3 z " fill="currentColor" opacity=".6"/></g><use href="#ukw" opacity=".4"></use><use fill="url(#uku)" href="#ukw" opacity=".1"></use><path d="M 14,8 C 12,8 12,9 10,9 H 4 C 2.9,9 2,9.9 2,11 v 15 c 0,1.1 .9,2 2,2 h 24 c 1.1,0 2,-.9 2,-2 V 11 10 C 30,8.9 29.1,8 28,8 Z" fill="url(#ukt)" opacity=".2"/><path class="ColorScheme-Contrast" d="m 2,25 v 1 c 0,1.1 .9,2 2,2 h 24 c 1.1,0 2,-.9 2,-2 v -1 c 0,1.1 -.9,2 -2,2 H 4 C 2.9,27 2,26.1 2,25 Z" fill="currentColor" opacity=".1"/><path class="ColorScheme-Contrast" d="M 2,25.5 V 26 c 0,1.1 .9,2 2,2 h 24 c 1.1,0 2,-.9 2,-2 v -0.5 c 0,1.1 -.9,2 -2,2 H 4 c -1.1,0 -2,-.9 -2,-2 z" fill="currentColor" opacity=".2"/><path d="M 14,8 C 12,8 12,9 10,9 H 4 C 2.9,9 2,9.9 2,11 v 0.5 c 0,-1.1 .9,-2 2,-2 h 6 c 2,0 2,-1 4,-1 h 14 c 1.1,0 2,.9 2,2 V 10 C 30,8.9 29.1,8 28,8 Z" fill="#fff" opacity=".2"/><path d="M 14,8 C 12,8 12,9 10,9 H 4 C 2.9,9 2,9.9 2,11 v 1 c 0,-1.1 .9,-2 2,-2 h 6 c 2,0 2,-1 4,-1 h 14 c 1.1,0 2,.9 2,2 V 10 C 30,8.9 29.1,8 28,8 Z" fill="#fff" opacity=".1"/><path d="m 14,7.5 c -2,0 -2,1 -4,1 H 4 C 3.63,8.5 3.3,8.6 3,8.77 v 0.5 C 3.3,9.1 3.63,9 4,9 h 6 c 2,0 2,-1 4,-1 h 14 c .37,0 .7,.1 1,.27 v -0.5 C 28.7,7.6 28.37,7.5 28,7.5 Z" opacity=".2"/><path d="M 14,7 C 12,7 12,8 10,8 H 4 C 3.63,8 3.3,8.1 3,8.27 v 1 C 3.3,9.1 3.63,9 4,9 h 6 c 2,0 2,-1 4,-1 h 14 c .37,0 .7,.1 1,.27 v -1 C 28.7,7.1 28.37,7 28,7 Z" opacity=".1"/></g>
</svg>