<svg height="32" version="1.1" width="32" xmlns="http://www.w3.org/2000/svg" xmlns:svg="http://www.w3.org/2000/svg" xmlns:xlink="http://www.w3.org/1999/xlink">
<defs id="primary-definitions">
<style id="current-color-scheme" type="text/css">
      .ColorScheme-Text         { color: #232629; }
      .ColorScheme-Background   { color: #eff0f1; }
      .ColorScheme-Highlight    { color: #7ec9f0; }
      .ColorScheme-PositiveText { color: #27ae60; }
      .ColorScheme-NeutralText  { color: #f67400; }
      .ColorScheme-NegativeText { color: #da4453; }
      .ColorScheme-ActiveText   { color: #3daee9; }
      .ColorScheme-Complement   { color: #ffffff; }
      .ColorScheme-Contrast     { color: #000000; }
    </style>
<style id="extended-color-scheme" type="text/css">
      .ExScheme-Black     { color:#3e3e3e; }
      .ExScheme-White     { color:#fcfcfc; }
      .ExScheme-Grey-1    { color:#cfd5d5; }
      .ExScheme-Grey-2    { color:#909c9c; }
      .ExScheme-Grey-3    { color:#536161; }
      .ExScheme-Red-1     { color:#ffafa5; }
      .ExScheme-Red-2     { color:#bf4231; }
      .ExScheme-Red-3     { color:#4d2f2b; }
      .ExScheme-Green-1   { color:#abf9c7; }
      .ExScheme-Green-2   { color:#3bb566; }
      .ExScheme-Green-3   { color:#377d50; }
      .ExScheme-Blue-1    { color:#abdaf9; }
      .ExScheme-Blue-2    { color:#3daefd; }
      .ExScheme-Blue-3    { color:#2b3c4d; }
      .ExScheme-Yellow-1  { color:#faffa5; }
      .ExScheme-Yellow-2  { color:#cac726; }
      .ExScheme-Yellow-3  { color:#4b4d2b; }
      .ExScheme-Orange-1  { color:#ffdaa5; }
      .ExScheme-Orange-2  { color:#ff9701; }
      .ExScheme-Orange-3  { color:#4d372b; }
      .ExScheme-Brown-1   { color:#e9d6bb; }
      .ExScheme-Brown-2   { color:#997657; }
      .ExScheme-Brown-3   { color:#433a35; }
      .ExScheme-Purple-1  { color:#e2abf9; }
      .ExScheme-Purple-2  { color:#b401ff; }
      .ExScheme-Purple-3  { color:#432b4d; }
      .ExScheme-Cyan-1    { color:#b2f2e6; }
      .ExScheme-Cyan-2    { color:#31bfa6; }
      .ExScheme-Cyan-3    { color:#2b4d47; }
      .ExScheme-Magenta-1 { color:#f8a6d8; }
      .ExScheme-Magenta-2 { color:#f00091; }
      .ExScheme-Magenta-3 { color:#770048; }
    </style>
<linearGradient id="uD8">
<stop offset="0"/>
<stop offset="1" stop-opacity="0"/>
</linearGradient>
<linearGradient id="uD9">
<stop offset="0" stop-color="#fff"/>
<stop offset="1" stop-color="#fff" stop-opacity="0"/>
</linearGradient>
<style id="uDa" type="text/css">
        .force-display-for-editing { display: inline !important; }
    </style><style class="remove-if__show-crease" type="text/css">
        .enable-if__show-crease { display: none; }
    </style><style class="remove-if__color-sync-mimes-places" type="text/css">
        .enable-if__color-sync-mimes-places { display: none; }
    </style><radialGradient cx=".5" cy="0" id="uDb" r="1" xlink:href="#uD9"/><linearGradient id="uDc" xlink:href="#uD8" y1="1" y2=".5"/><style class="ColorScheme-Background" fill="currentColor" opacity=".6" type="text/css">
   .ColorScheme-Text           { color:#eff0f1; }
      .ColorScheme-Background     { color:#31363b; }
      .ColorScheme-Highlight      { color:#3daefd; }
      .ColorScheme-ViewBackground { color:#fcfcfc; }
      .ColorScheme-PositiveText   { color:#27ae60; }
      .ColorScheme-NeutralText    { color:#f67400; }
      .ColorScheme-NegativeText   { color:#da4453; }
  </style><path d="M 5,4 C 3.9,4 3,4.9 3,6 V 9.27 C 2.4,9.6 2,10.26 2,11 v 15 c 0,1.1 .9,2 2,2 h 24 c 1.1,0 2,-.9 2,-2 V 11 10 C 30,9.26 29.6,8.6 29,8.27 V 7 C 29,5.9 28.1,5 27,5 H 14 C 12,5 12,4 10,4 Z" id="uDd"></path><path d="M 5,4 C 3.9,4 3,4.9 3,6 V 9.27 C 3.3,9.1 3.63,9 4,9 h 6 c 2,0 2,-1 4,-1 h 14 c .37,0 .7,.1 1,.27 V 7 C 29,5.9 28.1,5 27,5 H 14 C 12,5 12,4 10,4 Z" id="uDe"></path></defs>
<g id="content" transform="translate(0,0)"><use class="sync-color enable-if__color-sync-mimes-places force-display-for-editing ColorScheme-ActiveText" fill="currentColor" href="#uDd"></use><use class="primary-color remove-if__color-sync-mimes-places ColorScheme-ActiveText" fill="currentColor" href="#uDd"></use><use class="ColorScheme-Contrast" fill="currentColor" href="#uDd" opacity=".1"></use><g id="decal" transform="translate(8,10)"><path class="ColorScheme-Background" d="M 13.95 1 C 13.3 1 7.6 6.36 6.6 7.36 L 6.27 7.7 C 6.2 7.8 6.25 7.85 6.17 7.94 C 6.1 8.03 6 7.96 5.93 8.04 C 5.84 8.13 5.9 8.3 5.8 8.3 C 5.74 8.37 5.67 8.3 5.6 8.4 C 5 9 4.47 10 4.47 10 L 5 10.53 C 5 10.53 6 10 6.6 9.4 C 6.7 9.33 6.63 9.26 6.7 9.2 C 6.8 9.1 6.87 9.16 6.96 9.07 C 7.04 9 6.97 8.9 7.06 8.83 C 7.15 8.75 7.2 8.8 7.3 8.73 L 7.64 8.4 C 8.7 7.36 14.34 1.34 14 1 C 14 1 13.97 1 13.95 1 z M 14.4 5.7 C 14.1 5.7 13.73 6.33 13.5 7.5 C 13 10 8.3 12.8 7.5 12 C 7 11.5 7.56 10.65 6.5 11 C 6 11.17 5.65 11.3 5.4 11.33 C 5.4 11.4 5.4 11.45 5.4 11.5 C 5.4 11.77 5.4 12 5.33 12.26 C 5.2 12.74 5.1 13.2 4.66 13.65 C 4 14.3 3.2 14.7 3 14.9 C 2.95 14.9 3 15 3 15 C 4.5 14.5 3.5 15 8 15 C 12.5 15 15 11 15 8 C 15 6.4 14.7 5.66 14.4 5.7 z M 8.53 10.24 C 8.4 10.24 8.23 10.3 8.1 10.37 C 7.85 10.57 7.54 10.86 7.67 11.04 C 7.8 11.2 8.33 11.2 8.6 11 C 8.86 10.8 9.1 10.57 8.96 10.4 C 8.9 10.3 8.7 10.24 8.53 10.24 z M 3.3 10.57 C 2.77 10.56 2 10.75 1.55 11.2 C .5 12.25 .5 15 2.6 15 C 1.2 14.3 2.9 13.97 3.95 12.94 C 4.3 12.6 4.55 11.5 4.3 11.2 L 3.8 10.7 C 3.7 10.6 3.5 10.6 3.3 10.57 z " fill="currentColor" opacity=".6"/><path class="ColorScheme-Background" d="M 13.95 1 C 13.3 1 7.6 6.36 6.6 7.36 L 6.27 7.7 C 6.2 7.8 6.25 7.85 6.17 7.94 C 6.1 8.03 6 7.96 5.93 8.04 C 5.84 8.13 5.9 8.3 5.8 8.3 C 5.74 8.37 5.67 8.3 5.6 8.4 C 5 9 4.47 10 4.47 10 L 5 10.53 C 5 10.53 6 10 6.6 9.4 C 6.7 9.33 6.63 9.26 6.7 9.2 C 6.8 9.1 6.87 9.16 6.96 9.07 C 7.04 9 6.97 8.9 7.06 8.83 C 7.15 8.75 7.2 8.8 7.3 8.73 L 7.64 8.4 C 8.7 7.36 14.34 1.34 14 1 C 14 1 13.97 1 13.95 1 z M 11.37 3.63 C 11.2 3.8 11.1 3.93 10.96 4.2 C 9.47 5.77 7.8 7.54 7.3 8.03 L 6.96 8.36 C 6.87 8.4 6.8 8.4 6.7 8.5 C 6.63 8.56 6.63 8.63 6.6 8.7 C 6.5 8.75 6.44 8.75 6.36 8.8 C 6.3 8.9 6.3 9 6.25 9.07 C 5.9 9.4 5.57 9.57 5.24 9.76 C 5.43 9.43 5.6 9.1 5.93 8.75 C 6 8.7 6.1 8.7 6.2 8.64 C 6.25 8.56 6.25 8.5 6.3 8.4 C 6.37 8.37 6.44 8.37 6.5 8.3 C 6.6 8.2 6.6 8.13 6.64 8.04 L 6.97 7.7 C 7.45 7.23 9.1 5.63 10.74 4.2 C 10.97 3.97 11.15 3.83 11.37 3.63 z M 14.4 5.7 C 14.1 5.7 13.73 6.33 13.5 7.5 C 13 10 8.3 12.8 7.5 12 C 7 11.5 7.56 10.65 6.5 11 C 6 11.17 5.65 11.3 5.4 11.33 C 5.4 11.4 5.4 11.45 5.4 11.5 C 5.4 11.77 5.4 12 5.33 12.26 C 5.2 12.74 5.1 13.2 4.66 13.65 C 4 14.3 3.2 14.7 3 14.9 C 2.95 14.9 3 15 3 15 C 4.5 14.5 3.5 15 8 15 C 12.5 15 15 11 15 8 C 15 6.4 14.7 5.66 14.4 5.7 z M 14.34 6.44 C 14.43 6.75 14.5 7.26 14.5 8 C 14.5 9.36 13.9 11 12.8 12.3 C 11.7 13.6 10.1 14.5 8 14.5 C 5.87 14.5 5.1 14.4 4.6 14.3 C 4.75 14.2 4.87 14.14 5 14 C 5.56 13.45 5.7 12.85 5.8 12.36 C 5.86 12.16 5.87 11.94 5.9 11.7 C 6.1 11.64 6.3 11.6 6.66 11.47 C 6.8 11.43 6.76 11.44 6.8 11.43 C 6.8 11.6 6.8 12 7.15 12.35 C 7.4 12.6 7.7 12.64 8 12.64 C 8.26 12.63 8.55 12.56 8.86 12.46 C 9.5 12.24 10.2 11.87 10.9 11.4 C 12.3 10.44 13.7 9.1 14 7.6 C 14.1 7.07 14.23 6.7 14.34 6.44 z M 8.53 10.24 C 8.4 10.24 8.23 10.3 8.1 10.37 C 7.85 10.57 7.54 10.86 7.67 11.04 C 7.8 11.2 8.33 11.2 8.6 11 C 8.86 10.8 9.1 10.57 8.96 10.4 C 8.9 10.3 8.7 10.24 8.53 10.24 z M 3.3 10.57 C 2.77 10.56 2 10.75 1.55 11.2 C .5 12.25 .5 15 2.6 15 C 1.2 14.3 2.9 13.97 3.95 12.94 C 4.3 12.6 4.55 11.5 4.3 11.2 L 3.8 10.7 C 3.7 10.6 3.5 10.6 3.3 10.57 z M 3.43 11.06 L 3.9 11.5 C 3.9 11.53 3.9 11.55 3.9 11.57 C 3.9 11.66 3.9 11.8 3.86 11.94 C 3.8 12.23 3.6 12.56 3.6 12.6 C 3.16 13 2.5 13.34 2.05 13.7 C 1.94 13.8 1.83 13.9 1.73 14.03 C 1.7 14.04 1.7 14.1 1.7 14.1 C 1.56 13.9 1.44 13.7 1.4 13.4 C 1.3 12.76 1.54 11.93 1.9 11.57 C 2.23 11.24 2.9 11.06 3.27 11.07 C 3.44 11.1 3.54 11.2 3.43 11.06 z " fill="currentColor" opacity=".6"/></g><use href="#uDe" opacity=".4"></use><use fill="url(#uDc)" href="#uDe" opacity=".1"></use><path d="M 14,8 C 12,8 12,9 10,9 H 4 C 2.9,9 2,9.9 2,11 v 15 c 0,1.1 .9,2 2,2 h 24 c 1.1,0 2,-.9 2,-2 V 11 10 C 30,8.9 29.1,8 28,8 Z" fill="url(#uDb)" opacity=".2"/><path class="ColorScheme-Contrast" d="m 2,25 v 1 c 0,1.1 .9,2 2,2 h 24 c 1.1,0 2,-.9 2,-2 v -1 c 0,1.1 -.9,2 -2,2 H 4 C 2.9,27 2,26.1 2,25 Z" fill="currentColor" opacity=".1"/><path class="ColorScheme-Contrast" d="M 2,25.5 V 26 c 0,1.1 .9,2 2,2 h 24 c 1.1,0 2,-.9 2,-2 v -0.5 c 0,1.1 -.9,2 -2,2 H 4 c -1.1,0 -2,-.9 -2,-2 z" fill="currentColor" opacity=".2"/><path d="M 14,8 C 12,8 12,9 10,9 H 4 C 2.9,9 2,9.9 2,11 v 0.5 c 0,-1.1 .9,-2 2,-2 h 6 c 2,0 2,-1 4,-1 h 14 c 1.1,0 2,.9 2,2 V 10 C 30,8.9 29.1,8 28,8 Z" fill="#fff" opacity=".2"/><path d="M 14,8 C 12,8 12,9 10,9 H 4 C 2.9,9 2,9.9 2,11 v 1 c 0,-1.1 .9,-2 2,-2 h 6 c 2,0 2,-1 4,-1 h 14 c 1.1,0 2,.9 2,2 V 10 C 30,8.9 29.1,8 28,8 Z" fill="#fff" opacity=".1"/><path d="m 14,7.5 c -2,0 -2,1 -4,1 H 4 C 3.63,8.5 3.3,8.6 3,8.77 v 0.5 C 3.3,9.1 3.63,9 4,9 h 6 c 2,0 2,-1 4,-1 h 14 c .37,0 .7,.1 1,.27 v -0.5 C 28.7,7.6 28.37,7.5 28,7.5 Z" opacity=".2"/><path d="M 14,7 C 12,7 12,8 10,8 H 4 C 3.63,8 3.3,8.1 3,8.27 v 1 C 3.3,9.1 3.63,9 4,9 h 6 c 2,0 2,-1 4,-1 h 14 c .37,0 .7,.1 1,.27 v -1 C 28.7,7.1 28.37,7 28,7 Z" opacity=".1"/></g>
</svg>