<svg height="32" version="1.1" width="32" xmlns="http://www.w3.org/2000/svg" xmlns:svg="http://www.w3.org/2000/svg" xmlns:xlink="http://www.w3.org/1999/xlink">
<defs id="primary-definitions">
<style id="current-color-scheme" type="text/css">
      .ColorScheme-Text           { color:#fff; }
      .ColorScheme-Background     { color:#111; }
      .ColorScheme-Highlight      { color:#3daefd; }
      .ColorScheme-ViewBackground { color:#000; }
      .ColorScheme-PositiveText   { color:#27ae60; }
      .ColorScheme-NeutralText    { color:#f67400; }
      .ColorScheme-NegativeText   { color:#da4453; }
    </style>
<style id="extended-color-scheme" type="text/css">
      .ExScheme-Black     { color:#3e3e3e; }
      .ExScheme-White     { color:#fcfcfc; }
      .ExScheme-Grey-1    { color:#cfd5d5; }
      .ExScheme-Grey-2    { color:#909c9c; }
      .ExScheme-Grey-3    { color:#536161; }
      .ExScheme-Red-1     { color:#ffafa5; }
      .ExScheme-Red-2     { color:#bf4231; }
      .ExScheme-Red-3     { color:#4d2f2b; }
      .ExScheme-Green-1   { color:#abf9c7; }
      .ExScheme-Green-2   { color:#3bb566; }
      .ExScheme-Green-3   { color:#377d50; }
      .ExScheme-Blue-1    { color:#abdaf9; }
      .ExScheme-Blue-2    { color:#3daefd; }
      .ExScheme-Blue-3    { color:#2b3c4d; }
      .ExScheme-Yellow-1  { color:#faffa5; }
      .ExScheme-Yellow-2  { color:#cac726; }
      .ExScheme-Yellow-3  { color:#4b4d2b; }
      .ExScheme-Orange-1  { color:#ffdaa5; }
      .ExScheme-Orange-2  { color:#ff9701; }
      .ExScheme-Orange-3  { color:#4d372b; }
      .ExScheme-Brown-1   { color:#e9d6bb; }
      .ExScheme-Brown-2   { color:#997657; }
      .ExScheme-Brown-3   { color:#433a35; }
      .ExScheme-Purple-1  { color:#e2abf9; }
      .ExScheme-Purple-2  { color:#b401ff; }
      .ExScheme-Purple-3  { color:#432b4d; }
      .ExScheme-Cyan-1    { color:#b2f2e6; }
      .ExScheme-Cyan-2    { color:#31bfa6; }
      .ExScheme-Cyan-3    { color:#2b4d47; }
      .ExScheme-Magenta-1 { color:#f8a6d8; }
      .ExScheme-Magenta-2 { color:#f00091; }
      .ExScheme-Magenta-3 { color:#770048; }
    </style>
<linearGradient id="uea">
<stop offset="0"/>
<stop offset="1" stop-opacity="0"/>
</linearGradient>
<linearGradient id="ueb">
<stop offset="0" stop-color="#fff"/>
<stop offset="1" stop-color="#fff" stop-opacity="0"/>
</linearGradient>
<style class="toggle-enable-crease" type="text/css">
        .folder-crease { display: none; }
    </style><style class="toggle-manilla-folders" type="text/css">
        .folder-manilla { display: none; }
    </style><radialGradient cx=".5" cy="0" id="uec" r="1" xlink:href="#ueb"/><linearGradient id="ued" xlink:href="#uea" y1="1" y2=".5"/><path d="M 5,4 C 3.9,4 3,4.9 3,6 V 9.27 C 2.4,9.6 2,10.26 2,11 v 15 c 0,1.1 .9,2 2,2 h 24 c 1.1,0 2,-.9 2,-2 V 11 10 C 30,9.26 29.6,8.6 29,8.27 V 7 C 29,5.9 28.1,5 27,5 H 14 C 12,5 12,4 10,4 Z" id="uee"></path><path d="M 7,4 V 5 H 8 V 4 Z m 2,0 v 1 h 1 V 4 Z M 4,6 V 7 H 5 V 6 Z M 6,6 V 7 H 7 V 6 Z M 8,6 V 7 H 9 V 6 Z m 2,0 v 1 h 1 V 6 Z" id="uef" opacity=".6"></path><path d="M 5,4 C 3.9,4 3,4.9 3,6 V 9.27 C 3.3,9.1 3.63,9 4,9 h 6 c 2,0 2,-1 4,-1 h 14 c .37,0 .7,.1 1,.27 V 7 C 29,5.9 28.1,5 27,5 H 14 C 12,5 12,4 10,4 Z" id="ueg"></path></defs>
<g id="content" transform="translate(0,0)"><use class="folder-manilla ExScheme-Brown-1" fill="currentColor" href="#uee"></use><use class="toggle-manilla-folders ColorScheme-Highlight" fill="currentColor" href="#uee" id="primary-color"></use><use class="ColorScheme-Text" fill="currentColor" href="#uee" opacity=".1"></use><g id="emblem" transform="translate(8,10)"><use class="ColorScheme-Background" fill="currentColor" href="#uef"></use><path class="ColorScheme-Background" d="M 12.5,6 C 12,6.4 11.76,7.5 13,8 13.54,9.03 14.8,8.6 15,8 14.8,7.4 14.1,6.9 13.55,7.25 13.56,6.4 13.15,6.05 12.5,6 Z M 13,8 H 1 c 0,3.3 2.7,5 6,5 3.3,0 6,-1.7 6,-5 z M 3.47,9 C 3.5,9 3.5,9 3.5,9 3.75,9 4,9.2 4,9.5 4,9.75 3.75,10 3.5,10 3.2,10 3,9.75 3,9.5 3,9.2 3.2,9 3.47,9 Z" fill="currentColor" opacity=".6"/><use class="ColorScheme-Background" fill="currentColor" href="#uef"></use><path class="ColorScheme-Background" d="M 12.5 6 C 12 6.4 11.76 7.5 13 8 C 13.54 9.03 14.8 8.6 15 8 C 14.8 7.4 14.1 6.9 13.55 7.25 C 13.56 6.4 13.15 6.05 12.5 6 z M 13 8 L 1 8 C 1 11.3 3.7 13 7 13 C 10.3 13 13 11.3 13 8 z M 12.73 6.6 C 12.8 6.6 12.9 6.63 12.9 6.66 C 13 6.74 13.06 6.9 13.05 7.24 L 13.05 7.4 C 12.8 7.23 12.6 7.07 12.6 6.9 C 12.6 6.8 12.67 6.7 12.73 6.6 z M 13.96 7.63 C 14 7.64 14.07 7.66 14.15 7.7 C 14.23 7.75 14.3 7.86 14.35 7.95 C 14.26 8 14.2 8.1 14.06 8.1 C 13.87 8.14 13.7 8 13.57 7.84 L 13.8 7.67 C 13.87 7.64 13.9 7.63 13.96 7.63 z M 1.6 8.5 L 3.45 8.5 C 3.2 8.5 2.95 8.6 2.77 8.8 C 2.6 9 2.5 9.25 2.5 9.5 C 2.5 10 2.9 10.5 3.5 10.5 C 3.8 10.5 4 10.37 4.2 10.3 C 4.37 10 4.5 9.8 4.5 9.5 C 4.5 8.9 4 8.5 3.5 8.5 L 12.4 8.5 C 12.26 9.7 11.8 10.7 10.93 11.34 C 9.96 12.1 8.56 12.5 7 12.5 C 5.44 12.5 4.04 12.1 3.07 11.34 C 2.2 10.7 1.74 9.7 1.6 8.5 z M 3.47 9 C 3.5 9 3.5 9 3.5 9 C 3.75 9 4 9.2 4 9.5 C 4 9.75 3.75 10 3.5 10 C 3.2 10 3 9.75 3 9.5 C 3 9.2 3.2 9 3.47 9 z " fill="currentColor" opacity=".6"/></g><use href="#ueg" opacity=".4"></use><use class="toggle-flat-design" fill="url(#ued)" href="#ueg" opacity=".1"></use><path class="toggle-flat-design" d="M 14,8 C 12,8 12,9 10,9 H 4 C 2.9,9 2,9.9 2,11 v 15 c 0,1.1 .9,2 2,2 h 24 c 1.1,0 2,-.9 2,-2 V 11 10 C 30,8.9 29.1,8 28,8 Z" fill="url(#uec)" opacity=".2"/><path class="folder-crease " d="m 2,22 v 1 H 6.5 C 6.8,23 7,22.8 7,22.5 7,22.2 6.8,22 6.5,22 Z m 23.5,0 c -.3,0 -0.5,.2 -0.5,0.5 0,.3 .2,0.5 0.5,0.5 H 30 v -1 z" opacity=".4"/><path class="ColorScheme-Text" d="m 2,25 v 1 c 0,1.1 .9,2 2,2 h 24 c 1.1,0 2,-.9 2,-2 v -1 c 0,1.1 -.9,2 -2,2 H 4 C 2.9,27 2,26.1 2,25 Z" fill="currentColor" opacity=".1"/><path class="ColorScheme-Text" d="M 2,25.5 V 26 c 0,1.1 .9,2 2,2 h 24 c 1.1,0 2,-.9 2,-2 v -0.5 c 0,1.1 -.9,2 -2,2 H 4 c -1.1,0 -2,-.9 -2,-2 z" fill="currentColor" opacity=".2"/><path d="M 14,8 C 12,8 12,9 10,9 H 4 C 2.9,9 2,9.9 2,11 v 0.5 c 0,-1.1 .9,-2 2,-2 h 6 c 2,0 2,-1 4,-1 h 14 c 1.1,0 2,.9 2,2 V 10 C 30,8.9 29.1,8 28,8 Z" fill="#fff" opacity=".2"/><path d="M 14,8 C 12,8 12,9 10,9 H 4 C 2.9,9 2,9.9 2,11 v 1 c 0,-1.1 .9,-2 2,-2 h 6 c 2,0 2,-1 4,-1 h 14 c 1.1,0 2,.9 2,2 V 10 C 30,8.9 29.1,8 28,8 Z" fill="#fff" opacity=".1"/><path d="m 14,7.5 c -2,0 -2,1 -4,1 H 4 C 3.63,8.5 3.3,8.6 3,8.77 v 0.5 C 3.3,9.1 3.63,9 4,9 h 6 c 2,0 2,-1 4,-1 h 14 c .37,0 .7,.1 1,.27 v -0.5 C 28.7,7.6 28.37,7.5 28,7.5 Z" opacity=".2"/><path d="M 14,7 C 12,7 12,8 10,8 H 4 C 3.63,8 3.3,8.1 3,8.27 v 1 C 3.3,9.1 3.63,9 4,9 h 6 c 2,0 2,-1 4,-1 h 14 c .37,0 .7,.1 1,.27 v -1 C 28.7,7.1 28.37,7 28,7 Z" opacity=".1"/></g>
</svg>