<svg xmlns="http://www.w3.org/2000/svg" viewBox="0 0 32 32">
  <defs id="defs3051">
    <style type="text/css" id="current-color-scheme">
      .ColorScheme-Text {
        color:#31363b;
      }
      .ColorScheme-Background {
        color:#eff0f1;
      }
      .ColorScheme-Highlight {
        color:#3daee9;
      }
      .ColorScheme-ViewText {
        color:#31363b;
      }
      .ColorScheme-ViewBackground {
        color:#fcfcfc;
      }
      .ColorScheme-ViewHover {
        color:#93cee9;
      }
      .ColorScheme-ViewFocus{
        color:#3daee9;
      }
      .ColorScheme-ButtonText {
        color:#31363b;
      }
      .ColorScheme-ButtonBackground {
        color:#eff0f1;
      }
      .ColorScheme-ButtonHover {
        color:#93cee9;
      }
      .ColorScheme-ButtonFocus{
        color:#3daee9;
      }
      </style>
  </defs>
 <path 
     style="fill:currentColor;fill-opacity:1;stroke:none" 
     d="M 2 3 L 2 10 L 1 10 L 1 29 L 12 29 L 13 29 L 31 29 L 31 8 L 30 8 L 30 5 L 16 5 L 14 3 L 2 3 z "
     class="ColorScheme-Highlight"
     />
 <path 
     style="fill-opacity:0.33;fill-rule:evenodd"
     d="m 2,3 0,7 9,0 L 13,8 30,8 30,5 16,5 14,3 2,3 Z"
     />
 <path 
     style="fill:#ffffff;fill-opacity:0.2;fill-rule:evenodd"
     d="M 14 3 L 15 6 L 30 6 L 30 5 L 16 5 L 14 3 z M 13 8 L 11 10 L 1 10 L 1 11 L 12 11 L 13 8 z "
     />
 <path 
     style="fill-opacity:0.2;fill-rule:evenodd"
     d="M 13 8 L 11 9 L 2 9 L 2 10 L 11 10 L 13 8 z M 1 28 L 1 29 L 31 29 L 31 28 L 1 28 z "
     class="ColorScheme-Text"
     />
 <path 
     style="fill:currentColor;fill-opacity:0.6;stroke:none" 
     d="M 18 13 C 16.89543 13 16 13.89543 16 15 C 16 16.10457 16.89543 17 18 17 C 19.10457 17 20 16.10457 20 15 C 20 13.89543 19.10457 13 18 13 z M 14 14 C 12.89543 14 12 14.89543 12 16 C 12 17.10457 12.89543 18 14 18 C 15.10457 18 16 17.10457 16 16 C 16 14.89543 15.10457 14 14 14 z M 18 18 C 17.69539 18.001 17.391993 18.029031 17.095703 18.082031 C 17.432723 18.348251 17.734018 18.65678 17.992188 19 L 18 19 C 19.65685 19 21 19.89543 21 21 L 18.894531 21 C 18.963231 21.32894 18.99854 21.66397 19 22 L 20.595703 22 L 21.767578 22 L 22 22 L 22 21 C 22 19.34314 20.20914 18 18 18 z M 14 19 C 11.79086 19 10 20.34314 10 22 L 10 23 L 10.234375 23 L 11.408203 23 L 16.595703 23 L 17.767578 23 L 18 23 L 18 22 C 18 20.34314 16.20914 19 14 19 z M 14 20 C 15.65685 20 17 20.89543 17 22 L 11 22 C 11 20.89543 12.34315 20 14 20 z "
     class="ColorScheme-Background"
     />
</svg>
