<?xml version="1.0" encoding="utf-8"?><svg height="32" width="32" xmlns="http://www.w3.org/2000/svg" xmlns:svg="http://www.w3.org/2000/svg" xmlns:xlink="http://www.w3.org/1999/xlink"><defs id="primary-definitions"><style id="current-color-scheme" type="text/css">.ColorScheme-Text           { color:#fff; }
      .ColorScheme-Background     { color:#111; }
      .ColorScheme-Highlight      { color:#3daefd; }
      .ColorScheme-ViewBackground { color:#000; }
      .ColorScheme-PositiveText   { color:#27ae60; }
      .ColorScheme-NeutralText    { color:#f67400; }
      .ColorScheme-NegativeText   { color:#da4453; }
  </style><style id="extended-color-scheme" type="text/css">.ExScheme-Black     { color:#3e3e3e; }
      .ExScheme-White     { color:#fcfcfc; }
      .ExScheme-Grey-1    { color:#cfd5d5; }
      .ExScheme-Grey-2    { color:#909c9c; }
      .ExScheme-Grey-3    { color:#536161; }
      .ExScheme-Red-1     { color:#ffafa5; }
      .ExScheme-Red-2     { color:#bf4231; }
      .ExScheme-Red-3     { color:#4d2f2b; }
      .ExScheme-Green-1   { color:#abf9c7; }
      .ExScheme-Green-2   { color:#3bb566; }
      .ExScheme-Green-3   { color:#377d50; }
      .ExScheme-Blue-1    { color:#abdaf9; }
      .ExScheme-Blue-2    { color:#3daefd; }
      .ExScheme-Blue-3    { color:#2b3c4d; }
      .ExScheme-Yellow-1  { color:#faffa5; }
      .ExScheme-Yellow-2  { color:#cac726; }
      .ExScheme-Yellow-3  { color:#4b4d2b; }
      .ExScheme-Orange-1  { color:#ffdaa5; }
      .ExScheme-Orange-2  { color:#ff9701; }
      .ExScheme-Orange-3  { color:#4d372b; }
      .ExScheme-Brown-1   { color:#e9d6bb; }
      .ExScheme-Brown-2   { color:#997657; }
      .ExScheme-Brown-3   { color:#433a35; }
      .ExScheme-Purple-1  { color:#e2abf9; }
      .ExScheme-Purple-2  { color:#b401ff; }
      .ExScheme-Purple-3  { color:#432b4d; }
      .ExScheme-Cyan-1    { color:#b2f2e6; }
      .ExScheme-Cyan-2    { color:#31bfa6; }
      .ExScheme-Cyan-3    { color:#2b4d47; }
      .ExScheme-Magenta-1 { color:#f8a6d8; }
      .ExScheme-Magenta-2 { color:#f00091; }
      .ExScheme-Magenta-3 { color:#770048; }
  </style><linearGradient id="gradientDark"><stop offset="0"/><stop offset="1" stop-opacity="0"/></linearGradient><linearGradient id="gradientLight"><stop offset="0" stop-color="#fff"/><stop offset="1" stop-color="#fff" stop-opacity="0"/></linearGradient><style class="toggle-enable-crease" type="text/css">.folder-crease { display: none; }
  </style><style class="toggle-manilla-folders" type="text/css">.folder-manilla { display: none; }
  </style><radialGradient cx=".5" cy="0" id="gl1" r="1" xlink:href="#gradientLight"/><linearGradient id="gd1" xlink:href="#gradientDark" y1="1" y2=".5"/><path d="M 5,4 C 3.892,4 3,4.892 3,6 V 9.268 C 2.402,9.613 2,10.257 2,11 v 15 c 0,1.108 0.892,2 2,2 h 24 c 1.108,0 2,-0.892 2,-2 V 11 10 C 30,9.257 29.598,8.613 29,8.268 V 7 C 29,5.892 28.108,5 27,5 H 14 C 12,5 12,4 10,4 Z" id="use-path-3a"/><path d="M 4.5,2 C 4.223,2 4,2.223 4,2.5 V 5 H 1.5 C 1.223,5 1,5.223 1,5.5 1,5.777 1.223,6 1.5,6 H 4 v 4 H 1.5 C 1.223,10 1,10.223 1,10.5 1,10.777 1.223,11 1.5,11 H 4 v 2.5 C 4,13.777 4.223,14 4.5,14 4.777,14 4.897,13.757 5,13.5 V 11 h 4 v 2.5 C 9,13.777 9.223,14 9.5,14 9.777,14 10,13.777 10,13.5 V 11 h 2.5 C 12.777,11 13,10.777 13,10.5 13,10.223 12.777,10 12.5,10 H 10 V 6 h 2.5 C 12.777,6 13,5.777 13,5.5 13,5.223 12.777,5 12.5,5 H 10 V 2.5 C 10,2.223 9.777,2 9.5,2 9.223,2 9,2.223 9,2.5 V 5 H 5 V 2.5 C 5,2.223 4.777,2 4.5,2 Z m 10,0 C 14.223,2 14,2.223 14,2.5 v 7 C 14,9.777 14.223,10 14.5,10 14.777,10 15,9.777 15,9.5 v -7 C 15,2.223 14.777,2 14.5,2 Z M 5,6 h 4 v 4 H 5 Z m 9.475,7 C 14.21,13.013 14,13.232 14,13.5 14,13.777 14.223,14 14.5,14 14.777,14 15,13.777 15,13.5 15,13.223 14.777,13 14.5,13 c -.01,0 -.017,-4.3e-4 -.025,0 z" id="use-path-3b" opacity=".6" stop-color="#000000"/><path d="M 5,4 C 3.892,4 3,4.892 3,6 V 9.268 C 3.294,9.098 3.635,9 4,9 h 6 c 2,0 2,-1 4,-1 h 14 c .365,0 0.706,.098 1,.268 V 7 C 29,5.892 28.108,5 27,5 H 14 C 12,5 12,4 10,4 Z" id="use-path-3c"/></defs><g id="content"><use class="folder-manilla ExScheme-Brown-1" fill="currentColor" href="#use-path-3a"/><use class="toggle-manilla-folders ColorScheme-Highlight" fill="currentColor" href="#use-path-3a" id="primary-color"/><use class="ColorScheme-Text" fill="currentColor" href="#use-path-3a" opacity=".1"/><g id="emblem" transform="translate(8,10)"><use class="ColorScheme-Background" fill="currentColor" href="#use-path-3b"/><use class="ColorScheme-Background" fill="currentColor" href="#use-path-3b"/></g><use href="#use-path-3c" opacity=".4"/><use class="toggle-flat-design" fill="url(#gd1)" href="#use-path-3c" opacity=".1"/><path class="toggle-flat-design" d="M 14,8 C 12,8 12,9 10,9 H 4 C 2.892,9 2,9.892 2,11 v 15 c 0,1.108 0.892,2 2,2 h 24 c 1.108,0 2,-0.892 2,-2 V 11 10 C 30,8.892 29.108,8 28,8 Z" fill="url(#gl1)" opacity=".2"/><path class="folder-crease" d="m 2,22 v 1 H 6.5 C 6.777,23 7,22.777 7,22.5 7,22.223 6.777,22 6.5,22 Z m 23.5,0 c -0.277,0 -0.5,0.223 -0.5,0.5 0,0.277 0.223,0.5 0.5,0.5 H 30 v -1 z" opacity=".4"/><path class="ColorScheme-Text" d="m 2,25 v 1 c 0,1.108 0.892,2 2,2 h 24 c 1.108,0 2,-0.892 2,-2 v -1 c 0,1.108 -0.892,2 -2,2 H 4 C 2.892,27 2,26.108 2,25 Z" fill="currentColor" opacity=".1"/><path class="ColorScheme-Text" d="M 2,25.5 V 26 c 0,1.108 0.892,2 2,2 h 24 c 1.108,0 2,-0.892 2,-2 v -0.5 c 0,1.108 -0.892,2 -2,2 H 4 c -1.108,0 -2,-0.892 -2,-2 z" fill="currentColor" opacity=".2"/><path d="M 14,8 C 12,8 12,9 10,9 H 4 C 2.892,9 2,9.892 2,11 v 0.5 c 0,-1.108 0.892,-2 2,-2 h 6 c 2,0 2,-1 4,-1 h 14 c 1.108,0 2,0.892 2,2 V 10 C 30,8.892 29.108,8 28,8 Z" fill="#fff" opacity=".2"/><path d="M 14,8 C 12,8 12,9 10,9 H 4 C 2.892,9 2,9.892 2,11 v 1 c 0,-1.108 0.892,-2 2,-2 h 6 c 2,0 2,-1 4,-1 h 14 c 1.108,0 2,0.892 2,2 V 10 C 30,8.892 29.108,8 28,8 Z" fill="#fff" opacity=".1"/><path d="m 14,7.5 c -2,0 -2,1 -4,1 H 4 C 3.635,8.5 3.294,8.598 3,8.768 v 0.5 C 3.294,9.098 3.635,9 4,9 h 6 c 2,0 2,-1 4,-1 h 14 c .365,0 .706,.098 1,.268 v -0.5 C 28.706,7.598 28.365,7.5 28,7.5 Z" opacity=".2"/><path d="M 14,7 C 12,7 12,8 10,8 H 4 C 3.635,8 3.294,8.098 3,8.268 v 1 C 3.294,9.098 3.635,9 4,9 h 6 c 2,0 2,-1 4,-1 h 14 c .365,0 .706,.098 1,.268 v -1 C 28.706,7.098 28.365,7 28,7 Z" opacity=".1"/></g></svg>