<svg height="32" version="1.1" width="32" xmlns="http://www.w3.org/2000/svg" xmlns:svg="http://www.w3.org/2000/svg" xmlns:xlink="http://www.w3.org/1999/xlink">
<defs id="primary-definitions">
<style id="current-color-scheme" type="text/css">
      .ColorScheme-Text           { color:#fff; }
      .ColorScheme-Background     { color:#111; }
      .ColorScheme-Highlight      { color:#3daefd; }
      .ColorScheme-ViewBackground { color:#000; }
      .ColorScheme-PositiveText   { color:#27ae60; }
      .ColorScheme-NeutralText    { color:#f67400; }
      .ColorScheme-NegativeText   { color:#da4453; }
    </style>
<style id="extended-color-scheme" type="text/css">
      .ExScheme-Black     { color:#3e3e3e; }
      .ExScheme-White     { color:#fcfcfc; }
      .ExScheme-Grey-1    { color:#cfd5d5; }
      .ExScheme-Grey-2    { color:#909c9c; }
      .ExScheme-Grey-3    { color:#536161; }
      .ExScheme-Red-1     { color:#ffafa5; }
      .ExScheme-Red-2     { color:#bf4231; }
      .ExScheme-Red-3     { color:#4d2f2b; }
      .ExScheme-Green-1   { color:#abf9c7; }
      .ExScheme-Green-2   { color:#3bb566; }
      .ExScheme-Green-3   { color:#377d50; }
      .ExScheme-Blue-1    { color:#abdaf9; }
      .ExScheme-Blue-2    { color:#3daefd; }
      .ExScheme-Blue-3    { color:#2b3c4d; }
      .ExScheme-Yellow-1  { color:#faffa5; }
      .ExScheme-Yellow-2  { color:#cac726; }
      .ExScheme-Yellow-3  { color:#4b4d2b; }
      .ExScheme-Orange-1  { color:#ffdaa5; }
      .ExScheme-Orange-2  { color:#ff9701; }
      .ExScheme-Orange-3  { color:#4d372b; }
      .ExScheme-Brown-1   { color:#e9d6bb; }
      .ExScheme-Brown-2   { color:#997657; }
      .ExScheme-Brown-3   { color:#433a35; }
      .ExScheme-Purple-1  { color:#e2abf9; }
      .ExScheme-Purple-2  { color:#b401ff; }
      .ExScheme-Purple-3  { color:#432b4d; }
      .ExScheme-Cyan-1    { color:#b2f2e6; }
      .ExScheme-Cyan-2    { color:#31bfa6; }
      .ExScheme-Cyan-3    { color:#2b4d47; }
      .ExScheme-Magenta-1 { color:#f8a6d8; }
      .ExScheme-Magenta-2 { color:#f00091; }
      .ExScheme-Magenta-3 { color:#770048; }
    </style>
<linearGradient id="uo3">
<stop offset="0"/>
<stop offset="1" stop-opacity="0"/>
</linearGradient>
<linearGradient id="uo4">
<stop offset="0" stop-color="#fff"/>
<stop offset="1" stop-color="#fff" stop-opacity="0"/>
</linearGradient>
<style class="toggle-enable-crease" type="text/css">
        .folder-crease { display: none; }
    </style><style class="toggle-manilla-folders" type="text/css">
        .folder-manilla { display: none; }
    </style><radialGradient cx=".5" cy="0" id="uo5" r="1" xlink:href="#uo4"/><linearGradient id="uo6" xlink:href="#uo3" y1="1" y2=".5"/><path d="M 5,4 C 3.9,4 3,4.9 3,6 V 9.27 C 2.4,9.6 2,10.26 2,11 v 15 c 0,1.1 .9,2 2,2 h 24 c 1.1,0 2,-.9 2,-2 V 11 10 C 30,9.26 29.6,8.6 29,8.27 V 7 C 29,5.9 28.1,5 27,5 H 14 C 12,5 12,4 10,4 Z" id="uo7"></path><path d="M 5,4 C 3.9,4 3,4.9 3,6 V 9.27 C 3.3,9.1 3.63,9 4,9 h 6 c 2,0 2,-1 4,-1 h 14 c .37,0 .7,.1 1,.27 V 7 C 29,5.9 28.1,5 27,5 H 14 C 12,5 12,4 10,4 Z" id="uo8"></path></defs>
<g id="content" transform="translate(0,0)"><use class="folder-manilla ExScheme-Brown-1" fill="currentColor" href="#uo7"></use><use class="toggle-manilla-folders ColorScheme-Highlight" fill="currentColor" href="#uo7" id="primary-color"></use><use class="ColorScheme-Text" fill="currentColor" href="#uo7" opacity=".1"></use><g id="emblem" transform="translate(8,10)"><g transform="matrix(.667,0,0,.667,2.3e-5,-.314)">
<path class="ColorScheme-Background" d="M 9.46,1.16 8.7,2.4 C 8.46,2.37 8.23,2.35 8,2.35 7.77,2.36 7.55,2.4 7.3,2.4 L 6.56,1.2 C 6,1.3 5.46,1.46 4.95,1.7 L 5.05,3.13 C 4.66,3.36 4.3,3.63 3.96,3.94 L 2.6,3.4 C 2.23,3.8 1.9,4.27 1.63,4.76 L 2,6 2,10 h 2 v 1 h 2 v -1 h 4 v 1 h 2 v -1 h 2 L 14,6 14.4,4.75 C 14.1,4.26 13.8,3.8 13.4,3.4 L 12.06,3.94 C 11.7,3.63 11.35,3.35 10.95,3.13 L 11.05,1.7 C 10.54,1.45 10,1.3 9.46,1.16 Z M 5,6 c .55,-1e-7 1,.45 1,1 1e-7,.55 -.45,1 -1,1 -.55,10e-8 -1,-.45 -1,-1 -10e-8,-.55 .45,-1 1,-1 z m 6,0 c .55,-2e-7 1,.45 1,1 0,.55 -.45,1 -1,1 -.55,2e-7 -1,-.45 -1,-1 -2e-7,-.55 .45,-1 1,-1 z m -9,5 c 0,1 0,3 6,3 6,0 6,-2 6,-3 h -1 v 1 H 9 V 11 H 7 v 1 H 3 v -1 z" fill="currentColor" opacity=".6" stop-color="#000000" transform="matrix(1.5,0,0,1.5,-3.45e-5,.47)"/>
<path class="ColorScheme-Background" d="M 9.46 1.16 L 8.7 2.4 C 8.46 2.37 8.23 2.35 8 2.35 C 7.77 2.36 7.55 2.4 7.3 2.4 L 6.56 1.2 C 6 1.3 5.46 1.46 4.95 1.7 L 5.05 3.13 C 4.66 3.36 4.3 3.63 3.96 3.94 L 2.6 3.4 C 2.23 3.8 1.9 4.27 1.63 4.76 L 2 6 L 2 10 L 4 10 L 4 11 L 6 11 L 6 10 L 10 10 L 10 11 L 12 11 L 12 10 L 14 10 L 14 6 L 14.4 4.75 C 14.1 4.26 13.8 3.8 13.4 3.4 L 12.06 3.94 C 11.7 3.63 11.35 3.35 10.95 3.13 L 11.05 1.7 C 10.54 1.45 10 1.3 9.46 1.16 z M 9.67 1.76 C 9.96 1.83 10.24 1.9 10.5 2.03 L 10.45 3.1 A .5 .5 0 0 0 10.7 3.56 C 11.07 3.77 11.4 4 11.7 4.3 A .5 .5 0 0 0 12.25 4.4 L 13.23 4 C 13.45 4.27 13.66 4.54 13.83 4.84 L 13.5 5.85 A .5 .5 0 0 0 13.5 6 L 13.5 9.5 L 12 9.5 A .5 .5 0 0 0 11.5 10 L 11.5 10.5 L 10.5 10.5 L 10.5 10 A .5 .5 0 0 0 10 9.5 L 6 9.5 A .5 .5 0 0 0 5.5 10 L 5.5 10.5 L 4.5 10.5 L 4.5 10 A .5 .5 0 0 0 4 9.5 L 2.5 9.5 L 2.5 6 A .5 .5 0 0 0 2.5 5.86 L 2.2 4.85 C 2.35 4.55 2.56 4.3 2.8 4 L 3.77 4.4 A .5 .5 0 0 0 4.3 4.3 C 4.7 4 4.94 3.77 5.3 3.56 A .5 .5 0 0 0 5.55 3.1 L 5.5 2.04 C 5.76 1.93 6.04 1.84 6.33 1.77 L 6.9 2.7 A .5 .5 0 0 0 7.4 2.9 C 7.6 2.9 7.8 2.86 8 2.85 C 8.2 2.85 8.4 2.86 8.63 2.9 A .5 .5 0 0 0 9.1 2.66 L 9.67 1.76 z M 5 5.5 C 4.2 5.5 3.5 6.2 3.5 7 C 3.5 7.8 4.2 8.5 5 8.5 C 5.8 8.5 6.5 7.8 6.5 7 C 6.5 6.2 5.8 5.5 5 5.5 z M 11 5.5 C 10.2 5.5 9.5 6.2 9.5 7 C 9.5 7.8 10.2 8.5 11 8.5 C 11.8 8.5 12.5 7.8 12.5 7 C 12.5 6.2 11.8 5.5 11 5.5 z M 5 6 C 5.55 6 6 6.45 6 7 C 6 7.55 5.55 8 5 8 C 4.45 8 4 7.55 4 7 C 4 6.45 4.45 6 5 6 z M 11 6 C 11.55 6 12 6.45 12 7 C 12 7.55 11.55 8 11 8 C 10.45 8 10 7.55 10 7 C 10 6.45 10.45 6 11 6 z M 2 11 C 2 12 2 14 8 14 C 14 14 14 12 14 11 L 13 11 L 13 12 L 9 12 L 9 11 L 7 11 L 7 12 L 3 12 L 3 11 L 2 11 z M 7.5 11.5 L 8.5 11.5 L 8.5 12 A .5 .5 0 0 0 9 12.5 L 12.9 12.5 C 12.3 13 10.93 13.5 8 13.5 C 5.07 13.5 3.7 13 3.1 12.5 L 7 12.5 A .5 .5 0 0 0 7.5 12 L 7.5 11.5 z " fill="currentColor" opacity=".6" transform="matrix(1.5,0,0,1.5,-3.45e-5,.47)"/>
</g></g><use href="#uo8" opacity=".4"></use><use class="toggle-flat-design" fill="url(#uo6)" href="#uo8" opacity=".1"></use><path class="toggle-flat-design" d="M 14,8 C 12,8 12,9 10,9 H 4 C 2.9,9 2,9.9 2,11 v 15 c 0,1.1 .9,2 2,2 h 24 c 1.1,0 2,-.9 2,-2 V 11 10 C 30,8.9 29.1,8 28,8 Z" fill="url(#uo5)" opacity=".2"/><path class="folder-crease " d="m 2,22 v 1 H 6.5 C 6.8,23 7,22.8 7,22.5 7,22.2 6.8,22 6.5,22 Z m 23.5,0 c -.3,0 -0.5,.2 -0.5,0.5 0,.3 .2,0.5 0.5,0.5 H 30 v -1 z" opacity=".4"/><path class="ColorScheme-Text" d="m 2,25 v 1 c 0,1.1 .9,2 2,2 h 24 c 1.1,0 2,-.9 2,-2 v -1 c 0,1.1 -.9,2 -2,2 H 4 C 2.9,27 2,26.1 2,25 Z" fill="currentColor" opacity=".1"/><path class="ColorScheme-Text" d="M 2,25.5 V 26 c 0,1.1 .9,2 2,2 h 24 c 1.1,0 2,-.9 2,-2 v -0.5 c 0,1.1 -.9,2 -2,2 H 4 c -1.1,0 -2,-.9 -2,-2 z" fill="currentColor" opacity=".2"/><path d="M 14,8 C 12,8 12,9 10,9 H 4 C 2.9,9 2,9.9 2,11 v 0.5 c 0,-1.1 .9,-2 2,-2 h 6 c 2,0 2,-1 4,-1 h 14 c 1.1,0 2,.9 2,2 V 10 C 30,8.9 29.1,8 28,8 Z" fill="#fff" opacity=".2"/><path d="M 14,8 C 12,8 12,9 10,9 H 4 C 2.9,9 2,9.9 2,11 v 1 c 0,-1.1 .9,-2 2,-2 h 6 c 2,0 2,-1 4,-1 h 14 c 1.1,0 2,.9 2,2 V 10 C 30,8.9 29.1,8 28,8 Z" fill="#fff" opacity=".1"/><path d="m 14,7.5 c -2,0 -2,1 -4,1 H 4 C 3.63,8.5 3.3,8.6 3,8.77 v 0.5 C 3.3,9.1 3.63,9 4,9 h 6 c 2,0 2,-1 4,-1 h 14 c .37,0 .7,.1 1,.27 v -0.5 C 28.7,7.6 28.37,7.5 28,7.5 Z" opacity=".2"/><path d="M 14,7 C 12,7 12,8 10,8 H 4 C 3.63,8 3.3,8.1 3,8.27 v 1 C 3.3,9.1 3.63,9 4,9 h 6 c 2,0 2,-1 4,-1 h 14 c .37,0 .7,.1 1,.27 v -1 C 28.7,7.1 28.37,7 28,7 Z" opacity=".1"/></g>
</svg>