<svg height="32" version="1.1" width="32" xmlns="http://www.w3.org/2000/svg" xmlns:svg="http://www.w3.org/2000/svg" xmlns:xlink="http://www.w3.org/1999/xlink">
<defs id="primary-definitions">
<style id="current-color-scheme" type="text/css">
      .ColorScheme-Text           { color:#fff; }
      .ColorScheme-Background     { color:#111; }
      .ColorScheme-Highlight      { color:#3daefd; }
      .ColorScheme-ViewBackground { color:#000; }
      .ColorScheme-PositiveText   { color:#27ae60; }
      .ColorScheme-NeutralText    { color:#f67400; }
      .ColorScheme-NegativeText   { color:#da4453; }
    </style>
<style id="extended-color-scheme" type="text/css">
      .ExScheme-Black     { color:#3e3e3e; }
      .ExScheme-White     { color:#fcfcfc; }
      .ExScheme-Grey-1    { color:#cfd5d5; }
      .ExScheme-Grey-2    { color:#909c9c; }
      .ExScheme-Grey-3    { color:#536161; }
      .ExScheme-Red-1     { color:#ffafa5; }
      .ExScheme-Red-2     { color:#bf4231; }
      .ExScheme-Red-3     { color:#4d2f2b; }
      .ExScheme-Green-1   { color:#abf9c7; }
      .ExScheme-Green-2   { color:#3bb566; }
      .ExScheme-Green-3   { color:#377d50; }
      .ExScheme-Blue-1    { color:#abdaf9; }
      .ExScheme-Blue-2    { color:#3daefd; }
      .ExScheme-Blue-3    { color:#2b3c4d; }
      .ExScheme-Yellow-1  { color:#faffa5; }
      .ExScheme-Yellow-2  { color:#cac726; }
      .ExScheme-Yellow-3  { color:#4b4d2b; }
      .ExScheme-Orange-1  { color:#ffdaa5; }
      .ExScheme-Orange-2  { color:#ff9701; }
      .ExScheme-Orange-3  { color:#4d372b; }
      .ExScheme-Brown-1   { color:#e9d6bb; }
      .ExScheme-Brown-2   { color:#997657; }
      .ExScheme-Brown-3   { color:#433a35; }
      .ExScheme-Purple-1  { color:#e2abf9; }
      .ExScheme-Purple-2  { color:#b401ff; }
      .ExScheme-Purple-3  { color:#432b4d; }
      .ExScheme-Cyan-1    { color:#b2f2e6; }
      .ExScheme-Cyan-2    { color:#31bfa6; }
      .ExScheme-Cyan-3    { color:#2b4d47; }
      .ExScheme-Magenta-1 { color:#f8a6d8; }
      .ExScheme-Magenta-2 { color:#f00091; }
      .ExScheme-Magenta-3 { color:#770048; }
    </style>
<linearGradient id="u74">
<stop offset="0"/>
<stop offset="1" stop-opacity="0"/>
</linearGradient>
<linearGradient id="u75">
<stop offset="0" stop-color="#fff"/>
<stop offset="1" stop-color="#fff" stop-opacity="0"/>
</linearGradient>
<style class="toggle-enable-crease" type="text/css">
        .folder-crease { display: none; }
    </style><style class="toggle-manilla-folders" type="text/css">
        .folder-manilla { display: none; }
    </style><radialGradient cx=".5" cy="0" id="u76" r="1" xlink:href="#u75"/><linearGradient id="u77" xlink:href="#u74" y1="1" y2=".5"/><path d="M 5,4 C 3.9,4 3,4.9 3,6 V 9.27 C 2.4,9.6 2,10.26 2,11 v 15 c 0,1.1 .9,2 2,2 h 24 c 1.1,0 2,-.9 2,-2 V 11 10 C 30,9.26 29.6,8.6 29,8.27 V 7 C 29,5.9 28.1,5 27,5 H 14 C 12,5 12,4 10,4 Z" id="u78"></path><path d="M 5,4 C 3.9,4 3,4.9 3,6 V 9.27 C 3.3,9.1 3.63,9 4,9 h 6 c 2,0 2,-1 4,-1 h 14 c .37,0 .7,.1 1,.27 V 7 C 29,5.9 28.1,5 27,5 H 14 C 12,5 12,4 10,4 Z" id="u79"></path></defs>
<g id="content" transform="translate(0,0)"><use class="folder-manilla ExScheme-Brown-1" fill="currentColor" href="#u78"></use><use class="toggle-manilla-folders ColorScheme-Highlight" fill="#3ddc84" href="#u78" id="primary-color"></use><use class="ColorScheme-Text" fill="currentColor" href="#u78" opacity=".1"></use><g id="emblem" transform="translate(8,10)"><path class="ColorScheme-Background" d="M 8 4 A 7 7 0 0 0 2.9 6.2 L 1.35 4.65 A 0.5 0.5 0 0 0 1 4.5 A 0.5 0.5 0 0 0 .65 4.65 A 0.5 0.5 0 0 0 .65 5.35 L 2.3 7 A 7 7 0 0 0 1 11 L 1 12 C 1 12.55 1.45 13 2 13 L 14 13 C 14.55 13 15 12.55 15 12 L 15 11 A 7 7 0 0 0 13.73 7 L 15.35 5.35 A 0.5 0.5 0 0 0 15.35 4.65 A 0.5 0.5 0 0 0 14.65 4.65 L 13.1 6.2 A 7 7 0 0 0 8 4 z M 5 8 A 1 1 0 0 1 6 9 A 1 1 0 0 1 5 10 A 1 1 0 0 1 4 9 A 1 1 0 0 1 5 8 z M 11 8 A 1 1 0 0 1 12 9 A 1 1 0 0 1 11 10 A 1 1 0 0 1 10 9 A 1 1 0 0 1 11 8 z " fill="currentColor" opacity=".6" stop-color="#000000"/><path class="ColorScheme-Background" d="M 8 4 A 7 7 0 0 0 2.9 6.2 L 1.35 4.65 A 0.5 0.5 0 0 0 1 4.5 A 0.5 0.5 0 0 0 .65 4.65 A 0.5 0.5 0 0 0 .65 5.35 L 2.3 7 A 7 7 0 0 0 1 11 L 1 12 C 1 12.55 1.45 13 2 13 L 14 13 C 14.55 13 15 12.55 15 12 L 15 11 A 7 7 0 0 0 13.73 7 L 15.35 5.35 A 0.5 0.5 0 0 0 15.35 4.65 A 0.5 0.5 0 0 0 14.65 4.65 L 13.1 6.2 A 7 7 0 0 0 8 4 z M 8 4.5 L 8 4.5 C 9.8 4.5 11.5 5.24 12.73 6.54 A .5 .5 0 0 0 13.45 6.55 L 13.4 6.6 A .5 .5 0 0 0 13.3 7.27 C 14.1 8.36 14.5 9.66 14.5 11 L 14.5 12 C 14.5 12.3 14.3 12.5 14 12.5 L 2 12.5 C 1.7 12.5 1.5 12.3 1.5 12 L 1.5 11 L 1.5 11 C 1.5 9.67 1.9 8.37 2.7 7.3 A .5 .5 0 0 0 2.63 6.63 L 2.56 6.56 A .5 .5 0 0 0 3.3 6.55 C 4.5 5.25 6.2 4.5 8 4.5 z M 5 7.5 C 4.2 7.5 3.5 8.2 3.5 9 C 3.5 9.8 4.2 10.5 5 10.5 C 5.8 10.5 6.5 9.8 6.5 9 C 6.5 8.2 5.8 7.5 5 7.5 z M 11 7.5 C 10.2 7.5 9.5 8.2 9.5 9 C 9.5 9.8 10.2 10.5 11 10.5 C 11.8 10.5 12.5 9.8 12.5 9 C 12.5 8.2 11.8 7.5 11 7.5 z M 5 8 A 1 1 0 0 1 6 9 A 1 1 0 0 1 5 10 A 1 1 0 0 1 4 9 A 1 1 0 0 1 5 8 z M 11 8 A 1 1 0 0 1 12 9 A 1 1 0 0 1 11 10 A 1 1 0 0 1 10 9 A 1 1 0 0 1 11 8 z " fill="currentColor" opacity=".6"/></g><use href="#u79" opacity=".4"></use><use class="toggle-flat-design" fill="url(#u77)" href="#u79" opacity=".1"></use><path class="toggle-flat-design" d="M 14,8 C 12,8 12,9 10,9 H 4 C 2.9,9 2,9.9 2,11 v 15 c 0,1.1 .9,2 2,2 h 24 c 1.1,0 2,-.9 2,-2 V 11 10 C 30,8.9 29.1,8 28,8 Z" fill="url(#u76)" opacity=".2"/><path class="folder-crease " d="m 2,22 v 1 H 6.5 C 6.8,23 7,22.8 7,22.5 7,22.2 6.8,22 6.5,22 Z m 23.5,0 c -.3,0 -0.5,.2 -0.5,0.5 0,.3 .2,0.5 0.5,0.5 H 30 v -1 z" opacity=".4"/><path class="ColorScheme-Text" d="m 2,25 v 1 c 0,1.1 .9,2 2,2 h 24 c 1.1,0 2,-.9 2,-2 v -1 c 0,1.1 -.9,2 -2,2 H 4 C 2.9,27 2,26.1 2,25 Z" fill="currentColor" opacity=".1"/><path class="ColorScheme-Text" d="M 2,25.5 V 26 c 0,1.1 .9,2 2,2 h 24 c 1.1,0 2,-.9 2,-2 v -0.5 c 0,1.1 -.9,2 -2,2 H 4 c -1.1,0 -2,-.9 -2,-2 z" fill="currentColor" opacity=".2"/><path d="M 14,8 C 12,8 12,9 10,9 H 4 C 2.9,9 2,9.9 2,11 v 0.5 c 0,-1.1 .9,-2 2,-2 h 6 c 2,0 2,-1 4,-1 h 14 c 1.1,0 2,.9 2,2 V 10 C 30,8.9 29.1,8 28,8 Z" fill="#fff" opacity=".2"/><path d="M 14,8 C 12,8 12,9 10,9 H 4 C 2.9,9 2,9.9 2,11 v 1 c 0,-1.1 .9,-2 2,-2 h 6 c 2,0 2,-1 4,-1 h 14 c 1.1,0 2,.9 2,2 V 10 C 30,8.9 29.1,8 28,8 Z" fill="#fff" opacity=".1"/><path d="m 14,7.5 c -2,0 -2,1 -4,1 H 4 C 3.63,8.5 3.3,8.6 3,8.77 v 0.5 C 3.3,9.1 3.63,9 4,9 h 6 c 2,0 2,-1 4,-1 h 14 c .37,0 .7,.1 1,.27 v -0.5 C 28.7,7.6 28.37,7.5 28,7.5 Z" opacity=".2"/><path d="M 14,7 C 12,7 12,8 10,8 H 4 C 3.63,8 3.3,8.1 3,8.27 v 1 C 3.3,9.1 3.63,9 4,9 h 6 c 2,0 2,-1 4,-1 h 14 c .37,0 .7,.1 1,.27 v -1 C 28.7,7.1 28.37,7 28,7 Z" opacity=".1"/></g>
</svg>