<svg height="32" version="1.1" width="32" xmlns="http://www.w3.org/2000/svg" xmlns:svg="http://www.w3.org/2000/svg" xmlns:xlink="http://www.w3.org/1999/xlink">
<defs id="primary-definitions">
<style id="current-color-scheme" type="text/css">
      .ColorScheme-Text           { color:#fff; }
      .ColorScheme-Background     { color:#111; }
      .ColorScheme-Highlight      { color:#3daefd; }
      .ColorScheme-ViewBackground { color:#000; }
      .ColorScheme-PositiveText   { color:#27ae60; }
      .ColorScheme-NeutralText    { color:#f67400; }
      .ColorScheme-NegativeText   { color:#da4453; }
    </style>
<style id="extended-color-scheme" type="text/css">
      .ExScheme-Black     { color:#3e3e3e; }
      .ExScheme-White     { color:#fcfcfc; }
      .ExScheme-Grey-1    { color:#cfd5d5; }
      .ExScheme-Grey-2    { color:#909c9c; }
      .ExScheme-Grey-3    { color:#536161; }
      .ExScheme-Red-1     { color:#ffafa5; }
      .ExScheme-Red-2     { color:#bf4231; }
      .ExScheme-Red-3     { color:#4d2f2b; }
      .ExScheme-Green-1   { color:#abf9c7; }
      .ExScheme-Green-2   { color:#3bb566; }
      .ExScheme-Green-3   { color:#377d50; }
      .ExScheme-Blue-1    { color:#abdaf9; }
      .ExScheme-Blue-2    { color:#3daefd; }
      .ExScheme-Blue-3    { color:#2b3c4d; }
      .ExScheme-Yellow-1  { color:#faffa5; }
      .ExScheme-Yellow-2  { color:#cac726; }
      .ExScheme-Yellow-3  { color:#4b4d2b; }
      .ExScheme-Orange-1  { color:#ffdaa5; }
      .ExScheme-Orange-2  { color:#ff9701; }
      .ExScheme-Orange-3  { color:#4d372b; }
      .ExScheme-Brown-1   { color:#e9d6bb; }
      .ExScheme-Brown-2   { color:#997657; }
      .ExScheme-Brown-3   { color:#433a35; }
      .ExScheme-Purple-1  { color:#e2abf9; }
      .ExScheme-Purple-2  { color:#b401ff; }
      .ExScheme-Purple-3  { color:#432b4d; }
      .ExScheme-Cyan-1    { color:#b2f2e6; }
      .ExScheme-Cyan-2    { color:#31bfa6; }
      .ExScheme-Cyan-3    { color:#2b4d47; }
      .ExScheme-Magenta-1 { color:#f8a6d8; }
      .ExScheme-Magenta-2 { color:#f00091; }
      .ExScheme-Magenta-3 { color:#770048; }
    </style>
<linearGradient id="ukz">
<stop offset="0"/>
<stop offset="1" stop-opacity="0"/>
</linearGradient>
<linearGradient id="ukA">
<stop offset="0" stop-color="#fff"/>
<stop offset="1" stop-color="#fff" stop-opacity="0"/>
</linearGradient>
<style class="toggle-enable-crease" type="text/css">
        .folder-crease { display: none; }
    </style><style class="toggle-manilla-folders" type="text/css">
        .folder-manilla { display: none; }
    </style><radialGradient cx=".5" cy="0" id="ukB" r="1" xlink:href="#ukA"/><linearGradient id="ukC" xlink:href="#ukz" y1="1" y2=".5"/><path d="M 5,4 C 3.9,4 3,4.9 3,6 V 9.27 C 2.4,9.6 2,10.26 2,11 v 15 c 0,1.1 .9,2 2,2 h 24 c 1.1,0 2,-.9 2,-2 V 11 10 C 30,9.26 29.6,8.6 29,8.27 V 7 C 29,5.9 28.1,5 27,5 H 14 C 12,5 12,4 10,4 Z" id="ukD"></path><path d="M 5,4 C 3.9,4 3,4.9 3,6 V 9.27 C 3.3,9.1 3.63,9 4,9 h 6 c 2,0 2,-1 4,-1 h 14 c .37,0 .7,.1 1,.27 V 7 C 29,5.9 28.1,5 27,5 H 14 C 12,5 12,4 10,4 Z" id="ukE"></path></defs>
<g id="content" transform="translate(0,0)"><use class="folder-manilla ExScheme-Brown-1" fill="currentColor" href="#ukD"></use><use class="toggle-manilla-folders ColorScheme-Highlight" fill="currentColor" href="#ukD" id="primary-color"></use><use class="ColorScheme-Text" fill="currentColor" href="#ukD" opacity=".1"></use><g id="panorama" transform="translate(2,8)"><path class="ColorScheme-Background" d="M 6 4 C 4.9 4 4 4.9 4 6 L 4 20 L 5 20 L 5 6 C 5 5.45 5.45 5 6 5 L 17 5 L 17 10.5 C 17 10.8 17.2 11 17.5 11 L 23 11 L 23 20 L 24 20 L 24 11 L 17 4 L 6 4 z M 6.47 7 C 6.2 7 6 7.2 6 7.47 L 6 7.53 C 6 7.8 6.2 8 6.47 8 L 12.53 8 C 12.8 8 13 7.8 13 7.53 L 13 7.47 C 13 7.2 12.8 7 12.53 7 L 6.47 7 z M 6.5 9 C 6.2 9 6 9.2 6 9.5 L 6 14.5 C 6 14.8 6.2 15 6.5 15 L 14.5 15 C 14.8 15 15 14.8 15 14.5 L 15 9.5 C 15 9.2 14.8 9 14.5 9 L 6.5 9 z M 7 10 L 14 10 L 14 13 L 12 11 L 10.1 12.9 L 9 12 L 7 14 L 7 10 z M 8.5 11 A 0.5 0.5 0 0 0 8 11.5 A 0.5 0.5 0 0 0 8.5 12 A 0.5 0.5 0 0 0 9 11.5 A 0.5 0.5 0 0 0 8.5 11 z M 16.5 12 C 16.2 12 16 12.2 16 12.5 C 16 12.8 16.2 13 16.5 13 L 20.5 13 C 20.8 13 21 12.8 21 12.5 C 21 12.2 20.8 12 20.5 12 L 16.5 12 z M 16.5 14 C 16.2 14 16 14.2 16 14.5 C 16 14.8 16.2 15 16.5 15 L 21.5 15 C 21.8 15 22 14.8 22 14.5 C 22 14.2 21.8 14 21.5 14 L 16.5 14 z M 6.5 16 C 6.2 16 6 16.2 6 16.5 C 6 16.8 6.2 17 6.5 17 L 19.5 17 C 19.8 17 20 16.8 20 16.5 C 20 16.2 19.8 16 19.5 16 L 6.5 16 z M 6.5 18 C 6.2 18 6 18.2 6 18.5 C 6 18.8 6.2 19 6.5 19 L 15.5 19 C 15.8 19 16 18.8 16 18.5 C 16 18.2 15.8 18 15.5 18 L 6.5 18 z " fill="currentColor" opacity=".6"/><path class="ColorScheme-Background" d="M 6 4 C 4.9 4 4 4.9 4 6 L 4 20 L 5 20 L 5 6 C 5 5.45 5.45 5 6 5 L 17 5 L 17 10.5 C 17 10.8 17.2 11 17.5 11 L 23 11 L 23 20 L 24 20 L 24 11 L 17 4 L 6 4 z M 5.85 4.5 C 5.15 4.6 4.6 5.15 4.5 5.85 C 4.6 5.13 5.13 4.6 5.85 4.5 z M 17.5 5.2 L 22.8 10.5 L 17.5 10.5 L 17.5 5.2 z M 6.47 7 C 6.2 7 6 7.2 6 7.47 L 6 7.53 C 6 7.8 6.2 8 6.47 8 L 12.53 8 C 12.8 8 13 7.8 13 7.53 L 13 7.47 C 13 7.2 12.8 7 12.53 7 L 6.47 7 z M 6.5 9 C 6.2 9 6 9.2 6 9.5 L 6 14.5 C 6 14.8 6.2 15 6.5 15 L 14.5 15 C 14.8 15 15 14.8 15 14.5 L 15 9.5 C 15 9.2 14.8 9 14.5 9 L 6.5 9 z M 7 10 L 14 10 L 14 13 L 12 11 L 10.1 12.9 L 9 12 L 7 14 L 7 10 z M 8.5 11 A 0.5 0.5 0 0 0 8 11.5 A 0.5 0.5 0 0 0 8.5 12 A 0.5 0.5 0 0 0 9 11.5 A 0.5 0.5 0 0 0 8.5 11 z M 12 11.7 L 14.5 14.2 L 14.5 14.5 L 7.2 14.5 L 9.04 12.67 L 10.15 13.56 L 12 11.7 z M 16.5 12 C 16.2 12 16 12.2 16 12.5 C 16 12.8 16.2 13 16.5 13 L 20.5 13 C 20.8 13 21 12.8 21 12.5 C 21 12.2 20.8 12 20.5 12 L 16.5 12 z M 16.5 14 C 16.2 14 16 14.2 16 14.5 C 16 14.8 16.2 15 16.5 15 L 21.5 15 C 21.8 15 22 14.8 22 14.5 C 22 14.2 21.8 14 21.5 14 L 16.5 14 z M 6.5 16 C 6.2 16 6 16.2 6 16.5 C 6 16.8 6.2 17 6.5 17 L 19.5 17 C 19.8 17 20 16.8 20 16.5 C 20 16.2 19.8 16 19.5 16 L 6.5 16 z M 6.5 18 C 6.2 18 6 18.2 6 18.5 C 6 18.8 6.2 19 6.5 19 L 15.5 19 C 15.8 19 16 18.8 16 18.5 C 16 18.2 15.8 18 15.5 18 L 6.5 18 z " fill="currentColor" opacity=".6"/></g><use href="#ukE" opacity=".4"></use><use class="toggle-flat-design" fill="url(#ukC)" href="#ukE" opacity=".1"></use><path class="toggle-flat-design" d="M 14,8 C 12,8 12,9 10,9 H 4 C 2.9,9 2,9.9 2,11 v 15 c 0,1.1 .9,2 2,2 h 24 c 1.1,0 2,-.9 2,-2 V 11 10 C 30,8.9 29.1,8 28,8 Z" fill="url(#ukB)" opacity=".2"/><path class="folder-crease " d="m 2,22 v 1 H 3 C 3.3,23 3.5,22.8 3.5,22.5 3.5,22.2 3.3,22 3,22 Z m 27,0 c -.3,0 -0.5,.2 -0.5,0.5 0,.3 .2,0.5 0.5,0.5 h 1 v -1 z" opacity=".4"/><path class="ColorScheme-Text" d="m 2,25 v 1 c 0,1.1 .9,2 2,2 h 24 c 1.1,0 2,-.9 2,-2 v -1 c 0,1.1 -.9,2 -2,2 H 4 C 2.9,27 2,26.1 2,25 Z" fill="currentColor" opacity=".1"/><path class="ColorScheme-Text" d="M 2,25.5 V 26 c 0,1.1 .9,2 2,2 h 24 c 1.1,0 2,-.9 2,-2 v -0.5 c 0,1.1 -.9,2 -2,2 H 4 c -1.1,0 -2,-.9 -2,-2 z" fill="currentColor" opacity=".2"/><path d="M 14,8 C 12,8 12,9 10,9 H 4 C 2.9,9 2,9.9 2,11 v 0.5 c 0,-1.1 .9,-2 2,-2 h 6 c 2,0 2,-1 4,-1 h 14 c 1.1,0 2,.9 2,2 V 10 C 30,8.9 29.1,8 28,8 Z" fill="#fff" opacity=".2"/><path d="M 14,8 C 12,8 12,9 10,9 H 4 C 2.9,9 2,9.9 2,11 v 1 c 0,-1.1 .9,-2 2,-2 h 6 c 2,0 2,-1 4,-1 h 14 c 1.1,0 2,.9 2,2 V 10 C 30,8.9 29.1,8 28,8 Z" fill="#fff" opacity=".1"/><path d="m 14,7.5 c -2,0 -2,1 -4,1 H 4 C 3.63,8.5 3.3,8.6 3,8.77 v 0.5 C 3.3,9.1 3.63,9 4,9 h 6 c 2,0 2,-1 4,-1 h 14 c .37,0 .7,.1 1,.27 v -0.5 C 28.7,7.6 28.37,7.5 28,7.5 Z" opacity=".2"/><path d="M 14,7 C 12,7 12,8 10,8 H 4 C 3.63,8 3.3,8.1 3,8.27 v 1 C 3.3,9.1 3.63,9 4,9 h 6 c 2,0 2,-1 4,-1 h 14 c .37,0 .7,.1 1,.27 v -1 C 28.7,7.1 28.37,7 28,7 Z" opacity=".1"/></g>
</svg>