<svg height="32" version="1.1" width="32" xmlns="http://www.w3.org/2000/svg" xmlns:svg="http://www.w3.org/2000/svg" xmlns:xlink="http://www.w3.org/1999/xlink">
<defs id="primary-definitions">
<style id="current-color-scheme" type="text/css">
      .ColorScheme-Text           { color:#fff; }
      .ColorScheme-Background     { color:#111; }
      .ColorScheme-Highlight      { color:#3daefd; }
      .ColorScheme-ViewBackground { color:#000; }
      .ColorScheme-PositiveText   { color:#27ae60; }
      .ColorScheme-NeutralText    { color:#f67400; }
      .ColorScheme-NegativeText   { color:#da4453; }
    </style>
<style id="extended-color-scheme" type="text/css">
      .ExScheme-Black     { color:#3e3e3e; }
      .ExScheme-White     { color:#fcfcfc; }
      .ExScheme-Grey-1    { color:#cfd5d5; }
      .ExScheme-Grey-2    { color:#909c9c; }
      .ExScheme-Grey-3    { color:#536161; }
      .ExScheme-Red-1     { color:#ffafa5; }
      .ExScheme-Red-2     { color:#bf4231; }
      .ExScheme-Red-3     { color:#4d2f2b; }
      .ExScheme-Green-1   { color:#abf9c7; }
      .ExScheme-Green-2   { color:#3bb566; }
      .ExScheme-Green-3   { color:#377d50; }
      .ExScheme-Blue-1    { color:#abdaf9; }
      .ExScheme-Blue-2    { color:#3daefd; }
      .ExScheme-Blue-3    { color:#2b3c4d; }
      .ExScheme-Yellow-1  { color:#faffa5; }
      .ExScheme-Yellow-2  { color:#cac726; }
      .ExScheme-Yellow-3  { color:#4b4d2b; }
      .ExScheme-Orange-1  { color:#ffdaa5; }
      .ExScheme-Orange-2  { color:#ff9701; }
      .ExScheme-Orange-3  { color:#4d372b; }
      .ExScheme-Brown-1   { color:#e9d6bb; }
      .ExScheme-Brown-2   { color:#997657; }
      .ExScheme-Brown-3   { color:#433a35; }
      .ExScheme-Purple-1  { color:#e2abf9; }
      .ExScheme-Purple-2  { color:#b401ff; }
      .ExScheme-Purple-3  { color:#432b4d; }
      .ExScheme-Cyan-1    { color:#b2f2e6; }
      .ExScheme-Cyan-2    { color:#31bfa6; }
      .ExScheme-Cyan-3    { color:#2b4d47; }
      .ExScheme-Magenta-1 { color:#f8a6d8; }
      .ExScheme-Magenta-2 { color:#f00091; }
      .ExScheme-Magenta-3 { color:#770048; }
    </style>
<linearGradient id="ujZ">
<stop offset="0"/>
<stop offset="1" stop-opacity="0"/>
</linearGradient>
<linearGradient id="uk0">
<stop offset="0" stop-color="#fff"/>
<stop offset="1" stop-color="#fff" stop-opacity="0"/>
</linearGradient>
<style class="toggle-enable-crease" type="text/css">
        .folder-crease { display: none; }
    </style><style class="toggle-manilla-folders" type="text/css">
        .folder-manilla { display: none; }
    </style><radialGradient cx=".5" cy="0" id="uk1" r="1" xlink:href="#uk0"/><linearGradient id="uk2" xlink:href="#ujZ" y1="1" y2=".5"/><path d="M 5,4 C 3.9,4 3,4.9 3,6 V 9.27 C 2.4,9.6 2,10.26 2,11 v 15 c 0,1.1 .9,2 2,2 h 24 c 1.1,0 2,-.9 2,-2 V 11 10 C 30,9.26 29.6,8.6 29,8.27 V 7 C 29,5.9 28.1,5 27,5 H 14 C 12,5 12,4 10,4 Z" id="uk3"></path><path d="M 5,4 C 3.9,4 3,4.9 3,6 V 9.27 C 3.3,9.1 3.63,9 4,9 h 6 c 2,0 2,-1 4,-1 h 14 c .37,0 .7,.1 1,.27 V 7 C 29,5.9 28.1,5 27,5 H 14 C 12,5 12,4 10,4 Z" id="uk4"></path></defs>
<g id="content" transform="translate(0,0)"><use class="folder-manilla ExScheme-Brown-1" fill="currentColor" href="#uk3"></use><use class="toggle-manilla-folders ColorScheme-Highlight" fill="currentColor" href="#uk3" id="primary-color"></use><use class="ColorScheme-Text" fill="currentColor" href="#uk3" opacity=".1"></use><g id="panorama" transform="translate(2,8)"><path class="ColorScheme-Background" d="M 11 0 L 11 8 L 9.5 8 C 8.6 8 8.16 9.1 8.8 9.7 L 14 15 L 19.2 9.7 C 19.84 9.1 19.4 8 18.5 8 L 17 8 L 17 0 L 11 0 z M 8 14 C 7.7 14 7.4 14.06 7.3 14.3 L 6 17 L 6 18 C 6 18.57 6.45 19 7 19 L 21 19 C 21.55 19 22 18.6 22 18 L 22 17 L 20.7 14.3 C 20.6 14.06 20.3 14 20 14 L 16.4 14 L 14.7 15.7 A 1 1 0 0 1 13.3 15.7 L 11.6 14 L 8 14 z " fill="currentColor" opacity=".6"/><path class="ColorScheme-Background" d="M 11 0 L 11 8 L 9.5 8 C 8.6 8 8.16 9.1 8.8 9.7 L 14 15 L 19.2 9.7 C 19.84 9.1 19.4 8 18.5 8 L 17 8 L 17 0 L 11 0 z M 11.5 0.5 L 16.5 0.5 L 16.5 8 A .5 .5 0 0 0 17 8.5 L 18.5 8.5 C 18.74 8.5 18.9 8.63 18.96 8.8 C 19.04 9 19.03 9.2 18.85 9.35 A .5 .5 0 0 0 18.85 9.36 L 14 14.3 L 9.15 9.36 A .5 .5 0 0 0 9.15 9.35 C 8.97 9.2 8.96 9 9.04 8.8 C 9.1 8.63 9.26 8.5 9.5 8.5 L 11 8.5 A .5 .5 0 0 0 11.5 8 L 11.5 0.5 z M 8 14 C 7.7 14 7.4 14.06 7.3 14.3 L 6 17 L 6 18 C 6 18.57 6.45 19 7 19 L 21 19 C 21.55 19 22 18.6 22 18 L 22 17 L 20.7 14.3 C 20.6 14.06 20.3 14 20 14 L 16.4 14 L 14.7 15.7 A 1 1 0 0 1 13.3 15.7 L 11.6 14 L 8 14 z M 8 14.5 L 11.4 14.5 L 12.94 16.06 C 13.5 16.64 14.5 16.64 15.06 16.06 L 16.6 14.5 L 20 14.5 C 20.1 14.5 20.2 14.5 20.25 14.53 C 20.27 14.54 20.27 14.54 20.27 14.54 L 21.5 17.1 L 21.5 18 C 21.5 18.35 21.3 18.5 21 18.5 L 7 18.5 C 6.7 18.5 6.5 18.3 6.5 18 L 6.5 17.1 L 7.73 14.54 C 7.73 14.54 7.73 14.54 7.75 14.53 C 7.8 14.5 7.9 14.5 8 14.5 z " fill="currentColor" opacity=".6"/></g><use href="#uk4" opacity=".4"></use><use class="toggle-flat-design" fill="url(#uk2)" href="#uk4" opacity=".1"></use><path class="toggle-flat-design" d="M 14,8 C 12,8 12,9 10,9 H 4 C 2.9,9 2,9.9 2,11 v 15 c 0,1.1 .9,2 2,2 h 24 c 1.1,0 2,-.9 2,-2 V 11 10 C 30,8.9 29.1,8 28,8 Z" fill="url(#uk1)" opacity=".2"/><path class="folder-crease " d="m 2,22 v 1 H 3 C 3.3,23 3.5,22.8 3.5,22.5 3.5,22.2 3.3,22 3,22 Z m 27,0 c -.3,0 -0.5,.2 -0.5,0.5 0,.3 .2,0.5 0.5,0.5 h 1 v -1 z" opacity=".4"/><path class="ColorScheme-Text" d="m 2,25 v 1 c 0,1.1 .9,2 2,2 h 24 c 1.1,0 2,-.9 2,-2 v -1 c 0,1.1 -.9,2 -2,2 H 4 C 2.9,27 2,26.1 2,25 Z" fill="currentColor" opacity=".1"/><path class="ColorScheme-Text" d="M 2,25.5 V 26 c 0,1.1 .9,2 2,2 h 24 c 1.1,0 2,-.9 2,-2 v -0.5 c 0,1.1 -.9,2 -2,2 H 4 c -1.1,0 -2,-.9 -2,-2 z" fill="currentColor" opacity=".2"/><path d="M 14,8 C 12,8 12,9 10,9 H 4 C 2.9,9 2,9.9 2,11 v 0.5 c 0,-1.1 .9,-2 2,-2 h 6 c 2,0 2,-1 4,-1 h 14 c 1.1,0 2,.9 2,2 V 10 C 30,8.9 29.1,8 28,8 Z" fill="#fff" opacity=".2"/><path d="M 14,8 C 12,8 12,9 10,9 H 4 C 2.9,9 2,9.9 2,11 v 1 c 0,-1.1 .9,-2 2,-2 h 6 c 2,0 2,-1 4,-1 h 14 c 1.1,0 2,.9 2,2 V 10 C 30,8.9 29.1,8 28,8 Z" fill="#fff" opacity=".1"/><path d="m 14,7.5 c -2,0 -2,1 -4,1 H 4 C 3.63,8.5 3.3,8.6 3,8.77 v 0.5 C 3.3,9.1 3.63,9 4,9 h 6 c 2,0 2,-1 4,-1 h 14 c .37,0 .7,.1 1,.27 v -0.5 C 28.7,7.6 28.37,7.5 28,7.5 Z" opacity=".2"/><path d="M 14,7 C 12,7 12,8 10,8 H 4 C 3.63,8 3.3,8.1 3,8.27 v 1 C 3.3,9.1 3.63,9 4,9 h 6 c 2,0 2,-1 4,-1 h 14 c .37,0 .7,.1 1,.27 v -1 C 28.7,7.1 28.37,7 28,7 Z" opacity=".1"/></g>
</svg>