<?xml version="1.0" encoding="utf-8"?><svg height="32" width="32" xmlns="http://www.w3.org/2000/svg" xmlns:svg="http://www.w3.org/2000/svg" xmlns:xlink="http://www.w3.org/1999/xlink"><defs id="primary-definitions"><style id="current-color-scheme" type="text/css">.ColorScheme-Text           { color:#fff; }
      .ColorScheme-Background     { color:#111; }
      .ColorScheme-Highlight      { color:#3daefd; }
      .ColorScheme-ViewBackground { color:#000; }
      .ColorScheme-PositiveText   { color:#27ae60; }
      .ColorScheme-NeutralText    { color:#f67400; }
      .ColorScheme-NegativeText   { color:#da4453; }
  </style><style id="extended-color-scheme" type="text/css">.ExScheme-Black     { color:#3e3e3e; }
      .ExScheme-White     { color:#fcfcfc; }
      .ExScheme-Grey-1    { color:#cfd5d5; }
      .ExScheme-Grey-2    { color:#909c9c; }
      .ExScheme-Grey-3    { color:#536161; }
      .ExScheme-Red-1     { color:#ffafa5; }
      .ExScheme-Red-2     { color:#bf4231; }
      .ExScheme-Red-3     { color:#4d2f2b; }
      .ExScheme-Green-1   { color:#abf9c7; }
      .ExScheme-Green-2   { color:#3bb566; }
      .ExScheme-Green-3   { color:#377d50; }
      .ExScheme-Blue-1    { color:#abdaf9; }
      .ExScheme-Blue-2    { color:#3daefd; }
      .ExScheme-Blue-3    { color:#2b3c4d; }
      .ExScheme-Yellow-1  { color:#faffa5; }
      .ExScheme-Yellow-2  { color:#cac726; }
      .ExScheme-Yellow-3  { color:#4b4d2b; }
      .ExScheme-Orange-1  { color:#ffdaa5; }
      .ExScheme-Orange-2  { color:#ff9701; }
      .ExScheme-Orange-3  { color:#4d372b; }
      .ExScheme-Brown-1   { color:#e9d6bb; }
      .ExScheme-Brown-2   { color:#997657; }
      .ExScheme-Brown-3   { color:#433a35; }
      .ExScheme-Purple-1  { color:#e2abf9; }
      .ExScheme-Purple-2  { color:#b401ff; }
      .ExScheme-Purple-3  { color:#432b4d; }
      .ExScheme-Cyan-1    { color:#b2f2e6; }
      .ExScheme-Cyan-2    { color:#31bfa6; }
      .ExScheme-Cyan-3    { color:#2b4d47; }
      .ExScheme-Magenta-1 { color:#f8a6d8; }
      .ExScheme-Magenta-2 { color:#f00091; }
      .ExScheme-Magenta-3 { color:#770048; }
  </style><linearGradient id="gradientDark"><stop offset="0"/><stop offset="1" stop-opacity="0"/></linearGradient><linearGradient id="gradientLight"><stop offset="0" stop-color="#fff"/><stop offset="1" stop-color="#fff" stop-opacity="0"/></linearGradient><style class="toggle-enable-crease" type="text/css">.folder-crease { display: none; }
  </style><style class="toggle-manilla-folders" type="text/css">.folder-manilla { display: none; }
  </style><radialGradient cx=".5" cy="0" id="gl1" r="1" xlink:href="#gradientLight"/><linearGradient id="gd1" xlink:href="#gradientDark" y1="1" y2=".5"/><path d="M 5,4 C 3.892,4 3,4.892 3,6 V 9.268 C 2.402,9.613 2,10.257 2,11 v 15 c 0,1.108 0.892,2 2,2 h 24 c 1.108,0 2,-0.892 2,-2 V 11 10 C 30,9.257 29.598,8.613 29,8.268 V 7 C 29,5.892 28.108,5 27,5 H 14 C 12,5 12,4 10,4 Z" id="use-path-3j"/><path d="M 5,4 C 3.892,4 3,4.892 3,6 V 9.268 C 3.294,9.098 3.635,9 4,9 h 6 c 2,0 2,-1 4,-1 h 14 c .365,0 0.706,.098 1,.268 V 7 C 29,5.892 28.108,5 27,5 H 14 C 12,5 12,4 10,4 Z" id="use-path-3k"/></defs><g id="content"><use class="folder-manilla ExScheme-Brown-1" fill="currentColor" href="#use-path-3j"/><use class="toggle-manilla-folders ColorScheme-Highlight" fill="currentColor" href="#use-path-3j" id="primary-color"/><use class="ColorScheme-Text" fill="currentColor" href="#use-path-3j" opacity=".1"/><g id="emblem" transform="translate(8,10)"><path class="ColorScheme-Background" d="M 1.5 2 C 1.223 2 1 2.223 1 2.5 C 1 2.777 1.223 3 1.5 3 L 13.5 3 C 13.777 3 14 2.777 14 2.5 C 14 2.223 13.777 2 13.5 2 L 1.5 2 z M 1.5 4 C 1.223 4 1 4.223 1 4.5 C 1 4.777 1.223 5 1.5 5 L 11.5 5 C 11.777 5 12 4.777 12 4.5 C 12 4.223 11.777 4 11.5 4 L 1.5 4 z M 1.5 6 C 1.223 6 1 6.223 1 6.5 C 1 6.777 1.223 7 1.5 7 L 14.5 7 C 14.777 7 15 6.777 15 6.5 C 15 6.223 14.777 6 14.5 6 L 1.5 6 z M 1.475 8 C 1.21 8.013 1 8.232 1 8.5 C 1 8.777 1.223 9 1.5 9 L 8.5 9 C 8.777 9 9 8.777 9 8.5 C 9 8.223 8.777 8 8.5 8 L 1.5 8 C 1.49 8 1.483 8 1.475 8 z M 1.5 10 C 1.223 10 1 10.223 1 10.5 C 1 10.777 1.223 11 1.5 11 L 11.5 11 C 11.777 11 12 10.777 12 10.5 C 12 10.223 11.777 10 11.5 10 L 1.5 10 z M 1.5 12 C 1.223 12 1 12.223 1 12.5 C 1 12.777 1.223 13 1.5 13 L 13.5 13 C 13.777 13 14 12.777 14 12.5 C 14 12.223 13.777 12 13.5 12 L 1.5 12 z " fill="currentColor" opacity=".6" transform="scale(0.25)"/><path class="ColorScheme-Background" d="M 0.375,0.5 C .306,0.5 0.25,.556 0.25,0.625 0.25,.694 .306,0.75 0.375,0.75 h 3 C 3.444,0.75 3.5,.694 3.5,0.625 3.5,.556 3.444,0.5 3.375,0.5 Z m 0,0.5 C .306,1 0.25,1.056 0.25,1.125 0.25,1.194 .306,1.25 0.375,1.25 h 2.5 C 2.944,1.25 3,1.194 3,1.125 3,1.056 2.944,1 2.875,1 Z m 0,0.5 C .306,1.5 0.25,1.556 0.25,1.625 0.25,1.694 .306,1.75 0.375,1.75 h 3.25 C 3.694,1.75 3.75,1.694 3.75,1.625 3.75,1.556 3.694,1.5 3.625,1.5 Z M .37,2 C .302,2.003 0.25,2.058 0.25,2.125 0.25,2.194 .306,2.25 0.375,2.25 h 1.75 C 2.194,2.25 2.25,2.194 2.25,2.125 2.25,2.056 2.194,2 2.125,2 H 0.375 C .373,2 .37,2 .37,2 Z M 0.375,2.5 C .306,2.5 0.25,2.556 0.25,2.625 0.25,2.694 .306,2.75 0.375,2.75 h 2.5 C 2.944,2.75 3,2.694 3,2.625 3,2.556 2.944,2.5 2.875,2.5 Z m 0,0.5 C .306,3 0.25,3.056 0.25,3.125 0.25,3.194 .306,3.25 0.375,3.25 h 3 C 3.444,3.25 3.5,3.194 3.5,3.125 3.5,3.056 3.444,3 3.375,3 Z" fill="currentColor" opacity=".6"/></g><use href="#use-path-3k" opacity=".4"/><use class="toggle-flat-design" fill="url(#gd1)" href="#use-path-3k" opacity=".1"/><path class="toggle-flat-design" d="M 14,8 C 12,8 12,9 10,9 H 4 C 2.892,9 2,9.892 2,11 v 15 c 0,1.108 0.892,2 2,2 h 24 c 1.108,0 2,-0.892 2,-2 V 11 10 C 30,8.892 29.108,8 28,8 Z" fill="url(#gl1)" opacity=".2"/><path class="folder-crease" d="m 2,22 v 1 H 6.5 C 6.777,23 7,22.777 7,22.5 7,22.223 6.777,22 6.5,22 Z m 23.5,0 c -0.277,0 -0.5,0.223 -0.5,0.5 0,0.277 0.223,0.5 0.5,0.5 H 30 v -1 z" opacity=".4"/><path class="ColorScheme-Text" d="m 2,25 v 1 c 0,1.108 0.892,2 2,2 h 24 c 1.108,0 2,-0.892 2,-2 v -1 c 0,1.108 -0.892,2 -2,2 H 4 C 2.892,27 2,26.108 2,25 Z" fill="currentColor" opacity=".1"/><path class="ColorScheme-Text" d="M 2,25.5 V 26 c 0,1.108 0.892,2 2,2 h 24 c 1.108,0 2,-0.892 2,-2 v -0.5 c 0,1.108 -0.892,2 -2,2 H 4 c -1.108,0 -2,-0.892 -2,-2 z" fill="currentColor" opacity=".2"/><path d="M 14,8 C 12,8 12,9 10,9 H 4 C 2.892,9 2,9.892 2,11 v 0.5 c 0,-1.108 0.892,-2 2,-2 h 6 c 2,0 2,-1 4,-1 h 14 c 1.108,0 2,0.892 2,2 V 10 C 30,8.892 29.108,8 28,8 Z" fill="#fff" opacity=".2"/><path d="M 14,8 C 12,8 12,9 10,9 H 4 C 2.892,9 2,9.892 2,11 v 1 c 0,-1.108 0.892,-2 2,-2 h 6 c 2,0 2,-1 4,-1 h 14 c 1.108,0 2,0.892 2,2 V 10 C 30,8.892 29.108,8 28,8 Z" fill="#fff" opacity=".1"/><path d="m 14,7.5 c -2,0 -2,1 -4,1 H 4 C 3.635,8.5 3.294,8.598 3,8.768 v 0.5 C 3.294,9.098 3.635,9 4,9 h 6 c 2,0 2,-1 4,-1 h 14 c .365,0 .706,.098 1,.268 v -0.5 C 28.706,7.598 28.365,7.5 28,7.5 Z" opacity=".2"/><path d="M 14,7 C 12,7 12,8 10,8 H 4 C 3.635,8 3.294,8.098 3,8.268 v 1 C 3.294,9.098 3.635,9 4,9 h 6 c 2,0 2,-1 4,-1 h 14 c .365,0 .706,.098 1,.268 v -1 C 28.706,7.098 28.365,7 28,7 Z" opacity=".1"/></g></svg>