<svg height="32" version="1.1" width="32" xmlns="http://www.w3.org/2000/svg" xmlns:svg="http://www.w3.org/2000/svg" xmlns:xlink="http://www.w3.org/1999/xlink">
<defs id="primary-definitions">
<style id="current-color-scheme" type="text/css">
      .ColorScheme-Text         { color: #232629; }
      .ColorScheme-Background   { color: #eff0f1; }
      .ColorScheme-Highlight    { color: #7ec9f0; }
      .ColorScheme-PositiveText { color: #27ae60; }
      .ColorScheme-NeutralText  { color: #f67400; }
      .ColorScheme-NegativeText { color: #da4453; }
      .ColorScheme-ActiveText   { color: #3daee9; }
      .ColorScheme-Complement   { color: #ffffff; }
      .ColorScheme-Contrast     { color: #000000; }
    </style>
<style id="extended-color-scheme" type="text/css">
      .ExScheme-Black     { color:#3e3e3e; }
      .ExScheme-White     { color:#fcfcfc; }
      .ExScheme-Grey-1    { color:#cfd5d5; }
      .ExScheme-Grey-2    { color:#909c9c; }
      .ExScheme-Grey-3    { color:#536161; }
      .ExScheme-Red-1     { color:#ffafa5; }
      .ExScheme-Red-2     { color:#bf4231; }
      .ExScheme-Red-3     { color:#4d2f2b; }
      .ExScheme-Green-1   { color:#abf9c7; }
      .ExScheme-Green-2   { color:#3bb566; }
      .ExScheme-Green-3   { color:#377d50; }
      .ExScheme-Blue-1    { color:#abdaf9; }
      .ExScheme-Blue-2    { color:#3daefd; }
      .ExScheme-Blue-3    { color:#2b3c4d; }
      .ExScheme-Yellow-1  { color:#faffa5; }
      .ExScheme-Yellow-2  { color:#cac726; }
      .ExScheme-Yellow-3  { color:#4b4d2b; }
      .ExScheme-Orange-1  { color:#ffdaa5; }
      .ExScheme-Orange-2  { color:#ff9701; }
      .ExScheme-Orange-3  { color:#4d372b; }
      .ExScheme-Brown-1   { color:#e9d6bb; }
      .ExScheme-Brown-2   { color:#997657; }
      .ExScheme-Brown-3   { color:#433a35; }
      .ExScheme-Purple-1  { color:#e2abf9; }
      .ExScheme-Purple-2  { color:#b401ff; }
      .ExScheme-Purple-3  { color:#432b4d; }
      .ExScheme-Cyan-1    { color:#b2f2e6; }
      .ExScheme-Cyan-2    { color:#31bfa6; }
      .ExScheme-Cyan-3    { color:#2b4d47; }
      .ExScheme-Magenta-1 { color:#f8a6d8; }
      .ExScheme-Magenta-2 { color:#f00091; }
      .ExScheme-Magenta-3 { color:#770048; }
    </style>
<linearGradient id="ufG">
<stop offset="0"/>
<stop offset="1" stop-opacity="0"/>
</linearGradient>
<linearGradient id="ufH">
<stop offset="0" stop-color="#fff"/>
<stop offset="1" stop-color="#fff" stop-opacity="0"/>
</linearGradient>
<style id="ufI" type="text/css">
        .force-display-for-editing { display: inline !important; }
    </style><style class="remove-if__show-crease" type="text/css">
        .enable-if__show-crease { display: none; }
    </style><style class="remove-if__color-sync-mimes-places" type="text/css">
        .enable-if__color-sync-mimes-places { display: none; }
    </style><radialGradient cx=".5" cy="0" id="ufJ" r="1" xlink:href="#ufH"/><linearGradient id="ufK" xlink:href="#ufG" y1="1" y2=".5"/><style class="ColorScheme-Background" fill="currentColor" opacity=".6" type="text/css">
   .ColorScheme-Text           { color:#eff0f1; }
      .ColorScheme-Background     { color:#31363b; }
      .ColorScheme-Highlight      { color:#3daefd; }
      .ColorScheme-ViewBackground { color:#fcfcfc; }
      .ColorScheme-PositiveText   { color:#27ae60; }
      .ColorScheme-NeutralText    { color:#f67400; }
      .ColorScheme-NegativeText   { color:#da4453; }
  </style><path d="M 5,4 C 3.9,4 3,4.9 3,6 V 9.27 C 2.4,9.6 2,10.26 2,11 v 15 c 0,1.1 .9,2 2,2 h 24 c 1.1,0 2,-.9 2,-2 V 11 10 C 30,9.26 29.6,8.6 29,8.27 V 7 C 29,5.9 28.1,5 27,5 H 14 C 12,5 12,4 10,4 Z" id="ufL"></path><path d="M 5,4 C 3.9,4 3,4.9 3,6 V 9.27 C 3.3,9.1 3.63,9 4,9 h 6 c 2,0 2,-1 4,-1 h 14 c .37,0 .7,.1 1,.27 V 7 C 29,5.9 28.1,5 27,5 H 14 C 12,5 12,4 10,4 Z" id="ufM"></path></defs>
<g id="content" transform="translate(0,0)"><use class="sync-color enable-if__color-sync-mimes-places force-display-for-editing ColorScheme-ActiveText" fill="currentColor" href="#ufL"></use><use class="primary-color remove-if__color-sync-mimes-places ColorScheme-ActiveText" fill="currentColor" href="#ufL"></use><use class="ColorScheme-Contrast" fill="currentColor" href="#ufL" opacity=".1"></use><g id="decal" transform="translate(8,10)"><path class="ColorScheme-Background" d="M 12 2 L 12 12 L 13 12 L 13 2 L 12 2 z M 6 5 L 6 12 L 7 12 L 7 5 L 6 5 z M 9 7 L 9 12 L 10 12 L 10 7 L 9 7 z M 3 8 L 3 12 L 4 12 L 4 8 L 3 8 z M 1.5 13 C 1.2 13 1 13.2 1 13.5 C 1 13.8 1.2 14 1.5 14 L 14.5 14 C 14.8 14 15 13.8 15 13.5 C 15 13.2 14.8 13 14.5 13 L 1.5 13 z " fill="currentColor" opacity=".6" stop-color="#000000" stroke-opacity=".16"/><path class="ColorScheme-Background" d="m 12,2 v 10 h 1 V 2 Z M 6,5 v 7 H 7 V 5 Z m 3,2 v 5 h 1 V 7 Z M 3,8 v 4 H 4 V 8 Z M 1.5,13 C 1.2,13 1,13.2 1,13.5 1,13.8 1.2,14 1.5,14 h 13 C 14.8,14 15,13.8 15,13.5 15,13.2 14.8,13 14.5,13 Z" fill="currentColor" opacity=".6" stop-color="#000000" stroke-opacity=".16"/></g><use href="#ufM" opacity=".4"></use><use fill="url(#ufK)" href="#ufM" opacity=".1"></use><path d="M 14,8 C 12,8 12,9 10,9 H 4 C 2.9,9 2,9.9 2,11 v 15 c 0,1.1 .9,2 2,2 h 24 c 1.1,0 2,-.9 2,-2 V 11 10 C 30,8.9 29.1,8 28,8 Z" fill="url(#ufJ)" opacity=".2"/><path class="ColorScheme-Contrast" d="m 2,25 v 1 c 0,1.1 .9,2 2,2 h 24 c 1.1,0 2,-.9 2,-2 v -1 c 0,1.1 -.9,2 -2,2 H 4 C 2.9,27 2,26.1 2,25 Z" fill="currentColor" opacity=".1"/><path class="ColorScheme-Contrast" d="M 2,25.5 V 26 c 0,1.1 .9,2 2,2 h 24 c 1.1,0 2,-.9 2,-2 v -0.5 c 0,1.1 -.9,2 -2,2 H 4 c -1.1,0 -2,-.9 -2,-2 z" fill="currentColor" opacity=".2"/><path d="M 14,8 C 12,8 12,9 10,9 H 4 C 2.9,9 2,9.9 2,11 v 0.5 c 0,-1.1 .9,-2 2,-2 h 6 c 2,0 2,-1 4,-1 h 14 c 1.1,0 2,.9 2,2 V 10 C 30,8.9 29.1,8 28,8 Z" fill="#fff" opacity=".2"/><path d="M 14,8 C 12,8 12,9 10,9 H 4 C 2.9,9 2,9.9 2,11 v 1 c 0,-1.1 .9,-2 2,-2 h 6 c 2,0 2,-1 4,-1 h 14 c 1.1,0 2,.9 2,2 V 10 C 30,8.9 29.1,8 28,8 Z" fill="#fff" opacity=".1"/><path d="m 14,7.5 c -2,0 -2,1 -4,1 H 4 C 3.63,8.5 3.3,8.6 3,8.77 v 0.5 C 3.3,9.1 3.63,9 4,9 h 6 c 2,0 2,-1 4,-1 h 14 c .37,0 .7,.1 1,.27 v -0.5 C 28.7,7.6 28.37,7.5 28,7.5 Z" opacity=".2"/><path d="M 14,7 C 12,7 12,8 10,8 H 4 C 3.63,8 3.3,8.1 3,8.27 v 1 C 3.3,9.1 3.63,9 4,9 h 6 c 2,0 2,-1 4,-1 h 14 c .37,0 .7,.1 1,.27 v -1 C 28.7,7.1 28.37,7 28,7 Z" opacity=".1"/></g>
</svg>