<svg xmlns="http://www.w3.org/2000/svg" viewBox="0 0 32 32">
  <defs id="defs3051">
    <style type="text/css" id="current-color-scheme">
      .ColorScheme-Text {
        color:#31363b;
      }
      .ColorScheme-Background {
        color:#eff0f1;
      }
      .ColorScheme-Highlight {
        color:#3daee9;
      }
      .ColorScheme-ViewText {
        color:#31363b;
      }
      .ColorScheme-ViewBackground {
        color:#fcfcfc;
      }
      .ColorScheme-ViewHover {
        color:#93cee9;
      }
      .ColorScheme-ViewFocus{
        color:#3daee9;
      }
      .ColorScheme-ButtonText {
        color:#31363b;
      }
      .ColorScheme-ButtonBackground {
        color:#eff0f1;
      }
      .ColorScheme-ButtonHover {
        color:#93cee9;
      }
      .ColorScheme-ButtonFocus{
        color:#3daee9;
      }
      </style>
  </defs>
 <path 
     style="fill:currentColor;fill-opacity:1;stroke:none" 
     d="M 2 3 L 2 10 L 1 10 L 1 29 L 12 29 L 13 29 L 31 29 L 31 8 L 30 8 L 30 5 L 16 5 L 14 3 L 2 3 z "
     class="ColorScheme-Highlight"
     />
 <path 
     style="fill-opacity:0.33;fill-rule:evenodd"
     d="m 2,3 0,7 9,0 L 13,8 30,8 30,5 16,5 14,3 2,3 Z"
     />
 <path 
     style="fill:#ffffff;fill-opacity:0.2;fill-rule:evenodd"
     d="M 14 3 L 15 6 L 30 6 L 30 5 L 16 5 L 14 3 z M 13 8 L 11 10 L 1 10 L 1 11 L 12 11 L 13 8 z "
     />
 <path 
     style="fill-opacity:0.2;fill-rule:evenodd"
     d="M 13 8 L 11 9 L 2 9 L 2 10 L 11 10 L 13 8 z M 1 28 L 1 29 L 31 29 L 31 28 L 1 28 z "
     class="ColorScheme-Text"
     />
 <path 
     style="fill:currentColor;fill-opacity:0.6;stroke:none" 
     d="M 18 13 L 17 14 L 19 16 L 17 18 L 18 19 L 21 16 L 18 13 z M 14 14 A 1 1 0 0 0 13 15 A 1 1 0 0 0 14 16 A 1 1 0 0 0 15 15 A 1 1 0 0 0 14 14 z M 12 17 A 0.99999994 0.99999994 0 0 0 11 18 A 0.99999994 0.99999994 0 0 0 12 19 A 0.99999994 0.99999994 0 0 0 13 18 A 0.99999994 0.99999994 0 0 0 12 17 z M 14.550781 19.900391 A 1.5499995 1.5499995 0 0 0 13 21.449219 A 1.5499995 1.5499995 0 0 0 14.550781 23 A 1.5499995 1.5499995 0 0 0 16.099609 21.449219 A 1.5499995 1.5499995 0 0 0 14.550781 19.900391 z "
     class="ColorScheme-Background"
     />
</svg>
