<svg height="32" version="1.1" width="32" xmlns="http://www.w3.org/2000/svg" xmlns:svg="http://www.w3.org/2000/svg" xmlns:xlink="http://www.w3.org/1999/xlink">
<defs id="primary-definitions">
<style id="current-color-scheme" type="text/css">
      .ColorScheme-Text         { color: #232629; }
      .ColorScheme-Background   { color: #eff0f1; }
      .ColorScheme-Highlight    { color: #7ec9f0; }
      .ColorScheme-PositiveText { color: #27ae60; }
      .ColorScheme-NeutralText  { color: #f67400; }
      .ColorScheme-NegativeText { color: #da4453; }
      .ColorScheme-ActiveText   { color: #3daee9; }
      .ColorScheme-Complement   { color: #ffffff; }
      .ColorScheme-Contrast     { color: #000000; }
    </style>
<style id="extended-color-scheme" type="text/css">
      .ExScheme-Black     { color:#3e3e3e; }
      .ExScheme-White     { color:#fcfcfc; }
      .ExScheme-Grey-1    { color:#cfd5d5; }
      .ExScheme-Grey-2    { color:#909c9c; }
      .ExScheme-Grey-3    { color:#536161; }
      .ExScheme-Red-1     { color:#ffafa5; }
      .ExScheme-Red-2     { color:#bf4231; }
      .ExScheme-Red-3     { color:#4d2f2b; }
      .ExScheme-Green-1   { color:#abf9c7; }
      .ExScheme-Green-2   { color:#3bb566; }
      .ExScheme-Green-3   { color:#377d50; }
      .ExScheme-Blue-1    { color:#abdaf9; }
      .ExScheme-Blue-2    { color:#3daefd; }
      .ExScheme-Blue-3    { color:#2b3c4d; }
      .ExScheme-Yellow-1  { color:#faffa5; }
      .ExScheme-Yellow-2  { color:#cac726; }
      .ExScheme-Yellow-3  { color:#4b4d2b; }
      .ExScheme-Orange-1  { color:#ffdaa5; }
      .ExScheme-Orange-2  { color:#ff9701; }
      .ExScheme-Orange-3  { color:#4d372b; }
      .ExScheme-Brown-1   { color:#e9d6bb; }
      .ExScheme-Brown-2   { color:#997657; }
      .ExScheme-Brown-3   { color:#433a35; }
      .ExScheme-Purple-1  { color:#e2abf9; }
      .ExScheme-Purple-2  { color:#b401ff; }
      .ExScheme-Purple-3  { color:#432b4d; }
      .ExScheme-Cyan-1    { color:#b2f2e6; }
      .ExScheme-Cyan-2    { color:#31bfa6; }
      .ExScheme-Cyan-3    { color:#2b4d47; }
      .ExScheme-Magenta-1 { color:#f8a6d8; }
      .ExScheme-Magenta-2 { color:#f00091; }
      .ExScheme-Magenta-3 { color:#770048; }
    </style>
<linearGradient id="uwf">
<stop offset="0"/>
<stop offset="1" stop-opacity="0"/>
</linearGradient>
<linearGradient id="uwg">
<stop offset="0" stop-color="#fff"/>
<stop offset="1" stop-color="#fff" stop-opacity="0"/>
</linearGradient>
<style id="uwh" type="text/css">
        .force-display-for-editing { display: inline !important; }
    </style><style class="remove-if__show-crease" type="text/css">
        .enable-if__show-crease { display: none; }
    </style><style class="remove-if__color-sync-mimes-places" type="text/css">
        .enable-if__color-sync-mimes-places { display: none; }
    </style><radialGradient cx=".5" cy="0" id="uwi" r="1" xlink:href="#uwg"/><linearGradient id="uwj" xlink:href="#uwf" y1="1" y2=".5"/><style class="ColorScheme-Background" fill="currentColor" opacity=".6" type="text/css">
   .ColorScheme-Text           { color:#eff0f1; }
      .ColorScheme-Background     { color:#31363b; }
      .ColorScheme-Highlight      { color:#3daefd; }
      .ColorScheme-ViewBackground { color:#fcfcfc; }
      .ColorScheme-PositiveText   { color:#27ae60; }
      .ColorScheme-NeutralText    { color:#f67400; }
      .ColorScheme-NegativeText   { color:#da4453; }
  </style><path d="M 5,4 C 3.9,4 3,4.9 3,6 V 9.27 C 2.4,9.6 2,10.26 2,11 v 15 c 0,1.1 .9,2 2,2 h 24 c 1.1,0 2,-.9 2,-2 V 11 10 C 30,9.26 29.6,8.6 29,8.27 V 7 C 29,5.9 28.1,5 27,5 H 14 C 12,5 12,4 10,4 Z" id="uwk"></path><path d="M 5,4 C 3.9,4 3,4.9 3,6 V 9.27 C 3.3,9.1 3.63,9 4,9 h 6 c 2,0 2,-1 4,-1 h 14 c .37,0 .7,.1 1,.27 V 7 C 29,5.9 28.1,5 27,5 H 14 C 12,5 12,4 10,4 Z" id="uwl"></path></defs>
<g id="content" transform="translate(0,0)"><use class="sync-color enable-if__color-sync-mimes-places force-display-for-editing ColorScheme-ActiveText" fill="currentColor" href="#uwk"></use><use class="primary-color remove-if__color-sync-mimes-places ColorScheme-ActiveText" fill="currentColor" href="#uwk"></use><use class="ColorScheme-Contrast" fill="currentColor" href="#uwk" opacity=".1"></use><g id="decal" transform="translate(8,10)"><path class="ColorScheme-Background" d="M 6 2 L 6 3 L 2 3 L 2 4 L 8.5 4 C 8.43 4.2 8.24 4.76 7.6 5.73 C 7.33 6.2 6.86 6.8 6.26 7.54 C 5.7 6.83 5.06 5.97 4.56 5 L 3.44 5 L 3.55 5.2 C 4.14 6.4 4.9 7.47 5.6 8.3 C 4.67 9.3 3.5 10.47 2.2 11.6 L 2.8 12.4 C 4.16 11.24 5.3 10.1 6.26 9.05 C 7.07 9.9 7.7 10.4 7.7 10.4 L 7.74 10.43 L 8.1 9.44 C 7.9 9.23 7.44 8.84 6.93 8.3 C 7.6 7.5 8.13 6.8 8.46 6.27 C 9.3 4.93 9.5 4.2 9.5 4.2 L 9.5 4 L 11 4 L 11 3 L 7 3 L 7 2 L 6 2 z M 10.47 6 L 7.53 13.8 L 7.46 14 L 8.54 14 L 9.3 12 L 12.7 12 L 13.46 14 L 14.54 14 L 14.47 13.8 L 11.53 6 L 10.47 6 z M 11 7.43 L 12.34 11 L 9.66 11 L 11 7.43 z " fill="currentColor" opacity=".6" stop-color="#000000"/><path class="ColorScheme-Background" d="M 6,2 V 3 H 2 V 4 H 8.5 C 8.43,4.2 8.24,4.76 7.6,5.73 7.33,6.2 6.86,6.8 6.26,7.54 5.7,6.83 5.06,5.97 4.56,5 H 3.44 l .1,.2 C 4.14,6.4 4.9,7.47 5.6,8.3 4.67,9.3 3.5,10.47 2.2,11.6 l .65,.76 C 4.16,11.24 5.3,10.1 6.26,9.05 7.07,9.9 7.7,10.4 7.7,10.4 l .05,.04 .37,-1 C 7.9,9.23 7.44,8.84 6.93,8.3 7.6,7.5 8.13,6.8 8.46,6.27 9.3,4.93 9.5,4.2 9.5,4.2 L 9.5,4 H 11 V 3 H 7 V 2 Z M 10.47,6 7.53,13.8 7.46,14 h 1.07 l 0.75,-2 h 3.43 l 0.75,2 h 1.07 L 14.47,13.8 11.53,6 Z M 11,7.43 12.34,11 H 9.66 Z" fill="currentColor" opacity=".6" stop-color="#000000"/></g><use href="#uwl" opacity=".4"></use><use fill="url(#uwj)" href="#uwl" opacity=".1"></use><path d="M 14,8 C 12,8 12,9 10,9 H 4 C 2.9,9 2,9.9 2,11 v 15 c 0,1.1 .9,2 2,2 h 24 c 1.1,0 2,-.9 2,-2 V 11 10 C 30,8.9 29.1,8 28,8 Z" fill="url(#uwi)" opacity=".2"/><path class="ColorScheme-Contrast" d="m 2,25 v 1 c 0,1.1 .9,2 2,2 h 24 c 1.1,0 2,-.9 2,-2 v -1 c 0,1.1 -.9,2 -2,2 H 4 C 2.9,27 2,26.1 2,25 Z" fill="currentColor" opacity=".1"/><path class="ColorScheme-Contrast" d="M 2,25.5 V 26 c 0,1.1 .9,2 2,2 h 24 c 1.1,0 2,-.9 2,-2 v -0.5 c 0,1.1 -.9,2 -2,2 H 4 c -1.1,0 -2,-.9 -2,-2 z" fill="currentColor" opacity=".2"/><path d="M 14,8 C 12,8 12,9 10,9 H 4 C 2.9,9 2,9.9 2,11 v 0.5 c 0,-1.1 .9,-2 2,-2 h 6 c 2,0 2,-1 4,-1 h 14 c 1.1,0 2,.9 2,2 V 10 C 30,8.9 29.1,8 28,8 Z" fill="#fff" opacity=".2"/><path d="M 14,8 C 12,8 12,9 10,9 H 4 C 2.9,9 2,9.9 2,11 v 1 c 0,-1.1 .9,-2 2,-2 h 6 c 2,0 2,-1 4,-1 h 14 c 1.1,0 2,.9 2,2 V 10 C 30,8.9 29.1,8 28,8 Z" fill="#fff" opacity=".1"/><path d="m 14,7.5 c -2,0 -2,1 -4,1 H 4 C 3.63,8.5 3.3,8.6 3,8.77 v 0.5 C 3.3,9.1 3.63,9 4,9 h 6 c 2,0 2,-1 4,-1 h 14 c .37,0 .7,.1 1,.27 v -0.5 C 28.7,7.6 28.37,7.5 28,7.5 Z" opacity=".2"/><path d="M 14,7 C 12,7 12,8 10,8 H 4 C 3.63,8 3.3,8.1 3,8.27 v 1 C 3.3,9.1 3.63,9 4,9 h 6 c 2,0 2,-1 4,-1 h 14 c .37,0 .7,.1 1,.27 v -1 C 28.7,7.1 28.37,7 28,7 Z" opacity=".1"/></g>
</svg>