<?xml version="1.0" encoding="utf-8"?><svg height="32" width="32" xmlns="http://www.w3.org/2000/svg" xmlns:svg="http://www.w3.org/2000/svg" xmlns:xlink="http://www.w3.org/1999/xlink"><defs id="primary-definitions"><style id="current-color-scheme" type="text/css">.ColorScheme-Text           { color:#fff; }
      .ColorScheme-Background     { color:#111; }
      .ColorScheme-Highlight      { color:#3daefd; }
      .ColorScheme-ViewBackground { color:#000; }
      .ColorScheme-PositiveText   { color:#27ae60; }
      .ColorScheme-NeutralText    { color:#f67400; }
      .ColorScheme-NegativeText   { color:#da4453; }
  </style><style id="extended-color-scheme" type="text/css">.ExScheme-Black     { color:#3e3e3e; }
      .ExScheme-White     { color:#fcfcfc; }
      .ExScheme-Grey-1    { color:#cfd5d5; }
      .ExScheme-Grey-2    { color:#909c9c; }
      .ExScheme-Grey-3    { color:#536161; }
      .ExScheme-Red-1     { color:#ffafa5; }
      .ExScheme-Red-2     { color:#bf4231; }
      .ExScheme-Red-3     { color:#4d2f2b; }
      .ExScheme-Green-1   { color:#abf9c7; }
      .ExScheme-Green-2   { color:#3bb566; }
      .ExScheme-Green-3   { color:#377d50; }
      .ExScheme-Blue-1    { color:#abdaf9; }
      .ExScheme-Blue-2    { color:#3daefd; }
      .ExScheme-Blue-3    { color:#2b3c4d; }
      .ExScheme-Yellow-1  { color:#faffa5; }
      .ExScheme-Yellow-2  { color:#cac726; }
      .ExScheme-Yellow-3  { color:#4b4d2b; }
      .ExScheme-Orange-1  { color:#ffdaa5; }
      .ExScheme-Orange-2  { color:#ff9701; }
      .ExScheme-Orange-3  { color:#4d372b; }
      .ExScheme-Brown-1   { color:#e9d6bb; }
      .ExScheme-Brown-2   { color:#997657; }
      .ExScheme-Brown-3   { color:#433a35; }
      .ExScheme-Purple-1  { color:#e2abf9; }
      .ExScheme-Purple-2  { color:#b401ff; }
      .ExScheme-Purple-3  { color:#432b4d; }
      .ExScheme-Cyan-1    { color:#b2f2e6; }
      .ExScheme-Cyan-2    { color:#31bfa6; }
      .ExScheme-Cyan-3    { color:#2b4d47; }
      .ExScheme-Magenta-1 { color:#f8a6d8; }
      .ExScheme-Magenta-2 { color:#f00091; }
      .ExScheme-Magenta-3 { color:#770048; }
  </style><linearGradient id="gradientDark"><stop offset="0"/><stop offset="1" stop-opacity="0"/></linearGradient><linearGradient id="gradientLight"><stop offset="0" stop-color="#fff"/><stop offset="1" stop-color="#fff" stop-opacity="0"/></linearGradient><style class="toggle-enable-crease" type="text/css">.folder-crease { display: none; }
  </style><style class="toggle-manilla-folders" type="text/css">.folder-manilla { display: none; }
  </style><radialGradient cx=".5" cy="0" id="gl1" r="1" xlink:href="#gradientLight"/><linearGradient id="gd1" xlink:href="#gradientDark" y1="1" y2=".5"/><path d="M 5,4 C 3.892,4 3,4.892 3,6 V 9.268 C 2.402,9.613 2,10.257 2,11 v 15 c 0,1.108 0.892,2 2,2 h 24 c 1.108,0 2,-0.892 2,-2 V 11 10 C 30,9.257 29.598,8.613 29,8.268 V 7 C 29,5.892 28.108,5 27,5 H 14 C 12,5 12,4 10,4 Z" id="use-path-4r"/><path d="M 5,4 C 3.892,4 3,4.892 3,6 V 9.268 C 3.294,9.098 3.635,9 4,9 h 6 c 2,0 2,-1 4,-1 h 14 c .365,0 0.706,.098 1,.268 V 7 C 29,5.892 28.108,5 27,5 H 14 C 12,5 12,4 10,4 Z" id="use-path-4s"/></defs><g id="content"><use class="folder-manilla ExScheme-Brown-1" fill="currentColor" href="#use-path-4r"/><use class="toggle-manilla-folders ExScheme-Grey-1" fill="currentColor" href="#use-path-4r" id="primary-color"/><use class="ColorScheme-Text" fill="currentColor" href="#use-path-4r" opacity=".1"/><g id="emblem" transform="translate(8,10)"><path class="ExScheme-Grey-3" d="M 2,1 C 1.446,1 1,1.446 1,2 v 12 c 0,0.554 0.446,1 1,1 H 9 9.404 14 c 0.554,0 1,-0.446 1,-1 V 2 C 15,1.446 14.554,1 14,1 Z M 7.86,2 H 14 V 14 H 9.242 c -.05,-.364 -.09,-.73 -0.125,-1.09 C 8.77,12.966 8.4,13 8,13 5.146,13 3.627,11.332 3.627,11.332 3.444,11.126 3.462,10.81 3.668,10.627 3.767,10.538 3.897,10.493 4.03,10.5 c .132,.008 .256,.07 .344,.168 0,0 1.148,1.332 3.627,1.332 .377,0 .72,-.032 1.037,-.084 C 8.902,9.762 9,8 9,8 H 7 C 7,8 6.813,4.89 7.86,2 Z m 1.176,9.916 c .02,.324 .048,.657 .08,.994 2.13,-.345 3.256,-1.578 3.256,-1.578 .183,-.206 .165,-.522 -.04,-.705 -.08,-.07 -.178,-.113 -.283,-.123 -.16,-.016 -.315,.045 -.422,.164 4e-6,-4e-6 -.827,.957 -2.59,1.248 z M 4.475,5 C 4.483,5 4.49,5 4.5,5 4.777,5 5,5.223 5,5.5 v 1 C 5,6.777 4.777,7 4.5,7 4.223,7 4,6.777 4,6.5 v -1 C 4,5.232 4.21,5.013 4.475,5 Z M 11.475,5 C 11.21,5.013 11,5.232 11,5.5 v 1 C 11,6.777 11.223,7 11.5,7 11.777,7 12,6.777 12,6.5 v -1 C 12,5.223 11.777,5 11.5,5 c -.01,0 -.017,-4.304e-4 -.025,0 z" fill="currentColor" opacity=".6"/><path class="ExScheme-Grey-3" d="M 2,1 C 1.446,1 1,1.446 1,2 v 12 c 0,0.554 0.446,1 1,1 H 9 9.404 14 c 0.554,0 1,-0.446 1,-1 V 2 C 15,1.446 14.554,1 14,1 Z M 2,1.5 H 7.58 C 6.335,4.62 6.5,8.03 6.5,8.03 6.516,8.294 6.735,8.5 7,8.5 H 8.506 C 8.49,8.835 8.473,9.92 8.535,11.457 8.36,11.474 8.195,11.5 8,11.5 6.85,11.5 6.033,11.194 5.5,10.896 4.967,10.6 4.752,10.342 4.752,10.342 c -0,-0.002 -.003,-.004 -.004,-.006 C 4.573,10.137 4.325,10.016 4.06,10 c -0,-5.1e-6 -.003,-5.1e-6 -.004,0 -.264,-.015 -.523,.078 -.72,.254 -.407,.363 -.444,1.002 -.082,1.41 0,0 .003,.003 .004,.004 0,0 1.693,1.832 4.742,1.832 .245,0 .46,-.033 .686,-.055 .04,.35 .09,.702 .145,1.055 H 2 C 1.714,14.5 1.5,14.286 1.5,14 V 2 C 1.5,1.714 1.714,1.5 2,1.5 Z M 7.86,2 H 14 V 14 H 9.242 c -.05,-.364 -.09,-.73 -0.125,-1.09 C 8.77,12.966 8.4,13 8,13 5.146,13 3.627,11.332 3.627,11.332 3.444,11.126 3.462,10.81 3.668,10.627 3.767,10.538 3.897,10.493 4.03,10.5 c .132,.008 .256,.07 .344,.168 C 4.373,10.668 5.52,12 8,12 8.377,12 8.72,11.968 9.037,11.916 8.902,9.762 9,8 9,8 H 7 C 7,8 6.813,4.89 7.86,2 Z m 1.176,9.916 c .02,.324 .048,.657 .08,.994 2.13,-.345 3.256,-1.578 3.256,-1.578 .183,-.206 .165,-.522 -.04,-.705 -.08,-.07 -.178,-.113 -.283,-.123 -.16,-.016 -.315,.045 -.422,.164 4e-6,-4e-6 -.827,.957 -2.59,1.248 z M 4.45,4.5 C 3.924,4.526 3.5,4.97 3.5,5.5 v 1 c 0,.545 .455,1 1,1 .545,0 1,-.455 1,-1 v -1 c 0,-.545 -.455,-1 -1,-1 .008,0 -.01,-.002 -.05,0 z M 4.475,5 C 4.483,5 4.49,5 4.5,5 4.777,5 5,5.223 5,5.5 v 1 C 5,6.777 4.777,7 4.5,7 4.223,7 4,6.777 4,6.5 v -1 C 4,5.232 4.21,5.013 4.475,5 Z M 11.475,5 C 11.21,5.013 11,5.232 11,5.5 v 1 C 11,6.777 11.223,7 11.5,7 11.777,7 12,6.777 12,6.5 v -1 C 12,5.223 11.777,5 11.5,5 c -.01,0 -.017,-4.304e-4 -.025,0 z" fill="currentColor" opacity=".6"/></g><use href="#use-path-4s" opacity=".4"/><use class="toggle-flat-design" fill="url(#gd1)" href="#use-path-4s" opacity=".1"/><path class="toggle-flat-design" d="M 14,8 C 12,8 12,9 10,9 H 4 C 2.892,9 2,9.892 2,11 v 15 c 0,1.108 0.892,2 2,2 h 24 c 1.108,0 2,-0.892 2,-2 V 11 10 C 30,8.892 29.108,8 28,8 Z" fill="url(#gl1)" opacity=".2"/><path class="folder-crease" d="m 2,22 v 1 H 6.5 C 6.777,23 7,22.777 7,22.5 7,22.223 6.777,22 6.5,22 Z m 23.5,0 c -0.277,0 -0.5,0.223 -0.5,0.5 0,0.277 0.223,0.5 0.5,0.5 H 30 v -1 z" opacity=".4"/><path class="ColorScheme-Text" d="m 2,25 v 1 c 0,1.108 0.892,2 2,2 h 24 c 1.108,0 2,-0.892 2,-2 v -1 c 0,1.108 -0.892,2 -2,2 H 4 C 2.892,27 2,26.108 2,25 Z" fill="currentColor" opacity=".1"/><path class="ColorScheme-Text" d="M 2,25.5 V 26 c 0,1.108 0.892,2 2,2 h 24 c 1.108,0 2,-0.892 2,-2 v -0.5 c 0,1.108 -0.892,2 -2,2 H 4 c -1.108,0 -2,-0.892 -2,-2 z" fill="currentColor" opacity=".2"/><path d="M 14,8 C 12,8 12,9 10,9 H 4 C 2.892,9 2,9.892 2,11 v 0.5 c 0,-1.108 0.892,-2 2,-2 h 6 c 2,0 2,-1 4,-1 h 14 c 1.108,0 2,0.892 2,2 V 10 C 30,8.892 29.108,8 28,8 Z" fill="#fff" opacity=".2"/><path d="M 14,8 C 12,8 12,9 10,9 H 4 C 2.892,9 2,9.892 2,11 v 1 c 0,-1.108 0.892,-2 2,-2 h 6 c 2,0 2,-1 4,-1 h 14 c 1.108,0 2,0.892 2,2 V 10 C 30,8.892 29.108,8 28,8 Z" fill="#fff" opacity=".1"/><path d="m 14,7.5 c -2,0 -2,1 -4,1 H 4 C 3.635,8.5 3.294,8.598 3,8.768 v 0.5 C 3.294,9.098 3.635,9 4,9 h 6 c 2,0 2,-1 4,-1 h 14 c .365,0 .706,.098 1,.268 v -0.5 C 28.706,7.598 28.365,7.5 28,7.5 Z" opacity=".2"/><path d="M 14,7 C 12,7 12,8 10,8 H 4 C 3.635,8 3.294,8.098 3,8.268 v 1 C 3.294,9.098 3.635,9 4,9 h 6 c 2,0 2,-1 4,-1 h 14 c .365,0 .706,.098 1,.268 v -1 C 28.706,7.098 28.365,7 28,7 Z" opacity=".1"/></g></svg>