<svg height="32" version="1.1" width="32" xmlns="http://www.w3.org/2000/svg" xmlns:svg="http://www.w3.org/2000/svg" xmlns:xlink="http://www.w3.org/1999/xlink">
<defs id="primary-definitions">
<style id="current-color-scheme" type="text/css">
      .ColorScheme-Text         { color: #232629; }
      .ColorScheme-Background   { color: #eff0f1; }
      .ColorScheme-Highlight    { color: #7ec9f0; }
      .ColorScheme-PositiveText { color: #27ae60; }
      .ColorScheme-NeutralText  { color: #f67400; }
      .ColorScheme-NegativeText { color: #da4453; }
      .ColorScheme-ActiveText   { color: #3daee9; }
      .ColorScheme-Complement   { color: #ffffff; }
      .ColorScheme-Contrast     { color: #000000; }
    </style>
<style id="extended-color-scheme" type="text/css">
      .ExScheme-Black     { color:#3e3e3e; }
      .ExScheme-White     { color:#fcfcfc; }
      .ExScheme-Grey-1    { color:#cfd5d5; }
      .ExScheme-Grey-2    { color:#909c9c; }
      .ExScheme-Grey-3    { color:#536161; }
      .ExScheme-Red-1     { color:#ffafa5; }
      .ExScheme-Red-2     { color:#bf4231; }
      .ExScheme-Red-3     { color:#4d2f2b; }
      .ExScheme-Green-1   { color:#abf9c7; }
      .ExScheme-Green-2   { color:#3bb566; }
      .ExScheme-Green-3   { color:#377d50; }
      .ExScheme-Blue-1    { color:#abdaf9; }
      .ExScheme-Blue-2    { color:#3daefd; }
      .ExScheme-Blue-3    { color:#2b3c4d; }
      .ExScheme-Yellow-1  { color:#faffa5; }
      .ExScheme-Yellow-2  { color:#cac726; }
      .ExScheme-Yellow-3  { color:#4b4d2b; }
      .ExScheme-Orange-1  { color:#ffdaa5; }
      .ExScheme-Orange-2  { color:#ff9701; }
      .ExScheme-Orange-3  { color:#4d372b; }
      .ExScheme-Brown-1   { color:#e9d6bb; }
      .ExScheme-Brown-2   { color:#997657; }
      .ExScheme-Brown-3   { color:#433a35; }
      .ExScheme-Purple-1  { color:#e2abf9; }
      .ExScheme-Purple-2  { color:#b401ff; }
      .ExScheme-Purple-3  { color:#432b4d; }
      .ExScheme-Cyan-1    { color:#b2f2e6; }
      .ExScheme-Cyan-2    { color:#31bfa6; }
      .ExScheme-Cyan-3    { color:#2b4d47; }
      .ExScheme-Magenta-1 { color:#f8a6d8; }
      .ExScheme-Magenta-2 { color:#f00091; }
      .ExScheme-Magenta-3 { color:#770048; }
    </style>
<linearGradient id="u1fV">
<stop offset="0"/>
<stop offset="1" stop-opacity="0"/>
</linearGradient>
<linearGradient id="u1fW">
<stop offset="0" stop-color="#fff"/>
<stop offset="1" stop-color="#fff" stop-opacity="0"/>
</linearGradient>
<style id="u1fX" type="text/css">
        .force-display-for-editing { display: inline !important; }
    </style><style class="remove-if__show-crease" type="text/css">
        .enable-if__show-crease { display: none; }
    </style><style class="remove-if__color-sync-mimes-places" type="text/css">
        .enable-if__color-sync-mimes-places { display: none; }
    </style><radialGradient cx=".5" cy="0" id="u1fY" r="1" xlink:href="#u1fW"/><linearGradient id="u1fZ" xlink:href="#u1fV" y1="1" y2=".5"/><path d="M 5 4 C 3.9 4 3 4.9 3 6 L 3 13 C 1.9 13 1 14 1 15 L 2 23 L 2 26 C 2 27.1 2.9 28 4 28 L 28 28 C 29.1 28 30 27.1 30 26 L 30 23 L 31 14 C 31 13 30.1 12 29 12 L 29 7 C 29 5.9 28.1 5 27 5 L 13 5 C 12 5 11 4 10 4 L 5 4 z" id="u1g0"></path><path d="M 5,4 C 3.9,4 3,4.9 3,6 v 7 h 7 c 1,0 2,-1 3,-1 H 29 V 7 C 29,5.9 28.1,5 27,5 H 13 C 12,5 11,4 10,4 Z" id="u1g1"></path></defs>
<g id="content" transform="translate(0,0)"><use class="sync-color enable-if__color-sync-mimes-places force-display-for-editing ColorScheme-ActiveText" fill="currentColor" href="#u1g0"></use><use class="primary-color remove-if__color-sync-mimes-places ColorScheme-ActiveText ExScheme-Yellow-2" fill="currentColor" href="#u1g0"></use><use class="ColorScheme-Contrast" fill="currentColor" href="#u1g0" opacity=".1"></use><use href="#u1g1" opacity=".4"></use><use fill="url(#u1fZ)" href="#u1g1" opacity=".1"></use><path d="m 3,13 h 7 c 1,0 2,-1 3,-1 h 16 c 1.1,0 2,1 2,2 l -1,9 v 3 c 0,1.1 -.9,2 -2,2 H 4 C 2.9,28 2,27.1 2,26 V 23 L 1,15 c 0,-1 .9,-2 2,-2 z" fill="url(#u1fY)" opacity=".2"/><path class="enable-if__show-crease force-display-for-editing" d="M 1.9 22 L 2 23 L 30 23 L 30.1 22 L 1.9 22 z " opacity=".4"/><path class="ColorScheme-Contrast" d="m 2,25 v 1 c 0,1.1 .9,2 2,2 h 24 c 1.1,0 2,-.9 2,-2 v -1 c 0,1.1 -.9,2 -2,2 H 4 C 2.9,27 2,26.1 2,25 Z" fill="currentColor" opacity=".1"/><path class="ColorScheme-Contrast" d="M 2,25.5 V 26 c 0,1.1 .9,2 2,2 h 24 c 1.1,0 2,-.9 2,-2 v -0.5 c 0,1.1 -.9,2 -2,2 H 4 c -1.1,0 -2,-.9 -2,-2 z" fill="currentColor" opacity=".2"/><path d="M 13 12 C 12 12 11 13 10 13 L 3 13 C 1.9 13 1 14 1 15 L 1.07 15.53 C 1.3 14.7 2.07 14 3 14 L 10 14 C 11 14 12 13 13 13 L 29 13 C 29.94 13 30.7 13.7 30.94 14.55 L 31 14 C 31 13 30.1 12 29 12 L 13 12 z" fill="#fff" opacity=".2"/><path d="M 13 12 C 12 12 11 13 10 13 L 3 13 C 1.9 13 1 14 1 15 L 1.03 15.2 C 1.2 14.3 2 13.5 3 13.5 L 10 13.5 C 11 13.5 12 12.5 13 12.5 L 29 12.5 C 30 12.5 30.83 13.3 30.97 14.2 L 31 14 C 31 13 30.1 12 29 12 L 13 12 z" fill="#fff" opacity=".1"/><path d="m 13,11 c -1,0 -2,1 -3,1 H 3 v 1 h 7 c 1,0 2,-1 3,-1 h 16 v -1 z" opacity=".2"/><path d="m 13,11.5 c -1,0 -2,1 -3,1 H 3 V 13 h 7 c 1,0 2,-1 3,-1 h 16 v -0.5 z" opacity=".1"/></g>
</svg>