<svg height="32" version="1.1" width="32" xmlns="http://www.w3.org/2000/svg" xmlns:svg="http://www.w3.org/2000/svg" xmlns:xlink="http://www.w3.org/1999/xlink">
<defs id="primary-definitions">
<style id="current-color-scheme" type="text/css">
      .ColorScheme-Text         { color: #232629; }
      .ColorScheme-Background   { color: #eff0f1; }
      .ColorScheme-Highlight    { color: #7ec9f0; }
      .ColorScheme-PositiveText { color: #27ae60; }
      .ColorScheme-NeutralText  { color: #f67400; }
      .ColorScheme-NegativeText { color: #da4453; }
      .ColorScheme-ActiveText   { color: #3daee9; }
      .ColorScheme-Complement   { color: #ffffff; }
      .ColorScheme-Contrast     { color: #000000; }
    </style>
<style id="extended-color-scheme" type="text/css">
      .ExScheme-Black     { color:#3e3e3e; }
      .ExScheme-White     { color:#fcfcfc; }
      .ExScheme-Grey-1    { color:#cfd5d5; }
      .ExScheme-Grey-2    { color:#909c9c; }
      .ExScheme-Grey-3    { color:#536161; }
      .ExScheme-Red-1     { color:#ffafa5; }
      .ExScheme-Red-2     { color:#bf4231; }
      .ExScheme-Red-3     { color:#4d2f2b; }
      .ExScheme-Green-1   { color:#abf9c7; }
      .ExScheme-Green-2   { color:#3bb566; }
      .ExScheme-Green-3   { color:#377d50; }
      .ExScheme-Blue-1    { color:#abdaf9; }
      .ExScheme-Blue-2    { color:#3daefd; }
      .ExScheme-Blue-3    { color:#2b3c4d; }
      .ExScheme-Yellow-1  { color:#faffa5; }
      .ExScheme-Yellow-2  { color:#cac726; }
      .ExScheme-Yellow-3  { color:#4b4d2b; }
      .ExScheme-Orange-1  { color:#ffdaa5; }
      .ExScheme-Orange-2  { color:#ff9701; }
      .ExScheme-Orange-3  { color:#4d372b; }
      .ExScheme-Brown-1   { color:#e9d6bb; }
      .ExScheme-Brown-2   { color:#997657; }
      .ExScheme-Brown-3   { color:#433a35; }
      .ExScheme-Purple-1  { color:#e2abf9; }
      .ExScheme-Purple-2  { color:#b401ff; }
      .ExScheme-Purple-3  { color:#432b4d; }
      .ExScheme-Cyan-1    { color:#b2f2e6; }
      .ExScheme-Cyan-2    { color:#31bfa6; }
      .ExScheme-Cyan-3    { color:#2b4d47; }
      .ExScheme-Magenta-1 { color:#f8a6d8; }
      .ExScheme-Magenta-2 { color:#f00091; }
      .ExScheme-Magenta-3 { color:#770048; }
    </style>
<linearGradient id="uV9">
<stop offset="0"/>
<stop offset="1" stop-opacity="0"/>
</linearGradient>
<linearGradient id="uVa">
<stop offset="0" stop-color="#fff"/>
<stop offset="1" stop-color="#fff" stop-opacity="0"/>
</linearGradient>
<linearGradient id="uVb">
<stop offset="0" stop-color="#909c9c"/>
<stop offset=".105" stop-color="#909c9c"/>
<stop offset=".5" stop-color="#b0b8b8"/>
<stop offset=".895" stop-color="#909c9c"/>
<stop offset="1" stop-color="#6f8181"/>
</linearGradient><linearGradient id="uVc">
<stop offset="0" stop-color="#000000"/>
<stop offset="1" stop-color="#000000" stop-opacity="0"/>
</linearGradient><style class="toggle-enable-crease" type="text/css">
        .folder-crease { display: none; }
    </style><style class="toggle-manilla-folders" type="text/css">
        .folder-manilla { display: none; }
    </style><radialGradient cx=".5" cy="0" id="uVd" r="1" xlink:href="#uVa"/><linearGradient id="uVe" xlink:href="#uV9" y1="1" y2=".5"/><clipPath clipPathUnits="userSpaceOnUse" id="uVf">
<rect height="900" width="1600" x="0" y="58.874992"/>
</clipPath><radialGradient cx="8" cy="32" fx="8" fy="32" gradientTransform="matrix(0,1.06,-.53,0,53.03,-4.5)" gradientUnits="userSpaceOnUse" id="uVg" r="22.54" xlink:href="#uVa"/><linearGradient gradientTransform="scale(0.5)" gradientUnits="userSpaceOnUse" id="uVh" x1="12.11" x2="20.39" xlink:href="#uV9" y1="32.02" y2="31.5"/><linearGradient gradientTransform="matrix(-0.5,0,0,0.5,32,0)" gradientUnits="userSpaceOnUse" id="uVi" x1="12.11" x2="20.39" xlink:href="#uVc" y1="32.02" y2="31.5"/><linearGradient gradientTransform="scale(0.5)" gradientUnits="userSpaceOnUse" id="uVj" x1="13" x2="51" xlink:href="#uVb" y1="50" y2="50"/><radialGradient cx="8" cy="32" fx="8" fy="32" gradientTransform="matrix(0,1.06,-.53,0,33.03,-4.5)" gradientUnits="userSpaceOnUse" id="uVk" r="22.54" xlink:href="#uVa"/><path d="m 70.45,39.4 4.16,1.5 -1.36,4.67 3.83,1.2 6.96,-4.7 -1.26,-2.4 3.25,-3.2 -5.87,-3.1 -3.37,1.7 z" id="uVl"></path><path d="m 74.6,40.8 -1.36,4.67 3.3,-1.83 z" id="uVm"></path><path d="m 80.16,33.35 -3.37,1.7 .7,1.8 4.06,.54 z" fill="#b0b8b8" id="uVn"></path><path d="m 74.6,40.8 2.9,-3.97 6.54,5.2 z" id="uVo"></path><path d="m 70.45,39.4 7.05,-2.45 5.3,2.83 -8.17,1.13 -1.36,4.67 z" fill="#fcfcfc" id="uVp"></path><path d="m 72.53,48.4 -2.65,-2.74 2.8,-6.95 6.9,.1 3.6,-1.47 3.1,4.47 -1.76,4.9 -6.65,2.13 z" fill="#cfd5d5" id="uVq"></path><path d="m 72.7,38.7 1.1,4.4 4.2,-.2 1.6,-4.2 z" id="uVr"></path><path d="m 78,42.9 -5.47,5.5 5.4,.44 2.6,-2.97 z" fill="#909c9c" id="uVs"></path><path d="m 84.6,46.7 -1.65,-1.4 1.6,-2.97 1.8,-.55 z" id="uVt"></path><path d="M 83.2,37.34 80.5,45.87 79.7,38.8 Z" id="uVu"></path><path d="m 69.9,45.67 3.9,-2.56 4.2,-.2 5.2,-5.56 -2.7,8.53 -8,2.53 z" fill="#eff1f1" id="uVv"></path><path d="m 68.5,41.9 -2.1,-2.6 .57,-3.05 4.2,-1.25 .44,-2.8 3.33,-1.3 6.14,1 .5,4.67 .97,1.2 -1.4,1.4 -7.95,3.03 -2.34,-.03 z" fill="#cfd5d5" id="uVw"></path><path d="m 68.5,41.9 1.9,-3.2 2.87,-1.5 2.2,.93 3.3,-.14 .8,-.56 -.64,1.77 -5.85,.75 z" id="uVx"></path><path d="m 66.97,36.26 3.44,2.44 2.87,-1.5 -2.2,-2.17 z" fill="#b0b8b8" id="uVy"></path><path d="m 75.5,38.1 -.66,-7.17 6.14,1 -1.4,5.47 -.8,.56 z" fill="#b0b8b8" id="uVz"></path><path d="m 73.13,42.27 -.04,-2.34 5.85,-.75 2.14,.06 z" fill="#b0b8b8" id="uVA"></path><path d="m 71.07,35 9.9,-3.07 -6.14,-1 -3.33,1.3 z" id="uVB"></path><path d="m 25.05,29.6 6.25,4 -1.85,3.9 -8.2,-4.3 z" id="uVC"></path><path d="m 38.86,20.56 7.1,-1.4 -5.07,-6.63 -5.86,-.07 2.2,4.3 -1.16,4.64 z" id="uVD"></path><path d="m 31.45,39.4 7.06,3.9 5.1,-1.7 -1.4,-3.57 -9.83,-.55 z" id="uVE"></path></defs>
<g id="content" transform="translate(0,0)"><path class="ColorScheme-Text" d="M 7.25,4 C 6.14,4 5.15,4.9 5.25,6 L 6.65,22.03 16,24 25.35,22.03 26.75,6 c .1,-1.1 -.9,-2 -2,-2 z" fill="currentColor" opacity=".4"/><g id="trash-contents" transform="matrix(.507,0,0,.507,-.293,-.457)">
<g transform="matrix(.27,-1.053,1.053,.27,-30.46,98.07)">
<use fill="#eff1f1" href="#uVl"></use>
<use fill="#b0b8b8" href="#uVm"></use>
<use href="#uVn"></use>
<use fill="#b0b8b8" href="#uVo"></use>
<use href="#uVp"></use>
</g>
<path d="m 333.7,66.5 -19.7,21.67 3.64,16.25 11.2,31.74 29.5,-5.2 9.27,-15.06 -12.1,-34.76 -11.6,2.77 z" opacity=".5" transform="matrix(.246,0,0,.246,-51.174,.9)"/>
<g transform="rotate(100.56,59.707,4.655)">
<use href="#uVq"></use>
<use fill="#b0b8b8" href="#uVr"></use>
<use href="#uVs"></use>
<use fill="#b0b8b8" href="#uVt"></use>
<use fill="#b0b8b8" href="#uVu"></use>
<use href="#uVv"></use>
</g>
<g transform="matrix(1.087,0,0,1.087,-61.947,-7.26)">
<path d="m 70.45,39.4 4.25,-.44 -.1,1.96 -1.36,4.67 3.83,1.2 6.96,-4.7 -1.26,-2.4 3.25,-3.2 -5.87,-3.1 -3.37,1.7 z" fill="#eff1f1"/>
<use fill="#b0b8b8" href="#uVm"></use>
<use href="#uVn"></use>
<use fill="#b0b8b8" href="#uVo"></use>
<path d="m 70.45,39.4 7.05,-2.45 5.3,2.83 -8.17,1.13 -1.36,4.67 .96,-6.17 z" fill="#6f8181"/>
</g>
<g transform="matrix(-1.24,.07,-.07,-1.24,135.425,55.033)">
<use href="#uVw"></use>
<use fill="#eff1f1" href="#uVx"></use>
<use href="#uVy"></use>
<use href="#uVz"></use>
<use href="#uVA"></use>
<use fill="#eff1f1" href="#uVB"></use>
</g>
<path d="m 17.5,7.15 -3.2,2.1 -1.4,5.2 .87,6.93 4.5,2.63 4.96,-2.25 -.8,-3.8 1.35,-6.76 z m 27.17,.55 -2.9,.13 -9.64,4.3 -1.6,1.84 1.3,1.45 .95,5.75 7.7,.8 4.03,-1.8 .34,-3.5 5,-1.84 .5,-3.8 -2.77,-3.1 z m -19.53,21.3 -3.66,1.86 -6.9,4.6 4.1,0 -1.04,6.7 4.16,1.3 7.56,-5 -1.37,-2.6 3.53,-3.5 z" opacity=".2"/>
<g transform="rotate(167.475,61.5,29.93)">
<use fill="#cfd5d5" href="#uVl"></use>
<use fill="#eff1f1" href="#uVm"></use>
<use href="#uVn"></use>
<use fill="#eff1f1" href="#uVo"></use>
<use href="#uVp"></use>
</g>
<g transform="translate(-36.493,-9.024)">
<use href="#uVq"></use>
<use fill="#909c9c" href="#uVr"></use>
<use href="#uVs"></use>
<use fill="#909c9c" href="#uVt"></use>
<use fill="#909c9c" href="#uVu"></use>
<use href="#uVv"></use>
</g>
<g transform="rotate(167.475,48.846,28.447)">
<use href="#uVw"></use>
<use fill="#eff1f1" href="#uVx"></use>
<use href="#uVy"></use>
<use href="#uVz"></use>
<use href="#uVA"></use>
<use fill="#909c9c" href="#uVB"></use>
</g>
<g transform="rotate(118.504,63.385,15.576)">
<use href="#uVw"></use>
<use fill="#909c9c" href="#uVx"></use>
<use href="#uVy"></use>
<use href="#uVz"></use>
<use href="#uVA"></use>
<use fill="#eff1f1" href="#uVB"></use>
</g>
<g transform="matrix(1.127,0,0,1.127,-55.89,-27.475)">
<use href="#uVw"></use>
<use fill="#909c9c" href="#uVx"></use>
<use href="#uVy"></use>
<use href="#uVz"></use>
<use href="#uVA"></use>
<use fill="#eff1f1" href="#uVB"></use>
</g>
<g transform="rotate(-142.69,58.245,45.66)">
<use href="#uVw"></use>
<use fill="#eff1f1" href="#uVx"></use>
<use href="#uVy"></use>
<use href="#uVz"></use>
<use href="#uVA"></use>
<use fill="#909c9c" href="#uVB"></use>
</g>
<path d="m 41.1,6.9 -3.3,.6 -1.37,1.86 -1.15,2.05 -1.13,8.43 .6,1.9 1.54,-.27 1.5,.6 -.9,.9 1.75,2.06 -2.47,3.85 3.13,.86 -3.06,-.04 -2.8,6.95 .86,.9 .03,1.24 -2.43,4 4.27,4.5 3.4,1 2.04,-1.96 4,1.5 2.4,-2.1 -.1,-3.34 -1.63,-1.64 -1.85,-1.45 -.73,-.2 4.45,-1.43 1.76,-4.9 -3.1,-4.47 -2.7,1.1 1.4,-1.17 5.27,-5.5 -4.1,-5.43 -2.1,-.17 .3,-2.34 -2.25,-1.7 .86,-4.2 z m -14.34,12.65 -2.3,.2 -2.4,.5 -7.1,4.7 -1.04,1.67 1.2,1 1.5,4.45 3.3,-.2 -5.43,3.63 4.1,0 -1.04,6.7 4.16,1.3 7.56,-5 -1.37,-2.6 3.53,-3.5 -5.65,-3 -.16,-2.5 3.73,-2.1 -.1,-3.1 z" opacity=".2"/>
<use fill="#01ff5b" href="#uVC"></use>
<use fill="#001909" href="#uVC" opacity=".2"></use>
<path d="m 29.45,37.5 -7.36,-1.7 -.83,-2.6 7.44,3.4 1.96,-.9 z" fill="#01ff5b"/>
<use fill="#ffa92d" href="#uVD"></use>
<use fill="#3daefd" href="#uVE"></use>
<use href="#uVE" opacity=".2"></use>
<g transform="rotate(100.56,58.634,12.673)">
<use href="#uVq"></use>
<use fill="#b0b8b8" href="#uVr"></use>
<use href="#uVs"></use>
<use fill="#b0b8b8" href="#uVt"></use>
<use fill="#b0b8b8" href="#uVu"></use>
<use href="#uVv"></use>
</g>
<use fill="#010202" href="#uVD" opacity=".2"></use>
<g transform="rotate(-157.83,55.22,32.353)">
<use href="#uVw"></use>
<use fill="#536161" href="#uVx"></use>
<use href="#uVy"></use>
<use href="#uVz"></use>
<use href="#uVA"></use>
<use fill="#909c9c" href="#uVB"></use>
</g>
<g transform="matrix(.28,1.05,-1.05,.28,56.043,-58.51)">
<use fill="#eff1f1" href="#uVl"></use>
<use fill="#b0b8b8" href="#uVm"></use>
<use href="#uVn"></use>
<use fill="#b0b8b8" href="#uVo"></use>
<path d="m 70.45,39.4 7.05,-2.45 -4.5,2.57 1.6,1.4 -1.36,4.67 .26,-4.2 z" fill="#536161"/>
</g>
<g transform="translate(-48.26,6.82)">
<use href="#uVw"></use>
<use fill="#909c9c" href="#uVx"></use>
<use href="#uVy"></use>
<use href="#uVz"></use>
<use href="#uVA"></use>
<use fill="#eff1f1" href="#uVB"></use>
</g>
<path d="m 38.5,43.2 3.7,-5.27 2.45,1.4 -1.07,2.14 z" fill="#3daefd"/>
<path d="m 35.04,12.44 5.86,.07 -3.2,2.6 -1,2.64 -5.74,-.8 .6,-2.9 z" fill="#ffa92d"/>
</g><path class="ColorScheme-Text" d="M 7.25 4 C 6.14 4 5.15 4.9 5.25 6 L 6.65 22.03 L 16 24 L 25.35 22.03 L 26.75 6 C 26.85 4.9 25.86 4 24.75 4 L 7.25 4 z " fill="currentColor" opacity=".4"/><path class="ColorScheme-Text" d="M 7.25 4 C 6.14 4 5.15 4.9 5.25 6 L 6.65 22 L 8 23 L 7.65 22 L 6.25 6 C 6.15 4.9 7.14 4 8.25 4 L 7.25 4 z M 23.75 4 C 24.86 4 25.85 4.9 25.75 6 L 24.35 22 L 24 23 L 25.35 22 L 26.75 6 C 26.85 4.9 25.86 4 24.75 4 L 23.75 4 z " fill="currentColor" opacity=".4"/><path d="M 6.65 22 L 7 26 C 7.1 27.1 7.9 28 9 28 L 23 28 C 24.1 28 24.9 27.1 25 26 L 25.35 22 L 6.65 22 z " fill="url(#uVj)" id="metal-cup"/><path d="M 7.25,4 C 6.14,4 5.15,4.9 5.25,6 L 7,26 c .1,1.1 .9,2 2,2 h 3 V 4 Z" fill="url(#uVh)" opacity=".2"/><path d="M 20 4 L 20 28 L 23 28 C 24.1 28 24.9 27.1 25 26 L 26.75 6 C 26.85 4.9 25.86 4 24.75 4 L 20 4 z " fill="url(#uVi)" opacity=".2"/><path class="ColorScheme-Contrast" d="M 6.6 21.5 L 6.65 22 L 25.35 22 L 25.4 21.5 L 6.6 21.5 z " fill="currentColor" opacity=".1"/><path class="ColorScheme-Complement" d="M 6.65 22 L 6.7 22.5 L 25.3 22.5 L 25.35 22 L 6.65 22 z " fill="currentColor" opacity=".1"/><path class="ColorScheme-Contrast" d="M 7.25,4 C 6.14,4 5.15,4.9 5.25,6 L 5.3,6.47 C 5.5,5.6 6.33,5 7.25,5 h 17.5 c .9,0 1.76,.6 1.96,1.47 L 26.75,6 c .1,-1.1 -.9,-2 -2,-2 z" fill="currentColor" opacity=".05"/><path class="ColorScheme-Contrast" d="M 7.25 4 C 6.14 4 5.15 4.9 5.25 6 L 5.26 6.1 C 5.4 5.2 6.27 4.5 7.25 4.5 L 24.75 4.5 C 25.73 4.5 26.6 5.2 26.74 6.1 L 26.75 6 C 26.85 4.9 25.86 4 24.75 4 L 7.25 4 z " fill="currentColor" opacity=".1"/><path class="ColorScheme-Contrast" d="M 6.9,25.1 7,26 c .1,1.1 .9,2 2,2 h 14 c 1.1,0 1.9,-.9 2,-2 l .1,-.9 C 24.9,26.15 24.07,27 23,27 H 9 C 7.93,27 7.1,26.15 6.9,25.1 Z" fill="currentColor" opacity=".1"/><path class="ColorScheme-Contrast" d="M 6.9,25.1 7,26 c .1,1.1 .9,2 2,2 h 14 c 1.1,0 1.9,-.9 2,-2 l .1,-.9 c -0,.1 -.04,.2 -.07,.3 L 25,25.5 c -.1,1.1 -.9,2 -2,2 H 9 c -1.1,0 -1.9,-.9 -2,-2 L 7,25.4 C 6.96,25.3 6.94,25.2 6.9,25.1 Z" fill="currentColor" opacity=".2"/><path d="M 7.25,4 C 6.14,4 5.15,4.9 5.25,6 L 7,26 c .1,1.1 .9,2 2,2 h 14 c 1.1,0 1.9,-.9 2,-2 L 26.75,6 c .1,-1.1 -.9,-2 -2,-2 z" fill="url(#uVk)" id="gloss" opacity=".2"/></g>
</svg>