<svg version="1.1" viewBox="0 0 32 32" xmlns="http://www.w3.org/2000/svg" xmlns:xlink="http://www.w3.org/1999/xlink">
    <linearGradient id="a">
        <stop stop-color="#4f575f" stop-opacity=".4" offset="0"/>
        <stop stop-color="#4f575f" stop-opacity=".6" offset=".5"/>
        <stop stop-color="#4f575f" stop-opacity=".4" offset="1"/>
    </linearGradient>
    <radialGradient id="b" cx="16" cy="8.5" r="4" gradientTransform="matrix(1.75 0 0 1.5 372.571 508.048)" gradientUnits="userSpaceOnUse">
        <stop stop-color="#4f575f" stop-opacity="0" offset="0"/>
        <stop stop-color="#9da5ab" offset="1"/>
    </radialGradient>
    <linearGradient id="c" x1="412.571" x2="412.571" y1="522.798" y2="520.798" gradientUnits="userSpaceOnUse">
        <stop stop-color="#9da5ab" offset="0"/>
        <stop stop-color="#bdc3c7" offset="1"/>
    </linearGradient>
    <linearGradient id="d" x1="390.571" x2="410.57098" y1="545.798" y2="525.79797" gradientUnits="userSpaceOnUse">
        <stop stop-color="#95a5a6" offset="0"/>
        <stop stop-color="#7f8c8d" offset="1"/>
    </linearGradient>
    <linearGradient id="e" x1="395.571" x2="395.571" y1="520.798" y2="516.798" gradientUnits="userSpaceOnUse">
        <stop stop-color="#afb0b3" offset="0"/>
        <stop stop-color="#bdc3c7" offset="1"/>
    </linearGradient>
    <linearGradient id="f" x1="389.571" x2="405.071" y1="522.798" y2="538.298" gradientTransform="translate(0,1)" gradientUnits="userSpaceOnUse">
        <stop stop-color="#292c2f" offset="0"/>
        <stop stop-opacity="0" offset="1"/>
    </linearGradient>
    <linearGradient id="g" x1="391.571" x2="394.571" y1="534.798" y2="534.798" gradientTransform="matrix(.66667 0 0 1 135.524 -1)" gradientUnits="userSpaceOnUse" xlink:href="#a"/>
    <linearGradient id="h" x1="391.571" x2="394.571" y1="534.798" y2="534.798" gradientTransform="matrix(.66667 0 0 1 130.523 -1)" gradientUnits="userSpaceOnUse" xlink:href="#a"/>
    <linearGradient id="i" x1="391.571" x2="394.571" y1="534.798" y2="534.798" gradientTransform="matrix(.66667 0 0 1 141.523 -1)" gradientUnits="userSpaceOnUse" xlink:href="#a"/>
    <linearGradient id="j" x1="391.571" x2="394.571" y1="534.798" y2="534.798" gradientTransform="matrix(.66667 0 0 1 146.524 -1)" gradientUnits="userSpaceOnUse" xlink:href="#a"/>
    <path transform="translate(-384.571 -515.798)" d="m391.57101 521.79797h18c0.554 0 1 0.446 1 1v22c0 0.554-0.446 1-1 1h-18c-0.554 0-1-0.446-1-1v-22c0-0.554 0.446-1 1-1z" fill="url(#d)"/>
    <path transform="translate(-384.571 -515.798)" d="m396.571 517.798c-.554 0-1 .446-1 1v2h2v-.75a.25.25 0 0 1 .233-.25h5.535a.25.25 0 0 1 .232.25v.75h2v-2c0-.554-.446-1-1-1z" fill="url(#e)"/>
    <path transform="translate(-384.571 -515.798)" d="m397.071 518.798c-.277 0-.5.223-.5.5v1.5h1v-.75a.25.25 0 0 1 .233-.25h5.535a.25.25 0 0 1 .232.25v.75h1v-1.5c0-.277-.223-.5-.5-.5z" fill="url(#b)"/>
    <path transform="translate(-384.571 -515.798)" d="m389.571 520.798c-.554 0-1 .446-1 1v1h24v-1c0-.554-.446-1-1-1z" fill="url(#c)"/>
    <path transform="translate(-384.571 -515.798)" d="m397.57101 523.79797c0.554 0 1 0.446 1 1v18c0 0.554-0.446 1-1 1s-1-0.446-1-1v-18c0-0.554 0.446-1 1-1z" fill="url(#g)"/>
    <path transform="translate(-384.571 -515.798)" d="m392.57101 523.79797c0.554 0 1 0.446 1 1v18c0 0.554-0.446 1-1 1s-1-0.446-1-1v-18c0-0.554 0.446-1 1-1z" fill="url(#h)"/>
    <path transform="translate(-384.571 -515.798)" d="m403.57101 523.79797c0.554 0 1 0.446 1 1v18c0 0.554-0.446 1-1 1s-1-0.446-1-1v-18c0-0.554 0.446-1 1-1z" fill="url(#i)"/>
    <path transform="translate(-384.571 -515.798)" d="m408.57101 523.79797c0.554 0 1 0.446 1 1v18c0 0.554-0.446 1-1 1s-1-0.446-1-1v-18c0-0.554 0.446-1 1-1z" fill="url(#j)"/>
    <path transform="translate(-384.571 -515.798)" d="m390.571 522.798v2l20 20v-22z" fill="url(#f)" opacity=".2"/>
    <path d="m6 29c0 .554.446 1 1 1h18c.554 0 1-.446 1-1z" fill-rule="evenodd" opacity=".2"/>
</svg>
