<svg width="16" height="16" viewBox="0 0 16 16" fill="none" xmlns="http://www.w3.org/2000/svg"><style type="text/css" id="current-color-scheme">.ColorScheme-Text { color: #232629; }</style>
<path fill-rule="evenodd" clip-rule="evenodd" d="M2.41752 9.92078C2.15191 9.82548 1.70953 9.75 1 9.75V8.25C1.79047 8.25 2.42763 8.33077 2.9241 8.50891C3.43604 8.6926 3.8397 8.99699 4.06246 9.45075C4.27509 9.88389 4.2642 10.337 4.20429 10.7031C4.14453 11.0683 4.0193 11.4385 3.91344 11.7449C3.90375 11.7729 3.8942 11.8005 3.88482 11.8276C3.78326 12.1209 3.70045 12.3601 3.65159 12.5804C3.59742 12.8246 3.61293 12.9346 3.62651 12.9739C3.63045 12.9853 3.6347 12.9932 3.64691 13.0053C3.66178 13.02 3.70232 13.0538 3.7953 13.0923C3.99376 13.1745 4.36069 13.25 5 13.25V14.75C4.27567 14.75 3.68238 14.6692 3.22103 14.478C2.73053 14.2747 2.372 13.9363 2.20872 13.4636C2.06036 13.0342 2.11138 12.5973 2.18719 12.2556C2.25604 11.9452 2.36847 11.6214 2.4641 11.3461C2.47486 11.3151 2.4854 11.2848 2.49565 11.2551C2.6057 10.9365 2.68786 10.6817 2.72398 10.4609C2.75994 10.2411 2.73343 10.1474 2.71595 10.1118L2.71581 10.1115C2.70805 10.0956 2.66604 10.0099 2.41752 9.92078Z" fill="currentColor" class="ColorScheme-Text"/>
<path fill-rule="evenodd" clip-rule="evenodd" d="M2.41752 8.07922C2.15191 8.17452 1.70953 8.25 1 8.25V9.75C1.79047 9.75 2.42763 9.66923 2.9241 9.49109C3.43604 9.3074 3.8397 9.00301 4.06246 8.54925C4.27509 8.11611 4.2642 7.663 4.20429 7.29685C4.14453 6.93165 4.0193 6.56154 3.91344 6.25511C3.90375 6.22706 3.8942 6.19949 3.88482 6.17239C3.78326 5.87906 3.70045 5.63987 3.65159 5.41962C3.59742 5.17541 3.61293 5.06543 3.62651 5.02614C3.63045 5.01472 3.6347 5.00677 3.64691 4.9947C3.66178 4.98 3.70232 4.94624 3.7953 4.9077C3.99376 4.82546 4.36069 4.75 5 4.75V3.25C4.27567 3.25 3.68238 3.33079 3.22103 3.52199C2.73053 3.72526 2.372 4.0637 2.20872 4.53636C2.06036 4.96582 2.11138 5.40272 2.18719 5.74445C2.25604 6.05485 2.36847 6.37856 2.4641 6.65387C2.47486 6.68485 2.4854 6.71522 2.49565 6.74489C2.6057 7.06346 2.68786 7.31835 2.72398 7.53909C2.75994 7.75888 2.73343 7.85264 2.71595 7.88825L2.71581 7.88855C2.70805 7.90436 2.66604 7.99005 2.41752 8.07922Z" fill="currentColor" class="ColorScheme-Text"/>
<path fill-rule="evenodd" clip-rule="evenodd" d="M13.5825 9.92078C13.8481 9.82548 14.2905 9.75 15 9.75V8.25C14.2095 8.25 13.5724 8.33077 13.0759 8.50891C12.564 8.6926 12.1603 8.99699 11.9375 9.45075C11.7249 9.88389 11.7358 10.337 11.7957 10.7031C11.8555 11.0683 11.9807 11.4385 12.0866 11.7449C12.0963 11.7729 12.1058 11.8005 12.1152 11.8276C12.2167 12.1209 12.2996 12.3601 12.3484 12.5804C12.4026 12.8246 12.3871 12.9346 12.3735 12.9739C12.3695 12.9853 12.3653 12.9932 12.3531 13.0053C12.3382 13.02 12.2977 13.0538 12.2047 13.0923C12.0062 13.1745 11.6393 13.25 11 13.25V14.75C11.7243 14.75 12.3176 14.6692 12.779 14.478C13.2695 14.2747 13.628 13.9363 13.7913 13.4636C13.9396 13.0342 13.8886 12.5973 13.8128 12.2556C13.744 11.9452 13.6315 11.6214 13.5359 11.3461C13.5251 11.3151 13.5146 11.2848 13.5043 11.2551C13.3943 10.9365 13.3121 10.6817 13.276 10.4609C13.2401 10.2411 13.2666 10.1474 13.284 10.1118L13.2842 10.1115C13.2919 10.0956 13.334 10.0099 13.5825 9.92078Z" fill="currentColor" class="ColorScheme-Text"/>
<path fill-rule="evenodd" clip-rule="evenodd" d="M13.5825 8.07922C13.8481 8.17452 14.2905 8.25 15 8.25V9.75C14.2095 9.75 13.5724 9.66923 13.0759 9.49109C12.564 9.3074 12.1603 9.00301 11.9375 8.54925C11.7249 8.11611 11.7358 7.663 11.7957 7.29685C11.8555 6.93165 11.9807 6.56154 12.0866 6.25511C12.0963 6.22706 12.1058 6.19949 12.1152 6.17239C12.2167 5.87906 12.2996 5.63987 12.3484 5.41962C12.4026 5.17541 12.3871 5.06543 12.3735 5.02614C12.3695 5.01472 12.3653 5.00677 12.3531 4.9947C12.3382 4.98 12.2977 4.94624 12.2047 4.9077C12.0062 4.82546 11.6393 4.75 11 4.75V3.25C11.7243 3.25 12.3176 3.33079 12.779 3.52199C13.2695 3.72526 13.628 4.0637 13.7913 4.53636C13.9396 4.96582 13.8886 5.40272 13.8128 5.74445C13.744 6.05485 13.6315 6.37856 13.5359 6.65387C13.5251 6.68485 13.5146 6.71522 13.5043 6.74489C13.3943 7.06346 13.3121 7.31835 13.276 7.53909C13.2401 7.75888 13.2666 7.85264 13.284 7.88825L13.2842 7.88855C13.2919 7.90436 13.334 7.99005 13.5825 8.07922Z" fill="currentColor" class="ColorScheme-Text"/>
<path d="M7.5 2.5H8.5H9.5L8.5 1.5L7.5 2.5Z" fill="#3DAEE9"/>
<path fill-rule="evenodd" clip-rule="evenodd" d="M8.5 0.439331L11.3107 3.24999H9.31187C9.40475 4.48631 9.47126 5.71008 9.48433 6.82716C9.50011 8.17629 9.43908 9.41899 9.23214 10.3502C9.12954 10.8119 8.97841 11.2583 8.73844 11.6096C8.48641 11.9785 8.09516 12.2931 7.55188 12.3194C7.05395 12.3435 6.59453 12.1136 6.1993 11.812C5.79331 11.5022 5.36512 11.0482 4.90799 10.4604L6.09202 9.53954C6.50989 10.0768 6.84733 10.4197 7.10931 10.6196C7.30215 10.7668 7.41409 10.8063 7.45833 10.817C7.46821 10.8064 7.48205 10.7895 7.49985 10.7635C7.5841 10.6401 7.68297 10.4068 7.76786 10.0248C7.93593 9.26849 7.9999 8.16744 7.98443 6.8447C7.97146 5.73606 7.90349 4.50599 7.80757 3.24999H5.68934L8.5 0.439331ZM7.43991 10.8331C7.4399 10.8327 7.44197 10.831 7.4461 10.8289C7.44198 10.8324 7.43991 10.8335 7.43991 10.8331Z" fill="#3DAEE9"/>
</svg>
