<svg xmlns="http://www.w3.org/2000/svg" viewBox="0 0 16 16">
  <defs id="defs3051">
    <style type="text/css" id="current-color-scheme">
      .ColorScheme-Text {
        color:#4d4d4d;
      }
      </style>
  </defs>
 <path style="fill:currentColor;fill-opacity:1;stroke:none" 
       d="m 7,1033.3622 0,1.3334 -2.6666667,0 0,14.6667 5.3333334,0 1.3333333,0 5.333333,0 1.333334,0 0,-1.3334 0,-5.3333 0,-8 -2.666667,0 0,-1.3334 -8,0 z m -1.3333333,2.6667 1.3333333,0 0,1.3333 8,0 0,-1.3333 1.333333,0 0,2.6667 0,8 0,1.3333 -5.333333,0 -1.3333333,0 -4,0 0,-1.3333 0,-8 0,-2.6667 z m 1.3333333,4 0,1.3333 6.666667,0 0,-1.3333 -6.666667,0 z m 0,4 0,1.3333 4,0 0,-1.3333 -4,0 z"
     class="ColorScheme-Text"
     />
</svg>
