<svg id="svg1" version="1.1" viewBox="0 0 16 16" xmlns="http://www.w3.org/2000/svg">
<!--
SPDX-FileCopyrightText: 2024 g10 Code GmbH
SPDX-Contributor: Carl Schwan <carlschwan@gnupg.com>
SPDX-License-Identifier: LGPL-2.1-or-later
-->
    <defs id="defs1">
        <style id="current-color-scheme" type="text/css">.ColorScheme-Text {
                color:#232629;
            }</style>
    </defs>
    <path id="path1" class="ColorScheme-Text" d="m2 2v1 3 1 6 1h6v-0.960938l-5-0.039062v-6h10v1h1v-2-1-1h-4.9921875l-2-2-0.0078125 0.0078125v-0.0078125h-4-1zm1 1h3.5917969l1.0019531 1h-0.59375v0.0078125l-0.0078125-0.0078125-2 2h-1.9921875v-3zm8.5 5c-0.828399 0-1.5 0.6715708-1.5 1.5v1.5h-1v3h5v-3h-1v-1.5c0-0.8284292-0.671601-1.5-1.5-1.5zm0 1c0.2761 0 0.5 0.2238603 0.5 0.5v1.5h-1v-1.5c0-0.2761397 0.2239-0.5 0.5-0.5z" fill="currentColor"/>
</svg>
