<?xml version="1.0" encoding="UTF-8" standalone="no"?>
<!-- Created with Inkscape (http://www.inkscape.org/) -->

<svg
   xmlns:dc="http://purl.org/dc/elements/1.1/"
   xmlns:cc="http://creativecommons.org/ns#"
   xmlns:rdf="http://www.w3.org/1999/02/22-rdf-syntax-ns#"
   xmlns:svg="http://www.w3.org/2000/svg"
   xmlns="http://www.w3.org/2000/svg"
   xmlns:sodipodi="http://sodipodi.sourceforge.net/DTD/sodipodi-0.dtd"
   xmlns:inkscape="http://www.inkscape.org/namespaces/inkscape"
   width="16"
   height="16"
   id="svg3049"
   version="1.1"
   inkscape:version="0.91 r13725"
   sodipodi:docname="format-precision-less.svg"
   inkscape:export-filename="/home/uri/.kde/share/icons/NITRUX-KDE/16x16/actions/view-right-new.png"
   inkscape:export-xdpi="30"
   inkscape:export-ydpi="30">
  <defs
     id="defs3051">
    <style
       type="text/css"
       id="current-color-scheme">
      .ColorScheme-Text {
        color:#4d4d4d;
      }
      .ColorScheme-Background {
        color:#eff0f1;
      }
      .ColorScheme-Highlight {
        color:#3daee9;
      }
      .ColorScheme-ViewText {
        color:#31363b;
      }
      .ColorScheme-ViewBackground {
        color:#fcfcfc;
      }
      .ColorScheme-ViewHover {
        color:#93cee9;
      }
      .ColorScheme-ViewFocus{
        color:#3daee9;
      }
      .ColorScheme-ButtonText {
        color:#31363b;
      }
      .ColorScheme-ButtonBackground {
        color:#eff0f1;
      }
      .ColorScheme-ButtonHover {
        color:#93cee9;
      }
      .ColorScheme-ButtonFocus{
        color:#3daee9;
      }
      </style>
  </defs>
  <sodipodi:namedview
     id="base"
     pagecolor="#ffffff"
     bordercolor="#666666"
     borderopacity="1.0"
     inkscape:pageopacity="0.0"
     inkscape:pageshadow="2"
     inkscape:zoom="26.516492"
     inkscape:cx="5.2879402"
     inkscape:cy="4.2327739"
     inkscape:document-units="px"
     inkscape:current-layer="layer1"
     showgrid="true"
     fit-margin-top="0"
     fit-margin-left="0"
     fit-margin-right="0"
     fit-margin-bottom="0"
     inkscape:window-width="956"
     inkscape:window-height="1013"
     inkscape:window-x="-4"
     inkscape:window-y="0"
     inkscape:window-maximized="0"
     inkscape:showpageshadow="false"
     borderlayer="true"
     inkscape:snap-bbox="true"
     inkscape:snap-global="true"
     inkscape:object-nodes="true">
    <inkscape:grid
       type="xygrid"
       id="grid4085" />
    <sodipodi:guide
       position="2.0000044,14.00003"
       orientation="12,0"
       id="guide4075" />
    <sodipodi:guide
       position="2.0000044,2.0000296"
       orientation="4.2285741e-06,1"
       id="guide4077" />
    <sodipodi:guide
       position="14,9"
       orientation="-12,0"
       id="guide4079" />
    <sodipodi:guide
       position="14,14"
       orientation="0,-12"
       id="guide4081" />
  </sodipodi:namedview>
  <metadata
     id="metadata3054">
    <rdf:RDF>
      <cc:Work
         rdf:about="">
        <dc:format>image/svg+xml</dc:format>
        <dc:type
           rdf:resource="http://purl.org/dc/dcmitype/StillImage" />
        <dc:title></dc:title>
      </cc:Work>
    </rdf:RDF>
  </metadata>
  <g
     inkscape:label="Capa 1"
     inkscape:groupmode="layer"
     id="layer1"
     transform="translate(-421.71429,-531.79074)">
    <g
       id="layer1-2"
       inkscape:label="Capa 1">
      <g
         inkscape:label="Capa 1"
         id="layer1-1"
         transform="translate(418.71429,-499.57146)" />
      <g
         transform="matrix(-1,0,0,1,859.42858,0)"
         id="g5674">
        <g
           transform="matrix(-1,0,0,1,455.64781,-508.31208)"
           inkscape:label="Capa 1"
           id="layer1-6" />
        <rect
           transform="matrix(-1,0,0,1,437.71429,531.79074)"
           y="9"
           x="2"
           height="1"
           width="1"
           id="rect3984"
           style="color:#000000;display:inline;overflow:visible;visibility:visible;fill:#4d4d4d;fill-opacity:1;fill-rule:nonzero;stroke:none;stroke-width:2;marker:none;enable-background:accumulate" />
        <path
           id="path3986"
           transform="matrix(-1,0,0,1,437.71429,531.79074)"
           d="M 5.5,2 C 4.11929,2 3,3.11929 3,4.5 l 0,3 C 3,8.8807119 4.1192881,10 5.5,10 6.8807119,10 8,8.8807119 8,7.5 l 0,-3 C 8,3.11929 6.88071,2 5.5,2 Z m 0,1 C 6.32843,3 7,3.67157 7,4.5 l 0,3 C 7,8.3284271 6.3284271,9 5.5,9 4.6715729,9 4,8.3284271 4,7.5 l 0,-3 C 4,3.67157 4.67157,3 5.5,3 Z"
           style="color:#000000;display:inline;overflow:visible;visibility:visible;fill:#4d4d4d;fill-opacity:1;fill-rule:nonzero;stroke:none;stroke-width:2;marker:none;enable-background:accumulate"
           inkscape:connector-curvature="0" />
        <path
           id="path3986-9"
           transform="matrix(-1,0,0,1,437.71429,531.79074)"
           d="M 11.5,2 C 10.11929,2 9,3.11929 9,4.5 l 0,3 C 9,8.88071 10.11929,10 11.5,10 12.88071,10 14,8.88071 14,7.5 l 0,-3 C 14,3.11929 12.88071,2 11.5,2 Z m 0,1 C 12.32843,3 13,3.67157 13,4.5 L 13,7 13,7.5 C 13,8.32843 12.32843,9 11.5,9 10.67157,9 10,8.32843 10,7.5 l 0,-3 C 10,3.67157 10.67157,3 11.5,3 Z"
           style="color:#000000;display:inline;overflow:visible;visibility:visible;fill:#b3b3b3;fill-opacity:1;fill-rule:nonzero;stroke:none;stroke-width:2;marker:none;enable-background:accumulate"
           inkscape:connector-curvature="0" />
        <path
           style="color:#000000;display:inline;overflow:visible;visibility:visible;fill:#da4453;fill-opacity:1;fill-rule:evenodd;stroke:none;stroke-width:2;marker:none;enable-background:accumulate"
           d="m 428.33561,542.25524 -1.41421,1.4142 1.41421,1.4142 -0.70711,0.7071 -1.41421,-1.4142 -1.41421,1.4142 -0.70711,-0.7071 1.41421,-1.4142 -1.41421,-1.4142 0.70711,-0.7071 1.41421,1.4142 1.41421,-1.4142 0.70711,0.7071 z"
           id="rect3767-3-6"
           inkscape:connector-curvature="0" />
      </g>
    </g>
  </g>
</svg>
