<svg xmlns="http://www.w3.org/2000/svg" viewBox="0 0 16 16">
  <defs id="defs3051">
    <style type="text/css" id="current-color-scheme">
      .ColorScheme-Text {
        color:#4d4d4d;
      }
      </style>
  </defs>
 <path style="fill:currentColor;fill-opacity:1;stroke:none" 
     d="M 13 2 L 13 2.5957031 L 12.990234 2.5957031 C 12.990234 2.5957031 13.041684 3.5196769 12.896484 4.4042969 C 12.823984 4.8466269 12.697002 5.2679038 12.539062 5.5273438 C 12.381124 5.7867838 12.255491 5.8879887 11.994141 5.8867188 C 11.807471 5.8857688 11.687783 5.7958938 11.501953 5.4960938 C 11.316123 5.1963137 11.134802 4.7224225 10.951172 4.2265625 C 10.767542 3.7307025 10.584465 3.2129875 10.296875 2.7734375 C 10.009295 2.3338975 9.5224825 1.9469525 8.9453125 2.0078125 C 8.4078725 2.0645125 8.0345425 2.5267456 7.8515625 2.9785156 C 7.6685925 3.4302856 7.5885794 3.9270213 7.5058594 4.3945312 C 7.4231594 4.8620412 7.3367056 5.3012494 7.2285156 5.5683594 C 7.1203256 5.8354694 7.0781356 5.8748719 6.9472656 5.8886719 C 6.7707156 5.9072719 6.6877294 5.8485538 6.5058594 5.5585938 C 6.3239794 5.2685636 6.1410513 4.7838606 5.9570312 4.2753906 C 5.7730212 3.7669306 5.5894244 3.23235 5.3027344 2.78125 C 5.0160444 2.33015 4.5207669 1.9298156 3.9355469 2.0097656 C 3.3560369 2.0889656 2.954445 2.5628456 2.703125 3.0722656 C 2.451815 3.5816956 2.303725 4.1739469 2.203125 4.7480469 C 2.001905 5.8962469 2 6.9921875 2 6.9921875 L 3 6.9980469 C 3 6.9980469 3.0071469 5.9799875 3.1855469 4.9609375 C 3.2748469 4.4514175 3.409825 3.9466286 3.578125 3.6054688 C 3.746435 3.2642986 3.8989237 3.1331381 4.0585938 3.1113281 C 4.2353037 3.0871281 4.3069481 3.1376119 4.4863281 3.4199219 C 4.6657281 3.7021819 4.84741 4.1814831 5.03125 4.6894531 C 5.21508 5.1974231 5.4001769 5.7363262 5.6855469 6.1914062 C 5.9709069 6.6464963 6.4552787 7.0561106 7.0429688 6.9941406 C 7.5803987 6.9374406 7.9556819 6.4752175 8.1386719 6.0234375 C 8.3216419 5.5716675 8.401645 5.0749219 8.484375 4.6074219 C 8.567075 4.1399019 8.6535386 3.7007038 8.7617188 3.4335938 C 8.8699086 3.1664937 8.9101356 3.1270913 9.0410156 3.1132812 C 9.2280756 3.0935814 9.3084681 3.150065 9.4863281 3.421875 C 9.6641781 3.693695 9.8465168 4.1548575 10.029297 4.6484375 C 10.212077 5.1420075 10.396414 5.6692069 10.677734 6.1230469 C 10.959074 6.5768669 11.409224 6.9931538 11.990234 6.9960938 C 12.590274 6.9990938 13.080654 6.6178506 13.365234 6.1503906 C 13.649824 5.6829306 13.792116 5.1325056 13.878906 4.6035156 C 13.988375 3.9362624 14.000052 3.3903771 13.996094 3 L 14 3 L 14 2 L 13 2 z M 5 8 C 4.58334 8 4.2250781 8.1710562 3.8613281 8.3789062 C 3.4975881 8.5867662 3.1377 8.849205 2.8125 9.109375 C 2.49266 9.365245 2.20936 9.61937 2 9.8125 L 2 11.207031 L 2.3535156 10.853516 C 2.3535156 10.853516 2.8379 10.370315 3.4375 9.890625 C 3.73731 9.650785 4.0649119 9.4132338 4.3574219 9.2460938 C 4.6499219 9.0789438 4.91667 9 5 9 C 5.75 9 6.4120287 9.6065688 7.1679688 10.355469 C 7.9239088 11.104379 8.77093 12 10 12 C 11.16667 12 12.234674 11.444466 13.027344 10.916016 C 13.435884 10.643656 13.76671 10.379194 14 10.177734 L 14 8.7929688 L 13.646484 9.1464844 C 13.646484 9.1464844 13.179986 9.6124344 12.472656 10.083984 C 11.765326 10.555534 10.83334 11 10 11 C 9.28543 11 8.6311969 10.395621 7.8730469 9.6445312 C 7.1149069 8.8934413 6.25 8 5 8 z M 2 13 L 2 14 L 14 14 L 14 13 L 2 13 z "
     class="ColorScheme-Text"
     />
</svg>
