<svg xmlns="http://www.w3.org/2000/svg" viewBox="0 0 16 16">
 <g fill="#da4453" transform="translate(-421.71-531.79)">
  <g fill-rule="evenodd">
   <path d="m7 2v1.102a5 5 0 0 0 -1.753906 .730469l-.781-.781-1.414 1.414.781.781a5 5 0 0 0 -.726562 1.753906h-1.105v2h1.102a5 5 0 0 0 .730469 1.753906l-.781.781 1.414 1.414.781-.781a5 5 0 0 0 1.753906 .726562v1.105h1v-2a4 4 0 0 1 -2.869141 -1.212891 4 4 0 0 1 -1.130859 -2.787109 4 4 0 0 1 1.212891 -2.869141 4 4 0 0 1 2.787109 -1.130859 4 4 0 0 1 2.869141 1.212891 4 4 0 0 1 1.130859 2.787109h2v-1h-1.102a5 5 0 0 0 -.730469 -1.753906l.781-.781-1.414-1.414-.781.781a5 5 0 0 0 -1.753906 -.726562v-1.105z" transform="translate(421.71 531.79)"/>
   <path d="m428.71 537.79v4l3-2z"/>
  </g>
  <path color="#000" d="m432.71 540.79v3.094l-2-2v1.406l2.281 2.313.219.188.219-.188 2.281-2.313v-1.406l-2 2v-3.094z"/>
 </g>
</svg>
