<?xml version="1.0" encoding="UTF-8"?>
<svg id="svg859" width="16" height="16" version="1.1" viewBox="0 0 16 16" xmlns="http://www.w3.org/2000/svg">
 <defs id="defs2">
  <style id="current-color-scheme" type="text/css">.ColorScheme-Text {
                color:#232629;
            }</style>
 </defs>
 <g id="layer1" class="ColorScheme-Text" fill="currentColor">
  <path id="path1424" d="m6.916 0c2.9278 3.13e-5 5.428 2.1132 5.916 5h-1.0176c-0.47515-2.3278-2.5227-3.9997-4.8984-4-1.9879 2.166e-4 -3.7869 1.178-4.582 3h3.582v1h-5v-5h1v2.6836c1.1116-1.676 2.9889-2.6835 5-2.6836z"/>
  <path id="path890-3" class="ColorScheme-Text" d="m3.2422 6c-1.1046-6e-7 -2 0.89543-2 2 0 1.1046 0.89543 2 2 2 1.1046 1e-6 2-0.89543 2-2 0-1.1046-0.89543-2-2-2zm2e-6 5c-1.6569-1e-6 -3 1.3991-3 3.125 0.00158 0.67681 0.21405 1.3348 0.60547 1.875h4.793c0.39002-0.54072 0.60111-1.1987 0.60156-1.875 1e-6 -1.7259-1.3431-3.125-3-3.125zm0 1c1.1046 1e-6 2 1.0074 2 2.25-9.019e-4 0.25568-0.040532 0.50931-0.11719 0.75h-3.7656c-0.076657-0.24069-0.11629-0.49432-0.11719-0.75 4e-7 -1.2426 0.89543-2.25 2-2.25z" color="#232629" fill="#232629"/>
  <path id="path890-3-3" class="ColorScheme-Text" d="m9 4c-1.1046 0-2 0.89543-2 2 0 1.1046 0.89543 2 2 2 1.1046 0 2-0.89543 2-2 0-1.1046-0.89543-2-2-2zm0.01562 5c-1.5188 0-2.7642 1.1631-2.9785 2.6719 0.58287 0.66214 0.96289 1.3281 0.96289 2.3281h4.4297c0.39322-0.54062 0.60674-1.1986 0.60742-1.875 1e-6 -1.7259-1.3522-3.125-3.0215-3.125zm-0.04883 1c1.1026 0 1.9961 0.83947 1.9961 1.875-4.47e-4 0.40586-0.14066 0.80063-0.40039 1.125h-2.8203c-0.08565-0.53851-0.35719-1.0199-0.74219-1.3984 0.14153-0.90529 0.9636-1.6016 1.9668-1.6016z" color="#232629" fill="currentColor"/>
 </g>
</svg>
