<svg version="1.1" viewBox="0 0 16 16" xmlns="http://www.w3.org/2000/svg">
    <defs>
        <style id="current-color-scheme" type="text/css">.ColorScheme-Text { color:#232629; }</style>
    </defs>
    <path class="ColorScheme-Text" d="m7.3730469 2v5h1.2539062v-5h-1.2539062zm1.6269531 0.0859375v1.015625c2.327754 0.4751507 3.999742 2.5226838 4 4.8984375h1c-9.84e-4 -2.9270536-2.113886-5.4262204-5-5.9140625zm-2 0.0039063c-2.8846593 0.4875912-4.9971114 2.9845793-5 5.9101562 0 3.313705 2.6862948 6 6 6 0.3353125-0.0026 0.6698177-0.033307 1-0.091797v-1.023437c-0.3286079 0.071953-0.6636393 0.11056-1 0.115234-2.7614209 0-5-2.238579-5-5 0.0021125-2.374286 1.6736831-4.4196748 4-4.8945312v-1.015625zm4.5 5.9101562-2.5 3h1.5v3h2v-3h1.5l-2.5-3z" fill="currentColor"/>
</svg>
