<svg version="1.1" viewBox="0 0 16 16" xmlns="http://www.w3.org/2000/svg">
    <defs>
        <style type="text/css" id="current-color-scheme">
            .ColorScheme-Text {
                color:#232629;
            }
        </style>
    </defs>
    <path
        class="ColorScheme-Text"
        style="fill:currentColor"
        d="m2.0025668 0v5h5v-1h-3.582032c0.7951-1.8219982 2.594134-2.9997834 4.582032-3 2.3756972 3e-4 4.4232892 1.6722023 4.8984382 4h1.017578c-0.487999-2.8867971-2.988218-4.9999687-5.9160162-5-2.011098 9.99999e-5 -3.888402 1.0075954-5 2.6835938v-2.6835938zm8.0839842 4c-1.1045992 0-2.0000002 0.8954311-2.0000002 2 0 1.1045989 0.895431 2 2.0000002 2 1.1046 0 2.000001-0.8954311 2.000001-2 0-1.1045989-0.895431-2-2.000001-2zm-5.7578132 2c-1.104598-6e-7 -2 0.8954311-2 2 0 1.1045989 0.895432 2 2 2 1.104599 1e-6 2-0.8954311 2-2 0-1.1045989-0.895431-2-2-2zm5.7734382 3c-1.5187992 0-2.7642162 1.163077-2.9785162 2.671875 0.58287 0.662139 0.962891 1.328126 0.962891 2.328125h4.4296892c0.393219-0.540619 0.606741-1.198601 0.607421-1.875 1e-6 -1.725898-1.352186-3.125-3.021485-3.125zm-0.04883 1c1.1026 0 1.996095 0.839471 1.996095 1.875-4.45e-4 0.40586-0.140659 0.80063-0.400389 1.125h-2.8203142c-0.085649-0.538509-0.357187-1.019938-0.742187-1.398438 0.14153-0.905289 0.963598-1.601562 1.9667972-1.601562zm-5.7246102 1c-1.656898-1e-6 -3.0000001 1.399102-3.0000001 3.125 0.0016 0.676809 0.21405 1.334801 0.6054691 1.875h4.792969c0.39002-0.540719 0.601112-1.198701 0.601562-1.875 1e-6 -1.725898-1.343101-3.125-3-3.125zm0 1c1.104599 1e-6 2 1.007401 2 2.25-9.01e-4 0.25568-0.04053 0.50931-0.117187 0.75h-3.765625c-0.07666-0.24069-0.116287-0.49432-0.117188-0.75 1e-6 -1.242599 0.895432-2.25 2-2.25z"
    />
</svg>
