<?xml version="1.0" encoding="UTF-8" standalone="no"?>
<!-- Created with Inkscape (http://www.inkscape.org/) -->

<svg
   xmlns:dc="http://purl.org/dc/elements/1.1/"
   xmlns:cc="http://creativecommons.org/ns#"
   xmlns:rdf="http://www.w3.org/1999/02/22-rdf-syntax-ns#"
   xmlns:svg="http://www.w3.org/2000/svg"
   xmlns="http://www.w3.org/2000/svg"
   xmlns:sodipodi="http://sodipodi.sourceforge.net/DTD/sodipodi-0.dtd"
   xmlns:inkscape="http://www.inkscape.org/namespaces/inkscape"
   width="16"
   height="16"
   id="svg3049"
   version="1.1"
   inkscape:version="0.91 r13725"
   sodipodi:docname="text_vert_kern.svg"
   inkscape:export-filename="/home/uri/.kde/share/icons/NITRUX-KDE/16x16/actions/view-right-new.png"
   inkscape:export-xdpi="30"
   inkscape:export-ydpi="30">
  <defs
     id="defs3051">
    <style
       type="text/css"
       id="current-color-scheme">
      .ColorScheme-Text {
        color:#4d4d4d;
      }
      .ColorScheme-Background {
        color:#eff0f1;
      }
      .ColorScheme-Highlight {
        color:#3daee9;
      }
      .ColorScheme-ViewText {
        color:#31363b;
      }
      .ColorScheme-ViewBackground {
        color:#fcfcfc;
      }
      .ColorScheme-ViewHover {
        color:#93cee9;
      }
      .ColorScheme-ViewFocus{
        color:#3daee9;
      }
      .ColorScheme-ButtonText {
        color:#31363b;
      }
      .ColorScheme-ButtonBackground {
        color:#eff0f1;
      }
      .ColorScheme-ButtonHover {
        color:#93cee9;
      }
      .ColorScheme-ButtonFocus{
        color:#3daee9;
      }
      </style>
  </defs>
  <sodipodi:namedview
     id="base"
     pagecolor="#ffffff"
     bordercolor="#666666"
     borderopacity="1.0"
     inkscape:pageopacity="0.0"
     inkscape:pageshadow="2"
     inkscape:zoom="9.3749955"
     inkscape:cx="-1.2762587"
     inkscape:cy="-0.2230958"
     inkscape:document-units="px"
     inkscape:current-layer="layer1"
     showgrid="true"
     fit-margin-top="0"
     fit-margin-left="0"
     fit-margin-right="0"
     fit-margin-bottom="0"
     inkscape:window-width="1920"
     inkscape:window-height="1017"
     inkscape:window-x="0"
     inkscape:window-y="0"
     inkscape:window-maximized="1"
     inkscape:showpageshadow="false"
     borderlayer="true"
     inkscape:snap-bbox="true"
     inkscape:snap-global="true"
     inkscape:object-nodes="true">
    <inkscape:grid
       type="xygrid"
       id="grid4085" />
    <sodipodi:guide
       position="2.0000044,14.00003"
       orientation="12,0"
       id="guide4075" />
    <sodipodi:guide
       position="2.0000044,2.0000296"
       orientation="4.2285741e-06,1"
       id="guide4077" />
    <sodipodi:guide
       position="14,9"
       orientation="-12,0"
       id="guide4079" />
    <sodipodi:guide
       position="14,14"
       orientation="0,-12"
       id="guide4081" />
  </sodipodi:namedview>
  <metadata
     id="metadata3054">
    <rdf:RDF>
      <cc:Work
         rdf:about="">
        <dc:format>image/svg+xml</dc:format>
        <dc:type
           rdf:resource="http://purl.org/dc/dcmitype/StillImage" />
        <dc:title></dc:title>
      </cc:Work>
    </rdf:RDF>
  </metadata>
  <g
     inkscape:label="Capa 1"
     inkscape:groupmode="layer"
     id="layer1"
     transform="translate(-421.71429,-531.79074)">
    <rect
       y="534.79071"
       x="438.21429"
       height="10.999983"
       width="0"
       id="rect4035"
       style="fill:#4d4d4d;fill-opacity:1;stroke:none" />
    <rect
       y="535.05664"
       x="432.07404"
       height="10.999983"
       width="0"
       id="rect4035-2"
       style="fill:#4d4d4d;fill-opacity:1;stroke:none" />
    <rect
       y="533.00537"
       x="450.11481"
       height="10.999983"
       width="0"
       id="rect4035-5"
       style="fill:#4d4d4d;fill-opacity:1;stroke:none" />
    <rect
       y="535.05664"
       x="432.07404"
       height="10.999983"
       width="0"
       id="rect4035-8"
       style="fill:#4d4d4d;fill-opacity:1;stroke:none" />
    <rect
       y="535.05664"
       x="432.07404"
       height="10.999983"
       width="0"
       id="rect4035-59"
       style="fill:#4d4d4d;fill-opacity:1;stroke:none" />
    <text
       xml:space="preserve"
       style="font-style:normal;font-weight:normal;font-size:9px;line-height:125%;font-family:Sans;letter-spacing:0px;word-spacing:0px;fill:#4d4d4d;fill-opacity:1;stroke:none"
       x="447.51004"
       y="547.81396"
       id="text3781"
       sodipodi:linespacing="125%"><tspan
         y="547.81396"
         x="447.51004"
         sodipodi:role="line"
         id="tspan3783" /></text>
    <text
       xml:space="preserve"
       style="font-style:normal;font-weight:normal;font-size:9px;line-height:125%;font-family:Sans;letter-spacing:0px;word-spacing:0px;fill:#4d4d4d;fill-opacity:1;stroke:none"
       x="448.24673"
       y="541.95062"
       id="text3781-8"
       sodipodi:linespacing="125%"><tspan
         y="541.95062"
         x="448.24673"
         sodipodi:role="line"
         id="tspan3783-1" /></text>
    <text
       xml:space="preserve"
       style="font-style:normal;font-weight:normal;font-size:9px;line-height:125%;font-family:Sans;letter-spacing:0px;word-spacing:0px;fill:#4d4d4d;fill-opacity:1;stroke:none"
       x="441.51004"
       y="548.81396"
       id="text3781-4"
       sodipodi:linespacing="125%"><tspan
         y="548.81396"
         x="441.51004"
         sodipodi:role="line"
         id="tspan3783-13" /></text>
    <rect
       y="535.05664"
       x="432.07404"
       height="10.999983"
       width="0"
       id="rect4035-9"
       style="fill:#4d4d4d;fill-opacity:1;stroke:none" />
    <rect
       y="533.00537"
       x="450.11481"
       height="10.999983"
       width="0"
       id="rect4035-5-7"
       style="fill:#4d4d4d;fill-opacity:1;stroke:none" />
    <rect
       y="535.05664"
       x="412.07404"
       height="10.999983"
       width="0"
       id="rect4035-9-0"
       style="fill:#4d4d4d;fill-opacity:1;stroke:none" />
    <rect
       y="533.00537"
       x="430.11481"
       height="10.999983"
       width="0"
       id="rect4035-5-7-5"
       style="fill:#4d4d4d;fill-opacity:1;stroke:none" />
    <rect
       y="512.79071"
       x="430.21429"
       height="10.999983"
       width="0"
       id="rect4035-90"
       style="fill:#4d4d4d;fill-opacity:1;stroke:none" />
    <path
       style="opacity:1;fill:#4d4d4d;fill-opacity:1;stroke:none;stroke-width:2;stroke-linecap:square;stroke-miterlimit:4;stroke-dasharray:none;stroke-opacity:1"
       d="m 430.71429,535.79077 0,3 0,3 1,0 0,-0.76953 a 2.9999999,3.0000001 0 0 0 2,0.76953 2.9999999,3.0000001 0 0 0 3,-3 2.9999999,3.0000001 0 0 0 -3,-3 2.9999999,3.0000001 0 0 0 -2,0.76758 l 0,-0.76758 -1,0 z m 3,1 a 2,2.0000001 0 0 1 2,2 2,2.0000001 0 0 1 -2,2 2,2.0000001 0 0 1 -2,-2 2,2.0000001 0 0 1 2,-2 z"
       id="rect4163-7-8"
       inkscape:connector-curvature="0" />
    <path
       style="opacity:1;fill:#4d4d4d;fill-opacity:1;stroke:none;stroke-width:2;stroke-linecap:square;stroke-miterlimit:4;stroke-dasharray:none;stroke-opacity:1"
       d="m 425.71429,539.79077 a 2.9999999,3.0000001 0 0 0 -3,3 2.9999999,3.0000001 0 0 0 3,3 2.9999999,3.0000001 0 0 0 2,-0.76758 l 0,0.76758 1,0 0,-3 0,-3 -1,0 0,0.76953 a 2.9999999,3.0000001 0 0 0 -2,-0.76953 z m 0,1 a 2,2.0000001 0 0 1 2,2 2,2.0000001 0 0 1 -2,2 2,2.0000001 0 0 1 -2,-2 2,2.0000001 0 0 1 2,-2 z"
       id="path4180-5-0-4"
       inkscape:connector-curvature="0" />
    <rect
       style="fill:#1d99f3;fill-opacity:1;stroke:none;stroke-width:3;stroke-linecap:square;stroke-miterlimit:4;stroke-dasharray:none"
       id="rect4253-8"
       width="1"
       height="11.999996"
       x="429.21429"
       y="533.79071" />
    <rect
       style="fill:#1d99f3;fill-opacity:1;stroke:none;stroke-width:3;stroke-linecap:square;stroke-miterlimit:4;stroke-dasharray:none"
       id="rect4255-0"
       width="7"
       height="1"
       x="429.71429"
       y="542.79071" />
  </g>
</svg>
