<?xml version="1.0"?>
<!-- Created with Inkscape (http://www.inkscape.org/) -->
<svg xmlns:dc="http://purl.org/dc/elements/1.1/" xmlns:cc="http://creativecommons.org/ns#" xmlns:rdf="http://www.w3.org/1999/02/22-rdf-syntax-ns#" xmlns:svg="http://www.w3.org/2000/svg" xmlns="http://www.w3.org/2000/svg" xmlns:sodipodi="http://sodipodi.sourceforge.net/DTD/sodipodi-0.dtd" xmlns:inkscape="http://www.inkscape.org/namespaces/inkscape" width="16" height="16" id="svg2" version="1.1" inkscape:version="0.91 r13725" viewBox="0 0 16 16" sodipodi:docname="tools-media-optical-erase.svg">
  <defs id="defs4">
    <style type="text/css" id="current-color-scheme">
      .ColorScheme-Text {
        color:#4d4d4d;
      }
      .ColorScheme-Background {
        color:#eff0f1;
      }
      .ColorScheme-Highlight {
        color:#3daee9;
      }
      .ColorScheme-ViewText {
        color:#31363b;
      }
      .ColorScheme-ViewBackground {
        color:#fcfcfc;
      }
      .ColorScheme-ViewHover {
        color:#93cee9;
      }
      .ColorScheme-ViewFocus{
        color:#3daee9;
      }
      .ColorScheme-ButtonText {
        color:#31363b;
      }
      .ColorScheme-ButtonBackground {
        color:#eff0f1;
      }
      .ColorScheme-ButtonHover {
        color:#93cee9;
      }
      .ColorScheme-ButtonFocus{
        color:#3daee9;
      }
      </style>
  </defs>
  <sodipodi:namedview id="base" pagecolor="#ffffff" bordercolor="#666666" borderopacity="1.0" inkscape:pageopacity="0.0" inkscape:pageshadow="2" inkscape:zoom="89.6" inkscape:cx="10.075605" inkscape:cy="6.1658679" inkscape:document-units="px" inkscape:current-layer="layer1" showgrid="true" inkscape:showpageshadow="false" borderlayer="true" inkscape:window-width="1920" inkscape:window-height="957" inkscape:window-x="-4" inkscape:window-y="0" inkscape:window-maximized="1" units="px" inkscape:object-nodes="true" inkscape:snap-bbox="true">
    <inkscape:grid type="xygrid" id="grid4101"/>
    <sodipodi:guide position="2,14.000017" orientation="12,0" id="guide4071"/>
    <sodipodi:guide position="2,2.0000174" orientation="0,12" id="guide4073"/>
    <sodipodi:guide position="14,2.0000174" orientation="-12,0" id="guide4075"/>
    <sodipodi:guide position="14,14.000017" orientation="0,-12" id="guide4077"/>
  </sodipodi:namedview>
  <metadata id="metadata7">
    <rdf:RDF>
      <cc:Work rdf:about="">
        <dc:format>image/svg+xml</dc:format>
        <dc:type rdf:resource="http://purl.org/dc/dcmitype/StillImage"/>
        <dc:title/>
      </cc:Work>
    </rdf:RDF>
  </metadata>
  <g inkscape:label="Capa 1" inkscape:groupmode="layer" id="layer1" transform="translate(0,-1036.3622)">
    <path style="fill:currentColor;fill-opacity:1;fill-rule:evenodd;stroke:none" d="M 8,4 C 5.790861,4 4,5.790861 4,8 L 6,8 C 6,6.8954305 6.8954305,6 8,6 Z" transform="translate(0,1036.3622)" id="path4302" inkscape:connector-curvature="0" sodipodi:nodetypes="ccccc" class="ColorScheme-Text"/>
    <path style="fill:currentColor;fill-opacity:1;fill-rule:evenodd;stroke:none" d="M 8 2 A 6 6.0000086 0 0 0 2 8 A 6 6.0000086 0 0 0 8 14 L 8 13 A 5 5 0 0 1 3 8 A 5 5 0 0 1 8 3 A 5 5 0 0 1 13 8 A 5 5 0 0 1 12.898438 9 L 13.914062 9 A 6 6.0000086 0 0 0 14 8 A 6 6.0000086 0 0 0 8 2 z " transform="translate(0,1036.3622)" id="path4201-0-7" class="ColorScheme-Text"/>
    <circle style="fill:currentColor;fill-opacity:1;fill-rule:evenodd;stroke:none" id="path4307" cx="8" cy="1044.3622" r="1" class="ColorScheme-Text"/>
    <path style="fill:currentColor;fill-opacity:1;fill-rule:evenodd;stroke:none;stroke-width:1px;stroke-linecap:butt;stroke-linejoin:miter;stroke-opacity:1" d="m 10,1046.3622 -2,2 2,2 4,0 0,-4 z m 0.6,1 2.4,0 0,2 -2.4,0 -1,-1 z" id="path3349" inkscape:connector-curvature="0" sodipodi:nodetypes="cccccccccccc" class="ColorScheme-Text"/>
  </g>
</svg>
