<svg xmlns="http://www.w3.org/2000/svg" viewBox="0 0 16 16">
  <defs id="defs3051">
    <style type="text/css" id="current-color-scheme">
      .ColorScheme-Text {
        color:#4d4d4d;
      }
      </style>
  </defs>
 <path style="fill:currentColor;fill-opacity:1;stroke:none" 
       d="M 8,2 C 4.68629,2 2,4.6863 2,8 c 0,3.3137 2.68629,6 6,6 l 0,-1.003906 c -0.19033,0 -0.37813,-0.01025 -0.5625,-0.03125 -0.14686,-0.017 -0.29479,-0.0335 -0.4375,-0.0625 -0.28317,-0.058 -0.54897,-0.17765 -0.8125,-0.28125 -0.009,-0.017 -0.03345,-0.04055 -0.03125,-0.06055 0.052,-0.022 0.14951,0.074 0.1875,0 0.019,-0.035 -0.025,-0.12125 0,-0.15625 0.018,-0.024 0.11926,-0.02425 0.15625,-0.03125 0.053,-0.01 0.12625,-0.01725 0.15625,-0.03125 0.033,-0.021 0.0685,-0.09495 0.0625,-0.15625 -0.003,-0.029 -0.0396,-0.0365 -0.0625,-0.0625 -0.019,-0.022 0.013,-0.0425 0,-0.0625 -0.024,-0.035 -0.08385,-0.04275 -0.09375,-0.09375 0.072,-0.014 0.17726,0.06025 0.28125,0.03125 0.049,-0.014 0.13325,-0.11015 0.15625,-0.15625 0.007,-0.014 -0.008,-0.0445 0,-0.0625 0.009,-0.018 0.02825,-0.05155 0.03125,-0.06055 0.007,-0.027 -0.006,-0.01325 0,-0.03125 0.018,-0.051 0.06375,-0.089 0.09375,-0.125 0.023,-0.028 0.07275,-0.06475 0.09375,-0.09375 0.024,-0.031 0.01535,-0.0345 0.03125,-0.0625 0.015,-0.091 -0.05325,-0.1701 -0.03125,-0.25 0.024,-0.09 0.16301,-0.1465 0.25,-0.1875 0.03,-0.014 0.06885,-0.02225 0.09375,-0.03125 0.06,-0.021 0.1315,-0.0435 0.1875,-0.0625 0.094,-0.034 0.11025,-0.1016 0.15625,-0.1875 0.022,-0.04 0.0585,-0.096 0.0625,-0.125 0.004,-0.026 -0.005,-0.03055 0,-0.06055 0.005,-0.029 -0.008,-0.05975 0,-0.09375 C 7.97975,10.365203 8,10.268603 8,10.220703 8,10.180703 7.96965,10.161 7.96875,10.125 7.9650532,10.056345 7.9798694,10.028052 8,10.005859 L 8,9.1210938 C 7.9398936,9.0772875 7.8788071,9.0385944 7.8125,9.0332031 l -0.0625,0 c -0.048,0 -0.10226,-0.02425 -0.15625,-0.03125 -0.034,-0.01 -0.105,0.01 -0.125,0 -0.031,-0.015 -0.0375,-0.07675 -0.0625,-0.09375 -0.02,-0.014 -0.06285,-0.02025 -0.09375,-0.03125 -0.049,-0.018 -0.068,-0.0595 -0.125,-0.0625 -0.018,0 -0.0425,0.01 -0.0625,0 -0.031,-0.01 -0.06485,-0.01325 -0.09375,-0.03125 -0.036,-0.022 -0.07885,-0.0315 -0.09375,-0.0625 0.033,-0.1079 -0.07185,-0.1245 -0.09375,-0.1875 -0.01,-0.029 0.01,-0.099 0,-0.125 -0.013,-0.037 -0.05285,-0.06275 -0.09375,-0.09375 -0.072,-0.056 -0.11576,-0.08075 -0.21875,-0.09375 -0.046,-0.01 -0.10126,0.01 -0.15625,0 -0.058,-0.01 -0.14351,-0.04375 -0.1875,-0.09375 -0.042,-0.049 -0.05685,-0.1019 -0.09375,-0.125 -0.035,-0.022 -0.06975,-0.0405 -0.09375,-0.0625 -0.011,-0.01 -0.02125,-0.01025 -0.03125,-0.03125 -0.018,-0.037 -0.05325,-0.04875 -0.03125,-0.09375 -0.04,-0.02 -0.0195,0.03825 -0.0625,0.03125 -0.039,-0.055 -0.0683,-0.10955 -0.15625,-0.09375 -0.04,0.01 -0.078,0.09275 -0.125,0.09375 -0.039,0 -0.074,-0.08575 -0.125,-0.09375 -0.039,-0.01 -0.098,0.03625 -0.125,0.03125 -0.043,-0.01 -0.05485,-0.0365 -0.09375,-0.0625 -0.029,-0.019 -0.07775,-0.0635 -0.09375,-0.0625 -0.05,0 -0.0873,0.0995 -0.15625,0.0625 -0.034,-0.043 0.07135,-0.05375 0.03125,-0.09375 -0.03,-0.029 -0.0385,0.01725 -0.0625,0.03125 -0.028,0.018 -0.06285,0.02025 -0.09375,0.03125 C 4.806,7.7154531 4.74149,7.722 4.6875,7.75 4.6375,7.776 4.624603,7.794703 4.595703,7.845703 c -0.023,0.042 -0.05885,0.123 -0.09375,0.125 -0.042,0 -0.05575,-0.0455 -0.09375,-0.0625 -0.11499,-0.05 -0.18626,0.02925 -0.28125,0.03125 -0.088,0 -0.22275,-0.13575 -0.21875,-0.21875 0.003,-0.051 0.02535,-0.1245 0.03125,-0.1875 0.005,-0.05 0.0616,-0.11065 0.0625,-0.15625 10e-4,-0.062 -0.11625,-0.08675 -0.15625,-0.09375 -0.094,-0.017 -0.20551,0.042 -0.3125,0 -0.02,-0.034 0.01935,-0.061703 0.03125,-0.095703 0.007,-0.018 -0.007,-0.040547 0,-0.060547 0.012,-0.032 0.076897,-0.05975 0.091797,-0.09375 0.011,-0.026 -0.011,-0.062703 0,-0.095703 0.013,-0.036 0.0595,-0.06775 0.0625,-0.09375 C 3.72275,6.80975 3.68315,6.772 3.65625,6.75 3.57325,6.76 3.51675,6.76025 3.46875,6.78125 3.36076,6.83025 3.39025,6.966 3.28125,7 c -0.037,0.012 -0.083,0.02425 -0.125,0.03125 -0.0183,0.01 -0.042,0 -0.0625,0 C 3.09575,7.02125 3.09175,7.01 3.09375,7 3.09875,6.977 3.1201,6.9595 3.125,6.9375 3.1963,6.6125 3.30639,6.2979 3.4375,6 l 0.03125,0 c 0.038,0.01 0.06075,0.0605 0.09375,0.0625 0.092,0.01 0.1115,-0.085 0.1875,-0.125 0.078,0.011 0.11651,-0.01 0.1875,0 0.048,0.01 0.11826,0.0585 0.15625,0.0625 0.032,0 0.0325,-0.03525 0.0625,-0.03125 0.03,0.01 0.08885,0.05775 0.09375,0.09375 0.005,0.045 -0.04435,0.10665 -0.03125,0.15625 0.047,0.048 0.15175,0.06575 0.21875,0.09375 0.044,-0.037 0.007,-0.10425 0,-0.15625 -0.001,-0.023 0.003,-0.07275 0,-0.09375 -0.005,-0.036 -0.03125,-0.06275 -0.03125,-0.09375 0,-0.143 0.12276,-0.1941 0.21875,-0.25 C 4.666,5.69475 4.714,5.643 4.75,5.625 4.801,5.6 4.833,5.61475 4.875,5.59375 4.951,5.55075 5.0035,5.4862 5.0625,5.4375 c 0.027,-0.065 -0.003,-0.15475 0,-0.21875 0.027,-0.017 0.06485,0 0.09375,0 C 5.20225,5.20875 5.224,5.151 5.25,5.125 5.265,5.11 5.2945,5.10875 5.3125,5.09375 5.3585,5.05775 5.36625,5.016 5.40625,5 c 0.014,-0.01 0.0405,-0.02425 0.0625,-0.03125 0.03,-0.01 0.077,-0.01325 0.125,-0.03125 0.031,-0.011 0.113,-0.01825 0.125,-0.03125 0.015,-0.015 -0.004,-0.07075 0,-0.09375 C 5.74275,4.6996 5.89901,4.69435 6,4.65625 6.07,4.63025 6.14075,4.5487 6.21875,4.5625 c -0.015,0.054 -0.0755,0.06 -0.0625,0.125 0.017,0.091 0.12425,-0.01825 0.15625,-0.03125 0.061,-0.026 0.17,-0.06375 0.25,-0.09375 0.07,-0.025 0.19099,-0.044 0.125,-0.125 C 6.6325,4.4275 6.6105,4.481 6.5625,4.5 6.5295,4.51 6.528,4.47175 6.5,4.46875 6.473,4.46875 6.4645,4.505 6.4375,4.5 6.4105,4.49 6.379,4.43925 6.375,4.40625 6.364,4.32225 6.43485,4.3123 6.46875,4.25 6.44575,4.174 6.34524,4.2165 6.28125,4.1875 6.28825,4.1425 6.3221,4.10375 6.375,4.09375 6.418,4.08375 6.5365,4.104 6.5625,4.125 c 0.015,0.013 -0.0229,0.040547 0,0.060547 0.026,0.023 0.05985,0.01 0.09375,0 C 6.66825,4.1285469 6.58375,4.162 6.59375,4.125 6.66175,4.081 6.79201,4.10475 6.875,4.09375 6.923,4.08375 6.98825,4.05425 7.03125,4.03125 7.07125,4.00825 7.083,3.962 7.125,4 7.137,4.041 7.11695,4.07175 7.09375,4.09375 7.01675,4.16175 6.93499,4.2336 6.875,4.3125 c 0.037,0.036 0.0942,0.02425 0.15625,0.03125 0.024,0.01 0.06885,0 0.09375,0 0.03,0.01 0.06975,-0.01 0.09375,0 0.042,0.01 0.05185,0.09375 0.09375,0.09375 0.068,0 0.039,-0.08 0,-0.125 0.012,-0.047 0.04835,-0.092 0.03125,-0.125 C 7.31275,4.1255 7.1935,4.205 7.1875,4.125 7.1835,4.075 7.232,4.06925 7.25,4.03125 7.242,3.93525 7.3225,3.93075 7.3125,3.84375 7.3075,3.80775 7.275,3.8172031 7.25,3.7832031 7.237,3.7652031 7.23365,3.7015 7.21875,3.6875 7.16675,3.6435 7.0685,3.67775 7.0625,3.59375 7.0595,3.54375 7.0695,3.4911 7.0625,3.4375 7.0555,3.3865 7.01265,3.22875 6.96875,3.21875 6.91275,3.20675 6.87955,3.31275 6.8125,3.34375 6.7765,3.36075 6.69324,3.381 6.65625,3.375 6.63225,3.365 6.59675,3.3595 6.59375,3.3125 c -0.004,-0.042 0.0469,-0.06075 0.0625,-0.09375 0.004,-0.01 -0.002,-0.02025 0,-0.03125 0.0726,-0.02 0.14497,-0.043547 0.21875,-0.060547 0.0419,-0.01 0.0827,-0.02325 0.125,-0.03125 0.0299,-0.01 0.06375,0.01 0.09375,0 0.13355,-0.025 0.2692,-0.0495 0.40625,-0.0625 0.16624,-0.017 0.3289,-0.03125 0.5,-0.03125 L 8,3 c 0.17259,0 0.33191,0.01425 0.5,0.03125 l 0.125,0 c 0.0526,0.01 0.10415,0.02325 0.15625,0.03125 0.14365,0.023 0.26703,0.05875 0.40625,0.09375 0.2566,0.063 0.51072,0.1487 0.75,0.25 0.13193,0.056 0.24915,0.1209 0.375,0.1875 -7e-5,0.01 8e-4,0.02025 0,0.03125 0.029,0.013 0.04485,0.06675 0.09375,0.09375 0.018,0.01 0.01435,0.02225 0.03125,0.03125 0.029,0.016 0.0685,0.032547 0.0625,0.060547 -0.008,0.04 -0.06575,0.0325 -0.09375,0.0625 0.004,0.058 -0.0475,0.05475 -0.0625,0.09375 0.009,0.025 0.0585,0.0335 0.0625,0.0625 -0.005,0.032 -0.0745,0.0305 -0.0625,0.0625 0.054,0.042 0.10525,0.01 0.15625,0 0.11199,-0.014 0.21225,-0.0105 0.28125,-0.0625 -0.009,-0.053 0.09975,-0.04575 0.09375,-0.09375 0.0287,0.021 0.06535,0.0415 0.09375,0.0625 -0.0108,0.01 -0.01925,0.02625 -0.03125,0.03125 -0.021,0.01 -0.0435,0.017297 -0.0625,0.029297 -0.028,0.018 -0.06175,0.0425 -0.09375,0.0625 -0.023,0.016 -0.06975,0.09375 -0.09375,0.09375 -0.029,0 -0.07275,-0.03725 -0.09375,-0.03125 -0.03,0.01 -0.0286,0.0515 -0.0625,0.0625 -0.066,0.024 -0.19576,-0.0355 -0.21875,0.0625 0.028,0.057 0.1375,0.0315 0.1875,0.0625 0.031,0.02 0.08585,0.091 0.09375,0.125 0.008,0.028 0.012,0.1575 0,0.1875 -0.031,0.08 -0.12676,0.061547 -0.21875,0.060547 l -0.0625,0 c -0.15498,-0.01 -0.305,-0.07975 -0.375,0.03125 0.005,0.085 0.019,0.14475 0,0.21875 -0.014,0.054 -0.09675,0.10965 -0.09375,0.15625 10e-4,0.024 0.0565,0.05975 0.0625,0.09375 0.004,0.018 -0.008,0.0455 0,0.0625 0.026,0.049 0.079,-0.01 0.125,0 0.044,0.01 0.09375,0.076 0.09375,0.125 0,0.035 -0.0091,0.091 -0.03125,0.125 -0.044,0.066 -0.1245,0.05775 -0.1875,0.09375 -0.052,0.03 -0.06275,0.10465 -0.09375,0.15625 -0.033,0.056 -0.0755,0.07595 -0.0625,0.15625 -0.045,0.089 -0.0945,0.1445 -0.1875,0.1875 -0.027,0.012 -0.06885,0.01325 -0.09375,0.03125 -0.02,0.014 -0.0345,0.06175 -0.0625,0.09375 -0.035,0.039 -0.07475,0.06375 -0.09375,0.09375 -0.014,0.023 -0.01635,0.063703 -0.03125,0.095703 -0.022,0.042 -0.06585,0.05175 -0.09375,0.09375 -0.013,0.02 -0.01735,0.06775 -0.03125,0.09375 -0.032,0.058 -0.0685,0.1052499 -0.0625,0.15625 0.005,0.048 0.0595,0.04975 0.0625,0.09375 0.003,0.024 -0.03225,0.0365 -0.03125,0.0625 10e-4,0.038 0.02835,0.06375 0.03125,0.09375 0.007,0.074 -0.0485,0.1056498 -0.0625,0.15625 -0.007,0.024 0.006,0.0435 0,0.0625 -0.012,0.037 -0.0615,0.081 -0.0625,0.125 -10e-4,0.031 0.0595,0.04975 0.0625,0.09375 0.002,0.029 -0.03725,0.06575 -0.03125,0.09375 0.011,0.054 0.11426,0.1142498 0.15625,0.15625 0.057,0.057 0.13126,0.09595 0.15625,0.15625 C 9.3859594,7.9289594 9.3995034,7.9628731 9.4082031,8 L 14,8 C 14,4.6863 11.31371,2 8,2 Z M 5.96875,3.46875 C 5.93695,3.65125 5.766,3.72395 5.5625,3.71875 5.5165,3.76275 5.55645,3.84525 5.53125,3.90625 5.51025,3.95725 5.42599,4.004 5.375,4 5.338,4 5.28125,3.94125 5.28125,3.90625 5.28125,3.86325 5.3496,3.8615 5.3125,3.8125 5.3145,3.8025 5.33335,3.79125 5.34375,3.78125 5.36395,3.76825 5.38585,3.762 5.40625,3.75 5.58745,3.6385 5.77321,3.55675 5.96875,3.46875 Z m 4.1875,0.1855469 0,0.00195 C 10.13785,3.66625 10.1412,3.6775 10.125,3.6875 10.087,3.7105 10.06025,3.74 10.03125,3.75 9.99025,3.765 9.9434,3.7735469 9.9375,3.8105469 c -0.005,0.031 0.03235,0.0345 0.03125,0.0625 -0.015,0.037 -0.02325,0.04875 -0.03125,0.09375 0.051,0.083 0.15576,-0.01825 0.21875,-0.03125 0.028,-0.01 0.0475,-0.01025 0.0625,-0.03125 0.017,-0.027 0.01835,-0.05575 0.03125,-0.09375 0.014,-0.042 0.0675,-0.05675 0.0625,-0.09375 -0.004,-0.037 -0.0943,-0.0675 -0.15625,-0.0625 z M 4.6875,4.28125 C 4.7349,4.31925 4.80161,4.4019 4.71875,4.4375 4.70875,4.4475 4.5865,4.47275 4.5625,4.46875 4.5525,4.46875 4.53965,4.4445 4.53125,4.4375 4.58295,4.3875 4.63371,4.32925 4.6875,4.28125 Z M 4.875,4.4707031 c 0.023217,0.00185 0.034937,0.059563 0.0625,0.060547 C 4.9645,4.53125 4.984,4.496 5,4.5 5.042,4.511 5.07135,4.594 5.03125,4.625 4.99825,4.635 4.99275,4.58975 4.96875,4.59375 4.90075,4.60575 4.8635,4.754 4.8125,4.75 4.7645,4.74 4.73215,4.62875 4.78125,4.59375 c 0.001,-0.03 -0.002,-0.0315 0,-0.0625 C 4.79625,4.51325 4.835,4.467703 4.875,4.470703 Z M 4.625,4.5 c 0.014,0 0.02635,-0.01 0.03125,0 -0.007,0.053 -0.0215,0.06875 -0.0625,0.09375 -0.071,0.043 -0.13325,0.096 -0.15625,0.1875 C 4.4305,4.80825 4.3465,4.8814 4.3125,4.875 4.2335,4.858 4.357,4.7104 4.375,4.6875 4.395,4.6625 4.4145,4.653 4.4375,4.625 4.4605,4.597 4.478,4.54725 4.5,4.53125 4.524,4.51425 4.583,4.498 4.625,4.5 Z m 6.78125,0.15625 c 0.079,-0.01 0.12025,0.077 0.15625,0.125 0.03,0.039 0.10725,0.098 0.15625,0.125 0.028,0.015 0.06275,0.0495 0.09375,0.0625 0.065,0.029 0.1845,0.1235 0.1875,0.1875 10e-4,0.032 -0.03635,0.06375 -0.03125,0.09375 0.049,0.01 0.09275,-0.076 0.09375,-0.125 0.0919,0.13 0.1706,0.26765 0.25,0.40625 0.0375,0.065 0.0904,0.12 0.125,0.1875 -0.0441,0.013 -0.0554,0.0205 -0.0625,0.0625 -0.01,0.056 0.0215,0.14635 -0.0625,0.15625 -0.053,0.01 -0.11451,-0.0455 -0.1875,-0.0625 -0.03,-0.01 -0.06975,0.01 -0.09375,0 C 11.97625,5.857 11.9844,5.783 11.9375,5.75 11.9105,5.731 11.82425,5.6915 11.78125,5.6875 c -0.027,0 -0.0345,0.01 -0.0625,0 -0.034,-0.01 -0.097,0.014 -0.125,0 C 11.56675,5.6705 11.507,5.61675 11.5,5.59375 11.489,5.55675 11.59175,5.532 11.59375,5.5 11.59575,5.476 11.5674,5.44325 11.5625,5.40625 c -0.004,-0.022 0.005,-0.0475 0,-0.0625 -0.007,-0.026 -0.05285,-0.03025 -0.09375,-0.03125 l -0.09375,0 -0.1875,0 -0.09375,0 c -0.087,0.01 -0.15075,-0.01 -0.21875,0 -0.049,0 -0.1415,0.0425 -0.1875,0.0625 -0.023,0.011 -0.0325,0.01625 -0.0625,0.03125 -0.014,0.01 -0.0445,0.02325 -0.0625,0.03125 -0.028,0.013 -0.06685,0.052547 -0.09375,0.060547 -0.039,0.01 -0.0853,-0.01 -0.15625,0 -0.051,0 -0.124,-0.03275 -0.125,-0.09375 -10e-4,-0.093 0.16201,-0.0455 0.25,-0.0625 0.033,-0.01 0.05375,-0.036547 0.09375,-0.060547 0.019,-0.011 0.01335,-0.01925 0.03125,-0.03125 0.03,-0.021 0.08885,-0.06975 0.09375,-0.09375 0.004,-0.022 -0.003,-0.0455 0,-0.0625 0.004,-0.021 0.0355,-0.0345 0.0625,-0.0625 0.042,-0.042 0.073,-0.098 0.125,-0.125 0.035,-0.018 0.07775,-0.0345 0.09375,-0.0625 0.004,-0.032 -10e-4,-0.030547 0,-0.060547 0.022,-0.02 0.0445,-0.02725 0.0625,-0.03125 0.054,-0.012 0.0933,0 0.15625,0 0.027,0 0.06485,0.013 0.09375,0 0.024,-0.016 0.0385,-0.0515 0.0625,-0.0625 0.026,-0.014 0.06175,-0.02925 0.09375,-0.03125 l 0,-0.00195 z m 0.5625,0.59375 -0.125,0 c -0.044,0 -0.099,-0.023 -0.125,0 0.037,0.06 0.10451,0.07875 0.1875,0.09375 0.03,-0.022 0.0485,-0.05475 0.0625,-0.09375 z M 5.125,4.6875 l 0.09375,0 c 0.025,0 0.0525,-0.01 0.0625,0 C 5.26525,4.7535 5.1145,4.74275 5.0625,4.71875 5.0655,4.69375 5.093,4.6915 5.125,4.6875 Z M 4.90625,4.8125 C 4.86255,4.8445 4.81935,4.88425 4.75,4.90625 4.712,4.91825 4.66325,4.917 4.65625,4.875 4.64825,4.823 4.716,4.84875 4.75,4.84375 4.794,4.83375 4.85525,4.8145 4.90625,4.8125 Z m 6.5,0 c -0.033,0.011 -0.049,0.08375 0,0.09375 0.023,-0.014 0.03735,-0.05075 0.03125,-0.09375 -0.013,-0.014 -0.02135,-0.01 -0.03125,0 z m -0.0625,0.15625 c 10e-4,0.056 0.011,0.10765 0,0.15625 0.032,0.062 0.10901,0.01075 0.125,-0.03125 0.019,-0.104 -0.0145,-0.138 -0.0625,-0.125 -0.016,0.01 -0.0456,-0.013 -0.0625,0 z M 3.0625,7.3125 C 3.1189,7.3635 3.1513,7.43535 3.21875,7.46875 3.24375,7.48175 3.2806,7.492 3.3125,7.5 3.3385,7.51 3.35,7.49 3.375,7.5 c 0.053,0.018 0.11426,0.0435 0.15625,0.0625 0.064,0.028 0.1325,0.12425 0.1875,0.15625 0.003,0.032 -0.01,0.06975 0,0.09375 0.026,0.035 0.05175,0.06975 0.09375,0.09375 C 3.8635,7.93425 3.8895,7.978 3.9375,8 3.9545,8.01 3.974,7.99 4,8 4.066,8.02 4.0992,8.11035 4.15625,8.09375 4.19325,8.08275 4.1816,8.036 4.1875,8 4.2125,7.973 4.24225,7.9375 4.28125,7.9375 c 0.062,0 0.07075,0.09595 0.09375,0.15625 0.013,0.034 0.0535,0.05775 0.0625,0.09375 0.015,0.062 0.013,0.24425 0,0.28125 -0.016,0.046 -0.087,0.04275 -0.125,0.09375 -0.018,0.024 -0.01735,0.078703 -0.03125,0.095703 -0.024,0.029 -0.0445,0.033547 -0.0625,0.060547 -0.01,0.015 -0.02235,0.0425 -0.03125,0.0625 -0.03,0.064 -0.0875,0.1105 -0.0625,0.1875 0.01,0.031 0.0625,0.05675 0.0625,0.09375 0,0.044 -0.08675,0.077 -0.09375,0.125 -0.005,0.035 0.02035,0.078 0.03125,0.125 0.008,0.035 0.07275,0.07075 0.09375,0.09375 0.035,0.039 0.06185,0.10675 0.09375,0.15625 0.063,0.097 0.0943,0.2175 0.15625,0.3125 0.033,0.049 0.103,0.073 0.125,0.125 0.011,0.026 -0.01,0.06975 0,0.09375 0.036,0.081 0.20026,0.17885 0.28125,0.21875 0.038,0.019 0.09,0.01125 0.125,0.03125 0.053,0.03 0.16051,0.10965 0.1875,0.15625 0.024,0.042 0.01935,0.15185 0.03125,0.21875 0.015,0.088 -0.004,0.1549 0,0.25 0.003,0.052 0.03125,0.073 0.03125,0.125 0,0.018 0.001,0.07475 0,0.09375 -0.001,0.062 0.005,0.1245 0,0.1875 -0.003,0.034 -0.002,0.0667 0,0.0957 0.003,0.031 0.02935,0.03355 0.03125,0.06055 0.002,0.029 -0.03435,0.07075 -0.03125,0.09375 0.007,0.063 0.0505,0.09795 0.0625,0.15625 0.01,0.046 0.03725,0.16375 0.03125,0.21875 -0.004,0.029 -0.02725,0.0627 -0.03125,0.0957 -0.003,0.026 0.004,0.03755 0,0.06055 -0.003,0.023 0.006,0.0435 0,0.0625 -0.0319,-0.02 -0.06245,-0.0415 -0.09375,-0.0625 -0.266,-0.1798 -0.52379,-0.3988 -0.75,-0.625 C 4.43815,11.50025 4.4048,11.4695 4.375,11.4375 4.19442,11.2474 4.02414,11.0292 3.875,10.8125 3.8615,10.7925 3.85695,10.769 3.84375,10.75 3.6707,10.4907 3.52906,10.2279 3.40625,9.9375 3.39725,9.9165 3.3835,9.8979531 3.375,9.8769531 c -0.10538,-0.259 -0.18893,-0.534 -0.25,-0.8125 -0.0115,-0.053 -0.02145,-0.10315 -0.03125,-0.15625 -0.0248,-0.1336 -0.0486,-0.26915 -0.0625,-0.40625 C 3.01415,8.3324531 3,8.1726 3,8 3,7.7624 3.0304,7.5413 3.0625,7.3125 Z M 5,7.84375 c 0.048,-0.022 0.039,0.0565 0,0.0625 -0.037,0.01 -0.036,-0.0445 0,-0.0625 z M 9,9 l 0,4 1,0 1,0 0,1 3,0 0,-2 -3,0 -1,0 0,-1 1,0 3,0 0,-2 -3,0 0,1 -1,0 0,-1 -1,0 z"
     class="ColorScheme-Text"
     />
</svg>
