<svg version="1.1" viewBox="0 0 16 16" xmlns="http://www.w3.org/2000/svg">
    <style
        type="text/css"
        id="current-color-scheme">
        .ColorScheme-Text {
            color:#232629;
        }
    </style>
    <path d="m2 2v12h2v-1h-1v-10h10v4h1v-5zm2 2v5h4v-5zm6.5 0c-0.82843 0-1.5 0.67157-1.5 1.5s0.67157 1.5 1.5 1.5c0.82843 0 1.5-0.67157 1.5-1.5s-0.67157-1.5-1.5-1.5zm-5.5 1h2v3h-2zm5.5 0c0.27614 0 0.5 0.22386 0.5 0.5s-0.22386 0.5-0.5 0.5-0.5-0.22386-0.5-0.5 0.22386-0.5 0.5-0.5zm1.6719 2.6719-0.70703 0.70703 1.6211 1.6211h-4.0859v1h4.0859l-1.6211 1.6211 0.70703 0.70703 2.8281-2.8281-1.8789-1.8789zm-4.3438 2-2.8281 2.8281 2.8281 2.8281 0.70703-0.70703-1.6211-1.6211h4.0859v-1h-4.0859l1.6211-1.6211z" class="ColorScheme-Text" fill="currentColor"/>
</svg>
