<svg id="svg859" version="1.1" viewBox="0 0 16 16" xmlns="http://www.w3.org/2000/svg">
        <defs id="defs3051">
    <style type="text/css" id="current-color-scheme">
        .ColorScheme-Text {            color:#232629;        }
    </style>
    </defs>
    <g id="layer1">
        <path id="path289" d="m8 2a6 6 0 0 0-6 6 6 6 0 0 0 6 6 6 6 0 0 0 3.667969-1.269531l2.048828 2.048828a0.75 0.75 0 0 0 1.0625 0 0.75 0.75 0 0 0 0-1.0625l-2.048828-2.048828a6 6 0 0 0 1.269531-3.667969 6 6 0 0 0-6-6zm0 1a5 5 0 0 1 5 5 5 5 0 0 1-5 5 5 5 0 0 1-5-5 5 5 0 0 1 5-5zm1 1.5800781-0.4589844 0.4609375-2.9609375 2.9589844 2.9609375 2.958984 0.4589844 0.460938 0.9199219-0.919922-0.4609375-0.458984-2.0410156-2.041016 2.0410156-2.0410156 0.4609375-0.4589844-0.9199219-0.9199219z" class="ColorScheme-Text" fill="currentColor" style="paint-order:markers stroke fill"/>
    </g>
</svg>
