<svg height="22" viewBox="0 0 22 22" width="22" xmlns="http://www.w3.org/2000/svg" xmlns:xlink="http://www.w3.org/1999/xlink"><linearGradient id="a" gradientUnits="userSpaceOnUse" x1="11.072659" x2="10.958864" y1="19.889571" y2="1.993852"><stop offset="0" stop-color="#197cf1"/><stop offset="1" stop-color="#21c9fb"/></linearGradient><linearGradient id="b" gradientUnits="userSpaceOnUse" x1="8" x2="17.296875" y1="8" y2="17.296875"><stop offset="0" stop-color="#292c2f"/><stop offset="1" stop-opacity="0"/></linearGradient><linearGradient id="c" gradientUnits="userSpaceOnUse" x1="23.923175" x2="23.923175" y1="41.356546" y2="1.784139"><stop offset="0" stop-color="#7cbaf8"/><stop offset="1" stop-color="#f4fcff"/></linearGradient><circle cx="10.983826" cy="10.983826" fill="url(#a)" r="8.983826" stroke-width=".879901"/><path d="m11 6-.853516 1.8535156 1.853516 1.8535156v.2929688l-3-3-.8535156 1.8535156 1.1464844 1.1464844-.2929688 1-2-2-.8496094 1.857422.8378906.83789.097656 2.71875 5.5860628 5.585938h7.328v-6l-7-7v1z" fill="url(#b)" opacity=".2"/><g stroke-width="2"><path d="m10.5 7.5-.5.5v1.5c0 .277.223.5.5.5s.5-.223.5-.5v-1.5zm-2 1-.5.5v1.5c0 .277.223.5.5.5s.5-.223.5-.5v-1.5zm4 0-.5.5v1.5c0 .277.223.5.5.5s.5-.223.5-.5v-1.5zm-6 2-.5.5v1.5c0 .277.223.5.5.5s.5-.223.5-.5v-1.5zm8 0-.5.5v1.5c0 .277.223.5.5.5s.5-.223.5-.5v-1.5zm-4 .5c-1.1045695 0-2 .895431-2 2-1.1045695 0-2 .895431-2 2s.8954305 2 2 2 2-.895431 2-2c0 1.104569.895431 2 2 2s2-.895431 2-2-.895431-2-2-2c0-1.104569-.895431-2-2-2z" opacity=".04"/><path d="m10.5 6.5-.5.5v1.5c0 .277.223.5.5.5s.5-.223.5-.5v-1.5zm-2 1-.5.5v1.5c0 .277.223.5.5.5s.5-.223.5-.5v-1.5zm4 0-.5.5v1.5c0 .277.223.5.5.5s.5-.223.5-.5v-1.5zm-6 2-.5.5v1.5c0 .277.223.5.5.5s.5-.223.5-.5v-1.5zm8 0-.5.5v1.5c0 .277.223.5.5.5s.5-.223.5-.5v-1.5zm-4 .5c-1.1045695 0-2 .895431-2 2-1.1045695 0-2 .895431-2 2s.8954305 2 2 2 2-.895431 2-2c0 1.104569.895431 2 2 2s2-.895431 2-2-.895431-2-2-2c0-1.104569-.895431-2-2-2z" opacity=".04"/><path d="m10.5 5.5-.5.5v1.5c0 .277.223.5.5.5s.5-.223.5-.5v-1.5zm-2 1-.5.5v1.5c0 .277.223.5.5.5s.5-.223.5-.5v-1.5zm4 0-.5.5v1.5c0 .277.223.5.5.5s.5-.223.5-.5v-1.5zm-6 2-.5.5v1.5c0 .277.223.5.5.5s.5-.223.5-.5v-1.5zm8 0-.5.5v1.5c0 .277.223.5.5.5s.5-.223.5-.5v-1.5zm-4 .5c-1.1045695 0-2 .8954305-2 2-1.1045695 0-2 .895431-2 2s.8954305 2 2 2 2-.895431 2-2c0 1.104569.895431 2 2 2s2-.895431 2-2-.895431-2-2-2c0-1.1045695-.895431-2-2-2z" fill="url(#c)"/></g></svg>