<?xml version="1.0" encoding="UTF-8"?>
<svg width="22" height="22" version="1.1" xmlns="http://www.w3.org/2000/svg">
 <style id="current-color-scheme" type="text/css">.ColorScheme-Text { color: #232629; }</style>
 <defs>
  <linearGradient id="linearGradient18" x1="15" x2="15" y1="1" y2="11" gradientTransform="translate(0,1)" gradientUnits="userSpaceOnUse">
   <stop stop-color="#f00" offset="0"/>
   <stop stop-color="#860000" offset="1"/>
  </linearGradient>
 </defs>
 <path class="ColorScheme-Text" fill="currentColor" d="m11.293 5.418c-0.36629 0.27008-1.3153 1.0026-2.2891 2.0156-0.77357 0.80472-2.2079 2.4327-3.1348 4.8828-0.32673 0.86371-0.62993 1.9223-0.80078 3.1992-0.56152-2.0278-1.1537-3.308-2.2148-4.3691-0.093753-0.093773-0.22092-0.14646-0.35352-0.14648-0.1326 2e-5 -0.25976 0.05271-0.35352 0.14648-0.19521 0.19525-0.19521 0.51178 0 0.70703 1.3831 1.3831 1.8783 3.2589 2.8652 7.7539 0.059348 0.26966 0.32604 0.44016 0.5957 0.38086 0.22925-0.050431 0.39256-0.25355 0.39258-0.48828 0.27792-3.0334 1.2834-4.908 2.0996-6.0039 1.2433-1.6692 2.6909-2.3867 3.3965-2.6797 0.94074-0.39068 1.7171-0.48923 2.0371-0.5293"/>
 <circle cx="15" cy="7" r="5" fill="url(#linearGradient18)" style="paint-order:markers stroke fill"/>
</svg>
