<svg version="1.1" viewBox="0 0 22 22" xmlns="http://www.w3.org/2000/svg">
    <linearGradient id="a" x1="388.423" x2="388.423" y1="557.79797" y2="505.798" gradientTransform="matrix(.36685 0 0 .34615286 -142.9925 -173.08407)" gradientUnits="userSpaceOnUse">
        <stop stop-color="#7f8c8d" offset="0"/>
        <stop stop-color="#afb0b3" offset="1"/>
    </linearGradient>
    <linearGradient id="b" x1="3" x2="3" y1="17" y2="3" gradientTransform="matrix(.33540428 0 0 .34615286 -21.018857 -.076429)" gradientUnits="userSpaceOnUse">
        <stop stop-color="#eef1f2" offset="0"/>
        <stop stop-color="#f9fafb" offset="1"/>
    </linearGradient>
    <g transform="translate(1)">
        <path d="m2 2h15v18h-15z" fill="url(#a)" stroke-width=".633866"/>
        <path d="m4 18h11v2h-11z" fill="#292c2e" stroke-width=".654654"/>
        <path d="m5 19h6v1h-6zm7 0h2v1h-2z" fill="#f6b44d" stroke-width=".811273"/>
        <path d="m15 18h2v2h-2zm-13 0h2v2h-2z" fill="#292c2f" opacity=".2" stroke-width=".654654"/>
        <path d="m2 18 2 2v-2zm13 0v1.999996l2 4e-6v-2z" opacity=".2" stroke-width=".642857"/>
        <path d="m6 3a3 3 0 0 0-3 3v3.2695312a2 2 0 0 1 1 1.7304688 2 2 0 0 1-1 1.732422v2.267578l2 2h9l2-2v-2.267578a2 2 0 0 1-1-1.732422 2 2 0 0 1 1-1.7324219v-3.2675781a3 3 0 0 0-3-3z" fill="url(#b)"/>
    </g>
</svg>
