<svg xmlns="http://www.w3.org/2000/svg" fill="none" viewBox="0 0 22 22">
  <path fill="url(#a)" d="M20 11a9 9 0 1 0-18 0 9 9 0 1 0 18 0"/>
  <g opacity=".2">
    <path fill="url(#b)" d="m19.942 12.028-5.735-5.735-1.414 1.414 6.586 6.586a8.942 8.942 0 0 0 .563-2.265"/>
    <path fill="url(#c)" d="M19.176 14.768 13.13 8.722 11.367 7.4c-.346-.26-.917-.55-1.917-.55l-.775 1.825 1.38 1.38a3 3 0 0 0-.095 1.255L7.991 9.341a3.5 3.5 0 0 0-.966 5.634l4.948 4.973a9.007 9.007 0 0 0 7.203-5.18"/>
  </g>
  <g fill="#000" opacity=".1">
    <path fill-rule="evenodd" d="m9.35 9.35-.675-.675.288-.679.968-.397 3.199 1.123v.744c-.25.442-.598 1.098-.729 1.52l3.037.416v1.094l-.246 1.965L16 15v1h-2.125v-1l.083-2H13v.5a3.5 3.5 0 0 1-3.995 3.465l-1.98-1.99A3.49 3.49 0 0 1 6 12.5l1.5-2.27h1.38l.002.002v1A2.364 2.364 0 0 0 7.195 13v1.385L9.5 15l3-1.005V13h-2.367c-.137-.367-.202-.648-.202-1l.555-2.93-.555-.301z" clip-rule="evenodd"/>
    <path d="M13.97 8.883A1 1 0 0 0 14.5 8V7l-1.707.707z"/>
  </g>
  <path fill="url(#d)" d="M13.5 8a1 1 0 1 0 0-2 1 1 0 0 0 0 2"/>
  <path fill="url(#e)" d="M6 12.5a3.5 3.5 0 0 1 1.991-3.159l.891.891A2.351 2.351 0 1 0 11.797 13h1.168A3.5 3.5 0 0 1 6 12.5"/>
  <path fill="url(#f)" d="M9.931 7.769 8.85 8.85l-.175-.175C8.5 8.5 8.15 8.15 8.8 7.5l.65-.65c1 0 1.57.29 1.917.55l1.763 1.322S12.25 10 12.025 11l2.868-.1a.53.53 0 0 1 .545.596l-.361 2.889L16 15h-2.125L14 12h-3.867l-.063-.2a3 3 0 0 1 .163-2.208l.558-1.15h.383z"/>
  <defs>
    <linearGradient id="a" x1="-246.511" x2="-246.511" y1="20" y2="2" gradientUnits="userSpaceOnUse">
      <stop stop-color="#197CF1"/>
      <stop offset="1" stop-color="#20BCFA"/>
    </linearGradient>
    <linearGradient id="b" x1="6" x2="19.966" y1="6.293" y2="20.802" gradientUnits="userSpaceOnUse">
      <stop/>
      <stop offset=".35" stop-opacity=".5"/>
      <stop offset=".798" stop-opacity="0"/>
    </linearGradient>
    <linearGradient id="c" x1="6" x2="19.966" y1="6.293" y2="20.802" gradientUnits="userSpaceOnUse">
      <stop/>
      <stop offset=".35" stop-opacity=".5"/>
      <stop offset=".798" stop-opacity="0"/>
    </linearGradient>
    <linearGradient id="d" x1="11.02" x2="11.02" y1="22" y2="6" gradientUnits="userSpaceOnUse">
      <stop stop-color="#7CBAF8"/>
      <stop offset="1" stop-color="#F4FCFF"/>
    </linearGradient>
    <linearGradient id="e" x1="11.02" x2="11.02" y1="22" y2="6" gradientUnits="userSpaceOnUse">
      <stop stop-color="#7CBAF8"/>
      <stop offset="1" stop-color="#F4FCFF"/>
    </linearGradient>
    <linearGradient id="f" x1="11.02" x2="11.02" y1="22" y2="6" gradientUnits="userSpaceOnUse">
      <stop stop-color="#7CBAF8"/>
      <stop offset="1" stop-color="#F4FCFF"/>
    </linearGradient>
  </defs>
</svg>