<svg version="1.1" viewBox="0 0 16 240" xmlns="http://www.w3.org/2000/svg">
    <defs>
        <style id="current-color-scheme" type="text/css">.ColorScheme-Text {
        color:#232629;
      }</style>
    </defs>
    <g transform="translate(-424.71428,-456.81881)" fill="currentColor">
        <path class="ColorScheme-Text" d="m432.02287 458.81881c-0.12784 0-0.23242 0.10262-0.23242 0.23047l-0.4082 1.83984c-0.17355 0.0579-0.34339 0.12682-0.50781 0.20703l-1.58594-1.00976c-0.10786-0.0686-0.23577-0.0904-0.32617 0l-0.98047 0.98047c-0.0904 0.0904-0.0904 0.23577 0 0.32617l1.01172 1.58984c-0.081 0.16348-0.15014 0.33121-0.20899 0.50391l-1.83984 0.4082c-0.12785 0-0.23047 0.10458-0.23047 0.23242v1.38282c0 0.12784 0.10567 0.20468 0.23047 0.23242l1.83984 0.4082c0.057 0.17101 0.12444 0.33783 0.20313 0.5l-1.01367 1.59375c-0.0686 0.10786-0.0904 0.23577 0 0.32617l0.97851 0.98047c0.0904 0.0904 0.23772 0.0904 0.32813 0l1.59375-1.01562c0.16486 0.0821 0.33351 0.15334 0.50781 0.21289l0.4082 1.83984c0 0.12785 0.10458 0.23047 0.23242 0.23047h1.38282c0.12784 0 0.20468-0.10567 0.23242-0.23047l0.4082-1.83984c0.17355-0.0579 0.34339-0.12682 0.50781-0.20703l1.58594 1.00976c0.0904 0.0904 0.23577 0.0904 0.32617 0l0.98047-0.98047c0.0904-0.0904 0.0686-0.21831 0-0.32617l-1.01172-1.58984c0.081-0.16348 0.15014-0.33121 0.20899-0.50391l1.83984-0.4082c0.1248-0.0277 0.23047-0.10458 0.23047-0.23242v-1.38282c0-0.12784-0.10262-0.23242-0.23047-0.23242l-1.83984-0.4082c-0.0585-0.17577-0.12955-0.34727-0.21094-0.51367l1.00586-1.58008c0.0904-0.0904 0.0904-0.23577 0-0.32617l-0.97852-0.98047c-0.0904-0.0904-0.21831-0.0686-0.32617 0l-1.58789 1.00976c-0.16206-0.0802-0.32888-0.14858-0.5-0.20703l-0.4082-1.83984c-0.0277-0.1248-0.10458-0.23047-0.23242-0.23047zm0.69141 4a2 2 0 0 1 2 2 2 2 0 0 1-2 2 2 2 0 0 1-2-2 2 2 0 0 1 2-2z" fill="currentColor"/>
        <path class="ColorScheme-Text" d="m432.65383 474.77941c-0.12714-0.0134-0.24188 0.0778-0.25524 0.20491l-0.59828 1.78709c-0.17865 0.0394-0.35476 0.0902-0.52667 0.15282l-1.4717-1.17001c-0.1001-0.0795-0.22503-0.11455-0.32438-0.0341l-1.07759 0.87261c-0.0994 0.0805-0.11455 0.22503-0.0341 0.32438l0.83999 1.68689c-0.0976 0.15412-0.18394 0.3137-0.26052 0.4793l-1.87243 0.21365c-0.12715-0.0134-0.24014 0.0799-0.2535 0.20706l-0.14454 1.37524c-0.0134 0.12714 0.0837 0.21461 0.20491 0.25524l1.78709 0.59828c0.0388 0.17603 0.0885 0.34899 0.14976 0.51849l-1.17471 1.47906c-0.0795 0.1001-0.11455 0.22503-0.0341 0.32439l0.87066 1.07738c0.0805 0.0994 0.22697 0.11475 0.32634 0.0343l1.69118-0.84347c0.15537 0.0989 0.31565 0.18736 0.48277 0.26481l0.21365 1.87243c-0.0134 0.12715 0.0799 0.24014 0.20706 0.2535l1.37524 0.14454c0.12714 0.0134 0.21461-0.0837 0.25524-0.20491l0.59828-1.78709c0.17865-0.0394 0.35476-0.0902 0.52667-0.15282l1.4717 1.17001c0.0805 0.0994 0.22503 0.11455 0.32438 0.0341l1.07759-0.87261c0.0994-0.0805 0.091-0.20994 0.0341-0.32438l-0.83999-1.68689c0.0976-0.15412 0.18394-0.3137 0.26052-0.4793l1.87243-0.21365c0.12701-0.0145 0.24014-0.0799 0.2535-0.20706l0.14454-1.37524c0.0134-0.12714-0.0778-0.24188-0.20491-0.25524l-1.78709-0.59828c-0.0398-0.18092-0.0925-0.35891-0.15609-0.5329l1.16551-1.46629c0.0994-0.0804 0.11455-0.22503 0.0341-0.32438l-0.87067-1.07738c-0.0805-0.0994-0.20994-0.091-0.32438-0.0341l-1.68474 0.83825c-0.15279-0.0967-0.31155-0.18214-0.47562-0.25816l-0.21365-1.87243c-0.0145-0.12701-0.0799-0.24014-0.20706-0.2535zm0.26951 4.05036a2 2 0 0 1 1.77998 2.1981 2 2 0 0 1-2.1981 1.77998 2 2 0 0 1-1.77998-2.1981 2 2 0 0 1 2.1981-1.77998z" fill="currentColor"/>
        <path class="ColorScheme-Text" d="m433.28545 490.80617c-0.12505-0.0266-0.24869 0.0521-0.27526 0.17711l-0.78181 1.71476c-0.18179 0.0205-0.36224 0.0526-0.53976 0.0969l-1.34134-1.31743c-0.0912-0.0895-0.21182-0.13745-0.31903-0.0678l-1.1629 0.75519c-0.10727 0.0697-0.13745 0.21182-0.0678 0.31904l0.65906 1.76545c-0.11318 0.14307-0.21573 0.29275-0.3092 0.44944l-1.8845 0.0168c-0.12505-0.0266-0.24718 0.0544-0.27376 0.17943l-0.2875 1.3526c-0.0266 0.12504 0.0608 0.22218 0.17711 0.27526l1.71476 0.7818c0.0202 0.17912 0.0515 0.35633 0.0947 0.5313l-1.32288 1.34817c-0.0895 0.0912-0.13745 0.21182-0.0678 0.31905l0.75327 1.16249c0.0697 0.10727 0.21373 0.13784 0.32097 0.0682l1.77008-0.66207c0.14418 0.1146 0.29434 0.21933 0.45244 0.31382l0.0168 1.88451c-0.0266 0.12505 0.0544 0.24717 0.17943 0.27375l1.3526 0.2875c0.12504 0.0266 0.22218-0.0608 0.27526-0.17711l0.7818-1.71476c0.18179-0.0205 0.36225-0.0526 0.53976-0.0969l1.34134 1.31743c0.0697 0.10727 0.21182 0.13745 0.31904 0.0678l1.1629-0.75519c0.10727-0.0697 0.11244-0.19927 0.0678-0.31904l-0.65906-1.76545c0.11317-0.14307 0.21572-0.29275 0.30919-0.44944l1.88451-0.0168c0.12783-1e-3 0.24717-0.0544 0.27375-0.17943l0.2875-1.35259c0.0266-0.12505-0.0521-0.24869-0.17711-0.27526l-1.71476-0.78181c-0.0207-0.18409-0.0545-0.36661-0.0995-0.54629l1.31239-1.33643c0.10726-0.0696 0.13745-0.21183 0.0678-0.31904l-0.75328-1.16249c-0.0697-0.10727-0.19928-0.11245-0.31904-0.0678l-1.76313 0.65756c-0.14185-0.11215-0.29081-0.21371-0.44603-0.30647l-0.0168-1.8845c-1e-3 -0.12783-0.0544-0.24718-0.17943-0.27376zm-0.15535 4.05635a2 2 0 0 1 1.54047 2.37211 2 2 0 0 1-2.37212 1.54047 2 2 0 0 1-1.54046-2.37212 2 2 0 0 1 2.37211-1.54046z" fill="currentColor"/>
        <path class="ColorScheme-Text" d="m433.91079 506.89879c-0.12158-0.0395-0.25277 0.0258-0.29226 0.14737l-0.95677 1.62364c-0.18294 1e-3 -0.36575 0.0145-0.54693 0.0399l-1.19628-1.45042c-0.0813-0.0985-0.1963-0.15884-0.3102-0.10078l-1.23547 0.6295c-0.11397 0.0581-0.15884 0.19629-0.10078 0.31021l0.47091 1.82467c-0.12751 0.13045-0.24514 0.26859-0.35448 0.41465l-1.87593-0.18027c-0.12159-0.0395-0.25152 0.0283-0.29102 0.14983l-0.42731 1.31514c-0.0395 0.12157 0.0372 0.22732 0.14737 0.29226l1.62364 0.95676c1e-3 0.18025 0.014 0.35976 0.0387 0.53829l-1.45656 1.20251c-0.0985 0.0813-0.15883 0.19629-0.10077 0.31021l0.62763 1.23486c0.0581 0.11397 0.19815 0.15943 0.31208 0.10138l1.82959-0.47342c0.13141 0.12904 0.2698 0.24889 0.41716 0.35939l-0.18028 1.87594c-0.0395 0.12159 0.0283 0.25151 0.14983 0.29101l1.31514 0.42731c0.12157 0.0395 0.22732-0.0372 0.29226-0.14737l0.95676-1.62364c0.18294-1e-3 0.36577-0.0145 0.54693-0.0399l1.19629 1.45042c0.0581 0.11397 0.19629 0.15884 0.3102 0.10078l1.23547-0.6295c0.11397-0.0581 0.13265-0.18643 0.10078-0.31021l-0.47091-1.82466c0.1275-0.13046 0.24514-0.2686 0.35447-0.41466l1.87595 0.18027c0.12723 0.0124 0.2515-0.0283 0.291-0.14983l0.42731-1.31513c0.0395-0.12158-0.0258-0.25277-0.14737-0.29226l-1.62364-0.95677c-1e-3 -0.18525-0.0159-0.3703-0.0419-0.5537l1.44489-1.19193c0.11395-0.058 0.15884-0.1963 0.10078-0.3102l-0.62764-1.23486c-0.0581-0.11397-0.18643-0.13267-0.3102-0.10078l-1.82221 0.46966c-0.12935-0.12636-0.26688-0.24294-0.41155-0.35141l0.18027-1.87594c0.0124-0.12723-0.0283-0.25151-0.14983-0.29101zm-0.5785 4.01789a2 2 0 0 1 1.28408 2.52014 2 2 0 0 1-2.52015 1.28408 2 2 0 0 1-1.28407-2.52015 2 2 0 0 1 2.52014-1.28407z" fill="currentColor"/>
        <path class="ColorScheme-Text" d="m434.52299 523.05623c-0.11678-0.052-0.25408-7.6e-4 -0.30606 0.11602l-1.12125 1.51473c-0.18204-0.0181-0.36526-0.0238-0.5481-0.0175l-1.03812-1.56752c-0.0706-0.10645-0.17862-0.17848-0.29796-0.13265l-1.29451 0.49691c-0.11942 0.0459-0.17848 0.17861-0.13265 0.29798l0.2776 1.8639c-0.14045 0.1164-0.27187 0.24149-0.39588 0.37532l-1.84681-0.37537c-0.1168-0.052-0.2531 2e-3 -0.30509 0.11859l-0.56244 1.26327c-0.052 0.11677 0.0132 0.22996 0.11602 0.30606l1.51473 1.12124c-0.0178 0.17937-0.0237 0.35925-0.0178 0.53938l-1.57427 1.04368c-0.10646 0.0706-0.17848 0.17861-0.13265 0.29797l0.49512 1.2937c0.0459 0.11942 0.1804 0.17927 0.29977 0.13345l1.86905-0.27958c0.11721 0.14207 0.24231 0.27572 0.37731 0.40102l-0.37538 1.84682c-0.052 0.1168 2e-3 0.25309 0.11859 0.30508l1.26327 0.56244c0.11677 0.052 0.22996-0.0132 0.30606-0.11602l1.12124-1.51473c0.18204 0.0181 0.36528 0.0238 0.5481 0.0175l1.03813 1.56752c0.0459 0.11942 0.17861 0.17848 0.29797 0.13265l1.2945-0.49691c0.11942-0.0459 0.15141-0.17154 0.13265-0.29798l-0.2776-1.86388c0.14044-0.11642 0.27187-0.24151 0.39587-0.37534l1.84683 0.37537c0.12524 0.0256 0.25308-2e-3 0.30507-0.11859l0.56244-1.26326c0.052-0.11678 7.6e-4 -0.25408-0.11602-0.30606l-1.51473-1.12125c0.0184-0.18434 0.0229-0.36993 0.0162-0.55504l1.56156-1.03437c0.11939-0.0458 0.17849-0.17862 0.13265-0.29797l-0.49512-1.2937c-0.0459-0.11942-0.17154-0.15143-0.29797-0.13265l-1.86132 0.27661c-0.11543-0.13919-0.24002-0.2695-0.37256-0.3925l0.37537-1.84682c0.0256-0.12524-2e-3 -0.25309-0.11859-0.30508zm-0.99531 3.93541a2 2 0 0 1 1.01362 2.64056 2 2 0 0 1-2.64057 1.01362 2 2 0 0 1-1.01361-2.64057 2 2 0 0 1 2.64056-1.01361z" fill="currentColor"/>
        <path class="ColorScheme-Text" d="m435.11546 539.27754c-0.1107-0.0639-0.2526-0.0273-0.31651 0.0834l-1.27344 1.38923c-0.17915-0.037-0.36077-0.0619-0.54326-0.0747l-0.86859-1.66745c-0.0591-0.11325-0.15898-0.19617-0.28246-0.16307l-1.33936 0.35888c-0.12356 0.0332-0.19617 0.15897-0.16307 0.28248l0.0812 1.8827c-0.15185 0.10109-0.29562 0.21175-0.43294 0.33189l-1.79746-0.56636c-0.11072-0.0639-0.25192-0.0245-0.31581 0.0861l-0.69141 1.19756c-0.0639 0.11069-0.0109 0.23008 0.0834 0.31651l1.38923 1.27343c-0.0365 0.17653-0.0611 0.3548-0.0741 0.53456l-1.67474 0.87341c-0.11326 0.0591-0.19617 0.15898-0.16307 0.28247l0.35718 1.33837c0.0332 0.12356 0.16067 0.19714 0.28418 0.16405l1.88803-0.0827c0.10172 0.15355 0.21216 0.29954 0.33333 0.43827l-0.56637 1.79746c-0.0639 0.11073-0.0245 0.25191 0.0861 0.31581l1.19756 0.6914c0.11069 0.0639 0.23008 0.0109 0.31651-0.0834l1.27343-1.38923c0.17915 0.037 0.36079 0.0618 0.54327 0.0747l0.86859 1.66744c0.0332 0.12357 0.15897 0.19617 0.28247 0.16307l1.33935-0.35887c0.12356-0.0332 0.16851-0.15478 0.16307-0.28249l-0.0813-1.88268c0.15184-0.1011 0.29563-0.21177 0.43294-0.33191l1.79747 0.56636c0.12188 0.0386 0.25191 0.0245 0.3158-0.0861l0.6914-1.19755c0.0639-0.1107 0.0273-0.25261-0.0834-0.31651l-1.38923-1.27344c0.0376-0.1814 0.0614-0.36551 0.0741-0.5503l1.66113-0.86548c0.12352-0.0331 0.19618-0.15898 0.16307-0.28247l-0.35718-1.33837c-0.0332-0.12356-0.15477-0.16853-0.28248-0.16307l-1.88003 0.0805c-0.10025-0.15049-0.21054-0.29311-0.32949-0.42929l0.56635-1.79746c0.0386-0.12188 0.0245-0.25192-0.0861-0.31581zm-1.40121 3.80981a2 2 0 0 1 0.73205 2.73205 2 2 0 0 1-2.73206 0.73205 2 2 0 0 1-0.73204-2.73205 2 2 0 0 1 2.73205-0.73205z" fill="currentColor"/>
        <path class="ColorScheme-Text" d="m435.68158 555.55958c-0.10341-0.0751-0.24836-0.0536-0.32349 0.0499l-1.41168 1.2485c-0.1743-0.0555-0.35232-0.0993-0.53247-0.13107l-0.68954-1.74911c-0.0469-0.11881-0.1376-0.21171-0.26387-0.1917l-1.36953 0.21691c-0.12636 0.0201-0.21171 0.13759-0.19171 0.26389l-0.11604 1.88087c-0.16158 0.0847-0.31613 0.17969-0.46526 0.28482l-1.72841-0.75114c-0.10343-0.0751-0.24798-0.0507-0.32308 0.0526l-0.8128 1.11873c-0.0751 0.1034-0.0349 0.22768 0.0499 0.32349l1.24851 1.41167c-0.0548 0.17175-0.0978 0.34647-0.12957 0.52389l-1.75686 0.69357c-0.11882 0.0469-0.21172 0.1376-0.19171 0.26387l0.21533 1.36838c0.0201 0.12635 0.13918 0.21285 0.26547 0.19285l1.88634 0.11511c0.0851 0.16334 0.17968 0.32007 0.28569 0.47071l-0.75116 1.72841c-0.0751 0.10345-0.0507 0.24797 0.0526 0.32308l1.11873 0.81279c0.1034 0.0751 0.22768 0.0349 0.32349-0.0499l1.41167-1.24851c0.1743 0.0555 0.35236 0.0992 0.53249 0.13108l0.68953 1.7491c0.0201 0.12636 0.1376 0.21171 0.26388 0.1917l1.36953-0.2169c0.12635-0.0201 0.18376-0.13632 0.1917-0.2639l0.11594-1.88086c0.16158-0.0847 0.31615-0.17971 0.46526-0.28484l1.72843 0.75115c0.11717 0.0511 0.24796 0.0507 0.32307-0.0526l0.81279-1.11872c0.0751-0.10342 0.0535-0.24837-0.0499-0.3235l-1.24851-1.41167c0.0564-0.17648 0.0993-0.35709 0.13121-0.53954l1.7425-0.68711c0.12631-0.02 0.21173-0.1376 0.1917-0.26387l-0.21532-1.36838c-0.0201-0.12635-0.13631-0.18378-0.26389-0.1917l-1.87814-0.11646c-0.084-0.16014-0.17875-0.31351-0.28282-0.46138l0.75114-1.72841c0.0511-0.11718 0.0507-0.24798-0.0526-0.32308zm-1.79176 3.64247a2 2 0 0 1 0.44246 2.7936 2 2 0 0 1-2.79361 0.44247 2 2 0 0 1-0.44246-2.79361 2 2 0 0 1 2.79361-0.44246z" fill="currentColor"/>
        <path class="ColorScheme-Text" d="m436.21517 571.89923c-0.095-0.0855-0.24139-0.0793-0.32693 0.0158l-1.53445 1.0941c-0.16755-0.0734-0.34001-0.13558-0.51585-0.18601l-0.50294-1.81161c-0.0342-0.12306-0.11471-0.22493-0.24238-0.21823l-1.3847 0.0726c-0.12777 7e-3 -0.22493 0.11471-0.21825 0.2424l-0.31201 1.85844c-0.16954 0.0674-0.33318 0.14566-0.49248 0.23463l-1.64042-0.92769c-0.095-0.0855-0.24133-0.0764-0.32681 0.0185l-0.92529 1.02764c-0.0855 0.095-0.0585 0.22278 0.0158 0.32693l1.09411 1.53444c-0.0725 0.16508-0.13348 0.33435-0.18362 0.50748l-1.81973 0.50613c-0.12307 0.0342-0.22494 0.11471-0.21824 0.24238l0.0711 1.38339c7e-3 0.12776 0.11617 0.22624 0.24386 0.21955l1.86397 0.31165c0.0676 0.17134 0.14524 0.3371 0.23493 0.498l-0.92772 1.64042c-0.0855 0.095-0.0763 0.24131 0.0185 0.32681l1.02765 0.92528c0.095 0.0855 0.22278 0.0585 0.32693-0.0158l1.53444-1.09411c0.16755 0.0734 0.34006 0.13549 0.51587 0.18602l0.50293 1.8116c7e-3 0.12777 0.11471 0.22493 0.24239 0.21823l1.3847-0.0726c0.12776-7e-3 0.197-0.11636 0.21824-0.24241l0.3119-1.85844c0.16955-0.0674 0.33321-0.14568 0.49249-0.23465l1.64044 0.92771c0.11119 0.0631 0.24131 0.0763 0.3268-0.0185l0.92528-1.02763c0.0855-0.095 0.0792-0.24142-0.0158-0.32695l-1.09411-1.53444c0.0745-0.16962 0.13608-0.34475 0.18688-0.52287l1.80478-0.5012c0.12771-7e-3 0.22495-0.11472 0.21823-0.24239l-0.0711-1.38339c-7e-3 -0.12776-0.11636-0.19702-0.24241-0.21824l-1.85568-0.31214c-0.0668-0.16804-0.145-0.33047-0.23304-0.48841l0.92769-1.64043c0.0631-0.11119 0.0763-0.24132-0.0185-0.32681zm-2.16268 3.43522a2 2 0 0 1 0.14802 2.82455 2 2 0 0 1-2.82456 0.14803 2 2 0 0 1-0.14802-2.82455 2 2 0 0 1 2.82456-0.14803z" fill="currentColor"/>
        <path class="ColorScheme-Text" d="m436.7104 588.29276c-0.0855-0.095-0.23178-0.1041-0.32679-0.0185l-1.64041 0.92771c-0.15896-0.0905-0.32398-0.17038-0.49358-0.23891l-0.31082-1.85426c-0.0212-0.12596-0.0906-0.23569-0.21824-0.24237l-1.38471-0.0725c-0.1278-6e-3 -0.23568 0.0906-0.24239 0.21826l-0.50456 1.81564c-0.17566 0.0493-0.34658 0.11004-0.51431 0.18187l-1.53446-1.09408c-0.0855-0.095-0.23202-0.10121-0.32695-0.0158l-1.02764 0.92529c-0.095 0.0855-0.0815 0.21545-0.0185 0.32679l0.92772 1.6404c-0.0894 0.1566-0.1677 0.31857-0.23566 0.48551l-1.86267 0.31314c-0.12597 0.0211-0.23569 0.0906-0.24238 0.21824l-0.0739 1.38325c-6e-3 0.12779 0.0919 0.23714 0.21958 0.24383l1.82118 0.50478c0.0493 0.17747 0.10921 0.35044 0.18159 0.51983l-1.09411 1.53446c-0.095 0.0856-0.10111 0.23202-0.0158 0.32696l0.9253 1.02763c0.0855 0.095 0.21544 0.0815 0.32679 0.0185l1.6404-0.92773c0.15896 0.0905 0.32403 0.1703 0.4936 0.23893l0.31081 1.85424c-6e-3 0.1278 0.0906 0.23569 0.21825 0.24237l1.3847 0.0725c0.1278 6e-3 0.20809-0.0951 0.24239-0.21827l0.50445-1.81565c0.17566-0.0493 0.34661-0.11006 0.51432-0.18189l1.53448 1.0941c0.10398 0.0744 0.23201 0.10111 0.32694 0.0158l1.02763-0.92528c0.095-0.0855 0.104-0.23182 0.0185-0.32681l-0.92772-1.6404c0.0918-0.1609 0.17137-0.32864 0.24051-0.50047l1.84728-0.30981c0.12774 6e-3 0.23571-0.0906 0.24237-0.21825l0.0739-1.38324c6e-3 -0.12779-0.0951-0.2081-0.21827-0.24238l-1.81289-0.5044c-0.0489-0.17411-0.10966-0.34382-0.18071-0.5101l1.09408-1.53447c0.0744-0.10399 0.10111-0.23202 0.0158-0.32696zm-2.50991 3.19034a2 2 0 0 1-0.14804 2.82454 2 2 0 0 1-2.82456-0.14802 2 2 0 0 1 0.14804-2.82455 2 2 0 0 1 2.82456 0.14803z" fill="currentColor"/>
        <path class="ColorScheme-Text" d="m437.16184 604.73585c-0.0751-0.10342-0.21963-0.12776-0.32306-0.0526l-1.7284 0.75116c-0.14863-0.10662-0.30439-0.20331-0.4659-0.2892l-0.1153-1.87659c-8e-3 -0.12748-0.0655-0.24387-0.19171-0.26385l-1.36954-0.21685c-0.12647-0.0193-0.24386 0.0655-0.26388 0.19173l-0.69158 1.75295c-0.17985 0.0307-0.35618 0.0732-0.5305 0.12712l-1.4117-1.24848c-0.0751-0.10342-0.22016-0.12491-0.3235-0.0499l-1.11873 0.8128c-0.10342 0.0751-0.10358 0.20575-0.0526 0.32307l0.75117 1.72838c-0.10528 0.1464-0.20008 0.2993-0.28512 0.45822l-1.8852 0.11672c-0.12748 8e-3 -0.24387 0.0655-0.26386 0.19171l-0.21809 1.36795c-0.0193 0.12646 0.0666 0.24545 0.19289 0.26545l1.75844 0.69238c0.0305 0.18165 0.072 0.35993 0.12626 0.53596l-1.24851 1.41169c-0.10343 0.0752-0.12481 0.22018-0.0499 0.32352l0.81282 1.11872c0.0751 0.10341 0.20574 0.10357 0.32306 0.0525l1.72839-0.75118c0.14863 0.10662 0.30445 0.20324 0.46592 0.28922l0.11529 1.87657c-0.0193 0.12647 0.0655 0.24387 0.19172 0.26386l1.36953 0.21684c0.12648 0.0193 0.21689-0.0728 0.26388-0.19174l0.69147-1.75297c0.17985-0.0307 0.35622-0.0732 0.53052-0.12713l1.41171 1.2485c0.0956 0.0849 0.22017 0.12481 0.3235 0.0499l1.11871-0.8128c0.10342-0.0751 0.12767-0.21968 0.0526-0.32308l-0.75117-1.72839c0.10812-0.15042 0.20479-0.30893 0.29151-0.47259l1.86954-0.11502c0.12642 0.0193 0.24389-0.0655 0.26386-0.19172l0.21808-1.36794c0.0193-0.12646-0.0728-0.2169-0.19174-0.26386l-1.75023-0.69114c-0.0304-0.17827-0.0731-0.3534-0.1264-0.52619l1.24848-1.4117c0.0849-0.0957 0.12481-0.22018 0.0499-0.32352zm-2.82964 2.9105a2 2 0 0 1-0.44247 2.7936 2 2 0 0 1-2.79362-0.44246 2 2 0 0 1 0.44248-2.7936 2 2 0 0 1 2.79361 0.44246z" fill="currentColor"/>
        <path class="ColorScheme-Text" d="m437.56454 621.22365c-0.0639-0.11071-0.20507-0.15002-0.31579-0.0861l-1.79745 0.56637c-0.13667-0.12157-0.28147-0.23401-0.43312-0.33631l0.0815-1.87836c5e-3 -0.12762-0.0396-0.24938-0.16308-0.28245l-1.33937-0.35881c-0.12376-0.0324-0.24937 0.0396-0.28248 0.16309l-0.87102 1.67106c-0.18208 0.0117-0.36188 0.0356-0.54088 0.071l-1.27347-1.3892c-0.0639-0.11071-0.2059-0.14724-0.31651-0.0834l-1.19756 0.6914c-0.11071 0.0639-0.12452 0.1938-0.0861 0.31581l0.56639 1.79743c-0.12001 0.13459-0.23027 0.27674-0.33146 0.4259l-1.88707-0.081c-0.12762-5e-3 -0.24938 0.0396-0.28246 0.16308l-0.35988 1.33765c-0.0324 0.12375 0.0406 0.25107 0.16409 0.28416l1.67643 0.8724c0.0113 0.18384 0.034 0.36548 0.0695 0.54622l-1.38923 1.27345c-0.11072 0.064-0.14714 0.20593-0.0834 0.31653l0.69143 1.19756c0.0639 0.11069 0.19378 0.12451 0.3158 0.086l1.79744-0.5664c0.13667 0.12157 0.28154 0.23395 0.43314 0.33634l-0.0815 1.87834c-0.0324 0.12376 0.0396 0.24938 0.16309 0.28245l1.33936 0.35881c0.12377 0.0324 0.22331-0.0497 0.28248-0.16311l0.87092-1.67109c0.18207-0.0117 0.36192-0.0356 0.5409-0.071l1.27347 1.38923c0.0862 0.0944 0.20592 0.14714 0.31651 0.0834l1.19754-0.69141c0.11071-0.0639 0.14994-0.20513 0.0861-0.31581l-0.56639-1.79744c0.12325-0.1383 0.23596-0.28583 0.33931-0.43953l1.87132 0.081c0.12371 0.0324 0.2494-0.0397 0.28246-0.16309l0.35987-1.33765c0.0324-0.12375-0.0497-0.22332-0.16311-0.28246l-1.6684-0.8703c-0.0116-0.18047-0.0358-0.35911-0.0707-0.53652l1.3892-1.27347c0.0944-0.0863 0.14714-0.20592 0.0834-0.31653zm-3.11837 2.59878a2 2 0 0 1-0.73206 2.73204 2 2 0 0 1-2.73206-0.73205 2 2 0 0 1 0.73206-2.73204 2 2 0 0 1 2.73206 0.73205z" fill="currentColor"/>
        <path class="ColorScheme-Text" d="m437.91408 637.75082c-0.052-0.11678-0.18827-0.17063-0.30506-0.11863l-1.84681 0.37538c-0.12321-0.13519-0.25547-0.26215-0.39559-0.37974l0.27739-1.85955c0.0183-0.1264-0.0133-0.25216-0.13266-0.29795l-1.29453-0.49685c-0.11969-0.0452-0.25214 0.0133-0.29798 0.13267l-1.04092 1.57086c-0.1823-7e-3 -0.36362-2e-3 -0.54534 0.0141l-1.12128-1.5147c-0.052-0.11678-0.18938-0.16796-0.30606-0.11603l-1.26327 0.56244c-0.11678 0.052-0.14409 0.17972-0.11864 0.30508l0.37541 1.84678c-0.13342 0.12131-0.25794 0.25116-0.37417 0.38892l-1.86826-0.27781c-0.1264-0.0183-0.25215 0.0133-0.29796 0.13267l-0.49773 1.2927c-0.0452 0.11969 0.0141 0.25394 0.13349 0.29976l1.57605 1.04285c-8e-3 0.18401-4e-3 0.36703 0.012 0.55049l-1.51473 1.12126c-0.11681 0.0521-0.16786 0.18942-0.11603 0.30608l0.56246 1.26328c0.052 0.11676 0.1797 0.14408 0.30508 0.11853l1.8468-0.37541c0.12321 0.13519 0.25554 0.2621 0.39561 0.37977l-0.2774 1.85953c-0.0451 0.1197 0.0133 0.25216 0.13268 0.29796l1.29451 0.49684c0.11971 0.0452 0.22729-0.0261 0.29799-0.13269l1.04082-1.5709c0.1823 7e-3 0.36366 2e-3 0.54536-0.0141l1.12128 1.51473c0.0759 0.1029 0.18941 0.16786 0.30606 0.11603l1.26325-0.56244c0.11678-0.052 0.17056-0.18834 0.11864-0.30508l-0.3754-1.8468c0.13703-0.12466 0.26454-0.2596 0.38339-0.40166l1.8526 0.27617c0.11965 0.0452 0.25219-0.0134 0.29796-0.13268l0.49772-1.2927c0.0452-0.11969-0.0261-0.22729-0.13269-0.29796l-1.56829-1.03993c7e-3 -0.18069 2e-3 -0.36089-0.0142-0.54097l1.51471-1.12128c0.1029-0.076 0.16785-0.18942 0.11602-0.30608zm-3.37294 2.25859a2 2 0 0 1-1.01362 2.64055 2 2 0 0 1-2.64058-1.01362 2 2 0 0 1 1.01363-2.64055 2 2 0 0 1 2.64057 1.01362z" fill="currentColor"/>
        <path class="ColorScheme-Text" d="m438.2066 654.31161c-0.0395-0.12157-0.1694-0.18937-0.29098-0.14986l-1.87593 0.18028c-0.10841-0.14733-0.22667-0.28742-0.35373-0.41901l0.47024-1.82037c0.0314-0.1238 0.0131-0.25217-0.10079-0.31019l-1.2355-0.62944c-0.11431-0.0575-0.25215-0.0131-0.31022 0.1008l-1.19941 1.45344c-0.18057-0.026-0.36142-0.04-0.54383-0.043l-0.95681-1.6236c-0.0395-0.12158-0.17078-0.18684-0.29225-0.14739l-1.31514 0.42731c-0.12158 0.0395-0.16209 0.16367-0.14988 0.29101l0.18031 1.8759c-0.14537 0.1067-0.28278 0.22282-0.41277 0.34768l-1.82899-0.47157c-0.12379-0.0314-0.25216-0.0131-0.3102 0.10079l-0.63012 1.2336c-0.0575 0.1143-0.0125 0.25402 0.10142 0.31207l1.45841 1.20188c-0.0272 0.18216-0.0423 0.3646-0.0456 0.54872l-1.62363 0.95679c-0.12162 0.0396-0.18674 0.17084-0.14739 0.29227l0.42733 1.31516c0.0395 0.12155 0.16365 0.16207 0.29102 0.14977l1.87592-0.18031c0.10841 0.14733 0.22675 0.28737 0.35375 0.41904l-0.47026 1.82035c-0.0574 0.11433-0.0131 0.25217 0.10081 0.31019l1.23549 0.62943c0.11433 0.0575 0.22877-2e-3 0.31022-0.10081l1.19933-1.4535c0.18057 0.026 0.36145 0.04 0.54384 0.043l0.95681 1.62364c0.0647 0.11027 0.17082 0.18674 0.29225 0.14739l1.31512-0.42732c0.12158-0.0395 0.18932-0.16948 0.14988-0.291l-0.1803-1.87593c0.14931-0.10965 0.29023-0.23052 0.42328-0.35938l1.81358 0.46831c0.11427 0.0575 0.25221 0.013 0.3102-0.10081l0.63011-1.23359c0.0575-0.11431-2e-3 -0.22878-0.10081-0.3102l-1.451-1.19817c0.0258-0.17896 0.0397-0.3587 0.0424-0.53949l1.62361-0.9568c0.11028-0.0648 0.18673-0.17084 0.14738-0.29228zm-3.59054 1.89365a2 2 0 0 1-1.28408 2.52014 2 2 0 0 1-2.52017-1.28409 2 2 0 0 1 1.28409-2.52013 2 2 0 0 1 2.52016 1.28408z" fill="currentColor"/>
        <path class="ColorScheme-Text" d="m438.43898 670.89957c-0.0266-0.12503-0.14867-0.20604-0.27372-0.17945l-1.8845-0.0168c-0.0924-0.15785-0.19538-0.30954-0.30799-0.45369l0.65794-1.76124c0.0442-0.11984 0.0394-0.24942-0.0678-0.31903l-1.16294-0.75513c-0.10767-0.0691-0.2494-0.0394-0.31905 0.0678l-1.34477 1.3201c-0.17686-0.0447-0.35526-0.0776-0.53636-0.0996l-0.78185-1.71472c-0.0266-0.12504-0.15032-0.20367-0.27524-0.17713l-1.35261 0.2875c-0.12504 0.0266-0.17831 0.14583-0.17947 0.27375l-0.0168 1.88447c-0.15572 0.0909-0.30452 0.19204-0.44685 0.30263l-1.76968-0.66017c-0.11983-0.0442-0.2494-0.0394-0.31903 0.0678l-0.75562 1.16098c-0.0691 0.10766-0.039 0.25132 0.0682 0.32096l1.32479 1.34774c-0.0461 0.17832-0.0802 0.35819-0.10271 0.54095l-1.71475 0.78184c-0.12509 0.0267-0.20357 0.15038-0.17713 0.27526l0.28752 1.35262c0.0266 0.12501 0.14581 0.17829 0.27377 0.17937l1.88449 0.0168c0.0924 0.15785 0.19547 0.30949 0.30801 0.45372l-0.65796 1.76122c-0.069 0.1077-0.0394 0.24942 0.0678 0.31903l1.16293 0.75512c0.10769 0.0691 0.22773 0.0219 0.31906-0.0678l1.34469-1.32017c0.17686 0.0447 0.35529 0.0776 0.53637 0.0996l0.78185 1.71476c0.0528 0.11643 0.15036 0.20357 0.27524 0.17713l1.35258-0.28751c0.12505-0.0266 0.206-0.14876 0.17948-0.27374l0.0168-1.8845c0.15995-0.0934 0.31273-0.19892 0.45852-0.31317l1.7547 0.65532c0.10763 0.0691 0.24947 0.0393 0.31903-0.0678l0.75561-1.16097c0.0691-0.10768 0.0219-0.22774-0.0678-0.31904l-1.3178-1.34328c0.0444-0.17528 0.077-0.35258 0.0986-0.5321l1.71472-0.78185c0.11645-0.0529 0.20357-0.15038 0.17713-0.27527zm-3.76881 1.50797a2 2 0 0 1-1.54047 2.37211 2 2 0 0 1-2.37214-1.54049 2 2 0 0 1 1.54048-2.3721 2 2 0 0 1 2.37213 1.54048z" fill="currentColor"/>
        <path class="ColorScheme-Text" d="m438.60867 687.50858c-0.0134-0.12713-0.12632-0.22045-0.25346-0.20708l-1.87242-0.21369c-0.0754-0.16664-0.16195-0.32827-0.25888-0.4834l0.83844-1.68282c0.0565-0.11456 0.0652-0.24393-0.0341-0.32437l-1.07763-0.87255c-0.0999-0.08-0.24392-0.0652-0.32439 0.0341l-1.47539 1.1723c-0.17122-0.0629-0.3452-0.11431-0.52301-0.15512l-0.59833-1.78705c-0.0134-0.12714-0.12821-0.21827-0.25522-0.20493l-1.37525 0.14454c-0.12714 0.0134-0.19258 0.12639-0.2071 0.25349l-0.21369 1.87239c-0.16437 0.0741-0.32293 0.15916-0.47604 0.25426l-1.69098-0.84153c-0.11455-0.0565-0.24391-0.0653-0.32437 0.0341l-0.87283 1.07563c-0.08 0.0998-0.0651 0.24587 0.0343 0.32633l1.17666 1.47884c-0.0645 0.17252-0.1172 0.34784-0.15869 0.52725l-1.78708 0.59832c-0.1272 0.0135-0.21818 0.12827-0.20494 0.25523l0.14456 1.37527c0.0134 0.1271 0.12638 0.19255 0.25352 0.207l1.87241 0.21369c0.0754 0.16665 0.16205 0.32823 0.2589 0.48343l-0.83845 1.6828c-0.0799 0.0999-0.0653 0.24393 0.0341 0.32437l1.07763 0.87254c0.0999 0.08 0.22419 0.0456 0.32439-0.0341l1.47532-1.17238c0.17122 0.063 0.34524 0.11432 0.52302 0.15512l0.59833 1.7871c0.0403 0.12131 0.12826 0.21817 0.25522 0.20493l1.37522-0.14456c0.12715-0.0134 0.22042-0.12641 0.20711-0.25347l0.21369-1.87243c0.16884-0.0762 0.33181-0.16514 0.48875-0.26352l1.67658 0.83514c0.0998 0.08 0.244 0.0652 0.32437-0.0341l0.87283-1.07562c0.08-0.0999 0.0456-0.22421-0.0341-0.32438l-1.17017-1.47367c0.0625-0.16968 0.11343-0.3426 0.15368-0.51888l1.78705-0.59833c0.12134-0.0404 0.21817-0.12828 0.20493-0.25525zm-3.90579 1.10576a2 2 0 0 1-1.77998 2.19809 2 2 0 0 1-2.19812-1.78 2 2 0 0 1 1.77999-2.19809 2 2 0 0 1 2.19811 1.78z" fill="currentColor"/>
    </g>
</svg>
