<svg xmlns="http://www.w3.org/2000/svg" viewBox="0 0 16 16">
  <defs id="defs3051">
    <style type="text/css" id="current-color-scheme">
      .ColorScheme-Text {
        color:#f2f2f2;
      }
      </style>
  </defs>
    <path 
        style="fill:currentColor;fill-opacity:1;stroke:none" 
          d="M 7.988281,0 3,3.9961 3,5 l 0,7 0,0 4.988281,3.9961 0.011719,0 1,0 0,-0.4707 0,-15.0586 0,-0.4707 -1,0 -0.011719,0 z M 8,1.2715 8,14.7285 4,11.5234 4,4.4766 8,1.2715 Z M 0,5 0,11 2,11 2,5 0,5 Z"
          class="ColorScheme-Text"/>
    <path 
        style="fill:currentColor;fill-opacity:1;stroke:none" 
          d="m 11.447,3.105 -0.451,0.9 c 1.25886,0.9422162 2.001151,2.4217298 2.00391,3.994141 -0.004,1.5710354 -0.746147,3.048843 -2.00391,3.990234 l 0.451,0.906 C 13.043046,11.775011 13.995072,9.9488988 13.999734,7.998891 13.994438,6.0495736 13.042484,4.2243262 11.447,3.10436 m -1.447,1.436 0,1.227 c 0.635357,0.568277 0.998967,1.3800062 1,2.232422 -0.0016,0.8517349 -0.365149,1.6626462 -1,2.230469 l 0,1.229 c 1.236028,-0.713616 1.998179,-2.0317513 2,-3.458984 -0.0018,-1.4272327 -0.763972,-2.7453682 -2,-3.458984"
          class="ColorScheme-Text"/>
</svg>
