<svg xmlns="http://www.w3.org/2000/svg" viewBox="0 0 16 16">
  <defs id="defs3051">
    <style type="text/css" id="current-color-scheme">
      .ColorScheme-Text {
        color:#f2f2f2;
      }
      .ColorScheme-NeutralText {
        color:#f67400;
      }
      </style>
  </defs>
  <path style="fill:currentColor;fill-opacity:1;stroke:none" 
     d="M 8 5 C 6.892 5 6 5.892 6 7 L 6 10 C 6 11.108 6.892 12 8 12 C 9.108 12 10 11.108 10 10 L 10 7 C 10 5.892 9.108 5 8 5 z M 4 9 L 4 10 C 4 11.847 5.286 13.405469 7 13.855469 L 7 15 L 6 15 L 6 16 L 10 16 L 10 15 L 9 15 L 9 13.855469 C 10.714 13.404469 12 11.845 12 10 L 12 9 L 11 9 L 11 10 C 11 11.645 9.645 13 8 13 C 6.355 13 5 11.645 5 10 L 5 9 L 4 9 z "
     class="ColorScheme-Text"
     />
  <path
     transform="matrix(0,-1,1,0,0,0)"
       style="fill:currentColor;fill-opacity:1;stroke:none" 
     class="ColorScheme-NeutralText"
   d="M 1.4662743e-5,8 A 2,2 0 0 1 -1.9999853,10 a 2,2 0 0 1 -2,-2 2,2 0 0 1 2,-2 2,2 0 0 1 1.999999962743,2 z"/>
</svg>
