<svg xmlns="http://www.w3.org/2000/svg" viewBox="0 0 16 16">
  <defs id="defs3051">
    <style type="text/css" id="current-color-scheme">
      .ColorScheme-Text {
        color:#f2f2f2;
      }
      </style>
  </defs>
  <g
     transform="translate(0,-1036.3622)">
    <path
       style="fill:currentColor;fill-opacity:1;stroke:none" 
       d="M 7.5,2 C 5.0147186,2 3,4.0147186 3,6.5 3.0015312,6.7197442 3.0191564,6.939081 3.0527344,7.15625 1.8279505,7.563833 1.0011929,8.7091793 1,10 c 0,1.656854 1.3431458,3 3,3 l 7.5,0 C 13.432997,13 15,11.432997 15,9.5 14.656395,8.322754 13.437324,6.8176049 11.981824,6.1834462 11.951943,6.1704269 12.000846,6.0473359 11.970703,6.0351562 11.732775,3.7441623 9.803314,2.0026739 7.5,2 Z m 0,1 C 9.4329966,3 11,4.5670034 11,6.5 10.998359,6.6892144 10.981376,6.8779841 10.949219,7.0644531 11.129854,7.0226102 11.314584,7.0009929 11.5,7 12.880712,7 14,8.1192881 14,9.5 14,10.880712 12.880712,12 11.5,12 L 4,12 C 2.8954305,12 2,11.104569 2,10 2,8.8954305 2.8954305,8 4,8 4.119895,8.000332 4.2395173,8.0114445 4.3574219,8.0332031 4.1233957,7.5559094 4.0011632,7.031579 4,6.5 4,4.5670034 5.5670034,3 7.5,3 Z"
       transform="translate(0,1036.3622)"
       id="path4139"
       class="ColorScheme-Text" />
    <g
       transform="translate(-427.71429,506.57149)"
       id="g3385">
      <circle
         cy="539.79071"
         cx="438.71429"
         id="path4306"
         style="opacity:1;fill:#bdc3c7;fill-opacity:1;stroke:none;stroke-width:1;stroke-linecap:butt;stroke-linejoin:round;stroke-miterlimit:4;stroke-dasharray:none"
         r="4" />
      <rect
         style="opacity:1;fill:#ffffff;fill-opacity:1;stroke-linecap:round"
         id="rect4521"
         width="0.99999738"
         height="2.00003"
         x="436.71429"
         y="538.79071"
         ry="0" />
      <rect
         style="opacity:1;fill:#ffffff;fill-opacity:1;stroke-linecap:round"
         id="rect4521-0"
         width="0.99999738"
         height="2.00003"
         x="439.71429"
         y="538.79071"
         ry="0" />
    </g>
  </g>
</svg>
