<?xml version="1.0" encoding="UTF-8" standalone="no"?>
<!-- Created with Inkscape (http://www.inkscape.org/) -->

<svg
   xmlns:dc="http://purl.org/dc/elements/1.1/"
   xmlns:cc="http://creativecommons.org/ns#"
   xmlns:rdf="http://www.w3.org/1999/02/22-rdf-syntax-ns#"
   xmlns:svg="http://www.w3.org/2000/svg"
   xmlns="http://www.w3.org/2000/svg"
   xmlns:sodipodi="http://sodipodi.sourceforge.net/DTD/sodipodi-0.dtd"
   xmlns:inkscape="http://www.inkscape.org/namespaces/inkscape"
   width="8"
   height="8"
   id="svg2"
   version="1.1"
   inkscape:version="0.91 r13725"
   viewBox="0 0 8 8"
   sodipodi:docname="emblem-question.svg">
  <defs
     id="defs4" />
  <sodipodi:namedview
     id="base"
     pagecolor="#ffffff"
     bordercolor="#666666"
     borderopacity="1.0"
     inkscape:pageopacity="0.0"
     inkscape:pageshadow="2"
     inkscape:zoom="65.053824"
     inkscape:cx="3.8063375"
     inkscape:cy="3.0520539"
     inkscape:document-units="px"
     inkscape:current-layer="layer1"
     showgrid="true"
     inkscape:showpageshadow="false"
     borderlayer="true"
     units="px"
     inkscape:window-width="1920"
     inkscape:window-height="1023"
     inkscape:window-x="0"
     inkscape:window-y="0"
     inkscape:window-maximized="1"
     inkscape:snap-bbox="true"
     showguides="false"
     fit-margin-top="0"
     fit-margin-left="0"
     fit-margin-right="0"
     fit-margin-bottom="0">
    <inkscape:grid
       type="xygrid"
       id="grid4062"
       originx="-7"
       originy="-7.0000174" />
  </sodipodi:namedview>
  <metadata
     id="metadata7">
    <rdf:RDF>
      <cc:Work
         rdf:about="">
        <dc:format>image/svg+xml</dc:format>
        <dc:type
           rdf:resource="http://purl.org/dc/dcmitype/StillImage" />
        <dc:title></dc:title>
      </cc:Work>
    </rdf:RDF>
  </metadata>
  <g
     inkscape:label="Capa 1"
     inkscape:groupmode="layer"
     id="layer1"
     transform="translate(-7,-1037.3622)">
    <rect
       style="opacity:1;fill:#9b59b6;fill-opacity:1;stroke:none;stroke-width:2;stroke-linecap:square;stroke-linejoin:miter;stroke-miterlimit:4;stroke-dasharray:none;stroke-opacity:1"
       id="rect4178"
       width="8"
       height="8"
       x="7"
       y="1037.3622"
       ry="2.0000348" />
    <path
       inkscape:connector-curvature="0"
       style="opacity:1;fill:#ffffff;fill-opacity:1;stroke:none;stroke-width:2;stroke-linecap:round;stroke-linejoin:round;stroke-miterlimit:4;stroke-dasharray:none;stroke-opacity:1"
       d="m 11,1038.3622 c -0.48611,0 -0.940001,0.1705 -1.2597655,0.4902 C 9.4204695,1039.1722 9.25,1039.6261 9.25,1040.1122 l 0.999999,0 c 0,-0.2639 0.07953,-0.435 0.197267,-0.5527 0.117735,-0.1177 0.288846,-0.1973 0.552734,-0.1973 0.26389,0 0.434999,0.08 0.552735,0.1973 0.117735,0.1177 0.197265,0.2888 0.197265,0.5527 0,0.2292 -0.04517,0.3267 -0.105469,0.4131 -0.06029,0.086 -0.159067,0.168 -0.306152,0.271 -0.147087,0.1029 -0.342469,0.2216 -0.522949,0.4321 -0.18048,0.2106 -0.31543,0.5297 -0.31543,0.8838 l 0,0.25 1,0 0,-0.25 c 0,-0.1458 0.0208,-0.1705 0.07471,-0.2334 0.05389,-0.063 0.171498,-0.1474 0.336914,-0.2632 0.165412,-0.1158 0.379142,-0.2685 0.553222,-0.5181 0.17408,-0.2495 0.285156,-0.5895 0.285156,-0.9853 0,-0.4861 -0.170467,-0.94 -0.490234,-1.2598 -0.319765,-0.3197 -0.773653,-0.4902 -1.259765,-0.4902 z m -0.5,5 0,1 1,0 0,-1 -1,0 z"
       id="rect4169" />
  </g>
</svg>
