<svg xmlns="http://www.w3.org/2000/svg" viewBox="0 0 22 22">
 <defs>
  <clipPath>
   <path d="m7 1023.36h1v1h-1z" style="fill:#f2f2f2"/>
  </clipPath>
  <clipPath>
   <path d="m7 1023.36h1v1h-1z" style="fill:#f2f2f2"/>
  </clipPath>
 </defs>
 <path d="m10.5 3v1.8125h1v-1.8125h-1m-4.8125 1.96875l-.71875.71875 1.28125 1.3125.71875-.75-1.28125-1.28125m10.625 0l-1.28125 1.28125.71875.75 1.28125-1.3125-.71875-.71875m-5.3125 1.03125c-2.76142 0-5 2.2386-5 5 0 2.7614 2.23858 5 5 5 2.76142 0 5-2.2386 5-5 0-2.7614-2.23858-5-5-5m-8 4.5v1h1.8125v-1h-1.8125m14.1875 0v1h1.8125v-1h-1.8125m-10.9375 4.53125l-1.28125 1.28125.71875.71875 1.28125-1.28125-.71875-.71875m9.5 0l-.71875.71875 1.28125 1.28125.71875-.71875-1.28125-1.28125m-5.25 2.15625v1.8125h1v-1.8125h-1" style="fill:#1d99f3"/>
</svg>
