<svg width="22" height="22" viewBox="0 0 22 22" fill="none" xmlns="http://www.w3.org/2000/svg"><style type="text/css" id="current-color-scheme">.ColorScheme-Text { color: #fcfcfc; }</style>
<g clip-path="url(#clip0)">
<path fill-rule="evenodd" clip-rule="evenodd" d="M5.67245 13.0319C5.45114 13.0108 5.22683 13 5 13C1.13401 13 -2 16.134 -2 20C-2 23.866 1.13401 27 5 27C6.03249 27 7.01277 26.7765 7.89509 26.3751C7.48081 26.2005 7.08431 25.992 6.70907 25.7531C6.16742 25.9137 5.59379 26 5 26C1.68629 26 -1 23.3137 -1 20C-1 16.7699 1.55252 14.1359 4.75055 14.0051C5.03032 13.6555 5.33881 13.3299 5.67245 13.0319Z" fill="currentColor" class="ColorScheme-Text"/>
<circle cx="11" cy="7" r="3.5" stroke="#fcfcfc"/>
<path fill-rule="evenodd" clip-rule="evenodd" d="M7.29331 5.49371C6.76884 5.18018 6.15546 5 5.5 5C3.567 5 2 6.567 2 8.5C2 10.433 3.567 12 5.5 12C6.82463 12 7.97739 11.2641 8.57179 10.1789C8.28985 9.96322 8.03745 9.71088 7.8217 9.429C7.45296 10.3497 6.55242 11 5.5 11C4.11929 11 3 9.88071 3 8.5C3 7.11929 4.11929 6 5.5 6C6.0756 6 6.60576 6.19453 7.02833 6.52142C7.07118 6.16206 7.16167 5.81732 7.29331 5.49371Z" fill="currentColor" class="ColorScheme-Text"/>
<mask id="path-4-inside-1" fill="white">
<path fill-rule="evenodd" clip-rule="evenodd" d="M14.1783 9.429C13.9626 9.71088 13.7102 9.96322 13.4282 10.1789C14.0226 11.2641 15.1754 12 16.5 12C18.433 12 20 10.433 20 8.5C20 6.567 18.433 5 16.5 5C15.8445 5 15.2312 5.18018 14.7067 5.49371C14.8383 5.81732 14.9288 6.16206 14.9717 6.52142C15.3943 6.19452 15.9244 6 16.5 6C17.8807 6 19 7.11929 19 8.5C19 9.88071 17.8807 11 16.5 11C15.4476 11 14.5471 10.3497 14.1783 9.429Z"/>
</mask>
<path fill-rule="evenodd" clip-rule="evenodd" d="M14.1783 9.429C13.9626 9.71088 13.7102 9.96322 13.4282 10.1789C14.0226 11.2641 15.1754 12 16.5 12C18.433 12 20 10.433 20 8.5C20 6.567 18.433 5 16.5 5C15.8445 5 15.2312 5.18018 14.7067 5.49371C14.8383 5.81732 14.9288 6.16206 14.9717 6.52142C15.3943 6.19452 15.9244 6 16.5 6C17.8807 6 19 7.11929 19 8.5C19 9.88071 17.8807 11 16.5 11C15.4476 11 14.5471 10.3497 14.1783 9.429Z" fill="currentColor" class="ColorScheme-Text"/>
<path d="M14.1783 9.429L15.1066 9.05721L14.4529 7.42496L13.3842 8.8212L14.1783 9.429ZM13.4282 10.1789L12.8206 9.38467L12.1387 9.90631L12.5512 10.6593L13.4282 10.1789ZM14.7067 5.49371L14.1936 4.63539L13.4571 5.07567L13.7804 5.87051L14.7067 5.49371ZM14.9717 6.52142L13.9787 6.63981L14.1876 8.3922L15.5835 7.31238L14.9717 6.52142ZM13.3842 8.8212C13.2221 9.03298 13.0324 9.22263 12.8206 9.38467L14.0358 10.9731C14.3879 10.7038 14.703 10.3888 14.9724 10.0368L13.3842 8.8212ZM12.5512 10.6593C13.314 12.052 14.7956 13 16.5 13V11C15.5552 11 14.7313 10.4763 14.3053 9.69852L12.5512 10.6593ZM16.5 13C18.9853 13 21 10.9853 21 8.5H19C19 9.88071 17.8807 11 16.5 11V13ZM21 8.5C21 6.01472 18.9853 4 16.5 4V6C17.8807 6 19 7.11929 19 8.5H21ZM16.5 4C15.6589 4 14.8688 4.23172 14.1936 4.63539L15.2198 6.35203C15.5935 6.12864 16.0302 6 16.5 6V4ZM13.7804 5.87051C13.8788 6.11251 13.9466 6.37041 13.9787 6.63981L15.9646 6.40302C15.9111 5.9537 15.7978 5.52213 15.633 5.11691L13.7804 5.87051ZM16.5 5C15.6952 5 14.9514 5.27283 14.3598 5.73045L15.5835 7.31238C15.8371 7.11622 16.1536 7 16.5 7V5ZM20 8.5C20 6.567 18.433 5 16.5 5V7C17.3284 7 18 7.67157 18 8.5H20ZM16.5 12C18.433 12 20 10.433 20 8.5H18C18 9.32843 17.3284 10 16.5 10V12ZM13.25 9.80079C13.7655 11.088 15.025 12 16.5 12V10C15.8701 10 15.3286 9.61143 15.1066 9.05721L13.25 9.80079Z" fill="currentColor" class="ColorScheme-Text" mask="url(#path-4-inside-1)"/>
<path fill-rule="evenodd" clip-rule="evenodd" d="M11 13C12.5367 13 13.9385 13.5777 15 14.5278V13.2547C13.8662 12.4638 12.4872 12 11 12C7.13401 12 4 15.134 4 19C4 19.3395 4.02417 19.6734 4.07089 20H5.08296C5.0284 19.6748 5 19.3407 5 19C5 15.6863 7.68629 13 11 13Z" fill="currentColor" class="ColorScheme-Text"/>
<path fill-rule="evenodd" clip-rule="evenodd" d="M19 13H18V16H15V17H18V20H19V17H22V16H19V13Z" fill="currentColor" class="ColorScheme-Text"/>
</g>
<defs>
<clipPath id="clip0">
<rect width="22" height="22" fill="white"/>
</clipPath>
</defs>
</svg>
