<svg width="22" height="22" viewBox="0 0 22 22" fill="none" xmlns="http://www.w3.org/2000/svg"><style type="text/css" id="current-color-scheme">.ColorScheme-Text { color: #fcfcfc; }</style>
<path fill-rule="evenodd" clip-rule="evenodd" d="M19 11C19 15.4183 15.4183 19 11 19C7.64262 19 4.76829 16.9318 3.58152 14H2.51212C3.74762 17.4956 7.08134 20 11 20C15.9706 20 20 15.9706 20 11C20 6.02944 15.9706 2 11 2C7.08134 2 3.74762 4.50442 2.51212 8H3.58152C4.76829 5.06817 7.64262 3 11 3C15.4183 3 19 6.58172 19 11Z" fill="currentColor" class="ColorScheme-Text"/>
<path d="M2 11H12H13M13 11L9 7M13 11L9 15" stroke="#fcfcfc" stroke-width="1.5"/>
</svg>
