<svg height="22" viewBox="0 0 22 22" width="22" xmlns="http://www.w3.org/2000/svg">
    <style type="text/css" id="current-color-scheme">
      .ColorScheme-Text {
        color:#eff0f1
      }
    </style>
    <path
        style="fill:currentColor"
        d="m11 3c-4.418278 0-8 3.581722-8 8s3.581722 8 8 8 8-3.581722 8-8-3.581722-8-8-8zm1 1.0742188c1.289926.1867478 2.502096.7299243 3.5 1.5683593v.3574219h-.5v1h1.742188c.029759.041993.05906.084314.08789.1269531l-1.830078 1.3730469v1.5l-1 1 2 2h1v-.5h.816406c-.702872 3.203948-3.536282 5.49016-6.816406 5.5-.160535-.0069-.320786-.019229-.480469-.037109l.480469-.962891h1l1-2v-1l-1-1h-1v-.5l-1-.5h-1l-1-1-1 1-1-1v-1h-1v-1h-.6875c.100391-.342123.2255508-.6769034.3769531-1h1.3105469l1 1v-1h1v-1l2-1v1l1-1-1-1h1v.5l1-.5zm-8 6.9257812 2 1.5v1.5l2 2v1.310547c-2.4383126-1.156587-3.9945968-3.611838-4-6.310547z"
        class="ColorScheme-Text" />
</svg>
