<?xml version="1.0" encoding="UTF-8" standalone="no"?>
<!-- Created with Inkscape (http://www.inkscape.org/) -->

<svg
   xmlns:dc="http://purl.org/dc/elements/1.1/"
   xmlns:cc="http://creativecommons.org/ns#"
   xmlns:rdf="http://www.w3.org/1999/02/22-rdf-syntax-ns#"
   xmlns:svg="http://www.w3.org/2000/svg"
   xmlns="http://www.w3.org/2000/svg"
   xmlns:sodipodi="http://sodipodi.sourceforge.net/DTD/sodipodi-0.dtd"
   xmlns:inkscape="http://www.inkscape.org/namespaces/inkscape"
   width="22"
   height="22"
   id="svg3049"
   version="1.1"
   inkscape:version="0.91 r13725"
   sodipodi:docname="im-invisible-user.svg"
   inkscape:export-filename="/home/uri/.kde/share/icons/NITRUX-KDE/16x16/actions/view-right-new.png"
   inkscape:export-xdpi="30"
   inkscape:export-ydpi="30">
  <defs
     id="defs3051" />
  <sodipodi:namedview
     id="base"
     pagecolor="#ffffff"
     bordercolor="#666666"
     borderopacity="1.0"
     inkscape:pageopacity="0.0"
     inkscape:pageshadow="2"
     inkscape:zoom="30.958333"
     inkscape:cx="-1.4522248"
     inkscape:cy="9.7079408"
     inkscape:document-units="px"
     inkscape:current-layer="layer1"
     showgrid="true"
     fit-margin-top="0"
     fit-margin-left="0"
     fit-margin-right="0"
     fit-margin-bottom="0"
     inkscape:window-width="1920"
     inkscape:window-height="1008"
     inkscape:window-x="-4"
     inkscape:window-y="0"
     inkscape:window-maximized="1"
     inkscape:showpageshadow="false"
     borderlayer="true">
    <sodipodi:guide
       position="1.9999956,20"
       orientation="18,0"
       id="guide4067" />
    <sodipodi:guide
       position="1.9999956,2.0000004"
       orientation="0,18"
       id="guide4069" />
    <sodipodi:guide
       position="19.999996,2.0000004"
       orientation="-18,0"
       id="guide4071" />
    <sodipodi:guide
       position="19.999996,20"
       orientation="0,-18"
       id="guide4073" />
    <sodipodi:guide
       position="2.9999956,19"
       orientation="16,0"
       id="guide4077" />
    <sodipodi:guide
       position="2.9999956,3.0000004"
       orientation="0,16"
       id="guide4079" />
    <sodipodi:guide
       position="18.999996,3.0000004"
       orientation="-16,0"
       id="guide4081" />
    <sodipodi:guide
       position="18.999996,19"
       orientation="0,-16"
       id="guide4083" />
    <inkscape:grid
       type="xygrid"
       id="grid4085"
       originx="-8.8635937e-06"
       originy="-2.9100781e-05" />
  </sodipodi:namedview>
  <metadata
     id="metadata3054">
    <rdf:RDF>
      <cc:Work
         rdf:about="">
        <dc:format>image/svg+xml</dc:format>
        <dc:type
           rdf:resource="http://purl.org/dc/dcmitype/StillImage" />
        <dc:title />
      </cc:Work>
    </rdf:RDF>
  </metadata>
  <g
     inkscape:label="Capa 1"
     inkscape:groupmode="layer"
     id="layer1"
     transform="translate(-421.71429,-525.79071)">
    <path
       style="opacity:1;fill:#f2f2f2;fill-opacity:1;stroke:none"
       d="m 432.71429,528.79032 a 3.9999902,4.0000296 0 0 0 -4,4 3.9999902,4.0000296 0 0 0 4,4 3.9999902,4.0000296 0 0 0 4,-4 3.9999902,4.0000296 0 0 0 -4,-4 z m 0,1 a 3,3.0000296 0 0 1 3,3 3,3.0000296 0 0 1 -3,3 3,3.0000296 0 0 1 -3,-3 3,3.0000296 0 0 1 3,-3 z"
       id="path4149"
       inkscape:connector-curvature="0" />
    <path
       style="opacity:1;fill:#f2f2f2;fill-opacity:1;stroke:none"
       d="m 12,13 a 7.9999504,8.0000296 0 0 0 -7.9277344,7 l 1.0078125,0 A 6.9999604,7.0000296 0 0 1 12,14 a 6.9999604,7.0000296 0 0 1 1,0.08008 l 0,-1.009766 A 7.9999504,8.0000296 0 0 0 12,13 Z"
       transform="translate(420.71429,524.79071)"
       id="ellipse4156"
       inkscape:connector-curvature="0" />
    <path
       style="opacity:1;fill:#f2f2f2;fill-opacity:1;stroke:none"
       d="M 15.5 12 A 3.5 3.5 0 0 0 12 15.5 A 3.5 3.5 0 0 0 15.5 19 A 3.5 3.5 0 0 0 19 15.5 A 3.5 3.5 0 0 0 15.5 12 z M 16.792969 13.5 L 17.5 14.207031 L 14.207031 17.5 L 13.5 16.792969 L 16.792969 13.5 z "
       transform="translate(421.71429,525.79071)"
       id="path4167" />
    <path
       inkscape:connector-curvature="0"
       style="opacity:1;fill:#ffffff;fill-opacity:1;stroke:none"
       d="m 438.50726,539.29071 0.70703,0.70703 -3.29297,3.29297 -0.70703,-0.70703 z"
       id="path4167-4"
       sodipodi:nodetypes="ccccc" />
  </g>
</svg>
