<svg xmlns="http://www.w3.org/2000/svg" viewBox="0 0 22 22">
  <defs id="defs3051">
    <style type="text/css" id="current-color-scheme">
      .ColorScheme-Text {
        color:#f2f2f2
      }
      </style>
  </defs>
 <path 
     style="fill:currentColor;fill-opacity:1;stroke:none" 
     d="M 11 3 C 10.04166 3 9.2402337 3.5801219 8.5273438 4.3261719 C 7.8144536 5.0722219 7.1539331 6.0233981 6.4707031 6.9550781 C 5.7874731 7.8867481 5.0832237 8.797195 4.3398438 9.453125 C 3.904367 9.8373619 3.4641573 10.115911 3.0058594 10.292969 C 2.6095577 10.385799 2.2546539 10.41634 2.0019531 10.429688 L 2.0058594 10.5 L 2 10.5 L 2 11.5 C 2.84375 11.5 3.5964538 11.890955 4.3398438 12.546875 C 5.0832238 13.202805 5.7874731 14.113252 6.4707031 15.044922 C 7.1539331 15.976602 7.8144536 16.927778 8.5273438 17.673828 C 9.2402337 18.419878 10.04166 19 11 19 C 11.95833 19 12.757813 18.419878 13.470703 17.673828 C 14.183593 16.927778 14.844114 15.976602 15.527344 15.044922 C 16.210574 14.113252 16.914813 13.202805 17.658203 12.546875 C 18.401583 11.890955 19.15625 11.5 20 11.5 L 20 10.5 C 19.15625 10.5 18.401583 10.109045 17.658203 9.453125 C 16.914813 8.797195 16.210574 7.8867481 15.527344 6.9550781 C 14.844114 6.0233981 14.183593 5.0722219 13.470703 4.3261719 C 12.757813 3.5801219 11.95833 3 11 3 z M 11 4 C 11.54166 4 12.115234 4.3573781 12.746094 5.0175781 C 13.376954 5.6777781 14.028933 6.6016019 14.720703 7.5449219 C 14.921682 7.8189854 15.137821 8.0875028 15.347656 8.359375 C 15.186983 8.4546776 15.048102 8.5845105 14.9375 8.7265625 C 14.7088 9.0202825 14.534664 9.3843106 14.371094 9.8066406 C 14.043954 10.651311 13.779316 11.730484 13.541016 12.808594 C 13.302716 13.886714 13.092151 14.962866 12.900391 15.753906 C 12.862891 15.908386 12.832795 15.983341 12.796875 16.113281 C 12.702275 15.814541 12.607063 15.521678 12.501953 15.085938 C 12.210993 13.879766 11.896654 12.248928 11.589844 10.617188 C 11.283034 8.985447 10.984357 7.3515375 10.716797 6.1171875 C 10.583017 5.5000075 10.456928 4.9848225 10.335938 4.6015625 C 10.291864 4.4619719 10.245706 4.3546002 10.197266 4.2441406 C 10.474105 4.0866779 10.740989 4 11 4 z M 9.4277344 5.0859375 C 9.5212344 5.4062975 9.6241613 5.8035981 9.7382812 6.3300781 C 9.9998213 7.5366781 10.300062 9.1680748 10.607422 10.802734 C 10.914782 12.437404 11.228777 14.074474 11.529297 15.320312 C 11.679567 15.943233 11.825329 16.465868 11.974609 16.861328 C 12.049209 17.059058 12.121623 17.22452 12.220703 17.375 C 12.232182 17.39243 12.25457 17.412743 12.267578 17.431641 C 11.820801 17.801957 11.4014 18 11 18 C 10.45833 18 9.8828131 17.642622 9.2519531 16.982422 C 8.6210931 16.322222 7.9691137 15.398398 7.2773438 14.455078 C 7.1376299 14.264558 6.9855184 14.078984 6.8417969 13.888672 C 6.9761726 13.776311 7.0962613 13.646065 7.1953125 13.501953 C 7.4282325 13.163083 7.6025856 12.746494 7.7597656 12.271484 C 8.0741256 11.321484 8.3055475 10.130145 8.5234375 8.953125 C 8.7413375 7.776095 8.9463581 6.61301 9.1738281 5.78125 C 9.2583281 5.47218 9.3436544 5.2772475 9.4277344 5.0859375 z M 7.9589844 6.6210938 C 7.8162746 7.3021789 7.6794214 8.0238347 7.5410156 8.7714844 C 7.3244756 9.9412044 7.0916469 11.109504 6.8105469 11.958984 C 6.6699969 12.383734 6.5143037 12.727197 6.3710938 12.935547 C 6.3462937 12.971547 6.3440656 12.951816 6.3222656 12.978516 C 6.3107656 12.944116 6.3026156 12.930578 6.2910156 12.892578 C 6.1926156 12.571878 6.0869962 12.131403 5.9726562 11.689453 C 5.8583163 11.247503 5.7384881 10.804387 5.5800781 10.435547 C 5.5008781 10.251117 5.4160231 10.084467 5.2832031 9.9296875 C 6.0138741 9.2243153 6.6644107 8.3807461 7.2773438 7.5449219 C 7.510607 7.2268366 7.7340538 6.9253851 7.9589844 6.6210938 z M 15.857422 9.2128906 C 15.905922 9.2503906 15.967414 9.3015925 16.052734 9.3828125 C 16.255344 9.5757625 16.525671 9.8611265 16.832031 10.160156 C 17.166971 10.487082 17.54271 10.832798 17.960938 11.107422 C 17.623159 11.306566 17.296633 11.531693 16.996094 11.796875 C 16.145724 12.547205 15.412473 13.511748 14.720703 14.455078 C 14.471078 14.795475 14.232328 15.119511 13.992188 15.443359 C 14.159143 14.7005 14.326118 13.891603 14.517578 13.025391 C 14.752208 11.963911 15.014754 10.911539 15.302734 10.167969 C 15.446724 9.7961886 15.600463 9.5018037 15.726562 9.3398438 C 15.831233 9.2054036 15.851312 9.2150106 15.857422 9.2128906 z M 4.5839844 10.689453 C 4.6102844 10.733953 4.6301094 10.755548 4.6621094 10.830078 C 4.757025 11.051081 4.8546837 11.404694 4.9492188 11.755859 C 4.6164639 11.467417 4.2584451 11.222275 3.8808594 11.017578 C 4.1110341 10.927565 4.3463581 10.820884 4.5839844 10.689453 z "
     class="ColorScheme-Text"
     />
</svg>
