<?xml version="1.0" encoding="UTF-8" standalone="no"?>
<!-- Created with Inkscape (http://www.inkscape.org/) -->

<svg
   xmlns:dc="http://purl.org/dc/elements/1.1/"
   xmlns:cc="http://creativecommons.org/ns#"
   xmlns:rdf="http://www.w3.org/1999/02/22-rdf-syntax-ns#"
   xmlns:svg="http://www.w3.org/2000/svg"
   xmlns="http://www.w3.org/2000/svg"
   xmlns:sodipodi="http://sodipodi.sourceforge.net/DTD/sodipodi-0.dtd"
   xmlns:inkscape="http://www.inkscape.org/namespaces/inkscape"
   width="22"
   height="22"
   id="svg3049"
   version="1.1"
   inkscape:version="0.91 r13725"
   sodipodi:docname="nextfuzzy.svg"
   inkscape:export-filename="/home/uri/.kde/share/icons/NITRUX-KDE/16x16/actions/view-right-new.png"
   inkscape:export-xdpi="30"
   inkscape:export-ydpi="30">
  <defs
     id="defs3051">
    <style
       type="text/css"
       id="current-color-scheme">
      .ColorScheme-Text {
        color:#f2f2f2;
      }
      .ColorScheme-Background {
        color:#eff0f1;
      }
      .ColorScheme-Highlight {
        color:#3daee9;
      }
      .ColorScheme-ViewText {
        color:#31363b;
      }
      .ColorScheme-ViewBackground {
        color:#fcfcfc;
      }
      .ColorScheme-ViewHover {
        color:#93cee9;
      }
      .ColorScheme-ViewFocus{
        color:#3daee9;
      }
      .ColorScheme-ButtonText {
        color:#31363b;
      }
      .ColorScheme-ButtonBackground {
        color:#eff0f1;
      }
      .ColorScheme-ButtonHover {
        color:#93cee9;
      }
      .ColorScheme-ButtonFocus{
        color:#3daee9;
      }
      </style>
  </defs>
  <g
     inkscape:label="Capa 1"
     inkscape:groupmode="layer"
     id="layer1"
     transform="translate(-421.71429,-525.79074)">
    <path
       style="fill:currentColor;fill-opacity:1;stroke:none"
       d="M 4 3 L 4 17 L 3 17 L 3 18 L 4 18 L 4 19 L 5 19 L 5 18 L 12 18 L 12 17 L 5 17 L 5 3 L 4 3 z M 10.5 3 C 9.52778 3 8.6199987 3.3409388 7.9804688 3.9804688 C 7.3409388 4.6199988 7 5.52778 7 6.5 L 9 6.5 C 9 5.97222 9.1590713 5.6300012 9.3945312 5.3945312 C 9.6300013 5.1590613 9.97222 5 10.5 5 C 11.02778 5 11.369999 5.1590612 11.605469 5.3945312 C 11.840939 5.6300012 12 5.97222 12 6.5 C 12 6.95834 11.909603 7.1533219 11.789062 7.3261719 C 11.267792 7.8520819 10.637349 8.3017219 10.130859 8.7324219 C 9.5591894 9.1616519 9 9.72438 9 10.5 L 9 11 L 11 11 L 11 10.5 C 11.71082 9.77234 12.770258 9.1378431 13.429688 8.4707031 C 13.777848 7.9716731 14 7.29167 14 6.5 C 14 5.52778 13.659071 4.6199988 13.019531 3.9804688 C 12.380001 3.3409387 11.47222 3 10.5 3 z M 17 3 L 17 12 L 18 12 L 18 3 L 17 3 z M 15.707031 12 L 15 12.707031 L 17.292969 15 L 13 15 L 13 16 L 17.292969 16 L 15 18.292969 L 15.707031 19 L 19 15.707031 L 19.207031 15.5 L 19 15.292969 L 15.707031 12 z M 9 13 L 9 15 L 11 15 L 11 13 L 9 13 z "
       transform="translate(421.71429,525.79074)"
       id="rect4112" 
       class="ColorScheme-Text" />
  </g>
</svg>
