<?xml version="1.0" encoding="UTF-8" standalone="no"?>
<!-- Created with Inkscape (http://www.inkscape.org/) -->

<svg
   xmlns:dc="http://purl.org/dc/elements/1.1/"
   xmlns:cc="http://creativecommons.org/ns#"
   xmlns:rdf="http://www.w3.org/1999/02/22-rdf-syntax-ns#"
   xmlns:svg="http://www.w3.org/2000/svg"
   xmlns="http://www.w3.org/2000/svg"
   xmlns:sodipodi="http://sodipodi.sourceforge.net/DTD/sodipodi-0.dtd"
   xmlns:inkscape="http://www.inkscape.org/namespaces/inkscape"
   width="22"
   height="22"
   id="svg3760"
   version="1.1"
   inkscape:version="0.91 r13725"
   sodipodi:docname="tool-tweak.svg">
  <defs
     id="defs3762">
    <style
       type="text/css"
       id="current-color-scheme">
      .ColorScheme-Text {
        color:#f2f2f2;
      }
      .ColorScheme-Background {
        color:#eff0f1;
      }
      .ColorScheme-Highlight {
        color:#3daee9;
      }
      .ColorScheme-ViewText {
        color:#31363b;
      }
      .ColorScheme-ViewBackground {
        color:#fcfcfc;
      }
      .ColorScheme-ViewHover {
        color:#93cee9;
      }
      .ColorScheme-ViewFocus{
        color:#3daee9;
      }
      .ColorScheme-ButtonText {
        color:#31363b;
      }
      .ColorScheme-ButtonBackground {
        color:#eff0f1;
      }
      .ColorScheme-ButtonHover {
        color:#93cee9;
      }
      .ColorScheme-ButtonFocus{
        color:#3daee9;
      }
      </style>
  </defs>
  <sodipodi:namedview
     id="base"
     pagecolor="#ffffff"
     bordercolor="#666666"
     borderopacity="1.0"
     inkscape:pageopacity="0.0"
     inkscape:pageshadow="2"
     inkscape:zoom="27.255752"
     inkscape:cx="2.1630611"
     inkscape:cy="10.621403"
     inkscape:document-units="px"
     inkscape:current-layer="layer1"
     showgrid="true"
     fit-margin-top="0"
     fit-margin-left="0"
     fit-margin-right="0"
     fit-margin-bottom="0"
     inkscape:window-width="1920"
     inkscape:window-height="1017"
     inkscape:window-x="0"
     inkscape:window-y="0"
     inkscape:window-maximized="1"
     inkscape:showpageshadow="false"
     showguides="true"
     inkscape:snap-bbox="true"
     inkscape:object-nodes="true"
     inkscape:snap-global="false">
    <sodipodi:guide
       position="3.0000042,18.999997"
       orientation="16,0"
       id="guide4132" />
    <sodipodi:guide
       position="3.0000042,2.9999973"
       orientation="0,16"
       id="guide4134" />
    <sodipodi:guide
       position="19.000004,2.9999973"
       orientation="-16,0"
       id="guide4136" />
    <sodipodi:guide
       position="19.000004,18.999997"
       orientation="0,-16"
       id="guide4138" />
    <inkscape:grid
       type="xygrid"
       id="grid4140" />
  </sodipodi:namedview>
  <metadata
     id="metadata3765">
    <rdf:RDF>
      <cc:Work
         rdf:about="">
        <dc:format>image/svg+xml</dc:format>
        <dc:type
           rdf:resource="http://purl.org/dc/dcmitype/StillImage" />
        <dc:title />
      </cc:Work>
    </rdf:RDF>
  </metadata>
  <g
     inkscape:label="Capa 1"
     inkscape:groupmode="layer"
     id="layer1"
     transform="translate(-553.72253,-583.11926)">
    <path
       style="color:#000000;font-style:normal;font-variant:normal;font-weight:normal;font-stretch:normal;font-size:medium;line-height:normal;font-family:sans-serif;text-indent:0;text-align:start;text-decoration:none;text-decoration-line:none;text-decoration-style:solid;text-decoration-color:#000000;letter-spacing:normal;word-spacing:normal;text-transform:none;direction:ltr;block-progression:tb;writing-mode:lr-tb;baseline-shift:baseline;text-anchor:start;white-space:normal;clip-rule:nonzero;display:inline;overflow:visible;visibility:visible;opacity:1;isolation:auto;mix-blend-mode:normal;color-interpolation:sRGB;color-interpolation-filters:linearRGB;solid-color:#000000;solid-opacity:1;fill:#f2f2f2;fill-opacity:1;fill-rule:evenodd;stroke:none;stroke-width:1px;stroke-linecap:butt;stroke-linejoin:miter;stroke-miterlimit:4;stroke-dasharray:none;stroke-dashoffset:0;stroke-opacity:1;color-rendering:auto;image-rendering:auto;shape-rendering:auto;text-rendering:auto;enable-background:accumulate"
       d="m 566.73242,587.11914 c -1.69434,-0.0401 -2.94057,0.89564 -3.77148,2.19141 -0.83126,1.2963 -1.33136,2.9611 -1.74805,4.60742 -0.41669,1.64632 -0.74543,3.27982 -1.1582,4.45703 -0.20639,0.5886 -0.43748,1.05883 -0.66992,1.34766 -0.23244,0.28882 -0.41895,0.39156 -0.67188,0.39648 -0.86069,1.7e-4 -1.99023,0 -1.99023,0 l 0,1 c 0,0 1.13743,1.7e-4 2,0 l 0.004,0 0.006,0 c 0.58045,-0.0113 1.07883,-0.33112 1.43164,-0.76953 0.35282,-0.43841 0.60796,-0.9999 0.83399,-1.64453 0.45206,-1.28927 0.77706,-2.92908 1.18554,-4.54297 0.40848,-1.61389 0.90265,-3.19517 1.61914,-4.3125 0.7165,-1.11733 1.57104,-1.76278 2.90821,-1.73047 l 0.004,0 0.004,0 c 2.71252,0.0218 3.86404,1.13897 4.45508,2.25195 0.38885,0.73226 0.32819,1.04935 0.36133,1.46485 -1.69952,-0.75477 -3.13566,-0.95143 -4.14454,-0.41797 -1.20188,0.63551 -1.74757,1.97986 -1.83593,3.38476 -0.0884,1.40491 0.25633,2.92722 0.95508,4.14649 0.69874,1.21926 1.80937,2.17052 3.21289,2.16992 1.54836,0.0148 3.00586,0 3.00586,0 l -0.0117,-1 c 0,0 -1.45096,0.0148 -2.99024,0 l -0.002,0 -0.002,0 c -0.95183,4e-4 -1.75834,-0.64305 -2.34571,-1.66797 -0.58736,-1.02492 -0.89911,-2.39509 -0.82422,-3.58594 0.0749,-1.19084 0.51384,-2.14627 1.30469,-2.56445 0.79085,-0.41818 2.0969,-0.39235 4.11914,0.75391 l 0.71094,0.40234 0.0352,-0.81641 c 0,0 0.0644,-1.36276 -0.66602,-2.73828 -0.72974,-1.37418 -2.32627,-2.75645 -5.32226,-2.7832 l -0.002,0 z"
       id="path4140"
       inkscape:connector-curvature="0" />
  </g>
</svg>
