<?xml version="1.0" encoding="UTF-8" standalone="no"?>
<!-- Created with Inkscape (http://www.inkscape.org/) -->

<svg
   xmlns:dc="http://purl.org/dc/elements/1.1/"
   xmlns:cc="http://creativecommons.org/ns#"
   xmlns:rdf="http://www.w3.org/1999/02/22-rdf-syntax-ns#"
   xmlns:svg="http://www.w3.org/2000/svg"
   xmlns="http://www.w3.org/2000/svg"
   xmlns:sodipodi="http://sodipodi.sourceforge.net/DTD/sodipodi-0.dtd"
   xmlns:inkscape="http://www.inkscape.org/namespaces/inkscape"
   width="22"
   height="22"
   id="svg3049"
   version="1.1"
   inkscape:version="0.91 r13725"
   sodipodi:docname="view-calendar-wedding-anniversary.svg"
   inkscape:export-filename="/home/uri/.kde/share/icons/NITRUX-KDE/16x16/actions/view-right-new.png"
   inkscape:export-xdpi="30"
   inkscape:export-ydpi="30">
  <defs
     id="defs3051" />
  <sodipodi:namedview
     id="base"
     pagecolor="#ffffff"
     bordercolor="#666666"
     borderopacity="1.0"
     inkscape:pageopacity="0.0"
     inkscape:pageshadow="2"
     inkscape:zoom="32"
     inkscape:cx="5.287965"
     inkscape:cy="10.839758"
     inkscape:document-units="px"
     inkscape:current-layer="layer1"
     showgrid="true"
     fit-margin-top="0"
     fit-margin-left="0"
     fit-margin-right="0"
     fit-margin-bottom="0"
     inkscape:window-width="2560"
     inkscape:window-height="948"
     inkscape:window-x="0"
     inkscape:window-y="35"
     inkscape:window-maximized="1"
     inkscape:showpageshadow="false"
     borderlayer="true">
    <sodipodi:guide
       position="2.0000044,20.00003"
       orientation="18,0"
       id="guide4067" />
    <sodipodi:guide
       position="2.0000044,2.0000296"
       orientation="0,18"
       id="guide4069" />
    <sodipodi:guide
       position="20.000004,2.0000296"
       orientation="-18,0"
       id="guide4071" />
    <sodipodi:guide
       position="20.000004,20.00003"
       orientation="0,-18"
       id="guide4073" />
    <sodipodi:guide
       position="3.0000044,19.00003"
       orientation="16,0"
       id="guide4077" />
    <sodipodi:guide
       position="3.0000044,3.0000296"
       orientation="0,16"
       id="guide4079" />
    <sodipodi:guide
       position="19.000004,3.0000296"
       orientation="-16,0"
       id="guide4081" />
    <sodipodi:guide
       position="19.000004,19.00003"
       orientation="0,-16"
       id="guide4083" />
    <inkscape:grid
       type="xygrid"
       id="grid4085" />
  </sodipodi:namedview>
  <metadata
     id="metadata3054">
    <rdf:RDF>
      <cc:Work
         rdf:about="">
        <dc:format>image/svg+xml</dc:format>
        <dc:type
           rdf:resource="http://purl.org/dc/dcmitype/StillImage" />
        <dc:title />
      </cc:Work>
    </rdf:RDF>
  </metadata>
  <g
     inkscape:label="Capa 1"
     inkscape:groupmode="layer"
     id="layer1"
     transform="translate(-421.71429,-525.79074)">
    <path
       style="fill:#f2f2f2;fill-opacity:1;stroke:none"
       d="M 9.5,9 C 7.561,9 6,10.561 6,12.5 6,14.439 7.561,16 9.5,16 10.039612,16 10.544436,15.870591 11,15.654297 11.455564,15.870591 11.960388,16 12.5,16 14.439,16 16,14.439 16,12.5 16,10.561 14.439,9 12.5,9 11.960388,9 11.455564,9.1294093 11,9.3457031 10.544436,9.1294093 10.039612,9 9.5,9 Z m 0,1 c 0.1718015,0 0.3400736,0.01808 0.501953,0.05078 C 9.3837343,10.681387 9,11.543049 9,12.5 9,13.456951 9.3837343,14.318613 10.001953,14.949219 9.8400736,14.981919 9.6718015,15 9.5,15 8.115,15 7,13.885 7,12.5 7,11.115 8.115,10 9.5,10 Z m 3,0 c 1.385,0 2.5,1.115 2.5,2.5 0,1.385 -1.115,2.5 -2.5,2.5 -0.171801,0 -0.340073,-0.01808 -0.501953,-0.05078 C 12.616266,14.318613 13,13.456951 13,12.5 13,11.543049 12.616266,10.681387 11.998047,10.050781 12.159927,10.018081 12.328199,10 12.5,10 Z M 11,10.507812 c 0.604994,0.455454 1,1.173236 1,1.992188 0,0.818952 -0.395006,1.536735 -1,1.992188 C 10.395006,14.036734 10,13.318952 10,12.5 c 0,-0.818952 0.395006,-1.536735 1,-1.992188 z"
       transform="translate(421.71429,525.79074)"
       id="path4159"
       inkscape:connector-curvature="0"
       sodipodi:nodetypes="ssscssscsscscsssssscscscscsc" />
    <path
       inkscape:connector-curvature="0"
       style="opacity:1;fill:#f2f2f2;fill-opacity:1;stroke:none"
       d="m 427.71429,528.79074 c 0,0 -1,-3e-5 -1,1 l -2,0 0,3 0,11 0,1 16,0 0,-1 0,-11 0,-3 -2,0 c 0,-1.00003 -1,-1 -1,-1 l -3,0 c 0,0 -1,-3e-5 -1,1 l -2,0 c 0,-1.00003 -1,-1 -1,-1 l -3,0 z m 0,1 3,0 0,1 -3,0 0,-1 z m 7,0 3,0 0,1 -3,0 0,-1 z m -9,3 14,0 0,11 -14,0 0,-11 z"
       id="rect3370" />
  </g>
</svg>
