<svg xmlns="http://www.w3.org/2000/svg" viewBox="0 0 16 16">
  <defs id="defs3051">
    <style type="text/css" id="current-color-scheme">
      .ColorScheme-Text {
        color:#232629;
      }
      </style>
  </defs>
    <path 
        style="fill:currentColor"
        d="M 8 2 C 4.7 2 2 4.7 2 8 C 2 11.3 4.7 14 8 14 C 11.3 14 14 11.3 14 8 C 14 4.7 11.3 2 8 2 z M 8 3 C 10.8 3 13 5.2 13 8 C 13 10.8 10.8 13 8 13 C 5.2 13 3 10.8 3 8 C 3 5.2 5.2 3 8 3 z M 7 4 L 7 8 L 7 9 L 8 9 L 12 9 L 12 8 L 8 8 L 8 4 L 7 4 z " 
        class="ColorScheme-Text"/>
</svg>
