<svg xmlns="http://www.w3.org/2000/svg" viewBox="0 0 16 16">
  <defs id="defs3051">
    <style type="text/css" id="current-color-scheme">
      .ColorScheme-Text {
        color:#232629
      }
      </style>
  </defs>
    <path
       style="fill:currentColor"
       d="M 2 2 L 2 14 L 14 14 L 14 2 L 2 2 z M 3 3 L 13 3 L 13 11 L 3 11 L 3 3 z M 4 4 L 4 7 L 7 7 L 7 5 L 6 5 L 5.1 4 L 4 4 z M 3 12 L 4 12 L 4 13 L 3 13 L 3 12 z M 5 12 L 9 12 L 9 13 L 5 13 L 5 12 z M 10 12 L 11 12 L 11 13 L 10 13 L 10 12 z M 12 12 L 13 12 L 13 13 L 12 13 L 12 12 z "
       class="ColorScheme-Text" />
</svg>
