<svg height="96" version="1.1" width="96" xmlns="http://www.w3.org/2000/svg" xmlns:svg="http://www.w3.org/2000/svg" xmlns:xlink="http://www.w3.org/1999/xlink">
<defs id="primary-definitions">
<style id="current-color-scheme" type="text/css">
      .ColorScheme-Text         { color: #232629; }
      .ColorScheme-Background   { color: #eff0f1; }
      .ColorScheme-Highlight    { color: #7ec9f0; }
      .ColorScheme-PositiveText { color: #27ae60; }
      .ColorScheme-NeutralText  { color: #f67400; }
      .ColorScheme-NegativeText { color: #da4453; }
      .ColorScheme-ActiveText   { color: #3daee9; }
      .ColorScheme-Complement   { color: #ffffff; }
      .ColorScheme-Contrast     { color: #000000; }
    </style>
<style id="extended-color-scheme" type="text/css">
      .ExScheme-Black     { color:#3e3e3e; }
      .ExScheme-White     { color:#fcfcfc; }
      .ExScheme-Grey-1    { color:#cfd5d5; }
      .ExScheme-Grey-2    { color:#909c9c; }
      .ExScheme-Grey-3    { color:#536161; }
      .ExScheme-Red-1     { color:#ffafa5; }
      .ExScheme-Red-2     { color:#bf4231; }
      .ExScheme-Red-3     { color:#4d2f2b; }
      .ExScheme-Green-1   { color:#abf9c7; }
      .ExScheme-Green-2   { color:#3bb566; }
      .ExScheme-Green-3   { color:#377d50; }
      .ExScheme-Blue-1    { color:#abdaf9; }
      .ExScheme-Blue-2    { color:#3daefd; }
      .ExScheme-Blue-3    { color:#2b3c4d; }
      .ExScheme-Yellow-1  { color:#faffa5; }
      .ExScheme-Yellow-2  { color:#cac726; }
      .ExScheme-Yellow-3  { color:#4b4d2b; }
      .ExScheme-Orange-1  { color:#ffdaa5; }
      .ExScheme-Orange-2  { color:#ff9701; }
      .ExScheme-Orange-3  { color:#4d372b; }
      .ExScheme-Brown-1   { color:#e9d6bb; }
      .ExScheme-Brown-2   { color:#997657; }
      .ExScheme-Brown-3   { color:#433a35; }
      .ExScheme-Purple-1  { color:#e2abf9; }
      .ExScheme-Purple-2  { color:#b401ff; }
      .ExScheme-Purple-3  { color:#432b4d; }
      .ExScheme-Cyan-1    { color:#b2f2e6; }
      .ExScheme-Cyan-2    { color:#31bfa6; }
      .ExScheme-Cyan-3    { color:#2b4d47; }
      .ExScheme-Magenta-1 { color:#f8a6d8; }
      .ExScheme-Magenta-2 { color:#f00091; }
      .ExScheme-Magenta-3 { color:#770048; }
    </style>
<linearGradient id="u22">
<stop offset="0"/>
<stop offset="1" stop-opacity="0"/>
</linearGradient>
<linearGradient id="u23">
<stop offset="0" stop-color="#fff"/>
<stop offset="1" stop-color="#fff" stop-opacity="0"/>
</linearGradient>
<linearGradient id="u24">
<stop offset="0" stop-color="#1abc9c"/>
<stop offset="1" stop-color="#2787b6"/>
</linearGradient><linearGradient id="u25">
<stop offset="0" stop-color="#172525"/>
<stop offset="1" stop-color="#172525" stop-opacity="0"/>
</linearGradient><radialGradient cx="19.74" cy="-20.34" gradientTransform="matrix(-1,.25,-.1,-.3,94.9,11.8)" gradientUnits="userSpaceOnUse" id="u26" r="15" spreadMethod="reflect" xlink:href="#u22"/><linearGradient gradientTransform="matrix(2.75 -1.05 1.05 2.75 -77.7 12.73)" gradientUnits="userSpaceOnUse" id="u27" x1="-12" x2="-12" xlink:href="#u22" y1="33" y2="31"/><linearGradient gradientTransform="matrix(2.3 .5 -.4 1.9 39.25 4.33)" gradientUnits="userSpaceOnUse" id="u28" x1="9" x2="9" xlink:href="#u22" y1="14" y2="20"/><linearGradient id="u29" xlink:href="#u22" y1="1" y2="0"/><linearGradient gradientTransform="matrix(-2.93 0 0 2.93 94.93 6.6)" gradientUnits="userSpaceOnUse" id="u2a" x1="21.07" x2="24.64" xlink:href="#u25" y1="24.96" y2="19.92"/><linearGradient gradientTransform="matrix(3,0,0,3,-1,2)" gradientUnits="userSpaceOnUse" id="u2b" x1="23.32" x2="22.05" xlink:href="#u25" y1="19.11" y2="14.47"/><linearGradient gradientUnits="userSpaceOnUse" id="u2c" x1="4" x2="9" xlink:href="#u24" y1="78.5" y2="49"/><path d="m45.07 71.1-41.07 6.9v4c0 1.1.9 2 2 2h84c1.1 0 2-.9 2-2v-4z" id="u2d"></path><path d="m6 12c-1.1 0-2 .9-2 2v28.4l3.1-1.6 17.97-4.27 2.25.1 64.65 13.44v-36.1c0-1.1-.9-2-2-2z" id="u2e"></path></defs>
<g id="content" transform="translate(0,0)"><use class="ColorScheme-Highlight" fill="currentColor" href="#u2d"></use><use fill="url(#u2a)" href="#u2d"></use><path class="ColorScheme-Highlight" d="m5 20-1 22.4-1e-5 35.6h18l68-29z" fill="url(#u2c)"/><path d="M 5,20 4,42.4 4,78 h 18 l 68,-29 z" fill="url(#u26)" opacity=".075"/><path d="m 5,20 -1,22.4 L 4,78 h 18 l 68,-29 z" opacity=".15"/><path d="m4.3 13c-.17.3-.3.63-.3 1v22.7l88 18.3v-21.9z" fill="url(#u28)" opacity=".4"/><use href="#u2e"></use><path d="M 92,45.9 7.66,78 H 39.17 L 92,57.9 Z" fill="url(#u27)" opacity=".4"/><path d="M 92,47.25 17.06,78 H 92 Z" fill="#334545"/><g opacity=".4">
<path d="M 92,75.73 86.46,78 H 92 Z" opacity=".6"/>
<path d="m57.84 75.5-1.4 2.5h12.4z" opacity=".3"/>
<path d="m85.45 71.3-16.34 6.7h12.5z" opacity=".6"/>
<path d="m74.3 68.75-16.45 6.75 10.95 2.5h.23z" opacity=".5"/>
<path d="m74.3 68.75-5.27 9.25h.1l16.34-6.7z" opacity=".7"/>
<path d="m57.84 75.5-6.1 2.5h4.66z"/>
<path d="m35.53 70.4-4.3 7.6h3.2l12.27-5.04z" opacity=".6"/>
<path d="m46.7 72.96 16.45-6.75-5.3 9.3z" opacity=".3"/>
<path d="m46.7 72.96-12.27 5.04h9.4z"/>
<path d="m46.7 72.96-2.87 5.04h7.94l6.1-2.5z" opacity=".5"/>
<path d="m35.53 70.4 16.45-6.75-5.3 9.3z" opacity=".5"/>
<path d="m63.14 66.21-16.45 6.75 5.3-9.3z"/>
<path d="m74.3 68.75-16.45 6.75 5.3-9.3z" opacity=".75"/>
<path d="m35.53 70.4-16.45 6.75 3.63.83h8.5z"/>
<path d="m19.1 77.17-.47.83h4.2z" opacity=".6"/>
<path d="m74.3 68.75 16.45-6.75-5.3 9.3z" opacity=".6"/>
<path d="m92 54.37-12.4 5.1 11.15 2.54 1.25-2.2z" opacity=".6"/>
<path d="m63.14 66.21 16.45-6.75-5.3 9.3z" opacity=".3"/>
<path d="m90.75 62-16.45 6.75 5.3-9.3z"/>
<path d="m92 61.5-1.25.5 1.25.3z" opacity=".6"/>
<path d="m90.75 62-5.3 9.3 6.55-2.7v-6.3z"/>
<path d="m52 63.67 16.45-6.75-5.3 9.3z" opacity=".5"/>
<path d="m85.45 71.3-3.8 6.7h4.83l5.54-2.27v-2.94z" opacity=".5"/>
<path d="M 92,68.6 85.45,71.3 92,72.8 Z" opacity=".75"/>
<path d="m68.44 56.9 16.45-6.75-5.3 9.3z"/>
<path d="m79.7 59.46-16.45 6.75 5.3-9.3z" opacity=".6"/>
<path d="m84.9 50.16-5.3 9.3 12.4-5.1v-2.6z" opacity=".75"/>
<path d="M 92,47.25 84.9,50.16 92,51.8 Z" opacity=".5"/>
<path d="m92 59.8-1.25 2.2 1.25-.5z" opacity=".6"/>
<path d="m92 47.25-74.94 30.75h3.6l71.34-29.3z"/>
</g><use class="ColorScheme-Highlight" fill="currentColor" href="#u2e" opacity=".6"></use><use class="ColorScheme-NeutralText" fill="#2885b7" href="#u2e" opacity=".15"></use><path class="ColorScheme-NeutralText" d="m6 12c-1.1 0-2 .9-2 2v28.4l3.1-1.6 17.97-4.27 2.25.1 64.65 2.45v-25.1c0-1.1-.9-2-2-2z" fill="#aa478a" opacity=".36"/><path class="ColorScheme-NeutralText" d="m6 12c-1.1 0-2 .9-2 2v28.4l3.1-1.6 84.85-27.1c-.13-1-.96-1.73-1.97-1.73z" fill="#aa478a" opacity=".6"/><path class="ColorScheme-NeutralText" d="m6 12c-1.1 0-2 .9-2 2v28.4l46.05-30.4z" fill="#cc4a5e" opacity=".75"/><path d="m47.1 12-43.1 28.9v1.5l3.1-1.6 17.97-4.27 2.26.1 64.65 13.44v-1.37l-56.6-11.77 56.6 2.14v-1.34l-67.3-2.5 67.3-21.5c-.07-.5-.33-.96-.7-1.27l-82.6 26.93 41.4-27.4z" fill="#fffefc" opacity=".15"/><path d="M 35.4,35.6 27.35,35.4 92,48.7 V 37.75 Z" fill="url(#u2b)" opacity=".6"/><path class="ColorScheme-Background" d="m4 78v4c0 1.1.9 2 2 2h84c1.1 0 2-.9 2-2v-4z" fill="currentColor" opacity=".8"/><rect class="ColorScheme-Background" fill="currentColor" height=".5" opacity=".2" width="88" x="4" y="78"/><rect fill="url(#u29)" height="2" opacity=".2" width="88" x="4" y="76"/><rect class="ColorScheme-Text" fill="currentColor" height="2" ry="1" width="6" x="84" y="80"/><rect class="ColorScheme-Text" fill="currentColor" height="2" ry="1" width="2" x="80" y="80"/><rect class="ColorScheme-Text" fill="currentColor" height="4" ry="2" width="4" x="6" y="79"/><path d="m4 15v-1c0-1.1.9-2 2-2h84c1.1 0 2 .9 2 2v1c0-1.1-.9-2-2-2h-84c-1.1 0-2 .9-2 2z" fill="#fff" opacity=".1"/><path d="m4 14.5v-.5c0-1.1.9-2 2-2h84c1.1 0 2 .9 2 2v.5c0-1.1-.9-2-2-2h-84c-1.1 0-2 .9-2 2z" fill="#fff" opacity=".1"/><path class="ColorScheme-Text" d="m4 81v1c0 1.1.9 2 2 2h84c1.1 0 2-.9 2-2v-1c0 1.1-.9 2-2 2h-84c-1.1 0-2-.9-2-2z" fill="currentColor" opacity=".1"/><path class="ColorScheme-Text" d="m4 81.5v.5c0 1.1.9 2 2 2h84c1.1 0 2-.9 2-2v-.5c0 1.1-.9 2-2 2h-84c-1.1 0-2-.9-2-2z" fill="currentColor" opacity=".1"/></g>
</svg>