<?xml version="1.0" encoding="utf-8"?><svg height="96" width="96" xmlns="http://www.w3.org/2000/svg" xmlns:svg="http://www.w3.org/2000/svg" xmlns:xlink="http://www.w3.org/1999/xlink"><defs id="primary-definitions"><style id="current-color-scheme" type="text/css">.ColorScheme-Text           { color:#fff; }
      .ColorScheme-Background     { color:#111; }
      .ColorScheme-Highlight      { color:#3daefd; }
      .ColorScheme-ViewBackground { color:#000; }
      .ColorScheme-PositiveText   { color:#27ae60; }
      .ColorScheme-NeutralText    { color:#f67400; }
      .ColorScheme-NegativeText   { color:#da4453; }
  </style><style id="extended-color-scheme" type="text/css">.ExScheme-Black     { color:#3e3e3e; }
      .ExScheme-White     { color:#fcfcfc; }
      .ExScheme-Grey-1    { color:#cfd5d5; }
      .ExScheme-Grey-2    { color:#909c9c; }
      .ExScheme-Grey-3    { color:#536161; }
      .ExScheme-Red-1     { color:#ffafa5; }
      .ExScheme-Red-2     { color:#bf4231; }
      .ExScheme-Red-3     { color:#4d2f2b; }
      .ExScheme-Green-1   { color:#abf9c7; }
      .ExScheme-Green-2   { color:#3bb566; }
      .ExScheme-Green-3   { color:#377d50; }
      .ExScheme-Blue-1    { color:#abdaf9; }
      .ExScheme-Blue-2    { color:#3daefd; }
      .ExScheme-Blue-3    { color:#2b3c4d; }
      .ExScheme-Yellow-1  { color:#faffa5; }
      .ExScheme-Yellow-2  { color:#cac726; }
      .ExScheme-Yellow-3  { color:#4b4d2b; }
      .ExScheme-Orange-1  { color:#ffdaa5; }
      .ExScheme-Orange-2  { color:#ff9701; }
      .ExScheme-Orange-3  { color:#4d372b; }
      .ExScheme-Brown-1   { color:#e9d6bb; }
      .ExScheme-Brown-2   { color:#997657; }
      .ExScheme-Brown-3   { color:#433a35; }
      .ExScheme-Purple-1  { color:#e2abf9; }
      .ExScheme-Purple-2  { color:#b401ff; }
      .ExScheme-Purple-3  { color:#432b4d; }
      .ExScheme-Cyan-1    { color:#b2f2e6; }
      .ExScheme-Cyan-2    { color:#31bfa6; }
      .ExScheme-Cyan-3    { color:#2b4d47; }
      .ExScheme-Magenta-1 { color:#f8a6d8; }
      .ExScheme-Magenta-2 { color:#f00091; }
      .ExScheme-Magenta-3 { color:#770048; }
  </style><linearGradient id="gradientDark"><stop offset="0"/><stop offset="1" stop-opacity="0"/></linearGradient><linearGradient id="gradientLight"><stop offset="0" stop-color="#fff"/><stop offset="1" stop-color="#fff" stop-opacity="0"/></linearGradient><style class="toggle-enable-crease" type="text/css">.folder-crease { display: none; }
  </style><style class="toggle-manilla-folders" type="text/css">.folder-manilla { display: none; }
  </style><radialGradient cx=".5" cy="0" id="gl1" r="1" xlink:href="#gradientLight"/><linearGradient id="gd1" xlink:href="#gradientDark" y1="1" y2=".5"/><path d="m 14,12 c -2.216,0 -4,1.784 -4,4 v 4 8 c -2.216,0 -4,1.784 -4,4 v 48 c 0,2.216 1.784,4 4,4 h 76 c 2.216,0 4,-1.784 4,-4 V 50 32 28 c 0,-2.216 -1.784,-4 -4,-4 v -4 c 0,-2.216 -1.784,-4 -4,-4 H 42 c -6,0 -6,-4 -12,-4 z" id="use-path-4Z"/><path d="m 14,12 c -2.216,0 -4,1.784 -4,4 v 4 8 h 20 c 6,0 6,-4 12,-4 h 44 v -4 c 0,-2.216 -1.784,-4 -4,-4 H 42 c -6,0 -6,-4 -12,-4 z" id="use-path-50"/></defs><g id="content"><use class="folder-manilla ExScheme-Brown-1" fill="currentColor" href="#use-path-4Z"/><use class="toggle-manilla-folders ColorScheme-Highlight" fill="currentColor" href="#use-path-4Z" id="primary-color"/><use class="ColorScheme-Text" fill="currentColor" href="#use-path-4Z" opacity=".1"/><g id="emblem" transform="translate(24,32)"><path class="ColorScheme-Background" d="m 24,7.89 c -7.364,0 -13.333,5.97 -13.333,13.333 .002,.096 .005,0.191 .01,.286 C 6.75,22.518 4.003,26.057 4,30.11 4,35.02 7.98,39 12.89,39 h 20 C 39.025,39 44,34.025 44,27.89 43.995,23.263 41.125,19.124 36.795,17.498 35.14,11.807 29.927,7.892 24,7.89 Z" fill="currentColor" opacity=".6"/><path class="ColorScheme-Background" d="M 24 7.89 C 16.636 7.89 10.666 13.86 10.666 21.223 C 10.668 21.318 10.672 21.412 10.676 21.508 C 6.75 22.517 4.003 26.057 4 30.11 C 4 35.02 7.98 39 12.89 39 L 32.89 39 C 39.025 39 44 34.025 44 27.89 C 43.995 23.263 41.125 19.124 36.795 17.498 C 35.14 11.807 29.927 7.892 24 7.89 z M 24 8.39 C 29.707 8.392 34.72 12.16 36.314 17.64 L 36.385 17.88 L 36.62 17.967 C 40.756 19.52 43.496 23.47 43.5 27.89 C 43.5 33.755 38.755 38.5 32.89 38.5 L 12.89 38.5 C 8.25 38.5 4.5 34.75 4.5 30.11 C 4.503 26.283 7.093 22.946 10.8 21.992 L 11.19 21.893 L 11.176 21.488 C 11.172 21.4 11.168 21.31 11.166 21.223 L 11.166 21.22 C 11.166 21.218 11.166 21.215 11.166 21.213 C 11.17 14.124 16.91 8.39 24 8.39 z " fill="currentColor" opacity=".6"/></g><use href="#use-path-50" opacity=".4"/><use class="toggle-flat-design" fill="url(#gd1)" href="#use-path-50" opacity=".2"/><path class="toggle-flat-design" d="m 42,24 c -6,0 -6,4 -12,4 H 10 c -2.216,0 -4,1.784 -4,4 v 48 c 0,2.216 1.784,4 4,4 h 76 c 2.216,0 4,-1.784 4,-4 V 50 32 28 c 0,-2.216 -1.784,-4 -4,-4 z" fill="url(#gl1)" opacity=".2"/><path class="folder-crease" d="m 6,66 v 3 h 13.5 c 0.831,0 1.5,-.67 1.5,-1.5 0,-0.831 -0.669,-1.5 -1.5,-1.5 z m 70.5,0 c -0.831,0 -1.5,0.669 -1.5,1.5 0,.83 0.669,1.5 1.5,1.5 H 90 v -3 z" opacity=".4"/><path class="ColorScheme-Text" d="m 6,79 v 1 c 0,2.216 1.784,4 4,4 h 76 c 2.216,0 4,-1.784 4,-4 v -1 c 0,2.216 -1.784,4 -4,4 H 10 C 7.784,83 6,81.216 6,79 Z" fill="currentColor" opacity=".1"/><path class="ColorScheme-Text" d="M 6,79.5 V 80 c 0,2.216 1.784,4 4,4 h 76 c 2.216,0 4,-1.784 4,-4 v -0.5 c 0,2.216 -1.784,4 -4,4 H 10 c -2.216,0 -4,-1.784 -4,-4 z" fill="currentColor" opacity=".2"/><path d="m 42,24 c -6,0 -6,4 -12,4 H 10 c -2.216,0 -4,1.784 -4,4 v 1 c 0,-2.216 1.784,-4 4,-4 h 20 c 6,0 6,-4 12,-4 h 44 c 2.216,0 4,1.784 4,4 v -1 c 0,-2.216 -1.784,-4 -4,-4 z" fill="#fff" opacity=".1"/><path d="m 42,24 c -6,0 -6,4 -12,4 H 10 c -2.216,0 -4,1.784 -4,4 v 0.5 c 0,-2.216 1.784,-4 4,-4 h 20 c 6,0 6,-4 12,-4 h 44 c 2.216,0 4,1.784 4,4 V 28 c 0,-2.216 -1.784,-4 -4,-4 z" fill="#fff" opacity=".2"/><path d="m 42,23 c -6,0 -6,4 -12,4 H 10 v 1 h 20 c 6,0 6,-4 12,-4 h 44 v -1 z" opacity=".1"/><path d="m 42,23.5 c -6,0 -6,4 -12,4 H 10 V 28 h 20 c 6,0 6,-4 12,-4 h 44 v -0.5 z" opacity=".2"/></g></svg>