<svg height="96" version="1.1" width="96" xmlns="http://www.w3.org/2000/svg" xmlns:svg="http://www.w3.org/2000/svg" xmlns:xlink="http://www.w3.org/1999/xlink">
<defs id="primary-definitions">
<style id="current-color-scheme" type="text/css">
      .ColorScheme-Text           { color:#fff; }
      .ColorScheme-Background     { color:#111; }
      .ColorScheme-Highlight      { color:#3daefd; }
      .ColorScheme-ViewBackground { color:#000; }
      .ColorScheme-PositiveText   { color:#27ae60; }
      .ColorScheme-NeutralText    { color:#f67400; }
      .ColorScheme-NegativeText   { color:#da4453; }
    </style>
<style id="extended-color-scheme" type="text/css">
      .ExScheme-Black     { color:#3e3e3e; }
      .ExScheme-White     { color:#fcfcfc; }
      .ExScheme-Grey-1    { color:#cfd5d5; }
      .ExScheme-Grey-2    { color:#909c9c; }
      .ExScheme-Grey-3    { color:#536161; }
      .ExScheme-Red-1     { color:#ffafa5; }
      .ExScheme-Red-2     { color:#bf4231; }
      .ExScheme-Red-3     { color:#4d2f2b; }
      .ExScheme-Green-1   { color:#abf9c7; }
      .ExScheme-Green-2   { color:#3bb566; }
      .ExScheme-Green-3   { color:#377d50; }
      .ExScheme-Blue-1    { color:#abdaf9; }
      .ExScheme-Blue-2    { color:#3daefd; }
      .ExScheme-Blue-3    { color:#2b3c4d; }
      .ExScheme-Yellow-1  { color:#faffa5; }
      .ExScheme-Yellow-2  { color:#cac726; }
      .ExScheme-Yellow-3  { color:#4b4d2b; }
      .ExScheme-Orange-1  { color:#ffdaa5; }
      .ExScheme-Orange-2  { color:#ff9701; }
      .ExScheme-Orange-3  { color:#4d372b; }
      .ExScheme-Brown-1   { color:#e9d6bb; }
      .ExScheme-Brown-2   { color:#997657; }
      .ExScheme-Brown-3   { color:#433a35; }
      .ExScheme-Purple-1  { color:#e2abf9; }
      .ExScheme-Purple-2  { color:#b401ff; }
      .ExScheme-Purple-3  { color:#432b4d; }
      .ExScheme-Cyan-1    { color:#b2f2e6; }
      .ExScheme-Cyan-2    { color:#31bfa6; }
      .ExScheme-Cyan-3    { color:#2b4d47; }
      .ExScheme-Magenta-1 { color:#f8a6d8; }
      .ExScheme-Magenta-2 { color:#f00091; }
      .ExScheme-Magenta-3 { color:#770048; }
    </style>
<linearGradient id="ulr">
<stop offset="0"/>
<stop offset="1" stop-opacity="0"/>
</linearGradient>
<linearGradient id="uls">
<stop offset="0" stop-color="#fff"/>
<stop offset="1" stop-color="#fff" stop-opacity="0"/>
</linearGradient>
<style class="toggle-enable-crease" type="text/css">
        .folder-crease { display: none; }
    </style><style class="toggle-manilla-folders" type="text/css">
        .folder-manilla { display: none; }
    </style><radialGradient cx=".5" cy="0" id="ult" r="1" xlink:href="#uls"/><linearGradient id="ulu" xlink:href="#ulr" y1="1" y2=".5"/><path d="m 14,12 c -2.2,0 -4,1.8 -4,4 v 4 8 c -2.2,0 -4,1.8 -4,4 v 48 c 0,2.2 1.8,4 4,4 h 76 c 2.2,0 4,-1.8 4,-4 V 50 32 28 c 0,-2.2 -1.8,-4 -4,-4 v -4 c 0,-2.2 -1.8,-4 -4,-4 H 42 c -6,0 -6,-4 -12,-4 z" id="ulv"></path><path d="m 14,12 c -2.2,0 -4,1.8 -4,4 v 4 8 h 20 c 6,0 6,-4 12,-4 h 44 v -4 c 0,-2.2 -1.8,-4 -4,-4 H 42 c -6,0 -6,-4 -12,-4 z" id="ulw"></path></defs>
<g id="content" transform="translate(0,0)"><use class="folder-manilla ExScheme-Brown-1" fill="currentColor" href="#ulv"></use><use class="toggle-manilla-folders ExScheme-Grey-3" fill="currentColor" href="#ulv" id="primary-color"></use><use class="ColorScheme-Text" fill="currentColor" href="#ulv" opacity=".1"></use><g id="panorama" transform="translate(6,24)"><g id="emblem" transform="translate(18,6)"><path class="ExScheme-White" d="M 24 6 C 17.37 6 12 11.37 12 18 L 12 21 L 11 21 C 9.9 21 9 21.9 9 23 L 9 40 C 9 41.1 9.9 42 11 42 L 37 42 C 38.1 42 39 41.1 39 40 L 39 23 C 39 21.9 38.1 21 37 21 L 36 21 L 36 18 C 36 11.37 30.63 6 24 6 z M 24 7 A 11 11 0 0 1 35 18 L 35 21 L 34 21 L 34 18 A 10 10 0 0 0 24 8 A 10 10 0 0 0 14 18 L 14 21 L 13 21 L 13 18 A 11 11 0 0 1 24 7 z M 24 9 A 9 9 0 0 1 33 18 L 33 21 L 15 21 L 15 18 A 9 9 0 0 1 24 9 z " fill="currentColor" opacity=".6" stop-color="#000000"/><path class="ExScheme-White" d="M 24,6 C 17.37,6 12,11.37 12,18 v 3 h -1 c -1.1,0 -2,.9 -2,2 v 17 c 0,1.1 .9,2 2,2 h 26 c 1.1,0 2,-.9 2,-2 V 23 c 0,-1.1 -.9,-2 -2,-2 H 36 V 18 C 36,11.37 30.63,6 24,6 Z m 0,1 c 6.1,0 11,4.9 11,11 v 3 H 34 V 18 C 34,12.5 29.5,8 24,8 18.5,8 14,12.5 14,18 v 3 H 13 V 18 C 13,11.9 17.9,7 24,7 Z m 0,2 c 4.97,0 9,4.03 9,9 v 3 H 15 v -3 c 0,-4.97 4.03,-9 9,-9 z m 13,12.5 c .84,0 1.5,.66 1.5,1.5 v 17 c 0,.84 -.66,1.5 -1.5,1.5 H 11 C 10.16,41.5 9.5,40.84 9.5,40 V 23 c 0,-.84 .66,-1.5 1.5,-1.5 z" fill="currentColor" opacity=".6"/></g><path d="M 0 54 L 0 56 L 2 56 L 2 54 L 0 54 z M 2 56 L 2 58 L 4 58 L 4 56 L 2 56 z M 4 56 L 6 56 L 6 54 L 4 54 L 4 56 z M 6 56 L 6 58 L 8 58 L 8 56 L 6 56 z M 8 56 L 10 56 L 10 54 L 8 54 L 8 56 z M 10 56 L 10 58 L 12 58 L 12 56 L 10 56 z M 12 56 L 14 56 L 14 54 L 12 54 L 12 56 z M 14 56 L 14 58 L 16 58 L 16 56 L 14 56 z M 16 56 L 18 56 L 18 54 L 16 54 L 16 56 z M 18 56 L 18 58 L 20 58 L 20 56 L 18 56 z M 20 56 L 22 56 L 22 54 L 20 54 L 20 56 z M 22 56 L 22 58 L 24 58 L 24 56 L 22 56 z M 24 56 L 26 56 L 26 54 L 24 54 L 24 56 z M 26 56 L 26 58 L 28 58 L 28 56 L 26 56 z M 28 56 L 30 56 L 30 54 L 28 54 L 28 56 z M 30 56 L 30 58 L 32 58 L 32 56 L 30 56 z M 32 56 L 34 56 L 34 54 L 32 54 L 32 56 z M 34 56 L 34 58 L 36 58 L 36 56 L 34 56 z M 36 56 L 38 56 L 38 54 L 36 54 L 36 56 z M 38 56 L 38 58 L 40 58 L 40 56 L 38 56 z M 40 56 L 42 56 L 42 54 L 40 54 L 40 56 z M 42 56 L 42 58 L 44 58 L 44 56 L 42 56 z M 44 56 L 46 56 L 46 54 L 44 54 L 44 56 z M 46 56 L 46 58 L 48 58 L 48 56 L 46 56 z M 48 56 L 50 56 L 50 54 L 48 54 L 48 56 z M 50 56 L 50 58 L 52 58 L 52 56 L 50 56 z M 52 56 L 54 56 L 54 54 L 52 54 L 52 56 z M 54 56 L 54 58 L 56 58 L 56 56 L 54 56 z M 56 56 L 58 56 L 58 54 L 56 54 L 56 56 z M 58 56 L 58 58 L 60 58 L 60 56 L 58 56 z M 60 56 L 62 56 L 62 54 L 60 54 L 60 56 z M 62 56 L 62 58 L 64 58 L 64 56 L 62 56 z M 64 56 L 66 56 L 66 54 L 64 54 L 64 56 z M 66 56 L 66 58 L 68 58 L 68 56 L 66 56 z M 68 56 L 70 56 L 70 54 L 68 54 L 68 56 z M 70 56 L 70 58 L 72 58 L 72 56 L 70 56 z M 72 56 L 74 56 L 74 54 L 72 54 L 72 56 z M 74 56 L 74 58 L 76 58 L 76 56 L 74 56 z M 76 56 L 78 56 L 78 54 L 76 54 L 76 56 z M 78 56 L 78 58 L 80 58 L 80 56 L 78 56 z M 80 56 L 82 56 L 82 54 L 80 54 L 80 56 z M 82 56 L 82 58 L 83.45 58 C 83.8 57.4 84 56.73 84 56 L 82 56 z M 82 58 L 80 58 L 80 60 C 80.73 60 81.4 59.8 82 59.45 L 82 58 z M 78 58 L 76 58 L 76 60 L 78 60 L 78 58 z M 74 58 L 72 58 L 72 60 L 74 60 L 74 58 z M 70 58 L 68 58 L 68 60 L 70 60 L 70 58 z M 66 58 L 64 58 L 64 60 L 66 60 L 66 58 z M 62 58 L 60 58 L 60 60 L 62 60 L 62 58 z M 58 58 L 56 58 L 56 60 L 58 60 L 58 58 z M 54 58 L 52 58 L 52 60 L 54 60 L 54 58 z M 50 58 L 48 58 L 48 60 L 50 60 L 50 58 z M 46 58 L 44 58 L 44 60 L 46 60 L 46 58 z M 42 58 L 40 58 L 40 60 L 42 60 L 42 58 z M 38 58 L 36 58 L 36 60 L 38 60 L 38 58 z M 34 58 L 32 58 L 32 60 L 34 60 L 34 58 z M 30 58 L 28 58 L 28 60 L 30 60 L 30 58 z M 26 58 L 24 58 L 24 60 L 26 60 L 26 58 z M 22 58 L 20 58 L 20 60 L 22 60 L 22 58 z M 18 58 L 16 58 L 16 60 L 18 60 L 18 58 z M 14 58 L 12 58 L 12 60 L 14 60 L 14 58 z M 10 58 L 8 58 L 8 60 L 10 60 L 10 58 z M 6 58 L 4 58 L 4 60 L 6 60 L 6 58 z M 2 58 L .55 58 C .9 58.6 1.4 59.1 2 59.45 L 2 58 z " fill="#fffefe" id="rect3899" opacity=".2" stop-color="#000000"/></g><use href="#ulw" opacity=".4"></use><use class="toggle-flat-design" fill="url(#ulu)" href="#ulw" opacity=".2"></use><path class="toggle-flat-design" d="m 42,24 c -6,0 -6,4 -12,4 H 10 c -2.2,0 -4,1.8 -4,4 v 48 c 0,2.2 1.8,4 4,4 h 76 c 2.2,0 4,-1.8 4,-4 V 50 32 28 c 0,-2.2 -1.8,-4 -4,-4 z" fill="url(#ult)" opacity=".2"/><path class="folder-crease " d="m 6,66 v 3 L 9,69 c .83,0 1.5,-.67 1.5,-1.5 C 10.5,66.67 9.83,66 9,66 Z M 87,66 c -.83,0 -1.5,.67 -1.5,1.5 0,.83 .67,1.5 1.5,1.5 l 3,-10e-7 v -3 z" opacity=".4"/><path class="ColorScheme-Text" d="m 6,79 v 1 c 0,2.2 1.8,4 4,4 h 76 c 2.2,0 4,-1.8 4,-4 v -1 c 0,2.2 -1.8,4 -4,4 H 10 C 7.8,83 6,81.2 6,79 Z" fill="currentColor" opacity=".1"/><path class="ColorScheme-Text" d="M 6,79.5 V 80 c 0,2.2 1.8,4 4,4 h 76 c 2.2,0 4,-1.8 4,-4 v -0.5 c 0,2.2 -1.8,4 -4,4 H 10 c -2.2,0 -4,-1.8 -4,-4 z" fill="currentColor" opacity=".2"/><path d="m 42,24 c -6,0 -6,4 -12,4 H 10 c -2.2,0 -4,1.8 -4,4 v 1 c 0,-2.2 1.8,-4 4,-4 h 20 c 6,0 6,-4 12,-4 h 44 c 2.2,0 4,1.8 4,4 v -1 c 0,-2.2 -1.8,-4 -4,-4 z" fill="#fff" opacity=".1"/><path d="m 42,24 c -6,0 -6,4 -12,4 H 10 c -2.2,0 -4,1.8 -4,4 v 0.5 c 0,-2.2 1.8,-4 4,-4 h 20 c 6,0 6,-4 12,-4 h 44 c 2.2,0 4,1.8 4,4 V 28 c 0,-2.2 -1.8,-4 -4,-4 z" fill="#fff" opacity=".2"/><path d="m 42,23 c -6,0 -6,4 -12,4 H 10 v 1 h 20 c 6,0 6,-4 12,-4 h 44 v -1 z" opacity=".1"/><path d="m 42,23.5 c -6,0 -6,4 -12,4 H 10 V 28 h 20 c 6,0 6,-4 12,-4 h 44 v -0.5 z" opacity=".2"/></g>
</svg>