<svg height="96" version="1.1" width="96" xmlns="http://www.w3.org/2000/svg" xmlns:svg="http://www.w3.org/2000/svg" xmlns:xlink="http://www.w3.org/1999/xlink">
<defs id="primary-definitions">
<style id="current-color-scheme" type="text/css">
      .ColorScheme-Text           { color:#fff; }
      .ColorScheme-Background     { color:#111; }
      .ColorScheme-Highlight      { color:#3daefd; }
      .ColorScheme-ViewBackground { color:#000; }
      .ColorScheme-PositiveText   { color:#27ae60; }
      .ColorScheme-NeutralText    { color:#f67400; }
      .ColorScheme-NegativeText   { color:#da4453; }
    </style>
<style id="extended-color-scheme" type="text/css">
      .ExScheme-Black     { color:#3e3e3e; }
      .ExScheme-White     { color:#fcfcfc; }
      .ExScheme-Grey-1    { color:#cfd5d5; }
      .ExScheme-Grey-2    { color:#909c9c; }
      .ExScheme-Grey-3    { color:#536161; }
      .ExScheme-Red-1     { color:#ffafa5; }
      .ExScheme-Red-2     { color:#bf4231; }
      .ExScheme-Red-3     { color:#4d2f2b; }
      .ExScheme-Green-1   { color:#abf9c7; }
      .ExScheme-Green-2   { color:#3bb566; }
      .ExScheme-Green-3   { color:#377d50; }
      .ExScheme-Blue-1    { color:#abdaf9; }
      .ExScheme-Blue-2    { color:#3daefd; }
      .ExScheme-Blue-3    { color:#2b3c4d; }
      .ExScheme-Yellow-1  { color:#faffa5; }
      .ExScheme-Yellow-2  { color:#cac726; }
      .ExScheme-Yellow-3  { color:#4b4d2b; }
      .ExScheme-Orange-1  { color:#ffdaa5; }
      .ExScheme-Orange-2  { color:#ff9701; }
      .ExScheme-Orange-3  { color:#4d372b; }
      .ExScheme-Brown-1   { color:#e9d6bb; }
      .ExScheme-Brown-2   { color:#997657; }
      .ExScheme-Brown-3   { color:#433a35; }
      .ExScheme-Purple-1  { color:#e2abf9; }
      .ExScheme-Purple-2  { color:#b401ff; }
      .ExScheme-Purple-3  { color:#432b4d; }
      .ExScheme-Cyan-1    { color:#b2f2e6; }
      .ExScheme-Cyan-2    { color:#31bfa6; }
      .ExScheme-Cyan-3    { color:#2b4d47; }
      .ExScheme-Magenta-1 { color:#f8a6d8; }
      .ExScheme-Magenta-2 { color:#f00091; }
      .ExScheme-Magenta-3 { color:#770048; }
    </style>
<linearGradient id="um1">
<stop offset="0"/>
<stop offset="1" stop-opacity="0"/>
</linearGradient>
<linearGradient id="um2">
<stop offset="0" stop-color="#fff"/>
<stop offset="1" stop-color="#fff" stop-opacity="0"/>
</linearGradient>
<style class="toggle-enable-crease" type="text/css">
        .folder-crease { display: none; }
    </style><style class="toggle-manilla-folders" type="text/css">
        .folder-manilla { display: none; }
    </style><radialGradient cx=".5" cy="0" id="um3" r="1" xlink:href="#um2"/><linearGradient id="um4" xlink:href="#um1" y1="1" y2=".5"/><path d="m 14,12 c -2.2,0 -4,1.8 -4,4 v 4 8 c -2.2,0 -4,1.8 -4,4 v 48 c 0,2.2 1.8,4 4,4 h 76 c 2.2,0 4,-1.8 4,-4 V 50 32 28 c 0,-2.2 -1.8,-4 -4,-4 v -4 c 0,-2.2 -1.8,-4 -4,-4 H 42 c -6,0 -6,-4 -12,-4 z" id="um5"></path><path d="m 14,12 c -2.2,0 -4,1.8 -4,4 v 4 8 h 20 c 6,0 6,-4 12,-4 h 44 v -4 c 0,-2.2 -1.8,-4 -4,-4 H 42 c -6,0 -6,-4 -12,-4 z" id="um6"></path></defs>
<g id="content" transform="translate(0,0)"><use class="folder-manilla ExScheme-Brown-1" fill="currentColor" href="#um5"></use><use class="toggle-manilla-folders ColorScheme-Highlight" fill="currentColor" href="#um5" id="primary-color"></use><use class="ColorScheme-Text" fill="currentColor" href="#um5" opacity=".1"></use><g id="emblem" transform="translate(24,32)"><path class="ColorScheme-Background" d="m 24,6 a 1,1 0 0 0 -.9,.6 l -4.2,9.9 -10.73,.94 a 1,1 0 0 0 -.57,1.75 l 8.13,7.07 -2.4,10.5 a 1,1 0 0 0 1.5,1.1 L 24,32.3 l 9.23,5.55 a 1,1 0 0 0 1.5,-1.1 L 32.4,26.3 40.43,19.2 a 1,1 0 0 0 -.57,-1.75 L 29.13,16.5 24.9,6.6 A 1,1 0 0 0 24,6 Z" fill="currentColor" opacity=".6"/><path class="ColorScheme-Background" d="M 24 6 A 1 1 0 0 0 23.1 6.6 L 18.87 16.5 L 8.14 17.46 A 1 1 0 0 0 7.57 19.2 L 15.7 26.3 L 13.3 36.8 A 1 1 0 0 0 14.77 37.86 L 24 32.3 L 33.23 37.86 A 1 1 0 0 0 34.7 36.8 L 32.4 26.3 L 40.43 19.2 A 1 1 0 0 0 39.86 17.46 L 29.13 16.5 L 24.9 6.6 A 1 1 0 0 0 24 6 z M 24 6.5 C 24.2 6.5 24.4 6.6 24.46 6.8 L 28.67 16.7 A .5 .5 0 0 0 29.1 17 L 39.8 17.96 C 40.05 18 40.2 18.1 40.25 18.3 C 40.3 18.5 40.3 18.7 40.1 18.84 L 31.97 25.9 A .5 .5 0 0 0 31.8 26.4 L 34.24 36.9 C 34.3 37.1 34.2 37.3 34.04 37.4 C 33.9 37.5 33.7 37.55 33.5 37.43 L 24.26 31.9 A .5 .5 0 0 0 23.74 31.9 L 14.5 37.43 C 14.3 37.55 14.1 37.5 13.96 37.4 C 13.8 37.3 13.7 37.1 13.76 36.9 L 16.2 26.4 A .5 .5 0 0 0 16.03 25.9 L 7.9 18.84 C 7.7 18.7 7.7 18.5 7.75 18.3 C 7.8 18.1 7.95 18 8.2 17.96 L 18.9 17 A .5 .5 0 0 0 19.33 16.7 L 23.54 6.8 C 23.6 6.6 23.8 6.5 24 6.5 z " fill="currentColor" opacity=".6"/></g><use href="#um6" opacity=".4"></use><use class="toggle-flat-design" fill="url(#um4)" href="#um6" opacity=".2"></use><path class="toggle-flat-design" d="m 42,24 c -6,0 -6,4 -12,4 H 10 c -2.2,0 -4,1.8 -4,4 v 48 c 0,2.2 1.8,4 4,4 h 76 c 2.2,0 4,-1.8 4,-4 V 50 32 28 c 0,-2.2 -1.8,-4 -4,-4 z" fill="url(#um3)" opacity=".2"/><path class="folder-crease " d="m 6,66 v 3 h 13.5 c .83,0 1.5,-.67 1.5,-1.5 0,-.83 -.67,-1.5 -1.5,-1.5 z m 70.5,0 c -.83,0 -1.5,.67 -1.5,1.5 0,.83 .67,1.5 1.5,1.5 H 90 v -3 z" opacity=".4"/><path class="ColorScheme-Text" d="m 6,79 v 1 c 0,2.2 1.8,4 4,4 h 76 c 2.2,0 4,-1.8 4,-4 v -1 c 0,2.2 -1.8,4 -4,4 H 10 C 7.8,83 6,81.2 6,79 Z" fill="currentColor" opacity=".1"/><path class="ColorScheme-Text" d="M 6,79.5 V 80 c 0,2.2 1.8,4 4,4 h 76 c 2.2,0 4,-1.8 4,-4 v -0.5 c 0,2.2 -1.8,4 -4,4 H 10 c -2.2,0 -4,-1.8 -4,-4 z" fill="currentColor" opacity=".2"/><path d="m 42,24 c -6,0 -6,4 -12,4 H 10 c -2.2,0 -4,1.8 -4,4 v 1 c 0,-2.2 1.8,-4 4,-4 h 20 c 6,0 6,-4 12,-4 h 44 c 2.2,0 4,1.8 4,4 v -1 c 0,-2.2 -1.8,-4 -4,-4 z" fill="#fff" opacity=".1"/><path d="m 42,24 c -6,0 -6,4 -12,4 H 10 c -2.2,0 -4,1.8 -4,4 v 0.5 c 0,-2.2 1.8,-4 4,-4 h 20 c 6,0 6,-4 12,-4 h 44 c 2.2,0 4,1.8 4,4 V 28 c 0,-2.2 -1.8,-4 -4,-4 z" fill="#fff" opacity=".2"/><path d="m 42,23 c -6,0 -6,4 -12,4 H 10 v 1 h 20 c 6,0 6,-4 12,-4 h 44 v -1 z" opacity=".1"/><path d="m 42,23.5 c -6,0 -6,4 -12,4 H 10 V 28 h 20 c 6,0 6,-4 12,-4 h 44 v -0.5 z" opacity=".2"/></g>
</svg>