<svg height="96" version="1.1" width="96" xmlns="http://www.w3.org/2000/svg" xmlns:svg="http://www.w3.org/2000/svg" xmlns:xlink="http://www.w3.org/1999/xlink">
<defs id="primary-definitions">
<style id="current-color-scheme" type="text/css">
      .ColorScheme-Text         { color: #232629; }
      .ColorScheme-Background   { color: #eff0f1; }
      .ColorScheme-Highlight    { color: #7ec9f0; }
      .ColorScheme-PositiveText { color: #27ae60; }
      .ColorScheme-NeutralText  { color: #f67400; }
      .ColorScheme-NegativeText { color: #da4453; }
      .ColorScheme-ActiveText   { color: #3daee9; }
      .ColorScheme-Complement   { color: #ffffff; }
      .ColorScheme-Contrast     { color: #000000; }
    </style>
<style id="extended-color-scheme" type="text/css">
      .ExScheme-Black     { color:#3e3e3e; }
      .ExScheme-White     { color:#fcfcfc; }
      .ExScheme-Grey-1    { color:#cfd5d5; }
      .ExScheme-Grey-2    { color:#909c9c; }
      .ExScheme-Grey-3    { color:#536161; }
      .ExScheme-Red-1     { color:#ffafa5; }
      .ExScheme-Red-2     { color:#bf4231; }
      .ExScheme-Red-3     { color:#4d2f2b; }
      .ExScheme-Green-1   { color:#abf9c7; }
      .ExScheme-Green-2   { color:#3bb566; }
      .ExScheme-Green-3   { color:#377d50; }
      .ExScheme-Blue-1    { color:#abdaf9; }
      .ExScheme-Blue-2    { color:#3daefd; }
      .ExScheme-Blue-3    { color:#2b3c4d; }
      .ExScheme-Yellow-1  { color:#faffa5; }
      .ExScheme-Yellow-2  { color:#cac726; }
      .ExScheme-Yellow-3  { color:#4b4d2b; }
      .ExScheme-Orange-1  { color:#ffdaa5; }
      .ExScheme-Orange-2  { color:#ff9701; }
      .ExScheme-Orange-3  { color:#4d372b; }
      .ExScheme-Brown-1   { color:#e9d6bb; }
      .ExScheme-Brown-2   { color:#997657; }
      .ExScheme-Brown-3   { color:#433a35; }
      .ExScheme-Purple-1  { color:#e2abf9; }
      .ExScheme-Purple-2  { color:#b401ff; }
      .ExScheme-Purple-3  { color:#432b4d; }
      .ExScheme-Cyan-1    { color:#b2f2e6; }
      .ExScheme-Cyan-2    { color:#31bfa6; }
      .ExScheme-Cyan-3    { color:#2b4d47; }
      .ExScheme-Magenta-1 { color:#f8a6d8; }
      .ExScheme-Magenta-2 { color:#f00091; }
      .ExScheme-Magenta-3 { color:#770048; }
    </style>
<linearGradient id="ut9">
<stop offset="0"/>
<stop offset="1" stop-opacity="0"/>
</linearGradient>
<linearGradient id="uta">
<stop offset="0" stop-color="#fff"/>
<stop offset="1" stop-color="#fff" stop-opacity="0"/>
</linearGradient>
<style id="utb" type="text/css">
        .force-display-for-editing { display: inline !important; }
    </style><style class="remove-if__show-crease" type="text/css">
        .enable-if__show-crease { display: none; }
    </style><style class="remove-if__color-sync-mimes-places" type="text/css">
        .enable-if__color-sync-mimes-places { display: none; }
    </style><radialGradient cx=".5" cy="0" id="utc" r="1" xlink:href="#uta"/><linearGradient id="utd" xlink:href="#ut9" y1="1" y2=".5"/><style class="ColorScheme-Background" fill="currentColor" opacity=".6" type="text/css">
   .ColorScheme-Text           { color:#eff0f1; }
      .ColorScheme-Background     { color:#31363b; }
      .ColorScheme-Highlight      { color:#3daefd; }
      .ColorScheme-ViewBackground { color:#fcfcfc; }
      .ColorScheme-PositiveText   { color:#27ae60; }
      .ColorScheme-NeutralText    { color:#f67400; }
      .ColorScheme-NegativeText   { color:#da4453; }
  </style><path d="m 14,12 c -2.2,0 -4,1.8 -4,4 v 4 8 c -2.2,0 -4,1.8 -4,4 v 48 c 0,2.2 1.8,4 4,4 h 76 c 2.2,0 4,-1.8 4,-4 V 50 32 28 c 0,-2.2 -1.8,-4 -4,-4 v -4 c 0,-2.2 -1.8,-4 -4,-4 H 42 c -6,0 -6,-4 -12,-4 z" id="ute"></path><path d="m 14,12 c -2.2,0 -4,1.8 -4,4 v 4 8 h 20 c 6,0 6,-4 12,-4 h 44 v -4 c 0,-2.2 -1.8,-4 -4,-4 H 42 c -6,0 -6,-4 -12,-4 z" id="utf"></path></defs>
<g id="content" transform="translate(0,0)"><use class="sync-color enable-if__color-sync-mimes-places force-display-for-editing ColorScheme-ActiveText" fill="currentColor" href="#ute"></use><use class="primary-color remove-if__color-sync-mimes-places ColorScheme-ActiveText" fill="currentColor" href="#ute"></use><use class="ColorScheme-Contrast" fill="currentColor" href="#ute" opacity=".1"></use><g id="decal" transform="translate(24,32)"><path class="ColorScheme-Background" d="M 23.74 3.04 A 1 1 0 0 0 23.3 3.3 L 19.04 7.55 L 22.9 11.2 A 3 3 0 0 1 24 11 A 3 3 0 0 1 27 14 A 3 3 0 0 1 26.85 14.93 L 33.64 21.34 A 3 3 0 0 1 35 21 A 3 3 0 0 1 38 24 A 3 3 0 0 1 35 27 A 3 3 0 0 1 32 24 A 3 3 0 0 1 32.26 22.8 L 25.6 16.5 A 3 3 0 0 1 25 16.8 L 25 32.17 A 3 3 0 0 1 27 35 A 3 3 0 0 1 24 38 A 3 3 0 0 1 21 35 A 3 3 0 0 1 23 32.2 L 23 16.8 A 3 3 0 0 1 21 14 A 3 3 0 0 1 21.4 12.53 L 17.6 8.96 L 3.3 23.3 A 1 1 0 0 0 3.3 24.7 L 23.3 44.7 A 1 1 0 0 0 24.7 44.7 L 44.7 24.7 A 1 1 0 0 0 44.7 23.3 L 24.7 3.3 A 1 1 0 0 0 23.74 3.04 z " fill="currentColor" opacity=".6"/><path class="ColorScheme-Background" d="M 23.74 3.04 A 1 1 0 0 0 23.3 3.3 L 19.04 7.55 L 22.9 11.2 A 3 3 0 0 1 24 11 A 3 3 0 0 1 27 14 A 3 3 0 0 1 26.85 14.93 L 33.64 21.34 A 3 3 0 0 1 35 21 A 3 3 0 0 1 38 24 A 3 3 0 0 1 35 27 A 3 3 0 0 1 32 24 A 3 3 0 0 1 32.26 22.8 L 25.6 16.5 A 3 3 0 0 1 25 16.8 L 25 32.17 A 3 3 0 0 1 27 35 A 3 3 0 0 1 24 38 A 3 3 0 0 1 21 35 A 3 3 0 0 1 23 32.2 L 23 16.8 A 3 3 0 0 1 21 14 A 3 3 0 0 1 21.4 12.53 L 17.6 8.96 L 3.3 23.3 A 1 1 0 0 0 3.3 24.7 L 23.3 44.7 A 1 1 0 0 0 24.7 44.7 L 44.7 24.7 A 1 1 0 0 0 44.7 23.3 L 24.7 3.3 A 1 1 0 0 0 23.74 3.04 z M 24 3.5 C 24.13 3.5 24.26 3.55 24.35 3.65 L 44.35 23.65 C 44.55 23.85 44.55 24.15 44.35 24.35 L 24.35 44.35 C 24.15 44.55 23.85 44.55 23.65 44.35 L 3.65 24.35 C 3.45 24.15 3.45 23.85 3.65 23.65 L 17.63 9.66 L 20.85 12.7 C 20.67 13.1 20.5 13.54 20.5 14 A .5 .5 0 0 0 20.5 14 C 20.5 15.33 21.33 16.45 22.5 17.04 L 22.5 31.96 C 21.33 32.55 20.5 33.67 20.5 35 A .5 .5 0 0 0 20.5 35 C 20.5 36.93 22.07 38.5 24 38.5 C 25.93 38.5 27.5 36.93 27.5 35 C 27.5 33.66 26.67 32.54 25.5 31.95 L 25.5 17.13 C 25.5 17.13 25.5 17.1 25.53 17.1 L 31.7 22.97 C 31.6 23.3 31.5 23.64 31.5 24 A .5 .5 0 0 0 31.5 24 C 31.5 25.93 33.07 27.5 35 27.5 C 36.93 27.5 38.5 25.93 38.5 24 C 38.5 22.07 36.93 20.5 35 20.5 A .5 .5 0 0 0 35 20.5 C 34.6 20.5 34.2 20.65 33.8 20.8 L 27.4 14.74 C 27.43 14.5 27.5 14.25 27.5 14 A .5 .5 0 0 0 27.5 14 C 27.5 12.07 25.93 10.5 24 10.5 A .5 .5 0 0 0 24 10.5 C 23.7 10.5 23.4 10.6 23.1 10.7 L 19.75 7.54 L 23.65 3.65 C 23.7 3.6 23.8 3.54 23.87 3.5 C 23.9 3.5 23.96 3.5 24 3.5 z " fill="currentColor" opacity=".6"/></g><use href="#utf" opacity=".4"></use><use fill="url(#utd)" href="#utf" opacity=".2"></use><path d="m 42,24 c -6,0 -6,4 -12,4 H 10 c -2.2,0 -4,1.8 -4,4 v 48 c 0,2.2 1.8,4 4,4 h 76 c 2.2,0 4,-1.8 4,-4 V 50 32 28 c 0,-2.2 -1.8,-4 -4,-4 z" fill="url(#utc)" opacity=".2"/><path class="ColorScheme-Contrast" d="m 6,79 v 1 c 0,2.2 1.8,4 4,4 h 76 c 2.2,0 4,-1.8 4,-4 v -1 c 0,2.2 -1.8,4 -4,4 H 10 C 7.8,83 6,81.2 6,79 Z" fill="currentColor" opacity=".1"/><path class="ColorScheme-Contrast" d="M 6,79.5 V 80 c 0,2.2 1.8,4 4,4 h 76 c 2.2,0 4,-1.8 4,-4 v -0.5 c 0,2.2 -1.8,4 -4,4 H 10 c -2.2,0 -4,-1.8 -4,-4 z" fill="currentColor" opacity=".2"/><path d="m 42,24 c -6,0 -6,4 -12,4 H 10 c -2.2,0 -4,1.8 -4,4 v 1 c 0,-2.2 1.8,-4 4,-4 h 20 c 6,0 6,-4 12,-4 h 44 c 2.2,0 4,1.8 4,4 v -1 c 0,-2.2 -1.8,-4 -4,-4 z" fill="#fff" opacity=".1"/><path d="m 42,24 c -6,0 -6,4 -12,4 H 10 c -2.2,0 -4,1.8 -4,4 v 0.5 c 0,-2.2 1.8,-4 4,-4 h 20 c 6,0 6,-4 12,-4 h 44 c 2.2,0 4,1.8 4,4 V 28 c 0,-2.2 -1.8,-4 -4,-4 z" fill="#fff" opacity=".2"/><path d="m 42,23 c -6,0 -6,4 -12,4 H 10 v 1 h 20 c 6,0 6,-4 12,-4 h 44 v -1 z" opacity=".1"/><path d="m 42,23.5 c -6,0 -6,4 -12,4 H 10 V 28 h 20 c 6,0 6,-4 12,-4 h 44 v -0.5 z" opacity=".2"/></g>
</svg>