<svg height="96" version="1.1" width="96" xmlns="http://www.w3.org/2000/svg" xmlns:svg="http://www.w3.org/2000/svg" xmlns:xlink="http://www.w3.org/1999/xlink">
<defs id="primary-definitions">
<style id="current-color-scheme" type="text/css">
      .ColorScheme-Text           { color:#fff; }
      .ColorScheme-Background     { color:#111; }
      .ColorScheme-Highlight      { color:#3daefd; }
      .ColorScheme-ViewBackground { color:#000; }
      .ColorScheme-PositiveText   { color:#27ae60; }
      .ColorScheme-NeutralText    { color:#f67400; }
      .ColorScheme-NegativeText   { color:#da4453; }
    </style>
<style id="extended-color-scheme" type="text/css">
      .ExScheme-Black     { color:#3e3e3e; }
      .ExScheme-White     { color:#fcfcfc; }
      .ExScheme-Grey-1    { color:#cfd5d5; }
      .ExScheme-Grey-2    { color:#909c9c; }
      .ExScheme-Grey-3    { color:#536161; }
      .ExScheme-Red-1     { color:#ffafa5; }
      .ExScheme-Red-2     { color:#bf4231; }
      .ExScheme-Red-3     { color:#4d2f2b; }
      .ExScheme-Green-1   { color:#abf9c7; }
      .ExScheme-Green-2   { color:#3bb566; }
      .ExScheme-Green-3   { color:#377d50; }
      .ExScheme-Blue-1    { color:#abdaf9; }
      .ExScheme-Blue-2    { color:#3daefd; }
      .ExScheme-Blue-3    { color:#2b3c4d; }
      .ExScheme-Yellow-1  { color:#faffa5; }
      .ExScheme-Yellow-2  { color:#cac726; }
      .ExScheme-Yellow-3  { color:#4b4d2b; }
      .ExScheme-Orange-1  { color:#ffdaa5; }
      .ExScheme-Orange-2  { color:#ff9701; }
      .ExScheme-Orange-3  { color:#4d372b; }
      .ExScheme-Brown-1   { color:#e9d6bb; }
      .ExScheme-Brown-2   { color:#997657; }
      .ExScheme-Brown-3   { color:#433a35; }
      .ExScheme-Purple-1  { color:#e2abf9; }
      .ExScheme-Purple-2  { color:#b401ff; }
      .ExScheme-Purple-3  { color:#432b4d; }
      .ExScheme-Cyan-1    { color:#b2f2e6; }
      .ExScheme-Cyan-2    { color:#31bfa6; }
      .ExScheme-Cyan-3    { color:#2b4d47; }
      .ExScheme-Magenta-1 { color:#f8a6d8; }
      .ExScheme-Magenta-2 { color:#f00091; }
      .ExScheme-Magenta-3 { color:#770048; }
    </style>
<linearGradient id="uFv">
<stop offset="0"/>
<stop offset="1" stop-opacity="0"/>
</linearGradient>
<linearGradient id="uFw">
<stop offset="0" stop-color="#fff"/>
<stop offset="1" stop-color="#fff" stop-opacity="0"/>
</linearGradient>
<style class="toggle-enable-crease" type="text/css">
        .folder-crease { display: none; }
    </style><style class="toggle-manilla-folders" type="text/css">
        .folder-manilla { display: none; }
    </style><radialGradient cx=".5" cy="0" id="uFx" r="1" xlink:href="#uFw"/><linearGradient id="uFy" xlink:href="#uFv" y1="1" y2=".5"/><path d="m 14,12 c -2.2,0 -4,1.8 -4,4 v 4 8 c -2.2,0 -4,1.8 -4,4 v 48 c 0,2.2 1.8,4 4,4 h 76 c 2.2,0 4,-1.8 4,-4 V 50 32 28 c 0,-2.2 -1.8,-4 -4,-4 v -4 c 0,-2.2 -1.8,-4 -4,-4 H 42 c -6,0 -6,-4 -12,-4 z" id="uFz"></path><path d="m 14,12 c -2.2,0 -4,1.8 -4,4 v 4 8 h 20 c 6,0 6,-4 12,-4 h 44 v -4 c 0,-2.2 -1.8,-4 -4,-4 H 42 c -6,0 -6,-4 -12,-4 z" id="uFA"></path></defs>
<g id="content" transform="translate(0,0)"><use class="folder-manilla ExScheme-Brown-1" fill="currentColor" href="#uFz"></use><use class="toggle-manilla-folders ColorScheme-Highlight" fill="currentColor" href="#uFz" id="primary-color"></use><use class="ColorScheme-Text" fill="currentColor" href="#uFz" opacity=".1"></use><g id="emblem" transform="translate(24,32)"><path class="ColorScheme-Background" d="M 4.5 6 C 4.2 6 4 6.2 4 6.5 C 4 6.8 4.2 7 4.5 7 L 41.5 7 C 41.8 7 42 6.8 42 6.5 C 42 6.2 41.8 6 41.5 6 L 4.5 6 z M 4.5 13 C 4.2 13 4 13.2 4 13.5 C 4 13.8 4.2 14 4.5 14 L 35.5 14 C 35.8 14 36 13.8 36 13.5 C 36 13.2 35.8 13 35.5 13 L 4.5 13 z M 4.5 20 C 4.2 20 4 20.2 4 20.5 C 4 20.8 4.2 21 4.5 21 L 43.5 21 C 43.8 21 44 20.8 44 20.5 C 44 20.2 43.8 20 43.5 20 L 4.5 20 z M 4.5 27 C 4.2 27 4 27.2 4 27.5 C 4 27.8 4.2 28 4.5 28 L 27.5 28 C 27.8 28 28 27.8 28 27.5 C 28 27.2 27.8 27 27.5 27 L 4.5 27 z M 4.5 34 C 4.2 34 4 34.2 4 34.5 C 4 34.8 4.2 35 4.5 35 L 35.5 35 C 35.8 35 36 34.8 36 34.5 C 36 34.2 35.8 34 35.5 34 L 4.5 34 z M 4.5 41 C 4.2 41 4 41.2 4 41.5 C 4 41.8 4.2 42 4.5 42 L 41.5 42 C 41.8 42 42 41.8 42 41.5 C 42 41.2 41.8 41 41.5 41 L 4.5 41 z " fill="currentColor" opacity=".6"/><path class="ColorScheme-Background" d="M 4.5,6 C 4.2,6 4,6.2 4,6.5 4,6.8 4.2,7 4.5,7 h 37 C 41.8,7 42,6.8 42,6.5 42,6.2 41.8,6 41.5,6 Z m 0,7 C 4.2,13 4,13.2 4,13.5 4,13.8 4.2,14 4.5,14 h 31 C 35.8,14 36,13.8 36,13.5 36,13.2 35.8,13 35.5,13 Z m 0,7 C 4.2,20 4,20.2 4,20.5 4,20.8 4.2,21 4.5,21 h 39 C 43.8,21 44,20.8 44,20.5 44,20.2 43.8,20 43.5,20 Z m 0,7 C 4.2,27 4,27.2 4,27.5 4,27.8 4.2,28 4.5,28 h 23 C 27.8,28 28,27.8 28,27.5 28,27.2 27.8,27 27.5,27 Z m 0,7 C 4.2,34 4,34.2 4,34.5 4,34.8 4.2,35 4.5,35 h 31 C 35.8,35 36,34.8 36,34.5 36,34.2 35.8,34 35.5,34 Z m 0,7 C 4.2,41 4,41.2 4,41.5 4,41.8 4.2,42 4.5,42 h 37 C 41.8,42 42,41.8 42,41.5 42,41.2 41.8,41 41.5,41 Z" fill="currentColor" opacity=".6"/></g><use href="#uFA" opacity=".4"></use><use class="toggle-flat-design" fill="url(#uFy)" href="#uFA" opacity=".2"></use><path class="toggle-flat-design" d="m 42,24 c -6,0 -6,4 -12,4 H 10 c -2.2,0 -4,1.8 -4,4 v 48 c 0,2.2 1.8,4 4,4 h 76 c 2.2,0 4,-1.8 4,-4 V 50 32 28 c 0,-2.2 -1.8,-4 -4,-4 z" fill="url(#uFx)" opacity=".2"/><path class="folder-crease " d="m 6,66 v 3 h 13.5 c .83,0 1.5,-.67 1.5,-1.5 0,-.83 -.67,-1.5 -1.5,-1.5 z m 70.5,0 c -.83,0 -1.5,.67 -1.5,1.5 0,.83 .67,1.5 1.5,1.5 H 90 v -3 z" opacity=".4"/><path class="ColorScheme-Text" d="m 6,79 v 1 c 0,2.2 1.8,4 4,4 h 76 c 2.2,0 4,-1.8 4,-4 v -1 c 0,2.2 -1.8,4 -4,4 H 10 C 7.8,83 6,81.2 6,79 Z" fill="currentColor" opacity=".1"/><path class="ColorScheme-Text" d="M 6,79.5 V 80 c 0,2.2 1.8,4 4,4 h 76 c 2.2,0 4,-1.8 4,-4 v -0.5 c 0,2.2 -1.8,4 -4,4 H 10 c -2.2,0 -4,-1.8 -4,-4 z" fill="currentColor" opacity=".2"/><path d="m 42,24 c -6,0 -6,4 -12,4 H 10 c -2.2,0 -4,1.8 -4,4 v 1 c 0,-2.2 1.8,-4 4,-4 h 20 c 6,0 6,-4 12,-4 h 44 c 2.2,0 4,1.8 4,4 v -1 c 0,-2.2 -1.8,-4 -4,-4 z" fill="#fff" opacity=".1"/><path d="m 42,24 c -6,0 -6,4 -12,4 H 10 c -2.2,0 -4,1.8 -4,4 v 0.5 c 0,-2.2 1.8,-4 4,-4 h 20 c 6,0 6,-4 12,-4 h 44 c 2.2,0 4,1.8 4,4 V 28 c 0,-2.2 -1.8,-4 -4,-4 z" fill="#fff" opacity=".2"/><path d="m 42,23 c -6,0 -6,4 -12,4 H 10 v 1 h 20 c 6,0 6,-4 12,-4 h 44 v -1 z" opacity=".1"/><path d="m 42,23.5 c -6,0 -6,4 -12,4 H 10 V 28 h 20 c 6,0 6,-4 12,-4 h 44 v -0.5 z" opacity=".2"/></g>
</svg>