<svg height="96" version="1.1" width="96" xmlns="http://www.w3.org/2000/svg" xmlns:svg="http://www.w3.org/2000/svg" xmlns:xlink="http://www.w3.org/1999/xlink">
<defs id="primary-definitions">
<style id="current-color-scheme" type="text/css">
      .ColorScheme-Text         { color: #232629; }
      .ColorScheme-Background   { color: #eff0f1; }
      .ColorScheme-Highlight    { color: #7ec9f0; }
      .ColorScheme-PositiveText { color: #27ae60; }
      .ColorScheme-NeutralText  { color: #f67400; }
      .ColorScheme-NegativeText { color: #da4453; }
      .ColorScheme-ActiveText   { color: #3daee9; }
      .ColorScheme-Complement   { color: #ffffff; }
      .ColorScheme-Contrast     { color: #000000; }
    </style>
<style id="extended-color-scheme" type="text/css">
      .ExScheme-Black     { color:#3e3e3e; }
      .ExScheme-White     { color:#fcfcfc; }
      .ExScheme-Grey-1    { color:#cfd5d5; }
      .ExScheme-Grey-2    { color:#909c9c; }
      .ExScheme-Grey-3    { color:#536161; }
      .ExScheme-Red-1     { color:#ffafa5; }
      .ExScheme-Red-2     { color:#bf4231; }
      .ExScheme-Red-3     { color:#4d2f2b; }
      .ExScheme-Green-1   { color:#abf9c7; }
      .ExScheme-Green-2   { color:#3bb566; }
      .ExScheme-Green-3   { color:#377d50; }
      .ExScheme-Blue-1    { color:#abdaf9; }
      .ExScheme-Blue-2    { color:#3daefd; }
      .ExScheme-Blue-3    { color:#2b3c4d; }
      .ExScheme-Yellow-1  { color:#faffa5; }
      .ExScheme-Yellow-2  { color:#cac726; }
      .ExScheme-Yellow-3  { color:#4b4d2b; }
      .ExScheme-Orange-1  { color:#ffdaa5; }
      .ExScheme-Orange-2  { color:#ff9701; }
      .ExScheme-Orange-3  { color:#4d372b; }
      .ExScheme-Brown-1   { color:#e9d6bb; }
      .ExScheme-Brown-2   { color:#997657; }
      .ExScheme-Brown-3   { color:#433a35; }
      .ExScheme-Purple-1  { color:#e2abf9; }
      .ExScheme-Purple-2  { color:#b401ff; }
      .ExScheme-Purple-3  { color:#432b4d; }
      .ExScheme-Cyan-1    { color:#b2f2e6; }
      .ExScheme-Cyan-2    { color:#31bfa6; }
      .ExScheme-Cyan-3    { color:#2b4d47; }
      .ExScheme-Magenta-1 { color:#f8a6d8; }
      .ExScheme-Magenta-2 { color:#f00091; }
      .ExScheme-Magenta-3 { color:#770048; }
    </style>
<linearGradient id="uxg">
<stop offset="0"/>
<stop offset="1" stop-opacity="0"/>
</linearGradient>
<linearGradient id="uxh">
<stop offset="0" stop-color="#fff"/>
<stop offset="1" stop-color="#fff" stop-opacity="0"/>
</linearGradient>
<style id="uxi" type="text/css">
        .force-display-for-editing { display: inline !important; }
    </style><style class="remove-if__show-crease" type="text/css">
        .enable-if__show-crease { display: none; }
    </style><style class="remove-if__color-sync-mimes-places" type="text/css">
        .enable-if__color-sync-mimes-places { display: none; }
    </style><radialGradient cx=".5" cy="0" id="uxj" r="1" xlink:href="#uxh"/><linearGradient id="uxk" xlink:href="#uxg" y1="1" y2=".5"/><style class="ColorScheme-Background" fill="currentColor" opacity=".6" type="text/css">
   .ColorScheme-Text           { color:#eff0f1; }
      .ColorScheme-Background     { color:#31363b; }
      .ColorScheme-Highlight      { color:#3daefd; }
      .ColorScheme-ViewBackground { color:#fcfcfc; }
      .ColorScheme-PositiveText   { color:#27ae60; }
      .ColorScheme-NeutralText    { color:#f67400; }
      .ColorScheme-NegativeText   { color:#da4453; }
  </style><path d="m 14,12 c -2.2,0 -4,1.8 -4,4 v 4 8 c -2.2,0 -4,1.8 -4,4 v 48 c 0,2.2 1.8,4 4,4 h 76 c 2.2,0 4,-1.8 4,-4 V 50 32 28 c 0,-2.2 -1.8,-4 -4,-4 v -4 c 0,-2.2 -1.8,-4 -4,-4 H 42 c -6,0 -6,-4 -12,-4 z" id="uxl"></path><path d="m 14,12 c -2.2,0 -4,1.8 -4,4 v 4 8 h 20 c 6,0 6,-4 12,-4 h 44 v -4 c 0,-2.2 -1.8,-4 -4,-4 H 42 c -6,0 -6,-4 -12,-4 z" id="uxm"></path></defs>
<g id="content" transform="translate(0,0)"><use class="sync-color enable-if__color-sync-mimes-places force-display-for-editing ColorScheme-ActiveText" fill="currentColor" href="#uxl"></use><use class="primary-color remove-if__color-sync-mimes-places ColorScheme-ActiveText" fill="currentColor" href="#uxl"></use><use class="ColorScheme-Contrast" fill="currentColor" href="#uxl" opacity=".1"></use><g id="decal" transform="translate(24,32)"><path class="ColorScheme-Background" d="M 24 6 C 17.37 6 12 11.37 12 18 L 12 21 L 11 21 C 9.9 21 9 21.9 9 23 L 9 40 C 9 41.1 9.9 42 11 42 L 37 42 C 38.1 42 39 41.1 39 40 L 39 23 C 39 21.9 38.1 21 37 21 L 36 21 L 36 18 C 36 11.37 30.63 6 24 6 z M 24 7 A 11 11 0 0 1 35 18 L 35 21 L 34 21 L 34 18 A 10 10 0 0 0 24 8 A 10 10 0 0 0 14 18 L 14 21 L 13 21 L 13 18 A 11 11 0 0 1 24 7 z M 24 9 A 9 9 0 0 1 33 18 L 33 21 L 15 21 L 15 18 A 9 9 0 0 1 24 9 z " fill="currentColor" opacity=".6" stop-color="#000000"/><path class="ColorScheme-Background" d="M 24,6 C 17.37,6 12,11.37 12,18 v 3 h -1 c -1.1,0 -2,.9 -2,2 v 17 c 0,1.1 .9,2 2,2 h 26 c 1.1,0 2,-.9 2,-2 V 23 c 0,-1.1 -.9,-2 -2,-2 H 36 V 18 C 36,11.37 30.63,6 24,6 Z m 0,1 c 6.1,0 11,4.9 11,11 v 3 H 34 V 18 C 34,12.5 29.5,8 24,8 18.5,8 14,12.5 14,18 v 3 H 13 V 18 C 13,11.9 17.9,7 24,7 Z m 0,2 c 4.97,0 9,4.03 9,9 v 3 H 15 v -3 c 0,-4.97 4.03,-9 9,-9 z m 13,12.5 c .84,0 1.5,.66 1.5,1.5 v 17 c 0,.84 -.66,1.5 -1.5,1.5 H 11 C 10.16,41.5 9.5,40.84 9.5,40 V 23 c 0,-.84 .66,-1.5 1.5,-1.5 z" fill="currentColor" opacity=".6"/></g><use href="#uxm" opacity=".4"></use><use fill="url(#uxk)" href="#uxm" opacity=".2"></use><path d="m 42,24 c -6,0 -6,4 -12,4 H 10 c -2.2,0 -4,1.8 -4,4 v 48 c 0,2.2 1.8,4 4,4 h 76 c 2.2,0 4,-1.8 4,-4 V 50 32 28 c 0,-2.2 -1.8,-4 -4,-4 z" fill="url(#uxj)" opacity=".2"/><path class="ColorScheme-Contrast" d="m 6,79 v 1 c 0,2.2 1.8,4 4,4 h 76 c 2.2,0 4,-1.8 4,-4 v -1 c 0,2.2 -1.8,4 -4,4 H 10 C 7.8,83 6,81.2 6,79 Z" fill="currentColor" opacity=".1"/><path class="ColorScheme-Contrast" d="M 6,79.5 V 80 c 0,2.2 1.8,4 4,4 h 76 c 2.2,0 4,-1.8 4,-4 v -0.5 c 0,2.2 -1.8,4 -4,4 H 10 c -2.2,0 -4,-1.8 -4,-4 z" fill="currentColor" opacity=".2"/><path d="m 42,24 c -6,0 -6,4 -12,4 H 10 c -2.2,0 -4,1.8 -4,4 v 1 c 0,-2.2 1.8,-4 4,-4 h 20 c 6,0 6,-4 12,-4 h 44 c 2.2,0 4,1.8 4,4 v -1 c 0,-2.2 -1.8,-4 -4,-4 z" fill="#fff" opacity=".1"/><path d="m 42,24 c -6,0 -6,4 -12,4 H 10 c -2.2,0 -4,1.8 -4,4 v 0.5 c 0,-2.2 1.8,-4 4,-4 h 20 c 6,0 6,-4 12,-4 h 44 c 2.2,0 4,1.8 4,4 V 28 c 0,-2.2 -1.8,-4 -4,-4 z" fill="#fff" opacity=".2"/><path d="m 42,23 c -6,0 -6,4 -12,4 H 10 v 1 h 20 c 6,0 6,-4 12,-4 h 44 v -1 z" opacity=".1"/><path d="m 42,23.5 c -6,0 -6,4 -12,4 H 10 V 28 h 20 c 6,0 6,-4 12,-4 h 44 v -0.5 z" opacity=".2"/></g>
</svg>