<?xml version="1.0" encoding="utf-8"?><svg height="96" width="96" xmlns="http://www.w3.org/2000/svg" xmlns:svg="http://www.w3.org/2000/svg" xmlns:xlink="http://www.w3.org/1999/xlink"><defs id="primary-definitions"><style id="current-color-scheme" type="text/css">.ColorScheme-Text           { color:#fff; }
      .ColorScheme-Background     { color:#111; }
      .ColorScheme-Highlight      { color:#3daefd; }
      .ColorScheme-ViewBackground { color:#000; }
      .ColorScheme-PositiveText   { color:#27ae60; }
      .ColorScheme-NeutralText    { color:#f67400; }
      .ColorScheme-NegativeText   { color:#da4453; }
  </style><style id="extended-color-scheme" type="text/css">.ExScheme-Black     { color:#3e3e3e; }
      .ExScheme-White     { color:#fcfcfc; }
      .ExScheme-Grey-1    { color:#cfd5d5; }
      .ExScheme-Grey-2    { color:#909c9c; }
      .ExScheme-Grey-3    { color:#536161; }
      .ExScheme-Red-1     { color:#ffafa5; }
      .ExScheme-Red-2     { color:#bf4231; }
      .ExScheme-Red-3     { color:#4d2f2b; }
      .ExScheme-Green-1   { color:#abf9c7; }
      .ExScheme-Green-2   { color:#3bb566; }
      .ExScheme-Green-3   { color:#377d50; }
      .ExScheme-Blue-1    { color:#abdaf9; }
      .ExScheme-Blue-2    { color:#3daefd; }
      .ExScheme-Blue-3    { color:#2b3c4d; }
      .ExScheme-Yellow-1  { color:#faffa5; }
      .ExScheme-Yellow-2  { color:#cac726; }
      .ExScheme-Yellow-3  { color:#4b4d2b; }
      .ExScheme-Orange-1  { color:#ffdaa5; }
      .ExScheme-Orange-2  { color:#ff9701; }
      .ExScheme-Orange-3  { color:#4d372b; }
      .ExScheme-Brown-1   { color:#e9d6bb; }
      .ExScheme-Brown-2   { color:#997657; }
      .ExScheme-Brown-3   { color:#433a35; }
      .ExScheme-Purple-1  { color:#e2abf9; }
      .ExScheme-Purple-2  { color:#b401ff; }
      .ExScheme-Purple-3  { color:#432b4d; }
      .ExScheme-Cyan-1    { color:#b2f2e6; }
      .ExScheme-Cyan-2    { color:#31bfa6; }
      .ExScheme-Cyan-3    { color:#2b4d47; }
      .ExScheme-Magenta-1 { color:#f8a6d8; }
      .ExScheme-Magenta-2 { color:#f00091; }
      .ExScheme-Magenta-3 { color:#770048; }
  </style><linearGradient id="gradientDark"><stop offset="0"/><stop offset="1" stop-opacity="0"/></linearGradient><linearGradient id="gradientLight"><stop offset="0" stop-color="#fff"/><stop offset="1" stop-color="#fff" stop-opacity="0"/></linearGradient><style class="toggle-enable-crease" type="text/css">.folder-crease { display: none; }
  </style><style class="toggle-manilla-folders" type="text/css">.folder-manilla { display: none; }
  </style><radialGradient cx=".5" cy="0" id="gl1" r="1" xlink:href="#gradientLight"/><linearGradient id="gd1" xlink:href="#gradientDark" y1="1" y2=".5"/><path d="m 14,12 c -2.216,0 -4,1.784 -4,4 v 4 8 c -2.216,0 -4,1.784 -4,4 v 48 c 0,2.216 1.784,4 4,4 h 76 c 2.216,0 4,-1.784 4,-4 V 50 32 28 c 0,-2.216 -1.784,-4 -4,-4 v -4 c 0,-2.216 -1.784,-4 -4,-4 H 42 c -6,0 -6,-4 -12,-4 z" id="use-path-6d"/><path d="m 14,12 c -2.216,0 -4,1.784 -4,4 v 4 8 h 20 c 6,0 6,-4 12,-4 h 44 v -4 c 0,-2.216 -1.784,-4 -4,-4 H 42 c -6,0 -6,-4 -12,-4 z" id="use-path-6e"/></defs><g id="content"><use class="folder-manilla ExScheme-Brown-1" fill="currentColor" href="#use-path-6d"/><use class="toggle-manilla-folders ColorScheme-Highlight" fill="currentColor" href="#use-path-6d" id="primary-color"/><use class="ColorScheme-Text" fill="currentColor" href="#use-path-6d" opacity=".1"/><g id="emblem" transform="translate(24,32)"><path class="ColorScheme-Background" d="M 31 9 A 6 6 0 0 0 25 15 A 6 6 0 0 0 31 21 A 6 6 0 0 0 37 15 A 6 6 0 0 0 31 9 z M 17 13 A 6 6 0 0 0 11 19 A 6 6 0 0 0 17 25 A 6 6 0 0 0 23 19 A 6 6 0 0 0 17 13 z M 31 23 C 27.478 23 24.396 24.805 22.615 27.54 C 25.292 29.133 27.234 31.828 27.816 35 L 39 35 C 40.108 35 41 34.108 41 33 C 41 27.46 36.54 23 31 23 z M 17 27 C 11.46 27 7 31.46 7 37 C 7 38.108 7.892 39 9 39 L 25 39 C 26.108 39 27 38.108 27 37 C 27 31.46 22.54 27 17 27 z " fill="currentColor" opacity=".6"/><path class="ColorScheme-Background" d="M 31 9 A 6 6 0 0 0 25 15 A 6 6 0 0 0 31 21 A 6 6 0 0 0 37 15 A 6 6 0 0 0 31 9 z M 31 9.5 C 34.043 9.5 36.5 11.957 36.5 15 C 36.5 18.043 34.043 20.5 31 20.5 C 27.957 20.5 25.5 18.043 25.5 15 C 25.5 11.957 27.957 9.5 31 9.5 z M 17 13 A 6 6 0 0 0 11 19 A 6 6 0 0 0 17 25 A 6 6 0 0 0 23 19 A 6 6 0 0 0 17 13 z M 17 13.5 C 20.043 13.5 22.5 15.957 22.5 19 C 22.5 22.043 20.043 24.5 17 24.5 C 13.957 24.5 11.5 22.043 11.5 19 C 11.5 15.957 13.957 13.5 17 13.5 z M 31 23 C 27.478 23 24.396 24.805 22.615 27.54 C 25.292 29.133 27.234 31.828 27.816 35 L 39 35 C 40.108 35 41 34.108 41 33 C 41 27.46 36.54 23 31 23 z M 31 23.5 C 36.272 23.5 40.5 27.728 40.5 33 C 40.5 33.84 39.84 34.5 39 34.5 L 28.186 34.5 C 27.53 31.563 25.76 29.074 23.334 27.46 C 25.056 25.077 27.817 23.5 31 23.5 z M 17 27 C 11.46 27 7 31.46 7 37 C 7 38.108 7.892 39 9 39 L 25 39 C 26.108 39 27 38.108 27 37 C 27 31.46 22.54 27 17 27 z M 17 27.5 C 22.272 27.5 26.5 31.728 26.5 37 C 26.5 37.84 25.84 38.5 25 38.5 L 9 38.5 C 8.16 38.5 7.5 37.84 7.5 37 C 7.5 31.728 11.728 27.5 17 27.5 z " fill="currentColor" opacity=".6"/></g><use href="#use-path-6e" opacity=".4"/><use class="toggle-flat-design" fill="url(#gd1)" href="#use-path-6e" opacity=".2"/><path class="toggle-flat-design" d="m 42,24 c -6,0 -6,4 -12,4 H 10 c -2.216,0 -4,1.784 -4,4 v 48 c 0,2.216 1.784,4 4,4 h 76 c 2.216,0 4,-1.784 4,-4 V 50 32 28 c 0,-2.216 -1.784,-4 -4,-4 z" fill="url(#gl1)" opacity=".2"/><path class="folder-crease" d="m 6,66 v 3 h 13.5 c 0.831,0 1.5,-.67 1.5,-1.5 0,-0.831 -0.669,-1.5 -1.5,-1.5 z m 70.5,0 c -0.831,0 -1.5,0.669 -1.5,1.5 0,.83 0.669,1.5 1.5,1.5 H 90 v -3 z" opacity=".4"/><path class="ColorScheme-Text" d="m 6,79 v 1 c 0,2.216 1.784,4 4,4 h 76 c 2.216,0 4,-1.784 4,-4 v -1 c 0,2.216 -1.784,4 -4,4 H 10 C 7.784,83 6,81.216 6,79 Z" fill="currentColor" opacity=".1"/><path class="ColorScheme-Text" d="M 6,79.5 V 80 c 0,2.216 1.784,4 4,4 h 76 c 2.216,0 4,-1.784 4,-4 v -0.5 c 0,2.216 -1.784,4 -4,4 H 10 c -2.216,0 -4,-1.784 -4,-4 z" fill="currentColor" opacity=".2"/><path d="m 42,24 c -6,0 -6,4 -12,4 H 10 c -2.216,0 -4,1.784 -4,4 v 1 c 0,-2.216 1.784,-4 4,-4 h 20 c 6,0 6,-4 12,-4 h 44 c 2.216,0 4,1.784 4,4 v -1 c 0,-2.216 -1.784,-4 -4,-4 z" fill="#fff" opacity=".1"/><path d="m 42,24 c -6,0 -6,4 -12,4 H 10 c -2.216,0 -4,1.784 -4,4 v 0.5 c 0,-2.216 1.784,-4 4,-4 h 20 c 6,0 6,-4 12,-4 h 44 c 2.216,0 4,1.784 4,4 V 28 c 0,-2.216 -1.784,-4 -4,-4 z" fill="#fff" opacity=".2"/><path d="m 42,23 c -6,0 -6,4 -12,4 H 10 v 1 h 20 c 6,0 6,-4 12,-4 h 44 v -1 z" opacity=".1"/><path d="m 42,23.5 c -6,0 -6,4 -12,4 H 10 V 28 h 20 c 6,0 6,-4 12,-4 h 44 v -0.5 z" opacity=".2"/></g></svg>