<svg height="96" version="1.1" width="96" xmlns="http://www.w3.org/2000/svg" xmlns:svg="http://www.w3.org/2000/svg" xmlns:xlink="http://www.w3.org/1999/xlink">
<defs id="primary-definitions">
<style id="current-color-scheme" type="text/css">
      .ColorScheme-Text         { color: #232629; }
      .ColorScheme-Background   { color: #eff0f1; }
      .ColorScheme-Highlight    { color: #7ec9f0; }
      .ColorScheme-PositiveText { color: #27ae60; }
      .ColorScheme-NeutralText  { color: #f67400; }
      .ColorScheme-NegativeText { color: #da4453; }
      .ColorScheme-ActiveText   { color: #3daee9; }
      .ColorScheme-Complement   { color: #ffffff; }
      .ColorScheme-Contrast     { color: #000000; }
    </style>
<style id="extended-color-scheme" type="text/css">
      .ExScheme-Black     { color:#3e3e3e; }
      .ExScheme-White     { color:#fcfcfc; }
      .ExScheme-Grey-1    { color:#cfd5d5; }
      .ExScheme-Grey-2    { color:#909c9c; }
      .ExScheme-Grey-3    { color:#536161; }
      .ExScheme-Red-1     { color:#ffafa5; }
      .ExScheme-Red-2     { color:#bf4231; }
      .ExScheme-Red-3     { color:#4d2f2b; }
      .ExScheme-Green-1   { color:#abf9c7; }
      .ExScheme-Green-2   { color:#3bb566; }
      .ExScheme-Green-3   { color:#377d50; }
      .ExScheme-Blue-1    { color:#abdaf9; }
      .ExScheme-Blue-2    { color:#3daefd; }
      .ExScheme-Blue-3    { color:#2b3c4d; }
      .ExScheme-Yellow-1  { color:#faffa5; }
      .ExScheme-Yellow-2  { color:#cac726; }
      .ExScheme-Yellow-3  { color:#4b4d2b; }
      .ExScheme-Orange-1  { color:#ffdaa5; }
      .ExScheme-Orange-2  { color:#ff9701; }
      .ExScheme-Orange-3  { color:#4d372b; }
      .ExScheme-Brown-1   { color:#e9d6bb; }
      .ExScheme-Brown-2   { color:#997657; }
      .ExScheme-Brown-3   { color:#433a35; }
      .ExScheme-Purple-1  { color:#e2abf9; }
      .ExScheme-Purple-2  { color:#b401ff; }
      .ExScheme-Purple-3  { color:#432b4d; }
      .ExScheme-Cyan-1    { color:#b2f2e6; }
      .ExScheme-Cyan-2    { color:#31bfa6; }
      .ExScheme-Cyan-3    { color:#2b4d47; }
      .ExScheme-Magenta-1 { color:#f8a6d8; }
      .ExScheme-Magenta-2 { color:#f00091; }
      .ExScheme-Magenta-3 { color:#770048; }
    </style>
<linearGradient id="uGd">
<stop offset="0"/>
<stop offset="1" stop-opacity="0"/>
</linearGradient>
<linearGradient id="uGe">
<stop offset="0" stop-color="#fff"/>
<stop offset="1" stop-color="#fff" stop-opacity="0"/>
</linearGradient>
<style id="uGf" type="text/css">
        .force-display-for-editing { display: inline !important; }
    </style><style class="remove-if__show-crease" type="text/css">
        .enable-if__show-crease { display: none; }
    </style><style class="remove-if__color-sync-mimes-places" type="text/css">
        .enable-if__color-sync-mimes-places { display: none; }
    </style><radialGradient cx=".5" cy="0" id="uGg" r="1" xlink:href="#uGe"/><linearGradient id="uGh" xlink:href="#uGd" y1="1" y2=".5"/><style class="ColorScheme-Background" fill="currentColor" opacity=".6" type="text/css">
   .ColorScheme-Text           { color:#eff0f1; }
      .ColorScheme-Background     { color:#31363b; }
      .ColorScheme-Highlight      { color:#3daefd; }
      .ColorScheme-ViewBackground { color:#fcfcfc; }
      .ColorScheme-PositiveText   { color:#27ae60; }
      .ColorScheme-NeutralText    { color:#f67400; }
      .ColorScheme-NegativeText   { color:#da4453; }
  </style><path d="m 14,12 c -2.2,0 -4,1.8 -4,4 v 4 8 c -2.2,0 -4,1.8 -4,4 v 48 c 0,2.2 1.8,4 4,4 h 76 c 2.2,0 4,-1.8 4,-4 V 50 32 28 c 0,-2.2 -1.8,-4 -4,-4 v -4 c 0,-2.2 -1.8,-4 -4,-4 H 42 c -6,0 -6,-4 -12,-4 z" id="uGi"></path><path d="m 14,12 c -2.2,0 -4,1.8 -4,4 v 4 8 h 20 c 6,0 6,-4 12,-4 h 44 v -4 c 0,-2.2 -1.8,-4 -4,-4 H 42 c -6,0 -6,-4 -12,-4 z" id="uGj"></path></defs>
<g id="content" transform="translate(0,0)"><use class="sync-color enable-if__color-sync-mimes-places force-display-for-editing ColorScheme-ActiveText" fill="currentColor" href="#uGi"></use><use class="primary-color remove-if__color-sync-mimes-places ColorScheme-ActiveText" fill="currentColor" href="#uGi"></use><use class="ColorScheme-Contrast" fill="currentColor" href="#uGi" opacity=".1"></use><g id="decal" transform="translate(24,32)"><path class="ColorScheme-Background" d="M 14 4 L 14 12 L 6 12 C 4.9 12 4 12.9 4 14 L 4 34 C 4 35.1 4.9 36 6 36 L 14 36 L 14 44 L 34 44 L 34 36 L 42 36 C 43.1 36 44 35.1 44 34 L 44 14 C 44 12.9 43.1 12 42 12 L 34 12 L 34 4 L 14 4 z M 15 5 L 33 5 L 33 15 L 15 15 L 15 5 z M 6 13 L 12 13 L 12 15 C 12 15.55 12.45 16 13 16 L 35 16 C 35.55 16 36 15.55 36 15 L 36 13 L 42 13 C 42.55 13 43 13.45 43 14 L 43 34 C 43 34.55 42.55 35 42 35 L 36 35 L 36 28 C 36 27.45 35.55 27 35 27 L 13 27 C 12.45 27 12 27.45 12 28 L 12 35 L 6 35 C 5.45 35 5 34.55 5 34 L 5 14 C 5 13.45 5.45 13 6 13 z M 36 23 A 1 1 0 0 0 35 24 A 1 1 0 0 0 36 25 A 1 1 0 0 0 37 24 A 1 1 0 0 0 36 23 z M 40 23 A 1 1 0 0 0 39 24 A 1 1 0 0 0 40 25 A 1 1 0 0 0 41 24 A 1 1 0 0 0 40 23 z M 15 32 L 33 32 L 33 43 L 15 43 L 15 32 z " fill="currentColor" opacity=".6" stop-color="#000000"/><path class="ColorScheme-Background" d="M 21 34 L 21 35 L 32 35 L 32 34 L 21 34 z M 26 37 L 26 38 L 32 38 L 32 37 L 26 37 z M 23 40 L 23 41 L 32 41 L 32 40 L 23 40 z " fill="currentColor" opacity=".6" stop-color="#000000"/><path class="ColorScheme-Background" d="m 21,34 v 1 h 11 v -1 z m 5,3 v 1 h 6 v -1 z m -3,3 v 1 h 9 v -1 z" fill="currentColor" opacity=".6" stop-color="#000000"/><path class="ColorScheme-Background" d="m 14,4 v 8 H 6 c -1.1,0 -2,.9 -2,2 v 20 c 0,1.1 .9,2 2,2 h 8 v 8 h 20 v -8 h 8 c 1.1,0 2,-.9 2,-2 V 14 c 0,-1.1 -.9,-2 -2,-2 H 34 V 4 Z m 1,1 H 33 V 15 H 15 Z m -0.5,7 v 3 c 2.8e-5,.3 .2,.5 0.5,0.5 h -2 c -.3,0 -0.5,-.2 -0.5,-0.5 v -2 c -2.8e-5,-.3 -.2,-.5 -0.5,-0.5 h 2 c .3,-2.8e-5 .5,-.2 0.5,-0.5 z m 19,0 c 2.8e-5,.3 .2,.5 0.5,0.5 h 2 c -.3,2.8e-5 -.5,.2 -0.5,0.5 v 2 c 0,.3 -.2,0.5 -0.5,0.5 h -2 c .3,-2.8e-5 .5,-.2 0.5,-0.5 z M 6,13 h 6 v 2 c 0,.55 .45,1 1,1 h 22 c .55,0 1,-.45 1,-1 v -2 h 6 c .55,0 1,.45 1,1 v 20 c 0,.55 -.45,1 -1,1 h -6 v -7 c 0,-.55 -.45,-1 -1,-1 H 13 c -.55,0 -1,.45 -1,1 v 7 H 6 C 5.45,35 5,34.55 5,34 V 14 c 0,-.55 .45,-1 1,-1 z m 30,10 c -.55,0 -1,.45 -1,1 0,.55 .45,1 1,1 .55,0 1,-.45 1,-1 0,-.55 -.45,-1 -1,-1 z m 4,0 c -.55,0 -1,.45 -1,1 0,.55 .45,1 1,1 .55,0 1,-.45 1,-1 0,-.55 -.45,-1 -1,-1 z m -4,0.5 c .3,0 0.5,.2 0.5,0.5 0,.3 -.2,0.5 -0.5,0.5 -.3,0 -0.5,-.2 -0.5,-0.5 0,-.3 .2,-0.5 0.5,-0.5 z m 4,0 c .3,0 0.5,.2 0.5,0.5 0,.3 -.2,0.5 -0.5,0.5 -.3,0 -0.5,-.2 -0.5,-0.5 0,-.3 .2,-0.5 0.5,-0.5 z m -27,4 h 22 c .3,0 0.5,.2 0.5,0.5 v 7 c 2.8e-5,.3 .2,.5 0.5,0.5 h -2 c -.3,2.8e-5 -.5,.2 -0.5,0.5 V 32 C 33.5,31.7 33.3,31.5 33,31.5 H 15 c -.3,2.8e-5 -.5,.2 -0.5,0.5 v 4 c -2.8e-5,-.3 -.2,-.5 -0.5,-0.5 h -2 c .3,-2.8e-5 .5,-.2 0.5,-0.5 v -7 c 0,-.3 .2,-0.5 0.5,-0.5 z M 15,32 H 33 V 43 H 15 Z" fill="currentColor" opacity=".6"/></g><use href="#uGj" opacity=".4"></use><use fill="url(#uGh)" href="#uGj" opacity=".2"></use><path d="m 42,24 c -6,0 -6,4 -12,4 H 10 c -2.2,0 -4,1.8 -4,4 v 48 c 0,2.2 1.8,4 4,4 h 76 c 2.2,0 4,-1.8 4,-4 V 50 32 28 c 0,-2.2 -1.8,-4 -4,-4 z" fill="url(#uGg)" opacity=".2"/><path class="ColorScheme-Contrast" d="m 6,79 v 1 c 0,2.2 1.8,4 4,4 h 76 c 2.2,0 4,-1.8 4,-4 v -1 c 0,2.2 -1.8,4 -4,4 H 10 C 7.8,83 6,81.2 6,79 Z" fill="currentColor" opacity=".1"/><path class="ColorScheme-Contrast" d="M 6,79.5 V 80 c 0,2.2 1.8,4 4,4 h 76 c 2.2,0 4,-1.8 4,-4 v -0.5 c 0,2.2 -1.8,4 -4,4 H 10 c -2.2,0 -4,-1.8 -4,-4 z" fill="currentColor" opacity=".2"/><path d="m 42,24 c -6,0 -6,4 -12,4 H 10 c -2.2,0 -4,1.8 -4,4 v 1 c 0,-2.2 1.8,-4 4,-4 h 20 c 6,0 6,-4 12,-4 h 44 c 2.2,0 4,1.8 4,4 v -1 c 0,-2.2 -1.8,-4 -4,-4 z" fill="#fff" opacity=".1"/><path d="m 42,24 c -6,0 -6,4 -12,4 H 10 c -2.2,0 -4,1.8 -4,4 v 0.5 c 0,-2.2 1.8,-4 4,-4 h 20 c 6,0 6,-4 12,-4 h 44 c 2.2,0 4,1.8 4,4 V 28 c 0,-2.2 -1.8,-4 -4,-4 z" fill="#fff" opacity=".2"/><path d="m 42,23 c -6,0 -6,4 -12,4 H 10 v 1 h 20 c 6,0 6,-4 12,-4 h 44 v -1 z" opacity=".1"/><path d="m 42,23.5 c -6,0 -6,4 -12,4 H 10 V 28 h 20 c 6,0 6,-4 12,-4 h 44 v -0.5 z" opacity=".2"/></g>
</svg>