<svg height="96" version="1.1" width="96" xmlns="http://www.w3.org/2000/svg" xmlns:svg="http://www.w3.org/2000/svg" xmlns:xlink="http://www.w3.org/1999/xlink">
<defs id="primary-definitions">
<style id="current-color-scheme" type="text/css">
      .ColorScheme-Text         { color: #232629; }
      .ColorScheme-Background   { color: #eff0f1; }
      .ColorScheme-Highlight    { color: #7ec9f0; }
      .ColorScheme-PositiveText { color: #27ae60; }
      .ColorScheme-NeutralText  { color: #f67400; }
      .ColorScheme-NegativeText { color: #da4453; }
      .ColorScheme-ActiveText   { color: #3daee9; }
      .ColorScheme-Complement   { color: #ffffff; }
      .ColorScheme-Contrast     { color: #000000; }
    </style>
<style id="extended-color-scheme" type="text/css">
      .ExScheme-Black     { color:#3e3e3e; }
      .ExScheme-White     { color:#fcfcfc; }
      .ExScheme-Grey-1    { color:#cfd5d5; }
      .ExScheme-Grey-2    { color:#909c9c; }
      .ExScheme-Grey-3    { color:#536161; }
      .ExScheme-Red-1     { color:#ffafa5; }
      .ExScheme-Red-2     { color:#bf4231; }
      .ExScheme-Red-3     { color:#4d2f2b; }
      .ExScheme-Green-1   { color:#abf9c7; }
      .ExScheme-Green-2   { color:#3bb566; }
      .ExScheme-Green-3   { color:#377d50; }
      .ExScheme-Blue-1    { color:#abdaf9; }
      .ExScheme-Blue-2    { color:#3daefd; }
      .ExScheme-Blue-3    { color:#2b3c4d; }
      .ExScheme-Yellow-1  { color:#faffa5; }
      .ExScheme-Yellow-2  { color:#cac726; }
      .ExScheme-Yellow-3  { color:#4b4d2b; }
      .ExScheme-Orange-1  { color:#ffdaa5; }
      .ExScheme-Orange-2  { color:#ff9701; }
      .ExScheme-Orange-3  { color:#4d372b; }
      .ExScheme-Brown-1   { color:#e9d6bb; }
      .ExScheme-Brown-2   { color:#997657; }
      .ExScheme-Brown-3   { color:#433a35; }
      .ExScheme-Purple-1  { color:#e2abf9; }
      .ExScheme-Purple-2  { color:#b401ff; }
      .ExScheme-Purple-3  { color:#432b4d; }
      .ExScheme-Cyan-1    { color:#b2f2e6; }
      .ExScheme-Cyan-2    { color:#31bfa6; }
      .ExScheme-Cyan-3    { color:#2b4d47; }
      .ExScheme-Magenta-1 { color:#f8a6d8; }
      .ExScheme-Magenta-2 { color:#f00091; }
      .ExScheme-Magenta-3 { color:#770048; }
    </style>
<linearGradient id="ukL">
<stop offset="0"/>
<stop offset="1" stop-opacity="0"/>
</linearGradient>
<linearGradient id="ukM">
<stop offset="0" stop-color="#fff"/>
<stop offset="1" stop-color="#fff" stop-opacity="0"/>
</linearGradient>
<style id="ukN" type="text/css">
        .force-display-for-editing { display: inline !important; }
    </style><style class="remove-if__show-crease" type="text/css">
        .enable-if__show-crease { display: none; }
    </style><style class="remove-if__color-sync-mimes-places" type="text/css">
        .enable-if__color-sync-mimes-places { display: none; }
    </style><radialGradient cx=".5" cy="0" id="ukO" r="1" xlink:href="#ukM"/><linearGradient id="ukP" xlink:href="#ukL" y1="1" y2=".5"/><style class="ColorScheme-Background" fill="currentColor" opacity=".6" type="text/css">
   .ColorScheme-Text           { color:#eff0f1; }
      .ColorScheme-Background     { color:#31363b; }
      .ColorScheme-Highlight      { color:#3daefd; }
      .ColorScheme-ViewBackground { color:#fcfcfc; }
      .ColorScheme-PositiveText   { color:#27ae60; }
      .ColorScheme-NeutralText    { color:#f67400; }
      .ColorScheme-NegativeText   { color:#da4453; }
  </style><path d="m 14,12 c -2.2,0 -4,1.8 -4,4 v 4 8 c -2.2,0 -4,1.8 -4,4 v 48 c 0,2.2 1.8,4 4,4 h 76 c 2.2,0 4,-1.8 4,-4 V 50 32 28 c 0,-2.2 -1.8,-4 -4,-4 v -4 c 0,-2.2 -1.8,-4 -4,-4 H 42 c -6,0 -6,-4 -12,-4 z" id="ukQ"></path><path d="m 14,12 c -2.2,0 -4,1.8 -4,4 v 4 8 h 20 c 6,0 6,-4 12,-4 h 44 v -4 c 0,-2.2 -1.8,-4 -4,-4 H 42 c -6,0 -6,-4 -12,-4 z" id="ukR"></path></defs>
<g id="content" transform="translate(0,0)"><use class="sync-color enable-if__color-sync-mimes-places force-display-for-editing ColorScheme-ActiveText" fill="currentColor" href="#ukQ"></use><use class="primary-color remove-if__color-sync-mimes-places ColorScheme-ActiveText" fill="currentColor" href="#ukQ"></use><use class="ColorScheme-Contrast" fill="currentColor" href="#ukQ" opacity=".1"></use><g id="decal" transform="translate(24,32)"><path class="ColorScheme-Background" d="M 9.06 2.95 C 8.4 2.95 7.8 3.5 7.8 4.2 L 7.8 43.77 C 7.8 44.44 8.4 45 9.06 45 L 39.86 45 C 40.53 45 41.1 44.44 41.1 43.77 L 41.1 13.05 L 40.97 12.93 L 31.1 2.95 L 9.06 2.95 z M 9.06 3.8 L 30.5 3.8 L 30.5 10.9 C 30.5 12.4 31.7 13.6 33.2 13.6 L 40.2 13.6 L 40.2 43.77 C 40.2 44 40.07 44.13 39.86 44.13 L 9.06 44.13 C 8.84 44.13 8.7 44 8.7 43.77 L 8.7 4.2 C 8.7 3.97 8.84 3.8 9.06 3.8 z M 12.2 7.7 C 11.5 7.7 10.97 8.2 10.97 8.9 C 10.97 9.55 11.5 10.1 12.2 10.1 L 22.27 10.1 C 22.93 10.1 23.47 9.55 23.47 8.9 C 23.47 8.2 22.93 7.7 22.27 7.7 L 12.2 7.7 z M 12.2 13.06 C 11.5 13.06 10.97 13.6 10.97 14.27 C 10.97 14.93 11.5 15.47 12.2 15.47 L 26.3 15.47 C 27 15.47 27.5 14.93 27.5 14.27 C 27.5 13.6 27 13.06 26.3 13.06 L 12.2 13.06 z M 12.3 18.44 C 11.6 18.44 10.97 19.05 10.97 19.8 L 10.97 26.93 C 10.97 27.67 11.6 28.3 12.3 28.3 L 25.5 28.3 C 26.25 28.3 26.86 27.67 26.86 26.93 L 26.86 19.8 C 26.86 19.05 26.25 18.44 25.5 18.44 L 12.3 18.44 z M 12.2 19.45 L 12.17 19.5 L 12.2 19.5 C 12.14 19.5 12.1 19.55 12.03 19.6 C 12.1 19.5 12.14 19.47 12.2 19.45 z M 29.96 19.5 C 29.4 19.5 28.97 19.9 28.97 20.47 L 28.97 20.9 C 28.97 21.45 29.4 21.9 29.96 21.9 L 37.5 21.9 C 38.03 21.9 38.47 21.45 38.47 20.9 L 38.47 20.47 C 38.47 19.9 38.03 19.5 37.5 19.5 L 29.96 19.5 z M 12.3 19.5 L 25.5 19.5 C 25.7 19.5 25.8 19.6 25.8 19.8 L 25.8 25.8 L 21.8 21.8 C 21.53 21.55 21.2 21.4 20.84 21.4 C 20.5 21.4 20.15 21.55 19.9 21.8 L 14.4 27.23 L 14.3 27.23 L 17.9 23.64 L 17 22.7 C 16.7 22.45 16.4 22.3 16.03 22.3 C 15.7 22.3 15.35 22.46 15.1 22.7 L 15.1 22.7 L 15.1 22.7 L 12 25.8 L 12 19.8 C 12 19.6 12.15 19.5 12.3 19.5 z M 13.7 19.54 C 13.1 19.54 12.6 20 12.6 20.6 C 12.6 21.2 13.1 21.7 13.7 21.7 C 14.3 21.7 14.77 21.2 14.77 20.6 C 14.77 20 14.3 19.54 13.7 19.54 z M 29.96 25.06 C 29.4 25.06 28.97 25.5 28.97 26.04 L 28.97 26.5 C 28.97 27 29.4 27.46 29.96 27.46 L 36 27.46 C 36.54 27.46 37 27 37 26.5 L 37 26.04 C 37 25.5 36.54 25.06 36 25.06 L 29.96 25.06 z M 12.2 31.25 C 11.5 31.25 10.97 31.8 10.97 32.46 C 10.97 33.1 11.5 33.66 12.2 33.66 L 33.36 33.66 C 34 33.66 34.56 33.1 34.56 32.46 C 34.56 31.8 34 31.25 33.36 31.25 L 12.2 31.25 z M 11.8 36.63 C 11.36 36.63 10.97 37 10.97 37.5 L 10.97 38.2 C 10.97 38.66 11.36 39.04 11.8 39.04 L 25.1 39.04 C 25.6 39.04 25.96 38.66 25.96 38.2 L 25.96 37.5 C 25.96 37 25.6 36.63 25.1 36.63 L 11.8 36.63 z M 28.06 36.63 C 27.6 36.63 27.2 37 27.2 37.5 L 27.2 38.2 C 27.2 38.66 27.6 39.04 28.06 39.04 L 36.4 39.04 C 36.77 39.04 37.15 38.66 37.15 38.2 L 37.15 37.5 C 37.15 37 36.77 36.63 36.4 36.63 L 28.06 36.63 z " fill="currentColor" opacity=".6"/><path class="ColorScheme-Background" d="m 9.06,2.94 c -.7,0 -1.24,.56 -1.24,1.24 V 43.76 c 0,.7 .56,1.24 1.24,1.24 H 39.86 c .7,0 1.24,-.56 1.24,-1.24 V 13.04 L 40.97,12.9 31.1,2.94 Z m 0,.87 H 30.5 v 7.07 c 0,1.5 1.2,2.7 2.73,2.7 h 7 v 30.16 c 0,.2 -.16,.37 -.37,.37 H 9.06 c -.2,0 -.37,-.16 -.37,-.37 V 4.2 c 0,-.2 .15,-.37 .37,-.37 z m 22.3,.6 8.3,8.3 h -6.35 c -1.04,0 -1.86,-.8 -1.86,-1.85 z M 12.2,7.67 c -.66,0 -1.2,.54 -1.2,1.2 0,.66 .54,1.2 1.2,1.2 h 10.1 c .66,0 1.2,-.54 1.2,-1.2 0,-.66 -.54,-1.2 -1.2,-1.2 z m 0,.5 h 10.1 c .4,0 .7,.3 .7,.7 0,.4 -.3,.7 -.7,.7 h -10.1 c -.4,0 -.7,-.3 -.7,-.7 0,-.4 .3,-.7 .7,-.7 z m 0,4.9 c -.66,0 -1.2,.54 -1.2,1.2 0,.66 .54,1.2 1.2,1.2 H 26.3 c .66,0 1.2,-.54 1.2,-1.2 0,-.66 -.54,-1.2 -1.2,-1.2 z m 0,.5 H 26.3 c .4,0 .7,.3 .7,.7 0,.4 -.3,.7 -.7,.7 H 12.2 c -.4,0 -.7,-.3 -.7,-.7 0,-.4 .3,-.7 .7,-.7 z m .14,4.9 c -.74,0 -1.35,.6 -1.35,1.35 v 7.14 c 0,.74 .6,1.35 1.35,1.35 h 13.2 c .74,0 1.35,-.6 1.35,-1.35 V 19.8 c 0,-.74 -.6,-1.35 -1.35,-1.35 z m 0,.5 h 13.2 c .5,0 .85,.37 .85,.85 v 7.14 c 0,.5 -.37,.85 -.85,.85 h -13.2 c -.5,0 -.85,-.37 -.85,-.85 V 19.8 c 0,-.5 .37,-.85 .85,-.85 z m 0,.05 c -.44,0 -.8,.36 -.8,.8 v 7.2 L 15.43,23.06 c .2,-.17 .4,-.25 .6,-0.25 .2,-9.33e-4 .43,.1 .6,.25 l .56,.57 -4.2,4.2 h 1.53 l 5.6,-5.57 c .17,-.17 .4,-.25 .6,-.25 .2,1.9e-5 .43,.1 .6,.25 l 4.87,4.8 V 19.8 c 0,-.44 -.36,-.8 -.8,-.8 z m -.1,.46 -.04,.04 h .04 c -.06,.03 -.1,.06 -.17,.1 .04,-.06 .1,-.1 .2,-.13 z m 17.75,.03 c -.54,0 -1,.45 -1,1 v .43 c 0,.54 .44,1 1,1 h 7.53 c .54,0 1,-.44 1,-1 v -.43 c 0,-.54 -.44,-1 -1,-1 z m -17.63,0 h 13.2 c .17,0 .3,.13 .3,.3 v 6 l -4,-4 -0,-0 h -.03 -0 c -.26,-.24 -.6,-.4 -.9,-.4 -.34,-2.9e-5 -.7,.13 -.95,.4 l -5.47,5.4 h -.1 l 3.6,-3.6 -.9,-.9 c -.26,-.26 -.6,-.4 -.95,-.4 -.34,0 -.7,.14 -.95,.4 h -0 v 0 l -3.06,3.06 V 19.8 c 0,-.17 .13,-.3 .3,-.3 z m 1.4,.05 c -.6,0 -1.07,.5 -1.07,1.07 0,.6 .5,1.07 1.07,1.07 .6,0 1.07,-.5 1.07,-1.07 0,-.6 -.5,-1.07 -1.07,-1.07 z m 16.26,.44 h 7.53 c .3,0 .5,.2 .5,.5 v .43 c 0,.3 -.2,.5 -.5,.5 h -7.53 c -.3,0 -.5,-.2 -.5,-.5 v -.43 c 0,-.3 .2,-.5 .5,-.5 z m -16.26,.06 c .3,0 .57,.26 .57,.6 0,.3 -.25,.6 -.57,.6 -.3,0 -.57,-.26 -.57,-.6 0,-.3 .25,-.6 .57,-.6 z m 16.26,5 c -.54,0 -1,.44 -1,1 v .43 c 0,.54 .44,1 1,1 H 36 c .54,0 1,-.44 1,-1 v -.43 c 0,-.54 -.44,-1 -1,-1 z m 0,.5 H 36 c .3,0 .5,.2 .5,.5 v .43 c 0,.3 -.2,.5 -.5,.5 h -6.04 c -.3,0 -.5,-.2 -.5,-.5 v -.43 c 0,-.3 .2,-.5 .5,-.5 z m -17.8,5.7 c -.66,0 -1.2,.54 -1.2,1.2 0,.66 .54,1.2 1.2,1.2 h 21.2 c .66,0 1.2,-.54 1.2,-1.2 0,-.66 -.54,-1.2 -1.2,-1.2 z m 0,.5 h 21.2 c .4,0 .7,.3 .7,.7 0,.4 -.3,.7 -.7,.7 H 12.2 c -.4,0 -.7,-.3 -.7,-.7 0,-.4 .3,-.7 .7,-.7 z M 11.8,36.6 c -.47,0 -.85,.4 -.85,.85 v .7 c 0,.47 .4,.85 .85,.85 h 13.3 c .47,0 .85,-.4 .85,-.85 v -.7 c 0,-.47 -.4,-.85 -.85,-.85 z m 16.23,0 c -.47,0 -.85,.4 -.85,.85 v .7 c 0,.47 .4,.85 .85,.85 h 8.25 c .47,0 .85,-.4 .85,-.85 v -.7 c 0,-.47 -.4,-.85 -.85,-.85 z m -16.23,.5 h 13.3 c .2,0 .35,.15 .35,.35 v .7 c 0,.2 -.15,.35 -.35,.35 h -13.3 c -.2,0 -.35,-.15 -.35,-.35 v -.7 c 0,-.2 .15,-.35 .35,-.35 z m 16.23,0 h 8.25 c .2,0 .35,.15 .35,.35 v .7 c 0,.2 -.15,.35 -.35,.35 h -8.25 c -.2,0 -.35,-.15 -.35,-.35 v -.7 c 0,-.2 .15,-.35 .35,-.35 z" fill="currentColor" opacity=".6"/></g><use href="#ukR" opacity=".4"></use><use fill="url(#ukP)" href="#ukR" opacity=".2"></use><path d="m 42,24 c -6,0 -6,4 -12,4 H 10 c -2.2,0 -4,1.8 -4,4 v 48 c 0,2.2 1.8,4 4,4 h 76 c 2.2,0 4,-1.8 4,-4 V 50 32 28 c 0,-2.2 -1.8,-4 -4,-4 z" fill="url(#ukO)" opacity=".2"/><path class="ColorScheme-Contrast" d="m 6,79 v 1 c 0,2.2 1.8,4 4,4 h 76 c 2.2,0 4,-1.8 4,-4 v -1 c 0,2.2 -1.8,4 -4,4 H 10 C 7.8,83 6,81.2 6,79 Z" fill="currentColor" opacity=".1"/><path class="ColorScheme-Contrast" d="M 6,79.5 V 80 c 0,2.2 1.8,4 4,4 h 76 c 2.2,0 4,-1.8 4,-4 v -0.5 c 0,2.2 -1.8,4 -4,4 H 10 c -2.2,0 -4,-1.8 -4,-4 z" fill="currentColor" opacity=".2"/><path d="m 42,24 c -6,0 -6,4 -12,4 H 10 c -2.2,0 -4,1.8 -4,4 v 1 c 0,-2.2 1.8,-4 4,-4 h 20 c 6,0 6,-4 12,-4 h 44 c 2.2,0 4,1.8 4,4 v -1 c 0,-2.2 -1.8,-4 -4,-4 z" fill="#fff" opacity=".1"/><path d="m 42,24 c -6,0 -6,4 -12,4 H 10 c -2.2,0 -4,1.8 -4,4 v 0.5 c 0,-2.2 1.8,-4 4,-4 h 20 c 6,0 6,-4 12,-4 h 44 c 2.2,0 4,1.8 4,4 V 28 c 0,-2.2 -1.8,-4 -4,-4 z" fill="#fff" opacity=".2"/><path d="m 42,23 c -6,0 -6,4 -12,4 H 10 v 1 h 20 c 6,0 6,-4 12,-4 h 44 v -1 z" opacity=".1"/><path d="m 42,23.5 c -6,0 -6,4 -12,4 H 10 V 28 h 20 c 6,0 6,-4 12,-4 h 44 v -0.5 z" opacity=".2"/></g>
</svg>