<svg height="96" version="1.1" width="96" xmlns="http://www.w3.org/2000/svg" xmlns:svg="http://www.w3.org/2000/svg" xmlns:xlink="http://www.w3.org/1999/xlink">
<defs id="primary-definitions">
<style id="current-color-scheme" type="text/css">
      .ColorScheme-Text         { color: #232629; }
      .ColorScheme-Background   { color: #eff0f1; }
      .ColorScheme-Highlight    { color: #7ec9f0; }
      .ColorScheme-PositiveText { color: #27ae60; }
      .ColorScheme-NeutralText  { color: #f67400; }
      .ColorScheme-NegativeText { color: #da4453; }
      .ColorScheme-ActiveText   { color: #3daee9; }
      .ColorScheme-Complement   { color: #ffffff; }
      .ColorScheme-Contrast     { color: #000000; }
    </style>
<style id="extended-color-scheme" type="text/css">
      .ExScheme-Black     { color:#3e3e3e; }
      .ExScheme-White     { color:#fcfcfc; }
      .ExScheme-Grey-1    { color:#cfd5d5; }
      .ExScheme-Grey-2    { color:#909c9c; }
      .ExScheme-Grey-3    { color:#536161; }
      .ExScheme-Red-1     { color:#ffafa5; }
      .ExScheme-Red-2     { color:#bf4231; }
      .ExScheme-Red-3     { color:#4d2f2b; }
      .ExScheme-Green-1   { color:#abf9c7; }
      .ExScheme-Green-2   { color:#3bb566; }
      .ExScheme-Green-3   { color:#377d50; }
      .ExScheme-Blue-1    { color:#abdaf9; }
      .ExScheme-Blue-2    { color:#3daefd; }
      .ExScheme-Blue-3    { color:#2b3c4d; }
      .ExScheme-Yellow-1  { color:#faffa5; }
      .ExScheme-Yellow-2  { color:#cac726; }
      .ExScheme-Yellow-3  { color:#4b4d2b; }
      .ExScheme-Orange-1  { color:#ffdaa5; }
      .ExScheme-Orange-2  { color:#ff9701; }
      .ExScheme-Orange-3  { color:#4d372b; }
      .ExScheme-Brown-1   { color:#e9d6bb; }
      .ExScheme-Brown-2   { color:#997657; }
      .ExScheme-Brown-3   { color:#433a35; }
      .ExScheme-Purple-1  { color:#e2abf9; }
      .ExScheme-Purple-2  { color:#b401ff; }
      .ExScheme-Purple-3  { color:#432b4d; }
      .ExScheme-Cyan-1    { color:#b2f2e6; }
      .ExScheme-Cyan-2    { color:#31bfa6; }
      .ExScheme-Cyan-3    { color:#2b4d47; }
      .ExScheme-Magenta-1 { color:#f8a6d8; }
      .ExScheme-Magenta-2 { color:#f00091; }
      .ExScheme-Magenta-3 { color:#770048; }
    </style>
<linearGradient id="u8y">
<stop offset="0"/>
<stop offset="1" stop-opacity="0"/>
</linearGradient>
<linearGradient id="u8z">
<stop offset="0" stop-color="#fff"/>
<stop offset="1" stop-color="#fff" stop-opacity="0"/>
</linearGradient>
<style id="u8A" type="text/css">
        .force-display-for-editing { display: inline !important; }
    </style><style class="remove-if__show-crease" type="text/css">
        .enable-if__show-crease { display: none; }
    </style><style class="remove-if__color-sync-mimes-places" type="text/css">
        .enable-if__color-sync-mimes-places { display: none; }
    </style><radialGradient cx=".5" cy="0" id="u8B" r="1" xlink:href="#u8z"/><linearGradient id="u8C" xlink:href="#u8y" y1="1" y2=".5"/><style class="ColorScheme-Background" fill="currentColor" opacity=".6" type="text/css">
   .ColorScheme-Text           { color:#eff0f1; }
      .ColorScheme-Background     { color:#31363b; }
      .ColorScheme-Highlight      { color:#3daefd; }
      .ColorScheme-ViewBackground { color:#fcfcfc; }
      .ColorScheme-PositiveText   { color:#27ae60; }
      .ColorScheme-NeutralText    { color:#f67400; }
      .ColorScheme-NegativeText   { color:#da4453; }
  </style><path d="m 14,12 c -2.2,0 -4,1.8 -4,4 v 4 8 c -2.2,0 -4,1.8 -4,4 v 48 c 0,2.2 1.8,4 4,4 h 76 c 2.2,0 4,-1.8 4,-4 V 50 32 28 c 0,-2.2 -1.8,-4 -4,-4 v -4 c 0,-2.2 -1.8,-4 -4,-4 H 42 c -6,0 -6,-4 -12,-4 z" id="u8D"></path><path d="m 14,12 c -2.2,0 -4,1.8 -4,4 v 4 8 h 20 c 6,0 6,-4 12,-4 h 44 v -4 c 0,-2.2 -1.8,-4 -4,-4 H 42 c -6,0 -6,-4 -12,-4 z" id="u8E"></path></defs>
<g id="content" transform="translate(0,0)"><use class="sync-color enable-if__color-sync-mimes-places force-display-for-editing ColorScheme-ActiveText" fill="currentColor" href="#u8D"></use><use class="primary-color remove-if__color-sync-mimes-places ColorScheme-ActiveText" fill="currentColor" href="#u8D"></use><use class="ColorScheme-Contrast" fill="currentColor" href="#u8D" opacity=".1"></use><g id="decal" transform="translate(24,32)"><path class="ColorScheme-Background" d="M 19.3,9 12,23.65 9.2,18 H 3 v 3 h 4.3 l 3,6 h 3.35 L 21.2,12 H 42 v 3 h 3 V 9 Z M 33,15 c -3.3,0 -6,2.7 -6,6 0,3.3 2.7,6 6,6 1.05,-0 2.1,-.3 3,-.8 V 27 h 3 v -6 -6 h -3 v .8 C 35.1,15.3 34.05,15 33,15 Z m 0,3 c 1.66,0 3,1.34 3,3 0,1.66 -1.34,3 -3,3 -1.66,0 -3,-1.34 -3,-3 0,-1.66 1.34,-3 3,-3 z M 3,30 v 3 h 42 v -3 z m 18,6 v 3 h 6 v -3 z" fill="currentColor" opacity=".6"/><path class="ColorScheme-Background" d="M 19.3 9 L 12 23.65 L 9.2 18 L 3 18 L 3 21 L 7.3 21 L 10.3 27 L 13.7 27 L 21.2 12 L 42 12 L 42 15 L 45 15 L 45 9 L 19.3 9 z M 19.63 9.5 L 44.5 9.5 L 44.5 14.5 L 42.5 14.5 L 42.5 11.5 L 20.87 11.5 L 13.37 26.5 L 10.63 26.5 L 7.63 20.5 L 3.5 20.5 L 3.5 18.5 L 8.87 18.5 L 12 24.76 L 19.63 9.5 z M 33 15 C 29.7 15 27 17.7 27 21 C 27 24.3 29.7 27 33 27 C 34.05 27 35.1 26.7 36 26.2 L 36 27 L 39 27 L 39 21 L 39 15 L 36 15 L 36 15.8 C 35.1 15.3 34.05 15 33 15 z M 33 15.5 C 33.97 15.5 34.9 15.76 35.75 16.24 L 36.5 16.7 L 36.5 15.5 L 38.5 15.5 L 38.5 21 L 38.5 26.5 L 36.5 26.5 L 36.5 25.3 L 35.75 25.75 C 34.9 26.24 33.97 26.5 33 26.5 C 29.96 26.5 27.5 24.04 27.5 21 C 27.5 17.96 29.96 15.5 33 15.5 z M 33 17.5 C 31.07 17.5 29.5 19.07 29.5 21 C 29.5 22.93 31.07 24.5 33 24.5 C 34.93 24.5 36.5 22.93 36.5 21 C 36.5 19.07 34.93 17.5 33 17.5 z M 33 18 C 34.66 18 36 19.34 36 21 C 36 22.66 34.66 24 33 24 C 31.34 24 30 22.66 30 21 C 30 19.34 31.34 18 33 18 z M 3 30 L 3 33 L 45 33 L 45 30 L 3 30 z M 3.5 30.5 L 44.5 30.5 L 44.5 32.5 L 3.5 32.5 L 3.5 30.5 z M 21 36 L 21 39 L 27 39 L 27 36 L 21 36 z M 21.5 36.5 L 26.5 36.5 L 26.5 38.5 L 21.5 38.5 L 21.5 36.5 z " fill="currentColor" opacity=".6"/></g><use href="#u8E" opacity=".4"></use><use fill="url(#u8C)" href="#u8E" opacity=".2"></use><path d="m 42,24 c -6,0 -6,4 -12,4 H 10 c -2.2,0 -4,1.8 -4,4 v 48 c 0,2.2 1.8,4 4,4 h 76 c 2.2,0 4,-1.8 4,-4 V 50 32 28 c 0,-2.2 -1.8,-4 -4,-4 z" fill="url(#u8B)" opacity=".2"/><path class="ColorScheme-Contrast" d="m 6,79 v 1 c 0,2.2 1.8,4 4,4 h 76 c 2.2,0 4,-1.8 4,-4 v -1 c 0,2.2 -1.8,4 -4,4 H 10 C 7.8,83 6,81.2 6,79 Z" fill="currentColor" opacity=".1"/><path class="ColorScheme-Contrast" d="M 6,79.5 V 80 c 0,2.2 1.8,4 4,4 h 76 c 2.2,0 4,-1.8 4,-4 v -0.5 c 0,2.2 -1.8,4 -4,4 H 10 c -2.2,0 -4,-1.8 -4,-4 z" fill="currentColor" opacity=".2"/><path d="m 42,24 c -6,0 -6,4 -12,4 H 10 c -2.2,0 -4,1.8 -4,4 v 1 c 0,-2.2 1.8,-4 4,-4 h 20 c 6,0 6,-4 12,-4 h 44 c 2.2,0 4,1.8 4,4 v -1 c 0,-2.2 -1.8,-4 -4,-4 z" fill="#fff" opacity=".1"/><path d="m 42,24 c -6,0 -6,4 -12,4 H 10 c -2.2,0 -4,1.8 -4,4 v 0.5 c 0,-2.2 1.8,-4 4,-4 h 20 c 6,0 6,-4 12,-4 h 44 c 2.2,0 4,1.8 4,4 V 28 c 0,-2.2 -1.8,-4 -4,-4 z" fill="#fff" opacity=".2"/><path d="m 42,23 c -6,0 -6,4 -12,4 H 10 v 1 h 20 c 6,0 6,-4 12,-4 h 44 v -1 z" opacity=".1"/><path d="m 42,23.5 c -6,0 -6,4 -12,4 H 10 V 28 h 20 c 6,0 6,-4 12,-4 h 44 v -0.5 z" opacity=".2"/></g>
</svg>