<?xml version="1.0" encoding="utf-8"?><svg height="96" width="96" xmlns="http://www.w3.org/2000/svg" xmlns:svg="http://www.w3.org/2000/svg" xmlns:xlink="http://www.w3.org/1999/xlink"><defs id="primary-definitions"><style id="current-color-scheme" type="text/css">.ColorScheme-Text           { color:#fff; }
      .ColorScheme-Background     { color:#111; }
      .ColorScheme-Highlight      { color:#3daefd; }
      .ColorScheme-ViewBackground { color:#000; }
      .ColorScheme-PositiveText   { color:#27ae60; }
      .ColorScheme-NeutralText    { color:#f67400; }
      .ColorScheme-NegativeText   { color:#da4453; }
  </style><style id="extended-color-scheme" type="text/css">.ExScheme-Black     { color:#3e3e3e; }
      .ExScheme-White     { color:#fcfcfc; }
      .ExScheme-Grey-1    { color:#cfd5d5; }
      .ExScheme-Grey-2    { color:#909c9c; }
      .ExScheme-Grey-3    { color:#536161; }
      .ExScheme-Red-1     { color:#ffafa5; }
      .ExScheme-Red-2     { color:#bf4231; }
      .ExScheme-Red-3     { color:#4d2f2b; }
      .ExScheme-Green-1   { color:#abf9c7; }
      .ExScheme-Green-2   { color:#3bb566; }
      .ExScheme-Green-3   { color:#377d50; }
      .ExScheme-Blue-1    { color:#abdaf9; }
      .ExScheme-Blue-2    { color:#3daefd; }
      .ExScheme-Blue-3    { color:#2b3c4d; }
      .ExScheme-Yellow-1  { color:#faffa5; }
      .ExScheme-Yellow-2  { color:#cac726; }
      .ExScheme-Yellow-3  { color:#4b4d2b; }
      .ExScheme-Orange-1  { color:#ffdaa5; }
      .ExScheme-Orange-2  { color:#ff9701; }
      .ExScheme-Orange-3  { color:#4d372b; }
      .ExScheme-Brown-1   { color:#e9d6bb; }
      .ExScheme-Brown-2   { color:#997657; }
      .ExScheme-Brown-3   { color:#433a35; }
      .ExScheme-Purple-1  { color:#e2abf9; }
      .ExScheme-Purple-2  { color:#b401ff; }
      .ExScheme-Purple-3  { color:#432b4d; }
      .ExScheme-Cyan-1    { color:#b2f2e6; }
      .ExScheme-Cyan-2    { color:#31bfa6; }
      .ExScheme-Cyan-3    { color:#2b4d47; }
      .ExScheme-Magenta-1 { color:#f8a6d8; }
      .ExScheme-Magenta-2 { color:#f00091; }
      .ExScheme-Magenta-3 { color:#770048; }
  </style><linearGradient id="gradientDark"><stop offset="0"/><stop offset="1" stop-opacity="0"/></linearGradient><linearGradient id="gradientLight"><stop offset="0" stop-color="#fff"/><stop offset="1" stop-color="#fff" stop-opacity="0"/></linearGradient><style class="toggle-enable-crease" type="text/css">.folder-crease { display: none; }
  </style><style class="toggle-manilla-folders" type="text/css">.folder-manilla { display: none; }
  </style><radialGradient cx=".5" cy="0" id="gl1" r="1" xlink:href="#gradientLight"/><linearGradient id="gd1" xlink:href="#gradientDark" y1="1" y2=".5"/><path d="m 14,12 c -2.216,0 -4,1.784 -4,4 v 4 8 c -2.216,0 -4,1.784 -4,4 v 48 c 0,2.216 1.784,4 4,4 h 76 c 2.216,0 4,-1.784 4,-4 V 50 32 28 c 0,-2.216 -1.784,-4 -4,-4 v -4 c 0,-2.216 -1.784,-4 -4,-4 H 42 c -6,0 -6,-4 -12,-4 z" id="use-path-6B"/><path d="m 14,12 c -2.216,0 -4,1.784 -4,4 v 4 8 h 20 c 6,0 6,-4 12,-4 h 44 v -4 c 0,-2.216 -1.784,-4 -4,-4 H 42 c -6,0 -6,-4 -12,-4 z" id="use-path-6C"/></defs><g id="content"><use class="folder-manilla ExScheme-Brown-1" fill="currentColor" href="#use-path-6B"/><use class="toggle-manilla-folders ColorScheme-NegativeText" fill="currentColor" href="#use-path-6B" id="primary-color"/><use class="ColorScheme-Text" fill="currentColor" href="#use-path-6B" opacity=".1"/><g id="emblem" transform="translate(24,32)"><path class="ColorScheme-Background" d="m 24,14 c -1.644,0 -3.234,1.36 -3,3 l 1.5,10.5 c .115,.805 .57,1.5 1.5,1.5 .92,0 1.385,-.695 1.5,-1.5 L 27,17 c .234,-1.64 -1.356,-3 -3,-3 z m 0,17 c -1.644,0 -3,1.343 -3,3 -2.2e-5,1.657 1.356,3 3,3 1.644,0 3,-1.343 3,-3 2.2e-5,-1.657 -1.356,-3 -3,-3 z" fill="currentColor" opacity=".6"/><path class="ColorScheme-Background" d="M 24 5 C 23.288 5 22.626 5.383 22.27 6 L 3.217 39 C 2.472 40.29 3.457 42 4.947 42 L 43.053 42 C 44.543 42 45.528 40.29 44.783 39 L 25.73 6 C 25.374 5.383 24.712 5 24 5 z M 24 6 A 1 1 0 0 1 24.865 6.5 L 43.918 39.5 A 1 1 0 0 1 43.053 41 L 4.947 41 A 1 1 0 0 1 4.082 39.5 L 23.135 6.5 A 1 1 0 0 1 24 6 z " fill="currentColor" opacity=".6"/><path class="ColorScheme-Background" d="M 24 14 C 22.356 14 20.766 15.36 21 17 L 22.5 27.5 C 22.615 28.305 23.08 29 24 29 C 24.92 29 25.385 28.305 25.5 27.5 L 27 17 C 27.234 15.36 25.644 14 24 14 z M 24 14.5 C 24.684 14.5 25.38 14.793 25.86 15.248 C 26.338 15.703 26.598 16.286 26.506 16.93 L 25.006 27.43 C 24.96 27.76 24.84 28.04 24.68 28.22 C 24.52 28.397 24.334 28.5 24 28.5 C 23.666 28.5 23.48 28.397 23.32 28.22 C 23.16 28.041 23.04 27.76 22.994 27.43 L 21.494 16.93 C 21.402 16.286 21.662 15.703 22.14 15.248 C 22.62 14.793 23.316 14.5 24 14.5 z M 24 31 C 22.356 31 21 32.343 21 34 C 21 35.657 22.356 37 24 37 C 25.644 37 27 35.657 27 34 C 27 32.343 25.644 31 24 31 z M 24 31.5 C 25.372 31.5 26.5 32.616 26.5 34 C 26.5 35.384 25.372 36.5 24 36.5 C 22.628 36.5 21.5 35.384 21.5 34 C 21.5 32.616 22.628 31.5 24 31.5 z " fill="currentColor" opacity=".6"/><path class="ColorScheme-Background" d="m 24,5 c -.712,6.049e-4 -1.374,.383 -1.73,1 L 3.217,39 c -.745,1.29 .24,3 1.73,3 H 43.053 c 1.49,-0 2.476,-1.71 1.73,-3 L 25.73,6 C 25.374,5.383 24.712,5 24,5 Z m 0,1 a 1,1 0 0 1 .865,0.5 l 19.053,33 A 1,1 0 0 1 43.053,41 H 4.947 A 1,1 0 0 1 4.082,39.5 L 23.135,6.5 A 1,1 0 0 1 24,6 Z" fill="currentColor" opacity=".6"/></g><use href="#use-path-6C" opacity=".4"/><use class="toggle-flat-design" fill="url(#gd1)" href="#use-path-6C" opacity=".2"/><path class="toggle-flat-design" d="m 42,24 c -6,0 -6,4 -12,4 H 10 c -2.216,0 -4,1.784 -4,4 v 48 c 0,2.216 1.784,4 4,4 h 76 c 2.216,0 4,-1.784 4,-4 V 50 32 28 c 0,-2.216 -1.784,-4 -4,-4 z" fill="url(#gl1)" opacity=".2"/><path class="folder-crease" d="m 6,66 v 3 h 13.5 c 0.831,0 1.5,-.67 1.5,-1.5 0,-0.831 -0.669,-1.5 -1.5,-1.5 z m 70.5,0 c -0.831,0 -1.5,0.669 -1.5,1.5 0,.83 0.669,1.5 1.5,1.5 H 90 v -3 z" opacity=".4"/><path class="ColorScheme-Text" d="m 6,79 v 1 c 0,2.216 1.784,4 4,4 h 76 c 2.216,0 4,-1.784 4,-4 v -1 c 0,2.216 -1.784,4 -4,4 H 10 C 7.784,83 6,81.216 6,79 Z" fill="currentColor" opacity=".1"/><path class="ColorScheme-Text" d="M 6,79.5 V 80 c 0,2.216 1.784,4 4,4 h 76 c 2.216,0 4,-1.784 4,-4 v -0.5 c 0,2.216 -1.784,4 -4,4 H 10 c -2.216,0 -4,-1.784 -4,-4 z" fill="currentColor" opacity=".2"/><path d="m 42,24 c -6,0 -6,4 -12,4 H 10 c -2.216,0 -4,1.784 -4,4 v 1 c 0,-2.216 1.784,-4 4,-4 h 20 c 6,0 6,-4 12,-4 h 44 c 2.216,0 4,1.784 4,4 v -1 c 0,-2.216 -1.784,-4 -4,-4 z" fill="#fff" opacity=".1"/><path d="m 42,24 c -6,0 -6,4 -12,4 H 10 c -2.216,0 -4,1.784 -4,4 v 0.5 c 0,-2.216 1.784,-4 4,-4 h 20 c 6,0 6,-4 12,-4 h 44 c 2.216,0 4,1.784 4,4 V 28 c 0,-2.216 -1.784,-4 -4,-4 z" fill="#fff" opacity=".2"/><path d="m 42,23 c -6,0 -6,4 -12,4 H 10 v 1 h 20 c 6,0 6,-4 12,-4 h 44 v -1 z" opacity=".1"/><path d="m 42,23.5 c -6,0 -6,4 -12,4 H 10 V 28 h 20 c 6,0 6,-4 12,-4 h 44 v -0.5 z" opacity=".2"/></g></svg>