<svg height="96" version="1.1" width="96" xmlns="http://www.w3.org/2000/svg" xmlns:svg="http://www.w3.org/2000/svg" xmlns:xlink="http://www.w3.org/1999/xlink">
<defs id="primary-definitions">
<style id="current-color-scheme" type="text/css">
      .ColorScheme-Text         { color: #232629; }
      .ColorScheme-Background   { color: #eff0f1; }
      .ColorScheme-Highlight    { color: #7ec9f0; }
      .ColorScheme-PositiveText { color: #27ae60; }
      .ColorScheme-NeutralText  { color: #f67400; }
      .ColorScheme-NegativeText { color: #da4453; }
      .ColorScheme-ActiveText   { color: #3daee9; }
      .ColorScheme-Complement   { color: #ffffff; }
      .ColorScheme-Contrast     { color: #000000; }
    </style>
<style id="extended-color-scheme" type="text/css">
      .ExScheme-Black     { color:#3e3e3e; }
      .ExScheme-White     { color:#fcfcfc; }
      .ExScheme-Grey-1    { color:#cfd5d5; }
      .ExScheme-Grey-2    { color:#909c9c; }
      .ExScheme-Grey-3    { color:#536161; }
      .ExScheme-Red-1     { color:#ffafa5; }
      .ExScheme-Red-2     { color:#bf4231; }
      .ExScheme-Red-3     { color:#4d2f2b; }
      .ExScheme-Green-1   { color:#abf9c7; }
      .ExScheme-Green-2   { color:#3bb566; }
      .ExScheme-Green-3   { color:#377d50; }
      .ExScheme-Blue-1    { color:#abdaf9; }
      .ExScheme-Blue-2    { color:#3daefd; }
      .ExScheme-Blue-3    { color:#2b3c4d; }
      .ExScheme-Yellow-1  { color:#faffa5; }
      .ExScheme-Yellow-2  { color:#cac726; }
      .ExScheme-Yellow-3  { color:#4b4d2b; }
      .ExScheme-Orange-1  { color:#ffdaa5; }
      .ExScheme-Orange-2  { color:#ff9701; }
      .ExScheme-Orange-3  { color:#4d372b; }
      .ExScheme-Brown-1   { color:#e9d6bb; }
      .ExScheme-Brown-2   { color:#997657; }
      .ExScheme-Brown-3   { color:#433a35; }
      .ExScheme-Purple-1  { color:#e2abf9; }
      .ExScheme-Purple-2  { color:#b401ff; }
      .ExScheme-Purple-3  { color:#432b4d; }
      .ExScheme-Cyan-1    { color:#b2f2e6; }
      .ExScheme-Cyan-2    { color:#31bfa6; }
      .ExScheme-Cyan-3    { color:#2b4d47; }
      .ExScheme-Magenta-1 { color:#f8a6d8; }
      .ExScheme-Magenta-2 { color:#f00091; }
      .ExScheme-Magenta-3 { color:#770048; }
    </style>
<linearGradient id="uQv">
<stop offset="0"/>
<stop offset="1" stop-opacity="0"/>
</linearGradient>
<linearGradient id="uQw">
<stop offset="0" stop-color="#fff"/>
<stop offset="1" stop-color="#fff" stop-opacity="0"/>
</linearGradient>
<style id="uQx" type="text/css">
        .force-display-for-editing { display: inline !important; }
    </style><style class="remove-if__show-crease" type="text/css">
        .enable-if__show-crease { display: none; }
    </style><style class="remove-if__color-sync-mimes-places" type="text/css">
        .enable-if__color-sync-mimes-places { display: none; }
    </style><radialGradient cx=".5" cy="0" id="uQy" r="1" xlink:href="#uQw"/><linearGradient id="uQz" xlink:href="#uQv" y1="1" y2=".5"/><style class="ColorScheme-Background" fill="currentColor" opacity=".6" type="text/css">
   .ColorScheme-Text           { color:#eff0f1; }
      .ColorScheme-Background     { color:#31363b; }
      .ColorScheme-Highlight      { color:#3daefd; }
      .ColorScheme-ViewBackground { color:#fcfcfc; }
      .ColorScheme-PositiveText   { color:#27ae60; }
      .ColorScheme-NeutralText    { color:#f67400; }
      .ColorScheme-NegativeText   { color:#da4453; }
  </style><path d="m 14,12 c -2.2,0 -4,1.8 -4,4 v 4 8 c -2.2,0 -4,1.8 -4,4 v 48 c 0,2.2 1.8,4 4,4 h 76 c 2.2,0 4,-1.8 4,-4 V 50 32 28 c 0,-2.2 -1.8,-4 -4,-4 v -4 c 0,-2.2 -1.8,-4 -4,-4 H 42 c -6,0 -6,-4 -12,-4 z" id="uQA"></path><path d="m 14,12 c -2.2,0 -4,1.8 -4,4 v 4 8 h 20 c 6,0 6,-4 12,-4 h 44 v -4 c 0,-2.2 -1.8,-4 -4,-4 H 42 c -6,0 -6,-4 -12,-4 z" id="uQB"></path></defs>
<g id="content" transform="translate(0,0)"><use class="sync-color enable-if__color-sync-mimes-places force-display-for-editing ColorScheme-ActiveText" fill="currentColor" href="#uQA"></use><use class="primary-color remove-if__color-sync-mimes-places ColorScheme-ActiveText" fill="currentColor" href="#uQA"></use><use class="ColorScheme-Contrast" fill="currentColor" href="#uQA" opacity=".1"></use><g id="panorama" transform="translate(6,24)"><path class="ColorScheme-Background" d="M 79.05 10.96 C 78.87 10.97 78.7 11 78.5 11.14 L 8.5 54.14 C 7.6 54.66 8 56 9 56 L 13 56 L 13 54.5 C 13 54.2 13.2 54 13.5 54 C 13.8 54 14 54.2 14 54.5 L 14 56 L 16 56 L 16 55.5 C 16 55.23 16.2 55 16.47 55 C 16.5 55 16.5 55 16.5 55 C 16.8 55 17 55.2 17 55.5 L 17 56 L 19 56 L 19 55.5 C 19 55.23 19.2 55 19.47 55 C 19.5 55 19.5 55 19.5 55 C 19.8 55 20 55.2 20 55.5 L 20 56 L 22 56 L 22 54.5 C 22 54.2 22.2 54 22.5 54 C 22.8 54 23 54.2 23 54.5 L 23 56 L 25 56 L 25 55.5 C 25 55.23 25.2 55 25.47 55 C 25.5 55 25.5 55 25.5 55 C 25.8 55 26 55.2 26 55.5 L 26 56 L 28 56 L 28 55.5 C 28 55.23 28.2 55 28.47 55 C 28.5 55 28.5 55 28.5 55 C 28.8 55 29 55.2 29 55.5 L 29 56 L 31 56 L 31 54.5 C 31 54.2 31.2 54 31.5 54 C 31.8 54 32 54.2 32 54.5 L 32 56 L 34 56 L 34 55.5 C 34 55.23 34.2 55 34.47 55 C 34.5 55 34.5 55 34.5 55 C 34.8 55 35 55.2 35 55.5 L 35 56 L 37 56 L 37 55.5 C 37 55.23 37.2 55 37.47 55 C 37.5 55 37.5 55 37.5 55 C 37.8 55 38 55.2 38 55.5 L 38 56 L 40 56 L 40 54.5 C 40 54.2 40.2 54 40.5 54 C 40.8 54 41 54.2 41 54.5 L 41 56 L 43 56 L 43 55.5 C 43 55.23 43.2 55 43.47 55 C 43.5 55 43.5 55 43.5 55 C 43.8 55 44 55.2 44 55.5 L 44 56 L 46 56 L 46 55.5 C 46 55.23 46.2 55 46.47 55 C 46.5 55 46.5 55 46.5 55 C 46.8 55 47 55.2 47 55.5 L 47 56 L 49 56 L 49 54.5 C 49 54.2 49.2 54 49.5 54 C 49.8 54 50 54.2 50 54.5 L 50 56 L 52 56 L 52 55.5 C 52 55.23 52.2 55 52.47 55 C 52.5 55 52.5 55 52.5 55 C 52.8 55 53 55.2 53 55.5 L 53 56 L 55 56 L 55 55.5 C 55 55.23 55.2 55 55.47 55 C 55.5 55 55.5 55 55.5 55 C 55.8 55 56 55.2 56 55.5 L 56 56 L 58 56 L 58 54.5 C 58 54.2 58.2 54 58.5 54 C 58.8 54 59 54.2 59 54.5 L 59 56 L 61 56 L 61 55.5 C 61 55.23 61.2 55 61.47 55 C 61.5 55 61.5 55 61.5 55 C 61.8 55 62 55.2 62 55.5 L 62 56 L 64 56 L 64 55.5 C 64 55.23 64.2 55 64.47 55 C 64.5 55 64.5 55 64.5 55 C 64.8 55 65 55.2 65 55.5 L 65 56 L 67 56 L 67 54.5 C 67 54.2 67.2 54 67.5 54 C 67.8 54 68 54.2 68 54.5 L 68 56 L 70 56 L 70 55.5 C 70 55.23 70.2 55 70.47 55 C 70.5 55 70.5 55 70.5 55 C 70.8 55 71 55.2 71 55.5 L 71 56 L 73 56 L 73 55.5 C 73 55.23 73.2 55 73.47 55 C 73.5 55 73.5 55 73.5 55 C 73.8 55 74 55.2 74 55.5 L 74 56 L 76 56 L 76 54.5 C 76 54.2 76.2 54 76.5 54 C 76.8 54 77 54.2 77 54.5 L 77 56 L 79 56 C 79.55 56 80 55.55 80 55 L 80 53 L 78.5 53 C 78.2 53 78 52.8 78 52.5 C 78 52.2 78.2 52 78.5 52 L 80 52 L 80 50 L 79.5 50 C 79.2 50 79 49.8 79 49.5 C 79 49.23 79.2 49 79.47 49 C 79.5 49 79.5 49 79.5 49 L 80 49 L 80 47 L 79.5 47 C 79.2 47 79 46.8 79 46.5 C 79 46.23 79.2 46 79.47 46 C 79.5 46 79.5 46 79.5 46 L 80 46 L 80 44 L 78.5 44 C 78.2 44 78 43.8 78 43.5 C 78 43.2 78.2 43 78.5 43 L 80 43 L 80 41 L 79.5 41 C 79.2 41 79 40.8 79 40.5 C 79 40.23 79.2 40 79.47 40 C 79.5 40 79.5 40 79.5 40 L 80 40 L 80 38 L 79.5 38 C 79.2 38 79 37.8 79 37.5 C 79 37.23 79.2 37 79.47 37 C 79.5 37 79.5 37 79.5 37 L 80 37 L 80 35 L 78.5 35 C 78.2 35 78 34.8 78 34.5 C 78 34.2 78.2 34 78.5 34 L 80 34 L 80 32 L 79.5 32 C 79.2 32 79 31.8 79 31.5 C 79 31.23 79.2 31 79.47 31 C 79.5 31 79.5 31 79.5 31 L 80 31 L 80 29 L 79.5 29 C 79.2 29 79 28.8 79 28.5 C 79 28.23 79.2 28 79.47 28 C 79.5 28 79.5 28 79.5 28 L 80 28 L 80 26 L 78.5 26 C 78.2 26 78 25.8 78 25.5 C 78 25.2 78.2 25 78.5 25 L 80 25 L 80 23 L 79.5 23 C 79.2 23 79 22.8 79 22.5 C 79 22.23 79.2 22 79.47 22 C 79.5 22 79.5 22 79.5 22 L 80 22 L 80 20 L 79.5 20 C 79.2 20 79 19.8 79 19.5 C 79 19.23 79.2 19 79.47 19 C 79.5 19 79.5 19 79.5 19 L 80 19 L 80 17 L 78.5 17 C 78.2 17 78 16.8 78 16.5 C 78 16.2 78.2 16 78.5 16 L 80 16 L 80 12 C 80 11.4 79.6 10.95 79.05 10.96 z M 70 28.7 L 70 46 L 41.8 46 L 70 28.7 z " fill="currentColor" opacity=".6"/><path class="ColorScheme-Background" d="M 79.05 10.96 C 78.87 10.97 78.7 11 78.5 11.14 L 8.5 54.14 C 7.6 54.66 8 56 9 56 L 13 56 L 13 54.5 C 13 54.2 13.2 54 13.5 54 C 13.8 54 14 54.2 14 54.5 L 14 56 L 16 56 L 16 55.5 C 16 55.23 16.2 55 16.47 55 C 16.5 55 16.5 55 16.5 55 C 16.8 55 17 55.2 17 55.5 L 17 56 L 19 56 L 19 55.5 C 19 55.23 19.2 55 19.47 55 C 19.5 55 19.5 55 19.5 55 C 19.8 55 20 55.2 20 55.5 L 20 56 L 22 56 L 22 54.5 C 22 54.2 22.2 54 22.5 54 C 22.8 54 23 54.2 23 54.5 L 23 56 L 25 56 L 25 55.5 C 25 55.23 25.2 55 25.47 55 C 25.5 55 25.5 55 25.5 55 C 25.8 55 26 55.2 26 55.5 L 26 56 L 28 56 L 28 55.5 C 28 55.23 28.2 55 28.47 55 C 28.5 55 28.5 55 28.5 55 C 28.8 55 29 55.2 29 55.5 L 29 56 L 31 56 L 31 54.5 C 31 54.2 31.2 54 31.5 54 C 31.8 54 32 54.2 32 54.5 L 32 56 L 34 56 L 34 55.5 C 34 55.23 34.2 55 34.47 55 C 34.5 55 34.5 55 34.5 55 C 34.8 55 35 55.2 35 55.5 L 35 56 L 37 56 L 37 55.5 C 37 55.23 37.2 55 37.47 55 C 37.5 55 37.5 55 37.5 55 C 37.8 55 38 55.2 38 55.5 L 38 56 L 40 56 L 40 54.5 C 40 54.2 40.2 54 40.5 54 C 40.8 54 41 54.2 41 54.5 L 41 56 L 43 56 L 43 55.5 C 43 55.23 43.2 55 43.47 55 C 43.5 55 43.5 55 43.5 55 C 43.8 55 44 55.2 44 55.5 L 44 56 L 46 56 L 46 55.5 C 46 55.23 46.2 55 46.47 55 C 46.5 55 46.5 55 46.5 55 C 46.8 55 47 55.2 47 55.5 L 47 56 L 49 56 L 49 54.5 C 49 54.2 49.2 54 49.5 54 C 49.8 54 50 54.2 50 54.5 L 50 56 L 52 56 L 52 55.5 C 52 55.23 52.2 55 52.47 55 C 52.5 55 52.5 55 52.5 55 C 52.8 55 53 55.2 53 55.5 L 53 56 L 55 56 L 55 55.5 C 55 55.23 55.2 55 55.47 55 C 55.5 55 55.5 55 55.5 55 C 55.8 55 56 55.2 56 55.5 L 56 56 L 58 56 L 58 54.5 C 58 54.2 58.2 54 58.5 54 C 58.8 54 59 54.2 59 54.5 L 59 56 L 61 56 L 61 55.5 C 61 55.23 61.2 55 61.47 55 C 61.5 55 61.5 55 61.5 55 C 61.8 55 62 55.2 62 55.5 L 62 56 L 64 56 L 64 55.5 C 64 55.23 64.2 55 64.47 55 C 64.5 55 64.5 55 64.5 55 C 64.8 55 65 55.2 65 55.5 L 65 56 L 67 56 L 67 54.5 C 67 54.2 67.2 54 67.5 54 C 67.8 54 68 54.2 68 54.5 L 68 56 L 70 56 L 70 55.5 C 70 55.23 70.2 55 70.47 55 C 70.5 55 70.5 55 70.5 55 C 70.8 55 71 55.2 71 55.5 L 71 56 L 73 56 L 73 55.5 C 73 55.23 73.2 55 73.47 55 C 73.5 55 73.5 55 73.5 55 C 73.8 55 74 55.2 74 55.5 L 74 56 L 76 56 L 76 54.5 C 76 54.2 76.2 54 76.5 54 C 76.8 54 77 54.2 77 54.5 L 77 56 L 79 56 C 79.55 56 80 55.55 80 55 L 80 53 L 78.5 53 C 78.2 53 78 52.8 78 52.5 C 78 52.2 78.2 52 78.5 52 L 80 52 L 80 50 L 79.5 50 C 79.2 50 79 49.8 79 49.5 C 79 49.23 79.2 49 79.47 49 C 79.5 49 79.5 49 79.5 49 L 80 49 L 80 47 L 79.5 47 C 79.2 47 79 46.8 79 46.5 C 79 46.23 79.2 46 79.47 46 C 79.5 46 79.5 46 79.5 46 L 80 46 L 80 44 L 78.5 44 C 78.2 44 78 43.8 78 43.5 C 78 43.2 78.2 43 78.5 43 L 80 43 L 80 41 L 79.5 41 C 79.2 41 79 40.8 79 40.5 C 79 40.23 79.2 40 79.47 40 C 79.5 40 79.5 40 79.5 40 L 80 40 L 80 38 L 79.5 38 C 79.2 38 79 37.8 79 37.5 C 79 37.23 79.2 37 79.47 37 C 79.5 37 79.5 37 79.5 37 L 80 37 L 80 35 L 78.5 35 C 78.2 35 78 34.8 78 34.5 C 78 34.2 78.2 34 78.5 34 L 80 34 L 80 32 L 79.5 32 C 79.2 32 79 31.8 79 31.5 C 79 31.23 79.2 31 79.47 31 C 79.5 31 79.5 31 79.5 31 L 80 31 L 80 29 L 79.5 29 C 79.2 29 79 28.8 79 28.5 C 79 28.23 79.2 28 79.47 28 C 79.5 28 79.5 28 79.5 28 L 80 28 L 80 26 L 78.5 26 C 78.2 26 78 25.8 78 25.5 C 78 25.2 78.2 25 78.5 25 L 80 25 L 80 23 L 79.5 23 C 79.2 23 79 22.8 79 22.5 C 79 22.23 79.2 22 79.47 22 C 79.5 22 79.5 22 79.5 22 L 80 22 L 80 20 L 79.5 20 C 79.2 20 79 19.8 79 19.5 C 79 19.23 79.2 19 79.47 19 C 79.5 19 79.5 19 79.5 19 L 80 19 L 80 17 L 78.5 17 C 78.2 17 78 16.8 78 16.5 C 78 16.2 78.2 16 78.5 16 L 80 16 L 80 12 C 80 11.4 79.6 10.95 79.05 10.96 z M 79.06 11.46 C 79.3 11.45 79.5 11.6 79.5 12 L 79.5 15.5 L 78.5 15.5 C 77.95 15.5 77.5 15.95 77.5 16.5 C 77.5 17.05 77.95 17.5 78.5 17.5 L 79.5 17.5 L 79.5 18.5 C 79.5 18.5 79.5 18.5 79.45 18.5 C 78.9 18.53 78.5 18.97 78.5 19.5 C 78.5 20.05 78.95 20.5 79.5 20.5 L 79.5 21.5 C 79.5 21.5 79.5 21.5 79.45 21.5 C 78.9 21.53 78.5 21.97 78.5 22.5 C 78.5 23.05 78.95 23.5 79.5 23.5 L 79.5 24.5 L 78.5 24.5 C 77.95 24.5 77.5 24.95 77.5 25.5 C 77.5 26.05 77.95 26.5 78.5 26.5 L 79.5 26.5 L 79.5 27.5 C 79.5 27.5 79.5 27.5 79.45 27.5 C 78.9 27.53 78.5 27.97 78.5 28.5 C 78.5 29.05 78.95 29.5 79.5 29.5 L 79.5 30.5 C 79.5 30.5 79.5 30.5 79.45 30.5 C 78.9 30.53 78.5 30.97 78.5 31.5 C 78.5 32.05 78.95 32.5 79.5 32.5 L 79.5 33.5 L 78.5 33.5 C 77.95 33.5 77.5 33.95 77.5 34.5 C 77.5 35.05 77.95 35.5 78.5 35.5 L 79.5 35.5 L 79.5 36.5 C 79.5 36.5 79.5 36.5 79.45 36.5 C 78.9 36.53 78.5 36.97 78.5 37.5 C 78.5 38.05 78.95 38.5 79.5 38.5 L 79.5 39.5 C 79.5 39.5 79.5 39.5 79.45 39.5 C 78.9 39.53 78.5 39.97 78.5 40.5 C 78.5 41.05 78.95 41.5 79.5 41.5 L 79.5 42.5 L 78.5 42.5 C 77.95 42.5 77.5 42.95 77.5 43.5 C 77.5 44.05 77.95 44.5 78.5 44.5 L 79.5 44.5 L 79.5 45.5 C 79.5 45.5 79.5 45.5 79.45 45.5 C 78.9 45.53 78.5 45.97 78.5 46.5 C 78.5 47.05 78.95 47.5 79.5 47.5 L 79.5 48.5 C 79.5 48.5 79.5 48.5 79.45 48.5 C 78.9 48.53 78.5 48.97 78.5 49.5 C 78.5 50.05 78.95 50.5 79.5 50.5 L 79.5 51.5 L 78.5 51.5 C 77.95 51.5 77.5 51.95 77.5 52.5 C 77.5 53.05 77.95 53.5 78.5 53.5 L 79.5 53.5 L 79.5 55 C 79.5 55.3 79.3 55.5 79 55.5 L 77.5 55.5 L 77.5 54.5 C 77.5 53.95 77.05 53.5 76.5 53.5 C 75.95 53.5 75.5 53.95 75.5 54.5 L 75.5 55.5 L 74.5 55.5 C 74.5 54.95 74.05 54.5 73.5 54.5 C 73.5 54.5 73.5 54.5 73.45 54.5 C 72.9 54.53 72.5 54.97 72.5 55.5 L 71.5 55.5 C 71.5 54.95 71.05 54.5 70.5 54.5 C 70.5 54.5 70.5 54.5 70.45 54.5 C 69.9 54.53 69.5 54.97 69.5 55.5 L 68.5 55.5 L 68.5 54.5 C 68.5 53.95 68.05 53.5 67.5 53.5 C 66.95 53.5 66.5 53.95 66.5 54.5 L 66.5 55.5 L 65.5 55.5 C 65.5 54.95 65.05 54.5 64.5 54.5 C 64.5 54.5 64.5 54.5 64.45 54.5 C 63.9 54.53 63.5 54.97 63.5 55.5 L 62.5 55.5 C 62.5 54.95 62.05 54.5 61.5 54.5 C 61.5 54.5 61.5 54.5 61.45 54.5 C 60.9 54.53 60.5 54.97 60.5 55.5 L 59.5 55.5 L 59.5 54.5 C 59.5 53.95 59.05 53.5 58.5 53.5 C 57.95 53.5 57.5 53.95 57.5 54.5 L 57.5 55.5 L 56.5 55.5 C 56.5 54.95 56.05 54.5 55.5 54.5 C 55.5 54.5 55.5 54.5 55.45 54.5 C 54.9 54.53 54.5 54.97 54.5 55.5 L 53.5 55.5 C 53.5 54.95 53.05 54.5 52.5 54.5 C 52.5 54.5 52.5 54.5 52.45 54.5 C 51.9 54.53 51.5 54.97 51.5 55.5 L 50.5 55.5 L 50.5 54.5 C 50.5 53.95 50.05 53.5 49.5 53.5 C 48.95 53.5 48.5 53.95 48.5 54.5 L 48.5 55.5 L 47.5 55.5 C 47.5 54.95 47.05 54.5 46.5 54.5 C 46.5 54.5 46.5 54.5 46.45 54.5 C 45.9 54.53 45.5 54.97 45.5 55.5 L 44.5 55.5 C 44.5 54.95 44.05 54.5 43.5 54.5 C 43.5 54.5 43.5 54.5 43.45 54.5 C 42.9 54.53 42.5 54.97 42.5 55.5 L 41.5 55.5 L 41.5 54.5 C 41.5 53.95 41.05 53.5 40.5 53.5 C 39.95 53.5 39.5 53.95 39.5 54.5 L 39.5 55.5 L 38.5 55.5 C 38.5 54.95 38.05 54.5 37.5 54.5 C 37.5 54.5 37.5 54.5 37.45 54.5 C 36.9 54.53 36.5 54.97 36.5 55.5 L 35.5 55.5 C 35.5 54.95 35.05 54.5 34.5 54.5 C 34.5 54.5 34.5 54.5 34.45 54.5 C 33.9 54.53 33.5 54.97 33.5 55.5 L 32.5 55.5 L 32.5 54.5 C 32.5 53.95 32.05 53.5 31.5 53.5 C 30.95 53.5 30.5 53.95 30.5 54.5 L 30.5 55.5 L 29.5 55.5 C 29.5 54.95 29.05 54.5 28.5 54.5 C 28.5 54.5 28.5 54.5 28.45 54.5 C 27.9 54.53 27.5 54.97 27.5 55.5 L 26.5 55.5 C 26.5 54.95 26.05 54.5 25.5 54.5 C 25.5 54.5 25.5 54.5 25.45 54.5 C 24.9 54.53 24.5 54.97 24.5 55.5 L 23.5 55.5 L 23.5 54.5 C 23.5 53.95 23.05 53.5 22.5 53.5 C 21.95 53.5 21.5 53.95 21.5 54.5 L 21.5 55.5 L 20.5 55.5 C 20.5 54.95 20.05 54.5 19.5 54.5 C 19.5 54.5 19.5 54.5 19.45 54.5 C 18.9 54.53 18.5 54.97 18.5 55.5 L 17.5 55.5 C 17.5 54.95 17.05 54.5 16.5 54.5 C 16.5 54.5 16.5 54.5 16.45 54.5 C 15.9 54.53 15.5 54.97 15.5 55.5 L 14.5 55.5 L 14.5 54.5 C 14.5 53.95 14.05 53.5 13.5 53.5 C 12.95 53.5 12.5 53.95 12.5 54.5 L 12.5 55.5 L 9 55.5 C 8.7 55.5 8.6 55.34 8.5 55.13 C 8.46 54.9 8.5 54.7 8.75 54.57 A .5 .5 0 0 0 8.75 54.56 L 78.75 11.56 C 78.9 11.5 79 11.46 79.06 11.46 z M 70.24 28.3 A .5 .5 0 0 0 69.74 28.3 L 41.53 45.57 A .5 .5 0 0 0 41.8 46.5 L 70 46.5 A .5 .5 0 0 0 70.5 46 L 70.5 28.7 A .5 .5 0 0 0 70.24 28.3 z M 70 28.7 L 70 46 L 41.8 46 L 70 28.7 z " fill="currentColor" opacity=".6"/></g><use href="#uQB" opacity=".4"></use><use fill="url(#uQz)" href="#uQB" opacity=".2"></use><path d="m 42,24 c -6,0 -6,4 -12,4 H 10 c -2.2,0 -4,1.8 -4,4 v 48 c 0,2.2 1.8,4 4,4 h 76 c 2.2,0 4,-1.8 4,-4 V 50 32 28 c 0,-2.2 -1.8,-4 -4,-4 z" fill="url(#uQy)" opacity=".2"/><path class="ColorScheme-Contrast" d="m 6,79 v 1 c 0,2.2 1.8,4 4,4 h 76 c 2.2,0 4,-1.8 4,-4 v -1 c 0,2.2 -1.8,4 -4,4 H 10 C 7.8,83 6,81.2 6,79 Z" fill="currentColor" opacity=".1"/><path class="ColorScheme-Contrast" d="M 6,79.5 V 80 c 0,2.2 1.8,4 4,4 h 76 c 2.2,0 4,-1.8 4,-4 v -0.5 c 0,2.2 -1.8,4 -4,4 H 10 c -2.2,0 -4,-1.8 -4,-4 z" fill="currentColor" opacity=".2"/><path d="m 42,24 c -6,0 -6,4 -12,4 H 10 c -2.2,0 -4,1.8 -4,4 v 1 c 0,-2.2 1.8,-4 4,-4 h 20 c 6,0 6,-4 12,-4 h 44 c 2.2,0 4,1.8 4,4 v -1 c 0,-2.2 -1.8,-4 -4,-4 z" fill="#fff" opacity=".1"/><path d="m 42,24 c -6,0 -6,4 -12,4 H 10 c -2.2,0 -4,1.8 -4,4 v 0.5 c 0,-2.2 1.8,-4 4,-4 h 20 c 6,0 6,-4 12,-4 h 44 c 2.2,0 4,1.8 4,4 V 28 c 0,-2.2 -1.8,-4 -4,-4 z" fill="#fff" opacity=".2"/><path d="m 42,23 c -6,0 -6,4 -12,4 H 10 v 1 h 20 c 6,0 6,-4 12,-4 h 44 v -1 z" opacity=".1"/><path d="m 42,23.5 c -6,0 -6,4 -12,4 H 10 V 28 h 20 c 6,0 6,-4 12,-4 h 44 v -0.5 z" opacity=".2"/></g>
</svg>