<svg height="96" version="1.1" width="96" xmlns="http://www.w3.org/2000/svg" xmlns:svg="http://www.w3.org/2000/svg" xmlns:xlink="http://www.w3.org/1999/xlink">
<defs id="primary-definitions">
<style id="current-color-scheme" type="text/css">
      .ColorScheme-Text           { color:#fff; }
      .ColorScheme-Background     { color:#111; }
      .ColorScheme-Highlight      { color:#3daefd; }
      .ColorScheme-ViewBackground { color:#000; }
      .ColorScheme-PositiveText   { color:#27ae60; }
      .ColorScheme-NeutralText    { color:#f67400; }
      .ColorScheme-NegativeText   { color:#da4453; }
    </style>
<style id="extended-color-scheme" type="text/css">
      .ExScheme-Black     { color:#3e3e3e; }
      .ExScheme-White     { color:#fcfcfc; }
      .ExScheme-Grey-1    { color:#cfd5d5; }
      .ExScheme-Grey-2    { color:#909c9c; }
      .ExScheme-Grey-3    { color:#536161; }
      .ExScheme-Red-1     { color:#ffafa5; }
      .ExScheme-Red-2     { color:#bf4231; }
      .ExScheme-Red-3     { color:#4d2f2b; }
      .ExScheme-Green-1   { color:#abf9c7; }
      .ExScheme-Green-2   { color:#3bb566; }
      .ExScheme-Green-3   { color:#377d50; }
      .ExScheme-Blue-1    { color:#abdaf9; }
      .ExScheme-Blue-2    { color:#3daefd; }
      .ExScheme-Blue-3    { color:#2b3c4d; }
      .ExScheme-Yellow-1  { color:#faffa5; }
      .ExScheme-Yellow-2  { color:#cac726; }
      .ExScheme-Yellow-3  { color:#4b4d2b; }
      .ExScheme-Orange-1  { color:#ffdaa5; }
      .ExScheme-Orange-2  { color:#ff9701; }
      .ExScheme-Orange-3  { color:#4d372b; }
      .ExScheme-Brown-1   { color:#e9d6bb; }
      .ExScheme-Brown-2   { color:#997657; }
      .ExScheme-Brown-3   { color:#433a35; }
      .ExScheme-Purple-1  { color:#e2abf9; }
      .ExScheme-Purple-2  { color:#b401ff; }
      .ExScheme-Purple-3  { color:#432b4d; }
      .ExScheme-Cyan-1    { color:#b2f2e6; }
      .ExScheme-Cyan-2    { color:#31bfa6; }
      .ExScheme-Cyan-3    { color:#2b4d47; }
      .ExScheme-Magenta-1 { color:#f8a6d8; }
      .ExScheme-Magenta-2 { color:#f00091; }
      .ExScheme-Magenta-3 { color:#770048; }
    </style>
<linearGradient id="uCx">
<stop offset="0"/>
<stop offset="1" stop-opacity="0"/>
</linearGradient>
<linearGradient id="uCy">
<stop offset="0" stop-color="#fff"/>
<stop offset="1" stop-color="#fff" stop-opacity="0"/>
</linearGradient>
<style class="toggle-enable-crease" type="text/css">
        .folder-crease { display: none; }
    </style><style class="toggle-manilla-folders" type="text/css">
        .folder-manilla { display: none; }
    </style><radialGradient cx=".5" cy="0" id="uCz" r="1" xlink:href="#uCy"/><linearGradient id="uCA" xlink:href="#uCx" y1="1" y2=".5"/><path d="m 14,12 c -2.2,0 -4,1.8 -4,4 v 4 8 c -2.2,0 -4,1.8 -4,4 v 48 c 0,2.2 1.8,4 4,4 h 76 c 2.2,0 4,-1.8 4,-4 V 50 32 28 c 0,-2.2 -1.8,-4 -4,-4 v -4 c 0,-2.2 -1.8,-4 -4,-4 H 42 c -6,0 -6,-4 -12,-4 z" id="uCB"></path><path d="m 14,12 c -2.2,0 -4,1.8 -4,4 v 4 8 h 20 c 6,0 6,-4 12,-4 h 44 v -4 c 0,-2.2 -1.8,-4 -4,-4 H 42 c -6,0 -6,-4 -12,-4 z" id="uCC"></path></defs>
<g id="content" transform="translate(0,0)"><use class="folder-manilla ExScheme-Brown-1" fill="currentColor" href="#uCB"></use><use class="toggle-manilla-folders ColorScheme-Highlight" fill="currentColor" href="#uCB" id="primary-color"></use><use class="ColorScheme-Text" fill="currentColor" href="#uCB" opacity=".1"></use><g id="emblem" transform="translate(24,32)"><path class="ColorScheme-Background" d="M 17 4 A 13 13 0 0 0 4 17 A 13 13 0 0 0 17 30 A 13 13 0 0 0 25.8 26.5 L 29.05 29.76 A 1 1 0 0 0 29.3 30.7 L 42.3 43.7 A 1 1 0 0 0 43.7 43.7 A 1 1 0 0 0 43.7 42.3 L 30.7 29.3 A 1 1 0 0 0 29.76 29.05 L 26.5 25.8 A 13 13 0 0 0 30 17 A 13 13 0 0 0 17 4 z M 17 6 A 11 11 0 0 1 28 17 A 11 11 0 0 1 17 28 A 11 11 0 0 1 6 17 A 11 11 0 0 1 17 6 z " fill="currentColor" opacity=".6"/><path class="ColorScheme-Background" d="M 17 4 A 13 13 0 0 0 4 17 A 13 13 0 0 0 17 30 A 13 13 0 0 0 25.8 26.5 L 29.05 29.76 A 1 1 0 0 0 29.3 30.7 L 42.3 43.7 A 1 1 0 0 0 43.7 43.7 A 1 1 0 0 0 43.7 42.3 L 30.7 29.3 A 1 1 0 0 0 29.76 29.05 L 26.5 25.8 A 13 13 0 0 0 30 17 A 13 13 0 0 0 17 4 z M 17 4.5 C 23.9 4.5 29.5 10.1 29.5 17 C 29.5 20.14 28.3 23.17 26.16 25.5 A .5 .5 0 0 0 26.17 26.17 A .5 .5 0 0 0 25.5 26.16 C 23.17 28.3 20.15 29.5 17 29.5 C 10.1 29.5 4.5 23.9 4.5 17 C 4.5 10.1 10.1 4.5 17 4.5 z M 17 5.5 C 10.65 5.5 5.5 10.65 5.5 17 C 5.5 23.35 10.65 28.5 17 28.5 C 23.35 28.5 28.5 23.35 28.5 17 C 28.5 10.65 23.35 5.5 17 5.5 z M 17 6 A 11 11 0 0 1 28 17 A 11 11 0 0 1 17 28 A 11 11 0 0 1 6 17 A 11 11 0 0 1 17 6 z M 29.4 29.4 A .5 .5 0 0 0 29.9 29.53 C 30.05 29.5 30.23 29.53 30.36 29.65 L 43.35 42.65 C 43.55 42.85 43.55 43.15 43.35 43.35 C 43.15 43.55 42.85 43.55 42.65 43.35 L 29.65 30.36 C 29.53 30.23 29.5 30.05 29.53 29.9 A .5 .5 0 0 0 29.4 29.4 z " fill="currentColor" opacity=".6"/></g><use href="#uCC" opacity=".4"></use><use class="toggle-flat-design" fill="url(#uCA)" href="#uCC" opacity=".2"></use><path class="toggle-flat-design" d="m 42,24 c -6,0 -6,4 -12,4 H 10 c -2.2,0 -4,1.8 -4,4 v 48 c 0,2.2 1.8,4 4,4 h 76 c 2.2,0 4,-1.8 4,-4 V 50 32 28 c 0,-2.2 -1.8,-4 -4,-4 z" fill="url(#uCz)" opacity=".2"/><path class="folder-crease " d="m 6,66 v 3 h 13.5 c .83,0 1.5,-.67 1.5,-1.5 0,-.83 -.67,-1.5 -1.5,-1.5 z m 70.5,0 c -.83,0 -1.5,.67 -1.5,1.5 0,.83 .67,1.5 1.5,1.5 H 90 v -3 z" opacity=".4"/><path class="ColorScheme-Text" d="m 6,79 v 1 c 0,2.2 1.8,4 4,4 h 76 c 2.2,0 4,-1.8 4,-4 v -1 c 0,2.2 -1.8,4 -4,4 H 10 C 7.8,83 6,81.2 6,79 Z" fill="currentColor" opacity=".1"/><path class="ColorScheme-Text" d="M 6,79.5 V 80 c 0,2.2 1.8,4 4,4 h 76 c 2.2,0 4,-1.8 4,-4 v -0.5 c 0,2.2 -1.8,4 -4,4 H 10 c -2.2,0 -4,-1.8 -4,-4 z" fill="currentColor" opacity=".2"/><path d="m 42,24 c -6,0 -6,4 -12,4 H 10 c -2.2,0 -4,1.8 -4,4 v 1 c 0,-2.2 1.8,-4 4,-4 h 20 c 6,0 6,-4 12,-4 h 44 c 2.2,0 4,1.8 4,4 v -1 c 0,-2.2 -1.8,-4 -4,-4 z" fill="#fff" opacity=".1"/><path d="m 42,24 c -6,0 -6,4 -12,4 H 10 c -2.2,0 -4,1.8 -4,4 v 0.5 c 0,-2.2 1.8,-4 4,-4 h 20 c 6,0 6,-4 12,-4 h 44 c 2.2,0 4,1.8 4,4 V 28 c 0,-2.2 -1.8,-4 -4,-4 z" fill="#fff" opacity=".2"/><path d="m 42,23 c -6,0 -6,4 -12,4 H 10 v 1 h 20 c 6,0 6,-4 12,-4 h 44 v -1 z" opacity=".1"/><path d="m 42,23.5 c -6,0 -6,4 -12,4 H 10 V 28 h 20 c 6,0 6,-4 12,-4 h 44 v -0.5 z" opacity=".2"/></g>
</svg>