<svg height="96" version="1.1" width="96" xmlns="http://www.w3.org/2000/svg" xmlns:svg="http://www.w3.org/2000/svg" xmlns:xlink="http://www.w3.org/1999/xlink">
<defs id="primary-definitions">
<style id="current-color-scheme" type="text/css">
      .ColorScheme-Text           { color:#fff; }
      .ColorScheme-Background     { color:#111; }
      .ColorScheme-Highlight      { color:#3daefd; }
      .ColorScheme-ViewBackground { color:#000; }
      .ColorScheme-PositiveText   { color:#27ae60; }
      .ColorScheme-NeutralText    { color:#f67400; }
      .ColorScheme-NegativeText   { color:#da4453; }
    </style>
<style id="extended-color-scheme" type="text/css">
      .ExScheme-Black     { color:#3e3e3e; }
      .ExScheme-White     { color:#fcfcfc; }
      .ExScheme-Grey-1    { color:#cfd5d5; }
      .ExScheme-Grey-2    { color:#909c9c; }
      .ExScheme-Grey-3    { color:#536161; }
      .ExScheme-Red-1     { color:#ffafa5; }
      .ExScheme-Red-2     { color:#bf4231; }
      .ExScheme-Red-3     { color:#4d2f2b; }
      .ExScheme-Green-1   { color:#abf9c7; }
      .ExScheme-Green-2   { color:#3bb566; }
      .ExScheme-Green-3   { color:#377d50; }
      .ExScheme-Blue-1    { color:#abdaf9; }
      .ExScheme-Blue-2    { color:#3daefd; }
      .ExScheme-Blue-3    { color:#2b3c4d; }
      .ExScheme-Yellow-1  { color:#faffa5; }
      .ExScheme-Yellow-2  { color:#cac726; }
      .ExScheme-Yellow-3  { color:#4b4d2b; }
      .ExScheme-Orange-1  { color:#ffdaa5; }
      .ExScheme-Orange-2  { color:#ff9701; }
      .ExScheme-Orange-3  { color:#4d372b; }
      .ExScheme-Brown-1   { color:#e9d6bb; }
      .ExScheme-Brown-2   { color:#997657; }
      .ExScheme-Brown-3   { color:#433a35; }
      .ExScheme-Purple-1  { color:#e2abf9; }
      .ExScheme-Purple-2  { color:#b401ff; }
      .ExScheme-Purple-3  { color:#432b4d; }
      .ExScheme-Cyan-1    { color:#b2f2e6; }
      .ExScheme-Cyan-2    { color:#31bfa6; }
      .ExScheme-Cyan-3    { color:#2b4d47; }
      .ExScheme-Magenta-1 { color:#f8a6d8; }
      .ExScheme-Magenta-2 { color:#f00091; }
      .ExScheme-Magenta-3 { color:#770048; }
    </style>
<linearGradient id="usv">
<stop offset="0"/>
<stop offset="1" stop-opacity="0"/>
</linearGradient>
<linearGradient id="usw">
<stop offset="0" stop-color="#fff"/>
<stop offset="1" stop-color="#fff" stop-opacity="0"/>
</linearGradient>
<style class="toggle-enable-crease" type="text/css">
        .folder-crease { display: none; }
    </style><style class="toggle-manilla-folders" type="text/css">
        .folder-manilla { display: none; }
    </style><radialGradient cx=".5" cy="0" id="usx" r="1" xlink:href="#usw"/><linearGradient id="usy" xlink:href="#usv" y1="1" y2=".5"/><path d="m 14,12 c -2.2,0 -4,1.8 -4,4 v 4 8 c -2.2,0 -4,1.8 -4,4 v 48 c 0,2.2 1.8,4 4,4 h 76 c 2.2,0 4,-1.8 4,-4 V 50 32 28 c 0,-2.2 -1.8,-4 -4,-4 v -4 c 0,-2.2 -1.8,-4 -4,-4 H 42 c -6,0 -6,-4 -12,-4 z" id="usz"></path><path d="m 14,12 c -2.2,0 -4,1.8 -4,4 v 4 8 h 20 c 6,0 6,-4 12,-4 h 44 v -4 c 0,-2.2 -1.8,-4 -4,-4 H 42 c -6,0 -6,-4 -12,-4 z" id="usA"></path></defs>
<g id="content" transform="translate(0,0)"><use class="folder-manilla ExScheme-Brown-1" fill="currentColor" href="#usz"></use><use class="toggle-manilla-folders ExScheme-Grey-1" fill="currentColor" href="#usz" id="primary-color"></use><use class="ColorScheme-Text" fill="currentColor" href="#usz" opacity=".1"></use><g id="emblem" transform="translate(24,32)"><path class="ExScheme-Grey-3" d="M 8,4 C 5.8,4 4,5.8 4,8 v 32 c 0,2.2 1.8,4 4,4 h 32 c 2.2,0 4,-1.8 4,-4 V 8 C 44,5.8 42.2,4 40,4 Z M 25.9,5 H 40 c 1.66,0 3,1.34 3,3 v 32 c 0,1.66 -1.34,3 -3,3 H 28.2 C 27.74,40.5 27.4,38.07 27.2,35.8 26.23,35.9 25.15,36 24,36 c -4.17,0 -7.33,-1.05 -9.45,-2.1 -2.1,-1.06 -3.26,-2.2 -3.26,-2.2 -.4,-.4 -.4,-1 0,-1.4 C 11.5,30.1 11.73,30 12,30 c .27,4e-5 .5,.1 .7,.3 0,0 .86,.87 2.74,1.8 C 17.33,33.05 20.17,34 24,34 25.1,34 26.13,33.9 27.07,33.8 26.7,28.16 27,24 27,24 h -6 c 0,0 -.8,-9.65 4.9,-19 z m 1.17,28.8 c .04,.65 .1,1.3 .15,2 2.6,-.36 4.7,-1.1 6.2,-1.9 2.1,-1.06 3.26,-2.2 3.26,-2.2 .4,-.4 .4,-1 0,-1.4 C 36.5,30.1 36.27,30 36,30 c -.27,4e-5 -.5,.1 -.7,.3 0,0 -.86,.87 -2.74,1.8 -1.34,.67 -3.16,1.34 -5.5,1.7 z M 13,14 c .55,0 1,.45 1,1 v 4 c 0,.55 -.45,1 -1,1 -.55,0 -1,-.45 -1,-1 v -4 c 0,-.55 .45,-1 1,-1 z m 22,0 c -.55,0 -1,.45 -1,1 v 4 c 0,.55 .45,1 1,1 .55,0 1,-.45 1,-1 v -4 c 0,-.55 -.45,-1 -1,-1 z" fill="currentColor" opacity=".6"/><path class="ExScheme-Grey-3" d="M 8,4 C 5.8,4 4,5.8 4,8 v 32 c 0,2.2 1.8,4 4,4 h 32 c 2.2,0 4,-1.8 4,-4 V 8 C 44,5.8 42.2,4 40,4 Z M 8,4.5 H 25.7 C 19.7,14.07 20.5,24.04 20.5,24.04 20.5,24.3 20.74,24.5 21,24.5 h 5.5 c -0,.4 -.2,3.9 .07,8.8 C 25.76,33.4 24.93,33.5 24,33.5 20.25,33.5 17.5,32.57 15.67,31.66 13.85,30.75 13.06,29.94 13.06,29.94 c -6.49e-4,-6.53e-4 -0,-0 -0,-0 C 12.8,29.66 12.4,29.5 12,29.5 c -.4,6e-5 -.8,.16 -1.06,.44 -.6,.6 -.6,1.54 0,2.1 6.49e-4,6.53e-4 0,0 0,0 0,0 1.2,1.2 3.4,2.3 C 16.5,35.43 19.75,36.5 24,36.5 c 1,0 1.9,-.1 2.8,-.2 .2,2.3 .54,4.73 1.03,7.2 H 8 C 6.05,43.5 4.5,41.95 4.5,40 V 8 C 4.5,6.05 6.05,4.5 8,4.5 Z M 25.9,5 H 40 c 1.66,0 3,1.34 3,3 v 32 c 0,1.66 -1.34,3 -3,3 H 28.2 C 27.74,40.5 27.4,38.07 27.2,35.8 26.23,35.9 25.15,36 24,36 c -4.17,0 -7.33,-1.05 -9.45,-2.1 -2.1,-1.06 -3.26,-2.2 -3.26,-2.2 -.4,-.4 -.4,-1 0,-1.4 C 11.5,30.1 11.73,30 12,30 c .27,4e-5 .5,.1 .7,.3 0,0 .86,.87 2.74,1.8 C 17.33,33.05 20.17,34 24,34 25.1,34 26.13,33.9 27.07,33.8 26.7,28.16 27,24 27,24 h -6 c 0,0 -.8,-9.65 4.9,-19 z m 1.17,28.8 c .04,.65 .1,1.3 .15,2 2.6,-.36 4.7,-1.1 6.2,-1.9 2.1,-1.06 3.26,-2.2 3.26,-2.2 .4,-.4 .4,-1 0,-1.4 C 36.5,30.1 36.27,30 36,30 c -.27,4e-5 -.5,.1 -.7,.3 0,0 -.86,.87 -2.74,1.8 -1.34,.67 -3.16,1.34 -5.5,1.7 z M 13,13.5 c -.8,0 -1.5,.7 -1.5,1.5 v 4 c 0,.8 .7,1.5 1.5,1.5 .8,0 1.5,-.7 1.5,-1.5 v -4 c 0,-.8 -.7,-1.5 -1.5,-1.5 z m 0,0.5 c .55,0 1,.45 1,1 v 4 c 0,.55 -.45,1 -1,1 -.55,0 -1,-.45 -1,-1 v -4 c 0,-.55 .45,-1 1,-1 z m 22,0 c -.55,0 -1,.45 -1,1 v 4 c 0,.55 .45,1 1,1 .55,0 1,-.45 1,-1 v -4 c 0,-.55 -.45,-1 -1,-1 z m 0,0.5 c .3,0 0.5,.2 0.5,0.5 v 4 c 0,.3 -.2,0.5 -0.5,0.5 -.3,0 -0.5,-.2 -0.5,-0.5 v -4 c 0,-.3 .2,-0.5 0.5,-0.5 z m 1,16 c .13,2e-5 .26,.05 .35,.15 .2,.2 .2,.5 0,.7 -0,0 -1.07,1.07 -3.13,2.1 -1.4,.7 -3.26,1.34 -5.54,1.7 -.03,-.34 -.05,-.67 -.1,-1 2.14,-.36 3.9,-1 5.17,-1.6 1.94,-.97 2.87,-1.9 2.87,-1.9 l 0,-0 C 35.74,30.55 35.87,30.5 36,30.5 Z" fill="currentColor" opacity=".6"/></g><use href="#usA" opacity=".4"></use><use class="toggle-flat-design" fill="url(#usy)" href="#usA" opacity=".2"></use><path class="toggle-flat-design" d="m 42,24 c -6,0 -6,4 -12,4 H 10 c -2.2,0 -4,1.8 -4,4 v 48 c 0,2.2 1.8,4 4,4 h 76 c 2.2,0 4,-1.8 4,-4 V 50 32 28 c 0,-2.2 -1.8,-4 -4,-4 z" fill="url(#usx)" opacity=".2"/><path class="folder-crease " d="m 6,66 v 3 h 13.5 c .83,0 1.5,-.67 1.5,-1.5 0,-.83 -.67,-1.5 -1.5,-1.5 z m 70.5,0 c -.83,0 -1.5,.67 -1.5,1.5 0,.83 .67,1.5 1.5,1.5 H 90 v -3 z" opacity=".4"/><path class="ColorScheme-Text" d="m 6,79 v 1 c 0,2.2 1.8,4 4,4 h 76 c 2.2,0 4,-1.8 4,-4 v -1 c 0,2.2 -1.8,4 -4,4 H 10 C 7.8,83 6,81.2 6,79 Z" fill="currentColor" opacity=".1"/><path class="ColorScheme-Text" d="M 6,79.5 V 80 c 0,2.2 1.8,4 4,4 h 76 c 2.2,0 4,-1.8 4,-4 v -0.5 c 0,2.2 -1.8,4 -4,4 H 10 c -2.2,0 -4,-1.8 -4,-4 z" fill="currentColor" opacity=".2"/><path d="m 42,24 c -6,0 -6,4 -12,4 H 10 c -2.2,0 -4,1.8 -4,4 v 1 c 0,-2.2 1.8,-4 4,-4 h 20 c 6,0 6,-4 12,-4 h 44 c 2.2,0 4,1.8 4,4 v -1 c 0,-2.2 -1.8,-4 -4,-4 z" fill="#fff" opacity=".1"/><path d="m 42,24 c -6,0 -6,4 -12,4 H 10 c -2.2,0 -4,1.8 -4,4 v 0.5 c 0,-2.2 1.8,-4 4,-4 h 20 c 6,0 6,-4 12,-4 h 44 c 2.2,0 4,1.8 4,4 V 28 c 0,-2.2 -1.8,-4 -4,-4 z" fill="#fff" opacity=".2"/><path d="m 42,23 c -6,0 -6,4 -12,4 H 10 v 1 h 20 c 6,0 6,-4 12,-4 h 44 v -1 z" opacity=".1"/><path d="m 42,23.5 c -6,0 -6,4 -12,4 H 10 V 28 h 20 c 6,0 6,-4 12,-4 h 44 v -0.5 z" opacity=".2"/></g>
</svg>