<svg height="96" version="1.1" width="96" xmlns="http://www.w3.org/2000/svg" xmlns:svg="http://www.w3.org/2000/svg" xmlns:xlink="http://www.w3.org/1999/xlink">
<defs id="primary-definitions">
<style id="current-color-scheme" type="text/css">
      .ColorScheme-Text         { color: #232629; }
      .ColorScheme-Background   { color: #eff0f1; }
      .ColorScheme-Highlight    { color: #7ec9f0; }
      .ColorScheme-PositiveText { color: #27ae60; }
      .ColorScheme-NeutralText  { color: #f67400; }
      .ColorScheme-NegativeText { color: #da4453; }
      .ColorScheme-ActiveText   { color: #3daee9; }
      .ColorScheme-Complement   { color: #ffffff; }
      .ColorScheme-Contrast     { color: #000000; }
    </style>
<style id="extended-color-scheme" type="text/css">
      .ExScheme-Black     { color:#3e3e3e; }
      .ExScheme-White     { color:#fcfcfc; }
      .ExScheme-Grey-1    { color:#cfd5d5; }
      .ExScheme-Grey-2    { color:#909c9c; }
      .ExScheme-Grey-3    { color:#536161; }
      .ExScheme-Red-1     { color:#ffafa5; }
      .ExScheme-Red-2     { color:#bf4231; }
      .ExScheme-Red-3     { color:#4d2f2b; }
      .ExScheme-Green-1   { color:#abf9c7; }
      .ExScheme-Green-2   { color:#3bb566; }
      .ExScheme-Green-3   { color:#377d50; }
      .ExScheme-Blue-1    { color:#abdaf9; }
      .ExScheme-Blue-2    { color:#3daefd; }
      .ExScheme-Blue-3    { color:#2b3c4d; }
      .ExScheme-Yellow-1  { color:#faffa5; }
      .ExScheme-Yellow-2  { color:#cac726; }
      .ExScheme-Yellow-3  { color:#4b4d2b; }
      .ExScheme-Orange-1  { color:#ffdaa5; }
      .ExScheme-Orange-2  { color:#ff9701; }
      .ExScheme-Orange-3  { color:#4d372b; }
      .ExScheme-Brown-1   { color:#e9d6bb; }
      .ExScheme-Brown-2   { color:#997657; }
      .ExScheme-Brown-3   { color:#433a35; }
      .ExScheme-Purple-1  { color:#e2abf9; }
      .ExScheme-Purple-2  { color:#b401ff; }
      .ExScheme-Purple-3  { color:#432b4d; }
      .ExScheme-Cyan-1    { color:#b2f2e6; }
      .ExScheme-Cyan-2    { color:#31bfa6; }
      .ExScheme-Cyan-3    { color:#2b4d47; }
      .ExScheme-Magenta-1 { color:#f8a6d8; }
      .ExScheme-Magenta-2 { color:#f00091; }
      .ExScheme-Magenta-3 { color:#770048; }
    </style>
<linearGradient id="ulY">
<stop offset="0"/>
<stop offset="1" stop-opacity="0"/>
</linearGradient>
<linearGradient id="ulZ">
<stop offset="0" stop-color="#fff"/>
<stop offset="1" stop-color="#fff" stop-opacity="0"/>
</linearGradient>
<style id="um0" type="text/css">
        .force-display-for-editing { display: inline !important; }
    </style><style class="remove-if__show-crease" type="text/css">
        .enable-if__show-crease { display: none; }
    </style><style class="remove-if__color-sync-mimes-places" type="text/css">
        .enable-if__color-sync-mimes-places { display: none; }
    </style><radialGradient cx=".5" cy="0" id="um1" r="1" xlink:href="#ulZ"/><linearGradient id="um2" xlink:href="#ulY" y1="1" y2=".5"/><linearGradient id="um3">
<stop offset="0" stop-color="#ff0000"/>
</linearGradient><style class="ColorScheme-Background" fill="currentColor" opacity=".6" type="text/css">
   .ColorScheme-Text           { color:#eff0f1; }
      .ColorScheme-Background     { color:#31363b; }
      .ColorScheme-Highlight      { color:#3daefd; }
      .ColorScheme-ViewBackground { color:#fcfcfc; }
      .ColorScheme-PositiveText   { color:#27ae60; }
      .ColorScheme-NeutralText    { color:#f67400; }
      .ColorScheme-NegativeText   { color:#da4453; }
  </style><path d="m 14,12 c -2.2,0 -4,1.8 -4,4 v 4 8 c -2.2,0 -4,1.8 -4,4 v 48 c 0,2.2 1.8,4 4,4 h 76 c 2.2,0 4,-1.8 4,-4 V 50 32 28 c 0,-2.2 -1.8,-4 -4,-4 v -4 c 0,-2.2 -1.8,-4 -4,-4 H 42 c -6,0 -6,-4 -12,-4 z" id="um4"></path><path d="m 14,12 c -2.2,0 -4,1.8 -4,4 v 4 8 h 20 c 6,0 6,-4 12,-4 h 44 v -4 c 0,-2.2 -1.8,-4 -4,-4 H 42 c -6,0 -6,-4 -12,-4 z" id="um5"></path></defs>
<g id="content" transform="translate(0,0)"><use class="sync-color enable-if__color-sync-mimes-places force-display-for-editing ColorScheme-ActiveText" fill="currentColor" href="#um4"></use><use class="primary-color remove-if__color-sync-mimes-places ColorScheme-ActiveText" fill="currentColor" href="#um4"></use><use class="ColorScheme-Contrast" fill="currentColor" href="#um4" opacity=".1"></use><g id="decal" transform="translate(24,32)"><path class="ColorScheme-Background" d="M 6.43 2.96 C 6.24 2.96 6.1 3.1 6.1 3.3 L 6.1 4.73 C 6.1 4.9 6.24 5.07 6.43 5.07 L 42.5 5.07 C 42.67 5.07 42.8 4.9 42.8 4.73 L 42.8 3.3 C 42.8 3.1 42.67 2.96 42.5 2.96 L 6.43 2.96 z M 8.3 5.85 C 8.13 5.85 8 6 8 6.2 L 8 41.9 C 8 42.1 8.13 42.23 8.3 42.23 L 10 42.23 C 10.2 42.23 10.37 42.1 10.37 41.9 L 10.37 6.2 C 10.37 6 10.2 5.85 10 5.85 L 8.3 5.85 z M 14.8 5.85 C 14.6 5.85 14.45 6 14.45 6.2 L 14.45 7.5 C 14.45 7.7 14.6 7.85 14.8 7.85 L 16.9 7.85 C 17.07 7.85 17.23 7.7 17.23 7.5 L 17.23 6.2 C 17.23 6 17.07 5.85 16.9 5.85 L 14.8 5.85 z M 11.6 5.9 C 11.4 5.9 11.25 6.04 11.25 6.23 L 11.25 7.7 C 11.25 7.9 11.4 8.04 11.6 8.04 L 13.2 8.04 C 13.4 8.04 13.56 7.9 13.56 7.7 L 13.56 6.23 C 13.56 6.04 13.4 5.9 13.2 5.9 L 11.6 5.9 z M 31.5 5.9 C 31.3 5.9 31.15 6.04 31.15 6.23 L 31.15 7.5 C 31.15 7.7 31.3 7.85 31.5 7.85 L 33.7 7.85 C 33.9 7.85 34.04 7.7 34.04 7.5 L 34.04 6.23 C 34.04 6.04 33.9 5.9 33.7 5.9 L 31.5 5.9 z M 38.9 5.9 C 38.7 5.9 38.55 6.07 38.55 6.25 L 38.55 41.93 C 38.55 42.1 38.7 42.27 38.9 42.27 L 40.6 42.27 C 40.8 42.27 40.94 42.1 40.94 41.93 L 40.94 6.25 C 40.94 6.07 40.8 5.9 40.6 5.9 L 38.9 5.9 z M 18.34 6.77 C 18.16 6.77 18 6.93 18 7.1 L 18 8.1 C 18 8.27 18.16 8.43 18.34 8.43 L 20.86 8.43 C 21.04 8.43 21.2 8.27 21.2 8.1 L 21.2 7.1 C 21.2 6.93 21.04 6.77 20.86 6.77 L 18.34 6.77 z M 35.07 6.77 C 34.9 6.77 34.73 6.93 34.73 7.1 L 34.73 8.1 C 34.73 8.27 34.9 8.43 35.07 8.43 L 37.36 8.43 C 37.54 8.43 37.7 8.27 37.7 8.1 L 37.7 7.1 C 37.7 6.93 37.54 6.77 37.36 6.77 L 35.07 6.77 z M 26.2 7.4 C 26 7.4 25.87 7.54 25.87 7.73 L 25.87 9.24 C 25.87 9.43 26 9.6 26.2 9.6 L 27.4 9.6 C 27.6 9.6 27.75 9.43 27.75 9.24 L 27.75 7.73 C 27.75 7.54 27.6 7.4 27.4 7.4 L 26.2 7.4 z M 22.27 7.77 C 22.1 7.77 21.93 7.93 21.93 8.1 L 21.93 9.16 C 21.93 9.35 22.1 9.5 22.27 9.5 L 24.7 9.5 C 24.9 9.5 25.05 9.35 25.05 9.16 L 25.05 8.1 C 25.05 7.93 24.9 7.77 24.7 7.77 L 22.27 7.77 z M 28.83 7.77 C 28.64 7.77 28.5 7.93 28.5 8.1 L 28.5 9.4 C 28.5 9.6 28.64 9.74 28.83 9.74 L 30.03 9.74 C 30.2 9.74 30.37 9.6 30.37 9.4 L 30.37 8.1 C 30.37 7.93 30.2 7.77 30.03 7.77 L 28.83 7.77 z M 14.64 8.4 C 14.46 8.4 14.3 8.55 14.3 8.73 L 14.3 13 C 14.3 13.17 14.46 13.3 14.64 13.3 L 16.9 13.3 C 17.07 13.3 17.23 13.17 17.23 13 L 17.23 8.73 C 17.23 8.55 17.07 8.4 16.9 8.4 L 14.64 8.4 z M 31.45 8.4 C 31.26 8.4 31.1 8.55 31.1 8.73 L 31.1 12.94 C 31.1 13.13 31.26 13.3 31.45 13.3 L 33.73 13.3 C 33.9 13.3 34.07 13.13 34.07 12.94 L 34.07 8.73 C 34.07 8.55 33.9 8.4 33.73 8.4 L 31.45 8.4 z M 11.56 8.85 C 11.37 8.85 11.2 9 11.2 9.2 L 11.2 9.8 C 11.2 9.9 11.37 10.04 11.56 10.04 L 13.2 10.04 C 13.4 10.04 13.56 9.9 13.56 9.8 L 13.56 9.2 C 13.56 9 13.4 8.85 13.2 8.85 L 11.56 8.85 z M 35.07 8.93 C 34.9 8.93 34.73 9.1 34.73 9.27 L 34.73 13.23 C 34.73 13.4 34.9 13.57 35.07 13.57 L 37.4 13.57 C 37.57 13.57 37.73 13.4 37.73 13.23 L 37.73 9.27 C 37.73 9.1 37.57 8.93 37.4 8.93 L 35.07 8.93 z M 18.3 8.97 C 18.1 8.97 17.96 9.13 17.96 9.3 L 17.96 13.33 C 17.96 13.5 18.1 13.67 18.3 13.67 L 20.86 13.67 C 21.04 13.67 21.2 13.5 21.2 13.33 L 21.2 9.3 C 21.2 9.13 21.04 8.97 20.86 8.97 L 18.3 8.97 z M 22.27 10 C 22.1 10 21.93 10.17 21.93 10.35 L 21.93 13.3 C 21.93 13.47 22.1 13.63 22.27 13.63 L 24.67 13.63 C 24.86 13.63 25 13.47 25 13.3 L 25 10.35 C 25 10.17 24.86 10 24.67 10 L 22.27 10 z M 26.17 10.1 C 26 10.1 25.83 10.3 25.83 10.47 L 25.83 15.33 C 25.83 15.5 26 15.67 26.17 15.67 L 27.4 15.67 C 27.6 15.67 27.75 15.5 27.75 15.33 L 27.75 10.47 C 27.75 10.3 27.6 10.1 27.4 10.1 L 26.17 10.1 z M 28.83 10.24 C 28.64 10.24 28.5 10.4 28.5 10.6 L 28.5 15.33 C 28.5 15.5 28.64 15.67 28.83 15.67 L 30.03 15.67 C 30.2 15.67 30.37 15.5 30.37 15.33 L 30.37 10.6 C 30.37 10.4 30.2 10.24 30.03 10.24 L 28.83 10.24 z M 11.56 10.6 C 11.37 10.6 11.2 10.8 11.2 10.97 L 11.2 15.33 C 11.2 15.5 11.37 15.67 11.56 15.67 L 13.2 15.67 C 13.4 15.67 13.56 15.5 13.56 15.33 L 13.56 10.97 C 13.56 10.8 13.4 10.6 13.2 10.6 L 11.56 10.6 z M 14.7 13.83 C 14.5 13.83 14.34 14 14.34 14.17 L 14.34 15.3 C 14.34 15.5 14.5 15.63 14.7 15.63 L 16.9 15.63 C 17.07 15.63 17.23 15.5 17.23 15.3 L 17.23 14.17 C 17.23 14 17.07 13.83 16.9 13.83 L 14.7 13.83 z M 31.5 13.83 C 31.3 13.83 31.15 14 31.15 14.17 L 31.15 15.33 C 31.15 15.5 31.3 15.67 31.5 15.67 L 33.74 15.67 C 33.9 15.67 34.1 15.5 34.1 15.33 L 34.1 14.17 C 34.1 14 33.9 13.83 33.74 13.83 L 31.5 13.83 z M 18.34 14.17 C 18.16 14.17 18 14.33 18 14.5 L 18 15.33 C 18 15.5 18.16 15.67 18.34 15.67 L 20.86 15.67 C 21.04 15.67 21.2 15.5 21.2 15.33 L 21.2 14.5 C 21.2 14.33 21.04 14.17 20.86 14.17 L 18.34 14.17 z M 22.27 14.17 C 22.1 14.17 21.93 14.33 21.93 14.5 L 21.93 15.33 C 21.93 15.5 22.1 15.67 22.27 15.67 L 24.7 15.67 C 24.9 15.67 25.06 15.5 25.06 15.33 L 25.06 14.5 C 25.06 14.33 24.9 14.17 24.7 14.17 L 22.27 14.17 z M 35.07 14.17 C 34.9 14.17 34.73 14.33 34.73 14.5 L 34.73 15.33 C 34.73 15.5 34.9 15.67 35.07 15.67 L 37.43 15.67 C 37.6 15.67 37.77 15.5 37.77 15.33 L 37.77 14.5 C 37.77 14.33 37.6 14.17 37.43 14.17 L 35.07 14.17 z M 11.5 16.33 C 11.3 16.33 11.14 16.5 11.14 16.67 L 11.14 18 C 11.14 18.2 11.3 18.33 11.5 18.33 L 37.4 18.33 C 37.6 18.33 37.73 18.2 37.73 18 L 37.73 16.67 C 37.73 16.5 37.6 16.33 37.4 16.33 L 11.5 16.33 z M 29.97 19.16 C 29.8 19.16 29.63 19.3 29.63 19.5 L 29.63 21.04 C 29.63 21.2 29.8 21.4 29.97 21.4 L 32.27 21.4 C 32.45 21.4 32.6 21.2 32.6 21.04 L 32.6 19.5 C 32.6 19.3 32.45 19.16 32.27 19.16 L 29.97 19.16 z M 14.64 19.2 C 14.46 19.2 14.3 19.35 14.3 19.53 L 14.3 21.04 C 14.3 21.2 14.46 21.4 14.64 21.4 L 16.9 21.4 C 17.1 21.4 17.27 21.2 17.27 21.04 L 17.27 19.53 C 17.27 19.35 17.1 19.2 16.9 19.2 L 14.64 19.2 z M 21.2 19.23 C 21 19.23 20.86 19.4 20.86 19.6 L 20.86 21.65 C 20.86 21.84 21 22 21.2 22 L 22.54 22 C 22.73 22 22.9 21.84 22.9 21.65 L 22.9 19.6 C 22.9 19.4 22.73 19.23 22.54 19.23 L 21.2 19.23 z M 26.7 20.2 C 26.5 20.2 26.37 20.4 26.37 20.57 L 26.37 21.7 C 26.37 21.9 26.5 22.03 26.7 22.03 L 28.45 22.03 C 28.63 22.03 28.8 21.9 28.8 21.7 L 28.8 20.57 C 28.8 20.4 28.63 20.2 28.45 20.2 L 26.7 20.2 z M 18.35 20.26 C 18.17 20.26 18 20.4 18 20.6 L 18 21.73 C 18 21.9 18.17 22.07 18.35 22.07 L 19.7 22.07 C 19.9 22.07 20.04 21.9 20.04 21.73 L 20.04 20.6 C 20.04 20.4 19.9 20.26 19.7 20.26 L 18.35 20.26 z M 36.15 20.26 C 35.97 20.26 35.8 20.4 35.8 20.6 L 35.8 21.9 C 35.8 22.1 35.97 22.27 36.15 22.27 L 37.4 22.27 C 37.6 22.27 37.73 22.1 37.73 21.9 L 37.73 20.6 C 37.73 20.4 37.6 20.26 37.4 20.26 L 36.15 20.26 z M 11.56 20.43 C 11.37 20.43 11.2 20.6 11.2 20.77 L 11.2 21.9 C 11.2 22.07 11.37 22.23 11.56 22.23 L 13.2 22.23 C 13.4 22.23 13.56 22.07 13.56 21.9 L 13.56 20.77 C 13.56 20.6 13.4 20.43 13.2 20.43 L 11.56 20.43 z M 24.1 20.8 C 23.94 20.8 23.8 21 23.8 21.16 L 23.8 22.5 C 23.8 22.7 23.94 22.84 24.1 22.84 L 25.25 22.84 C 25.44 22.84 25.6 22.7 25.6 22.5 L 25.6 21.16 C 25.6 21 25.43 20.8 25.25 20.8 L 24.1 20.8 z M 33.7 21.1 C 33.5 21.1 33.34 21.27 33.34 21.45 L 33.34 22.66 C 33.34 22.84 33.5 23 33.7 23 L 34.8 23 C 35 23 35.15 22.84 35.15 22.66 L 35.15 21.45 C 35.15 21.27 35 21.1 34.8 21.1 L 33.7 21.1 z M 14.64 21.9 C 14.46 21.9 14.3 22.04 14.3 22.2 L 14.3 25.8 C 14.3 26 14.46 26.16 14.64 26.16 L 16.9 26.16 C 17.1 26.16 17.27 26 17.27 25.8 L 17.27 22.2 C 17.27 22.04 17.1 21.9 16.9 21.9 L 14.64 21.9 z M 29.9 21.9 C 29.7 21.9 29.56 22.04 29.56 22.2 L 29.56 25.8 C 29.56 26 29.7 26.16 29.9 26.16 L 32.27 26.16 C 32.45 26.16 32.6 26 32.6 25.8 L 32.6 22.2 C 32.6 22.04 32.45 21.9 32.27 21.9 L 29.9 21.9 z M 26.67 22.6 C 26.5 22.6 26.33 22.73 26.33 22.9 L 26.33 28.25 C 26.33 28.43 26.5 28.6 26.67 28.6 L 28.45 28.6 C 28.63 28.6 28.8 28.43 28.8 28.25 L 28.8 22.9 C 28.8 22.73 28.63 22.6 28.45 22.6 L 26.67 22.6 z M 21.2 22.6 C 21 22.6 20.85 22.74 20.85 22.93 L 20.85 28.25 C 20.85 28.43 21 28.6 21.2 28.6 L 22.67 28.6 C 22.85 28.6 23 28.43 23 28.25 L 23 22.93 C 23 22.74 22.85 22.6 22.67 22.6 L 21.2 22.6 z M 18.3 22.6 C 18.1 22.6 17.96 22.77 17.96 22.96 L 17.96 28.25 C 17.96 28.43 18.1 28.6 18.3 28.6 L 19.66 28.6 C 19.85 28.6 20 28.43 20 28.25 L 20 22.96 C 20 22.77 19.85 22.6 19.66 22.6 L 18.3 22.6 z M 11.56 22.8 C 11.37 22.8 11.2 22.96 11.2 23.15 L 11.2 26 C 11.2 26.2 11.37 26.35 11.56 26.35 L 13.2 26.35 C 13.37 26.35 13.53 26.2 13.53 26 L 13.53 23.15 C 13.53 22.96 13.37 22.8 13.2 22.8 L 11.56 22.8 z M 36.15 22.8 C 35.97 22.8 35.8 22.96 35.8 23.15 L 35.8 28.3 C 35.8 28.47 35.97 28.6 36.15 28.6 L 37.43 28.6 C 37.6 28.6 37.77 28.47 37.77 28.3 L 37.77 23.15 C 37.77 22.96 37.6 22.8 37.43 22.8 L 36.15 22.8 z M 24.1 23.4 C 23.94 23.4 23.8 23.6 23.8 23.77 L 23.8 28.2 C 23.8 28.4 23.94 28.55 24.1 28.55 L 25.33 28.55 C 25.5 28.55 25.67 28.4 25.67 28.2 L 25.67 23.77 C 25.67 23.6 25.5 23.4 25.33 23.4 L 24.1 23.4 z M 33.7 23.5 C 33.5 23.5 33.34 23.65 33.34 23.84 L 33.34 28.25 C 33.34 28.43 33.5 28.6 33.7 28.6 L 34.77 28.6 C 34.96 28.6 35.1 28.43 35.1 28.25 L 35.1 23.84 C 35.1 23.65 34.96 23.5 34.77 23.5 L 33.7 23.5 z M 29.87 26.7 C 29.7 26.7 29.53 26.86 29.53 27.04 L 29.53 28.3 C 29.53 28.47 29.7 28.6 29.87 28.6 L 32.27 28.6 C 32.45 28.6 32.6 28.47 32.6 28.3 L 32.6 27.04 C 32.6 26.86 32.45 26.7 32.27 26.7 L 29.87 26.7 z M 14.64 26.75 C 14.46 26.75 14.3 26.9 14.3 27.1 L 14.3 28.25 C 14.3 28.43 14.46 28.6 14.64 28.6 L 16.9 28.6 C 17.07 28.6 17.23 28.43 17.23 28.25 L 17.23 27.1 C 17.23 26.9 17.07 26.75 16.9 26.75 L 14.64 26.75 z M 11.6 26.93 C 11.4 26.93 11.25 27.1 11.25 27.27 L 11.25 28.25 C 11.25 28.43 11.4 28.6 11.6 28.6 L 13.2 28.6 C 13.37 28.6 13.53 28.43 13.53 28.25 L 13.53 27.27 C 13.53 27.1 13.37 26.93 13.2 26.93 L 11.6 26.93 z M 11.74 29.2 C 11.55 29.2 11.4 29.4 11.4 29.57 L 11.4 30.9 C 11.4 31.1 11.55 31.25 11.74 31.25 L 37.44 31.25 C 37.6 31.25 37.8 31.1 37.8 30.9 L 37.8 29.57 C 37.8 29.4 37.6 29.2 37.44 29.2 L 11.74 29.2 z M 22.5 32 C 22.3 32 22.15 32.16 22.15 32.34 L 22.15 34.03 C 22.15 34.2 22.3 34.37 22.5 34.37 L 24 34.37 C 24.16 34.37 24.3 34.2 24.3 34.03 L 24.3 32.34 C 24.3 32.16 24.16 32 24 32 L 22.5 32 z M 14.64 32.1 C 14.46 32.1 14.3 32.25 14.3 32.43 L 14.3 33.45 C 14.3 33.63 14.46 33.8 14.64 33.8 L 16.9 33.8 C 17.1 33.8 17.27 33.63 17.27 33.45 L 17.27 32.43 C 17.27 32.25 17.1 32.1 16.9 32.1 L 14.64 32.1 z M 11.56 33.14 C 11.37 33.14 11.2 33.4 11.2 33.5 L 11.2 34.6 C 11.2 34.8 11.37 34.95 11.56 34.95 L 13.2 34.95 C 13.4 34.95 13.56 34.8 13.56 34.6 L 13.56 33.5 C 13.56 33.4 13.4 33.14 13.2 33.14 L 11.56 33.14 z M 18.34 33.14 C 18.16 33.14 18 33.4 18 33.5 L 18 34.6 C 18 34.8 18.16 34.95 18.34 34.95 L 20.86 34.95 C 21.04 34.95 21.2 34.8 21.2 34.6 L 21.2 33.5 C 21.2 33.3 21.04 33.14 20.86 33.14 L 18.34 33.14 z M 29.83 33.14 C 29.65 33.14 29.5 33.4 29.5 33.5 L 29.5 34.6 C 29.5 34.8 29.64 34.95 29.83 34.95 L 32.5 34.95 C 32.7 34.95 32.84 34.8 32.84 34.6 L 32.84 33.5 C 32.84 33.3 32.7 33.14 32.5 33.14 L 29.83 33.14 z M 33.93 33.2 C 33.75 33.2 33.6 33.34 33.6 33.53 L 33.6 34.64 C 33.6 34.83 33.75 35 33.93 35 L 37.4 35 C 37.6 35 37.73 34.83 37.73 34.64 L 37.73 33.53 C 37.73 33.34 37.6 33.2 37.4 33.2 L 33.93 33.2 z M 14.63 34.4 C 14.45 34.4 14.3 34.54 14.3 34.73 L 14.3 35.53 C 14.3 35.7 14.45 35.87 14.63 35.87 L 16.9 35.87 C 17.1 35.87 17.27 35.7 17.27 35.53 L 17.27 34.73 C 17.27 34.54 17.1 34.4 16.9 34.4 L 14.63 34.4 z M 25.44 34.83 C 25.25 34.83 25.1 35 25.1 35.2 L 25.1 36.26 C 25.1 36.45 25.25 36.6 25.44 36.6 L 28.37 36.6 C 28.56 36.6 28.7 36.45 28.7 36.26 L 28.7 35.2 C 28.7 35 28.56 34.83 28.37 34.83 L 25.44 34.83 z M 22.3 34.87 C 22.13 34.87 21.97 35.03 21.97 35.2 L 21.97 36.2 C 21.97 36.37 22.13 36.53 22.3 36.53 L 24 36.53 C 24.16 36.53 24.3 36.37 24.3 36.2 L 24.3 35.2 C 24.3 35.03 24.16 34.87 24 34.87 L 22.3 34.87 z M 11.56 35.53 C 11.37 35.53 11.2 35.7 11.2 35.87 L 11.2 39.85 C 11.2 40.03 11.37 40.2 11.56 40.2 L 13.2 40.2 C 13.4 40.2 13.56 40.03 13.56 39.85 L 13.56 35.87 C 13.56 35.7 13.4 35.53 13.2 35.53 L 11.56 35.53 z M 29.83 35.53 C 29.65 35.53 29.5 35.7 29.5 35.87 L 29.5 39.76 C 29.5 39.95 29.65 40.1 29.83 40.1 L 32.5 40.1 C 32.7 40.1 32.84 39.95 32.84 39.76 L 32.84 35.87 C 32.84 35.7 32.7 35.53 32.5 35.53 L 29.83 35.53 z M 18.3 35.57 C 18.1 35.57 17.96 35.7 17.96 35.9 L 17.96 39.85 C 17.96 40.03 18.1 40.2 18.3 40.2 L 20.86 40.2 C 21.04 40.2 21.2 40.03 21.2 39.85 L 21.2 35.9 C 21.2 35.7 21.04 35.57 20.86 35.57 L 18.3 35.57 z M 33.9 35.57 C 33.7 35.57 33.54 35.7 33.54 35.9 L 33.54 39.85 C 33.54 40.04 33.7 40.2 33.9 40.2 L 37.43 40.2 C 37.6 40.2 37.77 40.03 37.77 39.85 L 37.77 35.9 C 37.77 35.7 37.6 35.57 37.43 35.57 L 33.9 35.57 z M 14.64 36.4 C 14.46 36.4 14.3 36.53 14.3 36.7 L 14.3 37.73 C 14.3 37.9 14.46 38.07 14.64 38.07 L 16.9 38.07 C 17.07 38.07 17.23 37.9 17.23 37.73 L 17.23 36.7 C 17.23 36.53 17.07 36.4 16.9 36.4 L 14.64 36.4 z M 22.3 37.03 C 22.13 37.03 21.97 37.2 21.97 37.37 L 21.97 41.9 C 21.97 42.1 22.13 42.23 22.3 42.23 L 24 42.23 C 24.16 42.23 24.3 42.1 24.3 41.9 L 24.3 37.37 C 24.3 37.2 24.16 37.03 24 37.03 L 22.3 37.03 z M 25.44 37.07 C 25.25 37.07 25.1 37.23 25.1 37.4 L 25.1 38.9 C 25.1 39.1 25.25 39.27 25.44 39.27 L 28.4 39.27 C 28.6 39.27 28.75 39.1 28.75 38.9 L 28.75 37.4 C 28.75 37.23 28.6 37.07 28.4 37.07 L 25.44 37.07 z M 14.64 38.6 C 14.46 38.6 14.3 38.77 14.3 38.96 L 14.3 39.85 C 14.3 40.03 14.46 40.2 14.64 40.2 L 16.9 40.2 C 17.1 40.2 17.27 40.03 17.27 39.85 L 17.27 38.96 C 17.27 38.77 17.1 38.6 16.9 38.6 L 14.64 38.6 z M 25.44 39.77 C 25.25 39.77 25.1 39.93 25.1 40.1 L 25.1 41.93 C 25.1 42.1 25.25 42.27 25.44 42.27 L 28.4 42.27 C 28.6 42.27 28.75 42.1 28.75 41.93 L 28.75 40.1 C 28.75 39.93 28.6 39.77 28.4 39.77 L 25.44 39.77 z M 14.64 40.7 C 14.46 40.7 14.3 40.85 14.3 41.04 L 14.3 41.9 C 14.3 42.1 14.46 42.23 14.64 42.23 L 16.9 42.23 C 17.07 42.23 17.23 42.1 17.23 41.9 L 17.23 41.04 C 17.23 40.85 17.07 40.7 16.9 40.7 L 14.64 40.7 z M 18.36 40.7 C 18.17 40.7 18 40.85 18 41.04 L 18 41.9 C 18 42.1 18.17 42.23 18.36 42.23 L 20.8 42.23 C 21 42.23 21.16 42.1 21.16 41.9 L 21.16 41.04 C 21.16 40.85 21 40.7 20.8 40.7 L 18.36 40.7 z M 11.6 40.73 C 11.4 40.73 11.25 40.9 11.25 41.07 L 11.25 41.9 C 11.25 42.1 11.4 42.23 11.6 42.23 L 13.2 42.23 C 13.37 42.23 13.53 42.1 13.53 41.9 L 13.53 41.07 C 13.53 40.9 13.37 40.73 13.2 40.73 L 11.6 40.73 z M 29.87 40.73 C 29.7 40.73 29.53 40.9 29.53 41.07 L 29.53 41.9 C 29.53 42.1 29.7 42.23 29.87 42.23 L 32.46 42.23 C 32.64 42.23 32.9 42.1 32.9 41.9 L 32.9 41.07 C 32.9 40.9 32.64 40.73 32.46 40.73 L 29.87 40.73 z M 33.9 40.73 C 33.7 40.73 33.54 40.9 33.54 41.07 L 33.54 41.9 C 33.54 42.1 33.7 42.23 33.9 42.23 L 37.4 42.23 C 37.6 42.23 37.73 42.1 37.73 41.9 L 37.73 41.07 C 37.73 40.9 37.6 40.73 37.4 40.73 L 33.9 40.73 z M 6.5 42.93 C 6.3 42.93 6.16 43.1 6.16 43.27 L 6.16 44.67 C 6.16 44.85 6.3 45 6.5 45 L 42.5 45 C 42.67 45 42.8 44.85 42.8 44.67 L 42.8 43.27 C 42.8 43.1 42.67 42.93 42.5 42.93 L 6.5 42.93 z " fill="currentColor" opacity=".6"/><path class="ColorScheme-Background" d="m 6.43,2.96 c -.2,0 -.34,.16 -.34,.34 v 1.43 c 0,.2 .16,.34 .34,.34 H 42.5 c .2,0 .34,-.16 .34,-.34 v -1.43 c 0,-.2 -.16,-.34 -.34,-.34 z m .16,.5 H 42.3 v 1.1 H 6.6 Z m 1.73,2.4 c -.2,0 -.34,.16 -.34,.34 V 41.9 c 0,.2 .16,.34 .34,.34 h 1.7 c .2,0 .34,-.16 .34,-.34 V 6.2 c 0,-.2 -.16,-.34 -.34,-.34 z m 6.47,0 c -.2,0 -.34,.16 -.34,.34 v 1.3 c 0,.2 .16,.34 .34,.34 h 2.1 c .2,0 .34,-.16 .34,-.34 v -1.3 c 0,-.2 -.16,-.34 -.34,-.34 z m -3.2,.04 c -.2,0 -.34,.16 -.34,.34 v 1.47 c 0,.2 .16,.34 .34,.34 h 1.63 c .2,0 .34,-.16 .34,-.34 v -1.47 c 0,-.2 -.16,-.34 -.34,-.34 z m 19.9,0 c -.2,0 -.34,.16 -.34,.34 v 1.3 c 0,.2 .16,.34 .34,.34 h 2.2 c .2,0 .34,-.16 .34,-.34 v -1.3 c 0,-.2 -.16,-.34 -.34,-.34 z m 7.4,.03 c -.2,0 -.34,.16 -.34,.34 V 41.93 c 0,.2 .16,.34 .34,.34 h 1.7 c .2,0 .34,-.16 .34,-.34 V 6.25 c 0,-.2 -.16,-.34 -.34,-.34 z M 8.5,6.35 h 1.4 V 41.74 h -1.4 z m 6.47,0 h 1.8 v 1 h -1.8 z m -3.2,.04 h 1.3 v 1.16 h -1.3 z m 19.9,0 h 1.9 v .97 h -1.9 z m 7.4,.03 h 1.4 V 41.77 H 39.04 Z M 18.34,6.77 C 18.16,6.77 18,6.93 18,7.1 v .97 c 0,.2 .16,.34 .34,.34 h 2.5 c .2,-10e-7 .34,-.16 .34,-.34 v -.97 c 0,-.2 -.16,-.34 -.34,-.34 z m 16.73,0 c -.2,0 -.34,.16 -.34,.34 v .97 c 0,.2 .16,.34 .34,.34 h 2.3 c .2,-10e-7 .34,-.16 .34,-.34 v -.97 c 0,-.2 -.16,-.34 -.34,-.34 z m -16.57,.5 h 2.2 v .66 h -2.2 z m 16.73,0 h 1.97 v .66 h -1.97 z m -9,.1 c -.2,0 -.34,.16 -.34,.34 v 1.5 c 0,.2 .16,.34 .34,.34 h 1.2 c .2,0 .34,-.16 .34,-.34 v -1.5 c 0,-.2 -.16,-.34 -.34,-.34 z m -3.93,.4 c -.2,0 -.34,.16 -.34,.34 v 1.05 c 0,.2 .16,.34 .34,.34 h 2.44 c .2,0 .34,-.16 .34,-.34 v -1.05 c 0,-.2 -.16,-.34 -.34,-.34 z m 6.55,0 c -.2,0 -.34,.16 -.34,.34 v 1.3 c 0,.2 .16,.34 .34,.34 h 1.2 c .2,0 .34,-.16 .34,-.34 v -1.3 c 0,-.2 -.16,-.34 -.34,-.34 z m -2.46,.1 h .9 v 1.2 h -.9 z m -3.93,.4 h 2.1 v .74 h -2.1 z m 6.55,0 h .9 v .97 h -.9 z m -14.34,.1 c -.2,0 -.34,.16 -.34,.34 v 4.25 c 0,.2 .16,.34 .34,.34 h 2.24 c .2,0 .34,-.16 .34,-.34 V 8.73 c 0,-.2 -.16,-.34 -.34,-.34 z m 16.8,0 c -.2,0 -.34,.16 -.34,.34 v 4.2 c 0,.2 .16,.34 .34,.34 h 2.3 c .2,0 .34,-.16 .34,-.34 V 8.73 c 0,-.2 -.16,-.34 -.34,-.34 z m -19.9,.46 c -.2,0 -.34,.16 -.34,.34 v .5 c 0,.2 .16,.34 .34,.34 h 1.67 c .2,0 .34,-.16 .34,-.34 v -.5 c 0,-.2 -.16,-.34 -.34,-.34 z m 3.24,.04 h 1.93 v 3.94 h -1.93 z m 16.8,0 h 1.97 v 3.9 h -1.97 z m 3.47,.04 c -.2,0 -.34,.16 -.34,.34 v 3.96 c 0,.2 .16,.34 .34,.34 h 2.3 c .2,0 .34,-.16 .34,-.34 V 9.27 c 10e-7,-.2 -.16,-.34 -.34,-.34 z m -16.77,.04 c -.2,0 -.34,.16 -.34,.34 v 4 c 0,.2 .16,.34 .34,.34 h 2.55 c .2,0 .34,-.16 .34,-.34 V 9.3 c 0,-.2 -.16,-.34 -.34,-.34 z m -6.6,.4 h 1.35 v .2 h -1.35 z m 23.5,.07 h 2 v 3.65 h -2 z m -16.77,.04 h 2.24 V 13.17 h -2.24 z m 3.8,.54 c -.2,0 -.34,.16 -.34,.34 v 2.94 c 0,.2 .16,.34 .34,.34 h 2.4 c .2,0 .34,-.16 .34,-.34 v -2.94 c 0,-.2 -.16,-.34 -.34,-.34 z m 3.9,.1 c -.2,0 -.34,.16 -.34,.34 v 4.87 c 0,.2 .16,.34 .34,.34 h 1.24 c .2,0 .34,-.16 .34,-.34 v -4.87 c 0,-.2 -.16,-.34 -.34,-.34 z m 2.66,.1 c -.2,0 -.34,.16 -.34,.34 v 4.75 c 0,.2 .16,.34 .34,.34 h 1.2 c .2,0 .34,-.16 .34,-.34 v -4.75 c 0,-.2 -.16,-.34 -.34,-.34 z m -6.4,.27 h 2.1 v 2.6 h -2.1 z m 3.9,.1 h .93 v 4.55 h -.93 z m -14.77,0 c -.2,0 -.34,.16 -.34,.34 v 4.36 c 0,.2 .16,.34 .34,.34 h 1.67 c .2,0 .34,-.16 .34,-.34 v -4.36 c 0,-.2 -.16,-.34 -.34,-.34 z m 17.43,.1 h .9 v 4.44 h -.9 z m -17.27,.4 h 1.35 v 4.05 h -1.35 z m 2.96,2.7 c -.2,0 -.34,.16 -.34,.34 v 1.1 c 0,.2 .16,.34 .34,.34 h 2.2 c .2,0 .34,-.16 .34,-.34 v -1.1 c 10e-7,-.2 -.16,-.34 -.34,-.34 z m 16.8,0 c -.2,0 -.34,.16 -.34,.34 v 1.16 c 0,.2 .16,.34 .34,.34 h 2.25 c .2,0 .34,-.16 .34,-.34 v -1.16 c 0,-.2 -.16,-.34 -.34,-.34 z M 18.34,14.17 C 18.16,14.17 18,14.33 18,14.5 v .8 c 0,.2 .16,.34 .34,.34 h 2.5 c .2,0 .34,-.16 .34,-.34 v -.8 c 0,-.2 -.16,-.34 -.34,-.34 z m 3.93,0 c -.2,0 -.34,.16 -.34,.34 v .8 c 0,.2 .16,.34 .34,.34 h 2.44 c .2,0 .34,-.16 .34,-.34 v -.8 c 0,-.2 -.16,-.34 -.34,-.34 z m 12.8,0 c -.2,0 -.34,.16 -.34,.34 v .8 c 0,.2 .16,.34 .34,.34 h 2.36 c .2,0 .34,-.16 .34,-.34 v -.8 c 10e-7,-.2 -.16,-.34 -.34,-.34 z m -20.24,.15 h 1.9 v .8 h -1.9 z m 16.8,0 h 1.94 v .85 h -1.94 z m -13.15,.35 h 2.2 v .5 h -2.2 z m 3.93,0 h 2.13 v .5 h -2.13 z m 12.8,0 h 2.05 v .5 h -2.05 z m -23.75,1.66 c -.2,-1e-6 -.34,.16 -.34,.34 v 1.3 c 0,.2 .16,.34 .34,.34 h 25.9 c .2,0 .34,-.16 .34,-.34 v -1.3 c 0,-.2 -.16,-.34 -.34,-.34 z m .16,.5 h 25.6 v 1 H 11.64 Z m 18.33,2.33 c -.2,0 -.34,.16 -.34,.34 v 1.54 c 0,.2 .16,.34 .34,.34 h 2.3 c .2,0 .34,-.16 .34,-.34 v -1.54 c 0,-.2 -.16,-.34 -.34,-.34 z m -15.33,.03 c -.2,0 -.34,.16 -.34,.34 v 1.5 c 0,.2 .16,.34 .34,.34 h 2.3 c .2,-1e-6 .34,-.16 .34,-.34 v -1.5 c 0,-.2 -.16,-.34 -.34,-.34 z m 6.56,.04 c -.2,0 -.34,.16 -.34,.34 v 2.1 c 0,.2 .16,.34 .34,.34 h 1.34 c .2,0 .34,-.16 .34,-.34 v -2.1 c 0,-.2 -.16,-.34 -.34,-.34 z m 8.93,.4 h 2 v 1.2 H 30.13 Z M 14.8,19.7 h 1.97 v 1.2 h -1.97 z m 6.56,.05 h 1.03 v 1.76 h -1.03 z m 5.35,.5 c -.2,0 -.34,.16 -.34,.34 v 1.13 c 0,.2 .16,.34 .34,.34 h 1.74 c .2,0 .34,-.16 .34,-.34 v -1.13 c 0,-.2 -.16,-.34 -.34,-.34 z m -8.35,.04 c -.2,0 -.34,.16 -.34,.34 v 1.1 c 0,.2 .16,.34 .34,.34 h 1.35 c .2,0 .34,-.16 .34,-.34 v -1.1 c 0,-.2 -.16,-.34 -.34,-.34 z m 17.8,0 c -.2,0 -.34,.16 -.34,.34 v 1.3 c 0,.2 .16,.34 .34,.34 h 1.24 c .2,0 .34,-.16 .34,-.34 v -1.3 c 0,-.2 -.16,-.34 -.34,-.34 z m -24.6,.16 c -.2,0 -.34,.16 -.34,.34 v 1.1 c 0,.2 .16,.34 .34,.34 h 1.67 c .2,0 .34,-.16 .34,-.34 v -1.1 c 0,-.2 -.16,-.34 -.34,-.34 z m 15.3,.3 h 1.43 v .8 h -1.43 z m -8.35,.04 h 1.03 v .8 h -1.03 z m 17.8,0 h .93 v 1 H 36.3 Z M 24.1,20.8 c -.2,0 -.34,.16 -.34,.34 v 1.34 c 0,.2 .16,.34 .34,.34 h 1.1 c .2,0 .34,-.16 .34,-.34 v -1.34 c 0,-.2 -.16,-.34 -.34,-.34 z m -12.4,.1 h 1.35 v .8 h -1.35 z m 21.97,.2 c -.2,0 -.34,.16 -.34,.34 v 1.2 c 0,.2 .16,.34 .34,.34 h 1.1 c .2,0 .34,-.16 .34,-.34 v -1.2 c 0,-.2 -.16,-.34 -.34,-.34 z m -9.4,.2 h .8 v 1.03 h -.8 z m 9.56,.3 h .8 v .9 h -.8 z m -19.2,.27 c -.2,0 -.34,.16 -.34,.34 v 3.6 c 0,.2 .16,.34 .34,.34 h 2.3 c .2,0 .34,-.16 .34,-.34 v -3.6 c 0,-.2 -.16,-.34 -.34,-.34 z m 15.27,0 c -.2,0 -.34,.16 -.34,.34 v 3.6 c 0,.2 .16,.34 .34,.34 h 2.36 c .2,0 .34,-.16 .34,-.34 v -3.6 c 0,-.2 -.16,-.34 -.34,-.34 z m -15.1,.5 h 1.97 v 3.3 h -1.97 z m 15.27,0 h 2.04 v 3.3 h -2.04 z m -3.4,.2 c -.2,0 -.34,.16 -.34,.34 v 5.33 c 0,.2 .16,.34 .34,.34 h 1.8 c .2,0 .34,-.16 .34,-.34 v -5.33 c 0,-.2 -.16,-.34 -.34,-.34 z m -5.47,0 c -.2,0 -.34,.16 -.34,.34 v 5.3 c 0,.2 .16,.34 .34,.34 h 1.47 c .2,0 .34,-.16 .34,-.34 v -5.3 c 0,-.2 -.16,-.34 -.34,-.34 z m -2.9,.03 c -.2,0 -.34,.16 -.34,.34 v 5.3 c 0,.2 .16,.34 .34,.34 h 1.36 c .2,0 .34,-.16 .34,-.34 v -5.3 c 0,-.2 -.16,-.34 -.34,-.34 z m -6.75,.2 c -.2,0 -.34,.16 -.34,.34 v 2.86 c 0,.2 .16,.34 .34,.34 h 1.63 c .2,0 .34,-.16 .34,-.34 v -2.86 c 0,-.2 -.16,-.34 -.34,-.34 z m 24.6,0 c -.2,0 -.34,.16 -.34,.34 v 5.13 c 0,.2 .16,.34 .34,.34 h 1.3 c .2,0 .34,-.16 .34,-.34 v -5.13 c 0,-.2 -.16,-.34 -.34,-.34 z m -9.33,.27 h 1.47 v 5 h -1.47 z m -5.47,0 h 1.16 v 5 h -1.16 z m -2.9,.03 h 1.04 v 5 h -1.04 z m -6.75,.2 h 1.3 v 2.55 h -1.3 z m 24.6,0 h .97 v 4.8 H 36.3 Z M 24.1,23.4 c -.2,0 -.34,.16 -.34,.34 v 4.44 c 0,.2 .16,.34 .34,.34 h 1.2 c .2,0 .34,-.16 .34,-.34 v -4.44 c 0,-.2 -.16,-.34 -.34,-.34 z m 9.56,.07 c -.2,0 -.34,.16 -.34,.34 v 4.4 c 0,.2 .16,.34 .34,.34 h 1.1 c .2,0 .34,-.16 .34,-.34 v -4.4 c 0,-.2 -.16,-.34 -.34,-.34 z m -9.4,.43 h .9 v 4.13 H 24.3 Z m 9.56,.07 h .77 v 4.2 h -.77 z m -3.97,2.7 c -.2,0 -.34,.16 -.34,.34 v 1.24 c 0,.2 .16,.34 .34,.34 h 2.4 c .2,0 .34,-.16 .34,-.34 v -1.24 c 0,-.2 -.16,-.34 -.34,-.34 z m -15.23,.04 c -.2,0 -.34,.16 -.34,.34 v 1.16 c 0,.2 .16,.34 .34,.34 h 2.24 c .2,0 .34,-.16 .34,-.34 v -1.16 c 0,-.2 -.16,-.34 -.34,-.34 z m -3.04,.2 c -.2,0 -.34,.16 -.34,.34 v .97 c 0,.2 .16,.34 .34,.34 h 1.6 c .2,0 .34,-.16 .34,-.34 v -.97 c 0,-.2 -.16,-.34 -.34,-.34 z m 18.43,.27 h 2.1 v .93 h -2.1 z m -15.23,.05 h 1.93 v .84 h -1.93 z m -3.05,.2 h 1.3 v .66 h -1.3 z m -0,1.8 c -.2,0 -.34,.16 -.34,.34 v 1.34 c 0,.2 .16,.34 .34,.34 H 37.44 c .2,0 .34,-.16 .34,-.34 v -1.34 c 0,-.2 -.16,-.34 -.34,-.34 z m .16,.5 H 37.3 V 30.75 H 11.9 Z m 10.6,2.3 c -.2,0 -.34,.16 -.34,.34 v 1.7 c 0,.2 .16,.34 .34,.34 h 1.5 c .2,0 .34,-.16 .34,-.34 V 32.34 c 1e-6,-.2 -.16,-.34 -.34,-.34 z m -7.85,.1 c -.2,0 -.34,.16 -.34,.34 v 1 c 0,.2 .16,.34 .34,.34 h 2.3 c .2,0 .34,-.16 .34,-.34 V 32.43 c 0,-.2 -.16,-.34 -.34,-.34 z m 8,.4 h 1.17 v 1.37 h -1.17 z m -7.85,.1 h 1.97 v .7 h -1.97 z m -3.24,.55 c -.2,0 -.34,.16 -.34,.34 v 1.13 c 0,.2 .16,.34 .34,.34 h 1.67 c .2,0 .34,-.16 .34,-.34 v -1.13 c 0,-.2 -.16,-.34 -.34,-.34 z m 6.8,0 C 18.16,33.14 18,33.4 18,33.5 v 1.13 c 0,.2 .16,.34 .34,.34 h 2.5 c .2,0 .34,-.16 .34,-.34 v -1.13 c 0,-.2 -.16,-.34 -.34,-.34 z m 11.5,0 c -.2,0 -.34,.16 -.34,.34 v 1.13 c 0,.2 .16,.34 .34,.34 h 2.67 c .2,0 .34,-.16 .34,-.34 v -1.13 c 0,-.2 -.16,-.34 -.34,-.34 z m 4.2,.05 c -.2,0 -.34,.16 -.34,.34 v 1.1 c 0,.2 .16,.34 .34,.34 h 3.46 c .2,0 .34,-.16 .34,-.34 V 33.53 c 0,-.2 -.16,-.34 -.34,-.34 z m -22.2,.45 h 1.35 v .8 h -1.35 z m 6.8,0 h 2.2 v .8 h -2.2 z m 11.5,0 h 2.35 v .8 h -2.35 z m 4.1,.05 h 3.14 v .8 h -3.14 z m -19.46,.7 c -.2,0 -.34,.16 -.34,.34 v .8 c 0,.2 .16,.34 .34,.34 h 2.3 c .2,0 .34,-.16 .34,-.34 v -.8 c 0,-.2 -.16,-.34 -.34,-.34 z m 10.8,.45 c -.2,0 -.34,.16 -.34,.34 v 1.1 c 0,.2 .16,.34 .34,.34 h 2.94 c .2,0 .34,-.16 .34,-.34 V 35.2 c 0,-.2 -.16,-.34 -.34,-.34 z m -3.1,.04 c -.2,0 -.34,.16 -.34,.34 v .97 c 0,.2 .16,.34 .34,.34 h 1.67 c .2,0 .34,-.16 .34,-.34 V 35.2 c 1e-6,-.2 -.16,-.34 -.34,-.34 z m -7.5,0 h 2 v .5 h -2 z m 10.8,.45 h 2.6 v .77 h -2.6 z m -3.1,.04 h 1.35 v .66 H 22.47 Z m -10.9,.16 c -.2,0 -.34,.16 -.34,.34 v 4 c 0,.2 .16,.34 .34,.34 h 1.67 c .2,10e-7 .34,-.16 .34,-.34 v -4 c 0,-.2 -.16,-.34 -.34,-.34 z m 18.27,0 c -.2,0 -.34,.16 -.34,.34 v 3.9 c 0,.2 .16,.34 .34,.34 h 2.67 c .2,0 .34,-.16 .34,-.34 v -3.9 c 0,-.2 -.16,-.34 -.34,-.34 z m -11.5,.04 c -.2,0 -.34,.16 -.34,.34 v 3.94 c 0,.2 .16,.34 .34,.34 h 2.55 c .2,0 .34,-.16 .34,-.34 v -3.94 c 0,-.2 -.16,-.34 -.34,-.34 z m 15.6,0 c -.2,0 -.34,.16 -.34,.34 v 3.94 c 0,.2 .16,.34 .34,.34 h 3.55 c .2,0 .34,-.16 .34,-.34 v -3.94 c 0,-.2 -.16,-.34 -.34,-.34 z M 11.7,36.03 h 1.35 v 3.67 h -1.35 z m 18.27,0 h 2.35 v 3.6 H 30 Z M 18.46,36.07 h 2.23 v 3.63 h -2.23 z m 15.6,0 h 3.23 v 3.63 h -3.23 z m -19.5,.3 c -.2,0 -.34,.16 -.34,.34 v 1 c 0,.2 .16,.34 .34,.34 h 2.24 c .2,0 .34,-.16 .34,-.34 v -1 c 0,-.2 -.16,-.34 -.34,-.34 z m .16,.5 h 1.93 v .7 h -1.93 z m 7.5,.16 c -.2,0 -.34,.16 -.34,.34 v 4.5 c 0,.2 .16,.34 .34,.34 h 1.67 c .2,0 .34,-.16 .34,-.34 v -4.5 c 10e-7,-.2 -.16,-.34 -.34,-.34 z m 3.1,.04 c -.2,0 -.34,.16 -.34,.34 v 1.5 c 0,.2 .16,.34 .34,.34 h 3 c .2,0 .34,-.16 .34,-.34 v -1.5 c 0,-.2 -.16,-.34 -.34,-.34 z m -2.97,.46 h 1.35 v 4.2 H 22.47 Z m 3.1,.04 h 2.66 v 1.2 h -2.66 z m -10.95,1.04 c -.2,0 -.34,.16 -.34,.34 V 39.85 c 0,.2 .16,.34 .34,.34 h 2.3 c .2,1e-6 .34,-.16 .34,-.34 v -.9 c 0,-.2 -.16,-.34 -.34,-.34 z m .16,.5 h 1.97 v .6 h -1.97 z m 10.64,.66 c -.2,0 -.34,.16 -.34,.34 v 1.8 c 0,.2 .16,.34 .34,.34 h 3 c .2,0 .34,-.16 .34,-.34 v -1.8 c 0,-.2 -.16,-.34 -.34,-.34 z m .16,.5 h 2.66 v 1.5 h -2.66 z m -10.95,.43 c -.2,0 -.34,.16 -.34,.34 v .86 c 0,.2 .16,.34 .34,.34 h 2.24 c .2,0 .34,-.16 .34,-.34 V 41.04 c 0,-.2 -.16,-.34 -.34,-.34 z m 3.7,0 c -.2,0 -.34,.16 -.34,.34 v .86 c 0,.2 .16,.34 .34,.34 h 2.46 c .2,0 .34,-.16 .34,-.34 V 41.04 c 0,-.2 -.16,-.34 -.34,-.34 z m -6.76,.04 c -.2,0 -.34,.16 -.34,.34 v .8 c 0,.2 .16,.34 .34,.34 h 1.6 c .2,0 .34,-.16 .34,-.34 V 41.07 c 0,-.2 -.16,-.34 -.34,-.34 z m 18.27,0 c -.2,0 -.34,.16 -.34,.34 v .8 c 0,.2 .16,.34 .34,.34 h 2.6 c .2,0 .34,-.16 .34,-.34 V 41.07 c 0,-.2 -.16,-.34 -.34,-.34 z m 4,0 c -.2,0 -.34,.16 -.34,.34 v .8 c 0,.2 .16,.34 .34,.34 h 3.5 c .2,0 .34,-.16 .34,-.34 V 41.07 c 0,-.2 -.16,-.34 -.34,-.34 z m -19.1,.46 h 1.93 v .54 h -1.93 z m 3.7,0 h 2.15 v .54 h -2.15 z m -6.76,.04 h 1.3 v .5 h -1.3 z m 18.27,0 h 2.3 v .5 h -2.3 z m 4,0 h 3.2 v .5 H 34.04 Z M 6.5,42.93 c -.2,0 -.34,.15 -.34,.34 v 1.4 c 0,.2 .16,.34 .34,.34 H 42.5 c .2,0 .34,-.16 .34,-.34 V 43.27 c 0,-.2 -.16,-.34 -.34,-.34 z m .16,.5 H 42.3 v 1.1 H 6.66 Z" fill="currentColor" opacity=".6"/></g><use href="#um5" opacity=".4"></use><use fill="url(#um2)" href="#um5" opacity=".2"></use><path d="m 42,24 c -6,0 -6,4 -12,4 H 10 c -2.2,0 -4,1.8 -4,4 v 48 c 0,2.2 1.8,4 4,4 h 76 c 2.2,0 4,-1.8 4,-4 V 50 32 28 c 0,-2.2 -1.8,-4 -4,-4 z" fill="url(#um1)" opacity=".2"/><path class="ColorScheme-Contrast" d="m 6,79 v 1 c 0,2.2 1.8,4 4,4 h 76 c 2.2,0 4,-1.8 4,-4 v -1 c 0,2.2 -1.8,4 -4,4 H 10 C 7.8,83 6,81.2 6,79 Z" fill="currentColor" opacity=".1"/><path class="ColorScheme-Contrast" d="M 6,79.5 V 80 c 0,2.2 1.8,4 4,4 h 76 c 2.2,0 4,-1.8 4,-4 v -0.5 c 0,2.2 -1.8,4 -4,4 H 10 c -2.2,0 -4,-1.8 -4,-4 z" fill="currentColor" opacity=".2"/><path d="m 42,24 c -6,0 -6,4 -12,4 H 10 c -2.2,0 -4,1.8 -4,4 v 1 c 0,-2.2 1.8,-4 4,-4 h 20 c 6,0 6,-4 12,-4 h 44 c 2.2,0 4,1.8 4,4 v -1 c 0,-2.2 -1.8,-4 -4,-4 z" fill="#fff" opacity=".1"/><path d="m 42,24 c -6,0 -6,4 -12,4 H 10 c -2.2,0 -4,1.8 -4,4 v 0.5 c 0,-2.2 1.8,-4 4,-4 h 20 c 6,0 6,-4 12,-4 h 44 c 2.2,0 4,1.8 4,4 V 28 c 0,-2.2 -1.8,-4 -4,-4 z" fill="#fff" opacity=".2"/><path d="m 42,23 c -6,0 -6,4 -12,4 H 10 v 1 h 20 c 6,0 6,-4 12,-4 h 44 v -1 z" opacity=".1"/><path d="m 42,23.5 c -6,0 -6,4 -12,4 H 10 V 28 h 20 c 6,0 6,-4 12,-4 h 44 v -0.5 z" opacity=".2"/></g>
</svg>