<svg height="96" version="1.1" width="96" xmlns="http://www.w3.org/2000/svg" xmlns:svg="http://www.w3.org/2000/svg" xmlns:xlink="http://www.w3.org/1999/xlink">
<defs id="primary-definitions">
<style id="current-color-scheme" type="text/css">
      .ColorScheme-Text         { color: #232629; }
      .ColorScheme-Background   { color: #eff0f1; }
      .ColorScheme-Highlight    { color: #7ec9f0; }
      .ColorScheme-PositiveText { color: #27ae60; }
      .ColorScheme-NeutralText  { color: #f67400; }
      .ColorScheme-NegativeText { color: #da4453; }
      .ColorScheme-ActiveText   { color: #3daee9; }
      .ColorScheme-Complement   { color: #ffffff; }
      .ColorScheme-Contrast     { color: #000000; }
    </style>
<style id="extended-color-scheme" type="text/css">
      .ExScheme-Black     { color:#3e3e3e; }
      .ExScheme-White     { color:#fcfcfc; }
      .ExScheme-Grey-1    { color:#cfd5d5; }
      .ExScheme-Grey-2    { color:#909c9c; }
      .ExScheme-Grey-3    { color:#536161; }
      .ExScheme-Red-1     { color:#ffafa5; }
      .ExScheme-Red-2     { color:#bf4231; }
      .ExScheme-Red-3     { color:#4d2f2b; }
      .ExScheme-Green-1   { color:#abf9c7; }
      .ExScheme-Green-2   { color:#3bb566; }
      .ExScheme-Green-3   { color:#377d50; }
      .ExScheme-Blue-1    { color:#abdaf9; }
      .ExScheme-Blue-2    { color:#3daefd; }
      .ExScheme-Blue-3    { color:#2b3c4d; }
      .ExScheme-Yellow-1  { color:#faffa5; }
      .ExScheme-Yellow-2  { color:#cac726; }
      .ExScheme-Yellow-3  { color:#4b4d2b; }
      .ExScheme-Orange-1  { color:#ffdaa5; }
      .ExScheme-Orange-2  { color:#ff9701; }
      .ExScheme-Orange-3  { color:#4d372b; }
      .ExScheme-Brown-1   { color:#e9d6bb; }
      .ExScheme-Brown-2   { color:#997657; }
      .ExScheme-Brown-3   { color:#433a35; }
      .ExScheme-Purple-1  { color:#e2abf9; }
      .ExScheme-Purple-2  { color:#b401ff; }
      .ExScheme-Purple-3  { color:#432b4d; }
      .ExScheme-Cyan-1    { color:#b2f2e6; }
      .ExScheme-Cyan-2    { color:#31bfa6; }
      .ExScheme-Cyan-3    { color:#2b4d47; }
      .ExScheme-Magenta-1 { color:#f8a6d8; }
      .ExScheme-Magenta-2 { color:#f00091; }
      .ExScheme-Magenta-3 { color:#770048; }
    </style>
<linearGradient id="urN">
<stop offset="0"/>
<stop offset="1" stop-opacity="0"/>
</linearGradient>
<linearGradient id="urO">
<stop offset="0" stop-color="#fff"/>
<stop offset="1" stop-color="#fff" stop-opacity="0"/>
</linearGradient>
<style id="urP" type="text/css">
        .force-display-for-editing { display: inline !important; }
    </style><style class="remove-if__show-crease" type="text/css">
        .enable-if__show-crease { display: none; }
    </style><style class="remove-if__color-sync-mimes-places" type="text/css">
        .enable-if__color-sync-mimes-places { display: none; }
    </style><radialGradient cx=".5" cy="0" id="urQ" r="1" xlink:href="#urO"/><linearGradient id="urR" xlink:href="#urN" y1="1" y2=".5"/><style class="ColorScheme-Background" fill="currentColor" opacity=".6" type="text/css">
   .ColorScheme-Text           { color:#eff0f1; }
      .ColorScheme-Background     { color:#31363b; }
      .ColorScheme-Highlight      { color:#3daefd; }
      .ColorScheme-ViewBackground { color:#fcfcfc; }
      .ColorScheme-PositiveText   { color:#27ae60; }
      .ColorScheme-NeutralText    { color:#f67400; }
      .ColorScheme-NegativeText   { color:#da4453; }
  </style><path d="m 14,12 c -2.2,0 -4,1.8 -4,4 v 4 8 c -2.2,0 -4,1.8 -4,4 v 48 c 0,2.2 1.8,4 4,4 h 76 c 2.2,0 4,-1.8 4,-4 V 50 32 28 c 0,-2.2 -1.8,-4 -4,-4 v -4 c 0,-2.2 -1.8,-4 -4,-4 H 42 c -6,0 -6,-4 -12,-4 z" id="urS"></path><path d="m 14,12 c -2.2,0 -4,1.8 -4,4 v 4 8 h 20 c 6,0 6,-4 12,-4 h 44 v -4 c 0,-2.2 -1.8,-4 -4,-4 H 42 c -6,0 -6,-4 -12,-4 z" id="urT"></path></defs>
<g id="content" transform="translate(0,0)"><use class="sync-color enable-if__color-sync-mimes-places force-display-for-editing ColorScheme-ActiveText" fill="currentColor" href="#urS"></use><use class="primary-color remove-if__color-sync-mimes-places ColorScheme-ActiveText" fill="currentColor" href="#urS"></use><use class="ColorScheme-Contrast" fill="currentColor" href="#urS" opacity=".1"></use><g id="panorama" transform="translate(6,24)"><path class="ColorScheme-Background" d="M 28.5 22.5 C 25.5 22.5 16.5 24 13.5 27 C 9.17 36.53 6 48 6 55.5 C 6 57.3 6.03 58.75 6.2 60 L 18.86 60 L 24 55.5 C 24 55.5 25.5 54 27 54 L 57 54 C 58.5 54 60 55.5 60 55.5 L 65.14 60 L 77.8 60 C 77.97 58.75 78 57.3 78 55.5 C 78 48 74.83 36.53 70.5 27 C 67.5 24 58.5 22.5 55.5 22.5 C 54 22.5 54 24 54 24 L 52.5 34.5 C 52.5 34.5 52.5 36 51 36 L 33 36 C 31.5 36 31.5 34.5 31.5 34.5 L 30 24 C 30 24 30 22.5 28.5 22.5 z M 40.4 22.5 C 36.9 22.5 33.44 22.6 30.85 23.17 C 30.96 23.5 31 23.7 31 23.86 L 32.5 34.43 L 32.5 34.5 C 32.5 34.5 32.5 34.67 32.6 34.9 C 32.65 34.94 32.6 35 33 35 L 51 35 C 51.4 35 51.35 34.94 51.4 34.9 C 51.5 34.67 51.5 34.5 51.5 34.5 L 51.5 34.43 L 53 23.86 C 53 23.7 53.04 23.5 53.15 23.17 C 50.2 22.5 46.33 22.5 42 22.5 C 41.44 22.5 40.9 22.5 40.4 22.5 z M 27 26 C 27.55 26 28 26.45 28 27 C 28 27.55 27.55 28 27 28 C 26.45 28 26 27.55 26 27 C 26 26.45 26.45 26 27 26 z M 57 26 C 57.55 26 58 26.45 58 27 C 58 27.55 57.55 28 57 28 C 56.45 28 56 27.55 56 27 C 56 26.45 56.45 26 57 26 z M 21 29 C 24.3 29 27 31.7 27 35 C 27 38.3 24.3 41 21 41 C 17.7 41 15 38.3 15 35 C 15 31.7 17.7 29 21 29 z M 63 29 C 64.2 29 65 29.9 65 31 C 65 32.1 64.2 33 63 33 C 61.9 33 61 32.1 61 31 C 61 29.9 61.9 29 63 29 z M 21 31 C 18.8 31 17 32.8 17 35 C 17 37.2 18.8 39 21 39 C 23.2 39 25 37.2 25 35 C 25 32.8 23.2 31 21 31 z M 59 33 C 60.1 33 61 33.9 61 35 C 61 36.1 60.1 37 59 37 C 57.9 37 57 36.1 57 35 C 57 33.9 57.9 33 59 33 z M 67 33 C 68.2 33 69 33.9 69 35 C 69 36.1 68.2 37 67 37 C 65.9 37 65 36.1 65 35 C 65 33.9 65.9 33 67 33 z M 63 37 C 64.2 37 65 37.9 65 39 C 65 40.1 64.2 41 63 41 C 61.9 41 61 40.1 61 39 C 61 37.9 61.9 37 63 37 z M 32 39 L 34 39 C 35.1 39 36 39.9 36 41 L 36 42 L 37 42 C 38.1 42 39 42.9 39 44 L 39 46 C 39 47.1 38.1 48 37 48 L 36 48 L 36 49 C 36 50.1 35.1 51 34 51 L 32 51 C 30.9 51 30 50.1 30 49 L 30 48 L 29 48 C 27.9 48 27 47.1 27 46 L 27 44 C 27 42.9 27.9 42 29 42 L 30 42 L 30 41 C 30 39.9 30.9 39 32 39 z M 51 39 C 54.3 39 57 41.7 57 45 C 57 48.3 54.3 51 51 51 C 47.7 51 45 48.3 45 45 C 45 41.7 47.7 39 51 39 z M 32 40 C 31.45 40 31 40.45 31 41 L 31 43 L 29 43 C 28.45 43 28 43.45 28 44 L 28 46 C 28 46.55 28.45 47 29 47 L 31 47 L 31 49 C 31 49.55 31.45 50 32 50 L 34 50 C 34.55 50 35 49.55 35 49 L 35 47 L 37 47 C 37.55 47 38 46.55 38 46 L 38 44 C 38 43.45 37.55 43 37 43 L 35 43 L 35 41 C 35 40.45 34.55 40 34 40 L 32 40 z M 51 41 C 48.8 41 47 42.8 47 45 C 47 47.2 48.8 49 51 49 C 53.2 49 55 47.2 55 45 C 55 42.8 53.2 41 51 41 z " fill="currentColor" opacity=".6"/><path class="ColorScheme-Background" d="M 28.5 22.5 C 25.5 22.5 16.5 24 13.5 27 C 9.17 36.53 6 48 6 55.5 C 6 57.3 6.03 58.75 6.2 60 L 18.86 60 L 24 55.5 C 24 55.5 25.5 54 27 54 L 57 54 C 58.5 54 60 55.5 60 55.5 L 65.14 60 L 77.8 60 C 77.97 58.75 78 57.3 78 55.5 C 78 48 74.83 36.53 70.5 27 C 67.5 24 58.5 22.5 55.5 22.5 C 54 22.5 54 24 54 24 L 52.5 34.5 C 52.5 34.5 52.5 36 51 36 L 33 36 C 31.5 36 31.5 34.5 31.5 34.5 L 30 24 C 30 24 30 22.5 28.5 22.5 z M 40.4 22.5 C 36.9 22.5 33.44 22.6 30.85 23.17 C 30.96 23.5 31 23.7 31 23.86 L 32.5 34.43 L 32.5 34.5 C 32.5 34.5 32.5 34.67 32.6 34.9 C 32.65 34.94 32.6 35 33 35 L 51 35 C 51.4 35 51.35 34.94 51.4 34.9 C 51.5 34.67 51.5 34.5 51.5 34.5 L 51.5 34.43 L 53 23.86 C 53 23.7 53.04 23.5 53.15 23.17 C 50.2 22.5 46.33 22.5 42 22.5 C 41.44 22.5 40.9 22.5 40.4 22.5 z M 28.5 23 C 29.1 23 29.24 23.2 29.37 23.47 C 29.5 23.73 29.5 24 29.5 24 L 29.5 24.04 L 31 34.57 C 31 34.66 31 35.04 31.24 35.47 C 31.5 35.97 32.1 36.5 33 36.5 L 51 36.5 C 51.9 36.5 52.5 35.97 52.76 35.47 C 53 35.04 53 34.66 53 34.57 L 54.5 24.04 L 54.5 24 C 54.5 24 54.5 23.73 54.63 23.47 C 54.76 23.2 54.9 23 55.5 23 C 56.9 23 59.9 23.37 62.9 24.1 C 65.8 24.84 68.7 26 70.1 27.3 C 74.37 36.77 77.5 48.17 77.5 55.5 C 77.5 57.1 77.45 58.37 77.3 59.5 L 65.33 59.5 L 60.33 55.1 L 60.35 55.15 C 60.35 55.15 59.95 54.74 59.34 54.33 C 58.73 53.93 57.9 53.5 57 53.5 L 27 53.5 C 26.1 53.5 25.27 53.93 24.66 54.33 C 24.05 54.74 23.65 55.15 23.65 55.15 L 23.67 55.1 L 18.67 59.5 L 6.7 59.5 C 6.55 58.37 6.5 57.1 6.5 55.5 C 6.5 48.17 9.63 36.77 13.9 27.3 C 15.3 26 18.2 24.84 21.1 24.1 C 24.1 23.37 27.1 23 28.5 23 z M 40.4 23 C 40.9 23 41.44 23 42 23 C 46.1 23 49.74 23.04 52.55 23.6 C 52.55 23.66 52.5 23.8 52.5 23.8 L 52.5 23.83 L 51 34.4 L 51 34.47 C 51 34.47 51 34.5 51 34.5 L 33 34.5 C 33 34.5 33 34.47 33 34.47 L 33 34.4 L 31.5 23.83 L 31.5 23.8 C 31.5 23.8 31.45 23.66 31.44 23.6 C 33.9 23.1 37.1 23 40.4 23 z M 27 25.5 C 26.2 25.5 25.5 26.2 25.5 27 C 25.5 27.8 26.2 28.5 27 28.5 C 27.8 28.5 28.5 27.8 28.5 27 C 28.5 26.2 27.8 25.5 27 25.5 z M 57 25.5 C 56.2 25.5 55.5 26.2 55.5 27 C 55.5 27.8 56.2 28.5 57 28.5 C 57.8 28.5 58.5 27.8 58.5 27 C 58.5 26.2 57.8 25.5 57 25.5 z M 27 26 C 27.55 26 28 26.45 28 27 C 28 27.55 27.55 28 27 28 C 26.45 28 26 27.55 26 27 C 26 26.45 26.45 26 27 26 z M 57 26 C 57.55 26 58 26.45 58 27 C 58 27.55 57.55 28 57 28 C 56.45 28 56 27.55 56 27 C 56 26.45 56.45 26 57 26 z M 21 28.5 C 17.4 28.5 14.5 31.4 14.5 35 C 14.5 38.6 17.4 41.5 21 41.5 C 24.6 41.5 27.5 38.6 27.5 35 C 27.5 31.4 24.6 28.5 21 28.5 z M 63 28.5 C 61.63 28.5 60.5 29.63 60.5 31 C 60.5 32.37 61.63 33.5 63 33.5 C 64.37 33.5 65.5 32.37 65.5 31 C 65.5 29.63 64.37 28.5 63 28.5 z M 21 29 C 24.3 29 27 31.7 27 35 C 27 38.3 24.3 41 21 41 C 17.7 41 15 38.3 15 35 C 15 31.7 17.7 29 21 29 z M 63 29 C 64.2 29 65 29.9 65 31 C 65 32.1 64.2 33 63 33 C 61.9 33 61 32.1 61 31 C 61 29.9 61.9 29 63 29 z M 21 31 C 18.8 31 17 32.8 17 35 C 17 37.2 18.8 39 21 39 C 23.2 39 25 37.2 25 35 C 25 32.8 23.2 31 21 31 z M 21 31.5 C 22.94 31.5 24.5 33.06 24.5 35 C 24.5 36.94 22.94 38.5 21 38.5 C 19.06 38.5 17.5 36.94 17.5 35 C 17.5 33.06 19.06 31.5 21 31.5 z M 59 32.5 C 57.63 32.5 56.5 33.63 56.5 35 C 56.5 36.37 57.63 37.5 59 37.5 C 60.37 37.5 61.5 36.37 61.5 35 C 61.5 33.63 60.37 32.5 59 32.5 z M 67 32.5 C 65.63 32.5 64.5 33.63 64.5 35 C 64.5 36.37 65.63 37.5 67 37.5 C 68.37 37.5 69.5 36.37 69.5 35 C 69.5 33.63 68.37 32.5 67 32.5 z M 59 33 C 60.1 33 61 33.9 61 35 C 61 36.1 60.1 37 59 37 C 57.9 37 57 36.1 57 35 C 57 33.9 57.9 33 59 33 z M 67 33 C 68.2 33 69 33.9 69 35 C 69 36.1 68.2 37 67 37 C 65.9 37 65 36.1 65 35 C 65 33.9 65.9 33 67 33 z M 63 36.5 C 61.63 36.5 60.5 37.63 60.5 39 C 60.5 40.37 61.63 41.5 63 41.5 C 64.37 41.5 65.5 40.37 65.5 39 C 65.5 37.63 64.37 36.5 63 36.5 z M 63 37 C 64.2 37 65 37.9 65 39 C 65 40.1 64.2 41 63 41 C 61.9 41 61 40.1 61 39 C 61 37.9 61.9 37 63 37 z M 32 38.5 C 30.6 38.5 29.5 39.6 29.5 41 L 29.5 41.5 L 29 41.5 C 27.6 41.5 26.5 42.6 26.5 44 L 26.5 46 C 26.5 47.4 27.6 48.5 29 48.5 L 29.5 48.5 L 29.5 49 C 29.5 50.4 30.6 51.5 32 51.5 L 34 51.5 C 35.4 51.5 36.5 50.4 36.5 49 L 36.5 48.5 L 37 48.5 C 38.4 48.5 39.5 47.4 39.5 46 L 39.5 44 C 39.5 42.6 38.4 41.5 37 41.5 L 36.5 41.5 L 36.5 41 C 36.5 39.6 35.4 38.5 34 38.5 L 32 38.5 z M 51 38.5 C 47.4 38.5 44.5 41.4 44.5 45 C 44.5 48.6 47.4 51.5 51 51.5 C 54.6 51.5 57.5 48.6 57.5 45 C 57.5 41.4 54.6 38.5 51 38.5 z M 32 39 L 34 39 C 35.1 39 36 39.9 36 41 L 36 42 L 37 42 C 38.1 42 39 42.9 39 44 L 39 46 C 39 47.1 38.1 48 37 48 L 36 48 L 36 49 C 36 50.1 35.1 51 34 51 L 32 51 C 30.9 51 30 50.1 30 49 L 30 48 L 29 48 C 27.9 48 27 47.1 27 46 L 27 44 C 27 42.9 27.9 42 29 42 L 30 42 L 30 41 C 30 39.9 30.9 39 32 39 z M 51 39 C 54.3 39 57 41.7 57 45 C 57 48.3 54.3 51 51 51 C 47.7 51 45 48.3 45 45 C 45 41.7 47.7 39 51 39 z M 32 40 C 31.45 40 31 40.45 31 41 L 31 43 L 29 43 C 28.45 43 28 43.45 28 44 L 28 46 C 28 46.55 28.45 47 29 47 L 31 47 L 31 49 C 31 49.55 31.45 50 32 50 L 34 50 C 34.55 50 35 49.55 35 49 L 35 47 L 37 47 C 37.55 47 38 46.55 38 46 L 38 44 C 38 43.45 37.55 43 37 43 L 35 43 L 35 41 C 35 40.45 34.55 40 34 40 L 32 40 z M 32 40.5 L 34 40.5 C 34.3 40.5 34.5 40.7 34.5 41 L 34.5 43.5 L 37 43.5 C 37.3 43.5 37.5 43.7 37.5 44 L 37.5 46 C 37.5 46.3 37.3 46.5 37 46.5 L 34.5 46.5 L 34.5 49 C 34.5 49.3 34.3 49.5 34 49.5 L 32 49.5 C 31.7 49.5 31.5 49.3 31.5 49 L 31.5 46.5 L 29 46.5 C 28.7 46.5 28.5 46.3 28.5 46 L 28.5 44 C 28.5 43.7 28.7 43.5 29 43.5 L 31.5 43.5 L 31.5 41 C 31.5 40.7 31.7 40.5 32 40.5 z M 51 41 C 48.8 41 47 42.8 47 45 C 47 47.2 48.8 49 51 49 C 53.2 49 55 47.2 55 45 C 55 42.8 53.2 41 51 41 z M 51 41.5 C 52.94 41.5 54.5 43.06 54.5 45 C 54.5 46.94 52.94 48.5 51 48.5 C 49.06 48.5 47.5 46.94 47.5 45 C 47.5 43.06 49.06 41.5 51 41.5 z " fill="currentColor" opacity=".6"/></g><use href="#urT" opacity=".4"></use><use fill="url(#urR)" href="#urT" opacity=".2"></use><path d="m 42,24 c -6,0 -6,4 -12,4 H 10 c -2.2,0 -4,1.8 -4,4 v 48 c 0,2.2 1.8,4 4,4 h 76 c 2.2,0 4,-1.8 4,-4 V 50 32 28 c 0,-2.2 -1.8,-4 -4,-4 z" fill="url(#urQ)" opacity=".2"/><path class="ColorScheme-Contrast" d="m 6,79 v 1 c 0,2.2 1.8,4 4,4 h 76 c 2.2,0 4,-1.8 4,-4 v -1 c 0,2.2 -1.8,4 -4,4 H 10 C 7.8,83 6,81.2 6,79 Z" fill="currentColor" opacity=".1"/><path class="ColorScheme-Contrast" d="M 6,79.5 V 80 c 0,2.2 1.8,4 4,4 h 76 c 2.2,0 4,-1.8 4,-4 v -0.5 c 0,2.2 -1.8,4 -4,4 H 10 c -2.2,0 -4,-1.8 -4,-4 z" fill="currentColor" opacity=".2"/><path d="m 42,24 c -6,0 -6,4 -12,4 H 10 c -2.2,0 -4,1.8 -4,4 v 1 c 0,-2.2 1.8,-4 4,-4 h 20 c 6,0 6,-4 12,-4 h 44 c 2.2,0 4,1.8 4,4 v -1 c 0,-2.2 -1.8,-4 -4,-4 z" fill="#fff" opacity=".1"/><path d="m 42,24 c -6,0 -6,4 -12,4 H 10 c -2.2,0 -4,1.8 -4,4 v 0.5 c 0,-2.2 1.8,-4 4,-4 h 20 c 6,0 6,-4 12,-4 h 44 c 2.2,0 4,1.8 4,4 V 28 c 0,-2.2 -1.8,-4 -4,-4 z" fill="#fff" opacity=".2"/><path d="m 42,23 c -6,0 -6,4 -12,4 H 10 v 1 h 20 c 6,0 6,-4 12,-4 h 44 v -1 z" opacity=".1"/><path d="m 42,23.5 c -6,0 -6,4 -12,4 H 10 V 28 h 20 c 6,0 6,-4 12,-4 h 44 v -0.5 z" opacity=".2"/></g>
</svg>