<svg height="96" version="1.1" width="96" xmlns="http://www.w3.org/2000/svg" xmlns:svg="http://www.w3.org/2000/svg" xmlns:xlink="http://www.w3.org/1999/xlink">
<defs id="primary-definitions">
<style id="current-color-scheme" type="text/css">
      .ColorScheme-Text           { color:#fff; }
      .ColorScheme-Background     { color:#111; }
      .ColorScheme-Highlight      { color:#3daefd; }
      .ColorScheme-ViewBackground { color:#000; }
      .ColorScheme-PositiveText   { color:#27ae60; }
      .ColorScheme-NeutralText    { color:#f67400; }
      .ColorScheme-NegativeText   { color:#da4453; }
    </style>
<style id="extended-color-scheme" type="text/css">
      .ExScheme-Black     { color:#3e3e3e; }
      .ExScheme-White     { color:#fcfcfc; }
      .ExScheme-Grey-1    { color:#cfd5d5; }
      .ExScheme-Grey-2    { color:#909c9c; }
      .ExScheme-Grey-3    { color:#536161; }
      .ExScheme-Red-1     { color:#ffafa5; }
      .ExScheme-Red-2     { color:#bf4231; }
      .ExScheme-Red-3     { color:#4d2f2b; }
      .ExScheme-Green-1   { color:#abf9c7; }
      .ExScheme-Green-2   { color:#3bb566; }
      .ExScheme-Green-3   { color:#377d50; }
      .ExScheme-Blue-1    { color:#abdaf9; }
      .ExScheme-Blue-2    { color:#3daefd; }
      .ExScheme-Blue-3    { color:#2b3c4d; }
      .ExScheme-Yellow-1  { color:#faffa5; }
      .ExScheme-Yellow-2  { color:#cac726; }
      .ExScheme-Yellow-3  { color:#4b4d2b; }
      .ExScheme-Orange-1  { color:#ffdaa5; }
      .ExScheme-Orange-2  { color:#ff9701; }
      .ExScheme-Orange-3  { color:#4d372b; }
      .ExScheme-Brown-1   { color:#e9d6bb; }
      .ExScheme-Brown-2   { color:#997657; }
      .ExScheme-Brown-3   { color:#433a35; }
      .ExScheme-Purple-1  { color:#e2abf9; }
      .ExScheme-Purple-2  { color:#b401ff; }
      .ExScheme-Purple-3  { color:#432b4d; }
      .ExScheme-Cyan-1    { color:#b2f2e6; }
      .ExScheme-Cyan-2    { color:#31bfa6; }
      .ExScheme-Cyan-3    { color:#2b4d47; }
      .ExScheme-Magenta-1 { color:#f8a6d8; }
      .ExScheme-Magenta-2 { color:#f00091; }
      .ExScheme-Magenta-3 { color:#770048; }
    </style>
<linearGradient id="uxd">
<stop offset="0"/>
<stop offset="1" stop-opacity="0"/>
</linearGradient>
<linearGradient id="uxe">
<stop offset="0" stop-color="#fff"/>
<stop offset="1" stop-color="#fff" stop-opacity="0"/>
</linearGradient>
<style class="toggle-enable-crease" type="text/css">
        .folder-crease { display: none; }
    </style><style class="toggle-manilla-folders" type="text/css">
        .folder-manilla { display: none; }
    </style><radialGradient cx=".5" cy="0" id="uxf" r="1" xlink:href="#uxe"/><linearGradient id="uxg" xlink:href="#uxd" y1="1" y2=".5"/><path d="m 14,12 c -2.2,0 -4,1.8 -4,4 v 4 8 c -2.2,0 -4,1.8 -4,4 v 48 c 0,2.2 1.8,4 4,4 h 76 c 2.2,0 4,-1.8 4,-4 V 50 32 28 c 0,-2.2 -1.8,-4 -4,-4 v -4 c 0,-2.2 -1.8,-4 -4,-4 H 42 c -6,0 -6,-4 -12,-4 z" id="uxh"></path><path d="m 14,12 c -2.2,0 -4,1.8 -4,4 v 4 8 h 20 c 6,0 6,-4 12,-4 h 44 v -4 c 0,-2.2 -1.8,-4 -4,-4 H 42 c -6,0 -6,-4 -12,-4 z" id="uxi"></path></defs>
<g id="content" transform="translate(0,0)"><use class="folder-manilla ExScheme-Brown-1" fill="currentColor" href="#uxh"></use><use class="toggle-manilla-folders ColorScheme-Highlight" fill="currentColor" href="#uxh" id="primary-color"></use><use class="ColorScheme-Text" fill="currentColor" href="#uxh" opacity=".1"></use><g id="panorama" transform="translate(6,24)"><path class="ColorScheme-Background" d="M 13.5 12 C 11 12 9 14 9 16.5 C 9 19 11 21 13.5 21 C 16 21 18 19 18 16.5 C 18 14 16 12 13.5 12 z M 52.5 23.8 C 52 23.8 51.5 24 51.1 24.4 L 15.5 60 L 80 60 C 82.2 60 84 58.2 84 56 L 84 54.5 L 53.9 24.4 C 53.5 24 53 23.8 52.5 23.8 z M 27 28.3 C 26.5 28.3 26 28.5 25.6 28.9 L 0 54.5 L 0 56 C 0 58.2 1.8 60 4 60 L 14 60 L 36.74 37.25 L 28.4 28.9 C 28 28.5 27.5 28.3 27 28.3 z " fill="currentColor" opacity=".6"/><path class="ColorScheme-Background" d="M 13.5 12 C 11 12 9 14 9 16.5 C 9 19 11 21 13.5 21 C 16 21 18 19 18 16.5 C 18 14 16 12 13.5 12 z M 13.5 12.5 C 15.7 12.5 17.5 14.3 17.5 16.5 C 17.5 18.7 15.7 20.5 13.5 20.5 C 11.3 20.5 9.5 18.7 9.5 16.5 C 9.5 14.3 11.3 12.5 13.5 12.5 z M 52.5 23.8 C 52 23.8 51.5 24 51.1 24.4 L 15.5 60 L 80 60 C 82.2 60 84 58.2 84 56 L 84 54.5 L 53.9 24.4 C 53.5 24 53 23.8 52.5 23.8 z M 52.5 24.3 C 52.9 24.3 53.26 24.47 53.56 24.77 L 83.5 54.7 L 83.5 56 C 83.5 57.95 81.95 59.5 80 59.5 L 16.7 59.5 L 51.44 24.77 C 51.74 24.47 52.1 24.3 52.5 24.3 z M 27 28.3 C 26.5 28.3 26 28.5 25.6 28.9 L 0 54.5 L 0 56 C 0 58.2 1.8 60 4 60 L 14 60 L 36.74 37.25 L 28.4 28.9 C 28 28.5 27.5 28.3 27 28.3 z M 27 28.8 C 27.4 28.8 27.76 28.97 28.06 29.27 L 36.03 37.25 L 13.8 59.5 L 4 59.5 C 2.05 59.5 0.5 57.95 0.5 56 L 0.5 54.7 L 25.94 29.27 C 26.24 28.97 26.6 28.8 27 28.8 z " fill="currentColor" opacity=".6"/></g><use href="#uxi" opacity=".4"></use><use class="toggle-flat-design" fill="url(#uxg)" href="#uxi" opacity=".2"></use><path class="toggle-flat-design" d="m 42,24 c -6,0 -6,4 -12,4 H 10 c -2.2,0 -4,1.8 -4,4 v 48 c 0,2.2 1.8,4 4,4 h 76 c 2.2,0 4,-1.8 4,-4 V 50 32 28 c 0,-2.2 -1.8,-4 -4,-4 z" fill="url(#uxf)" opacity=".2"/><path class="folder-crease " d="m 6,66 v 3 L 9,69 c .83,0 1.5,-.67 1.5,-1.5 C 10.5,66.67 9.83,66 9,66 Z M 87,66 c -.83,0 -1.5,.67 -1.5,1.5 0,.83 .67,1.5 1.5,1.5 l 3,-10e-7 v -3 z" opacity=".4"/><path class="ColorScheme-Text" d="m 6,79 v 1 c 0,2.2 1.8,4 4,4 h 76 c 2.2,0 4,-1.8 4,-4 v -1 c 0,2.2 -1.8,4 -4,4 H 10 C 7.8,83 6,81.2 6,79 Z" fill="currentColor" opacity=".1"/><path class="ColorScheme-Text" d="M 6,79.5 V 80 c 0,2.2 1.8,4 4,4 h 76 c 2.2,0 4,-1.8 4,-4 v -0.5 c 0,2.2 -1.8,4 -4,4 H 10 c -2.2,0 -4,-1.8 -4,-4 z" fill="currentColor" opacity=".2"/><path d="m 42,24 c -6,0 -6,4 -12,4 H 10 c -2.2,0 -4,1.8 -4,4 v 1 c 0,-2.2 1.8,-4 4,-4 h 20 c 6,0 6,-4 12,-4 h 44 c 2.2,0 4,1.8 4,4 v -1 c 0,-2.2 -1.8,-4 -4,-4 z" fill="#fff" opacity=".1"/><path d="m 42,24 c -6,0 -6,4 -12,4 H 10 c -2.2,0 -4,1.8 -4,4 v 0.5 c 0,-2.2 1.8,-4 4,-4 h 20 c 6,0 6,-4 12,-4 h 44 c 2.2,0 4,1.8 4,4 V 28 c 0,-2.2 -1.8,-4 -4,-4 z" fill="#fff" opacity=".2"/><path d="m 42,23 c -6,0 -6,4 -12,4 H 10 v 1 h 20 c 6,0 6,-4 12,-4 h 44 v -1 z" opacity=".1"/><path d="m 42,23.5 c -6,0 -6,4 -12,4 H 10 V 28 h 20 c 6,0 6,-4 12,-4 h 44 v -0.5 z" opacity=".2"/></g>
</svg>