<svg height="96" version="1.1" width="96" xmlns="http://www.w3.org/2000/svg" xmlns:svg="http://www.w3.org/2000/svg" xmlns:xlink="http://www.w3.org/1999/xlink">
<defs id="primary-definitions">
<style id="current-color-scheme" type="text/css">
      .ColorScheme-Text           { color:#fff; }
      .ColorScheme-Background     { color:#111; }
      .ColorScheme-Highlight      { color:#3daefd; }
      .ColorScheme-ViewBackground { color:#000; }
      .ColorScheme-PositiveText   { color:#27ae60; }
      .ColorScheme-NeutralText    { color:#f67400; }
      .ColorScheme-NegativeText   { color:#da4453; }
    </style>
<style id="extended-color-scheme" type="text/css">
      .ExScheme-Black     { color:#3e3e3e; }
      .ExScheme-White     { color:#fcfcfc; }
      .ExScheme-Grey-1    { color:#cfd5d5; }
      .ExScheme-Grey-2    { color:#909c9c; }
      .ExScheme-Grey-3    { color:#536161; }
      .ExScheme-Red-1     { color:#ffafa5; }
      .ExScheme-Red-2     { color:#bf4231; }
      .ExScheme-Red-3     { color:#4d2f2b; }
      .ExScheme-Green-1   { color:#abf9c7; }
      .ExScheme-Green-2   { color:#3bb566; }
      .ExScheme-Green-3   { color:#377d50; }
      .ExScheme-Blue-1    { color:#abdaf9; }
      .ExScheme-Blue-2    { color:#3daefd; }
      .ExScheme-Blue-3    { color:#2b3c4d; }
      .ExScheme-Yellow-1  { color:#faffa5; }
      .ExScheme-Yellow-2  { color:#cac726; }
      .ExScheme-Yellow-3  { color:#4b4d2b; }
      .ExScheme-Orange-1  { color:#ffdaa5; }
      .ExScheme-Orange-2  { color:#ff9701; }
      .ExScheme-Orange-3  { color:#4d372b; }
      .ExScheme-Brown-1   { color:#e9d6bb; }
      .ExScheme-Brown-2   { color:#997657; }
      .ExScheme-Brown-3   { color:#433a35; }
      .ExScheme-Purple-1  { color:#e2abf9; }
      .ExScheme-Purple-2  { color:#b401ff; }
      .ExScheme-Purple-3  { color:#432b4d; }
      .ExScheme-Cyan-1    { color:#b2f2e6; }
      .ExScheme-Cyan-2    { color:#31bfa6; }
      .ExScheme-Cyan-3    { color:#2b4d47; }
      .ExScheme-Magenta-1 { color:#f8a6d8; }
      .ExScheme-Magenta-2 { color:#f00091; }
      .ExScheme-Magenta-3 { color:#770048; }
    </style>
<linearGradient id="uao">
<stop offset="0"/>
<stop offset="1" stop-opacity="0"/>
</linearGradient>
<linearGradient id="uap">
<stop offset="0" stop-color="#fff"/>
<stop offset="1" stop-color="#fff" stop-opacity="0"/>
</linearGradient>
<style class="toggle-enable-crease" type="text/css">
        .folder-crease { display: none; }
    </style><style class="toggle-manilla-folders" type="text/css">
        .folder-manilla { display: none; }
    </style><radialGradient cx=".5" cy="0" id="uaq" r="1" xlink:href="#uap"/><linearGradient id="uar" xlink:href="#uao" y1="1" y2=".5"/><path d="m 14,12 c -2.2,0 -4,1.8 -4,4 v 4 8 c -2.2,0 -4,1.8 -4,4 v 48 c 0,2.2 1.8,4 4,4 h 76 c 2.2,0 4,-1.8 4,-4 V 50 32 28 c 0,-2.2 -1.8,-4 -4,-4 v -4 c 0,-2.2 -1.8,-4 -4,-4 H 42 c -6,0 -6,-4 -12,-4 z" id="uas"></path><path d="m 14,12 c -2.2,0 -4,1.8 -4,4 v 4 8 h 20 c 6,0 6,-4 12,-4 h 44 v -4 c 0,-2.2 -1.8,-4 -4,-4 H 42 c -6,0 -6,-4 -12,-4 z" id="uat"></path></defs>
<g id="content" transform="translate(0,0)"><use class="folder-manilla ExScheme-Brown-1" fill="currentColor" href="#uas"></use><use class="toggle-manilla-folders ColorScheme-Highlight" fill="currentColor" href="#uas" id="primary-color"></use><use class="ColorScheme-Text" fill="currentColor" href="#uas" opacity=".1"></use><g id="emblem" transform="translate(24,32)"><path class="ColorScheme-Background" d="m 34,6 c -.4,0 -.84,.04 -1.26,.1 l -.27,1.7 c -.63,.15 -1.2,.4 -1.8,.73 l -1.37,-1 c -.7,.5 -1.3,1.1 -1.8,1.8 l 1,1.37 c -.33,.55 -.6,1.15 -.73,1.8 l -1.7,.27 c -.07,.4 -.1,.84 -.1,1.26 0,.4 .04,.84 .1,1.26 l 1.7,.27 c .15,.63 .4,1.2 .73,1.8 l -1,1.37 c .5,.7 1.1,1.3 1.8,1.8 l 1.37,-1 c .55,.33 1.15,.6 1.8,.73 l .27,1.7 c .4,.07 .84,.1 1.26,.1 .4,-0 .84,-.04 1.26,-.1 l .27,-1.7 c .63,-.15 1.2,-.4 1.8,-.73 l 1.37,1 c .7,-.5 1.3,-1.1 1.8,-1.8 l -1,-1.37 c .33,-.55 .6,-1.15 .73,-1.8 l 1.7,-.27 c .07,-.4 .1,-.84 .1,-1.26 -9.52e-4,-.4 -.03,-.84 -.1,-1.26 L 40.2,12.47 C 40.06,11.84 39.8,11.24 39.5,10.7 L 40.5,9.3 C 40,8.6 39.4,8 38.7,7.5 l -1.37,1 C 36.76,8.2 36.16,7.94 35.53,7.8 L 35.26,6.1 C 34.84,6.03 34.4,6 34,6 Z m 0,6 a 2,2 0 0 1 2,2 2,2 0 0 1 -2,2 2,2 0 0 1 -2,-2 2,2 0 0 1 2,-2 z m -15.84,2.85 a 13.3,13.3 0 0 0 -1.45,.3 l .1,2.3 a 11,11 0 0 0 -2,.84 L 13.3,16.57 a 13.3,13.3 0 0 0 -1.23,.83 l 1,2.1 a 11,11 0 0 0 -1.54,1.53 L 9.43,20 a 13.3,13.3 0 0 0 -.84,1.23 l 1.74,1.57 A 11,11 0 0 0 9.5,24.8 L 7.16,24.66 a 13.3,13.3 0 0 0 -.3,1.45 13.3,13.3 0 0 0 0,0 l 2.23,.8 a 11,11 0 0 0 -.1,1.1 11,11 0 0 0 .1,1.06 l -2.23,.8 a 13.3,13.3 0 0 0 .3,1.45 L 9.47,31.16 a 11,11 0 0 0 .84,2 l -1.75,1.55 a 13.3,13.3 0 0 0 .83,1.23 l 2.1,-1 a 11,11 0 0 0 1.53,1.54 l -1,2.1 a 13.3,13.3 0 0 0 1.23,.84 l 1.57,-1.74 a 11,11 0 0 0 2,.85 l -.14,2.3 a 13.3,13.3 0 0 0 1.45,.3 13.3,13.3 0 0 0 0,0 l .8,-2.23 a 11,11 0 0 0 1.1,.1 11,11 0 0 0 1.06,-.1 L 21.84,41.16 a 13.3,13.3 0 0 0 1.45,-.3 l -.1,-2.3 a 11,11 0 0 0 2,-.84 l 1.55,1.75 a 13.3,13.3 0 0 0 1.23,-.83 l -1,-2.1 a 11,11 0 0 0 1.54,-1.53 l 2.1,1 a 13.3,13.3 0 0 0 .84,-1.23 L 29.66,33.2 a 11,11 0 0 0 .85,-2 l 2.3,.14 a 13.3,13.3 0 0 0 .3,-1.45 v -0 l -2.23,-.8 a 11,11 0 0 0 .1,-1.1 11,11 0 0 0 -.05,-1.07 l 2.2,-.77 a 13.3,13.3 0 0 0 -.3,-1.45 l -2.34,.1 a 11,11 0 0 0 -.83,-2 l 1.75,-1.55 a 13.3,13.3 0 0 0 -.8,-1.23 l -2.1,1 a 11,11 0 0 0 -1.54,-1.55 l 1,-2.1 a 13.3,13.3 0 0 0 -1.23,-.8 l -1.56,1.74 a 11,11 0 0 0 -2,-.84 l .14,-2.34 a 13.3,13.3 0 0 0 -1.45,-.3 l -.8,2.2 a 11,11 0 0 0 -1.1,-.06 11,11 0 0 0 -1.06,.1 z m 1.84,6.15 a 7,7 0 0 1 7,7 7,7 0 0 1 -7,7 7,7 0 0 1 -7,-7 7,7 0 0 1 7,-7 z" fill="currentColor" opacity=".6" stop-color="#000000"/><path class="ColorScheme-Background" d="M 34 6 C 33.6 6 33.16 6.04 32.74 6.1 L 32.47 7.8 C 31.85 7.95 31.25 8.3 30.7 8.53 L 29.3 7.54 C 28.63 8.03 28.03 8.63 27.54 9.3 L 28.53 10.7 C 28.2 11.25 27.95 11.85 27.8 12.47 L 26.1 12.74 C 26.04 13.16 26 13.6 26 14 C 26 14.4 26.04 14.84 26.1 15.26 L 27.8 15.53 C 27.95 16.15 28.2 16.75 28.53 17.3 L 27.54 18.7 C 28.03 19.37 28.63 19.97 29.3 20.46 L 30.7 19.47 C 31.25 19.8 31.85 20.05 32.47 20.2 L 32.74 21.9 C 33.16 21.96 33.6 22 34 22 C 34.4 22 34.84 21.96 35.26 21.9 L 35.53 20.2 C 36.15 20.05 36.75 19.8 37.4 19.47 L 38.7 20.46 C 39.37 19.97 39.97 19.37 40.46 18.7 L 39.47 17.3 C 39.9 16.75 40.05 16.15 40.2 15.53 L 41.9 15.26 C 41.96 14.84 42 14.4 42 14 C 42 13.6 41.97 13.16 41.9 12.74 L 40.2 12.47 C 40.06 11.84 39.8 11.24 39.5 10.7 L 40.5 9.3 C 40 8.6 39.4 8 38.7 7.5 L 37.3 8.5 C 36.76 8.2 36.16 7.94 35.53 7.8 L 35.26 6.1 C 34.84 6.03 34.4 6 34 6 z M 34 6.5 L 34 6.5 C 34.3 6.5 34.55 6.54 34.83 6.57 L 35.03 7.86 A .5 .5 0 0 0 35.4 8.27 C 36 8.4 36.55 8.64 37.06 8.95 A .5 .5 0 0 0 37.6 8.93 L 38.65 8.2 C 39.1 8.5 39.5 8.9 39.8 9.35 L 39.07 10.4 A .5 .5 0 0 0 39.05 10.94 C 39.36 11.45 39.6 12 39.73 12.6 A .5 .5 0 0 0 40.14 12.97 L 41.43 13.17 C 41.46 13.45 41.5 13.7 41.5 14 L 41.5 14 C 41.5 14 41.5 14 41.5 14 C 41.5 14.3 41.46 14.55 41.43 14.83 L 40.1 15.03 A .5 .5 0 0 0 39.7 15.4 C 39.57 16 39.35 16.54 39.04 17.05 A .5 .5 0 0 0 39.06 17.6 L 39.8 18.63 C 39.47 19.07 39.07 19.47 38.63 19.8 L 37.6 19.06 A .5 .5 0 0 0 37.05 19.04 C 36.54 19.34 36 19.57 35.4 19.7 A .5 .5 0 0 0 35.03 20.1 L 34.83 21.43 C 34.55 21.46 34.3 21.5 34 21.5 C 33.73 21.5 33.45 21.46 33.17 21.43 L 32.97 20.1 A .5 .5 0 0 0 32.6 19.7 C 32 19.57 31.46 19.35 30.95 19.04 A .5 .5 0 0 0 30.4 19.06 L 29.37 19.8 C 28.93 19.47 28.53 19.07 28.2 18.63 L 28.94 17.6 A .5 .5 0 0 0 28.96 17.05 C 28.65 16.54 28.43 16 28.3 15.4 A .5 .5 0 0 0 27.9 15.03 L 26.57 14.83 C 26.54 14.55 26.5 14.3 26.5 14 L 26.5 14 C 26.5 14 26.5 14 26.5 14 C 26.5 13.7 26.54 13.45 26.57 13.17 L 27.9 12.97 A .5 .5 0 0 0 28.3 12.6 C 28.43 12 28.66 11.46 28.96 10.95 A .5 .5 0 0 0 28.94 10.4 L 28.2 9.37 C 28.53 8.93 28.93 8.53 29.37 8.2 L 30.4 8.94 A .5 .5 0 0 0 30.95 8.96 C 31.46 8.65 32 8.43 32.6 8.3 A .5 .5 0 0 0 32.97 7.9 L 33.17 6.57 C 33.45 6.54 33.7 6.5 34 6.5 z M 34 11.5 C 32.63 11.5 31.5 12.63 31.5 14 C 31.5 15.37 32.63 16.5 34 16.5 C 35.37 16.5 36.5 15.37 36.5 14 C 36.5 12.63 35.37 11.5 34 11.5 z M 34 12 A 2 2 0 0 1 36 14 A 2 2 0 0 1 34 16 A 2 2 0 0 1 32 14 A 2 2 0 0 1 34 12 z M 18.16 14.85 A 13.3 13.3 0 0 0 16.7 15.15 L 16.84 17.47 A 11 11 0 0 0 14.84 18.3 L 13.3 16.57 A 13.3 13.3 0 0 0 12.05 17.4 L 13.06 19.5 A 11 11 0 0 0 11.5 21 L 9.43 20 A 13.3 13.3 0 0 0 8.6 21.24 L 10.34 22.8 A 11 11 0 0 0 9.5 24.8 L 7.16 24.66 A 13.3 13.3 0 0 0 6.85 26.1 A 13.3 13.3 0 0 0 6.85 26.1 L 9.1 26.9 A 11 11 0 0 0 9 28 A 11 11 0 0 0 9.1 29.06 L 6.85 29.84 A 13.3 13.3 0 0 0 7.15 31.3 L 9.47 31.16 A 11 11 0 0 0 10.3 33.16 L 8.57 34.7 A 13.3 13.3 0 0 0 9.4 35.95 L 11.5 34.94 A 11 11 0 0 0 13 36.5 L 12 38.57 A 13.3 13.3 0 0 0 13.24 39.4 L 14.8 37.66 A 11 11 0 0 0 16.8 38.5 L 16.66 40.84 A 13.3 13.3 0 0 0 18.1 41.15 A 13.3 13.3 0 0 0 18.1 41.15 L 18.9 38.9 A 11 11 0 0 0 20 39 A 11 11 0 0 0 21.06 38.9 L 21.84 41.16 A 13.3 13.3 0 0 0 23.3 40.85 L 23.16 38.53 A 11 11 0 0 0 25.16 37.7 L 26.7 39.43 A 13.3 13.3 0 0 0 27.95 38.6 L 26.94 36.5 A 11 11 0 0 0 28.5 35 L 30.57 36 A 13.3 13.3 0 0 0 31.4 34.76 L 29.66 33.2 A 11 11 0 0 0 30.5 31.2 L 32.84 31.34 A 13.3 13.3 0 0 0 33.15 29.9 L 33.15 29.9 L 30.9 29.1 A 11 11 0 0 0 31 28 A 11 11 0 0 0 30.95 26.93 L 33.15 26.16 A 13.3 13.3 0 0 0 32.87 24.7 L 30.54 24.84 A 11 11 0 0 0 29.7 22.83 L 31.45 21.27 A 13.3 13.3 0 0 0 30.63 20.04 L 28.5 21.05 A 11 11 0 0 0 27 19.5 L 28 17.5 A 13.3 13.3 0 0 0 26.8 16.6 L 25.2 18.3 A 11 11 0 0 0 23.2 17.5 L 23.34 15.14 A 13.3 13.3 0 0 0 21.9 14.85 L 21.1 17.06 A 11 11 0 0 0 20 17 A 11 11 0 0 0 18.94 17.1 L 18.16 14.85 z M 17.84 15.43 L 18.47 17.24 A .5 .5 0 0 0 19 17.57 C 19.33 17.53 19.67 17.5 20 17.5 C 20.35 17.5 20.7 17.5 21.06 17.56 A .5 .5 0 0 0 21.6 17.2 L 22.2 15.43 C 22.4 15.46 22.6 15.5 22.8 15.54 L 22.7 17.45 A .5 .5 0 0 0 23.06 17.96 C 23.7 18.16 24.37 18.43 25 18.76 A .5 .5 0 0 0 25.6 18.65 L 26.86 17.23 C 27.03 17.34 27.2 17.46 27.37 17.57 L 26.54 19.3 A .5 .5 0 0 0 26.67 19.9 C 27.2 20.33 27.7 20.83 28.13 21.37 A .5 .5 0 0 0 28.74 21.5 L 30.46 20.7 C 30.57 20.85 30.7 21 30.8 21.2 L 29.4 22.46 A .5 .5 0 0 0 29.27 23.06 C 29.6 23.67 29.86 24.3 30.06 25 A .5 .5 0 0 0 30.56 25.34 L 32.46 25.24 C 32.5 25.44 32.55 25.63 32.6 25.83 L 30.8 26.46 A .5 .5 0 0 0 30.45 27 C 30.5 27.3 30.5 27.66 30.5 28 C 30.5 28.35 30.47 28.7 30.43 29.04 A .5 .5 0 0 0 30.76 29.6 L 32.57 30.2 C 32.53 30.4 32.5 30.6 32.44 30.8 L 30.54 30.7 A .5 .5 0 0 0 30.04 31.05 C 29.83 31.7 29.56 32.35 29.23 32.96 A .5 .5 0 0 0 29.33 33.57 L 30.75 34.84 C 30.64 35 30.5 35.2 30.4 35.35 L 28.7 34.53 A .5 .5 0 0 0 28.1 34.66 C 27.66 35.2 27.16 35.7 26.63 36.1 A .5 .5 0 0 0 26.5 36.7 L 27.3 38.43 C 27.14 38.55 26.97 38.67 26.8 38.8 L 25.53 37.36 A .5 .5 0 0 0 24.9 37.25 C 24.3 37.6 23.67 37.85 23 38.05 A .5 .5 0 0 0 22.66 38.56 L 22.76 40.45 C 22.56 40.5 22.36 40.54 22.16 40.6 L 21.53 38.76 A .5 .5 0 0 0 21 38.43 C 20.67 38.47 20.33 38.5 20 38.5 C 19.65 38.5 19.3 38.47 18.96 38.43 A .5 .5 0 0 0 18.4 38.76 L 17.8 40.57 C 17.6 40.53 17.4 40.5 17.2 40.44 L 17.3 38.54 A .5 .5 0 0 0 16.95 38.04 C 16.3 37.83 15.65 37.56 15.04 37.23 A .5 .5 0 0 0 14.43 37.33 L 13.16 38.75 C 13 38.64 12.8 38.5 12.65 38.4 L 13.47 36.7 A .5 .5 0 0 0 13.34 36.1 C 12.8 35.66 12.3 35.16 11.9 34.6 A .5 .5 0 0 0 11.3 34.5 L 9.57 35.3 C 9.45 35.14 9.33 34.97 9.2 34.8 L 10.64 33.53 A .5 .5 0 0 0 10.75 32.9 C 10.4 32.3 10.15 31.67 9.95 31 A .5 .5 0 0 0 9.44 30.66 L 7.55 30.76 C 7.5 30.56 7.46 30.36 7.43 30.16 L 9.24 29.53 A .5 .5 0 0 0 9.57 29 C 9.53 28.67 9.5 28.33 9.5 28 C 9.5 27.65 9.53 27.3 9.57 26.96 A .5 .5 0 0 0 9.24 26.4 L 7.43 25.8 C 7.47 25.6 7.5 25.4 7.56 25.2 L 9.46 25.3 A .5 .5 0 0 0 9.96 24.95 C 10.17 24.3 10.44 23.65 10.8 23.04 A .5 .5 0 0 0 10.67 22.43 L 9.25 21.16 C 9.36 21 9.5 20.8 9.6 20.64 L 11.3 21.47 A .5 .5 0 0 0 11.9 21.34 C 12.35 20.8 12.84 20.3 13.4 19.9 A .5 .5 0 0 0 13.5 19.3 L 12.7 17.57 C 12.86 17.45 13.03 17.33 13.2 17.2 L 14.47 18.64 A .5 .5 0 0 0 15.1 18.75 C 15.7 18.4 16.33 18.15 17 17.95 A .5 .5 0 0 0 17.34 17.44 L 17.24 15.55 C 17.44 15.5 17.64 15.46 17.84 15.43 z M 20 20.5 C 15.86 20.5 12.5 23.86 12.5 28 C 12.5 32.14 15.86 35.5 20 35.5 C 24.14 35.5 27.5 32.14 27.5 28 C 27.5 23.86 24.14 20.5 20 20.5 z M 20 21 A 7 7 0 0 1 27 28 A 7 7 0 0 1 20 35 A 7 7 0 0 1 13 28 A 7 7 0 0 1 20 21 z " fill="currentColor" opacity=".6"/><path class="ColorScheme-Background" d="M 20 22 A 6 6 0 0 0 14 28 A 6 6 0 0 0 20 34 A 6 6 0 0 0 26 28 A 6 6 0 0 0 20 22 z M 20 23 A 5 5 0 0 1 25 28 A 5 5 0 0 1 20 33 A 5 5 0 0 1 15 28 A 5 5 0 0 1 20 23 z " fill="currentColor" opacity=".6" stop-color="#000000"/><path class="ColorScheme-Background" d="m 20,22 a 6,6 0 0 0 -6,6 6,6 0 0 0 6,6 6,6 0 0 0 6,-6 6,6 0 0 0 -6,-6 z m 0,1 a 5,5 0 0 1 5,5 5,5 0 0 1 -5,5 5,5 0 0 1 -5,-5 5,5 0 0 1 5,-5 z" fill="currentColor" opacity=".6" stop-color="#000000"/></g><use href="#uat" opacity=".4"></use><use class="toggle-flat-design" fill="url(#uar)" href="#uat" opacity=".2"></use><path class="toggle-flat-design" d="m 42,24 c -6,0 -6,4 -12,4 H 10 c -2.2,0 -4,1.8 -4,4 v 48 c 0,2.2 1.8,4 4,4 h 76 c 2.2,0 4,-1.8 4,-4 V 50 32 28 c 0,-2.2 -1.8,-4 -4,-4 z" fill="url(#uaq)" opacity=".2"/><path class="folder-crease " d="m 6,66 v 3 h 13.5 c .83,0 1.5,-.67 1.5,-1.5 0,-.83 -.67,-1.5 -1.5,-1.5 z m 70.5,0 c -.83,0 -1.5,.67 -1.5,1.5 0,.83 .67,1.5 1.5,1.5 H 90 v -3 z" opacity=".4"/><path class="ColorScheme-Text" d="m 6,79 v 1 c 0,2.2 1.8,4 4,4 h 76 c 2.2,0 4,-1.8 4,-4 v -1 c 0,2.2 -1.8,4 -4,4 H 10 C 7.8,83 6,81.2 6,79 Z" fill="currentColor" opacity=".1"/><path class="ColorScheme-Text" d="M 6,79.5 V 80 c 0,2.2 1.8,4 4,4 h 76 c 2.2,0 4,-1.8 4,-4 v -0.5 c 0,2.2 -1.8,4 -4,4 H 10 c -2.2,0 -4,-1.8 -4,-4 z" fill="currentColor" opacity=".2"/><path d="m 42,24 c -6,0 -6,4 -12,4 H 10 c -2.2,0 -4,1.8 -4,4 v 1 c 0,-2.2 1.8,-4 4,-4 h 20 c 6,0 6,-4 12,-4 h 44 c 2.2,0 4,1.8 4,4 v -1 c 0,-2.2 -1.8,-4 -4,-4 z" fill="#fff" opacity=".1"/><path d="m 42,24 c -6,0 -6,4 -12,4 H 10 c -2.2,0 -4,1.8 -4,4 v 0.5 c 0,-2.2 1.8,-4 4,-4 h 20 c 6,0 6,-4 12,-4 h 44 c 2.2,0 4,1.8 4,4 V 28 c 0,-2.2 -1.8,-4 -4,-4 z" fill="#fff" opacity=".2"/><path d="m 42,23 c -6,0 -6,4 -12,4 H 10 v 1 h 20 c 6,0 6,-4 12,-4 h 44 v -1 z" opacity=".1"/><path d="m 42,23.5 c -6,0 -6,4 -12,4 H 10 V 28 h 20 c 6,0 6,-4 12,-4 h 44 v -0.5 z" opacity=".2"/></g>
</svg>