<svg height="96" version="1.1" width="96" xmlns="http://www.w3.org/2000/svg" xmlns:svg="http://www.w3.org/2000/svg" xmlns:xlink="http://www.w3.org/1999/xlink">
<defs id="primary-definitions">
<style id="current-color-scheme" type="text/css">
      .ColorScheme-Text           { color:#fff; }
      .ColorScheme-Background     { color:#111; }
      .ColorScheme-Highlight      { color:#3daefd; }
      .ColorScheme-ViewBackground { color:#000; }
      .ColorScheme-PositiveText   { color:#27ae60; }
      .ColorScheme-NeutralText    { color:#f67400; }
      .ColorScheme-NegativeText   { color:#da4453; }
    </style>
<style id="extended-color-scheme" type="text/css">
      .ExScheme-Black     { color:#3e3e3e; }
      .ExScheme-White     { color:#fcfcfc; }
      .ExScheme-Grey-1    { color:#cfd5d5; }
      .ExScheme-Grey-2    { color:#909c9c; }
      .ExScheme-Grey-3    { color:#536161; }
      .ExScheme-Red-1     { color:#ffafa5; }
      .ExScheme-Red-2     { color:#bf4231; }
      .ExScheme-Red-3     { color:#4d2f2b; }
      .ExScheme-Green-1   { color:#abf9c7; }
      .ExScheme-Green-2   { color:#3bb566; }
      .ExScheme-Green-3   { color:#377d50; }
      .ExScheme-Blue-1    { color:#abdaf9; }
      .ExScheme-Blue-2    { color:#3daefd; }
      .ExScheme-Blue-3    { color:#2b3c4d; }
      .ExScheme-Yellow-1  { color:#faffa5; }
      .ExScheme-Yellow-2  { color:#cac726; }
      .ExScheme-Yellow-3  { color:#4b4d2b; }
      .ExScheme-Orange-1  { color:#ffdaa5; }
      .ExScheme-Orange-2  { color:#ff9701; }
      .ExScheme-Orange-3  { color:#4d372b; }
      .ExScheme-Brown-1   { color:#e9d6bb; }
      .ExScheme-Brown-2   { color:#997657; }
      .ExScheme-Brown-3   { color:#433a35; }
      .ExScheme-Purple-1  { color:#e2abf9; }
      .ExScheme-Purple-2  { color:#b401ff; }
      .ExScheme-Purple-3  { color:#432b4d; }
      .ExScheme-Cyan-1    { color:#b2f2e6; }
      .ExScheme-Cyan-2    { color:#31bfa6; }
      .ExScheme-Cyan-3    { color:#2b4d47; }
      .ExScheme-Magenta-1 { color:#f8a6d8; }
      .ExScheme-Magenta-2 { color:#f00091; }
      .ExScheme-Magenta-3 { color:#770048; }
    </style>
<linearGradient id="uwD">
<stop offset="0"/>
<stop offset="1" stop-opacity="0"/>
</linearGradient>
<linearGradient id="uwE">
<stop offset="0" stop-color="#fff"/>
<stop offset="1" stop-color="#fff" stop-opacity="0"/>
</linearGradient>
<style class="toggle-enable-crease" type="text/css">
        .folder-crease { display: none; }
    </style><style class="toggle-manilla-folders" type="text/css">
        .folder-manilla { display: none; }
    </style><radialGradient cx=".5" cy="0" id="uwF" r="1" xlink:href="#uwE"/><linearGradient id="uwG" xlink:href="#uwD" y1="1" y2=".5"/><path d="m 14,12 c -2.2,0 -4,1.8 -4,4 v 4 8 c -2.2,0 -4,1.8 -4,4 v 48 c 0,2.2 1.8,4 4,4 h 76 c 2.2,0 4,-1.8 4,-4 V 50 32 28 c 0,-2.2 -1.8,-4 -4,-4 v -4 c 0,-2.2 -1.8,-4 -4,-4 H 42 c -6,0 -6,-4 -12,-4 z" id="uwH"></path><path d="m 14,12 c -2.2,0 -4,1.8 -4,4 v 4 8 h 20 c 6,0 6,-4 12,-4 h 44 v -4 c 0,-2.2 -1.8,-4 -4,-4 H 42 c -6,0 -6,-4 -12,-4 z" id="uwI"></path></defs>
<g id="content" transform="translate(0,0)"><use class="folder-manilla ExScheme-Brown-1" fill="currentColor" href="#uwH"></use><use class="toggle-manilla-folders ColorScheme-Highlight" fill="currentColor" href="#uwH" id="primary-color"></use><use class="ColorScheme-Text" fill="currentColor" href="#uwH" opacity=".1"></use><g id="emblem" transform="translate(24,32)"><path class="ColorScheme-Background" d="M 41.1 3.96 C 39.26 4 23.5 19.5 20.7 22.27 L 19.77 23.26 C 19.53 23.5 19.7 23.7 19.5 23.95 C 19.24 24.2 19.05 24 18.8 24.25 C 18.6 24.5 18.77 24.7 18.53 24.94 C 18.3 25.2 18.1 25 17.86 25.24 C 16.2 26.96 13.8 30.9 13.8 30.9 L 15.23 32.4 C 15.23 32.4 19.05 29.93 20.7 28.2 C 20.96 27.95 20.77 27.75 21 27.5 C 21.25 27.26 21.44 27.46 21.7 27.2 C 21.9 26.96 21.73 26.77 21.96 26.5 C 22.2 26.27 22.4 26.47 22.63 26.2 L 23.6 25.24 C 26.45 22.27 42.2 5 41.25 4 C 41.2 3.97 41.17 3.96 41.1 3.96 z M 41.3 17.97 C 40.5 18.03 39.6 19.77 38.95 23.04 C 37.6 30.03 24.9 37.8 22.75 35.6 C 21.4 34.2 22.9 31.83 20.05 32.8 C 17.7 33.63 16.73 33.96 15.8 33.84 C 15.8 33.9 15.8 33.97 15.8 34.04 C 15.83 34.6 15.76 35.14 15.65 35.7 C 15.4 36.86 15.05 38 14.3 38.77 C 12.7 40.4 10.7 41.45 9.8 42.2 C 9.57 42.36 9.44 42.5 9.4 42.57 C 9.4 42.57 9.4 42.57 9.4 42.6 C 9.5 42.7 9.8 42.9 10.2 43.1 A 1 1 0 0 1 10.74 43.95 C 14.55 42.65 12.1 44 24.1 44 C 36.25 44 43 32.8 43 24.44 C 43 20 42.24 18 41.3 17.97 z M 25.5 30.7 C 25.13 30.7 24.73 30.8 24.4 31.06 C 23.7 31.6 22.86 32.43 23.2 32.9 C 23.57 33.4 25 33.4 25.7 32.85 C 26.4 32.4 27.04 31.6 26.7 31.13 C 26.5 30.85 26 30.7 25.5 30.7 z M 11.7 31.27 C 10.3 31.24 8.2 31.8 6.9 33.14 C 4 36.1 4 44 9.74 44 C 5.93 42 10.7 41.04 13.56 38.07 C 14.5 37.1 15.23 33.9 14.5 33.14 L 13.1 31.65 C 12.86 31.4 12.36 31.3 11.7 31.27 z " fill="currentColor" opacity=".6"/><path class="ColorScheme-Background" d="M 41.1 3.96 C 39.26 4 23.5 19.5 20.7 22.27 L 19.77 23.26 C 19.53 23.5 19.7 23.7 19.5 23.95 C 19.24 24.2 19.05 24 18.8 24.25 C 18.6 24.5 18.77 24.7 18.53 24.94 C 18.3 25.2 18.1 25 17.86 25.24 C 16.2 26.96 13.8 30.9 13.8 30.9 L 15.23 32.4 C 15.23 32.4 19.05 29.93 20.7 28.2 C 20.96 27.95 20.77 27.75 21 27.5 C 21.25 27.26 21.44 27.46 21.7 27.2 C 21.9 26.96 21.73 26.77 21.96 26.5 C 22.2 26.27 22.4 26.47 22.63 26.2 L 23.6 25.24 C 26.45 22.27 42.2 5 41.25 4 C 41.2 3.97 41.17 3.96 41.1 3.96 z M 40.43 4.85 C 40.1 5.4 39.6 6.13 38.9 7 C 37.5 8.8 35.56 11.15 33.47 13.55 C 29.3 18.36 24.64 23.43 23.23 24.9 L 22.27 25.9 C 22.25 25.9 22.35 25.86 22.24 25.9 C 22.13 25.9 21.8 25.95 21.6 26.17 C 21.4 26.4 21.34 26.7 21.3 26.8 C 21.3 26.87 21.3 26.87 21.33 26.87 C 21.34 26.87 21.36 26.85 21.3 26.86 C 21.2 26.9 20.86 26.94 20.65 27.16 C 20.44 27.4 20.4 27.7 20.37 27.8 C 20.36 27.84 20.37 27.85 20.37 27.85 C 20.37 27.84 20.37 27.84 20.36 27.85 C 18.9 29.35 15.8 31.4 15.3 31.74 L 14.44 30.85 C 14.75 30.34 16.76 27.1 18.2 25.6 C 18.25 25.56 18.14 25.6 18.25 25.6 C 18.36 25.57 18.67 25.5 18.9 25.3 C 19.1 25.07 19.16 24.76 19.17 24.65 C 19.17 24.6 19.17 24.6 19.17 24.6 C 19.16 24.6 19.17 24.6 19.17 24.6 C 19.17 24.6 19.17 24.6 19.17 24.6 C 19.17 24.6 19.2 24.6 19.17 24.6 C 19.16 24.6 19.17 24.6 19.17 24.6 C 19.16 24.6 19.16 24.6 19.2 24.6 C 19.3 24.6 19.63 24.5 19.84 24.3 C 20.05 24.1 20.1 23.77 20.1 23.66 C 20.14 23.55 20.1 23.64 20.13 23.6 L 21.1 22.6 C 22.45 21.2 27.1 16.63 31.6 12.43 C 33.86 10.3 36.1 8.3 37.86 6.83 C 38.74 6.1 39.5 5.47 40.1 5.05 C 40.24 4.96 40.3 4.9 40.43 4.85 z M 41.3 17.97 C 40.5 18.03 39.6 19.77 38.95 23.04 C 37.6 30.03 24.9 37.8 22.75 35.6 C 21.4 34.2 22.9 31.83 20.05 32.8 C 17.7 33.63 16.73 33.96 15.8 33.84 C 15.8 33.9 15.8 33.97 15.8 34.04 C 15.83 34.6 15.76 35.14 15.65 35.7 C 15.4 36.86 15.05 38 14.3 38.77 C 12.7 40.4 10.7 41.45 9.8 42.2 C 9.57 42.36 9.44 42.5 9.4 42.57 C 9.4 42.57 9.4 42.57 9.4 42.6 C 9.5 42.7 9.8 42.9 10.2 43.1 A 1 1 0 0 1 10.74 43.95 C 14.55 42.65 12.1 44 24.1 44 C 36.25 44 43 32.8 43 24.44 C 43 20 42.24 18 41.3 17.97 z M 41.36 18.47 C 41.4 18.46 41.44 18.46 41.6 18.63 C 41.7 18.8 41.9 19.15 42 19.65 C 42.3 20.64 42.5 22.24 42.5 24.44 C 42.5 28.5 40.85 33.3 37.7 37.04 C 34.6 40.8 30 43.5 24.1 43.5 C 18.13 43.5 15.8 43.16 14.4 43 C 13.15 42.83 12.5 42.87 10.9 43.4 C 10.76 43.13 10.7 42.8 10.44 42.67 C 10.3 42.6 10.3 42.57 10.2 42.5 C 11.04 41.85 13.03 40.8 14.64 39.1 C 15.5 38.2 15.9 37 16.14 35.8 C 16.24 35.4 16.3 34.8 16.3 34.3 C 17.2 34.27 18.24 33.97 20.2 33.3 C 20.9 33.06 21.23 33.1 21.3 33.1 C 21.4 33.14 21.4 33.17 21.5 33.43 C 21.6 33.96 21.55 35.1 22.4 35.96 C 22.8 36.4 23.4 36.5 24 36.5 C 24.65 36.5 25.37 36.3 26.16 36.04 C 27.73 35.5 29.6 34.5 31.43 33.2 C 35.1 30.6 38.7 26.9 39.44 23.14 C 39.75 21.53 40.14 20.3 40.5 19.5 C 40.7 19.1 40.9 18.84 41.06 18.67 C 41.2 18.5 41.33 18.47 41.36 18.47 z M 25.5 30.7 C 25.13 30.7 24.73 30.8 24.4 31.06 C 23.7 31.6 22.86 32.43 23.2 32.9 C 23.57 33.4 25 33.4 25.7 32.85 C 26.4 32.4 27.04 31.6 26.7 31.13 C 26.5 30.85 26 30.7 25.5 30.7 z M 25.53 31.2 C 25.9 31.2 26.24 31.37 26.3 31.4 C 26.3 31.45 26.3 31.43 26.3 31.46 C 26.3 31.5 26.25 31.6 26.2 31.7 C 26.04 31.9 25.74 32.2 25.4 32.45 C 25.17 32.63 24.7 32.77 24.3 32.8 C 23.9 32.8 23.64 32.63 23.63 32.63 C 23.63 32.63 23.63 32.64 23.63 32.63 C 23.65 32.57 23.7 32.45 23.8 32.3 C 24 32.05 24.4 31.7 24.7 31.46 C 24.93 31.3 25.23 31.2 25.53 31.2 z M 11.7 31.27 C 10.3 31.24 8.2 31.8 6.9 33.14 C 4 36.1 4 44 9.74 44 C 5.93 42 10.7 41.04 13.56 38.07 C 14.5 37.1 15.23 33.9 14.5 33.14 L 13.1 31.65 C 12.86 31.4 12.36 31.3 11.7 31.27 z M 11.7 31.77 C 12.3 31.8 12.7 31.97 12.73 32 L 14.16 33.5 C 14.2 33.5 14.3 33.74 14.3 34.1 C 14.3 34.47 14.27 34.93 14.2 35.4 C 14 36.37 13.54 37.4 13.2 37.73 C 11.85 39.13 10 40.1 8.83 41 C 8.55 41.25 8.3 41.5 8.1 41.75 C 7.9 42 7.8 42.36 7.83 42.7 C 7.85 42.9 8 43.04 8.1 43.2 C 7.6 43 7.2 42.73 6.84 42.37 C 6.17 41.7 5.75 40.7 5.6 39.6 C 5.25 37.4 5.96 34.8 7.24 33.5 C 8.4 32.27 10.4 31.74 11.7 31.77 z " fill="currentColor" opacity=".6"/></g><use href="#uwI" opacity=".4"></use><use class="toggle-flat-design" fill="url(#uwG)" href="#uwI" opacity=".2"></use><path class="toggle-flat-design" d="m 42,24 c -6,0 -6,4 -12,4 H 10 c -2.2,0 -4,1.8 -4,4 v 48 c 0,2.2 1.8,4 4,4 h 76 c 2.2,0 4,-1.8 4,-4 V 50 32 28 c 0,-2.2 -1.8,-4 -4,-4 z" fill="url(#uwF)" opacity=".2"/><path class="folder-crease " d="m 6,66 v 3 h 13.5 c .83,0 1.5,-.67 1.5,-1.5 0,-.83 -.67,-1.5 -1.5,-1.5 z m 70.5,0 c -.83,0 -1.5,.67 -1.5,1.5 0,.83 .67,1.5 1.5,1.5 H 90 v -3 z" opacity=".4"/><path class="ColorScheme-Text" d="m 6,79 v 1 c 0,2.2 1.8,4 4,4 h 76 c 2.2,0 4,-1.8 4,-4 v -1 c 0,2.2 -1.8,4 -4,4 H 10 C 7.8,83 6,81.2 6,79 Z" fill="currentColor" opacity=".1"/><path class="ColorScheme-Text" d="M 6,79.5 V 80 c 0,2.2 1.8,4 4,4 h 76 c 2.2,0 4,-1.8 4,-4 v -0.5 c 0,2.2 -1.8,4 -4,4 H 10 c -2.2,0 -4,-1.8 -4,-4 z" fill="currentColor" opacity=".2"/><path d="m 42,24 c -6,0 -6,4 -12,4 H 10 c -2.2,0 -4,1.8 -4,4 v 1 c 0,-2.2 1.8,-4 4,-4 h 20 c 6,0 6,-4 12,-4 h 44 c 2.2,0 4,1.8 4,4 v -1 c 0,-2.2 -1.8,-4 -4,-4 z" fill="#fff" opacity=".1"/><path d="m 42,24 c -6,0 -6,4 -12,4 H 10 c -2.2,0 -4,1.8 -4,4 v 0.5 c 0,-2.2 1.8,-4 4,-4 h 20 c 6,0 6,-4 12,-4 h 44 c 2.2,0 4,1.8 4,4 V 28 c 0,-2.2 -1.8,-4 -4,-4 z" fill="#fff" opacity=".2"/><path d="m 42,23 c -6,0 -6,4 -12,4 H 10 v 1 h 20 c 6,0 6,-4 12,-4 h 44 v -1 z" opacity=".1"/><path d="m 42,23.5 c -6,0 -6,4 -12,4 H 10 V 28 h 20 c 6,0 6,-4 12,-4 h 44 v -0.5 z" opacity=".2"/></g>
</svg>