<svg height="96" version="1.1" width="96" xmlns="http://www.w3.org/2000/svg" xmlns:svg="http://www.w3.org/2000/svg" xmlns:xlink="http://www.w3.org/1999/xlink">
<defs id="primary-definitions">
<style id="current-color-scheme" type="text/css">
      .ColorScheme-Text         { color: #232629; }
      .ColorScheme-Background   { color: #eff0f1; }
      .ColorScheme-Highlight    { color: #7ec9f0; }
      .ColorScheme-PositiveText { color: #27ae60; }
      .ColorScheme-NeutralText  { color: #f67400; }
      .ColorScheme-NegativeText { color: #da4453; }
      .ColorScheme-ActiveText   { color: #3daee9; }
      .ColorScheme-Complement   { color: #ffffff; }
      .ColorScheme-Contrast     { color: #000000; }
    </style>
<style id="extended-color-scheme" type="text/css">
      .ExScheme-Black     { color:#3e3e3e; }
      .ExScheme-White     { color:#fcfcfc; }
      .ExScheme-Grey-1    { color:#cfd5d5; }
      .ExScheme-Grey-2    { color:#909c9c; }
      .ExScheme-Grey-3    { color:#536161; }
      .ExScheme-Red-1     { color:#ffafa5; }
      .ExScheme-Red-2     { color:#bf4231; }
      .ExScheme-Red-3     { color:#4d2f2b; }
      .ExScheme-Green-1   { color:#abf9c7; }
      .ExScheme-Green-2   { color:#3bb566; }
      .ExScheme-Green-3   { color:#377d50; }
      .ExScheme-Blue-1    { color:#abdaf9; }
      .ExScheme-Blue-2    { color:#3daefd; }
      .ExScheme-Blue-3    { color:#2b3c4d; }
      .ExScheme-Yellow-1  { color:#faffa5; }
      .ExScheme-Yellow-2  { color:#cac726; }
      .ExScheme-Yellow-3  { color:#4b4d2b; }
      .ExScheme-Orange-1  { color:#ffdaa5; }
      .ExScheme-Orange-2  { color:#ff9701; }
      .ExScheme-Orange-3  { color:#4d372b; }
      .ExScheme-Brown-1   { color:#e9d6bb; }
      .ExScheme-Brown-2   { color:#997657; }
      .ExScheme-Brown-3   { color:#433a35; }
      .ExScheme-Purple-1  { color:#e2abf9; }
      .ExScheme-Purple-2  { color:#b401ff; }
      .ExScheme-Purple-3  { color:#432b4d; }
      .ExScheme-Cyan-1    { color:#b2f2e6; }
      .ExScheme-Cyan-2    { color:#31bfa6; }
      .ExScheme-Cyan-3    { color:#2b4d47; }
      .ExScheme-Magenta-1 { color:#f8a6d8; }
      .ExScheme-Magenta-2 { color:#f00091; }
      .ExScheme-Magenta-3 { color:#770048; }
    </style>
<linearGradient id="ujp">
<stop offset="0"/>
<stop offset="1" stop-opacity="0"/>
</linearGradient>
<linearGradient id="ujq">
<stop offset="0" stop-color="#fff"/>
<stop offset="1" stop-color="#fff" stop-opacity="0"/>
</linearGradient>
<style id="ujr" type="text/css">
        .force-display-for-editing { display: inline !important; }
    </style><style class="remove-if__show-crease" type="text/css">
        .enable-if__show-crease { display: none; }
    </style><style class="remove-if__color-sync-mimes-places" type="text/css">
        .enable-if__color-sync-mimes-places { display: none; }
    </style><radialGradient cx=".5" cy="0" id="ujs" r="1" xlink:href="#ujq"/><linearGradient id="ujt" xlink:href="#ujp" y1="1" y2=".5"/><style class="ColorScheme-Background" fill="currentColor" opacity=".6" type="text/css">
   .ColorScheme-Text           { color:#eff0f1; }
      .ColorScheme-Background     { color:#31363b; }
      .ColorScheme-Highlight      { color:#3daefd; }
      .ColorScheme-ViewBackground { color:#fcfcfc; }
      .ColorScheme-PositiveText   { color:#27ae60; }
      .ColorScheme-NeutralText    { color:#f67400; }
      .ColorScheme-NegativeText   { color:#da4453; }
  </style><path d="m 14,12 c -2.2,0 -4,1.8 -4,4 v 4 8 c -2.2,0 -4,1.8 -4,4 v 48 c 0,2.2 1.8,4 4,4 h 76 c 2.2,0 4,-1.8 4,-4 V 50 32 28 c 0,-2.2 -1.8,-4 -4,-4 v -4 c 0,-2.2 -1.8,-4 -4,-4 H 42 c -6,0 -6,-4 -12,-4 z" id="uju"></path><path d="m 14,12 c -2.2,0 -4,1.8 -4,4 v 4 8 h 20 c 6,0 6,-4 12,-4 h 44 v -4 c 0,-2.2 -1.8,-4 -4,-4 H 42 c -6,0 -6,-4 -12,-4 z" id="ujv"></path></defs>
<g id="content" transform="translate(0,0)"><use class="sync-color enable-if__color-sync-mimes-places force-display-for-editing ColorScheme-ActiveText" fill="currentColor" href="#uju"></use><use class="primary-color remove-if__color-sync-mimes-places ColorScheme-ActiveText" fill="currentColor" href="#uju"></use><use class="ColorScheme-Contrast" fill="currentColor" href="#uju" opacity=".1"></use><g id="decal" transform="translate(24,32)"><path class="ColorScheme-Background" d="M 36.1 10 L 33.96 10.7 C 33.96 10.7 33.25 12.83 31.84 14.25 L 23.35 22.73 L 22.47 21.85 L 20.9 22.4 C 19.8 23.44 19.3 25.03 18.23 26.1 C 17.17 27.15 15.57 27.7 13.45 29.8 L 8.15 35.1 C 7.56 35.7 7.56 36.64 8.15 37.23 L 10.27 39.35 C 10.86 39.94 11.8 39.94 12.4 39.35 L 17.7 34.05 C 19.8 31.93 20.35 30.34 21.4 29.3 C 22.47 28.2 24.06 27.7 25.1 26.6 L 25.65 25.03 L 24.77 24.15 L 33.25 15.66 C 34.67 14.25 36.8 13.54 36.8 13.54 L 37.5 11.4 L 36.1 10 z M 14.46 10.16 C 13.33 10.2 12.2 10.64 11.3 11.46 L 16 12.7 L 14.8 17.06 L 9.87 15.73 C 10.04 16.8 10.6 17.8 11.7 18.47 C 14.37 20.06 17.8 19.24 19.14 20.6 L 20.2 21.65 A 1 1 0 0 1 20.56 21.43 L 22.15 20.9 A 1 1 0 0 1 23.2 21.14 L 23.35 21.3 L 23.73 20.94 L 20.74 17.94 C 18.8 16 20.66 14.47 17.57 11.4 C 16.7 10.5 15.6 10.13 14.46 10.16 z M 26.56 23.77 L 26.2 24.15 L 26.36 24.3 A 1 1 0 0 1 26.6 25.35 L 26.07 26.94 A 1 1 0 0 1 25.85 27.3 L 28.35 29.8 C 30.3 31.73 30.3 35.97 32.4 38.1 C 34.16 39.85 37 39.85 38.77 38.1 C 40.53 36.34 40.53 33.5 38.77 31.73 C 36.65 29.6 32.4 29.6 30.46 27.67 L 26.56 23.77 z M 35.3 32.35 A 2.5 2.5 0 0 1 37.44 33.05 A 2.5 2.5 0 0 1 37.44 36.6 A 2.5 2.5 0 0 1 33.9 36.6 A 2.5 2.5 0 0 1 33.9 33.05 A 2.5 2.5 0 0 1 35.3 32.35 z " fill="currentColor" opacity=".6" stop-color="#000000"/><path class="ColorScheme-Background" d="M 36.1 10 L 33.96 10.7 C 33.96 10.7 33.25 12.83 31.84 14.25 L 23.35 22.73 L 22.47 21.85 L 20.9 22.4 C 19.8 23.44 19.3 25.03 18.23 26.1 C 17.17 27.15 15.57 27.7 13.45 29.8 L 8.15 35.1 C 7.56 35.7 7.56 36.64 8.15 37.23 L 10.27 39.35 C 10.86 39.94 11.8 39.94 12.4 39.35 L 17.7 34.05 C 19.8 31.93 20.35 30.34 21.4 29.3 C 22.47 28.2 24.06 27.7 25.1 26.6 L 25.65 25.03 L 24.77 24.15 L 33.25 15.66 C 34.67 14.25 36.8 13.54 36.8 13.54 L 37.5 11.4 L 36.1 10 z M 14.46 10.16 C 13.33 10.2 12.2 10.64 11.3 11.46 L 16 12.7 L 14.8 17.06 L 9.87 15.73 C 10.04 16.8 10.6 17.8 11.7 18.47 C 14.37 20.06 17.8 19.24 19.14 20.6 L 20.2 21.65 A 1 1 0 0 1 20.56 21.43 L 22.15 20.9 A 1 1 0 0 1 23.2 21.14 L 23.35 21.3 L 23.73 20.94 L 20.74 17.94 C 18.8 16 20.66 14.47 17.57 11.4 C 16.7 10.5 15.6 10.13 14.46 10.16 z M 35.95 10.6 L 36.9 11.55 L 36.4 13.17 C 36.03 13.3 34.3 13.9 32.9 15.3 L 24.4 23.8 A .5 .5 0 0 0 24.4 24.5 L 25.1 25.17 L 24.7 26.3 C 23.74 27.23 22.2 27.77 21.05 28.9 C 19.9 30.1 19.5 31.63 17.34 33.7 L 12.04 39 C 11.64 39.4 11 39.4 10.6 39 L 8.5 36.9 C 8.1 36.5 8.1 35.86 8.5 35.46 L 13.8 30.16 C 15.87 28.1 17.5 27.6 18.6 26.45 C 19.73 25.3 20.27 23.76 21.2 22.8 L 22.33 22.4 L 23 23.1 A .5 .5 0 0 0 23.7 23.1 L 32.2 14.6 C 33.6 13.2 34.2 11.47 34.33 11.1 L 35.95 10.6 z M 14.47 10.66 C 15.5 10.63 16.46 11 17.2 11.73 C 18.7 13.2 18.94 14.2 19.1 15.17 C 19.25 16.15 19.3 17.2 20.4 18.3 L 22.7 20.6 C 22.44 20.55 22.23 20.35 22 20.43 L 20.5 20.96 A .5 .5 0 0 0 20.4 20.96 C 20.35 21 20.3 21 20.3 21.03 L 19.5 20.24 C 18.64 19.4 17.34 19.3 16 19.1 C 14.63 18.96 13.2 18.77 12 18.04 C 11.3 17.63 10.9 17.07 10.66 16.46 L 14.7 17.54 A .5 .5 0 0 0 15.3 17.2 L 16.46 12.84 A .5 .5 0 0 0 16.1 12.23 L 12.53 11.27 C 13.14 10.9 13.8 10.7 14.47 10.66 z M 26.56 23.77 L 26.2 24.15 L 26.36 24.3 A 1 1 0 0 1 26.6 25.35 L 26.07 26.94 A 1 1 0 0 1 25.85 27.3 L 28.35 29.8 C 30.3 31.73 30.3 35.97 32.4 38.1 C 34.16 39.85 37 39.85 38.77 38.1 C 40.53 36.34 40.53 33.5 38.77 31.73 C 36.65 29.6 32.4 29.6 30.46 27.67 L 26.56 23.77 z M 26.7 23.97 L 26.86 24.1 L 26.75 24.1 C 26.7 24.1 26.75 24 26.7 23.97 z M 26.9 24.8 L 30.1 28 C 31.2 29.1 32.83 29.6 34.4 30.1 C 35.96 30.6 37.47 31.14 38.4 32.1 C 40 33.65 40 36.17 38.4 37.74 C 36.85 39.3 34.3 39.3 32.76 37.74 C 31.8 36.9 31.3 35.3 30.8 33.7 C 30.3 32.16 29.8 30.54 28.7 29.45 L 26.47 27.2 C 26.5 27.2 26.53 27.15 26.54 27.1 A .5 .5 0 0 0 26.54 27.1 L 27.07 25.5 C 27.15 25.27 26.95 25.06 26.9 24.8 z M 35.56 31.8 C 35.44 31.83 35.3 31.84 35.2 31.86 C 34.6 31.96 34 32.25 33.55 32.7 C 32.4 33.87 32.4 35.8 33.55 36.94 C 34.7 38.1 36.63 38.1 37.8 36.94 C 38.96 35.8 38.96 33.87 37.8 32.7 C 37.2 32.1 36.4 31.8 35.56 31.8 z M 35.3 32.35 A 2.5 2.5 0 0 1 37.44 33.05 A 2.5 2.5 0 0 1 37.44 36.6 A 2.5 2.5 0 0 1 33.9 36.6 A 2.5 2.5 0 0 1 33.9 33.05 A 2.5 2.5 0 0 1 35.3 32.35 z " fill="currentColor" opacity=".6"/></g><use href="#ujv" opacity=".4"></use><use fill="url(#ujt)" href="#ujv" opacity=".2"></use><path d="m 42,24 c -6,0 -6,4 -12,4 H 10 c -2.2,0 -4,1.8 -4,4 v 48 c 0,2.2 1.8,4 4,4 h 76 c 2.2,0 4,-1.8 4,-4 V 50 32 28 c 0,-2.2 -1.8,-4 -4,-4 z" fill="url(#ujs)" opacity=".2"/><path class="ColorScheme-Contrast" d="m 6,79 v 1 c 0,2.2 1.8,4 4,4 h 76 c 2.2,0 4,-1.8 4,-4 v -1 c 0,2.2 -1.8,4 -4,4 H 10 C 7.8,83 6,81.2 6,79 Z" fill="currentColor" opacity=".1"/><path class="ColorScheme-Contrast" d="M 6,79.5 V 80 c 0,2.2 1.8,4 4,4 h 76 c 2.2,0 4,-1.8 4,-4 v -0.5 c 0,2.2 -1.8,4 -4,4 H 10 c -2.2,0 -4,-1.8 -4,-4 z" fill="currentColor" opacity=".2"/><path d="m 42,24 c -6,0 -6,4 -12,4 H 10 c -2.2,0 -4,1.8 -4,4 v 1 c 0,-2.2 1.8,-4 4,-4 h 20 c 6,0 6,-4 12,-4 h 44 c 2.2,0 4,1.8 4,4 v -1 c 0,-2.2 -1.8,-4 -4,-4 z" fill="#fff" opacity=".1"/><path d="m 42,24 c -6,0 -6,4 -12,4 H 10 c -2.2,0 -4,1.8 -4,4 v 0.5 c 0,-2.2 1.8,-4 4,-4 h 20 c 6,0 6,-4 12,-4 h 44 c 2.2,0 4,1.8 4,4 V 28 c 0,-2.2 -1.8,-4 -4,-4 z" fill="#fff" opacity=".2"/><path d="m 42,23 c -6,0 -6,4 -12,4 H 10 v 1 h 20 c 6,0 6,-4 12,-4 h 44 v -1 z" opacity=".1"/><path d="m 42,23.5 c -6,0 -6,4 -12,4 H 10 V 28 h 20 c 6,0 6,-4 12,-4 h 44 v -0.5 z" opacity=".2"/></g>
</svg>