<?xml version="1.0" encoding="utf-8"?><svg height="96" width="96" xmlns="http://www.w3.org/2000/svg" xmlns:svg="http://www.w3.org/2000/svg" xmlns:xlink="http://www.w3.org/1999/xlink"><defs id="primary-definitions"><style id="current-color-scheme" type="text/css">.ColorScheme-Text           { color:#fff; }
      .ColorScheme-Background     { color:#111; }
      .ColorScheme-Highlight      { color:#3daefd; }
      .ColorScheme-ViewBackground { color:#000; }
      .ColorScheme-PositiveText   { color:#27ae60; }
      .ColorScheme-NeutralText    { color:#f67400; }
      .ColorScheme-NegativeText   { color:#da4453; }
  </style><style id="extended-color-scheme" type="text/css">.ExScheme-Black     { color:#3e3e3e; }
      .ExScheme-White     { color:#fcfcfc; }
      .ExScheme-Grey-1    { color:#cfd5d5; }
      .ExScheme-Grey-2    { color:#909c9c; }
      .ExScheme-Grey-3    { color:#536161; }
      .ExScheme-Red-1     { color:#ffafa5; }
      .ExScheme-Red-2     { color:#bf4231; }
      .ExScheme-Red-3     { color:#4d2f2b; }
      .ExScheme-Green-1   { color:#abf9c7; }
      .ExScheme-Green-2   { color:#3bb566; }
      .ExScheme-Green-3   { color:#377d50; }
      .ExScheme-Blue-1    { color:#abdaf9; }
      .ExScheme-Blue-2    { color:#3daefd; }
      .ExScheme-Blue-3    { color:#2b3c4d; }
      .ExScheme-Yellow-1  { color:#faffa5; }
      .ExScheme-Yellow-2  { color:#cac726; }
      .ExScheme-Yellow-3  { color:#4b4d2b; }
      .ExScheme-Orange-1  { color:#ffdaa5; }
      .ExScheme-Orange-2  { color:#ff9701; }
      .ExScheme-Orange-3  { color:#4d372b; }
      .ExScheme-Brown-1   { color:#e9d6bb; }
      .ExScheme-Brown-2   { color:#997657; }
      .ExScheme-Brown-3   { color:#433a35; }
      .ExScheme-Purple-1  { color:#e2abf9; }
      .ExScheme-Purple-2  { color:#b401ff; }
      .ExScheme-Purple-3  { color:#432b4d; }
      .ExScheme-Cyan-1    { color:#b2f2e6; }
      .ExScheme-Cyan-2    { color:#31bfa6; }
      .ExScheme-Cyan-3    { color:#2b4d47; }
      .ExScheme-Magenta-1 { color:#f8a6d8; }
      .ExScheme-Magenta-2 { color:#f00091; }
      .ExScheme-Magenta-3 { color:#770048; }
  </style><linearGradient id="gradientDark"><stop offset="0"/><stop offset="1" stop-opacity="0"/></linearGradient><linearGradient id="gradientLight"><stop offset="0" stop-color="#fff"/><stop offset="1" stop-color="#fff" stop-opacity="0"/></linearGradient><style class="toggle-enable-crease" type="text/css">.folder-crease { display: none; }
  </style><style class="toggle-manilla-folders" type="text/css">.folder-manilla { display: none; }
  </style><radialGradient cx=".5" cy="0" id="gl1" r="1" xlink:href="#gradientLight"/><linearGradient id="gd1" xlink:href="#gradientDark" y1="1" y2=".5"/><path d="m 14,12 c -2.216,0 -4,1.784 -4,4 v 4 8 c -2.216,0 -4,1.784 -4,4 v 48 c 0,2.216 1.784,4 4,4 h 76 c 2.216,0 4,-1.784 4,-4 V 50 32 28 c 0,-2.216 -1.784,-4 -4,-4 v -4 c 0,-2.216 -1.784,-4 -4,-4 H 42 c -6,0 -6,-4 -12,-4 z" id="use-path-6r"/><path d="m 14,12 c -2.216,0 -4,1.784 -4,4 v 4 8 h 20 c 6,0 6,-4 12,-4 h 44 v -4 c 0,-2.216 -1.784,-4 -4,-4 H 42 c -6,0 -6,-4 -12,-4 z" id="use-path-6s"/></defs><g id="content"><use class="folder-manilla ExScheme-Brown-1" fill="currentColor" href="#use-path-6r"/><use class="toggle-manilla-folders ColorScheme-Highlight" fill="currentColor" href="#use-path-6r" id="primary-color"/><use class="ColorScheme-Text" fill="currentColor" href="#use-path-6r" opacity=".1"/><g id="emblem" transform="translate(24,32)"><path class="ColorScheme-Background" d="M 24 4 C 12.92 4 4 12.92 4 24 C 4 35.08 12.92 44 24 44 C 35.08 44 44 35.08 44 24 C 44 12.92 35.08 4 24 4 z M 24.86 5.02 C 30.165 5.256 34.89 7.646 38.188 11.342 C 38.157 11.418 37.916 12.033 37.916 12.484 C 37.916 12.964 37.915 13.445 38.395 13.445 C 39.354 13.445 38.824 14.67 38.395 14.885 C 37.435 15.365 37.436 15.844 37.436 16.324 C 37.436 16.804 36.476 17.044 35.996 17.523 C 35.276 18.243 35.447 18.134 35.037 18.723 C 34.846 18.997 34.79 19.217 34.557 19.682 C 34.077 20.64 34.557 20.16 34.557 20.64 C 34.557 21.12 34.556 22.08 34.076 23.04 C 33.596 24 35.516 24.96 35.516 25.44 C 35.516 25.92 36.004 26.39 37.436 27.36 C 37.9 27.674 39.355 27.36 40.314 27.36 C 41.072 27.36 41.836 26.77 42.83 26.52 C 41.644 35.538 34.185 42.525 24.947 42.975 C 25.133 42.736 25.313 42.49 25.44 42.232 C 25.92 41.273 25.593 40.975 25.92 40.312 C 26.247 39.65 27.84 39.833 28.318 38.873 C 28.798 37.913 29.28 37.434 29.28 35.994 C 29.28 34.555 30.72 34.555 30.72 32.156 C 30.24 31.676 28.798 30.717 28.318 30.717 C 27.84 30.717 25.44 30.238 24.96 29.758 C 24.48 29.278 23.522 26.88 22.562 26.88 C 21.603 26.88 21.122 26.878 20.643 26.398 C 20.163 25.92 19.204 24.96 16.805 24.48 C 14.406 24 13.445 24.48 13.445 24.96 C 13.445 25.44 11.527 25.44 11.047 25.44 C 10.567 25.44 10.088 24.96 10.088 24.48 C 10.088 24 10.568 23.04 10.088 22.56 C 9.608 22.08 8.648 23.04 8.168 22.56 C 7.688 22.08 9.127 21.122 9.127 20.162 C 7.688 20.162 7.69 20.64 7.21 21.12 C 6.73 21.6 6.25 21.602 5.77 21.602 C 5.533 21.602 5.346 21.374 5.213 21.145 C 5.443 19.604 5.86 18.125 6.434 16.73 C 6.668 16.528 6.958 16.324 7.21 16.324 C 7.69 16.324 8.204 16.806 8.648 16.803 C 9.093 16.8 9.128 16.324 10.088 16.324 C 11.047 16.324 11.527 16.803 11.527 17.283 C 11.527 17.763 12.007 17.764 12.486 17.764 C 12.486 17.284 12.007 16.323 12.967 15.363 C 13.926 14.404 14.406 14.883 15.365 13.924 C 16.325 12.964 15.845 12.965 16.805 12.006 C 17.284 11.526 17.948 11.817 18.244 11.525 C 18.54 11.234 18.244 10.566 19.684 10.086 C 21.123 9.606 20.163 10.566 20.643 10.566 C 21.122 10.087 23.52 10.087 23.04 9.127 C 22.56 9.127 22.56 9.605 21.602 9.605 C 20.642 9.605 22.562 8.166 22.082 8.166 C 21.602 8.166 21.122 7.688 22.082 7.688 C 22.457 7.688 22.41 8.27 23.04 8.166 C 23.334 8.118 22.562 7.688 23.52 7.688 C 24.48 7.688 24.48 7.207 24.96 7.207 C 25.44 7.207 24.002 8.646 24.002 8.646 C 24.002 8.646 25.44 9.127 25.92 9.127 C 26.4 9.127 26.4 8.646 25.92 8.166 C 25.44 7.686 24.962 8.167 25.44 7.688 C 25.92 7.208 26.4 6.247 25.44 5.768 C 25.04 5.567 24.897 5.284 24.86 5.02 z M 18.666 5.758 C 18.365 5.88 18.008 6.004 17.764 6.248 C 17.284 6.728 17.284 7.207 16.805 7.207 C 16.475 7.207 16.465 6.797 16.488 6.533 C 17.192 6.23 17.92 5.974 18.666 5.758 z M 13.184 8.45 C 13.836 8.406 14.286 8.767 13.926 9.127 C 13.52 9.533 13.1 9.258 12.11 9.162 C 12.407 8.925 12.71 8.698 13.02 8.48 C 13.076 8.47 13.132 8.455 13.184 8.45 z M 14.088 9.545 C 14.584 9.5 15.785 10.086 15.365 10.086 C 14.885 10.086 14.406 10.566 13.926 10.566 C 13.446 10.566 13.643 9.888 13.926 9.605 C 13.96 9.57 14.017 9.55 14.088 9.545 z M 13.445 9.605 C 13.684 9.605 13.082 9.908 12.727 10.326 C 12.366 10.75 12.007 11.527 11.766 11.285 C 11.526 11.045 12.007 10.566 12.486 10.086 C 12.966 9.606 12.966 9.605 13.445 9.605 z M 15.844 10.205 C 16.084 10.205 16.324 10.327 16.324 10.566 C 16.324 11.046 15.365 11.046 15.365 10.566 C 15.365 10.327 15.604 10.205 15.844 10.205 z M 13.445 11.045 L 14.885 11.045 C 14.885 11.045 14.406 11.525 13.926 11.525 C 13.446 11.525 12.966 11.045 13.445 11.045 z M 39.814 13.443 C 39.995 13.714 40.17 13.988 40.336 14.268 C 39.43 14.01 39.403 13.838 39.814 13.443 z M 5.396 22.512 C 6.097 22.575 6.535 23.52 7.21 23.52 C 8.17 23.52 9.127 24.48 9.127 24.96 C 9.127 25.44 10.567 26.398 11.047 26.398 C 11.527 26.398 11.903 25.456 12.486 26.88 C 13.07 28.302 11.047 29.278 11.047 29.758 C 11.047 30.238 11.287 30.237 11.287 30.717 C 11.287 31.197 11.03 31.186 11.047 31.676 C 11.065 32.166 11.526 32.156 12.006 33.115 C 12.486 34.075 12.966 35.514 13.445 35.994 C 13.925 36.474 15.364 36.474 15.844 37.434 C 16.158 38.062 16.272 40.04 16.318 41.39 C 9.64 38.45 5 31.79 5 24 C 5 23.512 5.025 23.03 5.06 22.55 C 5.18 22.514 5.29 22.502 5.396 22.512 z " fill="currentColor" opacity=".6"/><path class="ColorScheme-Background" d="M 24,4 C 12.92,4 4,12.92 4,24 4,35.08 12.92,44 24,44 35.08,44 44,35.08 44,24 44,12.92 35.08,4 24,4 Z m 0,0.5 c .097,0 .186,.028 .283,.03 l .082,.562 c .055,.39 .327,.86 .854,1.123 .33,.165 .303,.23 .27,.43 -.01,.068 -.095,.15 -.135,.234 -.022,-.022 -.022,-.056 -.047,-.072 -.13,-.086 -.253,-.1 -.346,-.1 -.407,0 -.68,.233 -.818,.324 -.137,.092 -.225,.156 -.62,.156 -.277,0 -.467,-.002 -.7,.14 -.048,.03 -.073,.104 -.117,.154 -.026,-.03 -.03,-.04 -.066,-.074 C 22.523,7.303 22.305,7.188 22.082,7.188 c -.28,0 -.487,.013 -.71,.136 -.112,.06 -.243,.17 -.307,.344 -.064,.173 -.03,.365 .03,.484 .082,.164 .195,.207 .303,.27 -.047,.055 -.072,.085 -.12,.145 -.16,.193 -.33,.357 -.42,.68 -.042,.152 -.012,.425 .15,.615 -.02,.006 -.038,.023 -.06,.03 C 20.932,9.838 20.944,9.8 20.906,9.744 20.803,9.593 20.616,9.495 20.465,9.467 c -.303,-.057 -.548,.014 -.94,.145 -1.42,.474 -1.68,1.413 -1.652,1.543 -.043,.004 -.142,.026 -.324,.043 -.28,.026 -.74,.098 -1.098,.455 -.51,.51 -.693,.848 -.812,1.088 -.12,.24 -.177,.38 -.627,.83 -.42,.42 -.644,.48 -1.004,.6 -.36,.12 -.856,.3 -1.395,.84 -.736,.736 -.766,1.48 -.707,2.045 -.07,-.31 -.168,-.626 -.44,-.83 -.347,-.26 -.816,-.4 -1.38,-.4 -.562,0 -.954,.17 -1.184,.318 -.23,.148 -.216,.16 -.26,.16 -.04,3.15e-4 -.236,-.067 -.482,-.188 -.246,-.12 -.546,-.29 -.953,-.29 -.52,0 -.838,.3 -1.102,.527 l -.09,.078 C 7.134,13.766 8.863,11.457 10.973,9.555 L 12.062,9.66 c .054,.005 .082,.013 .133,.02 -.023,.023 -.038,.028 -.062,.053 -.24,.24 -.492,.484 -.684,.752 -.096,.134 -.185,.274 -.23,.473 -.044,.2 .013,.504 .19,.682 .1,.1 .268,.186 .434,.19 .165,.005 .294,-.053 .385,-.11 .18,-.113 .272,-.236 .37,-.363 .07,-.093 .12,-.163 .186,-.258 -.004,.115 -.012,.237 .02,.31 .048,.103 .107,.17 .166,.23 .238,.238 .546,.387 .953,.387 .407,0 .715,-.176 .938,-.324 .222,-.15 0.375,-.303 0.375,-.303 l 0.125,-.127 c .57,.278 1.46,.073 1.46,-.705 0,-.287 -.177,-.554 -.373,-.686 -.196,-.13 -.403,-.176 -.607,-.176 -.008,0 -.016,.006 -.023,.006 -.026,-.03 -.054,-.07 -.076,-.09 C 15.592,9.487 15.456,9.425 15.277,9.344 15.032,9.232 14.726,9.188 14.428,9.14 c .042,-.1 .127,-.172 0.125,-.285 -.005,-.248 -.14,-.462 -.29,-.594 C 13.958,7.996 13.574,7.924 13.148,7.953 c -.122,.008 -.188,.028 -.21,.03 l -.08,.014 c .986,-.686 2.045,-1.27 3.154,-1.766 l -.023,.256 c -.014,.16 -.03,.373 .045,0.625 .038,.126 .106,.273 .242,.396 .136,.124 .34,.197 .527,.197 .203,0 .417,-.063 .572,-.172 .156,-.11 .25,-.238 .324,-.35 .148,-.222 .235,-.403 .416,-.584 .13,-.13 .417,-.25 .738,-.38 L 18.557,5.36 C 20.294,4.856 22.095,4.5 24,4.5 Z m .86,.52 c 5.306,.234 10.03,2.624 13.328,6.32 -.03,.076 -.27,.69 -.27,1.143 0,.48 -0,.96 .48,.96 .96,0 .43,1.225 0,1.44 -.96,.48 -.96,.96 -.96,1.44 0,.48 -.96,.72 -1.44,1.2 -.72,.72 -.55,.61 -.96,1.2 -.19,.275 -.248,.494 -.48,.96 -.48,.96 0,.48 0,.96 0,.48 -6.78e-4,1.44 -.48,2.4 -.48,.96 1.44,1.92 1.44,2.398 0,.48 .488,.95 1.92,1.92 .464,.314 1.92,0 2.88,0 .758,0 1.522,-.59 2.516,-.84 -1.186,9.02 -8.645,16.006 -17.883,16.455 .186,-.24 .366,-.486 .494,-.742 .48,-.96 .15,-1.257 .48,-1.92 .327,-.663 1.92,-.48 2.398,-1.44 .48,-.96 .96,-1.44 .96,-2.88 0,-1.44 1.44,-1.44 1.44,-3.838 -.48,-.48 -1.92,-1.44 -2.4,-1.44 -.48,0 -2.878,-.48 -3.357,-.96 -.48,-.48 -1.44,-2.88 -2.398,-2.88 -.96,0 -1.44,-6.79e-4 -1.92,-.48 -.48,-.48 -1.44,-1.438 -3.838,-1.918 -2.4,-.48 -3.36,-0 -3.36,.48 0,.48 -1.92,.48 -2.398,.48 -.48,0 -.96,-.48 -.96,-.96 0,-.48 .48,-1.44 0,-1.92 -.483,-.48 -1.449,.48 -1.922,0 -.48,-.48 .963,-1.44 .963,-2.398 -1.441,0 -1.438,.48 -1.918,.96 -.48,.48 -.96,.48 -1.442,.48 -.236,0 -.423,-.227 -.557,-.457 .23,-1.54 .646,-3.02 1.22,-4.414 .234,-.203 .524,-.406 .775,-.406 .48,0 .995,.482 1.441,.48 .444,-.003 .488,-.48 1.445,-.48 .96,0 1.44,.48 1.44,.96 0,.48 .48,.48 .96,.48 0,-.48 -.48,-1.44 .48,-2.4 .96,-.96 1.44,-.48 2.398,-1.44 .96,-.96 .48,-.958 1.44,-1.918 .48,-.48 1.143,-.19 1.44,-.48 .296,-.29 8.1e-5,-.96 1.44,-1.44 1.44,-.486 .48,.48 .96,.48 .48,-.48 2.878,-.48 2.398,-1.44 -.48,0 -.48,.487 -1.44,.487 -.96,0 .96,-1.442 .48,-1.442 -.48,0 -.96,-.486 0,-.486 .375,0 .328,.583 .96,.486 C 23.334,8.118 22.562,7.688 23.52,7.688 c .96,0 .96,-.488 1.44,-.488 .48,0 -.96,1.442 -.96,1.442 0,0 1.438,.487 1.918,.487 .48,0 .48,-.48 0,-.965 -.48,-.48 -.958,0 -.48,-.486 .48,-.48 .96,-1.444 0,-1.92 C 25.04,5.567 24.897,5.284 24.86,5.02 Z m -6.193,.736 c -.3,.123 -.658,.246 -.902,.49 -.48,.48 -.48,.963 -.96,.963 -.33,0 -.34,-.41 -.316,-.674 .704,-.302 1.432,-.56 2.178,-.775 z M 25,8.297 c .044,.025 .092,.1 .12,.107 .16,.045 .173,.022 .203,.02 .12,-3.157e-4 .122,-.028 .244,.094 .02,.021 .007,.015 .023,.035 -.206,-.04 -.4,-.07 -.672,-.148 -.008,-.002 -.007,-.002 -.016,-.004 C 24.948,8.35 24.954,8.35 25,8.297 Z M 13.184,8.45 c .652,-.045 1.102,.316 .742,.676 -.406,.406 -.827,.13 -1.814,.035 .296,-.237 .6,-.464 .91,-.685 .054,-.01 .11,-.024 .162,-.027 z m .904,1.094 c .496,-.043 1.697,.54 1.277,.54 -.48,0 -.96,.48 -1.44,.48 -.48,0 -.283,-.678 0,-.962 .035,-.035 .09,-.054 .162,-.06 z m 1.277,.04 c -.044,0 -.06,.028 -.102,.03 .004,-0 .014,-.015 .018,-.016 .063,-.02 .08,-.016 .084,-.016 z m -1.92,.02 c .238,0 -.363,.303 -.72,.72 -.36,.423 -.72,1.2 -.96,.96 -.24,-.24 .24,-.72 .72,-1.2 .48,-.484 .48,-.482 .96,-.482 z m 2.398,.6 c .24,0 .48,.12 .48,.36 0,.48 -.96,.48 -.96,0 0,-.24 .24,-.36 .48,-.36 z m -2.617,.34 c .004,.013 .003,.024 .008,.037 -.02,.005 -.04,.005 -.062,.012 .016,-.017 .037,-.032 .055,-.05 z m .22,0.5 h 1.44 c 0,0 -.48,.48 -.96,.48 -.48,0 -.96,-.48 -.48,-.48 z m 25.287,.275 c .39,.452 .79,.892 1.137,1.38 l -.41,.383 c -.083,.08 -.15,.173 -.22,.268 -.175,-.242 -.486,-.363 -.8,-.38 -.017,-.062 -.03,-.254 -.03,-.486 0,-.273 .21,-.89 .236,-.96 z m 1.082,2.123 c .18,.27 .355,.544 .52,.824 -.907,-.26 -.933,-.43 -.52,-.824 z m -.467,.88 c .085,.07 .16,.17 .252,.215 .168,.084 .36,.142 .6,.21 l 1.047,.3 C 42.64,17.736 43.5,20.748 43.5,24 c 0,.645 -.127,1.252 -.188,1.88 l -.605,.154 c -1.115,.282 -1.894,.824 -2.393,.824 -.534,0 -1.142,.08 -1.662,.12 -.26,.02 -.497,.026 -.672,.014 -.175,-.012 -.28,-.058 -.264,-.047 -.707,-.48 -1.17,-.83 -1.426,-1.084 -.255,-.253 -.275,-.352 -.275,-.422 0,-.227 -.09,-.37 -.172,-.486 -.08,-.116 -.17,-.212 -.268,-.31 -.193,-.193 -.414,-.385 -.607,-.578 -.193,-.193 -.35,-.39 -.42,-.53 -.07,-.142 -.07,-.18 -.025,-.27 .54,-1.08 .533,-2.143 .533,-2.623 0,-.163 -.083,-.323 -.172,-.457 .02,-.056 .036,-.113 .12,-.28 .246,-.492 .297,-.686 .443,-.896 .43,-.618 .193,-.42 .902,-1.13 .15,-.15 .478,-.328 .803,-.523 .163,-.097 .327,-.202 .48,-.354 .152,-.152 .305,-.39 .305,-.676 0,-.24 .006,-.376 .066,-.496 .06,-.12 .195,-.286 .615,-.496 .24,-.12 .384,-.293 .512,-.488 .1,-.153 .164,-.336 .22,-.52 z M 8.28,20.828 C 8.19,20.983 8.18,21.084 8.06,21.25 c -.152,.214 -.307,.422 -.41,.686 -.052,.132 -.092,.288 -.076,.47 .016,.18 .107,.376 .24,.51 .238,.238 .582,.302 .834,.28 .252,-.023 .457,-.098 .637,-.158 .18,-.06 .334,-.104 .412,-.11 .078,-.007 .035,-.012 .037,-.01 .063,.063 .092,.217 .04,.523 -.05,.307 -.188,.636 -.188,1.043 0,.288 .17,.5 .316,.72 -.055,-.05 -.134,-.105 -.174,-.148 -.107,-.118 -.104,-.222 -.104,-.092 0,-.286 -.11,-.5 -.248,-.705 -.137,-.206 -.318,-.4 -.53,-.578 -.427,-.356 -.992,-.656 -1.64,-.656 -.104,0 -.28,-.116 -.568,-.357 -.21,-.183 -.467,-.43 -.822,-.562 .48,-.002 1.165,-.046 1.744,-0.625 .3,-.3 .412,-.514 .545,-.613 .023,-.017 .144,-.017 .174,-.033 z m -3.518,.537 .018,.03 c .082,.14 .18,.295 .332,.434 .074,.068 .168,.135 .275,.186 -.157,-.008 -.318,.01 -.475,.06 l -.23,.07 c .025,-.26 .043,-.52 .078,-.777 z m .633,1.146 c .7,.063 1.138,1.008 1.812,1.008 .96,0 1.918,.96 1.918,1.44 0,.48 1.449,1.44 1.92,1.44 .48,0 .856,-.943 1.44,.48 .583,1.423 -1.44,2.4 -1.44,2.88 0,.48 .24,.48 .24,.96 0,.48 -.258,.47 -.24,.96 .018,.49 .48,.48 .96,1.44 .48,.96 .96,2.4 1.44,2.88 .482,.48 1.92,.48 2.398,1.44 .314,.628 .428,2.617 .475,3.957 C 9.64,38.45 5,31.79 5,24 c 0,-.488 .025,-.97 .06,-1.45 .12,-.037 .23,-.05 .336,-.04 z M 15.25,24.787 c .395,.014 .88,.068 1.457,.184 2.3,.46 3.102,1.302 3.582,1.78 .3,.3 .66,.48 1.036,.557 .375,.075 .758,.07 1.238,.07 .032,0 .173,.05 .36,.236 .187,.187 .397,.476 .598,.79 .2,.315 .392,.655 .568,.953 .176,.3 .31,.544 .52,.752 .238,.238 .51,.344 .838,.467 .327,.123 .7,.23 1.072,.324 .372,.093 .742,.17 1.055,.225 .313,.055 .543,.09 .746,.09 -.047,0 .117,.027 .3,.11 .182,.085 .41,.212 .637,.354 .37,.23 .674,.477 .902,.672 -.05,.876 -.254,1.378 -.557,1.78 -.336,.448 -.82,.973 -.82,1.86 0,1.328 -.398,1.637 -.908,2.656 -.135,.27 -.478,.425 -.96,.576 -.24,.076 -.5,.146 -.752,.26 -.253,.114 -.532,.287 -.69,.605 -.206,.418 -.215,.778 -.232,1.036 -.017,.257 -.034,.462 -.244,.883 -.102,.204 -.262,.428 -.44,.658 l -.643,.822 c -2.503,-.01 -4.875,-.518 -7.066,-1.38 l -.025,-.738 c -.023,-.676 -.063,-1.515 -.14,-2.277 -.075,-.762 -.148,-1.404 -.39,-1.885 -.33,-.66 -.957,-.952 -1.47,-1.145 -.514,-.193 -.958,-.363 -1.02,-.426 -.122,-.122 -.383,-.582 -.617,-1.11 -.234,-.527 -.474,-1.13 -.73,-1.64 -.27,-.538 -.568,-.846 -.746,-1.025 -.09,-.09 -.138,-.144 -.15,-.164 -.013,-.02 -.008,-8.33e-4 -.01,-.045 -.006,-.157 -.003,-.12 .057,-.232 .06,-.113 .184,-.38 .184,-.71 0,-.323 -.114,-.583 -.174,-.703 -.045,-.09 -.046,-.126 -.05,-.193 .03,-.038 .075,-.094 .146,-.162 .165,-.166 .41,-.386 .648,-.652 .24,-.266 .483,-.582 .62,-.975 .14,-.393 .163,-.874 -.03,-1.342 -.15,-.37 -.3,-.615 -.504,-.81 .014,-.002 .02,-3.2e-4 .036,-0.002 .28,-.032 .56,-.077 .826,-.17 .128,-.046 .255,-.103 .38,-.21 .117,-.1 .235,-.283 .252,-.49 .002,-2.04e-4 -0,.005 .012,-.006 .043,-.035 .166,-.104 .383,-.152 .216,-.048 .52,-.074 .916,-.06 z" fill="currentColor" opacity=".6"/></g><use href="#use-path-6s" opacity=".4"/><use class="toggle-flat-design" fill="url(#gd1)" href="#use-path-6s" opacity=".2"/><path class="toggle-flat-design" d="m 42,24 c -6,0 -6,4 -12,4 H 10 c -2.216,0 -4,1.784 -4,4 v 48 c 0,2.216 1.784,4 4,4 h 76 c 2.216,0 4,-1.784 4,-4 V 50 32 28 c 0,-2.216 -1.784,-4 -4,-4 z" fill="url(#gl1)" opacity=".2"/><path class="folder-crease" d="m 6,66 v 3 h 13.5 c 0.831,0 1.5,-.67 1.5,-1.5 0,-0.831 -0.669,-1.5 -1.5,-1.5 z m 70.5,0 c -0.831,0 -1.5,0.669 -1.5,1.5 0,.83 0.669,1.5 1.5,1.5 H 90 v -3 z" opacity=".4"/><path class="ColorScheme-Text" d="m 6,79 v 1 c 0,2.216 1.784,4 4,4 h 76 c 2.216,0 4,-1.784 4,-4 v -1 c 0,2.216 -1.784,4 -4,4 H 10 C 7.784,83 6,81.216 6,79 Z" fill="currentColor" opacity=".1"/><path class="ColorScheme-Text" d="M 6,79.5 V 80 c 0,2.216 1.784,4 4,4 h 76 c 2.216,0 4,-1.784 4,-4 v -0.5 c 0,2.216 -1.784,4 -4,4 H 10 c -2.216,0 -4,-1.784 -4,-4 z" fill="currentColor" opacity=".2"/><path d="m 42,24 c -6,0 -6,4 -12,4 H 10 c -2.216,0 -4,1.784 -4,4 v 1 c 0,-2.216 1.784,-4 4,-4 h 20 c 6,0 6,-4 12,-4 h 44 c 2.216,0 4,1.784 4,4 v -1 c 0,-2.216 -1.784,-4 -4,-4 z" fill="#fff" opacity=".1"/><path d="m 42,24 c -6,0 -6,4 -12,4 H 10 c -2.216,0 -4,1.784 -4,4 v 0.5 c 0,-2.216 1.784,-4 4,-4 h 20 c 6,0 6,-4 12,-4 h 44 c 2.216,0 4,1.784 4,4 V 28 c 0,-2.216 -1.784,-4 -4,-4 z" fill="#fff" opacity=".2"/><path d="m 42,23 c -6,0 -6,4 -12,4 H 10 v 1 h 20 c 6,0 6,-4 12,-4 h 44 v -1 z" opacity=".1"/><path d="m 42,23.5 c -6,0 -6,4 -12,4 H 10 V 28 h 20 c 6,0 6,-4 12,-4 h 44 v -0.5 z" opacity=".2"/></g></svg>