<svg height="96" version="1.1" width="96" xmlns="http://www.w3.org/2000/svg" xmlns:svg="http://www.w3.org/2000/svg" xmlns:xlink="http://www.w3.org/1999/xlink">
<defs id="primary-definitions">
<style id="current-color-scheme" type="text/css">
      .ColorScheme-Text         { color: #232629; }
      .ColorScheme-Background   { color: #eff0f1; }
      .ColorScheme-Highlight    { color: #7ec9f0; }
      .ColorScheme-PositiveText { color: #27ae60; }
      .ColorScheme-NeutralText  { color: #f67400; }
      .ColorScheme-NegativeText { color: #da4453; }
      .ColorScheme-ActiveText   { color: #3daee9; }
      .ColorScheme-Complement   { color: #ffffff; }
      .ColorScheme-Contrast     { color: #000000; }
    </style>
<style id="extended-color-scheme" type="text/css">
      .ExScheme-Black     { color:#3e3e3e; }
      .ExScheme-White     { color:#fcfcfc; }
      .ExScheme-Grey-1    { color:#cfd5d5; }
      .ExScheme-Grey-2    { color:#909c9c; }
      .ExScheme-Grey-3    { color:#536161; }
      .ExScheme-Red-1     { color:#ffafa5; }
      .ExScheme-Red-2     { color:#bf4231; }
      .ExScheme-Red-3     { color:#4d2f2b; }
      .ExScheme-Green-1   { color:#abf9c7; }
      .ExScheme-Green-2   { color:#3bb566; }
      .ExScheme-Green-3   { color:#377d50; }
      .ExScheme-Blue-1    { color:#abdaf9; }
      .ExScheme-Blue-2    { color:#3daefd; }
      .ExScheme-Blue-3    { color:#2b3c4d; }
      .ExScheme-Yellow-1  { color:#faffa5; }
      .ExScheme-Yellow-2  { color:#cac726; }
      .ExScheme-Yellow-3  { color:#4b4d2b; }
      .ExScheme-Orange-1  { color:#ffdaa5; }
      .ExScheme-Orange-2  { color:#ff9701; }
      .ExScheme-Orange-3  { color:#4d372b; }
      .ExScheme-Brown-1   { color:#e9d6bb; }
      .ExScheme-Brown-2   { color:#997657; }
      .ExScheme-Brown-3   { color:#433a35; }
      .ExScheme-Purple-1  { color:#e2abf9; }
      .ExScheme-Purple-2  { color:#b401ff; }
      .ExScheme-Purple-3  { color:#432b4d; }
      .ExScheme-Cyan-1    { color:#b2f2e6; }
      .ExScheme-Cyan-2    { color:#31bfa6; }
      .ExScheme-Cyan-3    { color:#2b4d47; }
      .ExScheme-Magenta-1 { color:#f8a6d8; }
      .ExScheme-Magenta-2 { color:#f00091; }
      .ExScheme-Magenta-3 { color:#770048; }
    </style>
<linearGradient id="uNN">
<stop offset="0"/>
<stop offset="1" stop-opacity="0"/>
</linearGradient>
<linearGradient id="uNO">
<stop offset="0" stop-color="#fff"/>
<stop offset="1" stop-color="#fff" stop-opacity="0"/>
</linearGradient>
<style id="uNP" type="text/css">
        .force-display-for-editing { display: inline !important; }
    </style><style class="remove-if__show-crease" type="text/css">
        .enable-if__show-crease { display: none; }
    </style><style class="remove-if__color-sync-mimes-places" type="text/css">
        .enable-if__color-sync-mimes-places { display: none; }
    </style><radialGradient cx=".5" cy="0" id="uNQ" r="1" xlink:href="#uNO"/><linearGradient id="uNR" xlink:href="#uNN" y1="1" y2=".5"/><style class="ColorScheme-Background" fill="currentColor" opacity=".6" type="text/css">
   .ColorScheme-Text           { color:#eff0f1; }
      .ColorScheme-Background     { color:#31363b; }
      .ColorScheme-Highlight      { color:#3daefd; }
      .ColorScheme-ViewBackground { color:#fcfcfc; }
      .ColorScheme-PositiveText   { color:#27ae60; }
      .ColorScheme-NeutralText    { color:#f67400; }
      .ColorScheme-NegativeText   { color:#da4453; }
  </style><path d="m 14,12 c -2.2,0 -4,1.8 -4,4 v 4 8 c -2.2,0 -4,1.8 -4,4 v 48 c 0,2.2 1.8,4 4,4 h 76 c 2.2,0 4,-1.8 4,-4 V 50 32 28 c 0,-2.2 -1.8,-4 -4,-4 v -4 c 0,-2.2 -1.8,-4 -4,-4 H 42 c -6,0 -6,-4 -12,-4 z" id="uNS"></path><path d="m 14,12 c -2.2,0 -4,1.8 -4,4 v 4 8 h 20 c 6,0 6,-4 12,-4 h 44 v -4 c 0,-2.2 -1.8,-4 -4,-4 H 42 c -6,0 -6,-4 -12,-4 z" id="uNT"></path></defs>
<g id="content" transform="translate(0,0)"><use class="sync-color enable-if__color-sync-mimes-places force-display-for-editing ColorScheme-ActiveText" fill="currentColor" href="#uNS"></use><use class="primary-color remove-if__color-sync-mimes-places ColorScheme-ActiveText" fill="currentColor" href="#uNS"></use><use class="ColorScheme-Contrast" fill="currentColor" href="#uNS" opacity=".1"></use><g id="panorama" transform="translate(6,24)"><rect fill="#fcfcfc" height="21.000248" ry="3" stop-color="#000000" transform="rotate(7.5)" width="21.000248" x="33.705597" y="11.374722"/><path d="m 34.7,17.56 c -.8,-.1 -1.57,.47 -1.7,1.3 l -1.96,14.87 c -.1,.8 .47,1.57 1.3,1.7 l 14.87,1.96 c .8,.1 1.57,-.47 1.7,-1.3 l 1.96,-14.87 c .1,-.8 -.47,-1.57 -1.3,-1.7 z m 1.7,2.7 3.04,3.96 -3.96,3.04 -.9,-1.2 2.77,-2.13 -2.13,-2.77 z" fill="#68377d" id="rect37578" stop-color="#000000"/><path color="#000000" d="M 36.5 33.86 C 36.2 33.87 35.9 33.9 35.6 34 C 35.06 34.15 34.5 34.4 34.04 34.9 L 26.2 42.7 C 25.25 43.67 24.95 44.8 25.3 46.1 L 28.16 56.8 C 28.34 57.46 28.7 57.95 29.1 58.36 C 29.5 58.77 30 59.1 30.65 59.3 L 33.3 60 L 46 60 L 52.6 53.4 C 53.07 52.93 53.3 52.4 53.46 51.83 C 53.6 51.27 53.67 50.7 53.5 50.03 L 50.6 39.3 C 50.45 38.67 50.1 38.2 49.7 37.77 C 49.3 37.36 48.8 37 48.14 36.84 L 37.43 33.97 C 37.1 33.9 36.9 33.85 36.5 33.86 z " fill="#fcfcfc"/><path d="M 48.63,38.83 C 48.37,38.57 48.06,38.37 47.75,38.3 L 37.05,35.4 c -.6,-.17 -1.5,.07 -1.94,.5 l -7.84,7.84 c -.45,.45 -.7,1.33 -.5,1.94 l 2.87,10.7 c .1,.3 .3,.6 .54,.9 l 10.27,-8.75 z" fill="#659ad2"/><path d="m 52,51.45 c .1,-.35 .1,-.7 .03,-1.03 l -2.87,-10.7 c -.1,-.3 -.3,-.6 -.54,-.9 l -9.24,9.24 2.1,2.53 z" fill="#00599c"/><path d="M 39.4 48.07 L 30.16 57.3 C 30.4 57.56 30.73 57.76 31.04 57.85 L 39.07 60 L 43.9 60 L 51.5 52.36 C 51.75 52.13 51.9 51.8 52 51.45 L 39.4 48.07 z " fill="#004382"/><path d="m 41.27,55.1 c -3.9,1.04 -7.9,-1.3 -8.95,-5.17 -1.04,-3.9 1.3,-7.9 5.17,-8.95 2.5,-.67 5.2,.05 7.06,1.9 l -2.6,2.6 c -.9,-.9 -2.3,-1.3 -3.53,-.95 -1.95,.5 -3.1,2.53 -2.6,4.5 .5,1.95 2.53,3.1 4.5,2.6 1.26,-.34 2.25,-1.33 2.6,-2.6 l 3.53,.95 c -.7,2.5 -2.66,4.5 -5.17,5.17 z" fill="#ffffff"/><path d="M 30.7 1.57 C 28.9 2.7 27.44 4 24 4 L 11.96 4 A 12.75 12.75 0 0 0 10.66 13.65 A 12.75 12.75 0 0 0 26.3 22.66 A 12.75 12.75 0 0 0 34.5 15.8 L 30.7 1.57 z " fill="#fcfcfc" stop-color="#000000" stroke-opacity=".2"/><path d="M 30.27 1.83 C 28.7 2.9 27.2 4 24 4 L 13.7 4 A 11.25 11.25 0 0 0 11.76 9.5 A 11.25 11.25 0 0 0 18.9 20.8 L 21.07 13.57 A 3.75 3.75 0 0 1 19.23 10.07 A 3.75 3.75 0 0 1 23.25 6.6 A 3.75 3.75 0 0 1 26.7 10.63 A 3.75 3.75 0 0 1 24.4 13.8 L 25.47 21.3 A 11.25 11.25 0 0 0 33.8 13.27 L 30.9 2.36 A 11.25 11.25 0 0 0 30.27 1.83 z " fill="#3bb566" stop-color="#000000" stroke-opacity=".2"/><path color="#000000" d="m 23.45,14.46 -1.6,.2 c -.9,.1 -1.5,1 -1.26,1.85 0,0 .1,.5 .2,1.17 .07,.55 -.16,2.25 -.2,2.56 -.24,-.17 -.4,-.4 -.76,-.47 -.73,-.1 -1.7,.5 -1.94,1.1 -.27,.6 -.23,1.1 -.14,1.66 .2,1.16 .5,1.37 .85,1.9 -.26,.33 -.57,.64 -.57,1.3 0,.37 -.04,.5 -.05,.55 -.23,.4 -.55,1.1 -.24,2.2 .3,1.1 .9,1.45 1.46,1.85 .27,.2 .53,.37 .8,.5 .1,.06 .4,.2 .43,.23 .13,.16 -.2,2.15 -.16,2.87 .06,.73 .35,1.33 .7,1.85 .2,.27 -.03,1.2 -.27,1.54 -.84,.94 -1.5,2.1 -1.77,3.43 -.27,1.36 -.1,2.93 .9,4.2 .6,.8 1.4,1.65 2.45,2.25 .5,.3 1.07,.5 1.67,.64 -0,.05 -0,.06 -0,.1 -.17,.67 -.4,1.6 -.15,2.65 .05,.2 .15,.4 .3,.6 .5,.6 1.4,1.04 2.2,.97 .76,-.07 1.27,-.4 1.7,-.7 .84,-.63 1.5,-1.4 1.66,-1.5 .75,-.53 1.16,-1.15 1.5,-1.56 .3,-.37 .47,-.5 .6,-.55 .94,-.17 1.9,-.1 2.6,.1 .7,1.17 1.7,2.7 3.7,3.04 .1,0 .2,.03 .3,0 .37,-0 .73,-.06 1.14,-.25 .4,-.2 .87,-.66 1,-1.16 .3,-1 -.1,-1.5 -.3,-1.9 -.2,-.4 -.75,-2.5 -.84,-3.1 .3,-.26 .73,-.46 .9,-.7 .33,-.6 .4,-1.2 .4,-1.2 0,-.27 -.04,-.53 -.17,-.77 .1,-.14 .3,-.2 .4,-.37 .3,-.5 .6,-1.26 .23,-2.07 -.34,-.76 -1.07,-1.1 -1.73,-1.25 -.23,-.06 -.46,-.1 -.7,-.2 -.34,-.3 -.8,-.4 -1.23,-.3 -.4,-.1 -.86,-.23 -1.3,-.35 -0,-.1 -0,-.1 -.03,-.33 -0,-.33 0,-.8 -.2,-1.4 -.06,-.16 -.2,-.5 -.1,-.53 2.1,-.84 4.8,-2.06 5.9,-4.87 0,-.04 .03,-.1 .04,-.13 .8,-2.77 -1.76,-6.86 -2.5,-7.44 l 1.6,-3.15 c .4,-.77 .05,-1.7 -.75,-2.06 l -1.3,-.56 c -.45,-.04 -.9,.1 -1.2,.45 -.03,-.05 -.06,-.1 -.1,-.15 l -1.23,-.8 c -1.04,-.7 -2.4,.1 -2.3,1.36 l .14,2.1 c -.8,-.2 -1.6,-.5 -2.43,-.5 -.04,-0 -.1,-.04 -.1,-.05 -1.63,-0 -3.16,.56 -4.55,1.4 l -.13,-.2 1.9,-1.6 c .6,-.5 .73,-1.4 .3,-2 L 28.03,15.5 C 27.5,14.8 26.5,14.66 25.83,15.23 l -.7,.6 c -.06,-.85 -.8,-1.47 -1.66,-1.4 z" fill="#fcfcfc" fill-rule="evenodd"/><path d="m 34.8,21.94 .9,-.63 -.25,-3.6 1.23,.8 .35,2.25 1.2,-2.4 1.3,.56 -2.25,4.4 z" fill="#ffafa5" fill-rule="evenodd"/><path d="m 31.5,20.84 c -3,-.1 -6.07,1.96 -6.8,4.96 -.44,1.3 -.9,2.57 -1.3,3.86 1.1,.9 2.3,1.75 3.3,2.74 .83,.86 3.66,.6 3.04,2.2 -2.1,.1 -.1,2.26 -.9,3.35 -.86,1.17 -1.35,3.07 -2.5,3.8 -1.5,-.07 -3.35,-.9 -3.1,-2.7 .1,-1.1 -1.1,-1.87 -1.6,-.6 -1.4,1.57 -2.06,4.24 -.5,5.94 1.04,1.3 2.7,2.5 4.4,2.05 .3,1.37 -1.25,3.2 0,4.24 1.34,.3 2.1,-1.2 3.06,-1.87 1.1,-.8 1.7,-2.53 3.3,-2.5 1.6,-.25 3.5,-.03 4.1,1.7 .44,.9 2.7,2.44 2.96,.85 -1,-1.37 -1.04,-3 -1.25,-4.6 -.3,-1.1 -.24,-1.9 .1,-2.83 1.5,.54 2.73,-1.95 .6,-1.85 -1.25,-.57 -3.33,-.24 -3.86,-1.75 0,-1 -.1,-2.1 -1,-2.54 -.3,-1.4 1.53,-1.4 2.37,-1.84 1.9,-.83 4.03,-2.1 4.45,-4.3 .27,-2.47 -1.35,-4.73 -3.15,-6.25 -1.6,-1.33 -3.7,-2.1 -5.8,-2.07 z" fill="#54d883" fill-rule="evenodd"/><path d="m 34,39.5 .66,-.3 c 0,0 .3,1 1.37,.66 1.05,-.35 1.65,-.77 1.65,-.77 0,0 .9,1.7 -.07,2.74 -.95,1.05 -1.5,1.2 -1.5,1.2 -.97,-.86 -1.8,-1.9 -2.1,-3.5 z" fill="#ffe5e1" fill-rule="evenodd"/><path d="m 29.8,34 c 0,0 .35,.7 .2,1.3 -.2,.6 -1.1,1.3 -1.1,1.3 0,0 -.5,1.6 -1.44,2.95 -.47,.67 -1.1,.77 -1.7,.85 -.56,-1.04 -1.24,-.45 -1.95,.16 .13,.17 .27,.3 .4,.44 -0,0 -0,0 -.03,.03 -.77,1.05 1.7,1.4 1.7,1.4 0,0 .3,-.95 2.9,-.53 2.6,.4 3.5,2.14 6.8,2.4 3.33,.25 3.5,-1.7 3.5,-1.7 0,0 -1.3,-.5 -3.44,-2.95 -2.14,-2.46 -1.86,-5 -1.86,-5 l -4,-.63 z m -6.86,4.63 c -.16,.55 -.06,1 .5,1.4 .83,-1.1 .2,-1.23 -.5,-1.4 z" fill="#ffafa5" fill-rule="evenodd"/><path d="m 26.7,23.04 -1.9,-2.77 3,-2.46 -1,-1.44 -3.05,2.6 -.1,-3 -1.6,.2 c 0,0 .63,2.56 .14,3.97 -.5,1.4 -1.3,2.8 -1.3,2.8 l 1.26,.77 1.6,-2.64 1.65,3.6 c 0,0 .46,-.2 .9,-.74 .46,-.53 .4,-.9 .4,-.9 z" fill="#ffafa5" fill-rule="evenodd"/><path d="m 25.1,23.04 c -.4,.33 -.76,.66 -1.14,1 -.34,-1 -.6,-2.05 -.7,-3.13 -.06,-.44 -.2,-1.16 -.77,-1.1 -.54,.15 -.54,.85 -.6,1.3 -.1,.84 -.06,1.7 -0,2.5 -.6,.2 -1.03,-.4 -1.2,-.9 -.2,-.55 -.4,-1.24 -1,-1.5 -.64,-.04 -.5,.8 -.4,1.23 .17,.8 .5,1.55 1,2.2 -.55,.33 -.84,.95 -.77,1.6 0,.56 -.46,1 -.37,1.6 .07,.7 .74,1.16 1.3,1.55 .4,.3 .95,.3 1.2,.8 .3,.4 .8,.6 1.2,.9 .65,.6 1.05,1.43 1.4,2.23 .46,-.1 .93,-.17 1.4,-.25 .23,-.53 .46,-1.06 .7,-1.6 -.44,-2.66 -.8,-5.33 -1.2,-8 -0,-.15 -.04,-.3 -.06,-.44 z" fill="#54d883" fill-rule="evenodd"/><path d="m 28.9,34 c 0,0 .4,.66 .4,1.3 -.04,.63 -.6,1.4 -.6,1.4 0,0 -2.77,.7 -4.35,.04 -1.6,-.66 -3.4,-2.74 -2.25,-3.93 1.16,-1.2 3.76,-2.6 4.35,-1.54 .6,1.05 .56,3.27 1.23,3.16 .66,-.1 1.23,-.4 1.23,-.4 z" fill="#ffe5e1" fill-rule="evenodd"/><path color="#000000" d="M 50.56 0 C 50.3 .05 50 .1 49.75 .2 A 1.5 1.5 0 0 0 49.74 .2 C 46.55 1.05 44.03 3.3 42.47 6.2 C 42.33 6.2 42.2 6.15 42.04 6.2 A 1.5 1.5 0 0 0 42.03 6.2 C 41.5 6.33 41.06 6.6 40.7 6.97 C 39.93 7.7 39.64 8.83 39.9 9.86 L 41.26 14.9 L 42.6 20 C 43.1 21.67 45.06 22.4 46.63 21.8 C 49.43 23.5 52.75 24.2 55.95 23.37 A 1.5 1.5 0 0 0 55.96 23.37 C 62.34 21.66 66.15 15.05 64.44 8.67 C 63.2 4.2 59.5 .85 55.1 0 L 50.56 0 z " fill="#fcfcfc"/><path d="m 50.13,1.64 a 10.5,10.5 0 0 0 -6.9,6 l -0,-0 a 1.5,1.5 0 0 0 -.8,-0 1.5,1.5 0 0 0 -.67,.4 1.5,1.5 0 0 0 -.4,1.45 l 1.35,5 1.35,5 a 1.5,1.5 0 0 0 2.5,.67 L 46.6,20.17 A 10.5,10.5 0 0 0 55.57,21.9 10.5,10.5 0 0 0 63,9.06 10.5,10.5 0 0 0 50.13,1.64 Z" fill="#3bb566" stop-color="#000000"/><path d="m 32,18 -6,3.46 v -6.93 z" fill="#fcfcfc" opacity="1" stop-color="#000000" transform="matrix(1.45,-.39,.39,1.45,-.503,-1.88)"/><path d="m 50.5,3.1 a 9,9 0 0 0 -5.84,4.95 l 1.5,.4 a 7.5,7.5 0 0 1 4.75,-3.9 7.5,7.5 0 0 1 9.2,5.3 7.5,7.5 0 0 1 -5.3,9.2 7.5,7.5 0 0 1 -6.06,-1 l -1.1,1.1 A 9,9 0 0 0 55.2,20.47 9,9 0 0 0 61.54,9.45 9,9 0 0 0 50.5,3.1 Z" fill="#fcfcfc" stop-color="#000000"/><path d="m 51.3,6 a 6,6 0 0 0 -3.66,2.85 l 1.5,.4 A 4.5,4.5 0 0 1 51.7,7.43 4.5,4.5 0 0 1 57.2,10.6 4.5,4.5 0 0 1 54,16.1 4.5,4.5 0 0 1 50.9,15.83 l -1.1,1.1 a 6,6 0 0 0 4.6,.64 6,6 0 0 0 4.24,-7.35 6,6 0 0 0 -7.35,-4.24 z" fill="#fcfcfc" stop-color="#000000"/><path color="#000000" d="m 46.03,16.3 c -1.34,.84 -2,2.47 -1.6,4 l 4.04,15.6 -.77,.5 -0,0 c -.8,.5 -1.2,1.5 -.96,2.45 l 0,0 2.55,9.4 -0,0 c .4,1.4 2.1,2.06 3.3,1.3 l 0,-0 20.6,-13 0,-0 c 1.2,-.77 1.35,-2.6 .26,-3.55 l -0,0 -7.4,-6.35 -0,-0 C 65.34,26.05 64.27,25.97 63.45,26.5 L 62.7,27 50.3,16.6 c -1.2,-1 -2.96,-1.14 -4.3,-.3 z" fill="#fcfcfc"/><path d="m 47.67,17.27 a 2.15,2.15 0 0 0 -.84,.3 2.15,2.15 0 0 0 -.93,2.36 l 4.3,16.7 -1.7,1.07 a .7,.7 0 0 0 -.3,.8 l 2.54,9.4 a .7,.7 0 0 0 1.07,.4 l 20.6,-13 a .7,.7 0 0 0 .1,-1.15 L 65.2,27.8 a .7,.7 0 0 0 -.84,-.06 L 62.55,28.83 49.36,17.75 a 2.15,2.15 0 0 0 -1.7,-.5 z" fill="#ffa92d"/><path color="#31363b" d="M 4 4 C 1.8 4 0 5.77 0 8 L 0 15.36 L .97 14.6 C 1.9 18 4.7 20.7 8.4 21.2 C 13.3 21.83 17.84 18.35 18.5 13.44 C 18.8 11.06 18.14 8.75 16.83 6.96 C 16.8 6.95 16.8 6.94 16.8 6.94 L 14.6 4 L 4 4 z " fill="#fcfcfc"/><path class="ColorScheme-Background" color="#31363b" d="M 4 4 C 2.3 4 .9 5.03 .3 6.5 L 3.6 6.94 L 0 9.7 L 0 13.47 L 2.1 11.9 C 1.87 15.75 4.7 19.2 8.6 19.7 C 12.7 20.24 16.46 17.35 17 13.24 C 17.26 11.25 16.7 9.34 15.6 7.84 L 12.73 4 L 9.06 4 L 9.6 4.7 L 4.27 4 L 4 4 z M 9.65 7.76 A 4.5 4.5 0 0 1 10.15 7.8 A 4.5 4.5 0 0 1 14.03 12.85 A 4.5 4.5 0 0 1 8.97 16.7 A 4.5 4.5 0 0 1 5.2 11.67 A 4.5 4.5 0 0 1 9.14 7.8 A 4.5 4.5 0 0 1 9.65 7.76 z M 9.76 10.77 A 1.5 1.5 0 0 0 8.1 12.06 A 1.5 1.5 0 0 0 9.37 13.75 A 1.5 1.5 0 0 0 11.05 12.46 A 1.5 1.5 0 0 0 9.76 10.77 z " fill="#ffa92d"/><path color="#000000" d="M 12.1 17.36 C 11.6 17.35 11.07 17.4 10.5 17.57 C 8.7 18.1 7.74 19.63 7.34 20.8 C 6.93 21.97 6.9 23 6.9 23 A 1.5 1.5 0 0 0 6.93 23.07 L .54 18.7 A 1.5 1.5 0 0 0 0 18.46 L 0 30.25 C .3 30.7 .66 31.13 1.1 31.55 C 2.65 32.95 4.67 33.06 6.3 33.07 C 6.9 33.07 6.9 33 7.37 33 C 6.87 33.96 6.1 34.4 6.1 34.4 A 1.5 1.5 0 0 0 5.3 35.75 L 5.3 39.5 A 1.5 1.5 0 0 0 8.13 40.16 L 8.94 38.5 C 9.4 38.53 9.6 38.54 10.8 38.6 C 13.1 38.64 15.4 37.65 16.9 35.83 C 18.4 34 18.84 31.2 17.3 28.5 C 16.2 26.5 15.83 25.33 15.7 24.66 L 22.7 22.97 A 1.5 1.5 0 0 0 22.54 20.03 L 16.15 19.2 C 15.7 18.73 14.75 17.8 12.97 17.46 C 12.7 17.5 12.4 17.37 12.1 17.36 z " fill="#fcfcfc"/><path d="m 8.04,36.94 -1.25,2.56 v -3.75 c 5.7,.6 9.8,-2.7 7.2,-8.5 -.57,-1.3 -.4,-3.3 .1,-3.77 -.73,1.47 1,3.7 2.1,6.33 .16,.37 .3,.74 .4,1.24 .07,.64 .1,1.1 -.04,1.6 -.46,2.06 -2.2,3.14 -2.8,3.5 -2.1,1.1 -3.94,1.06 -5.76,.77 z" fill="#2a7fff" fill-rule="evenodd" stroke="#000000" stroke-dasharray="none" stroke-linejoin="miter" stroke-width="0"/><path d="m 9.2,24.46 c -1.1,-1.65 1.55,-6 5.37,-2.94 h 7.76 l -6.76,-.9 c -3.54,-4.33 -8.8,-.2 -6.76,3.26 z" fill="#1a1a1a" fill-rule="evenodd" stroke="#000000" stroke-dasharray="none" stroke-linejoin="miter" stroke-width="0"/><path d="M 0 20.13 L 0 25.34 C .4 26 1.03 26.55 1.85 27.06 L .3 26.7 C .9 29.6 1.66 31.37 5.43 31.46 L 6.24 31.4 C 4.57 31.3 3.07 30.73 2.44 28.06 L 9.5 29.14 C 7.6 28.7 6.33 28.4 4.7 27.87 C 4.23 27.7 3.7 27.54 3.24 27.2 C 1.3 25.65 1.2 24.07 1.46 22.45 L 10.3 27.17 L 0 20.13 z " fill="#2a7fff" fill-rule="evenodd" stroke="#000000" stroke-dasharray="none" stroke-linejoin="miter" stroke-width="0"/><path d="M 23.44 34.5 C 22.4 34.5 21.34 35.04 20.77 36.03 L 18.1 40.64 L 18.1 55.27 L 26.3 60 L 31.1 60 C 31.23 59.85 31.35 59.7 31.45 59.5 L 38.95 46.53 C 39.8 45.1 39.3 43.26 37.85 42.43 L 24.86 34.93 C 24.4 34.67 23.9 34.54 23.44 34.5 z " fill="#fcfcfc" id="rect1342" stop-color="#000000" stroke-opacity=".2"/><path d="m 23.5,35.9 c -.55,-0 -1.1,.27 -1.4,.8 l -1.55,2.7 3.4,1.96 c .57,-.4 1.3,-.43 1.95,-.06 .63,.37 .97,1.05 .9,1.73 l 3.3,1.9 c .57,-.4 1.3,-.44 1.96,-.07 .9,.5 1.2,1.64 .7,2.53 -.5,.9 -1.64,1.2 -2.53,.7 -.67,-.4 -1,-1.1 -.9,-1.84 l -3.05,-1.76 1.7,6.34 c .2,.04 .4,.1 .56,.2 .9,.5 1.2,1.64 .7,2.53 -.5,.9 -1.64,1.2 -2.5,.7 -.9,-.5 -1.2,-1.64 -.7,-2.53 .13,-.2 .3,-.4 .5,-.55 l -1.7,-6.4 c -.24,-.03 -.47,-.1 -.7,-.23 -.67,-.4 -1,-1.13 -.9,-1.85 l -3.35,-1.94 -1.7,2.95 v 9.65 l 10.06,5.8 c .74,.43 1.7,.17 2.1,-.57 l 7.4,-12.84 c .43,-.74 .17,-1.7 -.57,-2.1 v -0 L 24.23,36.13 c -.23,-.13 -.5,-.2 -.74,-.2 z" fill="#f05133"/><path color="#000000" d="M 16.9 38.6 C 16.1 38.65 15.64 39.3 15.45 39.66 C 15.34 39.9 15.3 40.05 15.3 40.2 C 14.44 40 13.6 39.9 12.83 39.9 C 12.16 39.9 11.54 39.95 11 40.1 C 10.7 40.2 10.4 40.5 10.13 40.7 C 9.63 40.6 8.8 40.47 6.83 40.95 C 4.56 41.5 3.4 42.55 3.1 42.8 C 2.9 42.9 1.3 43.7 0 45.67 L 0 56 C 0 56.25 .03 56.5 .07 56.74 C .15 56.9 .23 57.03 .33 57.2 C .65 57.66 1.1 58.23 1.7 58.83 C 2.05 59.15 2.4 59.5 2.83 59.8 C 3.2 59.9 3.6 60 4 60 L 16.7 60 C 16.7 60 16.7 60 16.73 60 C 17 59.83 17.3 59.7 17.54 59.17 C 17.64 58.97 17.65 58.67 17.63 58.4 C 17.8 58.34 17.94 58.46 18.06 58.4 C 18.66 58.1 19.17 57.6 19.74 56.9 C 20.7 55.7 21.2 54.04 21.4 52.23 C 21.6 50.1 21.24 47.8 20.03 45.87 C 20.24 45.57 20.4 45.27 20.5 44.95 C 20.7 44.6 20.9 44.3 21 43.84 C 21.1 43.57 21.13 43.27 21.07 42.9 C 21 42.5 20.75 41.97 20.27 41.7 C 19.95 41.5 19.5 41.44 19.14 41.5 C 19 41.55 18.97 41.6 18.87 41.66 C 18.86 41.54 18.84 41.43 18.83 41.3 C 18.84 41 18.86 40.65 18.76 40.2 C 18.65 39.7 18.36 38.94 17.5 38.7 C 17.33 38.63 17.13 38.6 16.9 38.6 z M 15.3 40.2 C 15.3 40.2 15.3 40.2 15.3 40.23 C 15.3 40.23 15.3 40.23 15.3 40.23 L 15.3 40.2 z " fill="#fcfcfc"/><path d="M 10.3 41.86 C 9.53 41.9 6.27 42.07 4.7 44.2 C 3.3 46.17 4.35 52.63 5.07 54.6 C 5.25 55.1 6 54.24 6 54.24 C 6 54.24 5.46 49.75 8.27 50.4 C 11.76 51.2 7.75 55.9 7.75 55.9 C 7.3 56.7 6.7 56.25 6.16 55.43 C 6.16 55.43 6.44 58.56 7.86 60 L 12.2 60 C 15.8 58.6 20.7 55.16 19.9 49.65 C 18.94 42.7 10.5 41.86 10.5 41.86 C 10.5 41.86 10.44 41.86 10.3 41.86 z " fill="#01195f"/><path d="m 15.33,50.53 2.3,1.65 2.5,-.1 c .2,-2 -.13,-4.2 -1.26,-5.8 -2.06,-3 -4,1.3 -4,1.3 0,0 .6,1.8 .45,2.94 z" fill="#43a6fa"/><path d="m 3.35,58.17 c 0,0 -2.74,-2.3 -3.13,-4.6 -.4,-2.4 -.44,-5.33 .8,-7.2 1.24,-1.85 3.84,-3.7 6.1,-4.24 2.27,-.56 3.4,-.3 3.4,-.3 0,0 -3.84,.64 -4.64,3.06 -.8,2.4 .66,4.66 0,7.1 -.65,2.43 -1.05,3.54 -1.05,3.54 z" fill="#43a6fa"/><path d="M 12.74 41.13 C 11.6 41.14 10.7 41.4 10.5 41.8 C 8.17 46.03 15 46.94 9.17 53.07 C 5.4 57.05 9.13 58.7 11.27 60 L 13.2 60 C 13.8 59.2 13.93 58 13.35 56.3 C 11.8 51.84 12.4 49.4 14.9 48.64 C 17.44 47.9 19.24 46.36 17.9 43.5 C 17.1 41.73 14.63 41.1 12.74 41.13 z M 4.5 51.2 C 4.46 51.2 4.43 51.2 4.4 51.2 C 3.26 51.4 5.1 54.64 4.25 55.4 C 3.4 56.13 3.85 53.67 2.6 54.13 C 1.37 54.6 3.5 56.67 3 57.1 C 2.4 57.65 1.56 55.37 1.07 55.77 C .85 55.95 2.5 58.5 5.4 60 L 11.03 60 C 5.8 57.9 6.53 54 6.2 53.9 C 5.86 53.8 5.86 54.55 5.64 54.6 C 4.8 54.7 5.47 51.27 4.5 51.2 z " fill="#a2cefb"/><circle cx="28.38" cy="46.29" fill="#43a6fa" id="path16506-3" r=".9" stop-color="#000000" transform="rotate(22.94)"/><path d="M 16.1 58.2 C 15.67 58.2 15.2 59 14.54 59.17 C 13.73 59.33 12.63 58.94 12.4 59.76 C 12.37 59.86 12.4 59.94 12.43 60 L 13.85 60 C 14.1 59.9 14.35 59.8 14.6 59.7 C 15.7 59.13 16.85 58.7 16.34 58.3 C 16.26 58.2 16.2 58.2 16.1 58.2 z " fill="#43a6fa"/><path d="m 15.33,50.53 c -.05,.34 -.17,.6 -.4,.8 -1,.7 -2.3,-1.17 -3.35,-.15 -1,1 1.07,2.7 2.64,2.2 1.57,-.5 1.24,1.56 -1.46,1.1 -2.7,-.43 -3.15,-1.3 -3.6,.6 -.43,1.9 3.74,1.17 4.4,.8 .65,-.4 1.57,-.6 1.7,-.35 .1,.23 -1.44,.76 -1.1,1.15 .35,.4 2.73,-2.5 3.3,-1.73 .6,.76 -1.1,.9 -1.1,1.7 0,.8 .76,1.45 2.3,-.54 .7,-.9 1.2,-2.37 1.4,-4 z" fill="#43a6fa"/><path d="m 11.9,42.9 c .63,-.6 2.23,-1.3 2.7,-.2 .5,1.05 -.9,1.54 -1.56,1.5 -.67,-0 -1.45,-.85 -1.16,-1.3 z" fill="#01195f"/><path d="m 16.35,41.04 c 0,0 .13,-1.37 .8,-1.17 .65,.2 .4,1.75 .4,1.75 z" fill="#43a6fa"/><path d="m 16.8,42.9 c 0,0 -.9,-2 -.24,-2.25 .7,-.24 1.1,.37 1.1,1.2 -.03,.83 -.26,1.74 -.26,1.74 z" fill="#a2cefb"/><path d="m 18.64,43.74 c 0,0 .46,-1.27 1,-.96 .54,.3 -.15,1.73 -.46,1.9 -.3,.17 -.54,-.94 -.54,-.94 z" fill="#43a6fa"/><path d="m 18.06,44.7 c 0,0 .63,-1.7 1.13,-1.5 .5,.2 .27,1.57 -.2,2.1 -.5,.5 -1.15,.66 -1.15,.66 z" fill="#a2cefb"/><path d="m 13.5,42.76 a 1.03,1.03 0 0 0 -1.35,.55 1.03,1.03 0 0 0 -.1,.34 c .1,.1 .2,.2 .3,.3 a .76,.76 0 0 1 .03,-.5 .76,.76 0 0 1 1,-.4 .76,.76 0 0 1 .4,1 .76,.76 0 0 1 -.03,.05 c .1,-.04 .23,-.1 .34,-.15 a 1.03,1.03 0 0 0 -.6,-1.15 z" fill="#43a6fa" stop-color="#000000"/><path d="M 36 0 C 30 0 30 4 24 4 L 23.77 4 L 21.7 11.8 C 21.2 13.6 22.27 15.5 24.1 15.97 L 37.9 19.64 C 39.6 20.13 41.5 19.06 41.97 17.24 L 45.64 3.53 C 46 2.2 45.5 .8 44.5 0 L 36 0 z " fill="#fcfcfc" id="rect33149" stop-color="#000000"/><path d="M 36 0 C 30.5 0 30.03 3.36 25.35 3.9 L 23.2 11.86 C 22.9 13.06 23.6 14.3 24.8 14.6 L 37.85 18.1 C 39.06 18.43 40.3 17.7 40.6 16.5 L 44.1 3.47 C 44.43 2.27 43.7 1.04 42.5 .7 L 39.83 0 L 36 0 z M 34.2 1.07 L 36.4 1.44 L 35.35 5.35 L 39.23 2.3 L 41.4 3.44 L 37.4 6.47 L 39.26 11.3 L 36.8 11.4 L 35.06 6.43 L 34.04 10.23 L 31.8 10 L 34.2 1.07 z M 30.9 2.4 C 30.9 2.3 30.9 2.3 30.93 2.4 C 30.96 2.4 31 2.3 31 2.34 L 32.34 3.83 C 32.57 3.8 32.9 3.74 33.04 3.7 L 32.9 4.6 C 31.46 4.83 30.3 5.8 29.93 7.2 C 29.4 9.1 30.55 11.07 32.45 11.6 C 33.8 11.93 35.15 11.5 36 10.5 C 36.3 11.34 36.54 12 36.54 12 C 36.54 12 36.57 12.03 36.6 12.03 L 36.9 12 L 37.13 13.1 C 37.14 13.2 37.1 13.23 37.07 13.26 L 36 13.9 C 35.95 13.9 35.9 13.9 35.86 13.86 L 34.55 12.4 C 34.17 12.5 33.8 12.55 33.4 12.55 L 32.46 14.24 C 32.44 14.3 32.4 14.3 32.33 14.3 L 31.13 13.97 C 31.1 13.96 31.04 13.9 31.04 13.86 L 31.15 11.95 C 30.8 11.76 30.5 11.53 30.25 11.26 L 28.4 11.8 C 28.33 11.8 28.3 11.8 28.25 11.75 L 27.63 10.67 C 27.6 10.63 27.6 10.57 27.65 10.53 L 29.1 9.24 C 29 8.85 28.95 8.44 28.96 8.03 L 27.3 7.1 C 27.25 7.1 27.23 7.04 27.25 7 L 27.56 5.8 C 27.6 5.73 27.63 5.7 27.7 5.7 L 29.6 5.8 C 29.8 5.5 30.03 5.2 30.3 4.97 L 29.73 3.06 C 29.7 3 29.74 2.96 29.8 2.93 L 30.86 2.3 C 30.87 2.3 30.9 2.4 30.9 2.4 z " fill="#3daefd"/><path d="M 63.97 0 A 12.75 12.75 0 0 0 61.5 11.34 A 12.75 12.75 0 0 0 77.13 20.35 A 12.75 12.75 0 0 0 84 15.7 L 84 8 L 84 4 C 84 1.8 82.2 0 80 0 L 63.97 0 z " fill="#fcfcfc" stop-color="#000000"/><path d="M 65.96 0 C 63.16 2.75 61.87 6.9 62.96 10.95 C 64.57 16.95 70.74 20.5 76.74 19 C 80.06 18 82.64 15.7 84 12.83 L 84 8 L 84 4 C 84 3.6 83.93 3.23 83.8 2.87 C 83.46 2.2 83.04 1.54 82.56 .95 C 81.87 .37 81 0 80 0 L 78.57 0 C 80.7 1.2 82.2 3.16 82.84 5.6 C 83.05 6.4 83.14 7.15 83.15 7.9 L 77.6 4.3 L 73.8 12 L 75 6 L 73.05 4 L 67.66 15.04 C 66.3 13.86 65.3 12.3 64.8 10.45 C 63.7 6.3 65.56 2.1 69.1 0 L 65.96 0 z " fill="#dc682e" id="XMLID_9_"/><path color="#000000" d="M 80.56 7.9 C 80.1 8 79.73 8.24 79.5 8.63 L 76.53 13.6 C 76.2 13.6 75.84 13.74 75.57 13.97 L 74.75 14.95 C 74.5 15.24 74.4 15.6 74.4 16 C 72.57 15.64 70.73 15.74 68.87 16.3 C 68.8 16 68.7 15.76 68.5 15.56 L 67.1 14.07 C 66.15 13.03 64.4 13.8 64.53 15.2 L 64.8 18.43 C 61.97 21.1 60.35 25.13 61.63 29.06 C 61.66 29.15 61.7 29.23 61.74 29.3 C 62.83 31.3 64.8 32.6 66.95 33.1 C 66.9 33.33 66.77 33.57 66.8 33.73 C 66.83 34.06 66.9 34.3 67 34.5 C 67.23 34.93 67.77 36.3 68.76 36.6 C 67.9 37.63 67.03 38.75 66.5 40.27 C 66.4 40.54 65.94 42.77 65.96 43.1 C 66 43.45 66.2 43.95 66.5 44.36 C 66.9 44.76 67.4 44.9 67.8 44.93 C 68.2 44.94 68.54 44.87 68.9 44.8 C 69.87 44.54 70.7 44.2 71.4 44.06 C 72.1 43.9 72.7 43.9 73.16 44.1 C 73.3 44.14 73.43 44.17 73.6 44.2 C 74.95 44.3 76.4 44.3 77.9 44.1 C 79.23 45.3 80.66 46 81.23 46.75 C 81.34 46.9 82.3 47.5 82.8 47.5 C 83.2 47.5 83.66 47.33 84 47.07 L 84 32.57 C 82.84 33 81.75 33.43 80.7 33.7 C 80.64 33.73 80.6 33.75 80.54 33.77 C 80 34 80.14 33.9 80.1 33.8 C 80 33.7 80.37 32.05 80.4 31.8 C 81.3 32 82.3 32 83.4 31.6 L 83.4 31.6 C 83.6 31.5 83.8 31.45 84 31.4 L 84 26 L 84 8.7 C 82.44 8.26 80.6 7.9 80.56 7.9 z " fill="#fcfcfc" fill-rule="evenodd"/><path d="m 75.9,15.9 .8,-1 4.06,-5.54 -.15,3.14 -1.24,3.66 -.93,1 -1.13,1.44 c 0,0 -.4,-.05 -.87,-.15 -.46,-.1 -.57,-2.54 -.57,-2.54 z" fill="#ffa92d" fill-rule="evenodd"/><path d="m 67.05,18 .36,-1.44 -1.4,-1.5 .3,3.7 z" fill="#ffa92d" fill-rule="evenodd"/><path d="M 84 20.55 C 81.64 22.6 78.5 25.85 78.23 29 L 78.25 29 C 78.25 29 80.2 31.2 82.9 30.2 C 83.24 30.05 83.6 29.9 84 29.8 L 84 26 L 84 20.55 z " fill="#f58273" fill-rule="evenodd"/><path d="M 84 10.4 C 83.9 10.45 83.77 10.5 83.64 10.55 C 82.14 11.4 82.6 14.07 81.65 14.75 C 80.6 13.46 78.9 14.66 80 16.03 C 80.85 17.16 79.57 20.1 78.14 18.6 C 74.65 16.97 70.1 16.1 66.8 18.6 C 63.73 20.76 61.85 24.9 63.06 28.6 C 64.47 31.17 67.76 32.5 70.6 31.7 C 70.13 32.57 70.4 33.5 69.4 32.5 C 69 32.94 69.8 34.1 68.73 33.26 C 67.3 33.7 69.87 34.7 69.37 35.4 C 69.84 36.23 72.6 34.54 71.1 36.06 C 69.87 37.8 68 39.4 67.8 41.65 C 67.2 42.6 67.4 44.05 68.8 43.25 C 70.77 42.4 72.83 42.34 74.87 42.77 C 76.73 42.94 78.6 42.15 79.9 43.86 C 81.13 44.2 81.94 46 83.1 45.9 C 83.7 44.33 82.13 42.45 83.15 41.1 C 83.45 41.1 83.74 41 84 40.9 L 84 34.17 C 82.7 34.66 81.4 35.2 80.03 35.33 C 77.45 34.8 79 31.87 79.2 30.2 C 79.37 28.1 79.7 26.1 81.4 24.73 C 82.26 23.7 83.15 22.64 84 21.57 L 84 10.4 z " fill="#3cb566" fill-rule="evenodd"/><path d="m 70.2,29 c 0,0 .36,1.44 1.4,2.26 1.03,.8 2.8,1.13 2.8,1.13 0,0 .6,-3.14 1.4,-4.9 .77,-1.75 1.75,-4.27 1.75,-4.27 0,0 -3.5,1.54 -4.9,2.83 -1.4,1.3 -2.4,2.93 -2.4,2.93 z" fill="#f58273" fill-rule="evenodd"/><path color="#000000" d="m 47.3,32.74 c -.07,0 -.3,.1 -.3,.1 -.15,.07 -.3,.16 -.4,.3 -.2,.2 -.4,.5 -.45,.9 -.05,.37 .04,.7 .14,.9 .2,.4 .4,.5 .5,.6 .23,.17 .35,.2 .5,.27 .3,.1 .6,.2 1,.3 .8,.2 1.93,.43 3.36,.6 1.2,.15 2.84,.63 4.2,1.1 .5,.2 .9,.4 1.2,.55 -.25,1.26 -.2,2.7 .4,4.4 -.04,.1 -.07,.1 -.14,.25 -.1,.2 -.27,.47 -.4,.84 -.1,.37 -.25,.94 .03,1.6 0,0 0,0 0,0 .2,.4 .76,.9 1.25,.96 .1,0 .1,-.03 .2,-.03 0,.14 .03,.27 .13,.5 .14,.3 .63,.9 1.34,1 .03,0 .06,0 .1,0 .66,0 .85,-.2 1,-.3 .14,-.1 .2,-.2 .3,-.26 .14,-.15 .24,-.3 .35,-.43 .2,-.3 .45,-.64 .67,-.97 .2,-.3 .4,-.57 .53,-.8 1.8,-.1 3.64,-.4 5.04,-.83 .8,-.26 1.5,-.5 2.03,-.73 .17,-.07 1.36,-0 1.85,.04 .5,.07 1,.13 1.44,.16 .2,0 .43,0 .66,0 .1,-0 .24,-0 .4,-.06 .2,-.04 .46,-.06 .86,-.5 .1,-.1 .15,-.2 .2,-.3 .2,-.4 -0,-.84 -.1,-1.3 .07,-0 .1,-0 .2,-0 .14,-.04 .3,-.1 .57,-.25 .25,-.17 .6,-.6 .7,-1.1 0,-.03 0,-.06 0,-.1 .05,-.85 -.37,-1.3 -.64,-1.57 -.27,-.3 -.54,-.47 -.8,-.64 -.06,-.04 .8,-.9 1.3,-1.4 .5,-.5 1.03,-1.03 1.43,-1.64 .4,-.6 .9,-1.47 .44,-2.6 -.45,-1.06 -1.4,-1.7 -2.3,-1.96 -.9,-.3 -1.75,-.34 -2.57,-.33 -.7,0 -1.27,.06 -1.8,.1 -.1,-.2 -.1,-.4 -.24,-.66 -.2,-.5 -.47,-1 -1.13,-1.46 -.65,-.45 -1.9,-.4 -2.6,.1 -.37,.27 -.4,.7 -.5,1.07 -.14,-.03 -.23,-.1 -.4,-.1 -.4,0 -.9,.2 -1.24,.5 -0,0 -.03,.03 -.04,.04 -.54,.5 -.8,1.3 -.76,1.9 0,.6 .2,1.04 .36,1.4 .1,.23 .2,.34 .26,.5 -0,.1 -.15,.3 -.16,.36 -0,0 -0,0 -0,0 -.3,.1 -.8,.16 -1.4,.2 -1.2,.13 -2.5,.14 -3.46,.34 l -0,7.76e-4 c -.8,.16 -1.24,.55 -1.63,.87 -1.7,-.9 -4.14,-1.96 -6.94,-1.94 -0,1.05e-4 -0,-0 -0,-0 -.6,-0 -1.56,-.13 -2.34,-.26 -.4,-.07 -.75,-.13 -1.03,-.2 -.14,-0 -.25,-.05 -.36,-.06 -.05,-0 -.1,-0 -.2,-0 -.04,-0 -.1,-0 -.17,-0 -.04,2.04e-4 -.1,0 -.2,0 -.04,0 -.1,0 -.17,.03 z" fill="#fcfcfc"/><path d="m 47.63,34.2 c -.13,.1 1.43,.63 4.2,1 2.75,.36 6.9,2.03 6.7,2.5 -.5,1.35 -.6,2.84 .34,5.07 .17,.4 -.9,1.44 -.65,2.03 .2,.45 1.3,-.85 1.5,-.7 .2,.3 -.2,2.2 .2,2.24 .26,0 1.8,-2.6 1.94,-2.6 3.75,.1 8.05,-1.9 8.13,-1.94 -0,-0 3.66,.66 3.9,.4 .5,-.96 -1.85,-1.5 -1.6,-2.03 0.09,-.27 2.74,.2 2.8,-.14 .03,-.56 -1.5,-1.3 -1.8,-1.56 -.24,-.25 -.4,-.7 -.06,-1.1 .35,-.4 4.25,-3.24 3.7,-4.5 -.94,-2.26 -6.2,-1 -6.3,-1.2 -.06,-.1 -.67,-3.4 -2.03,-2.4 -.84,.6 .5,2.47 .6,2.7 .1,.23 -.36,.33 -.47,.25 -.26,-.2 -1.5,-2.17 -2.17,-1.6 -.9,.9 .6,2.5 .4,2.6 -.34,.33 -.17,.87 -.4,1.4 -.33,.9 -4.6,.85 -5.9,1.1 -.95,.2 -1.65,1.2 -1.76,1.13 -1.45,-.84 -4.35,-2.2 -7.1,-2.17 -1.56,-0 -4.03,-.57 -4.1,-.53 z" fill="#020202" stroke="#000002" stroke-width="0.166874pt"/><path d="m 55.44,40.23 c -.73,0 -1.46,.2 -2.13,.6 l -2.6,1.5 c -2.16,1.25 -2.9,4 -1.65,6.15 l .75,1.3 -1.3,.75 c -2.16,1.25 -2.9,4 -1.65,6.15 l 1.5,2.6 c .15,.26 .33,.5 .5,.7 h 18.05 c .8,-1.35 .86,-3.07 0,-4.53 l -.75,-1.3 1.3,-.75 c 2.16,-1.25 2.9,-4 1.65,-6.15 l -1.5,-2.6 c -1.25,-2.16 -4,-2.9 -6.15,-1.65 l -1.3,.75 -.75,-1.3 c -.86,-1.5 -2.4,-2.4 -4,-2.25 z" fill="#fcfcfc" id="rect3048" stop-color="#000000" stroke-opacity=".2"/><path d="m 64.43,45.23 c -.5,0 -.97,.14 -1.4,.4 l -1.3,.75 .75,1.3 c .83,1.44 .34,3.27 -1.1,4.2 l -5.2,3 c -.7,.4 -.96,1.33 -.55,2.05 L 57.45,60 h 7.56 c 1.1,-.9 1.4,-2.5 .65,-3.8 l -.75,-1.3 -3.25,1.9 c -.36,.2 -.8,.1 -1.03,-.27 -.2,-.36 -.14,-.97 .3,-1.03 l 5.84,-3.4 c 1.44,-.83 1.93,-2.66 1.1,-4.2 l -.75,-1.3 c -.57,-1 -1.6,-1.53 -2.7,-1.5 z m -.3,12 c .24,0 .47,.15 .6,.4 .2,.35 .1,.8 -.24,1 -0,0 -0,0 -.04,0 -.36,.2 -.8,.1 -1,-.27 -.2,-.35 -.1,-.8 .24,-1 0,-0 0,-0 .03,-0 .13,-.1 .3,-.1 .43,-.1 z" fill="#ffe32b" stop-color="#000000"/><path d="m 55.5,41.73 c -.5,0 -.97,.14 -1.4,.4 l -2.6,1.5 c -1.44,.83 -1.93,2.66 -1.1,4.2 l .75,1.3 3.25,-1.9 c .36,-.2 .8,-.1 1,.3 .2,.36 .1,.8 -.27,1.03 l -3.25,1.9 -2.6,1.5 c -1.44,.83 -1.93,2.66 -1.1,4.2 l 1.5,2.6 c .5,.84 1.3,1.35 2.2,1.47 h .8 c .37,-.05 .75,-.17 1.1,-.4 L 55.07,58.87 54.3,57.6 c -.83,-1.44 -.34,-3.27 1.1,-4.2 l 2.6,-1.5 2.6,-1.5 c .7,-.4 .97,-1.33 .55,-2.05 L 60.4,47.13 58.16,43.23 c -.57,-1 -1.6,-1.53 -2.7,-1.5 z m -3.5,3.5 c .24,0 .47,.15 .6,.4 .2,.36 .1,.8 -.3,1.03 -.36,.2 -.8,.1 -1.03,-.3 -.2,-.35 -.1,-.8 .24,-1 0,-0 0,-0 .03,-0 .13,-.1 .3,-.1 .43,-.1 z" fill="#3daefd" id="rect940" stop-color="#000000"/><path d="M 75.67 38.3 C 74.2 38.27 72.7 38.55 71.3 39.14 C 65.53 41.5 62.8 48.1 65.2 53.86 C 66.4 56.77 68.7 58.9 71.4 60 L 79.8 60 C 79.84 60 79.87 59.97 79.9 59.96 C 81.4 59.33 82.7 58.4 83.77 57.3 C 83.9 56.9 84 56.46 84 56 L 84 42.04 C 81.9 39.67 78.84 38.4 75.67 38.3 z " fill="#fcfcfc"/><path d="M 75.66 39.8 C 74.4 39.8 73.1 40.04 71.87 40.56 C 66.9 42.6 64.55 48.3 66.7 53.27 C 68.66 58.24 74.35 60.6 79.3 58.54 C 81.37 57.7 82.97 56.23 84 54.46 L 84 44.64 C 82.25 41.63 79.04 39.84 75.66 39.8 z M 77.56 41.86 C 79.2 41.8 78.13 45.66 76.87 46.2 C 75.47 46.76 74.5 43.04 76.95 42 C 77.2 41.9 77.4 41.87 77.56 41.86 z M 73.5 44 C 74.56 43.9 74.8 46.57 74.1 46.8 C 73.36 47.07 71.86 44.85 73.2 44.1 C 73.2 44.07 73.26 44.05 73.3 44.03 C 73.4 44 73.45 44 73.5 44 z M 71.5 45.95 C 72.27 45.95 72.94 47.87 72.45 48.2 C 71.9 48.6 70.14 47.07 71.06 46.14 C 71.13 46.1 71.2 46.03 71.26 46 C 71.3 46 71.3 46 71.33 45.97 C 71.4 45.95 71.43 45.95 71.5 45.95 z M 77.33 46.93 C 77.8 46.96 78.2 47.13 78.4 47.47 C 79.8 49.7 74.06 53.1 77.1 53.9 C 78 54.14 78.6 53.4 78.1 52.6 C 77.74 51.93 80.14 50.43 80.4 51.6 C 80.7 53.1 79.75 54.8 78.5 55.3 C 76 56.35 72.4 54.44 72 52.14 C 71.64 50.03 73.8 48 75.7 47.25 C 76.3 47 76.86 46.9 77.33 46.93 z M 70.25 48.2 C 70.93 48.17 71.8 49.63 71.46 50 C 71.03 50.45 69.2 49.45 69.85 48.46 C 69.93 48.34 70 48.26 70.1 48.2 C 70.16 48.2 70.2 48.2 70.25 48.2 z " fill="#0087ed"/></g><use href="#uNT" opacity=".4"></use><use fill="url(#uNR)" href="#uNT" opacity=".2"></use><path d="m 42,24 c -6,0 -6,4 -12,4 H 10 c -2.2,0 -4,1.8 -4,4 v 48 c 0,2.2 1.8,4 4,4 h 76 c 2.2,0 4,-1.8 4,-4 V 50 32 28 c 0,-2.2 -1.8,-4 -4,-4 z" fill="url(#uNQ)" opacity=".2"/><path class="ColorScheme-Contrast" d="m 6,79 v 1 c 0,2.2 1.8,4 4,4 h 76 c 2.2,0 4,-1.8 4,-4 v -1 c 0,2.2 -1.8,4 -4,4 H 10 C 7.8,83 6,81.2 6,79 Z" fill="currentColor" opacity=".1"/><path class="ColorScheme-Contrast" d="M 6,79.5 V 80 c 0,2.2 1.8,4 4,4 h 76 c 2.2,0 4,-1.8 4,-4 v -0.5 c 0,2.2 -1.8,4 -4,4 H 10 c -2.2,0 -4,-1.8 -4,-4 z" fill="currentColor" opacity=".2"/><path d="m 42,24 c -6,0 -6,4 -12,4 H 10 c -2.2,0 -4,1.8 -4,4 v 1 c 0,-2.2 1.8,-4 4,-4 h 20 c 6,0 6,-4 12,-4 h 44 c 2.2,0 4,1.8 4,4 v -1 c 0,-2.2 -1.8,-4 -4,-4 z" fill="#fff" opacity=".1"/><path d="m 42,24 c -6,0 -6,4 -12,4 H 10 c -2.2,0 -4,1.8 -4,4 v 0.5 c 0,-2.2 1.8,-4 4,-4 h 20 c 6,0 6,-4 12,-4 h 44 c 2.2,0 4,1.8 4,4 V 28 c 0,-2.2 -1.8,-4 -4,-4 z" fill="#fff" opacity=".2"/><path d="m 42,23 c -6,0 -6,4 -12,4 H 10 v 1 h 20 c 6,0 6,-4 12,-4 h 44 v -1 z" opacity=".1"/><path d="m 42,23.5 c -6,0 -6,4 -12,4 H 10 V 28 h 20 c 6,0 6,-4 12,-4 h 44 v -0.5 z" opacity=".2"/></g>
</svg>