<svg height="96" version="1.1" width="96" xmlns="http://www.w3.org/2000/svg" xmlns:svg="http://www.w3.org/2000/svg" xmlns:xlink="http://www.w3.org/1999/xlink">
<defs id="primary-definitions">
<style id="current-color-scheme" type="text/css">
      .ColorScheme-Text         { color: #232629; }
      .ColorScheme-Background   { color: #eff0f1; }
      .ColorScheme-Highlight    { color: #7ec9f0; }
      .ColorScheme-PositiveText { color: #27ae60; }
      .ColorScheme-NeutralText  { color: #f67400; }
      .ColorScheme-NegativeText { color: #da4453; }
      .ColorScheme-ActiveText   { color: #3daee9; }
      .ColorScheme-Complement   { color: #ffffff; }
      .ColorScheme-Contrast     { color: #000000; }
    </style>
<style id="extended-color-scheme" type="text/css">
      .ExScheme-Black     { color:#3e3e3e; }
      .ExScheme-White     { color:#fcfcfc; }
      .ExScheme-Grey-1    { color:#cfd5d5; }
      .ExScheme-Grey-2    { color:#909c9c; }
      .ExScheme-Grey-3    { color:#536161; }
      .ExScheme-Red-1     { color:#ffafa5; }
      .ExScheme-Red-2     { color:#bf4231; }
      .ExScheme-Red-3     { color:#4d2f2b; }
      .ExScheme-Green-1   { color:#abf9c7; }
      .ExScheme-Green-2   { color:#3bb566; }
      .ExScheme-Green-3   { color:#377d50; }
      .ExScheme-Blue-1    { color:#abdaf9; }
      .ExScheme-Blue-2    { color:#3daefd; }
      .ExScheme-Blue-3    { color:#2b3c4d; }
      .ExScheme-Yellow-1  { color:#faffa5; }
      .ExScheme-Yellow-2  { color:#cac726; }
      .ExScheme-Yellow-3  { color:#4b4d2b; }
      .ExScheme-Orange-1  { color:#ffdaa5; }
      .ExScheme-Orange-2  { color:#ff9701; }
      .ExScheme-Orange-3  { color:#4d372b; }
      .ExScheme-Brown-1   { color:#e9d6bb; }
      .ExScheme-Brown-2   { color:#997657; }
      .ExScheme-Brown-3   { color:#433a35; }
      .ExScheme-Purple-1  { color:#e2abf9; }
      .ExScheme-Purple-2  { color:#b401ff; }
      .ExScheme-Purple-3  { color:#432b4d; }
      .ExScheme-Cyan-1    { color:#b2f2e6; }
      .ExScheme-Cyan-2    { color:#31bfa6; }
      .ExScheme-Cyan-3    { color:#2b4d47; }
      .ExScheme-Magenta-1 { color:#f8a6d8; }
      .ExScheme-Magenta-2 { color:#f00091; }
      .ExScheme-Magenta-3 { color:#770048; }
    </style>
<linearGradient id="upb">
<stop offset="0"/>
<stop offset="1" stop-opacity="0"/>
</linearGradient>
<linearGradient id="upc">
<stop offset="0" stop-color="#fff"/>
<stop offset="1" stop-color="#fff" stop-opacity="0"/>
</linearGradient>
<style id="upd" type="text/css">
        .force-display-for-editing { display: inline !important; }
    </style><style class="remove-if__show-crease" type="text/css">
        .enable-if__show-crease { display: none; }
    </style><style class="remove-if__color-sync-mimes-places" type="text/css">
        .enable-if__color-sync-mimes-places { display: none; }
    </style><radialGradient cx=".5" cy="0" id="upe" r="1" xlink:href="#upc"/><linearGradient id="upf" xlink:href="#upb" y1="1" y2=".5"/><style class="ColorScheme-Background" fill="currentColor" opacity=".6" type="text/css">
   .ColorScheme-Text           { color:#eff0f1; }
      .ColorScheme-Background     { color:#31363b; }
      .ColorScheme-Highlight      { color:#3daefd; }
      .ColorScheme-ViewBackground { color:#fcfcfc; }
      .ColorScheme-PositiveText   { color:#27ae60; }
      .ColorScheme-NeutralText    { color:#f67400; }
      .ColorScheme-NegativeText   { color:#da4453; }
  </style><path d="m 14,12 c -2.2,0 -4,1.8 -4,4 v 4 8 c -2.2,0 -4,1.8 -4,4 v 48 c 0,2.2 1.8,4 4,4 h 76 c 2.2,0 4,-1.8 4,-4 V 50 32 28 c 0,-2.2 -1.8,-4 -4,-4 v -4 c 0,-2.2 -1.8,-4 -4,-4 H 42 c -6,0 -6,-4 -12,-4 z" id="upg"></path><path d="m 14,12 c -2.2,0 -4,1.8 -4,4 v 4 8 h 20 c 6,0 6,-4 12,-4 h 44 v -4 c 0,-2.2 -1.8,-4 -4,-4 H 42 c -6,0 -6,-4 -12,-4 z" id="uph"></path></defs>
<g id="content" transform="translate(0,0)"><use class="sync-color enable-if__color-sync-mimes-places force-display-for-editing ColorScheme-ActiveText" fill="currentColor" href="#upg"></use><use class="primary-color remove-if__color-sync-mimes-places ColorScheme-ActiveText" fill="currentColor" href="#upg"></use><use class="ColorScheme-Contrast" fill="currentColor" href="#upg" opacity=".1"></use><g id="decal" transform="translate(24,32)"><path class="ColorScheme-Background" d="M 18 4.1 C 15.7 4.1 13.85 6 13.85 8.27 L 13.85 9.66 L 6.9 9.66 C 4.6 9.66 2.75 11.53 2.75 13.8 L 2.75 32.1 C 2.75 33.2 3.16 34.33 3.9 35.2 L 11.95 44.6 L 11.95 34.1 L 28.6 34.1 C 30.9 34.1 32.76 32.26 32.76 29.97 L 32.76 24.4 L 36.05 24.4 L 36.05 34.87 L 42.8 27 C 44.4 25.15 45.25 22.8 45.25 20.4 L 45.25 8.27 C 45.25 6 43.4 4.1 41.1 4.1 L 18 4.1 z M 20.23 7.86 L 38.87 7.86 C 40.33 7.86 41.5 9.03 41.5 10.5 L 41.5 18.03 C 41.5 19.5 40.33 20.67 38.87 20.67 L 20.23 20.67 C 18.77 20.67 17.6 19.5 17.6 18.03 L 17.6 10.5 C 17.6 9.03 18.77 7.86 20.23 7.86 z M 9.13 13.4 L 13.85 13.4 L 13.85 20.6 C 13.85 22.7 15.56 24.4 17.66 24.4 L 29 24.4 L 29 27.74 C 29 29.2 27.84 30.4 26.4 30.4 L 9.13 30.4 C 7.67 30.4 6.5 29.2 6.5 27.74 L 6.5 16.04 C 6.5 14.6 7.67 13.4 9.13 13.4 z " fill="currentColor" opacity=".6"/><path class="ColorScheme-Background" d="m 18,4.1 c -2.3,0 -4.16,1.87 -4.16,4.16 V 9.66 H 6.9 c -2.3,0 -4.16,1.87 -4.16,4.16 v 18.26 c 0,1.14 .4,2.25 1.15,3.1 l 8.04,9.4 V 34.1 h 16.66 c 2.3,0 4.16,-1.87 4.16,-4.16 v -5.55 h 3.3 v 10.46 l 6.75,-7.9 C 44.4,25.15 45.25,22.8 45.25,20.4 V 8.27 c 0,-2.3 -1.87,-4.16 -4.16,-4.16 z m 0,0.5 h 23.1 c 2,0 3.66,1.64 3.66,3.66 v 12.1 c 0,2.4 -.8,4.53 -2.3,6.3 l -5.9,6.85 v -9.6 h -4.3 v 6.05 c 0,2 -1.64,3.66 -3.66,3.66 h -17.16 v 9.6 L 4.3,34.87 C 3.6,34.1 3.25,33.1 3.25,32.1 V 13.8 c 0,-2 1.64,-3.66 3.66,-3.66 h 7.45 V 8.27 c 0,-2 1.64,-3.66 3.66,-3.66 z m 2.23,2.75 c -1.73,0 -3.14,1.4 -3.14,3.14 v 7.53 c 0,1.73 1.4,3.14 3.14,3.14 h 18.63 c 1.73,0 3.14,-1.4 3.14,-3.14 v -7.53 c 0,-1.73 -1.4,-3.14 -3.14,-3.14 z m 0,0.5 h 18.63 c 1.46,0 2.64,1.17 2.64,2.64 v 7.53 c 10e-7,1.46 -1.17,2.64 -2.64,2.64 H 20.23 c -1.46,0 -2.64,-1.17 -2.64,-2.64 v -7.53 c 0,-1.46 1.17,-2.64 2.64,-2.64 z M 9.13,12.9 c -1.73,0 -3.14,1.4 -3.14,3.13 v 11.7 c 0,1.73 1.4,3.14 3.14,3.14 H 26.4 c 1.73,0 3.14,-1.4 3.14,-3.14 V 23.9 H 17.66 c -1.83,0 -3.3,-1.5 -3.3,-3.3 v -7.7 z m 0,0.5 h 4.7 v 7.2 c 0,2.1 1.7,3.8 3.8,3.8 h 11.36 v 3.33 c 0,1.46 -1.17,2.64 -2.64,2.64 H 9.13 c -1.46,0 -2.64,-1.17 -2.64,-2.64 V 16.04 c 0,-1.46 1.17,-2.63 2.64,-2.63 z" fill="currentColor" opacity=".6"/></g><use href="#uph" opacity=".4"></use><use fill="url(#upf)" href="#uph" opacity=".2"></use><path d="m 42,24 c -6,0 -6,4 -12,4 H 10 c -2.2,0 -4,1.8 -4,4 v 48 c 0,2.2 1.8,4 4,4 h 76 c 2.2,0 4,-1.8 4,-4 V 50 32 28 c 0,-2.2 -1.8,-4 -4,-4 z" fill="url(#upe)" opacity=".2"/><path class="ColorScheme-Contrast" d="m 6,79 v 1 c 0,2.2 1.8,4 4,4 h 76 c 2.2,0 4,-1.8 4,-4 v -1 c 0,2.2 -1.8,4 -4,4 H 10 C 7.8,83 6,81.2 6,79 Z" fill="currentColor" opacity=".1"/><path class="ColorScheme-Contrast" d="M 6,79.5 V 80 c 0,2.2 1.8,4 4,4 h 76 c 2.2,0 4,-1.8 4,-4 v -0.5 c 0,2.2 -1.8,4 -4,4 H 10 c -2.2,0 -4,-1.8 -4,-4 z" fill="currentColor" opacity=".2"/><path d="m 42,24 c -6,0 -6,4 -12,4 H 10 c -2.2,0 -4,1.8 -4,4 v 1 c 0,-2.2 1.8,-4 4,-4 h 20 c 6,0 6,-4 12,-4 h 44 c 2.2,0 4,1.8 4,4 v -1 c 0,-2.2 -1.8,-4 -4,-4 z" fill="#fff" opacity=".1"/><path d="m 42,24 c -6,0 -6,4 -12,4 H 10 c -2.2,0 -4,1.8 -4,4 v 0.5 c 0,-2.2 1.8,-4 4,-4 h 20 c 6,0 6,-4 12,-4 h 44 c 2.2,0 4,1.8 4,4 V 28 c 0,-2.2 -1.8,-4 -4,-4 z" fill="#fff" opacity=".2"/><path d="m 42,23 c -6,0 -6,4 -12,4 H 10 v 1 h 20 c 6,0 6,-4 12,-4 h 44 v -1 z" opacity=".1"/><path d="m 42,23.5 c -6,0 -6,4 -12,4 H 10 V 28 h 20 c 6,0 6,-4 12,-4 h 44 v -0.5 z" opacity=".2"/></g>
</svg>