<svg height="96" version="1.1" width="96" xmlns="http://www.w3.org/2000/svg" xmlns:svg="http://www.w3.org/2000/svg" xmlns:xlink="http://www.w3.org/1999/xlink">
<defs id="primary-definitions">
<style id="current-color-scheme" type="text/css">
      .ColorScheme-Text           { color:#fff; }
      .ColorScheme-Background     { color:#111; }
      .ColorScheme-Highlight      { color:#3daefd; }
      .ColorScheme-ViewBackground { color:#000; }
      .ColorScheme-PositiveText   { color:#27ae60; }
      .ColorScheme-NeutralText    { color:#f67400; }
      .ColorScheme-NegativeText   { color:#da4453; }
    </style>
<style id="extended-color-scheme" type="text/css">
      .ExScheme-Black     { color:#3e3e3e; }
      .ExScheme-White     { color:#fcfcfc; }
      .ExScheme-Grey-1    { color:#cfd5d5; }
      .ExScheme-Grey-2    { color:#909c9c; }
      .ExScheme-Grey-3    { color:#536161; }
      .ExScheme-Red-1     { color:#ffafa5; }
      .ExScheme-Red-2     { color:#bf4231; }
      .ExScheme-Red-3     { color:#4d2f2b; }
      .ExScheme-Green-1   { color:#abf9c7; }
      .ExScheme-Green-2   { color:#3bb566; }
      .ExScheme-Green-3   { color:#377d50; }
      .ExScheme-Blue-1    { color:#abdaf9; }
      .ExScheme-Blue-2    { color:#3daefd; }
      .ExScheme-Blue-3    { color:#2b3c4d; }
      .ExScheme-Yellow-1  { color:#faffa5; }
      .ExScheme-Yellow-2  { color:#cac726; }
      .ExScheme-Yellow-3  { color:#4b4d2b; }
      .ExScheme-Orange-1  { color:#ffdaa5; }
      .ExScheme-Orange-2  { color:#ff9701; }
      .ExScheme-Orange-3  { color:#4d372b; }
      .ExScheme-Brown-1   { color:#e9d6bb; }
      .ExScheme-Brown-2   { color:#997657; }
      .ExScheme-Brown-3   { color:#433a35; }
      .ExScheme-Purple-1  { color:#e2abf9; }
      .ExScheme-Purple-2  { color:#b401ff; }
      .ExScheme-Purple-3  { color:#432b4d; }
      .ExScheme-Cyan-1    { color:#b2f2e6; }
      .ExScheme-Cyan-2    { color:#31bfa6; }
      .ExScheme-Cyan-3    { color:#2b4d47; }
      .ExScheme-Magenta-1 { color:#f8a6d8; }
      .ExScheme-Magenta-2 { color:#f00091; }
      .ExScheme-Magenta-3 { color:#770048; }
    </style>
<linearGradient id="u8C">
<stop offset="0"/>
<stop offset="1" stop-opacity="0"/>
</linearGradient>
<linearGradient id="u8D">
<stop offset="0" stop-color="#fff"/>
<stop offset="1" stop-color="#fff" stop-opacity="0"/>
</linearGradient>
<style class="toggle-enable-crease" type="text/css">
        .folder-crease { display: none; }
    </style><style class="toggle-manilla-folders" type="text/css">
        .folder-manilla { display: none; }
    </style><radialGradient cx=".5" cy="0" id="u8E" r="1" xlink:href="#u8D"/><linearGradient id="u8F" xlink:href="#u8C" y1="1" y2=".5"/><path d="m 14,12 c -2.2,0 -4,1.8 -4,4 v 4 8 c -2.2,0 -4,1.8 -4,4 v 48 c 0,2.2 1.8,4 4,4 h 76 c 2.2,0 4,-1.8 4,-4 V 50 32 28 c 0,-2.2 -1.8,-4 -4,-4 v -4 c 0,-2.2 -1.8,-4 -4,-4 H 42 c -6,0 -6,-4 -12,-4 z" id="u8G"></path><path d="m 14,12 c -2.2,0 -4,1.8 -4,4 v 4 8 h 20 c 6,0 6,-4 12,-4 h 44 v -4 c 0,-2.2 -1.8,-4 -4,-4 H 42 c -6,0 -6,-4 -12,-4 z" id="u8H"></path></defs>
<g id="content" transform="translate(0,0)"><use class="folder-manilla ExScheme-Brown-1" fill="currentColor" href="#u8G"></use><use class="toggle-manilla-folders ColorScheme-Highlight" fill="currentColor" href="#u8G" id="primary-color"></use><use class="ColorScheme-Text" fill="currentColor" href="#u8G" opacity=".1"></use><g id="emblem" transform="translate(24,32)"><path class="ColorScheme-Background" d="M 6 4 C 4.9 4 4 4.9 4 6 L 4 42 C 4 43.1 4.9 44 6 44 L 42 44 C 43.1 44 44 43.1 44 42 L 44 6 C 44 4.9 43.1 4 42 4 L 6 4 z M 6 5 L 29 5 L 29 7 L 29 10 L 29 14 C 29 15.1 29.9 16 31 16 L 33 16 C 34.1 16 35 15.1 35 14 L 35 10 L 35 7 L 35 5 L 42 5 C 42.55 5 43 5.45 43 6 L 43 42 C 43 42.55 42.55 43 42 43 L 6 43 C 5.45 43 5 42.55 5 42 L 5 6 C 5 5.45 5.45 5 6 5 z M 31 11 L 33 11 C 33.55 11 34 11.45 34 12 L 34 14 C 34 14.55 33.55 15 33 15 L 31 15 C 30.45 15 30 14.55 30 14 L 30 12 C 30 11.45 30.45 11 31 11 z M 32 17 L 32 20 L 35 20 L 35 17 L 32 17 z M 32 20 L 29 20 L 29 23 L 32 23 L 32 20 z M 32 23 L 32 26 L 35 26 L 35 23 L 32 23 z M 32 26 L 29 26 L 29 29 L 32 29 L 32 26 z M 32 29 L 32 32 L 29 32 L 29 35 L 35 35 L 35 32 L 35 29 L 32 29 z " fill="currentColor" opacity=".6"/><path class="ColorScheme-Background" d="M 6 4 C 4.9 4 4 4.9 4 6 L 4 42 C 4 43.1 4.9 44 6 44 L 42 44 C 43.1 44 44 43.1 44 42 L 44 6 C 44 4.9 43.1 4 42 4 L 6 4 z M 6 4.5 C 5.2 4.5 4.5 5.2 4.5 6 C 4.5 5.16 5.16 4.5 6 4.5 z M 29.5 4.5 L 34.5 4.5 L 34.5 7 L 34.5 10 L 34.5 12 C 34.5 11.2 33.8 10.5 33 10.5 L 31 10.5 C 30.2 10.5 29.5 11.2 29.5 12 L 29.5 10 L 29.5 7 L 29.5 4.5 z M 42 4.5 C 42.84 4.5 43.5 5.16 43.5 6 C 43.5 5.2 42.8 4.5 42 4.5 z M 6 5 L 29 5 L 29 7 L 29 10 L 29 14 C 29 15.1 29.9 16 31 16 L 33 16 C 34.1 16 35 15.1 35 14 L 35 10 L 35 7 L 35 5 L 42 5 C 42.55 5 43 5.45 43 6 L 43 42 C 43 42.55 42.55 43 42 43 L 6 43 C 5.45 43 5 42.55 5 42 L 5 6 C 5 5.45 5.45 5 6 5 z M 31 11 L 33 11 C 33.55 11 34 11.45 34 12 L 34 14 C 34 14.55 33.55 15 33 15 L 31 15 C 30.45 15 30 14.55 30 14 L 30 12 C 30 11.45 30.45 11 31 11 z M 29.5 14 C 29.5 14.8 30.2 15.5 31 15.5 C 30.16 15.5 29.5 14.84 29.5 14 z M 34.5 14 C 34.5 14.84 33.84 15.5 33 15.5 C 33.8 15.5 34.5 14.8 34.5 14 z M 32 17 L 32 20 L 35 20 L 35 17 L 32 17 z M 32 20 L 29 20 L 29 23 L 32 23 L 32 20 z M 32 23 L 32 26 L 35 26 L 35 23 L 32 23 z M 32 26 L 29 26 L 29 29 L 32 29 L 32 26 z M 32 29 L 32 32 L 29 32 L 29 35 L 35 35 L 35 32 L 35 29 L 32 29 z M 32.5 17.5 L 34.5 17.5 L 34.5 19.5 L 32.5 19.5 L 32.5 17.5 z M 29.5 20.5 L 31.5 20.5 L 31.5 22.5 L 29.5 22.5 L 29.5 20.5 z M 32.5 23.5 L 34.5 23.5 L 34.5 25.5 L 32.5 25.5 L 32.5 23.5 z M 29.5 26.5 L 31.5 26.5 L 31.5 28.5 L 29.5 28.5 L 29.5 26.5 z M 32.5 29.5 L 34.5 29.5 L 34.5 32 L 34.5 34.5 L 29.5 34.5 L 29.5 32.5 L 32.5 32.5 L 32.5 29.5 z M 4.5 42 C 4.5 42.8 5.2 43.5 6 43.5 C 5.16 43.5 4.5 42.84 4.5 42 z M 43.5 42 C 43.5 42.84 42.84 43.5 42 43.5 C 42.8 43.5 43.5 42.8 43.5 42 z " fill="currentColor" opacity=".6"/></g><use href="#u8H" opacity=".4"></use><use class="toggle-flat-design" fill="url(#u8F)" href="#u8H" opacity=".2"></use><path class="toggle-flat-design" d="m 42,24 c -6,0 -6,4 -12,4 H 10 c -2.2,0 -4,1.8 -4,4 v 48 c 0,2.2 1.8,4 4,4 h 76 c 2.2,0 4,-1.8 4,-4 V 50 32 28 c 0,-2.2 -1.8,-4 -4,-4 z" fill="url(#u8E)" opacity=".2"/><path class="folder-crease " d="m 6,66 v 3 h 13.5 c .83,0 1.5,-.67 1.5,-1.5 0,-.83 -.67,-1.5 -1.5,-1.5 z m 70.5,0 c -.83,0 -1.5,.67 -1.5,1.5 0,.83 .67,1.5 1.5,1.5 H 90 v -3 z" opacity=".4"/><path class="ColorScheme-Text" d="m 6,79 v 1 c 0,2.2 1.8,4 4,4 h 76 c 2.2,0 4,-1.8 4,-4 v -1 c 0,2.2 -1.8,4 -4,4 H 10 C 7.8,83 6,81.2 6,79 Z" fill="currentColor" opacity=".1"/><path class="ColorScheme-Text" d="M 6,79.5 V 80 c 0,2.2 1.8,4 4,4 h 76 c 2.2,0 4,-1.8 4,-4 v -0.5 c 0,2.2 -1.8,4 -4,4 H 10 c -2.2,0 -4,-1.8 -4,-4 z" fill="currentColor" opacity=".2"/><path d="m 42,24 c -6,0 -6,4 -12,4 H 10 c -2.2,0 -4,1.8 -4,4 v 1 c 0,-2.2 1.8,-4 4,-4 h 20 c 6,0 6,-4 12,-4 h 44 c 2.2,0 4,1.8 4,4 v -1 c 0,-2.2 -1.8,-4 -4,-4 z" fill="#fff" opacity=".1"/><path d="m 42,24 c -6,0 -6,4 -12,4 H 10 c -2.2,0 -4,1.8 -4,4 v 0.5 c 0,-2.2 1.8,-4 4,-4 h 20 c 6,0 6,-4 12,-4 h 44 c 2.2,0 4,1.8 4,4 V 28 c 0,-2.2 -1.8,-4 -4,-4 z" fill="#fff" opacity=".2"/><path d="m 42,23 c -6,0 -6,4 -12,4 H 10 v 1 h 20 c 6,0 6,-4 12,-4 h 44 v -1 z" opacity=".1"/><path d="m 42,23.5 c -6,0 -6,4 -12,4 H 10 V 28 h 20 c 6,0 6,-4 12,-4 h 44 v -0.5 z" opacity=".2"/></g>
</svg>