<?xml version="1.0" encoding="utf-8"?><svg height="96" width="96" xmlns="http://www.w3.org/2000/svg" xmlns:svg="http://www.w3.org/2000/svg" xmlns:xlink="http://www.w3.org/1999/xlink"><defs id="primary-definitions"><style id="current-color-scheme" type="text/css">.ColorScheme-Text           { color:#fff; }
      .ColorScheme-Background     { color:#111; }
      .ColorScheme-Highlight      { color:#3daefd; }
      .ColorScheme-ViewBackground { color:#000; }
      .ColorScheme-PositiveText   { color:#27ae60; }
      .ColorScheme-NeutralText    { color:#f67400; }
      .ColorScheme-NegativeText   { color:#da4453; }
  </style><style id="extended-color-scheme" type="text/css">.ExScheme-Black     { color:#3e3e3e; }
      .ExScheme-White     { color:#fcfcfc; }
      .ExScheme-Grey-1    { color:#cfd5d5; }
      .ExScheme-Grey-2    { color:#909c9c; }
      .ExScheme-Grey-3    { color:#536161; }
      .ExScheme-Red-1     { color:#ffafa5; }
      .ExScheme-Red-2     { color:#bf4231; }
      .ExScheme-Red-3     { color:#4d2f2b; }
      .ExScheme-Green-1   { color:#abf9c7; }
      .ExScheme-Green-2   { color:#3bb566; }
      .ExScheme-Green-3   { color:#377d50; }
      .ExScheme-Blue-1    { color:#abdaf9; }
      .ExScheme-Blue-2    { color:#3daefd; }
      .ExScheme-Blue-3    { color:#2b3c4d; }
      .ExScheme-Yellow-1  { color:#faffa5; }
      .ExScheme-Yellow-2  { color:#cac726; }
      .ExScheme-Yellow-3  { color:#4b4d2b; }
      .ExScheme-Orange-1  { color:#ffdaa5; }
      .ExScheme-Orange-2  { color:#ff9701; }
      .ExScheme-Orange-3  { color:#4d372b; }
      .ExScheme-Brown-1   { color:#e9d6bb; }
      .ExScheme-Brown-2   { color:#997657; }
      .ExScheme-Brown-3   { color:#433a35; }
      .ExScheme-Purple-1  { color:#e2abf9; }
      .ExScheme-Purple-2  { color:#b401ff; }
      .ExScheme-Purple-3  { color:#432b4d; }
      .ExScheme-Cyan-1    { color:#b2f2e6; }
      .ExScheme-Cyan-2    { color:#31bfa6; }
      .ExScheme-Cyan-3    { color:#2b4d47; }
      .ExScheme-Magenta-1 { color:#f8a6d8; }
      .ExScheme-Magenta-2 { color:#f00091; }
      .ExScheme-Magenta-3 { color:#770048; }
  </style><linearGradient id="gradientDark"><stop offset="0"/><stop offset="1" stop-opacity="0"/></linearGradient><linearGradient id="gradientLight"><stop offset="0" stop-color="#fff"/><stop offset="1" stop-color="#fff" stop-opacity="0"/></linearGradient><style class="toggle-enable-crease" type="text/css">.folder-crease { display: none; }
  </style><style class="toggle-manilla-folders" type="text/css">.folder-manilla { display: none; }
  </style><radialGradient cx=".5" cy="0" id="gl1" r="1" xlink:href="#gradientLight"/><linearGradient id="gd1" xlink:href="#gradientDark" y1="1" y2=".5"/><path d="m 14,12 c -2.216,0 -4,1.784 -4,4 v 4 8 c -2.216,0 -4,1.784 -4,4 v 48 c 0,2.216 1.784,4 4,4 h 76 c 2.216,0 4,-1.784 4,-4 V 50 32 28 c 0,-2.216 -1.784,-4 -4,-4 v -4 c 0,-2.216 -1.784,-4 -4,-4 H 42 c -6,0 -6,-4 -12,-4 z" id="use-path-6D"/><path d="m 14,12 c -2.216,0 -4,1.784 -4,4 v 4 8 h 20 c 6,0 6,-4 12,-4 h 44 v -4 c 0,-2.216 -1.784,-4 -4,-4 H 42 c -6,0 -6,-4 -12,-4 z" id="use-path-6E"/></defs><g id="content"><use class="folder-manilla ExScheme-Brown-1" fill="currentColor" href="#use-path-6D"/><use class="toggle-manilla-folders ColorScheme-Highlight" fill="currentColor" href="#use-path-6D" id="primary-color"/><use class="ColorScheme-Text" fill="currentColor" href="#use-path-6D" opacity=".1"/><g id="panorama" transform="translate(6,24)"><path class="ColorScheme-Background" d="M 14 14 C 12.892 14 12 14.892 12 16 L 12 60 L 13 60 L 13 16 C 13 15.446 13.446 15 14 15 L 54 15 L 54 28.428 C 54 28.428 54 32 57.572 32 L 71 32 L 71 60 L 72 60 L 72 32 L 54 14 L 14 14 z M 20 19 C 18.892 19 18 19.892 18 21 C 18 22.108 18.892 23 20 23 L 36 23 C 37.108 23 38 22.108 38 21 C 38 19.892 37.108 19 36 19 L 20 19 z M 20 27 C 18.892 27 18 27.892 18 29 L 18 42 C 18 43.108 18.892 44 20 44 L 44 44 C 45.108 44 46 43.108 46 42 L 46 29 C 46 27.892 45.108 27 44 27 L 20 27 z M 20 28 L 44 28 C 44.554 28 45 28.446 45 29 L 45 41.01 L 36.914 33 C 36.518 32.607 36.01 32.41 35.5 32.41 C 34.99 32.41 34.482 32.607 34.086 33 L 24.008 43 L 22.502 43 L 29.5 36 L 28.164 34.65 C 27.77 34.255 27.264 34.062 26.756 34.064 C 26.248 34.067 25.738 34.264 25.336 34.65 L 19 40.998 L 19 29 C 19 28.446 19.446 28 20 28 z M 22.5 29 C 21.672 29 21 29.672 21 30.5 C 21 31.328 21.672 32 22.5 32 C 23.328 32 24 31.328 24 30.5 C 24 29.672 23.328 29 22.5 29 z M 51 36 C 50.446 36 50 36.446 50 37 C 50 37.554 50.446 38 51 38 L 61 38 C 61.554 38 62 37.554 62 37 C 62 36.446 61.554 36 61 36 L 51 36 z M 51 42 C 50.446 42 50 42.446 50 43 C 50 43.554 50.446 44 51 44 L 65 44 C 65.554 44 66 43.554 66 43 C 66 42.446 65.554 42 65 42 L 51 42 z M 19 48 C 18.446 48 18 48.446 18 49 C 18 49.554 18.446 50 19 50 L 59 50 C 59.554 50 60 49.554 60 49 C 60 48.446 59.554 48 59 48 L 19 48 z M 19 54 C 18.446 54 18 54.446 18 55 C 18 55.554 18.446 56 19 56 L 47 56 C 47.554 56 48 55.554 48 55 C 48 54.446 47.554 54 47 54 L 19 54 z " fill="currentColor" opacity=".6"/><path class="ColorScheme-Background" d="M 14 14 C 12.892 14 12 14.892 12 16 L 12 60 L 13 60 L 13 16 C 13 15.446 13.446 15 14 15 L 54 15 L 54 28.428 C 54 28.428 54 32 57.572 32 L 71 32 L 71 60 L 72 60 L 72 32 L 54 14 L 14 14 z M 54.5 15.207 L 70.793 31.5 L 57.572 31.5 C 55.953 31.5 55.282 30.764 54.895 29.99 C 54.508 29.216 54.5 28.428 54.5 28.428 L 54.5 15.207 z M 20 19 C 18.892 19 18 19.892 18 21 C 18 22.108 18.892 23 20 23 L 36 23 C 37.108 23 38 22.108 38 21 C 38 19.892 37.108 19 36 19 L 20 19 z M 20 19.5 L 36 19.5 C 36.84 19.5 37.5 20.16 37.5 21 C 37.5 21.84 36.84 22.5 36 22.5 L 20 22.5 C 19.16 22.5 18.5 21.84 18.5 21 C 18.5 20.16 19.16 19.5 20 19.5 z M 20 27 C 18.892 27 18 27.892 18 29 L 18 42 C 18 43.108 18.892 44 20 44 L 44 44 C 45.108 44 46 43.108 46 42 L 46 29 C 46 27.892 45.108 27 44 27 L 20 27 z M 20 27.5 C 19.178 27.5 18.5 28.178 18.5 29 C 18.5 28.16 19.16 27.5 20 27.5 z M 44 27.5 C 44.84 27.5 45.5 28.16 45.5 29 C 45.5 28.178 44.822 27.5 44 27.5 z M 20 28 L 44 28 C 44.554 28 45 28.446 45 29 L 45 41.01 L 36.914 33 C 36.518 32.607 36.01 32.41 35.5 32.41 C 34.99 32.41 34.482 32.607 34.086 33 L 24.008 43 L 22.502 43 L 29.5 36 L 28.164 34.65 C 27.77 34.255 27.264 34.062 26.756 34.064 C 26.248 34.067 25.738 34.264 25.336 34.65 L 19 40.998 L 19 29 C 19 28.446 19.446 28 20 28 z M 22.5 29 C 21.672 29 21 29.672 21 30.5 C 21 31.328 21.672 32 22.5 32 C 23.328 32 24 31.328 24 30.5 C 24 29.672 23.328 29 22.5 29 z M 22.5 29.5 C 23.058 29.5 23.5 29.942 23.5 30.5 C 23.5 31.058 23.058 31.5 22.5 31.5 C 21.942 31.5 21.5 31.058 21.5 30.5 C 21.5 29.942 21.942 29.5 22.5 29.5 z M 35.5 32.9 C 35.88 32.9 36.26 33.055 36.562 33.355 L 45.44 42.148 C 45.356 42.904 44.78 43.5 44 43.5 L 24.213 43.5 L 34.438 33.355 C 34.74 33.054 35.11 32.9 35.5 32.9 z M 26.758 34.564 C 27.138 34.563 27.51 34.703 27.81 35.004 L 28.795 35.998 L 21.295 43.5 L 20 43.5 C 19.218 43.5 18.643 42.903 18.56 42.146 L 25.682 35.012 C 25.994 34.712 26.378 34.566 26.758 34.564 z M 51 36 C 50.446 36 50 36.446 50 37 C 50 37.554 50.446 38 51 38 L 61 38 C 61.554 38 62 37.554 62 37 C 62 36.446 61.554 36 61 36 L 51 36 z M 51 36.5 L 61 36.5 C 61.286 36.5 61.5 36.714 61.5 37 C 61.5 37.286 61.286 37.5 61 37.5 L 51 37.5 C 50.714 37.5 50.5 37.286 50.5 37 C 50.5 36.714 50.714 36.5 51 36.5 z M 51 42 C 50.446 42 50 42.446 50 43 C 50 43.554 50.446 44 51 44 L 65 44 C 65.554 44 66 43.554 66 43 C 66 42.446 65.554 42 65 42 L 51 42 z M 51 42.5 L 65 42.5 C 65.286 42.5 65.5 42.714 65.5 43 C 65.5 43.286 65.286 43.5 65 43.5 L 51 43.5 C 50.714 43.5 50.5 43.286 50.5 43 C 50.5 42.714 50.714 42.5 51 42.5 z M 19 48 C 18.446 48 18 48.446 18 49 C 18 49.554 18.446 50 19 50 L 59 50 C 59.554 50 60 49.554 60 49 C 60 48.446 59.554 48 59 48 L 19 48 z M 19 48.5 L 59 48.5 C 59.286 48.5 59.5 48.714 59.5 49 C 59.5 49.286 59.286 49.5 59 49.5 L 19 49.5 C 18.714 49.5 18.5 49.286 18.5 49 C 18.5 48.714 18.714 48.5 19 48.5 z M 19 54 C 18.446 54 18 54.446 18 55 C 18 55.554 18.446 56 19 56 L 47 56 C 47.554 56 48 55.554 48 55 C 48 54.446 47.554 54 47 54 L 19 54 z M 19 54.5 L 47 54.5 C 47.286 54.5 47.5 54.714 47.5 55 C 47.5 55.286 47.286 55.5 47 55.5 L 19 55.5 C 18.714 55.5 18.5 55.286 18.5 55 C 18.5 54.714 18.714 54.5 19 54.5 z " fill="currentColor" opacity=".6"/></g><use href="#use-path-6E" opacity=".4"/><use class="toggle-flat-design" fill="url(#gd1)" href="#use-path-6E" opacity=".2"/><path class="toggle-flat-design" d="m 42,24 c -6,0 -6,4 -12,4 H 10 c -2.216,0 -4,1.784 -4,4 v 48 c 0,2.216 1.784,4 4,4 h 76 c 2.216,0 4,-1.784 4,-4 V 50 32 28 c 0,-2.216 -1.784,-4 -4,-4 z" fill="url(#gl1)" opacity=".2"/><path class="folder-crease" d="m 6,66 v 3 L 9,69 c 0.831,0 1.5,-.67 1.5,-1.5 C 10.5,66.669 9.831,66 9,66 Z M 87,66 c -0.831,0 -1.5,0.669 -1.5,1.5 0,.83 0.669,1.5 1.5,1.5 l 3,-10e-7 v -3 z" opacity=".4"/><path class="ColorScheme-Text" d="m 6,79 v 1 c 0,2.216 1.784,4 4,4 h 76 c 2.216,0 4,-1.784 4,-4 v -1 c 0,2.216 -1.784,4 -4,4 H 10 C 7.784,83 6,81.216 6,79 Z" fill="currentColor" opacity=".1"/><path class="ColorScheme-Text" d="M 6,79.5 V 80 c 0,2.216 1.784,4 4,4 h 76 c 2.216,0 4,-1.784 4,-4 v -0.5 c 0,2.216 -1.784,4 -4,4 H 10 c -2.216,0 -4,-1.784 -4,-4 z" fill="currentColor" opacity=".2"/><path d="m 42,24 c -6,0 -6,4 -12,4 H 10 c -2.216,0 -4,1.784 -4,4 v 1 c 0,-2.216 1.784,-4 4,-4 h 20 c 6,0 6,-4 12,-4 h 44 c 2.216,0 4,1.784 4,4 v -1 c 0,-2.216 -1.784,-4 -4,-4 z" fill="#fff" opacity=".1"/><path d="m 42,24 c -6,0 -6,4 -12,4 H 10 c -2.216,0 -4,1.784 -4,4 v 0.5 c 0,-2.216 1.784,-4 4,-4 h 20 c 6,0 6,-4 12,-4 h 44 c 2.216,0 4,1.784 4,4 V 28 c 0,-2.216 -1.784,-4 -4,-4 z" fill="#fff" opacity=".2"/><path d="m 42,23 c -6,0 -6,4 -12,4 H 10 v 1 h 20 c 6,0 6,-4 12,-4 h 44 v -1 z" opacity=".1"/><path d="m 42,23.5 c -6,0 -6,4 -12,4 H 10 V 28 h 20 c 6,0 6,-4 12,-4 h 44 v -0.5 z" opacity=".2"/></g></svg>