<?xml version="1.0" encoding="utf-8"?><svg height="96" width="96" xmlns="http://www.w3.org/2000/svg" xmlns:svg="http://www.w3.org/2000/svg" xmlns:xlink="http://www.w3.org/1999/xlink"><defs id="primary-definitions"><style id="current-color-scheme" type="text/css">.ColorScheme-Text           { color:#fff; }
      .ColorScheme-Background     { color:#111; }
      .ColorScheme-Highlight      { color:#3daefd; }
      .ColorScheme-ViewBackground { color:#000; }
      .ColorScheme-PositiveText   { color:#27ae60; }
      .ColorScheme-NeutralText    { color:#f67400; }
      .ColorScheme-NegativeText   { color:#da4453; }
  </style><style id="extended-color-scheme" type="text/css">.ExScheme-Black     { color:#3e3e3e; }
      .ExScheme-White     { color:#fcfcfc; }
      .ExScheme-Grey-1    { color:#cfd5d5; }
      .ExScheme-Grey-2    { color:#909c9c; }
      .ExScheme-Grey-3    { color:#536161; }
      .ExScheme-Red-1     { color:#ffafa5; }
      .ExScheme-Red-2     { color:#bf4231; }
      .ExScheme-Red-3     { color:#4d2f2b; }
      .ExScheme-Green-1   { color:#abf9c7; }
      .ExScheme-Green-2   { color:#3bb566; }
      .ExScheme-Green-3   { color:#377d50; }
      .ExScheme-Blue-1    { color:#abdaf9; }
      .ExScheme-Blue-2    { color:#3daefd; }
      .ExScheme-Blue-3    { color:#2b3c4d; }
      .ExScheme-Yellow-1  { color:#faffa5; }
      .ExScheme-Yellow-2  { color:#cac726; }
      .ExScheme-Yellow-3  { color:#4b4d2b; }
      .ExScheme-Orange-1  { color:#ffdaa5; }
      .ExScheme-Orange-2  { color:#ff9701; }
      .ExScheme-Orange-3  { color:#4d372b; }
      .ExScheme-Brown-1   { color:#e9d6bb; }
      .ExScheme-Brown-2   { color:#997657; }
      .ExScheme-Brown-3   { color:#433a35; }
      .ExScheme-Purple-1  { color:#e2abf9; }
      .ExScheme-Purple-2  { color:#b401ff; }
      .ExScheme-Purple-3  { color:#432b4d; }
      .ExScheme-Cyan-1    { color:#b2f2e6; }
      .ExScheme-Cyan-2    { color:#31bfa6; }
      .ExScheme-Cyan-3    { color:#2b4d47; }
      .ExScheme-Magenta-1 { color:#f8a6d8; }
      .ExScheme-Magenta-2 { color:#f00091; }
      .ExScheme-Magenta-3 { color:#770048; }
  </style><linearGradient id="gradientDark"><stop offset="0"/><stop offset="1" stop-opacity="0"/></linearGradient><linearGradient id="gradientLight"><stop offset="0" stop-color="#fff"/><stop offset="1" stop-color="#fff" stop-opacity="0"/></linearGradient><style class="toggle-enable-crease" type="text/css">.folder-crease { display: none; }
  </style><style class="toggle-manilla-folders" type="text/css">.folder-manilla { display: none; }
  </style><radialGradient cx=".5" cy="0" id="gl1" r="1" xlink:href="#gradientLight"/><linearGradient id="gd1" xlink:href="#gradientDark" y1="1" y2=".5"/><path d="m 14,12 c -2.216,0 -4,1.784 -4,4 v 4 8 c -2.216,0 -4,1.784 -4,4 v 48 c 0,2.216 1.784,4 4,4 h 76 c 2.216,0 4,-1.784 4,-4 V 50 32 28 c 0,-2.216 -1.784,-4 -4,-4 v -4 c 0,-2.216 -1.784,-4 -4,-4 H 42 c -6,0 -6,-4 -12,-4 z" id="use-path-4X"/><path d="m 14,12 c -2.216,0 -4,1.784 -4,4 v 4 8 h 20 c 6,0 6,-4 12,-4 h 44 v -4 c 0,-2.216 -1.784,-4 -4,-4 H 42 c -6,0 -6,-4 -12,-4 z" id="use-path-4Y"/></defs><g id="content"><use class="folder-manilla ExScheme-Brown-1" fill="currentColor" href="#use-path-4X"/><use class="toggle-manilla-folders ColorScheme-Highlight" fill="currentColor" href="#use-path-4X" id="primary-color"/><use class="ColorScheme-Text" fill="currentColor" href="#use-path-4X" opacity=".1"/><g id="emblem" transform="translate(24,32)"><path class="ColorScheme-Background" d="M 6 10 C 4.892 10 4 10.892 4 12 L 4 13.443 L 23.998 24.924 L 44 13.44 L 44 12 C 44 10.892 43.108 10 42 10 L 6 10 z M 44 14.594 L 29.09 23.154 L 44 33.59 L 44 14.594 z M 4 14.596 L 4 34.203 L 18.932 23.168 L 4 14.596 z M 28.13 23.705 L 24.248 25.934 A .5 .5 0 0 1 23.75 25.934 L 19.88 23.71 L 4 35.447 L 4 36 C 4 37.108 4.892 38 6 38 L 42 38 C 43.108 38 44 37.108 44 36 L 44 34.812 L 28.13 23.705 z " fill="currentColor" opacity=".6" stop-color="#000000"/><path class="ColorScheme-Background" d="M 6 10 C 4.892 10 4 10.892 4 12 L 4 13.443 L 23.998 24.924 L 44 13.44 L 44 12 C 44 10.892 43.108 10 42 10 L 6 10 z M 6 10.5 L 42 10.5 C 42.84 10.5 43.5 11.16 43.5 12 L 43.5 13.152 L 23.998 24.348 L 4.5 13.154 L 4.5 12 C 4.5 11.16 5.16 10.5 6 10.5 z M 44 14.594 L 29.09 23.154 L 44 33.59 L 44 14.594 z M 4 14.596 L 4 34.203 L 18.932 23.168 L 4 14.596 z M 43.5 15.457 L 43.5 32.63 L 30.02 23.195 L 43.5 15.457 z M 4.5 15.46 L 18.02 23.22 L 4.5 33.21 L 4.5 15.46 z M 28.13 23.705 L 24.248 25.934 A .5 .5 0 0 1 23.75 25.934 L 19.88 23.71 L 4 35.447 L 4 36 C 4 37.108 4.892 38 6 38 L 42 38 C 43.108 38 44 37.108 44 36 L 44 34.812 L 28.13 23.705 z M 28.104 24.297 L 43.5 35.072 L 43.5 36 C 43.5 36.84 42.84 37.5 42 37.5 L 6 37.5 C 5.16 37.5 4.5 36.84 4.5 36 L 4.5 35.7 L 19.914 24.307 L 23.502 26.367 C 23.81 26.544 24.188 26.544 24.496 26.367 L 28.104 24.297 z " fill="currentColor" opacity=".6"/></g><use href="#use-path-4Y" opacity=".4"/><use class="toggle-flat-design" fill="url(#gd1)" href="#use-path-4Y" opacity=".2"/><path class="toggle-flat-design" d="m 42,24 c -6,0 -6,4 -12,4 H 10 c -2.216,0 -4,1.784 -4,4 v 48 c 0,2.216 1.784,4 4,4 h 76 c 2.216,0 4,-1.784 4,-4 V 50 32 28 c 0,-2.216 -1.784,-4 -4,-4 z" fill="url(#gl1)" opacity=".2"/><path class="folder-crease" d="m 6,66 v 3 h 13.5 c 0.831,0 1.5,-.67 1.5,-1.5 0,-0.831 -0.669,-1.5 -1.5,-1.5 z m 70.5,0 c -0.831,0 -1.5,0.669 -1.5,1.5 0,.83 0.669,1.5 1.5,1.5 H 90 v -3 z" opacity=".4"/><path class="ColorScheme-Text" d="m 6,79 v 1 c 0,2.216 1.784,4 4,4 h 76 c 2.216,0 4,-1.784 4,-4 v -1 c 0,2.216 -1.784,4 -4,4 H 10 C 7.784,83 6,81.216 6,79 Z" fill="currentColor" opacity=".1"/><path class="ColorScheme-Text" d="M 6,79.5 V 80 c 0,2.216 1.784,4 4,4 h 76 c 2.216,0 4,-1.784 4,-4 v -0.5 c 0,2.216 -1.784,4 -4,4 H 10 c -2.216,0 -4,-1.784 -4,-4 z" fill="currentColor" opacity=".2"/><path d="m 42,24 c -6,0 -6,4 -12,4 H 10 c -2.216,0 -4,1.784 -4,4 v 1 c 0,-2.216 1.784,-4 4,-4 h 20 c 6,0 6,-4 12,-4 h 44 c 2.216,0 4,1.784 4,4 v -1 c 0,-2.216 -1.784,-4 -4,-4 z" fill="#fff" opacity=".1"/><path d="m 42,24 c -6,0 -6,4 -12,4 H 10 c -2.216,0 -4,1.784 -4,4 v 0.5 c 0,-2.216 1.784,-4 4,-4 h 20 c 6,0 6,-4 12,-4 h 44 c 2.216,0 4,1.784 4,4 V 28 c 0,-2.216 -1.784,-4 -4,-4 z" fill="#fff" opacity=".2"/><path d="m 42,23 c -6,0 -6,4 -12,4 H 10 v 1 h 20 c 6,0 6,-4 12,-4 h 44 v -1 z" opacity=".1"/><path d="m 42,23.5 c -6,0 -6,4 -12,4 H 10 V 28 h 20 c 6,0 6,-4 12,-4 h 44 v -0.5 z" opacity=".2"/></g></svg>