<svg height="96" version="1.1" width="96" xmlns="http://www.w3.org/2000/svg" xmlns:svg="http://www.w3.org/2000/svg" xmlns:xlink="http://www.w3.org/1999/xlink">
<defs id="primary-definitions">
<style id="current-color-scheme" type="text/css">
      .ColorScheme-Text           { color:#fff; }
      .ColorScheme-Background     { color:#111; }
      .ColorScheme-Highlight      { color:#3daefd; }
      .ColorScheme-ViewBackground { color:#000; }
      .ColorScheme-PositiveText   { color:#27ae60; }
      .ColorScheme-NeutralText    { color:#f67400; }
      .ColorScheme-NegativeText   { color:#da4453; }
    </style>
<style id="extended-color-scheme" type="text/css">
      .ExScheme-Black     { color:#3e3e3e; }
      .ExScheme-White     { color:#fcfcfc; }
      .ExScheme-Grey-1    { color:#cfd5d5; }
      .ExScheme-Grey-2    { color:#909c9c; }
      .ExScheme-Grey-3    { color:#536161; }
      .ExScheme-Red-1     { color:#ffafa5; }
      .ExScheme-Red-2     { color:#bf4231; }
      .ExScheme-Red-3     { color:#4d2f2b; }
      .ExScheme-Green-1   { color:#abf9c7; }
      .ExScheme-Green-2   { color:#3bb566; }
      .ExScheme-Green-3   { color:#377d50; }
      .ExScheme-Blue-1    { color:#abdaf9; }
      .ExScheme-Blue-2    { color:#3daefd; }
      .ExScheme-Blue-3    { color:#2b3c4d; }
      .ExScheme-Yellow-1  { color:#faffa5; }
      .ExScheme-Yellow-2  { color:#cac726; }
      .ExScheme-Yellow-3  { color:#4b4d2b; }
      .ExScheme-Orange-1  { color:#ffdaa5; }
      .ExScheme-Orange-2  { color:#ff9701; }
      .ExScheme-Orange-3  { color:#4d372b; }
      .ExScheme-Brown-1   { color:#e9d6bb; }
      .ExScheme-Brown-2   { color:#997657; }
      .ExScheme-Brown-3   { color:#433a35; }
      .ExScheme-Purple-1  { color:#e2abf9; }
      .ExScheme-Purple-2  { color:#b401ff; }
      .ExScheme-Purple-3  { color:#432b4d; }
      .ExScheme-Cyan-1    { color:#b2f2e6; }
      .ExScheme-Cyan-2    { color:#31bfa6; }
      .ExScheme-Cyan-3    { color:#2b4d47; }
      .ExScheme-Magenta-1 { color:#f8a6d8; }
      .ExScheme-Magenta-2 { color:#f00091; }
      .ExScheme-Magenta-3 { color:#770048; }
    </style>
<linearGradient id="uxO">
<stop offset="0"/>
<stop offset="1" stop-opacity="0"/>
</linearGradient>
<linearGradient id="uxP">
<stop offset="0" stop-color="#fff"/>
<stop offset="1" stop-color="#fff" stop-opacity="0"/>
</linearGradient>
<style class="toggle-enable-crease" type="text/css">
        .folder-crease { display: none; }
    </style><style class="toggle-manilla-folders" type="text/css">
        .folder-manilla { display: none; }
    </style><radialGradient cx=".5" cy="0" id="uxQ" r="1" xlink:href="#uxP"/><linearGradient id="uxR" xlink:href="#uxO" y1="1" y2=".5"/><path d="m 14,12 c -2.2,0 -4,1.8 -4,4 v 4 8 c -2.2,0 -4,1.8 -4,4 v 48 c 0,2.2 1.8,4 4,4 h 76 c 2.2,0 4,-1.8 4,-4 V 50 32 28 c 0,-2.2 -1.8,-4 -4,-4 v -4 c 0,-2.2 -1.8,-4 -4,-4 H 42 c -6,0 -6,-4 -12,-4 z" id="uxS"></path><path d="m 14,12 c -2.2,0 -4,1.8 -4,4 v 4 8 h 20 c 6,0 6,-4 12,-4 h 44 v -4 c 0,-2.2 -1.8,-4 -4,-4 H 42 c -6,0 -6,-4 -12,-4 z" id="uxT"></path></defs>
<g id="content" transform="translate(0,0)"><use class="folder-manilla ExScheme-Brown-1" fill="currentColor" href="#uxS"></use><use class="toggle-manilla-folders ColorScheme-Highlight" fill="currentColor" href="#uxS" id="primary-color"></use><use class="ColorScheme-Text" fill="currentColor" href="#uxS" opacity=".1"></use><g id="emblem" transform="translate(24,32)"><path class="ColorScheme-Background" d="M 12 5 C 10.9 5 10 5.9 10 7 L 8 7 C 6.9 7 6 7.9 6 9 L 6 10 L 4 10 C 2.9 10 2 10.9 2 12 L 2 41 C 2 42.1 2.9 43 4 43 L 44 43 C 45.1 43 46 42.1 46 41 L 46 12 C 46 10.9 45.1 10 44 10 L 42 10 L 42 9 C 42 7.9 41.1 7 40 7 L 38 7 C 38 5.9 37.1 5 36 5 L 12 5 z M 12 6 L 36 6 C 36.55 6 37 6.45 37 7 L 11 7 C 11 6.45 11.45 6 12 6 z M 8 8 L 40 8 C 40.55 8 41 8.45 41 9 L 41 10 L 7 10 L 7 9 C 7 8.45 7.45 8 8 8 z M 4 11 L 44 11 C 44.55 11 45 11.45 45 12 L 45 41 C 45 41.55 44.55 42 44 42 L 4 42 C 3.45 42 3 41.55 3 41 L 3 12 C 3 11.45 3.45 11 4 11 z " fill="currentColor" opacity=".6" stop-color="#000000"/><path class="ColorScheme-Background" d="M 12,5 C 10.9,5 10,5.9 10,7 H 8 C 6.9,7 6,7.9 6,9 v 1 H 4 c -1.1,0 -2,.9 -2,2 v 29 c 0,1.1 .9,2 2,2 h 40 c 1.1,0 2,-.9 2,-2 V 12 c 0,-1.1 -.9,-2 -2,-2 H 42 V 9 C 42,7.9 41.1,7 40,7 H 38 C 38,5.9 37.1,5 36,5 Z m 0,1 h 24 c .55,0 1,.45 1,1 H 11 C 11,6.45 11.45,6 12,6 Z M 8,8 h 32 c .55,0 1,.45 1,1 v 1 H 7 V 9 C 7,8.45 7.45,8 8,8 Z m -4,3 h 40 c .55,0 1,.45 1,1 v 29 c 0,.55 -.45,1 -1,1 H 4 C 3.45,42 3,41.55 3,41 V 12 c 0,-.55 .45,-1 1,-1 z" fill="currentColor" opacity=".6" stop-color="#000000"/><path class="ColorScheme-Background" d="m 21,30 v -7 l 6,3.5 z" fill="currentColor" opacity=".6"/><path class="ColorScheme-Background" d="M 21 23 L 21 30 L 27 26.5 L 21 23 z M 21.5 23.87 L 26 26.5 L 21.5 29.13 L 21.5 23.87 z " fill="currentColor" opacity=".6"/></g><use href="#uxT" opacity=".4"></use><use class="toggle-flat-design" fill="url(#uxR)" href="#uxT" opacity=".2"></use><path class="toggle-flat-design" d="m 42,24 c -6,0 -6,4 -12,4 H 10 c -2.2,0 -4,1.8 -4,4 v 48 c 0,2.2 1.8,4 4,4 h 76 c 2.2,0 4,-1.8 4,-4 V 50 32 28 c 0,-2.2 -1.8,-4 -4,-4 z" fill="url(#uxQ)" opacity=".2"/><path class="folder-crease " d="m 6,66 v 3 h 13.5 c .83,0 1.5,-.67 1.5,-1.5 0,-.83 -.67,-1.5 -1.5,-1.5 z m 70.5,0 c -.83,0 -1.5,.67 -1.5,1.5 0,.83 .67,1.5 1.5,1.5 H 90 v -3 z" opacity=".4"/><path class="ColorScheme-Text" d="m 6,79 v 1 c 0,2.2 1.8,4 4,4 h 76 c 2.2,0 4,-1.8 4,-4 v -1 c 0,2.2 -1.8,4 -4,4 H 10 C 7.8,83 6,81.2 6,79 Z" fill="currentColor" opacity=".1"/><path class="ColorScheme-Text" d="M 6,79.5 V 80 c 0,2.2 1.8,4 4,4 h 76 c 2.2,0 4,-1.8 4,-4 v -0.5 c 0,2.2 -1.8,4 -4,4 H 10 c -2.2,0 -4,-1.8 -4,-4 z" fill="currentColor" opacity=".2"/><path d="m 42,24 c -6,0 -6,4 -12,4 H 10 c -2.2,0 -4,1.8 -4,4 v 1 c 0,-2.2 1.8,-4 4,-4 h 20 c 6,0 6,-4 12,-4 h 44 c 2.2,0 4,1.8 4,4 v -1 c 0,-2.2 -1.8,-4 -4,-4 z" fill="#fff" opacity=".1"/><path d="m 42,24 c -6,0 -6,4 -12,4 H 10 c -2.2,0 -4,1.8 -4,4 v 0.5 c 0,-2.2 1.8,-4 4,-4 h 20 c 6,0 6,-4 12,-4 h 44 c 2.2,0 4,1.8 4,4 V 28 c 0,-2.2 -1.8,-4 -4,-4 z" fill="#fff" opacity=".2"/><path d="m 42,23 c -6,0 -6,4 -12,4 H 10 v 1 h 20 c 6,0 6,-4 12,-4 h 44 v -1 z" opacity=".1"/><path d="m 42,23.5 c -6,0 -6,4 -12,4 H 10 V 28 h 20 c 6,0 6,-4 12,-4 h 44 v -0.5 z" opacity=".2"/></g>
</svg>