<svg height="96" version="1.1" width="96" xmlns="http://www.w3.org/2000/svg" xmlns:svg="http://www.w3.org/2000/svg" xmlns:xlink="http://www.w3.org/1999/xlink">
<defs id="primary-definitions">
<style id="current-color-scheme" type="text/css">
      .ColorScheme-Text         { color: #232629; }
      .ColorScheme-Background   { color: #eff0f1; }
      .ColorScheme-Highlight    { color: #7ec9f0; }
      .ColorScheme-PositiveText { color: #27ae60; }
      .ColorScheme-NeutralText  { color: #f67400; }
      .ColorScheme-NegativeText { color: #da4453; }
      .ColorScheme-ActiveText   { color: #3daee9; }
      .ColorScheme-Complement   { color: #ffffff; }
      .ColorScheme-Contrast     { color: #000000; }
    </style>
<style id="extended-color-scheme" type="text/css">
      .ExScheme-Black     { color:#3e3e3e; }
      .ExScheme-White     { color:#fcfcfc; }
      .ExScheme-Grey-1    { color:#cfd5d5; }
      .ExScheme-Grey-2    { color:#909c9c; }
      .ExScheme-Grey-3    { color:#536161; }
      .ExScheme-Red-1     { color:#ffafa5; }
      .ExScheme-Red-2     { color:#bf4231; }
      .ExScheme-Red-3     { color:#4d2f2b; }
      .ExScheme-Green-1   { color:#abf9c7; }
      .ExScheme-Green-2   { color:#3bb566; }
      .ExScheme-Green-3   { color:#377d50; }
      .ExScheme-Blue-1    { color:#abdaf9; }
      .ExScheme-Blue-2    { color:#3daefd; }
      .ExScheme-Blue-3    { color:#2b3c4d; }
      .ExScheme-Yellow-1  { color:#faffa5; }
      .ExScheme-Yellow-2  { color:#cac726; }
      .ExScheme-Yellow-3  { color:#4b4d2b; }
      .ExScheme-Orange-1  { color:#ffdaa5; }
      .ExScheme-Orange-2  { color:#ff9701; }
      .ExScheme-Orange-3  { color:#4d372b; }
      .ExScheme-Brown-1   { color:#e9d6bb; }
      .ExScheme-Brown-2   { color:#997657; }
      .ExScheme-Brown-3   { color:#433a35; }
      .ExScheme-Purple-1  { color:#e2abf9; }
      .ExScheme-Purple-2  { color:#b401ff; }
      .ExScheme-Purple-3  { color:#432b4d; }
      .ExScheme-Cyan-1    { color:#b2f2e6; }
      .ExScheme-Cyan-2    { color:#31bfa6; }
      .ExScheme-Cyan-3    { color:#2b4d47; }
      .ExScheme-Magenta-1 { color:#f8a6d8; }
      .ExScheme-Magenta-2 { color:#f00091; }
      .ExScheme-Magenta-3 { color:#770048; }
    </style>
<linearGradient id="umz">
<stop offset="0"/>
<stop offset="1" stop-opacity="0"/>
</linearGradient>
<linearGradient id="umA">
<stop offset="0" stop-color="#fff"/>
<stop offset="1" stop-color="#fff" stop-opacity="0"/>
</linearGradient>
<style id="umB" type="text/css">
        .force-display-for-editing { display: inline !important; }
    </style><style class="remove-if__show-crease" type="text/css">
        .enable-if__show-crease { display: none; }
    </style><style class="remove-if__color-sync-mimes-places" type="text/css">
        .enable-if__color-sync-mimes-places { display: none; }
    </style><radialGradient cx=".5" cy="0" id="umC" r="1" xlink:href="#umA"/><linearGradient id="umD" xlink:href="#umz" y1="1" y2=".5"/><style class="ColorScheme-Background" fill="currentColor" opacity=".6" type="text/css">
   .ColorScheme-Text           { color:#eff0f1; }
      .ColorScheme-Background     { color:#31363b; }
      .ColorScheme-Highlight      { color:#3daefd; }
      .ColorScheme-ViewBackground { color:#fcfcfc; }
      .ColorScheme-PositiveText   { color:#27ae60; }
      .ColorScheme-NeutralText    { color:#f67400; }
      .ColorScheme-NegativeText   { color:#da4453; }
  </style><path d="m 14,12 c -2.2,0 -4,1.8 -4,4 v 4 8 c -2.2,0 -4,1.8 -4,4 v 48 c 0,2.2 1.8,4 4,4 h 76 c 2.2,0 4,-1.8 4,-4 V 50 32 28 c 0,-2.2 -1.8,-4 -4,-4 v -4 c 0,-2.2 -1.8,-4 -4,-4 H 42 c -6,0 -6,-4 -12,-4 z" id="umE"></path><path d="m 14,12 c -2.2,0 -4,1.8 -4,4 v 4 8 h 20 c 6,0 6,-4 12,-4 h 44 v -4 c 0,-2.2 -1.8,-4 -4,-4 H 42 c -6,0 -6,-4 -12,-4 z" id="umF"></path></defs>
<g id="content" transform="translate(0,0)"><use class="sync-color enable-if__color-sync-mimes-places force-display-for-editing ColorScheme-ActiveText" fill="currentColor" href="#umE"></use><use class="primary-color remove-if__color-sync-mimes-places ColorScheme-ActiveText" fill="currentColor" href="#umE"></use><use class="ColorScheme-Contrast" fill="currentColor" href="#umE" opacity=".1"></use><g id="decal" transform="translate(24,32)"><path class="ColorScheme-Background" d="m 12.95,3 c -2.27,0 -4.2,1.75 -4.43,4 a .74,.74 0 0 0 0,.2 .74,.74 0 0 0 -.03,.1 V 37.9 c -0,.2 -0,.44 0,.67 v 0 a .74,.74 0 0 0 0,0 c .06,.8 .34,1.57 .8,2.24 .93,1.3 2.5,2 4.07,1.87 a .74,.74 0 0 0 .67,-.8 .74,.74 0 0 0 -.8,-.67 c -1.07,.1 -2.1,-.4 -2.73,-1.25 -.3,-.43 -.5,-.93 -.54,-1.44 v -.6 c .03,-.3 .1,-.64 .26,-.95 .45,-1 1.4,-1.64 2.45,-1.74 a .74,.74 0 0 0 .06,-0 c .6,2.2e-5 23.5,.04 23.5,.04 h .05 l .05,-0 c 0,0 .86,-.1 1.74,-.6 .9,-.5 1.85,-1.5 1.85,-3.1 0,-2.56 .03,-24.6 .03,-24.6 0,-.1 .04,-1 -.35,-1.9 C 39.2,4.07 38.1,3 36.3,3 H 15.24 v 0 h -2.07 c -.07,-0 -.15,-0 -.2,-0 z m 0,1.5 c .05,-3.06e-4 .1,-1.65e-4 .15,0 a .74,.74 0 0 0 0,0 .74,.74 0 0 0 0,0 h 2.1 V 33.76 c -.5,-7.46e-4 -2.43,-0 -2.5,-0 a .74,.74 0 0 0 -.1,0 .74,.74 0 0 0 -.1,-0 c -.97,.1 -1.86,.5 -2.56,1.1 V 7.3 a .74,.74 0 0 0 -0,-.07 .74,.74 0 0 0 0,-.1 C 10.16,5.64 11.43,4.5 12.96,4.5 Z m 4.1,0 h 19.25 c 1.3,0 1.7,.54 1.96,1.16 .26,.6 .23,1.3 .23,1.3 l -0,0 v 0 c 0,0 -.03,22.05 -.03,24.6 0,1 -.5,1.46 -1.1,1.8 -.6,.33 -1.17,.4 -1.2,.4 C 36.04,33.9 22.4,33.8 16.7,33.77 V 4.5 h .3 a .74,.74 0 0 0 .03,-0 z m 3.25,3.46 a .74,.74 0 0 0 -.74,.74 .74,.74 0 0 0 .74,.74 h 14.26 a .74,.74 0 0 0 .74,-.74 .74,.74 0 0 0 -.74,-.74 z m 0,2.34 a .74,.74 0 0 0 -.74,.74 .74,.74 0 0 0 .74,.74 h 14.26 a .74,.74 0 0 0 .74,-.74 .74,.74 0 0 0 -.74,-.74 z m 0,2.34 a .74,.74 0 0 0 -.74,.74 .74,.74 0 0 0 .74,.74 h 14.26 a .74,.74 0 0 0 .74,-.74 .74,.74 0 0 0 -.74,-.74 z m 0,2.34 a .74,.74 0 0 0 -.74,.74 .74,.74 0 0 0 .74,.74 h 14.26 a .74,.74 0 0 0 .74,-.74 .74,.74 0 0 0 -.74,-.74 z m -7.16,21.24 a .74,.74 0 0 0 -.74,.74 .74,.74 0 0 0 .74,.74 h 12.65 a .74,.74 0 0 0 .74,-.74 .74,.74 0 0 0 -.74,-.74 z m 17.2,0 a .74,.74 0 0 0 -.74,.74 .74,.74 0 0 0 .74,.74 h 5.74 a .74,.74 0 0 0 .74,-.74 .74,.74 0 0 0 -.74,-.74 z m 9.95,1.2 a .74,.74 0 0 0 -.74,.74 c 0,1.5 -.6,2.03 -1.3,2.35 -.67,.33 -1.37,.3 -1.37,.3 h -0 -13.96 a .74,.74 0 0 0 -.74,.74 .74,.74 0 0 0 .74,.74 h 13.93 c 0,0 1,.04 2.05,-.47 1.04,-.5 2.1,-1.7 2.1,-3.7 a .74,.74 0 0 0 -.74,-.74 z m -27.2,.8 a .74,.74 0 0 0 -.74,.74 .74,.74 0 0 0 .74,.74 h 2.5 v 5.3 l 2.4,-1.7 2.4,1.74 -.04,-5.34 H 36.56 A .74,.74 0 0 0 37.4,39 .74,.74 0 0 0 36.56,38.24 Z" fill="currentColor" opacity=".6"/></g><use href="#umF" opacity=".4"></use><use fill="url(#umD)" href="#umF" opacity=".2"></use><path d="m 42,24 c -6,0 -6,4 -12,4 H 10 c -2.2,0 -4,1.8 -4,4 v 48 c 0,2.2 1.8,4 4,4 h 76 c 2.2,0 4,-1.8 4,-4 V 50 32 28 c 0,-2.2 -1.8,-4 -4,-4 z" fill="url(#umC)" opacity=".2"/><path class="ColorScheme-Contrast" d="m 6,79 v 1 c 0,2.2 1.8,4 4,4 h 76 c 2.2,0 4,-1.8 4,-4 v -1 c 0,2.2 -1.8,4 -4,4 H 10 C 7.8,83 6,81.2 6,79 Z" fill="currentColor" opacity=".1"/><path class="ColorScheme-Contrast" d="M 6,79.5 V 80 c 0,2.2 1.8,4 4,4 h 76 c 2.2,0 4,-1.8 4,-4 v -0.5 c 0,2.2 -1.8,4 -4,4 H 10 c -2.2,0 -4,-1.8 -4,-4 z" fill="currentColor" opacity=".2"/><path d="m 42,24 c -6,0 -6,4 -12,4 H 10 c -2.2,0 -4,1.8 -4,4 v 1 c 0,-2.2 1.8,-4 4,-4 h 20 c 6,0 6,-4 12,-4 h 44 c 2.2,0 4,1.8 4,4 v -1 c 0,-2.2 -1.8,-4 -4,-4 z" fill="#fff" opacity=".1"/><path d="m 42,24 c -6,0 -6,4 -12,4 H 10 c -2.2,0 -4,1.8 -4,4 v 0.5 c 0,-2.2 1.8,-4 4,-4 h 20 c 6,0 6,-4 12,-4 h 44 c 2.2,0 4,1.8 4,4 V 28 c 0,-2.2 -1.8,-4 -4,-4 z" fill="#fff" opacity=".2"/><path d="m 42,23 c -6,0 -6,4 -12,4 H 10 v 1 h 20 c 6,0 6,-4 12,-4 h 44 v -1 z" opacity=".1"/><path d="m 42,23.5 c -6,0 -6,4 -12,4 H 10 V 28 h 20 c 6,0 6,-4 12,-4 h 44 v -0.5 z" opacity=".2"/></g>
</svg>