<svg height="96" version="1.1" width="96" xmlns="http://www.w3.org/2000/svg" xmlns:svg="http://www.w3.org/2000/svg" xmlns:xlink="http://www.w3.org/1999/xlink">
<defs id="primary-definitions">
<style id="current-color-scheme" type="text/css">
      .ColorScheme-Text           { color:#fff; }
      .ColorScheme-Background     { color:#111; }
      .ColorScheme-Highlight      { color:#3daefd; }
      .ColorScheme-ViewBackground { color:#000; }
      .ColorScheme-PositiveText   { color:#27ae60; }
      .ColorScheme-NeutralText    { color:#f67400; }
      .ColorScheme-NegativeText   { color:#da4453; }
    </style>
<style id="extended-color-scheme" type="text/css">
      .ExScheme-Black     { color:#3e3e3e; }
      .ExScheme-White     { color:#fcfcfc; }
      .ExScheme-Grey-1    { color:#cfd5d5; }
      .ExScheme-Grey-2    { color:#909c9c; }
      .ExScheme-Grey-3    { color:#536161; }
      .ExScheme-Red-1     { color:#ffafa5; }
      .ExScheme-Red-2     { color:#bf4231; }
      .ExScheme-Red-3     { color:#4d2f2b; }
      .ExScheme-Green-1   { color:#abf9c7; }
      .ExScheme-Green-2   { color:#3bb566; }
      .ExScheme-Green-3   { color:#377d50; }
      .ExScheme-Blue-1    { color:#abdaf9; }
      .ExScheme-Blue-2    { color:#3daefd; }
      .ExScheme-Blue-3    { color:#2b3c4d; }
      .ExScheme-Yellow-1  { color:#faffa5; }
      .ExScheme-Yellow-2  { color:#cac726; }
      .ExScheme-Yellow-3  { color:#4b4d2b; }
      .ExScheme-Orange-1  { color:#ffdaa5; }
      .ExScheme-Orange-2  { color:#ff9701; }
      .ExScheme-Orange-3  { color:#4d372b; }
      .ExScheme-Brown-1   { color:#e9d6bb; }
      .ExScheme-Brown-2   { color:#997657; }
      .ExScheme-Brown-3   { color:#433a35; }
      .ExScheme-Purple-1  { color:#e2abf9; }
      .ExScheme-Purple-2  { color:#b401ff; }
      .ExScheme-Purple-3  { color:#432b4d; }
      .ExScheme-Cyan-1    { color:#b2f2e6; }
      .ExScheme-Cyan-2    { color:#31bfa6; }
      .ExScheme-Cyan-3    { color:#2b4d47; }
      .ExScheme-Magenta-1 { color:#f8a6d8; }
      .ExScheme-Magenta-2 { color:#f00091; }
      .ExScheme-Magenta-3 { color:#770048; }
    </style>
<linearGradient id="uG5">
<stop offset="0"/>
<stop offset="1" stop-opacity="0"/>
</linearGradient>
<linearGradient id="uG6">
<stop offset="0" stop-color="#fff"/>
<stop offset="1" stop-color="#fff" stop-opacity="0"/>
</linearGradient>
<style class="toggle-enable-crease" type="text/css">
        .folder-crease { display: none; }
    </style><style class="toggle-manilla-folders" type="text/css">
        .folder-manilla { display: none; }
    </style><radialGradient cx=".5" cy="0" id="uG7" r="1" xlink:href="#uG6"/><linearGradient id="uG8" xlink:href="#uG5" y1="1" y2=".5"/><path d="m 14,12 c -2.2,0 -4,1.8 -4,4 v 4 8 c -2.2,0 -4,1.8 -4,4 v 48 c 0,2.2 1.8,4 4,4 h 76 c 2.2,0 4,-1.8 4,-4 V 50 32 28 c 0,-2.2 -1.8,-4 -4,-4 v -4 c 0,-2.2 -1.8,-4 -4,-4 H 42 c -6,0 -6,-4 -12,-4 z" id="uG9"></path><path d="m 14,12 c -2.2,0 -4,1.8 -4,4 v 4 8 h 20 c 6,0 6,-4 12,-4 h 44 v -4 c 0,-2.2 -1.8,-4 -4,-4 H 42 c -6,0 -6,-4 -12,-4 z" id="uGa"></path></defs>
<g id="content" transform="translate(0,0)"><use class="folder-manilla ExScheme-Brown-1" fill="currentColor" href="#uG9"></use><use class="toggle-manilla-folders ColorScheme-Highlight" fill="currentColor" href="#uG9" id="primary-color"></use><use class="ColorScheme-Text" fill="currentColor" href="#uG9" opacity=".1"></use><g id="emblem" transform="translate(24,32)"><path class="ColorScheme-Background" d="M 24 3 C 17.37 3 12 8.37 12 15 L 12 16.5 A 1.5 1.5 0 0 0 13.5 18 A 1.5 1.5 0 0 0 15 16.5 L 15 15 C 15 10.03 19.03 6 24 6 C 28.97 6 33 10.03 33 15 L 33 24 L 11 24 C 9.9 24 9 24.9 9 26 L 9 43 C 9 44.1 9.9 45 11 45 L 37 45 C 38.1 45 39 44.1 39 43 L 39 26 C 39 24.9 38.1 24 37 24 L 36 24 L 36 15 C 36 8.37 30.63 3 24 3 z M 24 4 A 11 11 0 0 1 35 15 L 35 24 L 34 24 L 34 15 A 10 10 0 0 0 24 5 A 10 10 0 0 0 14 15 L 14 15.47 C 14 15.5 14 15.5 14 15.5 L 14 16.5 C 14 16.8 13.8 17 13.5 17 C 13.2 17 13 16.8 13 16.5 L 13 16 L 13 15.5 C 13 15.5 13 15.5 13 15.47 L 13 15 A 11 11 0 0 1 24 4 z M 11 25 L 37 25 C 37.55 25 38 25.45 38 26 L 38 43 C 38 43.55 37.55 44 37 44 L 11 44 C 10.45 44 10 43.55 10 43 L 10 26 C 10 25.45 10.45 25 11 25 z " fill="currentColor" opacity=".6" stop-color="#000000"/><path class="ColorScheme-Background" d="M 24,3 C 17.37,3 12,8.37 12,15 v 1.5 A 1.5,1.5 0 0 0 13.5,18 1.5,1.5 0 0 0 15,16.5 V 15 c 0,-4.97 4.03,-9 9,-9 4.97,0 9,4.03 9,9 v 9 H 11 c -1.1,0 -2,.9 -2,2 v 17 c 0,1.1 .9,2 2,2 h 26 c 1.1,0 2,-.9 2,-2 V 26 c 0,-1.1 -.9,-2 -2,-2 H 36 V 15 C 36,8.37 30.63,3 24,3 Z m 0,1 a 11,11 0 0 1 11,11 v 9 H 34 V 15 A 10,10 0 0 0 24,5 10,10 0 0 0 14,15 v .47 c 4.3e-4,0 0,0 0,.03 v 1 C 14,16.8 13.8,17 13.5,17 13.2,17 13,16.8 13,16.5 V 16 15.5 c 0,-0 -4.3e-4,-0 0,-.03 V 15 A 11,11 0 0 1 24,4 Z M 11,25 h 26 c .55,0 1,.45 1,1 v 17 c 0,.55 -.45,1 -1,1 H 11 c -.55,0 -1,-.45 -1,-1 V 26 c 0,-.55 .45,-1 1,-1 z" fill="currentColor" opacity=".6" stop-color="#000000"/></g><use href="#uGa" opacity=".4"></use><use class="toggle-flat-design" fill="url(#uG8)" href="#uGa" opacity=".2"></use><path class="toggle-flat-design" d="m 42,24 c -6,0 -6,4 -12,4 H 10 c -2.2,0 -4,1.8 -4,4 v 48 c 0,2.2 1.8,4 4,4 h 76 c 2.2,0 4,-1.8 4,-4 V 50 32 28 c 0,-2.2 -1.8,-4 -4,-4 z" fill="url(#uG7)" opacity=".2"/><path class="folder-crease " d="m 6,66 v 3 h 13.5 c .83,0 1.5,-.67 1.5,-1.5 0,-.83 -.67,-1.5 -1.5,-1.5 z m 70.5,0 c -.83,0 -1.5,.67 -1.5,1.5 0,.83 .67,1.5 1.5,1.5 H 90 v -3 z" opacity=".4"/><path class="ColorScheme-Text" d="m 6,79 v 1 c 0,2.2 1.8,4 4,4 h 76 c 2.2,0 4,-1.8 4,-4 v -1 c 0,2.2 -1.8,4 -4,4 H 10 C 7.8,83 6,81.2 6,79 Z" fill="currentColor" opacity=".1"/><path class="ColorScheme-Text" d="M 6,79.5 V 80 c 0,2.2 1.8,4 4,4 h 76 c 2.2,0 4,-1.8 4,-4 v -0.5 c 0,2.2 -1.8,4 -4,4 H 10 c -2.2,0 -4,-1.8 -4,-4 z" fill="currentColor" opacity=".2"/><path d="m 42,24 c -6,0 -6,4 -12,4 H 10 c -2.2,0 -4,1.8 -4,4 v 1 c 0,-2.2 1.8,-4 4,-4 h 20 c 6,0 6,-4 12,-4 h 44 c 2.2,0 4,1.8 4,4 v -1 c 0,-2.2 -1.8,-4 -4,-4 z" fill="#fff" opacity=".1"/><path d="m 42,24 c -6,0 -6,4 -12,4 H 10 c -2.2,0 -4,1.8 -4,4 v 0.5 c 0,-2.2 1.8,-4 4,-4 h 20 c 6,0 6,-4 12,-4 h 44 c 2.2,0 4,1.8 4,4 V 28 c 0,-2.2 -1.8,-4 -4,-4 z" fill="#fff" opacity=".2"/><path d="m 42,23 c -6,0 -6,4 -12,4 H 10 v 1 h 20 c 6,0 6,-4 12,-4 h 44 v -1 z" opacity=".1"/><path d="m 42,23.5 c -6,0 -6,4 -12,4 H 10 V 28 h 20 c 6,0 6,-4 12,-4 h 44 v -0.5 z" opacity=".2"/></g>
</svg>