<svg height="96" version="1.1" width="96" xmlns="http://www.w3.org/2000/svg" xmlns:svg="http://www.w3.org/2000/svg" xmlns:xlink="http://www.w3.org/1999/xlink">
<defs id="primary-definitions">
<style id="current-color-scheme" type="text/css">
      .ColorScheme-Text           { color:#fff; }
      .ColorScheme-Background     { color:#111; }
      .ColorScheme-Highlight      { color:#3daefd; }
      .ColorScheme-ViewBackground { color:#000; }
      .ColorScheme-PositiveText   { color:#27ae60; }
      .ColorScheme-NeutralText    { color:#f67400; }
      .ColorScheme-NegativeText   { color:#da4453; }
    </style>
<style id="extended-color-scheme" type="text/css">
      .ExScheme-Black     { color:#3e3e3e; }
      .ExScheme-White     { color:#fcfcfc; }
      .ExScheme-Grey-1    { color:#cfd5d5; }
      .ExScheme-Grey-2    { color:#909c9c; }
      .ExScheme-Grey-3    { color:#536161; }
      .ExScheme-Red-1     { color:#ffafa5; }
      .ExScheme-Red-2     { color:#bf4231; }
      .ExScheme-Red-3     { color:#4d2f2b; }
      .ExScheme-Green-1   { color:#abf9c7; }
      .ExScheme-Green-2   { color:#3bb566; }
      .ExScheme-Green-3   { color:#377d50; }
      .ExScheme-Blue-1    { color:#abdaf9; }
      .ExScheme-Blue-2    { color:#3daefd; }
      .ExScheme-Blue-3    { color:#2b3c4d; }
      .ExScheme-Yellow-1  { color:#faffa5; }
      .ExScheme-Yellow-2  { color:#cac726; }
      .ExScheme-Yellow-3  { color:#4b4d2b; }
      .ExScheme-Orange-1  { color:#ffdaa5; }
      .ExScheme-Orange-2  { color:#ff9701; }
      .ExScheme-Orange-3  { color:#4d372b; }
      .ExScheme-Brown-1   { color:#e9d6bb; }
      .ExScheme-Brown-2   { color:#997657; }
      .ExScheme-Brown-3   { color:#433a35; }
      .ExScheme-Purple-1  { color:#e2abf9; }
      .ExScheme-Purple-2  { color:#b401ff; }
      .ExScheme-Purple-3  { color:#432b4d; }
      .ExScheme-Cyan-1    { color:#b2f2e6; }
      .ExScheme-Cyan-2    { color:#31bfa6; }
      .ExScheme-Cyan-3    { color:#2b4d47; }
      .ExScheme-Magenta-1 { color:#f8a6d8; }
      .ExScheme-Magenta-2 { color:#f00091; }
      .ExScheme-Magenta-3 { color:#770048; }
    </style>
<linearGradient id="uzz">
<stop offset="0"/>
<stop offset="1" stop-opacity="0"/>
</linearGradient>
<linearGradient id="uzA">
<stop offset="0" stop-color="#fff"/>
<stop offset="1" stop-color="#fff" stop-opacity="0"/>
</linearGradient>
<style class="toggle-enable-crease" type="text/css">
        .folder-crease { display: none; }
    </style><style class="toggle-manilla-folders" type="text/css">
        .folder-manilla { display: none; }
    </style><radialGradient cx=".5" cy="0" id="uzB" r="1" xlink:href="#uzA"/><linearGradient id="uzC" xlink:href="#uzz" y1="1" y2=".5"/><path d="m 14,12 c -2.2,0 -4,1.8 -4,4 v 4 8 c -2.2,0 -4,1.8 -4,4 v 48 c 0,2.2 1.8,4 4,4 h 76 c 2.2,0 4,-1.8 4,-4 V 50 32 28 c 0,-2.2 -1.8,-4 -4,-4 v -4 c 0,-2.2 -1.8,-4 -4,-4 H 42 c -6,0 -6,-4 -12,-4 z" id="uzD"></path><path d="m 14,12 c -2.2,0 -4,1.8 -4,4 v 4 8 h 20 c 6,0 6,-4 12,-4 h 44 v -4 c 0,-2.2 -1.8,-4 -4,-4 H 42 c -6,0 -6,-4 -12,-4 z" id="uzE"></path></defs>
<g id="content" transform="translate(0,0)"><use class="folder-manilla ExScheme-Brown-1" fill="currentColor" href="#uzD"></use><use class="toggle-manilla-folders ColorScheme-Highlight" fill="currentColor" href="#uzD" id="primary-color"></use><use class="ColorScheme-Text" fill="currentColor" href="#uzD" opacity=".1"></use><g id="emblem" transform="translate(24,32)"><path class="ColorScheme-Background" d="M 24 4 C 12.9 4 4 12.9 4 24 C 4 35.1 12.9 44 24 44 C 35.1 44 44 35.1 44 24 C 44 12.9 35.1 4 24 4 z M 24.86 5 C 30.17 5.26 34.9 7.65 38.2 11.34 C 38.16 11.4 37.9 12.03 37.9 12.5 C 37.9 12.96 37.9 13.45 38.4 13.45 C 39.35 13.45 38.8 14.67 38.4 14.9 C 37.43 15.36 37.44 15.84 37.44 16.3 C 37.44 16.8 36.5 17.04 36 17.5 C 35.3 18.24 35.45 18.13 35.04 18.7 C 34.85 19 34.8 19.2 34.56 19.7 C 34.1 20.64 34.56 20.16 34.56 20.64 C 34.56 21.1 34.56 22.1 34.1 23.04 C 33.6 24 35.5 24.96 35.5 25.44 C 35.5 25.9 36 26.4 37.44 27.36 C 37.9 27.67 39.35 27.36 40.3 27.36 C 41.07 27.36 41.84 26.77 42.83 26.5 C 41.64 35.54 34.2 42.53 24.95 42.97 C 25.13 42.74 25.3 42.5 25.44 42.23 C 25.9 41.27 25.6 41 25.9 40.3 C 26.25 39.65 27.84 39.83 28.3 38.87 C 28.8 37.9 29.3 37.43 29.3 36 C 29.3 34.55 30.7 34.56 30.7 32.16 C 30.24 31.7 28.8 30.7 28.3 30.7 C 27.84 30.7 25.44 30.24 24.96 29.76 C 24.5 29.3 23.5 26.9 22.56 26.9 C 21.6 26.9 21.1 26.9 20.64 26.4 C 20.16 25.9 19.2 24.96 16.8 24.5 C 14.4 24 13.45 24.5 13.45 24.96 C 13.45 25.44 11.53 25.44 11.05 25.44 C 10.57 25.44 10.1 24.96 10.1 24.5 C 10.1 24 10.57 23.04 10.1 22.56 C 9.6 22.1 8.65 23.04 8.17 22.56 C 7.7 22.1 9.13 21.1 9.13 20.16 C 7.7 20.16 7.7 20.64 7.2 21.1 C 6.73 21.6 6.25 21.6 5.77 21.6 C 5.53 21.6 5.35 21.37 5.2 21.14 C 5.44 19.6 5.86 18.13 6.43 16.73 C 6.67 16.53 6.96 16.3 7.2 16.3 C 7.7 16.3 8.3 16.8 8.65 16.8 C 9.1 16.8 9.13 16.3 10.1 16.3 C 11.05 16.3 11.53 16.8 11.53 17.3 C 11.53 17.76 12 17.76 12.5 17.76 C 12.5 17.3 12 16.3 12.97 15.36 C 13.93 14.4 14.4 14.9 15.37 13.9 C 16.3 12.96 15.85 12.97 16.8 12 C 17.3 11.53 17.95 11.8 18.24 11.53 C 18.54 11.23 18.24 10.57 19.7 10.1 C 21.1 9.6 20.16 10.57 20.64 10.57 C 21.1 10.1 23.5 10.1 23.04 9.13 C 22.56 9.13 22.56 9.6 21.6 9.6 C 20.64 9.6 22.56 8.17 22.1 8.17 C 21.6 8.17 21.1 7.7 22.1 7.7 C 22.46 7.7 22.4 8.27 23.04 8.17 C 23.33 8.1 22.56 7.7 23.5 7.7 C 24.5 7.7 24.5 7.2 24.96 7.2 C 25.44 7.2 24 8.65 24 8.65 C 24 8.65 25.44 9.13 25.9 9.13 C 26.4 9.13 26.4 8.65 25.9 8.17 C 25.44 7.7 24.96 8.17 25.44 7.7 C 25.9 7.2 26.4 6.25 25.44 5.77 C 25.04 5.57 24.9 5.3 24.86 5 z M 18.67 5.76 C 18.36 5.9 18 6 17.76 6.25 C 17.3 6.73 17.3 7.2 16.8 7.2 C 16.5 7.2 16.46 6.8 16.5 6.53 C 17.2 6.23 17.9 5.97 18.67 5.76 z M 13.2 8.45 C 13.84 8.4 14.3 8.77 13.93 9.13 C 13.5 9.53 13.1 9.26 12.1 9.16 C 12.4 8.93 12.7 8.8 13 8.5 C 13.1 8.47 13.13 8.45 13.2 8.45 z M 14.1 9.54 C 14.6 9.5 15.8 10.1 15.37 10.1 C 14.9 10.1 14.4 10.57 13.93 10.57 C 13.45 10.57 13.64 9.9 13.93 9.6 C 13.96 9.57 14 9.55 14.1 9.54 z M 13.45 9.6 C 13.7 9.6 13.1 9.9 12.73 10.33 C 12.37 10.75 12 11.53 11.77 11.3 C 11.53 11.05 12 10.57 12.5 10.1 C 12.97 9.6 12.97 9.6 13.45 9.6 z M 15.84 10.2 C 16.1 10.2 16.3 10.33 16.3 10.57 C 16.3 11.05 15.37 11.05 15.37 10.57 C 15.37 10.33 15.6 10.2 15.84 10.2 z M 13.45 11.04 L 14.9 11.04 C 14.9 11.04 14.4 11.53 13.93 11.53 C 13.45 11.53 12.97 11.04 13.45 11.04 z M 39.8 13.44 C 40 13.7 40.17 14 40.34 14.27 C 39.43 14 39.4 13.84 39.8 13.44 z M 5.4 22.5 C 6.1 22.57 6.53 23.5 7.2 23.5 C 8.17 23.5 9.13 24.5 9.13 24.96 C 9.13 25.44 10.57 26.4 11.05 26.4 C 11.53 26.4 11.9 25.46 12.5 26.9 C 13.07 28.3 11.05 29.3 11.05 29.76 C 11.05 30.24 11.3 30.24 11.3 30.7 C 11.3 31.2 11.03 31.2 11.05 31.7 C 11.06 32.17 11.53 32.16 12 33.1 C 12.5 34.07 12.97 35.5 13.45 36 C 13.93 36.47 15.36 36.47 15.84 37.43 C 16.16 38.06 16.27 40.05 16.3 41.4 C 9.64 38.45 5 31.8 5 24 C 5 23.5 5 23.03 5.06 22.55 C 5.2 22.5 5.3 22.5 5.4 22.5 z " fill="currentColor" opacity=".6"/><path class="ColorScheme-Background" d="M 24,4 C 12.9,4 4,12.9 4,24 4,35.1 12.9,44 24,44 35.1,44 44,35.1 44,24 44,12.9 35.1,4 24,4 Z m 0,0.5 c .1,0 .2,.03 .3,.03 l .1,.56 c .06,.4 .33,.86 .85,1.1 .33,.17 .3,.23 .27,.43 -0,.07 -.1,.15 -.13,.23 -0,-0 -0,-.06 -.05,-.07 -.13,-.1 -.25,-.1 -.35,-.1 -.4,0 -.7,.23 -.8,.3 -.14,.1 -.2,.16 -.6,.16 -.3,0 -.47,-0 -.7,.14 -.05,.03 -.07,.1 -.1,.15 -.03,-.03 -.03,-.04 -.07,-.07 C 22.5,7.3 22.3,7.2 22.1,7.2 c -.3,0 -.5,0 -.7,.13 -.1,.06 -.24,.17 -.3,.34 -.06,.17 -.03,.36 .03,.5 .1,.16 .2,.2 .3,.27 -.05,.06 -.07,.1 -.1,.14 -.16,.2 -.33,.36 -.4,.7 -.04,.15 -0,.43 .15,.6 -0,0 -.04,0 -.06,.03 C 20.93,9.84 20.94,9.8 20.9,9.74 20.8,9.6 20.6,9.5 20.46,9.47 c -.3,-.06 -.55,0 -.94,.14 -1.4,.47 -1.7,1.4 -1.65,1.54 -.04,0 -.14,.03 -.3,.04 -.3,.03 -.74,.1 -1.1,.46 -.5,.5 -.7,.85 -.8,1.1 -.1,.24 -.2,.4 -.63,.83 -.4,.4 -.64,.5 -1,.6 -.36,.1 -.86,.3 -1.4,.84 -.74,.74 -.77,1.5 -.7,2.04 -.07,-.3 -.17,-.63 -.44,-.83 -.35,-.26 -.8,-.4 -1.4,-.4 -.56,0 -.95,.17 -1.2,.3 -.23,.15 -.2,.16 -.26,.16 -.04,3.15e-4 -.24,-.07 -.5,-.2 -.25,-.1 -.55,-.3 -.95,-.3 -.5,0 -.84,.3 -1.1,.53 l -.1,.1 C 7.13,13.77 8.86,11.46 10.97,9.55 L 12.06,9.66 c .05,0 .1,0 .13,0 -0,0 -.04,.03 -.06,.05 -.24,.24 -.5,.5 -.7,.75 -.1,.13 -.2,.27 -.23,.47 -.04,.2 0,.5 .2,.7 .1,.1 .27,.2 .43,.2 .17,0 .3,-.05 .4,-.1 .2,-.1 .27,-.24 .37,-.36 .07,-.1 .1,-.16 .2,-.26 -0,.1 -0,.24 0,.3 .05,.1 .1,.17 .17,.23 .24,.24 .55,.4 .95,.4 .4,0 .7,-.2 .94,-.3 .2,-.15 .4,-.3 .4,-.3 l .1,-.13 c .6,.3 1.46,.07 1.46,-.7 0,-.3 -.2,-.55 -.37,-.7 -.2,-.13 -.4,-.2 -.6,-.2 -0,0 -0,0 -0,0 -.03,-.03 -.05,-.07 -.1,-.1 C 15.6,9.5 15.46,9.4 15.3,9.34 15.03,9.23 14.73,9.2 14.43,9.14 c .04,-.1 .13,-.17 .1,-.3 -0,-.25 -.14,-.46 -.3,-.6 C 13.96,8 13.57,7.9 13.15,7.95 c -.1,0 -.2,.03 -.2,.03 l -.1,0 c 1,-.7 2.04,-1.27 3.15,-1.77 l -0,.26 c -0,.16 -.03,.37 .04,.6 .04,.13 .1,.27 .24,.4 .14,.1 .34,.2 .53,.2 .2,0 .4,-.06 .57,-.17 .16,-.1 .25,-.24 .3,-.35 .15,-.2 .24,-.4 .4,-.6 .13,-.13 .4,-.25 .74,-.4 L 18.56,5.36 C 20.3,4.86 22.1,4.5 24,4.5 Z m .86,.5 c 5.3,.23 10.03,2.6 13.33,6.3 -.03,.1 -.27,.7 -.27,1.14 0,.5 -0,.96 .5,.96 .96,0 .43,1.2 0,1.44 -.96,.5 -.96,.96 -.96,1.44 0,.5 -.96,.7 -1.44,1.2 -.7,.7 -.55,.6 -.96,1.2 -.2,.27 -.25,.5 -.5,.96 -.5,.96 0,.5 0,.96 0,.5 -6.78e-4,1.44 -.5,2.4 -.5,.96 1.44,1.9 1.44,2.4 0,.5 .5,.95 1.9,1.9 .46,.3 1.9,0 2.9,0 .76,0 1.5,-.6 2.5,-.84 -1.2,9 -8.65,16 -17.9,16.46 .2,-.24 .37,-.5 .5,-.74 .5,-.96 .15,-1.26 .5,-1.9 .33,-.66 1.9,-.5 2.4,-1.44 .5,-.96 .96,-1.44 .96,-2.9 0,-1.44 1.44,-1.44 1.44,-3.84 -.5,-.5 -1.9,-1.44 -2.4,-1.44 -.5,0 -2.9,-.5 -3.36,-.96 -.5,-.5 -1.44,-2.9 -2.4,-2.9 -.96,0 -1.44,-6.79e-4 -1.9,-.5 -.5,-.5 -1.44,-1.44 -3.84,-1.9 -2.4,-.5 -3.36,-0 -3.36,.5 0,.5 -1.9,.5 -2.4,.5 -.5,0 -.96,-.5 -.96,-.96 0,-.5 .5,-1.44 0,-1.9 -.5,-.5 -1.44,.5 -1.9,0 -.5,-.5 .96,-1.44 .96,-2.4 -1.44,0 -1.44,.5 -1.9,.96 -.5,.5 -.96,.5 -1.44,.5 -.24,0 -.4,-.23 -.56,-.46 .23,-1.54 .65,-3 1.2,-4.4 .23,-.2 .5,-.4 .8,-.4 .5,0 1,.5 1.44,.5 .44,-0 .5,-.5 1.44,-.5 .96,0 1.44,.5 1.44,.96 0,.5 .5,.5 .96,.5 0,-.5 -.5,-1.44 .5,-2.4 .96,-.96 1.44,-.5 2.4,-1.44 .96,-.96 .5,-.96 1.44,-1.9 .5,-.5 1.14,-.2 1.44,-.5 .3,-.3 8.1e-5,-.96 1.44,-1.44 1.44,-.5 .5,.5 .96,.5 .5,-.5 2.9,-.5 2.4,-1.44 -.5,0 -.5,.5 -1.44,.5 -.96,0 .96,-1.44 .5,-1.44 -.5,0 -.96,-.5 0,-.5 .4,0 .33,.6 .96,.5 C 23.33,8.1 22.56,7.7 23.5,7.7 c .96,0 .96,-.5 1.44,-.5 .5,0 -.96,1.44 -.96,1.44 0,0 1.44,.5 1.9,.5 .5,0 .5,-.5 0,-.96 -.5,-.5 -.96,0 -.5,-.5 .5,-.5 .96,-1.44 0,-1.9 C 25.04,5.57 24.9,5.3 24.86,5 Z m -6.2,.74 c -.3,.1 -.66,.25 -.9,.5 -.5,.5 -.5,.96 -.96,.96 -.33,0 -.34,-.4 -.3,-.67 .7,-.3 1.43,-.56 2.2,-.8 z M 25,8.3 c .04,0 .1,.1 .1,.1 .16,.04 .17,0 .2,0 .1,-3.16e-4 .1,-.03 .24,.1 0,0 0,0 0,.04 -.2,-.04 -.4,-.07 -.67,-.15 -0,-0 -0,-0 -0,-0 C 24.95,8.35 24.95,8.35 25,8.3 Z M 13.2,8.45 c .65,-.04 1.1,.3 .74,.7 -.4,.4 -.83,.13 -1.8,.04 .3,-.24 .6,-.46 .9,-.7 .05,-0 .1,-0 .16,-.03 z m .9,1.1 c .5,-.04 1.7,.54 1.3,.54 -.5,0 -.96,.5 -1.44,.5 -.5,0 -.3,-.7 0,-.96 .04,-.04 .1,-.05 .16,-.06 z m 1.3,.04 c -.04,0 -.06,.03 -.1,.03 0,-0 0,-0 0,-0 .06,-0 .1,-0 .1,-0 z m -1.9,0 c .24,0 -.36,.3 -.7,.7 -.36,.4 -.7,1.2 -.96,.96 -.24,-.24 .24,-.7 .7,-1.2 .5,-.5 .5,-.5 .96,-.5 z m 2.4,.6 c .24,0 .5,.1 .5,.36 0,.5 -.96,.5 -.96,0 0,-.24 .24,-.36 .5,-.36 z m -2.6,.34 c 0,0 0,0 0,.04 -0,0 -.04,0 -.06,0 0,-0 .04,-.03 .05,-.05 z m .2,0.5 h 1.44 c 0,0 -.5,.5 -.96,.5 -.5,0 -.96,-.5 -.5,-.5 z m 25.3,.3 c .4,.45 .8,.9 1.14,1.4 l -.4,.4 c -.1,.1 -.15,.17 -.2,.27 -.2,-.24 -.5,-.36 -.8,-.4 -0,-.06 -.03,-.25 -.03,-.5 0,-.27 .2,-.9 .24,-.96 z m 1.1,2.1 c .2,.27 .35,.54 .5,.8 -.9,-.26 -.93,-.43 -.5,-.8 z m -.47,.9 c .1,.07 .16,.17 .25,.2 .17,.1 .36,.14 .6,.2 l 1.05,.3 C 42.64,17.74 43.5,20.75 43.5,24 c 0,.64 -.13,1.25 -.2,1.9 l -.6,.15 c -1.1,.3 -1.9,.8 -2.4,.8 -.53,0 -1.14,.1 -1.66,.1 -.26,0 -.5,.03 -.67,0 -.2,-0 -.3,-.06 -.26,-.05 -.7,-.5 -1.17,-.83 -1.43,-1.1 -.25,-.25 -.3,-.35 -.3,-.4 0,-.23 -.1,-.37 -.17,-.5 -.1,-.1 -.17,-.2 -.27,-.3 -.2,-.2 -.4,-.4 -.6,-.6 -.2,-.2 -.35,-.4 -.4,-.53 -.07,-.14 -.07,-.2 -.03,-.27 .54,-1.1 .53,-2.14 .53,-2.6 0,-.16 -.1,-.3 -.17,-.46 0,-.06 .04,-.1 .1,-.3 .25,-.5 .3,-.7 .44,-.9 .43,-.6 .2,-.4 .9,-1.13 .15,-.15 .5,-.33 .8,-.5 .16,-.1 .33,-.2 .5,-.35 .15,-.15 .3,-.4 .3,-.7 0,-.24 0,-.4 .07,-.5 .06,-.1 .2,-.3 .6,-.5 .24,-.1 .4,-.3 .5,-.5 .1,-.15 .16,-.34 .2,-.5 z M 8.3,20.83 C 8.2,21 8.2,21.1 8.06,21.25 c -.15,.2 -.3,.4 -.4,.7 -.05,.13 -.1,.3 -.1,.47 0,.2 .1,.4 .24,.5 .24,.24 .6,.3 .83,.3 .25,-0 .46,-.1 .64,-.16 .2,-.06 .33,-.1 .4,-.1 .1,-0 .04,-0 .04,-0 .06,.06 .1,.2 .04,.5 -.05,.3 -.2,.64 -.2,1.04 0,.3 .17,.5 .3,.7 -.06,-.05 -.13,-.1 -.17,-.15 -.1,-.1 -.1,-.2 -.1,-.1 0,-.3 -.1,-.5 -.25,-.7 -.14,-.2 -.3,-.4 -.53,-.6 -.43,-.36 -1,-.66 -1.64,-.66 -.1,0 -.3,-.1 -.57,-.36 -.2,-.2 -.47,-.43 -.8,-.56 .5,-0 1.16,-.05 1.74,-.6 .3,-.3 .4,-.5 .54,-.6 0,-0 .14,-0 .17,-.03 z m -3.5,.54 0,.03 c .1,.14 .2,.3 .33,.43 .07,.07 .17,.13 .3,.2 -.16,-0 -.3,0 -.47,.06 l -.23,.07 c 0,-.26 .04,-.5 .1,-.8 z m .63,1.15 c .7,.06 1.14,1 1.8,1 .96,0 1.9,.96 1.9,1.44 0,.5 1.44,1.44 1.9,1.44 .5,0 .86,-.94 1.44,.5 .6,1.4 -1.44,2.4 -1.44,2.9 0,.5 .24,.5 .24,.96 0,.5 -.26,.47 -.24,.96 0,.5 .5,.5 .96,1.44 .5,.96 .96,2.4 1.44,2.9 .5,.5 1.9,.5 2.4,1.44 .3,.63 .43,2.6 .47,3.96 C 9.64,38.45 5,31.8 5,24 c 0,-.5 0,-.97 .06,-1.45 .1,-.04 .23,-.05 .34,-.04 z M 15.25,24.8 c .4,0 .9,.07 1.46,.2 2.4,.46 3.1,1.3 3.6,1.8 .3,.3 .66,.5 1.04,.56 .4,.1 .76,.07 1.24,.07 .03,0 .17,.05 .36,.24 .2,.2 .4,.5 .6,.8 .2,.3 .4,.65 .57,.95 .2,.3 .3,.54 .5,.75 .24,.24 .5,.34 .84,.47 .33,.1 .7,.23 1.07,.3 .37,.1 .74,.17 1.05,.2 .3,.05 .54,.1 .75,.1 -.05,0 .1,.03 .3,.1 .2,.1 .4,.2 .64,.35 .37,.23 .67,.5 .9,.67 -.05,.9 -.25,1.4 -.56,1.8 -.34,.45 -.8,.97 -.8,1.86 0,1.33 -.4,1.64 -.9,2.66 -.14,.27 -.5,.4 -.96,.6 -.24,.1 -.5,.15 -.75,.26 -.25,.1 -.53,.3 -.7,.6 -.2,.4 -.2,.8 -.23,1.04 -0,.26 -.03,.46 -.24,.9 -.1,.2 -.26,.43 -.44,.66 l -.64,.8 c -2.5,-0 -4.9,-.5 -7.07,-1.4 l -.03,-.74 c -0,-.7 -.06,-1.5 -.14,-2.3 -.1,-.76 -.15,-1.4 -.4,-1.9 -.33,-.66 -.96,-.95 -1.47,-1.14 -.5,-.2 -.96,-.36 -1,-.43 -.1,-.1 -.4,-.6 -.6,-1.1 -.23,-.53 -.47,-1.13 -.73,-1.64 -.27,-.54 -.57,-.85 -.75,-1.03 -.1,-.1 -.14,-.14 -.15,-.16 -0,-0 -0,-8.33e-4 -0,-.04 -0,-.16 -0,-.1 .06,-.23 .06,-.1 .2,-.4 .2,-.7 0,-.3 -.1,-.6 -.17,-.7 -.05,-.1 -.05,-.13 -.05,-.2 .03,-.04 .1,-.1 .15,-.16 .16,-.17 .4,-.4 .65,-.65 .24,-.27 .5,-.6 .6,-.97 .14,-.4 .16,-.87 -.03,-1.34 -.15,-.37 -.3,-.6 -.5,-.8 0,-0 0,-3.2e-4 .04,-0 .3,-.03 .57,-.1 .83,-.17 .13,-.05 .25,-.1 .4,-.2 .1,-.1 .24,-.3 .25,-.5 0,-2.04e-4 -0,0 0,-0 .04,-.03 .17,-.1 .4,-.15 .2,-.05 .5,-.07 .9,-.06 z" fill="currentColor" opacity=".6"/></g><use href="#uzE" opacity=".4"></use><use class="toggle-flat-design" fill="url(#uzC)" href="#uzE" opacity=".2"></use><path class="toggle-flat-design" d="m 42,24 c -6,0 -6,4 -12,4 H 10 c -2.2,0 -4,1.8 -4,4 v 48 c 0,2.2 1.8,4 4,4 h 76 c 2.2,0 4,-1.8 4,-4 V 50 32 28 c 0,-2.2 -1.8,-4 -4,-4 z" fill="url(#uzB)" opacity=".2"/><path class="folder-crease " d="m 6,66 v 3 h 13.5 c .83,0 1.5,-.67 1.5,-1.5 0,-.83 -.67,-1.5 -1.5,-1.5 z m 70.5,0 c -.83,0 -1.5,.67 -1.5,1.5 0,.83 .67,1.5 1.5,1.5 H 90 v -3 z" opacity=".4"/><path class="ColorScheme-Text" d="m 6,79 v 1 c 0,2.2 1.8,4 4,4 h 76 c 2.2,0 4,-1.8 4,-4 v -1 c 0,2.2 -1.8,4 -4,4 H 10 C 7.8,83 6,81.2 6,79 Z" fill="currentColor" opacity=".1"/><path class="ColorScheme-Text" d="M 6,79.5 V 80 c 0,2.2 1.8,4 4,4 h 76 c 2.2,0 4,-1.8 4,-4 v -0.5 c 0,2.2 -1.8,4 -4,4 H 10 c -2.2,0 -4,-1.8 -4,-4 z" fill="currentColor" opacity=".2"/><path d="m 42,24 c -6,0 -6,4 -12,4 H 10 c -2.2,0 -4,1.8 -4,4 v 1 c 0,-2.2 1.8,-4 4,-4 h 20 c 6,0 6,-4 12,-4 h 44 c 2.2,0 4,1.8 4,4 v -1 c 0,-2.2 -1.8,-4 -4,-4 z" fill="#fff" opacity=".1"/><path d="m 42,24 c -6,0 -6,4 -12,4 H 10 c -2.2,0 -4,1.8 -4,4 v 0.5 c 0,-2.2 1.8,-4 4,-4 h 20 c 6,0 6,-4 12,-4 h 44 c 2.2,0 4,1.8 4,4 V 28 c 0,-2.2 -1.8,-4 -4,-4 z" fill="#fff" opacity=".2"/><path d="m 42,23 c -6,0 -6,4 -12,4 H 10 v 1 h 20 c 6,0 6,-4 12,-4 h 44 v -1 z" opacity=".1"/><path d="m 42,23.5 c -6,0 -6,4 -12,4 H 10 V 28 h 20 c 6,0 6,-4 12,-4 h 44 v -0.5 z" opacity=".2"/></g>
</svg>