<svg height="96" version="1.1" width="96" xmlns="http://www.w3.org/2000/svg" xmlns:svg="http://www.w3.org/2000/svg" xmlns:xlink="http://www.w3.org/1999/xlink">
<defs id="primary-definitions">
<style id="current-color-scheme" type="text/css">
      .ColorScheme-Text         { color: #232629; }
      .ColorScheme-Background   { color: #eff0f1; }
      .ColorScheme-Highlight    { color: #7ec9f0; }
      .ColorScheme-PositiveText { color: #27ae60; }
      .ColorScheme-NeutralText  { color: #f67400; }
      .ColorScheme-NegativeText { color: #da4453; }
      .ColorScheme-ActiveText   { color: #3daee9; }
      .ColorScheme-Complement   { color: #ffffff; }
      .ColorScheme-Contrast     { color: #000000; }
    </style>
<style id="extended-color-scheme" type="text/css">
      .ExScheme-Black     { color:#3e3e3e; }
      .ExScheme-White     { color:#fcfcfc; }
      .ExScheme-Grey-1    { color:#cfd5d5; }
      .ExScheme-Grey-2    { color:#909c9c; }
      .ExScheme-Grey-3    { color:#536161; }
      .ExScheme-Red-1     { color:#ffafa5; }
      .ExScheme-Red-2     { color:#bf4231; }
      .ExScheme-Red-3     { color:#4d2f2b; }
      .ExScheme-Green-1   { color:#abf9c7; }
      .ExScheme-Green-2   { color:#3bb566; }
      .ExScheme-Green-3   { color:#377d50; }
      .ExScheme-Blue-1    { color:#abdaf9; }
      .ExScheme-Blue-2    { color:#3daefd; }
      .ExScheme-Blue-3    { color:#2b3c4d; }
      .ExScheme-Yellow-1  { color:#faffa5; }
      .ExScheme-Yellow-2  { color:#cac726; }
      .ExScheme-Yellow-3  { color:#4b4d2b; }
      .ExScheme-Orange-1  { color:#ffdaa5; }
      .ExScheme-Orange-2  { color:#ff9701; }
      .ExScheme-Orange-3  { color:#4d372b; }
      .ExScheme-Brown-1   { color:#e9d6bb; }
      .ExScheme-Brown-2   { color:#997657; }
      .ExScheme-Brown-3   { color:#433a35; }
      .ExScheme-Purple-1  { color:#e2abf9; }
      .ExScheme-Purple-2  { color:#b401ff; }
      .ExScheme-Purple-3  { color:#432b4d; }
      .ExScheme-Cyan-1    { color:#b2f2e6; }
      .ExScheme-Cyan-2    { color:#31bfa6; }
      .ExScheme-Cyan-3    { color:#2b4d47; }
      .ExScheme-Magenta-1 { color:#f8a6d8; }
      .ExScheme-Magenta-2 { color:#f00091; }
      .ExScheme-Magenta-3 { color:#770048; }
    </style>
<linearGradient id="uSx">
<stop offset="0"/>
<stop offset="1" stop-opacity="0"/>
</linearGradient>
<linearGradient id="uSy">
<stop offset="0" stop-color="#fff"/>
<stop offset="1" stop-color="#fff" stop-opacity="0"/>
</linearGradient>
<style id="uSz" type="text/css">
        .force-display-for-editing { display: inline !important; }
    </style><style class="remove-if__show-crease" type="text/css">
        .enable-if__show-crease { display: none; }
    </style><style class="remove-if__color-sync-mimes-places" type="text/css">
        .enable-if__color-sync-mimes-places { display: none; }
    </style><radialGradient cx=".5" cy="0" id="uSA" r="1" xlink:href="#uSy"/><linearGradient id="uSB" xlink:href="#uSx" y1="1" y2=".5"/><style class="ColorScheme-Background" fill="currentColor" opacity=".6" type="text/css">
   .ColorScheme-Text           { color:#eff0f1; }
      .ColorScheme-Background     { color:#31363b; }
      .ColorScheme-Highlight      { color:#3daefd; }
      .ColorScheme-ViewBackground { color:#fcfcfc; }
      .ColorScheme-PositiveText   { color:#27ae60; }
      .ColorScheme-NeutralText    { color:#f67400; }
      .ColorScheme-NegativeText   { color:#da4453; }
  </style><path d="m 14,12 c -2.2,0 -4,1.8 -4,4 v 4 8 c -2.2,0 -4,1.8 -4,4 v 48 c 0,2.2 1.8,4 4,4 h 76 c 2.2,0 4,-1.8 4,-4 V 50 32 28 c 0,-2.2 -1.8,-4 -4,-4 v -4 c 0,-2.2 -1.8,-4 -4,-4 H 42 c -6,0 -6,-4 -12,-4 z" id="uSC"></path><path d="m 14,12 c -2.2,0 -4,1.8 -4,4 v 4 8 h 20 c 6,0 6,-4 12,-4 h 44 v -4 c 0,-2.2 -1.8,-4 -4,-4 H 42 c -6,0 -6,-4 -12,-4 z" id="uSD"></path></defs>
<g id="content" transform="translate(0,0)"><use class="sync-color enable-if__color-sync-mimes-places force-display-for-editing ColorScheme-ActiveText" fill="currentColor" href="#uSC"></use><use class="primary-color remove-if__color-sync-mimes-places ColorScheme-ActiveText" fill="currentColor" href="#uSC"></use><use class="ColorScheme-Contrast" fill="currentColor" href="#uSC" opacity=".1"></use><g id="panorama" transform="translate(6,24)"><path class="ColorScheme-Background" d="m 9,13 c -.55,0 -1,.45 -1,1 v 46 h 2 c 0,-.65 .45,-1 1,-1 h 2 c .55,0 1,.37 1,1 h 2 v -2 c 0,-1.1 .9,-2 2,-2 h 48 c 1.1,0 2,.9 2,2 v 2 h 2 c 0,-.57 .45,-1 1,-1 h 2 c .55,0 1,.44 1,1 h 2 V 14 c 0,-.55 -.45,-1 -1,-1 -.55,0 -1,.45 -1,1 0,.55 -.45,1 -1,1 h -2 c -.55,0 -1,-.45 -1,-1 0,-.55 -.45,-1 -1,-1 -.55,0 -1,.54 -1,1 0,1.2 -.9,2 -2,2 H 18 c -.85,0 -2,-.6 -2,-2 0,-.6 -.45,-1 -1,-1 -.55,0 -1,.45 -1,1 0,.55 -.45,1 -1,1 h -2 c -.55,0 -1,-.45 -1,-1 0,-.55 -.45,-1 -1,-1 z m 2,4 h 2 c .55,0 1,.45 1,1 v 2 c 0,.55 -.45,1 -1,1 h -2 c -.55,0 -1,-.45 -1,-1 v -2 c 0,-.55 .45,-1 1,-1 z m 60,0 h 2 c .55,0 1,.45 1,1 v 2 c 0,.55 -.45,1 -1,1 h -2 c -.55,0 -1,-.45 -1,-1 v -2 c 0,-.55 .45,-1 1,-1 z m -53,1 h 48 c 1.1,0 2,.9 2,2 v 32 c 0,1.1 -.9,2 -2,2 H 18 c -1.1,0 -2,-.9 -2,-2 V 20 c 0,-1.1 .9,-2 2,-2 z m 0,1 c -.55,0 -1,.45 -1,1 v 32 c 0,.55 .45,1 1,1 h 48 c .55,0 1,-.45 1,-1 V 20 c 0,-.55 -.45,-1 -1,-1 z m -7,4 h 2 c .55,0 1,.45 1,1 v 2 c 0,.55 -.45,1 -1,1 h -2 c -.55,0 -1,-.45 -1,-1 v -2 c 0,-.55 .45,-1 1,-1 z m 60,0 h 2 c .55,0 1,.45 1,1 v 2 c 0,.55 -.45,1 -1,1 h -2 c -.55,0 -1,-.45 -1,-1 v -2 c 0,-.55 .45,-1 1,-1 z m -60,6 h 2 c .55,0 1,.45 1,1 v 2 c 0,.55 -.45,1 -1,1 h -2 c -.55,0 -1,-.45 -1,-1 v -2 c 0,-.55 .45,-1 1,-1 z m 60,0 h 2 c .55,0 1,.45 1,1 v 2 c 0,.55 -.45,1 -1,1 h -2 c -.55,0 -1,-.45 -1,-1 v -2 c 0,-.55 .45,-1 1,-1 z m -60,6 h 2 c .55,0 1,.45 1,1 v 2 c 0,.55 -.45,1 -1,1 h -2 c -.55,0 -1,-.45 -1,-1 v -2 c 0,-.55 .45,-1 1,-1 z m 60,0 h 2 c .55,0 1,.45 1,1 v 2 c 0,.55 -.45,1 -1,1 h -2 c -.55,0 -1,-.45 -1,-1 v -2 c 0,-.55 .45,-1 1,-1 z m -60,6 h 2 c .55,0 1,.45 1,1 v 2 c 0,.55 -.45,1 -1,1 h -2 c -.55,0 -1,-.45 -1,-1 v -2 c 0,-.55 .45,-1 1,-1 z m 60,0 h 2 c .55,0 1,.45 1,1 v 2 c 0,.55 -.45,1 -1,1 h -2 c -.55,0 -1,-.45 -1,-1 v -2 c 0,-.55 .45,-1 1,-1 z m -60,6 h 2 c .55,0 1,.45 1,1 v 2 c 0,.55 -.45,1 -1,1 h -2 c -.55,0 -1,-.45 -1,-1 v -2 c 0,-.55 .45,-1 1,-1 z m 60,0 h 2 c .55,0 1,.45 1,1 v 2 c 0,.55 -.45,1 -1,1 h -2 c -.55,0 -1,-.45 -1,-1 v -2 c 0,-.55 .45,-1 1,-1 z m -60,6 h 2 c .55,0 1,.45 1,1 v 2 c 0,.55 -.45,1 -1,1 h -2 c -.55,0 -1,-.45 -1,-1 v -2 c 0,-.55 .45,-1 1,-1 z m 60,0 h 2 c .55,0 1,.45 1,1 v 2 c 0,.55 -.45,1 -1,1 h -2 c -.55,0 -1,-.45 -1,-1 v -2 c 0,-.55 .45,-1 1,-1 z m -53,4 c -.55,0 -1,.4 -1,1 v 2 h 50 v -2 c 0,-.55 -.45,-1 -1,-1 z" fill="currentColor" opacity=".6" stop-color="#000000" stroke-opacity=".96"/><path class="ColorScheme-Background" d="M 9 13 C 8.45 13 8 13.45 8 14 L 8 60 L 10 60 C 10 59.35 10.45 59 11 59 L 13 59 C 13.55 59 14 59.37 14 60 L 16 60 L 16 58 C 16 56.9 16.9 56 18 56 L 66 56 C 67.1 56 68 56.9 68 58 L 68 60 L 70 60 C 70 59.43 70.45 59 71 59 L 73 59 C 73.55 59 74 59.44 74 60 L 76 60 L 76 14 C 76 13.45 75.55 13 75 13 C 74.45 13 74 13.45 74 14 C 74 14.55 73.55 15 73 15 L 71 15 C 70.45 15 70 14.55 70 14 C 70 13.45 69.55 13 69 13 C 68.45 13 68 13.54 68 14 C 68 15.2 67.1 16 66 16 L 18 16 C 17.15 16 16 15.4 16 14 C 16 13.4 15.55 13 15 13 C 14.45 13 14 13.45 14 14 C 14 14.55 13.55 15 13 15 L 11 15 C 10.45 15 10 14.55 10 14 C 10 13.45 9.55 13 9 13 z M 9 13.5 C 9.3 13.5 9.5 13.7 9.5 14 C 9.5 14.8 10.2 15.5 11 15.5 L 13 15.5 C 13.8 15.5 14.5 14.8 14.5 14 C 14.5 13.7 14.7 13.5 15 13.5 C 15.3 13.5 15.5 13.63 15.5 14 C 15.5 14.83 15.87 15.5 16.36 15.9 C 16.85 16.3 17.45 16.5 18 16.5 L 66 16.5 C 67.34 16.5 68.5 15.46 68.5 14 C 68.5 13.94 68.55 13.8 68.66 13.67 C 68.76 13.56 68.9 13.5 69 13.5 C 69.3 13.5 69.5 13.7 69.5 14 C 69.5 14.8 70.2 15.5 71 15.5 L 73 15.5 C 73.8 15.5 74.5 14.8 74.5 14 C 74.5 13.7 74.7 13.5 75 13.5 C 75.3 13.5 75.5 13.7 75.5 14 L 75.5 59.5 L 74.3 59.5 C 74.07 58.95 73.63 58.5 73 58.5 L 71 58.5 C 70.4 58.5 69.93 58.94 69.7 59.5 L 68.5 59.5 L 68.5 58 C 68.5 56.6 67.4 55.5 66 55.5 L 18 55.5 C 16.6 55.5 15.5 56.6 15.5 58 L 15.5 59.5 L 14.3 59.5 C 14.2 59.3 14.2 59.05 14.05 58.9 C 13.77 58.63 13.4 58.5 13 58.5 L 11 58.5 C 10.6 58.5 10.24 58.6 9.95 58.9 C 9.8 59.04 9.8 59.3 9.8 59.5 L 8.5 59.5 L 8.5 14 C 8.5 13.7 8.7 13.5 9 13.5 z M 11 16.5 C 10.2 16.5 9.5 17.2 9.5 18 L 9.5 20 C 9.5 20.8 10.2 21.5 11 21.5 L 13 21.5 C 13.8 21.5 14.5 20.8 14.5 20 L 14.5 18 C 14.5 17.2 13.8 16.5 13 16.5 L 11 16.5 z M 71 16.5 C 70.2 16.5 69.5 17.2 69.5 18 L 69.5 20 C 69.5 20.8 70.2 21.5 71 21.5 L 73 21.5 C 73.8 21.5 74.5 20.8 74.5 20 L 74.5 18 C 74.5 17.2 73.8 16.5 73 16.5 L 71 16.5 z M 11 17 L 13 17 C 13.55 17 14 17.45 14 18 L 14 20 C 14 20.55 13.55 21 13 21 L 11 21 C 10.45 21 10 20.55 10 20 L 10 18 C 10 17.45 10.45 17 11 17 z M 71 17 L 73 17 C 73.55 17 74 17.45 74 18 L 74 20 C 74 20.55 73.55 21 73 21 L 71 21 C 70.45 21 70 20.55 70 20 L 70 18 C 70 17.45 70.45 17 71 17 z M 18 17.5 C 16.6 17.5 15.5 18.6 15.5 20 L 15.5 52 C 15.5 53.4 16.6 54.5 18 54.5 L 66 54.5 C 67.4 54.5 68.5 53.4 68.5 52 L 68.5 20 C 68.5 18.6 67.4 17.5 66 17.5 L 18 17.5 z M 18 18 L 66 18 C 67.1 18 68 18.9 68 20 L 68 52 C 68 53.1 67.1 54 66 54 L 18 54 C 16.9 54 16 53.1 16 52 L 16 20 C 16 18.9 16.9 18 18 18 z M 18 19 C 17.45 19 17 19.45 17 20 L 17 52 C 17 52.55 17.45 53 18 53 L 66 53 C 66.55 53 67 52.55 67 52 L 67 20 C 67 19.45 66.55 19 66 19 L 18 19 z M 18 19.5 L 66 19.5 C 66.3 19.5 66.5 19.7 66.5 20 L 66.5 52 C 66.5 52.3 66.3 52.5 66 52.5 L 18 52.5 C 17.7 52.5 17.5 52.3 17.5 52 L 17.5 20 C 17.5 19.7 17.7 19.5 18 19.5 z M 11 22.5 C 10.2 22.5 9.5 23.2 9.5 24 L 9.5 26 C 9.5 26.8 10.2 27.5 11 27.5 L 13 27.5 C 13.8 27.5 14.5 26.8 14.5 26 L 14.5 24 C 14.5 23.2 13.8 22.5 13 22.5 L 11 22.5 z M 71 22.5 C 70.2 22.5 69.5 23.2 69.5 24 L 69.5 26 C 69.5 26.8 70.2 27.5 71 27.5 L 73 27.5 C 73.8 27.5 74.5 26.8 74.5 26 L 74.5 24 C 74.5 23.2 73.8 22.5 73 22.5 L 71 22.5 z M 11 23 L 13 23 C 13.55 23 14 23.45 14 24 L 14 26 C 14 26.55 13.55 27 13 27 L 11 27 C 10.45 27 10 26.55 10 26 L 10 24 C 10 23.45 10.45 23 11 23 z M 71 23 L 73 23 C 73.55 23 74 23.45 74 24 L 74 26 C 74 26.55 73.55 27 73 27 L 71 27 C 70.45 27 70 26.55 70 26 L 70 24 C 70 23.45 70.45 23 71 23 z M 11 28.5 C 10.2 28.5 9.5 29.2 9.5 30 L 9.5 32 C 9.5 32.8 10.2 33.5 11 33.5 L 13 33.5 C 13.8 33.5 14.5 32.8 14.5 32 L 14.5 30 C 14.5 29.2 13.8 28.5 13 28.5 L 11 28.5 z M 71 28.5 C 70.2 28.5 69.5 29.2 69.5 30 L 69.5 32 C 69.5 32.8 70.2 33.5 71 33.5 L 73 33.5 C 73.8 33.5 74.5 32.8 74.5 32 L 74.5 30 C 74.5 29.2 73.8 28.5 73 28.5 L 71 28.5 z M 11 29 L 13 29 C 13.55 29 14 29.45 14 30 L 14 32 C 14 32.55 13.55 33 13 33 L 11 33 C 10.45 33 10 32.55 10 32 L 10 30 C 10 29.45 10.45 29 11 29 z M 71 29 L 73 29 C 73.55 29 74 29.45 74 30 L 74 32 C 74 32.55 73.55 33 73 33 L 71 33 C 70.45 33 70 32.55 70 32 L 70 30 C 70 29.45 70.45 29 71 29 z M 11 34.5 C 10.2 34.5 9.5 35.2 9.5 36 L 9.5 38 C 9.5 38.8 10.2 39.5 11 39.5 L 13 39.5 C 13.8 39.5 14.5 38.8 14.5 38 L 14.5 36 C 14.5 35.2 13.8 34.5 13 34.5 L 11 34.5 z M 71 34.5 C 70.2 34.5 69.5 35.2 69.5 36 L 69.5 38 C 69.5 38.8 70.2 39.5 71 39.5 L 73 39.5 C 73.8 39.5 74.5 38.8 74.5 38 L 74.5 36 C 74.5 35.2 73.8 34.5 73 34.5 L 71 34.5 z M 11 35 L 13 35 C 13.55 35 14 35.45 14 36 L 14 38 C 14 38.55 13.55 39 13 39 L 11 39 C 10.45 39 10 38.55 10 38 L 10 36 C 10 35.45 10.45 35 11 35 z M 71 35 L 73 35 C 73.55 35 74 35.45 74 36 L 74 38 C 74 38.55 73.55 39 73 39 L 71 39 C 70.45 39 70 38.55 70 38 L 70 36 C 70 35.45 70.45 35 71 35 z M 11 40.5 C 10.2 40.5 9.5 41.2 9.5 42 L 9.5 44 C 9.5 44.8 10.2 45.5 11 45.5 L 13 45.5 C 13.8 45.5 14.5 44.8 14.5 44 L 14.5 42 C 14.5 41.2 13.8 40.5 13 40.5 L 11 40.5 z M 71 40.5 C 70.2 40.5 69.5 41.2 69.5 42 L 69.5 44 C 69.5 44.8 70.2 45.5 71 45.5 L 73 45.5 C 73.8 45.5 74.5 44.8 74.5 44 L 74.5 42 C 74.5 41.2 73.8 40.5 73 40.5 L 71 40.5 z M 11 41 L 13 41 C 13.55 41 14 41.45 14 42 L 14 44 C 14 44.55 13.55 45 13 45 L 11 45 C 10.45 45 10 44.55 10 44 L 10 42 C 10 41.45 10.45 41 11 41 z M 71 41 L 73 41 C 73.55 41 74 41.45 74 42 L 74 44 C 74 44.55 73.55 45 73 45 L 71 45 C 70.45 45 70 44.55 70 44 L 70 42 C 70 41.45 70.45 41 71 41 z M 11 46.5 C 10.2 46.5 9.5 47.2 9.5 48 L 9.5 50 C 9.5 50.8 10.2 51.5 11 51.5 L 13 51.5 C 13.8 51.5 14.5 50.8 14.5 50 L 14.5 48 C 14.5 47.2 13.8 46.5 13 46.5 L 11 46.5 z M 71 46.5 C 70.2 46.5 69.5 47.2 69.5 48 L 69.5 50 C 69.5 50.8 70.2 51.5 71 51.5 L 73 51.5 C 73.8 51.5 74.5 50.8 74.5 50 L 74.5 48 C 74.5 47.2 73.8 46.5 73 46.5 L 71 46.5 z M 11 47 L 13 47 C 13.55 47 14 47.45 14 48 L 14 50 C 14 50.55 13.55 51 13 51 L 11 51 C 10.45 51 10 50.55 10 50 L 10 48 C 10 47.45 10.45 47 11 47 z M 71 47 L 73 47 C 73.55 47 74 47.45 74 48 L 74 50 C 74 50.55 73.55 51 73 51 L 71 51 C 70.45 51 70 50.55 70 50 L 70 48 C 70 47.45 70.45 47 71 47 z M 11 52.5 C 10.2 52.5 9.5 53.2 9.5 54 L 9.5 56 C 9.5 56.8 10.2 57.5 11 57.5 L 13 57.5 C 13.8 57.5 14.5 56.8 14.5 56 L 14.5 54 C 14.5 53.2 13.8 52.5 13 52.5 L 11 52.5 z M 71 52.5 C 70.2 52.5 69.5 53.2 69.5 54 L 69.5 56 C 69.5 56.8 70.2 57.5 71 57.5 L 73 57.5 C 73.8 57.5 74.5 56.8 74.5 56 L 74.5 54 C 74.5 53.2 73.8 52.5 73 52.5 L 71 52.5 z M 11 53 L 13 53 C 13.55 53 14 53.45 14 54 L 14 56 C 14 56.55 13.55 57 13 57 L 11 57 C 10.45 57 10 56.55 10 56 L 10 54 C 10 53.45 10.45 53 11 53 z M 71 53 L 73 53 C 73.55 53 74 53.45 74 54 L 74 56 C 74 56.55 73.55 57 73 57 L 71 57 C 70.45 57 70 56.55 70 56 L 70 54 C 70 53.45 70.45 53 71 53 z M 18 57 C 17.45 57 17 57.4 17 58 L 17 60 L 67 60 L 67 58 C 67 57.45 66.55 57 66 57 L 18 57 z M 18 57.5 L 66 57.5 C 66.3 57.5 66.5 57.7 66.5 58 L 66.5 59.5 L 17.5 59.5 L 17.5 58 C 17.5 57.67 17.7 57.5 18 57.5 z " fill="currentColor" opacity=".6"/></g><use href="#uSD" opacity=".4"></use><use fill="url(#uSB)" href="#uSD" opacity=".2"></use><path d="m 42,24 c -6,0 -6,4 -12,4 H 10 c -2.2,0 -4,1.8 -4,4 v 48 c 0,2.2 1.8,4 4,4 h 76 c 2.2,0 4,-1.8 4,-4 V 50 32 28 c 0,-2.2 -1.8,-4 -4,-4 z" fill="url(#uSA)" opacity=".2"/><path class="ColorScheme-Contrast" d="m 6,79 v 1 c 0,2.2 1.8,4 4,4 h 76 c 2.2,0 4,-1.8 4,-4 v -1 c 0,2.2 -1.8,4 -4,4 H 10 C 7.8,83 6,81.2 6,79 Z" fill="currentColor" opacity=".1"/><path class="ColorScheme-Contrast" d="M 6,79.5 V 80 c 0,2.2 1.8,4 4,4 h 76 c 2.2,0 4,-1.8 4,-4 v -0.5 c 0,2.2 -1.8,4 -4,4 H 10 c -2.2,0 -4,-1.8 -4,-4 z" fill="currentColor" opacity=".2"/><path d="m 42,24 c -6,0 -6,4 -12,4 H 10 c -2.2,0 -4,1.8 -4,4 v 1 c 0,-2.2 1.8,-4 4,-4 h 20 c 6,0 6,-4 12,-4 h 44 c 2.2,0 4,1.8 4,4 v -1 c 0,-2.2 -1.8,-4 -4,-4 z" fill="#fff" opacity=".1"/><path d="m 42,24 c -6,0 -6,4 -12,4 H 10 c -2.2,0 -4,1.8 -4,4 v 0.5 c 0,-2.2 1.8,-4 4,-4 h 20 c 6,0 6,-4 12,-4 h 44 c 2.2,0 4,1.8 4,4 V 28 c 0,-2.2 -1.8,-4 -4,-4 z" fill="#fff" opacity=".2"/><path d="m 42,23 c -6,0 -6,4 -12,4 H 10 v 1 h 20 c 6,0 6,-4 12,-4 h 44 v -1 z" opacity=".1"/><path d="m 42,23.5 c -6,0 -6,4 -12,4 H 10 V 28 h 20 c 6,0 6,-4 12,-4 h 44 v -0.5 z" opacity=".2"/></g>
</svg>