<svg height="96" version="1.1" width="96" xmlns="http://www.w3.org/2000/svg" xmlns:svg="http://www.w3.org/2000/svg" xmlns:xlink="http://www.w3.org/1999/xlink">
<defs id="primary-definitions">
<style id="current-color-scheme" type="text/css">
      .ColorScheme-Text           { color:#fff; }
      .ColorScheme-Background     { color:#111; }
      .ColorScheme-Highlight      { color:#3daefd; }
      .ColorScheme-ViewBackground { color:#000; }
      .ColorScheme-PositiveText   { color:#27ae60; }
      .ColorScheme-NeutralText    { color:#f67400; }
      .ColorScheme-NegativeText   { color:#da4453; }
    </style>
<style id="extended-color-scheme" type="text/css">
      .ExScheme-Black     { color:#3e3e3e; }
      .ExScheme-White     { color:#fcfcfc; }
      .ExScheme-Grey-1    { color:#cfd5d5; }
      .ExScheme-Grey-2    { color:#909c9c; }
      .ExScheme-Grey-3    { color:#536161; }
      .ExScheme-Red-1     { color:#ffafa5; }
      .ExScheme-Red-2     { color:#bf4231; }
      .ExScheme-Red-3     { color:#4d2f2b; }
      .ExScheme-Green-1   { color:#abf9c7; }
      .ExScheme-Green-2   { color:#3bb566; }
      .ExScheme-Green-3   { color:#377d50; }
      .ExScheme-Blue-1    { color:#abdaf9; }
      .ExScheme-Blue-2    { color:#3daefd; }
      .ExScheme-Blue-3    { color:#2b3c4d; }
      .ExScheme-Yellow-1  { color:#faffa5; }
      .ExScheme-Yellow-2  { color:#cac726; }
      .ExScheme-Yellow-3  { color:#4b4d2b; }
      .ExScheme-Orange-1  { color:#ffdaa5; }
      .ExScheme-Orange-2  { color:#ff9701; }
      .ExScheme-Orange-3  { color:#4d372b; }
      .ExScheme-Brown-1   { color:#e9d6bb; }
      .ExScheme-Brown-2   { color:#997657; }
      .ExScheme-Brown-3   { color:#433a35; }
      .ExScheme-Purple-1  { color:#e2abf9; }
      .ExScheme-Purple-2  { color:#b401ff; }
      .ExScheme-Purple-3  { color:#432b4d; }
      .ExScheme-Cyan-1    { color:#b2f2e6; }
      .ExScheme-Cyan-2    { color:#31bfa6; }
      .ExScheme-Cyan-3    { color:#2b4d47; }
      .ExScheme-Magenta-1 { color:#f8a6d8; }
      .ExScheme-Magenta-2 { color:#f00091; }
      .ExScheme-Magenta-3 { color:#770048; }
    </style>
<linearGradient id="uEl">
<stop offset="0"/>
<stop offset="1" stop-opacity="0"/>
</linearGradient>
<linearGradient id="uEm">
<stop offset="0" stop-color="#fff"/>
<stop offset="1" stop-color="#fff" stop-opacity="0"/>
</linearGradient>
<style class="toggle-enable-crease" type="text/css">
        .folder-crease { display: none; }
    </style><style class="toggle-manilla-folders" type="text/css">
        .folder-manilla { display: none; }
    </style><radialGradient cx=".5" cy="0" id="uEn" r="1" xlink:href="#uEm"/><linearGradient id="uEo" xlink:href="#uEl" y1="1" y2=".5"/><path d="m 14,12 c -2.2,0 -4,1.8 -4,4 v 4 8 c -2.2,0 -4,1.8 -4,4 v 48 c 0,2.2 1.8,4 4,4 h 76 c 2.2,0 4,-1.8 4,-4 V 50 32 28 c 0,-2.2 -1.8,-4 -4,-4 v -4 c 0,-2.2 -1.8,-4 -4,-4 H 42 c -6,0 -6,-4 -12,-4 z" id="uEp"></path><path d="m 14,12 c -2.2,0 -4,1.8 -4,4 v 4 8 h 20 c 6,0 6,-4 12,-4 h 44 v -4 c 0,-2.2 -1.8,-4 -4,-4 H 42 c -6,0 -6,-4 -12,-4 z" id="uEq"></path></defs>
<g id="content" transform="translate(0,0)"><use class="folder-manilla ExScheme-Brown-1" fill="currentColor" href="#uEp"></use><use class="toggle-manilla-folders ColorScheme-Highlight" fill="currentColor" href="#uEp" id="primary-color"></use><use class="ColorScheme-Text" fill="currentColor" href="#uEp" opacity=".1"></use><g id="emblem" transform="translate(24,32)"><path class="ColorScheme-Background" d="M 24 4 A 20 20 0 0 0 4 24 A 20 20 0 0 0 24 44 A 20 20 0 0 0 44 24 A 20 20 0 0 0 24 4 z M 25 5.03 A 19 19 0 0 1 42.97 23 A 1 1 0 0 0 42 24 A 1 1 0 0 0 42.93 25 A 19 19 0 0 1 25 42.93 A 1 1 0 0 0 24 42 A 1 1 0 0 0 23 42.93 A 19 19 0 0 1 5.07 25 A 1 1 0 0 0 6 24 A 1 1 0 0 0 5.07 23 A 19 19 0 0 1 23 5.07 A 1 1 0 0 0 24 6 A 1 1 0 0 0 25 5.03 z M 29.54 10.15 C 29.35 10.15 29.17 10.26 29.1 10.46 L 24.3 22 C 24.2 22 24.1 22 24 22 C 22.9 22 22 22.9 22 24 C 22 25.1 22.9 26 24 26 C 24.2 26 24.36 25.97 24.53 25.93 L 29.64 32.6 C 29.9 32.9 30.37 33 30.7 32.73 C 31.03 32.47 31.1 32 30.83 31.7 L 25.7 25 C 25.9 24.7 26 24.36 26 24 C 26 23.37 25.7 22.8 25.2 22.4 L 30 10.84 C 30.1 10.6 30 10.3 29.74 10.2 C 29.7 10.16 29.6 10.15 29.54 10.15 z " fill="currentColor" opacity=".6"/><path class="ColorScheme-Background" d="M 24,4 C 12.95,4 4,12.95 4,24 4,35.05 12.95,44 24,44 35.05,44 44,35.05 44,24 44,12.95 35.05,4 24,4 Z m 0,0.5 c .17,0 .33,.05 .5,.05 l -0,.46 c -0,.27 -.2,.47 -.5,.5 -.26,-0 -.47,-.2 -.5,-.46 l -.03,-.5 C 23.66,4.55 23.8,4.5 24,4.5 Z m 1,.53 C 34.7,5.53 42.47,13.3 42.97,23 42.44,23 42,23.46 42,24 c 0,.5 .4,.94 .93,1 -.5,9.7 -8.25,17.4 -17.94,17.95 C 24.96,42.4 24.5,42 24,42 23.5,42 23.06,42.4 23,42.93 13.33,42.4 5.6,34.67 5.07,25 5.6,24.94 6,24.5 6,24 6,23.5 5.6,23.04 5.07,23 5.6,13.3 13.34,5.6 23,5.07 23.06,5.6 23.5,6 24,6 24.54,6 25,5.56 25,5.03 Z m 4.55,5.1 c -.2,0 -.4,.1 -.46,.3 L 24.3,22 C 24.2,22 24.1,22 24,22 c -1.1,0 -2,.9 -2,2 0,1.1 .9,2 2,2 .2,-5.97e-4 .36,-.03 .53,-.07 l 5.1,6.66 c .25,.33 .7,.4 1.05,.14 .33,-.25 .4,-.7 .14,-1.05 L 25.7,25 C 25.9,24.7 26,24.36 26,24 26,23.37 25.7,22.8 25.2,22.4 l 4.8,-11.57 c .1,-.26 -0,-.55 -.27,-.65 -.06,-.03 -.13,-.04 -.2,-.04 z m -4.95,12.4 v 0 l .3,.23 C 25.3,23.1 25.5,23.53 25.5,24 c -0,.27 -.07,.53 -.2,.76 l -.17,.3 5.3,6.94 c .1,.1 .07,.26 -.04,.35 -.1,.1 -.26,.07 -.35,-.05 l -5.3,-6.93 -.33,.1 C 24.27,25.5 24.13,25.5 24,25.5 c -.83,0 -1.5,-.67 -1.5,-1.5 0,-.83 .67,-1.5 1.5,-1.5 .07,-1.7e-5 .14,0 .2,0 l .4,.05 z m -20.04,.9 .5,.03 c .26,0 .46,.23 .46,.5 -0,.26 -.2,.47 -.46,.5 l -.5,.03 C 4.55,24.34 4.5,24.2 4.5,24 c 0,-.2 .05,-.35 .05,-.53 z m 38.9,0 C 43.45,23.67 43.5,23.83 43.5,24 c 0,.2 -.05,.34 -.05,.5 l -.5,-.03 c -.26,-0 -.45,-.23 -.46,-.5 0,-.27 .2,-.5 .5,-.5 z m -19.45,19 c .26,0 .47,.2 .5,.46 l .03,.5 C 24.35,43.45 24.2,43.5 24,43.5 c -.2,0 -.34,-.05 -.5,-.05 l .03,-.5 c 0,-.26 .23,-.45 .5,-.46 z" fill="currentColor" opacity=".6"/></g><use href="#uEq" opacity=".4"></use><use class="toggle-flat-design" fill="url(#uEo)" href="#uEq" opacity=".2"></use><path class="toggle-flat-design" d="m 42,24 c -6,0 -6,4 -12,4 H 10 c -2.2,0 -4,1.8 -4,4 v 48 c 0,2.2 1.8,4 4,4 h 76 c 2.2,0 4,-1.8 4,-4 V 50 32 28 c 0,-2.2 -1.8,-4 -4,-4 z" fill="url(#uEn)" opacity=".2"/><path class="folder-crease " d="m 6,66 v 3 h 13.5 c .83,0 1.5,-.67 1.5,-1.5 0,-.83 -.67,-1.5 -1.5,-1.5 z m 70.5,0 c -.83,0 -1.5,.67 -1.5,1.5 0,.83 .67,1.5 1.5,1.5 H 90 v -3 z" opacity=".4"/><path class="ColorScheme-Text" d="m 6,79 v 1 c 0,2.2 1.8,4 4,4 h 76 c 2.2,0 4,-1.8 4,-4 v -1 c 0,2.2 -1.8,4 -4,4 H 10 C 7.8,83 6,81.2 6,79 Z" fill="currentColor" opacity=".1"/><path class="ColorScheme-Text" d="M 6,79.5 V 80 c 0,2.2 1.8,4 4,4 h 76 c 2.2,0 4,-1.8 4,-4 v -0.5 c 0,2.2 -1.8,4 -4,4 H 10 c -2.2,0 -4,-1.8 -4,-4 z" fill="currentColor" opacity=".2"/><path d="m 42,24 c -6,0 -6,4 -12,4 H 10 c -2.2,0 -4,1.8 -4,4 v 1 c 0,-2.2 1.8,-4 4,-4 h 20 c 6,0 6,-4 12,-4 h 44 c 2.2,0 4,1.8 4,4 v -1 c 0,-2.2 -1.8,-4 -4,-4 z" fill="#fff" opacity=".1"/><path d="m 42,24 c -6,0 -6,4 -12,4 H 10 c -2.2,0 -4,1.8 -4,4 v 0.5 c 0,-2.2 1.8,-4 4,-4 h 20 c 6,0 6,-4 12,-4 h 44 c 2.2,0 4,1.8 4,4 V 28 c 0,-2.2 -1.8,-4 -4,-4 z" fill="#fff" opacity=".2"/><path d="m 42,23 c -6,0 -6,4 -12,4 H 10 v 1 h 20 c 6,0 6,-4 12,-4 h 44 v -1 z" opacity=".1"/><path d="m 42,23.5 c -6,0 -6,4 -12,4 H 10 V 28 h 20 c 6,0 6,-4 12,-4 h 44 v -0.5 z" opacity=".2"/></g>
</svg>