<svg height="96" version="1.1" width="96" xmlns="http://www.w3.org/2000/svg" xmlns:svg="http://www.w3.org/2000/svg" xmlns:xlink="http://www.w3.org/1999/xlink">
<defs id="primary-definitions">
<style id="current-color-scheme" type="text/css">
      .ColorScheme-Text           { color:#fff; }
      .ColorScheme-Background     { color:#111; }
      .ColorScheme-Highlight      { color:#3daefd; }
      .ColorScheme-ViewBackground { color:#000; }
      .ColorScheme-PositiveText   { color:#27ae60; }
      .ColorScheme-NeutralText    { color:#f67400; }
      .ColorScheme-NegativeText   { color:#da4453; }
    </style>
<style id="extended-color-scheme" type="text/css">
      .ExScheme-Black     { color:#3e3e3e; }
      .ExScheme-White     { color:#fcfcfc; }
      .ExScheme-Grey-1    { color:#cfd5d5; }
      .ExScheme-Grey-2    { color:#909c9c; }
      .ExScheme-Grey-3    { color:#536161; }
      .ExScheme-Red-1     { color:#ffafa5; }
      .ExScheme-Red-2     { color:#bf4231; }
      .ExScheme-Red-3     { color:#4d2f2b; }
      .ExScheme-Green-1   { color:#abf9c7; }
      .ExScheme-Green-2   { color:#3bb566; }
      .ExScheme-Green-3   { color:#377d50; }
      .ExScheme-Blue-1    { color:#abdaf9; }
      .ExScheme-Blue-2    { color:#3daefd; }
      .ExScheme-Blue-3    { color:#2b3c4d; }
      .ExScheme-Yellow-1  { color:#faffa5; }
      .ExScheme-Yellow-2  { color:#cac726; }
      .ExScheme-Yellow-3  { color:#4b4d2b; }
      .ExScheme-Orange-1  { color:#ffdaa5; }
      .ExScheme-Orange-2  { color:#ff9701; }
      .ExScheme-Orange-3  { color:#4d372b; }
      .ExScheme-Brown-1   { color:#e9d6bb; }
      .ExScheme-Brown-2   { color:#997657; }
      .ExScheme-Brown-3   { color:#433a35; }
      .ExScheme-Purple-1  { color:#e2abf9; }
      .ExScheme-Purple-2  { color:#b401ff; }
      .ExScheme-Purple-3  { color:#432b4d; }
      .ExScheme-Cyan-1    { color:#b2f2e6; }
      .ExScheme-Cyan-2    { color:#31bfa6; }
      .ExScheme-Cyan-3    { color:#2b4d47; }
      .ExScheme-Magenta-1 { color:#f8a6d8; }
      .ExScheme-Magenta-2 { color:#f00091; }
      .ExScheme-Magenta-3 { color:#770048; }
    </style>
<linearGradient id="uIW">
<stop offset="0"/>
<stop offset="1" stop-opacity="0"/>
</linearGradient>
<linearGradient id="uIX">
<stop offset="0" stop-color="#fff"/>
<stop offset="1" stop-color="#fff" stop-opacity="0"/>
</linearGradient>
<linearGradient id="uIY">
<stop offset="0" stop-color="#909c9c"/>
<stop offset=".105" stop-color="#909c9c"/>
<stop offset=".5" stop-color="#b0b8b8"/>
<stop offset=".895" stop-color="#909c9c"/>
<stop offset="1" stop-color="#6f8181"/>
</linearGradient><linearGradient id="uIZ">
<stop offset="0" stop-color="#000000"/>
<stop offset="1" stop-color="#000000" stop-opacity="0"/>
</linearGradient><style class="toggle-enable-crease" type="text/css">
        .folder-crease { display: none; }
    </style><style class="toggle-manilla-folders" type="text/css">
        .folder-manilla { display: none; }
    </style><radialGradient cx=".5" cy="0" id="uJ0" r="1" xlink:href="#uIX"/><linearGradient id="uJ1" xlink:href="#uIW" y1="1" y2=".5"/><clipPath clipPathUnits="userSpaceOnUse" id="uJ2">
<rect height="900" width="1600" x="0" y="58.874992"/>
</clipPath><radialGradient cx="8" cy="32" fx="8" fy="32" gradientTransform="matrix(0,3.2,-1.6,0,99.1,-13.55)" gradientUnits="userSpaceOnUse" id="uJ3" r="22.54" xlink:href="#uIX"/><linearGradient gradientTransform="matrix(1.5,0,0,1.5,2.8e-4,2.95e-8)" gradientUnits="userSpaceOnUse" id="uJ4" x1="12.11" x2="20.39" xlink:href="#uIW" y1="32.02" y2="31.5"/><linearGradient gradientTransform="matrix(-1.5,0,0,1.5,96,2.95e-8)" gradientUnits="userSpaceOnUse" id="uJ5" x1="12.11" x2="20.39" xlink:href="#uIZ" y1="32.02" y2="31.5"/><linearGradient gradientTransform="matrix(1.5,0,0,1.5,2.8e-4,2.95e-8)" gradientUnits="userSpaceOnUse" id="uJ6" x1="13" x2="51" xlink:href="#uIY" y1="50" y2="50"/><path d="m 19.95,12 c -2.5,0 -4.7,2 -4.5,4.5 l 4.1,49.5 L 48,72 l 28.4,-6 4.1,-49.5 C 80.76,14 78.54,12 76.05,12 Z" id="uJ7" opacity=".4"></path></defs>
<g id="content" transform="translate(0,0)"><use class="ColorScheme-Text" fill="currentColor" href="#uJ7"></use><path class="ColorScheme-Text" d="m 19.95,12 c -2.5,0 -4.7,2 -4.5,4.5 l 4.1,49.5 2.9,3 .05,-3 -4.2,-49.5 C 18.24,14 20.46,12 22.95,12 Z m 53.1,0 c 2.5,0 4.7,2 4.5,4.5 l -4.2,49.5 .05,3 2.9,-3 4.1,-49.5 C 80.76,14 78.54,12 76.05,12 Z" fill="currentColor" opacity=".4"/><use class="ColorScheme-Text" fill="currentColor" href="#uJ7"></use><path d="m 19.6,66 1.13,13.5 c .2,2.5 2,4.5 4.5,4.5 h 45.6 c 2.5,0 4.3,-2 4.5,-4.5 L 76.4,66 Z" fill="url(#uJ6)" id="metal-cup"/><path class="ColorScheme-Background" d="m 35.1,48.9 c -.4,.73 -.73,1.8 -.73,2.5 0,.16 0,.36 .04,.64 l -5.05,-8.7 c -.16,-.3 -.3,-.7 -.3,-1.05 0,-.36 .1,-.8 .3,-1.1 l 2.4,-4.24 -2.7,-1.53 8.8,-.16 4.3,7.7 L 39.4,41.4 Z M 38.96,24.4 c .77,-1.33 2,-2.06 3.55,-2.06 1.66,0 2.95,.77 3.9,2.34 l 1.37,2.4 -4.76,8.24 -7.7,-4.5 z m .56,31.45 c -2.4,0 -4.2,-1.9 -4.2,-4.2 0,-.65 .3,-1.74 .7,-2.4 l 1.3,-2.4 h 9.57 v 8.9 H 39.5 Z M 47.2,24.2 C 46.6,23.13 45.8,22.4 44.8,22 h 9.93 c .9,0 1.57,.36 2,1.05 l 2.46,4.2 2.66,-1.6 -4.3,7.67 -8.76,-.1 2.7,-1.53 z m 15.3,22.85 c 1.2,0 2.2,-.3 3.07,-.97 l -5,8.7 c -.4,.7 -1.13,1.1 -2,1.1 h -4.73 v 3.1 l -4.5,-7.55 4.5,-7.55 v 3.15 h 8.64 z m 3.87,-7.27 c .36,.65 .57,1.33 .57,2.06 0,1.45 -.93,3 -2.2,3.7 -.6,.3 -1.46,.53 -2.4,.53 h -2.67 l -4.76,-8.24 7.7,-4.4 z" fill="currentColor" opacity=".6"/><path class="ColorScheme-Background" d="m 44.8,22 c .97,.4 1.8,1.13 2.4,2.2 l 4.3,7.5 -2.7,1.53 8.76,.1 4.3,-7.67 -2.66,1.6 -2.46,-4.2 C 56.3,22.36 55.63,22 54.74,22 Z m -2.4,.36 c -1.53,0 -2.8,.73 -3.55,2.06 l -3.67,6.34 7.7,4.5 4.77,-8.24 -1.37,-2.4 c -.93,-1.57 -2.2,-2.34 -3.9,-2.34 z m 3.6,0 h 8.63 c .8,0 1.3,.3 1.65,.86 l 2.66,4.53 1.77,-1.05 -3.47,6.23 -7.1,-.1 1.8,-1 -4.5,-7.85 c -.4,-.66 -.87,-1.17 -1.4,-1.6 z m -3.6,.36 c 1.54,0 2.67,.67 3.55,2.15 l 1.26,2.1 -4.46,7.7 -7.04,-4.1 3.5,-6 c .7,-1.23 1.8,-1.87 3.2,-1.87 z m 20.2,10.7 -7.7,4.4 4.76,8.24 h 2.67 c .85,0 1.7,-.2 2.4,-.53 1.3,-.73 2.2,-2.26 2.2,-3.7 0,-.73 -.2,-1.4 -.57,-2.06 z m -.14,.5 3.5,6 c .34,.6 .5,1.2 .5,1.87 0,1.3 -.87,2.7 -2,3.4 -.53,.3 -1.33,.5 -2.1,.5 h -2.45 l -4.46,-7.7 z m -24.7,1.33 -8.8,.16 2.7,1.53 -2.4,4.24 c -.16,.3 -.3,.7 -.3,1.1 0,.36 .1,.77 .3,1.05 l 5.05,8.7 c -.04,-.3 -.04,-.5 -.04,-.64 0,-.7 .3,-1.8 .73,-2.5 l 4.3,-7.47 2.74,1.57 z m -.2,.4 3.5,6.3 -1.87,-1.1 -4.5,7.8 -0,0 c -.35,.63 -.5,1.4 -.6,2.1 l -4.45,-7.66 c -.1,-.2 -.23,-.6 -.23,-.86 0,-.3 .1,-.7 .23,-.9 l 2.6,-4.6 -1.8,-1.03 z m 16.2,8.2 -4.5,7.55 4.5,7.55 v -3.1 h 4.73 c .85,0 1.57,-.4 2,-1.1 l 5,-8.7 c -.85,.64 -1.86,.97 -3.07,.97 h -8.64 z m -.4,1.4 v 2.14 h 8.64 .4 c .77,0 1.45,-.17 2.1,-.4 l -4.36,7.6 c -.34,.57 -.9,.9 -1.64,.9 h -5.1 v 2.1 l -3.7,-6.15 z m -16.17,1.67 -1.3,2.4 c -.4,.7 -.7,1.8 -.7,2.4 0,2.4 1.9,4.2 4.2,4.2 h 7.35 v -8.9 z m .23,.4 h 8.96 v 8.15 h -6.6 -.4 c -2.1,0 -3.8,-1.7 -3.8,-3.8 0,-.53 .3,-1.63 .63,-2.23 l 0,-0 z" fill="currentColor" opacity=".6"/><path d="m 19.95,12 c -2.5,0 -4.7,2 -4.5,4.5 l 5.25,63 C 20.9,82 22.7,84 25.2,84 H 36 V 12 Z" fill="url(#uJ4)" opacity=".2"/><path d="m 60,12 v 72 h 10.8 c 2.5,0 4.3,-2 4.5,-4.5 l 5.25,-63 C 80.76,14 78.54,12 76.05,12 Z" fill="url(#uJ5)" opacity=".2"/><path d="M 19.54 65.5 L 19.6 66 L 76.4 66 L 76.46 65.5 L 19.54 65.5 z " opacity=".2"/><path d="M 19.6 66 L 19.6 66.5 L 76.4 66.5 L 76.4 66 L 19.6 66 z " fill="#fff" opacity=".2"/><path class="ColorScheme-Text" d="M 19.95 12 C 17.5 12 15.3 14 15.45 16.45 C 15.6 14.2 17.65 12.5 19.95 12.5 L 76.05 12.5 C 78.35 12.5 80.4 14.2 80.55 16.44 C 80.7 14 78.5 12 76.05 12 L 19.95 12 z " fill="currentColor" opacity=".05"/><path class="ColorScheme-Text" d="M 20.57 77.87 L 20.7 79.5 C 20.9 82 22.7 84 25.2 84 L 70.8 84 C 73.3 84 75.1 82 75.3 79.5 L 75.43 77.87 C 75.4 77.97 75.4 78.06 75.37 78.16 L 75.3 79 C 75.1 81.5 73.3 83.5 70.8 83.5 L 25.2 83.5 C 22.7 83.5 20.9 81.5 20.7 79 L 20.63 78.16 C 20.6 78.06 20.6 77.97 20.57 77.87 z " fill="currentColor" opacity=".1"/><path class="ColorScheme-Text" d="m 19.95,12 c -2.5,0 -4.7,2 -4.5,4.5 l 0,.2 c .26,-2.1 2.25,-3.7 4.5,-3.7 h 56.1 c 2.23,0 4.2,1.6 4.5,3.7 l 0,-.2 C 80.75,14 78.54,12 76.05,12 Z" fill="currentColor" opacity=".1"/><path class="ColorScheme-Text" d="m 20.57,77.87 .14,1.63 C 20.9,82 22.7,84 25.2,84 h 45.6 c 2.5,0 4.3,-2 4.5,-4.5 l .14,-1.63 c -.03,.2 -.1,.4 -.13,.6 l -0,.05 c -.2,2.5 -2,4.5 -4.5,4.5 H 25.2 c -2.5,0 -4.3,-2 -4.5,-4.5 l -0,-.05 c -.05,-.2 -.1,-.4 -.13,-.6 z" fill="currentColor" opacity=".2"/><path d="m 19.95,12 c -2.5,0 -4.7,2 -4.5,4.5 l 5.25,63 C 20.9,82 22.7,84 25.2,84 H 70.8 c 2.5,0 4.3,-2 4.5,-4.5 l 5.25,-63 C 80.76,14 78.54,12 76.05,12 Z" fill="url(#uJ3)" id="gloss" opacity=".2"/></g>
</svg>