<?xml version="1.0" encoding="UTF-8" standalone="no"?>
<!-- Created with Inkscape (http://www.inkscape.org/) -->

<svg
   width="64"
   height="64"
   version="1.1"
   id="svg1067"
   sodipodi:docname="smartphone.svg"
   inkscape:version="1.3 (0e150ed6c4, 2023-07-21)"
   xmlns:inkscape="http://www.inkscape.org/namespaces/inkscape"
   xmlns:sodipodi="http://sodipodi.sourceforge.net/DTD/sodipodi-0.dtd"
   xmlns="http://www.w3.org/2000/svg"
   xmlns:svg="http://www.w3.org/2000/svg">
  <sodipodi:namedview
     id="namedview2554"
     pagecolor="#ffffff"
     bordercolor="#666666"
     borderopacity="1.0"
     inkscape:showpageshadow="2"
     inkscape:pageopacity="0.0"
     inkscape:pagecheckerboard="0"
     inkscape:deskcolor="#d1d1d1"
     showgrid="true"
     inkscape:lockguides="true"
     inkscape:zoom="12.453125"
     inkscape:cx="21.199498"
     inkscape:cy="27.583438"
     inkscape:window-width="1920"
     inkscape:window-height="1006"
     inkscape:window-x="0"
     inkscape:window-y="0"
     inkscape:window-maximized="1"
     inkscape:current-layer="svg1067">
    <inkscape:grid
       type="xygrid"
       id="grid1460"
       originx="0"
       originy="0"
       spacingy="1"
       spacingx="1"
       units="px"
       visible="true" />
  </sodipodi:namedview>
  <defs
     id="defs1043">
    <linearGradient
       id="linearGradient2554"
       x1="31.756"
       x2="30.031"
       y1="44.109"
       y2="25.774"
       gradientTransform="matrix(4.2192546,0,0,4.1302157,-117.81622,-122.75789)"
       gradientUnits="userSpaceOnUse">
      <stop
         stop-color="#242424"
         offset="0"
         id="stop1038" />
      <stop
         stop-color="#878787"
         offset="1"
         id="stop1040" />
    </linearGradient>
  </defs>
  <path
     d="m 21.025313,5 h 21.949374 c 1.882664,0 3.398196,1.4836534 3.398196,3.3264829 V 54.673516 C 46.372883,56.51645 44.857245,58 42.974687,58 H 21.025313 c -1.882664,0 -3.398196,-1.483655 -3.398196,-3.326484 V 8.3264829 C 17.627117,6.4836534 19.142755,5 21.025313,5 Z"
     fill="url(#linearGradient2554)"
     stroke="#050505"
     stroke-linecap="round"
     stroke-linejoin="round"
     style="fill:url(#linearGradient2554);stroke:none;stroke-width:0;stroke-dasharray:none;paint-order:stroke fill markers"
     id="path1045" />
  <path
     d="m 25.269608,49.666581 a 2.0200726,2.0200726 0 0 1 -2.013387,2.020072 2.0200726,2.0200726 0 0 1 -2.026758,-2.006597 2.0200726,2.0200726 0 0 1 1.999912,-2.033441 2.0200726,2.0200726 0 0 1 2.04002,1.993121"
     fill="#aa5cf9"
     style="stroke:none;stroke-width:1.06107;paint-order:stroke fill markers"
     id="path1049" />
  <path
     d="m 31.243454,49.666581 a 2.0200726,2.0200726 0 0 1 -2.013388,2.020072 2.0200726,2.0200726 0 0 1 -2.026757,-2.006597 2.0200726,2.0200726 0 0 1 1.999913,-2.033441 2.0200726,2.0200726 0 0 1 2.040126,1.993121"
     fill="#34b9ff"
     style="stroke:none;stroke-width:1.06107;paint-order:stroke fill markers"
     id="path1051" />
  <path
     d="m 37.206689,49.634748 a 2.0200726,2.0200726 0 0 1 -2.013386,2.020073 2.0200726,2.0200726 0 0 1 -2.026759,-2.006703 2.0200726,2.0200726 0 0 1 1.999913,-2.033442 2.0200726,2.0200726 0 0 1 2.04002,1.993121"
     fill="#1edd6e"
     style="stroke:none;stroke-width:1.06107;paint-order:stroke fill markers"
     id="path1053" />
  <path
     d="m 43.169926,49.815131 a 2.0200726,2.0200726 0 0 1 -2.013388,2.020073 2.0200726,2.0200726 0 0 1 -2.026757,-2.006598 2.0200726,2.0200726 0 0 1 1.999911,-2.033441 2.0200726,2.0200726 0 0 1 2.040021,1.993121"
     fill="#ffb446"
     style="stroke:none;stroke-width:1.06107;paint-order:stroke fill markers"
     id="path1055" />
  <path
     d="M 43.831341,8.993909 A 0.91568558,0.91568558 0 0 1 42.91871,9.909584 0.91568558,0.91568558 0 0 1 42,9 0.91568558,0.91568558 0 0 1 42.906518,8.0782662 0.91568558,0.91568558 0 0 1 43.831255,8.981718"
     fill="#dadada"
     style="display:inline;opacity:1;stroke:none;stroke-width:1.06107;paint-order:stroke fill markers"
     id="path1057" />
  <path
     d="M 41,9 A 0.91568558,0.91568558 0 0 1 40.087359,9.915675 0.91568558,0.91568558 0 0 1 39.16865,9.006091 0.91568558,0.91568558 0 0 1 40.075179,8.0843572 0.91568558,0.91568558 0 0 1 40.999915,8.987809"
     fill="#dadada"
     style="display:inline;stroke:none;stroke-width:1.06107;paint-order:stroke fill markers"
     id="path1059" />
  <path
     d="M 22.127498,9.1162495 A 1.1163559,1.1163559 0 0 1 21.014855,10.232606 1.1163559,1.1163559 0 0 1 19.894786,9.1236775 1.1163559,1.1163559 0 0 1 21,8 1.1163559,1.1163559 0 0 1 22.127392,9.1013945"
     style="stroke:none;stroke-width:1.06107;paint-order:stroke fill markers"
     id="path1061" />
  <path
     d="m 21.02216,5.6003251 h 21.95568 c 1.883205,0 3.399173,1.4669639 3.399173,3.2890634 V 54.715066 c 0,1.822202 -1.516074,3.289064 -3.399173,3.289064 H 21.02216 c -1.883205,0 -3.399173,-1.466965 -3.399173,-3.289064 V 8.8893885 c 0,-1.8220995 1.516074,-3.2890634 3.399173,-3.2890634 z"
     stroke="#050505"
     style="fill:none;stroke:#000000;stroke-width:1.20065;stroke-opacity:1"
     id="path1188"
     inkscape:label="path1188" />
  <path
     d="m 25.269608,49.666581 a 2.0200726,2.0200726 0 0 1 -2.013387,2.020072 2.0200726,2.0200726 0 0 1 -2.026758,-2.006597 2.0200726,2.0200726 0 0 1 1.999912,-2.033441 2.0200726,2.0200726 0 0 1 2.04002,1.993121"
     fill="#aa5cf9"
     style="fill:none;stroke-width:1.37939;stroke-dasharray:none;paint-order:stroke fill markers"
     id="path1192" />
  <path
     d="m 31.243454,49.666581 a 2.0200726,2.0200726 0 0 1 -2.013388,2.020072 2.0200726,2.0200726 0 0 1 -2.026757,-2.006597 2.0200726,2.0200726 0 0 1 1.999913,-2.033441 2.0200726,2.0200726 0 0 1 2.040126,1.993121"
     fill="#34b9ff"
     style="fill:none;stroke-width:1.37939;stroke-dasharray:none;paint-order:stroke fill markers"
     id="path1194" />
  <path
     d="m 37.206689,49.634748 a 2.0200726,2.0200726 0 0 1 -2.013386,2.020073 2.0200726,2.0200726 0 0 1 -2.026759,-2.006703 2.0200726,2.0200726 0 0 1 1.999913,-2.033442 2.0200726,2.0200726 0 0 1 2.04002,1.993121"
     fill="#1edd6e"
     style="fill:none;stroke-width:1.37939;stroke-dasharray:none;paint-order:stroke fill markers"
     id="path1196" />
  <path
     d="m 43.169926,49.815131 a 2.0200726,2.0200726 0 0 1 -2.013388,2.020073 2.0200726,2.0200726 0 0 1 -2.026757,-2.006598 2.0200726,2.0200726 0 0 1 1.999911,-2.033441 2.0200726,2.0200726 0 0 1 2.040021,1.993121"
     fill="#ffb446"
     style="fill:none;stroke-width:1.37939;stroke-dasharray:none;paint-order:stroke fill markers"
     id="path1198" />
  <path
     id="path1190"
     d="m 26.906017,55 a 0.47748326,0.47748326 0 0 0 -0.476656,0.476654 0.47748326,0.47748326 0 0 0 0.476656,0.478728 H 37.093983 A 0.47748326,0.47748326 0 0 0 37.57271,55.476654 0.47748326,0.47748326 0 0 0 37.093983,55 Z"
     style="fill:#a5a5a5;fill-opacity:1;stroke:#ffffff;stroke-width:0;stroke-dasharray:none;stroke-opacity:1"
     inkscape:label="path1190" />
</svg>
