<svg xmlns="http://www.w3.org/2000/svg" fill="none" viewBox="0 0 22 22">
  <path fill="url(#a)" d="M3 3h8a8 8 0 1 1-8 8z"/>
  <path fill="#778485" d="M3 10v1a8 8 0 1 0 15.985-.5A8 8 0 0 1 3 10" opacity=".3"/>
  <path fill="url(#b)" d="M6 5a1 1 0 1 1-2 0 1 1 0 0 1 2 0"/>
  <path fill="url(#c)" d="M17 11a6 6 0 1 1-12 0 6 6 0 0 1 12 0"/>
  <g opacity=".2">
    <path fill="url(#d)" d="M13 16.659A6.002 6.002 0 0 0 13 5.34z"/>
    <path fill="url(#e)" d="M13 5.341V16.66a5.99 5.99 0 0 1-2 .34 5.99 5.99 0 0 1-2-.341V5.34A5.99 5.99 0 0 1 11 5c.701 0 1.374.12 2 .341"/>
    <path fill="url(#f)" d="M9 5.341V16.66A6.002 6.002 0 0 1 9 5.34"/>
    <path fill="url(#g)" d="M16.659 13A6.002 6.002 0 0 1 5.34 13z"/>
    <path fill="url(#h)" d="M16.659 13A5.99 5.99 0 0 0 17 11a5.99 5.99 0 0 0-.341-2H5.34A5.99 5.99 0 0 0 5 11c0 .701.12 1.374.341 2z"/>
    <path fill="url(#i)" d="M16.659 9H5.34a6.002 6.002 0 0 1 11.32 0"/>
  </g>
  <path fill="#000" d="M16.98 11.5a6 6 0 1 0-11.959 0 6 6 0 0 1 11.959 0" opacity=".1"/>
  <defs>
    <linearGradient id="a" x1="3" x2="3" y1="19" y2="3" gradientUnits="userSpaceOnUse">
      <stop stop-color="#9FA7AD"/>
      <stop offset="1" stop-color="#E0E5E7"/>
    </linearGradient>
    <linearGradient id="b" x1="15.5" x2="4" y1="15.5" y2="4" gradientUnits="userSpaceOnUse">
      <stop stop-color="#0A54AC"/>
      <stop offset=".5" stop-color="#1C9CF5"/>
      <stop offset=".795" stop-color="#72CBFB"/>
      <stop offset=".818" stop-color="#1C9CF5"/>
    </linearGradient>
    <linearGradient id="c" x1="15.5" x2="4" y1="15.5" y2="4" gradientUnits="userSpaceOnUse">
      <stop stop-color="#0A54AC"/>
      <stop offset=".5" stop-color="#1C9CF5"/>
      <stop offset=".795" stop-color="#72CBFB"/>
      <stop offset=".818" stop-color="#1C9CF5"/>
    </linearGradient>
    <linearGradient id="d" x1="13" x2="17" y1="5" y2="5" gradientUnits="userSpaceOnUse">
      <stop stop-color="#fff"/>
      <stop offset="1" stop-color="#fff" stop-opacity="0"/>
    </linearGradient>
    <linearGradient id="e" x1="9" x2="13" y1="4.638" y2="4.638" gradientUnits="userSpaceOnUse">
      <stop stop-color="#fff"/>
      <stop offset="1" stop-color="#fff" stop-opacity="0"/>
    </linearGradient>
    <linearGradient id="f" x1="5" x2="9" y1="5" y2="5" gradientUnits="userSpaceOnUse">
      <stop stop-color="#fff"/>
      <stop offset="1" stop-color="#fff" stop-opacity="0"/>
    </linearGradient>
    <linearGradient id="g" x1="5" x2="5" y1="13" y2="17" gradientUnits="userSpaceOnUse">
      <stop stop-color="#fff"/>
      <stop offset="1" stop-color="#fff" stop-opacity="0"/>
    </linearGradient>
    <linearGradient id="h" x1="4.638" x2="4.638" y1="9" y2="13" gradientUnits="userSpaceOnUse">
      <stop stop-color="#fff"/>
      <stop offset="1" stop-color="#fff" stop-opacity="0"/>
    </linearGradient>
    <linearGradient id="i" x1="5" x2="5" y1="5" y2="9" gradientUnits="userSpaceOnUse">
      <stop stop-color="#fff"/>
      <stop offset="1" stop-color="#fff" stop-opacity="0"/>
    </linearGradient>
  </defs>
</svg>