<svg xmlns="http://www.w3.org/2000/svg" fill="none" viewBox="0 0 22 22">
  <path fill="url(#a)" d="M2 3h18v16H2z"/>
  <path stroke="#000" d="M2.5 3.5h17v15h-17z"/>
  <path stroke="url(#b)" d="M2.5 3.5h17v15h-17z"/>
  <path stroke="#AA7F41" d="M3.5 4.5h15v13h-15z" opacity=".5"/>
  <path fill="#fff" d="M16.5 7h-5.83L9 11l-1.125 3L8 12.5V10H5.5v1H7v4h1.55l2.78-7h5.17z"/>
  <path fill="#fff" d="M16 14v-.9h-2l-1 .1s3-.85 3-2.7C16 9.4 15 9 14 9s-2 .5-2 1.5h1c0-.5.5-.6 1-.6s1 .1 1 .6c0 .732-.804 1.196-1.823 1.785-.373.215-.775.447-1.177.715v1z"/>
  <defs>
    <linearGradient id="a" x1="20.75" x2="1.07" y1="19" y2="4.24" gradientUnits="userSpaceOnUse">
      <stop stop-color="#343B40"/>
      <stop offset="1" stop-color="#555E63"/>
    </linearGradient>
    <linearGradient id="b" x1="11" x2="11" y1="19" y2="3" gradientUnits="userSpaceOnUse">
      <stop stop-color="#BD8D48"/>
      <stop offset="1" stop-color="#E8B971"/>
    </linearGradient>
  </defs>
</svg>