<svg height="22" viewBox="0 0 22 22" width="22" xmlns="http://www.w3.org/2000/svg">
    <style type="text/css" id="current-color-scheme">
      .ColorScheme-Text {
        color:#232629
      }
    </style>
    <path
        style="fill:currentColor"
        d="m7.5 5c-1.821451 0-3.2130304.390754-4.1523438 1.2578125s-1.3476562 2.1588274-1.3476562 3.7421875v4.75c0 .577276.2190045 1.154551.65625 1.591797.874491.874492 2.3071496.874492 3.1816406 0l.0097656-.011719.0097657-.009766s.2625807-.258137.4238281-.613281c.2321292-.472371.6206451-1.308682.8886719-1.888672-.3191711-.146877-.5940182-.375243-.796875-.662109-.21597.46875-.7411512 1.609163-.9941407 2.123047-.0731409.135475-.1797042.25242-.2558593.359375-.4927238.48565-1.2696606.486187-1.7597657-.003906-.2461712-.246178-.3632812-.565469-.3632812-.884766v-4.75c0-1.4166369.3416587-2.3748725 1.0273438-3.0078125.685685-.63294 1.7941107-.9921875 3.4726562-.9921875h7c1.678545 0 2.786971.3592475 3.472656.9921875s1.027344 1.5911756 1.027344 3.0078125v4.75c0 .319297-.11705.638582-.363281.884766-.490105.490087-1.267042.489568-1.759766.003906-.07615-.106955-.182719-.2239-.255859-.359375-.25299-.513884-.778171-1.654297-.994141-2.123047-.202857.286866-.477704.515232-.796875.662109.268027.57999.656526 1.416231.888672 1.888672.161248.355144.423828.613281.423828.613281l.009766.009766.009765.011719c.874491.874492 2.30715.874492 3.181641 0 .437108-.437304.65625-1.014521.65625-1.591797v-4.75c0-1.5833601-.408343-2.875129-1.347656-3.7421875-.939314-.8670585-2.330893-1.2578125-4.152344-1.2578125zm8.009766 1.9003906a.60000002.60000002 0 0 0 -.59961.5996094.60000002.60000002 0 0 0 .59961.5996094.60000002.60000002 0 0 0 .599609-.5996094.60000002.60000002 0 0 0 -.599609-.5996094zm-9.509766.0996094v1h-1v1h1v1h1v-1h1v-1h-1v-1zm8.5.9003906a.60000002.60000002 0 0 0 -.599609.5996094.60000002.60000002 0 0 0 .599609.5996094.60000002.60000002 0 0 0 .599609-.5996094.60000002.60000002 0 0 0 -.599609-.5996094zm2.009766 0a.60000002.60000002 0 0 0 -.59961.5996094.60000002.60000002 0 0 0 .59961.5996094.60000002.60000002 0 0 0 .599609-.5996094.60000002.60000002 0 0 0 -.599609-.5996094zm-1.009766 1a.60000002.60000002 0 0 0 -.599609.5996094.60000002.60000002 0 0 0 .599609.599609.60000002.60000002 0 0 0 .599609-.599609.60000002.60000002 0 0 0 -.599609-.5996094zm-7.5 2.0996094c-.5522847 0-1 .447715-1 1s.4477153 1 1 1 1-.447715 1-1-.4477153-1-1-1zm6 0c-.552285 0-1 .447715-1 1s.447715 1 1 1 1-.447715 1-1-.447715-1-1-1zm-4 1c-.00167.351573-.095982.696494-.2734375 1h2.5468755c-.17746-.303506-.271738-.648427-.273438-1z"
        class="ColorScheme-Text" />
</svg>
