<?xml version="1.0" encoding="UTF-8"?>
<svg xmlns="http://www.w3.org/2000/svg" xmlns:xlink="http://www.w3.org/1999/xlink" xmlns:cc="http://creativecommons.org/ns#" xmlns:dc="http://purl.org/dc/elements/1.1/" xmlns:rdf="http://www.w3.org/1999/02/22-rdf-syntax-ns#" xmlns:inkscape="http://www.inkscape.org/namespaces/inkscape" xmlns:sodipodi="http://sodipodi.sourceforge.net/DTD/sodipodi-0.dtd" width="22" height="22">
    <style type="text/css" id="current-color-scheme">
      .ColorScheme-Text {
        color:#31363b;
      }
      .ColorScheme-Background{
        color:#E9E8E8;
      }
      .ColorScheme-ButtonText {
        color:#31363b;
      }
</style>
    <g transform="matrix(1.0000029,0,0,1.000001,-420.71555,-516.79125) translate(-2.6353e-15,-10)" id="22-22-applications-other">
    <rect style="opacity:0.01000001;fill:#000000;fill-opacity:0.00392157;stroke:none" id="rect3028" width="22" height="22" x="-7.1556997e-08" y="2.0000052" transform="matrix(0.99999706,0,0,0.99999899,420.71433,524.79072)"/>
    <path style="fill:currentColor;fill-opacity:1;stroke:none" d="m 423.71432,529.79072 0,6.99999 6.99998,0 0,-6.99999 -6.99998,0 z m 8.99998,0 0,6.99999 6.99998,0 0,-6.99999 -6.99998,0 z m -7.99998,1 4.99999,0 0,4.99999 -4.99999,0 0,-4.99999 z m 8.99997,0 4.99999,0 0,4.99999 -4.99999,0 0,-4.99999 z m -9.99997,7.99999 0,6.99999 6.99998,0 0,-6.99999 -6.99998,0 z m 8.99998,0 0,6.99999 0.99999,0 4.99999,0 1,0 0,-1 0,-4.99999 0,-1 -1,0 -4.99999,0 -0.99999,0 z m -7.99998,1 4.99999,0 0,4.99999 -4.99999,0 0,-4.99999 z m 8.99997,0 4.99999,0 0,4.99999 -4.99999,0 0,-4.99999 z" id="rect4298" class="ColorScheme-Text"/>
  </g>
</svg>
