<svg xmlns="http://www.w3.org/2000/svg" fill="none" viewBox="0 0 22 22">
  <path fill="url(#a)" d="M2 3h18v16H2z"/>
  <path stroke="#000" d="M2.5 3.5h17v15h-17z"/>
  <path stroke="url(#b)" d="M2.5 3.5h17v15h-17z"/>
  <path stroke="#AA7F41" d="M3.5 4.5h15v13h-15z" opacity=".5"/>
  <path fill="url(#c)" fill-rule="evenodd" d="M11.671 14.238c.316-.788.529-1.933.529-3.238s-.213-2.45-.529-3.238c-.158-.397-.327-.664-.474-.82a.62.62 0 0 0-.158-.128A.152.152 0 0 0 11 6.8l-.008.001a.152.152 0 0 0-.03.013.62.62 0 0 0-.16.129c-.146.155-.315.422-.473.819C10.013 8.55 9.8 9.695 9.8 11s.213 2.45.529 3.238c.158.397.327.664.474.82a.62.62 0 0 0 .158.128.154.154 0 0 0 .031.013L11 15.2l.008-.001a.154.154 0 0 0 .03-.013.62.62 0 0 0 .16-.129c.146-.155.315-.422.473-.819M11 16c1.105 0 2-2.239 2-5s-.895-5-2-5-2 2.239-2 5 .895 5 2 5" clip-rule="evenodd"/>
  <path fill="url(#d)" fill-rule="evenodd" d="M8.235 9.185c.335.78.994 1.74 1.917 2.663.922.923 1.882 1.582 2.663 1.917.393.168.701.237.915.243a.623.623 0 0 0 .203-.02.154.154 0 0 0 .03-.014l.007-.004.004-.006a.154.154 0 0 0 .014-.031.623.623 0 0 0 .02-.203c-.005-.214-.075-.522-.243-.915-.335-.78-.994-1.74-1.917-2.663-.922-.923-1.882-1.582-2.663-1.917-.393-.168-.701-.238-.915-.243a.622.622 0 0 0-.203.02.152.152 0 0 0-.037.018l-.004.006a.153.153 0 0 0-.013.031.622.622 0 0 0-.021.203c.005.214.075.522.243.915m-.77-1.72c-.782.78.168 2.997 2.12 4.95 1.953 1.952 4.17 2.902 4.95 2.12.782-.78-.168-2.997-2.12-4.95-1.953-1.952-4.17-2.902-4.95-2.12" clip-rule="evenodd"/>
  <path fill="url(#e)" fill-rule="evenodd" d="M7.762 11.671c.788.316 1.933.529 3.238.529s2.45-.213 3.238-.529c.397-.158.664-.327.82-.474a.62.62 0 0 0 .128-.158.154.154 0 0 0 .013-.031L15.2 11l-.001-.008a.154.154 0 0 0-.013-.03.62.62 0 0 0-.129-.16c-.155-.146-.422-.315-.819-.473C13.45 10.013 12.305 9.8 11 9.8s-2.45.213-3.238.529c-.397.158-.664.327-.82.474a.62.62 0 0 0-.128.158A.152.152 0 0 0 6.8 11l.001.008a.152.152 0 0 0 .013.03.62.62 0 0 0 .129.16c.155.146.422.315.819.473M6 11c0 1.105 2.239 2 5 2s5-.895 5-2-2.239-2-5-2-5 .895-5 2" clip-rule="evenodd"/>
  <path fill="#54A3D8" d="M7.5 6a1.5 1.5 0 1 0 0 3 1.5 1.5 0 0 0 0-3"/>
  <path fill="#FFA92D" d="M10.5 13.5a1.5 1.5 0 1 0 0 3 1.5 1.5 0 0 0 0-3"/>
  <path fill="#E05E4C" d="M14 8a1.5 1.5 0 1 0 0 3 1.5 1.5 0 0 0 0-3"/>
  <defs>
    <linearGradient id="a" x1="20.75" x2="1.07" y1="19" y2="4.24" gradientUnits="userSpaceOnUse">
      <stop stop-color="#343B40"/>
      <stop offset="1" stop-color="#555E63"/>
    </linearGradient>
    <linearGradient id="b" x1="11" x2="11" y1="19" y2="3" gradientUnits="userSpaceOnUse">
      <stop stop-color="#BD8D48"/>
      <stop offset="1" stop-color="#E8B971"/>
    </linearGradient>
    <linearGradient id="c" x1="11" x2="11" y1="6" y2="16" gradientUnits="userSpaceOnUse">
      <stop stop-color="#93A2A3"/>
      <stop offset="1" stop-color="#758182"/>
    </linearGradient>
    <linearGradient id="d" x1="14.536" x2="7.464" y1="14.536" y2="7.464" gradientUnits="userSpaceOnUse">
      <stop stop-color="#92A1A2"/>
      <stop offset="1" stop-color="#AABCBD"/>
    </linearGradient>
    <linearGradient id="e" x1="16" x2="6" y1="11" y2="11" gradientUnits="userSpaceOnUse">
      <stop stop-color="#8A9C9D"/>
      <stop offset="1" stop-color="#CFDCDD"/>
    </linearGradient>
  </defs>
</svg>