<svg id="svg1" version="1.1" viewBox="0 0 32 32" xmlns="http://www.w3.org/2000/svg">
    <style id="current-color-scheme" type="text/css">.ColorScheme-Text {
        color:#31363b;
      }
      .ColorScheme-Background {
        color:#eff0f1;
      }
      .ColorScheme-Highlight {
        color:#3daee9;
      }
      .ColorScheme-ViewText {
        color:#31363b;
      }
      .ColorScheme-ViewBackground {
        color:#fcfcfc;
      }
      .ColorScheme-ViewHover {
        color:#93cee9;
      }
      .ColorScheme-ViewFocus{
        color:#3daee9;
      }
      .ColorScheme-ButtonText {
        color:#31363b;
      }
      .ColorScheme-ButtonBackground {
        color:#eff0f1;
      }
      .ColorScheme-ButtonHover {
        color:#93cee9;
      }
      .ColorScheme-ButtonFocus{
        color:#3daee9;
      }</style>
    <g id="phone" transform="translate(-321 -529.36)">
        <rect id="rect1" x="321" y="529.36" width="32" height="32" fill="none"/>
        <path id="path1" class="ColorScheme-Text" d="m334.41016 532.28578c-0.0264 0-0.0524 1e-3 -0.0781 4e-3h-2.50195c-1.1737 0-2.13477 0.96103-2.13477 2.13476v21.875c0 1.1737 0.96105 2.13672 2.13477 2.13672h10.33789c1.1737 0 2.13672-0.96304 2.13672-2.13672v-21.875c0-1.1737-0.96304-2.13476-2.13672-2.13476h-2.5c-0.0257-3e-3 -0.0517-4e-3 -0.0781-4e-3zm-2.58008 1.07813h1.42418c0.21662 0 0.39222 0.1756 0.39222 0.39222v0.39098c0 0.42231 0.34136 0.76367 0.76368 0.76367h5.17968c0.42232 0 0.76368-0.34136 0.76368-0.76367v-0.30091c0-0.26636 0.21593-0.48229 0.48229-0.48229h1.33216c0.59755 0 1.0625 0.46294 1.0625 1.06054v21.875c0 0.59755-0.46495 1.0625-1.0625 1.0625h-10.33789c-0.59753 0-1.06055-0.46495-1.06055-1.0625v-21.875c0-0.59755 0.46306-1.06054 1.06055-1.06054zm2.83203 22.14453c-0.15965 1e-5 -0.28905 0.12941-0.28906 0.28906 1e-5 0.15964 0.12942 0.28905 0.28906 0.28906h4.79297c0.15964-1e-5 0.28905-0.12942 0.28906-0.28906-1e-5 -0.15965-0.12941-0.28905-0.28906-0.28906z" fill="currentColor"/>
    </g>
</svg>
