<?xml version="1.0" encoding="UTF-8" standalone="no"?>
<svg
   xmlns:dc="http://purl.org/dc/elements/1.1/"
   xmlns:cc="http://creativecommons.org/ns#"
   xmlns:rdf="http://www.w3.org/1999/02/22-rdf-syntax-ns#"
   xmlns:svg="http://www.w3.org/2000/svg"
   xmlns="http://www.w3.org/2000/svg"
   xmlns:sodipodi="http://sodipodi.sourceforge.net/DTD/sodipodi-0.dtd"
   xmlns:inkscape="http://www.inkscape.org/namespaces/inkscape"
   viewBox="0 0 22 22"
   id="svg2"
   version="1.1"
   inkscape:version="0.91 r13725"
   sodipodi:docname="artifact.svg">
  <metadata
     id="metadata20">
    <rdf:RDF>
      <cc:Work
         rdf:about="">
        <dc:format>image/svg+xml</dc:format>
        <dc:type
           rdf:resource="http://purl.org/dc/dcmitype/StillImage" />
      </cc:Work>
    </rdf:RDF>
  </metadata>
  <defs
     id="defs18" />
  <sodipodi:namedview
     pagecolor="#ffffff"
     bordercolor="#666666"
     borderopacity="1"
     objecttolerance="10"
     gridtolerance="10"
     guidetolerance="10"
     inkscape:pageopacity="0"
     inkscape:pageshadow="2"
     inkscape:window-width="717"
     inkscape:window-height="480"
     id="namedview16"
     showgrid="false"
     inkscape:zoom="10.727273"
     inkscape:cx="11"
     inkscape:cy="11"
     inkscape:window-x="0"
     inkscape:window-y="0"
     inkscape:window-maximized="0"
     inkscape:current-layer="svg2" />
  <path
     style="fill:#4d4d4d"
     d="M 4 3 L 4 9 L 18 9 L 18 8 L 18 3 L 17 3 L 5 3 L 4 3 z M 5 4 L 17 4 L 17 8 L 5 8 L 5 4 z M 5 10 L 5 11 L 7 11 L 7 10 L 5 10 z M 10 10 L 10 11 L 12 11 L 12 10 L 10 10 z M 15 10 L 15 11 L 17 11 L 17 10 L 15 10 z M 4 12 L 4 13 L 4 19 L 5 19 L 13 19 L 14 19 L 18 15 L 18 13.59375 L 18 13 L 18 12 L 4 12 z M 5 13 L 17 13 L 17 14 L 13 14 L 13 15 L 13 18 L 5 18 L 5 13 z "
     id="path6" />
</svg>
