<svg xmlns="http://www.w3.org/2000/svg" viewBox="0 0 22 22">
  <defs id="defs3051">
    <style type="text/css" id="current-color-scheme">
      .ColorScheme-Text {
        color:#4d4d4d;
      }
      .ColorScheme-Highlight {
        color:#3daee9;
      }
      </style>
  </defs>
 <path 
     style="fill:currentColor;fill-opacity:1;stroke:none" 
	 d="m432.71834 528.79074c-.31896 0-.62792.026-.93788.063-.30396.036-.61392.087-.90589.1559-.094.022-.18497.067-.28096.094-.084.023-.16698.037-.24997.063-.10499.033-.21397.059-.31296.094-.10699.038-.20697.083-.31296.1249-.20597.083-.39695.182-.59393.2809-.071.036-.14898.056-.21897.094-.22997.1209-.44094.2629-.65592.4058-.082.055-.16997.098-.24996.1559-.033.024-.061.038-.094.063-.094.071-.19098.1418-.28097.2188-.10698.089-.20997.1869-.31296.2809-.032.03-.062.064-.094.094-.011.011-.02.02-.031.031-.016.016-.015.047-.031.063-.20997.2039-.43894.3988-.62492.6247-.005.001.005.025 0 .031-.18098.2199-.34296.4478-.49994.6877-.021.032-.042.061-.063.094-.015.024-.047.037-.063.063-.06.098-.10099.209-.15598.3129-.018.033-.045.061-.063.094-.075.1459-.14998.2898-.21897.4378-.004.001.004.023 0 .031-.11699.2528-.22198.5136-.31296.7805-.019.053-.045.103-.063.156-.003.001.003.022 0 .031-.02.062-.044.125-.063.188-.073.2568-.13998.5137-.18798.7806-.034.1919-.074.3968-.094.5938-.027.2648-.031.5417-.031.8125 0 .4038.036.7996.094 1.1875.006.041-.007.085 0 .1249.044.2659.11798.5248.18798.7807.026.096.064.1859.094.2809.04.1289.079.2489.12499.3748.077.2119.15598.4218.24997.6246.05.106.10198.2099.15598.3129.15198.2919.31496.5747.49993.8436.016.024.046.039.063.063.19797.2809.39395.5597.62492.8126.04.044.084.082.12498.125.04.042.084.084.12499.1249.21397.2139.45094.4048.68791.5938.30596.2438.62892.4587.96888.6556.012.001.019.024.031.031.053.03.10299.065.15598.094.31596.156.69192.3249.93788.4378.10999.042.23098.057.34396.094.053.018.10299.046.15598.063.13598.041.26797.09.40595.1249.042.011.083.021.12499.031.29196.069.60192.1209.90588.1559.30896.036.61792.063.93788.063.33996 0 .67092-.021.99988-.063.36495-.048.68091-.1239.99987-.1879 1.69779-.4358 3.1616-1.4213 4.21847-2.7487.028-.035.067-.058.094-.094.009-.012.022-.02.031-.031.014-.018.018-.044.031-.063.62292-.8246 1.07686-1.7801 1.34383-2.8117.056-.2169.11799-.4318.15598-.6557.005-.03-.005-.063 0-.094.006-.04.025-.079.031-.125.006-.043.026-.082.031-.1249h-.031c.044-.3289.094-.6587.094-.9996 0-.5517-.05-1.1034-.15598-1.6242-.009-.043-.022-.082-.031-.1249-.046-.2079-.12398-.4229-.18798-.6248-.003-.001.003-.022 0-.031-.012-.038-.018-.056-.031-.094-.039-.119-.081-.2579-.12498-.3748-.012-.032-.018-.064-.031-.094-.043-.109-.10799-.2059-.15598-.3128-.002 0 .002-.026 0-.031-.025-.054-.068-.1029-.094-.1559-.098-.2029-.19797-.3998-.31296-.5937-.058-.098-.094-.2169-.15598-.3129-.024-.036-.069-.058-.094-.094-.067-.099-.14698-.185-.21897-.2809-.08-.1-.13999-.2159-.21898-.3129-.005-.001.005-.025 0-.031-.17197-.2089-.36995-.4028-.56292-.5937-.093-.092-.18398-.1939-.28097-.2809-.028-.025-.065-.038-.094-.063-.20897-.1819-.42994-.3398-.65592-.4996-.055-.038-.10098-.088-.15598-.125-.07-.046-.14798-.081-.21897-.1249-.13498-.084-.26597-.174-.40595-.2499-.12298-.067-.24797-.127-.37495-.1879-.21397-.102-.43195-.198-.65592-.2809-.26596-.099-.53393-.1799-.8129-.2499-.24496-.062-.49693-.118-.7499-.1559-.39695-.061-.8049-.094-1.21885-.094m0 .9996c.29896 0 .58493.027.87489.063.17998.023.35496.058.53093.094.001 0 .021 0 .031 0 .16598.035.33796.079.49994.1249.096.027.18698.063.28097.094.17197.057.33395.1169.49993.1879.19398.08.37896.1528.56293.2498-.031.001-.063.021-.094.031-.047.017-.11298.096-.12498.1249-.02.048.005.115 0 .188.038.017.06.089.12498.1249.025.014.041-.001.063 0 .038.021.07.087.063.1249-.011.055-.088.022-.12498.063.006.078-.043.105-.063.1559.012.033.057.024.063.063-.007.043-.079.049-.063.094.072.056.15098-.022.21897-.031.14898-.019.28297.041.37495-.031-.012-.071.10099-.092.094-.1559-.006-.048-.09-.061-.12498-.094-.019-.018-.04-.059-.063-.094-.026-.04-.064-.087-.094-.125-.039-.052-.12498-.1169-.12498-.1559.0001-.045.052-.063.063-.125-.012-.057-.11699 0-.12499-.063.002-.019.021-.051.031-.063.14998.082.29796.1789.43795.2809.032.021.062.041.094.063.10798.081.20697.17.31296.2499-.067.012-.10099.09-.15598.156-.038.046-.099.1009-.15598.1249-.028.012-.068-.016-.094 0-.037.025-.051.096-.094.125-.031.021-.12399.094-.15598.094-.038.0001-.098-.04-.12499-.031-.04.013-.017.077-.063.094-.088.031-.24997-.069-.28096.063.038.076.15298.051.21897.094.042.026.11399.143.12498.1879.001.038.015.179 0 .2189-.041.106-.15898.097-.28096.094-.034-.0001-.063 0-.094 0-.20697-.014-.40695-.085-.49994.063.007.1129.025.1829 0 .2808-.018.072-.097.125-.094.188.002.032.055.082.063.1249.005.023-.011.073 0 .094.034.066.12699-.001.18798 0 .059.001.12598.1209.12498.1879-.0001.046-.033.1119-.063.1559-.058.089-.16698.077-.24997.1249-.07.039-.084.1189-.12498.1879-.044.074-.081.1109-.063.2189-.06.1179-.12598.1939-.24997.2499-.037.017-.092.039-.12498.063-.027.019-.056.051-.094.094-.047.052-.1.085-.12499.125-.019.031-.001.084-.031.1249-.029.056-.088.1-.12498.1559-.017.026-.043.059-.063.094-.042.077-.10099.1509-.094.2189.007.066.089.068.094.1249.004.032-.033.059-.031.094.0001.051.027.086.031.1249.001.099-.044.12-.063.188-.009.032.008.068 0 .094-.016.05-.093.098-.094.156-.0001.042.059.097.063.1559.002.04-.038.057-.031.094.014.073.16198.162.21897.2189.075.075.15498.139.18798.219.027.067.041.1678.094.2188.039.037.10598.054.15598.094.047.036.10698.055.15598.094.081.064.18297.1969.31296.1879.068-.001.14198-.05.21897-.063.079-.014.16998-.039.24997-.031.061.001.12398.066.18797.063.067 0 .14299-.061.21898-.094.13198-.057.33896-.1529.53093-.1249.14598.021.14898.2169.24997.2809.11798.001.21897-.054.31296-.031.07.017.14898.1319.15598.1879.007.058-.054.121-.063.1559-.018.078-.017.169-.031.2189-.011.038-.032.086-.031.125 0 .035.058.1419.094.1879.044.056.10299.096.15598.1559.087.109.15498.2359.21897.3749.017.037-.016.077 0 .1249-.029.2239-.10298.3769-.24997.6247-.069.08-.15798.15-.15598.2499-.005.2399.13599.3928.12499.6247-.024.3118.024.3328 0 .4997.10499.053.031.2329 0 .3439-.045.1319-.1.1619-.12499.2499.071.031.17098.019.24997 0 0 0 .096.4008.094.4058-.8069.7967-1.81877 1.3874-2.93763 1.7182-.54993.1329-.71291.1329-.96888.1879-.33395.055-.68291.094-1.03087.094-.24296 0-.48293-.001-.71891-.031-.18197-.018-.35395-.062-.53093-.094-.053-.001-.10398-.02-.15598-.031-.16298-.055-.35095-.088-.49994-.1249-.16997-.048-.33495-.096-.49993-.156.014-.013.027-.011.031-.031.009-.04.002-.062 0-.1249.015-.065.08-.058.094-.1249-.028-.048-.083-.038-.12498-.063-.041-.024-.068-.074-.063-.125.07-.029.19997.066.24996-.031.025-.046-.034-.1409 0-.1879.023-.031.16898-.055.21898-.063.071-.012.14798-.001.18797-.031.044-.029.10099-.105.094-.188-.004-.039-.033-.059-.063-.094-.025-.029-.013-.066-.031-.094-.031-.047-.08-.058-.094-.1249.096-.019.23597.1019.37496.063.066-.019.15698-.188.18797-.2499.001-.019-.001-.04 0-.063.012-.026.059-.049.063-.063.001-.036-.008-.071 0-.094.024-.068.085-.075.12498-.125.03-.038.065-.087.094-.1249.031-.041.042-.089.063-.125.02-.1219-.06-.2059-.031-.3128.032-.12.19598-.165.31296-.2189.04-.019.092-.05.12499-.063.08-.028.17598-.036.24997-.063.12498-.046.15698-.1669.21897-.2809.029-.054.057-.1179.063-.1559.005-.035-.007-.053 0-.094.006-.04.02-.081.031-.1248.014-.058.031-.1539.031-.2189 0-.053-.029-.078-.031-.1249-.009-.173.061-.218.12498-.3129.032-.047.04-.091.063-.125.10799-.1609.29497-.2259.28097-.4688-.005-.08-.035-.2558-.094-.2808-.034-.015-.10699-.011-.15598-.031-.15798-.059-.27397-.2689-.43795-.2809-.035 0-.055.031-.094.031-.065 0-.14698-.053-.21897-.063-.046-.001-.12898.013-.15598 0-.042-.02-.029-.1019-.063-.1249-.027-.018-.084-.015-.12498-.031-.066-.025-.11199-.056-.18798-.063-.023-.0001-.067 0-.094 0-.042-.001-.086-.04-.12498-.063-.048-.029-.074-.052-.094-.094.044-.1439-.096-.1669-.12498-.2499-.014-.039.013-.09 0-.1249-.017-.05-.071-.084-.12499-.125-.097-.074-.17398-.1389-.31296-.1559-.061-.001-.14498 0-.21897 0-.078-.001-.16098-.058-.21897-.125-.056-.065-.076-.1249-.12499-.1559-.047-.03-.12398-.031-.15598-.063-.014-.014-.017-.031-.031-.063-.023-.048-.061-.098-.031-.156-.053-.027-.035.072-.094.063-.052-.074-.10099-.115-.21897-.094-.054.001-.093.06-.15598.063-.052 0-.088-.053-.15598-.063-.052-.001-.11999.036-.15598.031-.057-.011-.073-.059-.12499-.094-.038-.025-.10398-.095-.12498-.094-.067 0-.12598.1429-.21897.094-.045-.057.085-.071.031-.125-.04-.041-.061.001-.094.031-.037.025-.084.047-.12499.063-.092.034-.14698.025-.21897.063-.066.034-.087.088-.12499.156-.031.056-.079.1529-.12498.1559-.056 0-.10599-.072-.15598-.094-.15298-.066-.24797.03-.37495.031-.11799 0-.28697-.1709-.28097-.2808.004-.067.054-.166.063-.2499.006-.066.062-.127.063-.1879.0001-.081-.13499-.147-.18798-.156-.12498-.023-.29496.061-.43794 0-.027-.045.047-.081.063-.1249.009-.025-.009-.034 0-.063.016-.042.074-.08.094-.1249.015-.034.016-.082.031-.125.017-.049.059-.091.063-.1249.005-.045-.027-.095-.063-.125-.11098.001-.18697 0-.24997.031-.14398.066-.10598.2659-.24997.3129-.05.016-.13298.021-.18797.031-.047.001-.10699.032-.15598.031-.058-.0001-.15298-.057-.18798-.094-.009-.001-.024-.036-.031-.063.002-.001-.002-.021 0-.031.046-.2229.093-.4438.15598-.6557.003-.001-.003-.022 0-.031.042-.1389.10298-.2699.15598-.4058.013-.001.019-.023.031-.031.077-.053.15598-.1189.24997-.1249.057 0 .16398.02.21897.031.05.001.082.059.12499.063.12298.001.14898-.1029.24997-.1559.10398.015.15598-.001.24996 0 .064.001.13799.09.18798.094.042 0 .053-.069.094-.063.04.001.11898.1079.12498.1559.007.06-.048.122-.031.1879.063.064.19097.056.28096.094.059-.048.009-.118 0-.1879-.002-.031.004-.066 0-.094-.006-.048-.031-.084-.031-.1249-.0001-.1899.15398-.2999.28096-.3749.055-.033.10799-.069.15598-.094.067-.034.1-.063.15598-.094.10099-.057.20198-.092.28097-.1559.037-.086-.004-.1959 0-.2809.037-.022.055 0 .094 0 .061-.013.09-.091.12499-.1249.02-.02.069-.043.094-.063.061-.048.072-.104.12498-.125.019-.001.064-.017.094-.031.04-.011.092-.04.15598-.063.042-.014.13998-.015.15598-.031.02-.02-.006-.095 0-.1249.032-.151.27196-.168.40595-.2189.094-.036.17798-.114.28096-.094-.02.072-.10998.038-.094.1249.023.121.17598-.013.21898-.031.081-.034.23697-.055.34395-.094.094-.034.24497-.08.15598-.1879-.074 0-.092.066-.15598.094-.044.001-.056-.027-.094-.031-.036 0-.057.038-.094.031-.037-.001-.088-.082-.094-.1249-.015-.111.10999-.136.15598-.2189-.03-.101-.16598-.024-.24997-.063.009-.06.055-.1139.12499-.1249.057-.001.18497.001.21897.031.02.017 0 .066.031.094.034.031.081.001.12499 0 .016-.076-.10599-.043-.094-.094.09-.059.26497-.016.37495-.031.063-.001.13099-.062.18798-.094.054-.03.099-.081.15598-.031.016.054-.032.066-.063.094-.10199.091-.20198.2069-.28097.3128.049.048.13599.022.21898.031.032 0 .06.025.094.031.04.001.094-.012.12499 0 .056.014.07.094.12498.094.091 0 .083-.125.031-.1879.016-.063.053-.08.031-.125-.041-.082-.21097.014-.21897-.094-.005-.067.07-.075.094-.125-.011-.1289.10598-.1349.094-.2499-.006-.048-.06-.049-.094-.094-.017-.023-.001-.076-.031-.094-.07-.059-.20997-.044-.21897-.1559-.004-.066.001-.115 0-.1879-.009-.067-.066-.2679-.12498-.2809-.075-.016-.12899.1139-.21898.1559-.049.023-.13898.04-.18797.031-.032-.001-.089-.032-.094-.094-.006-.07.05-.082.063-.1558-.011-.044-.051-.029-.094-.063-.049-.037-.091-.1159-.15598-.1249-.033 0-.093.029-.12498.031-.06 0-.10599-.015-.15598-.031.021-.001.041-.024.063-.031.12198-.042.24997-.059.37495-.094.022-.001.041-.025.063-.031.031.033.056.1029.094.1249.025.014.063-.001.094 0 .098.03.17398.085.28097.063.037-.065-.074-.074-.031-.125.072.001.13198.04.18798.063.077-.056.12798-.066.12498-.1559-.0001-.046-.062-.063-.094-.094.063-.011.12399-.022.18798-.031.005.017.021.03.031.031.038.001.16498-.051.18797-.063.004 0-.006-.027 0-.031.25297-.027.52094-.031.7809-.031m-2.49968.4688c-.023.043-.047.079-.094.094.012.065-.084.1049-.094.1558-.006.035-.002.094 0 .125.02.3189-.25096.4768-.56293.4688-.061.058-.029.1699-.063.2499-.028.067-.11998.1309-.18797.1249-.05 0-.12499-.079-.12499-.1249 0-.057.081-.091.031-.156.007-.044.10598-.086.094-.1559-.012-.074-.096-.019-.18798-.031-.052-.001-.13298-.037-.18798-.063.10099-.067.20498-.126.31296-.188.094-.056.18498-.1049.28097-.1559.25197-.1269.52193-.2438.7809-.3437m5.37432.7495c-.027 0-.04.018-.063.031-.051.031-.054.079-.094.094-.054.021-.11698.001-.12498.063-.006.041.033.055.031.094-.02.049-.053.066-.063.1249.068.11.22897-.001.31296-.031.038-.011.073 0 .094-.031.023-.035.013-.105.031-.156.019-.056.069-.043.063-.094-.006-.05-.10599-.102-.18797-.094m-7.31208.7807c.061.016.19597.1929.063.2499-.013.001-.18698.036-.21897.031-.046-.001-.078-.086-.12499-.094-.092-.016-.21797.101-.28096 0 .016-.059.086-.043.15598-.063.12498-.034.29796-.1529.40595-.1249m.24996.3128c.031 0 .056.059.094.063.036 0 .072-.036.094-.031.056.015.084.115.031.156-.044 0-.061-.037-.094-.031-.091.016-.11999.1929-.18798.1879-.064-.001-.096-.1409-.031-.1879.002-.04-.033-.054-.031-.094.02-.025.072-.066.12498-.063m-.31296.031c.019.0001.024 0 .031 0-.009.071-.039.091-.094.125-.095.057-.15698.1279-.18797.2499-.009.036-.11099.1339-.15598.1249-.10599-.022.038-.2199.063-.2499.027-.033.062-.056.094-.094.03-.037.033-.105.063-.125.032-.022.13198-.033.18797-.031m9.49881.031c.048.013.058.069.094.094.027.018.064.012.094.031.035.022.054.06.094.094.056.047.13998.088.21897.125.016.001.044.023.063.031.055.071.10399.1449.15598.2189.006.04.012.099.031.1249.052.071.13098.1319.18798.2189-.0001.083.036.133.094.1559.073.124.14898.2479.21897.3748.029.058.035.1289.063.1879-.021 0-.043.001-.063 0-.066-.116-.40895-.1389-.43795.031-.013.075.049.1749-.063.1879-.071.001-.15298-.073-.24997-.094-.04-.001-.094.014-.12498 0-.073-.025-.062-.1119-.12498-.1559-.036-.025-.12999-.056-.18798-.063-.036 0-.056 0-.094 0-.045-.001-.11798-.001-.15598-.031-.036-.022-.11599-.062-.12498-.094-.014-.049.09-.1139.094-.1558.002-.031-.023-.045-.031-.094-.005-.029.006-.074 0-.094-.001-.034-.071-.062-.12499-.063-.048 0-.084.03-.12498.031-.059.0001-.17698-.037-.24997-.031-.044 0-.084.028-.12499.031-.11598.001-.19097-.001-.28096 0-.066 0-.18898.034-.24997.063-.031.014-.054.043-.094.063-.018.001-.039.021-.063.031-.038.017-.089.053-.12498.063-.052.013-.12399 0-.21898 0-.068 0-.18697-.014-.18797-.094-.0001-.1229.22697-.072.34396-.094.044-.001.073-.063.12498-.094.025-.015.039-.015.063-.031.04-.028.11898-.093.12498-.1249.006-.03-.035-.072-.031-.094.005-.028.057-.058.094-.094.056-.055.087-.1199.15598-.1559.047-.025.13499-.024.15599-.063.005-.043-.0001-.055 0-.094.029-.027.038-.058.063-.063.072-.016.13498.035.21897.031.036 0 .086-.001.12498-.031.033-.022.062-.045.094-.063.035-.018.051-.059.094-.063.10499-.001.17098.1239.21897.1879.04.053.15299.1189.21898.1559.037.021.084.045.12498.063.087.039.24697.1649.24997.2499.002.042-.038.054-.031.094.066.011.12298-.059.12498-.1249.0001-.041-.039-.05-.031-.094.031-.066.14798-.001.18798-.031-.007-.075-.12398-.086-.18798-.1249-.034-.021-.058-.048-.094-.063-.052-.021-.11598-.032-.15598-.063-.038-.029-.057-.08-.094-.1249-.054-.064-.15798-.073-.12498-.2189.016-.022.037-.069.063-.063m-8.81189.2189h.094c.034.0001.08-.018.094 0-.022.088-.21197.063-.28096.031.004-.033.05-.027.094-.031m-.31296.156c.023 0 .039-.001.063 0-.062.052-.14398.092-.24997.1249-.051.016-.11598.025-.12498-.031-.011-.069.047-.056.094-.063.058-.001.14999-.029.21898-.031m8.6869 0c-.043.014-.066.1129 0 .1249.031-.018.039-.068.031-.1249-.017-.018-.017 0-.031 0m-.031.1879c-.021.001-.04.001-.063.031.0001.075.015.1229 0 .1879.043.082.13398.026.15598-.031.026-.1389-.03-.2049-.094-.1879m.43795.3748c.049.08.14098.137.24997.1559.04-.03.044-.1049.063-.1559-.047.0001-.097 0-.15598 0-.059 0-.12198-.028-.15598 0m-11.68652 2.6867c.16398-.001.21197.2159.34395.2809.033.017.082.022.12499.031.035.001.061.02.094.031.071.024.16198.001.21897.031.085.038.14598.2069.21897.2499.004.043-.013.093 0 .1249.035.047.099.064.15598.094.068.037.092.1269.15598.1559.022.001.059-.001.094 0 .088.027.11199.1468.18798.1248.05-.014.055-.078.063-.1248.033-.036.074-.093.12498-.094.083 0 .095.075.12499.1559.017.046.051.1079.063.1559.021.083.017.3249 0 .3748-.021.061-.10599.089-.15598.156-.024.031-.044.071-.063.094-.032.04-.069.057-.094.094-.014.021-.018.066-.031.094-.04.085-.096.148-.063.2499.014.042.062.076.063.125 0 .058-.11498.093-.12498.1559-.007.047.048.126.063.1879.011.047.097.094.12498.125.047.053.082.1209.12499.1879.085.1299.13598.2799.21897.4058.043.066.12698.119.15598.1879.015.035-.014.094 0 .125.048.1079.26597.2279.37495.2809.051.025.10999 0 .15598.031.071.039.21398.1569.24997.2189.032.056.047.1929.063.2808.021.117-.005.2169 0 .3439.004.069.03.1189.031.1879 0 .024.0001.07 0 .094-.002.083.007.1659 0 .2498-.004.046-.003.087 0 .125.004.041.028.057.031.094.002.039-.035.095-.031.125.009.084.077.1419.094.2189.013.061.039.2079.031.2809-.005.039-.025.083-.031.1249-.004.033.005.062 0 .094-.006.047-.034.081-.031.1249.006.09.08.16.094.2499.005.03-.0001.065 0 .094.0001.027.023.038.031.063-.26297-.1499-.50894-.3178-.74991-.4997-.22897-.173-.45094-.3639-.65592-.5628-.001-.001-.021-.021-.031-.031-.20698-.2039-.41395-.4278-.59393-.6557-.10398-.1319-.21797-.2669-.31296-.4058-.056-.083-.10399-.1639-.15598-.2499-.032-.051-.063-.104-.094-.1559-.089-.153-.17297-.3078-.24997-.4687-.049-.101-.081-.2079-.12498-.3129-.10499-.2479-.20497-.4888-.28096-.7497-.054-.1849-.086-.3708-.12499-.5627-.03-.146-.073-.2889-.094-.4378-.011-.081-.023-.168-.031-.2499-.024-.2349-.031-.4768-.031-.7186 0-.3019.026-.5837.063-.8746.0001-.001-.0001-.021 0-.031.063 0 .14899-.092.21898-.094m2.68766.7497c.064-.029.084.117.031.125-.05.001-.08-.102-.031-.125" 
	 transform="translate(-421.71426-525.79074)"
	 class="ColorScheme-Text"
     />
	  <path 
	  style="fill:currentColor;fill-opacity:1;stroke:none" 
	 d="M11 3A8 8 0 0 0 3 11 8 8 0 0 0 11 19 8 8 0 0 0 19 11 8 8 0 0 0 11 3M11 4A7 7 0 0 1 18 11 7 7 0 0 1 11 18 7 7 0 0 1 4 11 7 7 0 0 1 11 4" 
	 class="ColorScheme-Highlight"
	 />
</svg>
