<svg xmlns="http://www.w3.org/2000/svg" viewBox="0 0 22 22">
  <defs id="defs3051">
    <style type="text/css" id="current-color-scheme">
      .ColorScheme-Text {
        color:#4d4d4d;
      }
      </style>
  </defs>
 <path 
     style="fill:currentColor;fill-opacity:1;stroke:none" 
	 d="M11 3A7 8 0 0 0 4 11 7 8 0 0 0 11 19 7 8 0 0 0 16.552734 15.859375L15.794922 15.195312A6 7 0 0 1 11 18 6 7 0 0 1 5 11 6 7 0 0 1 11 4 6 7 0 0 1 15.794922 6.804688L16.550781 6.142578A7 8 0 0 0 11 3"
	 class="ColorScheme-Text"
     />
</svg>
