<svg xmlns="http://www.w3.org/2000/svg" xmlns:xlink="http://www.w3.org/1999/xlink" viewBox="0 0 22 22">
 <defs>
  <path id="H" d="m24 8c-8.863992 0-16 7.136008-16 16h16v-16"/>
  <path id="I" d="m408.57143 539.798c8.86399 0 16-7.13601 16-16h-16v16"/>
  <path id="J" d="m408.57143 539.798c-8.86399 0-16-7.13601-16-16h16v16"/>
  <clipPath id="A">
   <rect width="31.999989" height="31.999971" x="392.57144" y="507.798" ry="15.999985" rx="15.999986" style="fill:none"/>
  </clipPath>
  <clipPath>
   <rect width="31.999989" height="31.999971" x="8.00001" y="8" ry="15.999985" rx="15.999986" style="fill:none"/>
  </clipPath>
  <clipPath id="B">
   <rect width="31.999989" height="31.999971" x="392.57144" y="507.798" ry="15.999985" rx="15.999986" style="fill:none"/>
  </clipPath>
  <clipPath id="C">
   <rect width="31.999989" height="31.999971" x="392.57144" y="507.798" ry="15.999985" rx="15.999986" style="fill:none"/>
  </clipPath>
  <clipPath>
   <rect width="31.999989" height="31.999971" x="392.57144" y="507.798" ry="15.999985" rx="15.999986" style="fill:none"/>
  </clipPath>
  <clipPath id="F">
   <rect ry="15.999985" y="507.798" x="392.57144" height="31.999971" width="31.999989" rx="15.999986" style="fill:none"/>
  </clipPath>
  <clipPath>
   <rect width="31.999989" height="31.999971" x="392.57144" y="507.798" ry="15.999985" rx="15.999986" style="fill:none"/>
  </clipPath>
  <clipPath id="E">
   <rect ry="15.999985" y="507.798" x="392.57144" height="31.999971" width="31.999989" rx="15.999986" style="fill:none"/>
  </clipPath>
  <clipPath>
   <rect width="31.999989" height="31.999971" x="392.57144" y="507.798" ry="15.999985" rx="15.999986" style="fill:none"/>
  </clipPath>
  <clipPath id="D">
   <rect ry="15.999985" y="8" x="8.00001" height="31.999971" width="31.999989" rx="15.999986" style="fill:none"/>
  </clipPath>
  <clipPath id="9">
   <rect width="31.999989" height="31.999971" x="8.00001" y="8" ry="15.999985" rx="15.999986" style="fill:none"/>
  </clipPath>
  <clipPath>
   <path d="m0 706.465h1490.926v-706.465h-1490.926v706.465"/>
  </clipPath>
  <clipPath>
   <path d="m22.1953 686.117h1447.7347v-667.1902h-1447.7347v667.1902"/>
  </clipPath>
  <clipPath id="G">
   <rect ry="15.999985" y="507.798" x="392.57144" height="31.999971" width="31.999989" rx="15.999986" style="fill:none"/>
  </clipPath>
  <clipPath id="5">
   <rect width="31.999989" height="31.999971" x="8.00001" y="8" ry="15.999985" rx="15.999986" style="fill:none"/>
  </clipPath>
  <clipPath id="7">
   <rect width="31.999989" height="31.999971" x="392.57144" y="507.798" ry="15.999985" rx="15.999986" style="fill:none"/>
  </clipPath>
  <clipPath id="8">
   <rect width="31.999989" height="31.999971" x="392.57144" y="507.798" ry="15.999985" rx="15.999986" style="fill:none"/>
  </clipPath>
  <clipPath id="6">
   <rect width="31.999989" height="31.999971" x="392.57144" y="507.798" ry="15.999985" rx="15.999986" style="fill:none"/>
  </clipPath>
  <filter height="1.12" y="-.06" width="1.12" x="-.06" id="4" style="color-interpolation-filters:sRGB">
   <feGaussianBlur stdDeviation=".4"/>
  </filter>
  <linearGradient y2="539.798" x2="408.57142" y1="523.798" x1="424.57143" gradientUnits="userSpaceOnUse" id="3">
   <stop style="stop-color:#c1cc00"/>
   <stop offset=".312499" style="stop-color:#dfcd00"/>
   <stop offset=".562499" style="stop-color:#f0cc00"/>
   <stop offset=".75" style="stop-color:#fd8c08"/>
   <stop offset="1" style="stop-color:#f25c13"/>
  </linearGradient>
  <linearGradient y2="8" x2="24.00001" y1="23.999973" x1="8" gradientUnits="userSpaceOnUse" id="0">
   <stop style="stop-color:#e81877"/>
   <stop offset=".312499" style="stop-color:#dd1d8c"/>
   <stop offset=".562499" style="stop-color:#6d57b1"/>
   <stop offset=".75" style="stop-color:#2a78c1"/>
   <stop offset="1" style="stop-color:#018dcb"/>
  </linearGradient>
  <linearGradient y2="507.798" x2="408.57142" y1="523.79797" x1="424.57143" gradientUnits="userSpaceOnUse" id="2">
   <stop style="stop-color:#bec900"/>
   <stop offset=".312499" style="stop-color:#9ec80a"/>
   <stop offset=".562499" style="stop-color:#71b93d"/>
   <stop offset=".75" style="stop-color:#35a48f"/>
   <stop offset="1" style="stop-color:#018fca"/>
  </linearGradient>
  <linearGradient y2="539.798" x2="408.57144" y1="523.79797" x1="392.57143" gradientUnits="userSpaceOnUse" id="1">
   <stop style="stop-color:#e51561"/>
   <stop offset=".312499" style="stop-color:#e4156c"/>
   <stop offset=".562499" style="stop-color:#e71e2c"/>
   <stop offset=".75" style="stop-color:#e8301e"/>
   <stop offset="1" style="stop-color:#e6320e"/>
  </linearGradient>
 </defs>
 <g transform="matrix(1.24886488 0 0 1.24886725-2.73753-1289.52317)">
  <g transform="matrix(.38637035.10352758-.10352762.3863702-92.63233 796.68388)">
   <use transform="translate(384.57143 499.798)" xlink:href="#H" style="clip-path:url(#5);fill:url(#0)"/>
   <use xlink:href="#J" style="clip-path:url(#6);fill:url(#1)"/>
   <path d="m408.57143 507.798c8.86399 0 16 7.13601 16 16h-16v-16" style="clip-path:url(#7);fill:url(#2)"/>
   <use xlink:href="#I" style="clip-path:url(#8);fill:url(#3)"/>
  </g>
  <g transform="matrix(.4 0 0 .39999984-152.42858 831.8431)" style="opacity:.7">
   <use transform="translate(384.57143 499.798)" xlink:href="#H" style="clip-path:url(#9);fill:url(#0);filter:url(#4)"/>
   <use xlink:href="#J" style="clip-path:url(#A);fill:url(#1);filter:url(#4)"/>
   <use xlink:href="#I" style="clip-path:url(#B);fill:url(#3);filter:url(#4)"/>
   <path d="m408.57143 507.798c8.86399 0 16 7.13601 16 16h-16v-16" style="clip-path:url(#C);fill:url(#2);filter:url(#4)"/>
  </g>
  <use transform="matrix(.28284272.28284261-.28284272.28284261 10.999996 1027.7858)" xlink:href="#H" style="clip-path:url(#9);fill:url(#0);opacity:.35"/>
  <path d="m408.57143 539.798c-8.86399 0-16-7.13601-16-16h16v16" transform="matrix(.28284272.28284261-.28284272.28284261 43.590992 777.64842)" style="clip-path:url(#A);fill:url(#1);opacity:.35"/>
  <use transform="matrix(.28284272.28284261-.28284272.28284261 43.590992 777.64842)" xlink:href="#I" style="clip-path:url(#B);fill:url(#3);opacity:.35"/>
  <path d="m408.57143 507.798c8.86399 0 16 7.13601 16 16h-16v-16" transform="matrix(.28284272.28284261-.28284272.28284261 43.590992 777.64842)" style="clip-path:url(#C);fill:url(#2);opacity:.35"/>
  <g transform="matrix(.10352762.3863702-.38637035.10352758 171.08159 829.27487)">
   <use transform="translate(384.57142 499.79801)" xlink:href="#H" style="clip-path:url(#D);fill:url(#0);opacity:.3"/>
   <use transform="translate(-.000006.00001)" xlink:href="#J" style="clip-path:url(#E);fill:url(#1);opacity:.3"/>
   <use transform="translate(-.000006.00001)" xlink:href="#I" style="clip-path:url(#F);fill:url(#3);opacity:.3"/>
   <path transform="translate(-.000006.00001)" d="m408.57143 507.798c8.86399 0 16 7.13601 16 16h-16v-16" style="clip-path:url(#G);fill:url(#2);opacity:.3"/>
  </g>
 </g>
</svg>
