<?xml version="1.0"?>
<!-- Created with Inkscape (http://www.inkscape.org/) -->
<svg xmlns:dc="http://purl.org/dc/elements/1.1/" xmlns:cc="http://creativecommons.org/ns#" xmlns:rdf="http://www.w3.org/1999/02/22-rdf-syntax-ns#" xmlns:svg="http://www.w3.org/2000/svg" xmlns="http://www.w3.org/2000/svg" xmlns:sodipodi="http://sodipodi.sourceforge.net/DTD/sodipodi-0.dtd" xmlns:inkscape="http://www.inkscape.org/namespaces/inkscape" width="22" height="22" id="svg3049" version="1.1" inkscape:version="0.91 r13725" sodipodi:docname="im-user-offline.svg" inkscape:export-filename="/home/uri/.kde/share/icons/NITRUX-KDE/16x16/actions/view-right-new.png" inkscape:export-xdpi="30" inkscape:export-ydpi="30">
  <defs id="defs3051">
    <style type="text/css" id="current-color-scheme">
      .ColorScheme-Text {
        color:#4d4d4d;
      }
      .ColorScheme-Background {
        color:#eff0f1;
      }
      .ColorScheme-Highlight {
        color:#3daee9;
      }
      .ColorScheme-ViewText {
        color:#31363b;
      }
      .ColorScheme-ViewBackground {
        color:#fcfcfc;
      }
      .ColorScheme-ViewHover {
        color:#93cee9;
      }
      .ColorScheme-ViewFocus{
        color:#3daee9;
      }
      .ColorScheme-ButtonText {
        color:#31363b;
      }
      .ColorScheme-ButtonBackground {
        color:#eff0f1;
      }
      .ColorScheme-ButtonHover {
        color:#93cee9;
      }
      .ColorScheme-ButtonFocus{
        color:#3daee9;
      }
      </style>
  </defs>
  <sodipodi:namedview id="base" pagecolor="#ffffff" bordercolor="#666666" borderopacity="1.0" inkscape:pageopacity="0.0" inkscape:pageshadow="2" inkscape:zoom="87.563389" inkscape:cx="14.737402" inkscape:cy="7.4179973" inkscape:document-units="px" inkscape:current-layer="layer1" showgrid="true" fit-margin-top="0" fit-margin-left="0" fit-margin-right="0" fit-margin-bottom="0" inkscape:window-width="1920" inkscape:window-height="1008" inkscape:window-x="-4" inkscape:window-y="0" inkscape:window-maximized="1" inkscape:showpageshadow="false" borderlayer="true" inkscape:object-nodes="true">
    <sodipodi:guide position="1.9999956,20" orientation="18,0" id="guide4067"/>
    <sodipodi:guide position="1.9999956,2.0000004" orientation="0,18" id="guide4069"/>
    <sodipodi:guide position="19.999996,2.0000004" orientation="-18,0" id="guide4071"/>
    <sodipodi:guide position="19.999996,20" orientation="0,-18" id="guide4073"/>
    <sodipodi:guide position="2.9999956,19" orientation="16,0" id="guide4077"/>
    <sodipodi:guide position="2.9999956,3.0000004" orientation="0,16" id="guide4079"/>
    <sodipodi:guide position="18.999996,3.0000004" orientation="-16,0" id="guide4081"/>
    <sodipodi:guide position="18.999996,19" orientation="0,-16" id="guide4083"/>
    <inkscape:grid type="xygrid" id="grid4085" originx="-8.8635937e-06" originy="-2.9100781e-05"/>
  </sodipodi:namedview>
  <metadata id="metadata3054">
    <rdf:RDF>
      <cc:Work rdf:about="">
        <dc:format>image/svg+xml</dc:format>
        <dc:type rdf:resource="http://purl.org/dc/dcmitype/StillImage"/>
        <dc:title/>
      </cc:Work>
    </rdf:RDF>
  </metadata>
  <g inkscape:label="Capa 1" inkscape:groupmode="layer" id="layer1" transform="translate(-421.71429,-525.79071)">
    <path style="opacity:1;fill:#bdc3c7;fill-opacity:1;stroke:none" d="m 432.71429,528.79032 a 3.9999902,4.0000296 0 0 0 -4,4 3.9999902,4.0000296 0 0 0 4,4 3.9999902,4.0000296 0 0 0 4,-4 3.9999902,4.0000296 0 0 0 -4,-4 z m 0,1 a 3,3.0000296 0 0 1 3,3 3,3.0000296 0 0 1 -3,3 3,3.0000296 0 0 1 -3,-3 3,3.0000296 0 0 1 3,-3 z" id="path4149" inkscape:connector-curvature="0"/>
    <path style="opacity:1;fill:#bdc3c7;fill-opacity:1;stroke:none" d="m 12,13 a 7.9999504,8.0000296 0 0 0 -7.9277344,7 l 1.0078125,0 A 6.9999604,7.0000296 0 0 1 12,14 a 6.9999604,7.0000296 0 0 1 1,0.08008 l 0,-1.009766 A 7.9999504,8.0000296 0 0 0 12,13 Z" transform="translate(420.71429,524.79071)" id="ellipse4156" inkscape:connector-curvature="0"/>
    <path style="opacity:1;fill:#bdc3c7;fill-opacity:1;stroke:none" d="M 15.5,12 C 13.567003,12 12,13.567003 12,15.5 12,17.432997 13.567003,19 15.5,19 17.432997,19 19,17.432997 19,15.5 19,13.567003 17.432997,12 15.5,12 Z m -2.500009,3.000029 5,0 0,1 -5,0 z" transform="translate(421.71429,525.79071)" id="path4167" inkscape:connector-curvature="0" sodipodi:nodetypes="sssssccccc"/>
    <rect style="fill:#ffffff;fill-opacity:1;stroke:none;stroke-linecap:butt;stroke-linejoin:round" id="rect4145" width="5" height="1" x="434.71429" y="540.79071"/>
  </g>
</svg>
