<svg xmlns="http://www.w3.org/2000/svg" viewBox="0 0 22 22">
  <defs id="defs3051">
    <style type="text/css" id="current-color-scheme">
      .ColorScheme-Text {
        color:#4d4d4d;
      }
      </style>
  </defs>
 <path 
     style="fill:currentColor;fill-opacity:0.5;stroke:none" 
     d="M 5 5 L 5 6 L 9 6 L 9 5 L 5 5 z M 11.853516 6.1464844 L 11.146484 6.8535156 L 13.146484 8.8535156 L 13.853516 8.1464844 L 11.853516 6.1464844 z M 17.146484 6.1464844 L 15.146484 8.1464844 L 15.853516 8.8535156 L 17.853516 6.8535156 L 17.146484 6.1464844 z M 3 7 L 3 15 L 4 15 L 4 7 L 3 7 z M 10 7 L 10 15 L 11 15 L 11 7 L 10 7 z M 5 16 L 5 17 L 9 17 L 9 16 L 5 16 z "
     class="ColorScheme-Text"
     />
 <path 
     style="fill:currentColor;fill-opacity:1;stroke:none" 
     d="M 2 4 L 2 7 L 5 7 L 5 4 L 2 4 z M 9 4 L 9 7 L 12 7 L 12 4 L 9 4 z M 17 4 L 17 7 L 20 7 L 20 4 L 17 4 z M 3 5 L 4 5 L 4 6 L 3 6 L 3 5 z M 10 5 L 11 5 L 11 6 L 10 6 L 10 5 z M 18 5 L 19 5 L 19 6 L 18 6 L 18 5 z M 13 8 L 13 11 L 16 11 L 16 8 L 13 8 z M 14 9 L 15 9 L 15 10 L 14 10 L 14 9 z M 2 15 L 2 18 L 5 18 L 5 15 L 2 15 z M 9 15 L 9 18 L 12 18 L 12 15 L 9 15 z M 3 16 L 4 16 L 4 17 L 3 17 L 3 16 z M 10 16 L 11 16 L 11 17 L 10 17 L 10 16 z "
     class="ColorScheme-Text"
     />
</svg>
