<svg xmlns="http://www.w3.org/2000/svg" viewBox="0 0 22 22">
  <defs id="defs3051">
    <style type="text/css" id="current-color-scheme">
      .ColorScheme-Text {
        color:#4d4d4d;
      }
      .ColorScheme-Highlight {
        color:#3daee9;
      }
      </style>
  </defs>
    <path
     style="fill:currentColor;fill-opacity:1;stroke:none" 
     d="m 11,4 a 7,7 0 0 0 -7,7 7,7 0 0 0 7,7 7,7 0 0 0 7,-7 7,7 0 0 0 -7,-7 z"
     class="ColorScheme-Highlight"
     />
 <path 
     style="fill:currentColor;fill-opacity:1;stroke:none" 
     d="M 18.507664,2.0085649 C 17.21672,1.9061675 15.203123,2.7253487 12.918248,4.2795048 a 6.9994649,6.9983219 0 0 1 1.249905,0.4901167 C 16.569065,3.132598 18.411467,2.4468578 18.93732,3.299271 19.77371,4.6550702 16.968824,9.3840312 12.51203,13.455038 8.0552349,17.526045 3.7983678,19.958041 2.9619776,18.602242 2.4983032,17.850621 3.2126068,16.079636 4.6747373,13.968587 A 6.9994649,6.9983219 0 0 1 4.2841421,12.943442 C 2.5143079,15.554087 1.6223044,17.88786 2.1514928,19.125554 3.0636295,21.260032 7.7647462,19.352681 12.650691,14.864856 17.536453,10.377031 20.757911,5.0096482 19.845453,2.8755445 19.617419,2.3419251 19.152935,2.0597475 18.507664,2.0085649 Z"
     class="ColorScheme-Text"
     />
</svg>
