<svg xmlns="http://www.w3.org/2000/svg" viewBox="0 0 22 22">
  <defs id="defs3051">
    <style type="text/css" id="current-color-scheme">
      .ColorScheme-Text {
        color:#4d4d4d;
      }
      .ColorScheme-Highlight {
        color:#3daee9;
      }
      </style>
  </defs>
 <path 
     style="fill:currentColor;fill-opacity:1;stroke:none" 
     d="m 20,3 0,8 -1,0 0,-7 -8,0 0,7 0,7 0,1 -9,0 0,-1 0,-7 1,0 0,7 7,0 0,-7 0,-8 9,0 1,0 z"
     class="ColorScheme-Highlight"
     />
 <path 
     style="fill:currentColor;fill-opacity:1;stroke:none" 
     d="M 14.986328 3 C 14.284631 3.0192827 13.661988 3.3410719 13.158203 3.8242188 C 12.654418 4.3073656 12.244073 4.9493525 11.876953 5.6914062 C 11.142713 7.175514 10.58168 9.0744923 10.019531 10.949219 C 9.4573822 12.823945 8.8944744 14.674274 8.2246094 16 C 7.8896774 16.662863 7.5279201 17.190006 7.1582031 17.525391 C 6.7884861 17.860775 6.4372779 18.01175 6.0136719 18 L 6.0078125 18 L 6 18 C 5.611552 18 5.2086985 17.695879 4.8046875 17.060547 C 4.4006755 16.425215 4.0487937 15.520083 3.7773438 14.607422 C 3.2344427 12.782099 2.9960938 10.935547 2.9960938 10.935547 L 2.0039062 11.064453 C 2.0039062 11.064453 2.2459084 12.967901 2.8183594 14.892578 C 3.1045854 15.854917 3.4707055 16.824785 3.9609375 17.595703 C 4.4495795 18.364122 5.1155655 18.993947 5.9921875 18.998047 C 6.6907475 19.015512 7.3228281 18.727724 7.8300781 18.267578 C 8.3389091 17.805998 8.7494105 17.179038 9.1171875 16.451172 C 9.8527405 14.99544 10.414212 13.111727 10.976562 11.236328 C 11.538913 9.3609293 12.100846 7.4942625 12.773438 6.1347656 C 13.109732 5.4550172 13.473786 4.9073026 13.849609 4.546875 C 14.222881 4.1888945 14.585059 4.0176853 15.005859 4.0039062 C 15.443871 4.006598 15.943219 4.3366195 16.443359 4.9785156 C 16.945528 5.6230144 17.412178 6.5292407 17.796875 7.4433594 C 18.566268 9.2715966 19.013672 11.117188 19.013672 11.117188 L 19.986328 10.882812 C 19.986328 10.882812 19.527502 8.9784034 18.71875 7.0566406 C 18.314374 6.0957593 17.823996 5.1269856 17.230469 4.3652344 C 16.636942 3.6034832 15.90442 3 15 3 L 14.992188 3 L 14.986328 3 z M 13 12 L 13 12.464844 L 13 13 L 13 13.302734 L 14.890625 16.138672 L 15 16.302734 L 15 20 L 16 20 L 18 18 L 18 16.302734 L 18.109375 16.138672 L 20 13.302734 L 20 13 L 20 12.464844 L 20 12 L 13 12 z M 14 13 L 19 13 L 17.277344 15.583984 L 17 16 L 17 17.585938 L 16 18.585938 L 16 16 L 15.722656 15.583984 L 14 13 z "
     class="ColorScheme-Text"
     />
</svg>
