<svg xmlns="http://www.w3.org/2000/svg" viewBox="0 0 22 22">
  <defs id="defs3051">
    <style type="text/css" id="current-color-scheme">
      .ColorScheme-Text {
        color:#4d4d4d;
      }
      </style>
  </defs>
 <path 
     style="fill:currentColor;fill-opacity:1;stroke:none" 
     d="M 16.78125 5.96875 L 16.75 6.0253906 C 16.675747 6.0129528 16.600949 6 16.523438 6 C 15.705637 6 14.99808 6.7232175 15 7.5234375 C 14.999104 7.8820986 15.146635 8.211476 15.376953 8.4707031 L 12.255859 14.025391 C 12.179806 14.012324 12.102929 14 12.023438 14 C 12.010177 14 11.997576 14.003529 11.984375 14.003906 L 10.441406 9.6699219 C 10.780712 9.3965904 11.001101 8.9823677 11 8.5234375 C 11.002 7.7232175 10.341227 7 9.5234375 7 C 8.7056375 7 7.99808 7.7232175 8 8.5234375 C 7.999855 8.5814345 8.0104927 8.6368707 8.0175781 8.6933594 L 5.5371094 9.9335938 C 5.2726236 9.6700304 4.9175893 9.5 4.5234375 9.5 C 3.7056375 9.5 2.99808 10.223218 3 11.023438 C 2.998 11.823668 3.7056375 12.5 4.5234375 12.5 C 5.3412275 12.5 6.00192 11.823668 6 11.023438 C 6.0001838 10.949909 5.9891251 10.878362 5.9785156 10.806641 L 8.4609375 9.5664062 C 8.7358107 9.8292928 9.1074172 9.9937386 9.5078125 9.9980469 L 11.070312 14.365234 C 10.728051 14.651527 10.498918 15.072594 10.5 15.523438 C 10.498 16.323668 11.205637 17 12.023438 17 C 12.841227 17 13.50192 16.323668 13.5 15.523438 C 13.500924 15.153849 13.354965 14.804237 13.123047 14.53125 L 16.21875 9.03125 L 16.808594 13.201172 C 16.335686 13.468979 15.998683 13.974625 16 14.523438 C 15.998 15.323668 16.705637 16 17.523438 16 C 18.341227 16 19.00192 15.323668 19 14.523438 C 19.00177 13.815424 18.484362 13.171055 17.798828 13.03125 L 17.199219 8.828125 C 17.674681 8.5790687 18.001346 8.084283 18 7.5234375 C 18.001776 6.8127687 17.480385 6.1657984 16.791016 6.0292969 L 16.78125 5.96875 z "
     class="ColorScheme-Text"
     />
</svg>
