<svg xmlns="http://www.w3.org/2000/svg" viewBox="0 0 22 22">
  <defs id="defs3051">
    <style type="text/css" id="current-color-scheme">
      .ColorScheme-Text {
        color:#4d4d4d;
      }
      .ColorScheme-Highlight {
        color:#3daee9;
      }
      </style>
  </defs>
 <path 
     style="fill:currentColor;fill-opacity:1;stroke:none" 
     d="m 17,5.4980469 c -0.0024,1.5919006 -0.05756,3.4458044 -0.433594,4.9003911 -0.188018,0.727293 -0.456196,1.349595 -0.80664,1.792968 -0.350445,0.443374 -0.761841,0.717055 -1.341797,0.814453 -2.53019,0.424922 -4.980705,-1.332267 -6.570313,-2.865234 l -0.695312,0.71875 c 1.678554,1.618743 4.367731,3.647039 7.429687,3.132813 0.824378,-0.138447 1.488289,-0.581187 1.962891,-1.181641 0.474602,-0.600454 0.779948,-1.348678 0.990234,-2.162109 C 17.955728,9.0215754 17.997536,7.1106163 18,5.5 L 17,5.49805 Z"
     class="ColorScheme-Highlight"
     />
 <path 
     style="fill:currentColor;fill-opacity:1;stroke:none" 
     d="m 4,3 0,14 -1,0 0,1 1,0 0,1 1,0 0,-1 14,0 0,-1 L 5,17 5,3 4,3 Z m 13,1 0,1 1,0 0,-1 -1,0 z m 1,1 0,1 1,0 0,-1 -1,0 z m 0,1 -1,0 0,1 1,0 0,-1 z m -1,0 0,-1 -1,0 0,1 1,0 z M 7,9 7,10 8,10 8,9 7,9 Z m 1,1 0,1 1,0 0,-1 -1,0 z m 0,1 -1,0 0,1 1,0 0,-1 z m -1,0 0,-1 -1,0 0,1 1,0 z m 7,1 0,1 1,0 0,-1 -1,0 z m 1,1 0,1 1,0 0,-1 -1,0 z m 0,1 -1,0 0,1 1,0 0,-1 z m -1,0 0,-1 -1,0 0,1 1,0 z"
     class="ColorScheme-Text"
     />
</svg>
