<svg xmlns="http://www.w3.org/2000/svg" viewBox="0 0 22 22">
  <defs id="defs3051">
    <style type="text/css" id="current-color-scheme">
      .ColorScheme-Text {
        color:#4d4d4d;
      }
      </style>
  </defs>
 <path 
    style="fill:currentColor;fill-opacity:1;stroke:none" 
    d="M 7 3 C 4.23858 3 2 5.23858 2 8 C 2 13 9 17 11 19 C 13 17 20 13 20 8 C 20 5.23858 17.76142 3 15 3 C 13.36041 3 11.91181 3.78077 11 5 C 10.08819 3.78077 8.6396 3 7 3 z M 7 5 C 10 5 11 7 11 7 C 11 7 12 5 15 5 C 16.65685 5 18 6.34315 18 8 C 18 12 13 15 11 17 C 9 15 4 12 4 8 C 4 6.34315 5.34315 5 7 5 z "
    class="ColorScheme-Text"
    />  
</svg>
