<?xml version="1.0"?>
<!-- Created with Inkscape (http://www.inkscape.org/) -->
<svg xmlns:dc="http://purl.org/dc/elements/1.1/" xmlns:cc="http://creativecommons.org/ns#" xmlns:rdf="http://www.w3.org/1999/02/22-rdf-syntax-ns#" xmlns:svg="http://www.w3.org/2000/svg" xmlns="http://www.w3.org/2000/svg" xmlns:sodipodi="http://sodipodi.sourceforge.net/DTD/sodipodi-0.dtd" xmlns:inkscape="http://www.inkscape.org/namespaces/inkscape" width="22" height="22" id="svg3049" version="1.1" inkscape:version="0.91 r13725" sodipodi:docname="media-random-albums-amarok.svg" inkscape:export-filename="/home/uri/.kde/share/icons/NITRUX-KDE/16x16/actions/view-right-new.png" inkscape:export-xdpi="30" inkscape:export-ydpi="30">
  <defs id="defs3051">
    <style type="text/css" id="current-color-scheme">
      .ColorScheme-Text {
        color:#4d4d4d;
      }
      .ColorScheme-Background {
        color:#eff0f1;
      }
      .ColorScheme-Highlight {
        color:#3daee9;
      }
      .ColorScheme-ViewText {
        color:#31363b;
      }
      .ColorScheme-ViewBackground {
        color:#fcfcfc;
      }
      .ColorScheme-ViewHover {
        color:#93cee9;
      }
      .ColorScheme-ViewFocus{
        color:#3daee9;
      }
      .ColorScheme-ButtonText {
        color:#31363b;
      }
      .ColorScheme-ButtonBackground {
        color:#eff0f1;
      }
      .ColorScheme-ButtonHover {
        color:#93cee9;
      }
      .ColorScheme-ButtonFocus{
        color:#3daee9;
      }
      </style>
  </defs>
  <sodipodi:namedview id="base" pagecolor="#ffffff" bordercolor="#666666" borderopacity="1.0" inkscape:pageopacity="0.0" inkscape:pageshadow="2" inkscape:zoom="34.818182" inkscape:cx="11" inkscape:cy="11" inkscape:document-units="px" inkscape:current-layer="layer1" showgrid="true" fit-margin-top="0" fit-margin-left="0" fit-margin-right="0" fit-margin-bottom="0" inkscape:window-width="2560" inkscape:window-height="948" inkscape:window-x="0" inkscape:window-y="35" inkscape:window-maximized="1" inkscape:showpageshadow="false" borderlayer="true" showguides="true" inkscape:object-nodes="true">
    <sodipodi:guide position="2.0000044,20.00003" orientation="18,0" id="guide4067"/>
    <sodipodi:guide position="2.0000044,2.0000296" orientation="0,18" id="guide4069"/>
    <sodipodi:guide position="20.000004,2.0000296" orientation="-18,0" id="guide4071"/>
    <sodipodi:guide position="20.000004,20.00003" orientation="0,-18" id="guide4073"/>
    <sodipodi:guide position="3.0000044,19.00003" orientation="16,0" id="guide4077"/>
    <sodipodi:guide position="3.0000044,3.0000296" orientation="0,16" id="guide4079"/>
    <sodipodi:guide position="19.000004,3.0000296" orientation="-16,0" id="guide4081"/>
    <sodipodi:guide position="19.000004,19.00003" orientation="0,-16" id="guide4083"/>
    <inkscape:grid type="xygrid" id="grid4085"/>
  </sodipodi:namedview>
  <metadata id="metadata3054">
    <rdf:RDF>
      <cc:Work rdf:about="">
        <dc:format>image/svg+xml</dc:format>
        <dc:type rdf:resource="http://purl.org/dc/dcmitype/StillImage"/>
        <dc:title/>
      </cc:Work>
    </rdf:RDF>
  </metadata>
  <g inkscape:label="Capa 1" inkscape:groupmode="layer" id="layer1" transform="translate(-421.71429,-525.79074)">
    <path style="opacity:1;fill:currentColor;fill-opacity:1;stroke:none" d="M 17 11 L 17 12 L 16 12 L 15.976562 12 C 14.327554 12 13 13.327554 13 14.976562 L 13 15 C 13 16.108 12.108 17 11 17 L 8 17 L 8 18 L 11 18 L 11.023438 18 C 12.672446 18 14 16.672446 14 15.023438 L 14 15 C 14 13.892 14.892 13 16 13 L 17 13 L 17 14 L 19 12.5 L 17 11 z M 8 12 L 8 13 L 11 13 C 11.398899 13 11.766762 13.118675 12.078125 13.318359 C 12.153845 12.981498 12.288 12.669142 12.466797 12.386719 C 12.037922 12.147813 11.551108 12 11.023438 12 L 11 12 L 8 12 z M 17 16 L 17 17 L 16 17 C 15.601101 17 15.233238 16.881325 14.921875 16.681641 C 14.846152 17.018502 14.712 17.330858 14.533203 17.613281 C 14.962077 17.852187 15.44889 18 15.976562 18 L 16 18 L 17 18 L 17 19 L 19 17.5 L 17 16 z " transform="translate(421.71429,525.79074)" id="rect3368" class="ColorScheme-Text"/>
    <path style="fill:currentColor;fill-opacity:1;stroke:none" d="M 2 3 L 2 19 L 3 19 L 7 19 L 7 17 C 6.44772 17 6 17.44772 6 18 L 5 18 L 5 11 L 5 4 L 6 4 C 6 4.55228 6.44772 5 7 5 C 7.55228 5 8 4.55228 8 4 L 12 4 L 16 4 C 16 4.55228 16.44772 5 17 5 C 17.55228 5 18 4.55228 18 4 L 19 4 L 19 11 L 20 11 L 20 3 L 3 3 L 2 3 z M 19 11 C 19 7.13401 15.86599 4 12 4 C 8.13401 4 5 7.13401 5 11 C 5.0020604 12.854914 5.7493049 14.583962 7 15.867188 L 7 14.287109 C 6.3661508 13.324994 6.00133 12.191529 6 11 C 6 7.68629 8.68629 5 12 5 C 15.31371 5 18 7.68629 18 11 L 19 11 z M 3 4 L 4 4 L 4 18 L 3 18 L 3 4 z " transform="translate(421.71429,525.79074)" id="rect4143" class="ColorScheme-Text"/>
  </g>
</svg>
