<?xml version="1.0" encoding="UTF-8" standalone="no"?>
<!-- Created with Inkscape (http://www.inkscape.org/) -->

<svg
   xmlns:dc="http://purl.org/dc/elements/1.1/"
   xmlns:cc="http://creativecommons.org/ns#"
   xmlns:rdf="http://www.w3.org/1999/02/22-rdf-syntax-ns#"
   xmlns:svg="http://www.w3.org/2000/svg"
   xmlns="http://www.w3.org/2000/svg"
   xmlns:sodipodi="http://sodipodi.sourceforge.net/DTD/sodipodi-0.dtd"
   xmlns:inkscape="http://www.inkscape.org/namespaces/inkscape"
   width="22"
   height="22"
   id="svg3869"
   version="1.1"
   inkscape:version="0.91 r13725"
   sodipodi:docname="path-simplify.svg">
  <defs
     id="defs3871">
    <style
       type="text/css"
       id="current-color-scheme">
      .ColorScheme-Text {
        color:#4d4d4d;
      }
      .ColorScheme-Background {
        color:#eff0f1;
      }
      .ColorScheme-Highlight {
        color:#3daee9;
      }
      .ColorScheme-ViewText {
        color:#31363b;
      }
      .ColorScheme-ViewBackground {
        color:#fcfcfc;
      }
      .ColorScheme-ViewHover {
        color:#93cee9;
      }
      .ColorScheme-ViewFocus{
        color:#3daee9;
      }
      .ColorScheme-ButtonText {
        color:#31363b;
      }
      .ColorScheme-ButtonBackground {
        color:#eff0f1;
      }
      .ColorScheme-ButtonHover {
        color:#93cee9;
      }
      .ColorScheme-ButtonFocus{
        color:#3daee9;
      }
      </style>
  </defs>
  <sodipodi:namedview
     id="base"
     pagecolor="#ffffff"
     bordercolor="#666666"
     borderopacity="1.0"
     inkscape:pageopacity="0.0"
     inkscape:pageshadow="2"
     inkscape:zoom="16"
     inkscape:cx="11.802747"
     inkscape:cy="12.809251"
     inkscape:document-units="px"
     inkscape:current-layer="layer1"
     showgrid="true"
     fit-margin-top="0"
     fit-margin-left="0"
     fit-margin-right="0"
     fit-margin-bottom="0"
     inkscape:window-width="1920"
     inkscape:window-height="1017"
     inkscape:window-x="0"
     inkscape:window-y="0"
     inkscape:window-maximized="1"
     inkscape:showpageshadow="false"
     inkscape:snap-bbox="true"
     inkscape:object-nodes="true">
    <inkscape:grid
       type="xygrid"
       id="grid4132" />
    <sodipodi:guide
       position="2,20.000017"
       orientation="18,0"
       id="guide4138" />
    <sodipodi:guide
       position="2,2.0000174"
       orientation="0,18"
       id="guide4140" />
    <sodipodi:guide
       position="20,2.0000174"
       orientation="-18,0"
       id="guide4142" />
    <sodipodi:guide
       position="20,20.000017"
       orientation="0,-18"
       id="guide4144" />
    <sodipodi:guide
       position="3,19.000017"
       orientation="16,0"
       id="guide4146" />
    <sodipodi:guide
       position="3,3.0000174"
       orientation="0,16"
       id="guide4148" />
    <sodipodi:guide
       position="19,3.0000174"
       orientation="-16,0"
       id="guide4150" />
    <sodipodi:guide
       position="19,19.000017"
       orientation="0,-16"
       id="guide4152" />
  </sodipodi:namedview>
  <metadata
     id="metadata3874">
    <rdf:RDF>
      <cc:Work
         rdf:about="">
        <dc:format>image/svg+xml</dc:format>
        <dc:type
           rdf:resource="http://purl.org/dc/dcmitype/StillImage" />
        <dc:title></dc:title>
      </cc:Work>
    </rdf:RDF>
  </metadata>
  <g
     inkscape:label="Capa 1"
     inkscape:groupmode="layer"
     id="layer1"
     transform="translate(-326,-534.3622)">
    <rect
       style="fill:#4d4d4d;fill-opacity:1;stroke:none;stroke-linecap:square"
       id="rect4282"
       width="16"
       height="1"
       x="329"
       y="552.36218" />
    <path
       style="color:#000000;font-style:normal;font-variant:normal;font-weight:normal;font-stretch:normal;font-size:medium;line-height:normal;font-family:sans-serif;text-indent:0;text-align:start;text-decoration:none;text-decoration-line:none;text-decoration-style:solid;text-decoration-color:#000000;letter-spacing:normal;word-spacing:normal;text-transform:none;direction:ltr;block-progression:tb;writing-mode:lr-tb;baseline-shift:baseline;text-anchor:start;white-space:normal;clip-rule:nonzero;display:inline;overflow:visible;visibility:visible;opacity:1;isolation:auto;mix-blend-mode:normal;color-interpolation:sRGB;color-interpolation-filters:linearRGB;solid-color:#000000;solid-opacity:1;fill:#4d4d4d;fill-opacity:1;fill-rule:evenodd;stroke:none;stroke-width:1px;stroke-linecap:square;stroke-linejoin:miter;stroke-miterlimit:4;stroke-dasharray:none;stroke-dashoffset:0;stroke-opacity:1;color-rendering:auto;image-rendering:auto;shape-rendering:auto;text-rendering:auto;enable-background:accumulate"
       d="m 334,545.3622 c -1.16667,0 -2.44284,0.53783 -3.47266,1.05273 -0.7531,0.37656 -1.25027,0.68184 -1.52734,0.85743 l 0,1.1914 0.27734,-0.18554 c 0,0 0.72513,-0.48365 1.69532,-0.96875 0.97018,-0.48509 2.19401,-0.94727 3.02734,-0.94727 0.33333,0 0.74189,0.18239 1.19922,0.52539 0.45733,0.343 0.94726,0.82813 1.44726,1.32813 0.5,0.5 1.01007,1.01487 1.55274,1.42187 0.54267,0.407 1.13411,0.72461 1.80078,0.72461 1.16667,0 2.44284,-0.53782 3.47266,-1.05273 0.75263,-0.37632 1.25002,-0.6817 1.52734,-0.85743 l 0,-1.1914 -0.27734,0.18554 c 0,0 -0.72513,0.48366 -1.69532,0.96875 -0.97018,0.4851 -2.19401,0.94727 -3.02734,0.94727 -0.33333,0 -0.74189,-0.18044 -1.19922,-0.52344 -0.45733,-0.343 -0.94726,-0.83008 -1.44726,-1.33008 -0.5,-0.5 -1.01007,-1.01292 -1.55274,-1.41992 -0.54267,-0.407 -1.13411,-0.72656 -1.80078,-0.72656 z"
       id="path4324"
       inkscape:connector-curvature="0" />
    <path
       style="color:#000000;font-style:normal;font-variant:normal;font-weight:normal;font-stretch:normal;font-size:medium;line-height:normal;font-family:sans-serif;text-indent:0;text-align:start;text-decoration:none;text-decoration-line:none;text-decoration-style:solid;text-decoration-color:#000000;letter-spacing:normal;word-spacing:normal;text-transform:none;direction:ltr;block-progression:tb;writing-mode:lr-tb;baseline-shift:baseline;text-anchor:start;white-space:normal;clip-rule:nonzero;display:inline;overflow:visible;visibility:visible;opacity:1;isolation:auto;mix-blend-mode:normal;color-interpolation:sRGB;color-interpolation-filters:linearRGB;solid-color:#000000;solid-opacity:1;fill:#4d4d4d;fill-opacity:1;fill-rule:evenodd;stroke:none;stroke-width:1px;stroke-linecap:butt;stroke-linejoin:miter;stroke-miterlimit:4;stroke-dasharray:none;stroke-dashoffset:0;stroke-opacity:1;color-rendering:auto;image-rendering:auto;shape-rendering:auto;text-rendering:auto;enable-background:accumulate"
       d="m 336.95718,537.36474 c -0.3411,0 -0.66329,0.12775 -0.90189,0.32994 -0.2386,0.20217 -0.40199,0.46103 -0.52895,0.73796 -0.25394,0.55385 -0.3775,1.20456 -0.50613,1.82929 -0.12863,0.62473 -0.26191,1.22349 -0.43763,1.60673 -0.0879,0.19162 -0.18242,0.32322 -0.26638,0.39436 -0.084,0.0712 -0.14933,0.0996 -0.2816,0.0996 -0.12902,0 -0.19107,-0.0276 -0.27589,-0.10152 -0.0849,-0.0739 -0.18323,-0.21157 -0.27209,-0.40998 -0.17775,-0.39683 -0.31044,-1.0129 -0.43953,-1.64773 -0.1291,-0.63483 -0.25194,-1.28648 -0.50803,-1.8371 -0.12804,-0.27531 -0.29478,-0.53427 -0.54228,-0.7282 -0.24748,-0.19394 -0.58138,-0.29944 -0.92281,-0.27137 -0.65328,0.0537 -1.1199,0.54452 -1.42514,1.09328 -0.30526,0.54875 -0.49868,1.20545 -0.63932,1.84881 -0.004,0.0188 -0.006,0.036 -0.01,0.0547 l 1.00274,0 c 0.12581,-0.52971 0.29066,-1.04617 0.4928,-1.40956 0.22349,-0.40177 0.43624,-0.57164 0.65454,-0.58958 0.13042,-0.0107 0.18263,0.0102 0.25686,0.0684 0.0742,0.0582 0.16658,0.17715 0.25307,0.36312 0.17299,0.37193 0.30488,0.97856 0.43382,1.61259 0.12893,0.63403 0.25518,1.29602 0.50803,1.86053 0.12642,0.28225 0.28711,0.54628 0.52515,0.75359 0.23803,0.20732 0.56325,0.33969 0.9076,0.33969 0.3411,0 0.66329,-0.1258 0.90189,-0.32798 0.2386,-0.20218 0.40199,-0.463 0.52895,-0.73992 0.25394,-0.55385 0.37749,-1.2026 0.50613,-1.82734 0.12863,-0.62473 0.26191,-1.22544 0.43762,-1.60868 0.0879,-0.19163 0.18242,-0.32128 0.26639,-0.39242 0.084,-0.0712 0.14933,-0.10151 0.2816,-0.10151 0.13227,0 0.1957,0.0294 0.27779,0.0996 0.082,0.0702 0.17471,0.20109 0.26068,0.39241 0.17193,0.38263 0.29893,0.98306 0.42431,1.60868 0.12537,0.62561 0.25002,1.27518 0.50802,1.83124 0.12899,0.27803 0.29529,0.54049 0.53847,0.74187 0.24319,0.20138 0.56828,0.32408 0.91331,0.32408 0.34503,0 0.67103,-0.12369 0.91331,-0.32603 0.24228,-0.20235 0.40615,-0.46352 0.53276,-0.74187 0.25319,-0.55671 0.37103,-1.20651 0.4928,-1.83124 0.12178,-0.62475 0.24749,-1.22439 0.4205,-1.60478 0.0865,-0.1902 0.18141,-0.31948 0.26639,-0.39046 0.085,-0.071 0.15476,-0.10347 0.29682,-0.10347 0.28415,0 0.48296,0.15431 0.70781,0.53883 0.21185,0.36226 0.37891,0.90314 0.49471,1.46031 l 0.99513,0 c -0.006,-0.0334 -0.009,-0.0642 -0.0152,-0.0977 -0.12789,-0.65615 -0.31427,-1.32356 -0.6374,-1.87614 -0.32313,-0.55258 -0.85497,-1.02495 -1.54502,-1.02495 -0.34503,0 -0.67102,0.12563 -0.9133,0.32799 -0.24229,0.20235 -0.40616,0.46351 -0.53277,0.74186 -0.25319,0.55671 -0.37103,1.20651 -0.49281,1.83124 -0.12177,0.62473 -0.24748,1.22438 -0.4205,1.60478 -0.0865,0.1902 -0.18139,0.31948 -0.26637,0.39046 -0.0849,0.071 -0.15476,0.10152 -0.29683,0.10152 -0.14207,0 -0.21377,-0.0315 -0.30064,-0.10348 -0.0869,-0.072 -0.18368,-0.20187 -0.27208,-0.3924 -0.17679,-0.38103 -0.30689,-0.97898 -0.43192,-1.60283 -0.12502,-0.62385 -0.24557,-1.27287 -0.4947,-1.82733 -0.12457,-0.27723 -0.28367,-0.53676 -0.52135,-0.73992 -0.23768,-0.20317 -0.56079,-0.33189 -0.90189,-0.33189 z"
       id="path4330"
       inkscape:connector-curvature="0" />
  </g>
</svg>
