<?xml version="1.0" encoding="UTF-8" standalone="no"?>
<svg
   version="1.1"
   viewBox="0 0 22 22"
   id="svg1"
   sodipodi:docname="phone-send.svg"
   inkscape:version="1.3.2 (091e20ef0f, 2023-11-25)"
   xmlns:inkscape="http://www.inkscape.org/namespaces/inkscape"
   xmlns:sodipodi="http://sodipodi.sourceforge.net/DTD/sodipodi-0.dtd"
   xmlns="http://www.w3.org/2000/svg"
   xmlns:svg="http://www.w3.org/2000/svg">
  <sodipodi:namedview
     id="namedview1"
     pagecolor="#ffffff"
     bordercolor="#000000"
     borderopacity="0.25"
     inkscape:showpageshadow="2"
     inkscape:pageopacity="0.0"
     inkscape:pagecheckerboard="0"
     inkscape:deskcolor="#d1d1d1"
     showgrid="true"
     inkscape:zoom="22.627417"
     inkscape:cx="7.3141358"
     inkscape:cy="9.7006211"
     inkscape:window-width="1920"
     inkscape:window-height="1004"
     inkscape:window-x="0"
     inkscape:window-y="0"
     inkscape:window-maximized="1"
     inkscape:current-layer="g1">
    <inkscape:grid
       id="grid1"
       units="px"
       originx="0"
       originy="0"
       spacingx="1"
       spacingy="1"
       empcolor="#0099e5"
       empopacity="0.30196078"
       color="#0099e5"
       opacity="0.14901961"
       empspacing="5"
       dotted="false"
       gridanglex="30"
       gridanglez="30"
       visible="true" />
  </sodipodi:namedview>
  <defs
     id="defs1">
    <style
       id="current-color-scheme"
       type="text/css">
        .ColorScheme-Text {
          color:#232629;
        }
      </style>
  </defs>
  <g
     id="g1"
     transform="translate(2.9285618)">
    <path
       id="smartphone"
       class="ColorScheme-Text"
       d="M 8.0714382 2.9296875 C 6.9634404 2.9296875 6.0714382 3.8216897 6.0714382 4.9296875 L 6.0714382 8 L 7.0714382 8 L 7.0714382 4.9296875 C 7.0714382 4.3756887 7.5174394 3.9296875 8.0714382 3.9296875 L 14.071438 3.9296875 C 14.625437 3.9296875 15.071438 4.3756887 15.071438 4.9296875 L 15.071438 16.929688 C 15.071438 17.483686 14.625437 18 14.071438 18 L 8.0714382 18 C 7.5174394 18 7.0714382 17.553998 7.0714382 17 L 7.0714382 15 L 6.0714382 15 L 6.0714382 17 C 6.071438 18.107998 6.9634404 19 8.0714382 19 L 14.071438 19 C 15.179436 19 16.071438 18.107998 16.071438 17 L 16.071438 4.9296875 C 16.071438 3.8216897 15.179436 2.9296875 14.071438 2.9296875 L 8.0714382 2.9296875 z M 8.5714382 5 C 8.2952961 5 8.0714382 5.2238579 8.0714382 5.5 C 8.0714382 5.7761421 8.2952961 6 8.5714382 6 C 8.8475803 6 9.0714382 5.7761421 9.0714382 5.5 C 9.0714382 5.2238579 8.8475803 5 8.5714382 5 z M 3.8995632 7.515625 L 3.0714382 8.34375 L 5.6300319 10.974609 L -0.52817118 10.974609 L -0.52817118 12.128906 L 5.6300319 12.128906 L 3.0714382 14.759766 L 3.8995632 15.587891 L 7.5753444 11.804688 L 7.8272976 11.550781 L 7.5753444 11.298828 L 3.8995632 7.515625 z M 9.5714382 16 C 9.2944388 16 9.0714382 16.223 9.0714382 16.5 C 9.0714382 16.777 9.2944388 17 9.5714382 17 L 12.571438 17 C 12.848438 17 13.071438 16.777 13.071438 16.5 C 13.071438 16.223 12.848438 16 12.571438 16 L 9.5714382 16 z "
       fill="currentColor" />
  </g>
</svg>
