<?xml version="1.0" encoding="UTF-8" standalone="no"?>
<!-- Created with Inkscape (http://www.inkscape.org/) -->

<svg
   xmlns:dc="http://purl.org/dc/elements/1.1/"
   xmlns:cc="http://creativecommons.org/ns#"
   xmlns:rdf="http://www.w3.org/1999/02/22-rdf-syntax-ns#"
   xmlns:svg="http://www.w3.org/2000/svg"
   xmlns="http://www.w3.org/2000/svg"
   xmlns:sodipodi="http://sodipodi.sourceforge.net/DTD/sodipodi-0.dtd"
   xmlns:inkscape="http://www.inkscape.org/namespaces/inkscape"
   width="22"
   height="22"
   id="svg3049"
   version="1.1"
   inkscape:version="0.91 r13725"
   sodipodi:docname="prevfuzzyuntrans.svg"
   inkscape:export-filename="/home/uri/.kde/share/icons/NITRUX-KDE/16x16/actions/view-right-new.png"
   inkscape:export-xdpi="30"
   inkscape:export-ydpi="30">
  <defs
     id="defs3051">
    <style
       type="text/css"
       id="current-color-scheme">
      .ColorScheme-Text {
        color:#4d4d4d;
      }
      .ColorScheme-Background {
        color:#eff0f1;
      }
      .ColorScheme-Highlight {
        color:#3daee9;
      }
      .ColorScheme-ViewText {
        color:#31363b;
      }
      .ColorScheme-ViewBackground {
        color:#fcfcfc;
      }
      .ColorScheme-ViewHover {
        color:#93cee9;
      }
      .ColorScheme-ViewFocus{
        color:#3daee9;
      }
      .ColorScheme-ButtonText {
        color:#31363b;
      }
      .ColorScheme-ButtonBackground {
        color:#eff0f1;
      }
      .ColorScheme-ButtonHover {
        color:#93cee9;
      }
      .ColorScheme-ButtonFocus{
        color:#3daee9;
      }
      </style>
  </defs>
  <g
     inkscape:label="Capa 1"
     inkscape:groupmode="layer"
     id="layer1"
     transform="translate(-421.71429,-525.79074)">
    <path
       style="fill:currentColor;fill-opacity:1;stroke:none"
       d="M 8.96875 3 C 7.21782 3 5.56187 3.4216019 4 4.2636719 L 4.7773438 6.0507812 C 5.5582637 5.6672613 6.2600456 5.3933025 6.8847656 5.2265625 C 7.5177356 5.0598325 8.1626925 4.9765625 8.8203125 4.9765625 C 9.8067525 4.9765625 10.563734 5.1968119 11.089844 5.6386719 C 11.615944 6.0805419 11.878906 6.7136725 11.878906 7.5390625 C 11.878906 7.9809325 11.822111 8.369625 11.707031 8.703125 C 11.591951 9.036605 11.394724 9.369635 11.115234 9.703125 C 10.835754 10.036615 10.247563 10.586476 9.3515625 11.353516 C 8.2514825 12.356846 7.10046 14.139 7 16 L 9 16 L 8.9941406 15.96875 C 8.9941406 15.21007 9.1256119 14.601138 9.3886719 14.142578 C 9.6599519 13.675688 10.201805 13.087576 11.015625 12.378906 C 12.010295 11.536836 12.673153 10.903726 13.001953 10.478516 C 13.338993 10.053316 13.589506 9.6041363 13.753906 9.1289062 C 13.918406 8.6536762 14 8.1071944 14 7.4902344 C 14 6.0728944 13.55227 4.97119 12.65625 4.1875 C 11.76024 3.39546 10.53061 3 8.96875 3 z M 16.292969 12 L 13 15.292969 L 12.792969 15.5 L 13 15.707031 L 16.292969 19 L 17 18.292969 L 14.707031 16 L 19 16 L 19 15 L 14.707031 15 L 17 12.707031 L 16.292969 12 z M 7 17 L 7 19 L 9 19 L 9 17 L 7 17 z "
       transform="translate(421.71429,525.79074)"
       id="path4150-5" 
       class="ColorScheme-Text" />
  </g>
</svg>
