<svg id="svg6" version="1.1" viewBox="0 0 22 22" xmlns="http://www.w3.org/2000/svg">
    <defs id="defs3051">
    <style type="text/css" id="current-color-scheme">
        .ColorScheme-Text {            color:#232629;        }
    </style>
    </defs>
    <path id="path301" d="m11 3a8 8 0 0 0-8 8 8 8 0 0 0 8 8 8 8 0 0 0 4.892578-1.693359l2.400391 2.40039a1 1 0 0 0 1.414062 0 1 1 0 0 0 0-1.414062l-2.40039-2.400391a8 8 0 0 0 1.693359-4.892578 8 8 0 0 0-8-8zm0 1a7 7 0 0 1 7 7 7 7 0 0 1-0.302734 2h-13.394532a7 7 0 0 1-0.3027344-2 7 7 0 0 1 7-7zm-4 6v2h8v-2h-8zm-2.3105469 4h0.3105469v0.564453a7 7 0 0 1-0.3105469-0.564453zm1.3105469 0h1v1h1v-1h1v1h1v-1h1v1h1v-1h1v1h1v-1h1v1h1v-1h1v0.564453a7 7 0 0 1-6 3.435547 7 7 0 0 1-5.734375-3h0.734375v-1z" class="ColorScheme-Text" fill="currentColor" stroke-linecap="round" style="-inkscape-stroke:none;paint-order:markers stroke fill"/>
</svg>
