<?xml version="1.0" encoding="UTF-8" standalone="no"?>
<!-- Created with Inkscape (http://www.inkscape.org/) -->

<svg
   xmlns:dc="http://purl.org/dc/elements/1.1/"
   xmlns:cc="http://creativecommons.org/ns#"
   xmlns:rdf="http://www.w3.org/1999/02/22-rdf-syntax-ns#"
   xmlns:svg="http://www.w3.org/2000/svg"
   xmlns="http://www.w3.org/2000/svg"
   xmlns:xlink="http://www.w3.org/1999/xlink"
   xmlns:sodipodi="http://sodipodi.sourceforge.net/DTD/sodipodi-0.dtd"
   xmlns:inkscape="http://www.inkscape.org/namespaces/inkscape"
   width="64"
   height="64"
   viewBox="0 0 16.933333 16.933333"
   version="1.1"
   id="svg8"
   inkscape:version="0.92.2 5c3e80d, 2017-08-06"
   sodipodi:docname="folder-games.svg">
  <defs
     id="defs2">
    <style
       type="text/css"
       id="current-color-scheme">
      .ColorScheme-Text {
        color:#4d4d4d;
      }
      </style>
    <style
       id="current-color-scheme-6"
       type="text/css">
      .ColorScheme-Text {
        color:#4d4d4d;
      }
      </style>
    <style
       id="current-color-scheme-7"
       type="text/css">
      .ColorScheme-Text {
        color:#4d4d4d;
      }
      </style>
    <linearGradient
       id="linearGradient4172-5"
       inkscape:collect="always">
      <stop
         id="stop4174-6"
         style="stop-color:#3daee9" />
      <stop
         id="stop4176-6"
         style="stop-color:#6cc1ef"
         offset="1" />
    </linearGradient>
    <linearGradient
       gradientTransform="matrix(1,0,0,0.99967455,0,0.17645)"
       x2="0"
       gradientUnits="userSpaceOnUse"
       y2="499.78421"
       y1="541.79797"
       xlink:href="#linearGradient4172-5"
       id="linearGradient4178"
       inkscape:collect="always" />
  </defs>
  <sodipodi:namedview
     id="base"
     pagecolor="#ffffff"
     bordercolor="#666666"
     borderopacity="1.0"
     inkscape:pageopacity="0.0"
     inkscape:pageshadow="2"
     inkscape:zoom="3.959798"
     inkscape:cx="100.60456"
     inkscape:cy="-9.6518886"
     inkscape:document-units="mm"
     inkscape:current-layer="layer1-5"
     showgrid="false"
     units="px"
     inkscape:window-width="1920"
     inkscape:window-height="956"
     inkscape:window-x="0"
     inkscape:window-y="28"
     inkscape:window-maximized="1" />
  <metadata
     id="metadata5">
    <rdf:RDF>
      <cc:Work
         rdf:about="">
        <dc:format>image/svg+xml</dc:format>
        <dc:type
           rdf:resource="http://purl.org/dc/dcmitype/StillImage" />
        <dc:title />
      </cc:Work>
    </rdf:RDF>
  </metadata>
  <g
     inkscape:label="Layer 1"
     inkscape:groupmode="layer"
     id="layer1"
     transform="translate(0,-280.06667)">
    <rect
       width="0"
       x="98.957848"
       y="123.39531"
       height="3.880924"
       style="fill:#4d4d4d;stroke-width:0.26458332"
       id="rect4035-062" />
    <rect
       width="0"
       x="100.7995"
       y="129.36713"
       height="3.880924"
       style="fill:#4d4d4d;stroke-width:0.26458332"
       id="rect4035-8-6" />
    <rect
       width="0"
       x="101.27927"
       y="129.08647"
       height="3.880924"
       style="fill:#4d4d4d;stroke-width:0.26458332"
       id="rect4035-0-1" />
    <rect
       width="0"
       x="94.418587"
       y="122.39486"
       height="3.880924"
       style="fill:#4d4d4d;stroke-width:0.26458332"
       id="rect4035-06-8" />
    <rect
       width="0"
       x="96.260239"
       y="128.36667"
       height="3.880924"
       style="fill:#4d4d4d;stroke-width:0.26458332"
       id="rect4035-8-7-7" />
    <rect
       width="0"
       x="96.740005"
       y="128.08601"
       height="3.880924"
       style="fill:#4d4d4d;stroke-width:0.26458332"
       id="rect4035-0-42-9" />
    <rect
       width="0"
       x="94.418587"
       y="122.39486"
       height="3.880924"
       style="fill:#4d4d4d;stroke-width:0.26458332"
       id="rect4035-3-2" />
    <rect
       width="0"
       x="96.260239"
       y="128.36667"
       height="3.880924"
       style="fill:#4d4d4d;stroke-width:0.26458332"
       id="rect4035-8-9-0" />
    <rect
       width="0"
       x="96.740005"
       y="128.08601"
       height="3.880924"
       style="fill:#4d4d4d;stroke-width:0.26458332"
       id="rect4035-0-4-2" />
    <rect
       width="0"
       x="94.418587"
       y="122.39486"
       height="3.880924"
       style="fill:#4d4d4d;stroke-width:0.26458332"
       id="rect4035-2-3" />
    <rect
       width="0"
       x="96.260239"
       y="128.36667"
       height="3.880924"
       style="fill:#4d4d4d;stroke-width:0.26458332"
       id="rect4035-8-99-7" />
    <rect
       width="0"
       x="96.740005"
       y="128.08601"
       height="3.880924"
       style="fill:#4d4d4d;stroke-width:0.26458332"
       id="rect4035-0-43-5" />
    <rect
       width="0"
       x="94.418587"
       y="122.39486"
       height="3.880924"
       style="fill:#4d4d4d;stroke-width:0.26458332"
       id="rect4035-3-9-9" />
    <rect
       width="0"
       x="96.260239"
       y="128.36667"
       height="3.880924"
       style="fill:#4d4d4d;stroke-width:0.26458332"
       id="rect4035-8-9-9-2" />
    <rect
       width="0"
       x="96.740005"
       y="128.08601"
       height="3.880924"
       style="fill:#4d4d4d;stroke-width:0.26458332"
       id="rect4035-0-4-4-2" />
    <rect
       width="0"
       x="113.01089"
       y="128.02768"
       height="2.9104121"
       style="fill:#4d4d4d;stroke-width:0.26458332"
       id="rect4035-5-8" />
    <rect
       width="0"
       x="111.8065"
       y="128.6942"
       height="2.9104121"
       style="fill:#4d4d4d;stroke-width:0.26458332"
       id="rect4035-7-9" />
    <rect
       width="0"
       x="110.61382"
       y="125.40845"
       height="2.9104121"
       style="fill:#4d4d4d;stroke-width:0.26458332"
       id="rect4035-9-7" />
    <rect
       width="0"
       x="110.83714"
       y="128.64627"
       height="2.9104121"
       style="fill:#4d4d4d;stroke-width:0.26458332"
       id="rect4035-96-3" />
    <rect
       width="0"
       x="109.63275"
       y="129.31277"
       height="2.9104121"
       style="fill:#4d4d4d;stroke-width:0.26458332"
       id="rect4035-7-0-6" />
    <rect
       width="0"
       x="108.44007"
       y="126.02703"
       height="2.9104121"
       style="fill:#4d4d4d;stroke-width:0.26458332"
       id="rect4035-9-6-1" />
    <rect
       width="0"
       x="113.01089"
       y="128.02768"
       height="2.9104121"
       style="fill:#4d4d4d;stroke-width:0.26458332"
       id="rect4035-1-2" />
    <rect
       width="0"
       x="111.8065"
       y="128.6942"
       height="2.9104121"
       style="fill:#4d4d4d;stroke-width:0.26458332"
       id="rect4035-7-2-9" />
    <rect
       width="0"
       x="110.61382"
       y="125.40845"
       height="2.9104121"
       style="fill:#4d4d4d;stroke-width:0.26458332"
       id="rect4035-9-0-3" />
    <rect
       width="0"
       x="110.83714"
       y="128.64627"
       height="2.9104121"
       style="fill:#4d4d4d;stroke-width:0.26458332"
       id="rect4035-96-9-1" />
    <rect
       width="0"
       x="109.63275"
       y="129.31277"
       height="2.9104121"
       style="fill:#4d4d4d;stroke-width:0.26458332"
       id="rect4035-7-0-9-9" />
    <rect
       width="0"
       x="108.44007"
       y="126.02703"
       height="2.9104121"
       style="fill:#4d4d4d;stroke-width:0.26458332"
       id="rect4035-9-6-9-4" />
    <g
       transform="matrix(0.26458333,0,0,0.26458333,-101.75119,152.06178)"
       id="layer1-5"
       inkscape:label="Capa 1">
      <g
         transform="translate(0,5e-6)"
         id="layer1-8"
         inkscape:label="Capa 1">
        <path
           d="m 388.57143,489.79812 v 5 22 c 0,0.55373 0.446,1 1,1 h 54 c 0.55399,0 1,-0.44627 1,-1 v -21.99023 c 0,-0.003 -0.002,-0.006 -0.002,-0.01 h 0.002 v -1 h -28 l -4,-4 h -24 z"
           id="rect4180"
           style="fill:#147eb8"
           inkscape:connector-curvature="0" />
        <path
           d="m 410.57143,499.79812 -4,4 h -19 v 1 h 0.002 c -5e-5,0.004 -0.002,0.008 -0.002,0.0117 v 35.98828 1 h 1 56 1 v -1 -35.98828 -0.0117 -5 z"
           id="rect4113"
           style="fill:url(#linearGradient4178)"
           inkscape:connector-curvature="0" />
        <path
           d="m 387.57144,503.79812 v 1 h 19.99999 l 3,-5 -4,4 z"
           id="path4224"
           style="fill:#ffffff;fill-opacity:0.235294;fill-rule:evenodd"
           inkscape:connector-curvature="0" />
        <path
           d="m 388.57143,502.79812 v 1 h 18 l 4,-4 -6,3 z"
           id="path4228"
           style="fill-opacity:0.235294;fill-rule:evenodd"
           inkscape:connector-curvature="0" />
        <path
           d="m 387.57143,540.7981 v 1 h 1 56 1 v -1 h -1 -56 z"
           id="path4151-2"
           style="fill-opacity:0.235294"
           inkscape:connector-curvature="0" />
        <path
           transform="translate(384.57143,483.798)"
           d="m 28,6 3,5 h 2 27 V 10 H 33 32 Z"
           id="path4196"
           style="fill:#ffffff;fill-opacity:0.235294;fill-rule:evenodd"
           inkscape:connector-curvature="0" />
      </g>
      <path
         style="opacity:1;fill:none;fill-opacity:1;fill-rule:evenodd;stroke:#1272a5;stroke-width:1.00000001;stroke-linecap:round;stroke-linejoin:bevel;stroke-miterlimit:4;stroke-dasharray:none;stroke-opacity:1"
         d="m 25.115234,28.957031 c -3.8025,0 -6.884765,3.082266 -6.884765,6.884766 l -1.080078,8.634765 c -0.0441,0.178191 -0.06786,0.361352 -0.06836,0.544922 0,1.26751 1.027422,2.294922 2.294922,2.294922 0.68195,-6.3e-4 1.328132,-0.305328 1.763672,-0.830078 l 0.002,0.0059 3.304688,-3.798829 c 0.219607,0.02112 0.442822,0.03321 0.667968,0.0332 0.465381,-3.43e-4 0.923527,-0.06544 1.375,-0.158203 a 2.2950118,2.2950118 0 0 0 2.066407,1.304688 2.2950118,2.2950118 0 0 0 2.294921,-2.294922 h 2.296876 a 2.2950118,2.2950118 0 0 0 2.294921,2.294922 2.2950118,2.2950118 0 0 0 2.066407,-1.304688 c 0.451471,0.09276 0.909623,0.157735 1.375,0.158203 0.225803,0 0.449691,-0.01196 0.669922,-0.0332 l 3.302734,3.798829 0.002,-0.0059 c 0.43549,0.52474 1.081722,0.829448 1.763672,0.830078 1.2675,0 2.294922,-1.027422 2.294922,-2.294922 -5.5e-4,-0.18358 -0.02436,-0.366719 -0.06836,-0.544922 l -1.080078,-8.634765 c 0,-3.8025 -3.082265,-6.884766 -6.884765,-6.884766 h -5.736328 -2.296876 z"
         transform="translate(384.57143,483.798)"
         id="path65" />
      <path
         style="opacity:1;fill:none;fill-opacity:1;fill-rule:evenodd;stroke:#1272a5;stroke-width:1.00000001;stroke-linecap:round;stroke-linejoin:bevel;stroke-miterlimit:4;stroke-dasharray:none;stroke-opacity:1"
         d="m 22.820312,32.398438 h 2.294922 v 2.294921 h 2.294922 v 2.294922 h -2.294922 v 2.294922 h -2.294922 v -2.294922 h -2.294921 v -2.294922 h 2.294921 z"
         transform="translate(384.57143,483.798)"
         id="path63" />
      <path
         style="opacity:1;fill:#1272a5;fill-opacity:1;fill-rule:evenodd;stroke:none;stroke-width:0.60000002;stroke-linecap:round;stroke-linejoin:bevel;stroke-miterlimit:4;stroke-dasharray:none;stroke-opacity:1"
         d="m 40.033203,32.398438 a 1.1475059,1.1475059 0 0 1 1.146485,1.148437 1.1475059,1.1475059 0 0 1 -1.146485,1.146484 1.1475059,1.1475059 0 0 1 -1.148437,-1.146484 1.1475059,1.1475059 0 0 1 1.148437,-1.148437 z"
         transform="translate(384.57143,483.798)"
         id="path61" />
      <path
         style="opacity:1;fill:#1272a5;fill-opacity:1;fill-rule:evenodd;stroke:none;stroke-width:0.60000002;stroke-linecap:round;stroke-linejoin:bevel;stroke-miterlimit:4;stroke-dasharray:none;stroke-opacity:1"
         d="m 37.738281,34.693359 a 1.1475059,1.1475059 0 0 1 1.146485,1.148438 1.1475059,1.1475059 0 0 1 -1.146485,1.146484 1.1475059,1.1475059 0 0 1 -1.148437,-1.146484 1.1475059,1.1475059 0 0 1 1.148437,-1.148438 z"
         transform="translate(384.57143,483.798)"
         id="path59" />
      <path
         style="opacity:1;fill:#1272a5;fill-opacity:1;fill-rule:evenodd;stroke:none;stroke-width:0.60000002;stroke-linecap:round;stroke-linejoin:bevel;stroke-miterlimit:4;stroke-dasharray:none;stroke-opacity:1"
         d="m 42.328125,34.693359 a 1.1475059,1.1475059 0 0 1 1.146484,1.148438 1.1475059,1.1475059 0 0 1 -1.146484,1.146484 1.1475059,1.1475059 0 0 1 -1.148437,-1.146484 1.1475059,1.1475059 0 0 1 1.148437,-1.148438 z"
         transform="translate(384.57143,483.798)"
         id="path57" />
      <path
         style="opacity:1;fill:#1272a5;fill-opacity:1;fill-rule:evenodd;stroke:none;stroke-width:0.60000002;stroke-linecap:round;stroke-linejoin:bevel;stroke-miterlimit:4;stroke-dasharray:none;stroke-opacity:1"
         d="m 40.033203,36.988281 a 1.1475059,1.1475059 0 0 1 1.146485,1.148438 1.1475059,1.1475059 0 0 1 -1.146485,1.146484 1.1475059,1.1475059 0 0 1 -1.148437,-1.146484 1.1475059,1.1475059 0 0 1 1.148437,-1.148438 z"
         transform="translate(384.57143,483.798)"
         id="path55" />
      <path
         style="opacity:1;fill:#1272a5;fill-opacity:1;fill-rule:evenodd;stroke:none;stroke-width:0.60000002;stroke-linecap:round;stroke-linejoin:bevel;stroke-miterlimit:4;stroke-dasharray:none;stroke-opacity:1"
         d="m 28.556641,40.431641 a 1.147499,1.147499 0 0 1 1.148437,1.146484 1.147499,1.147499 0 0 1 -1.148437,1.148437 1.147499,1.147499 0 0 1 -1.146485,-1.148437 1.147499,1.147499 0 0 1 1.146485,-1.146484 z"
         transform="translate(384.57143,483.798)"
         id="path53" />
      <path
         style="opacity:1;fill:#1272a5;fill-opacity:1;fill-rule:evenodd;stroke:none;stroke-width:0.60000002;stroke-linecap:round;stroke-linejoin:bevel;stroke-miterlimit:4;stroke-dasharray:none;stroke-opacity:1"
         d="m 35.443359,40.431641 a 1.1475128,1.1475128 0 0 1 1.146485,1.146484 1.1475128,1.1475128 0 0 1 -1.146485,1.148437 1.1475128,1.1475128 0 0 1 -1.148437,-1.148437 1.1475128,1.1475128 0 0 1 1.148437,-1.146484 z"
         transform="translate(384.57143,483.798)"
         id="path4220" />
      <circle
         id="ellipse4246"
         style="fill:#e3dbdb;stroke-width:0.11475059;stroke-linecap:square"
         cy="519.63922"
         cx="408.53891"
         r="0" />
    </g>
  </g>
</svg>
