<svg height="22" viewBox="0 0 22 22" width="22" xmlns="http://www.w3.org/2000/svg">
    <style type="text/css" id="current-color-scheme">
      .ColorScheme-Text {
        color:#eff0f1
      }
    </style>
    <path
        style="fill:currentColor"
        d="m12.349609 2.75c-1.55 0-3.3503903 1.2492187-4.1503902 3.4492188l1.8007812-.7988282 1.800781 1.7988282-3.800781 3.8007812h-1.4003906l-5 5 3.4003906 3.400391 5-5v-1.400391l3.800781-3.8007812.199219.2011718v1.0000004l2 2.099609 4.5-4.5-2.099609-2h-1l-1.550782-1.5507812c-1.449999-1.4500001-2.15-1.6992188-3.5-1.6992188zm0 .9003906c1.15-.0000002 1.650391.3496094 2.650391 1.3496094l2 2h1l1 1-3 3-1-1v-1l-1.119141-1.1308594-4.880859 4.8808594v1.25l-4.25 4.199219-1.9003906-2 4.1503906-4.199219h1.25l4.880859-4.8808594-2.68164-2.6796875c.55-.44 1.20039-.7890624 1.90039-.7890625z"
        class="ColorScheme-Text" />
</svg>
