<svg height="32" width="32" xmlns="http://www.w3.org/2000/svg" xmlns:xlink="http://www.w3.org/1999/xlink"><linearGradient id="a" gradientUnits="userSpaceOnUse" x1="75.661017" x2="75.661017" y1="26.881356" y2="-1.118644"><stop offset="0" stop-color="#fdbc4b"/><stop offset="1" stop-color="#fed286"/></linearGradient><linearGradient id="b" gradientUnits="userSpaceOnUse" x1="25" x2="25" y1="21" y2="7"><stop offset="0" stop-color="#232629"/><stop offset="1" stop-color="#4d4d4d"/></linearGradient><linearGradient id="c" gradientUnits="userSpaceOnUse" x1="41" x2="55" y1="11.610169" y2="25.610169"><stop offset="0" stop-color="#292c2f"/><stop offset="1" stop-opacity="0"/></linearGradient><linearGradient id="d" gradientUnits="userSpaceOnUse" x1="4" x2="4" y1="30" y2="27"><stop offset="0" stop-opacity=".4"/><stop offset="1" stop-opacity=".2"/></linearGradient><linearGradient id="e" gradientTransform="matrix(.66667 0 0 16 -25.794 -199.679)" gradientUnits="userSpaceOnUse" x1="38.690807" x2="38.690807" y1="14.354938" y2="12.604938"><stop offset="0" stop-color="#1d1e1e"/><stop offset="1" stop-color="#44484c"/></linearGradient><path d="m4 2h24v28h-24z" fill="url(#a)"/><path d="m4 2v28h2v-1h-1v-1h1v-26z" fill="url(#e)"/><path d="m4 27v3h24v-1h-23v-1h23v-1z" fill="url(#d)" fill-rule="evenodd"/><path d="m5 28h23v1h-23z" fill="#edf573"/><path d="m10 21 6 6h12v-10.2466l-8.8767-8.8767-2.1233-.8767-3 3 .8768 2.1232 2.1232 2.1232-3 .7536-3 3z" fill="url(#c)" opacity=".2"/><path d="m22 13a2 2 0 0 0 -2 2v2h-1v4h6v-4h-1v-2a2 2 0 0 0 -2-2zm0 1a1 1 0 0 1 1 1v2h-2v-2a1 1 0 0 1 1-1zm-5 0c-3.878 0-7 3.122-7 7h8v-1h-6.910156a5.98 5.98 0 0 1 5.910156-5c.343343 0 .675905.03689 1 .09766v-1.011722a6.654 6.654 0 0 0 -1-.08594zm0-7c-1.662 0-3 1.3379999-3 3 0 1.662 1.338 3 3 3s3-1.338 3-3c0-1.6620001-1.338-3-3-3zm0 1c1.108 0 2 .892 2 2s-.892 2-2 2-2-.892-2-2 .892-2 2-2z" fill="url(#b)"/></svg>