<svg height="48" version="1.1" width="48" xmlns="http://www.w3.org/2000/svg" xmlns:svg="http://www.w3.org/2000/svg" xmlns:xlink="http://www.w3.org/1999/xlink">
<defs id="primary-definitions">
<style id="current-color-scheme" type="text/css">
      .ColorScheme-Text         { color: #232629; }
      .ColorScheme-Background   { color: #eff0f1; }
      .ColorScheme-Highlight    { color: #7ec9f0; }
      .ColorScheme-PositiveText { color: #27ae60; }
      .ColorScheme-NeutralText  { color: #f67400; }
      .ColorScheme-NegativeText { color: #da4453; }
      .ColorScheme-ActiveText   { color: #3daee9; }
      .ColorScheme-Complement   { color: #ffffff; }
      .ColorScheme-Contrast     { color: #000000; }
    </style>
<style id="extended-color-scheme" type="text/css">
      .ExScheme-Black     { color:#3e3e3e; }
      .ExScheme-White     { color:#fcfcfc; }
      .ExScheme-Grey-1    { color:#cfd5d5; }
      .ExScheme-Grey-2    { color:#909c9c; }
      .ExScheme-Grey-3    { color:#536161; }
      .ExScheme-Red-1     { color:#ffafa5; }
      .ExScheme-Red-2     { color:#bf4231; }
      .ExScheme-Red-3     { color:#4d2f2b; }
      .ExScheme-Green-1   { color:#abf9c7; }
      .ExScheme-Green-2   { color:#3bb566; }
      .ExScheme-Green-3   { color:#377d50; }
      .ExScheme-Blue-1    { color:#abdaf9; }
      .ExScheme-Blue-2    { color:#3daefd; }
      .ExScheme-Blue-3    { color:#2b3c4d; }
      .ExScheme-Yellow-1  { color:#faffa5; }
      .ExScheme-Yellow-2  { color:#cac726; }
      .ExScheme-Yellow-3  { color:#4b4d2b; }
      .ExScheme-Orange-1  { color:#ffdaa5; }
      .ExScheme-Orange-2  { color:#ff9701; }
      .ExScheme-Orange-3  { color:#4d372b; }
      .ExScheme-Brown-1   { color:#e9d6bb; }
      .ExScheme-Brown-2   { color:#997657; }
      .ExScheme-Brown-3   { color:#433a35; }
      .ExScheme-Purple-1  { color:#e2abf9; }
      .ExScheme-Purple-2  { color:#b401ff; }
      .ExScheme-Purple-3  { color:#432b4d; }
      .ExScheme-Cyan-1    { color:#b2f2e6; }
      .ExScheme-Cyan-2    { color:#31bfa6; }
      .ExScheme-Cyan-3    { color:#2b4d47; }
      .ExScheme-Magenta-1 { color:#f8a6d8; }
      .ExScheme-Magenta-2 { color:#f00091; }
      .ExScheme-Magenta-3 { color:#770048; }
    </style>
<linearGradient id="u1B">
<stop offset="0"/>
<stop offset="1" stop-opacity="0"/>
</linearGradient>
<linearGradient id="u1C">
<stop offset="0" stop-color="#fff"/>
<stop offset="1" stop-color="#fff" stop-opacity="0"/>
</linearGradient>
<linearGradient id="u1D">
<stop offset="0" stop-color="#1abc9c"/>
<stop offset="1" stop-color="#2787b6"/>
</linearGradient><linearGradient id="u1E">
<stop offset="0" stop-color="#172525"/>
<stop offset="1" stop-color="#172525" stop-opacity="0"/>
</linearGradient><radialGradient cx="19.74" cy="-20.34" gradientTransform="matrix(-.5,.13,-.04,-.16,48.3,5.9)" gradientUnits="userSpaceOnUse" id="u1F" r="15" spreadMethod="reflect" xlink:href="#u1B"/><linearGradient gradientTransform="matrix(1.43 -.54 .54 1.43 -41.1 5.2)" gradientUnits="userSpaceOnUse" id="u1G" x1="-12" x2="-12" xlink:href="#u1B" y1="33" y2="31"/><linearGradient gradientTransform="matrix(1.2 .25 -.2 1 19.47 2.03)" gradientUnits="userSpaceOnUse" id="u1H" x1="9" x2="9" xlink:href="#u1B" y1="14" y2="20"/><linearGradient id="u1I" xlink:href="#u1B" y1="1" y2="0"/><linearGradient gradientTransform="matrix(-2.93 0 0 2.93 76.93 -34.4)" gradientUnits="userSpaceOnUse" id="u1J" x1="21.01" x2="22.55" xlink:href="#u1E" y1="25.03" y2="22.45"/><linearGradient gradientTransform="matrix(1.5,0,0,1.5,-.5,.9)" gradientUnits="userSpaceOnUse" id="u1K" x1="23.32" x2="22.05" xlink:href="#u1E" y1="19.11" y2="14.47"/><linearGradient gradientUnits="userSpaceOnUse" id="u1L" x1="2" x2="45" xlink:href="#u1D" y1="38" y2="24.5"/><path d="m27.07 30.1-25.07 8.9v1c0 1.1.9 2 2 2h40c1.1 0 2-.9 2-2v-1z" id="u1M"></path><path d="M 3,10 2,20.73 v 18.27 h 8 L 45,24 Z" id="u1N"></path><path d="m4 6c-1.1 0-2 .9-2 2v12.73l.83-.4 9.3-2.2 1.17.04 32.7 6.8v-16.94c0-1.1-.9-2-2-2z" id="u1O"></path></defs>
<g id="content" transform="translate(0,0)"><use class="ColorScheme-Highlight" fill="currentColor" href="#u1M"></use><use fill="url(#u1J)" href="#u1M"></use><path class="ColorScheme-Highlight" d="M 3,10 2,20.73 2,39 h 8 L 45,24 Z" fill="url(#u1L)"/><use fill="url(#u1F)" href="#u1N" opacity=".075"></use><use href="#u1N" opacity=".15"></use><path d="m46 22.7-42.9 16.3h16.3l26.57-10.1z" fill="url(#u1G)" opacity=".4"/><path d="m2.44 6.77c-.27.34-.44.76-.44 1.23v10.96l44 9.15v-11.36z" fill="url(#u1H)" opacity=".4"/><path d="M 46,23.4 8,39 H 46 Z" fill="#334545"/><g opacity=".4">
<path d="M 46,38.14 43.9,39 H 46 Z" opacity=".6"/>
<path d="m29.1 37.7-.74 1.3h6.4z" opacity=".3"/>
<path d="m43.4 35.53-8.46 3.47h6.5z" opacity=".6"/>
<path d="m37.6 34.2-8.5 3.5 5.67 1.3h.1z" opacity=".5"/>
<path d="m37.6 34.2-2.73 4.8h.04l8.46-3.47z" opacity=".7"/>
<path d="m29.1 37.7-3.15 1.3h2.4z"/>
<path d="m17.54 35.07-2.24 3.93h1.66l6.36-2.6z" opacity=".6"/>
<path d="m23.3 36.4 8.5-3.5-2.74 4.8z" opacity=".3"/>
<path d="m23.3 36.4-6.36 2.6h4.87z"/>
<path d="m23.3 36.4-1.5 2.6h4.1l3.15-1.3z" opacity=".5"/>
<path d="m17.54 35.07 8.5-3.5-2.74 4.8z" opacity=".5"/>
<path d="m31.84 32.9-8.5 3.5 2.74-4.8z"/>
<path d="m37.6 34.2-8.5 3.5 2.74-4.8z" opacity=".75"/>
<path d="m17.54 35.07-8.5 3.5 1.9.43h4.4z"/>
<path d="m9 38.57-.24.43h2.13z" opacity=".6"/>
<path d="m 46,30.77 -8.4,3.44 5.8,1.3 L 46,30.96 Z" opacity=".6"/>
<path d="m46 27.1-5.64 2.3 5.64 1.3z" opacity=".6"/>
<path d="m31.84 32.9 8.5-3.5-2.74 4.8z" opacity=".3"/>
<path d="m40.36 29.4-2.74 4.8 8.4-3.44v-.1z"/>
<path d="m46 30.96-2.6 4.57 2.6-1.07z"/>
<path d="m26.06 31.6 8.5-3.5-2.74 4.8z" opacity=".5"/>
<path d="m43.4 35.53-2 3.47h2.5l2.1-.86v-2z" opacity=".5"/>
<path d="m46 34.46-2.6 1.07 2.6.6z" opacity=".75"/>
<path d="m34.6 28.1 8.5-3.5-2.74 4.8z"/>
<path d="m40.36 29.4-8.5 3.5 2.74-4.8z" opacity=".6"/>
<path d="m43.1 24.6-2.74 4.8 5.64-2.3v-1.84z" opacity=".75"/>
<path d="m46 23.4-38 15.6h1.86l36.16-14.84z"/>
</g><use href="#u1O"></use><use class="ColorScheme-Highlight" fill="currentColor" href="#u1O" opacity=".6"></use><use class="ColorScheme-NeutralText" fill="#2885b7" href="#u1O" opacity=".15"></use><path class="ColorScheme-NeutralText" d="m4 6c-1.1 0-2 .9-2 2v12.73l.83-.4 9.3-2.2 1.17.04 32.7 1.24v-11.4c0-1.1-.9-2-2-2z" fill="#aa478a" opacity=".15"/><path class="ColorScheme-NeutralText" d="m4 6c-1.1 0-2 .9-2 2v12.73l.83-.4 42.96-13.2c-.3-.67-1-1.13-1.8-1.13z" fill="#aa478a" opacity=".6"/><path class="ColorScheme-NeutralText" d="m4 6c-1.1 0-2 .9-2 2v12.73l23.06-14.73z" fill="#cc4a5e" opacity=".75"/><path d="m23.53 6-21.53 13.95v.8l.83-.4 9.3-2.2 1.17.04 32.7 6.8v-.7l-28.5-5.93 28.5 1.1v-.7l-33.7-1.26 33.5-10.3c-.1-.23-.27-.44-.46-.6l-41.13 12.84 20.87-13.35z" fill="#fffefc" opacity=".15"/><path d="m 17.5,17.6 -4.17,-.16 32.7,6.8 v -5.56 z" fill="url(#u1K)" opacity=".6"/><path class="ColorScheme-Background" d="m2 39v1c0 1.1.9 2 2 2h40c1.1 0 2-.9 2-2v-1z" fill="currentColor" opacity=".8"/><rect class="ColorScheme-Background" fill="currentColor" height=".5" opacity=".2" width="44" x="2" y="39"/><rect fill="url(#u1I)" height="1" opacity=".2" width="44" x="2" y="38"/><rect class="ColorScheme-Text" fill="currentColor" height="1" ry=".5" width="2" x="4" y="40"/><rect class="ColorScheme-Text" fill="currentColor" height="1" ry=".5" width="3" x="41" y="40"/><rect class="ColorScheme-Text" fill="currentColor" height="1" ry=".5" width="1" x="39" y="40"/><path d="m2 8.5v-.5c0-1.1.9-2 2-2h40c1.1 0 2 .9 2 2v.5c0-1.1-.9-2-2-2h-40c-1.1 0-2 .9-2 2z" fill="#fff" opacity=".1"/><path d="m2 9v-1c0-1.1.9-2 2-2h40c1.1 0 2 .9 2 2v1c0-1.1-.9-2-2-2h-40c-1.1 0-2 .9-2 2z" fill="#fff" opacity=".1"/><path class="ColorScheme-Text" d="m2 39v1c0 1.1.9 2 2 2h40c1.1 0 2-.9 2-2v-1c0 1.1-.9 2-2 2h-40c-1.1 0-2-.9-2-2z" fill="currentColor" opacity=".1"/><path class="ColorScheme-Text" d="m2 39.5v.5c0 1.1.9 2 2 2h40c1.1 0 2-.9 2-2v-.5c0 1.1-.9 2-2 2h-40c-1.1 0-2-.9-2-2z" fill="currentColor" opacity=".1"/></g>
</svg>