<?xml version="1.0" encoding="utf-8"?><svg height="48" width="48" xmlns="http://www.w3.org/2000/svg" xmlns:svg="http://www.w3.org/2000/svg" xmlns:xlink="http://www.w3.org/1999/xlink"><defs id="primary-definitions"><style id="current-color-scheme" type="text/css">.ColorScheme-Text           { color:#fff; }
      .ColorScheme-Background     { color:#111; }
      .ColorScheme-Highlight      { color:#3daefd; }
      .ColorScheme-ViewBackground { color:#000; }
      .ColorScheme-PositiveText   { color:#27ae60; }
      .ColorScheme-NeutralText    { color:#f67400; }
      .ColorScheme-NegativeText   { color:#da4453; }
  </style><style id="extended-color-scheme" type="text/css">.ExScheme-Black     { color:#3e3e3e; }
      .ExScheme-White     { color:#fcfcfc; }
      .ExScheme-Grey-1    { color:#cfd5d5; }
      .ExScheme-Grey-2    { color:#909c9c; }
      .ExScheme-Grey-3    { color:#536161; }
      .ExScheme-Red-1     { color:#ffafa5; }
      .ExScheme-Red-2     { color:#bf4231; }
      .ExScheme-Red-3     { color:#4d2f2b; }
      .ExScheme-Green-1   { color:#abf9c7; }
      .ExScheme-Green-2   { color:#3bb566; }
      .ExScheme-Green-3   { color:#377d50; }
      .ExScheme-Blue-1    { color:#abdaf9; }
      .ExScheme-Blue-2    { color:#3daefd; }
      .ExScheme-Blue-3    { color:#2b3c4d; }
      .ExScheme-Yellow-1  { color:#faffa5; }
      .ExScheme-Yellow-2  { color:#cac726; }
      .ExScheme-Yellow-3  { color:#4b4d2b; }
      .ExScheme-Orange-1  { color:#ffdaa5; }
      .ExScheme-Orange-2  { color:#ff9701; }
      .ExScheme-Orange-3  { color:#4d372b; }
      .ExScheme-Brown-1   { color:#e9d6bb; }
      .ExScheme-Brown-2   { color:#997657; }
      .ExScheme-Brown-3   { color:#433a35; }
      .ExScheme-Purple-1  { color:#e2abf9; }
      .ExScheme-Purple-2  { color:#b401ff; }
      .ExScheme-Purple-3  { color:#432b4d; }
      .ExScheme-Cyan-1    { color:#b2f2e6; }
      .ExScheme-Cyan-2    { color:#31bfa6; }
      .ExScheme-Cyan-3    { color:#2b4d47; }
      .ExScheme-Magenta-1 { color:#f8a6d8; }
      .ExScheme-Magenta-2 { color:#f00091; }
      .ExScheme-Magenta-3 { color:#770048; }
  </style><linearGradient id="gradientDark"><stop offset="0"/><stop offset="1" stop-opacity="0"/></linearGradient><linearGradient id="gradientLight"><stop offset="0" stop-color="#fff"/><stop offset="1" stop-color="#fff" stop-opacity="0"/></linearGradient><linearGradient id="gradientPanel"><stop offset="0" stop-color="#172525"/><stop offset="1" stop-color="#172525" stop-opacity="0"/></linearGradient><radialGradient cx="19.74" cy="-20.34" gradientTransform="matrix(-.507 .1284 -.041 -.162 48.2859 5.8995)" gradientUnits="userSpaceOnUse" id="gd1" r="15" spreadMethod="reflect" xlink:href="#gradientDark"/><linearGradient gradientTransform="matrix(1.4265 -.543 .543 1.4265 -41.1042 5.202)" gradientUnits="userSpaceOnUse" id="gd2" x1="-12" x2="-12" xlink:href="#gradientDark" y1="33" y2="31"/><linearGradient gradientTransform="matrix(1.183 .246 -.205 .986 19.4711 2.0256)" gradientUnits="userSpaceOnUse" id="gd3" x1="9" x2="9" xlink:href="#gradientDark" y1="14" y2="20"/><linearGradient id="gd4" xlink:href="#gradientDark" y1="1" y2="0"/><linearGradient gradientTransform="matrix(-2.9333 0 0 2.9333 76.9333 -34.4125)" gradientUnits="userSpaceOnUse" id="gp1" x1="21.01" x2="22.55" xlink:href="#gradientPanel" y1="25.03" y2="22.45"/><linearGradient gradientTransform="matrix(1.5 0 0 1.5 -.4984 1.5926)" gradientUnits="userSpaceOnUse" id="gp2" x1="23.32" x2="22.05" xlink:href="#gradientPanel" y1="19.11" y2="14.47"/><path d="m27.066 30.12-25.066 8.88v1c0 1.108.892 2 2 2h40c1.108 0 2-.892 2-2v-1z" id="use-path-7Y"/><path d="M 3,10 2,20.73 2,39 h 8 L 45,24 Z" id="use-path-7Z"/><path d="m4 6c-1.108 0-2 .892-2 2v12.73l.832-.422 9.307-2.21 1.166.045 32.695 6.8v-16.94c0-1.108-.892-2-2-2z" id="use-path-80"/></defs><g id="content"><use class="ColorScheme-Highlight" fill="currentColor" href="#use-path-7Y"/><use fill="url(#gp1)" href="#use-path-7Y"/><use class="ColorScheme-Highlight" fill="currentColor" href="#use-path-7Z"/><use fill="url(#gd1)" href="#use-path-7Z" opacity=".075"/><use href="#use-path-7Z" opacity=".5"/><path d="m46 22.676-42.89 16.324h16.316l26.572-10.115z" fill="url(#gd2)" opacity=".4"/><path d="m2.436 6.766c-.27.34-.436.765-.436 1.234v10.959l44 9.154v-11.36z" fill="url(#gd3)" opacity=".4"/><path d="M 46,23.398 7.977,39 H 46 Z" fill="#334545"/><g opacity=".4"><path d="M 46,38.145 43.92,39 H 46 Z" opacity=".6"/><path d="m29.098 37.706-.736 1.294h6.41z" opacity=".3"/><path d="m43.395 35.527-8.463 3.473h6.484z" opacity=".6"/><path d="m37.618 34.212-8.52 3.494 5.673 1.294h.12z" opacity=".5"/><path d="m37.618 34.212-2.728 4.788h.042l8.463-3.473z" opacity=".7"/><path d="m29.098 37.706-3.15 1.294h2.415z"/><path d="m17.543 35.074-2.236 3.926h1.657l6.356-2.608z" opacity=".6"/><path d="m23.321 36.39 8.52-3.497-2.743 4.813z" opacity=".3"/><path d="m23.32 36.392-6.356 2.608h4.868z"/><path d="m23.32 36.392-1.488 2.608h4.114l3.15-1.294z" opacity=".5"/><path d="m17.544 35.075 8.52-3.497-2.743 4.813z" opacity=".5"/><path d="m31.84 32.895-8.52 3.497 2.743-4.813z"/><path d="m37.618 34.211-8.52 3.497 2.743-4.813z" opacity=".75"/><path d="m17.543 35.074-8.52 3.497 1.88.43h4.403z"/><path d="m9.023 38.57-.244.43h2.126z" opacity=".6"/><path d="m 46,30.77 -8.38,3.44 5.777,1.316 L 46,30.959 Z" opacity=".6"/><path d="m46 27.086-5.637 2.312 5.637 1.285z" opacity=".6"/><path d="m31.84 32.895 8.52-3.497-2.743 4.813z" opacity=".3"/><path d="m40.36 29.398-2.742 4.812 8.38-3.44v-.088z"/><path d="m46 30.955-2.605 4.572 2.605-1.07z"/><path d="m26.064 31.578 8.52-3.497-2.743 4.813z" opacity=".5"/><path d="m43.395 35.527-1.98 3.473h2.504l2.08-.855v-2.023z" opacity=".5"/><path d="m46 34.457-2.605 1.07 2.605.594z" opacity=".75"/><path d="m34.585 28.08 8.52-3.497-2.743 4.813z"/><path d="m40.362 29.398-8.52 3.497 2.743-4.813z" opacity=".6"/><path d="m43.105 24.584-2.742 4.814 5.637-2.312v-1.842z" opacity=".75"/><path d="m46 23.398-38.023 15.602h1.863l36.15-14.84z"/></g><use href="#use-path-80"/><use class="ColorScheme-Highlight" fill="currentColor" href="#use-path-80" opacity=".6"/><use class="ColorScheme-NeutralText" fill="currentColor" href="#use-path-80" opacity=".15"/><path class="ColorScheme-NeutralText" d="m4 6c-1.108 0-2 .892-2 2v12.73l.832-.422 9.307-2.21 1.166.045 32.695 1.24v-11.383c0-1.108-.892-2-2-2z" fill="currentColor" opacity=".15"/><path class="ColorScheme-NeutralText" d="m4 6c-1.108 0-2 .892-2 2v12.73l.832-.422 42.96-13.18c-.324-.666-1-1.127-1.793-1.127z" fill="currentColor" opacity=".15"/><path class="ColorScheme-NeutralText" d="m4 6c-1.108 0-2 .892-2 2v12.73l23.064-14.73z" fill="currentColor" opacity=".15"/><path d="m23.53 6-21.53 13.947v.78l.828-.422 9.307-2.21 1.172.045 32.693 6.8v-.71l-28.523-5.932 28.523 1.082v-.695l-33.71-1.256 33.498-10.316c-.115-.232-.273-.437-.465-.607l-41.126 12.842 20.868-13.35z" fill="#fffefc" opacity=".15"/><path d="m17.477 18.3-4.172-.158 32.695 6.8v-5.56z" fill="url(#gp2)" opacity=".6"/><path class="ColorScheme-Background" d="m2 39v1c0 1.108.892 2 2 2h40c1.108 0 2-.892 2-2v-1z" fill="currentColor" opacity=".8"/><rect class="ColorScheme-Background" fill="currentColor" height=".5" opacity=".2" width="44" x="2" y="39"/><rect fill="url(#gd4)" height="1" opacity=".2" width="44" x="2" y="38"/><rect class="ColorScheme-Text" fill="currentColor" height="1" ry=".5" width="2" x="4" y="40"/><rect class="ColorScheme-Text" fill="currentColor" height="1" ry=".5" width="3" x="41" y="40"/><rect class="ColorScheme-Text" fill="currentColor" height="1" ry=".5" width="1" x="39" y="40"/><path d="m2 8.5v-.5c0-1.108.892-2 2-2h40c1.108 0 2 .892 2 2v.5c0-1.108-.892-2-2-2h-40c-1.108 0-2 .892-2 2z" fill="#fff" opacity=".1"/><path d="m2 9v-1c0-1.108.892-2 2-2h40c1.108 0 2 .892 2 2v1c0-1.108-.892-2-2-2h-40c-1.108 0-2 .892-2 2z" fill="#fff" opacity=".1"/><path class="ColorScheme-Text" d="m2 39v1c0 1.108.892 2 2 2h40c1.108 0 2-.892 2-2v-1c0 1.108-.892 2-2 2h-40c-1.108 0-2-.892-2-2z" fill="currentColor" opacity=".1"/><path class="ColorScheme-Text" d="m2 39.5v.5c0 1.108.892 2 2 2h40c1.108 0 2-.892 2-2v-.5c0 1.108-.892 2-2 2h-40c-1.108 0-2-.892-2-2z" fill="currentColor" opacity=".1"/></g></svg>