<svg height="48" version="1.1" width="48" xmlns="http://www.w3.org/2000/svg" xmlns:svg="http://www.w3.org/2000/svg" xmlns:xlink="http://www.w3.org/1999/xlink">
<defs id="primary-definitions">
<style id="current-color-scheme" type="text/css">
      .ColorScheme-Text         { color: #232629; }
      .ColorScheme-Background   { color: #eff0f1; }
      .ColorScheme-Highlight    { color: #7ec9f0; }
      .ColorScheme-PositiveText { color: #27ae60; }
      .ColorScheme-NeutralText  { color: #f67400; }
      .ColorScheme-NegativeText { color: #da4453; }
      .ColorScheme-ActiveText   { color: #3daee9; }
      .ColorScheme-Complement   { color: #ffffff; }
      .ColorScheme-Contrast     { color: #000000; }
    </style>
<style id="extended-color-scheme" type="text/css">
      .ExScheme-Black     { color:#3e3e3e; }
      .ExScheme-White     { color:#fcfcfc; }
      .ExScheme-Grey-1    { color:#cfd5d5; }
      .ExScheme-Grey-2    { color:#909c9c; }
      .ExScheme-Grey-3    { color:#536161; }
      .ExScheme-Red-1     { color:#ffafa5; }
      .ExScheme-Red-2     { color:#bf4231; }
      .ExScheme-Red-3     { color:#4d2f2b; }
      .ExScheme-Green-1   { color:#abf9c7; }
      .ExScheme-Green-2   { color:#3bb566; }
      .ExScheme-Green-3   { color:#377d50; }
      .ExScheme-Blue-1    { color:#abdaf9; }
      .ExScheme-Blue-2    { color:#3daefd; }
      .ExScheme-Blue-3    { color:#2b3c4d; }
      .ExScheme-Yellow-1  { color:#faffa5; }
      .ExScheme-Yellow-2  { color:#cac726; }
      .ExScheme-Yellow-3  { color:#4b4d2b; }
      .ExScheme-Orange-1  { color:#ffdaa5; }
      .ExScheme-Orange-2  { color:#ff9701; }
      .ExScheme-Orange-3  { color:#4d372b; }
      .ExScheme-Brown-1   { color:#e9d6bb; }
      .ExScheme-Brown-2   { color:#997657; }
      .ExScheme-Brown-3   { color:#433a35; }
      .ExScheme-Purple-1  { color:#e2abf9; }
      .ExScheme-Purple-2  { color:#b401ff; }
      .ExScheme-Purple-3  { color:#432b4d; }
      .ExScheme-Cyan-1    { color:#b2f2e6; }
      .ExScheme-Cyan-2    { color:#31bfa6; }
      .ExScheme-Cyan-3    { color:#2b4d47; }
      .ExScheme-Magenta-1 { color:#f8a6d8; }
      .ExScheme-Magenta-2 { color:#f00091; }
      .ExScheme-Magenta-3 { color:#770048; }
    </style>
<linearGradient id="ud5">
<stop offset="0"/>
<stop offset="1" stop-opacity="0"/>
</linearGradient>
<linearGradient id="ud6">
<stop offset="0" stop-color="#fff"/>
<stop offset="1" stop-color="#fff" stop-opacity="0"/>
</linearGradient>
<style id="ud7" type="text/css">
        .force-display-for-editing { display: inline !important; }
    </style><style class="remove-if__show-crease" type="text/css">
        .enable-if__show-crease { display: none; }
    </style><style class="remove-if__color-sync-mimes-places" type="text/css">
        .enable-if__color-sync-mimes-places { display: none; }
    </style><radialGradient cx=".5" cy="0" id="ud8" r="1" xlink:href="#ud6"/><linearGradient id="ud9" xlink:href="#ud5" y1="1" y2=".5"/><style class="ColorScheme-Background" fill="currentColor" opacity=".6" type="text/css">
   .ColorScheme-Text           { color:#eff0f1; }
      .ColorScheme-Background     { color:#31363b; }
      .ColorScheme-Highlight      { color:#3daefd; }
      .ColorScheme-ViewBackground { color:#fcfcfc; }
      .ColorScheme-PositiveText   { color:#27ae60; }
      .ColorScheme-NeutralText    { color:#f67400; }
      .ColorScheme-NegativeText   { color:#da4453; }
  </style><path d="M 7,6 C 5.9,6 5,6.9 5,8 v 2 4 c -1.1,0 -2,.9 -2,2 v 24 c 0,1.1 .9,2 2,2 h 38 c 1.1,0 2,-.9 2,-2 V 25 16 14 c 0,-1.1 -.9,-2 -2,-2 V 10 C 43,8.9 42.1,8 41,8 H 21 C 18,8 18,6 15,6 Z" id="uda"></path><path d="M 7,6 C 5.9,6 5,6.9 5,8 v 2 4 h 10 c 3,0 3,-2 6,-2 H 43 V 10 C 43,8.9 42.1,8 41,8 H 21 C 18,8 18,6 15,6 Z" id="udb"></path></defs>
<g id="content" transform="translate(0,0)"><use class="sync-color enable-if__color-sync-mimes-places force-display-for-editing ColorScheme-ActiveText" fill="currentColor" href="#uda"></use><use class="primary-color remove-if__color-sync-mimes-places ColorScheme-ActiveText" fill="currentColor" href="#uda"></use><use class="ColorScheme-Contrast" fill="currentColor" href="#uda" opacity=".1"></use><g id="decal" transform="translate(12,15)"><path class="ColorScheme-Background" d="M 8.93,6 V 8 H 11 V 6 Z M 12,6 v 2 h 2 V 6 Z M 5,9 v 2 H 7 V 9 Z m 3,0 v 2 h 2 V 9 Z m 3,0 v 2 h 2 V 9 Z m 3,0 v 2 h 2 V 9 Z m 4,0 c -.6,.46 -.9,2.55 1,3 1.03,1.47 2.77,.7 3,0 C 21.77,11.3 20.74,10.6 19.63,11.13 19.75,9.93 18.75,9.06 18,9 Z m 1,3 H 3 c 0,4.4 3.6,6 8,6 4.4,0 8,-1.6 8,-6 z M 6.47,13 C 6.5,13 6.5,13 6.5,13 6.75,13 7,13.2 7,13.5 7,13.75 6.75,14 6.5,14 6.2,14 6,13.75 6,13.5 6,13.2 6.2,13 6.47,13 Z" fill="currentColor" opacity=".6"/><path class="ColorScheme-Background" d="M 8.93,6 V 8 H 11 V 6 Z M 12,6 v 2 h 2 V 6 Z M 9.43,6.5 H 10.5 L 10.5,7.5 H 9.43 Z M 12.5,6.5 h 1 v 1 h -1 z M 5,9 v 2 H 7 V 9 Z m 3,0 v 2 h 2 V 9 Z m 3,0 v 2 h 2 V 9 Z m 3,0 v 2 h 2 V 9 Z m 4,0 c -.6,.46 -.9,2.55 1,3 1.03,1.47 2.77,.7 3,0 C 21.77,11.3 20.74,10.6 19.63,11.13 19.75,9.93 18.75,9.06 18,9 Z m 1,3 H 3 c 0,4.4 3.6,6 8,6 4.4,0 8,-1.6 8,-6 z M 5.5,9.5 h 1 v 1 h -1 z m 3,0 h 1 v 1 h -1 z m 3,0 h 1 v 1 h -1 z m 3,0 h 1 v 1 h -1 z m 3.7,.13 c .2,.07 .4,.13 .6,.34 .25,.3 .4,.66 .37,1.1 L 19.1,11.5 h -0 c -.75,-.2 -.96,-.6 -1.03,-1.06 -.03,-.24 -0,-.5 .06,-.7 0,-.07 .04,-.07 .06,-.1 z m 2.25,1.8 c .2,0 .35,.05 0.5,.1 .2,.1 .3,.25 .4,.4 -.13,.1 -.3,.3 -.6,.36 -.4,.07 -.83,-.04 -1.2,-.53 V 11.75 l .35,-.16 c .2,-.1 .4,-.14 .6,-.14 z M 3.6,12.5 H 6.45 C 6.2,12.5 5.95,12.6 5.77,12.8 5.6,13 5.5,13.25 5.5,13.5 c 0,.5 .4,1 1,1 .3,0 .5,-.13 .7,-.3 C 7.37,14 7.5,13.8 7.5,13.5 c 0,-.6 -.5,-1 -1,-1 h 11.9 c -.14,1.73 -.8,2.95 -2,3.73 C 15.05,17.1 13.14,17.5 11,17.5 8.86,17.5 6.95,17.1 5.6,16.23 4.4,15.45 3.75,14.23 3.6,12.5 Z M 6.47,13 C 6.5,13 6.5,13 6.5,13 6.75,13 7,13.2 7,13.5 7,13.75 6.75,14 6.5,14 6.2,14 6,13.75 6,13.5 6,13.2 6.2,13 6.47,13 Z" fill="currentColor" opacity=".6"/></g><use href="#udb" opacity=".4"></use><use fill="url(#ud9)" href="#udb" opacity=".1"></use><path d="m 21,12 c -3,0 -3,2 -6,2 H 5 c -1.1,0 -2,.9 -2,2 v 24 c 0,1.1 .9,2 2,2 h 38 c 1.1,0 2,-.9 2,-2 V 25 16 14 c 0,-1.1 -.9,-2 -2,-2 z" fill="url(#ud8)" opacity=".2"/><path class="ColorScheme-Contrast" d="m 3,39 v 1 c 0,1.1 .9,2 2,2 h 38 c 1.1,0 2,-.9 2,-2 v -1 c 0,1.1 -.9,2 -2,2 H 5 C 3.9,41 3,40.1 3,39 Z" fill="currentColor" opacity=".1"/><path class="ColorScheme-Contrast" d="M 3,39.5 V 40 c 0,1.1 .9,2 2,2 h 38 c 1.1,0 2,-.9 2,-2 v -0.5 c 0,1.1 -.9,2 -2,2 H 5 c -1.1,0 -2,-.9 -2,-2 z" fill="currentColor" opacity=".2"/><path d="m 21,12 c -3,0 -3,2 -6,2 H 5 c -1.1,0 -2,.9 -2,2 v 1 c 0,-1.1 .9,-2 2,-2 h 10 c 3,0 3,-2 6,-2 h 22 c 1.1,0 2,.9 2,2 v -1 c 0,-1.1 -.9,-2 -2,-2 z" fill="#fff" opacity=".1"/><path d="m 21,12 c -3,0 -3,2 -6,2 H 5 c -1.1,0 -2,.9 -2,2 v 0.5 c 0,-1.1 .9,-2 2,-2 h 10 c 3,0 3,-2 6,-2 h 22 c 1.1,0 2,.9 2,2 V 14 c 0,-1.1 -.9,-2 -2,-2 z" fill="#fff" opacity=".2"/><path d="m 21,11 c -3,0 -3,2 -6,2 H 5 v 1 h 10 c 3,0 3,-2 6,-2 h 22 v -1 z" opacity=".1"/><path d="m 21,11.5 c -3,0 -3,2 -6,2 H 5 V 14 h 10 c 3,0 3,-2 6,-2 h 22 v -0.5 z" opacity=".2"/></g>
</svg>