<svg height="48" version="1.1" width="48" xmlns="http://www.w3.org/2000/svg" xmlns:svg="http://www.w3.org/2000/svg" xmlns:xlink="http://www.w3.org/1999/xlink">
<defs id="primary-definitions">
<style id="current-color-scheme" type="text/css">
      .ColorScheme-Text         { color: #232629; }
      .ColorScheme-Background   { color: #eff0f1; }
      .ColorScheme-Highlight    { color: #7ec9f0; }
      .ColorScheme-PositiveText { color: #27ae60; }
      .ColorScheme-NeutralText  { color: #f67400; }
      .ColorScheme-NegativeText { color: #da4453; }
      .ColorScheme-ActiveText   { color: #3daee9; }
      .ColorScheme-Complement   { color: #ffffff; }
      .ColorScheme-Contrast     { color: #000000; }
    </style>
<style id="extended-color-scheme" type="text/css">
      .ExScheme-Black     { color:#3e3e3e; }
      .ExScheme-White     { color:#fcfcfc; }
      .ExScheme-Grey-1    { color:#cfd5d5; }
      .ExScheme-Grey-2    { color:#909c9c; }
      .ExScheme-Grey-3    { color:#536161; }
      .ExScheme-Red-1     { color:#ffafa5; }
      .ExScheme-Red-2     { color:#bf4231; }
      .ExScheme-Red-3     { color:#4d2f2b; }
      .ExScheme-Green-1   { color:#abf9c7; }
      .ExScheme-Green-2   { color:#3bb566; }
      .ExScheme-Green-3   { color:#377d50; }
      .ExScheme-Blue-1    { color:#abdaf9; }
      .ExScheme-Blue-2    { color:#3daefd; }
      .ExScheme-Blue-3    { color:#2b3c4d; }
      .ExScheme-Yellow-1  { color:#faffa5; }
      .ExScheme-Yellow-2  { color:#cac726; }
      .ExScheme-Yellow-3  { color:#4b4d2b; }
      .ExScheme-Orange-1  { color:#ffdaa5; }
      .ExScheme-Orange-2  { color:#ff9701; }
      .ExScheme-Orange-3  { color:#4d372b; }
      .ExScheme-Brown-1   { color:#e9d6bb; }
      .ExScheme-Brown-2   { color:#997657; }
      .ExScheme-Brown-3   { color:#433a35; }
      .ExScheme-Purple-1  { color:#e2abf9; }
      .ExScheme-Purple-2  { color:#b401ff; }
      .ExScheme-Purple-3  { color:#432b4d; }
      .ExScheme-Cyan-1    { color:#b2f2e6; }
      .ExScheme-Cyan-2    { color:#31bfa6; }
      .ExScheme-Cyan-3    { color:#2b4d47; }
      .ExScheme-Magenta-1 { color:#f8a6d8; }
      .ExScheme-Magenta-2 { color:#f00091; }
      .ExScheme-Magenta-3 { color:#770048; }
    </style>
<linearGradient id="uco">
<stop offset="0"/>
<stop offset="1" stop-opacity="0"/>
</linearGradient>
<linearGradient id="ucp">
<stop offset="0" stop-color="#fff"/>
<stop offset="1" stop-color="#fff" stop-opacity="0"/>
</linearGradient>
<style id="ucq" type="text/css">
        .force-display-for-editing { display: inline !important; }
    </style><style class="remove-if__show-crease" type="text/css">
        .enable-if__show-crease { display: none; }
    </style><style class="remove-if__color-sync-mimes-places" type="text/css">
        .enable-if__color-sync-mimes-places { display: none; }
    </style><radialGradient cx=".5" cy="0" id="ucr" r="1" xlink:href="#ucp"/><linearGradient id="ucs" xlink:href="#uco" y1="1" y2=".5"/><style class="ColorScheme-Background" fill="currentColor" opacity=".6" type="text/css">
   .ColorScheme-Text           { color:#eff0f1; }
      .ColorScheme-Background     { color:#31363b; }
      .ColorScheme-Highlight      { color:#3daefd; }
      .ColorScheme-ViewBackground { color:#fcfcfc; }
      .ColorScheme-PositiveText   { color:#27ae60; }
      .ColorScheme-NeutralText    { color:#f67400; }
      .ColorScheme-NegativeText   { color:#da4453; }
  </style><path d="M 7,6 C 5.9,6 5,6.9 5,8 v 2 4 c -1.1,0 -2,.9 -2,2 v 24 c 0,1.1 .9,2 2,2 h 38 c 1.1,0 2,-.9 2,-2 V 25 16 14 c 0,-1.1 -.9,-2 -2,-2 V 10 C 43,8.9 42.1,8 41,8 H 21 C 18,8 18,6 15,6 Z" id="uct"></path><path d="M 7,6 C 5.9,6 5,6.9 5,8 v 2 4 h 10 c 3,0 3,-2 6,-2 H 43 V 10 C 43,8.9 42.1,8 41,8 H 21 C 18,8 18,6 15,6 Z" id="ucu"></path></defs>
<g id="content" transform="translate(0,0)"><use class="sync-color enable-if__color-sync-mimes-places force-display-for-editing ColorScheme-ActiveText" fill="currentColor" href="#uct"></use><use class="primary-color remove-if__color-sync-mimes-places ColorScheme-ActiveText" fill="currentColor" href="#uct"></use><use class="ColorScheme-Contrast" fill="currentColor" href="#uct" opacity=".1"></use><g id="decal" transform="translate(12,15)"><path class="ColorScheme-Background" d="M 12,2 C 11.45,2 11,2.45 11,3 V 3.2 C 9.8,3.6 9,4.73 9,6 c 0,.85 .36,1.66 1,2.23 V 8.86 L 7.87,14 H 6.47 C 6.2,14 6,14.2 6,14.47 v .06 C 6,14.8 6.2,15 6.47,15 h 1 l -1.6,3.84 c -.14,.34 -.1,.7 .13,1 0,0 -.6,2.06 -.35,2.16 .26,.1 1.3,-1.8 1.3,-1.8 .34,-.05 .65,-.26 .8,-.6 L 9.6,15 H 11 c 0,.55 .45,1 1,1 .55,0 1,-.45 1,-1 h 1.4 l 1.9,4.6 c .14,.34 .45,.56 .8,.6 0,0 1,1.9 1.3,1.8 .26,-.1 -.35,-2.16 -.35,-2.16 .2,-.27 .27,-.65 .13,-1 L 16.54,15 H 17.53 C 17.8,15 18,14.8 18,14.53 v -.06 C 18,14.2 17.8,14 17.53,14 H 16.13 L 14,8.86 V 8.23 C 14.64,7.66 15,6.85 15,6 15,4.73 14.2,3.6 13,3.17 V 3 C 13,2.45 12.55,2 12,2 Z m 0,2 c 1.1,0 2,.9 2,2 0,1.1 -.9,2 -2,2 -1.1,0 -2,-.9 -2,-2 0,-1.1 .9,-2 2,-2 z m 0,1 c -.55,0 -1,.45 -1,1 0,.55 .45,1 1,1 .55,0 1,-.45 1,-1 C 13,5.45 12.55,5 12,5 Z M 12.1,9.44 13.96,14 H 13 c 0,-.55 -.45,-1 -1,-1 -.55,0 -1,.45 -1,1 h -.96 l 1.9,-4.56 c .05,-.13 .1,-.13 .15,0 z" fill="currentColor" opacity=".6" stop-color="#000000"/><path class="ColorScheme-Background" d="M 12,2 C 11.45,2 11,2.45 11,3 V 3.2 C 9.8,3.6 9,4.73 9,6 9,6.85 9.36,7.66 10,8.23 V 8.86 L 7.87,14 H 6.47 C 6.2,14 6,14.2 6,14.47 v .06 C 6,14.8 6.2,15 6.47,15 h 1 l -1.6,3.84 c -.14,.34 -.1,.7 .13,1 0,0 -.6,2.06 -.35,2.16 .26,.1 1.3,-1.8 1.3,-1.8 .34,-.05 .65,-.26 .8,-.6 L 9.6,15 H 11 c 0,.55 .45,1 1,1 .55,0 1,-.45 1,-1 h 1.4 l 1.9,4.6 c .14,.34 .45,.56 .8,.6 0,0 1,1.9 1.3,1.8 .26,-.1 -.35,-2.16 -.35,-2.16 .2,-.27 .27,-.65 .13,-1 L 16.54,15 H 17.53 C 17.8,15 18,14.8 18,14.53 v -.06 C 18,14.2 17.8,14 17.53,14 H 16.13 L 14,8.86 V 8.23 C 14.64,7.66 15,6.85 15,6 15,4.73 14.2,3.6 13,3.17 V 3 C 13,2.45 12.55,2 12,2 Z m 0,0.5 c .3,0 0.5,.2 0.5,0.5 v .53 l -1,0 V 3 C 11.5,2.7 11.7,2.5 12,2.5 Z M 12,4 c 1.1,0 2,.9 2,2 0,1.1 -.9,2 -2,2 -1.1,0 -2,-.9 -2,-2 0,-1.1 .9,-2 2,-2 z m 0,1 c -.55,0 -1,.45 -1,1 0,.55 .45,1 1,1 .55,0 1,-.45 1,-1 0,-.55 -.45,-1 -1,-1 z m 0,0.5 c .3,0 0.5,.2 0.5,0.5 0,.3 -.2,0.5 -0.5,0.5 C 11.7,6.5 11.5,6.3 11.5,6 11.5,5.7 11.7,5.5 12,5.5 Z M 10.5,8 11.46,8.5 l .03,.53 c 0,.03 -0,.15 -.04,.2 h 0 L 9.3,14.5 7.25,19.4 C 7.2,19.6 7.03,19.7 6.86,19.7 l -.25,.03 -.1,.2 c 0,0 -0,0 -0,0 1.33e-4,-4.53e-4 0,-0 0,-0 L 6.55,19.73 6.4,19.53 C 6.3,19.4 6.26,19.2 6.33,19.03 L 8.2,14.5 10.5,8.96 Z m 3,0 V 8.96 L 15.8,14.5 l 1.9,4.53 c .07,.2 .04,.36 -.06,.5 l -.15,.2 .07,.24 c 0,0 0,0 0,0 -2.36e-4,-4.34e-4 -0,-0 -0,-0 l -.1,-.2 -.25,-.03 C 16.97,19.7 16.8,19.6 16.75,19.4 L 14.7,14.5 12.54,9.25 h 0 C 12.5,9.2 12.5,9.07 12.5,9.03 L 12.54,8.5 Z M 12,9.35 c 0,-10e-8 .05,.03 .1,.1 L 13.96,14 H 13 c 0,-.55 -.45,-1 -1,-1 -.55,0 -1,.45 -1,1 H 10.04 L 11.9,9.44 C 11.95,9.4 12,9.35 12,9.35 Z M 12,13.5 c .3,0 0.5,.2 0.5,0.5 v 0.5 0.5 c 0,.3 -.2,0.5 -0.5,0.5 -.3,0 -0.5,-.2 -0.5,-0.5 V 14.5 14 c 0,-.3 .2,-0.5 0.5,-0.5 z" fill="currentColor" opacity=".6"/></g><use href="#ucu" opacity=".4"></use><use fill="url(#ucs)" href="#ucu" opacity=".1"></use><path d="m 21,12 c -3,0 -3,2 -6,2 H 5 c -1.1,0 -2,.9 -2,2 v 24 c 0,1.1 .9,2 2,2 h 38 c 1.1,0 2,-.9 2,-2 V 25 16 14 c 0,-1.1 -.9,-2 -2,-2 z" fill="url(#ucr)" opacity=".2"/><path class="ColorScheme-Contrast" d="m 3,39 v 1 c 0,1.1 .9,2 2,2 h 38 c 1.1,0 2,-.9 2,-2 v -1 c 0,1.1 -.9,2 -2,2 H 5 C 3.9,41 3,40.1 3,39 Z" fill="currentColor" opacity=".1"/><path class="ColorScheme-Contrast" d="M 3,39.5 V 40 c 0,1.1 .9,2 2,2 h 38 c 1.1,0 2,-.9 2,-2 v -0.5 c 0,1.1 -.9,2 -2,2 H 5 c -1.1,0 -2,-.9 -2,-2 z" fill="currentColor" opacity=".2"/><path d="m 21,12 c -3,0 -3,2 -6,2 H 5 c -1.1,0 -2,.9 -2,2 v 1 c 0,-1.1 .9,-2 2,-2 h 10 c 3,0 3,-2 6,-2 h 22 c 1.1,0 2,.9 2,2 v -1 c 0,-1.1 -.9,-2 -2,-2 z" fill="#fff" opacity=".1"/><path d="m 21,12 c -3,0 -3,2 -6,2 H 5 c -1.1,0 -2,.9 -2,2 v 0.5 c 0,-1.1 .9,-2 2,-2 h 10 c 3,0 3,-2 6,-2 h 22 c 1.1,0 2,.9 2,2 V 14 c 0,-1.1 -.9,-2 -2,-2 z" fill="#fff" opacity=".2"/><path d="m 21,11 c -3,0 -3,2 -6,2 H 5 v 1 h 10 c 3,0 3,-2 6,-2 h 22 v -1 z" opacity=".1"/><path d="m 21,11.5 c -3,0 -3,2 -6,2 H 5 V 14 h 10 c 3,0 3,-2 6,-2 h 22 v -0.5 z" opacity=".2"/></g>
</svg>