<?xml version="1.0" encoding="utf-8"?><svg height="48" width="48" xmlns="http://www.w3.org/2000/svg" xmlns:svg="http://www.w3.org/2000/svg" xmlns:xlink="http://www.w3.org/1999/xlink"><defs id="primary-definitions"><style id="current-color-scheme" type="text/css">.ColorScheme-Text           { color:#fff; }
      .ColorScheme-Background     { color:#111; }
      .ColorScheme-Highlight      { color:#3daefd; }
      .ColorScheme-ViewBackground { color:#000; }
      .ColorScheme-PositiveText   { color:#27ae60; }
      .ColorScheme-NeutralText    { color:#f67400; }
      .ColorScheme-NegativeText   { color:#da4453; }
  </style><style id="extended-color-scheme" type="text/css">.ExScheme-Black     { color:#3e3e3e; }
      .ExScheme-White     { color:#fcfcfc; }
      .ExScheme-Grey-1    { color:#cfd5d5; }
      .ExScheme-Grey-2    { color:#909c9c; }
      .ExScheme-Grey-3    { color:#536161; }
      .ExScheme-Red-1     { color:#ffafa5; }
      .ExScheme-Red-2     { color:#bf4231; }
      .ExScheme-Red-3     { color:#4d2f2b; }
      .ExScheme-Green-1   { color:#abf9c7; }
      .ExScheme-Green-2   { color:#3bb566; }
      .ExScheme-Green-3   { color:#377d50; }
      .ExScheme-Blue-1    { color:#abdaf9; }
      .ExScheme-Blue-2    { color:#3daefd; }
      .ExScheme-Blue-3    { color:#2b3c4d; }
      .ExScheme-Yellow-1  { color:#faffa5; }
      .ExScheme-Yellow-2  { color:#cac726; }
      .ExScheme-Yellow-3  { color:#4b4d2b; }
      .ExScheme-Orange-1  { color:#ffdaa5; }
      .ExScheme-Orange-2  { color:#ff9701; }
      .ExScheme-Orange-3  { color:#4d372b; }
      .ExScheme-Brown-1   { color:#e9d6bb; }
      .ExScheme-Brown-2   { color:#997657; }
      .ExScheme-Brown-3   { color:#433a35; }
      .ExScheme-Purple-1  { color:#e2abf9; }
      .ExScheme-Purple-2  { color:#b401ff; }
      .ExScheme-Purple-3  { color:#432b4d; }
      .ExScheme-Cyan-1    { color:#b2f2e6; }
      .ExScheme-Cyan-2    { color:#31bfa6; }
      .ExScheme-Cyan-3    { color:#2b4d47; }
      .ExScheme-Magenta-1 { color:#f8a6d8; }
      .ExScheme-Magenta-2 { color:#f00091; }
      .ExScheme-Magenta-3 { color:#770048; }
  </style><linearGradient id="gradientDark"><stop offset="0"/><stop offset="1" stop-opacity="0"/></linearGradient><linearGradient id="gradientLight"><stop offset="0" stop-color="#fff"/><stop offset="1" stop-color="#fff" stop-opacity="0"/></linearGradient><style class="toggle-enable-crease" type="text/css">.folder-crease { display: none; }
  </style><style class="toggle-manilla-folders" type="text/css">.folder-manilla { display: none; }
  </style><radialGradient cx=".5" cy="0" id="gl1" r="1" xlink:href="#gradientLight"/><linearGradient id="gd1" xlink:href="#gradientDark" y1="1" y2=".5"/><path d="M 7,6 C 5.892,6 5,6.892 5,8 v 2 4 c -1.108,0 -2,0.892 -2,2 v 24 c 0,1.108 0.892,2 2,2 h 38 c 1.108,0 2,-0.892 2,-2 V 25 16 14 c 0,-1.108 -0.892,-2 -2,-2 V 10 C 43,8.892 42.108,8 41,8 H 21 C 18,8 18,6 15,6 Z" id="use-path-75"/><path d="M 7,6 C 5.892,6 5,6.892 5,8 v 2 4 h 10 c 3,0 3,-2 6,-2 H 43 V 10 C 43,8.892 42.108,8 41,8 H 21 C 18,8 18,6 15,6 Z" id="use-path-76"/></defs><g id="content"><namedview bordercolor="#666666" borderopacity="1.0" current-layer="svg49" cx="24" cy="24" pagecheckerboard="0" pagecolor="#fff" pageopacity="0.0" pageshadow="2" showgrid="true" window-height="1017" window-maximized="1" window-width="1920" window-x="0" window-y="0" zoom="13.25"><grid type="xygrid"/></namedview><use class="folder-manilla ExScheme-Brown-1" fill="currentColor" href="#use-path-75"/><use class="toggle-manilla-folders ExScheme-Grey-3" fill="currentColor" href="#use-path-75" id="primary-color"/><use class="ColorScheme-Text" fill="currentColor" href="#use-path-75" opacity=".1"/><g id="panorama" transform="translate(3,12)"><path d="M 18 0 C 17 0 16 0.5 15 1 L 15 3 L 18 3 L 18 0 z M 21 0 L 21 3 L 24 3 L 24 0 L 21 0 z M 27 0 L 27 3 L 30 3 L 30 0 L 27 0 z M 30 3 L 30 6 L 33 6 L 33 3 L 30 3 z M 33 3 L 36 3 L 36 0 L 33 0 L 33 3 z M 36 3 L 36 6 L 39 6 L 39 3 L 36 3 z M 39 3 L 42 3 L 42 2 C 42 0.892 41.108 0 40 0 L 39 0 L 39 3 z M 39 6 L 39 9 L 42 9 L 42 6 L 39 6 z M 39 9 L 36 9 L 36 11 L 39 11 L 39 9 z M 39 11 L 39 13 L 40 13 L 40 11 L 39 11 z M 36 9 L 36 6 L 33 6 L 33 9 L 36 9 z M 3 2 L 3 3 L 6 3 L 6 2 L 3 2 z M 6 3 L 6 6 L 9 6 L 9 3 L 6 3 z M 9 3 L 12 3 L 12 2 L 9 2 L 9 3 z M 6 6 L 3 6 L 3 9 L 6 9 L 6 6 z M 3 9 L 1 9 L 1 11 L 3 11 L 3 9 z M 3 6 L 3 3 L .275 3 C .105 3.295 -3.7e-17 3.633 0 4 L 0 6 L 3 6 z " fill="#fff" opacity=".2"/><g id="emblem" transform="translate(9,3)"><path class="ExScheme-White" d="M 12 2 C 8.686 2 6 4.686 6 8 A 1.5 1.5 0 0 0 7.5 9.5 A 1.5 1.5 0 0 0 9 8 A 3 3 0 0 1 12 5 A 3 3 0 0 1 15 8 L 15 11 L 6 11 C 4.892 11 4 11.892 4 13 L 4 20 C 4 21.108 4.892 22 6 22 L 18 22 C 19.108 22 20 21.108 20 20 L 20 13 C 20 11.892 19.108 11 18 11 L 18 8 C 18 4.686 15.314 2 12 2 z M 12 3 C 14.76 3 17 5.24 17 8 L 17 11 L 16 11 L 16 8 A 4 4 0 0 0 12 4 A 4 4 0 0 0 8 8 A 0.5 0.5 0 0 1 7.5 8.5 A 0.5 0.5 0 0 1 7 8 C 7 5.24 9.24 3 12 3 z M 6 12 L 18 12 C 18.554 12 19 12.446 19 13 L 19 20 C 19 20.554 18.554 21 18 21 L 6 21 C 5.446 21 5 20.554 5 20 L 5 13 C 5 12.446 5.446 12 6 12 z " fill="currentColor" opacity=".6" stop-color="#000000"/><path class="ExScheme-White" d="M 12,2 C 8.686,2 6,4.686 6,8 A 1.5,1.5 0 0 0 7.5,9.5 1.5,1.5 0 0 0 9,8 3,3 0 0 1 12,5 3,3 0 0 1 15,8 v 3 H 6 c -1.108,0 -2,0.892 -2,2 v 7 c 0,1.108 0.892,2 2,2 h 12 c 1.108,0 2,-0.892 2,-2 v -7 c 0,-1.108 -0.892,-2 -2,-2 V 8 C 18,4.686 15.314,2 12,2 Z m 0,1 c 2.76,0 5,2.24 5,5 v 3 H 16 V 8 A 4,4 0 0 0 12,4 4,4 0 0 0 8,8 0.5,0.5 0 0 1 7.5,8.5 0.5,0.5 0 0 1 7,8 C 7,5.24 9.24,3 12,3 Z m -6,9 h 12 c 0.554,0 1,0.446 1,1 v 7 c 0,0.554 -0.446,1 -1,1 H 6 C 5.446,21 5,20.554 5,20 v -7 c 0,-0.554 0.446,-1 1,-1 z" fill="currentColor" opacity=".6" stop-color="#000000"/></g></g><use href="#use-path-76" opacity=".4"/><use class="toggle-flat-design" fill="url(#gd1)" href="#use-path-76" opacity=".1"/><path class="toggle-flat-design" d="m 21,12 c -3,0 -3,2 -6,2 H 5 c -1.108,0 -2,0.892 -2,2 v 24 c 0,1.108 0.892,2 2,2 h 38 c 1.108,0 2,-0.892 2,-2 V 25 16 14 c 0,-1.108 -0.892,-2 -2,-2 z" fill="url(#gl1)" opacity=".2"/><path class="folder-crease" d="m 3,33 v 1 H 4.5 C 4.777,34 5,33.777 5,33.5 5,33.223 4.777,33 4.5,33 Z m 40.5,0 c -0.277,0 -0.5,0.223 -0.5,0.5 0,0.277 0.223,0.5 0.5,0.5 H 45 v -1 z" opacity=".4"/><path class="ColorScheme-Text" d="m 3,39 v 1 c 0,1.108 0.892,2 2,2 h 38 c 1.108,0 2,-0.892 2,-2 v -1 c 0,1.108 -0.892,2 -2,2 H 5 C 3.892,41 3,40.108 3,39 Z" fill="currentColor" opacity=".1"/><path class="ColorScheme-Text" d="M 3,39.5 V 40 c 0,1.108 0.892,2 2,2 h 38 c 1.108,0 2,-0.892 2,-2 v -0.5 c 0,1.108 -0.892,2 -2,2 H 5 c -1.108,0 -2,-0.892 -2,-2 z" fill="currentColor" opacity=".2"/><path d="m 21,12 c -3,0 -3,2 -6,2 H 5 c -1.108,0 -2,0.892 -2,2 v 1 c 0,-1.108 0.892,-2 2,-2 h 10 c 3,0 3,-2 6,-2 h 22 c 1.108,0 2,0.892 2,2 v -1 c 0,-1.108 -0.892,-2 -2,-2 z" fill="#fff" opacity=".1"/><path d="m 21,12 c -3,0 -3,2 -6,2 H 5 c -1.108,0 -2,0.892 -2,2 v 0.5 c 0,-1.108 0.892,-2 2,-2 h 10 c 3,0 3,-2 6,-2 h 22 c 1.108,0 2,0.892 2,2 V 14 c 0,-1.108 -0.892,-2 -2,-2 z" fill="#fff" opacity=".2"/><path d="m 21,11 c -3,0 -3,2 -6,2 H 5 v 1 h 10 c 3,0 3,-2 6,-2 h 22 v -1 z" opacity=".1"/><path d="m 21,11.5 c -3,0 -3,2 -6,2 H 5 V 14 h 10 c 3,0 3,-2 6,-2 h 22 v -0.5 z" opacity=".2"/></g></svg>