<svg height="48" version="1.1" width="48" xmlns="http://www.w3.org/2000/svg" xmlns:svg="http://www.w3.org/2000/svg" xmlns:xlink="http://www.w3.org/1999/xlink">
<defs id="primary-definitions">
<style id="current-color-scheme" type="text/css">
      .ColorScheme-Text         { color: #232629; }
      .ColorScheme-Background   { color: #eff0f1; }
      .ColorScheme-Highlight    { color: #7ec9f0; }
      .ColorScheme-PositiveText { color: #27ae60; }
      .ColorScheme-NeutralText  { color: #f67400; }
      .ColorScheme-NegativeText { color: #da4453; }
      .ColorScheme-ActiveText   { color: #3daee9; }
      .ColorScheme-Complement   { color: #ffffff; }
      .ColorScheme-Contrast     { color: #000000; }
    </style>
<style id="extended-color-scheme" type="text/css">
      .ExScheme-Black     { color:#3e3e3e; }
      .ExScheme-White     { color:#fcfcfc; }
      .ExScheme-Grey-1    { color:#cfd5d5; }
      .ExScheme-Grey-2    { color:#909c9c; }
      .ExScheme-Grey-3    { color:#536161; }
      .ExScheme-Red-1     { color:#ffafa5; }
      .ExScheme-Red-2     { color:#bf4231; }
      .ExScheme-Red-3     { color:#4d2f2b; }
      .ExScheme-Green-1   { color:#abf9c7; }
      .ExScheme-Green-2   { color:#3bb566; }
      .ExScheme-Green-3   { color:#377d50; }
      .ExScheme-Blue-1    { color:#abdaf9; }
      .ExScheme-Blue-2    { color:#3daefd; }
      .ExScheme-Blue-3    { color:#2b3c4d; }
      .ExScheme-Yellow-1  { color:#faffa5; }
      .ExScheme-Yellow-2  { color:#cac726; }
      .ExScheme-Yellow-3  { color:#4b4d2b; }
      .ExScheme-Orange-1  { color:#ffdaa5; }
      .ExScheme-Orange-2  { color:#ff9701; }
      .ExScheme-Orange-3  { color:#4d372b; }
      .ExScheme-Brown-1   { color:#e9d6bb; }
      .ExScheme-Brown-2   { color:#997657; }
      .ExScheme-Brown-3   { color:#433a35; }
      .ExScheme-Purple-1  { color:#e2abf9; }
      .ExScheme-Purple-2  { color:#b401ff; }
      .ExScheme-Purple-3  { color:#432b4d; }
      .ExScheme-Cyan-1    { color:#b2f2e6; }
      .ExScheme-Cyan-2    { color:#31bfa6; }
      .ExScheme-Cyan-3    { color:#2b4d47; }
      .ExScheme-Magenta-1 { color:#f8a6d8; }
      .ExScheme-Magenta-2 { color:#f00091; }
      .ExScheme-Magenta-3 { color:#770048; }
    </style>
<linearGradient id="usV">
<stop offset="0"/>
<stop offset="1" stop-opacity="0"/>
</linearGradient>
<linearGradient id="usW">
<stop offset="0" stop-color="#fff"/>
<stop offset="1" stop-color="#fff" stop-opacity="0"/>
</linearGradient>
<style id="usX" type="text/css">
        .force-display-for-editing { display: inline !important; }
    </style><style class="remove-if__show-crease" type="text/css">
        .enable-if__show-crease { display: none; }
    </style><style class="remove-if__color-sync-mimes-places" type="text/css">
        .enable-if__color-sync-mimes-places { display: none; }
    </style><radialGradient cx=".5" cy="0" id="usY" r="1" xlink:href="#usW"/><linearGradient id="usZ" xlink:href="#usV" y1="1" y2=".5"/><style class="ColorScheme-Background" fill="currentColor" opacity=".6" type="text/css">
   .ColorScheme-Text           { color:#eff0f1; }
      .ColorScheme-Background     { color:#31363b; }
      .ColorScheme-Highlight      { color:#3daefd; }
      .ColorScheme-ViewBackground { color:#fcfcfc; }
      .ColorScheme-PositiveText   { color:#27ae60; }
      .ColorScheme-NeutralText    { color:#f67400; }
      .ColorScheme-NegativeText   { color:#da4453; }
  </style><path d="M 7,6 C 5.9,6 5,6.9 5,8 v 2 4 c -1.1,0 -2,.9 -2,2 v 24 c 0,1.1 .9,2 2,2 h 38 c 1.1,0 2,-.9 2,-2 V 25 16 14 c 0,-1.1 -.9,-2 -2,-2 V 10 C 43,8.9 42.1,8 41,8 H 21 C 18,8 18,6 15,6 Z" id="ut0"></path><path d="M 7,6 C 5.9,6 5,6.9 5,8 v 2 4 h 10 c 3,0 3,-2 6,-2 H 43 V 10 C 43,8.9 42.1,8 41,8 H 21 C 18,8 18,6 15,6 Z" id="ut1"></path></defs>
<g id="content" transform="translate(0,0)"><use class="sync-color enable-if__color-sync-mimes-places force-display-for-editing ColorScheme-ActiveText" fill="currentColor" href="#ut0"></use><use class="primary-color remove-if__color-sync-mimes-places ColorScheme-ActiveText" fill="currentColor" href="#ut0"></use><use class="ColorScheme-Contrast" fill="currentColor" href="#ut0" opacity=".1"></use><g id="decal" transform="translate(12,15)"><path class="ColorScheme-Background" d="M 12 1 A 1 1 0 0 0 11.3 1.3 L 9.5 3.1 L 11.5 5.07 A 2 2 0 0 1 12 5 A 2 2 0 0 1 14 7 A 2 2 0 0 1 13.93 7.5 L 16.5 10.07 A 2 2 0 0 1 17 10 A 2 2 0 0 1 19 12 A 2 2 0 0 1 17 14 A 2 2 0 0 1 15 12 A 2 2 0 0 1 15.07 11.5 L 13 9.4 L 13 15.27 A 2 2 0 0 1 14 17 A 2 2 0 0 1 12 19 A 2 2 0 0 1 10 17 A 2 2 0 0 1 11 15.27 L 11 8.73 A 2 2 0 0 1 10 7 A 2 2 0 0 1 10.07 6.5 L 8.1 4.5 L 1.3 11.3 A 1 1 0 0 0 1.3 12.7 L 11.3 22.7 A 1 1 0 0 0 12.7 22.7 L 22.7 12.7 A 1 1 0 0 0 22.7 11.3 L 12.7 1.3 A 1 1 0 0 0 12 1 z " fill="currentColor" opacity=".6"/><path class="ColorScheme-Background" d="M 12 1 A 1 1 0 0 0 11.3 1.3 L 9.5 3.1 L 11.5 5.07 A 2 2 0 0 1 12 5 A 2 2 0 0 1 14 7 A 2 2 0 0 1 13.93 7.5 L 16.5 10.07 A 2 2 0 0 1 17 10 A 2 2 0 0 1 19 12 A 2 2 0 0 1 17 14 A 2 2 0 0 1 15 12 A 2 2 0 0 1 15.07 11.5 L 13 9.4 L 13 15.27 A 2 2 0 0 1 14 17 A 2 2 0 0 1 12 19 A 2 2 0 0 1 10 17 A 2 2 0 0 1 11 15.27 L 11 8.73 A 2 2 0 0 1 10 7 A 2 2 0 0 1 10.07 6.5 L 8.1 4.5 L 1.3 11.3 A 1 1 0 0 0 1.3 12.7 L 11.3 22.7 A 1 1 0 0 0 12.7 22.7 L 22.7 12.7 A 1 1 0 0 0 22.7 11.3 L 12.7 1.3 A 1 1 0 0 0 12 1 z M 12 1.5 C 12.13 1.5 12.26 1.55 12.35 1.65 L 22.35 11.65 C 22.55 11.85 22.55 12.15 22.35 12.35 L 12.35 22.35 C 12.15 22.55 11.85 22.55 11.65 22.35 L 1.65 12.35 C 1.45 12.15 1.45 11.85 1.65 11.65 L 8.1 5.2 L 9.54 6.67 C 9.53 6.8 9.5 6.9 9.5 7 A .5 .5 0 0 0 9.5 7 C 9.5 7.77 9.9 8.44 10.5 8.9 L 10.5 15.1 C 9.9 15.56 9.5 16.23 9.5 17 A .5 .5 0 0 0 9.5 17 C 9.5 18.37 10.63 19.5 12 19.5 C 13.37 19.5 14.5 18.37 14.5 17 C 14.5 16.23 14.1 15.56 13.5 15.1 L 13.5 10.6 L 14.54 11.67 C 14.53 11.8 14.5 11.9 14.5 12 A .5 .5 0 0 0 14.5 12 C 14.5 13.37 15.63 14.5 17 14.5 C 18.37 14.5 19.5 13.37 19.5 12 C 19.5 10.63 18.37 9.5 17 9.5 A .5 .5 0 0 0 17 9.5 C 16.9 9.5 16.8 9.53 16.67 9.54 L 14.46 7.33 C 14.47 7.2 14.5 7.1 14.5 7 A .5 .5 0 0 0 14.5 7 C 14.5 5.63 13.37 4.5 12 4.5 A .5 .5 0 0 0 12 4.5 C 11.9 4.5 11.8 4.53 11.67 4.54 L 10.2 3.1 L 11.65 1.65 C 11.74 1.55 11.87 1.5 12 1.5 z " fill="currentColor" opacity=".6"/></g><use href="#ut1" opacity=".4"></use><use fill="url(#usZ)" href="#ut1" opacity=".1"></use><path d="m 21,12 c -3,0 -3,2 -6,2 H 5 c -1.1,0 -2,.9 -2,2 v 24 c 0,1.1 .9,2 2,2 h 38 c 1.1,0 2,-.9 2,-2 V 25 16 14 c 0,-1.1 -.9,-2 -2,-2 z" fill="url(#usY)" opacity=".2"/><path class="ColorScheme-Contrast" d="m 3,39 v 1 c 0,1.1 .9,2 2,2 h 38 c 1.1,0 2,-.9 2,-2 v -1 c 0,1.1 -.9,2 -2,2 H 5 C 3.9,41 3,40.1 3,39 Z" fill="currentColor" opacity=".1"/><path class="ColorScheme-Contrast" d="M 3,39.5 V 40 c 0,1.1 .9,2 2,2 h 38 c 1.1,0 2,-.9 2,-2 v -0.5 c 0,1.1 -.9,2 -2,2 H 5 c -1.1,0 -2,-.9 -2,-2 z" fill="currentColor" opacity=".2"/><path d="m 21,12 c -3,0 -3,2 -6,2 H 5 c -1.1,0 -2,.9 -2,2 v 1 c 0,-1.1 .9,-2 2,-2 h 10 c 3,0 3,-2 6,-2 h 22 c 1.1,0 2,.9 2,2 v -1 c 0,-1.1 -.9,-2 -2,-2 z" fill="#fff" opacity=".1"/><path d="m 21,12 c -3,0 -3,2 -6,2 H 5 c -1.1,0 -2,.9 -2,2 v 0.5 c 0,-1.1 .9,-2 2,-2 h 10 c 3,0 3,-2 6,-2 h 22 c 1.1,0 2,.9 2,2 V 14 c 0,-1.1 -.9,-2 -2,-2 z" fill="#fff" opacity=".2"/><path d="m 21,11 c -3,0 -3,2 -6,2 H 5 v 1 h 10 c 3,0 3,-2 6,-2 h 22 v -1 z" opacity=".1"/><path d="m 21,11.5 c -3,0 -3,2 -6,2 H 5 V 14 h 10 c 3,0 3,-2 6,-2 h 22 v -0.5 z" opacity=".2"/></g>
</svg>