<svg height="48" version="1.1" width="48" xmlns="http://www.w3.org/2000/svg" xmlns:svg="http://www.w3.org/2000/svg" xmlns:xlink="http://www.w3.org/1999/xlink">
<defs id="primary-definitions">
<style id="current-color-scheme" type="text/css">
      .ColorScheme-Text         { color: #232629; }
      .ColorScheme-Background   { color: #eff0f1; }
      .ColorScheme-Highlight    { color: #7ec9f0; }
      .ColorScheme-PositiveText { color: #27ae60; }
      .ColorScheme-NeutralText  { color: #f67400; }
      .ColorScheme-NegativeText { color: #da4453; }
      .ColorScheme-ActiveText   { color: #3daee9; }
      .ColorScheme-Complement   { color: #ffffff; }
      .ColorScheme-Contrast     { color: #000000; }
    </style>
<style id="extended-color-scheme" type="text/css">
      .ExScheme-Black     { color:#3e3e3e; }
      .ExScheme-White     { color:#fcfcfc; }
      .ExScheme-Grey-1    { color:#cfd5d5; }
      .ExScheme-Grey-2    { color:#909c9c; }
      .ExScheme-Grey-3    { color:#536161; }
      .ExScheme-Red-1     { color:#ffafa5; }
      .ExScheme-Red-2     { color:#bf4231; }
      .ExScheme-Red-3     { color:#4d2f2b; }
      .ExScheme-Green-1   { color:#abf9c7; }
      .ExScheme-Green-2   { color:#3bb566; }
      .ExScheme-Green-3   { color:#377d50; }
      .ExScheme-Blue-1    { color:#abdaf9; }
      .ExScheme-Blue-2    { color:#3daefd; }
      .ExScheme-Blue-3    { color:#2b3c4d; }
      .ExScheme-Yellow-1  { color:#faffa5; }
      .ExScheme-Yellow-2  { color:#cac726; }
      .ExScheme-Yellow-3  { color:#4b4d2b; }
      .ExScheme-Orange-1  { color:#ffdaa5; }
      .ExScheme-Orange-2  { color:#ff9701; }
      .ExScheme-Orange-3  { color:#4d372b; }
      .ExScheme-Brown-1   { color:#e9d6bb; }
      .ExScheme-Brown-2   { color:#997657; }
      .ExScheme-Brown-3   { color:#433a35; }
      .ExScheme-Purple-1  { color:#e2abf9; }
      .ExScheme-Purple-2  { color:#b401ff; }
      .ExScheme-Purple-3  { color:#432b4d; }
      .ExScheme-Cyan-1    { color:#b2f2e6; }
      .ExScheme-Cyan-2    { color:#31bfa6; }
      .ExScheme-Cyan-3    { color:#2b4d47; }
      .ExScheme-Magenta-1 { color:#f8a6d8; }
      .ExScheme-Magenta-2 { color:#f00091; }
      .ExScheme-Magenta-3 { color:#770048; }
    </style>
<linearGradient id="uwm">
<stop offset="0"/>
<stop offset="1" stop-opacity="0"/>
</linearGradient>
<linearGradient id="uwn">
<stop offset="0" stop-color="#fff"/>
<stop offset="1" stop-color="#fff" stop-opacity="0"/>
</linearGradient>
<style id="uwo" type="text/css">
        .force-display-for-editing { display: inline !important; }
    </style><style class="remove-if__show-crease" type="text/css">
        .enable-if__show-crease { display: none; }
    </style><style class="remove-if__color-sync-mimes-places" type="text/css">
        .enable-if__color-sync-mimes-places { display: none; }
    </style><radialGradient cx=".5" cy="0" id="uwp" r="1" xlink:href="#uwn"/><linearGradient id="uwq" xlink:href="#uwm" y1="1" y2=".5"/><style class="ColorScheme-Background" fill="currentColor" opacity=".6" type="text/css">
   .ColorScheme-Text           { color:#eff0f1; }
      .ColorScheme-Background     { color:#31363b; }
      .ColorScheme-Highlight      { color:#3daefd; }
      .ColorScheme-ViewBackground { color:#fcfcfc; }
      .ColorScheme-PositiveText   { color:#27ae60; }
      .ColorScheme-NeutralText    { color:#f67400; }
      .ColorScheme-NegativeText   { color:#da4453; }
  </style><path d="M 7,6 C 5.9,6 5,6.9 5,8 v 2 4 c -1.1,0 -2,.9 -2,2 v 24 c 0,1.1 .9,2 2,2 h 38 c 1.1,0 2,-.9 2,-2 V 25 16 14 c 0,-1.1 -.9,-2 -2,-2 V 10 C 43,8.9 42.1,8 41,8 H 21 C 18,8 18,6 15,6 Z" id="uwr"></path><path d="M 7,6 C 5.9,6 5,6.9 5,8 v 2 4 h 10 c 3,0 3,-2 6,-2 H 43 V 10 C 43,8.9 42.1,8 41,8 H 21 C 18,8 18,6 15,6 Z" id="uws"></path></defs>
<g id="content" transform="translate(0,0)"><use class="sync-color enable-if__color-sync-mimes-places force-display-for-editing ColorScheme-ActiveText" fill="currentColor" href="#uwr"></use><use class="primary-color remove-if__color-sync-mimes-places ColorScheme-ActiveText" fill="currentColor" href="#uwr"></use><use class="ColorScheme-Contrast" fill="currentColor" href="#uwr" opacity=".1"></use><g id="decal" transform="translate(12,15)"><path class="ColorScheme-Background" d="m 12.9,15 -2.5,-2.5 0.03,-0.03 C 12.13,10.6 13.27,8.4 14,6 h 3.04 V 4 H 10.02 V 2 H 8 V 4 H 1 V 6 H 12 C 11.3,7.9 10.5,9.7 9,11.3 8.1,10.3 7.3,9.1 6.7,7.9 h -2 c .73,1.6 1.73,3.2 3,4.57 l -5.1,5.03 1.4,1.4 5.01,-5.01 3.1,3.1 z m 5.7,-5.1 h -2 L 12.03,22 h 2 l 1.1,-3.01 h 4.8 L 21,22 h 2 z m -2.6,7.02 1.6,-4.34 1.6,4.34 z" fill="currentColor" opacity=".6"/><path class="ColorScheme-Background" d="M 8 2 L 8 4 L 1 4 L 1 6 L 12 6 C 11.3 7.9 10.5 9.8 9 11.3 C 8.1 10.3 7.3 9.1 6.7 7.9 L 4.7 7.9 C 5.43 9.5 6.43 11.1 7.7 12.47 L 2.6 17.5 L 4 19 L 9 13.9 L 12.1 17 L 12.9 15 L 10.4 12.5 L 10.43 12.45 C 12.13 10.6 13.27 8.4 14 6 L 17.04 6 L 17.04 4 L 10 4 L 10 2 L 8 2 z M 8.5 2.5 L 9.5 2.5 L 9.5 4.5 L 16.54 4.5 L 16.54 5.5 L 13.63 5.5 L 13.5 5.85 C 12.8 8.3 11.7 10.3 10.06 12.1 L 9.7 12.5 L 12.3 15.1 L 11.93 16.1 L 9 13.2 L 4 18.2 L 3.3 17.5 L 8.4 12.5 L 8.07 12.13 C 7.04 11 6.3 9.8 5.6 8.4 L 6.44 8.4 C 7.04 9.54 7.77 10.7 8.63 11.63 L 9 12.04 L 9.37 11.64 C 10.93 9.97 11.76 8.1 12.47 6.17 L 12.7 5.5 L 1.5 5.5 L 1.5 4.5 L 8.5 4.5 L 8.5 2.5 z M 16.6 9.9 L 12.03 22 L 14.03 22 L 15.16 19 L 19.96 19 L 21 22 L 23 22 L 18.6 9.9 L 16.6 9.9 z M 16.95 10.4 L 18.25 10.4 L 22.3 21.5 L 21.36 21.5 L 20.3 18.5 L 14.8 18.5 L 13.7 21.5 L 12.76 21.5 L 16.95 10.4 z M 17.6 11.13 L 15.3 17.4 L 16 17.4 L 19.9 17.4 L 17.6 11.13 z M 17.6 12.6 L 19.2 16.9 L 16 16.9 L 17.6 12.6 z " fill="currentColor" opacity=".6"/></g><use href="#uws" opacity=".4"></use><use fill="url(#uwq)" href="#uws" opacity=".1"></use><path d="m 21,12 c -3,0 -3,2 -6,2 H 5 c -1.1,0 -2,.9 -2,2 v 24 c 0,1.1 .9,2 2,2 h 38 c 1.1,0 2,-.9 2,-2 V 25 16 14 c 0,-1.1 -.9,-2 -2,-2 z" fill="url(#uwp)" opacity=".2"/><path class="ColorScheme-Contrast" d="m 3,39 v 1 c 0,1.1 .9,2 2,2 h 38 c 1.1,0 2,-.9 2,-2 v -1 c 0,1.1 -.9,2 -2,2 H 5 C 3.9,41 3,40.1 3,39 Z" fill="currentColor" opacity=".1"/><path class="ColorScheme-Contrast" d="M 3,39.5 V 40 c 0,1.1 .9,2 2,2 h 38 c 1.1,0 2,-.9 2,-2 v -0.5 c 0,1.1 -.9,2 -2,2 H 5 c -1.1,0 -2,-.9 -2,-2 z" fill="currentColor" opacity=".2"/><path d="m 21,12 c -3,0 -3,2 -6,2 H 5 c -1.1,0 -2,.9 -2,2 v 1 c 0,-1.1 .9,-2 2,-2 h 10 c 3,0 3,-2 6,-2 h 22 c 1.1,0 2,.9 2,2 v -1 c 0,-1.1 -.9,-2 -2,-2 z" fill="#fff" opacity=".1"/><path d="m 21,12 c -3,0 -3,2 -6,2 H 5 c -1.1,0 -2,.9 -2,2 v 0.5 c 0,-1.1 .9,-2 2,-2 h 10 c 3,0 3,-2 6,-2 h 22 c 1.1,0 2,.9 2,2 V 14 c 0,-1.1 -.9,-2 -2,-2 z" fill="#fff" opacity=".2"/><path d="m 21,11 c -3,0 -3,2 -6,2 H 5 v 1 h 10 c 3,0 3,-2 6,-2 h 22 v -1 z" opacity=".1"/><path d="m 21,11.5 c -3,0 -3,2 -6,2 H 5 V 14 h 10 c 3,0 3,-2 6,-2 h 22 v -0.5 z" opacity=".2"/></g>
</svg>