<svg height="48" version="1.1" width="48" xmlns="http://www.w3.org/2000/svg" xmlns:svg="http://www.w3.org/2000/svg" xmlns:xlink="http://www.w3.org/1999/xlink">
<defs id="primary-definitions">
<style id="current-color-scheme" type="text/css">
      .ColorScheme-Text           { color:#fff; }
      .ColorScheme-Background     { color:#111; }
      .ColorScheme-Highlight      { color:#3daefd; }
      .ColorScheme-ViewBackground { color:#000; }
      .ColorScheme-PositiveText   { color:#27ae60; }
      .ColorScheme-NeutralText    { color:#f67400; }
      .ColorScheme-NegativeText   { color:#da4453; }
    </style>
<style id="extended-color-scheme" type="text/css">
      .ExScheme-Black     { color:#3e3e3e; }
      .ExScheme-White     { color:#fcfcfc; }
      .ExScheme-Grey-1    { color:#cfd5d5; }
      .ExScheme-Grey-2    { color:#909c9c; }
      .ExScheme-Grey-3    { color:#536161; }
      .ExScheme-Red-1     { color:#ffafa5; }
      .ExScheme-Red-2     { color:#bf4231; }
      .ExScheme-Red-3     { color:#4d2f2b; }
      .ExScheme-Green-1   { color:#abf9c7; }
      .ExScheme-Green-2   { color:#3bb566; }
      .ExScheme-Green-3   { color:#377d50; }
      .ExScheme-Blue-1    { color:#abdaf9; }
      .ExScheme-Blue-2    { color:#3daefd; }
      .ExScheme-Blue-3    { color:#2b3c4d; }
      .ExScheme-Yellow-1  { color:#faffa5; }
      .ExScheme-Yellow-2  { color:#cac726; }
      .ExScheme-Yellow-3  { color:#4b4d2b; }
      .ExScheme-Orange-1  { color:#ffdaa5; }
      .ExScheme-Orange-2  { color:#ff9701; }
      .ExScheme-Orange-3  { color:#4d372b; }
      .ExScheme-Brown-1   { color:#e9d6bb; }
      .ExScheme-Brown-2   { color:#997657; }
      .ExScheme-Brown-3   { color:#433a35; }
      .ExScheme-Purple-1  { color:#e2abf9; }
      .ExScheme-Purple-2  { color:#b401ff; }
      .ExScheme-Purple-3  { color:#432b4d; }
      .ExScheme-Cyan-1    { color:#b2f2e6; }
      .ExScheme-Cyan-2    { color:#31bfa6; }
      .ExScheme-Cyan-3    { color:#2b4d47; }
      .ExScheme-Magenta-1 { color:#f8a6d8; }
      .ExScheme-Magenta-2 { color:#f00091; }
      .ExScheme-Magenta-3 { color:#770048; }
    </style>
<linearGradient id="ufr">
<stop offset="0"/>
<stop offset="1" stop-opacity="0"/>
</linearGradient>
<linearGradient id="ufs">
<stop offset="0" stop-color="#fff"/>
<stop offset="1" stop-color="#fff" stop-opacity="0"/>
</linearGradient>
<style class="toggle-enable-crease" type="text/css">
        .folder-crease { display: none; }
    </style><style class="toggle-manilla-folders" type="text/css">
        .folder-manilla { display: none; }
    </style><radialGradient cx=".5" cy="0" id="uft" r="1" xlink:href="#ufs"/><linearGradient id="ufu" xlink:href="#ufr" y1="1" y2=".5"/><path d="M 7,6 C 5.9,6 5,6.9 5,8 v 2 4 c -1.1,0 -2,.9 -2,2 v 24 c 0,1.1 .9,2 2,2 h 38 c 1.1,0 2,-.9 2,-2 V 25 16 14 c 0,-1.1 -.9,-2 -2,-2 V 10 C 43,8.9 42.1,8 41,8 H 21 C 18,8 18,6 15,6 Z" id="ufv"></path><path d="M 7,6 C 5.9,6 5,6.9 5,8 v 2 4 h 10 c 3,0 3,-2 6,-2 H 43 V 10 C 43,8.9 42.1,8 41,8 H 21 C 18,8 18,6 15,6 Z" id="ufw"></path></defs>
<g id="content" transform="translate(0,0)"><use class="folder-manilla ExScheme-Brown-1" fill="currentColor" href="#ufv"></use><use class="toggle-manilla-folders ColorScheme-Highlight" fill="currentColor" href="#ufv" id="primary-color"></use><use class="ColorScheme-Text" fill="currentColor" href="#ufv" opacity=".1"></use><g id="emblem" transform="translate(12,15)"><g transform="matrix(.667,0,0,.667,1.333,2)">
<path class="ColorScheme-Background" d="M 6.67 5 C 6.3 5 6 5.3 6 5.67 L 6 7 L 10 7 L 10 5.67 C 10 5.3 9.8 5 9.33 5 L 6.67 5 z M 14.67 5 C 14.3 5 14 5.3 14 5.67 L 14 7 L 18 7 L 18 5.67 C 18 5.3 17.7 5 17.33 5 L 14.67 5 z M 4.67 8 C 4.3 8 4 8.3 4 8.67 L 4 18.33 C 4 18.7 4.3 19 4.67 19 L 19.33 19 C 19.7 19 20 18.7 20 18.33 L 20 8.67 C 20 8.3 19.7 8 19.33 8 L 4.67 8 z " fill="currentColor" opacity=".6" stop-color="#000000" transform="matrix(1.5,0,0,1.5,-2,-3)"/>
<path class="ColorScheme-Background" d="M 6.67 5 C 6.3 5 6 5.3 6 5.67 L 6 7 L 10 7 L 10 5.67 C 10 5.3 9.8 5 9.33 5 L 6.67 5 z M 14.67 5 C 14.3 5 14 5.3 14 5.67 L 14 7 L 18 7 L 18 5.67 C 18 5.3 17.7 5 17.33 5 L 14.67 5 z M 6.67 5.5 L 9.33 5.5 C 9.44 5.5 9.5 5.56 9.5 5.67 L 9.5 6.5 L 6.5 6.5 L 6.5 5.67 C 6.5 5.56 6.56 5.5 6.67 5.5 z M 14.67 5.5 L 17.33 5.5 C 17.44 5.5 17.5 5.56 17.5 5.67 L 17.5 6.5 L 14.5 6.5 L 14.5 5.67 C 14.5 5.56 14.56 5.5 14.67 5.5 z M 4.67 8 C 4.3 8 4 8.3 4 8.67 L 4 18.33 C 4 18.7 4.3 19 4.67 19 L 19.33 19 C 19.7 19 20 18.7 20 18.33 L 20 8.67 C 20 8.3 19.7 8 19.33 8 L 4.67 8 z M 4.67 8.5 L 19.33 8.5 C 19.44 8.5 19.5 8.56 19.5 8.67 L 19.5 18.33 C 19.5 18.44 19.44 18.5 19.33 18.5 L 4.67 18.5 C 4.56 18.5 4.5 18.44 4.5 18.33 L 4.5 8.67 C 4.5 8.56 4.56 8.5 4.67 8.5 z " fill="currentColor" opacity=".6" transform="matrix(1.5,0,0,1.5,-2,-3)"/>
</g></g><use href="#ufw" opacity=".4"></use><use class="toggle-flat-design" fill="url(#ufu)" href="#ufw" opacity=".1"></use><path class="toggle-flat-design" d="m 21,12 c -3,0 -3,2 -6,2 H 5 c -1.1,0 -2,.9 -2,2 v 24 c 0,1.1 .9,2 2,2 h 38 c 1.1,0 2,-.9 2,-2 V 25 16 14 c 0,-1.1 -.9,-2 -2,-2 z" fill="url(#uft)" opacity=".2"/><path class="folder-crease " d="m 3,33 v 1 H 9.5 C 9.8,34 10,33.8 10,33.5 10,33.2 9.8,33 9.5,33 Z m 35.5,0 c -.3,0 -0.5,.2 -0.5,0.5 0,.3 .2,0.5 0.5,0.5 H 45 v -1 z" opacity=".4"/><path class="ColorScheme-Text" d="m 3,39 v 1 c 0,1.1 .9,2 2,2 h 38 c 1.1,0 2,-.9 2,-2 v -1 c 0,1.1 -.9,2 -2,2 H 5 C 3.9,41 3,40.1 3,39 Z" fill="currentColor" opacity=".1"/><path class="ColorScheme-Text" d="M 3,39.5 V 40 c 0,1.1 .9,2 2,2 h 38 c 1.1,0 2,-.9 2,-2 v -0.5 c 0,1.1 -.9,2 -2,2 H 5 c -1.1,0 -2,-.9 -2,-2 z" fill="currentColor" opacity=".2"/><path d="m 21,12 c -3,0 -3,2 -6,2 H 5 c -1.1,0 -2,.9 -2,2 v 1 c 0,-1.1 .9,-2 2,-2 h 10 c 3,0 3,-2 6,-2 h 22 c 1.1,0 2,.9 2,2 v -1 c 0,-1.1 -.9,-2 -2,-2 z" fill="#fff" opacity=".1"/><path d="m 21,12 c -3,0 -3,2 -6,2 H 5 c -1.1,0 -2,.9 -2,2 v 0.5 c 0,-1.1 .9,-2 2,-2 h 10 c 3,0 3,-2 6,-2 h 22 c 1.1,0 2,.9 2,2 V 14 c 0,-1.1 -.9,-2 -2,-2 z" fill="#fff" opacity=".2"/><path d="m 21,11 c -3,0 -3,2 -6,2 H 5 v 1 h 10 c 3,0 3,-2 6,-2 h 22 v -1 z" opacity=".1"/><path d="m 21,11.5 c -3,0 -3,2 -6,2 H 5 V 14 h 10 c 3,0 3,-2 6,-2 h 22 v -0.5 z" opacity=".2"/></g>
</svg>