<svg height="48" version="1.1" width="48" xmlns="http://www.w3.org/2000/svg" xmlns:svg="http://www.w3.org/2000/svg" xmlns:xlink="http://www.w3.org/1999/xlink">
<defs id="primary-definitions">
<style id="current-color-scheme" type="text/css">
      .ColorScheme-Text         { color: #232629; }
      .ColorScheme-Background   { color: #eff0f1; }
      .ColorScheme-Highlight    { color: #7ec9f0; }
      .ColorScheme-PositiveText { color: #27ae60; }
      .ColorScheme-NeutralText  { color: #f67400; }
      .ColorScheme-NegativeText { color: #da4453; }
      .ColorScheme-ActiveText   { color: #3daee9; }
      .ColorScheme-Complement   { color: #ffffff; }
      .ColorScheme-Contrast     { color: #000000; }
    </style>
<style id="extended-color-scheme" type="text/css">
      .ExScheme-Black     { color:#3e3e3e; }
      .ExScheme-White     { color:#fcfcfc; }
      .ExScheme-Grey-1    { color:#cfd5d5; }
      .ExScheme-Grey-2    { color:#909c9c; }
      .ExScheme-Grey-3    { color:#536161; }
      .ExScheme-Red-1     { color:#ffafa5; }
      .ExScheme-Red-2     { color:#bf4231; }
      .ExScheme-Red-3     { color:#4d2f2b; }
      .ExScheme-Green-1   { color:#abf9c7; }
      .ExScheme-Green-2   { color:#3bb566; }
      .ExScheme-Green-3   { color:#377d50; }
      .ExScheme-Blue-1    { color:#abdaf9; }
      .ExScheme-Blue-2    { color:#3daefd; }
      .ExScheme-Blue-3    { color:#2b3c4d; }
      .ExScheme-Yellow-1  { color:#faffa5; }
      .ExScheme-Yellow-2  { color:#cac726; }
      .ExScheme-Yellow-3  { color:#4b4d2b; }
      .ExScheme-Orange-1  { color:#ffdaa5; }
      .ExScheme-Orange-2  { color:#ff9701; }
      .ExScheme-Orange-3  { color:#4d372b; }
      .ExScheme-Brown-1   { color:#e9d6bb; }
      .ExScheme-Brown-2   { color:#997657; }
      .ExScheme-Brown-3   { color:#433a35; }
      .ExScheme-Purple-1  { color:#e2abf9; }
      .ExScheme-Purple-2  { color:#b401ff; }
      .ExScheme-Purple-3  { color:#432b4d; }
      .ExScheme-Cyan-1    { color:#b2f2e6; }
      .ExScheme-Cyan-2    { color:#31bfa6; }
      .ExScheme-Cyan-3    { color:#2b4d47; }
      .ExScheme-Magenta-1 { color:#f8a6d8; }
      .ExScheme-Magenta-2 { color:#f00091; }
      .ExScheme-Magenta-3 { color:#770048; }
    </style>
<linearGradient id="uml">
<stop offset="0"/>
<stop offset="1" stop-opacity="0"/>
</linearGradient>
<linearGradient id="umm">
<stop offset="0" stop-color="#fff"/>
<stop offset="1" stop-color="#fff" stop-opacity="0"/>
</linearGradient>
<style id="umn" type="text/css">
        .force-display-for-editing { display: inline !important; }
    </style><style class="remove-if__show-crease" type="text/css">
        .enable-if__show-crease { display: none; }
    </style><style class="remove-if__color-sync-mimes-places" type="text/css">
        .enable-if__color-sync-mimes-places { display: none; }
    </style><radialGradient cx=".5" cy="0" id="umo" r="1" xlink:href="#umm"/><linearGradient id="ump" xlink:href="#uml" y1="1" y2=".5"/><style class="ColorScheme-Background" fill="currentColor" opacity=".6" type="text/css">
   .ColorScheme-Text           { color:#eff0f1; }
      .ColorScheme-Background     { color:#31363b; }
      .ColorScheme-Highlight      { color:#3daefd; }
      .ColorScheme-ViewBackground { color:#fcfcfc; }
      .ColorScheme-PositiveText   { color:#27ae60; }
      .ColorScheme-NeutralText    { color:#f67400; }
      .ColorScheme-NegativeText   { color:#da4453; }
  </style><path d="M 7,6 C 5.9,6 5,6.9 5,8 v 2 4 c -1.1,0 -2,.9 -2,2 v 24 c 0,1.1 .9,2 2,2 h 38 c 1.1,0 2,-.9 2,-2 V 25 16 14 c 0,-1.1 -.9,-2 -2,-2 V 10 C 43,8.9 42.1,8 41,8 H 21 C 18,8 18,6 15,6 Z" id="umq"></path><path d="M 7,6 C 5.9,6 5,6.9 5,8 v 2 4 h 10 c 3,0 3,-2 6,-2 H 43 V 10 C 43,8.9 42.1,8 41,8 H 21 C 18,8 18,6 15,6 Z" id="umr"></path></defs>
<g id="content" transform="translate(0,0)"><use class="sync-color enable-if__color-sync-mimes-places force-display-for-editing ColorScheme-ActiveText" fill="currentColor" href="#umq"></use><use class="primary-color remove-if__color-sync-mimes-places ColorScheme-ActiveText" fill="currentColor" href="#umq"></use><use class="ColorScheme-Contrast" fill="currentColor" href="#umq" opacity=".1"></use><g id="decal" transform="translate(12,15)"><path class="ColorScheme-Background" d="M 6.43,2 C 5.36,2 4.44,2.83 4.33,3.9 a .35,.35 0 0 0 0,.1 .35,.35 0 0 0 -0,.05 V 18.6 c -0,.1 -0,.2 0,.3 v 0 a .35,.35 0 0 0 9.24e-4,0 c .03,.4 .16,.75 .4,1.06 .44,.6 1.2,.96 1.94,.9 A .35,.35 0 0 0 6.96,20.5 .35,.35 0 0 0 6.6,20.2 C 6.07,20.23 5.6,20 5.3,19.6 5.13,19.4 5.05,19.14 5,19 v -.3 c 0,-.15 .06,-.3 .1,-.45 .2,-.46 .66,-.8 1.16,-.83 a .35,.35 0 0 0 .03,-0 c .3,1.1e-5 11.17,0 11.17,0 h 0 l 0,-0 c 0,0 .4,-.05 .83,-.3 .4,-.24 .9,-.7 .9,-1.46 0,-1.2 0,-11.7 0,-11.7 0,-.06 0,-.47 -.17,-.9 -.2,-.47 -.7,-1 -1.6,-1 H 7.5 v 0 H 6.54 c -.04,-0 -.07,-0 -.1,-0 z m 0,.7 c 0,-1.45e-4 .05,-7.85e-5 .07,9.24e-4 a .35,.35 0 0 0 0,0 .35,.35 0 0 0 0,9.24e-4 H 7.5 V 16.63 c -.25,-3.56e-4 -1.16,-0 -1.2,-0 a .35,.35 0 0 0 -.04,0 .35,.35 0 0 0 -.05,-0 c -.46,.04 -.9,.24 -1.2,.53 V 4.06 a .35,.35 0 0 0 -0,-.03 .35,.35 0 0 0 0,-.04 C 5.2,3.25 5.7,2.7 6.44,2.7 Z m 1.94,0 h 9.16 c .6,0 .8,.26 .93,.55 .1,.3 .1,.6 .1,.6 l -9.24e-4,0 v 0 c 0,0 -0,10.5 -0,11.7 0,.5 -.24,.7 -.5,.85 -.3,.16 -.56,.2 -.56,.2 -.06,-1.08e-4 -6.54,-0 -9.25,-0 V 2.7 h .14 a .35,.35 0 0 0 0,-0 z M 9.93,4.35 A .35,.35 0 0 0 9.57,4.7 .35,.35 0 0 0 9.93,5.06 H 16.7 A .35,.35 0 0 0 17.06,4.7 .35,.35 0 0 0 16.7,4.35 Z m 0,1.1 A .35,.35 0 0 0 9.57,5.8 .35,.35 0 0 0 9.93,6.17 H 16.7 A .35,.35 0 0 0 17.06,5.8 .35,.35 0 0 0 16.7,5.47 Z m 0,1.1 A .35,.35 0 0 0 9.57,6.93 .35,.35 0 0 0 9.93,7.3 H 16.7 A .35,.35 0 0 0 17.06,6.93 .35,.35 0 0 0 16.7,6.6 Z m 0,1.1 A .35,.35 0 0 0 9.57,8.04 .35,.35 0 0 0 9.93,8.4 H 16.7 A .35,.35 0 0 0 17.06,8.04 .35,.35 0 0 0 16.7,7.7 Z M 6.5,17.8 a .35,.35 0 0 0 -.35,.35 .35,.35 0 0 0 .35,.35 h 6 a .35,.35 0 0 0 .35,-.35 .35,.35 0 0 0 -.35,-.35 z m 8.2,0 a .35,.35 0 0 0 -.35,.35 .35,.35 0 0 0 .35,.35 h 2.73 a .35,.35 0 0 0 .35,-.35 .35,.35 0 0 0 -.35,-.35 z m 4.73,.6 a .35,.35 0 0 0 -.35,.35 c 0,.7 -.3,.96 -.6,1.1 -.3,.16 -.65,.15 -.65,.15 h -0 -6.64 a .35,.35 0 0 0 -.35,.35 .35,.35 0 0 0 .35,.35 h 6.63 c 0,0 .5,0 1,-.2 .5,-.24 1,-.8 1,-1.75 A .35,.35 0 0 0 19.44,18.37 Z M 6.5,18.76 a .35,.35 0 0 0 -.35,.35 .35,.35 0 0 0 .35,.35 h 1.2 v 2.5 l 1.13,-.8 1.14,.83 -0,-2.54 h 7.7 a .35,.35 0 0 0 .35,-.35 .35,.35 0 0 0 -.35,-.35 z" fill="currentColor" opacity=".6"/></g><use href="#umr" opacity=".4"></use><use fill="url(#ump)" href="#umr" opacity=".1"></use><path d="m 21,12 c -3,0 -3,2 -6,2 H 5 c -1.1,0 -2,.9 -2,2 v 24 c 0,1.1 .9,2 2,2 h 38 c 1.1,0 2,-.9 2,-2 V 25 16 14 c 0,-1.1 -.9,-2 -2,-2 z" fill="url(#umo)" opacity=".2"/><path class="ColorScheme-Contrast" d="m 3,39 v 1 c 0,1.1 .9,2 2,2 h 38 c 1.1,0 2,-.9 2,-2 v -1 c 0,1.1 -.9,2 -2,2 H 5 C 3.9,41 3,40.1 3,39 Z" fill="currentColor" opacity=".1"/><path class="ColorScheme-Contrast" d="M 3,39.5 V 40 c 0,1.1 .9,2 2,2 h 38 c 1.1,0 2,-.9 2,-2 v -0.5 c 0,1.1 -.9,2 -2,2 H 5 c -1.1,0 -2,-.9 -2,-2 z" fill="currentColor" opacity=".2"/><path d="m 21,12 c -3,0 -3,2 -6,2 H 5 c -1.1,0 -2,.9 -2,2 v 1 c 0,-1.1 .9,-2 2,-2 h 10 c 3,0 3,-2 6,-2 h 22 c 1.1,0 2,.9 2,2 v -1 c 0,-1.1 -.9,-2 -2,-2 z" fill="#fff" opacity=".1"/><path d="m 21,12 c -3,0 -3,2 -6,2 H 5 c -1.1,0 -2,.9 -2,2 v 0.5 c 0,-1.1 .9,-2 2,-2 h 10 c 3,0 3,-2 6,-2 h 22 c 1.1,0 2,.9 2,2 V 14 c 0,-1.1 -.9,-2 -2,-2 z" fill="#fff" opacity=".2"/><path d="m 21,11 c -3,0 -3,2 -6,2 H 5 v 1 h 10 c 3,0 3,-2 6,-2 h 22 v -1 z" opacity=".1"/><path d="m 21,11.5 c -3,0 -3,2 -6,2 H 5 V 14 h 10 c 3,0 3,-2 6,-2 h 22 v -0.5 z" opacity=".2"/></g>
</svg>