<svg height="48" version="1.1" width="48" xmlns="http://www.w3.org/2000/svg" xmlns:svg="http://www.w3.org/2000/svg" xmlns:xlink="http://www.w3.org/1999/xlink">
<defs id="primary-definitions">
<style id="current-color-scheme" type="text/css">
      .ColorScheme-Text         { color: #232629; }
      .ColorScheme-Background   { color: #eff0f1; }
      .ColorScheme-Highlight    { color: #7ec9f0; }
      .ColorScheme-PositiveText { color: #27ae60; }
      .ColorScheme-NeutralText  { color: #f67400; }
      .ColorScheme-NegativeText { color: #da4453; }
      .ColorScheme-ActiveText   { color: #3daee9; }
      .ColorScheme-Complement   { color: #ffffff; }
      .ColorScheme-Contrast     { color: #000000; }
    </style>
<style id="extended-color-scheme" type="text/css">
      .ExScheme-Black     { color:#3e3e3e; }
      .ExScheme-White     { color:#fcfcfc; }
      .ExScheme-Grey-1    { color:#cfd5d5; }
      .ExScheme-Grey-2    { color:#909c9c; }
      .ExScheme-Grey-3    { color:#536161; }
      .ExScheme-Red-1     { color:#ffafa5; }
      .ExScheme-Red-2     { color:#bf4231; }
      .ExScheme-Red-3     { color:#4d2f2b; }
      .ExScheme-Green-1   { color:#abf9c7; }
      .ExScheme-Green-2   { color:#3bb566; }
      .ExScheme-Green-3   { color:#377d50; }
      .ExScheme-Blue-1    { color:#abdaf9; }
      .ExScheme-Blue-2    { color:#3daefd; }
      .ExScheme-Blue-3    { color:#2b3c4d; }
      .ExScheme-Yellow-1  { color:#faffa5; }
      .ExScheme-Yellow-2  { color:#cac726; }
      .ExScheme-Yellow-3  { color:#4b4d2b; }
      .ExScheme-Orange-1  { color:#ffdaa5; }
      .ExScheme-Orange-2  { color:#ff9701; }
      .ExScheme-Orange-3  { color:#4d372b; }
      .ExScheme-Brown-1   { color:#e9d6bb; }
      .ExScheme-Brown-2   { color:#997657; }
      .ExScheme-Brown-3   { color:#433a35; }
      .ExScheme-Purple-1  { color:#e2abf9; }
      .ExScheme-Purple-2  { color:#b401ff; }
      .ExScheme-Purple-3  { color:#432b4d; }
      .ExScheme-Cyan-1    { color:#b2f2e6; }
      .ExScheme-Cyan-2    { color:#31bfa6; }
      .ExScheme-Cyan-3    { color:#2b4d47; }
      .ExScheme-Magenta-1 { color:#f8a6d8; }
      .ExScheme-Magenta-2 { color:#f00091; }
      .ExScheme-Magenta-3 { color:#770048; }
    </style>
<linearGradient id="uqd">
<stop offset="0"/>
<stop offset="1" stop-opacity="0"/>
</linearGradient>
<linearGradient id="uqe">
<stop offset="0" stop-color="#fff"/>
<stop offset="1" stop-color="#fff" stop-opacity="0"/>
</linearGradient>
<style id="uqf" type="text/css">
        .force-display-for-editing { display: inline !important; }
    </style><style class="remove-if__show-crease" type="text/css">
        .enable-if__show-crease { display: none; }
    </style><style class="remove-if__color-sync-mimes-places" type="text/css">
        .enable-if__color-sync-mimes-places { display: none; }
    </style><radialGradient cx=".5" cy="0" id="uqg" r="1" xlink:href="#uqe"/><linearGradient id="uqh" xlink:href="#uqd" y1="1" y2=".5"/><style class="ColorScheme-Background" fill="currentColor" opacity=".6" type="text/css">
   .ColorScheme-Text           { color:#eff0f1; }
      .ColorScheme-Background     { color:#31363b; }
      .ColorScheme-Highlight      { color:#3daefd; }
      .ColorScheme-ViewBackground { color:#fcfcfc; }
      .ColorScheme-PositiveText   { color:#27ae60; }
      .ColorScheme-NeutralText    { color:#f67400; }
      .ColorScheme-NegativeText   { color:#da4453; }
  </style><path d="M 7,6 C 5.9,6 5,6.9 5,8 v 2 4 c -1.1,0 -2,.9 -2,2 v 24 c 0,1.1 .9,2 2,2 h 38 c 1.1,0 2,-.9 2,-2 V 25 16 14 c 0,-1.1 -.9,-2 -2,-2 V 10 C 43,8.9 42.1,8 41,8 H 21 C 18,8 18,6 15,6 Z" id="uqi"></path><path d="M 7,6 C 5.9,6 5,6.9 5,8 v 2 4 h 10 c 3,0 3,-2 6,-2 H 43 V 10 C 43,8.9 42.1,8 41,8 H 21 C 18,8 18,6 15,6 Z" id="uqj"></path></defs>
<g id="content" transform="translate(0,0)"><use class="sync-color enable-if__color-sync-mimes-places force-display-for-editing ColorScheme-ActiveText" fill="currentColor" href="#uqi"></use><use class="primary-color remove-if__color-sync-mimes-places ColorScheme-ActiveText ExScheme-Grey-3" fill="currentColor" href="#uqi"></use><use class="ColorScheme-Contrast" fill="currentColor" href="#uqi" opacity=".1"></use><use href="#uqj" opacity=".4"></use><g id="panorama" transform="translate(3,12)"><g id="decal" transform="translate(9,3)"><path class="ExScheme-White" d="M 12 3 A 6 6 0 0 0 6 9 L 6 10 C 4.9 10 4 10.9 4 12 L 4 19 C 4 20.1 4.9 21 6 21 L 18 21 C 19.1 21 20 20.1 20 19 L 20 12 C 20 10.9 19.1 10 18 10 L 18 9 A 6 6 0 0 0 12 3 z M 12 4 A 5 5 0 0 1 17 9 L 17 10 L 16 10 L 16 9 A 4 4 0 0 0 12 5 A 4 4 0 0 0 8 9 L 8 10 L 7 10 L 7 9 A 5 5 0 0 1 12 4 z M 12 6 A 3 3 0 0 1 15 9 L 15 10 L 9 10 L 9 9 A 3 3 0 0 1 12 6 z " fill="currentColor" opacity=".6" stop-color="#000000"/><path class="ExScheme-White" d="M 12,3 C 8.7,3 6,5.7 6,9 v 1 c -1.1,0 -2,.9 -2,2 v 7 c 0,1.1 .9,2 2,2 h 12 c 1.1,0 2,-.9 2,-2 v -7 c 0,-1.1 -.9,-2 -2,-2 V 9 C 18,5.7 15.3,3 12,3 Z m 0,1 c 2.76,0 5,2.24 5,5 v 1 H 16 V 9 C 16,6.8 14.2,5 12,5 9.8,5 8,6.8 8,9 v 1 H 7 V 9 C 7,6.24 9.24,4 12,4 Z m 0,2 c 1.66,0 3,1.34 3,3 v 1 H 9 V 9 C 9,7.34 10.34,6 12,6 Z m 6,4.5 c .84,0 1.5,.66 1.5,1.5 v 7 c 0,.84 -.66,1.5 -1.5,1.5 H 6 C 5.16,20.5 4.5,19.84 4.5,19 v -7 c 0,-.84 .66,-1.5 1.5,-1.5 .3,-2.8e-5 11.7,-2.8e-5 12,0 z" fill="currentColor" opacity=".6"/></g><path d="M 0 27 L 0 28 L 1 28 L 1 27 L 0 27 z M 1 28 L 1 29 L 2 29 L 2 28 L 1 28 z M 2 28 L 3 28 L 3 27 L 2 27 L 2 28 z M 3 28 L 3 29 L 4 29 L 4 28 L 3 28 z M 4 28 L 5 28 L 5 27 L 4 27 L 4 28 z M 5 28 L 5 29 L 6 29 L 6 28 L 5 28 z M 6 28 L 7 28 L 7 27 L 6 27 L 6 28 z M 7 28 L 7 29 L 8 29 L 8 28 L 7 28 z M 8 28 L 9 28 L 9 27 L 8 27 L 8 28 z M 9 28 L 9 29 L 10 29 L 10 28 L 9 28 z M 10 28 L 11 28 L 11 27 L 10 27 L 10 28 z M 11 28 L 11 29 L 12 29 L 12 28 L 11 28 z M 12 28 L 13 28 L 13 27 L 12 27 L 12 28 z M 13 28 L 13 29 L 14 29 L 14 28 L 13 28 z M 14 28 L 15 28 L 15 27 L 14 27 L 14 28 z M 15 28 L 15 29 L 16 29 L 16 28 L 15 28 z M 16 28 L 17 28 L 17 27 L 16 27 L 16 28 z M 17 28 L 17 29 L 18 29 L 18 28 L 17 28 z M 18 28 L 19 28 L 19 27 L 18 27 L 18 28 z M 19 28 L 19 29 L 20 29 L 20 28 L 19 28 z M 20 28 L 21 28 L 21 27 L 20 27 L 20 28 z M 21 28 L 21 29 L 22 29 L 22 28 L 21 28 z M 22 28 L 23 28 L 23 27 L 22 27 L 22 28 z M 23 28 L 23 29 L 24 29 L 24 28 L 23 28 z M 24 28 L 25 28 L 25 27 L 24 27 L 24 28 z M 25 28 L 25 29 L 26 29 L 26 28 L 25 28 z M 26 28 L 27 28 L 27 27 L 26 27 L 26 28 z M 27 28 L 27 29 L 28 29 L 28 28 L 27 28 z M 28 28 L 29 28 L 29 27 L 28 27 L 28 28 z M 29 28 L 29 29 L 30 29 L 30 28 L 29 28 z M 30 28 L 31 28 L 31 27 L 30 27 L 30 28 z M 31 28 L 31 29 L 32 29 L 32 28 L 31 28 z M 32 28 L 33 28 L 33 27 L 32 27 L 32 28 z M 33 28 L 33 29 L 34 29 L 34 28 L 33 28 z M 34 28 L 35 28 L 35 27 L 34 27 L 34 28 z M 35 28 L 35 29 L 36 29 L 36 28 L 35 28 z M 36 28 L 37 28 L 37 27 L 36 27 L 36 28 z M 37 28 L 37 29 L 38 29 L 38 28 L 37 28 z M 38 28 L 39 28 L 39 27 L 38 27 L 38 28 z M 39 28 L 39 29 L 40 29 L 40 28 L 39 28 z M 40 28 L 41 28 L 41 27 L 40 27 L 40 28 z M 41 28 L 41 29 L 41.7 29 C 41.9 28.7 42 28.37 42 28 L 41 28 z M 41 29 L 40 29 L 40 30 C 40.37 30 40.7 29.9 41 29.7 L 41 29 z M 39 29 L 38 29 L 38 30 L 39 30 L 39 29 z M 37 29 L 36 29 L 36 30 L 37 30 L 37 29 z M 35 29 L 34 29 L 34 30 L 35 30 L 35 29 z M 33 29 L 32 29 L 32 30 L 33 30 L 33 29 z M 31 29 L 30 29 L 30 30 L 31 30 L 31 29 z M 29 29 L 28 29 L 28 30 L 29 30 L 29 29 z M 27 29 L 26 29 L 26 30 L 27 30 L 27 29 z M 25 29 L 24 29 L 24 30 L 25 30 L 25 29 z M 23 29 L 22 29 L 22 30 L 23 30 L 23 29 z M 21 29 L 20 29 L 20 30 L 21 30 L 21 29 z M 19 29 L 18 29 L 18 30 L 19 30 L 19 29 z M 17 29 L 16 29 L 16 30 L 17 30 L 17 29 z M 15 29 L 14 29 L 14 30 L 15 30 L 15 29 z M 13 29 L 12 29 L 12 30 L 13 30 L 13 29 z M 11 29 L 10 29 L 10 30 L 11 30 L 11 29 z M 9 29 L 8 29 L 8 30 L 9 30 L 9 29 z M 7 29 L 6 29 L 6 30 L 7 30 L 7 29 z M 5 29 L 4 29 L 4 30 L 5 30 L 5 29 z M 3 29 L 2 29 L 2 30 L 3 30 L 3 29 z M 1 29 L .3 29 C .45 29.3 .7 29.55 1 29.7 L 1 29 z " fill="#fffdf9" id="rect2089" opacity=".2" stop-color="#000000"/></g><use fill="url(#uqh)" href="#uqj" opacity=".1"></use><path d="m 21,12 c -3,0 -3,2 -6,2 H 5 c -1.1,0 -2,.9 -2,2 v 24 c 0,1.1 .9,2 2,2 h 38 c 1.1,0 2,-.9 2,-2 V 25 16 14 c 0,-1.1 -.9,-2 -2,-2 z" fill="url(#uqg)" opacity=".2"/><path class="ColorScheme-Contrast" d="m 3,39 v 1 c 0,1.1 .9,2 2,2 h 38 c 1.1,0 2,-.9 2,-2 v -1 c 0,1.1 -.9,2 -2,2 H 5 C 3.9,41 3,40.1 3,39 Z" fill="currentColor" opacity=".1"/><path class="ColorScheme-Contrast" d="M 3,39.5 V 40 c 0,1.1 .9,2 2,2 h 38 c 1.1,0 2,-.9 2,-2 v -0.5 c 0,1.1 -.9,2 -2,2 H 5 c -1.1,0 -2,-.9 -2,-2 z" fill="currentColor" opacity=".2"/><path d="m 21,12 c -3,0 -3,2 -6,2 H 5 c -1.1,0 -2,.9 -2,2 v 1 c 0,-1.1 .9,-2 2,-2 h 10 c 3,0 3,-2 6,-2 h 22 c 1.1,0 2,.9 2,2 v -1 c 0,-1.1 -.9,-2 -2,-2 z" fill="#fff" opacity=".1"/><path d="m 21,12 c -3,0 -3,2 -6,2 H 5 c -1.1,0 -2,.9 -2,2 v 0.5 c 0,-1.1 .9,-2 2,-2 h 10 c 3,0 3,-2 6,-2 h 22 c 1.1,0 2,.9 2,2 V 14 c 0,-1.1 -.9,-2 -2,-2 z" fill="#fff" opacity=".2"/><path d="m 21,11 c -3,0 -3,2 -6,2 H 5 v 1 h 10 c 3,0 3,-2 6,-2 h 22 v -1 z" opacity=".1"/><path d="m 21,11.5 c -3,0 -3,2 -6,2 H 5 V 14 h 10 c 3,0 3,-2 6,-2 h 22 v -0.5 z" opacity=".2"/></g>
</svg>