<?xml version="1.0" encoding="utf-8"?><svg height="48" width="48" xmlns="http://www.w3.org/2000/svg" xmlns:svg="http://www.w3.org/2000/svg" xmlns:xlink="http://www.w3.org/1999/xlink"><defs id="primary-definitions"><style id="current-color-scheme" type="text/css">.ColorScheme-Text           { color:#fff; }
      .ColorScheme-Background     { color:#111; }
      .ColorScheme-Highlight      { color:#3daefd; }
      .ColorScheme-ViewBackground { color:#000; }
      .ColorScheme-PositiveText   { color:#27ae60; }
      .ColorScheme-NeutralText    { color:#f67400; }
      .ColorScheme-NegativeText   { color:#da4453; }
  </style><style id="extended-color-scheme" type="text/css">.ExScheme-Black     { color:#3e3e3e; }
      .ExScheme-White     { color:#fcfcfc; }
      .ExScheme-Grey-1    { color:#cfd5d5; }
      .ExScheme-Grey-2    { color:#909c9c; }
      .ExScheme-Grey-3    { color:#536161; }
      .ExScheme-Red-1     { color:#ffafa5; }
      .ExScheme-Red-2     { color:#bf4231; }
      .ExScheme-Red-3     { color:#4d2f2b; }
      .ExScheme-Green-1   { color:#abf9c7; }
      .ExScheme-Green-2   { color:#3bb566; }
      .ExScheme-Green-3   { color:#377d50; }
      .ExScheme-Blue-1    { color:#abdaf9; }
      .ExScheme-Blue-2    { color:#3daefd; }
      .ExScheme-Blue-3    { color:#2b3c4d; }
      .ExScheme-Yellow-1  { color:#faffa5; }
      .ExScheme-Yellow-2  { color:#cac726; }
      .ExScheme-Yellow-3  { color:#4b4d2b; }
      .ExScheme-Orange-1  { color:#ffdaa5; }
      .ExScheme-Orange-2  { color:#ff9701; }
      .ExScheme-Orange-3  { color:#4d372b; }
      .ExScheme-Brown-1   { color:#e9d6bb; }
      .ExScheme-Brown-2   { color:#997657; }
      .ExScheme-Brown-3   { color:#433a35; }
      .ExScheme-Purple-1  { color:#e2abf9; }
      .ExScheme-Purple-2  { color:#b401ff; }
      .ExScheme-Purple-3  { color:#432b4d; }
      .ExScheme-Cyan-1    { color:#b2f2e6; }
      .ExScheme-Cyan-2    { color:#31bfa6; }
      .ExScheme-Cyan-3    { color:#2b4d47; }
      .ExScheme-Magenta-1 { color:#f8a6d8; }
      .ExScheme-Magenta-2 { color:#f00091; }
      .ExScheme-Magenta-3 { color:#770048; }
  </style><linearGradient id="gradientDark"><stop offset="0"/><stop offset="1" stop-opacity="0"/></linearGradient><linearGradient id="gradientLight"><stop offset="0" stop-color="#fff"/><stop offset="1" stop-color="#fff" stop-opacity="0"/></linearGradient><style class="toggle-enable-crease" type="text/css">.folder-crease { display: none; }
  </style><style class="toggle-manilla-folders" type="text/css">.folder-manilla { display: none; }
  </style><radialGradient cx=".5" cy="0" id="gl1" r="1" xlink:href="#gradientLight"/><linearGradient id="gd1" xlink:href="#gradientDark" y1="1" y2=".5"/><path d="M 7,6 C 5.892,6 5,6.892 5,8 v 2 4 c -1.108,0 -2,0.892 -2,2 v 24 c 0,1.108 0.892,2 2,2 h 38 c 1.108,0 2,-0.892 2,-2 V 25 16 14 c 0,-1.108 -0.892,-2 -2,-2 V 10 C 43,8.892 42.108,8 41,8 H 21 C 18,8 18,6 15,6 Z" id="use-path-7b"/><path d="M 7,6 C 5.892,6 5,6.892 5,8 v 2 4 h 10 c 3,0 3,-2 6,-2 H 43 V 10 C 43,8.892 42.108,8 41,8 H 21 C 18,8 18,6 15,6 Z" id="use-path-7c"/></defs><g id="content"><namedview bordercolor="#666666" borderopacity="1.0" current-layer="svg49" cx="24" cy="24" pagecheckerboard="0" pagecolor="#fff" pageopacity="0.0" pageshadow="2" showgrid="true" window-height="1017" window-maximized="1" window-width="1920" window-x="0" window-y="0" zoom="13.25"><grid type="xygrid"/></namedview><use class="folder-manilla ExScheme-Brown-1" fill="currentColor" href="#use-path-7b"/><use class="toggle-manilla-folders ColorScheme-Highlight" fill="currentColor" href="#use-path-7b" id="primary-color"/><use class="ColorScheme-Text" fill="currentColor" href="#use-path-7b" opacity=".1"/><g id="emblem" transform="translate(12,15)"><path class="ColorScheme-Background" d="M 2.5 4 C 2.223 4 2 4.223 2 4.5 C 2 4.777 2.223 5 2.5 5 L 20.5 5 C 20.777 5 21 4.777 21 4.5 C 21 4.223 20.777 4 20.5 4 L 2.5 4 z M 2.5 7 C 2.223 7 2 7.223 2 7.5 C 2 7.777 2.223 8 2.5 8 L 17.5 8 C 17.777 8 18 7.777 18 7.5 C 18 7.223 17.777 7 17.5 7 L 2.5 7 z M 2.5 10 C 2.223 10 2 10.223 2 10.5 C 2 10.777 2.223 11 2.5 11 L 21.5 11 C 21.777 11 22 10.777 22 10.5 C 22 10.223 21.777 10 21.5 10 L 2.5 10 z M 2.5 13 C 2.223 13 2 13.223 2 13.5 C 2 13.777 2.223 14 2.5 14 L 13.5 14 C 13.777 14 14 13.777 14 13.5 C 14 13.223 13.777 13 13.5 13 L 2.5 13 z M 2.5 16 C 2.223 16 2 16.223 2 16.5 C 2 16.777 2.223 17 2.5 17 L 17.5 17 C 17.777 17 18 16.777 18 16.5 C 18 16.223 17.777 16 17.5 16 L 2.5 16 z M 2.473 19 C 2.21 19 2 19.21 2 19.473 L 2 19.527 C 2 19.79 2.21 20 2.473 20 L 20.527 20 C 20.79 20 21 19.79 21 19.527 L 21 19.473 C 21 19.21 20.79 19 20.527 19 L 2.473 19 z " fill="currentColor" opacity=".6"/><path class="ColorScheme-Background" d="M 2.5,4 C 2.223,4 2,4.223 2,4.5 2,4.777 2.223,5 2.5,5 h 18 C 20.777,5 21,4.777 21,4.5 21,4.223 20.777,4 20.5,4 Z m 0,3 C 2.223,7 2,7.223 2,7.5 2,7.777 2.223,8 2.5,8 h 15 C 17.777,8 18,7.777 18,7.5 18,7.223 17.777,7 17.5,7 Z m 0,3 C 2.223,10 2,10.223 2,10.5 2,10.777 2.223,11 2.5,11 h 19 C 21.777,11 22,10.777 22,10.5 22,10.223 21.777,10 21.5,10 Z m 0,3 C 2.223,13 2,13.223 2,13.5 2,13.777 2.223,14 2.5,14 h 11 C 13.777,14 14,13.777 14,13.5 14,13.223 13.777,13 13.5,13 Z m 0,3 C 2.223,16 2,16.223 2,16.5 2,16.777 2.223,17 2.5,17 h 15 C 17.777,17 18,16.777 18,16.5 18,16.223 17.777,16 17.5,16 Z M 2.473,19 C 2.21,19 2,19.21 2,19.473 v .055 C 2,19.79 2.21,20 2.473,20 H 20.527 C 20.79,20 21,19.79 21,19.527 v -.055 C 21,19.21 20.79,19 20.527,19 Z" fill="currentColor" opacity=".6"/></g><use href="#use-path-7c" opacity=".4"/><use class="toggle-flat-design" fill="url(#gd1)" href="#use-path-7c" opacity=".1"/><path class="toggle-flat-design" d="m 21,12 c -3,0 -3,2 -6,2 H 5 c -1.108,0 -2,0.892 -2,2 v 24 c 0,1.108 0.892,2 2,2 h 38 c 1.108,0 2,-0.892 2,-2 V 25 16 14 c 0,-1.108 -0.892,-2 -2,-2 z" fill="url(#gl1)" opacity=".2"/><path class="folder-crease" d="m 3,33 v 1 H 9.5 C 9.777,34 10,33.777 10,33.5 10,33.223 9.777,33 9.5,33 Z m 35.5,0 c -0.277,0 -0.5,0.223 -0.5,0.5 0,0.277 0.223,0.5 0.5,0.5 H 45 v -1 z" opacity=".4"/><path class="ColorScheme-Text" d="m 3,39 v 1 c 0,1.108 0.892,2 2,2 h 38 c 1.108,0 2,-0.892 2,-2 v -1 c 0,1.108 -0.892,2 -2,2 H 5 C 3.892,41 3,40.108 3,39 Z" fill="currentColor" opacity=".1"/><path class="ColorScheme-Text" d="M 3,39.5 V 40 c 0,1.108 0.892,2 2,2 h 38 c 1.108,0 2,-0.892 2,-2 v -0.5 c 0,1.108 -0.892,2 -2,2 H 5 c -1.108,0 -2,-0.892 -2,-2 z" fill="currentColor" opacity=".2"/><path d="m 21,12 c -3,0 -3,2 -6,2 H 5 c -1.108,0 -2,0.892 -2,2 v 1 c 0,-1.108 0.892,-2 2,-2 h 10 c 3,0 3,-2 6,-2 h 22 c 1.108,0 2,0.892 2,2 v -1 c 0,-1.108 -0.892,-2 -2,-2 z" fill="#fff" opacity=".1"/><path d="m 21,12 c -3,0 -3,2 -6,2 H 5 c -1.108,0 -2,0.892 -2,2 v 0.5 c 0,-1.108 0.892,-2 2,-2 h 10 c 3,0 3,-2 6,-2 h 22 c 1.108,0 2,0.892 2,2 V 14 c 0,-1.108 -0.892,-2 -2,-2 z" fill="#fff" opacity=".2"/><path d="m 21,11 c -3,0 -3,2 -6,2 H 5 v 1 h 10 c 3,0 3,-2 6,-2 h 22 v -1 z" opacity=".1"/><path d="m 21,11.5 c -3,0 -3,2 -6,2 H 5 V 14 h 10 c 3,0 3,-2 6,-2 h 22 v -0.5 z" opacity=".2"/></g></svg>