<svg height="48" version="1.1" width="48" xmlns="http://www.w3.org/2000/svg" xmlns:svg="http://www.w3.org/2000/svg" xmlns:xlink="http://www.w3.org/1999/xlink">
<defs id="primary-definitions">
<style id="current-color-scheme" type="text/css">
      .ColorScheme-Text           { color:#fff; }
      .ColorScheme-Background     { color:#111; }
      .ColorScheme-Highlight      { color:#3daefd; }
      .ColorScheme-ViewBackground { color:#000; }
      .ColorScheme-PositiveText   { color:#27ae60; }
      .ColorScheme-NeutralText    { color:#f67400; }
      .ColorScheme-NegativeText   { color:#da4453; }
    </style>
<style id="extended-color-scheme" type="text/css">
      .ExScheme-Black     { color:#3e3e3e; }
      .ExScheme-White     { color:#fcfcfc; }
      .ExScheme-Grey-1    { color:#cfd5d5; }
      .ExScheme-Grey-2    { color:#909c9c; }
      .ExScheme-Grey-3    { color:#536161; }
      .ExScheme-Red-1     { color:#ffafa5; }
      .ExScheme-Red-2     { color:#bf4231; }
      .ExScheme-Red-3     { color:#4d2f2b; }
      .ExScheme-Green-1   { color:#abf9c7; }
      .ExScheme-Green-2   { color:#3bb566; }
      .ExScheme-Green-3   { color:#377d50; }
      .ExScheme-Blue-1    { color:#abdaf9; }
      .ExScheme-Blue-2    { color:#3daefd; }
      .ExScheme-Blue-3    { color:#2b3c4d; }
      .ExScheme-Yellow-1  { color:#faffa5; }
      .ExScheme-Yellow-2  { color:#cac726; }
      .ExScheme-Yellow-3  { color:#4b4d2b; }
      .ExScheme-Orange-1  { color:#ffdaa5; }
      .ExScheme-Orange-2  { color:#ff9701; }
      .ExScheme-Orange-3  { color:#4d372b; }
      .ExScheme-Brown-1   { color:#e9d6bb; }
      .ExScheme-Brown-2   { color:#997657; }
      .ExScheme-Brown-3   { color:#433a35; }
      .ExScheme-Purple-1  { color:#e2abf9; }
      .ExScheme-Purple-2  { color:#b401ff; }
      .ExScheme-Purple-3  { color:#432b4d; }
      .ExScheme-Cyan-1    { color:#b2f2e6; }
      .ExScheme-Cyan-2    { color:#31bfa6; }
      .ExScheme-Cyan-3    { color:#2b4d47; }
      .ExScheme-Magenta-1 { color:#f8a6d8; }
      .ExScheme-Magenta-2 { color:#f00091; }
      .ExScheme-Magenta-3 { color:#770048; }
    </style>
<linearGradient id="ud6">
<stop offset="0"/>
<stop offset="1" stop-opacity="0"/>
</linearGradient>
<linearGradient id="ud7">
<stop offset="0" stop-color="#fff"/>
<stop offset="1" stop-color="#fff" stop-opacity="0"/>
</linearGradient>
<style class="toggle-enable-crease" type="text/css">
        .folder-crease { display: none; }
    </style><style class="toggle-manilla-folders" type="text/css">
        .folder-manilla { display: none; }
    </style><radialGradient cx=".5" cy="0" id="ud8" r="1" xlink:href="#ud7"/><linearGradient id="ud9" xlink:href="#ud6" y1="1" y2=".5"/><path d="M 7,6 C 5.9,6 5,6.9 5,8 v 2 4 c -1.1,0 -2,.9 -2,2 v 24 c 0,1.1 .9,2 2,2 h 38 c 1.1,0 2,-.9 2,-2 V 25 16 14 c 0,-1.1 -.9,-2 -2,-2 V 10 C 43,8.9 42.1,8 41,8 H 21 C 18,8 18,6 15,6 Z" id="uda"></path><path d="M 7,6 C 5.9,6 5,6.9 5,8 v 2 4 h 10 c 3,0 3,-2 6,-2 H 43 V 10 C 43,8.9 42.1,8 41,8 H 21 C 18,8 18,6 15,6 Z" id="udb"></path></defs>
<g id="content" transform="translate(0,0)"><use class="folder-manilla ExScheme-Brown-1" fill="currentColor" href="#uda"></use><use class="toggle-manilla-folders ColorScheme-Highlight" fill="currentColor" href="#uda" id="primary-color"></use><use class="ColorScheme-Text" fill="currentColor" href="#uda" opacity=".1"></use><g id="emblem" transform="translate(12,15)"><path class="ColorScheme-Background" d="M 12,3 A 9,3 0 0 0 3,6 v 3 a 9,3 0 0 0 9,3 9,3 0 0 0 9,-3 V 6 A 9,3 0 0 0 12,3 Z M 3,11.5 V 13.5 a 9,3 0 0 0 9,3 9,3 0 0 0 9,-3 v -2 c -.6,.44 -1.34,.76 -2.16,1.03 C 17,13.16 14.6,13.5 12,13.5 9.4,13.5 7,13.16 5.16,12.54 4.34,12.27 3.6,11.95 3,11.5 Z m 0,4.5 V 18 a 9,3 0 0 0 9,3 9,3 0 0 0 9,-3 v -2 c -.6,.44 -1.34,.76 -2.16,1.03 C 17,17.66 14.6,18 12,18 9.4,18 7,17.66 5.16,17.04 4.34,16.77 3.6,16.45 3,16 Z" fill="currentColor" opacity=".6" stop-color="#000000"/><path class="ColorScheme-Background" d="M 12 3 A 9 3 0 0 0 3 6 L 3 9 A 9 3 0 0 0 12 12 A 9 3 0 0 0 21 9 L 21 6 A 9 3 0 0 0 12 3 z M 12 3.5 C 14.44 3.5 16.65 3.83 18.2 4.35 C 19 4.6 19.6 4.9 20 5.2 C 20.37 5.53 20.5 5.8 20.5 6 L 20.5 9 C 20.5 9.2 20.37 9.47 20 9.8 C 19.6 10.1 19 10.4 18.2 10.65 C 16.65 11.17 14.44 11.5 12 11.5 C 9.56 11.5 7.35 11.17 5.8 10.65 C 5 10.4 4.4 10.1 4 9.8 C 3.63 9.47 3.5 9.2 3.5 9 L 3.5 6 C 3.5 5.8 3.63 5.53 4 5.2 C 4.4 4.9 5 4.6 5.8 4.35 C 7.35 3.83 9.56 3.5 12 3.5 z M 3 11.5 L 3 13.5 A 9 3 0 0 0 12 16.5 A 9 3 0 0 0 21 13.5 L 21 11.5 C 20.4 11.95 19.66 12.27 18.84 12.54 C 17 13.16 14.6 13.5 12 13.5 C 9.4 13.5 7 13.16 5.16 12.54 C 4.34 12.27 3.6 11.95 3 11.5 z M 3.5 12.3 C 4 12.56 4.45 12.83 5 13 C 6.9 13.66 9.34 14 12 14 C 14.66 14 17.1 13.66 19 13 C 19.55 12.83 20 12.56 20.5 12.3 L 20.5 13.5 C 20.5 13.7 20.37 13.97 20 14.3 C 19.6 14.6 19 14.9 18.2 15.15 C 16.65 15.67 14.44 16 12 16 C 9.56 16 7.35 15.67 5.8 15.15 C 5 14.9 4.4 14.6 4 14.3 C 3.63 13.97 3.5 13.7 3.5 13.5 L 3.5 12.3 z M 3 16 L 3 18 A 9 3 0 0 0 12 21 A 9 3 0 0 0 21 18 L 21 16 C 20.4 16.45 19.66 16.77 18.84 17.04 C 17 17.66 14.6 18 12 18 C 9.4 18 7 17.66 5.16 17.04 C 4.34 16.77 3.6 16.45 3 16 z M 3.5 16.8 C 4 17.06 4.45 17.33 5 17.5 C 6.9 18.16 9.34 18.5 12 18.5 C 14.66 18.5 17.1 18.16 19 17.5 C 19.55 17.33 20 17.06 20.5 16.8 L 20.5 18 C 20.5 18.2 20.37 18.47 20 18.8 C 19.6 19.1 19 19.4 18.2 19.65 C 16.65 20.17 14.44 20.5 12 20.5 C 9.56 20.5 7.35 20.17 5.8 19.65 C 5 19.4 4.4 19.1 4 18.8 C 3.63 18.47 3.5 18.2 3.5 18 L 3.5 16.8 z " fill="currentColor" opacity=".6"/></g><use href="#udb" opacity=".4"></use><use class="toggle-flat-design" fill="url(#ud9)" href="#udb" opacity=".1"></use><path class="toggle-flat-design" d="m 21,12 c -3,0 -3,2 -6,2 H 5 c -1.1,0 -2,.9 -2,2 v 24 c 0,1.1 .9,2 2,2 h 38 c 1.1,0 2,-.9 2,-2 V 25 16 14 c 0,-1.1 -.9,-2 -2,-2 z" fill="url(#ud8)" opacity=".2"/><path class="folder-crease " d="m 3,33 v 1 H 9.5 C 9.8,34 10,33.8 10,33.5 10,33.2 9.8,33 9.5,33 Z m 35.5,0 c -.3,0 -0.5,.2 -0.5,0.5 0,.3 .2,0.5 0.5,0.5 H 45 v -1 z" opacity=".4"/><path class="ColorScheme-Text" d="m 3,39 v 1 c 0,1.1 .9,2 2,2 h 38 c 1.1,0 2,-.9 2,-2 v -1 c 0,1.1 -.9,2 -2,2 H 5 C 3.9,41 3,40.1 3,39 Z" fill="currentColor" opacity=".1"/><path class="ColorScheme-Text" d="M 3,39.5 V 40 c 0,1.1 .9,2 2,2 h 38 c 1.1,0 2,-.9 2,-2 v -0.5 c 0,1.1 -.9,2 -2,2 H 5 c -1.1,0 -2,-.9 -2,-2 z" fill="currentColor" opacity=".2"/><path d="m 21,12 c -3,0 -3,2 -6,2 H 5 c -1.1,0 -2,.9 -2,2 v 1 c 0,-1.1 .9,-2 2,-2 h 10 c 3,0 3,-2 6,-2 h 22 c 1.1,0 2,.9 2,2 v -1 c 0,-1.1 -.9,-2 -2,-2 z" fill="#fff" opacity=".1"/><path d="m 21,12 c -3,0 -3,2 -6,2 H 5 c -1.1,0 -2,.9 -2,2 v 0.5 c 0,-1.1 .9,-2 2,-2 h 10 c 3,0 3,-2 6,-2 h 22 c 1.1,0 2,.9 2,2 V 14 c 0,-1.1 -.9,-2 -2,-2 z" fill="#fff" opacity=".2"/><path d="m 21,11 c -3,0 -3,2 -6,2 H 5 v 1 h 10 c 3,0 3,-2 6,-2 h 22 v -1 z" opacity=".1"/><path d="m 21,11.5 c -3,0 -3,2 -6,2 H 5 V 14 h 10 c 3,0 3,-2 6,-2 h 22 v -0.5 z" opacity=".2"/></g>
</svg>