<svg height="48" version="1.1" width="48" xmlns="http://www.w3.org/2000/svg" xmlns:svg="http://www.w3.org/2000/svg" xmlns:xlink="http://www.w3.org/1999/xlink">
<defs id="primary-definitions">
<style id="current-color-scheme" type="text/css">
      .ColorScheme-Text         { color: #232629; }
      .ColorScheme-Background   { color: #eff0f1; }
      .ColorScheme-Highlight    { color: #7ec9f0; }
      .ColorScheme-PositiveText { color: #27ae60; }
      .ColorScheme-NeutralText  { color: #f67400; }
      .ColorScheme-NegativeText { color: #da4453; }
      .ColorScheme-ActiveText   { color: #3daee9; }
      .ColorScheme-Complement   { color: #ffffff; }
      .ColorScheme-Contrast     { color: #000000; }
    </style>
<style id="extended-color-scheme" type="text/css">
      .ExScheme-Black     { color:#3e3e3e; }
      .ExScheme-White     { color:#fcfcfc; }
      .ExScheme-Grey-1    { color:#cfd5d5; }
      .ExScheme-Grey-2    { color:#909c9c; }
      .ExScheme-Grey-3    { color:#536161; }
      .ExScheme-Red-1     { color:#ffafa5; }
      .ExScheme-Red-2     { color:#bf4231; }
      .ExScheme-Red-3     { color:#4d2f2b; }
      .ExScheme-Green-1   { color:#abf9c7; }
      .ExScheme-Green-2   { color:#3bb566; }
      .ExScheme-Green-3   { color:#377d50; }
      .ExScheme-Blue-1    { color:#abdaf9; }
      .ExScheme-Blue-2    { color:#3daefd; }
      .ExScheme-Blue-3    { color:#2b3c4d; }
      .ExScheme-Yellow-1  { color:#faffa5; }
      .ExScheme-Yellow-2  { color:#cac726; }
      .ExScheme-Yellow-3  { color:#4b4d2b; }
      .ExScheme-Orange-1  { color:#ffdaa5; }
      .ExScheme-Orange-2  { color:#ff9701; }
      .ExScheme-Orange-3  { color:#4d372b; }
      .ExScheme-Brown-1   { color:#e9d6bb; }
      .ExScheme-Brown-2   { color:#997657; }
      .ExScheme-Brown-3   { color:#433a35; }
      .ExScheme-Purple-1  { color:#e2abf9; }
      .ExScheme-Purple-2  { color:#b401ff; }
      .ExScheme-Purple-3  { color:#432b4d; }
      .ExScheme-Cyan-1    { color:#b2f2e6; }
      .ExScheme-Cyan-2    { color:#31bfa6; }
      .ExScheme-Cyan-3    { color:#2b4d47; }
      .ExScheme-Magenta-1 { color:#f8a6d8; }
      .ExScheme-Magenta-2 { color:#f00091; }
      .ExScheme-Magenta-3 { color:#770048; }
    </style>
<linearGradient id="uNz">
<stop offset="0"/>
<stop offset="1" stop-opacity="0"/>
</linearGradient>
<linearGradient id="uNA">
<stop offset="0" stop-color="#fff"/>
<stop offset="1" stop-color="#fff" stop-opacity="0"/>
</linearGradient>
<style id="uNB" type="text/css">
        .force-display-for-editing { display: inline !important; }
    </style><style class="remove-if__show-crease" type="text/css">
        .enable-if__show-crease { display: none; }
    </style><style class="remove-if__color-sync-mimes-places" type="text/css">
        .enable-if__color-sync-mimes-places { display: none; }
    </style><radialGradient cx=".5" cy="0" id="uNC" r="1" xlink:href="#uNA"/><linearGradient id="uND" xlink:href="#uNz" y1="1" y2=".5"/><style class="ColorScheme-Background" fill="currentColor" opacity=".6" type="text/css">
   .ColorScheme-Text           { color:#eff0f1; }
      .ColorScheme-Background     { color:#31363b; }
      .ColorScheme-Highlight      { color:#3daefd; }
      .ColorScheme-ViewBackground { color:#fcfcfc; }
      .ColorScheme-PositiveText   { color:#27ae60; }
      .ColorScheme-NeutralText    { color:#f67400; }
      .ColorScheme-NegativeText   { color:#da4453; }
  </style><path d="M 7,6 C 5.9,6 5,6.9 5,8 v 2 4 c -1.1,0 -2,.9 -2,2 v 24 c 0,1.1 .9,2 2,2 h 38 c 1.1,0 2,-.9 2,-2 V 25 16 14 c 0,-1.1 -.9,-2 -2,-2 V 10 C 43,8.9 42.1,8 41,8 H 21 C 18,8 18,6 15,6 Z" id="uNE"></path><path d="M 7,6 C 5.9,6 5,6.9 5,8 v 2 4 h 10 c 3,0 3,-2 6,-2 H 43 V 10 C 43,8.9 42.1,8 41,8 H 21 C 18,8 18,6 15,6 Z" id="uNF"></path></defs>
<g id="content" transform="translate(0,0)"><use class="sync-color enable-if__color-sync-mimes-places force-display-for-editing ColorScheme-ActiveText" fill="currentColor" href="#uNE"></use><use class="primary-color remove-if__color-sync-mimes-places ColorScheme-ActiveText" fill="currentColor" href="#uNE"></use><use class="ColorScheme-Contrast" fill="currentColor" href="#uNE" opacity=".1"></use><use href="#uNF" opacity=".4"></use><g id="panorama" transform="translate(3,12)"><rect fill="#fcfcfc" height="10.500015" ry="1.5" stop-color="#000000" transform="rotate(7.5)" width="10.500015" x="16.852674" y="5.6877751"/><path d="M 17.36,8.8 C 16.94,8.7 16.57,9 16.5,9.4 L 15.53,16.86 c -.05,.4 .23,.8 .65,.84 l 7.44,1 c .4,.05 .8,-.23 .84,-.65 l 1,-7.44 c .05,-.4 -.23,-.8 -.65,-.84 z m .85,1.36 1.5,2 -2,1.5 -.46,-.6 1.4,-1.06 -1.06,-1.4 z" fill="#68377d" id="rect37578" stop-color="#000000"/><path color="#000000" d="M 18.25 16.93 C 18.1 16.94 17.95 16.96 17.8 17 C 17.53 17.07 17.26 17.2 17 17.44 L 13.1 21.36 C 12.63 21.84 12.47 22.4 12.65 23.05 L 14.1 28.4 C 14.17 28.73 14.34 29 14.55 29.2 C 14.75 29.4 15 29.56 15.3 29.65 L 16.64 30 L 23 30 L 26.3 26.7 C 26.53 26.47 26.66 26.2 26.73 25.9 C 26.8 25.64 26.83 25.34 26.75 25 L 25.3 19.66 C 25.2 19.33 25.05 19.1 24.85 18.9 C 24.64 18.7 24.4 18.5 24.07 18.4 L 18.7 17 C 18.55 16.94 18.5 16.93 18.25 16.93 z " fill="#fcfcfc"/><path d="m 24.3,19.4 c -.13,-.13 -.3,-.23 -.44,-.27 l -5.35,-1.43 c -.3,-.1 -.75,.03 -.97,.26 l -3.9,3.9 c -.23,.23 -.34,.66 -.26,.97 l 1.43,5.35 c .04,.15 .14,.3 .27,.44 l 5.14,-4.37 z" fill="#659ad2"/><path d="m 26,25.7 c .05,-.2 .06,-.36 0,-.5 L 24.6,19.85 c -.04,-.15 -.14,-.3 -.27,-.44 l -4.6,4.6 1.05,1.27 z" fill="#00599c"/><path d="M 19.7 24.03 L 15.1 28.65 C 15.2 28.8 15.36 28.9 15.5 28.9 L 19.54 30 L 21.94 30 L 25.76 26.2 C 25.87 26.06 25.96 25.9 26 25.7 L 19.7 24.03 z " fill="#004382"/><path d="M 15.34 .8 C 14.46 1.34 13.7 2 12 2 L 6 2 A 6.4 6.4 0 0 0 5.33 6.8 A 6.4 6.4 0 0 0 13.14 11.33 A 6.4 6.4 0 0 0 17.24 7.9 L 15.34 .8 z " fill="#fcfcfc" stop-color="#000000" stroke-opacity=".2"/><path d="M 15.13 .9 C 14.34 1.44 13.6 2 12 2 L 6.86 2 A 5.63 5.63 0 0 0 5.9 4.76 A 5.63 5.63 0 0 0 9.44 10.4 L 10.53 6.8 A 1.9 1.9 0 0 1 9.6 5.04 A 1.9 1.9 0 0 1 11.63 3.3 A 1.9 1.9 0 0 1 13.36 5.3 A 1.9 1.9 0 0 1 12.2 6.9 L 12.73 10.66 A 5.63 5.63 0 0 0 16.9 6.63 L 15.45 1.2 A 5.63 5.63 0 0 0 15.13 .9 z " fill="#3bb566" stop-color="#000000" stroke-opacity=".2"/><path color="#000000" d="m 11.7,7.23 -.8,.1 c -.44,.06 -.74,.5 -.63,.9 0,0 .06,.25 .1,.6 .04,.3 -.1,1.13 -.1,1.3 C 10.17,10.03 10.1,9.9 9.9,9.9 9.54,9.83 9.07,10.14 8.94,10.44 c -.13,.3 -.1,.56 -.07,.83 .1,.6 .25,.7 .4,.95 -.13,.17 -.3,.3 -.3,.66 0,.2 -0,.25 -0,.3 -.1,.2 -.3,.55 -.1,1.1 .16,.55 .46,.7 .73,.93 .13,.1 .27,.2 .4,.26 .06,.03 .2,.1 .2,.1 .07,.1 -.1,1.07 -.1,1.44 .03,.36 .2,.66 .35,.9 .1,.14 -0,.6 -.14,.77 -.4,.47 -.75,1.06 -.9,1.7 -.13,.7 -.04,1.47 .45,2.1 .3,.4 .7,.8 1.2,1.1 .25,.14 .53,.25 .83,.3 -0,.03 -0,.03 -0,.06 -.1,.33 -.2,.8 -.1,1.3 .03,.1 .1,.2 .15,.3 .25,.3 .7,.5 1.1,.5 .4,-.04 .64,-.2 .85,-.36 .4,-.3 .76,-.7 .83,-.75 .4,-.27 .6,-.6 .75,-.8 .15,-.2 .24,-.25 .3,-.3 .47,-.1 .95,-.06 1.3,.05 .36,.6 .85,1.34 1.86,1.5 .05,0 .1,0 .16,0 .2,-0 .37,-.03 .57,-.13 .2,-.1 .43,-.33 .5,-.6 .15,-.5 -.05,-.76 -.16,-.96 -.1,-.2 -.4,-1.25 -.4,-1.56 .14,-.13 .37,-.23 .44,-.36 .17,-.3 .2,-.6 .2,-.6 0,-.13 -0,-.27 -.1,-.4 .06,-.07 .15,-.1 .2,-.2 .16,-.24 .3,-.63 .1,-1.04 -.17,-.4 -.53,-.56 -.87,-.63 -.1,-.03 -.23,-.06 -.34,-.1 -.17,-.14 -.4,-.2 -.6,-.16 -.2,-.06 -.43,-.1 -.65,-.2 -0,-.04 -0,-.06 -0,-.16 -0,-.17 0,-.4 -.1,-.7 -.03,-.1 -.1,-.24 -.04,-.27 1.04,-.4 2.4,-1.03 2.96,-2.43 0,-0 0,-.04 0,-.06 .4,-1.4 -.9,-3.43 -1.26,-3.7 L 20.4,9.8 C 20.6,9.4 20.44,8.9 20.04,8.75 L 19.4,8.47 c -.23,-0 -.45,.06 -.6,.2 -0,-.03 -.03,-.05 -.05,-.07 L 18.1,8.2 c -.5,-.34 -1.2,.06 -1.16,.7 l .07,1.05 c -.4,-.1 -.8,-.26 -1.2,-.25 -0,-0 -.04,-0 -.06,-.03 -.8,-0 -1.6,.3 -2.27,.7 l -.06,-.1 .96,-.8 c .3,-.25 .36,-.7 .14,-1 L 14,7.75 C 13.76,7.4 13.25,7.33 12.9,7.6 L 12.56,7.9 C 12.5,7.5 12.15,7.2 11.7,7.23 Z" fill="#fcfcfc" fill-rule="evenodd"/><path d="m 17.5,10.97 .44,-.3 -.1,-1.8 .6,.4 .2,1.1 .6,-1.2 .65,.3 -1.1,2.2 z" fill="#ffafa5" fill-rule="evenodd"/><path d="m 15.75,10.4 c -1.5,-.04 -3.03,1 -3.4,2.5 -.2,.64 -.44,1.3 -.66,1.93 .56,.45 1.14,.87 1.66,1.37 .4,.43 1.83,.3 1.5,1.1 -1.05,.04 -.06,1.13 -.44,1.7 -.43,.6 -.7,1.53 -1.24,1.9 -.76,-.03 -1.7,-.45 -1.54,-1.35 .05,-.56 -.55,-.93 -.8,-.3 -.7,.8 -1.03,2.1 -.25,2.97 .5,.65 1.34,1.24 2.2,1.03 .15,.7 -.63,1.6 0,2.1 .67,.15 1.05,-.6 1.53,-.93 .55,-.4 .84,-1.27 1.64,-1.24 .8,-.13 1.74,-0 2.04,.86 .2,.44 1.36,1.2 1.5,.4 -.5,-.7 -.5,-1.5 -.63,-2.3 -.15,-.55 -.1,-.96 .06,-1.4 .74,.27 1.37,-.97 .3,-.9 -.6,-.3 -1.67,-.1 -1.93,-.9 0,-.5 -.06,-1.04 -.5,-1.27 -.14,-.7 .76,-.7 1.2,-.9 .94,-.4 2,-1.05 2.2,-2.14 .14,-1.24 -.7,-2.37 -1.57,-3.13 -.8,-.66 -1.85,-1.04 -2.9,-1.03 z" fill="#54d883" fill-rule="evenodd"/><path d="m 17,19.76 .33,-.16 c 0,0 .16,.5 .7,.33 .53,-.2 .83,-.4 .83,-.4 0,0 .44,.84 -.04,1.37 -.47,.53 -.75,.6 -.75,.6 -.5,-.43 -.9,-.95 -1.05,-1.75 z" fill="#ffe5e1" fill-rule="evenodd"/><path d="m 14.9,17 c 0,0 .2,.35 .1,.65 -.1,.3 -.54,.65 -.54,.65 0,0 -.25,.8 -.7,1.47 -.24,.33 -.55,.4 -.85,.4 -.3,-.5 -.6,-.23 -1,.1 .06,.1 .13,.16 .2,.2 -0,0 -0,0 -0,0 -.4,.53 .86,.7 .86,.7 0,0 .16,-.47 1.46,-.26 1.3,.2 1.74,1.07 3.4,1.2 1.67,.1 1.74,-.86 1.74,-.86 0,0 -.65,-.25 -1.7,-1.47 -1.07,-1.23 -.93,-2.5 -.93,-2.5 l -2,-.3 z m -3.43,2.3 c -.1,.27 -.03,.5 .25,.7 .4,-.54 .1,-.6 -.25,-.7 z" fill="#ffafa5" fill-rule="evenodd"/><path d="m 13.36,11.5 -.95,-1.4 1.5,-1.23 -.5,-.7 -1.53,1.3 -.05,-1.5 -.8,.1 c 0,0 .3,1.3 .07,2 -.25,.7 -.65,1.4 -.65,1.4 l .63,.4 .8,-1.3 .83,1.8 c 0,0 .23,-.1 .46,-.37 .23,-.26 .2,-.44 .2,-.44 z" fill="#ffafa5" fill-rule="evenodd"/><path d="m 12.54,11.5 c -.2,.17 -.4,.33 -.57,.5 -.17,-.5 -.3,-1.03 -.35,-1.56 -.03,-.2 -.1,-.6 -.4,-.56 -.27,.07 -.27,.43 -.3,.66 -.04,.4 -.03,.84 -9.37e-4,1.26 -.3,.1 -.5,-.2 -.6,-.44 -.1,-.3 -.2,-.6 -.5,-.74 -.3,-0 -.25,.4 -.2,.6 .1,.4 .25,.77 .5,1.1 -.3,.17 -.4,.5 -.4,.8 0,.3 -.23,.5 -.2,.8 .04,.36 .37,.6 .64,.77 .2,.15 .5,.14 .6,.4 .15,.2 .4,.3 .6,.45 .3,.3 .5,.7 .7,1.1 .23,-.04 .46,-.1 .7,-.1 .1,-.26 .23,-.53 .35,-.8 -.2,-1.33 -.4,-2.67 -.6,-4 -0,-.07 -0,-.15 -.03,-.2 z" fill="#54d883" fill-rule="evenodd"/><path d="m 14.46,17 c 0,0 .2,.33 .2,.65 -0,.3 -.3,.7 -.3,.7 0,0 -1.4,.35 -2.2,0 -.8,-.33 -1.7,-1.37 -1.1,-1.97 .6,-.6 1.9,-1.3 2.2,-.77 .3,.53 .3,1.63 .6,1.6 .33,-.05 .6,-.2 .6,-.2 z" fill="#ffe5e1" fill-rule="evenodd"/><path color="#000000" d="M 25.3 0 C 25.14 .03 25 .06 24.87 .1 A .75 .75 0 0 0 24.87 .1 C 23.3 .53 22 1.66 21.24 3.1 C 21.16 3.1 21.1 3.1 21 3.1 A .75 .75 0 0 0 21 3.1 C 20.76 3.16 20.53 3.3 20.34 3.5 C 19.97 3.86 19.8 4.4 19.96 4.93 L 20.63 7.44 L 21.3 9.95 C 21.54 10.84 22.53 11.2 23.3 10.9 C 24.7 11.76 26.4 12.1 28 11.7 A .75 .75 0 0 0 28 11.7 C 31.17 10.83 33.1 7.53 32.2 4.34 C 31.6 2.05 29.74 .4 27.55 0 L 25.3 0 z " fill="#fcfcfc"/><path d="M 25.07,.8 A 5.25,5.25 0 0 0 21.6,3.8 l -0,-0 a .75,.75 0 0 0 -.4,-5.73e-4 .75,.75 0 0 0 -.34,.2 .75,.75 0 0 0 -.2,.7 l .67,2.5 .67,2.5 a .75,.75 0 0 0 1.25,.34 l 0,-0 a 5.25,5.25 0 0 0 4.5,.87 5.25,5.25 0 0 0 3.7,-6.43 5.25,5.25 0 0 0 -6.43,-3.7 z" fill="#3bb566" stop-color="#000000"/><path d="m 32,18 -6,3.46 v -6.93 z" fill="#fcfcfc" opacity="1" stop-color="#000000" transform="matrix(.724,-.194,.194,.724,-.25,-.94)"/><path d="m 25.26,1.54 a 4.5,4.5 0 0 0 -2.9,2.5 l .74,.2 a 3.75,3.75 0 0 1 2.37,-1.95 3.75,3.75 0 0 1 4.6,2.65 3.75,3.75 0 0 1 -2.65,4.6 3.75,3.75 0 0 1 -3.03,-.5 l -.54,.54 a 4.5,4.5 0 0 0 3.77,.7 4.5,4.5 0 0 0 3.2,-5.5 4.5,4.5 0 0 0 -5.5,-3.2 z" fill="#fcfcfc" stop-color="#000000"/><path d="M 25.65,3 A 3,3 0 0 0 23.8,4.4 l .76,.2 a 2.25,2.25 0 0 1 1.27,-.9 2.25,2.25 0 0 1 2.76,1.6 2.25,2.25 0 0 1 -1.6,2.76 2.25,2.25 0 0 1 -1.55,-.15 L 24.9,8.47 a 3,3 0 0 0 2.4,.3 3,3 0 0 0 2.1,-3.67 3,3 0 0 0 -3.67,-2.1 z" fill="#fcfcfc" stop-color="#000000"/><path color="#000000" d="M 23,8.16 C 22.35,8.6 22,9.4 22.2,10.16 l 2,7.8 -.4,.24 -0,8e-4 c -.4,.26 -.6,.76 -.5,1.2 l 8e-4,0 1.27,4.7 -0,8e-4 c .2,.7 1.04,1.03 1.66,.65 l 0,-8e-4 10.3,-6.5 0,-8e-4 c .6,-.4 .7,-1.3 .13,-1.8 l -0,8e-4 -3.7,-3.2 -8e-4,-0 C 32.67,13.03 32.13,13 31.73,13.24 L 31.34,13.5 25.16,8.3 C 24.56,7.8 23.7,7.73 23,8.16 Z" fill="#fcfcfc"/><path d="M 23.83,8.63 A 1.07,1.07 0 0 0 23.4,8.8 1.07,1.07 0 0 0 22.95,9.97 l 2.15,8.34 -.85,.54 a .36,.36 0 0 0 -.16,.4 l 1.27,4.7 a .36,.36 0 0 0 .54,.2 l 10.3,-6.5 a .36,.36 0 0 0 .04,-.57 L 32.55,13.9 A .36,.36 0 0 0 32.13,13.9 L 31.3,14.4 24.7,8.87 A 1.07,1.07 0 0 0 23.83,8.63 Z" fill="#ffa92d"/><path color="#31363b" d="M 2 2 C .9 2 0 2.9 0 4 L 0 7.7 L .5 7.3 C .95 9 2.35 10.35 4.2 10.6 C 6.65 10.9 8.9 9.17 9.24 6.7 C 9.4 5.53 9.07 4.4 8.4 3.5 C 8.4 3.5 8.4 3.47 8.4 3.47 L 7.3 2 L 2 2 z " fill="#fcfcfc"/><path class="ColorScheme-Background" color="#31363b" d="M 2 2 C 1.16 2 .44 2.5 .15 3.25 L 1.8 3.47 L 0 4.84 L 0 6.74 L 1.04 5.94 C .94 7.87 2.34 9.6 4.3 9.85 C 6.35 10.1 8.23 8.67 8.5 6.6 C 8.63 5.63 8.36 4.67 7.8 3.9 L 6.37 2 L 4.53 2 L 4.8 2.35 L 2.13 2 L 2 2 z M 4.8 3.9 A 2.25 2.25 0 0 1 5.07 3.9 A 2.25 2.25 0 0 1 7 6.4 A 2.25 2.25 0 0 1 4.5 8.36 A 2.25 2.25 0 0 1 2.55 5.84 A 2.25 2.25 0 0 1 4.57 3.9 A 2.25 2.25 0 0 1 4.8 3.9 z M 4.9 5.4 A .75 .75 0 0 0 4.04 6.03 A .75 .75 0 0 0 4.7 6.87 A .75 .75 0 0 0 5.53 6.23 A .75 .75 0 0 0 4.9 5.4 z " fill="#ffa92d"/><path color="#000000" d="M 6.05 8.7 C 5.8 8.7 5.53 8.7 5.26 8.8 C 4.35 9.05 3.87 9.8 3.67 10.4 C 3.46 11 3.46 11.5 3.46 11.5 A .75 .75 0 0 0 3.46 11.54 L .27 9.35 A .75 .75 0 0 0 0 9.23 L 0 15.1 C .15 15.34 .33 15.56 .56 15.77 C 1.3 16.47 2.34 16.53 3.16 16.53 C 3.45 16.53 3.45 16.5 3.7 16.5 C 3.44 17 3.06 17.2 3.06 17.2 A .75 .75 0 0 0 2.64 17.9 L 2.64 19.75 A .75 .75 0 0 0 4.07 20.1 L 4.47 19.25 C 4.7 19.26 4.8 19.27 5.4 19.3 C 6.54 19.3 7.7 18.8 8.45 17.9 C 9.2 17 9.4 15.6 8.66 14.25 C 8.1 13.25 7.9 12.67 7.84 12.33 L 11.35 11.5 A .75 .75 0 0 0 11.27 10 L 8.1 9.6 C 7.85 9.37 7.4 8.9 6.5 8.73 C 6.34 8.8 6.2 8.7 6.05 8.7 z " fill="#fcfcfc"/><path d="m 4,18.47 -.63,1.3 V 17.9 C 6.25,18.2 8.3,16.53 7,13.63 6.7,13 6.8,12 7.06,11.75 c -.37,.74 .5,1.86 1.06,3.17 .1,.2 .16,.37 .2,.6 .04,.3 .04,.54 -0,.8 C 8.06,17.36 7.2,18 6.9,18.1 5.85,18.64 4.93,18.6 4,18.47 Z" fill="#2a7fff" fill-rule="evenodd" stroke="#000000" stroke-dasharray="none" stroke-linejoin="miter" stroke-width="0"/><path d="M 4.7,12.23 C 4.04,11.4 5.4,9.24 7.3,10.76 H 11.17 L 7.8,10.3 C 6,8.15 3.44,10.2 4.4,11.94 Z" fill="#1a1a1a" fill-rule="evenodd" stroke="#000000" stroke-dasharray="none" stroke-linejoin="miter" stroke-width="0"/><path d="M 0 10.07 L 0 12.67 C .2 13 .5 13.3 .93 13.53 L .16 13.34 C .44 14.8 .83 15.7 2.7 15.73 L 3.1 15.7 C 2.3 15.64 1.54 15.36 1.2 14.03 L 4.74 14.57 C 3.8 14.36 3.17 14.2 2.36 13.94 C 2.1 13.86 1.84 13.77 1.6 13.6 C .65 12.8 .6 12.03 .73 11.23 L 5.16 13.6 L 0 10.07 z " fill="#2a7fff" fill-rule="evenodd" stroke="#000000" stroke-dasharray="none" stroke-linejoin="miter" stroke-width="0"/><path d="M 11.7 17.26 C 11.2 17.25 10.67 17.5 10.4 18 L 9.05 20.3 L 9.05 27.64 L 13.14 30 L 15.55 30 C 15.6 29.93 15.7 29.85 15.73 29.76 L 19.5 23.26 C 19.9 22.54 19.65 21.63 18.93 21.2 L 12.43 17.46 C 12.2 17.34 11.96 17.27 11.7 17.26 z " fill="#fcfcfc" id="rect1342" stop-color="#000000" stroke-opacity=".2"/><path d="m 11.75,17.96 c -.3,-0 -.55,.13 -.7,.4 l -.77,1.34 1.7,1 c .3,-.2 .66,-.2 .97,-.03 .3,.2 .5,.5 .46,.87 l 1.64,.94 c .3,-.2 .66,-.2 1,-.04 .44,.26 .6,.8 .34,1.26 -.26,.44 -.8,.6 -1.26,.34 -.33,-.2 -.5,-.56 -.45,-.9 l -1.53,-.9 .85,3.17 c .1,0 .2,.05 .3,.1 .44,.26 .6,.8 .34,1.26 -.26,.44 -.8,.6 -1.26,.34 -.44,-.26 -.6,-.8 -.34,-1.26 .06,-.1 .15,-.2 .24,-.27 l -.86,-3.2 c -.1,-0 -.24,-.05 -.35,-.1 -.33,-.2 -.5,-.56 -.45,-.9 L 9.9,20.34 9.05,21.8 v 4.8 l 5.03,2.9 c .37,.2 .85,.1 1.06,-.3 l 3.7,-6.4 c .2,-.37 .1,-.85 -.3,-1.06 v -0 l -6.45,-3.7 c -.1,-.07 -.24,-.1 -.37,-.1 z" fill="#f05133"/><path color="#000000" d="M 8.46 19.2 C 8.04 19.24 7.8 19.55 7.73 19.74 C 7.67 19.86 7.66 19.93 7.64 20 C 7.2 19.9 6.8 19.85 6.4 19.85 C 6.1 19.85 5.77 19.9 5.5 19.96 C 5.34 20 5.2 20.16 5.06 20.25 C 4.8 20.2 4.4 20.14 3.4 20.4 C 2.3 20.67 1.7 21.2 1.55 21.3 C 1.45 21.37 .66 21.77 0 22.75 L 0 28 C 0 28.1 0 28.2 .03 28.26 C .07 28.34 .1 28.4 .16 28.5 C .3 28.74 .55 29.03 .86 29.33 C 1.07 29.54 1.3 29.75 1.6 29.96 C 1.73 30 1.86 30 2 30 L 8.3 30 C 8.26 29.97 8.3 29.94 8.36 29.9 C 8.5 29.83 8.64 29.76 8.77 29.5 C 8.8 29.4 8.8 29.24 8.8 29.1 C 8.9 29.1 8.97 29.14 9.03 29.1 C 9.33 28.96 9.6 28.7 9.87 28.35 C 10.34 27.75 10.6 26.93 10.7 26.03 C 10.8 24.97 10.6 23.8 10 22.85 C 10.1 22.7 10.2 22.54 10.26 22.4 C 10.36 22.2 10.46 22.05 10.5 21.83 C 10.54 21.7 10.56 21.55 10.53 21.36 C 10.5 21.17 10.37 20.9 10.13 20.76 C 9.97 20.67 9.75 20.63 9.57 20.67 C 9.5 20.7 9.5 20.7 9.43 20.74 C 9.43 20.7 9.4 20.63 9.4 20.57 C 9.4 20.4 9.43 20.23 9.4 20 C 9.33 19.77 9.2 19.4 8.75 19.25 C 8.66 19.2 8.57 19.2 8.46 19.2 z M 7.65 20 C 7.65 20 7.65 20 7.65 20.03 C 7.65 20.03 7.65 20.03 7.64 20.03 L 7.65 20 z " fill="#fcfcfc"/><path d="m 5.16,20.84 c -.4,0 -2.03,.1 -2.8,1.17 -.7,1 -.2,4.2 .2,5.2 .1,.24 .47,-.2 .47,-.2 0,0 -.3,-2.24 1.1,-1.9 1.75,.4 -.26,2.75 -.26,2.75 -.23,.4 -.54,.2 -.8,-.23 0,0 .15,1.7 .94,2.37 H 5.87 C 7.7,29.36 10.36,27.6 9.96,24.74 9.47,21.26 5.25,20.84 5.25,20.84 c 0,0 -.03,-0 -.1,0 z" fill="#01195f"/><path d="m 7.67,25.2 1.14,.83 1.26,-.04 C 10.17,24.97 10,23.87 9.44,23.05 8.4,21.56 7.44,23.7 7.44,23.7 c 0,0 .3,.9 .2,1.47 z" fill="#43a6fa"/><path d="m 1.67,29 c 0,0 -1.37,-1.14 -1.57,-2.3 C -.1,25.55 -.1,24.04 .5,23.1 1.1,22.2 2.43,21.27 3.56,21 4.7,20.7 5.25,20.84 5.25,20.84 c 0,0 -1.9,.3 -2.3,1.53 -.4,1.2 .33,2.33 0,3.54 -.3,1.2 -.53,1.77 -.53,1.77 z" fill="#43a6fa"/><path d="M 6.37,20.5 C 5.8,20.5 5.35,20.6 5.25,20.8 4.1,22.93 7.5,23.4 4.6,26.45 2.6,28.53 4.74,29.3 5.77,30 H 6.53 C 6.9,29.6 7,29 6.7,28.07 5.9,25.83 6.2,24.6 7.46,24.23 8.7,23.87 9.6,23.1 8.96,21.67 8.55,20.8 7.3,20.46 6.37,20.5 Z M 2.25,25.5 c -0,-8.25e-4 -.03,1.59e-4 -.05,0 -.57,.1 .35,1.7 -.07,2.1 C 1.7,28 1.9,26.74 1.3,27 .7,27.2 1.74,28.24 1.5,28.47 1.2,28.74 .8,27.6 .53,27.8 .4,27.9 1.33,29.26 2.9,30 H 5.75 C 2.87,29 3.27,26.9 3.1,26.86 2.93,26.8 2.93,27.2 2.8,27.2 2.4,27.25 2.74,25.55 2.25,25.5 Z" fill="#a2cefb"/><circle cx="14.16" cy="23.07" fill="#43a6fa" id="path16506-3" r=".45" stop-color="#000000" transform="rotate(22.94)"/><path d="M 7.3,29.76 C 7.84,29.47 8.43,29.27 8.17,29.05 7.9,28.84 7.67,29.4 7.27,29.5 6.87,29.6 6.3,29.4 6.2,29.8 6.1,30.1 6.76,30.04 7.3,29.76 Z" fill="#43a6fa"/><path d="m 7.67,25.2 c -.03,.17 -.1,.3 -.2,.4 -.5,.35 -1.16,-.6 -1.67,-.07 -.5,.5 .54,1.35 1.3,1.1 C 7.9,26.34 7.74,27.37 6.4,27.15 5.04,26.93 4.8,26.5 4.7,27.46 c -.2,.95 1.87,.6 2.2,.4 .33,-.2 .8,-.3 .85,-.17 .06,.1 -.7,.4 -.54,.6 .2,.2 1.36,-1.24 1.66,-.86 .3,.4 -.54,.46 -.54,.85 0,.4 .4,.73 1.16,-.27 .35,-.45 .6,-1.2 .7,-2 z" fill="#43a6fa"/><path d="M 5.95,21.35 C 6.26,21.05 7.06,20.7 7.3,21.24 7.55,21.76 6.86,22 6.5,22 6.2,22 5.8,21.57 5.95,21.35 Z" fill="#01195f"/><path d="m 8.2,20.43 c 0,0 .07,-.7 .4,-.6 .3,.1 .2,.87 .2,.87 z" fill="#43a6fa"/><path d="m 8.4,21.37 c 0,0 -.46,-1 -.1,-1.1 .34,-.1 .56,.2 .54,.6 -0,.4 -.13,.87 -.13,.87 z" fill="#a2cefb"/><path d="m 9.3,21.8 c 0,0 .23,-.64 .5,-.5 .27,.16 -.07,.86 -.23,.95 -.16,.1 -.27,-.47 -.27,-.47 z" fill="#43a6fa"/><path d="m 9.03,22.26 c 0,0 .3,-.84 .57,-.75 .25,.1 .13,.8 -.1,1.04 -.24,.25 -.57,.33 -.57,.33 z" fill="#a2cefb"/><path d="m 6.75,21.3 a .5,.5 0 0 0 -.7,.27 .5,.5 0 0 0 -.04,.17 c .04,.05 .1,.1 .15,.14 a .4,.4 0 0 1 0,-.25 .4,.4 0 0 1 .5,-.2 .4,.4 0 0 1 .2,.5 .4,.4 0 0 1 -0,.03 c .06,-0 .1,-.04 .17,-.07 A .5,.5 0 0 0 6.75,21.3 Z" fill="#43a6fa" stop-color="#000000"/><path d="M 18 0 C 15 0 15 2 12 2 L 11.9 2 L 10.84 5.9 C 10.6 6.8 11.13 7.74 12.04 8 L 19 9.8 C 19.8 10.07 20.74 9.53 21 8.6 L 22.8 1.76 C 23 1.1 22.75 .4 22.25 0 L 18 0 z " fill="#fcfcfc" id="rect33149" stop-color="#000000"/><path d="M 18 0 C 15.25 0 15 1.7 12.67 1.96 L 11.6 5.93 C 11.45 6.53 11.8 7.15 12.4 7.3 L 18.93 9.05 C 19.53 9.2 20.14 8.86 20.3 8.26 L 22.05 1.74 C 22.2 1.14 21.86 .5 21.26 .36 L 19.9 0 L 18 0 z M 17.1 .53 L 18.2 .7 L 17.7 2.7 L 19.6 1.15 L 20.7 1.7 L 18.7 3.23 L 19.63 5.66 L 18.5 5.7 L 17.53 3.2 L 17 5.1 L 15.9 5 L 17.1 .53 z M 15.45 1.15 C 15.45 1.15 15.46 1.15 15.47 1.15 C 15.5 1.15 15.5 1.16 15.5 1.17 L 16.17 1.9 C 16.3 1.9 16.5 1.87 16.5 1.86 L 16.5 2.3 C 15.73 2.4 15.15 2.9 14.96 3.6 C 14.7 4.56 15.27 5.53 16.2 5.8 C 16.9 5.97 17.6 5.74 18 5.26 C 18.15 5.67 18.27 6 18.27 6 C 18.27 6 18.3 6 18.3 6 L 18.5 6 L 18.56 6.56 C 18.57 6.6 18.56 6.6 18.54 6.63 L 18 6.94 C 17.97 6.95 17.95 6.95 17.93 6.93 L 17.27 6.2 C 17.1 6.25 16.9 6.3 16.7 6.3 L 16.23 7.1 C 16.2 7.14 16.2 7.16 16.17 7.15 L 15.56 7 C 15.54 7 15.5 6.96 15.5 6.93 L 15.6 6 C 15.4 5.9 15.26 5.76 15.1 5.63 L 14.2 5.9 C 14.16 5.9 14.14 5.9 14.1 5.9 L 13.8 5.34 C 13.8 5.3 13.8 5.3 13.8 5.27 L 14.55 4.6 C 14.5 4.43 14.47 4.2 14.5 4 L 13.65 3.56 C 13.63 3.55 13.6 3.5 13.6 3.5 L 13.8 2.9 C 13.8 2.87 13.8 2.85 13.84 2.85 L 14.8 2.9 C 14.9 2.75 15 2.6 15.14 2.5 L 14.87 1.53 C 14.86 1.5 14.87 1.5 14.9 1.47 L 15.43 1.16 C 15.43 1.15 15.44 1.15 15.45 1.15 z " fill="#3daefd"/><path d="M 32,0 C 30.7,1.6 30.23,3.7 30.76,5.67 31.67,9.07 35.16,11.1 38.56,10.2 39.93,9.8 41.14,9 42,7.86 V 4 2 C 42,1 41.1,0 40,0 Z" fill="#fcfcfc" stop-color="#000000"/><path d="M 33,0 C 31.6,1.37 30.94,3.44 31.5,5.47 32.3,8.5 35.37,10.26 38.37,9.45 40.03,9 41.3,7.86 42,6.4 V 4 2 C 42,.9 41.07,0 40,0 h -.7 c 1,.6 1.8,1.6 2.14,2.8 .1,.4 .15,.77 .15,1.15 L 38.8,2.15 36.9,6 37.5,3 36.5,2 33.83,7.5 C 33.16,6.93 32.65,6.15 32.4,5.23 31.85,3.16 32.8,1.04 34.54,0 Z" fill="#dc682e" id="XMLID_9_"/><path color="#000000" d="M 40.3 3.96 C 40.06 4 39.86 4.1 39.75 4.3 L 38.27 6.8 C 38.1 6.8 37.9 6.87 37.8 7 L 37.4 7.47 C 37.25 7.6 37.2 7.8 37.2 8 C 36.3 7.8 35.37 7.87 34.44 8.14 C 34.4 8 34.35 7.9 34.25 7.8 L 33.56 7.04 C 33.07 6.5 32.2 6.9 32.26 7.6 L 32.4 9.2 C 31 10.55 30.17 12.56 30.8 14.53 C 30.83 14.57 30.85 14.6 30.87 14.65 C 31.4 15.66 32.4 16.3 33.47 16.56 C 33.46 16.66 33.4 16.8 33.4 16.86 C 33.4 17.03 33.46 17.15 33.5 17.25 C 33.6 17.46 33.9 18.14 34.4 18.3 C 33.95 18.8 33.5 19.4 33.24 20.14 C 33.2 20.27 32.97 21.4 33 21.56 C 33 21.73 33.05 22 33.24 22.2 C 33.44 22.4 33.7 22.45 33.9 22.46 C 34.1 22.47 34.27 22.44 34.44 22.4 C 34.94 22.27 35.36 22.1 35.7 22.03 C 36.06 21.95 36.4 21.94 36.6 22.04 C 36.65 22.07 36.7 22.1 36.8 22.1 C 37.47 22.15 38.2 22.14 38.96 22.06 C 39.6 22.64 40.33 23 40.6 23.4 C 40.67 23.45 41.14 23.75 41.4 23.75 C 41.6 23.76 41.83 23.66 42 23.54 L 42 16.3 C 41.4 16.5 40.87 16.7 40.35 16.86 C 40.3 16.86 40.4 16.87 40.27 16.9 C 40 17 40.07 16.94 40.04 16.9 C 40 16.84 40.2 16.03 40.2 15.9 C 40.65 16 41.15 16 41.7 15.8 L 41.7 15.8 C 41.8 15.76 41.9 15.7 42 15.7 L 42 13 L 42 4.36 C 41.2 4.13 40.3 3.95 40.3 3.96 z " fill="#fcfcfc" fill-rule="evenodd"/><path d="m 37.95,7.96 .4,-.5 2.03,-2.77 -.1,1.57 -.6,1.83 -.46,.5 -.57,.7 c 0,0 -.2,-.03 -.44,-.1 C 38,9.2 37.95,7.96 37.95,7.96 Z" fill="#ffa92d" fill-rule="evenodd"/><path d="m 33.5,9 .2,-.7 -.7,-.75 .15,1.85 z" fill="#ffa92d" fill-rule="evenodd"/><path d="M 42 10.3 C 40.8 11.3 39.25 12.9 39.1 14.5 L 39.1 14.5 C 39.1 14.5 40.05 15.6 41.44 15.1 C 41.6 15.03 41.8 14.96 42 14.9 L 42 13 L 42 10.3 z " fill="#f58273" fill-rule="evenodd"/><path d="M 42 5.2 C 41.94 5.2 41.9 5.24 41.8 5.27 C 41.07 5.7 41.3 7.03 40.8 7.4 C 40.4 6.73 39.45 7.33 40 8 C 40.43 8.6 39.8 10.05 39.07 9.3 C 37.3 8.5 35.06 8.06 33.4 9.3 C 31.87 10.4 30.9 12.45 31.53 14.3 C 32.24 15.6 33.9 16.25 35.3 15.86 C 35.07 16.3 35.2 16.75 34.7 16.25 C 34.5 16.47 34.9 17.05 34.36 16.63 C 33.66 16.86 34.93 17.36 34.7 17.7 C 34.9 18.1 36.3 17.27 35.56 18.03 C 34.93 18.9 34 19.7 33.9 20.83 C 33.6 21.3 33.7 22 34.4 21.6 C 35.4 21.2 36.4 21.17 37.44 21.4 C 38.36 21.47 39.3 21.07 39.95 21.93 C 40.56 22.1 40.97 23 41.55 22.94 C 41.86 22.16 41.07 21.2 41.57 20.55 C 41.73 20.54 41.87 20.5 42 20.46 L 42 17.1 C 41.35 17.33 40.7 17.6 40 17.67 C 38.7 17.4 39.5 15.94 39.6 15.1 C 39.7 14.06 39.85 13.06 40.7 12.37 C 41.13 11.84 41.6 11.3 42 10.8 L 42 5.2 z " fill="#3cb867" fill-rule="evenodd"/><path d="m 35.1,14.5 c 0,0 .2,.7 .7,1.13 .5,.4 1.4,.57 1.4,.57 0,0 .3,-1.57 .7,-2.45 .4,-.9 .9,-2.14 .9,-2.14 0,0 -1.75,.77 -2.45,1.4 -.7,.64 -1.2,1.47 -1.2,1.47 z" fill="#f58273" fill-rule="evenodd"/><path color="#000000" d="m 23.64,16.37 c -.04,0 -.14,.05 -.14,.05 -.1,.03 -.15,.1 -.2,.14 -.1,.1 -.2,.26 -.23,.44 -.03,.2 0,.35 .07,.45 .1,.2 .2,.25 .25,.3 .1,.1 .2,.1 .25,.13 .14,.06 .3,.1 .5,.16 .4,.1 .96,.2 1.7,.3 .6,.1 1.4,.3 2.05,.56 .26,.1 .45,.2 .6,.3 -.13,.63 -.1,1.35 .2,2.2 -0,.04 -.03,.06 -.07,.13 -.06,.1 -.14,.24 -.2,.4 -.06,.2 -.1,.47 0,.8 0,0 0,0 0,0 .1,.2 .4,.44 .6,.5 .05,0 .05,-0 .1,-0 0,.07 0,.14 .06,.25 .07,.16 .3,.46 .67,.5 0,0 .03,0 .05,0 .33,0 .43,-.1 .5,-.16 .07,-.05 .1,-.1 .14,-.13 .07,-.07 .1,-.14 .2,-.2 .1,-.15 .23,-.3 .34,-.5 .1,-.15 .2,-.3 .26,-.4 .9,-.04 1.8,-.2 2.5,-.4 .4,-.13 .76,-.26 1,-.37 .1,-.04 .7,-0 .9,0 .25,.03 .5,.07 .7,.1 .1,0 .2,0 .33,0 .06,-0 .1,-0 .2,-.03 .1,-0 .23,-.03 .43,-.25 .04,-.05 .1,-.1 .1,-.15 .1,-.2 -0,-.4 -.06,-.65 .03,-0 .05,-0 .1,-0 .07,-0 .16,-.04 .3,-.13 .13,-.1 .3,-.3 .34,-.56 0,-0 0,-.03 0,-.04 0,-.43 -.2,-.64 -.3,-.8 -.14,-.14 -.27,-.24 -.4,-.3 -.03,-0 .4,-.45 .65,-.7 .26,-.25 .5,-.5 .7,-.8 .2,-.3 .45,-.73 .2,-1.3 -.2,-.53 -.7,-.84 -1.14,-1 -.44,-.14 -.9,-.17 -1.3,-.17 -.34,0 -.64,.03 -.9,.06 -.04,-.1 -.06,-.2 -.1,-.33 -.1,-.24 -.24,-.5 -.57,-.73 -.33,-.23 -.95,-.2 -1.3,.05 -.2,.13 -.2,.34 -.26,.54 -.07,-0 -.1,-.05 -.2,-.05 -.2,0 -.46,.1 -.6,.24 -0,0 -0,0 -0,0 -.27,.26 -.4,.65 -.4,.95 0,.3 .1,.5 .2,.7 .05,.1 .1,.17 .13,.25 -0.01,.05 -.1,.14 -.1,.2 -9.68e-4,0 -7.16e-4,0 -0,0 -.16,.04 -.4,.1 -.7,.1 -.6,.06 -1.24,.07 -1.73,.17 l -0,3.88e-4 c -.4,.1 -.6,.3 -.8,.44 -.84,-.45 -2.07,-1 -3.47,-.97 -0,5.2e-5 -0,-6.06e-4 -0,-5.5e-4 -.3,-0 -.8,-.07 -1.17,-.13 -.2,-.03 -.4,-.07 -.5,-.1 -.07,-0 -.13,-0 -.2,-.03 -.03,-0 -.05,-0 -.1,-0 -0,-0 -.04,-0 -.1,-0 -0,1.02e-4 -.05,0 -.1,0 -0,0 -.05,0 -.1,0 z" fill="#fcfcfc"/><path d="m 23.8,17.1 c -.06,.06 .7,.3 2.1,.5 1.4,.2 3.44,1 3.36,1.26 -.25,.7 -.3,1.4 .17,2.54 .1,.2 -.46,.7 -.33,1 .1,.2 .65,-.4 .75,-.35 .1,.15 -.1,1.1 .1,1.1 .13,0 .9,-1.3 .97,-1.3 1.87,.06 4,-.94 4.06,-.97 -0,-0 1.83,.33 1.94,.2 .25,-.5 -.93,-.75 -.8,-1 .04,-.13 1.37,.1 1.4,-.07 0,-.3 -.76,-.65 -.9,-.8 -.1,-.1 -.2,-.36 -.03,-.56 .17,-.2 2.1,-1.6 1.86,-2.24 -.47,-1.13 -3.1,-.5 -3.16,-.6 -.03,-.04 -.33,-1.7 -1,-1.2 -.4,.3 .24,1.23 .3,1.36 .06,.1 -.2,.17 -.24,.1 -.13,-.1 -.75,-1.1 -1.1,-.8 -.46,.44 .3,1.24 .2,1.3 -.17,.17 -.1,.44 -.2,.7 -.16,.45 -2.4,.43 -2.95,.56 -.5,.1 -.8,.6 -.9,.57 -.73,-.4 -2.2,-1.1 -3.56,-1.1 -.8,-0 -2,-.3 -2.05,-.27 z" fill="#020202" stroke="#000002" stroke-width="0.0834361pt"/><path d="m 27.7,20.1 c -.36,0 -.73,.1 -1.06,.3 L 25.36,21.17 c -1.1,.6 -1.45,2 -.8,3.07 l .4,.65 -.65,.4 c -1.1,.6 -1.45,2 -.8,3.07 l .75,1.3 c .1,.13 .16,.25 .26,.36 h 9.03 c .4,-.67 .43,-1.53 0,-2.26 l -.4,-.65 .65,-.4 c 1.1,-.6 1.45,-2 .8,-3.07 l -.75,-1.3 c -.6,-1.1 -2,-1.45 -3.07,-.8 l -.65,.4 -.4,-.65 c -.43,-.74 -1.2,-1.15 -2,-1.13 z" fill="#fcfcfc" id="rect3048" stop-color="#000000" stroke-opacity=".2"/><path d="m 32.2,22.6 c -.24,0 -.5,.07 -.7,.2 l -.65,.4 .4,.65 c .4,.7 .17,1.63 -.55,2.05 l -2.6,1.5 c -.36,.2 -.5,.67 -.27,1.03 L 28.7,30 h 3.8 c .54,-.46 .7,-1.25 .33,-1.9 l -.4,-.65 -1.6,.94 c -.2,.1 -.4,.04 -.5,-.14 -.1,-.2 -.07,-.5 .14,-.5 l 2.9,-1.7 c .7,-.4 .96,-1.33 .55,-2.05 L 33.55,23.36 C 33.27,22.87 32.74,22.6 32.2,22.6 Z m -.15,6 c .1,0 .23,.1 .3,.2 .1,.17 .05,.4 -.1,.5 -0,0 -0,0 -0,0 -.2,.1 -.4,.04 -.5,-.14 -.1,-.17 -.05,-.4 .1,-.5 0,-0 0,-0 0,-0 .07,-.04 .14,-.05 .2,-.05 z" fill="#ffe32b" stop-color="#000000"/><path d="m 27.74,20.87 c -.24,0 -.5,.07 -.7,.2 l -1.3,.75 c -.7,.4 -.96,1.33 -.55,2.05 l .4,.65 1.6,-.94 c .2,-.1 .4,-.04 .5,.14 .1,.2 .04,.4 -.14,.5 l -1.6,.94 -1.3,.75 c -.7,.4 -.96,1.33 -.55,2.05 l .75,1.3 C 25.1,29.7 25.5,29.94 25.93,30 h .4 c .2,-.03 .37,-.1 .55,-.2 l .65,-.4 -.4,-.65 c -.4,-.7 -.17,-1.63 .55,-2.05 l 1.3,-.75 1.3,-.75 c .36,-.2 .5,-.67 .3,-1.03 l -.4,-.65 -1.13,-1.95 c -.3,-.5 -.8,-.77 -1.34,-.75 z m -1.75,1.74 c .1,0 .23,.1 .3,.2 .1,.2 .04,.4 -.14,.5 -.2,.1 -.4,.04 -.5,-.14 -.1,-.17 -.05,-.4 .1,-.5 0,-0 0,-0 0,-0 .07,-.04 .14,-.05 .2,-.05 z" fill="#3daefd" id="rect940" stop-color="#000000"/><path d="M 37.84 19.14 C 37.1 19.14 36.36 19.27 35.64 19.57 C 32.77 20.76 31.4 24.06 32.6 26.93 C 33.2 28.4 34.34 29.45 35.7 30 L 39.9 30 C 39.9 30 39.94 30 39.95 30 C 40.7 29.67 41.36 29.2 41.9 28.65 C 41.95 28.45 42 28.23 42 28 L 42 21 C 40.94 19.84 39.4 19.15 37.84 19.14 z " fill="#fcfcfc"/><path d="M 37.83 19.9 C 37.2 20 36.56 20 35.94 20.3 C 33.45 21.3 32.27 24.15 33.4 26.64 C 34.33 29.1 37.2 30.3 39.66 29.27 C 40.7 28.85 41.5 28.1 42 27.23 L 42 22.3 C 41.1 20.8 39.5 19.9 37.83 19.9 z M 38.8 20.93 C 39.6 20.9 39.07 22.83 38.43 23.1 C 37.74 23.4 37.24 21.5 38.5 21 C 38.6 20.96 38.7 20.93 38.8 20.93 z M 36.76 22 C 37.3 21.95 37.4 23.3 37.06 23.4 C 36.7 23.54 35.93 22.4 36.6 22.04 C 36.6 22.03 36.63 22 36.65 22 C 36.7 22 36.73 22 36.76 22 z M 35.74 22.97 C 36.13 22.97 36.47 23.93 36.23 24.1 C 35.94 24.3 35.07 23.54 35.53 23.07 C 35.56 23.04 35.6 23 35.63 23 C 35.64 23 35.65 23 35.66 23 C 35.7 23 35.7 22.97 35.74 22.97 z M 38.67 23.46 C 38.9 23.5 39.1 23.57 39.2 23.74 C 39.9 24.85 37.03 26.55 38.54 26.94 C 39 27.07 39.3 26.7 39.06 26.3 C 38.87 25.97 40.07 25.2 40.2 25.8 C 40.35 26.55 39.87 27.4 39.26 27.66 C 38 28.2 36.2 27.2 36 26.07 C 35.8 25 36.9 24 37.86 23.6 C 38.15 23.5 38.43 23.45 38.67 23.46 z M 35.1 24.1 C 35.47 24.1 35.9 24.8 35.73 25 C 35.5 25.23 34.6 24.73 34.9 24.23 C 34.96 24.17 35 24.13 35.06 24.1 C 35.1 24.1 35.1 24.1 35.1 24.1 z " fill="#0087ed"/></g><use fill="url(#uND)" href="#uNF" opacity=".1"></use><path d="m 21,12 c -3,0 -3,2 -6,2 H 5 c -1.1,0 -2,.9 -2,2 v 24 c 0,1.1 .9,2 2,2 h 38 c 1.1,0 2,-.9 2,-2 V 25 16 14 c 0,-1.1 -.9,-2 -2,-2 z" fill="url(#uNC)" opacity=".2"/><path class="ColorScheme-Contrast" d="m 3,39 v 1 c 0,1.1 .9,2 2,2 h 38 c 1.1,0 2,-.9 2,-2 v -1 c 0,1.1 -.9,2 -2,2 H 5 C 3.9,41 3,40.1 3,39 Z" fill="currentColor" opacity=".1"/><path class="ColorScheme-Contrast" d="M 3,39.5 V 40 c 0,1.1 .9,2 2,2 h 38 c 1.1,0 2,-.9 2,-2 v -0.5 c 0,1.1 -.9,2 -2,2 H 5 c -1.1,0 -2,-.9 -2,-2 z" fill="currentColor" opacity=".2"/><path d="m 21,12 c -3,0 -3,2 -6,2 H 5 c -1.1,0 -2,.9 -2,2 v 1 c 0,-1.1 .9,-2 2,-2 h 10 c 3,0 3,-2 6,-2 h 22 c 1.1,0 2,.9 2,2 v -1 c 0,-1.1 -.9,-2 -2,-2 z" fill="#fff" opacity=".1"/><path d="m 21,12 c -3,0 -3,2 -6,2 H 5 c -1.1,0 -2,.9 -2,2 v 0.5 c 0,-1.1 .9,-2 2,-2 h 10 c 3,0 3,-2 6,-2 h 22 c 1.1,0 2,.9 2,2 V 14 c 0,-1.1 -.9,-2 -2,-2 z" fill="#fff" opacity=".2"/><path d="m 21,11 c -3,0 -3,2 -6,2 H 5 v 1 h 10 c 3,0 3,-2 6,-2 h 22 v -1 z" opacity=".1"/><path d="m 21,11.5 c -3,0 -3,2 -6,2 H 5 V 14 h 10 c 3,0 3,-2 6,-2 h 22 v -0.5 z" opacity=".2"/></g>
</svg>