<?xml version="1.0" encoding="utf-8"?><svg height="48" width="48" xmlns="http://www.w3.org/2000/svg" xmlns:svg="http://www.w3.org/2000/svg" xmlns:xlink="http://www.w3.org/1999/xlink"><defs id="primary-definitions"><style id="current-color-scheme" type="text/css">.ColorScheme-Text           { color:#fff; }
      .ColorScheme-Background     { color:#111; }
      .ColorScheme-Highlight      { color:#3daefd; }
      .ColorScheme-ViewBackground { color:#000; }
      .ColorScheme-PositiveText   { color:#27ae60; }
      .ColorScheme-NeutralText    { color:#f67400; }
      .ColorScheme-NegativeText   { color:#da4453; }
  </style><style id="extended-color-scheme" type="text/css">.ExScheme-Black     { color:#3e3e3e; }
      .ExScheme-White     { color:#fcfcfc; }
      .ExScheme-Grey-1    { color:#cfd5d5; }
      .ExScheme-Grey-2    { color:#909c9c; }
      .ExScheme-Grey-3    { color:#536161; }
      .ExScheme-Red-1     { color:#ffafa5; }
      .ExScheme-Red-2     { color:#bf4231; }
      .ExScheme-Red-3     { color:#4d2f2b; }
      .ExScheme-Green-1   { color:#abf9c7; }
      .ExScheme-Green-2   { color:#3bb566; }
      .ExScheme-Green-3   { color:#377d50; }
      .ExScheme-Blue-1    { color:#abdaf9; }
      .ExScheme-Blue-2    { color:#3daefd; }
      .ExScheme-Blue-3    { color:#2b3c4d; }
      .ExScheme-Yellow-1  { color:#faffa5; }
      .ExScheme-Yellow-2  { color:#cac726; }
      .ExScheme-Yellow-3  { color:#4b4d2b; }
      .ExScheme-Orange-1  { color:#ffdaa5; }
      .ExScheme-Orange-2  { color:#ff9701; }
      .ExScheme-Orange-3  { color:#4d372b; }
      .ExScheme-Brown-1   { color:#e9d6bb; }
      .ExScheme-Brown-2   { color:#997657; }
      .ExScheme-Brown-3   { color:#433a35; }
      .ExScheme-Purple-1  { color:#e2abf9; }
      .ExScheme-Purple-2  { color:#b401ff; }
      .ExScheme-Purple-3  { color:#432b4d; }
      .ExScheme-Cyan-1    { color:#b2f2e6; }
      .ExScheme-Cyan-2    { color:#31bfa6; }
      .ExScheme-Cyan-3    { color:#2b4d47; }
      .ExScheme-Magenta-1 { color:#f8a6d8; }
      .ExScheme-Magenta-2 { color:#f00091; }
      .ExScheme-Magenta-3 { color:#770048; }
  </style><linearGradient id="gradientDark"><stop offset="0"/><stop offset="1" stop-opacity="0"/></linearGradient><linearGradient id="gradientLight"><stop offset="0" stop-color="#fff"/><stop offset="1" stop-color="#fff" stop-opacity="0"/></linearGradient><style class="toggle-enable-crease" type="text/css">.folder-crease { display: none; }
  </style><style class="toggle-manilla-folders" type="text/css">.folder-manilla { display: none; }
  </style><radialGradient cx=".5" cy="0" id="gl1" r="1" xlink:href="#gradientLight"/><linearGradient id="gd1" xlink:href="#gradientDark" y1="1" y2=".5"/><path d="M 7,6 C 5.892,6 5,6.892 5,8 v 2 4 c -1.108,0 -2,0.892 -2,2 v 24 c 0,1.108 0.892,2 2,2 h 38 c 1.108,0 2,-0.892 2,-2 V 25 16 14 c 0,-1.108 -0.892,-2 -2,-2 V 10 C 43,8.892 42.108,8 41,8 H 21 C 18,8 18,6 15,6 Z" id="use-path-8p"/><path d="M 7,6 C 5.892,6 5,6.892 5,8 v 2 4 h 10 c 3,0 3,-2 6,-2 H 43 V 10 C 43,8.892 42.108,8 41,8 H 21 C 18,8 18,6 15,6 Z" id="use-path-8q"/></defs><g id="content"><namedview bordercolor="#666666" borderopacity="1.0" current-layer="svg49" cx="24" cy="24" pagecheckerboard="0" pagecolor="#fff" pageopacity="0.0" pageshadow="2" showgrid="true" window-height="1017" window-maximized="1" window-width="1920" window-x="0" window-y="0" zoom="13.25"><grid type="xygrid"/></namedview><use class="folder-manilla ExScheme-Brown-1" fill="currentColor" href="#use-path-8p"/><use class="toggle-manilla-folders ColorScheme-Highlight" fill="currentColor" href="#use-path-8p" id="primary-color"/><use class="ColorScheme-Text" fill="currentColor" href="#use-path-8p" opacity=".1"/><g id="emblem" transform="translate(12,15)"><path class="ColorScheme-Background" d="M 12 2 A 10 10 0 0 0 2 12 A 10 10 0 0 0 12 22 A 10 10 0 0 0 22 12 A 10 10 0 0 0 12 2 z M 12.994 3.057 A 9 9 0 0 1 20.943 11.006 C 20.417 11.036 20 11.466 20 12 C 20 12.53 20.41 12.955 20.93 12.992 A 9 9 0 0 1 12.992 20.93 C 12.955 20.41 12.53 20 12 20 C 11.47 20 11.045 20.41 11.008 20.93 A 9 9 0 0 1 3.07 12.992 C 3.59 12.955 4 12.53 4 12 C 4 11.47 3.59 11.045 3.07 11.008 A 9 9 0 0 1 11.008 3.07 C 11.045 3.59 11.47 4 12 4 C 12.534 4 12.964 3.583 12.994 3.057 z M 14.676 5.033 C 14.48 5.034 14.296 5.15 14.217 5.342 L 11.87 11.01 A 1 1 0 0 0 11 12 A 1 1 0 0 0 11.805 12.98 L 13.992 15.828 C 14.245 16.158 14.713 16.23 15.043 15.967 C 15.373 15.714 15.435 15.246 15.182 14.916 L 12.996 12.064 A 1 1 0 0 0 13 12 A 1 1 0 0 0 12.793 11.393 L 15.14 5.725 C 15.247 5.47 15.127 5.176 14.87 5.07 C 14.807 5.044 14.74 5.033 14.676 5.033 z " fill="currentColor" opacity=".6"/><path class="ColorScheme-Background" d="M 12 2 A 10 10 0 0 0 2 12 A 10 10 0 0 0 12 22 A 10 10 0 0 0 22 12 A 10 10 0 0 0 12 2 z M 12 2.5 C 12.265 2.5 12.488 2.63 12.748 2.65 A .5 .5 0 0 0 12.494 3.027 C 12.48 3.298 12.275 3.5 12 3.5 C 11.728 3.5 11.525 3.303 11.506 3.035 A .5 .5 0 0 0 11.227 2.656 C 11.495 2.634 11.726 2.5 12 2.5 z M 12.994 3.057 A 9 9 0 0 1 20.943 11.006 C 20.417 11.036 20 11.466 20 12 C 20 12.53 20.41 12.955 20.93 12.992 A 9 9 0 0 1 12.992 20.93 C 12.955 20.41 12.53 20 12 20 C 11.47 20 11.045 20.41 11.008 20.93 A 9 9 0 0 1 3.07 12.992 C 3.59 12.955 4 12.53 4 12 C 4 11.47 3.59 11.045 3.07 11.008 A 9 9 0 0 1 11.008 3.07 C 11.045 3.59 11.47 4 12 4 C 12.534 4 12.964 3.583 12.994 3.057 z M 8.71 3.197 C 8.596 3.226 8.48 3.257 8.37 3.293 C 8.37 3.293 8.37 3.29 8.37 3.29 C 8.483 3.255 8.596 3.226 8.71 3.197 z M 15.352 3.207 C 15.543 3.254 15.732 3.305 15.91 3.387 C 15.733 3.306 15.544 3.254 15.352 3.207 z M 14.676 5.033 C 14.48 5.034 14.296 5.15 14.217 5.342 L 11.87 11.01 A 1 1 0 0 0 11 12 A 1 1 0 0 0 11.805 12.98 L 13.992 15.828 C 14.245 16.158 14.713 16.23 15.043 15.967 C 15.373 15.714 15.435 15.246 15.182 14.916 L 12.996 12.064 A 1 1 0 0 0 13 12 A 1 1 0 0 0 12.793 11.393 L 15.14 5.725 C 15.247 5.47 15.127 5.176 14.87 5.07 C 14.807 5.044 14.74 5.033 14.676 5.033 z M 20.613 8.09 C 20.695 8.268 20.746 8.457 20.793 8.648 C 20.746 8.456 20.694 8.267 20.613 8.09 z M 3.293 8.37 C 3.257 8.48 3.226 8.596 3.197 8.71 C 3.226 8.596 3.257 8.48 3.293 8.37 z M 12.33 11.203 A .5 .5 0 0 0 12.396 11.697 C 12.463 11.784 12.5 11.89 12.5 11.998 C 12.5 12.005 12.5 12.01 12.498 12.018 A .5 .5 0 0 0 12.6 12.37 L 14.785 15.22 C 14.875 15.338 14.856 15.48 14.738 15.57 C 14.62 15.66 14.48 15.64 14.39 15.523 L 12.2 12.674 A .5 .5 0 0 0 11.902 12.488 C 11.666 12.44 11.5 12.24 11.5 11.998 C 11.5 11.744 11.682 11.54 11.934 11.506 A .5 .5 0 0 0 12.33 11.203 z M 2.656 11.227 A .5 .5 0 0 0 3.035 11.506 C 3.303 11.525 3.5 11.728 3.5 12 C 3.5 12.272 3.303 12.475 3.035 12.494 A .5 .5 0 0 0 2.656 12.773 C 2.634 12.505 2.5 12.274 2.5 12 C 2.5 11.726 2.634 11.495 2.656 11.227 z M 21.354 11.27 C 21.374 11.523 21.5 11.74 21.5 12 C 21.5 12.264 21.37 12.486 21.35 12.744 A .5 .5 0 0 0 20.965 12.494 C 20.697 12.475 20.5 12.272 20.5 12 C 20.5 11.725 20.702 11.52 20.973 11.506 A .5 .5 0 0 0 21.354 11.27 z M 3.197 15.29 C 3.226 15.404 3.257 15.52 3.293 15.63 C 3.293 15.63 3.29 15.63 3.29 15.63 C 3.255 15.517 3.226 15.404 3.197 15.29 z M 20.803 15.29 C 20.774 15.404 20.743 15.52 20.707 15.63 C 20.743 15.52 20.774 15.404 20.803 15.29 z M 12 20.5 C 12.272 20.5 12.475 20.697 12.494 20.965 A .5 .5 0 0 0 12.773 21.344 C 12.505 21.366 12.274 21.5 12 21.5 C 11.726 21.5 11.495 21.366 11.227 21.344 A .5 .5 0 0 0 11.506 20.965 C 11.525 20.697 11.728 20.5 12 20.5 z M 8.37 20.707 C 8.48 20.743 8.596 20.774 8.71 20.803 C 8.596 20.774 8.48 20.743 8.37 20.707 z M 15.63 20.707 C 15.63 20.707 15.63 20.71 15.63 20.71 C 15.517 20.745 15.404 20.774 15.29 20.803 C 15.404 20.774 15.52 20.743 15.63 20.707 z " fill="currentColor" opacity=".6"/></g><use href="#use-path-8q" opacity=".4"/><use class="toggle-flat-design" fill="url(#gd1)" href="#use-path-8q" opacity=".1"/><path class="toggle-flat-design" d="m 21,12 c -3,0 -3,2 -6,2 H 5 c -1.108,0 -2,0.892 -2,2 v 24 c 0,1.108 0.892,2 2,2 h 38 c 1.108,0 2,-0.892 2,-2 V 25 16 14 c 0,-1.108 -0.892,-2 -2,-2 z" fill="url(#gl1)" opacity=".2"/><path class="folder-crease" d="m 3,33 v 1 H 9.5 C 9.777,34 10,33.777 10,33.5 10,33.223 9.777,33 9.5,33 Z m 35.5,0 c -0.277,0 -0.5,0.223 -0.5,0.5 0,0.277 0.223,0.5 0.5,0.5 H 45 v -1 z" opacity=".4"/><path class="ColorScheme-Text" d="m 3,39 v 1 c 0,1.108 0.892,2 2,2 h 38 c 1.108,0 2,-0.892 2,-2 v -1 c 0,1.108 -0.892,2 -2,2 H 5 C 3.892,41 3,40.108 3,39 Z" fill="currentColor" opacity=".1"/><path class="ColorScheme-Text" d="M 3,39.5 V 40 c 0,1.108 0.892,2 2,2 h 38 c 1.108,0 2,-0.892 2,-2 v -0.5 c 0,1.108 -0.892,2 -2,2 H 5 c -1.108,0 -2,-0.892 -2,-2 z" fill="currentColor" opacity=".2"/><path d="m 21,12 c -3,0 -3,2 -6,2 H 5 c -1.108,0 -2,0.892 -2,2 v 1 c 0,-1.108 0.892,-2 2,-2 h 10 c 3,0 3,-2 6,-2 h 22 c 1.108,0 2,0.892 2,2 v -1 c 0,-1.108 -0.892,-2 -2,-2 z" fill="#fff" opacity=".1"/><path d="m 21,12 c -3,0 -3,2 -6,2 H 5 c -1.108,0 -2,0.892 -2,2 v 0.5 c 0,-1.108 0.892,-2 2,-2 h 10 c 3,0 3,-2 6,-2 h 22 c 1.108,0 2,0.892 2,2 V 14 c 0,-1.108 -0.892,-2 -2,-2 z" fill="#fff" opacity=".2"/><path d="m 21,11 c -3,0 -3,2 -6,2 H 5 v 1 h 10 c 3,0 3,-2 6,-2 h 22 v -1 z" opacity=".1"/><path d="m 21,11.5 c -3,0 -3,2 -6,2 H 5 V 14 h 10 c 3,0 3,-2 6,-2 h 22 v -0.5 z" opacity=".2"/></g></svg>