<svg height="48" version="1.1" width="48" xmlns="http://www.w3.org/2000/svg" xmlns:svg="http://www.w3.org/2000/svg" xmlns:xlink="http://www.w3.org/1999/xlink">
<defs id="primary-definitions">
<style id="current-color-scheme" type="text/css">
      .ColorScheme-Text           { color:#fff; }
      .ColorScheme-Background     { color:#111; }
      .ColorScheme-Highlight      { color:#3daefd; }
      .ColorScheme-ViewBackground { color:#000; }
      .ColorScheme-PositiveText   { color:#27ae60; }
      .ColorScheme-NeutralText    { color:#f67400; }
      .ColorScheme-NegativeText   { color:#da4453; }
    </style>
<style id="extended-color-scheme" type="text/css">
      .ExScheme-Black     { color:#3e3e3e; }
      .ExScheme-White     { color:#fcfcfc; }
      .ExScheme-Grey-1    { color:#cfd5d5; }
      .ExScheme-Grey-2    { color:#909c9c; }
      .ExScheme-Grey-3    { color:#536161; }
      .ExScheme-Red-1     { color:#ffafa5; }
      .ExScheme-Red-2     { color:#bf4231; }
      .ExScheme-Red-3     { color:#4d2f2b; }
      .ExScheme-Green-1   { color:#abf9c7; }
      .ExScheme-Green-2   { color:#3bb566; }
      .ExScheme-Green-3   { color:#377d50; }
      .ExScheme-Blue-1    { color:#abdaf9; }
      .ExScheme-Blue-2    { color:#3daefd; }
      .ExScheme-Blue-3    { color:#2b3c4d; }
      .ExScheme-Yellow-1  { color:#faffa5; }
      .ExScheme-Yellow-2  { color:#cac726; }
      .ExScheme-Yellow-3  { color:#4b4d2b; }
      .ExScheme-Orange-1  { color:#ffdaa5; }
      .ExScheme-Orange-2  { color:#ff9701; }
      .ExScheme-Orange-3  { color:#4d372b; }
      .ExScheme-Brown-1   { color:#e9d6bb; }
      .ExScheme-Brown-2   { color:#997657; }
      .ExScheme-Brown-3   { color:#433a35; }
      .ExScheme-Purple-1  { color:#e2abf9; }
      .ExScheme-Purple-2  { color:#b401ff; }
      .ExScheme-Purple-3  { color:#432b4d; }
      .ExScheme-Cyan-1    { color:#b2f2e6; }
      .ExScheme-Cyan-2    { color:#31bfa6; }
      .ExScheme-Cyan-3    { color:#2b4d47; }
      .ExScheme-Magenta-1 { color:#f8a6d8; }
      .ExScheme-Magenta-2 { color:#f00091; }
      .ExScheme-Magenta-3 { color:#770048; }
    </style>
<linearGradient id="uyc">
<stop offset="0"/>
<stop offset="1" stop-opacity="0"/>
</linearGradient>
<linearGradient id="uyd">
<stop offset="0" stop-color="#fff"/>
<stop offset="1" stop-color="#fff" stop-opacity="0"/>
</linearGradient>
<style class="toggle-enable-crease" type="text/css">
        .folder-crease { display: none; }
    </style><style class="toggle-manilla-folders" type="text/css">
        .folder-manilla { display: none; }
    </style><radialGradient cx=".5" cy="0" id="uye" r="1" xlink:href="#uyd"/><linearGradient id="uyf" xlink:href="#uyc" y1="1" y2=".5"/><path d="M 7,6 C 5.9,6 5,6.9 5,8 v 2 4 c -1.1,0 -2,.9 -2,2 v 24 c 0,1.1 .9,2 2,2 h 38 c 1.1,0 2,-.9 2,-2 V 25 16 14 c 0,-1.1 -.9,-2 -2,-2 V 10 C 43,8.9 42.1,8 41,8 H 21 C 18,8 18,6 15,6 Z" id="uyg"></path><path d="M 17.5,12 A 0.5,0.5 0 0 0 17,12.5 0.5,0.5 0 0 0 17.5,13 0.5,0.5 0 0 0 18,12.5 0.5,0.5 0 0 0 17.5,12 Z m 2,0 A 0.5,0.5 0 0 0 19,12.5 0.5,0.5 0 0 0 19.5,13 0.5,0.5 0 0 0 20,12.5 0.5,0.5 0 0 0 19.5,12 Z M 12,17 v 1 h 3 v -1 z m -1,2 v 1 h 4 v -1 z" id="uyh" opacity=".6" stop-color="#000000"></path><path d="M 7,6 C 5.9,6 5,6.9 5,8 v 2 4 h 10 c 3,0 3,-2 6,-2 H 43 V 10 C 43,8.9 42.1,8 41,8 H 21 C 18,8 18,6 15,6 Z" id="uyi"></path></defs>
<g id="content" transform="translate(0,0)"><use class="folder-manilla ExScheme-Brown-1" fill="currentColor" href="#uyg"></use><use class="toggle-manilla-folders ColorScheme-Highlight" fill="currentColor" href="#uyg" id="primary-color"></use><use class="ColorScheme-Text" fill="currentColor" href="#uyg" opacity=".1"></use><g id="emblem" transform="translate(12,15)"><path class="ColorScheme-Background" d="M 7 2 L 7 6 L 3 6 C 2.45 6 2 6.45 2 7 L 2 17 C 2 17.55 2.45 18 3 18 L 7 18 L 7 22 L 17 22 L 17 18 L 21 18 C 21.55 18 22 17.55 22 17 L 22 7 C 22 6.45 21.55 6 21 6 L 17 6 L 17 2 L 7 2 z M 8 3 L 16 3 L 16 7 L 8 7 L 8 3 z M 3 7 L 6 7 L 6 8 L 18 8 L 18 7 L 21 7 L 21 17 L 18 17 L 18 14 L 6 14 L 6 17 L 3 17 L 3 7 z M 8 16 L 16 16 L 16 21 L 8 21 L 8 16 z " fill="currentColor" opacity=".6" stop-color="#000000"/><use class="ColorScheme-Background" fill="currentColor" href="#uyh"></use><use class="ColorScheme-Background" fill="currentColor" href="#uyh"></use><path class="ColorScheme-Background" d="M 7,2 V 6 H 3 C 2.45,6 2,6.45 2,7 v 10 c 0,.55 .45,1 1,1 h 4 v 4 h 10 v -4 h 4 c .55,0 1,-.45 1,-1 V 7 C 22,6.45 21.55,6 21,6 H 17 V 2 Z m 1,1 h 8 V 7 H 8 Z M 7.5,6 V 7 C 7.5,7.3 7.7,7.5 8,7.5 H 6.5 V 7 C 6.5,6.7 6.3,6.5 6,6.5 H 7 C 7.3,6.5 7.5,6.3 7.5,6 Z m 9,0 c 2.8e-5,.3 .2,.5 0.5,0.5 h 1 C 17.7,6.5 17.5,6.7 17.5,7 V 7.5 H 16 C 16.3,7.5 16.5,7.3 16.5,7 Z M 3,7 H 6 V 8 H 18 V 7 h 3 V 17 H 18 V 14 H 6 v 3 H 3 Z m 3.5,7.5 h 11 V 17 c 2.8e-5,.3 .2,.5 0.5,0.5 h -1 c -.3,2.8e-5 -.5,.2 -0.5,0.5 V 16 C 16.5,15.7 16.3,15.5 16,15.5 H 8 c -.3,2.8e-5 -.5,.2 -0.5,0.5 v 2 C 7.5,17.7 7.3,17.5 7,17.5 H 6 C 6.3,17.5 6.5,17.3 6.5,17 Z M 8,16 h 8 v 5 H 8 Z" fill="currentColor" opacity=".6"/></g><use href="#uyi" opacity=".4"></use><use class="toggle-flat-design" fill="url(#uyf)" href="#uyi" opacity=".1"></use><path class="toggle-flat-design" d="m 21,12 c -3,0 -3,2 -6,2 H 5 c -1.1,0 -2,.9 -2,2 v 24 c 0,1.1 .9,2 2,2 h 38 c 1.1,0 2,-.9 2,-2 V 25 16 14 c 0,-1.1 -.9,-2 -2,-2 z" fill="url(#uye)" opacity=".2"/><path class="folder-crease " d="m 3,33 v 1 H 9.5 C 9.8,34 10,33.8 10,33.5 10,33.2 9.8,33 9.5,33 Z m 35.5,0 c -.3,0 -0.5,.2 -0.5,0.5 0,.3 .2,0.5 0.5,0.5 H 45 v -1 z" opacity=".4"/><path class="ColorScheme-Text" d="m 3,39 v 1 c 0,1.1 .9,2 2,2 h 38 c 1.1,0 2,-.9 2,-2 v -1 c 0,1.1 -.9,2 -2,2 H 5 C 3.9,41 3,40.1 3,39 Z" fill="currentColor" opacity=".1"/><path class="ColorScheme-Text" d="M 3,39.5 V 40 c 0,1.1 .9,2 2,2 h 38 c 1.1,0 2,-.9 2,-2 v -0.5 c 0,1.1 -.9,2 -2,2 H 5 c -1.1,0 -2,-.9 -2,-2 z" fill="currentColor" opacity=".2"/><path d="m 21,12 c -3,0 -3,2 -6,2 H 5 c -1.1,0 -2,.9 -2,2 v 1 c 0,-1.1 .9,-2 2,-2 h 10 c 3,0 3,-2 6,-2 h 22 c 1.1,0 2,.9 2,2 v -1 c 0,-1.1 -.9,-2 -2,-2 z" fill="#fff" opacity=".1"/><path d="m 21,12 c -3,0 -3,2 -6,2 H 5 c -1.1,0 -2,.9 -2,2 v 0.5 c 0,-1.1 .9,-2 2,-2 h 10 c 3,0 3,-2 6,-2 h 22 c 1.1,0 2,.9 2,2 V 14 c 0,-1.1 -.9,-2 -2,-2 z" fill="#fff" opacity=".2"/><path d="m 21,11 c -3,0 -3,2 -6,2 H 5 v 1 h 10 c 3,0 3,-2 6,-2 h 22 v -1 z" opacity=".1"/><path d="m 21,11.5 c -3,0 -3,2 -6,2 H 5 V 14 h 10 c 3,0 3,-2 6,-2 h 22 v -0.5 z" opacity=".2"/></g>
</svg>