<svg height="48" version="1.1" width="48" xmlns="http://www.w3.org/2000/svg" xmlns:svg="http://www.w3.org/2000/svg" xmlns:xlink="http://www.w3.org/1999/xlink">
<defs id="primary-definitions">
<style id="current-color-scheme" type="text/css">
      .ColorScheme-Text         { color: #232629; }
      .ColorScheme-Background   { color: #eff0f1; }
      .ColorScheme-Highlight    { color: #7ec9f0; }
      .ColorScheme-PositiveText { color: #27ae60; }
      .ColorScheme-NeutralText  { color: #f67400; }
      .ColorScheme-NegativeText { color: #da4453; }
      .ColorScheme-ActiveText   { color: #3daee9; }
      .ColorScheme-Complement   { color: #ffffff; }
      .ColorScheme-Contrast     { color: #000000; }
    </style>
<style id="extended-color-scheme" type="text/css">
      .ExScheme-Black     { color:#3e3e3e; }
      .ExScheme-White     { color:#fcfcfc; }
      .ExScheme-Grey-1    { color:#cfd5d5; }
      .ExScheme-Grey-2    { color:#909c9c; }
      .ExScheme-Grey-3    { color:#536161; }
      .ExScheme-Red-1     { color:#ffafa5; }
      .ExScheme-Red-2     { color:#bf4231; }
      .ExScheme-Red-3     { color:#4d2f2b; }
      .ExScheme-Green-1   { color:#abf9c7; }
      .ExScheme-Green-2   { color:#3bb566; }
      .ExScheme-Green-3   { color:#377d50; }
      .ExScheme-Blue-1    { color:#abdaf9; }
      .ExScheme-Blue-2    { color:#3daefd; }
      .ExScheme-Blue-3    { color:#2b3c4d; }
      .ExScheme-Yellow-1  { color:#faffa5; }
      .ExScheme-Yellow-2  { color:#cac726; }
      .ExScheme-Yellow-3  { color:#4b4d2b; }
      .ExScheme-Orange-1  { color:#ffdaa5; }
      .ExScheme-Orange-2  { color:#ff9701; }
      .ExScheme-Orange-3  { color:#4d372b; }
      .ExScheme-Brown-1   { color:#e9d6bb; }
      .ExScheme-Brown-2   { color:#997657; }
      .ExScheme-Brown-3   { color:#433a35; }
      .ExScheme-Purple-1  { color:#e2abf9; }
      .ExScheme-Purple-2  { color:#b401ff; }
      .ExScheme-Purple-3  { color:#432b4d; }
      .ExScheme-Cyan-1    { color:#b2f2e6; }
      .ExScheme-Cyan-2    { color:#31bfa6; }
      .ExScheme-Cyan-3    { color:#2b4d47; }
      .ExScheme-Magenta-1 { color:#f8a6d8; }
      .ExScheme-Magenta-2 { color:#f00091; }
      .ExScheme-Magenta-3 { color:#770048; }
    </style>
<linearGradient id="uoX">
<stop offset="0"/>
<stop offset="1" stop-opacity="0"/>
</linearGradient>
<linearGradient id="uoY">
<stop offset="0" stop-color="#fff"/>
<stop offset="1" stop-color="#fff" stop-opacity="0"/>
</linearGradient>
<style id="uoZ" type="text/css">
        .force-display-for-editing { display: inline !important; }
    </style><style class="remove-if__show-crease" type="text/css">
        .enable-if__show-crease { display: none; }
    </style><style class="remove-if__color-sync-mimes-places" type="text/css">
        .enable-if__color-sync-mimes-places { display: none; }
    </style><radialGradient cx=".5" cy="0" id="up0" r="1" xlink:href="#uoY"/><linearGradient id="up1" xlink:href="#uoX" y1="1" y2=".5"/><style class="ColorScheme-Background" fill="currentColor" opacity=".6" type="text/css">
   .ColorScheme-Text           { color:#eff0f1; }
      .ColorScheme-Background     { color:#31363b; }
      .ColorScheme-Highlight      { color:#3daefd; }
      .ColorScheme-ViewBackground { color:#fcfcfc; }
      .ColorScheme-PositiveText   { color:#27ae60; }
      .ColorScheme-NeutralText    { color:#f67400; }
      .ColorScheme-NegativeText   { color:#da4453; }
  </style><path d="M 7,6 C 5.9,6 5,6.9 5,8 v 2 4 c -1.1,0 -2,.9 -2,2 v 24 c 0,1.1 .9,2 2,2 h 38 c 1.1,0 2,-.9 2,-2 V 25 16 14 c 0,-1.1 -.9,-2 -2,-2 V 10 C 43,8.9 42.1,8 41,8 H 21 C 18,8 18,6 15,6 Z" id="up2"></path><path d="M 7,6 C 5.9,6 5,6.9 5,8 v 2 4 h 10 c 3,0 3,-2 6,-2 H 43 V 10 C 43,8.9 42.1,8 41,8 H 21 C 18,8 18,6 15,6 Z" id="up3"></path></defs>
<g id="content" transform="translate(0,0)"><use class="sync-color enable-if__color-sync-mimes-places force-display-for-editing ColorScheme-ActiveText" fill="currentColor" href="#up2"></use><use class="primary-color remove-if__color-sync-mimes-places ColorScheme-ActiveText" fill="currentColor" href="#up2"></use><use class="ColorScheme-Contrast" fill="currentColor" href="#up2" opacity=".1"></use><g id="decal" transform="translate(12,15)"><path class="ColorScheme-Background" d="M 9.1 2 C 8 2 7.1 2.9 7.1 4.03 L 7.1 4.54 L 4.04 4.54 C 2.9 4.54 2 5.45 2 6.57 L 2 14.93 C 2 15.5 2.2 16 2.57 16.44 L 6.47 21 L 6.47 16 L 13.97 16 C 15.1 16 16 15.1 16 13.96 L 16 11.55 L 17.26 11.55 L 17.26 16.55 L 20.57 12.7 C 21.3 11.8 21.7 10.7 21.7 9.6 L 21.7 4.03 C 21.7 2.9 20.8 2 19.7 2 L 9.1 2 z M 10.14 3.97 L 18.67 3.97 C 19.3 3.97 19.76 4.45 19.76 5.05 L 19.76 8.5 C 19.76 9.1 19.3 9.6 18.67 9.6 L 10.14 9.6 C 9.54 9.6 9.06 9.1 9.06 8.5 L 9.06 5.05 C 9.06 4.45 9.54 3.97 10.14 3.97 z M 5.06 6.5 L 7.1 6.5 L 7.1 9.7 C 7.1 10.7 7.93 11.55 8.96 11.55 L 14.04 11.55 L 14.04 12.95 C 14.04 13.55 13.56 14.03 12.96 14.03 L 5.06 14.03 C 4.46 14.03 4 13.55 4 12.95 L 4 7.6 C 4 7 4.46 6.5 5.06 6.5 z " fill="currentColor" opacity=".6"/><path class="ColorScheme-Background" d="m 38.2,-29.85 c -1.03,0 -1.86,.83 -1.86,1.86 v .8 h -3.4 c -1.03,0 -1.86,.83 -1.86,1.86 v 8.7 c 0,.5 .2,1 .5,1.4 l 3.6,4.2 v -4.77 h 8.05 c 1.03,0 1.86,-.83 1.86,-1.86 v -2.76 h 1.8 v 4.77 l 3,-3.5 c .73,-.85 1.13,-1.94 1.13,-3.07 v -5.76 c 10e-7,-1.03 -.83,-1.86 -1.86,-1.86 z m 1.06,1.54 h 8.87 c .76,0 1.37,.6 1.37,1.37 v 3.6 c 2e-6,.76 -.6,1.37 -1.37,1.37 H 39.24 c -.76,0 -1.37,-.6 -1.37,-1.37 v -3.6 c 0,-.76 .6,-1.37 1.37,-1.37 z m -5.3,2.64 h 2.36 v 3.54 c 0,.93 .76,1.7 1.7,1.7 h 5.5 v 1.7 c 0,.76 -.6,1.37 -1.37,1.37 h -8.2 c -.76,0 -1.37,-.6 -1.37,-1.37 v -5.57 c 0,-.76 .6,-1.37 1.37,-1.37 z" fill="currentColor" opacity=".6"/><path class="ColorScheme-Background" d="m 9.1,2 c -1.1,0 -2.03,.9 -2.03,2.03 v .5 H 4.04 c -1.1,0 -2.03,.9 -2.03,2.03 v 8.36 c 0,.55 .2,1.1 .56,1.5 l 3.9,4.56 v -5 h 7.5 c 1.1,0 2.03,-.9 2.03,-2.03 v -2.4 h 1.26 v 5 l 3.3,-3.87 c .74,-.87 1.15,-1.97 1.15,-3.1 v -5.55 c 1e-6,-1.1 -.9,-2.03 -2.03,-2.03 z m 0,.5 H 19.7 c .86,0 1.55,.7 1.55,1.55 v 5.55 c 0,1 -.37,2 -1.03,2.8 L 17.74,15.25 v -4.2 h -2.2 v 2.9 c 0,.86 -.7,1.55 -1.55,1.55 H 6 v 4.2 L 2.93,16.13 C 2.65,15.8 2.5,15.37 2.5,14.93 V 6.57 c 0,-.86 .7,-1.55 1.55,-1.55 h 3.54 v -1 c 0,-.86 .7,-1.55 1.55,-1.55 z m 1,1 c -.86,0 -1.56,.7 -1.56,1.56 v 3.45 c 0,.86 .7,1.56 1.56,1.56 h 8.53 c .86,0 1.56,-.7 1.56,-1.56 v -3.45 c 0,-.86 -.7,-1.56 -1.56,-1.56 z m 0,.5 h 8.53 c .6,0 1.1,.5 1.1,1.1 v 3.45 c 2e-6,.6 -.5,1.1 -1.1,1.1 h -8.53 c -.6,0 -1.1,-.5 -1.1,-1.1 v -3.45 c 0,-.6 .5,-1.1 1.1,-1.1 z m -5.1,2.06 c -.86,0 -1.56,.7 -1.56,1.56 v 5.36 c 0,.86 .7,1.56 1.56,1.56 h 7.9 c .86,0 1.56,-.7 1.56,-1.56 V 11.07 H 8.96 c -.77,0 -1.4,-.6 -1.4,-1.4 v -3.65 z m 0,.5 H 7.1 v 3.17 c 0,1.03 .84,1.87 1.87,1.87 h 5.07 v 1.4 c 0,.6 -.5,1.1 -1.1,1.1 H 5.06 c -.6,0 -1.1,-.5 -1.1,-1.1 V 7.6 c 0,-.6 .5,-1.1 1.1,-1.1 z" fill="currentColor" opacity=".6"/></g><use href="#up3" opacity=".4"></use><use fill="url(#up1)" href="#up3" opacity=".1"></use><path d="m 21,12 c -3,0 -3,2 -6,2 H 5 c -1.1,0 -2,.9 -2,2 v 24 c 0,1.1 .9,2 2,2 h 38 c 1.1,0 2,-.9 2,-2 V 25 16 14 c 0,-1.1 -.9,-2 -2,-2 z" fill="url(#up0)" opacity=".2"/><path class="ColorScheme-Contrast" d="m 3,39 v 1 c 0,1.1 .9,2 2,2 h 38 c 1.1,0 2,-.9 2,-2 v -1 c 0,1.1 -.9,2 -2,2 H 5 C 3.9,41 3,40.1 3,39 Z" fill="currentColor" opacity=".1"/><path class="ColorScheme-Contrast" d="M 3,39.5 V 40 c 0,1.1 .9,2 2,2 h 38 c 1.1,0 2,-.9 2,-2 v -0.5 c 0,1.1 -.9,2 -2,2 H 5 c -1.1,0 -2,-.9 -2,-2 z" fill="currentColor" opacity=".2"/><path d="m 21,12 c -3,0 -3,2 -6,2 H 5 c -1.1,0 -2,.9 -2,2 v 1 c 0,-1.1 .9,-2 2,-2 h 10 c 3,0 3,-2 6,-2 h 22 c 1.1,0 2,.9 2,2 v -1 c 0,-1.1 -.9,-2 -2,-2 z" fill="#fff" opacity=".1"/><path d="m 21,12 c -3,0 -3,2 -6,2 H 5 c -1.1,0 -2,.9 -2,2 v 0.5 c 0,-1.1 .9,-2 2,-2 h 10 c 3,0 3,-2 6,-2 h 22 c 1.1,0 2,.9 2,2 V 14 c 0,-1.1 -.9,-2 -2,-2 z" fill="#fff" opacity=".2"/><path d="m 21,11 c -3,0 -3,2 -6,2 H 5 v 1 h 10 c 3,0 3,-2 6,-2 h 22 v -1 z" opacity=".1"/><path d="m 21,11.5 c -3,0 -3,2 -6,2 H 5 V 14 h 10 c 3,0 3,-2 6,-2 h 22 v -0.5 z" opacity=".2"/></g>
</svg>