<?xml version="1.0" encoding="utf-8"?><svg height="48" width="48" xmlns="http://www.w3.org/2000/svg" xmlns:svg="http://www.w3.org/2000/svg" xmlns:xlink="http://www.w3.org/1999/xlink"><defs id="primary-definitions"><style id="current-color-scheme" type="text/css">.ColorScheme-Text           { color:#fff; }
      .ColorScheme-Background     { color:#111; }
      .ColorScheme-Highlight      { color:#3daefd; }
      .ColorScheme-ViewBackground { color:#000; }
      .ColorScheme-PositiveText   { color:#27ae60; }
      .ColorScheme-NeutralText    { color:#f67400; }
      .ColorScheme-NegativeText   { color:#da4453; }
  </style><style id="extended-color-scheme" type="text/css">.ExScheme-Black     { color:#3e3e3e; }
      .ExScheme-White     { color:#fcfcfc; }
      .ExScheme-Grey-1    { color:#cfd5d5; }
      .ExScheme-Grey-2    { color:#909c9c; }
      .ExScheme-Grey-3    { color:#536161; }
      .ExScheme-Red-1     { color:#ffafa5; }
      .ExScheme-Red-2     { color:#bf4231; }
      .ExScheme-Red-3     { color:#4d2f2b; }
      .ExScheme-Green-1   { color:#abf9c7; }
      .ExScheme-Green-2   { color:#3bb566; }
      .ExScheme-Green-3   { color:#377d50; }
      .ExScheme-Blue-1    { color:#abdaf9; }
      .ExScheme-Blue-2    { color:#3daefd; }
      .ExScheme-Blue-3    { color:#2b3c4d; }
      .ExScheme-Yellow-1  { color:#faffa5; }
      .ExScheme-Yellow-2  { color:#cac726; }
      .ExScheme-Yellow-3  { color:#4b4d2b; }
      .ExScheme-Orange-1  { color:#ffdaa5; }
      .ExScheme-Orange-2  { color:#ff9701; }
      .ExScheme-Orange-3  { color:#4d372b; }
      .ExScheme-Brown-1   { color:#e9d6bb; }
      .ExScheme-Brown-2   { color:#997657; }
      .ExScheme-Brown-3   { color:#433a35; }
      .ExScheme-Purple-1  { color:#e2abf9; }
      .ExScheme-Purple-2  { color:#b401ff; }
      .ExScheme-Purple-3  { color:#432b4d; }
      .ExScheme-Cyan-1    { color:#b2f2e6; }
      .ExScheme-Cyan-2    { color:#31bfa6; }
      .ExScheme-Cyan-3    { color:#2b4d47; }
      .ExScheme-Magenta-1 { color:#f8a6d8; }
      .ExScheme-Magenta-2 { color:#f00091; }
      .ExScheme-Magenta-3 { color:#770048; }
  </style><linearGradient id="gradientDark"><stop offset="0"/><stop offset="1" stop-opacity="0"/></linearGradient><linearGradient id="gradientLight"><stop offset="0" stop-color="#fff"/><stop offset="1" stop-color="#fff" stop-opacity="0"/></linearGradient><style class="toggle-enable-crease" type="text/css">.folder-crease { display: none; }
  </style><style class="toggle-manilla-folders" type="text/css">.folder-manilla { display: none; }
  </style><radialGradient cx=".5" cy="0" id="gl1" r="1" xlink:href="#gradientLight"/><linearGradient id="gd1" xlink:href="#gradientDark" y1="1" y2=".5"/><path d="M 7,6 C 5.892,6 5,6.892 5,8 v 2 4 c -1.108,0 -2,0.892 -2,2 v 24 c 0,1.108 0.892,2 2,2 h 38 c 1.108,0 2,-0.892 2,-2 V 25 16 14 c 0,-1.108 -0.892,-2 -2,-2 V 10 C 43,8.892 42.108,8 41,8 H 21 C 18,8 18,6 15,6 Z" id="use-path-6T"/><path d="M 7,6 C 5.892,6 5,6.892 5,8 v 2 4 h 10 c 3,0 3,-2 6,-2 H 43 V 10 C 43,8.892 42.108,8 41,8 H 21 C 18,8 18,6 15,6 Z" id="use-path-6U"/></defs><g id="content"><namedview bordercolor="#666666" borderopacity="1.0" current-layer="svg49" cx="24" cy="24" pagecheckerboard="0" pagecolor="#fff" pageopacity="0.0" pageshadow="2" showgrid="true" window-height="1017" window-maximized="1" window-width="1920" window-x="0" window-y="0" zoom="13.25"><grid type="xygrid"/></namedview><use class="folder-manilla ExScheme-Brown-1" fill="currentColor" href="#use-path-6T"/><use class="toggle-manilla-folders ColorScheme-Highlight" fill="currentColor" href="#use-path-6T" id="primary-color"/><use class="ColorScheme-Text" fill="currentColor" href="#use-path-6T" opacity=".1"/><g id="emblem" transform="translate(12,15)"><path class="ColorScheme-Background" d="m 12,4.444 c -3.682,0 -6.667,2.985 -6.667,6.667 9.35e-4,.048 .002,.096 .004,.143 C 3.374,11.76 2,13.528 2,15.556 2,18.01 3.99,20 6.444,20 H 16.444 C 19.513,20 22,17.513 22,14.444 21.998,12.132 20.563,10.062 18.398,9.25 17.57,6.404 14.963,4.446 12,4.444 Z" fill="currentColor" opacity=".6"/><path class="ColorScheme-Background" d="M 12 4.445 C 8.318 4.445 5.334 7.43 5.334 11.11 C 5.335 11.16 5.336 11.206 5.338 11.254 C 3.375 11.76 2 13.528 2 15.555 C 2 18.01 3.99 20 6.445 20 L 16.445 20 C 19.514 20 22 17.514 22 14.445 C 21.998 12.133 20.564 10.063 18.398 9.25 C 17.57 6.405 14.963 4.447 12 4.445 z M 12 4.945 C 14.743 4.947 17.152 6.755 17.918 9.39 L 17.988 9.63 L 18.223 9.717 C 20.194 10.457 21.498 12.34 21.5 14.445 C 21.5 17.243 19.243 19.5 16.445 19.5 L 6.445 19.5 C 4.26 19.5 2.5 17.74 2.5 15.555 C 2.502 13.754 3.72 12.187 5.463 11.738 L 5.854 11.64 L 5.838 11.234 C 5.836 11.194 5.835 11.152 5.834 11.11 L 5.834 11.11 C 5.835 7.7 8.59 4.945 12 4.945 z " fill="currentColor" opacity=".6"/></g><use href="#use-path-6U" opacity=".4"/><use class="toggle-flat-design" fill="url(#gd1)" href="#use-path-6U" opacity=".1"/><path class="toggle-flat-design" d="m 21,12 c -3,0 -3,2 -6,2 H 5 c -1.108,0 -2,0.892 -2,2 v 24 c 0,1.108 0.892,2 2,2 h 38 c 1.108,0 2,-0.892 2,-2 V 25 16 14 c 0,-1.108 -0.892,-2 -2,-2 z" fill="url(#gl1)" opacity=".2"/><path class="folder-crease" d="m 3,33 v 1 H 9.5 C 9.777,34 10,33.777 10,33.5 10,33.223 9.777,33 9.5,33 Z m 35.5,0 c -0.277,0 -0.5,0.223 -0.5,0.5 0,0.277 0.223,0.5 0.5,0.5 H 45 v -1 z" opacity=".4"/><path class="ColorScheme-Text" d="m 3,39 v 1 c 0,1.108 0.892,2 2,2 h 38 c 1.108,0 2,-0.892 2,-2 v -1 c 0,1.108 -0.892,2 -2,2 H 5 C 3.892,41 3,40.108 3,39 Z" fill="currentColor" opacity=".1"/><path class="ColorScheme-Text" d="M 3,39.5 V 40 c 0,1.108 0.892,2 2,2 h 38 c 1.108,0 2,-0.892 2,-2 v -0.5 c 0,1.108 -0.892,2 -2,2 H 5 c -1.108,0 -2,-0.892 -2,-2 z" fill="currentColor" opacity=".2"/><path d="m 21,12 c -3,0 -3,2 -6,2 H 5 c -1.108,0 -2,0.892 -2,2 v 1 c 0,-1.108 0.892,-2 2,-2 h 10 c 3,0 3,-2 6,-2 h 22 c 1.108,0 2,0.892 2,2 v -1 c 0,-1.108 -0.892,-2 -2,-2 z" fill="#fff" opacity=".1"/><path d="m 21,12 c -3,0 -3,2 -6,2 H 5 c -1.108,0 -2,0.892 -2,2 v 0.5 c 0,-1.108 0.892,-2 2,-2 h 10 c 3,0 3,-2 6,-2 h 22 c 1.108,0 2,0.892 2,2 V 14 c 0,-1.108 -0.892,-2 -2,-2 z" fill="#fff" opacity=".2"/><path d="m 21,11 c -3,0 -3,2 -6,2 H 5 v 1 h 10 c 3,0 3,-2 6,-2 h 22 v -1 z" opacity=".1"/><path d="m 21,11.5 c -3,0 -3,2 -6,2 H 5 V 14 h 10 c 3,0 3,-2 6,-2 h 22 v -0.5 z" opacity=".2"/></g></svg>