<svg height="48" version="1.1" width="48" xmlns="http://www.w3.org/2000/svg" xmlns:svg="http://www.w3.org/2000/svg" xmlns:xlink="http://www.w3.org/1999/xlink">
<defs id="primary-definitions">
<style id="current-color-scheme" type="text/css">
      .ColorScheme-Text           { color:#fff; }
      .ColorScheme-Background     { color:#111; }
      .ColorScheme-Highlight      { color:#3daefd; }
      .ColorScheme-ViewBackground { color:#000; }
      .ColorScheme-PositiveText   { color:#27ae60; }
      .ColorScheme-NeutralText    { color:#f67400; }
      .ColorScheme-NegativeText   { color:#da4453; }
    </style>
<style id="extended-color-scheme" type="text/css">
      .ExScheme-Black     { color:#3e3e3e; }
      .ExScheme-White     { color:#fcfcfc; }
      .ExScheme-Grey-1    { color:#cfd5d5; }
      .ExScheme-Grey-2    { color:#909c9c; }
      .ExScheme-Grey-3    { color:#536161; }
      .ExScheme-Red-1     { color:#ffafa5; }
      .ExScheme-Red-2     { color:#bf4231; }
      .ExScheme-Red-3     { color:#4d2f2b; }
      .ExScheme-Green-1   { color:#abf9c7; }
      .ExScheme-Green-2   { color:#3bb566; }
      .ExScheme-Green-3   { color:#377d50; }
      .ExScheme-Blue-1    { color:#abdaf9; }
      .ExScheme-Blue-2    { color:#3daefd; }
      .ExScheme-Blue-3    { color:#2b3c4d; }
      .ExScheme-Yellow-1  { color:#faffa5; }
      .ExScheme-Yellow-2  { color:#cac726; }
      .ExScheme-Yellow-3  { color:#4b4d2b; }
      .ExScheme-Orange-1  { color:#ffdaa5; }
      .ExScheme-Orange-2  { color:#ff9701; }
      .ExScheme-Orange-3  { color:#4d372b; }
      .ExScheme-Brown-1   { color:#e9d6bb; }
      .ExScheme-Brown-2   { color:#997657; }
      .ExScheme-Brown-3   { color:#433a35; }
      .ExScheme-Purple-1  { color:#e2abf9; }
      .ExScheme-Purple-2  { color:#b401ff; }
      .ExScheme-Purple-3  { color:#432b4d; }
      .ExScheme-Cyan-1    { color:#b2f2e6; }
      .ExScheme-Cyan-2    { color:#31bfa6; }
      .ExScheme-Cyan-3    { color:#2b4d47; }
      .ExScheme-Magenta-1 { color:#f8a6d8; }
      .ExScheme-Magenta-2 { color:#f00091; }
      .ExScheme-Magenta-3 { color:#770048; }
    </style>
<linearGradient id="uAx">
<stop offset="0"/>
<stop offset="1" stop-opacity="0"/>
</linearGradient>
<linearGradient id="uAy">
<stop offset="0" stop-color="#fff"/>
<stop offset="1" stop-color="#fff" stop-opacity="0"/>
</linearGradient>
<style class="toggle-enable-crease" type="text/css">
        .folder-crease { display: none; }
    </style><style class="toggle-manilla-folders" type="text/css">
        .folder-manilla { display: none; }
    </style><radialGradient cx=".5" cy="0" id="uAz" r="1" xlink:href="#uAy"/><linearGradient id="uAA" xlink:href="#uAx" y1="1" y2=".5"/><path d="M 7,6 C 5.9,6 5,6.9 5,8 v 2 4 c -1.1,0 -2,.9 -2,2 v 24 c 0,1.1 .9,2 2,2 h 38 c 1.1,0 2,-.9 2,-2 V 25 16 14 c 0,-1.1 -.9,-2 -2,-2 V 10 C 43,8.9 42.1,8 41,8 H 21 C 18,8 18,6 15,6 Z" id="uAB"></path><path d="M 7,6 C 5.9,6 5,6.9 5,8 v 2 4 h 10 c 3,0 3,-2 6,-2 H 43 V 10 C 43,8.9 42.1,8 41,8 H 21 C 18,8 18,6 15,6 Z" id="uAC"></path></defs>
<g id="content" transform="translate(0,0)"><use class="folder-manilla ExScheme-Brown-1" fill="currentColor" href="#uAB"></use><use class="toggle-manilla-folders ColorScheme-Highlight" fill="#d81b1e" href="#uAB" id="primary-color"></use><use class="ColorScheme-Text" fill="currentColor" href="#uAB" opacity=".1"></use><g id="emblem" transform="translate(12,15)"><path class="ColorScheme-Background" d="M 12,4 C 9.7,4 7.4,4.73 5.53,6.1 1.7,8.9 .06,13.87 1.54,18.5 a 1,1 0 0 0 1.26,.64 L 5.33,18.2 A 1,1 0 0 0 6,16.96 C 5.8,16.34 5.67,15.7 5.67,15 c 0,-1.86 .5,-3.84 1.5,-5.3 C 8.16,8.3 9.6,7.33 12,7.33 c 1.9,0 3.24,.6 4.2,1.6 l 2.27,-2.84 c -0,-0 -0,-0 -0,-0 C 16.6,4.73 14.3,4 12,4 Z m 0,1 c 1.76,-1.92e-4 3.4,.56 4.94,1.43 L 16,7.6 C 14.9,6.87 13.65,6.33 12,6.33 9.35,6.33 7.5,7.5 6.33,9.15 5.16,10.8 4.67,12.97 4.67,15 c 0,.8 .13,1.55 .36,2.27 l -2.54,.8 a 1,1 0 0 0 -0,0 C 1.15,13.97 2.6,9.45 6.1,6.9 7.83,5.67 9.9,5 12,5 Z m 7.25,1.73 -2.4,3 c .9,1.26 1.35,2.94 1.46,4.6 l 2.3,.3 c .8,.1 1.4,.9 1.3,1.7 -.1,.8 -.87,1.4 -1.7,1.3 l -2.25,-.3 a 1,1 0 0 0 .7,.9 l 2.54,.8 a 1,1 0 0 0 1.26,-.64 C 23.83,14.2 22.53,9.6 19.25,6.73 Z M 12,14 a 1,1 0 0 0 -1,1 1,1 0 0 0 1,1 1,1 0 0 0 .8,-.4 l 7.57,1 c .27,.04 .53,-.16 .56,-.43 .04,-.27 -.16,-.5 -.43,-.56 l -7.57,-1 A 1,1 0 0 0 12,14 Z" fill="currentColor" opacity=".6" stop-color="#000000"/><path class="ColorScheme-Background" d="M 12,4 C 9.7,4 7.4,4.73 5.53,6.1 1.7,8.9 .06,13.87 1.54,18.5 1.7,18.93 2.27,19.2 2.8,19.04 L 5.33,18.2 C 5.86,18.05 6.15,17.5 6,16.96 5.8,16.34 5.67,15.7 5.67,15 c 0,-1.86 .5,-3.84 1.5,-5.3 C 8.16,8.3 9.6,7.33 12,7.33 c 1.9,0 3.24,.6 4.2,1.6 0,0 2.26,-2.84 2.26,-2.84 C 16.6,4.73 14.3,4 12,4 Z m 0,1 c 1.76,-1.92e-4 3.4,.56 4.94,1.43 L 16,7.6 C 14.9,6.87 13.65,6.33 12,6.33 9.35,6.33 7.5,7.5 6.33,9.15 5.16,10.8 4.67,12.97 4.67,15 c 0,.8 .13,1.55 .36,2.27 l -2.54,.8 h -0 C 1.15,13.97 2.6,9.45 6.1,6.9 7.83,5.67 9.9,5 12,5 Z m 7.25,1.73 -2.4,3 c .9,1.26 1.35,2.94 1.46,4.6 l 2.3,.3 c .8,.1 1.4,.9 1.3,1.7 -.1,.8 -.87,1.4 -1.7,1.3 l -2.25,-.3 c 0,.4 .3,.8 .7,.9 l 2.54,.8 c .53,.17 1.1,-.1 1.26,-.64 1.37,-4.2 .07,-8.8 -3.2,-11.67 z m 0,.8 c 2.3,2.25 3.4,5.4 3.07,8.6 C 22.34,15.14 21.7,14.26 20.7,14.1 L 18.74,13.87 C 18.6,12.4 18.17,11 17.44,9.8 Z M 12,14 c -.55,0 -1,.45 -1,1 0,.55 .45,1 1,1 .3,-10e-4 .6,-.15 .8,-.4 l 7.57,1 c .27,.04 .53,-.16 .56,-.43 .04,-.27 -.16,-.5 -.43,-.56 l -7.57,-1 C 12.77,14.24 12.4,14 12,14 Z m 0,0.5 c .2,0 .4,.1 .46,.3 .07,.16 .2,.3 .4,.3 -.2,-0 -.35,.05 -.46,.2 C 12.3,15.43 12.15,15.5 12,15.5 c -.3,0 -0.5,-.2 -0.5,-0.5 0,-.3 .2,-0.5 0.5,-0.5 z m 10.26,2.13 c -.1,.54 -.1,1.1 -.27,1.6 -.1,.27 -.36,.4 -.63,.3 -6.51e-4,-1e-6 -0,-1e-6 -0,0 l -1.65,-.54 .46,.06 c 1,.13 1.8,-.54 2.1,-1.46 z" fill="currentColor" opacity=".6"/></g><use href="#uAC" opacity=".4"></use><use class="toggle-flat-design" fill="url(#uAA)" href="#uAC" opacity=".1"></use><path class="toggle-flat-design" d="m 21,12 c -3,0 -3,2 -6,2 H 5 c -1.1,0 -2,.9 -2,2 v 24 c 0,1.1 .9,2 2,2 h 38 c 1.1,0 2,-.9 2,-2 V 25 16 14 c 0,-1.1 -.9,-2 -2,-2 z" fill="url(#uAz)" opacity=".2"/><path class="folder-crease " d="m 3,33 v 1 H 9.5 C 9.8,34 10,33.8 10,33.5 10,33.2 9.8,33 9.5,33 Z m 35.5,0 c -.3,0 -0.5,.2 -0.5,0.5 0,.3 .2,0.5 0.5,0.5 H 45 v -1 z" opacity=".4"/><path class="ColorScheme-Text" d="m 3,39 v 1 c 0,1.1 .9,2 2,2 h 38 c 1.1,0 2,-.9 2,-2 v -1 c 0,1.1 -.9,2 -2,2 H 5 C 3.9,41 3,40.1 3,39 Z" fill="currentColor" opacity=".1"/><path class="ColorScheme-Text" d="M 3,39.5 V 40 c 0,1.1 .9,2 2,2 h 38 c 1.1,0 2,-.9 2,-2 v -0.5 c 0,1.1 -.9,2 -2,2 H 5 c -1.1,0 -2,-.9 -2,-2 z" fill="currentColor" opacity=".2"/><path d="m 21,12 c -3,0 -3,2 -6,2 H 5 c -1.1,0 -2,.9 -2,2 v 1 c 0,-1.1 .9,-2 2,-2 h 10 c 3,0 3,-2 6,-2 h 22 c 1.1,0 2,.9 2,2 v -1 c 0,-1.1 -.9,-2 -2,-2 z" fill="#fff" opacity=".1"/><path d="m 21,12 c -3,0 -3,2 -6,2 H 5 c -1.1,0 -2,.9 -2,2 v 0.5 c 0,-1.1 .9,-2 2,-2 h 10 c 3,0 3,-2 6,-2 h 22 c 1.1,0 2,.9 2,2 V 14 c 0,-1.1 -.9,-2 -2,-2 z" fill="#fff" opacity=".2"/><path d="m 21,11 c -3,0 -3,2 -6,2 H 5 v 1 h 10 c 3,0 3,-2 6,-2 h 22 v -1 z" opacity=".1"/><path d="m 21,11.5 c -3,0 -3,2 -6,2 H 5 V 14 h 10 c 3,0 3,-2 6,-2 h 22 v -0.5 z" opacity=".2"/></g>
</svg>