<svg height="48" version="1.1" width="48" xmlns="http://www.w3.org/2000/svg" xmlns:svg="http://www.w3.org/2000/svg" xmlns:xlink="http://www.w3.org/1999/xlink">
<defs id="primary-definitions">
<style id="current-color-scheme" type="text/css">
      .ColorScheme-Text         { color: #232629; }
      .ColorScheme-Background   { color: #eff0f1; }
      .ColorScheme-Highlight    { color: #7ec9f0; }
      .ColorScheme-PositiveText { color: #27ae60; }
      .ColorScheme-NeutralText  { color: #f67400; }
      .ColorScheme-NegativeText { color: #da4453; }
      .ColorScheme-ActiveText   { color: #3daee9; }
      .ColorScheme-Complement   { color: #ffffff; }
      .ColorScheme-Contrast     { color: #000000; }
    </style>
<style id="extended-color-scheme" type="text/css">
      .ExScheme-Black     { color:#3e3e3e; }
      .ExScheme-White     { color:#fcfcfc; }
      .ExScheme-Grey-1    { color:#cfd5d5; }
      .ExScheme-Grey-2    { color:#909c9c; }
      .ExScheme-Grey-3    { color:#536161; }
      .ExScheme-Red-1     { color:#ffafa5; }
      .ExScheme-Red-2     { color:#bf4231; }
      .ExScheme-Red-3     { color:#4d2f2b; }
      .ExScheme-Green-1   { color:#abf9c7; }
      .ExScheme-Green-2   { color:#3bb566; }
      .ExScheme-Green-3   { color:#377d50; }
      .ExScheme-Blue-1    { color:#abdaf9; }
      .ExScheme-Blue-2    { color:#3daefd; }
      .ExScheme-Blue-3    { color:#2b3c4d; }
      .ExScheme-Yellow-1  { color:#faffa5; }
      .ExScheme-Yellow-2  { color:#cac726; }
      .ExScheme-Yellow-3  { color:#4b4d2b; }
      .ExScheme-Orange-1  { color:#ffdaa5; }
      .ExScheme-Orange-2  { color:#ff9701; }
      .ExScheme-Orange-3  { color:#4d372b; }
      .ExScheme-Brown-1   { color:#e9d6bb; }
      .ExScheme-Brown-2   { color:#997657; }
      .ExScheme-Brown-3   { color:#433a35; }
      .ExScheme-Purple-1  { color:#e2abf9; }
      .ExScheme-Purple-2  { color:#b401ff; }
      .ExScheme-Purple-3  { color:#432b4d; }
      .ExScheme-Cyan-1    { color:#b2f2e6; }
      .ExScheme-Cyan-2    { color:#31bfa6; }
      .ExScheme-Cyan-3    { color:#2b4d47; }
      .ExScheme-Magenta-1 { color:#f8a6d8; }
      .ExScheme-Magenta-2 { color:#f00091; }
      .ExScheme-Magenta-3 { color:#770048; }
    </style>
<linearGradient id="uMa">
<stop offset="0"/>
<stop offset="1" stop-opacity="0"/>
</linearGradient>
<linearGradient id="uMb">
<stop offset="0" stop-color="#fff"/>
<stop offset="1" stop-color="#fff" stop-opacity="0"/>
</linearGradient>
<style id="uMc" type="text/css">
        .force-display-for-editing { display: inline !important; }
    </style><style class="remove-if__show-crease" type="text/css">
        .enable-if__show-crease { display: none; }
    </style><style class="remove-if__color-sync-mimes-places" type="text/css">
        .enable-if__color-sync-mimes-places { display: none; }
    </style><radialGradient cx=".5" cy="0" id="uMd" r="1" xlink:href="#uMb"/><linearGradient id="uMe" xlink:href="#uMa" y1="1" y2=".5"/><style class="ColorScheme-Background" fill="currentColor" opacity=".6" type="text/css">
   .ColorScheme-Text           { color:#eff0f1; }
      .ColorScheme-Background     { color:#31363b; }
      .ColorScheme-Highlight      { color:#3daefd; }
      .ColorScheme-ViewBackground { color:#fcfcfc; }
      .ColorScheme-PositiveText   { color:#27ae60; }
      .ColorScheme-NeutralText    { color:#f67400; }
      .ColorScheme-NegativeText   { color:#da4453; }
  </style><path d="M 7,6 C 5.9,6 5,6.9 5,8 v 2 4 c -1.1,0 -2,.9 -2,2 v 24 c 0,1.1 .9,2 2,2 h 38 c 1.1,0 2,-.9 2,-2 V 25 16 14 c 0,-1.1 -.9,-2 -2,-2 V 10 C 43,8.9 42.1,8 41,8 H 21 C 18,8 18,6 15,6 Z" id="uMf"></path><path d="m 12.83,15.7 c -1,0 -1.8,.9 -1.96,1.9 .04,.64 -.46,1 -1.07,.93 -.6,.07 -1.2,-.1 -1.8,.03 -.9,.4 -.26,1.63 .57,1.46 .56,.03 1.1,.03 1.67,-0 -.3,.37 -.7,.7 -.9,1.17 -.3,.6 -.25,1.57 .5,1.83 .63,.2 1.3,-.3 1.4,-.93 .03,-.66 .35,-1.2 1,-1.4 .9,-.4 1.9,-.54 2.9,-.44 .73,-0 -.1,.7 -.13,1.1 -.2,.54 -.4,1.3 .1,1.7 .5,.4 1.14,.06 1.45,-.4 .43,-.54 .8,-1.2 .8,-1.9 -.03,-.3 .6,-.9 .8,-.83 -.14,.56 -.16,1.37 .47,1.64 .6,.3 1.14,-.2 1.6,-.5 .5,-.4 1.07,-.74 1.37,-1.3 .3,-1 -1.07,-1.3 -1.57,-.53 -.23,.15 -.56,.56 -.43,.03 -.05,-.8 -.97,-1.2 -1.66,-1 -.6,0 -1.2,.66 -1.6,.76 -.34,-.3 -.9,-.3 -1.37,-.33 -.5,-0 -1.05,.06 -1.56,.13 .65,-.3 .95,-1.13 .86,-1.8 -.1,-.7 -.73,-1.3 -1.44,-1.3 z" id="uMg" opacity=".6"></path><path d="M 7,6 C 5.9,6 5,6.9 5,8 v 2 4 h 10 c 3,0 3,-2 6,-2 H 43 V 10 C 43,8.9 42.1,8 41,8 H 21 C 18,8 18,6 15,6 Z" id="uMh"></path></defs>
<g id="content" transform="translate(0,0)"><use class="sync-color enable-if__color-sync-mimes-places force-display-for-editing ColorScheme-ActiveText" fill="currentColor" href="#uMf"></use><use class="primary-color remove-if__color-sync-mimes-places ColorScheme-ActiveText" fill="currentColor" href="#uMf"></use><use class="ColorScheme-Contrast" fill="currentColor" href="#uMf" opacity=".1"></use><g id="decal" transform="translate(12,15)"><path class="ColorScheme-Background" d="m 15.75,.9 c -.24,-.14 -.54,-.06 -.7,.2 l -0.75,1.3 c -.5,-.3 -1.1,-.1 -1.37,.37 l -4,6.93 2.6,1.5 2.5,-4.33 .43,0.25 c .24,.14 .3,.44 .2,.7 l -3,5.2 c -.14,.24 -.06,.54 .2,.7 .24,.14 .54,.06 .7,-.2 l 3,-5.2 c .4,-.7 .17,-1.63 -.55,-2.05 l -.43,-0.25 1,-1.73 c .3,-.5 .1,-1.1 -.37,-1.37 l 0.75,-1.3 C 16.07,1.36 16,1.05 15.75,.9 Z M 8.45,10.56 4.66,17.13 C 3.15,19.74 3,23 3,23 3,23 5.75,21.24 7.26,18.63 l 3.8,-6.57 z" fill="currentColor" opacity=".6"/><use class="ColorScheme-Background" fill="currentColor" href="#uMg"></use><use class="ColorScheme-Background" fill="currentColor" href="#uMg"></use><path class="ColorScheme-Background" d="M 15.46 .85 C 15.3 .86 15.15 .95 15.07 1.1 L 14.3 2.4 C 13.84 2.1 13.23 2.3 12.95 2.76 L 8.95 9.7 L 11.55 11.2 L 14.05 6.86 L 14.5 7.1 C 14.7 7.25 14.8 7.56 14.67 7.8 L 11.67 13 C 11.53 13.23 11.6 13.54 11.85 13.67 C 12.1 13.8 12.4 13.73 12.53 13.5 L 15.53 8.3 C 15.95 7.6 15.7 6.66 15 6.25 L 14.55 6 L 15.55 4.26 C 15.83 3.8 15.66 3.2 15.2 2.9 L 15.93 1.6 C 16.07 1.36 16 1.05 15.75 .9 C 15.66 .86 15.56 .84 15.46 .85 z M 13.8 2.76 C 13.87 2.76 13.97 2.8 14.07 2.83 L 14.5 3.1 L 14.93 3.33 C 15.2 3.47 15.26 3.77 15.1 4 L 13.87 6.2 L 11.37 10.5 L 9.63 9.5 L 13.4 3 C 13.47 2.86 13.6 2.77 13.8 2.76 z M 14.9 6.8 C 15.2 7.06 15.3 7.5 15.2 7.86 C 15.3 7.5 15.2 7.06 14.9 6.8 z M 8.45 10.56 L 4.66 17.13 C 3.15 19.74 3 23 3 23 C 3 23 5.75 21.24 7.26 18.63 L 11.05 12.06 L 8.45 10.56 z M 8.63 11.24 L 10.37 12.24 L 6.8 18.4 C 5.83 20.1 4.54 21.2 3.66 21.86 C 3.8 20.76 4.2 19.1 5.1 17.4 L 8.63 11.24 z " fill="currentColor" opacity=".6"/></g><use href="#uMh" opacity=".4"></use><use fill="url(#uMe)" href="#uMh" opacity=".1"></use><path d="m 21,12 c -3,0 -3,2 -6,2 H 5 c -1.1,0 -2,.9 -2,2 v 24 c 0,1.1 .9,2 2,2 h 38 c 1.1,0 2,-.9 2,-2 V 25 16 14 c 0,-1.1 -.9,-2 -2,-2 z" fill="url(#uMd)" opacity=".2"/><path class="ColorScheme-Contrast" d="m 3,39 v 1 c 0,1.1 .9,2 2,2 h 38 c 1.1,0 2,-.9 2,-2 v -1 c 0,1.1 -.9,2 -2,2 H 5 C 3.9,41 3,40.1 3,39 Z" fill="currentColor" opacity=".1"/><path class="ColorScheme-Contrast" d="M 3,39.5 V 40 c 0,1.1 .9,2 2,2 h 38 c 1.1,0 2,-.9 2,-2 v -0.5 c 0,1.1 -.9,2 -2,2 H 5 c -1.1,0 -2,-.9 -2,-2 z" fill="currentColor" opacity=".2"/><path d="m 21,12 c -3,0 -3,2 -6,2 H 5 c -1.1,0 -2,.9 -2,2 v 1 c 0,-1.1 .9,-2 2,-2 h 10 c 3,0 3,-2 6,-2 h 22 c 1.1,0 2,.9 2,2 v -1 c 0,-1.1 -.9,-2 -2,-2 z" fill="#fff" opacity=".1"/><path d="m 21,12 c -3,0 -3,2 -6,2 H 5 c -1.1,0 -2,.9 -2,2 v 0.5 c 0,-1.1 .9,-2 2,-2 h 10 c 3,0 3,-2 6,-2 h 22 c 1.1,0 2,.9 2,2 V 14 c 0,-1.1 -.9,-2 -2,-2 z" fill="#fff" opacity=".2"/><path d="m 21,11 c -3,0 -3,2 -6,2 H 5 v 1 h 10 c 3,0 3,-2 6,-2 h 22 v -1 z" opacity=".1"/><path d="m 21,11.5 c -3,0 -3,2 -6,2 H 5 V 14 h 10 c 3,0 3,-2 6,-2 h 22 v -0.5 z" opacity=".2"/></g>
</svg>