<svg height="48" version="1.1" width="48" xmlns="http://www.w3.org/2000/svg" xmlns:svg="http://www.w3.org/2000/svg" xmlns:xlink="http://www.w3.org/1999/xlink">
<defs id="primary-definitions">
<style id="current-color-scheme" type="text/css">
      .ColorScheme-Text           { color:#fff; }
      .ColorScheme-Background     { color:#111; }
      .ColorScheme-Highlight      { color:#3daefd; }
      .ColorScheme-ViewBackground { color:#000; }
      .ColorScheme-PositiveText   { color:#27ae60; }
      .ColorScheme-NeutralText    { color:#f67400; }
      .ColorScheme-NegativeText   { color:#da4453; }
    </style>
<style id="extended-color-scheme" type="text/css">
      .ExScheme-Black     { color:#3e3e3e; }
      .ExScheme-White     { color:#fcfcfc; }
      .ExScheme-Grey-1    { color:#cfd5d5; }
      .ExScheme-Grey-2    { color:#909c9c; }
      .ExScheme-Grey-3    { color:#536161; }
      .ExScheme-Red-1     { color:#ffafa5; }
      .ExScheme-Red-2     { color:#bf4231; }
      .ExScheme-Red-3     { color:#4d2f2b; }
      .ExScheme-Green-1   { color:#abf9c7; }
      .ExScheme-Green-2   { color:#3bb566; }
      .ExScheme-Green-3   { color:#377d50; }
      .ExScheme-Blue-1    { color:#abdaf9; }
      .ExScheme-Blue-2    { color:#3daefd; }
      .ExScheme-Blue-3    { color:#2b3c4d; }
      .ExScheme-Yellow-1  { color:#faffa5; }
      .ExScheme-Yellow-2  { color:#cac726; }
      .ExScheme-Yellow-3  { color:#4b4d2b; }
      .ExScheme-Orange-1  { color:#ffdaa5; }
      .ExScheme-Orange-2  { color:#ff9701; }
      .ExScheme-Orange-3  { color:#4d372b; }
      .ExScheme-Brown-1   { color:#e9d6bb; }
      .ExScheme-Brown-2   { color:#997657; }
      .ExScheme-Brown-3   { color:#433a35; }
      .ExScheme-Purple-1  { color:#e2abf9; }
      .ExScheme-Purple-2  { color:#b401ff; }
      .ExScheme-Purple-3  { color:#432b4d; }
      .ExScheme-Cyan-1    { color:#b2f2e6; }
      .ExScheme-Cyan-2    { color:#31bfa6; }
      .ExScheme-Cyan-3    { color:#2b4d47; }
      .ExScheme-Magenta-1 { color:#f8a6d8; }
      .ExScheme-Magenta-2 { color:#f00091; }
      .ExScheme-Magenta-3 { color:#770048; }
    </style>
<linearGradient id="uE9">
<stop offset="0"/>
<stop offset="1" stop-opacity="0"/>
</linearGradient>
<linearGradient id="uEa">
<stop offset="0" stop-color="#fff"/>
<stop offset="1" stop-color="#fff" stop-opacity="0"/>
</linearGradient>
<style class="toggle-enable-crease" type="text/css">
        .folder-crease { display: none; }
    </style><style class="toggle-manilla-folders" type="text/css">
        .folder-manilla { display: none; }
    </style><radialGradient cx=".5" cy="0" id="uEb" r="1" xlink:href="#uEa"/><linearGradient id="uEc" xlink:href="#uE9" y1="1" y2=".5"/><path d="M 7,6 C 5.9,6 5,6.9 5,8 v 2 4 c -1.1,0 -2,.9 -2,2 v 24 c 0,1.1 .9,2 2,2 h 38 c 1.1,0 2,-.9 2,-2 V 25 16 14 c 0,-1.1 -.9,-2 -2,-2 V 10 C 43,8.9 42.1,8 41,8 H 21 C 18,8 18,6 15,6 Z" id="uEd"></path><path d="M 7,6 C 5.9,6 5,6.9 5,8 v 2 4 h 10 c 3,0 3,-2 6,-2 H 43 V 10 C 43,8.9 42.1,8 41,8 H 21 C 18,8 18,6 15,6 Z" id="uEe"></path></defs>
<g id="content" transform="translate(0,0)"><use class="folder-manilla ExScheme-Brown-1" fill="currentColor" href="#uEd"></use><use class="toggle-manilla-folders ColorScheme-Highlight" fill="currentColor" href="#uEd" id="primary-color"></use><use class="ColorScheme-Text" fill="currentColor" href="#uEd" opacity=".1"></use><g id="emblem" transform="translate(12,15)"><path class="ColorScheme-Background" d="M 4 3 C 2.9 3 2 3.9 2 5 L 2 19 C 2 20.1 2.9 21 4 21 L 20 21 C 21.1 21 22 20.1 22 19 L 22 5 C 22 3.9 21.1 3 20 3 L 4 3 z M 4 4 L 20 4 C 20.55 4 21 4.45 21 5 L 21 19 C 21 19.55 20.55 20 20 20 L 4 20 C 3.45 20 3 19.55 3 19 L 3 5 C 3 4.45 3.45 4 4 4 z " fill="currentColor" opacity=".6" stop-color="#000000"/><path class="ColorScheme-Background" d="M 4 5 L 4 7 L 8 7 L 8 5 L 4 5 z M 9 5 L 9 7 L 15 7 L 15 5 L 9 5 z M 16 5 L 16 7 L 20 7 L 20 5 L 16 5 z M 4 8 L 4 10 L 8 10 L 8 8 L 4 8 z M 9 8 L 9 10 L 15 10 L 15 8 L 9 8 z M 16 8 L 16 10 L 20 10 L 20 8 L 16 8 z M 4 11 L 4 13 L 8 13 L 8 11 L 4 11 z M 9 11 L 9 13 L 15 13 L 15 11 L 9 11 z M 16 11 L 16 13 L 20 13 L 20 11 L 16 11 z M 4 14 L 4 16 L 8 16 L 8 14 L 4 14 z M 9 14 L 9 16 L 15 16 L 15 14 L 9 14 z M 16 14 L 16 16 L 20 16 L 20 14 L 16 14 z M 4 17 L 4 19 L 8 19 L 8 17 L 4 17 z M 9 17 L 9 19 L 15 19 L 15 17 L 9 17 z M 16 17 L 16 19 L 20 19 L 20 17 L 16 17 z " fill="currentColor" opacity=".6" stop-color="#000000"/><path class="ColorScheme-Background" d="M 4,3 C 2.9,3 2,3.9 2,5 v 14 c 0,1.1 .9,2 2,2 h 16 c 1.1,0 2,-.9 2,-2 V 5 C 22,3.9 21.1,3 20,3 Z m 0,1 h 16 c .55,0 1,.45 1,1 v 14 c 0,.55 -.45,1 -1,1 H 4 C 3.45,20 3,19.55 3,19 V 5 C 3,4.45 3.45,4 4,4 Z" fill="currentColor" opacity=".6" stop-color="#000000"/><path class="ColorScheme-Background" d="M 4 5 L 4 7 L 8 7 L 8 5 L 4 5 z M 9 5 L 9 7 L 15 7 L 15 5 L 9 5 z M 16 5 L 16 7 L 20 7 L 20 5 L 16 5 z M 4.5 5.5 L 7.5 5.5 L 7.5 6.5 L 4.5 6.5 L 4.5 5.5 z M 9.5 5.5 L 14.5 5.5 L 14.5 6.5 L 9.5 6.5 L 9.5 5.5 z M 16.5 5.5 L 19.5 5.5 L 19.5 6.5 L 16.5 6.5 L 16.5 5.5 z M 4 8 L 4 10 L 8 10 L 8 8 L 4 8 z M 9 8 L 9 10 L 15 10 L 15 8 L 9 8 z M 16 8 L 16 10 L 20 10 L 20 8 L 16 8 z M 4.5 8.5 L 7.5 8.5 L 7.5 9.5 L 4.5 9.5 L 4.5 8.5 z M 9.5 8.5 L 14.5 8.5 L 14.5 9.5 L 9.5 9.5 L 9.5 8.5 z M 16.5 8.5 L 19.5 8.5 L 19.5 9.5 L 16.5 9.5 L 16.5 8.5 z M 4 11 L 4 13 L 8 13 L 8 11 L 4 11 z M 9 11 L 9 13 L 15 13 L 15 11 L 9 11 z M 16 11 L 16 13 L 20 13 L 20 11 L 16 11 z M 4.5 11.5 L 7.5 11.5 L 7.5 12.5 L 4.5 12.5 L 4.5 11.5 z M 9.5 11.5 L 14.5 11.5 L 14.5 12.5 L 9.5 12.5 L 9.5 11.5 z M 16.5 11.5 L 19.5 11.5 L 19.5 12.5 L 16.5 12.5 L 16.5 11.5 z M 4 14 L 4 16 L 8 16 L 8 14 L 4 14 z M 9 14 L 9 16 L 15 16 L 15 14 L 9 14 z M 16 14 L 16 16 L 20 16 L 20 14 L 16 14 z M 4.5 14.5 L 7.5 14.5 L 7.5 15.5 L 4.5 15.5 L 4.5 14.5 z M 9.5 14.5 L 14.5 14.5 L 14.5 15.5 L 9.5 15.5 L 9.5 14.5 z M 16.5 14.5 L 19.5 14.5 L 19.5 15.5 L 16.5 15.5 L 16.5 14.5 z M 4 17 L 4 19 L 8 19 L 8 17 L 4 17 z M 9 17 L 9 19 L 15 19 L 15 17 L 9 17 z M 16 17 L 16 19 L 20 19 L 20 17 L 16 17 z M 4.5 17.5 L 7.5 17.5 L 7.5 18.5 L 4.5 18.5 L 4.5 17.5 z M 9.5 17.5 L 14.5 17.5 L 14.5 18.5 L 9.5 18.5 L 9.5 17.5 z M 16.5 17.5 L 19.5 17.5 L 19.5 18.5 L 16.5 18.5 L 16.5 17.5 z " fill="currentColor" opacity=".6"/></g><use href="#uEe" opacity=".4"></use><use class="toggle-flat-design" fill="url(#uEc)" href="#uEe" opacity=".1"></use><path class="toggle-flat-design" d="m 21,12 c -3,0 -3,2 -6,2 H 5 c -1.1,0 -2,.9 -2,2 v 24 c 0,1.1 .9,2 2,2 h 38 c 1.1,0 2,-.9 2,-2 V 25 16 14 c 0,-1.1 -.9,-2 -2,-2 z" fill="url(#uEb)" opacity=".2"/><path class="folder-crease " d="m 3,33 v 1 H 9.5 C 9.8,34 10,33.8 10,33.5 10,33.2 9.8,33 9.5,33 Z m 35.5,0 c -.3,0 -0.5,.2 -0.5,0.5 0,.3 .2,0.5 0.5,0.5 H 45 v -1 z" opacity=".4"/><path class="ColorScheme-Text" d="m 3,39 v 1 c 0,1.1 .9,2 2,2 h 38 c 1.1,0 2,-.9 2,-2 v -1 c 0,1.1 -.9,2 -2,2 H 5 C 3.9,41 3,40.1 3,39 Z" fill="currentColor" opacity=".1"/><path class="ColorScheme-Text" d="M 3,39.5 V 40 c 0,1.1 .9,2 2,2 h 38 c 1.1,0 2,-.9 2,-2 v -0.5 c 0,1.1 -.9,2 -2,2 H 5 c -1.1,0 -2,-.9 -2,-2 z" fill="currentColor" opacity=".2"/><path d="m 21,12 c -3,0 -3,2 -6,2 H 5 c -1.1,0 -2,.9 -2,2 v 1 c 0,-1.1 .9,-2 2,-2 h 10 c 3,0 3,-2 6,-2 h 22 c 1.1,0 2,.9 2,2 v -1 c 0,-1.1 -.9,-2 -2,-2 z" fill="#fff" opacity=".1"/><path d="m 21,12 c -3,0 -3,2 -6,2 H 5 c -1.1,0 -2,.9 -2,2 v 0.5 c 0,-1.1 .9,-2 2,-2 h 10 c 3,0 3,-2 6,-2 h 22 c 1.1,0 2,.9 2,2 V 14 c 0,-1.1 -.9,-2 -2,-2 z" fill="#fff" opacity=".2"/><path d="m 21,11 c -3,0 -3,2 -6,2 H 5 v 1 h 10 c 3,0 3,-2 6,-2 h 22 v -1 z" opacity=".1"/><path d="m 21,11.5 c -3,0 -3,2 -6,2 H 5 V 14 h 10 c 3,0 3,-2 6,-2 h 22 v -0.5 z" opacity=".2"/></g>
</svg>