<svg height="48" version="1.1" width="48" xmlns="http://www.w3.org/2000/svg" xmlns:svg="http://www.w3.org/2000/svg" xmlns:xlink="http://www.w3.org/1999/xlink">
<defs id="primary-definitions">
<style id="current-color-scheme" type="text/css">
      .ColorScheme-Text         { color: #232629; }
      .ColorScheme-Background   { color: #eff0f1; }
      .ColorScheme-Highlight    { color: #7ec9f0; }
      .ColorScheme-PositiveText { color: #27ae60; }
      .ColorScheme-NeutralText  { color: #f67400; }
      .ColorScheme-NegativeText { color: #da4453; }
      .ColorScheme-ActiveText   { color: #3daee9; }
      .ColorScheme-Complement   { color: #ffffff; }
      .ColorScheme-Contrast     { color: #000000; }
    </style>
<style id="extended-color-scheme" type="text/css">
      .ExScheme-Black     { color:#3e3e3e; }
      .ExScheme-White     { color:#fcfcfc; }
      .ExScheme-Grey-1    { color:#cfd5d5; }
      .ExScheme-Grey-2    { color:#909c9c; }
      .ExScheme-Grey-3    { color:#536161; }
      .ExScheme-Red-1     { color:#ffafa5; }
      .ExScheme-Red-2     { color:#bf4231; }
      .ExScheme-Red-3     { color:#4d2f2b; }
      .ExScheme-Green-1   { color:#abf9c7; }
      .ExScheme-Green-2   { color:#3bb566; }
      .ExScheme-Green-3   { color:#377d50; }
      .ExScheme-Blue-1    { color:#abdaf9; }
      .ExScheme-Blue-2    { color:#3daefd; }
      .ExScheme-Blue-3    { color:#2b3c4d; }
      .ExScheme-Yellow-1  { color:#faffa5; }
      .ExScheme-Yellow-2  { color:#cac726; }
      .ExScheme-Yellow-3  { color:#4b4d2b; }
      .ExScheme-Orange-1  { color:#ffdaa5; }
      .ExScheme-Orange-2  { color:#ff9701; }
      .ExScheme-Orange-3  { color:#4d372b; }
      .ExScheme-Brown-1   { color:#e9d6bb; }
      .ExScheme-Brown-2   { color:#997657; }
      .ExScheme-Brown-3   { color:#433a35; }
      .ExScheme-Purple-1  { color:#e2abf9; }
      .ExScheme-Purple-2  { color:#b401ff; }
      .ExScheme-Purple-3  { color:#432b4d; }
      .ExScheme-Cyan-1    { color:#b2f2e6; }
      .ExScheme-Cyan-2    { color:#31bfa6; }
      .ExScheme-Cyan-3    { color:#2b4d47; }
      .ExScheme-Magenta-1 { color:#f8a6d8; }
      .ExScheme-Magenta-2 { color:#f00091; }
      .ExScheme-Magenta-3 { color:#770048; }
    </style>
<linearGradient id="ujR">
<stop offset="0"/>
<stop offset="1" stop-opacity="0"/>
</linearGradient>
<linearGradient id="ujS">
<stop offset="0" stop-color="#fff"/>
<stop offset="1" stop-color="#fff" stop-opacity="0"/>
</linearGradient>
<style id="ujT" type="text/css">
        .force-display-for-editing { display: inline !important; }
    </style><style class="remove-if__show-crease" type="text/css">
        .enable-if__show-crease { display: none; }
    </style><style class="remove-if__color-sync-mimes-places" type="text/css">
        .enable-if__color-sync-mimes-places { display: none; }
    </style><radialGradient cx=".5" cy="0" id="ujU" r="1" xlink:href="#ujS"/><linearGradient id="ujV" xlink:href="#ujR" y1="1" y2=".5"/><style class="ColorScheme-Background" fill="currentColor" opacity=".6" type="text/css">
   .ColorScheme-Text           { color:#eff0f1; }
      .ColorScheme-Background     { color:#31363b; }
      .ColorScheme-Highlight      { color:#3daefd; }
      .ColorScheme-ViewBackground { color:#fcfcfc; }
      .ColorScheme-PositiveText   { color:#27ae60; }
      .ColorScheme-NeutralText    { color:#f67400; }
      .ColorScheme-NegativeText   { color:#da4453; }
  </style><path d="M 7,6 C 5.9,6 5,6.9 5,8 v 2 4 c -1.1,0 -2,.9 -2,2 v 24 c 0,1.1 .9,2 2,2 h 38 c 1.1,0 2,-.9 2,-2 V 25 16 14 c 0,-1.1 -.9,-2 -2,-2 V 10 C 43,8.9 42.1,8 41,8 H 21 C 18,8 18,6 15,6 Z" id="ujW"></path><path d="M 7,6 C 5.9,6 5,6.9 5,8 v 2 4 h 10 c 3,0 3,-2 6,-2 H 43 V 10 C 43,8.9 42.1,8 41,8 H 21 C 18,8 18,6 15,6 Z" id="ujX"></path></defs>
<g id="content" transform="translate(0,0)"><use class="sync-color enable-if__color-sync-mimes-places force-display-for-editing ColorScheme-ActiveText" fill="currentColor" href="#ujW"></use><use class="primary-color remove-if__color-sync-mimes-places ColorScheme-ActiveText" fill="currentColor" href="#ujW"></use><use class="ColorScheme-Contrast" fill="currentColor" href="#ujW" opacity=".1"></use><use href="#ujX" opacity=".4"></use><g id="panorama" transform="translate(3,12)"><path class="ColorScheme-Background" d="M 16 0 L 16 13 L 14 13 C 13.1 13 12.66 14.1 13.3 14.7 L 21 22.5 L 28.7 14.7 C 29.34 14.1 28.9 13 28 13 L 26 13 L 26 0 L 16 0 z M 13 19 C 12.6 19 12.13 19.1 11.94 19.44 L 9.5 23.5 C 9.07 24.2 10.17 25 11 25 L 31 25 C 31.83 25 32.93 24.2 32.5 23.5 L 30.06 19.44 C 29.87 19.1 29.4 19 29 19 L 25.87 19 L 21.7 23.2 C 21.3 23.6 20.7 23.6 20.3 23.2 L 16.13 19 L 13 19 z M 9 25.13 L 9 26.5 C 9 27.33 9.67 28 10.5 28 L 31.5 28 C 32.33 28 33 27.33 33 26.5 L 33 25.13 C 32.8 25.6 32.1 26 31.5 26 L 10.5 26 C 9.9 26 9.2 25.6 9 25.13 z " fill="currentColor" opacity=".6" stop-color="#000000"/><path class="ColorScheme-Background" d="M 16 0 L 16 13 L 14 13 C 13.1 13 12.66 14.1 13.3 14.7 L 21 22.5 L 28.7 14.7 C 29.34 14.1 28.9 13 28 13 L 26 13 L 26 0 L 16 0 z M 16.5 0.5 L 25.5 0.5 L 25.5 13 A .5 .5 0 0 0 26 13.5 L 28 13.5 C 28.24 13.5 28.4 13.63 28.46 13.8 C 28.54 14 28.53 14.2 28.35 14.35 A .5 .5 0 0 0 28.35 14.36 L 21 21.8 L 13.65 14.36 A .5 .5 0 0 0 13.65 14.35 C 13.47 14.2 13.46 14 13.54 13.8 C 13.6 13.63 13.76 13.5 14 13.5 L 16 13.5 A .5 .5 0 0 0 16.5 13 L 16.5 0.5 z M 13 19 C 12.6 19 12.13 19.1 11.94 19.44 L 9.5 23.5 C 9.07 24.2 10.17 25 11 25 L 31 25 C 31.83 25 32.93 24.2 32.5 23.5 L 30.06 19.44 C 29.87 19.1 29.4 19 29 19 L 25.87 19 L 21.7 23.2 C 21.3 23.6 20.7 23.6 20.3 23.2 L 16.13 19 L 13 19 z M 13 19.5 L 15.9 19.5 L 19.93 23.55 C 20.5 24.14 21.5 24.14 22.07 23.55 L 26.1 19.5 L 29 19.5 C 29.33 19.5 29.6 19.6 29.63 19.7 L 32.07 23.76 A .5 .5 0 0 0 32.07 23.76 C 32.1 23.8 32.1 23.8 32.1 23.9 C 32.07 23.94 32 24.04 31.9 24.14 C 31.66 24.34 31.26 24.5 31 24.5 L 11 24.5 C 10.74 24.5 10.34 24.34 10.1 24.14 C 10 24.04 9.93 23.94 9.9 23.9 C 9.9 23.8 9.9 23.8 9.93 23.76 A .5 .5 0 0 0 9.93 23.76 L 12.37 19.7 C 12.4 19.6 12.67 19.5 13 19.5 z M 9 25.13 L 9 26.5 C 9 27.33 9.67 28 10.5 28 L 31.5 28 C 32.33 28 33 27.33 33 26.5 L 33 25.13 C 32.8 25.6 32.1 26 31.5 26 L 10.5 26 C 9.9 26 9.2 25.6 9 25.13 z M 9.5 26.24 C 9.8 26.4 10.15 26.5 10.5 26.5 L 31.5 26.5 C 31.85 26.5 32.2 26.4 32.5 26.24 L 32.5 26.5 C 32.5 27.06 32.06 27.5 31.5 27.5 L 10.5 27.5 C 9.94 27.5 9.5 27.06 9.5 26.5 L 9.5 26.24 z " fill="currentColor" opacity=".6"/></g><use fill="url(#ujV)" href="#ujX" opacity=".1"></use><path d="m 21,12 c -3,0 -3,2 -6,2 H 5 c -1.1,0 -2,.9 -2,2 v 24 c 0,1.1 .9,2 2,2 h 38 c 1.1,0 2,-.9 2,-2 V 25 16 14 c 0,-1.1 -.9,-2 -2,-2 z" fill="url(#ujU)" opacity=".2"/><path class="ColorScheme-Contrast" d="m 3,39 v 1 c 0,1.1 .9,2 2,2 h 38 c 1.1,0 2,-.9 2,-2 v -1 c 0,1.1 -.9,2 -2,2 H 5 C 3.9,41 3,40.1 3,39 Z" fill="currentColor" opacity=".1"/><path class="ColorScheme-Contrast" d="M 3,39.5 V 40 c 0,1.1 .9,2 2,2 h 38 c 1.1,0 2,-.9 2,-2 v -0.5 c 0,1.1 -.9,2 -2,2 H 5 c -1.1,0 -2,-.9 -2,-2 z" fill="currentColor" opacity=".2"/><path d="m 21,12 c -3,0 -3,2 -6,2 H 5 c -1.1,0 -2,.9 -2,2 v 1 c 0,-1.1 .9,-2 2,-2 h 10 c 3,0 3,-2 6,-2 h 22 c 1.1,0 2,.9 2,2 v -1 c 0,-1.1 -.9,-2 -2,-2 z" fill="#fff" opacity=".1"/><path d="m 21,12 c -3,0 -3,2 -6,2 H 5 c -1.1,0 -2,.9 -2,2 v 0.5 c 0,-1.1 .9,-2 2,-2 h 10 c 3,0 3,-2 6,-2 h 22 c 1.1,0 2,.9 2,2 V 14 c 0,-1.1 -.9,-2 -2,-2 z" fill="#fff" opacity=".2"/><path d="m 21,11 c -3,0 -3,2 -6,2 H 5 v 1 h 10 c 3,0 3,-2 6,-2 h 22 v -1 z" opacity=".1"/><path d="m 21,11.5 c -3,0 -3,2 -6,2 H 5 V 14 h 10 c 3,0 3,-2 6,-2 h 22 v -0.5 z" opacity=".2"/></g>
</svg>