<?xml version="1.0" encoding="utf-8"?><svg height="48" width="48" xmlns="http://www.w3.org/2000/svg" xmlns:svg="http://www.w3.org/2000/svg" xmlns:xlink="http://www.w3.org/1999/xlink"><defs id="primary-definitions"><style id="current-color-scheme" type="text/css">.ColorScheme-Text           { color:#fff; }
      .ColorScheme-Background     { color:#111; }
      .ColorScheme-Highlight      { color:#3daefd; }
      .ColorScheme-ViewBackground { color:#000; }
      .ColorScheme-PositiveText   { color:#27ae60; }
      .ColorScheme-NeutralText    { color:#f67400; }
      .ColorScheme-NegativeText   { color:#da4453; }
  </style><style id="extended-color-scheme" type="text/css">.ExScheme-Black     { color:#3e3e3e; }
      .ExScheme-White     { color:#fcfcfc; }
      .ExScheme-Grey-1    { color:#cfd5d5; }
      .ExScheme-Grey-2    { color:#909c9c; }
      .ExScheme-Grey-3    { color:#536161; }
      .ExScheme-Red-1     { color:#ffafa5; }
      .ExScheme-Red-2     { color:#bf4231; }
      .ExScheme-Red-3     { color:#4d2f2b; }
      .ExScheme-Green-1   { color:#abf9c7; }
      .ExScheme-Green-2   { color:#3bb566; }
      .ExScheme-Green-3   { color:#377d50; }
      .ExScheme-Blue-1    { color:#abdaf9; }
      .ExScheme-Blue-2    { color:#3daefd; }
      .ExScheme-Blue-3    { color:#2b3c4d; }
      .ExScheme-Yellow-1  { color:#faffa5; }
      .ExScheme-Yellow-2  { color:#cac726; }
      .ExScheme-Yellow-3  { color:#4b4d2b; }
      .ExScheme-Orange-1  { color:#ffdaa5; }
      .ExScheme-Orange-2  { color:#ff9701; }
      .ExScheme-Orange-3  { color:#4d372b; }
      .ExScheme-Brown-1   { color:#e9d6bb; }
      .ExScheme-Brown-2   { color:#997657; }
      .ExScheme-Brown-3   { color:#433a35; }
      .ExScheme-Purple-1  { color:#e2abf9; }
      .ExScheme-Purple-2  { color:#b401ff; }
      .ExScheme-Purple-3  { color:#432b4d; }
      .ExScheme-Cyan-1    { color:#b2f2e6; }
      .ExScheme-Cyan-2    { color:#31bfa6; }
      .ExScheme-Cyan-3    { color:#2b4d47; }
      .ExScheme-Magenta-1 { color:#f8a6d8; }
      .ExScheme-Magenta-2 { color:#f00091; }
      .ExScheme-Magenta-3 { color:#770048; }
  </style><linearGradient id="gradientDark"><stop offset="0"/><stop offset="1" stop-opacity="0"/></linearGradient><linearGradient id="gradientLight"><stop offset="0" stop-color="#fff"/><stop offset="1" stop-color="#fff" stop-opacity="0"/></linearGradient><style class="toggle-enable-crease" type="text/css">.folder-crease { display: none; }
  </style><style class="toggle-manilla-folders" type="text/css">.folder-manilla { display: none; }
  </style><radialGradient cx=".5" cy="0" id="gl1" r="1" xlink:href="#gradientLight"/><linearGradient id="gd1" xlink:href="#gradientDark" y1="1" y2=".5"/><path d="M 7,6 C 5.892,6 5,6.892 5,8 v 2 4 c -1.108,0 -2,0.892 -2,2 v 24 c 0,1.108 0.892,2 2,2 h 38 c 1.108,0 2,-0.892 2,-2 V 25 16 14 c 0,-1.108 -0.892,-2 -2,-2 V 10 C 43,8.892 42.108,8 41,8 H 21 C 18,8 18,6 15,6 Z" id="use-path-7p"/><path d="M 7,6 C 5.892,6 5,6.892 5,8 v 2 4 h 10 c 3,0 3,-2 6,-2 H 43 V 10 C 43,8.892 42.108,8 41,8 H 21 C 18,8 18,6 15,6 Z" id="use-path-7q"/></defs><g id="content"><namedview bordercolor="#666666" borderopacity="1.0" current-layer="svg49" cx="24" cy="24" pagecheckerboard="0" pagecolor="#fff" pageopacity="0.0" pageshadow="2" showgrid="true" window-height="1017" window-maximized="1" window-width="1920" window-x="0" window-y="0" zoom="13.25"><grid type="xygrid"/></namedview><use class="folder-manilla ExScheme-Brown-1" fill="currentColor" href="#use-path-7p"/><use class="toggle-manilla-folders ColorScheme-Highlight" fill="currentColor" href="#use-path-7p" id="primary-color"/><use class="ColorScheme-Text" fill="currentColor" href="#use-path-7p" opacity=".1"/><g id="emblem" transform="translate(12,15)"><path class="ColorScheme-Background" d="m 12,3 a 1,1 0 0 0 -.92,.61 l -1.84,4.332 -4.688,.41 A 1,1 0 0 0 3.984,10.102 l 3.55,3.088 -1.06,4.586 a 1,1 0 0 0 1.49,1.082 L 12,16.434 l 4.033,2.424 a 1,1 0 0 0 1.49,-1.082 l -1.06,-4.586 3.55,-3.088 A 1,1 0 0 0 19.447,8.352 L 14.76,7.94 12.92,3.61 A 1,1 0 0 0 12,3 Z" fill="currentColor" opacity=".6"/><path class="ColorScheme-Background" d="M 12 3 A 1 1 0 0 0 11.08 3.61 L 9.24 7.94 L 4.553 8.352 A 1 1 0 0 0 3.984 10.102 L 7.535 13.19 L 6.477 17.775 A 1 1 0 0 0 7.967 18.857 L 12 16.434 L 16.033 18.857 A 1 1 0 0 0 17.523 17.775 L 16.465 13.19 L 20.016 10.102 A 1 1 0 0 0 19.447 8.352 L 14.76 7.94 L 12.92 3.61 A 1 1 0 0 0 12 3 z M 12 3.5 C 12.202 3.5 12.38 3.62 12.46 3.805 L 14.3 8.137 A .5 .5 0 0 0 14.717 8.44 L 19.404 8.85 C 19.643 8.872 19.775 9.01 19.834 9.193 C 19.894 9.377 19.87 9.566 19.688 9.725 L 16.137 12.812 A .5 .5 0 0 0 15.98 13.303 L 17.037 17.89 C 17.09 18.124 17 18.293 16.844 18.406 C 16.687 18.52 16.498 18.554 16.29 18.43 L 12.258 16.006 A .5 .5 0 0 0 11.742 16.006 L 7.71 18.43 C 7.502 18.554 7.313 18.52 7.156 18.406 C 7 18.293 6.91 18.124 6.963 17.89 L 8.02 13.303 A .5 .5 0 0 0 7.863 12.812 L 4.312 9.725 C 4.13 9.566 4.106 9.377 4.166 9.193 C 4.225 9.01 4.357 8.872 4.596 8.85 L 9.283 8.44 A .5 .5 0 0 0 9.7 8.137 L 11.54 3.805 C 11.62 3.62 11.798 3.5 12 3.5 z " fill="currentColor" opacity=".6"/></g><use href="#use-path-7q" opacity=".4"/><use class="toggle-flat-design" fill="url(#gd1)" href="#use-path-7q" opacity=".1"/><path class="toggle-flat-design" d="m 21,12 c -3,0 -3,2 -6,2 H 5 c -1.108,0 -2,0.892 -2,2 v 24 c 0,1.108 0.892,2 2,2 h 38 c 1.108,0 2,-0.892 2,-2 V 25 16 14 c 0,-1.108 -0.892,-2 -2,-2 z" fill="url(#gl1)" opacity=".2"/><path class="folder-crease" d="m 3,33 v 1 H 9.5 C 9.777,34 10,33.777 10,33.5 10,33.223 9.777,33 9.5,33 Z m 35.5,0 c -0.277,0 -0.5,0.223 -0.5,0.5 0,0.277 0.223,0.5 0.5,0.5 H 45 v -1 z" opacity=".4"/><path class="ColorScheme-Text" d="m 3,39 v 1 c 0,1.108 0.892,2 2,2 h 38 c 1.108,0 2,-0.892 2,-2 v -1 c 0,1.108 -0.892,2 -2,2 H 5 C 3.892,41 3,40.108 3,39 Z" fill="currentColor" opacity=".1"/><path class="ColorScheme-Text" d="M 3,39.5 V 40 c 0,1.108 0.892,2 2,2 h 38 c 1.108,0 2,-0.892 2,-2 v -0.5 c 0,1.108 -0.892,2 -2,2 H 5 c -1.108,0 -2,-0.892 -2,-2 z" fill="currentColor" opacity=".2"/><path d="m 21,12 c -3,0 -3,2 -6,2 H 5 c -1.108,0 -2,0.892 -2,2 v 1 c 0,-1.108 0.892,-2 2,-2 h 10 c 3,0 3,-2 6,-2 h 22 c 1.108,0 2,0.892 2,2 v -1 c 0,-1.108 -0.892,-2 -2,-2 z" fill="#fff" opacity=".1"/><path d="m 21,12 c -3,0 -3,2 -6,2 H 5 c -1.108,0 -2,0.892 -2,2 v 0.5 c 0,-1.108 0.892,-2 2,-2 h 10 c 3,0 3,-2 6,-2 h 22 c 1.108,0 2,0.892 2,2 V 14 c 0,-1.108 -0.892,-2 -2,-2 z" fill="#fff" opacity=".2"/><path d="m 21,11 c -3,0 -3,2 -6,2 H 5 v 1 h 10 c 3,0 3,-2 6,-2 h 22 v -1 z" opacity=".1"/><path d="m 21,11.5 c -3,0 -3,2 -6,2 H 5 V 14 h 10 c 3,0 3,-2 6,-2 h 22 v -0.5 z" opacity=".2"/></g></svg>