<svg height="48" version="1.1" width="48" xmlns="http://www.w3.org/2000/svg" xmlns:svg="http://www.w3.org/2000/svg" xmlns:xlink="http://www.w3.org/1999/xlink">
<defs id="primary-definitions">
<style id="current-color-scheme" type="text/css">
      .ColorScheme-Text         { color: #232629; }
      .ColorScheme-Background   { color: #eff0f1; }
      .ColorScheme-Highlight    { color: #7ec9f0; }
      .ColorScheme-PositiveText { color: #27ae60; }
      .ColorScheme-NeutralText  { color: #f67400; }
      .ColorScheme-NegativeText { color: #da4453; }
      .ColorScheme-ActiveText   { color: #3daee9; }
      .ColorScheme-Complement   { color: #ffffff; }
      .ColorScheme-Contrast     { color: #000000; }
    </style>
<style id="extended-color-scheme" type="text/css">
      .ExScheme-Black     { color:#3e3e3e; }
      .ExScheme-White     { color:#fcfcfc; }
      .ExScheme-Grey-1    { color:#cfd5d5; }
      .ExScheme-Grey-2    { color:#909c9c; }
      .ExScheme-Grey-3    { color:#536161; }
      .ExScheme-Red-1     { color:#ffafa5; }
      .ExScheme-Red-2     { color:#bf4231; }
      .ExScheme-Red-3     { color:#4d2f2b; }
      .ExScheme-Green-1   { color:#abf9c7; }
      .ExScheme-Green-2   { color:#3bb566; }
      .ExScheme-Green-3   { color:#377d50; }
      .ExScheme-Blue-1    { color:#abdaf9; }
      .ExScheme-Blue-2    { color:#3daefd; }
      .ExScheme-Blue-3    { color:#2b3c4d; }
      .ExScheme-Yellow-1  { color:#faffa5; }
      .ExScheme-Yellow-2  { color:#cac726; }
      .ExScheme-Yellow-3  { color:#4b4d2b; }
      .ExScheme-Orange-1  { color:#ffdaa5; }
      .ExScheme-Orange-2  { color:#ff9701; }
      .ExScheme-Orange-3  { color:#4d372b; }
      .ExScheme-Brown-1   { color:#e9d6bb; }
      .ExScheme-Brown-2   { color:#997657; }
      .ExScheme-Brown-3   { color:#433a35; }
      .ExScheme-Purple-1  { color:#e2abf9; }
      .ExScheme-Purple-2  { color:#b401ff; }
      .ExScheme-Purple-3  { color:#432b4d; }
      .ExScheme-Cyan-1    { color:#b2f2e6; }
      .ExScheme-Cyan-2    { color:#31bfa6; }
      .ExScheme-Cyan-3    { color:#2b4d47; }
      .ExScheme-Magenta-1 { color:#f8a6d8; }
      .ExScheme-Magenta-2 { color:#f00091; }
      .ExScheme-Magenta-3 { color:#770048; }
    </style>
<linearGradient id="uxI">
<stop offset="0"/>
<stop offset="1" stop-opacity="0"/>
</linearGradient>
<linearGradient id="uxJ">
<stop offset="0" stop-color="#fff"/>
<stop offset="1" stop-color="#fff" stop-opacity="0"/>
</linearGradient>
<style id="uxK" type="text/css">
        .force-display-for-editing { display: inline !important; }
    </style><style class="remove-if__show-crease" type="text/css">
        .enable-if__show-crease { display: none; }
    </style><style class="remove-if__color-sync-mimes-places" type="text/css">
        .enable-if__color-sync-mimes-places { display: none; }
    </style><radialGradient cx=".5" cy="0" id="uxL" r="1" xlink:href="#uxJ"/><linearGradient id="uxM" xlink:href="#uxI" y1="1" y2=".5"/><style class="ColorScheme-Background" fill="currentColor" opacity=".6" type="text/css">
   .ColorScheme-Text           { color:#eff0f1; }
      .ColorScheme-Background     { color:#31363b; }
      .ColorScheme-Highlight      { color:#3daefd; }
      .ColorScheme-ViewBackground { color:#fcfcfc; }
      .ColorScheme-PositiveText   { color:#27ae60; }
      .ColorScheme-NeutralText    { color:#f67400; }
      .ColorScheme-NegativeText   { color:#da4453; }
  </style><path d="M 7,6 C 5.9,6 5,6.9 5,8 v 2 4 c -1.1,0 -2,.9 -2,2 v 24 c 0,1.1 .9,2 2,2 h 38 c 1.1,0 2,-.9 2,-2 V 25 16 14 c 0,-1.1 -.9,-2 -2,-2 V 10 C 43,8.9 42.1,8 41,8 H 21 C 18,8 18,6 15,6 Z" id="uxN"></path><path d="M 7,6 C 5.9,6 5,6.9 5,8 v 2 4 h 10 c 3,0 3,-2 6,-2 H 43 V 10 C 43,8.9 42.1,8 41,8 H 21 C 18,8 18,6 15,6 Z" id="uxO"></path></defs>
<g id="content" transform="translate(0,0)"><use class="sync-color enable-if__color-sync-mimes-places force-display-for-editing ColorScheme-ActiveText" fill="currentColor" href="#uxN"></use><use class="primary-color remove-if__color-sync-mimes-places ColorScheme-ActiveText" fill="currentColor" href="#uxN"></use><use class="ColorScheme-Contrast" fill="currentColor" href="#uxN" opacity=".1"></use><g id="decal" transform="translate(12,15)"><path class="ColorScheme-Background" d="M 2,2 V 4.5 C 2,4.8 2.2,5 2.5,5 2.8,5 3,4.8 3,4.5 V 3 H 21 V 4.5 C 21,4.8 21.2,5 21.5,5 21.8,5 22,4.8 22,4.5 V 2 Z M 2.47,19 C 2.2,19 2,19.23 2,19.5 V 22 H 3 22 V 19.5 C 22,19.2 21.8,19 21.5,19 21.2,19 21,19.2 21,19.5 V 21 H 3 V 19.5 C 3,19.2 2.8,19 2.5,19 c -0,0 -0,-4.3e-4 -.03,0 z" fill="currentColor" opacity=".6" stop-color="#000000"/><path class="ColorScheme-Background" d="M 6 5 C 5.45 5 5 5.45 5 6 C 5 6.55 5.45 7 6 7 C 6.55 7 7 6.55 7 6 C 7 5.45 6.55 5 6 5 z M 9.5 5 C 9.2 5 9 5.2 9 5.5 L 9 6.5 C 9 6.8 9.2 7 9.5 7 L 12.5 7 C 12.8 7 13 6.8 13 6.5 C 13 6.2 13 6 13.5 6 L 18.5 6 C 18.8 6 19 5.8 19 5.5 C 19 5.2 18.8 5 18.5 5 L 9.5 5 z M 6 9 C 5.45 9 5 9.45 5 10 C 5 10.55 5.45 11 6 11 C 6.55 11 7 10.55 7 10 C 7 9.45 6.55 9 6 9 z M 9.5 9 C 9.2 9 9 9.2 9 9.5 L 9 10.5 C 9 10.8 9.2 11 9.5 11 L 12.5 11 C 12.8 11 13 10.8 13 10.5 C 13 10.2 13 10 13.5 10 L 18.5 10 C 18.8 10 19 9.8 19 9.5 C 19 9.2 18.8 9 18.5 9 L 9.5 9 z M 6 13 C 5.45 13 5 13.45 5 14 C 5 14.55 5.45 15 6 15 C 6.55 15 7 14.55 7 14 C 7 13.45 6.55 13 6 13 z M 9.5 13 C 9.2 13 9 13.2 9 13.5 L 9 14.5 C 9 14.8 9.2 15 9.5 15 L 12.5 15 C 12.8 15 13 14.8 13 14.5 C 13 14.2 13 14 13.5 14 L 18.5 14 C 18.8 14 19 13.8 19 13.5 C 19 13.2 18.8 13 18.5 13 L 9.5 13 z M 6 17 C 5.45 17 5 17.45 5 18 C 5 18.55 5.45 19 6 19 C 6.55 19 7 18.55 7 18 C 7 17.45 6.55 17 6 17 z M 9.5 17 C 9.2 17 9 17.2 9 17.5 L 9 18.5 C 9 18.8 9.2 19 9.5 19 L 12.5 19 C 12.8 19 13 18.8 13 18.5 C 13 18.2 13 18 13.5 18 L 18.5 18 C 18.8 18 19 17.8 19 17.5 C 19 17.2 18.8 17 18.5 17 L 9.5 17 z " fill="currentColor" opacity=".6" stop-color="#000000"/><path class="ColorScheme-Background" d="M 2,2 V 4.5 C 2,4.8 2.2,5 2.5,5 2.8,5 3,4.8 3,4.5 V 3 H 21 V 4.5 C 21,4.8 21.2,5 21.5,5 21.8,5 22,4.8 22,4.5 V 2 Z M 2.47,19 C 2.2,19 2,19.23 2,19.5 V 22 H 3 22 V 19.5 C 22,19.2 21.8,19 21.5,19 21.2,19 21,19.2 21,19.5 V 21 H 3 V 19.5 C 3,19.2 2.8,19 2.5,19 2.5,19 2.5,19 2.47,19 Z" fill="currentColor" opacity=".6" stop-color="#000000"/><path class="ColorScheme-Background" d="M 6 5 C 5.45 5 5 5.45 5 6 C 5 6.55 5.45 7 6 7 C 6.55 7 7 6.55 7 6 C 7 5.45 6.55 5 6 5 z M 9.5 5 C 9.2 5 9 5.2 9 5.5 L 9 6.5 C 9 6.8 9.2 7 9.5 7 L 12.5 7 C 12.8 7 13 6.8 13 6.5 C 13 6.2 13 6 13.5 6 L 18.5 6 C 18.8 6 19 5.8 19 5.5 C 19 5.2 18.8 5 18.5 5 L 9.5 5 z M 6 5.5 C 6.3 5.5 6.5 5.7 6.5 6 C 6.5 6.3 6.3 6.5 6 6.5 C 5.7 6.5 5.5 6.3 5.5 6 C 5.5 5.7 5.7 5.5 6 5.5 z M 9.5 5.5 L 13.5 5.5 C 13.2 5.5 12.84 5.6 12.65 5.86 C 12.47 6.13 12.5 6.36 12.5 6.5 L 9.5 6.5 L 9.5 5.5 z M 6 9 C 5.45 9 5 9.45 5 10 C 5 10.55 5.45 11 6 11 C 6.55 11 7 10.55 7 10 C 7 9.45 6.55 9 6 9 z M 9.5 9 C 9.2 9 9 9.2 9 9.5 L 9 10.5 C 9 10.8 9.2 11 9.5 11 L 12.5 11 C 12.8 11 13 10.8 13 10.5 C 13 10.2 13 10 13.5 10 L 18.5 10 C 18.8 10 19 9.8 19 9.5 C 19 9.2 18.8 9 18.5 9 L 9.5 9 z M 6 9.5 C 6.3 9.5 6.5 9.7 6.5 10 C 6.5 10.3 6.3 10.5 6 10.5 C 5.7 10.5 5.5 10.3 5.5 10 C 5.5 9.7 5.7 9.5 6 9.5 z M 9.5 9.5 L 13.5 9.5 C 13.2 9.5 12.84 9.6 12.65 9.86 C 12.47 10.13 12.5 10.36 12.5 10.5 L 9.5 10.5 L 9.5 9.5 z M 6 13 C 5.45 13 5 13.45 5 14 C 5 14.55 5.45 15 6 15 C 6.55 15 7 14.55 7 14 C 7 13.45 6.55 13 6 13 z M 9.5 13 C 9.2 13 9 13.2 9 13.5 L 9 14.5 C 9 14.8 9.2 15 9.5 15 L 12.5 15 C 12.8 15 13 14.8 13 14.5 C 13 14.2 13 14 13.5 14 L 18.5 14 C 18.8 14 19 13.8 19 13.5 C 19 13.2 18.8 13 18.5 13 L 9.5 13 z M 6 13.5 C 6.3 13.5 6.5 13.7 6.5 14 C 6.5 14.3 6.3 14.5 6 14.5 C 5.7 14.5 5.5 14.3 5.5 14 C 5.5 13.7 5.7 13.5 6 13.5 z M 9.5 13.5 L 13.5 13.5 C 13.2 13.5 12.84 13.6 12.65 13.86 C 12.47 14.13 12.5 14.36 12.5 14.5 L 9.5 14.5 L 9.5 13.5 z M 6 17 C 5.45 17 5 17.45 5 18 C 5 18.55 5.45 19 6 19 C 6.55 19 7 18.55 7 18 C 7 17.45 6.55 17 6 17 z M 9.5 17 C 9.2 17 9 17.2 9 17.5 L 9 18.5 C 9 18.8 9.2 19 9.5 19 L 12.5 19 C 12.8 19 13 18.8 13 18.5 C 13 18.2 13 18 13.5 18 L 18.5 18 C 18.8 18 19 17.8 19 17.5 C 19 17.2 18.8 17 18.5 17 L 9.5 17 z M 6 17.5 C 6.3 17.5 6.5 17.7 6.5 18 C 6.5 18.3 6.3 18.5 6 18.5 C 5.7 18.5 5.5 18.3 5.5 18 C 5.5 17.7 5.7 17.5 6 17.5 z M 9.5 17.5 L 13.5 17.5 C 13.2 17.5 12.84 17.6 12.65 17.86 C 12.47 18.13 12.5 18.36 12.5 18.5 L 9.5 18.5 L 9.5 17.5 z " fill="currentColor" opacity=".6"/></g><use href="#uxO" opacity=".4"></use><use fill="url(#uxM)" href="#uxO" opacity=".1"></use><path d="m 21,12 c -3,0 -3,2 -6,2 H 5 c -1.1,0 -2,.9 -2,2 v 24 c 0,1.1 .9,2 2,2 h 38 c 1.1,0 2,-.9 2,-2 V 25 16 14 c 0,-1.1 -.9,-2 -2,-2 z" fill="url(#uxL)" opacity=".2"/><path class="ColorScheme-Contrast" d="m 3,39 v 1 c 0,1.1 .9,2 2,2 h 38 c 1.1,0 2,-.9 2,-2 v -1 c 0,1.1 -.9,2 -2,2 H 5 C 3.9,41 3,40.1 3,39 Z" fill="currentColor" opacity=".1"/><path class="ColorScheme-Contrast" d="M 3,39.5 V 40 c 0,1.1 .9,2 2,2 h 38 c 1.1,0 2,-.9 2,-2 v -0.5 c 0,1.1 -.9,2 -2,2 H 5 c -1.1,0 -2,-.9 -2,-2 z" fill="currentColor" opacity=".2"/><path d="m 21,12 c -3,0 -3,2 -6,2 H 5 c -1.1,0 -2,.9 -2,2 v 1 c 0,-1.1 .9,-2 2,-2 h 10 c 3,0 3,-2 6,-2 h 22 c 1.1,0 2,.9 2,2 v -1 c 0,-1.1 -.9,-2 -2,-2 z" fill="#fff" opacity=".1"/><path d="m 21,12 c -3,0 -3,2 -6,2 H 5 c -1.1,0 -2,.9 -2,2 v 0.5 c 0,-1.1 .9,-2 2,-2 h 10 c 3,0 3,-2 6,-2 h 22 c 1.1,0 2,.9 2,2 V 14 c 0,-1.1 -.9,-2 -2,-2 z" fill="#fff" opacity=".2"/><path d="m 21,11 c -3,0 -3,2 -6,2 H 5 v 1 h 10 c 3,0 3,-2 6,-2 h 22 v -1 z" opacity=".1"/><path d="m 21,11.5 c -3,0 -3,2 -6,2 H 5 V 14 h 10 c 3,0 3,-2 6,-2 h 22 v -0.5 z" opacity=".2"/></g>
</svg>