<svg height="48" version="1.1" width="48" xmlns="http://www.w3.org/2000/svg" xmlns:svg="http://www.w3.org/2000/svg" xmlns:xlink="http://www.w3.org/1999/xlink">
<defs id="primary-definitions">
<style id="current-color-scheme" type="text/css">
      .ColorScheme-Text           { color:#fff; }
      .ColorScheme-Background     { color:#111; }
      .ColorScheme-Highlight      { color:#3daefd; }
      .ColorScheme-ViewBackground { color:#000; }
      .ColorScheme-PositiveText   { color:#27ae60; }
      .ColorScheme-NeutralText    { color:#f67400; }
      .ColorScheme-NegativeText   { color:#da4453; }
    </style>
<style id="extended-color-scheme" type="text/css">
      .ExScheme-Black     { color:#3e3e3e; }
      .ExScheme-White     { color:#fcfcfc; }
      .ExScheme-Grey-1    { color:#cfd5d5; }
      .ExScheme-Grey-2    { color:#909c9c; }
      .ExScheme-Grey-3    { color:#536161; }
      .ExScheme-Red-1     { color:#ffafa5; }
      .ExScheme-Red-2     { color:#bf4231; }
      .ExScheme-Red-3     { color:#4d2f2b; }
      .ExScheme-Green-1   { color:#abf9c7; }
      .ExScheme-Green-2   { color:#3bb566; }
      .ExScheme-Green-3   { color:#377d50; }
      .ExScheme-Blue-1    { color:#abdaf9; }
      .ExScheme-Blue-2    { color:#3daefd; }
      .ExScheme-Blue-3    { color:#2b3c4d; }
      .ExScheme-Yellow-1  { color:#faffa5; }
      .ExScheme-Yellow-2  { color:#cac726; }
      .ExScheme-Yellow-3  { color:#4b4d2b; }
      .ExScheme-Orange-1  { color:#ffdaa5; }
      .ExScheme-Orange-2  { color:#ff9701; }
      .ExScheme-Orange-3  { color:#4d372b; }
      .ExScheme-Brown-1   { color:#e9d6bb; }
      .ExScheme-Brown-2   { color:#997657; }
      .ExScheme-Brown-3   { color:#433a35; }
      .ExScheme-Purple-1  { color:#e2abf9; }
      .ExScheme-Purple-2  { color:#b401ff; }
      .ExScheme-Purple-3  { color:#432b4d; }
      .ExScheme-Cyan-1    { color:#b2f2e6; }
      .ExScheme-Cyan-2    { color:#31bfa6; }
      .ExScheme-Cyan-3    { color:#2b4d47; }
      .ExScheme-Magenta-1 { color:#f8a6d8; }
      .ExScheme-Magenta-2 { color:#f00091; }
      .ExScheme-Magenta-3 { color:#770048; }
    </style>
<linearGradient id="uvd">
<stop offset="0"/>
<stop offset="1" stop-opacity="0"/>
</linearGradient>
<linearGradient id="uve">
<stop offset="0" stop-color="#fff"/>
<stop offset="1" stop-color="#fff" stop-opacity="0"/>
</linearGradient>
<style class="toggle-enable-crease" type="text/css">
        .folder-crease { display: none; }
    </style><style class="toggle-manilla-folders" type="text/css">
        .folder-manilla { display: none; }
    </style><radialGradient cx=".5" cy="0" id="uvf" r="1" xlink:href="#uve"/><linearGradient id="uvg" xlink:href="#uvd" y1="1" y2=".5"/><path d="M 7,6 C 5.9,6 5,6.9 5,8 v 2 4 c -1.1,0 -2,.9 -2,2 v 24 c 0,1.1 .9,2 2,2 h 38 c 1.1,0 2,-.9 2,-2 V 25 16 14 c 0,-1.1 -.9,-2 -2,-2 V 10 C 43,8.9 42.1,8 41,8 H 21 C 18,8 18,6 15,6 Z" id="uvh"></path><path d="M 7,6 C 5.9,6 5,6.9 5,8 v 2 4 h 10 c 3,0 3,-2 6,-2 H 43 V 10 C 43,8.9 42.1,8 41,8 H 21 C 18,8 18,6 15,6 Z" id="uvi"></path></defs>
<g id="content" transform="translate(0,0)"><use class="folder-manilla ExScheme-Brown-1" fill="currentColor" href="#uvh"></use><use class="toggle-manilla-folders ColorScheme-Highlight" fill="currentColor" href="#uvh" id="primary-color"></use><use class="ColorScheme-Text" fill="currentColor" href="#uvh" opacity=".1"></use><g id="emblem" transform="translate(12,15)"><path class="ColorScheme-Background" d="M 12 8 A 4 4 0 0 0 8 12 A 4 4 0 0 0 12 16 A 4 4 0 0 0 16 12 A 4 4 0 0 0 12 8 z M 16 12 A 3 3 0 0 0 19 15 A 3 3 0 0 0 22 12 A 3 3 0 0 0 19 9 A 3 3 0 0 0 16 12 z M 8 12 A 3 3 0 0 0 5 9 A 3 3 0 0 0 2 12 A 3 3 0 0 0 5 15 A 3 3 0 0 0 8 12 z M 12 10 A 2 2 0 0 1 14 12 A 2 2 0 0 1 12 14 A 2 2 0 0 1 10 12 A 2 2 0 0 1 12 10 z M 5 11 A 1 1 0 0 1 6 12 A 1 1 0 0 1 5 13 A 1 1 0 0 1 4 12 A 1 1 0 0 1 5 11 z M 19 11 A 1 1 0 0 1 20 12 A 1 1 0 0 1 19 13 A 1 1 0 0 1 18 12 A 1 1 0 0 1 19 11 z " fill="currentColor" opacity=".6" stop-color="#000000"/><path class="ColorScheme-Background" d="M 12 8 A 4 4 0 0 0 8 12 A 4 4 0 0 0 12 16 A 4 4 0 0 0 16 12 A 4 4 0 0 0 12 8 z M 16 12 A 3 3 0 0 0 19 15 A 3 3 0 0 0 22 12 A 3 3 0 0 0 19 9 A 3 3 0 0 0 16 12 z M 8 12 A 3 3 0 0 0 5 9 A 3 3 0 0 0 2 12 A 3 3 0 0 0 5 15 A 3 3 0 0 0 8 12 z M 12 8.5 C 13.94 8.5 15.5 10.06 15.5 12 C 15.5 13.94 13.94 15.5 12 15.5 C 10.06 15.5 8.5 13.94 8.5 12 C 8.5 10.06 10.06 8.5 12 8.5 z M 5 9.5 C 6.4 9.5 7.5 10.6 7.5 12 C 7.5 13.4 6.4 14.5 5 14.5 C 3.6 14.5 2.5 13.4 2.5 12 C 2.5 10.6 3.6 9.5 5 9.5 z M 12 9.5 C 10.63 9.5 9.5 10.63 9.5 12 C 9.5 13.37 10.63 14.5 12 14.5 C 13.37 14.5 14.5 13.37 14.5 12 C 14.5 10.63 13.37 9.5 12 9.5 z M 19 9.5 C 20.4 9.5 21.5 10.6 21.5 12 C 21.5 13.4 20.4 14.5 19 14.5 C 17.6 14.5 16.5 13.4 16.5 12 C 16.5 10.6 17.6 9.5 19 9.5 z M 12 10 A 2 2 0 0 1 14 12 A 2 2 0 0 1 12 14 A 2 2 0 0 1 10 12 A 2 2 0 0 1 12 10 z M 5 10.5 C 4.2 10.5 3.5 11.2 3.5 12 C 3.5 12.8 4.2 13.5 5 13.5 C 5.8 13.5 6.5 12.8 6.5 12 C 6.5 11.2 5.8 10.5 5 10.5 z M 19 10.5 C 18.2 10.5 17.5 11.2 17.5 12 C 17.5 12.8 18.2 13.5 19 13.5 C 19.8 13.5 20.5 12.8 20.5 12 C 20.5 11.2 19.8 10.5 19 10.5 z M 5 11 A 1 1 0 0 1 6 12 A 1 1 0 0 1 5 13 A 1 1 0 0 1 4 12 A 1 1 0 0 1 5 11 z M 19 11 A 1 1 0 0 1 20 12 A 1 1 0 0 1 19 13 A 1 1 0 0 1 18 12 A 1 1 0 0 1 19 11 z " fill="currentColor" opacity=".6"/></g><use href="#uvi" opacity=".4"></use><use class="toggle-flat-design" fill="url(#uvg)" href="#uvi" opacity=".1"></use><path class="toggle-flat-design" d="m 21,12 c -3,0 -3,2 -6,2 H 5 c -1.1,0 -2,.9 -2,2 v 24 c 0,1.1 .9,2 2,2 h 38 c 1.1,0 2,-.9 2,-2 V 25 16 14 c 0,-1.1 -.9,-2 -2,-2 z" fill="url(#uvf)" opacity=".2"/><path class="folder-crease " d="m 3,33 v 1 H 9.5 C 9.8,34 10,33.8 10,33.5 10,33.2 9.8,33 9.5,33 Z m 35.5,0 c -.3,0 -0.5,.2 -0.5,0.5 0,.3 .2,0.5 0.5,0.5 H 45 v -1 z" opacity=".4"/><path class="ColorScheme-Text" d="m 3,39 v 1 c 0,1.1 .9,2 2,2 h 38 c 1.1,0 2,-.9 2,-2 v -1 c 0,1.1 -.9,2 -2,2 H 5 C 3.9,41 3,40.1 3,39 Z" fill="currentColor" opacity=".1"/><path class="ColorScheme-Text" d="M 3,39.5 V 40 c 0,1.1 .9,2 2,2 h 38 c 1.1,0 2,-.9 2,-2 v -0.5 c 0,1.1 -.9,2 -2,2 H 5 c -1.1,0 -2,-.9 -2,-2 z" fill="currentColor" opacity=".2"/><path d="m 21,12 c -3,0 -3,2 -6,2 H 5 c -1.1,0 -2,.9 -2,2 v 1 c 0,-1.1 .9,-2 2,-2 h 10 c 3,0 3,-2 6,-2 h 22 c 1.1,0 2,.9 2,2 v -1 c 0,-1.1 -.9,-2 -2,-2 z" fill="#fff" opacity=".1"/><path d="m 21,12 c -3,0 -3,2 -6,2 H 5 c -1.1,0 -2,.9 -2,2 v 0.5 c 0,-1.1 .9,-2 2,-2 h 10 c 3,0 3,-2 6,-2 h 22 c 1.1,0 2,.9 2,2 V 14 c 0,-1.1 -.9,-2 -2,-2 z" fill="#fff" opacity=".2"/><path d="m 21,11 c -3,0 -3,2 -6,2 H 5 v 1 h 10 c 3,0 3,-2 6,-2 h 22 v -1 z" opacity=".1"/><path d="m 21,11.5 c -3,0 -3,2 -6,2 H 5 V 14 h 10 c 3,0 3,-2 6,-2 h 22 v -0.5 z" opacity=".2"/></g>
</svg>