<svg height="48" version="1.1" width="48" xmlns="http://www.w3.org/2000/svg" xmlns:svg="http://www.w3.org/2000/svg" xmlns:xlink="http://www.w3.org/1999/xlink">
<defs id="primary-definitions">
<style id="current-color-scheme" type="text/css">
      .ColorScheme-Text         { color: #232629; }
      .ColorScheme-Background   { color: #eff0f1; }
      .ColorScheme-Highlight    { color: #7ec9f0; }
      .ColorScheme-PositiveText { color: #27ae60; }
      .ColorScheme-NeutralText  { color: #f67400; }
      .ColorScheme-NegativeText { color: #da4453; }
      .ColorScheme-ActiveText   { color: #3daee9; }
      .ColorScheme-Complement   { color: #ffffff; }
      .ColorScheme-Contrast     { color: #000000; }
    </style>
<style id="extended-color-scheme" type="text/css">
      .ExScheme-Black     { color:#3e3e3e; }
      .ExScheme-White     { color:#fcfcfc; }
      .ExScheme-Grey-1    { color:#cfd5d5; }
      .ExScheme-Grey-2    { color:#909c9c; }
      .ExScheme-Grey-3    { color:#536161; }
      .ExScheme-Red-1     { color:#ffafa5; }
      .ExScheme-Red-2     { color:#bf4231; }
      .ExScheme-Red-3     { color:#4d2f2b; }
      .ExScheme-Green-1   { color:#abf9c7; }
      .ExScheme-Green-2   { color:#3bb566; }
      .ExScheme-Green-3   { color:#377d50; }
      .ExScheme-Blue-1    { color:#abdaf9; }
      .ExScheme-Blue-2    { color:#3daefd; }
      .ExScheme-Blue-3    { color:#2b3c4d; }
      .ExScheme-Yellow-1  { color:#faffa5; }
      .ExScheme-Yellow-2  { color:#cac726; }
      .ExScheme-Yellow-3  { color:#4b4d2b; }
      .ExScheme-Orange-1  { color:#ffdaa5; }
      .ExScheme-Orange-2  { color:#ff9701; }
      .ExScheme-Orange-3  { color:#4d372b; }
      .ExScheme-Brown-1   { color:#e9d6bb; }
      .ExScheme-Brown-2   { color:#997657; }
      .ExScheme-Brown-3   { color:#433a35; }
      .ExScheme-Purple-1  { color:#e2abf9; }
      .ExScheme-Purple-2  { color:#b401ff; }
      .ExScheme-Purple-3  { color:#432b4d; }
      .ExScheme-Cyan-1    { color:#b2f2e6; }
      .ExScheme-Cyan-2    { color:#31bfa6; }
      .ExScheme-Cyan-3    { color:#2b4d47; }
      .ExScheme-Magenta-1 { color:#f8a6d8; }
      .ExScheme-Magenta-2 { color:#f00091; }
      .ExScheme-Magenta-3 { color:#770048; }
    </style>
<linearGradient id="uPB">
<stop offset="0"/>
<stop offset="1" stop-opacity="0"/>
</linearGradient>
<linearGradient id="uPC">
<stop offset="0" stop-color="#fff"/>
<stop offset="1" stop-color="#fff" stop-opacity="0"/>
</linearGradient>
<style id="uPD" type="text/css">
        .force-display-for-editing { display: inline !important; }
    </style><style class="remove-if__show-crease" type="text/css">
        .enable-if__show-crease { display: none; }
    </style><style class="remove-if__color-sync-mimes-places" type="text/css">
        .enable-if__color-sync-mimes-places { display: none; }
    </style><radialGradient cx=".5" cy="0" id="uPE" r="1" xlink:href="#uPC"/><linearGradient id="uPF" xlink:href="#uPB" y1="1" y2=".5"/><style class="ColorScheme-Background" fill="currentColor" opacity=".6" type="text/css">
   .ColorScheme-Text           { color:#eff0f1; }
      .ColorScheme-Background     { color:#31363b; }
      .ColorScheme-Highlight      { color:#3daefd; }
      .ColorScheme-ViewBackground { color:#fcfcfc; }
      .ColorScheme-PositiveText   { color:#27ae60; }
      .ColorScheme-NeutralText    { color:#f67400; }
      .ColorScheme-NegativeText   { color:#da4453; }
  </style><path d="M 7,6 C 5.9,6 5,6.9 5,8 v 2 4 c -1.1,0 -2,.9 -2,2 v 24 c 0,1.1 .9,2 2,2 h 38 c 1.1,0 2,-.9 2,-2 V 25 16 14 c 0,-1.1 -.9,-2 -2,-2 V 10 C 43,8.9 42.1,8 41,8 H 21 C 18,8 18,6 15,6 Z" id="uPG"></path><path d="M 7,6 C 5.9,6 5,6.9 5,8 v 2 4 h 10 c 3,0 3,-2 6,-2 H 43 V 10 C 43,8.9 42.1,8 41,8 H 21 C 18,8 18,6 15,6 Z" id="uPH"></path></defs>
<g id="content" transform="translate(0,0)"><use class="sync-color enable-if__color-sync-mimes-places force-display-for-editing ColorScheme-ActiveText" fill="currentColor" href="#uPG"></use><use class="primary-color remove-if__color-sync-mimes-places ColorScheme-ActiveText" fill="currentColor" href="#uPG"></use><use class="ColorScheme-Contrast" fill="currentColor" href="#uPG" opacity=".1"></use><g id="decal" transform="translate(12,15)"><path class="ColorScheme-Background" d="M 12 2 A 10 10 0 0 0 2 12 A 10 10 0 0 0 12 22 A 10 10 0 0 0 22 12 A 10 10 0 0 0 12 2 z M 13 3.06 A 9 9 0 0 1 20.94 11 C 20.4 11.04 20 11.47 20 12 C 20 12.53 20.4 12.96 20.93 13 A 9 9 0 0 1 13 20.93 C 12.96 20.4 12.53 20 12 20 C 11.47 20 11.04 20.4 11 20.93 A 9 9 0 0 1 3.07 13 C 3.6 12.96 4 12.53 4 12 C 4 11.47 3.6 11.04 3.07 11 A 9 9 0 0 1 11 3.07 C 11.04 3.6 11.47 4 12 4 C 12.53 4 12.96 3.6 13 3.06 z M 14.7 5.03 C 14.5 5.03 14.3 5.15 14.2 5.34 L 11.87 11 A 1 1 0 0 0 11 12 A 1 1 0 0 0 11.8 13 L 14 15.83 C 14.25 16.16 14.7 16.2 15.04 15.97 C 15.37 15.7 15.43 15.25 15.2 14.9 L 13 12.06 A 1 1 0 0 0 13 12 A 1 1 0 0 0 12.8 11.4 L 15.14 5.7 C 15.25 5.47 15.13 5.2 14.87 5.07 C 14.8 5.04 14.74 5.03 14.7 5.03 z " fill="currentColor" opacity=".6"/><path class="ColorScheme-Background" d="M 12 2 A 10 10 0 0 0 2 12 A 10 10 0 0 0 12 22 A 10 10 0 0 0 22 12 A 10 10 0 0 0 12 2 z M 12 2.5 C 12.27 2.5 12.5 2.63 12.75 2.65 A .5 .5 0 0 0 12.5 3.03 C 12.5 3.3 12.27 3.5 12 3.5 C 11.73 3.5 11.5 3.3 11.5 3.04 A .5 .5 0 0 0 11.23 2.66 C 11.5 2.63 11.73 2.5 12 2.5 z M 13 3.06 A 9 9 0 0 1 20.94 11 C 20.4 11.04 20 11.47 20 12 C 20 12.53 20.4 12.96 20.93 13 A 9 9 0 0 1 13 20.93 C 12.96 20.4 12.53 20 12 20 C 11.47 20 11.04 20.4 11 20.93 A 9 9 0 0 1 3.07 13 C 3.6 12.96 4 12.53 4 12 C 4 11.47 3.6 11.04 3.07 11 A 9 9 0 0 1 11 3.07 C 11.04 3.6 11.47 4 12 4 C 12.53 4 12.96 3.6 13 3.06 z M 8.7 3.2 C 8.6 3.23 8.5 3.26 8.37 3.3 C 8.37 3.3 8.37 3.3 8.37 3.3 C 8.5 3.26 8.6 3.23 8.7 3.2 z M 15.35 3.2 C 15.54 3.25 15.73 3.3 15.9 3.4 C 15.73 3.3 15.54 3.25 15.35 3.2 z M 14.7 5.03 C 14.5 5.03 14.3 5.15 14.2 5.34 L 11.87 11 A 1 1 0 0 0 11 12 A 1 1 0 0 0 11.8 13 L 14 15.83 C 14.25 16.16 14.7 16.2 15.04 15.97 C 15.37 15.7 15.43 15.25 15.2 14.9 L 13 12.06 A 1 1 0 0 0 13 12 A 1 1 0 0 0 12.8 11.4 L 15.14 5.7 C 15.25 5.47 15.13 5.2 14.87 5.07 C 14.8 5.04 14.74 5.03 14.7 5.03 z M 20.6 8.1 C 20.7 8.27 20.75 8.46 20.8 8.65 C 20.75 8.46 20.7 8.27 20.6 8.1 z M 3.3 8.37 C 3.26 8.5 3.23 8.6 3.2 8.7 C 3.23 8.6 3.26 8.5 3.3 8.37 z M 12.33 11.2 A .5 .5 0 0 0 12.4 11.7 C 12.46 11.8 12.5 11.9 12.5 12 C 12.5 12 12.5 12 12.5 12 A .5 .5 0 0 0 12.6 12.37 L 14.8 15.2 C 14.87 15.34 14.86 15.5 14.74 15.57 C 14.6 15.66 14.5 15.64 14.4 15.5 L 12.2 12.67 A .5 .5 0 0 0 11.9 12.5 C 11.67 12.44 11.5 12.24 11.5 12 C 11.5 11.74 11.7 11.54 11.93 11.5 A .5 .5 0 0 0 12.33 11.2 z M 2.66 11.23 A .5 .5 0 0 0 3.04 11.5 C 3.3 11.5 3.5 11.73 3.5 12 C 3.5 12.27 3.3 12.5 3.04 12.5 A .5 .5 0 0 0 2.66 12.77 C 2.63 12.5 2.5 12.27 2.5 12 C 2.5 11.73 2.63 11.5 2.66 11.23 z M 21.35 11.27 C 21.37 11.5 21.5 11.74 21.5 12 C 21.5 12.26 21.37 12.5 21.35 12.74 A .5 .5 0 0 0 20.96 12.5 C 20.7 12.5 20.5 12.27 20.5 12 C 20.5 11.73 20.7 11.5 20.97 11.5 A .5 .5 0 0 0 21.35 11.27 z M 3.2 15.3 C 3.23 15.4 3.26 15.5 3.3 15.63 C 3.3 15.63 3.3 15.63 3.3 15.63 C 3.26 15.5 3.23 15.4 3.2 15.3 z M 20.8 15.3 C 20.77 15.4 20.74 15.5 20.7 15.63 C 20.74 15.5 20.77 15.4 20.8 15.3 z M 12 20.5 C 12.27 20.5 12.5 20.7 12.5 20.96 A .5 .5 0 0 0 12.77 21.34 C 12.5 21.37 12.27 21.5 12 21.5 C 11.73 21.5 11.5 21.37 11.23 21.34 A .5 .5 0 0 0 11.5 20.96 C 11.5 20.7 11.73 20.5 12 20.5 z M 8.37 20.7 C 8.5 20.74 8.6 20.77 8.7 20.8 C 8.6 20.77 8.5 20.74 8.37 20.7 z M 15.63 20.7 C 15.63 20.7 15.63 20.7 15.63 20.7 C 15.5 20.74 15.4 20.77 15.3 20.8 C 15.4 20.77 15.5 20.74 15.63 20.7 z " fill="currentColor" opacity=".6"/></g><use href="#uPH" opacity=".4"></use><use fill="url(#uPF)" href="#uPH" opacity=".1"></use><path d="m 21,12 c -3,0 -3,2 -6,2 H 5 c -1.1,0 -2,.9 -2,2 v 24 c 0,1.1 .9,2 2,2 h 38 c 1.1,0 2,-.9 2,-2 V 25 16 14 c 0,-1.1 -.9,-2 -2,-2 z" fill="url(#uPE)" opacity=".2"/><path class="ColorScheme-Contrast" d="m 3,39 v 1 c 0,1.1 .9,2 2,2 h 38 c 1.1,0 2,-.9 2,-2 v -1 c 0,1.1 -.9,2 -2,2 H 5 C 3.9,41 3,40.1 3,39 Z" fill="currentColor" opacity=".1"/><path class="ColorScheme-Contrast" d="M 3,39.5 V 40 c 0,1.1 .9,2 2,2 h 38 c 1.1,0 2,-.9 2,-2 v -0.5 c 0,1.1 -.9,2 -2,2 H 5 c -1.1,0 -2,-.9 -2,-2 z" fill="currentColor" opacity=".2"/><path d="m 21,12 c -3,0 -3,2 -6,2 H 5 c -1.1,0 -2,.9 -2,2 v 1 c 0,-1.1 .9,-2 2,-2 h 10 c 3,0 3,-2 6,-2 h 22 c 1.1,0 2,.9 2,2 v -1 c 0,-1.1 -.9,-2 -2,-2 z" fill="#fff" opacity=".1"/><path d="m 21,12 c -3,0 -3,2 -6,2 H 5 c -1.1,0 -2,.9 -2,2 v 0.5 c 0,-1.1 .9,-2 2,-2 h 10 c 3,0 3,-2 6,-2 h 22 c 1.1,0 2,.9 2,2 V 14 c 0,-1.1 -.9,-2 -2,-2 z" fill="#fff" opacity=".2"/><path d="m 21,11 c -3,0 -3,2 -6,2 H 5 v 1 h 10 c 3,0 3,-2 6,-2 h 22 v -1 z" opacity=".1"/><path d="m 21,11.5 c -3,0 -3,2 -6,2 H 5 V 14 h 10 c 3,0 3,-2 6,-2 h 22 v -0.5 z" opacity=".2"/></g>
</svg>