<svg height="48" version="1.1" width="48" xmlns="http://www.w3.org/2000/svg" xmlns:svg="http://www.w3.org/2000/svg" xmlns:xlink="http://www.w3.org/1999/xlink">
<defs id="primary-definitions">
<style id="current-color-scheme" type="text/css">
      .ColorScheme-Text         { color: #232629; }
      .ColorScheme-Background   { color: #eff0f1; }
      .ColorScheme-Highlight    { color: #7ec9f0; }
      .ColorScheme-PositiveText { color: #27ae60; }
      .ColorScheme-NeutralText  { color: #f67400; }
      .ColorScheme-NegativeText { color: #da4453; }
      .ColorScheme-ActiveText   { color: #3daee9; }
      .ColorScheme-Complement   { color: #ffffff; }
      .ColorScheme-Contrast     { color: #000000; }
    </style>
<style id="extended-color-scheme" type="text/css">
      .ExScheme-Black     { color:#3e3e3e; }
      .ExScheme-White     { color:#fcfcfc; }
      .ExScheme-Grey-1    { color:#cfd5d5; }
      .ExScheme-Grey-2    { color:#909c9c; }
      .ExScheme-Grey-3    { color:#536161; }
      .ExScheme-Red-1     { color:#ffafa5; }
      .ExScheme-Red-2     { color:#bf4231; }
      .ExScheme-Red-3     { color:#4d2f2b; }
      .ExScheme-Green-1   { color:#abf9c7; }
      .ExScheme-Green-2   { color:#3bb566; }
      .ExScheme-Green-3   { color:#377d50; }
      .ExScheme-Blue-1    { color:#abdaf9; }
      .ExScheme-Blue-2    { color:#3daefd; }
      .ExScheme-Blue-3    { color:#2b3c4d; }
      .ExScheme-Yellow-1  { color:#faffa5; }
      .ExScheme-Yellow-2  { color:#cac726; }
      .ExScheme-Yellow-3  { color:#4b4d2b; }
      .ExScheme-Orange-1  { color:#ffdaa5; }
      .ExScheme-Orange-2  { color:#ff9701; }
      .ExScheme-Orange-3  { color:#4d372b; }
      .ExScheme-Brown-1   { color:#e9d6bb; }
      .ExScheme-Brown-2   { color:#997657; }
      .ExScheme-Brown-3   { color:#433a35; }
      .ExScheme-Purple-1  { color:#e2abf9; }
      .ExScheme-Purple-2  { color:#b401ff; }
      .ExScheme-Purple-3  { color:#432b4d; }
      .ExScheme-Cyan-1    { color:#b2f2e6; }
      .ExScheme-Cyan-2    { color:#31bfa6; }
      .ExScheme-Cyan-3    { color:#2b4d47; }
      .ExScheme-Magenta-1 { color:#f8a6d8; }
      .ExScheme-Magenta-2 { color:#f00091; }
      .ExScheme-Magenta-3 { color:#770048; }
    </style>
<linearGradient id="uyr">
<stop offset="0"/>
<stop offset="1" stop-opacity="0"/>
</linearGradient>
<linearGradient id="uys">
<stop offset="0" stop-color="#fff"/>
<stop offset="1" stop-color="#fff" stop-opacity="0"/>
</linearGradient>
<style id="uyt" type="text/css">
        .force-display-for-editing { display: inline !important; }
    </style><style class="remove-if__show-crease" type="text/css">
        .enable-if__show-crease { display: none; }
    </style><style class="remove-if__color-sync-mimes-places" type="text/css">
        .enable-if__color-sync-mimes-places { display: none; }
    </style><radialGradient cx=".5" cy="0" id="uyu" r="1" xlink:href="#uys"/><linearGradient id="uyv" xlink:href="#uyr" y1="1" y2=".5"/><style class="ColorScheme-Background" fill="currentColor" opacity=".6" type="text/css">
   .ColorScheme-Text           { color:#eff0f1; }
      .ColorScheme-Background     { color:#31363b; }
      .ColorScheme-Highlight      { color:#3daefd; }
      .ColorScheme-ViewBackground { color:#fcfcfc; }
      .ColorScheme-PositiveText   { color:#27ae60; }
      .ColorScheme-NeutralText    { color:#f67400; }
      .ColorScheme-NegativeText   { color:#da4453; }
  </style><path d="M 7,6 C 5.9,6 5,6.9 5,8 v 2 4 c -1.1,0 -2,.9 -2,2 v 24 c 0,1.1 .9,2 2,2 h 38 c 1.1,0 2,-.9 2,-2 V 25 16 14 c 0,-1.1 -.9,-2 -2,-2 V 10 C 43,8.9 42.1,8 41,8 H 21 C 18,8 18,6 15,6 Z" id="uyw"></path><path d="M 7,6 C 5.9,6 5,6.9 5,8 v 2 4 h 10 c 3,0 3,-2 6,-2 H 43 V 10 C 43,8.9 42.1,8 41,8 H 21 C 18,8 18,6 15,6 Z" id="uyx"></path></defs>
<g id="content" transform="translate(0,0)"><use class="sync-color enable-if__color-sync-mimes-places force-display-for-editing ColorScheme-ActiveText" fill="currentColor" href="#uyw"></use><use class="primary-color remove-if__color-sync-mimes-places ColorScheme-ActiveText ExScheme-Grey-1" fill="currentColor" href="#uyw"></use><use class="ColorScheme-Contrast" fill="currentColor" href="#uyw" opacity=".1"></use><g id="decal" transform="translate(12,15)"><path class="ExScheme-Grey-3" d="M 4,2 C 2.9,2 2,2.9 2,4 v 16 c 0,1.1 .9,2 2,2 h 16 c 1.1,0 2,-.9 2,-2 V 4 C 22,2.9 21.1,2 20,2 Z m 8.66,1 H 20 c .55,0 1,.45 1,1 v 16 c 0,.55 -.45,1 -1,1 H 14 C 13.8,19.75 13.65,18.53 13.57,17.5 13.1,17.46 12.56,17.5 12,17.5 9.9,17.5 8.34,17 7.3,16.45 6.2,15.9 5.65,15.35 5.65,15.35 c -.2,-.2 -.2,-.5 0,-.7 C 5.74,14.55 5.87,14.5 6,14.5 c .13,2e-5 .26,.05 .35,.15 0,0 .43,.44 1.37,.9 C 8.66,16 10.1,16.5 12,16.5 c .54,0 1.05,-.04 1.5,-.1 C 13.4,13.84 13.5,12 13.5,12 h -3 c 0,0 -.4,-4.5 2.16,-9 z m .85,13.4 c 0,.3 .03,.66 .06,1 1.3,-.2 2.4,-.56 3.15,-.95 1.06,-.53 1.63,-1.1 1.63,-1.1 .2,-.2 .2,-.5 0,-.7 C 18.26,14.55 18.13,14.5 18,14.5 c -.13,2e-5 -.26,.05 -.35,.15 0,0 -.43,.44 -1.37,.9 -.67,.34 -1.6,.7 -2.77,.84 z M 6.47,8 C 6.5,8 6.5,8 6.5,8 6.8,8 7,8.2 7,8.5 v 1 C 7,9.8 6.8,10 6.5,10 6.2,10 6,9.8 6,9.5 v -1 C 6,8.23 6.2,8 6.47,8 Z M 17.47,8 C 17.2,8 17,8.23 17,8.5 v 1 C 17,9.8 17.2,10 17.5,10 17.8,10 18,9.8 18,9.5 v -1 C 18,8.2 17.8,8 17.5,8 c -0,0 -0,-4.3e-4 -.03,0 z" fill="currentColor" opacity=".6"/><path class="ExScheme-Grey-3" d="M 4,2 C 2.9,2 2,2.9 2,4 v 16 c 0,1.1 .9,2 2,2 h 16 c 1.1,0 2,-.9 2,-2 V 4 C 22,2.9 21.1,2 20,2 Z m 0,0.5 h 8.47 c -2.77,4.74 -2.47,9.54 -2.47,9.54 0,.26 .24,.46 .5,.46 h 2.5 c -0,.33 -.05,1.57 0,3.43 C 12.7,15.96 12.36,16 12,16 10.17,16 8.83,15.55 7.95,15.1 7.06,14.66 6.7,14.3 6.7,14.3 c -0,-0 -0,-0 -0,-0 C 6.5,14.1 6.27,14 6,14 c -.27,4e-5 -.5,.1 -.7,.3 -.4,.4 -.4,1.03 0,1.4 6.5e-4,6.53e-4 0,0 0,0 0,0 .64,.6 1.76,1.2 C 8.17,17.45 9.83,18 12,18 c .4,0 .77,-.04 1.14,-.07 .1,1.13 .26,2.34 .5,3.57 H 4 C 3.16,21.5 2.5,20.84 2.5,20 V 4 C 2.5,3.16 3.16,2.5 4,2.5 Z M 12.66,3 H 20 c .55,0 1,.45 1,1 v 16 c 0,.55 -.45,1 -1,1 H 14 C 13.8,19.75 13.65,18.53 13.57,17.5 13.1,17.46 12.56,17.5 12,17.5 9.9,17.5 8.34,17 7.3,16.45 6.2,15.9 5.65,15.35 5.65,15.35 c -.2,-.2 -.2,-.5 0,-.7 C 5.74,14.55 5.87,14.5 6,14.5 c .13,2e-5 .26,.05 .35,.15 0,0 .43,.44 1.37,.9 C 8.66,16 10.1,16.5 12,16.5 c .54,0 1.05,-.04 1.5,-.1 C 13.4,13.84 13.5,12 13.5,12 h -3 c 0,0 -.4,-4.5 2.16,-9 z m .85,13.4 c 0,.3 .03,.66 .06,1 1.3,-.2 2.4,-.56 3.15,-.95 1.06,-.53 1.63,-1.1 1.63,-1.1 .2,-.2 .2,-.5 0,-.7 C 18.26,14.55 18.13,14.5 18,14.5 c -.13,2e-5 -.26,.05 -.35,.15 0,0 -.43,.44 -1.37,.9 -.67,.34 -1.6,.7 -2.77,.84 z M 6.45,7.5 C 5.9,7.53 5.5,7.97 5.5,8.5 v 1 c 0,.55 .45,1 1,1 .55,0 1,-.45 1,-1 v -1 c 0,-.55 -.45,-1 -1,-1 0,0 -0,-0 -.05,0 z M 6.47,8 C 6.5,8 6.5,8 6.5,8 6.8,8 7,8.2 7,8.5 v 1 C 7,9.8 6.8,10 6.5,10 6.2,10 6,9.8 6,9.5 v -1 C 6,8.23 6.2,8 6.47,8 Z M 17.47,8 C 17.2,8 17,8.23 17,8.5 v 1 C 17,9.8 17.2,10 17.5,10 17.8,10 18,9.8 18,9.5 v -1 C 18,8.2 17.8,8 17.5,8 17.5,8 17.5,8 17.47,8 Z" fill="currentColor" opacity=".6"/></g><use href="#uyx" opacity=".4"></use><use fill="url(#uyv)" href="#uyx" opacity=".1"></use><path d="m 21,12 c -3,0 -3,2 -6,2 H 5 c -1.1,0 -2,.9 -2,2 v 24 c 0,1.1 .9,2 2,2 h 38 c 1.1,0 2,-.9 2,-2 V 25 16 14 c 0,-1.1 -.9,-2 -2,-2 z" fill="url(#uyu)" opacity=".2"/><path class="ColorScheme-Contrast" d="m 3,39 v 1 c 0,1.1 .9,2 2,2 h 38 c 1.1,0 2,-.9 2,-2 v -1 c 0,1.1 -.9,2 -2,2 H 5 C 3.9,41 3,40.1 3,39 Z" fill="currentColor" opacity=".1"/><path class="ColorScheme-Contrast" d="M 3,39.5 V 40 c 0,1.1 .9,2 2,2 h 38 c 1.1,0 2,-.9 2,-2 v -0.5 c 0,1.1 -.9,2 -2,2 H 5 c -1.1,0 -2,-.9 -2,-2 z" fill="currentColor" opacity=".2"/><path d="m 21,12 c -3,0 -3,2 -6,2 H 5 c -1.1,0 -2,.9 -2,2 v 1 c 0,-1.1 .9,-2 2,-2 h 10 c 3,0 3,-2 6,-2 h 22 c 1.1,0 2,.9 2,2 v -1 c 0,-1.1 -.9,-2 -2,-2 z" fill="#fff" opacity=".1"/><path d="m 21,12 c -3,0 -3,2 -6,2 H 5 c -1.1,0 -2,.9 -2,2 v 0.5 c 0,-1.1 .9,-2 2,-2 h 10 c 3,0 3,-2 6,-2 h 22 c 1.1,0 2,.9 2,2 V 14 c 0,-1.1 -.9,-2 -2,-2 z" fill="#fff" opacity=".2"/><path d="m 21,11 c -3,0 -3,2 -6,2 H 5 v 1 h 10 c 3,0 3,-2 6,-2 h 22 v -1 z" opacity=".1"/><path d="m 21,11.5 c -3,0 -3,2 -6,2 H 5 V 14 h 10 c 3,0 3,-2 6,-2 h 22 v -0.5 z" opacity=".2"/></g>
</svg>