<svg height="48" version="1.1" width="48" xmlns="http://www.w3.org/2000/svg" xmlns:svg="http://www.w3.org/2000/svg" xmlns:xlink="http://www.w3.org/1999/xlink">
<defs id="primary-definitions">
<style id="current-color-scheme" type="text/css">
      .ColorScheme-Text           { color:#fff; }
      .ColorScheme-Background     { color:#111; }
      .ColorScheme-Highlight      { color:#3daefd; }
      .ColorScheme-ViewBackground { color:#000; }
      .ColorScheme-PositiveText   { color:#27ae60; }
      .ColorScheme-NeutralText    { color:#f67400; }
      .ColorScheme-NegativeText   { color:#da4453; }
    </style>
<style id="extended-color-scheme" type="text/css">
      .ExScheme-Black     { color:#3e3e3e; }
      .ExScheme-White     { color:#fcfcfc; }
      .ExScheme-Grey-1    { color:#cfd5d5; }
      .ExScheme-Grey-2    { color:#909c9c; }
      .ExScheme-Grey-3    { color:#536161; }
      .ExScheme-Red-1     { color:#ffafa5; }
      .ExScheme-Red-2     { color:#bf4231; }
      .ExScheme-Red-3     { color:#4d2f2b; }
      .ExScheme-Green-1   { color:#abf9c7; }
      .ExScheme-Green-2   { color:#3bb566; }
      .ExScheme-Green-3   { color:#377d50; }
      .ExScheme-Blue-1    { color:#abdaf9; }
      .ExScheme-Blue-2    { color:#3daefd; }
      .ExScheme-Blue-3    { color:#2b3c4d; }
      .ExScheme-Yellow-1  { color:#faffa5; }
      .ExScheme-Yellow-2  { color:#cac726; }
      .ExScheme-Yellow-3  { color:#4b4d2b; }
      .ExScheme-Orange-1  { color:#ffdaa5; }
      .ExScheme-Orange-2  { color:#ff9701; }
      .ExScheme-Orange-3  { color:#4d372b; }
      .ExScheme-Brown-1   { color:#e9d6bb; }
      .ExScheme-Brown-2   { color:#997657; }
      .ExScheme-Brown-3   { color:#433a35; }
      .ExScheme-Purple-1  { color:#e2abf9; }
      .ExScheme-Purple-2  { color:#b401ff; }
      .ExScheme-Purple-3  { color:#432b4d; }
      .ExScheme-Cyan-1    { color:#b2f2e6; }
      .ExScheme-Cyan-2    { color:#31bfa6; }
      .ExScheme-Cyan-3    { color:#2b4d47; }
      .ExScheme-Magenta-1 { color:#f8a6d8; }
      .ExScheme-Magenta-2 { color:#f00091; }
      .ExScheme-Magenta-3 { color:#770048; }
    </style>
<linearGradient id="uBI">
<stop offset="0"/>
<stop offset="1" stop-opacity="0"/>
</linearGradient>
<linearGradient id="uBJ">
<stop offset="0" stop-color="#fff"/>
<stop offset="1" stop-color="#fff" stop-opacity="0"/>
</linearGradient>
<style class="toggle-enable-crease" type="text/css">
        .folder-crease { display: none; }
    </style><style class="toggle-manilla-folders" type="text/css">
        .folder-manilla { display: none; }
    </style><radialGradient cx=".5" cy="0" id="uBK" r="1" xlink:href="#uBJ"/><linearGradient id="uBL" xlink:href="#uBI" y1="1" y2=".5"/><path d="M 7,6 C 5.9,6 5,6.9 5,8 v 2 4 c -1.1,0 -2,.9 -2,2 v 24 c 0,1.1 .9,2 2,2 h 38 c 1.1,0 2,-.9 2,-2 V 25 16 14 c 0,-1.1 -.9,-2 -2,-2 V 10 C 43,8.9 42.1,8 41,8 H 21 C 18,8 18,6 15,6 Z" id="uBM"></path><path d="M 7,6 C 5.9,6 5,6.9 5,8 v 2 4 h 10 c 3,0 3,-2 6,-2 H 43 V 10 C 43,8.9 42.1,8 41,8 H 21 C 18,8 18,6 15,6 Z" id="uBN"></path></defs>
<g id="content" transform="translate(0,0)"><use class="folder-manilla ExScheme-Brown-1" fill="currentColor" href="#uBM"></use><use class="toggle-manilla-folders ColorScheme-Highlight" fill="currentColor" href="#uBM" id="primary-color"></use><use class="ColorScheme-Text" fill="currentColor" href="#uBM" opacity=".1"></use><g id="emblem" transform="translate(12,15)"><path class="ColorScheme-Background" d="M 7.5 5 C 7.2 5 7 5.2 7 5.5 L 7 9 L 3.45 9 C 3.2 9 3 9.3 3 9.45 L 3 9.55 C 3 9.8 3.2 10 3.45 10 L 7 10 L 7 14 L 3.5 14 C 3.2 14 3 14.2 3 14.5 C 3 14.8 3.2 15 3.5 15 L 7 15 L 7 18.5 C 7 18.8 7.2 19 7.5 19 C 7.8 19 8 18.8 8 18.5 L 8 15 L 12 15 L 12 18.5 C 12 18.8 12.2 19 12.5 19 C 12.8 19 13 18.8 13 18.5 L 13 15 L 16.5 15 C 16.8 15 17 14.8 17 14.5 C 17 14.2 16.8 14 16.5 14 L 13 14 L 13 10 L 16.55 10 C 16.8 10 17 9.8 17 9.55 L 17 9.45 C 17 9.3 16.8 9 16.55 9 L 13 9 L 13 5.5 C 13 5.2 12.8 5 12.5 5 C 12.2 5 12 5.2 12 5.5 L 12 9 L 8 9 L 8 5.5 C 8 5.2 7.8 5 7.5 5 z M 20.5 5 C 20.2 5 20 5.2 20 5.5 L 20 15.5 C 20 15.8 20.2 16 20.5 16 C 20.8 16 21 15.8 21 15.5 L 21 5.5 C 21 5.2 20.8 5 20.5 5 z M 8 10 L 12 10 L 12 14 L 8 14 L 8 10 z M 20.47 18 C 20.2 18 20 18.23 20 18.5 C 20 18.8 20.2 19 20.5 19 C 20.8 19 21 18.8 21 18.5 C 21 18.2 20.8 18 20.5 18 C 20.5 18 20.5 18 20.47 18 z " fill="currentColor" opacity=".6" stop-color="#000000"/><path class="ColorScheme-Background" d="M 7.5,5 C 7.2,5 7,5.2 7,5.5 V 9 H 3.45 C 3.2,9 3,9.3 3,9.45 v .1 C 3,9.8 3.2,10 3.45,10 H 7 v 4 H 3.5 C 3.2,14 3,14.2 3,14.5 3,14.8 3.2,15 3.5,15 H 7 v 3.5 C 7,18.8 7.2,19 7.5,19 7.8,19 8,18.8 8,18.5 V 15 h 4 v 3.5 c 0,.3 .2,0.5 0.5,0.5 .3,0 0.5,-.2 0.5,-0.5 V 15 h 3.5 C 16.8,15 17,14.8 17,14.5 17,14.2 16.8,14 16.5,14 H 13 v -4 h 3.55 C 16.8,10 17,9.8 17,9.55 V 9.45 C 17,9.3 16.8,9 16.55,9 H 13 V 5.5 C 13,5.2 12.8,5 12.5,5 12.2,5 12,5.2 12,5.5 V 9 H 8 V 5.5 C 8,5.2 7.8,5 7.5,5 Z m 13,0 C 20.2,5 20,5.2 20,5.5 v 10 c 0,.3 .2,0.5 0.5,0.5 .3,0 0.5,-.2 0.5,-0.5 V 5.5 C 21,5.2 20.8,5 20.5,5 Z M 8,10 h 4 v 4 H 8 Z m 12.47,8 C 20.2,18 20,18.23 20,18.5 20,18.8 20.2,19 20.5,19 20.8,19 21,18.8 21,18.5 21,18.2 20.8,18 20.5,18 c -0,0 -0,-4.3e-4 -.03,0 z" fill="currentColor" opacity=".6" stop-color="#000000"/></g><use href="#uBN" opacity=".4"></use><use class="toggle-flat-design" fill="url(#uBL)" href="#uBN" opacity=".1"></use><path class="toggle-flat-design" d="m 21,12 c -3,0 -3,2 -6,2 H 5 c -1.1,0 -2,.9 -2,2 v 24 c 0,1.1 .9,2 2,2 h 38 c 1.1,0 2,-.9 2,-2 V 25 16 14 c 0,-1.1 -.9,-2 -2,-2 z" fill="url(#uBK)" opacity=".2"/><path class="folder-crease " d="m 3,33 v 1 H 9.5 C 9.8,34 10,33.8 10,33.5 10,33.2 9.8,33 9.5,33 Z m 35.5,0 c -.3,0 -0.5,.2 -0.5,0.5 0,.3 .2,0.5 0.5,0.5 H 45 v -1 z" opacity=".4"/><path class="ColorScheme-Text" d="m 3,39 v 1 c 0,1.1 .9,2 2,2 h 38 c 1.1,0 2,-.9 2,-2 v -1 c 0,1.1 -.9,2 -2,2 H 5 C 3.9,41 3,40.1 3,39 Z" fill="currentColor" opacity=".1"/><path class="ColorScheme-Text" d="M 3,39.5 V 40 c 0,1.1 .9,2 2,2 h 38 c 1.1,0 2,-.9 2,-2 v -0.5 c 0,1.1 -.9,2 -2,2 H 5 c -1.1,0 -2,-.9 -2,-2 z" fill="currentColor" opacity=".2"/><path d="m 21,12 c -3,0 -3,2 -6,2 H 5 c -1.1,0 -2,.9 -2,2 v 1 c 0,-1.1 .9,-2 2,-2 h 10 c 3,0 3,-2 6,-2 h 22 c 1.1,0 2,.9 2,2 v -1 c 0,-1.1 -.9,-2 -2,-2 z" fill="#fff" opacity=".1"/><path d="m 21,12 c -3,0 -3,2 -6,2 H 5 c -1.1,0 -2,.9 -2,2 v 0.5 c 0,-1.1 .9,-2 2,-2 h 10 c 3,0 3,-2 6,-2 h 22 c 1.1,0 2,.9 2,2 V 14 c 0,-1.1 -.9,-2 -2,-2 z" fill="#fff" opacity=".2"/><path d="m 21,11 c -3,0 -3,2 -6,2 H 5 v 1 h 10 c 3,0 3,-2 6,-2 h 22 v -1 z" opacity=".1"/><path d="m 21,11.5 c -3,0 -3,2 -6,2 H 5 V 14 h 10 c 3,0 3,-2 6,-2 h 22 v -0.5 z" opacity=".2"/></g>
</svg>