<svg height="48" version="1.1" width="48" xmlns="http://www.w3.org/2000/svg" xmlns:svg="http://www.w3.org/2000/svg" xmlns:xlink="http://www.w3.org/1999/xlink">
<defs id="primary-definitions">
<style id="current-color-scheme" type="text/css">
      .ColorScheme-Text         { color: #232629; }
      .ColorScheme-Background   { color: #eff0f1; }
      .ColorScheme-Highlight    { color: #7ec9f0; }
      .ColorScheme-PositiveText { color: #27ae60; }
      .ColorScheme-NeutralText  { color: #f67400; }
      .ColorScheme-NegativeText { color: #da4453; }
      .ColorScheme-ActiveText   { color: #3daee9; }
      .ColorScheme-Complement   { color: #ffffff; }
      .ColorScheme-Contrast     { color: #000000; }
    </style>
<style id="extended-color-scheme" type="text/css">
      .ExScheme-Black     { color:#3e3e3e; }
      .ExScheme-White     { color:#fcfcfc; }
      .ExScheme-Grey-1    { color:#cfd5d5; }
      .ExScheme-Grey-2    { color:#909c9c; }
      .ExScheme-Grey-3    { color:#536161; }
      .ExScheme-Red-1     { color:#ffafa5; }
      .ExScheme-Red-2     { color:#bf4231; }
      .ExScheme-Red-3     { color:#4d2f2b; }
      .ExScheme-Green-1   { color:#abf9c7; }
      .ExScheme-Green-2   { color:#3bb566; }
      .ExScheme-Green-3   { color:#377d50; }
      .ExScheme-Blue-1    { color:#abdaf9; }
      .ExScheme-Blue-2    { color:#3daefd; }
      .ExScheme-Blue-3    { color:#2b3c4d; }
      .ExScheme-Yellow-1  { color:#faffa5; }
      .ExScheme-Yellow-2  { color:#cac726; }
      .ExScheme-Yellow-3  { color:#4b4d2b; }
      .ExScheme-Orange-1  { color:#ffdaa5; }
      .ExScheme-Orange-2  { color:#ff9701; }
      .ExScheme-Orange-3  { color:#4d372b; }
      .ExScheme-Brown-1   { color:#e9d6bb; }
      .ExScheme-Brown-2   { color:#997657; }
      .ExScheme-Brown-3   { color:#433a35; }
      .ExScheme-Purple-1  { color:#e2abf9; }
      .ExScheme-Purple-2  { color:#b401ff; }
      .ExScheme-Purple-3  { color:#432b4d; }
      .ExScheme-Cyan-1    { color:#b2f2e6; }
      .ExScheme-Cyan-2    { color:#31bfa6; }
      .ExScheme-Cyan-3    { color:#2b4d47; }
      .ExScheme-Magenta-1 { color:#f8a6d8; }
      .ExScheme-Magenta-2 { color:#f00091; }
      .ExScheme-Magenta-3 { color:#770048; }
    </style>
<linearGradient id="uOV">
<stop offset="0"/>
<stop offset="1" stop-opacity="0"/>
</linearGradient>
<linearGradient id="uOW">
<stop offset="0" stop-color="#fff"/>
<stop offset="1" stop-color="#fff" stop-opacity="0"/>
</linearGradient>
<style id="uOX" type="text/css">
        .force-display-for-editing { display: inline !important; }
    </style><style class="remove-if__show-crease" type="text/css">
        .enable-if__show-crease { display: none; }
    </style><style class="remove-if__color-sync-mimes-places" type="text/css">
        .enable-if__color-sync-mimes-places { display: none; }
    </style><radialGradient cx=".5" cy="0" id="uOY" r="1" xlink:href="#uOW"/><linearGradient id="uOZ" xlink:href="#uOV" y1="1" y2=".5"/><style class="ColorScheme-Background" fill="currentColor" opacity=".6" type="text/css">
   .ColorScheme-Text           { color:#eff0f1; }
      .ColorScheme-Background     { color:#31363b; }
      .ColorScheme-Highlight      { color:#3daefd; }
      .ColorScheme-ViewBackground { color:#fcfcfc; }
      .ColorScheme-PositiveText   { color:#27ae60; }
      .ColorScheme-NeutralText    { color:#f67400; }
      .ColorScheme-NegativeText   { color:#da4453; }
  </style><path d="M 7,6 C 5.9,6 5,6.9 5,8 v 2 4 c -1.1,0 -2,.9 -2,2 v 24 c 0,1.1 .9,2 2,2 h 38 c 1.1,0 2,-.9 2,-2 V 25 16 14 c 0,-1.1 -.9,-2 -2,-2 V 10 C 43,8.9 42.1,8 41,8 H 21 C 18,8 18,6 15,6 Z" id="uP0"></path><path d="M 7,6 C 5.9,6 5,6.9 5,8 v 2 4 h 10 c 3,0 3,-2 6,-2 H 43 V 10 C 43,8.9 42.1,8 41,8 H 21 C 18,8 18,6 15,6 Z" id="uP1"></path></defs>
<g id="content" transform="translate(0,0)"><use class="sync-color enable-if__color-sync-mimes-places force-display-for-editing ColorScheme-ActiveText" fill="currentColor" href="#uP0"></use><use class="primary-color remove-if__color-sync-mimes-places ColorScheme-ActiveText" fill="#3bad7e" href="#uP0"></use><use class="ColorScheme-Contrast" fill="currentColor" href="#uP0" opacity=".1"></use><g id="decal" transform="translate(12,15)"><path class="ColorScheme-Background" d="m 10.93,3 c 0,0 .6,.15 1.16,1.1 l 2,3.46 -1.3,0.75 4.3,.4 1.8,-3.9 -1.3,0.75 -1,-1.73 C 16.3,3.4 16.04,3.03 15.2,3.03 Z M 9.6,3.87 C 9.03,3.9 8.5,4.2 8.1,4.94 l -1.75,3.03 3.46,2 2.25,-3.9 c -.6,-1.4 -1.55,-2.24 -2.47,-2.2 z m 9.7,4.76 -3.46,2 2.25,3.9 c 2.4,.3 4.07,-.95 2.96,-2.87 z m -11.73,1.2 -4.3,.4 1.3,0.75 -1,1.73 c -.26,.45 -.5,.86 -.05,1.6 l 2.1,3.7 c 0,0 -.16,-.6 .4,-1.56 l 2,-3.46 1.3,0.75 z M 15.5,14.5 13,18 15.5,21.5 V 20 h 2 c .5,0 1,-0 1.4,-.75 L 21.05,15.56 c 0,0 -.43,.44 -1.55,.44 h -4 z m -8,1.5 c -1.47,1.9 -1.2,4 1,4 h 3.5 v -4 z" fill="currentColor" opacity=".6"/><path class="ColorScheme-Background" d="m 10.93,3 c 0,0 .6,.15 1.16,1.1 l 2,3.46 -1.3,0.75 4.3,.4 1.8,-3.9 -1.3,0.75 -1,-1.73 C 16.3,3.4 16.04,3.03 15.2,3.03 Z m 1.27,.5 3,0 c .35,0 .5,.07 .6,.15 .1,.1 .2,.2 .33,.45 l 1.25,2.17 .4,-.2 -1,2.17 -2.37,-.23 .4,-.2 -2.25,-3.9 C 12.4,3.7 12.3,3.66 12.2,3.5 Z M 9.6,3.87 C 9.03,3.9 8.5,4.2 8.1,4.94 l -1.75,3.03 3.46,2 2.25,-3.9 c -.6,-1.4 -1.55,-2.24 -2.47,-2.2 z m 0,0.5 c .56,-0 1.33,.6 1.87,1.7 l -1.85,3.2 -2.6,-1.5 1.5,-2.6 C 8.87,4.6 9.24,4.4 9.6,4.37 Z m 9.8,4.26 -3.46,2 2.25,3.9 c 2.4,.3 4.07,-.95 2.96,-2.87 z m -.2,.7 1.5,2.6 c .24,.4 .3,.74 .3,1 -.03,.26 -.13,.46 -.34,.65 -.4,.35 -1.2,.55 -2.2,.47 l -1.85,-3.2 z m -11.54,.5 -4.3,.4 1.3,0.75 -1,1.73 c -.26,.45 -.5,.86 -.05,1.6 l 2.1,3.7 c 0,0 -.16,-.6 .4,-1.56 l 2,-3.46 1.3,0.75 z m -.3,.53 1,2.17 -.4,-.2 -2.25,3.9 c -.1,.2 -.1,.3 -.16,.46 L 3.96,14.1 C 3.8,13.8 3.8,13.63 3.8,13.5 3.8,13.36 3.9,13.2 4,13 l 1.25,-2.17 -.4,-.2 z M 15.5,14.5 13,18 15.5,21.5 V 20 h 2 c .5,0 1,-0 1.4,-.75 L 21.05,15.56 c 0,0 -.43,.44 -1.55,.44 h -4 z m -8,1.5 c -1.47,1.9 -1.2,4 1,4 H 12 V 16 Z M 15,16.06 V 16.5 h 4.5 c .2,0 .3,-.06 .5,-.1 l -1.5,2.6 C 18.3,19.3 18.17,19.4 18.05,19.44 17.93,19.5 17.76,19.5 17.5,19.5 H 15 v .44 L 13.6,18 Z M 7.8,16.5 H 11.5 v 3 h -3 C 8.03,19.5 7.7,19.4 7.5,19.24 7.3,19.1 7.17,18.9 7.1,18.6 7,18.1 7.23,17.3 7.8,16.5 Z" fill="currentColor" opacity=".6"/></g><use href="#uP1" opacity=".4"></use><use fill="url(#uOZ)" href="#uP1" opacity=".1"></use><path d="m 21,12 c -3,0 -3,2 -6,2 H 5 c -1.1,0 -2,.9 -2,2 v 24 c 0,1.1 .9,2 2,2 h 38 c 1.1,0 2,-.9 2,-2 V 25 16 14 c 0,-1.1 -.9,-2 -2,-2 z" fill="url(#uOY)" opacity=".2"/><path class="ColorScheme-Contrast" d="m 3,39 v 1 c 0,1.1 .9,2 2,2 h 38 c 1.1,0 2,-.9 2,-2 v -1 c 0,1.1 -.9,2 -2,2 H 5 C 3.9,41 3,40.1 3,39 Z" fill="currentColor" opacity=".1"/><path class="ColorScheme-Contrast" d="M 3,39.5 V 40 c 0,1.1 .9,2 2,2 h 38 c 1.1,0 2,-.9 2,-2 v -0.5 c 0,1.1 -.9,2 -2,2 H 5 c -1.1,0 -2,-.9 -2,-2 z" fill="currentColor" opacity=".2"/><path d="m 21,12 c -3,0 -3,2 -6,2 H 5 c -1.1,0 -2,.9 -2,2 v 1 c 0,-1.1 .9,-2 2,-2 h 10 c 3,0 3,-2 6,-2 h 22 c 1.1,0 2,.9 2,2 v -1 c 0,-1.1 -.9,-2 -2,-2 z" fill="#fff" opacity=".1"/><path d="m 21,12 c -3,0 -3,2 -6,2 H 5 c -1.1,0 -2,.9 -2,2 v 0.5 c 0,-1.1 .9,-2 2,-2 h 10 c 3,0 3,-2 6,-2 h 22 c 1.1,0 2,.9 2,2 V 14 c 0,-1.1 -.9,-2 -2,-2 z" fill="#fff" opacity=".2"/><path d="m 21,11 c -3,0 -3,2 -6,2 H 5 v 1 h 10 c 3,0 3,-2 6,-2 h 22 v -1 z" opacity=".1"/><path d="m 21,11.5 c -3,0 -3,2 -6,2 H 5 V 14 h 10 c 3,0 3,-2 6,-2 h 22 v -0.5 z" opacity=".2"/></g>
</svg>