<svg height="48" version="1.1" width="48" xmlns="http://www.w3.org/2000/svg" xmlns:svg="http://www.w3.org/2000/svg" xmlns:xlink="http://www.w3.org/1999/xlink">
<defs id="primary-definitions">
<style id="current-color-scheme" type="text/css">
      .ColorScheme-Text         { color: #232629; }
      .ColorScheme-Background   { color: #eff0f1; }
      .ColorScheme-Highlight    { color: #7ec9f0; }
      .ColorScheme-PositiveText { color: #27ae60; }
      .ColorScheme-NeutralText  { color: #f67400; }
      .ColorScheme-NegativeText { color: #da4453; }
      .ColorScheme-ActiveText   { color: #3daee9; }
      .ColorScheme-Complement   { color: #ffffff; }
      .ColorScheme-Contrast     { color: #000000; }
    </style>
<style id="extended-color-scheme" type="text/css">
      .ExScheme-Black     { color:#3e3e3e; }
      .ExScheme-White     { color:#fcfcfc; }
      .ExScheme-Grey-1    { color:#cfd5d5; }
      .ExScheme-Grey-2    { color:#909c9c; }
      .ExScheme-Grey-3    { color:#536161; }
      .ExScheme-Red-1     { color:#ffafa5; }
      .ExScheme-Red-2     { color:#bf4231; }
      .ExScheme-Red-3     { color:#4d2f2b; }
      .ExScheme-Green-1   { color:#abf9c7; }
      .ExScheme-Green-2   { color:#3bb566; }
      .ExScheme-Green-3   { color:#377d50; }
      .ExScheme-Blue-1    { color:#abdaf9; }
      .ExScheme-Blue-2    { color:#3daefd; }
      .ExScheme-Blue-3    { color:#2b3c4d; }
      .ExScheme-Yellow-1  { color:#faffa5; }
      .ExScheme-Yellow-2  { color:#cac726; }
      .ExScheme-Yellow-3  { color:#4b4d2b; }
      .ExScheme-Orange-1  { color:#ffdaa5; }
      .ExScheme-Orange-2  { color:#ff9701; }
      .ExScheme-Orange-3  { color:#4d372b; }
      .ExScheme-Brown-1   { color:#e9d6bb; }
      .ExScheme-Brown-2   { color:#997657; }
      .ExScheme-Brown-3   { color:#433a35; }
      .ExScheme-Purple-1  { color:#e2abf9; }
      .ExScheme-Purple-2  { color:#b401ff; }
      .ExScheme-Purple-3  { color:#432b4d; }
      .ExScheme-Cyan-1    { color:#b2f2e6; }
      .ExScheme-Cyan-2    { color:#31bfa6; }
      .ExScheme-Cyan-3    { color:#2b4d47; }
      .ExScheme-Magenta-1 { color:#f8a6d8; }
      .ExScheme-Magenta-2 { color:#f00091; }
      .ExScheme-Magenta-3 { color:#770048; }
    </style>
<linearGradient id="utB">
<stop offset="0"/>
<stop offset="1" stop-opacity="0"/>
</linearGradient>
<linearGradient id="utC">
<stop offset="0" stop-color="#fff"/>
<stop offset="1" stop-color="#fff" stop-opacity="0"/>
</linearGradient>
<style id="utD" type="text/css">
        .force-display-for-editing { display: inline !important; }
    </style><style class="remove-if__show-crease" type="text/css">
        .enable-if__show-crease { display: none; }
    </style><style class="remove-if__color-sync-mimes-places" type="text/css">
        .enable-if__color-sync-mimes-places { display: none; }
    </style><radialGradient cx=".5" cy="0" id="utE" r="1" xlink:href="#utC"/><linearGradient id="utF" xlink:href="#utB" y1="1" y2=".5"/><style class="ColorScheme-Background" fill="currentColor" opacity=".6" type="text/css">
   .ColorScheme-Text           { color:#eff0f1; }
      .ColorScheme-Background     { color:#31363b; }
      .ColorScheme-Highlight      { color:#3daefd; }
      .ColorScheme-ViewBackground { color:#fcfcfc; }
      .ColorScheme-PositiveText   { color:#27ae60; }
      .ColorScheme-NeutralText    { color:#f67400; }
      .ColorScheme-NegativeText   { color:#da4453; }
  </style><path d="M 7,6 C 5.9,6 5,6.9 5,8 v 2 4 c -1.1,0 -2,.9 -2,2 v 24 c 0,1.1 .9,2 2,2 h 38 c 1.1,0 2,-.9 2,-2 V 25 16 14 c 0,-1.1 -.9,-2 -2,-2 V 10 C 43,8.9 42.1,8 41,8 H 21 C 18,8 18,6 15,6 Z" id="utG"></path><path d="M 7,6 C 5.9,6 5,6.9 5,8 v 2 4 h 10 c 3,0 3,-2 6,-2 H 43 V 10 C 43,8.9 42.1,8 41,8 H 21 C 18,8 18,6 15,6 Z" id="utH"></path></defs>
<g id="content" transform="translate(0,0)"><use class="sync-color enable-if__color-sync-mimes-places force-display-for-editing ColorScheme-ActiveText" fill="currentColor" href="#utG"></use><use class="primary-color remove-if__color-sync-mimes-places ColorScheme-ActiveText" fill="currentColor" href="#utG"></use><use class="ColorScheme-Contrast" fill="currentColor" href="#utG" opacity=".1"></use><g id="decal" transform="translate(12,15)"><path class="ColorScheme-Background" d="M 14.2,2.2 13.03,4.06 C 12.7,4 12.35,4 12,4 11.66,4 11.3,4.03 10.97,4.07 L 9.83,2.24 c -.83,.16 -1.64,.4 -2.4,.75 l .16,2.2 C 7,5.5 6.43,5.9 5.9,6.4 L 3.9,5.57 C 3.35,6.2 2.85,6.9 2.44,7.6 L 3,9.25 V 16 l 4,1 v 1 h 3 v -1 h 4 v 1 h 3 v -1 l 4,-1 V 9.26 L 21.6,7.6 C 21.16,6.86 20.67,6.2 20.1,5.56 L 18.1,6.4 C 17.6,5.9 17,5.5 16.4,5.16 L 16.57,3 C 15.8,2.65 15,2.4 14.2,2.2 Z M 7,10 c 1.1,0 2,.9 2,2 0,1.1 -.9,2 -2,2 -1.1,0 -2,-.9 -2,-2 0,-1.1 .9,-2 2,-2 z m 10,0 c 1.1,0 2,.9 2,2 0,1.1 -.9,2 -2,2 -1.1,0 -2,-.9 -2,-2 0,-1.1 .9,-2 2,-2 z m -5,1 c 0.5,0 1,0.5 1,1 v 2 c 0,0.5 -0.5,1 -1,1 -0.5,0 -1,-0.5 -1,-1 v -2 c 0,-0.5 .45,-1 1,-1 z m -9,6 c 0,2.57 1.93,5 9,5 7.07,0 9,-2.43 9,-5 l -3,1 v 1 h -5 v -1 h -2 v 1 H 6 v -1 z" fill="currentColor" opacity=".6" stop-color="#000000"/><path class="ColorScheme-Background" d="M 14.2,2.2 13.03,4.06 C 12.7,4 12.35,4 12,4 11.66,4 11.3,4.03 10.97,4.07 L 9.83,2.24 c -.83,.16 -1.64,.4 -2.4,.75 l .16,2.2 C 7,5.5 6.43,5.9 5.9,6.4 L 3.9,5.57 C 3.35,6.2 2.85,6.9 2.44,7.6 L 3,9.25 V 16 l 4,1 v 1 h 3 v -1 h 4 v 1 h 3 v -1 l 4,-1 V 9.26 L 21.6,7.6 C 21.16,6.86 20.67,6.2 20.1,5.56 L 18.1,6.4 C 17.6,5.9 17,5.5 16.4,5.16 L 16.57,3 C 15.8,2.65 15,2.4 14.2,2.2 Z m .2,.6 c .56,.13 1.1,.3 1.65,.54 l -.13,1.8 c -0,.2 .1,.4 .25,.47 .57,.3 1.1,.7 1.6,1.15 .14,.13 .35,.17 .53,.1 l 1.65,-.67 c .4,.47 .8,.97 1.1,1.5 l -.5,1.4 C 20.5,9.14 20.5,9.3 20.5,9.26 V 15.5 l -3.5,1 c -.3,2.8e-5 -.5,.2 -0.5,0.5 v 0.5 h -2 V 17 c -2.8e-5,-.3 -.2,-.5 -0.5,-0.5 h -4 c -.3,2.8e-5 -.5,.2 -0.5,0.5 v 0.5 h -2 V 17 C 7.5,16.7 7.3,16.5 7,16.5 l -3.5,-1 V 9.25 C 3.5,9.3 3.5,9.14 3.47,9.1 L 3,7.7 C 3.3,7.15 3.7,6.65 4.1,6.2 L 5.74,6.84 C 5.9,6.9 6.1,6.9 6.26,6.75 6.74,6.3 7.26,5.94 7.83,5.6 8,5.5 8.1,5.34 8.1,5.15 L 7.95,3.35 C 8.5,3.13 9.05,2.96 9.6,2.83 l .94,1.5 c .1,.17 .3,.26 .5,.23 .3,-.04 .64,-.07 .96,-.07 .33,9.4e-4 .65,0 1,.06 .2,0 .4,-.07 .5,-.23 z M 12,15.5 c .4,0 .77,-.2 1.04,-.46 C 13.3,14.77 13.5,14.4 13.5,14 v -2 c 0,-.4 -.2,-.77 -.46,-1.04 C 12.77,10.7 12.4,10.5 12,10.5 c -.85,0 -1.5,.7 -1.5,1.5 v 2 c 0,.4 .2,.77 .46,1.04 C 11.23,15.3 11.6,15.5 12,15.5 Z m -5,-6 c -1.37,0 -2.5,1.13 -2.5,2.5 0,1.37 1.13,2.5 2.5,2.5 1.37,0 2.5,-1.13 2.5,-2.5 C 9.5,10.63 8.37,9.5 7,9.5 Z m 10,0 c -1.37,0 -2.5,1.13 -2.5,2.5 0,1.37 1.13,2.5 2.5,2.5 1.37,0 2.5,-1.13 2.5,-2.5 0,-1.37 -1.13,-2.5 -2.5,-2.5 z M 7,10 c 1.1,0 2,.9 2,2 0,1.1 -.9,2 -2,2 -1.1,0 -2,-.9 -2,-2 0,-1.1 .9,-2 2,-2 z m 10,0 c 1.1,0 2,.9 2,2 0,1.1 -.9,2 -2,2 -1.1,0 -2,-.9 -2,-2 0,-1.1 .9,-2 2,-2 z m -5,1 c 0.5,0 1,0.5 1,1 v 2 c 0,0.5 -0.5,1 -1,1 -0.5,0 -1,-0.5 -1,-1 v -2 c 0,-0.5 .45,-1 1,-1 z m -9,6 c 0,2.57 1.93,5 9,5 7.07,0 9,-2.43 9,-5 l -3,1 v 1 h -5 v -1 h -2 v 1 H 6 V 18 Z M 3.6,17.75 5.5,18.5 V 19 c 2.76e-5,.3 .2,.5 0.5,0.5 h 5 c .3,-2.8e-5 .5,-.2 0.5,-0.5 v -0.5 h 1 V 19 c 2.8e-5,.3 .2,.5 0.5,0.5 h 5 c .3,-2.8e-5 .5,-.2 0.5,-0.5 v -0.5 l 1.9,-0.75 c -.1,.95 -.47,1.6 -1.5,2.4 C 17.63,20.9 15.5,21.5 12,21.5 8.5,21.5 6.37,20.9 5.13,20.05 4.1,19.34 3.7,18.7 3.6,17.75 Z" fill="currentColor" opacity=".6"/><path class="ColorScheme-Background" d="M 7.5 11 A 1 1 0 0 0 6.5 12 A 1 1 0 0 0 7.5 13 A 1 1 0 0 0 8.5 12 A 1 1 0 0 0 7.5 11 z M 16.5 11 A 1 1 0 0 0 15.5 12 A 1 1 0 0 0 16.5 13 A 1 1 0 0 0 17.5 12 A 1 1 0 0 0 16.5 11 z " fill="currentColor" opacity=".6" stop-color="#000000"/><path class="ColorScheme-Background" d="m 7.5,11 a 1,1 0 0 0 -1,1 1,1 0 0 0 1,1 1,1 0 0 0 1,-1 1,1 0 0 0 -1,-1 z m 9,0 a 1,1 0 0 0 -1,1 1,1 0 0 0 1,1 1,1 0 0 0 1,-1 1,1 0 0 0 -1,-1 z" fill="currentColor" opacity=".6" stop-color="#000000"/></g><use href="#utH" opacity=".4"></use><use fill="url(#utF)" href="#utH" opacity=".1"></use><path d="m 21,12 c -3,0 -3,2 -6,2 H 5 c -1.1,0 -2,.9 -2,2 v 24 c 0,1.1 .9,2 2,2 h 38 c 1.1,0 2,-.9 2,-2 V 25 16 14 c 0,-1.1 -.9,-2 -2,-2 z" fill="url(#utE)" opacity=".2"/><path class="ColorScheme-Contrast" d="m 3,39 v 1 c 0,1.1 .9,2 2,2 h 38 c 1.1,0 2,-.9 2,-2 v -1 c 0,1.1 -.9,2 -2,2 H 5 C 3.9,41 3,40.1 3,39 Z" fill="currentColor" opacity=".1"/><path class="ColorScheme-Contrast" d="M 3,39.5 V 40 c 0,1.1 .9,2 2,2 h 38 c 1.1,0 2,-.9 2,-2 v -0.5 c 0,1.1 -.9,2 -2,2 H 5 c -1.1,0 -2,-.9 -2,-2 z" fill="currentColor" opacity=".2"/><path d="m 21,12 c -3,0 -3,2 -6,2 H 5 c -1.1,0 -2,.9 -2,2 v 1 c 0,-1.1 .9,-2 2,-2 h 10 c 3,0 3,-2 6,-2 h 22 c 1.1,0 2,.9 2,2 v -1 c 0,-1.1 -.9,-2 -2,-2 z" fill="#fff" opacity=".1"/><path d="m 21,12 c -3,0 -3,2 -6,2 H 5 c -1.1,0 -2,.9 -2,2 v 0.5 c 0,-1.1 .9,-2 2,-2 h 10 c 3,0 3,-2 6,-2 h 22 c 1.1,0 2,.9 2,2 V 14 c 0,-1.1 -.9,-2 -2,-2 z" fill="#fff" opacity=".2"/><path d="m 21,11 c -3,0 -3,2 -6,2 H 5 v 1 h 10 c 3,0 3,-2 6,-2 h 22 v -1 z" opacity=".1"/><path d="m 21,11.5 c -3,0 -3,2 -6,2 H 5 V 14 h 10 c 3,0 3,-2 6,-2 h 22 v -0.5 z" opacity=".2"/></g>
</svg>