<svg height="48" version="1.1" width="48" xmlns="http://www.w3.org/2000/svg" xmlns:svg="http://www.w3.org/2000/svg" xmlns:xlink="http://www.w3.org/1999/xlink">
<defs id="primary-definitions">
<style id="current-color-scheme" type="text/css">
      .ColorScheme-Text         { color: #232629; }
      .ColorScheme-Background   { color: #eff0f1; }
      .ColorScheme-Highlight    { color: #7ec9f0; }
      .ColorScheme-PositiveText { color: #27ae60; }
      .ColorScheme-NeutralText  { color: #f67400; }
      .ColorScheme-NegativeText { color: #da4453; }
      .ColorScheme-ActiveText   { color: #3daee9; }
      .ColorScheme-Complement   { color: #ffffff; }
      .ColorScheme-Contrast     { color: #000000; }
    </style>
<style id="extended-color-scheme" type="text/css">
      .ExScheme-Black     { color:#3e3e3e; }
      .ExScheme-White     { color:#fcfcfc; }
      .ExScheme-Grey-1    { color:#cfd5d5; }
      .ExScheme-Grey-2    { color:#909c9c; }
      .ExScheme-Grey-3    { color:#536161; }
      .ExScheme-Red-1     { color:#ffafa5; }
      .ExScheme-Red-2     { color:#bf4231; }
      .ExScheme-Red-3     { color:#4d2f2b; }
      .ExScheme-Green-1   { color:#abf9c7; }
      .ExScheme-Green-2   { color:#3bb566; }
      .ExScheme-Green-3   { color:#377d50; }
      .ExScheme-Blue-1    { color:#abdaf9; }
      .ExScheme-Blue-2    { color:#3daefd; }
      .ExScheme-Blue-3    { color:#2b3c4d; }
      .ExScheme-Yellow-1  { color:#faffa5; }
      .ExScheme-Yellow-2  { color:#cac726; }
      .ExScheme-Yellow-3  { color:#4b4d2b; }
      .ExScheme-Orange-1  { color:#ffdaa5; }
      .ExScheme-Orange-2  { color:#ff9701; }
      .ExScheme-Orange-3  { color:#4d372b; }
      .ExScheme-Brown-1   { color:#e9d6bb; }
      .ExScheme-Brown-2   { color:#997657; }
      .ExScheme-Brown-3   { color:#433a35; }
      .ExScheme-Purple-1  { color:#e2abf9; }
      .ExScheme-Purple-2  { color:#b401ff; }
      .ExScheme-Purple-3  { color:#432b4d; }
      .ExScheme-Cyan-1    { color:#b2f2e6; }
      .ExScheme-Cyan-2    { color:#31bfa6; }
      .ExScheme-Cyan-3    { color:#2b4d47; }
      .ExScheme-Magenta-1 { color:#f8a6d8; }
      .ExScheme-Magenta-2 { color:#f00091; }
      .ExScheme-Magenta-3 { color:#770048; }
    </style>
<linearGradient id="upx">
<stop offset="0"/>
<stop offset="1" stop-opacity="0"/>
</linearGradient>
<linearGradient id="upy">
<stop offset="0" stop-color="#fff"/>
<stop offset="1" stop-color="#fff" stop-opacity="0"/>
</linearGradient>
<style id="upz" type="text/css">
        .force-display-for-editing { display: inline !important; }
    </style><style class="remove-if__show-crease" type="text/css">
        .enable-if__show-crease { display: none; }
    </style><style class="remove-if__color-sync-mimes-places" type="text/css">
        .enable-if__color-sync-mimes-places { display: none; }
    </style><radialGradient cx=".5" cy="0" id="upA" r="1" xlink:href="#upy"/><linearGradient id="upB" xlink:href="#upx" y1="1" y2=".5"/><style class="ColorScheme-Background" fill="currentColor" opacity=".6" type="text/css">
   .ColorScheme-Text           { color:#eff0f1; }
      .ColorScheme-Background     { color:#31363b; }
      .ColorScheme-Highlight      { color:#3daefd; }
      .ColorScheme-ViewBackground { color:#fcfcfc; }
      .ColorScheme-PositiveText   { color:#27ae60; }
      .ColorScheme-NeutralText    { color:#f67400; }
      .ColorScheme-NegativeText   { color:#da4453; }
  </style><path d="M 7,6 C 5.9,6 5,6.9 5,8 v 2 4 c -1.1,0 -2,.9 -2,2 v 24 c 0,1.1 .9,2 2,2 h 38 c 1.1,0 2,-.9 2,-2 V 25 16 14 c 0,-1.1 -.9,-2 -2,-2 V 10 C 43,8.9 42.1,8 41,8 H 21 C 18,8 18,6 15,6 Z" id="upC"></path><path d="M 7,6 C 5.9,6 5,6.9 5,8 v 2 4 h 10 c 3,0 3,-2 6,-2 H 43 V 10 C 43,8.9 42.1,8 41,8 H 21 C 18,8 18,6 15,6 Z" id="upD"></path></defs>
<g id="content" transform="translate(0,0)"><use class="sync-color enable-if__color-sync-mimes-places force-display-for-editing ColorScheme-ActiveText" fill="currentColor" href="#upC"></use><use class="primary-color remove-if__color-sync-mimes-places ColorScheme-ActiveText" fill="currentColor" href="#upC"></use><use class="ColorScheme-Contrast" fill="currentColor" href="#upC" opacity=".1"></use><g id="decal" transform="translate(12,15)"><path class="ColorScheme-Background" d="M 12,2 C 6.46,2 2,6.46 2,12 2,17.54 6.46,22 12,22 17.54,22 22,17.54 22,12 22,6.46 17.54,2 12,2 Z m .46,1 c 2.5,.13 4.76,1.3 6.3,3.05 L 18.97,7 18.5,8.5 17,10 v 2 l 1.5,1.5 H 20 l .9,-.24 c -.6,4.2 -4.04,7.46 -8.34,7.7 L 14,19 15.5,16 12.5,14.5 11,13 9,12 7,12.5 H 5.5 L 5,12 V 11 L 4,10.5 c 0,0 -.87,.3 -.9,.3 .1,-.86 .35,-1.7 .7,-2.44 L 4.5,8.5 5.5,8 6,9 6.46,9 6.5,8 8,7 8.5,6 H 10 L 11,5 V 4 h 1.5 L 12,5 13,5.5 13.5,5 13,3.5 Z M 8,5 7.5,5.5 7,5 Z M 3.03,11.3 C 3.4,11.3 4,12 4,12 l 1,1 1.5,0.5 -0.5,1 -0.5,1.5 1.5,2 1,0.5 .3,1.7 C 5.17,18.8 3,15.66 3,12 3,11.76 3,11.5 3.03,11.3 Z" fill="currentColor" opacity=".6"/><path class="ColorScheme-Background" d="M 12,2 C 6.46,2 2,6.46 2,12 2,17.54 6.46,22 12,22 17.54,22 22,17.54 22,12 22,6.46 17.54,2 12,2 Z m 0,0.5 c .14,0 .25,.07 .4,.1 -.36,.1 -.5,.5 -.26,.8 L 12.25,3.5 H 11 C 10.7,3.5 10.5,3.7 10.5,4 V 4.8 L 9.8,5.5 H 8.5 C 8.3,5.5 8.14,5.6 8.05,5.8 L 7.6,6.66 6.2,7.6 C 6.1,7.67 6.04,7.8 6.03,7.93 l -.1,-.16 C 5.8,7.53 5.5,7.43 5.3,7.55 L 4.43,7.97 3.9,7.86 C 3.67,7.8 3.46,7.93 3.36,8.1 4.84,4.8 8.1,2.5 12,2.5 Z m .46,.5 c 2.5,.13 4.76,1.3 6.3,3.05 L 18.97,7 18.5,8.5 17,10 v 2 l 1.5,1.5 H 20 l .9,-.24 c -.6,4.2 -4.04,7.46 -8.34,7.7 L 14,19 15.5,16 12.5,14.5 11,13 9,12 7,12.5 H 5.5 L 5,12 V 11 L 4,10.5 c 0,0 -.87,.3 -.9,.3 .1,-.86 .35,-1.7 .7,-2.44 L 4.5,8.5 5.5,8 6,9 6.46,9 6.5,8 8,7 8.5,6 H 10 L 11,5 V 4 h 1.5 L 12,5 13,5.5 13.5,5 13,3.5 Z M 7,4.5 C 6.55,4.5 6.33,5.04 6.65,5.35 l 0.5,0.5 c .2,.2 .5,.2 .7,0 l 0.5,-0.5 C 8.67,5.04 8.45,4.5 8,4.5 Z m 5.8,0 .1,.36 -.03,.03 -.23,-.1 z M 7,5 H 8 L 7.5,5.5 Z M 19.3,6.1 C 20.6,7.75 21.5,9.73 21.5,12 c 0,.35 -.16,.64 -.2,.97 -.1,-.17 -.3,-.25 -.5,-.2 L 19.93,13 H 18.7 L 17.5,11.8 v -1.6 l 1.35,-1.35 c .06,-.06 .1,-.13 .1,-.2 L 19.45,7.1 c 0,-.1 .03,-.17 0,-0.25 z M 3.97,11.04 4.5,11.3 v .5 l -.13,-.1 c 0,0 -.17,-.2 -.4,-.4 -.06,-.06 -.14,-.1 -.2,-.16 .1,-.03 .13,-.04 .2,-.07 z M 3.03,11.3 C 3.4,11.3 4,12 4,12 l 1,1 1.5,0.5 -0.5,1 -0.5,1.5 1.5,2 1,0.5 .3,1.7 C 5.17,18.8 3,15.66 3,12 3,11.76 3,11.5 3.03,11.3 Z m 5.9,1.25 1.76,.9 1.44,1.44 c .04,.04 .1,.07 .13,.1 l 2.55,1.3 -1.26,2.5 -1.4,1.95 c -.15,.3 -0,.63 .3,.7 C 12.3,21.4 12.17,21.5 12,21.5 10.6,21.5 9.33,21.2 8.15,20.67 8.5,20.77 8.84,20.5 8.8,20.1 L 8.5,18.4 C 8.46,18.26 8.36,18.1 8.2,18.05 l -.9,-.45 -1.27,-1.7 .4,-1.2 .5,-.97 C 7.1,13.45 6.95,13.1 6.66,13.03 L 6.6,13 H 7 c .04,-2.42e-4 .1,-0 .1,-0 z" fill="currentColor" opacity=".6"/></g><use href="#upD" opacity=".4"></use><use fill="url(#upB)" href="#upD" opacity=".1"></use><path d="m 21,12 c -3,0 -3,2 -6,2 H 5 c -1.1,0 -2,.9 -2,2 v 24 c 0,1.1 .9,2 2,2 h 38 c 1.1,0 2,-.9 2,-2 V 25 16 14 c 0,-1.1 -.9,-2 -2,-2 z" fill="url(#upA)" opacity=".2"/><path class="ColorScheme-Contrast" d="m 3,39 v 1 c 0,1.1 .9,2 2,2 h 38 c 1.1,0 2,-.9 2,-2 v -1 c 0,1.1 -.9,2 -2,2 H 5 C 3.9,41 3,40.1 3,39 Z" fill="currentColor" opacity=".1"/><path class="ColorScheme-Contrast" d="M 3,39.5 V 40 c 0,1.1 .9,2 2,2 h 38 c 1.1,0 2,-.9 2,-2 v -0.5 c 0,1.1 -.9,2 -2,2 H 5 c -1.1,0 -2,-.9 -2,-2 z" fill="currentColor" opacity=".2"/><path d="m 21,12 c -3,0 -3,2 -6,2 H 5 c -1.1,0 -2,.9 -2,2 v 1 c 0,-1.1 .9,-2 2,-2 h 10 c 3,0 3,-2 6,-2 h 22 c 1.1,0 2,.9 2,2 v -1 c 0,-1.1 -.9,-2 -2,-2 z" fill="#fff" opacity=".1"/><path d="m 21,12 c -3,0 -3,2 -6,2 H 5 c -1.1,0 -2,.9 -2,2 v 0.5 c 0,-1.1 .9,-2 2,-2 h 10 c 3,0 3,-2 6,-2 h 22 c 1.1,0 2,.9 2,2 V 14 c 0,-1.1 -.9,-2 -2,-2 z" fill="#fff" opacity=".2"/><path d="m 21,11 c -3,0 -3,2 -6,2 H 5 v 1 h 10 c 3,0 3,-2 6,-2 h 22 v -1 z" opacity=".1"/><path d="m 21,11.5 c -3,0 -3,2 -6,2 H 5 V 14 h 10 c 3,0 3,-2 6,-2 h 22 v -0.5 z" opacity=".2"/></g>
</svg>