<svg height="48" version="1.1" width="48" xmlns="http://www.w3.org/2000/svg" xmlns:svg="http://www.w3.org/2000/svg" xmlns:xlink="http://www.w3.org/1999/xlink">
<defs id="primary-definitions">
<style id="current-color-scheme" type="text/css">
      .ColorScheme-Text           { color:#fff; }
      .ColorScheme-Background     { color:#111; }
      .ColorScheme-Highlight      { color:#3daefd; }
      .ColorScheme-ViewBackground { color:#000; }
      .ColorScheme-PositiveText   { color:#27ae60; }
      .ColorScheme-NeutralText    { color:#f67400; }
      .ColorScheme-NegativeText   { color:#da4453; }
    </style>
<style id="extended-color-scheme" type="text/css">
      .ExScheme-Black     { color:#3e3e3e; }
      .ExScheme-White     { color:#fcfcfc; }
      .ExScheme-Grey-1    { color:#cfd5d5; }
      .ExScheme-Grey-2    { color:#909c9c; }
      .ExScheme-Grey-3    { color:#536161; }
      .ExScheme-Red-1     { color:#ffafa5; }
      .ExScheme-Red-2     { color:#bf4231; }
      .ExScheme-Red-3     { color:#4d2f2b; }
      .ExScheme-Green-1   { color:#abf9c7; }
      .ExScheme-Green-2   { color:#3bb566; }
      .ExScheme-Green-3   { color:#377d50; }
      .ExScheme-Blue-1    { color:#abdaf9; }
      .ExScheme-Blue-2    { color:#3daefd; }
      .ExScheme-Blue-3    { color:#2b3c4d; }
      .ExScheme-Yellow-1  { color:#faffa5; }
      .ExScheme-Yellow-2  { color:#cac726; }
      .ExScheme-Yellow-3  { color:#4b4d2b; }
      .ExScheme-Orange-1  { color:#ffdaa5; }
      .ExScheme-Orange-2  { color:#ff9701; }
      .ExScheme-Orange-3  { color:#4d372b; }
      .ExScheme-Brown-1   { color:#e9d6bb; }
      .ExScheme-Brown-2   { color:#997657; }
      .ExScheme-Brown-3   { color:#433a35; }
      .ExScheme-Purple-1  { color:#e2abf9; }
      .ExScheme-Purple-2  { color:#b401ff; }
      .ExScheme-Purple-3  { color:#432b4d; }
      .ExScheme-Cyan-1    { color:#b2f2e6; }
      .ExScheme-Cyan-2    { color:#31bfa6; }
      .ExScheme-Cyan-3    { color:#2b4d47; }
      .ExScheme-Magenta-1 { color:#f8a6d8; }
      .ExScheme-Magenta-2 { color:#f00091; }
      .ExScheme-Magenta-3 { color:#770048; }
    </style>
<linearGradient id="u7L">
<stop offset="0"/>
<stop offset="1" stop-opacity="0"/>
</linearGradient>
<linearGradient id="u7M">
<stop offset="0" stop-color="#fff"/>
<stop offset="1" stop-color="#fff" stop-opacity="0"/>
</linearGradient>
<style class="toggle-enable-crease" type="text/css">
        .folder-crease { display: none; }
    </style><style class="toggle-manilla-folders" type="text/css">
        .folder-manilla { display: none; }
    </style><radialGradient cx=".5" cy="0" id="u7N" r="1" xlink:href="#u7M"/><linearGradient id="u7O" xlink:href="#u7L" y1="1" y2=".5"/><path d="M 7,6 C 5.9,6 5,6.9 5,8 v 2 4 c -1.1,0 -2,.9 -2,2 v 24 c 0,1.1 .9,2 2,2 h 38 c 1.1,0 2,-.9 2,-2 V 25 16 14 c 0,-1.1 -.9,-2 -2,-2 V 10 C 43,8.9 42.1,8 41,8 H 21 C 18,8 18,6 15,6 Z" id="u7P"></path><path d="M 3,2 C 2.45,2 2,2.45 2,3 v 18 c 0,.55 .45,1 1,1 h 18 c .55,0 1,-.45 1,-1 V 3 C 22,2.45 21.55,2 21,2 Z M 3,3 H 21 V 21 H 3 Z" id="u7Q" opacity=".6" stop-color="#000000"></path><path d="M 7,6 C 5.9,6 5,6.9 5,8 v 2 4 h 10 c 3,0 3,-2 6,-2 H 43 V 10 C 43,8.9 42.1,8 41,8 H 21 C 18,8 18,6 15,6 Z" id="u7R"></path></defs>
<g id="content" transform="translate(0,0)"><use class="folder-manilla ExScheme-Brown-1" fill="currentColor" href="#u7P"></use><use class="toggle-manilla-folders ColorScheme-Highlight" fill="currentColor" href="#u7P" id="primary-color"></use><use class="ColorScheme-Text" fill="currentColor" href="#u7P" opacity=".1"></use><g id="emblem" transform="translate(12,15)"><use class="ColorScheme-Background" fill="currentColor" href="#u7Q"></use><path class="ColorScheme-Background" d="M 11,4 V 6 H 9.5 L 12,8.5 14.5,6 H 13 V 4 Z m 1,6 a 5,5 0 0 0 -.8,.07 L 11.04,11.1 A 4,4 0 0 0 9.93,11.6 L 9.1,10.96 a 5,5 0 0 0 -1.1,1.1 l .6,.86 A 4,4 0 0 0 8.1,14.04 L 7.07,14.2 A 5,5 0 0 0 7,15 5,5 0 0 0 7.07,15.8 L 8.1,15.96 a 4,4 0 0 0 .46,1.1 l -.6,.86 a 5,5 0 0 0 1.1,1.1 L 9.93,18.4 A 4,4 0 0 0 11.04,18.9 l .17,1.06 A 5,5 0 0 0 12,20 5,5 0 0 0 12.8,19.93 L 12.96,18.9 a 4,4 0 0 0 1.1,-.46 l .86,.6 a 5,5 0 0 0 1.1,-1.1 L 15.4,17.07 A 4,4 0 0 0 15.9,15.96 l 1.06,-.17 A 5,5 0 0 0 17,15 5,5 0 0 0 16.94,14.2 l -1.05,-.17 a 4,4 0 0 0 -.46,-1.1 l .6,-.86 a 5,5 0 0 0 -1.1,-1.1 l -.86,.6 A 4,4 0 0 0 12.96,11.1 L 12.8,10.06 A 5,5 0 0 0 12,10 Z m 0,3 a 2,2 0 0 1 2,2 2,2 0 0 1 -2,2 2,2 0 0 1 -2,-2 2,2 0 0 1 2,-2 z" fill="currentColor" opacity=".6" stop-color="#000000"/><use class="ColorScheme-Background" fill="currentColor" href="#u7Q"></use><path class="ColorScheme-Background" d="M 11 4 L 11 6 L 9.5 6 L 12 8.5 L 14.5 6 L 13 6 L 13 4 L 11 4 z M 11.5 4.5 L 12.5 4.5 L 12.5 6 A .5 .5 0 0 0 13 6.5 L 13.3 6.5 L 12 7.8 L 10.7 6.5 L 11 6.5 A .5 .5 0 0 0 11.5 6 L 11.5 4.5 z M 12 10 A 5 5 0 0 0 11.2 10.07 L 11.04 11.1 A 4 4 0 0 0 9.93 11.6 L 9.1 10.96 A 5 5 0 0 0 7.96 12.1 L 8.6 12.93 A 4 4 0 0 0 8.1 14.04 L 7.07 14.2 A 5 5 0 0 0 7 15 A 5 5 0 0 0 7.07 15.8 L 8.1 15.96 A 4 4 0 0 0 8.6 17.07 L 7.96 17.9 A 5 5 0 0 0 9.1 19.04 L 9.93 18.4 A 4 4 0 0 0 11.04 18.9 L 11.2 19.93 A 5 5 0 0 0 12 20 A 5 5 0 0 0 12.8 19.93 L 12.96 18.9 A 4 4 0 0 0 14.07 18.4 L 14.9 19.04 A 5 5 0 0 0 16.04 17.9 L 15.4 17.07 A 4 4 0 0 0 15.9 15.96 L 16.93 15.8 A 5 5 0 0 0 17 15 A 5 5 0 0 0 16.94 14.2 L 15.9 14.04 A 4 4 0 0 0 15.4 12.93 L 16.05 12.07 A 5 5 0 0 0 14.93 10.95 L 14.07 11.6 A 4 4 0 0 0 12.96 11.1 L 12.8 10.06 A 5 5 0 0 0 12 10 z M 12 10.5 L 12 10.5 C 12.1 10.5 12.24 10.5 12.36 10.53 L 12.46 11.2 A .5 .5 0 0 0 12.84 11.6 C 13.2 11.7 13.5 11.8 13.8 12 A .5 .5 0 0 0 14.37 12 L 14.9 11.6 C 15.07 11.76 15.24 11.93 15.4 12.1 L 15 12.63 A .5 .5 0 0 0 15 13.2 C 15.2 13.5 15.3 13.8 15.4 14.16 A .5 .5 0 0 0 15.8 14.54 L 16.47 14.64 C 16.5 14.76 16.5 14.9 16.5 15 L 16.5 15 C 16.5 15 16.5 15 16.5 15 C 16.5 15.1 16.5 15.24 16.47 15.36 L 15.8 15.46 A .5 .5 0 0 0 15.4 15.84 C 15.3 16.2 15.17 16.5 15 16.8 A .5 .5 0 0 0 15 17.36 L 15.4 17.9 C 15.23 18.06 15.06 18.23 14.9 18.4 L 14.36 18 A .5 .5 0 0 0 13.8 18 C 13.5 18.17 13.2 18.3 12.84 18.4 A .5 .5 0 0 0 12.46 18.8 L 12.36 19.47 C 12.24 19.5 12.1 19.5 12 19.5 C 11.9 19.5 11.76 19.5 11.64 19.47 L 11.54 18.8 A .5 .5 0 0 0 11.16 18.4 C 10.8 18.3 10.5 18.17 10.2 18 A .5 .5 0 0 0 9.64 18 L 9.1 18.4 C 8.94 18.23 8.77 18.06 8.6 17.9 L 9 17.36 A .5 .5 0 0 0 9 16.8 C 8.83 16.5 8.7 16.2 8.6 15.84 A .5 .5 0 0 0 8.3 15.46 L 7.53 15.36 C 7.5 15.24 7.5 15.1 7.5 15 L 7.5 15 C 7.5 15 7.5 15 7.5 15 C 7.5 14.9 7.5 14.76 7.53 14.64 L 8.3 14.54 A .5 .5 0 0 0 8.6 14.16 C 8.7 13.8 8.83 13.5 9 13.2 A .5 .5 0 0 0 9 12.64 L 8.6 12.1 C 8.77 11.94 8.94 11.77 9.1 11.6 L 9.64 12 A .5 .5 0 0 0 10.2 12 C 10.5 11.83 10.8 11.7 11.16 11.6 A .5 .5 0 0 0 11.54 11.2 L 11.64 10.53 C 11.76 10.5 11.9 10.5 12 10.5 z M 12 12.5 C 10.63 12.5 9.5 13.63 9.5 15 C 9.5 16.37 10.63 17.5 12 17.5 C 13.37 17.5 14.5 16.37 14.5 15 C 14.5 13.63 13.37 12.5 12 12.5 z M 12 13 A 2 2 0 0 1 14 15 A 2 2 0 0 1 12 17 A 2 2 0 0 1 10 15 A 2 2 0 0 1 12 13 z " fill="currentColor" opacity=".6"/></g><use href="#u7R" opacity=".4"></use><use class="toggle-flat-design" fill="url(#u7O)" href="#u7R" opacity=".1"></use><path class="toggle-flat-design" d="m 21,12 c -3,0 -3,2 -6,2 H 5 c -1.1,0 -2,.9 -2,2 v 24 c 0,1.1 .9,2 2,2 h 38 c 1.1,0 2,-.9 2,-2 V 25 16 14 c 0,-1.1 -.9,-2 -2,-2 z" fill="url(#u7N)" opacity=".2"/><path class="folder-crease " d="m 3,33 v 1 H 9.5 C 9.8,34 10,33.8 10,33.5 10,33.2 9.8,33 9.5,33 Z m 35.5,0 c -.3,0 -0.5,.2 -0.5,0.5 0,.3 .2,0.5 0.5,0.5 H 45 v -1 z" opacity=".4"/><path class="ColorScheme-Text" d="m 3,39 v 1 c 0,1.1 .9,2 2,2 h 38 c 1.1,0 2,-.9 2,-2 v -1 c 0,1.1 -.9,2 -2,2 H 5 C 3.9,41 3,40.1 3,39 Z" fill="currentColor" opacity=".1"/><path class="ColorScheme-Text" d="M 3,39.5 V 40 c 0,1.1 .9,2 2,2 h 38 c 1.1,0 2,-.9 2,-2 v -0.5 c 0,1.1 -.9,2 -2,2 H 5 c -1.1,0 -2,-.9 -2,-2 z" fill="currentColor" opacity=".2"/><path d="m 21,12 c -3,0 -3,2 -6,2 H 5 c -1.1,0 -2,.9 -2,2 v 1 c 0,-1.1 .9,-2 2,-2 h 10 c 3,0 3,-2 6,-2 h 22 c 1.1,0 2,.9 2,2 v -1 c 0,-1.1 -.9,-2 -2,-2 z" fill="#fff" opacity=".1"/><path d="m 21,12 c -3,0 -3,2 -6,2 H 5 c -1.1,0 -2,.9 -2,2 v 0.5 c 0,-1.1 .9,-2 2,-2 h 10 c 3,0 3,-2 6,-2 h 22 c 1.1,0 2,.9 2,2 V 14 c 0,-1.1 -.9,-2 -2,-2 z" fill="#fff" opacity=".2"/><path d="m 21,11 c -3,0 -3,2 -6,2 H 5 v 1 h 10 c 3,0 3,-2 6,-2 h 22 v -1 z" opacity=".1"/><path d="m 21,11.5 c -3,0 -3,2 -6,2 H 5 V 14 h 10 c 3,0 3,-2 6,-2 h 22 v -0.5 z" opacity=".2"/></g>
</svg>