<svg height="48" version="1.1" width="48" xmlns="http://www.w3.org/2000/svg" xmlns:svg="http://www.w3.org/2000/svg" xmlns:xlink="http://www.w3.org/1999/xlink">
<defs id="primary-definitions">
<style id="current-color-scheme" type="text/css">
      .ColorScheme-Text           { color:#fff; }
      .ColorScheme-Background     { color:#111; }
      .ColorScheme-Highlight      { color:#3daefd; }
      .ColorScheme-ViewBackground { color:#000; }
      .ColorScheme-PositiveText   { color:#27ae60; }
      .ColorScheme-NeutralText    { color:#f67400; }
      .ColorScheme-NegativeText   { color:#da4453; }
    </style>
<style id="extended-color-scheme" type="text/css">
      .ExScheme-Black     { color:#3e3e3e; }
      .ExScheme-White     { color:#fcfcfc; }
      .ExScheme-Grey-1    { color:#cfd5d5; }
      .ExScheme-Grey-2    { color:#909c9c; }
      .ExScheme-Grey-3    { color:#536161; }
      .ExScheme-Red-1     { color:#ffafa5; }
      .ExScheme-Red-2     { color:#bf4231; }
      .ExScheme-Red-3     { color:#4d2f2b; }
      .ExScheme-Green-1   { color:#abf9c7; }
      .ExScheme-Green-2   { color:#3bb566; }
      .ExScheme-Green-3   { color:#377d50; }
      .ExScheme-Blue-1    { color:#abdaf9; }
      .ExScheme-Blue-2    { color:#3daefd; }
      .ExScheme-Blue-3    { color:#2b3c4d; }
      .ExScheme-Yellow-1  { color:#faffa5; }
      .ExScheme-Yellow-2  { color:#cac726; }
      .ExScheme-Yellow-3  { color:#4b4d2b; }
      .ExScheme-Orange-1  { color:#ffdaa5; }
      .ExScheme-Orange-2  { color:#ff9701; }
      .ExScheme-Orange-3  { color:#4d372b; }
      .ExScheme-Brown-1   { color:#e9d6bb; }
      .ExScheme-Brown-2   { color:#997657; }
      .ExScheme-Brown-3   { color:#433a35; }
      .ExScheme-Purple-1  { color:#e2abf9; }
      .ExScheme-Purple-2  { color:#b401ff; }
      .ExScheme-Purple-3  { color:#432b4d; }
      .ExScheme-Cyan-1    { color:#b2f2e6; }
      .ExScheme-Cyan-2    { color:#31bfa6; }
      .ExScheme-Cyan-3    { color:#2b4d47; }
      .ExScheme-Magenta-1 { color:#f8a6d8; }
      .ExScheme-Magenta-2 { color:#f00091; }
      .ExScheme-Magenta-3 { color:#770048; }
    </style>
<linearGradient id="upk">
<stop offset="0"/>
<stop offset="1" stop-opacity="0"/>
</linearGradient>
<linearGradient id="upl">
<stop offset="0" stop-color="#fff"/>
<stop offset="1" stop-color="#fff" stop-opacity="0"/>
</linearGradient>
<style class="toggle-enable-crease" type="text/css">
        .folder-crease { display: none; }
    </style><style class="toggle-manilla-folders" type="text/css">
        .folder-manilla { display: none; }
    </style><radialGradient cx=".5" cy="0" id="upm" r="1" xlink:href="#upl"/><linearGradient id="upn" xlink:href="#upk" y1="1" y2=".5"/><path d="M 7,6 C 5.9,6 5,6.9 5,8 v 2 4 c -1.1,0 -2,.9 -2,2 v 24 c 0,1.1 .9,2 2,2 h 38 c 1.1,0 2,-.9 2,-2 V 25 16 14 c 0,-1.1 -.9,-2 -2,-2 V 10 C 43,8.9 42.1,8 41,8 H 21 C 18,8 18,6 15,6 Z" id="upo"></path><path d="m 12,3 c -.7,1.39e-4 -1.36,.4 -1.7,1 L 2.03,18 c -.76,1.3 .2,3 1.7,3 H 20.25 c 1.5,-4.71e-4 2.5,-1.7 1.7,-3 L 13.7,3.96 C 13.36,3.35 12.7,3 12,3 Z m 0,1 c .35,6.96e-5 .7,.2 .86,.5 l 8.25,14.03 c .4,.67 -.1,1.5 -.86,1.5 H 3.75 C 2.97,20 2.5,19.16 2.9,18.5 L 11.14,4.47 C 11.3,4.16 11.65,4 12,4 Z" id="upp" opacity=".6"></path><path d="M 7,6 C 5.9,6 5,6.9 5,8 v 2 4 h 10 c 3,0 3,-2 6,-2 H 43 V 10 C 43,8.9 42.1,8 41,8 H 21 C 18,8 18,6 15,6 Z" id="upq"></path></defs>
<g id="content" transform="translate(0,0)"><use class="folder-manilla ExScheme-Brown-1" fill="currentColor" href="#upo"></use><use class="toggle-manilla-folders ColorScheme-NegativeText" fill="currentColor" href="#upo" id="primary-color"></use><use class="ColorScheme-Text" fill="currentColor" href="#upo" opacity=".1"></use><g id="emblem" transform="translate(12,15)"><use class="ColorScheme-Background" fill="currentColor" href="#upp"></use><path class="ColorScheme-Background" d="m 12,7 c -.8,0 -1.6,.7 -1.5,1.5 l .74,5.25 C 11.3,14.15 11.54,14.5 12,14.5 c .46,0 .7,-.35 .74,-0.75 L 13.5,8.5 C 13.6,7.7 12.8,7 12,7 Z m 0,8.5 c -.8,0 -1.5,.67 -1.5,1.5 -1.1e-5,.83 .67,1.5 1.5,1.5 .8,0 1.5,-.67 1.5,-1.5 C 13.5,16.17 12.8,15.5 12,15.5 Z" fill="currentColor" opacity=".6"/><use class="ColorScheme-Background" fill="currentColor" href="#upp"></use><path class="ColorScheme-Background" d="M 12 7 C 11.2 7 10.4 7.7 10.5 8.5 L 11.26 13.75 C 11.3 14.15 11.54 14.5 12 14.5 C 12.46 14.5 12.7 14.15 12.74 13.75 L 13.5 8.5 C 13.6 7.7 12.8 7 12 7 z M 12 7.5 C 12.27 7.5 12.56 7.6 12.75 7.8 C 12.94 8 13.03 8.2 13 8.43 L 12.25 13.7 C 12.23 13.8 12.2 13.9 12.15 13.95 C 12.1 14 12.1 14 12 14 C 11.9 14 11.9 14 11.85 13.95 C 11.8 13.9 11.77 13.8 11.75 13.7 L 11 8.43 C 10.97 8.2 11.06 8 11.25 7.8 C 11.44 7.6 11.73 7.5 12 7.5 z M 12 15.5 C 11.2 15.5 10.5 16.17 10.5 17 C 10.5 17.83 11.2 18.5 12 18.5 C 12.8 18.5 13.5 17.83 13.5 17 C 13.5 16.17 12.8 15.5 12 15.5 z M 12 16 C 12.55 16 13 16.44 13 17 C 13 17.56 12.55 18 12 18 C 11.45 18 11 17.56 11 17 C 11 16.44 11.45 16 12 16 z " fill="currentColor" opacity=".6"/></g><use href="#upq" opacity=".4"></use><use class="toggle-flat-design" fill="url(#upn)" href="#upq" opacity=".1"></use><path class="toggle-flat-design" d="m 21,12 c -3,0 -3,2 -6,2 H 5 c -1.1,0 -2,.9 -2,2 v 24 c 0,1.1 .9,2 2,2 h 38 c 1.1,0 2,-.9 2,-2 V 25 16 14 c 0,-1.1 -.9,-2 -2,-2 z" fill="url(#upm)" opacity=".2"/><path class="folder-crease " d="m 3,33 v 1 H 9.5 C 9.8,34 10,33.8 10,33.5 10,33.2 9.8,33 9.5,33 Z m 35.5,0 c -.3,0 -0.5,.2 -0.5,0.5 0,.3 .2,0.5 0.5,0.5 H 45 v -1 z" opacity=".4"/><path class="ColorScheme-Text" d="m 3,39 v 1 c 0,1.1 .9,2 2,2 h 38 c 1.1,0 2,-.9 2,-2 v -1 c 0,1.1 -.9,2 -2,2 H 5 C 3.9,41 3,40.1 3,39 Z" fill="currentColor" opacity=".1"/><path class="ColorScheme-Text" d="M 3,39.5 V 40 c 0,1.1 .9,2 2,2 h 38 c 1.1,0 2,-.9 2,-2 v -0.5 c 0,1.1 -.9,2 -2,2 H 5 c -1.1,0 -2,-.9 -2,-2 z" fill="currentColor" opacity=".2"/><path d="m 21,12 c -3,0 -3,2 -6,2 H 5 c -1.1,0 -2,.9 -2,2 v 1 c 0,-1.1 .9,-2 2,-2 h 10 c 3,0 3,-2 6,-2 h 22 c 1.1,0 2,.9 2,2 v -1 c 0,-1.1 -.9,-2 -2,-2 z" fill="#fff" opacity=".1"/><path d="m 21,12 c -3,0 -3,2 -6,2 H 5 c -1.1,0 -2,.9 -2,2 v 0.5 c 0,-1.1 .9,-2 2,-2 h 10 c 3,0 3,-2 6,-2 h 22 c 1.1,0 2,.9 2,2 V 14 c 0,-1.1 -.9,-2 -2,-2 z" fill="#fff" opacity=".2"/><path d="m 21,11 c -3,0 -3,2 -6,2 H 5 v 1 h 10 c 3,0 3,-2 6,-2 h 22 v -1 z" opacity=".1"/><path d="m 21,11.5 c -3,0 -3,2 -6,2 H 5 V 14 h 10 c 3,0 3,-2 6,-2 h 22 v -0.5 z" opacity=".2"/></g>
</svg>