<svg height="48" version="1.1" width="48" xmlns="http://www.w3.org/2000/svg" xmlns:svg="http://www.w3.org/2000/svg" xmlns:xlink="http://www.w3.org/1999/xlink">
<defs id="primary-definitions">
<style id="current-color-scheme" type="text/css">
      .ColorScheme-Text         { color: #232629; }
      .ColorScheme-Background   { color: #eff0f1; }
      .ColorScheme-Highlight    { color: #7ec9f0; }
      .ColorScheme-PositiveText { color: #27ae60; }
      .ColorScheme-NeutralText  { color: #f67400; }
      .ColorScheme-NegativeText { color: #da4453; }
      .ColorScheme-ActiveText   { color: #3daee9; }
      .ColorScheme-Complement   { color: #ffffff; }
      .ColorScheme-Contrast     { color: #000000; }
    </style>
<style id="extended-color-scheme" type="text/css">
      .ExScheme-Black     { color:#3e3e3e; }
      .ExScheme-White     { color:#fcfcfc; }
      .ExScheme-Grey-1    { color:#cfd5d5; }
      .ExScheme-Grey-2    { color:#909c9c; }
      .ExScheme-Grey-3    { color:#536161; }
      .ExScheme-Red-1     { color:#ffafa5; }
      .ExScheme-Red-2     { color:#bf4231; }
      .ExScheme-Red-3     { color:#4d2f2b; }
      .ExScheme-Green-1   { color:#abf9c7; }
      .ExScheme-Green-2   { color:#3bb566; }
      .ExScheme-Green-3   { color:#377d50; }
      .ExScheme-Blue-1    { color:#abdaf9; }
      .ExScheme-Blue-2    { color:#3daefd; }
      .ExScheme-Blue-3    { color:#2b3c4d; }
      .ExScheme-Yellow-1  { color:#faffa5; }
      .ExScheme-Yellow-2  { color:#cac726; }
      .ExScheme-Yellow-3  { color:#4b4d2b; }
      .ExScheme-Orange-1  { color:#ffdaa5; }
      .ExScheme-Orange-2  { color:#ff9701; }
      .ExScheme-Orange-3  { color:#4d372b; }
      .ExScheme-Brown-1   { color:#e9d6bb; }
      .ExScheme-Brown-2   { color:#997657; }
      .ExScheme-Brown-3   { color:#433a35; }
      .ExScheme-Purple-1  { color:#e2abf9; }
      .ExScheme-Purple-2  { color:#b401ff; }
      .ExScheme-Purple-3  { color:#432b4d; }
      .ExScheme-Cyan-1    { color:#b2f2e6; }
      .ExScheme-Cyan-2    { color:#31bfa6; }
      .ExScheme-Cyan-3    { color:#2b4d47; }
      .ExScheme-Magenta-1 { color:#f8a6d8; }
      .ExScheme-Magenta-2 { color:#f00091; }
      .ExScheme-Magenta-3 { color:#770048; }
    </style>
<linearGradient id="uTF">
<stop offset="0"/>
<stop offset="1" stop-opacity="0"/>
</linearGradient>
<linearGradient id="uTG">
<stop offset="0" stop-color="#fff"/>
<stop offset="1" stop-color="#fff" stop-opacity="0"/>
</linearGradient>
<style id="uTH" type="text/css">
        .force-display-for-editing { display: inline !important; }
    </style><style class="remove-if__show-crease" type="text/css">
        .enable-if__show-crease { display: none; }
    </style><style class="remove-if__color-sync-mimes-places" type="text/css">
        .enable-if__color-sync-mimes-places { display: none; }
    </style><radialGradient cx=".5" cy="0" id="uTI" r="1" xlink:href="#uTG"/><linearGradient id="uTJ" xlink:href="#uTF" y1="1" y2=".5"/><style class="ColorScheme-Background" fill="currentColor" opacity=".6" type="text/css">
   .ColorScheme-Text           { color:#eff0f1; }
      .ColorScheme-Background     { color:#31363b; }
      .ColorScheme-Highlight      { color:#3daefd; }
      .ColorScheme-ViewBackground { color:#fcfcfc; }
      .ColorScheme-PositiveText   { color:#27ae60; }
      .ColorScheme-NeutralText    { color:#f67400; }
      .ColorScheme-NegativeText   { color:#da4453; }
  </style><path d="M 7,6 C 5.9,6 5,6.9 5,8 v 2 4 c -1.1,0 -2,.9 -2,2 v 24 c 0,1.1 .9,2 2,2 h 38 c 1.1,0 2,-.9 2,-2 V 25 16 14 c 0,-1.1 -.9,-2 -2,-2 V 10 C 43,8.9 42.1,8 41,8 H 21 C 18,8 18,6 15,6 Z" id="uTK"></path><path d="M 7,6 C 5.9,6 5,6.9 5,8 v 2 4 h 10 c 3,0 3,-2 6,-2 H 43 V 10 C 43,8.9 42.1,8 41,8 H 21 C 18,8 18,6 15,6 Z" id="uTL"></path></defs>
<g id="content" transform="translate(0,0)"><use class="sync-color enable-if__color-sync-mimes-places force-display-for-editing ColorScheme-ActiveText" fill="currentColor" href="#uTK"></use><use class="primary-color remove-if__color-sync-mimes-places ColorScheme-ActiveText" fill="currentColor" href="#uTK"></use><use class="ColorScheme-Contrast" fill="currentColor" href="#uTK" opacity=".1"></use><use href="#uTL" opacity=".4"></use><g id="panorama" transform="translate(3,12)"><path class="ColorScheme-Background" d="m 18,6 c -.55,0 -1,.45 -1,1 v 11 h -2 c -1.66,0 -3,1.34 -3,3 0,1.66 1.34,3 3,3 1.66,0 3,-1.34 3,-3 V 11 h 11 v 4 h -2 c -1.66,0 -3,1.34 -3,3 0,1.66 1.34,3 3,3 1.66,0 3,-1.34 3,-3 V 7 C 30,6.45 29.55,6 29,6 Z m 0,2 h 11 v 2 H 18 Z" fill="currentColor" opacity=".6" stop-color="#000000"/><path class="ColorScheme-Background" d="m 18,6 c -.55,0 -1,.45 -1,1 v 11 h -2 c -1.66,0 -3,1.34 -3,3 0,1.66 1.34,3 3,3 1.66,0 3,-1.34 3,-3 V 11 h 11 v 4 h -2 c -1.66,0 -3,1.34 -3,3 0,1.66 1.34,3 3,3 1.66,0 3,-1.34 3,-3 V 7 C 30,6.45 29.55,6 29,6 Z m 0,0.5 h 11 c .3,0 0.5,.2 0.5,0.5 V 8 C 29.5,7.7 29.3,7.5 29,7.5 H 18 C 17.7,7.5 17.5,7.7 17.5,8 V 7 C 17.5,6.7 17.7,6.5 18,6.5 Z M 18,8 h 11 v 2 H 18 Z m 11.5,7 v 3 c 0,1.4 -1.1,2.5 -2.5,2.5 -1.4,0 -2.5,-1.1 -2.5,-2.5 0,-1.4 1.1,-2.5 2.5,-2.5 h 2 c .3,-2.8e-5 .5,-.2 0.5,-0.5 z m -12,3 v 3 c 0,1.4 -1.1,2.5 -2.5,2.5 -1.4,0 -2.5,-1.1 -2.5,-2.5 0,-1.4 1.1,-2.5 2.5,-2.5 h 2 c .3,-2.8e-5 .5,-.2 0.5,-0.5 z" fill="currentColor" opacity=".6"/><path class="ColorScheme-Background" d="M 35.26 0 C 35.14 0 35.03 .06 34.94 .15 C 34.74 .35 34.74 .66 34.94 .86 L 35.64 1.56 C 35.84 1.76 36.15 1.76 36.35 1.56 C 36.55 1.37 36.55 1.05 36.35 .86 L 35.64 .15 C 35.54 .05 35.4 -0 35.26 0 z M 29.06 .4 C 28.9 .4 28.73 .5 28.63 .64 C 28.5 .9 28.6 1.2 28.8 1.33 L 29.7 1.83 C 29.9 1.96 30.23 1.9 30.37 1.64 C 30.5 1.4 30.4 1.1 30.2 .96 L 29.3 .46 C 29.23 .4 29.15 .4 29.06 .4 z M 33.85 1.4 C 33.73 1.4 33.6 1.47 33.5 1.56 C 33.33 1.76 33.33 2.1 33.5 2.27 L 34.23 3 C 34.4 3.17 34.74 3.17 34.94 3 C 35.13 2.8 35.13 2.47 34.94 2.27 L 34.23 1.56 C 34.1 1.46 34 1.4 33.85 1.4 z M 13.2 1.87 C 13.17 1.87 13.14 1.9 13.1 1.9 C 13.14 1.9 13.17 1.87 13.2 1.87 z M 8.34 2 L 8.06 2.27 C 7.87 2.47 7.87 2.8 8.06 3 C 8.26 3.17 8.6 3.17 8.77 3 L 9.5 2.27 C 9.56 2.2 9.6 2.1 9.6 2 L 8.34 2 z M 14.9 2.1 C 14.84 2.13 14.76 2.15 14.7 2.2 L 13.8 2.7 C 13.6 2.83 13.5 3.14 13.63 3.4 C 13.77 3.6 14.1 3.7 14.3 3.56 L 15.2 3.06 C 15.4 2.9 15.5 2.6 15.37 2.4 C 15.27 2.2 15.1 2.1 14.9 2.1 z M 28.06 2.1 C 27.9 2.13 27.73 2.2 27.63 2.4 C 27.5 2.6 27.6 2.9 27.8 3.06 L 28.7 3.56 C 28.9 3.7 29.23 3.6 29.37 3.4 C 29.5 3.14 29.4 2.83 29.2 2.7 L 28.3 2.2 C 28.23 2.15 28.15 2.1 28.06 2.1 z M 10.5 2.83 C 10.4 2.84 10.3 2.9 10.2 3 L 9.5 3.7 C 9.3 3.9 9.3 4.2 9.5 4.4 C 9.67 4.6 10 4.6 10.2 4.4 L 10.9 3.7 C 11.1 3.5 11.1 3.17 10.9 3 C 10.8 2.87 10.65 2.83 10.5 2.83 z M 32.44 2.83 C 32.3 2.84 32.2 2.9 32.1 3 C 31.9 3.17 31.9 3.5 32.1 3.7 L 32.8 4.4 C 33 4.6 33.33 4.6 33.5 4.4 C 33.7 4.2 33.7 3.9 33.5 3.7 L 32.8 3 C 32.7 2.87 32.57 2.83 32.44 2.83 z M 11.93 4.25 C 11.8 4.25 11.7 4.3 11.6 4.4 L 10.9 5.2 C 10.7 5.3 10.7 5.6 10.9 5.8 C 11.1 6 11.4 6 11.6 5.8 L 12.3 5.2 C 12.5 4.9 12.5 4.6 12.3 4.4 C 12.2 4.3 12.07 4.24 11.93 4.25 z M 31 4.25 C 30.9 4.25 30.8 4.3 30.7 4.4 C 30.5 4.6 30.5 4.9 30.7 5.2 L 31.4 5.8 C 31.6 6 31.9 6 32.1 5.8 C 32.4 5.6 32.4 5.3 32.1 5.2 L 31.4 4.4 C 31.3 4.3 31.16 4.24 31 4.25 z M 6.15 5.07 C 6 5.07 5.8 5.16 5.73 5.3 L 5.23 6.2 C 5.1 6.4 5.17 6.73 5.4 6.87 C 5.65 7 5.96 6.9 6.1 6.7 L 6.6 5.8 C 6.73 5.6 6.65 5.27 6.4 5.13 C 6.33 5.1 6.24 5.06 6.15 5.07 z M 7.9 6.07 C 7.7 6.07 7.55 6.16 7.46 6.3 L 6.96 7.2 C 6.8 7.4 6.9 7.73 7.14 7.87 C 7.4 8 7.7 7.9 7.83 7.7 L 8.33 6.8 C 8.46 6.6 8.4 6.27 8.14 6.13 C 8.06 6.1 7.97 6.06 7.9 6.07 z M 9.6 7.07 C 9.45 7.07 9.3 7.16 9.2 7.3 L 8.7 8.2 C 8.55 8.4 8.64 8.73 8.9 8.87 C 9.1 9 9.4 8.9 9.56 8.7 L 10.06 7.8 C 10.3 7.6 10.1 7.27 9.9 7.13 C 9.8 7.1 9.8 7.06 9.6 7.07 z M 33.36 7.07 C 33.3 7.07 33.2 7.1 33.1 7.13 C 32.9 7.27 32.9 7.6 32.94 7.8 L 33.44 8.7 C 33.6 8.9 33.9 9 34.1 8.87 C 34.36 8.73 34.45 8.4 34.3 8.2 L 33.8 7.3 C 33.7 7.15 33.54 7.06 33.36 7.07 z M 38.75 9.36 C 38.7 9.36 38.67 9.36 38.63 9.4 C 38.36 9.45 38.2 9.7 38.27 10 L 38.53 10.95 C 38.6 11.2 38.9 11.4 39.14 11.3 C 39.4 11.23 39.57 10.96 39.5 10.7 L 39.24 9.73 C 39.2 9.5 38.97 9.35 38.75 9.36 z M 36.8 9.9 C 36.8 9.9 36.74 9.9 36.7 9.9 C 36.43 9.96 36.27 10.24 36.34 10.5 L 36.6 11.47 C 36.67 11.74 36.95 11.9 37.2 11.8 C 37.5 11.75 37.64 11.5 37.57 11.2 L 37.3 10.25 C 37.25 10 37.04 9.87 36.8 9.9 z M 8.1 10.4 C 7.9 10.4 7.7 10.54 7.6 10.76 L 7.37 11.73 C 7.3 12 7.45 12.27 7.7 12.34 C 8 12.4 8.26 12.26 8.33 12 L 8.6 11 C 8.66 10.76 8.5 10.5 8.24 10.4 C 8.2 10.4 8.15 10.4 8.1 10.4 z M 34.9 10.4 C 34.85 10.4 34.8 10.4 34.76 10.4 C 34.5 10.5 34.34 10.76 34.4 11 L 34.67 12 C 34.74 12.26 35 12.4 35.3 12.34 C 35.55 12.27 35.7 12 35.63 11.73 L 35.4 10.76 C 35.3 10.54 35.1 10.4 34.9 10.4 z M 1.47 14 C 1.2 14 1 14.23 1 14.5 L 1 15.5 C 1 15.8 1.2 16 1.5 16 C 1.8 16 2 15.8 2 15.5 L 2 14.5 C 2 14.2 1.8 14 1.5 14 C 1.5 14 1.5 14 1.47 14 z M 3.47 14 C 3.2 14 3 14.23 3 14.5 L 3 15.5 C 3 15.8 3.2 16 3.5 16 C 3.8 16 4 15.8 4 15.5 L 4 14.5 C 4 14.2 3.8 14 3.5 14 C 3.5 14 3.5 14 3.47 14 z M 5.47 14 C 5.2 14 5 14.23 5 14.5 L 5 15.5 C 5 15.8 5.2 16 5.5 16 C 5.8 16 6 15.8 6 15.5 L 6 14.5 C 6 14.2 5.8 14 5.5 14 C 5.5 14 5.5 14 5.47 14 z M 7.47 14 C 7.2 14 7 14.23 7 14.5 L 7 15.5 C 7 15.8 7.2 16 7.5 16 C 7.8 16 8 15.8 8 15.5 L 8 14.5 C 8 14.2 7.8 14 7.5 14 C 7.5 14 7.5 14 7.47 14 z M 35.47 14 C 35.2 14 35 14.23 35 14.5 L 35 15.5 C 35 15.8 35.2 16 35.5 16 C 35.8 16 36 15.8 36 15.5 L 36 14.5 C 36 14.2 35.8 14 35.5 14 C 35.5 14 35.5 14 35.47 14 z M 37.47 14 C 37.2 14 37 14.23 37 14.5 L 37 15.5 C 37 15.8 37.2 16 37.5 16 C 37.8 16 38 15.8 38 15.5 L 38 14.5 C 38 14.2 37.8 14 37.5 14 C 37.5 14 37.5 14 37.47 14 z M 7.8 17.64 C 7.8 17.64 7.75 17.65 7.7 17.66 C 7.45 17.73 7.3 18 7.37 18.27 L 7.6 19.24 C 7.7 19.5 7.97 19.66 8.24 19.6 C 8.5 19.5 8.66 19.24 8.6 19 L 8.33 18 C 8.27 17.8 8.05 17.63 7.8 17.64 z M 35.13 17.64 C 34.9 17.65 34.73 17.8 34.67 18 L 34.4 19 C 34.34 19.24 34.5 19.5 34.76 19.6 C 35.03 19.66 35.3 19.5 35.4 19.24 L 35.63 18.27 C 35.7 18 35.55 17.73 35.3 17.66 C 35.23 17.64 35.2 17.64 35.13 17.64 z M 5.9 18.16 C 5.85 18.16 5.8 18.17 5.8 18.2 C 5.5 18.25 5.36 18.5 5.43 18.8 L 5.7 19.75 C 5.76 20 6.04 20.2 6.3 20.1 C 6.57 20.04 6.73 19.76 6.66 19.5 L 6.4 18.53 C 6.34 18.3 6.1 18.14 5.9 18.16 z M 3.96 18.7 C 3.9 18.7 3.9 18.7 3.86 18.7 C 3.6 18.77 3.43 19.04 3.5 19.3 L 3.76 20.27 C 3.83 20.54 4.1 20.7 4.37 20.6 C 4.64 20.55 4.8 20.3 4.73 20 L 4.47 19.05 C 4.4 18.8 4.2 18.66 3.96 18.7 z M 9.1 21.07 C 9.03 21.07 8.95 21.1 8.9 21.13 C 8.64 21.27 8.55 21.6 8.7 21.8 L 9.2 22.7 C 9.33 22.9 9.64 23 9.9 22.87 C 10.1 22.73 10.3 22.4 10.06 22.2 L 9.56 21.3 C 9.46 21.15 9.3 21.06 9.1 21.07 z M 33.86 21.07 C 33.7 21.07 33.53 21.16 33.44 21.3 L 32.94 22.2 C 32.9 22.4 32.9 22.73 33.1 22.87 C 33.36 23 33.67 22.9 33.8 22.7 L 34.3 21.8 C 34.45 21.6 34.36 21.27 34.1 21.13 C 34.04 21.1 33.95 21.06 33.86 21.07 z M 7.4 22.07 C 7.3 22.07 7.2 22.1 7.14 22.13 C 6.9 22.27 6.8 22.6 6.96 22.8 L 7.46 23.7 C 7.6 23.9 7.9 24 8.14 23.87 C 8.4 23.73 8.46 23.4 8.33 23.2 L 7.83 22.3 C 7.73 22.15 7.56 22.06 7.4 22.07 z M 35.6 22.07 C 35.43 22.07 35.26 22.16 35.17 22.3 L 34.67 23.2 C 34.54 23.4 34.6 23.73 34.86 23.87 C 35.1 24 35.4 23.9 35.54 23.7 L 36.04 22.8 C 36.2 22.6 36.1 22.27 35.86 22.13 C 35.77 22.1 35.7 22.06 35.6 22.07 z M 5.65 23.07 C 5.57 23.07 5.5 23.1 5.4 23.13 C 5.17 23.27 5.1 23.6 5.23 23.8 L 5.73 24.7 C 5.87 24.9 6.17 25 6.4 24.87 C 6.65 24.73 6.73 24.4 6.6 24.2 L 6.1 23.3 C 6 23.15 5.83 23.06 5.65 23.07 z M 37.33 23.07 C 37.16 23.07 37 23.16 36.9 23.3 L 36.4 24.2 C 36.27 24.4 36.35 24.73 36.6 24.87 C 36.83 25 37.13 24.9 37.27 24.7 L 37.77 23.8 C 37.9 23.6 37.83 23.27 37.6 23.13 C 37.5 23.1 37.4 23.06 37.33 23.07 z M 11.25 24.04 C 11.1 24.04 11 24.1 10.9 24.2 C 10.7 24.4 10.7 24.7 10.9 24.9 L 11.6 25.6 C 11.8 25.8 12.1 25.8 12.3 25.6 C 12.5 25.4 12.5 25.1 12.3 24.9 L 11.6 24.2 C 11.5 24.1 11.37 24.04 11.25 24.04 z M 31.75 24.04 C 31.63 24.04 31.5 24.1 31.4 24.2 L 30.7 24.9 C 30.5 25.1 30.5 25.4 30.7 25.6 C 30.9 25.8 31.2 25.8 31.4 25.6 L 32.1 24.9 C 32.4 24.7 32.4 24.4 32.1 24.2 C 32 24.1 31.9 24.04 31.75 24.04 z M 3.9 24.07 C 3.84 24.07 3.75 24.1 3.7 24.13 C 3.44 24.27 3.36 24.6 3.5 24.8 L 4 25.7 C 4.13 25.9 4.44 26 4.7 25.87 C 4.9 25.73 5 25.4 4.86 25.2 L 4.36 24.3 C 4.27 24.15 4.1 24.06 3.9 24.07 z M 39.06 24.07 C 38.9 24.07 38.73 24.16 38.64 24.3 L 38.14 25.2 C 38 25.4 38.1 25.73 38.3 25.87 C 38.56 26 38.87 25.9 39 25.7 L 39.5 24.8 C 39.64 24.6 39.56 24.27 39.3 24.13 C 39.24 24.1 39.15 24.06 39.06 24.07 z M 40.8 25.07 C 40.6 25.07 40.46 25.16 40.37 25.3 L 39.87 26.2 C 39.73 26.4 39.8 26.73 40.05 26.87 C 40.3 27 40.6 26.9 40.74 26.7 L 41.24 25.8 C 41.37 25.6 41.3 25.27 41.05 25.13 C 40.97 25.1 40.9 25.06 40.8 25.07 z M 33.17 25.46 C 33.04 25.46 32.9 25.5 32.8 25.6 L 32.1 26.3 C 31.9 26.5 31.9 26.83 32.1 27 C 32.4 27.2 32.6 27.2 32.8 27 L 33.5 26.3 C 33.7 26.1 33.7 25.8 33.5 25.6 C 33.4 25.5 33.4 25.46 33.17 25.46 z M 14.03 26.4 C 13.87 26.4 13.7 26.5 13.63 26.6 C 13.5 26.86 13.6 27.17 13.8 27.3 L 14.7 27.8 C 14.9 27.95 15.23 27.86 15.37 27.6 C 15.5 27.4 15.4 27.1 15.2 26.94 L 14.3 26.44 C 14.23 26.4 14.13 26.37 14.03 26.4 z M 28.9 26.4 C 28.8 26.4 28.75 26.4 28.7 26.44 L 27.8 26.94 C 27.6 27.1 27.5 27.4 27.63 27.6 C 27.77 27.86 28.1 27.95 28.3 27.8 L 29.2 27.3 C 29.4 27.17 29.5 26.86 29.37 26.6 C 29.27 26.45 29.1 26.36 28.9 26.4 z M 34.6 26.87 C 34.45 26.87 34.33 26.9 34.23 27 L 33.5 27.73 C 33.33 27.9 33.33 28.24 33.5 28.44 C 33.7 28.63 34.03 28.63 34.23 28.44 L 34.94 27.73 C 35.13 27.53 35.13 27.2 34.94 27 C 34.84 26.9 34.7 26.87 34.6 26.87 z M 13.06 28.1 C 12.9 28.1 12.73 28.2 12.63 28.36 C 12.5 28.6 12.6 28.9 12.8 29.04 L 13.7 29.54 C 13.9 29.7 14.23 29.6 14.37 29.36 C 14.5 29.1 14.4 28.8 14.2 28.67 L 13.3 28.17 C 13.23 28.13 13.15 28.1 13.06 28.1 z " fill="currentColor" opacity=".6" stop-color="#000000"/></g><use fill="url(#uTJ)" href="#uTL" opacity=".1"></use><path d="m 21,12 c -3,0 -3,2 -6,2 H 5 c -1.1,0 -2,.9 -2,2 v 24 c 0,1.1 .9,2 2,2 h 38 c 1.1,0 2,-.9 2,-2 V 25 16 14 c 0,-1.1 -.9,-2 -2,-2 z" fill="url(#uTI)" opacity=".2"/><path class="ColorScheme-Contrast" d="m 3,39 v 1 c 0,1.1 .9,2 2,2 h 38 c 1.1,0 2,-.9 2,-2 v -1 c 0,1.1 -.9,2 -2,2 H 5 C 3.9,41 3,40.1 3,39 Z" fill="currentColor" opacity=".1"/><path class="ColorScheme-Contrast" d="M 3,39.5 V 40 c 0,1.1 .9,2 2,2 h 38 c 1.1,0 2,-.9 2,-2 v -0.5 c 0,1.1 -.9,2 -2,2 H 5 c -1.1,0 -2,-.9 -2,-2 z" fill="currentColor" opacity=".2"/><path d="m 21,12 c -3,0 -3,2 -6,2 H 5 c -1.1,0 -2,.9 -2,2 v 1 c 0,-1.1 .9,-2 2,-2 h 10 c 3,0 3,-2 6,-2 h 22 c 1.1,0 2,.9 2,2 v -1 c 0,-1.1 -.9,-2 -2,-2 z" fill="#fff" opacity=".1"/><path d="m 21,12 c -3,0 -3,2 -6,2 H 5 c -1.1,0 -2,.9 -2,2 v 0.5 c 0,-1.1 .9,-2 2,-2 h 10 c 3,0 3,-2 6,-2 h 22 c 1.1,0 2,.9 2,2 V 14 c 0,-1.1 -.9,-2 -2,-2 z" fill="#fff" opacity=".2"/><path d="m 21,11 c -3,0 -3,2 -6,2 H 5 v 1 h 10 c 3,0 3,-2 6,-2 h 22 v -1 z" opacity=".1"/><path d="m 21,11.5 c -3,0 -3,2 -6,2 H 5 V 14 h 10 c 3,0 3,-2 6,-2 h 22 v -0.5 z" opacity=".2"/></g>
</svg>