<svg height="48" version="1.1" width="48" xmlns="http://www.w3.org/2000/svg" xmlns:svg="http://www.w3.org/2000/svg" xmlns:xlink="http://www.w3.org/1999/xlink">
<defs id="primary-definitions">
<style id="current-color-scheme" type="text/css">
      .ColorScheme-Text           { color:#fff; }
      .ColorScheme-Background     { color:#111; }
      .ColorScheme-Highlight      { color:#3daefd; }
      .ColorScheme-ViewBackground { color:#000; }
      .ColorScheme-PositiveText   { color:#27ae60; }
      .ColorScheme-NeutralText    { color:#f67400; }
      .ColorScheme-NegativeText   { color:#da4453; }
    </style>
<style id="extended-color-scheme" type="text/css">
      .ExScheme-Black     { color:#3e3e3e; }
      .ExScheme-White     { color:#fcfcfc; }
      .ExScheme-Grey-1    { color:#cfd5d5; }
      .ExScheme-Grey-2    { color:#909c9c; }
      .ExScheme-Grey-3    { color:#536161; }
      .ExScheme-Red-1     { color:#ffafa5; }
      .ExScheme-Red-2     { color:#bf4231; }
      .ExScheme-Red-3     { color:#4d2f2b; }
      .ExScheme-Green-1   { color:#abf9c7; }
      .ExScheme-Green-2   { color:#3bb566; }
      .ExScheme-Green-3   { color:#377d50; }
      .ExScheme-Blue-1    { color:#abdaf9; }
      .ExScheme-Blue-2    { color:#3daefd; }
      .ExScheme-Blue-3    { color:#2b3c4d; }
      .ExScheme-Yellow-1  { color:#faffa5; }
      .ExScheme-Yellow-2  { color:#cac726; }
      .ExScheme-Yellow-3  { color:#4b4d2b; }
      .ExScheme-Orange-1  { color:#ffdaa5; }
      .ExScheme-Orange-2  { color:#ff9701; }
      .ExScheme-Orange-3  { color:#4d372b; }
      .ExScheme-Brown-1   { color:#e9d6bb; }
      .ExScheme-Brown-2   { color:#997657; }
      .ExScheme-Brown-3   { color:#433a35; }
      .ExScheme-Purple-1  { color:#e2abf9; }
      .ExScheme-Purple-2  { color:#b401ff; }
      .ExScheme-Purple-3  { color:#432b4d; }
      .ExScheme-Cyan-1    { color:#b2f2e6; }
      .ExScheme-Cyan-2    { color:#31bfa6; }
      .ExScheme-Cyan-3    { color:#2b4d47; }
      .ExScheme-Magenta-1 { color:#f8a6d8; }
      .ExScheme-Magenta-2 { color:#f00091; }
      .ExScheme-Magenta-3 { color:#770048; }
    </style>
<linearGradient id="uuD">
<stop offset="0"/>
<stop offset="1" stop-opacity="0"/>
</linearGradient>
<linearGradient id="uuE">
<stop offset="0" stop-color="#fff"/>
<stop offset="1" stop-color="#fff" stop-opacity="0"/>
</linearGradient>
<style class="toggle-enable-crease" type="text/css">
        .folder-crease { display: none; }
    </style><style class="toggle-manilla-folders" type="text/css">
        .folder-manilla { display: none; }
    </style><radialGradient cx=".5" cy="0" id="uuF" r="1" xlink:href="#uuE"/><linearGradient id="uuG" xlink:href="#uuD" y1="1" y2=".5"/><path d="M 7,6 C 5.9,6 5,6.9 5,8 v 2 4 c -1.1,0 -2,.9 -2,2 v 24 c 0,1.1 .9,2 2,2 h 38 c 1.1,0 2,-.9 2,-2 V 25 16 14 c 0,-1.1 -.9,-2 -2,-2 V 10 C 43,8.9 42.1,8 41,8 H 21 C 18,8 18,6 15,6 Z" id="uuH"></path><path d="M 7,6 C 5.9,6 5,6.9 5,8 v 2 4 h 10 c 3,0 3,-2 6,-2 H 43 V 10 C 43,8.9 42.1,8 41,8 H 21 C 18,8 18,6 15,6 Z" id="uuI"></path></defs>
<g id="content" transform="translate(0,0)"><use class="folder-manilla ExScheme-Brown-1" fill="currentColor" href="#uuH"></use><use class="toggle-manilla-folders ColorScheme-Highlight" fill="currentColor" href="#uuH" id="primary-color"></use><use class="ColorScheme-Text" fill="currentColor" href="#uuH" opacity=".1"></use><g id="emblem" transform="translate(12,15)"><path class="ColorScheme-Background" d="M 3,2 C 2.45,2 2,2.45 2,3 v 18 c 0,.55 .45,1 1,1 h 18 c .55,0 1,-.45 1,-1 V 3 C 22,2.45 21.55,2 21,2 Z M 4,3 H 20 V 5 H 4 Z M 3.5,6 C 3.8,6 4,6.2 4,6.5 v 3 C 4,9.8 3.8,10 3.5,10 3.2,10 3,9.8 3,9.5 v -3 C 3,6.2 3.2,6 3.5,6 Z m 17,0 C 20.8,6 21,6.2 21,6.5 v 3 C 21,9.8 20.8,10 20.5,10 20.2,10 20,9.8 20,9.5 v -3 C 20,6.2 20.2,6 20.5,6 Z M 6,7 H 7 V 9 H 6 Z M 8,7 H 9 V 9 H 8 Z m 2,0 h 1 v 2 h -1 z m 2,0 h 1 v 2 h -1 z m 3,0 h 3 V 8 H 15 Z M 4,11 h 16 v 2 H 4 Z M 3.5,14 C 3.8,14 4,14.2 4,14.5 v 3 C 4,17.8 3.8,18 3.5,18 3.2,18 3,17.8 3,17.5 v -3 C 3,14.2 3.2,14 3.5,14 Z m 17,0 c .3,0 0.5,.2 0.5,0.5 v 3 C 21,17.8 20.8,18 20.5,18 20.2,18 20,17.8 20,17.5 v -3 C 20,14.2 20.2,14 20.5,14 Z M 6,15 h 1 v 2 H 6 Z m 2,0 h 1 v 2 H 8 Z m 2,0 h 1 v 2 h -1 z m 2,0 h 1 v 2 h -1 z m 3,0 h 3 v 1 H 15 Z M 4,19 h 16 v 2 H 4 Z" fill="currentColor" opacity=".6" stop-color="#000000"/><path class="ColorScheme-Background" d="M 3 2 C 2.45 2 2 2.45 2 3 L 2 21 C 2 21.55 2.45 22 3 22 L 21 22 C 21.55 22 22 21.55 22 21 L 22 3 C 22 2.45 21.55 2 21 2 L 3 2 z M 3 2.5 L 4 2.5 A .5 .5 0 0 0 3.5 3 L 3.5 5 A .5 .5 0 0 0 4 5.5 L 20 5.5 A .5 .5 0 0 0 20.5 5 L 20.5 3 A .5 .5 0 0 0 20 2.5 L 21 2.5 C 21.3 2.5 21.5 2.7 21.5 3 L 21.5 6.5 C 21.5 5.95 21.05 5.5 20.5 5.5 C 19.95 5.5 19.5 5.95 19.5 6.5 L 19.5 9.5 C 19.5 10.05 19.95 10.5 20.5 10.5 C 21.05 10.5 21.5 10.05 21.5 9.5 L 21.5 14.5 C 21.5 13.95 21.05 13.5 20.5 13.5 C 19.95 13.5 19.5 13.95 19.5 14.5 L 19.5 17.5 C 19.5 18.05 19.95 18.5 20.5 18.5 C 21.05 18.5 21.5 18.05 21.5 17.5 L 21.5 21 C 21.5 21.3 21.3 21.5 21 21.5 L 20 21.5 A .5 .5 0 0 0 20.5 21 L 20.5 19 A .5 .5 0 0 0 20 18.5 L 4 18.5 A .5 .5 0 0 0 3.5 19 L 3.5 21 A .5 .5 0 0 0 4 21.5 L 3 21.5 C 2.7 21.5 2.5 21.3 2.5 21 L 2.5 17.5 C 2.5 18.05 2.95 18.5 3.5 18.5 C 4.05 18.5 4.5 18.05 4.5 17.5 L 4.5 14.5 C 4.5 13.95 4.05 13.5 3.5 13.5 C 2.95 13.5 2.5 13.95 2.5 14.5 L 2.5 9.5 C 2.5 10.05 2.95 10.5 3.5 10.5 C 4.05 10.5 4.5 10.05 4.5 9.5 L 4.5 6.5 C 4.5 5.95 4.05 5.5 3.5 5.5 C 2.95 5.5 2.5 5.95 2.5 6.5 L 2.5 3 C 2.5 2.7 2.7 2.5 3 2.5 z M 4 3 L 20 3 L 20 5 L 4 5 L 4 3 z M 3.5 6 C 3.8 6 4 6.2 4 6.5 L 4 9.5 C 4 9.8 3.8 10 3.5 10 C 3.2 10 3 9.8 3 9.5 L 3 6.5 C 3 6.2 3.2 6 3.5 6 z M 20.5 6 C 20.8 6 21 6.2 21 6.5 L 21 9.5 C 21 9.8 20.8 10 20.5 10 C 20.2 10 20 9.8 20 9.5 L 20 6.5 C 20 6.2 20.2 6 20.5 6 z M 6 6.5 A .5 .5 0 0 0 5.5 7 L 5.5 9 A .5 .5 0 0 0 6 9.5 L 7 9.5 A .5 .5 0 0 0 7.5 9 A .5 .5 0 0 0 8 9.5 L 9 9.5 A .5 .5 0 0 0 9.5 9 A .5 .5 0 0 0 10 9.5 L 11 9.5 A .5 .5 0 0 0 11.5 9 A .5 .5 0 0 0 12 9.5 L 13 9.5 A .5 .5 0 0 0 13.5 9 L 13.5 7 A .5 .5 0 0 0 13 6.5 L 12 6.5 A .5 .5 0 0 0 11.5 7 A .5 .5 0 0 0 11 6.5 L 10 6.5 A .5 .5 0 0 0 9.5 7 A .5 .5 0 0 0 9 6.5 L 8 6.5 A .5 .5 0 0 0 7.5 7 A .5 .5 0 0 0 7 6.5 L 6 6.5 z M 15 6.5 A .5 .5 0 0 0 14.5 7 L 14.5 8 A .5 .5 0 0 0 15 8.5 L 18 8.5 A .5 .5 0 0 0 18.5 8 L 18.5 7 A .5 .5 0 0 0 18 6.5 L 15 6.5 z M 6 7 L 7 7 L 7 9 L 6 9 L 6 7 z M 8 7 L 9 7 L 9 9 L 8 9 L 8 7 z M 10 7 L 11 7 L 11 9 L 10 9 L 10 7 z M 12 7 L 13 7 L 13 9 L 12 9 L 12 7 z M 15 7 L 18 7 L 18 8 L 15 8 L 15 7 z M 4 10.5 A .5 .5 0 0 0 3.5 11 L 3.5 13 A .5 .5 0 0 0 4 13.5 L 20 13.5 A .5 .5 0 0 0 20.5 13 L 20.5 11 A .5 .5 0 0 0 20 10.5 L 4 10.5 z M 4 11 L 20 11 L 20 13 L 4 13 L 4 11 z M 3.5 14 C 3.8 14 4 14.2 4 14.5 L 4 17.5 C 4 17.8 3.8 18 3.5 18 C 3.2 18 3 17.8 3 17.5 L 3 14.5 C 3 14.2 3.2 14 3.5 14 z M 20.5 14 C 20.8 14 21 14.2 21 14.5 L 21 17.5 C 21 17.8 20.8 18 20.5 18 C 20.2 18 20 17.8 20 17.5 L 20 14.5 C 20 14.2 20.2 14 20.5 14 z M 6 14.5 A .5 .5 0 0 0 5.5 15 L 5.5 17 A .5 .5 0 0 0 6 17.5 L 7 17.5 A .5 .5 0 0 0 7.5 17 A .5 .5 0 0 0 8 17.5 L 9 17.5 A .5 .5 0 0 0 9.5 17 A .5 .5 0 0 0 10 17.5 L 11 17.5 A .5 .5 0 0 0 11.5 17 A .5 .5 0 0 0 12 17.5 L 13 17.5 A .5 .5 0 0 0 13.5 17 L 13.5 15 A .5 .5 0 0 0 13 14.5 L 12 14.5 A .5 .5 0 0 0 11.5 15 A .5 .5 0 0 0 11 14.5 L 10 14.5 A .5 .5 0 0 0 9.5 15 A .5 .5 0 0 0 9 14.5 L 8 14.5 A .5 .5 0 0 0 7.5 15 A .5 .5 0 0 0 7 14.5 L 6 14.5 z M 15 14.5 A .5 .5 0 0 0 14.5 15 L 14.5 16 A .5 .5 0 0 0 15 16.5 L 18 16.5 A .5 .5 0 0 0 18.5 16 L 18.5 15 A .5 .5 0 0 0 18 14.5 L 15 14.5 z M 6 15 L 7 15 L 7 17 L 6 17 L 6 15 z M 8 15 L 9 15 L 9 17 L 8 17 L 8 15 z M 10 15 L 11 15 L 11 17 L 10 17 L 10 15 z M 12 15 L 13 15 L 13 17 L 12 17 L 12 15 z M 15 15 L 18 15 L 18 16 L 15 16 L 15 15 z M 4 19 L 20 19 L 20 21 L 4 21 L 4 19 z " fill="currentColor" opacity=".6"/></g><use href="#uuI" opacity=".4"></use><use class="toggle-flat-design" fill="url(#uuG)" href="#uuI" opacity=".1"></use><path class="toggle-flat-design" d="m 21,12 c -3,0 -3,2 -6,2 H 5 c -1.1,0 -2,.9 -2,2 v 24 c 0,1.1 .9,2 2,2 h 38 c 1.1,0 2,-.9 2,-2 V 25 16 14 c 0,-1.1 -.9,-2 -2,-2 z" fill="url(#uuF)" opacity=".2"/><path class="folder-crease " d="m 3,33 v 1 H 9.5 C 9.8,34 10,33.8 10,33.5 10,33.2 9.8,33 9.5,33 Z m 35.5,0 c -.3,0 -0.5,.2 -0.5,0.5 0,.3 .2,0.5 0.5,0.5 H 45 v -1 z" opacity=".4"/><path class="ColorScheme-Text" d="m 3,39 v 1 c 0,1.1 .9,2 2,2 h 38 c 1.1,0 2,-.9 2,-2 v -1 c 0,1.1 -.9,2 -2,2 H 5 C 3.9,41 3,40.1 3,39 Z" fill="currentColor" opacity=".1"/><path class="ColorScheme-Text" d="M 3,39.5 V 40 c 0,1.1 .9,2 2,2 h 38 c 1.1,0 2,-.9 2,-2 v -0.5 c 0,1.1 -.9,2 -2,2 H 5 c -1.1,0 -2,-.9 -2,-2 z" fill="currentColor" opacity=".2"/><path d="m 21,12 c -3,0 -3,2 -6,2 H 5 c -1.1,0 -2,.9 -2,2 v 1 c 0,-1.1 .9,-2 2,-2 h 10 c 3,0 3,-2 6,-2 h 22 c 1.1,0 2,.9 2,2 v -1 c 0,-1.1 -.9,-2 -2,-2 z" fill="#fff" opacity=".1"/><path d="m 21,12 c -3,0 -3,2 -6,2 H 5 c -1.1,0 -2,.9 -2,2 v 0.5 c 0,-1.1 .9,-2 2,-2 h 10 c 3,0 3,-2 6,-2 h 22 c 1.1,0 2,.9 2,2 V 14 c 0,-1.1 -.9,-2 -2,-2 z" fill="#fff" opacity=".2"/><path d="m 21,11 c -3,0 -3,2 -6,2 H 5 v 1 h 10 c 3,0 3,-2 6,-2 h 22 v -1 z" opacity=".1"/><path d="m 21,11.5 c -3,0 -3,2 -6,2 H 5 V 14 h 10 c 3,0 3,-2 6,-2 h 22 v -0.5 z" opacity=".2"/></g>
</svg>