<svg height="48" version="1.1" width="48" xmlns="http://www.w3.org/2000/svg" xmlns:svg="http://www.w3.org/2000/svg" xmlns:xlink="http://www.w3.org/1999/xlink">
<defs id="primary-definitions">
<style id="current-color-scheme" type="text/css">
      .ColorScheme-Text         { color: #232629; }
      .ColorScheme-Background   { color: #eff0f1; }
      .ColorScheme-Highlight    { color: #7ec9f0; }
      .ColorScheme-PositiveText { color: #27ae60; }
      .ColorScheme-NeutralText  { color: #f67400; }
      .ColorScheme-NegativeText { color: #da4453; }
      .ColorScheme-ActiveText   { color: #3daee9; }
      .ColorScheme-Complement   { color: #ffffff; }
      .ColorScheme-Contrast     { color: #000000; }
    </style>
<style id="extended-color-scheme" type="text/css">
      .ExScheme-Black     { color:#3e3e3e; }
      .ExScheme-White     { color:#fcfcfc; }
      .ExScheme-Grey-1    { color:#cfd5d5; }
      .ExScheme-Grey-2    { color:#909c9c; }
      .ExScheme-Grey-3    { color:#536161; }
      .ExScheme-Red-1     { color:#ffafa5; }
      .ExScheme-Red-2     { color:#bf4231; }
      .ExScheme-Red-3     { color:#4d2f2b; }
      .ExScheme-Green-1   { color:#abf9c7; }
      .ExScheme-Green-2   { color:#3bb566; }
      .ExScheme-Green-3   { color:#377d50; }
      .ExScheme-Blue-1    { color:#abdaf9; }
      .ExScheme-Blue-2    { color:#3daefd; }
      .ExScheme-Blue-3    { color:#2b3c4d; }
      .ExScheme-Yellow-1  { color:#faffa5; }
      .ExScheme-Yellow-2  { color:#cac726; }
      .ExScheme-Yellow-3  { color:#4b4d2b; }
      .ExScheme-Orange-1  { color:#ffdaa5; }
      .ExScheme-Orange-2  { color:#ff9701; }
      .ExScheme-Orange-3  { color:#4d372b; }
      .ExScheme-Brown-1   { color:#e9d6bb; }
      .ExScheme-Brown-2   { color:#997657; }
      .ExScheme-Brown-3   { color:#433a35; }
      .ExScheme-Purple-1  { color:#e2abf9; }
      .ExScheme-Purple-2  { color:#b401ff; }
      .ExScheme-Purple-3  { color:#432b4d; }
      .ExScheme-Cyan-1    { color:#b2f2e6; }
      .ExScheme-Cyan-2    { color:#31bfa6; }
      .ExScheme-Cyan-3    { color:#2b4d47; }
      .ExScheme-Magenta-1 { color:#f8a6d8; }
      .ExScheme-Magenta-2 { color:#f00091; }
      .ExScheme-Magenta-3 { color:#770048; }
    </style>
<linearGradient id="uVF">
<stop offset="0"/>
<stop offset="1" stop-opacity="0"/>
</linearGradient>
<linearGradient id="uVG">
<stop offset="0" stop-color="#fff"/>
<stop offset="1" stop-color="#fff" stop-opacity="0"/>
</linearGradient>
<linearGradient id="uVH">
<stop offset="0" stop-color="#909c9c"/>
<stop offset=".105" stop-color="#909c9c"/>
<stop offset=".5" stop-color="#b0b8b8"/>
<stop offset=".895" stop-color="#909c9c"/>
<stop offset="1" stop-color="#6f8181"/>
</linearGradient><linearGradient id="uVI">
<stop offset="0" stop-color="#000000"/>
<stop offset="1" stop-color="#000000" stop-opacity="0"/>
</linearGradient><style class="toggle-enable-crease" type="text/css">
        .folder-crease { display: none; }
    </style><style class="toggle-manilla-folders" type="text/css">
        .folder-manilla { display: none; }
    </style><radialGradient cx=".5" cy="0" id="uVJ" r="1" xlink:href="#uVG"/><linearGradient id="uVK" xlink:href="#uVF" y1="1" y2=".5"/><clipPath clipPathUnits="userSpaceOnUse" id="uVL">
<rect height="900" width="1600" x="0" y="58.874992"/>
</clipPath><radialGradient cx="8" cy="32" fx="8" fy="32" gradientTransform="matrix(0,1.6,-.8,0,49.55,-6.8)" gradientUnits="userSpaceOnUse" id="uVM" r="22.54" xlink:href="#uVG"/><linearGradient gradientTransform="scale(0.75)" gradientUnits="userSpaceOnUse" id="uVN" x1="12.11" x2="20.39" xlink:href="#uVF" y1="32.02" y2="31.5"/><linearGradient gradientTransform="matrix(-0.75,0,0,0.75,48,0)" gradientUnits="userSpaceOnUse" id="uVO" x1="12.11" x2="20.39" xlink:href="#uVI" y1="32.02" y2="31.5"/><linearGradient gradientTransform="scale(0.75)" gradientUnits="userSpaceOnUse" id="uVP" x1="13" x2="51" xlink:href="#uVH" y1="50" y2="50"/><path d="m 10,6 c -1.25,0 -2.35,1 -2.25,2.25 l 2.06,24.76 L 24,36 38.2,33 40.27,8.25 C 40.4,7 39.27,6 38,6 Z" id="uVQ" opacity=".4"></path><path d="m 70.45,39.4 4.16,1.5 -1.36,4.67 3.83,1.2 6.96,-4.7 -1.26,-2.4 3.25,-3.2 -5.87,-3.1 -3.37,1.7 z" id="uVR"></path><path d="m 74.6,40.8 -1.36,4.67 3.3,-1.83 z" id="uVS"></path><path d="m 80.16,33.35 -3.37,1.7 .7,1.8 4.06,.54 z" fill="#b0b8b8" id="uVT"></path><path d="m 74.6,40.8 2.9,-3.97 6.54,5.2 z" id="uVU"></path><path d="m 70.45,39.4 7.05,-2.45 5.3,2.83 -8.17,1.13 -1.36,4.67 z" fill="#fcfcfc" id="uVV"></path><path d="m 72.53,48.4 -2.65,-2.74 2.8,-6.95 6.9,.1 3.6,-1.47 3.1,4.47 -1.76,4.9 -6.65,2.13 z" fill="#cfd5d5" id="uVW"></path><path d="m 72.7,38.7 1.1,4.4 4.2,-.2 1.6,-4.2 z" id="uVX"></path><path d="m 78,42.9 -5.47,5.5 5.4,.44 2.6,-2.97 z" fill="#909c9c" id="uVY"></path><path d="m 84.6,46.7 -1.65,-1.4 1.6,-2.97 1.8,-.55 z" id="uVZ"></path><path d="M 83.2,37.34 80.5,45.87 79.7,38.8 Z" id="uW0"></path><path d="m 69.9,45.67 3.9,-2.56 4.2,-.2 5.2,-5.56 -2.7,8.53 -8,2.53 z" fill="#eff1f1" id="uW1"></path><path d="m 68.5,41.9 -2.1,-2.6 .57,-3.05 4.2,-1.25 .44,-2.8 3.33,-1.3 6.14,1 .5,4.67 .97,1.2 -1.4,1.4 -7.95,3.03 -2.34,-.03 z" fill="#cfd5d5" id="uW2"></path><path d="m 68.5,41.9 1.9,-3.2 2.87,-1.5 2.2,.93 3.3,-.14 .8,-.56 -.64,1.77 -5.85,.75 z" id="uW3"></path><path d="m 66.97,36.26 3.44,2.44 2.87,-1.5 -2.2,-2.17 z" fill="#b0b8b8" id="uW4"></path><path d="m 75.5,38.1 -.66,-7.17 6.14,1 -1.4,5.47 -.8,.56 z" fill="#b0b8b8" id="uW5"></path><path d="m 73.13,42.27 -.04,-2.34 5.85,-.75 2.14,.06 z" fill="#b0b8b8" id="uW6"></path><path d="m 71.07,35 9.9,-3.07 -6.14,-1 -3.33,1.3 z" id="uW7"></path><path d="m 25.05,29.6 6.25,4 -1.85,3.9 -8.2,-4.3 z" id="uW8"></path><path d="m 38.86,20.56 7.1,-1.4 -5.07,-6.63 -5.86,-.07 2.2,4.3 -1.16,4.64 z" id="uW9"></path><path d="m 31.45,39.4 7.06,3.9 5.1,-1.7 -1.4,-3.57 -9.83,-.55 z" id="uWa"></path></defs>
<g id="content" transform="translate(0,0)"><use class="ColorScheme-Text" fill="currentColor" href="#uVQ"></use><g id="trash-contents" transform="matrix(.76,0,0,.76,-.44,-.686)">
<g transform="matrix(.27,-1.053,1.053,.27,-30.46,98.07)">
<use fill="#eff1f1" href="#uVR"></use>
<use fill="#b0b8b8" href="#uVS"></use>
<use href="#uVT"></use>
<use fill="#b0b8b8" href="#uVU"></use>
<use href="#uVV"></use>
</g>
<path d="m 333.7,66.5 -19.7,21.67 3.64,16.25 11.2,31.74 29.5,-5.2 9.27,-15.06 -12.1,-34.76 -11.6,2.77 z" opacity=".5" transform="matrix(.246,0,0,.246,-51.174,.9)"/>
<g transform="rotate(100.56,59.707,4.655)">
<use href="#uVW"></use>
<use fill="#b0b8b8" href="#uVX"></use>
<use href="#uVY"></use>
<use fill="#b0b8b8" href="#uVZ"></use>
<use fill="#b0b8b8" href="#uW0"></use>
<use href="#uW1"></use>
</g>
<g transform="matrix(1.087,0,0,1.087,-61.947,-7.26)">
<path d="m 70.45,39.4 4.25,-.44 -.1,1.96 -1.36,4.67 3.83,1.2 6.96,-4.7 -1.26,-2.4 3.25,-3.2 -5.87,-3.1 -3.37,1.7 z" fill="#eff1f1"/>
<use fill="#b0b8b8" href="#uVS"></use>
<use href="#uVT"></use>
<use fill="#b0b8b8" href="#uVU"></use>
<path d="m 70.45,39.4 7.05,-2.45 5.3,2.83 -8.17,1.13 -1.36,4.67 .96,-6.17 z" fill="#6f8181"/>
</g>
<g transform="matrix(-1.24,.07,-.07,-1.24,135.425,55.033)">
<use href="#uW2"></use>
<use fill="#eff1f1" href="#uW3"></use>
<use href="#uW4"></use>
<use href="#uW5"></use>
<use href="#uW6"></use>
<use fill="#eff1f1" href="#uW7"></use>
</g>
<path d="m 17.5,7.15 -3.2,2.1 -1.4,5.2 .87,6.93 4.5,2.63 4.96,-2.25 -.8,-3.8 1.35,-6.76 z m 27.17,.55 -2.9,.13 -9.64,4.3 -1.6,1.84 1.3,1.45 .95,5.75 7.7,.8 4.03,-1.8 .34,-3.5 5,-1.84 .5,-3.8 -2.77,-3.1 z m -19.53,21.3 -3.66,1.86 -6.9,4.6 4.1,0 -1.04,6.7 4.16,1.3 7.56,-5 -1.37,-2.6 3.53,-3.5 z" opacity=".2"/>
<g transform="rotate(167.475,61.5,29.93)">
<use fill="#cfd5d5" href="#uVR"></use>
<use fill="#eff1f1" href="#uVS"></use>
<use href="#uVT"></use>
<use fill="#eff1f1" href="#uVU"></use>
<use href="#uVV"></use>
</g>
<g transform="translate(-36.493,-9.024)">
<use href="#uVW"></use>
<use fill="#909c9c" href="#uVX"></use>
<use href="#uVY"></use>
<use fill="#909c9c" href="#uVZ"></use>
<use fill="#909c9c" href="#uW0"></use>
<use href="#uW1"></use>
</g>
<g transform="rotate(167.475,48.846,28.447)">
<use href="#uW2"></use>
<use fill="#eff1f1" href="#uW3"></use>
<use href="#uW4"></use>
<use href="#uW5"></use>
<use href="#uW6"></use>
<use fill="#909c9c" href="#uW7"></use>
</g>
<g transform="rotate(118.504,63.385,15.576)">
<use href="#uW2"></use>
<use fill="#909c9c" href="#uW3"></use>
<use href="#uW4"></use>
<use href="#uW5"></use>
<use href="#uW6"></use>
<use fill="#eff1f1" href="#uW7"></use>
</g>
<g transform="matrix(1.127,0,0,1.127,-55.89,-27.475)">
<use href="#uW2"></use>
<use fill="#909c9c" href="#uW3"></use>
<use href="#uW4"></use>
<use href="#uW5"></use>
<use href="#uW6"></use>
<use fill="#eff1f1" href="#uW7"></use>
</g>
<g transform="rotate(-142.69,58.245,45.66)">
<use href="#uW2"></use>
<use fill="#eff1f1" href="#uW3"></use>
<use href="#uW4"></use>
<use href="#uW5"></use>
<use href="#uW6"></use>
<use fill="#909c9c" href="#uW7"></use>
</g>
<path d="m 41.1,6.9 -3.3,.6 -1.37,1.86 -1.15,2.05 -1.13,8.43 .6,1.9 1.54,-.27 1.5,.6 -.9,.9 1.75,2.06 -2.47,3.85 3.13,.86 -3.06,-.04 -2.8,6.95 .86,.9 .03,1.24 -2.43,4 4.27,4.5 3.4,1 2.04,-1.96 4,1.5 2.4,-2.1 -.1,-3.34 -1.63,-1.64 -1.85,-1.45 -.73,-.2 4.45,-1.43 1.76,-4.9 -3.1,-4.47 -2.7,1.1 1.4,-1.17 5.27,-5.5 -4.1,-5.43 -2.1,-.17 .3,-2.34 -2.25,-1.7 .86,-4.2 z m -14.34,12.65 -2.3,.2 -2.4,.5 -7.1,4.7 -1.04,1.67 1.2,1 1.5,4.45 3.3,-.2 -5.43,3.63 4.1,0 -1.04,6.7 4.16,1.3 7.56,-5 -1.37,-2.6 3.53,-3.5 -5.65,-3 -.16,-2.5 3.73,-2.1 -.1,-3.1 z" opacity=".2"/>
<use fill="#01ff5b" href="#uW8"></use>
<use fill="#001909" href="#uW8" opacity=".2"></use>
<path d="m 29.45,37.5 -7.36,-1.7 -.83,-2.6 7.44,3.4 1.96,-.9 z" fill="#01ff5b"/>
<use fill="#ffa92d" href="#uW9"></use>
<use fill="#3daefd" href="#uWa"></use>
<use href="#uWa" opacity=".2"></use>
<g transform="rotate(100.56,58.634,12.673)">
<use href="#uVW"></use>
<use fill="#b0b8b8" href="#uVX"></use>
<use href="#uVY"></use>
<use fill="#b0b8b8" href="#uVZ"></use>
<use fill="#b0b8b8" href="#uW0"></use>
<use href="#uW1"></use>
</g>
<use fill="#010202" href="#uW9" opacity=".2"></use>
<g transform="rotate(-157.83,55.22,32.353)">
<use href="#uW2"></use>
<use fill="#536161" href="#uW3"></use>
<use href="#uW4"></use>
<use href="#uW5"></use>
<use href="#uW6"></use>
<use fill="#909c9c" href="#uW7"></use>
</g>
<g transform="matrix(.28,1.05,-1.05,.28,56.043,-58.51)">
<use fill="#eff1f1" href="#uVR"></use>
<use fill="#b0b8b8" href="#uVS"></use>
<use href="#uVT"></use>
<use fill="#b0b8b8" href="#uVU"></use>
<path d="m 70.45,39.4 7.05,-2.45 -4.5,2.57 1.6,1.4 -1.36,4.67 .26,-4.2 z" fill="#536161"/>
</g>
<g transform="translate(-48.26,6.82)">
<use href="#uW2"></use>
<use fill="#909c9c" href="#uW3"></use>
<use href="#uW4"></use>
<use href="#uW5"></use>
<use href="#uW6"></use>
<use fill="#eff1f1" href="#uW7"></use>
</g>
<path d="m 38.5,43.2 3.7,-5.27 2.45,1.4 -1.07,2.14 z" fill="#3daefd"/>
<path d="m 35.04,12.44 5.86,.07 -3.2,2.6 -1,2.64 -5.74,-.8 .6,-2.9 z" fill="#ffa92d"/>
</g><path class="ColorScheme-Text" d="m 10,6 c -1.25,0 -2.35,1 -2.25,2.25 l 2.06,24.76 L 11.25,34.5 11.27,33 9.23,8.25 C 9.1,7 10.23,6 11.5,6 Z M 36.5,6 c 1.25,0 2.35,1 2.25,2.25 L 36.73,33 36.75,34.5 38.2,33 40.27,8.25 C 40.4,7 39.27,6 38,6 Z" fill="currentColor" opacity=".4"/><use class="ColorScheme-Text" fill="currentColor" href="#uVQ"></use><path d="m 9.8,33 .56,6.75 c .1,1.24 1,2.25 2.25,2.25 h 22.8 c 1.25,0 2.15,-1 2.25,-2.25 l .56,-6.75 z" fill="url(#uVP)" id="metal-cup"/><path d="m 10,6 c -1.25,0 -2.35,1 -2.25,2.25 l 2.6,31.5 c .1,1.24 1,2.25 2.25,2.25 H 18 V 6 Z" fill="url(#uVN)" opacity=".2"/><path d="m 30,6 v 36 h 5.4 c 1.25,0 2.15,-1 2.25,-2.25 l 2.6,-31.5 C 40.4,7 39.27,6 38,6 Z" fill="url(#uVO)" opacity=".2"/><path class="ColorScheme-Contrast" d="M 9.76,32.6 9.8,33 h 28.4 l .03,-.4 z" fill="currentColor" opacity=".1"/><path class="ColorScheme-Complement" d="m 9.8,33 .03,.4 H 38.2 L 38.2,33 Z" fill="currentColor" opacity=".2"/><path class="ColorScheme-Contrast" d="M 10 6 C 8.73 6 7.6 7 7.73 8.25 L 7.76 8.8 C 7.97 7.7 8.9 7 10 7 L 38 7 C 39.1 7 40.03 7.7 40.24 8.8 L 40.27 8.25 C 40.4 7 39.27 6 38 6 L 10 6 z " fill="currentColor" opacity=".05"/><path class="ColorScheme-Contrast" d="M 10 6 C 8.73 6 7.6 7 7.73 8.25 L 7.74 8.36 C 7.86 7.3 8.86 6.5 10 6.5 L 38 6.5 C 39.14 6.5 40.14 7.3 40.26 8.36 L 40.27 8.25 C 40.4 7 39.27 6 38 6 L 10 6 z " fill="currentColor" opacity=".1"/><path class="ColorScheme-Contrast" d="M 10.3,38.93 10.35,39.75 c .1,1.24 1,2.25 2.25,2.25 h 22.8 c 1.25,0 2.15,-1 2.25,-2.25 l .07,-.8 C 37.54,40.1 36.6,41 35.4,41 H 12.6 c -1.2,0 -2.14,-.9 -2.3,-2.07 z" fill="currentColor" opacity=".1"/><path class="ColorScheme-Contrast" d="M 10.3 38.93 L 10.35 39.75 C 10.46 41 11.36 42 12.6 42 L 35.4 42 C 36.64 42 37.54 41 37.65 39.75 L 37.7 38.93 C 37.7 39.03 37.7 39.13 37.65 39.23 L 37.65 39.25 C 37.54 40.5 36.64 41.5 35.4 41.5 L 12.6 41.5 C 11.36 41.5 10.46 40.5 10.35 39.25 L 10.35 39.23 C 10.3 39.13 10.3 39.03 10.3 38.93 z " fill="currentColor" opacity=".2"/><path d="m 10,6 c -1.25,0 -2.35,1 -2.25,2.25 l 2.6,31.5 c .1,1.24 1,2.25 2.25,2.25 h 22.8 c 1.25,0 2.15,-1 2.25,-2.25 l 2.6,-31.5 C 40.4,7 39.27,6 38,6 Z" fill="url(#uVM)" id="gloss" opacity=".2"/></g>
</svg>