<svg height="48" version="1.1" width="48" xmlns="http://www.w3.org/2000/svg" xmlns:svg="http://www.w3.org/2000/svg" xmlns:xlink="http://www.w3.org/1999/xlink">
<defs id="primary-definitions">
<style id="current-color-scheme" type="text/css">
      .ColorScheme-Text           { color:#fff; }
      .ColorScheme-Background     { color:#111; }
      .ColorScheme-Highlight      { color:#3daefd; }
      .ColorScheme-ViewBackground { color:#000; }
      .ColorScheme-PositiveText   { color:#27ae60; }
      .ColorScheme-NeutralText    { color:#f67400; }
      .ColorScheme-NegativeText   { color:#da4453; }
    </style>
<style id="extended-color-scheme" type="text/css">
      .ExScheme-Black     { color:#3e3e3e; }
      .ExScheme-White     { color:#fcfcfc; }
      .ExScheme-Grey-1    { color:#cfd5d5; }
      .ExScheme-Grey-2    { color:#909c9c; }
      .ExScheme-Grey-3    { color:#536161; }
      .ExScheme-Red-1     { color:#ffafa5; }
      .ExScheme-Red-2     { color:#bf4231; }
      .ExScheme-Red-3     { color:#4d2f2b; }
      .ExScheme-Green-1   { color:#abf9c7; }
      .ExScheme-Green-2   { color:#3bb566; }
      .ExScheme-Green-3   { color:#377d50; }
      .ExScheme-Blue-1    { color:#abdaf9; }
      .ExScheme-Blue-2    { color:#3daefd; }
      .ExScheme-Blue-3    { color:#2b3c4d; }
      .ExScheme-Yellow-1  { color:#faffa5; }
      .ExScheme-Yellow-2  { color:#cac726; }
      .ExScheme-Yellow-3  { color:#4b4d2b; }
      .ExScheme-Orange-1  { color:#ffdaa5; }
      .ExScheme-Orange-2  { color:#ff9701; }
      .ExScheme-Orange-3  { color:#4d372b; }
      .ExScheme-Brown-1   { color:#e9d6bb; }
      .ExScheme-Brown-2   { color:#997657; }
      .ExScheme-Brown-3   { color:#433a35; }
      .ExScheme-Purple-1  { color:#e2abf9; }
      .ExScheme-Purple-2  { color:#b401ff; }
      .ExScheme-Purple-3  { color:#432b4d; }
      .ExScheme-Cyan-1    { color:#b2f2e6; }
      .ExScheme-Cyan-2    { color:#31bfa6; }
      .ExScheme-Cyan-3    { color:#2b4d47; }
      .ExScheme-Magenta-1 { color:#f8a6d8; }
      .ExScheme-Magenta-2 { color:#f00091; }
      .ExScheme-Magenta-3 { color:#770048; }
    </style>
<linearGradient id="uIy">
<stop offset="0"/>
<stop offset="1" stop-opacity="0"/>
</linearGradient>
<linearGradient id="uIz">
<stop offset="0" stop-color="#fff"/>
<stop offset="1" stop-color="#fff" stop-opacity="0"/>
</linearGradient>
<linearGradient id="uIA">
<stop offset="0" stop-color="#909c9c"/>
<stop offset=".105" stop-color="#909c9c"/>
<stop offset=".5" stop-color="#b0b8b8"/>
<stop offset=".895" stop-color="#909c9c"/>
<stop offset="1" stop-color="#6f8181"/>
</linearGradient><linearGradient id="uIB">
<stop offset="0" stop-color="#000000"/>
<stop offset="1" stop-color="#000000" stop-opacity="0"/>
</linearGradient><style class="toggle-enable-crease" type="text/css">
        .folder-crease { display: none; }
    </style><style class="toggle-manilla-folders" type="text/css">
        .folder-manilla { display: none; }
    </style><radialGradient cx=".5" cy="0" id="uIC" r="1" xlink:href="#uIz"/><linearGradient id="uID" xlink:href="#uIy" y1="1" y2=".5"/><clipPath clipPathUnits="userSpaceOnUse" id="uIE">
<rect height="900" width="1600" x="0" y="58.874992"/>
</clipPath><radialGradient cx="8" cy="32" fx="8" fy="32" gradientTransform="matrix(0,1.6,-.8,0,49.55,-6.8)" gradientUnits="userSpaceOnUse" id="uIF" r="22.54" xlink:href="#uIz"/><linearGradient gradientTransform="scale(0.75)" gradientUnits="userSpaceOnUse" id="uIG" x1="12.11" x2="20.39" xlink:href="#uIy" y1="32.02" y2="31.5"/><linearGradient gradientTransform="matrix(-0.75,0,0,0.75,48,0)" gradientUnits="userSpaceOnUse" id="uIH" x1="12.11" x2="20.39" xlink:href="#uIB" y1="32.02" y2="31.5"/><linearGradient gradientTransform="scale(0.75)" gradientUnits="userSpaceOnUse" id="uII" x1="13" x2="51" xlink:href="#uIA" y1="50" y2="50"/><path d="m 10,6 c -1.25,0 -2.35,1 -2.25,2.25 l 2.06,24.76 L 24,36 38.2,33 40.27,8.25 C 40.4,7 39.27,6 38,6 Z" id="uIJ" opacity=".4"></path></defs>
<g id="content" transform="translate(0,0)"><use class="ColorScheme-Text" fill="currentColor" href="#uIJ"></use><path class="ColorScheme-Text" d="m 10,6 c -1.25,0 -2.35,1 -2.25,2.25 l 2.06,24.76 L 11.25,34.5 11.27,33 9.23,8.25 C 9.1,7 10.23,6 11.5,6 Z M 36.5,6 c 1.25,0 2.35,1 2.25,2.25 L 36.73,33 36.75,34.5 38.2,33 40.27,8.25 C 40.4,7 39.27,6 38,6 Z" fill="currentColor" opacity=".4"/><use class="ColorScheme-Text" fill="currentColor" href="#uIJ"></use><path d="m 9.8,33 .56,6.75 c .1,1.24 1,2.25 2.25,2.25 h 22.8 c 1.25,0 2.15,-1 2.25,-2.25 l .56,-6.75 z" fill="url(#uII)" id="metal-cup"/><path class="ColorScheme-Background" d="m 22.43,11 c 0,0 .6,.15 1.16,1.1 l 2,3.46 -1.3,0.75 4.3,.4 1.8,-3.9 -1.3,0.75 -1,-1.73 c -.26,-.45 -.5,-.84 -1.36,-.84 z m -1.35,.86 c -.55,0 -1.1,.35 -1.5,1.07 l -1.75,3.03 3.46,2 2.25,-3.9 c -.6,-1.4 -1.55,-2.24 -2.47,-2.2 z m 9.7,4.76 -3.46,2 2.25,3.9 c 2.4,.3 4.07,-.95 2.96,-2.87 z m -11.73,1.2 -4.3,.4 1.3,0.75 -1,1.73 c -.26,.45 -.5,.86 -.05,1.6 l 2.1,3.7 c 0,0 -.16,-.6 .4,-1.56 l 2,-3.46 1.3,0.75 z M 27,22.5 24.5,26 27,29.5 V 28 h 2 c .5,0 1,-0 1.4,-.75 L 32.55,23.56 c 0,0 -.43,.44 -1.55,.44 h -4 z M 19,24 c -1.47,1.9 -1.2,4 1,4 h 3.5 v -4 z" fill="currentColor" opacity=".6"/><path class="ColorScheme-Background" d="m 22.43,11 c 0,0 .6,.15 1.16,1.1 l 2,3.46 -1.3,0.75 4.3,.4 1.8,-3.9 -1.3,0.75 -1,-1.73 C 27.8,11.4 27.54,11.03 26.7,11.03 Z m 1.27,.5 3,0 c .35,0 .5,.07 .6,.15 .1,.1 .2,.2 .33,.45 l 1.25,2.17 .4,-.2 -1,2.17 -2.37,-.23 .4,-.2 -2.25,-3.9 c -.1,-.2 -.2,-.23 -.3,-.37 z m -2.6,.36 c -.55,0 -1.1,.35 -1.5,1.07 l -1.75,3.03 3.46,2 2.25,-3.9 c -.6,-1.4 -1.55,-2.24 -2.47,-2.2 z m 0,0.5 c .56,-0 1.33,.6 1.87,1.7 l -1.85,3.2 -2.6,-1.5 1.5,-2.6 c .36,-.6 .7,-.8 1.1,-.8 z m 9.8,4.26 -3.46,2 2.25,3.9 c 2.4,.3 4.07,-.95 2.96,-2.87 z m -.2,.7 1.5,2.6 c .24,.4 .3,.74 .3,1 -.03,.26 -.13,.46 -.34,.65 -.4,.35 -1.2,.55 -2.2,.47 l -1.85,-3.2 z m -11.54,.5 -4.3,.4 1.3,0.75 -1,1.73 c -.26,.45 -.5,.86 -.05,1.6 l 2.1,3.7 c 0,0 -.16,-.6 .4,-1.56 l 2,-3.46 1.3,0.75 z m -.3,.53 1,2.17 -.4,-.2 -2.25,3.9 c -.1,.2 -.1,.3 -.16,.46 l -1.5,-2.6 c -.17,-.3 -.2,-.46 -.17,-.6 0,-.13 .1,-.3 .2,-.5 l 1.25,-2.17 -.4,-.2 z M 27,22.5 24.5,26 27,29.5 V 28 h 2 c .5,0 1,-0 1.4,-.75 L 32.55,23.56 C 32.55,23.56 32.1,24 31,24 H 27 Z M 19,24 c -1.47,1.9 -1.2,4 1,4 h 3.5 v -4 z m 7.5,.06 V 24.5 H 31 c .2,0 .3,-.06 .5,-.1 l -1.5,2.6 C 29.8,27.3 29.67,27.4 29.55,27.44 29.43,27.5 29.26,27.5 29,27.5 h -2.5 v .44 L 25.1,26 Z M 19.3,24.5 H 23 v 3 h -3 c -.47,0 -.8,-.1 -1,-.26 C 18.8,27.1 18.67,26.9 18.6,26.6 18.5,26.1 18.73,25.3 19.3,24.5 Z" fill="currentColor" opacity=".6"/><path d="m 10,6 c -1.25,0 -2.35,1 -2.25,2.25 l 2.6,31.5 c .1,1.24 1,2.25 2.25,2.25 H 18 V 6 Z" fill="url(#uIG)" opacity=".2"/><path d="m 30,6 v 36 h 5.4 c 1.25,0 2.15,-1 2.25,-2.25 l 2.6,-31.5 C 40.4,7 39.27,6 38,6 Z" fill="url(#uIH)" opacity=".2"/><path d="M 9.76,32.6 9.8,33 h 28.4 l .03,-.4 z" opacity=".1"/><path d="m 9.8,33 .03,.4 H 38.2 L 38.2,33 Z" fill="#fff" opacity=".2"/><path class="ColorScheme-Text" d="M 10 6 C 8.73 6 7.6 7 7.73 8.25 L 7.76 8.8 C 7.97 7.7 8.9 7 10 7 L 38 7 C 39.1 7 40.03 7.7 40.24 8.8 L 40.27 8.25 C 40.4 7 39.27 6 38 6 L 10 6 z " fill="currentColor" opacity=".05"/><path class="ColorScheme-Text" d="M 10 6 C 8.73 6 7.6 7 7.73 8.25 L 7.74 8.36 C 7.86 7.3 8.86 6.5 10 6.5 L 38 6.5 C 39.14 6.5 40.14 7.3 40.26 8.36 L 40.27 8.25 C 40.4 7 39.27 6 38 6 L 10 6 z " fill="currentColor" opacity=".1"/><path class="ColorScheme-Text" d="M 10.3,38.93 10.35,39.75 c .1,1.24 1,2.25 2.25,2.25 h 22.8 c 1.25,0 2.15,-1 2.25,-2.25 l .07,-.8 C 37.54,40.1 36.6,41 35.4,41 H 12.6 c -1.2,0 -2.14,-.9 -2.3,-2.07 z" fill="currentColor" opacity=".1"/><path class="ColorScheme-Text" d="M 10.3 38.93 L 10.35 39.75 C 10.46 41 11.36 42 12.6 42 L 35.4 42 C 36.64 42 37.54 41 37.65 39.75 L 37.7 38.93 C 37.7 39.03 37.7 39.13 37.65 39.23 L 37.65 39.25 C 37.54 40.5 36.64 41.5 35.4 41.5 L 12.6 41.5 C 11.36 41.5 10.46 40.5 10.35 39.25 L 10.35 39.23 C 10.3 39.13 10.3 39.03 10.3 38.93 z " fill="currentColor" opacity=".2"/><path d="m 10,6 c -1.25,0 -2.35,1 -2.25,2.25 l 2.6,31.5 c .1,1.24 1,2.25 2.25,2.25 h 22.8 c 1.25,0 2.15,-1 2.25,-2.25 l 2.6,-31.5 C 40.4,7 39.27,6 38,6 Z" fill="url(#uIF)" id="gloss" opacity=".2"/></g>
</svg>