<?xml version="1.0" encoding="UTF-8" standalone="no"?>
<svg
   height="52"
   version="1.1"
   viewBox="0 0 52 52"
   width="52"
   id="svg11"
   sodipodi:docname="gear.56.svg"
   inkscape:version="1.1.1 (1:1.1+202109281949+c3084ef5ed)"
   xmlns:inkscape="http://www.inkscape.org/namespaces/inkscape"
   xmlns:sodipodi="http://sodipodi.sourceforge.net/DTD/sodipodi-0.dtd"
   xmlns:xlink="http://www.w3.org/1999/xlink"
   xmlns="http://www.w3.org/2000/svg"
   xmlns:svg="http://www.w3.org/2000/svg">
  <sodipodi:namedview
     id="namedview13"
     pagecolor="#ffffff"
     bordercolor="#666666"
     borderopacity="1.0"
     inkscape:pageshadow="2"
     inkscape:pageopacity="0.0"
     inkscape:pagecheckerboard="0"
     showgrid="false"
     inkscape:zoom="11.313708"
     inkscape:cx="14.937631"
     inkscape:cy="27.84233"
     inkscape:window-width="1920"
     inkscape:window-height="1017"
     inkscape:window-x="0"
     inkscape:window-y="0"
     inkscape:window-maximized="1"
     inkscape:current-layer="svg11" />
  <namedview
     bordercolor="#666666"
     borderopacity="1.0"
     id="namedview-conformist"
     pagecolor="#ffffff"
     pageopacity="0.0"
     pageshadow="0"
     showgrid="true">
    <grid
       class="ColorScheme-Background"
       empspacing="4"
       fill="currentColor"
       opacity="0.8"
       type="xygrid" />
  </namedview>
  <defs
     id="primary-definitions">
    <style
       class="ColorScheme-Background"
       fill="currentColor"
       opacity="0.8"
       type="text/css"
       id="style2">
   .ColorScheme-Text           { color:#eff0f1; }
      .ColorScheme-Background     { color:#31363b; }
      .ColorScheme-Highlight      { color:#3daefd; }
      .ColorScheme-ViewBackground { color:#fcfcfc; }
      .ColorScheme-PositiveText   { color:#27ae60; }
      .ColorScheme-NeutralText    { color:#f67400; }
      .ColorScheme-NegativeText   { color:#da4453; }
  </style>
    <radialGradient
       inkscape:collect="always"
       xlink:href="#linearGradient217331"
       id="radialGradient28208-7-9"
       cx="961.99994"
       cy="495.00974"
       fx="961.99994"
       fy="495.00974"
       r="25.000154"
       gradientTransform="matrix(0,-1.931243,-0.8271251,0,435.4348,1907.8461)"
       gradientUnits="userSpaceOnUse" />
    <linearGradient
       inkscape:collect="always"
       id="linearGradient217331">
      <stop
         style="stop-color:#eff1f1;stop-opacity:1"
         offset="0"
         id="stop217323" />
      <stop
         style="stop-color:#eff1f1;stop-opacity:0.50937712"
         offset="0.44592276"
         id="stop217325" />
      <stop
         style="stop-color:#cfd5d5;stop-opacity:0"
         offset="0.53471142"
         id="stop217327" />
      <stop
         style="stop-color:#cfd5d5;stop-opacity:0.03123906"
         offset="1"
         id="stop217329" />
    </linearGradient>
    <radialGradient
       inkscape:collect="always"
       xlink:href="#linearGradient217331"
       id="radialGradient28208-7-9-9"
       cx="961.99994"
       cy="495.00974"
       fx="961.99994"
       fy="495.00974"
       r="25.000154"
       gradientTransform="matrix(0,1.931243,-0.8271251,0,435.4348,-1855.8461)"
       gradientUnits="userSpaceOnUse" />
    <linearGradient
       inkscape:collect="always"
       xlink:href="#gradientLight"
       id="linearGradient215554"
       gradientUnits="userSpaceOnUse"
       gradientTransform="translate(-936,-493)"
       x1="962"
       y1="494.76239"
       x2="962"
       y2="519.58362" />
    <linearGradient
       id="gradientLight">
      <stop
         stop-opacity="1"
         offset="0"
         stop-color="#fff"
         id="stop9" />
      <stop
         stop-opacity="0"
         offset="1"
         stop-color="#fff"
         id="stop11" />
    </linearGradient>
  </defs>
  <path
     id="path4988-0"
     style="fill:#6f8181;fill-opacity:1;stroke:none;stroke-width:2;stroke-linecap:round;stroke-opacity:0;-inkscape-stroke:none;paint-order:stroke fill markers;stop-color:#000000"
     d="M 26,9 A 17,17 0 0 0 9,26 17,17 0 0 0 26,43 17,17 0 0 0 43,26 17,17 0 0 0 26,9 Z m 0,12 a 5,5 0 0 1 5,5 5,5 0 0 1 -5,5 5,5 0 0 1 -5,-5 5,5 0 0 1 5,-5 z" />
  <path
     id="path3379-4"
     style="fill:#b0b8b8;fill-opacity:1;stroke:none;stroke-width:2;stroke-linecap:round;stroke-opacity:0;-inkscape-stroke:none;paint-order:stroke fill markers;stop-color:#000000"
     d="M 26,2 A 24,24 0 0 0 23.7578,2.16016 L 22.9375,6.25 A 20,20 0 0 0 18.8027,7.39258 L 15.9863,4.19141 a 24,24 0 0 0 -3.8476,2.2832 l 1.3418,3.97656 a 20,20 0 0 0 -3.0293,3.0293 l -3.9766,-1.3418 a 24,24 0 0 0 -2.2832,3.84766 l 3.2012,2.8164 A 20,20 0 0 0 6.25,22.9375 L 2.1602,23.75781 A 24,24 0 0 0 2,26 24,24 0 0 0 2.1602,28.24219 L 6.25,29.0625 a 20,20 0 0 0 1.1426,4.13477 l -3.2012,2.8164 a 24,24 0 0 0 2.2832,3.84766 l 3.9766,-1.3418 a 20,20 0 0 0 3.0293,3.0293 l -1.3418,3.97656 a 24,24 0 0 0 3.8476,2.2832 l 2.8164,-3.20117 A 20,20 0 0 0 22.9375,45.75 l 0.8203,4.08984 A 24,24 0 0 0 26,50 24,24 0 0 0 28.2422,49.83984 L 29.0625,45.75 a 20,20 0 0 0 4.1348,-1.14258 l 2.8164,3.20117 a 24,24 0 0 0 3.8476,-2.2832 l -1.3418,-3.97656 a 20,20 0 0 0 3.0293,-3.0293 l 3.9766,1.3418 a 24,24 0 0 0 2.2832,-3.84766 l -3.2012,-2.8164 A 20,20 0 0 0 45.75,29.0625 l 4.0898,-0.82031 A 24,24 0 0 0 50,26 24,24 0 0 0 49.8945,23.76953 l -4.1328,-0.83008 a 20,20 0 0 0 -1.1191,-4.16601 l 3.164,-2.78516 a 24,24 0 0 0 -2.2343,-3.86523 l -3.9883,1.3457 A 20,20 0 0 0 38.5312,10.41602 L 39.8769,6.42773 A 24,24 0 0 0 36.0117,4.19336 L 33.2266,7.35742 A 20,20 0 0 0 29.0606,6.23828 L 28.2305,2.10547 A 24,24 0 0 0 26,2 Z m 0,8 A 16,16 0 0 1 42,26 16,16 0 0 1 26,42 16,16 0 0 1 10,26 16,16 0 0 1 26,10 Z m 0,1 A 15,15 0 0 0 11,26 15,15 0 0 0 26,41 15,15 0 0 0 41,26 15,15 0 0 0 26,11 Z m 0,11 a 4,4 0 0 1 4,4 4,4 0 0 1 -4,4 4,4 0 0 1 -4,-4 4,4 0 0 1 4,-4 z" />
  <path
     id="path3379-4-0"
     style="fill:url(#radialGradient28208-7-9);fill-opacity:1;stroke:none;stroke-width:2;stroke-linecap:round;stroke-opacity:0;-inkscape-stroke:none;paint-order:stroke fill markers;stop-color:#000000"
     d="M 26,50 A 24,24 0 0 1 23.7578,49.83984 L 22.9375,45.75 a 20,20 0 0 1 -4.1348,-1.14258 l -2.8164,3.20117 a 24,24 0 0 1 -3.8476,-2.2832 l 1.3418,-3.97656 a 20,20 0 0 1 -3.0293,-3.0293 l -3.9766,1.3418 A 24,24 0 0 1 4.1914,36.01367 l 3.2012,-2.8164 A 20,20 0 0 1 6.25,29.0625 L 2.1602,28.24219 A 24,24 0 0 1 2,26 24,24 0 0 1 2.1602,23.75781 L 6.25,22.9375 a 20,20 0 0 1 1.1426,-4.13477 l -3.2012,-2.8164 a 24,24 0 0 1 2.2832,-3.84766 l 3.9766,1.3418 a 20,20 0 0 1 3.0293,-3.0293 L 12.1387,6.47461 a 24,24 0 0 1 3.8476,-2.2832 l 2.8164,3.20117 A 20,20 0 0 1 22.9375,6.25 L 23.7578,2.16016 A 24,24 0 0 1 26,2 24,24 0 0 1 28.2422,2.16016 L 29.0625,6.25 a 20,20 0 0 1 4.1348,1.14258 l 2.8164,-3.20117 a 24,24 0 0 1 3.8476,2.2832 l -1.3418,3.97656 a 20,20 0 0 1 3.0293,3.0293 l 3.9766,-1.3418 a 24,24 0 0 1 2.2832,3.84766 l -3.2012,2.8164 A 20,20 0 0 1 45.75,22.9375 l 4.0898,0.82031 A 24,24 0 0 1 50,26 24,24 0 0 1 49.8945,28.23047 l -4.1328,0.83008 a 20,20 0 0 1 -1.1191,4.16601 l 3.164,2.78516 a 24,24 0 0 1 -2.2343,3.86523 l -3.9883,-1.3457 a 20,20 0 0 1 -3.0528,3.05273 l 1.3457,3.98829 a 24,24 0 0 1 -3.8652,2.23437 l -2.7851,-3.16406 a 20,20 0 0 1 -4.166,1.11914 l -0.8301,4.13281 A 24,24 0 0 1 26,50 Z m 0,-8 A 16,16 0 0 0 42,26 16,16 0 0 0 26,10 16,16 0 0 0 10,26 16,16 0 0 0 26,42 Z m 0,-1 A 15,15 0 0 1 11,26 15,15 0 0 1 26,11 15,15 0 0 1 41,26 15,15 0 0 1 26,41 Z m 0,-11 a 4,4 0 0 0 4,-4 4,4 0 0 0 -4,-4 4,4 0 0 0 -4,4 4,4 0 0 0 4,4 z" />
  <path
     id="path3379-4-0-1"
     style="fill:url(#radialGradient28208-7-9-9);fill-opacity:1;stroke:none;stroke-width:2;stroke-linecap:round;stroke-opacity:0;-inkscape-stroke:none;paint-order:stroke fill markers;stop-color:#000000"
     d="M 26,2 A 24,24 0 0 0 23.7578,2.16016 L 22.9375,6.25 A 20,20 0 0 0 18.8027,7.39258 L 15.9863,4.19141 a 24,24 0 0 0 -3.8476,2.2832 l 1.3418,3.97656 a 20,20 0 0 0 -3.0293,3.0293 l -3.9766,-1.3418 a 24,24 0 0 0 -2.2832,3.84766 l 3.2012,2.8164 A 20,20 0 0 0 6.25,22.9375 L 2.1602,23.75781 A 24,24 0 0 0 2,26 24,24 0 0 0 2.1602,28.24219 L 6.25,29.0625 a 20,20 0 0 0 1.1426,4.13477 l -3.2012,2.8164 a 24,24 0 0 0 2.2832,3.84766 l 3.9766,-1.3418 a 20,20 0 0 0 3.0293,3.0293 l -1.3418,3.97656 a 24,24 0 0 0 3.8476,2.2832 l 2.8164,-3.20117 A 20,20 0 0 0 22.9375,45.75 l 0.8203,4.08984 A 24,24 0 0 0 26,50 24,24 0 0 0 28.2422,49.83984 L 29.0625,45.75 a 20,20 0 0 0 4.1348,-1.14258 l 2.8164,3.20117 a 24,24 0 0 0 3.8476,-2.2832 l -1.3418,-3.97656 a 20,20 0 0 0 3.0293,-3.0293 l 3.9766,1.3418 a 24,24 0 0 0 2.2832,-3.84766 l -3.2012,-2.8164 A 20,20 0 0 0 45.75,29.0625 l 4.0898,-0.82031 A 24,24 0 0 0 50,26 24,24 0 0 0 49.8945,23.76953 l -4.1328,-0.83008 a 20,20 0 0 0 -1.1191,-4.16601 l 3.164,-2.78516 a 24,24 0 0 0 -2.2343,-3.86523 l -3.9883,1.3457 A 20,20 0 0 0 38.5312,10.41602 L 39.8769,6.42773 A 24,24 0 0 0 36.0117,4.19336 L 33.2266,7.35742 A 20,20 0 0 0 29.0606,6.23828 L 28.2305,2.10547 A 24,24 0 0 0 26,2 Z m 0,8 A 16,16 0 0 1 42,26 16,16 0 0 1 26,42 16,16 0 0 1 10,26 16,16 0 0 1 26,10 Z m 0,1 A 15,15 0 0 0 11,26 15,15 0 0 0 26,41 15,15 0 0 0 41,26 15,15 0 0 0 26,11 Z m 0,11 a 4,4 0 0 1 4,4 4,4 0 0 1 -4,4 4,4 0 0 1 -4,-4 4,4 0 0 1 4,-4 z" />
  <path
     id="path3379-2-0"
     style="opacity:0.2;fill:url(#linearGradient215554);fill-opacity:1;stroke:none;stroke-width:2;stroke-linecap:round;stroke-opacity:0;-inkscape-stroke:none;paint-order:stroke fill markers;stop-color:#000000"
     d="M 26,2 A 24,24 0 0 0 23.7578,2.16016 L 22.9375,6.25 A 20,20 0 0 0 18.8027,7.39258 L 15.9863,4.19141 a 24,24 0 0 0 -3.8476,2.2832 l 1.3418,3.97656 a 20,20 0 0 0 -3.0293,3.0293 l -3.9766,-1.3418 a 24,24 0 0 0 -2.2832,3.84766 l 3.2012,2.8164 A 20,20 0 0 0 6.25,22.9375 L 2.1602,23.75781 A 24,24 0 0 0 2,26 24,24 0 0 0 2.1602,28.24219 L 6.25,29.0625 a 20,20 0 0 0 1.1426,4.13477 l -3.2012,2.8164 a 24,24 0 0 0 2.2832,3.84766 l 3.9766,-1.3418 a 20,20 0 0 0 3.0293,3.0293 l -1.3418,3.97656 a 24,24 0 0 0 3.8476,2.2832 l 2.8164,-3.20117 A 20,20 0 0 0 22.9375,45.75 l 0.8203,4.08984 A 24,24 0 0 0 26,50 24,24 0 0 0 28.2422,49.83984 L 29.0625,45.75 a 20,20 0 0 0 4.1348,-1.14258 l 2.8164,3.20117 a 24,24 0 0 0 3.8476,-2.2832 l -1.3418,-3.97656 a 20,20 0 0 0 3.0293,-3.0293 l 3.9766,1.3418 a 24,24 0 0 0 2.2832,-3.84766 l -3.2012,-2.8164 A 20,20 0 0 0 45.75,29.0625 l 4.0898,-0.82031 A 24,24 0 0 0 50,26 24,24 0 0 0 49.8945,23.76953 l -4.1328,-0.83008 a 20,20 0 0 0 -1.1191,-4.16601 l 3.164,-2.78516 a 24,24 0 0 0 -2.2343,-3.86523 l -3.9883,1.3457 A 20,20 0 0 0 38.5312,10.41602 L 39.8769,6.42773 A 24,24 0 0 0 36.0117,4.19336 L 33.2266,7.35742 A 20,20 0 0 0 29.0606,6.23828 L 28.2305,2.10547 A 24,24 0 0 0 26,2 Z m 0,8 A 16,16 0 0 1 42,26 16,16 0 0 1 26,42 16,16 0 0 1 10,26 16,16 0 0 1 26,10 Z m 0,1 A 15,15 0 0 0 11,26 15,15 0 0 0 26,41 15,15 0 0 0 41,26 15,15 0 0 0 26,11 Z m 0,11 a 4,4 0 0 1 4,4 4,4 0 0 1 -4,4 4,4 0 0 1 -4,-4 4,4 0 0 1 4,-4 z" />
</svg>
