<svg xmlns="http://www.w3.org/2000/svg" viewBox="0 0 16 16">
  <defs id="defs3051">
    <style type="text/css" id="current-color-scheme">
      .ColorScheme-Text {
        color:#f2f2f2;
      }
      .ColorScheme-NeutralText {
        color:#f67400;
      }
      </style>
  </defs>
  <g      transform="translate(0,-1036.3622)">
 <path style="fill:currentColor;fill-opacity:1;stroke:none" 
     d="M 7.988281,1036.3622 3,1040.3583 l 0,1.0039 0,7 0,0 4.988281,3.9961 0.011719,0 1,0 0,-0.4707 0,-15.0586 0,-0.4707 -1,0 -0.011719,0 z M 8,1037.6337 l 0,13.457 -4,-3.2051 0,-7.0468 4,-3.2051 z m -8,3.7285 0,6 2,0 0,-6 -2,0 z"
     class="ColorScheme-Text"
     /> 
 <path
      d="m 15,1044.3622 a 2.0000048,2.0000048 0 0 1 -2.000005,2 2.0000048,2.0000048 0 0 1 -2.000005,-2 2.0000048,2.0000048 0 0 1 2.000005,-2 2.0000048,2.0000048 0 0 1 2.000005,2 z"
        style="fill:currentColor;fill-opacity:1;stroke:none" 
     class="ColorScheme-NeutralText"
    />
 </g>
</svg>
