<?xml version="1.0" encoding="UTF-8" standalone="no"?>
<!-- Created with Inkscape (http://www.inkscape.org/) -->

<svg
   xmlns:dc="http://purl.org/dc/elements/1.1/"
   xmlns:cc="http://creativecommons.org/ns#"
   xmlns:rdf="http://www.w3.org/1999/02/22-rdf-syntax-ns#"
   xmlns:svg="http://www.w3.org/2000/svg"
   xmlns="http://www.w3.org/2000/svg"
   xmlns:sodipodi="http://sodipodi.sourceforge.net/DTD/sodipodi-0.dtd"
   xmlns:inkscape="http://www.inkscape.org/namespaces/inkscape"
   width="16"
   height="16"
   id="svg3049"
   version="1.1"
   inkscape:version="0.91 r13725"
   sodipodi:docname="im-user-offline.svg"
   inkscape:export-filename="/home/uri/.kde/share/icons/NITRUX-KDE/16x16/actions/view-right-new.png"
   inkscape:export-xdpi="30"
   inkscape:export-ydpi="30"
   viewBox="0 0 16 16">
  <defs
     id="defs3051">
    <clipPath
       id="clipPath4160"
       clipPathUnits="userSpaceOnUse">
      <rect
         y="1023.3622"
         x="7"
         height="1"
         width="1"
         id="rect4162"
         style="opacity:1;fill:#4d4d4d;fill-opacity:1;stroke:none;stroke-opacity:1" />
    </clipPath>
    <clipPath
       clipPathUnits="userSpaceOnUse"
       id="clipPath4160-6">
      <rect
         style="opacity:1;fill:#4d4d4d;fill-opacity:1;stroke:none;stroke-opacity:1"
         id="rect4162-7"
         width="1"
         height="1"
         x="7"
         y="1023.3622" />
    </clipPath>
  </defs>
  <sodipodi:namedview
     id="base"
     pagecolor="#ffffff"
     bordercolor="#666666"
     borderopacity="1.0"
     inkscape:pageopacity="0.0"
     inkscape:pageshadow="2"
     inkscape:zoom="97.645224"
     inkscape:cx="6.5639509"
     inkscape:cy="10.533352"
     inkscape:document-units="px"
     inkscape:current-layer="layer1"
     showgrid="true"
     fit-margin-top="0"
     fit-margin-left="0"
     fit-margin-right="0"
     fit-margin-bottom="0"
     inkscape:window-width="1920"
     inkscape:window-height="1008"
     inkscape:window-x="-4"
     inkscape:window-y="0"
     inkscape:window-maximized="1"
     inkscape:showpageshadow="false"
     borderlayer="true"
     inkscape:snap-bbox="true"
     inkscape:snap-global="true">
    <inkscape:grid
       type="xygrid"
       id="grid4085" />
    <sodipodi:guide
       position="2.0000044,14.00003"
       orientation="12,0"
       id="guide4075" />
    <sodipodi:guide
       position="2.0000044,2.0000296"
       orientation="0,12"
       id="guide4077" />
    <sodipodi:guide
       position="14.000004,2.0000296"
       orientation="-12,0"
       id="guide4079" />
    <sodipodi:guide
       position="14.000004,14.00003"
       orientation="0,-12"
       id="guide4081" />
  </sodipodi:namedview>
  <metadata
     id="metadata3054">
    <rdf:RDF>
      <cc:Work
         rdf:about="">
        <dc:format>image/svg+xml</dc:format>
        <dc:type
           rdf:resource="http://purl.org/dc/dcmitype/StillImage" />
        <dc:title />
      </cc:Work>
    </rdf:RDF>
  </metadata>
  <g
     inkscape:label="Capa 1"
     inkscape:groupmode="layer"
     id="layer1"
     transform="translate(-421.71429,-531.79074)">
    <path
       style="opacity:1;fill:#bdc3c7;fill-opacity:1;stroke:none;stroke-opacity:1"
       d="M 8 2 C 6.34315 2 5 3.34315 5 5 C 5 6.65685 6.34315 8 8 8 C 9.65685 8 11 6.65685 11 5 C 11 3.34315 9.65685 2 8 2 z M 6 4.5 L 10 4.5 L 10 5.5 L 6 5.5 L 6 4.5 z M 8 9 C 5.23858 9 3 11.01472 3 13.5 C 3.00074 13.66709 3.0118031 13.83402 3.0332031 14 L 4 14 L 4.0449219 14 L 11.955078 14 L 12 14 L 12.962891 14 C 12.985591 13.83408 12.998 13.66716 13 13.5 C 13 11.01472 10.76142 9 8 9 z M 8 10 C 9.98692 10.002 11.671238 11.27928 11.955078 13 L 4.0449219 13 C 4.3287619 11.27928 6.01308 10.00169 8 10 z "
       transform="translate(421.71429,531.79074)"
       id="path16" />
    <rect
       style="fill:#ffffff;fill-opacity:1;stroke:none;stroke-linecap:butt;stroke-linejoin:round"
       id="rect4143"
       width="4"
       height="1"
       x="427.71429"
       y="536.29071" />
  </g>
</svg>
