<svg xmlns="http://www.w3.org/2000/svg" viewBox="0 0 16 16">
  <defs id="defs3051">
    <style type="text/css" id="current-color-scheme">
      .ColorScheme-Text {
        color:#f2f2f2
      }
      </style>
  </defs>
 <path style="fill:currentColor;fill-opacity:1;stroke:none" 
     d="M 1 2 L 1 8 L 2 8 L 2 3.7070312 C 2 3.7070312 8.0131 9.6833313 8 9.7070312 L 9.3574219 8.3496094 L 13.34375 13 L 7 13 L 7 14 L 15 14 L 15 2 L 1 2 z M 2.7070312 3 L 13.292969 3 L 8 8.2929688 L 2.7070312 3 z M 14 3.7070312 L 14 12.230469 L 10.066406 7.640625 L 14 3.7070312 z M 4 8 L 1 11 L 4 14 L 4 12 L 7 12 L 7 10 L 4 10 L 4 8 z "
     class="ColorScheme-Text"
     />
</svg>
