<svg xmlns="http://www.w3.org/2000/svg" viewBox="0 0 16 16">
  <defs id="defs3051">
    <style type="text/css" id="current-color-scheme">
      .ColorScheme-Text {
        color:#f2f2f2;
      }
      .ColorScheme-PositiveText {
        color:#27ae60;
      }
      </style>
  </defs>
  <path style="fill:currentColor;fill-opacity:1;stroke:none" 
     d="M 8 5 C 6.892 5 6 5.892 6 7 L 6 10 C 6 11.108 6.892 12 8 12 C 9.108 12 10 11.108 10 10 L 10 7 C 10 5.892 9.108 5 8 5 z M 4 9 L 4 10 C 4 11.847 5.286 13.405469 7 13.855469 L 7 15 L 6 15 L 6 16 L 10 16 L 10 15 L 9 15 L 9 13.855469 C 10.714 13.404469 12 11.845 12 10 L 12 9 L 11 9 L 11 10 C 11 11.645 9.645 13 8 13 C 6.355 13 5 11.645 5 10 L 5 9 L 4 9 z "
     class="ColorScheme-Text"
     />
  <path
      style="fill:currentColor;fill-opacity:1;stroke:none" 
     class="ColorScheme-PositiveText"
    d="M 7.9980469 0 A 9.1292385 12.00002 0 0 0 3 1.9707031 L 3.4804688 2.7421875 A 8.36847 11.00002 0 0 1 7.9980469 1 A 8.36847 11.00002 0 0 1 12.509766 2.75 L 13 1.9667969 A 9.1292385 12.00002 0 0 0 7.9980469 0 z M 8.0019531 3 A 6.8469285 9.00001 0 0 0 4.4609375 4.3105469 L 4.9472656 5.0917969 A 6.0861592 8.00001 0 0 1 8.0019531 4 A 6.0861592 8.00001 0 0 1 11.058594 5.0898438 L 11.544922 4.3085938 A 6.8469285 9.00001 0 0 0 8.0019531 3 z "/>
</svg>
