<svg xmlns="http://www.w3.org/2000/svg" viewBox="0 0 16 16">
  <g inkscape:label="Capa 1" inkscape:groupmode="layer" id="layer1" transform="translate(-421.71429,-531.79074)">
    <path style="opacity:1;fill:#da4453;fill-opacity:1;stroke:none;stroke-width:0.1;stroke-linecap:round;stroke-miterlimit:4;stroke-dasharray:none;stroke-opacity:1" d="M 8 2 A 6 5.9999852 0 0 0 4.5273438 3.1132812 L 5.2460938 3.8320312 A 5 5 0 0 1 8 3 A 5 5 0 0 1 13 8 A 5 5 0 0 1 12.167969 10.753906 L 12.884766 11.470703 A 6 5.9999852 0 0 0 14 8 A 6 5.9999852 0 0 0 8 2 z M 3.1152344 4.5292969 A 6 5.9999852 0 0 0 2 8 A 6 5.9999852 0 0 0 8 14 A 6 5.9999852 0 0 0 11.472656 12.886719 L 10.753906 12.167969 A 5 5 0 0 1 8 13 A 5 5 0 0 1 3 8 A 5 5 0 0 1 3.8320312 5.2460938 L 3.1152344 4.5292969 z " transform="translate(421.71429,531.79074)" id="path4473"/>
    <rect style="opacity:1;fill:#da4453;fill-opacity:1;stroke:none;stroke-width:0.1;stroke-linecap:round;stroke-miterlimit:4;stroke-dasharray:none;stroke-opacity:1" id="rect4509" width="6.000001" height="1.9999901" x="426.71429" y="538.79071"/>
  </g>
</svg>
