<svg xmlns="http://www.w3.org/2000/svg" viewBox="0 0 16 16">
  <g inkscape:label="Capa 1" inkscape:groupmode="layer" id="layer1" transform="translate(-421.71429,-531.79074)">
    <circle style="opacity:1;fill:#ffffff;fill-opacity:1;stroke:none" id="path4139" cx="429.71429" cy="539.79071" r="4"/>
    <path style="opacity:1;fill:#da4453;fill-opacity:1;stroke:none" d="m 429.71429,533.79074 a 6,6 0 0 0 -6,6 6,6 0 0 0 6,6 6,6 0 0 0 6,-6 6,6 0 0 0 -6,-6 z m -2.29297,3 2.29297,2.29297 2.29297,-2.29297 0.70703,0.70703 -2.29297,2.29297 2.29297,2.29297 -0.70703,0.70703 -2.29297,-2.29297 -2.29297,2.29297 -0.70703,-0.70703 2.29297,-2.29297 -2.29297,-2.29297 0.70703,-0.70703 z" id="path4142" inkscape:connector-curvature="0"/>
  </g>
</svg>
