<?xml version="1.0" encoding="UTF-8" standalone="no"?>
<!-- Created with Inkscape (http://www.inkscape.org/) -->

<svg
   xmlns:dc="http://purl.org/dc/elements/1.1/"
   xmlns:cc="http://creativecommons.org/ns#"
   xmlns:rdf="http://www.w3.org/1999/02/22-rdf-syntax-ns#"
   xmlns:svg="http://www.w3.org/2000/svg"
   xmlns="http://www.w3.org/2000/svg"
   xmlns:sodipodi="http://sodipodi.sourceforge.net/DTD/sodipodi-0.dtd"
   xmlns:inkscape="http://www.inkscape.org/namespaces/inkscape"
   width="16"
   height="16"
   id="svg2"
   version="1.1"
   inkscape:version="0.91 r13725"
   viewBox="0 0 16 16"
   sodipodi:docname="folder-cloud.svg">
  <defs
     id="defs4" />
  <sodipodi:namedview
     id="base"
     pagecolor="#ffffff"
     bordercolor="#666666"
     borderopacity="1.0"
     inkscape:pageopacity="0.0"
     inkscape:pageshadow="2"
     inkscape:zoom="31.678384"
     inkscape:cx="11.121039"
     inkscape:cy="6.6040317"
     inkscape:document-units="px"
     inkscape:current-layer="layer1"
     showgrid="true"
     inkscape:showpageshadow="false"
     borderlayer="true"
     units="px"
     inkscape:window-width="1920"
     inkscape:window-height="1008"
     inkscape:window-x="-4"
     inkscape:window-y="0"
     inkscape:window-maximized="1"
     inkscape:snap-global="true"
     inkscape:snap-bbox="true">
    <inkscape:grid
       type="xygrid"
       id="grid4062" />
    <sodipodi:guide
       position="2,14.000017"
       orientation="12,0"
       id="guide4066" />
    <sodipodi:guide
       position="2,2.0000174"
       orientation="0,12"
       id="guide4068" />
    <sodipodi:guide
       position="14,2.0000174"
       orientation="-12,0"
       id="guide4070" />
    <sodipodi:guide
       position="14,14.000017"
       orientation="0,-12"
       id="guide4072" />
  </sodipodi:namedview>
  <metadata
     id="metadata7">
    <rdf:RDF>
      <cc:Work
         rdf:about="">
        <dc:format>image/svg+xml</dc:format>
        <dc:type
           rdf:resource="http://purl.org/dc/dcmitype/StillImage" />
        <dc:title></dc:title>
      </cc:Work>
    </rdf:RDF>
  </metadata>
  <g
     inkscape:label="Capa 1"
     inkscape:groupmode="layer"
     id="layer1"
     transform="translate(0,-1036.3622)">
    <path
       style="fill:#f2f2f2;fill-opacity:1;stroke:none;stroke-linecap:butt;stroke-linejoin:round"
       d="M 7.5 2 A 4.5 4.5 0 0 0 3 6.5 A 4.5 4.5 0 0 0 3.0527344 7.15625 A 3 3 0 0 0 1 10 A 3 3 0 0 0 4 13 L 11.5 13 A 3.5 3.5 0 0 0 15 9.5 A 3.5 3.5 0 0 0 11.970703 6.0351562 A 4.5 4.5 0 0 0 7.5 2 z M 7.5 3 A 3.5 3.5 0 0 1 11 6.5 A 3.5 3.5 0 0 1 10.949219 7.0644531 A 2.5 2.5 0 0 1 11.5 7 A 2.5 2.5 0 0 1 14 9.5 A 2.5 2.5 0 0 1 11.5 12 L 4 12 A 2 2 0 0 1 2 10 A 2 2 0 0 1 4 8 A 2 2 0 0 1 4.3574219 8.0332031 A 3.5 3.5 0 0 1 4 6.5 A 3.5 3.5 0 0 1 7.5 3 z "
       transform="translate(0,1036.3622)"
       id="path4139" />
  </g>
</svg>
