<svg xmlns="http://www.w3.org/2000/svg" viewBox="0 0 16 16">
  <defs id="defs3051">
    <style type="text/css" id="current-color-scheme">
      .ColorScheme-Text {
        color:#eff0f1;
      }
      </style>
  </defs>
    <path 
        style="fill:currentColor"
        d="M 8 2 C 4.7 2 2 4.7 2 8 C 2 11.3 4.7 14 8 14 C 11.3 14 14 11.3 14 8 C 14 4.7 11.3 2 8 2 z M 8 3 C 11 3 13 5 13 8 C 13 11 11 13 8 13 C 5 13 3 11 3 8 C 3 5 5 3 8 3 z M 9.5 5 A 1 1 0 0 0 8.5 6 A 1 1 0 0 0 9.5 7 A 1 1 0 0 0 10.5 6 A 1 1 0 0 0 9.5 5 z M 7.5 6.5 A 0.5 0.5 0 0 0 7 7 A 0.5 0.5 0 0 0 7.5 7.5 A 0.5 0.5 0 0 0 8 7 A 0.5 0.5 0 0 0 7.5 6.5 z M 5.5 7 A 1 1 0 0 0 4.5 8 A 1 1 0 0 0 5.5 9 A 1 1 0 0 0 6.5 8 A 1 1 0 0 0 5.5 7 z M 7.5 8.5 A 0.5 0.5 0 0 0 7 9 A 0.5 0.5 0 0 0 7.5 9.5 A 0.5 0.5 0 0 0 8 9 A 0.5 0.5 0 0 0 7.5 8.5 z M 9.5 9 A 1 1 0 0 0 8.5 10 A 1 1 0 0 0 9.5 11 A 1 1 0 0 0 10.5 10 A 1 1 0 0 0 9.5 9 z " 
        class="ColorScheme-Text"/>
</svg>
