<?xml version="1.0" encoding="UTF-8" standalone="no"?>
<!-- Created with Inkscape (http://www.inkscape.org/) -->

<svg
   width="64"
   height="64"
   version="1.1"
   id="svg1067"
   sodipodi:docname="smartphone.svg"
   inkscape:version="1.3 (0e150ed6c4, 2023-07-21)"
   xmlns:inkscape="http://www.inkscape.org/namespaces/inkscape"
   xmlns:sodipodi="http://sodipodi.sourceforge.net/DTD/sodipodi-0.dtd"
   xmlns="http://www.w3.org/2000/svg"
   xmlns:svg="http://www.w3.org/2000/svg">
  <sodipodi:namedview
     id="namedview2554"
     pagecolor="#ffffff"
     bordercolor="#666666"
     borderopacity="1.0"
     inkscape:showpageshadow="2"
     inkscape:pageopacity="0.0"
     inkscape:pagecheckerboard="0"
     inkscape:deskcolor="#d1d1d1"
     showgrid="true"
     inkscape:lockguides="true"
     inkscape:zoom="11.313709"
     inkscape:cx="19.180271"
     inkscape:cy="28.505242"
     inkscape:window-width="1920"
     inkscape:window-height="1006"
     inkscape:window-x="0"
     inkscape:window-y="0"
     inkscape:window-maximized="1"
     inkscape:current-layer="svg1067">
    <inkscape:grid
       type="xygrid"
       id="grid1460"
       originx="0"
       originy="0"
       spacingy="1"
       spacingx="1"
       units="px"
       visible="true" />
  </sodipodi:namedview>
  <defs
     id="defs1043">
    <linearGradient
       id="linearGradient2554"
       x1="31.756"
       x2="30.031"
       y1="44.109"
       y2="25.774"
       gradientTransform="matrix(4.0862992,0,0,4.0000661,-113.09527,-117.74537)"
       gradientUnits="userSpaceOnUse">
      <stop
         stop-color="#242424"
         offset="0"
         id="stop1038" />
      <stop
         stop-color="#878787"
         offset="1"
         id="stop1040" />
    </linearGradient>
  </defs>
  <path
     d="m 21.371142,5.986669 h 21.257716 c 1.823338,0 3.291113,1.4369012 3.291113,3.2216602 V 54.094895 c 0,1.78486 -1.467878,3.221661 -3.291113,3.221661 H 21.371142 c -1.823338,0 -3.291113,-1.436903 -3.291113,-3.221661 V 9.2083292 c 0,-1.784759 1.467878,-3.2216602 3.291113,-3.2216602 z"
     fill="url(#linearGradient2554)"
     stroke="#050505"
     stroke-linecap="round"
     stroke-linejoin="round"
     style="fill:url(#linearGradient2554);stroke:none;stroke-width:0;stroke-dasharray:none;paint-order:stroke fill markers"
     id="path1045" />
  <path
     d="m 25.481693,49.245736 a 1.956417,1.956417 0 0 1 -1.949942,1.956416 1.956417,1.956417 0 0 1 -1.962891,-1.943365 1.956417,1.956417 0 0 1 1.936891,-1.969365 1.956417,1.956417 0 0 1 1.975736,1.930315"
     fill="#aa5cf9"
     style="stroke:none;stroke-width:1.02763;paint-order:stroke fill markers"
     id="path1049" />
  <path
     d="m 31.267294,49.245736 a 1.956417,1.956417 0 0 1 -1.949943,1.956416 1.956417,1.956417 0 0 1 -1.962891,-1.943365 1.956417,1.956417 0 0 1 1.936893,-1.969365 1.956417,1.956417 0 0 1 1.975838,1.930315"
     fill="#34b9ff"
     style="stroke:none;stroke-width:1.02763;paint-order:stroke fill markers"
     id="path1051" />
  <path
     d="m 37.042618,49.214906 a 1.956417,1.956417 0 0 1 -1.949941,1.956417 1.956417,1.956417 0 0 1 -1.962893,-1.943468 1.956417,1.956417 0 0 1 1.936893,-1.969365 1.956417,1.956417 0 0 1 1.975736,1.930315"
     fill="#1edd6e"
     style="stroke:none;stroke-width:1.02763;paint-order:stroke fill markers"
     id="path1053" />
  <path
     d="m 42.817944,49.389605 a 1.956417,1.956417 0 0 1 -1.949943,1.956417 1.956417,1.956417 0 0 1 -1.96289,-1.943367 1.956417,1.956417 0 0 1 1.936891,-1.969364 1.956417,1.956417 0 0 1 1.975736,1.930315"
     fill="#ffb446"
     style="stroke:none;stroke-width:1.02763;paint-order:stroke fill markers"
     id="path1055" />
  <path
     d="m 41,8.9996377 a 0.88683089,0.88683089 0 0 1 -0.883873,0.8868204 0.88683089,0.88683089 0 0 1 -0.88976,-0.8809213 0.88683089,0.88683089 0 0 1 0.877952,-0.8926885 0.88683089,0.88683089 0 0 1 0.895597,0.8749826"
     fill="#dadada"
     style="display:inline;opacity:1;stroke:none;stroke-width:1.02763;paint-order:stroke fill markers"
     id="path1057" />
  <path
     d="M 22.438596,9.9732091 A 1.0811777,1.0811777 0 0 1 21.361014,11.054387 1.0811777,1.0811777 0 0 1 20.27624,9.980403 1.0811777,1.0811777 0 0 1 21.346627,8.8921343 1.0811777,1.0811777 0 0 1 22.438493,9.9588221"
     style="stroke:none;stroke-width:1.02763;paint-order:stroke fill markers"
     id="path1061" />
  <path
     d="m 21.368089,6.568077 h 21.263822 c 1.823863,0 3.29206,1.4207375 3.29206,3.1854198 V 54.135135 c 0,1.764782 -1.468301,3.185421 -3.29206,3.185421 H 21.368089 c -1.823863,0 -3.29206,-1.420738 -3.29206,-3.185421 V 9.7534968 c 0,-1.7646823 1.468301,-3.1854198 3.29206,-3.1854198 z"
     stroke="#050505"
     style="fill:none;stroke:#000000;stroke-width:1.16282;stroke-opacity:1"
     id="path1188"
     inkscape:label="path1188" />
  <path
     d="m 25.269608,49.666581 a 2.0200726,2.0200726 0 0 1 -2.013387,2.020072 2.0200726,2.0200726 0 0 1 -2.026758,-2.006597 2.0200726,2.0200726 0 0 1 1.999912,-2.033441 2.0200726,2.0200726 0 0 1 2.04002,1.993121"
     fill="#aa5cf9"
     style="fill:none;stroke-width:1.37939;stroke-dasharray:none;paint-order:stroke fill markers"
     id="path1192" />
  <path
     d="m 31.243454,49.666581 a 2.0200726,2.0200726 0 0 1 -2.013388,2.020072 2.0200726,2.0200726 0 0 1 -2.026757,-2.006597 2.0200726,2.0200726 0 0 1 1.999913,-2.033441 2.0200726,2.0200726 0 0 1 2.040126,1.993121"
     fill="#34b9ff"
     style="fill:none;stroke-width:1.37939;stroke-dasharray:none;paint-order:stroke fill markers"
     id="path1194" />
  <path
     d="m 37.206689,49.634748 a 2.0200726,2.0200726 0 0 1 -2.013386,2.020073 2.0200726,2.0200726 0 0 1 -2.026759,-2.006703 2.0200726,2.0200726 0 0 1 1.999913,-2.033442 2.0200726,2.0200726 0 0 1 2.04002,1.993121"
     fill="#1edd6e"
     style="fill:none;stroke-width:1.37939;stroke-dasharray:none;paint-order:stroke fill markers"
     id="path1196" />
  <path
     d="m 43.169926,49.815131 a 2.0200726,2.0200726 0 0 1 -2.013388,2.020073 2.0200726,2.0200726 0 0 1 -2.026757,-2.006598 2.0200726,2.0200726 0 0 1 1.999911,-2.033441 2.0200726,2.0200726 0 0 1 2.040021,1.993121"
     fill="#ffb446"
     style="fill:none;stroke-width:1.37939;stroke-dasharray:none;paint-order:stroke fill markers"
     id="path1198" />
  <path
     id="path1190"
     d="m 27.066536,54.41109 a 0.46243702,0.46243702 0 0 0 -0.461635,0.461635 0.46243702,0.46243702 0 0 0 0.461635,0.463642 h 9.866928 a 0.46243702,0.46243702 0 0 0 0.463641,-0.463642 0.46243702,0.46243702 0 0 0 -0.463641,-0.461635 z"
     style="fill:#a5a5a5;fill-opacity:1;stroke:#ffffff;stroke-width:0;stroke-dasharray:none;stroke-opacity:1"
     inkscape:label="path1190" />
  <path
     d="m 43.458515,8.9996377 a 0.88683089,0.88683089 0 0 1 -0.883873,0.8868204 0.88683089,0.88683089 0 0 1 -0.88976,-0.8809213 0.88683089,0.88683089 0 0 1 0.877952,-0.8926885 0.88683089,0.88683089 0 0 1 0.895597,0.8749826"
     fill="#dadada"
     style="display:inline;opacity:1;stroke:none;stroke-width:1.02763;paint-order:stroke fill markers"
     id="path1" />
</svg>
