<svg height="32" viewBox="0 0 32.000001 32.000001" width="32" xmlns="http://www.w3.org/2000/svg" xmlns:xlink="http://www.w3.org/1999/xlink"><linearGradient id="a" gradientUnits="userSpaceOnUse" x1="2" x2="2" y1="29.999999" y2="2"><stop offset="0" stop-color="#be1111"/><stop offset="1" stop-color="#e74c3c"/></linearGradient><linearGradient id="b" gradientUnits="userSpaceOnUse" x1="6" x2="32" y1="9" y2="35"><stop offset="0" stop-color="#fcfcfc"/><stop offset="1" stop-color="#e74c3c"/></linearGradient><linearGradient id="c" gradientUnits="userSpaceOnUse" x1="13" x2="27.000001" y1="16" y2="30"><stop offset="0"/><stop offset="1" stop-opacity="0"/></linearGradient><rect fill="url(#a)" height="28" ry="4" stroke-linejoin="round" stroke-width="1.4359" width="28" x="2" y="2"/><path d="m13 23 7 7h10v-10l-4-4-4 2-2-2z" fill="url(#c)" opacity=".2"/><path d="m13 9-7 7 7 7 7-7zm6 0-1.5 1.5 5.5 5.5-5.5 5.5 1.5 1.5 7-7z" fill="url(#b)"/><path d="m2 24v1c0 2.77 2.23 5 5 5h18c2.77 0 5-2.23 5-5v-1c0 2.77-2.23 5-5 5h-18c-2.77 0-5-2.23-5-5z" fill="#8e0d0d" stroke-linejoin="round" stroke-width="1.4359"/></svg>