<svg id="svg6" version="1.1" viewBox="0 0 32 32" xmlns="http://www.w3.org/2000/svg">
    <style id="current-color-scheme" type="text/css">.ColorScheme-Text {
        color:#31363b;
      }
      .ColorScheme-Background {
        color:#eff0f1;
      }
      .ColorScheme-Accent {
        color:#3daee9;
      }
      .ColorScheme-ButtonText {
        color:#31363b;
      }</style>
    <g id="kdeconnect" transform="translate(-321,-529.36218)">
        <rect id="rect4436" x="321" y="529.36218" width="32" height="32" fill="none"/>
    </g>
    <g id="g2" transform="translate(-15.80087,-81.009454)">
        <path id="smartphone" class="ColorScheme-Text" d="m26.515714 83.886407c-1.107999 0-2 0.892001-2 2v22.000003c0 1.108 0.892001 2 2 2h10c1.107999 0 2-0.892 2-2v-22.000003c0-1.107999-0.892001-2-2-2h-10zm0 1h10c0.553999 0 1 0.446001 1 1v22.000003c0 0.554-0.446001 1-1 1h-10c-0.554 0-1-0.446-1-1v-22.000003c0-0.553999 0.446-1 1-1zm0.5 1a0.5 0.5 0 0 0-0.5 0.5 0.5 0.5 0 0 0 0.5 0.5 0.5 0.5 0 0 0 0.5-0.5 0.5 0.5 0 0 0-0.5-0.5zm2.988281 5.730469-1.798828 1.796875 3.595703 3.595703-3.595703 3.595706 1.798828 1.79687 3.59375-3.595701 1.798828-1.796875-1.798828-1.796875-0.236328-0.236328-0.234375-0.236328-3.123047-3.123047zm-0.988281 15.269534c-0.277 0-0.5 0.223-0.5 0.5s0.223 0.5 0.5 0.5h5c0.276999 0 0.5-0.223 0.5-0.5s-0.223001-0.5-0.5-0.5h-5z" fill="currentColor"/>
    </g>
</svg>
