<?xml version="1.0" encoding="UTF-8" standalone="no"?>

<!-- Created with Inkscape (http://www.inkscape.org/) -->
<svg width="48" version="1.1" xmlns="http://www.w3.org/2000/svg" height="48" xmlns:xlink="http://www.w3.org/1999/xlink" xmlns:inkscape="http://www.inkscape.org/namespaces/inkscape">
 <defs id="defs5455">
  <linearGradient inkscape:collect="always" id="linearGradient4630">
   <stop style="stop-color:#1e1f21" id="stop4632"/>
   <stop offset="1" style="stop-color:#242628" id="stop4634"/>
  </linearGradient>
  <linearGradient inkscape:collect="always" id="linearGradient4442">
   <stop style="stop-color:#bcb4a1" id="stop4444"/>
   <stop offset="1" style="stop-color:#c5bfad" id="stop4446"/>
  </linearGradient>
  <linearGradient inkscape:collect="always" xlink:href="#linearGradient4159" id="linearGradient4158" y1="543.79797" y2="503.798" x2="0" gradientUnits="userSpaceOnUse" gradientTransform="matrix(1.1250015 0 0 1 -51.07197 0)"/>
  <linearGradient inkscape:collect="always" id="linearGradient4410">
   <stop style="stop-color:#383e51" id="stop4412"/>
   <stop offset="1" style="stop-color:#655c6f;stop-opacity:0" id="stop4414"/>
  </linearGradient>
  <linearGradient inkscape:collect="always" id="linearGradient4159">
   <stop style="stop-color:#2a2c2f" id="stop4161"/>
   <stop offset="1" style="stop-color:#424649" id="stop4163"/>
  </linearGradient>
  <linearGradient inkscape:collect="always" xlink:href="#linearGradient4143" id="linearGradient4315" y1="540.92297" y2="522.54803" x2="0" gradientUnits="userSpaceOnUse" gradientTransform="matrix(1 0 0 1.1428616 0 -77.40209)"/>
  <linearGradient inkscape:collect="always" id="linearGradient4143">
   <stop style="stop-color:#197cf1" id="stop4145"/>
   <stop offset="1" style="stop-color:#05a0eb" id="stop4147"/>
  </linearGradient>
  <linearGradient inkscape:collect="always" xlink:href="#linearGradient4442" id="linearGradient4429" y1="542.79797" y2="533.79797" gradientUnits="userSpaceOnUse" x2="0" gradientTransform="matrix(1 0 0 1 0 -28)"/>
  <linearGradient inkscape:collect="always" xlink:href="#linearGradient4630" id="linearGradient4582" y1="541.79797" y2="529.79797" gradientUnits="userSpaceOnUse" x2="0" gradientTransform="matrix(0.74999994 0 0 0.74999994 98.14289 134.44951)"/>
  <linearGradient inkscape:collect="always" xlink:href="#linearGradient4630" id="linearGradient4586" y1="541.79797" y2="529.79797" gradientUnits="userSpaceOnUse" x2="0" gradientTransform="matrix(0.74999994 0 0 0.74999994 98.14289 122.44951)"/>
  <linearGradient inkscape:collect="always" xlink:href="#linearGradient4630" id="linearGradient4590" y1="541.79797" y2="529.79797" gradientUnits="userSpaceOnUse" x2="0" gradientTransform="matrix(0.74999994 0 0 0.74999994 110.14289 122.44951)"/>
  <linearGradient inkscape:collect="always" xlink:href="#linearGradient4630" id="linearGradient4594" y1="541.79797" y2="529.79797" gradientUnits="userSpaceOnUse" x2="0" gradientTransform="matrix(0.74999994 0 0 0.74999994 110.14289 134.44951)"/>
  <linearGradient inkscape:collect="always" xlink:href="#linearGradient4410" id="linearGradient4649" y1="20" x1="32" y2="30" x2="42" gradientUnits="userSpaceOnUse"/>
  <linearGradient inkscape:collect="always" xlink:href="#linearGradient4410" id="linearGradient4659" y1="531.79797" x1="404.57144" y2="543.79797" x2="416.57144" gradientUnits="userSpaceOnUse" gradientTransform="matrix(1 0 0 1 -384.57143 -499.798)"/>
  <linearGradient inkscape:collect="always" xlink:href="#linearGradient4410" id="linearGradient4666" y1="531.79797" x1="404.57144" y2="543.79797" gradientUnits="userSpaceOnUse" x2="416.57144" gradientTransform="matrix(1 0 0 1 0 -12)"/>
  <linearGradient inkscape:collect="always" xlink:href="#linearGradient4410" id="linearGradient4670" y1="531.79797" x1="404.57144" y2="543.79797" gradientUnits="userSpaceOnUse" x2="416.57144" gradientTransform="matrix(1 0 0 1 -12 -12)"/>
  <linearGradient inkscape:collect="always" xlink:href="#linearGradient4410" id="linearGradient4674" y1="531.79797" x1="404.57144" y2="543.79797" gradientUnits="userSpaceOnUse" x2="416.57144" gradientTransform="matrix(1 0 0 1 -12 0)"/>
 </defs>
 <metadata id="metadata5458"/>
 <g inkscape:label="Capa 1" inkscape:groupmode="layer" id="layer1" transform="matrix(1 0 0 1 -384.57143 -499.798)">
  <rect width="35.999992" x="390.57144" y="503.798" rx="0" height="39.999969" style="fill:url(#linearGradient4158)" id="rect4139"/>
  <path inkscape:connector-curvature="0" style="fill:url(#linearGradient4666);opacity:0.2;fill-rule:evenodd" id="path4664" d="m 413.57143,519.798 -9,9 3,3 18,0 -12,-12 z"/>
  <path inkscape:connector-curvature="0" style="fill:url(#linearGradient4670);opacity:0.2;fill-rule:evenodd" id="path4668" d="m 401.57143,519.798 -9,9 3,3 18,0 -12,-12 z"/>
  <path inkscape:connector-curvature="0" style="fill:url(#linearGradient4674);opacity:0.2;fill-rule:evenodd" id="path4672" d="m 401.57143,531.798 -9,9 3,3 18,0 -12,-12 z"/>
  <path style="fill:url(#linearGradient4659);opacity:0.2;fill-rule:evenodd" id="path4651" d="M 29 32 L 20 41 L 23 44 L 41 44 L 29 32 z " transform="matrix(1 0 0 1 384.57143 499.798)"/>
  <rect width="35.999992" x="390.57144" y="542.79797" height="0.999974" style="fill:#1c1e20" id="rect4171"/>
  <path style="fill:url(#linearGradient4649);opacity:0.2;fill-rule:evenodd" id="path4638" d="M 40 20 L 32 41 L 35 44 L 42 44 L 42 22 L 40 20 z " transform="matrix(1 0 0 1 384.57143 499.798)"/>
  <rect width="7.99997" x="416.57144" y="519.79797" rx="0" height="21.00003" style="fill:url(#linearGradient4315)" id="rect4307"/>
  <rect width="31.999989" x="392.57144" y="505.79797" height="9.00003" style="fill:url(#linearGradient4429)" id="rect4427"/>
  <path inkscape:connector-curvature="0" style="fill:#ffffff" id="rect4477" d="m 418.57143,534.798 0,1 4,0 0,-1 z m 0,2 0,1 4,0 0,-1 z"/>
  <rect width="3" x="418.57144" y="506.798" height="1" style="fill:#383432" id="rect4499"/>
  <rect width="0.999988" x="421.57144" y="507.798" height="4.999996" style="fill:#383432" id="rect4501"/>
  <rect width="3" x="418.57144" y="512.79797" height="1" style="fill:#383432" id="rect4505"/>
  <rect width="1" x="417.57144" y="507.798" height="5" style="fill:#383432" id="rect4507"/>
  <rect width="9" x="392.57144" y="531.79797" rx="0" height="9" style="fill:url(#linearGradient4582)" id="rect4580"/>
  <rect width="9" x="392.57144" y="519.79797" rx="0" height="9" style="fill:url(#linearGradient4586)" id="rect4584"/>
  <rect width="9" x="404.57144" y="519.79797" rx="0" height="9" style="fill:url(#linearGradient4590)" id="rect4588"/>
  <rect width="9" x="404.57144" y="531.79797" rx="0" height="9" style="fill:url(#linearGradient4594)" id="rect4592"/>
  <path style="fill:#ffffff" id="rect4596" d="M 12 22 L 12 24 L 10 24 L 10 25 L 12 25 L 12 27 L 13 27 L 13 25 L 15 25 L 15 24 L 13 24 L 13 22 L 12 22 z " transform="matrix(1 0 0 1 384.57143 499.798)"/>
  <rect width="0.999988" x="523.79797" y="-411.57144" rx="0" height="5.00003" style="fill:#ffffff" id="rect4600" transform="matrix(0 1 -1 0 0 0)"/>
  <path style="fill:#ffffff" id="rect4604" d="M 12.5 34 A 0.5 0.5 0 0 0 12 34.5 A 0.5 0.5 0 0 0 12.5 35 A 0.5 0.5 0 0 0 13 34.5 A 0.5 0.5 0 0 0 12.5 34 z M 10 36 L 10 37 L 15 37 L 15 36 L 10 36 z M 12.5 38 A 0.5 0.5 0 0 0 12 38.5 A 0.5 0.5 0 0 0 12.5 39 A 0.5 0.5 0 0 0 13 38.5 A 0.5 0.5 0 0 0 12.5 38 z " transform="matrix(1 0 0 1 384.57143 499.798)"/>
  <path style="fill:#ffffff" id="rect4623" d="M 22.707031 34 L 22 34.707031 L 23.792969 36.5 L 22 38.292969 L 22.707031 39 L 24.5 37.207031 L 26.292969 39 L 27 38.292969 L 25.207031 36.5 L 27 34.707031 L 26.292969 34 L 24.5 35.792969 L 22.707031 34 z " transform="matrix(1 0 0 1 384.57143 499.798)"/>
 </g>
</svg>
