<?xml version="1.0" encoding="UTF-8" standalone="no"?>

<!-- Created with Inkscape (http://www.inkscape.org/) -->
<svg width="48" version="1.1" xmlns="http://www.w3.org/2000/svg" height="48" xmlns:xlink="http://www.w3.org/1999/xlink" xmlns:inkscape="http://www.inkscape.org/namespaces/inkscape">
 <defs id="defs5455">
  <linearGradient inkscape:collect="always" xlink:href="#linearGradient4300-8-4" id="linearGradient4309" y1="43.999973" x1="31" y2="7" x2="9.638056" gradientUnits="userSpaceOnUse" gradientTransform="matrix(1 0 0 1 386.57143 499.798)"/>
  <linearGradient inkscape:collect="always" id="linearGradient4903">
   <stop style="stop-color:#eef1f2" id="stop4905"/>
   <stop offset="1" style="stop-color:#f9fafb" id="stop4907"/>
  </linearGradient>
  <linearGradient inkscape:collect="always" id="linearGradient4303">
   <stop style="stop-color:#197cf1" id="stop4305"/>
   <stop offset="1" style="stop-color:#21c9fb" id="stop4307"/>
  </linearGradient>
  <linearGradient inkscape:collect="always" id="linearGradient4227">
   <stop style="stop-color:#292c2f" id="stop4229"/>
   <stop offset="1" style="stop-opacity:0" id="stop4231"/>
  </linearGradient>
  <linearGradient inkscape:collect="always" xlink:href="#linearGradient4303" id="linearGradient4498" y1="531.76947" x1="414.63483" y2="523.37854" x2="409.79031" gradientUnits="userSpaceOnUse" gradientTransform="matrix(1 0 0 1 -825.14288 -1055.5959)"/>
  <linearGradient inkscape:collect="always" xlink:href="#linearGradient4903" id="linearGradient4506" y1="537.25555" x1="413.50388" y2="519.75464" x2="405.39636" gradientUnits="userSpaceOnUse" gradientTransform="matrix(1 0 0 1 2 0)"/>
  <linearGradient inkscape:collect="always" xlink:href="#linearGradient4227" id="linearGradient4518" y1="527.79797" y2="544.66803" x2="0" gradientUnits="userSpaceOnUse" gradientTransform="matrix(0.70710678 -0.70710678 0.70710678 0.70710678 -636.6487 -52.770383)"/>
  <linearGradient inkscape:collect="always" id="linearGradient4300-8-4">
   <stop style="stop-color:#f27935" id="stop4302-5-4"/>
   <stop offset="1" style="stop-color:#f2784b" id="stop4304-7-6"/>
  </linearGradient>
 </defs>
 <metadata id="metadata5458"/>
 <g inkscape:label="Capa 1" inkscape:groupmode="layer" id="layer1" transform="matrix(1 0 0 1 -384.57143 -499.798)">
  <path inkscape:connector-curvature="0" style="fill:url(#linearGradient4309);stroke-linecap:round;stroke-linejoin:round;stroke-width:2" id="path4184" d="m 407.44643,503.77261 a 3.0003,3.0003 0 0 0 -1.70508,5.40234 l 3.41016,2.62305 -16.58008,0 a 3.0003,3.0003 0 1 0 0,6 l 7.51953,0 -12.2832,8.92383 a 3.0003,3.0003 0 1 0 3.52539,4.85351 l 6.27734,-4.56054 a 15.999973,15.999973 0 0 0 -0.0391,0.7832 15.999973,15.999973 0 0 0 16,16 15.999973,15.999973 0 0 0 16,-16 15.999973,15.999973 0 0 0 -6.95508,-13.19727 3.0003,3.0003 0 0 0 -0.21679,-0.18164 l -13,-10 a 3.0003,3.0003 0 0 0 -1.95313,-0.64648 z"/>
  <path inkscape:connector-curvature="0" style="fill:#b86333;stroke-linecap:round;stroke-linejoin:round;stroke-width:2" id="path4184-40" d="m 404.5812,506.27456 c -0.18677,1.10775 0.26094,2.22703 1.16015,2.90039 l 3.41016,2.62305 1,0 -4.41016,-3.62305 c -0.61615,-0.46121 -1.0315,-1.14157 -1.16015,-1.90039 z m -15.00782,8.01563 c -0.31761,1.84957 1.12158,3.53347 2.99805,3.50781 l 7.5,0 1,-1 -8.5,0 c -1.48147,0.019 -2.75497,-1.0463 -2.99805,-2.50781 z m 8.03711,11.72461 -6.27734,4.56054 c -1.79736,1.37114 -4.40795,0.33736 -4.7793,-1.89257 -0.4631,2.68873 2.61203,4.5499 4.7793,2.89257 l 6.25,-4.54101 c -0.004,-0.0787 -0.008,-0.15753 -0.0117,-0.23633 0.007,-0.26135 0.0196,-0.52249 0.0391,-0.7832 z m -0.0137,1.28125 c -0.0111,0.16717 -0.0196,0.33451 -0.0254,0.50195 -2e-5,8.83656 7.16344,16.00001 16,16 8.83656,10e-6 16.00002,-7.16344 16,-16 -0.005,-0.14006 -0.0125,-0.28005 -0.0215,-0.41992 -0.31202,8.60091 -7.37195,15.41404 -15.97852,15.41992 -8.63581,-0.01 -15.70581,-6.87032 -15.97461,-15.50195 z"/>
  <path style="fill:url(#linearGradient4518);opacity:0.2;stroke-linecap:round;stroke-linejoin:round;stroke-width:6" id="rect4508" d="M 36.070312 20.929688 L 21.929688 35.070312 L 30.753906 43.896484 A 15.999973 15.999973 0 0 0 44.884766 29.744141 L 36.070312 20.929688 z " transform="matrix(1 0 0 1 384.57143 499.798)"/>
  <circle cx="413.57144" cy="527.79797" style="fill:url(#linearGradient4506);stroke-linecap:round;stroke-linejoin:round;stroke-width:2" id="path4184-1" r="9.999989"/>
  <circle cx="-413.57144" cy="-527.79797" style="fill:url(#linearGradient4498);stroke-linecap:round;stroke-linejoin:round;stroke-width:2" id="path4184-1-9" r="3.999988" transform="matrix(-1 0 0 -1 0 0)"/>
 </g>
</svg>
