<?xml version="1.0" encoding="UTF-8" standalone="no"?>
<!-- Created with Inkscape (http://www.inkscape.org/) -->

<svg
   xmlns:dc="http://purl.org/dc/elements/1.1/"
   xmlns:cc="http://creativecommons.org/ns#"
   xmlns:rdf="http://www.w3.org/1999/02/22-rdf-syntax-ns#"
   xmlns:svg="http://www.w3.org/2000/svg"
   xmlns="http://www.w3.org/2000/svg"
   xmlns:xlink="http://www.w3.org/1999/xlink"
   xmlns:sodipodi="http://sodipodi.sourceforge.net/DTD/sodipodi-0.dtd"
   xmlns:inkscape="http://www.inkscape.org/namespaces/inkscape"
   width="48"
   height="48"
   id="svg5453"
   version="1.1"
   inkscape:version="0.91 r13725"
   sodipodi:docname="breeze-settings.svg">
  <defs
     id="defs5455">
    <linearGradient
       inkscape:collect="always"
       id="linearGradient4728">
      <stop
         style="stop-color:#884d2c;stop-opacity:1"
         offset="0"
         id="stop4730" />
      <stop
         id="stop4736"
         offset="0.12499975"
         style="stop-color:#334545;stop-opacity:1" />
      <stop
         style="stop-color:#334545;stop-opacity:1"
         offset="0.72916645"
         id="stop4738" />
      <stop
         style="stop-color:#ffa92d;stop-opacity:1"
         offset="1"
         id="stop4732" />
    </linearGradient>
    <linearGradient
       inkscape:collect="always"
       id="linearGradient4697">
      <stop
         style="stop-color:#4ce0c6;stop-opacity:1"
         offset="0"
         id="stop4699" />
      <stop
         style="stop-color:#3b85b5;stop-opacity:1"
         offset="1"
         id="stop4701" />
    </linearGradient>
    <linearGradient
       inkscape:collect="always"
       id="linearGradient4526">
      <stop
         style="stop-color:#ffc169;stop-opacity:1"
         offset="0"
         id="stop4528" />
      <stop
         style="stop-color:#ffa92d;stop-opacity:1"
         offset="1"
         id="stop4530" />
    </linearGradient>
    <linearGradient
       inkscape:collect="always"
       id="linearGradient4468">
      <stop
         style="stop-color:#334545;stop-opacity:1;"
         offset="0"
         id="stop4470" />
      <stop
         style="stop-color:#536161;stop-opacity:1"
         offset="1"
         id="stop4472" />
    </linearGradient>
    <linearGradient
       id="linearGradient4410"
       inkscape:collect="always">
      <stop
         id="stop4412"
         offset="0"
         style="stop-color:#383e51;stop-opacity:1" />
      <stop
         id="stop4414"
         offset="1"
         style="stop-color:#655c6f;stop-opacity:0" />
    </linearGradient>
    <linearGradient
       gradientTransform="translate(342.57143,508.798)"
       inkscape:collect="always"
       xlink:href="#linearGradient4227"
       id="linearGradient4463"
       x1="16"
       y1="21.999729"
       x2="16"
       y2="8"
       gradientUnits="userSpaceOnUse" />
    <linearGradient
       inkscape:collect="always"
       xlink:href="#linearGradient4410"
       id="linearGradient4906"
       x1="15.999981"
       y1="15"
       x2="39.999981"
       y2="39"
       gradientUnits="userSpaceOnUse"
       gradientTransform="translate(-50,0)" />
    <linearGradient
       inkscape:collect="always"
       id="linearGradient4293">
      <stop
         style="stop-color:#000000;stop-opacity:1;"
         offset="0"
         id="stop4295" />
      <stop
         style="stop-color:#000000;stop-opacity:0;"
         offset="1"
         id="stop4297" />
    </linearGradient>
    <linearGradient
       inkscape:collect="always"
       id="linearGradient4303-6">
      <stop
         style="stop-color:#c6cdd1;stop-opacity:1"
         offset="0"
         id="stop4305-7" />
      <stop
         style="stop-color:#e0e5e7;stop-opacity:1"
         offset="1"
         id="stop4307-0" />
    </linearGradient>
    <linearGradient
       y2="502.65509"
       x2="409.57144"
       y1="543.79797"
       x1="409.57144"
       gradientTransform="matrix(0.66666726,0,0,0.63518419,136.19015,188.51871)"
       gradientUnits="userSpaceOnUse"
       id="linearGradient4643-8"
       xlink:href="#linearGradient4303-6"
       inkscape:collect="always" />
    <linearGradient
       gradientUnits="userSpaceOnUse"
       y2="540.79797"
       x2="406.57147"
       y1="525.79797"
       x1="391.57144"
       id="linearGradient4183"
       xlink:href="#linearGradient4293"
       inkscape:collect="always"
       gradientTransform="translate(8.0000036,-9.9999868)" />
    <linearGradient
       id="linearGradient4227">
      <stop
         id="stop4229"
         style="stop-color:#2e3436;stop-opacity:1"
         offset="0" />
      <stop
         id="stop4231"
         style="stop-color:#555753;stop-opacity:1"
         offset="1" />
    </linearGradient>
    <linearGradient
       inkscape:collect="always"
       xlink:href="#linearGradient4468"
       id="linearGradient4474"
       x1="398.09201"
       y1="542.22382"
       x2="394.00299"
       y2="524.89966"
       gradientUnits="userSpaceOnUse"
       gradientTransform="translate(-384.57143,-499.798)" />
    <linearGradient
       inkscape:collect="always"
       xlink:href="#linearGradient4468"
       id="linearGradient4488"
       x1="431.3129"
       y1="586.49384"
       x2="439.57144"
       y2="582.0744"
       gradientUnits="userSpaceOnUse"
       gradientTransform="matrix(-1,0,0,1,454.57142,-539.79801)" />
    <linearGradient
       inkscape:collect="always"
       xlink:href="#linearGradient4468"
       id="linearGradient4490"
       x1="430.56738"
       y1="577.36243"
       x2="423.74994"
       y2="591.32782"
       gradientUnits="userSpaceOnUse"
       gradientTransform="matrix(-1,0,0,1,454.57142,-539.79801)" />
    <linearGradient
       inkscape:collect="always"
       xlink:href="#linearGradient4468"
       id="linearGradient4492"
       x1="431.3129"
       y1="577.10217"
       x2="440.63208"
       y2="571.44531"
       gradientUnits="userSpaceOnUse"
       gradientTransform="matrix(-1,0,0,1,839.14285,-40.00001)" />
    <linearGradient
       inkscape:collect="always"
       xlink:href="#linearGradient4468"
       id="linearGradient4496"
       x1="423.05438"
       y1="572.33411"
       x2="431.22452"
       y2="566.76562"
       gradientUnits="userSpaceOnUse"
       gradientTransform="matrix(-1,0,0,1,839.14285,-40.00001)" />
    <linearGradient
       inkscape:collect="always"
       xlink:href="#linearGradient4468"
       id="linearGradient4498"
       x1="406.53735"
       y1="581.87024"
       x2="423.31955"
       y2="572.67786"
       gradientUnits="userSpaceOnUse"
       gradientTransform="matrix(-1,0,0,1,454.57142,-539.79801)" />
    <linearGradient
       inkscape:collect="always"
       xlink:href="#linearGradient4468"
       id="linearGradient4500"
       x1="431.57141"
       y1="568.79803"
       x2="439.57141"
       y2="562.79803"
       gradientUnits="userSpaceOnUse"
       gradientTransform="matrix(-1,0,0,1,839.14285,-40.00001)" />
    <linearGradient
       inkscape:collect="always"
       xlink:href="#linearGradient4526"
       id="linearGradient4532"
       x1="404.0452"
       y1="521.63281"
       x2="430.73611"
       y2="528.35034"
       gradientUnits="userSpaceOnUse" />
    <linearGradient
       inkscape:collect="always"
       xlink:href="#linearGradient4697"
       id="linearGradient4703"
       x1="418.16971"
       y1="503.07938"
       x2="384.57144"
       y2="531.45813"
       gradientUnits="userSpaceOnUse" />
    <linearGradient
       inkscape:collect="always"
       xlink:href="#linearGradient4728"
       id="linearGradient4734"
       x1="384.57143"
       y1="541.298"
       x2="432.57144"
       y2="541.29797"
       gradientUnits="userSpaceOnUse" />
  </defs>
  <sodipodi:namedview
     id="base"
     pagecolor="#ffffff"
     bordercolor="#666666"
     borderopacity="1.0"
     inkscape:pageopacity="0"
     inkscape:pageshadow="2"
     inkscape:zoom="11.313708"
     inkscape:cx="15.228505"
     inkscape:cy="23.401058"
     inkscape:document-units="px"
     inkscape:current-layer="layer1"
     showgrid="false"
     fit-margin-top="0"
     fit-margin-left="0"
     fit-margin-right="0"
     fit-margin-bottom="0"
     inkscape:window-width="1366"
     inkscape:window-height="700"
     inkscape:window-x="0"
     inkscape:window-y="0"
     inkscape:window-maximized="1"
     inkscape:showpageshadow="false"
     borderlayer="true"
     showguides="false"
     inkscape:snap-bbox="true"
     inkscape:bbox-nodes="true"
     inkscape:snap-global="true"
     inkscape:object-nodes="true">
    <inkscape:grid
       type="xygrid"
       id="grid4063" />
    <sodipodi:guide
       position="1.1650391e-05,43.999996"
       orientation="0,48"
       id="guide4148" />
    <sodipodi:guide
       position="48.000012,43.999996"
       orientation="-4,0"
       id="guide4150" />
    <sodipodi:guide
       position="48.000012,47.999996"
       orientation="0,-48"
       id="guide4152" />
    <sodipodi:guide
       position="1.1650391e-05,4.0000264"
       orientation="4,0"
       id="guide4154" />
    <sodipodi:guide
       position="1.1650391e-05,2.6367188e-05"
       orientation="0,48"
       id="guide4156" />
    <sodipodi:guide
       position="48.000012,2.6367188e-05"
       orientation="-4,0"
       id="guide4158" />
    <sodipodi:guide
       position="48.000012,4.0000264"
       orientation="0,-48"
       id="guide4160" />
    <sodipodi:guide
       position="48.000012,48.000026"
       orientation="0,-4"
       id="guide4162" />
    <sodipodi:guide
       position="44.000012,13"
       orientation="48,0"
       id="guide4164" />
    <sodipodi:guide
       position="44.000012,2.6367188e-05"
       orientation="0,4"
       id="guide4166" />
    <sodipodi:guide
       position="48.000012,2.6367188e-05"
       orientation="-48,0"
       id="guide4168" />
    <sodipodi:guide
       position="4.0000422,48.000026"
       orientation="0,-4"
       id="guide4170" />
    <sodipodi:guide
       position="4.2167969e-05,48.000026"
       orientation="48,0"
       id="guide4172" />
    <sodipodi:guide
       position="4.2167969e-05,2.6367188e-05"
       orientation="0,4"
       id="guide4174" />
    <sodipodi:guide
       position="4.0000422,2.6367188e-05"
       orientation="-48,0"
       id="guide4176" />
    <sodipodi:guide
       position="4.0000422,43.999996"
       orientation="39.999969,0"
       id="guide4175" />
    <sodipodi:guide
       position="4.0000422,4.0000264"
       orientation="0,20"
       id="guide4177" />
    <sodipodi:guide
       position="24.000042,4.0000264"
       orientation="-39.999969,0"
       id="guide4179" />
    <sodipodi:guide
       position="24.000042,43.999996"
       orientation="0,-20"
       id="guide4181" />
    <sodipodi:guide
       position="4.0000422,23.999843"
       orientation="20,0"
       id="guide4185" />
    <sodipodi:guide
       position="44.000012,3.9998433"
       orientation="-20,0"
       id="guide4189" />
    <sodipodi:guide
       position="44.000012,23.999843"
       orientation="0,-39.999969"
       id="guide4191" />
    <sodipodi:guide
       position="15.999981,32.000148"
       orientation="16.000305,0"
       id="guide4374" />
    <sodipodi:guide
       position="15.999981,15.999843"
       orientation="0,16.000031"
       id="guide4376" />
    <sodipodi:guide
       position="32.000012,15.999843"
       orientation="-16.000305,0"
       id="guide4378" />
    <sodipodi:guide
       position="32.000012,32.000148"
       orientation="0,-16.000031"
       id="guide4380" />
  </sodipodi:namedview>
  <metadata
     id="metadata5458">
    <rdf:RDF>
      <cc:Work
         rdf:about="">
        <dc:format>image/svg+xml</dc:format>
        <dc:type
           rdf:resource="http://purl.org/dc/dcmitype/StillImage" />
        <dc:title />
      </cc:Work>
    </rdf:RDF>
  </metadata>
  <g
     inkscape:label="Capa 1"
     inkscape:groupmode="layer"
     id="layer1"
     transform="translate(-384.57143,-499.798)">
    <g
       id="g4578">
      <path
         inkscape:connector-curvature="0"
         id="path4589"
         d="m 384.57143,503.798 0,40 48,0 0,-40 -48,0 z"
         style="opacity:1;fill:url(#linearGradient4703);fill-opacity:1;stroke:none" />
      <path
         inkscape:transform-center-x="5.5056789"
         d="m 399.53737,522.87024 33.03408,-19.07223 0,38.14446 z"
         inkscape:randomized="0"
         inkscape:rounded="0"
         inkscape:flatsided="true"
         sodipodi:arg2="-2.0943951"
         sodipodi:arg1="-3.1415927"
         sodipodi:r2="11.011358"
         sodipodi:r1="22.022717"
         sodipodi:cy="522.87024"
         sodipodi:cx="421.56009"
         sodipodi:sides="3"
         id="path4284"
         style="opacity:1;fill:url(#linearGradient4532);fill-opacity:1;stroke:none;stroke-width:2;stroke-linecap:round;stroke-miterlimit:4;stroke-dasharray:none;stroke-opacity:1"
         sodipodi:type="star" />
      <path
         sodipodi:nodetypes="cccccc"
         inkscape:connector-curvature="0"
         id="path4284-5-6"
         transform="translate(384.57143,499.798)"
         d="M 15,23 0,31.660156 0,44 l 48,0 0,-2 z"
         style="opacity:1;fill:url(#linearGradient4474);fill-opacity:1;stroke:none;stroke-width:2;stroke-linecap:round;stroke-miterlimit:4;stroke-dasharray:none;stroke-opacity:1" />
      <path
         sodipodi:nodetypes="cccc"
         inkscape:connector-curvature="0"
         id="path4284-5-6-2-2"
         d="m 407.82995,527.56606 -8.25852,-4.76806 0,9.53611 z"
         inkscape:transform-center-x="-5.5056915"
         style="opacity:1;fill:url(#linearGradient4500);fill-opacity:1;stroke:none;stroke-width:2;stroke-linecap:round;stroke-miterlimit:4;stroke-dasharray:none;stroke-opacity:1" />
      <path
         id="path4284-5-6-2-0"
         transform="translate(384.57143,499.798)"
         d="M 31.517578,32.535156 31.517578,44 44.693359,44 48,42.091797 48,42.052734 31.517578,32.535156 Z"
         style="opacity:1;fill:url(#linearGradient4498);fill-opacity:1;stroke:none;stroke-width:2;stroke-linecap:round;stroke-miterlimit:4;stroke-dasharray:none;stroke-opacity:1"
         inkscape:connector-curvature="0" />
      <path
         sodipodi:nodetypes="cccc"
         inkscape:connector-curvature="0"
         id="path4284-5-6-2-6"
         d="m 416.08847,532.33411 -8.25852,-4.76805 0,9.53611 z"
         inkscape:transform-center-x="-5.5056915"
         style="opacity:1;fill:url(#linearGradient4496);fill-opacity:1;stroke:none;stroke-width:2;stroke-linecap:round;stroke-miterlimit:4;stroke-dasharray:none;stroke-opacity:1" />
      <path
         sodipodi:nodetypes="cccc"
         inkscape:connector-curvature="0"
         id="path4284-5-6-2-6-50"
         d="m 399.57143,532.33411 0,9.53612 8.25852,-4.76806 z"
         inkscape:transform-center-x="-5.5056915"
         style="opacity:1;fill:url(#linearGradient4492);fill-opacity:1;stroke:none;stroke-width:2;stroke-linecap:round;stroke-miterlimit:4;stroke-dasharray:none;stroke-opacity:1" />
      <path
         id="path4284-5-6-2-0-6"
         transform="translate(384.57143,499.798)"
         d="M 31.517578,32.535156 15,42.072266 18.339844,44 l 13.177734,0 0,-11.464844 z"
         style="opacity:1;fill:url(#linearGradient4490);fill-opacity:1;stroke:none;stroke-width:2;stroke-linecap:round;stroke-miterlimit:4;stroke-dasharray:none;stroke-opacity:1"
         inkscape:connector-curvature="0" />
      <path
         id="path4284-5-6-2-2-0"
         transform="translate(384.57143,499.798)"
         d="M 15,41.927734 15,44 18.589844,44 15,41.927734 Z"
         style="opacity:1;fill:url(#linearGradient4488);fill-opacity:1;stroke:none;stroke-width:2;stroke-linecap:round;stroke-miterlimit:4;stroke-dasharray:none;stroke-opacity:1"
         inkscape:connector-curvature="0" />
      <path
         inkscape:connector-curvature="0"
         style="opacity:1;fill:#334545;fill-opacity:1;stroke:none;stroke-width:2;stroke-linecap:round;stroke-miterlimit:4;stroke-dasharray:none;stroke-opacity:1"
         d="m 432.57143,541.798 -3.46484,2 3.46484,0 0,-2 z"
         id="path4284-5-6-2" />
      <path
         inkscape:connector-curvature="0"
         style="fill:#ffc169;fill-opacity:1;fill-rule:evenodd;stroke:none;stroke-width:1px;stroke-linecap:butt;stroke-linejoin:miter;stroke-opacity:1"
         d="m 384.57143,541.91519 0,1.88281 2.28516,0 -2.28516,-1.88281 z"
         id="path4468" />
      <path
         style="opacity:1;fill:#ffa92d;fill-opacity:1;stroke:none;stroke-width:2;stroke-linecap:round;stroke-miterlimit:4;stroke-dasharray:none;stroke-opacity:1"
         inkscape:transform-center-x="5.5056789"
         d="m 399.53737,522.87024 33.03408,-19.07223 -2e-5,9.31712 z"
         id="path4284-1"
         inkscape:connector-curvature="0"
         sodipodi:nodetypes="cccc" />
    </g>
    <g
       id="g4818"
       transform="translate(50,0)">
      <g
         transform="translate(-50,0)"
         id="g4343">
        <rect
           ry="0"
           y="507.79797"
           x="392.57144"
           height="28"
           width="32"
           id="rect4641-5"
           style="opacity:1;fill:url(#linearGradient4643-8);fill-opacity:1;stroke:none" />
        <path
           style="opacity:0.2;fill:url(#linearGradient4183);fill-opacity:1;fill-rule:evenodd;stroke:none;stroke-width:1px;stroke-linecap:butt;stroke-linejoin:miter;stroke-opacity:1"
           d="m 393.57143,533.79801 30,-20 1.00001,1 -10e-6,20.99997 -29,3e-5 z"
           id="path4167"
           inkscape:connector-curvature="0" />
        <rect
           style="opacity:1;fill:#566069;fill-opacity:1;stroke:none"
           id="rect4647-8"
           width="32.000011"
           height="4"
           x="392.57141"
           y="507.79797" />
        <rect
           style="opacity:1;fill:#3daee9;fill-opacity:1;stroke:none"
           id="rect4649-8"
           width="31.999968"
           height="1"
           x="392.57141"
           y="511.79797" />
        <rect
           style="opacity:1;fill:#ffffff;fill-opacity:1;stroke:none"
           id="rect4653-5"
           width="30"
           height="20.000027"
           x="393.57141"
           y="513.79797" />
        <rect
           style="opacity:1;fill:#eff0f1;fill-opacity:1;stroke:none"
           id="rect4661-1"
           width="2"
           height="2"
           x="421.57141"
           y="508.79797"
           rx="1"
           ry="1" />
      </g>
      <path
         id="path4892"
         transform="translate(384.57143,499.798)"
         d="m -34,19 11,11 -7.087891,0 A 1.5,1.5 0 0 0 -30,29.5 1.5,1.5 0 0 0 -31.5,28 1.5,1.5 0 0 0 -33,29.5 1.5,1.5 0 0 0 -32.912109,30 L -34,30 l 6,6 18,0 0,-9 -8,-8 -16,0 z"
         style="opacity:0.2;fill:url(#linearGradient4906);fill-opacity:1;fill-rule:evenodd;stroke:none;stroke-width:1px;stroke-linecap:butt;stroke-linejoin:miter;stroke-opacity:1"
         inkscape:connector-curvature="0" />
      <path
         sodipodi:nodetypes="sccccsccccssssccccssssss"
         id="rect4437"
         d="m 360.07143,515.798 c -1.21386,0 -2.21902,0.85592 -2.44922,2 l -7.05039,0 0,1 7.05039,0 c 0.2302,1.14408 1.23536,2 2.44922,2 1.21387,0 2.21902,-0.85592 2.44922,-2 l 4.05078,0 0,-1 -4.05078,0 c -0.2302,-1.14408 -1.23535,-2 -2.44922,-2 z m -6.99961,11 c -1.38499,0 -2.5,1.11501 -2.5,2.5 0,1.38499 1.11501,2.5 2.5,2.5 1.21385,0 2.21902,-0.85593 2.44922,-2 l 11.05039,0 0,-1 -11.05039,0 c -0.2302,-1.14407 -1.23537,-2 -2.44922,-2 z m 0,1 c 0.83099,0 1.5,0.66901 1.5,1.5 0,0.83099 -0.66901,1.5 -1.5,1.5 -0.83099,0 -1.5,-0.66901 -1.5,-1.5 0,-0.83099 0.66901,-1.5 1.5,-1.5 z"
         style="opacity:1;fill:url(#linearGradient4463);fill-opacity:1;stroke:none"
         inkscape:connector-curvature="0" />
    </g>
    <path
       style="opacity:1;fill:url(#linearGradient4734);fill-opacity:1;stroke:none"
       d="m 384.57143,538.798 0,4 0,1 1,0 46,0 1,0 0,-1 0,-4 z"
       id="rect4128-1"
       inkscape:connector-curvature="0"
       sodipodi:nodetypes="ccccccccc" />
    <path
       style="opacity:1;fill:#ffffff;fill-opacity:0.78431373;stroke:none"
       d="m 384.57143,538.798 0,4 0,1 1,0 46,0 1,0 0,-1 0,-4 z"
       id="rect4128"
       inkscape:connector-curvature="0"
       sodipodi:nodetypes="ccccccccc" />
    <g
       style="font-style:normal;font-variant:normal;font-weight:normal;font-stretch:normal;font-size:4.07529593px;line-height:125%;font-family:Oxygen;-inkscape-font-specification:Oxygen;letter-spacing:0px;word-spacing:0px;fill:#4d4d4d;fill-opacity:1;stroke:none;stroke-width:1px;stroke-linecap:butt;stroke-linejoin:miter;stroke-opacity:1"
       id="text4213"
       transform="matrix(0.64829823,0,0,0.64829823,143.63174,191.16072)">
      <path
         d="m 434.23853,537.83412 c -0.15893,0.11003 -0.36677,0.22414 -0.54201,0.30157 l 0.0734,0.28934 c 0.14264,-0.0448 0.27305,-0.12225 0.43198,-0.22414 l 0,2.60819 0.35455,0 0,-2.97496 -0.31787,0 z"
         id="path4218"
         inkscape:connector-curvature="0" />
      <path
         d="m 435.20119,538.03381 0.11819,0.29749 c 0.16708,-0.17116 0.41568,-0.24452 0.66427,-0.24452 0.33825,0 0.52571,0.18747 0.52571,0.51757 l 0,0.0204 c -0.004,0.2323 -0.15486,0.46051 -0.38715,0.71726 l -1.02697,1.14108 0.0448,0.32602 1.74016,0 0.0245,-0.30565 -1.38153,0 0.83951,-0.89656 c 0.32603,-0.35048 0.52572,-0.63575 0.52979,-1.01067 l 0,-0.0122 c 0,-0.48904 -0.34232,-0.81098 -0.88434,-0.81098 -0.38715,0 -0.63982,0.10595 -0.80691,0.26082 z"
         id="path4220"
         inkscape:connector-curvature="0" />
      <path
         d="m 437.42599,540.85799 0.4116,0 0,-0.46459 -0.4116,0 0,0.46459 z m 0,-1.82574 0.4116,0 0,-0.46051 -0.4116,0 0,0.46051 z"
         id="path4222"
         inkscape:connector-curvature="0" />
      <path
         d="m 439.75394,539.98995 c 0,0.3627 -0.2649,0.56239 -0.65613,0.56239 -0.30157,0 -0.50941,-0.0978 -0.6602,-0.21599 l -0.1141,0.28934 c 0.11003,0.10596 0.39122,0.22822 0.77838,0.22822 0.57869,0 1.00252,-0.3301 1.00252,-0.85989 0,-0.41975 -0.23229,-0.68872 -0.59499,-0.77023 0.32195,-0.0978 0.52164,-0.3301 0.52164,-0.71317 0,-0.47681 -0.41161,-0.73763 -0.85174,-0.73763 -0.41161,0 -0.6765,0.0897 -0.85581,0.22821 l 0.1141,0.28935 c 0.15894,-0.12634 0.39123,-0.21192 0.66428,-0.21192 0.35047,0 0.54609,0.14671 0.54609,0.47681 0,0.46866 -0.43198,0.52164 -0.88842,0.52164 l 0,0.29342 c 0.55424,0 0.99438,0.0856 0.99438,0.61945 z"
         id="path4224"
         inkscape:connector-curvature="0" />
      <path
         d="m 441.86538,538.2824 0,1.49971 -0.99437,0 0.99437,-1.49971 z m 0.67243,1.78905 0.0285,-0.28934 -0.36678,0 0,-1.94799 -0.37085,0 -1.30817,1.93169 0,0.30564 1.34484,0 0,0.73763 0.33418,0 0,-0.73763 0.33825,0 z"
         id="path4226"
         inkscape:connector-curvature="0" />
    </g>
    <path
       style="color:#000000;font-style:normal;font-variant:normal;font-weight:normal;font-stretch:normal;font-size:medium;line-height:normal;font-family:Sans;-inkscape-font-specification:Sans;text-indent:0;text-align:start;text-decoration:none;text-decoration-line:none;letter-spacing:normal;word-spacing:normal;text-transform:none;direction:ltr;block-progression:tb;writing-mode:lr-tb;baseline-shift:baseline;text-anchor:start;display:inline;overflow:visible;visibility:visible;fill:#4d4d4d;fill-opacity:1;stroke:none;stroke-width:5;marker:none;enable-background:accumulate"
       d="m 387.07143,539.79839 a 0.16666666,0.16666666 0 0 0 -0.16667,0.16667 0.16666666,0.16666666 0 0 0 0.16667,0.16667 0.16666666,0.16666666 0 0 0 0.16666,-0.16667 0.16666666,0.16666666 0 0 0 -0.16666,-0.16667 z m 0.83333,0 -0.32292,0.26042 0.43229,0.53646 -0.40625,0.40625 0.29688,0.29687 0.66667,-0.66667 -0.66667,-0.83333 z m -1.08333,0.66667 a 0.25,0.25 0 0 0 -0.25,0.25 0.25,0.25 0 0 0 0.25,0.25 0.25,0.25 0 0 0 0.25,-0.25 0.25,0.25 0 0 0 -0.25,-0.25 z m 0.5,0.83333 a 0.25,0.25 0 0 0 -0.25,0.25 0.25,0.25 0 0 0 0.25,0.25 0.25,0.25 0 0 0 0.25,-0.25 0.25,0.25 0 0 0 -0.25,-0.25 z"
       id="path2994"
       inkscape:connector-curvature="0" />
    <path
       sodipodi:nodetypes="ccccccccc"
       inkscape:connector-curvature="0"
       id="path4816"
       d="m 384.57143,542.798 0,0.2 0,0.8 1,0 46,0 1,0 0,-0.8 0,-0.2 z"
       style="opacity:1;fill:#000000;fill-opacity:0.11009175;stroke:none" />
  </g>
</svg>
