<?xml version="1.0" encoding="UTF-8" standalone="no"?>

<!-- Created with Inkscape (http://www.inkscape.org/) -->
<svg width="48" version="1.1" xmlns="http://www.w3.org/2000/svg" height="48" xmlns:xlink="http://www.w3.org/1999/xlink" xmlns:inkscape="http://www.inkscape.org/namespaces/inkscape">
 <defs id="defs5455">
  <linearGradient inkscape:collect="always" id="linearGradient4510">
   <stop id="stop4512"/>
   <stop offset="1" style="stop-opacity:0" id="stop4514"/>
  </linearGradient>
  <linearGradient inkscape:collect="always" xlink:href="#linearGradient4298" id="linearGradient4416" y1="43.999973" y2="8.06586" x2="0" gradientUnits="userSpaceOnUse"/>
  <linearGradient inkscape:collect="always" id="linearGradient4298">
   <stop style="stop-color:#42a603" id="stop4300"/>
   <stop offset="1" style="stop-color:#78da06" id="stop4302"/>
  </linearGradient>
  <linearGradient inkscape:collect="always" id="linearGradient4802">
   <stop style="stop-color:#ffc35a" id="stop4804"/>
   <stop offset="1" style="stop-color:#faae2a" id="stop4806"/>
  </linearGradient>
  <linearGradient inkscape:collect="always" xlink:href="#linearGradient4802" id="linearGradient4409" y1="519.45886" x1="406.13211" y2="525.15033" x2="416.43982" gradientUnits="userSpaceOnUse" gradientTransform="matrix(1.2740202 -0.19577268 0.10158381 1.0000347 -166.76921 85.11982)"/>
  <linearGradient inkscape:collect="always" xlink:href="#linearGradient4510" id="linearGradient4516" y1="529.48462" x1="410.02902" y2="538.66876" x2="417.07626" gradientUnits="userSpaceOnUse"/>
  <linearGradient inkscape:collect="always" id="linearGradient4424">
   <stop style="stop-color:#ffffff" id="stop4426"/>
   <stop offset="1" style="stop-color:#d9fafd" id="stop4428"/>
  </linearGradient>
  <linearGradient inkscape:collect="always" xlink:href="#linearGradient4424" id="linearGradient4633" y1="511.798" x1="388.57144" y2="527.58679" x2="400.57144" gradientUnits="userSpaceOnUse"/>
  <linearGradient inkscape:collect="always" xlink:href="#linearGradient4424" id="linearGradient4641" y1="507.798" x1="418.57144" y2="523.3136" x2="430.07404" gradientUnits="userSpaceOnUse"/>
  <linearGradient inkscape:collect="always" id="linearGradient4300-7">
   <stop style="stop-color:#f39c12" id="stop4302-4"/>
   <stop offset="1" style="stop-color:#f5ab35" id="stop4304-1"/>
  </linearGradient>
  <linearGradient inkscape:collect="always" xlink:href="#linearGradient4300-7" id="linearGradient4767" y1="529.39355" x1="417.18845" y2="532.26892" x2="420.6416" gradientUnits="userSpaceOnUse"/>
  <linearGradient inkscape:collect="always" xlink:href="#linearGradient4510" id="linearGradient4777" y1="518.99121" x1="393.76468" y2="525.91406" x2="400.68756" gradientUnits="userSpaceOnUse"/>
  <linearGradient inkscape:collect="always" xlink:href="#linearGradient4510" id="linearGradient4795" y1="518.79797" x1="418.57144" y2="525.79797" x2="425.57147" gradientUnits="userSpaceOnUse"/>
  <linearGradient inkscape:collect="always" xlink:href="#linearGradient4298" id="linearGradient4813" y1="508.048" x1="419.63394" y2="504.423" x2="422.25894" gradientUnits="userSpaceOnUse"/>
 </defs>
 <metadata id="metadata5458"/>
 <g inkscape:label="Capa 1" inkscape:groupmode="layer" id="layer1" transform="matrix(1 0 0 1 -384.57143 -499.798)">
  <path inkscape:connector-curvature="0" style="fill:url(#linearGradient4416);fill-rule:evenodd" id="path4445" d="m 4,8 0,30 24,0 7,6 0,-6 9,0 0,-30 z" transform="matrix(1 0 0 1 384.57143 499.798)"/>
  <path inkscape:connector-curvature="0" style="fill:url(#linearGradient4795);opacity:0.1;fill-rule:evenodd" id="path4779" d="m 418.57143,518.798 10,10 0,-10 z"/>
  <path inkscape:connector-curvature="0" style="fill:url(#linearGradient4777);opacity:0.1;fill-rule:evenodd" id="path4769" d="m 398.82143,513.673 10,10 -11.25,9.625 -9,-9 z"/>
  <path inkscape:connector-curvature="0" style="fill:url(#linearGradient4767);fill-rule:evenodd" id="path4411-1" d="m 400.57143,529.798 c 7.88286,7.51499 15.18263,7.23859 18.7365,2.95066 3.55386,-4.28791 0.8947,-7.95066 0.8947,-7.95066 z"/>
  <path inkscape:connector-curvature="0" style="fill:url(#linearGradient4633);color:#000000;stroke-linecap:round;stroke-linejoin:round;stroke-width:3" id="path4170" d="m 393.07143,510.798 c -1.69047,0 -3.24572,0.0564 -4.5,1 l 0,12.49121 c 1.25428,0.94363 2.80953,1.50879 4.5,1.50879 4.14213,0 8.53125,-1.85786 8.53125,-6 0,-4.14214 -4.38912,-9 -8.53125,-9 z"/>
  <path inkscape:connector-curvature="0" style="fill:url(#linearGradient4641);color:#000000;stroke-linecap:round;stroke-linejoin:round;stroke-width:3" id="path4170-8" d="m 419.57143,507.798 c -2.13248,2.60659 -3.49194,5.7652 -2.48191,8.84162 1.41289,4.30351 6.28706,4.841 10.28855,3.52724 0.42125,-0.13831 0.81618,-0.31936 1.19336,-0.52539 l 0,-11.84347 z"/>
  <circle cx="395.07144" cy="518.29797" style="fill:#31363b;color:#000000;stroke-linecap:round;stroke-linejoin:round;stroke-width:3" r="3.5" id="path4267"/>
  <circle cx="421.07144" cy="514.29797" style="fill:#31363b;color:#000000;stroke-linecap:round;stroke-linejoin:round;stroke-width:3" r="3.5" id="path4267-9"/>
  <path inkscape:connector-curvature="0" style="fill:#192629;fill-rule:evenodd" id="path4411" d="m 401.57143,529.80466 c 5.99016,6.17207 13.88272,5.86046 16.58329,2.33878 2.70057,-3.52167 0.67988,-6.52989 0.67988,-6.52989 z"/>
  <path inkscape:connector-curvature="0" style="fill:#da4453;fill-rule:evenodd" id="path4411-4" d="m 416.02194,531.64725 c -2.06022,0.0732 -4.53865,0.71495 -6.82881,1.88314 3.2444,0.94185 5.46985,0.42912 7.24276,-0.6768 0.6427,-0.40091 1.11511,-0.69259 1.26877,-1.12121 -0.51573,-0.0764 -1.07989,-0.10656 -1.68272,-0.0851 z"/>
  <path inkscape:connector-curvature="0" style="fill:url(#linearGradient4516);opacity:0.2;fill-rule:evenodd" id="path4508" d="m 400.57143,529.798 8,8 4,0 7,6 0,-6 9,0 0,-5 -8,-8 z"/>
  <path inkscape:connector-curvature="0" style="fill:url(#linearGradient4409);fill-rule:evenodd" id="path4284" d="m 400.57143,529.798 c 0,0 1.43169,-4.31891 8.93085,-6.26669 7.49918,-1.94775 11.06693,1.26669 11.06693,1.26669 0.99863,2.90814 -8.66385,7.42664 -8.66385,7.42664 0,0 -10.69869,0.57588 -11.33393,-2.42664 z"/>
  <path inkscape:connector-curvature="0" style="fill:url(#linearGradient4813);fill-rule:evenodd" id="path4413" d="m 428.57143,507.798 c 0,-3 -4.75,-4 -4.75,-4 0,0 -0.58929,1.26798 0,2 -2.25,-2 -4.25,-1 -4.25,-1 0,0 0.50416,1.31239 1.25,2 -1.19947,-0.57486 -2.5,0 -2.5,0 0,0 0.67896,1 1.25,1 z"/>
  <g id="g4802" transform="matrix(1.0313561 0 0 1 -13.438329 0)">
   <path inkscape:transform-center-x="-1.8635335" inkscape:transform-center-y="-0.88914474" inkscape:connector-curvature="0" style="fill:#31363b;fill-rule:evenodd" id="path4415-0" d="m 428.57151,519.79798 c 0,0 4.12602,-0.49135 3.6955,-1.53073 -0.43051,-1.03936 -3.6955,1.53073 -3.6955,1.53073 z"/>
   <path inkscape:transform-center-x="-1.0980279" inkscape:transform-center-y="-1.7590229" inkscape:connector-curvature="0" style="fill:#31363b;fill-rule:evenodd" id="path4415-4-9" d="m 428.57149,519.79798 c 0,0 2.97427,-2.9016 2,-3.46412 -0.97428,-0.56249 -2,3.46412 -2,3.46412 z"/>
   <path inkscape:transform-center-x="-1.9391881" inkscape:transform-center-y="0.67230986" inkscape:connector-curvature="0" style="fill:#31363b;fill-rule:evenodd" id="path4415-4-3-1" d="m 428.5715,519.79801 c 0,0 3.57252,2.12194 3.8637,1.03528 0.29119,-1.08666 -3.8637,-1.03528 -3.8637,-1.03528 z"/>
  </g>
  <g id="g4797" transform="matrix(1.031377 0 0 1 -12.192194 0)">
   <path inkscape:transform-center-x="1.9391971" inkscape:transform-center-y="0.67230725" inkscape:connector-curvature="0" style="fill:#31363b;fill-rule:evenodd" id="path4415" d="m 388.57143,526.79801 c 0,0 -3.57251,2.12194 -3.86369,1.03527 -0.29118,-1.08666 3.86369,-1.03527 3.86369,-1.03527 z"/>
   <path inkscape:transform-center-x="1.8635365" inkscape:transform-center-y="-0.88913939" inkscape:connector-curvature="0" style="fill:#31363b;fill-rule:evenodd" id="path4415-4" d="m 388.57144,526.79799 c 0,0 -4.12602,-0.49136 -3.69552,-1.53074 0.43051,-1.03936 3.69552,1.53074 3.69552,1.53074 z"/>
   <path inkscape:transform-center-x="1.2935833" inkscape:transform-center-y="1.6274672" inkscape:connector-curvature="0" style="fill:#31363b;fill-rule:evenodd" id="path4415-4-3" d="m 388.57145,526.79803 c 0,0 -1.54252,3.85826 -2.43505,3.17341 -0.89252,-0.68484 2.43505,-3.17341 2.43505,-3.17341 z"/>
  </g>
 </g>
</svg>
