<svg width="48" xmlns="http://www.w3.org/2000/svg" height="48" xmlns:xlink="http://www.w3.org/1999/xlink">
 <defs>
  <linearGradient id="a" y1="44" x1="44" y2="24" x2="24" gradientUnits="userSpaceOnUse">
   <stop stop-color="#548eb5"/>
   <stop offset="1" stop-color="#68a0c4"/>
  </linearGradient>
  <linearGradient id="b" y1="44" x1="4" y2="24" x2="24" gradientUnits="userSpaceOnUse" gradientTransform="translate(384.57 499.86)">
   <stop stop-color="#79a8ca"/>
   <stop offset="1" stop-color="#9ecbda"/>
  </linearGradient>
  <linearGradient id="c" y1="4" x1="44" y2="24" x2="24" gradientUnits="userSpaceOnUse" gradientTransform="translate(384.57 499.8)">
   <stop stop-color="#41759c"/>
   <stop offset="1" stop-color="#7faac8"/>
  </linearGradient>
  <linearGradient id="d" y1="520.8" x1="403.57" y2="537.8" x2="420.57" gradientUnits="userSpaceOnUse" gradientTransform="translate(-384.57-499.8)">
   <stop stop-color="#292c2f"/>
   <stop offset="1" stop-opacity="0"/>
  </linearGradient>
  <linearGradient xlink:href="#d" id="e" y1="517.8" x1="402.57" y2="538.8" x2="423.57" gradientUnits="userSpaceOnUse" gradientTransform="translate(-384.57-499.8)"/>
  <linearGradient id="f" y1="530.8" y2="516.8" x2="0" gradientUnits="userSpaceOnUse">
   <stop stop-color="#8bb3d0"/>
   <stop offset="1" stop-color="#a9cfe4"/>
  </linearGradient>
  <linearGradient xlink:href="#b" id="g" y1="542.8" y2="503.85" x2="0" gradientUnits="userSpaceOnUse"/>
 </defs>
 <g transform="translate(-384.57-499.8)">
  <rect width="38" x="389.57" y="504.8" fill="url(#g)" rx="19" height="38"/>
  <path opacity=".8" fill="#649cc1" d="m24.473 14.699c-.262 0-.473.211-.473.473 0 .262.211.473.473.473h17.05c.034 0 .065-.013.098-.02l.232-.625-.857-.301z" transform="translate(384.57 499.8)"/>
  <g fill-rule="evenodd">
   <path fill="url(#b)" d="m392.58 511.8c-2.504 3.34-4 7.548-4 12.06 0 11.08 8.92 19.938 20 19.938l7-14.337-13-2.663z"/>
   <path fill="url(#a)" d="m25 15l6 14.6-7 14.4c11.08 0 20-8.92 20-20 0-3.245-.782-6.295-2.143-9z" transform="translate(384.57 499.8)"/>
   <path opacity=".2" fill="url(#e)" d="m30.7 18l-13.4 12 12.764 13.06c5.935-1.875 10.637-6.436 12.734-12.266z" transform="translate(384.57 499.8)"/>
   <path fill="url(#c)" d="m408.57 503.8c-6.565 0-12.354 3.146-15.996 8l9.996 14.996 13 2.6-6-14.6h16.857c-3.285-6.53-10.02-11-17.857-11"/>
  </g>
  <rect width="18" x="399.57" y="514.8" fill="#ecf0f1" rx="9" height="18"/>
  <path opacity=".2" fill="url(#d)" fill-rule="evenodd" d="m30.3 21l-11.2 8 13.13 13.229c3.983-1.793 7.272-4.837 9.348-8.652z" transform="translate(384.57 499.8)"/>
  <rect width="14" x="401.57" y="516.8" fill="url(#f)" rx="7" height="14"/>
  <path fill="#005677" fill-opacity=".237" d="m4.01 23.5c-.004.167-.012.332-.012.5 0 11.08 8.92 20 20 20 11.08 0 20-8.92 20-20 0-.168-.008-.333-.012-.5-.265 10.846-9.08 19.5-19.988 19.5-10.912 0-19.724-8.654-19.988-19.5" transform="translate(384.57 499.8)"/>
 </g>
</svg>
