<?xml version="1.0" encoding="UTF-8" standalone="no"?>
<!-- Created with Inkscape (http://www.inkscape.org/) -->

<svg
   xmlns:dc="http://purl.org/dc/elements/1.1/"
   xmlns:cc="http://creativecommons.org/ns#"
   xmlns:rdf="http://www.w3.org/1999/02/22-rdf-syntax-ns#"
   xmlns:svg="http://www.w3.org/2000/svg"
   xmlns="http://www.w3.org/2000/svg"
   xmlns:xlink="http://www.w3.org/1999/xlink"
   xmlns:sodipodi="http://sodipodi.sourceforge.net/DTD/sodipodi-0.dtd"
   xmlns:inkscape="http://www.inkscape.org/namespaces/inkscape"
   version="1.0"
   width="48"
   height="48"
   id="svg11300"
   inkscape:version="0.91 r13725"
   sodipodi:docname="The_GIMP_icon_-_gnome.svg">
  <metadata
     id="metadata82">
    <rdf:RDF>
      <cc:Work
         rdf:about="">
        <dc:format>image/svg+xml</dc:format>
        <dc:type
           rdf:resource="http://purl.org/dc/dcmitype/StillImage" />
        <dc:title></dc:title>
      </cc:Work>
    </rdf:RDF>
  </metadata>
  <sodipodi:namedview
     pagecolor="#ffffff"
     bordercolor="#666666"
     borderopacity="1"
     objecttolerance="10"
     gridtolerance="10"
     guidetolerance="10"
     inkscape:pageopacity="0"
     inkscape:pageshadow="2"
     inkscape:window-width="1535"
     inkscape:window-height="876"
     id="namedview80"
     showgrid="true"
     inkscape:zoom="13.12"
     inkscape:cx="16.345427"
     inkscape:cy="24.853526"
     inkscape:window-x="65"
     inkscape:window-y="24"
     inkscape:window-maximized="1"
     inkscape:current-layer="svg11300">
    <inkscape:grid
       type="xygrid"
       id="grid4232" />
  </sodipodi:namedview>
  <defs
     id="defs3">
    <linearGradient
       inkscape:collect="always"
       id="linearGradient4349">
      <stop
         style="stop-color:#000000;stop-opacity:1;"
         offset="0"
         id="stop4351" />
      <stop
         style="stop-color:#000000;stop-opacity:0;"
         offset="1"
         id="stop4353" />
    </linearGradient>
    <linearGradient
       inkscape:collect="always"
       id="linearGradient4329">
      <stop
         style="stop-color:#42494c;stop-opacity:1"
         offset="0"
         id="stop4331" />
      <stop
         style="stop-color:#272b2d;stop-opacity:1"
         offset="1"
         id="stop4333" />
    </linearGradient>
    <linearGradient
       inkscape:collect="always"
       id="linearGradient4275">
      <stop
         style="stop-color:#eef0f1;stop-opacity:1;"
         offset="0"
         id="stop4277" />
      <stop
         style="stop-color:#fefefe;stop-opacity:1"
         offset="1"
         id="stop4279" />
    </linearGradient>
    <linearGradient
       inkscape:collect="always"
       id="linearGradient4267">
      <stop
         style="stop-color:#53492d;stop-opacity:1"
         offset="0"
         id="stop4269" />
      <stop
         style="stop-color:#9a9078;stop-opacity:1"
         offset="1"
         id="stop4271" />
    </linearGradient>
    <radialGradient
       cx="15.415101"
       cy="35.356506"
       r="7.5791559"
       fx="15.415101"
       fy="35.356506"
       id="radialGradient6969"
       xlink:href="#linearGradient4329"
       gradientUnits="userSpaceOnUse"
       gradientTransform="matrix(-0.1877762,-0.61010386,0.62117041,-0.17515593,22.206274,53.218094)" />
    <linearGradient
       id="linearGradient6951">
      <stop
         style="stop-color:#a96c2c;stop-opacity:1"
         offset="0"
         id="stop6953" />
      <stop
         style="stop-color:#c36c10;stop-opacity:1"
         offset="0.24242425"
         id="stop6959" />
      <stop
         style="stop-color:#5c3307;stop-opacity:1"
         offset="0.62121212"
         id="stop6961" />
      <stop
         style="stop-color:#bc7b36;stop-opacity:1"
         offset="1"
         id="stop6955" />
    </linearGradient>
    <linearGradient
       x1="37.017639"
       y1="19.239889"
       x2="27.753893"
       y2="11.182488"
       id="linearGradient6957"
       xlink:href="#linearGradient6951"
       gradientUnits="userSpaceOnUse"
       gradientTransform="matrix(-0.114852,-0.389864,0.389864,-0.114852,31.490732,47.604576)" />
    <linearGradient
       id="linearGradient6482">
      <stop
         style="stop-color:black;stop-opacity:1"
         offset="0"
         id="stop6484" />
      <stop
         style="stop-color:black;stop-opacity:0"
         offset="1"
         id="stop6486" />
    </linearGradient>
    <linearGradient
       x1="32.350136"
       y1="28.083355"
       x2="21.213203"
       y2="30.293064"
       id="linearGradient4351"
       xlink:href="#linearGradient6482"
       gradientUnits="userSpaceOnUse"
       gradientTransform="matrix(0.97383439,0,0,1.0390813,-3.062163,-1.8795811)" />
    <linearGradient
       inkscape:collect="always"
       xlink:href="#linearGradient4267"
       id="linearGradient4273"
       x1="34.712074"
       y1="34.58514"
       x2="4.9999995"
       y2="9"
       gradientUnits="userSpaceOnUse"
       gradientTransform="translate(5.0238058e-7,-1)" />
    <radialGradient
       inkscape:collect="always"
       xlink:href="#linearGradient4275"
       id="radialGradient4281"
       cx="22"
       cy="22"
       fx="22"
       fy="22"
       r="5"
       gradientUnits="userSpaceOnUse"
       gradientTransform="translate(5.0238058e-7,-1)" />
    <radialGradient
       inkscape:collect="always"
       xlink:href="#linearGradient4275"
       id="radialGradient4289"
       cx="13.5"
       cy="21.5"
       fx="13.5"
       fy="21.5"
       r="4.5"
       gradientUnits="userSpaceOnUse" />
    <radialGradient
       inkscape:collect="always"
       xlink:href="#linearGradient4329"
       id="radialGradient4335"
       cx="3.4959562"
       cy="22.822647"
       fx="3.4959562"
       fy="22.822647"
       r="5.4999998"
       gradientTransform="matrix(1,0,0,1.0909092,5.0238058e-7,-3.3636383)"
       gradientUnits="userSpaceOnUse" />
    <linearGradient
       inkscape:collect="always"
       xlink:href="#linearGradient4349"
       id="linearGradient4355"
       x1="5.2269888"
       y1="23.51753"
       x2="17.500265"
       y2="36.788929"
       gradientUnits="userSpaceOnUse"
       gradientTransform="translate(5.0238058e-7,-1)" />
    <linearGradient
       inkscape:collect="always"
       xlink:href="#linearGradient4349"
       id="linearGradient4240"
       x1="13"
       y1="17"
       x2="31"
       y2="35"
       gradientUnits="userSpaceOnUse"
       gradientTransform="translate(5.0238058e-7,-1)" />
  </defs>
  <path
     style="color:#000000;font-style:normal;font-variant:normal;font-weight:normal;font-stretch:normal;font-size:medium;line-height:normal;font-family:sans-serif;text-indent:0;text-align:start;text-decoration:none;text-decoration-line:none;text-decoration-style:solid;text-decoration-color:#000000;letter-spacing:normal;word-spacing:normal;text-transform:none;direction:ltr;block-progression:tb;writing-mode:lr-tb;baseline-shift:baseline;text-anchor:start;white-space:normal;clip-rule:nonzero;display:inline;overflow:visible;visibility:visible;opacity:1;isolation:auto;mix-blend-mode:normal;color-interpolation:sRGB;color-interpolation-filters:linearRGB;solid-color:#000000;solid-opacity:1;fill:url(#linearGradient4273);fill-opacity:1;fill-rule:evenodd;stroke:none;stroke-width:0.9999997;stroke-linecap:butt;stroke-linejoin:miter;stroke-miterlimit:10;stroke-dasharray:none;stroke-dashoffset:0;stroke-opacity:1;marker:none;color-rendering:auto;image-rendering:auto;shape-rendering:auto;text-rendering:auto;enable-background:accumulate"
     d="M 37.738383,7.0327891 C 37.423824,6.9846871 37.141223,7.15594 36.971332,7.3511485 36.801443,7.546357 36.683563,7.7882884 36.580907,8.093336 36.40337,8.6208846 35.751374,10.579408 33.400309,12.515211 31.049244,14.451017 26.994919,16.842214 19.968056,17.01683 14.628913,17.077875 11.360251,13.642455 10.000001,9 l 0,2.745345 -0.021691,7.710938 0.043382,0.101562 c 0,0 0.382783,0.821224 -0.02169,1.927735 -0.4044748,1.10651 -1.9996148,2.546687 -5.5642212,3.580078 l -0.4357803,0.125 0.082817,0.443359 c 0.1977185,1.073719 0.9858362,2.174143 2.1493184,3.300781 1.1634821,1.126639 2.7212818,2.266392 4.5352591,3.296875 3.627955,2.060967 8.27469,3.689479 12.789431,3.765625 4.51474,0.07615 8.932001,-1.448563 11.854772,-5.671875 2.922773,-4.223311 4.348195,-11.550949 3.180597,-22.0484933 l -0.002,-0.00391 0,-0.00391 C 38.55309,7.9808632 38.48727,7.7347625 38.369376,7.5191174 38.251481,7.303472 38.052943,7.0808909 37.738383,7.0327891 Z"
     id="path4323"
     inkscape:connector-curvature="0"
     sodipodi:nodetypes="sssscccccscccsssscccss" />
  <path
     inkscape:connector-curvature="0"
     style="color:#000000;font-style:normal;font-variant:normal;font-weight:normal;font-stretch:normal;font-size:medium;line-height:normal;font-family:sans-serif;text-indent:0;text-align:start;text-decoration:none;text-decoration-line:none;text-decoration-style:solid;text-decoration-color:#000000;letter-spacing:normal;word-spacing:normal;text-transform:none;direction:ltr;block-progression:tb;writing-mode:lr-tb;baseline-shift:baseline;text-anchor:start;white-space:normal;clip-rule:nonzero;display:inline;overflow:visible;visibility:visible;opacity:0.2;isolation:auto;mix-blend-mode:normal;color-interpolation:sRGB;color-interpolation-filters:linearRGB;solid-color:#000000;solid-opacity:1;fill:#000000;fill-opacity:1;fill-rule:evenodd;stroke:none;stroke-width:0.9999997;stroke-linecap:butt;stroke-linejoin:miter;stroke-miterlimit:10;stroke-dasharray:none;stroke-dashoffset:0;stroke-opacity:1;marker:none;color-rendering:auto;image-rendering:auto;shape-rendering:auto;text-rendering:auto;enable-background:accumulate"
     d="m 38.992189,14.84375 c -0.08219,6.538492 -1.42008,11.361294 -3.580079,14.482422 -2.922771,4.223312 -7.340728,5.748025 -11.855468,5.671875 C 19.041901,34.921901 14.395534,33.293389 10.767579,31.232422 8.9536018,30.201939 7.3959045,29.062186 6.2324224,27.935547 5.2472728,26.981594 4.5351322,26.044973 4.2187505,25.128906 l -0.21875,0.0625 0.082031,0.44336 c 0.1977185,1.073719 0.9869085,2.174143 2.1503907,3.300781 1.1634821,1.126639 2.7211794,2.266392 4.5351568,3.296875 3.627955,2.060967 8.274322,3.689479 12.789063,3.765625 4.51474,0.07615 8.932697,-1.448563 11.855468,-5.671875 2.26828,-3.27759 3.627602,-8.43479 3.580079,-15.482422 z m -29.0117197,3.619141 -0.00195,0.99414 0.042968,0.101563 c 0,0 0.06494,0.168797 0.113282,0.417968 0.150839,-0.837885 -0.113282,-1.417968 -0.113282,-1.417968 l -0.041015,-0.0957 z"
     id="path4219" />
  <path
     inkscape:connector-curvature="0"
     style="opacity:0.2;fill:url(#linearGradient4240);fill-opacity:1.0;stroke:none;stroke-width:2;stroke-linecap:round;stroke-linejoin:round;stroke-miterlimit:4;stroke-dasharray:none;stroke-opacity:1"
     d="M 16.435548,16.998047 9.9902349,23.443359 22.482423,35.935547 c 0.358251,0.0249 0.71705,0.05648 1.074219,0.0625 4.51474,0.07615 8.932697,-1.448563 11.855468,-5.671875 0.403481,-0.583016 0.775613,-1.232087 1.119141,-1.933594 L 25.335939,17.197266 20.984376,21.546875 16.435548,16.998047 Z"
     id="rect4222" />
  <g
     id="g4224"
     transform="translate(5.0238058e-7,-1)">
    <path
       inkscape:connector-curvature="0"
       id="path4259"
       d="M 13.499999,17 C 12.38871,17 11.271409,17.367747 10.41852,18.125962 9.5656317,18.884177 8.9997713,20.041023 9.0000001,21.5 8.9997713,22.958976 9.5656317,24.115822 10.41852,24.874037 11.271409,25.632253 12.38871,25.999999 13.499999,26 14.61129,26 15.730515,25.632253 16.583405,24.874037 17.436292,24.115822 18.000228,22.958976 18,21.5 18.000228,20.041023 17.436292,18.884177 16.583405,18.125962 15.730516,17.367747 14.61129,17 13.499999,17 Z"
       style="color:#000000;font-style:normal;font-variant:normal;font-weight:normal;font-stretch:normal;font-size:medium;line-height:normal;font-family:sans-serif;text-indent:0;text-align:start;text-decoration:none;text-decoration-line:none;text-decoration-style:solid;text-decoration-color:#000000;letter-spacing:normal;word-spacing:normal;text-transform:none;direction:ltr;block-progression:tb;writing-mode:lr-tb;baseline-shift:baseline;text-anchor:start;white-space:normal;clip-rule:nonzero;display:inline;overflow:visible;visibility:visible;opacity:1;isolation:auto;mix-blend-mode:normal;color-interpolation:sRGB;color-interpolation-filters:linearRGB;solid-color:#000000;solid-opacity:1;fill:url(#radialGradient4289);fill-opacity:1;fill-rule:evenodd;stroke:none;stroke-width:0.99999988;stroke-linecap:butt;stroke-linejoin:miter;stroke-miterlimit:10;stroke-dasharray:none;stroke-dashoffset:0;stroke-opacity:1;marker:none;color-rendering:auto;image-rendering:auto;shape-rendering:auto;text-rendering:auto;enable-background:accumulate" />
    <path
       style="color:#000000;font-style:normal;font-variant:normal;font-weight:normal;font-stretch:normal;font-size:medium;line-height:normal;font-family:sans-serif;text-indent:0;text-align:start;text-decoration:none;text-decoration-line:none;text-decoration-style:solid;text-decoration-color:#000000;letter-spacing:normal;word-spacing:normal;text-transform:none;direction:ltr;block-progression:tb;writing-mode:lr-tb;baseline-shift:baseline;text-anchor:start;white-space:normal;clip-rule:nonzero;display:inline;overflow:visible;visibility:visible;opacity:1;isolation:auto;mix-blend-mode:normal;color-interpolation:sRGB;color-interpolation-filters:linearRGB;solid-color:#000000;solid-opacity:1;fill:#000000;fill-opacity:1;fill-rule:evenodd;stroke:none;stroke-width:1.07215703;stroke-linecap:butt;stroke-linejoin:miter;stroke-miterlimit:10;stroke-dasharray:none;stroke-dashoffset:0;stroke-opacity:1;marker:none;color-rendering:auto;image-rendering:auto;shape-rendering:auto;text-rendering:auto;enable-background:accumulate"
       d="m 14,19 c -0.735109,0 -1.478266,0.243051 -2.050781,0.751953 C 11.376704,20.260855 11,21.044673 11,22 c 0,0.955326 0.376704,1.739145 0.949219,2.248047 C 12.521734,24.756949 13.264891,25 14,25 14.735109,25 15.478266,24.756949 16.050781,24.248047 16.623296,23.739145 17,22.955326 17,22 17,21.044673 16.623296,20.260855 16.050781,19.751953 15.478266,19.243051 14.735109,19 14,19 Z"
       id="path4320"
       inkscape:connector-curvature="0" />
    <path
       style="color:#000000;font-style:normal;font-variant:normal;font-weight:normal;font-stretch:normal;font-size:medium;line-height:normal;font-family:sans-serif;text-indent:0;text-align:start;text-decoration:none;text-decoration-line:none;text-decoration-style:solid;text-decoration-color:#000000;letter-spacing:normal;word-spacing:normal;text-transform:none;direction:ltr;block-progression:tb;writing-mode:lr-tb;baseline-shift:baseline;text-anchor:start;white-space:normal;clip-rule:nonzero;display:inline;overflow:visible;visibility:visible;opacity:1;isolation:auto;mix-blend-mode:normal;color-interpolation:sRGB;color-interpolation-filters:linearRGB;solid-color:#000000;solid-opacity:1;fill:#555555;fill-opacity:1;fill-rule:evenodd;stroke:none;stroke-width:1.07215703;stroke-linecap:butt;stroke-linejoin:miter;stroke-miterlimit:10;stroke-dasharray:none;stroke-dashoffset:0;stroke-opacity:1;marker:none;color-rendering:auto;image-rendering:auto;shape-rendering:auto;text-rendering:auto;enable-background:accumulate"
       d="m 14,20 c 0.515478,0 1.023414,0.174364 1.388045,0.49848 C 15.752675,20.822596 16,21.286948 16,22 16,22.713052 15.752675,23.177404 15.388045,23.50152 15.023414,23.825636 14.515478,24 14,24 13.484522,24 12.976586,23.825636 12.611955,23.50152 12.247325,23.177404 12,22.713052 12,22 12,21.286948 12.247325,20.822596 12.611955,20.49848 12.976586,20.174364 13.484522,20 14,20 Z"
       id="path4322"
       inkscape:connector-curvature="0" />
    <path
       inkscape:connector-curvature="0"
       id="path4324"
       style="color:#000000;display:inline;overflow:visible;visibility:visible;fill:#ffffff;fill-opacity:1;fill-rule:evenodd;stroke:none;stroke-width:0.9999997;stroke-linecap:butt;stroke-linejoin:miter;stroke-miterlimit:10;stroke-dasharray:none;stroke-dashoffset:0;stroke-opacity:1;marker:none;marker-start:none;marker-mid:none;marker-end:none"
       d="m 14,20.5 a 1.5,1.5 0 0 1 -3,0 1.5,1.5 0 1 1 3,0 z" />
  </g>
  <path
     inkscape:connector-curvature="0"
     id="path6480"
     style="color:#000000;display:inline;overflow:visible;visibility:visible;fill:url(#linearGradient4351);fill-opacity:1;fill-rule:evenodd;stroke:none;stroke-width:0.9999997;stroke-linecap:butt;stroke-linejoin:miter;stroke-miterlimit:10;stroke-dasharray:none;stroke-dashoffset:0;stroke-opacity:1;marker:none;marker-start:none;marker-mid:none;marker-end:none"
     d="m 16.000002,29.001996 c 6.562573,1.400513 9.904569,0.101924 11.860499,-1.509552 C 27.344048,26.780663 27.000001,26 27.000001,26 c 0,0 1.753513,0.679499 2.560494,1.790932 0.80467,1.108251 0.29878,1.791072 0.08819,3.209068 -0.468814,-1.245442 -1.343873,-1.712502 -1.462342,-2.207354 -1.759006,2.59451 -6.141431,2.48673 -12.186341,0.20935 z"
     sodipodi:nodetypes="cccsccc" />
  <path
     inkscape:connector-curvature="0"
     style="opacity:0.2;fill:url(#linearGradient4355);fill-opacity:1;stroke:none;stroke-width:2;stroke-linecap:round;stroke-linejoin:round;stroke-miterlimit:4;stroke-dasharray:none;stroke-opacity:1"
     d="M 5.6992193,20.695312 3.1699224,25.478516 3.3593755,28.671875 14.687501,40 28.382813,40 9.4316411,21.048828 5.6992193,20.695312 Z"
     id="rect4340" />
  <path
     style="color:#000000;display:inline;overflow:visible;visibility:visible;fill:url(#radialGradient4335);fill-opacity:1;fill-rule:evenodd;stroke:none;stroke-width:0.9999997;stroke-linecap:butt;stroke-linejoin:miter;stroke-miterlimit:10;stroke-dasharray:none;stroke-dashoffset:0;stroke-opacity:1;marker:none;marker-start:none;marker-mid:none;marker-end:none"
     d="m 5.1011379,19.000187 c -0.2440479,-0.0022 -0.4833734,0.01494 -0.716009,0.05181 -0.6203616,0.09837 -1.1947404,0.332781 -1.6899353,0.689006 -1.98077905,1.424897 -2.50243678,4.654223 -0.055818,8.03584 2.4466194,3.381618 5.6835966,3.90647 7.6643764,2.481573 1.980779,-1.424898 2.504362,-4.654224 0.05774,-8.035841 C 8.7559004,20.003391 6.8094733,19.015068 5.1011379,19.000182 Z"
     id="path5198"
     inkscape:connector-curvature="0" />
  <path
     style="color:#000000;font-style:normal;font-variant:normal;font-weight:normal;font-stretch:normal;font-size:medium;line-height:normal;font-family:sans-serif;text-indent:0;text-align:start;text-decoration:none;text-decoration-line:none;text-decoration-style:solid;text-decoration-color:#000000;letter-spacing:normal;word-spacing:normal;text-transform:none;direction:ltr;block-progression:tb;writing-mode:lr-tb;baseline-shift:baseline;text-anchor:start;white-space:normal;clip-rule:nonzero;display:inline;overflow:visible;visibility:visible;opacity:1;isolation:auto;mix-blend-mode:normal;color-interpolation:sRGB;color-interpolation-filters:linearRGB;solid-color:#000000;solid-opacity:1;fill:url(#radialGradient4281);fill-opacity:1;fill-rule:evenodd;stroke:none;stroke-width:0.99999964;stroke-linecap:butt;stroke-linejoin:miter;stroke-miterlimit:10;stroke-dasharray:none;stroke-dashoffset:0;stroke-opacity:1;marker:none;color-rendering:auto;image-rendering:auto;shape-rendering:auto;text-rendering:auto;enable-background:accumulate"
     d="m 21.999075,16 c -1.236949,0 -2.480112,0.408944 -3.426561,1.250231 -0.946449,0.841289 -1.572513,2.123381 -1.572513,3.750696 0,1.627313 0.626064,2.907553 1.572513,3.748842 C 19.518963,25.591056 20.762126,26 21.999075,26 c 1.236949,0 2.480112,-0.408944 3.426561,-1.250231 0.946449,-0.841289 1.574365,-2.121529 1.574365,-3.748842 0,-1.627315 -0.627916,-2.909407 -1.574365,-3.750696 C 24.479187,16.408944 23.236024,16 21.999075,16 Z"
     id="path4264"
     inkscape:connector-curvature="0" />
  <path
     d="m 36.967774,35.400437 0.926394,-1.844875 c -3.44633,-2.521335 -9.799311,-4.756349 -9.799311,-4.756349 -1.10122,-0.512948 -1.44875,0.476333 -0.686218,1.119425 0,0 5.433094,4.295402 9.559135,5.481799 z"
     style="color:#000000;display:inline;overflow:visible;visibility:visible;opacity:1;fill:url(#linearGradient6957);fill-opacity:1;fill-rule:nonzero;stroke:none;stroke-width:2.46045303;stroke-linecap:round;stroke-linejoin:miter;stroke-miterlimit:4;stroke-dasharray:none;stroke-dashoffset:0;stroke-opacity:1;marker:none;marker-start:none;marker-mid:none;marker-end:none"
     id="path6937"
     inkscape:connector-curvature="0"
     sodipodi:nodetypes="ccccc" />
  <path
     inkscape:connector-curvature="0"
     id="path4250"
     d="m 37.000001,32.000034 -0.483074,0.317687 c -0.447434,0.244909 -0.810437,0.661172 -1.104875,1.142591 -0.336916,0.791414 -0.469962,1.286319 -0.412051,2.059551 l 0.7,-0.119863 c 0,0 3.654923,1.048538 5.385122,1.6 l 0.202389,-0.389889 0.712489,-1.379051 -5,-2.561438 z"
     style="color:#000000;font-style:normal;font-variant:normal;font-weight:normal;font-stretch:normal;font-size:medium;line-height:normal;font-family:sans-serif;text-indent:0;text-align:start;text-decoration:none;text-decoration-line:none;text-decoration-style:solid;text-decoration-color:#000000;letter-spacing:normal;word-spacing:normal;text-transform:none;direction:ltr;block-progression:tb;writing-mode:lr-tb;baseline-shift:baseline;text-anchor:start;white-space:normal;clip-rule:nonzero;display:inline;overflow:visible;visibility:visible;opacity:1;isolation:auto;mix-blend-mode:normal;color-interpolation:sRGB;color-interpolation-filters:linearRGB;solid-color:#000000;solid-opacity:1;fill:#888a85;fill-opacity:1;fill-rule:nonzero;stroke:none;stroke-width:2.46045303;stroke-linecap:round;stroke-linejoin:miter;stroke-miterlimit:4;stroke-dasharray:none;stroke-dashoffset:0;stroke-opacity:1;marker:none;color-rendering:auto;image-rendering:auto;shape-rendering:auto;text-rendering:auto;enable-background:accumulate"
     sodipodi:nodetypes="cccccccccc" />
  <path
     d="m 47,42 c -1.246985,-4.051583 -1.689265,-7.268529 -4.948048,-6.98227 -2.626127,0.230686 -2.80998,3.832334 -0.09627,4.826197 C 44.569846,40.801332 46.999997,42 46.999997,42 Z"
     style="color:#000000;display:inline;overflow:visible;visibility:visible;opacity:1;fill:url(#radialGradient6969);fill-opacity:1;fill-rule:nonzero;stroke:none;stroke-width:0.2;stroke-linecap:round;stroke-linejoin:miter;stroke-miterlimit:4;stroke-dasharray:none;stroke-dashoffset:0;stroke-opacity:1;marker:none;marker-start:none;marker-mid:none;marker-end:none"
     id="path6933"
     inkscape:connector-curvature="0" />
  <g
     id="g4313"
     transform="translate(5.0238058e-7,-1)">
    <path
       inkscape:connector-curvature="0"
       id="path4311"
       d="m 23,20 c -0.735109,0 -1.478266,0.243051 -2.050781,0.751953 C 20.376704,21.260855 20,22.044673 20,23 c 0,0.955326 0.376704,1.739145 0.949219,2.248047 C 21.521734,25.756949 22.264891,26 23,26 23.735109,26 24.478266,25.756949 25.050781,25.248047 25.623296,24.739145 26,23.955326 26,23 26,22.044673 25.623296,21.260855 25.050781,20.751953 24.478266,20.243051 23.735109,20 23,20 Z"
       style="color:#000000;font-style:normal;font-variant:normal;font-weight:normal;font-stretch:normal;font-size:medium;line-height:normal;font-family:sans-serif;text-indent:0;text-align:start;text-decoration:none;text-decoration-line:none;text-decoration-style:solid;text-decoration-color:#000000;letter-spacing:normal;word-spacing:normal;text-transform:none;direction:ltr;block-progression:tb;writing-mode:lr-tb;baseline-shift:baseline;text-anchor:start;white-space:normal;clip-rule:nonzero;display:inline;overflow:visible;visibility:visible;opacity:1;isolation:auto;mix-blend-mode:normal;color-interpolation:sRGB;color-interpolation-filters:linearRGB;solid-color:#000000;solid-opacity:1;fill:#000000;fill-opacity:1;fill-rule:evenodd;stroke:none;stroke-width:1.07215703;stroke-linecap:butt;stroke-linejoin:miter;stroke-miterlimit:10;stroke-dasharray:none;stroke-dashoffset:0;stroke-opacity:1;marker:none;color-rendering:auto;image-rendering:auto;shape-rendering:auto;text-rendering:auto;enable-background:accumulate" />
    <path
       inkscape:connector-curvature="0"
       id="path4303"
       d="m 23,21 c 0.515478,0 1.023414,0.174364 1.388045,0.49848 C 24.752675,21.822596 25,22.286948 25,23 25,23.713052 24.752675,24.177404 24.388045,24.50152 24.023414,24.825636 23.515478,25 23,25 22.484522,25 21.976586,24.825636 21.611955,24.50152 21.247325,24.177404 21,23.713052 21,23 21,22.286948 21.247325,21.822596 21.611955,21.49848 21.976586,21.174364 22.484522,21 23,21 Z"
       style="color:#000000;font-style:normal;font-variant:normal;font-weight:normal;font-stretch:normal;font-size:medium;line-height:normal;font-family:sans-serif;text-indent:0;text-align:start;text-decoration:none;text-decoration-line:none;text-decoration-style:solid;text-decoration-color:#000000;letter-spacing:normal;word-spacing:normal;text-transform:none;direction:ltr;block-progression:tb;writing-mode:lr-tb;baseline-shift:baseline;text-anchor:start;white-space:normal;clip-rule:nonzero;display:inline;overflow:visible;visibility:visible;opacity:1;isolation:auto;mix-blend-mode:normal;color-interpolation:sRGB;color-interpolation-filters:linearRGB;solid-color:#000000;solid-opacity:1;fill:#555555;fill-opacity:1;fill-rule:evenodd;stroke:none;stroke-width:1.07215703;stroke-linecap:butt;stroke-linejoin:miter;stroke-miterlimit:10;stroke-dasharray:none;stroke-dashoffset:0;stroke-opacity:1;marker:none;color-rendering:auto;image-rendering:auto;shape-rendering:auto;text-rendering:auto;enable-background:accumulate" />
    <path
       d="m 23,21.5 a 1.5,1.5 0 0 1 -3,0 1.5,1.5 0 1 1 3,0 z"
       style="color:#000000;display:inline;overflow:visible;visibility:visible;fill:#ffffff;fill-opacity:1;fill-rule:evenodd;stroke:none;stroke-width:0.9999997;stroke-linecap:butt;stroke-linejoin:miter;stroke-miterlimit:10;stroke-dasharray:none;stroke-dashoffset:0;stroke-opacity:1;marker:none;marker-start:none;marker-mid:none;marker-end:none"
       id="path6466"
       inkscape:connector-curvature="0" />
  </g>
</svg>
