<?xml version="1.0" encoding="UTF-8" standalone="no"?>

<!-- Created with Inkscape (http://www.inkscape.org/) -->
<svg width="48" version="1.1" xmlns="http://www.w3.org/2000/svg" height="48" xmlns:xlink="http://www.w3.org/1999/xlink" xmlns:inkscape="http://www.inkscape.org/namespaces/inkscape">
 <defs id="defs5455">
  <linearGradient inkscape:collect="always" id="linearGradient4303">
   <stop style="stop-color:#c6cdd1" id="stop4305"/>
   <stop offset="1" style="stop-color:#e0e5e7" id="stop4307"/>
  </linearGradient>
  <linearGradient inkscape:collect="always" id="linearGradient4403" xlink:href="#linearGradient4303" y1="543.79797" y2="503.798" gradientUnits="userSpaceOnUse" x2="0" gradientTransform="matrix(1.125 0 0 1 -51.07145 -0.000002)"/>
  <linearGradient inkscape:collect="always" id="linearGradient4159">
   <stop style="stop-color:#2a2c2f" id="stop4161"/>
   <stop offset="1" style="stop-color:#424649" id="stop4163"/>
  </linearGradient>
  <linearGradient inkscape:collect="always" xlink:href="#linearGradient4159" id="linearGradient4359" y1="523.79797" x1="408.57144" y2="503.798" x2="408.57147" gradientUnits="userSpaceOnUse"/>
  <linearGradient inkscape:collect="always" xlink:href="#linearGradient4159" id="linearGradient4380" y1="542.79077" y2="530.79077" x2="0" gradientUnits="userSpaceOnUse"/>
  <linearGradient inkscape:collect="always" xlink:href="#linearGradient4410" id="linearGradient4425" y1="29" x1="25" y2="43.999973" x2="39.999973" gradientUnits="userSpaceOnUse"/>
  <linearGradient inkscape:collect="always" id="linearGradient4410">
   <stop style="stop-color:#383e51" id="stop4412"/>
   <stop offset="1" style="stop-color:#655c6f;stop-opacity:0" id="stop4414"/>
  </linearGradient>
 </defs>
 <metadata id="metadata5458"/>
 <g inkscape:label="Capa 1" inkscape:groupmode="layer" id="layer1" transform="matrix(1 0 0 1 -384.57143 -499.798)">
  <rect width="36.00001" x="390.57144" y="523.79797" height="19.999973" style="stroke-opacity:0.550265;fill:url(#linearGradient4403);stroke-width:2.8" id="rect4319"/>
  <rect width="36" x="390.57144" y="503.798" height="19.999996" style="fill:url(#linearGradient4359)" id="rect4289"/>
  <path inkscape:label="Capa 1" inkscape:connector-curvature="0" style="fill:url(#linearGradient4380)" id="rect4113" d="m 382.8643,530.79077 -10.43876,10.56644 -4.14699,-4.19772 -0.70712,0.71578 4.14699,4.1977 -0.002,0.002 0.70713,0.71577 0.002,-0.002 0.002,0.002 0.70711,-0.71577 -0.002,-0.002 10.43877,-10.56645 -0.70712,-0.71576 z" transform="matrix(1 0 0 1 41 -2.99275)"/>
  <path style="fill:url(#linearGradient4425);opacity:0.2;fill-rule:evenodd" id="path4414" d="M 40.001953 28.716797 L 28.855469 40 L 32.808594 44 L 42 44 L 42 30.740234 L 40.001953 28.716797 z " transform="matrix(1 0 0 1 384.57143 499.798)"/>
  <rect width="35.999989" x="390.57144" y="542.79797" height="1" style="stroke-opacity:0.550265;fill:#99a1a7;stroke-width:2.8" id="rect4492"/>
 </g>
</svg>
