<?xml version="1.0" encoding="UTF-8"?>
<svg width="48" height="48" version="1.1" viewBox="0 0 12.7 12.7" xmlns="http://www.w3.org/2000/svg" xmlns:cc="http://creativecommons.org/ns#" xmlns:dc="http://purl.org/dc/elements/1.1/" xmlns:rdf="http://www.w3.org/1999/02/22-rdf-syntax-ns#">
 <defs>
  <linearGradient id="linearGradient967" x1="24" x2="24" y1="294" y2="257" gradientTransform="matrix(.26458337 0 0 .25852708 -1.9777475e-6 -64.355077)" gradientUnits="userSpaceOnUse">
   <stop stop-color="#1d99f3" offset="0"/>
   <stop stop-color="#3daee9" offset="1"/>
  </linearGradient>
  <linearGradient id="linearGradient1008" x1="24" x2="24" y1="294" y2="257" gradientTransform="matrix(1.0000001 0 0 .97711022 -7.4749512e-6 -243.23179)" gradientUnits="userSpaceOnUse">
   <stop stop-color="#27ae60" offset="0"/>
   <stop stop-color="#2ecc71" offset="1"/>
  </linearGradient>
  <linearGradient id="linearGradient3691" x1="120.39682" x2="120.34652" y1="23.021145" y2="32.414047" gradientTransform="matrix(1.3776 .37578202 -.46370298 1.7617644 -116.71956 -68.71002)" gradientUnits="userSpaceOnUse">
   <stop stop-color="#bdc3c7" offset="0"/>
   <stop stop-color="#fff" offset="1"/>
  </linearGradient>
  <linearGradient id="linearGradient3701" x1="119.85059" x2="119.85059" y1="27.383589" y2="33.01519" gradientTransform="matrix(.36448999 .09942566 -.12268808 .46613349 -30.882051 -18.179526)" gradientUnits="userSpaceOnUse">
   <stop stop-color="#7f8c8d" offset="0"/>
   <stop stop-color="#95a5a6" offset="1"/>
  </linearGradient>
  <linearGradient id="linearGradient3709" x1="112.7049" x2="112.7049" y1="30.894091" y2="32.711887" gradientTransform="matrix(.36448999 .09942566 -.12268808 .46613349 -30.882051 -18.179526)" gradientUnits="userSpaceOnUse">
   <stop stop-color="#2c3e50" offset="0"/>
   <stop stop-color="#34495e" offset="1"/>
  </linearGradient>
  <linearGradient id="linearGradient1642" x1="31" x2="31" y1="-21.230349" y2="36" gradientTransform="matrix(1.0000001 0 0 1.0009422 -7.4749512e-6 -.00282607)" gradientUnits="userSpaceOnUse">
   <stop stop-color="#2980b9" offset="0"/>
   <stop stop-color="#3daee9" stop-opacity="0" offset="1"/>
  </linearGradient>
 </defs>
 <metadata>
  <rdf:RDF>
   <cc:Work rdf:about="">
    <dc:format>image/svg+xml</dc:format>
    <dc:type rdf:resource="http://purl.org/dc/dcmitype/StillImage"/>
    <dc:title/>
   </cc:Work>
  </rdf:RDF>
 </metadata>
 <rect x="1.0583333" y="1.0583338" width="10.583333" height="10.583333" rx="1.5860056" ry="1.5874997" fill="#34495e" stroke-width=".26470798" style="paint-order:markers fill stroke"/>
 <rect x="1.0583333" y="1.0583338" width="10.583333" height="10.318749" rx="1.5860056" ry="1.5874997" fill="url(#linearGradient967)" stroke-width=".26470798" style="paint-order:markers fill stroke"/>
 <path transform="scale(.26458333)" d="m30 7.0039062v1h-3v3.0039058h3l1 25.023438h13v-15.947266l-14-13.080078z" fill="url(#linearGradient1642)" stroke-width="1.0004711"/>
 <path transform="scale(.26458333)" d="m4.0019531 37.03125c0.0169102 3.309317 2.6818654 5.96875 5.9921875 5.96875h28.011718c3.310323 0 5.975278-2.659433 5.992188-5.96875h-39.996094z" fill="url(#linearGradient1008)" stroke-width="1.0004711" style="paint-order:markers fill stroke"/>
 <g transform="matrix(.26458337 0 0 .26483263 -1.9777475e-6 -.00074773007)" fill="#2980b9">
  <path transform="scale(.26458333)" d="m86.929688 26.457031v3.779297h11.33789v11.337891h-18.898437v3.779297h-7.558594l7.558594 22.677734h-18.896485l11.337891 26.457031h11.339844v41.574219h34.015629v-41.574219h11.33789l11.33789-26.457031h-18.89649l7.5586-22.677734h-7.5586v-3.779297h-18.89843v-11.337891h11.33984v-3.779297z" fill="#2980b9" style="paint-order:normal"/>
 </g>
 <path transform="scale(.26458333)" d="m12.589844 18.882812c-1.31411 0.046155-2.6146896 0.348246-3.7753909 1.074219-1.7553256 1.097893-4.5099022 1.067273-2.7617187 3.113281 2.6974983 3.157075 6.8557066 3.847408 10.66211 5.021485 6.315642 1.36154 12.475233 3.329061 18.707031 5.019531 2.241703 0.735305 5.456773 0.988142 8.578125 1.025391v-7.085938c-9.150195-2.753185-20.671599-6.036832-27.552734-7.708984-1.215764-0.295439-2.543312-0.505139-3.857422-0.458985z" fill="url(#linearGradient3691)" stroke-width="1.6128415"/>
 <path d="m5.717164 7.259701c-0.0810626-0.0221123-0.1683313 0.043578-0.1956163 0.1472428l-0.1273086 0.4836885c-0.027285 0.1036649 0.016029 0.2049749 0.097091 0.2270871l1.3337418 0.3638184c0.068768 0.018759 0.1415181-0.0261 0.178798-0.1032928 0.121816 0.00733 0.2436582 0.014649 0.3654693 0.021983 0.0386542-0.1274166 0.0773022-0.2548099 0.1159562-0.382226-0.1099574-0.0766369-0.2199614-0.15329-0.3299187-0.2299274-1.99e-4 -0.0789481-0.0398434-0.1467028-0.1040846-0.1644498-9.82e-5 -2.78e-5 -2.916e-4 -7.96e-5 -3.645e-4 -9.95e-5z" fill="url(#linearGradient3709)" stroke-width=".42673099" style="paint-order:normal"/>
 <g transform="matrix(.36448999 .09942566 -.12268808 .46613349 -30.882051 -18.179526)" fill="#232629">
  <path d="m101.21759 28.533143c-0.13528 0.0901-0.26674 0.184668-0.39067 0.288869-0.0513 0.04317-0.1063 0.08418-0.16175 0.125058 0.54774 0.14773 1.06955 0.284673 1.62213 0.03152l0.0615-0.309025c-0.4224-0.02919-0.83082-0.06324-1.1312-0.136424z"/>
  <rect x="105.44054" y="28.747101" width=".50766045" height=".60045862" rx=".25383022" ry=".25383022" style="paint-order:normal"/>
  <rect x="106.49887" y="28.747101" width=".50766045" height=".60045862" rx=".25383022" ry=".25383022" style="paint-order:normal"/>
  <rect x="107.55721" y="28.747101" width=".50766045" height=".60045862" rx=".25383022" ry=".25383022" style="paint-order:normal"/>
  <rect x="108.61554" y="28.747101" width=".50766045" height=".60045862" rx=".25383022" ry=".25383022" style="paint-order:normal"/>
  <rect x="109.67387" y="28.747101" width=".50766045" height=".60045862" rx=".25383022" ry=".25383022" style="paint-order:normal"/>
  <rect x="110.73219" y="28.747101" width=".50766045" height=".60045862" rx=".25383022" ry=".25383022" style="paint-order:normal"/>
  <rect x="111.79049" y="28.747101" width=".50766045" height=".60045862" rx=".25383022" ry=".25383022" style="paint-order:normal"/>
  <rect x="112.84885" y="28.747101" width=".50766045" height=".60045862" rx=".25383022" ry=".25383022" style="paint-order:normal"/>
  <rect x="113.90718" y="28.747101" width=".50766045" height=".60045862" rx=".25383022" ry=".25383022" style="paint-order:normal"/>
  <rect x="114.96552" y="28.747101" width=".50766045" height=".60045862" rx=".25383022" ry=".25383022" style="paint-order:normal"/>
  <rect x="116.02385" y="28.747101" width=".50766045" height=".60045862" rx=".25383022" ry=".25383022" style="paint-order:normal"/>
  <rect x="117.08216" y="28.747101" width=".50766045" height=".60045862" rx=".25383022" ry=".25383022" style="paint-order:normal"/>
  <rect x="118.14051" y="28.747101" width=".50766045" height=".60045862" rx=".25383022" ry=".25383022" style="paint-order:normal"/>
  <rect x="119.19883" y="28.747101" width=".50766045" height=".60045862" rx=".25383022" ry=".25383022" style="paint-order:normal"/>
  <rect x="120.25716" y="28.747101" width=".50766045" height=".60045862" rx=".25383022" ry=".25383022" style="paint-order:normal"/>
  <rect x="121.31549" y="28.747101" width=".50766045" height=".60045862" rx=".25383022" ry=".25383022" style="paint-order:normal"/>
  <rect x="122.37383" y="28.747101" width=".50766045" height=".60045862" rx=".25383022" ry=".25383022" style="paint-order:normal"/>
  <rect x="123.43217" y="28.747101" width=".50766045" height=".60045862" rx=".25383022" ry=".25383022" style="paint-order:normal"/>
  <rect x="124.49049" y="28.747101" width=".50766045" height=".60045862" rx=".25383022" ry=".25383022" style="paint-order:normal"/>
  <rect x="125.54883" y="28.747101" width=".50766045" height=".60045862" rx=".25383022" ry=".25383022" style="paint-order:normal"/>
 </g>
 <path d="m5.4731071 7.1931041 2.4394758 0.1579367 1.9655768 0.1218919 1.2813043-0.8537429 0.243786 0.0664998-0.804992 1.0491242-1.1498457 0.1717816-1.4679166-0.0295252z" fill="url(#linearGradient3701)" opacity=".98999999" stroke-width=".42673099"/>
 <path transform="scale(.26458333)" d="m4 36.03125v0.96875c0 0.353022 0.0358671 0.697228 0.09375 1.033203h39.8125c0.057883-0.335975 0.09375-0.680181 0.09375-1.033203v-0.96875h-40z" fill="#34495e" stroke-width="1.000471" style="paint-order:normal"/>
</svg>
