<?xml version="1.0" encoding="UTF-8" standalone="no"?>
<!-- Created with Inkscape (http://www.inkscape.org/) -->

<svg
   xmlns:dc="http://purl.org/dc/elements/1.1/"
   xmlns:cc="http://creativecommons.org/ns#"
   xmlns:rdf="http://www.w3.org/1999/02/22-rdf-syntax-ns#"
   xmlns:svg="http://www.w3.org/2000/svg"
   xmlns="http://www.w3.org/2000/svg"
   xmlns:xlink="http://www.w3.org/1999/xlink"
   xmlns:sodipodi="http://sodipodi.sourceforge.net/DTD/sodipodi-0.dtd"
   xmlns:inkscape="http://www.inkscape.org/namespaces/inkscape"
   width="48"
   height="48"
   id="svg5453"
   version="1.1"
   inkscape:version="0.91 r13725"
   sodipodi:docname="jdownloader.svg"
   viewBox="0 0 48 48"
   inkscape:export-filename="jdownloader.svg.png"
   inkscape:export-xdpi="240"
   inkscape:export-ydpi="240">
  <defs
     id="defs5455">
    <linearGradient
       inkscape:collect="always"
       id="linearGradient4290-6">
      <stop
         style="stop-color:#f2a922;stop-opacity:1"
         offset="0"
         id="stop4212" />
      <stop
         style="stop-color:#f3d23b;stop-opacity:1"
         offset="1"
         id="stop4214" />
    </linearGradient>
    <linearGradient
       inkscape:collect="always"
       xlink:href="#linearGradient4290"
       id="linearGradient4161-1-2"
       x1="16.000011"
       y1="29.999973"
       x2="16.000011"
       y2="1.999974"
       gradientUnits="userSpaceOnUse"
       gradientTransform="matrix(1.2163616,0,0,1.2166071,389.04309,504.32714)" />
    <linearGradient
       id="linearGradient4290"
       inkscape:collect="always">
      <stop
         id="stop4292"
         offset="0"
         style="stop-color:#4bbe00;stop-opacity:1" />
      <stop
         id="stop4294"
         offset="1"
         style="stop-color:#b9f017;stop-opacity:1" />
    </linearGradient>
    <linearGradient
       inkscape:collect="always"
       id="linearGradient4143-3">
      <stop
         id="stop4147-7"
         offset="0"
         style="stop-color:#00adfc;stop-opacity:1" />
      <stop
         id="stop4145-3"
         offset="1"
         style="stop-color:#2d69dd;stop-opacity:1" />
    </linearGradient>
    <linearGradient
       inkscape:collect="always"
       xlink:href="#linearGradient4143-3"
       id="linearGradient4265"
       x1="408.57144"
       y1="508.798"
       x2="408.57144"
       y2="542.79797"
       gradientUnits="userSpaceOnUse" />
    <linearGradient
       inkscape:collect="always"
       xlink:href="#linearGradient4290-6"
       id="linearGradient4208"
       x1="68.000015"
       y1="9"
       x2="68.000015"
       y2="-29.999996"
       gradientUnits="userSpaceOnUse" />
  </defs>
  <sodipodi:namedview
     id="base"
     pagecolor="#ffffff"
     bordercolor="#666666"
     borderopacity="1.0"
     inkscape:pageopacity="0"
     inkscape:pageshadow="2"
     inkscape:zoom="11.313708"
     inkscape:cx="18.758009"
     inkscape:cy="17.445283"
     inkscape:document-units="px"
     inkscape:current-layer="layer1"
     showgrid="true"
     fit-margin-top="0"
     fit-margin-left="0"
     fit-margin-right="0"
     fit-margin-bottom="0"
     inkscape:window-width="1920"
     inkscape:window-height="1006"
     inkscape:window-x="0"
     inkscape:window-y="0"
     inkscape:window-maximized="1"
     inkscape:showpageshadow="false"
     borderlayer="true"
     showguides="true"
     inkscape:object-nodes="true">
    <inkscape:grid
       type="xygrid"
       id="grid4063" />
    <sodipodi:guide
       position="1.1650391e-05,47.999996"
       orientation="4,0"
       id="guide4146" />
    <sodipodi:guide
       position="1.1650391e-05,43.999996"
       orientation="0,48"
       id="guide4148" />
    <sodipodi:guide
       position="48.000012,43.999996"
       orientation="-4,0"
       id="guide4150" />
    <sodipodi:guide
       position="48.000012,47.999996"
       orientation="0,-48"
       id="guide4152" />
    <sodipodi:guide
       position="1.1650391e-05,4.0000264"
       orientation="4,0"
       id="guide4154" />
    <sodipodi:guide
       position="1.1650391e-05,2.6367188e-05"
       orientation="0,48"
       id="guide4156" />
    <sodipodi:guide
       position="48.000012,2.6367188e-05"
       orientation="-4,0"
       id="guide4158" />
    <sodipodi:guide
       position="48.000012,4.0000264"
       orientation="0,-48"
       id="guide4160" />
    <sodipodi:guide
       position="48.000012,48.000026"
       orientation="0,-4"
       id="guide4162" />
    <sodipodi:guide
       position="44.000012,2.6367188e-05"
       orientation="0,4"
       id="guide4166" />
    <sodipodi:guide
       position="48.000012,2.6367188e-05"
       orientation="-48,0"
       id="guide4168" />
    <sodipodi:guide
       position="4.0000422,48.000026"
       orientation="0,-4"
       id="guide4170" />
    <sodipodi:guide
       position="4.2167969e-05,48.000026"
       orientation="48,0"
       id="guide4172" />
    <sodipodi:guide
       position="4.2167969e-05,2.6367188e-05"
       orientation="0,4"
       id="guide4174" />
    <sodipodi:guide
       position="4.0000422,2.6367188e-05"
       orientation="-48,0"
       id="guide4176" />
    <sodipodi:guide
       position="4.0000117,47.999996"
       orientation="43.999969,0"
       id="guide4638" />
    <sodipodi:guide
       position="4.0000117,4.0000264"
       orientation="0,20"
       id="guide4640" />
    <sodipodi:guide
       position="24.000012,4.0000264"
       orientation="-43.999969,0"
       id="guide4642" />
    <sodipodi:guide
       position="24.000012,47.999996"
       orientation="0,-20"
       id="guide4644" />
    <sodipodi:guide
       position="4.0000422,24.000026"
       orientation="20,0"
       id="guide4666" />
    <sodipodi:guide
       position="4.0000422,4.0000264"
       orientation="0,39.999969"
       id="guide4668" />
    <sodipodi:guide
       position="44.000012,4.0000264"
       orientation="-20,0"
       id="guide4670" />
  </sodipodi:namedview>
  <metadata
     id="metadata5458">
    <rdf:RDF>
      <cc:Work
         rdf:about="">
        <dc:format>image/svg+xml</dc:format>
        <dc:type
           rdf:resource="http://purl.org/dc/dcmitype/StillImage" />
        <dc:title />
      </cc:Work>
    </rdf:RDF>
  </metadata>
  <g
     inkscape:label="Capa 1"
     inkscape:groupmode="layer"
     id="layer1"
     transform="translate(-384.57143,-499.798)"
     style="opacity:1">
    <ellipse
       style="opacity:1;fill:url(#linearGradient4265);fill-opacity:1;stroke:none;stroke-width:4;stroke-miterlimit:4;stroke-dasharray:none;stroke-dashoffset:0;stroke-opacity:1"
       id="path3377"
       cx="408.56891"
       cy="523.79895"
       rx="19.998217"
       ry="20.002254" />
    <path
       style="fill:url(#linearGradient4161-1-2);fill-opacity:1;fill-rule:nonzero;stroke:none;stroke-width:0.69999957"
       d="m 408.53627,507.57925 c -2.04534,0 -3.99188,0.39095 -5.79101,1.07617 -0.13082,0.12026 -0.30095,0.21262 -0.43555,0.20117 -0.0185,-0.002 -0.0378,-0.015 -0.0566,-0.0215 -0.88686,0.3711 -1.72768,0.82605 -2.52539,1.3418 0.10365,0.16831 0.13347,0.35624 -0.0801,0.44726 -0.0359,0.0152 -0.48699,0.06 -0.64453,0.0566 -2.26845,1.64864 -4.08691,3.86654 -5.25,6.45508 0.0187,-0.003 0.0338,-0.0107 0.0527,-0.0117 0.17653,-0.003 0.43201,0.0479 0.60156,0.084 0.15646,0.0321 0.28257,0.1363 0.41797,0.14648 0.38428,0.0292 0.47555,-0.27006 0.78906,-0.4375 0.32391,0.0459 0.5395,-0.0542 0.83203,-0.0215 0.19942,0.022 0.34264,0.23412 0.49805,0.24609 0.13069,0.0135 0.24656,-0.12084 0.37304,-0.10156 0.12289,0.0189 0.33548,0.28533 0.35547,0.43554 0.0255,0.18696 -0.13764,0.35518 -0.084,0.56055 0.19581,0.19946 0.55028,0.24055 0.83008,0.35547 0.18223,-0.15019 0.024,-0.42906 0,-0.64648 -0.003,-0.0957 0.0135,-0.18135 0,-0.26954 -0.0169,-0.14971 -0.0809,-0.28592 -0.082,-0.41406 -0.003,-0.5918 0.47816,-0.86985 0.875,-1.10351 0.1718,-0.10184 0.30604,-0.27895 0.45507,-0.35352 0.21052,-0.10567 0.36866,-0.13058 0.54297,-0.22852 0.31495,-0.17697 0.58379,-0.319 0.83008,-0.51953 0.11385,-0.26833 0.0126,-0.62737 0.0215,-0.89257 0.11398,-0.0698 0.21124,0.0294 0.33204,0.0195 0.19006,-0.0394 0.20674,-0.30894 0.31445,-0.41602 0.0622,-0.0612 0.23279,-0.10502 0.31055,-0.16601 0.18939,-0.14862 0.25058,-0.37345 0.41601,-0.4375 0.059,-0.0238 0.19746,-0.0157 0.29102,-0.041 0.12312,-0.0326 0.29753,-0.17929 0.49804,-0.24805 0.13068,-0.0459 0.4306,-0.0532 0.48047,-0.10351 0.0613,-0.0624 -0.002,-0.24008 0.0195,-0.33399 0.10078,-0.46948 0.80867,-0.56848 1.22657,-0.72656 0.29293,-0.11088 0.59416,-0.31434 0.91601,-0.25195 -0.0629,0.22313 -0.36331,0.14506 -0.3125,0.41601 0.0703,0.37599 0.57422,-0.10853 0.70703,-0.16406 0.25366,-0.10693 0.68865,-0.17219 1.02149,-0.29297 0.29185,-0.10693 0.81413,-0.26964 0.53906,-0.60351 -0.22943,-0.0135 -0.33908,0.26995 -0.53906,0.35546 -0.13813,0.0221 -0.11262,-0.11592 -0.23047,-0.12695 -0.11201,-0.0135 -0.17397,0.10352 -0.28906,0.084 -0.11455,-0.0189 -0.27508,-0.20019 -0.29297,-0.33399 -0.0459,-0.34715 0.2918,-0.48911 0.43554,-0.74805 -0.095,-0.31401 -0.52855,-0.0645 -0.79101,-0.1875 0.0254,-0.18696 0.21914,-0.31581 0.4375,-0.35156 0.17897,-0.03 0.58092,-0.0154 0.6875,0.0801 0.0616,0.0528 0.004,0.18428 0.10351,0.27148 0.10609,0.0957 0.23554,0.0868 0.37305,0.0645 0.0492,-0.23694 -0.30645,-0.17926 -0.26758,-0.33594 0.28086,-0.18376 0.7362,-0.0331 1.08008,-0.084 0.19794,-0.0292 0.4066,-0.16889 0.58203,-0.26758 0.16685,-0.0946 0.3835,-0.25899 0.56055,-0.10352 0.0476,0.16982 -0.15358,0.22611 -0.24805,0.31055 -0.31816,0.28305 -0.64725,0.6068 -0.89453,0.93555 0.1517,0.148 0.42885,0.0747 0.68555,0.10546 0.10035,0.0135 0.22594,0.0415 0.33203,0.0605 0.12427,0.0221 0.25646,0.0171 0.35352,0.043 0.17467,0.0428 0.22156,0.22852 0.39453,0.22852 0.28444,-5.1e-4 0.28816,-0.30774 0.12695,-0.5 0.051,-0.19627 0.12932,-0.29806 0.0605,-0.43555 -0.12811,-0.25633 -0.59695,-0.0129 -0.6211,-0.33203 -0.0152,-0.20739 0.17287,-0.19841 0.24805,-0.35352 -0.0341,-0.40064 0.32782,-0.42995 0.28906,-0.78906 -0.0168,-0.15025 -0.14283,-0.15221 -0.24804,-0.29297 -0.0528,-0.0687 -0.08,-0.20217 -0.14063,-0.26172 -0.48518,-0.0427 -0.97582,-0.0684 -1.47266,-0.0684 l 0,-0.002 z m -8.36914,3.27148 0.002,0 c 0.0967,0.0135 0.2148,0.11794 0.33203,0.12696 0.11085,0.003 0.20315,-0.0593 0.27148,-0.041 0.17386,0.046 0.24551,0.30682 0.082,0.43555 -0.13589,0.0168 -0.18853,-0.0588 -0.29101,-0.041 -0.28239,0.048 -0.39051,0.60229 -0.60156,0.58399 -0.19899,-0.0168 -0.30585,-0.50211 -0.10352,-0.64649 0.0135,-0.12612 -0.0924,-0.1469 -0.0859,-0.27148 0.0594,-0.0766 0.22976,-0.15906 0.39453,-0.14649 z m -0.93554,0.0664 c 0.0573,0.002 0.10065,0.0155 0.12304,0.041 -0.0275,0.22167 -0.19995,0.20724 -0.37109,0.31054 -0.29563,0.17848 -0.46648,0.45086 -0.56055,0.83203 -0.0272,0.11087 -0.31828,0.40442 -0.45898,0.375 -0.32972,-0.0696 0.0907,-0.67716 0.16601,-0.76953 0.0837,-0.10237 0.19496,-0.1923 0.29297,-0.31054 0.0946,-0.11457 0.15643,-0.27047 0.24805,-0.33399 0.10025,-0.0694 0.38686,-0.15126 0.56055,-0.14453 z m 2.46093,0.74805 c 0.10567,0.002 0.20084,0.0175 0.24414,0.0605 -0.0677,0.27465 -0.65866,0.20285 -0.875,0.10352 0.0135,-0.10354 0.17447,-0.13297 0.31055,-0.14648 0.0957,-0.003 0.21489,-0.0208 0.32031,-0.0176 z m -1.3457,0.50586 c 0.0702,-0.002 0.14099,0.0137 0.21484,0.0332 -0.19134,0.16009 -0.39795,0.25147 -0.72656,0.35547 -0.15799,0.0498 -0.43025,0.1105 -0.45703,-0.0664 -0.0326,-0.2163 0.23072,-0.16619 0.375,-0.18554 0.18164,-0.0251 0.38093,-0.12982 0.59375,-0.13672 z m 20.65039,1.23242 c -0.0246,0.0593 -0.0418,0.1169 -0.0391,0.17383 0.0135,0.10036 0.12196,0.19822 0.14648,0.33398 0.0135,0.0723 -0.0337,0.22734 0,0.29297 0.10004,0.19418 0.36141,0.0539 0.54883,0.0644 -0.21291,-0.29326 -0.42455,-0.58739 -0.65625,-0.86523 z m 1.0625,1.42969 c -0.0298,0.1433 -0.1264,0.33149 -0.20508,0.45117 -0.18126,0.27572 -0.42762,0.28853 -0.6875,0.43554 -0.21673,0.1229 -0.31042,0.32727 -0.4375,0.54102 -0.13769,0.23088 -0.22275,0.37057 -0.16601,0.70508 -0.18581,0.3686 -0.46672,0.59421 -0.85156,0.76953 -0.11388,0.0515 -0.27058,0.0715 -0.375,0.14648 -0.0833,0.0596 -0.12984,0.22075 -0.24805,0.35352 -0.14579,0.16231 -0.29833,0.22948 -0.375,0.35352 -0.059,0.0957 -0.0809,0.28741 -0.14649,0.41601 -0.0885,0.17463 -0.27798,0.25858 -0.39453,0.43555 -0.0528,0.0822 -0.0875,0.24832 -0.14648,0.35547 -0.13175,0.23942 -0.35619,0.41248 -0.33203,0.62304 0.0238,0.20351 0.25379,0.23859 0.26953,0.41602 0.003,0.10025 -0.0647,0.1622 -0.0605,0.27148 0.003,0.15955 0.11087,0.27174 0.12305,0.39453 0.0309,0.30876 -0.10586,0.4315 -0.16406,0.64258 -0.0275,0.10079 -0.0159,0.2142 -0.043,0.29297 -0.0512,0.15455 -0.26523,0.29381 -0.26953,0.47656 -0.002,0.1299 0.1336,0.23374 0.14453,0.41602 0.003,0.12585 -0.0632,0.26139 -0.041,0.37695 0.0443,0.22629 0.44913,0.48826 0.625,0.66407 0.23521,0.23527 0.54317,0.41811 0.64453,0.66601 0.0854,0.21051 0.084,0.48389 0.24805,0.64258 0.12124,0.11716 0.32319,0.19067 0.47852,0.3125 0.14495,0.11377 0.30215,0.21136 0.45703,0.33203 0.25306,0.19803 0.6359,0.59294 1.03906,0.5625 0.21055,-0.0152 0.42717,-0.18804 0.66601,-0.23047 0.24567,-0.0441 0.56465,-0.0667 0.8125,-0.041 0.18985,0.0186 0.38467,0.13407 0.58204,0.125 0.20838,-0.0135 0.4468,-0.16804 0.68359,-0.27149 0.19051,-0.083 0.42504,-0.17468 0.68164,-0.24219 0.11777,-0.79114 0.17969,-1.6028 0.17969,-2.42773 0,-3.32115 -0.99215,-6.39912 -2.69141,-8.96484 z m -26.82031,5.45117 c -0.34538,0.0188 -0.57126,0.0342 -0.76758,0.12304 -0.44992,0.20478 -0.36304,0.8132 -0.8125,0.95704 -0.15544,0.0498 -0.36991,0.0523 -0.54101,0.084 -0.14774,0.027 -0.32627,0.10675 -0.47852,0.10352 -0.0427,-5.7e-4 -0.10323,-0.0318 -0.15625,-0.0488 -0.0399,0.28512 -0.0725,0.57349 -0.0977,0.86328 0.42758,0.0822 0.64742,0.6484 1.02539,0.83594 0.10354,0.0513 0.23974,0.0543 0.37305,0.084 0.1075,0.0238 0.18932,0.0702 0.29297,0.10547 0.21992,0.0747 0.49011,0.0658 0.66602,0.14453 0.26503,0.11764 0.45762,0.61467 0.68554,0.74805 0.0135,0.13433 -0.0251,0.31583 0.0215,0.41601 0.1076,0.14611 0.26008,0.11379 0.4375,0.20899 0.21219,0.11458 0.27741,0.40964 0.47851,0.5 0.0694,0.0308 0.24187,0.0267 0.35156,0.0605 0.27559,0.0833 0.36532,0.40174 0.60157,0.33204 0.15493,-0.0459 0.14283,-0.2054 0.16797,-0.35352 0.10238,-0.11087 0.21534,-0.28595 0.375,-0.28906 0.25832,-0.0135 0.28106,0.26665 0.375,0.51758 0.0528,0.14184 0.19227,0.26642 0.22851,0.41601 0.0643,0.25843 0.031,1.0311 -0.0234,1.18555 -0.0651,0.18949 -0.32036,0.27038 -0.47851,0.48047 -0.0747,0.0984 -0.10988,0.24331 -0.16602,0.3125 -0.10185,0.12414 -0.2539,0.1551 -0.33008,0.26953 -0.0433,0.0643 -0.085,0.20386 -0.12695,0.29101 -0.12486,0.26461 -0.2925,0.45186 -0.1875,0.76954 0.0441,0.13071 0.24947,0.21722 0.25,0.37109 5.8e-4,0.18105 -0.38616,0.34447 -0.41601,0.54297 -0.0221,0.14774 0.11903,0.41135 0.16601,0.60351 0.0344,0.14526 0.30892,0.23542 0.39453,0.33203 0.14593,0.16387 0.26318,0.39571 0.39649,0.60157 0.26365,0.40485 0.46986,0.89875 0.72656,1.29101 0.13565,0.20546 0.32567,0.39027 0.41602,0.60352 0.0465,0.10763 0.0396,0.23531 0.082,0.33203 0.14857,0.33543 0.80594,0.687 1.14453,0.85352 0.15853,0.0772 0.33499,0.10472 0.48047,0.18554 0.22033,0.12287 0.65635,0.45127 0.76757,0.64453 0.0992,0.17369 0.16083,0.59685 0.20899,0.87305 0.0644,0.36501 -2.2e-4,0.64569 0.0195,1.04102 0.0135,0.21378 0.0817,0.42821 0.084,0.64257 8e-4,0.0753 -0.0399,0.13235 -0.043,0.20899 -1.2e-4,0.0125 0.006,0.0262 0.006,0.0391 2.04225,0.92445 2.97606,2.01367 5.37109,2.01367 0.26634,0 -0.13859,1.22871 0.0391,2.16797 0.43796,0.0284 0.87882,0.0488 1.32422,0.0488 0.27819,0 0.55473,-0.0103 0.83008,-0.0215 -0.0163,-0.0286 -0.1757,-0.0491 -0.25195,-0.11524 -0.10274,-0.0891 -0.0801,-0.24401 -0.0937,-0.29101 -0.0279,-0.0956 -0.69941,-0.0818 -0.63086,-0.19532 0.0652,-0.10808 0.6481,-0.10786 0.71289,-0.25 0.08,-0.17559 0.0559,-0.54654 0.14453,-0.72461 0.11441,-0.22995 0.33269,-0.42193 0.41992,-0.61718 0.12944,-0.28975 0.17178,-0.70716 0.17773,-0.71485 0.0977,-0.12813 0.18368,-0.24068 0.24805,-0.35351 0.0613,-0.37971 -0.15006,-0.64419 -0.0605,-0.97657 0.0993,-0.37335 0.61483,-0.60107 0.97657,-0.76953 0.12438,-0.0573 0.25214,-0.1523 0.35351,-0.1875 0.25033,-0.087 0.56215,-0.0393 0.79102,-0.12304 0.38955,-0.14257 0.43092,-0.561 0.62304,-0.91602 0.0905,-0.16807 0.20878,-0.33733 0.22657,-0.45703 0.0156,-0.10763 -0.0392,-0.20902 -0.0215,-0.33594 0.0186,-0.12556 0.1312,-0.23305 0.16602,-0.37109 0.0459,-0.1801 0.0664,-0.4439 0.0664,-0.64453 0,-0.1647 -0.0779,-0.31041 -0.084,-0.45899 -0.0269,-0.53938 0.19498,-0.59902 0.39453,-0.89258 0.10004,-0.14582 0.13714,-0.31149 0.20703,-0.41601 0.33499,-0.49988 0.91704,-0.74241 0.875,-1.49805 -0.0135,-0.25001 -0.17156,-0.81472 -0.35547,-0.89453 -0.10524,-0.0459 -0.34582,-0.004 -0.49804,-0.0625 -0.49145,-0.18332 -0.77987,-0.79115 -1.28907,-0.83008 -0.10876,-0.0135 -0.20965,0.0452 -0.33203,0.043 -0.20154,-0.0135 -0.50538,-0.14277 -0.72851,-0.16797 -0.1418,-0.0152 -0.3309,0.0423 -0.41602,0 -0.12972,-0.063 -0.1424,-0.30168 -0.24804,-0.37304 -0.0836,-0.0577 -0.248,-0.0777 -0.375,-0.12696 -0.20475,-0.0784 -0.36726,-0.16908 -0.60352,-0.18554 -0.073,-0.003 -0.16315,0.0341 -0.24805,0.0215 -0.13068,-0.0221 -0.23488,-0.17655 -0.35547,-0.25 -0.1511,-0.0918 -0.28908,-0.13644 -0.35156,-0.26758 0.1365,-0.44793 -0.24217,-0.57324 -0.33398,-0.83203 -0.0441,-0.12129 -0.0222,-0.26685 -0.0605,-0.375 -0.0541,-0.15499 -0.20706,-0.2457 -0.375,-0.375 -0.30083,-0.23159 -0.56812,-0.44892 -0.99805,-0.50195 -0.18906,-0.0238 -0.37707,0.0569 -0.60547,0.043 -0.24197,-0.0152 -0.54554,-0.22665 -0.72656,-0.4336 -0.17598,-0.20203 -0.26267,-0.38391 -0.41601,-0.48047 -0.14518,-0.093 -0.33642,-0.0909 -0.43555,-0.18554 -0.0446,-0.0416 -0.0364,-0.11182 -0.084,-0.20899 -0.0731,-0.15124 -0.19668,-0.23477 -0.10547,-0.41601 -0.16569,-0.0851 -0.17026,0.15845 -0.35157,0.12695 -0.16162,-0.22946 -0.29705,-0.33875 -0.66406,-0.27148 -0.16803,0.0309 -0.2632,0.24279 -0.45898,0.24804 -0.16059,0.0135 -0.28595,-0.17884 -0.49805,-0.20898 -0.16012,-0.0221 -0.34305,0.0431 -0.45703,0.0215 -0.17744,-0.0354 -0.23045,-0.18248 -0.39258,-0.28906 -0.11887,-0.0782 -0.35131,-0.21111 -0.41797,-0.20898 -0.209,0.0135 -0.35633,0.44372 -0.64453,0.29101 -0.14007,-0.17758 0.22678,-0.2714 0.0606,-0.4375 -0.12594,-0.12598 -0.23127,0.0574 -0.33203,0.12695 -0.11549,0.0798 -0.22398,0.15982 -0.35157,0.20704 -0.28561,0.10692 -0.46431,0.0509 -0.6875,0.16601 -0.20666,0.10705 -0.21493,0.28535 -0.33203,0.49805 -0.0957,0.17429 -0.31514,0.42894 -0.45898,0.43945 -0.17428,0.0135 -0.34001,-0.24416 -0.49805,-0.3125 -0.47616,-0.2063 -0.70619,0.18415 -1.10156,0.18945 -0.36695,0.0135 -0.89154,-0.59245 -0.87305,-0.9375 0.003,-0.21054 0.12183,-0.53055 0.14649,-0.79101 0.0221,-0.20716 0.16361,-0.33241 0.16601,-0.52149 0.003,-0.25259 -0.33612,-0.44658 -0.5,-0.47656 -0.38843,-0.0716 -0.92785,0.15695 -1.37304,-0.0215 -0.085,-0.14095 0.10074,-0.23987 0.14843,-0.37696 0.027,-0.078 0.0109,-0.18185 0.0391,-0.26757 0.0498,-0.13246 0.18793,-0.2347 0.25,-0.375 0.0462,-0.10705 0.0587,-0.26169 0.10546,-0.39454 0.0545,-0.1513 0.15431,-0.24739 0.16602,-0.35351 0.0152,-0.14007 -0.0387,-0.30218 -0.14844,-0.39453 l -0.002,0 z m 5.55859,4.40234 c 0.14092,0.0135 0.15941,0.30466 0.0156,0.32813 -0.15545,0.024 -0.2348,-0.24471 -0.084,-0.31446 0.0253,-0.0135 0.0486,-0.0127 0.0684,-0.0117 l 0,-0.002 z m 8.57617,19.0918 c -0.26686,0.0105 -0.53321,0.0195 -0.80273,0.0195 0,0 0.58167,-0.013 0.78125,-0.004 0.009,4.1e-4 0.014,-0.0113 0.0215,-0.0156 z"
       id="path34-7-3"
       inkscape:connector-curvature="0" />
    <path
       inkscape:connector-curvature="0"
       style="opacity:1;fill:#00529a;fill-opacity:1;stroke:none;stroke-width:2.79999995;stroke-miterlimit:4;stroke-dasharray:none;stroke-opacity:0.55026455"
       d="m 388.58313,523.298 c -0.004,0.16686 -0.0117,0.33212 -0.0117,0.5 0,11.07999 8.92001,20 20,20 11.07999,0 20,-8.92001 20,-20 0,-0.16788 -0.008,-0.33315 -0.0117,-0.5 -0.26418,10.84657 -9.07584,19.5 -19.98828,19.5 -10.91244,0 -19.7241,-8.65343 -19.98828,-19.5 z"
       id="rect4775-1" />
    <g
       inkscape:label="Layer 1"
       id="layer1-3"
       transform="translate(340.57143,533.798)"
       style="fill-opacity:1;fill:url(#linearGradient4208)">
      <path
         style="opacity:1;fill:url(#linearGradient4208);fill-opacity:1.0;stroke:none;stroke-width:2;stroke-linecap:round;stroke-linejoin:round;stroke-miterlimit:4;stroke-dasharray:none;stroke-opacity:1"
         d="m 82.143292,-24.144898 c -7.810486,-7.810486 -20.473786,-7.810486 -28.284272,0 -7.810486,7.810486 -7.810486,20.4737858 0,28.2842717 3.752885,3.7458928 8.839698,5.8481767 14.142136,5.8446787 l 0,-3.9968093 c -4.24203,0.00265 -8.31149,-1.6793796 -11.313708,-4.6762966 -6.248388,-6.2483886 -6.248388,-16.3790275 0,-22.6274165 6.248389,-6.248389 16.379028,-6.248389 22.627417,0 2.996917,3.002218 4.678947,7.071678 4.676296,11.313708 L 80,-10.000026 86,-3 l 6,-7.000026 -4.01203,-0.0027 c 0.0035,-5.302438 -2.098785,-10.38925 -5.844678,-14.142136 z"
         id="path4197-2"
         inkscape:connector-curvature="0"
         inkscape:transform-center-x="0.009353125"
         inkscape:transform-center-y="-0.0093530002"
         sodipodi:nodetypes="csccccsccccccc" />
    </g>
    <path
       style="opacity:1;fill:#bd891a;fill-opacity:1;stroke:none;stroke-width:2;stroke-linecap:round;stroke-linejoin:round;stroke-miterlimit:4;stroke-dasharray:none;stroke-opacity:1"
       d="M 24.001953 7.9980469 C 19.907196 7.9980469 15.811695 9.5593986 12.6875 12.683594 C 9.4359508 15.935143 7.892845 20.23805 8.0253906 24.498047 C 8.1474049 20.571539 9.6904975 16.680596 12.6875 13.683594 C 18.93589 7.4352035 29.066063 7.4352035 35.314453 13.683594 C 38.074563 16.448594 39.70078 20.121461 39.941406 23.998047 L 39.990234 23.998047 C 39.992834 19.756017 38.311363 15.685814 35.314453 12.683594 C 32.190256 9.5593986 28.096711 7.9980469 24.001953 7.9980469 z M 4.0117188 23.5 C 4.0077187 23.66686 4 23.83212 4 24 C 4 35.07999 12.92001 44 24 44 L 24 43 C 13.08756 43 4.2758987 34.34657 4.0117188 23.5 z M 36 24 L 36 25 L 42 32 L 48 25 L 48 24 L 42 31 L 36 24 z "
       id="path4322"
       transform="translate(384.57143,499.798)" />
    <path
       style="opacity:1;fill:#3c6e1c;fill-opacity:1;stroke:none;stroke-width:2.79999995;stroke-miterlimit:4;stroke-dasharray:none;stroke-opacity:0.55026455"
       d="M 24.828125 42.958984 C 24.815724 42.959487 24.803398 42.960365 24.791016 42.960938 C 24.799538 42.965167 24.827564 42.974099 24.830078 42.978516 C 24.554731 42.989656 24.278185 43 24 43 L 24 44 C 24 44 24.005794 44.000001 24.005859 44 C 24.006514 44 24.007157 44 24.007812 44 C 24.039929 43.999987 24.07145 43.998228 24.103516 43.998047 C 24.400661 43.996368 24.69627 43.989209 24.990234 43.974609 C 24.974171 43.876808 24.913157 43.770499 24.730469 43.726562 C 24.509595 43.673443 24.985144 43.127205 24.84375 42.984375 C 24.836675 42.977228 24.834711 42.96648 24.828125 42.958984 z "
       id="path4336"
       transform="translate(384.57143,499.798)" />
  </g>
</svg>
