<?xml version="1.0" encoding="UTF-8" standalone="no"?>
<svg xmlns="http://www.w3.org/2000/svg" xmlns:xlink="http://www.w3.org/1999/xlink" width="48" version="1.1" height="48" viewBox="0 0 48 48" id="svg2">
 <defs id="defs5455">
  <style id="current-color-scheme" type="text/css">
   .ColorScheme-Text { color:#31363b; } .ColorScheme-Background { color:#eff0f1; } .ColorScheme-Highlight { color:#3daee9; } .ColorScheme-ViewText { color:#31363b; } .ColorScheme-ViewBackground { color:#fcfcfc; } .ColorScheme-ViewHover { color:#93cee9; } .ColorScheme-ViewFocus{ color:#3daee9; } .ColorScheme-ButtonText { color:#31363b; } .ColorScheme-ButtonBackground { color:#eff0f1; } .ColorScheme-ButtonHover { color:#93cee9; } .ColorScheme-ButtonFocus{ color:#3daee9; }
  </style>
  <linearGradient xlink:href="#a" id="linearGradient4280" x1="407.571" y1="538.798" x2="407.571" y2="503.798" gradientUnits="userSpaceOnUse"/>
  <linearGradient gradientUnits="userSpaceOnUse" x2="0" y2="503.8" y1="543.8" id="a" gradientTransform="translate(-66.100265,-5.9003051)">
   <stop id="stop4151" stop-color="#faae2a"/>
   <stop id="stop4153" stop-color="#ffc35a" offset="1"/>
  </linearGradient>
  <linearGradient gradientUnits="userSpaceOnUse" x2="0" y2="13" y1="34" id="b" gradientTransform="translate(318.46974,493.89969)">
   <stop id="stop4156" stop-color="#2a2c2f"/>
   <stop id="stop4158" stop-color="#424649" offset="1"/>
  </linearGradient>
  <linearGradient xlink:href="#b" id="linearGradient4209" x1="35.263" y1="44.042" x2="27.305" y2="34.483" gradientUnits="userSpaceOnUse"/>
 </defs>
 <g id="layer1" transform="matrix(1 0 0 1 -384.57143 -499.798)">
  <path id="path4183" d="m 408.57145,503.798 c -2.07106,0 -3.74999,1.67893 -3.74999,3.74999 0.002,0.59656 0.14562,1.18411 0.41992,1.71387 -5.41357,1.49628 -9.16445,6.41957 -9.1699,12.03611 -0.005,7.45001 -3.19872,13.76479 -7.49999,14.82907 l 0,2.55372 0,0.11725 27.71967,0 c -0.14374,0.40115 -0.21805,0.82387 -0.21975,1.25 0,2.07107 1.67893,3.74999 3.75,3.74999 2.07106,0 3.74999,-1.67893 3.74999,-3.74999 -0.002,-0.42613 -0.076,-0.84885 -0.21975,-1.25 l 5.21972,0 0,-0.11725 0,-2.5537 c -4.30127,-1.06428 -7.49505,-7.37908 -7.49999,-14.82909 -4.5e-4,-5.61879 -3.7499,-10.54681 -9.16503,-12.04588 0.27111,-0.52724 0.41335,-1.11124 0.41505,-1.7041 0,-2.07107 -1.67893,-3.74999 -3.75,-3.74999 z" style="color:#31363b;fill:url(#linearGradient4280);fill-opacity:1.0;stroke:none" class="ColorScheme-Text"/>
  <path style="color:#31363b;fill:url(#linearGradient4209);fill-opacity:1;stroke:none" d="M 31.720703 39 A 3.749993 3.749993 0 0 0 31.5 40.25 A 3.749993 3.749993 0 0 0 35.25 44 A 3.749993 3.749993 0 0 0 39 40.25 A 3.749993 3.749993 0 0 0 38.779297 39 L 31.720703 39 z" transform="translate(384.57143,499.798)" id="path4183-35"/>
  <rect style="opacity:1;fill:#e78220;fill-opacity:1;stroke:none;stroke-width:1;stroke-miterlimit:4;stroke-dasharray:none;stroke-opacity:1" id="rect4211" width="40" height="1" x="388.57" y="537.8"/>
 </g>
</svg>
