<?xml version="1.0" encoding="UTF-8"?>
<svg width="48" height="48" version="1.1" xmlns="http://www.w3.org/2000/svg" xmlns:xlink="http://www.w3.org/1999/xlink">
 <defs>
  <linearGradient id="a" x2="0" y1="44" y2="4" gradientTransform="matrix(-1 0 0 1 432.57 499.8)" gradientUnits="userSpaceOnUse">
   <stop stop-color="#197cf1" offset="0"/>
   <stop stop-color="#20bcfa" offset="1"/>
  </linearGradient>
  <linearGradient id="b" x2="0" y1="655.51" y2="662.24" gradientTransform="translate(3.346-3.716)" gradientUnits="userSpaceOnUse">
   <stop stop-color="#172525" offset="0"/>
   <stop stop-color="#172525" stop-opacity="0" offset="1"/>
  </linearGradient>
  <linearGradient id="c" x2="0" y1="655.51" y2="662.24" gradientTransform="translate(6.02,-6.688)" gradientUnits="userSpaceOnUse" xlink:href="#b"/>
  <linearGradient id="d" x2="0" y1="655.51" y2="662.24" gradientTransform="translate(10.04,-11.147)" gradientUnits="userSpaceOnUse" xlink:href="#b"/>
  <linearGradient id="e" x2="0" y1="655.51" y2="662.24" gradientTransform="translate(.669 -.743)" gradientUnits="userSpaceOnUse" xlink:href="#b"/>
  <linearGradient id="linearGradient31" x2="0" y1="655.51" y2="662.24" gradientTransform="translate(3.346,-3.716)" gradientUnits="userSpaceOnUse" xlink:href="#b"/>
 </defs>
 <g transform="translate(-384.57-499.8)">
  <path d="m428.57 508.8v32h-21l-10 6v-6h-9v-32z" fill="url(#a)" fill-rule="evenodd"/>
  <g transform="translate(0 4)" fill="#fcfcfc">
   <rect x="399.57" y="511.8" width="2" height="1"/>
   <rect x="402.57" y="511.8" width="3" height="1"/>
   <rect x="408.57" y="511.8" width="3" height="1"/>
   <rect x="413.57" y="511.8" width="6" height="1"/>
   <rect x="420.57" y="511.8" width="4" height="1"/>
  </g>
  <g transform="translate(0 4)" fill="#7fe9d6">
   <rect x="399.57" y="514.8" width="4" height="1"/>
   <rect x="404.57" y="514.8" width="2" height="1"/>
   <rect x="408.57" y="514.8" width="8" height="1"/>
  </g>
  <g transform="translate(0 4)" fill="#fcfcfc">
   <rect x="399.57" y="517.8" width="2" height="1"/>
   <rect x="402.57" y="517.8" width="3" height="1"/>
   <rect x="408.57" y="517.8" width="4" height="1"/>
   <rect x="414.57" y="517.8" width="4" height="1"/>
   <rect x="419.57" y="517.8" width="5" height="1"/>
   <g transform="scale(-1,1)">
    <rect x="-419.57" y="525.8" width="2" height="1"/>
    <rect x="-416.57" y="525.8" width="8" height="1"/>
    <rect x="-406.57" y="525.8" width="7" height="1"/>
    <rect x="-424.57" y="521.8" width="2" height="1"/>
    <rect x="-421.57" y="521.8" width="3" height="1"/>
    <rect x="-417.57" y="521.8" width="9" height="1"/>
    <rect x="-404.57" y="521.8" width="5" height="1"/>
   </g>
  </g>
  <g transform="translate(0 4)" color="#000000" color-rendering="auto" fill-rule="evenodd" image-rendering="auto" shape-rendering="auto" text-rendering="auto">
   <rect transform="rotate(-42)" x="-51.44" y="644.4" width="3" height="7" fill="url(#d)" opacity=".2"/>
   <circle cx="394.07" cy="512.3" r="1.5" fill="#abdaf9"/>
   <rect transform="rotate(-42)" x="-55.46" y="648.86" width="3" height="7" fill="url(#c)" opacity=".2"/>
   <circle cx="394.07" cy="518.3" r="1.5" fill="#abdaf9"/>
   <rect transform="rotate(-42)" x="-58.13" y="651.83" width="3" height="7" fill="url(#linearGradient31)" opacity=".2"/>
   <circle cx="394.07" cy="522.3" r="1.5" fill="#abdaf9"/>
   <rect transform="rotate(-42)" x="-60.81" y="654.8" width="3" height="7" fill="url(#e)" opacity=".2"/>
   <circle cx="394.07" cy="526.3" r="1.5" fill="#abdaf9"/>
  </g>
  <g transform="translate(0 4)" fill="#7fe9d6">
   <rect x="399.57" y="528.8" width="5" height="1"/>
   <rect x="405.57" y="528.8" width="4" height="1"/>
   <rect x="410.57" y="528.8" width="12" height="1"/>
  </g>
 </g>
</svg>
