<?xml version="1.0" encoding="UTF-8" standalone="no"?>
<!-- Created with Inkscape (http://www.inkscape.org/) -->

<svg
   xmlns:dc="http://purl.org/dc/elements/1.1/"
   xmlns:cc="http://creativecommons.org/ns#"
   xmlns:rdf="http://www.w3.org/1999/02/22-rdf-syntax-ns#"
   xmlns:svg="http://www.w3.org/2000/svg"
   xmlns="http://www.w3.org/2000/svg"
   xmlns:xlink="http://www.w3.org/1999/xlink"
   xmlns:sodipodi="http://sodipodi.sourceforge.net/DTD/sodipodi-0.dtd"
   xmlns:inkscape="http://www.inkscape.org/namespaces/inkscape"
   width="48"
   version="1.1"
   height="48"
   id="svg2"
   inkscape:version="0.91 r13725"
   sodipodi:docname="kdeapp.svg">
  <sodipodi:namedview
     pagecolor="#ffffff"
     bordercolor="#666666"
     borderopacity="1"
     objecttolerance="10"
     gridtolerance="10"
     guidetolerance="10"
     inkscape:pageopacity="0"
     inkscape:pageshadow="2"
     inkscape:window-width="1024"
     inkscape:window-height="713"
     id="namedview51"
     showgrid="true"
     inkscape:zoom="6.9532167"
     inkscape:cx="19.723336"
     inkscape:cy="22.710312"
     inkscape:window-x="0"
     inkscape:window-y="0"
     inkscape:window-maximized="1"
     inkscape:current-layer="g4216">
    <inkscape:grid
       type="xygrid"
       id="grid4179" />
  </sodipodi:namedview>
  <defs
     id="defs2987">
    <linearGradient
       inkscape:collect="always"
       id="linearGradient4286">
      <stop
         style="stop-color:#21c9fb"
         id="stop4288" />
      <stop
         offset="1"
         style="stop-color:#1a86f2"
         id="stop4290" />
    </linearGradient>
    <linearGradient
       inkscape:collect="always"
       id="linearGradient4223">
      <stop
         id="stop4225" />
      <stop
         offset="1"
         style="stop-opacity:0"
         id="stop4227" />
    </linearGradient>
    <linearGradient
       inkscape:collect="always"
       xlink:href="#linearGradient4223"
       id="linearGradient4229-8-2"
       y1="9.177983"
       x1="-14.649697"
       y2="17.521618"
       x2="-6.430218"
       gradientUnits="userSpaceOnUse"
       gradientTransform="matrix(1 0 0 1 1.00688 -1.022087)" />
    <linearGradient
       inkscape:collect="always"
       xlink:href="#linearGradient4223"
       id="linearGradient4229-9"
       y1="9.268324"
       x1="-28.755592"
       y2="27.436483"
       x2="-10.857779"
       gradientUnits="userSpaceOnUse"
       gradientTransform="matrix(1 0 0 1 0.000001 -1.022087)" />
    <linearGradient
       inkscape:collect="always"
       xlink:href="#linearGradient4286"
       id="linearGradient4282"
       y1="-0.883428"
       x1="-41.25518"
       y2="37.95583"
       x2="-2.993856"
       gradientUnits="userSpaceOnUse"
       gradientTransform="matrix(0.9931701,0,0,0.97839153,44.973405,3.8643387)" />
  </defs>
  <metadata
     id="metadata2990">
    <rdf:RDF>
      <cc:Work
         rdf:about="">
        <dc:format>image/svg+xml</dc:format>
        <dc:type
           rdf:resource="http://purl.org/dc/dcmitype/StillImage" />
        <dc:title></dc:title>
      </cc:Work>
    </rdf:RDF>
  </metadata>
  <g
     inkscape:label="Layer 1"
     inkscape:groupmode="layer"
     id="g4216"
     transform="matrix(0.9931701 0 0 0.97839153 45.973408 4.864339)">
    <path
       style="fill:url(#linearGradient4282);stroke-linecap:round;stroke-linejoin:bevel;stroke-width:2"
       d="M 10.1875 4 C 7.3135577 4 5.0860433 6.2814587 5 9.1113281 L 5 37 C 5 39.77 7.264331 42 10.076172 42 L 37.8125 42 C 40.686442 42 43 39.719849 43 36.888672 L 43 9 C 43 6.2299999 40.735669 4 37.923828 4 L 10.1875 4 z "
       transform="matrix(1.0068769,0,0,1.0220857,-46.289561,-4.9717714)"
       id="rect4274" />
    <path
       inkscape:connector-curvature="0"
       style="fill:url(#linearGradient4229-9);opacity:0.2;fill-rule:evenodd"
       id="path4221-2"
       d="m -24.774808,5.7233416 0.07017,7.1275054 -1.003892,-1.017407 -5.217747,4.056504 -0.260131,3.668342 -5.031713,2.238282 5.031713,4.916318 1e-6,4.152222 5.034383,5.046549 15.708853,-1.602999 c 0.4870376,-0.0849 0.9462266,-0.297339 1.3628236,-0.602871 L -14.620136,25.020055 -16.083255,9.3374289 -19.776738,5.2490768 z" />
    <path
       inkscape:connector-curvature="0"
       style="fill:url(#linearGradient4229-8-2);opacity:0.2;fill-rule:evenodd"
       id="path4221-9-1"
       d="m -8.023537,6.6184983 -6.810356,8.4275117 6.5087023,19.542126 c 1.062788,-0.938896 2.3107052,-3.633644 2.3107052,-5.304067 L -2.9938557,11.3816 z" />
    <path
       inkscape:label="Capa 1"
       inkscape:connector-curvature="0"
       style="fill:#ffffff;color:#000000"
       id="path5692_2_-3-2"
       d="m 12.338532,1033.3623 -2.8326777,0.2648 0,10.9399 2.8015387,-0.3823 0,-4.676 3.735415,5.176 2.926063,-0.8824 -3.828788,-4.97 3.859917,-4.7054 -2.988315,-0.647 -3.704286,4.7054 0.03122,-4.823 z m -6.3812958,2.6761 c -0.031669,0 -0.069523,0.017 -0.093407,0.03 l -1.0894896,1.0587 c -0.0464,0.046 -0.06524,0.1229 -0.031228,0.1765 l 1.2762647,1.9999 c -0.22912,0.3639 -0.3979586,0.7624 -0.5291917,1.176 l -2.3657544,0.4708 c -0.06596,0.017 -0.1244304,0.054 -0.1244304,0.1181 l 0,1.4705 c 0,0.062 0.060955,0.1314 0.1244304,0.1465 l 2.3034978,0.5294 c 0.1226483,0.4795 0.3089159,0.9352 0.5603035,1.3526 l -1.3385048,1.9119 c -0.037132,0.054 -0.017821,0.1314 0.031228,0.1765 l 1.0895061,1.0291 c 0.0464,0.042 0.1301352,0.064 0.1867586,0.03 l 2.0856111,-1.2056 c 0.41008,0.2235 0.8399555,0.41 1.3073987,0.5292 l 0.4980409,2.2057 c 0.01429,0.064 0.05727,0.1179 0.124442,0.1179 l 1.5564029,0 c 0.0656,0 0.139939,-0.057 0.155625,-0.1179 l 0.560303,-2.2057 c 0.481832,-0.1229 0.949588,-0.3248 1.369655,-0.5586 l 2.054466,1.294 c 0.05654,0.034 0.138693,0.017 0.18677,-0.03 l 1.089485,-1.0294 c 0.04668,-0.046 0.06543,-0.1229 0.03122,-0.1763 l -0.747078,-1.1761 -0.249027,0.088 c -0.03554,0.017 -0.07255,0 -0.09341,-0.03 0,0 -0.470824,-0.6738 -1.089489,-1.5294 -0.739591,1.3676 -2.246808,2.2941 -3.98442,2.2941 -2.4687221,0 -4.4824767,-1.873 -4.4824767,-4.2055 0,-1.7157 1.0908083,-3.1915 2.6459092,-3.8525 l 0,-1.0882 c -0.2830458,0.094 -0.5494623,0.1896 -0.8093519,0.3237 -1.931e-4,0 -0.030455,0 -0.031228,0 l -2.0855889,-1.2942 c -0.02836,-0.017 -0.061672,-0.032 -0.093419,-0.029 z"
       transform="matrix(1.764379 0 0 1.7910299 -41.546738 -1845.5337)" />
    <path
       style="fill:#ffffff;fill-opacity:1"
       d="M 10.060547 5 C 7.8110741 5 6 6.7839998 6 9 L 6 37 C 6 39.216 7.8110741 41 10.060547 41 L 37.939453 41 C 40.188926 41 42 39.216 42 37 L 42 9 C 42 6.7839998 40.188926 5 37.939453 5 L 10.060547 5 z M 10.044922 6 L 37.955078 6 C 39.642183 6 41 7.3379999 41 9 L 41 37 C 41 38.662 39.642183 40 37.955078 40 L 10.044922 40 C 8.3578174 40 7 38.662 7 37 L 7 9 C 7 7.3379999 8.3578174 6 10.044922 6 z "
       transform="matrix(1.0068769,0,0,1.0220857,-46.289561,-4.9717714)"
       id="rect4185" />
  </g>
</svg>
