<?xml version="1.0" encoding="UTF-8" standalone="no"?>
<svg
   xmlns:dc="http://purl.org/dc/elements/1.1/"
   xmlns:cc="http://creativecommons.org/ns#"
   xmlns:rdf="http://www.w3.org/1999/02/22-rdf-syntax-ns#"
   xmlns:svg="http://www.w3.org/2000/svg"
   xmlns="http://www.w3.org/2000/svg"
   version="1.1"
   id="svg4446"
   viewBox="0 0 48 48"
   height="48"
   width="48">
  <defs
     id="defs4448" />
  <metadata
     id="metadata4451">
    <rdf:RDF>
      <cc:Work
         rdf:about="">
        <dc:format>image/svg+xml</dc:format>
        <dc:type
           rdf:resource="http://purl.org/dc/dcmitype/StillImage" />
        <dc:title></dc:title>
      </cc:Work>
    </rdf:RDF>
  </metadata>
  <g
     transform="translate(0,-1004.3622)"
     id="layer1">
    <g
       transform="translate(-389.9238,75.521859)"
       id="g3824">
      <path
         id="path6005-3"
         transform="translate(389.9238,928.84034)"
         d="M 7 14 L 7 19.929688 L 20 19.929688 L 20 15.644531 L 19.990234 15.644531 L 19.990234 15.4375 C 19.990234 14.74848 19.335748 14.12253 18.673828 14 L 7 14 z M 3 24 L 3 30 L 20 30 L 20 24 L 3 24 z M 10 34 L 10 40 L 20 40 L 20 34 L 10 34 z "
         style="color:#000000;font-style:normal;font-variant:normal;font-weight:normal;font-stretch:normal;font-size:medium;line-height:normal;font-family:sans-serif;text-indent:0;text-align:start;text-decoration:none;text-decoration-line:none;text-decoration-style:solid;text-decoration-color:#000000;letter-spacing:normal;word-spacing:normal;text-transform:none;direction:ltr;block-progression:tb;writing-mode:lr-tb;baseline-shift:baseline;text-anchor:start;white-space:normal;clip-rule:nonzero;display:inline;overflow:visible;visibility:visible;opacity:1;isolation:auto;mix-blend-mode:normal;color-interpolation:sRGB;color-interpolation-filters:linearRGB;solid-color:#000000;solid-opacity:1;fill:#83b9f5;fill-opacity:1;fill-rule:evenodd;stroke:none;stroke-width:7.50000048;stroke-linecap:butt;stroke-linejoin:miter;stroke-miterlimit:4;stroke-dasharray:none;stroke-dashoffset:0;stroke-opacity:1;color-rendering:auto;image-rendering:auto;shape-rendering:auto;text-rendering:auto;enable-background:accumulate" />
      <path
         id="path6019-2"
         transform="translate(389.9238,928.84034)"
         d="M 18 5 L 23.039062 13.398438 L 23.039062 43 L 25 43 L 25 13.333984 L 30 5 L 18 5 z "
         style="opacity:1;fill:#f38577;fill-opacity:1;stroke:none;stroke-width:3;stroke-linecap:round;stroke-linejoin:round;stroke-miterlimit:4;stroke-dasharray:none;stroke-dashoffset:0;stroke-opacity:1" />
      <path
         id="rect19237-3"
         d="m 419.39269,942.84235 c -0.69561,0.043 -1.44463,0.7446 -1.44288,1.52199 l -0.026,22.9523 c 0,1.0366 1.33008,1.9386 2.09096,1.32279 l 14.33531,-11.51539 c 0.76585,-0.6082 0.7641,-2.0349 0,-2.6458 l -14.30873,-11.4367 c -0.19101,-0.15259 -0.41622,-0.21339 -0.64819,-0.19919 z"
         style="opacity:1;fill:#537eb2;fill-opacity:1;fill-rule:nonzero;stroke:none;stroke-width:2.30002117;stroke-linecap:butt;stroke-linejoin:round;stroke-miterlimit:4;stroke-dasharray:none;stroke-dashoffset:80;stroke-opacity:1" />
    </g>
  </g>
</svg>
