<?xml version="1.0" encoding="UTF-8" standalone="no"?>

<!-- Created with Inkscape (http://www.inkscape.org/) -->
<svg width="48" version="1.1" xmlns="http://www.w3.org/2000/svg" height="48" viewBox="0 0 48 48" xmlns:xlink="http://www.w3.org/1999/xlink" xmlns:inkscape="http://www.inkscape.org/namespaces/inkscape">
 <defs id="defs5455">
  <linearGradient inkscape:collect="always" id="linearGradient4689">
   <stop id="stop4691"/>
   <stop offset="1" style="stop-opacity:0" id="stop4693"/>
  </linearGradient>
  <linearGradient inkscape:collect="always" xlink:href="#linearGradient4199" id="linearGradient4457" y1="42" x1="45.999989" y2="4" x2="1.99999" gradientUnits="userSpaceOnUse"/>
  <linearGradient inkscape:collect="always" id="linearGradient4303-4">
   <stop style="stop-color:#197cf1" id="stop4305-7"/>
   <stop offset="1" style="stop-color:#21c9fb" id="stop4307-4"/>
  </linearGradient>
  <linearGradient inkscape:collect="always" xlink:href="#linearGradient4303-4" id="linearGradient4579" y1="541.79797" x1="-430.57144" y2="503.798" x2="-385.57144" gradientUnits="userSpaceOnUse"/>
  <linearGradient inkscape:collect="always" id="linearGradient4435">
   <stop style="stop-color:#c61423" id="stop4437"/>
   <stop offset="1" style="stop-color:#dc2b41" id="stop4439"/>
  </linearGradient>
  <linearGradient inkscape:collect="always" xlink:href="#linearGradient4435" id="linearGradient4669" y1="543.79797" x1="408.57144" y2="503.798" x2="404.57144" gradientUnits="userSpaceOnUse" gradientTransform="matrix(2.0000106 0 0 1 -404.57574 0)"/>
  <linearGradient inkscape:collect="always" xlink:href="#linearGradient4689" id="linearGradient4695" y1="503.798" x1="408.57144" y2="540.79797" x2="429.93341" gradientUnits="userSpaceOnUse" gradientTransform="matrix(1 0 0 1 -380.57143 -499.798)"/>
  <linearGradient inkscape:collect="always" id="linearGradient4199">
   <stop style="stop-color:#2f3943" id="stop4201"/>
   <stop offset="1" style="stop-color:#4d5662" id="stop4203"/>
  </linearGradient>
 </defs>
 <metadata id="metadata5458"/>
 <g inkscape:label="Capa 1" inkscape:groupmode="layer" id="layer1" transform="matrix(1 0 0 1 -384.57143 -499.798)">
  <rect width="42.00001" x="-429.57144" y="510.798" height="26.00001" style="fill:url(#linearGradient4579);stroke-linejoin:round;stroke-width:0.5" id="rect4358-0-4" transform="matrix(-1 0 0 1 0 0)"/>
  <rect width="7.999958" x="404.57147" y="503.798" rx="0" height="39.999996" style="fill:url(#linearGradient4669);stroke-linejoin:round;stroke-width:0.5" id="rect4177-57"/>
  <path inkscape:connector-curvature="0" style="fill:url(#linearGradient4457);stroke-linejoin:round;stroke-width:0.5" id="rect4209" d="m 0,6 v 2 h 2 v 2 H 0 v 2 H 2 V 36 H 0 v 2 h 2 v 2 H 0 v 2 h 22 v -2 h -2 v -2 h 2 V 36 H 20 V 12 h 2 V 10 H 20 V 8 h 2 V 6 Z m 26,0 v 2 h 2 v 2 h -2 v 2 h 2 v 24 h -2 v 2 h 2 v 2 h -2 v 2 h 22 v -2 h -2 v -2 h 2 V 36 H 46 V 12 h 2 V 10 H 46 V 8 h 2 V 6 Z M 4,8 h 2 v 2 H 4 Z m 4,0 h 2 v 2 H 8 Z m 4,0 h 2 v 2 h -2 z m 4,0 h 2 v 2 h -2 z m 14,0 h 2 v 2 h -2 z m 4,0 h 2 v 2 h -2 z m 4,0 h 2 v 2 h -2 z m 4,0 h 2 v 2 H 42 Z M 4,12 H 18 V 36 H 4 Z m 26,0 H 44 V 36 H 30 Z M 4,38 h 2 v 2 H 4 Z m 4,0 h 2 v 2 H 8 Z m 4,0 h 2 v 2 h -2 z m 4,0 h 2 v 2 h -2 z m 14,0 h 2 v 2 h -2 z m 4,0 h 2 v 2 h -2 z m 4,0 h 2 v 2 h -2 z m 4,0 h 2 v 2 h -2 z" transform="matrix(1 0 0 1 384.57143 499.798)"/>
  <path style="fill:url(#linearGradient4695);opacity:0.2;fill-rule:evenodd" id="path4679" d="M 26 6 L 26 8 L 28 8 L 28 10 L 26 10 L 26 12 L 28 12 L 28 36 L 26 36 L 26 38 L 28 38 L 28 40 L 26 40 L 26 41 L 26 42 L 28 42 L 32 42 L 48 42 L 48 40 L 46 40 L 46 38 L 48 38 L 48 37 L 46 37 L 46 22 L 30 6 L 26 6 z M 30 38 L 32 38 L 32 40 L 30 40 L 30 38 z M 34 38 L 36 38 L 36 40 L 34 40 L 34 38 z M 38 38 L 40 38 L 40 40 L 38 40 L 38 38 z M 42 38 L 44 38 L 44 40 L 42 40 L 42 38 z " transform="matrix(1 0 0 1 384.57143 499.798)"/>
 </g>
</svg>
