<svg viewBox="0 0 48 48" xmlns="http://www.w3.org/2000/svg" xmlns:xlink="http://www.w3.org/1999/xlink">
    <linearGradient id="a" gradientUnits="userSpaceOnUse" x1="10.5" x2="37.5" xlink:href="#e" y1="10.5" y2="37.5"/>
    <linearGradient id="b" gradientUnits="userSpaceOnUse" x1="10" x2="38" y1="10" y2="38">
        <stop offset="0" stop-color="#68737e"/>
        <stop offset="1" stop-color="#565f68"/>
    </linearGradient>
    <linearGradient id="c" gradientUnits="userSpaceOnUse" x1="24" x2="39" y1="17.5" y2="32.5">
        <stop offset="0"/>
        <stop offset="1" stop-opacity="0"/>
    </linearGradient>
    <linearGradient id="d" gradientUnits="userSpaceOnUse" x1="16" x2="32" y1="9" y2="39">
        <stop offset="0" stop-color="#3dcc7a"/>
        <stop offset=".5" stop-color="#24b260"/>
        <stop offset="1" stop-color="#0f994a"/>
    </linearGradient>
    <linearGradient id="e" gradientUnits="userSpaceOnUse" x1="10.5" x2="37.5" y1="10.5" y2="37.5">
        <stop offset="0" stop-color="#eff0f1"/>
        <stop offset=".5" stop-color="#fcfcfc"/>
        <stop offset="1" stop-color="#e3e5e7"/>
    </linearGradient>
    <g fill-rule="evenodd">
        <path d="m44 24a20 20 0 0 1 -20 20 20 20 0 0 1 -20-20 20 20 0 0 1 20-20 20 20 0 0 1 20 20z" fill="url(#b)"/>
        <circle cx="24" cy="24" fill="url(#e)" r="19"/>
        <circle cx="24" cy="24" fill="url(#d)" r="16"/>
    </g>
    <path d="m24 8c-.5 0-2.71132487 0-3 .5l.5 24.5 2.5 4.70703125 4.64453125 4.64453125a19 19 0 0 0 1.64648438-.5c.7073424-.24789927 1.38772573-.54500802 2.05078125-.86914062a19 19 0 0 0 1.23242187-.65820313c.60638988-.35409373 1.18907916-.73877542 1.74804688-1.15429687a19 19 0 0 0 1.578125-1.29492188c.33753811-.31244993.66115458-.63918674.97460937-.97460937a19 19 0 0 0 1.45117188-1.76757813c.27087449-.3704378.52977931-.74923467.7734375-1.13867187a19 19 0 0 0 1.28710937-2.40820313c.11119417-.25217559.2043415-.51207136.3046875-.76953125a19 19 0 0 0 .84765625-2.79296875c.04020975-.18219032.08422481-.36295173.11914063-.546875a19 19 0 0 0 .34179687-3.4765625 19 19 0 0 0 -.34179687-3.54296875l-7.34960938-7.7578125c-1.30937386-1.51250029-4.00585937-2.93945312-4.00585937-2.93945312l-4.30273438-1.25976563c-.28867513-.5-2.5-.5-3-.5z" fill="url(#c)" opacity=".25"/>
    <path d="m43.974609 23.25a20 20 0 0 1 -19.974609 19.75 20 20 0 0 1 -19.951172-19.5 20 20 0 0 0 -.04882813.5 20 20 0 0 0 20 20 20 20 0 0 0 20-20 20 20 0 0 0 -.02539087-.75z" fill-opacity=".2" fill-rule="evenodd"/>
    <path d="m24 5c-4.418278 0-8 3.581722-8 8 .03090872 3.232023 2.0036377 6.1279275 5 7.3398438v14.367188l3 3 3-3v-3l2.2070312-2.2070312-1.5-1.5 2.5-2.5-3.2070312-3.2070312v-1.953125c2.9963623-1.2119162 4.9690913-4.1078208 5-7.3398438 0-4.418278-3.581722-8-8-8.0000006zm0 2c1.6568542 0 3 1.3431458 3 3s-1.3431458 3-3 3-3-1.3431458-3-3 1.3431458-3 3-3zm-2 15h1v11h-1z" fill="url(#a)" fill-rule="evenodd"/>
    <path d="m21 33.5v1.2070312l3 3v-1.4140625l-2.7929688-2.7929688z" fill="#d6d9dc"/>
    <path d="m16.0390625 12.2671876c-.02193243.18767598-.03236212.54348865-.0390625.7328124.03090872 3.23202297 2.00363773 6.1279275 5 7.33984375v-1.03125c-2.79618855-1.15612986-5-2.80859375-4.9609375-7.04140615z" fill="#e3e5e7" fill-rule="evenodd"/>
    <path d="m31.960938 12.246094c.0390625 4.2539062-2.0659522 5.8903439-4.9609375 7.0761719v1.0175781c2.9963623-1.2119162 4.9690913-4.1078208 5-7.3398438-.00114995-.25177676-.01418529-.50335888-.0390625-.75390625z" fill="#d6d9dc" fill-rule="evenodd"/>
    <path d="m28.5 28.792969-1.5 1.5v1.4140625l2.2070312-2.2070312z" fill="#c9cdd1" stroke-linecap="square" stroke-miterlimit="0"/>
    <path d="m29.5 24.79296875-2.5 2.5.70703125.70703125 2.5-2.5z" fill="#c9cdd1" stroke-linecap="square" stroke-miterlimit="0"/>
    <path d="m27 33.5v1.2070312l-3 3v-1.4140625l2.7929688-2.7929688z" fill="#bdc2c7"/>
    <path d="m22 21h1v1h-1z" fill="#d6d9dc" fill-rule="evenodd"/>
</svg>
