<?xml version="1.0" encoding="UTF-8" standalone="no"?>

<!-- Created with Inkscape (http://www.inkscape.org/) -->
<svg width="48" version="1.1" xmlns="http://www.w3.org/2000/svg" height="48" xmlns:xlink="http://www.w3.org/1999/xlink" xmlns:inkscape="http://www.inkscape.org/namespaces/inkscape">
 <defs id="defs5455">
  <linearGradient inkscape:collect="always" id="linearGradient6075">
   <stop style="stop-opacity:0.313726" id="stop6077"/>
   <stop offset="1" style="stop-opacity:0" id="stop6079"/>
  </linearGradient>
  <linearGradient inkscape:collect="always" id="linearGradient5002">
   <stop style="stop-color:#2e5d89" id="stop5004"/>
   <stop offset="1" style="stop-color:#1b92f4" id="stop5006"/>
  </linearGradient>
  <linearGradient inkscape:collect="always" id="linearGradient4271">
   <stop style="stop-color:#2a2c2f" id="stop4273"/>
   <stop offset="1" style="stop-color:#424649" id="stop4275"/>
  </linearGradient>
  <linearGradient inkscape:collect="always" id="linearGradient4303-1">
   <stop style="stop-color:#c6cdd1" id="stop4305-9"/>
   <stop offset="1" style="stop-color:#e0e5e7" id="stop4307-9"/>
  </linearGradient>
  <linearGradient inkscape:collect="always" xlink:href="#linearGradient5002" id="linearGradient4352" y1="512.79797" x1="400.57144" y2="527.79797" gradientUnits="userSpaceOnUse" x2="415.57144" gradientTransform="matrix(1.0909188 0 0 1.1818182 -37.14649 -93.73207)"/>
  <linearGradient inkscape:collect="always" xlink:href="#linearGradient4271" id="linearGradient4617" y1="531.79797" y2="507.81851" x2="0" gradientUnits="userSpaceOnUse" gradientTransform="matrix(1.0000078 0 0 1.3356131 -0.00283 -168.45104)"/>
  <linearGradient inkscape:collect="always" xlink:href="#linearGradient5002" id="linearGradient4352-6" y1="512.79797" x1="400.57144" y2="527.79797" gradientUnits="userSpaceOnUse" x2="415.57144" gradientTransform="matrix(0.92308514 0 0 1 104.34927 5.656254)"/>
  <linearGradient inkscape:collect="always" id="linearGradient4352-5" xlink:href="#linearGradient5002" y1="512.79797" y2="527.79797" x1="400.57144" x2="415.57144" gradientUnits="userSpaceOnUse" gradientTransform="matrix(1.0909188 0 0 1.1818182 37.623404 -87.23596)"/>
  <linearGradient inkscape:collect="always" id="linearGradient4352-9" xlink:href="#linearGradient5002" y1="512.79797" y2="527.79797" x1="400.57144" x2="415.57144" gradientUnits="userSpaceOnUse" gradientTransform="matrix(1.0909188 0 0 1.1818182 34.854139 -94.23595)"/>
  <linearGradient inkscape:collect="always" id="linearGradient4784-5" xlink:href="#linearGradient4303-1" y1="577.7973" y2="541.79797" gradientUnits="userSpaceOnUse" x2="0" gradientTransform="matrix(1.5000131 0 0 1.000019 -588.86226 -533.8083)"/>
  <linearGradient inkscape:collect="always" id="linearGradient5980">
   <stop style="stop-color:#ad7200" id="stop5982"/>
   <stop offset="0.252426" style="stop-color:#ad7200" id="stop5994"/>
   <stop offset="0.349999" style="stop-color:#b38d42" id="stop5992"/>
   <stop offset="0.449999" style="stop-color:#a3cc6c" id="stop5984"/>
   <stop offset="0.549999" style="stop-color:#00d1fa" id="stop6000"/>
   <stop offset="0.75403" style="stop-color:#1999ff" id="stop5989"/>
   <stop offset="1" style="stop-color:#1799ff" id="stop5986"/>
  </linearGradient>
  <linearGradient inkscape:collect="always" id="linearGradient6073-6" xlink:href="#linearGradient6075" y1="532.79797" y2="543.79797" x1="409.57144" gradientUnits="userSpaceOnUse" x2="420.57144" gradientTransform="matrix(1 0 0 1 -73.50002 -28.750003)"/>
  <linearGradient inkscape:collect="always" id="linearGradient5990" xlink:href="#linearGradient5980" y1="541.79797" y2="521.79797" gradientUnits="userSpaceOnUse" x2="0" gradientTransform="matrix(1 0 0 1 -71.50002 -28.750003)"/>
 </defs>
 <metadata id="metadata5458"/>
 <g inkscape:label="Capa 1" inkscape:groupmode="layer" id="layer1" transform="matrix(1 0 0 1 -384.57143 -499.798)">
  <path cx="408.57144" cy="519.79797" inkscape:connector-curvature="0" style="fill:url(#linearGradient4352);stroke-linecap:round;stroke-linejoin:round;stroke-width:2" id="circle4309-6" r="9.999989"/>
  <path inkscape:connector-curvature="0" style="fill:url(#linearGradient4617);stroke-linecap:round;stroke-linejoin:round;stroke-width:2" id="rect4288" d="m 387.57302,508.798 41.99897,0 0,34.00001 -41.99897,0 z"/>
  <path cx="408.57144" cy="519.79797" inkscape:connector-curvature="0" style="fill:url(#linearGradient4352-6);stroke-linecap:round;stroke-linejoin:round;stroke-width:2" id="circle4309-6-0" r="9.999989"/>
  <path cx="408.57144" cy="519.79797" inkscape:connector-curvature="0" style="fill:url(#linearGradient4352-5);stroke-linecap:round;stroke-linejoin:round;stroke-width:2" id="circle4309-6-7" r="9.999989"/>
  <path inkscape:connector-curvature="0" style="fill:url(#linearGradient4784-5);stroke-linecap:round;stroke-linejoin:round;stroke-width:2" id="rect4290" d="m 2,8 0,36 44,0 0,-36 z m 2,2 40,0 0,32 -40,0 z" transform="matrix(1 0 0 1 384.57143 499.798)"/>
  <path cx="408.57144" cy="519.79797" inkscape:connector-curvature="0" style="fill:url(#linearGradient4352-9);stroke-linecap:round;stroke-linejoin:round;stroke-width:2" id="circle4309-6-4" r="9.999989"/>
  <rect width="0" x="262.64218" y="485.79797" height="10.999983" style="fill:#ffffff" id="rect4035"/>
  <rect width="0" x="262.32141" y="484.79797" height="10.999983" style="fill:#ffffff" id="rect4035-4"/>
  <rect width="0" x="260.78555" y="484.68414" height="11.1139" style="fill:#fbd2bf" id="rect4035-3"/>
  <rect width="0" x="262.32141" y="484.79797" height="10.999983" style="fill:#fbd2bf" id="rect4035-1"/>
  <rect width="0" x="262.32141" y="484.79797" height="10.999983" style="fill:#fbfbfb" id="rect4035-5"/>
  <rect width="0" x="204.34082" y="483.40155" height="10.999983" style="fill:#ffffff" id="rect4035-33"/>
  <rect width="0" x="204.02005" y="482.40155" height="10.999983" style="fill:#ffffff" id="rect4035-4-2"/>
  <rect width="0" x="202.48419" y="482.28772" height="11.1139" style="fill:#fbd2bf" id="rect4035-3-8"/>
  <rect width="0" x="204.02005" y="482.40155" height="10.999983" style="fill:#fbd2bf" id="rect4035-1-4"/>
  <rect width="0" x="204.02005" y="482.40155" height="10.999983" style="fill:#fbfbfb" id="rect4035-5-0"/>
  <rect width="0" x="197.36481" y="451.84555" height="10.999983" style="fill:#ffffff" id="rect4035-7"/>
  <rect width="0" x="197.04404" y="450.84555" height="10.999983" style="fill:#ffffff" id="rect4035-4-0"/>
  <rect width="0" x="195.50818" y="450.73172" height="11.1139" style="fill:#fbd2bf" id="rect4035-3-3"/>
  <rect width="0" x="197.04404" y="450.84555" height="10.999983" style="fill:#fbd2bf" id="rect4035-1-9"/>
  <rect width="0" x="197.04404" y="450.84555" height="10.999983" style="fill:#fbfbfb" id="rect4035-5-2"/>
  <rect width="0" x="139.06345" y="449.44913" height="10.999983" style="fill:#ffffff" id="rect4035-33-5"/>
  <rect width="0" x="138.74268" y="448.44913" height="10.999983" style="fill:#ffffff" id="rect4035-4-2-1"/>
  <rect width="0" x="137.20682" y="448.3353" height="11.1139" style="fill:#fbd2bf" id="rect4035-3-8-8"/>
  <rect width="0" x="138.74268" y="448.44913" height="10.999983" style="fill:#fbd2bf" id="rect4035-1-4-7"/>
  <rect width="0" x="138.74268" y="448.44913" height="10.999983" style="fill:#fbfbfb" id="rect4035-5-0-4"/>
  <g id="g15233" transform="matrix(1 0 0 1 71.49609 22.749992)">
   <path inkscape:connector-curvature="0" style="fill:url(#linearGradient6073-6);fill-rule:evenodd" id="path6065-4" d="m 333.07524,498.03909 -1.00106,-0.99195 -7.99323,16.00086 0,-0.002 -0.004,0.002 8,8 26.99437,0 0,-19 -8.9961,-9 -7.99999,5 -1.00158,-1.00076 z"/>
   <path inkscape:connector-curvature="0" style="fill:url(#linearGradient5990);stroke-linejoin:bevel" id="rect6277" d="m 324.07581,493.04799 0,19.99609 8.00033,-3.99619 0,-0.004 0,-11.99609 c -2.33352,-1.33297 -5.66678,-2.66757 -8.00033,-3.99981 z m 26,0 -8,4 0,11.99609 0,0.004 0.008,0 7.99233,4.00019 0,-20.00009 z m -17,4 0,12 8,0 0,-12 z"/>
   <path cx="347.07535" cy="498.048" style="fill:#eeff34;fill-rule:evenodd;stroke-linejoin:bevel;stroke-width:0.2" id="path12822" r="1"/>
   <circle cx="347.07535" cy="498.048" style="fill:#ffbd36;fill-rule:evenodd;stroke-linejoin:bevel;stroke-width:0.2" id="path12823" r="1"/>
  </g>
  <rect width="0" x="191.14217" y="457.04797" height="10.999983" style="fill:#ffffff" id="rect4035-54"/>
  <rect width="0" x="190.8214" y="456.04797" height="10.999983" style="fill:#ffffff" id="rect4035-4-3"/>
  <rect width="0" x="189.28554" y="455.93414" height="11.1139" style="fill:#fbd2bf" id="rect4035-3-9"/>
  <rect width="0" x="190.8214" y="456.04797" height="10.999983" style="fill:#fbd2bf" id="rect4035-1-0"/>
  <rect width="0" x="190.8214" y="456.04797" height="10.999983" style="fill:#fbfbfb" id="rect4035-5-27"/>
 </g>
</svg>
