<?xml version="1.0" encoding="UTF-8" standalone="no"?>

<!-- Created with Inkscape (http://www.inkscape.org/) -->
<svg width="48" version="1.1" xmlns="http://www.w3.org/2000/svg" height="48" xmlns:xlink="http://www.w3.org/1999/xlink" xmlns:inkscape="http://www.inkscape.org/namespaces/inkscape">
 <defs id="defs5455">
  <linearGradient inkscape:collect="always" id="linearGradient6075">
   <stop style="stop-opacity:0.313726" id="stop6077"/>
   <stop offset="1" style="stop-opacity:0" id="stop6079"/>
  </linearGradient>
  <linearGradient inkscape:collect="always" id="linearGradient5002">
   <stop style="stop-color:#2e5d89" id="stop5004"/>
   <stop offset="1" style="stop-color:#1b92f4" id="stop5006"/>
  </linearGradient>
  <linearGradient inkscape:collect="always" id="linearGradient4271">
   <stop style="stop-color:#2a2c2f" id="stop4273"/>
   <stop offset="1" style="stop-color:#424649" id="stop4275"/>
  </linearGradient>
  <linearGradient inkscape:collect="always" id="linearGradient4303-1">
   <stop style="stop-color:#c6cdd1" id="stop4305-9"/>
   <stop offset="1" style="stop-color:#e0e5e7" id="stop4307-9"/>
  </linearGradient>
  <linearGradient inkscape:collect="always" xlink:href="#linearGradient5002" id="linearGradient4352" y1="512.79797" x1="400.57144" y2="527.79797" gradientUnits="userSpaceOnUse" x2="415.57144" gradientTransform="matrix(1.0909188 0 0 1.1818182 -37.14649 -93.73207)"/>
  <linearGradient inkscape:collect="always" xlink:href="#linearGradient4271" id="linearGradient4617" y1="531.79797" y2="507.81851" x2="0" gradientUnits="userSpaceOnUse" gradientTransform="matrix(1.0000078 0 0 1.3356131 -0.00283 -168.45104)"/>
  <linearGradient inkscape:collect="always" xlink:href="#linearGradient5002" id="linearGradient4352-6" y1="512.79797" x1="400.57144" y2="527.79797" gradientUnits="userSpaceOnUse" x2="415.57144" gradientTransform="matrix(0.92308514 0 0 1 104.34927 5.656254)"/>
  <linearGradient inkscape:collect="always" id="linearGradient4352-5" xlink:href="#linearGradient5002" y1="512.79797" y2="527.79797" x1="400.57144" x2="415.57144" gradientUnits="userSpaceOnUse" gradientTransform="matrix(1.0909188 0 0 1.1818182 37.623404 -87.23596)"/>
  <linearGradient inkscape:collect="always" id="linearGradient4352-9" xlink:href="#linearGradient5002" y1="512.79797" y2="527.79797" x1="400.57144" x2="415.57144" gradientUnits="userSpaceOnUse" gradientTransform="matrix(1.0909188 0 0 1.1818182 34.854139 -94.23595)"/>
  <linearGradient inkscape:collect="always" id="linearGradient4784-5" xlink:href="#linearGradient4303-1" y1="577.7973" y2="541.79797" gradientUnits="userSpaceOnUse" x2="0" gradientTransform="matrix(1.5000131 0 0 1.000019 -588.86226 -533.8083)"/>
  <linearGradient inkscape:collect="always" xlink:href="#linearGradient5002" id="linearGradient30442" y1="512.79797" x1="400.57144" y2="527.79797" gradientUnits="userSpaceOnUse" x2="415.57144" gradientTransform="matrix(1.0909188 0 0 1.1818182 11.978491 -84.48207)"/>
  <linearGradient inkscape:collect="always" xlink:href="#linearGradient5002" id="linearGradient30446" y1="512.79797" x1="400.57144" y2="527.79797" gradientUnits="userSpaceOnUse" x2="415.57144" gradientTransform="matrix(0.92308514 0 0 1 153.47425 14.906251)"/>
  <linearGradient inkscape:collect="always" xlink:href="#linearGradient5002" id="linearGradient30448" y1="512.79797" x1="400.57144" y2="527.79797" gradientUnits="userSpaceOnUse" x2="415.57144" gradientTransform="matrix(1.0909188 0 0 1.1818182 86.74839 -77.985968)"/>
  <linearGradient inkscape:collect="always" xlink:href="#linearGradient5002" id="linearGradient30452" y1="512.79797" x1="400.57144" y2="527.79797" gradientUnits="userSpaceOnUse" x2="415.57144" gradientTransform="matrix(1.0909188 0 0 1.1818182 83.979122 -84.985948)"/>
  <linearGradient id="linearGradient4300-8-5">
   <stop style="stop-color:#f62020" id="stop4302-2-9"/>
   <stop offset="1" style="stop-color:#f8507b" id="stop4304-9-5"/>
  </linearGradient>
  <linearGradient inkscape:collect="always" xlink:href="#linearGradient6075" id="linearGradient6073-2" y1="532.79797" x1="409.57144" y2="543.79797" x2="420.57144" gradientUnits="userSpaceOnUse" gradientTransform="matrix(1 0 0 1 -62.49613 53.49611)"/>
  <linearGradient inkscape:collect="always" id="linearGradient9066" xlink:href="#linearGradient4300-8-5" y1="540.79797" y2="522.79797" gradientUnits="userSpaceOnUse" x2="0" gradientTransform="matrix(1 0 0 1 -61.50002 53.50002)"/>
 </defs>
 <metadata id="metadata5458"/>
 <g inkscape:label="Capa 1" inkscape:groupmode="layer" id="layer1" transform="matrix(1 0 0 1 -384.57143 -499.798)">
  <path cx="408.57144" cy="519.79797" inkscape:connector-curvature="0" style="fill:url(#linearGradient4352);stroke-linecap:round;stroke-linejoin:round;stroke-width:2" id="circle4309-6" r="9.999989"/>
  <path inkscape:connector-curvature="0" style="fill:url(#linearGradient4617);stroke-linecap:round;stroke-linejoin:round;stroke-width:2" id="rect4288" d="m 387.57302,508.798 41.99897,0 0,34.00001 -41.99897,0 z"/>
  <path cx="408.57144" cy="519.79797" inkscape:connector-curvature="0" style="fill:url(#linearGradient4352-6);stroke-linecap:round;stroke-linejoin:round;stroke-width:2" id="circle4309-6-0" r="9.999989"/>
  <path cx="408.57144" cy="519.79797" inkscape:connector-curvature="0" style="fill:url(#linearGradient4352-5);stroke-linecap:round;stroke-linejoin:round;stroke-width:2" id="circle4309-6-7" r="9.999989"/>
  <path inkscape:connector-curvature="0" style="fill:url(#linearGradient4784-5);stroke-linecap:round;stroke-linejoin:round;stroke-width:2" id="rect4290" d="m 2,8 0,36 44,0 0,-36 z m 2,2 40,0 0,32 -40,0 z" transform="matrix(1 0 0 1 384.57143 499.798)"/>
  <path cx="408.57144" cy="519.79797" inkscape:connector-curvature="0" style="fill:url(#linearGradient4352-9);stroke-linecap:round;stroke-linejoin:round;stroke-width:2" id="circle4309-6-4" r="9.999989"/>
  <rect width="0" x="262.64218" y="485.79797" height="10.999983" style="fill:#ffffff" id="rect4035"/>
  <rect width="0" x="262.32141" y="484.79797" height="10.999983" style="fill:#ffffff" id="rect4035-4"/>
  <rect width="0" x="260.78555" y="484.68414" height="11.1139" style="fill:#fbd2bf" id="rect4035-3"/>
  <rect width="0" x="262.32141" y="484.79797" height="10.999983" style="fill:#fbd2bf" id="rect4035-1"/>
  <rect width="0" x="262.32141" y="484.79797" height="10.999983" style="fill:#fbfbfb" id="rect4035-5"/>
  <rect width="0" x="204.34082" y="483.40155" height="10.999983" style="fill:#ffffff" id="rect4035-33"/>
  <rect width="0" x="204.02005" y="482.40155" height="10.999983" style="fill:#ffffff" id="rect4035-4-2"/>
  <rect width="0" x="202.48419" y="482.28772" height="11.1139" style="fill:#fbd2bf" id="rect4035-3-8"/>
  <rect width="0" x="204.02005" y="482.40155" height="10.999983" style="fill:#fbd2bf" id="rect4035-1-4"/>
  <rect width="0" x="204.02005" y="482.40155" height="10.999983" style="fill:#fbfbfb" id="rect4035-5-0"/>
  <rect width="0" x="197.36481" y="451.84555" height="10.999983" style="fill:#ffffff" id="rect4035-7"/>
  <rect width="0" x="197.04404" y="450.84555" height="10.999983" style="fill:#ffffff" id="rect4035-4-0"/>
  <rect width="0" x="195.50818" y="450.73172" height="11.1139" style="fill:#fbd2bf" id="rect4035-3-3"/>
  <rect width="0" x="197.04404" y="450.84555" height="10.999983" style="fill:#fbd2bf" id="rect4035-1-9"/>
  <rect width="0" x="197.04404" y="450.84555" height="10.999983" style="fill:#fbfbfb" id="rect4035-5-2"/>
  <rect width="0" x="139.06345" y="449.44913" height="10.999983" style="fill:#ffffff" id="rect4035-33-5"/>
  <rect width="0" x="138.74268" y="448.44913" height="10.999983" style="fill:#ffffff" id="rect4035-4-2-1"/>
  <rect width="0" x="137.20682" y="448.3353" height="11.1139" style="fill:#fbd2bf" id="rect4035-3-8-8"/>
  <rect width="0" x="138.74268" y="448.44913" height="10.999983" style="fill:#fbd2bf" id="rect4035-1-4-7"/>
  <rect width="0" x="138.74268" y="448.44913" height="10.999983" style="fill:#fbfbfb" id="rect4035-5-0-4"/>
  <path cx="408.57144" cy="519.79797" inkscape:connector-curvature="0" style="fill:url(#linearGradient30442);stroke-linecap:round;stroke-linejoin:round;stroke-width:2" id="circle4309-6-73" r="9.999989"/>
  <path cx="408.57144" cy="519.79797" inkscape:connector-curvature="0" style="fill:url(#linearGradient30446);stroke-linecap:round;stroke-linejoin:round;stroke-width:2" id="circle4309-6-0-7" r="9.999989"/>
  <path cx="408.57144" cy="519.79797" inkscape:connector-curvature="0" style="fill:url(#linearGradient30448);stroke-linecap:round;stroke-linejoin:round;stroke-width:2" id="circle4309-6-7-5" r="9.999989"/>
  <path cx="408.57144" cy="519.79797" inkscape:connector-curvature="0" style="fill:url(#linearGradient30452);stroke-linecap:round;stroke-linejoin:round;stroke-width:2" id="circle4309-6-4-6" r="9.999989"/>
  <rect width="0" x="311.76715" y="495.04797" height="10.999983" style="fill:#ffffff" id="rect4035-31"/>
  <rect width="0" x="311.44638" y="494.04797" height="10.999983" style="fill:#ffffff" id="rect4035-4-4"/>
  <rect width="0" x="309.91052" y="493.93414" height="11.1139" style="fill:#fbd2bf" id="rect4035-3-7"/>
  <rect width="0" x="311.44638" y="494.04797" height="10.999983" style="fill:#fbd2bf" id="rect4035-1-8"/>
  <rect width="0" x="311.44638" y="494.04797" height="10.999983" style="fill:#fbfbfb" id="rect4035-5-07"/>
  <rect width="0" x="253.46581" y="492.65155" height="10.999983" style="fill:#ffffff" id="rect4035-33-53"/>
  <rect width="0" x="253.14503" y="491.65155" height="10.999983" style="fill:#ffffff" id="rect4035-4-2-4"/>
  <rect width="0" x="251.60918" y="491.53772" height="11.1139" style="fill:#fbd2bf" id="rect4035-3-8-5"/>
  <rect width="0" x="253.14503" y="491.65155" height="10.999983" style="fill:#fbd2bf" id="rect4035-1-4-8"/>
  <rect width="0" x="253.14503" y="491.65155" height="10.999983" style="fill:#fbfbfb" id="rect4035-5-0-48"/>
  <rect width="0" x="246.48979" y="461.09555" height="10.999983" style="fill:#ffffff" id="rect4035-7-3"/>
  <rect width="0" x="246.16902" y="460.09555" height="10.999983" style="fill:#ffffff" id="rect4035-4-0-9"/>
  <rect width="0" x="244.63316" y="459.98172" height="11.1139" style="fill:#fbd2bf" id="rect4035-3-3-6"/>
  <rect width="0" x="246.16902" y="460.09555" height="10.999983" style="fill:#fbd2bf" id="rect4035-1-9-1"/>
  <rect width="0" x="246.16902" y="460.09555" height="10.999983" style="fill:#fbfbfb" id="rect4035-5-2-6"/>
  <rect width="0" x="188.18843" y="458.69913" height="10.999983" style="fill:#ffffff" id="rect4035-33-5-8"/>
  <rect width="0" x="187.86766" y="457.69913" height="10.999983" style="fill:#ffffff" id="rect4035-4-2-1-3"/>
  <rect width="0" x="186.3318" y="457.5853" height="11.1139" style="fill:#fbd2bf" id="rect4035-3-8-8-2"/>
  <rect width="0" x="187.86766" y="457.69913" height="10.999983" style="fill:#fbd2bf" id="rect4035-1-4-7-0"/>
  <rect width="0" x="187.86766" y="457.69913" height="10.999983" style="fill:#fbfbfb" id="rect4035-5-0-4-6"/>
  <rect width="0" x="240.26715" y="466.29797" height="10.999983" style="fill:#ffffff" id="rect4035-54"/>
  <rect width="0" x="239.94638" y="465.29797" height="10.999983" style="fill:#ffffff" id="rect4035-4-3"/>
  <rect width="0" x="238.41052" y="465.18414" height="11.1139" style="fill:#fbd2bf" id="rect4035-3-9"/>
  <rect width="0" x="239.94638" y="465.29797" height="10.999983" style="fill:#fbd2bf" id="rect4035-1-0"/>
  <rect width="0" x="239.94638" y="465.29797" height="10.999983" style="fill:#fbfbfb" id="rect4035-5-27"/>
  <rect width="0" x="119.65292" y="467.02106" height="10.999983" style="fill:#ffffff" id="rect4035-77"/>
  <rect width="0" x="119.33215" y="466.02106" height="10.999983" style="fill:#ffffff" id="rect4035-4-22"/>
  <rect width="0" x="117.7963" y="465.90723" height="11.1139" style="fill:#fbd2bf" id="rect4035-3-6"/>
  <rect width="0" x="119.33215" y="466.02106" height="10.999983" style="fill:#fbd2bf" id="rect4035-1-5"/>
  <rect width="0" x="119.33215" y="466.02106" height="10.999983" style="fill:#fbfbfb" id="rect4035-5-9"/>
  <rect width="0" x="94.76715" y="469.04797" height="10.999983" style="fill:#ffffff" id="rect4035-7-0"/>
  <rect width="0" x="94.44638" y="468.04797" height="10.999983" style="fill:#ffffff" id="rect4035-4-9"/>
  <rect width="0" x="92.91052" y="467.93414" height="11.1139" style="fill:#fbd2bf" id="rect4035-3-8-1"/>
  <rect width="0" x="94.44638" y="468.04797" height="10.999983" style="fill:#fbd2bf" id="rect4035-1-1"/>
  <rect width="0" x="94.44638" y="468.04797" height="10.999983" style="fill:#fbfbfb" id="rect4035-5-0-0"/>
  <g id="g29981" transform="matrix(1 0 0 1 61.50042 -59.49656)">
   <path inkscape:connector-curvature="0" style="fill:url(#linearGradient6073-2);fill-rule:evenodd" id="path6065-6" d="m 335.0731,594.29813 8.99609,8.99598 25.00293,0 -7.5e-4,-14.99598 -9.9975,-12.00303 z"/>
   <path inkscape:connector-curvature="0" style="fill:url(#linearGradient9066);stroke-linejoin:bevel" id="rect4695" d="m 335.07142,576.29798 24,0 0,18 -24,0 z"/>
   <path inkscape:connector-curvature="0" style="fill:#ffffff;stroke-linejoin:bevel" id="rect4686" d="m 337.07727,577.29606 0,1 20,0 0,-1 z m -0.004,3 0,10 1,0 c 3,0 4,-1.99805 4,-4.98438 0,-3.01367 -1,-5.01562 -4,-5.01562 z m 7,0 0,0.002 -0.002,0 0.002,0.006 0,9.99219 1,0 0,-7.49024 2.99413,7.4921 1,0 0,-0.002 0.002,0 0,-10 -1,0 0,7.50391 -2.95507,-7.39453 -0.041,-0.10938 z m 12.99805,0 c -3.00001,0 -5.9961,1 -5.9961,4.96875 0,4.0332 1.99609,5.03125 4.99609,5.03125 l 1,0 0,-5 -1.99609,0 0,1 0.99609,0 0,3 c -3,0 -3.99609,-1 -3.99609,-3.96875 0,-3.03125 1.99609,-4.03125 4.99609,-4.03125 z m -18.99805,1 c 3,3.4e-4 3,3.00195 3,4 0,1.00195 0,4.00034 -3,4 z m -0.99609,11 0,1 20,0 0,-1 z"/>
  </g>
 </g>
</svg>
