<?xml version="1.0" encoding="UTF-8"?>
<svg width="48" height="48" version="1.1" xmlns="http://www.w3.org/2000/svg">
 <defs>
  <linearGradient id="a" x2="0" y1="44" y2="4" gradientUnits="userSpaceOnUse">
   <stop stop-color="#42a603" offset="0"/>
   <stop stop-color="#78da06" offset="1"/>
  </linearGradient>
  <linearGradient id="c" x2="0" y1="19.04" y2="3.036" gradientTransform="translate(397.57,514.28)" gradientUnits="userSpaceOnUse">
   <stop stop-color="#bcfd93" offset="0"/>
   <stop stop-color="#fafff5" offset="1"/>
  </linearGradient>
  <linearGradient id="linearGradient9" x1="400.57" x2="428.57" y1="527.3" y2="527.3" gradientTransform="translate(-.03 4)" gradientUnits="userSpaceOnUse">
   <stop stop-color="#383e51" offset="0"/>
   <stop stop-color="#655c6f" stop-opacity="0" offset="1"/>
  </linearGradient>
 </defs>
 <g transform="translate(-384.57-499.8)">
  <g fill-rule="evenodd">
   <path transform="translate(384.57,499.8)" d="m4 9v32h21l10 6v-6h9v-32z" fill="url(#a)"/>
   <path d="m409.57 516.8-6 5v1l-1-1v7h-2l19 18v-6h9v-6z" fill="url(#linearGradient9)" opacity=".2"/>
  </g>
  <path d="m408.57 516.8-5 5v7l5 4h1v-16zm0 1.414v13.172l-4-3v-6.172zm6 0.586c1.2982 3.8947 1.2982 8.1053 0 12l1 0.667c1.5641-4.5356 1.5641-8.7984 0-13.334m-4 2.667c0.65656 2.6262 0.65656 5.3738 0 8l1.1298 0.667c0.92391-3.2693 0.90227-6.0647-0.0216-9.334m-12.108 1.667v7h2v-7z" fill="url(#c)" stroke-opacity=".55" stroke-width="2.8"/>
 </g>
</svg>
