<?xml version="1.0" encoding="UTF-8" standalone="no"?>

<!-- Created with Inkscape (http://www.inkscape.org/) -->
<svg width="48" version="1.1" xmlns="http://www.w3.org/2000/svg" height="48" viewBox="0 0 48 48" xmlns:xlink="http://www.w3.org/1999/xlink" xmlns:inkscape="http://www.inkscape.org/namespaces/inkscape">
 <defs id="defs5455">
  <linearGradient inkscape:collect="always" xlink:href="#linearGradient4303-6-4" id="linearGradient4165" y1="543.79797" y2="503.798" x2="0" gradientUnits="userSpaceOnUse" gradientTransform="matrix(1 0 0 1 -0.000017 0)"/>
  <linearGradient inkscape:collect="always" id="linearGradient4227">
   <stop style="stop-color:#292c2f" id="stop4229"/>
   <stop offset="1" style="stop-opacity:0" id="stop4231"/>
  </linearGradient>
  <linearGradient inkscape:collect="always" id="linearGradient4303-6-4">
   <stop style="stop-color:#c6cdd1" id="stop4305-7-0"/>
   <stop offset="1" style="stop-color:#e0e5e7" id="stop4307-0-0"/>
  </linearGradient>
  <linearGradient inkscape:collect="always" xlink:href="#linearGradient4227" id="linearGradient4553" y1="521.15356" x1="394.22003" y2="533.41211" gradientUnits="userSpaceOnUse" x2="416.84512" gradientTransform="matrix(1 0 0 1 -397.33565 -509.86885)"/>
  <linearGradient inkscape:collect="always" xlink:href="#linearGradient4227" id="linearGradient4585" y1="524.97009" x1="393.82339" y2="536.83307" gradientUnits="userSpaceOnUse" x2="413.96985" gradientTransform="matrix(1 0 0 1 -377.33565 -509.86885)"/>
  <linearGradient inkscape:collect="always" id="linearGradient4293">
   <stop id="stop4295"/>
   <stop offset="1" style="stop-opacity:0" id="stop4297"/>
  </linearGradient>
  <linearGradient inkscape:collect="always" xlink:href="#linearGradient4293" id="linearGradient4300" y1="510.798" x1="389.57144" y2="541.79797" gradientUnits="userSpaceOnUse" x2="427.57144" gradientTransform="matrix(1 0 0 1 -384.57143 -499.798)"/>
 </defs>
 <metadata id="metadata5458"/>
 <g inkscape:label="Capa 1" inkscape:groupmode="layer" id="layer1" transform="matrix(1 0 0 1 -384.57143 -499.798)">
  <rect width="40.00001" x="388.57141" y="503.798" rx="0" height="39.999969" style="fill:url(#linearGradient4165)" id="rect4146"/>
  <rect width="39.999969" x="388.57147" y="542.79797" height="0.999974" style="fill:#99a1a7" id="rect4167"/>
  <path style="fill:url(#linearGradient4300);opacity:0.2;fill-rule:evenodd" id="path4290" d="M 42.841797 11.105469 L 25 25.671875 L 25 42 L 27 44 L 44 44 L 44 12.265625 L 42.841797 11.105469 z M 23 27.304688 L 5 42 L 7 44 L 25 44 L 23 42 L 23 27.304688 z " transform="matrix(1 0 0 1 384.57143 499.798)"/>
  <rect width="40" x="388.57144" y="503.798" height="4.999996" style="fill:#566069;stroke-width:0.1" id="rect4302"/>
  <rect width="2.999988" x="424.57144" y="504.798" rx="1.499994" height="2.999988" style="fill:#eff0f1;stroke-width:0.1" id="rect4306"/>
  <rect width="40.00001" x="388.57144" y="508.798" rx="0" height="1" style="fill:#da4453;stroke-width:0.1" id="rect4310"/>
  <path inkscape:connector-curvature="0" style="shape-rendering:auto;color-interpolation-filters:linearRGB;fill:#ffffff;image-rendering:auto;text-rendering:auto;color:#000000;color-rendering:auto;color-interpolation:sRGB" id="path4273" d="m 389.57143,510.798 18,0 0,31 -18,0 0,-31 z"/>
  <path inkscape:connector-curvature="0" style="shape-rendering:auto;color-interpolation-filters:linearRGB;fill:#ffffff;image-rendering:auto;text-rendering:auto;color:#000000;color-rendering:auto;color-interpolation:sRGB" id="rect4274" d="m 409.57143,510.798 18,0 0,31 -18,0 0,-31 z"/>
  <path inkscape:connector-curvature="0" style="fill:url(#linearGradient4553);opacity:0.2;fill-rule:evenodd" id="path4551" d="M 8,12.5 6,14 23,23 23,20 8,12.5 Z m 0,4 -2,1.5 17,9 0,-3 -15,-7.5 z m 0,4 -2,1.5 17,9 0,-3 -15,-7.5 z" transform="matrix(1 0 0 1 384.57143 499.798)"/>
  <path inkscape:connector-curvature="0" style="fill:#4d4d4d" id="rect4230" d="m 390.57143,511.798 1,0 0,0.5 1,0 0,1.5 -2,0 z"/>
  <path inkscape:connector-curvature="0" style="fill:#4d4d4d" id="path4410" d="m 390.57143,515.798 1,0 0,0.5 1,0 0,1.5 -2,0 z"/>
  <path inkscape:connector-curvature="0" style="fill:#4d4d4d" id="path4414" d="m 390.57143,519.798 1,0 0,0.5 1,0 0,1.5 -2,0 z"/>
  <path inkscape:connector-curvature="0" style="fill:url(#linearGradient4585);opacity:0.2;fill-rule:evenodd" id="path4579" d="m 28,12.5 -2,1.5 17,9 0,-3 -15,-7.5 z m 0,4 -2,1.5 17,9 0,-3 -15,-7.5 z m 0,4 -2,1.5 17,9 0,-3 -15,-7.5 z m 0,4 -2,1.5 17,9 0,-3 -15,-7.5 z" transform="matrix(1 0 0 1 384.57143 499.798)"/>
  <path inkscape:connector-curvature="0" style="fill:#4d4d4d" id="path4418" d="m 410.57143,511.798 1,0 0,0.5 1,0 0,1.5 -2,0 z"/>
  <path inkscape:connector-curvature="0" style="fill:#4d4d4d" id="path4422" d="m 410.57143,515.798 1,0 0,0.5 1,0 0,1.5 -2,0 z"/>
  <path inkscape:connector-curvature="0" style="fill:#4d4d4d" id="path4426" d="m 410.57143,519.798 1,0 0,0.5 1,0 0,1.5 -2,0 z"/>
  <path inkscape:connector-curvature="0" style="fill:#4d4d4d" id="path4430" d="m 410.57143,523.798 1,0 0,0.5 1,0 0,1.5 -2,0 z"/>
 </g>
</svg>
