<?xml version="1.0" encoding="UTF-8" standalone="no"?>

<!-- Created with Inkscape (http://www.inkscape.org/) -->
<svg width="48" version="1.1" xmlns="http://www.w3.org/2000/svg" height="48" xmlns:xlink="http://www.w3.org/1999/xlink" xmlns:inkscape="http://www.inkscape.org/namespaces/inkscape">
 <defs id="defs5455">
  <linearGradient inkscape:collect="always" id="linearGradient4159">
   <stop style="stop-color:#2a2c2f" id="stop4161"/>
   <stop offset="1" style="stop-color:#424649" id="stop4163"/>
  </linearGradient>
  <linearGradient inkscape:collect="always" xlink:href="#linearGradient4159" id="linearGradient4250" y1="536.79797" y2="503.798" x2="0" gradientUnits="userSpaceOnUse"/>
  <linearGradient inkscape:collect="always" xlink:href="#linearGradient4303" id="linearGradient4272" y1="547.79797" y2="536.79797" x2="0" gradientUnits="userSpaceOnUse" gradientTransform="matrix(1 0 0 0.54545458 0 243.99907)"/>
  <linearGradient inkscape:collect="always" id="linearGradient4303">
   <stop style="stop-color:#c6cdd1" id="stop4305"/>
   <stop offset="1" style="stop-color:#e0e5e7" id="stop4307"/>
  </linearGradient>
  <linearGradient inkscape:collect="always" xlink:href="#linearGradient4697" id="linearGradient4703" y1="503.07938" x1="418.16971" y2="531.45813" x2="384.57144" gradientUnits="userSpaceOnUse" gradientTransform="matrix(0.91666628 0 0 0.91666628 -340.52366 -455.81464)"/>
  <linearGradient inkscape:collect="always" id="linearGradient4697">
   <stop style="stop-color:#4ce0c6" id="stop4699"/>
   <stop offset="1" style="stop-color:#3b85b5" id="stop4701"/>
  </linearGradient>
  <linearGradient inkscape:collect="always" xlink:href="#linearGradient4526" id="linearGradient4532" y1="521.63281" x1="404.0452" y2="528.35034" x2="430.73611" gradientUnits="userSpaceOnUse" gradientTransform="matrix(0.91666628 0 0 0.91666628 -340.52366 -455.81464)"/>
  <linearGradient inkscape:collect="always" id="linearGradient4526">
   <stop style="stop-color:#ffc169" id="stop4528"/>
   <stop offset="1" style="stop-color:#ffa92d" id="stop4530"/>
  </linearGradient>
  <linearGradient inkscape:collect="always" xlink:href="#linearGradient4468" id="linearGradient4474" y1="542.22382" x1="398.09201" y2="524.89966" x2="394.00299" gradientUnits="userSpaceOnUse" gradientTransform="matrix(0.91666628 0 0 0.91666628 -340.52366 -455.81464)"/>
  <linearGradient inkscape:collect="always" id="linearGradient4468">
   <stop style="stop-color:#334545" id="stop4470"/>
   <stop offset="1" style="stop-color:#536161" id="stop4472"/>
  </linearGradient>
  <linearGradient inkscape:collect="always" xlink:href="#linearGradient4468" id="linearGradient4500" y1="568.79803" x1="431.57141" y2="562.79803" x2="439.57141" gradientUnits="userSpaceOnUse" gradientTransform="matrix(-1 0 0 1 839.14285 -40.00001)"/>
  <linearGradient inkscape:collect="always" xlink:href="#linearGradient4468" id="linearGradient4498" y1="581.87024" x1="406.53735" y2="572.67786" x2="423.31955" gradientUnits="userSpaceOnUse" gradientTransform="matrix(-0.91666628 0 0 0.91666628 428.69029 -492.4813)"/>
  <linearGradient inkscape:collect="always" xlink:href="#linearGradient4468" id="linearGradient4496" y1="572.33411" x1="423.05438" y2="566.76562" x2="431.22452" gradientUnits="userSpaceOnUse" gradientTransform="matrix(-0.91666628 0 0 0.91666628 448.69029 -492.4813)"/>
  <linearGradient inkscape:collect="always" xlink:href="#linearGradient4468" id="linearGradient4492" y1="577.10217" x1="431.3129" y2="571.44531" x2="440.63208" gradientUnits="userSpaceOnUse" gradientTransform="matrix(-0.91666628 0 0 0.91666628 428.69029 -492.4813)"/>
  <linearGradient inkscape:collect="always" xlink:href="#linearGradient4468" id="linearGradient4490" y1="577.36243" x1="430.56738" y2="591.32782" x2="423.74994" gradientUnits="userSpaceOnUse" gradientTransform="matrix(-0.91666628 0 0 0.91666628 428.69029 -492.4813)"/>
 </defs>
 <metadata id="metadata5458"/>
 <g inkscape:label="Capa 1" inkscape:groupmode="layer" id="layer1" transform="matrix(1 0 0 1 -384.57143 -499.798)">
  <path inkscape:connector-curvature="0" style="stroke-opacity:0.550265;fill:url(#linearGradient4272);stroke-width:2.8" id="rect4254" d="m 402.57143,536.798 0,3.81819 0,1.0909 0,1.09091 12,0 0,-1.09091 0,-1.0909 0,-3.81819 z"/>
  <rect width="48" x="384.57144" y="503.798" height="35.999996" style="stroke-opacity:0.550265;fill:url(#linearGradient4250);stroke-width:2.8" id="rect4173"/>
  <g id="g4578" transform="matrix(0.91666628 0 0 0.91666628 34.04777 43.983359)">
   <path inkscape:connector-curvature="0" style="fill:url(#linearGradient4703)" id="path4589" d="M 12,6 12,36 56,36 56,6 12,6 Z" transform="matrix(1.0909096 0 0 1.0909096 371.48052 497.25255)"/>
   <path inkscape:connector-curvature="0" style="fill:url(#linearGradient4532);stroke-linecap:round;stroke-width:2" id="path4284" d="M 56,6 25.71875,23.482422 47.400391,36 56,36 56,6 Z" transform="matrix(1.0909096 0 0 1.0909096 371.48052 497.25255)"/>
   <path inkscape:connector-curvature="0" style="fill:url(#linearGradient4474);stroke-linecap:round;stroke-width:2" id="path4284-5-6" d="M 25.75,23.416016 12,31.355469 12,36 47.605469,36 25.75,23.416016 Z" transform="matrix(1.0909096 0 0 1.0909096 371.48052 497.25255)"/>
   <path inkscape:transform-center-x="-5.5056915" inkscape:connector-curvature="0" style="fill:url(#linearGradient4500);stroke-linecap:round;stroke-width:2" id="path4284-5-6-2-2" d="m 407.82995,527.56606 -8.25852,-4.76806 0,9.53611 z"/>
   <path inkscape:connector-curvature="0" style="fill:url(#linearGradient4498);stroke-linecap:round;stroke-width:2" id="path4284-5-6-2-0" d="m 40.890625,32.15625 0,3.84375 6.65625,0 -6.65625,-3.84375 z" transform="matrix(1.0909096 0 0 1.0909096 371.48052 497.25255)"/>
   <path inkscape:connector-curvature="0" style="fill:url(#linearGradient4496);stroke-linecap:round;stroke-width:2" id="path4284-5-6-2-6" d="m 53.320312,27.787109 0,8.212891 0.916016,0 6.654297,-3.841797 -7.570313,-4.371094 z" transform="matrix(1.0909096 0 0 1.0909096 349.66233 497.25255)"/>
   <path inkscape:connector-curvature="0" style="fill:url(#linearGradient4492);stroke-linecap:round;stroke-width:2" id="path4284-5-6-2-6-50" d="M 25.75,32.158203 25.75,36 32.404297,36 25.75,32.158203 Z" transform="matrix(1.0909096 0 0 1.0909096 371.48052 497.25255)"/>
   <path inkscape:connector-curvature="0" style="fill:url(#linearGradient4490);stroke-linecap:round;stroke-width:2" id="path4284-5-6-2-0-6" d="M 40.890625,32.15625 34.234375,36 l 6.65625,0 0,-3.84375 z" transform="matrix(1.0909096 0 0 1.0909096 371.48052 497.25255)"/>
   <path inkscape:transform-center-x="5.5056789" inkscape:connector-curvature="0" style="fill:#ffa92d;stroke-linecap:round;stroke-width:2" id="path4284-1" d="m 399.53737,522.87024 33.03408,-19.07223 -2e-5,9.31712 z"/>
  </g>
  <rect width="22" x="397.57144" y="541.79797" height="1.999947" style="stroke-opacity:0.550265;fill:#99a1a7;stroke-width:2.8" id="rect4295"/>
  <path inkscape:connector-curvature="0" style="fill:#ffffff;stroke-width:0.1" id="rect4421-3" d="m 387.57143,506.798 0,1 0,4 1,0 0,-4 4,0 0,-1 -5,0 z m 37,0 0,1 4,0 0,4 1,0 0,-4 0,-1 -5,0 z m -18,7 0,3 -2,0 0,11 13,0 0,-11 -2,0 0,-3 -9,0 z m 1,1 7,0 0,2 -7,0 0,-2 z m -8,2 0,11 4,0 0,-11 -4,0 z m 11.5,1 c 2.493,0 4.5,2.007 4.5,4.5 0,2.493 -2.007,4.5 -4.5,4.5 -2.493,0 -4.5,-2.007 -4.5,-4.5 0,-2.493 2.007,-4.5 4.5,-4.5 z m 0,1 c -1.939,0 -3.5,1.561 -3.5,3.5 0,1.939 1.561,3.5 3.5,3.5 1.939,0 3.5,-1.561 3.5,-3.5 0,-1.939 -1.561,-3.5 -3.5,-3.5 z m -23.5,11 0,4 0,1 5,0 0,-1 -4,0 0,-4 -1,0 z m 41,0 0,4 -4,0 0,1 5,0 0,-1 0,-4 -1,0 z"/>
 </g>
</svg>
