<?xml version="1.0" encoding="UTF-8" standalone="no"?>

<!-- Created with Inkscape (http://www.inkscape.org/) -->
<svg width="48" version="1.1" xmlns="http://www.w3.org/2000/svg" height="48" xmlns:xlink="http://www.w3.org/1999/xlink" xmlns:inkscape="http://www.inkscape.org/namespaces/inkscape">
 <defs id="defs5455">
  <linearGradient inkscape:collect="always" id="linearGradient4320">
   <stop style="stop-color:#70e4b3" id="stop4322"/>
   <stop offset="1" style="stop-color:#c8f0dc" id="stop4324"/>
  </linearGradient>
  <linearGradient inkscape:collect="always" id="linearGradient3043" xlink:href="#linearGradient4410" y1="517.79773" y2="533.79773" x1="404.97769" x2="420.97769" gradientUnits="userSpaceOnUse" gradientTransform="matrix(1 0 0 1 -388.97768 -501.79772)"/>
  <linearGradient inkscape:collect="always" xlink:href="#linearGradient4300" id="linearGradient4263" y1="785.70648" y2="727.70654" gradientUnits="userSpaceOnUse" x2="0" gradientTransform="matrix(0.7272726 0 0 0.68965569 0.72726 1.93103)"/>
  <linearGradient inkscape:collect="always" id="linearGradient4300">
   <stop style="stop-color:#26c281" id="stop4302"/>
   <stop offset="1" style="stop-color:#3fc380" id="stop4304"/>
  </linearGradient>
  <linearGradient inkscape:collect="always" xlink:href="#linearGradient4320" id="linearGradient4318" y1="531.79797" y2="515.79797" x2="0" gradientUnits="userSpaceOnUse"/>
  <linearGradient inkscape:collect="always" id="linearGradient4410">
   <stop style="stop-color:#383e51" id="stop4412"/>
   <stop offset="1" style="stop-color:#655c6f;stop-opacity:0" id="stop4414"/>
  </linearGradient>
 </defs>
 <metadata id="metadata5458"/>
 <g inkscape:label="Capa 1" inkscape:groupmode="layer" id="layer1" transform="matrix(1 0 0 1 -384.57143 -499.798)">
  <path inkscape:connector-curvature="0" style="fill:url(#linearGradient4263)" id="path4259" d="m 392.5812,503.798 c -0.006,0 -0.01,3.56799 -0.01,8 l 0,24 c 0,4.432 0.004,8 0.01,8 l 21.80273,0 10.17773,0 c 0.006,0 0.01,-3.568 0.01,-8 l 0,-1.65625 0,-18.34375 -12,-12 z"/>
  <rect width="31.999989" x="392.57144" y="542.79797" height="0.999993" style="fill:#2e3132;fill-opacity:0.294118" id="rect4169-4"/>
  <path style="fill:url(#linearGradient3043);opacity:0.2;fill-rule:evenodd" id="path4225" d="M 16 16 L 16 32 L 27 44 L 40 44 L 40 24 L 32 16 L 16 16 z " transform="matrix(1 0 0 1 384.57143 499.798)"/>
  <path inkscape:connector-curvature="0" style="fill:url(#linearGradient4318);color:#000000" id="rect4167" d="m 400.57142,515.798 0,16 16,0 0,-16 z m 1.00001,1 14,0 0,2 -14,0 z m 0,3 3,0 0,2 -3,0 z m 4,0 6,0 0,2 -6,0 z m 7,0 3,0 0,2 -3,0 z m -11,3 3,0 0,2 -3,0 z m 4,0 6,0 0,2 -6,0 z m 7,0 3,0 0,2 -3,0 z m -11,3 3,0 0,2 -3,0 z m 4,0 6,0 0,2 -6,0 z m 7,0 3,0 0,2 -3,0 z m -11,3 3,0 0,2 -3,0 z m 4,0 6,0 0,2 -6,0 z m 7,0 3,0 0,2 -3,0 z"/>
  <path inkscape:connector-curvature="0" style="fill:#289769" id="rect4307" d="m 424.56166,513.78823 c 0.006,-0.009 0.01,-2.22564 0.01,-4.99023 0,-2.77 -0.004,-5 -0.01,-5 l -9.98046,0 c -2e-5,0 10e-6,0.01 0,0.01 l 9.98046,9.98047 z"/>
 </g>
</svg>
