<?xml version="1.0" encoding="UTF-8" standalone="no"?>

<!-- Created with Inkscape (http://www.inkscape.org/) -->
<svg width="48" version="1.1" xmlns="http://www.w3.org/2000/svg" height="48" xmlns:xlink="http://www.w3.org/1999/xlink" xmlns:inkscape="http://www.inkscape.org/namespaces/inkscape">
 <defs id="defs5455">
  <linearGradient inkscape:collect="always" id="linearGradient4298">
   <stop style="stop-color:#b985ce" id="stop4300"/>
   <stop offset="1" style="stop-color:#e2cdeb" id="stop4302"/>
  </linearGradient>
  <linearGradient inkscape:collect="always" id="linearGradient4300-1">
   <stop style="stop-color:#8e44ad" id="stop4302-0"/>
   <stop offset="1" style="stop-color:#9b59b6" id="stop4304-6"/>
  </linearGradient>
  <linearGradient inkscape:collect="always" xlink:href="#linearGradient4300-1" id="linearGradient4263" y1="785.70648" y2="727.70654" gradientUnits="userSpaceOnUse" x2="0" gradientTransform="matrix(0.7272726 0 0 0.68965569 -383.84417 -497.86697)"/>
  <linearGradient inkscape:collect="always" xlink:href="#linearGradient4410" id="linearGradient4288" y1="16" x1="16.00001" y2="31.999973" x2="31.999985" gradientUnits="userSpaceOnUse" gradientTransform="matrix(1 0 0 1 384.57143 499.798)"/>
  <linearGradient inkscape:collect="always" xlink:href="#linearGradient4298" id="linearGradient4296" y1="32" y2="16" x2="0" gradientUnits="userSpaceOnUse"/>
  <linearGradient inkscape:collect="always" id="linearGradient4410">
   <stop style="stop-color:#383e51" id="stop4412"/>
   <stop offset="1" style="stop-color:#655c6f;stop-opacity:0" id="stop4414"/>
  </linearGradient>
 </defs>
 <metadata id="metadata5458"/>
 <g inkscape:label="Capa 1" inkscape:groupmode="layer" id="layer1" transform="matrix(1 0 0 1 -384.57143 -499.798)">
  <path inkscape:connector-curvature="0" style="fill:url(#linearGradient4263)" id="path4259" d="M 8.0097656,4 C 8.0040548,4 8,7.5679947 8,12 l 0,24 c 0,4.432005 0.00405,8 0.00977,8 l 21.80273,0 10.177734,0 C 39.995945,44 40,40.432005 40,36 L 40,34.34375 40,16 28,4 Z" transform="matrix(1 0 0 1 384.57143 499.798)"/>
  <path inkscape:connector-curvature="0" style="fill:#713e88" id="rect4307" d="m 424.55167,513.798 c 0.006,-0.009 0.01,-2.22564 0.01,-4.99023 0,-2.77 -0.004,-5 -0.01,-5 l -9.98046,0 c -2e-5,0 10e-6,0.01 0,0.01 l 9.98046,9.98047 z"/>
  <rect width="31.999989" x="392.57144" y="542.79797" height="0.999993" style="fill:#2e3132;fill-opacity:0.294118" id="rect4169-5"/>
  <path inkscape:connector-curvature="0" style="fill:url(#linearGradient4288);opacity:0.2;fill-rule:evenodd" id="path4274" d="m 402.57143,516.798 -2,1 0,12 13.09375,14 1.8125,0 9.09375,0 0,-9.65625 0,-8.34375 -9,-9 -0.53516,0.46484 -0.46484,-0.46484 -12,0 z"/>
  <path style="fill:url(#linearGradient4296);color:#000000;stroke-width:2" id="path3936" d="M 24 16 C 19.581722 16 16 16.895431 16 18 L 16 30 C 16 31.10457 19.58172 32 24 32 C 28.41828 32 32 31.10457 32 30 L 32 18 C 32 16.895431 28.418278 16 24 16 z M 24 17 C 27.865993 17 31 17.447715 31 18 C 31 18.552285 27.865993 19 24 19 C 20.134007 19 17 18.552285 17 18 C 17 17.447715 20.134007 17 24 17 z M 17 18.949219 C 18.355198 19.572263 20.963639 20 24 20 C 27.036361 20 29.644802 19.572263 31 18.949219 L 31 22 C 31 22.55228 27.86599 23 24 23 C 20.13401 23 17 22.55228 17 22 L 17 18.949219 z M 17 22.949219 C 18.355198 23.572263 20.963638 24 24 24 C 27.036362 24 29.644802 23.572263 31 22.949219 L 31 26 C 31 26.55228 27.86599 27 24 27 C 20.13401 27 17 26.55228 17 26 L 17 22.949219 z M 17 26.949219 C 18.355198 27.572263 20.963638 28 24 28 C 27.036362 28 29.644802 27.572263 31 26.949219 L 31 30 C 31 30.55228 27.86599 31 24 31 C 20.13401 31 17 30.55228 17 30 L 17 26.949219 z " transform="matrix(1 0 0 1 384.57143 499.798)"/>
 </g>
</svg>
