<?xml version="1.0" encoding="UTF-8" standalone="no"?>

<!-- Created with Inkscape (http://www.inkscape.org/) -->
<svg width="48" version="1.1" xmlns="http://www.w3.org/2000/svg" height="48" xmlns:xlink="http://www.w3.org/1999/xlink" xmlns:inkscape="http://www.inkscape.org/namespaces/inkscape">
 <defs id="defs5455">
  <linearGradient inkscape:collect="always" id="linearGradient4903">
   <stop style="stop-color:#eef1f2" id="stop4905"/>
   <stop offset="1" style="stop-color:#f9fafb" id="stop4907"/>
  </linearGradient>
  <linearGradient inkscape:collect="always" id="linearGradient4158" xlink:href="#linearGradient4303" y1="543.79797" y2="503.798" gradientUnits="userSpaceOnUse" x2="0" gradientTransform="matrix(1.1250015 0 0 1 -51.07197 0)"/>
  <linearGradient inkscape:collect="always" id="linearGradient4303">
   <stop style="stop-color:#c6cdd1" id="stop4305"/>
   <stop offset="1" style="stop-color:#e0e5e7" id="stop4307"/>
  </linearGradient>
  <linearGradient inkscape:collect="always" xlink:href="#linearGradient4903" id="linearGradient4901" y1="38" y2="5" x2="0" gradientUnits="userSpaceOnUse"/>
  <linearGradient inkscape:collect="always" xlink:href="#linearGradient4227" id="linearGradient4192" y1="513.79797" x1="398.57144" y2="531.79797" x2="416.57147" gradientUnits="userSpaceOnUse" gradientTransform="matrix(1 0 0 1 -384.57143 -499.798)"/>
  <linearGradient inkscape:collect="always" id="linearGradient4227">
   <stop style="stop-color:#292c2f" id="stop4229"/>
   <stop offset="1" style="stop-opacity:0" id="stop4231"/>
  </linearGradient>
 </defs>
 <metadata id="metadata5458"/>
 <g inkscape:label="Capa 1" inkscape:groupmode="layer" id="layer1" transform="matrix(1 0 0 1 -384.57143 -499.798)">
  <rect width="35.999992" x="390.57144" y="503.798" rx="0" height="39.999969" style="fill:url(#linearGradient4158)" id="rect4139"/>
  <rect width="36" x="390.57144" y="539.698" height="4.099974" style="fill:#99a1a7" id="rect4188"/>
  <rect width="35.999989" x="390.57144" y="542.79797" height="1" style="stroke-opacity:0.550265;fill:#737b81;stroke-width:2.8" id="rect4492"/>
  <rect width="12" x="400.57138" y="540.79822" height="2.999961" style="fill:#292c2e;stroke-width:0.1" id="rect4671"/>
  <path inkscape:connector-curvature="0" style="fill:#292c2e;stroke-width:0.1" id="rect4673" d="m 416.57144,540.79822 6,0 0,2.99996 -6,0 z"/>
  <path inkscape:connector-curvature="0" style="fill:url(#linearGradient4901);stroke-width:0.1" id="rect4768" d="m 8,5 0,6 0,9.048828 c 1.6982811,0.243116 3,1.683556 3,3.451172 0,1.767616 -1.3017189,3.208056 -3,3.451172 L 8,30 c 0,8 16,8 16,8 l 10,0 6,-7 0,-3.9 -2,0 0,-7.1 2,0 0,-9 0,-1 L 40,9.8183594 40,5 38,5 11,5 Z" transform="matrix(1 0 0 1 384.57143 499.798)"/>
  <path style="fill:url(#linearGradient4192);opacity:0.2;fill-rule:evenodd" id="path4184" d="M 27.253906 13.253906 L 19.599609 21 L 42 43.900391 L 42 28 L 27.253906 13.253906 z " transform="matrix(1 0 0 1 384.57143 499.798)"/>
  <path inkscape:connector-curvature="0" style="fill:#4d4d4d" id="rect4119" d="m 395.57143,506.798 c -0.1385,0 -0.25,0.1115 -0.25,0.25 0,0.1385 0.1115,0.25 0.25,0.25 0.1385,0 0.25,-0.1115 0.25,-0.25 0,-0.1385 -0.1115,-0.25 -0.25,-0.25 z m 1.75,0 -0.5,0.5 0.75,0.75 -0.25,0.25 -0.25,0.25 -0.25,0.25 0.5,0.5 0.25,-0.25 0.25,-0.25 0.25,-0.25 0.5,-0.5 z m -2.375,1.5 c -0.20775,0 -0.375,0.16725 -0.375,0.375 0,0.20775 0.16725,0.375 0.375,0.375 0.20775,0 0.375,-0.16725 0.375,-0.375 0,-0.20775 -0.16725,-0.375 -0.375,-0.375 z m 1.125,1.5 c -0.277,0 -0.5,0.223 -0.5,0.5 0,0.277 0.223,0.5 0.5,0.5 0.277,0 0.5,-0.223 0.5,-0.5 0,-0.277 -0.223,-0.5 -0.5,-0.5 z"/>
  <rect width="12" x="402.57144" y="510.798" rx="6" height="12" style="fill:#abb9be;stroke-width:0.1" id="rect4963"/>
  <rect width="10" x="403.57144" y="511.798" rx="5" height="10" style="fill:#ced6d9;stroke-width:0.1" id="rect4961"/>
  <rect width="11" x="412.57144" y="505.798" height="1" style="fill:#4d4d4d;stroke-width:0.1" id="rect4979"/>
  <rect width="9" x="414.57144" y="507.798" height="1" style="fill:#4d4d4d;stroke-width:0.1" id="rect4981"/>
  <rect width="11" x="412.57144" y="509.798" height="1" style="fill:#4d4d4d;stroke-width:0.1" id="rect4983"/>
  <rect width="10" x="397.57144" y="526.79797" height="5" style="fill:#fdbc4a;stroke-width:0.1" id="rect4985"/>
  <rect width="8" x="398.57144" y="527.79797" height="1" style="fill:#ffffff;stroke-width:0.1" id="rect5119"/>
  <rect width="6" x="398.57144" y="529.79797" height="1" style="fill:#ffffff;stroke-width:0.1" id="rect5121"/>
  <path inkscape:connector-curvature="0" style="fill:#4c5154" id="rect4191" d="m 402.57143,541.798 0,1 8,0 0,-1 -8,0 z m 15,0 0,1 3,0 0,1 1,0 0,-1 0,-1 -4,0 z"/>
  <rect width="12" x="400.57144" y="542.79797" height="0.999974" style="fill:#202324" id="rect4194"/>
  <rect width="6.00001" x="416.57144" y="542.79797" height="0.999974" style="fill:#202324" id="rect4196"/>
 </g>
</svg>
