<?xml version="1.0" encoding="UTF-8" standalone="no"?>

<!-- Created with Inkscape (http://www.inkscape.org/) -->
<svg width="48" version="1.1" xmlns="http://www.w3.org/2000/svg" height="48" xmlns:xlink="http://www.w3.org/1999/xlink" xmlns:inkscape="http://www.inkscape.org/namespaces/inkscape">
 <defs id="defs5455">
  <linearGradient inkscape:collect="always" id="linearGradient5022">
   <stop style="stop-color:#ffffff" id="stop5024"/>
   <stop offset="1" style="stop-color:#ffffff;stop-opacity:0" id="stop5026"/>
  </linearGradient>
  <linearGradient inkscape:collect="always" xlink:href="#linearGradient4159" id="linearGradient4158" y1="543.79797" y2="503.798" x2="0" gradientUnits="userSpaceOnUse" gradientTransform="matrix(1.1250015 0 0 1 -51.07197 0)"/>
  <linearGradient inkscape:collect="always" id="linearGradient4143">
   <stop style="stop-color:#197cf1" id="stop4145"/>
   <stop offset="1" style="stop-color:#20bcfa" id="stop4147"/>
  </linearGradient>
  <linearGradient inkscape:collect="always" xlink:href="#linearGradient4143" id="linearGradient4555" y1="44" y2="7" x2="0" gradientUnits="userSpaceOnUse"/>
  <linearGradient inkscape:collect="always" id="linearGradient4159">
   <stop style="stop-color:#1d1e1e" id="stop4161"/>
   <stop offset="1" style="stop-color:#44484c" id="stop4163"/>
  </linearGradient>
  <linearGradient inkscape:collect="always" id="linearGradient4435">
   <stop style="stop-color:#c61423" id="stop4437"/>
   <stop offset="1" style="stop-color:#dc2b41" id="stop4439"/>
  </linearGradient>
  <linearGradient inkscape:collect="always" xlink:href="#linearGradient4435" id="linearGradient4866" y1="520.79797" y2="503.798" x2="0" gradientUnits="userSpaceOnUse"/>
  <linearGradient inkscape:collect="always" xlink:href="#linearGradient4227" id="linearGradient4884" y1="4" x1="7.999996" y2="18.00002" x2="22.00001" gradientUnits="userSpaceOnUse"/>
  <linearGradient inkscape:collect="always" id="linearGradient4227">
   <stop style="stop-color:#292c2f" id="stop4229"/>
   <stop offset="1" style="stop-opacity:0" id="stop4231"/>
  </linearGradient>
  <linearGradient inkscape:collect="always" xlink:href="#linearGradient5022" id="linearGradient5028" y1="527.79797" y2="504.798" x2="0" gradientUnits="userSpaceOnUse"/>
 </defs>
 <metadata id="metadata5458"/>
 <g inkscape:label="Capa 1" inkscape:groupmode="layer" id="layer1" transform="matrix(1 0 0 1 -384.57143 -499.798)">
  <rect width="35.999992" x="390.57144" y="503.798" rx="0" height="39.999969" style="fill:url(#linearGradient4158)" id="rect4139"/>
  <path id="path4542" d="M 42 6.7070312 C 40.903061 7.1602802 39.805921 7.7557544 38.708984 8.5351562 C 36.864351 9.8458162 35.117264 11.496061 33.466797 13.486328 C 31.864877 15.428048 30.408316 17.637588 29.097656 20.113281 C 27.835536 22.540435 26.888873 25.06422 26.257812 27.685547 C 25.578213 30.306867 25.287679 32.710091 25.384766 34.894531 C 25.530392 37.030425 25.990891 38.82691 26.767578 40.283203 C 27.544271 41.73949 28.611503 42.783002 29.970703 43.414062 C 31.32991 44.045122 32.932704 44.165684 34.777344 43.777344 C 36.57343 43.388997 38.393641 42.541129 40.238281 41.230469 C 40.842095 40.796962 41.425815 40.322841 42 39.830078 L 42 35.259766 C 41.637935 35.5419 41.269467 35.81059 40.894531 36.060547 C 39.438238 36.982867 38.029129 37.516483 36.669922 37.662109 C 35.262175 37.807743 34.074376 37.564654 33.103516 36.933594 C 32.132656 36.302534 31.379676 35.35587 30.845703 34.09375 C 30.36027 32.83163 30.117188 31.327625 30.117188 29.580078 C 30.117187 27.783985 30.407714 25.84126 30.990234 23.753906 C 31.572748 21.66656 32.39885 19.676383 33.466797 17.783203 C 34.534744 15.841483 35.698818 14.14184 36.960938 12.685547 C 38.271604 11.180714 39.631316 9.9672419 41.039062 9.0449219 C 41.360608 8.8305578 41.680821 8.6448356 42 8.4707031 L 42 6.7070312 z " transform="matrix(1 0 0 1 384.57143 499.798)"/>
  <rect width="35.999992" x="390.57144" y="542.79797" height="0.999974" style="fill:#080809" id="rect4171"/>
  <rect width="2" x="390.57144" y="503.798" height="39.999969" style="fill:#080809;opacity:0.6" id="rect4965"/>
  <path style="fill:url(#linearGradient4884);opacity:0.2;fill-rule:evenodd" id="path4873" d="M 16 4 L 16 18 L 16 21 L 12 18.691406 L 8 21 L 31 44 L 42 44 L 42 30 L 16 4 z " transform="matrix(1 0 0 1 384.57143 499.798)"/>
  <rect width="33.999989" x="392.57144" y="541.79797" height="1" style="fill:#8b8f8f" id="rect4967"/>
  <rect width="34" x="392.57144" y="540.79816" height="1" style="fill:#212323;fill-opacity:0.451977" id="rect4971"/>
  <path inkscape:connector-curvature="0" style="fill:url(#linearGradient4866)" id="rect4783" d="m 392.57143,503.798 0,17 4,-2.30859 4,2.30859 0,-17 -8,0 z"/>
  <path inkscape:connector-curvature="0" style="fill:url(#linearGradient5028);opacity:0.15" id="rect5011" d="m 393.57144,503.798 6,0 0,15 -3,-2 -3,2 z"/>
 </g>
</svg>
