<?xml version="1.0" encoding="UTF-8"?>
<svg width="48" height="48" fill="none" version="1.1" viewBox="0 0 48 48" xmlns="http://www.w3.org/2000/svg">
 <defs>
  <linearGradient id="linearGradient2" x1="19.063" x2="19.265" y1="44.03" y2="7.2931" gradientUnits="userSpaceOnUse">
   <stop stop-color="#0e76f1" offset="0"/>
   <stop stop-color="#76d4fa" offset="1"/>
  </linearGradient>
  <linearGradient id="linearGradient4" x1="28.899" x2="29.546" y1="40.792" y2="3.9872" gradientUnits="userSpaceOnUse">
   <stop stop-color="#eb0000" offset="0"/>
   <stop stop-color="#ff7771" offset="1"/>
  </linearGradient>
 </defs>
 <path d="m34.831 40.813c0.99289-1.7818 1.5586-3.8336 1.5586-6.0167 0-6.8388-5.5511-12.389-12.39-12.389-5.0799 0-9.2031-4.1232-9.2031-9.2036 0-5.0805 4.1232-9.2036 9.2031-9.2036 11.041 0 20.001 8.96 20.001 20 0 7.0496-3.6541 13.251-9.1693 16.813zm-10.831-32.691c-0.93438 0-1.6934 0.75897-1.6934 1.6939 0 0.9348 0.75906 1.6939 1.6934 1.6939 0.9357 0 1.6938-0.75907 1.6938-1.6939 0-0.93491-0.75812-1.6939-1.6938-1.6939zm3.3877 3.3878c-0.93469 0-1.6939 0.75894-1.6939 1.6939 0 0.93484 0.75922 1.6939 1.6939 1.6939 0.9357 0 1.6938-0.75906 1.6938-1.6939 0-0.93492-0.75812-1.6939-1.6938-1.6939zm-6.7751 0c-0.93476 0-1.6938 0.75894-1.6938 1.6939 0 0.93484 0.75898 1.6939 1.6938 1.6939 0.93492 0 1.6939-0.75906 1.6939-1.6939 0-0.93492-0.75898-1.6939-1.6939-1.6939zm3.3873 3.3878c-0.93438 0-1.6934 0.75898-1.6934 1.6938 0 0.93492 0.75906 1.6939 1.6934 1.6939 0.9357 0 1.6938-0.75898 1.6938-1.6939 0-0.93477-0.75812-1.6938-1.6938-1.6938z" fill="url(#linearGradient4)" stroke-width=".078125"/>
 <path d="m13.169 7.1869c-0.9925 1.7819-1.5581 3.8336-1.5581 6.0167 0 6.8388 5.5503 12.389 12.389 12.389 5.0805 0 9.2041 4.1232 9.2041 9.2036 0 5.0803-4.1237 9.2036-9.2041 9.2036-11.039 0-19.999-8.96-19.999-20 0-7.0495 3.6534-13.251 9.1688-16.813zm10.831 22.528c-0.93438 0-1.6934 0.75906-1.6934 1.6939 0 0.93492 0.75906 1.6938 1.6934 1.6938 0.9357 0 1.6938-0.75891 1.6938-1.6938 0-0.93484-0.75812-1.6939-1.6938-1.6939zm3.3877 3.3877c-0.93469 0-1.6939 0.75898-1.6939 1.6939s0.75922 1.6939 1.6939 1.6939c0.9357 0 1.6938-0.75898 1.6938-1.6939s-0.75812-1.6939-1.6938-1.6939zm-3.3877 3.3878c-0.93438 0-1.6934 0.75891-1.6934 1.6938 0 0.93484 0.75906 1.6939 1.6934 1.6939 0.9357 0 1.6938-0.75906 1.6938-1.6939 0-0.93492-0.75812-1.6938-1.6938-1.6938zm-3.3873-3.3878c-0.93484 0-1.6938 0.75898-1.6938 1.6939s0.75891 1.6939 1.6938 1.6939c0.93484 0 1.6938-0.75898 1.6938-1.6939s-0.75898-1.6939-1.6938-1.6939z" fill="url(#linearGradient2)" stroke-width=".078125"/>
</svg>
