<svg width="48" height="48" version="1.1" viewBox="0 0 48.000001 48" xmlns="http://www.w3.org/2000/svg" xmlns:xlink="http://www.w3.org/1999/xlink">
    <defs>
        <linearGradient id="linearGradient4" x1="82.569939" x2="77.908051" y1="53.226517" y2="6.5204186" gradientTransform="matrix(.76324167 0 0 .76324167 -31.649997 3.6572882)" gradientUnits="userSpaceOnUse">
            <stop stop-color="#518630" offset="0"/>
            <stop stop-color="#b6db3f" offset="1"/>
        </linearGradient>
        <linearGradient id="linearGradient6" x1="26.111343" x2="22.092859" y1="44.899395" y2="4.6393743" gradientUnits="userSpaceOnUse">
            <stop stop-color="#386123" offset="0"/>
            <stop stop-color="#b6db3f" offset="1"/>
        </linearGradient>
    </defs>
    <g transform="translate(0 -.49962115)" stroke-width=".763241">
        <path d="m43.376527 12.160635-29.589064-7.5087288c-0.814327-0.2179864-1.640428 0.2684989-1.868963 1.079929l-3.3184739 11.782487c-0.2178495 0.81454 0.2223773 1.625944 1.0358788 1.847639l8.9250191 2.432245c0.813568 0.221713 1.707843-0.235389 1.926683-1.049736l0.03316-0.123395c0.21884-0.814347 0.913901-1.42302 1.726239-1.196834l6.168581 1.717571c0.812158 0.226136 1.297586 1.055226 1.079387 1.869553l-0.03307 0.123419c-0.218198 0.814327 0.06448 1.679909 0.880513 1.891649l8.89649 2.308423c0.815919 0.211711 1.651077-0.265252 1.868867-1.07957l3.172144-11.860672c0.287472-1.074861-0.088958-2.015964-0.903391-2.233979zm-36.152541 11.122848-3.3047264 11.79438c-0.2274737 0.81184 0.3983161 1.717652 1.2127474 1.935668l29.412292 7.873331c0.814328 0.217986 1.651159-0.265555 1.868963-1.079932l3.170037-11.852794c0.422481-1.579661-0.475558-2.342043-1.256852-2.488454l-8.521822-1.712065c-0.826538-0.166054-1.651355 0.26506-1.869553 1.079387l-0.06937 0.258882c-0.21821 0.81437-1.055214 1.297716-1.869624 1.079654l-6.087701-1.630011c-0.814129-0.217986-1.596092-0.983815-1.321322-1.780574l0.158408-0.45934c0.274785-0.796801-0.109369-1.540598-0.923501-1.758744l-8.7291074-2.338957c-0.8142165-0.21817-1.6510787 0.265251-1.868869 1.079569z" fill="url(#linearGradient6)"/>
        <path d="m43.19975 11.925237-29.412287-7.8733308c-0.814327-0.2179864-1.651158 0.2655532-1.868963 1.079929l-3.1700364 11.852799c-0.2178495 0.81454 0.2656345 1.651509 1.080073 1.869737l8.7323874 2.339835c0.814505 0.218246 1.651799-0.264749 1.870654-1.079091l0.03316-0.123395c0.218855-0.814343 1.05615-1.297338 1.870656-1.079091l6.080193 1.629183c0.814327 0.218198 1.610085 1.445851 1.391887 2.260178l-0.03307 0.123419c-0.218198 0.814327 0.02721 1.445994 0.845012 1.650802l8.619491 2.158645c0.817686 0.204779 1.651077-0.265252 1.868867-1.07957l3.172144-11.860672c0.217833-0.814481-0.265735-1.651362-1.080168-1.869377zm-35.975764 10.758246-3.1721439 11.860671c-0.2178335 0.81448 0.2657336 1.651361 1.0801649 1.869377l29.412292 7.873331c0.814328 0.217986 1.651159-0.265555 1.868963-1.079932l3.170037-11.852794c0.217849-0.81454-0.265636-1.651509-1.080075-1.869736l-8.698599-2.330783c-0.814327-0.218198-1.651355 0.26506-1.869553 1.079387l-0.06937 0.258882c-0.21821 0.81437-1.055214 1.297716-1.869624 1.079654l-6.087701-1.630011c-0.814129-0.217986-1.297054-1.055051-1.078254-1.868962l0.07002-0.260467c0.218811-0.813953-0.264049-1.651083-1.078181-1.869229l-8.7291074-2.338957c-0.8142165-0.21817-1.6510787 0.265251-1.868869 1.079569z" fill="url(#linearGradient4)"/>
    </g>
</svg>
