<?xml version="1.0" encoding="UTF-8" standalone="no"?>
<svg
   xmlns:dc="http://purl.org/dc/elements/1.1/"
   xmlns:cc="http://creativecommons.org/ns#"
   xmlns:rdf="http://www.w3.org/1999/02/22-rdf-syntax-ns#"
   xmlns:svg="http://www.w3.org/2000/svg"
   xmlns="http://www.w3.org/2000/svg"
   xmlns:xlink="http://www.w3.org/1999/xlink"
   xmlns:sodipodi="http://sodipodi.sourceforge.net/DTD/sodipodi-0.dtd"
   xmlns:inkscape="http://www.inkscape.org/namespaces/inkscape"
   inkscape:version="1.0 (4035a4fb49, 2020-05-01)"
   sodipodi:docname="org.kde.kontrast.svg"
   id="svg24"
   viewBox="0 0 48 48"
   height="48"
   version="1.1"
   width="48">
  <metadata
     id="metadata28">
    <rdf:RDF>
      <cc:Work
         rdf:about="">
        <dc:format>image/svg+xml</dc:format>
        <dc:type
           rdf:resource="http://purl.org/dc/dcmitype/StillImage" />
        <dc:title></dc:title>
      </cc:Work>
    </rdf:RDF>
  </metadata>
  <sodipodi:namedview
     inkscape:current-layer="svg24"
     inkscape:window-maximized="1"
     inkscape:window-y="0"
     inkscape:window-x="0"
     inkscape:cy="21.80356"
     inkscape:cx="0.74318461"
     inkscape:zoom="10.275049"
     showgrid="false"
     id="namedview26"
     inkscape:window-height="1011"
     inkscape:window-width="1920"
     inkscape:pageshadow="2"
     inkscape:pageopacity="0"
     guidetolerance="10"
     gridtolerance="10"
     objecttolerance="10"
     borderopacity="1"
     bordercolor="#666666"
     pagecolor="#ffffff" />
  <defs
     id="defs14">
    <linearGradient
       id="linearGradient4219">
      <stop
         id="stop2"
         offset="0"
         style="stop-color:#000000;stop-opacity:1;" />
      <stop
         id="stop4"
         offset="1"
         style="stop-color:#000000;stop-opacity:0;" />
    </linearGradient>
    <linearGradient
       id="linearGradient4153">
      <stop
         id="stop7"
         offset="0"
         style="stop-color:#f48b0b;stop-opacity:1" />
      <stop
         id="stop9"
         offset="1"
         style="stop-color:#ffba6b;stop-opacity:1" />
    </linearGradient>
    <linearGradient
       gradientTransform="translate(-1.7558594e-8,-2.481687e-5)"
       gradientUnits="userSpaceOnUse"
       y2="5"
       x2="23"
       y1="43.866"
       x1="23"
       id="linearGradient4159"
       xlink:href="#linearGradient4153" />
    <linearGradient
       gradientUnits="userSpaceOnUse"
       y2="36.37"
       x2="39.609"
       y1="11.995"
       x1="15.233"
       id="linearGradient4225"
       xlink:href="#linearGradient4219" />
    <filter
       height="1.0000001"
       y="-5.0865051e-08"
       width="1.0000002"
       x="-1.0166061e-07"
       id="filter934"
       style="color-interpolation-filters:sRGB"
       inkscape:collect="always">
      <feGaussianBlur
         id="feGaussianBlur936"
         stdDeviation="8.4775089e-07"
         inkscape:collect="always" />
    </filter>
    <filter
       height="1.0000001"
       y="-5.0865053e-08"
       width="1.0000002"
       x="-1.0178975e-07"
       id="filter938"
       style="color-interpolation-filters:sRGB"
       inkscape:collect="always">
      <feGaussianBlur
         id="feGaussianBlur940"
         stdDeviation="8.4775089e-07"
         inkscape:collect="always" />
    </filter>
  </defs>
  <path
     d="M 23.986328 44 A 20 20 0 0 0 24 44 A 20 20 0 0 0 44 24 A 20 20 0 0 0 24 4 A 20 20 0 0 0 23.988281 4 L 23.986328 44 z "
     style="fill:#39fea0;fill-opacity:1;filter:url(#filter934)"
     id="circle16" />
  <path
     d="M 23.986328 44 L 23.988281 4 A 20 20 0 0 0 4 24 A 20 20 0 0 0 23.986328 44 z "
     style="fill:#1f4855;fill-opacity:1;filter:url(#filter938)"
     id="path915" />
  <path
     sodipodi:nodetypes="cccccc"
     id="path18"
     d="M 25.36621,11.777344 23.740025,14.080953 13.36621,35.677734 24.038338,44.049452 C 34.200296,43.60778 40.764049,37.145756 43.137781,29.834143 Z"
     style="opacity:0.2;fill:url(#linearGradient4225);fill-opacity:1;stroke:none;stroke-width:2;stroke-linecap:butt;stroke-linejoin:round;stroke-miterlimit:4;stroke-dasharray:none;stroke-opacity:1" />
  <path
     id="path22"
     d="M 43.978516 23.417969 A 20 20 0 0 1 24 43 A 20 20 0 0 1 4.0214844 23.582031 A 20 20 0 0 0 4 24 A 20 20 0 0 0 24 44 A 20 20 0 0 0 44 24 A 20 20 0 0 0 43.978516 23.417969 z"
     style="fill:#000000;fill-opacity:1;opacity:0.2" />
  <g
     style="font-style:normal;font-variant:normal;font-weight:normal;font-stretch:normal;font-size:33.3333px;line-height:1.25;font-family:'Noto Sans';-inkscape-font-specification:'Noto Sans';letter-spacing:0px;word-spacing:0px;fill:#000000;fill-opacity:1;stroke:none"
     id="flowRoot853"
     transform="translate(2.36321,-3.8828224)"
     aria-label="A">
    <path
       transform="translate(-1.2548115,3.8828224)"
       d="m 22.789062,28.310547 h 4.769532 l 2.867187,7.367187 h 3.09961 l -9.267579,-23.90039 h -1.46875 v 3.351562 c 0.02238,-0.08504 0.04828,-0.166575 0.07031,-0.251953 0.08889,0.266667 0.198698,0.654905 0.332031,1.166016 0.155556,0.488888 0.311242,0.966927 0.466797,1.433593 0.155555,0.466666 0.267318,0.789019 0.333985,0.966797 l 2.666015,7.199219 h -3.869141 z"
       style="font-size:33.3333px;fill:#1f4855;fill-opacity:1"
       id="path869" />
    <path
       sodipodi:nodetypes="cccccccccccc"
       transform="translate(-1.2548115,3.8828224)"
       d="m 22.878119,28.307248 -1e-6,-2.66467 H 19.125 l 2.701172,-7.199219 c 0.133333,-0.377777 0.289019,-0.888759 0.466797,-1.533203 0.175213,-0.584042 0.408246,-1.432104 0.566403,-2.033203 l 0.02088,-3.099609 h -1.321658 l -9.300782,23.90039 h 3.035157 L 18.125,28.310547 Z"
       style="font-size:33.3333px;fill:#39fea0;fill-opacity:1"
       id="path875" />
  </g>
</svg>
