<?xml version="1.0" encoding="UTF-8" standalone="no"?>

<!-- Created with Inkscape (http://www.inkscape.org/) -->
<svg width="48" version="1.1" xmlns="http://www.w3.org/2000/svg" height="48" xmlns:xlink="http://www.w3.org/1999/xlink" xmlns:inkscape="http://www.inkscape.org/namespaces/inkscape">
 <defs id="defs5455">
  <linearGradient inkscape:collect="always" id="linearGradient4222">
   <stop style="stop-color:#292c2f" id="stop4224"/>
   <stop offset="1" style="stop-color:#292c2f;stop-opacity:0" id="stop4226"/>
  </linearGradient>
  <linearGradient inkscape:collect="always" xlink:href="#linearGradient4143" id="linearGradient4174" y1="543.79797" y2="503.798" x2="0" gradientUnits="userSpaceOnUse" gradientTransform="matrix(1 0 0 1 -0.000006 0.000011)"/>
  <linearGradient inkscape:collect="always" id="linearGradient4143">
   <stop style="stop-color:#197cf1" id="stop4145"/>
   <stop offset="1" style="stop-color:#20bcfa" id="stop4147"/>
  </linearGradient>
  <linearGradient inkscape:collect="always" xlink:href="#linearGradient4222" id="linearGradient4228" y1="22.676155" x1="-8.593461" y2="35.04172" x2="36.625847" gradientUnits="userSpaceOnUse"/>
  <linearGradient inkscape:collect="always" xlink:href="#linearGradient4290" id="linearGradient4161" y1="29.999973" y2="1.999974" x2="0" gradientUnits="userSpaceOnUse" gradientTransform="matrix(1.4285699 0 0 1.4285699 385.85222 500.80297)"/>
  <linearGradient inkscape:collect="always" id="linearGradient4290">
   <stop style="stop-color:#7cbaf8" id="stop4292"/>
   <stop offset="1" style="stop-color:#f4fcff" id="stop4294"/>
  </linearGradient>
  <linearGradient inkscape:collect="always" xlink:href="#linearGradient4227" id="linearGradient4230" y1="12.505747" x1="23.00004" y2="19.505716" x2="30.00001" gradientUnits="userSpaceOnUse" gradientTransform="matrix(1.4285699 0 0 1.4285699 385.85222 500.80297)"/>
  <linearGradient inkscape:collect="always" id="linearGradient4227">
   <stop style="stop-color:#292c2f" id="stop4229"/>
   <stop offset="1" style="stop-opacity:0" id="stop4231"/>
  </linearGradient>
 </defs>
 <metadata id="metadata5458"/>
 <g inkscape:label="Capa 1" inkscape:groupmode="layer" id="layer1" transform="matrix(1 0 0 1 -384.57143 -499.798)">
  <rect width="39.999989" x="388.57144" y="503.798" rx="19.999985" height="39.999969" style="stroke-opacity:0.550265;fill:url(#linearGradient4174);stroke-width:2.8" id="rect4166"/>
  <path style="stroke-opacity:0.550265;fill:#0c69cf;stroke-width:2.8" id="rect4775" d="M 4.0117188 23.5 C 4.007647 23.666859 4 23.832126 4 24 C 4 35.079992 12.920008 44 24 44 C 35.079992 44 44 35.079992 44 24 C 44 23.832126 43.992353 23.666859 43.988281 23.5 C 43.724099 34.346571 34.912435 43 24 43 C 13.087565 43 4.2759007 34.346571 4.0117188 23.5 z " transform="matrix(1 0 0 1 384.57143 499.798)"/>
  <path inkscape:connector-curvature="0" style="fill:url(#linearGradient4228);opacity:0.837" id="rect4216" d="m 34.299658,14.587276 -5.865634,1.830566 -2.723979,-2.788135 -3.667998,5.361482 -0.683519,-0.588422 -4.182224,4.941932 -3.530472,2.230908 3.758095,4.198407 -0.154372,2.474268 11.494969,11.248273 C 34,41 43,31 44.107606,24.571063 Z" transform="matrix(1 0 0 1 384.57143 499.798)"/>
  <g style="opacity:0.502" id="g4293">
   <path inkscape:connector-curvature="0" style="fill:url(#linearGradient4230);opacity:0.2;fill-rule:evenodd" id="path4219" d="m 427.29749,516.29123 -6.15234,9.5145 5.88448,5.88448 c 1.07361,-2.45708 1.67969,-5.16839 1.67969,-8.03012 0,-2.60828 -0.51141,-5.08815 -1.41183,-7.36886 z"/>
   <path inkscape:connector-curvature="0" style="fill:url(#linearGradient4161)" id="path34" d="m 408.43311,503.67406 c -1.5321,0.0208 -3.01604,0.2197 -4.44475,0.56362 -0.3761,0.33732 -0.93116,0.50834 -1.55413,0.49107 -0.22298,0.2133 -0.17149,0.61121 -0.29296,0.90401 -0.10229,0.24599 -0.46268,0.50923 -0.70871,0.48828 -0.182,-0.0154 -0.39002,-0.27131 -0.39062,-0.44084 -6.6e-4,-0.20468 0.28447,-0.31877 0.12834,-0.54688 -1.59208,0.64533 -3.07289,1.49619 -4.428,2.50837 0.36344,-0.13383 0.76424,-0.35882 1.09374,-0.36551 0.0541,-6.5e-4 0.10394,0.004 0.15346,0.0167 0.22132,0.058 0.80458,0.6968 0.31808,0.90402 -0.0461,0.02 -0.71341,0.0925 -0.82868,0.0725 -0.16944,-0.0284 -0.27022,-0.2626 -0.44085,-0.29297 -0.28658,-0.0496 -0.65096,0.24807 -0.89843,0.1144 -2.72544,2.19994 -4.84051,5.10706 -6.1077,8.44307 0.11627,-0.0672 0.23523,-0.13777 0.3404,-0.19252 0.35703,-0.1856 0.65855,-0.48561 1.07422,-0.51339 0.20734,-0.004 0.5068,0.0558 0.70592,0.0976 0.18378,0.0377 0.33205,0.16102 0.49107,0.17299 0.45131,0.0344 0.55811,-0.31675 0.92634,-0.51339 0.3804,0.0537 0.63301,-0.0637 0.97656,-0.0251 0.23423,0.0258 0.40343,0.27616 0.58593,0.29017 0.15353,0.0154 0.2895,-0.14271 0.43806,-0.11997 0.14432,0.0223 0.39228,0.33702 0.41574,0.51339 0.0296,0.21955 -0.1607,0.41736 -0.0977,0.65849 0.22997,0.23422 0.64792,0.28079 0.97656,0.41573 0.21399,-0.17634 0.0284,-0.50367 0,-0.75893 -0.004,-0.11242 0.0154,-0.21173 0,-0.31529 -0.02,-0.17578 -0.0965,-0.33782 -0.0977,-0.48828 -0.004,-0.69488 0.56067,-1.02025 1.02678,-1.29464 0.20176,-0.11957 0.36066,-0.32821 0.53572,-0.41573 0.24722,-0.124 0.43144,-0.15283 0.63616,-0.26786 0.3699,-0.20779 0.68733,-0.37558 0.97656,-0.61105 0.13371,-0.31507 0.0147,-0.73772 0.0251,-1.04911 0.13386,-0.082 0.24872,0.0368 0.39062,0.0251 0.22323,-0.0466 0.24181,-0.3625 0.36831,-0.48828 0.0736,-0.0721 0.27415,-0.12377 0.36551,-0.19532 0.22249,-0.17453 0.29401,-0.43817 0.48828,-0.51339 0.0696,-0.0283 0.23062,-0.0206 0.3404,-0.0502 0.14462,-0.0384 0.35044,-0.20945 0.58594,-0.29018 0.15354,-0.0536 0.50501,-0.0639 0.56361,-0.12277 0.0722,-0.0736 -10e-5,-0.28035 0.0251,-0.39062 0.11843,-0.55124 0.94892,-0.66818 1.43973,-0.8538 0.34401,-0.13042 0.69622,-0.36903 1.07422,-0.29575 -0.074,0.262 -0.42521,0.17015 -0.36552,0.48828 0.0824,0.4415 0.67277,-0.1275 0.82869,-0.19253 0.29794,-0.12557 0.80887,-0.20137 1.19977,-0.34319 0.34277,-0.12557 0.95646,-0.31664 0.63337,-0.7087 -0.26941,-0.0154 -0.39851,0.31531 -0.63337,0.41573 -0.16217,0.0259 -0.13224,-0.13483 -0.27064,-0.14787 -0.13158,-0.0154 -0.20525,0.12065 -0.34041,0.0977 -0.13428,-0.0223 -0.32216,-0.2335 -0.34319,-0.39062 -0.0536,-0.40765 0.34457,-0.57489 0.51339,-0.87891 -0.11157,-0.36876 -0.62088,-0.0761 -0.92912,-0.22042 0.0294,-0.21953 0.25695,-0.37098 0.51339,-0.41295 0.21021,-0.0354 0.68117,-0.0171 0.80636,0.0949 0.0724,0.0616 0.005,0.21569 0.12277,0.31808 0.12443,0.11243 0.27657,0.1019 0.43806,0.0753 0.0584,-0.27826 -0.36092,-0.20944 -0.31529,-0.39341 0.32985,-0.21577 0.86567,-0.0377 1.26953,-0.0977 0.23247,-0.0344 0.47759,-0.19936 0.68359,-0.31529 0.19594,-0.11157 0.45062,-0.30522 0.65848,-0.12277 0.0564,0.1994 -0.18197,0.26637 -0.29297,0.36552 -0.37364,0.33237 -0.75869,0.7133 -1.0491,1.09933 0.17818,0.17381 0.50208,0.0869 0.80357,0.12276 0.11785,0.0154 0.26599,0.0505 0.39062,0.0725 0.14555,0.0258 0.30172,0.0179 0.41574,0.0474 0.20511,0.0504 0.26008,0.27065 0.46317,0.27065 0.33408,-6e-4 0.33713,-0.36299 0.14788,-0.58873 0.0597,-0.23049 0.1533,-0.34916 0.0725,-0.5106 -0.15046,-0.301 -0.70265,-0.0154 -0.73103,-0.39063 -0.0181,-0.24347 0.20471,-0.23358 0.29297,-0.41574 -0.0402,-0.47045 0.38591,-0.50465 0.3404,-0.92633 -0.02,-0.17637 -0.1695,-0.17794 -0.29297,-0.3432 -0.0641,-0.0844 -0.093,-0.25263 -0.1702,-0.31808 -0.2554,-0.21578 -0.77493,-0.17406 -0.80636,-0.58593 -0.004,-0.13938 0.0153,-0.26434 0.0279,-0.39621 -0.23547,-0.0114 -0.46832,-0.0331 -0.70591,-0.0363 l -0.55246,0 z m -9.5145,4.79073 c 0.114,0.0154 0.25234,0.13742 0.39063,0.14788 0.13043,0.004 0.23789,-0.0716 0.31808,-0.0502 0.20421,0.0537 0.28952,0.36225 0.0976,0.51339 -0.15965,0.02 -0.22286,-0.0687 -0.34319,-0.0474 -0.33166,0.0564 -0.45807,0.70509 -0.70591,0.68359 -0.23376,-0.02 -0.36011,-0.58938 -0.12277,-0.75893 0.0154,-0.148 -0.10788,-0.17179 -0.10045,-0.31808 0.0706,-0.0904 0.27112,-0.18664 0.46596,-0.1702 z m -1.09933,0.0753 c 0.068,0.003 0.11906,0.0179 0.14509,0.0474 -0.0324,0.26027 -0.23704,0.24418 -0.43806,0.36551 -0.34715,0.20954 -0.54802,0.52894 -0.65848,0.97656 -0.032,0.13043 -0.37324,0.47538 -0.5385,0.44085 -0.38721,-0.0816 0.10704,-0.79553 0.19531,-0.90402 0.0976,-0.12028 0.22805,-0.22667 0.34319,-0.36551 0.11157,-0.13443 0.18536,-0.31601 0.29297,-0.39062 0.11786,-0.0816 0.45447,-0.17803 0.65848,-0.1702 z m 2.89063,0.8789 c 0.124,0.003 0.23372,0.0223 0.28459,0.0725 -0.0796,0.32248 -0.77274,0.23649 -1.02678,0.11997 0.0166,-0.12157 0.20563,-0.15415 0.36551,-0.1702 0.11243,-0.004 0.25285,-0.0259 0.37668,-0.0223 z m -1.58203,0.59431 c 0.0824,-0.003 0.16717,0.0161 0.2539,0.0391 -0.22474,0.18797 -0.46786,0.29362 -0.85379,0.41574 -0.18557,0.0587 -0.50706,0.13195 -0.53851,-0.0753 -0.0384,-0.254 0.27139,-0.1949 0.44085,-0.21763 0.21332,-0.0294 0.44763,-0.15383 0.69755,-0.16183 z m 24.52843,0.36272 c 0.0184,0.18349 0.0215,0.3577 -0.0279,0.55525 -0.0664,0.26454 -0.30461,0.50446 -0.29297,0.73381 0.0154,0.11786 0.14416,0.23123 0.17299,0.39063 0.0154,0.0846 -0.0396,0.26613 0,0.34319 0.124,0.24046 0.46278,0.0367 0.6836,0.0725 0.21572,0.0347 0.46558,0.34418 0.46316,0.58594 -0.003,0.16836 -0.1612,0.44884 -0.26785,0.61105 -0.21287,0.3237 -0.50113,0.33794 -0.80636,0.5106 -0.25456,0.1443 -0.36417,0.38513 -0.5134,0.63616 -0.16168,0.27112 -0.26191,0.43588 -0.19531,0.82868 -0.21821,0.43283 -0.54964,0.69812 -1.00167,0.90402 -0.13371,0.0604 -0.31539,0.0814 -0.43806,0.1702 -0.0976,0.0703 -0.15418,0.25978 -0.29297,0.41574 -0.17125,0.19058 -0.3508,0.27012 -0.44084,0.41573 -0.0696,0.11243 -0.0933,0.33726 -0.1702,0.48828 -0.10429,0.20508 -0.32629,0.30558 -0.46317,0.5134 -0.0624,0.0961 -0.10402,0.28993 -0.17299,0.41573 -0.15468,0.28113 -0.41903,0.4838 -0.39063,0.73103 0.0283,0.23898 0.29958,0.27997 0.31808,0.48828 0.004,0.11771 -0.0774,0.18975 -0.0725,0.31808 0.004,0.18737 0.13034,0.31897 0.14509,0.46317 0.0364,0.36257 -0.12436,0.50825 -0.19252,0.75614 -0.0324,0.11842 -0.0188,0.25066 -0.0502,0.34319 -0.0597,0.18146 -0.31308,0.34624 -0.31808,0.56082 -0.003,0.15246 0.15733,0.27427 0.1702,0.48828 0.004,0.14755 -0.0734,0.30521 -0.0474,0.44085 0.0519,0.26573 0.52729,0.57478 0.73382,0.78125 0.27625,0.27624 0.63711,0.49021 0.75613,0.78125 0.10043,0.24721 0.10045,0.56988 0.29297,0.75614 0.14243,0.13757 0.37836,0.22243 0.56083,0.36551 0.17017,0.13357 0.35659,0.24891 0.5385,0.39063 0.29724,0.23249 0.74577,0.69698 1.21931,0.66127 0.24723,-0.0181 0.50076,-0.22082 0.78125,-0.27065 0.28857,-0.0516 0.66314,-0.0774 0.95424,-0.0474 0.22298,0.0223 0.45179,0.15573 0.68359,0.14509 0.24474,-0.0154 0.52546,-0.19661 0.80357,-0.31808 0.43947,-0.19126 1.07859,-0.42892 1.72154,-0.39341 0.12306,-0.90049 0.20926,-1.813 0.20926,-2.74833 0,-3.78443 -1.05924,-7.30418 -2.87109,-10.31528 -0.0841,-0.006 -0.16152,-0.0173 -0.25391,-0.014 -0.24777,0.0154 -0.6548,0.0154 -0.65848,-0.29297 -0.002,-0.25329 0.23893,-0.30923 0.52734,-0.32645 -0.53946,-0.82545 -1.14449,-1.60128 -1.79687,-2.33537 z m -30.52731,9.16294 c -0.40564,0.0223 -0.67061,0.0409 -0.90123,0.14509 -0.52838,0.24047 -0.42634,0.95551 -0.95424,1.12444 -0.18258,0.0584 -0.43235,0.0605 -0.63337,0.0977 -0.17344,0.0316 -0.38484,0.12648 -0.56361,0.12277 -0.21152,-0.004 -0.58013,-0.20807 -0.70592,-0.34319 -0.0866,-0.0938 -0.2283,-0.42134 -0.32087,-0.63895 -0.12748,0.70299 -0.21541,1.4186 -0.26786,2.14564 0.0433,0.008 0.0891,0.0195 0.12556,0.0195 0.23123,10e-4 0.47858,-0.23854 0.73382,-0.24554 0.59868,-0.0166 0.85862,0.76183 1.34207,1.00168 0.12157,0.0604 0.2815,0.0629 0.43806,0.0977 0.12643,0.0283 0.22144,0.0815 0.34319,0.12277 0.25825,0.0876 0.57467,0.0781 0.78125,0.1702 0.3113,0.13815 0.53868,0.72231 0.80636,0.87891 0.0154,0.15783 -0.0292,0.37061 0.0251,0.48828 0.12643,0.17147 0.30505,0.13373 0.5134,0.24554 0.24922,0.13443 0.32461,0.47985 0.56082,0.58593 0.0814,0.0363 0.28692,0.033 0.41574,0.0725 0.32367,0.098 0.42848,0.47251 0.70591,0.39062 0.18197,-0.0536 0.16862,-0.24179 0.1981,-0.41574 0.12029,-0.13042 0.25058,-0.33671 0.43806,-0.3404 0.30339,-0.0154 0.33045,0.31359 0.44085,0.60826 0.0623,0.16652 0.22531,0.3126 0.26786,0.48828 0.0756,0.3034 0.0389,1.21089 -0.0251,1.3923 -0.0764,0.22247 -0.37789,0.31693 -0.56362,0.56362 -0.0876,0.11557 -0.12923,0.28421 -0.19531,0.36551 -0.11957,0.14554 -0.29839,0.18374 -0.38784,0.31808 -0.0506,0.0756 -0.0988,0.23812 -0.14788,0.3404 -0.14661,0.31071 -0.34376,0.53099 -0.22042,0.90402 0.0516,0.15354 0.29237,0.25737 0.29297,0.43806 6.3e-4,0.21264 -0.45323,0.40307 -0.48828,0.63615 -0.0259,0.17345 0.14034,0.48301 0.19531,0.70871 0.0404,0.17054 0.36265,0.27714 0.46317,0.39062 0.17144,0.1924 0.30934,0.46422 0.46596,0.70592 0.3096,0.4754 0.55235,1.05448 0.85379,1.51506 0.15932,0.24123 0.38214,0.45831 0.48828,0.70871 0.0543,0.12643 0.0477,0.27708 0.0977,0.39062 0.17451,0.3939 0.94439,0.80618 1.34207,1.00168 0.1862,0.0906 0.39282,0.12298 0.56362,0.21763 0.25881,0.1443 0.77055,0.532 0.90123,0.75893 0.11642,0.20397 0.18895,0.69961 0.24553,1.02399 0.0756,0.42862 0.004,0.75788 0.0251,1.2221 0.0154,0.25107 0.0949,0.50451 0.0976,0.75614 0.001,0.0881 -0.0464,0.15281 -0.0502,0.24274 -0.004,0.30462 0.0762,0.64776 0.0502,0.95424 -0.002,0.0657 -0.009,0.11514 -0.0195,0.17299 2.39653,1.01153 5.03379,1.57087 7.80691,1.57087 0.29021,0 0.57224,-0.0325 0.85937,-0.0447 0.006,-0.0456 0.0131,-0.0914 0.0223,-0.12834 0.0884,-0.24774 0.3164,-0.33025 0.46317,-0.51339 0.11143,-0.13814 0.16234,-0.29997 0.26786,-0.43806 0.11471,-0.15045 0.21736,-0.28323 0.29296,-0.41573 0.0722,-0.44583 -0.17764,-0.75648 -0.0725,-1.14677 0.11671,-0.4384 0.72192,-0.70621 1.14676,-0.90401 0.14615,-0.0679 0.29671,-0.17911 0.41574,-0.22043 0.29401,-0.10243 0.66029,-0.0471 0.92913,-0.14509 0.4575,-0.16744 0.5054,-0.65739 0.73102,-1.07421 0.10643,-0.1974 0.247,-0.39512 0.26786,-0.53572 0.0181,-0.12643 -0.0455,-0.2444 -0.0251,-0.39341 0.0223,-0.14755 0.15439,-0.276 0.19531,-0.43806 0.0536,-0.21153 0.0753,-0.52052 0.0753,-0.75614 0,-0.19338 -0.0895,-0.36406 -0.0977,-0.5385 -0.0316,-0.63339 0.22881,-0.70441 0.46317,-1.04911 0.11757,-0.17125 0.16066,-0.36556 0.24274,-0.48828 0.3934,-0.58696 1.07616,-0.87054 1.02679,-1.75781 -0.0166,-0.29361 -0.19977,-0.95817 -0.41574,-1.05189 -0.12357,-0.0537 -0.40716,-0.004 -0.58593,-0.0725 -0.57716,-0.2153 -0.91704,-0.93086 -1.51507,-0.97656 -0.12771,-0.0154 -0.2441,0.0525 -0.38783,0.0502 -0.23673,-0.0154 -0.59452,-0.16583 -0.85659,-0.19531 -0.16651,-0.0181 -0.38831,0.0494 -0.48828,0 -0.15247,-0.0741 -0.16894,-0.35427 -0.29297,-0.43806 -0.0984,-0.0676 -0.2889,-0.0902 -0.43805,-0.14788 -0.24048,-0.0926 -0.43124,-0.20108 -0.70871,-0.22042 -0.0856,-0.004 -0.19327,0.0408 -0.29297,0.0251 -0.15354,-0.0259 -0.27408,-0.20672 -0.41573,-0.29297 -0.17745,-0.108 -0.34238,-0.16121 -0.41574,-0.31529 0.16034,-0.52594 -0.28281,-0.67269 -0.39062,-0.97657 -0.0516,-0.14243 -0.0274,-0.31384 -0.0725,-0.44085 -0.0636,-0.18199 -0.24364,-0.28627 -0.44085,-0.43806 -0.35337,-0.27197 -0.66689,-0.52643 -1.17188,-0.58873 -0.222,-0.0283 -0.4405,0.0667 -0.7087,0.0502 -0.28424,-0.0181 -0.64117,-0.2676 -0.8538,-0.5106 -0.20668,-0.23723 -0.30822,-0.45019 -0.48827,-0.56362 -0.17056,-0.10957 -0.39691,-0.10674 -0.5134,-0.21763 -0.0519,-0.0484 -0.0422,-0.13144 -0.0976,-0.24554 -0.0857,-0.17762 -0.22959,-0.27546 -0.12278,-0.48828 -0.19458,-0.1 -0.20001,0.18481 -0.41294,0.14788 -0.18979,-0.2694 -0.35024,-0.39708 -0.78125,-0.31808 -0.19739,0.0364 -0.30851,0.28677 -0.5385,0.29297 -0.1886,0.0154 -0.33684,-0.21015 -0.58594,-0.24554 -0.188,-0.0258 -0.40189,0.0507 -0.53572,0.0251 -0.20842,-0.0416 -0.27278,-0.2152 -0.46316,-0.3404 -0.13958,-0.0917 -0.40999,-0.24802 -0.48829,-0.24554 -0.24545,0.0154 -0.42044,0.52257 -0.75892,0.34319 -0.1645,-0.20844 0.26777,-0.31837 0.0725,-0.51339 -0.148,-0.148 -0.27228,0.0662 -0.39062,0.14788 -0.13557,0.0936 -0.26311,0.1873 -0.41295,0.24275 -0.33543,0.12557 -0.54422,0.0597 -0.80636,0.19531 -0.24273,0.12571 -0.2531,0.33615 -0.39062,0.58594 -0.11243,0.20464 -0.36955,0.50105 -0.53851,0.51339 -0.20464,0.0154 -0.40031,-0.28524 -0.58594,-0.36551 -0.55921,-0.24223 -0.83028,0.21421 -1.29464,0.22042 -0.43097,0.0154 -1.04563,-0.69416 -1.02399,-1.09933 0.004,-0.24723 0.14123,-0.62329 0.1702,-0.92913 0.0259,-0.24323 0.19251,-0.38902 0.19531,-0.61105 0.004,-0.2966 -0.39352,-0.52565 -0.58594,-0.56082 -0.45622,-0.0839 -1.08985,0.18414 -1.61272,-0.0251 -0.1,-0.16548 0.11704,-0.27987 0.17299,-0.44085 0.0316,-0.0914 0.0147,-0.21464 0.0474,-0.31528 0.058,-0.15552 0.22005,-0.27608 0.29297,-0.44085 0.0546,-0.12572 0.0679,-0.30716 0.12276,-0.46317 0.0636,-0.17763 0.18157,-0.29115 0.19531,-0.41574 0.0181,-0.16448 -0.0442,-0.3547 -0.17299,-0.46317 z m 6.52901,5.17019 c 0.1655,0.0154 0.18598,0.35755 0.0167,0.38505 -0.18259,0.0284 -0.27461,-0.28638 -0.0977,-0.3683 0.0296,-0.0154 0.0572,-0.0183 0.0809,-0.0168 z"/>
  </g>
  <path inkscape:label="Capa 1" inkscape:connector-curvature="0" style="shape-rendering:auto;color-interpolation-filters:linearRGB;fill:#ffffff;image-rendering:auto;text-rendering:auto;color:#000000;color-rendering:auto;color-interpolation:sRGB" id="path5692_2_-3-2" d="m 12.338532,1033.3623 -2.8326777,0.2648 0,10.9399 2.8015387,-0.3823 0,-4.676 3.735415,5.176 2.926063,-0.8824 -3.828788,-4.97 3.859917,-4.7054 -2.988315,-0.647 -3.704286,4.7054 0.03122,-4.823 z m -6.3812958,2.6761 c -0.031669,0 -0.069523,0.017 -0.093407,0.03 l -1.0894896,1.0587 c -0.0464,0.046 -0.06524,0.1229 -0.031228,0.1765 l 1.2762647,1.9999 c -0.22912,0.3639 -0.3979586,0.7624 -0.5291917,1.176 l -2.3657544,0.4708 c -0.06596,0.017 -0.1244304,0.054 -0.1244304,0.1181 l 0,1.4705 c 0,0.062 0.060955,0.1314 0.1244304,0.1465 l 2.3034978,0.5294 c 0.1226483,0.4795 0.3089159,0.9352 0.5603035,1.3526 l -1.3385048,1.9119 c -0.037132,0.054 -0.017821,0.1314 0.031228,0.1765 l 1.0895061,1.0291 c 0.0464,0.042 0.1301352,0.064 0.1867586,0.03 l 2.0856111,-1.2056 c 0.41008,0.2235 0.8399555,0.41 1.3073987,0.5292 l 0.4980409,2.2057 c 0.01429,0.064 0.05727,0.1179 0.124442,0.1179 l 1.5564029,0 c 0.0656,0 0.139939,-0.057 0.155625,-0.1179 l 0.560303,-2.2057 c 0.481832,-0.1229 0.949588,-0.3248 1.369655,-0.5586 l 2.054466,1.294 c 0.05654,0.034 0.138693,0.017 0.18677,-0.03 l 1.089485,-1.0294 c 0.04668,-0.046 0.06543,-0.1229 0.03122,-0.1763 l -0.747078,-1.1761 -0.249027,0.088 c -0.03554,0.017 -0.07255,0 -0.09341,-0.03 0,0 -0.470824,-0.6738 -1.089489,-1.5294 -0.739591,1.3676 -2.246808,2.2941 -3.98442,2.2941 -2.4687221,0 -4.4824767,-1.873 -4.4824767,-4.2055 0,-1.7157 1.0908083,-3.1915 2.6459092,-3.8525 l 0,-1.0882 c -0.2830458,0.094 -0.5494623,0.1896 -0.8093519,0.3237 -1.931e-4,0 -0.030455,0 -0.031228,0 l -2.0855889,-1.2942 c -0.02836,-0.017 -0.061672,-0.032 -0.093419,-0.029 z" transform="matrix(1.2984085 0 0 1.2984085 394.28894 -828.31553)"/>
 </g>
</svg>
