<?xml version="1.0" encoding="UTF-8" standalone="no"?>

<!-- Created with Inkscape (http://www.inkscape.org/) -->
<svg width="48" version="1.1" xmlns="http://www.w3.org/2000/svg" height="48" xmlns:xlink="http://www.w3.org/1999/xlink" xmlns:inkscape="http://www.inkscape.org/namespaces/inkscape">
 <defs id="defs3020">
  <linearGradient inkscape:collect="always" id="linearGradient4299">
   <stop style="stop-color:#292c2f" id="stop4301"/>
   <stop offset="1" style="stop-color:#292c2f;stop-opacity:0" id="stop4303"/>
  </linearGradient>
  <linearGradient inkscape:collect="always" id="linearGradient4143">
   <stop style="stop-color:#197cf1" id="stop4145"/>
   <stop offset="1" style="stop-color:#20bcfa" id="stop4147"/>
  </linearGradient>
  <linearGradient inkscape:collect="always" id="linearGradient4290">
   <stop style="stop-color:#7cbaf8" id="stop4292"/>
   <stop offset="1" style="stop-color:#f4fcff" id="stop4294"/>
  </linearGradient>
  <linearGradient inkscape:collect="always" xlink:href="#linearGradient4290" id="linearGradient3861" y1="44" y2="4" x2="0" gradientUnits="userSpaceOnUse"/>
  <linearGradient inkscape:collect="always" xlink:href="#linearGradient4143" id="linearGradient3935" y1="39" y2="9" gradientUnits="userSpaceOnUse" x2="0" gradientTransform="matrix(1.0285714 0 0 1.2 -5.314284 -2013.5244)"/>
  <linearGradient inkscape:collect="always" xlink:href="#linearGradient4299" id="linearGradient4236" y1="13.01367" x1="25.04492" y2="30.26088" x2="42.989807" gradientUnits="userSpaceOnUse"/>
  <linearGradient inkscape:collect="always" xlink:href="#linearGradient4299" id="linearGradient4244" y1="18.260004" x1="14.589796" y2="40.43988" x2="36.0615" gradientUnits="userSpaceOnUse"/>
 </defs>
 <metadata id="metadata3023"/>
 <g inkscape:label="Layer 1" inkscape:groupmode="layer" id="layer1" transform="matrix(1 0 0 1 0 -1004.3622)">
  <path style="fill:url(#linearGradient3861);color:#000000;fill-rule:evenodd;stroke-width:2" id="path3085" d="M 44,24 A 20,20 0 0 1 24,44 20,20 0 0 1 4,24 20,20 0 0 1 24,4 20,20 0 0 1 44,24 Z" transform="matrix(1 0 0 1 0 1004.3622)"/>
  <path style="fill:url(#linearGradient3935);color:#000000;fill-rule:evenodd;stroke-width:2" id="path4159" d="M 24 6 C 14.058875 6 6 14.0589 6 24 C 6 33.9411 14.058875 42 24 42 C 33.941125 42 42 33.9411 42 24 C 42 14.0589 33.941125 6 24 6 z M 25 13 L 27 13 L 27 19.080078 A 7 6 0 0 1 31 18 A 7 6 0 0 1 38 24 A 7 6 0 0 1 31 30 A 7 6 0 0 1 27 28.914062 L 27 31 L 25 31 L 25 13 z M 21 17 L 23 17 L 23 35 L 21 35 L 21 28.919922 A 7 6 0 0 1 17 30 A 7 6 0 0 1 10 24 A 7 6 0 0 1 17 18 A 7 6 0 0 1 21 19.085938 L 21 17 z M 17 20 A 5 4 0 0 0 12 24 A 5 4 0 0 0 17 28 A 5 4 0 0 0 21 26.390625 L 21 21.607422 A 5 4 0 0 0 17 20 z M 31 20 A 5 4 0 0 0 27 21.609375 L 27 26.392578 A 5 4 0 0 0 31 28 A 5 4 0 0 0 36 24 A 5 4 0 0 0 31 20 z " transform="matrix(1 0 0 1 0 1004.3622)"/>
  <path style="fill:url(#linearGradient4244);opacity:0.2;stroke-width:2" id="rect4199" d="M 23.013672 17.060547 L 23 17.083984 L 23 35 L 21 35 L 21 28.919922 A 7 6 0 0 1 17 30 A 7 6 0 0 1 11.5625 27.771484 L 11.541016 27.792969 L 27.447266 43.697266 A 20 20 0 0 0 40.787109 34.833984 L 34.917969 28.964844 A 7 6 0 0 1 31 30 A 7 6 0 0 1 27 28.914062 L 27 31 L 25 31 L 25 19.046875 L 23.013672 17.060547 z " transform="matrix(1 0 0 1 0 1004.3622)"/>
  <path style="fill:url(#linearGradient4236);opacity:0.2;stroke-width:2" id="rect4203" d="M 27 13.013672 L 27 19.080078 A 7 6 0 0 1 31 18 A 7 6 0 0 1 32.060547 18.074219 L 27 13.013672 z M 35.773438 19.576172 L 35.75 19.599609 A 7 6 0 0 1 36.078125 19.880859 L 35.773438 19.576172 z M 36.525391 20.328125 A 7 6 0 0 1 38 24 A 7 6 0 0 1 31 30 A 7 6 0 0 1 27 28.914062 L 27 31 L 25.044922 31 L 34.845703 40.800781 A 20 20 0 0 0 43.675781 27.478516 L 36.525391 20.328125 z " transform="matrix(1 0 0 1 0 1004.3622)"/>
 </g>
</svg>
