<?xml version="1.0" encoding="UTF-8" standalone="no"?>
<svg
   xmlns:dc="http://purl.org/dc/elements/1.1/"
   xmlns:cc="http://creativecommons.org/ns#"
   xmlns:rdf="http://www.w3.org/1999/02/22-rdf-syntax-ns#"
   xmlns:svg="http://www.w3.org/2000/svg"
   xmlns="http://www.w3.org/2000/svg"
   xmlns:xlink="http://www.w3.org/1999/xlink"
   xmlns:sodipodi="http://sodipodi.sourceforge.net/DTD/sodipodi-0.dtd"
   xmlns:inkscape="http://www.inkscape.org/namespaces/inkscape"
   preserveAspectRatio="xMidYMid"
   width="48"
   height="48"
   viewBox="0 0 48 48"
   id="svg2"
   version="1.1"
   inkscape:version="0.91 r13725"
   sodipodi:docname="rbackend2.svg">
  <metadata
     id="metadata22">
    <rdf:RDF>
      <cc:Work
         rdf:about="">
        <dc:format>image/svg+xml</dc:format>
        <dc:type
           rdf:resource="http://purl.org/dc/dcmitype/StillImage" />
        <dc:title></dc:title>
        <dc:creator>
          <cc:Agent>
            <dc:title>Alessandro Longo alessandro.longo@kdemail.net</dc:title>
          </cc:Agent>
        </dc:creator>
        <cc:license
           rdf:resource="http://www.gnu.org/licenses/gpl-3.0.en.html" />
      </cc:Work>
    </rdf:RDF>
  </metadata>
  <sodipodi:namedview
     pagecolor="#ffffff"
     bordercolor="#666666"
     borderopacity="1"
     objecttolerance="10"
     gridtolerance="10"
     guidetolerance="10"
     inkscape:pageopacity="0"
     inkscape:pageshadow="2"
     inkscape:window-width="1280"
     inkscape:window-height="774"
     id="namedview20"
     showgrid="false"
     inkscape:zoom="11.313708"
     inkscape:cx="31.387247"
     inkscape:cy="23.53401"
     inkscape:window-x="0"
     inkscape:window-y="26"
     inkscape:window-maximized="1"
     inkscape:current-layer="svg2">
    <inkscape:grid
       type="xygrid"
       id="grid4181" />
  </sodipodi:namedview>
  <defs
     id="defs4">
    <linearGradient
       inkscape:collect="always"
       id="linearGradient4157">
      <stop
         style="stop-color:#502ae3;stop-opacity:1"
         offset="0"
         id="stop4159" />
      <stop
         style="stop-color:#4db4f6;stop-opacity:1"
         offset="1"
         id="stop4161" />
    </linearGradient>
    <linearGradient
       id="linearGradient4217"
       x1="0.7414425"
       x2="590.86261"
       y1="3.6658268"
       y2="593.78699"
       gradientUnits="userSpaceOnUse"
       spreadMethod="pad"
       gradientTransform="matrix(0.06786659,0,0,0.04545217,4.4213588,8.4746527)">
      <stop
         style="stop-color:#fafafa;stop-opacity:1"
         offset="0"
         stop-color="rgb(203,206,208)"
         stop-opacity="1"
         id="stop4219" />
      <stop
         style="stop-color:#939393;stop-opacity:1"
         offset="1"
         stop-color="rgb(132,131,139)"
         stop-opacity="1"
         id="stop4221" />
    </linearGradient>
    <linearGradient
       gradientTransform="matrix(0.06786659,0,0,0.04545217,4.4213588,8.4746527)"
       spreadMethod="pad"
       gradientUnits="userSpaceOnUse"
       y2="593.78699"
       y1="3.6658268"
       x2="590.86261"
       x1="0.7414425"
       id="linearGradient4175">
      <stop
         id="stop4177"
         stop-opacity="1"
         stop-color="rgb(203,206,208)"
         offset="0"
         style="stop-color:#eeeeee;stop-opacity:1" />
      <stop
         id="stop4179"
         stop-opacity="1"
         stop-color="rgb(132,131,139)"
         offset="1"
         style="stop-color:#cccccc;stop-opacity:1" />
    </linearGradient>
    <linearGradient
       gradientTransform="matrix(0.05498162,0,0,0.05610391,4.4213588,8.4746527)"
       spreadMethod="pad"
       gradientUnits="userSpaceOnUse"
       y2="553.44208"
       y1="151.4006"
       x2="703.0675"
       x1="301.02603"
       id="linearGradient4169">
      <stop
         id="stop4171"
         stop-opacity="1"
         stop-color="rgb(39,109,195)"
         offset="0"
         style="stop-color:#45bef4;stop-opacity:1" />
      <stop
         id="stop4173"
         stop-opacity="1"
         stop-color="rgb(22,92,170)"
         offset="1"
         style="stop-color:#4524e2;stop-opacity:1" />
    </linearGradient>
    <linearGradient
       id="gradientFill-1"
       x1="0.7414425"
       x2="590.86261"
       y1="3.6658268"
       y2="593.78699"
       gradientUnits="userSpaceOnUse"
       spreadMethod="pad"
       gradientTransform="matrix(0.09203905,0,0,0.06164115,-61.596008,2.6354709)">
      <stop
         offset="0"
         stop-color="rgb(203,206,208)"
         stop-opacity="1"
         id="stop7" />
      <stop
         offset="1"
         stop-color="rgb(132,131,139)"
         stop-opacity="1"
         id="stop9" />
    </linearGradient>
    <linearGradient
       id="gradientFill-2"
       x1="301.02603"
       x2="703.0675"
       y1="151.4006"
       y2="553.44208"
       gradientUnits="userSpaceOnUse"
       spreadMethod="pad"
       gradientTransform="matrix(0.07456476,0,0,0.07608678,-61.596008,2.6354709)">
      <stop
         offset="0"
         stop-color="rgb(39,109,195)"
         stop-opacity="1"
         id="stop12" />
      <stop
         offset="1"
         stop-color="rgb(22,92,170)"
         stop-opacity="1"
         id="stop14" />
    </linearGradient>
    <linearGradient
       inkscape:collect="always"
       xlink:href="#linearGradient4175"
       id="linearGradient4165-3"
       gradientUnits="userSpaceOnUse"
       gradientTransform="matrix(0.06786659,0,0,0.05231194,-0.02903462,-0.191767)"
       spreadMethod="pad"
       x1="148.08936"
       y1="58.668701"
       x2="601.9137"
       y2="610.28784" />
    <linearGradient
       inkscape:collect="always"
       xlink:href="#linearGradient4217"
       id="linearGradient4208"
       gradientUnits="userSpaceOnUse"
       gradientTransform="matrix(0.0653505,0.0204094,-0.0181888,0.05824021,8.418084,-1.3281768)"
       spreadMethod="pad"
       x1="-162.28746"
       y1="61.199947"
       x2="737.63324"
       y2="505.05621" />
    <linearGradient
       inkscape:collect="always"
       xlink:href="#linearGradient4157"
       id="linearGradient4163"
       x1="41"
       y1="41"
       x2="21.125"
       y2="18.25"
       gradientUnits="userSpaceOnUse" />
  </defs>
  <path
     style="color:#000000;clip-rule:nonzero;display:inline;overflow:visible;visibility:visible;opacity:1;isolation:auto;mix-blend-mode:normal;color-interpolation:sRGB;color-interpolation-filters:linearRGB;solid-color:#000000;solid-opacity:1;fill:url(#linearGradient4208);fill-opacity:1;fill-rule:evenodd;stroke:none;stroke-width:1;stroke-linecap:butt;stroke-linejoin:miter;stroke-miterlimit:4;stroke-dasharray:none;stroke-dashoffset:0;stroke-opacity:1;color-rendering:auto;image-rendering:auto;shape-rendering:auto;text-rendering:auto;enable-background:accumulate"
     d="M 28.888715,5.3741136 A 21.399735,17.010236 17.343928 0 0 3.3914377,15.231519 21.399735,17.010236 17.343928 0 0 18.747047,37.847552 21.399735,17.010236 17.343928 0 0 44.244323,27.990144 21.399735,17.010236 17.343928 0 0 28.888715,5.3741136 Z m 1.025951,6.5827194 A 15.960636,12.680357 17.343928 0 1 41.36979,28.820272 15.960636,12.680357 17.343928 0 1 22.354254,36.165135 15.960636,12.680357 17.343928 0 1 10.900331,19.304459 15.960636,12.680357 17.343928 0 1 29.914666,11.956833 Z"
     id="path4183"
     inkscape:connector-curvature="0" />
  <path
     style="fill:url(#linearGradient4163);fill-opacity:1;fill-rule:evenodd"
     inkscape:connector-curvature="0"
     id="path4163"
     d="m 41.545501,41.01591 -6.862741,0.0035 -4.676821,-6.913275 c 0,0 -0.7529,-1.29524 -1.216179,-1.670803 -0.386462,-0.313262 -0.55124,-0.42478 -0.933347,-0.42478 l -0.868165,0 0.0015,9.003874 -5.957676,0.003 0,-22.999768 12.97192,0 c 0,0 5.257278,0.970431 5.363729,6.176989 0.118694,5.805353 -5.080897,7.5133 -5.080897,7.5133 C 35,32 40.735876,39.675263 41.545501,41.01591 Z m -10.285012,-18.009334 -4.21211,-0.0028 -0.0021,3.910813 4.214203,-0.0013 c 0,0 1.951543,-0.006 1.951543,-1.989389 0,-2.023201 -1.951543,-1.917345 -1.951543,-1.917345 z"
     sodipodi:nodetypes="ccccscccccsccccccscc" />
  <path
     style="fill:#ffffff;fill-rule:evenodd;fill-opacity:0.19587629"
     d="M 21.03125 18.017578 L 21.03125 19.017578 L 34.003906 19.017578 C 34.003906 19.017578 39.281426 20.000666 39.367188 24.195312 C 39.260737 18.988755 34.003906 18.017578 34.003906 18.017578 L 21.03125 18.017578 z "
     id="path4178" />
  <path
     style="color:#000000;clip-rule:nonzero;display:inline;overflow:visible;visibility:visible;opacity:1;isolation:auto;mix-blend-mode:normal;color-interpolation:sRGB;color-interpolation-filters:linearRGB;solid-color:#000000;solid-opacity:1;fill:#ffffff;fill-opacity:0.1958763;fill-rule:evenodd;stroke-width:1;stroke-linecap:butt;stroke-linejoin:miter;stroke-miterlimit:4;stroke-dasharray:none;stroke-dashoffset:0;stroke-opacity:1;color-rendering:auto;image-rendering:auto;shape-rendering:auto;text-rendering:auto;enable-background:accumulate"
     d="m 33.212891,24.923828 c 0,1.983389 -1.953125,1.990234 -1.953125,1.990234 l -4.212891,0 0,1 4.212891,0 c 0,0 1.953125,0.08594 1.953125,-2.990234 z"
     id="path4188"
     inkscape:connector-curvature="0"
     sodipodi:nodetypes="cccccc" />
  <path
     style="color:#000000;clip-rule:nonzero;display:inline;overflow:visible;visibility:visible;opacity:1;isolation:auto;mix-blend-mode:normal;color-interpolation:sRGB;color-interpolation-filters:linearRGB;solid-color:#000000;solid-opacity:1;fill:#000000;fill-opacity:0.10309278;fill-rule:evenodd;stroke:none;stroke-width:1;stroke-linecap:butt;stroke-linejoin:miter;stroke-miterlimit:4;stroke-dasharray:none;stroke-dashoffset:0;stroke-opacity:1;color-rendering:auto;image-rendering:auto;shape-rendering:auto;text-rendering:auto;enable-background:accumulate"
     d="m 16.517578,4.5996094 a 21.399735,17.010236 17.343928 0 0 -0.597656,0.1425781 c 0.200561,-0.045246 0.394474,-0.102658 0.597656,-0.1425781 z M 26.800781,4.8144531 C 27.495673,4.9721769 28.192747,5.157667 28.888672,5.375 A 21.399735,17.010236 17.343928 0 0 26.800781,4.8144531 Z M 28.888672,5.375 c 0.590283,0.1843568 1.161162,0.3958378 1.726562,0.6152344 A 21.399735,17.010236 17.343928 0 0 28.888672,5.375 Z M 14.634766,5.0585938 a 21.399735,17.010236 17.343928 0 0 -0.751954,0.2519531 c 0.250791,-0.083443 0.495803,-0.1774407 0.751954,-0.2519531 z m -1.808594,0.6191406 a 21.399735,17.010236 17.343928 0 0 -0.699219,0.3085937 c 0.233318,-0.1029345 0.459933,-0.214052 0.699219,-0.3085937 z m 18.876953,0.7714844 c 0.281073,0.1236167 0.563917,0.2449526 0.837891,0.3769531 A 21.399735,17.010236 17.343928 0 0 31.703125,6.4492188 Z m -20.595703,0.00781 a 21.399735,17.010236 17.343928 0 0 -0.609375,0.34375 c 0.203219,-0.1145183 0.400295,-0.2362924 0.609375,-0.34375 z m -1.597656,0.92969 A 21.399735,17.010236 17.343928 0 0 8.984375,7.7578125 C 9.159365,7.6339119 9.32906,7.5046528 9.509766,7.3867188 Z m 24.134765,0.013672 c 0.251686,0.1364401 0.505208,0.2706364 0.75,0.4140625 a 21.399735,17.010236 17.343928 0 0 -0.75,-0.4140625 z M 8.0527344,8.4570312 A 21.399735,17.010236 17.343928 0 0 7.5957031,8.859375 C 7.7476471,8.7246699 7.8949702,8.5864257 8.0527344,8.4570312 Z M 35.5,8.5097656 c 0.205611,0.1352201 0.415296,0.2661258 0.615234,0.40625 A 21.399735,17.010236 17.343928 0 0 35.5,8.5097656 Z m 1.685547,1.2109375 c 0.189936,0.1493275 0.384488,0.2954539 0.568359,0.4492189 A 21.399735,17.010236 17.343928 0 0 37.185547,9.7207031 Z M 25.214844,10.177734 C 18.534427,10.021408 12.595886,13.872915 10.900391,19.304688 A 15.960636,12.680357 17.343928 0 1 29.914062,11.957031 15.960636,12.680357 17.343928 0 1 41.8125,25.255859 C 41.588989,19.376198 36.886894,13.134404 29.914062,10.957031 28.336356,10.464408 26.756478,10.21381 25.214844,10.177734 Z m 13.46289,0.820313 c 0.194052,0.180652 0.394085,0.357366 0.580078,0.542969 a 21.399735,17.010236 17.343928 0 0 -0.580078,-0.542969 z m 1.371094,1.390625 c 0.180185,0.199667 0.368011,0.395297 0.539063,0.599609 A 21.399735,17.010236 17.343928 0 0 40.048828,12.388672 Z M 4.5742188,12.529297 a 21.399735,17.010236 17.343928 0 0 -0.037109,0.06445 c 0.012181,-0.02164 0.024815,-0.04288 0.037109,-0.06445 z m 36.6972652,1.34375 c 0.16284,0.217096 0.335661,0.429078 0.488282,0.650391 A 21.399735,17.010236 17.343928 0 0 41.271484,13.873047 Z M 3.8476562,14.001953 a 21.399735,17.010236 17.343928 0 0 -0.089844,0.214844 c 0.028928,-0.07216 0.059758,-0.143342 0.089844,-0.214844 z m 38.4980468,1.453125 c 0.134385,0.220397 0.280048,0.436464 0.404297,0.660156 a 21.399735,17.010236 17.343928 0 0 -0.404297,-0.660156 z m 1.013672,1.888672 c 0.06056,0.131437 0.132401,0.260298 0.189453,0.392578 A 21.399735,17.010236 17.343928 0 0 43.359375,17.34375 Z m -32.714844,3.007812 c -0.04851,0.242974 -0.08076,0.486306 -0.111328,0.730469 a 15.960636,12.680357 17.343928 0 1 0.111328,-0.730469 z m -0.167969,1.232422 c -0.021,0.277978 -0.02477,0.555689 -0.02344,0.833985 a 15.960636,12.680357 17.343928 0 1 0.02344,-0.833985 z m -0.01758,1.267578 c 0.01307,0.285906 0.04232,0.570504 0.07813,0.855469 a 15.960636,12.680357 17.343928 0 1 -0.07813,-0.855469 z m 0.136719,1.296876 c 0.04716,0.283144 0.11084,0.56478 0.179688,0.845703 a 15.960636,12.680357 17.343928 0 1 -0.179688,-0.845703 z m 0.287109,1.28125 c 0.07887,0.27608 0.1762,0.54765 0.275391,0.820312 A 15.960636,12.680357 17.343928 0 1 10.88281,25.429688 Z m -6.8027339,0.03906 a 21.399735,17.010236 17.343928 0 0 0.2617188,0.541016 C 4.2566315,25.828872 4.1585813,25.651262 4.0800781,25.46875 Z m 37.7363279,0.269531 a 15.960636,12.680357 17.343928 0 1 -0.01953,0.728516 c 0.01698,-0.241798 0.0185,-0.484714 0.01953,-0.728516 z m -30.488281,0.976563 c 0.104301,0.255145 0.224061,0.506833 0.345703,0.757812 a 15.960636,12.680357 17.343928 0 1 -0.345703,-0.757812 z m -6.4433594,0.390625 a 21.399735,17.010236 17.343928 0 0 0.4316406,0.703125 C 5.1725652,27.574068 5.0171133,27.343744 4.8847656,27.105469 Z m 36.8378904,0.03516 a 15.960636,12.680357 17.343928 0 1 -0.08984,0.59375 c 0.03809,-0.196448 0.06315,-0.395108 0.08984,-0.59375 z m -29.8125,0.814453 c 0.13144,0.245923 0.279987,0.485844 0.427735,0.726563 A 15.960636,12.680357 17.343928 0 1 11.910156,27.955078 Z M 5.8691406,28.6875 a 21.399735,17.010236 17.343928 0 0 0.5195313,0.695312 C 6.2144791,29.151549 6.0317178,28.923565 5.8691406,28.6875 Z m 38.0000004,0.337891 c -0.02425,0.06019 -0.04916,0.11996 -0.07422,0.179687 a 21.399735,17.010236 17.343928 0 0 0.07422,-0.179687 z m -31.238282,0.134765 c 0.161594,0.241825 0.341738,0.475704 0.519532,0.710938 a 15.960636,12.680357 17.343928 0 1 -0.519532,-0.710938 z m 28.283203,0.847656 a 15.960636,12.680357 17.343928 0 1 -0.599609,1.123047 c 0.221928,-0.360752 0.422604,-0.734303 0.599609,-1.123047 z m -0.599609,1.123047 a 15.960636,12.680357 17.343928 0 1 -2.623047,2.910157 c 1.049595,-0.822365 1.939309,-1.798714 2.623047,-2.910157 z m -2.623047,2.910157 a 15.960636,12.680357 17.343928 0 1 -1.089844,0.763672 c 0.379827,-0.237461 0.743277,-0.492135 1.089844,-0.763672 z M 7.046875,30.230469 a 21.399735,17.010236 17.343928 0 0 0.5273438,0.589843 C 7.3976204,30.624272 7.2146768,30.430979 7.046875,30.230469 Z m 6.427734,0.07422 c 0.219406,0.27015 0.458753,0.529595 0.699219,0.789062 a 15.960636,12.680357 17.343928 0 1 -0.699219,-0.789062 z m 29.632813,0.304687 c -0.01939,0.03457 -0.03891,0.06912 -0.05859,0.103516 a 21.399735,17.010236 17.343928 0 0 0.05859,-0.103516 z m -28.671875,0.775391 c 0.340906,0.350729 0.69973,0.690386 1.078125,1.017578 a 15.960636,12.680357 17.343928 0 1 -1.078125,-1.017578 z m 1.078125,1.017578 c 1.139743,0.985516 2.445464,1.858152 3.888672,2.576172 a 15.960636,12.680357 17.343928 0 1 -3.888672,-2.576172 z m 3.888672,2.576172 c 0.465418,0.231553 0.944306,0.446368 1.4375,0.644531 a 15.960636,12.680357 17.343928 0 1 -1.4375,-0.644531 z M 8.3925781,31.695312 a 21.399735,17.010236 17.343928 0 0 0.53125,0.496094 C 8.7467504,32.02586 8.5629093,31.864997 8.3925781,31.695312 Z m 33.7656249,0.386719 c -0.01077,0.01457 -0.02238,0.02844 -0.0332,0.04297 a 21.399735,17.010236 17.343928 0 0 0.0332,-0.04297 z m -32.27539,0.970703 a 21.399735,17.010236 17.343928 0 0 0.597656,0.470704 C 10.280571,33.366774 10.076017,33.214301 9.882813,33.052734 Z m 1.609375,1.232422 a 21.399735,17.010236 17.343928 0 0 0.660156,0.439453 c -0.2214,-0.145339 -0.445325,-0.288438 -0.660156,-0.439453 z m 28.5625,0.0625 c -0.159538,0.141801 -0.314497,0.287897 -0.480469,0.423828 a 21.399735,17.010236 17.343928 0 0 0.480469,-0.423828 z m -3.837891,0.673828 a 15.960636,12.680357 17.343928 0 1 -0.802735,0.441407 c 0.276853,-0.136489 0.539312,-0.288692 0.802735,-0.441407 z m -22.941406,0.40625 a 21.399735,17.010236 17.343928 0 0 0.658203,0.363282 c -0.220228,-0.120113 -0.443278,-0.237801 -0.658203,-0.363282 z m 25.417968,0.0039 c -0.194651,0.138747 -0.384169,0.282736 -0.585937,0.414062 a 21.399735,17.010236 17.343928 0 0 0.585937,-0.414062 z m -3.800781,0.261718 a 15.960636,12.680357 17.343928 0 1 -0.765625,0.326172 c 0.26217,-0.09901 0.512811,-0.21387 0.765625,-0.326172 z m -1.320312,0.511719 a 15.960636,12.680357 17.343928 0 1 -0.8125,0.257813 c 0.27679,-0.07603 0.543888,-0.167987 0.8125,-0.257813 z m 3.628906,0.177734 c -0.23043,0.131109 -0.455335,0.268648 -0.69336,0.390626 a 21.399735,17.010236 17.343928 0 0 0.69336,-0.390626 z m -22.105469,0.01172 a 21.399735,17.010236 17.343928 0 0 0.867188,0.390625 c -0.291324,-0.1277 -0.583473,-0.253916 -0.867188,-0.390619 z m 8.558594,0.121094 c 0.308006,0.0742 0.614825,0.134574 0.921875,0.193359 a 15.960636,12.680357 17.343928 0 1 -0.921875,-0.193359 z m 8.5,0.0918 A 15.960636,12.680357 17.343928 0 1 31.345703,36.7832 c 0.274108,-0.04977 0.540763,-0.11317 0.808594,-0.175781 z m -6.96875,0.21289 c 0.335069,0.05334 0.667391,0.09158 1,0.126954 a 15.960636,12.680357 17.343928 0 1 -1,-0.126954 z m 5.542969,0.05469 a 15.960636,12.680357 17.343928 0 1 -0.917969,0.113281 c 0.310131,-0.02797 0.61402,-0.06949 0.917969,-0.113281 z m -3.980469,0.128906 c 0.337831,0.02592 0.671976,0.0372 1.005859,0.04492 a 15.960636,12.680357 17.343928 0 1 -1.005859,-0.04492 z m 2.580078,0.01563 a 15.960636,12.680357 17.343928 0 1 -1.042969,0.04102 c 0.351513,-0.0019 0.697472,-0.01925 1.042969,-0.04102 z m 6.230469,0.19336 c -0.249804,0.111067 -0.493316,0.230616 -0.75,0.332031 a 21.399735,17.010236 17.343928 0 0 0.75,-0.332031 z m -18.546875,0.01563 a 21.399735,17.010236 17.343928 0 0 1.734375,0.61914 c -0.593396,-0.185329 -1.166129,-0.398407 -1.734375,-0.61914 z m 16.728515,0.6875 c -0.24652,0.08184 -0.486587,0.172876 -0.738281,0.246093 a 21.399735,17.010236 17.343928 0 0 0.738281,-0.246093 z m -2.029296,0.564453 c -0.198998,0.04485 -0.392174,0.101021 -0.59375,0.140625 a 21.399735,17.010236 17.343928 0 0 0.59375,-0.140625 z"
     id="path4220"
     inkscape:connector-curvature="0" />
</svg>
