<?xml version="1.0" encoding="UTF-8" standalone="no"?>

<!-- Created with Inkscape (http://www.inkscape.org/) -->
<svg width="48" version="1.1" xmlns="http://www.w3.org/2000/svg" height="48" xmlns:xlink="http://www.w3.org/1999/xlink" xmlns:inkscape="http://www.inkscape.org/namespaces/inkscape">
 <defs id="defs2987">
  <linearGradient inkscape:collect="always" id="linearGradient4279">
   <stop id="stop4281"/>
   <stop offset="1" style="stop-opacity:0" id="stop4283"/>
  </linearGradient>
  <linearGradient inkscape:collect="always" xlink:href="#linearGradient4279" id="linearGradient4455" y1="25" x1="8" y2="44" x2="27" gradientUnits="userSpaceOnUse"/>
  <linearGradient inkscape:collect="always" xlink:href="#linearGradient4303" id="linearGradient4481" y1="44" y2="18" x2="0" gradientUnits="userSpaceOnUse"/>
  <linearGradient inkscape:collect="always" xlink:href="#linearGradient4221" id="linearGradient4540" y1="20" y2="16" x2="0" gradientUnits="userSpaceOnUse"/>
  <linearGradient inkscape:collect="always" id="linearGradient4221">
   <stop style="stop-color:#06a370" id="stop4223"/>
   <stop offset="1" style="stop-color:#22d1b0" id="stop4225"/>
  </linearGradient>
  <linearGradient inkscape:collect="always" xlink:href="#linearGradient4221" id="linearGradient4600" y1="21" y2="4" x2="0" gradientUnits="userSpaceOnUse"/>
  <linearGradient inkscape:collect="always" xlink:href="#linearGradient4221" id="linearGradient4608" y1="15" y2="4" x2="0" gradientUnits="userSpaceOnUse"/>
  <linearGradient inkscape:collect="always" xlink:href="#linearGradient4221" id="linearGradient4610" y1="16" y2="7" x2="0" gradientUnits="userSpaceOnUse"/>
  <linearGradient inkscape:collect="always" xlink:href="#linearGradient4221" id="linearGradient4612" y1="17" y2="10" x2="0" gradientUnits="userSpaceOnUse"/>
  <linearGradient inkscape:collect="always" id="linearGradient4435">
   <stop style="stop-color:#c61423" id="stop4437"/>
   <stop offset="1" style="stop-color:#dc2b41" id="stop4439"/>
  </linearGradient>
  <linearGradient inkscape:collect="always" xlink:href="#linearGradient4435" id="linearGradient4705" y1="17" y2="8" x2="0" gradientUnits="userSpaceOnUse"/>
  <linearGradient inkscape:collect="always" xlink:href="#linearGradient4435" id="linearGradient4707" y1="17" y2="12" x2="0" gradientUnits="userSpaceOnUse"/>
  <linearGradient inkscape:collect="always" xlink:href="#linearGradient4435" id="linearGradient4709" y1="21" y2="12" x2="0" gradientUnits="userSpaceOnUse"/>
  <linearGradient inkscape:collect="always" id="linearGradient4300-7">
   <stop style="stop-color:#f39c12" id="stop4302-4"/>
   <stop offset="1" style="stop-color:#f5ab35" id="stop4304-1"/>
  </linearGradient>
  <linearGradient inkscape:collect="always" xlink:href="#linearGradient4300-7" id="linearGradient4779" y1="25" y2="10" x2="0" gradientUnits="userSpaceOnUse"/>
  <linearGradient inkscape:collect="always" id="linearGradient4303">
   <stop style="stop-color:#c6cdd1" id="stop4305"/>
   <stop offset="1" style="stop-color:#e0e5e7" id="stop4307"/>
  </linearGradient>
 </defs>
 <metadata id="metadata2990"/>
 <g inkscape:label="Layer 1" inkscape:groupmode="layer" id="layer1">
  <rect width="39.999989" x="4.00001" y="18" height="25.999966" style="fill:url(#linearGradient4481)" id="rect4169-4-5-4"/>
  <g id="g4483">
   <rect width="4" x="8" y="16" height="9" style="fill:url(#linearGradient4540);stroke-linecap:round;stroke-linejoin:bevel;stroke-width:2" id="rect4233"/>
   <rect width="4" x="12" y="4" height="21" style="fill:url(#linearGradient4600);stroke-linecap:round;stroke-linejoin:bevel;stroke-width:2" id="rect4235"/>
   <rect width="4" x="16" y="12" height="13" style="fill:url(#linearGradient4709);stroke-linecap:round;stroke-linejoin:bevel;stroke-width:2" id="rect4237"/>
   <rect width="4" x="20" y="10" height="15" style="fill:url(#linearGradient4612);stroke-linecap:round;stroke-linejoin:bevel;stroke-width:2" id="rect4239"/>
   <rect width="4" x="24" y="7" height="18" style="fill:url(#linearGradient4610);stroke-linecap:round;stroke-linejoin:bevel;stroke-width:2" id="rect4241"/>
   <rect width="4" x="28" y="12" height="13" style="fill:url(#linearGradient4707);stroke-linecap:round;stroke-linejoin:bevel;stroke-width:2" id="rect4243"/>
   <rect width="4" x="32" y="4" height="21" style="fill:url(#linearGradient4608);stroke-linecap:round;stroke-linejoin:bevel;stroke-width:2" id="rect4245"/>
   <rect width="4" x="36" y="8" height="17" style="fill:url(#linearGradient4705);stroke-linecap:round;stroke-linejoin:bevel;stroke-width:2" id="rect4247"/>
  </g>
  <g style="fill:#eff0f1" id="g4457">
   <rect width="4" x="8" y="31" height="3" style="stroke-linecap:round;stroke-linejoin:bevel;stroke-width:2" id="rect4174"/>
   <rect width="4" x="8" y="39" height="3" style="stroke-linecap:round;stroke-linejoin:bevel;stroke-width:2" id="rect4176"/>
   <rect width="4" x="8" y="27" height="3" style="stroke-linecap:round;stroke-linejoin:bevel;stroke-width:2" id="rect4174-3"/>
   <rect width="4" x="14" y="31" height="3" style="stroke-linecap:round;stroke-linejoin:bevel;stroke-width:2" id="rect4174-8"/>
   <rect width="4" x="14" y="39" height="3" style="stroke-linecap:round;stroke-linejoin:bevel;stroke-width:2" id="rect4176-6"/>
   <rect width="4" x="14" y="27" height="3" style="stroke-linecap:round;stroke-linejoin:bevel;stroke-width:2" id="rect4174-3-1"/>
   <rect width="12" x="20" y="31" height="3" style="stroke-linecap:round;stroke-linejoin:bevel;stroke-width:2" id="rect4174-8-5"/>
   <rect width="12" x="20" y="39" height="3" style="stroke-linecap:round;stroke-linejoin:bevel;stroke-width:2" id="rect4176-6-4"/>
   <rect width="12" x="20" y="27" height="3" style="stroke-linecap:round;stroke-linejoin:bevel;stroke-width:2" id="rect4174-3-1-6"/>
   <rect width="6" x="34" y="31" height="3" style="stroke-linecap:round;stroke-linejoin:bevel;stroke-width:2" id="rect4174-8-5-0"/>
   <rect width="6" x="34" y="39" height="3" style="stroke-linecap:round;stroke-linejoin:bevel;stroke-width:2" id="rect4176-6-4-9"/>
   <rect width="6" x="34" y="27" height="3" style="stroke-linecap:round;stroke-linejoin:bevel;stroke-width:2" id="rect4174-3-1-6-0"/>
   <rect width="4" x="8" y="35" height="3" style="stroke-linecap:round;stroke-linejoin:bevel;stroke-width:2" id="rect4176-63"/>
   <rect width="4" x="14" y="35" height="3" style="stroke-linecap:round;stroke-linejoin:bevel;stroke-width:2" id="rect4176-6-7"/>
   <rect width="12" x="20" y="35" height="3" style="stroke-linecap:round;stroke-linejoin:bevel;stroke-width:2" id="rect4176-6-4-6"/>
   <rect width="6" x="34" y="35" height="3" style="stroke-linecap:round;stroke-linejoin:bevel;stroke-width:2" id="rect4176-6-4-9-3"/>
  </g>
  <rect width="1" x="9" y="28" height="1" style="fill:#4d4d4d;stroke-linecap:round;stroke-linejoin:bevel;stroke-width:2" id="rect4407"/>
  <rect width="2" x="9" y="32" height="1" style="fill:#c0392b;stroke-linecap:round;stroke-linejoin:bevel;stroke-width:2" id="rect4409"/>
  <rect width="1" x="9" y="36" height="1" style="fill:#4d4d4d;stroke-linecap:round;stroke-linejoin:bevel;stroke-width:2" id="rect4411"/>
  <rect width="2" x="9" y="40" height="1" style="fill:#258e52;stroke-linecap:round;stroke-linejoin:bevel;stroke-width:2" id="rect4413"/>
  <rect width="1" x="15" y="40" height="1" style="fill:#4d4d4d;stroke-linecap:round;stroke-linejoin:bevel;stroke-width:2" id="rect4415"/>
  <rect width="1" x="15" y="36" height="1" style="fill:#258e52;stroke-linecap:round;stroke-linejoin:bevel;stroke-width:2" id="rect4417"/>
  <rect width="1" x="15" y="32" height="1" style="fill:#c0392b;stroke-linecap:round;stroke-linejoin:bevel;stroke-width:2" id="rect4419"/>
  <rect width="1" x="15" y="28" height="1" style="fill:#4d4d4d;stroke-linecap:round;stroke-linejoin:bevel;stroke-width:2" id="rect4421"/>
  <rect width="4" x="21" y="28" height="1" style="fill:#4d4d4d;stroke-linecap:round;stroke-linejoin:bevel;stroke-width:2" id="rect4423"/>
  <rect width="2" x="21" y="32" height="1" style="fill:#258e52;stroke-linecap:round;stroke-linejoin:bevel;stroke-width:2" id="rect4425"/>
  <rect width="2" x="24" y="32" height="1" style="fill:#258e52;stroke-linecap:round;stroke-linejoin:bevel;stroke-width:2" id="rect4427"/>
  <rect width="3" x="21" y="36" height="1" style="fill:#258e52;stroke-linecap:round;stroke-linejoin:bevel;stroke-width:2" id="rect4429"/>
  <rect width="7" x="21" y="40" height="1" style="fill:#c0392b;stroke-linecap:round;stroke-linejoin:bevel;stroke-width:2" id="rect4431"/>
  <rect width="1" x="29" y="40" height="1" style="fill:#c0392b;stroke-linecap:round;stroke-linejoin:bevel;stroke-width:2" id="rect4433"/>
  <rect width="3" x="35" y="28" height="1" style="fill:#258e52;stroke-linecap:round;stroke-linejoin:bevel;stroke-width:2" id="rect4435"/>
  <rect width="1" x="35" y="32" height="1" style="fill:#4d4d4d;stroke-linecap:round;stroke-linejoin:bevel;stroke-width:2" id="rect4437"/>
  <rect width="2" x="35" y="36" height="1" style="fill:#c0392b;stroke-linecap:round;stroke-linejoin:bevel;stroke-width:2" id="rect4439"/>
  <rect width="3" x="35" y="40" height="1" style="fill:#4d4d4d;stroke-linecap:round;stroke-linejoin:bevel;stroke-width:2" id="rect4441"/>
  <path inkscape:connector-curvature="0" style="fill:url(#linearGradient4455);opacity:0.2;fill-rule:evenodd" id="path4447" d="m 8,25 19,19 17,0 0,-15 -4,-4 z"/>
  <rect width="39.999989" x="4.00001" y="42.999973" height="0.999993" style="fill:#2e3132;opacity:0.1" id="rect4169-4-5"/>
  <path inkscape:connector-curvature="0" style="fill:url(#linearGradient4779);fill-rule:evenodd" id="path4532" d="m 8,25 0,-3 c 2,0 2,-3 4,-3 2,0 1.5,4 4,4 2.5,0 2,-4 4,-4 2,0 2,-4 4,-4 2,0 2,4 4,4 2,0 2,-2 4,-2 2,0 2,-5 4,-5 2,0 2,7 4,7 l 0,6 z"/>
  <rect width="31.999989" x="8.00001" y="23.999973" height="0.999993" style="fill:#2e3132;fill-opacity:0.294118" id="rect4169-4-5-9"/>
 </g>
</svg>
