<svg fill="none" viewBox="0 0 48 48" xmlns="http://www.w3.org/2000/svg">
    <linearGradient id="a" x1="44" x2="4" y1="24" y2="24" gradientUnits="userSpaceOnUse">
        <stop stop-color="#192633" offset="0"/>
        <stop stop-color="#45545b" offset=".25"/>
        <stop stop-color="#617a91" offset=".5"/>
        <stop stop-color="#586474" offset=".75"/>
        <stop stop-color="#432f2f" offset="1"/>
    </linearGradient>
    <linearGradient id="b" x1="11" x2="36" y1="12" y2="37" gradientUnits="userSpaceOnUse">
        <stop stop-color="#230a0a" offset="0"/>
        <stop stop-color="#2a1818" offset=".102629"/>
        <stop stop-color="#476076" offset="1"/>
    </linearGradient>
    <linearGradient id="c" x1="10" x2="38" y1="24" y2="24" gradientUnits="userSpaceOnUse">
        <stop stop-color="#ae3642" offset="0"/>
        <stop stop-color="#17683a" offset=".5"/>
        <stop stop-color="#216694" offset=".785714"/>
        <stop stop-color="#25688c" offset="1"/>
    </linearGradient>
    <linearGradient id="d" x1="38" x2="10" y1="24" y2="24" gradientUnits="userSpaceOnUse">
        <stop stop-color="#2a7aaf" offset=".0360243"/>
        <stop stop-color="#299fb9" offset=".236931"/>
        <stop stop-color="#27ae60" offset=".5"/>
        <stop stop-color="#da4453" offset=".964726"/>
    </linearGradient>
    <linearGradient id="e" x1="18" x2="30" y1="18" y2="30" gradientUnits="userSpaceOnUse">
        <stop stop-color="#f47750" offset="0"/>
        <stop stop-color="#88b175" offset=".275711"/>
        <stop stop-color="#3daee9" offset="1"/>
    </linearGradient>
    <linearGradient id="f" x1="14" x2="20" y1="14" y2="20" gradientUnits="userSpaceOnUse">
        <stop stop-color="#ffcdd2" offset="0"/>
        <stop stop-color="#f25665" stop-opacity="0" offset="1"/>
    </linearGradient>
    <linearGradient id="g" x1="20" x2="23" y1="20" y2="23" gradientUnits="userSpaceOnUse">
        <stop stop-color="#e49e99" offset="0"/>
        <stop stop-color="#74cc2e" stop-opacity="0" offset="1"/>
    </linearGradient>
    <path d="m44 24c0 11.0457-8.9543 20-20 20s-20-8.9543-20-20 8.9543-20 20-20 20 8.9543 20 20z" fill="url(#a)"/>
    <path d="m6 24c0 9.9411 8.0589 18 18 18s18-8.0589 18-18-8.0589-18-18-18-18 8.0589-18 18z" fill="url(#b)"/>
    <path d="m10 24c0 7.732 6.268 14 14 14s14-6.268 14-14-6.268-14-14-14-14 6.268-14 14z" fill="url(#c)"/>
    <path d="m24 10c-7.756 0-14 6.244-14 14s6.244 14 14 14 14-6.244 14-14-6.244-14-14-14zm0 1c7.202 0 13 5.798 13 13s-5.798 13-13 13-13-5.798-13-13 5.798-13 13-13z" fill="url(#d)"/>
    <path d="m24 12c-6.648 0-12 5.352-12 12s5.352 12 12 12 12-5.352 12-12-5.352-12-12-12zm0 3c4.986 0 9 4.01 9 9 0 4.986-4.01 9-9 9-4.986 0-9-4.01-9-9 0-4.986 4.01-9 9-9z" fill="url(#d)"/>
    <path d="m22.787 25.5817c.8763.6724 2.1318.5071 2.8042-.3692s.5071-2.1318-.3692-2.8042c-.8763-.6725-2.1318-.5072-2.8042.3692-.6724.8763-.5071 2.1318.3692 2.8042z" fill="#094035"/>
    <path d="m24 29c2.7614 0 5-2.2386 5-5s-2.2386-5-5-5-5 2.2386-5 5 2.2386 5 5 5zm0 1c3.3137 0 6-2.6863 6-6s-2.6863-6-6-6-6 2.6863-6 6 2.6863 6 6 6z" clip-rule="evenodd" fill="url(#e)" fill-rule="evenodd" opacity=".35"/>
    <path d="m20 17c0 1.6569-1.3431 3-3 3s-3-1.3431-3-3 1.3431-3 3-3 3 1.3431 3 3z" fill="url(#f)"/>
    <path d="m23 21.5c0 .8284-.6716 1.5-1.5 1.5s-1.5-.6716-1.5-1.5.6716-1.5 1.5-1.5 1.5.6716 1.5 1.5z" fill="url(#g)"/>
</svg>
