<?xml version="1.0" encoding="UTF-8" standalone="no"?>

<!-- Created with Inkscape (http://www.inkscape.org/) -->
<svg width="48" version="1.1" xmlns="http://www.w3.org/2000/svg" height="48" xmlns:xlink="http://www.w3.org/1999/xlink" xmlns:inkscape="http://www.inkscape.org/namespaces/inkscape">
 <defs id="defs5455">
  <linearGradient inkscape:collect="always" id="linearGradient4610">
   <stop style="stop-color:#84cbfe" id="stop4612"/>
   <stop offset="1" style="stop-color:#84cbfe;stop-opacity:0" id="stop4614"/>
  </linearGradient>
  <linearGradient inkscape:collect="always" id="linearGradient4212">
   <stop id="stop4214"/>
   <stop offset="1" style="stop-opacity:0" id="stop4216"/>
  </linearGradient>
  <linearGradient inkscape:collect="always" id="linearGradient4158" xlink:href="#linearGradient4303" y1="543.79797" y2="503.798" gradientUnits="userSpaceOnUse" x2="0" gradientTransform="matrix(1.1250015 0 0 0.85000075 -51.07197 79.56931)"/>
  <linearGradient inkscape:collect="always" id="linearGradient4303">
   <stop style="stop-color:#c6cdd1" id="stop4305"/>
   <stop offset="1" style="stop-color:#e0e5e7" id="stop4307"/>
  </linearGradient>
  <linearGradient inkscape:collect="always" xlink:href="#linearGradient4212" id="linearGradient4218" y1="507.798" x1="390.57144" y2="535.79797" x2="418.57144" gradientUnits="userSpaceOnUse"/>
  <linearGradient inkscape:collect="always" id="linearGradient5002">
   <stop style="stop-color:#2e5d89" id="stop5004"/>
   <stop offset="1" style="stop-color:#1b92f4" id="stop5006"/>
  </linearGradient>
  <linearGradient inkscape:collect="always" id="linearGradient4199">
   <stop style="stop-color:#2f3943" id="stop4201"/>
   <stop offset="1" style="stop-color:#4d5662" id="stop4203"/>
  </linearGradient>
  <linearGradient inkscape:collect="always" id="linearGradient4191">
   <stop style="stop-color:#18222a" id="stop4193"/>
   <stop offset="1" style="stop-color:#566069" id="stop4195"/>
  </linearGradient>
  <linearGradient inkscape:collect="always" xlink:href="#linearGradient4199" id="linearGradient4514" y1="507.798" y2="503.798" x2="0" gradientUnits="userSpaceOnUse"/>
  <linearGradient inkscape:collect="always" xlink:href="#linearGradient4303" id="linearGradient4522" y1="46" x1="43" y2="37" x2="8" gradientUnits="userSpaceOnUse"/>
  <linearGradient inkscape:collect="always" xlink:href="#linearGradient5002" id="linearGradient4530" y1="509.798" y2="537.79797" x2="0" gradientUnits="userSpaceOnUse"/>
  <linearGradient inkscape:collect="always" id="linearGradient4545-5-7" xlink:href="#linearGradient4199" x1="3" gradientUnits="userSpaceOnUse" x2="-1" gradientTransform="matrix(0 1 -1 0 422.57143 539.798)"/>
  <linearGradient inkscape:collect="always" xlink:href="#linearGradient4610" id="linearGradient4616" y1="-521.79797" y2="-518.79797" x2="0" gradientUnits="userSpaceOnUse"/>
  <linearGradient inkscape:collect="always" xlink:href="#linearGradient4610" id="linearGradient4616-6" y1="-521.79797" y2="-518.79797" x2="0" gradientUnits="userSpaceOnUse" gradientTransform="matrix(1 0 0 1 -0.00001 1044.596)"/>
  <linearGradient inkscape:collect="always" xlink:href="#linearGradient4191" id="linearGradient4650" y1="505.798" y2="509.798" x2="0" gradientUnits="userSpaceOnUse"/>
  <linearGradient inkscape:collect="always" xlink:href="#linearGradient4303" id="linearGradient4530-3" y1="509.798" y2="537.79797" x2="0" gradientUnits="userSpaceOnUse" gradientTransform="matrix(1.0624996 0 0 1.0714283 -25.535583 -37.413993)"/>
 </defs>
 <metadata id="metadata5458"/>
 <g inkscape:label="Capa 1" inkscape:groupmode="layer" id="layer1" transform="matrix(1 0 0 1 -384.57143 -499.798)">
  <rect width="35.999992" x="390.57144" y="507.798" rx="0" height="34" style="fill:url(#linearGradient4158)" id="rect4139"/>
  <rect width="33.999989" x="391.57144" y="508.798" height="29.999996" style="fill:url(#linearGradient4530-3);stroke-linecap:round;stroke-linejoin:bevel;stroke-width:6.2" id="rect4189-8"/>
  <path style="fill:url(#linearGradient4522)" id="rect4188" d="M 6 40 L 6 41.949219 C 6 43.084911 6.9150885 44 8.0507812 44 L 39.949219 44 C 41.084911 44 42 43.084911 42 41.949219 L 42 40 L 6 40 z " transform="matrix(1 0 0 1 384.57143 499.798)"/>
  <rect width="32" x="392.57144" y="509.798" height="28" style="fill:url(#linearGradient4530);stroke-linecap:round;stroke-linejoin:bevel;stroke-width:6.2" id="rect4189"/>
  <path inkscape:connector-curvature="0" style="fill:url(#linearGradient4514)" id="rect4188-1" d="m 390.57143,507.798 0,-1.94922 c 0,-1.13569 0.91509,-2.05078 2.05078,-2.05078 l 31.89844,0 c 1.13569,0 2.05078,0.91509 2.05078,2.05078 l 0,1.94922 -36,0 z"/>
  <rect width="32" x="392.57144" y="521.79797" height="1" style="fill:#84cbfe;stroke-linecap:round;stroke-linejoin:bevel;stroke-width:6.2" id="rect4585"/>
  <rect width="32" x="392.57144" y="522.79797" height="2.999974" style="fill:url(#linearGradient4616-6);opacity:0.2;stroke-linecap:round;stroke-linejoin:bevel;stroke-width:6.2" id="rect4585-1-9"/>
  <rect width="32" x="392.57144" y="-521.79797" height="2.999974" style="fill:url(#linearGradient4616);opacity:0.2;stroke-linecap:round;stroke-linejoin:bevel;stroke-width:6.2" id="rect4585-1" transform="matrix(1 0 0 -1 0 0)"/>
  <rect width="17" x="393.57144" y="515.79797" height="20.999973" style="fill:#eff0f1;stroke-linecap:round;stroke-linejoin:bevel;stroke-width:6.2" id="rect4532"/>
  <path inkscape:connector-curvature="0" style="fill:url(#linearGradient4218);opacity:0.2;fill-rule:evenodd" id="path4210" d="m 390.57143,507.798 32,32 4,0 0,-32 z"/>
  <path inkscape:connector-curvature="0" style="fill:url(#linearGradient4545-5-7);stroke-linecap:round;stroke-linejoin:round;stroke-width:2" id="rect4512-0-1" d="m 422.57143,539.798 -28,0 0,1 c 0,1.10802 0.89198,2 2,2 l 24,0 c 1.10802,0 2,-0.89198 2,-2 z"/>
  <circle cx="-541.29797" cy="-420.07141" style="fill:#11d116;stroke-linecap:round;stroke-linejoin:round;stroke-width:2" r="0.500017" id="path4292-3" transform="matrix(0 -1 -1 0 0 0)"/>
  <rect width="36" x="390.57144" y="505.798" height="2" style="fill:url(#linearGradient4650);stroke-linecap:round;stroke-linejoin:bevel;stroke-width:6.2" id="rect4642"/>
 </g>
</svg>
