<?xml version="1.0" encoding="UTF-8" standalone="no"?>
<!-- Created with Inkscape (http://www.inkscape.org/) -->

<svg
   xmlns:dc="http://purl.org/dc/elements/1.1/"
   xmlns:cc="http://creativecommons.org/ns#"
   xmlns:rdf="http://www.w3.org/1999/02/22-rdf-syntax-ns#"
   xmlns:svg="http://www.w3.org/2000/svg"
   xmlns="http://www.w3.org/2000/svg"
   xmlns:xlink="http://www.w3.org/1999/xlink"
   xmlns:sodipodi="http://sodipodi.sourceforge.net/DTD/sodipodi-0.dtd"
   xmlns:inkscape="http://www.inkscape.org/namespaces/inkscape"
   width="48"
   height="48"
   viewBox="0 0 48 48.000001"
   id="svg2"
   version="1.1"
   inkscape:version="0.91 r13725"
   sodipodi:docname="steam.svg">
  <defs
     id="defs4">
    <linearGradient
       inkscape:collect="always"
       id="blue-gradient-5">
      <stop
         style="stop-color:#054e87;stop-opacity:1"
         offset="0"
         id="stop4347" />
      <stop
         style="stop-color:#1d99f3;stop-opacity:1"
         offset="1"
         id="stop4349" />
    </linearGradient>
    <linearGradient
       inkscape:collect="always"
       id="shadow-3">
      <stop
         style="stop-color:#31363b;stop-opacity:0.208"
         offset="0"
         id="stop4195" />
      <stop
         style="stop-color:#31363b;stop-opacity:0;"
         offset="1"
         id="stop4197" />
    </linearGradient>
    <linearGradient
       inkscape:collect="always"
       xlink:href="#shadow-3"
       id="linearGradient4199"
       x1="21.96875"
       y1="1035.3622"
       x2="35.96875"
       y2="1049.3622"
       gradientUnits="userSpaceOnUse"
       gradientTransform="translate(10,-14.000047)" />
    <linearGradient
       inkscape:collect="always"
       xlink:href="#shadow-3"
       id="linearGradient4203"
       gradientUnits="userSpaceOnUse"
       x1="23"
       y1="1035.3622"
       x2="36"
       y2="1048.3622"
       gradientTransform="translate(13,-1021.3622)" />
    <linearGradient
       inkscape:collect="always"
       xlink:href="#shadow-3"
       id="linearGradient4227"
       gradientUnits="userSpaceOnUse"
       gradientTransform="translate(-15.75,-1005.8622)"
       x1="21.475302"
       y1="1035.1576"
       x2="34.475285"
       y2="1048.1576" />
    <linearGradient
       inkscape:collect="always"
       xlink:href="#blue-gradient-5"
       id="linearGradient4351"
       x1="24"
       y1="1008.3622"
       x2="24"
       y2="1048.3622"
       gradientUnits="userSpaceOnUse" />
    <linearGradient
       inkscape:collect="always"
       xlink:href="#shadow-3"
       id="linearGradient4373"
       gradientUnits="userSpaceOnUse"
       gradientTransform="translate(5.9783302,-17.513484)"
       x1="21.084867"
       y1="1036.9752"
       x2="35.96875"
       y2="1049.3622" />
    <linearGradient
       inkscape:collect="always"
       xlink:href="#shadow-3"
       id="linearGradient4377"
       gradientUnits="userSpaceOnUse"
       gradientTransform="translate(-6.3297472,-4.8518532)"
       x1="21.084867"
       y1="1036.9752"
       x2="35.96875"
       y2="1049.3622" />
    <linearGradient
       inkscape:collect="always"
       xlink:href="#shadow-3"
       id="linearGradient4381"
       gradientUnits="userSpaceOnUse"
       gradientTransform="translate(-2.8703079,-1.1698725)"
       x1="21.96875"
       y1="1035.3622"
       x2="35.96875"
       y2="1049.3622" />
  </defs>
  <sodipodi:namedview
     id="base"
     pagecolor="#ffffff"
     bordercolor="#666666"
     borderopacity="1.0"
     inkscape:pageopacity="0.0"
     inkscape:pageshadow="2"
     inkscape:zoom="32"
     inkscape:cx="25.387556"
     inkscape:cy="10.079998"
     inkscape:document-units="px"
     inkscape:current-layer="layer1"
     showgrid="true"
     units="px"
     showguides="true"
     inkscape:guide-bbox="true"
     inkscape:window-width="1920"
     inkscape:window-height="1014"
     inkscape:window-x="0"
     inkscape:window-y="0"
     inkscape:window-maximized="1"
     inkscape:snap-bbox="true"
     inkscape:bbox-paths="true"
     inkscape:bbox-nodes="true"
     inkscape:snap-bbox-edge-midpoints="true"
     inkscape:snap-bbox-midpoints="true"
     inkscape:object-paths="true"
     inkscape:snap-midpoints="true"
     inkscape:object-nodes="true"
     inkscape:snap-intersection-paths="true"
     inkscape:snap-smooth-nodes="true"
     inkscape:snap-nodes="true"
     inkscape:snap-object-midpoints="true"
     inkscape:snap-center="true"
     inkscape:snap-global="true"
     inkscape:snap-grids="false">
    <inkscape:grid
       type="xygrid"
       id="grid4136"
       empspacing="4" />
    <sodipodi:guide
       position="4,24"
       orientation="1,0"
       id="guide4138" />
    <sodipodi:guide
       position="44,24"
       orientation="1,0"
       id="guide4140" />
    <sodipodi:guide
       position="24,44.000001"
       orientation="0,1"
       id="guide4142" />
    <sodipodi:guide
       position="24,4.0000001"
       orientation="0,1"
       id="guide4144" />
  </sodipodi:namedview>
  <metadata
     id="metadata7">
    <rdf:RDF>
      <cc:Work
         rdf:about="">
        <dc:format>image/svg+xml</dc:format>
        <dc:type
           rdf:resource="http://purl.org/dc/dcmitype/StillImage" />
        <dc:title></dc:title>
      </cc:Work>
    </rdf:RDF>
  </metadata>
  <g
     inkscape:label="Layer 1"
     inkscape:groupmode="layer"
     id="layer1"
     transform="translate(0,-1004.3622)">
    <circle
       style="opacity:1;fill:url(#linearGradient4351);fill-opacity:1;stroke:none;stroke-width:1;stroke-linecap:round;stroke-linejoin:round;stroke-miterlimit:4;stroke-dasharray:none;stroke-opacity:1"
       id="path4277"
       cx="24"
       cy="1028.3622"
       r="20" />
    <path
       sodipodi:nodetypes="cccccc"
       inkscape:connector-curvature="0"
       id="path4371"
       d="m 26.586,1028.0254 8.104641,-0.4201 1.91027,-6.7552 -5.59099,-4.4419 -6.871493,5.8329 z"
       style="fill:url(#linearGradient4373);fill-opacity:1;fill-rule:evenodd;stroke:none;stroke-width:1px;stroke-linecap:butt;stroke-linejoin:miter;stroke-opacity:1" />
    <path
       style="fill:url(#linearGradient4199);fill-opacity:1;fill-rule:evenodd;stroke:none;stroke-width:1px;stroke-linecap:butt;stroke-linejoin:miter;stroke-opacity:1"
       d="M 31.027515,1028.3568 35,1027.3622 l 1.976562,-2.9766 -4,-4 -4.949047,4.9712 z"
       id="path4183"
       inkscape:connector-curvature="0"
       sodipodi:nodetypes="cccccc" />
    <path
       style="fill:url(#linearGradient4203);fill-opacity:1.0;fill-rule:evenodd;stroke:none;stroke-width:1px;stroke-linecap:butt;stroke-linejoin:miter;stroke-opacity:1"
       d="M 35.923828 13.330078 C 37.206994 14.675942 38 16.493653 38 18.5 C 37.999999 22.642136 34.642135 26 30.5 26 C 30.296562 25.998503 30.093266 25.98873 29.890625 25.970703 L 23.994141 31.082031 C 23.985811 31.821647 23.840795 32.553348 23.566406 33.240234 C 22.329286 36.314593 18.834011 37.803823 15.759766 36.566406 C 15.516836 36.468652 15.288978 36.351194 15.066406 36.226562 C 15.023092 36.202165 14.980195 36.177812 14.9375 36.152344 C 14.726097 36.02697 14.523129 35.891762 14.332031 35.744141 C 14.325744 35.739266 14.318769 35.735369 14.3125 35.730469 L 14.300781 35.732422 L 22.494141 43.925781 C 22.994984 43.969391 23.497293 43.994196 24 44 A 20 20 0 0 0 25.310547 43.953125 C 25.377172 43.948811 25.443319 43.942465 25.509766 43.9375 A 20 20 0 0 0 27.355469 43.714844 C 27.387454 43.709437 27.419238 43.702824 27.451172 43.697266 A 20 20 0 0 0 28.847656 43.384766 C 29.088133 43.324783 29.329464 43.267819 29.566406 43.199219 A 20 20 0 0 0 30.783203 42.794922 C 31.004306 42.71508 31.227909 42.640071 31.445312 42.552734 A 20 20 0 0 0 32.59375 42.039062 C 32.813074 41.93437 33.035177 41.835015 33.25 41.722656 A 20 20 0 0 0 34.28125 41.130859 C 34.512955 40.99148 34.74914 40.859318 34.974609 40.710938 A 20 20 0 0 0 35.927734 40.025391 C 36.134023 39.871589 36.346828 39.725916 36.546875 39.564453 A 20 20 0 0 0 37.455078 38.767578 C 37.645187 38.594265 37.842101 38.428486 38.025391 38.248047 A 20 20 0 0 0 38.859375 37.355469 C 39.022801 37.173763 39.194793 37.000134 39.351562 36.8125 A 20 20 0 0 0 40.214844 35.675781 C 40.317207 35.533886 40.430598 35.400512 40.529297 35.255859 A 20 20 0 0 0 43.900391 25.998047 C 43.900454 25.997404 43.900327 25.996737 43.900391 25.996094 A 20 20 0 0 0 43.900391 25.990234 A 20 20 0 0 0 44 24 A 20 20 0 0 0 43.779297 21.185547 L 35.923828 13.330078 z "
       transform="translate(0,1004.3622)"
       id="path4201" />
    <path
       style="fill:url(#linearGradient4377);fill-opacity:1;fill-rule:evenodd;stroke:none;stroke-width:1px;stroke-linecap:butt;stroke-linejoin:miter;stroke-opacity:1"
       d="m 15.316486,1040.0683 6.358971,-0.6411 1.357843,-7.5507 -6.629553,-1.7681 -3.799998,4.5733 z"
       id="path4375"
       inkscape:connector-curvature="0"
       sodipodi:nodetypes="cccccc" />
    <path
       sodipodi:nodetypes="cccccc"
       inkscape:connector-curvature="0"
       id="path4379"
       d="m 16.985332,1040.2339 3.972485,-0.4165 2.210937,-3.4453 -3.0625,-3.1563 -6.933422,3.9868 z"
       style="fill:url(#linearGradient4381);fill-opacity:1;fill-rule:evenodd;stroke:none;stroke-width:1px;stroke-linecap:butt;stroke-linejoin:miter;stroke-opacity:1" />
    <path
       style="fill:url(#linearGradient4227);fill-opacity:1;fill-rule:evenodd;stroke:none;stroke-width:1px;stroke-linecap:butt;stroke-linejoin:miter;stroke-opacity:1"
       d="M 5.7695312 29.3125 L 19.363281 43.431641 A 20 20 0 0 0 22.494141 43.925781 L 14.300781 35.732422 L 12.298828 30.757812 L 5.7695312 29.3125 z "
       transform="translate(0,1004.3622)"
       id="path4225" />
    <path
       style="opacity:1;fill:#ffffff;fill-opacity:1;stroke:none;stroke-width:1;stroke-linecap:round;stroke-linejoin:round;stroke-miterlimit:4;stroke-dasharray:none;stroke-opacity:1"
       d="m 30.5,11 c -4.142135,0 -7.499999,3.357864 -7.5,7.5 0.0017,0.201484 0.01143,0.402819 0.0293,0.603516 -1.289636,1.575722 -4.80544,5.546997 -5.113281,5.902343 -2.416761,0.03284 -4.577852,1.51258 -5.482422,3.753907 -1.237432,3.074241 0.2518,6.569519 3.326172,7.80664 3.074245,1.237417 6.56952,-0.251813 7.80664,-3.326172 0.274389,-0.686886 0.419405,-1.418587 0.427735,-2.158203 l 5.896484,-5.111328 C 30.093269,25.98873 30.296562,25.998503 30.5,26 34.642135,26 37.999999,22.642136 38,18.5 37.999999,14.357864 34.642135,11 30.5,11 Z m 0,3 c 2.48528,0 4.499999,2.014718 4.5,4.5 -10e-7,2.485282 -2.01472,4.5 -4.5,4.5 -2.48528,0 -4.499999,-2.014718 -4.5,-4.5 1e-6,-2.485282 2.01472,-4.5 4.5,-4.5 z M 18.046875,27 c 0.496175,0.0058 0.986949,0.103774 1.447266,0.289062 2.049689,0.825003 3.042263,3.155585 2.216797,5.205079 -0.825003,2.049668 -3.155579,3.04224 -5.205079,2.216797 C 14.45617,33.885935 13.463596,31.555353 14.289062,29.505859 14.905127,27.975627 16.397393,26.980525 18.046875,27 Z"
       transform="translate(0,1004.3622)"
       id="ellipse4299"
       inkscape:connector-curvature="0"
       sodipodi:nodetypes="scccccccccssssssscccccc" />
    <ellipse
       style="opacity:1;fill:#ffffff;fill-opacity:1;stroke:none;stroke-width:1;stroke-linecap:round;stroke-linejoin:round;stroke-miterlimit:4;stroke-dasharray:none;stroke-opacity:1"
       id="path4297"
       cx="30.5"
       cy="1022.8622"
       rx="3.5"
       ry="3.4999914" />
    <path
       style="opacity:1;fill:#ffffff;fill-opacity:1;stroke:none;stroke-width:1;stroke-linecap:round;stroke-linejoin:round;stroke-miterlimit:4;stroke-dasharray:none;stroke-opacity:1"
       d="M 5.0722656 22.564453 A 19 19 0 0 0 5 24 A 19 19 0 0 0 5.7695312 29.3125 L 16.880859 33.783203 A 3 3 0 0 0 20.783203 32.119141 A 3 3 0 0 0 19.119141 28.216797 L 5.0722656 22.564453 z "
       transform="translate(0,1004.3622)"
       id="path4306" />
  </g>
</svg>
