<?xml version="1.0" encoding="UTF-8" standalone="no"?>

<!-- Created with Inkscape (http://www.inkscape.org/) -->
<svg width="48" version="1.1" xmlns="http://www.w3.org/2000/svg" height="48" xmlns:xlink="http://www.w3.org/1999/xlink" xmlns:inkscape="http://www.inkscape.org/namespaces/inkscape">
 <defs id="defs3211">
  <linearGradient inkscape:collect="always" xlink:href="#linearGradient4256" id="linearGradient6638" y1="534.79797" y2="510.798" gradientUnits="userSpaceOnUse" x2="0" gradientTransform="matrix(1 0 0 1 -182.85714 -77.1501)"/>
  <linearGradient id="linearGradient4256">
   <stop style="stop-color:#8cbdf8" id="stop4258"/>
   <stop offset="1" style="stop-color:#d5e8ff" id="stop4260"/>
  </linearGradient>
  <linearGradient inkscape:collect="always" xlink:href="#linearGradient4227-0-8" id="linearGradient6640" y1="513.38367" x1="396.57144" y2="531.38367" gradientUnits="userSpaceOnUse" x2="412.57144" gradientTransform="matrix(1 0 0 1 -182.85714 -76.73579)"/>
  <linearGradient inkscape:collect="always" id="linearGradient4227-0-8">
   <stop style="stop-color:#292c2f" id="stop4229-3-3"/>
   <stop offset="1" style="stop-opacity:0" id="stop4231-90-8"/>
  </linearGradient>
  <linearGradient inkscape:collect="always" xlink:href="#linearGradient4232" id="linearGradient4849" y1="43" y2="5" gradientUnits="userSpaceOnUse" x2="0" gradientTransform="matrix(1.0810811 0 0 1.0810811 199.76834 420.70195)"/>
  <linearGradient id="linearGradient4232">
   <stop style="stop-color:#3889e9" id="stop4234-0"/>
   <stop offset="1" style="stop-color:#5ea5fb" id="stop4236"/>
  </linearGradient>
  <linearGradient inkscape:collect="always" xlink:href="#linearGradient6761" id="linearGradient6767" y1="17" x1="10" y2="43" x2="38" gradientUnits="userSpaceOnUse" gradientTransform="matrix(1.0003063 0 0 1.0047794 -0.013473 -0.210292)"/>
  <linearGradient inkscape:collect="always" id="linearGradient6761">
   <stop id="stop6763"/>
   <stop offset="1" style="stop-opacity:0" id="stop6765"/>
  </linearGradient>
  <linearGradient inkscape:collect="always" id="linearGradient3296" xlink:href="#linearGradient6761" y1="17.12844" y2="43" x1="10.01041" x2="38" gradientUnits="userSpaceOnUse" gradientTransform="matrix(1.0003063 0 0 1.0047794 -0.013473 1004.1519)"/>
  <linearGradient inkscape:collect="always" xlink:href="#linearGradient5053" id="linearGradient7422" y1="43" y2="5" gradientUnits="userSpaceOnUse" x2="0" gradientTransform="matrix(1.0526316 0 0 1.0526316 -1.263158 -1.263158)"/>
  <linearGradient inkscape:collect="always" id="linearGradient5053">
   <stop style="stop-color:#191915" id="stop5055"/>
   <stop offset="1" style="stop-color:#272822" id="stop5057"/>
  </linearGradient>
  <linearGradient inkscape:collect="always" id="linearGradient3313" xlink:href="#linearGradient5053" y1="43" y2="5" x2="0" gradientUnits="userSpaceOnUse" gradientTransform="matrix(1.0526316 0 0 1.0526316 -1.263158 1003.0991)"/>
  <linearGradient inkscape:collect="always" xlink:href="#linearGradient7449" id="linearGradient7447" y1="12" y2="4" x2="0" gradientUnits="userSpaceOnUse" gradientTransform="matrix(1 0 0 1.125 0 -0.5)"/>
  <linearGradient inkscape:collect="always" id="linearGradient7449">
   <stop id="stop7451"/>
   <stop offset="1" style="stop-opacity:0.515789" id="stop7453"/>
  </linearGradient>
  <linearGradient inkscape:collect="always" xlink:href="#linearGradient7474" id="linearGradient7462" y1="12" y2="5.777778" gradientUnits="userSpaceOnUse" x2="0" gradientTransform="matrix(1 0 0 1.125 -4 -4.5)"/>
  <linearGradient inkscape:collect="always" id="linearGradient7474">
   <stop style="stop-opacity:0" id="stop7476"/>
   <stop offset="1" style="stop-color:#ffffff;stop-opacity:0.517647" id="stop7478"/>
  </linearGradient>
  <linearGradient inkscape:collect="always" id="linearGradient3336" xlink:href="#linearGradient7449" y1="12" y2="4" x2="0" gradientUnits="userSpaceOnUse" gradientTransform="matrix(1 0 0 1.125 0 1003.8622)"/>
  <linearGradient inkscape:collect="always" xlink:href="#linearGradient7474" id="linearGradient3780" y1="12" y2="5.777778" gradientUnits="userSpaceOnUse" x2="0" gradientTransform="matrix(1 0 0 1.0879326 0 1004.216)"/>
  <linearGradient inkscape:collect="always" xlink:href="#linearGradient6761" id="linearGradient7439" y1="7" x1="40" y2="11" x2="44" gradientUnits="userSpaceOnUse"/>
  <linearGradient inkscape:collect="always" id="linearGradient3366" xlink:href="#linearGradient6761" y1="7" y2="13" x1="40" x2="46" gradientUnits="userSpaceOnUse" gradientTransform="matrix(1 0 0 1 0 1004.3622)"/>
 </defs>
 <metadata id="metadata3214"/>
 <g inkscape:label="Layer 1" inkscape:groupmode="layer" id="layer1" transform="matrix(1 0 0 1 0 -1004.3622)">
  <rect width="40" x="4" y="1008.3622" rx="0" height="40" style="fill:url(#linearGradient3313);fill-rule:evenodd" id="rect7410"/>
  <path inkscape:connector-curvature="0" style="fill:url(#linearGradient3296);opacity:0.2;fill-rule:evenodd" id="rect6751" d="m 20,1022.3622 0,0 -1,-1 0,1 -9,0 1,1 4,0 0,1 -5,0 1,1 6,0 0,1 -7,0 1,1 0,7 1,1 -2,0 0,1 1,1 3,0 0,1 -4,0 c 3.07869,3.1379 7.026145,6.8678 10.121587,10 l 23.878408,0 5e-6,-9 c -5.016483,-5.0296 -12.97963,-12.9659 -18,-18 l 0,0 -0.06881,1.019 z m 11,0 -4,0 c 0,0 11.867511,11.8134 17,17 l 3e-6,-4.9418 c -4.099849,-4.103 -8.863751,-8.9622 -12.963757,-13.0576 -0.03625,-6e-4 -0.03625,0.9994 -0.03625,0.9994 z"/>
  <rect width="2" x="7" y="1021.3624" rx="0" height="0.999863" style="fill:#ffffff;opacity:0.8;fill-rule:evenodd" id="rect5586"/>
  <rect width="2" x="7" y="1025.3623" rx="0" height="0.999863" style="fill:#ffffff;opacity:0.8;fill-rule:evenodd" id="rect5588"/>
  <rect width="2" x="7" y="1023.3624" rx="0" height="0.999863" style="fill:#ffffff;opacity:0.8;fill-rule:evenodd" id="rect5590"/>
  <rect width="2" x="7" y="1027.3623" rx="0" height="0.999863" style="fill:#ffffff;opacity:0.8;fill-rule:evenodd" id="rect5592"/>
  <rect width="2" x="7" y="1031.3623" rx="0" height="0.999863" style="fill:#ffffff;opacity:0.8;fill-rule:evenodd" id="rect5594"/>
  <rect width="2" x="7" y="1029.3623" rx="0" height="0.999863" style="fill:#ffffff;opacity:0.8;fill-rule:evenodd" id="rect5596"/>
  <rect width="2" x="7" y="1033.3623" rx="0" height="0.999863" style="fill:#ffffff;opacity:0.8;fill-rule:evenodd" id="rect5598"/>
  <rect width="2" x="7" y="1037.3623" rx="0" height="0.999863" style="fill:#ffffff;opacity:0.8;fill-rule:evenodd" id="rect5600"/>
  <rect width="2" x="7" y="1035.3623" rx="0" height="0.999863" style="fill:#ffffff;opacity:0.8;fill-rule:evenodd" id="rect5602"/>
  <rect width="9" x="10" y="1021.3622" rx="0" height="0.999863" style="fill:#f92672;opacity:0.8;fill-rule:evenodd" id="rect4759"/>
  <rect width="6" x="20" y="1021.3624" rx="0" height="0.999863" style="fill:#ffffff;opacity:0.8;fill-rule:evenodd" id="rect4764"/>
  <rect width="4" x="27" y="1021.3624" rx="0" height="0.999863" style="fill:#ffffff;opacity:0.8;fill-rule:evenodd" id="rect4766"/>
  <rect width="5" x="10" y="1023.3622" rx="0" height="1.00002" style="fill:#fd971f;opacity:0.8;fill-rule:evenodd" id="rect4997"/>
  <rect width="2" x="16" y="1023.3622" rx="0" height="1.0001" style="fill:#ffffff;opacity:0.8;fill-rule:evenodd" id="rect4999"/>
  <rect width="9" x="19" y="1023.3624" rx="0" height="0.999863" style="fill:#a6e22e;opacity:0.8;fill-rule:evenodd" id="rect5001"/>
  <rect width="7" x="10" y="1025.3622" rx="0" height="0.999863" style="fill:#f92672;opacity:0.8;fill-rule:evenodd" id="rect5003"/>
  <rect width="5" x="18" y="1025.3624" rx="0" height="0.999863" style="fill:#fd971f;opacity:0.8;fill-rule:evenodd" id="rect5005"/>
  <rect width="2" x="24" y="1025.3623" rx="0" height="0.999863" style="fill:#ffffff;opacity:0.8;fill-rule:evenodd" id="rect5007"/>
  <rect width="4" x="12" y="1027.3622" rx="0" height="0.999863" style="fill:#f92672;opacity:0.8;fill-rule:evenodd" id="rect5009"/>
  <rect width="10" x="17" y="1027.3624" rx="0" height="0.999863" style="fill:#a6e22e;opacity:0.8;fill-rule:evenodd" id="rect5011"/>
  <rect width="4" x="28" y="1027.3624" rx="0" height="0.999863" style="fill:#ffffff;opacity:0.8;fill-rule:evenodd" id="rect5013"/>
  <rect width="6" x="12" y="1029.3622" rx="0" height="0.999863" style="fill:#f92672;opacity:0.8;fill-rule:evenodd" id="rect5015"/>
  <rect width="6" x="19" y="1029.3624" rx="0" height="0.999863" style="fill:#66d9ef;opacity:0.8;fill-rule:evenodd" id="rect5017"/>
  <rect width="4" x="26" y="1029.3624" rx="0" height="0.999863" style="fill:#a6e22e;opacity:0.8;fill-rule:evenodd" id="rect5019"/>
  <rect width="2" x="12" y="1031.3622" rx="0" height="0.999863" style="fill:#f92672;opacity:0.8;fill-rule:evenodd" id="rect5021"/>
  <rect width="13" x="15" y="1031.3624" rx="0" height="0.999863" style="fill:#66d9ef;opacity:0.8;fill-rule:evenodd" id="rect5023"/>
  <rect width="5.5" x="29" y="1031.3624" rx="0" height="0.999863" style="fill:#ffffff;opacity:0.8;fill-rule:evenodd" id="rect5025"/>
  <rect width="3" x="12" y="1033.3622" rx="0" height="0.999863" style="fill:#f92672;opacity:0.8;fill-rule:evenodd" id="rect5027"/>
  <rect width="11" x="16" y="1033.3624" rx="0" height="0.999863" style="fill:#66d9ef;opacity:0.8;fill-rule:evenodd" id="rect5029"/>
  <rect width="4" x="28" y="1033.3624" rx="0" height="0.999863" style="fill:#ffffff;opacity:0.8;fill-rule:evenodd" id="rect5031"/>
  <rect width="2" x="10" y="1035.3622" rx="0.000017" height="1.00002" style="fill:#ffffff;opacity:0.8;fill-rule:evenodd" id="rect5033"/>
  <rect width="8" x="13" y="1035.3624" rx="0" height="0.999863" style="fill:#66d9ef;opacity:0.8;fill-rule:evenodd" id="rect5035"/>
  <rect width="3" x="22" y="1035.3624" rx="0" height="0.999863" style="fill:#fd971f;opacity:0.8;fill-rule:evenodd" id="rect5037"/>
  <rect width="4" x="10" y="1037.3622" rx="0" height="0.999863" style="fill:#f92672;opacity:0.8;fill-rule:evenodd" id="rect5039"/>
  <rect width="11" x="15" y="1037.3624" rx="0" height="0.999863" style="fill:#a6e22e;opacity:0.8;fill-rule:evenodd" id="rect5041"/>
  <rect width="2.5" x="27" y="1037.3624" rx="0" height="0.999863" style="fill:#ffffff;opacity:0.8;fill-rule:evenodd" id="rect5043"/>
  <path inkscape:connector-curvature="0" style="fill:url(#linearGradient7447);opacity:0.5;fill-rule:evenodd" id="path7420" d="m 4,4 0,8.90625 0.46875,0 C 8.308294,12.90625 8.284054,6 10.84375,6 L 22.375,6 c 2.559696,0 2.423515,6.663881 6.234375,6.96875 L 29,13 l 1,0 14,0 0,-9 z" transform="matrix(1 0 0 1 0 1004.3622)"/>
  <path inkscape:connector-curvature="0" style="fill:#d0d0d0;fill-rule:evenodd" id="path7426" d="m 39,1011.3622 1,2 1,-2 z"/>
  <path inkscape:connector-curvature="0" style="fill:url(#linearGradient3780);opacity:0.1;fill-rule:evenodd" id="path7457" d="m 10.855469,1010.3621 c -2.559696,0 -2.5588934,6.9091 -6.3984374,6.9091 l -0.4570312,0 0,0.091 24.9999996,0 0,-0.091 -0.226562,0 c -3.839545,0 -3.838742,-6.9091 -6.398438,-6.9091 l -11.519531,0 z"/>
  <path inkscape:connector-curvature="0" style="opacity:0.5;fill-rule:evenodd" id="path7414" d="m 4.0000004,1044.3622 0,4 39.9999996,0 0,-4 -39.9999996,0 z"/>
  <path inkscape:connector-curvature="0" style="fill:#ffffff;opacity:0.1;fill-rule:evenodd" id="path7416" d="m 4.0000004,1043.3622 0,1 39.9999996,0 0,-1 -39.9999996,0 z"/>
  <path inkscape:connector-curvature="0" style="opacity:0.6;fill-rule:evenodd" id="path7424" d="m 4.0000004,1047.3622 0,1 39.9999996,0 0,-1 -39.9999996,0 z"/>
  <path inkscape:connector-curvature="0" style="fill:url(#linearGradient3366);opacity:0.2;fill-rule:evenodd" id="path7431" d="m 41,1011.3622 3,3 0,3 -4,-4 z"/>
  <rect width="1" x="10" y="1027.3622" rx="0" height="7" style="fill:#31322e;opacity:0.678899;fill-rule:evenodd" id="rect5645"/>
 </g>
</svg>
