<?xml version="1.0" encoding="UTF-8" standalone="no"?>
<!-- Created with Inkscape (http://www.inkscape.org/) -->

<svg
   xmlns:dc="http://purl.org/dc/elements/1.1/"
   xmlns:cc="http://creativecommons.org/ns#"
   xmlns:rdf="http://www.w3.org/1999/02/22-rdf-syntax-ns#"
   xmlns:svg="http://www.w3.org/2000/svg"
   xmlns="http://www.w3.org/2000/svg"
   xmlns:xlink="http://www.w3.org/1999/xlink"
   xmlns:sodipodi="http://sodipodi.sourceforge.net/DTD/sodipodi-0.dtd"
   xmlns:inkscape="http://www.inkscape.org/namespaces/inkscape"
   width="48"
   height="48"
   id="svg5453"
   version="1.1"
   inkscape:version="0.91 r13725"
   sodipodi:docname="synfig_icon.svg"
   viewBox="0 0 48 48"
   inkscape:export-filename="synfig_icon.svg.png"
   inkscape:export-xdpi="240"
   inkscape:export-ydpi="240">
  <defs
     id="defs5455">
    <linearGradient
       id="linearGradient4241"
       inkscape:collect="always">
      <stop
         id="stop4243"
         offset="0"
         style="stop-color:#000000;stop-opacity:0.0647482" />
      <stop
         id="stop4245"
         offset="1"
         style="stop-color:#000000;stop-opacity:0" />
    </linearGradient>
    <linearGradient
       id="linearGradient4227"
       inkscape:collect="always">
      <stop
         id="stop4229"
         offset="0"
         style="stop-color:#000000;stop-opacity:1" />
      <stop
         id="stop4231"
         offset="1"
         style="stop-color:#000000;stop-opacity:0;" />
    </linearGradient>
    <linearGradient
       inkscape:collect="always"
       id="linearGradient4143">
      <stop
         style="stop-color:#026ddc;stop-opacity:1"
         offset="0"
         id="stop4145" />
      <stop
         style="stop-color:#28b0fd;stop-opacity:1"
         offset="1"
         id="stop4147" />
    </linearGradient>
    <linearGradient
       inkscape:collect="always"
       xlink:href="#linearGradient4191"
       id="linearGradient4174-5"
       x1="408.57141"
       y1="543.79797"
       x2="408.57141"
       y2="503.798"
       gradientUnits="userSpaceOnUse"
       gradientTransform="translate(-817.14285,0)" />
    <linearGradient
       inkscape:collect="always"
       xlink:href="#linearGradient4227"
       id="linearGradient4773-7"
       x1="399.5715"
       y1="517.79797"
       x2="416.57144"
       y2="534.79791"
       gradientUnits="userSpaceOnUse"
       gradientTransform="translate(-2e-5,0)" />
    <linearGradient
       gradientUnits="userSpaceOnUse"
       y2="-17.874853"
       x2="62.416515"
       y1="14.076105"
       x1="62.416531"
       id="linearGradient4265"
       xlink:href="#linearGradient4143"
       inkscape:collect="always"
       gradientTransform="matrix(0.90764101,0,0,0.90764101,351.91964,525.02195)" />
    <linearGradient
       inkscape:collect="always"
       xlink:href="#linearGradient4241"
       id="linearGradient4248"
       x1="408.65262"
       y1="525.27759"
       x2="416.65259"
       y2="533.27759"
       gradientUnits="userSpaceOnUse"
       gradientTransform="translate(-0.08116228,-0.47958844)" />
    <linearGradient
       inkscape:collect="always"
       xlink:href="#linearGradient4241"
       id="linearGradient4239"
       gradientUnits="userSpaceOnUse"
       gradientTransform="matrix(-1,0,0,1,817.19675,-0.47958844)"
       x1="417.79425"
       y1="517.95715"
       x2="426.216"
       y2="525.91473" />
    <linearGradient
       id="linearGradient4191"
       inkscape:collect="always">
      <stop
         id="stop4193"
         offset="0"
         style="stop-color:#18222a;stop-opacity:1" />
      <stop
         id="stop4195"
         offset="1"
         style="stop-color:#566069;stop-opacity:1" />
    </linearGradient>
  </defs>
  <sodipodi:namedview
     id="base"
     pagecolor="#ffffff"
     bordercolor="#666666"
     borderopacity="1.0"
     inkscape:pageopacity="0"
     inkscape:pageshadow="2"
     inkscape:zoom="2.8284271"
     inkscape:cx="37.094307"
     inkscape:cy="-9.0563184"
     inkscape:document-units="px"
     inkscape:current-layer="layer1"
     showgrid="true"
     fit-margin-top="0"
     fit-margin-left="0"
     fit-margin-right="0"
     fit-margin-bottom="0"
     inkscape:window-width="1920"
     inkscape:window-height="1006"
     inkscape:window-x="0"
     inkscape:window-y="0"
     inkscape:window-maximized="1"
     inkscape:showpageshadow="false"
     borderlayer="true"
     showguides="true"
     inkscape:object-nodes="true">
    <inkscape:grid
       type="xygrid"
       id="grid4063" />
    <sodipodi:guide
       position="1.1650391e-05,47.999996"
       orientation="4,0"
       id="guide4146" />
    <sodipodi:guide
       position="1.1650391e-05,43.999996"
       orientation="0,48"
       id="guide4148" />
    <sodipodi:guide
       position="48.000012,43.999996"
       orientation="-4,0"
       id="guide4150" />
    <sodipodi:guide
       position="48.000012,47.999996"
       orientation="0,-48"
       id="guide4152" />
    <sodipodi:guide
       position="1.1650391e-05,4.0000264"
       orientation="4,0"
       id="guide4154" />
    <sodipodi:guide
       position="1.1650391e-05,2.6367188e-05"
       orientation="0,48"
       id="guide4156" />
    <sodipodi:guide
       position="48.000012,2.6367188e-05"
       orientation="-4,0"
       id="guide4158" />
    <sodipodi:guide
       position="48.000012,4.0000264"
       orientation="0,-48"
       id="guide4160" />
    <sodipodi:guide
       position="48.000012,48.000026"
       orientation="0,-4"
       id="guide4162" />
    <sodipodi:guide
       position="44.000012,48.000026"
       orientation="48,0"
       id="guide4164" />
    <sodipodi:guide
       position="44.000012,2.6367188e-05"
       orientation="0,4"
       id="guide4166" />
    <sodipodi:guide
       position="48.000012,2.6367188e-05"
       orientation="-48,0"
       id="guide4168" />
    <sodipodi:guide
       position="4.0000422,48.000026"
       orientation="0,-4"
       id="guide4170" />
    <sodipodi:guide
       position="4.2167969e-05,48.000026"
       orientation="48,0"
       id="guide4172" />
    <sodipodi:guide
       position="4.2167969e-05,2.6367188e-05"
       orientation="0,4"
       id="guide4174" />
    <sodipodi:guide
       position="4.0000422,2.6367188e-05"
       orientation="-48,0"
       id="guide4176" />
    <sodipodi:guide
       position="4.0000117,47.999996"
       orientation="43.999969,0"
       id="guide4638" />
    <sodipodi:guide
       position="4.0000117,4.0000264"
       orientation="0,20"
       id="guide4640" />
    <sodipodi:guide
       position="24.000012,4.0000264"
       orientation="-43.999969,0"
       id="guide4642" />
    <sodipodi:guide
       position="24.000012,47.999996"
       orientation="0,-20"
       id="guide4644" />
    <sodipodi:guide
       position="4.0000422,24.000026"
       orientation="20,0"
       id="guide4666" />
    <sodipodi:guide
       position="4.0000422,4.0000264"
       orientation="0,39.999969"
       id="guide4668" />
    <sodipodi:guide
       position="44.000012,4.0000264"
       orientation="-20,0"
       id="guide4670" />
    <sodipodi:guide
       position="44.000012,24.000026"
       orientation="0,-39.999969"
       id="guide4672" />
  </sodipodi:namedview>
  <metadata
     id="metadata5458">
    <rdf:RDF>
      <cc:Work
         rdf:about="">
        <dc:format>image/svg+xml</dc:format>
        <dc:type
           rdf:resource="http://purl.org/dc/dcmitype/StillImage" />
        <dc:title />
      </cc:Work>
    </rdf:RDF>
  </metadata>
  <g
     inkscape:label="Capa 1"
     inkscape:groupmode="layer"
     id="layer1"
     transform="translate(-384.57143,-499.798)">
    <rect
       style="opacity:1;fill:url(#linearGradient4174-5);fill-opacity:1.0;stroke:none;stroke-width:2.79999995;stroke-miterlimit:4;stroke-dasharray:none;stroke-opacity:0.55026455"
       id="rect4166-5"
       width="39.999989"
       height="39.999969"
       x="-428.57141"
       y="503.798"
       ry="19.999985"
       transform="scale(-1,1)" />
    <path
       style="opacity:0.2;fill:url(#linearGradient4773-7);fill-opacity:1;fill-rule:evenodd;stroke:none;stroke-width:1px;stroke-linecap:butt;stroke-linejoin:miter;stroke-opacity:1"
       d="m 398.27995,532.50652 10.29149,10.29148 c 5.99999,0.99997 17.7815,-10.51987 19.99999,-16 l -19.99999,-18 z"
       id="path4696-6"
       inkscape:connector-curvature="0"
       sodipodi:nodetypes="ccccc" />
    <path
       inkscape:connector-curvature="0"
       style="opacity:1;fill:#161e25;fill-opacity:1;stroke:none;stroke-width:2.79999995;stroke-miterlimit:4;stroke-dasharray:none;stroke-opacity:0.55026455"
       d="m 388.58313,523.298 c -0.004,0.16686 -0.0117,0.33212 -0.0117,0.5 0,11.07999 8.92001,20 20,20 11.07999,0 20,-8.92001 20,-20 0,-0.16788 -0.008,-0.33315 -0.0117,-0.5 -0.26418,10.84657 -9.07584,19.5 -19.98828,19.5 -10.91244,0 -19.7241,-8.65343 -19.98828,-19.5 z"
       id="rect4775-1" />
    <path
       inkscape:connector-curvature="0"
       style="display:inline;opacity:1;fill:url(#linearGradient4265);fill-opacity:1;enable-background:new"
       d="m 408.57144,508.798 c -0.093,-0.003 -0.1832,0.034 -0.2477,0.10126 -0.9309,0.97135 -1.8769,2.06123 -2.7319,3.09862 -10e-4,9e-4 0,0.003 0,0.004 -2.107,2.62766 -3.7086,5.32759 -4.8692,8.2184 -1.0811,2.69289 -1.7132,5.02249 -2.2885,8.416 -0.126,0.74313 -0.2533,1.6436 -0.3411,2.36819 -0.044,0.36231 -0.078,0.68016 -0.097,0.91524 -0.01,0.11753 -0.015,0.21396 -0.017,0.29196 -7e-4,0.039 0,0.0715 0,0.11208 0,0.0202 0,0.0419 0.014,0.0786 0.01,0.0368 0,0.1113 0.1494,0.2025 0.08,0.0492 0.09,0.0395 0.1101,0.0442 0.02,0.005 0.035,0.008 0.051,0.0108 0.032,0.005 0.066,0.009 0.1052,0.0128 0.078,0.008 0.1743,0.0161 0.2762,0.0216 0.8079,0.0442 1.9991,0.24951 2.789,0.48072 0.5332,0.1561 0.8842,0.28524 1.4048,0.5161 0.1202,0.0534 0.2305,0.10212 0.3126,0.13764 0.041,0.0178 0.075,0.0316 0.1002,0.0423 0.012,0.005 0.023,0.009 0.032,0.0128 7e-4,2.1e-4 0,10e-4 0,10e-4 2e-4,6e-5 0.001,-9e-5 0.001,0 5e-4,1.2e-4 7e-4,10e-4 0,10e-4 0,0.002 0.01,0.004 0.014,0.007 -4e-4,-0.001 0,-0.003 0,-0.003 0,6.8e-4 0,10e-4 0,0.002 0.01,0.002 0.01,0.004 0.019,0.007 0,10e-4 0.01,0.004 0.012,0.005 0,-6.8e-4 -0.011,-4.6e-4 -0.013,-10e-4 0.023,0.0124 0.05,0.0278 0.087,0.0482 0.088,0.0485 0.2092,0.11557 0.3412,0.18972 1.2747,0.71641 2.228,1.45518 3.7503,2.91381 0.2006,0.19217 0.3875,0.36649 0.5289,0.49546 0.071,0.0644 0.1295,0.11754 0.176,0.15729 0.023,0.0199 0.043,0.036 0.064,0.0521 0.01,0.008 0.021,0.0162 0.038,0.0275 0.01,0.005 0.02,0.0122 0.039,0.0216 0.02,0.009 0.039,0.0281 0.1298,0.0325 0.1086,0.005 0.1311,-0.0186 0.1533,-0.0285 0.022,-0.01 0.034,-0.0167 0.043,-0.0226 0.019,-0.0118 0.03,-0.0202 0.041,-0.0285 0.022,-0.0168 0.043,-0.034 0.068,-0.0551 0.05,-0.0423 0.1146,-0.0997 0.1917,-0.16908 0.1543,-0.13883 0.3584,-0.32744 0.5781,-0.53578 1.2593,-1.19412 1.8688,-1.6989 2.7456,-2.2807 1.9148,-1.27055 3.6211,-1.83449 6.2405,-2.05558 l 0.2124,-0.0177 c 0.1707,-0.0142 0.3019,-0.15704 0.3018,-0.32834 l 0,-0.12486 c 0,-0.26028 -0.062,-0.79786 -0.1455,-1.46378 -0.084,-0.66592 -0.1905,-1.42386 -0.2871,-1.99955 -0.5746,-3.42402 -1.2279,-5.83559 -2.323,-8.56246 -0.9864,-2.45654 -2.3987,-4.93802 -4.0865,-7.18423 0,-0.005 -0.01,-0.01 -0.012,-0.0148 -1.1362,-1.34486 -2.2351,-2.7564 -3.4339,-4.06497 -0.06,-0.0657 -0.144,-0.10439 -0.233,-0.10715 l 0,0 z"
       id="path3621" />
    <path
       inkscape:connector-curvature="0"
       style="fill:url(#linearGradient4248);fill-opacity:1;fill-rule:evenodd;stroke:#000000;stroke-width:0;stroke-linecap:butt;stroke-linejoin:miter;stroke-miterlimit:4;stroke-dasharray:none;stroke-opacity:1"
       d="m 415.82813,519.03714 -17.79687,13.4668 c 0.0202,0.0301 0.0418,0.0626 0.10156,0.0996 0.0796,0.0492 0.0916,0.0383 0.11133,0.043 0.0198,0.005 0.0347,0.009 0.0508,0.0117 0.0321,0.005 0.0666,0.008 0.10547,0.0117 0.0779,0.008 0.17352,0.0179 0.27539,0.0234 0.80785,0.0442 1.99924,0.24926 2.78906,0.48047 0.53322,0.1561 0.88572,0.28477 1.40625,0.51563 0.12026,0.0534 0.23042,0.1012 0.3125,0.13672 0.041,0.0178 0.074,0.0323 0.0996,0.043 0.012,0.005 0.0215,0.01 0.0312,0.0137 6.8e-4,2.1e-4 0.003,0 0.004,0 0,0 0.002,0.002 0.002,0.002 0.004,0.002 0.007,0.003 0.0137,0.006 0,0 0.002,0 0.002,0 0.005,0.002 0.008,0.003 0.0176,0.006 0.004,0.001 0.007,0.005 0.0117,0.006 -0.003,-6.8e-4 -0.01,-10e-4 -0.0117,-0.002 0.0231,0.0124 0.0489,0.0284 0.0859,0.0488 0.0881,0.0485 0.20984,0.1153 0.3418,0.18945 1.27473,0.71641 2.22767,1.45543 3.75,2.91406 0.20057,0.19217 0.38786,0.36713 0.52929,0.4961 0.0707,0.0644 0.12925,0.1165 0.17579,0.15625 0.0232,0.0199 0.0435,0.0366 0.0645,0.0527 0.0105,0.008 0.0214,0.016 0.0391,0.0273 0.009,0.005 0.0195,0.0121 0.0391,0.0215 0.0196,0.009 0.0383,0.0288 0.1289,0.0332 0.1086,0.005 0.13208,-0.0194 0.1543,-0.0293 0.0223,-0.01 0.0334,-0.0175 0.043,-0.0234 0.0193,-0.0118 0.0298,-0.019 0.041,-0.0273 0.0224,-0.0168 0.0433,-0.0336 0.0684,-0.0547 0.0503,-0.0423 0.11427,-0.10055 0.19141,-0.16993 0.15426,-0.13883 0.35842,-0.32681 0.57812,-0.53515 1.2593,-1.19412 1.86928,-1.69945 2.7461,-2.28125 1.9148,-1.27055 3.62084,-1.8336 6.24023,-2.05469 l 0.21094,-0.0176 c 0.1707,-0.0142 0.30288,-0.15878 0.30273,-0.33008 l 0,-0.12304 c 10e-6,-0.26028 -0.0629,-0.79893 -0.14648,-1.46485 -0.0836,-0.66592 -0.1905,-1.42431 -0.28711,-2 -0.57463,-3.42402 -1.22723,-5.83563 -2.32227,-8.5625 -0.15114,-0.37637 -0.32941,-0.75229 -0.5,-1.1289 z"
       id="path4238" />
    <path
       id="path4237"
       d="m 401.28746,519.03714 17.79687,13.4668 c -0.0202,0.0301 -0.0418,0.0626 -0.10156,0.0996 -0.0796,0.0492 -0.0916,0.0383 -0.11133,0.043 -0.0198,0.005 -0.0347,0.009 -0.0508,0.0117 -0.0321,0.005 -0.0666,0.008 -0.10547,0.0117 -0.0779,0.008 -0.17352,0.0179 -0.27539,0.0234 -0.80785,0.0442 -1.99924,0.24926 -2.78906,0.48047 -0.53322,0.1561 -0.88572,0.28477 -1.40625,0.51563 -0.12026,0.0534 -0.23042,0.1012 -0.3125,0.13672 -0.041,0.0178 -0.074,0.0323 -0.0996,0.043 -0.012,0.005 -0.0215,0.01 -0.0312,0.0137 -6.8e-4,2.1e-4 -0.003,0 -0.004,0 0,0 -0.002,0.002 -0.002,0.002 -0.004,0.002 -0.007,0.003 -0.0137,0.006 0,0 -0.002,0 -0.002,0 -0.005,0.002 -0.008,0.003 -0.0176,0.006 -0.004,0.001 -0.007,0.005 -0.0117,0.006 0.003,-6.8e-4 0.01,-10e-4 0.0117,-0.002 -0.0231,0.0124 -0.0489,0.0284 -0.0859,0.0488 -0.0881,0.0485 -0.20984,0.1153 -0.3418,0.18945 -1.27473,0.71641 -2.22767,1.45543 -3.75,2.91406 -0.20057,0.19217 -0.38786,0.36713 -0.52929,0.4961 -0.0707,0.0644 -0.12925,0.1165 -0.17579,0.15625 -0.0232,0.0199 -0.0435,0.0366 -0.0645,0.0527 -0.0105,0.008 -0.0214,0.016 -0.0391,0.0273 -0.009,0.005 -0.0195,0.0121 -0.0391,0.0215 -0.0196,0.009 -0.0383,0.0288 -0.1289,0.0332 -0.1086,0.005 -0.13208,-0.0194 -0.1543,-0.0293 -0.0223,-0.01 -0.0334,-0.0175 -0.043,-0.0234 -0.0193,-0.0118 -0.0298,-0.019 -0.041,-0.0273 -0.0224,-0.0168 -0.0433,-0.0336 -0.0684,-0.0547 -0.0503,-0.0423 -0.11427,-0.10055 -0.19141,-0.16993 -0.15426,-0.13883 -0.35842,-0.32681 -0.57812,-0.53515 -1.2593,-1.19412 -1.86928,-1.69945 -2.7461,-2.28125 -1.9148,-1.27055 -3.62084,-1.8336 -6.24023,-2.05469 l -0.21094,-0.0176 c -0.1707,-0.0142 -0.30288,-0.15878 -0.30273,-0.33008 l 0,-0.12304 c -10e-6,-0.26028 0.0629,-0.79893 0.14648,-1.46485 0.0836,-0.66592 0.1905,-1.42431 0.28711,-2 0.57463,-3.42402 1.22723,-5.83563 2.32227,-8.5625 0.15114,-0.37637 0.32941,-0.75229 0.5,-1.1289 z"
       style="fill:url(#linearGradient4239);fill-opacity:1;fill-rule:evenodd;stroke:#000000;stroke-width:0;stroke-linecap:butt;stroke-linejoin:miter;stroke-miterlimit:4;stroke-dasharray:none;stroke-opacity:1"
       inkscape:connector-curvature="0" />
  </g>
</svg>
