<svg width="48" xmlns="http://www.w3.org/2000/svg" height="48">
 <defs>
  <linearGradient id="a" y1="543.8" y2="509.8" x2="0" gradientUnits="userSpaceOnUse">
   <stop stop-color="#2f74c8"/>
   <stop offset="1" stop-color="#4699d7"/>
  </linearGradient>
  <linearGradient id="b" y1="517.8" x1="414.57" y2="531.8" x2="428.57" gradientUnits="userSpaceOnUse">
   <stop stop-color="#383e51"/>
   <stop offset="1" stop-color="#655c6f" stop-opacity="0"/>
  </linearGradient>
  <linearGradient id="c" y1="519.8" y2="508.8" x2="0" gradientUnits="userSpaceOnUse">
   <stop stop-color="#60a5e7" stop-opacity="0"/>
   <stop offset="1" stop-color="#a6f3fb" stop-opacity=".258"/>
  </linearGradient>
 </defs>
 <g transform="translate(-384.57-499.8)">
  <path fill="#084883" d="m0 4v10h48v-4h-17l-6-6z" transform="translate(384.57 499.8)"/>
  <path fill="url(#a)" d="m384.57 513.8h48v30h-48z"/>
  <path fill="#2f77c2" d="m384.57 513.8h48v1h-48z"/>
  <g fill-rule="evenodd">
   <path fill="#ffffff" d="m432.57 513.8l-23 13-7-6.86-7-7.14h37z"/>
   <path fill="#b3b3b3" d="m395.57 512.8v1h1z"/>
   <path fill="url(#c)" d="m397.57 512.8l12 12 22-12z"/>
  </g>
  <rect width="48" x="384.57" y="542.8" fill="#2a6bae" height="1"/>
  <g fill-rule="evenodd">
   <path opacity=".2" fill="url(#b)" d="m409.57 526.8l17 17h6v-30z"/>
   <path fill="#5f5f5f" fill-opacity=".118" d="m384.57 503.8v10h48v-4h-23z"/>
   <path fill="#ffffff" fill-opacity=".059" d="m384.57 503.8l20 1 11 6 17-1h-17l-6-6z"/>
  </g>
 </g>
</svg>
