<?xml version="1.0" encoding="UTF-8" standalone="no"?>

<!-- Created with Inkscape (http://www.inkscape.org/) -->
<svg width="48" version="1.1" xmlns="http://www.w3.org/2000/svg" height="48" xmlns:xlink="http://www.w3.org/1999/xlink" xmlns:inkscape="http://www.inkscape.org/namespaces/inkscape">
 <defs id="defs5455">
  <linearGradient inkscape:collect="always" id="linearGradient4390">
   <stop style="stop-color:#f7abb2" id="stop4392"/>
   <stop offset="1" style="stop-color:#f9dce0" id="stop4394"/>
  </linearGradient>
  <linearGradient inkscape:collect="always" xlink:href="#linearGradient4435" id="linearGradient4274" y1="545.79797" y2="517.79797" x2="0" gradientUnits="userSpaceOnUse" gradientTransform="matrix(1.4285711 0 0 1.4285711 -163.67328 -235.91309)"/>
  <linearGradient inkscape:collect="always" id="linearGradient4435">
   <stop style="stop-color:#c61423" id="stop4437"/>
   <stop offset="1" style="stop-color:#dc2b41" id="stop4439"/>
  </linearGradient>
  <linearGradient inkscape:collect="always" xlink:href="#linearGradient4390" id="linearGradient4320" y1="538.79797" y2="524.79797" x2="0" gradientUnits="userSpaceOnUse" gradientTransform="matrix(1 0 0 1 8.5 -8)"/>
  <linearGradient inkscape:collect="always" xlink:href="#linearGradient4227" id="linearGradient4221" y1="16" x1="16.00001" y2="35" x2="35.00001" gradientUnits="userSpaceOnUse"/>
  <linearGradient inkscape:collect="always" id="linearGradient4227">
   <stop style="stop-color:#292c2f" id="stop4229"/>
   <stop offset="1" style="stop-opacity:0" id="stop4231"/>
  </linearGradient>
 </defs>
 <metadata id="metadata5458"/>
 <g inkscape:label="Capa 1" inkscape:groupmode="layer" id="layer1" transform="matrix(1 0 0 1 -384.57143 -499.798)">
  <rect width="39.999947" x="388.57144" y="503.798" rx="19.999973" height="39.999947" style="fill:url(#linearGradient4274)" id="rect4179"/>
  <path style="fill:url(#linearGradient4221);opacity:0.2;fill-rule:evenodd" id="path4213" d="M 25 16 L 20 25 L 24.427734 29.427734 L 23 32 L 32.904297 41.904297 C 36.804726 39.96837 39.96837 36.804726 41.904297 32.904297 L 25 16 z " transform="matrix(1 0 0 1 384.57143 499.798)"/>
  <path inkscape:connector-curvature="0" style="fill:#2c2e31;fill-opacity:0.235294" id="rect4409" d="m 388.58311,523.29795 c -0.004,0.16654 -0.0117,0.33244 -0.0117,0.5 0,11.08 8.92,20 20,20 11.08,0 20,-8.92 20,-20 0,-0.16756 -0.008,-0.33346 -0.0117,-0.5 -0.26467,10.84613 -9.07616,19.5 -19.98828,19.5 -10.91212,0 -19.72361,-8.65387 -19.98828,-19.5 z"/>
  <path inkscape:connector-curvature="0" style="fill:url(#linearGradient4320);fill-rule:evenodd" id="path4185" d="m 409.57143,515.798 -5,9 3,0 0,7 5,-9 -3,0 z"/>
 </g>
</svg>
