<?xml version="1.0" encoding="UTF-8" standalone="no"?>

<!-- Created with Inkscape (http://www.inkscape.org/) -->
<svg width="48" version="1.1" xmlns="http://www.w3.org/2000/svg" height="48" xmlns:xlink="http://www.w3.org/1999/xlink" xmlns:inkscape="http://www.inkscape.org/namespaces/inkscape">
 <defs id="defs5455">
  <linearGradient inkscape:collect="always" id="linearGradient4511">
   <stop style="stop-color:#f7aeb4" id="stop4513"/>
   <stop offset="1" style="stop-color:#f8d4d9" id="stop4515"/>
  </linearGradient>
  <linearGradient inkscape:collect="always" id="linearGradient4143">
   <stop style="stop-color:#197cf1" id="stop4145"/>
   <stop offset="1" style="stop-color:#20bcfa" id="stop4147"/>
  </linearGradient>
  <linearGradient inkscape:collect="always" id="linearGradient4416" xlink:href="#linearGradient4143" y1="43.999973" y2="4" gradientUnits="userSpaceOnUse" x2="0" gradientTransform="matrix(-0.99999999 0 0 1 432.57144 499.798)"/>
  <linearGradient inkscape:collect="always" id="linearGradient4435">
   <stop style="stop-color:#c61423" id="stop4437"/>
   <stop offset="1" style="stop-color:#dc2b41" id="stop4439"/>
  </linearGradient>
  <linearGradient inkscape:collect="always" xlink:href="#linearGradient4435" id="linearGradient4374" y1="515.79797" y2="509.798" x2="0" gradientUnits="userSpaceOnUse" gradientTransform="matrix(1 0 0 1 24.999929 -5.999758)"/>
  <linearGradient inkscape:collect="always" id="linearGradient4227">
   <stop style="stop-color:#292c2f" id="stop4229"/>
   <stop offset="1" style="stop-opacity:0" id="stop4231"/>
  </linearGradient>
  <linearGradient inkscape:collect="always" xlink:href="#linearGradient4227" id="linearGradient4475" y1="503.798" x1="388.57147" y2="533.79797" x2="418.57144" gradientUnits="userSpaceOnUse" gradientTransform="matrix(1 0 0 1 -359.5715 -505.79776)"/>
  <linearGradient inkscape:collect="always" xlink:href="#linearGradient4511" id="linearGradient4509" y1="9" y2="5" x2="0" gradientUnits="userSpaceOnUse" gradientTransform="matrix(1 0 0 1 384.57143 499.798)"/>
  <linearGradient inkscape:collect="always" xlink:href="#linearGradient4227" id="linearGradient4525" y1="504.86877" x1="422.85025" y2="510.798" x2="428.77948" gradientUnits="userSpaceOnUse" gradientTransform="matrix(1 0 0 1 -384.57143 -499.798)"/>
 </defs>
 <metadata id="metadata5458"/>
 <g inkscape:label="Capa 1" inkscape:groupmode="layer" id="layer1" transform="matrix(1 0 0 1 -384.57143 -499.798)">
  <path inkscape:connector-curvature="0" style="fill:url(#linearGradient4416);fill-rule:evenodd" id="path4445" d="m 425.57143,506.798 0,27 -17.99997,0 -10.00003,10 0,-10 -9,0 0,-27 z"/>
  <path style="fill:url(#linearGradient4475);opacity:0.2;fill-rule:evenodd" id="path4378" d="M 41 7 L 39 9 L 41 11 L 41 7 z " transform="matrix(1 0 0 1 384.57143 499.798)"/>
  <ellipse cx="425.57144" cy="506.79797" rx="2.999999" ry="2.999999" style="fill:url(#linearGradient4374)" id="path4291"/>
  <path style="fill:url(#linearGradient4525);opacity:0.2;fill-rule:evenodd" id="path4517" d="M 43 7 L 42 7.3300781 L 40 8 L 39.650391 8.4648438 L 41.179688 9.9941406 A 2.9999988 2.999999 0 0 0 43.869141 7.8691406 L 43 7 z " transform="matrix(1 0 0 1 384.57143 499.798)"/>
  <path inkscape:connector-curvature="0" style="fill:url(#linearGradient4509)" id="path4482" d="m 425.57143,504.798 c -0.277,0 -0.5,0.223 -0.5,0.5 l 0,0.29297 -0.20703,-0.20703 c -0.19587,-0.19587 -0.51116,-0.19587 -0.70703,0 -0.19587,0.19587 -0.19587,0.51116 0,0.70703 l 0.20703,0.20703 -0.29297,0 c -0.277,0 -0.5,0.223 -0.5,0.5 0,0.277 0.223,0.5 0.5,0.5 l 0.29297,0 -0.20703,0.20703 c -0.19587,0.19587 -0.19587,0.51116 0,0.70703 0.19587,0.19587 0.51116,0.19587 0.70703,0 l 0.20703,-0.20703 0,0.29297 c 0,0.277 0.223,0.5 0.5,0.5 0.277,0 0.5,-0.223 0.5,-0.5 l 0,-0.29297 0.20703,0.20703 c 0.19587,0.19587 0.51116,0.19587 0.70703,0 0.19587,-0.19587 0.19587,-0.51116 0,-0.70703 l -0.20703,-0.20703 0.29297,0 c 0.277,0 0.5,-0.223 0.5,-0.5 0,-0.277 -0.223,-0.5 -0.5,-0.5 l -0.29297,0 0.20703,-0.20703 c 0.19587,-0.19587 0.19587,-0.51116 0,-0.70703 -0.19587,-0.19587 -0.51116,-0.19587 -0.70703,0 l -0.20703,0.20703 0,-0.29297 c 0,-0.277 -0.223,-0.5 -0.5,-0.5 z"/>
 </g>
</svg>
