<svg xmlns="http://www.w3.org/2000/svg" viewBox="0 0 48 48">
  <linearGradient id="a" x1="-20" x2="-20" y1="44" y2="4" gradientUnits="userSpaceOnUse">
    <stop stop-color="#197cf1" offset="0"/>
    <stop stop-color="#20bcfa" offset="1"/>
  </linearGradient>
  <linearGradient id="b" x1="19" x2="44" y1="19" y2="44" gradientUnits="userSpaceOnUse">
    <stop stop-color="#292c2f" offset="0"/>
    <stop stop-color="#292c2f" stop-opacity="0" offset="1"/>
  </linearGradient>
  <circle cx="24" cy="24" r="20" fill="url(#a)"/>
  <path d="M4.012 23.5c-.004.167-.012.332-.012.5 0 11.08 8.92 20 20 20s20-8.92 20-20c0-.168-.008-.333-.012-.5A19.953 19.953 0 0 1 24 43 19.95 19.95 0 0 1 4.012 23.5" fill="#0c69cf"/>
  <path d="m32.898 16.314-21.273 8.858 17.691 18.015a20 20 0 0 0 14.512-17.436z" fill="url(#b)" opacity=".2"/>
  <path d="M13.017 23.71c5.807-2.53 9.68-4.198 11.617-5.004 5.532-2.3 6.682-2.7 7.43-2.714.165-.003.534.038.772.232.202.163.257.384.284.54.027.154.06.507.033.783-.3 3.15-1.597 10.793-2.257 14.321-.279 1.493-.829 1.994-1.36 2.043-1.158.106-2.036-.765-3.157-1.5-1.753-1.148-2.743-1.864-4.445-2.985-1.967-1.296-.692-2.009.43-3.173.292-.304 5.39-4.94 5.488-5.361.012-.053.024-.249-.093-.352-.116-.104-.288-.068-.412-.04-.176.04-2.977 1.891-8.402 5.554-.795.545-1.515.811-2.16.798-.712-.016-2.08-.403-3.097-.733-1.248-.406-2.24-.62-2.153-1.309.045-.359.54-.725 1.482-1.1z" fill="#fff"/>
</svg>
