<svg height="48" viewBox="0 0 48 48" width="48" xmlns="http://www.w3.org/2000/svg" xmlns:xlink="http://www.w3.org/1999/xlink">
  <linearGradient id="a" gradientUnits="userSpaceOnUse" x1="0" x2="24" y1="0" y2="48">
    <stop offset="0" stop-color="#1a2530"/>
    <stop offset=".333333" stop-color="#2c3e50"/>
    <stop offset=".458333" stop-color="#34495e"/>
    <stop offset=".833333" stop-color="#8e44ad"/>
    <stop offset="1" stop-color="#9b59b6"/>
  </linearGradient>
  <linearGradient id="b" gradientUnits="userSpaceOnUse" x1="11" x2="6" y1="4" y2="17">
    <stop offset="0" stop-color="#194d6f"/>
    <stop offset=".230769" stop-color="#115c92"/>
    <stop offset="1" stop-color="#9b59b6"/>
  </linearGradient>
  <radialGradient id="c" cx="0" cy="0" gradientTransform="matrix(5 0 0 8 8 13)" gradientUnits="userSpaceOnUse" r="1">
    <stop offset="0" stop-color="#0c3d61"/>
    <stop offset="1" stop-color="#0c3d61" stop-opacity=".149"/>
  </radialGradient>
  <linearGradient id="d">
    <stop offset="0" stop-color="#fdbc4b"/>
    <stop offset="1" stop-color="#fdbc4b" stop-opacity="0"/>
  </linearGradient>
  <linearGradient id="e" gradientUnits="userSpaceOnUse" x1="10" x2="7" xlink:href="#d" y1="19" y2="11"/>
  <linearGradient id="f" gradientUnits="userSpaceOnUse" x1="5" x2="15" y1="10" y2="22">
    <stop offset="0" stop-color="#3daee9"/>
    <stop offset=".5" stop-color="#177ac2"/>
    <stop offset="1" stop-color="#9b59b6"/>
  </linearGradient>
  <linearGradient id="g" gradientUnits="userSpaceOnUse" x1="10.1309" x2="20.8691" xlink:href="#d" y1="14.5049" y2="14.5049"/>
  <radialGradient id="h" cx="0" cy="0" gradientTransform="matrix(29.000017 29.999995 -16.784921 16.225436 15 14)" gradientUnits="userSpaceOnUse" r="1">
    <stop offset="0" stop-color="#fdbc4b" stop-opacity=".851"/>
    <stop offset=".3" stop-color="#fdbc4b" stop-opacity=".349"/>
    <stop offset=".616667" stop-color="#2ecc71" stop-opacity=".118"/>
    <stop offset="1" stop-color="#3daee9" stop-opacity=".05"/>
  </radialGradient>
  <linearGradient id="i" gradientUnits="userSpaceOnUse" x1="8" x2="8" y1="4" y2="14">
    <stop offset="0" stop-color="#318bba"/>
    <stop offset=".275862" stop-color="#177ac2"/>
    <stop offset="1" stop-color="#9b59b6"/>
  </linearGradient>
  <radialGradient id="j" cx="0" cy="0" gradientTransform="matrix(24 0 0 21 32 44)" gradientUnits="userSpaceOnUse" r="1" xlink:href="#d"/>
  <radialGradient id="k" cx="0" cy="0" gradientTransform="matrix(15.999994 27.999968 -27.783775 15.876455 14 16)" gradientUnits="userSpaceOnUse" r="1">
    <stop offset="0" stop-opacity=".251"/>
    <stop offset=".395914" stop-opacity=".15"/>
    <stop offset="1" stop-opacity=".05"/>
  </radialGradient>
  <linearGradient id="l" gradientUnits="userSpaceOnUse" x1="46" x2="32" y1="50" y2="20">
    <stop offset="0" stop-color="#9b59b6"/>
    <stop offset="1" stop-color="#9b59b6" stop-opacity="0"/>
  </linearGradient>
  <linearGradient id="m" gradientUnits="userSpaceOnUse" x1="28" x2="30" y1="23" y2="31">
    <stop offset="0" stop-color="#11d116"/>
    <stop offset="1" stop-color="#11d116" stop-opacity="0"/>
  </linearGradient>
  <path d="m40 4h-32c-2.2091 0-4 1.7909-4 4v32c0 2.2091 1.7909 4 4 4h32c2.2091 0 4-1.7909 4-4v-32c0-2.2091-1.7909-4-4-4z" fill="url(#a)"/>
  <path d="m14 4v7.4375c0 .3116.223.5625.5.5625s.5-.2509.5-.5625v-7.4375z" fill="#194d6f"/>
  <path d="m10.7148 6.0098c-.9598.0689-1.8627.4815-2.5429 1.1621-1.5617 1.562-1.5617 4.0942 0 5.6562l2.8281 2.8281 7.6563-3.6562-4.8282-4.8281c-.8201-.8205-1.9561-1.2445-3.1133-1.1621z" fill="url(#b)"/>
  <path d="m12 7c-1.2188.0313-2 .3307-2.8281 1.1719-.8016 1.0701-1.1591 1.979-1.1719 3.1406 0 .6579.446 1.1875 1 1.1875.1425 0 .2779-.0363.4004-.0996l.0137.0137c0-.0071 0-.0144 0-.0215.3459-.1865.5859-.5981.5859-1.0801 0-.9404.1627-1.6016.5893-2.1247.7501-.7502 1.4107-1.1879 2.4105-1.1879 2.0002 0 2.4923.8358 3.2424 1.5859l-1.4141-1.4141c-.7501-.7502-1.7672-1.1719-2.8281-1.1719z" fill="url(#c)"/>
  <path d="m10.7148 6.0098c-.9598.0689-1.8627.4815-2.5429 1.1621-1.5617 1.562-1.5617 4.0942 0 5.6562l2.8281 2.8281 7.6563-3.6562-4.8282-4.8281c-.8201-.8205-1.9561-1.2445-3.1133-1.1621z" fill="url(#e)" opacity=".35"/>
  <path d="m19.8691 9.5391c-.0346.0006-.0691.0036-.1035.0078l-5.7656 1.0781c-1.2447.1875-2.2399 1.1418-2.4922 2.375h-.0156l-1.334 5.2461c-.0175.0736-.0268.1489-.0273.2246 0 .5523.4477 1 1 1 .066-.0016.131-.0038.1953-.0156l5.7402-1.4336c1.0012-.2961 1.7901-1.0913 2.0606-2.0996l1.7109-5.1407c.0204-.0789.0306-.1605.0312-.2421 0-.5523-.4477-1-1-1z" fill="url(#f)"/>
  <path d="m19.8691 9.5391c-.0346.0006-.0691.0036-.1035.0078l-5.7656 1.0781c-1.2447.1875-2.2399 1.1418-2.4922 2.375h-.0156l-1.334 5.2461c-.0175.0736-.0268.1489-.0273.2246 0 .5523.4477 1 1 1 .066-.0016.131-.0038.1953-.0156l5.7402-1.4336c1.0012-.2961 1.7901-1.0913 2.0606-2.0996l1.7109-5.1407c.0204-.0789.0306-.1605.0312-.2421 0-.5523-.4477-1-1-1z" fill="url(#g)" opacity=".5"/>
  <path d="m14.6796 16.75c1.2427 0 2.6528-1.0074 3.1498-2.25.4969-1.2426-.1076-2.25-1.3503-2.25-1.2426 0-2.6528 1.0074-3.1497 2.25-.497 1.2426.1076 2.25 1.3502 2.25z" fill="#2c3e50" opacity=".5"/>
  <path d="m14.6796 16.75c1.2427 0 2.6528-1.0074 3.1498-2.25.4969-1.2426-.1076-2.25-1.3503-2.25-1.2426 0-2.6528 1.0074-3.1497 2.25-.497 1.2426.1076 2.25 1.3502 2.25z" fill="#2c3e50" opacity=".5"/>
  <path d="m18.9844 12.1855c-.8564.0039-1.7124.0261-2.5664.0665v.002c-1.0633.0319-2.2489.746-2.9297 1.8847-2.9449 6.4339-4.4794 14.1011-4.5039 22.0468.0035 2.6432.1828 5.2604.5254 7.8145h30.4902c2.2091 0 4-1.7909 4-4v-21.873c-6.6845-3.6967-15.4327-5.9415-25.0156-5.9415z" fill="url(#h)"/>
  <path d="m8 4v7.4375c0 .3116.223.5625.5.5625s.5-.2509.5-.5625v-7.4375z" fill="url(#i)"/>
  <path d="m40 4h-32c-2.2091 0-4 1.7909-4 4v32c0 2.2091 1.7909 4 4 4h32c2.2091 0 4-1.7909 4-4v-32c0-2.2091-1.7909-4-4-4z" fill="url(#j)" opacity=".3"/>
  <path d="m13.5 23-.6992 2.5996 4.1992 4.1992v3.8457l-2 1.3555 9 9h16c2.216 0 4-1.784 4-4v-14l-3-3-4.2676.5176 1.1328 1.1328-.8007 1.2949-2.4278-2.4277-4.6367.2207 3.8203 3.8203.7461 1.2051-1.6445 2.6582-3.4219-3.4219h-2l-5-5z" fill="url(#k)"/>
  <path d="m13.5 23-.6992 2.5996 1.414 1.4141h1.0489l.541-1.3496h1.1953v7.9804l-2 1.3555 1.4141 1.4141h6v-1l-1.4141-1.4141c-.1961-.0012-.3915-.013-.5859-.0332v-8.3027h1.8007l1.3497 1.3496h1.0488l-.6992-2.5996-1.4141-1.4141zm16.8691 0-.3691.7383 1.4141 1.414c.383.0845.7589.1984 1.125.3379l2.0273 3.2735-3.0059 4.8554-1.4589 1.3809 1.414 1.4141h3.75l.5176-.5176-1.1562-1.1563 1.8203-2.9394 1.3711 2.2148-.9375.9844 1.414 1.4141h3.75l.3692-.7383-1.4141-1.4141c-.2976-.0656-.5909-.1492-.8789-.248l-2.1465-3.4668 2.918-4.7188c.6002-.3039 1.2348-.5312 1.8906-.6758l-.3691-.7382-1.4141-1.4141-4.2676.5176 1.1328 1.1328-1.7695 2.8613-1.3359-2.1562c.4377-.1178.869-.2574 1.291-.4239l-1.4141-1.414zm-.8691 5-8.2031.7539 1.7031 1.7031v8.1524l-1.5605 1.3906 1.414 1.4141h8.6563c.119-1.0281.3703-2.0364.748-3l-1.414-1.4141h-1.0782c-.3155.5965-.5801 1.2184-.791 1.8594-.4872-.0651-.9785-.1007-1.4707-.1055l-.0039-.0039h-1.0859v-3.0859l1 .002c.1568.0053.3081.0351.4511.0859l.9121.9121h.6368v-3.25l-1.4141-1.4141h-.541c-.1697.4799-.5668.8318-1.0449.9531v-2.289h2v-.0039c.255-.0025.5095-.0145.7636-.0332l1.3868 1.3867h1.0488l-.6992-2.5996z" opacity=".08"/>
  <path d="m13.5 23-.6992 2.5996h1.0488l.541-1.3496h2.6094v9.3945c-.6416.2313-1.318.3515-2 .3555v1h6v-1c-.682-.004-1.3584-.1242-2-.3555v-9.3945h2.6094l.541 1.3496h1.0488l-.6992-2.5996zm16.8691 0-.3691.7383c.6464.1425 1.2726.3647 1.8652.6621l2.7012 4.3633-3.0059 4.8554c-.5816.288-1.1952.5031-1.8281.6426l.3692.7383h3.75l.5175-.5176c-.5102-.2013-1.0339-.3662-1.5664-.4961l2.5-4.0332 2.5157 4.0625c-.4941.1255-.9806.2796-1.4551.4668l.5176.5176h3.75l.3691-.7383c-.5481-.1209-1.0826-.2986-1.5938-.5312l-2.8457-4.5977 2.918-4.7187c.6002-.3039 1.2349-.5312 1.8906-.6758l-.3691-.7383h-3.75l-.5176.5176c.4989.1968 1.011.3577 1.5313.4863l-2.4375 3.9434-2.4805-4.0059c.4377-.1178.869-.2573 1.291-.4238l-.5176-.5176zm-8.9296 5-.1426.7539c.6208.0332 1.2159.2584 1.7031.6445v9.211c-.4849.3802-1.0783.606-1.7031.6367l.1426.7539h8.6562c.1189-1.0281.3704-2.0364.7481-3h-1.0782c-.3155.5965-.5801 1.2184-.791 1.8594-.4885-.0652-.9811-.1009-1.4746-.1055v-.0039h-2.5v-4.5l1 .002c.6149.0207 1.1571.4147 1.3633.998h.6367v-3.25h-.541c-.2112.5972-.7748.9975-1.4082 1h-1.0508v-3.75h2v-.0039c.5492-.0054 1.0973-.0484 1.6406-.1289l.5098 1.4824h1.0488l-.6992-2.5996z" fill="#fcfcfc"/>
  <path d="m13.5 23-.6992 2.5996h1.0488l.541-1.3496h2.6094v9.3945c-.6416.2313-1.318.3515-2 .3555v1h6v-1c-.682-.004-1.3584-.1242-2-.3555v-9.3945h2.6094l.541 1.3496h1.0488l-.6992-2.5996zm16.8691 0-.3691.7383c.6464.1425 1.2726.3647 1.8652.6621l2.7012 4.3633-3.0059 4.8554c-.5816.288-1.1952.5031-1.8281.6426l.3692.7383h3.75l.5175-.5176c-.5102-.2013-1.0339-.3662-1.5664-.4961l2.5-4.0332 2.5157 4.0625c-.4941.1255-.9806.2796-1.4551.4668l.5176.5176h3.75l.3691-.7383c-.5481-.1209-1.0826-.2986-1.5938-.5312l-2.8457-4.5977 2.918-4.7187c.6002-.3039 1.2349-.5312 1.8906-.6758l-.3691-.7383h-3.75l-.5176.5176c.4989.1968 1.011.3577 1.5313.4863l-2.4375 3.9434-2.4805-4.0059c.4377-.1178.869-.2573 1.291-.4238l-.5176-.5176zm-8.9296 5-.1426.7539c.6208.0332 1.2159.2584 1.7031.6445v9.211c-.4849.3802-1.0783.606-1.7031.6367l.1426.7539h8.6562c.1189-1.0281.3704-2.0364.7481-3h-1.0782c-.3155.5965-.5801 1.2184-.791 1.8594-.4885-.0652-.9811-.1009-1.4746-.1055v-.0039h-2.5v-4.5l1 .002c.6149.0207 1.1571.4147 1.3633.998h.6367v-3.25h-.541c-.2112.5972-.7748.9975-1.4082 1h-1.0508v-3.75h2v-.0039c.5492-.0054 1.0973-.0484 1.6406-.1289l.5098 1.4824h1.0488l-.6992-2.5996z" fill="url(#l)" opacity=".4"/>
  <path d="m13.5 23-.6992 2.5996h1.0488l.541-1.3496h2.6094v9.3945c-.6416.2313-1.318.3515-2 .3555v1h6v-1c-.682-.004-1.3584-.1242-2-.3555v-9.3945h2.6094l.541 1.3496h1.0488l-.6992-2.5996zm16.8691 0-.3691.7383c.6464.1425 1.2726.3647 1.8652.6621l2.7012 4.3633-3.0059 4.8554c-.5816.288-1.1952.5031-1.8281.6426l.3692.7383h3.75l.5175-.5176c-.5102-.2013-1.0339-.3662-1.5664-.4961l2.5-4.0332 2.5157 4.0625c-.4941.1255-.9806.2796-1.4551.4668l.5176.5176h3.75l.3691-.7383c-.5481-.1209-1.0826-.2986-1.5938-.5312l-2.8457-4.5977 2.918-4.7187c.6002-.3039 1.2349-.5312 1.8906-.6758l-.3691-.7383h-3.75l-.5176.5176c.4989.1968 1.011.3577 1.5313.4863l-2.4375 3.9434-2.4805-4.0059c.4377-.1178.869-.2573 1.291-.4238l-.5176-.5176zm-8.9296 5-.1426.7539c.6208.0332 1.2159.2584 1.7031.6445v9.211c-.4849.3802-1.0783.606-1.7031.6367l.1426.7539h8.6562c.1189-1.0281.3704-2.0364.7481-3h-1.0782c-.3155.5965-.5801 1.2184-.791 1.8594-.4885-.0652-.9811-.1009-1.4746-.1055v-.0039h-2.5v-4.5l1 .002c.6149.0207 1.1571.4147 1.3633.998h.6367v-3.25h-.541c-.2112.5972-.7748.9975-1.4082 1h-1.0508v-3.75h2v-.0039c.5492-.0054 1.0973-.0484 1.6406-.1289l.5098 1.4824h1.0488l-.6992-2.5996z" fill="url(#m)" opacity=".05"/>
  <path d="m33.8652 10-1.1074 2h-1.7578v1h1v2.4355l2.4551-4.4355h3.5449v-1zm-6.8652 2v1h3v-1zm10 1c-.8261 0-2 .5176-2 2.5 0 1.5365.9715 2.4689 2 2.5.7054 0 1.4791-.2574 1.835-.806l-.7731-.5122c-.3461.3718-.74.3806-1.0301.3806-.4972 0-1.0182-.4167-1.0181-1.0624l2.9863-.15v-.85c0-1.108-.892-2-2-2zm-10 1v1h3v-1zm9.9955-.0924c.7711-.0208 1.0391.4913 1.0646 1.0924l-2.095-.0027c.0297-.5246.2226-1.068 1.0304-1.0897zm-7.9955 2.0924v1h1v2h1v-2h1v2h1v-2h1v-1z" fill="#fcfcfc" opacity=".15"/>
  <path d="m4 39v1c0 2.216 1.784 4 4 4h32c2.216 0 4-1.784 4-4v-1c0 2.216-1.784 4-4 4h-32c-2.216 0-4-1.784-4-4z" opacity=".12"/>
  <path d="m4 9v-1c0-2.216 1.784-4 4-4h32c2.216 0 4 1.784 4 4v1c0-2.216-1.784-4-4-4h-32c-2.216 0-4 1.784-4 4z" fill="#fff" opacity=".12"/>
  <path d="m16.2246 9.5684-2.9746.5566c-1.2447.1875-2.2399 1.1418-2.4922 2.375h-.0156l-.5879 2.3105.6992.6993.6387-2.5098h.0156c.2523-1.2332 1.2475-2.1875 2.4922-2.375l2.7637-.5176z" fill="#000018" opacity=".03"/>
  <path d="m16.498 9.8418-2.8476.5332c-1.2447.1875-2.2399 1.1418-2.4922 2.375h-.0156l-.6172 2.4316.3281.3282.6387-2.5098h.0156c.2523-1.2332 1.2475-2.1875 2.4922-2.375l2.7637-.5176z" fill="#000016" opacity=".03"/>
</svg>
