<?xml version="1.0" encoding="UTF-8" standalone="no"?>

<!-- Created with Inkscape (http://www.inkscape.org/) -->
<svg width="48" version="1.1" xmlns="http://www.w3.org/2000/svg" height="48" xmlns:xlink="http://www.w3.org/1999/xlink" xmlns:inkscape="http://www.inkscape.org/namespaces/inkscape">
 <defs id="defs5455">
  <linearGradient inkscape:collect="always" id="linearGradient4303">
   <stop style="stop-color:#c6cdd1" id="stop4305"/>
   <stop offset="1" style="stop-color:#e0e5e7" id="stop4307"/>
  </linearGradient>
  <linearGradient inkscape:collect="always" xlink:href="#linearGradient4159" id="linearGradient4403" y1="543.79797" y2="515.79797" x2="0" gradientUnits="userSpaceOnUse" gradientTransform="matrix(1.125 0 0 1 -51.07144 0)"/>
  <linearGradient inkscape:collect="always" xlink:href="#linearGradient4303" id="linearGradient4199" y1="525.79797" y2="503.798" x2="0" gradientUnits="userSpaceOnUse"/>
  <linearGradient inkscape:collect="always" id="linearGradient4159">
   <stop style="stop-color:#1d1e1e" id="stop4161"/>
   <stop offset="1" style="stop-color:#44484c" id="stop4163"/>
  </linearGradient>
  <linearGradient inkscape:collect="always" xlink:href="#linearGradient4410" id="linearGradient4346" y1="14" x1="5" y2="36" x2="27" gradientUnits="userSpaceOnUse"/>
  <linearGradient inkscape:collect="always" id="linearGradient4410">
   <stop style="stop-color:#383e51" id="stop4412"/>
   <stop offset="1" style="stop-color:#655c6f;stop-opacity:0" id="stop4414"/>
  </linearGradient>
  <linearGradient inkscape:collect="always" id="linearGradient4143">
   <stop style="stop-color:#197cf1" id="stop4145"/>
   <stop offset="1" style="stop-color:#20bcfa" id="stop4147"/>
  </linearGradient>
  <linearGradient inkscape:collect="always" xlink:href="#linearGradient4143" id="linearGradient4317" y1="543.79797" y2="515.79797" gradientUnits="userSpaceOnUse" x2="0" gradientTransform="matrix(1.16129 0 0 1 -65.38255 0)"/>
 </defs>
 <metadata id="metadata5458"/>
 <g inkscape:label="Capa 1" inkscape:groupmode="layer" id="layer1" transform="matrix(1 0 0 1 -384.57143 -499.798)">
  <rect width="30.999989" x="392.57144" y="525.79797" height="18" style="stroke-opacity:0.550265;fill:url(#linearGradient4403);stroke-width:2.8" id="rect4319"/>
  <rect width="32" x="392.57144" y="542.79797" height="1" style="stroke-opacity:0.550265;fill:#202224;stroke-width:2.8" id="rect4492"/>
  <rect width="26" x="395.57144" y="503.798" height="21.999996" style="stroke-opacity:0.550265;fill:url(#linearGradient4199);stroke-width:2.8" id="rect4191"/>
  <path style="fill:url(#linearGradient4346);opacity:0.2;fill-rule:evenodd" id="path4329" d="M 22 11 L 15 18 L 22.917969 26 L 39 42.248047 L 39 26 L 37 26 L 37 15 L 33 11 L 26 11 L 26 15 L 22 11 z " transform="matrix(1 0 0 1 384.57143 499.798)"/>
  <rect width="7" x="399.57144" y="510.798" height="7" style="stroke-opacity:0.550265;fill:#202224;stroke-width:2.8" id="rect4259"/>
  <rect width="7" x="410.5715" y="510.798" height="7" style="stroke-opacity:0.550265;fill:#202224;stroke-width:2.8" id="rect4261"/>
  <rect width="3" x="401.57144" y="510.798" height="7" style="stroke-opacity:0.550265;fill:#fdbc4a;stroke-width:2.8" id="rect4263"/>
  <rect width="3" x="412.5715" y="510.798" height="7" style="stroke-opacity:0.550265;fill:#fdbc4a;stroke-width:2.8" id="rect4327"/>
  <rect width="31.999992" x="392.57144" y="525.79797" height="18" style="stroke-opacity:0.550265;fill:url(#linearGradient4317);stroke-width:2.8" id="rect4180"/>
  <path style="fill:#085ba7;fill-rule:evenodd" id="path4343" d="M 22.5 32 A 0.5 0.5 0 0 0 22 32.5 A 0.5 0.5 0 0 0 22.5 33 A 0.5 0.5 0 0 0 23 32.5 A 0.5 0.5 0 0 0 22.5 32 z M 25 32 L 24 33 L 25 34 L 24 35 L 25 36 L 27 34 L 25 32 z M 21.5 34.099609 A 0.5 0.5 0 0 0 21 34.599609 A 0.5 0.5 0 0 0 21.5 35.099609 A 0.5 0.5 0 0 0 22 34.599609 A 0.5 0.5 0 0 0 21.5 34.099609 z M 23 36 A 0.99998701 0.99998701 0 0 0 22 37 A 0.99998701 0.99998701 0 0 0 23 38 A 0.99998701 0.99998701 0 0 0 24 37 A 0.99998701 0.99998701 0 0 0 23 36 z " transform="matrix(1 0 0 1 384.57143 499.798)"/>
 </g>
</svg>
