<?xml version="1.0" encoding="UTF-8"?>
<svg fill="none" version="1.1" viewBox="0 0 48 48" xmlns="http://www.w3.org/2000/svg" xmlns:xlink="http://www.w3.org/1999/xlink">
 <path d="m40 4h-32c-2.2091 0-4 1.7909-4 4v32c0 2.2091 1.7909 4 4 4h32c2.2091 0 4-1.7909 4-4v-32c0-2.2091-1.7909-4-4-4z" fill="url(#paint0_linear_751_133)"/>
 <path d="m40 4h-32c-2.2091 0-4 1.7909-4 4v32c0 2.2091 1.7909 4 4 4h32c2.2091 0 4-1.7909 4-4v-32c0-2.2091-1.7909-4-4-4z" fill="url(#radialGradient11141)"/>
 <g clip-rule="evenodd" fill-rule="evenodd">
  <path d="m13.598 18.082c-0.226 0.0096-0.45922 0.02959-0.69922 0.05859-5.3434 0.6422-5.1687 6.5402-8.7559 9.9023l-0.2207 12.432 40.078 0.015625v-10.58c-5.414-3.6191-12.026 1.6424-17.928-0.6893-5.145-2.597-5.4674-10.875-11.818-11.139-0.2115-9e-3 -0.43025-0.0096-0.65625 0z" fill="#000" fill-opacity=".20454"/>
  <path d="m13 18c-5.1231 0.2988-5.3086 4.8471-9 10v12.66l0.52411 1.3207 2.7341 1.0246 35.245-0.28476 1.1397-1.0984 0.35655-1.0578v-9.4434s-3.0434-3.1211-7.3949-3.1211-6.9559 2.6004-10.33 2.586c-6.1188-0.0262-6.1861-12.999-13.275-12.586z" fill="url(#paint1_linear_751_133)"/>
  <path d="m13 18c-5.1231 0.2988-5.3086 4.8471-9 10-0.68655 22.814 23.726 14.728 39.579 15.182l0.42105-10.182s-3.0434-5-7.3949-5-6.9559 2.6004-10.33 2.586c-6.1188-0.0262-6.1861-12.999-13.275-12.586z" fill="url(#paint2_radial_751_133)" fill-opacity=".3"/>
  <path d="m13 18c-5.1231 0.2988-5.3086 4.8471-9 10 3.6914-5.1529 3.7988-8.8262 8.9219-9.125 7.0893-0.4134 7.2347 11.685 13.354 11.711-6.1188-0.0262-6.1861-12.999-13.275-12.586zm13.275 12.586c3.3738 0.0144 5.8028-1.9277 10.154-1.9277 4.3515 0 7.5703 2.4629 7.5703 2.4629s-3.043-3.1211-7.3945-3.1211c-4.3515 0-6.9563 2.6003-10.33 2.5859zm17.725 0.53516-0.072266 9.6602 0.072266-0.2168z" fill="#fff" fill-opacity=".56818"/>
 </g>
 <circle cx="33.382" cy="15.378" r="6.2989" fill="none" stroke="#000" stroke-linecap="round" stroke-linejoin="round" stroke-opacity=".5" stroke-width="1.6773" style="paint-order:stroke fill markers"/>
 <path d="m8.6961 14.854v2.7608h1.3804v-1.3804h1.3804v-1.3804zm5.5216 0v1.3804h1.3804v1.3804h1.3804v-2.7608zm-5.5216 5.5216v2.7608h2.7608v-1.3804h-1.3804v-1.3804zm6.902 0v1.3804h-1.3804v1.3804h2.7608v-2.7608z" fill="#fff"/>
 <mask id="path-10-inside-1_751_133" fill="white">
  <path d="m4 8c0-2.2091 1.7909-4 4-4h32c2.2091 0 4 1.7909 4 4v32c0 2.2091-1.7909 4-4 4h-32c-2.2091 0-4-1.7909-4-4z"/>
 </mask>
 <path transform="matrix(1 0 0 .94034 0 2.7145)" d="m44 40c0 3.0376-2.6668 3.9048-4.0713 3.9048h-31.79c-1.4357 0-4.1392-0.86723-4.1392-3.9048 0 1.3807 1.7909 2.5 4 2.5h32c2.2091 0 4-1.1193 4-2.5zm-40 4c-4-46.887-4-46.887 0 0zm40 0c-44-46.887-44-46.887 0 0z" fill="#1c4b29" mask="url(#path-10-inside-1_751_133)"/>
 <defs>
  <linearGradient id="paint0_linear_751_133" x1="-384.57" x2="-384.57" y1="44" y2="4" gradientUnits="userSpaceOnUse">
   <stop stop-color="#2A2C2F" offset="0"/>
   <stop stop-color="#424649" offset="1"/>
  </linearGradient>
  <linearGradient id="paint1_linear_751_133" x1="25.339" x2="15.48" y1="51.359" y2="15.34" gradientUnits="userSpaceOnUse">
   <stop stop-color="#218b46" offset="0"/>
   <stop stop-color="#3ba166" offset=".1984"/>
   <stop stop-color="#00ebb2" offset=".60646"/>
   <stop stop-color="#00e2e3" offset=".94023"/>
  </linearGradient>
  <radialGradient id="paint2_radial_751_133" cx="0" cy="0" r="1" gradientTransform="translate(25.827 24.509) rotate(64.231) scale(10.779 16.583)" gradientUnits="userSpaceOnUse">
   <stop stop-color="#0085ff" offset=".58845"/>
   <stop stop-opacity="0" offset="1"/>
  </radialGradient>
  <linearGradient id="linearGradient6527" x1="25.932" x2="39.998" y1="10.744" y2="18.408" gradientTransform="matrix(1.1512 0 0 1.1512 -3.6086 -3.1168)" gradientUnits="userSpaceOnUse">
   <stop stop-color="#00b3ff" offset="0"/>
   <stop stop-color="#0fd" offset=".50834"/>
   <stop stop-color="#1aa374" offset=".99664"/>
  </linearGradient>
  <radialGradient id="radialGradient11141" cx="36.2" cy="26.576" r="20" gradientTransform="matrix(.3543 -1.0932 .80248 .26008 4.1784 66.159)" gradientUnits="userSpaceOnUse">
   <stop stop-opacity=".57" offset=".018905"/>
   <stop stop-color="#424649" stop-opacity="0" offset=".72411"/>
  </radialGradient>
 </defs>
 <path d="m39.68 15.378a6.2989 6.2989 0 0 1-5.1 6.1837 6.2989 6.2989 0 0 1-7.0414-3.8297 6.2989 6.2989 0 0 1 2.4195-7.6416" fill="none" stroke="url(#linearGradient6527)" stroke-linecap="round" stroke-linejoin="round" stroke-width="1.6773" style="paint-order:stroke fill markers"/>
</svg>
