<?xml version="1.0" encoding="UTF-8" standalone="no"?>
<svg
   id="svg58"
   fill="none"
   version="1.1"
   viewBox="0 0 48 48"
   sodipodi:docname="utilities-system-monitor.svg"
   inkscape:version="1.3.2 (091e20ef0f, 2023-11-25)"
   xmlns:inkscape="http://www.inkscape.org/namespaces/inkscape"
   xmlns:sodipodi="http://sodipodi.sourceforge.net/DTD/sodipodi-0.dtd"
   xmlns:xlink="http://www.w3.org/1999/xlink"
   xmlns="http://www.w3.org/2000/svg"
   xmlns:svg="http://www.w3.org/2000/svg">
  <sodipodi:namedview
     id="namedview28"
     pagecolor="#ffffff"
     bordercolor="#666666"
     borderopacity="1.0"
     inkscape:showpageshadow="2"
     inkscape:pageopacity="0.0"
     inkscape:pagecheckerboard="0"
     inkscape:deskcolor="#d1d1d1"
     showgrid="false"
     inkscape:zoom="16"
     inkscape:cx="19.46875"
     inkscape:cy="24.28125"
     inkscape:window-width="1920"
     inkscape:window-height="1012"
     inkscape:window-x="0"
     inkscape:window-y="0"
     inkscape:window-maximized="1"
     inkscape:current-layer="svg58" />
  <path
     id="path4"
     d="M 40,4 H 8 C 5.79086,4 4,5.79086 4,8 v 32 c 0,2.2091 1.79086,4 4,4 h 32 c 2.2091,0 4,-1.7909 4,-4 V 8 C 44,5.79086 42.2091,4 40,4 Z"
     fill="url(#paint0_linear_751_133)"
     style="display:inline"
     inkscape:label="base" />
  <path
     id="path11134"
     d="M 40,4 H 8 C 5.79086,4 4,5.79086 4,8 v 32 c 0,2.2091 1.79086,4 4,4 h 32 c 2.2091,0 4,-1.7909 4,-4 V 8 C 44,5.79086 42.2091,4 40,4 Z"
     fill="url(#paint0_linear_751_133)"
     style="display:inline;fill:url(#radialGradient11141);fill-opacity:1"
     inkscape:label="light" />
  <g
     id="g428"
     clip-rule="evenodd"
     fill-rule="evenodd"
     style="display:inline">
    <path
       id="path6"
       style="opacity:1;fill:#000000;fill-opacity:0.204545"
       inkscape:label="shadow"
       d="m 13.597656,18.082031 c -0.226,0.0096 -0.459219,0.02959 -0.699218,0.05859 -5.3433657,0.642199 -5.1686734,6.540247 -8.7558599,9.902344 L 3.921875,40.474609 44,40.490234 V 29.910001 C 38.585954,26.290858 31.974169,31.552449 26.072266,29.220703 20.927271,26.623706 20.6049,18.346031 14.253906,18.082031 c -0.2115,-0.009 -0.43025,-0.0096 -0.65625,0 z"
       sodipodi:nodetypes="scccccccs" />
    <path
       id="path10"
       d="M 13,18 C 7.87692,18.2988 7.69139,22.8471 4,28 V 40.660156 L 4.5241112,41.980815 7.2582357,43.005418 42.503719,42.720662 43.643452,41.622293 44,40.5645 V 31.121094 C 44,31.121094 40.9566,28 36.6051,28 32.2536,28 29.6492,30.6004 26.2754,30.586 20.1566,30.5598 20.0893,17.5866 13,18 Z"
       fill="url(#paint1_linear_751_133)"
       style="display:inline;fill:url(#paint1_linear_751_133)"
       sodipodi:nodetypes="cccccccccscc" />
    <path
       id="path12"
       d="M 13,18 C 7.87692,18.2988 7.69139,22.8471 4,28 3.3134491,50.813528 27.726328,42.728075 43.578947,43.182186 L 44,33 c 0,0 -3.0434,-5 -7.3949,-5 -4.3515,0 -6.9559,2.6004 -10.3297,2.586 C 20.1566,30.5598 20.0893,17.5866 13,18 Z"
       fill="url(#paint2_radial_751_133)"
       fill-opacity="0.3"
       style="display:inline;fill:url(#paint2_radial_751_133)"
       sodipodi:nodetypes="ccccscc" />
    <path
       id="path10-5"
       style="display:inline;fill:#ffffff;fill-opacity:0.568182"
       d="M 13,18 C 7.8769251,18.2988 7.6913863,22.847105 4,28 7.6913863,22.847105 7.7988001,19.1738 12.921875,18.875 20.011168,18.4616 20.156597,30.559738 26.275391,30.585938 20.156597,30.559738 20.089293,17.5866 13,18 Z m 13.275391,12.585938 c 3.373796,0.0144 5.802801,-1.927735 10.154297,-1.927735 C 40.781183,28.658203 44,31.121094 44,31.121094 44,31.121094 40.956964,28 36.605469,28 32.253973,28 29.649187,30.600337 26.275391,30.585938 Z M 44,31.121094 43.927734,40.78125 44,40.564453 Z"
       inkscape:label="highlight" />
  </g>
  <circle
     style="fill:none;stroke:#000000;stroke-width:1.67731;stroke-linecap:round;stroke-linejoin:round;stroke-dasharray:none;stroke-opacity:0.5;paint-order:stroke fill markers"
     id="path11110"
     cx="33.381523"
     cy="15.37825"
     r="6.2988968" />
  <path
     id="path14"
     d="m 8.69612,14.85361 v 2.7608 h 1.38041 v -1.3804 h 1.380399 v -1.3804 z m 5.521609,0 v 1.3804 h 1.3804 v 1.3804 h 1.3804 v -2.7608 z m -5.521609,5.5216 v 2.7608 h 2.760809 v -1.3804 H 10.07653 v -1.3804 z m 6.902009,0 v 1.3804 h -1.3804 v 1.3804 h 2.7608 v -2.7608 z"
     fill="#ffffff" />
  <mask
     id="path-10-inside-1_751_133"
     fill="white">
    <path
       id="path24"
       d="M 4,8 C 4,5.79086 5.79086,4 8,4 h 32 c 2.2091,0 4,1.79086 4,4 v 32 c 0,2.2091 -1.7909,4 -4,4 H 8 C 5.79086,44 4,42.2091 4,40 Z"
       sodipodi:nodetypes="sssssssss" />
  </mask>
  <path
     id="path27"
     transform="matrix(1,0,0,0.94034091,0,2.7144886)"
     d="m 44,40 c 0,3.0376 -2.666756,3.904834 -4.071271,3.904834 H 8.1391848 C 6.7034698,43.904834 4,43.0376 4,40 c 0,1.3807 1.79086,2.5 4,2.5 h 32 c 2.2091,0 4,-1.1193 4,-2.5 z M 4,44 C 0,-2.8867069 0,-2.8867069 4,44 Z m 40,0 C 0,-2.8867069 0,-2.8867069 44,44 Z"
     mask="url(#path-10-inside-1_751_133)"
     style="fill:#1c4b29;fill-opacity:1"
     sodipodi:nodetypes="csscssccccc" />
  <defs
     id="defs56">
    <linearGradient
       inkscape:collect="always"
       id="linearGradient13440">
      <stop
         style="stop-color:#00b3ff;stop-opacity:1;"
         offset="0"
         id="stop13434" />
      <stop
         style="stop-color:#00ffdd;stop-opacity:1;"
         offset="0.50834024"
         id="stop13436" />
      <stop
         style="stop-color:#1aa374;stop-opacity:1;"
         offset="0.99664432"
         id="stop13438" />
    </linearGradient>
    <linearGradient
       id="linearGradient11120"
       x1="-384.57"
       x2="-384.57"
       y1="44"
       y2="3.99999"
       gradientUnits="userSpaceOnUse">
      <stop
         id="stop11136"
         stop-color="#2A2C2F"
         offset="0.34546798"
         style="stop-color:#2de0ff;stop-opacity:0.19;" />
      <stop
         id="stop11138"
         stop-color="#424649"
         offset="0.9375639"
         style="stop-color:#424649;stop-opacity:0;" />
    </linearGradient>
    <linearGradient
       id="linearGradient11120-1"
       x1="-384.57"
       x2="-384.57"
       y1="44"
       y2="3.99999"
       gradientUnits="userSpaceOnUse">
      <stop
         id="stop11116"
         offset="0.01890549"
         style="stop-color:#000000;stop-opacity:0.56999999;" />
      <stop
         id="stop11118"
         offset="0.72411358"
         style="stop-color:#424649;stop-opacity:0;"
         stop-color="#424649" />
    </linearGradient>
    <linearGradient
       id="paint0_linear_751_133"
       x1="-384.57"
       x2="-384.57"
       y1="44"
       y2="3.99999"
       gradientUnits="userSpaceOnUse">
      <stop
         id="stop31"
         offset="0"
         stop-color="#2A2C2F" />
      <stop
         id="stop33"
         offset="1"
         stop-color="#424649" />
    </linearGradient>
    <linearGradient
       id="paint1_linear_751_133"
       x1="25.339266"
       x2="15.48"
       y1="51.358757"
       y2="15.3399"
       gradientUnits="userSpaceOnUse">
      <stop
         id="stop36"
         offset="0"
         style="stop-color:#218b46;stop-opacity:1;" />
      <stop
         id="stop5669"
         offset="0.19839925"
         style="stop-color:#3ba166;stop-opacity:1;" />
      <stop
         id="stop1038"
         offset="0.60646266"
         style="stop-color:#00ebb2;stop-opacity:1;" />
      <stop
         id="stop38"
         offset="0.94022858"
         style="stop-color:#00e2e3;stop-opacity:1;" />
    </linearGradient>
    <radialGradient
       id="paint2_radial_751_133"
       cx="0"
       cy="0"
       r="1"
       gradientTransform="translate(25.8267 24.5091) rotate(64.2307) scale(10.7792 16.5834)"
       gradientUnits="userSpaceOnUse">
      <stop
         id="stop41"
         offset="0.58844554"
         style="stop-color:#0085ff;stop-opacity:1;" />
      <stop
         id="stop43"
         stop-opacity="0"
         offset="1" />
    </radialGradient>
    <linearGradient
       id="paint4_linear_751_133"
       x1="23.2538"
       x2="38.3978"
       y1="9.19136"
       y2="28.6765"
       gradientUnits="userSpaceOnUse">
      <stop
         id="stop51"
         offset="0"
         stop-color="#3EF8FF" />
      <stop
         id="stop53"
         offset="1"
         stop-color="#AFE1C2" />
    </linearGradient>
    <linearGradient
       inkscape:collect="always"
       xlink:href="#linearGradient13440"
       id="linearGradient6527"
       x1="25.932159"
       y1="10.744154"
       x2="39.99802"
       y2="18.408346"
       gradientUnits="userSpaceOnUse"
       gradientTransform="matrix(1.1512084,0,0,1.1512084,-3.6085566,-3.1167892)" />
    <radialGradient
       inkscape:collect="always"
       xlink:href="#linearGradient11120-1"
       id="radialGradient11141"
       gradientUnits="userSpaceOnUse"
       cx="36.199566"
       cy="26.575853"
       fx="36.199566"
       fy="26.575853"
       r="20"
       gradientTransform="matrix(0.35430143,-1.093214,0.80248283,0.26007793,4.1784178,66.158598)" />
    <linearGradient
       id="paint1_linear_751_133-3"
       x1="25.339266"
       x2="15.48"
       y1="51.358757"
       y2="15.3399"
       gradientUnits="userSpaceOnUse">
      <stop
         id="stop36-6"
         stop-color="#80D271"
         offset="0"
         style="stop-color:#218b46;stop-opacity:1;" />
      <stop
         id="stop5669-7"
         stop-color="#80D271"
         offset="0.19839925"
         style="stop-color:#3ba166;stop-opacity:1;" />
      <stop
         id="stop1038-5"
         stop-color="#80D271"
         offset="0.61097836"
         style="stop-color:#00ebb2;stop-opacity:1;" />
      <stop
         id="stop38-3"
         stop-color="#48BABA"
         offset="0.94022858"
         style="stop-color:#00e2e3;stop-opacity:1;" />
    </linearGradient>
  </defs>
  <path
     style="fill:none;stroke:url(#linearGradient6527);stroke-width:1.67731;stroke-linecap:round;stroke-linejoin:round;stroke-dasharray:none;paint-order:stroke fill markers"
     id="path1036"
     sodipodi:type="arc"
     sodipodi:cx="33.381523"
     sodipodi:cy="15.37825"
     sodipodi:rx="6.2988968"
     sodipodi:ry="6.2988968"
     sodipodi:start="0"
     sodipodi:end="4.1378674"
     sodipodi:open="true"
     sodipodi:arc-type="arc"
     d="m 39.68042,15.37825 a 6.2988968,6.2988968 0 0 1 -5.099973,6.183743 6.2988968,6.2988968 0 0 1 -7.041417,-3.829731 6.2988968,6.2988968 0 0 1 2.419463,-7.641636" />
</svg>
