<svg version="1.1" viewBox="0 0 24 24" xmlns="http://www.w3.org/2000/svg">
    <style id="current-color-scheme" type="text/css">.ColorScheme-Text {
            color:#232629;
        }</style>
    <path class="ColorScheme-Text" d="m12.5 18c-3.0376 0-5.5-2.4624-5.5-5.5s2.4624-5.5 5.5-5.5 5.5 2.4624 5.5 5.5-2.4624 5.5-5.5 5.5zm0-1c2.4853 0 4.5-2.0147 4.5-4.5s-2.0147-4.5-4.5-4.5-4.5 2.0147-4.5 4.5 2.0147 4.5 4.5 4.5zm0.5-11.5c0 0.27614-0.22386 0.5-0.5 0.5s-0.5-0.22386-0.5-0.5v-3c0-0.27614 0.22386-0.5 0.5-0.5s0.5 0.22386 0.5 0.5zm0 17c0 0.27614-0.22386 0.5-0.5 0.5s-0.5-0.22386-0.5-0.5v-3c0-0.27614 0.22386-0.5 0.5-0.5s0.5 0.22386 0.5 0.5zm4.8033-14.596c-0.19526 0.19526-0.51184 0.19526-0.70711 0-0.19526-0.19526-0.19526-0.51184 0-0.70711l2.0503-2.0503c0.19526-0.19526 0.51184-0.19526 0.70711 0 0.19526 0.19526 0.19526 0.51184 0 0.70711zm-11.95 11.95c-0.19526 0.19526-0.51184 0.19526-0.70711 0-0.19526-0.19526-0.19526-0.51184 0-0.70711l2.0503-2.0503c0.19526-0.19526 0.51184-0.19526 0.70711 0 0.19526 0.19526 0.19526 0.51184 0 0.70711zm13.646-6.8536c-0.27614 0-0.5-0.22386-0.5-0.5s0.22386-0.5 0.5-0.5h3c0.27614 0 0.5 0.22386 0.5 0.5s-0.22386 0.5-0.5 0.5zm-17 0c-0.27614 0-0.5-0.22386-0.5-0.5s0.22386-0.5 0.5-0.5h3c0.27614 0 0.5 0.22386 0.5 0.5s-0.22386 0.5-0.5 0.5zm14.596 4.8033c-0.19526-0.19526-0.19526-0.51184 0-0.70711 0.19526-0.19526 0.51184-0.19526 0.70711 0l2.0503 2.0503c0.19526 0.19526 0.19526 0.51184 0 0.70711-0.19526 0.19526-0.51184 0.19526-0.70711 0zm-11.95-11.95c-0.19526-0.19526-0.19526-0.51184 0-0.70711s0.51184-0.19526 0.70711 0l2.0503 2.0503c0.19526 0.19526 0.19526 0.51184 0 0.70711-0.19526 0.19526-0.51184 0.19526-0.70711 0z" fill="currentColor"/>
</svg>
