<svg xmlns="http://www.w3.org/2000/svg" viewBox="0 0 22 22">
  <defs id="defs3051">
    <style type="text/css" id="current-color-scheme">
      .ColorScheme-Text {
        color:#4d4d4d;
      }
      </style>
  </defs>
  <g
     transform="translate(-421.71429,-525.79074)">
    <path
       style="opacity:1;fill:currentColor;fill-opacity:1;stroke:none"
       d="M 11 4 A 6 6 0 0 0 5 10 A 6 6 0 0 0 5.0039062 10.128906 A 4 4 0 0 0 2 14 A 4 4 0 0 0 6 18 L 15 18 A 5 5 0 0 0 20 13 A 5 5 0 0 0 16.757812 8.3242188 A 6 6 0 0 0 11 4 z M 11 5 A 5 5 0 0 1 15.919922 9.1113281 A 4.0000019 4.0000019 0 0 1 19 13 A 4.0000019 4.0000019 0 0 1 15 17 L 6 17 A 2.9999979 2.9999979 0 0 1 3 14 A 2.9999979 2.9999979 0 0 1 6 11 A 2.9999979 2.9999979 0 0 1 6.1074219 11.005859 A 5 5 0 0 1 6 10 A 5 5 0 0 1 11 5 z "
       transform="translate(421.71429,525.79074)"
       id="path4196"
       class="ColorScheme-Text" />
    <path
       style="fill:#ffffff"
       d="m 440.21429,540.29076 -2.25,2.25 -0.75,-0.75 -0.75,0.75 0.75,0.75 0.75,0.75 3,-3 -0.75,-0.75 z"
       id="path4142"/>
    <g
       id="layer1-9"
       transform="translate(426.71429,-500.57146)">
      <path
         style="opacity:1;fill:#27ae60;fill-opacity:1;stroke:none"
         d="m 11,1037.3622 c 2.216,0 4,1.784 4,4 0,2.216 -1.784,4 -4,4 -2.216,0 -4,-1.784 -4,-4 0,-2.216 1.784,-4 4,-4 z"
         id="rect4153" />
      <path
         style="fill:#ffffff"
         d="m 13,1039.3622 -3,3 -1,-1 -1,1 1,1 1,1 4,-4 -1,-1 z"
         id="path4142-5"/>
    </g>
  </g>
</svg>
