<svg xmlns="http://www.w3.org/2000/svg" viewBox="0 0 22 22">
  <defs id="defs3051">
    <style type="text/css" id="current-color-scheme">
      .ColorScheme-Text {
        color:#4d4d4d;
      }
      </style>
  </defs>
    <path
       style="opacity:1;fill:currentColor;fill-opacity:1;stroke:none"
       d="M 7 4 L 7 20 L 17 20 L 17 4 L 7 4 z M 10 5 L 14 5 L 14 6 L 10 6 L 10 5 z M 8 7 L 16 7 L 16 12.5 L 14.892578 12.222656 C 14.825378 11.970456 14.725582 11.728253 14.595703 11.501953 L 15.181641 10.525391 L 14.474609 9.8183594 L 13.498047 10.404297 C 13.271331 10.272897 13.028379 10.171816 12.775391 10.103516 L 12.5 9 L 11.5 9 L 11.222656 10.107422 C 10.970534 10.174422 10.728255 10.274397 10.501953 10.404297 L 9.5253906 9.8183594 L 8.8183594 10.525391 L 9.4042969 11.501953 C 9.2729059 11.728653 9.1717856 11.971609 9.1035156 12.224609 L 8 12.5 L 8 7 z M 12 11 C 12.06653 10.9999 12.133016 10.999766 12.199219 11.009766 C 12.265419 11.019766 12.331257 11.026063 12.396484 11.039062 C 12.462404 11.053062 12.527589 11.069844 12.591797 11.089844 C 12.655397 11.109844 12.717974 11.133203 12.779297 11.158203 C 12.840587 11.184203 12.900553 11.212141 12.958984 11.244141 C 13.017344 11.276141 13.07406 11.312209 13.128906 11.349609 C 13.184286 11.387609 13.237738 11.427603 13.289062 11.470703 C 13.340143 11.513703 13.389032 11.559622 13.435547 11.607422 C 13.481587 11.654422 13.525257 11.704459 13.566406 11.755859 C 13.608206 11.808859 13.647316 11.863222 13.683594 11.919922 C 13.719684 11.975922 13.752923 12.03415 13.783203 12.09375 C 13.812883 12.15275 13.839611 12.213591 13.863281 12.275391 C 13.887911 12.337391 13.909424 12.400644 13.927734 12.464844 C 13.945304 12.528844 13.959643 12.594356 13.970703 12.660156 C 13.981843 12.726156 13.989661 12.792675 13.994141 12.859375 C 13.997741 12.906375 13.9997 12.9534 14 13 C 14.00006 13.067 13.996834 13.133019 13.990234 13.199219 C 13.983734 13.265219 13.973977 13.331284 13.960938 13.396484 C 13.947308 13.462484 13.930356 13.527597 13.910156 13.591797 C 13.890506 13.655797 13.867687 13.717997 13.841797 13.779297 C 13.816157 13.840297 13.787479 13.900584 13.755859 13.958984 C 13.723559 14.016984 13.688359 14.074106 13.650391 14.128906 C 13.612731 14.183906 13.572321 14.237762 13.529297 14.289062 C 13.486197 14.340062 13.440567 14.389047 13.392578 14.435547 C 13.345288 14.481547 13.295748 14.525606 13.244141 14.566406 C 13.191461 14.608406 13.136701 14.647394 13.080078 14.683594 C 13.023838 14.719594 12.96582 14.752203 12.90625 14.783203 C 12.84707 14.813203 12.786444 14.839281 12.724609 14.863281 C 12.662569 14.888281 12.599343 14.909734 12.535156 14.927734 C 12.470806 14.944734 12.405624 14.959703 12.339844 14.970703 C 12.273874 14.981703 12.207382 14.990141 12.140625 14.994141 C 12.112675 14.994141 12.084671 14.993906 12.056641 15.003906 L 11.919922 15.003906 C 11.880162 15.003106 11.840432 15.004141 11.800781 14.994141 C 11.734581 14.984141 11.668743 14.977844 11.603516 14.964844 C 11.537596 14.950844 11.472411 14.934062 11.408203 14.914062 C 11.344603 14.894063 11.282026 14.870703 11.220703 14.845703 C 11.159413 14.819703 11.099447 14.791766 11.041016 14.759766 C 10.982656 14.727766 10.92594 14.691797 10.871094 14.654297 C 10.815714 14.616297 10.762262 14.576303 10.710938 14.533203 C 10.680827 14.507203 10.651517 14.479172 10.623047 14.451172 L 10.535156 14.363281 C 10.499836 14.326281 10.465956 14.288247 10.433594 14.248047 C 10.391794 14.195047 10.352684 14.140584 10.316406 14.083984 C 10.280316 14.027984 10.247077 13.969756 10.216797 13.910156 C 10.187117 13.851156 10.160389 13.790316 10.136719 13.728516 C 10.112089 13.666516 10.090576 13.603263 10.072266 13.539062 C 10.054696 13.475062 10.040357 13.40955 10.029297 13.34375 C 10.018157 13.27775 10.010339 13.211231 10.005859 13.144531 C 10.002259 13.097531 10.0003 13.050606 10 13.003906 C 9.99994 12.937906 10.003166 12.870887 10.009766 12.804688 C 10.016266 12.738687 10.026022 12.672622 10.039062 12.607422 C 10.052692 12.541422 10.069644 12.476409 10.089844 12.412109 C 10.109494 12.348109 10.132313 12.286009 10.158203 12.224609 C 10.183843 12.163609 10.212521 12.103322 10.244141 12.044922 C 10.276441 11.986922 10.311641 11.9299 10.349609 11.875 C 10.387269 11.82 10.427679 11.766144 10.470703 11.714844 C 10.513803 11.663844 10.559433 11.614859 10.607422 11.568359 C 10.654712 11.522359 10.704252 11.4784 10.755859 11.4375 C 10.808539 11.3955 10.863299 11.356413 10.919922 11.320312 C 10.976162 11.284312 11.03418 11.251703 11.09375 11.220703 C 11.15293 11.190703 11.213556 11.164625 11.275391 11.140625 C 11.337431 11.115625 11.400657 11.094172 11.464844 11.076172 C 11.529194 11.058172 11.594376 11.044203 11.660156 11.033203 C 11.726126 11.022203 11.792618 11.013766 11.859375 11.009766 C 11.906115 11.009766 11.953021 11 12 11 z M 8 13.5 L 9.1074219 13.777344 C 9.1746219 14.029544 9.2744179 14.271747 9.4042969 14.498047 L 8.8183594 15.474609 L 9.5253906 16.181641 L 10.501953 15.595703 C 10.728669 15.727103 10.971621 15.828184 11.224609 15.896484 L 11.5 17 L 12.5 17 L 12.777344 15.892578 C 13.029466 15.825578 13.271745 15.725603 13.498047 15.595703 L 14.474609 16.181641 L 15.181641 15.474609 L 14.595703 14.498047 C 14.727094 14.271347 14.828214 14.028391 14.896484 13.775391 L 16 13.5 L 16 17 L 16 18 L 14 18 L 10 18 L 8 18 L 8 17 L 8 13.5 z "
       id="rect4403" 
       class="ColorScheme-Text"/>
</svg>
