<svg viewBox="0 0 22 22" xmlns="http://www.w3.org/2000/svg">
    <style type="text/css" id="current-color-scheme">
        .ColorScheme-Text {
            color:#232629;
        }
        .ColorScheme-NeutralText {
            color:#f67400;
        }
    </style>
    <path d="m11 2.9999998c-4.418278 0-8 3.581722-8 8.0000002 0 4.418278 3.581722 8 8 8s8-3.581722 8-8c0-4.4182782-3.581722-8.0000002-8-8.0000002zm0 1c.604308.0032 1.205662.08457 1.789062.242188.119786.236149.191484.493735.210938.757812 0 1.104569-.895431 2-2 2s-2-.895431-2-2c.01878-.248113.08369-.490544.191406-.714844.58778-.173825 1.195845-.269697 1.808594-.285156zm3.890625 1.189453c1.940387 1.29731 3.10649 3.476429 3.109375 5.8105472 0 3.865993-3.134007 7-7 7s-7-3.134007-7-7c.01461-2.3316282 1.189233-4.5029162 3.132812-5.7910162-.070661.258556-.115156.52356-.132812.791016.02863 1.399937.787197 2.68299 2 3.3828122v6.324219l2 2 1.707031-1.707031.292969-.292969 1.207031-1.207031-.353515-.353516-.853516-.853515v-.585938l1.207031-1.207031-.353515-.353516-.853516-.853515v-.910157c1.212803-.6998222 1.971375-1.9828752 2-3.3828122-.0087-.27321-.04532-.544812-.109375-.810547zm-4.890625 4.8105472h1v5h-1z" class="ColorScheme-Text" fill="currentColor" fill-rule="evenodd"/>
    <g transform="translate(-11.366694 -3)">
        <path d="m23.366694 14c-.554 0-1 .446-1 1v6c0 .554.446 1 1 1h6c.554 0 1-.446 1-1v-6c0-.554-.446-1-1-1z" class="ColorScheme-NeutralText" fill="currentColor"/>
        <path d="m26.366694 15a2 2 0 0 0 -2 2l.002 1h-1.002v3h6v-3h-1v-1a2 2 0 0 0 -2-2zm0 1a1 1 0 0 1 1 1v1h-2v-1a1 1 0 0 1 1-1z" fill="#fff"/>
    </g>
</svg>
