<svg fill="none" version="1.1" viewBox="0 0 15 15" xmlns="http://www.w3.org/2000/svg">
    <style id="current-color-scheme" type="text/css">.ColorScheme-Text {
            color:#232629;
        }</style>
    <path class="ColorScheme-Text" d="m4.07572 6.46984.49498.07072zm-.01005.07036-.49497-.07071zm6.85853-.07035.495-.07071zm.0101.07036-.495.0707v.00001zm-1.4343 5.95979v.5c.27614 0 .5-.2239.5-.5zm-4 0h-.5c0 .2761.22386.5.5.5zm-.74451-3.34709.39539-.30604zm5.48901-.00002-.3954-.30603zm-4.2445 5.84711h3v-1h-3zm-2.41925-8.60087-.01005.07036.98994.14142.01006-.07035zm3.91923-3.39913c-1.97021 0-3.6406 1.44872-3.91923 3.39913l.98995.14143c.20825-1.45777 1.45672-2.54056 2.92928-2.54056zm3.91922 3.39914c-.2786-1.95041-1.949-3.39914-3.91922-3.39914v1c1.47257 0 2.72102 1.0828 2.92932 2.54056zm.0101.07036-.0101-.07036-.9899.14142.01.07035zm-.7894 2.98943c.6297-.81352.9486-1.87496.7894-2.98944l-.99.14143c.1192.83451-.1184 1.62637-.5902 2.23594zm-1.6399 1.44237v1.5987h1v-1.5987zm.5 1.0987h-4v1h4zm-3.5.5v-1.5987h-1v1.5987zm-2.4293-6.03051c-.15922 1.11449.15972 2.17594.78939 2.98946l.79079-.61208c-.47181-.60957-.70945-1.40143-.59024-2.23596zm2.4293 4.43181c0-.8238-.43791-1.52316-.84912-2.05443l-.79079.61208c.38336.49531.63991.96805.63991 1.44235zm3.8491-2.05444c-.4112.53127-.8491 1.23064-.8491 2.05444h1c0-.4743.2565-.94707.6399-1.44237zm-2.8491-8.84686v2h1v-2zm-7 8h2v-1h-2zm13 0h2v-1h-2zm-9.64645-4.35355-1.5-1.5-.7071.7071 1.5 1.5zm9.00005.7071 1.5-1.5-.7072-.7071-1.5 1.5z" fill="currentColor"/>
</svg>
