<svg xmlns="http://www.w3.org/2000/svg" fill="none" viewBox="0 0 22 22">
  <defs>
    <style type="text/css" id="current-color-scheme">
      .ColorScheme-Text { color: #232629; }
    </style>
  </defs>
  <path fill-rule="evenodd" d="M15.975 7.5a5.004 5.004 0 0 1-3.061 4.12c.603-1 1.007-2.465 1.076-4.12zm0-1a5.004 5.004 0 0 0-3.061-4.12c.603 1 1.007 2.465 1.076 4.12zm-2.986 0c-.06-1.326-.353-2.477-.762-3.295C11.737 2.225 11.245 2 11 2c-.246 0-.737.225-1.227 1.205-.41.818-.702 1.97-.762 3.295zm-3.978 1c.06 1.326.353 2.477.762 3.295.49.98.981 1.205 1.227 1.205.245 0 .737-.225 1.227-1.205.409-.818.702-1.97.762-3.295zm-1 0c.067 1.655.472 3.12 1.075 4.12A5.004 5.004 0 0 1 6.025 7.5zm0-1c.067-1.655.472-3.12 1.075-4.12A5.004 5.004 0 0 0 6.025 6.5zM17 7a6 6 0 1 0-6.5 5.98v2.07c-.98.199-1.751.97-1.95 1.95H1v1h7.55a2.5 2.5 0 0 0 4.9 0H21v-1h-7.55a2.503 2.503 0 0 0-1.95-1.95v-2.07A6 6 0 0 0 17 7M9.5 17.5a1.5 1.5 0 1 1 3 0 1.5 1.5 0 0 1-3 0" clip-rule="evenodd" style="fill:currentColor" class="ColorScheme-Text"/>
</svg>