<?xml version="1.0" encoding="UTF-8" standalone="no"?>
<!-- Created with Inkscape (http://www.inkscape.org/) -->

<svg
   xmlns:dc="http://purl.org/dc/elements/1.1/"
   xmlns:cc="http://creativecommons.org/ns#"
   xmlns:rdf="http://www.w3.org/1999/02/22-rdf-syntax-ns#"
   xmlns:svg="http://www.w3.org/2000/svg"
   xmlns="http://www.w3.org/2000/svg"
   xmlns:sodipodi="http://sodipodi.sourceforge.net/DTD/sodipodi-0.dtd"
   xmlns:inkscape="http://www.inkscape.org/namespaces/inkscape"
   width="22.000017"
   height="176.00002"
   id="svg3049"
   version="1.1"
   inkscape:version="0.91 r13725"
   sodipodi:docname="process-working.svg"
   inkscape:export-filename="/home/andreas/git/breeze-icons/icons/status/22/process-working.png"
   inkscape:export-xdpi="90.000061"
   inkscape:export-ydpi="90.000061">
  <metadata
     id="metadata16">
    <rdf:RDF>
      <cc:Work
         rdf:about="">
        <dc:format>image/svg+xml</dc:format>
        <dc:type
           rdf:resource="http://purl.org/dc/dcmitype/StillImage" />
      </cc:Work>
    </rdf:RDF>
  </metadata>
  <defs
     id="defs3051">
    <style
       type="text/css"
       id="current-color-scheme">
      .ColorScheme-Text {
        color:#4d4d4d;
      }
      .ColorScheme-Background {
        color:#eff0f1;
      }
      .ColorScheme-Highlight {
        color:#3daee9;
      }
      .ColorScheme-ViewText {
        color:#31363b;
      }
      .ColorScheme-ViewBackground {
        color:#fcfcfc;
      }
      .ColorScheme-ViewHover {
        color:#93cee9;
      }
      .ColorScheme-ViewFocus{
        color:#3daee9;
      }
      .ColorScheme-ButtonText {
        color:#31363b;
      }
      .ColorScheme-ButtonBackground {
        color:#eff0f1;
      }
      .ColorScheme-ButtonHover {
        color:#93cee9;
      }
      .ColorScheme-ButtonFocus{
        color:#3daee9;
      }
      </style>
  </defs>
  <sodipodi:namedview
     id="base"
     pagecolor="#ffffff"
     bordercolor="#666666"
     borderopacity="1.0"
     inkscape:pageopacity="0.0"
     inkscape:pageshadow="2"
     inkscape:zoom="2"
     inkscape:cx="-11.088176"
     inkscape:cy="76.179595"
     inkscape:document-units="px"
     inkscape:current-layer="layer1"
     showgrid="true"
     fit-margin-top="0"
     fit-margin-left="0"
     fit-margin-right="0"
     fit-margin-bottom="0"
     inkscape:window-width="1366"
     inkscape:window-height="707"
     inkscape:window-x="0"
     inkscape:window-y="32"
     inkscape:window-maximized="1"
     inkscape:showpageshadow="false"
     borderlayer="true"
     inkscape:object-nodes="true"
     inkscape:snap-global="false"
     inkscape:snap-bbox="true">
    <inkscape:grid
       type="xygrid"
       id="grid4085"
       originx="1.2783203e-05"
       originy="151.99999" />
  </sodipodi:namedview>
  <g
     inkscape:label="Capa 1"
     inkscape:groupmode="layer"
     id="layer1"
     transform="translate(-421.71426,-523.79071)">
    <path
       style="color:#4d4d4d;opacity:1;fill:currentColor;fill-opacity:1;stroke:none"
       id="path4198"
       inkscape:connector-curvature="0"
       d="m 432.71429,526.615 a 8.0000019,8.0000153 0 0 0 -7.40234,5 l 1.08789,0 a 7,7 0 0 1 6.31445,-4 7,7 0 0 1 6.31055,4 l 1.08789,0 a 8.0000019,8.0000153 0 0 0 -7.39844,-5 z m -7.73047,10 a 8.0000019,8.0000153 0 0 0 7.73047,6 8.0000019,8.0000153 0 0 0 7.73047,-6 l -1.03906,0 a 7,7 0 0 1 -6.69141,5 7,7 0 0 1 -6.69531,-5 l -1.03516,0 z"
       class="ColorScheme-Text" />
    <path
       inkscape:connector-curvature="0"
       style="color:#4d4d4d;opacity:1;fill:currentColor;fill-opacity:1;stroke:none"
       id="path4198-8"
       d="m 438.36998,551.16488 a 8.0000019,8.0000153 45 0 1 1.69872,8.76978 l -0.76926,-0.76926 a 7,7 0 0 0 -1.63656,-7.29342 7,7 0 0 0 -7.29066,-1.6338 l -0.76926,-0.76926 a 8.0000019,8.0000153 45 0 1 8.76702,1.69596 z m -1.6048,12.53733 a 8.0000019,8.0000153 45 0 1 -9.7089,-1.22363 8.0000019,8.0000153 45 0 1 -1.22363,-9.7089 l 0.73473,0.73473 a 7,7 0 0 0 1.196,8.26707 7,7 0 0 0 8.26984,1.19876 l 0.73196,0.73197 z"
       class="ColorScheme-Text" />
    <path
       inkscape:connector-curvature="0"
       style="color:#4d4d4d;opacity:1;fill:currentColor;fill-opacity:1;stroke:none"
       d="m 440.71429,578.74287 a 8.0000153,8.0000019 0 0 0 -5,-7.40235 l 0,1.08789 a 7,7 0 0 1 4,6.31446 7,7 0 0 1 -4,6.31054 l 0,1.08789 a 8.0000153,8.0000019 0 0 0 5,-7.39843 z m -10,-7.73047 a 8.0000153,8.0000019 0 0 0 -6,7.73047 8.0000153,8.0000019 0 0 0 6,7.73047 l 0,-1.03907 a 7,7 0 0 1 -5,-6.6914 7,7 0 0 1 5,-6.69532 l 0,-1.03515 z"
       id="path4198-83"
       class="ColorScheme-Text" />
    <path
       inkscape:connector-curvature="0"
       d="m 427.05744,595.0497 a 8.0000153,8.0000019 45 0 0 -1.69872,8.76978 l 0.76926,-0.76926 a 7,7 0 0 1 1.63656,-7.29342 7,7 0 0 1 7.29066,-1.6338 l 0.76926,-0.76926 a 8.0000153,8.0000019 45 0 0 -8.76702,1.69596 z m 1.6048,12.53733 a 8.0000153,8.0000019 45 0 0 9.7089,-1.22363 8.0000153,8.0000019 45 0 0 1.22363,-9.7089 l -0.73473,0.73473 a 7,7 0 0 1 -1.196,8.26707 7,7 0 0 1 -8.26984,1.19876 l -0.73196,0.73197 z"
       id="path4198-8-6"
       class="ColorScheme-Text"
       style="color:#4d4d4d;opacity:1;fill:currentColor;fill-opacity:1;stroke:none" />
    <path
       style="color:#4d4d4d;opacity:1;fill:currentColor;fill-opacity:1;stroke:none"
       d="m 432.71429,614.76033 a 8.0000019,8.0000153 0 0 0 -7.40234,5 l 1.08789,0 a 7,7 0 0 1 6.31445,-4 7,7 0 0 1 6.31055,4 l 1.08789,0 a 8.0000019,8.0000153 0 0 0 -7.39844,-5 z m -7.73047,10 a 8.0000019,8.0000153 0 0 0 7.73047,6 8.0000019,8.0000153 0 0 0 7.73047,-6 l -1.03906,0 a 7,7 0 0 1 -6.69141,5 7,7 0 0 1 -6.69531,-5 l -1.03516,0 z"
       id="path4198-2"
       inkscape:connector-curvature="0"
       class="ColorScheme-Text" />
    <path
       inkscape:connector-curvature="0"
       style="color:#4d4d4d;opacity:1;fill:currentColor;fill-opacity:1;stroke:none"
       d="m 438.36998,639.02297 a 8.0000019,8.0000153 45 0 1 1.69872,8.76978 l -0.76926,-0.76926 a 7,7 0 0 0 -1.63656,-7.29342 7,7 0 0 0 -7.29066,-1.6338 l -0.76926,-0.76926 a 8.0000019,8.0000153 45 0 1 8.76702,1.69596 z m -1.6048,12.53733 a 8.0000019,8.0000153 45 0 1 -9.7089,-1.22363 8.0000019,8.0000153 45 0 1 -1.22363,-9.7089 l 0.73473,0.73473 a 7,7 0 0 0 1.196,8.26707 7,7 0 0 0 8.26984,1.19876 l 0.73196,0.73197 z"
       id="path4198-8-8"
       class="ColorScheme-Text" />
    <path
       inkscape:connector-curvature="0"
       style="color:#4d4d4d;opacity:1;fill:currentColor;fill-opacity:1;stroke:none"
       d="m 440.71429,666.64509 a 8.0000153,8.0000019 0 0 0 -5,-7.40235 l 0,1.08789 a 7,7 0 0 1 4,6.31446 7,7 0 0 1 -4,6.31054 l 0,1.08789 a 8.0000153,8.0000019 0 0 0 5,-7.39843 z m -10,-7.73047 a 8.0000153,8.0000019 0 0 0 -6,7.73047 8.0000153,8.0000019 0 0 0 6,7.73047 l 0,-1.03907 a 7,7 0 0 1 -5,-6.6914 7,7 0 0 1 5,-6.69532 l 0,-1.03515 z"
       id="path4198-83-4"
       class="ColorScheme-Text" />
    <path
       inkscape:connector-curvature="0"
       style="color:#4d4d4d;opacity:1;fill:currentColor;fill-opacity:1;stroke:none"
       d="m 427.05744,683.17293 a 8.0000153,8.0000019 45 0 0 -1.69872,8.76978 l 0.76926,-0.76926 a 7,7 0 0 1 1.63656,-7.29342 7,7 0 0 1 7.29066,-1.6338 l 0.76926,-0.76926 a 8.0000153,8.0000019 45 0 0 -8.76702,1.69596 z m 1.6048,12.53733 a 8.0000153,8.0000019 45 0 0 9.7089,-1.22363 8.0000153,8.0000019 45 0 0 1.22363,-9.7089 l -0.73473,0.73473 a 7,7 0 0 1 -1.196,8.26707 7,7 0 0 1 -8.26984,1.19876 l -0.73196,0.73197 z"
       id="path4198-8-6-9"
       class="ColorScheme-Text" />
  </g>
</svg>
