<svg id="svg8" version="1.1" viewBox="0 0 22 22" xmlns="http://www.w3.org/2000/svg">
                    <defs
            id="defs2">       
                <style type="text/css" id="current-color-scheme">
                .ColorScheme-Text {
                    color:#232629;
                }
                </style>
                </defs>
    <g id="layer1" fill="currentColor" class="ColorScheme-Text">
    <path id="rect1835-6" d="m12.888672 3-0.785156 0.2128906 0.519531 1.1464844 0.375-0.1015625-0.109375-1.2578125zm2.216797 0.0195312-0.109375 1.2578126 0.373047 0.1015624 0.521484-1.1464843-0.785156-0.2128907zm2.675781 1.1191407-0.875 0.890625 0.220703 0.3222656 1.121094-0.5351563-0.466797-0.6777343zm-3.78125 0.8613281c-0.38358 4e-5 -0.766416 0.045216-1.097656 0.1347656-0.66263 0.17915-1.06671 0.5978963-1.375 1.0976563-0.30841 0.49981-0.651262 1.2387775-0.482422 2.1484375 0.16894 0.90943 0.761544 1.8352456 1.02539 2.5488286 0.263812 0.713986 0.265623 1.266221 0.265626 1.888671v1.181641l0.664062 1h2l0.664062-1v-1.181641c0-0.62245 9.97e-4 -1.174275 0.265626-1.888671 0.263809-0.714072 0.85671-1.6399686 1.02539-2.5488286 0.16895-0.90906-0.173902-1.6487075-0.482422-2.1484375-0.30841-0.4998-0.71302-0.9181663-1.375-1.0976563-0.33126-0.0896-0.714076-0.1351456-1.097656-0.1347656zm-4.1132812 0.0019531a7 6.9999995 85 0 0-0.4960938 0.0253907 7 6.9999995 85 0 0-0.09375 0.0078124 7 6.9999995 85 0 0-6.2695312 7.5742188 7 6.9999995 85 0 0 7.5820312 6.363281 7 6.9999995 85 0 0 4.71875-2.433594 6.5 6.4999995 85 0 1-0.410156 0.048829 6.5 6.4999995 85 0 1-7.0410159-5.908203 6.5 6.4999995 85 0 1 2.4550779-5.6699224 7 6.9999995 85 0 0-0.4453122-0.0078125zm4.1132812 0.7753907c0.33602-1.501e-4 0.672949 0.0342093 0.917969 0.0996093 0.49051 0.13304 0.667767 0.331055 0.935547 0.765625 0.26759 0.43464 0.496803 0.9414804 0.376953 1.5878907-0.11981 0.6465297-0.676471 1.5809575-0.988281 2.4238282-0.218971 0.59244-0.26836 1.096662-0.28711 1.570312h-1.910156c-0.0187-0.47373-0.068098-0.978132-0.28711-1.570312-0.311439-0.8424907-0.868121-1.7765084-0.988281-2.4238282-0.12018-0.6470203 0.108603-1.1535107 0.376953-1.5878907 0.26759-0.43465 0.444927-0.633195 0.935547-0.765625 0.24535-0.0657997 0.581959-0.0996095 0.917969-0.0996093zm-5.6328125 0.2011718a7.2750001 7.2750001 0 0 0-1.2636719 4.7695314 7.2750001 7.2750001 0 0 0 6.1757814 6.560547 6.2399998 6.2399998 0 0 1-2.736328 0.908203 6.2399998 6.2399998 0 0 1-6.7597659-5.673828 6.2399998 6.2399998 0 0 1 4.5839844-6.5644534zm10.615234 1.1113282-1.21875 0.2167968 0.001953 0.3945313 1.216797 0.2167969v-0.828125zm-1.84375 2.8203124-0.220703 0.3222658 0.875 0.890625 0.464843-0.677735-1.11914-0.5351558z"/>
    </g>
</svg>
