<svg id="svg8" version="1.1" viewBox="0 0 22 22" xmlns="http://www.w3.org/2000/svg">
                    <defs
            id="defs2">       
                <style type="text/css" id="current-color-scheme">
                .ColorScheme-Text {
                    color:#232629;
                }
                </style>
                </defs>
    <g id="layer1" transform="translate(-146.84375,-104.51041)" fill="currentColor" class="ColorScheme-Text">
        <path id="rect1835-6" transform="translate(146.84375,104.51041)" d="m12.888672 3-0.785156 0.2128906 0.519531 1.1464844 0.375-0.1015625zm2.216797 0.019531-0.109375 1.2578126 0.373047 0.1015624 0.521484-1.1464843zm2.675781 1.1191407-0.875 0.890625 0.220703 0.3222656 1.121094-0.5351563zm-9.78125 0.8613283-1.0605469 2.5332031c0.9012824-0.6172314 1.9681712-0.9474427 3.0605469-0.9472656 0.0801-4.748e-4 0.160195 8.276e-4 0.240234 0.00391zm6 0c-0.38358 4e-5 -0.766416 0.045216-1.097656 0.1347656-0.66262 0.17915-1.0667 0.5978963-1.375 1.0976563-0.30841 0.49981-0.651252 1.2387775-0.482422 2.1484375 0.16895 0.90943 0.761551 1.8352486 1.02539 2.5488286 0.263811 0.713989 0.265626 1.266221 0.265626 1.888671v1.181641l0.664062 1h2l0.664062-1v-1.181641c0-0.62245 9.96e-4 -1.174272 0.265626-1.888671 0.26381-0.714071 0.85671-1.6399686 1.02539-2.5488286 0.16894-0.90906-0.173902-1.6487075-0.482422-2.1484375-0.30841-0.4998-0.71302-0.9181663-1.375-1.0976563-0.33126-0.0896-0.714076-0.1351456-1.097656-0.1347656zm0 0.7773438c0.33601-1.501e-4 0.672939 0.034209 0.917969 0.099609 0.49051 0.13304 0.667767 0.331055 0.935547 0.765625 0.26759 0.43464 0.496803 0.9414806 0.376953 1.5878907-0.11981 0.6465299-0.676471 1.5809581-0.988281 2.4238282-0.21898 0.59244-0.26837 1.096662-0.28711 1.570312h-1.910156c-0.0187-0.47373-0.0681-0.978132-0.28711-1.570312-0.31143-0.8424901-0.868131-1.7765082-0.988281-2.4238282-0.12019-0.64702 0.108613-1.1535107 0.376953-1.5878907 0.2676-0.43465 0.444927-0.633195 0.935547-0.765625 0.24535-0.0658 0.581959-0.099609 0.917969-0.099609zm4.982422 1.3125-1.21875 0.2167968 2e-3 0.3945313 1.216797 0.2167969zm-9.0429689 0.9101562c-2.1854689 0.0330741-3.939723 1.81429-3.9394531 4-1.98e-5 2.209141 1.7908501 4.000011 4 4 0.563464-9.4e-5 1.120551-0.119232 1.634766-0.349609l-0.148438-0.697266c-0.461064 0.232219-0.970086 0.353287-1.486328 0.353516-1.8260228-4.63e-4 -3.3061882-1.480628-3.3066406-3.306641 4.527e-4 -1.826012 1.480618-3.3061778 3.3066406-3.3066406 0.0482 2.488e-4 0.09639 0.00155 0.144531 0.00391l-0.1484372-0.6972694c-0.01888-1.337e-4 -0.037761-1.337e-4 -0.056641 0zm-3.5957031 0.0058594-2.7070312 0.4589844 1.0410156 2.5429682c0.2150189-1.1548721 0.7997597-2.2085022 1.6660156-3.0019526zm10.794922 1.9042968-0.220703 0.3222658 0.875 0.890625 0.464843-0.677735zm-12.548828 1.8515628-1.5898438 2.238281 2.5332031 1.060547c-0.6172314-0.901282-0.9474427-1.968171-0.9472656-3.060547-4.461e-4 -0.07945 8.564e-4 -0.158892 0.00391-0.238281zm1.4160156 3.894531 0.4589844 2.707031 2.5410156-1.041015c-1.1541716-0.215417-2.2070608-0.800127-3-1.666016zm7.0546876 0.810547c-0.901283 0.617231-1.968171 0.947442-3.060547 0.947265-0.080097 4.75e-4 -0.160195-8.27e-4 -0.2402344-0.0039l2.2402344 1.589838z"/>
    </g>
</svg>
