<svg id="svg8" version="1.1" viewBox="0 0 22 22" xmlns="http://www.w3.org/2000/svg">
                    <defs
            id="defs2">       
                <style type="text/css" id="current-color-scheme">
                .ColorScheme-Text {
                    color:#232629;
                }
                </style>
                </defs>
    <g id="layer1" transform="translate(-146.84375,-104.51041)" fill="currentColor" class="ColorScheme-Text">
        <path id="rect1835-6" transform="translate(146.84375,104.51041)" d="m12.888672 3-0.785156 0.2128906 0.519531 1.1464844 0.375-0.1015625zm2.216797 0.019531-0.109375 1.2578126 0.373047 0.1015624 0.521484-1.1464843zm2.675781 1.1191407-0.875 0.890625 0.220703 0.3222656 1.121094-0.5351563zm-3.78125 0.8613283c-0.38358 4e-5 -0.766416 0.045216-1.097656 0.1347656-0.66263 0.17915-1.06671 0.5978963-1.375 1.0976563-0.30841 0.49981-0.651262 1.2387775-0.482422 2.1484375 0.16894 0.90943 0.761541 1.8352486 1.02539 2.5488286 0.263811 0.713989 0.265626 1.266221 0.265626 1.888671v1.181641l0.664062 1h2l0.664062-1v-1.181641c0-0.62245 1e-3 -1.174272 0.265626-1.888671 0.26381-0.714071 0.85671-1.6399686 1.02539-2.5488286 0.16895-0.90906-0.173902-1.6487075-0.482422-2.1484375-0.30841-0.4998-0.71302-0.9181663-1.375-1.0976563-0.33126-0.0896-0.714076-0.1351456-1.097656-0.1347656zm0 0.7773438c0.33602-1.501e-4 0.672949 0.034209 0.917969 0.099609 0.49051 0.13304 0.667767 0.331055 0.935547 0.765625 0.26759 0.43464 0.496803 0.9414806 0.376953 1.5878907-0.11981 0.6465299-0.676471 1.5809581-0.988281 2.4238282-0.218971 0.59244-0.26836 1.096662-0.28711 1.570312h-1.910156c-0.0187-0.47373-0.0681-0.978132-0.28711-1.570312-0.31144-0.8424901-0.868121-1.7765082-0.988281-2.4238282-0.12018-0.64702 0.108603-1.1535107 0.376953-1.5878907 0.26759-0.43465 0.444927-0.633195 0.935547-0.765625 0.24535-0.0657997 0.581959-0.099609 0.917969-0.099609zm-4 0.2226562c-0.068377 1.334e-4 -0.136746 0.00144-0.2050781 0.00391-0.069062 0.00206-0.1380822 0.00532-0.2070313 0.00977-0.068455 0.00469-0.1368243 0.010546-0.2050781 0.017578-0.0685 0.00729-0.1368696 0.01575-0.2050781 0.025391-2.9677123 0.4105695-5.1777368 2.9473875-5.1777344 5.943351-1.98e-5 3.313704 2.6862782 6.000002 6 6 1.273117 2e-5 2.513241-0.404919 3.541016-1.15625 0.03412-0.02503 0.06798-0.05042 0.101562-0.07617 0.02094-0.01614 0.04177-0.03241 0.0625-0.04883 0.0072-0.0058 0.01434-0.0117 0.02148-0.01758 0.100277-0.07954 0.197983-0.162261 0.292969-0.248047l2e-3 -2e-3c-0.06697 0.0057-0.13404 0.01029-0.201172 0.01367-0.06766 0.0038-0.135375 0.0064-0.203124 0.0078-0.03906 1e-3 -0.07812 0.0017-0.117188 2e-3 -0.134907-4.84e-4 -0.269755-0.0057-0.404297-0.01563-3.024897-0.212058-5.3705628-2.727464-5.3711366-5.759744 1.997e-4 -1.4404045 0.5386762-2.8287407 1.5097656-3.8925784 0.039073-0.042914 0.078791-0.085236 0.1191406-0.1269531 0.00649-0.00718 0.013003-0.014339 0.019531-0.021484 0.023884-0.023647 0.047973-0.047086 0.072266-0.070312 0.023884-0.023647 0.047973-0.047086 0.072266-0.070312 0.1394557-0.1328686 0.2854715-0.2586769 0.4375-0.3769531 0.00715-0.00522 0.014311-0.010433 0.021484-0.015625l0.00195-0.00195c0.045704-0.035196 0.091933-0.069705 0.1386724-0.1035157 0.0078-0.00588 0.01561-0.011739 0.02344-0.017578-0.046866-0.001205-0.093744-0.0018561-0.140625-0.0019577zm8.982422 1.0898438-1.21875 0.2167968 2e-3 0.3945313 1.216797 0.2167969zm-10.904297 0.0253906c-0.7029783 1.0631253-1.0778976 2.3094602-1.078125 3.5839846 7.595e-4 2.909224 1.9345333 5.463656 4.734375 6.253906-0.557306 0.195827-1.143665 0.296195-1.734375 0.296875-2.8994868 7e-6 -5.2499916-2.350497-5.25-5.25 3.421e-4 -2.1574159 1.3204719-4.0950008 3.328125-4.8847656zm9.060547 2.7949218-0.220703 0.3222658 0.875 0.890625 0.464843-0.677735z"/>
    </g>
</svg>
