<svg version="1.1" viewBox="0 0 22 22" xmlns="http://www.w3.org/2000/svg">
    <style id="current-color-scheme" type="text/css">.ColorScheme-PositiveText {
            color:#27ae60;
        }
        .ColorScheme-Text {
            color:#232629;
        }</style>
    <path class="ColorScheme-Text" d="m7.8359 2.9395c-0.72375 0-1.3184 0.59265-1.3184 1.3164v13.488c0 0.72375 0.5946 1.3164 1.3184 1.3164h6.375c0.72375 0 1.3164-0.59265 1.3164-1.3164v-13.488c0-0.72375-0.59265-1.3164-1.3164-1.3164h-6.375zm0 0.66016h6.375c0.36848 0 0.6543 0.28777 0.6543 0.65625v13.488c0 0.36848-0.28582 0.65625-0.6543 0.65625h-6.375c-0.36848 0-0.65625-0.28777-0.65625-0.65625v-13.488c0-0.36848 0.28777-0.65625 0.65625-0.65625zm5.9297 0.61523a0.44372 0.44372 0 0 0-0.43945 0.44727 0.44372 0.44372 0 0 0 0.44531 0.43945 0.44372 0.44372 0 0 0 0.44141-0.44336v-0.0058593a0.44372 0.44372 0 0 0-0.44727-0.4375zm-5.6367 0.0058593a0.44372 0.44372 0 0 0-0.43945 0.44727 0.44372 0.44372 0 0 0 0.44531 0.44141 0.44372 0.44372 0 0 0 0.44336-0.44531v-0.0058594a0.44372 0.44372 0 0 0-0.44922-0.4375zm4.3398 0a0.44372 0.44372 0 0 0-0.43945 0.44727 0.44372 0.44372 0 0 0 0.44531 0.44141 0.44372 0.44372 0 0 0 0.44141-0.44531v-0.0058594a0.44372 0.44372 0 0 0-0.44727-0.4375zm-2.8926 13.037a0.17827 0.17827 0 0 0-0.17773 0.17774 0.17827 0.17827 0 0 0 0.17773 0.17773h2.9551a0.17827 0.17827 0 0 0 0.17969-0.17773 0.17827 0.17827 0 0 0-0.17969-0.17774h-2.9551z" fill="currentColor"/>
    <path d="m11.114 13.012q-0.16604 0-0.27925-0.10566-0.10566-0.11321-0.10566-0.27925 0-0.29434 0.15095-0.64152 0.15094-0.35472 0.46793-0.62642 0.21132-0.18113 0.38491-0.35472 0.18114-0.18114 0.2868-0.40755 0.11321-0.23396 0.11321-0.56604 0-0.24151-0.11321-0.45284-0.11321-0.21132-0.32453-0.33963-0.20378-0.13585-0.50567-0.13585-0.36982 0-0.61133 0.13585t-0.36227 0.37736q-0.11321 0.24151-0.11321 0.56604 0 0.16604-0.10566 0.27925-0.10566 0.10566-0.27925 0.10566-0.16604 0-0.27925-0.10566-0.10566-0.11321-0.10566-0.27925 0-0.52831 0.22642-0.92831 0.23397-0.40001 0.64907-0.62642 0.42265-0.23397 0.98114-0.23397 0.49057 0 0.86794 0.21132 0.38491 0.20378 0.60378 0.57359 0.22642 0.36227 0.22642 0.85284 0 0.42265-0.13585 0.73208-0.13585 0.30944-0.36982 0.5585-0.23396 0.24151-0.53586 0.48302-0.19623 0.15849-0.2717 0.4151-0.07547 0.24906-0.07547 0.40755 0 0.16604-0.10566 0.27925-0.10566 0.10566-0.27925 0.10566zm0 1.3962q-0.21132 0-0.36982-0.15094-0.15095-0.15849-0.15095-0.36982 0-0.21887 0.15095-0.36982 0.15849-0.15849 0.36982-0.15849 0.21887 0 0.36982 0.15849 0.15849 0.15095 0.15849 0.36982 0 0.21132-0.15849 0.36982-0.15094 0.15094-0.36982 0.15094z" fill="#f47750" stroke-width=".18868" aria-label="?"/>
</svg>
