<svg xmlns="http://www.w3.org/2000/svg" fill="none" viewBox="0 0 22 22">
  <defs>
  <style type="text/css" id="current-color-scheme">
        ColorScheme-Text {
            color:#232629;
        }
        ColorScheme-Background {
            color:#eff0f1;
        }
    </style>
    <clipPath id="a">
      <path style="fill:currentColor"  d="M0 0h22v22H0z" class="ColorScheme-Background"/>
    </clipPath>
  </defs>
  <g clip-path="url(#a)">
    <path style="fill:currentColor" fill-rule="evenodd" d="M6.333 6.5C6.333 4.007 8.415 2 11 2s4.667 2.007 4.667 4.5V11H18v9H4v-9h2.333zm8.167.563c0-2.182-1.561-3.938-3.5-3.938S7.5 4.881 7.5 7.063V11h7zM10.929 13h2.967l-2.343 2.67-.728.83H16v-1h-2.967l2.343-2.67.728-.83h-5.175zM6 15.5h3.347L6.65 18.143 5.775 19h5.796v-1H8.225l2.696-2.643.875-.857H6z" clip-rule="evenodd" class="ColorScheme-Text"/>
  </g>
  
</svg>
