<svg id="svg7" version="1.1" viewBox="0 0 22 22" xmlns="http://www.w3.org/2000/svg">
    <style id="current-color-scheme" type="text/css">.ColorScheme-Text {
            color:#232629;
        }
        .ColorScheme-NegativeText {
            color:#da4453;
        }</style>
    <g fill="currentColor">
        <path id="path7" class="ColorScheme-NegativeText" transform="matrix(.70710678 -.70710678 .70710678 .70710678 0 0)" d="m-0.50000006 4.7426407 1-1e-7v21.627417h-1z" fill="currentColor"/>
        <path id="path1" class="ColorScheme-Text" d="m7 11c-2.216 0-4 1.784-4 4s1.784 4 4 4 4-1.784 4-4-1.784-4-4-4zm0 0.5c1.939 0 3.5 1.561 3.5 3.5s-1.561 3.5-3.5 3.5-3.5-1.561-3.5-3.5 1.561-3.5 3.5-3.5zm0 1a1.0000011 1.0000006 0 0 0-1 1v1h-1v2.5h4v-2.5h-1v-1a1.0000011 1.0000006 0 0 0-1-1zm0 0.5a0.5 0.5 0 0 1 0.5 0.5v1h-1v-1a0.5 0.5 0 0 1 0.5-0.5zm-1.5 2h3v1.5h-3z" fill="currentColor"/>
        <path id="path2" class="ColorScheme-Text" d="m11 5.6666667v0.8888888h2.038222l-1.777778 1.7777778-0.260444 0.2604445v0.6284443h3.555556v-0.8888888h-2.038223l1.777778-1.7777778 0.260445-0.2604444v-0.6284444h-0.628445zm4.444444-2.6666667v0.8888889h2.038223l-1.777778 1.7777778-0.260445 0.2604444v0.6284444h3.555556v-0.8888888h-2.038222l1.777778-1.7777778 0.260444-0.2604445v-0.6284444h-0.628444z" stroke-width=".888889" fill="currentColor"/>
    </g>
</svg>
