<?xml version="1.0" encoding="UTF-8" standalone="no"?>
<svg
   xmlns:dc="http://purl.org/dc/elements/1.1/"
   xmlns:cc="http://creativecommons.org/ns#"
   xmlns:rdf="http://www.w3.org/1999/02/22-rdf-syntax-ns#"
   xmlns:svg="http://www.w3.org/2000/svg"
   xmlns="http://www.w3.org/2000/svg"
   xmlns:sodipodi="http://sodipodi.sourceforge.net/DTD/sodipodi-0.dtd"
   xmlns:inkscape="http://www.inkscape.org/namespaces/inkscape"
   viewBox="0 0 22 22"
   style="enable-background:new 0 0 22 22"
   id="svg2"
   version="1.1"
   inkscape:version="0.91 r"
   sodipodi:docname="system-devices-panel_.svg">
  <metadata
     id="metadata16">
    <rdf:RDF>
      <cc:Work
         rdf:about="">
        <dc:format>image/svg+xml</dc:format>
        <dc:type
           rdf:resource="http://purl.org/dc/dcmitype/StillImage" />
        <dc:title></dc:title>
      </cc:Work>
    </rdf:RDF>
  </metadata>
  <defs
     id="defs14" />
  <sodipodi:namedview
     pagecolor="#ffffff"
     bordercolor="#666666"
     borderopacity="1"
     objecttolerance="10"
     gridtolerance="10"
     guidetolerance="10"
     inkscape:pageopacity="0"
     inkscape:pageshadow="2"
     inkscape:window-width="1177"
     inkscape:window-height="1011"
     id="namedview12"
     showgrid="false"
     inkscape:zoom="18.504447"
     inkscape:cx="12.518693"
     inkscape:cy="11"
     inkscape:window-x="59"
     inkscape:window-y="34"
     inkscape:window-maximized="0"
     inkscape:current-layer="svg2" />
  <g
     style="fill:#4d4d4d;fill-opacity:1"
     id="g4">
    <path
       d="m 10 3 0 8 2 0 0 -8 z"
       id="path6"
       style="fill:#4d4d4d;fill-opacity:1" />
    <path
       d="m 14,8 0,2 5.34375,0 C 19.713081,10 20,9.777 20,9.5 l 0,-1 C 20,8.223 19.713081,8 19.34375,8 L 14,8 z m 0,4 0,2 5.34375,0 C 19.713081,14 20,13.777 20,13.5 l 0,-1 C 20,12.223 19.713081,12 19.34375,12 L 14,12 z m 0,4 0,2 5.34375,0 C 19.713081,18 20,17.777 20,17.5 l 0,-1 C 20,16.223 19.713081,16 19.34375,16 L 14,16 z"
       style="color:#000;fill:#4d4d4d;fill-opacity:1"
       id="path8" />
    <path
       d="m 8 3.594 c -2.934 1.186 -5 4.048 -5 7.406 c 0 4.418 3.582 8 8 8 c 0.334 0 0.676 -0.023 1 -0.063 l 0 -2.031 c -0.325 0.055 -0.66 0.094 -1 0.094 c -3.314 0 -6 -2.686 -6 -6 c 0 -2.221 1.207 -4.15 3 -5.188 l 0 -2.219 z m 6 0 l 0 2.219 c 0.099 0.057 0.186 0.125 0.281 0.188 l 2.938 0 c -0.845 -1.057 -1.941 -1.89 -3.219 -2.406 z"
       style="fill-rule:evenodd;fill:#4d4d4d;fill-opacity:1"
       id="path10" />
  </g>
</svg>
