<?xml version="1.0" encoding="UTF-8"?>
<svg viewBox="0 0 22 22" xmlns="http://www.w3.org/2000/svg">
  <style type="text/css" id="current-color-scheme">.ColorScheme-Text{
    color:#31363b;
  }
  </style>
  <path
    style="fill:currentColor;fill-opacity:1;stroke:none"
    class="ColorScheme-Text"
    d="M 4 3 L 4 19 L 5 19 L 18 19 L 18 18 L 18 3 L 7 3 L 6 3 L 4 3 z M 5 4 L 6 4 L 6 18 L 5 18 L 5 4 z M 7 4 L 17 4 L 17 18 L 7 18 L 7 4 z M 9 7 L 9 8 L 13.5 8 L 9 14 L 9 15 L 15 15 L 15 14 L 10.5 14 L 15 8 L 15 7 L 9 7 z " />
</svg>
