<?xml version="1.0" encoding="utf-8"?><svg height="64" width="64" xmlns="http://www.w3.org/2000/svg" xmlns:svg="http://www.w3.org/2000/svg" xmlns:xlink="http://www.w3.org/1999/xlink"><defs id="primary-definitions"><style id="current-color-scheme" type="text/css">.ColorScheme-Text           { color:#fff; }
      .ColorScheme-Background     { color:#111; }
      .ColorScheme-Highlight      { color:#3daefd; }
      .ColorScheme-ViewBackground { color:#000; }
      .ColorScheme-PositiveText   { color:#27ae60; }
      .ColorScheme-NeutralText    { color:#f67400; }
      .ColorScheme-NegativeText   { color:#da4453; }
  </style><style id="extended-color-scheme" type="text/css">.ExScheme-Black     { color:#3e3e3e; }
      .ExScheme-White     { color:#fcfcfc; }
      .ExScheme-Grey-1    { color:#cfd5d5; }
      .ExScheme-Grey-2    { color:#909c9c; }
      .ExScheme-Grey-3    { color:#536161; }
      .ExScheme-Red-1     { color:#ffafa5; }
      .ExScheme-Red-2     { color:#bf4231; }
      .ExScheme-Red-3     { color:#4d2f2b; }
      .ExScheme-Green-1   { color:#abf9c7; }
      .ExScheme-Green-2   { color:#3bb566; }
      .ExScheme-Green-3   { color:#377d50; }
      .ExScheme-Blue-1    { color:#abdaf9; }
      .ExScheme-Blue-2    { color:#3daefd; }
      .ExScheme-Blue-3    { color:#2b3c4d; }
      .ExScheme-Yellow-1  { color:#faffa5; }
      .ExScheme-Yellow-2  { color:#cac726; }
      .ExScheme-Yellow-3  { color:#4b4d2b; }
      .ExScheme-Orange-1  { color:#ffdaa5; }
      .ExScheme-Orange-2  { color:#ff9701; }
      .ExScheme-Orange-3  { color:#4d372b; }
      .ExScheme-Brown-1   { color:#e9d6bb; }
      .ExScheme-Brown-2   { color:#997657; }
      .ExScheme-Brown-3   { color:#433a35; }
      .ExScheme-Purple-1  { color:#e2abf9; }
      .ExScheme-Purple-2  { color:#b401ff; }
      .ExScheme-Purple-3  { color:#432b4d; }
      .ExScheme-Cyan-1    { color:#b2f2e6; }
      .ExScheme-Cyan-2    { color:#31bfa6; }
      .ExScheme-Cyan-3    { color:#2b4d47; }
      .ExScheme-Magenta-1 { color:#f8a6d8; }
      .ExScheme-Magenta-2 { color:#f00091; }
      .ExScheme-Magenta-3 { color:#770048; }
  </style><linearGradient id="gradientDark"><stop offset="0"/><stop offset="1" stop-opacity="0"/></linearGradient><linearGradient id="gradientLight"><stop offset="0" stop-color="#fff"/><stop offset="1" stop-color="#fff" stop-opacity="0"/></linearGradient><style class="toggle-enable-crease" type="text/css">.folder-crease { display: none; }
  </style><style class="toggle-manilla-folders" type="text/css">.folder-manilla { display: none; }
  </style><radialGradient cx=".5" cy="0" id="gl1" r="1" xlink:href="#gradientLight"/><linearGradient id="gd1" xlink:href="#gradientDark" y1="1" y2=".5"/><radialGradient cx="5.94" cy="32" fx="5.94" fy="32" gradientTransform="matrix(0,1.997,-2.049,0,97.575,-5.9226)" gradientUnits="userSpaceOnUse" id="radialGradient4483" r="26" xlink:href="#gradientLight"/><path -inkscape-stroke="none" d="M 9,6 C 7.338,6 6,7.338 6,9 v 46 c 0,1.662 1.338,3 3,3 h 46 c 1.662,0 3,-1.338 3,-3 V 9 C 58,7.338 56.662,6 55,6 h -5 v 31 c 0,1.108 -0.892,2 -2,2 h -4 c -1.108,0 -2,-0.892 -2,-2 V 6 Z" id="use-path-6" stop-color="#000000" stroke-opacity="0"/></defs><g id="content"><namedview bordercolor="#666666" borderopacity="1.0" current-layer="svg47" cx="23.42" cy="25.37" pagecheckerboard="0" pagecolor="#ffffff" pageopacity="0.0" pageshadow="2" showgrid="true" window-height="1017" window-maximized="1" window-width="1920" window-x="0" window-y="0" zoom="11.313708"><grid type="xygrid"/></namedview><path -inkscape-stroke="none" d="M 9,6 C 7.338,6 6,7.338 6,9 v 46 c 0,1.662 1.338,3 3,3 h 46 c 1.662,0 3,-1.338 3,-3 V 9 C 58,7.338 56.662,6 55,6 H 54 10 Z" fill="#3daefd" id="primary-color" opacity="1" stop-color="#000000" stroke-opacity="0"/><use fill="#ffffff" href="#use-path-6" id="rect2310-2-6" opacity=".1"/><g id="emblem" transform="translate(8,26)"><path class="ColorScheme-Background" d="M 16 7 A 14 14 0 0 0 5.496 11.79 L 2.354 8.646 A 0.5 0.5 0 0 0 2 8.5 A 0.5 0.5 0 0 0 1.646 8.646 A 0.5 0.5 0 0 0 1.646 9.354 L 4.844 12.55 A 14 14 0 0 0 2 21 L 2 23 C 2 24.108 2.892 25 4 25 L 28 25 C 29.108 25 30 24.108 30 23 L 30 21 A 14 14 0 0 0 27.158 12.55 L 30.354 9.354 A 0.5 0.5 0 0 0 30.354 8.646 A 0.5 0.5 0 0 0 29.646 8.646 L 26.523 11.77 A 14 14 0 0 0 16 7 z M 10 15 A 2 2 0 0 1 12 17 A 2 2 0 0 1 10 19 A 2 2 0 0 1 8 17 A 2 2 0 0 1 10 15 z M 22 15 A 2 2 0 0 1 24 17 A 2 2 0 0 1 22 19 A 2 2 0 0 1 20 17 A 2 2 0 0 1 22 15 z " fill="currentColor" opacity=".6" stop-color="#000000"/><path class="ColorScheme-Background" d="M 16 7 A 14 14 0 0 0 5.496 11.79 L 2.354 8.646 A 0.5 0.5 0 0 0 2 8.5 A 0.5 0.5 0 0 0 1.646 8.646 A 0.5 0.5 0 0 0 1.646 9.354 L 4.844 12.55 A 14 14 0 0 0 2 21 L 2 23 C 2 24.108 2.892 25 4 25 L 28 25 C 29.108 25 30 24.108 30 23 L 30 21 A 14 14 0 0 0 27.158 12.55 L 30.354 9.354 A 0.5 0.5 0 0 0 30.354 8.646 A 0.5 0.5 0 0 0 29.646 8.646 L 26.523 11.77 A 14 14 0 0 0 16 7 z M 16 7.5 L 16.002 7.5 C 19.888 7.5 23.586 9.177 26.148 12.1 A .5 .5 0 0 0 26.877 12.123 L 26.805 12.195 A .5 .5 0 0 0 26.76 12.852 C 28.537 15.197 29.5 18.057 29.5 21 L 29.5 23 C 29.5 23.84 28.84 24.5 28 24.5 L 4 24.5 C 3.16 24.5 2.5 23.84 2.5 23 L 2.5 21 C 2.502 18.058 3.465 15.198 5.242 12.854 A .5 .5 0 0 0 5.197 12.197 L 5.143 12.143 A .5 .5 0 0 0 5.873 12.117 C 8.428 9.193 12.117 7.51 16 7.5 z M 10 14.5 C 8.625 14.5 7.5 15.625 7.5 17 C 7.5 18.375 8.625 19.5 10 19.5 C 11.375 19.5 12.5 18.375 12.5 17 C 12.5 15.625 11.375 14.5 10 14.5 z M 22 14.5 C 20.625 14.5 19.5 15.625 19.5 17 C 19.5 18.375 20.625 19.5 22 19.5 C 23.375 19.5 24.5 18.375 24.5 17 C 24.5 15.625 23.375 14.5 22 14.5 z M 10 15 A 2 2 0 0 1 12 17 A 2 2 0 0 1 10 19 A 2 2 0 0 1 8 17 A 2 2 0 0 1 10 15 z M 22 15 A 2 2 0 0 1 24 17 A 2 2 0 0 1 22 19 A 2 2 0 0 1 20 17 A 2 2 0 0 1 22 15 z " fill="currentColor" opacity=".6"/></g><use fill="url(#radialGradient4483)" href="#use-path-6" id="rect2310-2" opacity=".2"/><path -inkscape-stroke="none" d="M 6 54 L 6 55 C 6 56.662 7.338 58 9 58 L 55 58 C 56.662 58 58 56.662 58 55 L 58 54 C 58 55.662 56.662 57 55 57 L 9 57 C 7.338 57 6 55.662 6 54 z " id="rect2310-6" opacity=".1" stop-color="#000000" stroke-opacity="0"/><path -inkscape-stroke="none" d="M 6 54.5 L 6 55 C 6 56.662 7.338 58 9 58 L 55 58 C 56.662 58 58 56.662 58 55 L 58 54.5 C 58 56.162 56.662 57.5 55 57.5 L 9 57.5 C 7.338 57.5 6 56.162 6 54.5 z " id="rect2310-6-9" opacity=".2" stop-color="#000000" stroke-opacity="0"/><path -inkscape-stroke="none" d="M 9,6 C 7.338,6 6,7.338 6,9 v 1 C 6,8.338 7.338,7 9,7 H 42 V 6 Z m 41,0 v 1 h 5 c 1.662,0 3,1.338 3,3 V 9 C 58,7.338 56.662,6 55,6 Z" fill="#fefefe" id="rect2310-6-3" opacity=".1" stop-color="#000000" stroke-opacity="0"/><path -inkscape-stroke="none" d="M 9,6 C 7.338,6 6,7.338 6,9 v 0.5 c 0,-1.662 1.338,-3 3,-3 H 42 V 6 Z m 41,0 v 0.5 h 5 c 1.662,0 3,1.338 3,3 V 9 C 58,7.338 56.662,6 55,6 Z" fill="#fefefe" id="rect2310-6-9-6" opacity=".2" stop-color="#000000" stroke-opacity="0"/><path d="m 42,6 v 31 c 0,1.108 0.892,2 2,2 h 4 c 1.108,0 2,-0.892 2,-2 V 6 Z m 3,0 h 2 v 4 h -2 z m -1,2 v 2 c 0,0.554 0.446,1 1,1 h 2 c 0.554,0 1,-0.446 1,-1 V 8 c 0.554,0 1,0.446 1,1 v 7 c 0,0.554 -0.446,1 -1,1 h -4 c -0.554,0 -1,-0.446 -1,-1 V 9 c 0,-0.554 0.446,-1 1,-1 z m 1,4 c -0.554,0 -1,0.446 -1,1 v 2 c 0,0.554 0.446,1 1,1 h 2 c 0.554,0 1,-0.446 1,-1 v -2 c 0,-0.554 -0.446,-1 -1,-1 z m 1,7 v 2 h 2 v 2 h -2 v 2 h 2 v 2 h -2 v 2 h 2 v 2 h -2 v 2 h 2 v 2 2 h -2 -2 v -2 h 2 v -2 h -2 v -2 h 2 v -2 h -2 v -2 h 2 v -2 h -2 v -2 h 2 v -2 h -2 v -2 z" fill="#050505" id="rect279192-9-5-7-5-6" opacity=".4" stop-color="#000000"/><path d="m 44,8 c -0.554,0 -1,0.446 -1,1 v 7 c 0,0.554 0.446,1 1,1 h 4 c 0.554,0 1,-0.446 1,-1 V 9 C 49,8.446 48.554,8 48,8 v 2 c 0,0.554 -0.446,1 -1,1 h -2 c -0.554,0 -1,-0.446 -1,-1 z m 1,4 h 2 c 0.554,0 1,0.446 1,1 v 2 c 0,0.554 -0.446,1 -1,1 h -2 c -0.554,0 -1,-0.446 -1,-1 v -2 c 0,-0.554 0.446,-1 1,-1 z" fill="#ffffff" opacity=".6" stop-color="#000000"/><path d="m 45,6 v 4 h 2 V 6 Z" fill="#ffffff" opacity=".6" stop-color="#000000"/><g transform="translate(-802,-366)"><path d="m 848,385 h -2 v 2 h 2 z m 0,2 v 2 h 2 v -2 z m 0,2 h -2 v 2 h 2 z m 0,2 v 2 h 2 v -2 z m 0,2 h -2 v 2 h 2 z m 0,2 v 2 h 2 v -2 z m 0,2 h -2 v 2 h 2 z m 0,2 v 2 h -2 v 2 h 2 2 v -2 -2 z" fill="#ffffff" opacity=".6" stop-color="#000000"/></g><path d="m 42,37 v 1 c 0,1.108 0.892,2 2,2 h 4 c 1.108,0 2,-0.892 2,-2 v -1 c 0,1.108 -0.892,2 -2,2 h -4 c -1.108,0 -2,-0.892 -2,-2 z" fill="#f9ffff" id="rect90872" opacity=".1" stop-color="#000000"/><path d="m 42,37 v 0.5 c 0,1.108 0.892,2 2,2 h 4 c 1.108,0 2,-0.892 2,-2 V 37 c 0,1.108 -0.892,2 -2,2 h -4 c -1.108,0 -2,-0.892 -2,-2 z" fill="#f9ffff" id="rect90872-3" opacity=".2" stop-color="#000000"/></g></svg>