<?xml version="1.0" encoding="UTF-8" standalone="no"?>
<svg
   xmlns:dc="http://purl.org/dc/elements/1.1/"
   xmlns:cc="http://creativecommons.org/ns#"
   xmlns:rdf="http://www.w3.org/1999/02/22-rdf-syntax-ns#"
   xmlns:svg="http://www.w3.org/2000/svg"
   xmlns="http://www.w3.org/2000/svg"
   xmlns:xlink="http://www.w3.org/1999/xlink"
   xmlns:sodipodi="http://sodipodi.sourceforge.net/DTD/sodipodi-0.dtd"
   xmlns:inkscape="http://www.inkscape.org/namespaces/inkscape"
   width="64"
   version="1.1"
   viewBox="0 0 64 64"
   height="64"
   id="svg2"
   inkscape:version="0.91 r13725"
   sodipodi:docname="android-package-archive.svg">
  <sodipodi:namedview
     pagecolor="#ffffff"
     bordercolor="#666666"
     borderopacity="1"
     objecttolerance="10"
     gridtolerance="10"
     guidetolerance="10"
     inkscape:pageopacity="0"
     inkscape:pageshadow="2"
     inkscape:window-width="1920"
     inkscape:window-height="1025"
     id="namedview33"
     showgrid="true"
     inkscape:object-nodes="true"
     inkscape:zoom="5.2149125"
     inkscape:cx="39.420229"
     inkscape:cy="4.6317022"
     inkscape:window-x="0"
     inkscape:window-y="26"
     inkscape:window-maximized="1"
     inkscape:current-layer="svg2">
    <inkscape:grid
       type="xygrid"
       id="grid4162" />
  </sodipodi:namedview>
  <defs
     id="defs4">
    <linearGradient
       inkscape:collect="always"
       id="linearGradient4300">
      <stop
         style="stop-color:#26c281"
         id="stop4302" />
      <stop
         offset="1"
         style="stop-color:#3fc380"
         id="stop4304" />
    </linearGradient>
    <linearGradient
       inkscape:collect="always"
       xlink:href="#linearGradient4300"
       id="linearGradient4178"
       y1="541.79797"
       y2="499.78421"
       x2="0"
       gradientUnits="userSpaceOnUse"
       gradientTransform="matrix(-1,0,0,0.99967455,448.57143,-483.62155)" />
  </defs>
  <metadata
     id="metadata84">
    <rdf:RDF>
      <cc:Work
         rdf:about="">
        <dc:format>image/svg+xml</dc:format>
        <dc:type
           rdf:resource="http://purl.org/dc/dcmitype/StillImage" />
      </cc:Work>
    </rdf:RDF>
  </metadata>
  <path
     style="fill:url(#linearGradient4178);fill-opacity:1.0"
     d="m 38,6 4,4 18,0 0,48 L 4,58 4,6 Z"
     id="rect4113"
     inkscape:connector-curvature="0"
     sodipodi:nodetypes="ccccccc" />
  <path
     inkscape:connector-curvature="0"
     style="fill:#2e3132;fill-opacity:0.29411765"
     id="path4151-2"
     d="m 4,58.0001 56,0 0,-1 -56,0 c 0,-1e-4 0,1 0,1 z"
     sodipodi:nodetypes="ccccc" />
  <path
     inkscape:connector-curvature="0"
     style="fill:#036b53;fill-opacity:1"
     d="m 42,10 0,2 2,0 0,-2 -2,0 z m 2,2 0,2 2,0 0,-2 -2,0 z m 0,2 -2,0 0,2 2,0 0,-2 z m 0,2 0,2 2,0 0,-2 -2,0 z m 0,2 -2,0 0,2 2,0 0,-2 z m 0,2 0,2 2,0 0,-2 -2,0 z m 0,2 -2,0 0,2 2,0 0,-2 z m -2,3 0,4 1,0 0,4 2,0 0,-4 1,0 0,-4 -4,0 z m 1,1 2,0 0,2 -2,0 0,-2 z"
     id="rect4173-3" />
  <path
     style="fill:#ffffff;fill-opacity:0.40983599"
     d="M 4,6 4,7 39,7 38,6 4,6 Z"
     id="rect4236-5"
     inkscape:connector-curvature="0" />
  <path
     style="fill:#036b53"
     d="m 18,32 a 11,11 0 0 0 -7.921875,3.371094 l -1.724609,-1.72461 c -0.09421,-0.09737 -0.223892,-0.152343 -0.359375,-0.152343 -0.449403,9.1e-5 -0.670588,0.54684 -0.347657,0.859375 l 1.769532,1.769531 A 11,11 0 0 0 7,43 l 0,11 22,0 0,-11 a 11,11 0 0 0 -2.421875,-6.869141 l 1.777344,-1.777343 c 0.322931,-0.312535 0.101746,-0.859284 -0.347657,-0.859375 -0.135483,0 -0.265165,0.05497 -0.359374,0.152343 l -1.732422,1.732422 A 11,11 0 0 0 18,32 Z m 0,1 a 10,10 0 0 1 10,10 l 0,2 -20,0 0,-2 A 10,10 0 0 1 18,33 Z m -5.5,5 A 1.5,1.5 0 0 0 11,39.5 1.5,1.5 0 0 0 12.5,41 1.5,1.5 0 0 0 14,39.5 1.5,1.5 0 0 0 12.5,38 Z m 11,0 A 1.5,1.5 0 0 0 22,39.5 1.5,1.5 0 0 0 23.5,41 1.5,1.5 0 0 0 25,39.5 1.5,1.5 0 0 0 23.5,38 Z M 8,46 l 8,0 0,1 2,0 0,-1 10,0 0,7 -20,0 0,-7 z m 10,1 0,2 2,0 0,-2 -2,0 z m 0,2 -2,0 0,1 0,2 4,0 0,-2 -2,0 0,-1 z"
     id="rect4173"
     inkscape:connector-curvature="0" />
</svg>
