<?xml version="1.0" encoding="UTF-8" standalone="no"?>
<svg
   xmlns:dc="http://purl.org/dc/elements/1.1/"
   xmlns:cc="http://creativecommons.org/ns#"
   xmlns:rdf="http://www.w3.org/1999/02/22-rdf-syntax-ns#"
   xmlns:svg="http://www.w3.org/2000/svg"
   xmlns="http://www.w3.org/2000/svg"
   xmlns:xlink="http://www.w3.org/1999/xlink"
   xmlns:sodipodi="http://sodipodi.sourceforge.net/DTD/sodipodi-0.dtd"
   xmlns:inkscape="http://www.inkscape.org/namespaces/inkscape"
   width="64"
   version="1.1"
   viewBox="0 0 64 64"
   height="64"
   id="svg2"
   inkscape:version="0.91 r13725"
   sodipodi:docname="application-x-partial-download.svg">
  <sodipodi:namedview
     pagecolor="#ffffff"
     bordercolor="#666666"
     borderopacity="1"
     objecttolerance="10"
     gridtolerance="10"
     guidetolerance="10"
     inkscape:pageopacity="0"
     inkscape:pageshadow="2"
     inkscape:window-width="1920"
     inkscape:window-height="1025"
     id="namedview24"
     showgrid="false"
     inkscape:zoom="1"
     inkscape:cx="8.3998075"
     inkscape:cy="31.481234"
     inkscape:window-x="0"
     inkscape:window-y="26"
     inkscape:window-maximized="1"
     inkscape:current-layer="svg2"
     inkscape:snap-bbox="true"
     inkscape:bbox-nodes="true">
    <inkscape:grid
       type="xygrid"
       id="grid4143" />
  </sodipodi:namedview>
  <defs
     id="defs4">
    <style
       id="current-color-scheme"
       type="text/css">
      .ColorScheme-Text {
        color:#4d4d4d;
      }
      </style>
    <linearGradient
       gradientUnits="userSpaceOnUse"
       x2="0"
       y2="512.79999"
       y1="543.79999"
       id="a">
      <stop
         id="stop4264"
         stop-color="#cea476" />
      <stop
         id="stop4266"
         stop-color="#dab58b"
         offset="1" />
    </linearGradient>
    <linearGradient
       inkscape:collect="always"
       xlink:href="#linearGradient9654"
       id="linearGradient9966"
       gradientUnits="userSpaceOnUse"
       x1="40"
       y1="17"
       x2="54"
       y2="31" />
    <linearGradient
       inkscape:collect="always"
       id="linearGradient9654">
      <stop
         style="stop-color:#060606;stop-opacity:1"
         offset="0"
         id="stop9656" />
      <stop
         style="stop-color:#000000;stop-opacity:0"
         offset="1"
         id="stop9658" />
    </linearGradient>
    <linearGradient
       inkscape:collect="always"
       xlink:href="#linearGradient6251"
       id="linearGradient7179"
       gradientUnits="userSpaceOnUse"
       gradientTransform="translate(-108,-332.36221)"
       x1="58"
       y1="392.36221"
       x2="58"
       y2="336.36221" />
    <linearGradient
       inkscape:collect="always"
       id="linearGradient6251">
      <stop
         style="stop-color:#ffffff;stop-opacity:0"
         offset="0"
         id="stop6253" />
      <stop
         style="stop-color:#ffffff;stop-opacity:0.2"
         offset="1"
         id="stop6255" />
    </linearGradient>
    <linearGradient
       inkscape:collect="always"
       xlink:href="#linearGradient6251"
       id="linearGradient7179-6"
       gradientUnits="userSpaceOnUse"
       gradientTransform="translate(-58,-335.36221)"
       x1="58"
       y1="392.36221"
       x2="58"
       y2="336.36221" />
  </defs>
  <metadata
     id="metadata84">
    <rdf:RDF>
      <cc:Work
         rdf:about="">
        <dc:format>image/svg+xml</dc:format>
        <dc:type
           rdf:resource="http://purl.org/dc/dcmitype/StillImage" />
        <dc:title />
      </cc:Work>
    </rdf:RDF>
  </metadata>
  <g
     id="g4244">
    <path
       sodipodi:nodetypes="cccccccccccccccccccccc"
       inkscape:export-ydpi="96"
       inkscape:export-xdpi="96"
       inkscape:connector-curvature="0"
       style="fill:#cccccc;fill-opacity:1"
       id="path6649"
       d="m 10,61 0,-57.9999998 30,0 L 54,17 54,47 54,61 51.25,59 48.5,61 45.75,59 43,61 40.25,59 37.5,61 34.75,59 32,61 29.25,59 26.5,61 23.75,59 21,61 18.25,59 15.5,61 12.75,59 Z" />
    <rect
       inkscape:export-ydpi="96"
       inkscape:export-xdpi="96"
       width="30"
       x="10"
       y="-3.9999733"
       height="1"
       style="color:#000000;clip-rule:nonzero;display:inline;overflow:visible;visibility:visible;opacity:0.5;isolation:auto;mix-blend-mode:normal;color-interpolation:sRGB;color-interpolation-filters:linearRGB;solid-color:#000000;solid-opacity:1;fill:#ffffff;fill-opacity:1;fill-rule:nonzero;stroke-width:1;stroke-linecap:butt;stroke-linejoin:miter;stroke-miterlimit:4;stroke-dasharray:none;stroke-dashoffset:0;stroke-opacity:1;color-rendering:auto;image-rendering:auto;shape-rendering:auto;text-rendering:auto;enable-background:accumulate"
       id="rect6651"
       transform="scale(1,-1)" />
    <path
       inkscape:export-ydpi="96"
       inkscape:export-xdpi="96"
       inkscape:connector-curvature="0"
       style="opacity:0.5;fill:#ffffff;fill-opacity:1;fill-rule:evenodd"
       id="path6655"
       d="M 54,17 40,3.0000002 40,17 Z" />
    <path
       inkscape:export-ydpi="96"
       inkscape:export-xdpi="96"
       d="M 40,17 54,30.99999 54,17 Z"
       id="path9878"
       style="opacity:0.2;fill:url(#linearGradient9966);fill-rule:evenodd"
       inkscape:connector-curvature="0" />
    <path
       inkscape:connector-curvature="0"
       id="path4185"
       d="M 32.142578,23 A 11,11 0 0 0 31.523438,23.0098 11,11 0 0 0 21.003906,34.318359 11,11 0 0 0 32.160156,44.998047 11,11 0 0 0 43,34 L 42.9824,33.363281 A 11,11 0 0 0 32.142578,23 Z m -0.576172,1.009766 A 10,10 0 0 1 41.98242,33.421875 L 42,34 a 10,10 0 0 1 -9.855469,9.998047 10,10 0 0 1 -10.140625,-9.708985 10,10 0 0 1 9.5625,-10.279296 z M 31,26 l 0,9 1,0 7,0 0,-1 -7,0 0,-8 -1,0 z"
       style="color:#4d4d4d;clip-rule:nonzero;display:inline;overflow:visible;visibility:visible;opacity:0.5;isolation:auto;mix-blend-mode:normal;color-interpolation:sRGB;color-interpolation-filters:linearRGB;solid-color:#000000;solid-opacity:1;fill:#000000;fill-opacity:1;fill-rule:nonzero;stroke:none;stroke-width:2;stroke-linecap:square;stroke-linejoin:miter;stroke-miterlimit:4;stroke-dasharray:none;stroke-dashoffset:0;stroke-opacity:1;color-rendering:auto;image-rendering:auto;shape-rendering:auto;text-rendering:auto;enable-background:accumulate" />
    <path
       id="path4183"
       d="m 12.75,58 -2.75,2 0,1 2.75,-2 2.75,2 2.75,-2 2.75,2 2.75,-2 2.75,2 2.75,-2 2.75,2 2.75,-2 2.75,2 2.75,-2 2.75,2 2.75,-2 2.75,2 2.75,-2 L 54,61 54,60 51.25,58 48.5,60 45.75,58 43,60 40.25,58 37.5,60 34.75,58 32,60 29.25,58 26.5,60 23.75,58 21,60 18.25,58 15.5,60 12.75,58 Z"
       style="color:#000000;clip-rule:nonzero;display:inline;overflow:visible;visibility:visible;opacity:0.25;isolation:auto;mix-blend-mode:normal;color-interpolation:sRGB;color-interpolation-filters:linearRGB;solid-color:#000000;solid-opacity:1;fill:#000000;fill-opacity:1;fill-rule:nonzero;stroke-width:1;stroke-linecap:butt;stroke-linejoin:miter;stroke-miterlimit:4;stroke-dasharray:none;stroke-dashoffset:0;stroke-opacity:1;color-rendering:auto;image-rendering:auto;shape-rendering:auto;text-rendering:auto;enable-background:accumulate"
       inkscape:connector-curvature="0" />
    <path
       d="m 10,61 0,-57.9999998 30,0 L 54,17 54,47 54,61 51.25,59 48.5,61 45.75,59 43,61 40.25,59 37.5,61 34.75,59 32,61 29.25,59 26.5,61 23.75,59 21,61 18.25,59 15.5,61 12.75,59 Z"
       id="path4203"
       style="color:#000000;clip-rule:nonzero;display:inline;overflow:visible;visibility:visible;opacity:1;isolation:auto;mix-blend-mode:normal;color-interpolation:sRGB;color-interpolation-filters:linearRGB;solid-color:#000000;solid-opacity:1;fill:url(#linearGradient7179);fill-opacity:1;fill-rule:nonzero;stroke-width:1;stroke-linecap:butt;stroke-linejoin:miter;stroke-miterlimit:4;stroke-dasharray:none;stroke-dashoffset:0;stroke-opacity:1;color-rendering:auto;image-rendering:auto;shape-rendering:auto;text-rendering:auto;enable-background:accumulate"
       inkscape:connector-curvature="0"
       inkscape:export-xdpi="96"
       inkscape:export-ydpi="96"
       sodipodi:nodetypes="cccccccccccccccccccccc" />
  </g>
</svg>
