<?xml version="1.0" encoding="utf-8"?><svg height="64" width="64" xmlns="http://www.w3.org/2000/svg" xmlns:svg="http://www.w3.org/2000/svg" xmlns:xlink="http://www.w3.org/1999/xlink"><defs id="primary-definitions"><style id="current-color-scheme" type="text/css">.ColorScheme-Text           { color:#fff; }
      .ColorScheme-Background     { color:#111; }
      .ColorScheme-Highlight      { color:#3daefd; }
      .ColorScheme-ViewBackground { color:#000; }
      .ColorScheme-PositiveText   { color:#27ae60; }
      .ColorScheme-NeutralText    { color:#f67400; }
      .ColorScheme-NegativeText   { color:#da4453; }
  </style><style id="extended-color-scheme" type="text/css">.ExScheme-Black     { color:#3e3e3e; }
      .ExScheme-White     { color:#fcfcfc; }
      .ExScheme-Grey-1    { color:#cfd5d5; }
      .ExScheme-Grey-2    { color:#909c9c; }
      .ExScheme-Grey-3    { color:#536161; }
      .ExScheme-Red-1     { color:#ffafa5; }
      .ExScheme-Red-2     { color:#bf4231; }
      .ExScheme-Red-3     { color:#4d2f2b; }
      .ExScheme-Green-1   { color:#abf9c7; }
      .ExScheme-Green-2   { color:#3bb566; }
      .ExScheme-Green-3   { color:#377d50; }
      .ExScheme-Blue-1    { color:#abdaf9; }
      .ExScheme-Blue-2    { color:#3daefd; }
      .ExScheme-Blue-3    { color:#2b3c4d; }
      .ExScheme-Yellow-1  { color:#faffa5; }
      .ExScheme-Yellow-2  { color:#cac726; }
      .ExScheme-Yellow-3  { color:#4b4d2b; }
      .ExScheme-Orange-1  { color:#ffdaa5; }
      .ExScheme-Orange-2  { color:#ff9701; }
      .ExScheme-Orange-3  { color:#4d372b; }
      .ExScheme-Brown-1   { color:#e9d6bb; }
      .ExScheme-Brown-2   { color:#997657; }
      .ExScheme-Brown-3   { color:#433a35; }
      .ExScheme-Purple-1  { color:#e2abf9; }
      .ExScheme-Purple-2  { color:#b401ff; }
      .ExScheme-Purple-3  { color:#432b4d; }
      .ExScheme-Cyan-1    { color:#b2f2e6; }
      .ExScheme-Cyan-2    { color:#31bfa6; }
      .ExScheme-Cyan-3    { color:#2b4d47; }
      .ExScheme-Magenta-1 { color:#f8a6d8; }
      .ExScheme-Magenta-2 { color:#f00091; }
      .ExScheme-Magenta-3 { color:#770048; }
  </style><linearGradient id="gradientDark"><stop offset="0"/><stop offset="1" stop-opacity="0"/></linearGradient><linearGradient id="gradientLight"><stop offset="0" stop-color="#fff"/><stop offset="1" stop-color="#fff" stop-opacity="0"/></linearGradient><style class="toggle-enable-crease" type="text/css">.folder-crease { display: none; }
  </style><style class="toggle-manilla-folders" type="text/css">.folder-manilla { display: none; }
  </style><radialGradient cx=".5" cy="0" id="gl1" r="1" xlink:href="#gradientLight"/><linearGradient id="gd1" xlink:href="#gradientDark" y1="1" y2=".5"/><radialGradient cx="5.94" cy="32" fx="5.94" fy="32" gradientTransform="matrix(0,1.997,-2.049,0,97.575,-5.9226)" gradientUnits="userSpaceOnUse" id="radialGradient4483" r="26" xlink:href="#gradientLight"/><path -inkscape-stroke="none" d="M 9,6 C 7.338,6 6,7.338 6,9 v 46 c 0,1.662 1.338,3 3,3 h 46 c 1.662,0 3,-1.338 3,-3 V 9 C 58,7.338 56.662,6 55,6 h -5 v 31 c 0,1.108 -0.892,2 -2,2 h -4 c -1.108,0 -2,-0.892 -2,-2 V 6 Z" id="use-path-j" stop-color="#000000" stroke-opacity="0"/></defs><g id="content"><namedview bordercolor="#666666" borderopacity="1.0" current-layer="svg47" cx="23.42" cy="25.37" pagecheckerboard="0" pagecolor="#ffffff" pageopacity="0.0" pageshadow="2" showgrid="true" window-height="1017" window-maximized="1" window-width="1920" window-x="0" window-y="0" zoom="11.313708"><grid type="xygrid"/></namedview><path -inkscape-stroke="none" d="M 9,6 C 7.338,6 6,7.338 6,9 v 46 c 0,1.662 1.338,3 3,3 h 46 c 1.662,0 3,-1.338 3,-3 V 9 C 58,7.338 56.662,6 55,6 H 54 10 Z" fill="#3daefd" id="primary-color" opacity="1" stop-color="#000000" stroke-opacity="0"/><use fill="#ffffff" href="#use-path-j" id="rect2310-2-6" opacity=".1"/><g id="emblem" transform="translate(8,26)"><path class="ColorScheme-Background" clip-rule="nonzero" color-interpolation="sRGB" color-interpolation-filters="linearRGB" color-rendering="auto" connector-curvature="0" d="M 17.815,28.926 C 16.42,28.694 14.42,27.904 13.182,27.096 10.46,25.322 8.684,23.35 7.585,20.89 7.22,20.073 7.02,19.438 6.45,17.28 6.307,16.743 6.13,16.152 6.056,15.966 5.626,14.62 6.2,12.167 6.29,12.025 6.435,12.146 6.595,11.772 6.696,11.077 6.806,9.837 7.377,8.92 7.906,8.107 8.335,7.292 8.598,7.033 8.672,7.047 8.743,7.06 8.86,6.97 8.985,6.807 9.522,6.098 12.054,4.005 12.288,4.077 c .064,.02 1.278,-.478 1.278,-.37 -.694,.485 1.355,-.473 1.356,-.13 0,.08 .814,-.1 .814,-.17 0,-.088 1.976,.035 2.362,.095 1.324,.345 1.455,-.47 1.912,-.077 2.312,.352 4.386,1.893 5.516,3.398 .474,.618 -.115,.176 -.115,.176 0,0 1.254,2.232 1.22,2.328 -.014,.04 -.233,-.232 -.487,-.606 -.254,-.374 -1.22,-1.544 -1.283,-1.467 -.042,.052 -.068,.667 -.055,.628 .07,-.205 1.014,1.4 1.014,1.4 L 25.404,9.022 c 0,0 .54,.73 .543,.91 .008,.333 .207,.727 .315,.623 .365,-.297 -.026,.517 .22,1.39 .263,1.05 -.18,-.027 -.135,.328 .1,.274 .175,.684 .155,.845 -.04,.3 -.236,-.584 -.236,-.584 0,0 -.222,2.01 -.2,2.166 .04,.292 .012,.304 -.243,.094 -.104,-.085 -.094,1.567 -.326,1.15 0,-.232 -.092,-.15 -.373,.335 -.76,1.307 -1.96,2.32 -3.318,2.796 -.8,.28 -1.338,.386 -2.24,.435 l -.813,.045 c 0,0 .916,.23 1.385,.193 .614,-.048 1.88,-.344 1.925,-.302 .106,.102 -.838,.503 -1.398,.594 -.954,.155 -2.23,-.013 -3.357,-.44 -.765,-.28 -1.9,-1.044 -1.725,-1.147 .033,-.02 .25,.08 .48,.22 .295,.18 .42,.226 .42,.16 -.255,-.405 .708,.373 1.61,.588 .51,.148 .313,-.03 -.373,-.338 -2.17,-.97 -3.07,-1.94 -3.518,-3.792 -.69,-2.104 .746,-3.82 1.358,-4.336 .81,-.777 1.652,-1.1 2.745,-1.052 .528,.023 .754,.068 1.194,.236 .5,.19 1.127,.59 .935,.594 -.045,9.57e-4 -.244,-.063 -.44,-.142 -.3,-.12 -.492,-.144 -1.172,-.146 -.955,-.004 -1.422,.126 -2.102,.585 -.964,.65 -1.5,1.4 -1.69,2.363 -.127,.646 -.13,.825 -.032,1.465 .134,.958 .204,.088 .264,.54 0,.23 .52,1.157 .878,1.572 .866,1 3.452,2.247 5.356,1.235 .206,-.11 1.218,-.71 1.504,-1.128 .16,-.232 .332,-.422 .384,-.422 -.254,.913 1.17,-1.4 1.17,-1.4 0,0 -.082,-.83 .115,-1.03 .19,-.19 .207,-.248 .23,-.76 .02,-.457 .006,-.552 -0.078,-.553 -.078,-4.45e-4 -.112,-.12 -.145,-.52 C 24.63,11.87 24.18,10.088 24.075,10.026 24.044,10.008 23.956,9.836 23.88,9.646 23.626,9.002 23.18,8.383 22.482,7.71 21.48,6.74 20.216,5.99 19.023,5.658 c -1.015,-.283 -2.738,-.18 -3.966,.236 -.6,.203 -1.4,.665 -1.435,.644 -.037,-.022 -.5,.078 -.983,.504 -.292,.257 -.285,.44 -.36,.573 -.048,.086 -.296,.24 -.6,.372 -1.668,1.016 -1.028,.95 -1.028,.987 0,.186 -.176,.393 -.436,.515 -.577,.27 -1.59,1.707 -2.135,3.026 -.242,.588 -.238,.568 -.107,.568 .325,-.04 -.592,1.022 -.037,3.773 .368,2.028 .584,2.706 .993,3.125 .096,.098 .19,.308 .23,.518 .05,.25 .133,.417 .29,.575 .142,.144 .19,.232 .135,.25 -.107,.037 .228,.518 .535,.765 .154,.124 .268,.166 .392,.144 .27,-.05 .547,.1 .97,.527 .44,.444 .485,.563 .193,.522 -.188,-.026 -.192,-.022 -.1,.114 .053,0.078 .25,.265 .436,.417 .262,.212 .33,.304 .297,.404 -.047,.143 .088,.277 .393,.39 .19,.07 .25,.22 .108,.265 -.043,.014 .224,.277 .593,.586 .416,.348 .696,.538 .736,.5 .105,-.098 .24,-.068 .243,.054 .002,.133 .122,.273 .553,.647 .272,.236 .34,.266 .507,.222 .153,-.04 .25,-.014 .464,.125 .43,.278 .69,.39 .912,.39 .22,0 .25,.06 .137,.265 -.06,.108 -.047,.126 .09,.126 .09,0 .34,.06 .555,.13 .493,.163 .698,.174 .575,.03 -.182,-.21 .01,-.153 .663,.197 .91,.49 1.372,.546 3.186,.387 .27,-.024 .356,-.01 .356,.056 0,.056 -.233,.14 -.66,.24 -.563,.13 -.863,.156 -2.017,.17 -.91,.01 -1.53,-.013 -1.886,-.072 z M 14.854,18.34 c 0,-.1 .024,-.18 .052,-.18 .098,0 1.252,1.156 1.227,1.23 -.015,.042 -1.28,-.86 -1.28,-1.048 z m .59,-.297 c -.36,-.348 -.474,-.535 -.33,-.535 .087,0 .754,.733 .754,.83 0,.045 -.213,-.087 -.426,-.294 z m 3.968,-1.424 c -.19,-.073 -.07,-.21 .237,-.273 .177,-.037 .94,-.316 .956,-.3 .015,.014 -.365,.617 -.735,.612 -.205,-.002 -.41,-.02 -.458,-.038 z m 2.034,-1.455 c -.183,-.07 -.19,-.19 -.038,-.6 .13,-.35 .47,-.552 .503,-.532 .084,.05 .075,.564 -.016,.91 -.08,.302 -.15,.337 -.45,.222 z m .266,-2.338 c -.105,-.137 -.138,-.245 -.108,-.36 .06,-.235 .222,-.2 .34,.07 .184,.423 .024,.62 -.232,.288 z M 14.055,3.446 c .027,-.078 .962,-.446 1.135,-.446 .203,0 -.16,.238 -.57,.38 -.468,.158 -.592,.173 -.555,.066 z" display="inline" enable-background="accumulate" fill="currentColor" image-rendering="auto" isolation="auto" mix-blend-mode="normal" opacity=".6" overflow="visible" shape-rendering="auto" solid-color="#000000" solid-opacity="1" text-rendering="auto" visibility="visible"/><path class="ColorScheme-Background" d="m 15.19,3 c -.173,0 -1.107,.367 -1.135,.445 -.037,.107 .087,.094 .555,-.064 C 15.03,3.24 15.392,3 15.19,3 Z m 4.588,.318 c -.316,-.02 -.604,.466 -1.68,.186 -.386,-.06 -2.36,-.183 -2.36,-.096 0,.068 -.814,.25 -.814,.17 -0.001,-.344 -2.04,.614 -1.355,.13 0,-.11 -1.213,.39 -1.277,.37 C 12.055,4.005 9.522,6.097 8.984,6.807 8.86,6.97 8.743,7.06 8.672,7.047 8.598,7.033 8.336,7.292 7.906,8.107 7.378,8.92 6.805,9.836 6.695,11.076 6.663,11.3 6.624,11.474 6.582,11.625 c .008,.005 .02,.01 .027,.016 -.01,-.003 -.02,-.005 -.03,-.008 -.09,.315 -.193,.474 -.29,.393 -.09,.14 -.663,2.597 -.232,3.94 .074,.186 .25,.776 .393,1.312 .57,2.158 .77,2.794 1.136,3.61 1.1,2.46 2.877,4.43 5.598,6.205 1.24,.808 3.238,1.598 4.633,1.83 .356,.06 .977,.083 1.887,.072 1.154,-.014 1.455,-.04 2.018,-.17 .428,-.1 .66,-.184 .66,-.24 0,-.066 -.087,-.08 -.355,-.057 -1.814,.16 -2.275,.103 -3.186,-.387 -.652,-.35 -.847,-.408 -.664,-.197 .124,.143 -.08,.13 -.574,-.03 -.217,-.072 -.466,-.13 -.555,-.13 -.14,0 -.152,-.017 -.092,-0.125 .114,-.204 .082,-.266 -.137,-.266 -.223,0 -.483,-.11 -.912,-.39 -.215,-.14 -.31,-.165 -.463,-0.125 -.167,.044 -.236,.013 -.508,-.223 -.43,-.373 -.548,-.513 -.55,-.646 -.002,-.122 -.14,-.15 -.244,-.053 -.04,.037 -.32,-.152 -.736,-0.5 -.106,-.09 -.175,-.156 -.26,-.232 -.01,.008 -.018,.01 -.033,.02 .01,-.01 .018,-.02 .027,-.027 -.205,-.186 -.357,-.338 -.326,-.348 .143,-.046 .08,-.196 -.11,-.266 -.306,-.112 -.44,-.245 -.393,-.39 .033,-.1 -.034,-.192 -.297,-.404 -.187,-.15 -.384,-.338 -.438,-.416 -.093,-.136 -.087,-.142 .102,-.115 .292,.04 .247,-.078 -.193,-.52 -.424,-.427 -.702,-.577 -.973,-.527 -.124,.023 -.237,-.018 -.39,-.143 -.11,-.09 -.22,-.208 -.314,-.326 -.017,.01 -.034,.023 -.05,.03 .017,-.006 .032,-.02 .05,-.03 -.17,-.21 -.287,-.414 -.22,-.438 .055,-.02 .007,-.108 -.135,-.252 C 9.293,20.916 9.21,20.75 9.16,20.5 9.12,20.29 9.026,20.08 8.93,19.98 8.52,19.56 8.304,18.884 7.936,16.855 7.38,14.104 8.298,13.04 7.973,13.082 c -.123,0 -.124,-0 .07,-.475 -.05,-.012 -.102,-.025 -.133,-.02 l .062,-.004 c -.023,0 .04,.014 .072,.02 .014,-.033 .02,-.05 .035,-.088 .543,-1.32 1.557,-2.758 2.135,-3.027 .26,-.12 .436,-.328 .436,-.514 0,-.038 -.638,.028 1.03,-.988 .305,-.133 .552,-.286 .6,-.37 .074,-.134 .067,-.317 .36,-.574 .483,-.425 .948,-.524 .984,-.502 .035,.02 .834,-.442 1.434,-.645 1.228,-.416 2.952,-.52 3.967,-.236 1.193,.332 2.456,1.08 3.46,2.05 .697,.674 1.144,1.294 1.398,1.938 .075,.19 .164,.36 .195,.38 .105,.062 .553,1.845 .598,2.375 .034,.4 .068,.52 .146,.52 .084,5.2e-4 .096,.097 .076,.555 -.022,.51 -.04,.567 -.23,.758 -.197,.2 -.115,1.03 -.115,1.03 0,0 -1.422,2.312 -1.168,1.398 -.052,0 -.226,.192 -.385,.424 -.286,.418 -1.298,1.017 -1.504,1.127 -1.904,1.013 -4.492,-.236 -5.357,-1.234 -.36,-.415 -.877,-1.343 -.877,-1.572 -.06,-.453 -.13,.418 -.264,-.54 -.1,-.64 -.096,-.82 .03,-1.467 .19,-.962 .726,-1.71 1.69,-2.36 .68,-.46 1.147,-.59 2.102,-.586 .68,.003 .872,.027 1.172,.146 .197,.08 .394,.142 .44,.14 .192,-.004 -.435,-.403 -.934,-.594 -.44,-.168 -.665,-.21 -1.193,-.234 -1.093,-.048 -1.936,.273 -2.746,1.05 -.612,.515 -2.048,2.232 -1.357,4.336 .45,1.85 1.35,2.82 3.518,3.79 .686,.307 .884,.488 .373,.34 -.902,-.216 -1.866,-.995 -1.61,-.59 0,.067 -.125,.02 -.42,-.158 -.23,-.14 -.446,-.238 -.48,-.22 -.174,.103 .96,.857 1.725,1.146 1.127,.427 2.404,.594 3.357,.44 .56,-.09 1.505,-.492 1.398,-.594 -.045,-.043 -1.312,.255 -1.926,.303 -.47,.036 -1.385,-.193 -1.385,-.193 l .814,-.045 c .903,-.05 1.44,-.154 2.24,-.436 1.36,-.477 2.56,-1.49 3.318,-2.797 .28,-.484 .373,-.566 .373,-.334 .232,.407 .223,-1.245 .326,-1.15 .255,.21 .283,.2 .242,-.094 -.022,-.155 .2,-2.166 .2,-2.166 0,0 .197,.884 .236,.584 .02,-.16 -.054,-.572 -.154,-.846 -.043,-.355 .397,.723 .135,-.326 -.247,-.872 .144,-1.686 -.22,-1.39 -.108,.104 -.306,-.28 -.314,-.623 -.004,-.18 -.543,-.91 -.543,-.91 l .416,.262 c 0,0 -.942,-1.606 -1.014,-1.4 -.013,.038 .013,-.575 .055,-.627 .062,-.077 1.03,1.092 1.283,1.468 .254,.374 .474,.646 .488,.605 C 26.666,9.233 25.41,7 25.41,7 c 0,0 .59,.442 .115,-.176 C 24.395,5.32 22.322,3.78 20.01,3.428 19.924,3.354 19.85,3.323 19.777,3.318 Z m -.033,.516 c .057,.043 .123,.073 .19,.088 1.952,.297 3.7,1.57 4.805,2.85 -.032,.01 -.072,.02 -.072,.024 -0,6.063e-4 -.194,.147 -.195,.148 -.15,.185 -.105,.206 -.115,.252 -.01,.046 -.014,.084 -.02,0.125 -.01,.082 -.018,.168 -.023,.252 -.005,.084 -.008,.164 -.01,.227 -7.56e-4,.032 -0,.055 0,.09 6.1e-4,.017 -.007,.018 .012,.104 .005,.02 .037,.11 .037,.11 7.5e-5,1.581e-4 .088,.13 .088,.13 4e-5,4.24e-5 .113,.09 .113,.09 1.2e-5,7e-6 .033,.012 .057,.021 .075,.094 .195,.264 .31,.44 .05,.08 .053,.087 .102,.164 -.056,.117 -.063,.252 -.02,0.375 0,0 .13,.174 .256,.365 .063,.096 .125,.197 .164,.27 .04,.072 .03,.186 .025,-.01 .006,.26 .072,.486 .174,.687 .05,.1 .1,.197 .232,.305 .016,.013 .056,0.018 .076,.03 -.017,.23 -.005,.54 .06,.896 -.025,.03 -.056,.06 -.072,.088 -.023,.04 -.038,.074 -.047,.104 -.018,.06 -.02,.1 -.023,.133 -.004,.065 9.29e-4,.103 .006,.143 .004,.018 .008,.037 .014,.055 -.036,.026 -.068,.057 -.096,.092 0,0 -.056,.504 -.11,1.03 -.026,.263 -.052,.53 -.07,.744 -.003,.037 -.005,.062 -.008,.096 -.026,.013 -.05,.03 -.07,.043 -.05,.036 -.08,.07 -.102,.11 -.09,.117 -.09,.166 -.104,.21 -.025,.09 -.03,.155 -.04,.232 -.02,.148 -.035,.32 -.053,.48 -.04,.025 -.108,.046 -.13,.066 -.195,.175 -.244,.305 -.39,.557 -.055,.095 -.147,.157 -.207,.248 .226,-.345 .494,-.76 .494,-.76 .057,-.093 .083,-.202 .072,-.31 0,0 -.017,-.185 -.014,-.383 .002,-.1 .01,-.2 .02,-.26 .012,-.06 .05,-.07 -.035,.016 .107,-.108 .24,-.272 .3,-.47 .06,-.197 .06,-.36 .072,-.62 .01,-.235 .02,-.376 -.004,-.54 -.012,-.082 -.025,-.19 -.13,-.322 -.015,-.018 -.042,-.013 -.06,-.03 -.007,-.044 -.017,-.1 -.03,-.246 -.03,-.358 -.155,-.91 -.29,-1.44 -.067,-.266 -.137,-.518 -.2,-.717 -.03,-.1 -.06,-.184 -.09,-.262 -.016,-.04 -.032,-.074 -.057,-.12 -.016,-.03 -.02,-.066 -.068,-.117 .006,.013 -.006,.016 -.006,.016 -1.76e-4,-2.747e-4 -.01,-.02 -.023,-.045 v -.002 c -5.43e-4,-4.553e-4 -0,-.002 -0.002,-.002 -.026,-.022 -.06,-.045 -.107,-.072 .056,.033 .086,.055 .107,.072 -.026,-.05 -.06,-.127 -.092,-.207 C 24.058,8.733 23.56,8.056 22.83,7.35 21.77,6.323 20.45,5.536 19.158,5.176 17.972,4.846 16.235,4.966 14.896,5.42 14.552,5.537 14.192,5.71 13.906,5.852 c -.143,.07 -.265,.134 -.348,.174 -.016,.008 -0.021,.012 -.03,.016 -.042,.005 -.08,.01 -.12,.021 -.09,.02 -.19,.052 -.303,.109 -.228,.095 -.51,.254 -.797,.506 -.28,.247 -.412,.532 -.453,.65 -.014,.015 -.02,.028 -.043,.04 -.08,.05 -.2,.114 -.332,.172 -.022,.01 -.042,.02 -.062,.03 -.427,.26 -.712,.454 -.912,.61 -.2,.158 -.328,.245 -.428,.488 -.035,.083 -.01,.22 .01,.348 -.017,.018 -.003,-.003 -.085,.035 -.496,.23 -.86,.696 -1.277,1.285 -.416,.59 -.82,1.302 -1.11,2.004 -.12,.293 -.18,.383 -.223,.604 -.01,.055 -.026,.13 .008,.258 .012,.045 .068,.075 .109,.123 -.033,.125 -.073,.264 -.123,.518 -.13,.653 -.22,1.686 .066,3.12 .185,1.02 .332,1.71 .496,2.23 .164,.517 .36,.88 .63,1.156 -.038,-.04 .073,.135 .109,.268 .06,.297 .203,.57 .4,.783 .004,.103 .022,.176 .043,.23 .048,.122 .106,.21 .174,.307 .136,.195 .31,.398 .518,.564 .205,.166 .512,.298 .797,.246 .018,-.003 .013,-.015 .098,.03 .08,.043 .225,.16 .404,.336 -.038,.1 -.092,.212 -.082,.275 .014,.097 .04,.14 .057,.176 .035,.07 .06,.098 .085,.135 .083,.12 .146,.174 .236,.26 .09,.086 .193,.178 .3,.264 .083,.067 .095,.083 .117,.105 .018,.185 .103,.367 .207,.47 .087,.086 .19,.12 .29,.17 .002,.014 .005,.03 .008,.043 .01,.04 .02,.07 .03,.092 .04,.093 .067,.118 .092,.15 .05,.064 .1,.115 .16,.176 .123,.122 .29,.27 .482,.432 .216,.18 .398,.32 .55,.424 .075,.05 .14,.094 .223,.133 .04,.02 .083,.04 .166,.055 .008,.002 .034,-.013 .043,-.012 .026,.038 .027,.096 .055,.13 .12,.14 .27,.275 .49,.467 .106,.092 .202,.155 .31,.22 C 14.41,27.022 13.836,26.926 13.455,26.678 10.793,24.94 9.1,23.054 8.04,20.686 7.687,19.894 7.5,19.306 6.932,17.152 6.79,16.62 6.64,16.093 6.533,15.814 6.365,15.288 6.378,14.373 6.475,13.607 c .048,-.383 .112,-.732 .168,-.988 .018,-.082 .032,-.133 .048,-.193 .005,-.003 .015,-.003 .021,-.006 .162,-.127 .208,-.244 .266,-.365 .104,-.242 .17,-.534 .223,-.906 9.008e-4,-.01 .003,-.018 .002,-.027 .17,-1.11 .606,-1.934 1.13,-2.742 .008,-.013 .016,-.026 .023,-.04 .205,-.39 .368,-.637 .47,-.766 .023,-.03 .024,-.028 .04,-.045 .018,-.02 .047,-.055 .048,-.055 -5.232e-4,4.384e-4 -.005,.03 -.048,.055 C 8.968,7.498 9.05,7.44 9.113,7.39 9.22,7.31 9.302,7.217 9.383,7.11 9.566,6.867 10.353,6.127 11.068,5.535 c .358,-.296 .707,-.568 .97,-.754 .13,-.093 .243,-.165 .31,-.2 .01,-.007 .008,-.004 .016,-.008 .02,-.003 .04,-.005 .053,-.008 .036,-.007 .06,-.016 .088,-.023 .054,-.016 .11,-.034 .176,-.057 .13,-.044 .286,-.1 .438,-.154 .043,-.015 .07,-.02 .11,-.035 .03,.012 .065,.032 .088,.037 .17,.04 .204,.012 .254,.004 .198,-.034 .357,-.097 .566,-.164 .206,-.066 .426,-.13 .56,-.154 .004,.003 .008,.017 .012,.021 .1,.05 .152,.052 .195,.057 .087,.012 .138,.005 .193,0 .112,-.01 .224,-.032 .34,-.057 .116,-.025 .23,-.054 .332,-.088 .052,-.017 .1,-.033 .162,-.064 .002,-7.73e-4 .004,-.003 .006,-.004 .035,-0 .062,-.002 .117,-.002 .176,7.79e-5 .43,.01 .695,.024 .532,.028 1.16,.08 1.273,.098 .733,.178 1.268,.035 1.56,-.092 .12,-.052 .155,-.065 .166,-.072 z m 4.998,3.566 c -.066,.012 -.13,.023 -.19,.06 .042,-.02 .104,-.053 .104,-.053 -1.8e-5,5.8e-6 .045,-.004 .088,-.008 z m -.256,.105 c -.077,.072 -.13,.152 -.152,.213 .004,-.01 .016,-.04 .016,-.04 -9.9e-5,2.204e-4 .04,-.07 .04,-.072 -7.7e-5,1.155e-4 .068,-.072 .098,-.104 z M 8.852,7.53 c -.043,.023 -.122,.037 -.273,.008 .113,.02 .2,.012 .273,-.008 z M 21.754,12.312 c -.063,-.013 -.118,.037 -.148,.154 -.016,.06 -.015,.118 .006,.18 .01,-.007 .025,-.01 .033,-.018 l .31,-.072 c -.003,-0.007 -.005,-.012 -.008,-.02 -.06,-.136 -.13,-.212 -.19,-.225 z m 3.068,.107 c .11,6.18e-4 .27,.084 .33,.156 .004,.004 6.99e-4,.002 .004,.006 -.112,-.08 -.246,-.162 -.334,-.162 z m -2.82,.287 c -.067,.055 -.196,.1 -.305,.096 .005,.007 .01,.016 .016,.023 .218,.282 .363,.178 .29,-.12 z m -.09,1.324 c -.033,-.02 -.373,.182 -.504,.533 -.153,.41 -.144,.53 .04,.6 .3,.115 .37,.08 .45,-.223 .09,-.346 .1,-.86 .016,-.91 z m -6.97,.846 c .005,-0.002 .015,.002 .02,0 -.04,.042 -.16,.09 -.17,.104 -.023,.03 -.028,.03 .014,-.012 .029,-.02 .057,-.057 .137,-.092 z m 5.664,1.168 c -.015,-.014 -.778,.264 -.955,.3 -.308,.064 -.428,.2 -.238,.273 .047,.018 .254,.035 .46,.037 .37,0.005 .75,-.597 .734,-.61 z m 3.016,1.266 c -.285,.274 -.593,.48 -.92,.688 .26,-.185 .527,-.365 .71,-.633 .004,-.006 .008,-0.008 .012,-.014 .05,-0.007 .12,-0 .152,-.014 .026,-.01 .025,-.017 .045,-.027 z m -8.504,.197 c -.145,10e-7 -.03,.187 .328,.535 .213,.207 .426,.338 .426,.293 0,-.096 -.667,-.828 -.754,-.828 z m -.21,.65 c -.03,0 -.053,.082 -.053,.182 0,.188 1.265,1.09 1.28,1.047 .025,-.073 -1.13,-1.23 -1.227,-1.23 z m 2.475,.133 c .083,.057 .163,.115 .244,.172 .034,.024 .072,.045 .107,.068 -.038,-.023 -.074,-.045 -.107,-.068 -.086,-.058 -.164,-.115 -.244,-.172 z m .96,.545 c .377,.114 .785,.15 1.19,.182 l -.81,.045 c -0.006,.005 -.012,.01 -.018,.016 -.005,-.005 -.013,-.015 -.018,-.02 -.11,-.1 -.192,-.14 -.314,-.207 -.01,-.005 -.024,-.01 -.033,-.016 z m -3.213,8.504 c .14,.034 .288,.043 .393,.02 -.015,-.004 .022,0.007 .11,.064 .323,.21 .574,.263 .84,.332 -0,.04 .01,.075 .018,.12 -.485,-.158 -.88,-.327 -1.36,-.54 z" fill="currentColor" opacity=".6"/></g><use fill="url(#radialGradient4483)" href="#use-path-j" id="rect2310-2" opacity=".2"/><path -inkscape-stroke="none" d="M 6 54 L 6 55 C 6 56.662 7.338 58 9 58 L 55 58 C 56.662 58 58 56.662 58 55 L 58 54 C 58 55.662 56.662 57 55 57 L 9 57 C 7.338 57 6 55.662 6 54 z " id="rect2310-6" opacity=".1" stop-color="#000000" stroke-opacity="0"/><path -inkscape-stroke="none" d="M 6 54.5 L 6 55 C 6 56.662 7.338 58 9 58 L 55 58 C 56.662 58 58 56.662 58 55 L 58 54.5 C 58 56.162 56.662 57.5 55 57.5 L 9 57.5 C 7.338 57.5 6 56.162 6 54.5 z " id="rect2310-6-9" opacity=".2" stop-color="#000000" stroke-opacity="0"/><path -inkscape-stroke="none" d="M 9,6 C 7.338,6 6,7.338 6,9 v 1 C 6,8.338 7.338,7 9,7 H 42 V 6 Z m 41,0 v 1 h 5 c 1.662,0 3,1.338 3,3 V 9 C 58,7.338 56.662,6 55,6 Z" fill="#fefefe" id="rect2310-6-3" opacity=".1" stop-color="#000000" stroke-opacity="0"/><path -inkscape-stroke="none" d="M 9,6 C 7.338,6 6,7.338 6,9 v 0.5 c 0,-1.662 1.338,-3 3,-3 H 42 V 6 Z m 41,0 v 0.5 h 5 c 1.662,0 3,1.338 3,3 V 9 C 58,7.338 56.662,6 55,6 Z" fill="#fefefe" id="rect2310-6-9-6" opacity=".2" stop-color="#000000" stroke-opacity="0"/><path d="m 42,6 v 31 c 0,1.108 0.892,2 2,2 h 4 c 1.108,0 2,-0.892 2,-2 V 6 Z m 3,0 h 2 v 4 h -2 z m -1,2 v 2 c 0,0.554 0.446,1 1,1 h 2 c 0.554,0 1,-0.446 1,-1 V 8 c 0.554,0 1,0.446 1,1 v 7 c 0,0.554 -0.446,1 -1,1 h -4 c -0.554,0 -1,-0.446 -1,-1 V 9 c 0,-0.554 0.446,-1 1,-1 z m 1,4 c -0.554,0 -1,0.446 -1,1 v 2 c 0,0.554 0.446,1 1,1 h 2 c 0.554,0 1,-0.446 1,-1 v -2 c 0,-0.554 -0.446,-1 -1,-1 z m 1,7 v 2 h 2 v 2 h -2 v 2 h 2 v 2 h -2 v 2 h 2 v 2 h -2 v 2 h 2 v 2 2 h -2 -2 v -2 h 2 v -2 h -2 v -2 h 2 v -2 h -2 v -2 h 2 v -2 h -2 v -2 h 2 v -2 h -2 v -2 z" fill="#050505" id="rect279192-9-5-7-5-6" opacity=".4" stop-color="#000000"/><path d="m 44,8 c -0.554,0 -1,0.446 -1,1 v 7 c 0,0.554 0.446,1 1,1 h 4 c 0.554,0 1,-0.446 1,-1 V 9 C 49,8.446 48.554,8 48,8 v 2 c 0,0.554 -0.446,1 -1,1 h -2 c -0.554,0 -1,-0.446 -1,-1 z m 1,4 h 2 c 0.554,0 1,0.446 1,1 v 2 c 0,0.554 -0.446,1 -1,1 h -2 c -0.554,0 -1,-0.446 -1,-1 v -2 c 0,-0.554 0.446,-1 1,-1 z" fill="#ffffff" opacity=".6" stop-color="#000000"/><path d="m 45,6 v 4 h 2 V 6 Z" fill="#ffffff" opacity=".6" stop-color="#000000"/><g transform="translate(-802,-366)"><path d="m 848,385 h -2 v 2 h 2 z m 0,2 v 2 h 2 v -2 z m 0,2 h -2 v 2 h 2 z m 0,2 v 2 h 2 v -2 z m 0,2 h -2 v 2 h 2 z m 0,2 v 2 h 2 v -2 z m 0,2 h -2 v 2 h 2 z m 0,2 v 2 h -2 v 2 h 2 2 v -2 -2 z" fill="#ffffff" opacity=".6" stop-color="#000000"/></g><path d="m 42,37 v 1 c 0,1.108 0.892,2 2,2 h 4 c 1.108,0 2,-0.892 2,-2 v -1 c 0,1.108 -0.892,2 -2,2 h -4 c -1.108,0 -2,-0.892 -2,-2 z" fill="#f9ffff" id="rect90872" opacity=".1" stop-color="#000000"/><path d="m 42,37 v 0.5 c 0,1.108 0.892,2 2,2 h 4 c 1.108,0 2,-0.892 2,-2 V 37 c 0,1.108 -0.892,2 -2,2 h -4 c -1.108,0 -2,-0.892 -2,-2 z" fill="#f9ffff" id="rect90872-3" opacity=".2" stop-color="#000000"/></g></svg>