<?xml version="1.0" encoding="UTF-8" standalone="no"?>
<svg
   xmlns:dc="http://purl.org/dc/elements/1.1/"
   xmlns:cc="http://creativecommons.org/ns#"
   xmlns:rdf="http://www.w3.org/1999/02/22-rdf-syntax-ns#"
   xmlns:svg="http://www.w3.org/2000/svg"
   xmlns="http://www.w3.org/2000/svg"
   xmlns:xlink="http://www.w3.org/1999/xlink"
   xmlns:sodipodi="http://sodipodi.sourceforge.net/DTD/sodipodi-0.dtd"
   xmlns:inkscape="http://www.inkscape.org/namespaces/inkscape"
   width="64"
   version="1.1"
   viewBox="0 0 64 64"
   height="64"
   id="svg26"
   inkscape:version="0.91 r13725"
   sodipodi:docname="application-x-kexiproject-shortcut.svg">
  <sodipodi:namedview
     pagecolor="#ffffff"
     bordercolor="#666666"
     borderopacity="1"
     objecttolerance="10"
     gridtolerance="10"
     guidetolerance="10"
     inkscape:pageopacity="0"
     inkscape:pageshadow="2"
     inkscape:window-width="1920"
     inkscape:window-height="1025"
     id="namedview48"
     showgrid="false"
     inkscape:zoom="3.6875"
     inkscape:cx="-17.355932"
     inkscape:cy="29.830508"
     inkscape:window-x="0"
     inkscape:window-y="26"
     inkscape:window-maximized="1"
     inkscape:current-layer="svg26" />
  <defs
     id="defs4">
    <linearGradient
       inkscape:collect="always"
       id="linearGradient4410">
      <stop
         style="stop-color:#383e51"
         id="stop4412" />
      <stop
         offset="1"
         style="stop-color:#655c6f;stop-opacity:0"
         id="stop4414" />
    </linearGradient>
    <linearGradient
       inkscape:collect="always"
       xlink:href="#linearGradient4410"
       id="linearGradient4427-5-3"
       y1="17"
       x1="40"
       y2="31"
       x2="54"
       gradientUnits="userSpaceOnUse" />
    <linearGradient
       inkscape:collect="always"
       xlink:href="#linearGradient6251"
       id="linearGradient4306-5-5"
       y1="2.9779029"
       y2="60.977901"
       x2="6"
       gradientUnits="userSpaceOnUse"
       gradientTransform="matrix(1,0,0,-1,0,63.977903)"
       x1="6" />
    <linearGradient
       id="linearGradient6251"
       inkscape:collect="always">
      <stop
         id="stop6253"
         offset="0"
         style="stop-color:#ffffff;stop-opacity:0" />
      <stop
         id="stop6255"
         offset="1"
         style="stop-color:#ffffff;stop-opacity:0.2" />
    </linearGradient>
  </defs>
  <metadata
     id="metadata84">
    <rdf:RDF>
      <cc:Work
         rdf:about="">
        <dc:format>image/svg+xml</dc:format>
        <dc:type
           rdf:resource="http://purl.org/dc/dcmitype/StillImage" />
      </cc:Work>
    </rdf:RDF>
  </metadata>
  <path
     inkscape:connector-curvature="0"
     style="fill:#8542c2;fill-opacity:1"
     id="rect3500-9-5"
     d="m 10,60.977903 0,-58 30,0 14,14 0,30 0,14 -14,0 -30,0 z" />
  <rect
     width="30"
     x="10"
     y="-4"
     height="1"
     style="opacity:0.5;fill:#ffffff;fill-opacity:1"
     id="rect4169-2-3"
     transform="scale(1,-1)" />
  <rect
     width="44"
     x="10"
     y="-61"
     height="1"
     style="opacity:0.25;fill:#000000;fill-opacity:1"
     id="rect4236-8-5"
     transform="scale(1,-1)" />
  <path
     inkscape:connector-curvature="0"
     style="opacity:0.5;fill:#ffffff;fill-opacity:1;fill-rule:evenodd"
     id="path4314-9-6"
     d="M 54,17 40,3.0000001 40,17 Z" />
  <path
     inkscape:connector-curvature="0"
     style="opacity:0.2;fill:url(#linearGradient4427-5-3);fill-rule:evenodd"
     id="path4320-7-2"
     d="M 40,17 54,31 54,17 Z" />
  <rect
     width="0"
     x="-24.679218"
     y="15.999974"
     height="10.999983"
     style="fill:#ffffff"
     id="rect4035-75" />
  <rect
     width="0"
     x="-24.999989"
     y="14.999974"
     height="10.999983"
     style="fill:#ffffff"
     id="rect4035-4-3" />
  <rect
     width="0"
     x="-26.535847"
     y="14.886144"
     height="11.1139"
     style="fill:#fbd2bf"
     id="rect4035-3-56" />
  <rect
     width="0"
     x="-24.999989"
     y="14.999974"
     height="10.999983"
     style="fill:#fbd2bf"
     id="rect4035-1-2" />
  <rect
     width="0"
     x="-24.999989"
     y="14.999974"
     height="10.999983"
     style="fill:#fbfbfb"
     id="rect4035-5-9" />
  <rect
     width="0"
     x="-24.679218"
     y="15.999974"
     height="10.999983"
     style="fill:#ffffff"
     id="rect4035-7-1" />
  <rect
     width="0"
     x="-24.999989"
     y="14.999974"
     height="10.999983"
     style="fill:#ffffff"
     id="rect4035-4-53" />
  <rect
     width="0"
     x="-26.535847"
     y="14.886144"
     height="11.1139"
     style="fill:#fbd2bf"
     id="rect4035-3-5" />
  <rect
     width="0"
     x="-24.999989"
     y="14.999974"
     height="10.999983"
     style="fill:#fbd2bf"
     id="rect4035-1-6" />
  <rect
     width="0"
     x="-24.999989"
     y="14.999974"
     height="10.999983"
     style="fill:#fbfbfb"
     id="rect4035-5-2" />
  <rect
     width="0"
     x="-24.679218"
     y="15.999974"
     height="10.999983"
     style="fill:#ffffff"
     id="rect4035-53" />
  <rect
     width="0"
     x="-24.999989"
     y="14.999974"
     height="10.999983"
     style="fill:#ffffff"
     id="rect4035-4-5" />
  <rect
     width="0"
     x="-24.679218"
     y="15.999974"
     height="10.999983"
     style="fill:#ffffff"
     id="rect4035-6" />
  <rect
     width="0"
     x="-24.999989"
     y="14.999974"
     height="10.999983"
     style="fill:#ffffff"
     id="rect4035-4-2" />
  <rect
     width="0"
     x="-26.535847"
     y="14.886144"
     height="11.1139"
     style="fill:#fbd2bf"
     id="rect4035-3-9" />
  <rect
     width="0"
     x="-24.999989"
     y="14.999974"
     height="10.999983"
     style="fill:#fbd2bf"
     id="rect4035-1-1" />
  <rect
     width="0"
     x="-24.999989"
     y="14.999974"
     height="10.999983"
     style="fill:#fbfbfb"
     id="rect4035-5-27" />
  <rect
     width="0"
     x="-24.999989"
     y="14.999974"
     height="10.999983"
     style="fill:#fffcf9"
     id="rect4035-8-0" />
  <rect
     width="0"
     x="-24.999989"
     y="14.999974"
     height="10.999983"
     style="fill:#e8d9eb"
     id="rect4035-44" />
  <rect
     width="0"
     x="-24.999989"
     y="14.999974"
     height="10.999983"
     style="fill:#e8d9eb"
     id="rect4035-7" />
  <rect
     width="0"
     x="-24.679218"
     y="15.999974"
     height="10.999983"
     style="fill:#ffffff"
     id="rect4035" />
  <rect
     width="0"
     x="-24.999989"
     y="14.999974"
     height="10.999983"
     style="fill:#ffffff"
     id="rect4035-4" />
  <rect
     width="0"
     x="-26.535847"
     y="14.886144"
     height="11.1139"
     style="fill:#fbd2bf"
     id="rect4035-3" />
  <rect
     width="0"
     x="-24.999989"
     y="14.999974"
     height="10.999983"
     style="fill:#fbd2bf"
     id="rect4035-1" />
  <rect
     width="0"
     x="-24.999989"
     y="14.999974"
     height="10.999983"
     style="fill:#fbfbfb"
     id="rect4035-5" />
  <rect
     width="0"
     x="-24.999989"
     y="14.999974"
     height="10.999983"
     style="fill:#fffcf9"
     id="rect4035-8" />
  <path
     style="opacity:0.75;fill:#ffffff;fill-opacity:1"
     id="path4209"
     d="m 32,22 a 11,3 0 0 0 -2.125,0.05859 c -0.01962,0.001 -0.04097,8.76e-4 -0.06055,0.002 -0.05891,0.0032 -0.113305,0.0082 -0.171875,0.01172 a 11,3 0 0 0 -1.923828,0.164062 11,3 0 0 0 -0.002,0 A 11,3 0 0 0 25.933594,22.5 c -0.0363,0.0066 -0.07533,0.0109 -0.111328,0.01758 a 11,3 0 0 0 -1.517578,0.34375 c -0.03689,0.0099 -0.0769,0.01733 -0.113282,0.02734 a 11,3 0 0 0 -1.214844,0.40039 c -0.05714,0.02238 -0.118892,0.04359 -0.173828,0.06641 a 11,3 0 0 0 -0.222656,0.101562 c -0.110499,0.05006 -0.220433,0.100435 -0.320312,0.152344 a 11,3 0 0 0 -0.19336,0.109375 c -0.0934,0.05375 -0.185755,0.106665 -0.267578,0.162109 a 11,3 0 0 0 -0.138672,0.103516 c -0.07909,0.05988 -0.155435,0.120065 -0.220703,0.181641 a 11,3 0 0 0 -0.0957,0.101562 c -0.05719,0.06206 -0.111532,0.123976 -0.154297,0.1875 a 11,3 0 0 0 -0.06836,0.121094 c -0.02851,0.0549 -0.05677,0.1102 -0.07422,0.166016 A 11,3 0 0 0 21,25 l 0,5 0,4 0,1 a 11,3 0 0 0 1,1.242188 11,3 0 0 0 0.01172,0.0059 11,3 0 0 0 0.476562,0.251953 11,3 0 0 0 0.03125,0.01367 11,3 0 0 0 0.550781,0.232422 11,3 0 0 0 0.06445,0.02344 11,3 0 0 0 0.589843,0.201172 11,3 0 0 0 0.132813,0.04102 11,3 0 0 0 0.65039,0.179687 11,3 0 0 0 0.09961,0.02539 11,3 0 0 0 0.773437,0.175781 11,3 0 0 0 0.05273,0.0098 11,3 0 0 0 0.814453,0.15039 11,3 0 0 0 0.138672,0.02344 11,3 0 0 0 0.779297,0.115234 11,3 0 0 0 0.220703,0.0293 11,3 0 0 0 0.736328,0.08203 11,3 0 0 0 0.367187,0.03711 11,3 0 0 0 0.539063,0.04492 11,3 0 0 0 0.591797,0.04102 11,3 0 0 0 0.490234,0.02539 11,3 0 0 0 0.576172,0.02344 11,3 0 0 0 0.462891,0.01367 A 11,3 0 0 0 32,38 a 11,3 0 0 0 0.958984,-0.01367 11,3 0 0 0 0.414063,-0.01367 11,3 0 0 0 0.716797,-0.0293 11,3 0 0 0 0.345703,-0.02148 11,3 0 0 0 0.707031,-0.04883 11,3 0 0 0 0.31836,-0.0293 11,3 0 0 0 0.767578,-0.07617 11,3 0 0 0 0.179687,-0.02148 11,3 0 0 0 0.808594,-0.107422 11,3 0 0 0 0.212891,-0.03516 11,3 0 0 0 0.677734,-0.111328 11,3 0 0 0 0.3125,-0.06055 11,3 0 0 0 0.595703,-0.125 11,3 0 0 0 0.195313,-0.04687 11,3 0 0 0 0.662109,-0.167969 11,3 0 0 0 0.01367,-0.0039 11,3 0 0 0 0.02344,-0.0078 11,3 0 0 0 0.701172,-0.21875 11,3 0 0 0 0.636719,-0.24414 11,3 0 0 0 0.002,0 11,3 0 0 0 0.0059,-0.002 11,3 0 0 0 0.535157,-0.253906 11,3 0 0 0 0.0059,-0.0039 A 11,3 0 0 0 42,36.242188 11,3 0 0 0 43,35 l 0,-1 0,-3 -2.384766,0 C 38.883374,31.595607 35.693194,32 32,32 26.477153,32 22,31.104569 22,30 l 0,-3.757812 c 0.0011,6.82e-4 0.0028,0.0013 0.0039,0.002 a 11,3 0 0 0 0.744141,0.371093 c 0.0107,0.0046 0.02047,0.0091 0.03125,0.01367 a 11,3 0 0 0 0.929687,0.339844 11,3 0 0 0 1.058594,0.287109 c 0.02928,0.007 0.05835,0.01263 0.08789,0.01953 a 11,3 0 0 0 2.511719,0.441406 c 0.03633,0.0046 0.07285,0.0092 0.109374,0.01367 a 11,3 0 0 0 1.316407,0.136719 c 0.03878,0.0032 0.0763,0.0066 0.115234,0.0098 a 11,3 0 0 0 1.398438,0.08594 c 0.107937,0.0046 0.217423,0.006 0.326171,0.0098 A 11,3 0 0 0 32,28 11,3 0 0 0 35,27.882812 l 0,-0.976562 a 10,2 0 0 1 -1,0.05273 l 0,-0.0098 C 33.352764,26.978634 32.692712,27 32,27 31.309644,27 30.635351,26.98563 29.984375,26.95898 29.388944,26.93461 28.819327,26.89802 28.267578,26.853512 a 10,2 0 0 1 -0.289062,-0.02344 c -0.524053,-0.04618 -1.027708,-0.101336 -1.5,-0.164062 -0.03131,-0.0042 -0.06464,-0.0075 -0.0957,-0.01172 -0.485943,-0.06613 -0.93401,-0.142836 -1.353515,-0.224609 a 10,2 0 0 1 -0.138672,-0.02539 c -0.392911,-0.07954 -0.746147,-0.166041 -1.068363,-0.257807 a 10,2 0 0 1 -0.171875,-0.04883 c -0.292589,-0.08887 -0.54386,-0.183252 -0.763672,-0.28125 a 10,2 0 0 1 -0.177735,-0.07813 c -0.02933,-0.01478 -0.05442,-0.02998 -0.08203,-0.04492 a 10,2 0 0 1 -0.232422,-0.140625 c -0.03103,-0.02162 -0.05654,-0.04449 -0.08398,-0.06641 a 10,2 0 0 1 -0.132813,-0.117187 c -0.02737,-0.02925 -0.04743,-0.05821 -0.06836,-0.08789 a 10,2 0 0 1 -0.06836,-0.113281 C 22.018048,25.112657 22,25.056498 22,25 a 10,2 0 0 1 0.199219,-0.396484 10,2 0 0 1 0.623047,-0.396485 c 0.228072,-0.105517 0.504719,-0.205609 0.816406,-0.300781 a 10,2 0 0 1 0.103516,-0.0332 10,2 0 0 1 0.0039,-0.002 c 0.342252,-0.09999 0.729239,-0.191547 1.154297,-0.277344 0.01558,-0.0031 0.02924,-0.0066 0.04492,-0.0098 0.421651,-0.08399 0.884205,-0.160557 1.375,-0.228515 a 10,2 0 0 1 0.142579,-0.01953 c 0.456331,-0.06084 0.946169,-0.112805 1.451171,-0.158204 a 10,2 0 0 1 0.34961,-0.03125 c 0.512096,-0.04136 1.043673,-0.07359 1.59375,-0.09766 a 10,2 0 0 1 0.220703,-0.0098 C 30.700852,23.014785 31.341754,23 32,23 c 0.692712,0 1.352764,0.02137 2,0.05078 l 0,-0.0098 a 10,2 0 0 1 1,0.05273 l 0,-0.978516 A 11,3 0 0 0 32,22 Z m 0,16 -1,0 0,3 1,0 0,1 -8,0 0,-1 -3,0 0,3 3,0 0,-1 8,0 1,0 7,0 0,1 3,0 0,-3 -3,0 0,1 -7,0 0,-1 1,0 0,-3 -2,0 z m 7,-16 0,1 0,0.181641 L 39,25 l 1,0 0,-1.21875 c 0.610727,0.545282 1,1.330815 1,2.21875 0,1.662 -1.338,3 -3,3 l -2,0 0,1 2,0 c 2.216,0 4,-1.784 4,-4 0,-1.204583 -0.53436,-2.27151 -1.373047,-3 L 42,23 42,22 39,22 Z M 22,31.242188 C 23.78371,32.311606 27.69217,32.99864 32,33 36.30783,32.9986 40.21629,32.311606 42,31.242188 L 42,33 42,33.757812 42,34 42,35 A 10,2 0 0 1 32,37 10,2 0 0 1 22,35 L 22,34 22,33.757812 22,33 22,31.242188 Z M 32,39 l 1,0 0,1 -1,0 0,-1 z m -10,3 1,0 0,1 -1,0 0,-1 z m 19,0 1,0 0,1 -1,0 0,-1 z"
     inkscape:connector-curvature="0" />
  <path
     inkscape:connector-curvature="0"
     style="fill:url(#linearGradient4306-5-5);fill-opacity:1"
     id="rect3500-9-6"
     d="m 10,60.977903 0,-57.9999999 30,0 14,13.9999999 0,30 0,14 -14,0 -30,0 z" />
</svg>
