<?xml version="1.0" encoding="UTF-8" standalone="no"?>
<svg
   xmlns:dc="http://purl.org/dc/elements/1.1/"
   xmlns:cc="http://creativecommons.org/ns#"
   xmlns:rdf="http://www.w3.org/1999/02/22-rdf-syntax-ns#"
   xmlns:svg="http://www.w3.org/2000/svg"
   xmlns="http://www.w3.org/2000/svg"
   xmlns:xlink="http://www.w3.org/1999/xlink"
   xmlns:sodipodi="http://sodipodi.sourceforge.net/DTD/sodipodi-0.dtd"
   xmlns:inkscape="http://www.inkscape.org/namespaces/inkscape"
   viewBox="0 0 64 64"
   id="svg2"
   version="1.1"
   inkscape:version="0.91 r13725"
   sodipodi:docname="application-msword.svg"
   width="64"
   height="64">
  <metadata
     id="metadata84">
    <rdf:RDF>
      <cc:Work
         rdf:about="">
        <dc:format>image/svg+xml</dc:format>
        <dc:type
           rdf:resource="http://purl.org/dc/dcmitype/StillImage" />
        <dc:title />
      </cc:Work>
    </rdf:RDF>
  </metadata>
  <sodipodi:namedview
     pagecolor="#ffffff"
     bordercolor="#666666"
     borderopacity="1"
     objecttolerance="10"
     gridtolerance="10"
     guidetolerance="10"
     inkscape:pageopacity="0"
     inkscape:pageshadow="2"
     inkscape:window-width="1920"
     inkscape:window-height="1013"
     id="namedview82"
     showgrid="true"
     inkscape:showpageshadow="false"
     inkscape:zoom="6.9682774"
     inkscape:cx="15.085292"
     inkscape:cy="26.34365"
     inkscape:window-x="0"
     inkscape:window-y="38"
     inkscape:window-maximized="1"
     inkscape:current-layer="svg2"
     showguides="true">
    <inkscape:grid
       type="xygrid"
       id="grid3413" />
    <sodipodi:guide
       position="0,64"
       orientation="64,0"
       id="guide3482" />
    <sodipodi:guide
       position="0,0"
       orientation="0,64"
       id="guide3484" />
    <sodipodi:guide
       position="64,0"
       orientation="-64,0"
       id="guide3486" />
    <sodipodi:guide
       position="64,64"
       orientation="0,-64"
       id="guide3488" />
    <sodipodi:guide
       position="10,61"
       orientation="58,0"
       id="guide3492" />
    <sodipodi:guide
       position="10,3"
       orientation="0,44"
       id="guide3494" />
    <sodipodi:guide
       position="54,3"
       orientation="-58,0"
       id="guide3496" />
    <sodipodi:guide
       position="54,61"
       orientation="0,-44"
       id="guide3498" />
    <sodipodi:guide
       position="54,47"
       orientation="-14,0"
       id="guide4310" />
    <sodipodi:guide
       position="54,61"
       orientation="0,-14"
       id="guide4312" />
    <sodipodi:guide
       position="21,43"
       orientation="22,0"
       id="guide4250" />
    <sodipodi:guide
       position="21,21"
       orientation="0,22"
       id="guide4252" />
    <sodipodi:guide
       position="43,32"
       orientation="-22,0"
       id="guide4254" />
    <sodipodi:guide
       position="43,43"
       orientation="0,-22"
       id="guide4256" />
  </sodipodi:namedview>
  <defs
     id="defs4">
    <linearGradient
       id="linearGradient4351-8"
       inkscape:collect="always">
      <stop
         id="stop4353-9"
         offset="0"
         style="stop-color:#97aad8;stop-opacity:1" />
      <stop
         id="stop4355-7"
         offset="1"
         style="stop-color:#c1cae7;stop-opacity:1" />
    </linearGradient>
    <linearGradient
       id="linearGradient4300-2">
      <stop
         style="stop-color:#3a539b;stop-opacity:1"
         offset="0"
         id="stop4302-4" />
      <stop
         style="stop-color:#3f5aa9;stop-opacity:1"
         offset="1"
         id="stop4304-1" />
    </linearGradient>
    <linearGradient
       inkscape:collect="always"
       xlink:href="#linearGradient4300-2"
       id="linearGradient4306-5"
       y1="61"
       y2="3"
       x2="0"
       gradientUnits="userSpaceOnUse"
       gradientTransform="matrix(1,0,0,-1,0,64)" />
    <linearGradient
       inkscape:collect="always"
       xlink:href="#linearGradient4351-8"
       id="linearGradient4357-8"
       y1="61"
       y2="47"
       x2="0"
       gradientUnits="userSpaceOnUse"
       gradientTransform="matrix(1,0,0,-1,0,64)" />
  </defs>
  <path
     inkscape:connector-curvature="0"
     style="fill:url(#linearGradient4306-5);fill-opacity:1.0"
     id="rect3500-9"
     d="m 10,61 0,-58 30,0 14,14 0,30 0,14 -14,0 -30,0 z" />
  <rect
     width="30"
     x="10"
     y="-4"
     height="1"
     style="fill:#ffffff;fill-opacity:0.41176471"
     id="rect4169-2"
     transform="scale(1,-1)" />
  <rect
     width="44"
     x="10"
     y="-61"
     height="1"
     style="fill:#2e3132;fill-opacity:0.29411765"
     id="rect4236-8"
     transform="scale(1,-1)" />
  <path
     inkscape:connector-curvature="0"
     style="fill:url(#linearGradient4357-8);fill-opacity:1.0;fill-rule:evenodd"
     id="path4314-9"
     d="M 54,17 40,3 40,17 Z" />
  <g
     transform="matrix(0.24993057,0,0,0.25581395,15.74757,22)"
     id="word">
    <path
       style="fill:#ffffff;fill-opacity:1"
       inkscape:connector-curvature="0"
       d="M 67.02,0 73,0 c 0,2.67 0,5.33 0,8 10.7,0.06 21.39,-0.11 32.08,0.06 2.28,-0.23 4.07,1.54 3.86,3.82 0.17,19.7 -0.04,39.41 0.1,59.11 -0.1,2.02 0.2,4.26 -0.97,6.05 -1.46,1.04 -3.35,0.91 -5.05,0.99 C 93.01,77.98 83.01,78 73,78 c 0,2.67 0,5.33 0,8 l -6.25,0 C 51.53,83.22 36.27,80.67 21.02,78 21.01,54.67 21.02,31.34 21.02,8.02 36.35,5.34 51.69,2.73 67.02,0 Z"
       id="path5" />
    <path
       style="fill:#3e58a6;fill-opacity:1"
       inkscape:connector-curvature="0"
       d="m 73,11 c 11,0 22,0 33,0 0,21.33 0,42.67 0,64 -11,0 -22,0 -33,0 0,-2.67 0,-5.33 0,-8 8.67,0 17.33,0 26,0 0,-1.33 0,-2.67 0,-4 -8.67,0 -17.33,0 -26,0 0,-1.67 0,-3.33 0,-5 8.67,0 17.33,0 26,0 0,-1.33 0,-2.67 0,-4 -8.67,0 -17.33,0 -26,0 0,-1.67 0,-3.33 0,-5 8.67,0 17.33,0 26,0 0,-1.33 0,-2.67 0,-4 -8.67,0 -17.33,0 -26,0 0,-1.67 0,-3.33 0,-5 8.67,0 17.33,0 26,0 0,-1.33 0,-2.67 0,-4 -8.67,0 -17.33,0 -26,0 0,-1.67 0,-3.33 0,-5 8.67,0 17.33,0 26,0 0,-1.33 0,-2.67 0,-4 -8.67,0 -17.33,0 -26,0 0,-1.67 0,-3.33 0,-5 8.67,0 17.33,0 26,0 0,-1.33 0,-2.67 0,-4 -8.67,0 -17.33,0 -26,0 0,-2.33 0,-4.67 0,-7 z"
       id="path7" />
    <path
       style="fill:#3e58a6;fill-opacity:1"
       inkscape:connector-curvature="0"
       d="m 41.68,28.67 c 1.9,-0.11 3.8,-0.19 5.7,-0.29 1.33,6.75 2.69,13.49 4.13,20.21 1.13,-6.94 2.38,-13.86 3.59,-20.79 2,-0.07 4,-0.18 5.99,-0.3 -2.26,9.69 -4.24,19.46 -6.71,29.09 -1.67,0.87 -4.17,-0.04 -6.15,0.1 -1.33,-6.62 -2.88,-13.2 -4.07,-19.85 -1.17,6.46 -2.69,12.86 -4.03,19.28 -1.92,-0.1 -3.85,-0.22 -5.78,-0.35 -1.66,-8.8 -3.61,-17.54 -5.16,-26.36 1.71,-0.08 3.43,-0.15 5.14,-0.21 1.03,6.37 2.2,12.71 3.1,19.09 1.41,-6.54 2.85,-13.08 4.25,-19.62 z"
       id="path9" />
  </g>
</svg>
