<?xml version="1.0" encoding="utf-8"?><svg height="64" width="64" xmlns="http://www.w3.org/2000/svg" xmlns:svg="http://www.w3.org/2000/svg" xmlns:xlink="http://www.w3.org/1999/xlink"><defs id="primary-definitions"><style id="current-color-scheme" type="text/css">.ColorScheme-Text           { color:#fff; }
      .ColorScheme-Background     { color:#111; }
      .ColorScheme-Highlight      { color:#3daefd; }
      .ColorScheme-ViewBackground { color:#000; }
      .ColorScheme-PositiveText   { color:#27ae60; }
      .ColorScheme-NeutralText    { color:#f67400; }
      .ColorScheme-NegativeText   { color:#da4453; }
  </style><style id="extended-color-scheme" type="text/css">.ExScheme-Black     { color:#3e3e3e; }
      .ExScheme-White     { color:#fcfcfc; }
      .ExScheme-Grey-1    { color:#cfd5d5; }
      .ExScheme-Grey-2    { color:#909c9c; }
      .ExScheme-Grey-3    { color:#536161; }
      .ExScheme-Red-1     { color:#ffafa5; }
      .ExScheme-Red-2     { color:#bf4231; }
      .ExScheme-Red-3     { color:#4d2f2b; }
      .ExScheme-Green-1   { color:#abf9c7; }
      .ExScheme-Green-2   { color:#3bb566; }
      .ExScheme-Green-3   { color:#377d50; }
      .ExScheme-Blue-1    { color:#abdaf9; }
      .ExScheme-Blue-2    { color:#3daefd; }
      .ExScheme-Blue-3    { color:#2b3c4d; }
      .ExScheme-Yellow-1  { color:#faffa5; }
      .ExScheme-Yellow-2  { color:#cac726; }
      .ExScheme-Yellow-3  { color:#4b4d2b; }
      .ExScheme-Orange-1  { color:#ffdaa5; }
      .ExScheme-Orange-2  { color:#ff9701; }
      .ExScheme-Orange-3  { color:#4d372b; }
      .ExScheme-Brown-1   { color:#e9d6bb; }
      .ExScheme-Brown-2   { color:#997657; }
      .ExScheme-Brown-3   { color:#433a35; }
      .ExScheme-Purple-1  { color:#e2abf9; }
      .ExScheme-Purple-2  { color:#b401ff; }
      .ExScheme-Purple-3  { color:#432b4d; }
      .ExScheme-Cyan-1    { color:#b2f2e6; }
      .ExScheme-Cyan-2    { color:#31bfa6; }
      .ExScheme-Cyan-3    { color:#2b4d47; }
      .ExScheme-Magenta-1 { color:#f8a6d8; }
      .ExScheme-Magenta-2 { color:#f00091; }
      .ExScheme-Magenta-3 { color:#770048; }
  </style><linearGradient id="gradientDark"><stop offset="0"/><stop offset="1" stop-opacity="0"/></linearGradient><linearGradient id="gradientLight"><stop offset="0" stop-color="#fff"/><stop offset="1" stop-color="#fff" stop-opacity="0"/></linearGradient><style class="toggle-enable-crease" type="text/css">.folder-crease { display: none; }
  </style><style class="toggle-manilla-folders" type="text/css">.folder-manilla { display: none; }
  </style><radialGradient cx=".5" cy="0" id="gl1" r="1" xlink:href="#gradientLight"/><linearGradient id="gd1" xlink:href="#gradientDark" y1="1" y2=".5"/><radialGradient cx="4" cy="32" fx="4" fy="32" gradientTransform="matrix(0,2.5455,-2.409,0,109.091,-6.182)" gradientUnits="userSpaceOnUse" id="radialGradient1943" r="22" xlink:href="#gradientLight"/><path d="m 13,4 c -1.662,0 -3,1.338 -3,3 v 50 c 0,1.662 1.338,3 3,3 h 38 c 1.662,0 3,-1.338 3,-3 V 18 L 45,13 40,4 Z" id="use-path-N" stop-color="#000000"/><path d="m 17.914,21.668 c -1.093,.075 -1.753,1.16 -2.052,2.105 -.01,.85 -.854,.827 -1.477,1 -.938,.22 -1.884,.407 -2.835,.56 -.877,.237 -.184,1.29 .456,.93 1.04,-.206 2.08,-.427 3.112,-.675 -.215,.538 -.244,1.403 -.875,1.58 -.687,.18 -1.463,1.052 -.722,1.66 .612,.528 1.437,-.102 1.7,-.71 .356,-.683 1.438,-.637 2.122,-.926 .388,-.084 1.137,-.423 .647,.153 -.62,.7 .56,1.382 .866,.5 .31,-.523 .62,-1.047 .928,-1.57 .425,.157 .465,.977 1.18,.89 .406,.06 1.178,-.605 .768,.15 -.658,.75 -1.29,1.604 -1.492,2.602 -.104,1.036 1.332,.863 1.49,.003 .38,-.676 .667,-1.4 .898,-2.14 .224,-.168 .45,-.925 .71,-.372 .905,.17 .964,-1.283 1.93,-1.31 .287,-.01 -.254,.72 -.21,1.047 -.172,.84 .77,1.572 1.49,.996 .735,-.47 1.38,-1.08 1.962,-1.725 .35,-.795 -.84,-.897 -1.12,-.27 -.354,.287 -1.037,1.103 -1.31,.992 .178,-.657 .54,-1.246 .766,-1.883 -.152,-1.088 -1.473,-.124 -1.97,-.108 .128,-.35 .43,-.72 .114,-1.06 -.722,-.527 -.906,.577 -1.283,.945 -.303,.26 -.736,.965 -1.007,.88 -.34,-.18 -.36,-.134 -.04,-.398 .42,-.847 -.743,-1.31 -1.405,-1.054 -.462,-.086 -.916,1.027 -.965,.538 -.33,-.624 -.94,-.166 -1.09,.296 -.16,.345 -.362,.63 -.795,.6 -.88,.215 -1.77,.414 -2.624,.717 .325,-.658 .343,-1.605 1.282,-1.607 .854,-.308 1.885,-.623 2.303,-1.508 .324,-.88 -.596,-1.825 -1.454,-1.832 z m .047,1 c 1.018,.31 -.03,1.077 -.622,1.135 -.343,.153 -.508,.197 -.278,-.194 .116,-.426 .443,-.868 .9,-.94 z" id="use-path-O" opacity=".6"/><path d="m 40,4 v 11 c 0,1.662 1.338,3 3,3 h 11 z" id="use-path-P" stop-color="#000000"/></defs><g id="content"><namedview bordercolor="#666666" borderopacity="1.0" current-layer="svg47" cx="5.5" cy="39.12" pagecheckerboard="0" pagecolor="#ffffff" pageopacity="0.0" pageshadow="2" showgrid="true" window-height="1017" window-maximized="1" window-width="1920" window-x="0" window-y="0" zoom="7.9999999"><grid type="xygrid"/></namedview><path d="M 13 4 C 11.338 4 10 5.338 10 7 L 10 57 C 10 58.662 11.338 60 13 60 L 51 60 C 52.662 60 54 58.662 54 57 L 54 18 L 45 13 L 40 4 L 13 4 z " fill="fill" id="icon-color-primary" opacity="1" stop-color="#000000"/><use fill="#eef8ff" href="#use-path-N" id="primary-color-6-5" opacity=".1"/><g id="emblem" transform="translate(16,22)"><path class="ColorScheme-Background" d="m 22.5,1.42 c -.24,-.14 -.545,-.057 -.683,.183 l -0.75,1.3 -.433,-0.25 c -.48,-0.277 -1.09,-.114 -1.366,.366 l -5,8.66 c -0.277,.48 -.114,1.09 .366,1.366 l 1.732,1 c .48,0.277 1.09,.114 1.366,-.366 l 3.73,-6.46 c .19,.747 .192,1.667 -.363,2.63 l -4.5,7.794 a 0.5,0.5 0 0 0 .183,.683 0.5,0.5 0 0 0 .683,-.183 l 4.5,-7.794 C 22.908,8.715 22.572,7.156 22.103,6.11 L 22.732,5.02 c 0.277,-.48 .114,-1.094 -.366,-1.366 l -.433,-0.25 0.75,-1.3 C 22.822,1.864 22.74,1.56 22.5,1.42 Z M 13.268,13.412 8.268,22.072 C 6.268,25.536 6,30 6,30 c 0,0 3.732,-2.464 5.732,-5.928 l 5,-8.66 z" fill="currentColor" opacity=".6"/><use class="ColorScheme-Background" fill="currentColor" href="#use-path-O"/><use class="ColorScheme-Background" fill="currentColor" href="#use-path-O"/><path class="ColorScheme-Background" d="M 22.215 1.355 C 22.055 1.367 21.903 1.454 21.816 1.604 L 21.066 2.902 L 20.635 2.652 C 20.155 2.375 19.545 2.54 19.268 3.02 L 14.268 11.68 C 13.99 12.16 14.155 12.768 14.635 13.045 L 16.365 14.045 C 16.845 14.322 17.455 14.16 17.732 13.68 L 21.46 7.22 C 21.65 7.968 21.653 8.887 21.098 9.85 L 16.598 17.645 A 0.5 0.5 0 0 0 16.78 18.326 A 0.5 0.5 0 0 0 17.465 18.145 L 21.965 10.35 C 22.908 8.715 22.572 7.157 22.104 6.11 L 22.732 5.01 C 23.01 4.54 22.845 3.93 22.365 3.652 L 21.934 3.402 L 22.684 2.104 C 22.822 1.864 22.74 1.56 22.5 1.422 C 22.41 1.37 22.31 1.35 22.215 1.355 z M 20.098 3.016 C 20.193 3.01 20.292 3.032 20.385 3.086 L 21.25 3.586 L 22.115 4.086 C 22.363 4.23 22.442 4.522 22.3 4.76 L 21.643 5.906 L 21.543 6.08 L 17.3 13.43 C 17.156 13.677 16.863 13.756 16.615 13.613 L 14.885 12.613 C 14.637 12.47 14.558 12.177 14.7 11.93 L 19.7 3.27 C 19.79 3.115 19.94 3.026 20.098 3.016 z M 13.268 13.412 L 8.268 22.072 C 6.268 25.536 6 30 6 30 C 6 30 9.732 27.536 11.732 24.072 L 16.732 15.412 L 13.268 13.412 z M 13.45 14.094 L 16.05 15.594 L 11.3 23.822 C 9.823 26.38 7.75 28.03 6.676 28.83 C 6.83 27.5 7.225 24.88 8.7 22.322 L 13.45 14.094 z " fill="currentColor" opacity=".6"/></g><use fill="url(#radialGradient1943)" href="#use-path-N" id="primary-color-6" opacity=".2"/><use fill="#2cbd2c" href="#use-path-P" id="icon-color-secondary" opacity="1"/><path d="M 10 56 L 10 57 C 10 58.662 11.338 60 13 60 L 51 60 C 52.662 60 54 58.662 54 57 L 54 56 C 54 57.662 52.662 59 51 59 L 13 59 C 11.338 59 10 57.662 10 56 z " fill="#000406" id="primary-color-6-1" opacity=".2" stop-color="#000000"/><path d="M 10 56.5 L 10 57 C 10 58.662 11.338 60 13 60 L 51 60 C 52.662 60 54 58.662 54 57 L 54 56.5 C 54 58.162 52.662 59.5 51 59.5 L 13 59.5 C 11.338 59.5 10 58.162 10 56.5 z " fill="#000406" id="primary-color-6-1-3" opacity=".2" stop-color="#000000"/><path d="M 13 4 C 11.338 4 10 5.338 10 7 L 10 8 C 10 6.338 11.338 5 13 5 L 40 5 L 40 4 L 13 4 z " fill="#ffffff" id="primary-color-6-1-0" opacity=".2" stop-color="#000000"/><path d="m 13,4 c -1.662,0 -3,1.338 -3,3 v 0.5 c 0,-1.662 1.338,-3 3,-3 H 40 V 4 Z" fill="#ffffff" id="primary-color-6-1-3-6" opacity=".2" stop-color="#000000"/><path -inkscape-stroke="none" color="#000000" d="M 40 4 L 40 5.414 L 52.586 18 L 54 18 L 40 4 z " fill-opacity="1" opacity=".1"/><path -inkscape-stroke="none" color="#000000" d="M 40 4 L 40 4.707 L 53.293 18 L 54 18 L 40 4 z " fill-opacity="1" opacity=".1"/><use fill="#f5f8ff" href="#use-path-P" id="document-flap" opacity=".4"/><path d="M 40 15 L 40 16 C 40 17.662 41.338 19 43 19 L 54 19 L 54 18 L 43 18 C 41.338 18 40 16.662 40 15 z " fill="#000307" id="secondary-color-3-7" opacity=".2" stop-color="#000000"/><path d="M 40 15 L 40 15.5 C 40 17.162 41.338 18.5 43 18.5 L 54 18.5 L 54 18 L 43 18 C 41.338 18 40 16.662 40 15 z " fill="#000307" id="secondary-color-3-7-2" opacity=".2" stop-color="#000000"/></g></svg>