<?xml version="1.0" encoding="UTF-8" standalone="no"?>
<svg
   xmlns:dc="http://purl.org/dc/elements/1.1/"
   xmlns:cc="http://creativecommons.org/ns#"
   xmlns:rdf="http://www.w3.org/1999/02/22-rdf-syntax-ns#"
   xmlns:svg="http://www.w3.org/2000/svg"
   xmlns="http://www.w3.org/2000/svg"
   xmlns:xlink="http://www.w3.org/1999/xlink"
   xmlns:sodipodi="http://sodipodi.sourceforge.net/DTD/sodipodi-0.dtd"
   xmlns:inkscape="http://www.inkscape.org/namespaces/inkscape"
   width="64"
   version="1.1"
   viewBox="0 0 64 64"
   height="64"
   id="svg2"
   inkscape:version="0.91 r13725"
   sodipodi:docname="application-vnd.oasis.opendocument.spreadsheet-template.svg">
  <sodipodi:namedview
     pagecolor="#ffffff"
     bordercolor="#666666"
     borderopacity="1"
     objecttolerance="10"
     gridtolerance="10"
     guidetolerance="10"
     inkscape:pageopacity="0"
     inkscape:pageshadow="2"
     inkscape:window-width="1920"
     inkscape:window-height="1013"
     id="namedview24"
     showgrid="false"
     inkscape:zoom="14.75"
     inkscape:cx="35.576794"
     inkscape:cy="32.029618"
     inkscape:window-x="0"
     inkscape:window-y="0"
     inkscape:window-maximized="1"
     inkscape:current-layer="svg2" />
  <defs
     id="defs4">
    <linearGradient
       inkscape:collect="always"
       xlink:href="#linearGradient4300-7"
       id="linearGradient4306"
       y1="61"
       y2="3"
       x2="0"
       gradientUnits="userSpaceOnUse"
       gradientTransform="matrix(1,0,0,-1,0,64)" />
    <linearGradient
       inkscape:collect="always"
       id="linearGradient4300-7">
      <stop
         style="stop-color:#5e6b78"
         id="stop4302-2" />
      <stop
         offset="1"
         style="stop-color:#768492"
         id="stop4304-4" />
    </linearGradient>
  </defs>
  <metadata
     id="metadata84">
    <rdf:RDF>
      <cc:Work
         rdf:about="">
        <dc:format>image/svg+xml</dc:format>
        <dc:type
           rdf:resource="http://purl.org/dc/dcmitype/StillImage" />
      </cc:Work>
    </rdf:RDF>
  </metadata>
  <path
     inkscape:connector-curvature="0"
     style="fill:url(#linearGradient4306)"
     d="m 10,3 0,58 30,0 14,0 L 54,47 54,18.414062 38.585938,3 10,3 Z"
     id="rect3500" />
  <rect
     width="44"
     x="10"
     y="60"
     height="1"
     style="fill:#2e3132;fill-opacity:0.29411801"
     id="rect4169" />
  <path
     inkscape:connector-curvature="0"
     style="fill:#ffffff;fill-opacity:0.40983599"
     d="m 10,3 0,1 29.585938,0 -1,-1 L 10,3 Z"
     id="rect4236" />
  <path
     inkscape:connector-curvature="0"
     style="fill:#4a5c6d;fill-opacity:1;fill-rule:evenodd"
     id="path4314"
     d="M 40,3 54,17 54,3 Z" />
  <rect
     width="0"
     x="-53.833336"
     y="22.833298"
     height="20.166639"
     style="fill:#5e6b78"
     id="rect4035" />
  <rect
     width="0"
     x="137.64157"
     y="23.999973"
     height="21.99995"
     style="fill:#ffffff"
     id="rect4035-75" />
  <rect
     width="0"
     x="137.00003"
     y="21.999975"
     height="21.99995"
     style="fill:#ffffff"
     id="rect4035-4" />
  <rect
     width="0"
     x="133.92828"
     y="21.772314"
     height="22.227785"
     style="fill:#fbd2bf"
     id="rect4035-3" />
  <rect
     width="0"
     x="137.00003"
     y="21.999975"
     height="21.99995"
     style="fill:#fbd2bf"
     id="rect4035-1" />
  <rect
     width="0"
     x="177"
     y="21.999975"
     height="21.99995"
     style="fill:#fbfbfb"
     id="rect4035-2" />
  <rect
     width="0"
     x="137.00003"
     y="21.999975"
     height="21.99995"
     style="fill:#fbfbfb"
     id="rect4035-8" />
  <rect
     width="0"
     x="-22.35836"
     y="23.999973"
     height="21.99995"
     style="fill:#ffffff"
     id="rect4035-7" />
  <rect
     width="0"
     x="-22.999901"
     y="21.999975"
     height="21.99995"
     style="fill:#ffffff"
     id="rect4035-4-5" />
  <rect
     width="0"
     x="-26.071617"
     y="21.772314"
     height="22.227785"
     style="fill:#fbd2bf"
     id="rect4035-3-3" />
  <rect
     width="0"
     x="-22.999901"
     y="21.999975"
     height="21.99995"
     style="fill:#fbd2bf"
     id="rect4035-1-5" />
  <rect
     width="0"
     x="57.64159"
     y="-43.999958"
     height="21.99995"
     style="fill:#ffffff"
     id="rect4035-5"
     transform="scale(1,-1)" />
  <rect
     width="0"
     x="57.00005"
     y="-45.999958"
     height="21.99995"
     style="fill:#ffffff"
     id="rect4035-4-6"
     transform="scale(1,-1)" />
  <rect
     width="0"
     x="53.928337"
     y="-46.227619"
     height="22.227785"
     style="fill:#fbd2bf"
     id="rect4035-3-2"
     transform="scale(1,-1)" />
  <rect
     width="0"
     x="57.00005"
     y="-45.999958"
     height="21.99995"
     style="fill:#fbd2bf"
     id="rect4035-1-9"
     transform="scale(1,-1)" />
  <path
     style="shape-rendering:auto;color-interpolation-filters:linearRGB;fill:#d5dadc;image-rendering:auto;text-rendering:auto;color:#000000;color-rendering:auto;color-interpolation:sRGB"
     id="rect4167"
     d="M 21 21 L 21 43 L 43 43 L 43 21 L 21 21 z M 22 22 L 42 22 L 42 26 L 22 26 L 22 22 z M 22 27 L 27 27 L 27 30 L 22 30 L 22 27 z M 28 27 L 36 27 L 36 30 L 28 30 L 28 27 z M 37 27 L 42 27 L 42 30 L 37 30 L 37 27 z M 22 31 L 27 31 L 27 34 L 22 34 L 22 31 z M 28 31 L 36 31 L 36 34 L 28 34 L 28 31 z M 37 31 L 42 31 L 42 34 L 37 34 L 37 31 z M 22 35 L 27 35 L 27 38 L 22 38 L 22 35 z M 28 35 L 36 35 L 36 38 L 28 38 L 28 35 z M 37 35 L 42 35 L 42 38 L 37 38 L 37 35 z M 22 39 L 27 39 L 27 42 L 22 42 L 22 39 z M 28 39 L 36 39 L 36 42 L 28 42 L 28 39 z M 37 39 L 42 39 L 42 42 L 37 42 L 37 39 z " />
</svg>
