<?xml version="1.0" encoding="UTF-8" standalone="no"?>
<svg
   xmlns:dc="http://purl.org/dc/elements/1.1/"
   xmlns:cc="http://creativecommons.org/ns#"
   xmlns:rdf="http://www.w3.org/1999/02/22-rdf-syntax-ns#"
   xmlns:svg="http://www.w3.org/2000/svg"
   xmlns="http://www.w3.org/2000/svg"
   xmlns:xlink="http://www.w3.org/1999/xlink"
   xmlns:sodipodi="http://sodipodi.sourceforge.net/DTD/sodipodi-0.dtd"
   xmlns:inkscape="http://www.inkscape.org/namespaces/inkscape"
   width="64"
   version="1.1"
   viewBox="0 0 64 64"
   height="64"
   id="svg2"
   inkscape:version="0.91 r13725"
   sodipodi:docname="application-vnd.oasis.opendocument.chart.svg">
  <sodipodi:namedview
     pagecolor="#ffffff"
     bordercolor="#666666"
     borderopacity="1"
     objecttolerance="10"
     gridtolerance="10"
     guidetolerance="10"
     inkscape:pageopacity="0"
     inkscape:pageshadow="2"
     inkscape:window-width="1920"
     inkscape:window-height="1025"
     id="namedview25"
     showgrid="false"
     inkscape:zoom="3.6875"
     inkscape:cx="-17.355932"
     inkscape:cy="27.661016"
     inkscape:window-x="0"
     inkscape:window-y="26"
     inkscape:window-maximized="1"
     inkscape:current-layer="svg2" />
  <defs
     id="defs4">
    <linearGradient
       id="linearGradient4351">
      <stop
         style="stop-color:#c8e3fe"
         id="stop4353" />
      <stop
         offset="1"
         style="stop-color:#ffffff"
         id="stop4355" />
    </linearGradient>
    <linearGradient
       inkscape:collect="always"
       id="linearGradient4300">
      <stop
         style="stop-color:#22a7f0"
         id="stop4302" />
      <stop
         offset="1"
         style="stop-color:#19b5fe"
         id="stop4304" />
    </linearGradient>
    <linearGradient
       inkscape:collect="always"
       xlink:href="#linearGradient4300"
       id="linearGradient4306-5"
       y1="61"
       y2="3"
       x2="0"
       gradientUnits="userSpaceOnUse"
       gradientTransform="matrix(1,0,0,-1,0,64)" />
    <linearGradient
       inkscape:collect="always"
       xlink:href="#linearGradient4351"
       id="linearGradient4357-8"
       y1="61"
       y2="47"
       x2="0"
       gradientUnits="userSpaceOnUse"
       gradientTransform="matrix(1,0,0,-1,0,64)" />
    <linearGradient
       inkscape:collect="always"
       xlink:href="#linearGradient4410"
       id="linearGradient4427-5"
       y1="17"
       x1="40"
       y2="31"
       x2="54"
       gradientUnits="userSpaceOnUse" />
    <linearGradient
       inkscape:collect="always"
       id="linearGradient4410">
      <stop
         style="stop-color:#383e51"
         id="stop4412" />
      <stop
         offset="1"
         style="stop-color:#655c6f;stop-opacity:0"
         id="stop4414" />
    </linearGradient>
  </defs>
  <metadata
     id="metadata84">
    <rdf:RDF>
      <cc:Work
         rdf:about="">
        <dc:format>image/svg+xml</dc:format>
        <dc:type
           rdf:resource="http://purl.org/dc/dcmitype/StillImage" />
      </cc:Work>
    </rdf:RDF>
  </metadata>
  <path
     inkscape:connector-curvature="0"
     style="fill:url(#linearGradient4306-5);fill-opacity:1.0"
     id="rect3500-9"
     d="m 10,61 0,-58 30,0 14,14 0,30 0,14 -14,0 -30,0 z" />
  <rect
     width="30"
     x="10"
     y="-4"
     height="1"
     style="fill:#ffffff;fill-opacity:0.41176471"
     id="rect4169-2"
     transform="scale(1,-1)" />
  <rect
     width="44"
     x="10"
     y="-61"
     height="1"
     style="fill:#2e3132;fill-opacity:0.29411765"
     id="rect4236-8"
     transform="scale(1,-1)" />
  <path
     inkscape:connector-curvature="0"
     style="fill:url(#linearGradient4357-8);fill-rule:evenodd;fill-opacity:1.0"
     id="path4314-9"
     d="M 54,17 40,3 40,17 Z" />
  <path
     inkscape:connector-curvature="0"
     style="opacity:0.2;fill:url(#linearGradient4427-5);fill-rule:evenodd"
     id="path4320-7"
     d="M 40,17 54,31 54,17 Z" />
  <rect
     width="0"
     x="6.1666641"
     y="22.833298"
     height="20.166639"
     style="fill:#5e6b78"
     id="rect4035" />
  <rect
     width="0"
     x="197.64157"
     y="23.999973"
     height="21.99995"
     style="fill:#ffffff"
     id="rect4035-75" />
  <rect
     width="0"
     x="197.00003"
     y="21.999975"
     height="21.99995"
     style="fill:#ffffff"
     id="rect4035-4" />
  <rect
     width="0"
     x="193.92828"
     y="21.772314"
     height="22.227785"
     style="fill:#fbd2bf"
     id="rect4035-3" />
  <rect
     width="0"
     x="197.00003"
     y="21.999975"
     height="21.99995"
     style="fill:#fbd2bf"
     id="rect4035-1" />
  <rect
     width="0"
     x="237"
     y="21.999975"
     height="21.99995"
     style="fill:#fbfbfb"
     id="rect4035-2" />
  <rect
     width="0"
     x="197.00003"
     y="21.999975"
     height="21.99995"
     style="fill:#fbfbfb"
     id="rect4035-8" />
  <rect
     width="0"
     x="37.64164"
     y="23.999973"
     height="21.99995"
     style="fill:#ffffff"
     id="rect4035-7" />
  <rect
     width="0"
     x="37.000099"
     y="21.999975"
     height="21.99995"
     style="fill:#ffffff"
     id="rect4035-4-5" />
  <rect
     width="0"
     x="33.928383"
     y="21.772314"
     height="22.227785"
     style="fill:#fbd2bf"
     id="rect4035-3-3" />
  <rect
     width="0"
     x="37.000099"
     y="21.999975"
     height="21.99995"
     style="fill:#fbd2bf"
     id="rect4035-1-5" />
  <rect
     width="0"
     x="117.64159"
     y="-43.999958"
     height="21.99995"
     style="fill:#ffffff"
     id="rect4035-5"
     transform="scale(1,-1)" />
  <rect
     width="0"
     x="117.00005"
     y="-45.999958"
     height="21.99995"
     style="fill:#ffffff"
     id="rect4035-4-6"
     transform="scale(1,-1)" />
  <rect
     width="0"
     x="113.92834"
     y="-46.227619"
     height="22.227785"
     style="fill:#fbd2bf"
     id="rect4035-3-2"
     transform="scale(1,-1)" />
  <rect
     width="0"
     x="117.00005"
     y="-45.999958"
     height="21.99995"
     style="fill:#fbd2bf"
     id="rect4035-1-9"
     transform="scale(1,-1)" />
  <path
     style="fill:#ffffff"
     id="rect4167"
     d="m 39,22 0,20 2,0 0,-20 -2,0 z m -12,8 0,12 2,0 0,-12 -2,0 z m 4,4 0,8 2,0 0,-8 -2,0 z m 4,3 0,5 2,0 0,-5 -2,0 z m -12,2 0,3 2,0 0,-3 -2,0 z m -2,4 0,1 22,0 0,-1 -22,0 z"
     inkscape:connector-curvature="0" />
</svg>
