<?xml version="1.0" encoding="UTF-8" standalone="no"?>
<svg width="64" version="1.1" xmlns="http://www.w3.org/2000/svg" viewBox="0 0 64 64" height="64" xmlns:xlink="http://www.w3.org/1999/xlink" xmlns:inkscape="http://www.inkscape.org/namespaces/inkscape">
 <defs id="defs4">
  <linearGradient inkscape:collect="always" xlink:href="#linearGradient4300-1" id="linearGradient4306" y1="61" y2="3" x2="0" gradientUnits="userSpaceOnUse"/>
  <linearGradient inkscape:collect="always" xlink:href="#linearGradient4410" id="linearGradient4427" y1="31" x1="54" y2="17" x2="40" gradientUnits="userSpaceOnUse" gradientTransform="matrix(1 0 0 -1 -14 78)"/>
  <linearGradient inkscape:collect="always" id="linearGradient4410">
   <stop style="stop-color:#383e51" id="stop4412"/>
   <stop offset="1" style="stop-color:#655c6f;stop-opacity:0" id="stop4414"/>
  </linearGradient>
  <linearGradient inkscape:collect="always" xlink:href="#linearGradient4351-2" id="linearGradient4357" y1="61" y2="47" x2="0" gradientUnits="userSpaceOnUse"/>
  <linearGradient inkscape:collect="always" id="linearGradient4351-2">
   <stop style="stop-color:#d3bdd7" id="stop4353-8"/>
   <stop offset="1" style="stop-color:#e8d9eb" id="stop4355-6"/>
  </linearGradient>
  <linearGradient inkscape:collect="always" id="linearGradient4300-1">
   <stop style="stop-color:#8e44ad" id="stop4302-0"/>
   <stop offset="1" style="stop-color:#9b59b6" id="stop4304-6"/>
  </linearGradient>
 </defs>
 <metadata id="metadata84"/>
 <path style="fill:url(#linearGradient4306)" id="rect3500" d="M 10 3 L 10 61 L 40 61 L 54 47 L 54 17 L 54 3 L 40 3 L 10 3 z "/>
 <rect width="30" x="10" y="60" height="1" style="fill:#2e3132;fill-opacity:0.294118" id="rect4169"/>
 <rect width="44" x="10" y="3" height="1" style="fill:#ffffff;fill-opacity:0.409836" id="rect4236"/>
 <path inkscape:connector-curvature="0" style="fill:url(#linearGradient4357);fill-rule:evenodd" id="path4314" d="M 54,47 40,61 40,47 Z"/>
 <path inkscape:connector-curvature="0" style="fill:url(#linearGradient4427);opacity:0.2;fill-rule:evenodd" id="path4320" d="M 26,61 40,47 40,61 Z"/>
 <path style="fill:#e8d9eb" id="rect4185" d="M 32 21 C 25.924868 21 21 22.343146 21 24 L 21 29 L 21 33 L 21 34 A 11 3 0 0 0 22 35.242188 A 11 3 0 0 0 22.011719 35.248047 A 11 3 0 0 0 22.488281 35.5 A 11 3 0 0 0 22.519531 35.513672 A 11 3 0 0 0 23.070312 35.746094 A 11 3 0 0 0 23.134766 35.769531 A 11 3 0 0 0 23.724609 35.970703 A 11 3 0 0 0 23.857422 36.011719 A 11 3 0 0 0 24.507812 36.191406 A 11 3 0 0 0 24.607422 36.216797 A 11 3 0 0 0 25.380859 36.392578 A 11 3 0 0 0 25.433594 36.402344 A 11 3 0 0 0 26.248047 36.552734 A 11 3 0 0 0 26.386719 36.576172 A 11 3 0 0 0 27.166016 36.691406 A 11 3 0 0 0 27.386719 36.720703 A 11 3 0 0 0 28.123047 36.802734 A 11 3 0 0 0 28.490234 36.839844 A 11 3 0 0 0 29.029297 36.884766 A 11 3 0 0 0 29.621094 36.925781 A 11 3 0 0 0 30.111328 36.951172 A 11 3 0 0 0 30.6875 36.974609 A 11 3 0 0 0 31.150391 36.988281 A 11 3 0 0 0 32 37 A 11 3 0 0 0 32.958984 36.986328 A 11 3 0 0 0 33.373047 36.972656 A 11 3 0 0 0 34.089844 36.943359 A 11 3 0 0 0 34.435547 36.921875 A 11 3 0 0 0 35.142578 36.873047 A 11 3 0 0 0 35.460938 36.84375 A 11 3 0 0 0 36.228516 36.767578 A 11 3 0 0 0 36.408203 36.746094 A 11 3 0 0 0 37.216797 36.638672 A 11 3 0 0 0 37.429688 36.603516 A 11 3 0 0 0 38.107422 36.492188 A 11 3 0 0 0 38.419922 36.431641 A 11 3 0 0 0 39.015625 36.306641 A 11 3 0 0 0 39.210938 36.259766 A 11 3 0 0 0 39.873047 36.091797 A 11 3 0 0 0 39.886719 36.087891 A 11 3 0 0 0 39.910156 36.080078 A 11 3 0 0 0 40.611328 35.861328 A 11 3 0 0 0 41.248047 35.617188 A 11 3 0 0 0 41.25 35.617188 A 11 3 0 0 0 41.255859 35.615234 A 11 3 0 0 0 41.791016 35.361328 A 11 3 0 0 0 41.796875 35.357422 A 11 3 0 0 0 42 35.242188 A 11 3 0 0 0 43 34 L 43 33 L 43 29 L 43 24 C 43 22.343146 38.075132 21 32 21 z M 32 37 L 31 37 L 31 40 L 32 40 L 32 41 L 24 41 L 24 40 L 21 40 L 21 43 L 24 43 L 24 42 L 32 42 L 33 42 L 40 42 L 40 43 L 43 43 L 43 40 L 40 40 L 40 41 L 33 41 L 33 40 L 34 40 L 34 37 L 32 37 z M 32 22 C 37.522847 22 42 22.895431 42 24 C 42 25.104569 37.522847 26 32 26 C 26.477153 26 22 25.104569 22 24 C 22 22.895431 26.477153 22 32 22 z M 22 25.242188 C 23.78371 26.311606 27.69217 26.99864 32 27 C 36.30783 26.9986 40.21629 26.311606 42 25.242188 L 42 29 C 42 30.104569 37.522847 31 32 31 C 26.477153 31 22 30.104569 22 29 L 22 25.242188 z M 22 30.242188 C 23.78371 31.311606 27.69217 31.99864 32 32 C 36.30783 31.9986 40.21629 31.311606 42 30.242188 L 42 32 L 42 32.757812 L 42 33 L 42 34 A 10 2 0 0 1 32 36 A 10 2 0 0 1 22 34 L 22 33 L 22 32.757812 L 22 32 L 22 30.242188 z M 32 38 L 33 38 L 33 39 L 32 39 L 32 38 z M 22 41 L 23 41 L 23 42 L 22 42 L 22 41 z M 41 41 L 42 41 L 42 42 L 41 42 L 41 41 z "/>
</svg>
