<?xml version="1.0" encoding="UTF-8" standalone="no"?>
<svg
   xmlns:dc="http://purl.org/dc/elements/1.1/"
   xmlns:cc="http://creativecommons.org/ns#"
   xmlns:rdf="http://www.w3.org/1999/02/22-rdf-syntax-ns#"
   xmlns:svg="http://www.w3.org/2000/svg"
   xmlns="http://www.w3.org/2000/svg"
   xmlns:xlink="http://www.w3.org/1999/xlink"
   xmlns:sodipodi="http://sodipodi.sourceforge.net/DTD/sodipodi-0.dtd"
   xmlns:inkscape="http://www.inkscape.org/namespaces/inkscape"
   width="64"
   version="1.1"
   viewBox="0 0 64 64"
   height="64"
   id="svg2"
   inkscape:version="0.91 r13725"
   sodipodi:docname="application-x-font-bdf.svg">
  <sodipodi:namedview
     pagecolor="#ffffff"
     bordercolor="#666666"
     borderopacity="1"
     objecttolerance="10"
     gridtolerance="10"
     guidetolerance="10"
     inkscape:pageopacity="0"
     inkscape:pageshadow="2"
     inkscape:window-width="1920"
     inkscape:window-height="1025"
     id="namedview24"
     showgrid="false"
     inkscape:zoom="5.2149125"
     inkscape:cx="-29.307976"
     inkscape:cy="31.895654"
     inkscape:window-x="0"
     inkscape:window-y="26"
     inkscape:window-maximized="1"
     inkscape:current-layer="svg2" />
  <defs
     id="defs4">
    <linearGradient
       inkscape:collect="always"
       id="linearGradient4410">
      <stop
         style="stop-color:#383e51"
         id="stop4412" />
      <stop
         offset="1"
         style="stop-color:#655c6f;stop-opacity:0"
         id="stop4414" />
    </linearGradient>
    <linearGradient
       inkscape:collect="always"
       xlink:href="#linearGradient4410"
       id="linearGradient4427-5-3"
       y1="17"
       x1="40"
       y2="31"
       x2="54"
       gradientUnits="userSpaceOnUse" />
    <linearGradient
       inkscape:collect="always"
       xlink:href="#linearGradient6251"
       id="linearGradient4306-5-5"
       y1="2.9779029"
       y2="60.977901"
       x2="6"
       gradientUnits="userSpaceOnUse"
       gradientTransform="matrix(1,0,0,-1,0,63.977903)"
       x1="6" />
    <linearGradient
       id="linearGradient6251"
       inkscape:collect="always">
      <stop
         id="stop6253"
         offset="0"
         style="stop-color:#ffffff;stop-opacity:0" />
      <stop
         id="stop6255"
         offset="1"
         style="stop-color:#ffffff;stop-opacity:0.2" />
    </linearGradient>
  </defs>
  <metadata
     id="metadata84">
    <rdf:RDF>
      <cc:Work
         rdf:about="">
        <dc:format>image/svg+xml</dc:format>
        <dc:type
           rdf:resource="http://purl.org/dc/dcmitype/StillImage" />
      </cc:Work>
    </rdf:RDF>
  </metadata>
  <path
     inkscape:connector-curvature="0"
     style="fill:#8542c2;fill-opacity:1"
     id="rect3500-9-5"
     d="m 10,60.977903 0,-58 30,0 14,14 0,30 0,14 -14,0 -30,0 z" />
  <rect
     width="30"
     x="10"
     y="-4"
     height="1"
     style="opacity:0.5;fill:#ffffff;fill-opacity:1"
     id="rect4169-2-3"
     transform="scale(1,-1)" />
  <rect
     width="44"
     x="10"
     y="-61"
     height="1"
     style="opacity:0.25;fill:#000000;fill-opacity:1"
     id="rect4236-8-5"
     transform="scale(1,-1)" />
  <path
     inkscape:connector-curvature="0"
     style="opacity:0.5;fill:#ffffff;fill-opacity:1;fill-rule:evenodd"
     id="path4314-9-6"
     d="M 54,17 40,3.0000001 40,17 Z" />
  <path
     inkscape:connector-curvature="0"
     style="opacity:0.2;fill:url(#linearGradient4427-5-3);fill-rule:evenodd"
     id="path4320-7-2"
     d="M 40,17 54,31 54,17 Z" />
  <rect
     width="0"
     x="-24.679218"
     y="15.999974"
     height="10.999983"
     style="fill:#ffffff"
     id="rect4035-75" />
  <rect
     width="0"
     x="-24.999989"
     y="14.999974"
     height="10.999983"
     style="fill:#ffffff"
     id="rect4035-4-3" />
  <rect
     width="0"
     x="-26.535847"
     y="14.886144"
     height="11.1139"
     style="fill:#fbd2bf"
     id="rect4035-3-56" />
  <rect
     width="0"
     x="-24.999989"
     y="14.999974"
     height="10.999983"
     style="fill:#fbd2bf"
     id="rect4035-1-2" />
  <rect
     width="0"
     x="-24.999989"
     y="14.999974"
     height="10.999983"
     style="fill:#fbfbfb"
     id="rect4035-5-9" />
  <rect
     width="0"
     x="-24.679218"
     y="15.999974"
     height="10.999983"
     style="fill:#ffffff"
     id="rect4035-7-1" />
  <rect
     width="0"
     x="-24.999989"
     y="14.999974"
     height="10.999983"
     style="fill:#ffffff"
     id="rect4035-4-53" />
  <rect
     width="0"
     x="-26.535847"
     y="14.886144"
     height="11.1139"
     style="fill:#fbd2bf"
     id="rect4035-3-5" />
  <rect
     width="0"
     x="-24.999989"
     y="14.999974"
     height="10.999983"
     style="fill:#fbd2bf"
     id="rect4035-1-6" />
  <rect
     width="0"
     x="-24.999989"
     y="14.999974"
     height="10.999983"
     style="fill:#fbfbfb"
     id="rect4035-5-2" />
  <rect
     width="0"
     x="-24.679218"
     y="15.999974"
     height="10.999983"
     style="fill:#ffffff"
     id="rect4035-53" />
  <rect
     width="0"
     x="-24.999989"
     y="14.999974"
     height="10.999983"
     style="fill:#ffffff"
     id="rect4035-4-5" />
  <rect
     width="0"
     x="-24.679218"
     y="15.999974"
     height="10.999983"
     style="fill:#ffffff"
     id="rect4035-6" />
  <rect
     width="0"
     x="-24.999989"
     y="14.999974"
     height="10.999983"
     style="fill:#ffffff"
     id="rect4035-4-2" />
  <rect
     width="0"
     x="-26.535847"
     y="14.886144"
     height="11.1139"
     style="fill:#fbd2bf"
     id="rect4035-3-9" />
  <rect
     width="0"
     x="-24.999989"
     y="14.999974"
     height="10.999983"
     style="fill:#fbd2bf"
     id="rect4035-1-1" />
  <rect
     width="0"
     x="-24.999989"
     y="14.999974"
     height="10.999983"
     style="fill:#fbfbfb"
     id="rect4035-5-27" />
  <rect
     width="0"
     x="-24.999989"
     y="14.999974"
     height="10.999983"
     style="fill:#fffcf9"
     id="rect4035-8-0" />
  <rect
     width="0"
     x="-24.999989"
     y="14.999974"
     height="10.999983"
     style="fill:#e8d9eb"
     id="rect4035-44" />
  <rect
     width="0"
     x="-24.999989"
     y="14.999974"
     height="10.999983"
     style="fill:#e8d9eb"
     id="rect4035-7" />
  <rect
     width="0"
     x="-24.679218"
     y="15.999974"
     height="10.999983"
     style="fill:#ffffff"
     id="rect4035" />
  <rect
     width="0"
     x="-24.999989"
     y="14.999974"
     height="10.999983"
     style="fill:#ffffff"
     id="rect4035-4" />
  <rect
     width="0"
     x="-26.535847"
     y="14.886144"
     height="11.1139"
     style="fill:#fbd2bf"
     id="rect4035-3" />
  <rect
     width="0"
     x="-24.999989"
     y="14.999974"
     height="10.999983"
     style="fill:#fbd2bf"
     id="rect4035-1" />
  <rect
     width="0"
     x="-24.999989"
     y="14.999974"
     height="10.999983"
     style="fill:#fbfbfb"
     id="rect4035-5" />
  <rect
     width="0"
     x="-24.999989"
     y="14.999974"
     height="10.999983"
     style="fill:#fffcf9"
     id="rect4035-8" />
  <path
     inkscape:connector-curvature="0"
     style="opacity:0.75;fill:#fcffff;fill-opacity:1"
     id="path24-7"
     d="m 29.693805,41.363667 c -1.807667,0 -3.039667,-0.905667 -2.7115,-3.213834 0.410667,-2.883833 2.135833,-3.831666 7.601,-4.6145 0.04033,0 1.725167,-0.287833 1.725167,-0.287833 l -0.6985,5.1095 c -1.4795,1.8535 -4.148834,3.006667 -5.916167,3.006667 m 5.628333,-0.2475 0.0825,2.388833 2.341167,0 2.135833,-15.4495 C 40.539805,23.3585 37.868638,22 34.130472,22 c -2.671167,0 -5.300167,0.782833 -6.860334,1.6885 l 0.451,2.553833 c 1.684834,-0.823166 3.985667,-1.400666 6.079334,-1.400666 2.588666,0 3.532833,1.277833 3.204666,3.749166 l -0.370333,2.3485 -1.9305,0.2475 C 29.734138,31.969667 24.884972,32.7525 24.105805,38.272667 23.530138,42.227167 25.873138,44 28.995305,44 c 1.972667,0 4.396333,-0.740667 6.326833,-2.883833" />
  <path
     inkscape:connector-curvature="0"
     style="fill:url(#linearGradient4306-5-5);fill-opacity:1"
     id="rect3500-9-6"
     d="m 10,60.977903 0,-57.9999999 30,0 14,13.9999999 0,30 0,14 -14,0 -30,0 z" />
</svg>
