<?xml version="1.0" encoding="UTF-8" standalone="no"?>
<svg
   xmlns:dc="http://purl.org/dc/elements/1.1/"
   xmlns:cc="http://creativecommons.org/ns#"
   xmlns:rdf="http://www.w3.org/1999/02/22-rdf-syntax-ns#"
   xmlns:svg="http://www.w3.org/2000/svg"
   xmlns="http://www.w3.org/2000/svg"
   xmlns:xlink="http://www.w3.org/1999/xlink"
   xmlns:sodipodi="http://sodipodi.sourceforge.net/DTD/sodipodi-0.dtd"
   xmlns:inkscape="http://www.inkscape.org/namespaces/inkscape"
   viewBox="0 0 64 64"
   id="svg2"
   version="1.1"
   inkscape:version="0.91 r13725"
   sodipodi:docname="application-vnd.ms-publisher.svg"
   width="64"
   height="64">
  <metadata
     id="metadata84">
    <rdf:RDF>
      <cc:Work
         rdf:about="">
        <dc:format>image/svg+xml</dc:format>
        <dc:type
           rdf:resource="http://purl.org/dc/dcmitype/StillImage" />
        <dc:title />
      </cc:Work>
    </rdf:RDF>
  </metadata>
  <sodipodi:namedview
     pagecolor="#ffffff"
     bordercolor="#666666"
     borderopacity="1"
     objecttolerance="10"
     gridtolerance="10"
     guidetolerance="10"
     inkscape:pageopacity="0"
     inkscape:pageshadow="2"
     inkscape:window-width="1920"
     inkscape:window-height="1013"
     id="namedview82"
     showgrid="true"
     inkscape:showpageshadow="false"
     inkscape:zoom="7.4456032"
     inkscape:cx="2.3305777"
     inkscape:cy="1.3481012"
     inkscape:window-x="0"
     inkscape:window-y="38"
     inkscape:window-maximized="1"
     inkscape:current-layer="svg2"
     showguides="true">
    <inkscape:grid
       type="xygrid"
       id="grid3413" />
    <sodipodi:guide
       position="0,64"
       orientation="64,0"
       id="guide3482" />
    <sodipodi:guide
       position="0,0"
       orientation="0,64"
       id="guide3484" />
    <sodipodi:guide
       position="64,0"
       orientation="-64,0"
       id="guide3486" />
    <sodipodi:guide
       position="64,64"
       orientation="0,-64"
       id="guide3488" />
    <sodipodi:guide
       position="10,61"
       orientation="58,0"
       id="guide3492" />
    <sodipodi:guide
       position="10,3"
       orientation="0,44"
       id="guide3494" />
    <sodipodi:guide
       position="54,3"
       orientation="-58,0"
       id="guide3496" />
    <sodipodi:guide
       position="54,61"
       orientation="0,-44"
       id="guide3498" />
    <sodipodi:guide
       position="54,47"
       orientation="-14,0"
       id="guide4310" />
    <sodipodi:guide
       position="54,61"
       orientation="0,-14"
       id="guide4312" />
    <sodipodi:guide
       position="21,43"
       orientation="22,0"
       id="guide4250" />
    <sodipodi:guide
       position="21,21"
       orientation="0,22"
       id="guide4252" />
    <sodipodi:guide
       position="43,21"
       orientation="-22,0"
       id="guide4254" />
    <sodipodi:guide
       position="43,43"
       orientation="0,-22"
       id="guide4256" />
  </sodipodi:namedview>
  <defs
     id="defs4">
    <linearGradient
       inkscape:collect="always"
       id="linearGradient4351">
      <stop
         style="stop-color:#ade2a1;stop-opacity:1"
         offset="0"
         id="stop4353" />
      <stop
         style="stop-color:#cfeec9;stop-opacity:1"
         offset="1"
         id="stop4355" />
    </linearGradient>
    <linearGradient
       id="linearGradient4300-2">
      <stop
         id="stop4302-4"
         offset="0"
         style="stop-color:#7fcc74;stop-opacity:1" />
      <stop
         id="stop4304-1"
         offset="1"
         style="stop-color:#87d37c;stop-opacity:1" />
    </linearGradient>
    <linearGradient
       inkscape:collect="always"
       xlink:href="#linearGradient4300-2"
       id="linearGradient4306-5"
       y1="61"
       y2="3"
       x2="0"
       gradientUnits="userSpaceOnUse"
       gradientTransform="matrix(1,0,0,-1,0,64)" />
    <linearGradient
       inkscape:collect="always"
       xlink:href="#linearGradient4351"
       id="linearGradient4357-8"
       y1="61"
       y2="47"
       x2="0"
       gradientUnits="userSpaceOnUse"
       gradientTransform="matrix(1,0,0,-1,0,64)" />
  </defs>
  <path
     inkscape:connector-curvature="0"
     style="fill:url(#linearGradient4306-5);fill-opacity:1.0"
     id="rect3500-9"
     d="m 10,61 0,-58 30,0 14,14 0,30 0,14 -14,0 -30,0 z" />
  <rect
     width="30"
     x="10"
     y="-4"
     height="1"
     style="fill:#ffffff;fill-opacity:0.41176471"
     id="rect4169-2"
     transform="scale(1,-1)" />
  <rect
     width="44"
     x="10"
     y="-61"
     height="1"
     style="fill:#2e3132;fill-opacity:0.29411765"
     id="rect4236-8"
     transform="scale(1,-1)" />
  <path
     inkscape:connector-curvature="0"
     style="fill:url(#linearGradient4357-8);fill-opacity:1.0;fill-rule:evenodd"
     id="path4314-9"
     d="M 54,17 40,3 40,17 Z" />
  <g
     transform="matrix(0.24714242,0,0,0.25581395,-135.44424,22)"
     id="publisher">
    <path
       style="fill:#ffffff;fill-opacity:1"
       inkscape:connector-curvature="0"
       d="M 679.06,0 685,0 c 0,6 0,12 0,18 2.34,0 4.69,0 7.04,0 0.28,-3.57 -1.33,-9.24 3.17,-10.7 6.22,-0.73 12.53,-0.07 18.79,-0.33 2.47,0.22 5.63,-0.6 7.49,1.51 0.53,1.43 0.46,3 0.53,4.51 -0.03,13.66 -0.05,27.33 0.01,40.99 -0.04,1.82 -0.01,3.7 -0.62,5.44 -3.03,0.99 -6.29,0.5 -9.41,0.59 -0.15,4.56 0.39,9.19 -0.32,13.71 -0.85,2.34 -3.63,2.23 -5.66,2.29 -7.01,0.02 -14.01,-0.03 -21.02,-0.01 0,3.33 0,6.67 0,10 l -6.19,0 c -15.25,-2.77 -30.53,-5.32 -45.79,-8 -0.01,-23.33 -0.01,-46.66 0,-69.99 15.34,-2.67 30.7,-5.3 46.04,-8.01 z"
       id="path77" />
    <path
       style="fill:#85d17a;fill-opacity:1"
       inkscape:connector-curvature="0"
       d="m 696.88,10.3 c 7.35,-0.65 14.75,-0.14 22.12,-0.3 0,15.33 0,30.67 0,46 -2.34,0 -4.67,0 -7,0 -0.02,-12.02 0.03,-24.03 -0.02,-36.05 -4.7,-3.72 -11.01,-5.27 -15.1,-9.65 z"
       id="path79" />
    <path
       style="fill:#85d17a;fill-opacity:1"
       inkscape:connector-curvature="0"
       d="m 685,21 c 7.67,0 15.33,0 23,0 0,17.33 0,34.67 0,52 -7.67,0 -15.33,0 -23,0 -0.01,-2 -0.01,-4 0,-6 5.67,0 11.33,0 17,0 -0.01,-1.33 -0.01,-2.67 0,-4 -5.67,0 -11.33,0 -17,0 -0.01,-1.67 -0.01,-3.33 0,-5 5.67,0 11.33,0 17,0 -0.01,-1.33 -0.01,-2.67 0,-4 -5.67,0 -11.33,0 -17,0 -0.01,-1.67 -0.01,-3.33 0,-5 5.67,0 11.33,0 17,0 -0.01,-1.33 -0.01,-2.67 0,-4 -5.67,0 -11.33,0 -17,0 -0.01,-1.67 -0.01,-3.33 0,-5 5.67,0 11.33,0 17,0 0,-4.67 0,-9.33 0,-14 -5.67,0 -11.33,0 -17,0 -0.01,-1.67 -0.01,-3.33 0,-5 z"
       id="path81" />
    <path
       style="fill:#85d17a;fill-opacity:1"
       inkscape:connector-curvature="0"
       d="m 649,26.47 c 5.45,0.17 12.07,-2.2 16.59,1.89 4.29,5.25 3.14,14.83 -3.25,17.96 -2.27,1.16 -4.87,1.01 -7.33,0.91 -0.01,3.92 -0.02,7.84 -0.01,11.77 -2.02,-0.2 -4.04,-0.4 -6.05,-0.62 0.1,-10.64 0.01,-21.27 0.05,-31.91 z"
       id="path83" />
    <path
       style="fill:#ffffff;fill-opacity:1"
       inkscape:connector-curvature="0"
       d="m 655,31.84 c 1.98,-0.11 4.46,-0.47 5.78,1.44 1.1,1.96 1.02,4.51 0.09,6.52 -1.16,2.05 -3.72,1.85 -5.72,2.08 -0.2,-3.34 -0.17,-6.69 -0.15,-10.04 z"
       id="path85" />
  </g>
</svg>
