<?xml version="1.0" encoding="UTF-8"?>
<svg id="svg39" version="1.1" viewBox="0 0 64 64" xmlns="http://www.w3.org/2000/svg" xmlns:cc="http://creativecommons.org/ns#" xmlns:dc="http://purl.org/dc/elements/1.1/" xmlns:rdf="http://www.w3.org/1999/02/22-rdf-syntax-ns#" xmlns:xlink="http://www.w3.org/1999/xlink">
 <metadata id="metadata43">
  <rdf:RDF>
   <cc:Work rdf:about="">
    <dc:format>image/svg+xml</dc:format>
    <dc:type rdf:resource="http://purl.org/dc/dcmitype/StillImage"/>
   </cc:Work>
  </rdf:RDF>
 </metadata>
 <defs id="defs13">
  <linearGradient id="b" x1="40" x2="54" y1="17" y2="31" gradientTransform="translate(238 78.36)" gradientUnits="userSpaceOnUse">
   <stop id="stop2" stop-color="#060606" offset="0"/>
   <stop id="stop4" stop-opacity="0" offset="1"/>
  </linearGradient>
  <linearGradient id="c" x2="0" y1="392.36" y2="336.36" gradientTransform="translate(190 -254)" gradientUnits="userSpaceOnUse">
   <stop id="stop7" stop-color="#fff" stop-opacity="0" offset="0"/>
   <stop id="stop9" stop-color="#fff" stop-opacity=".2" offset="1"/>
  </linearGradient>
  <path id="a" d="m248 139.36v-58h30l14 14v44h-14z"/>
 </defs>
 <g id="g31" transform="translate(-238 -78.36)">
  <use id="use15" fill="#2e6ad1" xlink:href="#a"/>
  <g id="g21">
   <path id="path17" d="m248 82.36h30v-1h-30z" fill="#fff" opacity=".5"/>
   <path id="path19" d="m248 139.36h44v-1h-44z" opacity=".25"/>
  </g>
  <g id="g27" fill-rule="evenodd">
   <path id="path23" d="m292 95.36-14-14v14z" fill="#fff" opacity=".5"/>
   <path id="path25" d="m278 95.36 14 14v-14z" fill="url(#b)" opacity=".2"/>
  </g>
  <use id="use29" width="100%" height="100%" fill="url(#c)" xlink:href="#a"/>
 </g>
 <g id="g37" fill="#fff" opacity=".6">
  <path id="path33" d="m30.554 42.68c-0.45-1.889-0.865-3.572-0.92-3.74-0.117-0.358-0.285-0.405-0.345-0.097-0.048 0.241-0.758 5.634-0.761 5.78-6e-3 0.215-0.145-0.15-0.712-1.868l-0.585-1.77 5e-3 -1.546 4e-3 -1.546 0.357 1.148c0.195 0.632 0.39 1.206 0.432 1.276 0.14 0.233 0.246 0.084 0.334-0.465 0.091-0.566 0.563-4.934 0.645-5.967 0.026-0.328 0.07-0.596 0.096-0.596 0.027 0 0.251 0.848 0.499 1.884 0.527 2.205 1.294 5.118 1.39 5.28 0.09 0.153 0.194 0.141 0.279-0.032 0.06-0.125 0.808-5.341 1.1-7.679l0.097-0.773 0.09 0.354c0.051 0.195 0.348 1.441 0.66 2.77 0.867 3.69 0.935 3.927 1.12 3.927 0.053 0 0.112-0.05 0.133-0.112 0.06-0.176 0.235-1.427 0.479-3.397 0.122-0.992 0.245-1.856 0.274-1.92 0.034-0.079 0.186 0.293 0.465 1.138l0.413 1.256-4e-3 1.47-5e-3 1.469-0.202-0.633c-0.209-0.65-0.314-0.826-0.431-0.716-0.068 0.063-0.26 1.287-0.69 4.407-0.271 1.964-0.331 2.323-0.37 2.222-0.014-0.036-0.317-1.47-0.673-3.188-0.79-3.811-0.788-3.8-0.917-3.843-0.22-0.075-0.168-0.367-0.815 4.68-0.284 2.214-0.54 4.078-0.57 4.144-0.032 0.074-0.357-1.157-0.872-3.316z"/>
  <path id="path35" d="m31.992 22a11.359 11.359 0 0 0-3.546 0.568c-3.529 1.148-6.114 3.95-7.085 7.683-0.359 1.38-0.366 1.51-0.36 5.512 6e-3 3.353 0.014 3.64 0.114 4.127 0.357 1.729 1.507 3.085 3.14 3.753 0.177 0.073 0.36 0.145 0.547 0.2 0.072 0.022 0.155 0.034 0.227 0.063 0.158 0.063 0.293 0.151 0.358 0.207 0.042 0.035 0.088 0.052 0.134 0.07 0.011 0.042 0.026 0.08 0.054 0.106 0.115 0.106 0.23 0.108 0.314 0.131 0.184 0.079 0.397 0.05 0.597 0.055l0.085 4e-3h1e-3c0.266 3e-3 0.507-0.023 0.707-0.077 0.2-0.055 0.37-0.126 0.47-0.296 0.05-0.084 0.034-0.091 0.038-0.126 5e-3 -0.036 0.01-0.076 0.013-0.126 8e-3 -0.099 0.013-0.23 0.018-0.392 0.01-0.323 0.018-0.763 0.018-1.265 0-0.936 0.028-3.166 0.061-4.949 0.034-1.83 0.06-2.674 0.01-3.133-0.026-0.23-0.077-0.39-0.193-0.5-0.117-0.11-0.236-0.13-0.347-0.176-0.329-0.134-0.763-0.142-1.154-0.092a2.16 2.16 0 0 0-0.529 0.13c-0.116 0.046-0.23 0.101-0.301 0.205a5.46 5.46 0 0 1-0.62 0.235c-2.442 1.288-2.342 0.62-1.765-1.896 0.66-4.582 3.297-7.45 7.64-8.112 0.818-0.125 2.34-0.125 3.057 0 2.743 0.476 5.15 2.283 6.442 4.832 0.56 1.103 0.702 2.038 0.848 3.334 0.495 2.766 0.733 2.729-1.658 1.898a8.62 8.62 0 0 1-0.821-0.299l-0.203-0.158c-0.305-0.236-0.763-0.282-1.195-0.245h-1e-3a2.159 2.159 0 0 0-0.607 0.134c-0.18 0.072-0.343 0.171-0.433 0.338-0.038 0.07-0.03 0.094-0.036 0.139s-0.01 0.099-0.013 0.167c-6e-3 0.137-9e-3 0.332-9e-3 0.6 0 0.536 0.013 1.364 0.037 2.596 0.036 1.808 0.07 4.081 0.075 5.046l0.011 1.857 0.228 0.167c0.125 0.092 0.272 0.154 0.406 0.187l0.01 4e-3 0.015 2e-3a0.888 0.888 0 0 0 0.106 0.017c0.144 0.016 0.337 0.022 0.512 0.015 0.258-0.01 0.479-0.05 0.66-0.127a0.822 0.822 0 0 0 0.254-0.165c0.075-0.045 0.148-0.095 0.23-0.16 0.039-0.036 0.265-0.126 0.4-0.186 0.125-0.055 0.279-0.08 0.427-0.13 0.823-0.275 1.369-0.613 2.024-1.26 0.65-0.643 1-1.184 1.289-1.994 0.427-1.443 0.281-3.041 0.29-4.539 0.018-4.369-0.064-4.457-0.392-5.783a10.502 10.502 0 0 0-2.93-5.1 10.737 10.737 0 0 0-4.149-2.507c-1.194-0.39-2.346-0.585-3.52-0.589z"/>
 </g>
</svg>
