<?xml version="1.0" encoding="UTF-8" standalone="no"?>
<svg
   xmlns:dc="http://purl.org/dc/elements/1.1/"
   xmlns:cc="http://creativecommons.org/ns#"
   xmlns:rdf="http://www.w3.org/1999/02/22-rdf-syntax-ns#"
   xmlns:svg="http://www.w3.org/2000/svg"
   xmlns="http://www.w3.org/2000/svg"
   xmlns:xlink="http://www.w3.org/1999/xlink"
   xmlns:sodipodi="http://sodipodi.sourceforge.net/DTD/sodipodi-0.dtd"
   xmlns:inkscape="http://www.inkscape.org/namespaces/inkscape"
   width="64"
   version="1.1"
   viewBox="0 0 64 64"
   height="64"
   id="svg2"
   inkscape:version="0.91 r13725"
   sodipodi:docname="application-x-pem-key.svg">
  <sodipodi:namedview
     pagecolor="#ffffff"
     bordercolor="#666666"
     borderopacity="1"
     objecttolerance="10"
     gridtolerance="10"
     guidetolerance="10"
     inkscape:pageopacity="0"
     inkscape:pageshadow="2"
     inkscape:window-width="1366"
     inkscape:window-height="699"
     id="namedview27"
     showgrid="true"
     inkscape:zoom="4.8712104"
     inkscape:cx="28.32689"
     inkscape:cy="36.106776"
     inkscape:window-x="0"
     inkscape:window-y="0"
     inkscape:window-maximized="1"
     inkscape:current-layer="svg2">
    <inkscape:grid
       type="xygrid"
       id="grid4153" />
  </sodipodi:namedview>
  <defs
     id="defs4">
    <linearGradient
       inkscape:collect="always"
       id="linearGradient4410">
      <stop
         style="stop-color:#383e51"
         id="stop4412" />
      <stop
         offset="1"
         style="stop-color:#655c6f;stop-opacity:0"
         id="stop4414" />
    </linearGradient>
    <linearGradient
       id="linearGradient4351">
      <stop
         style="stop-color:#036b53"
         id="stop4353" />
      <stop
         offset="1"
         style="stop-color:#036b53"
         id="stop4355" />
    </linearGradient>
    <linearGradient
       inkscape:collect="always"
       id="linearGradient4351-7">
      <stop
         style="stop-color:#fb7d80"
         id="stop4353-9" />
      <stop
         offset="1"
         style="stop-color:#fcbcbe"
         id="stop4355-6" />
    </linearGradient>
    <linearGradient
       inkscape:collect="always"
       id="linearGradient4300-8">
      <stop
         style="stop-color:#cf000f"
         id="stop4302-2" />
      <stop
         offset="1"
         style="stop-color:#d91e18"
         id="stop4304-7" />
    </linearGradient>
    <linearGradient
       inkscape:collect="always"
       xlink:href="#linearGradient4300-8"
       id="linearGradient4306-5"
       y1="3"
       y2="61"
       x2="5"
       gradientUnits="userSpaceOnUse"
       gradientTransform="matrix(1,0,0,-1,0,64)"
       x1="5" />
    <linearGradient
       inkscape:collect="always"
       xlink:href="#linearGradient4351-7"
       id="linearGradient4357-8"
       y1="61"
       y2="47"
       x2="0"
       gradientUnits="userSpaceOnUse"
       gradientTransform="matrix(1,0,0,-1,0,64)" />
    <linearGradient
       inkscape:collect="always"
       xlink:href="#linearGradient4410"
       id="linearGradient4427-5"
       y1="17"
       x1="40"
       y2="31"
       x2="54"
       gradientUnits="userSpaceOnUse" />
  </defs>
  <metadata
     id="metadata84">
    <rdf:RDF>
      <cc:Work
         rdf:about="">
        <dc:format>image/svg+xml</dc:format>
        <dc:type
           rdf:resource="http://purl.org/dc/dcmitype/StillImage" />
      </cc:Work>
    </rdf:RDF>
  </metadata>
  <path
     inkscape:connector-curvature="0"
     style="fill:url(#linearGradient4306-5);fill-opacity:1.0"
     id="rect3500-9"
     d="m 10,61 0,-58 30,0 14,14 0,30 0,14 -14,0 -30,0 z" />
  <rect
     width="30"
     x="10"
     y="-4"
     height="1"
     style="fill:#ffffff;fill-opacity:0.41176471"
     id="rect4169-2"
     transform="scale(1,-1)" />
  <rect
     width="44"
     x="10"
     y="-61"
     height="1"
     style="fill:#2e3132;fill-opacity:0.29411765"
     id="rect4236-8"
     transform="scale(1,-1)" />
  <path
     inkscape:connector-curvature="0"
     style="fill:url(#linearGradient4357-8);fill-opacity:1.0;fill-rule:evenodd"
     id="path4314-9"
     d="M 54,17 40,3 40,17 Z" />
  <path
     inkscape:connector-curvature="0"
     style="opacity:0.2;fill:url(#linearGradient4427-5);fill-rule:evenodd"
     id="path4320-7"
     d="M 40,17 54,31 54,17 Z" />
  <path
     inkscape:connector-curvature="0"
     style="fill:#fcbcbe;fill-opacity:1"
     d="m 22.326062,39.201468 c 0.128379,-0.118096 1.39466,-0.0364 1.39466,-0.0364 l 0.01443,-1.339735 0.61937,-0.707965 1.468114,-0.02399 0.0014,-0.0019 0,0 c 0.0062,0.01993 9.47e-4,-1.473607 9.47e-4,-1.473607 l 0.685286,-0.496484 c 0,0 1.332828,-0.03916 1.34381,-0.04944 l 0.107114,-1.369237 1.233956,-1.460577 c -0.426414,-0.92015 -0.672259,-1.942624 -0.672259,-3.024187 0,-3.979334 3.228837,-7.20543 7.211547,-7.20543 3.984906,-9.47e-4 7.213746,3.225308 7.213746,7.204645 0,3.980038 -3.22884,7.206759 -7.212255,7.206759 -1.10487,0 -2.147983,-0.256127 -3.083905,-0.700432 l -8.20248,8.251918 c 0,0 -3.472567,0.0096 -3.472567,0.0083 l -0.0055,-3.504823 c 0,0 0.545216,-0.53148 1.354797,-1.277189 z m 14.785711,-9.627352 c 0.944161,0 1.709174,-0.769797 1.709174,-1.719453 0,-0.949651 -0.764934,-1.720158 -1.709174,-1.720158 -0.944239,0 -1.709879,0.770427 -1.709879,1.720158 0,0.949735 0.765718,1.719453 1.709879,1.719453 z"
     id="path5" />
  <path
     inkscape:connector-curvature="0"
     style="fill:#f39da5;fill-opacity:1"
     d="m 37.110439,25.445686 c 1.327335,0 2.403405,1.076069 2.403405,2.403404 0,1.327339 -1.07607,2.403409 -2.403405,2.403409 -1.328041,0 -2.403405,-1.07607 -2.403405,-2.403409 0,-1.327335 1.075364,-2.403404 2.403405,-2.403404 z m 0,3.433492 c 0.5686,0 1.030008,-0.461484 1.030008,-1.030009 0,-0.569224 -0.461487,-1.030008 -1.030008,-1.030008 -0.568599,0 -1.030008,0.460784 -1.030008,1.030008 0,0.568525 0.461409,1.030009 1.030008,1.030009 z"
     id="path7" />
  <path
     inkscape:connector-curvature="0"
     style="fill:#f39da5;fill-opacity:1"
     d="m 31.001641,34.645924 c 0.655781,0.571344 1.414594,1.022471 2.246149,1.329448 l -8.154377,8.011562 -3.433413,0 9.341641,-9.34101 z"
     id="path9" />
</svg>
