<?xml version="1.0" encoding="UTF-8" standalone="no"?>
<svg width="64" version="1.1" xmlns="http://www.w3.org/2000/svg" viewBox="0 0 64 64" height="64" xmlns:xlink="http://www.w3.org/1999/xlink" xmlns:inkscape="http://www.inkscape.org/namespaces/inkscape">
 <defs id="defs4">
  <linearGradient inkscape:collect="always" xlink:href="#linearGradient4300-7-6" id="linearGradient4306" y1="61" y2="3" x2="0" gradientUnits="userSpaceOnUse"/>
  <linearGradient inkscape:collect="always" xlink:href="#linearGradient4410" id="linearGradient4427" y1="31" x1="54" y2="17" x2="40" gradientUnits="userSpaceOnUse" gradientTransform="matrix(1 0 0 -1 -14 78)"/>
  <linearGradient inkscape:collect="always" id="linearGradient4410">
   <stop style="stop-color:#383e51" id="stop4412"/>
   <stop offset="1" style="stop-color:#655c6f;stop-opacity:0" id="stop4414"/>
  </linearGradient>
  <linearGradient inkscape:collect="always" xlink:href="#linearGradient4351-8" id="linearGradient4357" y1="61" y2="47" x2="0" gradientUnits="userSpaceOnUse"/>
  <linearGradient inkscape:collect="always" id="linearGradient4351-8">
   <stop style="stop-color:#dedede" id="stop4353-5"/>
   <stop offset="1" style="stop-color:#fbfbfb" id="stop4355-8"/>
  </linearGradient>
  <linearGradient inkscape:collect="always" id="linearGradient4300-7-6">
   <stop style="stop-color:#5e6b78" id="stop4302-2-0"/>
   <stop offset="1" style="stop-color:#768492" id="stop4304-4-9"/>
  </linearGradient>
 </defs>
 <metadata id="metadata84"/>
 <path style="fill:url(#linearGradient4306)" id="rect3500" d="M 10 3 L 10 61 L 40 61 L 54 47 L 54 17 L 54 3 L 40 3 L 10 3 z "/>
 <rect width="30" x="10" y="60" height="1" style="fill:#2e3132;fill-opacity:0.294118" id="rect4169"/>
 <rect width="44" x="10" y="3" height="1" style="fill:#ffffff;fill-opacity:0.409836" id="rect4236"/>
 <path inkscape:connector-curvature="0" style="fill:url(#linearGradient4357);fill-rule:evenodd" id="path4314" d="M 54,47 40,61 40,47 Z"/>
 <path inkscape:connector-curvature="0" style="fill:url(#linearGradient4427);opacity:0.2;fill-rule:evenodd" id="path4320" d="M 26,61 40,47 40,61 Z"/>
 <path style="fill:#fbfbfb" id="rect4167" d="M 21 21 L 21 43 L 43 43 L 43 21 L 21 21 z M 22 22 L 42 22 L 42 38 L 22 38 L 22 22 z M 24 24 L 24 30 L 30 30 L 30 25 L 27 25 L 26 24 L 24 24 z M 25 26 L 29 26 L 29 29 L 25 29 L 25 26 z M 22 39 L 42 39 L 42 42 L 22 42 L 22 39 z M 23 40 L 23 41 L 24 41 L 24 40 L 23 40 z M 36 40 L 36 41 L 37 41 L 37 40 L 36 40 z M 38 40 L 38 41 L 39 41 L 39 40 L 38 40 z M 40 40 L 40 41 L 41 41 L 41 40 L 40 40 z "/>
</svg>
