<?xml version="1.0" encoding="UTF-8" standalone="no"?>
<svg
   xmlns:dc="http://purl.org/dc/elements/1.1/"
   xmlns:cc="http://creativecommons.org/ns#"
   xmlns:rdf="http://www.w3.org/1999/02/22-rdf-syntax-ns#"
   xmlns:svg="http://www.w3.org/2000/svg"
   xmlns="http://www.w3.org/2000/svg"
   xmlns:xlink="http://www.w3.org/1999/xlink"
   xmlns:sodipodi="http://sodipodi.sourceforge.net/DTD/sodipodi-0.dtd"
   xmlns:inkscape="http://www.inkscape.org/namespaces/inkscape"
   width="64"
   version="1.1"
   viewBox="0 0 64 64"
   height="64"
   id="svg2"
   inkscape:version="0.91 r13725"
   sodipodi:docname="application-vnd.oasis.opendocument.presentation-template.svg">
  <sodipodi:namedview
     pagecolor="#ffffff"
     bordercolor="#666666"
     borderopacity="1"
     objecttolerance="10"
     gridtolerance="10"
     guidetolerance="10"
     inkscape:pageopacity="0"
     inkscape:pageshadow="2"
     inkscape:window-width="1920"
     inkscape:window-height="1025"
     id="namedview24"
     showgrid="false"
     inkscape:zoom="1"
     inkscape:cx="44.806054"
     inkscape:cy="28.332292"
     inkscape:window-x="0"
     inkscape:window-y="26"
     inkscape:window-maximized="1"
     inkscape:current-layer="svg2"
     inkscape:snap-bbox="true"
     inkscape:bbox-nodes="true">
    <inkscape:grid
       type="xygrid"
       id="grid4150" />
  </sodipodi:namedview>
  <defs
     id="defs4">
    <linearGradient
       inkscape:collect="always"
       xlink:href="#linearGradient6251"
       id="linearGradient5914"
       gradientUnits="userSpaceOnUse"
       gradientTransform="translate(-67,-312.36219)"
       x1="58"
       y1="392.36221"
       x2="58"
       y2="336.36221" />
    <linearGradient
       id="linearGradient6251"
       inkscape:collect="always">
      <stop
         id="stop6253"
         offset="0"
         style="stop-color:#ffffff;stop-opacity:0" />
      <stop
         id="stop6255"
         offset="1"
         style="stop-color:#ffffff;stop-opacity:0.2" />
    </linearGradient>
    <linearGradient
       inkscape:collect="always"
       xlink:href="#linearGradient9654"
       id="linearGradient5910"
       gradientUnits="userSpaceOnUse"
       gradientTransform="translate(-19,19.999995)"
       x1="40"
       y1="17"
       x2="54"
       y2="31" />
    <linearGradient
       id="linearGradient9654"
       inkscape:collect="always">
      <stop
         id="stop9656"
         offset="0"
         style="stop-color:#060606;stop-opacity:1" />
      <stop
         id="stop9658"
         offset="1"
         style="stop-color:#000000;stop-opacity:0" />
    </linearGradient>
  </defs>
  <metadata
     id="metadata84">
    <rdf:RDF>
      <cc:Work
         rdf:about="">
        <dc:format>image/svg+xml</dc:format>
        <dc:type
           rdf:resource="http://purl.org/dc/dcmitype/StillImage" />
      </cc:Work>
    </rdf:RDF>
  </metadata>
  <g
     id="g4188"
     transform="translate(19,-19.999995)">
    <path
       inkscape:export-ydpi="96"
       inkscape:export-xdpi="96"
       d="m -9,80.999995 0,-58 30,0 14,14 0,30 0,14 -14,0 -30,0 z"
       id="path5886"
       style="fill:#66380e;fill-opacity:1"
       inkscape:connector-curvature="0" />
    <path
       inkscape:connector-curvature="0"
       id="path5888"
       d="m -9,23.999995 0,1 2,0 0,2 -2,0 0,1 2,0 0,2 -2,0 0,1 2,0 0,2 -2,0 0,1 2,0 0,2 -2,0 0,1 2,0 0,2 -2,0 0,1 2,0 0,2 -2,0 0,1 1,0 1,0 0,1 0,1 -2,0 0,1 2,0 0,2 -2,0 0,1 2,0 0,2 -2,0 0,1 2,0 0,2 -2,0 0,1 2,0 0,2 -2,0 0,1 2,0 0,1 0,1 -2,0 0,1 1,0 1,0 0,1 0,1 -2,0 0,1 2,0 0,2 -2,0 0,1 2,0 0,2 -2,0 0,1 2,0 0,2 -2,0 0,1 2,0 0,2 -2,0 0,1 1,0 1,0 0,1 0,1 -2,0 0,1 2,0 0,2 1,0 0,-2 1,0 1,0 0,1 0,1 1,0 0,-2 2,0 0,2 1,0 0,-2 2,0 0,1 0,1 1,0 0,-2 2,0 0,2 1,0 0,-2 2,0 0,2 1,0 0,-2 2,0 0,2 1,0 0,-2 2,0 0,2 1,0 0,-2 2,0 0,2 1,0 0,-2 2,0 0,2 1,0 0,-2 1,0 1,0 0,2 1,0 0,-2 2,0 0,2 1,0 0,-2 2,0 0,2 1,0 0,-2 1,0 1,0 0,2 1,0 0,-2 2,0 0,-1 -2,0 0,-2 2,0 0,-1 -2,0 0,-2 2,0 0,-1 -2,0 0,-1 0,-1 2,0 0,-1 -2,0 0,-2 2,0 0,-1 -2,0 0,-2 2,0 0,-1 -2,0 0,-1 0,-1 2,0 0,-1 -2,0 0,-2 2,0 0,-1 -2,0 0,-2 2,0 0,-1 -2,0 0,-2 2,0 0,-1 -2,0 0,-2 2,0 0,-1 -2,0 0,-2 2,0 0,-1 -2,0 0,-2 2,0 0,-1 -2,0 0,-2 2,0 0,-1 -2,0 0,-2 2,0 -1,-1 -1,0 0,-1 -1,-1 0,2 -2,0 0,-2 2,0 -1,-1 -1,0 0,-1 -1,-1 0,2 -1,0 -1,0 0,-2 1,0 1,0 -1,-1 -1,0 0,-1 -1,-1 0,2 -2,0 0,-2 2,0 -1,-1 -1,0 0,-1 -1,-1 0,2 -2,0 0,-2 2,0 -1,-1 -1,0 -1,0 -2,0 -1,0 -2,0 -1,0 -2,0 -1,0 -2,0 -1,0 -2,0 -1,0 -2,0 -1,0 -2,0 -1,0 -2,0 -1,0 -2,0 -1,0 -2,0 z m 3,1 2,0 0,2 -2,0 0,-2 z m 3,0 2,0 0,2 -2,0 0,-2 z m 3,0 2,0 0,2 -2,0 0,-2 z m 3,0 2,0 0,2 -2,0 0,-2 z m 3,0 2,0 0,2 -2,0 0,-2 z m 3,0 2,0 0,2 -2,0 0,-2 z m 3,0 2,0 0,2 -2,0 0,-2 z m 3,0 2,0 0,2 -2,0 0,-2 z m 3,0 2,0 0,2 -2,0 0,-2 z m -24,3 2,0 0,2 -2,0 0,-2 z m 3,0 2,0 0,2 -2,0 0,-2 z m 3,0 2,0 0,2 -2,0 0,-2 z m 3,0 2,0 0,2 -2,0 0,-2 z m 3,0 2,0 0,2 -2,0 0,-2 z m 3,0 2,0 0,2 -2,0 0,-2 z m 3,0 2,0 0,2 -2,0 0,-2 z m 3,0 2,0 0,2 -2,0 0,-2 z m 3,0 2,0 0,2 -2,0 0,-2 z m 3,0 2,0 0,2 -2,0 0,-2 z m -27,3 2,0 0,2 -2,0 0,-2 z m 3,0 2,0 0,2 -2,0 0,-2 z m 3,0 2,0 0,2 -2,0 0,-2 z m 3,0 2,0 0,2 -2,0 0,-2 z m 3,0 2,0 0,2 -2,0 0,-2 z m 3,0 2,0 0,2 -2,0 0,-2 z m 3,0 2,0 0,2 -2,0 0,-2 z m 3,0 2,0 0,2 -2,0 0,-2 z m 3,0 2,0 0,2 -2,0 0,-2 z m 3,0 2,0 0,2 -2,0 0,-2 z m 3,0 2,0 0,2 -2,0 0,-2 z m -30,3 2,0 0,2 -2,0 0,-2 z m 3,0 2,0 0,2 -2,0 0,-2 z m 3,0 2,0 0,2 -2,0 0,-2 z m 3,0 2,0 0,2 -2,0 0,-2 z m 3,0 2,0 0,2 -2,0 0,-2 z m 3,0 2,0 0,2 -2,0 0,-2 z m 3,0 2,0 0,2 -2,0 0,-2 z m 3,0 2,0 0,2 -2,0 0,-2 z m 3,0 2,0 0,2 -2,0 0,-2 z m 3,0 2,0 0,2 -2,0 0,-2 z m 3,0 2,0 0,2 -2,0 0,-2 z m 3,0 1,0 1,0 0,2 -1,0 -1,0 0,-2 z m -33,3 2,0 0,2 -2,0 0,-2 z m 3,0 1,0 1,0 0,1 0,1 -2,0 0,-2 z m 3,0 2,0 0,2 -2,0 0,-2 z m 3,0 2,0 0,2 -2,0 0,-2 z m 3,0 2,0 0,2 -2,0 0,-2 z m 3,0 2,0 0,2 -2,0 0,-2 z m 3,0 2,0 0,2 -2,0 0,-2 z m 3,0 2,0 0,2 -2,0 0,-2 z m 3,0 2,0 0,2 -2,0 0,-2 z m 3,0 2,0 0,2 -2,0 0,-2 z m 3,0 2,0 0,2 -2,0 0,-2 z m 3,0 1,0 1,0 0,2 -1,0 -1,0 0,-2 z m 3,0 2,0 0,2 -2,0 0,-2 z m -36,3 2,0 0,2 -2,0 0,-2 z m 3,0 2,0 0,2 -2,0 0,-2 z m 3,0 1,0 1,0 0,1 0,1 -2,0 0,-2 z m 3,0 2,0 0,2 -2,0 0,-2 z m 3,0 2,0 0,2 -2,0 0,-2 z m 3,0 2,0 0,2 -2,0 0,-2 z m 3,0 2,0 0,2 -2,0 0,-2 z m 3,0 2,0 0,2 -2,0 0,-2 z m 3,0 2,0 0,2 -2,0 0,-2 z m 3,0 2,0 0,2 -2,0 0,-2 z m 3,0 2,0 0,2 -2,0 0,-2 z m 3,0 1,0 1,0 0,2 -1,0 -1,0 0,-2 z m 3,0 2,0 0,2 -2,0 0,-2 z m -36,3 2,0 0,2 -2,0 0,-2 z m 3,0 2,0 0,2 -2,0 0,-2 z m 3,0 2,0 0,2 -2,0 0,-2 z m 3,0 1,0 1,0 0,1 0,1 -2,0 0,-2 z m 3,0 2,0 0,2 -2,0 0,-2 z m 3,0 2,0 0,2 -2,0 0,-2 z m 3,0 2,0 0,2 -2,0 0,-2 z m 3,0 2,0 0,2 -2,0 0,-2 z m 3,0 2,0 0,2 -2,0 0,-2 z m 3,0 2,0 0,2 -2,0 0,-2 z m 3,0 2,0 0,2 -2,0 0,-2 z m 3,0 1,0 1,0 0,2 -1,0 -1,0 0,-2 z m 3,0 2,0 0,2 -2,0 0,-2 z m -36,3 2,0 0,2 -2,0 0,-2 z m 3,0 2,0 0,2 -2,0 0,-2 z m 3,0 2,0 0,2 -2,0 0,-2 z m 3,0 2,0 0,2 -2,0 0,-2 z m 3,0 2,0 0,2 -2,0 0,-2 z m 3,0 2,0 0,2 -2,0 0,-2 z m 3,0 2,0 0,2 -2,0 0,-2 z m 3,0 2,0 0,1 0,1 -1,0 -1,0 0,-2 z m 3,0 2,0 0,1 0,1 -2,0 0,-2 z m 3,0 2,0 0,1 0,1 -1,0 -1,0 0,-2 z m 3,0 2,0 0,2 -1,0 -1,0 0,-2 z m 3,0 1,0 1,0 0,1 0,1 -1,0 -1,0 0,-2 z m 3,0 2,0 0,1 0,1 -1,0 -1,0 0,-2 z m -36,3 2,0 0,2 -2,0 0,-2 z m 3,0 2,0 0,2 -2,0 0,-2 z m 3,0 2,0 0,2 -2,0 0,-2 z m 3,0 2,0 0,2 -2,0 0,-2 z m 3,0 2,0 0,2 -2,0 0,-2 z m 3,0 2,0 0,2 -2,0 0,-2 z m 3,0 2,0 0,2 -2,0 0,-2 z m 3,0 1,0 1,0 0,2 -1,0 -1,0 0,-2 z m 3,0 2,0 0,2 -2,0 0,-2 z m 3,0 1,0 1,0 0,2 -1,0 -1,0 0,-2 z m 3,0 1,0 1,0 0,2 -1,0 -1,0 0,-2 z m 3,0 1,0 1,0 0,2 -1,0 -1,0 0,-2 z m 3,0 1,0 1,0 0,2 -1,0 -1,0 0,-2 z m -36,3 2,0 0,2 -2,0 0,-2 z m 3,0 1,0 1,0 0,1 0,1 -2,0 0,-2 z m 3,0 2,0 0,2 -2,0 0,-2 z m 3,0 2,0 0,2 -2,0 0,-2 z m 3,0 2,0 0,2 -2,0 0,-2 z m 3,0 2,0 0,2 -2,0 0,-2 z m 3,0 2,0 0,2 -2,0 0,-2 z m 3,0 1,0 1,0 0,2 -1,0 -1,0 0,-2 z m 3,0 2,0 0,2 -2,0 0,-2 z m 3,0 1,0 1,0 0,2 -1,0 -1,0 0,-2 z m 3,0 1,0 1,0 0,2 -1,0 -1,0 0,-2 z m 3,0 1,0 1,0 0,2 -1,0 -1,0 0,-2 z m 3,0 1,0 1,0 0,2 -1,0 -1,0 0,-2 z m -36,3 2,0 0,2 -2,0 0,-2 z m 3,0 2,0 0,2 -2,0 0,-2 z m 3,0 1,0 1,0 0,1 0,1 -2,0 0,-2 z m 3,0 2,0 0,2 -2,0 0,-2 z m 3,0 2,0 0,2 -2,0 0,-2 z m 3,0 2,0 0,2 -2,0 0,-2 z m 3,0 2,0 0,2 -2,0 0,-2 z m 3,0 1,0 1,0 0,2 -1,0 -1,0 0,-2 z m 3,0 2,0 0,2 -2,0 0,-2 z m 3,0 1,0 1,0 0,2 -1,0 -1,0 0,-2 z m 3,0 1,0 1,0 0,2 -1,0 -1,0 0,-2 z m 3,0 1,0 1,0 0,2 -1,0 -1,0 0,-2 z m 3,0 1,0 1,0 0,2 -1,0 -1,0 0,-2 z m -36,3 2,0 0,2 -2,0 0,-2 z m 3,0 2,0 0,2 -2,0 0,-2 z m 3,0 2,0 0,1 0,1 -2,0 0,-1 0,-1 z m 3,0 1,0 1,0 0,1 0,1 -2,0 0,-1 0,-1 z m 3,0 2,0 0,1 0,1 -2,0 0,-1 0,-1 z m 3,0 2,0 0,1 0,1 -2,0 0,-1 0,-1 z m 3,0 2,0 0,1 0,1 -2,0 0,-1 0,-1 z m 3,0 1,0 1,0 0,1 0,1 -1,0 -1,0 0,-1 0,-1 z m 3,0 2,0 0,1 0,1 -2,0 0,-1 0,-1 z m 3,0 1,0 1,0 0,1 0,1 -1,0 -1,0 0,-1 0,-1 z m 3,0 1,0 1,0 0,1 0,1 -1,0 -1,0 0,-1 0,-1 z m 3,0 1,0 1,0 0,2 -1,0 -1,0 0,-1 0,-1 z m 3,0 1,0 1,0 0,2 -1,0 -1,0 0,-2 z m -36,3 2,0 0,2 -2,0 0,-2 z m 3,0 2,0 0,1 0,1 -2,0 0,-2 z m 3,0 2,0 0,1 0,1 -2,0 0,-2 z m 3,0 2,0 0,1 0,1 -2,0 0,-1 0,-1 z m 3,0 2,0 0,1 0,1 -2,0 0,-1 0,-1 z m 3,0 2,0 0,1 0,1 -2,0 0,-1 0,-1 z m 3,0 2,0 0,1 0,1 -2,0 0,-1 0,-1 z m 3,0 1,0 1,0 0,1 0,1 -2,0 0,-1 0,-1 z m 3,0 2,0 0,1 0,1 -2,0 0,-1 0,-1 z m 3,0 1,0 1,0 0,1 0,1 -1,0 -1,0 0,-1 0,-1 z m 3,0 1,0 1,0 0,1 0,1 -2,0 0,-1 0,-1 z m 3,0 1,0 1,0 0,1 0,1 -2,0 0,-1 0,-1 z m 3,0 1,0 1,0 0,1 0,1 -1,0 -1,0 0,-1 0,-1 z m -36,3 1,0 1,0 0,1 0,1 -2,0 0,-2 z m 3,0 2,0 0,2 -2,0 0,-2 z m 3,0 2,0 0,1 0,1 -2,0 0,-2 z m 3,0 2,0 0,2 -2,0 0,-2 z m 3,0 2,0 0,2 -2,0 0,-2 z m 3,0 2,0 0,2 -2,0 0,-2 z m 3,0 2,0 0,2 -2,0 0,-2 z m 3,0 2,0 0,2 -2,0 0,-2 z m 3,0 2,0 0,2 -2,0 0,-2 z m 3,0 1,0 1,0 0,2 -1,0 -1,0 0,-2 z m 3,0 2,0 0,2 -2,0 0,-2 z m 3,0 2,0 0,2 -2,0 0,-2 z m 3,0 1,0 1,0 0,2 -1,0 -1,0 0,-2 z m -36,3 2,0 0,2 -2,0 0,-2 z m 3,0 1,0 1,0 0,1 0,1 -2,0 0,-2 z m 3,0 2,0 0,2 -2,0 0,-2 z m 3,0 2,0 0,1 0,1 -2,0 0,-2 z m 3,0 2,0 0,2 -2,0 0,-2 z m 3,0 2,0 0,2 -2,0 0,-2 z m 3,0 2,0 0,2 -2,0 0,-2 z m 3,0 2,0 0,2 -2,0 0,-2 z m 3,0 2,0 0,2 -2,0 0,-2 z m 3,0 1,0 1,0 0,2 -1,0 -1,0 0,-2 z m 3,0 2,0 0,2 -2,0 0,-2 z m 3,0 2,0 0,2 -2,0 0,-2 z m 3,0 1,0 1,0 0,2 -1,0 -1,0 0,-2 z m -36,3 2,0 0,2 -2,0 0,-2 z m 3,0 2,0 0,2 -2,0 0,-2 z m 3,0 2,0 0,2 -2,0 0,-2 z m 3,0 2,0 0,2 -2,0 0,-2 z m 3,0 2,0 0,2 -2,0 0,-2 z m 3,0 2,0 0,2 -2,0 0,-2 z m 3,0 2,0 0,2 -2,0 0,-2 z m 3,0 2,0 0,2 -2,0 0,-2 z m 3,0 2,0 0,2 -2,0 0,-2 z m 3,0 1,0 1,0 0,1 0,1 -1,0 -1,0 0,-2 z m 3,0 2,0 0,1 0,1 -2,0 0,-1 0,-1 z m 3,0 2,0 0,1 0,1 -2,0 0,-1 0,-1 z m 3,0 1,0 1,0 0,1 0,1 -1,0 -1,0 0,-1 0,-1 z m -36,3 2,0 0,2 -2,0 0,-2 z m 3,0 2,0 0,2 -2,0 0,-2 z m 3,0 2,0 0,2 -2,0 0,-2 z m 3,0 2,0 0,2 -2,0 0,-2 z m 3,0 2,0 0,2 -2,0 0,-2 z m 3,0 2,0 0,2 -2,0 0,-2 z m 3,0 2,0 0,2 -2,0 0,-2 z m 3,0 2,0 0,2 -2,0 0,-2 z m 3,0 2,0 0,2 -2,0 0,-2 z m 3,0 1,0 1,0 0,2 -1,0 -1,0 0,-2 z m 3,0 2,0 0,2 -2,0 0,-2 z m 3,0 2,0 0,2 -2,0 0,-2 z m 3,0 1,0 1,0 0,2 -1,0 -1,0 0,-2 z m -36,3 2,0 0,2 -2,0 0,-2 z m 3,0 2,0 0,1 0,1 -2,0 0,-2 z m 3,0 2,0 0,2 -2,0 0,-2 z m 3,0 2,0 0,2 -2,0 0,-2 z m 3,0 2,0 0,2 -2,0 0,-2 z m 3,0 2,0 0,2 -2,0 0,-2 z m 3,0 2,0 0,2 -2,0 0,-2 z m 3,0 2,0 0,2 -2,0 0,-2 z m 3,0 2,0 0,2 -2,0 0,-2 z m 3,0 1,0 1,0 0,2 -1,0 -1,0 0,-2 z m 3,0 2,0 0,2 -2,0 0,-2 z m 3,0 2,0 0,2 -2,0 0,-2 z m 3,0 1,0 1,0 0,2 -1,0 -1,0 0,-2 z"
       style="color:#000000;display:inline;opacity:0.1;color-interpolation:sRGB;color-interpolation-filters:linearRGB;fill:#ffffff;fill-opacity:1;color-rendering:auto;image-rendering:auto;shape-rendering:auto;text-rendering:auto" />
    <rect
       inkscape:export-ydpi="96"
       inkscape:export-xdpi="96"
       transform="scale(1,-1)"
       id="rect5890"
       style="color:#000000;clip-rule:nonzero;display:inline;overflow:visible;visibility:visible;opacity:0.5;isolation:auto;mix-blend-mode:normal;color-interpolation:sRGB;color-interpolation-filters:linearRGB;solid-color:#000000;solid-opacity:1;fill:#ffffff;fill-opacity:1;fill-rule:nonzero;stroke-width:1;stroke-linecap:butt;stroke-linejoin:miter;stroke-miterlimit:4;stroke-dasharray:none;stroke-dashoffset:0;stroke-opacity:1;color-rendering:auto;image-rendering:auto;shape-rendering:auto;text-rendering:auto;enable-background:accumulate"
       height="1"
       y="-23.999977"
       x="-9"
       width="30" />
    <rect
       inkscape:export-ydpi="96"
       inkscape:export-xdpi="96"
       transform="scale(1,-1)"
       id="rect5892"
       style="color:#000000;clip-rule:nonzero;display:inline;overflow:visible;visibility:visible;opacity:0.25;isolation:auto;mix-blend-mode:normal;color-interpolation:sRGB;color-interpolation-filters:linearRGB;solid-color:#000000;solid-opacity:1;fill:#000000;fill-opacity:1;fill-rule:nonzero;stroke-width:1;stroke-linecap:butt;stroke-linejoin:miter;stroke-miterlimit:4;stroke-dasharray:none;stroke-dashoffset:0;stroke-opacity:1;color-rendering:auto;image-rendering:auto;shape-rendering:auto;text-rendering:auto;enable-background:accumulate"
       height="1"
       y="-80.999977"
       x="-9"
       width="44" />
    <path
       inkscape:export-ydpi="96"
       inkscape:export-xdpi="96"
       d="m 35,36.999995 -14,-14 0,14 z"
       id="path5894"
       style="color:#000000;clip-rule:nonzero;display:inline;overflow:visible;visibility:visible;opacity:1;isolation:auto;mix-blend-mode:normal;color-interpolation:sRGB;color-interpolation-filters:linearRGB;solid-color:#000000;solid-opacity:1;fill:#eea563;fill-opacity:1;fill-rule:nonzero;stroke-width:1;stroke-linecap:butt;stroke-linejoin:miter;stroke-miterlimit:4;stroke-dasharray:none;stroke-dashoffset:0;stroke-opacity:1;color-rendering:auto;image-rendering:auto;shape-rendering:auto;text-rendering:auto;enable-background:accumulate"
       inkscape:connector-curvature="0" />
    <path
       inkscape:export-ydpi="96"
       inkscape:export-xdpi="96"
       inkscape:connector-curvature="0"
       style="opacity:0.2;fill:url(#linearGradient5910);fill-rule:evenodd"
       id="path5896"
       d="m 21,36.999995 14,14 0,-14 z" />
    <path
       inkscape:connector-curvature="0"
       style="color:#000000;clip-rule:nonzero;display:inline;overflow:visible;visibility:visible;opacity:1;isolation:auto;mix-blend-mode:normal;color-interpolation:sRGB;color-interpolation-filters:linearRGB;solid-color:#000000;solid-opacity:1;fill:#eea563;fill-opacity:1;fill-rule:nonzero;stroke-width:1;stroke-linecap:butt;stroke-linejoin:miter;stroke-miterlimit:4;stroke-dasharray:none;stroke-dashoffset:0;stroke-opacity:1;color-rendering:auto;image-rendering:auto;shape-rendering:auto;text-rendering:auto;enable-background:accumulate"
       d="m 2,41.999095 0,2 -2,0 0,20 26,0 0,-20 -2,0 0,-2 -22,0 z m 1,1 20,0 0,1 -20,0 0,-1 z m -2,2 24,0 0,18 -24,0 0,-18 z m 10,5 0,8 5,-4 -5,-4 z"
       id="path5898" />
    <path
       inkscape:export-ydpi="96"
       inkscape:export-xdpi="96"
       inkscape:connector-curvature="0"
       style="opacity:0.7;fill:url(#linearGradient5914);fill-opacity:1"
       id="path5902"
       d="m -9,80.999995 0,-58 30,0 14,14 0,30 0,14 -14,0 -30,0 z" />
  </g>
</svg>
