<?xml version="1.0" encoding="UTF-8" standalone="no"?>
<svg
   xmlns:dc="http://purl.org/dc/elements/1.1/"
   xmlns:cc="http://creativecommons.org/ns#"
   xmlns:rdf="http://www.w3.org/1999/02/22-rdf-syntax-ns#"
   xmlns:svg="http://www.w3.org/2000/svg"
   xmlns="http://www.w3.org/2000/svg"
   xmlns:xlink="http://www.w3.org/1999/xlink"
   xmlns:sodipodi="http://sodipodi.sourceforge.net/DTD/sodipodi-0.dtd"
   xmlns:inkscape="http://www.inkscape.org/namespaces/inkscape"
   width="64"
   version="1.1"
   viewBox="0 0 64 64"
   height="64"
   id="svg2"
   inkscape:version="0.91 r13725"
   sodipodi:docname="application-x-sharedlib.svg">
  <sodipodi:namedview
     pagecolor="#ffffff"
     bordercolor="#666666"
     borderopacity="1"
     objecttolerance="10"
     gridtolerance="10"
     guidetolerance="10"
     inkscape:pageopacity="0"
     inkscape:pageshadow="2"
     inkscape:window-width="1360"
     inkscape:window-height="708"
     id="namedview24"
     showgrid="true"
     inkscape:zoom="4.24"
     inkscape:cx="57.832974"
     inkscape:cy="25.617225"
     inkscape:window-x="0"
     inkscape:window-y="0"
     inkscape:window-maximized="1"
     inkscape:current-layer="svg2"
     inkscape:object-nodes="true">
    <inkscape:grid
       type="xygrid"
       id="grid4244" />
  </sodipodi:namedview>
  <defs
     id="defs4">
    <linearGradient
       inkscape:collect="always"
       xlink:href="#linearGradient9654"
       id="linearGradient5313"
       gradientUnits="userSpaceOnUse"
       gradientTransform="translate(0,1e-5)"
       x1="40"
       y1="17"
       x2="54"
       y2="31" />
    <linearGradient
       id="linearGradient9654"
       inkscape:collect="always">
      <stop
         id="stop9656"
         offset="0"
         style="stop-color:#060606;stop-opacity:1" />
      <stop
         id="stop9658"
         offset="1"
         style="stop-color:#000000;stop-opacity:0" />
    </linearGradient>
    <linearGradient
       inkscape:collect="always"
       xlink:href="#linearGradient6251"
       id="linearGradient5315"
       gradientUnits="userSpaceOnUse"
       gradientTransform="translate(-48,-332.3622)"
       x1="58"
       y1="392.36221"
       x2="58"
       y2="336.36221" />
    <linearGradient
       id="linearGradient6251"
       inkscape:collect="always">
      <stop
         id="stop6253"
         offset="0"
         style="stop-color:#ffffff;stop-opacity:0" />
      <stop
         id="stop6255"
         offset="1"
         style="stop-color:#ffffff;stop-opacity:0.2" />
    </linearGradient>
  </defs>
  <metadata
     id="metadata84">
    <rdf:RDF>
      <cc:Work
         rdf:about="">
        <dc:format>image/svg+xml</dc:format>
        <dc:type
           rdf:resource="http://purl.org/dc/dcmitype/StillImage" />
        <dc:title />
      </cc:Work>
    </rdf:RDF>
  </metadata>
  <path
     inkscape:connector-curvature="0"
     style="color:#000000;clip-rule:nonzero;display:inline;overflow:visible;visibility:visible;opacity:1;isolation:auto;mix-blend-mode:normal;color-interpolation:sRGB;color-interpolation-filters:linearRGB;solid-color:#000000;solid-opacity:1;fill:#555555;fill-opacity:1;fill-rule:nonzero;stroke-width:1;stroke-linecap:butt;stroke-linejoin:miter;stroke-miterlimit:4;stroke-dasharray:none;stroke-dashoffset:0;stroke-opacity:1;color-rendering:auto;image-rendering:auto;shape-rendering:auto;text-rendering:auto;enable-background:accumulate"
     id="path5297"
     d="m 10,61 0,-57.99999 30,0 14,14 L 54,47 54,61 40,61 10,61 Z"
     inkscape:export-xdpi="96"
     inkscape:export-ydpi="96" />
  <rect
     width="30"
     x="10"
     y="-3.9999626"
     height="1"
     style="color:#000000;clip-rule:nonzero;display:inline;overflow:visible;visibility:visible;opacity:0.4;isolation:auto;mix-blend-mode:normal;color-interpolation:sRGB;color-interpolation-filters:linearRGB;solid-color:#000000;solid-opacity:1;fill:#ffffff;fill-opacity:1;fill-rule:nonzero;stroke-width:1;stroke-linecap:butt;stroke-linejoin:miter;stroke-miterlimit:4;stroke-dasharray:none;stroke-dashoffset:0;stroke-opacity:1;color-rendering:auto;image-rendering:auto;shape-rendering:auto;text-rendering:auto;enable-background:accumulate"
     id="rect5299"
     transform="scale(1,-1)"
     inkscape:export-xdpi="96"
     inkscape:export-ydpi="96" />
  <rect
     width="44"
     x="10"
     y="-60.999962"
     height="1"
     style="color:#000000;clip-rule:nonzero;display:inline;overflow:visible;visibility:visible;opacity:0.35;isolation:auto;mix-blend-mode:normal;color-interpolation:sRGB;color-interpolation-filters:linearRGB;solid-color:#000000;solid-opacity:1;fill:#000000;fill-opacity:1;fill-rule:nonzero;stroke-width:1;stroke-linecap:butt;stroke-linejoin:miter;stroke-miterlimit:4;stroke-dasharray:none;stroke-dashoffset:0;stroke-opacity:1;color-rendering:auto;image-rendering:auto;shape-rendering:auto;text-rendering:auto;enable-background:accumulate"
     id="rect5301"
     transform="scale(1,-1)"
     inkscape:export-xdpi="96"
     inkscape:export-ydpi="96" />
  <path
     inkscape:connector-curvature="0"
     style="color:#000000;clip-rule:nonzero;display:inline;overflow:visible;visibility:visible;opacity:0.5;isolation:auto;mix-blend-mode:normal;color-interpolation:sRGB;color-interpolation-filters:linearRGB;solid-color:#000000;solid-opacity:1;fill:#ffffff;fill-opacity:1;fill-rule:evenodd;stroke-width:1;stroke-linecap:butt;stroke-linejoin:miter;stroke-miterlimit:4;stroke-dasharray:none;stroke-dashoffset:0;stroke-opacity:1;color-rendering:auto;image-rendering:auto;shape-rendering:auto;text-rendering:auto;enable-background:accumulate"
     id="path5303"
     d="m 54,17.00001 -14,-14 0,14 z"
     inkscape:export-xdpi="96"
     inkscape:export-ydpi="96" />
  <path
     d="M 40,17.00001 54,31 54,17.00001 Z"
     id="path5305"
     style="opacity:0.4;fill:url(#linearGradient5313);fill-rule:evenodd"
     inkscape:connector-curvature="0"
     inkscape:export-xdpi="96"
     inkscape:export-ydpi="96" />
  <path
     d="m 10,61 0,-57.99999 30,0 14,14 L 54,47 54,61 40,61 10,61 Z"
     id="path5311"
     style="fill:url(#linearGradient5315);fill-opacity:1"
     inkscape:connector-curvature="0"
     inkscape:export-xdpi="96"
     inkscape:export-ydpi="96" />
  <path
     inkscape:connector-curvature="0"
     style="fill:#343434;fill-opacity:1;stroke:none"
     d="m 28.5,33.5 0,1.101562 c -0.625949,0.129154 -1.221331,0.377119 -1.753906,0.730469 l -0.78125,-0.78125 -1.414063,1.414063 0.78125,0.78125 C 24.980058,37.278965 24.733426,37.87433 24.605469,38.5 l -1.105469,0 0,2 1.101562,0 c 0.129154,0.625949 0.377119,1.221331 0.730469,1.753906 l -0.78125,0.78125 1.414063,1.414063 0.78125,-0.78125 c 0.532871,0.351973 1.128236,0.598605 1.753906,0.726562 l 0,1.105469 2,0 0,-1.101562 c 0.625949,-0.129154 1.221331,-0.377119 1.753906,-0.730469 l 0.78125,0.78125 1.414063,-1.414063 -0.78125,-0.78125 C 34.019942,41.721035 34.266574,41.12567 34.394531,40.5 l 1.105469,0 0,-2 -1.101562,0 c -0.129154,-0.625949 -0.377119,-1.221331 -0.730469,-1.753906 l 0.78125,-0.78125 -1.414063,-1.414063 -0.78125,0.78125 C 31.721035,34.980058 31.12567,34.733426 30.5,34.605469 L 30.5,33.5 Z m 1,2 c 1.08098,3e-6 2.115938,0.437517 2.869141,1.212891 0.725193,0.746535 1.130857,1.74633 1.130859,2.787109 -3e-6,1.08098 -0.437517,2.115938 -1.212891,2.869141 C 31.540574,43.094334 30.540779,43.499998 29.5,43.5 28.41902,43.499997 27.384062,43.062483 26.630859,42.287109 25.905666,41.540574 25.500002,40.540779 25.5,39.5 c 3e-6,-1.08098 0.437517,-2.115938 1.212891,-2.869141 C 27.459426,35.905666 28.459221,35.500002 29.5,35.5 Z"
     class="ColorScheme-Text"
     id="path6-5"
     sodipodi:nodetypes="cccccccccccccccccccccccccccccccccsssssssss" />
  <path
     inkscape:connector-curvature="0"
     style="fill:#343434;fill-opacity:1;stroke:none"
     d="m 22.852393,22.923674 0.309905,1.05707 c -0.564332,0.300037 -1.065907,0.705487 -1.477563,1.194395 l -0.969486,-0.529905 -0.959129,1.754771 0.969487,0.529905 c -0.187844,0.61037 -0.257019,1.251074 -0.203787,1.887472 l -1.06082,0.311004 0.562664,1.919221 1.05707,-0.309905 c 0.300037,0.564332 0.705487,1.065907 1.194395,1.477563 l -0.529905,0.969486 1.754771,0.959129 0.529905,-0.969487 c 0.61037,0.187844 1.251074,0.257019 1.887472,0.203787 l 0.311004,1.06082 1.919221,-0.562664 -0.309905,-1.05707 c 0.564332,-0.300037 1.065907,-0.705487 1.477563,-1.194395 l 0.969486,0.529905 0.959129,-1.754771 -0.969487,-0.529905 c 0.187844,-0.61037 0.257019,-1.251074 0.203787,-1.887472 l 1.06082,-0.311004 -0.562664,-1.919221 -1.05707,0.309905 C 29.619219,25.497976 29.213769,24.996401 28.724861,24.584745 L 29.254766,23.615259 27.499995,22.65613 26.97009,23.625617 C 26.35972,23.437773 25.719016,23.368598 25.082618,23.42183 l -0.311004,-1.06082 z m 1.522275,1.637889 c 1.03732,-0.304111 2.153563,-0.175435 3.094482,0.356722 0.905927,0.512363 1.576481,1.357651 1.869287,2.356393 0.304111,1.03732 0.175435,2.153563 -0.356722,3.094482 -0.512363,0.905927 -1.357651,1.576481 -2.356393,1.869287 -1.03732,0.304111 -2.153563,0.175435 -3.094482,-0.356722 -0.905927,-0.512363 -1.576481,-1.357651 -1.869287,-2.356393 -0.304111,-1.03732 -0.175435,-2.153563 0.356722,-3.094482 0.512363,-0.905927 1.357651,-1.576481 2.356393,-1.869287 z"
     class="ColorScheme-Text"
     id="path6-6-5"
     sodipodi:nodetypes="cccccccccccccccccccccccccccccccccsssssssss" />
  <path
     inkscape:connector-curvature="0"
     style="fill:#e0e0e0;fill-opacity:1;stroke:none"
     d="m 22.352398,22.523669 0.309905,1.05707 c -0.564332,0.300037 -1.065907,0.705487 -1.477563,1.194395 L 20.215254,24.245229 19.256125,26 l 0.969487,0.529905 c -0.187844,0.61037 -0.257019,1.251074 -0.203787,1.887472 l -1.06082,0.311004 0.562664,1.919221 1.05707,-0.309905 c 0.300037,0.564332 0.705487,1.065907 1.194395,1.477563 L 21.245229,32.784746 23,33.743875 23.529905,32.774388 c 0.61037,0.187844 1.251074,0.257019 1.887472,0.203787 l 0.311004,1.06082 1.919221,-0.562664 -0.309905,-1.05707 c 0.564332,-0.300037 1.065907,-0.705487 1.477563,-1.194395 L 29.784746,31.754771 30.743875,30 29.774388,29.470095 c 0.187844,-0.61037 0.257019,-1.251074 0.203787,-1.887472 l 1.06082,-0.311004 -0.562664,-1.919221 -1.05707,0.309905 C 29.119224,25.097971 28.713774,24.596396 28.224866,24.18474 L 28.754771,23.215254 27,22.256125 26.470095,23.225612 c -0.61037,-0.187844 -1.251074,-0.257019 -1.887472,-0.203787 l -0.311004,-1.06082 z m 1.522275,1.637889 c 1.03732,-0.304111 2.153563,-0.175435 3.094482,0.356722 0.905927,0.512363 1.576481,1.357651 1.869287,2.356393 0.304111,1.03732 0.175435,2.153563 -0.356722,3.094482 -0.512363,0.905927 -1.357651,1.576481 -2.356393,1.869287 -1.03732,0.304111 -2.153563,0.175435 -3.094482,-0.356722 -0.905927,-0.512363 -1.576481,-1.357651 -1.869287,-2.356393 -0.304111,-1.03732 -0.175435,-2.153563 0.356722,-3.094482 0.512363,-0.905927 1.357651,-1.576481 2.356393,-1.869287 z"
     class="ColorScheme-Text"
     id="path6-6"
     sodipodi:nodetypes="cccccccccccccccccccccccccccccccccsssssssss" />
  <path
     inkscape:connector-curvature="0"
     style="fill:#343434;fill-opacity:1;stroke:none"
     d="m 39.088459,27.431328 -0.107196,1.096334 c -0.635547,0.06763 -1.252233,0.256478 -1.816666,0.556324 l -0.701516,-0.853567 -1.544958,1.269745 0.701516,0.853568 c -0.402158,0.49609 -0.705556,1.064629 -0.893791,1.674878 l -1.100222,-0.107577 -0.194626,1.990508 1.096334,0.107196 c 0.06763,0.635547 0.256478,1.252233 0.556324,1.816666 l -0.853567,0.701516 1.269745,1.544958 0.853568,-0.701516 c 0.49609,0.402158 1.064629,0.705556 1.674878,0.893791 l -0.107577,1.100222 1.990508,0.194626 0.107196,-1.096334 c 0.635547,-0.06763 1.252233,-0.256478 1.816666,-0.556324 l 0.701516,0.853567 1.544958,-1.269745 -0.701516,-0.853568 c 0.402158,-0.49609 0.705556,-1.064629 0.893791,-1.674878 l 1.100222,0.107577 0.194626,-1.990508 -1.096334,-0.107196 C 44.40471,32.346044 44.21586,31.729358 43.916014,31.164925 l 0.853567,-0.701516 -1.269745,-1.544958 -0.853568,0.701516 c -0.49609,-0.402158 -1.064629,-0.705556 -1.674878,-0.893791 l 0.107577,-1.100222 z m 0.800628,2.087821 c 1.075849,0.105196 2.06332,0.641348 2.737494,1.486338 0.649104,0.813563 0.95555,1.848089 0.85427,2.883928 -0.105196,1.075849 -0.641348,2.06332 -1.486338,2.737494 -0.813563,0.649104 -1.848089,0.95555 -2.883928,0.85427 -1.075849,-0.105196 -2.06332,-0.641348 -2.737494,-1.486338 -0.649104,-0.813563 -0.95555,-1.848089 -0.85427,-2.883928 0.105196,-1.075849 0.641348,-2.06332 1.486338,-2.737494 0.813563,-0.649104 1.848089,-0.95555 2.883928,-0.85427 z"
     class="ColorScheme-Text"
     id="path6-6-7-3"
     sodipodi:nodetypes="cccccccccccccccccccccccccccccccccsssssssss" />
  <path
     inkscape:connector-curvature="0"
     style="fill:#e0e0e0;fill-opacity:1;stroke:none"
     d="m 38.588623,26.931164 -0.107196,1.096334 c -0.635547,0.06763 -1.252233,0.256478 -1.816666,0.556324 L 35.963245,27.730255 34.418287,29 l 0.701516,0.853568 c -0.402158,0.49609 -0.705556,1.064629 -0.893791,1.674878 l -1.100222,-0.107577 -0.194626,1.990508 1.096334,0.107196 c 0.06763,0.635547 0.256478,1.252233 0.556324,1.816666 L 33.730255,36.036755 35,37.581713 35.853568,36.880197 c 0.49609,0.402158 1.064629,0.705556 1.674878,0.893791 l -0.107577,1.100222 1.990508,0.194626 0.107196,-1.096334 c 0.635547,-0.06763 1.252233,-0.256478 1.816666,-0.556324 L 42.036755,38.269745 43.581713,37 42.880197,36.146432 c 0.402158,-0.49609 0.705556,-1.064629 0.893791,-1.674878 l 1.100222,0.107577 0.194626,-1.990508 -1.096334,-0.107196 C 43.904874,31.84588 43.716024,31.229194 43.416178,30.664761 L 44.269745,29.963245 43,28.418287 42.146432,29.119803 c -0.49609,-0.402158 -1.064629,-0.705556 -1.674878,-0.893791 l 0.107577,-1.100222 z m 0.800628,2.087821 c 1.075849,0.105196 2.06332,0.641348 2.737494,1.486338 0.649104,0.813563 0.95555,1.848089 0.85427,2.883928 -0.105196,1.075849 -0.641348,2.06332 -1.486338,2.737494 -0.813563,0.649104 -1.848089,0.95555 -2.883928,0.85427 -1.075849,-0.105196 -2.06332,-0.641348 -2.737494,-1.486338 -0.649104,-0.813563 -0.95555,-1.848089 -0.85427,-2.883928 0.105196,-1.075849 0.641348,-2.06332 1.486338,-2.737494 0.813563,-0.649104 1.848089,-0.95555 2.883928,-0.85427 z"
     class="ColorScheme-Text"
     id="path6-6-7"
     sodipodi:nodetypes="cccccccccccccccccccccccccccccccccsssssssss" />
  <path
     inkscape:connector-curvature="0"
     style="fill:#e0e0e0;fill-opacity:1;stroke:none"
     d="m 28,33 0,1.101562 c -0.625949,0.129154 -1.221331,0.377119 -1.753906,0.730469 l -0.78125,-0.78125 -1.414063,1.414063 0.78125,0.78125 C 24.480058,36.778965 24.233426,37.37433 24.105469,38 L 23,38 l 0,2 1.101562,0 c 0.129154,0.625949 0.377119,1.221331 0.730469,1.753906 l -0.78125,0.78125 1.414063,1.414063 0.78125,-0.78125 C 26.778965,43.519942 27.37433,43.766574 28,43.894531 L 28,45 l 2,0 0,-1.101562 c 0.625949,-0.129154 1.221331,-0.377119 1.753906,-0.730469 l 0.78125,0.78125 1.414063,-1.414063 -0.78125,-0.78125 C 33.519942,41.221035 33.766574,40.62567 33.894531,40 L 35,40 l 0,-2 -1.101562,0 c -0.129154,-0.625949 -0.377119,-1.221331 -0.730469,-1.753906 l 0.78125,-0.78125 -1.414063,-1.414063 -0.78125,0.78125 C 31.221035,34.480058 30.62567,34.233426 30,34.105469 L 30,33 Z m 1,2 c 1.08098,3e-6 2.115938,0.437517 2.869141,1.212891 C 32.594334,36.959426 32.999998,37.959221 33,39 c -3e-6,1.08098 -0.437517,2.115938 -1.212891,2.869141 C 31.040574,42.594334 30.040779,42.999998 29,43 27.91902,42.999997 26.884062,42.562483 26.130859,41.787109 25.405666,41.040574 25.000002,40.040779 25,39 c 3e-6,-1.08098 0.437517,-2.115938 1.212891,-2.869141 C 26.959426,35.405666 27.959221,35.000002 29,35 Z"
     class="ColorScheme-Text"
     id="path6"
     sodipodi:nodetypes="cccccccccccccccccccccccccccccccccsssssssss" />
</svg>
