<?xml version="1.0" encoding="UTF-8" standalone="no"?>
<svg width="64" version="1.1" xmlns="http://www.w3.org/2000/svg" viewBox="0 0 64 64" height="64" xmlns:xlink="http://www.w3.org/1999/xlink" xmlns:inkscape="http://www.inkscape.org/namespaces/inkscape">
 <defs id="defs4">
  <linearGradient inkscape:collect="always" xlink:href="#linearGradient4300" id="linearGradient4306" y1="61" y2="3" x2="0" gradientUnits="userSpaceOnUse"/>
  <linearGradient inkscape:collect="always" xlink:href="#linearGradient4410" id="linearGradient4427" y1="31" x1="54" y2="17" x2="40" gradientUnits="userSpaceOnUse" gradientTransform="matrix(1 0 0 -1 -14 78)"/>
  <linearGradient inkscape:collect="always" id="linearGradient4410">
   <stop style="stop-color:#383e51" id="stop4412"/>
   <stop offset="1" style="stop-color:#655c6f;stop-opacity:0" id="stop4414"/>
  </linearGradient>
  <linearGradient inkscape:collect="always" xlink:href="#linearGradient4351" id="linearGradient4357" y1="61" y2="47" x2="0" gradientUnits="userSpaceOnUse"/>
  <linearGradient id="linearGradient4351">
   <stop style="stop-color:#c8e3fe" id="stop4353"/>
   <stop offset="1" style="stop-color:#ffffff" id="stop4355"/>
  </linearGradient>
  <linearGradient inkscape:collect="always" id="linearGradient4300">
   <stop style="stop-color:#22a7f0" id="stop4302"/>
   <stop offset="1" style="stop-color:#19b5fe" id="stop4304"/>
  </linearGradient>
 </defs>
 <metadata id="metadata84"/>
 <path style="fill:url(#linearGradient4306)" id="rect3500" d="M 10 3 L 10 61 L 40 61 L 54 47 L 54 17 L 54 3 L 40 3 L 10 3 z "/>
 <rect width="30" x="10" y="60" height="1" style="fill:#2e3132;fill-opacity:0.294118" id="rect4169"/>
 <rect width="44" x="10" y="3" height="1" style="fill:#ffffff;fill-opacity:0.409836" id="rect4236"/>
 <path inkscape:connector-curvature="0" style="fill:url(#linearGradient4357);fill-rule:evenodd" id="path4314" d="M 54,47 40,61 40,47 Z"/>
 <path inkscape:connector-curvature="0" style="fill:url(#linearGradient4427);opacity:0.2;fill-rule:evenodd" id="path4320" d="M 26,61 40,47 40,61 Z"/>
 <path style="fill:#ffffff" id="rect4132" d="M 38.996094 21 L 27.003906 32.992188 L 27 32.992188 L 27 37 L 28 37 L 30 37 L 31.007812 37 L 31.007812 36.996094 L 43 25.003906 L 42.998047 25.001953 L 43 25 L 39 21 L 38.998047 21.001953 L 38.996094 21 z M 36.998047 24.412109 L 39.587891 27.001953 L 32 34.589844 L 32 33 L 31 33 L 30 33 L 30 32 L 30 31.410156 L 36.998047 24.412109 z M 29 32.410156 L 29 34 L 30 34 L 31 34 L 31 35 L 31 35.589844 L 30.589844 36 L 29 36 L 28 35 L 28 33.410156 L 29 32.410156 z M 21 36 L 21 37 L 21 42 L 21 43 L 42 43 L 43 43 L 43 37 L 43 36 L 33 36 L 33 37 L 42 37 L 42 42 L 39 42 L 39 41 L 38 41 L 38 42 L 35 42 L 35 40 L 34 40 L 34 42 L 30 42 L 30 41 L 29 41 L 29 42 L 26 42 L 26 40 L 25 40 L 25 42 L 22 42 L 22 37 L 26 37 L 26 36 L 21 36 z "/>
</svg>
