<?xml version="1.0" encoding="UTF-8" standalone="no"?>
<svg
   xmlns:dc="http://purl.org/dc/elements/1.1/"
   xmlns:cc="http://creativecommons.org/ns#"
   xmlns:rdf="http://www.w3.org/1999/02/22-rdf-syntax-ns#"
   xmlns:svg="http://www.w3.org/2000/svg"
   xmlns="http://www.w3.org/2000/svg"
   xmlns:xlink="http://www.w3.org/1999/xlink"
   xmlns:sodipodi="http://sodipodi.sourceforge.net/DTD/sodipodi-0.dtd"
   xmlns:inkscape="http://www.inkscape.org/namespaces/inkscape"
   width="64"
   version="1.1"
   viewBox="0 0 64 64"
   height="64"
   id="svg74"
   inkscape:version="0.91 r13725"
   sodipodi:docname="application-x-javascript.svg">
  <sodipodi:namedview
     pagecolor="#ffffff"
     bordercolor="#666666"
     borderopacity="1"
     objecttolerance="10"
     gridtolerance="10"
     guidetolerance="10"
     inkscape:pageopacity="0"
     inkscape:pageshadow="2"
     inkscape:window-width="1920"
     inkscape:window-height="1021"
     id="namedview96"
     showgrid="false"
     inkscape:zoom="5.2149125"
     inkscape:cx="23.13516"
     inkscape:cy="40.457133"
     inkscape:window-x="0"
     inkscape:window-y="30"
     inkscape:window-maximized="1"
     inkscape:current-layer="svg74"
     inkscape:snap-bbox="true"
     inkscape:bbox-nodes="true">
    <inkscape:grid
       type="xygrid"
       id="grid4184" />
  </sodipodi:namedview>
  <defs
     id="defs4">
    <linearGradient
       inkscape:collect="always"
       xlink:href="#linearGradient9654"
       id="linearGradient6391"
       gradientUnits="userSpaceOnUse"
       gradientTransform="translate(372,1234.3622)"
       x1="40"
       y1="17"
       x2="54"
       y2="31" />
    <linearGradient
       id="linearGradient9654"
       inkscape:collect="always">
      <stop
         id="stop9656"
         offset="0"
         style="stop-color:#060606;stop-opacity:1" />
      <stop
         id="stop9658"
         offset="1"
         style="stop-color:#000000;stop-opacity:0" />
    </linearGradient>
    <linearGradient
       inkscape:collect="always"
       xlink:href="#linearGradient6693"
       id="linearGradient6393"
       gradientUnits="userSpaceOnUse"
       gradientTransform="translate(324,902)"
       x1="58"
       y1="392.36221"
       x2="58"
       y2="336.36221" />
    <linearGradient
       inkscape:collect="always"
       id="linearGradient6693">
      <stop
         style="stop-color:#ffffff;stop-opacity:0"
         offset="0"
         id="stop6695" />
      <stop
         style="stop-color:#ffffff;stop-opacity:0.2"
         offset="1"
         id="stop6697" />
    </linearGradient>
  </defs>
  <metadata
     id="metadata84">
    <rdf:RDF>
      <cc:Work
         rdf:about="">
        <dc:format>image/svg+xml</dc:format>
        <dc:type
           rdf:resource="http://purl.org/dc/dcmitype/StillImage" />
      </cc:Work>
    </rdf:RDF>
  </metadata>
  <g
     transform="translate(-372,-1234.3622)"
     id="g6699">
    <path
       d="m 382,1295.3622 0,-58 30,0 14,14 0,30 0,14 -14,0 -30,0 z"
       id="path6377"
       style="fill:#ffa555;fill-opacity:1"
       inkscape:connector-curvature="0"
       inkscape:export-xdpi="96"
       inkscape:export-ydpi="96" />
    <rect
       transform="scale(1,-1)"
       id="rect6379"
       style="color:#000000;clip-rule:nonzero;display:inline;overflow:visible;visibility:visible;opacity:0.5;isolation:auto;mix-blend-mode:normal;color-interpolation:sRGB;color-interpolation-filters:linearRGB;solid-color:#000000;solid-opacity:1;fill:#ffffff;fill-opacity:1;fill-rule:nonzero;stroke-width:1;stroke-linecap:butt;stroke-linejoin:miter;stroke-miterlimit:4;stroke-dasharray:none;stroke-dashoffset:0;stroke-opacity:1;color-rendering:auto;image-rendering:auto;shape-rendering:auto;text-rendering:auto;enable-background:accumulate"
       height="1"
       y="-1238.3622"
       x="382"
       width="30"
       inkscape:export-xdpi="96"
       inkscape:export-ydpi="96" />
    <rect
       transform="scale(1,-1)"
       id="rect6381"
       style="color:#000000;clip-rule:nonzero;display:inline;overflow:visible;visibility:visible;opacity:0.25;isolation:auto;mix-blend-mode:normal;color-interpolation:sRGB;color-interpolation-filters:linearRGB;solid-color:#000000;solid-opacity:1;fill:#000000;fill-opacity:1;fill-rule:nonzero;stroke-width:1;stroke-linecap:butt;stroke-linejoin:miter;stroke-miterlimit:4;stroke-dasharray:none;stroke-dashoffset:0;stroke-opacity:1;color-rendering:auto;image-rendering:auto;shape-rendering:auto;text-rendering:auto;enable-background:accumulate"
       height="1"
       y="-1295.3622"
       x="382"
       width="44"
       inkscape:export-xdpi="96"
       inkscape:export-ydpi="96" />
    <path
       d="m 426,1251.3622 -14,-14 0,14 z"
       id="path6383"
       style="opacity:0.5;fill:#ffffff;fill-opacity:1;fill-rule:evenodd"
       inkscape:connector-curvature="0"
       inkscape:export-xdpi="96"
       inkscape:export-ydpi="96" />
    <path
       inkscape:connector-curvature="0"
       style="opacity:0.1;fill:url(#linearGradient6391);fill-rule:evenodd"
       id="path6385"
       d="m 412,1251.3622 14,14 0,-14 z"
       inkscape:export-xdpi="96"
       inkscape:export-ydpi="96" />
    <path
       sodipodi:nodetypes="cssccssccccssccsscccssccssccssccsscc"
       d="m 401,1256.3622 c -2.216,0 -4,1.784 -4,4 l 0,3 c 0,1.662 -1.338,3 -3,3 l 0,1 c 2.216,0 4,-1.784 4,-4 l 0,-3 c 0,-1.662 1.338,-3 3,-3 z m -7,11 0,1 c 1.662,0 3,1.338 3,3 l 0,3 c 0,2.216 1.784,4 4,4 l 0,-1 c -1.662,0 -3,-1.338 -3,-3 l 0,-3 c 0,-2.216 -1.784,-4 -4,-4 z m 13,-11 0,1 c 1.662,0 3,1.338 3,3 l 0,3 c 0,2.216 1.784,4 4,4 l 0,-1 c -1.662,0 -3,-1.338 -3,-3 l 0,-3 c 0,-2.216 -1.784,-4 -4,-4 z m 7,11 c -2.216,0 -4,1.784 -4,4 l 0,3 c 0,1.662 -1.338,3 -3,3 l 0,1 c 2.216,0 4,-1.784 4,-4 l 0,-3 c 0,-1.662 1.338,-3 3,-3 z"
       id="path4222"
       style="color:#000000;clip-rule:nonzero;display:inline;overflow:visible;visibility:visible;opacity:0.75;isolation:auto;mix-blend-mode:normal;color-interpolation:sRGB;color-interpolation-filters:linearRGB;solid-color:#000000;solid-opacity:1;fill:#ffffff;fill-opacity:1;fill-rule:nonzero;stroke-width:1;stroke-linecap:butt;stroke-linejoin:miter;stroke-miterlimit:4;stroke-dasharray:none;stroke-dashoffset:0;stroke-opacity:1;color-rendering:auto;image-rendering:auto;shape-rendering:auto;text-rendering:auto;enable-background:accumulate"
       inkscape:connector-curvature="0" />
    <path
       d="m 382,1295.3622 0,-58 30,0 14,14 0,30 0,14 -14,0 -30,0 z"
       id="path6389"
       style="fill:url(#linearGradient6393);fill-opacity:1"
       inkscape:connector-curvature="0"
       inkscape:export-xdpi="96"
       inkscape:export-ydpi="96" />
  </g>
</svg>
