<?xml version="1.0" encoding="utf-8"?><svg height="64" width="64" xmlns="http://www.w3.org/2000/svg" xmlns:svg="http://www.w3.org/2000/svg" xmlns:xlink="http://www.w3.org/1999/xlink"><defs id="primary-definitions"><style id="current-color-scheme" type="text/css">.ColorScheme-Text           { color:#fff; }
      .ColorScheme-Background     { color:#111; }
      .ColorScheme-Highlight      { color:#3daefd; }
      .ColorScheme-ViewBackground { color:#000; }
      .ColorScheme-PositiveText   { color:#27ae60; }
      .ColorScheme-NeutralText    { color:#f67400; }
      .ColorScheme-NegativeText   { color:#da4453; }
  </style><style id="extended-color-scheme" type="text/css">.ExScheme-Black     { color:#3e3e3e; }
      .ExScheme-White     { color:#fcfcfc; }
      .ExScheme-Grey-1    { color:#cfd5d5; }
      .ExScheme-Grey-2    { color:#909c9c; }
      .ExScheme-Grey-3    { color:#536161; }
      .ExScheme-Red-1     { color:#ffafa5; }
      .ExScheme-Red-2     { color:#bf4231; }
      .ExScheme-Red-3     { color:#4d2f2b; }
      .ExScheme-Green-1   { color:#abf9c7; }
      .ExScheme-Green-2   { color:#3bb566; }
      .ExScheme-Green-3   { color:#377d50; }
      .ExScheme-Blue-1    { color:#abdaf9; }
      .ExScheme-Blue-2    { color:#3daefd; }
      .ExScheme-Blue-3    { color:#2b3c4d; }
      .ExScheme-Yellow-1  { color:#faffa5; }
      .ExScheme-Yellow-2  { color:#cac726; }
      .ExScheme-Yellow-3  { color:#4b4d2b; }
      .ExScheme-Orange-1  { color:#ffdaa5; }
      .ExScheme-Orange-2  { color:#ff9701; }
      .ExScheme-Orange-3  { color:#4d372b; }
      .ExScheme-Brown-1   { color:#e9d6bb; }
      .ExScheme-Brown-2   { color:#997657; }
      .ExScheme-Brown-3   { color:#433a35; }
      .ExScheme-Purple-1  { color:#e2abf9; }
      .ExScheme-Purple-2  { color:#b401ff; }
      .ExScheme-Purple-3  { color:#432b4d; }
      .ExScheme-Cyan-1    { color:#b2f2e6; }
      .ExScheme-Cyan-2    { color:#31bfa6; }
      .ExScheme-Cyan-3    { color:#2b4d47; }
      .ExScheme-Magenta-1 { color:#f8a6d8; }
      .ExScheme-Magenta-2 { color:#f00091; }
      .ExScheme-Magenta-3 { color:#770048; }
  </style><linearGradient id="gradientDark"><stop offset="0"/><stop offset="1" stop-opacity="0"/></linearGradient><linearGradient id="gradientLight"><stop offset="0" stop-color="#fff"/><stop offset="1" stop-color="#fff" stop-opacity="0"/></linearGradient><style class="toggle-enable-crease" type="text/css">.folder-crease { display: none; }
  </style><style class="toggle-manilla-folders" type="text/css">.folder-manilla { display: none; }
  </style><radialGradient cx=".5" cy="0" id="gl1" r="1" xlink:href="#gradientLight"/><linearGradient id="gd1" xlink:href="#gradientDark" y1="1" y2=".5"/><radialGradient cx="5.94" cy="32" fx="5.94" fy="32" gradientTransform="matrix(0,1.997,-2.049,0,97.575,-5.9226)" gradientUnits="userSpaceOnUse" id="radialGradient4483" r="26" xlink:href="#gradientLight"/><path -inkscape-stroke="none" d="M 9,6 C 7.338,6 6,7.338 6,9 v 46 c 0,1.662 1.338,3 3,3 h 46 c 1.662,0 3,-1.338 3,-3 V 9 C 58,7.338 56.662,6 55,6 h -5 v 31 c 0,1.108 -0.892,2 -2,2 h -4 c -1.108,0 -2,-0.892 -2,-2 V 6 Z" id="use-path-C" stop-color="#000000" stroke-opacity="0"/></defs><g id="content"><namedview bordercolor="#666666" borderopacity="1.0" current-layer="svg47" cx="23.42" cy="25.37" pagecheckerboard="0" pagecolor="#ffffff" pageopacity="0.0" pageshadow="2" showgrid="true" window-height="1017" window-maximized="1" window-width="1920" window-x="0" window-y="0" zoom="11.313708"><grid type="xygrid"/></namedview><path -inkscape-stroke="none" d="M 9,6 C 7.338,6 6,7.338 6,9 v 46 c 0,1.662 1.338,3 3,3 h 46 c 1.662,0 3,-1.338 3,-3 V 9 C 58,7.338 56.662,6 55,6 H 54 10 Z" fill="#3daefd" id="primary-color" opacity="1" stop-color="#000000" stroke-opacity="0"/><use fill="#ffffff" href="#use-path-C" id="rect2310-2-6" opacity=".1"/><g id="emblem" transform="translate(8,26)"><path class="ColorScheme-Background" d="M 16 5.982 C 13.044 5.982 10.163 6.917 7.77 8.654 C 2.867 12.217 .81 18.543 2.686 24.31 A 1 1 0 0 0 3.945 24.95 L 7.242 23.877 A 1 1 0 0 0 7.885 22.617 C 7.615 21.785 7.467 20.904 7.467 19.982 C 7.467 17.515 8.093 14.883 9.45 12.95 C 10.81 11.016 12.822 9.715 16 9.715 C 18.62 9.715 20.444 10.6 21.766 11.992 L 24.357 8.754 C 24.313 8.72 24.27 8.687 24.227 8.654 C 21.835 6.917 18.956 5.982 16 5.982 z M 16 6.982 C 18.44 6.982 20.776 7.768 22.836 9.055 L 21.55 10.658 C 20.125 9.525 18.356 8.715 16 8.715 C 12.55 8.715 10.137 10.234 8.633 12.375 C 7.112 14.54 6.467 17.346 6.467 19.982 C 6.467 21.01 6.632 21.998 6.934 22.926 A 1 1 0 0 0 6.932 22.926 L 3.637 24 C 1.895 18.644 3.803 12.773 8.36 9.463 C 10.58 7.85 13.255 6.982 16 6.982 z M 25.14 9.377 L 22.42 12.775 C 22.463 12.833 22.505 12.89 22.547 12.95 C 23.837 14.786 24.466 17.252 24.525 19.61 L 27.598 20.014 C 28.404 20.12 28.997 20.89 28.89 21.697 C 28.784 22.504 28.014 23.094 27.207 22.988 L 24.123 22.582 C 24.12 22.594 24.117 22.606 24.113 22.617 A 1 1 0 0 0 24.756 23.877 L 28.053 24.95 A 1 1 0 0 0 29.312 24.31 C 31.066 18.915 29.38 13.03 25.14 9.377 z M 16 19 A 1 1 0 0 0 15 20 A 1 1 0 0 0 16 21 A 1 1 0 0 0 16.79 20.607 L 27.336 21.996 C 27.61 22.032 27.86 21.84 27.896 21.566 C 27.933 21.292 27.74 21.042 27.467 21.006 L 16.924 19.617 A 1 1 0 0 0 16 19 z " fill="currentColor" opacity=".6"/><path class="ColorScheme-Background" d="M 16,5.982 C 13.044,5.982 10.163,6.917 7.77,8.654 2.867,12.217 .81,18.543 2.686,24.31 c .17,.525 .734,.813 1.26,.643 l 3.297,-1.074 C 7.767,23.706 8.055,23.142 7.885,22.617 7.615,21.785 7.467,20.904 7.467,19.982 c 0,-2.468 .626,-5.09 1.984,-7.033 C 10.81,11.016 12.822,9.715 16,9.715 c 2.62,0 4.444,.885 5.766,2.277 l 2.592,-3.238 c -.044,-.033 -.086,-.067 -.13,-.1 C 21.835,6.917 18.956,5.982 16,5.982 Z m 0,1 c 2.44,-2.677e-4 4.776,.786 6.836,2.072 L 21.55,10.658 C 20.125,9.525 18.356,8.715 16,8.715 c -3.45,-6e-7 -5.863,1.52 -7.367,3.66 -1.52,2.165 -2.166,4.97 -2.166,7.607 0,1.028 .166,2.016 .467,2.943 h -.002 L 3.637,24 C 1.895,18.644 3.803,12.773 8.36,9.463 10.58,7.85 13.255,6.982 16,6.982 Z m 9.14,2.395 -2.72,3.398 c .043,.058 .086,.115 .127,.174 1.29,1.837 1.92,4.303 1.98,6.66 l 3.072,.404 c .807,.106 1.4,.877 1.293,1.684 -.106,.807 -.877,1.397 -1.684,1.29 l -3.084,-.406 c -.004,.012 -0.006,.024 -.01,.035 -.17,.525 .117,1.09 .643,1.26 l 3.297,1.074 c .525,.17 1.09,-.117 1.26,-.643 1.753,-5.394 .067,-11.278 -4.174,-14.932 z m .018,.777 c 3.116,2.907 4.588,7.07 4.137,11.266 -.056,-.936 -.67,-1.776 -1.63,-1.902 L 24.96,19.162 C 24.84,16.917 24.25,14.627 23.027,12.816 Z M 16,19 c -.552,0 -1,.448 -1,1 0,.552 .448,1 1,1 .31,-0.001 .603,-.146 .79,-.393 l 10.545,1.39 c .275,.036 .524,-.155 .56,-.43 .036,-.275 -.155,-.524 -.43,-.56 L 16.924,19.617 C 16.77,19.244 16.404,19 16,19 Z m 0,0.5 c .204,0 .385,.12 .463,.31 .068,.163 .217,.278 .393,.303 -.177,-.023 -.352,.05 -.46,.19 C 16.3,20.426 16.155,20.5 16,20.5 c -.282,0 -0.5,-.218 -0.5,-0.5 0,-.282 .218,-0.5 0.5,-0.5 z m 13.176,2.623 c -.11,.68 -.12,1.362 -.338,2.03 -.087,.268 -.363,.407 -.63,.32 v 0.002 l -3.297,-1.074 c 1e-6,-6.51e-4 1e-6,-0 0,-0.002 -.096,-.03 -.057,-.154 -.115,-.225 l 2.348,.31 c .937,.123 1.717,-.506 2.033,-1.36 z" fill="currentColor" opacity=".6"/></g><use fill="url(#radialGradient4483)" href="#use-path-C" id="rect2310-2" opacity=".2"/><path -inkscape-stroke="none" d="M 6 54 L 6 55 C 6 56.662 7.338 58 9 58 L 55 58 C 56.662 58 58 56.662 58 55 L 58 54 C 58 55.662 56.662 57 55 57 L 9 57 C 7.338 57 6 55.662 6 54 z " id="rect2310-6" opacity=".1" stop-color="#000000" stroke-opacity="0"/><path -inkscape-stroke="none" d="M 6 54.5 L 6 55 C 6 56.662 7.338 58 9 58 L 55 58 C 56.662 58 58 56.662 58 55 L 58 54.5 C 58 56.162 56.662 57.5 55 57.5 L 9 57.5 C 7.338 57.5 6 56.162 6 54.5 z " id="rect2310-6-9" opacity=".2" stop-color="#000000" stroke-opacity="0"/><path -inkscape-stroke="none" d="M 9,6 C 7.338,6 6,7.338 6,9 v 1 C 6,8.338 7.338,7 9,7 H 42 V 6 Z m 41,0 v 1 h 5 c 1.662,0 3,1.338 3,3 V 9 C 58,7.338 56.662,6 55,6 Z" fill="#fefefe" id="rect2310-6-3" opacity=".1" stop-color="#000000" stroke-opacity="0"/><path -inkscape-stroke="none" d="M 9,6 C 7.338,6 6,7.338 6,9 v 0.5 c 0,-1.662 1.338,-3 3,-3 H 42 V 6 Z m 41,0 v 0.5 h 5 c 1.662,0 3,1.338 3,3 V 9 C 58,7.338 56.662,6 55,6 Z" fill="#fefefe" id="rect2310-6-9-6" opacity=".2" stop-color="#000000" stroke-opacity="0"/><path d="m 42,6 v 31 c 0,1.108 0.892,2 2,2 h 4 c 1.108,0 2,-0.892 2,-2 V 6 Z m 3,0 h 2 v 4 h -2 z m -1,2 v 2 c 0,0.554 0.446,1 1,1 h 2 c 0.554,0 1,-0.446 1,-1 V 8 c 0.554,0 1,0.446 1,1 v 7 c 0,0.554 -0.446,1 -1,1 h -4 c -0.554,0 -1,-0.446 -1,-1 V 9 c 0,-0.554 0.446,-1 1,-1 z m 1,4 c -0.554,0 -1,0.446 -1,1 v 2 c 0,0.554 0.446,1 1,1 h 2 c 0.554,0 1,-0.446 1,-1 v -2 c 0,-0.554 -0.446,-1 -1,-1 z m 1,7 v 2 h 2 v 2 h -2 v 2 h 2 v 2 h -2 v 2 h 2 v 2 h -2 v 2 h 2 v 2 2 h -2 -2 v -2 h 2 v -2 h -2 v -2 h 2 v -2 h -2 v -2 h 2 v -2 h -2 v -2 h 2 v -2 h -2 v -2 z" fill="#050505" id="rect279192-9-5-7-5-6" opacity=".4" stop-color="#000000"/><path d="m 44,8 c -0.554,0 -1,0.446 -1,1 v 7 c 0,0.554 0.446,1 1,1 h 4 c 0.554,0 1,-0.446 1,-1 V 9 C 49,8.446 48.554,8 48,8 v 2 c 0,0.554 -0.446,1 -1,1 h -2 c -0.554,0 -1,-0.446 -1,-1 z m 1,4 h 2 c 0.554,0 1,0.446 1,1 v 2 c 0,0.554 -0.446,1 -1,1 h -2 c -0.554,0 -1,-0.446 -1,-1 v -2 c 0,-0.554 0.446,-1 1,-1 z" fill="#ffffff" opacity=".6" stop-color="#000000"/><path d="m 45,6 v 4 h 2 V 6 Z" fill="#ffffff" opacity=".6" stop-color="#000000"/><g transform="translate(-802,-366)"><path d="m 848,385 h -2 v 2 h 2 z m 0,2 v 2 h 2 v -2 z m 0,2 h -2 v 2 h 2 z m 0,2 v 2 h 2 v -2 z m 0,2 h -2 v 2 h 2 z m 0,2 v 2 h 2 v -2 z m 0,2 h -2 v 2 h 2 z m 0,2 v 2 h -2 v 2 h 2 2 v -2 -2 z" fill="#ffffff" opacity=".6" stop-color="#000000"/></g><path d="m 42,37 v 1 c 0,1.108 0.892,2 2,2 h 4 c 1.108,0 2,-0.892 2,-2 v -1 c 0,1.108 -0.892,2 -2,2 h -4 c -1.108,0 -2,-0.892 -2,-2 z" fill="#f9ffff" id="rect90872" opacity=".1" stop-color="#000000"/><path d="m 42,37 v 0.5 c 0,1.108 0.892,2 2,2 h 4 c 1.108,0 2,-0.892 2,-2 V 37 c 0,1.108 -0.892,2 -2,2 h -4 c -1.108,0 -2,-0.892 -2,-2 z" fill="#f9ffff" id="rect90872-3" opacity=".2" stop-color="#000000"/></g></svg>