<?xml version="1.0" encoding="utf-8"?><svg height="64" width="64" xmlns="http://www.w3.org/2000/svg" xmlns:svg="http://www.w3.org/2000/svg" xmlns:xlink="http://www.w3.org/1999/xlink"><defs id="primary-definitions"><style id="current-color-scheme" type="text/css">.ColorScheme-Text           { color:#fff; }
      .ColorScheme-Background     { color:#111; }
      .ColorScheme-Highlight      { color:#3daefd; }
      .ColorScheme-ViewBackground { color:#000; }
      .ColorScheme-PositiveText   { color:#27ae60; }
      .ColorScheme-NeutralText    { color:#f67400; }
      .ColorScheme-NegativeText   { color:#da4453; }
  </style><style id="extended-color-scheme" type="text/css">.ExScheme-Black     { color:#3e3e3e; }
      .ExScheme-White     { color:#fcfcfc; }
      .ExScheme-Grey-1    { color:#cfd5d5; }
      .ExScheme-Grey-2    { color:#909c9c; }
      .ExScheme-Grey-3    { color:#536161; }
      .ExScheme-Red-1     { color:#ffafa5; }
      .ExScheme-Red-2     { color:#bf4231; }
      .ExScheme-Red-3     { color:#4d2f2b; }
      .ExScheme-Green-1   { color:#abf9c7; }
      .ExScheme-Green-2   { color:#3bb566; }
      .ExScheme-Green-3   { color:#377d50; }
      .ExScheme-Blue-1    { color:#abdaf9; }
      .ExScheme-Blue-2    { color:#3daefd; }
      .ExScheme-Blue-3    { color:#2b3c4d; }
      .ExScheme-Yellow-1  { color:#faffa5; }
      .ExScheme-Yellow-2  { color:#cac726; }
      .ExScheme-Yellow-3  { color:#4b4d2b; }
      .ExScheme-Orange-1  { color:#ffdaa5; }
      .ExScheme-Orange-2  { color:#ff9701; }
      .ExScheme-Orange-3  { color:#4d372b; }
      .ExScheme-Brown-1   { color:#e9d6bb; }
      .ExScheme-Brown-2   { color:#997657; }
      .ExScheme-Brown-3   { color:#433a35; }
      .ExScheme-Purple-1  { color:#e2abf9; }
      .ExScheme-Purple-2  { color:#b401ff; }
      .ExScheme-Purple-3  { color:#432b4d; }
      .ExScheme-Cyan-1    { color:#b2f2e6; }
      .ExScheme-Cyan-2    { color:#31bfa6; }
      .ExScheme-Cyan-3    { color:#2b4d47; }
      .ExScheme-Magenta-1 { color:#f8a6d8; }
      .ExScheme-Magenta-2 { color:#f00091; }
      .ExScheme-Magenta-3 { color:#770048; }
  </style><linearGradient id="gradientDark"><stop offset="0"/><stop offset="1" stop-opacity="0"/></linearGradient><linearGradient id="gradientLight"><stop offset="0" stop-color="#fff"/><stop offset="1" stop-color="#fff" stop-opacity="0"/></linearGradient><style class="toggle-enable-crease" type="text/css">.folder-crease { display: none; }
  </style><style class="toggle-manilla-folders" type="text/css">.folder-manilla { display: none; }
  </style><radialGradient cx=".5" cy="0" id="gl1" r="1" xlink:href="#gradientLight"/><linearGradient id="gd1" xlink:href="#gradientDark" y1="1" y2=".5"/><radialGradient cx="5.94" cy="32" fx="5.94" fy="32" gradientTransform="matrix(0,1.997,-2.049,0,97.575,-5.9226)" gradientUnits="userSpaceOnUse" id="radialGradient4483" r="26" xlink:href="#gradientLight"/><linearGradient gradientUnits="userSpaceOnUse" id="linearGradient4893" x1="14" x2="14" xlink:href="#gradientDark" y1="26" y2="6"/><path -inkscape-stroke="none" d="M 26,2 A 24,24 0 0 0 23.758,2.16 L 22.938,6.25 A 20,20 0 0 0 18.803,7.393 L 15.986,4.19 a 24,24 0 0 0 -3.848,2.283 l 1.342,3.977 a 20,20 0 0 0 -3.03,3.03 l -3.977,-1.342 a 24,24 0 0 0 -2.283,3.85 l 3.2,2.816 A 20,20 0 0 0 6.25,22.938 L 2.16,23.758 A 24,24 0 0 0 2,26 24,24 0 0 0 2.16,28.242 L 6.25,29.062 a 20,20 0 0 0 1.143,4.135 l -3.2,2.816 a 24,24 0 0 0 2.283,3.85 l 3.977,-1.342 a 20,20 0 0 0 3.03,3.03 l -1.342,3.977 a 24,24 0 0 0 3.848,2.283 l 2.816,-3.2 A 20,20 0 0 0 22.938,45.75 l .82,4.09 A 24,24 0 0 0 26,50 24,24 0 0 0 28.242,49.84 L 29.062,45.75 a 20,20 0 0 0 4.135,-1.143 l 2.816,3.2 a 24,24 0 0 0 3.848,-2.283 l -1.342,-3.977 a 20,20 0 0 0 3.03,-3.03 l 3.977,1.342 a 24,24 0 0 0 2.283,-3.85 l -3.2,-2.816 A 20,20 0 0 0 45.75,29.062 l 4.09,-.821 A 24,24 0 0 0 50,26 24,24 0 0 0 49.895,23.77 l -4.133,-.83 a 20,20 0 0 0 -1.12,-4.166 l 3.164,-2.785 a 24,24 0 0 0 -2.234,-3.865 l -3.988,1.346 A 20,20 0 0 0 38.53,10.416 L 39.877,6.428 A 24,24 0 0 0 36.012,4.193 L 33.227,7.357 A 20,20 0 0 0 29.06,6.238 L 28.23,2.105 A 24,24 0 0 0 26,2 Z m 0,8 A 16,16 0 0 1 42,26 16,16 0 0 1 26,42 16,16 0 0 1 10,26 16,16 0 0 1 26,10 Z m 0,1 A 15,15 0 0 0 11,26 15,15 0 0 0 26,41 15,15 0 0 0 41,26 15,15 0 0 0 26,11 Z m 0,11 a 4,4 0 0 1 4,4 4,4 0 0 1 -4,4 4,4 0 0 1 -4,-4 4,4 0 0 1 4,-4 z" id="use-path-I" stop-color="#000000" stroke-opacity="0"/><path -inkscape-stroke="none" d="m 10,6 v 17 c 0,1.662 1.338,3 3,3 h 33 z m 36,20 h 5 c 1.662,0 3,-1.338 3,-3 V 6 Z" id="use-path-J" stop-color="#000000" stroke-opacity="0"/></defs><g id="content"><namedview bordercolor="#666666" borderopacity="1.0" current-layer="svg47" cx="23" cy="23" pagecheckerboard="0" pagecolor="#ffffff" pageopacity="0.0" pageshadow="2" showgrid="false" window-height="1017" window-maximized="1" window-width="1920" window-x="0" window-y="0" zoom="1"><grid type="xygrid"/></namedview><rect -inkscape-stroke="none" fill="#536161" height="20" opacity="1" ry="0" stop-color="#000000" stroke-opacity="0" width="44" x="10" y="6"/><rect -inkscape-stroke="none" fill="url(#linearGradient4893)" height="20" opacity=".2" ry="0" stop-color="#000000" stroke-opacity="0" width="44" x="10" y="6"/><g id="insert" transform="translate(6,6)"><path -inkscape-stroke="none" d="M 26,9 A 17,17 0 0 0 9,26 17,17 0 0 0 26,43 17,17 0 0 0 43,26 17,17 0 0 0 26,9 Z m 0,12 a 5,5 0 0 1 5,5 5,5 0 0 1 -5,5 5,5 0 0 1 -5,-5 5,5 0 0 1 5,-5 z" fill="#6f8181" stop-color="#000000" stroke-opacity="0"/><use fill="#b0b8b8" href="#use-path-I"/><path -inkscape-stroke="none" d="M 26,50 A 24,24 0 0 1 23.758,49.84 L 22.938,45.75 a 20,20 0 0 1 -4.135,-1.143 l -2.816,3.2 a 24,24 0 0 1 -3.848,-2.283 l 1.342,-3.977 a 20,20 0 0 1 -3.03,-3.03 l -3.977,1.342 A 24,24 0 0 1 4.19,36.014 l 3.2,-2.816 A 20,20 0 0 1 6.25,29.062 L 2.16,28.242 A 24,24 0 0 1 2,26 24,24 0 0 1 2.16,23.758 L 6.25,22.938 a 20,20 0 0 1 1.143,-4.135 l -3.2,-2.816 a 24,24 0 0 1 2.283,-3.85 l 3.977,1.342 a 20,20 0 0 1 3.03,-3.03 L 12.14,6.475 a 24,24 0 0 1 3.848,-2.283 l 2.816,3.2 A 20,20 0 0 1 22.938,6.25 L 23.758,2.16 A 24,24 0 0 1 26,2 24,24 0 0 1 28.242,2.16 L 29.062,6.25 a 20,20 0 0 1 4.135,1.143 l 2.816,-3.2 a 24,24 0 0 1 3.848,2.283 l -1.342,3.977 a 20,20 0 0 1 3.03,3.03 l 3.977,-1.342 a 24,24 0 0 1 2.283,3.85 l -3.2,2.816 A 20,20 0 0 1 45.75,22.938 l 4.09,.82 A 24,24 0 0 1 50,26 24,24 0 0 1 49.895,28.23 l -4.133,.83 a 20,20 0 0 1 -1.12,4.166 l 3.164,2.785 a 24,24 0 0 1 -2.234,3.865 l -3.988,-1.346 a 20,20 0 0 1 -3.053,3.053 l 1.346,3.988 a 24,24 0 0 1 -3.865,2.235 l -2.785,-3.164 a 20,20 0 0 1 -4.166,1.124 l -.83,4.133 A 24,24 0 0 1 26,50 Z m 0,-8 A 16,16 0 0 0 42,26 16,16 0 0 0 26,10 16,16 0 0 0 10,26 16,16 0 0 0 26,42 Z m 0,-1 A 15,15 0 0 1 11,26 15,15 0 0 1 26,11 15,15 0 0 1 41,26 15,15 0 0 1 26,41 Z m 0,-11 a 4,4 0 0 0 4,-4 4,4 0 0 0 -4,-4 4,4 0 0 0 -4,4 4,4 0 0 0 4,4 z" fill="url(#radialGradient28208-7-9)" stop-color="#000000" stroke-opacity="0"/><use fill="url(#radialGradient28208-7-9-9)" href="#use-path-I"/><use fill="url(#linearGradient215554)" href="#use-path-I" opacity=".2"/></g><path -inkscape-stroke="none" d="M 9,6 C 7.338,6 6,7.338 6,9 v 46 c 0,1.662 1.338,3 3,3 h 46 c 1.662,0 3,-1.338 3,-3 V 9 C 58,7.338 56.662,6 55,6 H 54 L 48,25 46,26 41,25 10,6 Z" fill="#3daefd" id="primary-color" opacity="1" stop-color="#000000" stroke-opacity="0"/><path -inkscape-stroke="none" d="M 9 6 C 7.338 6 6 7.338 6 9 L 6 55 C 6 56.662 7.338 58 9 58 L 55 58 C 56.662 58 58 56.662 58 55 L 58 9 C 58 7.338 56.662 6 55 6 L 54 6 L 54 23 C 54 24.662 52.662 26 51 26 L 50 26 L 50 37 C 50 38.108 49.108 39 48 39 L 44 39 C 42.892 39 42 38.108 42 37 L 42 26 L 13 26 C 11.338 26 10 24.662 10 23 L 10 6 L 9 6 z " fill="#ffffff" id="rect2310-2-6" opacity=".1" stop-color="#000000" stroke-opacity="0"/><g id="emblem" transform="translate(8,26)"><path class="ColorScheme-Background" d="M 16 7 A 14 14 0 0 0 5.496 11.79 L 2.354 8.646 A 0.5 0.5 0 0 0 2 8.5 A 0.5 0.5 0 0 0 1.646 8.646 A 0.5 0.5 0 0 0 1.646 9.354 L 4.844 12.55 A 14 14 0 0 0 2 21 L 2 23 C 2 24.108 2.892 25 4 25 L 28 25 C 29.108 25 30 24.108 30 23 L 30 21 A 14 14 0 0 0 27.158 12.55 L 30.354 9.354 A 0.5 0.5 0 0 0 30.354 8.646 A 0.5 0.5 0 0 0 29.646 8.646 L 26.523 11.77 A 14 14 0 0 0 16 7 z M 10 15 A 2 2 0 0 1 12 17 A 2 2 0 0 1 10 19 A 2 2 0 0 1 8 17 A 2 2 0 0 1 10 15 z M 22 15 A 2 2 0 0 1 24 17 A 2 2 0 0 1 22 19 A 2 2 0 0 1 20 17 A 2 2 0 0 1 22 15 z " fill="currentColor" opacity=".6" stop-color="#000000"/><path class="ColorScheme-Background" d="M 16 7 A 14 14 0 0 0 5.496 11.79 L 2.354 8.646 A 0.5 0.5 0 0 0 2 8.5 A 0.5 0.5 0 0 0 1.646 8.646 A 0.5 0.5 0 0 0 1.646 9.354 L 4.844 12.55 A 14 14 0 0 0 2 21 L 2 23 C 2 24.108 2.892 25 4 25 L 28 25 C 29.108 25 30 24.108 30 23 L 30 21 A 14 14 0 0 0 27.158 12.55 L 30.354 9.354 A 0.5 0.5 0 0 0 30.354 8.646 A 0.5 0.5 0 0 0 29.646 8.646 L 26.523 11.77 A 14 14 0 0 0 16 7 z M 16 7.5 L 16.002 7.5 C 19.888 7.5 23.586 9.177 26.148 12.1 A .5 .5 0 0 0 26.877 12.123 L 26.805 12.195 A .5 .5 0 0 0 26.76 12.852 C 28.537 15.197 29.5 18.057 29.5 21 L 29.5 23 C 29.5 23.84 28.84 24.5 28 24.5 L 4 24.5 C 3.16 24.5 2.5 23.84 2.5 23 L 2.5 21 C 2.502 18.058 3.465 15.198 5.242 12.854 A .5 .5 0 0 0 5.197 12.197 L 5.143 12.143 A .5 .5 0 0 0 5.873 12.117 C 8.428 9.193 12.117 7.51 16 7.5 z M 10 14.5 C 8.625 14.5 7.5 15.625 7.5 17 C 7.5 18.375 8.625 19.5 10 19.5 C 11.375 19.5 12.5 18.375 12.5 17 C 12.5 15.625 11.375 14.5 10 14.5 z M 22 14.5 C 20.625 14.5 19.5 15.625 19.5 17 C 19.5 18.375 20.625 19.5 22 19.5 C 23.375 19.5 24.5 18.375 24.5 17 C 24.5 15.625 23.375 14.5 22 14.5 z M 10 15 A 2 2 0 0 1 12 17 A 2 2 0 0 1 10 19 A 2 2 0 0 1 8 17 A 2 2 0 0 1 10 15 z M 22 15 A 2 2 0 0 1 24 17 A 2 2 0 0 1 22 19 A 2 2 0 0 1 20 17 A 2 2 0 0 1 22 15 z " fill="currentColor" opacity=".6"/></g><path -inkscape-stroke="none" d="M 9,6 C 7.338,6 6,7.338 6,9 v 46 c 0,1.662 1.338,3 3,3 h 46 c 1.662,0 3,-1.338 3,-3 V 9 C 58,7.338 56.662,6 55,6 h -1 v 17 c 0,1.662 -1.338,3 -3,3 h -1 v 11 c 0,1.108 -0.892,2 -2,2 h -4 c -1.108,0 -2,-0.892 -2,-2 V 26 H 13 c -1.662,0 -3,-1.338 -3,-3 V 6 Z" fill="url(#radialGradient4483)" id="rect2310-2" opacity=".2" stop-color="#000000" stroke-opacity="0"/><use fill="#ffc169" href="#use-path-J" id="secondary-color" opacity="1"/><path d="m 42,26 v 11 c 0,1.108 0.892,2 2,2 h 4 c 1.108,0 2,-0.892 2,-2 V 26 Z m 3,1 h 2 v 4 h -2 z m -1,2 v 2 c 0,0.554 0.446,1 1,1 h 2 c 0.554,0 1,-0.446 1,-1 v -2 c 0.554,0 1,0.446 1,1 v 7 c 0,0.554 -0.446,1 -1,1 h -4 c -0.554,0 -1,-0.446 -1,-1 v -7 c 0,-0.554 0.446,-1 1,-1 z m 1,4 c -0.554,0 -1,0.446 -1,1 v 2 c 0,0.554 0.446,1 1,1 h 2 c 0.554,0 1,-0.446 1,-1 v -2 c 0,-0.554 -0.446,-1 -1,-1 z" id="rect279192-9-5-7-9-3-1-0" opacity=".4" stop-color="#000000"/><path d="m 45,27 v 4 h 2 v -4 z m -1,2 c -0.554,0 -1,0.446 -1,1 v 7 c 0,0.554 0.446,1 1,1 h 4 c 0.554,0 1,-0.446 1,-1 v -7 c 0,-0.554 -0.446,-1 -1,-1 v 2 c 0,0.554 -0.446,1 -1,1 h -2 c -0.554,0 -1,-0.446 -1,-1 z m 1,4 h 2 c 0.554,0 1,0.446 1,1 v 2 c 0,0.554 -0.446,1 -1,1 h -2 c -0.554,0 -1,-0.446 -1,-1 v -2 c 0,-0.554 0.446,-1 1,-1 z" fill="#ffffff" opacity=".6" stop-color="#000000"/><path -inkscape-stroke="none" color="#000000" d="M 8,6 C 6.892,6 6,6.892 6,8 V 9 C 6,7.892 6.892,7 8,7 h 2 V 7.178 L 44.113,26 H 46 L 10,6 Z m 38,20 h 1.168 L 54,7.943 V 7 h 2 c 1.108,0 2,0.892 2,2 V 8 C 58,6.892 57.108,6 56,6 h -2 z m -4,11 v 1 c 0,1.108 0.892,2 2,2 h 4 c 1.108,0 2,-0.892 2,-2 v -1 c 0,1.108 -0.892,2 -2,2 h -4 c -1.108,0 -2,-0.892 -2,-2 z" fill="#ffffff" opacity=".1"/><path -inkscape-stroke="none" color="#000000" d="M 8,6 C 6.892,6 6,6.892 6,8 v 0.5 c 0,-1.108 0.892,-2 2,-2 h 2 V 6.59 L 45.057,26 H 46 L 10,6 Z m 38,20 h .582 L 54,6.975 V 6.5 h 2 c 1.108,0 2,0.892 2,2 V 8 C 58,6.892 57.108,6 56,6 h -2 z m -4,11 v 0.5 c 0,1.108 0.892,2 2,2 h 4 c 1.108,0 2,-0.892 2,-2 V 37 c 0,1.108 -0.892,2 -2,2 h -4 c -1.108,0 -2,-0.892 -2,-2 z" fill="#ffffff" opacity=".2"/><path -inkscape-stroke="none" d="M 6 54 L 6 55 C 6 56.662 7.338 58 9 58 L 55 58 C 56.662 58 58 56.662 58 55 L 58 54 C 58 55.662 56.662 57 55 57 L 9 57 C 7.338 57 6 55.662 6 54 z " id="rect2310-6" opacity=".1" stop-color="#000000" stroke-opacity="0"/><path -inkscape-stroke="none" d="M 6 54.5 L 6 55 C 6 56.662 7.338 58 9 58 L 55 58 C 56.662 58 58 56.662 58 55 L 58 54.5 C 58 56.162 56.662 57.5 55 57.5 L 9 57.5 C 7.338 57.5 6 56.162 6 54.5 z " id="rect2310-6-9" opacity=".2" stop-color="#000000" stroke-opacity="0"/><path -inkscape-stroke="none" color="#000000" d="M 10,6 46,26 54,6 H 52.834 L 45.666,24.613 11.885,6 Z" opacity=".1"/><path -inkscape-stroke="none" color="#000000" d="M 10,6 46,26 54,6 H 53.416 L 45.832,25.305 10.943,6 Z" opacity=".1"/><path -inkscape-stroke="none" d="M 10 23 L 10 24 C 10 25.662 11.338 27 13 27 L 51 27 C 52.662 27 54 25.662 54 24 L 54 23 C 54 24.662 52.662 26 51 26 L 13 26 C 11.338 26 10 24.662 10 23 z " id="rect5086" opacity=".1" stop-color="#000000" stroke-opacity="0"/><path -inkscape-stroke="none" d="M 10 23 L 10 23.5 C 10 25.162 11.338 26.5 13 26.5 L 51 26.5 C 52.662 26.5 54 25.162 54 23.5 L 54 23 C 54 24.662 52.662 26 51 26 L 13 26 C 11.338 26 10 24.662 10 23 z " id="rect5086-2" opacity=".2" stop-color="#000000" stroke-opacity="0"/><use fill="#ffffff" href="#use-path-J" id="secondary-color-6" opacity=".4"/></g></svg>