<?xml version="1.0" encoding="UTF-8" standalone="no"?>
<svg width="64" version="1.1" xmlns="http://www.w3.org/2000/svg" viewBox="0 0 64 64" height="64" xmlns:xlink="http://www.w3.org/1999/xlink" xmlns:inkscape="http://www.inkscape.org/namespaces/inkscape">
 <defs id="defs4">
  <linearGradient inkscape:collect="always" xlink:href="#linearGradient4300-8" id="linearGradient4306" y1="61" y2="3" x2="0" gradientUnits="userSpaceOnUse" gradientTransform="matrix(1 0 0 1 -0.088388 0)"/>
  <linearGradient inkscape:collect="always" xlink:href="#linearGradient4410" id="linearGradient4427" y1="31" x1="54" y2="17" x2="40" gradientUnits="userSpaceOnUse" gradientTransform="matrix(1 0 0 -1 -14 78)"/>
  <linearGradient inkscape:collect="always" id="linearGradient4410">
   <stop style="stop-color:#383e51" id="stop4412"/>
   <stop offset="1" style="stop-color:#655c6f;stop-opacity:0" id="stop4414"/>
  </linearGradient>
  <linearGradient inkscape:collect="always" xlink:href="#linearGradient4351" id="linearGradient4357" y1="61" y2="47" x2="0" gradientUnits="userSpaceOnUse"/>
  <linearGradient inkscape:collect="always" id="linearGradient4351">
   <stop style="stop-color:#f7ab89" id="stop4353"/>
   <stop offset="1" style="stop-color:#fbd2bf" id="stop4355"/>
  </linearGradient>
  <linearGradient inkscape:collect="always" id="linearGradient4300-8">
   <stop style="stop-color:#f27935" id="stop4302-5"/>
   <stop offset="1" style="stop-color:#f2784b" id="stop4304-7"/>
  </linearGradient>
 </defs>
 <metadata id="metadata84"/>
 <path inkscape:connector-curvature="0" style="fill:url(#linearGradient4306)" id="rect3500" d="m 9.9999999,3 0,58 L 40,61 54,47 54,17 54,3 40,3 9.9999999,3 Z"/>
 <rect width="30" x="10" y="60" height="1" style="fill:#2e3132;fill-opacity:0.294118" id="rect4169"/>
 <rect width="44" x="10" y="3" height="1" style="fill:#ffffff;fill-opacity:0.409836" id="rect4236"/>
 <path inkscape:connector-curvature="0" style="fill:url(#linearGradient4357);fill-rule:evenodd" id="path4314" d="M 54,47 40,61 40,47 Z"/>
 <path inkscape:connector-curvature="0" style="fill:url(#linearGradient4427);opacity:0.2;fill-rule:evenodd" id="path4320" d="M 26,61 40,47 40,61 Z"/>
 <path style="fill:#fbd2bf;stroke-linecap:square;stroke-width:2" id="path4165" d="M 31.625 21 A 1.5 1.5 0 0 0 30.125 22.5 A 1.5 1.5 0 0 0 30.560547 23.554688 L 30.556641 23.556641 L 34 27 L 22.5 27 A 1.5 1.5 0 0 0 21 28.5 A 1.5 1.5 0 0 0 22.5 30 L 28 30 L 21.568359 36.433594 A 1.5 1.5 0 0 0 21 37.609375 A 1.5 1.5 0 0 0 22.5 39.109375 A 1.5 1.5 0 0 0 23.583984 38.642578 C 23.588355 38.645773 23.589386 38.645249 23.59375 38.648438 L 27.011719 35.232422 A 8 8 0 0 0 35 43 A 8 8 0 0 0 43 35 A 8 8 0 0 0 40.003906 28.759766 L 32.732422 21.490234 A 1.5 1.5 0 0 1 32.730469 21.488281 A 1.5 1.5 0 0 0 31.625 21 z M 35 30 A 5 5 0 0 1 38.033203 31.033203 L 38.900391 31.900391 L 38.912109 31.888672 A 5 5 0 0 1 40 35 A 5 5 0 0 1 35 40 A 5 5 0 0 1 30 35 A 5 5 0 0 1 35 30 z M 35 33 A 2 2 0 0 0 33 35 A 2 2 0 0 0 35 37 A 2 2 0 0 0 37 35 A 2 2 0 0 0 35 33 z "/>
</svg>
