<?xml version="1.0" encoding="UTF-8" standalone="no"?>
<svg
   xmlns:dc="http://purl.org/dc/elements/1.1/"
   xmlns:cc="http://creativecommons.org/ns#"
   xmlns:rdf="http://www.w3.org/1999/02/22-rdf-syntax-ns#"
   xmlns:svg="http://www.w3.org/2000/svg"
   xmlns="http://www.w3.org/2000/svg"
   xmlns:xlink="http://www.w3.org/1999/xlink"
   xmlns:sodipodi="http://sodipodi.sourceforge.net/DTD/sodipodi-0.dtd"
   xmlns:inkscape="http://www.inkscape.org/namespaces/inkscape"
   width="64"
   version="1.1"
   viewBox="0 0 64 64"
   height="64"
   id="svg2"
   inkscape:version="0.91 r13725"
   sodipodi:docname="application-x-bzdvi.svg">
  <sodipodi:namedview
     pagecolor="#ffffff"
     bordercolor="#666666"
     borderopacity="1"
     objecttolerance="10"
     gridtolerance="10"
     guidetolerance="10"
     inkscape:pageopacity="0"
     inkscape:pageshadow="2"
     inkscape:window-width="1920"
     inkscape:window-height="1025"
     id="namedview24"
     showgrid="false"
     inkscape:zoom="7.375"
     inkscape:cx="10.508582"
     inkscape:cy="35.622354"
     inkscape:window-x="0"
     inkscape:window-y="26"
     inkscape:window-maximized="1"
     inkscape:current-layer="svg2" />
  <defs
     id="defs4">
    <linearGradient
       id="linearGradient4300-2">
      <stop
         style="stop-color:#aea8d3"
         id="stop4302-4" />
      <stop
         offset="1"
         style="stop-color:#b9b3dd"
         id="stop4304-1" />
    </linearGradient>
    <linearGradient
       id="linearGradient4300-2-6">
      <stop
         style="stop-color:#3a539b"
         id="stop4302-4-7" />
      <stop
         offset="1"
         style="stop-color:#3f5aa9"
         id="stop4304-1-5" />
    </linearGradient>
    <linearGradient
       inkscape:collect="always"
       xlink:href="#linearGradient4300-2"
       id="linearGradient4178"
       y1="541.79797"
       y2="499.78421"
       x2="0"
       gradientUnits="userSpaceOnUse"
       gradientTransform="matrix(-1,0,0,0.99967455,448.57143,-483.62155)" />
    <linearGradient
       gradientUnits="userSpaceOnUse"
       x2="0"
       y2="512.79999"
       y1="543.79999"
       id="a">
      <stop
         id="stop4264"
         stop-color="#cea476" />
      <stop
         id="stop4266"
         stop-color="#dab58b"
         offset="1" />
    </linearGradient>
  </defs>
  <metadata
     id="metadata84">
    <rdf:RDF>
      <cc:Work
         rdf:about="">
        <dc:format>image/svg+xml</dc:format>
        <dc:type
           rdf:resource="http://purl.org/dc/dcmitype/StillImage" />
      </cc:Work>
    </rdf:RDF>
  </metadata>
  <path
     style="fill:url(#linearGradient4178);fill-opacity:1.0"
     d="m 38,6 4,4 18,0 0,48 L 4,58 4,6 Z"
     id="rect4113"
     inkscape:connector-curvature="0"
     sodipodi:nodetypes="ccccccc" />
  <path
     inkscape:connector-curvature="0"
     style="fill:#2e3132;fill-opacity:0.29411765"
     id="path4151-2"
     d="m 4,58.0001 56,0 0,-1 -56,0 c 0,-1e-4 0,1 0,1 z"
     sodipodi:nodetypes="ccccc" />
  <path
     style="fill:#7668bc;fill-opacity:1"
     d="M 42 10 L 42 12 L 44 12 L 44 10 L 42 10 z M 44 12 L 44 14 L 46 14 L 46 12 L 44 12 z M 44 14 L 42 14 L 42 16 L 44 16 L 44 14 z M 44 16 L 44 18 L 46 18 L 46 16 L 44 16 z M 44 18 L 42 18 L 42 20 L 44 20 L 44 18 z M 44 20 L 44 22 L 46 22 L 46 20 L 44 20 z M 44 22 L 42 22 L 42 24 L 44 24 L 44 22 z M 42 25 L 42 29 L 43 29 L 43 33 L 45 33 L 45 29 L 46 29 L 46 25 L 42 25 z M 43 26 L 45 26 L 45 28 L 43 28 L 43 26 z "
     id="rect4173-3" />
  <path
     style="fill:#ffffff;fill-opacity:0.40983599"
     d="M 4,6 4,7 39,7 38,6 4,6 Z"
     id="rect4236-5"
     inkscape:connector-curvature="0" />
</svg>
