<?xml version="1.0" encoding="UTF-8" standalone="no"?>
<svg
   xmlns:dc="http://purl.org/dc/elements/1.1/"
   xmlns:cc="http://creativecommons.org/ns#"
   xmlns:rdf="http://www.w3.org/1999/02/22-rdf-syntax-ns#"
   xmlns:svg="http://www.w3.org/2000/svg"
   xmlns="http://www.w3.org/2000/svg"
   xmlns:xlink="http://www.w3.org/1999/xlink"
   xmlns:sodipodi="http://sodipodi.sourceforge.net/DTD/sodipodi-0.dtd"
   xmlns:inkscape="http://www.inkscape.org/namespaces/inkscape"
   width="64"
   version="1.1"
   viewBox="0 0 64 64"
   height="64"
   id="svg50"
   inkscape:version="0.91 r13725"
   sodipodi:docname="application-x-java.svg">
  <sodipodi:namedview
     pagecolor="#ffffff"
     bordercolor="#666666"
     borderopacity="1"
     objecttolerance="10"
     gridtolerance="10"
     guidetolerance="10"
     inkscape:pageopacity="0"
     inkscape:pageshadow="2"
     inkscape:window-width="1920"
     inkscape:window-height="1021"
     id="namedview72"
     showgrid="true"
     inkscape:zoom="5.2149125"
     inkscape:cx="31.828836"
     inkscape:cy="39.35647"
     inkscape:window-x="0"
     inkscape:window-y="30"
     inkscape:window-maximized="1"
     inkscape:current-layer="svg50"
     inkscape:snap-bbox="true"
     inkscape:bbox-nodes="true">
    <inkscape:grid
       type="xygrid"
       id="grid4184" />
  </sodipodi:namedview>
  <defs
     id="defs4">
    <linearGradient
       inkscape:collect="always"
       id="linearGradient6251">
      <stop
         style="stop-color:#ffffff;stop-opacity:0"
         offset="0"
         id="stop6253" />
      <stop
         style="stop-color:#ffffff;stop-opacity:0.2"
         offset="1"
         id="stop6255" />
    </linearGradient>
    <linearGradient
       inkscape:collect="always"
       id="linearGradient9654">
      <stop
         style="stop-color:#060606;stop-opacity:1"
         offset="0"
         id="stop9656" />
      <stop
         style="stop-color:#000000;stop-opacity:0"
         offset="1"
         id="stop9658" />
    </linearGradient>
    <linearGradient
       y2="31"
       x2="54"
       y1="17"
       x1="40"
       gradientTransform="translate(292,1084.3631)"
       gradientUnits="userSpaceOnUse"
       id="linearGradient9724-6"
       xlink:href="#linearGradient9654"
       inkscape:collect="always" />
    <linearGradient
       y2="336.36221"
       x2="58"
       y1="392.36221"
       x1="58"
       gradientTransform="translate(244,752.00087)"
       gradientUnits="userSpaceOnUse"
       id="linearGradient7931-5"
       xlink:href="#linearGradient6251"
       inkscape:collect="always" />
  </defs>
  <metadata
     id="metadata84">
    <rdf:RDF>
      <cc:Work
         rdf:about="">
        <dc:format>image/svg+xml</dc:format>
        <dc:type
           rdf:resource="http://purl.org/dc/dcmitype/StillImage" />
      </cc:Work>
    </rdf:RDF>
  </metadata>
  <g
     transform="translate(-292,-1084.363)"
     id="g6070">
    <path
       d="m 302,1145.3631 0,-58 30,0 14,14 0,30 0,14 -14,0 -30,0 z"
       id="path7297-6"
       style="fill:#ff8b23;fill-opacity:1"
       inkscape:connector-curvature="0"
       inkscape:export-xdpi="96"
       inkscape:export-ydpi="96" />
    <rect
       transform="scale(1,-1)"
       id="rect7299-3"
       style="color:#000000;clip-rule:nonzero;display:inline;overflow:visible;visibility:visible;opacity:0.5;isolation:auto;mix-blend-mode:normal;color-interpolation:sRGB;color-interpolation-filters:linearRGB;solid-color:#000000;solid-opacity:1;fill:#ffffff;fill-opacity:1;fill-rule:nonzero;stroke-width:1;stroke-linecap:butt;stroke-linejoin:miter;stroke-miterlimit:4;stroke-dasharray:none;stroke-dashoffset:0;stroke-opacity:1;color-rendering:auto;image-rendering:auto;shape-rendering:auto;text-rendering:auto;enable-background:accumulate"
       height="1"
       y="-1088.363"
       x="302"
       width="30"
       inkscape:export-xdpi="96"
       inkscape:export-ydpi="96" />
    <rect
       transform="scale(1,-1)"
       id="rect7301-2"
       style="color:#000000;clip-rule:nonzero;display:inline;overflow:visible;visibility:visible;opacity:0.25;isolation:auto;mix-blend-mode:normal;color-interpolation:sRGB;color-interpolation-filters:linearRGB;solid-color:#000000;solid-opacity:1;fill:#000000;fill-opacity:1;fill-rule:nonzero;stroke-width:1;stroke-linecap:butt;stroke-linejoin:miter;stroke-miterlimit:4;stroke-dasharray:none;stroke-dashoffset:0;stroke-opacity:1;color-rendering:auto;image-rendering:auto;shape-rendering:auto;text-rendering:auto;enable-background:accumulate"
       height="1"
       y="-1145.363"
       x="302"
       width="44"
       inkscape:export-xdpi="96"
       inkscape:export-ydpi="96" />
    <path
       d="m 346,1101.3631 -14,-14 0,14 z"
       id="path7303-0"
       style="opacity:0.6;fill:#000000;fill-opacity:1;fill-rule:evenodd"
       inkscape:connector-curvature="0"
       inkscape:export-xdpi="96"
       inkscape:export-ydpi="96" />
    <path
       inkscape:connector-curvature="0"
       d="m 322,1106.3631 0,6 1,0 0,-6 -1,0 z m 4,2 0,3 1,0 0,-3 -1,0 z m -8,1 0,4 1,0 0,-4 -1,0 z m -3,5 0,7 c 0,3.324 2.676,6 6,6 l -5,0 0,1 14,0 0,-1 -5,0 c 2.62066,0 4.83109,-1.6671 5.65234,-4 l 1.84766,0 c 1.385,0 2.5,-1.115 2.5,-2.5 l 0,-2 c 0,-1.385 -1.115,-2.5 -2.5,-2.5 l -1.5,0 0,-2 -16,0 z m 1,1 14,0 0,1 0,1 0,4 c 0,2.77 -2.23,5 -5,5 l -4,0 c -2.77,0 -5,-2.23 -5,-5 l 0,-6 z m 15,2 1.5,0 0.17187,0 c 0.73579,0 1.32813,0.5924 1.32813,1.3281 l 0,2.3438 c 0,0.7358 -0.59234,1.3281 -1.32813,1.3281 l -0.17187,0 -1.58984,0 c 0.0543,-0.3256 0.0898,-0.6584 0.0898,-1 l 0,-4 z"
       id="path7307-7"
       style="opacity:0.7;fill:#000000;fill-opacity:1"
       inkscape:export-xdpi="96"
       inkscape:export-ydpi="96" />
    <path
       inkscape:connector-curvature="0"
       style="opacity:0.2;fill:url(#linearGradient9724-6);fill-rule:evenodd"
       id="path9702-6"
       d="m 332,1101.3631 14,14 0,-14 z"
       inkscape:export-xdpi="96"
       inkscape:export-ydpi="96" />
    <path
       d="m 302,1145.3631 0,-58 30,0 14,14 0,30 0,14 -14,0 -30,0 z"
       id="path7755-1"
       style="fill:url(#linearGradient7931-5);fill-opacity:1"
       inkscape:connector-curvature="0"
       inkscape:export-xdpi="96"
       inkscape:export-ydpi="96" />
  </g>
</svg>
