<?xml version="1.0" encoding="UTF-8" standalone="no"?>
<svg
   xmlns:dc="http://purl.org/dc/elements/1.1/"
   xmlns:cc="http://creativecommons.org/ns#"
   xmlns:rdf="http://www.w3.org/1999/02/22-rdf-syntax-ns#"
   xmlns:svg="http://www.w3.org/2000/svg"
   xmlns="http://www.w3.org/2000/svg"
   xmlns:xlink="http://www.w3.org/1999/xlink"
   xmlns:sodipodi="http://sodipodi.sourceforge.net/DTD/sodipodi-0.dtd"
   xmlns:inkscape="http://www.inkscape.org/namespaces/inkscape"
   width="64"
   version="1.1"
   viewBox="0 0 64 64"
   height="64"
   id="svg2"
   inkscape:version="0.91 r13725"
   sodipodi:docname="application-vnd.oasis.opendocument.web-template.svg">
  <sodipodi:namedview
     pagecolor="#ffffff"
     bordercolor="#666666"
     borderopacity="1"
     objecttolerance="10"
     gridtolerance="10"
     guidetolerance="10"
     inkscape:pageopacity="0"
     inkscape:pageshadow="2"
     inkscape:window-width="1920"
     inkscape:window-height="1025"
     id="namedview25"
     showgrid="false"
     inkscape:object-nodes="true"
     inkscape:zoom="1"
     inkscape:cx="44.87249"
     inkscape:cy="3.9829355"
     inkscape:window-x="0"
     inkscape:window-y="26"
     inkscape:window-maximized="1"
     inkscape:current-layer="svg2"
     inkscape:snap-bbox="true"
     inkscape:bbox-nodes="true">
    <inkscape:grid
       type="xygrid"
       id="grid4200" />
  </sodipodi:namedview>
  <defs
     id="defs4">
    <linearGradient
       id="linearGradient6251"
       inkscape:collect="always">
      <stop
         id="stop6253"
         offset="0"
         style="stop-color:#ffffff;stop-opacity:0" />
      <stop
         id="stop6255"
         offset="1"
         style="stop-color:#ffffff;stop-opacity:0.2" />
    </linearGradient>
    <linearGradient
       id="linearGradient9654"
       inkscape:collect="always">
      <stop
         id="stop9656"
         offset="0"
         style="stop-color:#060606;stop-opacity:1" />
      <stop
         id="stop9658"
         offset="1"
         style="stop-color:#000000;stop-opacity:0" />
    </linearGradient>
    <linearGradient
       inkscape:collect="always"
       xlink:href="#linearGradient6251"
       id="linearGradient5906"
       gradientUnits="userSpaceOnUse"
       gradientTransform="translate(-48,-332.36219)"
       x1="58"
       y1="392.36221"
       x2="58"
       y2="336.36221" />
    <linearGradient
       inkscape:collect="always"
       xlink:href="#linearGradient9654"
       id="linearGradient5904"
       gradientUnits="userSpaceOnUse"
       gradientTransform="translate(0,-5e-6)"
       x1="40"
       y1="17"
       x2="54"
       y2="31" />
  </defs>
  <metadata
     id="metadata84">
    <rdf:RDF>
      <cc:Work
         rdf:about="">
        <dc:format>image/svg+xml</dc:format>
        <dc:type
           rdf:resource="http://purl.org/dc/dcmitype/StillImage" />
      </cc:Work>
    </rdf:RDF>
  </metadata>
  <g
     id="g4305">
    <path
       inkscape:export-ydpi="96"
       inkscape:export-xdpi="96"
       inkscape:connector-curvature="0"
       style="color:#000000;clip-rule:nonzero;display:inline;overflow:visible;visibility:visible;opacity:1;isolation:auto;mix-blend-mode:normal;color-interpolation:sRGB;color-interpolation-filters:linearRGB;solid-color:#000000;solid-opacity:1;fill:#20598d;fill-opacity:1;fill-rule:nonzero;stroke-width:1;stroke-linecap:butt;stroke-linejoin:miter;stroke-miterlimit:4;stroke-dasharray:none;stroke-dashoffset:0;stroke-opacity:1;color-rendering:auto;image-rendering:auto;shape-rendering:auto;text-rendering:auto;enable-background:accumulate"
       id="path5856"
       d="m 10,61 0,-58.000005 30,0 L 54,17 l 0,30 0,14 -14,0 -30,0 z" />
    <path
       inkscape:connector-curvature="0"
       id="path5858"
       d="m 10,3.999995 0,1 2,0 0,2 -2,0 0,1 2,0 0,2 -2,0 0,1 2,0 0,2 -2,0 0,1 2,0 0,2 -2,0 L 10,17 l 2,0 0,2 -2,0 0,1 2,0 0,2 -2,0 0,1 1,0 1,0 0,1 0,1 -2,0 0,1 2,0 0,2 -2,0 0,1 2,0 0,2 -2,0 0,1 2,0 0,2 -2,0 0,1 2,0 0,2 -2,0 0,1 2,0 0,1 0,1 -2,0 0,1 1,0 1,0 0,1 0,1 -2,0 0,1 2,0 0,2 -2,0 0,1 2,0 0,2 -2,0 0,1 2,0 0,2 -2,0 0,1 2,0 0,2 -2,0 0,1 1,0 1,0 0,1 0,1 -2,0 0,1 2,0 0,2 1,0 0,-2 1,0 1,0 0,1 0,1 1,0 0,-2 2,0 0,2 1,0 0,-2 2,0 0,1 0,1 1,0 0,-2 2,0 0,2 1,0 0,-2 2,0 0,2 1,0 0,-2 2,0 0,2 1,0 0,-2 2,0 0,2 1,0 0,-2 2,0 0,2 1,0 0,-2 2,0 0,2 1,0 0,-2 1,0 1,0 0,2 1,0 0,-2 2,0 0,2 1,0 0,-2 2,0 0,2 1,0 0,-2 1,0 1,0 0,2 1,0 0,-2 2,0 0,-1 -2,0 0,-2 2,0 0,-1 -2,0 0,-2 2,0 0,-1 -2,0 0,-1 0,-1 2,0 0,-1 -2,0 0,-2 2,0 0,-1 -2,0 0,-2 2,0 0,-1 -2,0 0,-1 0,-1 2,0 0,-1 -2,0 0,-2 2,0 0,-1 -2,0 0,-2 2,0 0,-1 -2,0 0,-2 2,0 0,-1 -2,0 0,-2 2,0 0,-1 -2,0 0,-2 2,0 0,-1 -2,0 0,-2 2,0 0,-1 -2,0 0,-2 2,0 0,-1 -2,0 0,-2 2,0 -1,-1.000005 -1,0 0,-1 -1,-1 0,2 -2,0 0,-2 2,0 -1,-1 -1,0 0,-1 -1,-1 0,2 -1,0 -1,0 0,-2 1,0 1,0 -1,-1 -1,0 0,-1 -1,-1 0,2 -2,0 0,-2 2,0 -1,-1 -1,0 0,-1 -1,-1 0,2 -2,0 0,-2 2,0 -1,-1 -1,0 -1,0 -2,0 -1,0 -2,0 -1,0 -2,0 -1,0 -2,0 -1,0 -2,0 -1,0 -2,0 -1,0 -2,0 -1,0 -2,0 -1,0 -2,0 -1,0 -2,0 z m 3,1 2,0 0,2 -2,0 0,-2 z m 3,0 2,0 0,2 -2,0 0,-2 z m 3,0 2,0 0,2 -2,0 0,-2 z m 3,0 2,0 0,2 -2,0 0,-2 z m 3,0 2,0 0,2 -2,0 0,-2 z m 3,0 2,0 0,2 -2,0 0,-2 z m 3,0 2,0 0,2 -2,0 0,-2 z m 3,0 2,0 0,2 -2,0 0,-2 z m 3,0 2,0 0,2 -2,0 0,-2 z m -24,3 2,0 0,2 -2,0 0,-2 z m 3,0 2,0 0,2 -2,0 0,-2 z m 3,0 2,0 0,2 -2,0 0,-2 z m 3,0 2,0 0,2 -2,0 0,-2 z m 3,0 2,0 0,2 -2,0 0,-2 z m 3,0 2,0 0,2 -2,0 0,-2 z m 3,0 2,0 0,2 -2,0 0,-2 z m 3,0 2,0 0,2 -2,0 0,-2 z m 3,0 2,0 0,2 -2,0 0,-2 z m 3,0 2,0 0,2 -2,0 0,-2 z m -27,3 2,0 0,2 -2,0 0,-2 z m 3,0 2,0 0,2 -2,0 0,-2 z m 3,0 2,0 0,2 -2,0 0,-2 z m 3,0 2,0 0,2 -2,0 0,-2 z m 3,0 2,0 0,2 -2,0 0,-2 z m 3,0 2,0 0,2 -2,0 0,-2 z m 3,0 2,0 0,2 -2,0 0,-2 z m 3,0 2,0 0,2 -2,0 0,-2 z m 3,0 2,0 0,2 -2,0 0,-2 z m 3,0 2,0 0,2 -2,0 0,-2 z m 3,0 2,0 0,2 -2,0 0,-2 z m -30,3 2,0 0,2 -2,0 0,-2 z m 3,0 2,0 0,2 -2,0 0,-2 z m 3,0 2,0 0,2 -2,0 0,-2 z m 3,0 2,0 0,2 -2,0 0,-2 z m 3,0 2,0 0,2 -2,0 0,-2 z m 3,0 2,0 0,2 -2,0 0,-2 z m 3,0 2,0 0,2 -2,0 0,-2 z m 3,0 2,0 0,2 -2,0 0,-2 z m 3,0 2,0 0,2 -2,0 0,-2 z m 3,0 2,0 0,2 -2,0 0,-2 z m 3,0 2,0 0,2 -2,0 0,-2 z m 3,0 1,0 1,0 0,2 -1,0 -1,0 0,-2 z M 13,17 l 2,0 0,2 -2,0 0,-2 z m 3,0 1,0 1,0 0,1 0,1 -2,0 0,-2 z m 3,0 2,0 0,2 -2,0 0,-2 z m 3,0 2,0 0,2 -2,0 0,-2 z m 3,0 2,0 0,2 -2,0 0,-2 z m 3,0 2,0 0,2 -2,0 0,-2 z m 3,0 2,0 0,2 -2,0 0,-2 z m 3,0 2,0 0,2 -2,0 0,-2 z m 3,0 2,0 0,2 -2,0 0,-2 z m 3,0 2,0 0,2 -2,0 0,-2 z m 3,0 2,0 0,2 -2,0 0,-2 z m 3,0 1,0 1,0 0,2 -1,0 -1,0 0,-2 z m 3,0 2,0 0,2 -2,0 0,-2 z m -36,3 2,0 0,2 -2,0 0,-2 z m 3,0 2,0 0,2 -2,0 0,-2 z m 3,0 1,0 1,0 0,1 0,1 -2,0 0,-2 z m 3,0 2,0 0,2 -2,0 0,-2 z m 3,0 2,0 0,2 -2,0 0,-2 z m 3,0 2,0 0,2 -2,0 0,-2 z m 3,0 2,0 0,2 -2,0 0,-2 z m 3,0 2,0 0,2 -2,0 0,-2 z m 3,0 2,0 0,2 -2,0 0,-2 z m 3,0 2,0 0,2 -2,0 0,-2 z m 3,0 2,0 0,2 -2,0 0,-2 z m 3,0 1,0 1,0 0,2 -1,0 -1,0 0,-2 z m 3,0 2,0 0,2 -2,0 0,-2 z m -36,3 2,0 0,2 -2,0 0,-2 z m 3,0 2,0 0,2 -2,0 0,-2 z m 3,0 2,0 0,2 -2,0 0,-2 z m 3,0 1,0 1,0 0,1 0,1 -2,0 0,-2 z m 3,0 2,0 0,2 -2,0 0,-2 z m 3,0 2,0 0,2 -2,0 0,-2 z m 3,0 2,0 0,2 -2,0 0,-2 z m 3,0 2,0 0,2 -2,0 0,-2 z m 3,0 2,0 0,2 -2,0 0,-2 z m 3,0 2,0 0,2 -2,0 0,-2 z m 3,0 2,0 0,2 -2,0 0,-2 z m 3,0 1,0 1,0 0,2 -1,0 -1,0 0,-2 z m 3,0 2,0 0,2 -2,0 0,-2 z m -36,3 2,0 0,2 -2,0 0,-2 z m 3,0 2,0 0,2 -2,0 0,-2 z m 3,0 2,0 0,2 -2,0 0,-2 z m 3,0 2,0 0,2 -2,0 0,-2 z m 3,0 2,0 0,2 -2,0 0,-2 z m 3,0 2,0 0,2 -2,0 0,-2 z m 3,0 2,0 0,2 -2,0 0,-2 z m 3,0 2,0 0,1 0,1 -1,0 -1,0 0,-2 z m 3,0 2,0 0,1 0,1 -2,0 0,-2 z m 3,0 2,0 0,1 0,1 -1,0 -1,0 0,-2 z m 3,0 2,0 0,2 -1,0 -1,0 0,-2 z m 3,0 1,0 1,0 0,1 0,1 -1,0 -1,0 0,-2 z m 3,0 2,0 0,1 0,1 -1,0 -1,0 0,-2 z m -36,3 2,0 0,2 -2,0 0,-2 z m 3,0 2,0 0,2 -2,0 0,-2 z m 3,0 2,0 0,2 -2,0 0,-2 z m 3,0 2,0 0,2 -2,0 0,-2 z m 3,0 2,0 0,2 -2,0 0,-2 z m 3,0 2,0 0,2 -2,0 0,-2 z m 3,0 2,0 0,2 -2,0 0,-2 z m 3,0 1,0 1,0 0,2 -1,0 -1,0 0,-2 z m 3,0 2,0 0,2 -2,0 0,-2 z m 3,0 1,0 1,0 0,2 -1,0 -1,0 0,-2 z m 3,0 1,0 1,0 0,2 -1,0 -1,0 0,-2 z m 3,0 1,0 1,0 0,2 -1,0 -1,0 0,-2 z m 3,0 1,0 1,0 0,2 -1,0 -1,0 0,-2 z m -36,3 2,0 0,2 -2,0 0,-2 z m 3,0 1,0 1,0 0,1 0,1 -2,0 0,-2 z m 3,0 2,0 0,2 -2,0 0,-2 z m 3,0 2,0 0,2 -2,0 0,-2 z m 3,0 2,0 0,2 -2,0 0,-2 z m 3,0 2,0 0,2 -2,0 0,-2 z m 3,0 2,0 0,2 -2,0 0,-2 z m 3,0 1,0 1,0 0,2 -1,0 -1,0 0,-2 z m 3,0 2,0 0,2 -2,0 0,-2 z m 3,0 1,0 1,0 0,2 -1,0 -1,0 0,-2 z m 3,0 1,0 1,0 0,2 -1,0 -1,0 0,-2 z m 3,0 1,0 1,0 0,2 -1,0 -1,0 0,-2 z m 3,0 1,0 1,0 0,2 -1,0 -1,0 0,-2 z m -36,3 2,0 0,2 -2,0 0,-2 z m 3,0 2,0 0,2 -2,0 0,-2 z m 3,0 1,0 1,0 0,1 0,1 -2,0 0,-2 z m 3,0 2,0 0,2 -2,0 0,-2 z m 3,0 2,0 0,2 -2,0 0,-2 z m 3,0 2,0 0,2 -2,0 0,-2 z m 3,0 2,0 0,2 -2,0 0,-2 z m 3,0 1,0 1,0 0,2 -1,0 -1,0 0,-2 z m 3,0 2,0 0,2 -2,0 0,-2 z m 3,0 1,0 1,0 0,2 -1,0 -1,0 0,-2 z m 3,0 1,0 1,0 0,2 -1,0 -1,0 0,-2 z m 3,0 1,0 1,0 0,2 -1,0 -1,0 0,-2 z m 3,0 1,0 1,0 0,2 -1,0 -1,0 0,-2 z m -36,3 2,0 0,2 -2,0 0,-2 z m 3,0 2,0 0,2 -2,0 0,-2 z m 3,0 2,0 0,1 0,1 -2,0 0,-1 0,-1 z m 3,0 1,0 1,0 0,1 0,1 -2,0 0,-1 0,-1 z m 3,0 2,0 0,1 0,1 -2,0 0,-1 0,-1 z m 3,0 2,0 0,1 0,1 -2,0 0,-1 0,-1 z m 3,0 2,0 0,1 0,1 -2,0 0,-1 0,-1 z m 3,0 1,0 1,0 0,1 0,1 -1,0 -1,0 0,-1 0,-1 z m 3,0 2,0 0,1 0,1 -2,0 0,-1 0,-1 z m 3,0 1,0 1,0 0,1 0,1 -1,0 -1,0 0,-1 0,-1 z m 3,0 1,0 1,0 0,1 0,1 -1,0 -1,0 0,-1 0,-1 z m 3,0 1,0 1,0 0,2 -1,0 -1,0 0,-1 0,-1 z m 3,0 1,0 1,0 0,2 -1,0 -1,0 0,-2 z m -36,3 2,0 0,2 -2,0 0,-2 z m 3,0 2,0 0,1 0,1 -2,0 0,-2 z m 3,0 2,0 0,1 0,1 -2,0 0,-2 z m 3,0 2,0 0,1 0,1 -2,0 0,-1 0,-1 z m 3,0 2,0 0,1 0,1 -2,0 0,-1 0,-1 z m 3,0 2,0 0,1 0,1 -2,0 0,-1 0,-1 z m 3,0 2,0 0,1 0,1 -2,0 0,-1 0,-1 z m 3,0 1,0 1,0 0,1 0,1 -2,0 0,-1 0,-1 z m 3,0 2,0 0,1 0,1 -2,0 0,-1 0,-1 z m 3,0 1,0 1,0 0,1 0,1 -1,0 -1,0 0,-1 0,-1 z m 3,0 1,0 1,0 0,1 0,1 -2,0 0,-1 0,-1 z m 3,0 1,0 1,0 0,1 0,1 -2,0 0,-1 0,-1 z m 3,0 1,0 1,0 0,1 0,1 -1,0 -1,0 0,-1 0,-1 z m -36,3 1,0 1,0 0,1 0,1 -2,0 0,-2 z m 3,0 2,0 0,2 -2,0 0,-2 z m 3,0 2,0 0,1 0,1 -2,0 0,-2 z m 3,0 2,0 0,2 -2,0 0,-2 z m 3,0 2,0 0,2 -2,0 0,-2 z m 3,0 2,0 0,2 -2,0 0,-2 z m 3,0 2,0 0,2 -2,0 0,-2 z m 3,0 2,0 0,2 -2,0 0,-2 z m 3,0 2,0 0,2 -2,0 0,-2 z m 3,0 1,0 1,0 0,2 -1,0 -1,0 0,-2 z m 3,0 2,0 0,2 -2,0 0,-2 z m 3,0 2,0 0,2 -2,0 0,-2 z m 3,0 1,0 1,0 0,2 -1,0 -1,0 0,-2 z m -36,3 2,0 0,2 -2,0 0,-2 z m 3,0 1,0 1,0 0,1 0,1 -2,0 0,-2 z m 3,0 2,0 0,2 -2,0 0,-2 z m 3,0 2,0 0,1 0,1 -2,0 0,-2 z m 3,0 2,0 0,2 -2,0 0,-2 z m 3,0 2,0 0,2 -2,0 0,-2 z m 3,0 2,0 0,2 -2,0 0,-2 z m 3,0 2,0 0,2 -2,0 0,-2 z m 3,0 2,0 0,2 -2,0 0,-2 z m 3,0 1,0 1,0 0,2 -1,0 -1,0 0,-2 z m 3,0 2,0 0,2 -2,0 0,-2 z m 3,0 2,0 0,2 -2,0 0,-2 z m 3,0 1,0 1,0 0,2 -1,0 -1,0 0,-2 z m -36,3 2,0 0,2 -2,0 0,-2 z m 3,0 2,0 0,2 -2,0 0,-2 z m 3,0 2,0 0,2 -2,0 0,-2 z m 3,0 2,0 0,2 -2,0 0,-2 z m 3,0 2,0 0,2 -2,0 0,-2 z m 3,0 2,0 0,2 -2,0 0,-2 z m 3,0 2,0 0,2 -2,0 0,-2 z m 3,0 2,0 0,2 -2,0 0,-2 z m 3,0 2,0 0,2 -2,0 0,-2 z m 3,0 1,0 1,0 0,1 0,1 -1,0 -1,0 0,-2 z m 3,0 2,0 0,1 0,1 -2,0 0,-1 0,-1 z m 3,0 2,0 0,1 0,1 -2,0 0,-1 0,-1 z m 3,0 1,0 1,0 0,1 0,1 -1,0 -1,0 0,-1 0,-1 z m -36,3 2,0 0,2 -2,0 0,-2 z m 3,0 2,0 0,2 -2,0 0,-2 z m 3,0 2,0 0,2 -2,0 0,-2 z m 3,0 2,0 0,2 -2,0 0,-2 z m 3,0 2,0 0,2 -2,0 0,-2 z m 3,0 2,0 0,2 -2,0 0,-2 z m 3,0 2,0 0,2 -2,0 0,-2 z m 3,0 2,0 0,2 -2,0 0,-2 z m 3,0 2,0 0,2 -2,0 0,-2 z m 3,0 1,0 1,0 0,2 -1,0 -1,0 0,-2 z m 3,0 2,0 0,2 -2,0 0,-2 z m 3,0 2,0 0,2 -2,0 0,-2 z m 3,0 1,0 1,0 0,2 -1,0 -1,0 0,-2 z m -36,3 2,0 0,2 -2,0 0,-2 z m 3,0 2,0 0,1 0,1 -2,0 0,-2 z m 3,0 2,0 0,2 -2,0 0,-2 z m 3,0 2,0 0,2 -2,0 0,-2 z m 3,0 2,0 0,2 -2,0 0,-2 z m 3,0 2,0 0,2 -2,0 0,-2 z m 3,0 2,0 0,2 -2,0 0,-2 z m 3,0 2,0 0,2 -2,0 0,-2 z m 3,0 2,0 0,2 -2,0 0,-2 z m 3,0 1,0 1,0 0,2 -1,0 -1,0 0,-2 z m 3,0 2,0 0,2 -2,0 0,-2 z m 3,0 2,0 0,2 -2,0 0,-2 z m 3,0 1,0 1,0 0,2 -1,0 -1,0 0,-2 z"
       style="color:#000000;display:inline;opacity:0.1;color-interpolation:sRGB;color-interpolation-filters:linearRGB;fill:#ffffff;fill-opacity:1;color-rendering:auto;image-rendering:auto;shape-rendering:auto;text-rendering:auto" />
    <rect
       inkscape:export-ydpi="96"
       inkscape:export-xdpi="96"
       width="30"
       x="10"
       y="-3.9999771"
       height="1"
       style="color:#000000;clip-rule:nonzero;display:inline;overflow:visible;visibility:visible;opacity:0.5;isolation:auto;mix-blend-mode:normal;color-interpolation:sRGB;color-interpolation-filters:linearRGB;solid-color:#000000;solid-opacity:1;fill:#ffffff;fill-opacity:1;fill-rule:nonzero;stroke-width:1;stroke-linecap:butt;stroke-linejoin:miter;stroke-miterlimit:4;stroke-dasharray:none;stroke-dashoffset:0;stroke-opacity:1;color-rendering:auto;image-rendering:auto;shape-rendering:auto;text-rendering:auto;enable-background:accumulate"
       id="rect5860"
       transform="scale(1,-1)" />
    <rect
       inkscape:export-ydpi="96"
       inkscape:export-xdpi="96"
       width="44"
       x="10"
       y="-60.999977"
       height="1"
       style="color:#000000;clip-rule:nonzero;display:inline;overflow:visible;visibility:visible;opacity:0.25;isolation:auto;mix-blend-mode:normal;color-interpolation:sRGB;color-interpolation-filters:linearRGB;solid-color:#000000;solid-opacity:1;fill:#000000;fill-opacity:1;fill-rule:nonzero;stroke-width:1;stroke-linecap:butt;stroke-linejoin:miter;stroke-miterlimit:4;stroke-dasharray:none;stroke-dashoffset:0;stroke-opacity:1;color-rendering:auto;image-rendering:auto;shape-rendering:auto;text-rendering:auto;enable-background:accumulate"
       id="rect5862"
       transform="scale(1,-1)" />
    <path
       inkscape:export-ydpi="96"
       inkscape:export-xdpi="96"
       inkscape:connector-curvature="0"
       style="color:#000000;clip-rule:nonzero;display:inline;overflow:visible;visibility:visible;opacity:1;isolation:auto;mix-blend-mode:normal;color-interpolation:sRGB;color-interpolation-filters:linearRGB;solid-color:#000000;solid-opacity:1;fill:#80adff;fill-opacity:1;fill-rule:nonzero;stroke-width:1;stroke-linecap:butt;stroke-linejoin:miter;stroke-miterlimit:4;stroke-dasharray:none;stroke-dashoffset:0;stroke-opacity:1;color-rendering:auto;image-rendering:auto;shape-rendering:auto;text-rendering:auto;enable-background:accumulate"
       id="path5864"
       d="M 54,17 40,2.999995 40,17 Z" />
    <path
       inkscape:export-ydpi="96"
       inkscape:export-xdpi="96"
       d="M 40,17 54,31 54,17 Z"
       id="path5866"
       style="opacity:0.2;fill:url(#linearGradient5904);fill-rule:evenodd"
       inkscape:connector-curvature="0" />
    <path
       inkscape:export-ydpi="96"
       inkscape:export-xdpi="96"
       inkscape:connector-curvature="0"
       style="opacity:0.7;fill:url(#linearGradient5906);fill-opacity:1"
       id="path5870"
       d="m 10,61 0,-58.000005 30,0 L 54,17 l 0,30 0,14 -14,0 -30,0 z" />
    <path
       inkscape:connector-curvature="0"
       style="color:#000000;clip-rule:nonzero;display:inline;overflow:visible;visibility:visible;opacity:1;isolation:auto;mix-blend-mode:normal;color-interpolation:sRGB;color-interpolation-filters:linearRGB;solid-color:#000000;solid-opacity:1;fill:#80adff;fill-opacity:1;fill-rule:nonzero;stroke-width:1;stroke-linecap:butt;stroke-linejoin:miter;stroke-miterlimit:4;stroke-dasharray:none;stroke-dashoffset:0;stroke-opacity:1;color-rendering:auto;image-rendering:auto;shape-rendering:auto;text-rendering:auto;enable-background:accumulate"
       id="path26-4"
       d="m 32,21.999997 c -6.094,0 -11,4.906 -11,11 0,6.094 4.906,11 11,11 6.094,0 11,-4.906 11,-11 0,-6.094 -4.906,-11 -11,-11 z m 0,1 c 1.66162,0 3.22154,0.4079 4.59766,1.11914 0.004,0.0397 0.003,0.069 0,0.11328 0.058,0.026 0.0915,0.13352 0.18945,0.1875 0.036,0.02 0.0598,0.0289 0.0937,0.0469 0.058,0.032 0.10575,0.0846 0.0937,0.14063 -0.016,0.082 -0.13151,0.0787 -0.1875,0.13867 0.008,0.11596 -0.0637,0.11148 -0.0937,0.18945 0.018,0.05 0.0858,0.0338 0.0937,0.0937 -0.01,0.064 -0.11775,0.0727 -0.0937,0.13867 0.10799,0.084 0.22613,0.014 0.32812,0 0.22399,-0.028 0.42256,0.0142 0.56055,-0.0937 -0.018,-0.10596 0.15262,-0.1384 0.14063,-0.23437 -0.01,-0.072 -0.13351,-0.0887 -0.1875,-0.13867 -0.0121,-0.0113 -0.0276,-0.0394 -0.041,-0.0606 0.16501,0.10841 0.3225,0.226 0.48046,0.34375 -0.0389,0.0317 -0.0711,0.0717 -0.11132,0.0898 -0.042,0.018 -0.10263,0.0229 -0.14063,0.0469 -0.056,0.038 -0.0766,0.0967 -0.14062,0.13867 -0.046,0.032 -0.18638,0.14062 -0.23438,0.14062 -0.058,0 -0.1455,-0.0589 -0.1875,-0.0449 -0.06,0.018 -0.0258,0.11468 -0.0937,0.13868 -0.13199,0.048 -0.37588,-0.10419 -0.42187,0.0937 0.056,0.11396 0.22813,0.0787 0.32812,0.14062 0.062,0.04 0.1715,0.21327 0.1875,0.28125 0.016,0.056 0.024,0.26815 0,0.32813 -0.062,0.15994 -0.23789,0.14462 -0.42187,0.14062 -0.05,0 -0.0946,0.004 -0.14063,0 -0.30997,-0.02 -0.60806,-0.12818 -0.74805,0.0937 0.01,0.16994 0.038,0.27393 0,0.42188 -0.028,0.10796 -0.14662,0.18728 -0.14062,0.28125 0.002,0.048 0.0817,0.12152 0.0937,0.1875 0.008,0.036 -0.016,0.10864 0,0.14062 0.052,0.098 0.18926,-0.016 0.28125,0 0.088,0.014 0.18945,0.13641 0.18945,0.23438 0,0.07 -0.0517,0.21327 -0.0957,0.28125 -0.088,0.13195 -0.24901,0.11552 -0.375,0.1875 -0.10399,0.06 -0.1255,0.17923 -0.1875,0.2832 -0.066,0.11196 -0.11975,0.16818 -0.0937,0.32812 -0.09,0.17794 -0.19097,0.28903 -0.37695,0.375 -0.054,0.024 -0.1375,0.0578 -0.1875,0.0937 -0.04,0.028 -0.0846,0.0766 -0.14063,0.14063 -0.07,0.078 -0.1495,0.12752 -0.1875,0.1875 -0.028,0.046 -0.0169,0.12552 -0.0469,0.1875 -0.044,0.084 -0.13151,0.1504 -0.1875,0.23437 -0.026,0.04 -0.0658,0.0886 -0.0937,0.14063 -0.064,0.11596 -0.15263,0.22616 -0.14063,0.32812 0.01,0.098 0.13463,0.10153 0.14063,0.1875 0.006,0.048 -0.0489,0.0867 -0.0469,0.13868 0.002,0.076 0.0409,0.12947 0.0469,0.18945 0.014,0.14795 -0.0658,0.17928 -0.0937,0.28125 -0.014,0.048 0.012,0.10264 0,0.14062 -0.024,0.074 -0.13863,0.14446 -0.14063,0.23243 -0.002,0.062 0.0877,0.10148 0.0937,0.18945 0.004,0.06 -0.0569,0.13152 -0.0449,0.1875 0.022,0.10797 0.24413,0.24415 0.32812,0.32812 0.114,0.11397 0.23126,0.20817 0.28125,0.32813 0.042,0.10197 0.0627,0.25215 0.14063,0.32812 0.058,0.056 0.16038,0.0807 0.23437,0.13868 0.07,0.054 0.15843,0.0826 0.23243,0.14062 0.12199,0.096 0.27476,0.29525 0.46875,0.28125 0.10199,-0.008 0.21413,-0.0738 0.32812,-0.0937 0.11799,-0.02 0.25501,-0.0569 0.375,-0.0449 0.092,0.01 0.18721,0.0509 0.2832,0.0449 0.1,-0.006 0.21414,-0.0438 0.32813,-0.0937 0.19798,-0.086 0.50695,-0.22949 0.79492,-0.1875 0.21998,0.032 0.22297,0.27703 0.37695,0.375 0.17599,0.016 0.32681,-0.034 0.4668,0 0.106,0.026 0.22438,0.19923 0.23438,0.2832 0.01,0.086 -0.0817,0.17844 -0.0937,0.23243 -0.028,0.11596 -0.0269,0.25415 -0.0469,0.32812 -0.016,0.058 -0.0469,0.12952 -0.0449,0.1875 0,0.052 0.0866,0.1664 0.14062,0.23438 0.066,0.084 0.15243,0.1424 0.23242,0.23437 0.14599,0.16794 0.22614,0.38745 0.32813,0.60938 0.026,0.056 -0.024,0.0706 0,0.14062 -0.044,0.33589 -0.15502,0.56563 -0.375,0.9375 -0.10399,0.11996 -0.23638,0.27193 -0.23438,0.42188 -0.008,0.35987 0.2035,0.54079 0.1875,0.88867 -0.036,0.46784 -0.009,0.54696 -0.0449,0.79687 0.15799,0.08 0.0909,0.30086 0.0449,0.4668 -0.068,0.19793 -0.1495,0.245 -0.1875,0.37695 0.12387,0.0536 0.25991,0.0405 0.39844,0.006 -1.82193,1.94193 -4.40774,3.15818 -7.29298,3.15818 -1.22772,0 -2.39757,-0.22958 -3.48242,-0.63086 -0.0398,-0.0158 -0.0838,-0.0248 -0.12305,-0.0469 -0.062,-0.036 -0.10175,-0.11153 -0.0937,-0.1875 0.104,-0.044 0.30096,0.0991 0.37695,-0.0469 0.038,-0.07 -0.05,-0.21127 0,-0.28125 0.036,-0.048 0.25414,-0.0817 0.32813,-0.0937 0.10599,-0.018 0.22125,-0.009 0.28125,-0.0469 0.066,-0.042 0.15262,-0.15729 0.14062,-0.28125 -0.006,-0.058 -0.0478,-0.0886 -0.0937,-0.14062 -0.038,-0.044 -0.0209,-0.0987 -0.0469,-0.13868 -0.048,-0.07 -0.12062,-0.0855 -0.14062,-0.1875 0.14399,-0.028 0.35452,0.15173 0.5625,0.0937 0.098,-0.028 0.23525,-0.23615 0.28125,-0.32812 0.014,-0.028 -0.016,-0.10663 0,-0.14063 0.018,-0.038 0.0897,-0.0737 0.0957,-0.0937 0.014,-0.054 -0.012,-0.0598 0,-0.0937 0.036,-0.10196 0.1275,-0.1604 0.1875,-0.23437 0.046,-0.056 0.0986,-0.12952 0.14062,-0.1875 0.048,-0.062 0.0618,-0.0866 0.0937,-0.14063 0.03,-0.18193 -0.0909,-0.30685 -0.0469,-0.46679 0.048,-0.17994 0.29477,-0.29498 0.46875,-0.37696 0.06,-0.028 0.13751,-0.0757 0.1875,-0.0937 0.11999,-0.042 0.26301,-0.0538 0.375,-0.0937 0.18799,-0.068 0.23613,-0.24993 0.32813,-0.42187 0.044,-0.08 0.0877,-0.1764 0.0957,-0.23438 0.008,-0.052 -0.01,-0.0787 0,-0.13867 0.01,-0.06 0.0289,-0.12347 0.0449,-0.18945 0.022,-0.086 0.0469,-0.23021 0.0469,-0.32617 0,-0.08 -0.0449,-0.11748 -0.0469,-0.18946 -0.014,-0.25991 0.0915,-0.27992 0.1875,-0.42187 0.048,-0.07 0.0598,-0.18244 0.0937,-0.23242 0.16198,-0.23992 0.44187,-0.34121 0.42187,-0.70508 -0.008,-0.11996 -0.0507,-0.38389 -0.13867,-0.42188 -0.05,-0.022 -0.16038,-0.0169 -0.23437,-0.0449 -0.23599,-0.088 -0.41028,-0.35695 -0.65625,-0.37695 -0.052,-0.002 -0.0826,0.002 -0.14063,0 -0.096,-0.002 -0.21818,-0.0817 -0.32617,-0.0937 -0.068,-0.008 -0.19438,0.02 -0.23438,0 -0.062,-0.03 -0.0438,-0.15351 -0.0937,-0.1875 -0.04,-0.028 -0.12746,-0.0249 -0.18945,-0.0469 -0.098,-0.038 -0.16726,-0.0858 -0.28125,-0.0937 -0.036,-0.002 -0.10063,0.006 -0.14062,0 -0.062,-0.01 -0.12951,-0.0578 -0.1875,-0.0937 -0.072,-0.044 -0.11063,-0.0767 -0.14063,-0.13867 0.066,-0.21593 -0.1435,-0.251 -0.1875,-0.37695 -0.02,-0.058 0.02,-0.13552 0,-0.1875 -0.026,-0.074 -0.10551,-0.12552 -0.1875,-0.1875 -0.14399,-0.11197 -0.26277,-0.20839 -0.46875,-0.23438 -0.092,-0.01 -0.21813,0.008 -0.32812,0 -0.116,-0.008 -0.24014,-0.0875 -0.32813,-0.1875 -0.084,-0.098 -0.11351,-0.18839 -0.1875,-0.23437 -0.07,-0.044 -0.18638,-0.0478 -0.23437,-0.0937 -0.022,-0.02 -0.0249,-0.0478 -0.0449,-0.0937 -0.036,-0.072 -0.0909,-0.10149 -0.0469,-0.18946 -0.08,-0.04 -0.0527,0.0629 -0.13868,0.0469 -0.078,-0.10996 -0.15214,-0.17461 -0.32812,-0.14062 -0.08,0.016 -0.14039,0.13862 -0.23438,0.14062 -0.078,0.002 -0.13238,-0.12663 -0.23437,-0.14062 -0.078,-0.01 -0.18038,0.0589 -0.23438,0.0469 -0.086,-0.016 -0.1095,-0.0886 -0.1875,-0.14063 -0.058,-0.038 -0.1555,-0.14067 -0.1875,-0.13867 -0.1,0.002 -0.19013,0.21265 -0.32812,0.13867 -0.068,-0.086 0.12492,-0.10753 0.0449,-0.1875 -0.06,-0.06 -0.0907,0.0149 -0.13867,0.0469 -0.056,0.038 -0.12551,0.0718 -0.1875,0.0937 -0.13799,0.052 -0.22014,0.0378 -0.32813,0.0937 -0.1,0.052 -0.13146,0.13241 -0.18945,0.23438 -0.046,0.084 -0.11751,0.22842 -0.1875,0.23242 -0.084,0.006 -0.15838,-0.10669 -0.23438,-0.13867 -0.22998,-0.1 -0.37056,0.0429 -0.56054,0.0449 -0.17599,0.002 -0.42988,-0.25593 -0.42188,-0.42188 0.006,-0.10196 0.0817,-0.24904 0.0937,-0.375 0.01,-0.1 0.0918,-0.19123 0.0937,-0.2832 0.002,-0.12196 -0.20321,-0.21842 -0.2832,-0.23242 -0.18799,-0.034 -0.44032,0.084 -0.6543,0 -0.04,-0.068 0.0697,-0.12348 0.0937,-0.18946 0.014,-0.038 -0.014,-0.0518 0,-0.0937 0.024,-0.064 0.10868,-0.11952 0.13867,-0.1875 0.022,-0.052 0.0249,-0.12352 0.0469,-0.1875 0.026,-0.072 0.0878,-0.13551 0.0937,-0.1875 0.008,-0.068 -0.0397,-0.14546 -0.0937,-0.18945 -0.16598,0.01 -0.28096,0.003 -0.37695,0.0469 -0.21598,0.098 -0.15702,0.40078 -0.375,0.46875 -0.074,0.024 -0.19726,0.0309 -0.28125,0.0449 -0.0366,0.007 -0.0781,0.0131 -0.11914,0.0234 0.13967,-0.72599 0.35587,-1.42386 0.64258,-2.08398 0.0481,-2e-5 0.098,-0.006 0.13086,0 0.076,0.014 0.12346,0.0877 0.18945,0.0937 0.18399,0.014 0.22301,-0.15441 0.375,-0.23438 0.15599,0.022 0.23496,-0.016 0.37695,0 0.096,0.01 0.20526,0.13463 0.28125,0.14063 0.064,0.002 0.0806,-0.0569 0.14063,-0.0469 0.06,0.01 0.1775,0.11552 0.1875,0.1875 0.01,0.09 -0.0729,0.18323 -0.0469,0.2832 0.094,0.096 0.28788,0.13152 0.42187,0.1875 0.088,-0.072 0.014,-0.22416 0,-0.32813 -0.002,-0.046 0.006,-0.0986 0,-0.14062 -0.01,-0.072 -0.0449,-0.12552 -0.0449,-0.1875 0,-0.2859 0.22989,-0.40366 0.42188,-0.51563 0.082,-0.048 0.16238,-0.15151 0.23437,-0.1875 0.10199,-0.05 0.15038,-0.0458 0.23438,-0.0937 0.15198,-0.086 0.30388,-0.18523 0.42187,-0.2832 0.054,-0.12995 -0.006,-0.29392 0,-0.42187 0.054,-0.034 0.0807,0.006 0.13868,0 0.092,-0.02 0.13745,-0.13552 0.18945,-0.1875 0.03,-0.03 0.10268,-0.0638 0.13867,-0.0937 0.092,-0.072 0.10751,-0.15551 0.1875,-0.1875 0.028,-0.01 0.0966,-0.0349 0.14063,-0.0469 0.06,-0.016 0.13838,-0.0598 0.23437,-0.0937 0.062,-0.022 0.21038,-0.0209 0.23438,-0.0449 0.03,-0.03 -0.008,-0.14347 0,-0.18946 0.048,-0.22592 0.40739,-0.25019 0.60937,-0.32617 0.13999,-0.054 0.26589,-0.17061 0.42188,-0.14062 -0.03,0.10796 -0.16663,0.10441 -0.14063,0.23437 0.034,0.18194 0.26413,-0.0678 0.32813,-0.0937 0.12198,-0.052 0.35563,-0.0826 0.51562,-0.14062 0.13999,-0.05 0.36636,-0.11931 0.23438,-0.28125 -0.11,-0.008 -0.13839,0.0987 -0.23438,0.13867 -0.066,0.01 -0.0827,-0.0409 -0.13867,-0.0449 -0.054,-0.002 -0.0866,0.0549 -0.14063,0.0449 -0.054,-0.01 -0.13262,-0.12352 -0.14062,-0.1875 -0.022,-0.16794 0.16638,-0.20417 0.23437,-0.32813 -0.046,-0.15195 -0.24701,-0.0338 -0.375,-0.0937 0.014,-0.09 0.0815,-0.1695 0.1875,-0.1875 0.086,-0.014 0.27613,0.003 0.32813,0.0449 0.03,0.026 -0.001,0.0986 0.0449,0.14063 0.052,0.046 0.12146,0.01 0.18945,0 0.024,-0.11396 -0.16062,-0.0666 -0.14062,-0.14063 0.13598,-0.088 0.39651,-0.0229 0.5625,-0.0449 0.096,-0.014 0.19525,-0.0946 0.28125,-0.14062 0.08,-0.046 0.15038,-0.1209 0.23437,-0.0449 0.024,0.082 -0.0478,0.14551 -0.0937,0.1875 -0.15399,0.13595 -0.30189,0.26393 -0.42187,0.42187 0.074,0.072 0.20413,0.0309 0.32812,0.0449 0.048,0.006 0.0887,0.0389 0.13867,0.0469 0.06,0.01 0.14146,-0.01 0.18946,0 0.084,0.02 0.1035,0.14063 0.1875,0.14063 0.13599,0 0.12292,-0.14241 0.0449,-0.23438 0.024,-0.094 0.0809,-0.16839 0.0469,-0.23437 -0.062,-0.12396 -0.31613,0.0173 -0.32813,-0.14063 -0.008,-0.1 0.10463,-0.11152 0.14063,-0.1875 -0.016,-0.19193 0.15867,-0.20106 0.13867,-0.375 -0.01,-0.072 -0.0887,-0.0726 -0.13867,-0.14062 -0.026,-0.036 -0.0169,-0.11464 -0.0469,-0.14063 -0.10399,-0.088 -0.31613,-0.0645 -0.32813,-0.23242 -0.006,-0.1 0.014,-0.17524 0,-0.2832 -0.014,-0.10197 -0.0995,-0.40188 -0.1875,-0.42188 -0.11199,-0.024 -0.19414,0.1724 -0.32812,0.23438 -0.072,0.034 -0.20726,0.0609 -0.28125,0.0469 -0.048,-0.01 -0.13463,-0.0486 -0.14063,-0.14063 -0.01,-0.10596 0.0738,-0.12241 0.0937,-0.23437 0.86156,-0.24045 1.76671,-0.37891 2.70703,-0.37891 z m -4.0332,0.84766 c -0.0288,0.4113 -0.39569,0.62441 -0.82813,0.61328 -0.092,0.088 -0.0438,0.25304 -0.0937,0.375 -0.042,0.10196 -0.17926,0.19745 -0.28125,0.18945 -0.074,-0.006 -0.1875,-0.11948 -0.1875,-0.18945 0,-0.086 0.11892,-0.13446 0.0449,-0.23242 0.003,-0.0205 0.03,-0.0412 0.0508,-0.0625 0.41353,-0.26035 0.8431,-0.49489 1.29492,-0.69336 z m 8.34765,0.47656 c -0.0368,0.007 -0.0573,0.0258 -0.0898,0.0449 -0.076,0.046 -0.0826,0.11863 -0.14062,0.14062 -0.082,0.03 -0.1755,0.0198 -0.1875,0.0937 -0.01,0.062 0.0489,0.0827 0.0469,0.13868 -0.03,0.074 -0.0777,0.0975 -0.0937,0.1875 0.10199,0.16594 0.34081,-0.009 0.46679,-0.0449 0.056,-0.016 0.11063,-0.003 0.14063,-0.0469 0.034,-0.054 0.0189,-0.15645 0.0449,-0.23243 0.028,-0.084 0.10376,-0.0667 0.0937,-0.14062 -0.008,-0.074 -0.15726,-0.15262 -0.28125,-0.14063 z m -10.94726,1.19336 c 0.0973,0.0498 0.26147,0.27497 0.0742,0.35547 -0.02,0.01 -0.28013,0.0549 -0.32813,0.0449 -0.0387,-0.006 -0.0709,-0.0411 -0.10351,-0.0762 0.11496,-0.11227 0.23714,-0.21759 0.35742,-0.32422 z m 0.35351,0.44726 c 0.048,0.002 0.0846,0.0897 0.14063,0.0937 0.054,0.004 0.10862,-0.0569 0.14062,-0.0469 0.084,0.022 0.12492,0.1724 0.0449,0.23438 -0.066,0.008 -0.0907,-0.0549 -0.13867,-0.0449 -0.13599,0.024 -0.18121,0.28925 -0.2832,0.28125 -0.096,-0.01 -0.14292,-0.21127 -0.0449,-0.28125 0.002,-0.06 -0.0509,-0.0806 -0.0469,-0.14063 0.03,-0.038 0.1075,-0.0998 0.1875,-0.0937 l 0,-0.002 z m -0.46679,0.0469 c 0.028,0 0.0349,-0.012 0.0449,0 -0.014,0.10596 -0.0567,0.13947 -0.13868,0.18946 -0.14198,0.086 -0.2372,0.19106 -0.2832,0.375 -0.014,0.054 -0.16443,0.20149 -0.23242,0.1875 -0.15799,-0.034 0.0577,-0.32902 0.0937,-0.375 0.04,-0.05 0.0927,-0.0846 0.13867,-0.14063 0.046,-0.056 0.0498,-0.15551 0.0937,-0.1875 0.048,-0.034 0.19921,-0.0509 0.2832,-0.0469 l 0,-0.002 z m 14.14843,0.26758 c 0.0632,0.0696 0.12827,0.13766 0.18946,0.20899 -0.063,-0.0738 -0.16597,-0.10208 -0.18946,-0.20899 z m -0.61132,0.0195 c 0.15798,-0.01 0.25613,0.18528 0.32812,0.28125 0.06,0.078 0.23013,0.18039 0.32813,0.23438 0.056,0.03 0.1255,0.0658 0.1875,0.0937 0.12998,0.058 0.369,0.24704 0.375,0.375 0.002,0.064 -0.0549,0.12947 -0.0449,0.18945 0.098,0.016 0.1855,-0.13641 0.1875,-0.23438 0,-0.0232 -0.008,-0.0377 -0.0176,-0.0527 0.28303,0.396 0.53805,0.81155 0.76171,1.24805 -0.0882,0.0259 -0.16353,0.0684 -0.17773,0.1543 -0.02,0.11196 0.0742,0.26126 -0.0937,0.28125 -0.10599,0.014 -0.23097,-0.10864 -0.37695,-0.14063 -0.06,-0.014 -0.13951,0.016 -0.1875,0 -0.10999,-0.038 -0.0935,-0.16644 -0.1875,-0.23242 -0.054,-0.038 -0.19721,-0.0838 -0.28321,-0.0937 -0.054,-0.006 -0.0827,0.008 -0.13867,0 -0.068,-0.008 -0.17838,-0.0129 -0.23437,-0.0469 -0.054,-0.034 -0.1735,-0.0946 -0.1875,-0.14062 -0.022,-0.074 0.13467,-0.17045 0.13867,-0.23242 0.004,-0.048 -0.0349,-0.0687 -0.0449,-0.14063 -0.008,-0.044 0.01,-0.11263 0,-0.14062 -0.014,-0.052 -0.10746,-0.0918 -0.18945,-0.0937 -0.072,0 -0.12551,0.0469 -0.1875,0.0469 -0.088,0.002 -0.26501,-0.0569 -0.375,-0.0469 -0.066,0.006 -0.12746,0.0429 -0.18946,0.0469 -0.17398,0.014 -0.28588,-0.01 -0.42187,0 -0.098,0.006 -0.28301,0.0518 -0.375,0.0937 -0.046,0.022 -0.0806,0.0638 -0.14063,0.0937 -0.028,0.014 -0.0577,0.0289 -0.0937,0.0449 -0.056,0.026 -0.1335,0.0817 -0.1875,0.0957 -0.078,0.02 -0.18613,-0.006 -0.32812,0 -0.10199,0.006 -0.27925,-0.0187 -0.28125,-0.14062 -0.002,-0.18594 0.33964,-0.10864 0.51562,-0.14063 0.066,-0.014 0.10751,-0.0927 0.1875,-0.13867 0.038,-0.022 0.0577,-0.0229 0.0937,-0.0469 0.06,-0.042 0.1775,-0.13951 0.1875,-0.1875 0.008,-0.044 -0.0509,-0.10864 -0.0449,-0.14062 0.008,-0.042 0.0847,-0.0847 0.13867,-0.13867 0.084,-0.084 0.13039,-0.1804 0.23438,-0.23438 0.07,-0.038 0.20238,-0.0378 0.23437,-0.0937 0.008,-0.064 -0.002,-0.0826 0,-0.14062 0.044,-0.04 0.0577,-0.0858 0.0937,-0.0937 0.10799,-0.024 0.20214,0.0509 0.32813,0.0449 0.054,-0.002 0.1295,-0.007 0.1875,-0.0449 0.048,-0.032 0.0926,-0.0697 0.14062,-0.0937 0.052,-0.028 0.0766,-0.0898 0.14063,-0.0937 z m -12.51368,0.0957 0.002,0 c 0.046,-0.002 0.0906,0 0.14063,0 0.05,0 0.11867,-0.02 0.13867,0 -0.032,0.13196 -0.31788,0.0929 -0.42187,0.0449 0.006,-0.05 0.0766,-0.0389 0.14062,-0.0449 z m 13.31446,0.0957 c 0.0571,0.0666 0.11649,0.13109 0.17187,0.19922 -0.009,-0.005 -0.0231,-0.007 -0.0312,-0.0137 -0.0556,-0.0437 -0.0854,-0.11792 -0.14062,-0.18555 z m -13.78321,0.13867 c 0.034,0 0.0597,-0.014 0.0957,0 -0.092,0.078 -0.21696,0.13752 -0.37695,0.1875 -0.076,0.024 -0.1735,0.0371 -0.1875,-0.0469 -0.016,-0.10396 0.0726,-0.0837 0.14063,-0.0937 0.088,-0.01 0.22418,-0.0429 0.32617,-0.0449 l 0.002,-0.002 z m 13.0293,0.002 c -0.066,0.022 -0.098,0.16951 0,0.1875 0.046,-0.028 0.0589,-0.10352 0.0469,-0.1875 -0.026,-0.028 -0.0269,-0.008 -0.0469,0 z m -0.0449,0.28125 c -0.032,0.01 -0.0598,0.009 -0.0937,0.0449 0.002,0.11196 0.022,0.18524 0,0.28321 0.064,0.12395 0.20043,0.0371 0.23242,-0.0469 0.038,-0.20793 -0.0427,-0.30724 -0.13867,-0.28125 z m 0.88867,0.5625 c -0.088,-0.004 -0.18042,0.003 -0.23242,0.0449 0.074,0.11996 0.20901,0.15751 0.375,0.1875 0.06,-0.044 0.0657,-0.15644 0.0937,-0.23242 -0.072,0 -0.14638,0.004 -0.23437,0 l -0.002,0 z m -17.57227,4.11911 c 0.11274,0.10244 0.19126,0.27308 0.32618,0.33984 0.05,0.026 0.1235,0.0329 0.1875,0.0469 0.052,0.01 0.0906,0.0289 0.14062,0.0449 0.10599,0.036 0.24414,0.0577 0.32813,0.0957 0.12799,0.056 0.21813,0.2622 0.32812,0.32618 0.006,0.064 -0.02,0.14146 0,0.18945 0.052,0.07 0.15038,0.0927 0.23438,0.13867 0.10199,0.056 0.13643,0.19039 0.23242,0.23438 0.034,0.014 0.0886,-0.016 0.14062,0 0.13199,0.04 0.16922,0.22148 0.28321,0.1875 0.074,-0.022 0.0817,-0.11553 0.0937,-0.1875 0.05,-0.054 0.1095,-0.14063 0.1875,-0.14063 0.12399,-0.002 0.1415,0.16125 0.1875,0.2832 0.026,0.068 0.0758,0.11553 0.0937,0.1875 0.03,0.12396 0.026,0.48853 0,0.5625 -0.032,0.092 -0.15838,0.13246 -0.23438,0.23243 -0.036,0.048 -0.0657,0.10864 -0.0937,0.14062 -0.048,0.06 -0.10267,0.0867 -0.13867,0.14063 -0.02,0.03 -0.0289,0.0967 -0.0469,0.13867 -0.06,0.12795 -0.14375,0.223 -0.0937,0.37695 0.02,0.062 0.0937,0.11353 0.0937,0.1875 0,0.088 -0.1735,0.13841 -0.1875,0.23438 -0.01,0.07 0.0718,0.18728 0.0937,0.28125 0.016,0.07 0.1455,0.14151 0.1875,0.1875 0.07,0.078 0.12546,0.18323 0.18945,0.2832 0.12599,0.19393 0.20218,0.41944 0.32617,0.60937 0.066,0.098 0.19038,0.17729 0.23438,0.28125 0.022,0.052 -0.02,0.13952 0,0.1875 0.072,0.16195 0.40051,0.34191 0.5625,0.42188 0.076,0.038 0.16438,0.0557 0.23437,0.0957 0.106,0.06 0.32101,0.18728 0.375,0.28125 0.048,0.084 0.0697,0.28792 0.0937,0.42187 0.03,0.17594 -0.008,0.32569 0,0.51563 0.006,0.10396 0.0469,0.17728 0.0469,0.28125 0,0.036 0.002,0.10463 0,0.14062 -0.002,0.12396 0.01,0.24905 0,0.375 -0.006,0.068 -0.004,0.13148 0,0.18946 0.006,0.062 0.0409,0.0847 0.0449,0.13867 0.004,0.058 -0.0509,0.14347 -0.0449,0.18945 0.014,0.12596 0.11663,0.21021 0.14063,0.32617 0.02,0.092 0.0569,0.31192 0.0449,0.42188 -0.008,0.058 -0.0369,0.12547 -0.0449,0.18945 -0.006,0.05 0.008,0.0927 0,0.13867 -0.006,0.0447 -0.0174,0.0823 -0.0293,0.1211 C 23.84496,39.659587 22,36.556577 22,32.999997 c 0,-0.47891 0.0449,-0.94566 0.10937,-1.40625 z M 26,32.689447 c 0.096,-0.044 0.078,0.12863 0,0.14063 -0.074,0.01 -0.072,-0.10664 0,-0.14063 z" />
  </g>
</svg>
