<?xml version="1.0" encoding="UTF-8" standalone="no"?>
<svg width="64" version="1.1" xmlns="http://www.w3.org/2000/svg" viewBox="0 0 64 64" height="64" xmlns:xlink="http://www.w3.org/1999/xlink" xmlns:inkscape="http://www.inkscape.org/namespaces/inkscape">
 <defs id="defs4">
  <linearGradient inkscape:collect="always" id="linearGradient4300">
   <stop style="stop-color:#cf000f" id="stop4302"/>
   <stop offset="1" style="stop-color:#d91e18" id="stop4304"/>
  </linearGradient>
  <linearGradient inkscape:collect="always" xlink:href="#linearGradient4300" id="linearGradient4306" y1="61" y2="3" x2="0" gradientUnits="userSpaceOnUse"/>
  <linearGradient inkscape:collect="always" xlink:href="#linearGradient4410" id="linearGradient4427" y1="31" x1="54" y2="17" x2="40" gradientUnits="userSpaceOnUse" gradientTransform="matrix(1 0 0 -1 -14 78)"/>
  <linearGradient inkscape:collect="always" id="linearGradient4410">
   <stop style="stop-color:#383e51" id="stop4412"/>
   <stop offset="1" style="stop-color:#655c6f;stop-opacity:0" id="stop4414"/>
  </linearGradient>
  <linearGradient inkscape:collect="always" xlink:href="#linearGradient4351-9" id="linearGradient4357" y1="61" y2="47" x2="0" gradientUnits="userSpaceOnUse"/>
  <linearGradient inkscape:collect="always" id="linearGradient4351-9">
   <stop style="stop-color:#fb7d80" id="stop4353-8"/>
   <stop offset="1" style="stop-color:#fcbcbe" id="stop4355-3"/>
  </linearGradient>
 </defs>
 <metadata id="metadata84"/>
 <path style="fill:url(#linearGradient4306)" id="rect3500" d="M 10 3 L 10 61 L 40 61 L 54 47 L 54 17 L 54 3 L 40 3 L 10 3 z "/>
 <rect width="30" x="10" y="60" height="1" style="fill:#2e3132;fill-opacity:0.294118" id="rect4169"/>
 <rect width="44" x="10" y="3" height="1" style="fill:#ffffff;fill-opacity:0.409836" id="rect4236"/>
 <path inkscape:connector-curvature="0" style="fill:url(#linearGradient4357);fill-rule:evenodd" id="path4314" d="M 54,47 40,61 40,47 Z"/>
 <path inkscape:connector-curvature="0" style="fill:url(#linearGradient4427);opacity:0.2;fill-rule:evenodd" id="path4320" d="M 26,61 40,47 40,61 Z"/>
 <path inkscape:connector-curvature="0" style="fill:#fcbcbe" id="path26" d="m 24.403386,21 c -0.297007,0.011 -0.616013,0.08985 -0.966187,0.240194 -3.124069,1.334824 -0.823185,4.400518 3.158901,7.204014 0.02384,-0.53723 0.0385,-1.063458 0.033,-1.567685 -3.397241,-2.32494 -5.384617,-4.589373 -3.219404,-5.487812 2.28255,-0.946111 3.17907,1.732704 3.219404,5.487812 0.212671,0.144851 0.427176,0.287868 0.650847,0.434552 -0.0825,-3.417736 -0.832351,-6.098384 -2.581389,-6.296408 -0.0935,-0.011 -0.196171,-0.0165 -0.295173,-0.01284 m 2.876562,6.309242 -0.407008,-0.645409 -0.517011,0.445553 -0.108174,0.678412 0.682015,1.285318 0.34284,-0.165018 c 2.291717,1.527345 5.028943,2.933677 7.597499,3.899958 l 0.762683,0.443719 1.05419,0.02567 c 0.971687,-0.575735 0.392342,-0.788426 3.923419,-1.224811 l -3.97842,0.302536 c -3.069067,-1.18814 -6.504808,-3.184875 -9.353871,-5.045927 m 7.654334,5.482311 c 0.460176,0.03667 3.703414,-0.529895 5.131611,-0.667412 1.413531,-0.135683 3.149736,-0.2897 2.821562,1.367828 0.374007,-0.869102 -0.188837,-1.692366 -1.400698,-1.950896 -1.873707,-0.419883 -5.483618,0.903939 -6.552475,1.25048 m 2.069879,-0.40338 c -0.557346,0.199857 -1.497867,0.179687 -2.099213,0.423549 0.852519,0.436385 5.219613,1.595188 6.986985,1.263315 0.28234,-0.044 1.056023,-0.25853 1.085357,-0.881937 -0.09167,1.116632 -5.324116,0.293368 -5.973129,-0.804927 m 1.164191,0.01834 c -0.458343,-0.146684 -2.821561,0.581236 -3.296405,0.401547 -2.905896,0.968114 -6.088632,2.361612 -8.677356,3.84862 l -0.749849,0.148518 -0.579345,1.034121 -0.777351,1.012119 0.876353,0.872769 0.685681,-1.125798 c 3.030565,-1.817048 9.022029,-4.776396 12.516439,-6.19373 m -12.516439,6.19373 c -0.370341,0.221859 -0.724182,0.441885 -1.05969,0.654577 -0.77735,2.203925 -1.683036,3.685432 -2.548389,3.621258 1.33653,0.647243 2.638225,-1.309154 3.608079,-4.275835 m -3.608079,4.275835 c -2.03871,-1.202808 1.582202,-2.98135 2.548389,-3.621258 0.218172,-0.621574 0.42351,-1.296321 0.617847,-2.015071 -3.0434,1.894056 -4.950108,3.857787 -3.928919,5.15594 0.245672,0.313537 0.506011,0.460221 0.764517,0.478556 m 3.164402,-5.63633 c 0.31534,-0.196189 0.64718,-0.388713 0.986354,-0.583068 0.599514,-2.418451 0.997356,-5.199946 1.079857,-7.748578 -0.231004,-0.154019 -0.45651,-0.30987 -0.676514,-0.465721 -0.128336,2.869503 -0.661848,6.109384 -1.387863,8.797367"/>
</svg>
