<?xml version="1.0" encoding="UTF-8" standalone="no"?>
<svg
   xmlns:dc="http://purl.org/dc/elements/1.1/"
   xmlns:cc="http://creativecommons.org/ns#"
   xmlns:rdf="http://www.w3.org/1999/02/22-rdf-syntax-ns#"
   xmlns:svg="http://www.w3.org/2000/svg"
   xmlns="http://www.w3.org/2000/svg"
   xmlns:xlink="http://www.w3.org/1999/xlink"
   xmlns:sodipodi="http://sodipodi.sourceforge.net/DTD/sodipodi-0.dtd"
   xmlns:inkscape="http://www.inkscape.org/namespaces/inkscape"
   width="64"
   version="1.1"
   viewBox="0 0 64 64"
   height="64"
   id="svg50"
   inkscape:version="0.91 r13725"
   sodipodi:docname="application-x-ruby.svg">
  <sodipodi:namedview
     pagecolor="#ffffff"
     bordercolor="#666666"
     borderopacity="1"
     objecttolerance="10"
     gridtolerance="10"
     guidetolerance="10"
     inkscape:pageopacity="0"
     inkscape:pageshadow="2"
     inkscape:window-width="1920"
     inkscape:window-height="1021"
     id="namedview72"
     showgrid="false"
     inkscape:zoom="3.6875"
     inkscape:cx="32"
     inkscape:cy="32"
     inkscape:window-x="0"
     inkscape:window-y="30"
     inkscape:window-maximized="1"
     inkscape:current-layer="svg50" />
  <defs
     id="defs4">
    <linearGradient
       inkscape:collect="always"
       xlink:href="#linearGradient4300"
       id="linearGradient4306-5"
       y1="3"
       y2="61"
       x2="5"
       gradientUnits="userSpaceOnUse"
       gradientTransform="matrix(1,0,0,-1,0,64)"
       x1="5" />
    <linearGradient
       inkscape:collect="always"
       id="linearGradient4300">
      <stop
         style="stop-color:#cf000f;stop-opacity:1"
         offset="0"
         id="stop4302" />
      <stop
         style="stop-color:#d91e18;stop-opacity:1"
         offset="1"
         id="stop4304" />
    </linearGradient>
    <linearGradient
       inkscape:collect="always"
       xlink:href="#linearGradient4351-9"
       id="linearGradient4357-8"
       y1="61"
       y2="47"
       x2="0"
       gradientUnits="userSpaceOnUse"
       gradientTransform="matrix(1,0,0,-1,0,64)" />
    <linearGradient
       id="linearGradient4351-9"
       inkscape:collect="always">
      <stop
         id="stop4353-8"
         offset="0"
         style="stop-color:#fb7d80;stop-opacity:1" />
      <stop
         id="stop4355-3"
         offset="1"
         style="stop-color:#fb9fa2;stop-opacity:1" />
    </linearGradient>
    <linearGradient
       inkscape:collect="always"
       xlink:href="#linearGradient4410"
       id="linearGradient4427-5"
       y1="17"
       x1="40"
       y2="31"
       x2="54"
       gradientUnits="userSpaceOnUse" />
    <linearGradient
       inkscape:collect="always"
       id="linearGradient4410">
      <stop
         style="stop-color:#383e51;stop-opacity:1"
         offset="0"
         id="stop4412" />
      <stop
         style="stop-color:#655c6f;stop-opacity:0"
         offset="1"
         id="stop4414" />
    </linearGradient>
  </defs>
  <metadata
     id="metadata84">
    <rdf:RDF>
      <cc:Work
         rdf:about="">
        <dc:format>image/svg+xml</dc:format>
        <dc:type
           rdf:resource="http://purl.org/dc/dcmitype/StillImage" />
      </cc:Work>
    </rdf:RDF>
  </metadata>
  <path
     inkscape:connector-curvature="0"
     style="fill:url(#linearGradient4306-5);fill-opacity:1"
     id="rect3500-9"
     d="m 10,61 0,-58 30,0 14,14 0,30 0,14 -14,0 -30,0 z" />
  <rect
     width="30"
     x="10"
     y="-4"
     height="1"
     style="fill:#ffffff;fill-opacity:0.41176471"
     id="rect4169-2"
     transform="scale(1,-1)" />
  <rect
     width="44"
     x="10"
     y="-61"
     height="1"
     style="fill:#2e3132;fill-opacity:0.29411765"
     id="rect4236-8"
     transform="scale(1,-1)" />
  <path
     inkscape:connector-curvature="0"
     style="fill:url(#linearGradient4357-8);fill-opacity:1;fill-rule:evenodd"
     id="path4314-9"
     d="M 54,17 40,3 40,17 Z" />
  <path
     inkscape:connector-curvature="0"
     style="opacity:0.2;fill:url(#linearGradient4427-5);fill-rule:evenodd"
     id="path4320-7"
     d="M 40,17 54,31 54,17 Z" />
  <path
     style="fill:#fcbcbe"
     id="rect4186"
     d="M 27.966797,22 27,22.259766 27.513672,24.173828 28.478516,23.914062 27.966797,22 Z m 8.066406,0 -0.511719,1.914062 0.964844,0.259766 L 37,22.259766 36.033203,22 Z m -12.167969,0.400391 -0.865234,0.5 2,3.46289 0.865234,-0.5 -2,-3.46289 z m 16.269532,0 -2,3.46289 0.865234,0.5 2,-3.46289 -0.865234,-0.5 z M 21.5,26.158203 21,27.023438 l 1.716797,0.992187 0.5,-0.867187 L 21.5,26.158203 Z m 21,0 -1.716797,0.990235 0.5,0.867187 L 43,27.023438 42.5,26.158203 Z M 25.986328,28 22,31.986328 22,32 31.126953,42.953125 31.166016,43 32,44 32.873047,42.953125 32.931641,42.880859 42,32 42,31.992188 38.007812,28 38,28 l -10.919922,0 -1.09375,0 z m 0.414063,1 0.949218,0 0.535157,2 -3.484375,0 2,-2 z m 1.984375,0 2.443359,0 -1.154297,2 -0.751953,0 -0.537109,-2 z m 3.599609,0 0.03125,0 1.154297,2 -2.339844,0 1.154297,-2 z m 1.1875,0 2.443359,0 -0.537109,2 -0.751953,0 -1.154297,-2 z m 3.480469,0 0.941406,0 2,2 -3.478516,0 0.53711,-2 z m -13.365235,3 0.113282,0 4.751953,0 2.310547,8.619141 L 23.287109,32 Z m 5.902344,0 1.0625,0 3.496094,0 1.0625,0 L 32.009766,42.455078 32,42.466797 31.990234,42.455078 29.189453,32 Z m 6.658203,0 4.746094,0 0.119141,0 -7.175782,8.619141 L 35.847656,32 Z"
     inkscape:connector-curvature="0" />
</svg>
