<?xml version="1.0" encoding="UTF-8" standalone="no"?>
<svg
   xmlns:dc="http://purl.org/dc/elements/1.1/"
   xmlns:cc="http://creativecommons.org/ns#"
   xmlns:rdf="http://www.w3.org/1999/02/22-rdf-syntax-ns#"
   xmlns:svg="http://www.w3.org/2000/svg"
   xmlns="http://www.w3.org/2000/svg"
   xmlns:xlink="http://www.w3.org/1999/xlink"
   xmlns:sodipodi="http://sodipodi.sourceforge.net/DTD/sodipodi-0.dtd"
   xmlns:inkscape="http://www.inkscape.org/namespaces/inkscape"
   width="64"
   version="1.1"
   viewBox="0 0 64 64"
   height="64"
   id="svg2"
   inkscape:version="0.91 r13725"
   sodipodi:docname="application-x-executable.svg">
  <sodipodi:namedview
     pagecolor="#ffffff"
     bordercolor="#666666"
     borderopacity="1"
     objecttolerance="10"
     gridtolerance="10"
     guidetolerance="10"
     inkscape:pageopacity="0"
     inkscape:pageshadow="2"
     inkscape:window-width="1920"
     inkscape:window-height="1013"
     id="namedview24"
     showgrid="true"
     inkscape:zoom="9.0886386"
     inkscape:cx="29.463164"
     inkscape:cy="26.783842"
     inkscape:window-x="0"
     inkscape:window-y="38"
     inkscape:window-maximized="1"
     inkscape:current-layer="svg2">
    <inkscape:grid
       type="xygrid"
       id="grid4244" />
  </sodipodi:namedview>
  <defs
     id="defs4">
    <linearGradient
       inkscape:collect="always"
       id="linearGradient4300-7-5">
      <stop
         style="stop-color:#5e6b78;stop-opacity:1"
         offset="0"
         id="stop4302-2-4" />
      <stop
         style="stop-color:#768492;stop-opacity:1"
         offset="1"
         id="stop4304-4-4" />
    </linearGradient>
    <linearGradient
       inkscape:collect="always"
       xlink:href="#linearGradient4300-7-5"
       id="linearGradient4180"
       x1="34"
       y1="58"
       x2="34"
       y2="6"
       gradientUnits="userSpaceOnUse" />
  </defs>
  <metadata
     id="metadata84">
    <rdf:RDF>
      <cc:Work
         rdf:about="">
        <dc:format>image/svg+xml</dc:format>
        <dc:type
           rdf:resource="http://purl.org/dc/dcmitype/StillImage" />
        <dc:title />
      </cc:Work>
    </rdf:RDF>
  </metadata>
  <path
     inkscape:connector-curvature="0"
     d="m 51.258957,34.50039 c 0.103723,-0.829782 0.181516,-1.67253 0.181516,-2.528244 0,-0.855712 -0.0778,-1.698461 -0.181516,-2.528243 l 5.484344,-4.291531 c 0.492685,-0.388961 0.635306,-1.089089 0.311175,-1.659565 l -5.186144,-8.984989 c -0.324137,-0.55751 -0.998336,-0.790887 -1.581777,-0.55751 l -6.456746,2.606035 C 42.494378,15.53208 41.029293,14.663401 39.44752,14.002168 L 38.475119,7.1305317 C 38.35843,6.5211608 37.826851,6.0414427 37.178583,6.0414427 l -10.372281,0 c -0.648268,0 -1.179847,0.4797181 -1.283571,1.089089 l -0.9724,6.8716363 c -1.581773,0.661233 -3.046858,1.516947 -4.38229,2.554175 l -6.456746,-2.606035 c -0.583439,-0.220412 -1.257639,0 -1.581773,0.55751 l -5.1861405,8.984989 c -0.324134,0.55751 -0.1815153,1.257639 0.3111686,1.659565 l 5.4713789,4.291531 c -0.103723,0.829782 -0.181514,1.672531 -0.181514,2.528243 0,0.855714 0.07779,1.698462 0.181514,2.528244 l -5.4713789,4.291532 c -0.4926839,0.388961 -0.6353026,1.08909 -0.3111686,1.659566 l 5.1861405,8.984988 c 0.324134,0.55751 0.998334,0.790887 1.581773,0.55751 l 6.456746,-2.606035 c 1.335432,1.024262 2.800517,1.892942 4.38229,2.554175 l 0.9724,6.871635 c 0.103724,0.609375 0.635303,1.089092 1.283571,1.089092 l 10.372281,0 c 0.648268,0 1.179847,-0.479717 1.283571,-1.089092 l 0.972401,-6.871635 c 1.581772,-0.661233 3.046857,-1.516947 4.382289,-2.554175 l 6.456749,2.606035 c 0.583439,0.220412 1.257639,0 1.581771,-0.55751 l 5.186143,-8.984988 c 0.324132,-0.55751 0.18151,-1.25764 -0.311169,-1.659566 L 51.258957,34.50039 Z m -19.266515,6.547504 c -5.01759,0 -9.075745,-4.058155 -9.075745,-9.075748 0,-5.017591 4.058155,-9.075746 9.075745,-9.075746 5.017592,0 9.075747,4.058155 9.075747,9.075746 0,5.017593 -4.058155,9.075748 -9.075747,9.075748 z"
     id="path6"
     style="fill:url(#linearGradient4180);fill-opacity:1" />
</svg>
