<?xml version="1.0" encoding="UTF-8" standalone="no"?>
<svg
   xmlns:dc="http://purl.org/dc/elements/1.1/"
   xmlns:cc="http://creativecommons.org/ns#"
   xmlns:rdf="http://www.w3.org/1999/02/22-rdf-syntax-ns#"
   xmlns:svg="http://www.w3.org/2000/svg"
   xmlns="http://www.w3.org/2000/svg"
   xmlns:sodipodi="http://sodipodi.sourceforge.net/DTD/sodipodi-0.dtd"
   xmlns:inkscape="http://www.inkscape.org/namespaces/inkscape"
   width="64"
   version="1.1"
   viewBox="0 0 64 64"
   height="64"
   id="svg2"
   inkscape:version="0.91 r13725"
   sodipodi:docname="application-pdf.svg">
  <sodipodi:namedview
     pagecolor="#ffffff"
     bordercolor="#666666"
     borderopacity="1"
     objecttolerance="10"
     gridtolerance="10"
     guidetolerance="10"
     inkscape:pageopacity="0"
     inkscape:pageshadow="2"
     inkscape:window-width="1920"
     inkscape:window-height="1021"
     id="namedview24"
     showgrid="false"
     inkscape:object-nodes="false"
     inkscape:zoom="5.6568542"
     inkscape:cx="12.431433"
     inkscape:cy="48.811198"
     inkscape:window-x="0"
     inkscape:window-y="30"
     inkscape:window-maximized="1"
     inkscape:current-layer="svg2"
     inkscape:snap-bbox="true"
     inkscape:bbox-nodes="true"
     inkscape:snap-nodes="false"
     inkscape:snap-others="false">
    <inkscape:grid
       type="xygrid"
       id="grid4152" />
  </sodipodi:namedview>
  <defs
     id="defs4" />
  <metadata
     id="metadata84">
    <rdf:RDF>
      <cc:Work
         rdf:about="">
        <dc:format>image/svg+xml</dc:format>
        <dc:type
           rdf:resource="http://purl.org/dc/dcmitype/StillImage" />
      </cc:Work>
    </rdf:RDF>
  </metadata>
  <path
     style="fill:#db3333;fill-opacity:1"
     id="rect3500"
     d="m 10,3 0,58 30,0 14,0 0,-44 0,-14 -14,0 z"
     inkscape:connector-curvature="0"
     sodipodi:nodetypes="cccccccc" />
  <rect
     width="44"
     x="10"
     y="60"
     height="1"
     style="fill:#2e3132;fill-opacity:0.29411801"
     id="rect4169" />
  <rect
     width="44"
     x="10"
     y="3"
     height="1"
     style="fill:#ffffff;fill-opacity:0.409836"
     id="rect4236" />
  <path
     inkscape:connector-curvature="0"
     style="fill:#ffffff;fill-opacity:1"
     id="path26"
     d="m 26.301489,17.981463 c -0.362518,0.01344 -0.751888,0.109672 -1.179301,0.293175 -3.813153,1.629248 -1.004756,5.371149 3.855667,8.793018 0.02911,-0.655728 0.04699,-1.298027 0.04028,-1.913472 -4.146578,-2.837758 -5.763181,-5.655603 -3.767689,-6.320675 2.138711,-0.885088 3.718459,1.737295 3.767689,6.320675 0.25958,0.176801 0.521399,0.351363 0.794406,0.530402 -0.100707,-4.171592 -1.015945,-7.443519 -3.150772,-7.685219 -0.114119,-0.01344 -0.239441,-0.02016 -0.360281,-0.01567 m 3.511053,7.700885 -0.496783,-0.787769 -0.631049,0.54383 -0.132034,0.828051 0.832448,1.568823 0.41846,-0.201417 c 2.797208,1.864236 6.138189,3.580765 9.273296,4.760181 l 0.930911,0.54159 1.286715,0.03133 c 1.186014,-0.702726 0.478882,-0.962331 4.788816,-1.494971 l -4.855949,0.369268 C 37.481354,30.393287 33.287783,27.956128 29.810295,25.68458 m 9.342667,6.691555 c 0.561679,0.04477 4.520285,-0.646774 6.263503,-0.814623 0.666855,-0.08728 3.310481,-0.277314 3.443921,1.669532 0.456503,-1.060801 -0.23049,-2.065654 -1.709653,-2.38121 -2.286997,-0.512496 -6.693152,1.103324 -7.997771,1.526301 M 41.6794,31.883781 c -0.68028,0.243941 -1.828256,0.219321 -2.562241,0.516973 1.04056,0.532639 6.370915,1.947042 8.528121,1.541967 0.344613,-0.05371 1.288952,-0.315555 1.324756,-1.076468 -1.72838,1.201281 -6.498469,0.358076 -7.290636,-0.982472 m 1.42098,0.02239 c -0.559441,-0.17904 -3.443919,0.709441 -4.023502,0.490117 -3.546855,1.181653 -7.431614,2.882517 -10.591338,4.697518 l -0.915246,0.181277 -0.707132,1.262218 -0.948812,1.235366 1.069651,1.065278 0.836924,-1.374118 c 3.699023,-2.217837 11.012038,-5.829936 15.277218,-7.559896 m -15.277221,7.559891 c -0.452028,0.270795 -0.883916,0.539352 -1.293428,0.798959 -0.474405,1.345025 -1.839929,4.302162 -2.77845,4.211252 0,0 -0.171643,0.143036 -0.446471,0.370862 1.440617,0.828151 3.334572,-1.760025 4.518349,-5.381073 m -4.071878,5.010211 c -2.488391,-1.468112 1.599149,-3.620913 2.77845,-4.211252 0.266295,-0.758677 0.516925,-1.582254 0.754127,-2.45954 -3.714689,2.311833 -6.041964,4.708707 -4.795529,6.293198 0.299861,0.382694 0.539098,0.659328 0.816481,0.748456 m 3.979048,-7.043893 c 0.384896,-0.239462 0.789931,-0.474451 1.203916,-0.711675 0.73175,-2.951895 1.217345,-6.34691 1.318043,-9.457701 -0.281957,-0.187991 -0.557203,-0.378217 -0.825733,-0.568445 -0.156643,3.502436 -0.807834,7.456944 -1.693988,10.737821"
     sodipodi:nodetypes="ccccccccccccccccccccccccccccccccccccccccccscccccccccccc" />
  <rect
     id="rect4141"
     style="fill:#ffffff;fill-opacity:0.25206611"
     height="56"
     y="4"
     x="16"
     width="1" />
  <rect
     width="1"
     x="17"
     y="4"
     height="56"
     style="fill:#000000;fill-opacity:0.08264463;color:#000000;clip-rule:nonzero;display:inline;overflow:visible;visibility:visible;opacity:1;isolation:auto;mix-blend-mode:normal;color-interpolation:sRGB;color-interpolation-filters:linearRGB;solid-color:#000000;solid-opacity:1;fill-rule:nonzero;stroke-width:1;stroke-linecap:butt;stroke-linejoin:miter;stroke-miterlimit:4;stroke-dasharray:none;stroke-dashoffset:0;stroke-opacity:1;filter-blend-mode:normal;filter-gaussianBlur-deviation:0;color-rendering:auto;image-rendering:auto;shape-rendering:auto;text-rendering:auto;enable-background:accumulate"
     id="rect4145" />
</svg>
