<?xml version="1.0" encoding="UTF-8" standalone="no"?>
<svg
   xmlns:dc="http://purl.org/dc/elements/1.1/"
   xmlns:cc="http://creativecommons.org/ns#"
   xmlns:rdf="http://www.w3.org/1999/02/22-rdf-syntax-ns#"
   xmlns:svg="http://www.w3.org/2000/svg"
   xmlns="http://www.w3.org/2000/svg"
   xmlns:xlink="http://www.w3.org/1999/xlink"
   xmlns:sodipodi="http://sodipodi.sourceforge.net/DTD/sodipodi-0.dtd"
   xmlns:inkscape="http://www.inkscape.org/namespaces/inkscape"
   viewBox="0 0 64 64"
   id="svg2"
   version="1.1"
   inkscape:version="0.91 r13725"
   sodipodi:docname="application-vnd.ms-powerpoint.addin.macroenabled.12.svg"
   width="64"
   height="64">
  <metadata
     id="metadata84">
    <rdf:RDF>
      <cc:Work
         rdf:about="">
        <dc:format>image/svg+xml</dc:format>
        <dc:type
           rdf:resource="http://purl.org/dc/dcmitype/StillImage" />
        <dc:title />
      </cc:Work>
    </rdf:RDF>
  </metadata>
  <sodipodi:namedview
     pagecolor="#ffffff"
     bordercolor="#666666"
     borderopacity="1"
     objecttolerance="10"
     gridtolerance="10"
     guidetolerance="10"
     inkscape:pageopacity="0"
     inkscape:pageshadow="2"
     inkscape:window-width="1920"
     inkscape:window-height="1013"
     id="namedview82"
     showgrid="true"
     inkscape:showpageshadow="false"
     inkscape:zoom="6.032505"
     inkscape:cx="-40.172259"
     inkscape:cy="26.61612"
     inkscape:window-x="0"
     inkscape:window-y="38"
     inkscape:window-maximized="1"
     inkscape:current-layer="svg2"
     showguides="true">
    <inkscape:grid
       type="xygrid"
       id="grid3413" />
    <sodipodi:guide
       position="0,64"
       orientation="64,0"
       id="guide3482" />
    <sodipodi:guide
       position="0,0"
       orientation="0,64"
       id="guide3484" />
    <sodipodi:guide
       position="64,0"
       orientation="-64,0"
       id="guide3486" />
    <sodipodi:guide
       position="64,64"
       orientation="0,-64"
       id="guide3488" />
    <sodipodi:guide
       position="10,61"
       orientation="58,0"
       id="guide3492" />
    <sodipodi:guide
       position="10,3"
       orientation="0,44"
       id="guide3494" />
    <sodipodi:guide
       position="54,3"
       orientation="-58,0"
       id="guide3496" />
    <sodipodi:guide
       position="54,61"
       orientation="0,-44"
       id="guide3498" />
    <sodipodi:guide
       position="54,47"
       orientation="-14,0"
       id="guide4310" />
    <sodipodi:guide
       position="54,61"
       orientation="0,-14"
       id="guide4312" />
    <sodipodi:guide
       position="21,43"
       orientation="22,0"
       id="guide4250" />
    <sodipodi:guide
       position="21,21"
       orientation="0,22"
       id="guide4252" />
    <sodipodi:guide
       position="43,21"
       orientation="-22,0"
       id="guide4254" />
    <sodipodi:guide
       position="43,43"
       orientation="0,-22"
       id="guide4256" />
  </sodipodi:namedview>
  <defs
     id="defs4">
    <linearGradient
       inkscape:collect="always"
       id="linearGradient4351-3">
      <stop
         style="stop-color:#f7ab89;stop-opacity:1"
         offset="0"
         id="stop4353-6" />
      <stop
         style="stop-color:#fbd2bf;stop-opacity:1"
         offset="1"
         id="stop4355-8" />
    </linearGradient>
    <linearGradient
       id="linearGradient4300-8-9"
       inkscape:collect="always">
      <stop
         id="stop4302-5-0"
         offset="0"
         style="stop-color:#f27935;stop-opacity:1" />
      <stop
         id="stop4304-7-8"
         offset="1"
         style="stop-color:#f2784b;stop-opacity:1" />
    </linearGradient>
    <linearGradient
       inkscape:collect="always"
       xlink:href="#linearGradient4300-8-9"
       id="linearGradient4306-5"
       y1="61"
       y2="3"
       x2="0"
       gradientUnits="userSpaceOnUse"
       gradientTransform="matrix(1,0,0,-1,0,64)" />
    <linearGradient
       inkscape:collect="always"
       xlink:href="#linearGradient4351-3"
       id="linearGradient4357-8"
       y1="61"
       y2="47"
       x2="0"
       gradientUnits="userSpaceOnUse"
       gradientTransform="matrix(1,0,0,-1,0,64)" />
  </defs>
  <path
     inkscape:connector-curvature="0"
     style="fill:url(#linearGradient4306-5);fill-opacity:1.0"
     id="rect3500-9"
     d="m 10,61 0,-58 30,0 14,14 0,30 0,14 -14,0 -30,0 z" />
  <rect
     width="30"
     x="10"
     y="-4"
     height="1"
     style="fill:#ffffff;fill-opacity:0.41176471"
     id="rect4169-2"
     transform="scale(1,-1)" />
  <rect
     width="44"
     x="10"
     y="-61"
     height="1"
     style="fill:#2e3132;fill-opacity:0.29411765"
     id="rect4236-8"
     transform="scale(1,-1)" />
  <path
     inkscape:connector-curvature="0"
     style="fill:url(#linearGradient4357-8);fill-opacity:1.0;fill-rule:evenodd"
     id="path4314-9"
     d="M 54,17 40,3 40,17 Z" />
  <g
     transform="matrix(0.24993057,0,0,0.25581395,-34.738406,22)"
     id="powerpoint">
    <path
       style="fill:#ffffff;fill-opacity:1"
       inkscape:connector-curvature="0"
       d="M 269.33,0 275,0 c 0,3 0,6 0,9 10.69,0.06 21.39,-0.11 32.07,0.05 2.3,-0.22 4.1,1.57 3.87,3.87 0.17,18.68 -0.04,37.37 0.1,56.06 -0.1,2.02 0.2,4.26 -0.96,6.05 -1.46,1.06 -3.36,0.92 -5.07,1 -10,-0.05 -20,-0.03 -30.01,-0.03 0,3.33 0,6.67 0,10 l -6.22,0 c -15.24,-2.78 -30.51,-5.32 -45.76,-8 -0.01,-23.33 0,-46.66 0,-69.98 C 238.45,5.35 253.88,2.63 269.33,0 Z"
       id="path29" />
    <path
       style="fill:#f2784a;fill-opacity:1"
       inkscape:connector-curvature="0"
       d="m 275,12 c 11,0 22,0 33,0 0,20.33 0,40.67 0,61 -11,0 -22,0 -33,0 0,-2.67 0,-5.33 0,-8 8,0 16,0 24,0 0,-1.33 0,-2.67 0,-4 -8,0 -16,0 -24,0 0,-1.67 0,-3.33 0,-5 8,0 16,0 24,0 0,-1.33 0,-2.67 0,-4 -8,0 -16,0 -23.99,0 -0.01,-1.96 -0.01,-3.92 -0.02,-5.88 3.96,1.23 8.47,1.2 12.01,-1.18 3.83,-2.27 5.83,-6.6 6.16,-10.92 C 288.77,33.99 284.38,34 280,34 c -0.01,-4.35 0.05,-8.7 -0.09,-13.04 -1.64,0.32 -3.28,0.66 -4.91,1.01 0,-3.32 0,-6.65 0,-9.97 z"
       id="path31" />
    <path
       style="fill:#ffffff;fill-opacity:1"
       inkscape:connector-curvature="0"
       d="m 282.01,18.87 c 6.95,0.32 12.79,6.17 13.16,13.1 -4.39,0.05 -8.78,0.03 -13.17,0.03 0,-4.38 -0.01,-8.76 0.01,-13.13 z"
       id="path33" />
    <path
       style="fill:#f2784a;fill-opacity:1"
       inkscape:connector-curvature="0"
       d="m 239.06,26.42 c 5.43,0.26 12.01,-2.15 16.51,1.92 4.31,5.23 3.17,14.85 -3.22,17.98 -2.27,1.16 -4.87,1 -7.34,0.92 -0.01,3.91 -0.02,7.82 -0.01,11.73 -1.98,-0.17 -3.97,-0.34 -5.95,-0.5 -0.09,-10.68 -0.11,-21.37 0.01,-32.05 z"
       id="path35" />
    <path
       style="fill:#ffffff;fill-opacity:1"
       inkscape:connector-curvature="0"
       d="m 245,31.83 c 1.97,-0.09 4.41,-0.45 5.74,1.4 1.14,1.96 1.08,4.54 0.13,6.56 -1.14,2.06 -3.72,1.86 -5.71,2.1 -0.21,-3.35 -0.19,-6.7 -0.16,-10.06 z"
       id="path37" />
  </g>
</svg>
