<?xml version="1.0" encoding="UTF-8" standalone="no"?>
<svg
   xmlns:dc="http://purl.org/dc/elements/1.1/"
   xmlns:cc="http://creativecommons.org/ns#"
   xmlns:rdf="http://www.w3.org/1999/02/22-rdf-syntax-ns#"
   xmlns:svg="http://www.w3.org/2000/svg"
   xmlns="http://www.w3.org/2000/svg"
   xmlns:xlink="http://www.w3.org/1999/xlink"
   xmlns:sodipodi="http://sodipodi.sourceforge.net/DTD/sodipodi-0.dtd"
   xmlns:inkscape="http://www.inkscape.org/namespaces/inkscape"
   width="64"
   version="1.1"
   viewBox="0 0 64 64"
   height="64"
   id="svg2"
   inkscape:version="0.91 r13725"
   sodipodi:docname="application-x-kexi-connectiondata.svg">
  <sodipodi:namedview
     pagecolor="#ffffff"
     bordercolor="#666666"
     borderopacity="1"
     objecttolerance="10"
     gridtolerance="10"
     guidetolerance="10"
     inkscape:pageopacity="0"
     inkscape:pageshadow="2"
     inkscape:window-width="1920"
     inkscape:window-height="1021"
     id="namedview24"
     showgrid="false"
     inkscape:zoom="3.6875"
     inkscape:cx="32"
     inkscape:cy="32"
     inkscape:window-x="0"
     inkscape:window-y="30"
     inkscape:window-maximized="1"
     inkscape:current-layer="svg2" />
  <defs
     id="defs4">
    <linearGradient
       inkscape:collect="always"
       xlink:href="#linearGradient4300-1"
       id="linearGradient4306-5"
       y1="3"
       y2="61"
       x2="5"
       gradientUnits="userSpaceOnUse"
       gradientTransform="matrix(1,0,0,-1,0,64)"
       x1="5" />
    <linearGradient
       inkscape:collect="always"
       id="linearGradient4300-1">
      <stop
         style="stop-color:#8e44ad"
         id="stop4302-0" />
      <stop
         offset="1"
         style="stop-color:#9b59b6"
         id="stop4304-6" />
    </linearGradient>
    <linearGradient
       inkscape:collect="always"
       xlink:href="#linearGradient4351-2"
       id="linearGradient4357-8"
       y1="61"
       y2="47"
       x2="0"
       gradientUnits="userSpaceOnUse"
       gradientTransform="matrix(1,0,0,-1,0,64)" />
    <linearGradient
       inkscape:collect="always"
       id="linearGradient4351-2">
      <stop
         style="stop-color:#d3bdd7"
         id="stop4353-8" />
      <stop
         offset="1"
         style="stop-color:#e8d9eb"
         id="stop4355-6" />
    </linearGradient>
    <linearGradient
       inkscape:collect="always"
       xlink:href="#linearGradient4410"
       id="linearGradient4427-5"
       y1="17"
       x1="40"
       y2="31"
       x2="54"
       gradientUnits="userSpaceOnUse" />
    <linearGradient
       inkscape:collect="always"
       id="linearGradient4410">
      <stop
         style="stop-color:#383e51"
         id="stop4412" />
      <stop
         offset="1"
         style="stop-color:#655c6f;stop-opacity:0"
         id="stop4414" />
    </linearGradient>
  </defs>
  <metadata
     id="metadata84">
    <rdf:RDF>
      <cc:Work
         rdf:about="">
        <dc:format>image/svg+xml</dc:format>
        <dc:type
           rdf:resource="http://purl.org/dc/dcmitype/StillImage" />
      </cc:Work>
    </rdf:RDF>
  </metadata>
  <path
     inkscape:connector-curvature="0"
     style="fill:url(#linearGradient4306-5);fill-opacity:1"
     id="rect3500-9"
     d="m 10,61 0,-58 30,0 14,14 0,30 0,14 -14,0 -30,0 z" />
  <rect
     width="30"
     x="10"
     y="-4"
     height="1"
     style="fill:#ffffff;fill-opacity:0.41176471"
     id="rect4169-2"
     transform="scale(1,-1)" />
  <rect
     width="44"
     x="10"
     y="-61"
     height="1"
     style="fill:#2e3132;fill-opacity:0.29411765"
     id="rect4236-8"
     transform="scale(1,-1)" />
  <path
     inkscape:connector-curvature="0"
     style="fill:url(#linearGradient4357-8);fill-opacity:1;fill-rule:evenodd"
     id="path4314-9"
     d="M 54,17 40,3 40,17 Z" />
  <path
     inkscape:connector-curvature="0"
     style="opacity:0.2;fill:url(#linearGradient4427-5);fill-rule:evenodd"
     id="path4320-7"
     d="M 40,17 54,31 54,17 Z" />
  <path
     style="fill:#e8d9eb"
     id="rect4185"
     d="m 32,22 c -6.075132,0 -11,1.343146 -11,3 l 0,5 0,4 0,1 a 11,3 0 0 0 1,1.242188 11,3 0 0 0 0.01172,0.0059 11,3 0 0 0 0.476562,0.251953 11,3 0 0 0 0.03125,0.01367 11,3 0 0 0 0.550781,0.232422 11,3 0 0 0 0.06445,0.02344 11,3 0 0 0 0.589843,0.201172 11,3 0 0 0 0.132813,0.04102 11,3 0 0 0 0.65039,0.179687 11,3 0 0 0 0.09961,0.02539 11,3 0 0 0 0.773437,0.175781 11,3 0 0 0 0.05273,0.0098 11,3 0 0 0 0.814453,0.15039 11,3 0 0 0 0.138672,0.02344 11,3 0 0 0 0.779297,0.115234 11,3 0 0 0 0.220703,0.0293 11,3 0 0 0 0.736328,0.08203 11,3 0 0 0 0.367187,0.03711 11,3 0 0 0 0.539063,0.04492 11,3 0 0 0 0.591797,0.04102 11,3 0 0 0 0.490234,0.02539 11,3 0 0 0 0.576172,0.02344 11,3 0 0 0 0.462891,0.01367 A 11,3 0 0 0 32,38 a 11,3 0 0 0 0.958984,-0.01367 11,3 0 0 0 0.414063,-0.01367 11,3 0 0 0 0.716797,-0.0293 11,3 0 0 0 0.345703,-0.02148 11,3 0 0 0 0.707031,-0.04883 11,3 0 0 0 0.31836,-0.0293 11,3 0 0 0 0.767578,-0.07617 11,3 0 0 0 0.179687,-0.02148 11,3 0 0 0 0.808594,-0.107422 11,3 0 0 0 0.212891,-0.03516 11,3 0 0 0 0.677734,-0.111328 11,3 0 0 0 0.3125,-0.06055 11,3 0 0 0 0.595703,-0.125 11,3 0 0 0 0.195313,-0.04687 11,3 0 0 0 0.662109,-0.167969 11,3 0 0 0 0.01367,-0.0039 11,3 0 0 0 0.02344,-0.0078 11,3 0 0 0 0.701172,-0.21875 11,3 0 0 0 0.636719,-0.24414 11,3 0 0 0 0.002,0 11,3 0 0 0 0.0059,-0.002 11,3 0 0 0 0.535157,-0.253906 11,3 0 0 0 0.0059,-0.0039 A 11,3 0 0 0 42,36.242188 11,3 0 0 0 43,35 l 0,-1 0,-4 0,-5 c 0,-1.656854 -4.924868,-3 -11,-3 z m 0,16 -1,0 0,3 1,0 0,1 -8,0 0,-1 -3,0 0,3 3,0 0,-1 8,0 1,0 7,0 0,1 3,0 0,-3 -3,0 0,1 -7,0 0,-1 1,0 0,-3 -2,0 z m 0,-15 c 5.522847,0 10,0.895431 10,2 0,1.104569 -4.477153,2 -10,2 -5.522847,0 -10,-0.895431 -10,-2 0,-1.104569 4.477153,-2 10,-2 z M 22,26.242188 C 23.78371,27.311606 27.69217,27.99864 32,28 36.30783,27.9986 40.21629,27.311606 42,26.242188 L 42,30 c 0,1.104569 -4.477153,2 -10,2 -5.522847,0 -10,-0.895431 -10,-2 l 0,-3.757812 z m 0,5 C 23.78371,32.311606 27.69217,32.99864 32,33 36.30783,32.9986 40.21629,32.311606 42,31.242188 L 42,33 42,33.757812 42,34 42,35 A 10,2 0 0 1 32,37 10,2 0 0 1 22,35 L 22,34 22,33.757812 22,33 22,31.242188 Z M 32,39 l 1,0 0,1 -1,0 0,-1 z m -10,3 1,0 0,1 -1,0 0,-1 z m 19,0 1,0 0,1 -1,0 0,-1 z"
     inkscape:connector-curvature="0" />
</svg>
