<?xml version="1.0" encoding="UTF-8" standalone="no"?>
<svg width="64" version="1.1" xmlns="http://www.w3.org/2000/svg" viewBox="0 0 64 64" height="64" xmlns:xlink="http://www.w3.org/1999/xlink" xmlns:inkscape="http://www.inkscape.org/namespaces/inkscape">
 <defs id="defs4">
  <linearGradient inkscape:collect="always" xlink:href="#linearGradient4300-7-5" id="linearGradient4306" y1="61" y2="3" x2="0" gradientUnits="userSpaceOnUse"/>
  <linearGradient inkscape:collect="always" xlink:href="#linearGradient4410" id="linearGradient4427" y1="31" x1="54" y2="17" x2="40" gradientUnits="userSpaceOnUse" gradientTransform="matrix(1 0 0 -1 -14 78)"/>
  <linearGradient inkscape:collect="always" id="linearGradient4410">
   <stop style="stop-color:#383e51" id="stop4412"/>
   <stop offset="1" style="stop-color:#655c6f;stop-opacity:0" id="stop4414"/>
  </linearGradient>
  <linearGradient inkscape:collect="always" xlink:href="#linearGradient4351-8" id="linearGradient4357" y1="61" y2="47" x2="0" gradientUnits="userSpaceOnUse"/>
  <linearGradient inkscape:collect="always" id="linearGradient4351-8">
   <stop style="stop-color:#dedede" id="stop4353-5"/>
   <stop offset="1" style="stop-color:#fbfbfb" id="stop4355-8"/>
  </linearGradient>
  <linearGradient inkscape:collect="always" id="linearGradient4300-7-5">
   <stop style="stop-color:#5e6b78" id="stop4302-2-4"/>
   <stop offset="1" style="stop-color:#768492" id="stop4304-4-4"/>
  </linearGradient>
 </defs>
 <metadata id="metadata84"/>
 <path style="fill:url(#linearGradient4306)" id="rect3500" d="M 10 3 L 10 61 L 40 61 L 54 47 L 54 17 L 54 3 L 40 3 L 10 3 z "/>
 <rect width="30" x="10" y="60" height="1" style="fill:#2e3132;fill-opacity:0.294118" id="rect4169"/>
 <rect width="44" x="10" y="3" height="1" style="fill:#ffffff;fill-opacity:0.409836" id="rect4236"/>
 <path inkscape:connector-curvature="0" style="fill:url(#linearGradient4357);fill-rule:evenodd" id="path4314" d="M 54,47 40,61 40,47 Z"/>
 <path inkscape:connector-curvature="0" style="fill:url(#linearGradient4427);opacity:0.2;fill-rule:evenodd" id="path4320" d="M 26,61 40,47 40,61 Z"/>
 <path style="fill:#fbfbfb" id="rect4182" d="M 21 21 L 21 34 L 28 34 L 28 33 L 24 33 L 24 29 L 28 29 L 28 28 L 31 28 L 32 28 L 33 28 L 34 28 L 34 21 L 21 21 z M 22 22 L 23 22 L 23 24 L 22 24 L 22 22 z M 24 22 L 31 22 L 31 26 L 28 26 L 24 26 L 24 22 z M 32 22 L 33 22 L 33 24 L 32 24 L 32 22 z M 22 25 L 23 25 L 23 27 L 22 27 L 22 25 z M 32 25 L 33 25 L 33 27 L 32 27 L 32 25 z M 22 29 L 23 29 L 23 31 L 22 31 L 22 29 z M 29 29 L 29 39 L 33 43 L 33 39 L 34 39 L 43 39 L 43 29 L 29 29 z M 30 30 L 42 30 L 42 38 L 30 38 L 30 30 z M 22 32 L 23 32 L 23 33 L 22 33 L 22 32 z "/>
</svg>
