<?xml version="1.0" encoding="UTF-8" standalone="no"?>
<svg
   xmlns:dc="http://purl.org/dc/elements/1.1/"
   xmlns:cc="http://creativecommons.org/ns#"
   xmlns:rdf="http://www.w3.org/1999/02/22-rdf-syntax-ns#"
   xmlns:svg="http://www.w3.org/2000/svg"
   xmlns="http://www.w3.org/2000/svg"
   xmlns:xlink="http://www.w3.org/1999/xlink"
   xmlns:sodipodi="http://sodipodi.sourceforge.net/DTD/sodipodi-0.dtd"
   xmlns:inkscape="http://www.inkscape.org/namespaces/inkscape"
   viewBox="0 0 64 64"
   id="svg2"
   version="1.1"
   inkscape:version="0.91 r13725"
   sodipodi:docname="application-dicom.svg"
   width="64"
   height="64">
  <metadata
     id="metadata84">
    <rdf:RDF>
      <cc:Work
         rdf:about="">
        <dc:format>image/svg+xml</dc:format>
        <dc:type
           rdf:resource="http://purl.org/dc/dcmitype/StillImage" />
        <dc:title />
      </cc:Work>
    </rdf:RDF>
  </metadata>
  <sodipodi:namedview
     pagecolor="#ffffff"
     bordercolor="#666666"
     borderopacity="1"
     objecttolerance="10"
     gridtolerance="10000"
     guidetolerance="10"
     inkscape:pageopacity="0"
     inkscape:pageshadow="2"
     inkscape:window-width="1366"
     inkscape:window-height="699"
     id="namedview82"
     showgrid="true"
     inkscape:showpageshadow="false"
     inkscape:zoom="6.9644045"
     inkscape:cx="-7.5946471"
     inkscape:cy="39.833742"
     inkscape:window-x="0"
     inkscape:window-y="0"
     inkscape:window-maximized="1"
     inkscape:current-layer="svg2"
     showguides="true">
    <inkscape:grid
       type="xygrid"
       id="grid3413" />
    <sodipodi:guide
       position="0,64"
       orientation="64,0"
       id="guide3482" />
    <sodipodi:guide
       position="0,0"
       orientation="0,64"
       id="guide3484" />
    <sodipodi:guide
       position="64,0"
       orientation="-64,0"
       id="guide3486" />
    <sodipodi:guide
       position="64,64"
       orientation="0,-64"
       id="guide3488" />
    <sodipodi:guide
       position="10,61"
       orientation="58,0"
       id="guide3492" />
    <sodipodi:guide
       position="10,3"
       orientation="0,44"
       id="guide3494" />
    <sodipodi:guide
       position="54,3"
       orientation="-58,0"
       id="guide3496" />
    <sodipodi:guide
       position="54,61"
       orientation="0,-44"
       id="guide3498" />
    <sodipodi:guide
       position="54,47"
       orientation="-14,0"
       id="guide4310" />
    <sodipodi:guide
       position="54,61"
       orientation="0,-14"
       id="guide4312" />
    <sodipodi:guide
       position="21,43"
       orientation="22,0"
       id="guide4250" />
    <sodipodi:guide
       position="21,21"
       orientation="0,22"
       id="guide4252" />
    <sodipodi:guide
       position="43,21"
       orientation="-22,0"
       id="guide4254" />
    <sodipodi:guide
       position="43,43"
       orientation="0,-22"
       id="guide4256" />
  </sodipodi:namedview>
  <defs
     id="defs4">
    <linearGradient
       inkscape:collect="always"
       xlink:href="#linearGradient4300-7-5"
       id="linearGradient4306"
       x1="32"
       y1="61"
       x2="32"
       y2="3"
       gradientUnits="userSpaceOnUse" />
    <linearGradient
       gradientTransform="matrix(1,0,0,-1,-14,78)"
       inkscape:collect="always"
       xlink:href="#linearGradient4410"
       id="linearGradient4427"
       x1="54"
       y1="31"
       x2="40"
       y2="17"
       gradientUnits="userSpaceOnUse" />
    <linearGradient
       inkscape:collect="always"
       id="linearGradient4410">
      <stop
         style="stop-color:#383e51;stop-opacity:1"
         offset="0"
         id="stop4412" />
      <stop
         style="stop-color:#655c6f;stop-opacity:0"
         offset="1"
         id="stop4414" />
    </linearGradient>
    <linearGradient
       inkscape:collect="always"
       xlink:href="#linearGradient4351-8"
       id="linearGradient4357"
       x1="47"
       y1="61"
       x2="47"
       y2="47"
       gradientUnits="userSpaceOnUse" />
    <linearGradient
       id="linearGradient4351-8"
       inkscape:collect="always">
      <stop
         id="stop4353-5"
         offset="0"
         style="stop-color:#dedede;stop-opacity:1" />
      <stop
         id="stop4355-8"
         offset="1"
         style="stop-color:#fbfbfb;stop-opacity:1" />
    </linearGradient>
    <linearGradient
       inkscape:collect="always"
       id="linearGradient4300-7-5">
      <stop
         style="stop-color:#5e6b78;stop-opacity:1"
         offset="0"
         id="stop4302-2-4" />
      <stop
         style="stop-color:#768492;stop-opacity:1"
         offset="1"
         id="stop4304-4-4" />
    </linearGradient>
  </defs>
  <path
     style="fill:url(#linearGradient4306);fill-opacity:1.0;stroke:none"
     d="M 10 3 L 10 61 L 40 61 L 54 47 L 54 17 L 54 3 L 40 3 L 10 3 z "
     id="rect3500" />
  <rect
     style="opacity:1;fill:#2e3132;fill-opacity:0.29411765;stroke:none"
     id="rect4169"
     width="30"
     height="1"
     x="10"
     y="60" />
  <rect
     style="opacity:1;fill:#ffffff;fill-opacity:0.40983605;stroke:none"
     id="rect4236"
     width="44"
     height="1"
     x="10"
     y="3" />
  <path
     style="fill:url(#linearGradient4357);fill-opacity:1.0;fill-rule:evenodd;stroke:none;stroke-width:1px;stroke-linecap:butt;stroke-linejoin:miter;stroke-opacity:1"
     d="M 54,47 40,61 40,47 Z"
     id="path4314"
     inkscape:connector-curvature="0" />
  <path
     inkscape:connector-curvature="0"
     id="path4320"
     d="M 26,61 40,47 40,61 Z"
     style="opacity:0.2;fill:url(#linearGradient4427);fill-opacity:1;fill-rule:evenodd;stroke:none;stroke-width:1px;stroke-linecap:butt;stroke-linejoin:miter;stroke-opacity:1" />
  <path
     inkscape:connector-curvature="0"
     d="m 27.693976,30.331459 c -0.169438,0.774878 -0.860683,1.356897 -1.68563,1.356897 -0.219937,0 -0.398244,0.178254 -0.398244,0.398243 0,0.21999 0.178307,0.398245 0.398244,0.398245 1.262379,0 2.310978,-0.932265 2.493853,-2.144464 0.772913,-0.08358 1.486403,-0.427975 2.038739,-0.991729 0.153937,-0.157121 0.151335,-0.409291 -0.0058,-0.56317 -0.157067,-0.153829 -0.409236,-0.151387 -0.563169,0.0058 -0.48846,0.498602 -1.141789,0.77318 -1.839674,0.77318 -1.420031,0 -2.575304,-1.155279 -2.575304,-2.575308 0,-0.219989 -0.17831,-0.398244 -0.398244,-0.398244 -0.219939,0 -0.398245,0.178255 -0.398245,0.398244 0,1.710589 1.280698,3.126687 2.933459,3.342375 z"
     id="path5"
     style="fill:#d5dadc;fill-opacity:1" />
  <path
     inkscape:connector-curvature="0"
     d="m 29.38014,33.78577 c 0,-0.219989 -0.178307,-0.398243 -0.398245,-0.398243 -1.859212,0 -3.371793,1.512582 -3.371793,3.371793 0,0.01922 7.83e-4,0.03849 0.0011,0.05776 -0.148091,-0.01997 -0.298894,-0.03121 -0.452349,-0.03121 -0.219938,0 -0.398245,0.178255 -0.398245,0.398244 0,0.21999 0.178307,0.398244 0.398245,0.398244 1.420029,0 2.575307,1.155274 2.575307,2.575305 0,0.219989 0.178307,0.398244 0.398241,0.398244 0.219939,0 0.398245,-0.178255 0.398245,-0.398244 0,-1.41302 -0.874116,-2.62506 -2.109682,-3.125785 -0.0095,-0.09022 -0.0143,-0.181491 -0.0143,-0.272558 0,-1.420031 1.155274,-2.575303 2.575303,-2.575303 0.219938,0 0.398243,-0.178257 0.398243,-0.398247 z"
     id="path7"
     style="fill:#d5dadc;fill-opacity:1" />
  <path
     inkscape:connector-curvature="0"
     d="m 42.973512,30.387427 c 0,-0.906667 -0.362137,-1.765864 -1.002244,-2.397742 0.101369,-0.324332 0.152659,-0.659812 0.152659,-1.0006 0,-1.639381 -1.176252,-3.008541 -2.728974,-3.309616 0.118676,-0.295814 0.180216,-0.612924 0.180216,-0.938313 0,-1.038461 -0.630976,-1.932117 -1.529575,-2.318359 -1.497128,-1.192397 -3.134545,-1.90302 -4.390974,-1.90302 -0.698413,0 -1.317761,0.343445 -1.699172,0.869974 -0.381413,-0.526529 -1.00076,-0.869974 -1.699171,-0.869974 -1.256432,0 -2.893852,0.710623 -4.39098,1.90302 -0.898596,0.386242 -1.529572,1.279898 -1.529572,2.318359 0,0.325389 0.06153,0.642499 0.180217,0.938313 -1.552726,0.301075 -2.728975,1.670235 -2.728975,3.309616 0,0.340788 0.05124,0.676218 0.15266,1.0006 -0.640111,0.631878 -1.002245,1.491075 -1.002245,2.397742 0,0.708767 0.220306,1.366826 0.5954,1.910242 -0.3898,0.563489 -0.5954,1.2208 -0.5954,1.912893 0,1.225953 0.668358,2.349211 1.726569,2.941482 -0.0182,0.151435 -0.02738,0.304259 -0.02738,0.456861 0,1.653722 1.078706,3.115806 2.643802,3.614087 0.680786,1.1651 1.92086,1.881673 3.276747,1.881673 1.486509,0 2.775437,-0.859198 3.398343,-2.106653 0.622903,1.247455 1.911835,2.106653 3.398343,2.106653 1.355888,0 2.595962,-0.716573 3.276745,-1.881673 1.565096,-0.498336 2.643807,-1.960419 2.643807,-3.614087 0,-0.152602 -0.0092,-0.305426 -0.02739,-0.456861 1.058213,-0.592271 1.72657,-1.715529 1.72657,-2.941482 0,-0.692093 -0.205598,-1.349404 -0.5954,-1.912893 0.375075,-0.543416 0.595384,-1.201475 0.595384,-1.910242 z M 28.557104,42.30818 c -1.116623,0 -2.134106,-0.615632 -2.655434,-1.606569 -0.05168,-0.09818 -0.141828,-0.170342 -0.248927,-0.199175 -1.306929,-0.351728 -2.219703,-1.541574 -2.219703,-2.893531 0,-0.202304 0.0204,-0.404932 0.06059,-0.602355 0.03728,-0.183033 -0.05772,-0.367446 -0.228432,-0.443377 -0.930243,-0.413535 -1.531325,-1.337035 -1.531325,-2.352611 0,-0.461906 0.119789,-0.903428 0.348383,-1.294502 0.594498,0.524141 1.373939,0.843161 2.226924,0.843161 0.219934,0 0.398245,-0.178255 0.398245,-0.398245 0,-0.219989 -0.178311,-0.39824 -0.398245,-0.39824 -1.420028,0 -2.575307,-1.155278 -2.575307,-2.575309 0,-0.764413 0.337286,-1.484861 0.925411,-1.976402 0.132746,-0.11098 0.178677,-0.294967 0.113633,-0.455272 -0.125737,-0.309885 -0.189457,-0.635116 -0.189457,-0.966668 0,-1.42003 1.155277,-2.575308 2.575306,-2.575308 1.420028,0 2.575308,1.155278 2.575308,2.575308 0,0.219989 0.178305,0.398245 0.398241,0.398245 0.219938,0 0.398244,-0.178256 0.398244,-0.398245 0,-1.78636 -1.396613,-3.251948 -3.155204,-3.364095 -0.159402,-0.266452 -0.243139,-0.569436 -0.243139,-0.883834 0,-0.709883 0.430953,-1.320842 1.044885,-1.585488 0.02372,-0.007 0.047,-0.01629 0.06945,-0.02798 0.190201,-0.07232 0.396176,-0.112253 0.611386,-0.112253 0.666766,0 1.262005,0.372808 1.553468,0.97304 0.09611,0.197903 0.334419,0.280417 0.53221,0.184254 0.197846,-0.09605 0.280365,-0.334309 0.184253,-0.532159 -0.332719,-0.685135 -0.962421,-1.177578 -1.687594,-1.352007 1.016425,-0.6202 2.017073,-0.972299 2.816006,-0.972299 0.717315,0 1.300927,0.58356 1.300927,1.300926 l 0,5.153324 c -0.357837,-0.283867 -0.809763,-0.454049 -1.300927,-0.454049 -0.219938,0 -0.398245,0.17825 -0.398245,0.39824 0,0.21999 0.178307,0.398245 0.398245,0.398245 0.717315,0 1.300927,0.58356 1.300927,1.300927 l 0,9.572658 c -0.495155,-0.638835 -1.193195,-1.120973 -2.01432,-1.3416 -0.212342,-0.05688 -0.430843,0.06886 -0.487924,0.281264 -0.05708,0.212448 0.06887,0.430898 0.281263,0.48793 1.307675,0.351356 2.220977,1.541358 2.220977,2.893952 0,1.654249 -1.34585,3.000102 -3.000099,3.000102 z m 12.088597,-5.744953 c -0.170714,0.07594 -0.265707,0.26029 -0.228432,0.443379 0.04019,0.19742 0.06059,0.400045 0.06059,0.602354 0,1.351957 -0.912775,2.541801 -2.219704,2.893531 -0.107095,0.02884 -0.197314,0.100989 -0.248926,0.199174 -0.521329,0.990883 -1.538815,1.606515 -2.655434,1.606515 -1.65425,0 -3.000099,-1.345853 -3.000099,-3.000102 0,-0.111984 -0.0051,-0.223014 -0.01493,-0.332986 0.0095,-0.03404 0.01493,-0.06976 0.01493,-0.106838 l 0,-13.153555 c 0,-0.717365 0.583612,-1.300927 1.300928,-1.300927 0.219934,0 0.398244,-0.178255 0.398244,-0.398244 0,-0.219989 -0.17831,-0.39824 -0.398244,-0.39824 -0.491169,0 -0.943096,0.170183 -1.300928,0.45405 l 0,-3.454153 c 0,-0.717366 0.583612,-1.300927 1.300928,-1.300927 0.798927,0 1.79958,0.352099 2.816004,0.9723 -0.725175,0.174374 -1.354879,0.666871 -1.687597,1.352005 -0.09611,0.197903 -0.01361,0.436158 0.184257,0.532161 0.197846,0.09611 0.436102,0.01364 0.53221,-0.184253 0.291462,-0.600233 0.886702,-0.973042 1.553468,-0.973042 0.21521,0 0.421236,0.03992 0.611385,0.112255 0.02238,0.01168 0.04566,0.02087 0.06929,0.02794 0.614037,0.264646 1.045044,0.875604 1.045044,1.585538 0,0.314398 -0.08373,0.617382 -0.24314,0.883834 -1.758589,0.112148 -3.155203,1.577736 -3.155203,3.364096 0,0.219989 0.178307,0.398244 0.398242,0.398244 0.219938,0 0.398243,-0.178255 0.398243,-0.398244 0,-1.420031 1.155279,-2.575308 2.575308,-2.575308 1.42003,0 2.575308,1.155277 2.575308,2.575308 0,0.331551 -0.06372,0.656783 -0.189407,0.966668 -0.06504,0.16036 -0.01911,0.344296 0.113633,0.455272 0.588073,0.491539 0.92536,1.211989 0.92536,1.976402 0,1.42003 -1.155278,2.575308 -2.575308,2.575308 -0.219939,0 -0.398244,0.178252 -0.398244,0.398241 0,0.219989 0.178305,0.398244 0.398244,0.398244 0.852986,0 1.632427,-0.31902 2.226924,-0.843162 0.228645,0.391076 0.348384,0.832597 0.348384,1.294503 0,1.015577 -0.601084,1.939078 -1.531325,2.352666 z"
     id="path9"
     style="fill:#d5dadc;fill-opacity:1" />
  <path
     inkscape:connector-curvature="0"
     d="m 38.752134,31.263565 c -0.824951,0 -1.516193,-0.582022 -1.685634,-1.356895 1.652766,-0.215689 2.933463,-1.631791 2.933463,-3.342381 0,-0.219989 -0.178308,-0.398239 -0.398244,-0.398239 -0.219939,0 -0.398244,0.17825 -0.398244,0.398239 0,1.420031 -1.155279,2.575308 -2.575307,2.575308 -0.697882,0 -1.351211,-0.274574 -1.839672,-0.773174 -0.153881,-0.157069 -0.406047,-0.159668 -0.563168,-0.0058 -0.15712,0.153935 -0.159723,0.406048 -0.0058,0.563168 0.552334,0.563754 1.265829,0.908156 2.038741,0.991733 0.182869,1.2122 1.231474,2.144461 2.493851,2.144461 0.219936,0 0.398244,-0.178254 0.398244,-0.398245 0,-0.219989 -0.178308,-0.398241 -0.398244,-0.398241 z"
     id="path11"
     style="fill:#d5dadc;fill-opacity:1" />
  <path
     inkscape:connector-curvature="0"
     d="m 37.477753,35.936284 c -0.153456,0 -0.304258,0.01125 -0.45235,0.03121 3.17e-4,-0.01927 0.0011,-0.03857 0.0011,-0.05776 0,-1.859212 -1.512582,-3.371793 -3.371793,-3.371793 -0.219939,0 -0.398246,0.178254 -0.398246,0.398244 0,0.21999 0.178307,0.398245 0.398246,0.398245 1.420029,0 2.575307,1.155274 2.575307,2.575304 0,0.09102 -0.0048,0.182342 -0.0143,0.272558 -1.235561,0.500725 -2.109682,1.712765 -2.109682,3.125785 0,0.219989 0.178308,0.398244 0.398245,0.398244 0.219934,0 0.398245,-0.178255 0.398245,-0.398244 0,-1.42003 1.155274,-2.575304 2.575304,-2.575304 0.219938,0 0.398244,-0.178256 0.398244,-0.398245 0,-0.21999 -0.178306,-0.398244 -0.398244,-0.398244 z"
     id="path13"
     style="fill:#d5dadc;fill-opacity:1" />
</svg>
