<?xml version="1.0" encoding="UTF-8" standalone="no"?>
<svg
   xmlns:dc="http://purl.org/dc/elements/1.1/"
   xmlns:cc="http://creativecommons.org/ns#"
   xmlns:rdf="http://www.w3.org/1999/02/22-rdf-syntax-ns#"
   xmlns:svg="http://www.w3.org/2000/svg"
   xmlns="http://www.w3.org/2000/svg"
   xmlns:xlink="http://www.w3.org/1999/xlink"
   xmlns:sodipodi="http://sodipodi.sourceforge.net/DTD/sodipodi-0.dtd"
   xmlns:inkscape="http://www.inkscape.org/namespaces/inkscape"
   width="64"
   version="1.1"
   viewBox="0 0 64 64"
   height="64"
   id="svg50"
   inkscape:version="0.91 r13725"
   sodipodi:docname="application-x-lyx.svg">
  <sodipodi:namedview
     pagecolor="#ffffff"
     bordercolor="#666666"
     borderopacity="1"
     objecttolerance="10"
     gridtolerance="10"
     guidetolerance="10"
     inkscape:pageopacity="0"
     inkscape:pageshadow="2"
     inkscape:window-width="1366"
     inkscape:window-height="699"
     id="namedview78"
     showgrid="true"
     inkscape:zoom="11.993145"
     inkscape:cx="29.458477"
     inkscape:cy="32"
     inkscape:window-x="0"
     inkscape:window-y="0"
     inkscape:window-maximized="1"
     inkscape:current-layer="svg50">
    <inkscape:grid
       type="xygrid"
       id="grid4150" />
  </sodipodi:namedview>
  <defs
     id="defs4">
    <linearGradient
       inkscape:collect="always"
       xlink:href="#linearGradient4300"
       id="linearGradient4306-5"
       y1="3"
       y2="61"
       x2="5"
       gradientUnits="userSpaceOnUse"
       gradientTransform="matrix(1,0,0,-1,0,64)"
       x1="5" />
    <linearGradient
       inkscape:collect="always"
       id="linearGradient4300">
      <stop
         style="stop-color:#22a7f0;stop-opacity:1"
         offset="0"
         id="stop4302" />
      <stop
         style="stop-color:#19b5fe;stop-opacity:1"
         offset="1"
         id="stop4304" />
    </linearGradient>
    <linearGradient
       inkscape:collect="always"
       xlink:href="#linearGradient4351"
       id="linearGradient4357-8"
       y1="61"
       y2="47"
       x2="0"
       gradientUnits="userSpaceOnUse"
       gradientTransform="matrix(1,0,0,-1,0,64)" />
    <linearGradient
       inkscape:collect="always"
       id="linearGradient4351">
      <stop
         style="stop-color:#c8e3fe;stop-opacity:1"
         offset="0"
         id="stop4353" />
      <stop
         style="stop-color:#ffffff;stop-opacity:1"
         offset="1"
         id="stop4355" />
    </linearGradient>
    <linearGradient
       inkscape:collect="always"
       xlink:href="#linearGradient4410"
       id="linearGradient4427-5"
       y1="17"
       x1="40"
       y2="31"
       x2="54"
       gradientUnits="userSpaceOnUse" />
    <linearGradient
       inkscape:collect="always"
       id="linearGradient4410">
      <stop
         style="stop-color:#383e51;stop-opacity:1"
         offset="0"
         id="stop4412" />
      <stop
         style="stop-color:#655c6f;stop-opacity:0"
         offset="1"
         id="stop4414" />
    </linearGradient>
  </defs>
  <metadata
     id="metadata84">
    <rdf:RDF>
      <cc:Work
         rdf:about="">
        <dc:format>image/svg+xml</dc:format>
        <dc:type
           rdf:resource="http://purl.org/dc/dcmitype/StillImage" />
      </cc:Work>
    </rdf:RDF>
  </metadata>
  <path
     inkscape:connector-curvature="0"
     style="fill:url(#linearGradient4306-5);fill-opacity:1"
     id="rect3500-9"
     d="m 10,61 0,-58 30,0 14,14 0,30 0,14 -14,0 -30,0 z" />
  <rect
     width="30"
     x="10"
     y="-4"
     height="1"
     style="fill:#ffffff;fill-opacity:0.41176471"
     id="rect4169-2"
     transform="scale(1,-1)" />
  <rect
     width="44"
     x="10"
     y="-61"
     height="1"
     style="fill:#2e3132;fill-opacity:0.29411765"
     id="rect4236-8"
     transform="scale(1,-1)" />
  <path
     inkscape:connector-curvature="0"
     style="fill:url(#linearGradient4357-8);fill-opacity:1;fill-rule:evenodd"
     id="path4314-9"
     d="M 54,17 40,3 40,17 Z" />
  <path
     inkscape:connector-curvature="0"
     style="opacity:0.2;fill:url(#linearGradient4427-5);fill-rule:evenodd"
     id="path4320-7"
     d="M 40,17 54,31 54,17 Z" />
  <g
     transform="matrix(0.02930147,0,0,0.02930147,17.270595,17.677193)"
     id="g6"
     style="fill:#ffffff;fill-opacity:1">
    <path
       inkscape:connector-curvature="0"
       d="m 530.2,118.2 c 0,17.3 -14.1,31.2 -31.4,31.2 l 0,0 c -17.4,0 -31.4,-14 -31.4,-31.2 l 0,-76.9 C 467.4,24 481.5,10 498.8,10 l 0,0 c 17.4,0 31.4,14 31.4,31.3 l 0,76.9 z"
       id="path8"
       style="fill:#ffffff;fill-opacity:1" />
    <path
       inkscape:connector-curvature="0"
       d="m 525.4,662 c 0,14.2 -11.6,25.7 -25.9,25.7 l -1.4,0 c -14.3,0 -25.9,-11.5 -25.9,-25.7 l 0,-83.1 c 0,-14.2 11.6,-25.8 25.9,-25.8 l 1.4,0 c 14.3,0 25.9,11.5 25.9,25.8 l 0,83.1 z"
       id="path10"
       style="fill:#ffffff;fill-opacity:1" />
    <path
       inkscape:connector-curvature="0"
       d="m 825.5,906.7 c 10.4,-10.7 13.8,-27.1 7.1,-41.5 L 572.6,314 c -0.2,-1.5 -0.2,-3.1 -0.2,-4.7 0,-5.4 2,-10.4 5.2,-14.3 31,-23.3 51,-60.3 51,-101.9 0,-70.6 -57.5,-127.7 -128.5,-127.8 -72.3,0 -128.6,57.2 -128.6,127.8 0,41.6 19.9,78.6 50.9,101.9 3.3,3.9 5.3,8.8 5.3,14.3 0,1.6 0,3.2 -0.2,4.7 l -260,551.2 c -6.7,14.3 -3.4,30.8 7.1,41.5 l -41,83.3 64.8,-70.2 c 17.2,4.5 35.6,-3.7 43.4,-20.2 L 489.7,374.2 c 2.3,-2.9 5.8,-4.7 9.8,-4.7 0.2,0 0.6,0 0.6,0 0.2,0 0.4,0 0.6,0 4,0 7.5,1.9 9.7,4.7 l 247.9,525.4 c 7.7,16.6 26.2,24.7 43.3,20.2 L 866.4,990 825.5,906.7 Z M 500.1,266.6 c -41,0 -73.8,-32.9 -73.8,-73.5 0,-40.5 32.9,-73.4 73.8,-73.5 40.8,0 73.8,32.9 73.8,73.5 0,40.6 -33,73.5 -73.8,73.5 z"
       id="path12"
       style="fill:#ffffff;fill-opacity:1" />
    <path
       inkscape:connector-curvature="0"
       d="m 781.7,622.9 c 0,9.3 -7.5,16.8 -16.9,16.8 l -532.1,0 c -9.3,0 -16.9,-7.5 -16.9,-16.8 l 0,-0.1 c 0,-9.3 7.6,-16.8 16.9,-16.8 l 532.1,0 c 9.4,0.1 16.9,7.6 16.9,16.9 l 0,0 z"
       id="path14"
       style="fill:#ffffff;fill-opacity:1" />
  </g>
</svg>
