<?xml version="1.0" encoding="UTF-8" standalone="no"?>
<svg
   xmlns:dc="http://purl.org/dc/elements/1.1/"
   xmlns:cc="http://creativecommons.org/ns#"
   xmlns:rdf="http://www.w3.org/1999/02/22-rdf-syntax-ns#"
   xmlns:svg="http://www.w3.org/2000/svg"
   xmlns="http://www.w3.org/2000/svg"
   xmlns:xlink="http://www.w3.org/1999/xlink"
   xmlns:sodipodi="http://sodipodi.sourceforge.net/DTD/sodipodi-0.dtd"
   xmlns:inkscape="http://www.inkscape.org/namespaces/inkscape"
   width="64"
   version="1.1"
   viewBox="0 0 64 64"
   height="64"
   id="svg2"
   inkscape:version="0.91 r13725"
   sodipodi:docname="application-x-tar.svg">
  <sodipodi:namedview
     pagecolor="#ffffff"
     bordercolor="#666666"
     borderopacity="1"
     objecttolerance="10"
     gridtolerance="10"
     guidetolerance="10"
     inkscape:pageopacity="0"
     inkscape:pageshadow="2"
     inkscape:window-width="1920"
     inkscape:window-height="1025"
     id="namedview24"
     showgrid="true"
     inkscape:zoom="7.375"
     inkscape:cx="39.798176"
     inkscape:cy="30.084339"
     inkscape:window-x="0"
     inkscape:window-y="26"
     inkscape:window-maximized="1"
     inkscape:current-layer="svg2"
     inkscape:object-nodes="true">
    <inkscape:grid
       type="xygrid"
       id="grid4185" />
  </sodipodi:namedview>
  <defs
     id="defs4">
    <linearGradient
       inkscape:collect="always"
       id="linearGradient4300">
      <stop
         style="stop-color:#d24d57"
         id="stop4302" />
      <stop
         offset="1"
         style="stop-color:#d36168"
         id="stop4304" />
    </linearGradient>
    <linearGradient
       id="linearGradient4300-2">
      <stop
         style="stop-color:#3a539b"
         id="stop4302-4" />
      <stop
         offset="1"
         style="stop-color:#3f5aa9"
         id="stop4304-1" />
    </linearGradient>
    <linearGradient
       gradientTransform="matrix(-1,0,0,0.99967455,448.57143,-483.6216)"
       gradientUnits="userSpaceOnUse"
       x2="0"
       y2="499.78421"
       y1="541.79797"
       id="linearGradient4178"
       xlink:href="#linearGradient4300"
       inkscape:collect="always" />
    <linearGradient
       id="linearGradient4300-2-6">
      <stop
         style="stop-color:#913d88"
         id="stop4302-4-7" />
      <stop
         offset="1"
         style="stop-color:#9b4792"
         id="stop4304-1-5" />
    </linearGradient>
  </defs>
  <metadata
     id="metadata84">
    <rdf:RDF>
      <cc:Work
         rdf:about="">
        <dc:format>image/svg+xml</dc:format>
        <dc:type
           rdf:resource="http://purl.org/dc/dcmitype/StillImage" />
      </cc:Work>
    </rdf:RDF>
  </metadata>
  <path
     style="fill:url(#linearGradient4178);fill-opacity:1.0"
     d="m 38,5.99995 4,4 18,0 0,48 -56,0 0,-52 z"
     id="rect4113"
     inkscape:connector-curvature="0"
     sodipodi:nodetypes="ccccccc" />
  <path
     inkscape:connector-curvature="0"
     style="fill:#2e3132;fill-opacity:0.29411765"
     id="path4151-2"
     d="m 4,58.00005 56,0 0,-1 -56,0 c 0,-1e-4 0,1 0,1 z"
     sodipodi:nodetypes="ccccc" />
  <path
     style="fill:#f5dbdc;fill-opacity:1"
     d="m 44,9.99995 z m 0,0 -2,0 0,2 2,0 z m 0,2 0,2 2,0 0,-2 z m 0,2 -2,0 0,2 2,0 z m 0,2 0,2 2,0 0,-2 z m 0,2 -2,0 0,2 2,0 z m 0,2 0,2 2,0 0,-2 z m 0,2 -2,0 0,2 2,0 z"
     id="rect4173-3"
     inkscape:connector-curvature="0"
     sodipodi:nodetypes="ccccccccccccccccccccccccccccccccccccc" />
  <path
     style="fill:#ffffff;fill-opacity:0.40983599"
     d="m 4,5.99995 0,1 35,0 -1,-1 -34,0 z"
     id="rect4236-5-5"
     inkscape:connector-curvature="0" />
  <path
     id="path4748-1"
     d="m 42,24.99995 0,4 1,0 0,4 2,0 0,-4 1,0 0,-4 z m 1,1 2,0 0,2 -2,0 z"
     inkscape:connector-curvature="0"
     style="fill:#f5dbdc;fill-opacity:1;stroke-width:2.79999995;stroke-opacity:0.55" />
  <g
     style="font-style:normal;font-weight:normal;font-size:22.32152557px;line-height:125%;font-family:sans-serif;letter-spacing:0px;word-spacing:0px;fill:#f5dbdc;fill-opacity:1;stroke:none;stroke-width:1px;stroke-linecap:butt;stroke-linejoin:miter;stroke-opacity:1"
     id="text4167"
     transform="translate(-11.959631,0.034431)">
    <path
       d="m 41.123119,52.965519 -1.918257,-4.93733 -6.321525,0 -1.896458,4.93733 -2.027248,0 6.223433,-16 1.809264,0 6.212534,16 -2.081743,0 z m -2.517712,-6.713896 -1.787466,-4.828338 -0.762942,-2.386921 q -0.326976,1.307902 -0.686649,2.386921 l -1.809264,4.828338 5.046321,0 z"
       style="font-style:normal;font-variant:normal;font-weight:normal;font-stretch:normal;font-family:'Noto Sans';-inkscape-font-specification:'Noto Sans';fill:#f5dbdc;fill-opacity:1"
       id="path4172"
       inkscape:connector-curvature="0" />
  </g>
  <path
     inkscape:connector-curvature="0"
     style="color:#4d4d4d;clip-rule:nonzero;display:inline;overflow:visible;visibility:visible;opacity:1;isolation:auto;mix-blend-mode:normal;color-interpolation:sRGB;color-interpolation-filters:linearRGB;solid-color:#000000;solid-opacity:1;fill:#f5dbdc;fill-opacity:1;fill-rule:nonzero;stroke:none;stroke-width:2;stroke-linecap:square;stroke-linejoin:miter;stroke-miterlimit:4;stroke-dasharray:none;stroke-dashoffset:0;stroke-opacity:1;color-rendering:auto;image-rendering:auto;shape-rendering:auto;text-rendering:auto;enable-background:accumulate"
     d="m 33,36.99995 0,16 2,0 0,-6 3.736328,0 3.263672,6 1.757812,-0.955078 -2.933593,-5.394531 A 5,5 0 0 0 44,41.99995 L 43.9922,41.710888 A 5,5 0 0 0 39,36.99995 l -4,0 -2,0 z m 2,2 4,0 0,0.002 a 3,3 0 0 1 2.994141,2.824219 L 42,41.99995 a 3,3 0 0 1 -2.957031,3 A 3,3 0 0 1 39,44.997997 l 0,0.002 -4,0 0,-6 z"
     id="rect4146-3" />
  <path
     style="color:#4d4d4d;clip-rule:nonzero;display:inline;overflow:visible;visibility:visible;opacity:1;isolation:auto;mix-blend-mode:normal;color-interpolation:sRGB;color-interpolation-filters:linearRGB;solid-color:#000000;solid-opacity:1;fill:#f5dbdc;fill-opacity:1;fill-rule:nonzero;stroke:none;stroke-width:2;stroke-linecap:square;stroke-linejoin:miter;stroke-miterlimit:4;stroke-dasharray:none;stroke-dashoffset:0;stroke-opacity:1;color-rendering:auto;image-rendering:auto;shape-rendering:auto;text-rendering:auto;enable-background:accumulate"
     d="M 7 37 L 7 39 L 11 39 L 11 53 L 13 53 L 13 39 L 17 39 L 17 37 L 13 37 L 11 37 L 7 37 z "
     id="rect4187" />
</svg>
