<svg version="1.1" viewBox="0 0 64 64" xmlns="http://www.w3.org/2000/svg" xmlns:xlink="http://www.w3.org/1999/xlink">
    <defs>
        <linearGradient id="a" x2="0" y1="392.36" y2="336.36" gradientTransform="translate(-14-332.36)" gradientUnits="userSpaceOnUse">
            <stop stop-color="#fff" stop-opacity="0" offset="0"/>
            <stop stop-color="#fff" stop-opacity=".15" offset="1"/>
        </linearGradient>
        <path id="b" d="m10 3v58h44v-58h-14z" color="#000000" color-rendering="auto" image-rendering="auto" shape-rendering="auto" text-rendering="auto"/>
    </defs>
    <use fill="#da2c2c" xlink:href="#b"/>
    <g color="#000000" color-rendering="auto" image-rendering="auto" shape-rendering="auto" text-rendering="auto">
        <rect x="10" y="60" width="44" height="1" opacity=".25"/>
        <g fill="#fff">
            <rect x="10" y="3" width="44" height="1" opacity=".5"/>
        </g>
    </g>
    <rect x="16" y="4" width="1" height="56" fill="#fff" fill-opacity=".252"/>
    <rect x="17" y="4" width="1" height="56" color="#000000" color-rendering="auto" fill-opacity=".083" image-rendering="auto" shape-rendering="auto" text-rendering="auto"/>
    <use fill="url(#a)" xlink:href="#b"/>
    <path d="m26 44c-1.108 0-2-0.892-2-2v-20c0-1.108 0.892-2 2-2h16c1.108 0 2 0.892 2 2v20c0 1.108-0.892 2-2 2zm0-2h16v-20h-16zm2-4v-2h12v2zm0-4v-2h12v2zm0-4v-2h12v2zm0-4v-2h12v2z" color="#000000" color-rendering="auto" fill="#f8d3d3" image-rendering="auto" shape-rendering="auto" stroke-width="2" text-rendering="auto"/>
</svg>
