<?xml version="1.0" encoding="UTF-8" standalone="no"?>
<svg width="64" version="1.1" xmlns="http://www.w3.org/2000/svg" viewBox="0 0 64 64" height="64" xmlns:xlink="http://www.w3.org/1999/xlink" xmlns:inkscape="http://www.inkscape.org/namespaces/inkscape">
 <defs id="defs4">
  <linearGradient inkscape:collect="always" xlink:href="#linearGradient4300-8" id="linearGradient4306" y1="61" y2="3" x2="0" gradientUnits="userSpaceOnUse"/>
  <linearGradient inkscape:collect="always" xlink:href="#linearGradient4410" id="linearGradient4427" y1="31" x1="54" y2="17" x2="40" gradientUnits="userSpaceOnUse" gradientTransform="matrix(1 0 0 -1 -14 78)"/>
  <linearGradient inkscape:collect="always" id="linearGradient4410">
   <stop style="stop-color:#383e51" id="stop4412"/>
   <stop offset="1" style="stop-color:#655c6f;stop-opacity:0" id="stop4414"/>
  </linearGradient>
  <linearGradient inkscape:collect="always" xlink:href="#linearGradient4351-7" id="linearGradient4357" y1="61" y2="47" x2="0" gradientUnits="userSpaceOnUse"/>
  <linearGradient inkscape:collect="always" id="linearGradient4351-7">
   <stop style="stop-color:#fb7d80" id="stop4353-9"/>
   <stop offset="1" style="stop-color:#fcbcbe" id="stop4355-6"/>
  </linearGradient>
  <linearGradient inkscape:collect="always" id="linearGradient4300-8">
   <stop style="stop-color:#cf000f" id="stop4302-2"/>
   <stop offset="1" style="stop-color:#d91e18" id="stop4304-7"/>
  </linearGradient>
 </defs>
 <metadata id="metadata84"/>
 <path style="fill:url(#linearGradient4306)" id="rect3500" d="M 10 3 L 10 61 L 40 61 L 54 47 L 54 17 L 54 3 L 40 3 L 10 3 z "/>
 <rect width="30" x="10" y="60" height="1" style="fill:#2e3132;fill-opacity:0.294118" id="rect4169"/>
 <rect width="44" x="10" y="3" height="1" style="fill:#ffffff;fill-opacity:0.409836" id="rect4236"/>
 <path inkscape:connector-curvature="0" style="fill:url(#linearGradient4357);fill-rule:evenodd" id="path4314" d="M 54,47 40,61 40,47 Z"/>
 <path inkscape:connector-curvature="0" style="fill:url(#linearGradient4427);opacity:0.2;fill-rule:evenodd" id="path4320" d="M 26,61 40,47 40,61 Z"/>
 <path style="shape-rendering:auto;color-interpolation-filters:linearRGB;fill:#fcbcbe;image-rendering:auto;text-rendering:auto;color:#000000;color-rendering:auto;color-interpolation:sRGB" id="rect4166" d="M 32 21 C 29.23 21 27 23.23 27 26 L 28 26 C 28 23.784 29.784 22 32 22 C 34.216 22 36 23.784 36 26 L 36 32 L 31 32 L 28 32 L 27 32 L 25 32 L 24 32 L 24 33 L 24 42 L 24 43 L 40 43 L 40 42 L 40 32 L 37 32 L 37 26 C 37 23.23 34.77 21 32 21 z M 25 33 L 39 33 L 39 42 L 25 42 L 25 33 z "/>
</svg>
