<?xml version="1.0" encoding="UTF-8" standalone="no"?>
<svg
   xmlns:dc="http://purl.org/dc/elements/1.1/"
   xmlns:cc="http://creativecommons.org/ns#"
   xmlns:rdf="http://www.w3.org/1999/02/22-rdf-syntax-ns#"
   xmlns:svg="http://www.w3.org/2000/svg"
   xmlns="http://www.w3.org/2000/svg"
   xmlns:xlink="http://www.w3.org/1999/xlink"
   xmlns:sodipodi="http://sodipodi.sourceforge.net/DTD/sodipodi-0.dtd"
   xmlns:inkscape="http://www.inkscape.org/namespaces/inkscape"
   width="64"
   version="1.1"
   viewBox="0 0 64 64"
   height="64"
   id="svg2"
   inkscape:version="0.91 r13725"
   sodipodi:docname="image-vnd.djvu.svg">
  <sodipodi:namedview
     pagecolor="#ffffff"
     bordercolor="#666666"
     borderopacity="1"
     objecttolerance="10"
     gridtolerance="10"
     guidetolerance="10"
     inkscape:pageopacity="0"
     inkscape:pageshadow="2"
     inkscape:window-width="1920"
     inkscape:window-height="1021"
     id="namedview24"
     showgrid="false"
     inkscape:object-nodes="true"
     inkscape:zoom="10.429825"
     inkscape:cx="39.84029"
     inkscape:cy="28.65645"
     inkscape:window-x="0"
     inkscape:window-y="30"
     inkscape:window-maximized="1"
     inkscape:current-layer="svg2">
    <inkscape:grid
       type="xygrid"
       id="grid4152" />
  </sodipodi:namedview>
  <defs
     id="defs4">
    <linearGradient
       id="linearGradient4300-2">
      <stop
         style="stop-color:#f9b425"
         id="stop4302-4" />
      <stop
         offset="1"
         style="stop-color:#f9bf3b"
         id="stop4304-1" />
    </linearGradient>
    <linearGradient
       inkscape:collect="always"
       xlink:href="#linearGradient4300-2"
       id="linearGradient4163"
       x1="30"
       y1="61.152542"
       x2="30"
       y2="2.5762713"
       gradientUnits="userSpaceOnUse" />
  </defs>
  <metadata
     id="metadata84">
    <rdf:RDF>
      <cc:Work
         rdf:about="">
        <dc:format>image/svg+xml</dc:format>
        <dc:type
           rdf:resource="http://purl.org/dc/dcmitype/StillImage" />
        <dc:title />
      </cc:Work>
    </rdf:RDF>
  </metadata>
  <path
     style="fill:url(#linearGradient4163);fill-opacity:1"
     id="rect3500-3"
     d="m 10,3 0,58 30,0 14,0 0,-44 0,-14 -14,0 z"
     inkscape:connector-curvature="0"
     sodipodi:nodetypes="cccccccc" />
  <rect
     width="44"
     x="10"
     y="60"
     height="1"
     style="fill:#2e3132;fill-opacity:0.29411801"
     id="rect4169-6" />
  <rect
     width="44"
     x="10"
     y="3"
     height="1"
     style="fill:#ffffff;fill-opacity:0.40983599"
     id="rect4236-7" />
  <rect
     id="rect4141"
     style="fill:#ffffff;fill-opacity:0.2520661"
     height="56"
     y="4"
     x="16"
     width="1" />
  <rect
     width="1"
     x="17"
     y="4"
     height="56"
     style="color:#000000;clip-rule:nonzero;display:inline;overflow:visible;visibility:visible;opacity:1;isolation:auto;mix-blend-mode:normal;color-interpolation:sRGB;color-interpolation-filters:linearRGB;solid-color:#000000;solid-opacity:1;fill:#000000;fill-opacity:0.08264465;fill-rule:nonzero;stroke-width:1;stroke-linecap:butt;stroke-linejoin:miter;stroke-miterlimit:4;stroke-dasharray:none;stroke-dashoffset:0;stroke-opacity:1;color-rendering:auto;image-rendering:auto;shape-rendering:auto;text-rendering:auto;enable-background:accumulate"
     id="rect4145" />
  <path
     inkscape:connector-curvature="0"
     style="opacity:1;fill:#fde8b9;fill-opacity:1;stroke:none"
     d="m 24,22 0,2.75 0,1.375 0,17.875 1.375,0 c 6.875,0 13.75,0 20.625,0 0,-6.416667 0,-12.833333 0,-19.25 l 0,-2.75 -1,0 0,1 -2,0 0,-1 -2,0 0,1 -2,0 0,-1 -2,0 0,1 -3,0 0,-1 -2,0 0,1 -3,0 0,-1 -2,0 0,1 -2,0 0,-1 z m 1,3 20,0 c 0,6.070034 0,12.197946 0,18 -6.416667,0 -13.583333,0 -20,0 0,-5.5 0,-12.5 0,-18 z m 3,4 0,1 14,0 0,-1 z m 0,4 0,1 8,0 0,-1 z m 0,4 0,1 11,0 0,-1 z m 11,3 0,1 3,0 0,-1 z"
     id="rect4108"
     class="ColorScheme-Text"
     sodipodi:nodetypes="cccccccccccccccccccccccccccccccccccccccccccccccccccccc" />
</svg>
