<?xml version="1.0" encoding="UTF-8" standalone="no"?>
<svg
   xmlns:dc="http://purl.org/dc/elements/1.1/"
   xmlns:cc="http://creativecommons.org/ns#"
   xmlns:rdf="http://www.w3.org/1999/02/22-rdf-syntax-ns#"
   xmlns:svg="http://www.w3.org/2000/svg"
   xmlns="http://www.w3.org/2000/svg"
   xmlns:xlink="http://www.w3.org/1999/xlink"
   xmlns:sodipodi="http://sodipodi.sourceforge.net/DTD/sodipodi-0.dtd"
   xmlns:inkscape="http://www.inkscape.org/namespaces/inkscape"
   width="64"
   version="1.1"
   viewBox="0 0 64 64"
   height="64"
   id="svg2"
   inkscape:version="0.91 r13725"
   sodipodi:docname="image-x-vnd.trolltech.qpicture.svg">
  <sodipodi:namedview
     pagecolor="#ffffff"
     bordercolor="#666666"
     borderopacity="1"
     objecttolerance="10"
     gridtolerance="10"
     guidetolerance="10"
     inkscape:pageopacity="0"
     inkscape:pageshadow="2"
     inkscape:window-width="1920"
     inkscape:window-height="1021"
     id="namedview24"
     showgrid="false"
     inkscape:zoom="3.6875"
     inkscape:cx="62.874331"
     inkscape:cy="-3.7448092"
     inkscape:window-x="0"
     inkscape:window-y="30"
     inkscape:window-maximized="1"
     inkscape:current-layer="svg2" />
  <defs
     id="defs4">
    <linearGradient
       inkscape:collect="always"
       id="linearGradient4300">
      <stop
         style="stop-color:#68c3e0"
         id="stop4302" />
      <stop
         offset="1"
         style="stop-color:#81cfe0"
         id="stop4304" />
    </linearGradient>
    <linearGradient
       inkscape:collect="always"
       xlink:href="#linearGradient4300"
       id="linearGradient4306-3-6"
       y1="61"
       y2="3"
       x2="0"
       gradientUnits="userSpaceOnUse"
       gradientTransform="matrix(1.3181818,0,0,1,-10.181818,0)" />
  </defs>
  <metadata
     id="metadata84">
    <rdf:RDF>
      <cc:Work
         rdf:about="">
        <dc:format>image/svg+xml</dc:format>
        <dc:type
           rdf:resource="http://purl.org/dc/dcmitype/StillImage" />
      </cc:Work>
    </rdf:RDF>
  </metadata>
  <rect
     width="0"
     x="-66.323792"
     y="56.484398"
     height="10.999983"
     style="fill:#036b53"
     id="rect4035" />
  <rect
     width="0"
     x="-66.003021"
     y="57.484398"
     height="10.999983"
     style="fill:#ffffff"
     id="rect4035-67" />
  <rect
     width="0"
     x="-66.323792"
     y="56.484398"
     height="10.999983"
     style="fill:#ffffff"
     id="rect4035-4" />
  <rect
     width="0"
     x="-67.85965"
     y="56.370567"
     height="11.1139"
     style="fill:#fbd2bf"
     id="rect4035-3" />
  <rect
     width="0"
     x="-66.323792"
     y="56.484398"
     height="10.999983"
     style="fill:#fbd2bf"
     id="rect4035-1" />
  <rect
     width="0"
     x="-66.323792"
     y="56.484398"
     height="10.999983"
     style="fill:#fbfbfb"
     id="rect4035-5" />
  <rect
     width="0"
     x="-66.323792"
     y="56.484398"
     height="10.999983"
     style="fill:#fffcf9"
     id="rect4035-8" />
  <rect
     width="0"
     x="-66.003021"
     y="17.4844"
     height="10.999983"
     style="fill:#ffffff"
     id="rect4035-6" />
  <rect
     width="0"
     x="-66.323792"
     y="16.4844"
     height="10.999983"
     style="fill:#ffffff"
     id="rect4035-4-2" />
  <rect
     width="0"
     x="-67.85965"
     y="16.370569"
     height="11.1139"
     style="fill:#fbd2bf"
     id="rect4035-3-9" />
  <rect
     width="0"
     x="-66.323792"
     y="16.4844"
     height="10.999983"
     style="fill:#fbd2bf"
     id="rect4035-1-1" />
  <rect
     width="0"
     x="-66.323792"
     y="16.4844"
     height="10.999983"
     style="fill:#fbfbfb"
     id="rect4035-5-2" />
  <rect
     width="0"
     x="-66.323792"
     y="16.4844"
     height="10.999983"
     style="fill:#fffcf9"
     id="rect4035-8-7" />
  <rect
     width="0"
     x="-66.323792"
     y="16.4844"
     height="10.999983"
     style="fill:#e8d9eb"
     id="rect4035-44" />
  <rect
     width="0"
     x="-106.00302"
     y="17.4844"
     height="10.999983"
     style="fill:#ffffff"
     id="rect4035-62" />
  <rect
     width="0"
     x="-106.32379"
     y="16.4844"
     height="10.999983"
     style="fill:#ffffff"
     id="rect4035-4-9" />
  <rect
     width="0"
     x="-107.85965"
     y="16.370569"
     height="11.1139"
     style="fill:#fbd2bf"
     id="rect4035-3-1" />
  <rect
     width="0"
     x="-106.32379"
     y="16.4844"
     height="10.999983"
     style="fill:#fbd2bf"
     id="rect4035-1-2" />
  <rect
     width="0"
     x="-106.32379"
     y="16.4844"
     height="10.999983"
     style="fill:#fbfbfb"
     id="rect4035-5-7" />
  <rect
     width="0"
     x="-106.32379"
     y="16.4844"
     height="10.999983"
     style="fill:#fffcf9"
     id="rect4035-8-0" />
  <rect
     width="0"
     x="-106.32379"
     y="16.4844"
     height="10.999983"
     style="fill:#e8d9eb"
     id="rect4035-44-9" />
  <rect
     width="0"
     x="-106.32379"
     y="16.4844"
     height="10.999983"
     style="fill:#e8d9eb"
     id="rect4035-7" />
  <rect
     width="0"
     x="-105.05386"
     y="17.4844"
     height="10.999983"
     style="fill:#ffffff"
     id="rect4035-36" />
  <rect
     width="0"
     x="-105.37463"
     y="16.4844"
     height="10.999983"
     style="fill:#ffffff"
     id="rect4035-4-0" />
  <rect
     width="0"
     x="-106.91049"
     y="16.370569"
     height="11.1139"
     style="fill:#fbd2bf"
     id="rect4035-3-6" />
  <rect
     width="0"
     x="-105.37463"
     y="16.4844"
     height="10.999983"
     style="fill:#fbd2bf"
     id="rect4035-1-26" />
  <rect
     width="0"
     x="-105.37463"
     y="16.4844"
     height="10.999983"
     style="fill:#fbfbfb"
     id="rect4035-5-1" />
  <rect
     width="0"
     x="-105.37463"
     y="16.4844"
     height="10.999983"
     style="fill:#fffcf9"
     id="rect4035-8-8" />
  <rect
     width="0"
     x="-105.37463"
     y="16.4844"
     height="10.999983"
     style="fill:#e8d9eb"
     id="rect4035-44-7" />
  <rect
     width="0"
     x="-105.37463"
     y="16.4844"
     height="10.999983"
     style="fill:#e8d9eb"
     id="rect4035-7-9" />
  <path
     style="fill:url(#linearGradient4306-3-6);fill-opacity:1.0"
     id="rect3500-6"
     d="M 3,3 3,61 42.545455,61 61,61 61,17 61,3 42.545455,3 Z"
     inkscape:connector-curvature="0"
     sodipodi:nodetypes="cccccccc" />
  <rect
     width="58"
     x="3"
     y="60"
     height="1"
     style="fill:#2e3132;fill-opacity:0.29411801"
     id="rect4169-7" />
  <rect
     width="58"
     x="3"
     y="3"
     height="1"
     style="fill:#ffffff;fill-opacity:0.40983599"
     id="rect4236-5-5" />
  <rect
     width="58"
     x="3"
     y="42"
     height="1"
     style="fill:#ffffff;fill-opacity:0.41176471"
     id="rect4169-3-35" />
  <rect
     width="58"
     x="3"
     y="21"
     height="1"
     style="fill:#ffffff;fill-opacity:0.41176471"
     id="rect4169-3-6" />
  <rect
     width="58"
     x="3"
     y="-22"
     height="1"
     style="fill:#ffffff;fill-opacity:0.41176471"
     id="rect4169-3-6-7"
     transform="matrix(0,1,-1,0,0,0)" />
  <rect
     width="58"
     x="3"
     y="-43"
     height="1"
     style="fill:#ffffff;fill-opacity:0.41176471"
     id="rect4169-3-6-7-5"
     transform="matrix(0,1,-1,0,0,0)" />
  <path
     inkscape:connector-curvature="0"
     style="fill:#185e76;fill-opacity:1"
     id="rect4166-3"
     d="m 23.5,21 c -1.385,0 -2.5,1.115 -2.5,2.5 0,1.385 1.115,2.5 2.5,2.5 0.805383,0 1.512122,-0.382791 1.96875,-0.970703 1.400455,1.963082 2.230469,4.365183 2.230469,6.970703 0,2.60552 -0.830014,5.007621 -2.230469,6.970703 C 25.012122,38.382791 24.305383,38 23.5,38 22.115,38 21,39.115 21,40.5 c 0,1.385 1.115,2.5 2.5,2.5 1.21386,0 2.219022,-0.855928 2.449219,-2 L 38,41 l 0,1 3,0 0,-3 -3,0 0,1 -12.050781,0 c -3.77e-4,-0.0019 3.8e-4,-0.004 0,-0.0059 -1.27e-4,-6.21e-4 1.27e-4,-0.0013 0,-0.002 1.718845,-2.201872 2.75,-4.969771 2.75,-7.992188 0,-3.022417 -1.031155,-5.792269 -2.75,-7.994141 3.8e-4,-0.0019 -3.77e-4,-0.004 0,-0.0059 L 38,24 l 0,2 5,0 0,-5 -5,0 0,2 -12.050781,0 C 25.719022,21.855928 24.71386,21 23.5,21 Z m 0,1 C 24.331,22 25,22.669 25,23.5 25,24.331 24.331,25 23.5,25 22.669,25 22,24.331 22,23.5 22,22.669 22.669,22 23.5,22 Z m 15.5,0 3,0 0,3 -3,0 0,-3 z M 23.5,39 C 24.331,39 25,39.669 25,40.5 25,41.331 24.331,42 23.5,42 22.669,42 22,41.331 22,40.5 22,39.669 22.669,39 23.5,39 Z m 15.5,1 1,0 0,1 -1,0 0,-1 z" />
</svg>
