<?xml version="1.0" encoding="UTF-8" standalone="no"?>
<svg
   xmlns:dc="http://purl.org/dc/elements/1.1/"
   xmlns:cc="http://creativecommons.org/ns#"
   xmlns:rdf="http://www.w3.org/1999/02/22-rdf-syntax-ns#"
   xmlns:svg="http://www.w3.org/2000/svg"
   xmlns="http://www.w3.org/2000/svg"
   xmlns:xlink="http://www.w3.org/1999/xlink"
   xmlns:sodipodi="http://sodipodi.sourceforge.net/DTD/sodipodi-0.dtd"
   xmlns:inkscape="http://www.inkscape.org/namespaces/inkscape"
   width="64"
   version="1.1"
   viewBox="0 0 64 64"
   height="64"
   id="svg2"
   inkscape:version="0.91 r13725"
   sodipodi:docname="image-x-generic.svg">
  <sodipodi:namedview
     pagecolor="#ffffff"
     bordercolor="#666666"
     borderopacity="1"
     objecttolerance="10"
     gridtolerance="10"
     guidetolerance="10"
     inkscape:pageopacity="0"
     inkscape:pageshadow="2"
     inkscape:window-width="1920"
     inkscape:window-height="1021"
     id="namedview24"
     showgrid="false"
     inkscape:zoom="7.375"
     inkscape:cx="38.719955"
     inkscape:cy="4.671294"
     inkscape:window-x="0"
     inkscape:window-y="30"
     inkscape:window-maximized="1"
     inkscape:current-layer="svg2" />
  <defs
     id="defs4">
    <linearGradient
       id="linearGradient4300-2">
      <stop
         style="stop-color:#7fcc74"
         id="stop4302-4" />
      <stop
         offset="1"
         style="stop-color:#87d37c"
         id="stop4304-1" />
    </linearGradient>
    <linearGradient
       inkscape:collect="always"
       xlink:href="#linearGradient4300-2"
       id="linearGradient4178"
       x1="30"
       y1="57"
       x2="30"
       y2="7"
       gradientUnits="userSpaceOnUse" />
  </defs>
  <metadata
     id="metadata84">
    <rdf:RDF>
      <cc:Work
         rdf:about="">
        <dc:format>image/svg+xml</dc:format>
        <dc:type
           rdf:resource="http://purl.org/dc/dcmitype/StillImage" />
      </cc:Work>
    </rdf:RDF>
  </metadata>
  <path
     sodipodi:nodetypes="cccccc"
     d="m 3.999995,57.000023 0,-49.9999991 46,0 10.00001,-1e-6 0,50.0000001 z"
     id="path5819-3"
     style="color:#000000;clip-rule:nonzero;display:inline;overflow:visible;visibility:visible;opacity:1;isolation:auto;mix-blend-mode:normal;color-interpolation:sRGB;color-interpolation-filters:linearRGB;solid-color:#000000;solid-opacity:1;fill:url(#linearGradient4178);fill-opacity:1.0;fill-rule:nonzero;stroke:none;stroke-width:1;stroke-linecap:butt;stroke-linejoin:miter;stroke-miterlimit:4;stroke-dasharray:none;stroke-dashoffset:0;stroke-opacity:1;marker:none;color-rendering:auto;image-rendering:auto;shape-rendering:auto;text-rendering:auto;enable-background:accumulate"
     inkscape:connector-curvature="0"
     inkscape:export-xdpi="96"
     inkscape:export-ydpi="96" />
  <rect
     id="rect5821-5"
     style="color:#000000;clip-rule:nonzero;display:inline;overflow:visible;visibility:visible;opacity:0.25;isolation:auto;mix-blend-mode:normal;color-interpolation:sRGB;color-interpolation-filters:linearRGB;solid-color:#000000;solid-opacity:1;fill:#000000;fill-opacity:1;fill-rule:nonzero;stroke-width:1;stroke-linecap:butt;stroke-linejoin:miter;stroke-miterlimit:4;stroke-dasharray:none;stroke-dashoffset:0;stroke-opacity:1;color-rendering:auto;image-rendering:auto;shape-rendering:auto;text-rendering:auto;enable-background:accumulate"
     height="1.0000076"
     y="55.999977"
     x="3.9999959"
     width="56" />
  <rect
     id="rect5823-6"
     style="color:#000000;clip-rule:nonzero;display:inline;overflow:visible;visibility:visible;opacity:0.5;isolation:auto;mix-blend-mode:normal;color-interpolation:sRGB;color-interpolation-filters:linearRGB;solid-color:#000000;solid-opacity:1;fill:#ffffff;fill-opacity:1;fill-rule:nonzero;stroke-width:1;stroke-linecap:butt;stroke-linejoin:miter;stroke-miterlimit:4;stroke-dasharray:none;stroke-dashoffset:0;stroke-opacity:1;color-rendering:auto;image-rendering:auto;shape-rendering:auto;text-rendering:auto;enable-background:accumulate"
     height="1"
     y="6.9999771"
     x="3.9999959"
     width="56" />
  <path
     inkscape:connector-curvature="0"
     style="color:#000000;clip-rule:nonzero;display:inline;overflow:visible;visibility:visible;opacity:0.75;isolation:auto;mix-blend-mode:normal;color-interpolation:sRGB;color-interpolation-filters:linearRGB;solid-color:#000000;solid-opacity:1;fill:#e3f5df;fill-opacity:1;fill-rule:nonzero;stroke-width:2;stroke-linecap:square;stroke-linejoin:miter;stroke-miterlimit:4;stroke-dasharray:none;stroke-dashoffset:0;stroke-opacity:1;color-rendering:auto;image-rendering:auto;shape-rendering:auto;text-rendering:auto;enable-background:accumulate"
     d="m 8,11 0,42 48,0 0,-42 -1,0 -47,0 z m 1,1 46,0 0,40 -46,0 0,-40 z m 11.050781,6.34375 0,1.828125 1,0 0,-1.828125 -1,0 z M 17.257812,19.5 16.550781,20.207031 17.84375,21.5 18.550781,20.792969 17.257812,19.5 Z m 6.585938,0 -1.292969,1.292969 L 23.257812,21.5 24.550781,20.207031 23.84375,19.5 Z M 20.5,21 C 19.11929,21 18,22.11929 18,23.5 18,24.88071 19.11929,26 20.5,26 21.88071,26 23,24.88071 23,23.5 23,22.11929 21.88071,21 20.5,21 Z m 0,1 C 21.32843,22 22,22.67157 22,23.5 22,24.32843 21.32843,25 20.5,25 19.67157,25 19,24.32843 19,23.5 19,22.67157 19.67157,22 20.5,22 Z m -5.105469,1 0,1 1.828125,0 0,-1 -1.828125,0 z m 8.484375,0 0,1 1.828125,0 0,-1 -1.828125,0 z M 17.84375,25.5 16.550781,26.792969 17.257812,27.5 18.550781,26.207031 17.84375,25.5 Z m 5.414062,0 -0.707031,0.707031 L 23.84375,27.5 24.550781,26.792969 23.257812,25.5 Z m -3.207031,1.328125 0,1.828125 1,0 0,-1.828125 -1,0 z M 38,28 l -2,2 -0.0078,0 -8.591797,8.580078 0,0.01953 L 22.800781,34 l -10,10 1.40625,0 7.119141,-7.082031 L 22.734375,38 24.298828,36.931641 27.400391,40 l 4,-4 2.951171,-2.935547 L 38,35 41.636719,33.117188 52.59375,44 54,44 38,28 Z"
     id="path5825-2" />
</svg>
