<?xml version="1.0" encoding="UTF-8" standalone="no"?>
<svg
   xmlns:dc="http://purl.org/dc/elements/1.1/"
   xmlns:cc="http://creativecommons.org/ns#"
   xmlns:rdf="http://www.w3.org/1999/02/22-rdf-syntax-ns#"
   xmlns:svg="http://www.w3.org/2000/svg"
   xmlns="http://www.w3.org/2000/svg"
   xmlns:xlink="http://www.w3.org/1999/xlink"
   xmlns:sodipodi="http://sodipodi.sourceforge.net/DTD/sodipodi-0.dtd"
   xmlns:inkscape="http://www.inkscape.org/namespaces/inkscape"
   width="64"
   version="1.1"
   viewBox="0 0 64 64"
   height="64"
   id="svg2"
   inkscape:version="0.91 r13725"
   sodipodi:docname="image-gif.svg">
  <sodipodi:namedview
     pagecolor="#ffffff"
     bordercolor="#666666"
     borderopacity="1"
     objecttolerance="10"
     gridtolerance="10"
     guidetolerance="10"
     inkscape:pageopacity="0"
     inkscape:pageshadow="2"
     inkscape:window-width="1920"
     inkscape:window-height="1021"
     id="namedview24"
     showgrid="false"
     inkscape:object-nodes="true"
     inkscape:zoom="4"
     inkscape:cx="39.747838"
     inkscape:cy="28.305539"
     inkscape:window-x="0"
     inkscape:window-y="30"
     inkscape:window-maximized="1"
     inkscape:current-layer="svg2"
     inkscape:snap-bbox="true"
     inkscape:bbox-nodes="true">
    <inkscape:grid
       type="xygrid"
       id="grid4186" />
  </sodipodi:namedview>
  <defs
     id="defs4">
    <linearGradient
       inkscape:collect="always"
       id="linearGradient6251">
      <stop
         style="stop-color:#ffffff;stop-opacity:0"
         offset="0"
         id="stop6253" />
      <stop
         style="stop-color:#ffffff;stop-opacity:0.2"
         offset="1"
         id="stop6255" />
    </linearGradient>
    <linearGradient
       y2="320.47919"
       x2="58"
       y1="392.36221"
       x1="58"
       gradientTransform="matrix(1,0,0,0.84587337,-38,-283.73462)"
       gradientUnits="userSpaceOnUse"
       id="linearGradient5835-91-3"
       xlink:href="#linearGradient6251"
       inkscape:collect="always" />
    <linearGradient
       inkscape:collect="always"
       xlink:href="#linearGradient6251"
       id="linearGradient4214"
       gradientUnits="userSpaceOnUse"
       gradientTransform="matrix(1,0,0,0.84587337,-44,-272.7346)"
       x1="58"
       y1="392.36221"
       x2="58"
       y2="320.47919" />
  </defs>
  <metadata
     id="metadata84">
    <rdf:RDF>
      <cc:Work
         rdf:about="">
        <dc:format>image/svg+xml</dc:format>
        <dc:type
           rdf:resource="http://purl.org/dc/dcmitype/StillImage" />
      </cc:Work>
    </rdf:RDF>
  </metadata>
  <path
     inkscape:export-ydpi="96"
     inkscape:export-xdpi="96"
     inkscape:connector-curvature="0"
     style="color:#000000;clip-rule:nonzero;display:inline;overflow:visible;visibility:visible;opacity:1;isolation:auto;mix-blend-mode:normal;color-interpolation:sRGB;color-interpolation-filters:linearRGB;solid-color:#000000;solid-opacity:1;fill:#59cfd3;fill-opacity:1;fill-rule:nonzero;stroke:none;stroke-width:1;stroke-linecap:butt;stroke-linejoin:miter;stroke-miterlimit:4;stroke-dasharray:none;stroke-dashoffset:0;stroke-opacity:1;marker:none;color-rendering:auto;image-rendering:auto;shape-rendering:auto;text-rendering:auto;enable-background:accumulate;filter-blend-mode:normal;filter-gaussianBlur-deviation:0"
     id="path4694"
     d="m 4,61.00002 0,-50 56.00001,0 0,36 0,14 -14.00001,0 z"
     sodipodi:nodetypes="ccccccc" />
  <rect
     width="55.999969"
     x="4"
     y="60.000004"
     height="0.99995261"
     style="color:#000000;clip-rule:nonzero;display:inline;overflow:visible;visibility:visible;opacity:0.25;isolation:auto;mix-blend-mode:normal;color-interpolation:sRGB;color-interpolation-filters:linearRGB;solid-color:#000000;solid-opacity:1;fill:#000000;fill-opacity:1;fill-rule:nonzero;stroke-width:1;stroke-linecap:butt;stroke-linejoin:miter;stroke-miterlimit:4;stroke-dasharray:none;stroke-dashoffset:0;stroke-opacity:1;color-rendering:auto;image-rendering:auto;shape-rendering:auto;text-rendering:auto;enable-background:accumulate"
     id="rect4696" />
  <rect
     width="56"
     x="4"
     y="11.000003"
     height="0.99995232"
     style="color:#000000;clip-rule:nonzero;display:inline;overflow:visible;visibility:visible;opacity:0.5;isolation:auto;mix-blend-mode:normal;color-interpolation:sRGB;color-interpolation-filters:linearRGB;solid-color:#000000;solid-opacity:1;fill:#ffffff;fill-opacity:1;fill-rule:nonzero;stroke-width:1;stroke-linecap:butt;stroke-linejoin:miter;stroke-miterlimit:4;stroke-dasharray:none;stroke-dashoffset:0;stroke-opacity:1;color-rendering:auto;image-rendering:auto;shape-rendering:auto;text-rendering:auto;enable-background:accumulate"
     id="rect4698" />
  <path
     style="color:#000000;clip-rule:nonzero;display:inline;overflow:visible;visibility:visible;opacity:0.75;isolation:auto;mix-blend-mode:normal;color-interpolation:sRGB;color-interpolation-filters:linearRGB;solid-color:#000000;solid-opacity:1;fill:#ffffff;fill-opacity:1;fill-rule:nonzero;stroke-width:1;stroke-linecap:butt;stroke-linejoin:miter;stroke-miterlimit:4;stroke-dasharray:none;stroke-dashoffset:0;stroke-opacity:1;color-rendering:auto;image-rendering:auto;shape-rendering:auto;text-rendering:auto;enable-background:accumulate;filter-blend-mode:normal;filter-gaussianBlur-deviation:0"
     d="m 21.05078,21.34377 0,1.82812 1,0 0,-1.82812 z m -2.79297,1.15625 -0.70703,0.70703 1.29297,1.29297 0.70703,-0.70703 z m 6.58594,0 -1.29297,1.29297 0.70703,0.70703 1.29297,-1.29297 z m -3.34375,1.5 c -1.38071,0 -2.5,1.11929 -2.5,2.5 0,1.38071 1.11929,2.5 2.5,2.5 1.38071,0 2.5,-1.11929 2.5,-2.5 0,-1.38071 -1.11929,-2.5 -2.5,-2.5 z m 0,1 c 0.82843,0 1.5,0.67157 1.5,1.5 0,0.82843 -0.67157,1.5 -1.5,1.5 -0.82843,0 -1.5,-0.67157 -1.5,-1.5 0,-0.82843 0.67157,-1.5 1.5,-1.5 z m -5.10547,1 0,1 1.82813,0 0,-1 z m 8.48438,0 0,1 1.82812,0 0,-1 z m 14.12109,5 -2,2 -0.008,0 -8.5918,8.58008 0,0.0195 -4.59962,-4.59961 -9,9 1.40625,0 6.11914,-6.08203 1.40867,-1.40411 1.56399,1.41778 3.10156,3.06836 4,-4 2.95117,-2.93555 3.64844,-3.46217 3.63672,3.51494 7.95703,7.88281 1.40625,0 z m -20.15625,-2.5 -1.29297,1.29297 0.70703,0.70703 1.29297,-1.29297 z m 5.41406,0 -0.70703,0.70703 1.29297,1.29297 0.70703,-0.70703 z m -3.20703,1.32812 0,1.82813 1,0 0,-1.82813 z"
     id="path4708"
     inkscape:connector-curvature="0"
     sodipodi:nodetypes="cccccccccccccccsssssssssscccccccccccccccccccccccccccccccccccccccccccc" />
  <path
     sodipodi:nodetypes="ccccccc"
     d="m 4,61.00002 0,-50 56.00001,0 0,36 0,14 -14.00001,0 z"
     id="path4202"
     style="color:#000000;clip-rule:nonzero;display:inline;overflow:visible;visibility:visible;opacity:1;isolation:auto;mix-blend-mode:normal;color-interpolation:sRGB;color-interpolation-filters:linearRGB;solid-color:#000000;solid-opacity:1;fill:url(#linearGradient4214);fill-opacity:1;fill-rule:nonzero;stroke:none;stroke-width:1;stroke-linecap:butt;stroke-linejoin:miter;stroke-miterlimit:4;stroke-dasharray:none;stroke-dashoffset:0;stroke-opacity:1;marker:none;color-rendering:auto;image-rendering:auto;shape-rendering:auto;text-rendering:auto;enable-background:accumulate"
     inkscape:connector-curvature="0"
     inkscape:export-xdpi="96"
     inkscape:export-ydpi="96" />
  <path
     style="fill:#ffffff;fill-opacity:1;stroke:none;stroke-width:1;stroke-miterlimit:4;stroke-dasharray:none;stroke-opacity:1;color:#000000;clip-rule:nonzero;display:inline;overflow:visible;visibility:visible;opacity:0.5;isolation:auto;mix-blend-mode:normal;color-interpolation:sRGB;color-interpolation-filters:linearRGB;solid-color:#000000;solid-opacity:1;fill-rule:evenodd;stroke-linecap:butt;stroke-linejoin:miter;stroke-dashoffset:0;filter-blend-mode:normal;filter-gaussianBlur-deviation:0;color-rendering:auto;image-rendering:auto;shape-rendering:auto;text-rendering:auto;enable-background:accumulate"
     d="m 6,13 0,4 4,0 0,-4 -4,0 z m 6,0 0,4 4,0 0,-4 -4,0 z m 6,0 0,4 4,0 0,-4 -4,0 z m 6,0 0,4 4,0 0,-4 -4,0 z m 6,0 0,4 4,0 0,-4 -4,0 z m 6,0 0,4 4,0 0,-4 -4,0 z m 6,0 0,4 4,0 0,-4 -4,0 z m 6,0 0,4 4,0 0,-4 -4,0 z m 6,0 0,4 4,0 0,-4 -4,0 z m -48,42 0,4 4,0 0,-4 -4,0 z m 6,0 0,4 4,0 0,-4 -4,0 z m 6,0 0,4 4,0 0,-4 -4,0 z m 6,0 0,4 4,0 0,-4 -4,0 z m 6,0 0,4 4,0 0,-4 -4,0 z m 6,0 0,4 4,0 0,-4 -4,0 z m 6,0 0,4 4,0 0,-4 -4,0 z m 6,0 0,4 4,0 0,-4 -4,0 z m 6,0 0,4 4,0 0,-4 -4,0 z"
     id="rect4159-3"
     inkscape:connector-curvature="0" />
</svg>
