<?xml version="1.0" encoding="UTF-8" standalone="no"?>
<svg
   xmlns:dc="http://purl.org/dc/elements/1.1/"
   xmlns:cc="http://creativecommons.org/ns#"
   xmlns:rdf="http://www.w3.org/1999/02/22-rdf-syntax-ns#"
   xmlns:svg="http://www.w3.org/2000/svg"
   xmlns="http://www.w3.org/2000/svg"
   xmlns:xlink="http://www.w3.org/1999/xlink"
   xmlns:sodipodi="http://sodipodi.sourceforge.net/DTD/sodipodi-0.dtd"
   xmlns:inkscape="http://www.inkscape.org/namespaces/inkscape"
   width="64"
   version="1.1"
   viewBox="0 0 64 64"
   height="64"
   id="svg2"
   inkscape:version="0.91 r13725"
   sodipodi:docname="image-x-vnd.trolltech.qpicture.svg">
  <sodipodi:namedview
     pagecolor="#ffffff"
     bordercolor="#666666"
     borderopacity="1"
     objecttolerance="10"
     gridtolerance="10"
     guidetolerance="10"
     inkscape:pageopacity="0"
     inkscape:pageshadow="2"
     inkscape:window-width="1854"
     inkscape:window-height="1051"
     id="namedview24"
     showgrid="false"
     inkscape:zoom="10.429825"
     inkscape:cx="34.177744"
     inkscape:cy="37.008316"
     inkscape:window-x="66"
     inkscape:window-y="0"
     inkscape:window-maximized="1"
     inkscape:current-layer="svg2" />
  <defs
     id="defs4">
    <linearGradient
       inkscape:collect="always"
       id="linearGradient4300-4">
      <stop
         style="stop-color:#03c9a9"
         id="stop4302-3" />
      <stop
         offset="1"
         style="stop-color:#36d7b7"
         id="stop4304-1" />
    </linearGradient>
    <linearGradient
       inkscape:collect="always"
       xlink:href="#linearGradient4300-4"
       id="linearGradient4306-3"
       y1="61"
       y2="3"
       x2="0"
       gradientUnits="userSpaceOnUse"
       gradientTransform="matrix(1.3181818,0,0,1,-10.181818,0)" />
  </defs>
  <metadata
     id="metadata84">
    <rdf:RDF>
      <cc:Work
         rdf:about="">
        <dc:format>image/svg+xml</dc:format>
        <dc:type
           rdf:resource="http://purl.org/dc/dcmitype/StillImage" />
      </cc:Work>
    </rdf:RDF>
  </metadata>
  <path
     style="fill:url(#linearGradient4306-3);fill-opacity:1.0"
     id="rect3500-3"
     d="M 3,3 3,61 42.545455,61 61,61 61,17 61,3 42.545455,3 Z"
     inkscape:connector-curvature="0"
     sodipodi:nodetypes="cccccccc" />
  <rect
     width="58"
     x="3"
     y="60"
     height="1"
     style="fill:#2e3132;fill-opacity:0.29411801"
     id="rect4169-5" />
  <rect
     width="58"
     x="3"
     y="3"
     height="1"
     style="fill:#ffffff;fill-opacity:0.40983599"
     id="rect4236-6" />
  <path
     style="fill:#127666"
     id="rect4166"
     d="m 23.5,21 c -1.385,0 -2.5,1.115 -2.5,2.5 0,1.385 1.115,2.5 2.5,2.5 0.805383,0 1.512122,-0.38279 1.96875,-0.9707 1.400455,1.96308 2.230469,4.36518 2.230469,6.9707 0,2.60552 -0.830014,5.00762 -2.230469,6.9707 C 25.012122,38.38279 24.305383,38 23.5,38 22.115,38 21,39.115 21,40.5 c 0,1.385 1.115,2.5 2.5,2.5 1.21386,0 2.219022,-0.85593 2.449219,-2 L 38,41 l 0,1 3,0 0,-3 -3,0 0,1 -12.050781,0 c -3.77e-4,-0.002 3.8e-4,-0.004 0,-0.006 -1.27e-4,-6.2e-4 1.27e-4,-10e-4 0,-0.002 1.718845,-2.20187 2.75,-4.96977 2.75,-7.99219 0,-3.02241 -1.031155,-5.79227 -2.75,-7.99414 3.8e-4,-0.002 -3.77e-4,-0.004 0,-0.006 L 38,24 l 0,2 5,0 0,-5 -5,0 0,2 -12.050781,0 C 25.719022,21.85593 24.71386,21 23.5,21 Z m 0,1 C 24.331,22 25,22.669 25,23.5 25,24.331 24.331,25 23.5,25 22.669,25 22,24.331 22,23.5 22,22.669 22.669,22 23.5,22 Z m 15.5,0 3,0 0,3 -3,0 0,-3 z M 23.5,39 C 24.331,39 25,39.669 25,40.5 25,41.331 24.331,42 23.5,42 22.669,42 22,41.331 22,40.5 22,39.669 22.669,39 23.5,39 Z m 15.5,1 1,0 0,1 -1,0 0,-1 z"
     inkscape:connector-curvature="0" />
</svg>
