<?xml version="1.0" encoding="UTF-8" standalone="no"?>
<svg
   xmlns:dc="http://purl.org/dc/elements/1.1/"
   xmlns:cc="http://creativecommons.org/ns#"
   xmlns:rdf="http://www.w3.org/1999/02/22-rdf-syntax-ns#"
   xmlns:svg="http://www.w3.org/2000/svg"
   xmlns="http://www.w3.org/2000/svg"
   xmlns:xlink="http://www.w3.org/1999/xlink"
   xmlns:sodipodi="http://sodipodi.sourceforge.net/DTD/sodipodi-0.dtd"
   xmlns:inkscape="http://www.inkscape.org/namespaces/inkscape"
   width="64"
   version="1.1"
   viewBox="0 0 64 64"
   height="64"
   id="svg2"
   inkscape:version="0.91 r13725"
   sodipodi:docname="image-bmp.svg">
  <sodipodi:namedview
     pagecolor="#ffffff"
     bordercolor="#666666"
     borderopacity="1"
     objecttolerance="10"
     gridtolerance="10"
     guidetolerance="10"
     inkscape:pageopacity="0"
     inkscape:pageshadow="2"
     inkscape:window-width="1920"
     inkscape:window-height="1021"
     id="namedview24"
     showgrid="false"
     inkscape:zoom="10.429825"
     inkscape:cx="34.596238"
     inkscape:cy="30.872668"
     inkscape:window-x="0"
     inkscape:window-y="30"
     inkscape:window-maximized="1"
     inkscape:current-layer="svg2"
     inkscape:object-nodes="true">
    <inkscape:grid
       type="xygrid"
       id="grid4180" />
  </sodipodi:namedview>
  <defs
     id="defs4">
    <linearGradient
       inkscape:collect="always"
       id="linearGradient4300">
      <stop
         style="stop-color:#8e44ad"
         id="stop4302" />
      <stop
         offset="1"
         style="stop-color:#9b59b6"
         id="stop4304" />
    </linearGradient>
    <linearGradient
       inkscape:collect="always"
       xlink:href="#linearGradient4300"
       id="linearGradient4178"
       x1="30"
       y1="57"
       x2="30"
       y2="7"
       gradientUnits="userSpaceOnUse" />
  </defs>
  <metadata
     id="metadata84">
    <rdf:RDF>
      <cc:Work
         rdf:about="">
        <dc:format>image/svg+xml</dc:format>
        <dc:type
           rdf:resource="http://purl.org/dc/dcmitype/StillImage" />
      </cc:Work>
    </rdf:RDF>
  </metadata>
  <path
     sodipodi:nodetypes="cccccc"
     d="m 3.999995,57.000023 0,-49.999999 46,0 10.00001,-1e-6 0,50 z"
     id="path5819-3"
     style="color:#000000;clip-rule:nonzero;display:inline;overflow:visible;visibility:visible;opacity:1;isolation:auto;mix-blend-mode:normal;color-interpolation:sRGB;color-interpolation-filters:linearRGB;solid-color:#000000;solid-opacity:1;fill:url(#linearGradient4178);fill-opacity:1;fill-rule:nonzero;stroke:none;stroke-width:1;stroke-linecap:butt;stroke-linejoin:miter;stroke-miterlimit:4;stroke-dasharray:none;stroke-dashoffset:0;stroke-opacity:1;marker:none;color-rendering:auto;image-rendering:auto;shape-rendering:auto;text-rendering:auto;enable-background:accumulate"
     inkscape:connector-curvature="0"
     inkscape:export-xdpi="96"
     inkscape:export-ydpi="96" />
  <rect
     id="rect5821-5"
     style="color:#000000;clip-rule:nonzero;display:inline;overflow:visible;visibility:visible;opacity:0.25;isolation:auto;mix-blend-mode:normal;color-interpolation:sRGB;color-interpolation-filters:linearRGB;solid-color:#000000;solid-opacity:1;fill:#000000;fill-opacity:1;fill-rule:nonzero;stroke-width:1;stroke-linecap:butt;stroke-linejoin:miter;stroke-miterlimit:4;stroke-dasharray:none;stroke-dashoffset:0;stroke-opacity:1;color-rendering:auto;image-rendering:auto;shape-rendering:auto;text-rendering:auto;enable-background:accumulate"
     height="1.0000076"
     y="55.999977"
     x="3.9999959"
     width="56" />
  <rect
     id="rect5823-6"
     style="color:#000000;clip-rule:nonzero;display:inline;overflow:visible;visibility:visible;opacity:0.5;isolation:auto;mix-blend-mode:normal;color-interpolation:sRGB;color-interpolation-filters:linearRGB;solid-color:#000000;solid-opacity:1;fill:#ffffff;fill-opacity:1;fill-rule:nonzero;stroke-width:1;stroke-linecap:butt;stroke-linejoin:miter;stroke-miterlimit:4;stroke-dasharray:none;stroke-dashoffset:0;stroke-opacity:1;color-rendering:auto;image-rendering:auto;shape-rendering:auto;text-rendering:auto;enable-background:accumulate"
     height="1"
     y="6.9999771"
     x="3.9999959"
     width="56" />
  <path
     style="color:#000000;clip-rule:nonzero;display:inline;overflow:visible;visibility:visible;opacity:0.75;isolation:auto;mix-blend-mode:normal;color-interpolation:sRGB;color-interpolation-filters:linearRGB;solid-color:#000000;solid-opacity:1;fill:#ffffff;fill-opacity:1;fill-rule:nonzero;stroke-width:2;stroke-linecap:square;stroke-linejoin:miter;stroke-miterlimit:4;stroke-dasharray:none;stroke-dashoffset:0;stroke-opacity:1;color-rendering:auto;image-rendering:auto;shape-rendering:auto;text-rendering:auto;enable-background:accumulate"
     d="M 8 11 L 8 53 L 56 53 L 56 11 L 55 11 L 8 11 z M 9 12 L 55 12 L 55 52 L 9 52 L 9 12 z M 20.050781 18.34375 L 20.050781 20.171875 L 21.050781 20.171875 L 21.050781 18.34375 L 20.050781 18.34375 z M 17.257812 19.5 L 16.550781 20.207031 L 17.84375 21.5 L 18.550781 20.792969 L 17.257812 19.5 z M 23.84375 19.5 L 22.550781 20.792969 L 23.257812 21.5 L 24.550781 20.207031 L 23.84375 19.5 z M 20.5 21 C 19.11929 21 18 22.11929 18 23.5 C 18 24.88071 19.11929 26 20.5 26 C 21.88071 26 23 24.88071 23 23.5 C 23 22.11929 21.88071 21 20.5 21 z M 20.5 22 C 21.32843 22 22 22.67157 22 23.5 C 22 24.32843 21.32843 25 20.5 25 C 19.67157 25 19 24.32843 19 23.5 C 19 22.67157 19.67157 22 20.5 22 z M 15.394531 23 L 15.394531 24 L 17.222656 24 L 17.222656 23 L 15.394531 23 z M 23.878906 23 L 23.878906 24 L 25.707031 24 L 25.707031 23 L 23.878906 23 z M 17.84375 25.5 L 16.550781 26.792969 L 17.257812 27.5 L 18.550781 26.207031 L 17.84375 25.5 z M 23.257812 25.5 L 22.550781 26.207031 L 23.84375 27.5 L 24.550781 26.792969 L 23.257812 25.5 z M 20.050781 26.828125 L 20.050781 28.65625 L 21.050781 28.65625 L 21.050781 26.828125 L 20.050781 26.828125 z M 38 28 L 36 30 L 35.992188 30 L 27.400391 38.580078 L 27.400391 38.599609 L 22.800781 34 L 12.800781 44 L 14.207031 44 L 21.326172 36.917969 L 22.734375 38 L 24.298828 36.931641 L 27.400391 40 L 31.400391 36 L 34.351562 33.064453 L 38 35 L 41.636719 33.117188 L 52.59375 44 L 54 44 L 38 28 z "
     id="path5825-2" />
</svg>
