<?xml version="1.0" encoding="UTF-8" standalone="no"?>
<svg
   xmlns:dc="http://purl.org/dc/elements/1.1/"
   xmlns:cc="http://creativecommons.org/ns#"
   xmlns:rdf="http://www.w3.org/1999/02/22-rdf-syntax-ns#"
   xmlns:svg="http://www.w3.org/2000/svg"
   xmlns="http://www.w3.org/2000/svg"
   xmlns:xlink="http://www.w3.org/1999/xlink"
   xmlns:sodipodi="http://sodipodi.sourceforge.net/DTD/sodipodi-0.dtd"
   xmlns:inkscape="http://www.inkscape.org/namespaces/inkscape"
   width="64"
   version="1.1"
   viewBox="0 0 64 64"
   height="64"
   id="svg2"
   inkscape:version="0.91 r13725"
   sodipodi:docname="image-x-vnd.trolltech.qpicture.svg">
  <sodipodi:namedview
     pagecolor="#ffffff"
     bordercolor="#666666"
     borderopacity="1"
     objecttolerance="10"
     gridtolerance="10"
     guidetolerance="10"
     inkscape:pageopacity="0"
     inkscape:pageshadow="2"
     inkscape:window-width="1920"
     inkscape:window-height="1021"
     id="namedview24"
     showgrid="false"
     inkscape:zoom="1"
     inkscape:cx="20.21747"
     inkscape:cy="9.5226902"
     inkscape:window-x="0"
     inkscape:window-y="30"
     inkscape:window-maximized="1"
     inkscape:current-layer="svg2"
     inkscape:snap-bbox="true"
     inkscape:bbox-nodes="true">
    <inkscape:grid
       type="xygrid"
       id="grid4348" />
  </sodipodi:namedview>
  <defs
     id="defs4">
    <linearGradient
       inkscape:collect="always"
       id="linearGradient9654">
      <stop
         style="stop-color:#060606;stop-opacity:1"
         offset="0"
         id="stop9656" />
      <stop
         style="stop-color:#000000;stop-opacity:0"
         offset="1"
         id="stop9658" />
    </linearGradient>
    <linearGradient
       inkscape:collect="always"
       id="linearGradient6251">
      <stop
         style="stop-color:#ffffff;stop-opacity:0"
         offset="0"
         id="stop6253" />
      <stop
         style="stop-color:#ffffff;stop-opacity:0.2"
         offset="1"
         id="stop6255" />
    </linearGradient>
    <linearGradient
       id="linearGradient4300-3">
      <stop
         id="stop4302-0"
         style="stop-color:#f39c12" />
      <stop
         id="stop4304-0"
         style="stop-color:#f9a11f"
         offset="1" />
    </linearGradient>
    <linearGradient
       y2="336.36221"
       x2="58"
       y1="392.36221"
       x1="58"
       gradientTransform="translate(-57.999999,-335.36221)"
       gradientUnits="userSpaceOnUse"
       id="linearGradient7446-0"
       xlink:href="#linearGradient6251"
       inkscape:collect="always" />
    <linearGradient
       y2="336.36221"
       x2="58"
       y1="392.36221"
       x1="58"
       gradientTransform="translate(-58,-335.36221)"
       gradientUnits="userSpaceOnUse"
       id="linearGradient7171-1"
       xlink:href="#linearGradient6251"
       inkscape:collect="always" />
    <linearGradient
       y2="31"
       x2="54"
       y1="17"
       x1="40"
       gradientTransform="translate(0,5e-6)"
       gradientUnits="userSpaceOnUse"
       id="linearGradient4890"
       xlink:href="#linearGradient9654"
       inkscape:collect="always" />
    <linearGradient
       y2="336.36221"
       x2="58"
       y1="392.36221"
       x1="58"
       gradientTransform="translate(-48,-332.36221)"
       gradientUnits="userSpaceOnUse"
       id="linearGradient4892"
       xlink:href="#linearGradient6251"
       inkscape:collect="always" />
  </defs>
  <metadata
     id="metadata84">
    <rdf:RDF>
      <cc:Work
         rdf:about="">
        <dc:format>image/svg+xml</dc:format>
        <dc:type
           rdf:resource="http://purl.org/dc/dcmitype/StillImage" />
      </cc:Work>
    </rdf:RDF>
  </metadata>
  <rect
     width="0"
     x="-66.323792"
     y="56.484398"
     height="10.999983"
     style="fill:#036b53"
     id="rect4035" />
  <rect
     width="0"
     x="-66.003021"
     y="57.484398"
     height="10.999983"
     style="fill:#ffffff"
     id="rect4035-67" />
  <rect
     width="0"
     x="-66.323792"
     y="56.484398"
     height="10.999983"
     style="fill:#ffffff"
     id="rect4035-4" />
  <rect
     width="0"
     x="-67.85965"
     y="56.370567"
     height="11.1139"
     style="fill:#fbd2bf"
     id="rect4035-3" />
  <rect
     width="0"
     x="-66.323792"
     y="56.484398"
     height="10.999983"
     style="fill:#fbd2bf"
     id="rect4035-1" />
  <rect
     width="0"
     x="-66.323792"
     y="56.484398"
     height="10.999983"
     style="fill:#fbfbfb"
     id="rect4035-5" />
  <rect
     width="0"
     x="-66.323792"
     y="56.484398"
     height="10.999983"
     style="fill:#fffcf9"
     id="rect4035-8" />
  <rect
     width="0"
     x="-66.003021"
     y="17.4844"
     height="10.999983"
     style="fill:#ffffff"
     id="rect4035-6" />
  <rect
     width="0"
     x="-66.323792"
     y="16.4844"
     height="10.999983"
     style="fill:#ffffff"
     id="rect4035-4-2" />
  <rect
     width="0"
     x="-67.85965"
     y="16.370569"
     height="11.1139"
     style="fill:#fbd2bf"
     id="rect4035-3-9" />
  <rect
     width="0"
     x="-66.323792"
     y="16.4844"
     height="10.999983"
     style="fill:#fbd2bf"
     id="rect4035-1-1" />
  <rect
     width="0"
     x="-66.323792"
     y="16.4844"
     height="10.999983"
     style="fill:#fbfbfb"
     id="rect4035-5-2" />
  <rect
     width="0"
     x="-66.323792"
     y="16.4844"
     height="10.999983"
     style="fill:#fffcf9"
     id="rect4035-8-7" />
  <rect
     width="0"
     x="-66.323792"
     y="16.4844"
     height="10.999983"
     style="fill:#e8d9eb"
     id="rect4035-44" />
  <rect
     width="0"
     x="-106.00302"
     y="17.4844"
     height="10.999983"
     style="fill:#ffffff"
     id="rect4035-62" />
  <rect
     width="0"
     x="-106.32379"
     y="16.4844"
     height="10.999983"
     style="fill:#ffffff"
     id="rect4035-4-9" />
  <rect
     width="0"
     x="-107.85965"
     y="16.370569"
     height="11.1139"
     style="fill:#fbd2bf"
     id="rect4035-3-1" />
  <rect
     width="0"
     x="-106.32379"
     y="16.4844"
     height="10.999983"
     style="fill:#fbd2bf"
     id="rect4035-1-2" />
  <rect
     width="0"
     x="-106.32379"
     y="16.4844"
     height="10.999983"
     style="fill:#fbfbfb"
     id="rect4035-5-7" />
  <rect
     width="0"
     x="-106.32379"
     y="16.4844"
     height="10.999983"
     style="fill:#fffcf9"
     id="rect4035-8-0" />
  <rect
     width="0"
     x="-106.32379"
     y="16.4844"
     height="10.999983"
     style="fill:#e8d9eb"
     id="rect4035-44-9" />
  <rect
     width="0"
     x="-106.32379"
     y="16.4844"
     height="10.999983"
     style="fill:#e8d9eb"
     id="rect4035-7" />
  <rect
     width="0"
     x="-105.05386"
     y="17.4844"
     height="10.999983"
     style="fill:#ffffff"
     id="rect4035-36" />
  <rect
     width="0"
     x="-105.37463"
     y="16.4844"
     height="10.999983"
     style="fill:#ffffff"
     id="rect4035-4-0" />
  <rect
     width="0"
     x="-106.91049"
     y="16.370569"
     height="11.1139"
     style="fill:#fbd2bf"
     id="rect4035-3-6" />
  <rect
     width="0"
     x="-105.37463"
     y="16.4844"
     height="10.999983"
     style="fill:#fbd2bf"
     id="rect4035-1-26" />
  <rect
     width="0"
     x="-105.37463"
     y="16.4844"
     height="10.999983"
     style="fill:#fbfbfb"
     id="rect4035-5-1" />
  <rect
     width="0"
     x="-105.37463"
     y="16.4844"
     height="10.999983"
     style="fill:#fffcf9"
     id="rect4035-8-8" />
  <rect
     width="0"
     x="-105.37463"
     y="16.4844"
     height="10.999983"
     style="fill:#e8d9eb"
     id="rect4035-44-7" />
  <rect
     width="0"
     x="-105.37463"
     y="16.4844"
     height="10.999983"
     style="fill:#e8d9eb"
     id="rect4035-7-9" />
  <rect
     width="0"
     x="-53.833336"
     y="22.833298"
     height="20.166639"
     style="fill:#5e6b78"
     id="rect4035-27" />
  <rect
     width="0"
     x="137.64157"
     y="23.999973"
     height="21.99995"
     style="fill:#ffffff"
     id="rect4035-75" />
  <rect
     width="0"
     x="137.00003"
     y="21.999975"
     height="21.99995"
     style="fill:#ffffff"
     id="rect4035-4-09" />
  <rect
     width="0"
     x="133.92828"
     y="21.772314"
     height="22.227785"
     style="fill:#fbd2bf"
     id="rect4035-3-36" />
  <rect
     width="0"
     x="137.00003"
     y="21.999975"
     height="21.99995"
     style="fill:#fbd2bf"
     id="rect4035-1-0" />
  <rect
     width="0"
     x="177"
     y="21.999975"
     height="21.99995"
     style="fill:#fbfbfb"
     id="rect4035-2" />
  <rect
     width="0"
     x="137.00003"
     y="21.999975"
     height="21.99995"
     style="fill:#fbfbfb"
     id="rect4035-8-6" />
  <rect
     width="0"
     x="-22.35836"
     y="23.999973"
     height="21.99995"
     style="fill:#ffffff"
     id="rect4035-7-2" />
  <rect
     width="0"
     x="-22.999901"
     y="21.999975"
     height="21.99995"
     style="fill:#ffffff"
     id="rect4035-4-5" />
  <rect
     width="0"
     x="-26.071617"
     y="21.772314"
     height="22.227785"
     style="fill:#fbd2bf"
     id="rect4035-3-3" />
  <rect
     width="0"
     x="-22.999901"
     y="21.999975"
     height="21.99995"
     style="fill:#fbd2bf"
     id="rect4035-1-5" />
  <rect
     width="0"
     x="57.64159"
     y="-43.999958"
     height="21.99995"
     style="fill:#ffffff"
     id="rect4035-5-6"
     transform="scale(1,-1)" />
  <rect
     width="0"
     x="57.00005"
     y="-45.999958"
     height="21.99995"
     style="fill:#ffffff"
     id="rect4035-4-6"
     transform="scale(1,-1)" />
  <rect
     width="0"
     x="53.928337"
     y="-46.227619"
     height="22.227785"
     style="fill:#fbd2bf"
     id="rect4035-3-2"
     transform="scale(1,-1)" />
  <rect
     width="0"
     x="57.00005"
     y="-45.999958"
     height="21.99995"
     style="fill:#fbd2bf"
     id="rect4035-1-9"
     transform="scale(1,-1)" />
  <rect
     width="0"
     x="-133.47456"
     y="78.74572"
     height="10.999983"
     style="fill:#036b53"
     id="rect4035-35" />
  <rect
     width="0"
     x="-133.15379"
     y="79.74572"
     height="10.999983"
     style="fill:#ffffff"
     id="rect4035-67-1" />
  <rect
     width="0"
     x="-133.47456"
     y="78.74572"
     height="10.999983"
     style="fill:#ffffff"
     id="rect4035-4-62" />
  <rect
     width="0"
     x="-135.01042"
     y="78.631889"
     height="11.1139"
     style="fill:#fbd2bf"
     id="rect4035-3-91" />
  <rect
     width="0"
     x="-133.47456"
     y="78.74572"
     height="10.999983"
     style="fill:#fbd2bf"
     id="rect4035-1-27" />
  <rect
     width="0"
     x="-133.47456"
     y="78.74572"
     height="10.999983"
     style="fill:#fbfbfb"
     id="rect4035-5-0" />
  <rect
     width="0"
     x="-133.47456"
     y="78.74572"
     height="10.999983"
     style="fill:#fffcf9"
     id="rect4035-8-9" />
  <rect
     width="0"
     x="-133.15379"
     y="39.74572"
     height="10.999983"
     style="fill:#ffffff"
     id="rect4035-6-8" />
  <rect
     width="0"
     x="-133.47456"
     y="38.74572"
     height="10.999983"
     style="fill:#ffffff"
     id="rect4035-4-2-7" />
  <rect
     width="0"
     x="-135.01042"
     y="38.631889"
     height="11.1139"
     style="fill:#fbd2bf"
     id="rect4035-3-9-9" />
  <rect
     width="0"
     x="-133.47456"
     y="38.74572"
     height="10.999983"
     style="fill:#fbd2bf"
     id="rect4035-1-1-2" />
  <rect
     width="0"
     x="-133.47456"
     y="38.74572"
     height="10.999983"
     style="fill:#fbfbfb"
     id="rect4035-5-2-0" />
  <rect
     width="0"
     x="-133.47456"
     y="38.74572"
     height="10.999983"
     style="fill:#fffcf9"
     id="rect4035-8-7-2" />
  <rect
     width="0"
     x="-133.47456"
     y="38.74572"
     height="10.999983"
     style="fill:#e8d9eb"
     id="rect4035-44-3" />
  <rect
     width="0"
     x="-173.15379"
     y="39.74572"
     height="10.999983"
     style="fill:#ffffff"
     id="rect4035-62-7" />
  <rect
     width="0"
     x="-173.47456"
     y="38.74572"
     height="10.999983"
     style="fill:#ffffff"
     id="rect4035-4-9-5" />
  <rect
     width="0"
     x="-175.01042"
     y="38.631889"
     height="11.1139"
     style="fill:#fbd2bf"
     id="rect4035-3-1-9" />
  <rect
     width="0"
     x="-173.47456"
     y="38.74572"
     height="10.999983"
     style="fill:#fbd2bf"
     id="rect4035-1-2-2" />
  <rect
     width="0"
     x="-173.47456"
     y="38.74572"
     height="10.999983"
     style="fill:#fbfbfb"
     id="rect4035-5-7-2" />
  <rect
     width="0"
     x="-173.47456"
     y="38.74572"
     height="10.999983"
     style="fill:#fffcf9"
     id="rect4035-8-0-8" />
  <rect
     width="0"
     x="-173.47456"
     y="38.74572"
     height="10.999983"
     style="fill:#e8d9eb"
     id="rect4035-44-9-9" />
  <rect
     width="0"
     x="-173.47456"
     y="38.74572"
     height="10.999983"
     style="fill:#e8d9eb"
     id="rect4035-7-6" />
  <rect
     width="0"
     x="-172.20464"
     y="39.74572"
     height="10.999983"
     style="fill:#ffffff"
     id="rect4035-36-7" />
  <rect
     width="0"
     x="-172.52541"
     y="38.74572"
     height="10.999983"
     style="fill:#ffffff"
     id="rect4035-4-0-3" />
  <rect
     width="0"
     x="-174.06126"
     y="38.631889"
     height="11.1139"
     style="fill:#fbd2bf"
     id="rect4035-3-6-6" />
  <rect
     width="0"
     x="-172.52541"
     y="38.74572"
     height="10.999983"
     style="fill:#fbd2bf"
     id="rect4035-1-26-1" />
  <rect
     width="0"
     x="-172.52541"
     y="38.74572"
     height="10.999983"
     style="fill:#fbfbfb"
     id="rect4035-5-1-2" />
  <rect
     width="0"
     x="-172.52541"
     y="38.74572"
     height="10.999983"
     style="fill:#fffcf9"
     id="rect4035-8-8-9" />
  <rect
     width="0"
     x="-172.52541"
     y="38.74572"
     height="10.999983"
     style="fill:#e8d9eb"
     id="rect4035-44-7-3" />
  <rect
     width="0"
     x="-172.52541"
     y="38.74572"
     height="10.999983"
     style="fill:#e8d9eb"
     id="rect4035-7-9-1" />
  <g
     id="g4472">
    <path
       inkscape:export-ydpi="96"
       inkscape:export-xdpi="96"
       d="m 10,61 0,-57.999995 30,0 14,14 L 54,47 54,61 40,61 10,61 Z"
       id="path4876"
       style="color:#000000;clip-rule:nonzero;display:inline;overflow:visible;visibility:visible;opacity:1;isolation:auto;mix-blend-mode:normal;color-interpolation:sRGB;color-interpolation-filters:linearRGB;solid-color:#000000;solid-opacity:1;fill:#3cc362;fill-opacity:1;fill-rule:nonzero;stroke-width:1;stroke-linecap:butt;stroke-linejoin:miter;stroke-miterlimit:4;stroke-dasharray:none;stroke-dashoffset:0;stroke-opacity:1;color-rendering:auto;image-rendering:auto;shape-rendering:auto;text-rendering:auto;enable-background:accumulate;filter-blend-mode:normal;filter-gaussianBlur-deviation:0"
       inkscape:connector-curvature="0" />
    <path
       inkscape:connector-curvature="0"
       id="path5136"
       d="m 10,3.999135 0,1 2,0 0,2 -2,0 0,1 2,0 0,2 -2,0 0,1 2,0 0,2 -2,0 0,1 2,0 0,2 -2,0 0,1 2,0 0,2 -2,0 0,1 2,0 0,1.999995 -2,0 0,1 1,0 1,0 0,1 0,1 -2,0 0,1 2,0 0,2 -2,0 0,1 2,0 0,2 -2,0 0,1 2,0 0,2 -2,0 0,1 2,0 0,2 -2,0 0,1 2,0 0,1 0,1 -2,0 0,1 1,0 1,0 0,1 0,1 -2,0 0,1 2,0 0,2 -2,0 0,1 2,0 0,2 -2,0 0,1 2,0 0,2 -2,0 0,1 2,0 0,2 -2,0 0,1 1,0 1,0 0,1 0,1 -2,0 0,1 2,0 0,2 1,0 0,-2 1,0 1,0 0,1 0,1 1,0 0,-2 2,0 0,2 1,0 0,-2 2,0 0,1 0,1 1,0 0,-2 2,0 0,2 1,0 0,-2 2,0 0,2 1,0 0,-2 2,0 0,2 1,0 0,-2 2,0 0,2 1,0 0,-2 2,0 0,2 1,0 0,-2 2,0 0,2 1,0 0,-2 1,0 1,0 0,2 1,0 0,-2 2,0 0,2 1,0 0,-2 2,0 0,2 1,0 0,-2 1,0 1,0 0,2 1,0 0,-2 2,0 0,-1 -2,0 0,-2 2,0 0,-1 -2,0 0,-2 2,0 0,-1 -2,0 0,-1 0,-1 2,0 0,-1 -2,0 0,-2 2,0 0,-1 -2,0 0,-2 2,0 0,-1 -2,0 0,-1 0,-1 2,0 0,-1 -2,0 0,-2 2,0 0,-1 -2,0 0,-2 2,0 0,-1 -2,0 0,-2 2,0 0,-1 -2,0 0,-2 2,0 0,-1 -2,0 0,-2 2,0 0,-1 -2,0 0,-2 2,0 0,-1 -2,0 0,-1.999995 2,0 0,-1 -2,0 0,-2 2,0 -1,-1 -1,0 0,-1 -1,-1 0,2 -2,0 0,-2 2,0 -1,-1 -1,0 0,-1 -1,-1 0,2 -1,0 -1,0 0,-2 1,0 1,0 -1,-1 -1,0 0,-1 -1,-1 0,2 -2,0 0,-2 2,0 -1,-1 -1,0 0,-1 -1,-1 0,2 -2,0 0,-2 2,0 -1,-1 -1,0 -1,0 -2,0 -1,0 -2,0 -1,0 -2,0 -1,0 -2,0 -1,0 -2,0 -1,0 -2,0 -1,0 -2,0 -1,0 -2,0 -1,0 -2,0 -1,0 -2,0 z m 3,1 2,0 0,2 -2,0 0,-2 z m 3,0 2,0 0,2 -2,0 0,-2 z m 3,0 2,0 0,2 -2,0 0,-2 z m 3,0 2,0 0,2 -2,0 0,-2 z m 3,0 2,0 0,2 -2,0 0,-2 z m 3,0 2,0 0,2 -2,0 0,-2 z m 3,0 2,0 0,2 -2,0 0,-2 z m 3,0 2,0 0,2 -2,0 0,-2 z m 3,0 2,0 0,2 -2,0 0,-2 z m -24,3 2,0 0,2 -2,0 0,-2 z m 3,0 2,0 0,2 -2,0 0,-2 z m 3,0 2,0 0,2 -2,0 0,-2 z m 3,0 2,0 0,2 -2,0 0,-2 z m 3,0 2,0 0,2 -2,0 0,-2 z m 3,0 2,0 0,2 -2,0 0,-2 z m 3,0 2,0 0,2 -2,0 0,-2 z m 3,0 2,0 0,2 -2,0 0,-2 z m 3,0 2,0 0,2 -2,0 0,-2 z m 3,0 2,0 0,2 -2,0 0,-2 z m -27,3 2,0 0,2 -2,0 0,-2 z m 3,0 2,0 0,2 -2,0 0,-2 z m 3,0 2,0 0,2 -2,0 0,-2 z m 3,0 2,0 0,2 -2,0 0,-2 z m 3,0 2,0 0,2 -2,0 0,-2 z m 3,0 2,0 0,2 -2,0 0,-2 z m 3,0 2,0 0,2 -2,0 0,-2 z m 3,0 2,0 0,2 -2,0 0,-2 z m 3,0 2,0 0,2 -2,0 0,-2 z m 3,0 2,0 0,2 -2,0 0,-2 z m 3,0 2,0 0,2 -2,0 0,-2 z m -30,3 2,0 0,2 -2,0 0,-2 z m 3,0 2,0 0,2 -2,0 0,-2 z m 3,0 2,0 0,2 -2,0 0,-2 z m 3,0 2,0 0,2 -2,0 0,-2 z m 3,0 2,0 0,2 -2,0 0,-2 z m 3,0 2,0 0,2 -2,0 0,-2 z m 3,0 2,0 0,2 -2,0 0,-2 z m 3,0 2,0 0,2 -2,0 0,-2 z m 3,0 2,0 0,2 -2,0 0,-2 z m 3,0 2,0 0,2 -2,0 0,-2 z m 3,0 2,0 0,2 -2,0 0,-2 z m 3,0 1,0 1,0 0,2 -1,0 -1,0 0,-2 z m -33,3 2,0 0,2 -2,0 0,-2 z m 3,0 1,0 1,0 0,1 0,1 -2,0 0,-2 z m 3,0 2,0 0,2 -2,0 0,-2 z m 3,0 2,0 0,2 -2,0 0,-2 z m 3,0 2,0 0,2 -2,0 0,-2 z m 3,0 2,0 0,2 -2,0 0,-2 z m 3,0 2,0 0,2 -2,0 0,-2 z m 3,0 2,0 0,2 -2,0 0,-2 z m 3,0 2,0 0,2 -2,0 0,-2 z m 3,0 2,0 0,2 -2,0 0,-2 z m 3,0 2,0 0,2 -2,0 0,-2 z m 3,0 1,0 1,0 0,2 -1,0 -1,0 0,-2 z m 3,0 2,0 0,2 -2,0 0,-2 z m -36,3 2,0 0,1.999995 -2,0 0,-1.999995 z m 3,0 2,0 0,1.999995 -2,0 0,-1.999995 z m 3,0 1,0 1,0 0,1 0,0.999995 -2,0 0,-1.999995 z m 3,0 2,0 0,1.999995 -2,0 0,-1.999995 z m 3,0 2,0 0,1.999995 -2,0 0,-1.999995 z m 3,0 2,0 0,1.999995 -2,0 0,-1.999995 z m 3,0 2,0 0,1.999995 -2,0 0,-1.999995 z m 3,0 2,0 0,1.999995 -2,0 0,-1.999995 z m 3,0 2,0 0,1.999995 -2,0 0,-1.999995 z m 3,0 2,0 0,1.999995 -2,0 0,-1.999995 z m 3,0 2,0 0,1.999995 -2,0 0,-1.999995 z m 3,0 1,0 1,0 0,1.999995 -1,0 -1,0 0,-1.999995 z m 3,0 2,0 0,1.999995 -2,0 0,-1.999995 z m -36,2.999995 2,0 0,2 -2,0 0,-2 z m 3,0 2,0 0,2 -2,0 0,-2 z m 3,0 2,0 0,2 -2,0 0,-2 z m 3,0 1,0 1,0 0,1 0,1 -2,0 0,-2 z m 3,0 2,0 0,2 -2,0 0,-2 z m 3,0 2,0 0,2 -2,0 0,-2 z m 3,0 2,0 0,2 -2,0 0,-2 z m 3,0 2,0 0,2 -2,0 0,-2 z m 3,0 2,0 0,2 -2,0 0,-2 z m 3,0 2,0 0,2 -2,0 0,-2 z m 3,0 2,0 0,2 -2,0 0,-2 z m 3,0 1,0 1,0 0,2 -1,0 -1,0 0,-2 z m 3,0 2,0 0,2 -2,0 0,-2 z m -36,3 2,0 0,2 -2,0 0,-2 z m 3,0 2,0 0,2 -2,0 0,-2 z m 3,0 2,0 0,2 -2,0 0,-2 z m 3,0 2,0 0,2 -2,0 0,-2 z m 3,0 2,0 0,2 -2,0 0,-2 z m 3,0 2,0 0,2 -2,0 0,-2 z m 3,0 2,0 0,2 -2,0 0,-2 z m 3,0 2,0 0,1 0,1 -1,0 -1,0 0,-2 z m 3,0 2,0 0,1 0,1 -2,0 0,-2 z m 3,0 2,0 0,1 0,1 -1,0 -1,0 0,-2 z m 3,0 2,0 0,2 -1,0 -1,0 0,-2 z m 3,0 1,0 1,0 0,1 0,1 -1,0 -1,0 0,-2 z m 3,0 2,0 0,1 0,1 -1,0 -1,0 0,-2 z m -36,3 2,0 0,2 -2,0 0,-2 z m 3,0 2,0 0,2 -2,0 0,-2 z m 3,0 2,0 0,2 -2,0 0,-2 z m 3,0 2,0 0,2 -2,0 0,-2 z m 3,0 2,0 0,2 -2,0 0,-2 z m 3,0 2,0 0,2 -2,0 0,-2 z m 3,0 2,0 0,2 -2,0 0,-2 z m 3,0 1,0 1,0 0,2 -1,0 -1,0 0,-2 z m 3,0 2,0 0,2 -2,0 0,-2 z m 3,0 1,0 1,0 0,2 -1,0 -1,0 0,-2 z m 3,0 1,0 1,0 0,2 -1,0 -1,0 0,-2 z m 3,0 1,0 1,0 0,2 -1,0 -1,0 0,-2 z m 3,0 1,0 1,0 0,2 -1,0 -1,0 0,-2 z m -36,3 2,0 0,2 -2,0 0,-2 z m 3,0 1,0 1,0 0,1 0,1 -2,0 0,-2 z m 3,0 2,0 0,2 -2,0 0,-2 z m 3,0 2,0 0,2 -2,0 0,-2 z m 3,0 2,0 0,2 -2,0 0,-2 z m 3,0 2,0 0,2 -2,0 0,-2 z m 3,0 2,0 0,2 -2,0 0,-2 z m 3,0 1,0 1,0 0,2 -1,0 -1,0 0,-2 z m 3,0 2,0 0,2 -2,0 0,-2 z m 3,0 1,0 1,0 0,2 -1,0 -1,0 0,-2 z m 3,0 1,0 1,0 0,2 -1,0 -1,0 0,-2 z m 3,0 1,0 1,0 0,2 -1,0 -1,0 0,-2 z m 3,0 1,0 1,0 0,2 -1,0 -1,0 0,-2 z m -36,3 2,0 0,2 -2,0 0,-2 z m 3,0 2,0 0,2 -2,0 0,-2 z m 3,0 1,0 1,0 0,1 0,1 -2,0 0,-2 z m 3,0 2,0 0,2 -2,0 0,-2 z m 3,0 2,0 0,2 -2,0 0,-2 z m 3,0 2,0 0,2 -2,0 0,-2 z m 3,0 2,0 0,2 -2,0 0,-2 z m 3,0 1,0 1,0 0,2 -1,0 -1,0 0,-2 z m 3,0 2,0 0,2 -2,0 0,-2 z m 3,0 1,0 1,0 0,2 -1,0 -1,0 0,-2 z m 3,0 1,0 1,0 0,2 -1,0 -1,0 0,-2 z m 3,0 1,0 1,0 0,2 -1,0 -1,0 0,-2 z m 3,0 1,0 1,0 0,2 -1,0 -1,0 0,-2 z m -36,3 2,0 0,2 -2,0 0,-2 z m 3,0 2,0 0,2 -2,0 0,-2 z m 3,0 2,0 0,1 0,1 -2,0 0,-1 0,-1 z m 3,0 1,0 1,0 0,1 0,1 -2,0 0,-1 0,-1 z m 3,0 2,0 0,1 0,1 -2,0 0,-1 0,-1 z m 3,0 2,0 0,1 0,1 -2,0 0,-1 0,-1 z m 3,0 2,0 0,1 0,1 -2,0 0,-1 0,-1 z m 3,0 1,0 1,0 0,1 0,1 -1,0 -1,0 0,-1 0,-1 z m 3,0 2,0 0,1 0,1 -2,0 0,-1 0,-1 z m 3,0 1,0 1,0 0,1 0,1 -1,0 -1,0 0,-1 0,-1 z m 3,0 1,0 1,0 0,1 0,1 -1,0 -1,0 0,-1 0,-1 z m 3,0 1,0 1,0 0,2 -1,0 -1,0 0,-1 0,-1 z m 3,0 1,0 1,0 0,2 -1,0 -1,0 0,-2 z m -36,3 2,0 0,2 -2,0 0,-2 z m 3,0 2,0 0,1 0,1 -2,0 0,-2 z m 3,0 2,0 0,1 0,1 -2,0 0,-2 z m 3,0 2,0 0,1 0,1 -2,0 0,-1 0,-1 z m 3,0 2,0 0,1 0,1 -2,0 0,-1 0,-1 z m 3,0 2,0 0,1 0,1 -2,0 0,-1 0,-1 z m 3,0 2,0 0,1 0,1 -2,0 0,-1 0,-1 z m 3,0 1,0 1,0 0,1 0,1 -2,0 0,-1 0,-1 z m 3,0 2,0 0,1 0,1 -2,0 0,-1 0,-1 z m 3,0 1,0 1,0 0,1 0,1 -1,0 -1,0 0,-1 0,-1 z m 3,0 1,0 1,0 0,1 0,1 -2,0 0,-1 0,-1 z m 3,0 1,0 1,0 0,1 0,1 -2,0 0,-1 0,-1 z m 3,0 1,0 1,0 0,1 0,1 -1,0 -1,0 0,-1 0,-1 z m -36,3 1,0 1,0 0,1 0,1 -2,0 0,-2 z m 3,0 2,0 0,2 -2,0 0,-2 z m 3,0 2,0 0,1 0,1 -2,0 0,-2 z m 3,0 2,0 0,2 -2,0 0,-2 z m 3,0 2,0 0,2 -2,0 0,-2 z m 3,0 2,0 0,2 -2,0 0,-2 z m 3,0 2,0 0,2 -2,0 0,-2 z m 3,0 2,0 0,2 -2,0 0,-2 z m 3,0 2,0 0,2 -2,0 0,-2 z m 3,0 1,0 1,0 0,2 -1,0 -1,0 0,-2 z m 3,0 2,0 0,2 -2,0 0,-2 z m 3,0 2,0 0,2 -2,0 0,-2 z m 3,0 1,0 1,0 0,2 -1,0 -1,0 0,-2 z m -36,3 2,0 0,2 -2,0 0,-2 z m 3,0 1,0 1,0 0,1 0,1 -2,0 0,-2 z m 3,0 2,0 0,2 -2,0 0,-2 z m 3,0 2,0 0,1 0,1 -2,0 0,-2 z m 3,0 2,0 0,2 -2,0 0,-2 z m 3,0 2,0 0,2 -2,0 0,-2 z m 3,0 2,0 0,2 -2,0 0,-2 z m 3,0 2,0 0,2 -2,0 0,-2 z m 3,0 2,0 0,2 -2,0 0,-2 z m 3,0 1,0 1,0 0,2 -1,0 -1,0 0,-2 z m 3,0 2,0 0,2 -2,0 0,-2 z m 3,0 2,0 0,2 -2,0 0,-2 z m 3,0 1,0 1,0 0,2 -1,0 -1,0 0,-2 z m -36,3 2,0 0,2 -2,0 0,-2 z m 3,0 2,0 0,2 -2,0 0,-2 z m 3,0 2,0 0,2 -2,0 0,-2 z m 3,0 2,0 0,2 -2,0 0,-2 z m 3,0 2,0 0,2 -2,0 0,-2 z m 3,0 2,0 0,2 -2,0 0,-2 z m 3,0 2,0 0,2 -2,0 0,-2 z m 3,0 2,0 0,2 -2,0 0,-2 z m 3,0 2,0 0,2 -2,0 0,-2 z m 3,0 1,0 1,0 0,1 0,1 -1,0 -1,0 0,-2 z m 3,0 2,0 0,1 0,1 -2,0 0,-1 0,-1 z m 3,0 2,0 0,1 0,1 -2,0 0,-1 0,-1 z m 3,0 1,0 1,0 0,1 0,1 -1,0 -1,0 0,-1 0,-1 z m -36,3 2,0 0,2 -2,0 0,-2 z m 3,0 2,0 0,2 -2,0 0,-2 z m 3,0 2,0 0,2 -2,0 0,-2 z m 3,0 2,0 0,2 -2,0 0,-2 z m 3,0 2,0 0,2 -2,0 0,-2 z m 3,0 2,0 0,2 -2,0 0,-2 z m 3,0 2,0 0,2 -2,0 0,-2 z m 3,0 2,0 0,2 -2,0 0,-2 z m 3,0 2,0 0,2 -2,0 0,-2 z m 3,0 1,0 1,0 0,2 -1,0 -1,0 0,-2 z m 3,0 2,0 0,2 -2,0 0,-2 z m 3,0 2,0 0,2 -2,0 0,-2 z m 3,0 1,0 1,0 0,2 -1,0 -1,0 0,-2 z m -36,3 2,0 0,2 -2,0 0,-2 z m 3,0 2,0 0,1 0,1 -2,0 0,-2 z m 3,0 2,0 0,2 -2,0 0,-2 z m 3,0 2,0 0,2 -2,0 0,-2 z m 3,0 2,0 0,2 -2,0 0,-2 z m 3,0 2,0 0,2 -2,0 0,-2 z m 3,0 2,0 0,2 -2,0 0,-2 z m 3,0 2,0 0,2 -2,0 0,-2 z m 3,0 2,0 0,2 -2,0 0,-2 z m 3,0 1,0 1,0 0,2 -1,0 -1,0 0,-2 z m 3,0 2,0 0,2 -2,0 0,-2 z m 3,0 2,0 0,2 -2,0 0,-2 z m 3,0 1,0 1,0 0,2 -1,0 -1,0 0,-2 z"
       style="color:#000000;display:inline;opacity:0.2;color-interpolation:sRGB;color-interpolation-filters:linearRGB;fill:#ffffff;fill-opacity:1;color-rendering:auto;image-rendering:auto;shape-rendering:auto;text-rendering:auto" />
    <rect
       inkscape:export-ydpi="96"
       inkscape:export-xdpi="96"
       transform="scale(1,-1)"
       id="rect4878"
       style="color:#000000;clip-rule:nonzero;display:inline;overflow:visible;visibility:visible;opacity:0.5;isolation:auto;mix-blend-mode:normal;color-interpolation:sRGB;color-interpolation-filters:linearRGB;solid-color:#000000;solid-opacity:1;fill:#ffffff;fill-opacity:1;fill-rule:nonzero;stroke-width:1;stroke-linecap:butt;stroke-linejoin:miter;stroke-miterlimit:4;stroke-dasharray:none;stroke-dashoffset:0;stroke-opacity:1;color-rendering:auto;image-rendering:auto;shape-rendering:auto;text-rendering:auto;enable-background:accumulate"
       height="1"
       y="-3.99999"
       x="10"
       width="30" />
    <rect
       inkscape:export-ydpi="96"
       inkscape:export-xdpi="96"
       transform="scale(1,-1)"
       id="rect4880"
       style="color:#000000;clip-rule:nonzero;display:inline;overflow:visible;visibility:visible;opacity:0.25;isolation:auto;mix-blend-mode:normal;color-interpolation:sRGB;color-interpolation-filters:linearRGB;solid-color:#000000;solid-opacity:1;fill:#000000;fill-opacity:1;fill-rule:nonzero;stroke-width:1;stroke-linecap:butt;stroke-linejoin:miter;stroke-miterlimit:4;stroke-dasharray:none;stroke-dashoffset:0;stroke-opacity:1;color-rendering:auto;image-rendering:auto;shape-rendering:auto;text-rendering:auto;enable-background:accumulate"
       height="1"
       y="-60.999981"
       x="10"
       width="44" />
    <path
       inkscape:export-ydpi="96"
       inkscape:export-xdpi="96"
       d="m 54,17.000005 -14,-14 0,14 z"
       id="path4882"
       style="opacity:1;fill:#35bedc;fill-opacity:1;fill-rule:evenodd"
       inkscape:connector-curvature="0" />
    <path
       inkscape:export-ydpi="96"
       inkscape:export-xdpi="96"
       inkscape:connector-curvature="0"
       style="opacity:0.1;fill:url(#linearGradient4890);fill-rule:evenodd"
       id="path4884"
       d="M 40,17.000005 54,30.99999 54,17.000005 Z" />
    <path
       style="color:#000000;clip-rule:nonzero;display:inline;overflow:visible;visibility:visible;opacity:0.7;isolation:auto;mix-blend-mode:normal;color-interpolation:sRGB;color-interpolation-filters:linearRGB;solid-color:#000000;solid-opacity:1;fill:#000000;fill-opacity:1;fill-rule:nonzero;stroke:none;stroke-width:1;stroke-linecap:butt;stroke-linejoin:miter;stroke-miterlimit:4;stroke-dasharray:none;stroke-dashoffset:0;stroke-opacity:1;marker:none;color-rendering:auto;image-rendering:auto;shape-rendering:auto;text-rendering:auto;enable-background:accumulate;filter-blend-mode:normal;filter-gaussianBlur-deviation:0"
       d="m 24,22.99913 0,3 1,0 0,5.05664 a 2.5,2.5 0 0 0 -2,2.44336 2.5,2.5 0 0 0 2,2.44531 l 0,5.05469 -1,0 0,3 3,0 0,-3 -1,0 0,-3.5293 a 13,10.500004 0 0 0 12,6.5293 13,10.500004 0 0 0 1,-0.041 l 0,-0.99609 A 12,9.5000086 0 0 1 38,42.99914 12,9.5000086 0 0 1 26.38086,35.83508 2.5,2.5 0 0 0 28,33.49913 2.5,2.5 0 0 0 26.38281,31.16124 12,9.5000086 0 0 1 38,23.99913 a 12,9.5000086 0 0 1 1,0.0391 l 0,-1.00586 a 13,10.500004 0 0 0 -1,-0.0332 13,10.500004 0 0 0 -12,6.51172 l 0,-3.51172 1,0 0,-3 -3,0 z m 1,1 1,0 0,1 -1,0 0,-1 z m 0.5,8 a 1.5,1.5 0 0 1 1.5,1.5 1.5,1.5 0 0 1 -1.5,1.5 1.5,1.5 0 0 1 -1.5,-1.5 1.5,1.5 0 0 1 1.5,-1.5 z m -0.5,10 1,0 0,1 -1,0 0,-1 z"
       id="path4888"
       inkscape:connector-curvature="0" />
    <path
       inkscape:export-ydpi="96"
       inkscape:export-xdpi="96"
       d="m 54,17.000005 -14,-14 0,14 z"
       id="path5152"
       style="opacity:1;fill:#184e27;fill-opacity:1;fill-rule:evenodd"
       inkscape:connector-curvature="0" />
    <path
       inkscape:export-ydpi="96"
       inkscape:export-xdpi="96"
       d="m 10,61 0,-57.999995 30,0 14,14 L 54,47 54,61 40,61 10,61 Z"
       id="path4886"
       style="fill:url(#linearGradient4892);fill-opacity:1"
       inkscape:connector-curvature="0" />
  </g>
</svg>
