<?xml version="1.0" encoding="UTF-8" standalone="no"?>
<svg
   xmlns:dc="http://purl.org/dc/elements/1.1/"
   xmlns:cc="http://creativecommons.org/ns#"
   xmlns:rdf="http://www.w3.org/1999/02/22-rdf-syntax-ns#"
   xmlns:svg="http://www.w3.org/2000/svg"
   xmlns="http://www.w3.org/2000/svg"
   xmlns:xlink="http://www.w3.org/1999/xlink"
   xmlns:sodipodi="http://sodipodi.sourceforge.net/DTD/sodipodi-0.dtd"
   xmlns:inkscape="http://www.inkscape.org/namespaces/inkscape"
   width="64"
   version="1.1"
   viewBox="0 0 64 64"
   height="64"
   id="svg2"
   inkscape:version="0.91 r13725"
   sodipodi:docname="libreoffice-drawing.svg">
  <sodipodi:namedview
     pagecolor="#ffffff"
     bordercolor="#666666"
     borderopacity="1"
     objecttolerance="10"
     gridtolerance="10"
     guidetolerance="10"
     inkscape:pageopacity="0"
     inkscape:pageshadow="2"
     inkscape:window-width="1920"
     inkscape:window-height="1013"
     id="namedview24"
     showgrid="false"
     inkscape:zoom="3.6875"
     inkscape:cx="24.862388"
     inkscape:cy="41.155769"
     inkscape:window-x="0"
     inkscape:window-y="0"
     inkscape:window-maximized="1"
     inkscape:current-layer="svg2" />
  <defs
     id="defs4">
    <linearGradient
       id="linearGradient4300-3">
      <stop
         style="stop-color:#f39c12"
         id="stop4302-0" />
      <stop
         offset="1"
         style="stop-color:#f9a11f"
         id="stop4304-0" />
    </linearGradient>
    <linearGradient
       inkscape:collect="always"
       xlink:href="#linearGradient4300-3"
       id="linearGradient4306-0"
       y1="61"
       y2="3"
       x2="0"
       gradientUnits="userSpaceOnUse"
       gradientTransform="matrix(1,0,0,-1,0,64)" />
  </defs>
  <metadata
     id="metadata84">
    <rdf:RDF>
      <cc:Work
         rdf:about="">
        <dc:format>image/svg+xml</dc:format>
        <dc:type
           rdf:resource="http://purl.org/dc/dcmitype/StillImage" />
      </cc:Work>
    </rdf:RDF>
  </metadata>
  <rect
     width="0"
     x="-133.83334"
     y="22.833298"
     height="20.166639"
     style="fill:#5e6b78"
     id="rect4035" />
  <rect
     width="0"
     x="57.641571"
     y="23.999973"
     height="21.99995"
     style="fill:#ffffff"
     id="rect4035-75" />
  <rect
     width="0"
     x="57.000031"
     y="21.999975"
     height="21.99995"
     style="fill:#ffffff"
     id="rect4035-4" />
  <rect
     width="0"
     x="53.928284"
     y="21.772314"
     height="22.227785"
     style="fill:#fbd2bf"
     id="rect4035-3" />
  <rect
     width="0"
     x="57.000031"
     y="21.999975"
     height="21.99995"
     style="fill:#fbd2bf"
     id="rect4035-1" />
  <rect
     width="0"
     x="97"
     y="21.999975"
     height="21.99995"
     style="fill:#fbfbfb"
     id="rect4035-2" />
  <rect
     width="0"
     x="57.000031"
     y="21.999975"
     height="21.99995"
     style="fill:#fbfbfb"
     id="rect4035-8" />
  <rect
     width="0"
     x="-102.35836"
     y="23.999973"
     height="21.99995"
     style="fill:#ffffff"
     id="rect4035-7" />
  <rect
     width="0"
     x="-102.9999"
     y="21.999975"
     height="21.99995"
     style="fill:#ffffff"
     id="rect4035-4-5" />
  <rect
     width="0"
     x="-106.07162"
     y="21.772314"
     height="22.227785"
     style="fill:#fbd2bf"
     id="rect4035-3-3" />
  <rect
     width="0"
     x="-102.9999"
     y="21.999975"
     height="21.99995"
     style="fill:#fbd2bf"
     id="rect4035-1-5" />
  <rect
     width="0"
     x="-22.35841"
     y="-43.999958"
     height="21.99995"
     style="fill:#ffffff"
     id="rect4035-5"
     transform="scale(1,-1)" />
  <rect
     width="0"
     x="-22.99995"
     y="-45.999958"
     height="21.99995"
     style="fill:#ffffff"
     id="rect4035-4-6"
     transform="scale(1,-1)" />
  <rect
     width="0"
     x="-26.071663"
     y="-46.227619"
     height="22.227785"
     style="fill:#fbd2bf"
     id="rect4035-3-2"
     transform="scale(1,-1)" />
  <rect
     width="0"
     x="-22.99995"
     y="-45.999958"
     height="21.99995"
     style="fill:#fbd2bf"
     id="rect4035-1-9"
     transform="scale(1,-1)" />
  <rect
     width="0"
     x="-213.47456"
     y="78.74572"
     height="10.999983"
     style="fill:#036b53"
     id="rect4035-35" />
  <rect
     width="0"
     x="-213.15379"
     y="79.74572"
     height="10.999983"
     style="fill:#ffffff"
     id="rect4035-67" />
  <rect
     width="0"
     x="-213.47456"
     y="78.74572"
     height="10.999983"
     style="fill:#ffffff"
     id="rect4035-4-62" />
  <rect
     width="0"
     x="-215.01042"
     y="78.631889"
     height="11.1139"
     style="fill:#fbd2bf"
     id="rect4035-3-91" />
  <rect
     width="0"
     x="-213.47456"
     y="78.74572"
     height="10.999983"
     style="fill:#fbd2bf"
     id="rect4035-1-27" />
  <rect
     width="0"
     x="-213.47456"
     y="78.74572"
     height="10.999983"
     style="fill:#fbfbfb"
     id="rect4035-5-0" />
  <rect
     width="0"
     x="-213.47456"
     y="78.74572"
     height="10.999983"
     style="fill:#fffcf9"
     id="rect4035-8-9" />
  <rect
     width="0"
     x="-213.15379"
     y="39.74572"
     height="10.999983"
     style="fill:#ffffff"
     id="rect4035-6" />
  <rect
     width="0"
     x="-213.47456"
     y="38.74572"
     height="10.999983"
     style="fill:#ffffff"
     id="rect4035-4-2" />
  <rect
     width="0"
     x="-215.01042"
     y="38.631889"
     height="11.1139"
     style="fill:#fbd2bf"
     id="rect4035-3-9" />
  <rect
     width="0"
     x="-213.47456"
     y="38.74572"
     height="10.999983"
     style="fill:#fbd2bf"
     id="rect4035-1-1" />
  <rect
     width="0"
     x="-213.47456"
     y="38.74572"
     height="10.999983"
     style="fill:#fbfbfb"
     id="rect4035-5-2" />
  <rect
     width="0"
     x="-213.47456"
     y="38.74572"
     height="10.999983"
     style="fill:#fffcf9"
     id="rect4035-8-7" />
  <rect
     width="0"
     x="-213.47456"
     y="38.74572"
     height="10.999983"
     style="fill:#e8d9eb"
     id="rect4035-44" />
  <rect
     width="0"
     x="-253.15379"
     y="39.74572"
     height="10.999983"
     style="fill:#ffffff"
     id="rect4035-62" />
  <rect
     width="0"
     x="-253.47456"
     y="38.74572"
     height="10.999983"
     style="fill:#ffffff"
     id="rect4035-4-9" />
  <rect
     width="0"
     x="-255.01042"
     y="38.631889"
     height="11.1139"
     style="fill:#fbd2bf"
     id="rect4035-3-1" />
  <rect
     width="0"
     x="-253.47456"
     y="38.74572"
     height="10.999983"
     style="fill:#fbd2bf"
     id="rect4035-1-2" />
  <rect
     width="0"
     x="-253.47456"
     y="38.74572"
     height="10.999983"
     style="fill:#fbfbfb"
     id="rect4035-5-7" />
  <rect
     width="0"
     x="-253.47456"
     y="38.74572"
     height="10.999983"
     style="fill:#fffcf9"
     id="rect4035-8-0" />
  <rect
     width="0"
     x="-253.47456"
     y="38.74572"
     height="10.999983"
     style="fill:#e8d9eb"
     id="rect4035-44-9" />
  <rect
     width="0"
     x="-253.47456"
     y="38.74572"
     height="10.999983"
     style="fill:#e8d9eb"
     id="rect4035-7-6" />
  <rect
     width="0"
     x="-252.20464"
     y="39.74572"
     height="10.999983"
     style="fill:#ffffff"
     id="rect4035-36" />
  <rect
     width="0"
     x="-252.52541"
     y="38.74572"
     height="10.999983"
     style="fill:#ffffff"
     id="rect4035-4-0" />
  <rect
     width="0"
     x="-254.06126"
     y="38.631889"
     height="11.1139"
     style="fill:#fbd2bf"
     id="rect4035-3-6" />
  <rect
     width="0"
     x="-252.52541"
     y="38.74572"
     height="10.999983"
     style="fill:#fbd2bf"
     id="rect4035-1-26" />
  <rect
     width="0"
     x="-252.52541"
     y="38.74572"
     height="10.999983"
     style="fill:#fbfbfb"
     id="rect4035-5-1" />
  <rect
     width="0"
     x="-252.52541"
     y="38.74572"
     height="10.999983"
     style="fill:#fffcf9"
     id="rect4035-8-8" />
  <rect
     width="0"
     x="-252.52541"
     y="38.74572"
     height="10.999983"
     style="fill:#e8d9eb"
     id="rect4035-44-7" />
  <rect
     width="0"
     x="-252.52541"
     y="38.74572"
     height="10.999983"
     style="fill:#e8d9eb"
     id="rect4035-7-9" />
  <path
     inkscape:connector-curvature="0"
     style="fill:url(#linearGradient4306-0);fill-opacity:1.0"
     d="m 10,3 0,58 30,0 14,0 L 54,47 54,18.414062 38.585938,3 10,3 Z"
     id="rect3500-2" />
  <rect
     width="44"
     x="10"
     y="60"
     height="1"
     style="fill:#2e3132;fill-opacity:0.29411801"
     id="rect4169-3" />
  <path
     inkscape:connector-curvature="0"
     style="fill:#ffffff;fill-opacity:0.40983599"
     d="m 10,3 0,1 29.585938,0 -1,-1 L 10,3 Z"
     id="rect4236-7" />
  <path
     inkscape:connector-curvature="0"
     style="fill:#b97c1b;fill-opacity:1;fill-rule:evenodd"
     id="path4314"
     d="M 40,3 54,17 54,3 Z" />
  <rect
     width="0"
     x="-53.833336"
     y="22.833298"
     height="20.166639"
     style="fill:#5e6b78"
     id="rect4035-59" />
  <rect
     width="0"
     x="137.64157"
     y="23.999973"
     height="21.99995"
     style="fill:#ffffff"
     id="rect4035-75-2" />
  <rect
     width="0"
     x="137.00003"
     y="21.999975"
     height="21.99995"
     style="fill:#ffffff"
     id="rect4035-4-28" />
  <rect
     width="0"
     x="133.92828"
     y="21.772314"
     height="22.227785"
     style="fill:#fbd2bf"
     id="rect4035-3-97" />
  <rect
     width="0"
     x="137.00003"
     y="21.999975"
     height="21.99995"
     style="fill:#fbd2bf"
     id="rect4035-1-3" />
  <rect
     width="0"
     x="177"
     y="21.999975"
     height="21.99995"
     style="fill:#fbfbfb"
     id="rect4035-2-6" />
  <rect
     width="0"
     x="137.00003"
     y="21.999975"
     height="21.99995"
     style="fill:#fbfbfb"
     id="rect4035-8-1" />
  <rect
     width="0"
     x="-22.35836"
     y="23.999973"
     height="21.99995"
     style="fill:#ffffff"
     id="rect4035-7-2" />
  <rect
     width="0"
     x="-22.999901"
     y="21.999975"
     height="21.99995"
     style="fill:#ffffff"
     id="rect4035-4-5-9" />
  <rect
     width="0"
     x="-26.071617"
     y="21.772314"
     height="22.227785"
     style="fill:#fbd2bf"
     id="rect4035-3-3-3" />
  <rect
     width="0"
     x="-22.999901"
     y="21.999975"
     height="21.99995"
     style="fill:#fbd2bf"
     id="rect4035-1-5-1" />
  <rect
     width="0"
     x="57.64159"
     y="-43.999958"
     height="21.99995"
     style="fill:#ffffff"
     id="rect4035-5-9"
     transform="scale(1,-1)" />
  <rect
     width="0"
     x="57.00005"
     y="-45.999958"
     height="21.99995"
     style="fill:#ffffff"
     id="rect4035-4-6-4"
     transform="scale(1,-1)" />
  <rect
     width="0"
     x="53.928337"
     y="-46.227619"
     height="22.227785"
     style="fill:#fbd2bf"
     id="rect4035-3-2-7"
     transform="scale(1,-1)" />
  <rect
     width="0"
     x="57.00005"
     y="-45.999958"
     height="21.99995"
     style="fill:#fbd2bf"
     id="rect4035-1-9-8"
     transform="scale(1,-1)" />
  <path
     inkscape:connector-curvature="0"
     style="fill:#fddda3;fill-opacity:1"
     id="rect4166"
     d="m 23.5,21 c -1.385,0 -2.5,1.115 -2.5,2.5 0,1.385 1.115,2.5 2.5,2.5 0.805383,0 1.512122,-0.382791 1.96875,-0.970703 1.400455,1.963082 2.230469,4.365183 2.230469,6.970703 0,2.60552 -0.830014,5.007621 -2.230469,6.970703 C 25.012122,38.382791 24.305383,38 23.5,38 22.115,38 21,39.115 21,40.5 c 0,1.385 1.115,2.5 2.5,2.5 1.21386,0 2.219022,-0.855928 2.449219,-2 L 38,41 l 0,1 3,0 0,-3 -3,0 0,1 -12.050781,0 c -3.77e-4,-0.0019 3.8e-4,-0.004 0,-0.0059 -1.27e-4,-6.21e-4 1.27e-4,-0.0013 0,-0.002 1.718845,-2.201872 2.75,-4.969771 2.75,-7.992188 0,-3.022417 -1.031155,-5.792269 -2.75,-7.994141 3.8e-4,-0.0019 -3.77e-4,-0.004 0,-0.0059 L 38,24 l 0,2 5,0 0,-5 -5,0 0,2 -12.050781,0 C 25.719022,21.855928 24.71386,21 23.5,21 Z m 0,1 C 24.331,22 25,22.669 25,23.5 25,24.331 24.331,25 23.5,25 22.669,25 22,24.331 22,23.5 22,22.669 22.669,22 23.5,22 Z m 15.5,0 3,0 0,3 -3,0 0,-3 z M 23.5,39 C 24.331,39 25,39.669 25,40.5 25,41.331 24.331,42 23.5,42 22.669,42 22,41.331 22,40.5 22,39.669 22.669,39 23.5,39 Z m 15.5,1 1,0 0,1 -1,0 0,-1 z" />
</svg>
