<?xml version="1.0" encoding="UTF-8" standalone="no"?>
<svg width="64" version="1.1" xmlns="http://www.w3.org/2000/svg" viewBox="0 0 64 64" height="64" xmlns:xlink="http://www.w3.org/1999/xlink" xmlns:inkscape="http://www.inkscape.org/namespaces/inkscape">
 <defs id="defs4">
  <linearGradient inkscape:collect="always" id="linearGradient4351">
   <stop style="stop-color:#dedede" id="stop4353"/>
   <stop offset="1" style="stop-color:#fbfbfb" id="stop4355"/>
  </linearGradient>
  <linearGradient inkscape:collect="always" xlink:href="#linearGradient4300-7" id="linearGradient4306" y1="61" y2="3" x2="0" gradientUnits="userSpaceOnUse"/>
  <linearGradient inkscape:collect="always" xlink:href="#linearGradient4410" id="linearGradient4427" y1="31" x1="54" y2="17" x2="40" gradientUnits="userSpaceOnUse" gradientTransform="matrix(1 0 0 -1 -14 78)"/>
  <linearGradient inkscape:collect="always" id="linearGradient4410">
   <stop style="stop-color:#383e51" id="stop4412"/>
   <stop offset="1" style="stop-color:#655c6f;stop-opacity:0" id="stop4414"/>
  </linearGradient>
  <linearGradient inkscape:collect="always" xlink:href="#linearGradient4351" id="linearGradient4357" y1="61" y2="47" x2="0" gradientUnits="userSpaceOnUse"/>
  <linearGradient inkscape:collect="always" id="linearGradient4300-7">
   <stop style="stop-color:#5e6b78" id="stop4302-2"/>
   <stop offset="1" style="stop-color:#768492" id="stop4304-4"/>
  </linearGradient>
 </defs>
 <metadata id="metadata84"/>
 <path style="fill:url(#linearGradient4306)" id="rect3500" d="M 10 3 L 10 61 L 40 61 L 54 47 L 54 17 L 54 3 L 40 3 L 10 3 z "/>
 <rect width="30" x="10" y="60" height="1" style="fill:#2e3132;fill-opacity:0.294118" id="rect4169"/>
 <rect width="44" x="10" y="3" height="1" style="fill:#ffffff;fill-opacity:0.409836" id="rect4236"/>
 <path inkscape:connector-curvature="0" style="fill:url(#linearGradient4357);fill-rule:evenodd" id="path4314" d="M 54,47 40,61 40,47 Z"/>
 <path inkscape:connector-curvature="0" style="fill:url(#linearGradient4427);opacity:0.2;fill-rule:evenodd" id="path4320" d="M 26,61 40,47 40,61 Z"/>
 <path style="fill:#fbfbfb" id="rect4225" d="M 23 21 L 23 27 L 20 27 L 19 27 L 19 28 L 19 30 L 19 40.5 C 19 41.885 20.115 43 21.5 43 L 23 43 L 24 43 L 42.5 43 C 43.885 43 45 41.885 45 40.5 L 45 30 L 45 21 L 23 21 z M 24 22 L 44 22 L 44 30 L 44 40.5 C 44 41.331 43.331 42 42.5 42 L 24 42 L 24 28 L 24 27 L 24 22 z M 25 23 L 25 27 L 43 27 L 43 23 L 25 23 z M 26 24 L 42 24 L 42 26 L 26 26 L 26 24 z M 20 28 L 23 28 L 23 42 L 21.5 42 C 20.669 42 20 41.331 20 40.5 L 20 30 L 20 28 z M 25 29 L 25 38 L 35 38 L 35 29 L 25 29 z M 36 29 L 36 30 L 43 30 L 43 29 L 36 29 z M 26 30 L 34 30 L 34 37 L 26 37 L 26 30 z M 36 33 L 36 34 L 43 34 L 43 33 L 36 33 z M 36 37 L 36 38 L 43 38 L 43 37 L 36 37 z M 25 40 L 25 41 L 43 41 L 43 40 L 25 40 z "/>
</svg>
