<?xml version="1.0" encoding="UTF-8" standalone="no"?>
<svg
   xmlns:dc="http://purl.org/dc/elements/1.1/"
   xmlns:cc="http://creativecommons.org/ns#"
   xmlns:rdf="http://www.w3.org/1999/02/22-rdf-syntax-ns#"
   xmlns:svg="http://www.w3.org/2000/svg"
   xmlns="http://www.w3.org/2000/svg"
   xmlns:xlink="http://www.w3.org/1999/xlink"
   version="1.1"
   id="svg2"
   height="64"
   viewBox="0 0 64 64"
   width="64">
  <metadata
     id="metadata39">
    <rdf:RDF>
      <cc:Work
         rdf:about="">
        <dc:format>image/svg+xml</dc:format>
        <dc:type
           rdf:resource="http://purl.org/dc/dcmitype/StillImage" />
        <dc:title></dc:title>
      </cc:Work>
    </rdf:RDF>
  </metadata>
  <defs
     id="defs4">
    <linearGradient
       x2="54"
       gradientUnits="userSpaceOnUse"
       y2="31"
       x1="40"
       y1="17"
       id="a">
      <stop
         id="stop7"
         stop-color="#060606" />
      <stop
         id="stop9"
         stop-opacity="0"
         offset="1" />
    </linearGradient>
    <linearGradient
       gradientTransform="translate(264,1062)"
       x2="0"
       gradientUnits="userSpaceOnUse"
       y2="336.36"
       y1="392.36"
       id="b">
      <stop
         id="stop12"
         stop-opacity="0"
         stop-color="#ffffff" />
      <stop
         id="stop14"
         stop-opacity=".1"
         stop-color="#ffffff"
         offset="1" />
    </linearGradient>
    <path
       d="m322 1455.36v-58h30l14 14v44h-14z"
       id="c" />
  </defs>
  <use
     transform="translate(-312,-1394.36)"
     height="100%"
     width="100%"
     y="0"
     x="0"
     style="color:#000000;color-interpolation:sRGB;color-interpolation-filters:linearRGB;fill:#084263;color-rendering:auto;image-rendering:auto;shape-rendering:auto;text-rendering:auto"
     id="use21"
     xlink:href="#c" />
  <rect
     transform="scale(1,-1)"
     x="10"
     y="-3.9999855"
     width="30"
     height="1"
     id="rect25"
     style="color:#000000;opacity:0.5;color-interpolation:sRGB;color-interpolation-filters:linearRGB;fill:#ffffff;color-rendering:auto;image-rendering:auto;shape-rendering:auto;text-rendering:auto" />
  <rect
     transform="scale(1,-1)"
     x="10"
     y="-60.999985"
     width="44"
     height="1"
     id="rect27"
     style="color:#000000;opacity:0.25;color-interpolation:sRGB;color-interpolation-filters:linearRGB;color-rendering:auto;image-rendering:auto;shape-rendering:auto;text-rendering:auto" />
  <path
     style="color:#000000;color-interpolation:sRGB;color-interpolation-filters:linearRGB;fill:#13a4f7;color-rendering:auto;image-rendering:auto;shape-rendering:auto;text-rendering:auto"
     id="path29"
     d="M 54,17 40,3 40,17 Z" />
  <path
     d="M 40,17 54,31 54,17 Z"
     id="path31"
     style="opacity:0.2;fill:url(#a);fill-rule:evenodd" />
  <path
     d="m 25,21 0,10 0,2 0,10 2,0 0,-10 8,0 0,-2 -8,0 0,-10 -2,0 z m 10,12 0,2 2,0 0,-2 -2,0 z m 2,2 0,8 2,0 0,-8 -2,0 z"
     id="rect4167"
     style="fill:#13a4f7;fill-opacity:1" />
  <use
     transform="translate(-312,-1394.36)"
     xlink:href="#c"
     id="use35"
     style="fill:url(#b)"
     x="0"
     y="0"
     width="100%"
     height="100%" />
</svg>
