<?xml version="1.0" encoding="UTF-8" standalone="no"?>
<svg width="64" version="1.1" xmlns="http://www.w3.org/2000/svg" viewBox="0 0 64 64" height="64" xmlns:xlink="http://www.w3.org/1999/xlink" xmlns:inkscape="http://www.inkscape.org/namespaces/inkscape">
 <defs id="defs4">
  <linearGradient inkscape:collect="always" id="linearGradient4351">
   <stop style="stop-color:#dedede" id="stop4353"/>
   <stop offset="1" style="stop-color:#fbfbfb" id="stop4355"/>
  </linearGradient>
  <linearGradient inkscape:collect="always" xlink:href="#linearGradient4300-7" id="linearGradient4306" y1="61" y2="3" x2="0" gradientUnits="userSpaceOnUse"/>
  <linearGradient inkscape:collect="always" xlink:href="#linearGradient4410" id="linearGradient4427" y1="31" x1="54" y2="17" x2="40" gradientUnits="userSpaceOnUse" gradientTransform="matrix(1 0 0 -1 -14 78)"/>
  <linearGradient inkscape:collect="always" id="linearGradient4410">
   <stop style="stop-color:#383e51" id="stop4412"/>
   <stop offset="1" style="stop-color:#655c6f;stop-opacity:0" id="stop4414"/>
  </linearGradient>
  <linearGradient inkscape:collect="always" xlink:href="#linearGradient4351" id="linearGradient4357" y1="61" y2="47" x2="0" gradientUnits="userSpaceOnUse"/>
  <linearGradient inkscape:collect="always" id="linearGradient4300-7">
   <stop style="stop-color:#5e6b78" id="stop4302-2"/>
   <stop offset="1" style="stop-color:#768492" id="stop4304-4"/>
  </linearGradient>
 </defs>
 <metadata id="metadata84"/>
 <path style="fill:url(#linearGradient4306)" id="rect3500" d="M 10 3 L 10 61 L 40 61 L 54 47 L 54 17 L 54 3 L 40 3 L 10 3 z "/>
 <rect width="30" x="10" y="60" height="1" style="fill:#2e3132;fill-opacity:0.294118" id="rect4169"/>
 <rect width="44" x="10" y="3" height="1" style="fill:#ffffff;fill-opacity:0.409836" id="rect4236"/>
 <path inkscape:connector-curvature="0" style="fill:url(#linearGradient4357);fill-rule:evenodd" id="path4314" d="M 54,47 40,61 40,47 Z"/>
 <path inkscape:connector-curvature="0" style="fill:url(#linearGradient4427);opacity:0.2;fill-rule:evenodd" id="path4320" d="M 26,61 40,47 40,61 Z"/>
 <path style="fill:#fbfbfb" id="path4211" d="M 26 21 A 2 2 0 0 0 24 23 A 2 2 0 0 0 25 24.728516 L 25 39.269531 A 2 2 0 0 0 24 41 A 2 2 0 0 0 26 43 A 2 2 0 0 0 28 41 A 2 2 0 0 0 27 39.271484 L 27 24.730469 A 2 2 0 0 0 28 23 A 2 2 0 0 0 26 21 z M 28 23 L 31 25.099609 L 31 24 L 35 24 C 36.108 24 37 24.892 37 26 L 37 33 L 37 39.269531 A 2 2 0 0 0 36 41 A 2 2 0 0 0 38 43 A 2 2 0 0 0 40 41 A 2 2 0 0 0 39 39.271484 L 39 25 C 39 23.338 37.661668 22.033233 36 22 L 31 22 L 31 21 L 28 23 z M 26 22 A 1 1 0 0 1 27 23 A 1 1 0 0 1 26 24 A 1 1 0 0 1 25 23 A 1 1 0 0 1 26 22 z M 26 40 A 1 1 0 0 1 27 41 A 1 1 0 0 1 26 42 A 1 1 0 0 1 25 41 A 1 1 0 0 1 26 40 z M 38 40 A 1 1 0 0 1 39 41 A 1 1 0 0 1 38 42 A 1 1 0 0 1 37 41 A 1 1 0 0 1 38 40 z "/>
</svg>
