<?xml version="1.0" encoding="UTF-8" standalone="no"?>
<svg
   xmlns:dc="http://purl.org/dc/elements/1.1/"
   xmlns:cc="http://creativecommons.org/ns#"
   xmlns:rdf="http://www.w3.org/1999/02/22-rdf-syntax-ns#"
   xmlns:svg="http://www.w3.org/2000/svg"
   xmlns="http://www.w3.org/2000/svg"
   xmlns:xlink="http://www.w3.org/1999/xlink"
   xmlns:sodipodi="http://sodipodi.sourceforge.net/DTD/sodipodi-0.dtd"
   xmlns:inkscape="http://www.inkscape.org/namespaces/inkscape"
   width="64"
   version="1.1"
   viewBox="0 0 64 64"
   height="64"
   id="svg4347"
   inkscape:version="0.91 r13725"
   sodipodi:docname="text-x-qml.svg">
  <sodipodi:namedview
     pagecolor="#ffffff"
     bordercolor="#666666"
     borderopacity="1"
     objecttolerance="10"
     gridtolerance="10"
     guidetolerance="10"
     inkscape:pageopacity="0"
     inkscape:pageshadow="2"
     inkscape:window-width="1366"
     inkscape:window-height="699"
     id="namedview4369"
     showgrid="true"
     inkscape:zoom="11.185988"
     inkscape:cx="22.26837"
     inkscape:cy="32"
     inkscape:window-x="0"
     inkscape:window-y="0"
     inkscape:window-maximized="1"
     inkscape:current-layer="svg4347">
    <inkscape:grid
       type="xygrid"
       id="grid4184" />
  </sodipodi:namedview>
  <defs
     id="defs4">
    <linearGradient
       id="linearGradient4351">
      <stop
         style="stop-color:#036b53"
         id="stop4353" />
      <stop
         offset="1"
         style="stop-color:#036b53"
         id="stop4355" />
    </linearGradient>
    <linearGradient
       inkscape:collect="always"
       xlink:href="#e-9"
       id="linearGradient4306-5"
       y1="66.966103"
       y2="-0.79661024"
       x2="62.644066"
       gradientUnits="userSpaceOnUse"
       gradientTransform="matrix(1,0,0,-1,0,64)"
       x1="4.0677967" />
    <linearGradient
       inkscape:collect="always"
       xlink:href="#linearGradient4351-8"
       id="linearGradient4357-8"
       y1="61"
       y2="47"
       x2="0"
       gradientUnits="userSpaceOnUse"
       gradientTransform="matrix(1,0,0,-1,0,64)" />
    <linearGradient
       inkscape:collect="always"
       xlink:href="#linearGradient4410"
       id="linearGradient4427-5"
       y1="17"
       x1="40"
       y2="31"
       x2="54"
       gradientUnits="userSpaceOnUse" />
    <linearGradient
       inkscape:collect="always"
       id="linearGradient4410">
      <stop
         style="stop-color:#383e51"
         id="stop4412" />
      <stop
         offset="1"
         style="stop-color:#655c6f;stop-opacity:0"
         id="stop4414" />
    </linearGradient>
    <linearGradient
       id="e-9"
       y1="-0.88300002"
       x1="-41.259998"
       y2="37.956001"
       x2="-2.994"
       gradientUnits="userSpaceOnUse"
       gradientTransform="matrix(0.99317,0,0,0.97839,121.8237,16.348784)">
      <stop
         stop-color="#66b036"
         id="stop23-9" />
      <stop
         offset="1"
         stop-color="#239161"
         id="stop25-6" />
    </linearGradient>
    <linearGradient
       inkscape:collect="always"
       id="linearGradient4351-8">
      <stop
         style="stop-color:#ade2a1"
         id="stop4353-3" />
      <stop
         offset="1"
         style="stop-color:#cfeec9"
         id="stop4355-1" />
    </linearGradient>
  </defs>
  <metadata
     id="metadata84">
    <rdf:RDF>
      <cc:Work
         rdf:about="">
        <dc:format>image/svg+xml</dc:format>
        <dc:type
           rdf:resource="http://purl.org/dc/dcmitype/StillImage" />
      </cc:Work>
    </rdf:RDF>
  </metadata>
  <path
     inkscape:connector-curvature="0"
     style="fill:url(#linearGradient4306-5);fill-opacity:1"
     id="rect3500-9"
     d="m 10,61 0,-58 30,0 14,14 0,30 0,14 -14,0 -30,0 z" />
  <rect
     width="30"
     x="10"
     y="-4"
     height="1"
     style="fill:#ffffff;fill-opacity:0.41176471"
     id="rect4169-2"
     transform="scale(1,-1)" />
  <rect
     width="44"
     x="10"
     y="-61"
     height="1"
     style="fill:#2e3132;fill-opacity:0.29411765"
     id="rect4236-8"
     transform="scale(1,-1)" />
  <path
     inkscape:connector-curvature="0"
     style="fill:url(#linearGradient4357-8);fill-rule:evenodd;fill-opacity:1.0"
     id="path4314-9"
     d="M 54,17 40,3 40,17 Z" />
  <path
     inkscape:connector-curvature="0"
     style="opacity:0.2;fill:url(#linearGradient4427-5);fill-rule:evenodd"
     id="path4320-7"
     d="M 40,17 54,31 54,17 Z" />
  <path
     d="m 43.625811,21.988591 -23.037326,0 c -0.760551,0 -1.376349,0.615807 -1.376349,1.376349 l 0,19.255661 c 0,0.760551 0.615798,1.376349 1.376349,1.376349 l 23.039955,0 c 0.757912,0 1.376348,-0.615798 1.376348,-1.376349 l 0,-19.258291 c -0.0028,-0.757912 -0.618436,-1.373719 -1.378977,-1.373719 z m -3.036907,1.721093 c 0.600014,0 1.086863,0.486849 1.086863,1.086863 0,0.600014 -0.486849,1.084234 -1.086863,1.084234 -0.600014,0 -1.086872,-0.486849 -1.086872,-1.084234 0,-0.600014 0.486858,-1.086863 1.086872,-1.086863 z m -3.065855,0 c 0.600014,0 1.086863,0.486849 1.086863,1.086863 0,0.600014 -0.486849,1.084234 -1.086863,1.084234 -0.600014,0 -1.086862,-0.486849 -1.086862,-1.084234 0,-0.600014 0.486848,-1.086863 1.086862,-1.086863 z m -3.065854,0 c 0.600014,0 1.086863,0.486849 1.086863,1.086863 0,0.600014 -0.486849,1.084234 -1.086863,1.084234 -0.600015,0 -1.086864,-0.486849 -1.086864,-1.084234 0,-0.600014 0.486849,-1.086863 1.086864,-1.086863 z m 7.794896,17.534578 -20.289896,0 0,-13.984503 20.287267,0 0,13.984503 z"
     id="path10"
     inkscape:connector-curvature="0"
     sodipodi:nodetypes="ssssssscsssssssssssssssscccccc"
     style="fill:#e3f5df;fill-opacity:1" />
</svg>
