<?xml version="1.0" encoding="UTF-8" standalone="no"?>
<svg
   xmlns:dc="http://purl.org/dc/elements/1.1/"
   xmlns:cc="http://creativecommons.org/ns#"
   xmlns:rdf="http://www.w3.org/1999/02/22-rdf-syntax-ns#"
   xmlns:svg="http://www.w3.org/2000/svg"
   xmlns="http://www.w3.org/2000/svg"
   xmlns:xlink="http://www.w3.org/1999/xlink"
   xmlns:sodipodi="http://sodipodi.sourceforge.net/DTD/sodipodi-0.dtd"
   xmlns:inkscape="http://www.inkscape.org/namespaces/inkscape"
   width="64"
   version="1.1"
   viewBox="0 0 64 64"
   height="64"
   id="svg2"
   inkscape:version="0.91 r13725"
   sodipodi:docname="video-x-matroska.svg">
  <sodipodi:namedview
     pagecolor="#ffffff"
     bordercolor="#666666"
     borderopacity="1"
     objecttolerance="10"
     gridtolerance="10"
     guidetolerance="10"
     inkscape:pageopacity="0"
     inkscape:pageshadow="2"
     inkscape:window-width="1854"
     inkscape:window-height="1051"
     id="namedview25"
     showgrid="false"
     inkscape:zoom="5.2149125"
     inkscape:cx="18.808746"
     inkscape:cy="11.861159"
     inkscape:window-x="66"
     inkscape:window-y="0"
     inkscape:window-maximized="1"
     inkscape:current-layer="svg2" />
  <defs
     id="defs4">
    <linearGradient
       inkscape:collect="always"
       id="linearGradient4410">
      <stop
         style="stop-color:#383e51"
         id="stop4412" />
      <stop
         offset="1"
         style="stop-color:#655c6f;stop-opacity:0"
         id="stop4414" />
    </linearGradient>
    <linearGradient
       id="linearGradient4351-4">
      <stop
         style="stop-color:#036b53"
         id="stop4353-0" />
      <stop
         offset="1"
         style="stop-color:#036b53"
         id="stop4355-6" />
    </linearGradient>
    <linearGradient
       inkscape:collect="always"
       id="linearGradient4300-9">
      <stop
         style="stop-color:#26c281"
         id="stop4302-0" />
      <stop
         offset="1"
         style="stop-color:#3fc380"
         id="stop4304-3" />
    </linearGradient>
    <linearGradient
       inkscape:collect="always"
       xlink:href="#linearGradient4300-9"
       id="linearGradient4306-6"
       y1="61"
       y2="3"
       x2="0"
       gradientUnits="userSpaceOnUse"
       gradientTransform="matrix(1.3181818,0,0,0.75862068,-10.181818,7.7241384)" />
    <linearGradient
       inkscape:collect="always"
       xlink:href="#linearGradient4410"
       id="linearGradient4428"
       x1="3"
       y1="54"
       x2="61"
       y2="10"
       gradientUnits="userSpaceOnUse" />
    <linearGradient
       inkscape:collect="always"
       xlink:href="#linearGradient4351-4"
       id="linearGradient4391"
       x1="58"
       y1="54"
       x2="58"
       y2="10"
       gradientUnits="userSpaceOnUse" />
    <linearGradient
       id="linearGradient4351-1">
      <stop
         style="stop-color:#c8e3fe"
         id="stop4353-6" />
      <stop
         offset="1"
         style="stop-color:#ffffff"
         id="stop4355-2" />
    </linearGradient>
    <linearGradient
       inkscape:collect="always"
       xlink:href="#linearGradient4351-4"
       id="linearGradient4391-2"
       x1="58"
       y1="54"
       x2="58"
       y2="10"
       gradientUnits="userSpaceOnUse"
       gradientTransform="translate(-50,0)" />
  </defs>
  <metadata
     id="metadata84">
    <rdf:RDF>
      <cc:Work
         rdf:about="">
        <dc:format>image/svg+xml</dc:format>
        <dc:type
           rdf:resource="http://purl.org/dc/dcmitype/StillImage" />
      </cc:Work>
    </rdf:RDF>
  </metadata>
  <path
     style="fill:url(#linearGradient4306-6);fill-opacity:1.0"
     id="rect3500-1"
     d="M 3,10 3,54 47,54 61,54 61,20.62069 61,10 42.545454,10 Z"
     inkscape:connector-curvature="0"
     sodipodi:nodetypes="cccccccc" />
  <rect
     width="58"
     x="3"
     y="53"
     height="1"
     style="fill:#2e3132;fill-opacity:0.29411801"
     id="rect4169-2" />
  <rect
     width="58"
     x="3"
     y="10"
     height="1"
     style="fill:#ffffff;fill-opacity:0.40983599"
     id="rect4236-7" />
  <path
     inkscape:connector-curvature="0"
     style="fill:#036b53;fill-opacity:1;stroke:none;stroke-width:2;stroke-miterlimit:4;stroke-dasharray:none;stroke-opacity:1"
     d="M 32,21 A 11,11 0 0 0 21,32 11,11 0 0 0 32,43 11,11 0 0 0 43,32 11,11 0 0 0 32,21 Z m 0.144531,0.951172 a 10,10 0 0 1 10,10 10,10 0 0 1 -10,10 10,10 0 0 1 -10,-10 10,10 0 0 1 10,-10 z"
     id="path4245" />
  <path
     style="fill:#036b53;fill-opacity:1;fill-rule:evenodd;stroke:none;stroke-width:1px;stroke-linecap:butt;stroke-linejoin:miter;stroke-opacity:1"
     d="M 38,31.461538 28,39 28,25 Z"
     id="path4250"
     inkscape:connector-curvature="0" />
  <path
     style="fill:url(#linearGradient4428);fill-opacity:1;fill-rule:evenodd;stroke:none;stroke-width:1px;stroke-linecap:butt;stroke-linejoin:miter;stroke-opacity:1"
     d="m 57,54 -2,-2 2,-4 -2,-2 2,-4 -2,-2 2,-4 -2,-2 2,-4 -2,-2 2,-4 -2,-2 2,-4 -2,-2 4,-4 2,2 0,40 z"
     id="path4417"
     inkscape:connector-curvature="0"
     sodipodi:nodetypes="cccccccccccccccccc" />
  <path
     inkscape:connector-curvature="0"
     style="fill:url(#linearGradient4391);fill-opacity:1.0;stroke:none;stroke-width:2;stroke-miterlimit:4;stroke-dasharray:none;stroke-opacity:1"
     d="m 55,12 0,4 4,0 0,-4 -4,0 z m 0,6 0,4 4,0 0,-4 -4,0 z m 0,6 0,4 4,0 0,-4 -4,0 z m 0,6 0,4 4,0 0,-4 -4,0 z m 0,6 0,4 4,0 0,-4 -4,0 z m 0,6 0,4 4,0 0,-4 -4,0 z m 0,6 0,4 4,0 0,-4 -4,0 z"
     id="rect4159" />
  <path
     inkscape:connector-curvature="0"
     style="fill:url(#linearGradient4391-2);fill-opacity:1.0;stroke:none;stroke-width:2;stroke-miterlimit:4;stroke-dasharray:none;stroke-opacity:1"
     d="m 5,12 0,4 4,0 0,-4 -4,0 z m 0,6 0,4 4,0 0,-4 -4,0 z m 0,6 0,4 4,0 0,-4 -4,0 z m 0,6 0,4 4,0 0,-4 -4,0 z m 0,6 0,4 4,0 0,-4 -4,0 z m 0,6 0,4 4,0 0,-4 -4,0 z m 0,6 0,4 4,0 0,-4 -4,0 z"
     id="rect4159-3" />
</svg>
