<?xml version="1.0" encoding="UTF-8" standalone="no"?>
<svg
   xmlns:dc="http://purl.org/dc/elements/1.1/"
   xmlns:cc="http://creativecommons.org/ns#"
   xmlns:rdf="http://www.w3.org/1999/02/22-rdf-syntax-ns#"
   xmlns:svg="http://www.w3.org/2000/svg"
   xmlns="http://www.w3.org/2000/svg"
   xmlns:xlink="http://www.w3.org/1999/xlink"
   xmlns:sodipodi="http://sodipodi.sourceforge.net/DTD/sodipodi-0.dtd"
   xmlns:inkscape="http://www.inkscape.org/namespaces/inkscape"
   width="64"
   version="1.1"
   viewBox="0 0 64 64"
   height="64"
   id="svg2"
   inkscape:version="0.91 r13725"
   sodipodi:docname="video-x-theora+ogg.svg">
  <sodipodi:namedview
     pagecolor="#ffffff"
     bordercolor="#666666"
     borderopacity="1"
     objecttolerance="10"
     gridtolerance="10"
     guidetolerance="10"
     inkscape:pageopacity="0"
     inkscape:pageshadow="2"
     inkscape:window-width="1920"
     inkscape:window-height="1021"
     id="namedview25"
     showgrid="false"
     inkscape:zoom="0.65186406"
     inkscape:cx="30.97228"
     inkscape:cy="195.47737"
     inkscape:window-x="0"
     inkscape:window-y="30"
     inkscape:window-maximized="1"
     inkscape:current-layer="svg2"
     inkscape:snap-bbox="true"
     inkscape:bbox-nodes="true">
    <inkscape:grid
       type="xygrid"
       id="grid4232" />
  </sodipodi:namedview>
  <defs
     id="defs4">
    <linearGradient
       id="linearGradient4351-4">
      <stop
         style="stop-color:#036b53"
         id="stop4353-0" />
      <stop
         offset="1"
         style="stop-color:#036b53"
         id="stop4355-6" />
    </linearGradient>
    <linearGradient
       id="linearGradient4351-1">
      <stop
         style="stop-color:#c8e3fe"
         id="stop4353-6" />
      <stop
         offset="1"
         style="stop-color:#ffffff"
         id="stop4355-2" />
    </linearGradient>
    <linearGradient
       id="linearGradient4300-3-3">
      <stop
         style="stop-color:#f39c12"
         id="stop4302-6" />
      <stop
         offset="1"
         style="stop-color:#f89406"
         id="stop4304-7-6" />
    </linearGradient>
    <linearGradient
       id="linearGradient4351-5">
      <stop
         style="stop-color:#fddda3"
         id="stop4353-1" />
      <stop
         offset="1"
         style="stop-color:#fde3a7"
         id="stop4355-8" />
    </linearGradient>
    <linearGradient
       inkscape:collect="always"
       xlink:href="#linearGradient6251"
       id="linearGradient5443"
       gradientUnits="userSpaceOnUse"
       gradientTransform="matrix(1,0,0,0.84587337,-1,-272.73459)"
       x1="58"
       y1="392.36221"
       x2="58"
       y2="324.65894" />
    <linearGradient
       inkscape:collect="always"
       id="linearGradient6251">
      <stop
         style="stop-color:#ffffff;stop-opacity:0"
         offset="0"
         id="stop6253" />
      <stop
         style="stop-color:#ffffff;stop-opacity:0.2"
         offset="1"
         id="stop6255" />
    </linearGradient>
  </defs>
  <metadata
     id="metadata84">
    <rdf:RDF>
      <cc:Work
         rdf:about="">
        <dc:format>image/svg+xml</dc:format>
        <dc:type
           rdf:resource="http://purl.org/dc/dcmitype/StillImage" />
      </cc:Work>
    </rdf:RDF>
  </metadata>
  <rect
     width="0"
     x="-48.49033"
     y="72.208549"
     height="10.999983"
     style="fill:#036b53"
     id="rect4035" />
  <rect
     width="0"
     x="-48.49033"
     y="72.208549"
     height="10.999983"
     style="fill:#036b53"
     id="rect4035-6" />
  <rect
     width="0"
     x="-48.49033"
     y="72.208549"
     height="10.999983"
     style="fill:#036b53"
     id="rect4035-3" />
  <rect
     width="0"
     x="-48.169559"
     y="33.208546"
     height="10.999983"
     style="fill:#ffffff"
     id="rect4035-62" />
  <rect
     width="0"
     x="-48.49033"
     y="32.208546"
     height="10.999983"
     style="fill:#ffffff"
     id="rect4035-4" />
  <rect
     width="0"
     x="-40.576389"
     y="45.140736"
     height="10.999983"
     style="fill:#ffffff"
     id="rect4035-367" />
  <rect
     width="0"
     x="-40.89716"
     y="44.140736"
     height="10.999983"
     style="fill:#ffffff"
     id="rect4035-4-535" />
  <rect
     width="0"
     x="-42.433018"
     y="44.026905"
     height="11.1139"
     style="fill:#fbd2bf"
     id="rect4035-3-6" />
  <rect
     width="0"
     x="-40.89716"
     y="44.140736"
     height="10.999983"
     style="fill:#fbd2bf"
     id="rect4035-1" />
  <rect
     width="0"
     x="-20.897158"
     y="44.140736"
     height="10.999983"
     style="fill:#fbfbfb"
     id="rect4035-2" />
  <rect
     width="0"
     x="-40.89716"
     y="44.140736"
     height="10.999983"
     style="fill:#fbfbfb"
     id="rect4035-8" />
  <rect
     width="0"
     x="-40.89716"
     y="44.140736"
     height="10.999983"
     style="fill:#fbfbfb"
     id="rect4035-9" />
  <rect
     width="0"
     x="-40.576389"
     y="45.140736"
     height="10.999983"
     style="fill:#ffffff"
     id="rect4035-36" />
  <rect
     width="0"
     x="-40.576389"
     y="45.140736"
     height="10.999983"
     style="fill:#ffffff"
     id="rect4035-7" />
  <rect
     width="0"
     x="-40.89716"
     y="44.140736"
     height="10.999983"
     style="fill:#ffffff"
     id="rect4035-4-7" />
  <rect
     width="0"
     x="-42.433018"
     y="44.026905"
     height="11.1139"
     style="fill:#fbd2bf"
     id="rect4035-3-53" />
  <rect
     width="0"
     x="-40.89716"
     y="44.140736"
     height="10.999983"
     style="fill:#fbd2bf"
     id="rect4035-1-5" />
  <rect
     width="0"
     x="-20.897158"
     y="44.140736"
     height="10.999983"
     style="fill:#fbfbfb"
     id="rect4035-2-6" />
  <rect
     width="0"
     x="-40.89716"
     y="44.140736"
     height="10.999983"
     style="fill:#fbfbfb"
     id="rect4035-8-2" />
  <rect
     width="0"
     x="-40.89716"
     y="44.140736"
     height="10.999983"
     style="fill:#fbfbfb"
     id="rect4035-9-9" />
  <rect
     width="0"
     x="-27.639467"
     y="52.89513"
     height="10.999983"
     style="fill:#ffffff"
     id="rect4035-75" />
  <rect
     width="0"
     x="-27.960238"
     y="51.89513"
     height="10.999983"
     style="fill:#ffffff"
     id="rect4035-4-3" />
  <rect
     width="0"
     x="-29.496096"
     y="51.7813"
     height="11.1139"
     style="fill:#fbd2bf"
     id="rect4035-3-56" />
  <rect
     width="0"
     x="-27.960238"
     y="51.89513"
     height="10.999983"
     style="fill:#fbd2bf"
     id="rect4035-1-2" />
  <rect
     width="0"
     x="-27.960238"
     y="51.89513"
     height="10.999983"
     style="fill:#fbfbfb"
     id="rect4035-5-9" />
  <rect
     width="0"
     x="-27.639467"
     y="52.89513"
     height="10.999983"
     style="fill:#ffffff"
     id="rect4035-7-1" />
  <rect
     width="0"
     x="-27.960238"
     y="51.89513"
     height="10.999983"
     style="fill:#ffffff"
     id="rect4035-4-53" />
  <rect
     width="0"
     x="-29.496096"
     y="51.7813"
     height="11.1139"
     style="fill:#fbd2bf"
     id="rect4035-3-5" />
  <rect
     width="0"
     x="-27.960238"
     y="51.89513"
     height="10.999983"
     style="fill:#fbd2bf"
     id="rect4035-1-6" />
  <rect
     width="0"
     x="-27.960238"
     y="51.89513"
     height="10.999983"
     style="fill:#fbfbfb"
     id="rect4035-5-2" />
  <rect
     width="0"
     x="-27.639467"
     y="52.89513"
     height="10.999983"
     style="fill:#ffffff"
     id="rect4035-53" />
  <rect
     width="0"
     x="-27.960238"
     y="51.89513"
     height="10.999983"
     style="fill:#ffffff"
     id="rect4035-4-5" />
  <rect
     width="0"
     x="-27.639467"
     y="52.89513"
     height="10.999983"
     style="fill:#ffffff"
     id="rect4035-535" />
  <rect
     width="0"
     x="-27.960238"
     y="51.89513"
     height="10.999983"
     style="fill:#ffffff"
     id="rect4035-4-6" />
  <rect
     width="0"
     x="-29.496096"
     y="51.7813"
     height="11.1139"
     style="fill:#fbd2bf"
     id="rect4035-3-2" />
  <rect
     width="0"
     x="-27.960238"
     y="51.89513"
     height="10.999983"
     style="fill:#fbd2bf"
     id="rect4035-1-9" />
  <rect
     width="0"
     x="-27.960238"
     y="51.89513"
     height="10.999983"
     style="fill:#fbfbfb"
     id="rect4035-5" />
  <rect
     width="0"
     x="-27.960238"
     y="51.89513"
     height="10.999983"
     style="fill:#fffcf9"
     id="rect4035-8-0" />
  <rect
     width="0"
     x="-27.960238"
     y="51.89513"
     height="10.999983"
     style="fill:#e8d9eb"
     id="rect4035-44" />
  <rect
     width="0"
     x="-27.960238"
     y="51.89513"
     height="10.999983"
     style="fill:#e8d9eb"
     id="rect4035-7-6" />
  <rect
     width="0"
     x="-27.639467"
     y="52.89513"
     height="10.999983"
     style="fill:#ffffff"
     id="rect4035-26" />
  <rect
     width="0"
     x="-27.960238"
     y="51.89513"
     height="10.999983"
     style="fill:#ffffff"
     id="rect4035-4-1" />
  <rect
     width="0"
     x="-29.496096"
     y="51.7813"
     height="11.1139"
     style="fill:#fbd2bf"
     id="rect4035-3-8" />
  <rect
     width="0"
     x="-27.960238"
     y="51.89513"
     height="10.999983"
     style="fill:#fbd2bf"
     id="rect4035-1-7" />
  <rect
     width="0"
     x="-31.304537"
     y="47.783558"
     height="22.785679"
     style="fill:#ffffff"
     id="rect4035-753" />
  <rect
     width="0"
     x="-31.304537"
     y="47.783558"
     height="22.785679"
     style="fill:#ffffff"
     id="rect4035-7-5" />
  <rect
     width="0"
     x="-31.968966"
     y="45.712147"
     height="22.785679"
     style="fill:#ffffff"
     id="rect4035-4-62" />
  <rect
     width="0"
     x="-35.150364"
     y="45.476368"
     height="23.02165"
     style="fill:#fbd2bf"
     id="rect4035-3-9" />
  <rect
     width="0"
     x="-31.968966"
     y="45.712147"
     height="22.785679"
     style="fill:#fbd2bf"
     id="rect4035-1-1" />
  <rect
     width="0"
     x="9.4595013"
     y="45.712147"
     height="22.785679"
     style="fill:#fbfbfb"
     id="rect4035-2-2" />
  <rect
     width="0"
     x="-31.968966"
     y="45.712147"
     height="22.785679"
     style="fill:#fbfbfb"
     id="rect4035-8-7" />
  <rect
     width="0"
     x="-31.968966"
     y="45.712147"
     height="22.785679"
     style="fill:#fbfbfb"
     id="rect4035-9-0" />
  <rect
     width="0"
     x="-4.5066857"
     y="63.846241"
     height="22.785679"
     style="fill:#ffffff"
     id="rect4035-75-6" />
  <rect
     width="0"
     x="-5.1711755"
     y="61.77483"
     height="22.785679"
     style="fill:#ffffff"
     id="rect4035-4-3-0" />
  <rect
     width="0"
     x="-8.3525715"
     y="61.53899"
     height="23.02165"
     style="fill:#fbd2bf"
     id="rect4035-3-56-6" />
  <rect
     width="0"
     x="-5.1711755"
     y="61.77483"
     height="22.785679"
     style="fill:#fbd2bf"
     id="rect4035-1-2-2" />
  <rect
     width="0"
     x="-5.1711755"
     y="61.77483"
     height="22.785679"
     style="fill:#fbfbfb"
     id="rect4035-5-9-6" />
  <rect
     width="0"
     x="-4.5066857"
     y="63.846241"
     height="22.785679"
     style="fill:#ffffff"
     id="rect4035-7-1-1" />
  <rect
     width="0"
     x="-5.1711755"
     y="61.77483"
     height="22.785679"
     style="fill:#ffffff"
     id="rect4035-4-53-8" />
  <rect
     width="0"
     x="-8.3525715"
     y="61.53899"
     height="23.02165"
     style="fill:#fbd2bf"
     id="rect4035-3-5-7" />
  <rect
     width="0"
     x="-5.1711755"
     y="61.77483"
     height="22.785679"
     style="fill:#fbd2bf"
     id="rect4035-1-6-9" />
  <rect
     width="0"
     x="-5.1711755"
     y="61.77483"
     height="22.785679"
     style="fill:#fbfbfb"
     id="rect4035-5-2-2" />
  <rect
     width="0"
     x="-4.5066857"
     y="63.846241"
     height="22.785679"
     style="fill:#ffffff"
     id="rect4035-53-0" />
  <rect
     width="0"
     x="-5.1711755"
     y="61.77483"
     height="22.785679"
     style="fill:#ffffff"
     id="rect4035-4-5-2" />
  <rect
     width="0"
     x="-4.5066857"
     y="63.846241"
     height="22.785679"
     style="fill:#ffffff"
     id="rect4035-535-3" />
  <rect
     width="0"
     x="-5.1711755"
     y="61.77483"
     height="22.785679"
     style="fill:#ffffff"
     id="rect4035-4-6-7" />
  <rect
     width="0"
     x="-8.3525715"
     y="61.53899"
     height="23.02165"
     style="fill:#fbd2bf"
     id="rect4035-3-2-5" />
  <rect
     width="0"
     x="-5.1711755"
     y="61.77483"
     height="22.785679"
     style="fill:#fbd2bf"
     id="rect4035-1-9-9" />
  <rect
     width="0"
     x="-5.1711755"
     y="61.77483"
     height="22.785679"
     style="fill:#fbfbfb"
     id="rect4035-5-22" />
  <rect
     width="0"
     x="-5.1711755"
     y="61.77483"
     height="22.785679"
     style="fill:#fffcf9"
     id="rect4035-8-0-8" />
  <rect
     width="0"
     x="-5.1711755"
     y="61.77483"
     height="22.785679"
     style="fill:#e8d9eb"
     id="rect4035-44-9" />
  <rect
     width="0"
     x="-5.1711755"
     y="61.77483"
     height="22.785679"
     style="fill:#e8d9eb"
     id="rect4035-7-6-7" />
  <rect
     width="0"
     x="-4.5066857"
     y="63.846241"
     height="22.785679"
     style="fill:#ffffff"
     id="rect4035-26-3" />
  <rect
     width="0"
     x="-5.1711755"
     y="61.77483"
     height="22.785679"
     style="fill:#ffffff"
     id="rect4035-4-1-6" />
  <rect
     width="0"
     x="-8.3525715"
     y="61.53899"
     height="23.02165"
     style="fill:#fbd2bf"
     id="rect4035-3-8-1" />
  <rect
     width="0"
     x="-5.1711755"
     y="61.77483"
     height="22.785679"
     style="fill:#fbd2bf"
     id="rect4035-1-7-2" />
  <g
     id="g4345">
    <path
       style="fill:#f9d24c;fill-opacity:1;color:#000000;clip-rule:nonzero;display:inline;overflow:visible;visibility:visible;opacity:1;isolation:auto;mix-blend-mode:normal;color-interpolation:sRGB;color-interpolation-filters:linearRGB;solid-color:#000000;solid-opacity:1;fill-rule:nonzero;stroke:none;stroke-width:1;stroke-linecap:butt;stroke-linejoin:miter;stroke-miterlimit:4;stroke-dasharray:none;stroke-dashoffset:0;stroke-opacity:1;marker:none;filter-blend-mode:normal;filter-gaussianBlur-deviation:0;color-rendering:auto;image-rendering:auto;shape-rendering:auto;text-rendering:auto;enable-background:accumulate"
       id="path5427"
       d="M 3,17 3,61 47,61 61,61 61,27.62069 61,17 42.54545,17 Z"
       inkscape:connector-curvature="0"
       sodipodi:nodetypes="cccccccc" />
    <rect
       width="58"
       x="3"
       y="59.999981"
       height="1"
       style="fill:#000000;fill-opacity:1;color:#000000;clip-rule:nonzero;display:inline;overflow:visible;visibility:visible;opacity:0.25;isolation:auto;mix-blend-mode:normal;color-interpolation:sRGB;color-interpolation-filters:linearRGB;solid-color:#000000;solid-opacity:1;fill-rule:nonzero;stroke-width:1;stroke-linecap:butt;stroke-linejoin:miter;stroke-miterlimit:4;stroke-dasharray:none;stroke-dashoffset:0;stroke-opacity:1;filter-blend-mode:normal;filter-gaussianBlur-deviation:0;color-rendering:auto;image-rendering:auto;shape-rendering:auto;text-rendering:auto;enable-background:accumulate"
       id="rect5429" />
    <rect
       width="58"
       x="3"
       y="16.999983"
       height="1"
       style="fill:#ffffff;fill-opacity:1;color:#000000;clip-rule:nonzero;display:inline;overflow:visible;visibility:visible;opacity:0.5;isolation:auto;mix-blend-mode:normal;color-interpolation:sRGB;color-interpolation-filters:linearRGB;solid-color:#000000;solid-opacity:1;fill-rule:nonzero;stroke-width:1;stroke-linecap:butt;stroke-linejoin:miter;stroke-miterlimit:4;stroke-dasharray:none;stroke-dashoffset:0;stroke-opacity:1;filter-blend-mode:normal;filter-gaussianBlur-deviation:0;color-rendering:auto;image-rendering:auto;shape-rendering:auto;text-rendering:auto;enable-background:accumulate"
       id="rect5431" />
    <path
       inkscape:connector-curvature="0"
       style="opacity:0.75;fill:#ffffff;fill-opacity:1;stroke:none;stroke-width:2;stroke-miterlimit:4;stroke-dasharray:none;stroke-opacity:1"
       d="M 32,28 A 11,11 0 0 0 21,39 11,11 0 0 0 32,50 11,11 0 0 0 43,39 11,11 0 0 0 32,28 Z m 0.14453,0.95117 a 10,10 0 0 1 10,10 10,10 0 0 1 -10,10 10,10 0 0 1 -10,-10 10,10 0 0 1 10,-10 z"
       id="path5433" />
    <path
       style="color:#000000;clip-rule:nonzero;display:inline;overflow:visible;visibility:visible;opacity:0.75;isolation:auto;mix-blend-mode:normal;color-interpolation:sRGB;color-interpolation-filters:linearRGB;solid-color:#000000;solid-opacity:1;fill:#ffffff;fill-opacity:1;fill-rule:nonzero;stroke:none;stroke-width:2;stroke-linecap:butt;stroke-linejoin:miter;stroke-miterlimit:4;stroke-dasharray:none;stroke-dashoffset:0;stroke-opacity:1;color-rendering:auto;image-rendering:auto;shape-rendering:auto;text-rendering:auto;enable-background:accumulate"
       d="m 38.375,38.96154 -10,5.53846 0,-11 z"
       id="path5435"
       inkscape:connector-curvature="0"
       sodipodi:nodetypes="cccc" />
    <path
       inkscape:connector-curvature="0"
       style="color:#000000;clip-rule:nonzero;display:inline;overflow:visible;visibility:visible;opacity:0.75;isolation:auto;mix-blend-mode:normal;color-interpolation:sRGB;color-interpolation-filters:linearRGB;solid-color:#000000;solid-opacity:1;fill:#ffffff;fill-opacity:1;fill-rule:nonzero;stroke:none;stroke-width:2;stroke-linecap:butt;stroke-linejoin:miter;stroke-miterlimit:4;stroke-dasharray:none;stroke-dashoffset:0;stroke-opacity:1;color-rendering:auto;image-rendering:auto;shape-rendering:auto;text-rendering:auto;enable-background:accumulate"
       d="m 55,19 0,4 4,0 0,-4 -4,0 z m 0,6 0,4 4,0 0,-4 -4,0 z m 0,6 0,4 4,0 0,-4 -4,0 z m 0,6 0,4 4,0 0,-4 -4,0 z m 0,6 0,4 4,0 0,-4 -4,0 z m 0,6 0,4 4,0 0,-4 -4,0 z m 0,6 0,4 4,0 0,-4 -4,0 z"
       id="path5437" />
    <path
       inkscape:connector-curvature="0"
       style="color:#000000;clip-rule:nonzero;display:inline;overflow:visible;visibility:visible;opacity:0.75;isolation:auto;mix-blend-mode:normal;color-interpolation:sRGB;color-interpolation-filters:linearRGB;solid-color:#000000;solid-opacity:1;fill:#ffffff;fill-opacity:1;fill-rule:nonzero;stroke:none;stroke-width:2;stroke-linecap:butt;stroke-linejoin:miter;stroke-miterlimit:4;stroke-dasharray:none;stroke-dashoffset:0;stroke-opacity:1;color-rendering:auto;image-rendering:auto;shape-rendering:auto;text-rendering:auto;enable-background:accumulate"
       d="m 5,19 0,4 4,0 0,-4 -4,0 z m 0,6 0,4 4,0 0,-4 -4,0 z m 0,6 0,4 4,0 0,-4 -4,0 z m 0,6 0,4 4,0 0,-4 -4,0 z m 0,6 0,4 4,0 0,-4 -4,0 z m 0,6 0,4 4,0 0,-4 -4,0 z m 0,6 0,4 4,0 0,-4 -4,0 z"
       id="path5439" />
    <path
       sodipodi:nodetypes="cccccccc"
       inkscape:connector-curvature="0"
       d="M 3,17 3,61 47,61 61,61 61,27.62069 61,17 42.54545,17 Z"
       id="path5441"
       style="color:#000000;clip-rule:nonzero;display:inline;overflow:visible;visibility:visible;opacity:1;isolation:auto;mix-blend-mode:normal;color-interpolation:sRGB;color-interpolation-filters:linearRGB;solid-color:#000000;solid-opacity:1;fill:url(#linearGradient5443);fill-opacity:1;fill-rule:nonzero;stroke:none;stroke-width:1;stroke-linecap:butt;stroke-linejoin:miter;stroke-miterlimit:4;stroke-dasharray:none;stroke-dashoffset:0;stroke-opacity:1;marker:none;color-rendering:auto;image-rendering:auto;shape-rendering:auto;text-rendering:auto;enable-background:accumulate" />
  </g>
</svg>
