<?xml version="1.0" encoding="UTF-8" standalone="no"?>
<svg width="64" version="1.1" xmlns="http://www.w3.org/2000/svg" viewBox="0 0 64 64" height="64" xmlns:xlink="http://www.w3.org/1999/xlink" xmlns:inkscape="http://www.inkscape.org/namespaces/inkscape">
 <defs id="defs4">
  <linearGradient inkscape:collect="always" xlink:href="#linearGradient4300-5" id="linearGradient4306" y1="61" y2="3" x2="0" gradientUnits="userSpaceOnUse"/>
  <linearGradient inkscape:collect="always" xlink:href="#linearGradient4410" id="linearGradient4427" y1="31" x1="54" y2="17" x2="40" gradientUnits="userSpaceOnUse" gradientTransform="matrix(1 0 0 -1 -14 78)"/>
  <linearGradient inkscape:collect="always" id="linearGradient4410">
   <stop style="stop-color:#383e51" id="stop4412"/>
   <stop offset="1" style="stop-color:#655c6f;stop-opacity:0" id="stop4414"/>
  </linearGradient>
  <linearGradient inkscape:collect="always" xlink:href="#linearGradient4351-1" id="linearGradient4357" y1="61" y2="47" x2="0" gradientUnits="userSpaceOnUse"/>
  <linearGradient id="linearGradient4351-1">
   <stop style="stop-color:#c8e3fe" id="stop4353-6"/>
   <stop offset="1" style="stop-color:#ffffff" id="stop4355-2"/>
  </linearGradient>
  <linearGradient inkscape:collect="always" id="linearGradient4300-5">
   <stop style="stop-color:#22a7f0" id="stop4302-7"/>
   <stop offset="1" style="stop-color:#19b5fe" id="stop4304-1"/>
  </linearGradient>
 </defs>
 <metadata id="metadata84"/>
 <path style="fill:url(#linearGradient4306)" id="rect3500" d="M 10 3 L 10 61 L 40 61 L 54 47 L 54 17 L 54 3 L 40 3 L 10 3 z "/>
 <rect width="30" x="10" y="60" height="1" style="fill:#2e3132;fill-opacity:0.294118" id="rect4169"/>
 <rect width="44" x="10" y="3" height="1" style="fill:#ffffff;fill-opacity:0.409836" id="rect4236"/>
 <path inkscape:connector-curvature="0" style="fill:url(#linearGradient4357);fill-rule:evenodd" id="path4314" d="M 54,47 40,61 40,47 Z"/>
 <path inkscape:connector-curvature="0" style="fill:url(#linearGradient4427);opacity:0.2;fill-rule:evenodd" id="path4320" d="M 26,61 40,47 40,61 Z"/>
 <path inkscape:connector-curvature="0" style="fill:none" id="rect4323" d="m -7,21 -12,4 0,13.544922 L -15,37 -15,26 -7,24.285156 -7,40.333984 -19,39 l 12,4 6,-2 0,-18 -6,-2 z"/>
 <path style="fill:#ffffff" id="rect4168" d="M 21 21 L 21 43 L 22 43 L 22 41 L 24 41 L 24 43 L 25 43 L 39 43 L 40 43 L 40 41 L 42 41 L 42 43 L 43 43 L 43 21 L 42 21 L 42 23 L 40 23 L 40 21 L 24 21 L 24 23 L 22 23 L 22 21 L 21 21 z M 25 22 L 39 22 L 39 31 L 25 31 L 25 22 z M 22 25 L 24 25 L 24 27 L 22 27 L 22 25 z M 40 25 L 42 25 L 42 27 L 40 27 L 40 25 z M 22 29 L 24 29 L 24 31 L 22 31 L 22 29 z M 40 29 L 42 29 L 42 31 L 40 31 L 40 29 z M 22 33 L 24 33 L 24 35 L 22 35 L 22 33 z M 25 33 L 39 33 L 39 42 L 25 42 L 25 33 z M 40 33 L 42 33 L 42 35 L 40 35 L 40 33 z M 22 37 L 24 37 L 24 39 L 22 39 L 22 37 z M 40 37 L 42 37 L 42 39 L 40 39 L 40 37 z "/>
</svg>
