<?xml version="1.0" encoding="UTF-8" standalone="no"?>
<svg width="64" version="1.1" xmlns="http://www.w3.org/2000/svg" viewBox="0 0 64 64" height="64" xmlns:xlink="http://www.w3.org/1999/xlink" xmlns:inkscape="http://www.inkscape.org/namespaces/inkscape">
 <defs id="defs4">
  <linearGradient id="linearGradient4351">
   <stop style="stop-color:#fddda3" id="stop4353"/>
   <stop offset="1" style="stop-color:#fde3a7" id="stop4355"/>
  </linearGradient>
  <linearGradient id="linearGradient4300">
   <stop style="stop-color:#f39c12" id="stop4302"/>
   <stop offset="1" style="stop-color:#f89406" id="stop4304"/>
  </linearGradient>
  <linearGradient inkscape:collect="always" xlink:href="#linearGradient4300" id="linearGradient4306" y1="61" y2="3" x2="0" gradientUnits="userSpaceOnUse"/>
  <linearGradient inkscape:collect="always" xlink:href="#linearGradient4410" id="linearGradient4427" y1="31" x1="54" y2="17" x2="40" gradientUnits="userSpaceOnUse" gradientTransform="matrix(1 0 0 -1 -14 78)"/>
  <linearGradient inkscape:collect="always" id="linearGradient4410">
   <stop style="stop-color:#383e51" id="stop4412"/>
   <stop offset="1" style="stop-color:#655c6f;stop-opacity:0" id="stop4414"/>
  </linearGradient>
  <linearGradient inkscape:collect="always" xlink:href="#linearGradient4351" id="linearGradient4357" y1="61" y2="47" x2="0" gradientUnits="userSpaceOnUse"/>
 </defs>
 <metadata id="metadata84"/>
 <path style="fill:url(#linearGradient4306)" id="rect3500" d="M 10 3 L 10 61 L 40 61 L 54 47 L 54 17 L 54 3 L 40 3 L 10 3 z "/>
 <rect width="30" x="10" y="60" height="1" style="fill:#2e3132;fill-opacity:0.294118" id="rect4169"/>
 <rect width="44" x="10" y="3" height="1" style="fill:#ffffff;fill-opacity:0.409836" id="rect4236"/>
 <path inkscape:connector-curvature="0" style="fill:url(#linearGradient4357);fill-rule:evenodd" id="path4314" d="M 54,47 40,61 40,47 Z"/>
 <path inkscape:connector-curvature="0" style="fill:url(#linearGradient4427);opacity:0.2;fill-rule:evenodd" id="path4320" d="M 26,61 40,47 40,61 Z"/>
 <path inkscape:connector-curvature="0" style="shape-rendering:auto;color-interpolation-filters:linearRGB;fill:#fddda3;image-rendering:auto;text-rendering:auto;color:#4d4d4d;stroke-linecap:square;stroke-width:0;color-rendering:auto;color-interpolation:sRGB" id="rect4172" d="m 21,21 0,22 22,0 0,-22 -22,0 z m 1,1 20,0 0,2 -20,0 0,-2 z m 0,3 1,0 0,4 -1,0 0,-4 z m 2,0 1,0 0,4 -1,0 0,-4 z m 2,0 1,0 0,4 -1,0 0,-4 z m 2,0 1,0 0,4 -1,0 0,-4 z m 2,0 1,0 0,4 -1,0 0,-4 z m 2,0 1,0 0,4 -1,0 0,-4 z m 2,0 1,0 0,4 -1,0 0,-4 z m 2,0 1,0 0,4 -1,0 0,-4 z m 2,1 4,0 0,1 -4,0 0,-1 z m -16,4 20,0 0,4 -20,0 0,-4 z m 0,5 1,0 0,4 -1,0 0,-4 z m 2,0 1,0 0,4 -1,0 0,-4 z m 2,0 1,0 0,4 -1,0 0,-4 z m 2,0 1,0 0,4 -1,0 0,-4 z m 2,0 1,0 0,4 -1,0 0,-4 z m 2,0 1,0 0,4 -1,0 0,-4 z m 2,0 1,0 0,4 -1,0 0,-4 z m 2,0 1,0 0,4 -1,0 0,-4 z m 2,1 4,0 0,1 -4,0 0,-1 z m -16,4 20,0 0,2 -20,0 0,-2 z"/>
</svg>
