<?xml version="1.0" encoding="UTF-8" standalone="no"?>
<svg
   xmlns:dc="http://purl.org/dc/elements/1.1/"
   xmlns:cc="http://creativecommons.org/ns#"
   xmlns:rdf="http://www.w3.org/1999/02/22-rdf-syntax-ns#"
   xmlns:svg="http://www.w3.org/2000/svg"
   xmlns="http://www.w3.org/2000/svg"
   xmlns:xlink="http://www.w3.org/1999/xlink"
   xmlns:sodipodi="http://sodipodi.sourceforge.net/DTD/sodipodi-0.dtd"
   xmlns:inkscape="http://www.inkscape.org/namespaces/inkscape"
   width="64"
   version="1.1"
   viewBox="0 0 64 64"
   height="64"
   id="svg4321"
   inkscape:version="0.91 r13725"
   sodipodi:docname="virtualbox-ova.svg">
  <sodipodi:namedview
     pagecolor="#ffffff"
     bordercolor="#666666"
     borderopacity="1"
     objecttolerance="10"
     gridtolerance="10"
     guidetolerance="10"
     inkscape:pageopacity="0"
     inkscape:pageshadow="2"
     inkscape:window-width="1920"
     inkscape:window-height="1025"
     id="namedview4343"
     showgrid="false"
     inkscape:zoom="3.6875"
     inkscape:cx="-56.949153"
     inkscape:cy="29.830508"
     inkscape:window-x="0"
     inkscape:window-y="26"
     inkscape:window-maximized="1"
     inkscape:current-layer="svg4321" />
  <defs
     id="defs4">
    <linearGradient
       inkscape:collect="always"
       id="linearGradient4300-8">
      <stop
         style="stop-color:#f27935"
         id="stop4302-5" />
      <stop
         offset="1"
         style="stop-color:#f2784b"
         id="stop4304-7" />
    </linearGradient>
    <linearGradient
       inkscape:collect="always"
       id="linearGradient4351">
      <stop
         style="stop-color:#f7ab89"
         id="stop4353" />
      <stop
         offset="1"
         style="stop-color:#fbd2bf"
         id="stop4355" />
    </linearGradient>
    <linearGradient
       y2="512.79999"
       x2="0"
       y1="543.79999"
       gradientUnits="userSpaceOnUse"
       id="linearGradient4217"
       xlink:href="#linearGradient4300-8"
       inkscape:collect="always"
       gradientTransform="matrix(1.35,0,0,1.2999996,-519.5695,-646.93977)" />
    <linearGradient
       id="linearGradient4300">
      <stop
         style="stop-color:#f62459"
         id="stop4302" />
      <stop
         offset="1"
         style="stop-color:#f73768"
         id="stop4304" />
    </linearGradient>
    <linearGradient
       xlink:href="#linearGradient4300-8"
       id="d-6"
       y1="512.79999"
       y2="503.79999"
       x2="0"
       gradientUnits="userSpaceOnUse"
       gradientTransform="matrix(1.35,0,0,1.2999996,-519.5695,-646.93979)" />
    <linearGradient
       inkscape:collect="always"
       xlink:href="#linearGradient4351"
       id="linearGradient4317"
       x1="32"
       y1="8"
       x2="32"
       y2="25.527378"
       gradientUnits="userSpaceOnUse" />
    <linearGradient
       id="linearGradient4351-3">
      <stop
         style="stop-color:#ffd6af"
         id="stop4353-6" />
      <stop
         offset="1"
         style="stop-color:#fffcf9"
         id="stop4355-7" />
    </linearGradient>
  </defs>
  <metadata
     id="metadata84">
    <rdf:RDF>
      <cc:Work
         rdf:about="">
        <dc:format>image/svg+xml</dc:format>
        <dc:type
           rdf:resource="http://purl.org/dc/dcmitype/StillImage" />
      </cc:Work>
    </rdf:RDF>
  </metadata>
  <rect
     id="rect25"
     height="41"
     y="19"
     x="5"
     width="54"
     style="fill:url(#linearGradient4217);fill-opacity:1.0;stroke-width:2.79999995;stroke-opacity:0.55" />
  <path
     id="path27"
     d="M 5,18.999999 13.099999,8.000003 52.25,8.000003 59,18.999999 Z"
     inkscape:connector-curvature="0"
     style="fill:url(#d-6);fill-opacity:1.0;fill-rule:evenodd"
     sodipodi:nodetypes="ccccc" />
  <path
     style="fill:url(#linearGradient4317);fill-opacity:1.0;stroke-width:2.79999995;stroke-opacity:0.55"
     inkscape:connector-curvature="0"
     d="m 28.099998,8.000018 0,17.495394 1.299999,-0.4368 1.3,0.4368 1.3,-0.4368 1.299999,0.4368 1.3,-0.4368 1.299999,0.4368 0,-17.495394 z"
     id="path31" />
  <path
     inkscape:connector-curvature="0"
     style="color:#4d4d4d;color-interpolation:sRGB;color-interpolation-filters:linearRGB;fill:#f7ab89;fill-opacity:1;stroke-width:0;stroke-linecap:square;color-rendering:auto;image-rendering:auto;shape-rendering:auto;text-rendering:auto"
     id="rect4172-5"
     d="m 9,31.999999 0,22 22,0 0,-22 -22,0 z m 1,1 20,0 0,2 -20,0 0,-2 z m 0,3 1,0 0,4 -1,0 0,-4 z m 2,0 1,0 0,4 -1,0 0,-4 z m 2,0 1,0 0,4 -1,0 0,-4 z m 2,0 1,0 0,4 -1,0 0,-4 z m 2,0 1,0 0,4 -1,0 0,-4 z m 2,0 1,0 0,4 -1,0 0,-4 z m 2,0 1,0 0,4 -1,0 0,-4 z m 2,0 1,0 0,4 -1,0 0,-4 z m 2,1 4,0 0,1 -4,0 0,-1 z m -16,4 20,0 0,4 -20,0 0,-4 z m 0,5 1,0 0,4 -1,0 0,-4 z m 2,0 1,0 0,4 -1,0 0,-4 z m 2,0 1,0 0,4 -1,0 0,-4 z m 2,0 1,0 0,4 -1,0 0,-4 z m 2,0 1,0 0,4 -1,0 0,-4 z m 2,0 1,0 0,4 -1,0 0,-4 z m 2,0 1,0 0,4 -1,0 0,-4 z m 2,0 1,0 0,4 -1,0 0,-4 z m 2,1 4,0 0,1 -4,0 0,-1 z m -16,4 20,0 0,2 -20,0 0,-2 z" />
  <rect
     width="54"
     x="5"
     y="-60"
     height="1"
     style="fill:#2e3132;fill-opacity:0.29411765"
     id="rect4236-8-5"
     transform="scale(1,-1)" />
  <rect
     width="54"
     x="5"
     y="-20"
     height="1"
     style="fill:#ffffff;fill-opacity:0.41176471"
     id="rect4169-2-3"
     transform="scale(1,-1)" />
</svg>
