<?xml version="1.0" encoding="UTF-8" standalone="no"?>
<svg width="64" version="1.1" xmlns="http://www.w3.org/2000/svg" viewBox="0 0 64 64" height="64" xmlns:xlink="http://www.w3.org/1999/xlink" xmlns:inkscape="http://www.inkscape.org/namespaces/inkscape">
 <defs id="defs4">
  <linearGradient inkscape:collect="always" xlink:href="#linearGradient4300-0" id="linearGradient4306" y1="61" y2="3" x2="0" gradientUnits="userSpaceOnUse"/>
  <linearGradient inkscape:collect="always" xlink:href="#linearGradient4410" id="linearGradient4427" y1="31" x1="54" y2="17" x2="40" gradientUnits="userSpaceOnUse" gradientTransform="matrix(1 0 0 -1 -14 78)"/>
  <linearGradient inkscape:collect="always" id="linearGradient4410">
   <stop style="stop-color:#383e51" id="stop4412"/>
   <stop offset="1" style="stop-color:#655c6f;stop-opacity:0" id="stop4414"/>
  </linearGradient>
  <linearGradient inkscape:collect="always" xlink:href="#linearGradient4351-1" id="linearGradient4357" y1="61" y2="47" x2="0" gradientUnits="userSpaceOnUse"/>
  <linearGradient inkscape:collect="always" id="linearGradient4351-1">
   <stop style="stop-color:#d3bdd7" id="stop4353-0"/>
   <stop offset="1" style="stop-color:#e8d9eb" id="stop4355-5"/>
  </linearGradient>
  <linearGradient inkscape:collect="always" id="linearGradient4300-0">
   <stop style="stop-color:#8e44ad" id="stop4302-8"/>
   <stop offset="1" style="stop-color:#9b59b6" id="stop4304-6"/>
  </linearGradient>
 </defs>
 <metadata id="metadata84"/>
 <path style="fill:url(#linearGradient4306)" id="rect3500" d="M 10 3 L 10 61 L 40 61 L 54 47 L 54 17 L 54 3 L 40 3 L 10 3 z "/>
 <rect width="30" x="10" y="60" height="1" style="fill:#2e3132;fill-opacity:0.294118" id="rect4169"/>
 <rect width="44" x="10" y="3" height="1" style="fill:#ffffff;fill-opacity:0.409836" id="rect4236"/>
 <path inkscape:connector-curvature="0" style="fill:url(#linearGradient4357);fill-rule:evenodd" id="path4314" d="M 54,47 40,61 40,47 Z"/>
 <path inkscape:connector-curvature="0" style="fill:url(#linearGradient4427);opacity:0.2;fill-rule:evenodd" id="path4320" d="M 26,61 40,47 40,61 Z"/>
 <path style="shape-rendering:auto;color-interpolation-filters:linearRGB;fill:#e8d9eb;image-rendering:auto;text-rendering:auto;color:#4d4d4d;stroke-linecap:square;stroke-width:0;color-rendering:auto;color-interpolation:sRGB" id="rect4172" d="M 21 21 L 21 43 L 43 43 L 43 21 L 21 21 z M 22 22 L 42 22 L 42 24 L 22 24 L 22 22 z M 22 25 L 23 25 L 23 29 L 22 29 L 22 25 z M 24 25 L 25 25 L 25 29 L 24 29 L 24 25 z M 26 25 L 27 25 L 27 29 L 26 29 L 26 25 z M 28 25 L 29 25 L 29 29 L 28 29 L 28 25 z M 30 25 L 31 25 L 31 29 L 30 29 L 30 25 z M 32 25 L 33 25 L 33 29 L 32 29 L 32 25 z M 34 25 L 35 25 L 35 29 L 34 29 L 34 25 z M 36 25 L 37 25 L 37 29 L 36 29 L 36 25 z M 38 26 L 42 26 L 42 27 L 38 27 L 38 26 z M 22 30 L 42 30 L 42 34 L 22 34 L 22 30 z M 22 35 L 23 35 L 23 39 L 22 39 L 22 35 z M 24 35 L 25 35 L 25 39 L 24 39 L 24 35 z M 26 35 L 27 35 L 27 39 L 26 39 L 26 35 z M 28 35 L 29 35 L 29 39 L 28 39 L 28 35 z M 30 35 L 31 35 L 31 39 L 30 39 L 30 35 z M 32 35 L 33 35 L 33 39 L 32 39 L 32 35 z M 34 35 L 35 35 L 35 39 L 34 39 L 34 35 z M 36 35 L 37 35 L 37 39 L 36 39 L 36 35 z M 38 36 L 42 36 L 42 37 L 38 37 L 38 36 z M 22 40 L 42 40 L 42 42 L 22 42 L 22 40 z "/>
</svg>
