<?xml version="1.0" encoding="UTF-8" standalone="no"?>
<svg width="64" version="1.1" xmlns="http://www.w3.org/2000/svg" viewBox="0 0 64 64" height="64" xmlns:xlink="http://www.w3.org/1999/xlink" xmlns:inkscape="http://www.inkscape.org/namespaces/inkscape">
 <defs id="defs4">
  <linearGradient inkscape:collect="always" id="linearGradient4351">
   <stop style="stop-color:#036b53" id="stop4353"/>
   <stop offset="1" style="stop-color:#036b53" id="stop4355"/>
  </linearGradient>
  <linearGradient inkscape:collect="always" id="linearGradient4300">
   <stop style="stop-color:#26c281" id="stop4302"/>
   <stop offset="1" style="stop-color:#3fc380" id="stop4304"/>
  </linearGradient>
  <linearGradient inkscape:collect="always" xlink:href="#linearGradient4300" id="linearGradient4306" y1="61" y2="3" x2="0" gradientUnits="userSpaceOnUse"/>
  <linearGradient inkscape:collect="always" xlink:href="#linearGradient4410" id="linearGradient4427" y1="31" x1="54" y2="17" x2="40" gradientUnits="userSpaceOnUse" gradientTransform="matrix(1 0 0 -1 -14 78)"/>
  <linearGradient inkscape:collect="always" id="linearGradient4410">
   <stop style="stop-color:#383e51" id="stop4412"/>
   <stop offset="1" style="stop-color:#655c6f;stop-opacity:0" id="stop4414"/>
  </linearGradient>
  <linearGradient inkscape:collect="always" xlink:href="#linearGradient4351" id="linearGradient4357" y1="61" y2="47" x2="0" gradientUnits="userSpaceOnUse"/>
 </defs>
 <metadata id="metadata84"/>
 <path style="fill:url(#linearGradient4306)" id="rect3500" d="M 10 3 L 10 61 L 40 61 L 54 47 L 54 17 L 54 3 L 40 3 L 10 3 z "/>
 <rect width="30" x="10" y="60" height="1" style="fill:#2e3132;fill-opacity:0.294118" id="rect4169"/>
 <rect width="44" x="10" y="3" height="1" style="fill:#ffffff;fill-opacity:0.409836" id="rect4236"/>
 <path inkscape:connector-curvature="0" style="fill:url(#linearGradient4357);fill-rule:evenodd" id="path4314" d="M 54,47 40,61 40,47 Z"/>
 <path inkscape:connector-curvature="0" style="fill:url(#linearGradient4427);opacity:0.2;fill-rule:evenodd" id="path4320" d="M 26,61 40,47 40,61 Z"/>
 <path style="fill:#036b53" id="rect4166" d="M 23.5 21 C 22.115 21 21 22.115 21 23.5 C 21 24.885 22.115 26 23.5 26 C 24.305383 26 25.012122 25.617209 25.46875 25.029297 C 26.869205 26.992379 27.699219 29.39448 27.699219 32 C 27.699219 34.60552 26.869205 37.007621 25.46875 38.970703 C 25.012122 38.382791 24.305383 38 23.5 38 C 22.115 38 21 39.115 21 40.5 C 21 41.885 22.115 43 23.5 43 C 24.71386 43 25.719022 42.144072 25.949219 41 L 38 41 L 38 42 L 41 42 L 41 39 L 38 39 L 38 40 L 25.949219 40 C 25.948842 39.998129 25.949599 39.99601 25.949219 39.994141 C 25.949092 39.99352 25.949346 39.992808 25.949219 39.992188 C 27.668064 37.790316 28.699219 35.022417 28.699219 32 C 28.699219 28.977583 27.668064 26.207731 25.949219 24.005859 C 25.949599 24.00399 25.948842 24.001871 25.949219 24 L 38 24 L 38 26 L 43 26 L 43 21 L 38 21 L 38 23 L 25.949219 23 C 25.719022 21.855928 24.71386 21 23.5 21 z M 23.5 22 C 24.331 22 25 22.669 25 23.5 C 25 24.331 24.331 25 23.5 25 C 22.669 25 22 24.331 22 23.5 C 22 22.669 22.669 22 23.5 22 z M 39 22 L 42 22 L 42 25 L 39 25 L 39 22 z M 23.5 39 C 24.331 39 25 39.669 25 40.5 C 25 41.331 24.331 42 23.5 42 C 22.669 42 22 41.331 22 40.5 C 22 39.669 22.669 39 23.5 39 z M 39 40 L 40 40 L 40 41 L 39 41 L 39 40 z "/>
</svg>
