<?xml version="1.0" encoding="UTF-8" standalone="no"?>
<!-- Created with Inkscape (http://www.inkscape.org/) -->

<svg
   width="64"
   version="1.1"
   height="64"
   id="svg1"
   sodipodi:docname="smartphoneconnected.svg"
   inkscape:version="1.3 (0e150ed6c4, 2023-07-21)"
   xmlns:inkscape="http://www.inkscape.org/namespaces/inkscape"
   xmlns:sodipodi="http://sodipodi.sourceforge.net/DTD/sodipodi-0.dtd"
   xmlns="http://www.w3.org/2000/svg"
   xmlns:svg="http://www.w3.org/2000/svg">
  <sodipodi:namedview
     id="namedview1"
     pagecolor="#ffffff"
     bordercolor="#666666"
     borderopacity="1.0"
     inkscape:showpageshadow="2"
     inkscape:pageopacity="0.0"
     inkscape:pagecheckerboard="0"
     inkscape:deskcolor="#d1d1d1"
     inkscape:zoom="4.5685727"
     inkscape:cx="-21.122571"
     inkscape:cy="22.873665"
     inkscape:window-width="1920"
     inkscape:window-height="1006"
     inkscape:window-x="0"
     inkscape:window-y="0"
     inkscape:window-maximized="1"
     inkscape:current-layer="layer1" />
  <defs
     id="defs3811" />
  <metadata
     id="metadata3814" />
  <g
     inkscape:label="Layer 1"
     inkscape:groupmode="layer"
     id="layer1"
     transform="matrix(1 0 0 1 -736.85718 -157.93361)">
    <g
       id="g1"
       transform="translate(-33.173719,-32.842029)">
      <rect
         style="fill:none;fill-opacity:1;stroke:#000000;stroke-width:0.968084;stroke-linecap:round;stroke-linejoin:round;stroke-dasharray:none;stroke-dashoffset:0;stroke-opacity:1;paint-order:stroke fill markers"
         id="rect5275"
         width="27.379303"
         height="50.715981"
         x="788.34125"
         y="197.41765"
         ry="3.2336195" />
      <path
         style="fill:#030303;fill-opacity:1;stroke:none;stroke-width:2.26839;stroke-linecap:round;stroke-linejoin:round;stroke-dasharray:none;stroke-dashoffset:0;stroke-opacity:1;paint-order:stroke fill markers"
         id="path5281"
         sodipodi:type="arc"
         sodipodi:cx="812.24451"
         sodipodi:cy="201.13229"
         sodipodi:rx="1.0622671"
         sodipodi:ry="1.0622671"
         sodipodi:start="0"
         sodipodi:end="6.2698771"
         sodipodi:open="true"
         sodipodi:arc-type="arc"
         d="m 813.30677,201.13229 a 1.0622671,1.0622671 0 0 1 -1.05873,1.06226 1.0622671,1.0622671 0 0 1 -1.06578,-1.05519 1.0622671,1.0622671 0 0 1 1.05164,-1.06928 1.0622671,1.0622671 0 0 1 1.07278,1.04808" />
      <path
         style="fill:#030303;fill-opacity:1;stroke:none;stroke-width:2.26839;stroke-linecap:round;stroke-linejoin:round;stroke-dasharray:none;stroke-dashoffset:0;stroke-opacity:1;paint-order:stroke fill markers"
         id="path5283"
         sodipodi:type="arc"
         sodipodi:cx="808.84204"
         sodipodi:cy="201.13229"
         sodipodi:rx="1.0622671"
         sodipodi:ry="1.0622671"
         sodipodi:start="0"
         sodipodi:end="6.2698771"
         sodipodi:open="true"
         sodipodi:arc-type="arc"
         d="m 809.90431,201.13229 a 1.0622671,1.0622671 0 0 1 -1.05873,1.06226 1.0622671,1.0622671 0 0 1 -1.06578,-1.05519 1.0622671,1.0622671 0 0 1 1.05164,-1.06928 1.0622671,1.0622671 0 0 1 1.07277,1.04808" />
      <path
         style="color:#232629;fill:#1fb65f;fill-opacity:1;stroke:#1fb65f;stroke-width:0.366623;stroke-dasharray:none;stroke-opacity:1"
         d="m 808.77461,220.00116 -8.44543,8.36119 -3.21834,-3.18594 -0.80345,0.79703 3.21615,3.18378 0.80564,0.79702 1.20526,-1.19446 8.0437,-7.9616 z"
         class="ColorScheme-Text"
         id="path2002-3" />
      <path
         style="fill:none;stroke:#000000;stroke-width:0.975848;stroke-linecap:round;stroke-linejoin:miter;stroke-dasharray:none;stroke-opacity:1"
         d="m 797.41543,245.5295 c 9.60046,0 9.6943,0 9.6943,0"
         id="path1622" />
      <path
         style="fill:#030303;fill-opacity:1;stroke:none;stroke-width:2.26839;stroke-linecap:round;stroke-linejoin:round;stroke-dasharray:none;stroke-dashoffset:0;stroke-opacity:1;paint-order:stroke fill markers"
         id="path1659"
         sodipodi:type="arc"
         sodipodi:cx="791.67249"
         sodipodi:cy="200.94899"
         sodipodi:rx="1.0622671"
         sodipodi:ry="1.0622671"
         sodipodi:start="0"
         sodipodi:end="6.2698771"
         sodipodi:open="true"
         sodipodi:arc-type="arc"
         d="m 792.73475,200.94899 a 1.0622671,1.0622671 0 0 1 -1.05873,1.06226 1.0622671,1.0622671 0 0 1 -1.06578,-1.05519 1.0622671,1.0622671 0 0 1 1.05164,-1.06928 1.0622671,1.0622671 0 0 1 1.07278,1.04807" />
    </g>
  </g>
</svg>
