<svg version="1.1" viewBox="0 0 64 64" xmlns="http://www.w3.org/2000/svg">
    <style id="current-color-scheme" type="text/css">.ColorScheme-Accent { color:#3daee9; }
.ColorScheme-Text { color:#31363b; }</style>
    <path id="smartphone" class="ColorScheme-Text" d="m22 6c-2.216 0-4 1.784-4 4v44c0 2.216 1.784 4 4 4h20c2.216 0 4-1.784 4-4v-44c0-2.216-1.784-4-4-4h-20zm0 1h20c1.662 0 3 1.338 3 3v44c0 1.662-1.338 3-3 3h-20c-1.662 0-3-1.338-3-3v-44c0-1.662 1.338-3 3-3zm0 2c-0.55228 0-1 0.44772-1 1 0 0.55228 0.44772 1 1 1s1-0.44772 1-1c0-0.55228-0.44772-1-1-1zm5.5 45c-0.277 0-0.5 0.223-0.5 0.5s0.223 0.5 0.5 0.5h9c0.277 0 0.5-0.223 0.5-0.5s-0.223-0.5-0.5-0.5h-9z" fill="currentColor"/>
    <path id="shield" class="ColorScheme-Accent" d="m32 26-0.39453 0.50781s-0.26037 0.35202-1.0586 0.81445c-0.79822 0.46243-2.1015 0.99431-4.0996 1.209l-0.44727 0.046875v0.44922s0.012652 6.5516 5.8125 8.8965l0.1875 0.076172 0.1875-0.076172c5.8-2.3436 5.8125-8.8965 5.8125-8.8965v-0.44922l-0.44727-0.046875c-1.9982-0.21526-3.3013-0.74667-4.0996-1.209-0.79827-0.46232-1.0586-0.81445-1.0586-0.81445l-0.39453-0.50781zm0 1.4336c0.18083 0.18832 0.30223 0.37694 0.95312 0.75391 0.8309 0.48122 2.167 0.96614 3.9688 1.2305-0.016563 0.62858-0.26944 5.4009-4.9219 7.4473-4.6525-2.0474-4.9053-6.8188-4.9219-7.4473 1.8018-0.26389 3.1378-0.74908 3.9688-1.2305 0.65092-0.3771 0.77229-0.56548 0.95312-0.75391z" fill="currentColor"/>
</svg>
