<?xml version="1.0" encoding="UTF-8" standalone="no"?>
<!-- Created with Inkscape (http://www.inkscape.org/) -->

<svg
   xmlns:dc="http://purl.org/dc/elements/1.1/"
   xmlns:cc="http://creativecommons.org/ns#"
   xmlns:rdf="http://www.w3.org/1999/02/22-rdf-syntax-ns#"
   xmlns:svg="http://www.w3.org/2000/svg"
   xmlns="http://www.w3.org/2000/svg"
   xmlns:sodipodi="http://sodipodi.sourceforge.net/DTD/sodipodi-0.dtd"
   xmlns:inkscape="http://www.inkscape.org/namespaces/inkscape"
   width="22"
   height="22"
   viewBox="0 0 21.999999 21.999999"
   id="svg2"
   version="1.1"
   inkscape:version="0.91 r13725"
   sodipodi:docname="fcitx-shuangpin-libpinyin.svg">
  <defs
     id="defs4" />
  <sodipodi:namedview
     id="base"
     pagecolor="#ffffff"
     bordercolor="#666666"
     borderopacity="1.0"
     inkscape:pageopacity="0.0"
     inkscape:pageshadow="2"
     inkscape:zoom="45.254834"
     inkscape:cx="6.6388172"
     inkscape:cy="10.846924"
     inkscape:document-units="px"
     inkscape:current-layer="layer1"
     showgrid="true"
     units="px"
     inkscape:object-nodes="true"
     inkscape:snap-global="false"
     inkscape:window-width="1920"
     inkscape:window-height="1016"
     inkscape:window-x="0"
     inkscape:window-y="0"
     inkscape:window-maximized="1">
    <inkscape:grid
       type="xygrid"
       id="grid4136"
       units="px"
       spacingx="0.49999998"
       spacingy="0.49999998"
       empspacing="2" />
  </sodipodi:namedview>
  <metadata
     id="metadata7">
    <rdf:RDF>
      <cc:Work
         rdf:about="">
        <dc:format>image/svg+xml</dc:format>
        <dc:type
           rdf:resource="http://purl.org/dc/dcmitype/StillImage" />
        <dc:title></dc:title>
      </cc:Work>
    </rdf:RDF>
  </metadata>
  <g
     inkscape:label="Layer 1"
     inkscape:groupmode="layer"
     id="layer1"
     transform="translate(0,-1030.3622)">
    <path
       style="opacity:1;fill:#4d4d4d;fill-opacity:1;stroke:none;stroke-width:2;stroke-linecap:butt;stroke-linejoin:bevel;stroke-miterlimit:4;stroke-dasharray:none;stroke-dashoffset:0;stroke-opacity:1"
       d="M 3 3 L 3 19 L 19 19 L 19 3 L 3 3 z M 5 5 L 10.548828 5 L 10.498047 5.5488281 C 10.498047 5.5488281 10.169908 9.0699341 9.2734375 11.677734 C 9.8561109 12.550834 10.412442 13.452953 11.111328 14.689453 L 10.242188 15.179688 C 9.7033035 14.226287 9.2574754 13.491288 8.8203125 12.804688 C 7.4258712 15.929988 5.4550781 17.292969 5.4550781 17.292969 L 4.8984375 16.460938 C 4.8984375 16.460938 6.8688283 15.146988 8.1621094 11.804688 C 7.3964558 10.698287 6.5268081 9.5832533 5.109375 7.8144531 L 5.890625 7.1875 C 7.0718949 8.6617002 7.8640436 9.679778 8.5585938 10.642578 C 9.1095504 8.7368779 9.3567404 6.6434001 9.4277344 6 L 5 6 L 5 5 z M 11 5 L 17 5 L 17 5.5 C 17 7.6466003 16.167138 10.468103 15.292969 12.408203 C 15.182005 12.654503 15.051361 12.874162 14.925781 13.101562 C 15.549551 14.184963 16.385971 15.215031 17.769531 16.332031 L 17.142578 17.111328 C 15.861493 16.077028 14.995516 15.070475 14.339844 14.046875 C 12.946645 16.033775 11.236328 17.083984 11.236328 17.083984 L 10.71875 16.228516 C 10.71875 16.228516 12.49905 15.127738 13.787109 13.085938 C 13.449417 12.437537 13.165672 11.77865 12.900391 11.09375 C 12.142306 9.1367498 11.691778 6.5916001 11.589844 6 L 11 6 L 11 5 z M 12.607422 6 C 12.746688 6.7654001 13.17577 9.0333217 13.833984 10.732422 C 14.007492 11.180322 14.184987 11.599772 14.373047 12.013672 C 14.375547 12.007672 14.378359 12.008047 14.380859 11.998047 C 15.137806 10.318047 15.815205 7.8531002 15.923828 6 L 12.607422 6 z "
       transform="translate(0,1030.3622)"
       id="path4139" />
  </g>
</svg>
