<?xml version="1.0" encoding="UTF-8" standalone="no"?>
<svg
   width="22"
   height="22"
   version="1.1"
   id="svg6"
   sodipodi:docname="kdeconnect.svg"
   inkscape:version="1.2.2 (b0a8486541, 2022-12-01)"
   xmlns:inkscape="http://www.inkscape.org/namespaces/inkscape"
   xmlns:sodipodi="http://sodipodi.sourceforge.net/DTD/sodipodi-0.dtd"
   xmlns="http://www.w3.org/2000/svg"
   xmlns:svg="http://www.w3.org/2000/svg">
  <defs
     id="defs10" />
  <sodipodi:namedview
     id="namedview8"
     pagecolor="#ffffff"
     bordercolor="#000000"
     borderopacity="0.25"
     inkscape:showpageshadow="2"
     inkscape:pageopacity="0.0"
     inkscape:pagecheckerboard="0"
     inkscape:deskcolor="#d1d1d1"
     showgrid="false"
     inkscape:zoom="35.136364"
     inkscape:cx="9.4773609"
     inkscape:cy="10.98577"
     inkscape:window-width="1920"
     inkscape:window-height="1011"
     inkscape:window-x="0"
     inkscape:window-y="0"
     inkscape:window-maximized="1"
     inkscape:current-layer="svg6" />
  <style
     type="text/css"
     id="current-color-scheme">
      .ColorScheme-Text {
        color:#31363b;
      }
      .ColorScheme-Background {
        color:#eff0f1;
      }
      .ColorScheme-Accent {
        color:#3daee9;
      }
      .ColorScheme-ButtonText {
        color:#31363b;
      }
      </style>
  <g
     id="22-22-kdeconnect"
     transform="translate(-356,-534.36218)">
    <rect
       style="opacity:1;fill:none;fill-opacity:1;stroke:none;stroke-width:0.138587;stroke-linecap:square;stroke-linejoin:miter;stroke-miterlimit:4;stroke-dasharray:none;stroke-dashoffset:0;stroke-opacity:1"
       id="rect4444"
       width="22"
       height="22"
       x="356"
       y="534.36218" />
    <path
       style="opacity:1;fill:currentColor;fill-opacity:1;stroke:none;stroke-width:0.1;stroke-linecap:square;stroke-linejoin:miter;stroke-miterlimit:4;stroke-dasharray:none;stroke-dashoffset:0;stroke-opacity:1"
       d="M 40,8 V 24 H 50 V 8 Z m 3,1 h 4 v 1 h -4 z m -2,2 h 8 v 5.5 l -1.107422,-0.277344 c -0.0672,-0.252122 -0.166996,-0.494401 -0.296875,-0.720703 l 0.585938,-0.976562 -0.707032,-0.707032 -0.976562,0.585938 C 46.271331,14.272906 46.028379,14.171786 45.775391,14.103516 L 45.5,13 h -1 l -0.277344,1.107422 c -0.252122,0.0672 -0.494401,0.166996 -0.720703,0.296875 l -0.976562,-0.585938 -0.707032,0.707032 0.585938,0.976562 c -0.131391,0.226716 -0.232511,0.469668 -0.300781,0.722656 L 41,16.5 Z m 4,4 c 0.06653,-6e-5 0.133016,0.0032 0.199219,0.0098 0.0662,0.0065 0.132038,0.01626 0.197265,0.0293 0.06592,0.01363 0.131105,0.03058 0.195313,0.05078 0.0636,0.01965 0.126177,0.04247 0.1875,0.06836 0.06129,0.02564 0.121256,0.05433 0.179687,0.08594 0.05836,0.0323 0.115076,0.0675 0.169922,0.105468 0.05538,0.03766 0.108832,0.07807 0.160156,0.121094 0.05108,0.0431 0.09997,0.08873 0.146485,0.136719 0.04604,0.04729 0.08971,0.09683 0.130859,0.148437 0.0418,0.05268 0.08091,0.10744 0.117188,0.164063 0.03609,0.05624 0.06933,0.114258 0.09961,0.173828 0.02968,0.05918 0.05641,0.119806 0.08008,0.181641 0.02463,0.06204 0.04614,0.125266 0.06445,0.189453 0.01757,0.06435 0.03191,0.129532 0.04297,0.195312 0.01114,0.06597 0.01896,0.132462 0.02344,0.199219 0.0036,0.04679 0.0056,0.0937 0.0059,0.140625 6e-5,0.06653 -0.0032,0.133016 -0.0098,0.199219 -0.0065,0.0662 -0.01626,0.132038 -0.0293,0.197265 -0.01363,0.06592 -0.03058,0.131105 -0.05078,0.195313 -0.01965,0.0636 -0.04247,0.126177 -0.06836,0.1875 -0.02564,0.06129 -0.05432,0.121256 -0.08594,0.179687 -0.0323,0.05836 -0.0675,0.115076 -0.105468,0.169922 -0.03766,0.05538 -0.07807,0.108832 -0.121094,0.160156 -0.0431,0.05108 -0.08873,0.09997 -0.136719,0.146485 -0.04729,0.04604 -0.09683,0.08972 -0.148437,0.130859 -0.05268,0.0418 -0.10744,0.08091 -0.164063,0.117188 -0.05624,0.03609 -0.114258,0.06933 -0.173828,0.09961 -0.05918,0.02968 -0.119806,0.05641 -0.181641,0.08008 -0.06204,0.02463 -0.125266,0.04614 -0.189453,0.06445 -0.06435,0.01757 -0.129532,0.03191 -0.195312,0.04297 -0.06597,0.01114 -0.132462,0.01896 -0.199219,0.02344 -0.02795,0.0025 -0.05595,0.0045 -0.08398,0.0059 h -0.136719 c -0.03976,-7.68e-4 -0.07949,-0.0027 -0.119141,-0.0059 -0.0662,-0.0065 -0.132038,-0.01626 -0.197265,-0.0293 -0.06592,-0.01363 -0.131105,-0.03058 -0.195313,-0.05078 -0.0636,-0.01965 -0.126177,-0.04247 -0.1875,-0.06836 -0.06129,-0.02564 -0.121256,-0.05432 -0.179687,-0.08594 -0.05836,-0.0323 -0.115076,-0.0675 -0.169922,-0.105469 -0.05538,-0.03766 -0.108832,-0.07807 -0.160156,-0.121094 -0.03011,-0.02646 -0.05942,-0.05381 -0.08789,-0.08203 l -0.08789,-0.08789 c -0.03532,-0.0371 -0.0692,-0.07554 -0.101562,-0.115234 -0.0418,-0.05268 -0.08091,-0.10744 -0.117188,-0.164063 -0.03609,-0.05624 -0.06933,-0.114258 -0.09961,-0.173828 -0.02968,-0.05918 -0.05641,-0.119805 -0.08008,-0.18164 -0.02463,-0.06204 -0.04614,-0.125267 -0.06445,-0.189454 -0.01757,-0.06435 -0.03191,-0.129532 -0.04297,-0.195312 -0.01114,-0.06597 -0.01896,-0.132462 -0.02344,-0.199219 -0.0036,-0.04679 -0.0056,-0.0937 -0.0059,-0.140625 -6e-5,-0.06653 0.0032,-0.133016 0.0098,-0.199218 0.0065,-0.0662 0.01626,-0.132039 0.0293,-0.197266 0.01363,-0.06592 0.03058,-0.131105 0.05078,-0.195313 0.01965,-0.0636 0.04247,-0.126177 0.06836,-0.1875 0.02564,-0.06129 0.05432,-0.121256 0.08594,-0.179687 0.0323,-0.05836 0.0675,-0.115076 0.105468,-0.169922 0.03766,-0.05538 0.07807,-0.108832 0.121094,-0.160156 0.0431,-0.05108 0.08873,-0.09997 0.136719,-0.146485 0.04729,-0.04604 0.09683,-0.08971 0.148437,-0.130859 0.05268,-0.0418 0.10744,-0.08091 0.164063,-0.117188 0.05624,-0.03609 0.114258,-0.06933 0.173828,-0.09961 0.05918,-0.02968 0.119806,-0.05641 0.181641,-0.08008 0.06204,-0.02463 0.125266,-0.04614 0.189453,-0.06445 0.06435,-0.01757 0.129532,-0.03191 0.195312,-0.04297 0.06597,-0.01114 0.132462,-0.01896 0.199219,-0.02344 C 44.906121,15.004859 44.953025,15.001602 45,15 Z m -4,2.5 1.107422,0.277344 c 0.0672,0.252122 0.166996,0.494401 0.296875,0.720703 l -0.585938,0.976562 0.707032,0.707032 0.976562,-0.585938 c 0.226716,0.131391 0.469668,0.232511 0.722656,0.300781 L 44.5,21 h 1 l 0.277344,-1.107422 c 0.252122,-0.0672 0.494401,-0.166996 0.720703,-0.296875 l 0.976562,0.585938 0.707032,-0.707032 -0.585938,-0.976562 c 0.131391,-0.226716 0.232511,-0.469668 0.300781,-0.722656 L 49,17.5 v 3.5 1 h -2 -4 -2 v -1 z"
       transform="translate(322,529.36218)"
       id="rect4403"
       inkscape:connector-curvature="0"
       sodipodi:nodetypes="ccccccccccccccccccccccccccccccccccccccccccccccccccccccccccccccccccccccccccccccccccccccccccccccccccccccccccccccccccccccc"
       class="ColorScheme-Text" />
  </g>
</svg>
