<svg xmlns="http://www.w3.org/2000/svg" viewBox="0 0 22 22">
    <defs id="defs3051">
        <style type="text/css" id="current-color-scheme">
            .ColorScheme-Text {
                color:#4d4d4d;
            }
        </style>
    </defs>
    <path style="fill:currentColor;fill-opacity:1;stroke:none"
        d="m 11,3 a 8,8 0 0 0 -8,8 8,8 0 0 0 8,8 8,8 0 0 0 8,-8 8,8 0 0 0 -8,-8 z m 2.6,2.8 c 1.656854,0 3,1.3431 3,3 0,1.6568 -1.343146,3 -3,3 -0.08137,0 -0.162694,0 -0.24375,-0.012 l -2.358594,2.0445 c -0.0033,0.2959 -0.06134,0.5885 -0.171094,0.8633 -0.494848,1.2298 -1.8929576,1.8254 -3.1226556,1.3305 C 6.880316,15.6948 6.3434272,14.9578 6.2257812,14.138 L 3.7078124,13.1247 A 7.6,7.6 0 0 1 3.4,10.9997 7.6,7.6 0 0 1 3.428904,10.4255 l 3.6984376,1.4883 C 7.5317508,11.5987 8.031628,11.4093 8.5664044,11.402 8.6895408,11.2599 10.095862,9.6714 10.611717,9.0411 c -0.0072,-0.08 -0.01104,-0.1608 -0.01172,-0.2414 0,-1.6569 1.343146,-3 3,-3 z m 0,1.2 c -0.994112,0 -1.8,0.8059 -1.8,1.8 0,0.9941 0.805888,1.8 1.8,1.8 0.994112,0 1.8,-0.8059 1.8,-1.8 C 15.4,7.8059 14.594112,7 13.6,7 Z m 0,0.4 A 1.4,1.3999966 0 0 1 15,8.8 1.4,1.3999966 0 0 1 13.6,10.2 1.4,1.3999966 0 0 1 12.2,8.8 1.4,1.3999966 0 0 1 13.6,7.4 Z m -4.98125,4.8 c -0.1905256,0 -0.3745432,0.033 -0.5476564,0.094 l 0.9765628,0.393 a 1.2,1.2 0 0 1 0.6656248,1.5609 1.2,1.2 0 0 1 -1.5609376,0.6657 L 7.1789064,14.5222 c 0.169132,0.3333 0.4494512,0.6119 0.8234372,0.7625 0.8198,0.3301 1.7520304,-0.067 2.0820314,-0.8868 0.330187,-0.8198 -0.06684,-1.752 -0.8867186,-2.082 C 9.0135296,12.2419 8.81722,12.2026 8.61875,12.2003 Z"
        class="ColorScheme-Text" />
</svg>
