<?xml version="1.0" encoding="UTF-8" standalone="no"?>

<!-- Created with Inkscape (http://www.inkscape.org/) -->
<svg width="48" version="1.1" xmlns="http://www.w3.org/2000/svg" height="48" xmlns:xlink="http://www.w3.org/1999/xlink" xmlns:inkscape="http://www.inkscape.org/namespaces/inkscape">
 <defs id="defs5455">
  <linearGradient inkscape:collect="always" id="linearGradient4277">
   <stop style="stop-color:#2e62f2" id="stop4279"/>
   <stop offset="1" style="stop-color:#29cdfa" id="stop4282"/>
  </linearGradient>
  <linearGradient inkscape:collect="always" id="linearGradient4172">
   <stop style="stop-color:#633677" id="stop4174"/>
   <stop offset="1" style="stop-color:#824bac" id="stop4176"/>
  </linearGradient>
  <linearGradient inkscape:collect="always" id="linearGradient4145">
   <stop style="stop-color:#046526" id="stop4148"/>
   <stop offset="1" style="stop-color:#22d156" id="stop4150"/>
  </linearGradient>
  <linearGradient inkscape:collect="always" id="linearGradient4290">
   <stop style="stop-color:#7cbaf8" id="stop4292"/>
   <stop offset="1" style="stop-color:#f4fcff" id="stop4294"/>
  </linearGradient>
  <linearGradient inkscape:collect="always" id="linearGradient4227">
   <stop style="stop-color:#292c2f" id="stop4229"/>
   <stop offset="1" style="stop-opacity:0" id="stop4231"/>
  </linearGradient>
  <linearGradient inkscape:collect="always" id="linearGradient4283-8">
   <stop id="stop4285-5"/>
   <stop offset="1" style="stop-opacity:0" id="stop4287-8"/>
  </linearGradient>
  <linearGradient inkscape:collect="always" xlink:href="#linearGradient4145" id="linearGradient4303" y1="49.849445" x1="88.49917" y2="2.602173" gradientUnits="userSpaceOnUse" x2="38.19248" gradientTransform="matrix(0.5277778 0 0 0.5 361.45952 497.53212)"/>
  <linearGradient inkscape:collect="always" xlink:href="#linearGradient4283-8" id="linearGradient4305" y1="-434.29834" x1="-424.95181" y2="-426.87933" gradientUnits="userSpaceOnUse" x2="-415.03134" gradientTransform="matrix(0.99521603 0.09769877 -0.09769877 0.99521603 387.51534 478.56021)"/>
  <linearGradient inkscape:collect="always" xlink:href="#linearGradient4172" id="linearGradient4307" y1="24.09925" x1="77.17793" y2="4.09925" gradientUnits="userSpaceOnUse" x2="57.17793" gradientTransform="matrix(0.81508312 0 0 0.81508312 367.07585 526.58237)"/>
  <linearGradient inkscape:collect="always" xlink:href="#linearGradient4283-8" id="linearGradient4309" y1="-434.29834" x1="-424.95181" y2="-426.87933" gradientUnits="userSpaceOnUse" x2="-415.03134" gradientTransform="matrix(0.99521603 0.09769877 -0.09769877 0.99521603 799.05552 1009.5145)"/>
  <linearGradient inkscape:collect="always" xlink:href="#linearGradient4277" id="linearGradient4325" y1="545.79797" y2="517.79797" gradientUnits="userSpaceOnUse" x2="0" gradientTransform="matrix(1.2857121 0 0 1.2857121 -106.44818 -159.94116)"/>
  <linearGradient inkscape:collect="always" xlink:href="#linearGradient4227" id="linearGradient4327" y1="19.704916" x1="20.804823" y2="12.02693" gradientUnits="userSpaceOnUse" x2="8.864549" gradientTransform="matrix(1.2857121 0 0 1.2857121 387.99997 503.2266)"/>
  <linearGradient inkscape:collect="always" xlink:href="#linearGradient4227" id="linearGradient4329" y1="12.505747" x1="23.00004" y2="19.505716" gradientUnits="userSpaceOnUse" x2="30.00001" gradientTransform="matrix(1.2857121 0 0 1.2857121 387.99997 503.2266)"/>
  <linearGradient inkscape:collect="always" xlink:href="#linearGradient4290" id="linearGradient4331" y1="29.999973" y2="1.999974" gradientUnits="userSpaceOnUse" x2="0" gradientTransform="matrix(1.2857121 0 0 1.2857121 387.99997 503.2266)"/>
 </defs>
 <metadata id="metadata5458"/>
 <g inkscape:label="Capa 1" inkscape:groupmode="layer" id="layer1" transform="matrix(1 0 0 1 -384.57143 -499.798)">
  <g id="g4311" transform="matrix(0.94444662 0 0 0.94444662 22.697562 29.09879)">
   <rect width="35.999954" x="390.57141" y="505.798" rx="17.999977" height="35.999973" style="fill:url(#linearGradient4325)" id="rect4130"/>
   <path inkscape:connector-curvature="0" style="fill:url(#linearGradient4327);opacity:0.2;fill-rule:evenodd" id="path4286" d="m 411.90618,506.11694 -3.82449,0.48968 -5.31612,3.06863 -1.93107,3.34485 c 0,0 -2.53787,1.7875 -2.92049,1.68499 -3.23586,-0.038 -4.97391,0.85457 -5.88866,1.98884 -0.38682,0.90405 -0.69034,1.85097 -0.92661,2.82505 -0.006,0.97808 0.20842,1.73772 0.20842,1.73772 9.07784,8.17236 18.15567,11.69509 27.2335,17.54043 0.5716,-0.37973 1.11749,-0.79203 1.63978,-1.23298 0.03,-0.0253 0.0581,-0.0524 0.0879,-0.0779 0.46267,-0.39585 0.90369,-0.81761 1.32338,-1.25809 0.0929,-0.0974 0.18045,-0.19939 0.27121,-0.29883 0.36343,-0.39908 0.71063,-0.81206 1.0371,-1.24301 0.0738,-0.0971 0.14663,-0.19515 0.21848,-0.29382 0.35419,-0.48799 0.68743,-0.99306 0.9919,-1.51673 0.0228,-0.039 0.0478,-0.0763 0.0703,-0.11551 1.3691,-2.39635 2.20346,-5.14141 2.34542,-8.07588 4e-4,-0.008 0.002,-0.0167 0.003,-0.0251 l 0,-0.003 -2.34549,-9.81856 c -2.57099,-4.48466 -7.00935,-7.74076 -12.27704,-8.72125 z"/>
   <path inkscape:connector-curvature="0" style="fill:url(#linearGradient4329);opacity:0.2;fill-rule:evenodd" id="path4219" d="m 425.30069,517.16602 -5.5371,8.56305 5.29603,5.29603 c 0.96625,-2.21137 1.51172,-4.65155 1.51172,-7.22711 0,-2.34745 -0.46027,-4.57933 -1.27065,-6.63197 z"/>
   <path inkscape:connector-curvature="0" style="fill:url(#linearGradient4331)" id="path34" d="m 408.32276,505.81058 c -1.37889,0.0187 -2.71443,0.19773 -4.00027,0.50725 -0.33849,0.30359 -0.83805,0.45751 -1.39872,0.44197 -0.20068,0.19197 -0.15434,0.55009 -0.26366,0.8136 -0.0921,0.2214 -0.41641,0.45831 -0.63784,0.43946 -0.1638,-0.0139 -0.35102,-0.24418 -0.35156,-0.39676 -5.9e-4,-0.18421 0.25602,-0.28689 0.11551,-0.49219 -1.43287,0.5808 -2.7656,1.34657 -3.9852,2.25753 0.3271,-0.12045 0.68782,-0.32294 0.98437,-0.32896 0.0487,-5.8e-4 0.0935,0.004 0.13811,0.015 0.19919,0.0522 0.72412,0.62712 0.28627,0.81362 -0.0415,0.018 -0.64207,0.0833 -0.74581,0.0652 -0.1525,-0.0256 -0.2432,-0.23634 -0.39677,-0.26367 -0.25792,-0.0446 -0.58586,0.22326 -0.80858,0.10296 -2.4529,1.97994 -4.35646,4.59635 -5.49693,7.59875 0.10464,-0.0605 0.21171,-0.12399 0.30636,-0.17326 0.32133,-0.16704 0.5927,-0.43705 0.9668,-0.46205 0.1866,-0.004 0.45612,0.0502 0.63533,0.0878 0.1654,0.0339 0.29884,0.14491 0.44196,0.15569 0.40618,0.031 0.5023,-0.28508 0.8337,-0.46205 0.34236,0.0483 0.56971,-0.0573 0.87891,-0.0226 0.2108,0.0232 0.36308,0.24854 0.52733,0.26115 0.13818,0.0139 0.26055,-0.12844 0.39426,-0.10797 0.12989,0.0201 0.35305,0.30331 0.37416,0.46205 0.0266,0.19759 -0.14463,0.37562 -0.0879,0.59264 0.20698,0.2108 0.58313,0.25271 0.87891,0.37415 0.19259,-0.1587 0.0256,-0.4533 0,-0.68303 -0.004,-0.10118 0.0139,-0.19056 0,-0.28376 -0.018,-0.1582 -0.0869,-0.30404 -0.0878,-0.43945 -0.004,-0.6254 0.5046,-0.91823 0.9241,-1.16518 0.18158,-0.10761 0.32459,-0.29539 0.48215,-0.37416 0.22249,-0.1116 0.38829,-0.13754 0.57254,-0.24107 0.33291,-0.18701 0.6186,-0.33802 0.8789,-0.54995 0.12034,-0.28356 0.0132,-0.66394 0.0226,-0.94419 0.12048,-0.0738 0.22385,0.0331 0.35156,0.0226 0.20091,-0.0419 0.21763,-0.32625 0.33148,-0.43946 0.0662,-0.065 0.24674,-0.11139 0.32896,-0.17578 0.20024,-0.15708 0.26461,-0.39436 0.43945,-0.46205 0.0626,-0.0255 0.20756,-0.0186 0.30636,-0.0452 0.13016,-0.0346 0.3154,-0.18851 0.52735,-0.26117 0.13818,-0.0482 0.45451,-0.0575 0.50725,-0.11049 0.0649,-0.0662 -9e-5,-0.25231 0.0226,-0.35156 0.10658,-0.49611 0.85402,-0.60136 1.29575,-0.76842 0.30961,-0.11737 0.6266,-0.33212 0.9668,-0.26617 -0.0666,0.2358 -0.38269,0.15313 -0.32897,0.43945 0.0742,0.39735 0.60549,-0.11475 0.74582,-0.17328 0.26815,-0.11301 0.72798,-0.18123 1.07979,-0.30887 0.3085,-0.11301 0.86082,-0.28497 0.57004,-0.63783 -0.24247,-0.0139 -0.35866,0.28378 -0.57004,0.37416 -0.14595,0.0233 -0.11901,-0.12135 -0.24357,-0.13308 -0.11842,-0.0139 -0.18473,0.10858 -0.30637,0.0878 -0.12085,-0.0201 -0.28994,-0.21015 -0.30887,-0.35156 -0.0482,-0.36689 0.31011,-0.5174 0.46205,-0.79102 -0.10041,-0.33188 -0.55879,-0.0686 -0.83621,-0.19838 0.0265,-0.19757 0.23126,-0.33388 0.46205,-0.37165 0.18919,-0.0319 0.61306,-0.0154 0.72573,0.0854 0.0652,0.0554 0.005,0.19412 0.11049,0.28627 0.11199,0.10119 0.24891,0.0917 0.39425,0.0678 0.0526,-0.25043 -0.32482,-0.1885 -0.28376,-0.35407 0.29687,-0.19419 0.7791,-0.0339 1.14258,-0.0879 0.20922,-0.031 0.42983,-0.17942 0.61523,-0.28376 0.17634,-0.10041 0.40556,-0.2747 0.59263,-0.11049 0.0508,0.17946 -0.16377,0.23973 -0.26367,0.32897 -0.33628,0.29913 -0.68282,0.64196 -0.94419,0.98939 0.16036,0.15643 0.45187,0.0782 0.72321,0.11049 0.10607,0.0139 0.23939,0.0455 0.35156,0.0653 0.13099,0.0232 0.27155,0.0161 0.37416,0.0427 0.1846,0.0454 0.23408,0.24358 0.41686,0.24358 0.30067,-5.4e-4 0.30341,-0.32669 0.13309,-0.52986 0.0537,-0.20744 0.13797,-0.31424 0.0652,-0.45954 -0.13541,-0.2709 -0.63239,-0.0139 -0.65793,-0.35156 -0.0163,-0.21913 0.18424,-0.21022 0.26368,-0.37417 -0.0361,-0.4234 0.34731,-0.45418 0.30636,-0.83369 -0.018,-0.15874 -0.15255,-0.16015 -0.26368,-0.30888 -0.0577,-0.076 -0.0837,-0.22737 -0.15318,-0.28628 -0.22986,-0.1942 -0.69743,-0.15665 -0.72572,-0.52733 -0.004,-0.12545 0.0138,-0.23791 0.0251,-0.35659 -0.21192,-0.0103 -0.42149,-0.0298 -0.63532,-0.0327 l -0.49721,0 z m -8.56304,4.31165 c 0.1026,0.0139 0.2271,0.12368 0.35156,0.13309 0.11739,0.004 0.2141,-0.0644 0.28627,-0.0452 0.18379,0.0483 0.26057,0.32603 0.0879,0.46205 -0.14368,0.018 -0.20057,-0.0618 -0.30887,-0.0427 -0.29849,0.0508 -0.41226,0.63458 -0.63532,0.61523 -0.21038,-0.018 -0.32409,-0.53044 -0.11049,-0.68303 0.0139,-0.1332 -0.0971,-0.15461 -0.0904,-0.28627 0.0635,-0.0814 0.244,-0.16798 0.41936,-0.15318 z m -0.9894,0.0678 c 0.0612,0.003 0.10715,0.0161 0.13058,0.0427 -0.0292,0.23424 -0.21334,0.21976 -0.39425,0.32896 -0.31244,0.18858 -0.49322,0.47604 -0.59264,0.8789 -0.0288,0.11739 -0.33591,0.42784 -0.48464,0.39677 -0.34849,-0.0734 0.0963,-0.71598 0.17577,-0.81362 0.0878,-0.10825 0.20525,-0.204 0.30887,-0.32896 0.10042,-0.12099 0.16683,-0.28441 0.26368,-0.35156 0.10607,-0.0734 0.40902,-0.16022 0.59263,-0.15318 z m 2.60156,0.79101 c 0.1116,0.003 0.21035,0.0201 0.25614,0.0653 -0.0716,0.29023 -0.69547,0.21284 -0.92411,0.10797 0.0149,-0.10941 0.18507,-0.13873 0.32896,-0.15318 0.10119,-0.004 0.22757,-0.0233 0.33901,-0.0201 z m -1.42382,0.53488 c 0.0742,-0.003 0.15045,0.0145 0.22851,0.0352 -0.20227,0.16917 -0.42108,0.26426 -0.76841,0.37416 -0.16702,0.0528 -0.45636,0.11876 -0.48466,-0.0678 -0.0346,-0.2286 0.24425,-0.17541 0.39676,-0.19586 0.19199,-0.0265 0.40287,-0.13845 0.6278,-0.14565 z m 22.07557,0.32645 c 0.0166,0.16514 0.0193,0.32193 -0.0251,0.49972 -0.0598,0.23809 -0.27415,0.45401 -0.26367,0.66043 0.0139,0.10607 0.12974,0.20811 0.15569,0.35157 0.0139,0.0761 -0.0356,0.23951 0,0.30887 0.1116,0.21641 0.4165,0.033 0.61524,0.0652 0.19415,0.0312 0.41902,0.30976 0.41684,0.52734 -0.003,0.15153 -0.14508,0.40396 -0.24106,0.54995 -0.19158,0.29133 -0.45102,0.30414 -0.72572,0.45954 -0.22911,0.12987 -0.32776,0.34661 -0.46206,0.57254 -0.14552,0.24401 -0.23572,0.39229 -0.17578,0.74581 -0.19639,0.38955 -0.49468,0.62831 -0.90151,0.81362 -0.12033,0.0544 -0.28385,0.0733 -0.39425,0.15318 -0.0878,0.0633 -0.13876,0.2338 -0.26367,0.37417 -0.15413,0.17152 -0.31572,0.2431 -0.39676,0.37415 -0.0626,0.10119 -0.084,0.30354 -0.15318,0.43945 -0.0939,0.18458 -0.29366,0.27503 -0.41685,0.46206 -0.0562,0.0865 -0.0936,0.26094 -0.15569,0.37416 -0.13921,0.25302 -0.37713,0.43542 -0.35157,0.65793 0.0255,0.21508 0.26962,0.25197 0.28627,0.43945 0.004,0.10594 -0.0697,0.17077 -0.0652,0.28627 0.004,0.16863 0.11731,0.28707 0.13058,0.41685 0.0328,0.32632 -0.11192,0.45743 -0.17326,0.68053 -0.0292,0.10658 -0.0169,0.22559 -0.0452,0.30887 -0.0537,0.16331 -0.28178,0.31162 -0.28628,0.50474 -0.003,0.13721 0.1416,0.24684 0.15318,0.43945 0.004,0.13279 -0.0661,0.27469 -0.0427,0.39676 0.0467,0.23916 0.47457,0.51731 0.66044,0.70313 0.24863,0.24861 0.5734,0.44119 0.68052,0.70312 0.0904,0.22249 0.0904,0.5129 0.26367,0.68053 0.12819,0.12381 0.34053,0.20019 0.50475,0.32896 0.15315,0.12021 0.32093,0.22402 0.48465,0.35156 0.26751,0.20925 0.67119,0.62729 1.09738,0.59515 0.2225,-0.0163 0.45068,-0.19874 0.70312,-0.24359 0.25971,-0.0464 0.59683,-0.0697 0.85882,-0.0427 0.20068,0.0201 0.40661,0.14016 0.61523,0.13058 0.22026,-0.0139 0.47291,-0.17695 0.72321,-0.28627 0.39552,-0.17213 0.97073,-0.38603 1.54938,-0.35407 0.11076,-0.81044 0.18834,-1.6317 0.18834,-2.47349 0,-3.40599 -0.95332,-6.57376 -2.58398,-9.28375 -0.0757,-0.005 -0.14537,-0.0156 -0.22852,-0.0126 -0.22299,0.0139 -0.58932,0.0139 -0.59263,-0.26367 -0.002,-0.22796 0.21504,-0.27831 0.4746,-0.29381 -0.48551,-0.7429 -1.03004,-1.44115 -1.61718,-2.10183 z m -27.47456,8.24664 c -0.36508,0.0201 -0.60355,0.0368 -0.81111,0.13058 -0.47554,0.21642 -0.3837,0.85996 -0.85881,1.01199 -0.16432,0.0526 -0.38912,0.0544 -0.57003,0.0879 -0.1561,0.0284 -0.34636,0.11384 -0.50725,0.1105 -0.19037,-0.004 -0.52212,-0.18727 -0.63533,-0.30887 -0.0779,-0.0844 -0.20547,-0.37921 -0.28878,-0.57506 -0.11474,0.63269 -0.19387,1.27674 -0.24108,1.93108 0.039,0.007 0.0802,0.0176 0.11301,0.0176 0.2081,9e-4 0.43072,-0.21469 0.66043,-0.22099 0.53882,-0.0149 0.77276,0.68565 1.20787,0.90151 0.10941,0.0544 0.25335,0.0566 0.39425,0.0879 0.11379,0.0255 0.1993,0.0734 0.30887,0.11049 0.23243,0.0788 0.5172,0.0703 0.70313,0.15318 0.28016,0.12434 0.48481,0.65008 0.72572,0.79102 0.0139,0.14205 -0.0263,0.33355 0.0226,0.43945 0.11379,0.15433 0.27454,0.12036 0.46206,0.22099 0.2243,0.12099 0.29215,0.43187 0.50474,0.52734 0.0733,0.0327 0.25822,0.0297 0.37416,0.0652 0.2913,0.0882 0.38563,0.42526 0.63532,0.35155 0.16377,-0.0482 0.15176,-0.21761 0.17829,-0.37416 0.10826,-0.11738 0.22552,-0.30304 0.39425,-0.30636 0.27305,-0.0139 0.29741,0.28223 0.39677,0.54743 0.0561,0.14987 0.20278,0.28134 0.24107,0.43945 0.068,0.27306 0.035,1.08981 -0.0226,1.25307 -0.0688,0.20023 -0.3401,0.28524 -0.50725,0.50726 -0.0788,0.10401 -0.11631,0.25579 -0.17578,0.32896 -0.10762,0.13099 -0.26855,0.16537 -0.34906,0.28627 -0.0455,0.068 -0.0889,0.21431 -0.13309,0.30636 -0.13195,0.27964 -0.30939,0.47789 -0.19838,0.81362 0.0464,0.13819 0.26313,0.23163 0.26367,0.39425 5.7e-4,0.19138 -0.4079,0.36277 -0.43945,0.57254 -0.0233,0.1561 0.12631,0.43471 0.17578,0.63784 0.0364,0.15348 0.32639,0.24942 0.41685,0.35155 0.1543,0.17316 0.27841,0.4178 0.41937,0.63533 0.27864,0.42786 0.49711,0.94903 0.76841,1.36356 0.14339,0.2171 0.34392,0.41247 0.43945,0.63783 0.0489,0.11379 0.0429,0.24938 0.0879,0.35156 0.15706,0.35451 0.84995,0.72556 1.20786,0.90151 0.16758,0.0815 0.35354,0.11069 0.50726,0.19587 0.23293,0.12987 0.69349,0.4788 0.81111,0.68304 0.10477,0.18357 0.17005,0.62965 0.22097,0.92159 0.068,0.38575 0.004,0.68209 0.0226,1.09989 0.0139,0.22596 0.0854,0.45406 0.0878,0.68052 9e-4,0.0793 -0.0418,0.13753 -0.0452,0.21847 -0.004,0.27416 0.0686,0.58298 0.0452,0.85881 -0.002,0.0591 -0.008,0.10363 -0.0176,0.15569 2.15688,0.91038 4.53041,1.41379 7.02622,1.41379 0.26119,0 0.51501,-0.0293 0.77343,-0.0402 0.005,-0.041 0.0118,-0.0823 0.0201,-0.11551 0.0796,-0.22297 0.28476,-0.29722 0.41685,-0.46205 0.10029,-0.12433 0.14611,-0.26997 0.24108,-0.39425 0.10324,-0.13541 0.19562,-0.25491 0.26366,-0.37416 0.0649,-0.40125 -0.15988,-0.68083 -0.0652,-1.03209 0.10504,-0.39456 0.64973,-0.63559 1.03208,-0.81361 0.13154,-0.0611 0.26704,-0.1612 0.37417,-0.19839 0.26461,-0.0922 0.59426,-0.0424 0.83622,-0.13058 0.41175,-0.1507 0.45486,-0.59165 0.65791,-0.96679 0.0958,-0.17766 0.2223,-0.35561 0.24108,-0.48215 0.0163,-0.11378 -0.0409,-0.21996 -0.0226,-0.35406 0.0201,-0.1328 0.13895,-0.2484 0.17578,-0.39426 0.0482,-0.19038 0.0678,-0.46847 0.0678,-0.68052 0,-0.17405 -0.0806,-0.32766 -0.0879,-0.48465 -0.0284,-0.57005 0.20593,-0.63397 0.41685,-0.9442 0.10581,-0.15413 0.14459,-0.32901 0.21847,-0.43945 0.35405,-0.52827 0.96854,-0.78349 0.92411,-1.58203 -0.0149,-0.26425 -0.1798,-0.86235 -0.37417,-0.9467 -0.11121,-0.0483 -0.36644,-0.004 -0.52734,-0.0652 -0.51944,-0.19377 -0.82533,-0.83778 -1.36356,-0.87891 -0.11494,-0.0139 -0.21969,0.0472 -0.34905,0.0452 -0.21305,-0.0139 -0.53506,-0.14924 -0.77093,-0.17577 -0.14986,-0.0163 -0.34948,0.0445 -0.43945,0 -0.13722,-0.0667 -0.15204,-0.31885 -0.26367,-0.39426 -0.0886,-0.0608 -0.26001,-0.0812 -0.39425,-0.13309 -0.21643,-0.0833 -0.38811,-0.18097 -0.63783,-0.19838 -0.077,-0.004 -0.17395,0.0367 -0.26368,0.0226 -0.13818,-0.0233 -0.24667,-0.18605 -0.37415,-0.26367 -0.15971,-0.0972 -0.30815,-0.14509 -0.37417,-0.28376 0.14431,-0.47335 -0.25453,-0.60542 -0.35156,-0.87891 -0.0464,-0.12819 -0.0247,-0.28246 -0.0652,-0.39677 -0.0572,-0.16379 -0.21927,-0.25764 -0.39676,-0.39425 -0.31804,-0.24478 -0.6002,-0.47379 -1.05469,-0.52986 -0.1998,-0.0255 -0.39645,0.06 -0.63783,0.0452 -0.25582,-0.0163 -0.57706,-0.24084 -0.76842,-0.45954 -0.18601,-0.21351 -0.2774,-0.40517 -0.43945,-0.50726 -0.1535,-0.0986 -0.35721,-0.0961 -0.46206,-0.19586 -0.0467,-0.0436 -0.038,-0.1183 -0.0878,-0.22099 -0.0771,-0.15986 -0.20663,-0.24791 -0.1105,-0.43945 -0.17512,-0.09 -0.18001,0.16633 -0.37164,0.13309 -0.17081,-0.24246 -0.31522,-0.35737 -0.70313,-0.28627 -0.17765,0.0328 -0.27766,0.25809 -0.48465,0.26367 -0.16974,0.0139 -0.30315,-0.18913 -0.52734,-0.22098 -0.1692,-0.0232 -0.3617,0.0456 -0.48215,0.0226 -0.18758,-0.0374 -0.2455,-0.19368 -0.41684,-0.30636 -0.12563,-0.0825 -0.369,-0.22322 -0.43947,-0.22099 -0.2209,0.0139 -0.37839,0.47031 -0.68302,0.30887 -0.14805,-0.1876 0.24099,-0.28653 0.0653,-0.46205 -0.1332,-0.1332 -0.24505,0.0596 -0.35156,0.13309 -0.12201,0.0842 -0.2368,0.16857 -0.37166,0.21848 -0.30188,0.11301 -0.48979,0.0537 -0.72572,0.17578 -0.21846,0.11313 -0.22779,0.30253 -0.35156,0.52734 -0.10118,0.18418 -0.33259,0.45095 -0.48466,0.46205 -0.18417,0.0139 -0.36027,-0.25671 -0.52734,-0.32896 -0.50329,-0.218 -0.74725,0.19279 -1.16518,0.19838 -0.38787,0.0139 -0.94106,-0.62474 -0.92159,-0.9894 0.004,-0.2225 0.12711,-0.56096 0.15318,-0.83621 0.0233,-0.21891 0.17326,-0.35012 0.17578,-0.54995 0.004,-0.26694 -0.35417,-0.47308 -0.52734,-0.50473 -0.4106,-0.0755 -0.98087,0.16572 -1.45145,-0.0226 -0.09,-0.14894 0.10534,-0.25189 0.15569,-0.39677 0.0284,-0.0823 0.0132,-0.19317 0.0427,-0.28375 0.0522,-0.13997 0.19804,-0.24847 0.26367,-0.39677 0.0491,-0.11314 0.0611,-0.27644 0.11049,-0.41685 0.0572,-0.15987 0.16341,-0.26203 0.17578,-0.37416 0.0163,-0.14804 -0.0398,-0.31923 -0.1557,-0.41686 z m 5.87611,4.65317 c 0.14895,0.0139 0.16738,0.32179 0.015,0.34654 -0.16434,0.0256 -0.24715,-0.25774 -0.0879,-0.33147 0.0266,-0.0139 0.0515,-0.0165 0.0728,-0.0151 z"/>
  </g>
  <g id="g4297" transform="matrix(1 0 0 1 2 2)">
   <path inkscape:connector-curvature="0" style="fill:url(#linearGradient4303);color:#000000" id="path4445-0" d="m 385.57143,500.798 0,15 9,0 6,5 0,-5 5,0 0,-15 z"/>
   <path inkscape:connector-curvature="0" style="fill:url(#linearGradient4305);opacity:0.2;color:#000000" id="path4178" d="m 11.375001,4.8749978 6.5,5.6875002 0,4.0625 -5.875,0 -2.3750005,-3 0.8750005,-0.713388 2.796146,3.37381 -0.0625,-0.875 L 9.9816947,9.7979835 11.069433,7.5959688 9.0183063,5.6691921 9.9375005,4.7499978 z" transform="matrix(1 0 0 1 384.57143 499.798)"/>
   <path inkscape:connector-curvature="0" style="fill:#68ff88" id="path4167" d="m 388.7867,484.34017 c 0,-0.68073 -0.3436,-1.0211 -1.03079,-1.0211 -0.40005,0 -0.82108,0.13712 -1.26307,0.41134 l -0.17422,-0.59524 c 0.43877,-0.30004 0.94851,-0.45006 1.52924,-0.45006 0.49361,0 0.90496,0.12421 1.23404,0.37263 0.35488,0.27101 0.53233,0.69042 0.53233,1.25824 0,0.47749 -0.15486,0.93077 -0.46458,1.35986 -0.14196,0.19358 -0.28714,0.38715 -0.43554,0.58073 -0.38715,0.50007 -0.66622,1.03078 -0.83721,1.59215 l -0.43555,0 c 0.0226,-0.50007 0.18874,-1.02433 0.49846,-1.5728 0.12905,-0.22906 0.2581,-0.45167 0.38715,-0.66783 0.30649,-0.51297 0.45974,-0.93561 0.45974,-1.26792 m -0.73075,5.41526 c -0.0936,0.10324 -0.23068,0.15486 -0.41134,0.15486 -0.18067,0 -0.3194,-0.0516 -0.41619,-0.15486 -0.0936,-0.10646 -0.14034,-0.2339 -0.14034,-0.38231 0,-0.1484 0.0468,-0.27423 0.14034,-0.37747 0.0968,-0.10324 0.23552,-0.15486 0.41619,-0.15486 0.18066,0 0.31778,0.0516 0.41134,0.15486 0.0936,0.10324 0.14034,0.23068 0.14035,0.38231 -1e-5,0.14841 -0.0468,0.27423 -0.14035,0.37747" transform="matrix(1 0 0 1 7.081214 21.778944)"/>
  </g>
  <g id="g4291" transform="matrix(1 0 0 1 -2 -2)">
   <path inkscape:connector-curvature="0" style="fill:url(#linearGradient4307);color:#000000" id="path3300" d="m 431.57143,546.798 0,-15 -9,0 -6,-5 0,5 -5,0 0,15 z"/>
   <path inkscape:connector-curvature="0" style="fill:url(#linearGradient4309);opacity:0.2;color:#000000" id="path4287" d="m 422.07143,535.64175 6.71875,5.75 0.625,4.1875 -5.875,0 -2.375,-3 0.875,-0.71339 2.79615,3.37381 -0.0625,-0.875 -3.25195,-3.61243 -0.32545,-5.04799 z"/>
   <path inkscape:connector-curvature="0" style="fill:#d485ff" id="path4170" d="m 410.5393,487.63829 c -0.0936,0.10647 -0.23068,0.1597 -0.41135,0.1597 -0.18067,0 -0.3194,-0.0549 -0.41619,-0.16454 -0.0936,-0.11292 -0.14034,-0.24358 -0.14034,-0.39199 0,-0.14841 0.0468,-0.27746 0.14034,-0.38715 0.0968,-0.10969 0.23552,-0.16454 0.41619,-0.16454 0.18067,0 0.31778,0.0548 0.41135,0.16454 0.0968,0.10969 0.14517,0.24036 0.14518,0.39199 -1e-5,0.15163 -0.0484,0.2823 -0.14518,0.39199 m -0.57589,-1.92607 -0.28068,-4.46674 0,-0.57589 0.85173,0 0,0.57589 -0.25165,4.46674 -0.3194,0" transform="matrix(1 0 0 1 11.490486 54.977555)"/>
  </g>
 </g>
</svg>
