<?xml version="1.0" encoding="UTF-8" standalone="no"?>
<svg
   xmlns:dc="http://purl.org/dc/elements/1.1/"
   xmlns:cc="http://creativecommons.org/ns#"
   xmlns:rdf="http://www.w3.org/1999/02/22-rdf-syntax-ns#"
   xmlns:svg="http://www.w3.org/2000/svg"
   xmlns="http://www.w3.org/2000/svg"
   xmlns:xlink="http://www.w3.org/1999/xlink"
   version="1.1"
   id="svg2"
   width="48"
   height="48">
  <metadata
     id="metadata54">
    <rdf:RDF>
      <cc:Work
         rdf:about="">
        <dc:format>image/svg+xml</dc:format>
        <dc:type
           rdf:resource="http://purl.org/dc/dcmitype/StillImage" />
        <dc:title></dc:title>
      </cc:Work>
    </rdf:RDF>
  </metadata>
  <defs
     id="defs4">
    <linearGradient
       id="c">
      <stop
         id="stop7"
         stop-color="#a3582d"
         offset="0" />
      <stop
         id="stop9"
         stop-color="#ba6d42"
         offset="1" />
    </linearGradient>
    <linearGradient
       xlink:href="#a"
       gradientTransform="translate(386.57,499.8)"
       gradientUnits="userSpaceOnUse"
       x2="13.888"
       y2="11.25"
       x1="39.75"
       y1="49.75"
       id="d">
      <stop
         id="stop12"
         offset="0"
         stop-color="#d6602e" />
      <stop
         id="stop14"
         stop-color="#fd8f49"
         offset="1" />
    </linearGradient>
    <linearGradient
       gradientTransform="matrix(-1.45663 0 0 -1.45663 1013.146 1296.346)"
       gradientUnits="userSpaceOnUse"
       x2="409.79"
       y2="523.38"
       x1="414.63"
       y1="531.77"
       id="b">
      <stop
         id="stop17"
         stop-color="#197cf1" />
      <stop
         id="stop19"
         stop-color="#21c9fb"
         offset="1" />
    </linearGradient>
    <linearGradient
       gradientTransform="translate(2,0)"
       gradientUnits="userSpaceOnUse"
       x2="405.4"
       y2="519.75"
       x1="413.5"
       y1="537.26"
       id="g">
      <stop
         id="stop22"
         stop-color="#eef1f2" />
      <stop
         id="stop24"
         stop-color="#f9fafb"
         offset="1" />
    </linearGradient>
    <linearGradient
       gradientTransform="scale(.8712) rotate(-45 -376.617 734.99)"
       gradientUnits="userSpaceOnUse"
       x2="413.485"
       y2="544.995"
       y1="528.745"
       id="f"
       xlink:href="#b"
       x1="412.86">
      <stop
         id="stop27"
         stop-color="#292929" />
      <stop
         id="stop29"
         stop-opacity="0"
         offset="1" />
    </linearGradient>
    <linearGradient
       id="a">
      <stop
         id="stop32"
         stop-color="#1064aa"
         offset="0" />
      <stop
         id="stop34"
         stop-color="#0d528b"
         offset="1" />
    </linearGradient>
    <linearGradient
       xlink:href="#c"
       id="e"
       x1="41"
       y1="46.75"
       x2="16"
       y2="12.5"
       gradientUnits="userSpaceOnUse" />
    <linearGradient
       xlink:href="#b"
       id="h"
       gradientUnits="userSpaceOnUse"
       gradientTransform="matrix(-1.2105596,0,0,-1.2111094,529.33679,665.17886)"
       x1="414.63"
       y1="531.77"
       x2="409.79"
       y2="523.38" />
  </defs>
  <g
     style="stroke-width:2;stroke-linejoin:round"
     transform="matrix(0.9947017,0,0,0.9994194,0.12492698,0.01187751)"
     id="g38">
    <path
       style="fill:url(#d)"
       id="path40"
       transform="matrix(0.8712,0,0,0.8712,-329.264,-433.91)"
       d="m 411.26363,514.12563 -20.77121,0 c -3.29394,-0.004 -5.20938,4.70946 0,4.59404 l 9.85459,0.1333 -18.08267,13.95553 c -4.97567,3.84004 -0.3378,8.53512 3.78584,5.10998 l 9.66541,-8.02819 c -0.10698,2.04148 0.574,5.30313 1.7725,7.40122 2.81306,4.82909 7.81946,9.00712 16.23527,8.9666 9.46004,-0.0455 17.62149,-7.64316 17.13392,-17.37968 -0.1539,-3.8449 -2.86757,-8.72119 -8.26941,-12.90705 -3.97275,-3.07846 -13.49871,-10.17548 -14.09257,-10.54466 -2.51194,-1.56157 -6.089,0.94306 -4.3348,2.91859 0.50762,0.57167 5.16623,4.23011 7.10313,5.78032 z" />
    <path
       style="opacity:0.5;fill:url(#e)"
       id="path42"
       d="m 19.197266,6.9785156 c -0.152867,0.5047853 -0.06393,1.0522972 0.392578,1.5664063 0.436641,0.4917356 4.951575,4.0824041 7.107673,5.7873191 l 1.153956,0 C 25.914573,12.781984 20.097464,8.2396387 19.589844,7.6679688 19.390161,7.4430913 19.268223,7.2103268 19.197266,6.9785156 Z M 2.6972656,16.552734 c -0.2740475,1.268941 0.5973543,2.431851 3.2290422,2.373543 l 9.8478552,0.124503 1.691705,-1.273012 -11.5395602,0 C 3.914974,17.822335 2.907903,17.46602 2.6972656,16.552734 Z m 8.6289064,12.582032 -9.8457032,8.105468 c -2.6754196,2.222233 -5.5502054,1.020264 -5.8925782,-1.142578 -0.4084188,2.677649 2.8718882,4.530502 5.8925782,2.021485 l 9.6660162,-8.029298 c 0.06695,-0.466315 0.148419,-0.818671 0.179687,-0.955077 z m 34.982422,0.523437 c -0.251656,8.838212 -8.063396,15.643589 -17.464844,15.689453 -8.922361,0.04353 -14.295748,-5.244243 -16.592309,-10.373264 -0.574124,-1.288923 -0.857829,-2.550227 -1.094919,-3.815346 0.10326,2.53768 1.056307,5.265238 2.22625,7.160217 2.708278,4.315907 7.958139,8.207573 15.460978,8.170971 9.710496,-0.04737 17.725342,-7.589108 17.464844,-16.832031 z"
       transform="matrix(0.8712,0,0,0.8712,5.77,1.51)" />
  </g>
  <path
     style="opacity:0.2;fill:url(#f)"
     id="path44"
     d="m 37.070849,20.433824 -13.01586,12.278638 8.529688,8.250909 C 39.966866,40.019812 45.337652,35.09174 46.034589,28.50434 l -8.927786,-8.088493" />
  <g
     style="stroke-width:2;stroke-linecap:round;stroke-linejoin:round"
     transform="matrix(0.9734707,0,0,1.029509,0.90266642,-0.43753635)"
     id="g46">
    <path
       style="fill:url(#g)"
       id="path48"
       transform="matrix(0.8712,0,0,0.8712,-329.264,-433.91)"
       d="m 424.0378,528.3668 c 0.0943,2.68783 -0.95509,5.30443 -2.9369,7.25483 -2.00549,1.97372 -4.77925,3.08251 -7.68971,3.064 -2.90717,-0.0185 -5.67202,-1.16003 -7.66773,-3.15239 -1.96909,-1.96579 -3.01104,-4.58273 -2.91834,-7.25858 0.0911,-2.62957 1.27143,-5.10542 3.26479,-6.90221 1.97096,-1.77659 4.59636,-2.76219 7.31814,-2.7555 2.72467,0.007 5.35865,1.00726 7.33992,2.79941 2.00689,1.81534 3.19715,4.30929 3.28983,6.95044 0,0 0,0 0,0" />
    <path
       style="fill:url(#h)"
       id="path50"
       d="m 25.781729,26.564754 c 0.01771,-1.282215 0.571052,-2.50144 1.535084,-3.393215 0.959619,-0.887686 2.251647,-1.381897 3.595735,-1.377099 1.344677,0.005 2.638518,0.508695 3.600331,1.404436 0.966848,0.900424 1.522351,2.126034 1.540477,3.410518 0.01829,1.293505 -0.509811,2.539993 -1.471615,3.46151 -0.966326,0.925832 -2.287067,1.443889 -3.667673,1.436797 -1.37998,-0.0067 -2.699169,-0.538245 -3.663799,-1.472749 -0.959535,-0.929549 -1.486324,-2.178987 -1.46854,-3.470198 0,0 0,0 0,0" />
  </g>
</svg>
