<?xml version="1.0" encoding="UTF-8" standalone="no"?>

<!-- Created with Inkscape (http://www.inkscape.org/) -->
<svg width="48" version="1.1" xmlns="http://www.w3.org/2000/svg" height="48" xmlns:xlink="http://www.w3.org/1999/xlink" xmlns:inkscape="http://www.inkscape.org/namespaces/inkscape">
 <defs id="defs5455">
  <linearGradient inkscape:collect="always" id="linearGradient4728">
   <stop style="stop-color:#884d2c" id="stop4730"/>
   <stop offset="0.125" style="stop-color:#334545" id="stop4736"/>
   <stop offset="0.729166" style="stop-color:#334545" id="stop4738"/>
   <stop offset="1" style="stop-color:#ffa92d" id="stop4732"/>
  </linearGradient>
  <linearGradient inkscape:collect="always" id="linearGradient4697">
   <stop style="stop-color:#4ce0c6" id="stop4699"/>
   <stop offset="1" style="stop-color:#3b85b5" id="stop4701"/>
  </linearGradient>
  <linearGradient inkscape:collect="always" id="linearGradient4526">
   <stop style="stop-color:#ffc169" id="stop4528"/>
   <stop offset="1" style="stop-color:#ffa92d" id="stop4530"/>
  </linearGradient>
  <linearGradient inkscape:collect="always" id="linearGradient4468">
   <stop style="stop-color:#334545" id="stop4470"/>
   <stop offset="1" style="stop-color:#536161" id="stop4472"/>
  </linearGradient>
  <linearGradient inkscape:collect="always" id="linearGradient4410">
   <stop style="stop-color:#383e51" id="stop4412"/>
   <stop offset="1" style="stop-color:#655c6f;stop-opacity:0" id="stop4414"/>
  </linearGradient>
  <linearGradient inkscape:collect="always" xlink:href="#linearGradient4227" id="linearGradient4463" y1="21.999729" y2="8" x2="0" gradientUnits="userSpaceOnUse" gradientTransform="matrix(1 0 0 1 342.57143 508.798)"/>
  <linearGradient inkscape:collect="always" xlink:href="#linearGradient4410" id="linearGradient4906" y1="15" x1="15.999981" y2="39" x2="39.999981" gradientUnits="userSpaceOnUse" gradientTransform="matrix(1 0 0 1 -50 0)"/>
  <linearGradient inkscape:collect="always" id="linearGradient4293">
   <stop id="stop4295"/>
   <stop offset="1" style="stop-opacity:0" id="stop4297"/>
  </linearGradient>
  <linearGradient inkscape:collect="always" id="linearGradient4303-6">
   <stop style="stop-color:#c6cdd1" id="stop4305-7"/>
   <stop offset="1" style="stop-color:#e0e5e7" id="stop4307-0"/>
  </linearGradient>
  <linearGradient inkscape:collect="always" id="linearGradient4643-8" xlink:href="#linearGradient4303-6" y1="543.79797" y2="502.65509" x2="0" gradientUnits="userSpaceOnUse" gradientTransform="matrix(0.66666726 0 0 0.63518419 136.19015 188.51871)"/>
  <linearGradient inkscape:collect="always" id="linearGradient4183" xlink:href="#linearGradient4293" y1="525.79797" y2="540.79797" x1="391.57144" gradientUnits="userSpaceOnUse" x2="406.57147" gradientTransform="matrix(1 0 0 1 8 -9.999987)"/>
  <linearGradient id="linearGradient4227">
   <stop style="stop-color:#2e3436" id="stop4229"/>
   <stop offset="1" style="stop-color:#555753" id="stop4231"/>
  </linearGradient>
  <linearGradient inkscape:collect="always" xlink:href="#linearGradient4468" id="linearGradient4474" y1="542.22382" x1="398.09201" y2="524.89966" x2="394.00299" gradientUnits="userSpaceOnUse" gradientTransform="matrix(1 0 0 1 -384.57143 -499.798)"/>
  <linearGradient inkscape:collect="always" xlink:href="#linearGradient4468" id="linearGradient4488" y1="586.49384" x1="431.3129" y2="582.0744" x2="439.57144" gradientUnits="userSpaceOnUse" gradientTransform="matrix(-1 0 0 1 454.57142 -539.79801)"/>
  <linearGradient inkscape:collect="always" xlink:href="#linearGradient4468" id="linearGradient4490" y1="577.36243" x1="430.56738" y2="591.32782" x2="423.74994" gradientUnits="userSpaceOnUse" gradientTransform="matrix(-1 0 0 1 454.57142 -539.79801)"/>
  <linearGradient inkscape:collect="always" xlink:href="#linearGradient4468" id="linearGradient4492" y1="577.10217" x1="431.3129" y2="571.44531" x2="440.63208" gradientUnits="userSpaceOnUse" gradientTransform="matrix(-1 0 0 1 839.14285 -40.00001)"/>
  <linearGradient inkscape:collect="always" xlink:href="#linearGradient4468" id="linearGradient4496" y1="572.33411" x1="423.05438" y2="566.76562" x2="431.22452" gradientUnits="userSpaceOnUse" gradientTransform="matrix(-1 0 0 1 839.14285 -40.00001)"/>
  <linearGradient inkscape:collect="always" xlink:href="#linearGradient4468" id="linearGradient4498" y1="581.87024" x1="406.53735" y2="572.67786" x2="423.31955" gradientUnits="userSpaceOnUse" gradientTransform="matrix(-1 0 0 1 454.57142 -539.79801)"/>
  <linearGradient inkscape:collect="always" xlink:href="#linearGradient4468" id="linearGradient4500" y1="568.79803" x1="431.57141" y2="562.79803" x2="439.57141" gradientUnits="userSpaceOnUse" gradientTransform="matrix(-1 0 0 1 839.14285 -40.00001)"/>
  <linearGradient inkscape:collect="always" xlink:href="#linearGradient4526" id="linearGradient4532" y1="521.63281" x1="404.0452" y2="528.35034" x2="430.73611" gradientUnits="userSpaceOnUse"/>
  <linearGradient inkscape:collect="always" xlink:href="#linearGradient4697" id="linearGradient4703" y1="503.07938" x1="418.16971" y2="531.45813" x2="384.57144" gradientUnits="userSpaceOnUse"/>
  <linearGradient inkscape:collect="always" xlink:href="#linearGradient4728" id="linearGradient4734" y1="541.298" x1="384.57143" y2="541.29797" x2="432.57144" gradientUnits="userSpaceOnUse"/>
 </defs>
 <metadata id="metadata5458"/>
 <g inkscape:label="Capa 1" inkscape:groupmode="layer" id="layer1" transform="matrix(1 0 0 1 -384.57143 -499.798)">
  <g id="g4578">
   <path inkscape:connector-curvature="0" style="fill:url(#linearGradient4703)" id="path4589" d="m 384.57143,503.798 0,40 48,0 0,-40 -48,0 z"/>
   <path id="path4284" style="fill:url(#linearGradient4532);stroke-linecap:round;stroke-width:2" inkscape:flatsided="true" inkscape:transform-center-x="5.5056789" inkscape:rounded="0" inkscape:randomized="0" d="m 399.53737,522.87024 33.03408,-19.07223 0,38.14446 z"/>
   <path inkscape:connector-curvature="0" style="fill:url(#linearGradient4474);stroke-linecap:round;stroke-width:2" id="path4284-5-6" d="M 15,23 0,31.660156 0,44 l 48,0 0,-2 z" transform="matrix(1 0 0 1 384.57143 499.798)"/>
   <path inkscape:transform-center-x="-5.5056915" inkscape:connector-curvature="0" style="fill:url(#linearGradient4500);stroke-linecap:round;stroke-width:2" id="path4284-5-6-2-2" d="m 407.82995,527.56606 -8.25852,-4.76806 0,9.53611 z"/>
   <path inkscape:connector-curvature="0" style="fill:url(#linearGradient4498);stroke-linecap:round;stroke-width:2" id="path4284-5-6-2-0" d="M 31.517578,32.535156 31.517578,44 44.693359,44 48,42.091797 48,42.052734 31.517578,32.535156 Z" transform="matrix(1 0 0 1 384.57143 499.798)"/>
   <path inkscape:transform-center-x="-5.5056915" inkscape:connector-curvature="0" style="fill:url(#linearGradient4496);stroke-linecap:round;stroke-width:2" id="path4284-5-6-2-6" d="m 416.08847,532.33411 -8.25852,-4.76805 0,9.53611 z"/>
   <path inkscape:transform-center-x="-5.5056915" inkscape:connector-curvature="0" style="fill:url(#linearGradient4492);stroke-linecap:round;stroke-width:2" id="path4284-5-6-2-6-50" d="m 399.57143,532.33411 0,9.53612 8.25852,-4.76806 z"/>
   <path inkscape:connector-curvature="0" style="fill:url(#linearGradient4490);stroke-linecap:round;stroke-width:2" id="path4284-5-6-2-0-6" d="M 31.517578,32.535156 15,42.072266 18.339844,44 l 13.177734,0 0,-11.464844 z" transform="matrix(1 0 0 1 384.57143 499.798)"/>
   <path inkscape:connector-curvature="0" style="fill:url(#linearGradient4488);stroke-linecap:round;stroke-width:2" id="path4284-5-6-2-2-0" d="M 15,41.927734 15,44 18.589844,44 15,41.927734 Z" transform="matrix(1 0 0 1 384.57143 499.798)"/>
   <path inkscape:connector-curvature="0" style="fill:#334545;stroke-linecap:round;stroke-width:2" id="path4284-5-6-2" d="m 432.57143,541.798 -3.46484,2 3.46484,0 0,-2 z"/>
   <path inkscape:connector-curvature="0" style="fill:#ffc169;fill-rule:evenodd" id="path4468" d="m 384.57143,541.91519 0,1.88281 2.28516,0 -2.28516,-1.88281 z"/>
   <path inkscape:transform-center-x="5.5056789" inkscape:connector-curvature="0" style="fill:#ffa92d;stroke-linecap:round;stroke-width:2" id="path4284-1" d="m 399.53737,522.87024 33.03408,-19.07223 -2e-5,9.31712 z"/>
  </g>
  <g id="g4818" transform="matrix(1 0 0 1 50 0)">
   <g id="g4343" transform="matrix(1 0 0 1 -50 0)">
    <rect width="32" x="392.57144" y="507.79797" rx="0" height="28" style="fill:url(#linearGradient4643-8)" id="rect4641-5"/>
    <path inkscape:connector-curvature="0" style="fill:url(#linearGradient4183);opacity:0.2;fill-rule:evenodd" id="path4167" d="m 393.57143,533.79801 30,-20 1.00001,1 -10e-6,20.99997 -29,3e-5 z"/>
    <rect width="32.00001" x="392.57141" y="507.79797" height="4" style="fill:#566069" id="rect4647-8"/>
    <rect width="31.999968" x="392.57141" y="511.79797" height="1" style="fill:#3daee9" id="rect4649-8"/>
    <rect width="30" x="393.57141" y="513.79797" height="20.00003" style="fill:#ffffff" id="rect4653-5"/>
    <rect width="2" x="421.57141" y="508.79797" rx="1" height="2" style="fill:#eff0f1" id="rect4661-1"/>
   </g>
   <path inkscape:connector-curvature="0" style="fill:url(#linearGradient4906);opacity:0.2;fill-rule:evenodd" id="path4892" d="m -34,19 11,11 -7.087891,0 A 1.5,1.5 0 0 0 -30,29.5 1.5,1.5 0 0 0 -31.5,28 1.5,1.5 0 0 0 -33,29.5 1.5,1.5 0 0 0 -32.912109,30 L -34,30 l 6,6 18,0 0,-9 -8,-8 -16,0 z" transform="matrix(1 0 0 1 384.57143 499.798)"/>
   <path inkscape:connector-curvature="0" style="fill:url(#linearGradient4463)" id="rect4437" d="m 360.07143,515.798 c -1.21386,0 -2.21902,0.85592 -2.44922,2 l -7.05039,0 0,1 7.05039,0 c 0.2302,1.14408 1.23536,2 2.44922,2 1.21387,0 2.21902,-0.85592 2.44922,-2 l 4.05078,0 0,-1 -4.05078,0 c -0.2302,-1.14408 -1.23535,-2 -2.44922,-2 z m -6.99961,11 c -1.38499,0 -2.5,1.11501 -2.5,2.5 0,1.38499 1.11501,2.5 2.5,2.5 1.21385,0 2.21902,-0.85593 2.44922,-2 l 11.05039,0 0,-1 -11.05039,0 c -0.2302,-1.14407 -1.23537,-2 -2.44922,-2 z m 0,1 c 0.83099,0 1.5,0.66901 1.5,1.5 0,0.83099 -0.66901,1.5 -1.5,1.5 -0.83099,0 -1.5,-0.66901 -1.5,-1.5 0,-0.83099 0.66901,-1.5 1.5,-1.5 z"/>
  </g>
  <path inkscape:connector-curvature="0" style="fill:url(#linearGradient4734)" id="rect4128-1" d="m 384.57143,538.798 0,4 0,1 1,0 46,0 1,0 0,-1 0,-4 z"/>
  <path inkscape:connector-curvature="0" style="fill:#ffffff;fill-opacity:0.784314" id="rect4128" d="m 384.57143,538.798 0,4 0,1 1,0 46,0 1,0 0,-1 0,-4 z"/>
  <g id="text4213" transform="matrix(0.64829823 0 0 0.64829823 143.63174 191.16072)">
   <path inkscape:connector-curvature="0" id="path4218" d="m 434.23853,537.83412 c -0.15893,0.11003 -0.36677,0.22414 -0.54201,0.30157 l 0.0734,0.28934 c 0.14264,-0.0448 0.27305,-0.12225 0.43198,-0.22414 l 0,2.60819 0.35455,0 0,-2.97496 -0.31787,0 z"/>
   <path inkscape:connector-curvature="0" id="path4220" d="m 435.20119,538.03381 0.11819,0.29749 c 0.16708,-0.17116 0.41568,-0.24452 0.66427,-0.24452 0.33825,0 0.52571,0.18747 0.52571,0.51757 l 0,0.0204 c -0.004,0.2323 -0.15486,0.46051 -0.38715,0.71726 l -1.02697,1.14108 0.0448,0.32602 1.74016,0 0.0245,-0.30565 -1.38153,0 0.83951,-0.89656 c 0.32603,-0.35048 0.52572,-0.63575 0.52979,-1.01067 l 0,-0.0122 c 0,-0.48904 -0.34232,-0.81098 -0.88434,-0.81098 -0.38715,0 -0.63982,0.10595 -0.80691,0.26082 z"/>
   <path inkscape:connector-curvature="0" id="path4222" d="m 437.42599,540.85799 0.4116,0 0,-0.46459 -0.4116,0 0,0.46459 z m 0,-1.82574 0.4116,0 0,-0.46051 -0.4116,0 0,0.46051 z"/>
   <path inkscape:connector-curvature="0" id="path4224" d="m 439.75394,539.98995 c 0,0.3627 -0.2649,0.56239 -0.65613,0.56239 -0.30157,0 -0.50941,-0.0978 -0.6602,-0.21599 l -0.1141,0.28934 c 0.11003,0.10596 0.39122,0.22822 0.77838,0.22822 0.57869,0 1.00252,-0.3301 1.00252,-0.85989 0,-0.41975 -0.23229,-0.68872 -0.59499,-0.77023 0.32195,-0.0978 0.52164,-0.3301 0.52164,-0.71317 0,-0.47681 -0.41161,-0.73763 -0.85174,-0.73763 -0.41161,0 -0.6765,0.0897 -0.85581,0.22821 l 0.1141,0.28935 c 0.15894,-0.12634 0.39123,-0.21192 0.66428,-0.21192 0.35047,0 0.54609,0.14671 0.54609,0.47681 0,0.46866 -0.43198,0.52164 -0.88842,0.52164 l 0,0.29342 c 0.55424,0 0.99438,0.0856 0.99438,0.61945 z"/>
   <path inkscape:connector-curvature="0" id="path4226" d="m 441.86538,538.2824 0,1.49971 -0.99437,0 0.99437,-1.49971 z m 0.67243,1.78905 0.0285,-0.28934 -0.36678,0 0,-1.94799 -0.37085,0 -1.30817,1.93169 0,0.30564 1.34484,0 0,0.73763 0.33418,0 0,-0.73763 0.33825,0 z"/>
  </g>
  <path inkscape:connector-curvature="0" style="color:#000000" id="path2994" d="m 387.07143,539.79839 a 0.16666666,0.16666666 0 0 0 -0.16667,0.16667 0.16666666,0.16666666 0 0 0 0.16667,0.16667 0.16666666,0.16666666 0 0 0 0.16666,-0.16667 0.16666666,0.16666666 0 0 0 -0.16666,-0.16667 z m 0.83333,0 -0.32292,0.26042 0.43229,0.53646 -0.40625,0.40625 0.29688,0.29687 0.66667,-0.66667 -0.66667,-0.83333 z m -1.08333,0.66667 a 0.25,0.25 0 0 0 -0.25,0.25 0.25,0.25 0 0 0 0.25,0.25 0.25,0.25 0 0 0 0.25,-0.25 0.25,0.25 0 0 0 -0.25,-0.25 z m 0.5,0.83333 a 0.25,0.25 0 0 0 -0.25,0.25 0.25,0.25 0 0 0 0.25,0.25 0.25,0.25 0 0 0 0.25,-0.25 0.25,0.25 0 0 0 -0.25,-0.25 z"/>
  <path inkscape:connector-curvature="0" style="fill-opacity:0.110092" id="path4816" d="m 384.57143,542.798 0,0.2 0,0.8 1,0 46,0 1,0 0,-0.8 0,-0.2 z"/>
 </g>
</svg>
