<?xml version="1.0" encoding="UTF-8" standalone="no"?>

<!-- Created with Inkscape (http://www.inkscape.org/) -->
<svg width="48" version="1.1" xmlns="http://www.w3.org/2000/svg" height="48" xmlns:xlink="http://www.w3.org/1999/xlink" xmlns:inkscape="http://www.inkscape.org/namespaces/inkscape">
 <defs id="defs5455">
  <linearGradient inkscape:collect="always" id="linearGradient4143">
   <stop style="stop-color:#faae2a" id="stop4145"/>
   <stop offset="1" style="stop-color:#ffc35a" id="stop4147"/>
  </linearGradient>
  <linearGradient inkscape:collect="always" xlink:href="#linearGradient4143" id="linearGradient4277" y1="543.79797" y2="503.798" x2="0" gradientUnits="userSpaceOnUse"/>
  <linearGradient inkscape:collect="always" id="linearGradient4271">
   <stop style="stop-color:#2a2c2f" id="stop4273"/>
   <stop offset="1" style="stop-color:#424649" id="stop4275"/>
  </linearGradient>
  <linearGradient inkscape:collect="always" xlink:href="#linearGradient4271" id="linearGradient4350" y1="34" y2="13" x2="0" gradientUnits="userSpaceOnUse"/>
  <linearGradient inkscape:collect="always" id="linearGradient4410">
   <stop style="stop-color:#383e51" id="stop4412"/>
   <stop offset="1" style="stop-color:#655c6f;stop-opacity:0" id="stop4414"/>
  </linearGradient>
  <linearGradient inkscape:collect="always" xlink:href="#linearGradient4410" id="linearGradient4472" y1="13" x1="13" y2="31" x2="31" gradientUnits="userSpaceOnUse"/>
 </defs>
 <metadata id="metadata5458"/>
 <g inkscape:label="Capa 1" inkscape:groupmode="layer" id="layer1" transform="matrix(1 0 0 1 -384.57143 -499.798)">
  <path inkscape:connector-curvature="0" style="fill:url(#linearGradient4277);fill-rule:evenodd" id="path4193" d="m 388.57147,523.798 20,20 19.99996,-19.99984 -19.99996,-20.00016 z"/>
  <path style="stroke-opacity:0.550265;fill:url(#linearGradient4350);stroke-width:2.8" id="rect4206" d="M 25 13 L 25 19.986328 L 21 23.986328 L 21.013672 24 L 21 24 L 21 34 L 23 34 L 23 24.814453 L 25 22.814453 L 25 34 L 27 34 L 27 20.814453 L 27 17.986328 L 27 13 L 25 13 z " transform="matrix(1 0 0 1 384.57143 499.798)"/>
  <path style="fill:#e78220;fill-rule:evenodd" id="path4352" d="M 4.5 23.5 L 4 24 L 24 44 L 44 24 L 43.5 23.5 L 24 43 L 4.5 23.5 z " transform="matrix(1 0 0 1 384.57143 499.798)"/>
  <path style="fill:url(#linearGradient4472);opacity:0.2;fill-rule:evenodd" id="path4409" d="M 27 13 L 27 34 L 25 34 L 25.011719 22.792969 L 23 24.794922 L 23 25 L 23 34 L 21 34 L 27.5 40.5 L 41 27 L 27 13 z " transform="matrix(1 0 0 1 384.57143 499.798)"/>
 </g>
</svg>
