<?xml version="1.0" encoding="UTF-8" standalone="no"?>

<!-- Created with Inkscape (http://www.inkscape.org/) -->
<svg width="48" version="1.1" xmlns="http://www.w3.org/2000/svg" height="48" viewBox="0 0 48 48" xmlns:xlink="http://www.w3.org/1999/xlink" xmlns:inkscape="http://www.inkscape.org/namespaces/inkscape">
 <defs id="defs5455">
  <linearGradient inkscape:collect="always" id="linearGradient4410">
   <stop style="stop-color:#383e51" id="stop4412"/>
   <stop offset="1" style="stop-color:#655c6f;stop-opacity:0" id="stop4414"/>
  </linearGradient>
  <linearGradient inkscape:collect="always" id="linearGradient4435">
   <stop style="stop-color:#c61423" id="stop4437"/>
   <stop offset="1" style="stop-color:#dc2b41" id="stop4439"/>
  </linearGradient>
  <linearGradient inkscape:collect="always" id="linearGradient4390">
   <stop style="stop-color:#f7abb2" id="stop4392"/>
   <stop offset="1" style="stop-color:#f9dce0" id="stop4394"/>
  </linearGradient>
  <linearGradient inkscape:collect="always" xlink:href="#linearGradient4390" id="linearGradient4341" y1="32" x1="24" y2="16" x2="24.00004" gradientUnits="userSpaceOnUse" gradientTransform="matrix(1 0 0 1 384.57143 504.79802)"/>
  <linearGradient inkscape:collect="always" xlink:href="#linearGradient4410" id="linearGradient4357" y1="17" x1="18" y2="32" x2="33" gradientUnits="userSpaceOnUse" gradientTransform="matrix(1 0 0 1 0 5)"/>
  <linearGradient inkscape:collect="always" id="linearGradient4220" xlink:href="#linearGradient4435" y1="543.79797" y2="509.798" gradientUnits="userSpaceOnUse" x2="0" gradientTransform="matrix(-1 0 0 1 817.14287 0.000027)"/>
 </defs>
 <metadata id="metadata5458"/>
 <g inkscape:label="Capa 1" inkscape:groupmode="layer" id="layer1" transform="matrix(1 0 0 1 -384.57143 -499.798)">
  <path inkscape:connector-curvature="0" style="fill:#a8202e" id="rect4182" d="m 432.57143,503.79803 v 6 4 h -35 -13 v -4 h 17 l 6,-6 z"/>
  <path inkscape:connector-curvature="0" style="fill:url(#linearGradient4220)" id="rect4180" d="M 432.57143,513.79803 H 384.57144 V 543.798 h 47.99999 z"/>
  <rect width="47.999969" x="-432.57141" y="542.79797" height="1" style="fill:#a8202e" id="rect4396" transform="matrix(-1 0 0 1 0 0)"/>
  <path inkscape:connector-curvature="0" style="fill:#5f5f5f;fill-opacity:0.117647;fill-rule:evenodd" id="path4463" d="m 432.57143,503.79803 -4e-5,10 h -47.99996 v -4 h 23 z"/>
  <path inkscape:connector-curvature="0" style="fill:#ffffff;fill-opacity:0.058824;fill-rule:evenodd" id="path4465" d="m 432.5714,503.79803 -19.99996,1 -11,6 -17.00001,-1 h 17.00001 l 6,-6.00003 z"/>
  <path style="fill:url(#linearGradient4357);opacity:0.2;fill-rule:evenodd" id="path4343" d="M 30 21 L 21 24 L 20 29 L 16 35 L 25 44 L 29 44 L 48 44 L 48 39 L 41 32 L 30 21 z " transform="matrix(1 0 0 1 384.57143 499.798)"/>
  <path inkscape:connector-curvature="0" style="fill:url(#linearGradient4341);fill-rule:evenodd" id="path4334" d="m 403.57143,520.79802 -3,14 h 3 l 1.30078,-6 h 7.36524 l -6.66602,6 2,2 c 3,-2 6,1.6 9,-1.4 l -0.59961,-2.40078 -0.90039,0.70117 c -1.359,0.78068 -2.47531,-0.0984 -4.06055,-0.33984 l 4.56055,-4.56055 1,-3 h -11 l 0.5,-2 h 7.5 l 1,-3 z"/>
  <path inkscape:connector-curvature="0" style="fill:#bc2233" id="rect4457" d="m 384.57145,513.79803 h 47.99996 v 1 h -47.99996 z"/>
 </g>
</svg>
