<?xml version="1.0" encoding="UTF-8" standalone="no"?>

<!-- Created with Inkscape (http://www.inkscape.org/) -->
<svg width="48" version="1.1" xmlns="http://www.w3.org/2000/svg" height="48" xmlns:xlink="http://www.w3.org/1999/xlink" xmlns:inkscape="http://www.inkscape.org/namespaces/inkscape">
 <defs id="defs5455">
  <linearGradient inkscape:collect="always" id="linearGradient4328">
   <stop style="stop-color:#bec900" id="stop4330"/>
   <stop offset="0.312499" style="stop-color:#9ec80a" id="stop4332"/>
   <stop offset="0.562499" style="stop-color:#71b93d" id="stop4334"/>
   <stop offset="0.75" style="stop-color:#35a48f" id="stop4336"/>
   <stop offset="1" style="stop-color:#018fca" id="stop4338"/>
  </linearGradient>
  <linearGradient inkscape:collect="always" id="linearGradient4316">
   <stop style="stop-color:#c1cc00" id="stop4318"/>
   <stop offset="0.312499" style="stop-color:#dfcd00" id="stop4320"/>
   <stop offset="0.562499" style="stop-color:#f0cc00" id="stop4322"/>
   <stop offset="0.75" style="stop-color:#fd8c08" id="stop4324"/>
   <stop offset="1" style="stop-color:#f25c13" id="stop4326"/>
  </linearGradient>
  <linearGradient inkscape:collect="always" id="linearGradient4300">
   <stop style="stop-color:#e51561" id="stop4302"/>
   <stop offset="0.312499" style="stop-color:#e4156c" id="stop4304"/>
   <stop offset="0.562499" style="stop-color:#e71e2c" id="stop4306"/>
   <stop offset="0.75" style="stop-color:#e8301e" id="stop4308"/>
   <stop offset="1" style="stop-color:#e6320e" id="stop4310"/>
  </linearGradient>
  <linearGradient inkscape:collect="always" id="linearGradient4288">
   <stop style="stop-color:#e81877" id="stop4290"/>
   <stop offset="0.312499" style="stop-color:#dd1d8c" id="stop4294"/>
   <stop offset="0.562499" style="stop-color:#6d57b1" id="stop4296"/>
   <stop offset="0.75" style="stop-color:#2a78c1" id="stop4298"/>
   <stop offset="1" style="stop-color:#018dcb" id="stop4292"/>
  </linearGradient>
  <linearGradient inkscape:collect="always" xlink:href="#linearGradient4159" id="linearGradient4174" y1="543.79797" y2="503.798" x2="0" gradientUnits="userSpaceOnUse"/>
  <linearGradient inkscape:collect="always" id="linearGradient4271">
   <stop style="stop-color:#2a2c2f" id="stop4273"/>
   <stop offset="1" style="stop-color:#424649" id="stop4275"/>
  </linearGradient>
  <linearGradient inkscape:collect="always" xlink:href="#linearGradient4288" id="linearGradient4274" y1="23.999973" x1="8" y2="8" x2="24.00001" gradientUnits="userSpaceOnUse"/>
  <linearGradient inkscape:collect="always" xlink:href="#linearGradient4300" id="linearGradient4278" y1="24.00003" x1="8" y2="8" gradientUnits="userSpaceOnUse" x2="24.00001" gradientTransform="matrix(1 0 0 -1 384.57143 547.798)"/>
  <linearGradient inkscape:collect="always" xlink:href="#linearGradient4328" id="linearGradient4284" y1="23.999973" x1="8" y2="8" gradientUnits="userSpaceOnUse" x2="24.00001" gradientTransform="matrix(-1 0 0 1 432.57143 499.798)"/>
  <linearGradient inkscape:collect="always" xlink:href="#linearGradient4316" id="linearGradient4286" y1="24" x1="8" y2="8" gradientUnits="userSpaceOnUse" x2="24.00001" gradientTransform="matrix(-1 0 0 -1 432.57143 547.798)"/>
  <linearGradient inkscape:collect="always" xlink:href="#linearGradient4271" id="linearGradient4314" y1="543.79797" y2="503.798" gradientUnits="userSpaceOnUse" x2="0" gradientTransform="matrix(0.34999981 0 0 0.34999981 265.57152 -707.12715)"/>
  <filter width="1.12" x="-0.06" y="-0.06" inkscape:collect="always" height="1.12" style="color-interpolation-filters:sRGB" id="filter4390">
   <feGaussianBlur inkscape:collect="always" stdDeviation="0.4" id="feGaussianBlur4392"/>
  </filter>
  <clipPath id="clipPath4528">
   <rect width="31.999989" x="8.00001" y="8" rx="15.999986" height="31.999971" style="fill:url(#linearGradient4532)" id="rect4530"/>
  </clipPath>
  <linearGradient inkscape:collect="always" xlink:href="#linearGradient4271" id="linearGradient4532" y1="543.79797" y2="503.798" gradientUnits="userSpaceOnUse" x2="0" gradientTransform="matrix(0.79999996 0 0 0.79999996 -302.85712 -395.03837)"/>
  <clipPath id="clipPath4534">
   <rect width="31.999989" x="8.00001" y="8" rx="15.999986" height="31.999971" style="fill:url(#linearGradient4532)" id="rect4536"/>
  </clipPath>
  <clipPath id="clipPath4544">
   <rect width="31.999989" x="392.57144" y="507.798" rx="15.999986" height="31.999971" style="fill:url(#linearGradient4548)" id="rect4546"/>
  </clipPath>
  <linearGradient inkscape:collect="always" xlink:href="#linearGradient4271" id="linearGradient4548" y1="543.79797" y2="503.798" gradientUnits="userSpaceOnUse" x2="0" gradientTransform="matrix(0.79999995 0 0 0.79999995 81.71431 104.75963)"/>
  <clipPath id="clipPath4550">
   <rect width="31.999989" x="392.57144" y="507.798" rx="15.999986" height="31.999971" style="fill:url(#linearGradient4548)" id="rect4552"/>
  </clipPath>
  <clipPath id="clipPath4562">
   <rect width="31.999989" x="392.57144" y="507.798" rx="15.999986" height="31.999971" style="fill:url(#linearGradient4548)" id="rect4564"/>
  </clipPath>
  <clipPath id="clipPath4568">
   <rect width="31.999989" x="392.57144" y="507.798" rx="15.999986" height="31.999971" style="fill:url(#linearGradient4548)" id="rect4570"/>
  </clipPath>
  <clipPath id="clipPath4578">
   <rect width="31.999989" x="392.57144" y="507.798" rx="15.999986" height="31.999971" style="fill:url(#linearGradient4548)" id="rect4580"/>
  </clipPath>
  <clipPath id="clipPath4584">
   <rect width="31.999989" x="392.57144" y="507.798" rx="15.999986" height="31.999971" style="fill:url(#linearGradient4548)" id="rect4586"/>
  </clipPath>
  <linearGradient inkscape:collect="always" id="linearGradient4159">
   <stop style="stop-color:#363a3e" id="stop4161"/>
   <stop offset="1" style="stop-color:#44484c" id="stop4163"/>
  </linearGradient>
  <linearGradient inkscape:collect="always" id="linearGradient4303">
   <stop style="stop-color:#989a9b" id="stop4305"/>
   <stop offset="1" style="stop-color:#f6f6f7" id="stop4307"/>
  </linearGradient>
  <linearGradient inkscape:collect="always" xlink:href="#linearGradient4303" id="linearGradient4917" y1="524.79797" y2="522.79797" x2="0" gradientUnits="userSpaceOnUse" gradientTransform="matrix(2 0 0 2 -408.57143 -523.798)"/>
  <linearGradient inkscape:collect="always" id="linearGradient4372" xlink:href="#linearGradient4227" y1="520.79797" y2="535.79797" x1="401.5715" gradientUnits="userSpaceOnUse" x2="416.57147" gradientTransform="matrix(1 0 0 1 -0.00002 0)"/>
  <linearGradient inkscape:collect="always" id="linearGradient4227">
   <stop style="stop-color:#292c2f" id="stop4229"/>
   <stop offset="1" style="stop-opacity:0" id="stop4231"/>
  </linearGradient>
  <clipPath id="clipPath4528-1">
   <rect width="31.999989" x="8.00001" y="8" rx="15.999986" height="31.999971" style="fill:url(#linearGradient4532)" id="rect4530-7"/>
  </clipPath>
  <clipPath id="clipPath4534-1">
   <rect width="31.999989" x="8.00001" y="8" rx="15.999986" height="31.999971" style="fill:url(#linearGradient4532)" id="rect4536-8"/>
  </clipPath>
  <clipPath id="clipPath4544-1">
   <rect width="31.999989" x="392.57144" y="507.798" rx="15.999986" height="31.999971" style="fill:url(#linearGradient4548)" id="rect4546-1"/>
  </clipPath>
  <clipPath id="clipPath4550-4">
   <rect width="31.999989" x="392.57144" y="507.798" rx="15.999986" height="31.999971" style="fill:url(#linearGradient4548)" id="rect4552-1"/>
  </clipPath>
  <clipPath id="clipPath4562-8">
   <rect width="31.999989" x="392.57144" y="507.798" rx="15.999986" height="31.999971" style="fill:url(#linearGradient4548)" id="rect4564-8"/>
  </clipPath>
  <clipPath id="clipPath4568-4">
   <rect width="31.999989" x="392.57144" y="507.798" rx="15.999986" height="31.999971" style="fill:url(#linearGradient4548)" id="rect4570-1"/>
  </clipPath>
  <clipPath id="clipPath4578-8">
   <rect width="31.999989" x="392.57144" y="507.798" rx="15.999986" height="31.999971" style="fill:url(#linearGradient4548)" id="rect4580-7"/>
  </clipPath>
  <clipPath id="clipPath4584-9">
   <rect width="31.999989" x="392.57144" y="507.798" rx="15.999986" height="31.999971" style="fill:url(#linearGradient4548)" id="rect4586-2"/>
  </clipPath>
 </defs>
 <metadata id="metadata5458"/>
 <g inkscape:label="Capa 1" inkscape:groupmode="layer" id="layer1" transform="matrix(1 0 0 1 -384.57143 -499.798)">
  <rect width="39.999989" x="388.57144" y="503.798" rx="19.999985" height="39.999969" style="stroke-opacity:0.550265;fill:url(#linearGradient4174);stroke-width:2.8" id="rect4166"/>
  <g id="g4612" transform="matrix(0.96592583 0.25881905 -0.25881905 0.96592583 149.49062 -87.89808)">
   <path inkscape:connector-curvature="0" style="clip-path:url(#clipPath4534);stroke-opacity:0.550265;fill:url(#linearGradient4274);stroke-width:2.8" id="rect4263" d="M 24,8 C 15.136008,8 8,15.136008 8,24 l 16,0 0,-16 z" transform="matrix(1 0 0 1 384.57143 499.798)"/>
   <path inkscape:connector-curvature="0" style="clip-path:url(#clipPath4584);stroke-opacity:0.550265;fill:url(#linearGradient4278);stroke-width:2.8" id="path4276" d="m 408.57143,539.798 c -8.86399,0 -16,-7.13601 -16,-16 l 16,0 0,16 z"/>
   <path inkscape:connector-curvature="0" style="clip-path:url(#clipPath4550);stroke-opacity:0.550265;fill:url(#linearGradient4284);stroke-width:2.8" id="path4280" d="m 408.57143,507.798 c 8.86399,0 16,7.13601 16,16 l -16,0 0,-16 z"/>
   <path inkscape:connector-curvature="0" style="clip-path:url(#clipPath4568);stroke-opacity:0.550265;fill:url(#linearGradient4286);stroke-width:2.8" id="path4282" d="m 408.57143,539.798 c 8.86399,0 16,-7.13601 16,-16 l -16,0 0,16 z"/>
  </g>
  <g style="opacity:0.7" id="g4590" transform="matrix(1 0 0 1 -0.000006 0.00001)">
   <path inkscape:connector-curvature="0" style="clip-path:url(#clipPath4528);stroke-opacity:0.550265;fill:url(#linearGradient4274);opacity:1;stroke-width:2.8;filter:url(#filter4390)" id="path4340" d="M 24,8 C 15.136008,8 8,15.136008 8,24 l 16,0 0,-16 z" transform="matrix(1 0 0 1 384.57143 499.798)"/>
   <path inkscape:connector-curvature="0" style="clip-path:url(#clipPath4578);stroke-opacity:0.550265;fill:url(#linearGradient4278);opacity:1;stroke-width:2.8;filter:url(#filter4390)" id="path4394" d="m 408.57143,539.798 c -8.86399,0 -16,-7.13601 -16,-16 l 16,0 0,16 z"/>
   <path inkscape:connector-curvature="0" style="clip-path:url(#clipPath4562);stroke-opacity:0.550265;fill:url(#linearGradient4286);opacity:1;stroke-width:2.8;filter:url(#filter4390)" id="path4416" d="m 408.57143,539.798 c 8.86399,0 16,-7.13601 16,-16 l -16,0 0,16 z"/>
   <path inkscape:connector-curvature="0" style="clip-path:url(#clipPath4544);stroke-opacity:0.550265;fill:url(#linearGradient4284);opacity:1;stroke-width:2.8;filter:url(#filter4390)" id="path4486" d="m 408.57143,507.798 c 8.86399,0 16,7.13601 16,16 l -16,0 0,-16 z"/>
  </g>
  <path inkscape:connector-curvature="0" style="clip-path:url(#clipPath4528);stroke-opacity:0.550265;fill:url(#linearGradient4274);opacity:0.35;stroke-width:2.8" id="path4320" d="M 24,8 C 15.136008,8 8,15.136008 8,24 l 16,0 0,-16 z" transform="matrix(0.70710678 0.70710678 -0.70710678 0.70710678 408.57142 489.85688)"/>
  <path inkscape:connector-curvature="0" style="clip-path:url(#clipPath4578);stroke-opacity:0.550265;fill:url(#linearGradient4278);opacity:0.35;stroke-width:2.8" id="path4322" d="m 408.57143,539.798 c -8.86399,0 -16,-7.13601 -16,-16 l 16,0 0,16 z" transform="matrix(0.70710678 0.70710678 -0.70710678 0.70710678 490.04891 -135.48674)"/>
  <path inkscape:connector-curvature="0" style="clip-path:url(#clipPath4562);stroke-opacity:0.550265;fill:url(#linearGradient4286);opacity:0.35;stroke-width:2.8" id="path4324" d="m 408.57143,539.798 c 8.86399,0 16,-7.13601 16,-16 l -16,0 0,16 z" transform="matrix(0.70710678 0.70710678 -0.70710678 0.70710678 490.04891 -135.48674)"/>
  <path inkscape:connector-curvature="0" style="clip-path:url(#clipPath4544);stroke-opacity:0.550265;fill:url(#linearGradient4284);opacity:0.35;stroke-width:2.8" id="path4326" d="m 408.57143,507.798 c 8.86399,0 16,7.13601 16,16 l -16,0 0,-16 z" transform="matrix(0.70710678 0.70710678 -0.70710678 0.70710678 490.04891 -135.48674)"/>
  <path inkscape:connector-curvature="0" style="fill:#2a2e32" id="rect4409-6" d="m 388.58313,523.298 c -0.004,0.16655 -0.0117,0.33244 -0.0117,0.5 0,11.08 8.92001,20 20,20 11.08,0 20,-8.92 20,-20 0,-0.16756 -0.008,-0.33345 -0.0117,-0.5 -0.26467,10.84613 -9.07616,19.5 -19.98827,19.5 -10.91213,0 -19.72362,-8.65387 -19.98828,-19.5 z"/>
  <path inkscape:connector-curvature="0" style="fill:url(#linearGradient4372);opacity:0.2;fill-rule:evenodd" id="path4364" d="m 414.57141,519.798 -11,9 13.22852,13.22852 c 4.43894,-1.99826 8.00174,-5.56106 10,-10 L 414.57141,519.798 Z"/>
  <g id="g4594" transform="matrix(0.25881905 0.96592583 -0.96592583 0.25881905 808.77538 -6.420592)">
   <path inkscape:connector-curvature="0" style="clip-path:url(#clipPath4528-1);stroke-opacity:0.550265;fill:url(#linearGradient4274);opacity:0.3;stroke-width:2.8" id="path4340-7" d="M 24,8 C 15.136008,8 8,15.136008 8,24 l 16,0 0,-16 z" transform="matrix(1 0 0 1 384.57142 499.79801)"/>
   <path inkscape:connector-curvature="0" style="clip-path:url(#clipPath4578-8);stroke-opacity:0.550265;fill:url(#linearGradient4278);opacity:0.3;stroke-width:2.8" id="path4394-4" d="m 408.57143,539.798 c -8.86399,0 -16,-7.13601 -16,-16 l 16,0 0,16 z" transform="matrix(1 0 0 1 -0.000006 0.00001)"/>
   <path inkscape:connector-curvature="0" style="clip-path:url(#clipPath4562-8);stroke-opacity:0.550265;fill:url(#linearGradient4286);opacity:0.3;stroke-width:2.8" id="path4416-6" d="m 408.57143,539.798 c 8.86399,0 16,-7.13601 16,-16 l -16,0 0,16 z" transform="matrix(1 0 0 1 -0.000006 0.00001)"/>
   <path inkscape:connector-curvature="0" style="clip-path:url(#clipPath4544-1);stroke-opacity:0.550265;fill:url(#linearGradient4284);opacity:0.3;stroke-width:2.8" id="path4486-5" d="m 408.57143,507.798 c 8.86399,0 16,7.13601 16,16 l -16,0 0,-16 z" transform="matrix(1 0 0 1 -0.000006 0.00001)"/>
  </g>
  <rect width="13.999989" x="401.57144" y="-530.79797" rx="6.999991" height="13.999983" style="stroke-opacity:0.550265;fill:url(#linearGradient4314);stroke-width:2.8" id="rect4312" transform="matrix(1 0 0 -1 0 0)"/>
  <path inkscape:connector-curvature="0" style="fill:url(#linearGradient4917);fill-rule:evenodd" id="path4847" d="m 406.57143,525.798 2.00002,-4 1.99998,4 z"/>
 </g>
</svg>
