<?xml version="1.0" encoding="UTF-8" standalone="no"?>

<!-- Created with Inkscape (http://www.inkscape.org/) -->
<svg width="48" version="1.1" xmlns="http://www.w3.org/2000/svg" height="48" xmlns:xlink="http://www.w3.org/1999/xlink" xmlns:inkscape="http://www.inkscape.org/namespaces/inkscape">
 <defs id="defs5455">
  <linearGradient inkscape:collect="always" xlink:href="#linearGradient4303-6" id="linearGradient4165" y1="543.79797" y2="503.798" x2="0" gradientUnits="userSpaceOnUse" gradientTransform="matrix(1 0 0 1 -0.000017 0)"/>
  <linearGradient inkscape:collect="always" id="linearGradient4303-6">
   <stop style="stop-color:#c6cdd1" id="stop4305-7"/>
   <stop offset="1" style="stop-color:#e0e5e7" id="stop4307-0"/>
  </linearGradient>
  <linearGradient inkscape:collect="always" id="linearGradient4159">
   <stop style="stop-color:#2a2c2f" id="stop4161"/>
   <stop offset="1" style="stop-color:#424649" id="stop4163"/>
  </linearGradient>
  <linearGradient inkscape:collect="always" xlink:href="#linearGradient4159" id="linearGradient4392" y1="541.79797" y2="509.798" x2="0" gradientUnits="userSpaceOnUse"/>
  <linearGradient inkscape:collect="always" xlink:href="#linearGradient4227" id="linearGradient4435" y1="20" x1="20" y2="36" x2="36" gradientUnits="userSpaceOnUse" gradientTransform="matrix(1 0 0 1 0 1.99996)"/>
  <linearGradient inkscape:collect="always" id="linearGradient4227">
   <stop style="stop-color:#292c2f" id="stop4229"/>
   <stop offset="1" style="stop-opacity:0" id="stop4231"/>
  </linearGradient>
 </defs>
 <metadata id="metadata5458"/>
 <g inkscape:label="Capa 1" inkscape:groupmode="layer" id="layer1" transform="matrix(1 0 0 1 -384.57143 -499.798)">
  <rect width="40.00001" x="388.57141" y="503.798" rx="0" height="39.999969" style="fill:url(#linearGradient4165)" id="rect4146"/>
  <rect width="39.999969" x="388.57147" y="542.79797" height="0.999974" style="fill:#99a1a7" id="rect4167"/>
  <rect width="40" x="388.57144" y="503.798" height="4.999996" style="fill:#566069;stroke-width:0.1" id="rect4302"/>
  <rect width="2.999988" x="424.57144" y="504.798" rx="1.499994" height="2.999988" style="fill:#eff0f1;stroke-width:0.1" id="rect4306"/>
  <rect width="40.00001" x="388.57144" y="508.798" rx="0" height="1" style="fill:#3daee9;stroke-width:0.1" id="rect4310"/>
  <rect width="38" x="389.57144" y="510.798" height="30.999973" style="fill:url(#linearGradient4392);stroke-width:0.1" id="rect4315"/>
  <rect width="0.999988" x="398.57144" y="515.79828" height="8.00003" style="fill:#999999;stroke-width:0.1" id="rect4394"/>
  <rect width="1" x="400.57144" y="515.79828" height="8.00001" style="fill:#84dd84;stroke-width:0.1" id="rect4396"/>
  <rect width="1" x="402.57144" y="515.79828" height="8.00001" style="fill:#84dd84;stroke-width:0.1" id="rect4398"/>
  <rect width="0.999988" x="-418.5715" y="515.79828" height="8.00003" style="fill:#999999;stroke-width:0.1" id="rect4400" transform="matrix(-1 0 0 1 0 0)"/>
  <rect width="1" x="-416.5715" y="515.79828" height="8.00001" style="fill:#84dd84;stroke-width:0.1" id="rect4402" transform="matrix(-1 0 0 1 0 0)"/>
  <rect width="1" x="-414.5715" y="515.79828" height="8.00001" style="fill:#84dd84;stroke-width:0.1" id="rect4404" transform="matrix(-1 0 0 1 0 0)"/>
  <rect width="0.999988" x="398.57144" y="527.79828" height="8.00003" style="fill:#999999;stroke-width:0.1" id="rect4406"/>
  <rect width="1" x="400.57144" y="527.79828" height="8.00001" style="fill:#84dd84;stroke-width:0.1" id="rect4408"/>
  <rect width="1" x="402.57144" y="527.79828" height="8.00001" style="fill:#84dd84;stroke-width:0.1" id="rect4410"/>
  <rect width="0.999988" x="-418.5715" y="527.79828" height="8.00003" style="fill:#999999;stroke-width:0.1" id="rect4412" transform="matrix(-1 0 0 1 0 0)"/>
  <rect width="1" x="-416.5715" y="527.79828" height="8.00001" style="fill:#84dd84;stroke-width:0.1" id="rect4414" transform="matrix(-1 0 0 1 0 0)"/>
  <rect width="1" x="-414.5715" y="527.79828" height="8.00001" style="fill:#84dd84;stroke-width:0.1" id="rect4416" transform="matrix(-1 0 0 1 0 0)"/>
  <rect width="1" x="404.57144" y="523.79828" height="4" style="fill:#84dd84;stroke-width:0.1" id="rect4418"/>
  <rect width="1" x="408.57144" y="523.79828" height="4" style="fill:#84dd84;stroke-width:0.1" id="rect4420"/>
  <rect width="1" x="412.57144" y="523.79828" height="4" style="fill:#84dd84;stroke-width:0.1" id="rect4422"/>
  <path style="fill:url(#linearGradient4435);opacity:0.2;fill-rule:evenodd" id="path4424" d="M 34 16 L 34 36 L 14 36 L 22 44 L 44 44 L 44 36 L 44 26 L 34 16 z " transform="matrix(1 0 0 1 384.57143 499.798)"/>
 </g>
</svg>
