<?xml version="1.0" encoding="UTF-8" standalone="no"?>

<!-- Created with Inkscape (http://www.inkscape.org/) -->
<svg width="48" version="1.1" xmlns="http://www.w3.org/2000/svg" height="48" xmlns:xlink="http://www.w3.org/1999/xlink" xmlns:inkscape="http://www.inkscape.org/namespaces/inkscape">
 <defs id="defs3199">
  <linearGradient inkscape:collect="always" xlink:href="#linearGradient4251-0" id="linearGradient4607" y1="44" y2="4" gradientUnits="userSpaceOnUse" x2="0" gradientTransform="matrix(1 0 0 1 0 1004.3622)"/>
  <linearGradient inkscape:collect="always" id="linearGradient4251-0">
   <stop style="stop-color:#63984b" id="stop4253-4"/>
   <stop offset="1" style="stop-color:#8fc278" id="stop4255-2"/>
  </linearGradient>
  <linearGradient inkscape:collect="always" xlink:href="#linearGradient7669-8" id="linearGradient4595" y1="11" x1="17" y2="41" gradientUnits="userSpaceOnUse" x2="44" gradientTransform="matrix(1 0 0 1 0 1004.3622)"/>
  <linearGradient inkscape:collect="always" id="linearGradient7669-8">
   <stop id="stop7671-9"/>
   <stop offset="1" style="stop-opacity:0" id="stop7673-2"/>
  </linearGradient>
  <linearGradient inkscape:collect="always" id="linearGradient4149" xlink:href="#linearGradient4143" y1="545.79797" y2="517.79797" gradientUnits="userSpaceOnUse" x2="0" gradientTransform="matrix(0.92857108 0 0 0.92857057 28.612354 37.986142)"/>
  <linearGradient inkscape:collect="always" id="linearGradient4143">
   <stop style="stop-color:#197cf1" id="stop4145"/>
   <stop offset="1" style="stop-color:#20bcfa" id="stop4147"/>
  </linearGradient>
  <linearGradient inkscape:collect="always" id="linearGradient4227">
   <stop style="stop-color:#292c2f" id="stop4229"/>
   <stop offset="1" style="stop-opacity:0" id="stop4231"/>
  </linearGradient>
  <linearGradient inkscape:collect="always" id="linearGradient4290">
   <stop style="stop-color:#7cbaf8" id="stop4292"/>
   <stop offset="1" style="stop-color:#f4fcff" id="stop4294"/>
  </linearGradient>
  <linearGradient inkscape:collect="always" id="linearGradient3077" xlink:href="#linearGradient4290" y1="29.999973" y2="2" x2="0" gradientUnits="userSpaceOnUse" gradientTransform="matrix(1.3793103 0 0 1.3793103 1.241379 1005.6035)"/>
  <linearGradient inkscape:collect="always" id="linearGradient3080" xlink:href="#linearGradient4227" y1="7.800058" y2="25.20006" x1="8.525001" x2="25.2" gradientUnits="userSpaceOnUse" gradientTransform="matrix(1.3793103 0 0 1.3793103 -104.75862 992.6035)"/>
  <linearGradient inkscape:collect="always" id="linearGradient3083" xlink:href="#linearGradient4143" y1="545.79797" y2="517.79797" x2="0" gradientUnits="userSpaceOnUse" gradientTransform="matrix(1.2807877 0 0 1.280787 -450.11598 346.31133)"/>
  <linearGradient inkscape:collect="always" id="linearGradient3870" xlink:href="#linearGradient4290" y1="29.999973" y2="2" x2="0" gradientUnits="userSpaceOnUse" gradientTransform="matrix(1.3793103 0 0 1.3793103 -18.758621 1005.6035)"/>
  <linearGradient inkscape:collect="always" xlink:href="#linearGradient4290" id="linearGradient4295" x1="-50" x2="-22.14844" gradientUnits="userSpaceOnUse"/>
  <linearGradient inkscape:collect="always" xlink:href="#linearGradient4290" id="linearGradient4297" y1="1040.3622" y2="1014.3622" gradientUnits="userSpaceOnUse" x2="0" gradientTransform="matrix(1 0 0 1 -0.148438 0)"/>
  <linearGradient inkscape:collect="always" xlink:href="#linearGradient4143" id="linearGradient4384" y1="1043.3622" y2="1012.3622" x2="0" gradientUnits="userSpaceOnUse" gradientTransform="matrix(1 0 0 1 60 0)"/>
  <linearGradient inkscape:collect="always" xlink:href="#linearGradient4290" id="linearGradient4410" y1="37" y2="10" x2="0" gradientUnits="userSpaceOnUse" gradientTransform="matrix(1 0 0 1 60 1004.3622)"/>
 </defs>
 <metadata id="metadata3202"/>
 <g inkscape:label="Layer 1" inkscape:groupmode="layer" id="layer1" transform="matrix(1 0 0 1 0 -1004.3622)">
  <path inkscape:connector-curvature="0" style="fill:#dce269;fill-rule:evenodd" id="rect4237" d="m 4,1008.3622 0,9 3,2 -3,2 0,27 40,0 0,-40 -40,0 z"/>
  <path inkscape:connector-curvature="0" style="fill:url(#linearGradient4607);fill-rule:evenodd" id="rect4229" d="m 4,1008.3622 0,8 3,2 -3,2 0,27 40,0 0,-39 -40,0 z"/>
  <path inkscape:connector-curvature="0" style="color:#000000" id="path4303" d="m 9,1044.3622 0,1 1,0 0,-1 -1,0 z m 1,1 0,1 1,0 0,-1 -1,0 z m 1,0 1,0 0,-1 -1,0 0,1 z m 1,0 0,1 1,0 0,-1 -1,0 z m 1,0 1,0 0,-1 -1,0 0,1 z m 1,0 0,1 1,0 0,-1 -1,0 z m 1,0 1,0 0,-1 -1,0 0,1 z m 1,0 0,1 1,0 0,-1 -1,0 z m 1,0 1,0 0,-1 -1,0 0,1 z m 1,0 0,1 1,0 0,-1 -1,0 z m 1,0 1,0 0,-1 -1,0 0,1 z m 1,0 0,1 1,0 0,-1 -1,0 z m 1,0 1,0 0,-1 -1,0 0,1 z m 1,0 0,1 1,0 0,-1 -1,0 z m 1,0 1,0 0,-1 -1,0 0,1 z m 1,0 0,1 1,0 0,-1 -1,0 z"/>
  <path inkscape:connector-curvature="0" style="color:#000000" id="path4313" d="m 35,1044.3622 0,1 1,0 0,-1 -1,0 z m 1,1 0,1 1,0 0,-1 -1,0 z m 1,0 1,0 0,-1 -1,0 0,1 z m 1,0 0,1 1,0 0,-1 -1,0 z m 1,0 1,0 0,-1 -1,0 0,1 z m -4,0 -1,0 0,1 1,0 0,-1 z"/>
  <path inkscape:connector-curvature="0" style="fill:#e6ea97;fill-rule:evenodd" id="path4317" d="m 43,1044.3622 -2,2 2,0 0,-2 z"/>
  <path inkscape:connector-curvature="0" style="color:#000000" id="path4319" d="m 42,1013.3622 0,1 1,0 0,-1 -1,0 z m 0,1 -1,0 0,1 1,0 0,-1 z m 0,1 0,1 1,0 0,-1 -1,0 z m 0,1 -1,0 0,1 1,0 0,-1 z m 0,1 0,1 1,0 0,-1 -1,0 z m 0,1 -1,0 0,1 1,0 0,-1 z m 0,1 0,1 1,0 0,-1 -1,0 z m 0,1 -1,0 0,1 1,0 0,-1 z m 0,1 0,1 1,0 0,-1 -1,0 z m 0,1 -1,0 0,1 1,0 0,-1 z m 0,1 0,1 1,0 0,-1 -1,0 z m 0,1 -1,0 0,1 1,0 0,-1 z m 0,1 0,1 1,0 0,-1 -1,0 z m 0,1 -1,0 0,1 1,0 0,-1 z m 0,1 0,1 1,0 0,-1 -1,0 z m 0,1 -1,0 0,1 1,0 0,-1 z"/>
  <path inkscape:connector-curvature="0" style="fill:url(#linearGradient4595);opacity:0.2;fill-rule:evenodd" id="path7657" d="m 40,1012.3622 0,31 -32,0 4.58398,5 31.41602,0 1e-5,-32 z"/>
  <rect width="32" x="8.00001" y="1012.3622" height="30.999996" style="fill:url(#linearGradient4384);fill-rule:evenodd" id="rect4241"/>
  <rect width="32" x="8.00001" y="1042.3622" height="1.00003" style="fill:#1c5593;fill-rule:evenodd" id="rect4259"/>
  <path inkscape:connector-curvature="0" style="fill:url(#linearGradient3080);opacity:0.2;fill-rule:evenodd" id="path4184" d="m -80,1007.3622 -4,0 4,4 0,9 -4,0 5,5 11,0 0,-10 -12,-12 z" transform="matrix(1 0 0 1 106 16)"/>
  <g style="fill:url(#linearGradient4295)" id="g4284" transform="matrix(1 0 0 1 60.14844 0)">
   <path inkscape:connector-curvature="0" style="fill:url(#linearGradient4297);fill-rule:evenodd" id="path4273" d="m -38.148438,1019.3622 0,4 4,0 0,-4 -4,0 z"/>
   <path inkscape:connector-curvature="0" style="fill:url(#linearGradient4297);fill-rule:evenodd" id="rect4370-6" d="m -38.148438,1025.3622 0,11 4,0 0,-11 z"/>
  </g>
  <path inkscape:connector-curvature="0" style="fill:url(#linearGradient4410);stroke-linejoin:round;stroke-width:0.5" id="path4386" d="m 24,1014.3622 a 14,13.5 0 0 0 -14,13.5 14,13.5 0 0 0 14,13.5 14,13.5 0 0 0 14,-13.5 14,13.5 0 0 0 -14,-13.5 z m 0,1.9277 a 12,11.571428 0 0 1 12,11.5723 12,11.571428 0 0 1 -12,11.5723 12,11.571428 0 0 1 -12,-11.5723 12,11.571428 0 0 1 12,-11.5723 z"/>
 </g>
</svg>
