<?xml version="1.0" encoding="UTF-8" standalone="no"?>
<svg xmlns="http://www.w3.org/2000/svg" xmlns:xlink="http://www.w3.org/1999/xlink" width="48" version="1.1" height="48" viewBox="0 0 48 48">
 <defs id="0">
  <linearGradient id="2">
   <stop id="g" stop-color="#4d4d4d"/>
   <stop offset="1" id="h" stop-color="#31363b"/>
  </linearGradient>
  <linearGradient id="3">
   <stop id="i" stop-color="#c0392b"/>
   <stop offset="1" id="j" stop-color="#c0392b" stop-opacity="0"/>
  </linearGradient>
  <linearGradient id="4">
   <stop id="k" stop-color="#da4453"/>
   <stop offset="1" id="l" stop-color="#ff7336"/>
  </linearGradient>
  <linearGradient xlink:href="#4" id="5" y1="525.26" x1="395.91" y2="513.95" x2="425.21" gradientUnits="userSpaceOnUse" gradientTransform="translate(-384.57143,-499.798)"/>
  <linearGradient xlink:href="#3" id="6" y1="44.09" x1="26.362" y2="33.75" x2="44" gradientUnits="userSpaceOnUse"/>
  <linearGradient xlink:href="#2" id="7" y1="519.85" x1="388.57" y2="528.52" x2="398.82" gradientUnits="userSpaceOnUse"/>
  <linearGradient id="8">
   <stop id="m" stop-color="#c6cdd1"/>
   <stop offset="1" id="n" stop-color="#e0e5e7"/>
  </linearGradient>
  <linearGradient id="9">
   <stop id="o" stop-color="#faae2a"/>
   <stop offset="1" id="p" stop-color="#ffc35a"/>
  </linearGradient>
  <linearGradient xlink:href="#B" id="A" y1="509.8" x1="394.57" y2="537.95" x2="422.73" gradientUnits="userSpaceOnUse"/>
  <linearGradient id="B">
   <stop id="q" stop-color="#e5e7e8"/>
   <stop offset="1" id="r" stop-color="#dcdee0"/>
  </linearGradient>
  <linearGradient xlink:href="#D" id="C" x1="389.57" x2="427.57" gradientUnits="userSpaceOnUse" gradientTransform="matrix(0.70710678,0.70710678,-0.70710678,0.70710678,490.04891,-135.48675)"/>
  <linearGradient id="D">
   <stop id="s" stop-color="#fcfcfc"/>
   <stop offset="1" id="t" stop-color="#eff0f1"/>
  </linearGradient>
  <linearGradient xlink:href="#B" id="E" x1="389.57" gradientUnits="userSpaceOnUse" x2="427.57" gradientTransform="matrix(0.71936875,0.71936875,-0.71936875,0.71936875,491.45856,-146.91943)"/>
  <linearGradient xlink:href="#8" id="F" y1="551.8" y2="528.8" gradientUnits="userSpaceOnUse" x2="0" gradientTransform="matrix(0.49677392,0,0,0.76923273,194.57123,97.029229)"/>
  <linearGradient id="G" xlink:href="#J" y1="557.8" y2="505.8" gradientUnits="userSpaceOnUse" x2="0" gradientTransform="matrix(0.61141406,0,0,0.76923273,146.91733,114.72151)"/>
  <linearGradient xlink:href="#9" id="H" x1="398.57" x2="400.57" gradientUnits="userSpaceOnUse" gradientTransform="matrix(1.5625,0,0,1.5384655,-227.94644,-292.81645)"/>
  <linearGradient xlink:href="#9" id="I" x1="398.57" gradientUnits="userSpaceOnUse" x2="400.57" gradientTransform="matrix(1.5625,0,0,1.5384655,-218.57142,-292.81645)"/>
  <linearGradient id="J">
   <stop id="u" stop-color="#42a603"/>
   <stop offset="1" id="v" stop-color="#78da06"/>
  </linearGradient>
  <linearGradient id="K">
   <stop id="w" stop-color="#bcfd93"/>
   <stop offset="1" id="x" stop-color="#fafff5"/>
  </linearGradient>
  <linearGradient xlink:href="#K" id="L" x1="413.16" y1="538.13" x2="389.61" y2="526.08" gradientUnits="userSpaceOnUse" gradientTransform="matrix(0.84267581,0,0,0.84267581,62.335622,86.410664)"/>
  <linearGradient xlink:href="#N" id="M" y1="9" x1="9" y2="23" x2="23" gradientUnits="userSpaceOnUse" gradientTransform="matrix(1.4285731,0,0,1.4285663,1.32982,21.75487)"/>
  <linearGradient id="N">
   <stop id="y" stop-color="#383e51"/>
   <stop offset="1" id="z" stop-color="#655c6f" stop-opacity="0"/>
  </linearGradient>
 </defs>
 <g id="1" transform="matrix(1 0 0 1 -384.57143 -499.798)">
  <path id="O" d="m 408.57143,503.798 c -11.02818,0 -19.91322,8.83777 -19.99609,19.8457 l 1.12304,0.0234 4.6836,12.02148 10.16601,5.92188 11.40039,-0.70703 7.7793,-5.48047 3.62305,-12.01953 -2.1211,-8.66211 -6.18945,-7.63086 -1.5625,-1.15625 -0.26562,-0.18555 c -2.6158,-1.25083 -5.53747,-1.9707 -8.64063,-1.9707 z m 0,5 c 8.30999,0 15,6.69001 15,15 0,8.30999 -6.69001,15 -15,15 -8.30999,0 -15,-6.69001 -15,-15 0,-8.30999 6.69001,-15 15,-15 z" stroke-opacity="0.55" fill="url(#A)" stroke-width="8.587"/>
  <path id="P" d="m 408.57143,504.78042 c -4.85676,0 -9.71405,1.86053 -13.43555,5.58203 -7.443,7.443 -7.443,19.4281 0,26.8711 7.443,7.443 19.4281,7.443 26.8711,0 7.443,-7.443 7.443,-19.4281 0,-26.8711 -3.7215,-3.7215 -8.57879,-5.58203 -13.43555,-5.58203 z m 0,13.01758 c 1.53231,0 3.06414,0.58758 4.23828,1.76172 2.34828,2.34828 2.34828,6.12828 0,8.47656 -2.34828,2.34828 -6.12828,2.34828 -8.47656,0 -2.34827,-2.34828 -2.34827,-6.12828 0,-8.47656 1.17414,-1.17414 2.70596,-1.76172 4.23828,-1.76172 z" stroke-opacity="0.55" fill="url(#C)" stroke-width="8.587"/>
  <path id="Q" d="M 4.0117188,23.5 C 4.007647,23.666859 4,23.832126 4,24 c 0,11.07999 8.92001,20 20,20 11.07999,0 20,-8.92001 20,-20 0,-0.167874 -0.0076,-0.333141 -0.01172,-0.5 C 43.723609,34.346128 34.912116,43 24,43 13.087884,43 4.2763907,34.346128 4.0117188,23.5 Z" transform="matrix(1 0 0 1 384.57143 499.798)" stroke-opacity="0.55" fill="url(#6)" stroke-width="8.587"/>
  <path id="R" d="m 408.57143,516.798 c -1.78766,0 -3.57551,0.68489 -4.94531,2.05469 -2.73959,2.73959 -2.7396,7.15103 0,9.89062 2.73959,2.7396 7.15103,2.7396 9.89062,0 2.7396,-2.73959 2.7396,-7.15103 0,-9.89062 -1.3698,-1.3698 -3.15765,-2.05469 -4.94531,-2.05469 z m -0.002,3.95508 a 3.0025518,3.0025518 0 0 1 3.002,3.0039 3.0025518,3.0025518 0 0 1 -3.00195,3.00196 3.0025518,3.0025518 0 0 1 -3.00391,-3.00196 3.0025518,3.0025518 0 0 1 3.00391,-3.0039 z" opacity="0.4" stroke-opacity="0.55" fill="#f9f9f9" stroke-width="8.587"/>
  <path id="S" d="m 408.75893,512.798 a 11,11 0 0 0 -0.7793,0.0273 11,11 0 0 0 -1.08984,0.13281 11,11 0 0 0 -1.07422,0.24024 11,11 0 0 0 -1.04297,0.34765 11,11 0 0 0 -1.0039,0.44727 11,11 0 0 0 -0.95313,0.54883 11,11 0 0 0 -0.89453,0.63867 11,11 0 0 0 -0.82617,0.72656 11,11 0 0 0 -0.74805,0.80469 11,11 0 0 0 -0.66601,0.875 11,11 0 0 0 -0.57422,0.9375 11,11 0 0 0 -0.47852,0.99023 11,11 0 0 0 -0.37891,1.03321 11,11 0 0 0 -0.27148,1.06445 11,11 0 0 0 -0.16406,1.08594 11,11 0 0 0 -0.0547,1.09961 11,11 0 0 0 0.0273,0.7793 11,11 0 0 0 0.13281,1.08984 11,11 0 0 0 0.24219,1.07422 11,11 0 0 0 0.3457,1.04297 11,11 0 0 0 0.44727,1.0039 11,11 0 0 0 0.54883,0.95313 11,11 0 0 0 0.64062,0.89453 11,11 0 0 0 0.72461,0.82617 11,11 0 0 0 0.80469,0.74805 11,11 0 0 0 0.875,0.66601 11,11 0 0 0 0.9375,0.57422 11,11 0 0 0 0.99023,0.47852 11,11 0 0 0 1.03321,0.37891 11,11 0 0 0 1.06445,0.27148 11,11 0 0 0 1.08594,0.16406 11,11 0 0 0 1.09961,0.0547 11,11 0 0 0 0.7793,-0.0273 11,11 0 0 0 1.08984,-0.13281 11,11 0 0 0 1.07422,-0.24219 11,11 0 0 0 1.04297,-0.3457 11,11 0 0 0 1.0039,-0.44727 11,11 0 0 0 0.95313,-0.54883 11,11 0 0 0 0.89453,-0.64062 11,11 0 0 0 0.82617,-0.72461 11,11 0 0 0 0.74805,-0.80469 11,11 0 0 0 0.66602,-0.875 11,11 0 0 0 0.57421,-0.9375 11,11 0 0 0 0.47852,-0.99023 11,11 0 0 0 0.37891,-1.03321 11,11 0 0 0 0.27148,-1.06445 11,11 0 0 0 0.16406,-1.08594 11,11 0 0 0 0.0547,-1.09961 11,11 0 0 0 -0.0273,-0.7793 11,11 0 0 0 -0.13281,-1.08984 11,11 0 0 0 -0.24219,-1.07422 11,11 0 0 0 -0.3457,-1.04297 11,11 0 0 0 -0.44727,-1.0039 11,11 0 0 0 -0.54883,-0.95313 11,11 0 0 0 -0.63867,-0.89453 11,11 0 0 0 -0.72656,-0.82617 11,11 0 0 0 -0.80469,-0.74805 11,11 0 0 0 -0.875,-0.66602 11,11 0 0 0 -0.9375,-0.57421 11,11 0 0 0 -0.99024,-0.47852 11,11 0 0 0 -1.0332,-0.37891 11,11 0 0 0 -1.06445,-0.27148 11,11 0 0 0 -1.08594,-0.16406 11,11 0 0 0 -1.09961,-0.0547 z m -0.19141,4.99805 c 1.533,0 3.06754,0.5851 4.24219,1.75976 2.34932,2.34932 2.34932,6.13506 0,8.48438 -2.34932,2.34931 -6.13311,2.34931 -8.48242,0 -2.34932,-2.34932 -2.34932,-6.13506 0,-8.48438 1.17465,-1.17466 2.70723,-1.75976 4.24023,-1.75976 z" stroke-opacity="0.55" fill="url(#E)" stroke-width="8.587"/>
  <path id="T" d="m 408.56948,520.75308 c -1.65932,-7.5e-4 -3.00466,1.34458 -3.00391,3.0039 -5.3e-4,0.17279 0.0139,0.34531 0.043,0.51563 0.23662,-1.45172 1.49006,-2.5183 2.96094,-2.51953 1.46015,-3.9e-4 2.70889,1.04971 2.95898,2.48828 0.0274,-0.16003 0.0418,-0.32202 0.043,-0.48438 7.4e-4,-1.65856 -1.34339,-3.00357 -3.00195,-3.0039 z" opacity="0.1" stroke-opacity="0.55" stroke-width="8.587"/>
  <path id="U" d="m 412.57143,523.798 c 0,1.02172 -0.39109,2.04344 -1.17383,2.82617 -0.78273,0.78274 -1.80445,1.17383 -2.82617,1.17383 l 0,1 c 1.27739,0 2.55478,-0.48837 3.5332,-1.4668 0.97843,-0.97842 1.4668,-2.25581 1.4668,-3.5332 l -1,0 z" stroke-opacity="0.55" fill="#95a5a6" stroke-width="8.587"/>
  <rect width="25" x="388.57" y="521.8" rx="0" height="22" id="V" fill="url(#G)"/>
  <rect width="25" x="388.57" y="542.8" height="1" id="W" stroke-opacity="0.55" fill="#46943b" stroke-width="2.8" rx="0"/>
  <rect width="21" x="390.57" y="503.8" rx="0" height="18" id="X" fill="url(#F)"/>
  <rect width="6" x="393.57" y="506.8" height="6" id="Y" fill="#23262c"/>
  <rect width="6" x="402.57" y="506.8" height="6" id="Z" fill="#23262c"/>
  <rect width="4" x="394.57" y="506.8" height="6" id="a" fill="url(#H)"/>
  <rect width="4" x="403.57" y="506.8" height="6" id="b" fill="url(#I)"/>
  <path d="M 32.466797 5.8867188 C 33.092926 6.4617821 33.904327 7.2912082 34.40625 8.1875 C 35.28125 9.75 35.15625 12.46875 32.46875 12.96875 C 29.7812 13.46875 29.6785 12.55333 29.6875 11.46875 C 28.25882 11.66542 27.61988 14.8323 30.125 15.9375 C 32.25 16.875 33.03125 16.5 37.03125 16.25 C 41.03125 16 41.5 20.875 39.625 21.625 C 37.75 22.375 37.03404 21.03812 37.15625 20.3125 C 35.65346 20.89938 35.47 22.53672 36.21875 23.3125 C 42.0656 29.37047 39.2614 34.0515 37.65625 34.53125 C 35.66722 35.12574 34.26501 33.9473 35.28125 32.375 C 36.10938 31.09375 35.394662 28.980742 34.388672 28.232422 C 33.382682 27.484082 31.42917 27.663 30.59375 28.21875 C 31.79792 28.67401 33.5625 29.375 33.09375 30.9375 C 32.73177 32.1441 31.54583 32.904 30.0625 32.875 C 29.642704 32.866779 29.292156 32.812154 29 32.722656 L 29 43.349609 C 37.640431 41.137224 44 33.349072 44 24 C 44 15.954293 39.285313 9.0662023 32.466797 5.8867188 z " transform="translate(384.57143,499.798)" id="c" fill="url(#5)" fill-rule="evenodd"/>
  <g id="d">
   <path d="m 388.94448,519.85464 c -0.24091,1.27725 -0.37305,2.59401 -0.37305,3.94336 0,1.34935 0.13214,2.66611 0.37305,3.94336 l 11.62695,-1.94336 c 1.09512,-0.16848 2,-0.892 2,-2 0,-1.108 -0.90488,-1.83152 -2,-2 z" id="10" fill="url(#7)" stroke-linejoin="round" stroke-linecap="round" color="#000000" stroke-width="3"/>
   <circle id="11" r="1" cy="523.8" cx="400.57" fill="#27ae60" stroke-linejoin="round" stroke-linecap="round" color="#000000" stroke-width="3"/>
  </g>
  <path d="m 410.39115,533.88946 0.0873,-0.0163 c 0.0238,0.0188 0.0204,0.0572 0.0127,0.0914 -0.0162,0.0795 -0.0547,0.22381 -0.0812,0.29216 l -0.0223,0.0564 c -0.0306,0.0837 -0.0616,0.16318 -0.12045,0.21102 -0.16223,0.14778 -0.42192,0.26567 -0.82855,0.44336 -0.62875,0.27507 -1.64788,0.44849 -2.59442,0.44251 -0.33922,-0.007 -0.66727,-0.0453 -0.95515,-0.0778 -0.88153,-0.10079 -1.5188,-0.17254 -1.6513,0.62875 -0.16744,1.00462 0.77747,2.22452 0.78686,2.23554 l -8.3e-4,0.0334 -0.0306,0.007 c 0,0 -1.50608,-0.69366 -1.5429,-0.71417 l -0.0478,-0.0341 -0.0385,-0.0368 c -0.11362,-0.10925 -0.3417,-0.35443 -0.80472,-0.89099 -0.89783,-1.03793 -1.94858,-1.17462 -2.75842,-0.97729 -0.19734,0.047 -0.4485,0.19136 -0.61167,0.35367 -0.42286,0.41688 -0.37502,1.25663 -0.3511,1.56246 0.0282,0.34598 0.0461,0.3716 0.0538,0.3998 l -0.005,0.0351 -0.0299,0.004 -0.0171,-0.012 -1.23527,-0.60397 -0.047,-0.2016 c -0.0316,-0.13328 -0.0684,-0.28106 -0.1384,-0.46644 -0.44166,-1.16436 -1.43431,-2.03998 -2.52777,-2.22877 -0.73895,-0.1273 -2.08613,-0.14182 -2.79944,1.20451 -0.29813,0.56211 -0.28021,1.29421 0.0469,1.911 0.33317,0.63139 0.92859,1.03623 1.63337,1.11397 0.69879,0.0761 1.22416,-0.0855 1.51887,-0.46729 0.2973,-0.38528 0.35283,-0.9098 0.14183,-1.33693 -0.22639,-0.45865 -0.5681,-0.70221 -1.04308,-0.74228 -0.36135,-0.0325 -0.62959,0.1179 -0.72612,0.27166 -0.0282,0.0479 -0.0795,0.13677 -0.0803,0.26312 l 0,0.005 c 0,0.34427 0.31522,0.43824 0.37929,0.4426 0.0196,0 0.11448,-0.003 0.24006,-0.0341 l 0.0606,-0.0195 0.0419,-0.0145 0.0307,-0.005 c 0.22894,-0.0419 0.44934,0.0931 0.51341,0.31609 0.0111,0.0409 0.0171,0.082 0.0171,0.12293 0,0.14778 -0.0752,0.28532 -0.19989,0.36905 l 0.005,-0.002 -0.0136,0.007 -0.0204,0.0128 c -0.0658,0.0419 -0.12643,0.0649 -0.1905,0.0846 -0.17941,0.0588 -0.33829,0.0863 -0.49805,0.0863 -0.54501,-8.4e-4 -1.30445,-0.46985 -1.31471,-1.3506 -0.005,-0.49719 0.24432,-0.94995 0.68342,-1.24126 0.50572,-0.33401 1.37963,-0.44763 2.19034,0.0495 0.99779,0.61079 1.25833,1.80668 0.99779,2.6226 -0.37845,1.18146 -1.44287,1.81276 -2.84814,1.68718 -0.99522,-0.0888 -1.91954,-0.61421 -2.46968,-1.40527 -0.24433,-0.35033 -0.42543,-0.74066 -0.52282,-1.1302 -0.22467,-0.891 0.003,-1.83753 0.17171,-2.25697 0.53819,-1.33352 1.56844,-2.48079 3.05914,-3.4111 l 0.094,-0.059 c 3.17105,-1.94867 5.41521,-1.87008 7.05797,-1.81284 1.93756,0.0675 4.00395,0.73553 4.28928,0.83034 8.4e-4,-0.064 0.0121,-0.64155 0.0121,-0.64155 l 0.008,-0.0196 0.0223,-0.005 c 0.12993,0.0179 2.91391,0.43141 4.0869,1.11482 0.14515,0.0855 0.2169,0.17427 0.30669,0.26654 0.32377,0.33486 0.75261,1.72989 0.79788,2.01777 l -0.0171,0.0291 c -0.0171,0.005 -0.0572,0.0359 -0.11105,0.0717 -0.27337,0.19136 -0.91322,0.63899 -1.73331,0.56553 -0.73724,-0.0649 -1.69999,-0.48779 -2.86095,-1.25236 0.0513,0.12045 0.29302,0.69281 0.33402,0.78934 l 0.0155,0.0188 c 0.16838,0.0872 1.78124,0.90894 2.58169,0.89271 0.64557,-0.0128 1.33496,-0.32804 1.61089,-0.49377 z m -0.75004,-1.60858 c 0.0224,-0.65608 -0.49292,-1.20964 -1.14985,-1.2327 -0.31779,-0.0111 -0.62105,0.10164 -0.85333,0.31864 -0.23321,0.21697 -0.36648,0.5117 -0.37759,0.82948 -0.0214,0.65608 0.49292,1.20879 1.14891,1.23272 0.3195,0.0111 0.6219,-0.10166 0.85427,-0.3195 0.23236,-0.21698 0.36562,-0.51086 0.37759,-0.82864 z" id="e" fill="url(#L)"/>
  <path d="M 25.1875 31.410156 L 25.195312 31.449219 C 25.197122 31.45109 25.199348 31.453204 25.201172 31.455078 C 25.524942 31.789938 25.95473 33.184776 26 33.472656 L 25.982422 33.501953 C 25.965322 33.506953 25.924944 33.536466 25.871094 33.572266 C 25.789733 33.629219 25.66872 33.709156 25.527344 33.791016 L 25.519531 34.230469 C 25.618276 34.183187 25.758225 34.131041 25.820312 34.09375 L 25.820312 34.091797 L 25.90625 34.074219 C 25.93005 34.093019 25.927622 34.131816 25.919922 34.166016 C 25.903722 34.245516 25.864391 34.390634 25.837891 34.458984 L 25.816406 34.515625 C 25.785806 34.599325 25.754163 34.678723 25.695312 34.726562 C 25.533082 34.874343 25.273818 34.992232 24.867188 35.169922 C 24.238437 35.444992 23.219978 35.617308 22.273438 35.611328 C 21.934217 35.604328 21.606239 35.567656 21.318359 35.535156 C 20.436829 35.434366 19.798516 35.360819 19.666016 36.162109 C 19.498576 37.166729 20.443735 38.387417 20.453125 38.398438 L 20.453125 38.431641 L 20.421875 38.439453 C 20.421875 38.439453 18.915726 37.745119 18.878906 37.724609 L 18.832031 37.691406 L 18.792969 37.654297 C 18.679349 37.545047 18.451301 37.300232 17.988281 36.763672 C 17.090451 35.725742 16.038356 35.587826 15.228516 35.785156 C 15.031176 35.832156 14.780357 35.976362 14.617188 36.138672 C 14.194327 36.555552 14.243658 37.395342 14.267578 37.701172 C 14.295778 38.047152 14.312613 38.073362 14.320312 38.101562 L 14.316406 38.136719 L 14.285156 38.140625 L 14.267578 38.128906 L 13.033203 37.525391 L 12.986328 37.322266 C 12.954728 37.188986 12.917656 37.042802 12.847656 36.857422 C 12.405996 35.693062 11.413772 34.815743 10.320312 34.626953 C 9.5813625 34.499653 8.2347944 34.485701 7.5214844 35.832031 C 7.2233544 36.394141 7.2412494 37.127351 7.5683594 37.744141 C 7.9015294 38.375531 8.4963919 38.779682 9.2011719 38.857422 C 9.8999619 38.933522 10.425993 38.772415 10.720703 38.390625 C 11.018003 38.005345 11.072328 37.479864 10.861328 37.052734 C 10.634938 36.594084 10.293339 36.350617 9.8183594 36.310547 C 9.4570094 36.278047 9.1883269 36.428271 9.0917969 36.582031 C 9.0635969 36.629931 9.0125188 36.719353 9.0117188 36.845703 L 9.0117188 36.849609 C 9.0117188 37.193879 9.326555 37.288609 9.390625 37.292969 C 9.410225 37.292969 9.5052794 37.290866 9.6308594 37.259766 L 9.6914062 37.240234 L 9.734375 37.224609 L 9.7636719 37.220703 C 9.9926119 37.178803 10.213274 37.314119 10.277344 37.537109 C 10.288444 37.578009 10.294922 37.617273 10.294922 37.658203 C 10.294922 37.805983 10.220393 37.943614 10.095703 38.027344 L 10.085938 38.033203 L 10.066406 38.046875 C 10.000606 38.088775 9.93907 38.111159 9.875 38.130859 C 9.69559 38.189659 9.5367131 38.216797 9.3769531 38.216797 C 8.8319431 38.215957 8.07276 37.747938 8.0625 36.867188 C 8.0575 36.369997 8.3069938 35.91631 8.7460938 35.625 C 9.2518137 35.29099 10.12679 35.176698 10.9375 35.673828 C 11.93529 36.284618 12.194134 37.480955 11.933594 38.296875 C 11.555144 39.478335 10.491207 40.109955 9.0859375 39.984375 C 8.5933765 39.940426 8.1202778 39.787902 7.6992188 39.550781 L 13.015625 44 L 29 44 L 29 35.222656 L 25.1875 31.410156 z " transform="translate(384.57143,499.798)" id="f" opacity="0.2" fill="url(#M)" fill-rule="evenodd"/>
 </g>
</svg>
