<?xml version="1.0" encoding="UTF-8" standalone="no"?>

<!-- Created with Inkscape (http://www.inkscape.org/) -->
<svg width="48" version="1.1" xmlns="http://www.w3.org/2000/svg" height="48" xmlns:xlink="http://www.w3.org/1999/xlink" xmlns:inkscape="http://www.inkscape.org/namespaces/inkscape">
 <defs id="defs5455">
  <linearGradient inkscape:collect="always" id="linearGradient4400">
   <stop style="stop-color:#020303" id="stop4402"/>
   <stop offset="1" style="stop-color:#424649;stop-opacity:0" id="stop4404"/>
  </linearGradient>
  <linearGradient inkscape:collect="always" id="linearGradient4303">
   <stop style="stop-color:#989a9b" id="stop4305"/>
   <stop offset="1" style="stop-color:#f6f6f7" id="stop4307"/>
  </linearGradient>
  <linearGradient inkscape:collect="always" id="linearGradient4271">
   <stop style="stop-color:#2a2c2f" id="stop4273"/>
   <stop offset="1" style="stop-color:#424649" id="stop4275"/>
  </linearGradient>
  <linearGradient inkscape:collect="always" xlink:href="#linearGradient4271" id="linearGradient4277" y1="543.79797" y2="503.798" x2="0" gradientUnits="userSpaceOnUse"/>
  <linearGradient inkscape:collect="always" xlink:href="#linearGradient4303" id="linearGradient4301" y1="532.79797" y2="506.798" x2="0" gradientUnits="userSpaceOnUse"/>
  <linearGradient inkscape:collect="always" xlink:href="#linearGradient4400" id="linearGradient4388" y1="522.79797" x1="403.57144" y2="534.79797" x2="413.26208" gradientUnits="userSpaceOnUse"/>
  <linearGradient inkscape:collect="always" xlink:href="#linearGradient4400" id="linearGradient4417" y1="521.79797" x1="400.76776" y2="533.60168" gradientUnits="userSpaceOnUse" x2="412.57144"/>
 </defs>
 <metadata id="metadata5458"/>
 <g inkscape:label="Capa 1" inkscape:groupmode="layer" id="layer1" transform="matrix(1 0 0 1 -384.57143 -499.798)">
  <path inkscape:connector-curvature="0" style="fill:url(#linearGradient4277);fill-rule:evenodd" id="path4267" d="m 408.57143,543.798 -19.99996,-14 19.99996,-26 20.00001,26 z"/>
  <path inkscape:connector-curvature="0" style="fill:url(#linearGradient4301);fill-rule:evenodd" id="path4269" d="m 402.57143,532.798 -8,-7 14,-19 9,12 -17,5 z"/>
  <path inkscape:connector-curvature="0" style="fill:url(#linearGradient4388);opacity:0.3;fill-rule:evenodd" id="path4313" d="m 426.57143,529.798 -16,11 -8,-8 -2,-9 17,-5 z"/>
  <path inkscape:connector-curvature="0" style="fill:#ffffff;fill-opacity:0.235294;fill-rule:evenodd" id="path4406" d="m 394.57143,525.798 14,-17 9,10 -9,-12 z"/>
  <path style="fill:#212325;fill-rule:evenodd" id="path4408" d="M 4.5 29.349609 L 4 30 L 24 44 L 44 30 L 43.5 29.349609 L 24 43 L 4.5 29.349609 z " transform="matrix(1 0 0 1 384.57143 499.798)"/>
  <path inkscape:connector-curvature="0" style="fill:url(#linearGradient4417);opacity:0.2;fill-rule:evenodd" id="path4410" d="m 426.57143,529.798 -16,11 -8,-8 -2,-9 17,-5 z"/>
  <path inkscape:connector-curvature="0" style="fill:#25272b;fill-rule:evenodd" id="path4421" d="m 402.57143,532.798 -1,-8 16,-6 -17,5 z"/>
  <path inkscape:connector-curvature="0" style="fill:#bbbec1;fill-opacity:0.998039;fill-rule:evenodd" id="path4423" d="m 402.57143,532.798 -3,-9 15,-5 -6,-10 9,10 -17,5 z"/>
 </g>
</svg>
