<?xml version="1.0" encoding="UTF-8" standalone="no"?>
<!-- Created with Inkscape (http://www.inkscape.org/) -->

<svg
   xmlns:dc="http://purl.org/dc/elements/1.1/"
   xmlns:cc="http://creativecommons.org/ns#"
   xmlns:rdf="http://www.w3.org/1999/02/22-rdf-syntax-ns#"
   xmlns:svg="http://www.w3.org/2000/svg"
   xmlns="http://www.w3.org/2000/svg"
   xmlns:xlink="http://www.w3.org/1999/xlink"
   xmlns:sodipodi="http://sodipodi.sourceforge.net/DTD/sodipodi-0.dtd"
   xmlns:inkscape="http://www.inkscape.org/namespaces/inkscape"
   width="48"
   height="48"
   id="svg5453"
   version="1.1"
   inkscape:version="0.91 r13725"
   sodipodi:docname="internet-web-browser.svg">
  <defs
     id="defs5455">
    <linearGradient
       inkscape:collect="always"
       id="linearGradient4299">
      <stop
         style="stop-color:#abf9c7;stop-opacity:1"
         offset="0"
         id="stop4301" />
      <stop
         style="stop-color:#54d883;stop-opacity:1"
         offset="1"
         id="stop4303" />
    </linearGradient>
    <linearGradient
       id="linearGradient4143"
       inkscape:collect="always">
      <stop
         id="stop4145"
         offset="0"
         style="stop-color:#197cf1;stop-opacity:1" />
      <stop
         id="stop4147"
         offset="1"
         style="stop-color:#20bcfa;stop-opacity:1" />
    </linearGradient>
    <linearGradient
       gradientUnits="userSpaceOnUse"
       y2="517.79797"
       x2="400.57144"
       y1="545.79797"
       x1="400.57144"
       id="linearGradient4149"
       xlink:href="#linearGradient4143"
       inkscape:collect="always"
       gradientTransform="matrix(1.4285699,0,0,1.4285699,-163.67291,-235.91261)" />
    <linearGradient
       id="linearGradient4227"
       inkscape:collect="always">
      <stop
         id="stop4229"
         offset="0"
         style="stop-color:#292c2f;stop-opacity:1" />
      <stop
         id="stop4231"
         offset="1"
         style="stop-color:#000000;stop-opacity:0;" />
    </linearGradient>
    <linearGradient
       gradientUnits="userSpaceOnUse"
       y2="19.505716"
       x2="30.000011"
       y1="12.505747"
       x1="23.000042"
       id="linearGradient4251"
       xlink:href="#linearGradient4227"
       inkscape:collect="always" />
    <linearGradient
       inkscape:collect="always"
       xlink:href="#linearGradient4299"
       id="linearGradient4305"
       x1="409.57144"
       y1="503.798"
       x2="409.57144"
       y2="543.79797"
       gradientUnits="userSpaceOnUse" />
  </defs>
  <sodipodi:namedview
     id="base"
     pagecolor="#ffffff"
     bordercolor="#666666"
     borderopacity="1.0"
     inkscape:pageopacity="0"
     inkscape:pageshadow="2"
     inkscape:zoom="4"
     inkscape:cx="-30.975047"
     inkscape:cy="18.941348"
     inkscape:document-units="px"
     inkscape:current-layer="layer1"
     showgrid="false"
     fit-margin-top="0"
     fit-margin-left="0"
     fit-margin-right="0"
     fit-margin-bottom="0"
     inkscape:window-width="1366"
     inkscape:window-height="700"
     inkscape:window-x="0"
     inkscape:window-y="0"
     inkscape:window-maximized="1"
     inkscape:showpageshadow="false"
     borderlayer="true"
     showguides="false"
     inkscape:snap-bbox="true"
     inkscape:object-nodes="true">
    <inkscape:grid
       type="xygrid"
       id="grid4063" />
    <sodipodi:guide
       position="1.1650391e-05,47.999996"
       orientation="4,0"
       id="guide4146" />
    <sodipodi:guide
       position="1.1650391e-05,43.999996"
       orientation="0,48"
       id="guide4148" />
    <sodipodi:guide
       position="48.000012,43.999996"
       orientation="-4,0"
       id="guide4150" />
    <sodipodi:guide
       position="1.1650391e-05,4.0000264"
       orientation="4,0"
       id="guide4154" />
    <sodipodi:guide
       position="1.1650391e-05,2.6367188e-05"
       orientation="0,48"
       id="guide4156" />
    <sodipodi:guide
       position="48.000012,2.6367188e-05"
       orientation="-4,0"
       id="guide4158" />
    <sodipodi:guide
       position="48.000012,4.0000264"
       orientation="0,-48"
       id="guide4160" />
    <sodipodi:guide
       position="48.000012,48.000026"
       orientation="0,-4"
       id="guide4162" />
    <sodipodi:guide
       position="44.000012,48.000026"
       orientation="48,0"
       id="guide4164" />
    <sodipodi:guide
       position="44.000012,2.6367188e-05"
       orientation="0,4"
       id="guide4166" />
    <sodipodi:guide
       position="48.000012,2.6367188e-05"
       orientation="-48,0"
       id="guide4168" />
    <sodipodi:guide
       position="4.0000422,48.000026"
       orientation="0,-4"
       id="guide4170" />
    <sodipodi:guide
       position="4.2167969e-05,48.000026"
       orientation="48,0"
       id="guide4172" />
    <sodipodi:guide
       position="4.2167969e-05,2.6367188e-05"
       orientation="0,4"
       id="guide4174" />
    <sodipodi:guide
       position="4.0000422,2.6367188e-05"
       orientation="-48,0"
       id="guide4176" />
    <sodipodi:guide
       position="65,30"
       orientation="0,14"
       id="guide4890" />
    <sodipodi:guide
       position="24,29"
       orientation="-13.999969,0"
       id="guide4892" />
    <sodipodi:guide
       position="22.000012,43.999996"
       orientation="0,-14"
       id="guide4894" />
    <sodipodi:guide
       position="16.000012,25.000271"
       orientation="16,0"
       id="guide4499" />
    <sodipodi:guide
       position="16.000012,9.0002705"
       orientation="0,16"
       id="guide4501" />
    <sodipodi:guide
       position="32.000012,9.0002705"
       orientation="-16,0"
       id="guide4503" />
    <sodipodi:guide
       position="32.000012,25.000271"
       orientation="0,-16"
       id="guide4505" />
  </sodipodi:namedview>
  <metadata
     id="metadata5458">
    <rdf:RDF>
      <cc:Work
         rdf:about="">
        <dc:format>image/svg+xml</dc:format>
        <dc:type
           rdf:resource="http://purl.org/dc/dcmitype/StillImage" />
        <dc:title />
      </cc:Work>
    </rdf:RDF>
  </metadata>
  <g
     inkscape:label="Capa 1"
     inkscape:groupmode="layer"
     id="layer1"
     transform="translate(-384.57143,-499.798)">
    <rect
       style="opacity:1;fill:url(#linearGradient4149);fill-opacity:1;stroke:none"
       id="rect4130"
       width="39.999973"
       height="39.999996"
       x="388.57141"
       y="503.798"
       ry="19.999987" />
    <path
       style="fill:url(#linearGradient4305);fill-opacity:1;fill-rule:evenodd;stroke:none;stroke-width:1px;stroke-linecap:butt;stroke-linejoin:miter;stroke-opacity:1"
       d="m 408.57143,503.798 c -1.45186,0 -2.86408,0.16007 -4.22656,0.45117 l -1.77344,3.54883 -2.67969,-2.00977 c -4.80613,2.31121 -8.52914,6.47192 -10.2539,11.58399 l 3.93359,-1.57422 3,2 1,-3 13,-7 -0.79297,-3.96094 c -0.39982,-0.0236 -0.80108,-0.0391 -1.20703,-0.0391 z m 14.81055,6.56836 -0.81055,2.43164 1,1 -4,6 2,7 6.63281,0.83008 c 0.23855,-1.23928 0.36719,-2.51913 0.36719,-3.83008 0,-3.42478 -0.85652,-6.64071 -2.36133,-9.45313 l -1.63867,-0.54687 0.5957,-1.19336 c -0.53534,-0.79408 -1.14412,-1.53142 -1.78515,-2.23828 z m -34.41407,9.43164 c -0.22071,1.09575 -0.34598,2.22693 -0.38085,3.38086 l 6.98437,2.61914 -1,-3 -2,-3 z m 6.60352,6 5,12 0,4.33789 c 2.44878,1.06492 5.15053,1.66211 8,1.66211 0.19869,0 0.39453,-0.008 0.5918,-0.0137 l 6.4082,-10.98633 -16,-9 -4,2 z"
       id="path4179"
       inkscape:connector-curvature="0"
       sodipodi:nodetypes="ccccccccccccccccccscccccccccccccsccccc" />
    <path
       style="opacity:0.2;fill:#000000;fill-opacity:1;stroke:none"
       d="M 4.0507812 23.5 C 4.0465376 23.670335 4 23.828607 4 24 C 4 35.079993 12.920007 44 24 44 C 35.079993 44 44 35.079993 44 24 C 44 23.828607 43.953463 23.670335 43.949219 23.5 C 43.919169 24.706109 43.828388 25.898126 43.595703 27.041016 C 43.330156 28.345312 42.938281 29.601641 42.433594 30.798828 C 41.928907 31.996015 41.311171 33.133594 40.59375 34.197266 C 39.876329 35.260937 39.058046 36.250547 38.154297 37.154297 C 37.250547 38.058046 36.260937 38.876329 35.197266 39.59375 C 34.133594 40.311171 32.996015 40.928907 31.798828 41.433594 C 30.601641 41.938281 29.345312 42.330156 28.041016 42.595703 C 26.73672 42.86125 25.384999 43 24 43 C 22.615001 43 21.26328 42.86125 19.958984 42.595703 C 18.654688 42.330156 17.398359 41.938281 16.201172 41.433594 C 15.602578 41.18125 15.018174 40.900948 14.451172 40.59375 C 13.88417 40.286552 13.33457 39.952461 12.802734 39.59375 C 11.739063 38.876329 10.749453 38.058046 9.8457031 37.154297 C 8.9419537 36.250547 8.1236714 35.260937 7.40625 34.197266 C 6.6888286 33.133594 6.0710934 31.996015 5.5664062 30.798828 C 5.0617191 29.601641 4.6698436 28.345312 4.4042969 27.041016 C 4.1716115 25.898126 4.0808305 24.706109 4.0507812 23.5 z "
       transform="translate(384.57143,499.798)"
       id="path4352" />
  </g>
</svg>
