<?xml version="1.0" encoding="UTF-8" standalone="no"?>

<!-- Created with Inkscape (http://www.inkscape.org/) -->
<svg width="48" version="1.1" xmlns="http://www.w3.org/2000/svg" height="48" xmlns:xlink="http://www.w3.org/1999/xlink" xmlns:inkscape="http://www.inkscape.org/namespaces/inkscape">
 <defs id="defs5455">
  <linearGradient inkscape:collect="always" id="linearGradient4378">
   <stop style="stop-color:#292c2f" id="stop4380"/>
   <stop offset="1" style="stop-opacity:0" id="stop4382"/>
  </linearGradient>
  <linearGradient id="linearGradient4333">
   <stop style="stop-color:#bdc3c7" id="stop4337"/>
   <stop offset="1" style="stop-color:#eff0f1" id="stop4335"/>
  </linearGradient>
  <linearGradient inkscape:collect="always" id="linearGradient4303">
   <stop style="stop-color:#95a5a6" id="stop4305"/>
   <stop offset="1" style="stop-color:#8b9e9a" id="stop4307"/>
  </linearGradient>
  <linearGradient inkscape:collect="always" xlink:href="#linearGradient4333" id="linearGradient4279" y1="541.79797" y2="505.798" x2="0" gradientUnits="userSpaceOnUse" gradientTransform="matrix(1 0 0 1 -384.57143 -499.798)"/>
  <linearGradient inkscape:collect="always" xlink:href="#linearGradient4303" id="linearGradient4309" y1="542.79797" y2="504.798" x2="0" gradientUnits="userSpaceOnUse" gradientTransform="matrix(1 0 0 1 -384.57143 -499.798)"/>
  <linearGradient id="linearGradient3819">
   <stop style="stop-color:#eff0f1" id="stop3821"/>
   <stop offset="1" style="stop-color:#bdc3c7" id="stop3823"/>
  </linearGradient>
  <linearGradient inkscape:collect="always" id="linearGradient3825" xlink:href="#linearGradient3819" y1="20" y2="43.999973" gradientUnits="userSpaceOnUse" x2="0" gradientTransform="matrix(1 0 0 1 384.57142 499.798)"/>
  <linearGradient inkscape:collect="always" xlink:href="#linearGradient4378" id="linearGradient4384" y1="10.169934" x1="10.326797" y2="29.971863" x2="30.490747" gradientUnits="userSpaceOnUse"/>
  <linearGradient inkscape:collect="always" xlink:href="#linearGradient4378" id="linearGradient4392" y1="10.22729" x1="25" y2="26.733019" x2="41.05273" gradientUnits="userSpaceOnUse"/>
  <linearGradient inkscape:collect="always" id="linearGradient4221">
   <stop style="stop-color:#06a370" id="stop4223"/>
   <stop offset="1" style="stop-color:#22d1b0" id="stop4225"/>
  </linearGradient>
  <linearGradient inkscape:collect="always" id="linearGradient5002">
   <stop style="stop-color:#2e5d89" id="stop5004"/>
   <stop offset="1" style="stop-color:#1b92f4" id="stop5006"/>
  </linearGradient>
  <linearGradient inkscape:collect="always" xlink:href="#linearGradient5002" id="linearGradient4269" y1="42" x1="41" y2="10" x2="5" gradientUnits="userSpaceOnUse" gradientTransform="matrix(1 0 0 1 384.57143 499.798)"/>
  <linearGradient inkscape:collect="always" xlink:href="#linearGradient4221" id="linearGradient4277" y1="42" x1="41" y2="10" x2="5" gradientUnits="userSpaceOnUse" gradientTransform="matrix(1 0 0 1 384.57143 499.798)"/>
 </defs>
 <metadata id="metadata5458"/>
 <g inkscape:label="Capa 1" inkscape:groupmode="layer" id="layer1" transform="matrix(1 0 0 1 -384.57143 -499.798)">
  <path style="fill:url(#linearGradient4309);opacity:0.5" id="rect4250" d="M 7 5 L 7 30 L 41 30 L 41 5 L 7 5 z " transform="matrix(1 0 0 1 384.57143 499.798)"/>
  <path style="fill:url(#linearGradient4279)" id="rect4242" d="M 8 6 L 8 30 L 40 30 L 40 6 L 8 6 z " transform="matrix(1 0 0 1 384.57143 499.798)"/>
  <rect width="2" x="394.57144" y="513.79797" height="1" style="fill:#aeaeae" id="rect4152"/>
  <rect width="3" x="397.57144" y="513.79797" height="1" style="fill:#aeaeae" id="rect4154"/>
  <rect width="5" x="401.57144" y="513.79797" height="1" style="fill:#aeaeae" id="rect4156"/>
  <rect width="4" x="394.57144" y="515.79797" height="1" style="fill:#aeaeae" id="rect4164"/>
  <rect width="2" x="399.57144" y="515.79797" height="1" style="fill:#aeaeae" id="rect4166"/>
  <rect width="2" x="394.57144" y="519.79797" height="1" style="fill:#aeaeae" id="rect4174"/>
  <rect width="3" x="397.57144" y="519.79797" height="1" style="fill:#aeaeae" id="rect4176"/>
  <rect width="2" x="394.57144" y="521.79797" height="1" style="fill:#aeaeae" id="rect4186"/>
  <rect width="5" x="397.57144" y="521.79797" height="1" style="fill:#aeaeae" id="rect4188"/>
  <rect width="3" x="403.57144" y="521.79797" height="1" style="fill:#aeaeae" id="rect4190"/>
  <rect width="6" x="394.57144" y="525.79797" height="1" style="fill:#aeaeae" id="rect4200"/>
  <rect width="3" x="401.57144" y="525.79797" height="1" style="fill:#aeaeae" id="rect4202"/>
  <rect width="5" x="394.57144" y="527.79797" height="1" style="fill:#aeaeae" id="rect4214"/>
  <rect width="5" x="400.57144" y="527.79797" height="1" style="fill:#aeaeae" id="rect4216"/>
  <rect width="2" x="409.57144" y="513.79797" height="1" style="fill:#aeaeae" id="rect4387"/>
  <rect width="3" x="412.57144" y="513.79797" height="1" style="fill:#aeaeae" id="rect4389"/>
  <rect width="5" x="416.57144" y="513.79797" height="1" style="fill:#aeaeae" id="rect4391"/>
  <rect width="4" x="409.57144" y="515.79797" height="1" style="fill:#aeaeae" id="rect4393"/>
  <rect width="2" x="414.57144" y="515.79797" height="1" style="fill:#aeaeae" id="rect4395"/>
  <rect width="2" x="409.57144" y="519.79797" height="1" style="fill:#aeaeae" id="rect4397"/>
  <rect width="2" x="409.57144" y="521.79797" height="1" style="fill:#aeaeae" id="rect4401"/>
  <rect width="5" x="412.57144" y="521.79797" height="1" style="fill:#aeaeae" id="rect4403"/>
  <rect width="3" x="418.57144" y="521.79797" height="1" style="fill:#aeaeae" id="rect4405"/>
  <rect width="6" x="409.57144" y="525.79797" height="1" style="fill:#aeaeae" id="rect4407"/>
  <rect width="5" x="409.57144" y="527.79797" height="1" style="fill:#aeaeae" id="rect4411"/>
  <rect width="5" x="415.57144" y="527.79797" height="1" style="fill:#aeaeae" id="rect4413"/>
  <path style="fill:url(#linearGradient4384);opacity:0.2" id="rect4361" d="M 10 10 L 10 11.951172 C 10.64856 10.832257 19.259111 10.630621 22.957031 10 L 10 10 z M 23 10.042969 L 23 12 L 10.048828 12 L 27.912109 30 L 41 30 L 41 28.181641 L 23 10.042969 z " transform="matrix(1 0 0 1 384.57143 499.798)"/>
  <path style="fill:url(#linearGradient4392);opacity:0.2" id="path4364" d="M 25 10 L 25 11.951172 L 25.478516 10.933594 L 31.666016 10.746094 L 37.957031 10 L 25 10 z M 38 10.042969 L 38 12 L 25.048828 12 L 41 28.074219 L 41 13.066406 L 38 10.042969 z " transform="matrix(1 0 0 1 384.57143 499.798)"/>
  <path inkscape:connector-curvature="0" style="fill:url(#linearGradient3825)" id="rect3804" d="m 388.57143,529.798 -1e-5,14 40,0 1e-5,-14 z"/>
  <rect width="39.999954" x="388.57147" y="542.79797" rx="0" height="0.99997" style="fill:#95a5a6" id="rect3827"/>
  <rect width="39.999969" x="388.57147" y="529.79797" rx="0" height="1.00003" style="fill:#eff0f1" id="rect3855"/>
  <path inkscape:connector-curvature="0" style="fill:url(#linearGradient4269);stroke-linecap:round;stroke-linejoin:bevel;stroke-width:2" id="rect5416" d="m 394.57143,509.798 0,2 13,0 0,-2 -13,0 z m 21,22 -7,4 7,4.04102 0,-2.04102 10,0 0,-4 -10,0 0,-2 z"/>
  <path inkscape:connector-curvature="0" style="fill:url(#linearGradient4277);stroke-linecap:round;stroke-linejoin:bevel;stroke-width:2" id="rect5438" d="m 409.57143,509.798 0,2 13,0 0,-2 -13,0 z m -8,24 0,2 -10,0 0,4 10,0 0,2.04102 7,-4.04102 -7,-4 z"/>
 </g>
</svg>
