<?xml version="1.0" encoding="UTF-8" standalone="no"?>

<!-- Created with Inkscape (http://www.inkscape.org/) -->
<svg width="48" version="1.1" xmlns="http://www.w3.org/2000/svg" height="48" xmlns:xlink="http://www.w3.org/1999/xlink" xmlns:inkscape="http://www.inkscape.org/namespaces/inkscape">
 <defs id="defs4096">
  <linearGradient inkscape:collect="always" id="linearGradient4227">
   <stop style="stop-color:#ffffff" id="stop4229"/>
   <stop offset="1" style="stop-color:#ffffff;stop-opacity:0" id="stop4231"/>
  </linearGradient>
  <linearGradient id="linearGradient4087">
   <stop style="stop-color:#ffffff;stop-opacity:0.838235" id="stop4089"/>
   <stop offset="0.478261" style="stop-color:#ffffff;stop-opacity:0" id="stop4095"/>
   <stop offset="0.823529" style="stop-color:#ffffff;stop-opacity:0" id="stop4093"/>
   <stop offset="1" style="stop-color:#ffffff" id="stop4091"/>
  </linearGradient>
  <linearGradient inkscape:collect="always" id="linearGradient3982">
   <stop style="stop-color:#333333" id="stop3984"/>
   <stop offset="1" style="stop-color:#333333;stop-opacity:0" id="stop3986"/>
  </linearGradient>
  <linearGradient inkscape:collect="always" id="linearGradient4261">
   <stop style="stop-color:#03ff69" id="stop4263"/>
   <stop offset="1" style="stop-color:#005b25" id="stop4265"/>
  </linearGradient>
  <linearGradient inkscape:collect="always" id="linearGradient4235">
   <stop style="stop-color:#317ac2" id="stop4237"/>
   <stop offset="1" style="stop-color:#36a5e6" id="stop4239"/>
  </linearGradient>
  <linearGradient inkscape:collect="always" id="linearGradient4300-8-6-1">
   <stop style="stop-color:#efefef" id="stop4302-5-3-4"/>
   <stop offset="1" style="stop-color:#fbfbfb" id="stop4304-7-8-5"/>
  </linearGradient>
  <linearGradient id="linearGradient4351-5-3-5">
   <stop style="stop-color:#ffac13" id="stop4353-0-6-7"/>
   <stop offset="1" style="stop-color:#ff7913" id="stop4355-1-9-7"/>
  </linearGradient>
  <linearGradient inkscape:collect="always" id="linearGradient4156" xlink:href="#linearGradient3900" y1="38.17017" y2="16.0649" x1="54.35418" x2="42.683506" gradientUnits="userSpaceOnUse" gradientTransform="matrix(12.649066 0 0 10.996316 -467.29646 188.26679)"/>
  <linearGradient inkscape:collect="always" id="linearGradient3900">
   <stop style="stop-color:#5394aa" id="stop3902"/>
   <stop offset="1" style="stop-color:#456596" id="stop3904"/>
  </linearGradient>
  <linearGradient id="linearGradient4273">
   <stop style="stop-color:#343b40" id="stop4275"/>
   <stop offset="1" style="stop-color:#555e63" id="stop4277"/>
  </linearGradient>
  <linearGradient inkscape:collect="always" xlink:href="#linearGradient4273" id="linearGradient3156-6" y1="543.79797" x1="434.57144" y2="503.798" gradientUnits="userSpaceOnUse" x2="384.57144" gradientTransform="matrix(0.68749959 0 0 0.89999998 -253.34611 -430.32673)"/>
  <linearGradient inkscape:collect="always" id="linearGradient3176" xlink:href="#linearGradient4273" y1="543.79797" y2="503.798" x1="434.57144" x2="384.57144" gradientUnits="userSpaceOnUse" gradientTransform="matrix(0.68749959 0 0 0.89999998 -264.39273 -453.4182)"/>
  <linearGradient inkscape:collect="always" xlink:href="#linearGradient4300-8-6-1" id="linearGradient3251" y1="-3.54654" x1="52.46896" y2="47.44052" gradientUnits="userSpaceOnUse" x2="13.7501" gradientTransform="matrix(0.64568025 0 0 -0.60799744 6.121832 60.843713)"/>
  <linearGradient inkscape:collect="always" xlink:href="#linearGradient4235" id="linearGradient4141-5" y1="42.995296" x1="-3.01403" y2="7.995297" gradientUnits="userSpaceOnUse" x2="-29.01403" gradientTransform="matrix(1 0 0 1 40.0152 17.00527)"/>
  <linearGradient inkscape:collect="always" id="linearGradient4300-7-2">
   <stop style="stop-color:#f39c12" id="stop4302-4-5"/>
   <stop offset="1" style="stop-color:#ffc35a" id="stop4304-1-2"/>
  </linearGradient>
  <linearGradient inkscape:collect="always" id="linearGradient4182" xlink:href="#linearGradient4300-7-2" y1="30" y2="28" x1="34" x2="24" gradientUnits="userSpaceOnUse" gradientTransform="matrix(1 0 0 1 -24 -28)"/>
  <linearGradient inkscape:collect="always" id="linearGradient4217" xlink:href="#linearGradient4273" y1="543.79797" y2="503.798" x1="434.57144" x2="384.57144" gradientUnits="userSpaceOnUse" gradientTransform="matrix(0.68749959 0 0 0.89999998 -272.39272 -466.3272)"/>
  <linearGradient inkscape:collect="always" xlink:href="#linearGradient4261" id="linearGradient4267" y1="26.818182" x1="32.81818" y2="27.125" x2="37.3125" gradientUnits="userSpaceOnUse" gradientTransform="matrix(1.5283779 0.58632134 -0.58632134 1.5283779 -5.545985 -14.657775)"/>
  <linearGradient inkscape:collect="always" xlink:href="#linearGradient4273" id="linearGradient3156-6-2" y1="543.79797" x1="434.57144" y2="503.798" gradientUnits="userSpaceOnUse" x2="384.57144" gradientTransform="matrix(0.68749959 0 0 0.89999998 -254.34727 -432.32729)"/>
  <linearGradient inkscape:collect="always" id="linearGradient4311" xlink:href="#linearGradient4273" y1="543.79797" y2="503.798" x1="434.57144" x2="384.57144" gradientUnits="userSpaceOnUse" gradientTransform="matrix(0.68749959 0 0 0.89999998 -269.39263 -466.32329)"/>
  <linearGradient inkscape:collect="always" xlink:href="#linearGradient4273" id="linearGradient3156-6-8" y1="543.79797" x1="434.57144" y2="503.798" gradientUnits="userSpaceOnUse" x2="384.57144" gradientTransform="matrix(0.68749959 0 0 0.89999998 -255.34611 -414.32673)"/>
  <linearGradient inkscape:collect="always" xlink:href="#linearGradient4273" id="linearGradient4421" y1="543.79797" x1="434.57144" y2="503.798" gradientUnits="userSpaceOnUse" x2="384.57144" gradientTransform="matrix(0.68749959 0 0 0.89999998 -254.62 -415.05456)"/>
  <linearGradient inkscape:collect="always" id="linearGradient3912-3">
   <stop style="stop-color:#539daa" id="stop3914-3"/>
   <stop offset="1" style="stop-color:#426c8f" id="stop3916-8"/>
  </linearGradient>
  <linearGradient inkscape:collect="always" id="linearGradient3902" xlink:href="#linearGradient3912-3" y1="38.17017" y2="16.0649" x1="54.35418" x2="42.683506" gradientUnits="userSpaceOnUse" gradientTransform="matrix(1.1482869 0 0 1.1482869 -58.0514 -19.311945)"/>
  <linearGradient inkscape:collect="always" xlink:href="#linearGradient3982" id="linearGradient3988" y1="33.907364" x1="29.726982" y2="41.12293" x2="39.691612" gradientUnits="userSpaceOnUse" gradientTransform="matrix(1.3030633 -0.14073163 0.14073163 1.3030633 -15.507979 9.00008)"/>
  <linearGradient inkscape:collect="always" xlink:href="#linearGradient3982" id="linearGradient3988-3" y1="34.91172" x1="31.92078" y2="36.838501" x2="35.549797" gradientUnits="userSpaceOnUse" gradientTransform="matrix(1.3030633 -0.14073163 0.14073163 1.3030633 -15.507979 25.00008)"/>
  <linearGradient inkscape:collect="always" id="linearGradient3930" xlink:href="#linearGradient3982" y1="34.91172" y2="36.838501" x1="31.92078" x2="35.549797" gradientUnits="userSpaceOnUse" gradientTransform="matrix(1.3030633 -0.14073163 0.14073163 1.3030633 -44.507979 -25.999916)"/>
  <linearGradient inkscape:collect="always" xlink:href="#linearGradient4227" id="linearGradient7168" y1="14.03125" x1="13.625" y2="0.6879" x2="1.083184" gradientUnits="userSpaceOnUse" gradientTransform="matrix(1 0 0 1.2084104 0 16)"/>
  <linearGradient inkscape:collect="always" id="linearGradient3912-0">
   <stop style="stop-color:#a9cacf" id="stop3914-2"/>
   <stop offset="1" style="stop-color:#b4d6fc" id="stop3916-2"/>
  </linearGradient>
  <linearGradient inkscape:collect="always" id="linearGradient3157" xlink:href="#linearGradient3912-0" y1="5.512822" y2="62.65604" x1="39.22295" x2="65.97908" gradientUnits="userSpaceOnUse" gradientTransform="matrix(1.1482869 0 0 1.1482869 -58.05023 -16.311382)"/>
  <linearGradient inkscape:collect="always" id="linearGradient4017" xlink:href="#linearGradient4227" y1="31.489725" y2="5.591937" x1="28.682877" x2="8.880387" gradientUnits="userSpaceOnUse" gradientTransform="matrix(1 0 0 1 -8 0)"/>
  <linearGradient inkscape:collect="always" id="linearGradient4069" xlink:href="#linearGradient4227" y1="39" y2="24" x1="35" x2="20" gradientUnits="userSpaceOnUse" gradientTransform="matrix(1 0 0 1 -9 -20)"/>
  <linearGradient inkscape:collect="always" xlink:href="#linearGradient4261" id="linearGradient4104" y1="26.785643" x1="30.526386" y2="28.03158" gradientUnits="userSpaceOnUse" x2="40.721077" gradientTransform="matrix(1.5283779 0.58632134 -0.58632134 1.5283779 -5.545985 -14.657775)"/>
  <radialGradient cx="22.709938" cy="41.661602" inkscape:collect="always" xlink:href="#linearGradient4227" id="radialGradient4233" r="14" gradientUnits="userSpaceOnUse" gradientTransform="matrix(1.1435811 -0.95295318 0.49336122 0.59205279 -19.375826 36.687952)"/>
 </defs>
 <metadata id="metadata4099"/>
 <g inkscape:label="Layer 1" inkscape:groupmode="layer" id="layer1" transform="matrix(1 0 0 1 0 -16)">
  <path inkscape:export-filename="/home/kubuntu-lts/folder-prova.png" inkscape:connector-curvature="0" inkscape:export-xdpi="19.525423" style="fill:url(#linearGradient4141-5);color:#000000;stroke-width:0.2" id="path10423" inkscape:export-ydpi="19.525423" d="M 39.99883,19 40,61.000564 l -29.99883,0 L 10,19 z"/>
  <path inkscape:connector-curvature="0" style="fill:#545772;color:#000000" id="path4247" d="m 9,41.000564 3,0 0,3 -3,0 0,-3 0,0"/>
  <path inkscape:connector-curvature="0" style="fill:url(#linearGradient3251)" id="rect3500" d="M 12,59.000564 12,21 l 26.001169,0 0,38.000564 z"/>
  <path inkscape:connector-curvature="0" style="fill:url(#linearGradient3156-6);opacity:0.832;color:#000000" id="rect4151-1" d="M 33,30.996 25,31 l -4.44141,7.6914 -1.55468,-2.69531 -0.004,0 -1.95441,0.09686 0,1 1.42773,0 2.13281,3.69336 0.53059,-1.09491 4.44335,-7.69531 L 33,32 z m -5,3.00391 c -1.662,0 -3,1.338 -3,3 0,1.662 1.338,3 3,3 0.7733,0 1.46913,-0.2982 2,-0.7754 l 0,0.7754 1,0 0,-3 0,-3 -1,0 0,0.77539 c -0.53087,-0.4772 -1.2267,-0.77539 -2,-0.77539 z m 0,1 c 1.108,0 2,0.892 2,2 0,1.108 -0.892,2 -2,2 -1.108,0 -2,-0.892 -2,-2 0,-1.108 0.892,-2 2,-2 z M 17.05536,41.087 c -0.006,3.6e-5 -0.01,0.223 -0.01,0.5 0,0.277 0.004,0.500036 0.01,0.5 l 15.93488,-0.09686 c 0.006,-3.6e-5 0.01,-0.223 0.01,-0.5 0,-0.277 -0.004,-0.500036 -0.01,-0.5 z M 23,43 l 0,1 4,0 0,-1 z"/>
  <path inkscape:connector-curvature="0" style="fill:#545772;color:#000000" id="path4241" d="m 9,26.000564 2.99883,0 0,3 -2.9999996,0 0.00117,-3 0,0"/>
  <path inkscape:connector-curvature="0" style="fill:#545772;color:#000000" id="path4243" d="m 9.0011696,31.000564 2.9988304,0 0,3 -3,0 0.00117,-3 0,0"/>
  <path inkscape:connector-curvature="0" style="fill:#545772;color:#000000" id="path4245" d="m 9,36.000564 3,0 0,3 -3,0 0,-3 0,0"/>
  <path inkscape:connector-curvature="0" style="fill:#545772;color:#000000" id="path4251" d="m 12,46.000564 0,3 -2.9988304,0 -0.00117,-3"/>
  <path inkscape:connector-curvature="0" style="fill:#545772;color:#000000" id="path4253" d="m 9.0011696,51.000564 2.9988304,0 -0.0012,3 -2.9988304,0 0.00117,-3 0,0"/>
  <path inkscape:connector-curvature="0" style="fill:#545772;color:#000000" id="path4255" d="m 8.9988304,56.000564 3.0011696,0 0,3 -3,0"/>
  <path inkscape:connector-curvature="0" style="fill:#545772;color:#000000" id="path3105" d="m 9.0011696,21.000564 2.9988304,0 0,3 -3,0 0.00117,-3 0,0"/>
  <path inkscape:connector-curvature="0" style="fill:#333333;opacity:0.28;color:#000000" id="path3868" d="m 38,21 2,2 0,38.000564 -26,0 -2,-2 26.001169,0 z"/>
  <path inkscape:connector-curvature="0" style="fill:#545772;color:#000000" id="path3089" d="m 9,26.000564 2,0 0,3 -2.0011696,0 0.00117,-3 0,0"/>
  <path inkscape:connector-curvature="0" style="fill:#545772;color:#000000" id="path3091" d="m 9,36.000564 2,0 0,3 -2.0011696,0 0.00117,-3 0,0"/>
  <path inkscape:connector-curvature="0" style="fill:#545772;color:#000000" id="path3093" d="m 9,46.000564 2,0 0,3 -2.0011696,0 0.00117,-3 0,0"/>
  <path inkscape:connector-curvature="0" style="fill:#545772;color:#000000" id="path3095" d="m 9,56.000564 2,0 0,3 -2.0011696,0 0.00117,-3 0,0"/>
  <path inkscape:connector-curvature="0" style="fill:#545772;color:#000000" id="path3097" d="m 9,31.000564 2,0 0,3 -2.0011696,0 0.00117,-3 0,0"/>
  <path inkscape:connector-curvature="0" style="fill:#545772;color:#000000" id="path3099" d="m 9,41.000564 2,0 0,3 -2.0011696,0 0.00117,-3 0,0"/>
  <path inkscape:connector-curvature="0" style="fill:#545772;color:#000000" id="path3101" d="m 9,51.000564 2,0 0,3 -2.0011696,0 0.00117,-3 0,0"/>
  <path inkscape:connector-curvature="0" style="fill:#545772;color:#000000" id="path3103" d="m 9,21 1,0 0,38.000564 -1.0011696,0"/>
  <path inkscape:connector-curvature="0" style="fill:#545772;color:#000000" id="path3107" d="m 9,21.000564 2,0 0,3 -2.0011696,0 0.00117,-3 0,0"/>
  <path inkscape:export-filename="/home/kubuntu-lts/folder-prova.png" inkscape:connector-curvature="0" inkscape:export-xdpi="19.525423" style="fill:url(#radialGradient4233);opacity:0.741525;color:#000000;fill-rule:evenodd;stroke-width:0.2" id="path4019" inkscape:export-ydpi="19.525423" d="m 40,19 0,5 -28,24 0,-29 z"/>
 </g>
</svg>
