<?xml version="1.0" encoding="UTF-8" standalone="no"?>

<!-- Created with Inkscape (http://www.inkscape.org/) -->
<svg width="48" version="1.1" xmlns="http://www.w3.org/2000/svg" height="48" xmlns:xlink="http://www.w3.org/1999/xlink" xmlns:inkscape="http://www.inkscape.org/namespaces/inkscape">
 <defs id="defs5455">
  <linearGradient inkscape:collect="always" id="linearGradient5044">
   <stop id="stop5046"/>
   <stop offset="1" style="stop-opacity:0" id="stop5048"/>
  </linearGradient>
  <linearGradient inkscape:collect="always" id="linearGradient5026">
   <stop style="stop-color:#ebc69a" id="stop5028"/>
   <stop offset="1" style="stop-color:#f4e0c8" id="stop5030"/>
  </linearGradient>
  <linearGradient inkscape:collect="always" id="linearGradient4903">
   <stop style="stop-color:#eef1f2" id="stop4905"/>
   <stop offset="1" style="stop-color:#f9fafb" id="stop4907"/>
  </linearGradient>
  <linearGradient inkscape:collect="always" xlink:href="#linearGradient4903" id="linearGradient4486" y1="43.999973" y2="20" x2="0" gradientUnits="userSpaceOnUse" gradientTransform="matrix(1 0 0 1 384.57143 499.798)"/>
  <linearGradient inkscape:collect="always" xlink:href="#linearGradient5044" id="linearGradient4356" y1="529.79797" x1="419.57144" y2="536.79797" x2="426.57144" gradientUnits="userSpaceOnUse"/>
  <linearGradient inkscape:collect="always" xlink:href="#linearGradient4152" id="linearGradient4466" y1="519.79797" y2="504.798" x2="0" gradientUnits="userSpaceOnUse" gradientTransform="matrix(1 0 0 1 0 1)"/>
  <linearGradient inkscape:collect="always" xlink:href="#linearGradient4152" id="linearGradient4466-8" y1="519.79797" y2="504.798" x2="0" gradientUnits="userSpaceOnUse" gradientTransform="matrix(1 0 0 1 -0.00001 -1)"/>
  <linearGradient inkscape:collect="always" id="linearGradient4273">
   <stop style="stop-color:#e3dfd6" id="stop4275"/>
   <stop offset="1" style="stop-color:#f4f1e8" id="stop4277"/>
  </linearGradient>
  <linearGradient inkscape:collect="always" id="linearGradient4152">
   <stop style="stop-color:#bd8d48" id="stop4154"/>
   <stop offset="1" style="stop-color:#e8b971" id="stop4156"/>
  </linearGradient>
  <linearGradient inkscape:collect="always" xlink:href="#linearGradient4273" id="linearGradient4768" x1="428.57144" x2="406.57144" gradientUnits="userSpaceOnUse"/>
  <linearGradient inkscape:collect="always" id="linearGradient4300-7">
   <stop style="stop-color:#f39c12" id="stop4302-4"/>
   <stop offset="1" style="stop-color:#f5ab35" id="stop4304-1"/>
  </linearGradient>
  <linearGradient inkscape:collect="always" xlink:href="#linearGradient4300-7" id="linearGradient4943" y1="516.79797" x1="392.57144" y2="508.798" x2="400.57144" gradientUnits="userSpaceOnUse" gradientTransform="matrix(1 0 0 1 0.000004 0.999997)"/>
  <linearGradient inkscape:collect="always" xlink:href="#linearGradient5026" id="linearGradient5038" x1="427.71429" x2="437.71429" gradientUnits="userSpaceOnUse"/>
  <linearGradient inkscape:collect="always" xlink:href="#linearGradient5026" id="linearGradient5040" y1="541.50775" x1="428.75562" y2="528.51251" gradientUnits="userSpaceOnUse" x2="430.46646"/>
  <linearGradient inkscape:collect="always" xlink:href="#linearGradient5044" id="linearGradient5050" y1="531.79071" y2="544.79071" x2="0" gradientUnits="userSpaceOnUse" gradientTransform="matrix(0.70710678 -0.70710678 0.70710678 0.70710678 -649.00805 -56.05763)"/>
 </defs>
 <metadata id="metadata5458"/>
 <g inkscape:label="Capa 1" inkscape:groupmode="layer" id="layer1" transform="matrix(1 0 0 1 -384.57143 -499.798)">
  <g id="g5065" transform="matrix(0.96592583 -0.25881905 0.25881905 0.96592583 -120.31573 121.70729)">
   <rect id="rect4933" style="fill:url(#linearGradient4943);color:#000000;stroke-linecap:round;stroke-linejoin:round" x="392.57144" y="509.798" width="19" height="16"/>
   <rect id="rect4935" style="fill:#ffffff;opacity:0.2;color:#000000;stroke-linecap:round;stroke-linejoin:round" x="392.57144" y="509.798" width="19" height="3"/>
  </g>
  <rect id="rect4391-6" style="fill:url(#linearGradient4466-8);color:#000000;stroke-linecap:round;stroke-linejoin:round" x="406.57144" y="504.798" width="22" height="33"/>
  <rect id="rect4391-6-7" style="fill:url(#linearGradient4768);color:#000000;stroke-linecap:round;stroke-linejoin:round" x="406.57144" y="505.798" width="22" height="33"/>
  <rect id="rect4391" style="fill:url(#linearGradient4466);color:#000000;stroke-linecap:round;stroke-linejoin:round" x="406.57144" y="506.798" width="22" height="33"/>
  <g inkscape:label="Capa 1" style="fill:url(#linearGradient5038)" id="layer1-5" transform="matrix(1 0 0 1 -15.14286 -17.99274)">
   <path style="fill:url(#linearGradient5050);opacity:0.2;color:#000000;stroke-linecap:round;stroke-linejoin:round" id="rect5042" d="M 35.121094 11.878906 L 30.878906 16.121094 L 33.515625 18.757812 L 29.625 18.90625 L 29 20 L 29 23 L 37.984375 23.228516 L 40.070312 25.314453 L 44.314453 21.070312 L 35.121094 11.878906 z " transform="matrix(1 0 0 1 399.71429 517.79074)"/>
   <path inkscape:connector-curvature="0" style="fill:url(#linearGradient5040)" id="rect4109" d="m 432.71429,528.79074 c -1.662,0 -3,1.338 -3,3 0,1.662 1.338,3 3,3 1.662,0 3,-1.338 3,-3 0,-1.662 -1.338,-3 -3,-3 z m 0,7 c -2.77,0 -5,0.89198 -5,2 l 0,5 0,1 1.20117,0 7.59766,0 1.20117,0 0,-1 0,-5 c 0,-1.10802 -2.23,-2 -5,-2 z m 0,1 c 2.216,0 4,0.6363 4,1.42773 l 0,4.57227 -8,0 0,-4.57227 c 0,-0.79143 1.784,-1.42773 4,-1.42773 z"/>
  </g>
  <path inkscape:connector-curvature="0" style="fill:url(#linearGradient4486)" id="rect4248" d="m 388.57143,519.798 0,24 40,0 0,-24 z"/>
  <rect width="39.999989" x="388.57144" y="542.79797" height="1" style="fill:#d1d3d4" id="rect4488"/>
  <path inkscape:connector-curvature="0" style="fill:#c0392b;fill-rule:evenodd" id="path4188" d="m 391.57143,543.79797 1,-1.99997 2,0 -1,1.99997 z"/>
  <path inkscape:connector-curvature="0" style="fill:#2980b9;fill-rule:evenodd" id="path4188-3" d="m 399.57143,543.79797 1,-1.99997 2,0 -1,1.99997 z"/>
  <path inkscape:connector-curvature="0" style="fill:#c0392b;fill-rule:evenodd" id="path4188-3-0" d="m 407.57143,543.79797 1,-1.99997 2,0 -1,1.99997 z"/>
  <path inkscape:connector-curvature="0" style="fill:#2980b9;fill-rule:evenodd" id="path4188-33" d="m 415.57143,543.79797 1,-1.99997 2,0 -1,1.99997 z"/>
  <path inkscape:connector-curvature="0" style="fill:#c0392b;fill-rule:evenodd" id="path4188-3-7" d="m 423.57143,543.79797 1,-1.99997 2,0 -1,1.99997 z"/>
  <path inkscape:connector-curvature="0" style="fill:#2980b9;fill-rule:evenodd" id="path4188-3-0-2" d="m 426.57147,537.798 1.99996,1 0,2 -1.99996,-1 z"/>
  <path inkscape:connector-curvature="0" style="fill:#c0392b;fill-rule:evenodd" id="path4188-33-7" d="m 426.57147,529.798 1.99996,1 0,2 -1.99996,-1 z"/>
  <path inkscape:connector-curvature="0" style="fill:#2980b9;fill-rule:evenodd" id="path4188-3-7-6" d="m 426.57147,521.798 1.99996,1 0,2 -1.99996,-1 z"/>
  <path inkscape:connector-curvature="0" style="fill:#2980b9;fill-rule:evenodd" id="path4188-3-0-2-3" d="m 390.57143,538.798 -1.99996,1 0,2 1.99996,-1 z"/>
  <path inkscape:connector-curvature="0" style="fill:#c0392b;fill-rule:evenodd" id="path4188-33-7-1" d="m 390.57143,530.798 -1.99996,1 0,2 1.99996,-1 z"/>
  <path inkscape:connector-curvature="0" style="fill:#2980b9;fill-rule:evenodd" id="path4188-3-7-6-0" d="m 390.57143,522.798 -1.99996,1 0,2 1.99996,-1 z"/>
  <path inkscape:connector-curvature="0" style="fill:#c0392b;fill-rule:evenodd" id="path4188-0" d="m 390.57143,519.798 1,1.99997 2,0 -1,-1.99997 z"/>
  <path inkscape:connector-curvature="0" style="fill:#2980b9;fill-rule:evenodd" id="path4188-3-1" d="m 398.57143,519.798 1,1.99997 2,0 -1,-1.99997 z"/>
  <path inkscape:connector-curvature="0" style="fill:#c0392b;fill-rule:evenodd" id="path4188-3-0-0" d="m 406.57143,519.798 1,1.99997 2,0 -1,-1.99997 z"/>
  <path inkscape:connector-curvature="0" style="fill:#2980b9;fill-rule:evenodd" id="path4188-33-1" d="m 414.57143,519.798 1,1.99997 2,0 -1,-1.99997 z"/>
  <path inkscape:connector-curvature="0" style="fill:#c0392b;fill-rule:evenodd" id="path4188-3-7-4" d="m 422.57143,519.798 1,1.99997 2,0 -1,-1.99997 z"/>
  <path inkscape:connector-curvature="0" style="fill:url(#linearGradient4356);opacity:0.2;fill-rule:evenodd" id="path4340" d="m 424.57143,523.798 4,4 0,11 -9,-9 z"/>
  <rect id="rect4318" style="fill:#fcfcfc;color:#000000;stroke-linecap:round;stroke-linejoin:round" x="419.57144" y="523.79797" width="5" height="6"/>
  <rect id="rect4320" style="fill:#16a085;color:#000000;stroke-linecap:round;stroke-linejoin:round" x="420.57144" y="524.79797" width="2.999988" height="4.00003"/>
  <g id="g4382">
   <rect id="rect4358" style="fill:#bdc3c7;color:#000000;stroke-linecap:round;stroke-linejoin:round" x="404.57144" y="528.79797" width="6.999989" height="1.00003"/>
   <rect id="rect4360" style="fill:#bdc3c7;color:#000000;stroke-linecap:round;stroke-linejoin:round" x="404.57144" y="530.79797" width="3.999988" height="1.00003"/>
   <rect id="rect4362" style="fill:#bdc3c7;color:#000000;stroke-linecap:round;stroke-linejoin:round" x="404.57144" y="532.79797" width="9.999989" height="1.00003"/>
   <rect id="rect4364" style="fill:#bdc3c7;color:#000000;stroke-linecap:round;stroke-linejoin:round" x="404.57144" y="534.79797" width="5" height="1"/>
   <rect id="rect4366" style="fill:#bdc3c7;color:#000000;stroke-linecap:round;stroke-linejoin:round" x="392.57144" y="523.79797" width="4" height="1"/>
   <rect id="rect4368" style="fill:#bdc3c7;color:#000000;stroke-linecap:round;stroke-linejoin:round" x="392.57144" y="525.79797" width="7" height="1"/>
   <rect id="rect4370" style="fill:#bdc3c7;color:#000000;stroke-linecap:round;stroke-linejoin:round" x="392.57144" y="527.79797" width="6" height="1"/>
  </g>
  <rect id="rect4468" style="fill:#7f8c8d;color:#000000;stroke-linecap:round;stroke-linejoin:round" x="409.57144" y="503.798" width="1" height="4"/>
  <rect id="rect4468-7" style="fill:#7f8c8d;color:#000000;stroke-linecap:round;stroke-linejoin:round" x="424.57144" y="503.798" width="1" height="4"/>
  <rect id="rect4468-7-8" style="fill:#7f8c8d;color:#000000;stroke-linecap:round;stroke-linejoin:round" x="414.57144" y="503.798" width="1" height="4"/>
  <rect id="rect4468-7-8-2-1" style="fill:#7f8c8d;color:#000000;stroke-linecap:round;stroke-linejoin:round" x="419.57144" y="503.798" width="1" height="4"/>
 </g>
</svg>
