<?xml version="1.0" encoding="UTF-8" standalone="no"?>

<!-- Created with Inkscape (http://www.inkscape.org/) -->
<svg width="48" version="1.1" xmlns="http://www.w3.org/2000/svg" height="48" xmlns:xlink="http://www.w3.org/1999/xlink" xmlns:inkscape="http://www.inkscape.org/namespaces/inkscape">
 <defs id="defs5455">
  <linearGradient inkscape:collect="always" id="linearGradient4283">
   <stop id="stop4285"/>
   <stop offset="1" style="stop-opacity:0" id="stop4287"/>
  </linearGradient>
  <linearGradient inkscape:collect="always" xlink:href="#linearGradient4283" id="linearGradient4289" y1="20.985394" x1="23.718788" y2="30.733" x2="33.466393" gradientUnits="userSpaceOnUse" gradientTransform="matrix(0.99521603 0.09769877 -0.09769877 0.99521603 385.61421 496.52234)"/>
  <linearGradient inkscape:collect="always" id="linearGradient4214">
   <stop style="stop-color:#2f74c8" id="stop4216"/>
   <stop offset="1" style="stop-color:#4699d7" id="stop4218"/>
  </linearGradient>
  <linearGradient inkscape:collect="always" id="linearGradient4416" xlink:href="#linearGradient4214" y1="43.999973" y2="4" gradientUnits="userSpaceOnUse" x2="0" gradientTransform="matrix(-1 0 0 1 432.57143 499.798)"/>
  <linearGradient inkscape:collect="always" id="linearGradient4149" xlink:href="#linearGradient4143" y1="545.79797" y2="517.79797" gradientUnits="userSpaceOnUse" x2="0" gradientTransform="matrix(0.92857108 0 0 0.92857057 28.612354 37.986142)"/>
  <linearGradient inkscape:collect="always" id="linearGradient4143">
   <stop style="stop-color:#197cf1" id="stop4145"/>
   <stop offset="1" style="stop-color:#20bcfa" id="stop4147"/>
  </linearGradient>
  <linearGradient inkscape:collect="always" id="linearGradient4290">
   <stop style="stop-color:#7cbaf8" id="stop4292"/>
   <stop offset="1" style="stop-color:#f4fcff" id="stop4294"/>
  </linearGradient>
  <linearGradient inkscape:collect="always" id="linearGradient3077" xlink:href="#linearGradient4290" y1="29.999973" y2="2" x2="0" gradientUnits="userSpaceOnUse" gradientTransform="matrix(1.3793103 0 0 1.3793103 1.241379 1005.6035)"/>
  <linearGradient inkscape:collect="always" id="linearGradient3083" xlink:href="#linearGradient4143" y1="545.79797" y2="517.79797" x2="0" gradientUnits="userSpaceOnUse" gradientTransform="matrix(1.2807877 0 0 1.280787 -450.11598 346.31133)"/>
  <linearGradient inkscape:collect="always" id="linearGradient3870" xlink:href="#linearGradient4290" y1="29.999973" y2="2" x2="0" gradientUnits="userSpaceOnUse" gradientTransform="matrix(1.3793103 0 0 1.3793103 -18.758621 1005.6035)"/>
  <linearGradient inkscape:collect="always" xlink:href="#linearGradient4290" id="linearGradient4279" y1="522.79797" y2="492.798" x2="0" gradientUnits="userSpaceOnUse" gradientTransform="matrix(1 0 0 1 31 10)"/>
 </defs>
 <metadata id="metadata5458"/>
 <g inkscape:label="Capa 1" inkscape:groupmode="layer" id="layer1" transform="matrix(1 0 0 1 -384.57143 -499.798)">
  <path inkscape:connector-curvature="0" style="fill:url(#linearGradient4416);fill-rule:evenodd" id="path4445-0" d="m 428.57143,503.798 0,30 -20,0 -11,10 0,-10 -9,0 0,-30 40,0 z"/>
  <path inkscape:transform-center-x="-13.70381" inkscape:transform-center-y="10.94307" inkscape:connector-curvature="0" style="fill:url(#linearGradient4289);opacity:0.2;stroke-linecap:round;stroke-linejoin:round;stroke-width:2" id="rect4187-9" d="m 413.59618,508.31254 -1.09291,0.89753 c 0,0 3.06732,4.09301 3.06574,9.09302 -2.8e-4,1.04333 -0.14205,2.02763 -0.33745,2.95773 l -3.66194,-4.45917 -4.07014,-10e-4 -4.92934,-6.00249 -2.99871,0 -0.002,3.00047 16.42878,20.00546 12.56494,6.5e-4 0.008,-8.00674 -13.2176,-15.7368 c -0.43282,-0.52217 -1.7575,-1.74844 -1.7575,-1.74844 z m -11.02856,14.48597 -3.00067,-1.7e-4 0,2.99873 0.8969,-2.4e-4 -1.7e-4,0.45923 c -0.24912,0.53238 -0.89708,0.5419 -0.89708,0.5419 l -0.002,0.99874 7.05474,7.3729 1.94387,-1.36937 3.0406,0.002 -9.03653,-11.00385 z"/>
  <path inkscape:connector-curvature="0" style="fill:url(#linearGradient4279);stroke-linecap:round;stroke-linejoin:round;stroke-width:2" id="rect4187" d="m 413.59726,508.31829 -1.0933,0.89705 c 0,0 3.06556,4.09433 3.06184,9.09434 -0.004,4.99999 -2.83776,9.01504 -2.83776,9.01504 l 0.89705,1.0933 c 0,0 4.93422,-3.10705 4.93943,-10.10705 0.005,-7.00001 -4.96726,-9.99268 -4.96726,-9.99268 z m -11.02711,2.48071 -2.99872,-10e-4 -0.003,3.00047 3.00066,0.001 10e-4,-3.00066 z m 8.99689,6.00752 -6.00113,-0.005 -10e-4,3.00066 5.99919,0.005 0.003,-3.00047 z m -9.00457,5.993 -3.00066,-10e-4 -10e-4,2.99872 0.99892,3.6e-4 c -7.3e-4,1.00001 -0.99948,1.00051 -0.99948,1.00051 l -0.002,0.99873 1.00068,0.002 c 1.99999,10e-4 2.00072,-1.99887 2.00072,-1.99887 l 0.003,-3.00047 z"/>
 </g>
</svg>
