<?xml version="1.0" encoding="UTF-8"?>
<!-- Created with Inkscape (http://www.inkscape.org/) -->
<svg width="48" height="48" version="1.1" viewBox="0 0 12.7 12.7" xmlns="http://www.w3.org/2000/svg" xmlns:cc="http://creativecommons.org/ns#" xmlns:dc="http://purl.org/dc/elements/1.1/" xmlns:rdf="http://www.w3.org/1999/02/22-rdf-syntax-ns#" xmlns:xlink="http://www.w3.org/1999/xlink">
 <defs>
  <linearGradient id="linearGradient3030">
   <stop stop-color="#232629" offset="0"/>
   <stop stop-color="#31363b" offset="1"/>
  </linearGradient>
  <linearGradient id="linearGradient884">
   <stop stop-color="#4d4d4d" offset="0"/>
   <stop stop-color="#7f8c8d" offset="1"/>
  </linearGradient>
  <linearGradient id="linearGradient886" x1="38" x2="38" y1="288" y2="260" gradientTransform="translate(-20.695833,-2.9999624)" gradientUnits="userSpaceOnUse" xlink:href="#linearGradient884"/>
  <linearGradient id="linearGradient967" x1="24" x2="24" y1="294" y2="257" gradientTransform="matrix(1 0 0 .97619045 0 5.9999989)" gradientUnits="userSpaceOnUse">
   <stop stop-color="#1d99f3" offset="0"/>
   <stop stop-color="#3daee9" offset="1"/>
  </linearGradient>
  <linearGradient id="linearGradient2698" x1="38" x2="38" y1="288" y2="260" gradientTransform="translate(-13.816665,-2.9999624)" gradientUnits="userSpaceOnUse" xlink:href="#linearGradient884"/>
  <linearGradient id="linearGradient2728" x1="29.588079" x2="29.588079" y1="281.11707" y2="290.73599" gradientTransform="matrix(.99950003 0 0 .99937512 -5.128573 -248.81628)" gradientUnits="userSpaceOnUse">
   <stop stop-opacity=".2" offset="0"/>
   <stop stop-color="#fff" stop-opacity="0" offset="1"/>
  </linearGradient>
  <linearGradient id="linearGradient3154" x1="32.114254" x2="32.114254" y1="263.09515" y2="271.94937" gradientTransform="translate(1.1442699e-6,5.180116e-6)" gradientUnits="userSpaceOnUse">
   <stop stop-color="#232629" offset="0"/>
   <stop stop-color="#31363b" offset="1"/>
  </linearGradient>
  <linearGradient id="linearGradient3194" x1="32.114254" x2="32.114254" y1="263.09515" y2="271.94937" gradientUnits="userSpaceOnUse" xlink:href="#linearGradient3030"/>
  <linearGradient id="linearGradient918" x1="90.319038" x2="120.33868" y1="-162.79909" y2="139.84253" gradientTransform="matrix(.26445105 0 0 .264418 .02249839 .02811591)" gradientUnits="userSpaceOnUse">
   <stop stop-color="#2980b9" offset="0"/>
   <stop stop-color="#3daee9" stop-opacity="0" offset="1"/>
  </linearGradient>
  <linearGradient id="linearGradient1304" x1="24" x2="24" y1="294" y2="257" gradientTransform="matrix(.99999998 0 0 .97619046 0 5.9999946)" gradientUnits="userSpaceOnUse">
   <stop stop-color="#27ae60" offset="0"/>
   <stop stop-color="#2ecc71" offset="1"/>
  </linearGradient>
 </defs>
 <metadata>
  <rdf:RDF>
   <cc:Work rdf:about="">
    <dc:format>image/svg+xml</dc:format>
    <dc:type rdf:resource="http://purl.org/dc/dcmitype/StillImage"/>
    <dc:title/>
   </cc:Work>
  </rdf:RDF>
 </metadata>
 <g transform="matrix(.26445105 0 0 .264418 .0059527 -65.832643)">
  <rect x="3.9794912" y="253.97499" width="40.020008" height="39.024387" rx="6.0037541" ry="6.0037541" fill="#34495e" style="paint-order:markers fill stroke"/>
  <path transform="matrix(1.0005002 0 0 1.0006253 -.02250965 248.97187)" d="m10 4c-3.3244169 0-6 2.6759986-6 6v27c0 3.324001 2.6755831 6 6 6h28c3.324417 0 6-2.675999 6-6v-27c0-3.3240014-2.675583-6-6-6z" fill="#34495e" stroke-width=".99943757" style="paint-order:markers fill stroke"/>
  <rect x="3.9794912" y="252.97437" width="40.020008" height="39.024387" rx="6.0037541" ry="6.0037541" fill="url(#linearGradient967)" style="paint-order:markers fill stroke"/>
  <path transform="matrix(1.0005002 0 0 1.0006253 -.02250965 248.97187)" d="m30.990234 5.0039024v8.9941406l-4.998046-4.9960937v9.9941407l-10.994141-10.994141v8.9960937l-4.998047-4.998047v1l-1.9999998-2v12.373047c15.046899-1.523284 24.188008-4.826343 35.982422-6.037109v-6.773438c0-0.376094-0.03793-0.7430432-0.103516-1.0996092l-3.898437-3.8984375 0.0039 8.4335937z" fill="url(#linearGradient918)" stroke-width=".26443452"/>
  <path transform="matrix(1.0005002 0 0 1.0006253 -.02250965 248.97187)" d="m29.986328 5.0039062v2h-0.998047v6.9941408h-3v-4.9960939h-1.998047v0.9999999h-1v3.996094h-4.998046l-1.998047-1.998047v-1l-1-0.998047v-1.9999999h-1.998047v1h-1v4.9960939l-2.0000002 2v-3.998047h-1.9980469v-1h-2.9980469l-1 1v24.005859h40v-24.005859h-2.019531v-1.998047h-1.998047l-0.00586-4.4374999-3.996093 3.9980469 0.003906 2.4375h-2v-1l-1.998047-1.9980469v-1.9980469h-1v-2z" fill="#2980b9" stroke-width=".99943757"/>
  <rect x="6.9999995" y="257" width="5.9999995" height="16.815884" ry="0" fill-opacity="0" style="paint-order:normal"/>
  <path d="m20.304239 282.02127a2.9999998 2.9999998 0 0 1-2.994685 3 2.9999998 2.9999998 0 0 1-3.005296-2.98937 2.9999998 2.9999998 0 0 1 2.984038-3.01059 2.9999998 2.9999998 0 0 1 3.015868 2.9787" fill="url(#linearGradient886)" style="paint-order:markers fill stroke"/>
  <path d="m3.9794912 285.99891c0.00212 3.32425 2.6782379 5.99985 6.0030012 5.99985h28.014006c3.324763 0 6.000883-2.6756 6.003001-5.99985z" fill="url(#linearGradient1304)" stroke-width=".26458332" style="paint-order:markers fill stroke"/>
  <path transform="matrix(1.0005002 0 0 1.0006253 -.02250965 248.97187)" d="M 44,29.632812 19.042969,30.03125 5.6953125,31.207031 16.226562,41.738281 H 38.105469 C 38.876145,40.880178 42.00235,39.822104 43.765625,38.652344 43.915028,38.127056 44,37.574465 44,37 Z" fill="url(#linearGradient2728)" stroke-width=".99943757"/>
  <path d="m27.183407 282.02127a2.9999998 2.9999998 0 0 1-2.994686 3 2.9999998 2.9999998 0 0 1-3.005295-2.98937 2.9999998 2.9999998 0 0 1 2.984037-3.01059 2.9999998 2.9999998 0 0 1 3.015868 2.9787" fill="url(#linearGradient2698)" style="paint-order:markers fill stroke"/>
  <path d="m32.015625 254.91211a0.50005 0.50005 0 0 0-0.271484 0.0762l-6 3.58203a0.50005 0.50005 0 0 0 0.08594 0.90039l11 4a0.50043179 0.50043179 0 1 0 0.339844-0.9414l-10.009766-3.64063 5.095703-3.04297a0.50005 0.50005 0 0 0-0.240234-0.93359z" color="#000000" color-rendering="auto" dominant-baseline="auto" fill="#2c3e50" image-rendering="auto" shape-rendering="auto" solid-color="#000000" style="font-feature-settings:normal;font-variant-alternates:normal;font-variant-caps:normal;font-variant-ligatures:normal;font-variant-numeric:normal;font-variant-position:normal;isolation:auto;mix-blend-mode:normal;shape-padding:0;text-decoration-color:#000000;text-decoration-line:none;text-decoration-style:solid;text-indent:0;text-orientation:mixed;text-transform:none;white-space:normal"/>
  <g transform="translate(0 -.16703612)">
   <path transform="matrix(1.0005002 0 0 1.0006253 -.02250965 249.1389)" d="m24.210938 12.019531-0.0059 0.0039a7.9100471 7.909054 0 0 0-0.03711-2e-3 7.9100471 7.909054 0 0 0-5.322266 2.107422l-0.01953 0.0078-13.197266 11.671875 0.00195 2e-3a3.5290767 3.5286338 0 0 0-1.2265625 2.681641 3.5290767 3.5286338 0 0 0 3.5292969 3.515624h36.066449v-19.986309z" fill="#bdc3c7" stroke-width=".26443452"/>
   <path transform="matrix(1.0005002 0 0 1.0006253 -.02250965 249.1389)" d="m24.210938 12.019531-0.0059 0.0039a7.9100471 7.909054 0 0 0-0.03711-2e-3 7.9100471 7.909054 0 0 0-5.322266 2.107422l-0.01953 0.0078-13.197266 11.671875 0.00195 2e-3a3.5290767 3.5286338 0 0 0-1.1875 2.164062 3.5290767 3.5286338 0 0 0 3.4902344 3.033203v2e-3h36.066449v-18.988309z" fill="#fdfdfd" stroke-width=".26443452"/>
   <path transform="matrix(1.0005002 0 0 1.0006253 -.02250965 249.1389)" d="m6.6757812 5c-0.4246286 0.2821468-0.8057787 0.6216122-1.1445312 1h36.9375c-0.338752-0.3783878-0.719903-0.7178532-1.144531-1h-22.658203z" color="#000000" color-rendering="auto" dominant-baseline="auto" fill="#34495e" image-rendering="auto" shape-rendering="auto" solid-color="#000000" stroke-width=".99943757" style="font-feature-settings:normal;font-variant-alternates:normal;font-variant-caps:normal;font-variant-ligatures:normal;font-variant-numeric:normal;font-variant-position:normal;isolation:auto;mix-blend-mode:normal;shape-padding:0;text-decoration-color:#000000;text-decoration-line:none;text-decoration-style:solid;text-indent:0;text-orientation:mixed;text-transform:none;white-space:normal"/>
  </g>
  <path transform="matrix(1.0005002 0 0 1.0006253 -.02250965 248.97187)" d="m7.6582031 24.013672-2.0292969 1.794922 0.00195 2e-3a3.5290767 3.5286338 0 0 0-0.9003906 1.201172c13.150614-2e-5 26.27861-1.9e-5 39.269531 0v-2.998047c-12.073-9e-6 -24.056254-1e-5 -36.341797 0z" color="#000000" color-rendering="auto" dominant-baseline="auto" fill="#da4453" image-rendering="auto" shape-rendering="auto" solid-color="#000000" stroke-width=".26443452" style="font-feature-settings:normal;font-variant-alternates:normal;font-variant-caps:normal;font-variant-ligatures:normal;font-variant-numeric:normal;font-variant-position:normal;isolation:auto;mix-blend-mode:normal;shape-padding:0;text-decoration-color:#000000;text-decoration-line:none;text-decoration-style:solid;text-indent:0;text-orientation:mixed;text-transform:none;white-space:normal"/>
  <g fill="#34495e">
   <g transform="matrix(.4329478 0 0 .4329478 12.494575 149.38378)">
    <path d="m10.829313 280.19862" fill="#34495e" stroke="#000" stroke-width=".26458332px"/>
   </g>
   <path d="m17.566857 270.61263" stroke="#000" stroke-width=".10583322px"/>
   <path d="m17.813678 269.58765a1.4123354 1.4123347 0 0 1-1.409834 1.41233 1.4123354 1.4123347 0 0 1-1.414828-1.40733 1.4123354 1.4123347 0 0 1 1.404821-1.41732 1.4123354 1.4123347 0 0 1 1.419805 1.40231" style="paint-order:normal"/>
   <rect transform="skewY(8.4403883e-4)" x="22.915226" y="262.99966" width="8.0847721" height="7.999876" ry=".99987638" style="paint-order:normal"/>
   <rect transform="skewY(1.7310736e-4)" x="16.401342" y="268.17529" width="12.598658" height="2.8246315" ry="0" style="paint-order:normal"/>
   <path d="m15.478807 268.51826 5.28127-4.67136 2.15515-0.8469s0.441992 1.92888 0.572656 2.50902-0.187386 3.36775-0.187386 3.36775l-6.454553 0.87932z"/>
   <path d="m26.080824 266.16559a3.1655984 3.1655967 0 0 1-3.15999 3.16559 3.1655984 3.1655967 0 0 1-3.171187-3.15438 3.1655984 3.1655967 0 0 1 3.148755-3.17676 3.1655984 3.1655967 0 0 1 3.182343 3.14312" style="paint-order:normal"/>
   <rect x="22.999998" y="263" width="2.9999998" height=".99999994" rx="0" ry="0" style="paint-order:normal"/>
  </g>
  <path d="m34.000359 263.00017c-0.554 0-1.0005 0.44662-1.0005 1.00062v5.99985c0 0.554 0.4465 0.99867 1.0005 0.99867h9.99914v-7.99914z" fill="#34495e" stroke-width=".26458332" style="paint-order:normal"/>
  <path d="m34.000359 264.00079c-0.554 0-1.0005 0.44467-1.0005 0.99867v5.00118c0 0.554 0.4465 0.99867 1.0005 0.99867h9.99914v-6.99852z" fill="url(#linearGradient3154)" stroke-width=".26458332" style="paint-order:normal"/>
  <g transform="matrix(.93685634 0 0 .87499915 1.9574532 33.875231)" fill="url(#linearGradient3194)">
   <g transform="matrix(.4329478 0 0 .4329478 12.494575 149.38378)">
    <path d="m10.829313 280.19862" fill="url(#linearGradient3194)" stroke="#000" stroke-width=".26458332px"/>
   </g>
   <path d="m17.566857 270.61263" stroke="#000" stroke-width=".10583322px"/>
   <path d="m17.813678 269.58765a1.4123354 1.4123347 0 0 1-1.409834 1.41233 1.4123354 1.4123347 0 0 1-1.414828-1.40733 1.4123354 1.4123347 0 0 1 1.404821-1.41732 1.4123354 1.4123347 0 0 1 1.419805 1.40231" style="paint-order:normal"/>
   <rect transform="skewY(8.4403883e-4)" x="22.915226" y="262.99966" width="8.0847721" height="7.999876" ry=".99987638" style="paint-order:normal"/>
   <rect transform="skewY(1.7310736e-4)" x="16.401342" y="268.17529" width="12.598658" height="2.8246315" ry="0" style="paint-order:normal"/>
   <path d="m15.478807 268.51826 5.28127-4.67136 2.15515-0.8469s0.441992 1.92888 0.572656 2.50902-0.187386 3.36775-0.187386 3.36775l-6.454553 0.87932z"/>
   <path d="m26.080824 266.16559a3.1655984 3.1655967 0 0 1-3.15999 3.16559 3.1655984 3.1655967 0 0 1-3.171187-3.15438 3.1655984 3.1655967 0 0 1 3.148755-3.17676 3.1655984 3.1655967 0 0 1 3.182343 3.14312" style="paint-order:normal"/>
   <rect x="22.999998" y="263" width="2.9999998" height=".99999994" rx="0" ry="0" style="paint-order:normal"/>
  </g>
  <path d="m3.9794912 285.00024v0.99477c0 0.34307 0.035138 0.67748 0.089889 1.00453h39.84023c0.05475-0.32705 0.08989-0.66146 0.08989-1.00453v-0.99477z" fill="#34495e" style="paint-order:normal"/>
  <path d="m3.9794912 285.00024v0.99477c0 2e-3 -2e-6 4e-3 0 6e-3h40.020008c2e-6 -2e-3 0-4e-3 0-6e-3v-0.99477z" fill="#3daee9" style="paint-order:normal"/>
  <path d="m29 254.91602a0.50005 0.50005 0 1 0 0 1h5a0.50005 0.50005 0 1 0 0-1z" color="#000000" color-rendering="auto" dominant-baseline="auto" fill="#233240" image-rendering="auto" shape-rendering="auto" solid-color="#000000" style="font-feature-settings:normal;font-variant-alternates:normal;font-variant-caps:normal;font-variant-ligatures:normal;font-variant-numeric:normal;font-variant-position:normal;isolation:auto;mix-blend-mode:normal;shape-padding:0;text-decoration-color:#000000;text-decoration-line:none;text-decoration-style:solid;text-indent:0;text-orientation:mixed;text-transform:none;white-space:normal"/>
 </g>
</svg>
