<?xml version="1.0" encoding="UTF-8" standalone="no"?>

<!-- Created with Inkscape (http://www.inkscape.org/) -->
<svg width="48" version="1.1" xmlns="http://www.w3.org/2000/svg" height="48" viewBox="0 0 48 48" xmlns:xlink="http://www.w3.org/1999/xlink" xmlns:inkscape="http://www.inkscape.org/namespaces/inkscape">
 <defs id="defs5455">
  <linearGradient inkscape:collect="always" id="linearGradient4538">
   <stop id="stop4540"/>
   <stop offset="1" style="stop-opacity:0" id="stop4542"/>
  </linearGradient>
  <linearGradient inkscape:collect="always" xlink:href="#linearGradient4538" id="linearGradient4325" y1="33.02386" x1="32.988281" y2="41.590538" x2="39.561726" gradientUnits="userSpaceOnUse" gradientTransform="matrix(1.0116242 0 0 1.0096892 384.29245 499.56546)"/>
  <linearGradient id="linearGradient5623">
   <stop style="stop-color:#d35400" id="stop5625"/>
   <stop offset="1" style="stop-color:#d35400" id="stop5627"/>
  </linearGradient>
  <linearGradient id="linearGradient3819">
   <stop style="stop-color:#eff0f1" id="stop3821"/>
   <stop offset="1" style="stop-color:#bdc3c7" id="stop3823"/>
  </linearGradient>
  <linearGradient inkscape:collect="always" xlink:href="#linearGradient4214" id="linearGradient4411" y1="271.68509" x1="617.02521" y2="238.66716" x2="597.96228" gradientUnits="userSpaceOnUse" gradientTransform="matrix(1.0111127 0 0 1.0101522 -6.636338 -2.024205)"/>
  <linearGradient inkscape:collect="always" id="linearGradient4143">
   <stop style="stop-color:#197cf1" id="stop4145"/>
   <stop offset="1" style="stop-color:#20bcfa" id="stop4147"/>
  </linearGradient>
  <linearGradient inkscape:collect="always" id="linearGradient4273-4">
   <stop style="stop-color:#e3dfd6" id="stop4275-4"/>
   <stop offset="1" style="stop-color:#f4f1e8" id="stop4277-8"/>
  </linearGradient>
  <linearGradient inkscape:collect="always" xlink:href="#linearGradient4273-4" id="linearGradient4490" y1="535.7525" x1="391.27722" y2="501.11148" x2="411.27722" gradientUnits="userSpaceOnUse" gradientTransform="matrix(1.0111127 0 0 1.0101523 -321.71936 128.71773)"/>
  <linearGradient inkscape:collect="always" id="linearGradient4290-2">
   <stop style="stop-color:#7cbaf8" id="stop4292"/>
   <stop offset="1" style="stop-color:#f4fcff" id="stop4294"/>
  </linearGradient>
  <linearGradient inkscape:collect="always" id="linearGradient4214">
   <stop style="stop-color:#2f74c8" id="stop4216"/>
   <stop offset="1" style="stop-color:#4699d7" id="stop4218"/>
  </linearGradient>
  <linearGradient inkscape:collect="always" xlink:href="#linearGradient4143" id="linearGradient4149" y1="545.79797" y2="517.79797" x2="0" gradientUnits="userSpaceOnUse" gradientTransform="matrix(0.92857108 0 0 0.92857057 28.612354 37.986142)"/>
  <linearGradient inkscape:collect="always" xlink:href="#linearGradient4290-2" id="linearGradient3077" y1="29.999973" y2="2" gradientUnits="userSpaceOnUse" x2="0" gradientTransform="matrix(1.3793103 0 0 1.3793103 1.241379 1005.6035)"/>
  <linearGradient inkscape:collect="always" xlink:href="#linearGradient4143" id="linearGradient3083" y1="545.79797" y2="517.79797" gradientUnits="userSpaceOnUse" x2="0" gradientTransform="matrix(1.2807877 0 0 1.280787 -450.11598 346.31133)"/>
  <linearGradient inkscape:collect="always" xlink:href="#linearGradient4290-2" id="linearGradient3870" y1="29.999973" y2="2" gradientUnits="userSpaceOnUse" x2="0" gradientTransform="matrix(1.3793103 0 0 1.3793103 -18.758621 1005.6035)"/>
  <linearGradient inkscape:collect="always" xlink:href="#linearGradient5623" id="linearGradient4818" y1="669.44122" x1="77.987396" y2="650.38733" x2="88.998711" gradientUnits="userSpaceOnUse"/>
  <linearGradient inkscape:collect="always" id="linearGradient4683">
   <stop style="stop-color:#f5955f" id="stop4685"/>
   <stop offset="1" style="stop-color:#facebe" id="stop4687"/>
  </linearGradient>
  <linearGradient inkscape:collect="always" xlink:href="#linearGradient4683" id="linearGradient4890" y1="548.93182" x1="427.75247" y2="529.54224" gradientUnits="userSpaceOnUse" x2="438.94708" gradientTransform="matrix(0.87609231 -0.50484461 0.50581214 0.87441653 -251.30822 277.04684)"/>
  <linearGradient inkscape:collect="always" xlink:href="#linearGradient4538" id="linearGradient4986" x1="398.57144" x2="419.25409" gradientUnits="userSpaceOnUse" gradientTransform="matrix(1 0 0 1 -384.57143 -499.798)"/>
 </defs>
 <metadata id="metadata5458"/>
 <g inkscape:label="Capa 1" inkscape:groupmode="layer" id="layer1" transform="matrix(1 0 0 1 -384.57143 -499.798)">
  <rect id="rect3375-6" style="fill:url(#linearGradient4411);color:#000000;stroke-linecap:round;stroke-linejoin:round;stroke-width:2.999927" x="595.71606" y="237.72189" rx="1.616286" width="40.444511" height="24.24365" transform="matrix(0.86643645 0.49928736 -0.50071298 0.86561337 0 0)"/>
  <path inkscape:connector-curvature="0" style="fill:#34495e;color:#000000;stroke-linecap:round;stroke-linejoin:round;stroke-width:3" id="rect3375-6-7" d="m 385.65614,523.09442 c -0.2393,0.7137 0.0477,1.51505 0.72656,1.90625 l 32.24219,18.58007 c 0.77585,0.44708 1.76258,0.18331 2.21094,-0.59179 l 10.52148,-18.1875 c 0.23848,-0.41226 0.26907,-0.88258 0.13477,-1.30078 -0.0342,0.10195 -0.0787,0.20389 -0.13477,0.30078 l -10.52148,18.1875 c -0.44836,0.7751 -1.43509,1.03887 -2.21094,0.59179 L 386.3827,524.00067 c -0.36319,-0.20929 -0.60835,-0.53817 -0.72656,-0.90625 z"/>
  <path inkscape:connector-curvature="0" style="fill:#31363b;color:#000000;stroke-linecap:round;stroke-linejoin:round;stroke-width:3" id="rect4570" d="m 4.2636719,17.728516 -2.1855469,3.779296 35.027344,20.222657 2.1875,-3.777344 z" transform="matrix(1 0 0 1 384.57143 499.798)"/>
  <path inkscape:connector-curvature="0" style="fill:url(#linearGradient4325);opacity:0.2;color:#000000;stroke-linecap:round;stroke-linejoin:round;stroke-width:3" id="rect3375-6-4" d="m 423.63317,518.48727 -22.53433,14.99546 17.52363,10.0969 c 0.77658,0.4475 1.76258,0.18348 2.21095,-0.59162 l 10.51931,-18.18624 c 0.44836,-0.7751 0.18582,-1.75921 -0.59077,-2.20672 z"/>
  <rect id="rect3375" style="fill:url(#linearGradient4490);color:#000000;stroke-linecap:round;stroke-linejoin:round;stroke-width:2.999927" x="71.17014" y="645.71161" rx="1.616286" width="40.444508" height="24.24365" transform="matrix(0.86643644 -0.49928738 0.50071296 0.86561339 0 0)"/>
  <path inkscape:connector-curvature="0" style="fill:#d9d3cc;color:#000000;stroke-linecap:round;stroke-linejoin:round;stroke-width:3" id="rect3375-11" d="m 431.48671,523.09449 c -0.11821,0.36809 -0.36337,0.69696 -0.72656,0.90625 l -32.24219,18.58008 c -0.77585,0.44708 -1.76257,0.1833 -2.21094,-0.5918 l -10.52148,-18.1875 c -0.056,-0.0969 -0.10058,-0.19882 -0.13477,-0.30078 -0.1343,0.41821 -0.10371,0.88853 0.13477,1.30078 l 10.52148,18.1875 c 0.44837,0.7751 1.43509,1.03888 2.21094,0.5918 l 32.24219,-18.58008 c 0.67886,-0.39119 0.96586,-1.19255 0.72656,-1.90625 z"/>
  <path inkscape:connector-curvature="0" style="fill:url(#linearGradient4986);opacity:0.1;fill-rule:evenodd" id="path4978" d="M 16.4375,19 14,39 l 3.015625,3.015625 16.800781,-9.681641 z" transform="matrix(1 0 0 1 384.57143 499.798)"/>
  <rect id="rect4209" style="fill:url(#linearGradient4818);color:#000000;stroke-linecap:round;stroke-linejoin:round;stroke-width:3" x="75.21037" y="649.75116" rx="0" width="12.133678" height="16.1628" transform="matrix(0.86643944 -0.49928219 0.50071816 0.86561038 0 0)"/>
  <path inkscape:connector-curvature="0" style="fill:url(#linearGradient4890)" id="rect4109" d="m 396.26984,522.72556 c -1.45606,0.83905 -1.9515,2.6845 -1.11084,4.13778 0.84066,1.45328 2.68965,1.94777 4.14571,1.10872 1.45607,-0.83905 1.95151,-2.6845 1.11085,-4.13778 -0.84066,-1.45328 -2.68965,-1.94777 -4.14572,-1.10872 z m 4.0465,6.99533 c -2.42678,1.39842 -3.92929,3.30419 -3.36884,4.27306 l 1.51744,2.62325 0.50581,0.87441 1.05234,-0.6064 6.65625,-3.83564 1.05233,-0.6064 -0.50581,-0.87442 -1.51744,-2.62325 c -0.56045,-0.96887 -2.96531,-0.62303 -5.39208,0.77539 z"/>
  <rect id="rect4226" style="fill:#4d4d4d;color:#000000;stroke-linecap:round;stroke-linejoin:round;stroke-width:3" x="89.36635" y="649.75116" width="8.089127" height="2.02035" transform="matrix(0.86643944 -0.49928219 0.50071816 0.86561038 0 0)"/>
  <rect id="rect4228" style="fill:#4d4d4d;color:#000000;stroke-linecap:round;stroke-linejoin:round;stroke-width:3" x="98.4666" y="649.75116" width="2.022282" height="2.02035" transform="matrix(0.86643944 -0.49928219 0.50071816 0.86561038 0 0)"/>
  <rect id="rect4230" style="fill:#7f8c8d;color:#000000;stroke-linecap:round;stroke-linejoin:round;stroke-width:3" x="89.36635" y="653.79187" width="7.077986" height="1.01017" transform="matrix(0.86643944 -0.49928219 0.50071816 0.86561038 0 0)"/>
  <rect id="rect4232" style="fill:#7f8c8d;color:#000000;stroke-linecap:round;stroke-linejoin:round;stroke-width:3" x="97.45546" y="653.79187" width="2.022282" height="1.01017" transform="matrix(0.86643944 -0.49928219 0.50071816 0.86561038 0 0)"/>
  <rect id="rect4234" style="fill:#7f8c8d;color:#000000;stroke-linecap:round;stroke-linejoin:round;stroke-width:3" x="100.48888" y="653.79187" width="7.077986" height="1.01017" transform="matrix(0.86643944 -0.49928219 0.50071816 0.86561038 0 0)"/>
  <rect id="rect4236" style="fill:#7f8c8d;color:#000000;stroke-linecap:round;stroke-linejoin:round;stroke-width:3" x="89.36635" y="656.82239" width="18.200535" height="1.01017" transform="matrix(0.86643944 -0.49928219 0.50071816 0.86561038 0 0)"/>
  <rect id="rect4238" style="fill:#d9d3cc;color:#000000;stroke-linecap:round;stroke-linejoin:round;stroke-width:3" x="103.52229" y="661.87329" width="4.044563" height="4.04069" transform="matrix(0.86643944 -0.49928219 0.50071816 0.86561038 0 0)"/>
  <rect id="rect4238-8" style="fill:#d9d3cc;color:#000000;stroke-linecap:round;stroke-linejoin:round;stroke-width:3" x="98.41159" y="661.88593" width="4.044563" height="4.04069" transform="matrix(0.86643944 -0.49928219 0.50071816 0.86561038 0 0)"/>
 </g>
</svg>
