<?xml version="1.0" encoding="UTF-8" standalone="no"?>

<!-- Created with Inkscape (http://www.inkscape.org/) -->
<svg width="48" version="1.1" xmlns="http://www.w3.org/2000/svg" height="48" xmlns:xlink="http://www.w3.org/1999/xlink" xmlns:inkscape="http://www.inkscape.org/namespaces/inkscape">
 <defs id="defs5455">
  <linearGradient inkscape:collect="always" id="linearGradient4152">
   <stop style="stop-color:#bd8d48" id="stop4154"/>
   <stop offset="1" style="stop-color:#e8b971" id="stop4156"/>
  </linearGradient>
  <linearGradient inkscape:collect="always" id="linearGradient4586" xlink:href="#linearGradient4273" y1="543.79797" y2="503.798" x1="434.57144" gradientUnits="userSpaceOnUse" x2="384.57144" gradientTransform="matrix(1 0 0 1 -0.000012 0)"/>
  <linearGradient inkscape:collect="always" id="linearGradient4273">
   <stop style="stop-color:#343b40" id="stop4275"/>
   <stop offset="1" style="stop-color:#555e63" id="stop4277"/>
  </linearGradient>
  <linearGradient inkscape:collect="always" id="linearGradient4797" xlink:href="#linearGradient4152" y1="43.999973" y2="4" gradientUnits="userSpaceOnUse" x2="0" gradientTransform="matrix(1 0 0 1 384.57142 499.798)"/>
  <linearGradient inkscape:collect="always" id="linearGradient4410">
   <stop style="stop-color:#383e51" id="stop4412"/>
   <stop offset="1" style="stop-color:#655c6f;stop-opacity:0" id="stop4414"/>
  </linearGradient>
  <linearGradient inkscape:collect="always" xlink:href="#linearGradient4410" id="linearGradient4666" y1="17" x1="17" y2="40" x2="40" gradientUnits="userSpaceOnUse"/>
 </defs>
 <metadata id="metadata5458"/>
 <g inkscape:label="Capa 1" inkscape:groupmode="layer" id="layer1" transform="matrix(1 0 0 1 -384.57143 -499.798)">
  <rect width="48.00001" x="384.57144" y="503.798" height="39.999996" style="stroke-opacity:0.550265;fill:url(#linearGradient4586);stroke-width:2.8" id="rect4567"/>
  <path inkscape:connector-curvature="0" style="stroke-opacity:0.550265;fill:url(#linearGradient4797);stroke-width:2.8" id="rect4778" d="m 384.57142,503.798 0,2 0,38 2,0 46,0 0,-2 0,-36 0,-2 -2,0 -44,0 -2,0 z m 2,2 44,0 0,36 -44,0 0,-36 z"/>
  <path style="fill:url(#linearGradient4666);opacity:0.2;fill-rule:evenodd" id="path4655" d="M 6 25 L 6 41 L 5 41 L 5 44 L 48 44 L 48 28 L 45 25 L 41.195312 25 C 31.986979 27.610122 31.623946 39.545491 26.511719 39.507812 C 21.401401 39.469988 18.641317 27.602316 8.9179688 25 L 6 25 z " transform="matrix(1 0 0 1 384.57143 499.798)"/>
  <rect width="47.999969" x="384.57147" y="542.79797" height="1" style="stroke-opacity:0.550265;fill:#aa7f41;stroke-width:2.8" id="rect4799"/>
  <path style="shape-rendering:auto;color-interpolation-filters:linearRGB;fill:#aa7f41;image-rendering:auto;fill-opacity:0.498039;text-rendering:auto;color:#000000;color-rendering:auto;color-interpolation:sRGB" id="rect4553" d="M 2 6 L 2 42 L 3 42 L 45 42 L 46 42 L 46 6 L 45 6 L 3 6 L 2 6 z M 3 7 L 45 7 L 45 41 L 3 41 L 3 7 z " transform="matrix(1 0 0 1 384.57143 499.798)"/>
  <path inkscape:connector-curvature="0" style="fill:none;stroke:#787e82;stroke-width:0.984036" id="path3079-0" d="m 389.57143,524.29002 c 13.00545,0 15.77175,14.97339 21.511,15.01587 5.73924,0.0423 5.48353,-15.01587 18.489,-15.01587"/>
  <path inkscape:connector-curvature="0" style="fill:none;stroke:#5090c3;stroke-width:0.984036" id="path4572" d="m 389.57143,523.30598 c 13.00545,0 15.77175,-10.2735 21.511,-10.31598 5.73924,-0.0423 5.48353,10.31598 18.489,10.31598"/>
  <rect width="1" x="389.57144" y="506.798" height="34" style="shape-rendering:auto;color-interpolation-filters:linearRGB;fill:#d6d6d6;image-rendering:auto;text-rendering:auto;color:#000000;color-rendering:auto;color-interpolation:sRGB" id="rect4564"/>
  <path inkscape:connector-curvature="0" style="fill:none;stroke:#d6d6d6;stroke-width:0.984036" id="path4566" d="m 389.57143,523.30598 c 13.00545,0 15.77175,-14.97339 21.511,-15.01587 5.73924,-0.0423 5.48353,15.01587 18.489,15.01587"/>
  <rect width="4" x="419.57144" y="539.79797" height="1" style="shape-rendering:auto;color-interpolation-filters:linearRGB;fill:#007ad9;image-rendering:auto;text-rendering:auto;color:#000000;color-rendering:auto;color-interpolation:sRGB" id="rect4568"/>
  <rect width="4" x="424.57144" y="539.79797" height="1" style="shape-rendering:auto;color-interpolation-filters:linearRGB;fill:#ffffff;image-rendering:auto;text-rendering:auto;color:#000000;color-rendering:auto;color-interpolation:sRGB" id="rect4570"/>
  <rect width="38.999989" x="390.57144" y="523.79797" height="1" style="shape-rendering:auto;color-interpolation-filters:linearRGB;fill:#d6d6d6;image-rendering:auto;text-rendering:auto;color:#000000;color-rendering:auto;color-interpolation:sRGB" id="rect4647"/>
  <rect width="1" x="396.57144" y="522.79803" height="3" style="shape-rendering:auto;color-interpolation-filters:linearRGB;fill:#d6d6d6;image-rendering:auto;text-rendering:auto;color:#000000;color-rendering:auto;color-interpolation:sRGB" id="rect4649"/>
  <rect width="1" x="410.57153" y="522.79803" height="3" style="shape-rendering:auto;color-interpolation-filters:linearRGB;fill:#d6d6d6;image-rendering:auto;text-rendering:auto;color:#000000;color-rendering:auto;color-interpolation:sRGB" id="rect4651"/>
  <rect width="1" x="424.57147" y="522.79803" height="3" style="shape-rendering:auto;color-interpolation-filters:linearRGB;fill:#d6d6d6;image-rendering:auto;text-rendering:auto;color:#000000;color-rendering:auto;color-interpolation:sRGB" id="rect4653"/>
 </g>
</svg>
