<?xml version="1.0" encoding="UTF-8" standalone="no"?>

<!-- Created with Inkscape (http://www.inkscape.org/) -->
<svg width="48" version="1.1" xmlns="http://www.w3.org/2000/svg" height="48" xmlns:xlink="http://www.w3.org/1999/xlink" xmlns:inkscape="http://www.inkscape.org/namespaces/inkscape">
 <defs id="defs5455">
  <linearGradient inkscape:collect="always" id="linearGradient4256">
   <stop style="stop-color:#60c0f4" id="stop4258"/>
   <stop offset="1" style="stop-color:#b9e9ff" id="stop4260"/>
  </linearGradient>
  <linearGradient inkscape:collect="always" xlink:href="#linearGradient4300" id="linearGradient4263" y1="785.70648" y2="727.70654" gradientUnits="userSpaceOnUse" x2="0" gradientTransform="matrix(0.7272726 0 0 0.68965569 0.72726 1.93103)"/>
  <linearGradient inkscape:collect="always" id="linearGradient4410">
   <stop style="stop-color:#383e51" id="stop4412"/>
   <stop offset="1" style="stop-color:#655c6f;stop-opacity:0" id="stop4414"/>
  </linearGradient>
  <linearGradient inkscape:collect="always" id="linearGradient4300">
   <stop style="stop-color:#22a7f0" id="stop4302"/>
   <stop offset="1" style="stop-color:#19b5fe" id="stop4304"/>
  </linearGradient>
  <linearGradient inkscape:collect="always" xlink:href="#linearGradient4256" id="linearGradient4254" y1="19.999973" y2="4" x2="0" gradientUnits="userSpaceOnUse"/>
  <linearGradient inkscape:collect="always" xlink:href="#linearGradient4410" id="linearGradient4285" y1="16" x1="16.00001" y2="31.999973" x2="32" gradientUnits="userSpaceOnUse"/>
 </defs>
 <metadata id="metadata5458"/>
 <g inkscape:label="Capa 1" inkscape:groupmode="layer" id="layer1" transform="matrix(1 0 0 1 -384.57143 -499.798)">
  <path inkscape:connector-curvature="0" style="fill:url(#linearGradient4263)" id="path4259" d="m 392.5812,503.798 c -0.006,0 -0.01,3.56799 -0.01,8 l 0,24 c 0,4.432 0.004,8 0.01,8 l 21.80273,0 10.17773,0 c 0.006,0 0.01,-3.568 0.01,-8 l 0,-1.65625 0,-18.34375 -12,-12 z"/>
  <path style="fill:url(#linearGradient4285);opacity:0.2;fill-rule:evenodd" id="path4276" d="M 32 16 L 32 17 L 16 17 L 18 19 L 16 19 L 20 23 L 16 23 L 17.333984 24.333984 L 16 25 L 20 29 L 16 29 L 18 31 L 16 31 L 29 44 L 29.8125 44 L 39.990234 44 C 39.996234 44 40 40.432 40 36 L 40 34.34375 L 40 24 L 32 16 z " transform="matrix(1 0 0 1 384.57143 499.798)"/>
  <rect width="31.999989" x="392.57144" y="542.79797" height="0.999993" style="fill:#2e3132;fill-opacity:0.294118" id="rect4169-4"/>
  <path inkscape:connector-curvature="0" style="fill:#2584b7" id="rect4307" d="m 424.56166,513.78823 c 0.006,-0.009 0.01,-2.22564 0.01,-4.99023 0,-2.77 -0.004,-5 -0.01,-5 l -9.98046,0 c -2e-5,0 10e-6,0.01 0,0.01 l 9.98046,9.98047 z"/>
  <path inkscape:label="Capa 1" inkscape:connector-curvature="0" style="fill:url(#linearGradient4254)" id="path4174-9" d="m 4,4 0,1 16,0 0,-1 z m 0,2 0,1 13,0 0,-1 z m 0,4 0,1 16,0 0,-1 z m 0,2 0,1 2,0 0,-1 z m 0,4 0,1 16,0 0,-1 z m 0,2 0,1 13,0 0,-1 z m 14,1 0,1 2,0 0,-1 z" transform="matrix(1 0 0 1 396.57143 511.798)"/>
 </g>
</svg>
