<?xml version="1.0" encoding="UTF-8" standalone="no"?>

<!-- Created with Inkscape (http://www.inkscape.org/) -->
<svg width="48" version="1.1" xmlns="http://www.w3.org/2000/svg" height="48" viewBox="0 0 48 48.000001" xmlns:xlink="http://www.w3.org/1999/xlink" xmlns:inkscape="http://www.inkscape.org/namespaces/inkscape">
 <defs id="defs4710">
  <linearGradient inkscape:collect="always" xlink:href="#linearGradient4214" id="linearGradient4165" y1="543.79797" y2="503.798" x2="0" gradientUnits="userSpaceOnUse" gradientTransform="matrix(1 0 0 1 -0.000017 0)"/>
  <linearGradient inkscape:collect="always" id="linearGradient4214">
   <stop style="stop-color:#2f74c8" id="stop4216"/>
   <stop offset="1" style="stop-color:#4699d7" id="stop4218"/>
  </linearGradient>
  <linearGradient inkscape:collect="always" xlink:href="#linearGradient4662" id="linearGradient4668" y1="15.967772" x1="18.437342" y2="43.971745" x2="43.906567" gradientUnits="userSpaceOnUse"/>
  <linearGradient inkscape:collect="always" id="linearGradient4662">
   <stop style="stop-color:#292c2f" id="stop4664"/>
   <stop offset="1" style="stop-opacity:0" id="stop4666"/>
  </linearGradient>
  <linearGradient inkscape:collect="always" xlink:href="#linearGradient4303" id="linearGradient4642" y1="34.06007" x1="24.05287" y2="9.893008" x2="24.04098" gradientUnits="userSpaceOnUse" gradientTransform="matrix(1 0 0 1 384.57143 501.798)"/>
  <linearGradient inkscape:collect="always" id="linearGradient4303">
   <stop style="stop-color:#c6cdd1" id="stop4305"/>
   <stop offset="1" style="stop-color:#e0e5e7" id="stop4307"/>
  </linearGradient>
 </defs>
 <metadata id="metadata4713"/>
 <g inkscape:label="Layer 1" inkscape:groupmode="layer" id="g5256" transform="matrix(1 0 0 1 -384.57143 -499.798)">
  <rect width="40.00001" x="388.57141" y="503.798" rx="0" height="39.999969" style="fill:url(#linearGradient4165)" id="rect4146"/>
  <rect width="39.999969" x="388.57147" y="542.79797" height="0.999974" style="fill:#2a6bae" id="rect4167"/>
  <path inkscape:connector-curvature="0" style="fill:url(#linearGradient4668);opacity:0.2;stroke-linecap:round;stroke-linejoin:round" id="rect4648" d="m 26.048828,12.804688 -0.333984,3.021484 -1.839844,2.451172 -0.002,2.767578 -2.908203,-0.646484 -1.427735,0.208984 -0.542968,1.412109 4.470703,4.421875 0.339844,2.777344 0.06445,-0.871094 -0.002,1.878906 -1.980469,2.757813 L 17.173828,31.5625 12.931641,28.533203 12.044922,30.621094 25.423828,44 44,44 44,30.755859 26.048828,12.804688 Z" transform="matrix(1 0 0 1 384.57143 499.798)"/>
  <path inkscape:connector-curvature="0" style="fill:url(#linearGradient4642);stroke-linecap:round;stroke-linejoin:round" id="path4609" d="m 408.57143,511.798 c -1.65685,0 -3,1.34315 -3,3 9.5e-4,1.27052 0.80214,2.40266 2,2.82617 l 0,2.17383 -4,0 0,2 4,0 0,8 c 0,1 -1.37745,1.59231 -2.036,1.506 -2.9521,-0.38689 -5.34864,-1.02312 -6.727,-2.30092 l 2.02277,0.10156 -1.72461,-1.60742 -1.72461,-1.60742 c -0.65074,1.4731 -0.72742,2.93582 -0.81055,4.50976 l 1.06836,-1.05273 c 0.51321,2.11718 7.52155,3.45117 8.51172,4.32226 l 2.41992,2.12891 2.41797,-2.12695 c 0.9925,-0.87305 8.00033,-2.21067 8.50586,-4.33008 l 1.07617,1.05859 c 0,-1.60156 -0.34869,-3.00416 -0.81055,-4.50976 l -1.72461,1.60742 -1.46484,1.60742 1.767,-0.10156 c -1.37539,1.27344 -3.76128,1.91245 -6.70153,2.30092 -0.66764,0.0882 -2.06547,-0.506 -2.06547,-1.506 l 0,-8 4,0 0,-2 -4,0 0,-2.17578 c 1.19718,-0.42327 1.99822,-1.55442 2,-2.82422 0,-1.65685 -1.34315,-3 -3,-3 z m 0,2 c 0.55228,0 1,0.44772 1,1 0,0.55228 -0.44772,1 -1,1 -0.55228,0 -1,-0.44772 -1,-1 0,-0.55228 0.44772,-1 1,-1 z"/>
 </g>
</svg>
