<?xml version="1.0" encoding="UTF-8" standalone="no"?>
<!-- Created with Inkscape (http://www.inkscape.org/) -->

<svg
   xmlns:dc="http://purl.org/dc/elements/1.1/"
   xmlns:cc="http://creativecommons.org/ns#"
   xmlns:rdf="http://www.w3.org/1999/02/22-rdf-syntax-ns#"
   xmlns:svg="http://www.w3.org/2000/svg"
   xmlns="http://www.w3.org/2000/svg"
   xmlns:xlink="http://www.w3.org/1999/xlink"
   xmlns:sodipodi="http://sodipodi.sourceforge.net/DTD/sodipodi-0.dtd"
   xmlns:inkscape="http://www.inkscape.org/namespaces/inkscape"
   width="48"
   version="1.1"
   height="48"
   id="svg2"
   inkscape:version="0.91 r13725"
   sodipodi:docname="QtProject-designer.svg">
  <sodipodi:namedview
     pagecolor="#ffffff"
     bordercolor="#666666"
     borderopacity="1"
     objecttolerance="10"
     gridtolerance="10"
     guidetolerance="10"
     inkscape:pageopacity="0"
     inkscape:pageshadow="2"
     inkscape:window-width="1474"
     inkscape:window-height="1013"
     id="namedview42"
     showgrid="false"
     inkscape:object-nodes="true"
     inkscape:snap-global="true"
     inkscape:zoom="1.7383042"
     inkscape:cx="55.167305"
     inkscape:cy="-15.895657"
     inkscape:window-x="438"
     inkscape:window-y="0"
     inkscape:window-maximized="0"
     inkscape:current-layer="g4216">
    <inkscape:grid
       type="xygrid"
       id="grid4212" />
  </sodipodi:namedview>
  <defs
     id="defs2987">
    <linearGradient
       inkscape:collect="always"
       id="linearGradient4286">
      <stop
         style="stop-color:#66b036"
         id="stop4288" />
      <stop
         offset="1"
         style="stop-color:#239161"
         id="stop4290" />
    </linearGradient>
    <linearGradient
       inkscape:collect="always"
       id="linearGradient4223">
      <stop
         id="stop4225" />
      <stop
         offset="1"
         style="stop-opacity:0"
         id="stop4227" />
    </linearGradient>
    <linearGradient
       inkscape:collect="always"
       id="linearGradient4899">
      <stop
         style="stop-color:#34495e"
         id="stop4901" />
      <stop
         offset="1"
         style="stop-color:#1c7865"
         id="stop4903" />
    </linearGradient>
    <style
       id="current-color-scheme"
       type="text/css">
      .ColorScheme-Text {
        color:#4d4d4d;
      }
      .ColorScheme-Background {
        color:#eff0f1;
      }
      .ColorScheme-Highlight {
        color:#3daee9;
      }
      .ColorScheme-ViewText {
        color:#31363b;
      }
      .ColorScheme-ViewBackground {
        color:#fcfcfc;
      }
      .ColorScheme-ViewHover {
        color:#93cee9;
      }
      .ColorScheme-ViewFocus{
        color:#3daee9;
      }
      .ColorScheme-ButtonText {
        color:#31363b;
      }
      .ColorScheme-ButtonBackground {
        color:#eff0f1;
      }
      .ColorScheme-ButtonHover {
        color:#93cee9;
      }
      .ColorScheme-ButtonFocus{
        color:#3daee9;
      }
      </style>
    <linearGradient
       id="linearGradient4143"
       inkscape:collect="always">
      <stop
         id="stop4145"
         style="stop-color:#197cf1" />
      <stop
         id="stop4147"
         style="stop-color:#20bcfa"
         offset="1" />
    </linearGradient>
    <linearGradient
       inkscape:collect="always"
       xlink:href="#linearGradient4143"
       id="linearGradient4220-7"
       x1="14.555555"
       y1="16.333292"
       x2="0.33333382"
       y2="5.6666245"
       gradientUnits="userSpaceOnUse"
       gradientTransform="matrix(1.1327365,0,0,1.1498464,-19.481465,18.152966)" />
    <linearGradient
       inkscape:collect="always"
       xlink:href="#linearGradient4143"
       id="linearGradient4220-2-0"
       x1="14.555555"
       y1="16.333292"
       x2="0.33333382"
       y2="5.6666245"
       gradientUnits="userSpaceOnUse"
       gradientTransform="matrix(1.1327365,0,0,1.1498464,-19.481465,18.152966)" />
    <linearGradient
       inkscape:collect="always"
       xlink:href="#linearGradient4899"
       id="linearGradient4282-5-0"
       y1="37.95583"
       x1="-2.9938569"
       y2="-0.88342798"
       x2="-41.25518"
       gradientUnits="userSpaceOnUse"
       gradientTransform="translate(1.3664592e-6,-1.0220862)" />
    <linearGradient
       inkscape:collect="always"
       xlink:href="#linearGradient4223"
       id="linearGradient4229-8-2-6"
       y1="9.1779833"
       x1="-14.649697"
       y2="17.521618"
       x2="-6.4302182"
       gradientUnits="userSpaceOnUse"
       gradientTransform="translate(1.0068794,-1.0220872)" />
    <linearGradient
       inkscape:collect="always"
       xlink:href="#linearGradient4223"
       id="linearGradient4229-9-9"
       y1="9.2683239"
       x1="-28.755592"
       y2="27.436483"
       x2="-10.857779"
       gradientUnits="userSpaceOnUse"
       gradientTransform="translate(3.664592e-7,-1.0220872)" />
    <linearGradient
       inkscape:collect="always"
       xlink:href="#linearGradient4286"
       id="linearGradient4282-1"
       y1="-0.88342798"
       x1="-41.25518"
       y2="37.95583"
       x2="-2.993856"
       gradientUnits="userSpaceOnUse"
       gradientTransform="translate(-1.0068806,-1.0220862)" />
    <style
       id="current-color-scheme-8"
       type="text/css">
      .ColorScheme-Text {
        color:#4d4d4d;
      }
      .ColorScheme-Background {
        color:#eff0f1;
      }
      .ColorScheme-Highlight {
        color:#3daee9;
      }
      .ColorScheme-ViewText {
        color:#31363b;
      }
      .ColorScheme-ViewBackground {
        color:#fcfcfc;
      }
      .ColorScheme-ViewHover {
        color:#93cee9;
      }
      .ColorScheme-ViewFocus{
        color:#3daee9;
      }
      .ColorScheme-ButtonText {
        color:#31363b;
      }
      .ColorScheme-ButtonBackground {
        color:#eff0f1;
      }
      .ColorScheme-ButtonHover {
        color:#93cee9;
      }
      .ColorScheme-ButtonFocus{
        color:#3daee9;
      }
      </style>
  </defs>
  <metadata
     id="metadata2990">
    <rdf:RDF>
      <cc:Work
         rdf:about="">
        <dc:format>image/svg+xml</dc:format>
        <dc:type
           rdf:resource="http://purl.org/dc/dcmitype/StillImage" />
        <dc:title></dc:title>
      </cc:Work>
    </rdf:RDF>
  </metadata>
  <g
     inkscape:label="Layer 1"
     inkscape:groupmode="layer"
     id="g4216"
     transform="matrix(0.9931701 0 0 0.97839153 45.973408 4.864339)">
    <path
       inkscape:connector-curvature="0"
       style="fill:url(#linearGradient4282-1);stroke-width:2;stroke-linecap:round;stroke-linejoin:bevel"
       id="rect4274-9"
       d="m -36.032002,-0.88342854 c -2.893706,0 -5.136537,2.33184644 -5.223177,5.22421544 l 0,33.6150411 33.0381514,0 c 2.893706,0 5.223174,-2.33051 5.223174,-5.224216 l 0,-33.61504054 z" />
    <path
       inkscape:connector-curvature="0"
       style="opacity:0.2;fill:url(#linearGradient4229-9-9);fill-rule:evenodd;stroke-width:1.01445305"
       id="path4221-2-3"
       d="m -29.172654,6.2711707 -3.020631,4.0883423 2.458196,17.375456 3.020631,2.044172 -1.07374,2.044172 4.332323,4.397763 13.012704,-1.912418 c 0.4870374,-0.08489 0.9462264,-0.297339 1.3628244,-0.602871 l -5.5397894,-8.685732 0.794489,-9.198771 -9.061892,-9.1987714 z" />
    <path
       inkscape:connector-curvature="0"
       style="opacity:0.2;fill:url(#linearGradient4229-8-2-6);fill-rule:evenodd;stroke-width:1.01445305"
       id="path4221-9-1-3"
       d="m -12.055746,7.2932564 -3.020633,20.4417146 6.7511884,6.853165 c 1.062788,-0.938896 2.310705,-3.633644 2.310705,-5.304067 l 0,-15.8583 z" />
    <path
       inkscape:connector-curvature="0"
       style="fill:#ffffff;stroke-width:2;stroke-linecap:round;stroke-linejoin:bevel"
       id="path4291-1"
       d="m -27.1589,5.2490858 c -4.027507,9e-7 -7.048138,2.0441704 -7.048138,11.7539852 0,8.009322 2.148777,10.797581 5.085515,11.530405 0.524269,6.170192 6.997007,4.311924 6.997007,4.311924 l 0,-2.044172 c 0,0 -2.611327,0.879603 -2.975399,-2.289711 2.88793,-0.76935 4.989153,-3.585734 4.989153,-11.508446 0,-9.7098148 -3.02063,-11.7539862 -7.048138,-11.7539852 z m 0,2.0441714 c 2.013753,0 3.020631,1.688662 3.020631,9.7098138 0,8.021153 -1.006878,9.709814 -3.020631,9.709815 -2.013753,10e-7 -3.020632,-1.688662 -3.020632,-9.709815 0,-8.0211518 1.006879,-9.7098138 3.020632,-9.7098138 z" />
    <path
       inkscape:connector-curvature="0"
       style="fill:url(#linearGradient4282-5-0);stroke-width:2;stroke-linecap:round;stroke-linejoin:bevel"
       id="rect4274-7-3"
       d="m -2.9938536,31.709527 c 0,2.893705 -2.329468,5.224215 -5.223174,5.224215 l -33.0381514,0 0,1.022086 33.0381514,0 c 2.893706,0 5.223174,-2.33051 5.223174,-5.224216 z" />
    <path
       inkscape:connector-curvature="0"
       style="fill:#ffffff;fill-rule:evenodd;stroke-width:1.01445305"
       id="path4289-4"
       d="m -15.076377,7.2932573 3.020631,0 0,4.0883427 2.013753,0 0,2.044171 -2.013753,0 0,11.242944 c 0,2.044171 2.013753,0.511043 2.013753,0.511043 l 0,2.044171 c 0,0 -6.041261,3.577299 -6.041261,-2.555214 l 0,-11.242944 -1.006877,0 0,-2.044171 1.006877,0 z" />
    <path
       inkscape:connector-curvature="0"
       style="color:#4d4d4d;opacity:1;fill:url(#linearGradient4220-2-0);fill-opacity:1;stroke:none"
       d="m -2.4948416,21.602505 -13.5839894,13.789174 -0.0044,0 0,4.608368 1.132736,0 2.265473,0 1.141586,0 0,-0.0045 13.5839894,-13.789183 -0.0022,-0.0022 0.0022,-0.0022 -4.530946,-4.599385 -0.0023,0.0022 -0.0022,-0.0022 z"
       id="rect4132-3-4"
       class="ColorScheme-Text"
       sodipodi:nodetypes="ccccccccccccccc" />
    <path
       inkscape:connector-curvature="0"
       style="color:#4d4d4d;opacity:1;fill:url(#linearGradient4220-7);fill-opacity:1;stroke:none"
       d="m -2.4948416,21.602505 -13.5839894,13.789174 -0.0044,0 0,4.608369 1.132736,0 2.265473,0 1.141586,0 0,-0.0045 13.5839884,-13.789181 -0.0022,-0.0022 0.0022,-0.0022 -4.530946,-4.599386 -0.0023,0.0022 -0.0021,-0.0022 z m -2.263261,3.923402 2.93361,2.977922 -8.5950804,8.724909 0,-1.828076 -1.132737,0 -1.132736,0 0,-1.149846 0,-0.67823 7.9269434,-8.046679 z m -9.0596804,9.196525 0,1.828076 1.132737,0 1.132736,0 0,1.149847 0,0.67823 -0.464598,0.471616 -1.800875,0 -1.132736,-1.149846 0,-1.828077 1.132736,-1.149846 z"
       id="rect4132-57"
       class="ColorScheme-Text" />
    <path
       style="color:#4d4d4d;opacity:1;fill:#0c69cf;fill-opacity:1;stroke:none"
       d="m 1.2460424,25.419308 -13.2585244,13.464781 -4.070772,0 0,1.115911 1.132737,0 2.265473,0 1.142569,0 0,-0.004 13.5830054,-13.790172 -0.002,-0.002 0.002,-0.002 -0.794488,-0.782534 z"
       id="rect4132-5-3"
       inkscape:connector-curvature="0" />
  </g>
</svg>
