<?xml version="1.0" encoding="UTF-8" standalone="no"?>
<!-- Created with Inkscape (http://www.inkscape.org/) -->

<svg
   xmlns:dc="http://purl.org/dc/elements/1.1/"
   xmlns:cc="http://creativecommons.org/ns#"
   xmlns:rdf="http://www.w3.org/1999/02/22-rdf-syntax-ns#"
   xmlns:svg="http://www.w3.org/2000/svg"
   xmlns="http://www.w3.org/2000/svg"
   xmlns:xlink="http://www.w3.org/1999/xlink"
   xmlns:sodipodi="http://sodipodi.sourceforge.net/DTD/sodipodi-0.dtd"
   xmlns:inkscape="http://www.inkscape.org/namespaces/inkscape"
   width="48"
   version="1.1"
   height="48"
   id="svg2"
   inkscape:version="0.91 r13725"
   sodipodi:docname="ubiquity.svg">
  <sodipodi:namedview
     pagecolor="#ffffff"
     bordercolor="#666666"
     borderopacity="1"
     objecttolerance="10"
     gridtolerance="10"
     guidetolerance="10"
     inkscape:pageopacity="0"
     inkscape:pageshadow="2"
     inkscape:window-width="1024"
     inkscape:window-height="713"
     id="namedview32"
     showgrid="false"
     inkscape:zoom="1.7383042"
     inkscape:cx="24.742417"
     inkscape:cy="74.92717"
     inkscape:window-x="0"
     inkscape:window-y="0"
     inkscape:window-maximized="1"
     inkscape:current-layer="layer1" />
  <defs
     id="defs5455">
    <linearGradient
       id="linearGradient3819">
      <stop
         style="stop-color:#eff0f1"
         id="stop3821" />
      <stop
         offset="1"
         style="stop-color:#bdc3c7"
         id="stop3823" />
    </linearGradient>
    <linearGradient
       inkscape:collect="always"
       xlink:href="#linearGradient3819"
       id="linearGradient3825"
       y1="20"
       y2="43.999973"
       x2="0"
       gradientUnits="userSpaceOnUse"
       gradientTransform="matrix(1 0 0 1 384.57143 499.798)" />
    <linearGradient
       inkscape:collect="always"
       xlink:href="#linearGradient4227"
       id="linearGradient3843"
       y1="36"
       x1="10"
       y2="41"
       x2="15"
       gradientUnits="userSpaceOnUse"
       gradientTransform="matrix(1 0 0 1 384.57143 500.798)" />
    <linearGradient
       inkscape:collect="always"
       xlink:href="#linearGradient4227"
       id="linearGradient3847"
       y1="36"
       x1="9.904762"
       y2="41.00001"
       gradientUnits="userSpaceOnUse"
       x2="14.90477"
       gradientTransform="matrix(1 0 0 1 398.66666 500.798)" />
    <linearGradient
       inkscape:collect="always"
       xlink:href="#linearGradient4138"
       id="linearGradient3948"
       y1="33.843651"
       x1="25.065149"
       y2="10"
       x2="25"
       gradientUnits="userSpaceOnUse"
       gradientTransform="matrix(1,0,0,1.0833332,384.57143,492.96467)" />
    <linearGradient
       inkscape:collect="always"
       xlink:href="#linearGradient4227"
       id="linearGradient3080"
       y1="7.800058"
       x1="8.525001"
       y2="25.20006"
       gradientUnits="userSpaceOnUse"
       x2="25.2"
       gradientTransform="matrix(1.3793103 0 0 1.3793103 384.81281 499.0393)" />
    <linearGradient
       inkscape:collect="always"
       id="linearGradient4227">
      <stop
         style="stop-color:#292c2f"
         id="stop4229" />
      <stop
         offset="1"
         style="stop-opacity:0"
         id="stop4231" />
    </linearGradient>
    <linearGradient
       inkscape:collect="always"
       id="linearGradient4138">
      <stop
         style="stop-color:#1abc9c;stop-opacity:1"
         offset="0"
         id="stop4140" />
      <stop
         style="stop-color:#2980b9;stop-opacity:1"
         offset="1"
         id="stop4142" />
    </linearGradient>
  </defs>
  <metadata
     id="metadata5458">
    <rdf:RDF>
      <cc:Work
         rdf:about="">
        <dc:format>image/svg+xml</dc:format>
        <dc:type
           rdf:resource="http://purl.org/dc/dcmitype/StillImage" />
      </cc:Work>
    </rdf:RDF>
  </metadata>
  <g
     inkscape:label="Capa 1"
     inkscape:groupmode="layer"
     id="layer1"
     transform="matrix(1 0 0 1 -384.57143 -499.798)">
    <rect
       width="32"
       x="392.57144"
       y="503.798"
       rx="0"
       height="25.999996"
       style="fill:url(#linearGradient3948);fill-opacity:1.0"
       id="rect3936" />
    <path
       inkscape:connector-curvature="0"
       style="fill:#232629;opacity:0.2"
       id="path3911"
       d="m 408.57143,533.798 c -1.662,0 -3,1.338 -3,3 0,1.662 1.338,3 3,3 1.30536,0 2.39817,-0.84052 2.8125,-2 l 8.375,0 c 0.41433,1.15948 1.50714,2 2.8125,2 1.662,0 3,-1.338 3,-3 0,-1.662 -1.338,-3 -3,-3 -1.30536,0 -2.39817,0.84052 -2.8125,2 l -8.375,0 c -0.41433,-1.15948 -1.50714,-2 -2.8125,-2 z" />
    <path
       inkscape:connector-curvature="0"
       style="fill:url(#linearGradient3825)"
       id="rect3804"
       d="m 388.57144,529.798 -10e-6,14 40,0 10e-6,-14 z" />
    <path
       inkscape:connector-curvature="0"
       style="fill:#4d4d4d;opacity:0.778761"
       id="path3829"
       d="m 411.38393,537.798 8.375,0 c 0.41433,1.15948 1.50714,2 2.8125,2 1.662,0 3,-1.338 3,-3 0,-1.662 -1.338,-3 -3,-3 -1.30536,0 -2.39817,0.84052 -2.8125,2 l -8.375,0 c 0.1875,1 0.1875,1 0,2 z" />
    <path
       inkscape:connector-curvature="0"
       style="fill:url(#linearGradient3847);opacity:0.2"
       id="path3845"
       d="m 406.66666,539.13133 4.76191,4.66667 8.14286,0 -9.14286,-9.42857 z" />
    <path
       inkscape:connector-curvature="0"
       style="fill:url(#linearGradient3843);opacity:0.2"
       id="path3835"
       d="m 392.57143,539.13133 4.61905,4.66667 13.38095,0 -4.86671,-6.9365 -7.13329,-0.0675 -2.23809,-2.42461 z" />
    <path
       inkscape:connector-curvature="0"
       style="fill:#1abc9c;fill-opacity:1"
       id="rect3812"
       d="m 394.57143,533.798 c -1.662,0 -3,1.338 -3,3 0,1.662 1.338,3 3,3 1.30536,0 2.39817,-0.84052 2.8125,-2 l 8.375,0 c 0.41433,1.15948 1.50714,2 2.8125,2 1.662,0 3,-1.338 3,-3 0,-1.662 -1.338,-3 -3,-3 -1.30536,0 -2.39817,0.84052 -2.8125,2 l -8.375,0 c -0.41433,-1.15948 -1.50714,-2 -2.8125,-2 z" />
    <rect
       width="39.999954"
       x="388.57147"
       y="542.79797"
       rx="0"
       height="0.99997"
       style="fill:#95a5a6"
       id="rect3827" />
    <rect
       width="39.999969"
       x="388.57147"
       y="529.79797"
       rx="0"
       height="1.00003"
       style="fill:#eff0f1"
       id="rect3855" />
    <path
       inkscape:connector-curvature="0"
       style="fill:url(#linearGradient3080);opacity:0.2;fill-rule:evenodd"
       id="path4184"
       d="m 409.57143,513.798 0,1 -1,9 20.00001,19 0,0 0,0 -10e-6,-1 10e-6,-13 -19.00001,-19 z" />
    <path
       inkscape:connector-curvature="0"
       style="shape-rendering:auto;color-interpolation-filters:linearRGB;fill:#fcfcfc;image-rendering:auto;text-rendering:auto;color:#000000;stroke-width:2;color-rendering:auto;color-interpolation:sRGB"
       id="path3938"
       d="m 407.57143,509.798 0,10 -4.5,-4.5 -1.5,1.5 7,7 7,-7 -1.5,-1.5 -4.5,4.5 0,-10 -2,0 z" />
  </g>
</svg>
