<?xml version="1.0" encoding="UTF-8" standalone="no"?>

<!-- Created with Inkscape (http://www.inkscape.org/) -->
<svg width="48" version="1.1" xmlns="http://www.w3.org/2000/svg" height="48" xmlns:xlink="http://www.w3.org/1999/xlink" xmlns:inkscape="http://www.inkscape.org/namespaces/inkscape">
 <defs id="defs5455">
  <linearGradient inkscape:collect="always" id="linearGradient4159">
   <stop style="stop-color:#1d1e1e" id="stop4161"/>
   <stop offset="1" style="stop-color:#44484c" id="stop4163"/>
  </linearGradient>
  <linearGradient inkscape:collect="always" xlink:href="#linearGradient4159" id="linearGradient4165" y1="543.79797" y2="503.798" x2="0" gradientUnits="userSpaceOnUse" gradientTransform="matrix(1.0000005 0 0 0.90000001 -0.000213 54.37979)"/>
  <linearGradient inkscape:collect="always" id="linearGradient4303">
   <stop style="stop-color:#c6cdd1" id="stop4305"/>
   <stop offset="1" style="stop-color:#e0e5e7" id="stop4307"/>
  </linearGradient>
  <linearGradient inkscape:collect="always" xlink:href="#linearGradient4303" id="linearGradient4262" y1="43.999973" y2="4" x2="0" gradientUnits="userSpaceOnUse"/>
  <linearGradient inkscape:collect="always" id="linearGradient4271">
   <stop style="stop-color:#2a2c2f" id="stop4273"/>
   <stop offset="1" style="stop-color:#424649" id="stop4275"/>
  </linearGradient>
  <clipPath id="clipPath4528">
   <rect width="31.999989" x="8.00001" y="8" rx="15.999986" height="31.999971" style="fill:url(#linearGradient4532)" id="rect4530"/>
  </clipPath>
  <linearGradient inkscape:collect="always" id="linearGradient4532" xlink:href="#linearGradient4271" y1="543.79797" y2="503.798" x2="0" gradientUnits="userSpaceOnUse" gradientTransform="matrix(0.79999996 0 0 0.79999996 -302.85712 -395.03837)"/>
  <clipPath id="clipPath4534">
   <rect width="31.999989" x="8.00001" y="8" rx="15.999986" height="31.999971" style="fill:url(#linearGradient4532)" id="rect4536"/>
  </clipPath>
  <clipPath id="clipPath4544">
   <rect width="31.999989" x="392.57144" y="507.798" rx="15.999986" height="31.999971" style="fill:url(#linearGradient4548)" id="rect4546"/>
  </clipPath>
  <linearGradient inkscape:collect="always" id="linearGradient4548" xlink:href="#linearGradient4271" y1="543.79797" y2="503.798" x2="0" gradientUnits="userSpaceOnUse" gradientTransform="matrix(0.79999995 0 0 0.79999995 81.71431 104.75963)"/>
  <clipPath id="clipPath4550">
   <rect width="31.999989" x="392.57144" y="507.798" rx="15.999986" height="31.999971" style="fill:url(#linearGradient4548)" id="rect4552"/>
  </clipPath>
  <clipPath id="clipPath4562">
   <rect width="31.999989" x="392.57144" y="507.798" rx="15.999986" height="31.999971" style="fill:url(#linearGradient4548)" id="rect4564"/>
  </clipPath>
  <clipPath id="clipPath4568">
   <rect width="31.999989" x="392.57144" y="507.798" rx="15.999986" height="31.999971" style="fill:url(#linearGradient4548)" id="rect4570"/>
  </clipPath>
  <clipPath id="clipPath4578">
   <rect width="31.999989" x="392.57144" y="507.798" rx="15.999986" height="31.999971" style="fill:url(#linearGradient4548)" id="rect4580"/>
  </clipPath>
  <clipPath id="clipPath4584">
   <rect width="31.999989" x="392.57144" y="507.798" rx="15.999986" height="31.999971" style="fill:url(#linearGradient4548)" id="rect4586"/>
  </clipPath>
  <clipPath id="clipPath4528-1">
   <rect width="31.999989" x="8.00001" y="8" rx="15.999986" height="31.999971" style="fill:url(#linearGradient4532)" id="rect4530-7"/>
  </clipPath>
  <clipPath id="clipPath4534-1">
   <rect width="31.999989" x="8.00001" y="8" rx="15.999986" height="31.999971" style="fill:url(#linearGradient4532)" id="rect4536-8"/>
  </clipPath>
  <clipPath id="clipPath4544-1">
   <rect width="31.999989" x="392.57144" y="507.798" rx="15.999986" height="31.999971" style="fill:url(#linearGradient4548)" id="rect4546-1"/>
  </clipPath>
  <clipPath id="clipPath4550-4">
   <rect width="31.999989" x="392.57144" y="507.798" rx="15.999986" height="31.999971" style="fill:url(#linearGradient4548)" id="rect4552-1"/>
  </clipPath>
  <clipPath id="clipPath4562-8">
   <rect width="31.999989" x="392.57144" y="507.798" rx="15.999986" height="31.999971" style="fill:url(#linearGradient4548)" id="rect4564-8"/>
  </clipPath>
  <clipPath id="clipPath4568-4">
   <rect width="31.999989" x="392.57144" y="507.798" rx="15.999986" height="31.999971" style="fill:url(#linearGradient4548)" id="rect4570-1"/>
  </clipPath>
  <clipPath id="clipPath4578-8">
   <rect width="31.999989" x="392.57144" y="507.798" rx="15.999986" height="31.999971" style="fill:url(#linearGradient4548)" id="rect4580-7"/>
  </clipPath>
  <clipPath id="clipPath4584-9">
   <rect width="31.999989" x="392.57144" y="507.798" rx="15.999986" height="31.999971" style="fill:url(#linearGradient4548)" id="rect4586-2"/>
  </clipPath>
  <linearGradient id="linearGradient4227">
   <stop style="stop-color:#2e3436" id="stop4229"/>
   <stop offset="1" style="stop-color:#555753" id="stop4231"/>
  </linearGradient>
 </defs>
 <metadata id="metadata5458"/>
 <g inkscape:label="Capa 1" inkscape:groupmode="layer" id="layer1" transform="matrix(1 0 0 1 -384.57143 -499.798)">
  <path inkscape:connector-curvature="0" style="stroke-opacity:0.550265;fill:url(#linearGradient4262);stroke-width:2.8" id="rect4245" d="M 4,4 4,44 44,44 44,4 Z" transform="matrix(1 0 0 1 384.57143 499.798)"/>
  <rect width="39.999969" x="388.57147" y="542.79797" height="0.999974" style="fill:#99a1a7" id="rect4167"/>
  <path inkscape:connector-curvature="0" style="fill:#eff0f1;fill-rule:evenodd" id="path4368" d="m 402.57141,514.798 0,15 12,-7.49997 z"/>
  <rect width="40.00002" x="388.57141" y="508.798" rx="0" height="30.999996" style="fill:url(#linearGradient4165)" id="rect4146"/>
  <g inkscape:label="Capa 1" id="layer1-6" transform="matrix(1 0 0 1 -51 -7)">
   <rect width="39.999992" x="439.57144" y="510.79797" height="4" style="fill:#566069" id="rect4647-8-3"/>
   <rect width="39.999939" x="439.57144" y="514.79797" height="1" style="fill:#3daee9" id="rect4649-8-0"/>
   <rect width="2" x="476.57141" y="511.79797" rx="1" height="2" style="fill:#eff0f1" id="rect4661-1-8"/>
  </g>
  <circle cx="395.07144" cy="533.29797" style="fill:#eff0f1;color:#000000;stroke-linecap:round;stroke-linejoin:round;stroke-width:3" r="3.499974" id="circle4702-8"/>
  <circle cx="395.07144" cy="533.29797" style="fill:#3daefd;color:#000000;stroke-linecap:round;stroke-linejoin:round;stroke-width:3" r="2.5" id="path4524-6-4"/>
  <circle cx="395.07144" cy="524.29797" style="fill:#eff0f1;color:#000000;stroke-linecap:round;stroke-linejoin:round;stroke-width:3" r="3.499974" id="circle4702"/>
  <circle cx="395.07144" cy="524.29797" style="fill:#3daefd;color:#000000;stroke-linecap:round;stroke-linejoin:round;stroke-width:3" r="2.5" id="path4524-6-4-3"/>
  <rect width="2" x="399.57144" y="513.79797" height="1" style="fill:#da4453" id="rect4152"/>
  <rect width="3" x="402.57144" y="513.79797" height="1" style="fill:#da4453" id="rect4154"/>
  <rect width="3.00001" x="408.57144" y="513.79797" height="1" style="fill:#95a5a6" id="rect4156"/>
  <rect width="6" x="413.57144" y="513.79797" height="1" style="fill:#95a5a6" id="rect4158"/>
  <rect width="3.999988" x="420.57144" y="513.79797" height="1" style="fill:#95a5a6" id="rect4160"/>
  <rect width="4" x="399.57144" y="515.79797" height="1" style="fill:#bdc3c7" id="rect4164"/>
  <rect width="2" x="404.57144" y="515.79797" height="1" style="fill:#bdc3c7" id="rect4166"/>
  <rect width="8.00001" x="408.57144" y="515.79797" height="1" style="fill:#95a5a6" id="rect4168"/>
  <rect width="2" x="399.57144" y="522.79797" height="1" style="fill:#3daefd" id="rect4174"/>
  <rect width="3" x="402.57144" y="522.79797" height="1" style="fill:#3daefd" id="rect4176"/>
  <rect width="4.00001" x="408.57144" y="522.79797" height="1" style="fill:#95a5a6" id="rect4178"/>
  <rect width="4" x="414.57144" y="522.79797" height="1" style="fill:#95a5a6" id="rect4180"/>
  <rect width="4.999989" x="419.57144" y="522.79797" height="1" style="fill:#95a5a6" id="rect4182"/>
  <rect width="2.999988" x="399.57144" y="524.79797" height="1" style="fill:#bdc3c7" id="rect4186"/>
  <rect width="3" x="408.57144" y="524.79797" height="1" style="fill:#95a5a6" id="rect4190"/>
  <rect width="1" x="412.57144" y="524.79797" height="1" style="fill:#95a5a6" id="rect4192"/>
  <rect width="5" x="414.57144" y="524.79797" height="1" style="fill:#95a5a6" id="rect4194"/>
  <rect width="2" x="-419.57144" y="533.79797" height="1" style="fill:#95a5a6" id="rect4166-3" transform="matrix(-1 0 0 1 0 0)"/>
  <rect width="8.00001" x="-416.57144" y="533.79797" height="1" style="fill:#95a5a6" id="rect4168-3" transform="matrix(-1 0 0 1 0 0)"/>
  <rect width="6.999989" x="-406.57144" y="533.79797" height="1" style="fill:#bdc3c7" id="rect4170-5" transform="matrix(-1 0 0 1 0 0)"/>
  <rect width="2" x="-424.57144" y="531.79797" height="1" style="fill:#95a5a6" id="rect4174-4" transform="matrix(-1 0 0 1 0 0)"/>
  <rect width="3" x="-421.57144" y="531.79797" height="1" style="fill:#95a5a6" id="rect4176-1" transform="matrix(-1 0 0 1 0 0)"/>
  <rect width="9.00001" x="-417.57144" y="531.79797" height="1" style="fill:#95a5a6" id="rect4178-9" transform="matrix(-1 0 0 1 0 0)"/>
  <rect width="4.999989" x="-404.57144" y="531.79797" height="1" style="fill:#3daefd" id="rect4182-9" transform="matrix(-1 0 0 1 0 0)"/>
  <path inkscape:connector-curvature="0" style="shape-rendering:auto;color-interpolation-filters:linearRGB;fill:#eff0f1;image-rendering:auto;text-rendering:auto;color:#000000;fill-rule:evenodd;stroke-width:2;color-rendering:auto;color-interpolation:sRGB" id="path4691-2" d="m 395.07227,511.7207 -3.50084,1.4668 c 0,0 0.41627,1.90215 0.86682,3.00391 0.22527,0.55088 0.50035,1.12129 0.88919,1.61718 0.38884,0.4959 0.96497,0.99024 1.74483,0.99024 0.77985,0 1.35412,-0.49434 1.74296,-0.99024 0.38883,-0.49589 0.66392,-1.0663 0.88919,-1.61718 0.45055,-1.10176 0.86868,-3.00391 0.86868,-3.00391 z"/>
  <path inkscape:connector-curvature="0" style="fill:#da4453;fill-rule:evenodd" id="path4691" d="m 392.57143,513.798 2.5,-1 2.5,1 c 0,0 -0.92767,4 -2.5,4 -1.57233,0 -2.5,-4 -2.5,-4 z"/>
 </g>
</svg>
