<svg width="48" xmlns="http://www.w3.org/2000/svg" height="48">
 <defs>
  <linearGradient id="a" y1="541.8" y2="505.8" x2="0" gradientUnits="userSpaceOnUse">
   <stop stop-color="#1d1e1e"/>
   <stop offset="1" stop-color="#44484c"/>
  </linearGradient>
  <linearGradient id="b" y1="44" y2="4" x2="0" gradientUnits="userSpaceOnUse">
   <stop stop-color="#c6cdd1"/>
   <stop offset="1" stop-color="#e0e5e7"/>
  </linearGradient>
  <linearGradient id="c" y1="539.8" y2="536.8" x2="0" gradientUnits="userSpaceOnUse">
   <stop stop-color="#afb8be"/>
   <stop offset="1" stop-color="#e0e5e7"/>
  </linearGradient>
  <linearGradient id="d" y1="531.8" y2="515.8" x2="0" gradientUnits="userSpaceOnUse" gradientTransform="matrix(.75 0 0 .9375 102.14 31.24)">
   <stop stop-color="#ec4c21"/>
   <stop offset="1" stop-color="#ec7b0f"/>
  </linearGradient>
  <linearGradient id="e" y1="541.8" y2="539.8" x2="0" gradientUnits="userSpaceOnUse">
   <stop stop-color="#06a370"/>
   <stop offset="1" stop-color="#1eba9d"/>
  </linearGradient>
  <linearGradient id="f" y1="521.8" x1="399.57" y2="541.8" x2="419.57" gradientUnits="userSpaceOnUse">
   <stop stop-color="#020303"/>
   <stop offset="1" stop-color="#424649" stop-opacity="0"/>
  </linearGradient>
 </defs>
 <g transform="translate(-384.57-499.8)">
  <rect width="36" x="390.57" y="506.8" fill="url(#a)" rx="0" height="31"/>
  <path stroke-opacity=".55" fill="url(#b)" stroke-width="2.8" d="m4 4v40h40v-40h-38zm2 3h36v31h-36z" transform="translate(384.57 499.8)"/>
  <rect width="40" x="388.57" y="542.8" fill="#99a1a7" height="1"/>
  <g stroke-opacity=".55" stroke-width="2.8">
   <rect width="36" x="390.57" y="537.8" fill="#8c9ba3" height="1"/>
   <rect width="10" x="390.57" y="537.8" fill="#f26f48" height="1"/>
   <rect width="3" x="398.57" y="536.8" fill="url(#c)" rx="1.5" height="3"/>
  </g>
  <g fill-rule="evenodd">
   <path fill="url(#d)" d="m402.57 514.8v15l12-7.5z"/>
   <path fill="#242626" d="m390.57 541.8v-2l2 1z"/>
  </g>
  <rect width="2" x="394.57" y="539.8" stroke-opacity=".55" fill="#242626" height="2" stroke-width="2.8"/>
  <g fill-rule="evenodd">
   <path fill="url(#e)" d="m426.57 539.8v2h-6z"/>
   <path opacity=".2" fill="url(#f)" d="m414.57 522.29l14 14v7.504h-12l-14-14z"/>
  </g>
 </g>
</svg>
