<svg height="64" version="1.1" width="64" xmlns="http://www.w3.org/2000/svg" xmlns:svg="http://www.w3.org/2000/svg" xmlns:xlink="http://www.w3.org/1999/xlink">
<defs id="primary-definitions">
<style id="current-color-scheme" type="text/css">
      .ColorScheme-Text         { color: #232629; }
      .ColorScheme-Background   { color: #eff0f1; }
      .ColorScheme-Highlight    { color: #7ec9f0; }
      .ColorScheme-PositiveText { color: #27ae60; }
      .ColorScheme-NeutralText  { color: #f67400; }
      .ColorScheme-NegativeText { color: #da4453; }
      .ColorScheme-ActiveText   { color: #3daee9; }
      .ColorScheme-Complement   { color: #ffffff; }
      .ColorScheme-Contrast     { color: #000000; }
    </style>
<style id="extended-color-scheme" type="text/css">
      .ExScheme-Black     { color:#3e3e3e; }
      .ExScheme-White     { color:#fcfcfc; }
      .ExScheme-Grey-1    { color:#cfd5d5; }
      .ExScheme-Grey-2    { color:#909c9c; }
      .ExScheme-Grey-3    { color:#536161; }
      .ExScheme-Red-1     { color:#ffafa5; }
      .ExScheme-Red-2     { color:#bf4231; }
      .ExScheme-Red-3     { color:#4d2f2b; }
      .ExScheme-Green-1   { color:#abf9c7; }
      .ExScheme-Green-2   { color:#3bb566; }
      .ExScheme-Green-3   { color:#377d50; }
      .ExScheme-Blue-1    { color:#abdaf9; }
      .ExScheme-Blue-2    { color:#3daefd; }
      .ExScheme-Blue-3    { color:#2b3c4d; }
      .ExScheme-Yellow-1  { color:#faffa5; }
      .ExScheme-Yellow-2  { color:#cac726; }
      .ExScheme-Yellow-3  { color:#4b4d2b; }
      .ExScheme-Orange-1  { color:#ffdaa5; }
      .ExScheme-Orange-2  { color:#ff9701; }
      .ExScheme-Orange-3  { color:#4d372b; }
      .ExScheme-Brown-1   { color:#e9d6bb; }
      .ExScheme-Brown-2   { color:#997657; }
      .ExScheme-Brown-3   { color:#433a35; }
      .ExScheme-Purple-1  { color:#e2abf9; }
      .ExScheme-Purple-2  { color:#b401ff; }
      .ExScheme-Purple-3  { color:#432b4d; }
      .ExScheme-Cyan-1    { color:#b2f2e6; }
      .ExScheme-Cyan-2    { color:#31bfa6; }
      .ExScheme-Cyan-3    { color:#2b4d47; }
      .ExScheme-Magenta-1 { color:#f8a6d8; }
      .ExScheme-Magenta-2 { color:#f00091; }
      .ExScheme-Magenta-3 { color:#770048; }
    </style>
<linearGradient id="u4f">
<stop offset="0"/>
<stop offset="1" stop-opacity="0"/>
</linearGradient>
<linearGradient id="u4g">
<stop offset="0" stop-color="#fff"/>
<stop offset="1" stop-color="#fff" stop-opacity="0"/>
</linearGradient>
<style id="u4h" type="text/css">
        .force-display-for-editing { display: inline !important; }
    </style><style class="remove-if__show-crease" type="text/css">
        .enable-if__show-crease { display: none; }
    </style><style class="remove-if__color-sync-mimes-places" type="text/css">
        .enable-if__color-sync-mimes-places { display: none; }
    </style><radialGradient cx=".5" cy="0" id="u4i" r="1" xlink:href="#u4g"/><linearGradient id="u4j" xlink:href="#u4f" y1="1" y2=".5"/><style class="ColorScheme-Background" fill="currentColor" opacity=".6" type="text/css">
   .ColorScheme-Text           { color:#eff0f1; }
      .ColorScheme-Background     { color:#31363b; }
      .ColorScheme-Highlight      { color:#3daefd; }
      .ColorScheme-ViewBackground { color:#fcfcfc; }
      .ColorScheme-PositiveText   { color:#27ae60; }
      .ColorScheme-NeutralText    { color:#f67400; }
      .ColorScheme-NegativeText   { color:#da4453; }
  </style><path d="M 10,8 C 8.34,8 7,9.34 7,11 v 7 c -1.66,0 -3,1.34 -3,3 v 32 c 0,1.66 1.34,3 3,3 h 50 c 1.66,0 3,-1.34 3,-3 V 26 21 19 c 0,-1.66 -1.34,-3 -3,-3 v -3 c 0,-1.66 -1.34,-3 -3,-3 H 28 C 24,10 24,8 21,8 Z" id="u4k"></path><path d="M 10,8 C 8.34,8 7,9.34 7,11 v 7 h 13 c 4,0 4,-2 7,-2 h 30 v -3 c 0,-1.66 -1.34,-3 -3,-3 H 28 C 24,10 24,8 21,8 Z" id="u4l"></path></defs>
<g id="content" transform="translate(0,0)"><use class="sync-color enable-if__color-sync-mimes-places force-display-for-editing ColorScheme-ActiveText" fill="currentColor" href="#u4k"></use><use class="primary-color remove-if__color-sync-mimes-places ColorScheme-ActiveText" fill="#3ddc84" href="#u4k"></use><use class="ColorScheme-Contrast" fill="currentColor" href="#u4k" opacity=".1"></use><g id="decal" transform="translate(16,21)"><path class="ColorScheme-Background" d="M 16 7 A 14 14 0 0 0 5.5 11.8 L 2.35 8.65 A 0.5 0.5 0 0 0 2 8.5 A 0.5 0.5 0 0 0 1.65 8.65 A 0.5 0.5 0 0 0 1.65 9.35 L 4.84 12.55 A 14 14 0 0 0 2 21 L 2 23 C 2 24.1 2.9 25 4 25 L 28 25 C 29.1 25 30 24.1 30 23 L 30 21 A 14 14 0 0 0 27.16 12.55 L 30.35 9.35 A 0.5 0.5 0 0 0 30.35 8.65 A 0.5 0.5 0 0 0 29.65 8.65 L 26.5 11.77 A 14 14 0 0 0 16 7 z M 10 15 A 2 2 0 0 1 12 17 A 2 2 0 0 1 10 19 A 2 2 0 0 1 8 17 A 2 2 0 0 1 10 15 z M 22 15 A 2 2 0 0 1 24 17 A 2 2 0 0 1 22 19 A 2 2 0 0 1 20 17 A 2 2 0 0 1 22 15 z " fill="currentColor" opacity=".6" stop-color="#000000"/><path class="ColorScheme-Background" d="M 16 7 A 14 14 0 0 0 5.5 11.8 L 2.35 8.65 A 0.5 0.5 0 0 0 2 8.5 A 0.5 0.5 0 0 0 1.65 8.65 A 0.5 0.5 0 0 0 1.65 9.35 L 4.84 12.55 A 14 14 0 0 0 2 21 L 2 23 C 2 24.1 2.9 25 4 25 L 28 25 C 29.1 25 30 24.1 30 23 L 30 21 A 14 14 0 0 0 27.16 12.55 L 30.35 9.35 A 0.5 0.5 0 0 0 30.35 8.65 A 0.5 0.5 0 0 0 29.65 8.65 L 26.5 11.77 A 14 14 0 0 0 16 7 z M 16 7.5 L 16 7.5 C 19.9 7.5 23.6 9.2 26.15 12.1 A .5 .5 0 0 0 26.9 12.1 L 26.8 12.2 A .5 .5 0 0 0 26.76 12.85 C 28.54 15.2 29.5 18.06 29.5 21 L 29.5 23 C 29.5 23.84 28.84 24.5 28 24.5 L 4 24.5 C 3.16 24.5 2.5 23.84 2.5 23 L 2.5 21 C 2.5 18.06 3.46 15.2 5.24 12.85 A .5 .5 0 0 0 5.2 12.2 L 5.14 12.14 A .5 .5 0 0 0 5.87 12.1 C 8.43 9.2 12.1 7.5 16 7.5 z M 10 14.5 C 8.63 14.5 7.5 15.63 7.5 17 C 7.5 18.37 8.63 19.5 10 19.5 C 11.37 19.5 12.5 18.37 12.5 17 C 12.5 15.63 11.37 14.5 10 14.5 z M 22 14.5 C 20.63 14.5 19.5 15.63 19.5 17 C 19.5 18.37 20.63 19.5 22 19.5 C 23.37 19.5 24.5 18.37 24.5 17 C 24.5 15.63 23.37 14.5 22 14.5 z M 10 15 A 2 2 0 0 1 12 17 A 2 2 0 0 1 10 19 A 2 2 0 0 1 8 17 A 2 2 0 0 1 10 15 z M 22 15 A 2 2 0 0 1 24 17 A 2 2 0 0 1 22 19 A 2 2 0 0 1 20 17 A 2 2 0 0 1 22 15 z " fill="currentColor" opacity=".6"/></g><use href="#u4l" opacity=".4"></use><use fill="url(#u4j)" href="#u4l" opacity=".1"></use><path d="m 26,16 c -2,0 -4,2 -6,2 H 6 c -1.11,0 -2,.9 -2,2 v 34 c 0,1.1 .9,2 2,2 h 52 c 1.1,0 2,-.9 2,-2 V 18 c 0,-1.1 -.9,-2 -2,-2 z" fill="url(#u4i)" opacity=".2"/><path class="ColorScheme-Contrast" d="m 4,52 v 1 c 0,1.66 1.34,3 3,3 h 50 c 1.66,0 3,-1.34 3,-3 v -1 c 0,1.66 -1.34,3 -3,3 H 7 C 5.34,55 4,53.66 4,52 Z" fill="currentColor" opacity=".1"/><path class="ColorScheme-Contrast" d="M 4,52.5 V 53 c 0,1.66 1.34,3 3,3 h 50 c 1.66,0 3,-1.34 3,-3 v -0.5 c 0,1.66 -1.34,3 -3,3 H 7 c -1.66,0 -3,-1.34 -3,-3 z" fill="currentColor" opacity=".2"/><path d="m 27,16 c -3,0 -3,2 -7,2 H 7 c -1.66,0 -3,1.34 -3,3 v 1 c 0,-1.66 1.34,-3 3,-3 h 13 c 4,0 4,-2 7,-2 h 30 c 1.66,0 3,1.34 3,3 v -1 c 0,-1.66 -1.34,-3 -3,-3 z" fill="#fff" opacity=".1"/><path d="m 27,16 c -3,0 -3,2 -7,2 H 7 c -1.66,0 -3,1.34 -3,3 v 0.5 c 0,-1.66 1.34,-3 3,-3 h 13 c 4,0 4,-2 7,-2 h 30 c 1.66,0 3,1.34 3,3 V 19 c 0,-1.66 -1.34,-3 -3,-3 z" fill="#fff" opacity=".2"/><path d="m 27,15 c -3,0 -3,2 -7,2 H 7 v 1 h 13 c 4,0 4,-2 7,-2 h 30 v -1 z" opacity=".1"/><path d="m 27,15.5 c -3,0 -3,2 -7,2 H 7 V 18 h 13 c 4,0 4,-2 7,-2 h 30 v -0.5 z" opacity=".2"/></g>
</svg>