<?xml version="1.0" encoding="utf-8"?><svg height="64" width="64" xmlns="http://www.w3.org/2000/svg" xmlns:svg="http://www.w3.org/2000/svg" xmlns:xlink="http://www.w3.org/1999/xlink"><defs id="primary-definitions"><style id="current-color-scheme" type="text/css">.ColorScheme-Text           { color:#fff; }
      .ColorScheme-Background     { color:#111; }
      .ColorScheme-Highlight      { color:#3daefd; }
      .ColorScheme-ViewBackground { color:#000; }
      .ColorScheme-PositiveText   { color:#27ae60; }
      .ColorScheme-NeutralText    { color:#f67400; }
      .ColorScheme-NegativeText   { color:#da4453; }
  </style><style id="extended-color-scheme" type="text/css">.ExScheme-Black     { color:#3e3e3e; }
      .ExScheme-White     { color:#fcfcfc; }
      .ExScheme-Grey-1    { color:#cfd5d5; }
      .ExScheme-Grey-2    { color:#909c9c; }
      .ExScheme-Grey-3    { color:#536161; }
      .ExScheme-Red-1     { color:#ffafa5; }
      .ExScheme-Red-2     { color:#bf4231; }
      .ExScheme-Red-3     { color:#4d2f2b; }
      .ExScheme-Green-1   { color:#abf9c7; }
      .ExScheme-Green-2   { color:#3bb566; }
      .ExScheme-Green-3   { color:#377d50; }
      .ExScheme-Blue-1    { color:#abdaf9; }
      .ExScheme-Blue-2    { color:#3daefd; }
      .ExScheme-Blue-3    { color:#2b3c4d; }
      .ExScheme-Yellow-1  { color:#faffa5; }
      .ExScheme-Yellow-2  { color:#cac726; }
      .ExScheme-Yellow-3  { color:#4b4d2b; }
      .ExScheme-Orange-1  { color:#ffdaa5; }
      .ExScheme-Orange-2  { color:#ff9701; }
      .ExScheme-Orange-3  { color:#4d372b; }
      .ExScheme-Brown-1   { color:#e9d6bb; }
      .ExScheme-Brown-2   { color:#997657; }
      .ExScheme-Brown-3   { color:#433a35; }
      .ExScheme-Purple-1  { color:#e2abf9; }
      .ExScheme-Purple-2  { color:#b401ff; }
      .ExScheme-Purple-3  { color:#432b4d; }
      .ExScheme-Cyan-1    { color:#b2f2e6; }
      .ExScheme-Cyan-2    { color:#31bfa6; }
      .ExScheme-Cyan-3    { color:#2b4d47; }
      .ExScheme-Magenta-1 { color:#f8a6d8; }
      .ExScheme-Magenta-2 { color:#f00091; }
      .ExScheme-Magenta-3 { color:#770048; }
  </style><linearGradient id="gradientDark"><stop offset="0"/><stop offset="1" stop-opacity="0"/></linearGradient><linearGradient id="gradientLight"><stop offset="0" stop-color="#fff"/><stop offset="1" stop-color="#fff" stop-opacity="0"/></linearGradient><style class="toggle-enable-crease" type="text/css">.folder-crease { display: none; }
  </style><style class="toggle-manilla-folders" type="text/css">.folder-manilla { display: none; }
  </style><radialGradient cx=".5" cy="0" id="gl1" r="1" xlink:href="#gradientLight"/><linearGradient id="gd1" xlink:href="#gradientDark" y1="1" y2=".5"/><path d="M 10,8 C 8.338,8 7,9.338 7,11 v 7 c -1.662,0 -3,1.338 -3,3 v 32 c 0,1.662 1.338,3 3,3 h 50 c 1.662,0 3,-1.338 3,-3 V 26 21 19 c 0,-1.662 -1.338,-3 -3,-3 v -3 c 0,-1.662 -1.338,-3 -3,-3 H 28 C 24,10 24,8 21,8 Z" id="use-path-bz"/><path d="M 10,8 C 8.338,8 7,9.338 7,11 v 7 h 13 c 4,0 4,-2 7,-2 h 30 v -3 c 0,-1.662 -1.338,-3 -3,-3 H 28 C 24,10 24,8 21,8 Z" id="use-path-bA"/></defs><g id="content"><use class="folder-manilla ExScheme-Brown-1" fill="currentColor" href="#use-path-bz"/><use class="toggle-manilla-folders ColorScheme-Highlight" fill="currentColor" href="#use-path-bz" id="primary-color"/><use class="ColorScheme-Text" fill="currentColor" href="#use-path-bz" opacity=".1"/><g id="panorama" transform="translate(4,16)"><path class="ColorScheme-Background" d="M 9 8 C 7.343 8 6 9.343 6 11 C 6 12.657 7.343 14 9 14 C 10.657 14 12 12.657 12 11 C 12 9.343 10.657 8 9 8 z M 35 16.324 C 34.49 16.324 33.97 16.52 33.586 16.916 L 10.502 40 L 53 40 C 54.662 40 56 38.662 56 37 L 56 36.502 L 36.414 16.916 C 36.02 16.52 35.51 16.324 35 16.324 z M 18 19.324 C 17.48 19.324 16.98 19.52 16.586 19.916 L 0 36.502 L 0 37 C 0 38.662 1.338 40 3 40 L 8.502 40 L 24 24.5 L 19.414 19.916 C 19.02 19.522 18.51 19.324 18 19.324 z " fill="currentColor" opacity=".6"/><path class="ColorScheme-Background" d="M 9 8 C 7.343 8 6 9.343 6 11 C 6 12.657 7.343 14 9 14 C 10.657 14 12 12.657 12 11 C 12 9.343 10.657 8 9 8 z M 9 8.5 C 10.387 8.5 11.5 9.613 11.5 11 C 11.5 12.387 10.387 13.5 9 13.5 C 7.613 13.5 6.5 12.387 6.5 11 C 6.5 9.613 7.613 8.5 9 8.5 z M 35 16.324 C 34.49 16.324 33.97 16.52 33.586 16.916 L 10.502 40 L 53 40 C 54.662 40 56 38.662 56 37 L 56 36.502 L 36.414 16.916 C 36.02 16.52 35.51 16.324 35 16.324 z M 35 16.824 C 35.38 16.824 35.76 16.968 36.06 17.27 L 55.5 36.71 L 55.5 37 C 55.5 38.394 54.394 39.5 53 39.5 L 11.71 39.5 L 33.94 17.27 C 34.24 16.968 34.62 16.824 35 16.824 z M 18 19.324 C 17.48 19.324 16.98 19.52 16.586 19.916 L 0 36.502 L 0 37 C 0 38.662 1.338 40 3 40 L 8.502 40 L 24 24.5 L 19.414 19.916 C 19.02 19.522 18.51 19.324 18 19.324 z M 18 19.824 C 18.38 19.824 18.76 19.968 19.06 20.27 L 23.293 24.5 L 8.295 39.5 L 3 39.5 C 1.606 39.5 0.5 38.394 0.5 37 L 0.5 36.71 L 16.94 20.27 C 17.24 19.968 17.62 19.824 18 19.824 z " fill="currentColor" opacity=".6"/></g><use href="#use-path-bA" opacity=".4"/><use class="toggle-flat-design" fill="url(#gd1)" href="#use-path-bA" opacity=".1"/><path class="toggle-flat-design" d="m 26,16 c -2,0 -4,2 -6,2 H 6 c -1.11,0 -2,0.892 -2,2 v 34 c 0,1.108 0.892,2 2,2 h 52 c 1.108,0 2,-0.892 2,-2 V 18 c 0,-1.108 -0.892,-2 -2,-2 z" fill="url(#gl1)" opacity=".2"/><path class="folder-crease" d="m 4,44 v 2 H 6 C 6.554,46 7,45.554 7,45 7,44.446 6.554,44 6,44 Z m 54,0 c -0.554,0 -1,0.446 -1,1 0,0.554 0.446,1 1,1 h 2 v -2 z" opacity=".4"/><path class="ColorScheme-Text" d="m 4,52 v 1 c 0,1.662 1.338,3 3,3 h 50 c 1.662,0 3,-1.338 3,-3 v -1 c 0,1.662 -1.338,3 -3,3 H 7 C 5.338,55 4,53.662 4,52 Z" fill="currentColor" opacity=".1"/><path class="ColorScheme-Text" d="M 4,52.5 V 53 c 0,1.662 1.338,3 3,3 h 50 c 1.662,0 3,-1.338 3,-3 v -0.5 c 0,1.662 -1.338,3 -3,3 H 7 c -1.662,0 -3,-1.338 -3,-3 z" fill="currentColor" opacity=".2"/><path d="m 27,16 c -3,0 -3,2 -7,2 H 7 c -1.662,0 -3,1.338 -3,3 v 1 c 0,-1.662 1.338,-3 3,-3 h 13 c 4,0 4,-2 7,-2 h 30 c 1.662,0 3,1.338 3,3 v -1 c 0,-1.662 -1.338,-3 -3,-3 z" fill="#fff" opacity=".1"/><path d="m 27,16 c -3,0 -3,2 -7,2 H 7 c -1.662,0 -3,1.338 -3,3 v 0.5 c 0,-1.662 1.338,-3 3,-3 h 13 c 4,0 4,-2 7,-2 h 30 c 1.662,0 3,1.338 3,3 V 19 c 0,-1.662 -1.338,-3 -3,-3 z" fill="#fff" opacity=".2"/><path d="m 27,15 c -3,0 -3,2 -7,2 H 7 v 1 h 13 c 4,0 4,-2 7,-2 h 30 v -1 z" opacity=".1"/><path d="m 27,15.5 c -3,0 -3,2 -7,2 H 7 V 18 h 13 c 4,0 4,-2 7,-2 h 30 v -0.5 z" opacity=".2"/></g></svg>