<svg height="64" version="1.1" width="64" xmlns="http://www.w3.org/2000/svg" xmlns:svg="http://www.w3.org/2000/svg" xmlns:xlink="http://www.w3.org/1999/xlink">
<defs id="primary-definitions">
<style id="current-color-scheme" type="text/css">
      .ColorScheme-Text           { color:#fff; }
      .ColorScheme-Background     { color:#111; }
      .ColorScheme-Highlight      { color:#3daefd; }
      .ColorScheme-ViewBackground { color:#000; }
      .ColorScheme-PositiveText   { color:#27ae60; }
      .ColorScheme-NeutralText    { color:#f67400; }
      .ColorScheme-NegativeText   { color:#da4453; }
    </style>
<style id="extended-color-scheme" type="text/css">
      .ExScheme-Black     { color:#3e3e3e; }
      .ExScheme-White     { color:#fcfcfc; }
      .ExScheme-Grey-1    { color:#cfd5d5; }
      .ExScheme-Grey-2    { color:#909c9c; }
      .ExScheme-Grey-3    { color:#536161; }
      .ExScheme-Red-1     { color:#ffafa5; }
      .ExScheme-Red-2     { color:#bf4231; }
      .ExScheme-Red-3     { color:#4d2f2b; }
      .ExScheme-Green-1   { color:#abf9c7; }
      .ExScheme-Green-2   { color:#3bb566; }
      .ExScheme-Green-3   { color:#377d50; }
      .ExScheme-Blue-1    { color:#abdaf9; }
      .ExScheme-Blue-2    { color:#3daefd; }
      .ExScheme-Blue-3    { color:#2b3c4d; }
      .ExScheme-Yellow-1  { color:#faffa5; }
      .ExScheme-Yellow-2  { color:#cac726; }
      .ExScheme-Yellow-3  { color:#4b4d2b; }
      .ExScheme-Orange-1  { color:#ffdaa5; }
      .ExScheme-Orange-2  { color:#ff9701; }
      .ExScheme-Orange-3  { color:#4d372b; }
      .ExScheme-Brown-1   { color:#e9d6bb; }
      .ExScheme-Brown-2   { color:#997657; }
      .ExScheme-Brown-3   { color:#433a35; }
      .ExScheme-Purple-1  { color:#e2abf9; }
      .ExScheme-Purple-2  { color:#b401ff; }
      .ExScheme-Purple-3  { color:#432b4d; }
      .ExScheme-Cyan-1    { color:#b2f2e6; }
      .ExScheme-Cyan-2    { color:#31bfa6; }
      .ExScheme-Cyan-3    { color:#2b4d47; }
      .ExScheme-Magenta-1 { color:#f8a6d8; }
      .ExScheme-Magenta-2 { color:#f00091; }
      .ExScheme-Magenta-3 { color:#770048; }
    </style>
<linearGradient id="uEP">
<stop offset="0"/>
<stop offset="1" stop-opacity="0"/>
</linearGradient>
<linearGradient id="uEQ">
<stop offset="0" stop-color="#fff"/>
<stop offset="1" stop-color="#fff" stop-opacity="0"/>
</linearGradient>
<style class="toggle-enable-crease" type="text/css">
        .folder-crease { display: none; }
    </style><style class="toggle-manilla-folders" type="text/css">
        .folder-manilla { display: none; }
    </style><radialGradient cx=".5" cy="0" id="uER" r="1" xlink:href="#uEQ"/><linearGradient id="uES" xlink:href="#uEP" y1="1" y2=".5"/><path d="M 10,8 C 8.34,8 7,9.34 7,11 v 7 c -1.66,0 -3,1.34 -3,3 v 32 c 0,1.66 1.34,3 3,3 h 50 c 1.66,0 3,-1.34 3,-3 V 26 21 19 c 0,-1.66 -1.34,-3 -3,-3 v -3 c 0,-1.66 -1.34,-3 -3,-3 H 28 C 24,10 24,8 21,8 Z" id="uET"></path><path d="M 10,8 C 8.34,8 7,9.34 7,11 v 7 h 13 c 4,0 4,-2 7,-2 h 30 v -3 c 0,-1.66 -1.34,-3 -3,-3 H 28 C 24,10 24,8 21,8 Z" id="uEU"></path></defs>
<g id="content" transform="translate(0,0)"><use class="folder-manilla ExScheme-Brown-1" fill="currentColor" href="#uET"></use><use class="toggle-manilla-folders ColorScheme-Highlight" fill="currentColor" href="#uET" id="primary-color"></use><use class="ColorScheme-Text" fill="currentColor" href="#uET" opacity=".1"></use><g id="panorama" transform="translate(4,16)"><path class="ColorScheme-Background" d="m 51.95,10 c -.16,0 -.3,.06 -.45,.14 l -43,25 C 7.6,35.65 8,37 9,37 h 4 v -1.5 c 0,-.3 .2,-0.5 0.5,-0.5 .3,0 0.5,.2 0.5,0.5 V 37 h 2 v -0.5 c 0,-.27 .2,-.5 .47,-0.5 0,-4.3e-4 0,0 .03,0 .3,0 0.5,.2 0.5,0.5 V 37 h 2 v -1.5 c 0,-.3 .2,-0.5 0.5,-0.5 .3,0 0.5,.2 0.5,0.5 V 37 h 2 v -0.5 c 0,-.27 .2,-.5 .47,-0.5 0,-4.3e-4 0,0 .03,0 .3,0 0.5,.2 0.5,0.5 V 37 h 2 v -1.5 c 0,-.3 .2,-0.5 0.5,-0.5 .3,0 0.5,.2 0.5,0.5 V 37 h 2 v -0.5 c 0,-.27 .2,-.5 .47,-0.5 0,-4.3e-4 0,0 .03,0 .3,0 0.5,.2 0.5,0.5 V 37 h 2 v -1.5 c 0,-.3 .2,-0.5 0.5,-0.5 .3,0 0.5,.2 0.5,0.5 V 37 h 2 v -0.5 c 0,-.27 .2,-.5 .47,-0.5 0,-4.3e-4 0,0 .03,0 .3,0 0.5,.2 0.5,0.5 V 37 h 2 v -1.5 c 0,-.3 .2,-0.5 0.5,-0.5 .3,0 0.5,.2 0.5,0.5 V 37 h 2 v -0.5 c 0,-.27 .2,-.5 .47,-0.5 0,-4.3e-4 0,0 .03,0 .3,0 0.5,.2 0.5,0.5 V 37 h 2 v -1.5 c 0,-.3 .2,-0.5 0.5,-0.5 .3,0 0.5,.2 0.5,0.5 V 37 h 2 v -0.5 c 0,-.27 .2,-.5 .47,-0.5 0,-4.3e-4 0,0 .03,0 .3,0 0.5,.2 0.5,0.5 V 37 h 2 v -1.5 c 0,-.3 .2,-0.5 0.5,-0.5 .3,0 0.5,.2 0.5,0.5 V 37 h 2 c .55,-5.5e-5 1,-.45 1,-1 V 34 H 51.5 C 51.2,34 51,33.8 51,33.5 51,33.2 51.2,33 51.5,33 H 53 V 31 H 52.5 C 52.2,31 52,30.8 52,30.5 c 0,-.27 .2,-.5 .47,-0.5 0,-4.3e-4 0,0 .03,0 H 53 V 28 H 51.5 C 51.2,28 51,27.8 51,27.5 51,27.2 51.2,27 51.5,27 H 53 V 25 H 52.5 C 52.2,25 52,24.8 52,24.5 c 0,-.27 .2,-.5 .47,-0.5 0,-4.3e-4 0,0 .03,0 H 53 V 22 H 51.5 C 51.2,22 51,21.8 51,21.5 51,21.2 51.2,21 51.5,21 H 53 V 19 H 52.5 C 52.2,19 52,18.8 52,18.5 c 0,-.27 .2,-.5 .47,-0.5 0,-4.3e-4 0,0 .03,0 H 53 V 16 H 51.5 C 51.2,16 51,15.8 51,15.5 51,15.2 51.2,15 51.5,15 H 53 V 11 C 53,10.2 52.44,9.96 51.95,10 Z M 46,20.77 V 30 H 30.6 Z" fill="currentColor" opacity=".6"/><path class="ColorScheme-Background" d="M 52.13 10 C 52.07 10 52 10 51.95 10 C 51.8 10 51.6 10.06 51.5 10.13 L 8.5 35.13 C 7.6 35.65 8 37 9 37 L 13 37 L 13 35.5 C 13 35.2 13.2 35 13.5 35 C 13.8 35 14 35.2 14 35.5 L 14 37 L 16 37 L 16 36.5 C 16 36.23 16.2 36 16.47 36 C 16.5 36 16.5 36 16.5 36 C 16.8 36 17 36.2 17 36.5 L 17 37 L 19 37 L 19 35.5 C 19 35.2 19.2 35 19.5 35 C 19.8 35 20 35.2 20 35.5 L 20 37 L 22 37 L 22 36.5 C 22 36.23 22.2 36 22.47 36 C 22.5 36 22.5 36 22.5 36 C 22.8 36 23 36.2 23 36.5 L 23 37 L 25 37 L 25 35.5 C 25 35.2 25.2 35 25.5 35 C 25.8 35 26 35.2 26 35.5 L 26 37 L 28 37 L 28 36.5 C 28 36.23 28.2 36 28.47 36 C 28.5 36 28.5 36 28.5 36 C 28.8 36 29 36.2 29 36.5 L 29 37 L 31 37 L 31 35.5 C 31 35.2 31.2 35 31.5 35 C 31.8 35 32 35.2 32 35.5 L 32 37 L 34 37 L 34 36.5 C 34 36.23 34.2 36 34.47 36 C 34.5 36 34.5 36 34.5 36 C 34.8 36 35 36.2 35 36.5 L 35 37 L 37 37 L 37 35.5 C 37 35.2 37.2 35 37.5 35 C 37.8 35 38 35.2 38 35.5 L 38 37 L 40 37 L 40 36.5 C 40 36.23 40.2 36 40.47 36 C 40.5 36 40.5 36 40.5 36 C 40.8 36 41 36.2 41 36.5 L 41 37 L 43 37 L 43 35.5 C 43 35.2 43.2 35 43.5 35 C 43.8 35 44 35.2 44 35.5 L 44 37 L 46 37 L 46 36.5 C 46 36.23 46.2 36 46.47 36 C 46.5 36 46.5 36 46.5 36 C 46.8 36 47 36.2 47 36.5 L 47 37 L 49 37 L 49 35.5 C 49 35.2 49.2 35 49.5 35 C 49.8 35 50 35.2 50 35.5 L 50 37 L 52 37 C 52.55 37 53 36.55 53 36 L 53 34 L 51.5 34 C 51.2 34 51 33.8 51 33.5 C 51 33.2 51.2 33 51.5 33 L 53 33 L 53 31 L 52.5 31 C 52.2 31 52 30.8 52 30.5 C 52 30.23 52.2 30 52.47 30 C 52.5 30 52.5 30 52.5 30 L 53 30 L 53 28 L 51.5 28 C 51.2 28 51 27.8 51 27.5 C 51 27.2 51.2 27 51.5 27 L 53 27 L 53 25 L 52.5 25 C 52.2 25 52 24.8 52 24.5 C 52 24.23 52.2 24 52.47 24 C 52.5 24 52.5 24 52.5 24 L 53 24 L 53 22 L 51.5 22 C 51.2 22 51 21.8 51 21.5 C 51 21.2 51.2 21 51.5 21 L 53 21 L 53 19 L 52.5 19 C 52.2 19 52 18.8 52 18.5 C 52 18.23 52.2 18 52.47 18 C 52.5 18 52.5 18 52.5 18 L 53 18 L 53 16 L 51.5 16 C 51.2 16 51 15.8 51 15.5 C 51 15.2 51.2 15 51.5 15 L 53 15 L 53 11 C 53 10.3 52.57 10.03 52.13 10 z M 52 10.5 C 52.13 10.5 52.27 10.5 52.35 10.6 C 52.43 10.65 52.5 10.73 52.5 11 L 52.5 14.5 L 51.5 14.5 C 50.95 14.5 50.5 14.95 50.5 15.5 C 50.5 16.05 50.95 16.5 51.5 16.5 L 52.5 16.5 L 52.5 17.5 C 52.5 17.5 52.5 17.5 52.45 17.5 C 51.9 17.53 51.5 17.97 51.5 18.5 C 51.5 19.05 51.95 19.5 52.5 19.5 L 52.5 20.5 L 51.5 20.5 C 50.95 20.5 50.5 20.95 50.5 21.5 C 50.5 22.05 50.95 22.5 51.5 22.5 L 52.5 22.5 L 52.5 23.5 C 52.5 23.5 52.5 23.5 52.45 23.5 C 51.9 23.53 51.5 23.97 51.5 24.5 C 51.5 25.05 51.95 25.5 52.5 25.5 L 52.5 26.5 L 51.5 26.5 C 50.95 26.5 50.5 26.95 50.5 27.5 C 50.5 28.05 50.95 28.5 51.5 28.5 L 52.5 28.5 L 52.5 29.5 C 52.5 29.5 52.5 29.5 52.45 29.5 C 51.9 29.53 51.5 29.97 51.5 30.5 C 51.5 31.05 51.95 31.5 52.5 31.5 L 52.5 32.5 L 51.5 32.5 C 50.95 32.5 50.5 32.95 50.5 33.5 C 50.5 34.05 50.95 34.5 51.5 34.5 L 52.5 34.5 L 52.5 36 C 52.5 36.3 52.3 36.5 52 36.5 L 50.5 36.5 L 50.5 35.5 C 50.5 34.95 50.05 34.5 49.5 34.5 C 48.95 34.5 48.5 34.95 48.5 35.5 L 48.5 36.5 L 47.5 36.5 C 47.5 35.95 47.05 35.5 46.5 35.5 C 46.5 35.5 46.5 35.5 46.45 35.5 C 45.9 35.53 45.5 35.97 45.5 36.5 L 44.5 36.5 L 44.5 35.5 C 44.5 34.95 44.05 34.5 43.5 34.5 C 42.95 34.5 42.5 34.95 42.5 35.5 L 42.5 36.5 L 41.5 36.5 C 41.5 35.95 41.05 35.5 40.5 35.5 C 40.5 35.5 40.5 35.5 40.45 35.5 C 39.9 35.53 39.5 35.97 39.5 36.5 L 38.5 36.5 L 38.5 35.5 C 38.5 34.95 38.05 34.5 37.5 34.5 C 36.95 34.5 36.5 34.95 36.5 35.5 L 36.5 36.5 L 35.5 36.5 C 35.5 35.95 35.05 35.5 34.5 35.5 C 34.5 35.5 34.5 35.5 34.45 35.5 C 33.9 35.53 33.5 35.97 33.5 36.5 L 32.5 36.5 L 32.5 35.5 C 32.5 34.95 32.05 34.5 31.5 34.5 C 30.95 34.5 30.5 34.95 30.5 35.5 L 30.5 36.5 L 29.5 36.5 C 29.5 35.95 29.05 35.5 28.5 35.5 C 28.5 35.5 28.5 35.5 28.45 35.5 C 27.9 35.53 27.5 35.97 27.5 36.5 L 26.5 36.5 L 26.5 35.5 C 26.5 34.95 26.05 34.5 25.5 34.5 C 24.95 34.5 24.5 34.95 24.5 35.5 L 24.5 36.5 L 23.5 36.5 C 23.5 35.95 23.05 35.5 22.5 35.5 C 22.5 35.5 22.5 35.5 22.45 35.5 C 21.9 35.53 21.5 35.97 21.5 36.5 L 20.5 36.5 L 20.5 35.5 C 20.5 34.95 20.05 34.5 19.5 34.5 C 18.95 34.5 18.5 34.95 18.5 35.5 L 18.5 36.5 L 17.5 36.5 C 17.5 35.95 17.05 35.5 16.5 35.5 C 16.5 35.5 16.5 35.5 16.45 35.5 C 15.9 35.53 15.5 35.97 15.5 36.5 L 14.5 36.5 L 14.5 35.5 C 14.5 34.95 14.05 34.5 13.5 34.5 C 12.95 34.5 12.5 34.95 12.5 35.5 L 12.5 36.5 L 9 36.5 C 8.7 36.5 8.57 36.34 8.5 36.13 C 8.46 35.9 8.5 35.7 8.75 35.57 A .5 .5 0 0 0 8.75 35.57 L 51.75 10.57 C 51.8 10.53 51.9 10.5 52 10.5 z M 46 20.27 A .5 .5 0 0 0 45.74 20.34 L 30.35 29.57 A .5 .5 0 0 0 30.6 30.5 L 46 30.5 A .5 .5 0 0 0 46.5 30 L 46.5 20.77 A .5 .5 0 0 0 46.25 20.33 A .5 .5 0 0 0 46 20.27 z M 46 20.77 L 46 30 L 30.6 30 L 46 20.77 z " fill="currentColor" opacity=".6"/></g><use href="#uEU" opacity=".4"></use><use class="toggle-flat-design" fill="url(#uES)" href="#uEU" opacity=".1"></use><path class="toggle-flat-design" d="m 26,16 c -2,0 -4,2 -6,2 H 6 c -1.11,0 -2,.9 -2,2 v 34 c 0,1.1 .9,2 2,2 h 52 c 1.1,0 2,-.9 2,-2 V 18 c 0,-1.1 -.9,-2 -2,-2 z" fill="url(#uER)" opacity=".2"/><path class="folder-crease " d="m 4,44 v 2 H 6 C 6.55,46 7,45.55 7,45 7,44.45 6.55,44 6,44 Z m 54,0 c -.55,0 -1,.45 -1,1 0,.55 .45,1 1,1 h 2 v -2 z" opacity=".4"/><path class="ColorScheme-Text" d="m 4,52 v 1 c 0,1.66 1.34,3 3,3 h 50 c 1.66,0 3,-1.34 3,-3 v -1 c 0,1.66 -1.34,3 -3,3 H 7 C 5.34,55 4,53.66 4,52 Z" fill="currentColor" opacity=".1"/><path class="ColorScheme-Text" d="M 4,52.5 V 53 c 0,1.66 1.34,3 3,3 h 50 c 1.66,0 3,-1.34 3,-3 v -0.5 c 0,1.66 -1.34,3 -3,3 H 7 c -1.66,0 -3,-1.34 -3,-3 z" fill="currentColor" opacity=".2"/><path d="m 27,16 c -3,0 -3,2 -7,2 H 7 c -1.66,0 -3,1.34 -3,3 v 1 c 0,-1.66 1.34,-3 3,-3 h 13 c 4,0 4,-2 7,-2 h 30 c 1.66,0 3,1.34 3,3 v -1 c 0,-1.66 -1.34,-3 -3,-3 z" fill="#fff" opacity=".1"/><path d="m 27,16 c -3,0 -3,2 -7,2 H 7 c -1.66,0 -3,1.34 -3,3 v 0.5 c 0,-1.66 1.34,-3 3,-3 h 13 c 4,0 4,-2 7,-2 h 30 c 1.66,0 3,1.34 3,3 V 19 c 0,-1.66 -1.34,-3 -3,-3 z" fill="#fff" opacity=".2"/><path d="m 27,15 c -3,0 -3,2 -7,2 H 7 v 1 h 13 c 4,0 4,-2 7,-2 h 30 v -1 z" opacity=".1"/><path d="m 27,15.5 c -3,0 -3,2 -7,2 H 7 V 18 h 13 c 4,0 4,-2 7,-2 h 30 v -0.5 z" opacity=".2"/></g>
</svg>