<svg height="64" version="1.1" width="64" xmlns="http://www.w3.org/2000/svg" xmlns:svg="http://www.w3.org/2000/svg" xmlns:xlink="http://www.w3.org/1999/xlink">
<defs id="primary-definitions">
<style id="current-color-scheme" type="text/css">
      .ColorScheme-Text           { color:#fff; }
      .ColorScheme-Background     { color:#111; }
      .ColorScheme-Highlight      { color:#3daefd; }
      .ColorScheme-ViewBackground { color:#000; }
      .ColorScheme-PositiveText   { color:#27ae60; }
      .ColorScheme-NeutralText    { color:#f67400; }
      .ColorScheme-NegativeText   { color:#da4453; }
    </style>
<style id="extended-color-scheme" type="text/css">
      .ExScheme-Black     { color:#3e3e3e; }
      .ExScheme-White     { color:#fcfcfc; }
      .ExScheme-Grey-1    { color:#cfd5d5; }
      .ExScheme-Grey-2    { color:#909c9c; }
      .ExScheme-Grey-3    { color:#536161; }
      .ExScheme-Red-1     { color:#ffafa5; }
      .ExScheme-Red-2     { color:#bf4231; }
      .ExScheme-Red-3     { color:#4d2f2b; }
      .ExScheme-Green-1   { color:#abf9c7; }
      .ExScheme-Green-2   { color:#3bb566; }
      .ExScheme-Green-3   { color:#377d50; }
      .ExScheme-Blue-1    { color:#abdaf9; }
      .ExScheme-Blue-2    { color:#3daefd; }
      .ExScheme-Blue-3    { color:#2b3c4d; }
      .ExScheme-Yellow-1  { color:#faffa5; }
      .ExScheme-Yellow-2  { color:#cac726; }
      .ExScheme-Yellow-3  { color:#4b4d2b; }
      .ExScheme-Orange-1  { color:#ffdaa5; }
      .ExScheme-Orange-2  { color:#ff9701; }
      .ExScheme-Orange-3  { color:#4d372b; }
      .ExScheme-Brown-1   { color:#e9d6bb; }
      .ExScheme-Brown-2   { color:#997657; }
      .ExScheme-Brown-3   { color:#433a35; }
      .ExScheme-Purple-1  { color:#e2abf9; }
      .ExScheme-Purple-2  { color:#b401ff; }
      .ExScheme-Purple-3  { color:#432b4d; }
      .ExScheme-Cyan-1    { color:#b2f2e6; }
      .ExScheme-Cyan-2    { color:#31bfa6; }
      .ExScheme-Cyan-3    { color:#2b4d47; }
      .ExScheme-Magenta-1 { color:#f8a6d8; }
      .ExScheme-Magenta-2 { color:#f00091; }
      .ExScheme-Magenta-3 { color:#770048; }
    </style>
<linearGradient id="udM">
<stop offset="0"/>
<stop offset="1" stop-opacity="0"/>
</linearGradient>
<linearGradient id="udN">
<stop offset="0" stop-color="#fff"/>
<stop offset="1" stop-color="#fff" stop-opacity="0"/>
</linearGradient>
<style class="toggle-enable-crease" type="text/css">
        .folder-crease { display: none; }
    </style><style class="toggle-manilla-folders" type="text/css">
        .folder-manilla { display: none; }
    </style><radialGradient cx=".5" cy="0" id="udO" r="1" xlink:href="#udN"/><linearGradient id="udP" xlink:href="#udM" y1="1" y2=".5"/><path d="M 10,8 C 8.34,8 7,9.34 7,11 v 7 c -1.66,0 -3,1.34 -3,3 v 32 c 0,1.66 1.34,3 3,3 h 50 c 1.66,0 3,-1.34 3,-3 V 26 21 19 c 0,-1.66 -1.34,-3 -3,-3 v -3 c 0,-1.66 -1.34,-3 -3,-3 H 28 C 24,10 24,8 21,8 Z" id="udQ"></path><path d="M 10,8 C 8.34,8 7,9.34 7,11 v 7 h 13 c 4,0 4,-2 7,-2 h 30 v -3 c 0,-1.66 -1.34,-3 -3,-3 H 28 C 24,10 24,8 21,8 Z" id="udR"></path></defs>
<g id="content" transform="translate(0,0)"><use class="folder-manilla ExScheme-Brown-1" fill="currentColor" href="#udQ"></use><use class="toggle-manilla-folders ColorScheme-Highlight" fill="currentColor" href="#udQ" id="primary-color"></use><use class="ColorScheme-Text" fill="currentColor" href="#udQ" opacity=".1"></use><g id="emblem" transform="translate(16,21)"><path class="ColorScheme-Background" d="M 16 2 C 15.45 2 15 2.45 15 3 L 15 3.13 A 4 4 0 0 0 12 7 A 4 4 0 0 0 13.7 10.25 L 10.05 19 L 8.5 19 C 8.2 19 8 19.2 8 19.5 C 8 19.8 8.2 20 8.5 20 L 9.64 20 L 6.8 26.84 C 6.66 27.2 6.73 27.56 6.94 27.83 C 6.94 27.83 6.3 29.9 6.6 30 C 6.84 30.1 7.86 28.2 7.86 28.2 C 8.3 28.17 8.5 27.95 8.65 27.6 L 11.8 20 L 15 20 L 15 21 C 15 21.55 15.45 22 16 22 C 16.55 22 17 21.55 17 21 L 17 20 L 20.2 20 L 23.35 27.6 C 23.5 27.95 23.8 28.17 24.14 28.2 C 24.14 28.2 25.16 30.1 25.4 30 C 25.7 29.9 25.06 27.83 25.06 27.83 C 25.27 27.56 25.34 27.2 25.2 26.84 L 22.36 20 L 23.5 20 C 23.8 20 24 19.8 24 19.5 C 24 19.2 23.8 19 23.5 19 L 21.95 19 L 18.3 10.25 A 4 4 0 0 0 20 7 A 4 4 0 0 0 17 3.13 L 17 3 C 17 2.45 16.55 2 16 2 z M 16 4 A 3 3 0 0 1 19 7 A 3 3 0 0 1 16 10 A 3 3 0 0 1 13 7 A 3 3 0 0 1 16 4 z M 16 5 A 2 2 0 0 0 14 7 A 2 2 0 0 0 16 9 A 2 2 0 0 0 18 7 A 2 2 0 0 0 16 5 z M 15.54 10.97 A 4 4 0 0 0 16 11 A 4 4 0 0 0 16.46 10.97 L 19.8 19 L 17 19 L 17 18 C 17 17.45 16.55 17 16 17 C 15.45 17 15 17.45 15 18 L 15 19 L 12.2 19 L 15.54 10.97 z " fill="currentColor" opacity=".6" stop-color="#000000"/><path class="ColorScheme-Background" d="M 16,2 C 15.45,2 15,2.45 15,3 V 3.13 C 13.24,3.6 12,5.2 12,7 c 0,1.3 .63,2.5 1.7,3.25 L 10.05,19 H 8.5 C 8.2,19 8,19.2 8,19.5 8,19.8 8.2,20 8.5,20 h 1.14 l -2.83,6.84 c -.14,.34 -.1,.7 .13,1 0,0 -.6,2.06 -.36,2.16 .26,.1 1.3,-1.8 1.3,-1.8 .34,-.05 .65,-.26 .8,-.6 L 11.8,20 H 15 v 1 c 0,.55 .45,1 1,1 .55,0 1,-.45 1,-1 v -1 h 3.2 l 3.15,7.6 c .14,.34 .45,.56 .8,.6 0,0 1,1.9 1.3,1.8 .26,-.1 -.36,-2.16 -.36,-2.16 .2,-.27 .27,-.65 .13,-1 L 22.36,20 H 23.5 C 23.8,20 24,19.8 24,19.5 24,19.2 23.8,19 23.5,19 H 21.95 L 18.3,10.25 C 19.37,9.5 20,8.3 20,7 20,5.2 18.77,3.6 17,3.13 V 3 C 17,2.45 16.55,2 16,2 Z m 0,0.5 c .3,0 0.5,.2 0.5,0.5 v .5 l -1,0 V 3 C 15.5,2.7 15.7,2.5 16,2.5 Z M 16,4 c 1.66,0 3,1.34 3,3 0,1.66 -1.34,3 -3,3 -1.66,0 -3,-1.34 -3,-3 0,-1.66 1.34,-3 3,-3 z m 2.64,.77 c .1,.1 .13,.2 .2,.3 C 18.77,4.97 18.7,4.86 18.64,4.77 Z M 16,5 c -1.1,0 -2,.9 -2,2 0,1.1 .9,2 2,2 1.1,0 2,-.9 2,-2 0,-1.1 -.9,-2 -2,-2 z m 0,0.5 c .83,0 1.5,.67 1.5,1.5 0,.83 -.67,1.5 -1.5,1.5 C 15.17,8.5 14.5,7.83 14.5,7 14.5,6.17 15.17,5.5 16,5.5 Z M 15.23,10.4 15.1,10.8 11.47,19.5 8.2,27.4 c -.07,.2 -.2,.3 -.4,.3 l -.25,.03 -.05,-0 -.16,-.2 C 7.23,27.4 7.2,27.2 7.27,27.03 L 10.4,19.5 14.3,10.07 Z m 2.47,-.35 3.9,9.43 3.1,7.53 c .07,.2 .04,.36 -.06,.5 l -.16,.2 -.05,0 -.25,-.03 C 24.03,27.7 23.9,27.6 23.8,27.4 L 20.53,19.5 16.77,10.4 Z m -2.16,.9 C 15.7,11 15.85,11 16,11 c .15,-0 .3,-0 .46,-.03 L 19.8,19 H 17 v -1 c 0,-.55 -.45,-1 -1,-1 -.55,0 -1,.45 -1,1 v 1 H 12.2 Z M 16,17.5 c .3,0 0.5,.2 0.5,0.5 v 1.5 1.5 c 0,.3 -.2,0.5 -0.5,0.5 -.3,0 -0.5,-.2 -0.5,-0.5 V 19.5 18 c 0,-.3 .2,-0.5 0.5,-0.5 z" fill="currentColor" opacity=".6"/></g><use href="#udR" opacity=".4"></use><use class="toggle-flat-design" fill="url(#udP)" href="#udR" opacity=".1"></use><path class="toggle-flat-design" d="m 26,16 c -2,0 -4,2 -6,2 H 6 c -1.11,0 -2,.9 -2,2 v 34 c 0,1.1 .9,2 2,2 h 52 c 1.1,0 2,-.9 2,-2 V 18 c 0,-1.1 -.9,-2 -2,-2 z" fill="url(#udO)" opacity=".2"/><path class="folder-crease " d="m 4,44 v 2 h 9 c .55,0 1,-.45 1,-1 0,-.55 -.45,-1 -1,-1 z m 47,0 c -.55,0 -1,.45 -1,1 0,.55 .45,1 1,1 h 9 v -2 z" opacity=".4"/><path class="ColorScheme-Text" d="m 4,52 v 1 c 0,1.66 1.34,3 3,3 h 50 c 1.66,0 3,-1.34 3,-3 v -1 c 0,1.66 -1.34,3 -3,3 H 7 C 5.34,55 4,53.66 4,52 Z" fill="currentColor" opacity=".1"/><path class="ColorScheme-Text" d="M 4,52.5 V 53 c 0,1.66 1.34,3 3,3 h 50 c 1.66,0 3,-1.34 3,-3 v -0.5 c 0,1.66 -1.34,3 -3,3 H 7 c -1.66,0 -3,-1.34 -3,-3 z" fill="currentColor" opacity=".2"/><path d="m 27,16 c -3,0 -3,2 -7,2 H 7 c -1.66,0 -3,1.34 -3,3 v 1 c 0,-1.66 1.34,-3 3,-3 h 13 c 4,0 4,-2 7,-2 h 30 c 1.66,0 3,1.34 3,3 v -1 c 0,-1.66 -1.34,-3 -3,-3 z" fill="#fff" opacity=".1"/><path d="m 27,16 c -3,0 -3,2 -7,2 H 7 c -1.66,0 -3,1.34 -3,3 v 0.5 c 0,-1.66 1.34,-3 3,-3 h 13 c 4,0 4,-2 7,-2 h 30 c 1.66,0 3,1.34 3,3 V 19 c 0,-1.66 -1.34,-3 -3,-3 z" fill="#fff" opacity=".2"/><path d="m 27,15 c -3,0 -3,2 -7,2 H 7 v 1 h 13 c 4,0 4,-2 7,-2 h 30 v -1 z" opacity=".1"/><path d="m 27,15.5 c -3,0 -3,2 -7,2 H 7 V 18 h 13 c 4,0 4,-2 7,-2 h 30 v -0.5 z" opacity=".2"/></g>
</svg>