<svg height="64" version="1.1" width="64" xmlns="http://www.w3.org/2000/svg" xmlns:svg="http://www.w3.org/2000/svg" xmlns:xlink="http://www.w3.org/1999/xlink">
<defs id="primary-definitions">
<style id="current-color-scheme" type="text/css">
      .ColorScheme-Text         { color: #232629; }
      .ColorScheme-Background   { color: #eff0f1; }
      .ColorScheme-Highlight    { color: #7ec9f0; }
      .ColorScheme-PositiveText { color: #27ae60; }
      .ColorScheme-NeutralText  { color: #f67400; }
      .ColorScheme-NegativeText { color: #da4453; }
      .ColorScheme-ActiveText   { color: #3daee9; }
      .ColorScheme-Complement   { color: #ffffff; }
      .ColorScheme-Contrast     { color: #000000; }
    </style>
<style id="extended-color-scheme" type="text/css">
      .ExScheme-Black     { color:#3e3e3e; }
      .ExScheme-White     { color:#fcfcfc; }
      .ExScheme-Grey-1    { color:#cfd5d5; }
      .ExScheme-Grey-2    { color:#909c9c; }
      .ExScheme-Grey-3    { color:#536161; }
      .ExScheme-Red-1     { color:#ffafa5; }
      .ExScheme-Red-2     { color:#bf4231; }
      .ExScheme-Red-3     { color:#4d2f2b; }
      .ExScheme-Green-1   { color:#abf9c7; }
      .ExScheme-Green-2   { color:#3bb566; }
      .ExScheme-Green-3   { color:#377d50; }
      .ExScheme-Blue-1    { color:#abdaf9; }
      .ExScheme-Blue-2    { color:#3daefd; }
      .ExScheme-Blue-3    { color:#2b3c4d; }
      .ExScheme-Yellow-1  { color:#faffa5; }
      .ExScheme-Yellow-2  { color:#cac726; }
      .ExScheme-Yellow-3  { color:#4b4d2b; }
      .ExScheme-Orange-1  { color:#ffdaa5; }
      .ExScheme-Orange-2  { color:#ff9701; }
      .ExScheme-Orange-3  { color:#4d372b; }
      .ExScheme-Brown-1   { color:#e9d6bb; }
      .ExScheme-Brown-2   { color:#997657; }
      .ExScheme-Brown-3   { color:#433a35; }
      .ExScheme-Purple-1  { color:#e2abf9; }
      .ExScheme-Purple-2  { color:#b401ff; }
      .ExScheme-Purple-3  { color:#432b4d; }
      .ExScheme-Cyan-1    { color:#b2f2e6; }
      .ExScheme-Cyan-2    { color:#31bfa6; }
      .ExScheme-Cyan-3    { color:#2b4d47; }
      .ExScheme-Magenta-1 { color:#f8a6d8; }
      .ExScheme-Magenta-2 { color:#f00091; }
      .ExScheme-Magenta-3 { color:#770048; }
    </style>
<linearGradient id="uFp">
<stop offset="0"/>
<stop offset="1" stop-opacity="0"/>
</linearGradient>
<linearGradient id="uFq">
<stop offset="0" stop-color="#fff"/>
<stop offset="1" stop-color="#fff" stop-opacity="0"/>
</linearGradient>
<style id="uFr" type="text/css">
        .force-display-for-editing { display: inline !important; }
    </style><style class="remove-if__show-crease" type="text/css">
        .enable-if__show-crease { display: none; }
    </style><style class="remove-if__color-sync-mimes-places" type="text/css">
        .enable-if__color-sync-mimes-places { display: none; }
    </style><radialGradient cx=".5" cy="0" id="uFs" r="1" xlink:href="#uFq"/><linearGradient id="uFt" xlink:href="#uFp" y1="1" y2=".5"/><style class="ColorScheme-Background" fill="currentColor" opacity=".6" type="text/css">
   .ColorScheme-Text           { color:#eff0f1; }
      .ColorScheme-Background     { color:#31363b; }
      .ColorScheme-Highlight      { color:#3daefd; }
      .ColorScheme-ViewBackground { color:#fcfcfc; }
      .ColorScheme-PositiveText   { color:#27ae60; }
      .ColorScheme-NeutralText    { color:#f67400; }
      .ColorScheme-NegativeText   { color:#da4453; }
  </style><path d="M 10,8 C 8.34,8 7,9.34 7,11 v 7 c -1.66,0 -3,1.34 -3,3 v 32 c 0,1.66 1.34,3 3,3 h 50 c 1.66,0 3,-1.34 3,-3 V 26 21 19 c 0,-1.66 -1.34,-3 -3,-3 v -3 c 0,-1.66 -1.34,-3 -3,-3 H 28 C 24,10 24,8 21,8 Z" id="uFu"></path><path d="M 10,8 C 8.34,8 7,9.34 7,11 v 7 h 13 c 4,0 4,-2 7,-2 h 30 v -3 c 0,-1.66 -1.34,-3 -3,-3 H 28 C 24,10 24,8 21,8 Z" id="uFv"></path></defs>
<g id="content" transform="translate(0,0)"><use class="sync-color enable-if__color-sync-mimes-places force-display-for-editing ColorScheme-ActiveText" fill="currentColor" href="#uFu"></use><use class="primary-color remove-if__color-sync-mimes-places ColorScheme-ActiveText" fill="currentColor" href="#uFu"></use><use class="ColorScheme-Contrast" fill="currentColor" href="#uFu" opacity=".1"></use><g id="decal" transform="translate(16,21)"><path class="ColorScheme-Background" d="M 8 3 C 6.9 3 6 3.9 6 5 C 4.9 5 4 5.9 4 7 L 4 8 C 2.9 8 2 8.9 2 10 L 2 27 C 2 28.1 2.9 29 4 29 L 28 29 C 29.1 29 30 28.1 30 27 L 30 10 C 30 8.9 29.1 8 28 8 L 28 7 C 28 5.9 27.1 5 26 5 C 26 3.9 25.1 3 24 3 L 8 3 z M 8 4 L 24 4 C 24.55 4 25 4.45 25 5 L 7 5 C 7 4.45 7.45 4 8 4 z M 6 6 L 26 6 C 26.55 6 27 6.45 27 7 L 27 8 L 5 8 L 5 7 C 5 6.45 5.45 6 6 6 z M 4 9 L 28 9 C 28.55 9 29 9.45 29 10 L 29 27 C 29 27.55 28.55 28 28 28 L 4 28 C 3.45 28 3 27.55 3 27 L 3 10 C 3 9.45 3.45 9 4 9 z " fill="currentColor" opacity=".6" stop-color="#000000"/><path class="ColorScheme-Background" d="M 8,3 C 6.9,3 6,3.9 6,5 4.9,5 4,5.9 4,7 V 8 C 2.9,8 2,8.9 2,10 v 17 c 0,1.1 .9,2 2,2 h 24 c 1.1,0 2,-.9 2,-2 V 10 C 30,8.9 29.1,8 28,8 V 7 C 28,5.9 27.1,5 26,5 26,3.9 25.1,3 24,3 Z m 0,1 h 16 c .55,0 1,.45 1,1 H 7 C 7,4.45 7.45,4 8,4 Z M 6,6 h 20 c .55,0 1,.45 1,1 V 8 H 5 V 7 C 5,6.45 5.45,6 6,6 Z M 4,9 h 24 c .55,0 1,.45 1,1 v 17 c 0,.55 -.45,1 -1,1 H 4 C 3.45,28 3,27.55 3,27 V 10 C 3,9.45 3.45,9 4,9 Z" fill="currentColor" opacity=".6" stop-color="#000000"/><path class="ColorScheme-Background" d="m 14,21 v -5 l 4,2.5 z" fill="currentColor" opacity=".6"/><path class="ColorScheme-Background" d="M 14 16 L 14 21 L 18 18.5 L 14 16 z M 14.5 17 L 17.06 18.5 L 14.5 20.1 L 14.5 17 z " fill="currentColor" opacity=".6"/></g><use href="#uFv" opacity=".4"></use><use fill="url(#uFt)" href="#uFv" opacity=".1"></use><path d="m 26,16 c -2,0 -4,2 -6,2 H 6 c -1.11,0 -2,.9 -2,2 v 34 c 0,1.1 .9,2 2,2 h 52 c 1.1,0 2,-.9 2,-2 V 18 c 0,-1.1 -.9,-2 -2,-2 z" fill="url(#uFs)" opacity=".2"/><path class="ColorScheme-Contrast" d="m 4,52 v 1 c 0,1.66 1.34,3 3,3 h 50 c 1.66,0 3,-1.34 3,-3 v -1 c 0,1.66 -1.34,3 -3,3 H 7 C 5.34,55 4,53.66 4,52 Z" fill="currentColor" opacity=".1"/><path class="ColorScheme-Contrast" d="M 4,52.5 V 53 c 0,1.66 1.34,3 3,3 h 50 c 1.66,0 3,-1.34 3,-3 v -0.5 c 0,1.66 -1.34,3 -3,3 H 7 c -1.66,0 -3,-1.34 -3,-3 z" fill="currentColor" opacity=".2"/><path d="m 27,16 c -3,0 -3,2 -7,2 H 7 c -1.66,0 -3,1.34 -3,3 v 1 c 0,-1.66 1.34,-3 3,-3 h 13 c 4,0 4,-2 7,-2 h 30 c 1.66,0 3,1.34 3,3 v -1 c 0,-1.66 -1.34,-3 -3,-3 z" fill="#fff" opacity=".1"/><path d="m 27,16 c -3,0 -3,2 -7,2 H 7 c -1.66,0 -3,1.34 -3,3 v 0.5 c 0,-1.66 1.34,-3 3,-3 h 13 c 4,0 4,-2 7,-2 h 30 c 1.66,0 3,1.34 3,3 V 19 c 0,-1.66 -1.34,-3 -3,-3 z" fill="#fff" opacity=".2"/><path d="m 27,15 c -3,0 -3,2 -7,2 H 7 v 1 h 13 c 4,0 4,-2 7,-2 h 30 v -1 z" opacity=".1"/><path d="m 27,15.5 c -3,0 -3,2 -7,2 H 7 V 18 h 13 c 4,0 4,-2 7,-2 h 30 v -0.5 z" opacity=".2"/></g>
</svg>