<svg height="64" version="1.1" width="64" xmlns="http://www.w3.org/2000/svg" xmlns:svg="http://www.w3.org/2000/svg" xmlns:xlink="http://www.w3.org/1999/xlink">
<defs id="primary-definitions">
<style id="current-color-scheme" type="text/css">
      .ColorScheme-Text         { color: #232629; }
      .ColorScheme-Background   { color: #eff0f1; }
      .ColorScheme-Highlight    { color: #7ec9f0; }
      .ColorScheme-PositiveText { color: #27ae60; }
      .ColorScheme-NeutralText  { color: #f67400; }
      .ColorScheme-NegativeText { color: #da4453; }
      .ColorScheme-ActiveText   { color: #3daee9; }
      .ColorScheme-Complement   { color: #ffffff; }
      .ColorScheme-Contrast     { color: #000000; }
    </style>
<style id="extended-color-scheme" type="text/css">
      .ExScheme-Black     { color:#3e3e3e; }
      .ExScheme-White     { color:#fcfcfc; }
      .ExScheme-Grey-1    { color:#cfd5d5; }
      .ExScheme-Grey-2    { color:#909c9c; }
      .ExScheme-Grey-3    { color:#536161; }
      .ExScheme-Red-1     { color:#ffafa5; }
      .ExScheme-Red-2     { color:#bf4231; }
      .ExScheme-Red-3     { color:#4d2f2b; }
      .ExScheme-Green-1   { color:#abf9c7; }
      .ExScheme-Green-2   { color:#3bb566; }
      .ExScheme-Green-3   { color:#377d50; }
      .ExScheme-Blue-1    { color:#abdaf9; }
      .ExScheme-Blue-2    { color:#3daefd; }
      .ExScheme-Blue-3    { color:#2b3c4d; }
      .ExScheme-Yellow-1  { color:#faffa5; }
      .ExScheme-Yellow-2  { color:#cac726; }
      .ExScheme-Yellow-3  { color:#4b4d2b; }
      .ExScheme-Orange-1  { color:#ffdaa5; }
      .ExScheme-Orange-2  { color:#ff9701; }
      .ExScheme-Orange-3  { color:#4d372b; }
      .ExScheme-Brown-1   { color:#e9d6bb; }
      .ExScheme-Brown-2   { color:#997657; }
      .ExScheme-Brown-3   { color:#433a35; }
      .ExScheme-Purple-1  { color:#e2abf9; }
      .ExScheme-Purple-2  { color:#b401ff; }
      .ExScheme-Purple-3  { color:#432b4d; }
      .ExScheme-Cyan-1    { color:#b2f2e6; }
      .ExScheme-Cyan-2    { color:#31bfa6; }
      .ExScheme-Cyan-3    { color:#2b4d47; }
      .ExScheme-Magenta-1 { color:#f8a6d8; }
      .ExScheme-Magenta-2 { color:#f00091; }
      .ExScheme-Magenta-3 { color:#770048; }
    </style>
<linearGradient id="u7K">
<stop offset="0"/>
<stop offset="1" stop-opacity="0"/>
</linearGradient>
<linearGradient id="u7L">
<stop offset="0" stop-color="#fff"/>
<stop offset="1" stop-color="#fff" stop-opacity="0"/>
</linearGradient>
<style id="u7M" type="text/css">
        .force-display-for-editing { display: inline !important; }
    </style><style class="remove-if__show-crease" type="text/css">
        .enable-if__show-crease { display: none; }
    </style><style class="remove-if__color-sync-mimes-places" type="text/css">
        .enable-if__color-sync-mimes-places { display: none; }
    </style><radialGradient cx=".5" cy="0" id="u7N" r="1" xlink:href="#u7L"/><linearGradient id="u7O" xlink:href="#u7K" y1="1" y2=".5"/><style class="ColorScheme-Background" fill="currentColor" opacity=".6" type="text/css">
   .ColorScheme-Text           { color:#eff0f1; }
      .ColorScheme-Background     { color:#31363b; }
      .ColorScheme-Highlight      { color:#3daefd; }
      .ColorScheme-ViewBackground { color:#fcfcfc; }
      .ColorScheme-PositiveText   { color:#27ae60; }
      .ColorScheme-NeutralText    { color:#f67400; }
      .ColorScheme-NegativeText   { color:#da4453; }
  </style><path d="M 10,8 C 8.34,8 7,9.34 7,11 v 7 c -1.66,0 -3,1.34 -3,3 v 32 c 0,1.66 1.34,3 3,3 h 50 c 1.66,0 3,-1.34 3,-3 V 26 21 19 c 0,-1.66 -1.34,-3 -3,-3 v -3 c 0,-1.66 -1.34,-3 -3,-3 H 28 C 24,10 24,8 21,8 Z" id="u7P"></path><path d="m 13.5,13.5 a 5,5 0 0 0 -5,5 5,5 0 0 0 5,5 5,5 0 0 0 5,-5 5,5 0 0 0 -5,-5 z m 0,1 a 4,4 0 0 1 4,4 4,4 0 0 1 -4,4 4,4 0 0 1 -4,-4 4,4 0 0 1 4,-4 z" id="u7Q" opacity=".6" stop-color="#000000"></path><path d="M 10,8 C 8.34,8 7,9.34 7,11 v 7 h 13 c 4,0 4,-2 7,-2 h 30 v -3 c 0,-1.66 -1.34,-3 -3,-3 H 28 C 24,10 24,8 21,8 Z" id="u7R"></path></defs>
<g id="content" transform="translate(0,0)"><use class="sync-color enable-if__color-sync-mimes-places force-display-for-editing ColorScheme-ActiveText" fill="currentColor" href="#u7P"></use><use class="primary-color remove-if__color-sync-mimes-places ColorScheme-ActiveText" fill="currentColor" href="#u7P"></use><use class="ColorScheme-Contrast" fill="currentColor" href="#u7P" opacity=".1"></use><g id="decal" transform="translate(16,21)"><path class="ColorScheme-Background" d="M 23 4 C 22.74 4 22.47 4 22.2 4.07 L 22.04 5.1 C 21.65 5.2 21.3 5.37 20.93 5.6 L 20.1 4.96 C 19.65 5.27 19.27 5.65 18.96 6.1 L 19.6 6.93 C 19.37 7.3 19.2 7.65 19.1 8.04 L 18.07 8.2 C 18 8.47 18 8.74 18 9 C 18 9.26 18 9.53 18.07 9.8 L 19.1 9.96 C 19.2 10.35 19.37 10.7 19.6 11.07 L 18.96 11.9 C 19.27 12.35 19.65 12.73 20.1 13.04 L 20.93 12.4 C 21.3 12.63 21.65 12.8 22.04 12.9 L 22.2 13.93 C 22.47 14 22.74 14 23 14 C 23.26 14 23.53 14 23.8 13.93 L 23.96 12.9 C 24.35 12.8 24.7 12.63 25.07 12.4 L 25.9 13.04 C 26.35 12.73 26.73 12.35 27.04 11.9 L 26.4 11.07 C 26.63 10.7 26.8 10.35 26.9 9.96 L 27.93 9.8 C 28 9.53 28 9.26 28 9 C 28 8.74 28 8.47 27.94 8.2 L 26.9 8.04 C 26.8 7.65 26.63 7.27 26.4 6.93 L 27.05 6.07 C 26.74 5.64 26.36 5.26 25.93 4.95 L 25.07 5.6 C 24.73 5.37 24.35 5.2 23.96 5.1 L 23.8 4.06 C 23.53 4 23.26 4 23 4 z M 23 7 C 24.1 7 25 7.9 25 9 C 25 10.1 24.1 11 23 11 C 21.9 11 21 10.1 21 9 C 21 7.9 21.9 7 23 7 z M 14.77 9.1 L 14.25 10.54 A 8 8 0 0 0 13.5 10.5 A 8 8 0 0 0 12.84 10.55 L 12.26 9.1 A 9.5 9.5 0 0 0 11.06 9.33 L 11.13 10.87 A 8 8 0 0 0 9.8 11.43 L 8.7 10.3 A 9.5 9.5 0 0 0 7.7 11 L 8.37 12.4 A 8 8 0 0 0 7.33 13.43 L 5.9 12.8 A 9.5 9.5 0 0 0 5.26 13.8 L 6.4 14.86 A 8 8 0 0 0 5.83 16.24 L 4.3 16.2 A 9.5 9.5 0 0 0 4.1 17.4 L 5.54 17.9 A 8 8 0 0 0 5.5 18.5 A 8 8 0 0 0 5.56 19.5 L 4.1 19.97 A 9.5 9.5 0 0 0 4.4 21.14 L 5.94 21.07 A 8 8 0 0 0 6.54 22.4 L 5.4 23.5 A 9.5 9.5 0 0 0 6.13 24.46 L 7.53 23.8 A 8 8 0 0 0 8.57 24.8 L 7.96 26.2 A 9.5 9.5 0 0 0 9 26.85 L 10.05 25.7 A 8 8 0 0 0 11.35 26.2 L 11.3 27.7 A 9.5 9.5 0 0 0 12.56 27.93 L 13.1 26.47 A 8 8 0 0 0 13.5 26.5 A 8 8 0 0 0 14.43 26.43 L 15 27.87 A 9.5 9.5 0 0 0 16.23 27.6 L 16.16 26 A 8 8 0 0 0 17.34 25.5 L 18.4 26.6 A 9.5 9.5 0 0 0 19.5 25.86 L 18.8 24.46 A 8 8 0 0 0 19.7 23.54 L 21.1 24.15 A 9.5 9.5 0 0 0 21.8 23.05 L 20.67 22 A 8 8 0 0 0 21.14 20.85 L 22.7 20.9 A 9.5 9.5 0 0 0 22.9 19.6 L 21.46 19.06 A 8 8 0 0 0 21.5 18.5 A 8 8 0 0 0 21.47 17.8 L 22.9 17.23 A 9.5 9.5 0 0 0 22.65 15.97 L 21.1 16.04 A 8 8 0 0 0 20.6 14.84 L 21.73 13.76 A 9.5 9.5 0 0 0 21 12.7 L 19.6 13.35 A 8 8 0 0 0 18.7 12.4 L 19.3 11 A 9.5 9.5 0 0 0 18.26 10.3 L 17.2 11.4 A 8 8 0 0 0 15.96 10.9 L 16 9.33 A 9.5 9.5 0 0 0 14.77 9.1 z M 13.5 12.5 A 6 6 0 0 1 19.5 18.5 A 6 6 0 0 1 13.5 24.5 A 6 6 0 0 1 7.5 18.5 A 6 6 0 0 1 13.5 12.5 z " fill="currentColor" opacity=".6" stop-color="#000000"/><use class="ColorScheme-Background" fill="currentColor" href="#u7Q"></use><use class="ColorScheme-Background" fill="currentColor" href="#u7Q"></use><path class="ColorScheme-Background" d="M 23 4 C 22.74 4 22.47 4 22.2 4.07 L 22.04 5.1 C 21.65 5.2 21.3 5.37 20.93 5.6 L 20.1 4.96 C 19.65 5.27 19.27 5.65 18.96 6.1 L 19.6 6.93 C 19.37 7.3 19.2 7.65 19.1 8.04 L 18.07 8.2 C 18 8.47 18 8.74 18 9 C 18 9.26 18 9.53 18.07 9.8 L 19.1 9.96 C 19.2 10.35 19.37 10.7 19.6 11.07 L 18.96 11.9 C 19.27 12.35 19.65 12.73 20.1 13.04 L 20.93 12.4 C 21.3 12.63 21.65 12.8 22.04 12.9 L 22.2 13.93 C 22.47 14 22.74 14 23 14 C 23.26 14 23.53 14 23.8 13.93 L 23.96 12.9 C 24.35 12.8 24.7 12.63 25.07 12.4 L 25.9 13.04 C 26.35 12.73 26.73 12.35 27.04 11.9 L 26.4 11.07 C 26.63 10.7 26.8 10.35 26.9 9.96 L 27.93 9.8 C 28 9.53 28 9.26 28 9 C 28 8.74 28 8.47 27.94 8.2 L 26.9 8.04 C 26.8 7.65 26.63 7.27 26.4 6.93 L 27.05 6.07 C 26.74 5.64 26.36 5.26 25.93 4.95 L 25.07 5.6 C 24.73 5.37 24.35 5.2 23.96 5.1 L 23.8 4.06 C 23.53 4 23.26 4 23 4 z M 23 4.5 L 23 4.5 C 23.1 4.5 23.24 4.5 23.36 4.53 L 23.46 5.2 A .5 .5 0 0 0 23.84 5.6 C 24.2 5.7 24.5 5.8 24.8 6 A .5 .5 0 0 0 25.37 6 L 25.9 5.6 C 26.07 5.76 26.24 5.93 26.4 6.1 L 26 6.63 A .5 .5 0 0 0 26 7.2 C 26.2 7.5 26.3 7.8 26.4 8.16 A .5 .5 0 0 0 26.8 8.54 L 27.47 8.64 C 27.5 8.76 27.5 8.9 27.5 9 L 27.5 9 C 27.5 9 27.5 9 27.5 9 C 27.5 9.1 27.5 9.24 27.47 9.36 L 26.8 9.46 A .5 .5 0 0 0 26.4 9.84 C 26.3 10.2 26.17 10.5 26 10.8 A .5 .5 0 0 0 26 11.36 L 26.4 11.9 C 26.23 12.06 26.06 12.23 25.9 12.4 L 25.36 12 A .5 .5 0 0 0 24.8 12 C 24.5 12.17 24.2 12.3 23.84 12.4 A .5 .5 0 0 0 23.46 12.8 L 23.36 13.47 C 23.24 13.5 23.1 13.5 23 13.5 C 22.9 13.5 22.76 13.5 22.64 13.47 L 22.54 12.8 A .5 .5 0 0 0 22.16 12.4 C 21.8 12.3 21.5 12.17 21.2 12 A .5 .5 0 0 0 20.64 12 L 20.1 12.4 C 19.94 12.23 19.77 12.06 19.6 11.9 L 20 11.36 A .5 .5 0 0 0 20 10.8 C 19.83 10.5 19.7 10.2 19.6 9.84 A .5 .5 0 0 0 19.2 9.46 L 18.53 9.36 C 18.5 9.24 18.5 9.1 18.5 9 L 18.5 9 C 18.5 9 18.5 9 18.5 9 C 18.5 8.9 18.5 8.76 18.53 8.64 L 19.2 8.54 A .5 .5 0 0 0 19.6 8.16 C 19.7 7.8 19.83 7.5 20 7.2 A .5 .5 0 0 0 20 6.64 L 19.6 6.1 C 19.77 5.94 19.94 5.77 20.1 5.6 L 20.64 6 A .5 .5 0 0 0 21.2 6 C 21.5 5.83 21.8 5.7 22.16 5.6 A .5 .5 0 0 0 22.54 5.2 L 22.64 4.53 C 22.76 4.5 22.9 4.5 23 4.5 z M 23 6.5 C 21.63 6.5 20.5 7.63 20.5 9 C 20.5 10.37 21.63 11.5 23 11.5 C 24.37 11.5 25.5 10.37 25.5 9 C 25.5 7.63 24.37 6.5 23 6.5 z M 23 7 C 24.1 7 25 7.9 25 9 C 25 10.1 24.1 11 23 11 C 21.9 11 21 10.1 21 9 C 21 7.9 21.9 7 23 7 z M 14.77 9.1 L 14.25 10.54 A 8 8 0 0 0 13.5 10.5 A 8 8 0 0 0 12.84 10.55 L 12.26 9.1 A 9.5 9.5 0 0 0 11.06 9.33 L 11.13 10.87 A 8 8 0 0 0 9.8 11.43 L 8.7 10.3 A 9.5 9.5 0 0 0 7.7 11 L 8.37 12.4 A 8 8 0 0 0 7.33 13.43 L 5.9 12.8 A 9.5 9.5 0 0 0 5.26 13.8 L 6.4 14.86 A 8 8 0 0 0 5.83 16.24 L 4.3 16.2 A 9.5 9.5 0 0 0 4.1 17.4 L 5.54 17.9 A 8 8 0 0 0 5.5 18.5 A 8 8 0 0 0 5.56 19.5 L 4.1 19.97 A 9.5 9.5 0 0 0 4.4 21.14 L 5.94 21.07 A 8 8 0 0 0 6.54 22.4 L 5.4 23.5 A 9.5 9.5 0 0 0 6.13 24.46 L 7.53 23.8 A 8 8 0 0 0 8.57 24.8 L 7.96 26.2 A 9.5 9.5 0 0 0 9 26.85 L 10.05 25.7 A 8 8 0 0 0 11.35 26.2 L 11.3 27.7 A 9.5 9.5 0 0 0 12.56 27.93 L 13.1 26.47 A 8 8 0 0 0 13.5 26.5 A 8 8 0 0 0 14.43 26.43 L 15 27.87 A 9.5 9.5 0 0 0 16.23 27.6 L 16.16 26 A 8 8 0 0 0 17.34 25.5 L 18.4 26.6 A 9.5 9.5 0 0 0 19.5 25.86 L 18.8 24.46 A 8 8 0 0 0 19.7 23.54 L 21.1 24.15 A 9.5 9.5 0 0 0 21.8 23.05 L 20.67 22 A 8 8 0 0 0 21.14 20.85 L 22.7 20.9 A 9.5 9.5 0 0 0 22.9 19.6 L 21.46 19.06 A 8 8 0 0 0 21.5 18.5 A 8 8 0 0 0 21.47 17.8 L 22.9 17.23 A 9.5 9.5 0 0 0 22.65 15.97 L 21.1 16.04 A 8 8 0 0 0 20.6 14.84 L 21.73 13.76 A 9.5 9.5 0 0 0 21 12.7 L 19.6 13.35 A 8 8 0 0 0 18.7 12.4 L 19.3 11 A 9.5 9.5 0 0 0 18.26 10.3 L 17.2 11.4 A 8 8 0 0 0 15.96 10.9 L 16 9.33 A 9.5 9.5 0 0 0 14.77 9.1 z M 11.95 9.66 L 12.37 10.73 A .5 .5 0 0 0 12.9 11.04 C 13.1 11 13.3 11 13.5 11 C 13.74 11 13.97 11 14.2 11.04 A .5 .5 0 0 0 14.7 10.7 L 15.1 9.66 C 15.2 9.7 15.35 9.7 15.5 9.74 L 15.46 10.9 A .5 .5 0 0 0 15.8 11.37 C 16.2 11.5 16.6 11.66 17 11.86 A .5 .5 0 0 0 17.6 11.76 L 18.34 10.94 C 18.46 11 18.57 11.1 18.7 11.17 L 18.23 12.2 A .5 .5 0 0 0 18.36 12.8 C 18.7 13.06 18.97 13.36 19.24 13.7 A .5 .5 0 0 0 19.83 13.8 L 20.84 13.33 C 20.93 13.45 21 13.57 21.1 13.7 L 20.27 14.5 A .5 .5 0 0 0 20.17 15.07 C 20.35 15.43 20.5 15.8 20.63 16.2 A .5 .5 0 0 0 21.13 16.54 L 22.25 16.5 C 22.3 16.63 22.3 16.8 22.34 16.9 L 21.3 17.34 A .5 .5 0 0 0 20.97 17.85 C 21 18.06 21 18.27 21 18.5 C 21 18.66 21 18.84 20.96 19 A .5 .5 0 0 0 21.3 19.53 L 22.35 19.9 C 22.33 20.07 22.3 20.2 22.27 20.37 L 21.15 20.35 A .5 .5 0 0 0 20.66 20.7 C 20.55 21.07 20.5 21.44 20.2 21.8 A .5 .5 0 0 0 20.33 22.4 L 21.16 23.14 C 21.1 23.27 21 23.4 20.9 23.5 L 19.9 23.1 A .5 .5 0 0 0 19.3 23.23 C 19.06 23.54 18.8 23.83 18.5 24.1 A .5 .5 0 0 0 18.37 24.67 L 18.85 25.7 C 18.73 25.8 18.6 25.87 18.5 25.96 L 17.7 25.15 A .5 .5 0 0 0 17.1 25.06 C 16.75 25.25 16.4 25.4 16 25.55 A .5 .5 0 0 0 15.66 26.04 L 15.7 27.2 C 15.6 27.23 15.44 27.26 15.3 27.3 L 14.9 26.25 A .5 .5 0 0 0 14.36 25.94 C 14.1 25.97 13.8 26 13.5 26 C 13.4 26 13.26 26 13.14 25.97 A .5 .5 0 0 0 12.6 26.3 L 12.23 27.37 C 12.1 27.35 11.96 27.33 11.83 27.3 L 11.85 26.2 A .5 .5 0 0 0 11.5 25.7 C 11.06 25.6 10.66 25.45 10.27 25.26 A .5 .5 0 0 0 9.7 25.37 L 8.9 26.2 C 8.8 26.14 8.8 26.07 8.6 26 L 9.03 25 A .5 .5 0 0 0 8.9 24.4 C 8.53 24.1 8.3 23.8 7.9 23.5 A .5 .5 0 0 0 7.3 23.36 L 6.3 23.84 C 6.2 23.74 6.15 23.64 6.1 23.54 L 6.9 22.76 A .5 .5 0 0 0 6.97 22.15 C 6.75 21.76 6.56 21.34 6.4 20.9 A .5 .5 0 0 0 5.9 20.57 L 4.8 20.6 C 4.75 20.5 4.7 20.4 4.7 20.3 L 5.75 19.86 A .5 .5 0 0 0 6.06 19.33 C 6.03 19.06 6 18.8 6 18.5 C 6 18.33 6 18.15 6.04 17.97 A .5 .5 0 0 0 5.7 17.45 L 4.65 17.06 C 4.67 16.95 4.7 16.83 4.7 16.7 L 5.8 16.74 A .5 .5 0 0 0 6.3 16.4 C 6.44 15.94 6.6 15.5 6.84 15.1 A .5 .5 0 0 0 6.73 14.5 L 5.9 13.73 C 5.97 13.63 6.04 13.54 6.1 13.44 L 7.13 13.9 A .5 .5 0 0 0 7.7 13.74 C 8 13.4 8.34 13.06 8.7 12.76 A .5 .5 0 0 0 8.8 12.16 L 8.35 11.16 C 8.45 11.1 8.55 11.03 8.65 10.96 L 9.44 11.8 A .5 .5 0 0 0 10.03 11.87 C 10.43 11.66 10.85 11.5 11.3 11.34 A .5 .5 0 0 0 11.63 10.85 L 11.6 9.74 C 11.7 9.7 11.83 9.7 11.95 9.66 z M 13.5 12 C 9.9 12 7 14.9 7 18.5 C 7 22.1 9.9 25 13.5 25 C 17.1 25 20 22.1 20 18.5 C 20 14.9 17.1 12 13.5 12 z M 13.5 12.5 A 6 6 0 0 1 19.5 18.5 A 6 6 0 0 1 13.5 24.5 A 6 6 0 0 1 7.5 18.5 A 6 6 0 0 1 13.5 12.5 z " fill="currentColor" opacity=".6"/></g><use href="#u7R" opacity=".4"></use><use fill="url(#u7O)" href="#u7R" opacity=".1"></use><path d="m 26,16 c -2,0 -4,2 -6,2 H 6 c -1.11,0 -2,.9 -2,2 v 34 c 0,1.1 .9,2 2,2 h 52 c 1.1,0 2,-.9 2,-2 V 18 c 0,-1.1 -.9,-2 -2,-2 z" fill="url(#u7N)" opacity=".2"/><path class="ColorScheme-Contrast" d="m 4,52 v 1 c 0,1.66 1.34,3 3,3 h 50 c 1.66,0 3,-1.34 3,-3 v -1 c 0,1.66 -1.34,3 -3,3 H 7 C 5.34,55 4,53.66 4,52 Z" fill="currentColor" opacity=".1"/><path class="ColorScheme-Contrast" d="M 4,52.5 V 53 c 0,1.66 1.34,3 3,3 h 50 c 1.66,0 3,-1.34 3,-3 v -0.5 c 0,1.66 -1.34,3 -3,3 H 7 c -1.66,0 -3,-1.34 -3,-3 z" fill="currentColor" opacity=".2"/><path d="m 27,16 c -3,0 -3,2 -7,2 H 7 c -1.66,0 -3,1.34 -3,3 v 1 c 0,-1.66 1.34,-3 3,-3 h 13 c 4,0 4,-2 7,-2 h 30 c 1.66,0 3,1.34 3,3 v -1 c 0,-1.66 -1.34,-3 -3,-3 z" fill="#fff" opacity=".1"/><path d="m 27,16 c -3,0 -3,2 -7,2 H 7 c -1.66,0 -3,1.34 -3,3 v 0.5 c 0,-1.66 1.34,-3 3,-3 h 13 c 4,0 4,-2 7,-2 h 30 c 1.66,0 3,1.34 3,3 V 19 c 0,-1.66 -1.34,-3 -3,-3 z" fill="#fff" opacity=".2"/><path d="m 27,15 c -3,0 -3,2 -7,2 H 7 v 1 h 13 c 4,0 4,-2 7,-2 h 30 v -1 z" opacity=".1"/><path d="m 27,15.5 c -3,0 -3,2 -7,2 H 7 V 18 h 13 c 4,0 4,-2 7,-2 h 30 v -0.5 z" opacity=".2"/></g>
</svg>