<svg height="64" version="1.1" width="64" xmlns="http://www.w3.org/2000/svg" xmlns:svg="http://www.w3.org/2000/svg" xmlns:xlink="http://www.w3.org/1999/xlink">
<defs id="primary-definitions">
<style id="current-color-scheme" type="text/css">
      .ColorScheme-Text           { color:#fff; }
      .ColorScheme-Background     { color:#111; }
      .ColorScheme-Highlight      { color:#3daefd; }
      .ColorScheme-ViewBackground { color:#000; }
      .ColorScheme-PositiveText   { color:#27ae60; }
      .ColorScheme-NeutralText    { color:#f67400; }
      .ColorScheme-NegativeText   { color:#da4453; }
    </style>
<style id="extended-color-scheme" type="text/css">
      .ExScheme-Black     { color:#3e3e3e; }
      .ExScheme-White     { color:#fcfcfc; }
      .ExScheme-Grey-1    { color:#cfd5d5; }
      .ExScheme-Grey-2    { color:#909c9c; }
      .ExScheme-Grey-3    { color:#536161; }
      .ExScheme-Red-1     { color:#ffafa5; }
      .ExScheme-Red-2     { color:#bf4231; }
      .ExScheme-Red-3     { color:#4d2f2b; }
      .ExScheme-Green-1   { color:#abf9c7; }
      .ExScheme-Green-2   { color:#3bb566; }
      .ExScheme-Green-3   { color:#377d50; }
      .ExScheme-Blue-1    { color:#abdaf9; }
      .ExScheme-Blue-2    { color:#3daefd; }
      .ExScheme-Blue-3    { color:#2b3c4d; }
      .ExScheme-Yellow-1  { color:#faffa5; }
      .ExScheme-Yellow-2  { color:#cac726; }
      .ExScheme-Yellow-3  { color:#4b4d2b; }
      .ExScheme-Orange-1  { color:#ffdaa5; }
      .ExScheme-Orange-2  { color:#ff9701; }
      .ExScheme-Orange-3  { color:#4d372b; }
      .ExScheme-Brown-1   { color:#e9d6bb; }
      .ExScheme-Brown-2   { color:#997657; }
      .ExScheme-Brown-3   { color:#433a35; }
      .ExScheme-Purple-1  { color:#e2abf9; }
      .ExScheme-Purple-2  { color:#b401ff; }
      .ExScheme-Purple-3  { color:#432b4d; }
      .ExScheme-Cyan-1    { color:#b2f2e6; }
      .ExScheme-Cyan-2    { color:#31bfa6; }
      .ExScheme-Cyan-3    { color:#2b4d47; }
      .ExScheme-Magenta-1 { color:#f8a6d8; }
      .ExScheme-Magenta-2 { color:#f00091; }
      .ExScheme-Magenta-3 { color:#770048; }
    </style>
<linearGradient id="uqC">
<stop offset="0"/>
<stop offset="1" stop-opacity="0"/>
</linearGradient>
<linearGradient id="uqD">
<stop offset="0" stop-color="#fff"/>
<stop offset="1" stop-color="#fff" stop-opacity="0"/>
</linearGradient>
<style class="toggle-enable-crease" type="text/css">
        .folder-crease { display: none; }
    </style><style class="toggle-manilla-folders" type="text/css">
        .folder-manilla { display: none; }
    </style><radialGradient cx=".5" cy="0" id="uqE" r="1" xlink:href="#uqD"/><linearGradient id="uqF" xlink:href="#uqC" y1="1" y2=".5"/><path d="M 10,8 C 8.34,8 7,9.34 7,11 v 7 c -1.66,0 -3,1.34 -3,3 v 32 c 0,1.66 1.34,3 3,3 h 50 c 1.66,0 3,-1.34 3,-3 V 26 21 19 c 0,-1.66 -1.34,-3 -3,-3 v -3 c 0,-1.66 -1.34,-3 -3,-3 H 28 C 24,10 24,8 21,8 Z" id="uqG"></path><path d="M 10,8 C 8.34,8 7,9.34 7,11 v 7 h 13 c 4,0 4,-2 7,-2 h 30 v -3 c 0,-1.66 -1.34,-3 -3,-3 H 28 C 24,10 24,8 21,8 Z" id="uqH"></path></defs>
<g id="content" transform="translate(0,0)"><use class="folder-manilla ExScheme-Brown-1" fill="currentColor" href="#uqG"></use><use class="toggle-manilla-folders ColorScheme-Highlight" fill="currentColor" href="#uqG" id="primary-color"></use><use class="ColorScheme-Text" fill="currentColor" href="#uqG" opacity=".1"></use><g id="emblem" transform="translate(16,21)"><path class="ColorScheme-Background" d="M 12,4 V 6 H 4 v 2 h 12.97 c -.1,.4 -.5,1.5 -1.73,3.47 -.6,.93 -1.5,2.17 -2.7,3.6 C 11.35,13.66 10.1,11.94 9.1,10 H 6.9 l .2,.44 c 1.2,2.4 2.7,4.5 4.1,6.15 -1.85,2.05 -4.16,4.35 -6.84,6.64 l 1.3,1.5 c 2.67,-2.3 5,-4.6 6.9,-6.67 1.6,1.7 3.6,3.3 3.6,3.3 l .1,.1 .75,-2 c -.47,-.4 -2.1,-1.8 -3.1,-2.9 1.35,-1.6 2.4,-3 3.07,-4.04 1.7,-2.7 2.05,-4.35 2.05,-4.35 l .04,-.2 h 3 V 6 h -8 V 4 Z m 8.93,8 -5.87,15.65 -.13,.35 h 2.14 l 1.5,-4 h 6.86 l 1.5,4 H 29.07 L 28.94,27.65 23.07,12 Z m 1.07,2.85 2.7,7.15 h -5.36 z" fill="currentColor" opacity=".6" stop-color="#000000"/><path class="ColorScheme-Background" d="M 12,4 V 6 H 4 v 2 h 12.97 c -.1,.4 -.5,1.5 -1.73,3.47 -.6,.93 -1.5,2.17 -2.7,3.6 C 11.35,13.66 10.1,11.94 9.1,10 h -2.23 l .2,.44 c 1.2,2.4 2.7,4.5 4.1,6.15 -1.85,2.05 -4.16,4.35 -6.84,6.64 l 1.3,1.5 c 2.67,-2.3 5,-4.6 6.9,-6.67 1.6,1.7 3.6,3.3 3.6,3.3 l .1,.1 .75,-2 c -.47,-.4 -2.1,-1.8 -3.1,-2.9 1.35,-1.6 2.4,-3 3.07,-4.04 1.7,-2.7 2.05,-4.35 2.05,-4.35 L 19,8 H 22 V 6 H 14 V 4 Z m 0.5,0.5 h 1 v 2 h 8 v 1 h -2.9 l -.1,.6 c -0,0 -.3,1.55 -2,4.2 -.65,1.03 -1.7,2.4 -3.03,4 l -.3,.34 .3,.33 c .93,1 2.4,2.2 2.9,2.67 l -.37,1 C 15.7,20.34 14.24,19.2 12.9,17.75 l -.37,-.4 -.36,.4 C 10.4,19.7 8.16,21.9 5.7,24.03 L 5.04,23.27 C 7.55,21.1 9.8,18.9 11.56,16.93 l .3,-.3 -.3,-.33 C 10.25,14.7 8.85,12.73 7.7,10.5 h 1.14 c 1,1.86 2.16,3.53 3.3,4.9 l .4,.46 .4,-.46 c 1.2,-1.44 2.15,-2.7 2.76,-3.66 1.26,-2 1.67,-3.15 1.8,-3.6 L 17.63,7.5 H 4.5 v -1 h 8 z M 20.93,12 15.06,27.65 14.93,28 h 2.14 l 1.5,-4 h 6.86 l 1.5,4 h 2.14 L 28.94,27.65 23.07,12 Z m .35,0.5 h 1.44 l 5.63,15 h -1.07 l -1.5,-4 h -7.55 l -1.5,4 H 15.65 Z M 22,13.43 21.53,14.7 18.6,22.5 h 6.8 z M 22,14.85 24.7,22 h -5.36 z" fill="currentColor" opacity=".6"/></g><use href="#uqH" opacity=".4"></use><use class="toggle-flat-design" fill="url(#uqF)" href="#uqH" opacity=".1"></use><path class="toggle-flat-design" d="m 26,16 c -2,0 -4,2 -6,2 H 6 c -1.11,0 -2,.9 -2,2 v 34 c 0,1.1 .9,2 2,2 h 52 c 1.1,0 2,-.9 2,-2 V 18 c 0,-1.1 -.9,-2 -2,-2 z" fill="url(#uqE)" opacity=".2"/><path class="folder-crease " d="m 4,44 v 2 h 9 c .55,0 1,-.45 1,-1 0,-.55 -.45,-1 -1,-1 z m 47,0 c -.55,0 -1,.45 -1,1 0,.55 .45,1 1,1 h 9 v -2 z" opacity=".4"/><path class="ColorScheme-Text" d="m 4,52 v 1 c 0,1.66 1.34,3 3,3 h 50 c 1.66,0 3,-1.34 3,-3 v -1 c 0,1.66 -1.34,3 -3,3 H 7 C 5.34,55 4,53.66 4,52 Z" fill="currentColor" opacity=".1"/><path class="ColorScheme-Text" d="M 4,52.5 V 53 c 0,1.66 1.34,3 3,3 h 50 c 1.66,0 3,-1.34 3,-3 v -0.5 c 0,1.66 -1.34,3 -3,3 H 7 c -1.66,0 -3,-1.34 -3,-3 z" fill="currentColor" opacity=".2"/><path d="m 27,16 c -3,0 -3,2 -7,2 H 7 c -1.66,0 -3,1.34 -3,3 v 1 c 0,-1.66 1.34,-3 3,-3 h 13 c 4,0 4,-2 7,-2 h 30 c 1.66,0 3,1.34 3,3 v -1 c 0,-1.66 -1.34,-3 -3,-3 z" fill="#fff" opacity=".1"/><path d="m 27,16 c -3,0 -3,2 -7,2 H 7 c -1.66,0 -3,1.34 -3,3 v 0.5 c 0,-1.66 1.34,-3 3,-3 h 13 c 4,0 4,-2 7,-2 h 30 c 1.66,0 3,1.34 3,3 V 19 c 0,-1.66 -1.34,-3 -3,-3 z" fill="#fff" opacity=".2"/><path d="m 27,15 c -3,0 -3,2 -7,2 H 7 v 1 h 13 c 4,0 4,-2 7,-2 h 30 v -1 z" opacity=".1"/><path d="m 27,15.5 c -3,0 -3,2 -7,2 H 7 V 18 h 13 c 4,0 4,-2 7,-2 h 30 v -0.5 z" opacity=".2"/></g>
</svg>