<svg height="64" version="1.1" width="64" xmlns="http://www.w3.org/2000/svg" xmlns:svg="http://www.w3.org/2000/svg" xmlns:xlink="http://www.w3.org/1999/xlink">
<defs id="primary-definitions">
<style id="current-color-scheme" type="text/css">
      .ColorScheme-Text         { color: #232629; }
      .ColorScheme-Background   { color: #eff0f1; }
      .ColorScheme-Highlight    { color: #7ec9f0; }
      .ColorScheme-PositiveText { color: #27ae60; }
      .ColorScheme-NeutralText  { color: #f67400; }
      .ColorScheme-NegativeText { color: #da4453; }
      .ColorScheme-ActiveText   { color: #3daee9; }
      .ColorScheme-Complement   { color: #ffffff; }
      .ColorScheme-Contrast     { color: #000000; }
    </style>
<style id="extended-color-scheme" type="text/css">
      .ExScheme-Black     { color:#3e3e3e; }
      .ExScheme-White     { color:#fcfcfc; }
      .ExScheme-Grey-1    { color:#cfd5d5; }
      .ExScheme-Grey-2    { color:#909c9c; }
      .ExScheme-Grey-3    { color:#536161; }
      .ExScheme-Red-1     { color:#ffafa5; }
      .ExScheme-Red-2     { color:#bf4231; }
      .ExScheme-Red-3     { color:#4d2f2b; }
      .ExScheme-Green-1   { color:#abf9c7; }
      .ExScheme-Green-2   { color:#3bb566; }
      .ExScheme-Green-3   { color:#377d50; }
      .ExScheme-Blue-1    { color:#abdaf9; }
      .ExScheme-Blue-2    { color:#3daefd; }
      .ExScheme-Blue-3    { color:#2b3c4d; }
      .ExScheme-Yellow-1  { color:#faffa5; }
      .ExScheme-Yellow-2  { color:#cac726; }
      .ExScheme-Yellow-3  { color:#4b4d2b; }
      .ExScheme-Orange-1  { color:#ffdaa5; }
      .ExScheme-Orange-2  { color:#ff9701; }
      .ExScheme-Orange-3  { color:#4d372b; }
      .ExScheme-Brown-1   { color:#e9d6bb; }
      .ExScheme-Brown-2   { color:#997657; }
      .ExScheme-Brown-3   { color:#433a35; }
      .ExScheme-Purple-1  { color:#e2abf9; }
      .ExScheme-Purple-2  { color:#b401ff; }
      .ExScheme-Purple-3  { color:#432b4d; }
      .ExScheme-Cyan-1    { color:#b2f2e6; }
      .ExScheme-Cyan-2    { color:#31bfa6; }
      .ExScheme-Cyan-3    { color:#2b4d47; }
      .ExScheme-Magenta-1 { color:#f8a6d8; }
      .ExScheme-Magenta-2 { color:#f00091; }
      .ExScheme-Magenta-3 { color:#770048; }
    </style>
<linearGradient id="uPI">
<stop offset="0"/>
<stop offset="1" stop-opacity="0"/>
</linearGradient>
<linearGradient id="uPJ">
<stop offset="0" stop-color="#fff"/>
<stop offset="1" stop-color="#fff" stop-opacity="0"/>
</linearGradient>
<style id="uPK" type="text/css">
        .force-display-for-editing { display: inline !important; }
    </style><style class="remove-if__show-crease" type="text/css">
        .enable-if__show-crease { display: none; }
    </style><style class="remove-if__color-sync-mimes-places" type="text/css">
        .enable-if__color-sync-mimes-places { display: none; }
    </style><radialGradient cx=".5" cy="0" id="uPL" r="1" xlink:href="#uPJ"/><linearGradient id="uPM" xlink:href="#uPI" y1="1" y2=".5"/><style class="ColorScheme-Background" fill="currentColor" opacity=".6" type="text/css">
   .ColorScheme-Text           { color:#eff0f1; }
      .ColorScheme-Background     { color:#31363b; }
      .ColorScheme-Highlight      { color:#3daefd; }
      .ColorScheme-ViewBackground { color:#fcfcfc; }
      .ColorScheme-PositiveText   { color:#27ae60; }
      .ColorScheme-NeutralText    { color:#f67400; }
      .ColorScheme-NegativeText   { color:#da4453; }
  </style><path d="M 10,8 C 8.34,8 7,9.34 7,11 v 7 c -1.66,0 -3,1.34 -3,3 v 32 c 0,1.66 1.34,3 3,3 h 50 c 1.66,0 3,-1.34 3,-3 V 26 21 19 c 0,-1.66 -1.34,-3 -3,-3 v -3 c 0,-1.66 -1.34,-3 -3,-3 H 28 C 24,10 24,8 21,8 Z" id="uPN"></path><path d="M 10,8 C 8.34,8 7,9.34 7,11 v 7 h 13 c 4,0 4,-2 7,-2 h 30 v -3 c 0,-1.66 -1.34,-3 -3,-3 H 28 C 24,10 24,8 21,8 Z" id="uPO"></path></defs>
<g id="content" transform="translate(0,0)"><use class="sync-color enable-if__color-sync-mimes-places force-display-for-editing ColorScheme-ActiveText" fill="currentColor" href="#uPN"></use><use class="primary-color remove-if__color-sync-mimes-places ColorScheme-ActiveText" fill="currentColor" href="#uPN"></use><use class="ColorScheme-Contrast" fill="currentColor" href="#uPN" opacity=".1"></use><g id="decal" transform="translate(16,21)"><path class="ColorScheme-Background" d="M 16 3 A 13 13 0 0 0 3 16 A 13 13 0 0 0 16 29 A 13 13 0 0 0 29 16 A 13 13 0 0 0 16 3 z M 17 4.04 A 12 12 0 0 1 27.96 15 C 27.4 15.03 27 15.46 27 16 C 27 16.53 27.4 16.95 27.93 17 A 12 12 0 0 1 17 27.93 C 16.95 27.4 16.53 27 16 27 C 15.47 27 15.05 27.4 15 27.93 A 12 12 0 0 1 4.07 17 C 4.6 16.95 5 16.53 5 16 C 5 15.47 4.6 15.05 4.07 15 A 12 12 0 0 1 15 4.07 C 15.05 4.6 15.47 5 16 5 C 16.54 5 16.97 4.6 17 4.04 z M 19.63 6.7 C 19.44 6.7 19.25 6.84 19.17 7.03 L 16.1 14.5 A 1.5 1.5 0 0 0 16 14.5 A 1.5 1.5 0 0 0 14.5 16 A 1.5 1.5 0 0 0 16 17.5 A 1.5 1.5 0 0 0 16.2 17.5 L 19.8 22.2 C 20.07 22.54 20.54 22.6 20.87 22.35 C 21.2 22.1 21.26 21.6 21 21.3 L 17.4 16.57 A 1.5 1.5 0 0 0 17.5 16 A 1.5 1.5 0 0 0 17 14.9 L 20.1 7.4 C 20.2 7.16 20.1 6.87 19.83 6.76 C 19.76 6.74 19.7 6.7 19.63 6.7 z " fill="currentColor" opacity=".6"/><path class="ColorScheme-Background" d="M 16 3 A 13 13 0 0 0 3 16 A 13 13 0 0 0 16 29 A 13 13 0 0 0 29 16 A 13 13 0 0 0 16 3 z M 16 3.5 C 16.2 3.5 16.34 3.55 16.5 3.55 L 16.5 4 C 16.5 4.3 16.3 4.5 16 4.5 C 15.73 4.5 15.53 4.3 15.5 4.04 L 15.47 3.55 C 15.65 3.55 15.8 3.5 16 3.5 z M 17.4 3.64 C 18.3 3.74 19.2 3.94 20.03 4.2 C 19.2 3.94 18.3 3.74 17.4 3.64 z M 14.26 3.7 C 13.6 3.8 13 3.9 12.36 4.1 C 13 3.9 13.6 3.8 14.26 3.7 z M 17 4.04 A 12 12 0 0 1 27.96 15 C 27.4 15.03 27 15.46 27 16 C 27 16.53 27.4 16.95 27.93 17 A 12 12 0 0 1 17 27.93 C 16.95 27.4 16.53 27 16 27 C 15.47 27 15.05 27.4 15 27.93 A 12 12 0 0 1 4.07 17 C 4.6 16.95 5 16.53 5 16 C 5 15.47 4.6 15.05 4.07 15 A 12 12 0 0 1 15 4.07 C 15.05 4.6 15.47 5 16 5 C 16.54 5 16.97 4.6 17 4.04 z M 19.63 6.7 C 19.44 6.7 19.25 6.84 19.17 7.03 L 16.1 14.5 A 1.5 1.5 0 0 0 16 14.5 A 1.5 1.5 0 0 0 14.5 16 A 1.5 1.5 0 0 0 16 17.5 A 1.5 1.5 0 0 0 16.2 17.5 L 19.8 22.2 C 20.07 22.54 20.54 22.6 20.87 22.35 C 21.2 22.1 21.26 21.6 21 21.3 L 17.4 16.57 A 1.5 1.5 0 0 0 17.5 16 A 1.5 1.5 0 0 0 17 14.9 L 20.1 7.4 C 20.2 7.16 20.1 6.87 19.83 6.76 C 19.76 6.74 19.7 6.7 19.63 6.7 z M 24.4 6.86 C 24.66 7.1 24.9 7.34 25.14 7.6 C 24.9 7.34 24.66 7.1 24.4 6.86 z M 18 11.1 L 16.4 15 L 16.67 15.26 C 16.9 15.45 17 15.7 17 16 C 17 16.13 16.97 16.26 16.9 16.4 L 16.8 16.65 L 20.6 21.6 C 20.7 21.7 20.7 21.86 20.56 21.95 C 20.45 22.04 20.3 22 20.2 21.9 L 16.4 16.95 L 16.1 17 C 16.1 17 16.04 17 16 17 C 15.44 17 15 16.56 15 16 C 15 15.44 15.44 15 16 15 C 16 15 16.04 15 16.05 15 L 16.5 15 L 18 11.1 z M 27.8 11.97 C 28.06 12.8 28.26 13.7 28.36 14.6 C 28.26 13.7 28.06 12.8 27.8 11.97 z M 4.1 12.36 C 3.9 13 3.8 13.6 3.7 14.26 C 3.8 13.6 3.9 13 4.1 12.36 z M 3.55 15.47 L 4.04 15.5 C 4.3 15.53 4.5 15.73 4.5 16 C 4.5 16.27 4.3 16.47 4.04 16.5 L 3.55 16.53 C 3.55 16.35 3.5 16.2 3.5 16 C 3.5 15.8 3.55 15.65 3.55 15.47 z M 28.45 15.5 C 28.45 15.66 28.5 15.8 28.5 16 C 28.5 16.2 28.45 16.35 28.45 16.53 L 27.96 16.5 C 27.7 16.47 27.5 16.27 27.5 16 C 27.5 15.7 27.7 15.5 28 15.5 L 28.45 15.5 z M 3.7 17.74 C 3.8 18.4 3.9 19 4.1 19.64 C 3.9 19 3.8 18.4 3.7 17.74 z M 28.3 17.74 C 28.2 18.4 28.1 19 27.9 19.64 C 28.1 19 28.2 18.4 28.3 17.74 z M 16 27.5 C 16.27 27.5 16.47 27.7 16.5 27.96 L 16.53 28.45 C 16.35 28.45 16.2 28.5 16 28.5 C 15.8 28.5 15.65 28.45 15.47 28.45 L 15.5 27.96 C 15.53 27.7 15.73 27.5 16 27.5 z M 12.36 27.9 C 13 28.1 13.6 28.2 14.26 28.3 C 13.6 28.2 13 28.1 12.36 27.9 z M 19.64 27.9 C 19 28.1 18.4 28.2 17.74 28.3 C 18.4 28.2 19 28.1 19.64 27.9 z " fill="currentColor" opacity=".6"/></g><use href="#uPO" opacity=".4"></use><use fill="url(#uPM)" href="#uPO" opacity=".1"></use><path d="m 26,16 c -2,0 -4,2 -6,2 H 6 c -1.11,0 -2,.9 -2,2 v 34 c 0,1.1 .9,2 2,2 h 52 c 1.1,0 2,-.9 2,-2 V 18 c 0,-1.1 -.9,-2 -2,-2 z" fill="url(#uPL)" opacity=".2"/><path class="ColorScheme-Contrast" d="m 4,52 v 1 c 0,1.66 1.34,3 3,3 h 50 c 1.66,0 3,-1.34 3,-3 v -1 c 0,1.66 -1.34,3 -3,3 H 7 C 5.34,55 4,53.66 4,52 Z" fill="currentColor" opacity=".1"/><path class="ColorScheme-Contrast" d="M 4,52.5 V 53 c 0,1.66 1.34,3 3,3 h 50 c 1.66,0 3,-1.34 3,-3 v -0.5 c 0,1.66 -1.34,3 -3,3 H 7 c -1.66,0 -3,-1.34 -3,-3 z" fill="currentColor" opacity=".2"/><path d="m 27,16 c -3,0 -3,2 -7,2 H 7 c -1.66,0 -3,1.34 -3,3 v 1 c 0,-1.66 1.34,-3 3,-3 h 13 c 4,0 4,-2 7,-2 h 30 c 1.66,0 3,1.34 3,3 v -1 c 0,-1.66 -1.34,-3 -3,-3 z" fill="#fff" opacity=".1"/><path d="m 27,16 c -3,0 -3,2 -7,2 H 7 c -1.66,0 -3,1.34 -3,3 v 0.5 c 0,-1.66 1.34,-3 3,-3 h 13 c 4,0 4,-2 7,-2 h 30 c 1.66,0 3,1.34 3,3 V 19 c 0,-1.66 -1.34,-3 -3,-3 z" fill="#fff" opacity=".2"/><path d="m 27,15 c -3,0 -3,2 -7,2 H 7 v 1 h 13 c 4,0 4,-2 7,-2 h 30 v -1 z" opacity=".1"/><path d="m 27,15.5 c -3,0 -3,2 -7,2 H 7 V 18 h 13 c 4,0 4,-2 7,-2 h 30 v -0.5 z" opacity=".2"/></g>
</svg>