<svg height="64" version="1.1" width="64" xmlns="http://www.w3.org/2000/svg" xmlns:svg="http://www.w3.org/2000/svg" xmlns:xlink="http://www.w3.org/1999/xlink">
<defs id="primary-definitions">
<style id="current-color-scheme" type="text/css">
      .ColorScheme-Text         { color: #232629; }
      .ColorScheme-Background   { color: #eff0f1; }
      .ColorScheme-Highlight    { color: #7ec9f0; }
      .ColorScheme-PositiveText { color: #27ae60; }
      .ColorScheme-NeutralText  { color: #f67400; }
      .ColorScheme-NegativeText { color: #da4453; }
      .ColorScheme-ActiveText   { color: #3daee9; }
      .ColorScheme-Complement   { color: #ffffff; }
      .ColorScheme-Contrast     { color: #000000; }
    </style>
<style id="extended-color-scheme" type="text/css">
      .ExScheme-Black     { color:#3e3e3e; }
      .ExScheme-White     { color:#fcfcfc; }
      .ExScheme-Grey-1    { color:#cfd5d5; }
      .ExScheme-Grey-2    { color:#909c9c; }
      .ExScheme-Grey-3    { color:#536161; }
      .ExScheme-Red-1     { color:#ffafa5; }
      .ExScheme-Red-2     { color:#bf4231; }
      .ExScheme-Red-3     { color:#4d2f2b; }
      .ExScheme-Green-1   { color:#abf9c7; }
      .ExScheme-Green-2   { color:#3bb566; }
      .ExScheme-Green-3   { color:#377d50; }
      .ExScheme-Blue-1    { color:#abdaf9; }
      .ExScheme-Blue-2    { color:#3daefd; }
      .ExScheme-Blue-3    { color:#2b3c4d; }
      .ExScheme-Yellow-1  { color:#faffa5; }
      .ExScheme-Yellow-2  { color:#cac726; }
      .ExScheme-Yellow-3  { color:#4b4d2b; }
      .ExScheme-Orange-1  { color:#ffdaa5; }
      .ExScheme-Orange-2  { color:#ff9701; }
      .ExScheme-Orange-3  { color:#4d372b; }
      .ExScheme-Brown-1   { color:#e9d6bb; }
      .ExScheme-Brown-2   { color:#997657; }
      .ExScheme-Brown-3   { color:#433a35; }
      .ExScheme-Purple-1  { color:#e2abf9; }
      .ExScheme-Purple-2  { color:#b401ff; }
      .ExScheme-Purple-3  { color:#432b4d; }
      .ExScheme-Cyan-1    { color:#b2f2e6; }
      .ExScheme-Cyan-2    { color:#31bfa6; }
      .ExScheme-Cyan-3    { color:#2b4d47; }
      .ExScheme-Magenta-1 { color:#f8a6d8; }
      .ExScheme-Magenta-2 { color:#f00091; }
      .ExScheme-Magenta-3 { color:#770048; }
    </style>
<linearGradient id="uR4">
<stop offset="0"/>
<stop offset="1" stop-opacity="0"/>
</linearGradient>
<linearGradient id="uR5">
<stop offset="0" stop-color="#fff"/>
<stop offset="1" stop-color="#fff" stop-opacity="0"/>
</linearGradient>
<style id="uR6" type="text/css">
        .force-display-for-editing { display: inline !important; }
    </style><style class="remove-if__show-crease" type="text/css">
        .enable-if__show-crease { display: none; }
    </style><style class="remove-if__color-sync-mimes-places" type="text/css">
        .enable-if__color-sync-mimes-places { display: none; }
    </style><radialGradient cx=".5" cy="0" id="uR7" r="1" xlink:href="#uR5"/><linearGradient id="uR8" xlink:href="#uR4" y1="1" y2=".5"/><style class="ColorScheme-Background" fill="currentColor" opacity=".6" type="text/css">
   .ColorScheme-Text           { color:#eff0f1; }
      .ColorScheme-Background     { color:#31363b; }
      .ColorScheme-Highlight      { color:#3daefd; }
      .ColorScheme-ViewBackground { color:#fcfcfc; }
      .ColorScheme-PositiveText   { color:#27ae60; }
      .ColorScheme-NeutralText    { color:#f67400; }
      .ColorScheme-NegativeText   { color:#da4453; }
  </style><path d="M 10,8 C 8.34,8 7,9.34 7,11 v 7 c -1.66,0 -3,1.34 -3,3 v 32 c 0,1.66 1.34,3 3,3 h 50 c 1.66,0 3,-1.34 3,-3 V 26 21 19 c 0,-1.66 -1.34,-3 -3,-3 v -3 c 0,-1.66 -1.34,-3 -3,-3 H 28 C 24,10 24,8 21,8 Z" id="uR9"></path><path d="M 10,8 C 8.34,8 7,9.34 7,11 v 7 h 13 c 4,0 4,-2 7,-2 h 30 v -3 c 0,-1.66 -1.34,-3 -3,-3 H 28 C 24,10 24,8 21,8 Z" id="uRa"></path></defs>
<g id="content" transform="translate(0,0)"><use class="sync-color enable-if__color-sync-mimes-places force-display-for-editing ColorScheme-ActiveText" fill="currentColor" href="#uR9"></use><use class="primary-color remove-if__color-sync-mimes-places ColorScheme-ActiveText" fill="currentColor" href="#uR9"></use><use class="ColorScheme-Contrast" fill="currentColor" href="#uR9" opacity=".1"></use><g id="decal" transform="translate(16,21)"><path class="ColorScheme-Background" d="M 2.5 3 C 2.2 3 2 3.2 2 3.5 C 2 3.8 2.2 4 2.5 4 L 27.5 4 C 27.8 4 28 3.8 28 3.5 C 28 3.2 27.8 3 27.5 3 L 2.5 3 z M 2.44 8 C 2.2 8 2 8.3 2 8.44 L 2 8.56 C 2 8.8 2.2 9 2.44 9 L 24.56 9 C 24.8 9 25 8.8 25 8.56 L 25 8.44 C 25 8.3 24.8 8 24.56 8 L 2.44 8 z M 2.5 13 C 2.2 13 2 13.2 2 13.5 C 2 13.8 2.2 14 2.5 14 L 29.5 14 C 29.8 14 30 13.8 30 13.5 C 30 13.2 29.8 13 29.5 13 L 2.5 13 z M 2.5 18 C 2.2 18 2 18.2 2 18.5 C 2 18.8 2.2 19 2.5 19 L 19.5 19 C 19.8 19 20 18.8 20 18.5 C 20 18.2 19.8 18 19.5 18 L 2.5 18 z M 2.5 23 C 2.2 23 2 23.2 2 23.5 C 2 23.8 2.2 24 2.5 24 L 25.5 24 C 25.8 24 26 23.8 26 23.5 C 26 23.2 25.8 23 25.5 23 L 2.5 23 z M 2.5 28 C 2.2 28 2 28.2 2 28.5 C 2 28.8 2.2 29 2.5 29 L 29.5 29 C 29.8 29 30 28.8 30 28.5 C 30 28.2 29.8 28 29.5 28 L 2.5 28 z " fill="currentColor" opacity=".6"/><path class="ColorScheme-Background" d="M 2.5,3 C 2.2,3 2,3.2 2,3.5 2,3.8 2.2,4 2.5,4 h 25 C 27.8,4 28,3.8 28,3.5 28,3.2 27.8,3 27.5,3 Z M 2.44,8 C 2.2,8 2,8.3 2,8.44 V 8.56 C 2,8.8 2.2,9 2.44,9 H 24.56 C 24.8,9 25,8.8 25,8.56 V 8.44 C 25,8.3 24.8,8 24.56,8 Z M 2.5,13 C 2.2,13 2,13.2 2,13.5 2,13.8 2.2,14 2.5,14 h 27 C 29.8,14 30,13.8 30,13.5 30,13.2 29.8,13 29.5,13 Z m 0,5 C 2.2,18 2,18.2 2,18.5 2,18.8 2.2,19 2.5,19 h 17 C 19.8,19 20,18.8 20,18.5 20,18.2 19.8,18 19.5,18 Z m 0,5 C 2.2,23 2,23.2 2,23.5 2,23.8 2.2,24 2.5,24 h 23 C 25.8,24 26,23.8 26,23.5 26,23.2 25.8,23 25.5,23 Z m 0,5 C 2.2,28 2,28.2 2,28.5 2,28.8 2.2,29 2.5,29 h 27 C 29.8,29 30,28.8 30,28.5 30,28.2 29.8,28 29.5,28 Z" fill="currentColor" opacity=".6"/></g><use href="#uRa" opacity=".4"></use><use fill="url(#uR8)" href="#uRa" opacity=".1"></use><path d="m 26,16 c -2,0 -4,2 -6,2 H 6 c -1.11,0 -2,.9 -2,2 v 34 c 0,1.1 .9,2 2,2 h 52 c 1.1,0 2,-.9 2,-2 V 18 c 0,-1.1 -.9,-2 -2,-2 z" fill="url(#uR7)" opacity=".2"/><path class="ColorScheme-Contrast" d="m 4,52 v 1 c 0,1.66 1.34,3 3,3 h 50 c 1.66,0 3,-1.34 3,-3 v -1 c 0,1.66 -1.34,3 -3,3 H 7 C 5.34,55 4,53.66 4,52 Z" fill="currentColor" opacity=".1"/><path class="ColorScheme-Contrast" d="M 4,52.5 V 53 c 0,1.66 1.34,3 3,3 h 50 c 1.66,0 3,-1.34 3,-3 v -0.5 c 0,1.66 -1.34,3 -3,3 H 7 c -1.66,0 -3,-1.34 -3,-3 z" fill="currentColor" opacity=".2"/><path d="m 27,16 c -3,0 -3,2 -7,2 H 7 c -1.66,0 -3,1.34 -3,3 v 1 c 0,-1.66 1.34,-3 3,-3 h 13 c 4,0 4,-2 7,-2 h 30 c 1.66,0 3,1.34 3,3 v -1 c 0,-1.66 -1.34,-3 -3,-3 z" fill="#fff" opacity=".1"/><path d="m 27,16 c -3,0 -3,2 -7,2 H 7 c -1.66,0 -3,1.34 -3,3 v 0.5 c 0,-1.66 1.34,-3 3,-3 h 13 c 4,0 4,-2 7,-2 h 30 c 1.66,0 3,1.34 3,3 V 19 c 0,-1.66 -1.34,-3 -3,-3 z" fill="#fff" opacity=".2"/><path d="m 27,15 c -3,0 -3,2 -7,2 H 7 v 1 h 13 c 4,0 4,-2 7,-2 h 30 v -1 z" opacity=".1"/><path d="m 27,15.5 c -3,0 -3,2 -7,2 H 7 V 18 h 13 c 4,0 4,-2 7,-2 h 30 v -0.5 z" opacity=".2"/></g>
</svg>