<?xml version="1.0" encoding="utf-8"?><svg height="64" width="64" xmlns="http://www.w3.org/2000/svg" xmlns:svg="http://www.w3.org/2000/svg" xmlns:xlink="http://www.w3.org/1999/xlink"><defs id="primary-definitions"><style id="current-color-scheme" type="text/css">.ColorScheme-Text           { color:#fff; }
      .ColorScheme-Background     { color:#111; }
      .ColorScheme-Highlight      { color:#3daefd; }
      .ColorScheme-ViewBackground { color:#000; }
      .ColorScheme-PositiveText   { color:#27ae60; }
      .ColorScheme-NeutralText    { color:#f67400; }
      .ColorScheme-NegativeText   { color:#da4453; }
  </style><style id="extended-color-scheme" type="text/css">.ExScheme-Black     { color:#3e3e3e; }
      .ExScheme-White     { color:#fcfcfc; }
      .ExScheme-Grey-1    { color:#cfd5d5; }
      .ExScheme-Grey-2    { color:#909c9c; }
      .ExScheme-Grey-3    { color:#536161; }
      .ExScheme-Red-1     { color:#ffafa5; }
      .ExScheme-Red-2     { color:#bf4231; }
      .ExScheme-Red-3     { color:#4d2f2b; }
      .ExScheme-Green-1   { color:#abf9c7; }
      .ExScheme-Green-2   { color:#3bb566; }
      .ExScheme-Green-3   { color:#377d50; }
      .ExScheme-Blue-1    { color:#abdaf9; }
      .ExScheme-Blue-2    { color:#3daefd; }
      .ExScheme-Blue-3    { color:#2b3c4d; }
      .ExScheme-Yellow-1  { color:#faffa5; }
      .ExScheme-Yellow-2  { color:#cac726; }
      .ExScheme-Yellow-3  { color:#4b4d2b; }
      .ExScheme-Orange-1  { color:#ffdaa5; }
      .ExScheme-Orange-2  { color:#ff9701; }
      .ExScheme-Orange-3  { color:#4d372b; }
      .ExScheme-Brown-1   { color:#e9d6bb; }
      .ExScheme-Brown-2   { color:#997657; }
      .ExScheme-Brown-3   { color:#433a35; }
      .ExScheme-Purple-1  { color:#e2abf9; }
      .ExScheme-Purple-2  { color:#b401ff; }
      .ExScheme-Purple-3  { color:#432b4d; }
      .ExScheme-Cyan-1    { color:#b2f2e6; }
      .ExScheme-Cyan-2    { color:#31bfa6; }
      .ExScheme-Cyan-3    { color:#2b4d47; }
      .ExScheme-Magenta-1 { color:#f8a6d8; }
      .ExScheme-Magenta-2 { color:#f00091; }
      .ExScheme-Magenta-3 { color:#770048; }
  </style><linearGradient id="gradientDark"><stop offset="0"/><stop offset="1" stop-opacity="0"/></linearGradient><linearGradient id="gradientLight"><stop offset="0" stop-color="#fff"/><stop offset="1" stop-color="#fff" stop-opacity="0"/></linearGradient><style class="toggle-enable-crease" type="text/css">.folder-crease { display: none; }
  </style><style class="toggle-manilla-folders" type="text/css">.folder-manilla { display: none; }
  </style><radialGradient cx=".5" cy="0" id="gl1" r="1" xlink:href="#gradientLight"/><linearGradient id="gd1" xlink:href="#gradientDark" y1="1" y2=".5"/><path d="M 10,8 C 8.338,8 7,9.338 7,11 v 7 c -1.662,0 -3,1.338 -3,3 v 32 c 0,1.662 1.338,3 3,3 h 50 c 1.662,0 3,-1.338 3,-3 V 26 21 19 c 0,-1.662 -1.338,-3 -3,-3 v -3 c 0,-1.662 -1.338,-3 -3,-3 H 28 C 24,10 24,8 21,8 Z" id="use-path-cD"/><path d="M 10,8 C 8.338,8 7,9.338 7,11 v 7 h 13 c 4,0 4,-2 7,-2 h 30 v -3 c 0,-1.662 -1.338,-3 -3,-3 H 28 C 24,10 24,8 21,8 Z" id="use-path-cE"/></defs><g id="content"><use class="folder-manilla ExScheme-Brown-1" fill="currentColor" href="#use-path-cD"/><use class="toggle-manilla-folders ColorScheme-Highlight" fill="currentColor" href="#use-path-cD" id="primary-color"/><use class="ColorScheme-Text" fill="currentColor" href="#use-path-cD" opacity=".1"/><g id="emblem" transform="translate(16,21)"><path class="ColorScheme-Background" d="M 16 3 A 13 13 0 0 0 3 16 A 13 13 0 0 0 16 29 A 13 13 0 0 0 29 16 A 13 13 0 0 0 16 3 z M 16.996 4.045 A 12 12 0 0 1 27.955 15.004 C 27.423 15.028 27 15.46 27 16 C 27 16.53 27.41 16.955 27.928 16.992 A 12 12 0 0 1 16.992 27.928 C 16.955 27.41 16.53 27 16 27 C 15.47 27 15.045 27.41 15.008 27.928 A 12 12 0 0 1 4.072 16.992 C 4.59 16.955 5 16.53 5 16 C 5 15.47 4.59 15.045 4.072 15.008 A 12 12 0 0 1 15.008 4.072 C 15.045 4.59 15.47 5 16 5 C 16.54 5 16.972 4.577 16.996 4.045 z M 19.63 6.723 C 19.436 6.724 19.253 6.84 19.174 7.03 L 16.078 14.502 A 1.5 1.5 0 0 0 16 14.5 A 1.5 1.5 0 0 0 14.5 16 A 1.5 1.5 0 0 0 16 17.5 A 1.5 1.5 0 0 0 16.193 17.486 L 19.818 22.21 C 20.07 22.54 20.54 22.6 20.87 22.348 C 21.2 22.095 21.26 21.625 21.008 21.295 L 17.385 16.572 A 1.5 1.5 0 0 0 17.5 16 A 1.5 1.5 0 0 0 17.004 14.885 L 20.098 7.414 C 20.204 7.158 20.082 6.868 19.826 6.762 C 19.762 6.735 19.696 6.722 19.63 6.723 z " fill="currentColor" opacity=".6"/><path class="ColorScheme-Background" d="M 16 3 A 13 13 0 0 0 3 16 A 13 13 0 0 0 16 29 A 13 13 0 0 0 29 16 A 13 13 0 0 0 16 3 z M 16 3.5 C 16.177 3.5 16.342 3.545 16.518 3.553 L 16.496 4.023 C 16.484 4.297 16.277 4.5 16 4.5 C 15.728 4.5 15.525 4.302 15.506 4.035 L 15.473 3.553 C 15.65 3.545 15.82 3.5 16 3.5 z M 17.383 3.64 C 18.302 3.74 19.184 3.94 20.03 4.223 C 19.184 3.94 18.298 3.742 17.383 3.64 z M 14.264 3.686 C 13.612 3.778 12.976 3.92 12.36 4.105 C 12.976 3.918 13.61 3.777 14.264 3.686 z M 16.996 4.045 A 12 12 0 0 1 27.955 15.004 C 27.423 15.028 27 15.46 27 16 C 27 16.53 27.41 16.955 27.928 16.992 A 12 12 0 0 1 16.992 27.928 C 16.955 27.41 16.53 27 16 27 C 15.47 27 15.045 27.41 15.008 27.928 A 12 12 0 0 1 4.072 16.992 C 4.59 16.955 5 16.53 5 16 C 5 15.47 4.59 15.045 4.072 15.008 A 12 12 0 0 1 15.008 4.072 C 15.045 4.59 15.47 5 16 5 C 16.54 5 16.972 4.577 16.996 4.045 z M 19.63 6.723 C 19.436 6.724 19.253 6.84 19.174 7.03 L 16.078 14.502 A 1.5 1.5 0 0 0 16 14.5 A 1.5 1.5 0 0 0 14.5 16 A 1.5 1.5 0 0 0 16 17.5 A 1.5 1.5 0 0 0 16.193 17.486 L 19.818 22.21 C 20.07 22.54 20.54 22.6 20.87 22.348 C 21.2 22.095 21.26 21.625 21.008 21.295 L 17.385 16.572 A 1.5 1.5 0 0 0 17.5 16 A 1.5 1.5 0 0 0 17.004 14.885 L 20.098 7.414 C 20.204 7.158 20.082 6.868 19.826 6.762 C 19.762 6.735 19.696 6.722 19.63 6.723 z M 24.404 6.863 C 24.664 7.102 24.898 7.336 25.137 7.596 C 24.9 7.337 24.663 7.1 24.404 6.863 z M 18.02 11.12 L 16.406 15.02 L 16.67 15.256 C 16.88 15.446 17 15.716 17 16 C 17 16.14 16.974 16.26 16.924 16.38 L 16.812 16.646 L 20.61 21.6 C 20.7 21.716 20.68 21.862 20.564 21.95 C 20.448 22.04 20.305 22.022 20.215 21.904 L 16.414 16.95 L 16.125 16.98 C 16.084 16.996 16.042 17 16 17 C 15.442 17 15 16.558 15 16 C 15 15.442 15.442 15 16 15 C 16.017 15 16.035 15 16.053 15.002 L 16.404 15.02 L 18.02 11.12 z M 27.777 11.97 C 28.06 12.816 28.26 13.698 28.36 14.617 C 28.258 13.702 28.06 12.816 27.777 11.97 z M 4.105 12.36 C 3.92 12.976 3.778 13.612 3.686 14.264 C 3.777 13.61 3.918 12.976 4.105 12.36 z M 3.553 15.473 L 4.035 15.506 C 4.302 15.525 4.5 15.728 4.5 16 C 4.5 16.272 4.302 16.475 4.035 16.494 L 3.553 16.527 C 3.545 16.35 3.5 16.18 3.5 16 C 3.5 15.82 3.545 15.65 3.553 15.473 z M 28.447 15.482 C 28.455 15.658 28.5 15.823 28.5 16 C 28.5 16.18 28.455 16.35 28.447 16.527 L 27.965 16.494 C 27.698 16.475 27.5 16.272 27.5 16 C 27.5 15.723 27.703 15.516 27.977 15.504 L 28.447 15.482 z M 3.686 17.736 C 3.778 18.388 3.92 19.024 4.105 19.64 C 3.918 19.024 3.777 18.39 3.686 17.736 z M 28.314 17.736 C 28.223 18.39 28.082 19.024 27.895 19.64 C 28.08 19.024 28.222 18.388 28.314 17.736 z M 16 27.5 C 16.272 27.5 16.475 27.698 16.494 27.965 L 16.527 28.447 C 16.35 28.455 16.18 28.5 16 28.5 C 15.82 28.5 15.65 28.455 15.473 28.447 L 15.506 27.965 C 15.525 27.698 15.728 27.5 16 27.5 z M 12.36 27.895 C 12.976 28.08 13.612 28.222 14.264 28.314 C 13.61 28.223 12.976 28.082 12.36 27.895 z M 19.64 27.895 C 19.024 28.082 18.39 28.223 17.736 28.314 C 18.388 28.222 19.024 28.08 19.64 27.895 z " fill="currentColor" opacity=".6"/></g><use href="#use-path-cE" opacity=".4"/><use class="toggle-flat-design" fill="url(#gd1)" href="#use-path-cE" opacity=".1"/><path class="toggle-flat-design" d="m 26,16 c -2,0 -4,2 -6,2 H 6 c -1.11,0 -2,0.892 -2,2 v 34 c 0,1.108 0.892,2 2,2 h 52 c 1.108,0 2,-0.892 2,-2 V 18 c 0,-1.108 -0.892,-2 -2,-2 z" fill="url(#gl1)" opacity=".2"/><path class="folder-crease" d="m 4,44 v 2 h 9 c 0.554,0 1,-0.446 1,-1 0,-0.554 -0.446,-1 -1,-1 z m 47,0 c -0.554,0 -1,0.446 -1,1 0,0.554 0.446,1 1,1 h 9 v -2 z" opacity=".4"/><path class="ColorScheme-Text" d="m 4,52 v 1 c 0,1.662 1.338,3 3,3 h 50 c 1.662,0 3,-1.338 3,-3 v -1 c 0,1.662 -1.338,3 -3,3 H 7 C 5.338,55 4,53.662 4,52 Z" fill="currentColor" opacity=".1"/><path class="ColorScheme-Text" d="M 4,52.5 V 53 c 0,1.662 1.338,3 3,3 h 50 c 1.662,0 3,-1.338 3,-3 v -0.5 c 0,1.662 -1.338,3 -3,3 H 7 c -1.662,0 -3,-1.338 -3,-3 z" fill="currentColor" opacity=".2"/><path d="m 27,16 c -3,0 -3,2 -7,2 H 7 c -1.662,0 -3,1.338 -3,3 v 1 c 0,-1.662 1.338,-3 3,-3 h 13 c 4,0 4,-2 7,-2 h 30 c 1.662,0 3,1.338 3,3 v -1 c 0,-1.662 -1.338,-3 -3,-3 z" fill="#fff" opacity=".1"/><path d="m 27,16 c -3,0 -3,2 -7,2 H 7 c -1.662,0 -3,1.338 -3,3 v 0.5 c 0,-1.662 1.338,-3 3,-3 h 13 c 4,0 4,-2 7,-2 h 30 c 1.662,0 3,1.338 3,3 V 19 c 0,-1.662 -1.338,-3 -3,-3 z" fill="#fff" opacity=".2"/><path d="m 27,15 c -3,0 -3,2 -7,2 H 7 v 1 h 13 c 4,0 4,-2 7,-2 h 30 v -1 z" opacity=".1"/><path d="m 27,15.5 c -3,0 -3,2 -7,2 H 7 V 18 h 13 c 4,0 4,-2 7,-2 h 30 v -0.5 z" opacity=".2"/></g></svg>