<?xml version="1.0" encoding="utf-8"?><svg height="64" width="64" xmlns="http://www.w3.org/2000/svg" xmlns:svg="http://www.w3.org/2000/svg" xmlns:xlink="http://www.w3.org/1999/xlink"><defs id="primary-definitions"><style id="current-color-scheme" type="text/css">.ColorScheme-Text           { color:#fff; }
      .ColorScheme-Background     { color:#111; }
      .ColorScheme-Highlight      { color:#3daefd; }
      .ColorScheme-ViewBackground { color:#000; }
      .ColorScheme-PositiveText   { color:#27ae60; }
      .ColorScheme-NeutralText    { color:#f67400; }
      .ColorScheme-NegativeText   { color:#da4453; }
  </style><style id="extended-color-scheme" type="text/css">.ExScheme-Black     { color:#3e3e3e; }
      .ExScheme-White     { color:#fcfcfc; }
      .ExScheme-Grey-1    { color:#cfd5d5; }
      .ExScheme-Grey-2    { color:#909c9c; }
      .ExScheme-Grey-3    { color:#536161; }
      .ExScheme-Red-1     { color:#ffafa5; }
      .ExScheme-Red-2     { color:#bf4231; }
      .ExScheme-Red-3     { color:#4d2f2b; }
      .ExScheme-Green-1   { color:#abf9c7; }
      .ExScheme-Green-2   { color:#3bb566; }
      .ExScheme-Green-3   { color:#377d50; }
      .ExScheme-Blue-1    { color:#abdaf9; }
      .ExScheme-Blue-2    { color:#3daefd; }
      .ExScheme-Blue-3    { color:#2b3c4d; }
      .ExScheme-Yellow-1  { color:#faffa5; }
      .ExScheme-Yellow-2  { color:#cac726; }
      .ExScheme-Yellow-3  { color:#4b4d2b; }
      .ExScheme-Orange-1  { color:#ffdaa5; }
      .ExScheme-Orange-2  { color:#ff9701; }
      .ExScheme-Orange-3  { color:#4d372b; }
      .ExScheme-Brown-1   { color:#e9d6bb; }
      .ExScheme-Brown-2   { color:#997657; }
      .ExScheme-Brown-3   { color:#433a35; }
      .ExScheme-Purple-1  { color:#e2abf9; }
      .ExScheme-Purple-2  { color:#b401ff; }
      .ExScheme-Purple-3  { color:#432b4d; }
      .ExScheme-Cyan-1    { color:#b2f2e6; }
      .ExScheme-Cyan-2    { color:#31bfa6; }
      .ExScheme-Cyan-3    { color:#2b4d47; }
      .ExScheme-Magenta-1 { color:#f8a6d8; }
      .ExScheme-Magenta-2 { color:#f00091; }
      .ExScheme-Magenta-3 { color:#770048; }
  </style><linearGradient id="gradientDark"><stop offset="0"/><stop offset="1" stop-opacity="0"/></linearGradient><linearGradient id="gradientLight"><stop offset="0" stop-color="#fff"/><stop offset="1" stop-color="#fff" stop-opacity="0"/></linearGradient><style class="toggle-enable-crease" type="text/css">.folder-crease { display: none; }
  </style><style class="toggle-manilla-folders" type="text/css">.folder-manilla { display: none; }
  </style><radialGradient cx=".5" cy="0" id="gl1" r="1" xlink:href="#gradientLight"/><linearGradient id="gd1" xlink:href="#gradientDark" y1="1" y2=".5"/><path d="M 10,8 C 8.338,8 7,9.338 7,11 v 7 c -1.662,0 -3,1.338 -3,3 v 32 c 0,1.662 1.338,3 3,3 h 50 c 1.662,0 3,-1.338 3,-3 V 26 21 19 c 0,-1.662 -1.338,-3 -3,-3 v -3 c 0,-1.662 -1.338,-3 -3,-3 H 28 C 24,10 24,8 21,8 Z" id="use-path-cw"/><path d="M 10,8 C 8.338,8 7,9.338 7,11 v 7 h 13 c 4,0 4,-2 7,-2 h 30 v -3 c 0,-1.662 -1.338,-3 -3,-3 H 28 C 24,10 24,8 21,8 Z" id="use-path-cx"/></defs><g id="content"><use class="folder-manilla ExScheme-Brown-1" fill="currentColor" href="#use-path-cw"/><use class="toggle-manilla-folders ColorScheme-Highlight" fill="currentColor" href="#use-path-cw" id="primary-color"/><use class="ColorScheme-Text" fill="currentColor" href="#use-path-cw" opacity=".1"/><g id="emblem" transform="translate(16,21)"><path class="ColorScheme-Background" d="M 16 3 C 8.798 3 3 8.798 3 16 C 3 23.202 8.798 29 16 29 C 23.202 29 29 23.202 29 16 C 29 8.798 23.202 3 16 3 z M 16.54 4.014 C 19.885 4.16 22.866 5.663 24.95 7.99 L 24.947 7.998 L 24.945 7.998 C 24.945 7.998 24.762 8.448 24.762 8.75 C 24.762 9.052 24.762 9.354 25.064 9.354 C 25.67 9.354 25.335 10.125 25.064 10.26 C 24.46 10.562 24.46 10.864 24.46 11.166 C 24.46 11.468 23.857 11.62 23.555 11.922 C 23.102 12.375 23.207 12.305 22.95 12.676 C 22.83 12.85 22.795 12.99 22.648 13.28 C 22.346 13.885 22.648 13.583 22.648 13.885 C 22.648 14.187 22.648 14.792 22.346 15.396 C 22.044 16 23.252 16.604 23.252 16.906 C 23.252 17.208 23.56 17.504 24.46 18.115 C 24.753 18.313 25.67 18.115 26.273 18.115 C 26.76 18.115 27.25 17.73 27.895 17.578 C 27.15 23.29 22.42 27.716 16.568 27.986 C 16.697 27.825 16.82 27.655 16.908 27.48 C 17.21 26.876 17.003 26.69 17.21 26.27 C 17.415 25.854 18.42 25.97 18.72 25.365 C 19.023 24.76 19.324 24.46 19.324 23.553 C 19.324 22.646 20.23 22.647 20.23 21.137 C 19.928 20.835 19.023 20.23 18.72 20.23 C 18.42 20.23 16.908 19.927 16.605 19.625 C 16.303 19.323 15.7 17.812 15.096 17.812 C 14.49 17.812 14.19 17.812 13.887 17.51 C 13.585 17.208 12.98 16.605 11.47 16.303 C 9.958 16 9.355 16.3 9.355 16.604 C 9.355 16.906 8.146 16.906 7.844 16.906 C 7.542 16.906 7.24 16.605 7.24 16.303 C 7.24 16 7.542 15.396 7.24 15.094 C 6.938 14.792 6.333 15.396 6.03 15.094 C 5.73 14.792 6.635 14.188 6.635 13.584 C 5.728 13.584 5.73 13.885 5.428 14.188 C 5.126 14.49 4.824 14.49 4.52 14.49 C 4.355 14.49 4.225 14.313 4.14 14.152 C 4.284 13.218 4.537 12.322 4.88 11.473 C 5.035 11.33 5.25 11.166 5.428 11.166 C 5.73 11.166 6.054 11.47 6.334 11.47 C 6.614 11.467 6.636 11.166 7.24 11.166 C 7.844 11.166 8.146 11.467 8.146 11.77 C 8.146 12.072 8.448 12.072 8.75 12.072 C 8.75 11.77 8.45 11.167 9.053 10.562 C 9.657 9.958 9.958 10.26 10.562 9.656 C 11.167 9.052 10.865 9.05 11.47 8.447 C 11.77 8.145 12.19 8.328 12.375 8.145 C 12.56 7.96 12.377 7.54 13.283 7.238 C 14.19 6.936 13.585 7.54 13.887 7.54 C 14.19 7.24 15.7 7.24 15.396 6.635 C 15.094 6.635 15.094 6.938 14.49 6.938 C 13.886 6.938 15.095 6.03 14.793 6.03 C 14.49 6.03 14.19 5.73 14.793 5.73 C 15.03 5.73 15 6.095 15.396 6.03 C 15.58 6 15.095 5.73 15.7 5.73 C 16.303 5.73 16.303 5.426 16.605 5.426 C 16.908 5.426 16.002 6.332 16.002 6.332 C 16.002 6.332 16.907 6.635 17.21 6.635 C 17.51 6.635 17.51 6.33 17.21 6.03 C 16.907 5.727 16.606 6.03 16.908 5.73 C 17.21 5.426 17.512 4.822 16.908 4.51 C 16.636 4.384 16.554 4.19 16.54 4.014 z M 12.834 4.422 C 12.638 4.544 12.285 4.61 12.074 4.822 C 11.772 5.124 11.77 5.426 11.47 5.426 C 11.245 5.426 11.255 5.12 11.273 4.96 C 11.777 4.746 12.298 4.567 12.834 4.422 z M 9.19 6.21 C 9.6 6.18 9.883 6.408 9.656 6.635 C 9.394 6.897 9.11 6.707 8.46 6.652 C 8.638 6.51 8.82 6.373 9.004 6.24 C 9.067 6.225 9.13 6.213 9.19 6.21 z M 9.76 6.898 C 10.072 6.87 10.827 7.238 10.562 7.238 C 10.26 7.238 9.958 7.54 9.656 7.54 C 9.354 7.54 9.478 7.116 9.656 6.938 C 9.68 6.915 9.715 6.902 9.76 6.898 z M 9.355 6.938 C 9.506 6.938 9.126 7.128 8.902 7.39 C 8.675 7.657 8.45 8.146 8.297 7.994 C 8.146 7.843 8.448 7.54 8.75 7.238 C 9.052 6.936 9.053 6.937 9.355 6.938 z M 10.865 7.314 C 11.016 7.314 11.168 7.39 11.168 7.54 C 11.168 7.843 10.562 7.843 10.562 7.54 C 10.562 7.39 10.714 7.314 10.865 7.314 z M 9.355 7.844 L 10.262 7.844 C 10.262 7.844 9.958 8.145 9.656 8.145 C 9.354 8.145 9.053 7.844 9.355 7.844 z M 25.984 9.326 C 26.107 9.51 26.224 9.697 26.336 9.887 C 25.688 9.708 25.688 9.604 25.984 9.326 z M 4.285 15.062 C 4.726 15.102 5.003 15.697 5.428 15.697 C 6.032 15.697 6.635 16.3 6.635 16.604 C 6.635 16.906 7.542 17.51 7.844 17.51 C 8.146 17.51 8.383 16.916 8.75 17.812 C 9.117 18.71 7.844 19.323 7.844 19.625 C 7.844 19.927 7.996 19.928 7.996 20.23 C 7.996 20.533 7.832 20.526 7.844 20.834 C 7.855 21.142 8.147 21.136 8.45 21.74 C 8.75 22.344 9.053 23.25 9.355 23.553 C 9.658 23.855 10.563 23.855 10.865 24.46 C 11.066 24.86 11.138 26.147 11.166 26.99 C 6.94 25.137 4 20.926 4 16 C 4 15.697 4.015 15.398 4.037 15.102 C 4.126 15.068 4.208 15.056 4.285 15.062 z " fill="currentColor" opacity=".6"/><path class="ColorScheme-Background" d="M 16 3 C 8.798 3 3 8.798 3 16 C 3 23.202 8.798 29 16 29 C 23.202 29 29 23.202 29 16 C 29 8.798 23.202 3 16 3 z M 16 3.5 C 16.163 3.5 16.315 3.54 16.477 3.547 A .5 .5 0 0 0 16.04 4.055 C 16.065 4.348 16.282 4.738 16.67 4.945 C 16.65 4.944 16.622 4.926 16.605 4.926 C 16.287 4.926 16.06 5.115 15.988 5.162 C 15.918 5.21 15.918 5.23 15.7 5.23 C 15.51 5.23 15.37 5.217 15.162 5.344 C 15.155 5.348 15.152 5.362 15.145 5.367 C 15.042 5.304 14.932 5.23 14.793 5.23 C 14.6 5.23 14.45 5.23 14.258 5.336 C 14.16 5.388 14.038 5.488 13.98 5.65 C 13.92 5.813 13.95 5.995 14.006 6.104 C 14.04 6.17 14.082 6.166 14.12 6.207 C 14.02 6.32 13.913 6.413 13.844 6.662 C 13.842 6.67 13.853 6.684 13.852 6.69 C 13.838 6.688 13.824 6.67 13.81 6.666 C 13.552 6.617 13.383 6.678 13.125 6.764 C 12.35 7.022 12.014 7.555 11.967 7.746 C 11.946 7.75 11.948 7.75 11.92 7.754 C 11.816 7.763 11.643 7.88 11.486 7.938 C 11.573 7.825 11.668 7.717 11.668 7.54 C 11.668 7.298 11.513 7.064 11.35 6.955 C 11.215 6.866 11.083 6.85 10.95 6.84 C 10.943 6.832 10.93 6.813 10.924 6.807 C 10.794 6.692 10.705 6.658 10.584 6.604 C 10.48 6.556 10.326 6.555 10.21 6.516 C 10.213 6.493 10.237 6.482 10.236 6.46 C 10.232 6.242 10.114 6.057 9.99 5.95 C 9.77 5.758 9.515 5.734 9.25 5.738 C 9.864 5.334 10.386 4.806 11.07 4.514 A .5 .5 0 0 0 10.777 4.902 C 10.765 5.01 10.745 5.163 10.795 5.37 C 10.82 5.475 10.865 5.604 10.982 5.725 C 11.1 5.846 11.3 5.926 11.47 5.926 C 11.627 5.926 11.806 5.874 11.934 5.785 C 12.06 5.696 12.135 5.594 12.188 5.516 C 12.292 5.36 12.335 5.268 12.428 5.176 C 12.453 5.15 12.534 5.1 12.654 5.05 C 12.774 5 12.922 4.957 13.1 4.846 A .5 .5 0 0 0 12.8 3.96 C 13.826 3.69 14.885 3.5 16 3.5 z M 16.54 4.014 C 19.673 4.15 22.487 5.48 24.543 7.56 L 24.56 7.498 L 24.945 7.498 L 24.996 8.46 A .5 .5 0 0 0 24.996 8.463 L 24.998 8.496 C 24.998 8.496 24.982 8.476 24.98 8.475 A .5 .5 0 0 0 24.96 8.488 A .5 .5 0 0 0 24.98 8.473 C 24.972 8.46 24.895 8.363 24.844 8.297 C 24.802 8.44 24.762 8.61 24.762 8.75 C 24.762 9.052 24.762 9.354 25.064 9.354 C 25.67 9.354 25.335 10.125 25.064 10.26 C 24.46 10.562 24.46 10.864 24.46 11.166 C 24.46 11.468 23.857 11.62 23.555 11.922 C 23.102 12.375 23.207 12.305 22.95 12.676 C 22.83 12.85 22.795 12.99 22.648 13.28 C 22.346 13.885 22.648 13.583 22.648 13.885 C 22.648 14.187 22.648 14.792 22.346 15.396 C 22.044 16 23.252 16.604 23.252 16.906 C 23.252 17.208 23.56 17.504 24.46 18.115 C 24.753 18.313 25.67 18.115 26.273 18.115 C 26.76 18.115 27.25 17.73 27.895 17.578 C 27.15 23.29 22.42 27.716 16.568 27.986 C 16.697 27.825 16.82 27.655 16.908 27.48 C 17.21 26.876 17.003 26.69 17.21 26.27 C 17.415 25.854 18.42 25.97 18.72 25.365 C 19.023 24.76 19.324 24.46 19.324 23.553 C 19.324 22.646 20.23 22.647 20.23 21.137 C 19.928 20.835 19.023 20.23 18.72 20.23 C 18.42 20.23 16.908 19.927 16.605 19.625 C 16.303 19.323 15.7 17.812 15.096 17.812 C 14.49 17.812 14.19 17.812 13.887 17.51 C 13.585 17.208 12.98 16.605 11.47 16.303 C 9.958 16 9.355 16.3 9.355 16.604 C 9.355 16.906 8.146 16.906 7.844 16.906 C 7.542 16.906 7.24 16.605 7.24 16.303 C 7.24 16 7.542 15.396 7.24 15.094 C 6.938 14.792 6.333 15.396 6.03 15.094 C 5.73 14.792 6.635 14.188 6.635 13.584 C 5.728 13.584 5.73 13.885 5.428 14.188 C 5.126 14.49 4.824 14.49 4.52 14.49 C 4.355 14.49 4.225 14.313 4.14 14.152 C 4.284 13.218 4.537 12.322 4.88 11.473 C 5.035 11.33 5.25 11.166 5.428 11.166 C 5.73 11.166 6.054 11.47 6.334 11.47 C 6.614 11.467 6.636 11.166 7.24 11.166 C 7.844 11.166 8.146 11.467 8.146 11.77 C 8.146 12.072 8.448 12.072 8.75 12.072 C 8.75 11.77 8.45 11.167 9.053 10.562 C 9.657 9.958 9.958 10.26 10.562 9.656 C 11.167 9.052 10.865 9.05 11.47 8.447 C 11.77 8.145 12.19 8.328 12.375 8.145 C 12.56 7.96 12.377 7.54 13.283 7.238 C 14.19 6.936 13.585 7.54 13.887 7.54 C 14.19 7.24 15.7 7.24 15.396 6.635 C 15.094 6.635 15.094 6.938 14.49 6.938 C 13.886 6.938 15.095 6.03 14.793 6.03 C 14.49 6.03 14.19 5.73 14.793 5.73 C 15.03 5.73 15 6.095 15.396 6.03 C 15.58 6 15.095 5.73 15.7 5.73 C 16.303 5.73 16.303 5.426 16.605 5.426 C 16.908 5.426 16.002 6.332 16.002 6.332 C 16.002 6.332 16.907 6.635 17.21 6.635 C 17.51 6.635 17.51 6.33 17.21 6.03 C 16.907 5.727 16.606 6.03 16.908 5.73 C 17.21 5.426 17.512 4.822 16.908 4.51 C 16.636 4.384 16.554 4.19 16.54 4.014 z M 12.834 4.422 C 12.638 4.544 12.285 4.61 12.074 4.822 C 11.772 5.124 11.77 5.426 11.47 5.426 C 11.245 5.426 11.255 5.12 11.273 4.96 C 11.777 4.746 12.298 4.567 12.834 4.422 z M 22.93 5.857 C 23.58 6.3 24.25 6.693 24.818 7.22 C 24.25 6.695 23.574 6.298 22.93 5.857 z M 9.19 6.21 C 9.6 6.18 9.883 6.408 9.656 6.635 C 9.394 6.897 9.11 6.707 8.46 6.652 C 8.638 6.51 8.82 6.373 9.004 6.24 C 9.067 6.225 9.13 6.213 9.19 6.21 z M 8.062 6.537 A .5 .5 0 0 0 8.268 7.027 C 8.157 7.14 8.044 7.247 7.947 7.383 C 7.88 7.478 7.81 7.58 7.773 7.748 C 7.737 7.915 7.788 8.192 7.943 8.348 C 8.032 8.436 8.19 8.52 8.342 8.523 C 8.494 8.528 8.61 8.474 8.688 8.426 C 8.783 8.367 8.814 8.313 8.86 8.258 C 8.883 8.286 8.904 8.326 8.926 8.348 C 9.12 8.54 9.34 8.645 9.656 8.645 C 9.973 8.645 10.192 8.514 10.348 8.41 C 10.504 8.307 10.613 8.2 10.613 8.2 A .5 .5 0 0 0 10.62 8.188 C 10.76 8.227 10.88 8.242 11.023 8.217 C 10.798 8.47 10.63 8.702 10.568 8.828 C 10.493 8.98 10.482 9.02 10.21 9.303 C 9.966 9.546 9.875 9.56 9.648 9.635 C 9.422 9.71 9.06 9.848 8.7 10.21 C 8.408 10.5 8.37 10.825 8.312 11.133 C 8.265 11.08 8.275 10.997 8.22 10.955 C 7.96 10.762 7.625 10.666 7.24 10.666 C 6.855 10.666 6.554 10.792 6.393 10.896 C 6.337 10.932 6.324 10.943 6.305 10.957 C 6.313 10.952 6.25 10.937 6.11 10.87 C 5.956 10.792 5.747 10.666 5.428 10.666 C 4.94 10.666 4.724 10.937 4.543 11.104 A .5 .5 0 0 0 4.436 11.26 C 5.208 9.364 6.52 7.83 8.062 6.537 z M 10.562 6.738 C 10.502 6.738 10.486 6.77 10.434 6.777 C 10.44 6.775 10.452 6.757 10.457 6.756 C 10.525 6.735 10.55 6.738 10.562 6.738 z M 9.76 6.898 C 10.072 6.87 10.827 7.238 10.562 7.238 C 10.26 7.238 9.958 7.54 9.656 7.54 C 9.354 7.54 9.478 7.116 9.656 6.938 C 9.68 6.915 9.715 6.902 9.76 6.898 z M 9.355 6.938 C 9.506 6.938 9.126 7.128 8.902 7.39 C 8.675 7.657 8.45 8.146 8.297 7.994 C 8.146 7.843 8.448 7.54 8.75 7.238 C 9.052 6.936 9.053 6.937 9.355 6.938 z M 10.865 7.314 C 11.016 7.314 11.168 7.39 11.168 7.54 C 11.168 7.66 11.073 7.73 10.96 7.756 C 10.95 7.765 10.94 7.782 10.934 7.787 C 10.884 7.82 10.873 7.814 10.865 7.814 C 10.857 7.814 10.847 7.82 10.797 7.787 C 10.79 7.783 10.786 7.768 10.78 7.758 C 10.663 7.735 10.562 7.664 10.562 7.54 C 10.562 7.39 10.714 7.314 10.865 7.314 z M 9.355 7.844 L 10.262 7.844 C 10.262 7.844 9.958 8.145 9.656 8.145 C 9.354 8.145 9.053 7.844 9.355 7.844 z M 25.443 8.033 C 25.654 8.283 25.8 8.58 25.99 8.846 A .5 .5 0 0 0 25.643 8.96 C 25.605 8.996 25.57 9.047 25.535 9.084 C 25.45 9.027 25.37 8.98 25.27 8.955 C 25.27 8.927 25.262 8.87 25.262 8.75 C 25.262 8.69 25.293 8.534 25.332 8.406 C 25.352 8.342 25.372 8.286 25.387 8.246 C 25.394 8.226 25.4 8.21 25.404 8.2 C 25.408 8.19 25.408 8.188 25.408 8.188 A .5 .5 0 0 0 25.377 8.197 A .5 .5 0 0 0 25.432 8.123 L 25.434 8.115 A .5 .5 0 0 0 25.443 8.033 z M 25.064 8.854 C 25.072 8.854 25.14 8.864 25.195 8.906 C 25.205 8.914 25.2 8.916 25.21 8.924 C 25.155 8.914 25.117 8.854 25.064 8.854 z M 25.984 9.326 C 26.107 9.51 26.224 9.697 26.336 9.887 C 25.688 9.708 25.688 9.604 25.984 9.326 z M 26.797 10.045 C 27.786 11.837 28.5 13.797 28.5 16 C 28.5 16.5 28.412 16.974 28.355 17.46 A .5 .5 0 0 0 27.78 17.092 C 27.007 17.275 26.496 17.615 26.273 17.615 C 25.917 17.615 25.533 17.668 25.213 17.69 C 25.053 17.703 24.91 17.706 24.816 17.7 C 24.722 17.693 24.683 17.66 24.742 17.7 C 24.3 17.402 24.015 17.18 23.87 17.04 C 23.728 16.897 23.752 16.888 23.752 16.906 C 23.752 16.702 23.673 16.583 23.61 16.494 C 23.55 16.405 23.486 16.338 23.422 16.273 C 23.293 16.144 23.154 16.025 23.04 15.91 C 22.924 15.795 22.838 15.683 22.81 15.627 C 22.8 15.608 22.8 15.612 22.797 15.61 C 23.155 14.89 23.148 14.186 23.148 13.885 C 23.148 13.798 23.083 13.712 23.045 13.617 C 23.058 13.585 23.057 13.582 23.096 13.504 C 23.257 13.182 23.286 13.066 23.36 12.96 C 23.637 12.562 23.464 12.72 23.908 12.275 C 23.97 12.213 24.165 12.1 24.38 11.973 C 24.486 11.908 24.6 11.838 24.715 11.723 C 24.83 11.607 24.96 11.408 24.96 11.166 C 24.96 11.015 24.97 10.967 24.984 10.936 C 25 10.904 25.045 10.828 25.287 10.707 C 25.488 10.607 25.59 10.477 25.682 10.336 C 25.708 10.296 25.716 10.243 25.738 10.2 C 25.745 10.204 25.753 10.216 25.76 10.22 C 25.89 10.278 26.03 10.32 26.203 10.37 A .5 .5 0 0 0 26.797 10.045 z M 8.62 11.703 C 8.627 11.73 8.646 11.766 8.646 11.77 C 8.646 11.746 8.615 11.733 8.613 11.71 L 8.62 11.703 z M 3.674 14.248 A .5 .5 0 0 0 3.697 14.385 C 3.737 14.46 3.807 14.546 3.873 14.63 C 3.87 14.632 3.865 14.63 3.86 14.633 A .5 .5 0 0 0 3.602 14.98 C 3.622 14.735 3.64 14.49 3.674 14.248 z M 5.535 14.63 C 5.535 14.63 5.534 14.63 5.533 14.633 C 5.494 14.733 5.46 14.858 5.473 15.012 C 5.48 15.1 5.545 15.177 5.59 15.262 C 5.527 15.254 5.494 15.197 5.428 15.197 C 5.45 15.197 5.364 15.17 5.19 15.018 C 5.128 14.965 4.973 14.925 4.89 14.86 C 5.1 14.835 5.303 14.773 5.535 14.63 z M 4.285 15.062 C 4.726 15.102 5.003 15.697 5.428 15.697 C 6.032 15.697 6.635 16.3 6.635 16.604 C 6.635 16.906 7.542 17.51 7.844 17.51 C 8.146 17.51 8.383 16.916 8.75 17.812 C 9.117 18.71 7.844 19.323 7.844 19.625 C 7.844 19.927 7.996 19.928 7.996 20.23 C 7.996 20.533 7.832 20.526 7.844 20.834 C 7.855 21.142 8.147 21.136 8.45 21.74 C 8.75 22.344 9.053 23.25 9.355 23.553 C 9.658 23.855 10.563 23.855 10.865 24.46 C 11.066 24.86 11.138 26.147 11.166 26.99 C 6.94 25.137 4 20.926 4 16 C 4 15.697 4.015 15.398 4.037 15.102 C 4.126 15.068 4.208 15.056 4.285 15.062 z M 6.87 15.547 C 6.87 15.574 6.87 15.545 6.86 15.615 C 6.847 15.69 6.832 15.817 6.81 15.906 C 6.735 15.82 6.67 15.73 6.578 15.652 C 6.565 15.642 6.54 15.643 6.527 15.633 C 6.62 15.61 6.725 15.59 6.793 15.568 C 6.833 15.555 6.84 15.556 6.87 15.547 z M 10.482 16.682 C 10.72 16.69 11.015 16.722 11.37 16.793 C 12.78 17.075 13.232 17.562 13.533 17.863 C 13.743 18.073 14.015 18.213 14.28 18.266 C 14.536 18.317 14.78 18.313 15.072 18.312 C 15.067 18.315 15.114 18.33 15.19 18.406 C 15.29 18.507 15.418 18.68 15.54 18.873 C 15.664 19.066 15.784 19.278 15.896 19.47 C 16.01 19.66 16.088 19.815 16.252 19.98 C 16.445 20.172 16.63 20.233 16.846 20.314 C 17.062 20.396 17.302 20.465 17.54 20.525 C 17.78 20.585 18.017 20.635 18.22 20.67 C 18.42 20.705 18.56 20.73 18.72 20.73 C 18.63 20.73 18.726 20.735 18.82 20.783 C 18.934 20.832 19.073 20.908 19.21 20.994 C 19.4 21.113 19.53 21.226 19.668 21.336 C 19.627 21.76 19.544 22.05 19.377 22.27 C 19.174 22.54 18.824 22.933 18.824 23.553 C 18.824 24.348 18.605 24.48 18.273 25.143 C 18.227 25.235 18.076 25.32 17.78 25.412 C 17.63 25.46 17.464 25.502 17.285 25.582 C 17.107 25.662 16.887 25.794 16.76 26.05 C 16.614 26.346 16.606 26.62 16.596 26.773 C 16.585 26.928 16.582 27.015 16.46 27.258 C 16.39 27.38 16.296 27.524 16.176 27.676 A .5 .5 0 0 0 16.525 28.447 C 16.347 28.455 16.18 28.5 16 28.5 C 14.22 28.5 12.545 28.113 11.018 27.45 A .5 .5 0 0 0 11.666 26.973 C 11.652 26.545 11.627 26.006 11.578 25.51 C 11.53 25.014 11.498 24.607 11.312 24.236 C 11.072 23.755 10.62 23.55 10.285 23.424 C 9.95 23.298 9.683 23.174 9.71 23.2 C 9.676 23.166 9.505 22.884 9.36 22.557 C 9.214 22.23 9.062 21.85 8.896 21.518 C 8.716 21.157 8.503 20.935 8.39 20.822 C 8.36 20.79 8.363 20.795 8.352 20.783 C 8.353 20.784 8.344 20.79 8.357 20.764 C 8.394 20.695 8.496 20.472 8.496 20.23 C 8.496 20.002 8.41 19.798 8.37 19.717 C 8.38 19.707 8.38 19.705 8.39 19.693 C 8.49 19.595 8.648 19.453 8.807 19.275 C 8.966 19.098 9.133 18.882 9.234 18.6 C 9.336 18.318 9.35 17.96 9.213 17.623 C 9.16 17.49 9.08 17.414 9.018 17.312 C 9.122 17.294 9.228 17.286 9.332 17.248 C 9.426 17.214 9.523 17.173 9.63 17.082 C 9.71 17.014 9.797 16.894 9.836 16.752 C 9.863 16.73 9.9 16.727 9.953 16.715 C 10.07 16.69 10.246 16.673 10.482 16.682 z M 28.232 18.346 C 28.145 18.793 28.03 19.23 27.893 19.654 C 28.03 19.228 28.145 18.792 28.232 18.346 z M 25.14 24.38 C 24.986 24.597 24.828 24.81 24.633 24.996 C 24.825 24.81 24.986 24.598 25.14 24.38 z " fill="currentColor" opacity=".6"/></g><use href="#use-path-cx" opacity=".4"/><use class="toggle-flat-design" fill="url(#gd1)" href="#use-path-cx" opacity=".1"/><path class="toggle-flat-design" d="m 26,16 c -2,0 -4,2 -6,2 H 6 c -1.11,0 -2,0.892 -2,2 v 34 c 0,1.108 0.892,2 2,2 h 52 c 1.108,0 2,-0.892 2,-2 V 18 c 0,-1.108 -0.892,-2 -2,-2 z" fill="url(#gl1)" opacity=".2"/><path class="folder-crease" d="m 4,44 v 2 h 9 c 0.554,0 1,-0.446 1,-1 0,-0.554 -0.446,-1 -1,-1 z m 47,0 c -0.554,0 -1,0.446 -1,1 0,0.554 0.446,1 1,1 h 9 v -2 z" opacity=".4"/><path class="ColorScheme-Text" d="m 4,52 v 1 c 0,1.662 1.338,3 3,3 h 50 c 1.662,0 3,-1.338 3,-3 v -1 c 0,1.662 -1.338,3 -3,3 H 7 C 5.338,55 4,53.662 4,52 Z" fill="currentColor" opacity=".1"/><path class="ColorScheme-Text" d="M 4,52.5 V 53 c 0,1.662 1.338,3 3,3 h 50 c 1.662,0 3,-1.338 3,-3 v -0.5 c 0,1.662 -1.338,3 -3,3 H 7 c -1.662,0 -3,-1.338 -3,-3 z" fill="currentColor" opacity=".2"/><path d="m 27,16 c -3,0 -3,2 -7,2 H 7 c -1.662,0 -3,1.338 -3,3 v 1 c 0,-1.662 1.338,-3 3,-3 h 13 c 4,0 4,-2 7,-2 h 30 c 1.662,0 3,1.338 3,3 v -1 c 0,-1.662 -1.338,-3 -3,-3 z" fill="#fff" opacity=".1"/><path d="m 27,16 c -3,0 -3,2 -7,2 H 7 c -1.662,0 -3,1.338 -3,3 v 0.5 c 0,-1.662 1.338,-3 3,-3 h 13 c 4,0 4,-2 7,-2 h 30 c 1.662,0 3,1.338 3,3 V 19 c 0,-1.662 -1.338,-3 -3,-3 z" fill="#fff" opacity=".2"/><path d="m 27,15 c -3,0 -3,2 -7,2 H 7 v 1 h 13 c 4,0 4,-2 7,-2 h 30 v -1 z" opacity=".1"/><path d="m 27,15.5 c -3,0 -3,2 -7,2 H 7 V 18 h 13 c 4,0 4,-2 7,-2 h 30 v -0.5 z" opacity=".2"/></g></svg>