<svg height="64" version="1.1" width="64" xmlns="http://www.w3.org/2000/svg" xmlns:svg="http://www.w3.org/2000/svg" xmlns:xlink="http://www.w3.org/1999/xlink">
<defs id="primary-definitions">
<style id="current-color-scheme" type="text/css">
      .ColorScheme-Text         { color: #232629; }
      .ColorScheme-Background   { color: #eff0f1; }
      .ColorScheme-Highlight    { color: #7ec9f0; }
      .ColorScheme-PositiveText { color: #27ae60; }
      .ColorScheme-NeutralText  { color: #f67400; }
      .ColorScheme-NegativeText { color: #da4453; }
      .ColorScheme-ActiveText   { color: #3daee9; }
      .ColorScheme-Complement   { color: #ffffff; }
      .ColorScheme-Contrast     { color: #000000; }
    </style>
<style id="extended-color-scheme" type="text/css">
      .ExScheme-Black     { color:#3e3e3e; }
      .ExScheme-White     { color:#fcfcfc; }
      .ExScheme-Grey-1    { color:#cfd5d5; }
      .ExScheme-Grey-2    { color:#909c9c; }
      .ExScheme-Grey-3    { color:#536161; }
      .ExScheme-Red-1     { color:#ffafa5; }
      .ExScheme-Red-2     { color:#bf4231; }
      .ExScheme-Red-3     { color:#4d2f2b; }
      .ExScheme-Green-1   { color:#abf9c7; }
      .ExScheme-Green-2   { color:#3bb566; }
      .ExScheme-Green-3   { color:#377d50; }
      .ExScheme-Blue-1    { color:#abdaf9; }
      .ExScheme-Blue-2    { color:#3daefd; }
      .ExScheme-Blue-3    { color:#2b3c4d; }
      .ExScheme-Yellow-1  { color:#faffa5; }
      .ExScheme-Yellow-2  { color:#cac726; }
      .ExScheme-Yellow-3  { color:#4b4d2b; }
      .ExScheme-Orange-1  { color:#ffdaa5; }
      .ExScheme-Orange-2  { color:#ff9701; }
      .ExScheme-Orange-3  { color:#4d372b; }
      .ExScheme-Brown-1   { color:#e9d6bb; }
      .ExScheme-Brown-2   { color:#997657; }
      .ExScheme-Brown-3   { color:#433a35; }
      .ExScheme-Purple-1  { color:#e2abf9; }
      .ExScheme-Purple-2  { color:#b401ff; }
      .ExScheme-Purple-3  { color:#432b4d; }
      .ExScheme-Cyan-1    { color:#b2f2e6; }
      .ExScheme-Cyan-2    { color:#31bfa6; }
      .ExScheme-Cyan-3    { color:#2b4d47; }
      .ExScheme-Magenta-1 { color:#f8a6d8; }
      .ExScheme-Magenta-2 { color:#f00091; }
      .ExScheme-Magenta-3 { color:#770048; }
    </style>
<linearGradient id="uI8">
<stop offset="0"/>
<stop offset="1" stop-opacity="0"/>
</linearGradient>
<linearGradient id="uI9">
<stop offset="0" stop-color="#fff"/>
<stop offset="1" stop-color="#fff" stop-opacity="0"/>
</linearGradient>
<style id="uIa" type="text/css">
        .force-display-for-editing { display: inline !important; }
    </style><style class="remove-if__show-crease" type="text/css">
        .enable-if__show-crease { display: none; }
    </style><style class="remove-if__color-sync-mimes-places" type="text/css">
        .enable-if__color-sync-mimes-places { display: none; }
    </style><radialGradient cx=".5" cy="0" id="uIb" r="1" xlink:href="#uI9"/><linearGradient id="uIc" xlink:href="#uI8" y1="1" y2=".5"/><style class="ColorScheme-Background" fill="currentColor" opacity=".6" type="text/css">
   .ColorScheme-Text           { color:#eff0f1; }
      .ColorScheme-Background     { color:#31363b; }
      .ColorScheme-Highlight      { color:#3daefd; }
      .ColorScheme-ViewBackground { color:#fcfcfc; }
      .ColorScheme-PositiveText   { color:#27ae60; }
      .ColorScheme-NeutralText    { color:#f67400; }
      .ColorScheme-NegativeText   { color:#da4453; }
  </style><path d="M 10,8 C 8.34,8 7,9.34 7,11 v 7 c -1.66,0 -3,1.34 -3,3 v 32 c 0,1.66 1.34,3 3,3 h 50 c 1.66,0 3,-1.34 3,-3 V 26 21 19 c 0,-1.66 -1.34,-3 -3,-3 v -3 c 0,-1.66 -1.34,-3 -3,-3 H 28 C 24,10 24,8 21,8 Z" id="uId"></path><path d="M 10,8 C 8.34,8 7,9.34 7,11 v 7 h 13 c 4,0 4,-2 7,-2 h 30 v -3 c 0,-1.66 -1.34,-3 -3,-3 H 28 C 24,10 24,8 21,8 Z" id="uIe"></path></defs>
<g id="content" transform="translate(0,0)"><use class="sync-color enable-if__color-sync-mimes-places force-display-for-editing ColorScheme-ActiveText" fill="currentColor" href="#uId"></use><use class="primary-color remove-if__color-sync-mimes-places ColorScheme-ActiveText" fill="currentColor" href="#uId"></use><use class="ColorScheme-Contrast" fill="currentColor" href="#uId" opacity=".1"></use><g id="decal" transform="translate(16,21)"><path class="ColorScheme-Background" d="M 16 3 C 8.8 3 3 8.8 3 16 C 3 23.2 8.8 29 16 29 C 23.2 29 29 23.2 29 16 C 29 8.8 23.2 3 16 3 z M 16.54 4 C 19.9 4.16 22.87 5.66 24.95 8 L 24.95 8 L 24.95 8 C 24.95 8 24.76 8.45 24.76 8.75 C 24.76 9.05 24.76 9.35 25.06 9.35 C 25.67 9.35 25.33 10.1 25.06 10.26 C 24.46 10.56 24.46 10.86 24.46 11.17 C 24.46 11.47 23.86 11.6 23.55 11.9 C 23.1 12.4 23.2 12.3 22.95 12.7 C 22.83 12.85 22.8 13 22.65 13.3 C 22.35 13.9 22.65 13.6 22.65 13.9 C 22.65 14.2 22.65 14.8 22.35 15.4 C 22.04 16 23.25 16.6 23.25 16.9 C 23.25 17.2 23.56 17.5 24.46 18.1 C 24.75 18.3 25.67 18.1 26.27 18.1 C 26.76 18.1 27.25 17.73 27.9 17.6 C 27.15 23.3 22.4 27.7 16.57 28 C 16.7 27.8 16.8 27.66 16.9 27.5 C 17.2 26.9 17 26.7 17.2 26.27 C 17.4 25.85 18.4 25.97 18.7 25.37 C 19 24.76 19.3 24.46 19.3 23.55 C 19.3 22.65 20.23 22.65 20.23 21.14 C 19.93 20.83 19 20.23 18.7 20.23 C 18.4 20.23 16.9 19.93 16.6 19.6 C 16.3 19.3 15.7 17.8 15.1 17.8 C 14.5 17.8 14.2 17.8 13.9 17.5 C 13.6 17.2 13 16.6 11.47 16.3 C 9.96 16 9.36 16.3 9.36 16.6 C 9.36 16.9 8.15 16.9 7.84 16.9 C 7.54 16.9 7.24 16.6 7.24 16.3 C 7.24 16 7.54 15.4 7.24 15.1 C 6.94 14.8 6.33 15.4 6.03 15.1 C 5.73 14.8 6.63 14.2 6.63 13.6 C 5.73 13.6 5.73 13.9 5.43 14.2 C 5.13 14.5 4.8 14.5 4.5 14.5 C 4.36 14.5 4.2 14.3 4.14 14.15 C 4.3 13.2 4.54 12.3 4.9 11.47 C 5.03 11.33 5.25 11.17 5.43 11.17 C 5.73 11.17 6.05 11.47 6.33 11.47 C 6.6 11.47 6.64 11.17 7.24 11.17 C 7.84 11.17 8.15 11.47 8.15 11.77 C 8.15 12.07 8.45 12.07 8.75 12.07 C 8.75 11.77 8.45 11.17 9.05 10.56 C 9.66 9.96 9.96 10.26 10.56 9.66 C 11.17 9.05 10.86 9.05 11.47 8.45 C 11.77 8.15 12.2 8.33 12.4 8.14 C 12.56 7.96 12.4 7.54 13.3 7.24 C 14.2 6.94 13.6 7.54 13.9 7.54 C 14.2 7.24 15.7 7.24 15.4 6.63 C 15.1 6.63 15.1 6.94 14.5 6.94 C 13.9 6.94 15.1 6.03 14.8 6.03 C 14.5 6.03 14.2 5.73 14.8 5.73 C 15.03 5.73 15 6.1 15.4 6.03 C 15.6 6 15.1 5.73 15.7 5.73 C 16.3 5.73 16.3 5.43 16.6 5.43 C 16.9 5.43 16 6.33 16 6.33 C 16 6.33 16.9 6.63 17.2 6.63 C 17.5 6.63 17.5 6.33 17.2 6.03 C 16.9 5.73 16.6 6.03 16.9 5.73 C 17.2 5.43 17.5 4.8 16.9 4.5 C 16.64 4.4 16.55 4.2 16.54 4 z M 12.83 4.4 C 12.64 4.54 12.3 4.6 12.07 4.8 C 11.77 5.1 11.77 5.43 11.47 5.43 C 11.25 5.43 11.25 5.1 11.27 4.96 C 11.8 4.75 12.3 4.57 12.83 4.4 z M 9.2 6.2 C 9.6 6.2 9.9 6.4 9.66 6.63 C 9.4 6.9 9.1 6.7 8.46 6.65 C 8.64 6.5 8.8 6.37 9 6.24 C 9.07 6.2 9.13 6.2 9.2 6.2 z M 9.76 6.9 C 10.07 6.87 10.83 7.24 10.56 7.24 C 10.26 7.24 9.96 7.54 9.66 7.54 C 9.35 7.54 9.5 7.1 9.66 6.94 C 9.7 6.9 9.7 6.9 9.76 6.9 z M 9.36 6.94 C 9.5 6.94 9.13 7.13 8.9 7.4 C 8.7 7.66 8.45 8.15 8.3 8 C 8.15 7.84 8.45 7.54 8.75 7.24 C 9.05 6.94 9.05 6.94 9.36 6.94 z M 10.87 7.3 C 11 7.3 11.17 7.4 11.17 7.54 C 11.17 7.84 10.56 7.84 10.56 7.54 C 10.56 7.4 10.7 7.3 10.87 7.3 z M 9.36 7.84 L 10.26 7.84 C 10.26 7.84 9.96 8.14 9.66 8.14 C 9.35 8.14 9.05 7.84 9.36 7.84 z M 26 9.33 C 26.1 9.5 26.2 9.8 26.34 9.9 C 25.7 9.7 25.7 9.6 26 9.33 z M 4.3 15.06 C 4.73 15.1 5 15.7 5.43 15.7 C 6.03 15.7 6.63 16.3 6.63 16.6 C 6.63 16.9 7.54 17.5 7.84 17.5 C 8.15 17.5 8.4 16.9 8.75 17.8 C 9.1 18.7 7.84 19.3 7.84 19.6 C 7.84 19.93 8 19.93 8 20.23 C 8 20.53 7.83 20.53 7.84 20.83 C 7.86 21.14 8.15 21.14 8.45 21.74 C 8.75 22.34 9.05 23.25 9.36 23.55 C 9.66 23.85 10.56 23.85 10.87 24.46 C 11.07 24.86 11.14 26.15 11.17 27 C 6.94 25.14 4 20.93 4 16 C 4 15.7 4 15.4 4.04 15.1 C 4.13 15.07 4.2 15.06 4.3 15.06 z " fill="currentColor" opacity=".6"/><path class="ColorScheme-Background" d="M 16 3 C 8.8 3 3 8.8 3 16 C 3 23.2 8.8 29 16 29 C 23.2 29 29 23.2 29 16 C 29 8.8 23.2 3 16 3 z M 16 3.5 C 16.16 3.5 16.3 3.54 16.5 3.55 A .5 .5 0 0 0 16.04 4.05 C 16.07 4.35 16.3 4.74 16.67 4.95 C 16.65 4.94 16.6 4.93 16.6 4.93 C 16.3 4.93 16.06 5.1 16 5.16 C 15.9 5.2 15.9 5.23 15.7 5.23 C 15.5 5.23 15.37 5.2 15.16 5.34 C 15.16 5.35 15.15 5.36 15.14 5.37 C 15.04 5.3 14.93 5.23 14.8 5.23 C 14.6 5.23 14.45 5.23 14.26 5.34 C 14.16 5.4 14.04 5.5 14 5.65 C 13.9 5.8 13.95 6 14 6.1 C 14.04 6.17 14.1 6.17 14.1 6.2 C 14 6.3 13.9 6.4 13.84 6.66 C 13.84 6.67 13.85 6.7 13.85 6.7 C 13.84 6.7 13.8 6.67 13.8 6.67 C 13.55 6.6 13.4 6.7 13.1 6.76 C 12.35 7 12 7.56 11.97 7.75 C 11.95 7.75 11.95 7.75 11.9 7.75 C 11.8 7.76 11.64 7.9 11.5 7.94 C 11.57 7.83 11.67 7.7 11.67 7.54 C 11.67 7.3 11.5 7.06 11.35 6.96 C 11.2 6.87 11.1 6.85 10.95 6.84 C 10.94 6.83 10.93 6.8 10.9 6.8 C 10.8 6.7 10.7 6.66 10.6 6.6 C 10.5 6.56 10.33 6.55 10.2 6.5 C 10.2 6.5 10.24 6.5 10.24 6.46 C 10.23 6.24 10.1 6.06 10 5.95 C 9.77 5.76 9.5 5.73 9.25 5.74 C 9.86 5.33 10.4 4.8 11.07 4.5 A .5 .5 0 0 0 10.8 4.9 C 10.76 5 10.74 5.16 10.8 5.37 C 10.8 5.5 10.86 5.6 11 5.7 C 11.1 5.85 11.3 5.93 11.47 5.93 C 11.63 5.93 11.8 5.87 11.93 5.8 C 12.06 5.7 12.14 5.6 12.2 5.5 C 12.3 5.36 12.34 5.27 12.43 5.2 C 12.45 5.15 12.53 5.2 12.65 5.05 C 12.77 5 12.9 4.96 13.1 4.85 A .5 .5 0 0 0 12.8 3.96 C 13.83 3.7 14.9 3.5 16 3.5 z M 16.54 4 C 19.67 4.15 22.5 5.5 24.54 7.56 L 24.56 7.5 L 24.95 7.5 L 25 8.46 A .5 .5 0 0 0 25 8.46 L 25 8.5 C 25 8.5 25 8.5 25 8.47 A .5 .5 0 0 0 24.96 8.5 A .5 .5 0 0 0 25 8.47 C 24.97 8.46 24.9 8.36 24.84 8.3 C 24.8 8.44 24.76 8.6 24.76 8.75 C 24.76 9.05 24.76 9.35 25.06 9.35 C 25.67 9.35 25.33 10.1 25.06 10.26 C 24.46 10.56 24.46 10.86 24.46 11.17 C 24.46 11.47 23.86 11.6 23.55 11.9 C 23.1 12.4 23.2 12.3 22.95 12.7 C 22.83 12.85 22.8 13 22.65 13.3 C 22.35 13.9 22.65 13.6 22.65 13.9 C 22.65 14.2 22.65 14.8 22.35 15.4 C 22.04 16 23.25 16.6 23.25 16.9 C 23.25 17.2 23.56 17.5 24.46 18.1 C 24.75 18.3 25.67 18.1 26.27 18.1 C 26.76 18.1 27.25 17.73 27.9 17.6 C 27.15 23.3 22.4 27.7 16.57 28 C 16.7 27.8 16.8 27.66 16.9 27.5 C 17.2 26.9 17 26.7 17.2 26.27 C 17.4 25.85 18.4 25.97 18.7 25.37 C 19 24.76 19.3 24.46 19.3 23.55 C 19.3 22.65 20.23 22.65 20.23 21.14 C 19.93 20.83 19 20.23 18.7 20.23 C 18.4 20.23 16.9 19.93 16.6 19.6 C 16.3 19.3 15.7 17.8 15.1 17.8 C 14.5 17.8 14.2 17.8 13.9 17.5 C 13.6 17.2 13 16.6 11.47 16.3 C 9.96 16 9.36 16.3 9.36 16.6 C 9.36 16.9 8.15 16.9 7.84 16.9 C 7.54 16.9 7.24 16.6 7.24 16.3 C 7.24 16 7.54 15.4 7.24 15.1 C 6.94 14.8 6.33 15.4 6.03 15.1 C 5.73 14.8 6.63 14.2 6.63 13.6 C 5.73 13.6 5.73 13.9 5.43 14.2 C 5.13 14.5 4.8 14.5 4.5 14.5 C 4.36 14.5 4.2 14.3 4.14 14.15 C 4.3 13.2 4.54 12.3 4.9 11.47 C 5.03 11.33 5.25 11.17 5.43 11.17 C 5.73 11.17 6.05 11.47 6.33 11.47 C 6.6 11.47 6.64 11.17 7.24 11.17 C 7.84 11.17 8.15 11.47 8.15 11.77 C 8.15 12.07 8.45 12.07 8.75 12.07 C 8.75 11.77 8.45 11.17 9.05 10.56 C 9.66 9.96 9.96 10.26 10.56 9.66 C 11.17 9.05 10.86 9.05 11.47 8.45 C 11.77 8.15 12.2 8.33 12.4 8.14 C 12.56 7.96 12.4 7.54 13.3 7.24 C 14.2 6.94 13.6 7.54 13.9 7.54 C 14.2 7.24 15.7 7.24 15.4 6.63 C 15.1 6.63 15.1 6.94 14.5 6.94 C 13.9 6.94 15.1 6.03 14.8 6.03 C 14.5 6.03 14.2 5.73 14.8 5.73 C 15.03 5.73 15 6.1 15.4 6.03 C 15.6 6 15.1 5.73 15.7 5.73 C 16.3 5.73 16.3 5.43 16.6 5.43 C 16.9 5.43 16 6.33 16 6.33 C 16 6.33 16.9 6.63 17.2 6.63 C 17.5 6.63 17.5 6.33 17.2 6.03 C 16.9 5.73 16.6 6.03 16.9 5.73 C 17.2 5.43 17.5 4.8 16.9 4.5 C 16.64 4.4 16.55 4.2 16.54 4 z M 12.83 4.4 C 12.64 4.54 12.3 4.6 12.07 4.8 C 11.77 5.1 11.77 5.43 11.47 5.43 C 11.25 5.43 11.25 5.1 11.27 4.96 C 11.8 4.75 12.3 4.57 12.83 4.4 z M 22.93 5.86 C 23.6 6.3 24.25 6.7 24.8 7.2 C 24.25 6.7 23.57 6.3 22.93 5.86 z M 9.2 6.2 C 9.6 6.2 9.9 6.4 9.66 6.63 C 9.4 6.9 9.1 6.7 8.46 6.65 C 8.64 6.5 8.8 6.37 9 6.24 C 9.07 6.2 9.13 6.2 9.2 6.2 z M 8.06 6.54 A .5 .5 0 0 0 8.27 7.03 C 8.16 7.14 8.04 7.25 7.95 7.4 C 7.9 7.5 7.8 7.6 7.77 7.75 C 7.74 7.9 7.8 8.2 7.94 8.35 C 8.03 8.44 8.2 8.5 8.34 8.5 C 8.5 8.53 8.6 8.47 8.7 8.43 C 8.8 8.37 8.8 8.3 8.86 8.26 C 8.9 8.3 8.9 8.33 8.93 8.35 C 9.1 8.54 9.34 8.64 9.66 8.64 C 9.97 8.64 10.2 8.5 10.35 8.4 C 10.5 8.3 10.6 8.3 10.6 8.3 A .5 .5 0 0 0 10.6 8.2 C 10.76 8.23 10.9 8.24 11 8.2 C 10.8 8.47 10.63 8.8 10.57 8.83 C 10.5 9 10.5 9.03 10.2 9.3 C 9.97 9.55 9.87 9.56 9.65 9.63 C 9.4 9.7 9.06 9.85 8.8 10.2 C 8.4 10.5 8.37 10.83 8.3 11.13 C 8.27 11.1 8.3 11 8.2 10.96 C 7.96 10.76 7.63 10.67 7.24 10.67 C 6.86 10.67 6.55 10.8 6.4 10.9 C 6.34 10.93 6.3 10.94 6.3 10.96 C 6.3 10.95 6.25 10.94 6.1 10.87 C 5.96 10.8 5.75 10.67 5.43 10.67 C 4.94 10.67 4.7 10.94 4.54 11.1 A .5 .5 0 0 0 4.44 11.26 C 5.2 9.36 6.5 7.83 8.06 6.54 z M 10.56 6.74 C 10.5 6.74 10.5 6.77 10.43 6.8 C 10.44 6.8 10.45 6.76 10.46 6.76 C 10.5 6.74 10.55 6.74 10.56 6.74 z M 9.76 6.9 C 10.07 6.87 10.83 7.24 10.56 7.24 C 10.26 7.24 9.96 7.54 9.66 7.54 C 9.35 7.54 9.5 7.1 9.66 6.94 C 9.7 6.9 9.7 6.9 9.76 6.9 z M 9.36 6.94 C 9.5 6.94 9.13 7.13 8.9 7.4 C 8.7 7.66 8.45 8.15 8.3 8 C 8.15 7.84 8.45 7.54 8.75 7.24 C 9.05 6.94 9.05 6.94 9.36 6.94 z M 10.87 7.3 C 11 7.3 11.17 7.4 11.17 7.54 C 11.17 7.66 11.07 7.73 10.96 7.76 C 10.95 7.76 10.94 7.8 10.93 7.8 C 10.9 7.8 10.87 7.8 10.87 7.8 C 10.86 7.8 10.85 7.8 10.8 7.8 C 10.8 7.8 10.8 7.77 10.8 7.76 C 10.66 7.73 10.56 7.66 10.56 7.54 C 10.56 7.4 10.7 7.3 10.87 7.3 z M 9.36 7.84 L 10.26 7.84 C 10.26 7.84 9.96 8.14 9.66 8.14 C 9.35 8.14 9.05 7.84 9.36 7.84 z M 25.44 8.03 C 25.65 8.3 25.8 8.6 26 8.85 A .5 .5 0 0 0 25.64 8.96 C 25.6 9 25.57 9.05 25.54 9.1 C 25.45 9.03 25.37 9 25.27 8.96 C 25.27 8.93 25.26 8.87 25.26 8.75 C 25.26 8.8 25.3 8.53 25.33 8.4 C 25.35 8.34 25.37 8.3 25.4 8.25 C 25.4 8.23 25.4 8.2 25.4 8.3 C 25.4 8.2 25.4 8.2 25.4 8.2 A .5 .5 0 0 0 25.4 8.3 A .5 .5 0 0 0 25.43 8.1 L 25.43 8.1 A .5 .5 0 0 0 25.44 8.03 z M 25.06 8.85 C 25.07 8.85 25.14 8.86 25.2 8.9 C 25.2 8.9 25.2 8.9 25.2 8.9 C 25.15 8.9 25.1 8.85 25.06 8.85 z M 26 9.33 C 26.1 9.5 26.2 9.8 26.34 9.9 C 25.7 9.7 25.7 9.6 26 9.33 z M 26.8 10.04 C 27.8 11.84 28.5 13.8 28.5 16 C 28.5 16.5 28.4 16.97 28.36 17.46 A .5 .5 0 0 0 27.8 17.1 C 27 17.27 26.5 17.6 26.27 17.6 C 25.9 17.6 25.53 17.67 25.2 17.7 C 25.05 17.7 24.9 17.7 24.8 17.7 C 24.7 17.7 24.7 17.66 24.74 17.7 C 24.3 17.5 24 17.2 23.87 17.04 C 23.73 17 23.75 16.9 23.75 16.9 C 23.75 16.7 23.67 16.6 23.6 16.5 C 23.55 16.4 23.5 16.34 23.4 16.27 C 23.3 16.14 23.15 16.03 23.04 15.9 C 22.9 15.8 22.84 15.7 22.8 15.63 C 22.8 15.6 22.8 15.6 22.8 15.6 C 23.15 14.9 23.15 14.2 23.15 13.9 C 23.15 13.8 23.1 13.7 23.04 13.6 C 23.06 13.6 23.06 13.6 23.1 13.5 C 23.26 13.2 23.3 13.07 23.36 12.96 C 23.64 12.56 23.46 12.7 23.9 12.3 C 23.97 12.2 24.16 12.1 24.4 11.97 C 24.5 11.9 24.6 11.84 24.7 11.7 C 24.83 11.6 24.96 11.4 24.96 11.17 C 24.96 11 24.97 10.97 25 10.94 C 25 10.9 25.04 10.83 25.3 10.7 C 25.5 10.6 25.6 10.5 25.7 10.34 C 25.7 10.3 25.7 10.24 25.74 10.3 C 25.75 10.3 25.75 10.2 25.76 10.2 C 25.9 10.3 26.03 10.3 26.2 10.37 A .5 .5 0 0 0 26.8 10.04 z M 8.6 11.7 C 8.63 11.73 8.65 11.77 8.65 11.77 C 8.65 11.75 8.6 11.73 8.6 11.7 L 8.6 11.7 z M 3.67 14.25 A .5 .5 0 0 0 3.7 14.4 C 3.74 14.46 3.8 14.55 3.87 14.63 C 3.87 14.63 3.86 14.63 3.86 14.63 A .5 .5 0 0 0 3.6 15 C 3.6 14.73 3.64 14.5 3.67 14.25 z M 5.54 14.63 C 5.53 14.63 5.53 14.63 5.53 14.63 C 5.5 14.73 5.46 14.86 5.47 15 C 5.5 15.1 5.54 15.2 5.6 15.26 C 5.53 15.25 5.5 15.2 5.43 15.2 C 5.45 15.2 5.36 15.17 5.2 15 C 5.13 14.96 4.97 14.93 4.9 14.86 C 5.2 14.83 5.3 14.77 5.54 14.63 z M 4.3 15.06 C 4.73 15.1 5 15.7 5.43 15.7 C 6.03 15.7 6.63 16.3 6.63 16.6 C 6.63 16.9 7.54 17.5 7.84 17.5 C 8.15 17.5 8.4 16.9 8.75 17.8 C 9.1 18.7 7.84 19.3 7.84 19.6 C 7.84 19.93 8 19.93 8 20.23 C 8 20.53 7.83 20.53 7.84 20.83 C 7.86 21.14 8.15 21.14 8.45 21.74 C 8.75 22.34 9.05 23.25 9.36 23.55 C 9.66 23.85 10.56 23.85 10.87 24.46 C 11.07 24.86 11.14 26.15 11.17 27 C 6.94 25.14 4 20.93 4 16 C 4 15.7 4 15.4 4.04 15.1 C 4.13 15.07 4.2 15.06 4.3 15.06 z M 6.87 15.55 C 6.87 15.57 6.87 15.54 6.86 15.6 C 6.85 15.7 6.83 15.8 6.8 15.9 C 6.74 15.8 6.67 15.73 6.6 15.65 C 6.57 15.64 6.54 15.64 6.53 15.63 C 6.6 15.6 6.73 15.6 6.8 15.57 C 6.83 15.55 6.84 15.56 6.87 15.55 z M 10.5 16.7 C 10.7 16.7 11 16.7 11.37 16.8 C 12.8 17.1 13.23 17.56 13.53 17.86 C 13.74 18.07 14 18.2 14.3 18.27 C 14.54 18.3 14.8 18.3 15.07 18.3 C 15.07 18.3 15.1 18.33 15.2 18.4 C 15.3 18.5 15.4 18.7 15.54 18.87 C 15.66 19.07 15.8 19.3 15.9 19.47 C 16 19.66 16.1 19.8 16.25 20 C 16.45 20.17 16.63 20.23 16.85 20.3 C 17.06 20.5 17.3 20.47 17.54 20.53 C 17.8 20.6 18 20.63 18.2 20.67 C 18.4 20.7 18.56 20.73 18.7 20.73 C 18.63 20.73 18.73 20.73 18.83 20.8 C 18.93 20.83 19.07 20.9 19.2 21 C 19.5 21.1 19.53 21.23 19.67 21.34 C 19.63 21.76 19.54 22.05 19.4 22.27 C 19.17 22.54 18.8 22.93 18.8 23.55 C 18.8 24.35 18.6 24.5 18.27 25.14 C 18.23 25.24 18.1 25.3 17.8 25.4 C 17.63 25.46 17.46 25.5 17.3 25.6 C 17.1 25.66 16.9 25.8 16.76 26.05 C 16.6 26.35 16.6 26.6 16.6 26.77 C 16.6 26.93 16.6 27 16.46 27.26 C 16.5 27.4 16.3 27.5 16.2 27.7 A .5 .5 0 0 0 16.53 28.45 C 16.35 28.45 16.2 28.5 16 28.5 C 14.2 28.5 12.55 28.1 11 27.45 A .5 .5 0 0 0 11.67 26.97 C 11.65 26.55 11.63 26 11.6 25.5 C 11.53 25 11.5 24.6 11.3 24.24 C 11.07 23.76 10.6 23.55 10.3 23.4 C 9.95 23.3 9.7 23.17 9.7 23.2 C 9.7 23.17 9.5 22.9 9.36 22.56 C 9.2 22.23 9.06 21.85 8.9 21.5 C 8.7 21.16 8.5 20.94 8.4 20.8 C 8.36 20.8 8.36 20.8 8.35 20.8 C 8.35 20.8 8.34 20.8 8.36 20.76 C 8.4 20.7 8.5 20.47 8.5 20.23 C 8.5 20 8.4 19.8 8.37 19.7 C 8.4 19.7 8.4 19.7 8.4 19.7 C 8.5 19.6 8.65 19.45 8.8 19.3 C 8.97 19.1 9.13 18.9 9.23 18.6 C 9.34 18.3 9.35 17.96 9.2 17.6 C 9.16 17.5 9.1 17.4 9 17.3 C 9.1 17.3 9.23 17.3 9.33 17.25 C 9.43 17.2 9.5 17.17 9.63 17.1 C 9.7 17 9.8 16.9 9.84 16.75 C 9.86 16.74 9.9 16.73 9.95 16.7 C 10.07 16.7 10.25 16.67 10.5 16.7 z M 28.23 18.35 C 28.14 18.8 28.03 19.23 27.9 19.65 C 28.03 19.23 28.14 18.8 28.23 18.35 z M 25.14 24.4 C 25 24.6 24.83 24.8 24.63 25 C 24.83 24.8 25 24.6 25.14 24.4 z " fill="currentColor" opacity=".6"/></g><use href="#uIe" opacity=".4"></use><use fill="url(#uIc)" href="#uIe" opacity=".1"></use><path d="m 26,16 c -2,0 -4,2 -6,2 H 6 c -1.11,0 -2,.9 -2,2 v 34 c 0,1.1 .9,2 2,2 h 52 c 1.1,0 2,-.9 2,-2 V 18 c 0,-1.1 -.9,-2 -2,-2 z" fill="url(#uIb)" opacity=".2"/><path class="ColorScheme-Contrast" d="m 4,52 v 1 c 0,1.66 1.34,3 3,3 h 50 c 1.66,0 3,-1.34 3,-3 v -1 c 0,1.66 -1.34,3 -3,3 H 7 C 5.34,55 4,53.66 4,52 Z" fill="currentColor" opacity=".1"/><path class="ColorScheme-Contrast" d="M 4,52.5 V 53 c 0,1.66 1.34,3 3,3 h 50 c 1.66,0 3,-1.34 3,-3 v -0.5 c 0,1.66 -1.34,3 -3,3 H 7 c -1.66,0 -3,-1.34 -3,-3 z" fill="currentColor" opacity=".2"/><path d="m 27,16 c -3,0 -3,2 -7,2 H 7 c -1.66,0 -3,1.34 -3,3 v 1 c 0,-1.66 1.34,-3 3,-3 h 13 c 4,0 4,-2 7,-2 h 30 c 1.66,0 3,1.34 3,3 v -1 c 0,-1.66 -1.34,-3 -3,-3 z" fill="#fff" opacity=".1"/><path d="m 27,16 c -3,0 -3,2 -7,2 H 7 c -1.66,0 -3,1.34 -3,3 v 0.5 c 0,-1.66 1.34,-3 3,-3 h 13 c 4,0 4,-2 7,-2 h 30 c 1.66,0 3,1.34 3,3 V 19 c 0,-1.66 -1.34,-3 -3,-3 z" fill="#fff" opacity=".2"/><path d="m 27,15 c -3,0 -3,2 -7,2 H 7 v 1 h 13 c 4,0 4,-2 7,-2 h 30 v -1 z" opacity=".1"/><path d="m 27,15.5 c -3,0 -3,2 -7,2 H 7 V 18 h 13 c 4,0 4,-2 7,-2 h 30 v -0.5 z" opacity=".2"/></g>
</svg>