<svg height="64" version="1.1" width="64" xmlns="http://www.w3.org/2000/svg" xmlns:svg="http://www.w3.org/2000/svg" xmlns:xlink="http://www.w3.org/1999/xlink">
<defs id="primary-definitions">
<style id="current-color-scheme" type="text/css">
      .ColorScheme-Text           { color:#fff; }
      .ColorScheme-Background     { color:#111; }
      .ColorScheme-Highlight      { color:#3daefd; }
      .ColorScheme-ViewBackground { color:#000; }
      .ColorScheme-PositiveText   { color:#27ae60; }
      .ColorScheme-NeutralText    { color:#f67400; }
      .ColorScheme-NegativeText   { color:#da4453; }
    </style>
<style id="extended-color-scheme" type="text/css">
      .ExScheme-Black     { color:#3e3e3e; }
      .ExScheme-White     { color:#fcfcfc; }
      .ExScheme-Grey-1    { color:#cfd5d5; }
      .ExScheme-Grey-2    { color:#909c9c; }
      .ExScheme-Grey-3    { color:#536161; }
      .ExScheme-Red-1     { color:#ffafa5; }
      .ExScheme-Red-2     { color:#bf4231; }
      .ExScheme-Red-3     { color:#4d2f2b; }
      .ExScheme-Green-1   { color:#abf9c7; }
      .ExScheme-Green-2   { color:#3bb566; }
      .ExScheme-Green-3   { color:#377d50; }
      .ExScheme-Blue-1    { color:#abdaf9; }
      .ExScheme-Blue-2    { color:#3daefd; }
      .ExScheme-Blue-3    { color:#2b3c4d; }
      .ExScheme-Yellow-1  { color:#faffa5; }
      .ExScheme-Yellow-2  { color:#cac726; }
      .ExScheme-Yellow-3  { color:#4b4d2b; }
      .ExScheme-Orange-1  { color:#ffdaa5; }
      .ExScheme-Orange-2  { color:#ff9701; }
      .ExScheme-Orange-3  { color:#4d372b; }
      .ExScheme-Brown-1   { color:#e9d6bb; }
      .ExScheme-Brown-2   { color:#997657; }
      .ExScheme-Brown-3   { color:#433a35; }
      .ExScheme-Purple-1  { color:#e2abf9; }
      .ExScheme-Purple-2  { color:#b401ff; }
      .ExScheme-Purple-3  { color:#432b4d; }
      .ExScheme-Cyan-1    { color:#b2f2e6; }
      .ExScheme-Cyan-2    { color:#31bfa6; }
      .ExScheme-Cyan-3    { color:#2b4d47; }
      .ExScheme-Magenta-1 { color:#f8a6d8; }
      .ExScheme-Magenta-2 { color:#f00091; }
      .ExScheme-Magenta-3 { color:#770048; }
    </style>
<linearGradient id="uof">
<stop offset="0"/>
<stop offset="1" stop-opacity="0"/>
</linearGradient>
<linearGradient id="uog">
<stop offset="0" stop-color="#fff"/>
<stop offset="1" stop-color="#fff" stop-opacity="0"/>
</linearGradient>
<style class="toggle-enable-crease" type="text/css">
        .folder-crease { display: none; }
    </style><style class="toggle-manilla-folders" type="text/css">
        .folder-manilla { display: none; }
    </style><radialGradient cx=".5" cy="0" id="uoh" r="1" xlink:href="#uog"/><linearGradient id="uoi" xlink:href="#uof" y1="1" y2=".5"/><path d="M 10,8 C 8.34,8 7,9.34 7,11 v 7 c -1.66,0 -3,1.34 -3,3 v 32 c 0,1.66 1.34,3 3,3 h 50 c 1.66,0 3,-1.34 3,-3 V 26 21 19 c 0,-1.66 -1.34,-3 -3,-3 v -3 c 0,-1.66 -1.34,-3 -3,-3 H 28 C 24,10 24,8 21,8 Z" id="uoj"></path><path d="M 10,8 C 8.34,8 7,9.34 7,11 v 7 h 13 c 4,0 4,-2 7,-2 h 30 v -3 c 0,-1.66 -1.34,-3 -3,-3 H 28 C 24,10 24,8 21,8 Z" id="uok"></path></defs>
<g id="content" transform="translate(0,0)"><use class="folder-manilla ExScheme-Brown-1" fill="currentColor" href="#uoj"></use><use class="toggle-manilla-folders ColorScheme-Highlight" fill="currentColor" href="#uoj" id="primary-color"></use><use class="ColorScheme-Text" fill="currentColor" href="#uoj" opacity=".1"></use><g id="emblem" transform="translate(16,21)"><path class="ColorScheme-Background" d="M 19.27,1.75 17.8,4.1 C 17.2,4.04 16.6,4 16,4 15.4,4 14.8,4.05 14.2,4.13 L 12.75,1.8 C 11.5,2 10.3,2.4 9.14,2.9 L 9.34,5.7 C 8.3,6.3 7.3,7 6.44,7.8 L 3.9,6.77 C 3,7.7 2.3,8.74 1.66,9.84 L 2,12 c 0,0 0,3.9 0,6 v 4 l 6,1 v 2 h 5 v -2 h 6 v 2 h 5 v -2 l 6,-1 v -4 c -5.12e-4,-2.1 0,-6 0,-6 L 30.37,9.8 C 29.75,8.7 29,7.7 28.15,6.76 L 25.6,7.8 C 24.7,6.97 23.7,6.26 22.66,5.7 L 22.86,2.9 C 21.7,2.4 20.5,2 19.27,1.75 Z M 9.5,13 C 11.43,13 13,14.57 13,16.5 13,18.43 11.43,20 9.5,20 7.57,20 6,18.43 6,16.5 6,14.57 7.57,13 9.5,13 Z m 13,0 C 24.43,13 26,14.57 26,16.5 26,18.43 24.43,20 22.5,20 20.57,20 19,18.43 19,16.5 19,14.57 20.57,13 22.5,13 Z M 10,14.5 c -1.1,0 -2,.9 -2,2 0,1.1 .9,2 2,2 1.1,0 2,-.9 2,-2 0,-1.1 -.9,-2 -2,-2 z m 12,0 c -1.1,0 -2,.9 -2,2 0,1.1 .9,2 2,2 1.1,0 2,-.9 2,-2 0,-1.1 -.9,-2 -2,-2 z M 16,15 c .55,0 1,.45 1,1 v 3 c 0,.55 -.45,1 -1,1 -.55,0 -1,-.45 -1,-1 v -3 c 0,-.55 .45,-1 1,-1 z M 2,23 c 0,4 3,7 14,7 11,0 14,-3 14,-7 l -5,1 v 2 h -7 v -2 h -4 v 2 H 7 v -2 z" fill="currentColor" opacity=".6"/><path class="ColorScheme-Background" d="M 19.27,1.75 17.8,4.1 C 17.2,4.04 16.6,4 16,4 15.4,4 14.8,4.05 14.2,4.13 L 12.75,1.8 C 11.5,2 10.3,2.4 9.14,2.9 L 9.34,5.7 C 8.3,6.3 7.3,7 6.44,7.8 L 3.9,6.77 C 3,7.7 2.3,8.74 1.66,9.84 L 2,12 c 0,0 0,3.9 0,6 v 4 l 6,1 v 2 h 5 v -2 h 6 v 2 h 5 v -2 l 6,-1 v -4 c -5.12e-4,-2.1 0,-6 0,-6 L 30.37,9.8 C 29.75,8.7 29,7.7 28.15,6.76 L 25.6,7.8 C 24.7,6.97 23.7,6.26 22.66,5.7 L 22.86,2.9 C 21.7,2.4 20.5,2 19.27,1.75 Z m .2,.6 c .97,.2 1.93,.53 2.84,.93 l -.17,2.4 c -0,.2 .1,.4 .26,.47 1,.55 1.97,1.24 2.8,2.04 .14,.13 .35,.17 .53,.1 l 2.2,-.9 c .7,.8 1.34,1.65 1.87,2.56 L 29.5,11.9 C 29.5,11.95 29.5,11.97 29.5,12 c 0,0 -5.12e-4,3.9 0,6 v 3.5 l -5.5,1 c -.3,2.8e-5 -.5,.2 -0.5,0.5 v 1.5 h -4 V 23 c -2.8e-5,-.3 -.2,-.5 -0.5,-0.5 h -6 c -.3,2.8e-5 -.5,.2 -0.5,0.5 v 1.5 h -4 V 23 C 8.5,22.7 8.3,22.5 8,22.5 l -5.5,-1 V 18 18 c 0,-2.1 0,-6 0,-6 9.3e-5,-.03 -0,-.05 -0,-.1 L 2.2,9.96 C 2.7,9.04 3.35,8.2 4.05,7.4 L 6.26,8.27 C 6.44,8.34 6.64,8.3 6.8,8.17 7.63,7.4 8.57,6.7 9.6,6.16 9.75,6.07 9.86,5.9 9.84,5.7 L 9.67,3.27 C 10.6,2.9 11.55,2.6 12.53,2.37 l 1.26,2 C 13.9,4.56 14.1,4.65 14.3,4.6 14.85,4.55 15.4,4.5 16,4.5 c .6,0 1.16,.04 1.73,.1 .2,.03 .4,-.07 .5,-.23 z M 9.5,12.5 c -2.2,0 -4,1.8 -4,4 0,2.2 1.8,4 4,4 2.2,0 4,-1.8 4,-4 0,-2.2 -1.8,-4 -4,-4 z m 13,0 c -2.2,0 -4,1.8 -4,4 0,2.2 1.8,4 4,4 2.2,0 4,-1.8 4,-4 0,-2.2 -1.8,-4 -4,-4 z M 9.5,13 C 11.43,13 13,14.57 13,16.5 13,18.43 11.43,20 9.5,20 7.57,20 6,18.43 6,16.5 6,14.57 7.57,13 9.5,13 Z m 13,0 C 24.43,13 26,14.57 26,16.5 26,18.43 24.43,20 22.5,20 20.57,20 19,18.43 19,16.5 19,14.57 20.57,13 22.5,13 Z M 10,14.5 c -1.1,0 -2,.9 -2,2 0,1.1 .9,2 2,2 1.1,0 2,-.9 2,-2 0,-1.1 -.9,-2 -2,-2 z m 6,0 c -.8,0 -1.5,.7 -1.5,1.5 v 3 c 0,.8 .7,1.5 1.5,1.5 .8,0 1.5,-.7 1.5,-1.5 v -3 c 0,-.8 -.7,-1.5 -1.5,-1.5 z m 6,0 c -1.1,0 -2,.9 -2,2 0,1.1 .9,2 2,2 1.1,0 2,-.9 2,-2 0,-1.1 -.9,-2 -2,-2 z M 10,15 c .83,0 1.5,.67 1.5,1.5 C 11.5,17.33 10.83,18 10,18 9.17,18 8.5,17.33 8.5,16.5 8.5,15.67 9.17,15 10,15 Z m 6,0 c .55,0 1,.45 1,1 v 3 c 0,.55 -.45,1 -1,1 -.55,0 -1,-.45 -1,-1 v -3 c 0,-.55 .45,-1 1,-1 z m 6,0 c .83,0 1.5,.67 1.5,1.5 0,.83 -.67,1.5 -1.5,1.5 -.83,0 -1.5,-.67 -1.5,-1.5 0,-.83 .67,-1.5 1.5,-1.5 z M 2,23 c 0,4 3,7 14,7 11,0 14,-3 14,-7 l -5,1 v 2 h -7 v -2 h -4 v 2 H 7 V 24 Z M 2.6,23.5 6.5,24.5 V 26 c 2.76e-5,.3 .2,.5 0.5,0.5 h 7 c .3,-2.8e-5 .5,-.2 0.5,-0.5 v -1.5 h 3 V 26 c 2.8e-5,.3 .2,.5 0.5,0.5 h 7 c .3,-2.8e-5 .5,-.2 0.5,-0.5 v -1.5 l 3.9,-1 c -.1,1.63 -.7,3 -2.5,4.07 C 24.9,28.74 21.45,29.5 16,29.5 10.55,29.5 7.1,28.74 5.13,27.57 3.33,26.5 2.73,25.13 2.6,23.5 Z" fill="currentColor" opacity=".6"/></g><use href="#uok" opacity=".4"></use><use class="toggle-flat-design" fill="url(#uoi)" href="#uok" opacity=".1"></use><path class="toggle-flat-design" d="m 26,16 c -2,0 -4,2 -6,2 H 6 c -1.11,0 -2,.9 -2,2 v 34 c 0,1.1 .9,2 2,2 h 52 c 1.1,0 2,-.9 2,-2 V 18 c 0,-1.1 -.9,-2 -2,-2 z" fill="url(#uoh)" opacity=".2"/><path class="folder-crease " d="m 4,44 v 2 h 9 c .55,0 1,-.45 1,-1 0,-.55 -.45,-1 -1,-1 z m 47,0 c -.55,0 -1,.45 -1,1 0,.55 .45,1 1,1 h 9 v -2 z" opacity=".4"/><path class="ColorScheme-Text" d="m 4,52 v 1 c 0,1.66 1.34,3 3,3 h 50 c 1.66,0 3,-1.34 3,-3 v -1 c 0,1.66 -1.34,3 -3,3 H 7 C 5.34,55 4,53.66 4,52 Z" fill="currentColor" opacity=".1"/><path class="ColorScheme-Text" d="M 4,52.5 V 53 c 0,1.66 1.34,3 3,3 h 50 c 1.66,0 3,-1.34 3,-3 v -0.5 c 0,1.66 -1.34,3 -3,3 H 7 c -1.66,0 -3,-1.34 -3,-3 z" fill="currentColor" opacity=".2"/><path d="m 27,16 c -3,0 -3,2 -7,2 H 7 c -1.66,0 -3,1.34 -3,3 v 1 c 0,-1.66 1.34,-3 3,-3 h 13 c 4,0 4,-2 7,-2 h 30 c 1.66,0 3,1.34 3,3 v -1 c 0,-1.66 -1.34,-3 -3,-3 z" fill="#fff" opacity=".1"/><path d="m 27,16 c -3,0 -3,2 -7,2 H 7 c -1.66,0 -3,1.34 -3,3 v 0.5 c 0,-1.66 1.34,-3 3,-3 h 13 c 4,0 4,-2 7,-2 h 30 c 1.66,0 3,1.34 3,3 V 19 c 0,-1.66 -1.34,-3 -3,-3 z" fill="#fff" opacity=".2"/><path d="m 27,15 c -3,0 -3,2 -7,2 H 7 v 1 h 13 c 4,0 4,-2 7,-2 h 30 v -1 z" opacity=".1"/><path d="m 27,15.5 c -3,0 -3,2 -7,2 H 7 V 18 h 13 c 4,0 4,-2 7,-2 h 30 v -0.5 z" opacity=".2"/></g>
</svg>