<svg height="64" version="1.1" width="64" xmlns="http://www.w3.org/2000/svg" xmlns:svg="http://www.w3.org/2000/svg" xmlns:xlink="http://www.w3.org/1999/xlink">
<defs id="primary-definitions">
<style id="current-color-scheme" type="text/css">
      .ColorScheme-Text           { color:#fff; }
      .ColorScheme-Background     { color:#111; }
      .ColorScheme-Highlight      { color:#3daefd; }
      .ColorScheme-ViewBackground { color:#000; }
      .ColorScheme-PositiveText   { color:#27ae60; }
      .ColorScheme-NeutralText    { color:#f67400; }
      .ColorScheme-NegativeText   { color:#da4453; }
    </style>
<style id="extended-color-scheme" type="text/css">
      .ExScheme-Black     { color:#3e3e3e; }
      .ExScheme-White     { color:#fcfcfc; }
      .ExScheme-Grey-1    { color:#cfd5d5; }
      .ExScheme-Grey-2    { color:#909c9c; }
      .ExScheme-Grey-3    { color:#536161; }
      .ExScheme-Red-1     { color:#ffafa5; }
      .ExScheme-Red-2     { color:#bf4231; }
      .ExScheme-Red-3     { color:#4d2f2b; }
      .ExScheme-Green-1   { color:#abf9c7; }
      .ExScheme-Green-2   { color:#3bb566; }
      .ExScheme-Green-3   { color:#377d50; }
      .ExScheme-Blue-1    { color:#abdaf9; }
      .ExScheme-Blue-2    { color:#3daefd; }
      .ExScheme-Blue-3    { color:#2b3c4d; }
      .ExScheme-Yellow-1  { color:#faffa5; }
      .ExScheme-Yellow-2  { color:#cac726; }
      .ExScheme-Yellow-3  { color:#4b4d2b; }
      .ExScheme-Orange-1  { color:#ffdaa5; }
      .ExScheme-Orange-2  { color:#ff9701; }
      .ExScheme-Orange-3  { color:#4d372b; }
      .ExScheme-Brown-1   { color:#e9d6bb; }
      .ExScheme-Brown-2   { color:#997657; }
      .ExScheme-Brown-3   { color:#433a35; }
      .ExScheme-Purple-1  { color:#e2abf9; }
      .ExScheme-Purple-2  { color:#b401ff; }
      .ExScheme-Purple-3  { color:#432b4d; }
      .ExScheme-Cyan-1    { color:#b2f2e6; }
      .ExScheme-Cyan-2    { color:#31bfa6; }
      .ExScheme-Cyan-3    { color:#2b4d47; }
      .ExScheme-Magenta-1 { color:#f8a6d8; }
      .ExScheme-Magenta-2 { color:#f00091; }
      .ExScheme-Magenta-3 { color:#770048; }
    </style>
<linearGradient id="udc">
<stop offset="0"/>
<stop offset="1" stop-opacity="0"/>
</linearGradient>
<linearGradient id="udd">
<stop offset="0" stop-color="#fff"/>
<stop offset="1" stop-color="#fff" stop-opacity="0"/>
</linearGradient>
<style class="toggle-enable-crease" type="text/css">
        .folder-crease { display: none; }
    </style><style class="toggle-manilla-folders" type="text/css">
        .folder-manilla { display: none; }
    </style><radialGradient cx=".5" cy="0" id="ude" r="1" xlink:href="#udd"/><linearGradient id="udf" xlink:href="#udc" y1="1" y2=".5"/><path d="M 10,8 C 8.34,8 7,9.34 7,11 v 7 c -1.66,0 -3,1.34 -3,3 v 32 c 0,1.66 1.34,3 3,3 h 50 c 1.66,0 3,-1.34 3,-3 V 26 21 19 c 0,-1.66 -1.34,-3 -3,-3 v -3 c 0,-1.66 -1.34,-3 -3,-3 H 28 C 24,10 24,8 21,8 Z" id="udg"></path><path d="M 10,8 C 8.34,8 7,9.34 7,11 v 7 h 13 c 4,0 4,-2 7,-2 h 30 v -3 c 0,-1.66 -1.34,-3 -3,-3 H 28 C 24,10 24,8 21,8 Z" id="udh"></path></defs>
<g id="content" transform="translate(0,0)"><use class="folder-manilla ExScheme-Brown-1" fill="currentColor" href="#udg"></use><use class="toggle-manilla-folders ColorScheme-Highlight" fill="currentColor" href="#udg" id="primary-color"></use><use class="ColorScheme-Text" fill="currentColor" href="#udg" opacity=".1"></use><g id="emblem" transform="translate(16,21)"><path class="ColorScheme-Background" d="M 16,4 A 12,4 0 0 0 4,8 v 4 a 12,4 0 0 0 12,4 12,4 0 0 0 12,-4 V 8 A 12,4 0 0 0 16,4 Z M 4,15.35 V 18 a 12,4 0 0 0 12,4 12,4 0 0 0 12,-4 v -2.65 c -.8,.6 -1.8,1 -2.9,1.4 C 22.66,17.55 19.5,18 16,18 12.5,18 9.34,17.55 6.9,16.73 5.8,16.36 4.8,15.93 4,15.35 Z m 0,6 V 24 a 12,4 0 0 0 12,4 12,4 0 0 0 12,-4 v -2.65 c -.8,.6 -1.8,1 -2.9,1.4 C 22.66,23.55 19.5,24 16,24 12.5,24 9.34,23.55 6.9,22.73 5.8,22.36 4.8,21.93 4,21.35 Z" fill="currentColor" opacity=".6" stop-color="#000000"/><path class="ColorScheme-Background" d="M 16 4 A 12 4 0 0 0 4 8 L 4 12 A 12 4 0 0 0 16 16 A 12 4 0 0 0 28 12 L 28 8 A 12 4 0 0 0 16 4 z M 16 4.5 C 19.27 4.5 22.23 4.95 24.33 5.65 C 25.4 6 26.2 6.4 26.75 6.84 C 27.3 7.26 27.5 7.65 27.5 8 L 27.5 12 C 27.5 12.35 27.3 12.74 26.75 13.16 C 26.2 13.6 25.4 14 24.33 14.35 C 22.23 15.05 19.27 15.5 16 15.5 C 12.73 15.5 9.77 15.05 7.67 14.35 C 6.6 14 5.8 13.6 5.25 13.16 C 4.7 12.74 4.5 12.35 4.5 12 L 4.5 8 C 4.5 7.65 4.7 7.26 5.25 6.84 C 5.8 6.4 6.6 6 7.67 5.65 C 9.77 4.95 12.73 4.5 16 4.5 z M 4 15.35 L 4 18 A 12 4 0 0 0 16 22 A 12 4 0 0 0 28 18 L 28 15.35 C 27.2 15.93 26.2 16.36 25.1 16.73 C 22.66 17.55 19.5 18 16 18 C 12.5 18 9.34 17.55 6.9 16.73 C 5.8 16.36 4.8 15.93 4 15.35 z M 4.5 16.14 C 5.2 16.53 5.9 16.9 6.7 17.2 C 9.26 18.04 12.46 18.5 16 18.5 C 19.54 18.5 22.74 18.04 25.3 17.2 C 26.1 16.9 26.8 16.53 27.5 16.14 L 27.5 18 C 27.5 18.35 27.3 18.74 26.75 19.16 C 26.2 19.6 25.4 20 24.33 20.35 C 22.23 21.05 19.27 21.5 16 21.5 C 12.73 21.5 9.77 21.05 7.67 20.35 C 6.6 20 5.8 19.6 5.25 19.16 C 4.7 18.74 4.5 18.35 4.5 18 L 4.5 16.14 z M 4 21.35 L 4 24 A 12 4 0 0 0 16 28 A 12 4 0 0 0 28 24 L 28 21.35 C 27.2 21.93 26.2 22.36 25.1 22.73 C 22.66 23.55 19.5 24 16 24 C 12.5 24 9.34 23.55 6.9 22.73 C 5.8 22.36 4.8 21.93 4 21.35 z M 4.5 22.14 C 5.2 22.53 5.9 22.9 6.7 23.2 C 9.26 24.04 12.46 24.5 16 24.5 C 19.54 24.5 22.74 24.04 25.3 23.2 C 26.1 22.9 26.8 22.53 27.5 22.14 L 27.5 24 C 27.5 24.35 27.3 24.74 26.75 25.16 C 26.2 25.6 25.4 26 24.33 26.35 C 22.23 27.05 19.27 27.5 16 27.5 C 12.73 27.5 9.77 27.05 7.67 26.35 C 6.6 26 5.8 25.6 5.25 25.16 C 4.7 24.74 4.5 24.35 4.5 24 L 4.5 22.14 z " fill="currentColor" opacity=".6"/></g><use href="#udh" opacity=".4"></use><use class="toggle-flat-design" fill="url(#udf)" href="#udh" opacity=".1"></use><path class="toggle-flat-design" d="m 26,16 c -2,0 -4,2 -6,2 H 6 c -1.11,0 -2,.9 -2,2 v 34 c 0,1.1 .9,2 2,2 h 52 c 1.1,0 2,-.9 2,-2 V 18 c 0,-1.1 -.9,-2 -2,-2 z" fill="url(#ude)" opacity=".2"/><path class="folder-crease " d="m 4,44 v 2 h 9 c .55,0 1,-.45 1,-1 0,-.55 -.45,-1 -1,-1 z m 47,0 c -.55,0 -1,.45 -1,1 0,.55 .45,1 1,1 h 9 v -2 z" opacity=".4"/><path class="ColorScheme-Text" d="m 4,52 v 1 c 0,1.66 1.34,3 3,3 h 50 c 1.66,0 3,-1.34 3,-3 v -1 c 0,1.66 -1.34,3 -3,3 H 7 C 5.34,55 4,53.66 4,52 Z" fill="currentColor" opacity=".1"/><path class="ColorScheme-Text" d="M 4,52.5 V 53 c 0,1.66 1.34,3 3,3 h 50 c 1.66,0 3,-1.34 3,-3 v -0.5 c 0,1.66 -1.34,3 -3,3 H 7 c -1.66,0 -3,-1.34 -3,-3 z" fill="currentColor" opacity=".2"/><path d="m 27,16 c -3,0 -3,2 -7,2 H 7 c -1.66,0 -3,1.34 -3,3 v 1 c 0,-1.66 1.34,-3 3,-3 h 13 c 4,0 4,-2 7,-2 h 30 c 1.66,0 3,1.34 3,3 v -1 c 0,-1.66 -1.34,-3 -3,-3 z" fill="#fff" opacity=".1"/><path d="m 27,16 c -3,0 -3,2 -7,2 H 7 c -1.66,0 -3,1.34 -3,3 v 0.5 c 0,-1.66 1.34,-3 3,-3 h 13 c 4,0 4,-2 7,-2 h 30 c 1.66,0 3,1.34 3,3 V 19 c 0,-1.66 -1.34,-3 -3,-3 z" fill="#fff" opacity=".2"/><path d="m 27,15 c -3,0 -3,2 -7,2 H 7 v 1 h 13 c 4,0 4,-2 7,-2 h 30 v -1 z" opacity=".1"/><path d="m 27,15.5 c -3,0 -3,2 -7,2 H 7 V 18 h 13 c 4,0 4,-2 7,-2 h 30 v -0.5 z" opacity=".2"/></g>
</svg>