<svg height="64" version="1.1" width="64" xmlns="http://www.w3.org/2000/svg" xmlns:svg="http://www.w3.org/2000/svg" xmlns:xlink="http://www.w3.org/1999/xlink">
<defs id="primary-definitions">
<style id="current-color-scheme" type="text/css">
      .ColorScheme-Text         { color: #232629; }
      .ColorScheme-Background   { color: #eff0f1; }
      .ColorScheme-Highlight    { color: #7ec9f0; }
      .ColorScheme-PositiveText { color: #27ae60; }
      .ColorScheme-NeutralText  { color: #f67400; }
      .ColorScheme-NegativeText { color: #da4453; }
      .ColorScheme-ActiveText   { color: #3daee9; }
      .ColorScheme-Complement   { color: #ffffff; }
      .ColorScheme-Contrast     { color: #000000; }
    </style>
<style id="extended-color-scheme" type="text/css">
      .ExScheme-Black     { color:#3e3e3e; }
      .ExScheme-White     { color:#fcfcfc; }
      .ExScheme-Grey-1    { color:#cfd5d5; }
      .ExScheme-Grey-2    { color:#909c9c; }
      .ExScheme-Grey-3    { color:#536161; }
      .ExScheme-Red-1     { color:#ffafa5; }
      .ExScheme-Red-2     { color:#bf4231; }
      .ExScheme-Red-3     { color:#4d2f2b; }
      .ExScheme-Green-1   { color:#abf9c7; }
      .ExScheme-Green-2   { color:#3bb566; }
      .ExScheme-Green-3   { color:#377d50; }
      .ExScheme-Blue-1    { color:#abdaf9; }
      .ExScheme-Blue-2    { color:#3daefd; }
      .ExScheme-Blue-3    { color:#2b3c4d; }
      .ExScheme-Yellow-1  { color:#faffa5; }
      .ExScheme-Yellow-2  { color:#cac726; }
      .ExScheme-Yellow-3  { color:#4b4d2b; }
      .ExScheme-Orange-1  { color:#ffdaa5; }
      .ExScheme-Orange-2  { color:#ff9701; }
      .ExScheme-Orange-3  { color:#4d372b; }
      .ExScheme-Brown-1   { color:#e9d6bb; }
      .ExScheme-Brown-2   { color:#997657; }
      .ExScheme-Brown-3   { color:#433a35; }
      .ExScheme-Purple-1  { color:#e2abf9; }
      .ExScheme-Purple-2  { color:#b401ff; }
      .ExScheme-Purple-3  { color:#432b4d; }
      .ExScheme-Cyan-1    { color:#b2f2e6; }
      .ExScheme-Cyan-2    { color:#31bfa6; }
      .ExScheme-Cyan-3    { color:#2b4d47; }
      .ExScheme-Magenta-1 { color:#f8a6d8; }
      .ExScheme-Magenta-2 { color:#f00091; }
      .ExScheme-Magenta-3 { color:#770048; }
    </style>
<linearGradient id="uvN">
<stop offset="0"/>
<stop offset="1" stop-opacity="0"/>
</linearGradient>
<linearGradient id="uvO">
<stop offset="0" stop-color="#fff"/>
<stop offset="1" stop-color="#fff" stop-opacity="0"/>
</linearGradient>
<style id="uvP" type="text/css">
        .force-display-for-editing { display: inline !important; }
    </style><style class="remove-if__show-crease" type="text/css">
        .enable-if__show-crease { display: none; }
    </style><style class="remove-if__color-sync-mimes-places" type="text/css">
        .enable-if__color-sync-mimes-places { display: none; }
    </style><radialGradient cx=".5" cy="0" id="uvQ" r="1" xlink:href="#uvO"/><linearGradient id="uvR" xlink:href="#uvN" y1="1" y2=".5"/><style class="ColorScheme-Background" fill="currentColor" opacity=".6" type="text/css">
   .ColorScheme-Text           { color:#eff0f1; }
      .ColorScheme-Background     { color:#31363b; }
      .ColorScheme-Highlight      { color:#3daefd; }
      .ColorScheme-ViewBackground { color:#fcfcfc; }
      .ColorScheme-PositiveText   { color:#27ae60; }
      .ColorScheme-NeutralText    { color:#f67400; }
      .ColorScheme-NegativeText   { color:#da4453; }
  </style><path d="M 10,8 C 8.34,8 7,9.34 7,11 v 7 c -1.66,0 -3,1.34 -3,3 v 32 c 0,1.66 1.34,3 3,3 h 50 c 1.66,0 3,-1.34 3,-3 V 26 21 19 c 0,-1.66 -1.34,-3 -3,-3 v -3 c 0,-1.66 -1.34,-3 -3,-3 H 28 C 24,10 24,8 21,8 Z" id="uvS"></path><path d="M 10,8 C 8.34,8 7,9.34 7,11 v 7 h 13 c 4,0 4,-2 7,-2 h 30 v -3 c 0,-1.66 -1.34,-3 -3,-3 H 28 C 24,10 24,8 21,8 Z" id="uvT"></path></defs>
<g id="content" transform="translate(0,0)"><use class="sync-color enable-if__color-sync-mimes-places force-display-for-editing ColorScheme-ActiveText" fill="currentColor" href="#uvS"></use><use class="primary-color remove-if__color-sync-mimes-places ColorScheme-ActiveText" fill="#ff8b23" href="#uvS"></use><use class="ColorScheme-Contrast" fill="currentColor" href="#uvS" opacity=".1"></use><g id="decal" transform="translate(16,21)"><path class="ColorScheme-Background" d="M 15.5,1 C 15.2,1 15,1.2 15,1.5 v 6 C 15,7.8 15.2,8 15.5,8 15.8,8 16,7.8 16,7.5 v -6 C 16,1.2 15.8,1 15.5,1 Z m 6,2 C 21.2,3 21,3.2 21,3.5 v 3 C 21,6.8 21.2,7 21.5,7 21.8,7 22,6.8 22,6.5 v -3 C 22,3.2 21.8,3 21.5,3 Z M 9.5,5 C 9.2,5 9,5.2 9,5.5 v 4 C 9,9.8 9.2,10 9.5,10 9.8,10 10,9.8 10,9.5 v -4 C 10,5.2 9.8,5 9.5,5 Z m -4,6 C 5.2,11 5,11.2 5,11.5 V 21 c 0,2 3,6 7,6 H 5.5 C 5.2,27 5,27.2 5,27.5 5,27.8 5.2,28 5.5,28 h 21 C 26.8,28 27,27.8 27,27.5 27,27.2 26.8,27 26.5,27 H 20 c 4,0 7,-4 7,-6 h 1 c 1.1,0 2,-.9 2,-2 v -5 c 0,-1.1 -.9,-2 -2,-2 H 27 V 11.5 C 27,11.2 26.8,11 26.5,11 Z M 27,13 h 1 c .55,0 1,.45 1,1 v 5 c 0,.55 -.45,1 -1,1 h -1 z" fill="currentColor" opacity=".6" stop-color="#000000"/><path class="ColorScheme-Background" d="M 15.5,1 C 15.2,1 15,1.2 15,1.5 v 6 C 15,7.8 15.2,8 15.5,8 15.8,8 16,7.8 16,7.5 v -6 C 16,1.2 15.8,1 15.5,1 Z m 6,2 C 21.2,3 21,3.2 21,3.5 v 3 C 21,6.8 21.2,7 21.5,7 21.8,7 22,6.8 22,6.5 v -3 C 22,3.2 21.8,3 21.5,3 Z M 9.5,5 C 9.2,5 9,5.2 9,5.5 v 4 C 9,9.8 9.2,10 9.5,10 9.8,10 10,9.8 10,9.5 v -4 C 10,5.2 9.8,5 9.5,5 Z m -4,6 C 5.2,11 5,11.2 5,11.5 V 21 c 0,2 3,6 7,6 H 5.5 C 5.2,27 5,27.2 5,27.5 5,27.8 5.2,28 5.5,28 h 21 C 26.8,28 27,27.8 27,27.5 27,27.2 26.8,27 26.5,27 H 20 c 4,0 7,-4 7,-6 h 1 c 1.1,0 2,-.9 2,-2 v -5 c 0,-1.1 -.9,-2 -2,-2 H 27 V 11.5 C 27,11.2 26.8,11 26.5,11 Z m 0,0.5 h 21 c 0,0 2.8e-5,9.2 0,9.5 0,.75 -.67,2.2 -1.85,3.4 C 23.47,25.6 21.83,26.5 20,26.5 c -.27,0 -7.34,0 -8,0 -1.83,0 -3.47,-.9 -4.65,-2.1 C 6.17,23.2 5.5,21.75 5.5,21 Z M 27,13 h 1 c .55,0 1,.45 1,1 v 5 c 0,.55 -.45,1 -1,1 h -1 z" fill="currentColor" opacity=".6"/></g><use href="#uvT" opacity=".4"></use><use fill="url(#uvR)" href="#uvT" opacity=".1"></use><path d="m 26,16 c -2,0 -4,2 -6,2 H 6 c -1.11,0 -2,.9 -2,2 v 34 c 0,1.1 .9,2 2,2 h 52 c 1.1,0 2,-.9 2,-2 V 18 c 0,-1.1 -.9,-2 -2,-2 z" fill="url(#uvQ)" opacity=".2"/><path class="ColorScheme-Contrast" d="m 4,52 v 1 c 0,1.66 1.34,3 3,3 h 50 c 1.66,0 3,-1.34 3,-3 v -1 c 0,1.66 -1.34,3 -3,3 H 7 C 5.34,55 4,53.66 4,52 Z" fill="currentColor" opacity=".1"/><path class="ColorScheme-Contrast" d="M 4,52.5 V 53 c 0,1.66 1.34,3 3,3 h 50 c 1.66,0 3,-1.34 3,-3 v -0.5 c 0,1.66 -1.34,3 -3,3 H 7 c -1.66,0 -3,-1.34 -3,-3 z" fill="currentColor" opacity=".2"/><path d="m 27,16 c -3,0 -3,2 -7,2 H 7 c -1.66,0 -3,1.34 -3,3 v 1 c 0,-1.66 1.34,-3 3,-3 h 13 c 4,0 4,-2 7,-2 h 30 c 1.66,0 3,1.34 3,3 v -1 c 0,-1.66 -1.34,-3 -3,-3 z" fill="#fff" opacity=".1"/><path d="m 27,16 c -3,0 -3,2 -7,2 H 7 c -1.66,0 -3,1.34 -3,3 v 0.5 c 0,-1.66 1.34,-3 3,-3 h 13 c 4,0 4,-2 7,-2 h 30 c 1.66,0 3,1.34 3,3 V 19 c 0,-1.66 -1.34,-3 -3,-3 z" fill="#fff" opacity=".2"/><path d="m 27,15 c -3,0 -3,2 -7,2 H 7 v 1 h 13 c 4,0 4,-2 7,-2 h 30 v -1 z" opacity=".1"/><path d="m 27,15.5 c -3,0 -3,2 -7,2 H 7 V 18 h 13 c 4,0 4,-2 7,-2 h 30 v -0.5 z" opacity=".2"/></g>
</svg>