<?xml version="1.0" encoding="utf-8"?><svg height="64" width="64" xmlns="http://www.w3.org/2000/svg" xmlns:svg="http://www.w3.org/2000/svg" xmlns:xlink="http://www.w3.org/1999/xlink"><defs id="primary-definitions"><style id="current-color-scheme" type="text/css">.ColorScheme-Text           { color:#fff; }
      .ColorScheme-Background     { color:#111; }
      .ColorScheme-Highlight      { color:#3daefd; }
      .ColorScheme-ViewBackground { color:#000; }
      .ColorScheme-PositiveText   { color:#27ae60; }
      .ColorScheme-NeutralText    { color:#f67400; }
      .ColorScheme-NegativeText   { color:#da4453; }
  </style><style id="extended-color-scheme" type="text/css">.ExScheme-Black     { color:#3e3e3e; }
      .ExScheme-White     { color:#fcfcfc; }
      .ExScheme-Grey-1    { color:#cfd5d5; }
      .ExScheme-Grey-2    { color:#909c9c; }
      .ExScheme-Grey-3    { color:#536161; }
      .ExScheme-Red-1     { color:#ffafa5; }
      .ExScheme-Red-2     { color:#bf4231; }
      .ExScheme-Red-3     { color:#4d2f2b; }
      .ExScheme-Green-1   { color:#abf9c7; }
      .ExScheme-Green-2   { color:#3bb566; }
      .ExScheme-Green-3   { color:#377d50; }
      .ExScheme-Blue-1    { color:#abdaf9; }
      .ExScheme-Blue-2    { color:#3daefd; }
      .ExScheme-Blue-3    { color:#2b3c4d; }
      .ExScheme-Yellow-1  { color:#faffa5; }
      .ExScheme-Yellow-2  { color:#cac726; }
      .ExScheme-Yellow-3  { color:#4b4d2b; }
      .ExScheme-Orange-1  { color:#ffdaa5; }
      .ExScheme-Orange-2  { color:#ff9701; }
      .ExScheme-Orange-3  { color:#4d372b; }
      .ExScheme-Brown-1   { color:#e9d6bb; }
      .ExScheme-Brown-2   { color:#997657; }
      .ExScheme-Brown-3   { color:#433a35; }
      .ExScheme-Purple-1  { color:#e2abf9; }
      .ExScheme-Purple-2  { color:#b401ff; }
      .ExScheme-Purple-3  { color:#432b4d; }
      .ExScheme-Cyan-1    { color:#b2f2e6; }
      .ExScheme-Cyan-2    { color:#31bfa6; }
      .ExScheme-Cyan-3    { color:#2b4d47; }
      .ExScheme-Magenta-1 { color:#f8a6d8; }
      .ExScheme-Magenta-2 { color:#f00091; }
      .ExScheme-Magenta-3 { color:#770048; }
  </style><linearGradient id="gradientDark"><stop offset="0"/><stop offset="1" stop-opacity="0"/></linearGradient><linearGradient id="gradientLight"><stop offset="0" stop-color="#fff"/><stop offset="1" stop-color="#fff" stop-opacity="0"/></linearGradient><style class="toggle-enable-crease" type="text/css">.folder-crease { display: none; }
  </style><style class="toggle-manilla-folders" type="text/css">.folder-manilla { display: none; }
  </style><radialGradient cx=".5" cy="0" id="gl1" r="1" xlink:href="#gradientLight"/><linearGradient id="gd1" xlink:href="#gradientDark" y1="1" y2=".5"/><path d="M 10,8 C 8.338,8 7,9.338 7,11 v 7 c -1.662,0 -3,1.338 -3,3 v 32 c 0,1.662 1.338,3 3,3 h 50 c 1.662,0 3,-1.338 3,-3 V 26 21 19 c 0,-1.662 -1.338,-3 -3,-3 v -3 c 0,-1.662 -1.338,-3 -3,-3 H 28 C 24,10 24,8 21,8 Z" id="use-path-aN"/><path d="M 10,8 C 8.338,8 7,9.338 7,11 v 7 h 13 c 4,0 4,-2 7,-2 h 30 v -3 c 0,-1.662 -1.338,-3 -3,-3 H 28 C 24,10 24,8 21,8 Z" id="use-path-aO"/></defs><g id="content"><use class="folder-manilla ExScheme-Brown-1" fill="currentColor" href="#use-path-aN"/><use class="toggle-manilla-folders ColorScheme-Highlight" fill="currentColor" href="#use-path-aN" id="primary-color"/><use class="ColorScheme-Text" fill="currentColor" href="#use-path-aN" opacity=".1"/><g id="panorama" transform="translate(4,16)"><path class="ColorScheme-Background" d="M 56 11.943 C 50.817 14.402 45.88 17.204 41 20.172 L 41 21.348 C 45.9 18.356 50.832 15.53 56 13.05 L 56 11.943 z M 56 17.545 C 50.61 20.24 45.463 23.29 40.332 26.48 C 39.517 27.895 38.03 28.875 36.316 28.984 C 34.56 30.095 32.79 31.212 31.023 32.334 C 26.933 34.918 22.756 37.503 18.39 40 L 20.365 40 C 24.204 37.76 27.93 35.47 31.557 33.18 C 39.745 28.008 47.596 22.903 56 18.662 L 56 17.545 z M 56 23.19 C 48.21 27.268 40.87 32.037 33.273 36.834 C 31.6 37.892 29.897 38.947 28.19 40 L 30.08 40 C 31.324 39.226 32.58 38.454 33.807 37.68 C 41.263 32.97 48.433 28.31 56 24.312 L 56 23.19 z M 31.48 26.12 C 30.578 26.693 29.682 27.26 28.773 27.834 C 27.272 28.782 25.742 29.728 24.215 30.674 C 23.396 31.958 22.01 32.845 20.416 32.98 C 16.377 35.404 12.195 37.77 7.787 40 L 10.01 40 C 16.876 36.427 23.192 32.542 29.307 28.68 C 30.21 28.11 31.1 27.545 31.996 26.977 C 31.797 26.71 31.624 26.424 31.48 26.12 z M 56 28.898 C 49.756 32.306 43.75 36.123 37.63 40 L 39.5 40 C 45 36.515 50.417 33.11 56 30.037 L 56 28.898 z M 56 34.652 C 52.984 36.36 50.013 38.16 47.05 40 L 48.945 40 C 51.282 38.56 53.632 37.15 56 35.81 L 56 34.652 z " fill="currentColor" opacity=".6"/><path class="ColorScheme-Background" d="m 25,8 c -1.09,0 -2,.91 -2,2 v 14 h -3 c -2.21,0 -4,1.79 -4,4 0,2.21 1.79,4 4,4 2.21,0 4,-1.79 4,-4 V 15 h 15 v 5 h -3 c -2.21,0 -4,1.79 -4,4 0,2.21 1.79,4 4,4 2.21,0 4,-1.79 4,-4 V 10 C 40,8.91 39.09,8 38,8 Z m -1,4 h 15 v 2 H 24 Z" fill="currentColor" opacity=".6" stop-color="#000000"/><path class="ColorScheme-Background" d="m 25,8 c -1.09,0 -2,.91 -2,2 v 14 h -3 c -2.21,0 -4,1.79 -4,4 0,2.21 1.79,4 4,4 2.21,0 4,-1.79 4,-4 V 15 h 15 v 5 h -3 c -2.21,0 -4,1.79 -4,4 0,2.21 1.79,4 4,4 2.21,0 4,-1.79 4,-4 V 10 C 40,8.91 39.09,8 38,8 Z m 0,0.5 h 13 c .81,0 1.5,.69 1.5,1.5 v 2 C 39.5,11.724 39.276,11.5 39,11.5 H 24 c -.276,2.8e-5 -.5,.224 -0.5,0.5 V 10 C 23.5,9.19 24.19,8.5 25,8.5 Z M 24,12 h 15 v 2 H 24 Z m 15.5,8 v 4 c 0,1.94 -1.56,3.5 -3.5,3.5 -1.94,0 -3.5,-1.56 -3.5,-3.5 0,-1.94 1.56,-3.5 3.5,-3.5 h 3 c .276,-2.8e-5 .5,-.224 0.5,-0.5 z m -16,4 v 4 c 0,1.94 -1.56,3.5 -3.5,3.5 -1.94,0 -3.5,-1.56 -3.5,-3.5 0,-1.94 1.56,-3.5 3.5,-3.5 h 3 c .276,-2.8e-5 .5,-.224 0.5,-0.5 z" fill="currentColor" opacity=".6"/><path class="ColorScheme-Background" d="M 56,11.943 C 50.817,14.402 45.88,17.204 41,20.172 v 1.176 c 4.9,-2.992 9.832,-5.818 15,-8.297 z m 0,5.602 c -5.39,2.696 -10.537,5.746 -15.668,8.936 -.815,1.415 -2.3,2.395 -4.016,2.504 -1.758,1.11 -3.516,2.227 -5.293,3.35 C 26.933,34.918 22.756,37.503 18.39,40 h 1.965 c 3.84,-2.24 7.564,-4.53 11.19,-6.82 C 39.745,28.008 47.596,22.903 56,18.662 Z m 0,5.645 C 48.21,27.268 40.87,32.037 33.273,36.834 31.6,37.892 29.897,38.947 28.19,40 h 1.89 c 1.244,-.774 2.5,-1.546 3.727,-2.31 C 41.263,32.97 48.433,28.31 56,24.312 Z m -24.52,2.932 c -.902,.572 -1.798,1.14 -2.707,1.713 -1.502,.948 -3.03,1.894 -4.56,2.84 -.82,1.284 -2.204,2.172 -3.8,2.305 C 16.377,35.404 12.195,37.77 7.787,40 h 2.223 c 6.866,-3.573 13.182,-7.458 19.297,-11.32 .904,-.57 1.792,-1.134 2.69,-1.703 -.2,-.266 -.372,-.552 -.516,-.855 z M 56,28.898 C 49.756,32.306 43.75,36.123 37.63,40 H 39.5 C 45,36.515 50.417,33.11 56,30.037 Z m 0,5.754 C 52.984,36.36 50.013,38.16 47.05,40 h 1.895 C 51.282,38.56 53.632,37.15 56,35.81 Z" fill="currentColor" opacity=".6"/></g><use href="#use-path-aO" opacity=".4"/><use class="toggle-flat-design" fill="url(#gd1)" href="#use-path-aO" opacity=".1"/><path class="toggle-flat-design" d="m 26,16 c -2,0 -4,2 -6,2 H 6 c -1.11,0 -2,0.892 -2,2 v 34 c 0,1.108 0.892,2 2,2 h 52 c 1.108,0 2,-0.892 2,-2 V 18 c 0,-1.108 -0.892,-2 -2,-2 z" fill="url(#gl1)" opacity=".2"/><path class="folder-crease" d="m 4,44 v 2 H 6 C 6.554,46 7,45.554 7,45 7,44.446 6.554,44 6,44 Z m 54,0 c -0.554,0 -1,0.446 -1,1 0,0.554 0.446,1 1,1 h 2 v -2 z" opacity=".4"/><path class="ColorScheme-Text" d="m 4,52 v 1 c 0,1.662 1.338,3 3,3 h 50 c 1.662,0 3,-1.338 3,-3 v -1 c 0,1.662 -1.338,3 -3,3 H 7 C 5.338,55 4,53.662 4,52 Z" fill="currentColor" opacity=".1"/><path class="ColorScheme-Text" d="M 4,52.5 V 53 c 0,1.662 1.338,3 3,3 h 50 c 1.662,0 3,-1.338 3,-3 v -0.5 c 0,1.662 -1.338,3 -3,3 H 7 c -1.662,0 -3,-1.338 -3,-3 z" fill="currentColor" opacity=".2"/><path d="m 27,16 c -3,0 -3,2 -7,2 H 7 c -1.662,0 -3,1.338 -3,3 v 1 c 0,-1.662 1.338,-3 3,-3 h 13 c 4,0 4,-2 7,-2 h 30 c 1.662,0 3,1.338 3,3 v -1 c 0,-1.662 -1.338,-3 -3,-3 z" fill="#fff" opacity=".1"/><path d="m 27,16 c -3,0 -3,2 -7,2 H 7 c -1.662,0 -3,1.338 -3,3 v 0.5 c 0,-1.662 1.338,-3 3,-3 h 13 c 4,0 4,-2 7,-2 h 30 c 1.662,0 3,1.338 3,3 V 19 c 0,-1.662 -1.338,-3 -3,-3 z" fill="#fff" opacity=".2"/><path d="m 27,15 c -3,0 -3,2 -7,2 H 7 v 1 h 13 c 4,0 4,-2 7,-2 h 30 v -1 z" opacity=".1"/><path d="m 27,15.5 c -3,0 -3,2 -7,2 H 7 V 18 h 13 c 4,0 4,-2 7,-2 h 30 v -0.5 z" opacity=".2"/></g></svg>