<svg height="64" version="1.1" width="64" xmlns="http://www.w3.org/2000/svg" xmlns:svg="http://www.w3.org/2000/svg" xmlns:xlink="http://www.w3.org/1999/xlink">
<defs id="primary-definitions">
<style id="current-color-scheme" type="text/css">
      .ColorScheme-Text         { color: #232629; }
      .ColorScheme-Background   { color: #eff0f1; }
      .ColorScheme-Highlight    { color: #7ec9f0; }
      .ColorScheme-PositiveText { color: #27ae60; }
      .ColorScheme-NeutralText  { color: #f67400; }
      .ColorScheme-NegativeText { color: #da4453; }
      .ColorScheme-ActiveText   { color: #3daee9; }
      .ColorScheme-Complement   { color: #ffffff; }
      .ColorScheme-Contrast     { color: #000000; }
    </style>
<style id="extended-color-scheme" type="text/css">
      .ExScheme-Black     { color:#3e3e3e; }
      .ExScheme-White     { color:#fcfcfc; }
      .ExScheme-Grey-1    { color:#cfd5d5; }
      .ExScheme-Grey-2    { color:#909c9c; }
      .ExScheme-Grey-3    { color:#536161; }
      .ExScheme-Red-1     { color:#ffafa5; }
      .ExScheme-Red-2     { color:#bf4231; }
      .ExScheme-Red-3     { color:#4d2f2b; }
      .ExScheme-Green-1   { color:#abf9c7; }
      .ExScheme-Green-2   { color:#3bb566; }
      .ExScheme-Green-3   { color:#377d50; }
      .ExScheme-Blue-1    { color:#abdaf9; }
      .ExScheme-Blue-2    { color:#3daefd; }
      .ExScheme-Blue-3    { color:#2b3c4d; }
      .ExScheme-Yellow-1  { color:#faffa5; }
      .ExScheme-Yellow-2  { color:#cac726; }
      .ExScheme-Yellow-3  { color:#4b4d2b; }
      .ExScheme-Orange-1  { color:#ffdaa5; }
      .ExScheme-Orange-2  { color:#ff9701; }
      .ExScheme-Orange-3  { color:#4d372b; }
      .ExScheme-Brown-1   { color:#e9d6bb; }
      .ExScheme-Brown-2   { color:#997657; }
      .ExScheme-Brown-3   { color:#433a35; }
      .ExScheme-Purple-1  { color:#e2abf9; }
      .ExScheme-Purple-2  { color:#b401ff; }
      .ExScheme-Purple-3  { color:#432b4d; }
      .ExScheme-Cyan-1    { color:#b2f2e6; }
      .ExScheme-Cyan-2    { color:#31bfa6; }
      .ExScheme-Cyan-3    { color:#2b4d47; }
      .ExScheme-Magenta-1 { color:#f8a6d8; }
      .ExScheme-Magenta-2 { color:#f00091; }
      .ExScheme-Magenta-3 { color:#770048; }
    </style>
<linearGradient id="ut2">
<stop offset="0"/>
<stop offset="1" stop-opacity="0"/>
</linearGradient>
<linearGradient id="ut3">
<stop offset="0" stop-color="#fff"/>
<stop offset="1" stop-color="#fff" stop-opacity="0"/>
</linearGradient>
<style id="ut4" type="text/css">
        .force-display-for-editing { display: inline !important; }
    </style><style class="remove-if__show-crease" type="text/css">
        .enable-if__show-crease { display: none; }
    </style><style class="remove-if__color-sync-mimes-places" type="text/css">
        .enable-if__color-sync-mimes-places { display: none; }
    </style><radialGradient cx=".5" cy="0" id="ut5" r="1" xlink:href="#ut3"/><linearGradient id="ut6" xlink:href="#ut2" y1="1" y2=".5"/><style class="ColorScheme-Background" fill="currentColor" opacity=".6" type="text/css">
   .ColorScheme-Text           { color:#eff0f1; }
      .ColorScheme-Background     { color:#31363b; }
      .ColorScheme-Highlight      { color:#3daefd; }
      .ColorScheme-ViewBackground { color:#fcfcfc; }
      .ColorScheme-PositiveText   { color:#27ae60; }
      .ColorScheme-NeutralText    { color:#f67400; }
      .ColorScheme-NegativeText   { color:#da4453; }
  </style><path d="M 10,8 C 8.34,8 7,9.34 7,11 v 7 c -1.66,0 -3,1.34 -3,3 v 32 c 0,1.66 1.34,3 3,3 h 50 c 1.66,0 3,-1.34 3,-3 V 26 21 19 c 0,-1.66 -1.34,-3 -3,-3 v -3 c 0,-1.66 -1.34,-3 -3,-3 H 28 C 24,10 24,8 21,8 Z" id="ut7"></path><path d="M 10,8 C 8.34,8 7,9.34 7,11 v 7 h 13 c 4,0 4,-2 7,-2 h 30 v -3 c 0,-1.66 -1.34,-3 -3,-3 H 28 C 24,10 24,8 21,8 Z" id="ut8"></path></defs>
<g id="content" transform="translate(0,0)"><use class="sync-color enable-if__color-sync-mimes-places force-display-for-editing ColorScheme-ActiveText" fill="currentColor" href="#ut7"></use><use class="primary-color remove-if__color-sync-mimes-places ColorScheme-ActiveText" fill="currentColor" href="#ut7"></use><use class="ColorScheme-Contrast" fill="currentColor" href="#ut7" opacity=".1"></use><g id="decal" transform="translate(16,21)"><path class="ColorScheme-Background" d="M 16.1 2 A 1 1 0 0 0 15.74 2.04 A 1 1 0 0 0 15.3 2.3 L 13 4.6 L 15.5 7.07 A 2 2 0 0 1 16 7 A 2 2 0 0 1 18 9 A 2 2 0 0 1 17.93 9.5 L 22.5 14.07 A 2 2 0 0 1 23 14 A 2 2 0 0 1 25 16 A 2 2 0 0 1 23 18 A 2 2 0 0 1 21 16 A 2 2 0 0 1 21.07 15.5 L 17 11.4 L 17 21.27 A 2 2 0 0 1 18 23 A 2 2 0 0 1 16 25 A 2 2 0 0 1 14 23 A 2 2 0 0 1 15 21.27 L 15 10.73 A 2 2 0 0 1 14 9 A 2 2 0 0 1 14.07 8.5 L 11.6 6 L 2.3 15.3 A 1 1 0 0 0 2.3 16.7 L 15.3 29.7 A 1 1 0 0 0 16.7 29.7 L 29.7 16.7 A 1 1 0 0 0 29.7 15.3 L 16.7 2.3 A 1 1 0 0 0 16.1 2 z " fill="currentColor" opacity=".6"/><path class="ColorScheme-Background" d="M 16.1 2 A 1 1 0 0 0 15.74 2.04 A 1 1 0 0 0 15.3 2.3 L 13 4.6 L 15.5 7.07 A 2 2 0 0 1 16 7 A 2 2 0 0 1 18 9 A 2 2 0 0 1 17.93 9.5 L 22.5 14.07 A 2 2 0 0 1 23 14 A 2 2 0 0 1 25 16 A 2 2 0 0 1 23 18 A 2 2 0 0 1 21 16 A 2 2 0 0 1 21.07 15.5 L 17 11.4 L 17 21.27 A 2 2 0 0 1 18 23 A 2 2 0 0 1 16 25 A 2 2 0 0 1 14 23 A 2 2 0 0 1 15 21.27 L 15 10.73 A 2 2 0 0 1 14 9 A 2 2 0 0 1 14.07 8.5 L 11.6 6 L 2.3 15.3 A 1 1 0 0 0 2.3 16.7 L 15.3 29.7 A 1 1 0 0 0 16.7 29.7 L 29.7 16.7 A 1 1 0 0 0 29.7 15.3 L 16.7 2.3 A 1 1 0 0 0 16.1 2 z M 16.04 2.5 L 16.04 2.5 C 16.16 2.5 16.27 2.56 16.35 2.65 L 29.35 15.65 C 29.55 15.85 29.55 16.15 29.35 16.35 L 16.35 29.35 C 16.15 29.55 15.85 29.55 15.65 29.35 L 2.65 16.35 C 2.45 16.15 2.45 15.85 2.65 15.65 L 11.6 6.7 L 13.54 8.67 C 13.53 8.8 13.5 8.9 13.5 9 A .5 .5 0 0 0 13.5 9 C 13.5 9.77 13.9 10.44 14.5 10.9 L 14.5 21.1 C 13.9 21.56 13.5 22.23 13.5 23 A .5 .5 0 0 0 13.5 23 C 13.5 24.37 14.63 25.5 16 25.5 C 17.37 25.5 18.5 24.37 18.5 23 C 18.5 22.23 18.1 21.56 17.5 21.1 L 17.5 12.6 L 20.54 15.67 C 20.53 15.8 20.5 15.9 20.5 16 A .5 .5 0 0 0 20.5 16 C 20.5 17.37 21.63 18.5 23 18.5 C 24.37 18.5 25.5 17.37 25.5 16 C 25.5 14.63 24.37 13.5 23 13.5 A .5 .5 0 0 0 23 13.5 C 22.9 13.5 22.8 13.53 22.67 13.54 L 18.46 9.33 C 18.47 9.2 18.5 9.1 18.5 9 A .5 .5 0 0 0 18.5 9 C 18.5 7.63 17.37 6.5 16 6.5 A .5 .5 0 0 0 16 6.5 C 15.9 6.5 15.8 6.53 15.67 6.54 L 13.7 4.6 L 15.65 2.65 C 15.7 2.6 15.8 2.54 15.87 2.5 A .5 .5 0 0 0 15.87 2.5 C 15.93 2.5 16 2.5 16.04 2.5 z " fill="currentColor" opacity=".6"/></g><use href="#ut8" opacity=".4"></use><use fill="url(#ut6)" href="#ut8" opacity=".1"></use><path d="m 26,16 c -2,0 -4,2 -6,2 H 6 c -1.11,0 -2,.9 -2,2 v 34 c 0,1.1 .9,2 2,2 h 52 c 1.1,0 2,-.9 2,-2 V 18 c 0,-1.1 -.9,-2 -2,-2 z" fill="url(#ut5)" opacity=".2"/><path class="ColorScheme-Contrast" d="m 4,52 v 1 c 0,1.66 1.34,3 3,3 h 50 c 1.66,0 3,-1.34 3,-3 v -1 c 0,1.66 -1.34,3 -3,3 H 7 C 5.34,55 4,53.66 4,52 Z" fill="currentColor" opacity=".1"/><path class="ColorScheme-Contrast" d="M 4,52.5 V 53 c 0,1.66 1.34,3 3,3 h 50 c 1.66,0 3,-1.34 3,-3 v -0.5 c 0,1.66 -1.34,3 -3,3 H 7 c -1.66,0 -3,-1.34 -3,-3 z" fill="currentColor" opacity=".2"/><path d="m 27,16 c -3,0 -3,2 -7,2 H 7 c -1.66,0 -3,1.34 -3,3 v 1 c 0,-1.66 1.34,-3 3,-3 h 13 c 4,0 4,-2 7,-2 h 30 c 1.66,0 3,1.34 3,3 v -1 c 0,-1.66 -1.34,-3 -3,-3 z" fill="#fff" opacity=".1"/><path d="m 27,16 c -3,0 -3,2 -7,2 H 7 c -1.66,0 -3,1.34 -3,3 v 0.5 c 0,-1.66 1.34,-3 3,-3 h 13 c 4,0 4,-2 7,-2 h 30 c 1.66,0 3,1.34 3,3 V 19 c 0,-1.66 -1.34,-3 -3,-3 z" fill="#fff" opacity=".2"/><path d="m 27,15 c -3,0 -3,2 -7,2 H 7 v 1 h 13 c 4,0 4,-2 7,-2 h 30 v -1 z" opacity=".1"/><path d="m 27,15.5 c -3,0 -3,2 -7,2 H 7 V 18 h 13 c 4,0 4,-2 7,-2 h 30 v -0.5 z" opacity=".2"/></g>
</svg>