<svg height="64" version="1.1" width="64" xmlns="http://www.w3.org/2000/svg" xmlns:svg="http://www.w3.org/2000/svg" xmlns:xlink="http://www.w3.org/1999/xlink">
<defs id="primary-definitions">
<style id="current-color-scheme" type="text/css">
      .ColorScheme-Text         { color: #232629; }
      .ColorScheme-Background   { color: #eff0f1; }
      .ColorScheme-Highlight    { color: #7ec9f0; }
      .ColorScheme-PositiveText { color: #27ae60; }
      .ColorScheme-NeutralText  { color: #f67400; }
      .ColorScheme-NegativeText { color: #da4453; }
      .ColorScheme-ActiveText   { color: #3daee9; }
      .ColorScheme-Complement   { color: #ffffff; }
      .ColorScheme-Contrast     { color: #000000; }
    </style>
<style id="extended-color-scheme" type="text/css">
      .ExScheme-Black     { color:#3e3e3e; }
      .ExScheme-White     { color:#fcfcfc; }
      .ExScheme-Grey-1    { color:#cfd5d5; }
      .ExScheme-Grey-2    { color:#909c9c; }
      .ExScheme-Grey-3    { color:#536161; }
      .ExScheme-Red-1     { color:#ffafa5; }
      .ExScheme-Red-2     { color:#bf4231; }
      .ExScheme-Red-3     { color:#4d2f2b; }
      .ExScheme-Green-1   { color:#abf9c7; }
      .ExScheme-Green-2   { color:#3bb566; }
      .ExScheme-Green-3   { color:#377d50; }
      .ExScheme-Blue-1    { color:#abdaf9; }
      .ExScheme-Blue-2    { color:#3daefd; }
      .ExScheme-Blue-3    { color:#2b3c4d; }
      .ExScheme-Yellow-1  { color:#faffa5; }
      .ExScheme-Yellow-2  { color:#cac726; }
      .ExScheme-Yellow-3  { color:#4b4d2b; }
      .ExScheme-Orange-1  { color:#ffdaa5; }
      .ExScheme-Orange-2  { color:#ff9701; }
      .ExScheme-Orange-3  { color:#4d372b; }
      .ExScheme-Brown-1   { color:#e9d6bb; }
      .ExScheme-Brown-2   { color:#997657; }
      .ExScheme-Brown-3   { color:#433a35; }
      .ExScheme-Purple-1  { color:#e2abf9; }
      .ExScheme-Purple-2  { color:#b401ff; }
      .ExScheme-Purple-3  { color:#432b4d; }
      .ExScheme-Cyan-1    { color:#b2f2e6; }
      .ExScheme-Cyan-2    { color:#31bfa6; }
      .ExScheme-Cyan-3    { color:#2b4d47; }
      .ExScheme-Magenta-1 { color:#f8a6d8; }
      .ExScheme-Magenta-2 { color:#f00091; }
      .ExScheme-Magenta-3 { color:#770048; }
    </style>
<linearGradient id="ulh">
<stop offset="0"/>
<stop offset="1" stop-opacity="0"/>
</linearGradient>
<linearGradient id="uli">
<stop offset="0" stop-color="#fff"/>
<stop offset="1" stop-color="#fff" stop-opacity="0"/>
</linearGradient>
<style id="ulj" type="text/css">
        .force-display-for-editing { display: inline !important; }
    </style><style class="remove-if__show-crease" type="text/css">
        .enable-if__show-crease { display: none; }
    </style><style class="remove-if__color-sync-mimes-places" type="text/css">
        .enable-if__color-sync-mimes-places { display: none; }
    </style><radialGradient cx=".5" cy="0" id="ulk" r="1" xlink:href="#uli"/><linearGradient id="ull" xlink:href="#ulh" y1="1" y2=".5"/><style class="ColorScheme-Background" fill="currentColor" opacity=".6" type="text/css">
   .ColorScheme-Text           { color:#eff0f1; }
      .ColorScheme-Background     { color:#31363b; }
      .ColorScheme-Highlight      { color:#3daefd; }
      .ColorScheme-ViewBackground { color:#fcfcfc; }
      .ColorScheme-PositiveText   { color:#27ae60; }
      .ColorScheme-NeutralText    { color:#f67400; }
      .ColorScheme-NegativeText   { color:#da4453; }
  </style><path d="M 10,8 C 8.34,8 7,9.34 7,11 v 7 c -1.66,0 -3,1.34 -3,3 v 32 c 0,1.66 1.34,3 3,3 h 50 c 1.66,0 3,-1.34 3,-3 V 26 21 19 c 0,-1.66 -1.34,-3 -3,-3 v -3 c 0,-1.66 -1.34,-3 -3,-3 H 28 C 24,10 24,8 21,8 Z" id="ulm"></path><path d="M 10,8 C 8.34,8 7,9.34 7,11 v 7 h 13 c 4,0 4,-2 7,-2 h 30 v -3 c 0,-1.66 -1.34,-3 -3,-3 H 28 C 24,10 24,8 21,8 Z" id="uln"></path></defs>
<g id="content" transform="translate(0,0)"><use class="sync-color enable-if__color-sync-mimes-places force-display-for-editing ColorScheme-ActiveText" fill="currentColor" href="#ulm"></use><use class="primary-color remove-if__color-sync-mimes-places ColorScheme-ActiveText" fill="currentColor" href="#ulm"></use><use class="ColorScheme-Contrast" fill="currentColor" href="#ulm" opacity=".1"></use><g id="decal" transform="translate(16,21)"><path class="ColorScheme-Background" d="M 16.13 3 C 13.86 3 11.96 4.6 11.55 6.8 L 11.5 7.07 L 14.6 7.07 C 14.9 7.07 15.1 7.3 15.1 7.6 C 15.1 7.86 14.9 8.1 14.6 8.1 L 11.47 8.1 L 11.47 9.63 L 14.6 9.63 C 14.9 9.63 15.1 9.85 15.1 10.13 C 15.1 10.4 14.9 10.64 14.6 10.64 L 11.47 10.64 L 11.47 12.3 L 14.6 12.3 C 14.9 12.3 15.1 12.53 15.1 12.8 C 15.1 13.1 14.9 13.3 14.6 13.3 L 11.47 13.3 L 11.47 14.1 C 11.47 16.7 13.55 18.77 16.13 18.77 C 18.7 18.77 20.8 16.7 20.8 14.1 L 20.8 13.3 L 17.65 13.3 C 17.37 13.3 17.15 13.1 17.15 12.8 C 17.15 12.53 17.37 12.3 17.65 12.3 L 20.8 12.3 L 20.8 10.64 L 17.65 10.64 C 17.37 10.64 17.15 10.4 17.15 10.13 C 17.15 9.85 17.37 9.63 17.65 9.63 L 20.8 9.63 L 20.8 8.1 L 17.65 8.1 C 17.37 8.1 17.15 7.86 17.15 7.6 C 17.15 7.3 17.37 7.07 17.65 7.07 L 20.77 7.07 L 20.7 6.8 C 20.3 4.6 18.4 3 16.13 3 z M 7.96 11.37 C 7.07 11.37 6.35 12.1 6.35 13 C 6.35 13.44 6.54 13.87 6.9 14.17 C 7.1 17.74 8.4 20.26 10.17 21.8 C 11.67 23.14 13.4 23.74 14.9 23.95 L 14.9 27.4 L 10.9 27.4 C 10.2 27.4 9.6 28 9.6 28.7 C 9.6 29.4 10.2 30 10.9 30 L 21.5 30 C 22.2 30 22.8 29.4 22.8 28.7 C 22.8 28 22.2 27.4 21.5 27.4 L 17.5 27.4 L 17.5 23.9 C 19 23.67 20.6 23 22.07 21.7 C 23.8 20.16 25.16 17.67 25.4 14.2 C 25.74 13.9 25.94 13.45 25.94 13 C 25.94 12.1 25.2 11.37 24.33 11.37 C 23.47 11.37 22.76 12.05 22.7 12.9 C 22.7 12.95 22.7 13 22.7 13.07 C 22.7 16.5 21.6 18.5 20.25 19.7 C 19.4 20.46 18.4 20.9 17.5 21.1 L 17.5 20.4 C 17.5 19.7 16.9 19.1 16.2 19.1 C 15.5 19.1 14.9 19.7 14.9 20.4 L 14.9 21.17 C 13.95 20.97 12.9 20.57 12 19.77 C 10.67 18.6 9.6 16.67 9.6 13.15 C 9.6 13.1 9.57 13.07 9.57 13.06 C 9.57 13.04 9.57 13 9.57 13 L 9.6 13 L 9.6 13 C 9.6 12.1 8.85 11.37 7.96 11.37 z " fill="currentColor" opacity=".6"/><path class="ColorScheme-Background" d="m 16.13,3 c -2.3,0 -4.17,1.6 -4.6,3.8 l -.06,.3 h 3.1 c .3,0 .5,.2 .5,.5 0,.3 -.2,.5 -.5,.5 h -3.13 v 1.55 h 3.13 c .3,0 .5,.2 .5,.5 0,.3 -.2,.5 -.5,.5 h -3.13 v 1.66 h 3.13 c .3,0 .5,.2 .5,.5 0,.3 -.2,.5 -.5,.5 h -3.13 v .8 c 0,2.6 2.1,4.67 4.67,4.67 2.6,0 4.67,-2.1 4.67,-4.67 v -.8 h -3.15 c -.3,0 -.5,-.2 -.5,-.5 0,-.3 .2,-.5 .5,-.5 h 3.15 v -1.66 h -3.15 c -.3,0 -.5,-.2 -.5,-.5 0,-.3 .2,-.5 .5,-.5 h 3.15 V 8.1 h -3.15 c -.3,0 -.5,-.2 -.5,-.5 0,-.3 .2,-.5 .5,-.5 h 3.1 L 20.7,6.8 C 20.3,4.6 18.4,3 16.13,3 Z m 0,.5 c 1.9,0 3.44,1.33 3.93,3.1 h -2.4 c -.55,0 -1,.45 -1,1 0,.55 .45,1 1,1 h 2.66 V 9.14 h -2.66 c -.55,0 -1,.45 -1,1 0,.55 .45,1 1,1 h 2.66 V 11.8 h -2.66 c -.55,0 -1,.45 -1,1 0,.55 .45,1 1,1 h 2.66 v .3 c 0,2.3 -1.86,4.2 -4.2,4.2 -2.3,0 -4.2,-1.86 -4.2,-4.2 v -.3 h 2.64 c .55,0 1,-.45 1,-1 0,-.55 -.45,-1 -1,-1 h -2.64 v -.7 h 2.64 c .55,0 1,-.45 1,-1 0,-.55 -.45,-1 -1,-1 H 11.96 V 8.57 h 2.64 c .55,0 1,-.45 1,-1 0,-.55 -.45,-1 -1,-1 H 12.2 C 12.7,4.8 14.2,3.5 16.13,3.5 Z M 7.96,11.37 c -0,-1e-6 -0,0 -.03,0 -.87,0 -1.6,.73 -1.6,1.6 0,.5 .23,.96 .6,1.27 l -.1,-.2 c .2,3.63 1.53,6.17 3.3,7.74 1.5,1.33 3.2,1.93 4.73,2.14 v 3.45 h -4 c -.7,0 -1.3,.6 -1.3,1.3 0,.7 .6,1.3 1.3,1.3 h 10.6 c .7,0 1.3,-.6 1.3,-1.3 0,-.7 -.6,-1.3 -1.3,-1.3 h -4 v -3.5 c 1.5,-.25 3.13,-.9 4.6,-2.2 1.76,-1.6 3.1,-4.1 3.33,-7.64 l -.1,.2 c .4,-.3 .63,-.8 .63,-1.3 5.6e-5,-.9 -.73,-1.6 -1.6,-1.6 -.86,0 -1.57,.7 -1.6,1.54 -0,.04 -0,.1 -0,.17 0,3.45 -1.1,5.4 -2.46,6.6 -.86,.77 -1.85,1.2 -2.75,1.4 v -.7 c 0,-.7 -.6,-1.3 -1.3,-1.3 -.7,0 -1.3,.6 -1.3,1.3 v .75 C 13.95,20.97 12.9,20.57 12,19.77 10.67,18.6 9.6,16.67 9.6,13.15 c 7e-6,-.06 -0,-.1 -0,-.1 0,-0 0,-.04 0,-.05 v -0 -0 c 5.2e-5,-.9 -.73,-1.6 -1.6,-1.6 z m 0,.5 c .6,-4.2e-5 1.1,.5 1.1,1.1 -9.58e-4,0 -0,.03 -0,.05 l -0,0 0,0 c 0,.05 0,.07 0,.07 0,3.63 1.16,5.73 2.6,7 1.07,.95 2.35,1.43 3.44,1.6 l .3,.04 v -1.36 c 0,-.45 .36,-.8 .8,-.8 .45,0 .8,.36 .8,.8 v 1.33 l .3,-.06 c 1.05,-.2 2.25,-.7 3.3,-1.64 1.45,-1.3 2.6,-3.4 2.6,-7 -5e-6,-.03 0,-.07 0,-.1 l 0,-0 v -0 c .03,-.6 .5,-1.07 1.1,-1.07 .6,-3.9e-5 1.1,.5 1.1,1.1 -0,.35 -.16,.7 -.44,.9 l -.1,.07 -0,.1 c -.2,3.4 -1.5,5.8 -3.17,7.3 -1.44,1.3 -3.1,1.93 -4.54,2.14 l -.2,.03 v 4.37 h 4.5 c .45,0 .8,.36 .8,.8 4e-6,.45 -.36,.8 -.8,.8 H 10.9 c -.45,0 -.8,-.36 -.8,-.8 0,-.45 .36,-.8 .8,-.8 h 4.5 v -4.35 l -.2,-0 C 13.7,23.35 12,22.76 10.5,21.45 8.83,19.97 7.55,17.56 7.36,14.04 l -0,-.1 -.1,-.07 c -.27,-.2 -.43,-.54 -.43,-.9 -3.9e-5,-.6 .5,-1.13 1.1,-1.1 z" fill="currentColor" opacity=".6"/></g><use href="#uln" opacity=".4"></use><use fill="url(#ull)" href="#uln" opacity=".1"></use><path d="m 26,16 c -2,0 -4,2 -6,2 H 6 c -1.11,0 -2,.9 -2,2 v 34 c 0,1.1 .9,2 2,2 h 52 c 1.1,0 2,-.9 2,-2 V 18 c 0,-1.1 -.9,-2 -2,-2 z" fill="url(#ulk)" opacity=".2"/><path class="ColorScheme-Contrast" d="m 4,52 v 1 c 0,1.66 1.34,3 3,3 h 50 c 1.66,0 3,-1.34 3,-3 v -1 c 0,1.66 -1.34,3 -3,3 H 7 C 5.34,55 4,53.66 4,52 Z" fill="currentColor" opacity=".1"/><path class="ColorScheme-Contrast" d="M 4,52.5 V 53 c 0,1.66 1.34,3 3,3 h 50 c 1.66,0 3,-1.34 3,-3 v -0.5 c 0,1.66 -1.34,3 -3,3 H 7 c -1.66,0 -3,-1.34 -3,-3 z" fill="currentColor" opacity=".2"/><path d="m 27,16 c -3,0 -3,2 -7,2 H 7 c -1.66,0 -3,1.34 -3,3 v 1 c 0,-1.66 1.34,-3 3,-3 h 13 c 4,0 4,-2 7,-2 h 30 c 1.66,0 3,1.34 3,3 v -1 c 0,-1.66 -1.34,-3 -3,-3 z" fill="#fff" opacity=".1"/><path d="m 27,16 c -3,0 -3,2 -7,2 H 7 c -1.66,0 -3,1.34 -3,3 v 0.5 c 0,-1.66 1.34,-3 3,-3 h 13 c 4,0 4,-2 7,-2 h 30 c 1.66,0 3,1.34 3,3 V 19 c 0,-1.66 -1.34,-3 -3,-3 z" fill="#fff" opacity=".2"/><path d="m 27,15 c -3,0 -3,2 -7,2 H 7 v 1 h 13 c 4,0 4,-2 7,-2 h 30 v -1 z" opacity=".1"/><path d="m 27,15.5 c -3,0 -3,2 -7,2 H 7 V 18 h 13 c 4,0 4,-2 7,-2 h 30 v -0.5 z" opacity=".2"/></g>
</svg>