<?xml version="1.0" encoding="utf-8"?><svg height="64" width="64" xmlns="http://www.w3.org/2000/svg" xmlns:svg="http://www.w3.org/2000/svg" xmlns:xlink="http://www.w3.org/1999/xlink"><defs id="primary-definitions"><style id="current-color-scheme" type="text/css">.ColorScheme-Text           { color:#fff; }
      .ColorScheme-Background     { color:#111; }
      .ColorScheme-Highlight      { color:#3daefd; }
      .ColorScheme-ViewBackground { color:#000; }
      .ColorScheme-PositiveText   { color:#27ae60; }
      .ColorScheme-NeutralText    { color:#f67400; }
      .ColorScheme-NegativeText   { color:#da4453; }
  </style><style id="extended-color-scheme" type="text/css">.ExScheme-Black     { color:#3e3e3e; }
      .ExScheme-White     { color:#fcfcfc; }
      .ExScheme-Grey-1    { color:#cfd5d5; }
      .ExScheme-Grey-2    { color:#909c9c; }
      .ExScheme-Grey-3    { color:#536161; }
      .ExScheme-Red-1     { color:#ffafa5; }
      .ExScheme-Red-2     { color:#bf4231; }
      .ExScheme-Red-3     { color:#4d2f2b; }
      .ExScheme-Green-1   { color:#abf9c7; }
      .ExScheme-Green-2   { color:#3bb566; }
      .ExScheme-Green-3   { color:#377d50; }
      .ExScheme-Blue-1    { color:#abdaf9; }
      .ExScheme-Blue-2    { color:#3daefd; }
      .ExScheme-Blue-3    { color:#2b3c4d; }
      .ExScheme-Yellow-1  { color:#faffa5; }
      .ExScheme-Yellow-2  { color:#cac726; }
      .ExScheme-Yellow-3  { color:#4b4d2b; }
      .ExScheme-Orange-1  { color:#ffdaa5; }
      .ExScheme-Orange-2  { color:#ff9701; }
      .ExScheme-Orange-3  { color:#4d372b; }
      .ExScheme-Brown-1   { color:#e9d6bb; }
      .ExScheme-Brown-2   { color:#997657; }
      .ExScheme-Brown-3   { color:#433a35; }
      .ExScheme-Purple-1  { color:#e2abf9; }
      .ExScheme-Purple-2  { color:#b401ff; }
      .ExScheme-Purple-3  { color:#432b4d; }
      .ExScheme-Cyan-1    { color:#b2f2e6; }
      .ExScheme-Cyan-2    { color:#31bfa6; }
      .ExScheme-Cyan-3    { color:#2b4d47; }
      .ExScheme-Magenta-1 { color:#f8a6d8; }
      .ExScheme-Magenta-2 { color:#f00091; }
      .ExScheme-Magenta-3 { color:#770048; }
  </style><linearGradient id="gradientDark"><stop offset="0"/><stop offset="1" stop-opacity="0"/></linearGradient><linearGradient id="gradientLight"><stop offset="0" stop-color="#fff"/><stop offset="1" stop-color="#fff" stop-opacity="0"/></linearGradient><style class="toggle-enable-crease" type="text/css">.folder-crease { display: none; }
  </style><style class="toggle-manilla-folders" type="text/css">.folder-manilla { display: none; }
  </style><radialGradient cx=".5" cy="0" id="gl1" r="1" xlink:href="#gradientLight"/><linearGradient id="gd1" xlink:href="#gradientDark" y1="1" y2=".5"/><path d="M 10,8 C 8.338,8 7,9.338 7,11 v 7 c -1.662,0 -3,1.338 -3,3 v 32 c 0,1.662 1.338,3 3,3 h 50 c 1.662,0 3,-1.338 3,-3 V 26 21 19 c 0,-1.662 -1.338,-3 -3,-3 v -3 c 0,-1.662 -1.338,-3 -3,-3 H 28 C 24,10 24,8 21,8 Z" id="use-path-bB"/><path d="M 10,8 C 8.338,8 7,9.338 7,11 v 7 h 13 c 4,0 4,-2 7,-2 h 30 v -3 c 0,-1.662 -1.338,-3 -3,-3 H 28 C 24,10 24,8 21,8 Z" id="use-path-bC"/></defs><g id="content"><use class="folder-manilla ExScheme-Brown-1" fill="currentColor" href="#use-path-bB"/><use class="toggle-manilla-folders ColorScheme-Highlight" fill="currentColor" href="#use-path-bB" id="primary-color"/><use class="ColorScheme-Text" fill="currentColor" href="#use-path-bB" opacity=".1"/><g id="panorama" transform="translate(4,16)"><path class="ColorScheme-Background" d="m 51.945,9.998 c -.165,.014 -.32,.063 -.447,.137 l -43,25 C 7.614,35.648 7.978,37 9,37 h 4 v -1.5 c 0,-0.277 0.223,-0.5 0.5,-0.5 0.277,0 0.5,0.223 0.5,0.5 V 37 h 2 v -0.5 c 0,-.268 .21,-.487 .475,-0.5 .01,-4.3e-4 .017,0 .025,0 0.277,0 0.5,0.223 0.5,0.5 V 37 h 2 v -1.5 c 0,-0.277 0.223,-0.5 0.5,-0.5 0.277,0 0.5,0.223 0.5,0.5 V 37 h 2 v -0.5 c 0,-.268 .21,-.487 .475,-0.5 .01,-4.3e-4 .017,0 .025,0 0.277,0 0.5,0.223 0.5,0.5 V 37 h 2 v -1.5 c 0,-0.277 0.223,-0.5 0.5,-0.5 0.277,0 0.5,0.223 0.5,0.5 V 37 h 2 v -0.5 c 0,-.268 .21,-.487 .475,-0.5 .01,-4.3e-4 .017,0 .025,0 0.277,0 0.5,0.223 0.5,0.5 V 37 h 2 v -1.5 c 0,-0.277 0.223,-0.5 0.5,-0.5 0.277,0 0.5,0.223 0.5,0.5 V 37 h 2 v -0.5 c 0,-.268 .21,-.487 .475,-0.5 .01,-4.3e-4 .017,0 .025,0 0.277,0 0.5,0.223 0.5,0.5 V 37 h 2 v -1.5 c 0,-0.277 0.223,-0.5 0.5,-0.5 0.277,0 0.5,0.223 0.5,0.5 V 37 h 2 v -0.5 c 0,-.268 .21,-.487 .475,-0.5 .01,-4.3e-4 .017,0 .025,0 0.277,0 0.5,0.223 0.5,0.5 V 37 h 2 v -1.5 c 0,-0.277 0.223,-0.5 0.5,-0.5 0.277,0 0.5,0.223 0.5,0.5 V 37 h 2 v -0.5 c 0,-.268 .21,-.487 .475,-0.5 .01,-4.3e-4 .017,0 .025,0 0.277,0 0.5,0.223 0.5,0.5 V 37 h 2 v -1.5 c 0,-0.277 0.223,-0.5 0.5,-0.5 0.277,0 0.5,0.223 0.5,0.5 V 37 h 2 c .552,-5.5e-5 1,-.448 1,-1 V 34 H 51.5 C 51.223,34 51,33.777 51,33.5 51,33.223 51.223,33 51.5,33 H 53 V 31 H 52.5 C 52.223,31 52,30.777 52,30.5 c 0,-.268 .21,-.487 .475,-0.5 .01,-4.3e-4 .017,0 .025,0 H 53 V 28 H 51.5 C 51.223,28 51,27.777 51,27.5 51,27.223 51.223,27 51.5,27 H 53 V 25 H 52.5 C 52.223,25 52,24.777 52,24.5 c 0,-.268 .21,-.487 .475,-0.5 .01,-4.3e-4 .017,0 .025,0 H 53 V 22 H 51.5 C 51.223,22 51,21.777 51,21.5 51,21.223 51.223,21 51.5,21 H 53 V 19 H 52.5 C 52.223,19 52,18.777 52,18.5 c 0,-.268 .21,-.487 .475,-0.5 .01,-4.3e-4 .017,0 .025,0 H 53 V 16 H 51.5 C 51.223,16 51,15.777 51,15.5 51,15.223 51.223,15 51.5,15 H 53 V 11 C 53,10.217 52.44,9.955 51.945,9.998 Z M 46,20.766 V 30 H 30.61 Z" fill="currentColor" opacity=".6"/><path class="ColorScheme-Background" d="M 52.133 9.996 C 52.07 9.992 52.007 9.993 51.945 9.998 C 51.78 10.012 51.625 10.06 51.498 10.135 L 8.498 35.135 C 7.614 35.648 7.978 37 9 37 L 13 37 L 13 35.5 C 13 35.223 13.223 35 13.5 35 C 13.777 35 14 35.223 14 35.5 L 14 37 L 16 37 L 16 36.5 C 16 36.232 16.21 36.013 16.475 36 C 16.483 36 16.49 36 16.5 36 C 16.777 36 17 36.223 17 36.5 L 17 37 L 19 37 L 19 35.5 C 19 35.223 19.223 35 19.5 35 C 19.777 35 20 35.223 20 35.5 L 20 37 L 22 37 L 22 36.5 C 22 36.232 22.21 36.013 22.475 36 C 22.483 36 22.49 36 22.5 36 C 22.777 36 23 36.223 23 36.5 L 23 37 L 25 37 L 25 35.5 C 25 35.223 25.223 35 25.5 35 C 25.777 35 26 35.223 26 35.5 L 26 37 L 28 37 L 28 36.5 C 28 36.232 28.21 36.013 28.475 36 C 28.483 36 28.49 36 28.5 36 C 28.777 36 29 36.223 29 36.5 L 29 37 L 31 37 L 31 35.5 C 31 35.223 31.223 35 31.5 35 C 31.777 35 32 35.223 32 35.5 L 32 37 L 34 37 L 34 36.5 C 34 36.232 34.21 36.013 34.475 36 C 34.483 36 34.49 36 34.5 36 C 34.777 36 35 36.223 35 36.5 L 35 37 L 37 37 L 37 35.5 C 37 35.223 37.223 35 37.5 35 C 37.777 35 38 35.223 38 35.5 L 38 37 L 40 37 L 40 36.5 C 40 36.232 40.21 36.013 40.475 36 C 40.483 36 40.49 36 40.5 36 C 40.777 36 41 36.223 41 36.5 L 41 37 L 43 37 L 43 35.5 C 43 35.223 43.223 35 43.5 35 C 43.777 35 44 35.223 44 35.5 L 44 37 L 46 37 L 46 36.5 C 46 36.232 46.21 36.013 46.475 36 C 46.483 36 46.49 36 46.5 36 C 46.777 36 47 36.223 47 36.5 L 47 37 L 49 37 L 49 35.5 C 49 35.223 49.223 35 49.5 35 C 49.777 35 50 35.223 50 35.5 L 50 37 L 52 37 C 52.552 37 53 36.552 53 36 L 53 34 L 51.5 34 C 51.223 34 51 33.777 51 33.5 C 51 33.223 51.223 33 51.5 33 L 53 33 L 53 31 L 52.5 31 C 52.223 31 52 30.777 52 30.5 C 52 30.232 52.21 30.013 52.475 30 C 52.483 30 52.49 30 52.5 30 L 53 30 L 53 28 L 51.5 28 C 51.223 28 51 27.777 51 27.5 C 51 27.223 51.223 27 51.5 27 L 53 27 L 53 25 L 52.5 25 C 52.223 25 52 24.777 52 24.5 C 52 24.232 52.21 24.013 52.475 24 C 52.483 24 52.49 24 52.5 24 L 53 24 L 53 22 L 51.5 22 C 51.223 22 51 21.777 51 21.5 C 51 21.223 51.223 21 51.5 21 L 53 21 L 53 19 L 52.5 19 C 52.223 19 52 18.777 52 18.5 C 52 18.232 52.21 18.013 52.475 18 C 52.483 18 52.49 18 52.5 18 L 53 18 L 53 16 L 51.5 16 C 51.223 16 51 15.777 51 15.5 C 51 15.223 51.223 15 51.5 15 L 53 15 L 53 11 C 53 10.315 52.57 10.028 52.133 9.996 z M 51.988 10.496 C 52.132 10.484 52.27 10.522 52.35 10.584 C 52.43 10.646 52.5 10.728 52.5 11 L 52.5 14.5 L 51.5 14.5 C 50.955 14.5 50.5 14.955 50.5 15.5 C 50.5 16.045 50.955 16.5 51.5 16.5 L 52.5 16.5 L 52.5 17.5 C 52.508 17.5 52.49 17.498 52.45 17.5 C 51.924 17.526 51.5 17.97 51.5 18.5 C 51.5 19.045 51.955 19.5 52.5 19.5 L 52.5 20.5 L 51.5 20.5 C 50.955 20.5 50.5 20.955 50.5 21.5 C 50.5 22.045 50.955 22.5 51.5 22.5 L 52.5 22.5 L 52.5 23.5 C 52.508 23.5 52.49 23.498 52.45 23.5 C 51.924 23.526 51.5 23.97 51.5 24.5 C 51.5 25.045 51.955 25.5 52.5 25.5 L 52.5 26.5 L 51.5 26.5 C 50.955 26.5 50.5 26.955 50.5 27.5 C 50.5 28.045 50.955 28.5 51.5 28.5 L 52.5 28.5 L 52.5 29.5 C 52.508 29.5 52.49 29.498 52.45 29.5 C 51.924 29.526 51.5 29.97 51.5 30.5 C 51.5 31.045 51.955 31.5 52.5 31.5 L 52.5 32.5 L 51.5 32.5 C 50.955 32.5 50.5 32.955 50.5 33.5 C 50.5 34.045 50.955 34.5 51.5 34.5 L 52.5 34.5 L 52.5 36 C 52.5 36.282 52.282 36.5 52 36.5 L 50.5 36.5 L 50.5 35.5 C 50.5 34.955 50.045 34.5 49.5 34.5 C 48.955 34.5 48.5 34.955 48.5 35.5 L 48.5 36.5 L 47.5 36.5 C 47.5 35.955 47.045 35.5 46.5 35.5 C 46.508 35.5 46.49 35.498 46.45 35.5 C 45.924 35.526 45.5 35.97 45.5 36.5 L 44.5 36.5 L 44.5 35.5 C 44.5 34.955 44.045 34.5 43.5 34.5 C 42.955 34.5 42.5 34.955 42.5 35.5 L 42.5 36.5 L 41.5 36.5 C 41.5 35.955 41.045 35.5 40.5 35.5 C 40.508 35.5 40.49 35.498 40.45 35.5 C 39.924 35.526 39.5 35.97 39.5 36.5 L 38.5 36.5 L 38.5 35.5 C 38.5 34.955 38.045 34.5 37.5 34.5 C 36.955 34.5 36.5 34.955 36.5 35.5 L 36.5 36.5 L 35.5 36.5 C 35.5 35.955 35.045 35.5 34.5 35.5 C 34.508 35.5 34.49 35.498 34.45 35.5 C 33.924 35.526 33.5 35.97 33.5 36.5 L 32.5 36.5 L 32.5 35.5 C 32.5 34.955 32.045 34.5 31.5 34.5 C 30.955 34.5 30.5 34.955 30.5 35.5 L 30.5 36.5 L 29.5 36.5 C 29.5 35.955 29.045 35.5 28.5 35.5 C 28.508 35.5 28.49 35.498 28.45 35.5 C 27.924 35.526 27.5 35.97 27.5 36.5 L 26.5 36.5 L 26.5 35.5 C 26.5 34.955 26.045 34.5 25.5 34.5 C 24.955 34.5 24.5 34.955 24.5 35.5 L 24.5 36.5 L 23.5 36.5 C 23.5 35.955 23.045 35.5 22.5 35.5 C 22.508 35.5 22.49 35.498 22.45 35.5 C 21.924 35.526 21.5 35.97 21.5 36.5 L 20.5 36.5 L 20.5 35.5 C 20.5 34.955 20.045 34.5 19.5 34.5 C 18.955 34.5 18.5 34.955 18.5 35.5 L 18.5 36.5 L 17.5 36.5 C 17.5 35.955 17.045 35.5 16.5 35.5 C 16.508 35.5 16.49 35.498 16.45 35.5 C 15.924 35.526 15.5 35.97 15.5 36.5 L 14.5 36.5 L 14.5 35.5 C 14.5 34.955 14.045 34.5 13.5 34.5 C 12.955 34.5 12.5 34.955 12.5 35.5 L 12.5 36.5 L 9 36.5 C 8.71 36.5 8.574 36.34 8.518 36.13 C 8.46 35.917 8.497 35.712 8.748 35.566 A .5 .5 0 0 0 8.75 35.566 L 51.75 10.566 C 51.805 10.534 51.895 10.504 51.988 10.496 z M 45.994 20.266 A .5 .5 0 0 0 45.742 20.336 L 30.352 29.57 A .5 .5 0 0 0 30.61 30.5 L 46 30.5 A .5 .5 0 0 0 46.5 30 L 46.5 20.766 A .5 .5 0 0 0 46.246 20.32 A .5 .5 0 0 0 45.994 20.266 z M 46 20.766 L 46 30 L 30.61 30 L 46 20.766 z " fill="currentColor" opacity=".6"/></g><use href="#use-path-bC" opacity=".4"/><use class="toggle-flat-design" fill="url(#gd1)" href="#use-path-bC" opacity=".1"/><path class="toggle-flat-design" d="m 26,16 c -2,0 -4,2 -6,2 H 6 c -1.11,0 -2,0.892 -2,2 v 34 c 0,1.108 0.892,2 2,2 h 52 c 1.108,0 2,-0.892 2,-2 V 18 c 0,-1.108 -0.892,-2 -2,-2 z" fill="url(#gl1)" opacity=".2"/><path class="folder-crease" d="m 4,44 v 2 H 6 C 6.554,46 7,45.554 7,45 7,44.446 6.554,44 6,44 Z m 54,0 c -0.554,0 -1,0.446 -1,1 0,0.554 0.446,1 1,1 h 2 v -2 z" opacity=".4"/><path class="ColorScheme-Text" d="m 4,52 v 1 c 0,1.662 1.338,3 3,3 h 50 c 1.662,0 3,-1.338 3,-3 v -1 c 0,1.662 -1.338,3 -3,3 H 7 C 5.338,55 4,53.662 4,52 Z" fill="currentColor" opacity=".1"/><path class="ColorScheme-Text" d="M 4,52.5 V 53 c 0,1.662 1.338,3 3,3 h 50 c 1.662,0 3,-1.338 3,-3 v -0.5 c 0,1.662 -1.338,3 -3,3 H 7 c -1.662,0 -3,-1.338 -3,-3 z" fill="currentColor" opacity=".2"/><path d="m 27,16 c -3,0 -3,2 -7,2 H 7 c -1.662,0 -3,1.338 -3,3 v 1 c 0,-1.662 1.338,-3 3,-3 h 13 c 4,0 4,-2 7,-2 h 30 c 1.662,0 3,1.338 3,3 v -1 c 0,-1.662 -1.338,-3 -3,-3 z" fill="#fff" opacity=".1"/><path d="m 27,16 c -3,0 -3,2 -7,2 H 7 c -1.662,0 -3,1.338 -3,3 v 0.5 c 0,-1.662 1.338,-3 3,-3 h 13 c 4,0 4,-2 7,-2 h 30 c 1.662,0 3,1.338 3,3 V 19 c 0,-1.662 -1.338,-3 -3,-3 z" fill="#fff" opacity=".2"/><path d="m 27,15 c -3,0 -3,2 -7,2 H 7 v 1 h 13 c 4,0 4,-2 7,-2 h 30 v -1 z" opacity=".1"/><path d="m 27,15.5 c -3,0 -3,2 -7,2 H 7 V 18 h 13 c 4,0 4,-2 7,-2 h 30 v -0.5 z" opacity=".2"/></g></svg>