<svg height="64" version="1.1" width="64" xmlns="http://www.w3.org/2000/svg" xmlns:svg="http://www.w3.org/2000/svg" xmlns:xlink="http://www.w3.org/1999/xlink">
<defs id="primary-definitions">
<style id="current-color-scheme" type="text/css">
      .ColorScheme-Text         { color: #232629; }
      .ColorScheme-Background   { color: #eff0f1; }
      .ColorScheme-Highlight    { color: #7ec9f0; }
      .ColorScheme-PositiveText { color: #27ae60; }
      .ColorScheme-NeutralText  { color: #f67400; }
      .ColorScheme-NegativeText { color: #da4453; }
      .ColorScheme-ActiveText   { color: #3daee9; }
      .ColorScheme-Complement   { color: #ffffff; }
      .ColorScheme-Contrast     { color: #000000; }
    </style>
<style id="extended-color-scheme" type="text/css">
      .ExScheme-Black     { color:#3e3e3e; }
      .ExScheme-White     { color:#fcfcfc; }
      .ExScheme-Grey-1    { color:#cfd5d5; }
      .ExScheme-Grey-2    { color:#909c9c; }
      .ExScheme-Grey-3    { color:#536161; }
      .ExScheme-Red-1     { color:#ffafa5; }
      .ExScheme-Red-2     { color:#bf4231; }
      .ExScheme-Red-3     { color:#4d2f2b; }
      .ExScheme-Green-1   { color:#abf9c7; }
      .ExScheme-Green-2   { color:#3bb566; }
      .ExScheme-Green-3   { color:#377d50; }
      .ExScheme-Blue-1    { color:#abdaf9; }
      .ExScheme-Blue-2    { color:#3daefd; }
      .ExScheme-Blue-3    { color:#2b3c4d; }
      .ExScheme-Yellow-1  { color:#faffa5; }
      .ExScheme-Yellow-2  { color:#cac726; }
      .ExScheme-Yellow-3  { color:#4b4d2b; }
      .ExScheme-Orange-1  { color:#ffdaa5; }
      .ExScheme-Orange-2  { color:#ff9701; }
      .ExScheme-Orange-3  { color:#4d372b; }
      .ExScheme-Brown-1   { color:#e9d6bb; }
      .ExScheme-Brown-2   { color:#997657; }
      .ExScheme-Brown-3   { color:#433a35; }
      .ExScheme-Purple-1  { color:#e2abf9; }
      .ExScheme-Purple-2  { color:#b401ff; }
      .ExScheme-Purple-3  { color:#432b4d; }
      .ExScheme-Cyan-1    { color:#b2f2e6; }
      .ExScheme-Cyan-2    { color:#31bfa6; }
      .ExScheme-Cyan-3    { color:#2b4d47; }
      .ExScheme-Magenta-1 { color:#f8a6d8; }
      .ExScheme-Magenta-2 { color:#f00091; }
      .ExScheme-Magenta-3 { color:#770048; }
    </style>
<linearGradient id="udc">
<stop offset="0"/>
<stop offset="1" stop-opacity="0"/>
</linearGradient>
<linearGradient id="udd">
<stop offset="0" stop-color="#fff"/>
<stop offset="1" stop-color="#fff" stop-opacity="0"/>
</linearGradient>
<style id="ude" type="text/css">
        .force-display-for-editing { display: inline !important; }
    </style><style class="remove-if__show-crease" type="text/css">
        .enable-if__show-crease { display: none; }
    </style><style class="remove-if__color-sync-mimes-places" type="text/css">
        .enable-if__color-sync-mimes-places { display: none; }
    </style><radialGradient cx=".5" cy="0" id="udf" r="1" xlink:href="#udd"/><linearGradient id="udg" xlink:href="#udc" y1="1" y2=".5"/><style class="ColorScheme-Background" fill="currentColor" opacity=".6" type="text/css">
   .ColorScheme-Text           { color:#eff0f1; }
      .ColorScheme-Background     { color:#31363b; }
      .ColorScheme-Highlight      { color:#3daefd; }
      .ColorScheme-ViewBackground { color:#fcfcfc; }
      .ColorScheme-PositiveText   { color:#27ae60; }
      .ColorScheme-NeutralText    { color:#f67400; }
      .ColorScheme-NegativeText   { color:#da4453; }
  </style><path d="M 10,8 C 8.34,8 7,9.34 7,11 v 7 c -1.66,0 -3,1.34 -3,3 v 32 c 0,1.66 1.34,3 3,3 h 50 c 1.66,0 3,-1.34 3,-3 V 26 21 19 c 0,-1.66 -1.34,-3 -3,-3 v -3 c 0,-1.66 -1.34,-3 -3,-3 H 28 C 24,10 24,8 21,8 Z" id="udh"></path><path d="M 10,8 C 8.34,8 7,9.34 7,11 v 7 h 13 c 4,0 4,-2 7,-2 h 30 v -3 c 0,-1.66 -1.34,-3 -3,-3 H 28 C 24,10 24,8 21,8 Z" id="udi"></path></defs>
<g id="content" transform="translate(0,0)"><use class="sync-color enable-if__color-sync-mimes-places force-display-for-editing ColorScheme-ActiveText" fill="currentColor" href="#udh"></use><use class="primary-color remove-if__color-sync-mimes-places ColorScheme-ActiveText" fill="currentColor" href="#udh"></use><use class="ColorScheme-Contrast" fill="currentColor" href="#udh" opacity=".1"></use><g id="decal" transform="translate(16,21)"><path class="ColorScheme-Background" d="m 15,7 h -3 v 3 h 3 z m 1,0 v 3 h 3 V 7 Z m 8.5,2.5 c -1,0.8 -1.5,2.1 -1.2,3.3 0.4,1.2 1.4,2.1 2.7,2.2 0.4,1.2 1.5,2 2.8,2 1.3,0 2.4,-0.8 2.8,-2 -0.4,-1.2 -1.5,-2 -2.8,-2 -0.6,0 -1.2,0.2 -1.7,0.5 .23,-0.5 0.2,-1.2 0.1,-1.8 C 26.9,10.5 25.8,9.6 24.5,9.5 Z M 26,15 H 2 c 0,6.6 5.4,10 12,10 6.6,0 12,-3.4 12,-10 z M 10,11 H 7 v 3 h 3 z m 4,0 h -3 v 3 h 3 z m 4,0 h -3 v 3 h 3 z m 4,0 h -3 v 3 h 3 z M 7,17 c 0.5,0 1,0.4 1,1 0,0.5 -0.5,1 -1,1 -0.6,0 -1,-0.5 -1,-1 0,-0.6 0.4,-1 1,-1 z" fill="currentColor" opacity=".6"/><path class="ColorScheme-Background" d="m 12,7 v 3 h 3 V 7 Z m 4,0 v 3 h 3 V 7 Z m -3.5,0.5 h 2 l .03,2 H 12.5 Z m 4,0 h 2 v 2 h -2 z m 8,2 c -1,0.8 -1.5,2.1 -1.2,3.3 C 23.7,14 24.7,14.9 26,15 c 0.4,1.2 1.5,2 2.8,2 1.3,0 2.4,-0.8 2.8,-2 -0.4,-1.2 -1.5,-2 -2.8,-2 -0.6,0 -1.2,0.2 -1.7,0.5 .23,-0.5 .2,-1.2 .1,-1.8 C 26.9,10.5 25.8,9.6 24.5,9.5 Z M 26,15 H 2 c 0,6.6 5.4,10 12,10 6.6,0 12,-3.4 12,-10 z m -1.33,-4.9 c 1,.17 1.8,.83 2.03,1.7 .1,.55 .1,1.17 -.06,1.5 L 26.1,14.5 h -.05 C 24.96,14.4 24.14,13.7 23.8,12.66 23.57,11.75 23.95,10.77 24.67,10.1 Z M 7,11 v 3 h 3 v -3 z m 4,0 v 3 h 3 v -3 z m 4,0 v 3 h 3 v -3 z m 4,0 v 3 h 3 V 11 Z M 7.5,11.5 h 2 v 2 h -2 z m 4,0 h 2 v 2 h -2 z m 4,0 h 2 v 2 h -2 z m 4,0 h 2 v 2 h -2 z m 9.3,2 c 1,0 1.83,.6 2.2,1.5 -.4,.9 -1.2,1.5 -2.2,1.5 C 27.7,16.5 26.85,15.85 26.5,14.9 V 14.5 h -.1 l .95,-.57 C 27.8,13.67 28.3,13.5 28.8,13.5 Z m -26.25,2 H 25.45 C 25.3,18.5 24.1,20.6 22.17,22.1 20.1,23.67 17.2,24.5 14,24.5 10.8,24.5 7.9,23.67 5.83,22.1 3.9,20.6 2.7,18.5 2.55,15.5 Z M 7,16.5 C 6.6,16.5 6.2,16.65 5.9,16.9 5.65,17.2 5.5,17.6 5.5,18 c 0,.77 .6,1.5 1.5,1.5 .4,0 .77,-.2 1.04,-.46 C 8.3,18.77 8.5,18.4 8.5,18 8.5,17.1 7.77,16.5 7,16.5 Z M 7,17 c 0.5,0 1,0.4 1,1 0,0.5 -0.5,1 -1,1 -0.6,0 -1,-0.5 -1,-1 0,-0.6 0.4,-1 1,-1 z" fill="currentColor" opacity=".6"/></g><use href="#udi" opacity=".4"></use><use fill="url(#udg)" href="#udi" opacity=".1"></use><path d="m 26,16 c -2,0 -4,2 -6,2 H 6 c -1.11,0 -2,.9 -2,2 v 34 c 0,1.1 .9,2 2,2 h 52 c 1.1,0 2,-.9 2,-2 V 18 c 0,-1.1 -.9,-2 -2,-2 z" fill="url(#udf)" opacity=".2"/><path class="ColorScheme-Contrast" d="m 4,52 v 1 c 0,1.66 1.34,3 3,3 h 50 c 1.66,0 3,-1.34 3,-3 v -1 c 0,1.66 -1.34,3 -3,3 H 7 C 5.34,55 4,53.66 4,52 Z" fill="currentColor" opacity=".1"/><path class="ColorScheme-Contrast" d="M 4,52.5 V 53 c 0,1.66 1.34,3 3,3 h 50 c 1.66,0 3,-1.34 3,-3 v -0.5 c 0,1.66 -1.34,3 -3,3 H 7 c -1.66,0 -3,-1.34 -3,-3 z" fill="currentColor" opacity=".2"/><path d="m 27,16 c -3,0 -3,2 -7,2 H 7 c -1.66,0 -3,1.34 -3,3 v 1 c 0,-1.66 1.34,-3 3,-3 h 13 c 4,0 4,-2 7,-2 h 30 c 1.66,0 3,1.34 3,3 v -1 c 0,-1.66 -1.34,-3 -3,-3 z" fill="#fff" opacity=".1"/><path d="m 27,16 c -3,0 -3,2 -7,2 H 7 c -1.66,0 -3,1.34 -3,3 v 0.5 c 0,-1.66 1.34,-3 3,-3 h 13 c 4,0 4,-2 7,-2 h 30 c 1.66,0 3,1.34 3,3 V 19 c 0,-1.66 -1.34,-3 -3,-3 z" fill="#fff" opacity=".2"/><path d="m 27,15 c -3,0 -3,2 -7,2 H 7 v 1 h 13 c 4,0 4,-2 7,-2 h 30 v -1 z" opacity=".1"/><path d="m 27,15.5 c -3,0 -3,2 -7,2 H 7 V 18 h 13 c 4,0 4,-2 7,-2 h 30 v -0.5 z" opacity=".2"/></g>
</svg>