<svg height="64" version="1.1" width="64" xmlns="http://www.w3.org/2000/svg" xmlns:svg="http://www.w3.org/2000/svg" xmlns:xlink="http://www.w3.org/1999/xlink">
<defs id="primary-definitions">
<style id="current-color-scheme" type="text/css">
      .ColorScheme-Text         { color: #232629; }
      .ColorScheme-Background   { color: #eff0f1; }
      .ColorScheme-Highlight    { color: #7ec9f0; }
      .ColorScheme-PositiveText { color: #27ae60; }
      .ColorScheme-NeutralText  { color: #f67400; }
      .ColorScheme-NegativeText { color: #da4453; }
      .ColorScheme-ActiveText   { color: #3daee9; }
      .ColorScheme-Complement   { color: #ffffff; }
      .ColorScheme-Contrast     { color: #000000; }
    </style>
<style id="extended-color-scheme" type="text/css">
      .ExScheme-Black     { color:#3e3e3e; }
      .ExScheme-White     { color:#fcfcfc; }
      .ExScheme-Grey-1    { color:#cfd5d5; }
      .ExScheme-Grey-2    { color:#909c9c; }
      .ExScheme-Grey-3    { color:#536161; }
      .ExScheme-Red-1     { color:#ffafa5; }
      .ExScheme-Red-2     { color:#bf4231; }
      .ExScheme-Red-3     { color:#4d2f2b; }
      .ExScheme-Green-1   { color:#abf9c7; }
      .ExScheme-Green-2   { color:#3bb566; }
      .ExScheme-Green-3   { color:#377d50; }
      .ExScheme-Blue-1    { color:#abdaf9; }
      .ExScheme-Blue-2    { color:#3daefd; }
      .ExScheme-Blue-3    { color:#2b3c4d; }
      .ExScheme-Yellow-1  { color:#faffa5; }
      .ExScheme-Yellow-2  { color:#cac726; }
      .ExScheme-Yellow-3  { color:#4b4d2b; }
      .ExScheme-Orange-1  { color:#ffdaa5; }
      .ExScheme-Orange-2  { color:#ff9701; }
      .ExScheme-Orange-3  { color:#4d372b; }
      .ExScheme-Brown-1   { color:#e9d6bb; }
      .ExScheme-Brown-2   { color:#997657; }
      .ExScheme-Brown-3   { color:#433a35; }
      .ExScheme-Purple-1  { color:#e2abf9; }
      .ExScheme-Purple-2  { color:#b401ff; }
      .ExScheme-Purple-3  { color:#432b4d; }
      .ExScheme-Cyan-1    { color:#b2f2e6; }
      .ExScheme-Cyan-2    { color:#31bfa6; }
      .ExScheme-Cyan-3    { color:#2b4d47; }
      .ExScheme-Magenta-1 { color:#f8a6d8; }
      .ExScheme-Magenta-2 { color:#f00091; }
      .ExScheme-Magenta-3 { color:#770048; }
    </style>
<linearGradient id="up4">
<stop offset="0"/>
<stop offset="1" stop-opacity="0"/>
</linearGradient>
<linearGradient id="up5">
<stop offset="0" stop-color="#fff"/>
<stop offset="1" stop-color="#fff" stop-opacity="0"/>
</linearGradient>
<style id="up6" type="text/css">
        .force-display-for-editing { display: inline !important; }
    </style><style class="remove-if__show-crease" type="text/css">
        .enable-if__show-crease { display: none; }
    </style><style class="remove-if__color-sync-mimes-places" type="text/css">
        .enable-if__color-sync-mimes-places { display: none; }
    </style><radialGradient cx=".5" cy="0" id="up7" r="1" xlink:href="#up5"/><linearGradient id="up8" xlink:href="#up4" y1="1" y2=".5"/><style class="ColorScheme-Background" fill="currentColor" opacity=".6" type="text/css">
   .ColorScheme-Text           { color:#eff0f1; }
      .ColorScheme-Background     { color:#31363b; }
      .ColorScheme-Highlight      { color:#3daefd; }
      .ColorScheme-ViewBackground { color:#fcfcfc; }
      .ColorScheme-PositiveText   { color:#27ae60; }
      .ColorScheme-NeutralText    { color:#f67400; }
      .ColorScheme-NegativeText   { color:#da4453; }
  </style><path d="M 10,8 C 8.34,8 7,9.34 7,11 v 7 c -1.66,0 -3,1.34 -3,3 v 32 c 0,1.66 1.34,3 3,3 h 50 c 1.66,0 3,-1.34 3,-3 V 26 21 19 c 0,-1.66 -1.34,-3 -3,-3 v -3 c 0,-1.66 -1.34,-3 -3,-3 H 28 C 24,10 24,8 21,8 Z" id="up9"></path><path d="M 10,8 C 8.34,8 7,9.34 7,11 v 7 h 13 c 4,0 4,-2 7,-2 h 30 v -3 c 0,-1.66 -1.34,-3 -3,-3 H 28 C 24,10 24,8 21,8 Z" id="upa"></path></defs>
<g id="content" transform="translate(0,0)"><use class="sync-color enable-if__color-sync-mimes-places force-display-for-editing ColorScheme-ActiveText" fill="currentColor" href="#up9"></use><use class="primary-color remove-if__color-sync-mimes-places ColorScheme-ActiveText" fill="currentColor" href="#up9"></use><use class="ColorScheme-Contrast" fill="currentColor" href="#up9" opacity=".1"></use><g id="decal" transform="translate(16,21)"><path class="ColorScheme-Background" d="M 12.1 3 C 10.54 3 9.3 4.25 9.3 5.8 L 9.3 6.63 L 4.8 6.63 C 3.27 6.63 2 7.9 2 9.43 L 2 21.4 C 2 22.15 2.3 22.9 2.8 23.47 L 8.3 29.8 L 8.3 22.8 L 19 22.8 C 20.56 22.8 21.8 21.54 21.8 20 L 21.8 16.45 L 23.8 16.45 L 23.8 23.43 L 28.4 18.1 C 29.4 16.9 30 15.33 30 13.73 L 30 5.8 C 30 4.25 28.74 3 27.2 3 L 12.1 3 z M 13.54 5.6 L 25.73 5.6 C 26.65 5.6 27.4 6.34 27.4 7.26 L 27.4 12.2 C 27.4 13.1 26.65 13.83 25.73 13.83 L 13.54 13.83 C 12.6 13.83 11.9 13.1 11.9 12.2 L 11.9 7.26 C 11.9 6.34 12.6 5.6 13.54 5.6 z M 6.27 9.24 L 9.3 9.24 L 9.3 13.87 C 9.3 15.3 10.43 16.45 11.85 16.45 L 19.2 16.45 L 19.2 18.54 C 19.2 19.46 18.47 20.2 17.56 20.2 L 6.27 20.2 C 5.36 20.2 4.63 19.46 4.63 18.54 L 4.63 10.9 C 4.63 10 5.36 9.24 6.27 9.24 z " fill="currentColor" opacity=".6"/><path class="ColorScheme-Background" d="m 12.1,3 c -1.54,0 -2.8,1.26 -2.8,2.8 V 6.63 H 4.8 c -1.54,0 -2.8,1.26 -2.8,2.8 v 11.95 c 0,.77 .27,1.5 .77,2.1 l 5.4,6.3 V 22.8 H 19 c 1.54,0 2.8,-1.26 2.8,-2.8 v -3.55 h 2 v 7 L 28.4,18.1 c 1.04,-1.2 1.6,-2.77 1.6,-4.4 V 5.8 c 0,-1.54 -1.26,-2.8 -2.8,-2.8 z m 0,.5 h 15.1 c 1.3,0 2.3,1.03 2.3,2.3 v 7.93 c 0,1.5 -.53,2.93 -1.5,4.06 l -3.7,4.3 v -6.15 h -2.97 v 4.04 c 0,1.3 -1.03,2.3 -2.3,2.3 H 7.7 v 6.15 L 3.16,23.15 C 2.74,22.66 2.5,22.03 2.5,21.4 V 9.43 c 0,-1.3 1.03,-2.3 2.3,-2.3 H 9.77 V 5.8 c 0,-1.3 1.03,-2.3 2.3,-2.3 z m 1.46,1.63 c -1.2,0 -2.13,.96 -2.13,2.13 v 4.93 c 0,1.2 .96,2.13 2.13,2.13 h 12.2 c 1.2,0 2.13,-.96 2.13,-2.13 v -4.93 c 0,-1.2 -.96,-2.13 -2.13,-2.13 z m 0,.5 h 12.2 c .9,0 1.64,.73 1.64,1.64 v 4.93 c 1e-6,.9 -.73,1.64 -1.64,1.64 H 13.54 c -.9,0 -1.64,-.73 -1.64,-1.64 v -4.93 c 0,-.9 .73,-1.64 1.64,-1.64 z M 6.27,8.75 c -1.2,0 -2.13,.96 -2.13,2.13 v 7.66 c 10e-8,1.2 .96,2.13 2.13,2.13 H 17.56 c 1.2,0 2.14,-.96 2.14,-2.13 v -2.6 h -7.84 c -1.15,0 -2.1,-.93 -2.1,-2.1 v -5.1 z m 0,.5 h 3 v 4.63 c 0,1.4 1.15,2.57 2.57,2.57 h 7.35 v 2.1 c 0,.9 -.73,1.64 -1.65,1.64 H 6.27 c -.9,0 -1.64,-.73 -1.64,-1.64 v -7.66 c 0,-.9 .73,-1.64 1.64,-1.64 z" fill="currentColor" opacity=".6"/></g><use href="#upa" opacity=".4"></use><use fill="url(#up8)" href="#upa" opacity=".1"></use><path d="m 26,16 c -2,0 -4,2 -6,2 H 6 c -1.11,0 -2,.9 -2,2 v 34 c 0,1.1 .9,2 2,2 h 52 c 1.1,0 2,-.9 2,-2 V 18 c 0,-1.1 -.9,-2 -2,-2 z" fill="url(#up7)" opacity=".2"/><path class="ColorScheme-Contrast" d="m 4,52 v 1 c 0,1.66 1.34,3 3,3 h 50 c 1.66,0 3,-1.34 3,-3 v -1 c 0,1.66 -1.34,3 -3,3 H 7 C 5.34,55 4,53.66 4,52 Z" fill="currentColor" opacity=".1"/><path class="ColorScheme-Contrast" d="M 4,52.5 V 53 c 0,1.66 1.34,3 3,3 h 50 c 1.66,0 3,-1.34 3,-3 v -0.5 c 0,1.66 -1.34,3 -3,3 H 7 c -1.66,0 -3,-1.34 -3,-3 z" fill="currentColor" opacity=".2"/><path d="m 27,16 c -3,0 -3,2 -7,2 H 7 c -1.66,0 -3,1.34 -3,3 v 1 c 0,-1.66 1.34,-3 3,-3 h 13 c 4,0 4,-2 7,-2 h 30 c 1.66,0 3,1.34 3,3 v -1 c 0,-1.66 -1.34,-3 -3,-3 z" fill="#fff" opacity=".1"/><path d="m 27,16 c -3,0 -3,2 -7,2 H 7 c -1.66,0 -3,1.34 -3,3 v 0.5 c 0,-1.66 1.34,-3 3,-3 h 13 c 4,0 4,-2 7,-2 h 30 c 1.66,0 3,1.34 3,3 V 19 c 0,-1.66 -1.34,-3 -3,-3 z" fill="#fff" opacity=".2"/><path d="m 27,15 c -3,0 -3,2 -7,2 H 7 v 1 h 13 c 4,0 4,-2 7,-2 h 30 v -1 z" opacity=".1"/><path d="m 27,15.5 c -3,0 -3,2 -7,2 H 7 V 18 h 13 c 4,0 4,-2 7,-2 h 30 v -0.5 z" opacity=".2"/></g>
</svg>