<svg height="64" version="1.1" width="64" xmlns="http://www.w3.org/2000/svg" xmlns:svg="http://www.w3.org/2000/svg" xmlns:xlink="http://www.w3.org/1999/xlink">
<defs id="primary-definitions">
<style id="current-color-scheme" type="text/css">
      .ColorScheme-Text           { color:#fff; }
      .ColorScheme-Background     { color:#111; }
      .ColorScheme-Highlight      { color:#3daefd; }
      .ColorScheme-ViewBackground { color:#000; }
      .ColorScheme-PositiveText   { color:#27ae60; }
      .ColorScheme-NeutralText    { color:#f67400; }
      .ColorScheme-NegativeText   { color:#da4453; }
    </style>
<style id="extended-color-scheme" type="text/css">
      .ExScheme-Black     { color:#3e3e3e; }
      .ExScheme-White     { color:#fcfcfc; }
      .ExScheme-Grey-1    { color:#cfd5d5; }
      .ExScheme-Grey-2    { color:#909c9c; }
      .ExScheme-Grey-3    { color:#536161; }
      .ExScheme-Red-1     { color:#ffafa5; }
      .ExScheme-Red-2     { color:#bf4231; }
      .ExScheme-Red-3     { color:#4d2f2b; }
      .ExScheme-Green-1   { color:#abf9c7; }
      .ExScheme-Green-2   { color:#3bb566; }
      .ExScheme-Green-3   { color:#377d50; }
      .ExScheme-Blue-1    { color:#abdaf9; }
      .ExScheme-Blue-2    { color:#3daefd; }
      .ExScheme-Blue-3    { color:#2b3c4d; }
      .ExScheme-Yellow-1  { color:#faffa5; }
      .ExScheme-Yellow-2  { color:#cac726; }
      .ExScheme-Yellow-3  { color:#4b4d2b; }
      .ExScheme-Orange-1  { color:#ffdaa5; }
      .ExScheme-Orange-2  { color:#ff9701; }
      .ExScheme-Orange-3  { color:#4d372b; }
      .ExScheme-Brown-1   { color:#e9d6bb; }
      .ExScheme-Brown-2   { color:#997657; }
      .ExScheme-Brown-3   { color:#433a35; }
      .ExScheme-Purple-1  { color:#e2abf9; }
      .ExScheme-Purple-2  { color:#b401ff; }
      .ExScheme-Purple-3  { color:#432b4d; }
      .ExScheme-Cyan-1    { color:#b2f2e6; }
      .ExScheme-Cyan-2    { color:#31bfa6; }
      .ExScheme-Cyan-3    { color:#2b4d47; }
      .ExScheme-Magenta-1 { color:#f8a6d8; }
      .ExScheme-Magenta-2 { color:#f00091; }
      .ExScheme-Magenta-3 { color:#770048; }
    </style>
<linearGradient id="ukb">
<stop offset="0"/>
<stop offset="1" stop-opacity="0"/>
</linearGradient>
<linearGradient id="ukc">
<stop offset="0" stop-color="#fff"/>
<stop offset="1" stop-color="#fff" stop-opacity="0"/>
</linearGradient>
<style class="toggle-enable-crease" type="text/css">
        .folder-crease { display: none; }
    </style><style class="toggle-manilla-folders" type="text/css">
        .folder-manilla { display: none; }
    </style><radialGradient cx=".5" cy="0" id="ukd" r="1" xlink:href="#ukc"/><linearGradient id="uke" xlink:href="#ukb" y1="1" y2=".5"/><path d="M 10,8 C 8.34,8 7,9.34 7,11 v 7 c -1.66,0 -3,1.34 -3,3 v 32 c 0,1.66 1.34,3 3,3 h 50 c 1.66,0 3,-1.34 3,-3 V 26 21 19 c 0,-1.66 -1.34,-3 -3,-3 v -3 c 0,-1.66 -1.34,-3 -3,-3 H 28 C 24,10 24,8 21,8 Z" id="ukf"></path><path d="M 10,8 C 8.34,8 7,9.34 7,11 v 7 h 13 c 4,0 4,-2 7,-2 h 30 v -3 c 0,-1.66 -1.34,-3 -3,-3 H 28 C 24,10 24,8 21,8 Z" id="ukg"></path></defs>
<g id="content" transform="translate(0,0)"><use class="folder-manilla ExScheme-Brown-1" fill="currentColor" href="#ukf"></use><use class="toggle-manilla-folders ColorScheme-Highlight" fill="currentColor" href="#ukf" id="primary-color"></use><use class="ColorScheme-Text" fill="currentColor" href="#ukf" opacity=".1"></use><g id="panorama" transform="translate(4,16)"><path class="ColorScheme-Background" d="M 22 0 L 22 16 L 18 16 C 17.1 16 16.66 17.1 17.3 17.7 L 28 28.5 L 38.7 17.7 C 39.34 17.1 38.9 16 38 16 L 34 16 L 34 0 L 22 0 z M 17.33 24 C 16.8 24 16.2 24.15 15.9 24.6 L 12.67 30 C 12.1 30.95 13.56 32 14.67 32 L 41.33 32 C 42.44 32 43.9 30.95 43.33 30 L 40.1 24.6 C 39.8 24.15 39.2 24 38.67 24 L 33.87 24 L 28.7 29.2 A 1 1 0 0 1 27.3 29.2 L 22.13 24 L 17.33 24 z M 12 31.84 L 12 33.83 C 12 34.94 12.9 36 14 36 L 42 36 C 43.1 36 44 34.94 44 33.83 L 44 31.84 C 43.7 32.5 42.8 33 42 33 L 14 33 C 13.2 33 12.3 32.5 12 31.84 z M 39.5 34 A 0.5 0.5 0 0 1 40 34.5 A 0.5 0.5 0 0 1 39.5 35 A 0.5 0.5 0 0 1 39 34.5 A 0.5 0.5 0 0 1 39.5 34 z M 41.5 34 A 0.5 0.5 0 0 1 42 34.5 A 0.5 0.5 0 0 1 41.5 35 A 0.5 0.5 0 0 1 41 34.5 A 0.5 0.5 0 0 1 41.5 34 z " fill="currentColor" opacity=".6" stop-color="#000000"/><path class="ColorScheme-Background" d="M 22 0 L 22 16 L 18 16 C 17.1 16 16.66 17.1 17.3 17.7 L 28 28.5 L 38.7 17.7 C 39.34 17.1 38.9 16 38 16 L 34 16 L 34 0 L 22 0 z M 22.5 0.5 L 33.5 0.5 L 33.5 16 A .5 .5 0 0 0 34 16.5 L 38 16.5 C 38.24 16.5 38.4 16.63 38.46 16.8 C 38.54 17 38.53 17.2 38.35 17.35 A .5 .5 0 0 0 38.35 17.36 L 28 27.8 L 17.65 17.36 A .5 .5 0 0 0 17.65 17.35 C 17.47 17.2 17.46 17 17.54 16.8 C 17.6 16.63 17.76 16.5 18 16.5 L 22 16.5 A .5 .5 0 0 0 22.5 16 L 22.5 0.5 z M 17.33 24 C 16.8 24 16.2 24.15 15.9 24.6 L 12.67 30 C 12.1 30.95 13.56 32 14.67 32 L 41.33 32 C 42.44 32 43.9 30.95 43.33 30 L 40.1 24.6 C 39.8 24.15 39.2 24 38.67 24 L 33.87 24 L 28.7 29.2 A 1 1 0 0 1 27.3 29.2 L 22.13 24 L 17.33 24 z M 17.33 24.5 L 21.9 24.5 L 26.94 29.56 A .5 .5 0 0 0 26.94 29.56 C 27.5 30.14 28.5 30.14 29.06 29.56 A .5 .5 0 0 0 29.06 29.56 L 34.1 24.5 L 38.67 24.5 C 39.13 24.5 39.54 24.65 39.65 24.84 L 42.9 30.26 C 43 30.4 43 30.44 42.94 30.56 C 42.9 30.7 42.8 30.83 42.63 31 C 42.3 31.27 41.73 31.5 41.33 31.5 L 14.67 31.5 C 14.27 31.5 13.7 31.27 13.37 31 C 13.2 30.83 13.1 30.7 13.06 30.56 C 13 30.44 13 30.4 13.1 30.26 L 16.35 24.84 C 16.46 24.65 16.87 24.5 17.33 24.5 z M 12 31.84 L 12 33.83 C 12 34.94 12.9 36 14 36 L 42 36 C 43.1 36 44 34.94 44 33.83 L 44 31.84 C 43.7 32.5 42.8 33 42 33 L 14 33 C 13.2 33 12.3 32.5 12 31.84 z M 12.5 33.06 C 12.95 33.34 13.47 33.5 14 33.5 L 39.5 33.5 L 41.5 33.5 L 42 33.5 C 42.53 33.5 43.05 33.34 43.5 33.06 L 43.5 33.83 C 43.5 34.67 42.8 35.5 42 35.5 L 41.5 35.5 L 39.5 35.5 L 14 35.5 C 13.2 35.5 12.5 34.67 12.5 33.83 L 12.5 33.06 z M 39.5 35.5 C 40.05 35.5 40.5 35.05 40.5 34.5 C 40.5 33.95 40.05 33.5 39.5 33.5 C 38.95 33.5 38.5 33.95 38.5 34.5 C 38.5 35.05 38.95 35.5 39.5 35.5 z M 40.5 34.5 C 40.5 35.05 40.95 35.5 41.5 35.5 C 42.05 35.5 42.5 35.05 42.5 34.5 C 42.5 33.95 42.05 33.5 41.5 33.5 C 40.95 33.5 40.5 33.95 40.5 34.5 z M 39.5 34 A 0.5 0.5 0 0 1 40 34.5 A 0.5 0.5 0 0 1 39.5 35 A 0.5 0.5 0 0 1 39 34.5 A 0.5 0.5 0 0 1 39.5 34 z M 41.5 34 A 0.5 0.5 0 0 1 42 34.5 A 0.5 0.5 0 0 1 41.5 35 A 0.5 0.5 0 0 1 41 34.5 A 0.5 0.5 0 0 1 41.5 34 z " fill="currentColor" opacity=".6"/></g><use href="#ukg" opacity=".4"></use><use class="toggle-flat-design" fill="url(#uke)" href="#ukg" opacity=".1"></use><path class="toggle-flat-design" d="m 26,16 c -2,0 -4,2 -6,2 H 6 c -1.11,0 -2,.9 -2,2 v 34 c 0,1.1 .9,2 2,2 h 52 c 1.1,0 2,-.9 2,-2 V 18 c 0,-1.1 -.9,-2 -2,-2 z" fill="url(#ukd)" opacity=".2"/><path class="folder-crease " d="m 4,44 v 2 H 6 C 6.55,46 7,45.55 7,45 7,44.45 6.55,44 6,44 Z m 54,0 c -.55,0 -1,.45 -1,1 0,.55 .45,1 1,1 h 2 v -2 z" opacity=".4"/><path class="ColorScheme-Text" d="m 4,52 v 1 c 0,1.66 1.34,3 3,3 h 50 c 1.66,0 3,-1.34 3,-3 v -1 c 0,1.66 -1.34,3 -3,3 H 7 C 5.34,55 4,53.66 4,52 Z" fill="currentColor" opacity=".1"/><path class="ColorScheme-Text" d="M 4,52.5 V 53 c 0,1.66 1.34,3 3,3 h 50 c 1.66,0 3,-1.34 3,-3 v -0.5 c 0,1.66 -1.34,3 -3,3 H 7 c -1.66,0 -3,-1.34 -3,-3 z" fill="currentColor" opacity=".2"/><path d="m 27,16 c -3,0 -3,2 -7,2 H 7 c -1.66,0 -3,1.34 -3,3 v 1 c 0,-1.66 1.34,-3 3,-3 h 13 c 4,0 4,-2 7,-2 h 30 c 1.66,0 3,1.34 3,3 v -1 c 0,-1.66 -1.34,-3 -3,-3 z" fill="#fff" opacity=".1"/><path d="m 27,16 c -3,0 -3,2 -7,2 H 7 c -1.66,0 -3,1.34 -3,3 v 0.5 c 0,-1.66 1.34,-3 3,-3 h 13 c 4,0 4,-2 7,-2 h 30 c 1.66,0 3,1.34 3,3 V 19 c 0,-1.66 -1.34,-3 -3,-3 z" fill="#fff" opacity=".2"/><path d="m 27,15 c -3,0 -3,2 -7,2 H 7 v 1 h 13 c 4,0 4,-2 7,-2 h 30 v -1 z" opacity=".1"/><path d="m 27,15.5 c -3,0 -3,2 -7,2 H 7 V 18 h 13 c 4,0 4,-2 7,-2 h 30 v -0.5 z" opacity=".2"/></g>
</svg>