<svg height="64" version="1.1" width="64" xmlns="http://www.w3.org/2000/svg" xmlns:svg="http://www.w3.org/2000/svg" xmlns:xlink="http://www.w3.org/1999/xlink">
<defs id="primary-definitions">
<style id="current-color-scheme" type="text/css">
      .ColorScheme-Text         { color: #232629; }
      .ColorScheme-Background   { color: #eff0f1; }
      .ColorScheme-Highlight    { color: #7ec9f0; }
      .ColorScheme-PositiveText { color: #27ae60; }
      .ColorScheme-NeutralText  { color: #f67400; }
      .ColorScheme-NegativeText { color: #da4453; }
      .ColorScheme-ActiveText   { color: #3daee9; }
      .ColorScheme-Complement   { color: #ffffff; }
      .ColorScheme-Contrast     { color: #000000; }
    </style>
<style id="extended-color-scheme" type="text/css">
      .ExScheme-Black     { color:#3e3e3e; }
      .ExScheme-White     { color:#fcfcfc; }
      .ExScheme-Grey-1    { color:#cfd5d5; }
      .ExScheme-Grey-2    { color:#909c9c; }
      .ExScheme-Grey-3    { color:#536161; }
      .ExScheme-Red-1     { color:#ffafa5; }
      .ExScheme-Red-2     { color:#bf4231; }
      .ExScheme-Red-3     { color:#4d2f2b; }
      .ExScheme-Green-1   { color:#abf9c7; }
      .ExScheme-Green-2   { color:#3bb566; }
      .ExScheme-Green-3   { color:#377d50; }
      .ExScheme-Blue-1    { color:#abdaf9; }
      .ExScheme-Blue-2    { color:#3daefd; }
      .ExScheme-Blue-3    { color:#2b3c4d; }
      .ExScheme-Yellow-1  { color:#faffa5; }
      .ExScheme-Yellow-2  { color:#cac726; }
      .ExScheme-Yellow-3  { color:#4b4d2b; }
      .ExScheme-Orange-1  { color:#ffdaa5; }
      .ExScheme-Orange-2  { color:#ff9701; }
      .ExScheme-Orange-3  { color:#4d372b; }
      .ExScheme-Brown-1   { color:#e9d6bb; }
      .ExScheme-Brown-2   { color:#997657; }
      .ExScheme-Brown-3   { color:#433a35; }
      .ExScheme-Purple-1  { color:#e2abf9; }
      .ExScheme-Purple-2  { color:#b401ff; }
      .ExScheme-Purple-3  { color:#432b4d; }
      .ExScheme-Cyan-1    { color:#b2f2e6; }
      .ExScheme-Cyan-2    { color:#31bfa6; }
      .ExScheme-Cyan-3    { color:#2b4d47; }
      .ExScheme-Magenta-1 { color:#f8a6d8; }
      .ExScheme-Magenta-2 { color:#f00091; }
      .ExScheme-Magenta-3 { color:#770048; }
    </style>
<linearGradient id="uhW">
<stop offset="0"/>
<stop offset="1" stop-opacity="0"/>
</linearGradient>
<linearGradient id="uhX">
<stop offset="0" stop-color="#fff"/>
<stop offset="1" stop-color="#fff" stop-opacity="0"/>
</linearGradient>
<style id="uhY" type="text/css">
        .force-display-for-editing { display: inline !important; }
    </style><style class="remove-if__show-crease" type="text/css">
        .enable-if__show-crease { display: none; }
    </style><style class="remove-if__color-sync-mimes-places" type="text/css">
        .enable-if__color-sync-mimes-places { display: none; }
    </style><radialGradient cx=".5" cy="0" id="uhZ" r="1" xlink:href="#uhX"/><linearGradient id="ui0" xlink:href="#uhW" y1="1" y2=".5"/><style class="ColorScheme-Background" fill="currentColor" opacity=".6" type="text/css">
   .ColorScheme-Text           { color:#eff0f1; }
      .ColorScheme-Background     { color:#31363b; }
      .ColorScheme-Highlight      { color:#3daefd; }
      .ColorScheme-ViewBackground { color:#fcfcfc; }
      .ColorScheme-PositiveText   { color:#27ae60; }
      .ColorScheme-NeutralText    { color:#f67400; }
      .ColorScheme-NegativeText   { color:#da4453; }
  </style><path d="M 10,8 C 8.34,8 7,9.34 7,11 v 7 c -1.66,0 -3,1.34 -3,3 v 32 c 0,1.66 1.34,3 3,3 h 50 c 1.66,0 3,-1.34 3,-3 V 26 21 19 c 0,-1.66 -1.34,-3 -3,-3 v -3 c 0,-1.66 -1.34,-3 -3,-3 H 28 C 24,10 24,8 21,8 Z" id="ui1"></path><path d="M 10,8 C 8.34,8 7,9.34 7,11 v 7 h 13 c 4,0 4,-2 7,-2 h 30 v -3 c 0,-1.66 -1.34,-3 -3,-3 H 28 C 24,10 24,8 21,8 Z" id="ui2"></path></defs>
<g id="content" transform="translate(0,0)"><use class="sync-color enable-if__color-sync-mimes-places force-display-for-editing ColorScheme-ActiveText" fill="currentColor" href="#ui1"></use><use class="primary-color remove-if__color-sync-mimes-places ColorScheme-ActiveText ExScheme-Grey-3" fill="currentColor" href="#ui1"></use><use class="ColorScheme-Contrast" fill="currentColor" href="#ui1" opacity=".1"></use><g id="panorama" transform="translate(4,16)"><g id="decal" transform="translate(12,4)"><path class="ExScheme-White" d="M 16 2 C 11.6 2 8 5.6 8 10 A 1.5 1.5 0 0 0 9.5 11.5 A 1.5 1.5 0 0 0 11 10 A 5 5 0 0 1 16 5 A 5 5 0 0 1 21 10 L 21 16 L 10 16 L 8 16 C 6.9 16 6 16.9 6 18 L 6 28 C 6 29.1 6.9 30 8 30 L 24 30 C 25.1 30 26 29.1 26 28 L 26 18 C 26 16.9 25.1 16 24 16 L 24 10 C 24 5.6 20.4 2 16 2 z M 16 3 C 19.87 3 23 6.13 23 10 L 23 16 L 22 16 L 22 10 A 6 6 0 0 0 16 4 A 6 6 0 0 0 10 10 A 0.5 0.5 0 0 1 9.5 10.5 A 0.5 0.5 0 0 1 9 10 C 9 6.13 12.13 3 16 3 z M 8 17 L 24 17 C 24.55 17 25 17.45 25 18 L 25 28 C 25 28.55 24.55 29 24 29 L 8 29 C 7.45 29 7 28.55 7 28 L 7 18 C 7 17.45 7.45 17 8 17 z " fill="currentColor" opacity=".6" stop-color="#000000"/><path class="ExScheme-White" d="M 16,2 C 11.6,2 8,5.6 8,10 a 1.5,1.5 0 0 0 1.5,1.5 1.5,1.5 0 0 0 1.5,-1.5 5,5 0 0 1 5,-5 5,5 0 0 1 5,5 v 6 H 10 8 c -1.1,0 -2,.9 -2,2 v 10 c 0,1.1 .9,2 2,2 h 16 c 1.1,0 2,-.9 2,-2 V 18 c 0,-1.1 -.9,-2 -2,-2 V 10 C 24,5.6 20.4,2 16,2 Z m 0,1 c 3.87,0 7,3.13 7,7 v 6 H 22 V 10 A 6,6 0 0 0 16,4 6,6 0 0 0 10,10 0.5,0.5 0 0 1 9.5,10.5 0.5,0.5 0 0 1 9,10 C 9,6.13 12.13,3 16,3 Z M 8,17 h 16 c .55,0 1,.45 1,1 v 10 c 0,.55 -.45,1 -1,1 H 8 C 7.45,29 7,28.55 7,28 V 18 c 0,-.55 .45,-1 1,-1 z" fill="currentColor" opacity=".6" stop-color="#000000"/></g><path d="M 22 0 L 22 2 L 24 2 L 24 0 L 22 0 z M 24 2 L 24 4 L 26 4 L 26 2 L 24 2 z M 26 2 L 28 2 L 28 0 L 26 0 L 26 2 z M 28 2 L 28 4 L 30 4 L 30 2 L 28 2 z M 30 2 L 32 2 L 32 0 L 30 0 L 30 2 z M 32 2 L 32 4 L 34 4 L 34 2 L 32 2 z M 34 2 L 36 2 L 36 0 L 34 0 L 34 2 z M 36 2 L 36 4 L 38 4 L 38 2 L 36 2 z M 38 2 L 40 2 L 40 0 L 38 0 L 38 2 z M 40 2 L 40 4 L 42 4 L 42 2 L 40 2 z M 42 2 L 44 2 L 44 0 L 42 0 L 42 2 z M 44 2 L 44 4 L 46 4 L 46 2 L 44 2 z M 46 2 L 48 2 L 48 0 L 46 0 L 46 2 z M 48 2 L 48 4 L 50 4 L 50 2 L 48 2 z M 50 2 L 52 2 L 52 0 L 50 0 L 50 2 z M 52 2 L 52 4 L 54 4 L 54 2 L 52 2 z M 54 2 L 56 2 C 56 .9 55.1 0 54 0 L 54 2 z M 22 2 L 20 2 L 20 4 L 22 4 L 22 2 z M 20 2 L 20 .53 C 19.33 .8 18.67 1.2 18 1.47 L 18 2 L 20 2 z M 18 2 L 16 2 L 16 4 L 18 4 L 18 2 z M 2 2 C 0.89 2 0 2.9 0 4 L 2 4 L 2 2 z M 4 2 L 4 4 L 6 4 L 6 2 L 4 2 z M 8 2 L 8 4 L 10 4 L 10 2 L 8 2 z M 12 2 L 12 4 L 14 4 L 14 2 L 12 2 z " fill="#ffffff" id="rect3342" opacity=".2" stop-color="#000000"/></g><use href="#ui2" opacity=".4"></use><use fill="url(#ui0)" href="#ui2" opacity=".1"></use><path d="m 26,16 c -2,0 -4,2 -6,2 H 6 c -1.11,0 -2,.9 -2,2 v 34 c 0,1.1 .9,2 2,2 h 52 c 1.1,0 2,-.9 2,-2 V 18 c 0,-1.1 -.9,-2 -2,-2 z" fill="url(#uhZ)" opacity=".2"/><path class="ColorScheme-Contrast" d="m 4,52 v 1 c 0,1.66 1.34,3 3,3 h 50 c 1.66,0 3,-1.34 3,-3 v -1 c 0,1.66 -1.34,3 -3,3 H 7 C 5.34,55 4,53.66 4,52 Z" fill="currentColor" opacity=".1"/><path class="ColorScheme-Contrast" d="M 4,52.5 V 53 c 0,1.66 1.34,3 3,3 h 50 c 1.66,0 3,-1.34 3,-3 v -0.5 c 0,1.66 -1.34,3 -3,3 H 7 c -1.66,0 -3,-1.34 -3,-3 z" fill="currentColor" opacity=".2"/><path d="m 27,16 c -3,0 -3,2 -7,2 H 7 c -1.66,0 -3,1.34 -3,3 v 1 c 0,-1.66 1.34,-3 3,-3 h 13 c 4,0 4,-2 7,-2 h 30 c 1.66,0 3,1.34 3,3 v -1 c 0,-1.66 -1.34,-3 -3,-3 z" fill="#fff" opacity=".1"/><path d="m 27,16 c -3,0 -3,2 -7,2 H 7 c -1.66,0 -3,1.34 -3,3 v 0.5 c 0,-1.66 1.34,-3 3,-3 h 13 c 4,0 4,-2 7,-2 h 30 c 1.66,0 3,1.34 3,3 V 19 c 0,-1.66 -1.34,-3 -3,-3 z" fill="#fff" opacity=".2"/><path d="m 27,15 c -3,0 -3,2 -7,2 H 7 v 1 h 13 c 4,0 4,-2 7,-2 h 30 v -1 z" opacity=".1"/><path d="m 27,15.5 c -3,0 -3,2 -7,2 H 7 V 18 h 13 c 4,0 4,-2 7,-2 h 30 v -0.5 z" opacity=".2"/></g>
</svg>