<svg height="64" version="1.1" width="64" xmlns="http://www.w3.org/2000/svg" xmlns:svg="http://www.w3.org/2000/svg" xmlns:xlink="http://www.w3.org/1999/xlink">
<defs id="primary-definitions">
<style id="current-color-scheme" type="text/css">
      .ColorScheme-Text         { color: #232629; }
      .ColorScheme-Background   { color: #eff0f1; }
      .ColorScheme-Highlight    { color: #7ec9f0; }
      .ColorScheme-PositiveText { color: #27ae60; }
      .ColorScheme-NeutralText  { color: #f67400; }
      .ColorScheme-NegativeText { color: #da4453; }
      .ColorScheme-ActiveText   { color: #3daee9; }
      .ColorScheme-Complement   { color: #ffffff; }
      .ColorScheme-Contrast     { color: #000000; }
    </style>
<style id="extended-color-scheme" type="text/css">
      .ExScheme-Black     { color:#3e3e3e; }
      .ExScheme-White     { color:#fcfcfc; }
      .ExScheme-Grey-1    { color:#cfd5d5; }
      .ExScheme-Grey-2    { color:#909c9c; }
      .ExScheme-Grey-3    { color:#536161; }
      .ExScheme-Red-1     { color:#ffafa5; }
      .ExScheme-Red-2     { color:#bf4231; }
      .ExScheme-Red-3     { color:#4d2f2b; }
      .ExScheme-Green-1   { color:#abf9c7; }
      .ExScheme-Green-2   { color:#3bb566; }
      .ExScheme-Green-3   { color:#377d50; }
      .ExScheme-Blue-1    { color:#abdaf9; }
      .ExScheme-Blue-2    { color:#3daefd; }
      .ExScheme-Blue-3    { color:#2b3c4d; }
      .ExScheme-Yellow-1  { color:#faffa5; }
      .ExScheme-Yellow-2  { color:#cac726; }
      .ExScheme-Yellow-3  { color:#4b4d2b; }
      .ExScheme-Orange-1  { color:#ffdaa5; }
      .ExScheme-Orange-2  { color:#ff9701; }
      .ExScheme-Orange-3  { color:#4d372b; }
      .ExScheme-Brown-1   { color:#e9d6bb; }
      .ExScheme-Brown-2   { color:#997657; }
      .ExScheme-Brown-3   { color:#433a35; }
      .ExScheme-Purple-1  { color:#e2abf9; }
      .ExScheme-Purple-2  { color:#b401ff; }
      .ExScheme-Purple-3  { color:#432b4d; }
      .ExScheme-Cyan-1    { color:#b2f2e6; }
      .ExScheme-Cyan-2    { color:#31bfa6; }
      .ExScheme-Cyan-3    { color:#2b4d47; }
      .ExScheme-Magenta-1 { color:#f8a6d8; }
      .ExScheme-Magenta-2 { color:#f00091; }
      .ExScheme-Magenta-3 { color:#770048; }
    </style>
<linearGradient id="uhg">
<stop offset="0"/>
<stop offset="1" stop-opacity="0"/>
</linearGradient>
<linearGradient id="uhh">
<stop offset="0" stop-color="#fff"/>
<stop offset="1" stop-color="#fff" stop-opacity="0"/>
</linearGradient>
<style id="uhi" type="text/css">
        .force-display-for-editing { display: inline !important; }
    </style><style class="remove-if__show-crease" type="text/css">
        .enable-if__show-crease { display: none; }
    </style><style class="remove-if__color-sync-mimes-places" type="text/css">
        .enable-if__color-sync-mimes-places { display: none; }
    </style><radialGradient cx=".5" cy="0" id="uhj" r="1" xlink:href="#uhh"/><linearGradient id="uhk" xlink:href="#uhg" y1="1" y2=".5"/><style class="ColorScheme-Background" fill="currentColor" opacity=".6" type="text/css">
   .ColorScheme-Text           { color:#eff0f1; }
      .ColorScheme-Background     { color:#31363b; }
      .ColorScheme-Highlight      { color:#3daefd; }
      .ColorScheme-ViewBackground { color:#fcfcfc; }
      .ColorScheme-PositiveText   { color:#27ae60; }
      .ColorScheme-NeutralText    { color:#f67400; }
      .ColorScheme-NegativeText   { color:#da4453; }
  </style><path d="M 10,8 C 8.34,8 7,9.34 7,11 v 7 c -1.66,0 -3,1.34 -3,3 v 32 c 0,1.66 1.34,3 3,3 h 50 c 1.66,0 3,-1.34 3,-3 V 26 21 19 c 0,-1.66 -1.34,-3 -3,-3 v -3 c 0,-1.66 -1.34,-3 -3,-3 H 28 C 24,10 24,8 21,8 Z" id="uhl"></path><path d="M 10,8 C 8.34,8 7,9.34 7,11 v 7 h 13 c 4,0 4,-2 7,-2 h 30 v -3 c 0,-1.66 -1.34,-3 -3,-3 H 28 C 24,10 24,8 21,8 Z" id="uhm"></path></defs>
<g id="content" transform="translate(0,0)"><use class="sync-color enable-if__color-sync-mimes-places force-display-for-editing ColorScheme-ActiveText" fill="currentColor" href="#uhl"></use><use class="primary-color remove-if__color-sync-mimes-places ColorScheme-ActiveText" fill="#d70a53" href="#uhl"></use><use class="ColorScheme-Contrast" fill="currentColor" href="#uhl" opacity=".1"></use><g id="decal" transform="translate(16,21)"><path class="ColorScheme-Background" clip-rule="nonzero" color-interpolation="sRGB" color-interpolation-filters="linearRGB" color-rendering="auto" connector-curvature="0" d="M 17.8,28.93 C 16.4,28.7 14.4,27.9 13.2,27.1 10.46,25.3 8.7,23.35 7.6,20.9 7.2,20.07 7,19.44 6.45,17.3 6.3,16.74 6.13,16.15 6.06,15.97 5.63,14.6 6.2,12.17 6.3,12.03 6.43,12.15 6.6,11.77 6.7,11.1 6.8,9.84 7.4,8.9 7.9,8.1 8.34,7.3 8.6,7.03 8.67,7.05 8.74,7.06 8.86,6.97 9,6.8 9.5,6.1 12.05,4 12.3,4.1 c .06,0 1.3,-.5 1.3,-.37 -.7,.5 1.35,-.47 1.36,-.13 0,.1 .8,-.1 .8,-.17 0,-.1 2,.03 2.36,.1 1.3,.34 1.45,-.47 1.9,-.1 2.3,.35 4.4,1.9 5.5,3.4 .47,.6 -.1,.2 -.1,.2 0,0 1.25,2.23 1.2,2.33 -0,.04 -.23,-.23 -.5,-.6 -.25,-.37 -1.2,-1.54 -1.3,-1.47 -.04,.05 -.07,.67 -.06,.63 .07,-.2 1,1.4 1,1.4 L 25.4,9 c 0,0 .54,.73 .54,.9 0,.33 .2,.73 .3,.6 .36,-.3 -.03,.5 .2,1.4 .26,1.05 -.2,-.03 -.14,.33 .1,.27 .2,.7 .15,.84 -.04,.3 -.24,-.6 -.24,-.6 0,0 -.2,2 -.2,2.17 .04,.3 0,.3 -.24,.1 -.1,-.1 -.1,1.57 -.33,1.16 0,-.23 -.1,-.15 -.37,.33 -.76,1.3 -1.96,2.3 -3.3,2.8 -.8,.3 -1.34,.4 -2.24,.44 l -.8,.04 c 0,0 .9,.23 1.4,.2 .6,-.05 1.9,-.34 1.9,-.3 .1,.1 -.84,.5 -1.4,.6 -.95,.15 -2.23,-0 -3.36,-.44 -.76,-.3 -1.9,-1.04 -1.73,-1.15 .03,-0 .25,.1 .5,.2 .3,.2 .4,.23 .4,.16 -.26,-.4 .7,.37 1.6,.6 .5,.15 .3,-.03 -.37,-.34 -2.17,-.97 -3.07,-1.94 -3.5,-3.8 -.7,-2.1 .75,-3.8 1.36,-4.34 .8,-.8 1.65,-1.1 2.75,-1.05 .53,0 .75,.07 1.2,.24 .5,.2 1.13,.6 .93,.6 -.05,9.57e-4 -.24,-.06 -.44,-.14 -.3,-.1 -.5,-.14 -1.17,-.15 -.96,-0 -1.4,.13 -2.1,.6 -.96,.65 -1.5,1.4 -1.7,2.36 -.13,.65 -.13,.8 -.03,1.47 .13,.96 .2,.1 .26,.54 0,.23 .5,1.16 .9,1.57 .87,1 3.45,2.25 5.36,1.23 .2,-.1 1.2,-.7 1.5,-1.13 .16,-.23 .33,-.4 .4,-.4 -.25,.9 1.17,-1.4 1.17,-1.4 0,0 -.1,-.83 .1,-1.03 .2,-.2 .2,-.25 .23,-.76 0,-.46 0,-.55 -.1,-.55 -.1,-4.45e-4 -.1,-.1 -.15,-.5 C 24.63,11.87 24.2,10.1 24.1,10.03 24.04,10 23.96,9.84 23.9,9.65 23.63,9 23.2,8.4 22.5,7.7 21.5,6.74 20.2,6 19,5.66 c -1,-.3 -2.74,-.2 -3.97,.24 -.6,.2 -1.4,.67 -1.43,.64 -.04,-0 -.5,.1 -1,.5 -.3,.26 -.3,.44 -.36,.57 -.05,.1 -.3,.24 -.6,.37 -1.67,1 -1.03,.95 -1.03,1 0,.2 -.2,.4 -.44,.5 -.6,.27 -1.6,1.7 -2.13,3.03 -.24,.6 -.24,.57 -.1,.57 .3,-.04 -.6,1 -.04,3.77 .37,2.03 .6,2.7 1,3.13 .1,.1 .2,.3 .23,.5 .05,.25 .13,.4 .3,.57 .14,.14 .2,.23 .14,.25 -.1,.04 .23,.5 .53,.77 .15,.1 .27,.17 .4,.14 .27,-.05 .55,.1 .97,.53 .44,.44 .5,.56 .2,.5 -.2,-.03 -.2,-0 -.1,.1 .05,.1 .25,.27 .44,.4 .26,.2 .33,.3 .3,.4 -.05,.14 .1,.3 .4,.4 .2,.07 .25,.2 .1,.27 -.04,0 .2,.3 .6,.6 .4,.35 .7,.54 .74,.5 .1,-.1 .24,-.07 .24,.05 0,.13 .1,.27 .55,.65 .27,.24 .34,.27 .5,.2 .15,-.04 .25,-0 .46,.13 .43,.3 .7,.4 .9,.4 .2,0 .25,.06 .14,.26 -.06,.1 -.05,.13 .1,.13 .1,0 .34,.06 .56,.13 .5,.16 .7,.17 .57,.03 -.2,-.2 0,-.15 .66,.2 .9,.5 1.37,.55 3.2,.4 .27,-0 .36,-0 .36,.06 0,.06 -.23,.14 -.66,.24 -.56,.13 -.86,.16 -2,.17 -.9,0 -1.53,-0 -1.9,-.07 z M 14.85,18.34 c 0,-.1 0,-.2 .05,-.2 .1,0 1.25,1.16 1.23,1.23 -0,.04 -1.3,-.86 -1.3,-1.05 z m .6,-.3 c -.36,-.35 -.47,-.53 -.33,-.53 .1,0 .75,.73 .75,.83 0,.05 -.2,-.1 -.43,-.3 z m 3.97,-1.4 c -.2,-.07 -.07,-.2 .24,-.27 .2,-.04 .94,-.3 .96,-.3 0,0 -.36,.6 -.74,.6 -.2,-0 -.4,-0 -.46,-.04 z m 2.03,-1.46 c -.2,-.07 -.2,-.2 -.04,-.6 .13,-.35 .47,-.55 .5,-.53 .1,.05 .07,.56 -0,.9 -.1,.3 -.15,.34 -.45,.2 z m .27,-2.34 c -.1,-.14 -.14,-.24 -.1,-.36 .06,-.23 .2,-.2 .34,.07 .2,.4 0,.6 -.23,.3 z M 14.05,3.45 c .03,-.1 .96,-.45 1.13,-.45 .2,0 -.16,.24 -.6,.4 -.47,.16 -.6,.17 -.55,.07 z" display="inline" enable-background="accumulate" fill="currentColor" image-rendering="auto" isolation="auto" mix-blend-mode="normal" opacity=".6" overflow="visible" shape-rendering="auto" solid-color="#000000" solid-opacity="1" text-rendering="auto" visibility="visible"/><path class="ColorScheme-Background" d="m 15.2,3 c -.17,0 -1.1,.37 -1.13,.45 -.04,.1 .1,.1 .55,-.06 C 15.03,3.24 15.4,3 15.2,3 Z m 4.6,.3 c -.3,-0 -.6,.47 -1.7,.2 -.4,-.06 -2.36,-.2 -2.36,-.1 0,.07 -.8,.25 -.8,.17 -0,-.34 -2.05,.6 -1.36,.13 0,-.1 -1.2,.4 -1.3,.37 C 12.05,4 9.5,6.1 9,6.8 8.86,6.97 8.74,7.06 8.67,7.05 8.6,7.03 8.34,7.3 7.9,8.1 7.4,8.9 6.8,9.84 6.7,11.1 6.66,11.3 6.6,11.47 6.6,11.6 c 0,0 0,0 .03,0 -0,-0 -0,-0 -.03,-0 -.1,.3 -.2,.47 -.3,.4 -.1,.14 -.66,2.6 -.23,3.94 .07,.2 .25,.8 .4,1.3 .57,2.16 .77,2.8 1.13,3.6 1.1,2.46 2.9,4.43 5.6,6.2 1.24,.8 3.24,1.6 4.63,1.83 .36,.06 1,.1 1.9,.07 1.15,-0 1.46,-.04 2,-.17 .43,-.1 .66,-.2 .66,-.24 0,-.07 -.1,-.1 -.36,-.06 -1.8,.16 -2.27,.1 -3.2,-.4 -.65,-.35 -.85,-.4 -.66,-.2 .1,.14 -.1,.13 -.57,-.03 -.2,-.07 -.47,-.13 -.55,-.13 -.14,0 -.15,-0 -.1,-.1 .1,-.2 .1,-.27 -.14,-.27 -.2,0 -.5,-.1 -.9,-.4 -.2,-.14 -.3,-.17 -.46,-.1 -.17,.04 -.24,0 -.5,-.2 -.43,-.37 -.55,-.5 -.55,-.65 -0,-.1 -.14,-.15 -.24,-.05 -.04,.04 -.3,-.15 -.74,-0.5 -.1,-.1 -.2,-.16 -.26,-.23 -0,0 -0,0 -.03,0 0,-0 0,-0 .03,-.03 -.2,-.2 -.36,-.34 -.33,-.35 .14,-.05 .1,-.2 -.1,-.27 -.3,-.1 -.44,-.25 -.4,-.4 .03,-.1 -.03,-.2 -.3,-.4 -.2,-.15 -.4,-.34 -.44,-.4 -.1,-.14 -.1,-.14 .1,-.1 .3,.04 .25,-.1 -.2,-.5 -.4,-.43 -.7,-.6 -.97,-.53 -.1,0 -.24,-0 -.4,-.14 -.1,-.1 -.2,-.2 -.3,-.33 -0,0 -.03,0 -.05,.03 0,-0 .03,-0 .05,-.03 -.17,-.2 -.3,-.4 -.2,-.44 .05,-0 0,-.1 -.13,-.25 C 9.3,20.9 9.2,20.75 9.16,20.5 9.1,20.3 9.03,20.1 8.93,20 8.5,19.56 8.3,18.9 7.94,16.86 7.4,14.1 8.3,13.04 7.97,13.1 c -.1,0 -.1,-0 .07,-.47 -.05,-0 -.1,-.03 -.13,-0 l .06,-0 c -0,0 .04,0 .07,0 0,-.03 0,-.05 .04,-.1 .54,-1.3 1.56,-2.76 2.13,-3.03 .26,-.1 .44,-.33 .44,-.5 0,-.04 -.64,.03 1.03,-1 .3,-.13 .55,-.3 .6,-.37 .07,-.13 .07,-.3 .36,-.57 .5,-.43 .95,-.5 1,-.5 .03,0 .83,-.44 1.43,-.64 1.23,-.4 2.95,-.5 3.97,-.24 1.2,.33 2.46,1.1 3.46,2.05 .7,.67 1.14,1.3 1.4,1.94 .1,.2 .16,.36 .2,.4 .1,.06 .55,1.85 .6,2.4 .03,.4 .07,.5 .15,.5 .1,5.2e-4 .1,.1 .1,.55 -0,.5 -.04,.57 -.23,.76 -.2,.2 -.1,1.03 -.1,1.03 0,0 -1.4,2.3 -1.17,1.4 -.05,0 -.23,.2 -.4,.4 -.3,.4 -1.3,1 -1.5,1.13 -1.9,1 -4.5,-.24 -5.36,-1.23 -.36,-.4 -.9,-1.34 -.9,-1.57 -.06,-.45 -.13,.4 -.26,-.54 -.1,-.64 -.1,-.8 .03,-1.47 .2,-.96 .73,-1.7 1.7,-2.36 .7,-.46 1.15,-.6 2.1,-.6 .7,0 .87,.03 1.17,.15 .2,.1 .4,.14 .44,.14 .2,-0 -.43,-.4 -.93,-.6 -.44,-.17 -.66,-.2 -1.2,-.23 -1.1,-.05 -1.94,.27 -2.75,1.05 -.6,.5 -2.05,2.23 -1.36,4.34 .45,1.85 1.35,2.8 3.5,3.8 .7,.3 .9,.5 .37,.34 -.9,-.2 -1.87,-1 -1.6,-.6 0,.07 -.1,0 -.4,-.16 -.23,-.14 -.45,-.24 -.5,-.2 -.17,.1 .96,.86 1.7,1.15 1.13,.43 2.4,.6 3.36,.44 .56,-.1 1.5,-.5 1.4,-.6 -.05,-.04 -1.3,.26 -1.93,.3 -.47,.04 -1.4,-.2 -1.4,-.2 l .8,-.04 c .9,-.05 1.44,-.15 2.24,-.44 1.36,-.5 2.56,-1.5 3.3,-2.8 .3,-.5 .37,-.57 .37,-.33 .23,.4 .2,-1.25 .33,-1.16 .25,.2 .3,.2 .24,-.1 -0,-.16 .2,-2.17 .2,-2.17 0,0 .2,.9 .24,.6 0,-.16 -.05,-.57 -.15,-.85 -.04,-.36 .4,.7 .13,-.33 -.25,-.87 .14,-1.7 -.2,-1.4 -.1,.1 -.3,-.3 -.3,-.6 -0,-.2 -.54,-.9 -.54,-.9 l .4,.26 c 0,0 -.94,-1.6 -1,-1.4 -0,.04 0,-.6 .05,-.63 .06,-.1 1.03,1.1 1.3,1.47 .25,.37 .47,.65 .5,.6 C 26.67,9.23 25.4,7 25.4,7 c 0,0 .6,.44 .1,-.2 C 24.4,5.3 22.3,3.8 20,3.43 19.9,3.35 19.85,3.3 19.8,3.3 Z m -.03,.5 c .06,.04 .1,.07 .2,.1 1.95,.3 3.7,1.57 4.8,2.85 -.03,0 -.07,0 -.07,0 -0,6.06e-4 -.2,.15 -.2,.15 -.15,.2 -.1,.2 -.1,.25 -0,.05 -0,.1 -0,.1 -0,.1 -0,.17 -0,.25 -0,.1 -0,.16 -0,.23 -7.56e-4,.03 -0,.06 0,.1 6.1e-4,0 -0,0 0,.1 0,0 .04,.1 .04,.1 7.5e-5,1.6e-4 .1,.13 .1,.13 4e-5,4.24e-5 .1,.1 .1,.1 1.2e-5,7e-6 .03,0 .06,0 .1,.1 .2,.26 .3,.44 .05,.1 .05,.1 .1,.16 -.06,.1 -.06,.25 -0,.4 0,0 .13,.17 .26,.37 .06,.1 .1,.2 .16,.27 .04,.07 .03,.2 .03,-0 0,.26 .07,.5 .17,.7 .05,.1 .1,.2 .23,.3 0,0 .06,0 .1,.03 -0,.23 -0,.54 .06,.9 -.03,.03 -.06,.06 -.07,.1 -0,.04 -.04,.07 -.05,.1 -0,.06 -0,.1 -0,.13 -0,.07 9.29e-4,.1 0,.14 0,0 0,.04 0,.05 -.04,.03 -.07,.06 -.1,.1 0,0 -.06,.5 -.1,1.03 -.03,.26 -.05,.53 -.07,.74 -0,.04 -0,.06 -0,.1 -.03,0 -.05,.03 -.07,.04 -.05,.04 -.1,.07 -.1,.1 -.1,.1 -.1,.17 -.1,.2 -.03,.1 -.03,.15 -.04,.23 -0,.15 -.04,.3 -.05,.5 -.04,0 -.1,.05 -.13,.07 -.2,.2 -.24,.3 -.4,.56 -.05,.1 -.15,.16 -.2,.25 .23,-.34 .5,-.76 .5,-.76 .06,-.1 .1,-.2 .07,-.3 0,0 -0,-.2 -0,-.4 0,-.1 0,-.2 0,-.26 0,-.06 .05,-.07 -.04,0 .1,-.1 .24,-.27 .3,-.47 .06,-.2 .06,-.36 .07,-.6 0,-.24 0,-.4 -0,-.54 -0,-.1 -0,-.2 -.13,-.3 -0,-0 -.04,-0 -.06,-.03 -0,-.04 -0,-.1 -.03,-.25 -.03,-.36 -.15,-.9 -.3,-1.44 -.07,-.27 -.14,-.5 -.2,-.7 -.03,-.1 -.06,-.2 -.1,-.26 -0,-.04 -.03,-.07 -.06,-.1 -0,-.03 -0,-.07 -.07,-.1 0,0 -0,0 -0,0 -1.76e-4,-2.75e-4 -0,-0 -0,-.04 v -0 c -5.43e-4,-4.55e-4 -0,-0 -0,-0 -.03,-0 -.06,-.04 -.1,-.07 .06,.03 .1,.05 .1,.07 -.03,-.05 -.06,-.13 -.1,-.2 C 24.06,8.73 23.56,8.06 22.83,7.35 21.77,6.3 20.45,5.54 19.16,5.2 17.97,4.85 16.24,4.97 14.9,5.4 14.55,5.54 14.2,5.7 13.9,5.85 c -.14,.07 -.27,.13 -.35,.17 -0,0 -0,0 -.03,0 -.04,0 -.1,0 -.1,0 -.1,0 -.2,.05 -.3,.1 -.23,.1 -.5,.25 -.8,.5 -.3,.25 -.4,.53 -.45,.65 -0,0 -0,.03 -.04,.04 -.1,.05 -.2,.1 -.33,.17 -0,0 -.04,0 -.06,.03 -.43,.26 -.7,.45 -.9,.6 -.2,.16 -.33,.25 -.43,.5 -.04,.1 -0,.2 0,.35 -0,0 -0,-0 -.1,.04 -.5,.23 -.86,.7 -1.3,1.3 -.4,.6 -.8,1.3 -1.1,2 -.1,.3 -.2,.4 -.2,.6 -0,.06 -.03,.13 0,.26 0,.05 .07,.1 .1,.1 -.03,.1 -.07,.26 -.1,.5 -.13,.65 -.2,1.7 .07,3.1 .2,1 .33,1.7 .5,2.23 .16,.5 .36,.9 .63,1.16 -.04,-.04 .07,.13 .1,.27 .06,.3 .2,.57 .4,.8 0,.1 0,.2 .04,.23 .05,.1 .1,.2 .17,.3 .14,.2 .3,.4 .5,.56 .2,.17 .5,.3 .8,.25 0,-0 0,-0 .1,.03 .1,.04 .23,.16 .4,.34 -.04,.1 -.1,.2 -.1,.3 0,.1 .04,.14 .06,.2 .04,.07 .06,.1 .1,.13 .1,.1 .15,.17 .24,.26 .1,.1 .2,.2 .3,.26 .1,.07 .1,.1 .1,.1 0,.2 .1,.37 .2,.47 .1,.1 .2,.1 .3,.17 0,0 0,.03 0,.04 0,.04 0,.07 .03,.1 .04,.1 .07,.1 .1,.15 .05,.06 .1,.1 .16,.2 .1,.1 .3,.27 .5,.43 .2,.2 .4,.3 .55,.4 .1,.05 .14,.1 .2,.13 .04,0 .1,.04 .17,.05 0,0 .03,-0 .04,-0 .03,.04 .03,.1 .05,.13 .1,.14 .27,.27 .5,.47 .1,.1 .2,.15 .3,.2 C 14.4,27 13.84,26.93 13.46,26.7 10.8,24.94 9.1,23.05 8.04,20.7 7.7,19.9 7.5,19.3 6.93,17.15 6.8,16.6 6.64,16.1 6.53,15.8 6.36,15.3 6.4,14.37 6.47,13.6 c .05,-.4 .1,-.73 .17,-1 0,-.1 .03,-.13 .05,-.2 0,-0 0,-0 0,-0 .16,-.13 .2,-.24 .26,-.37 .1,-.24 .17,-.53 .2,-.9 9e-4,-0 0,-0 0,-.03 .1,-1.1 .6,-1.93 1.13,-2.74 0,-0 0,-.03 0,-.04 .2,-.4 .37,-.64 .47,-.77 0,-.03 0,-.03 .04,-.04 0,-0 .05,-.06 .05,-.05 -5.23e-4,4.4e-4 -0,.03 -.05,.05 C 8.97,7.5 9.05,7.44 9.1,7.4 9.2,7.3 9.3,7.2 9.4,7.1 9.57,6.87 10.35,6.13 11.07,5.54 c .36,-.3 .7,-.57 .97,-.75 .13,-.1 .24,-.16 .3,-.2 0,-0 0,-0 0,-0 0,-0 .04,-0 .05,-0 .04,-0 .06,-0 .1,-0 .05,-0 .1,-.03 .2,-.06 .13,-.04 .3,-.1 .44,-.15 .04,-0 .07,-0 .1,-.04 .03,0 .07,.03 .1,.04 .17,.04 .2,0 .25,0 .2,-.03 .36,-.1 .57,-.16 .2,-.07 .43,-.13 .56,-.15 0,0 0,0 0,0 .1,.05 .15,.05 .2,.06 .1,0 .14,0 .2,0 .1,-0 .2,-.03 .34,-.06 .1,-0 .23,-.05 .33,-.1 .05,-0 .1,-.03 .16,-.06 0,-7.73e-4 0,-0 0,-0 .03,-0 .06,-0 .1,-0 .2,7.79e-5 .43,0 .7,0 .53,.03 1.16,.1 1.27,.1 .73,.2 1.27,.03 1.56,-.1 .1,-.05 .15,-.07 .17,-.07 z m 5,3.57 c -.07,0 -.13,0 -.2,.06 .04,-0 .1,-.05 .1,-.05 -1.8e-5,5.8e-6 .05,-0 .1,-0 z m -.26,.1 c -.1,.07 -.13,.15 -.15,.2 0,-0 0,-.04 0,-.04 -9.9e-5,2.2e-4 .04,-.07 .04,-.07 -7.7e-5,1.16e-4 .07,-.07 .1,-.1 z M 8.85,7.53 c -.04,0 -.1,.04 -.27,0 .1,0 .2,0 .27,-0 z M 21.75,12.3 c -.06,-0 -.1,.04 -.15,.15 -0,.06 -0,.1 0,.2 0,-0 0,-0 .03,-0 l .3,-.07 c -0,-0 -0,-0 -0,-0 -.06,-.14 -.13,-.2 -.2,-.2 z m 3.07,.1 c .1,6.18e-4 .27,.1 .33,.16 0,0 6.99e-4,0 0,0 -.1,-.1 -.25,-.16 -.33,-.16 z m -2.8,.3 c -.07,.05 -.2,.1 -.3,.1 0,0 0,0 0,0 .2,.3 .36,.2 .3,-.1 z m -.1,1.3 c -.03,-0 -.37,.2 -.5,.53 -.15,.4 -.14,.53 .04,.6 .3,.1 .37,.1 .45,-.2 .1,-.35 .1,-.86 0,-.9 z m -6.97,.85 c 0,-0 0,0 0,0 -.04,.04 -.16,.1 -.17,.1 -0,.03 -.03,.03 0,-0 0,-0 .06,-.06 .14,-.1 z m 5.66,1.17 c -0,-0 -.8,.26 -.96,.3 -.3,.06 -.43,.2 -.24,.27 .05,0 .25,.03 .46,.04 .37,0 .75,-.6 .73,-.6 z m 3,1.27 c -.3,.27 -.6,.5 -.9,.7 .26,-.2 .53,-.36 .7,-.63 0,-0 0,-0 0,-0 .05,-0 .1,-0 .15,-0 .03,-0 .03,-0 .04,-.03 z m -8.5,.2 c -.14,10e-7 -.03,.2 .33,.54 .2,.2 .43,.34 .43,.3 0,-.1 -.67,-.83 -.75,-.83 z m -.2,.65 c -.03,0 -.05,.1 -.05,.2 0,.2 1.26,1.1 1.3,1.05 .03,-.07 -1.13,-1.23 -1.23,-1.23 z m 2.47,.13 c .1,.06 .16,.1 .24,.17 .03,0 .07,.05 .1,.07 -.04,-0 -.07,-.05 -.1,-.07 -.1,-.06 -.16,-.1 -.24,-.17 z m .96,.54 c .4,.1 .8,.15 1.2,.2 l -.8,.04 c -0,0 -0,0 -0,0 -0,-0 -0,-0 -0,-0 -.1,-.1 -.2,-.14 -.3,-.2 -0,-0 -0,-0 -.03,-0 z m -3.2,8.5 c .14,.03 .3,.04 .4,0 -0,-0 0,0 .1,.06 .3,.2 .57,.26 .84,.33 -0,.04 0,.1 0,.1 -.5,-.16 -.9,-.33 -1.36,-.54 z" fill="currentColor" opacity=".6"/></g><use href="#uhm" opacity=".4"></use><use fill="url(#uhk)" href="#uhm" opacity=".1"></use><path d="m 26,16 c -2,0 -4,2 -6,2 H 6 c -1.11,0 -2,.9 -2,2 v 34 c 0,1.1 .9,2 2,2 h 52 c 1.1,0 2,-.9 2,-2 V 18 c 0,-1.1 -.9,-2 -2,-2 z" fill="url(#uhj)" opacity=".2"/><path class="ColorScheme-Contrast" d="m 4,52 v 1 c 0,1.66 1.34,3 3,3 h 50 c 1.66,0 3,-1.34 3,-3 v -1 c 0,1.66 -1.34,3 -3,3 H 7 C 5.34,55 4,53.66 4,52 Z" fill="currentColor" opacity=".1"/><path class="ColorScheme-Contrast" d="M 4,52.5 V 53 c 0,1.66 1.34,3 3,3 h 50 c 1.66,0 3,-1.34 3,-3 v -0.5 c 0,1.66 -1.34,3 -3,3 H 7 c -1.66,0 -3,-1.34 -3,-3 z" fill="currentColor" opacity=".2"/><path d="m 27,16 c -3,0 -3,2 -7,2 H 7 c -1.66,0 -3,1.34 -3,3 v 1 c 0,-1.66 1.34,-3 3,-3 h 13 c 4,0 4,-2 7,-2 h 30 c 1.66,0 3,1.34 3,3 v -1 c 0,-1.66 -1.34,-3 -3,-3 z" fill="#fff" opacity=".1"/><path d="m 27,16 c -3,0 -3,2 -7,2 H 7 c -1.66,0 -3,1.34 -3,3 v 0.5 c 0,-1.66 1.34,-3 3,-3 h 13 c 4,0 4,-2 7,-2 h 30 c 1.66,0 3,1.34 3,3 V 19 c 0,-1.66 -1.34,-3 -3,-3 z" fill="#fff" opacity=".2"/><path d="m 27,15 c -3,0 -3,2 -7,2 H 7 v 1 h 13 c 4,0 4,-2 7,-2 h 30 v -1 z" opacity=".1"/><path d="m 27,15.5 c -3,0 -3,2 -7,2 H 7 V 18 h 13 c 4,0 4,-2 7,-2 h 30 v -0.5 z" opacity=".2"/></g>
</svg>