<svg height="64" version="1.1" width="64" xmlns="http://www.w3.org/2000/svg" xmlns:svg="http://www.w3.org/2000/svg" xmlns:xlink="http://www.w3.org/1999/xlink">
<defs id="primary-definitions">
<style id="current-color-scheme" type="text/css">
      .ColorScheme-Text         { color: #232629; }
      .ColorScheme-Background   { color: #eff0f1; }
      .ColorScheme-Highlight    { color: #7ec9f0; }
      .ColorScheme-PositiveText { color: #27ae60; }
      .ColorScheme-NeutralText  { color: #f67400; }
      .ColorScheme-NegativeText { color: #da4453; }
      .ColorScheme-ActiveText   { color: #3daee9; }
      .ColorScheme-Complement   { color: #ffffff; }
      .ColorScheme-Contrast     { color: #000000; }
    </style>
<style id="extended-color-scheme" type="text/css">
      .ExScheme-Black     { color:#3e3e3e; }
      .ExScheme-White     { color:#fcfcfc; }
      .ExScheme-Grey-1    { color:#cfd5d5; }
      .ExScheme-Grey-2    { color:#909c9c; }
      .ExScheme-Grey-3    { color:#536161; }
      .ExScheme-Red-1     { color:#ffafa5; }
      .ExScheme-Red-2     { color:#bf4231; }
      .ExScheme-Red-3     { color:#4d2f2b; }
      .ExScheme-Green-1   { color:#abf9c7; }
      .ExScheme-Green-2   { color:#3bb566; }
      .ExScheme-Green-3   { color:#377d50; }
      .ExScheme-Blue-1    { color:#abdaf9; }
      .ExScheme-Blue-2    { color:#3daefd; }
      .ExScheme-Blue-3    { color:#2b3c4d; }
      .ExScheme-Yellow-1  { color:#faffa5; }
      .ExScheme-Yellow-2  { color:#cac726; }
      .ExScheme-Yellow-3  { color:#4b4d2b; }
      .ExScheme-Orange-1  { color:#ffdaa5; }
      .ExScheme-Orange-2  { color:#ff9701; }
      .ExScheme-Orange-3  { color:#4d372b; }
      .ExScheme-Brown-1   { color:#e9d6bb; }
      .ExScheme-Brown-2   { color:#997657; }
      .ExScheme-Brown-3   { color:#433a35; }
      .ExScheme-Purple-1  { color:#e2abf9; }
      .ExScheme-Purple-2  { color:#b401ff; }
      .ExScheme-Purple-3  { color:#432b4d; }
      .ExScheme-Cyan-1    { color:#b2f2e6; }
      .ExScheme-Cyan-2    { color:#31bfa6; }
      .ExScheme-Cyan-3    { color:#2b4d47; }
      .ExScheme-Magenta-1 { color:#f8a6d8; }
      .ExScheme-Magenta-2 { color:#f00091; }
      .ExScheme-Magenta-3 { color:#770048; }
    </style>
<linearGradient id="uBW">
<stop offset="0"/>
<stop offset="1" stop-opacity="0"/>
</linearGradient>
<linearGradient id="uBX">
<stop offset="0" stop-color="#fff"/>
<stop offset="1" stop-color="#fff" stop-opacity="0"/>
</linearGradient>
<style id="uBY" type="text/css">
        .force-display-for-editing { display: inline !important; }
    </style><style class="remove-if__show-crease" type="text/css">
        .enable-if__show-crease { display: none; }
    </style><style class="remove-if__color-sync-mimes-places" type="text/css">
        .enable-if__color-sync-mimes-places { display: none; }
    </style><radialGradient cx=".5" cy="0" id="uBZ" r="1" xlink:href="#uBX"/><linearGradient id="uC0" xlink:href="#uBW" y1="1" y2=".5"/><style class="ColorScheme-Background" fill="currentColor" opacity=".6" type="text/css">
   .ColorScheme-Text           { color:#eff0f1; }
      .ColorScheme-Background     { color:#31363b; }
      .ColorScheme-Highlight      { color:#3daefd; }
      .ColorScheme-ViewBackground { color:#fcfcfc; }
      .ColorScheme-PositiveText   { color:#27ae60; }
      .ColorScheme-NeutralText    { color:#f67400; }
      .ColorScheme-NegativeText   { color:#da4453; }
  </style><path d="M 10,8 C 8.34,8 7,9.34 7,11 v 7 c -1.66,0 -3,1.34 -3,3 v 32 c 0,1.66 1.34,3 3,3 h 50 c 1.66,0 3,-1.34 3,-3 V 26 21 19 c 0,-1.66 -1.34,-3 -3,-3 v -3 c 0,-1.66 -1.34,-3 -3,-3 H 28 C 24,10 24,8 21,8 Z" id="uC1"></path><path d="M 10,8 C 8.34,8 7,9.34 7,11 v 7 h 13 c 4,0 4,-2 7,-2 h 30 v -3 c 0,-1.66 -1.34,-3 -3,-3 H 28 C 24,10 24,8 21,8 Z" id="uC2"></path></defs>
<g id="content" transform="translate(0,0)"><use class="sync-color enable-if__color-sync-mimes-places force-display-for-editing ColorScheme-ActiveText" fill="currentColor" href="#uC1"></use><use class="primary-color remove-if__color-sync-mimes-places ColorScheme-ActiveText" fill="currentColor" href="#uC1"></use><use class="ColorScheme-Contrast" fill="currentColor" href="#uC1" opacity=".1"></use><g id="decal" transform="translate(16,21)"><path class="ColorScheme-Background" d="M 16 10 A 6 6 0 0 0 10 16 A 6 6 0 0 0 16 22 A 6 6 0 0 0 22 16 A 6 6 0 0 0 16 10 z M 22 16 A 4 4 0 0 0 26 20 A 4 4 0 0 0 30 16 A 4 4 0 0 0 26 12 A 4 4 0 0 0 22 16 z M 10 16 A 4 4 0 0 0 6 12 A 4 4 0 0 0 2 16 A 4 4 0 0 0 6 20 A 4 4 0 0 0 10 16 z M 16 12.5 A 3.5 3.5 0 0 1 19.5 16 A 3.5 3.5 0 0 1 16 19.5 A 3.5 3.5 0 0 1 12.5 16 A 3.5 3.5 0 0 1 16 12.5 z M 6 14.5 A 1.5 1.5 0 0 1 7.5 16 A 1.5 1.5 0 0 1 6 17.5 A 1.5 1.5 0 0 1 4.5 16 A 1.5 1.5 0 0 1 6 14.5 z M 26 14.5 A 1.5 1.5 0 0 1 27.5 16 A 1.5 1.5 0 0 1 26 17.5 A 1.5 1.5 0 0 1 24.5 16 A 1.5 1.5 0 0 1 26 14.5 z " fill="currentColor" opacity=".6" stop-color="#000000"/><path class="ColorScheme-Background" d="M 16 10 A 6 6 0 0 0 10 16 A 6 6 0 0 0 16 22 A 6 6 0 0 0 22 16 A 6 6 0 0 0 16 10 z M 22 16 A 4 4 0 0 0 26 20 A 4 4 0 0 0 30 16 A 4 4 0 0 0 26 12 A 4 4 0 0 0 22 16 z M 10 16 A 4 4 0 0 0 6 12 A 4 4 0 0 0 2 16 A 4 4 0 0 0 6 20 A 4 4 0 0 0 10 16 z M 16 10.5 C 19.04 10.5 21.5 12.96 21.5 16 C 21.5 19.04 19.04 21.5 16 21.5 C 12.96 21.5 10.5 19.04 10.5 16 C 10.5 12.96 12.96 10.5 16 10.5 z M 16 12 C 13.8 12 12 13.8 12 16 C 12 18.2 13.8 20 16 20 C 18.2 20 20 18.2 20 16 C 20 13.8 18.2 12 16 12 z M 6 12.5 C 7.94 12.5 9.5 14.06 9.5 16 C 9.5 17.94 7.94 19.5 6 19.5 C 4.06 19.5 2.5 17.94 2.5 16 C 2.5 14.06 4.06 12.5 6 12.5 z M 16 12.5 A 3.5 3.5 0 0 1 19.5 16 A 3.5 3.5 0 0 1 16 19.5 A 3.5 3.5 0 0 1 12.5 16 A 3.5 3.5 0 0 1 16 12.5 z M 26 12.5 C 27.94 12.5 29.5 14.06 29.5 16 C 29.5 17.94 27.94 19.5 26 19.5 C 24.06 19.5 22.5 17.94 22.5 16 C 22.5 14.06 24.06 12.5 26 12.5 z M 6 14 C 4.9 14 4 14.9 4 16 C 4 17.1 4.9 18 6 18 C 7.1 18 8 17.1 8 16 C 8 14.9 7.1 14 6 14 z M 26 14 C 24.9 14 24 14.9 24 16 C 24 17.1 24.9 18 26 18 C 27.1 18 28 17.1 28 16 C 28 14.9 27.1 14 26 14 z M 6 14.5 A 1.5 1.5 0 0 1 7.5 16 A 1.5 1.5 0 0 1 6 17.5 A 1.5 1.5 0 0 1 4.5 16 A 1.5 1.5 0 0 1 6 14.5 z M 26 14.5 A 1.5 1.5 0 0 1 27.5 16 A 1.5 1.5 0 0 1 26 17.5 A 1.5 1.5 0 0 1 24.5 16 A 1.5 1.5 0 0 1 26 14.5 z " fill="currentColor" opacity=".6"/></g><use href="#uC2" opacity=".4"></use><use fill="url(#uC0)" href="#uC2" opacity=".1"></use><path d="m 26,16 c -2,0 -4,2 -6,2 H 6 c -1.11,0 -2,.9 -2,2 v 34 c 0,1.1 .9,2 2,2 h 52 c 1.1,0 2,-.9 2,-2 V 18 c 0,-1.1 -.9,-2 -2,-2 z" fill="url(#uBZ)" opacity=".2"/><path class="ColorScheme-Contrast" d="m 4,52 v 1 c 0,1.66 1.34,3 3,3 h 50 c 1.66,0 3,-1.34 3,-3 v -1 c 0,1.66 -1.34,3 -3,3 H 7 C 5.34,55 4,53.66 4,52 Z" fill="currentColor" opacity=".1"/><path class="ColorScheme-Contrast" d="M 4,52.5 V 53 c 0,1.66 1.34,3 3,3 h 50 c 1.66,0 3,-1.34 3,-3 v -0.5 c 0,1.66 -1.34,3 -3,3 H 7 c -1.66,0 -3,-1.34 -3,-3 z" fill="currentColor" opacity=".2"/><path d="m 27,16 c -3,0 -3,2 -7,2 H 7 c -1.66,0 -3,1.34 -3,3 v 1 c 0,-1.66 1.34,-3 3,-3 h 13 c 4,0 4,-2 7,-2 h 30 c 1.66,0 3,1.34 3,3 v -1 c 0,-1.66 -1.34,-3 -3,-3 z" fill="#fff" opacity=".1"/><path d="m 27,16 c -3,0 -3,2 -7,2 H 7 c -1.66,0 -3,1.34 -3,3 v 0.5 c 0,-1.66 1.34,-3 3,-3 h 13 c 4,0 4,-2 7,-2 h 30 c 1.66,0 3,1.34 3,3 V 19 c 0,-1.66 -1.34,-3 -3,-3 z" fill="#fff" opacity=".2"/><path d="m 27,15 c -3,0 -3,2 -7,2 H 7 v 1 h 13 c 4,0 4,-2 7,-2 h 30 v -1 z" opacity=".1"/><path d="m 27,15.5 c -3,0 -3,2 -7,2 H 7 V 18 h 13 c 4,0 4,-2 7,-2 h 30 v -0.5 z" opacity=".2"/></g>
</svg>