<svg height="64" version="1.1" width="64" xmlns="http://www.w3.org/2000/svg" xmlns:svg="http://www.w3.org/2000/svg" xmlns:xlink="http://www.w3.org/1999/xlink">
<defs id="primary-definitions">
<style id="current-color-scheme" type="text/css">
      .ColorScheme-Text         { color: #232629; }
      .ColorScheme-Background   { color: #eff0f1; }
      .ColorScheme-Highlight    { color: #7ec9f0; }
      .ColorScheme-PositiveText { color: #27ae60; }
      .ColorScheme-NeutralText  { color: #f67400; }
      .ColorScheme-NegativeText { color: #da4453; }
      .ColorScheme-ActiveText   { color: #3daee9; }
      .ColorScheme-Complement   { color: #ffffff; }
      .ColorScheme-Contrast     { color: #000000; }
    </style>
<style id="extended-color-scheme" type="text/css">
      .ExScheme-Black     { color:#3e3e3e; }
      .ExScheme-White     { color:#fcfcfc; }
      .ExScheme-Grey-1    { color:#cfd5d5; }
      .ExScheme-Grey-2    { color:#909c9c; }
      .ExScheme-Grey-3    { color:#536161; }
      .ExScheme-Red-1     { color:#ffafa5; }
      .ExScheme-Red-2     { color:#bf4231; }
      .ExScheme-Red-3     { color:#4d2f2b; }
      .ExScheme-Green-1   { color:#abf9c7; }
      .ExScheme-Green-2   { color:#3bb566; }
      .ExScheme-Green-3   { color:#377d50; }
      .ExScheme-Blue-1    { color:#abdaf9; }
      .ExScheme-Blue-2    { color:#3daefd; }
      .ExScheme-Blue-3    { color:#2b3c4d; }
      .ExScheme-Yellow-1  { color:#faffa5; }
      .ExScheme-Yellow-2  { color:#cac726; }
      .ExScheme-Yellow-3  { color:#4b4d2b; }
      .ExScheme-Orange-1  { color:#ffdaa5; }
      .ExScheme-Orange-2  { color:#ff9701; }
      .ExScheme-Orange-3  { color:#4d372b; }
      .ExScheme-Brown-1   { color:#e9d6bb; }
      .ExScheme-Brown-2   { color:#997657; }
      .ExScheme-Brown-3   { color:#433a35; }
      .ExScheme-Purple-1  { color:#e2abf9; }
      .ExScheme-Purple-2  { color:#b401ff; }
      .ExScheme-Purple-3  { color:#432b4d; }
      .ExScheme-Cyan-1    { color:#b2f2e6; }
      .ExScheme-Cyan-2    { color:#31bfa6; }
      .ExScheme-Cyan-3    { color:#2b4d47; }
      .ExScheme-Magenta-1 { color:#f8a6d8; }
      .ExScheme-Magenta-2 { color:#f00091; }
      .ExScheme-Magenta-3 { color:#770048; }
    </style>
<linearGradient id="uxP">
<stop offset="0"/>
<stop offset="1" stop-opacity="0"/>
</linearGradient>
<linearGradient id="uxQ">
<stop offset="0" stop-color="#fff"/>
<stop offset="1" stop-color="#fff" stop-opacity="0"/>
</linearGradient>
<style id="uxR" type="text/css">
        .force-display-for-editing { display: inline !important; }
    </style><style class="remove-if__show-crease" type="text/css">
        .enable-if__show-crease { display: none; }
    </style><style class="remove-if__color-sync-mimes-places" type="text/css">
        .enable-if__color-sync-mimes-places { display: none; }
    </style><radialGradient cx=".5" cy="0" id="uxS" r="1" xlink:href="#uxQ"/><linearGradient id="uxT" xlink:href="#uxP" y1="1" y2=".5"/><style class="ColorScheme-Background" fill="currentColor" opacity=".6" type="text/css">
   .ColorScheme-Text           { color:#eff0f1; }
      .ColorScheme-Background     { color:#31363b; }
      .ColorScheme-Highlight      { color:#3daefd; }
      .ColorScheme-ViewBackground { color:#fcfcfc; }
      .ColorScheme-PositiveText   { color:#27ae60; }
      .ColorScheme-NeutralText    { color:#f67400; }
      .ColorScheme-NegativeText   { color:#da4453; }
  </style><path d="M 10,8 C 8.34,8 7,9.34 7,11 v 7 c -1.66,0 -3,1.34 -3,3 v 32 c 0,1.66 1.34,3 3,3 h 50 c 1.66,0 3,-1.34 3,-3 V 26 21 19 c 0,-1.66 -1.34,-3 -3,-3 v -3 c 0,-1.66 -1.34,-3 -3,-3 H 28 C 24,10 24,8 21,8 Z" id="uxU"></path><path d="M 2,2 V 4.5 C 2,4.8 2.2,5 2.5,5 2.8,5 3,4.8 3,4.5 V 3 H 27 V 4.5 C 27,4.8 27.2,5 27.5,5 27.8,5 28,4.8 28,4.5 V 2 Z m 8.5,4 C 10.2,6 10,6.2 10,6.5 10,6.8 10.2,7 10.5,7 h 14 C 24.8,7 25,6.8 25,6.5 25,6.2 24.8,6 24.5,6 Z m 0,2 C 10.2,8 10,8.2 10,8.5 10,8.8 10.2,9 10.5,9 h 5 C 15.8,9 16,8.8 16,8.5 16,8.2 15.8,8 15.5,8 Z m 0,3 c -.3,0 -0.5,.2 -0.5,0.5 0,.3 .2,0.5 0.5,0.5 h 14 C 24.8,12 25,11.8 25,11.5 25,11.2 24.8,11 24.5,11 Z m 0,2 c -.3,0 -0.5,.2 -0.5,0.5 0,.3 .2,0.5 0.5,0.5 h 5 C 15.8,14 16,13.8 16,13.5 16,13.2 15.8,13 15.5,13 Z m 0,3 c -.3,0 -0.5,.2 -0.5,0.5 0,.3 .2,0.5 0.5,0.5 h 14 C 24.8,17 25,16.8 25,16.5 25,16.2 24.8,16 24.5,16 Z m 0,2 c -.3,0 -0.5,.2 -0.5,0.5 0,.3 .2,0.5 0.5,0.5 h 5 C 15.8,19 16,18.8 16,18.5 16,18.2 15.8,18 15.5,18 Z m -0,3 C 10.2,21 10,21.2 10,21.5 v .04 C 10,21.8 10.2,22 10.5,22 H 24.5 C 24.8,22 25,21.8 25,21.5 v -.04 C 25,21.2 24.8,21 24.5,21 Z M 10.5,23 c -.3,0 -0.5,.2 -0.5,0.5 0,.3 .2,0.5 0.5,0.5 h 5 C 15.8,24 16,23.8 16,23.5 16,23.2 15.8,23 15.5,23 Z M 2.47,25 C 2.2,25 2,25.23 2,25.5 V 28 h 1 24 1 V 25.5 C 28,25.2 27.8,25 27.5,25 27.2,25 27,25.2 27,25.5 V 27 H 3 V 25.5 C 3,25.2 2.8,25 2.5,25 2.5,25 2.5,25 2.47,25 Z" id="uxV" opacity=".6" stop-color="#000000"></path><path d="M 10,8 C 8.34,8 7,9.34 7,11 v 7 h 13 c 4,0 4,-2 7,-2 h 30 v -3 c 0,-1.66 -1.34,-3 -3,-3 H 28 C 24,10 24,8 21,8 Z" id="uxW"></path></defs>
<g id="content" transform="translate(0,0)"><use class="sync-color enable-if__color-sync-mimes-places force-display-for-editing ColorScheme-ActiveText" fill="currentColor" href="#uxU"></use><use class="primary-color remove-if__color-sync-mimes-places ColorScheme-ActiveText" fill="currentColor" href="#uxU"></use><use class="ColorScheme-Contrast" fill="currentColor" href="#uxU" opacity=".1"></use><g id="decal" transform="translate(16,21)"><g transform="translate(1,1)">
<use class="ColorScheme-Background" fill="currentColor" href="#uxV"></use>
<path class="ColorScheme-Background" d="M 7.5 7 C 6.67 7 6 7.67 6 8.5 C 6 9.33 6.67 10 7.5 10 C 8.33 10 9 9.33 9 8.5 C 9 7.67 8.33 7 7.5 7 z M 7.5 12 C 6.67 12 6 12.67 6 13.5 C 6 14.33 6.67 15 7.5 15 C 8.33 15 9 14.33 9 13.5 C 9 12.67 8.33 12 7.5 12 z M 7.5 17 C 6.67 17 6 17.67 6 18.5 C 6 19.33 6.67 20 7.5 20 C 8.33 20 9 19.33 9 18.5 C 9 17.67 8.33 17 7.5 17 z M 7.5 22 C 6.67 22 6 22.67 6 23.5 C 6 24.33 6.67 25 7.5 25 C 8.33 25 9 24.33 9 23.5 C 9 22.67 8.33 22 7.5 22 z " fill="currentColor" opacity=".6" stop-color="#000000" transform="translate(-1,-1)"/>
<use class="ColorScheme-Background" fill="currentColor" href="#uxV"></use>
<path class="ColorScheme-Background" d="M 7.5 7 C 6.67 7 6 7.67 6 8.5 C 6 9.33 6.67 10 7.5 10 C 8.33 10 9 9.33 9 8.5 C 9 7.67 8.33 7 7.5 7 z M 7.5 7.5 C 8.06 7.5 8.5 7.94 8.5 8.5 C 8.5 9.06 8.06 9.5 7.5 9.5 C 6.94 9.5 6.5 9.06 6.5 8.5 C 6.5 7.94 6.94 7.5 7.5 7.5 z M 7.5 12 C 6.67 12 6 12.67 6 13.5 C 6 14.33 6.67 15 7.5 15 C 8.33 15 9 14.33 9 13.5 C 9 12.67 8.33 12 7.5 12 z M 7.5 12.5 C 8.06 12.5 8.5 12.94 8.5 13.5 C 8.5 14.06 8.06 14.5 7.5 14.5 C 6.94 14.5 6.5 14.06 6.5 13.5 C 6.5 12.94 6.94 12.5 7.5 12.5 z M 7.5 17 C 6.67 17 6 17.67 6 18.5 C 6 19.33 6.67 20 7.5 20 C 8.33 20 9 19.33 9 18.5 C 9 17.67 8.33 17 7.5 17 z M 7.5 17.5 C 8.06 17.5 8.5 17.94 8.5 18.5 C 8.5 19.06 8.06 19.5 7.5 19.5 C 6.94 19.5 6.5 19.06 6.5 18.5 C 6.5 17.94 6.94 17.5 7.5 17.5 z M 7.5 22 C 6.67 22 6 22.67 6 23.5 C 6 24.33 6.67 25 7.5 25 C 8.33 25 9 24.33 9 23.5 C 9 22.67 8.33 22 7.5 22 z M 7.5 22.5 C 8.06 22.5 8.5 22.94 8.5 23.5 C 8.5 24.06 8.06 24.5 7.5 24.5 C 6.94 24.5 6.5 24.06 6.5 23.5 C 6.5 22.94 6.94 22.5 7.5 22.5 z " fill="currentColor" opacity=".6" transform="translate(-1,-1)"/>
</g></g><use href="#uxW" opacity=".4"></use><use fill="url(#uxT)" href="#uxW" opacity=".1"></use><path d="m 26,16 c -2,0 -4,2 -6,2 H 6 c -1.11,0 -2,.9 -2,2 v 34 c 0,1.1 .9,2 2,2 h 52 c 1.1,0 2,-.9 2,-2 V 18 c 0,-1.1 -.9,-2 -2,-2 z" fill="url(#uxS)" opacity=".2"/><path class="ColorScheme-Contrast" d="m 4,52 v 1 c 0,1.66 1.34,3 3,3 h 50 c 1.66,0 3,-1.34 3,-3 v -1 c 0,1.66 -1.34,3 -3,3 H 7 C 5.34,55 4,53.66 4,52 Z" fill="currentColor" opacity=".1"/><path class="ColorScheme-Contrast" d="M 4,52.5 V 53 c 0,1.66 1.34,3 3,3 h 50 c 1.66,0 3,-1.34 3,-3 v -0.5 c 0,1.66 -1.34,3 -3,3 H 7 c -1.66,0 -3,-1.34 -3,-3 z" fill="currentColor" opacity=".2"/><path d="m 27,16 c -3,0 -3,2 -7,2 H 7 c -1.66,0 -3,1.34 -3,3 v 1 c 0,-1.66 1.34,-3 3,-3 h 13 c 4,0 4,-2 7,-2 h 30 c 1.66,0 3,1.34 3,3 v -1 c 0,-1.66 -1.34,-3 -3,-3 z" fill="#fff" opacity=".1"/><path d="m 27,16 c -3,0 -3,2 -7,2 H 7 c -1.66,0 -3,1.34 -3,3 v 0.5 c 0,-1.66 1.34,-3 3,-3 h 13 c 4,0 4,-2 7,-2 h 30 c 1.66,0 3,1.34 3,3 V 19 c 0,-1.66 -1.34,-3 -3,-3 z" fill="#fff" opacity=".2"/><path d="m 27,15 c -3,0 -3,2 -7,2 H 7 v 1 h 13 c 4,0 4,-2 7,-2 h 30 v -1 z" opacity=".1"/><path d="m 27,15.5 c -3,0 -3,2 -7,2 H 7 V 18 h 13 c 4,0 4,-2 7,-2 h 30 v -0.5 z" opacity=".2"/></g>
</svg>