<?xml version="1.0" encoding="utf-8"?><svg height="64" width="64" xmlns="http://www.w3.org/2000/svg" xmlns:svg="http://www.w3.org/2000/svg" xmlns:xlink="http://www.w3.org/1999/xlink"><defs id="primary-definitions"><style id="current-color-scheme" type="text/css">.ColorScheme-Text           { color:#fff; }
      .ColorScheme-Background     { color:#111; }
      .ColorScheme-Highlight      { color:#3daefd; }
      .ColorScheme-ViewBackground { color:#000; }
      .ColorScheme-PositiveText   { color:#27ae60; }
      .ColorScheme-NeutralText    { color:#f67400; }
      .ColorScheme-NegativeText   { color:#da4453; }
  </style><style id="extended-color-scheme" type="text/css">.ExScheme-Black     { color:#3e3e3e; }
      .ExScheme-White     { color:#fcfcfc; }
      .ExScheme-Grey-1    { color:#cfd5d5; }
      .ExScheme-Grey-2    { color:#909c9c; }
      .ExScheme-Grey-3    { color:#536161; }
      .ExScheme-Red-1     { color:#ffafa5; }
      .ExScheme-Red-2     { color:#bf4231; }
      .ExScheme-Red-3     { color:#4d2f2b; }
      .ExScheme-Green-1   { color:#abf9c7; }
      .ExScheme-Green-2   { color:#3bb566; }
      .ExScheme-Green-3   { color:#377d50; }
      .ExScheme-Blue-1    { color:#abdaf9; }
      .ExScheme-Blue-2    { color:#3daefd; }
      .ExScheme-Blue-3    { color:#2b3c4d; }
      .ExScheme-Yellow-1  { color:#faffa5; }
      .ExScheme-Yellow-2  { color:#cac726; }
      .ExScheme-Yellow-3  { color:#4b4d2b; }
      .ExScheme-Orange-1  { color:#ffdaa5; }
      .ExScheme-Orange-2  { color:#ff9701; }
      .ExScheme-Orange-3  { color:#4d372b; }
      .ExScheme-Brown-1   { color:#e9d6bb; }
      .ExScheme-Brown-2   { color:#997657; }
      .ExScheme-Brown-3   { color:#433a35; }
      .ExScheme-Purple-1  { color:#e2abf9; }
      .ExScheme-Purple-2  { color:#b401ff; }
      .ExScheme-Purple-3  { color:#432b4d; }
      .ExScheme-Cyan-1    { color:#b2f2e6; }
      .ExScheme-Cyan-2    { color:#31bfa6; }
      .ExScheme-Cyan-3    { color:#2b4d47; }
      .ExScheme-Magenta-1 { color:#f8a6d8; }
      .ExScheme-Magenta-2 { color:#f00091; }
      .ExScheme-Magenta-3 { color:#770048; }
  </style><linearGradient id="gradientDark"><stop offset="0"/><stop offset="1" stop-opacity="0"/></linearGradient><linearGradient id="gradientLight"><stop offset="0" stop-color="#fff"/><stop offset="1" stop-color="#fff" stop-opacity="0"/></linearGradient><style class="toggle-enable-crease" type="text/css">.folder-crease { display: none; }
  </style><style class="toggle-manilla-folders" type="text/css">.folder-manilla { display: none; }
  </style><radialGradient cx=".5" cy="0" id="gl1" r="1" xlink:href="#gradientLight"/><linearGradient id="gd1" xlink:href="#gradientDark" y1="1" y2=".5"/><path d="M 10,8 C 8.338,8 7,9.338 7,11 v 7 c -1.662,0 -3,1.338 -3,3 v 32 c 0,1.662 1.338,3 3,3 h 50 c 1.662,0 3,-1.338 3,-3 V 26 21 19 c 0,-1.662 -1.338,-3 -3,-3 v -3 c 0,-1.662 -1.338,-3 -3,-3 H 28 C 24,10 24,8 21,8 Z" id="use-path-aL"/><path d="M 10,8 C 8.338,8 7,9.338 7,11 v 7 h 13 c 4,0 4,-2 7,-2 h 30 v -3 c 0,-1.662 -1.338,-3 -3,-3 H 28 C 24,10 24,8 21,8 Z" id="use-path-aM"/></defs><g id="content"><use class="folder-manilla ExScheme-Brown-1" fill="currentColor" href="#use-path-aL"/><use class="toggle-manilla-folders ColorScheme-Highlight" fill="currentColor" href="#use-path-aL" id="primary-color"/><use class="ColorScheme-Text" fill="currentColor" href="#use-path-aL" opacity=".1"/><g id="emblem" transform="translate(16,21)"><path class="ColorScheme-Background" d="m 16,5.5 c -4.188,0 -7.583,3.395 -7.583,7.583 .003,.363 0,1.083 0,1.083 C 5.425,14.167 3,16.592 3,19.583 3,22.575 5.425,25 8.417,25 H 22.5 C 26.09,25 29,22.09 29,18.5 28.997,15.302 26.668,12.58 23.51,12.085 23.01,8.32 19.8,5.504 16,5.5 Z" fill="currentColor" opacity=".6"/><path class="ColorScheme-Background" d="M 16 5.5 C 11.812 5.5 8.416 8.896 8.416 13.084 C 8.42 13.447 8.416 14.166 8.416 14.166 C 5.424 14.166 3 16.592 3 19.584 C 3 22.576 5.424 25 8.416 25 L 22.5 25 C 26.09 25 29 22.09 29 18.5 C 28.997 15.302 26.67 12.58 23.51 12.084 C 23.01 8.318 19.8 5.504 16 5.5 z M 16 6 C 19.552 6.004 22.546 8.63 23.014 12.15 A .5 .5 0 0 0 23.432 12.578 C 26.35 13.037 28.497 15.544 28.5 18.5 C 28.5 21.82 25.82 24.5 22.5 24.5 L 8.416 24.5 C 5.695 24.5 3.5 22.305 3.5 19.584 C 3.5 16.863 5.695 14.666 8.416 14.666 A .5 .5 0 0 0 8.916 14.168 C 8.916 14.168 8.92 13.45 8.916 13.08 C 8.918 9.164 12.083 6 16 6 z " fill="currentColor" opacity=".6"/></g><use href="#use-path-aM" opacity=".4"/><use class="toggle-flat-design" fill="url(#gd1)" href="#use-path-aM" opacity=".1"/><path class="toggle-flat-design" d="m 26,16 c -2,0 -4,2 -6,2 H 6 c -1.11,0 -2,0.892 -2,2 v 34 c 0,1.108 0.892,2 2,2 h 52 c 1.108,0 2,-0.892 2,-2 V 18 c 0,-1.108 -0.892,-2 -2,-2 z" fill="url(#gl1)" opacity=".2"/><path class="folder-crease" d="m 4,44 v 2 h 9 c 0.554,0 1,-0.446 1,-1 0,-0.554 -0.446,-1 -1,-1 z m 47,0 c -0.554,0 -1,0.446 -1,1 0,0.554 0.446,1 1,1 h 9 v -2 z" opacity=".4"/><path class="ColorScheme-Text" d="m 4,52 v 1 c 0,1.662 1.338,3 3,3 h 50 c 1.662,0 3,-1.338 3,-3 v -1 c 0,1.662 -1.338,3 -3,3 H 7 C 5.338,55 4,53.662 4,52 Z" fill="currentColor" opacity=".1"/><path class="ColorScheme-Text" d="M 4,52.5 V 53 c 0,1.662 1.338,3 3,3 h 50 c 1.662,0 3,-1.338 3,-3 v -0.5 c 0,1.662 -1.338,3 -3,3 H 7 c -1.662,0 -3,-1.338 -3,-3 z" fill="currentColor" opacity=".2"/><path d="m 27,16 c -3,0 -3,2 -7,2 H 7 c -1.662,0 -3,1.338 -3,3 v 1 c 0,-1.662 1.338,-3 3,-3 h 13 c 4,0 4,-2 7,-2 h 30 c 1.662,0 3,1.338 3,3 v -1 c 0,-1.662 -1.338,-3 -3,-3 z" fill="#fff" opacity=".1"/><path d="m 27,16 c -3,0 -3,2 -7,2 H 7 c -1.662,0 -3,1.338 -3,3 v 0.5 c 0,-1.662 1.338,-3 3,-3 h 13 c 4,0 4,-2 7,-2 h 30 c 1.662,0 3,1.338 3,3 V 19 c 0,-1.662 -1.338,-3 -3,-3 z" fill="#fff" opacity=".2"/><path d="m 27,15 c -3,0 -3,2 -7,2 H 7 v 1 h 13 c 4,0 4,-2 7,-2 h 30 v -1 z" opacity=".1"/><path d="m 27,15.5 c -3,0 -3,2 -7,2 H 7 V 18 h 13 c 4,0 4,-2 7,-2 h 30 v -0.5 z" opacity=".2"/></g></svg>