<svg height="64" version="1.1" width="64" xmlns="http://www.w3.org/2000/svg" xmlns:svg="http://www.w3.org/2000/svg" xmlns:xlink="http://www.w3.org/1999/xlink">
<defs id="primary-definitions">
<style id="current-color-scheme" type="text/css">
      .ColorScheme-Text         { color: #232629; }
      .ColorScheme-Background   { color: #eff0f1; }
      .ColorScheme-Highlight    { color: #7ec9f0; }
      .ColorScheme-PositiveText { color: #27ae60; }
      .ColorScheme-NeutralText  { color: #f67400; }
      .ColorScheme-NegativeText { color: #da4453; }
      .ColorScheme-ActiveText   { color: #3daee9; }
      .ColorScheme-Complement   { color: #ffffff; }
      .ColorScheme-Contrast     { color: #000000; }
    </style>
<style id="extended-color-scheme" type="text/css">
      .ExScheme-Black     { color:#3e3e3e; }
      .ExScheme-White     { color:#fcfcfc; }
      .ExScheme-Grey-1    { color:#cfd5d5; }
      .ExScheme-Grey-2    { color:#909c9c; }
      .ExScheme-Grey-3    { color:#536161; }
      .ExScheme-Red-1     { color:#ffafa5; }
      .ExScheme-Red-2     { color:#bf4231; }
      .ExScheme-Red-3     { color:#4d2f2b; }
      .ExScheme-Green-1   { color:#abf9c7; }
      .ExScheme-Green-2   { color:#3bb566; }
      .ExScheme-Green-3   { color:#377d50; }
      .ExScheme-Blue-1    { color:#abdaf9; }
      .ExScheme-Blue-2    { color:#3daefd; }
      .ExScheme-Blue-3    { color:#2b3c4d; }
      .ExScheme-Yellow-1  { color:#faffa5; }
      .ExScheme-Yellow-2  { color:#cac726; }
      .ExScheme-Yellow-3  { color:#4b4d2b; }
      .ExScheme-Orange-1  { color:#ffdaa5; }
      .ExScheme-Orange-2  { color:#ff9701; }
      .ExScheme-Orange-3  { color:#4d372b; }
      .ExScheme-Brown-1   { color:#e9d6bb; }
      .ExScheme-Brown-2   { color:#997657; }
      .ExScheme-Brown-3   { color:#433a35; }
      .ExScheme-Purple-1  { color:#e2abf9; }
      .ExScheme-Purple-2  { color:#b401ff; }
      .ExScheme-Purple-3  { color:#432b4d; }
      .ExScheme-Cyan-1    { color:#b2f2e6; }
      .ExScheme-Cyan-2    { color:#31bfa6; }
      .ExScheme-Cyan-3    { color:#2b4d47; }
      .ExScheme-Magenta-1 { color:#f8a6d8; }
      .ExScheme-Magenta-2 { color:#f00091; }
      .ExScheme-Magenta-3 { color:#770048; }
    </style>
<linearGradient id="ulR">
<stop offset="0"/>
<stop offset="1" stop-opacity="0"/>
</linearGradient>
<linearGradient id="ulS">
<stop offset="0" stop-color="#fff"/>
<stop offset="1" stop-color="#fff" stop-opacity="0"/>
</linearGradient>
<style id="ulT" type="text/css">
        .force-display-for-editing { display: inline !important; }
    </style><style class="remove-if__show-crease" type="text/css">
        .enable-if__show-crease { display: none; }
    </style><style class="remove-if__color-sync-mimes-places" type="text/css">
        .enable-if__color-sync-mimes-places { display: none; }
    </style><radialGradient cx=".5" cy="0" id="ulU" r="1" xlink:href="#ulS"/><linearGradient id="ulV" xlink:href="#ulR" y1="1" y2=".5"/><style class="ColorScheme-Background" fill="currentColor" opacity=".6" type="text/css">
   .ColorScheme-Text           { color:#eff0f1; }
      .ColorScheme-Background     { color:#31363b; }
      .ColorScheme-Highlight      { color:#3daefd; }
      .ColorScheme-ViewBackground { color:#fcfcfc; }
      .ColorScheme-PositiveText   { color:#27ae60; }
      .ColorScheme-NeutralText    { color:#f67400; }
      .ColorScheme-NegativeText   { color:#da4453; }
  </style><path d="M 10,8 C 8.34,8 7,9.34 7,11 v 7 c -1.66,0 -3,1.34 -3,3 v 32 c 0,1.66 1.34,3 3,3 h 50 c 1.66,0 3,-1.34 3,-3 V 26 21 19 c 0,-1.66 -1.34,-3 -3,-3 v -3 c 0,-1.66 -1.34,-3 -3,-3 H 28 C 24,10 24,8 21,8 Z" id="ulW"></path><path d="M 10,8 C 8.34,8 7,9.34 7,11 v 7 h 13 c 4,0 4,-2 7,-2 h 30 v -3 c 0,-1.66 -1.34,-3 -3,-3 H 28 C 24,10 24,8 21,8 Z" id="ulX"></path></defs>
<g id="content" transform="translate(0,0)"><use class="sync-color enable-if__color-sync-mimes-places force-display-for-editing ColorScheme-ActiveText" fill="currentColor" href="#ulW"></use><use class="primary-color remove-if__color-sync-mimes-places ColorScheme-ActiveText" fill="currentColor" href="#ulW"></use><use class="ColorScheme-Contrast" fill="currentColor" href="#ulW" opacity=".1"></use><g id="decal" transform="translate(16,21)"><path class="ColorScheme-Background" d="M 4.7 3 C 4.54 3 4.4 3.16 4.4 3.3 L 4.4 4.24 C 4.4 4.4 4.54 4.54 4.7 4.54 L 27.7 4.54 C 27.85 4.54 28 4.4 28 4.24 L 28 3.3 C 28 3.16 27.85 3 27.7 3 L 4.7 3 z M 5.9 4.86 C 5.74 4.86 5.6 5 5.6 5.17 L 5.6 27.9 C 5.6 28.1 5.74 28.23 5.9 28.23 L 7 28.23 C 7.16 28.23 7.3 28.1 7.3 27.9 L 7.3 5.17 C 7.3 5 7.16 4.86 7 4.86 L 5.9 4.86 z M 10.03 4.86 C 9.87 4.86 9.7 5 9.7 5.17 L 9.7 6 C 9.7 6.17 9.87 6.3 10.03 6.3 L 11.37 6.3 C 11.53 6.3 11.67 6.17 11.67 6 L 11.67 5.17 C 11.67 5 11.53 4.86 11.37 4.86 L 10.03 4.86 z M 8 4.9 C 7.83 4.9 7.7 5.03 7.7 5.2 L 7.7 6.13 C 7.7 6.3 7.83 6.44 8 6.44 L 9.03 6.44 C 9.3 6.44 9.34 6.3 9.34 6.13 L 9.34 5.2 C 9.34 5.03 9.3 4.9 9.03 4.9 L 8 4.9 z M 20.67 4.9 C 20.5 4.9 20.37 5.03 20.37 5.2 L 20.37 6 C 20.37 6.17 20.5 6.3 20.67 6.3 L 22.1 6.3 C 22.24 6.3 22.4 6.17 22.4 6 L 22.4 5.2 C 22.4 5.03 22.24 4.9 22.1 4.9 L 20.67 4.9 z M 25.4 4.9 C 25.23 4.9 25.1 5.04 25.1 5.2 L 25.1 27.95 C 25.1 28.1 25.2 28.26 25.4 28.26 L 26.5 28.26 C 26.64 28.26 26.8 28.1 26.8 27.95 L 26.8 5.2 C 26.8 5.04 26.64 4.9 26.5 4.9 L 25.4 4.9 z M 12.3 5.45 C 12.13 5.45 12 5.6 12 5.76 L 12 6.4 C 12 6.54 12.13 6.7 12.3 6.7 L 13.9 6.7 C 14.06 6.7 14.2 6.54 14.2 6.4 L 14.2 5.76 C 14.2 5.6 14.06 5.45 13.9 5.45 L 12.3 5.45 z M 22.96 5.45 C 22.8 5.45 22.65 5.6 22.65 5.76 L 22.65 6.4 C 22.65 6.54 22.8 6.7 22.96 6.7 L 24.4 6.7 C 24.6 6.7 24.7 6.54 24.7 6.4 L 24.7 5.76 C 24.7 5.6 24.6 5.45 24.4 5.45 L 22.96 5.45 z M 17.3 5.84 C 17.14 5.84 17 6 17 6.15 L 17 7.1 C 17 7.3 17.14 7.4 17.3 7.4 L 18.07 7.4 C 18.24 7.4 18.4 7.3 18.4 7.1 L 18.4 6.15 C 18.4 6 18.24 5.84 18.07 5.84 L 17.3 5.84 z M 14.8 6.1 C 14.64 6.1 14.5 6.23 14.5 6.4 L 14.5 7.06 C 14.5 7.23 14.63 7.37 14.8 7.37 L 16.35 7.37 C 16.5 7.37 16.66 7.23 16.66 7.06 L 16.66 6.4 C 16.66 6.23 16.5 6.1 16.35 6.1 L 14.8 6.1 z M 19 6.1 C 18.8 6.1 18.67 6.23 18.67 6.4 L 18.67 7.2 C 18.67 7.4 18.8 7.5 19 7.5 L 19.74 7.5 C 19.9 7.5 20.05 7.4 20.05 7.2 L 20.05 6.4 C 20.05 6.23 19.9 6.1 19.74 6.1 L 19 6.1 z M 9.94 6.5 C 9.77 6.5 9.63 6.6 9.63 6.8 L 9.63 9.5 C 9.63 9.66 9.77 9.8 9.94 9.8 L 11.37 9.8 C 11.53 9.8 11.67 9.66 11.67 9.5 L 11.67 6.8 C 11.67 6.6 11.53 6.5 11.37 6.5 L 9.94 6.5 z M 20.65 6.5 C 20.5 6.5 20.34 6.6 20.34 6.8 L 20.34 9.47 C 20.34 9.64 20.5 9.8 20.65 9.8 L 22.1 9.8 C 22.27 9.8 22.4 9.64 22.4 9.47 L 22.4 6.8 C 22.4 6.6 22.27 6.5 22.1 6.5 L 20.65 6.5 z M 7.97 6.8 C 7.8 6.8 7.66 6.9 7.66 7.1 L 7.66 7.4 C 7.66 7.57 7.8 7.7 7.97 7.7 L 9.03 7.7 C 9.3 7.7 9.34 7.57 9.34 7.4 L 9.34 7.1 C 9.34 6.9 9.3 6.8 9.03 6.8 L 7.97 6.8 z M 22.96 6.8 C 22.8 6.8 22.65 6.97 22.65 7.13 L 22.65 9.66 C 22.65 9.8 22.8 9.96 22.96 9.96 L 24.43 9.96 C 24.6 9.96 24.74 9.8 24.74 9.66 L 24.74 7.13 C 24.74 6.96 24.6 6.8 24.43 6.8 L 22.96 6.8 z M 12.27 6.85 C 12.1 6.85 11.96 7 11.96 7.16 L 11.96 9.7 C 11.96 9.9 12.1 10 12.27 10 L 13.9 10 C 14.06 10 14.2 9.9 14.2 9.7 L 14.2 7.16 C 14.2 7 14.06 6.85 13.9 6.85 L 12.27 6.85 z M 14.8 7.5 C 14.64 7.5 14.5 7.66 14.5 7.8 L 14.5 9.7 C 14.5 9.86 14.63 10 14.8 10 L 16.33 10 C 16.5 10 16.63 9.86 16.63 9.7 L 16.63 7.8 C 16.63 7.65 16.5 7.5 16.33 7.5 L 14.8 7.5 z M 17.3 7.6 C 17.1 7.6 17 7.73 17 7.9 L 17 11 C 17 11.16 17.1 11.3 17.3 11.3 L 18.07 11.3 C 18.24 11.3 18.4 11.16 18.4 11 L 18.4 7.9 C 18.4 7.73 18.24 7.6 18.07 7.6 L 17.3 7.6 z M 19 7.66 C 18.8 7.66 18.67 7.8 18.67 7.97 L 18.67 11 C 18.67 11.16 18.8 11.3 19 11.3 L 19.74 11.3 C 19.9 11.3 20.05 11.16 20.05 11 L 20.05 7.97 C 20.05 7.8 19.9 7.66 19.74 7.66 L 19 7.66 z M 7.97 7.9 C 7.8 7.9 7.66 8.05 7.66 8.2 L 7.66 11 C 7.66 11.16 7.8 11.3 7.97 11.3 L 9.03 11.3 C 9.3 11.3 9.34 11.16 9.34 11 L 9.34 8.2 C 9.34 8.05 9.3 7.9 9.03 7.9 L 7.97 7.9 z M 9.96 9.95 C 9.8 9.95 9.65 10.1 9.65 10.25 L 9.65 10.97 C 9.65 11.14 9.8 11.3 9.96 11.3 L 11.37 11.3 C 11.53 11.3 11.67 11.14 11.67 10.97 L 11.67 10.25 C 11.67 10.1 11.53 9.95 11.37 9.95 L 9.96 9.95 z M 20.67 9.95 C 20.5 9.95 20.37 10.1 20.37 10.25 L 20.37 11 C 20.37 11.16 20.5 11.3 20.67 11.3 L 22.1 11.3 C 22.27 11.3 22.4 11.16 22.4 11 L 22.4 10.25 C 22.4 10.1 22.27 9.95 22.1 9.95 L 20.67 9.95 z M 12.3 10.17 C 12.13 10.17 12 10.3 12 10.47 L 12 11 C 12 11.16 12.13 11.3 12.3 11.3 L 13.9 11.3 C 14.06 11.3 14.2 11.16 14.2 11 L 14.2 10.47 C 14.2 10.3 14.06 10.17 13.9 10.17 L 12.3 10.17 z M 14.8 10.17 C 14.64 10.17 14.5 10.3 14.5 10.47 L 14.5 11 C 14.5 11.16 14.63 11.3 14.8 11.3 L 16.36 11.3 C 16.5 11.3 16.66 11.16 16.66 11 L 16.66 10.47 C 16.66 10.3 16.5 10.17 16.36 10.17 L 14.8 10.17 z M 22.96 10.17 C 22.8 10.17 22.65 10.3 22.65 10.47 L 22.65 11 C 22.65 11.16 22.8 11.3 22.96 11.3 L 24.46 11.3 C 24.63 11.3 24.77 11.16 24.77 11 L 24.77 10.47 C 24.77 10.3 24.63 10.17 24.46 10.17 L 22.96 10.17 z M 7.9 11.54 C 7.76 11.54 7.6 11.7 7.6 11.85 L 7.6 12.7 C 7.6 12.86 7.76 13 7.9 13 L 24.44 13 C 24.6 13 24.74 12.86 24.74 12.7 L 24.74 11.85 C 24.74 11.7 24.6 11.54 24.44 11.54 L 7.9 11.54 z M 19.7 13.35 C 19.54 13.35 19.5 13.5 19.5 13.65 L 19.5 14.63 C 19.5 14.8 19.54 14.94 19.7 14.94 L 21.17 14.94 C 21.34 14.94 21.5 14.8 21.5 14.63 L 21.5 13.65 C 21.5 13.5 21.34 13.35 21.17 13.35 L 19.7 13.35 z M 9.94 13.37 C 9.77 13.37 9.63 13.5 9.63 13.67 L 9.63 14.63 C 9.63 14.8 9.77 14.94 9.94 14.94 L 11.4 14.94 C 11.56 14.94 11.7 14.8 11.7 14.63 L 11.7 13.67 C 11.7 13.5 11.56 13.37 11.4 13.37 L 9.94 13.37 z M 14.1 13.4 C 13.95 13.4 13.8 13.54 13.8 13.7 L 13.8 15.03 C 13.8 15.2 13.95 15.33 14.1 15.33 L 14.97 15.33 C 15.14 15.33 15.3 15.2 15.3 15.03 L 15.3 13.7 C 15.3 13.54 15.14 13.4 14.97 13.4 L 14.1 13.4 z M 17.63 14.03 C 17.46 14.03 17.3 14.17 17.3 14.33 L 17.3 15.05 C 17.3 15.2 17.46 15.36 17.63 15.36 L 18.74 15.36 C 19 15.36 19.04 15.2 19.04 15.05 L 19.04 14.33 C 19.04 14.17 19 14.03 18.74 14.03 L 17.63 14.03 z M 12.3 14.05 C 12.14 14.05 12 14.2 12 14.36 L 12 15.07 C 12 15.24 12.14 15.4 12.3 15.4 L 13.16 15.4 C 13.33 15.4 13.47 15.24 13.47 15.07 L 13.47 14.36 C 13.47 14.2 13.33 14.05 13.16 14.05 L 12.3 14.05 z M 23.65 14.05 C 23.5 14.05 23.34 14.2 23.34 14.36 L 23.34 15.2 C 23.34 15.36 23.5 15.5 23.65 15.5 L 24.44 15.5 C 24.6 15.5 24.74 15.36 24.74 15.2 L 24.74 14.36 C 24.74 14.2 24.6 14.05 24.44 14.05 L 23.65 14.05 z M 7.97 14.15 C 7.8 14.15 7.66 14.3 7.66 14.46 L 7.66 15.17 C 7.66 15.34 7.8 15.5 7.97 15.5 L 9.03 15.5 C 9.3 15.5 9.34 15.34 9.34 15.17 L 9.34 14.46 C 9.34 14.3 9.3 14.15 9.03 14.15 L 7.97 14.15 z M 16 14.4 C 15.8 14.4 15.67 14.55 15.67 14.7 L 15.67 15.57 C 15.67 15.73 15.8 15.87 16 15.87 L 16.7 15.87 C 16.86 15.87 17 15.73 17 15.57 L 17 14.7 C 17 14.55 16.86 14.4 16.7 14.4 L 16 14.4 z M 22.8 14.6 L 22.07 14.6 C 21.9 14.6 21.77 14.73 21.77 14.9 L 21.77 15.66 C 21.77 15.83 21.9 15.97 22.07 15.97 L 22.8 15.97 C 22.96 15.97 23.1 15.83 23.1 15.66 L 23.1 14.9 C 23.1 14.73 22.96 14.6 22.8 14.6 z M 9.94 15.1 C 9.77 15.1 9.63 15.2 9.63 15.4 L 9.63 17.7 C 9.63 17.84 9.77 18 9.94 18 L 11.4 18 C 11.56 18 11.7 17.84 11.7 17.7 L 11.7 15.4 C 11.7 15.2 11.56 15.1 11.4 15.1 L 9.94 15.1 z M 19.67 15.1 C 19.5 15.1 19.36 15.2 19.36 15.4 L 19.36 17.7 C 19.36 17.84 19.5 18 19.67 18 L 21.17 18 C 21.34 18 21.5 17.84 21.5 17.7 L 21.5 15.4 C 21.5 15.2 21.34 15.1 21.17 15.1 L 19.67 15.1 z M 17.6 15.53 C 17.44 15.53 17.3 15.66 17.3 15.83 L 17.3 19.23 C 17.3 19.4 17.44 19.53 17.6 19.53 L 18.74 19.53 C 19 19.53 19.04 19.4 19.04 19.23 L 19.04 15.83 C 19.04 15.66 19 15.53 18.74 15.53 L 17.6 15.53 z M 14.1 15.53 C 13.95 15.53 13.8 15.67 13.8 15.84 L 13.8 19.23 C 13.8 19.4 13.95 19.53 14.1 19.53 L 15.05 19.53 C 15.2 19.53 15.36 19.4 15.36 19.23 L 15.36 15.84 C 15.36 15.67 15.2 15.53 15.05 15.53 L 14.1 15.53 z M 12.27 15.55 C 12.1 15.55 11.96 15.7 11.96 15.86 L 11.96 19.23 C 11.96 19.4 12.1 19.53 12.27 19.53 L 13.13 19.53 C 13.3 19.53 13.44 19.4 13.44 19.23 L 13.44 15.86 C 13.44 15.7 13.3 15.55 13.13 15.55 L 12.27 15.55 z M 7.97 15.67 C 7.8 15.67 7.66 15.8 7.66 16 L 7.66 17.8 C 7.66 17.97 7.8 18.1 7.97 18.1 L 9 18.1 C 9.17 18.1 9.3 17.97 9.3 17.8 L 9.3 16 C 9.3 15.8 9.17 15.67 9 15.67 L 7.97 15.67 z M 23.65 15.67 C 23.5 15.67 23.34 15.8 23.34 16 L 23.34 19.25 C 23.34 19.4 23.5 19.56 23.65 19.56 L 24.46 19.56 C 24.63 19.56 24.77 19.4 24.77 19.25 L 24.77 16 C 24.77 15.8 24.63 15.67 24.46 15.67 L 23.65 15.67 z M 16 16.06 C 15.8 16.06 15.67 16.2 15.67 16.37 L 15.67 19.2 C 15.67 19.37 15.8 19.5 16 19.5 L 16.75 19.5 C 16.9 19.5 17.05 19.37 17.05 19.2 L 17.05 16.37 C 17.05 16.2 16.9 16.06 16.75 16.06 L 16 16.06 z M 22.07 16.1 C 21.9 16.1 21.77 16.25 21.77 16.4 L 21.77 19.23 C 21.77 19.4 21.9 19.53 22.07 19.53 L 22.77 19.53 C 22.93 19.53 23.07 19.4 23.07 19.23 L 23.07 16.4 C 23.07 16.25 22.93 16.1 22.77 16.1 L 22.07 16.1 z M 19.64 18.15 C 19.5 18.15 19.33 18.3 19.33 18.46 L 19.33 19.25 C 19.33 19.4 19.47 19.56 19.64 19.56 L 21.17 19.56 C 21.34 19.56 21.5 19.4 21.5 19.25 L 21.5 18.46 C 21.5 18.3 21.34 18.15 21.17 18.15 L 19.64 18.15 z M 9.94 18.2 C 9.77 18.2 9.63 18.3 9.63 18.5 L 9.63 19.23 C 9.63 19.4 9.77 19.53 9.94 19.53 L 11.37 19.53 C 11.53 19.53 11.67 19.4 11.67 19.23 L 11.67 18.5 C 11.67 18.3 11.53 18.2 11.37 18.2 L 9.94 18.2 z M 8 18.3 C 7.83 18.3 7.7 18.44 7.7 18.6 L 7.7 19.23 C 7.7 19.4 7.83 19.53 8 19.53 L 9 19.53 C 9.17 19.53 9.3 19.4 9.3 19.23 L 9.3 18.6 C 9.3 18.44 9.17 18.3 9 18.3 L 8 18.3 z M 8.1 19.76 C 7.9 19.76 7.8 20 7.8 20.07 L 7.8 20.9 C 7.8 21.1 7.9 21.23 8.1 21.23 L 24.46 21.23 C 24.63 21.23 24.77 21.1 24.77 20.9 L 24.77 20.07 C 24.77 20 24.63 19.76 24.46 19.76 L 8.1 19.76 z M 14.94 21.53 C 14.77 21.53 14.63 21.67 14.63 21.84 L 14.63 22.9 C 14.63 23.1 14.77 23.2 14.94 23.2 L 15.9 23.2 C 16.05 23.2 16.2 23.1 16.2 22.9 L 16.2 21.84 C 16.2 21.67 16.05 21.53 15.9 21.53 L 14.94 21.53 z M 9.94 21.6 C 9.77 21.6 9.63 21.73 9.63 21.9 L 9.63 22.54 C 9.63 22.7 9.77 22.85 9.94 22.85 L 11.4 22.85 C 11.56 22.85 11.7 22.7 11.7 22.54 L 11.7 21.9 C 11.7 21.73 11.56 21.6 11.4 21.6 L 9.94 21.6 z M 7.97 22.26 C 7.8 22.26 7.66 22.4 7.66 22.56 L 7.66 23.3 C 7.66 23.45 7.8 23.6 7.97 23.6 L 9.03 23.6 C 9.3 23.6 9.34 23.45 9.34 23.3 L 9.34 22.56 C 9.34 22.4 9.3 22.26 9.03 22.26 L 7.97 22.26 z M 12.3 22.26 C 12.13 22.26 12 22.4 12 22.56 L 12 23.3 C 12 23.45 12.13 23.6 12.3 23.6 L 13.9 23.6 C 14.06 23.6 14.2 23.45 14.2 23.3 L 14.2 22.56 C 14.2 22.4 14.06 22.26 13.9 22.26 L 12.3 22.26 z M 19.6 22.26 C 19.45 22.26 19.3 22.4 19.3 22.56 L 19.3 23.3 C 19.3 23.45 19.45 23.6 19.6 23.6 L 21.3 23.6 C 21.5 23.6 21.6 23.45 21.6 23.3 L 21.6 22.56 C 21.6 22.4 21.5 22.26 21.3 22.26 L 19.6 22.26 z M 22.23 22.3 C 22.07 22.3 21.93 22.43 21.93 22.6 L 21.93 23.3 C 21.93 23.47 22.07 23.6 22.23 23.6 L 24.44 23.6 C 24.6 23.6 24.74 23.47 24.74 23.3 L 24.74 22.6 C 24.74 22.43 24.6 22.3 24.44 22.3 L 22.23 22.3 z M 9.93 23.05 C 9.77 23.05 9.6 23.2 9.6 23.36 L 9.6 23.87 C 9.6 24.03 9.77 24.2 9.93 24.2 L 11.4 24.2 C 11.56 24.2 11.7 24.03 11.7 23.87 L 11.7 23.36 C 11.7 23.2 11.56 23.05 11.4 23.05 L 9.93 23.05 z M 16.8 23.34 C 16.65 23.34 16.5 23.5 16.5 23.64 L 16.5 24.34 C 16.5 24.5 16.65 24.64 16.8 24.64 L 18.7 24.64 C 18.85 24.64 19 24.5 19 24.34 L 19 23.64 C 19 23.5 18.85 23.34 18.7 23.34 L 16.8 23.34 z M 14.83 23.36 C 14.66 23.36 14.5 23.5 14.5 23.67 L 14.5 24.3 C 14.5 24.45 14.66 24.6 14.83 24.6 L 15.9 24.6 C 16.05 24.6 16.2 24.45 16.2 24.3 L 16.2 23.67 C 16.2 23.5 16.05 23.36 15.9 23.36 L 14.83 23.36 z M 7.97 23.8 C 7.8 23.8 7.66 23.9 7.66 24.1 L 7.66 26.6 C 7.66 26.8 7.8 26.93 7.97 26.93 L 9.03 26.93 C 9.3 26.93 9.34 26.8 9.34 26.6 L 9.34 24.1 C 9.34 23.9 9.3 23.8 9.03 23.8 L 7.97 23.8 z M 19.6 23.8 C 19.45 23.8 19.3 23.9 19.3 24.1 L 19.3 26.57 C 19.3 26.73 19.45 26.87 19.6 26.87 L 21.3 26.87 C 21.5 26.87 21.6 26.73 21.6 26.57 L 21.6 24.1 C 21.6 23.9 21.5 23.8 21.3 23.8 L 19.6 23.8 z M 12.27 23.8 C 12.1 23.8 11.97 23.95 11.97 24.1 L 11.97 26.6 C 11.97 26.8 12.1 26.93 12.27 26.93 L 13.9 26.93 C 14.06 26.93 14.2 26.8 14.2 26.6 L 14.2 24.1 C 14.2 23.95 14.06 23.8 13.9 23.8 L 12.27 23.8 z M 22.2 23.8 C 22.04 23.8 21.9 23.95 21.9 24.1 L 21.9 26.6 C 21.9 26.8 22.04 26.93 22.2 26.93 L 24.46 26.93 C 24.63 26.93 24.77 26.8 24.77 26.6 L 24.77 24.1 C 24.77 23.95 24.63 23.8 24.46 23.8 L 22.2 23.8 z M 9.94 24.3 C 9.77 24.3 9.63 24.46 9.63 24.63 L 9.63 25.27 C 9.63 25.44 9.77 25.6 9.94 25.6 L 11.37 25.6 C 11.53 25.6 11.67 25.44 11.67 25.27 L 11.67 24.63 C 11.67 24.46 11.53 24.3 11.37 24.3 L 9.94 24.3 z M 14.83 24.74 C 14.66 24.74 14.5 24.9 14.5 25.04 L 14.5 27.9 C 14.5 28.1 14.66 28.23 14.83 28.23 L 15.9 28.23 C 16.05 28.23 16.2 28.1 16.2 27.9 L 16.2 25.04 C 16.2 24.9 16.05 24.74 15.9 24.74 L 14.83 24.74 z M 16.8 24.76 C 16.65 24.76 16.5 24.9 16.5 25.07 L 16.5 26.03 C 16.5 26.2 16.65 26.34 16.8 26.34 L 18.7 26.34 C 18.9 26.34 19 26.2 19 26.03 L 19 25.07 C 19 24.9 18.9 24.76 18.7 24.76 L 16.8 24.76 z M 9.94 25.75 C 9.77 25.75 9.63 25.9 9.63 26.05 L 9.63 26.6 C 9.63 26.8 9.77 26.93 9.94 26.93 L 11.4 26.93 C 11.56 26.93 11.7 26.8 11.7 26.6 L 11.7 26.05 C 11.7 25.9 11.56 25.75 11.4 25.75 L 9.94 25.75 z M 16.8 26.5 C 16.65 26.5 16.5 26.6 16.5 26.8 L 16.5 27.95 C 16.5 28.1 16.65 28.26 16.8 28.26 L 18.7 28.26 C 18.9 28.26 19 28.1 19 27.95 L 19 26.8 C 19 26.6 18.9 26.5 18.7 26.5 L 16.8 26.5 z M 9.94 27.07 C 9.77 27.07 9.63 27.2 9.63 27.4 L 9.63 27.9 C 9.63 28.1 9.77 28.23 9.94 28.23 L 11.37 28.23 C 11.53 28.23 11.67 28.1 11.67 27.9 L 11.67 27.4 C 11.67 27.2 11.53 27.07 11.37 27.07 L 9.94 27.07 z M 12.3 27.07 C 12.14 27.07 12 27.2 12 27.4 L 12 27.9 C 12 28.1 12.14 28.23 12.3 28.23 L 13.87 28.23 C 14.04 28.23 14.2 28.1 14.2 27.9 L 14.2 27.4 C 14.2 27.2 14.04 27.07 13.87 27.07 L 12.3 27.07 z M 8 27.1 C 7.83 27.1 7.7 27.24 7.7 27.4 L 7.7 27.9 C 7.7 28.1 7.83 28.23 8 28.23 L 9 28.23 C 9.17 28.23 9.3 28.1 9.3 27.9 L 9.3 27.4 C 9.3 27.24 9.17 27.1 9 27.1 L 8 27.1 z M 19.64 27.1 C 19.5 27.1 19.33 27.24 19.33 27.4 L 19.33 27.9 C 19.33 28.1 19.47 28.23 19.64 28.23 L 21.3 28.23 C 21.46 28.23 21.6 28.1 21.6 27.9 L 21.6 27.4 C 21.6 27.24 21.46 27.1 21.3 27.1 L 19.64 27.1 z M 22.2 27.1 C 22.03 27.1 21.9 27.24 21.9 27.4 L 21.9 27.9 C 21.9 28.1 22.03 28.23 22.2 28.23 L 24.44 28.23 C 24.6 28.23 24.74 28.1 24.74 27.9 L 24.74 27.4 C 24.74 27.24 24.6 27.1 24.44 27.1 L 22.2 27.1 z M 4.75 28.5 C 4.6 28.5 4.44 28.64 4.44 28.8 L 4.44 29.7 C 4.44 29.86 4.6 30 4.75 30 L 27.7 30 C 27.85 30 28 29.86 28 29.7 L 28 28.8 C 28 28.64 27.85 28.5 27.7 28.5 L 4.75 28.5 z " fill="currentColor" opacity=".6"/><path class="ColorScheme-Background" d="m 4.7,3 c -.17,0 -.3,.14 -.3,.3 v .9 c 0,.17 .14,.3 .3,.3 h 23 c .17,0 .3,-.14 .3,-.3 V 3.33 c 0,-.17 -.14,-.3 -.3,-.3 z m .2,.5 H 27.5 V 4.05 H 4.9 Z M 5.9,4.86 c -.17,0 -.3,.14 -.3,.3 v 22.76 c 0,.17 .14,.3 .3,.3 h 1.1 c .17,0 .3,-.14 .3,-.3 V 5.17 c 0,-.17 -.14,-.3 -.3,-.3 z m 4.1,0 c -.17,0 -.3,.14 -.3,.3 v .84 c 0,.17 .14,.3 .3,.3 h 1.33 c .17,0 .3,-.14 .3,-.3 v -.84 c 0,-.17 -.14,-.3 -.3,-.3 z m -2.04,0 c -.17,0 -.3,.14 -.3,.3 v .94 c 0,.17 .14,.3 .3,.3 H 9.03 c .17,0 .3,-.14 .3,-.3 v -.94 c 0,-.17 -.14,-.3 -.3,-.3 z m 12.7,0 c -.17,0 -.3,.14 -.3,.3 v .8 c 10e-7,.17 .14,.3 .3,.3 h 1.4 c .17,0 .3,-.14 .3,-.3 V 5.2 c 0,-.17 -.14,-.3 -.3,-.3 z m 4.7,0 c -.17,-1e-6 -.3,.14 -.3,.3 v 22.74 c 0,.17 .14,.3 .3,.3 h 1.1 c .17,0 .3,-.14 .3,-.3 V 5.2 c 0,-.17 -.14,-.3 -.3,-.3 z M 6.1,5.36 H 6.8 V 27.74 H 6.1 Z m 4.1,0 h .96 V 5.8 H 10.2 Z M 8.2,5.4 H 8.84 v .56 H 8.2 Z m 12.7,0 h 1.03 v .44 h -1.03 z m 4.7,0 h .7 V 27.76 h -.7 z m -13.3,.05 c -.17,0 -.3,.14 -.3,.3 V 6.4 c 0,.17 .14,.3 .3,.3 h 1.6 c .17,0 .3,-.14 .3,-.3 V 5.76 c 0,-.17 -.14,-.3 -.3,-.3 z m 10.66,0 c -.17,0 -.3,.14 -.3,.3 V 6.4 c 0,.17 .14,.3 .3,.3 h 1.46 c .17,0 .3,-.14 .3,-.3 V 5.76 c 0,-.17 -.14,-.3 -.3,-.3 z m -5.65,.4 C 17.14,5.84 17,6 17,6.15 v .96 c 0,.17 .14,.3 .3,.3 h .77 c .17,0 .3,-.14 .3,-.3 V 6.15 c 0,-.17 -.14,-.3 -.3,-.3 z m -4.8,.1 h 1.23 V 6.2 h -1.23 z m 10.66,0 h 1.1 V 6.2 H 23.15 Z M 14.8,6.1 c -.17,0 -.3,.14 -.3,.3 V 7.06 c 0,.17 .14,.3 .3,.3 h 1.55 c .17,0 .3,-.14 .3,-.3 V 6.4 c 0,-.17 -.14,-.3 -.3,-.3 z m 4.2,0 c -.17,0 -.3,.14 -.3,.3 v .8 c 0,.17 .14,.3 .3,.3 h .77 c .17,0 .3,-.14 .3,-.3 V 6.4 c 0,-.17 -.14,-.3 -.3,-.3 z m -1.5,0.25 h .4 V 6.9 H 17.5 Z M 9.94,6.5 c -.17,0 -.3,.14 -.3,.3 v 2.7 c -1e-7,.17 .14,.3 .3,.3 h 1.43 c .17,0 .3,-.14 .3,-.3 V 6.8 c 0,-.17 -.14,-.3 -.3,-.3 z m 10.7,0 c -.17,0 -.3,.14 -.3,.3 v 2.7 c 0,.17 .14,.3 .3,.3 h 1.46 c .17,-10e-7 .3,-.14 .3,-.3 V 6.8 c 0,-.17 -.14,-.3 -.3,-.3 z m -5.66,.1 h 1.2 V 6.9 h -1.2 z m 4.2,0 h .4 v .44 H 19.17 Z M 7.97,6.8 c -.17,0 -.3,.14 -.3,.3 V 7.4 c 0,.17 .14,.3 .3,.3 H 9.03 c .17,0 .3,-.14 .3,-.3 V 7.1 C 9.34,6.9 9.3,6.8 9.03,6.8 Z M 22.96,6.8 c -.17,0 -.3,.14 -.3,.3 v 2.53 c 0,.17 .14,.3 .3,.3 h 1.47 c .17,0 .3,-.14 .3,-.3 V 7.13 c 0,-.17 -.14,-.3 -.3,-.3 z m -10.7,.03 c -.17,0 -.3,.14 -.3,.3 v 2.56 c 0,.17 .14,.3 .3,.3 h 1.63 c .17,0 .3,-.14 .3,-.3 V 7.16 c 0,-.17 -.14,-.3 -.3,-.3 z M 10.1,7 h 1.05 V 9.3 H 10.1 Z m 10.7,0 h 1.1 v 2.3 h -1.1 z m 2.3,.34 h 1.1 V 9.47 h -1.1 z m -10.7,.03 h 1.25 v 2.2 h -1.25 z m 2.34,.17 c -.17,0 -.3,.14 -.3,.3 v 1.87 c 0,.17 .14,.3 .3,.3 h 1.53 c .17,0 .3,-.14 .3,-.3 V 7.8 c 0,-.17 -.14,-.3 -.3,-.3 z m 2.5,.07 c -.17,0 -.3,.14 -.3,.3 v 3.1 c 0,.17 .14,.3 .3,.3 h .8 c .17,0 .3,-.14 .3,-.3 V 7.9 c 0,-.17 -.14,-.3 -.3,-.3 z m 1.7,.07 c -.17,0 -.3,.14 -.3,.3 v 3.03 c 0,.17 .14,.3 .3,.3 h .77 c .17,0 .3,-.14 .3,-.3 V 7.97 c 0,-.17 -.14,-.3 -.3,-.3 z M 7.97,7.9 c -.17,0 -.3,.14 -.3,.3 v 2.8 c 0,.17 .14,.3 .3,.3 H 9.03 c .17,0 .3,-.14 .3,-.3 v -2.8 c 0,-.17 -.14,-.3 -.3,-.3 z m 7,.1 h 1.15 v 1.5 h -1.15 z m 2.5,.07 h .4 v 2.7 h -.4 z m 1.7,.07 h .4 v 2.65 H 19.17 Z M 8.16,8.4 H 8.84 v 2.4 H 8.16 Z m 1.8,1.54 c -.17,0 -.3,.14 -.3,.3 v .7 c 0,.17 .14,.3 .3,.3 h 1.4 c .17,0 .3,-.14 .3,-.3 v -.7 c 0,-.17 -.14,-.3 -.3,-.3 z m 10.7,0 c -.17,0 -.3,.14 -.3,.3 v .74 c 10e-7,.17 .14,.3 .3,.3 h 1.43 c .17,0 .3,-.14 .3,-.3 v -.74 c 10e-7,-.17 -.14,-.3 -.3,-.3 z m -8.4,.2 c -.17,0 -.3,.14 -.3,.3 v .5 c 0,.17 .14,.3 .3,.3 h 1.6 c .17,0 .3,-.14 .3,-.3 v -.5 c 0,-.17 -.14,-.3 -.3,-.3 z m 2.5,0 c -.17,0 -.3,.14 -.3,.3 v .5 c 0,.17 .14,.3 .3,.3 h 1.56 c .17,0 .3,-.14 .3,-.3 v -.5 c 10e-7,-.17 -.14,-.3 -.3,-.3 z m 8.16,0 c -.17,0 -.3,.14 -.3,.3 v .5 c 0,.17 .14,.3 .3,.3 h 1.5 c .17,0 .3,-.14 .3,-.3 v -.5 c 0,-.17 -.14,-.3 -.3,-.3 z m -12.8,.3 h 1.03 v .34 h -1.03 z m 10.7,0 h 1.06 v .37 h -1.06 z m -8.4,.2 h 1.23 v .14 h -1.23 z m 2.5,0 h 1.2 v .14 h -1.2 z m 8.16,0 h 1.13 v .14 h -1.13 z m -15.2,.9 c -.17,-10e-7 -.3,.14 -.3,.3 v .84 c 0,.17 .14,.3 .3,.3 H 24.44 c .17,-10e-7 .3,-.14 .3,-.3 v -.84 c 0,-.17 -.14,-.3 -.3,-.3 z m .2,.5 h 16.14 v .46 H 8.1 Z m 11.6,1.3 c -.17,0 -.3,.14 -.3,.3 v 1 c 0,.17 .14,.3 .3,.3 h 1.46 c .17,0 .3,-.14 .3,-.3 v -1 c 10e-7,-.17 -.14,-.3 -.3,-.3 z m -9.77,0 c -.17,0 -.3,.14 -.3,.3 v .96 c -1e-7,.17 .14,.3 .3,.3 h 1.46 c .17,0 .3,-.14 .3,-.3 v -.96 c 0,-.17 -.14,-.3 -.3,-.3 z m 4.2,.03 c -.17,0 -.3,.14 -.3,.3 v 1.3 c 0,.17 .14,.3 .3,.3 h .86 c .17,0 .3,-.14 .3,-.3 v -1.3 c 0,-.17 -.14,-.3 -.3,-.3 z m 5.8,.45 h 1.1 v .6 H 19.9 Z M 10.1,13.86 h 1.1 V 14.44 H 10.1 Z m 4.2,.03 h .5 v .95 h -.5 z m 3.3,.14 c -.17,0 -.3,.14 -.3,.3 v .7 c 0,.17 .14,.3 .3,.3 h 1.1 c .17,-1e-6 .3,-.14 .3,-.3 v -.7 c 0,-.17 -.14,-.3 -.3,-.3 z m -5.3,0 c -.17,0 -.3,.14 -.3,.3 v .7 c 0,.17 .14,.3 .3,.3 h .86 c .17,0 .3,-.14 .3,-.3 v -.7 c 0,-.17 -.14,-.3 -.3,-.3 z m 11.34,0 c -.17,0 -.3,.14 -.3,.3 v .84 c 0,.17 .14,.3 .3,.3 H 24.44 c .17,0 .3,-.14 .3,-.3 v -.84 c 0,-.17 -.14,-.3 -.3,-.3 z M 7.97,14.16 c -.17,0 -.3,.14 -.3,.3 v .7 c 0,.17 .14,.3 .3,.3 H 9.03 c .17,0 .3,-.14 .3,-.3 v -.7 c 0,-.17 -.14,-.3 -.3,-.3 z m 8,0.25 c -.17,0 -.3,.14 -.3,.3 v .85 c 0,.17 .14,.3 .3,.3 h .7 c .17,-1e-6 .3,-.14 .3,-.3 v -.85 c 0,-.17 -.14,-.3 -.3,-.3 z m 1.83,.1 h .73 v .34 h -.73 z m -5.3,0 h .5 v .34 h -.5 z m 11.34,0 h .4 v .46 h -.4 z m -1.76,.05 c -.17,-10e-7 -.3,.14 -.3,.3 v .77 c 0,.17 .14,.3 .3,.3 h .7 c .17,0 .3,-.14 .3,-.3 V 14.9 c 0,-.17 -.14,-.3 -.3,-.3 z M 8.16,14.65 H 8.84 v .33 H 8.16 Z m 8,0.25 h .34 v .5 h -.34 z m -6.23,.2 c -.17,0 -.3,.14 -.3,.3 v 2.3 c 0,.17 .14,.3 .3,.3 h 1.46 c .17,0 .3,-.14 .3,-.3 v -2.3 c 0,-.17 -.14,-.3 -.3,-.3 z m 9.73,0 c -.17,0 -.3,.14 -.3,.3 v 2.3 c 0,.17 .14,.3 .3,.3 h 1.5 c .17,0 .3,-.14 .3,-.3 v -2.3 c 0,-.17 -.14,-.3 -.3,-.3 z m 2.6,0 h .34 v .4 h -.34 z m -4.66,.44 c -.17,0 -.3,.14 -.3,.3 v 3.4 c 0,.17 .14,.3 .3,.3 h 1.13 c .17,0 .3,-.14 .3,-.3 v -3.4 c 0,-.17 -.14,-.3 -.3,-.3 z m -3.5,0 c -.17,0 -.3,.14 -.3,.3 v 3.4 c 0,.17 .14,.3 .3,.3 h .94 c .17,0 .3,-.14 .3,-.3 v -3.4 c 0,-.17 -.14,-.3 -.3,-.3 z m -1.84,0 c -.17,0 -.3,.14 -.3,.3 v 3.37 c 0,.17 .14,.3 .3,.3 h .87 c .17,0 .3,-.14 .3,-.3 v -3.37 c 0,-.17 -.14,-.3 -.3,-.3 z m -2.14,.03 h 1.1 v 1.9 H 10.1 Z m 9.73,0 h 1.13 v 1.9 h -1.13 z m -11.9,.1 c -.17,0 -.3,.14 -.3,.3 v 1.8 c 0,.17 .14,.3 .3,.3 h 1.04 c .17,0 .3,-.14 .3,-.3 v -1.8 c 0,-.17 -.14,-.3 -.3,-.3 z m 15.7,0 c -.17,0 -.3,.14 -.3,.3 v 3.27 c 0,.17 .14,.3 .3,.3 h .8 c .17,0 .3,-.14 .3,-.3 v -3.27 c 0,-.17 -.14,-.3 -.3,-.3 z m -5.86,.35 h .76 v 3 h -.76 z m -3.5,0 h .56 v 3 h -.56 z m -1.84,0 h .5 v 3 h -.5 z m 3.5,0 c -.17,0 -.3,.14 -.3,.3 v 2.83 c 0,.17 .14,.3 .3,.3 h .77 c .17,0 .3,-.14 .3,-.3 v -2.83 c 0,-.17 -.14,-.3 -.3,-.3 z m 6.1,.04 c -.17,0 -.3,.14 -.3,.3 v 2.8 c 0,.17 .14,.3 .3,.3 h .7 c .17,0 .3,-.14 .3,-.3 V 16.4 c 0,-.17 -.14,-.3 -.3,-.3 z M 8.16,16.17 h .66 v 1.45 H 8.16 Z m 15.7,0 h .44 v 2.9 h -.44 z m -7.67,.4 h .4 v 2.45 h -.4 z m 6.1,.04 h .3 v 2.43 h -.3 z m -2.6,1.55 c -.17,0 -.3,.14 -.3,.3 v .8 c 0,.17 .14,.3 .3,.3 h 1.53 c .17,0 .3,-.14 .3,-.3 v -.8 c 10e-7,-.17 -.14,-.3 -.3,-.3 z m -9.7,.03 c -.17,0 -.3,.14 -.3,.3 v .74 c -1e-7,.17 .14,.3 .3,.3 h 1.43 c .17,0 .3,-.14 .3,-.3 v -.74 c 0,-.17 -.14,-.3 -.3,-.3 z m -1.94,.1 c -.17,0 -.3,.14 -.3,.3 v .6 c 0,.17 .14,.3 .3,.3 h 1 c .17,0 .3,-.14 .3,-.3 v -.6 c 0,-.17 -.14,-.3 -.3,-.3 z m 11.84,.35 h 1.15 v .4 h -1.15 z m -9.7,.03 h 1.05 V 19.04 H 10.1 Z M 8.2,18.8 H 8.8 V 19.04 H 8.2 Z m -.1,.96 c -.17,0 -.3,.14 -.3,.3 v .85 c 0,.17 .14,.3 .3,.3 H 24.46 c .17,0 .3,-.14 .3,-.3 v -.85 c 0,-.17 -.14,-.3 -.3,-.3 z m .2,.5 H 24.3 v .5 H 8.3 Z m 6.66,1.3 c -.17,0 -.3,.14 -.3,.3 v 1.07 c 0,.17 .14,.3 .3,.3 h .95 c .17,0 .3,-.14 .3,-.3 V 21.84 c 0,-.17 -.14,-.3 -.3,-.3 z m -3.55,.05 -1.46,0 c -.17,0 -.3,.14 -.3,.3 v .65 c 0,.17 .14,.3 .3,.3 h 1.46 c .17,0 .3,-.14 .3,-.3 v -.65 c 0,-.17 -.14,-.3 -.3,-.3 z m 3.74,.44 h .57 V 22.7 H 15.13 Z M 10.1,22.1 h 1.1 v .27 H 10.1 Z m -2.15,.17 c -.17,0 -.3,.14 -.3,.3 v .7 c 0,.17 .14,.3 .3,.3 H 9.03 c .17,0 .3,-.14 .3,-.3 v -.7 c 0,-.17 -.14,-.3 -.3,-.3 z m 4.3,0 c -.17,0 -.3,.14 -.3,.3 v .7 c 0,.17 .14,.3 .3,.3 h 1.6 c .17,0 .3,-.14 .3,-.3 v -.7 c 0,-.17 -.14,-.3 -.3,-.3 z m 7.3,0 c -.17,0 -.3,.14 -.3,.3 v .7 c 0,.17 .14,.3 .3,.3 h 1.7 c .17,0 .3,-.14 .3,-.3 v -.7 c 0,-.17 -.14,-.3 -.3,-.3 z m 2.6,.03 c -.17,0 -.3,.14 -.3,.3 v .7 c 0,.17 .14,.3 .3,.3 H 24.44 c .17,0 .3,-.14 .3,-.3 v -.7 c 0,-.17 -.14,-.3 -.3,-.3 z M 8.16,22.75 H 8.84 v .34 H 8.16 Z m 4.3,0 h 1.23 v .34 h -1.23 z m 7.3,0 h 1.3 v .34 h -1.3 z m 2.6,.03 h 1.83 V 23.1 H 22.4 Z M 9.93,23.05 C 9.77,23.05 9.6,23.2 9.6,23.36 v .5 c 0,.17 .14,.3 .3,.3 h 1.46 c .17,0 .3,-.14 .3,-.3 v -.5 c 0,-.17 -.14,-.3 -.3,-.3 z m 6.9,.3 c -.17,0 -.3,.14 -.3,.3 v .7 c 0,.17 .14,.3 .3,.3 H 18.7 c .17,0 .3,-.14 .3,-.3 v -.7 c 0,-.17 -.14,-.3 -.3,-.3 z m -2,.03 c -.17,0 -.3,.14 -.3,.3 v .6 c 0,.17 .14,.3 .3,.3 h 1.06 c .17,0 .3,-.14 .3,-.3 v -.6 c 0,-.17 -.14,-.3 -.3,-.3 z m -4.7,.2 h 1.1 v .13 h -1.1 z m -2.15,.23 c -.17,0 -.3,.14 -.3,.3 v 2.54 c 0,.17 .14,.3 .3,.3 H 9.03 c .17,0 .3,-.14 .3,-.3 v -2.54 c 0,-.17 -.14,-.3 -.3,-.3 z m 11.65,0 c -.17,0 -.3,.14 -.3,.3 v 2.5 c 0,.17 .14,.3 .3,.3 h 1.7 c .17,0 .3,-.14 .3,-.3 v -2.5 c 0,-.17 -.14,-.3 -.3,-.3 z m -7.34,0 c -.17,0 -.3,.14 -.3,.3 v 2.5 c 0,.17 .14,.3 .3,.3 h 1.6 c .17,0 .3,-.14 .3,-.3 v -2.5 c 0,-.17 -.14,-.3 -.3,-.3 z m 9.93,0 c -.17,0 -.3,.14 -.3,.3 v 2.5 c 0,.17 .14,.3 .3,.3 h 2.26 c .17,0 .3,-.14 .3,-.3 v -2.5 c 0,-.17 -.14,-.3 -.3,-.3 z m -5.2,.03 H 18.5 v .3 h -1.5 z m -2,0 h .7 V 24.1 H 15 Z M 8.16,24.27 H 8.84 v 2.16 H 8.16 Z m 11.65,0 h 1.3 v 2.1 h -1.3 z m -7.34,.03 h 1.25 v 2.13 h -1.25 z m 9.93,0 h 1.9 v 2.13 h -1.9 z m -12.45,0 c -.17,0 -.3,.14 -.3,.3 v .64 c -1e-7,.17 .14,.3 .3,.3 h 1.43 c .17,0 .3,-.14 .3,-.3 v -.64 c 0,-.17 -.14,-.3 -.3,-.3 z m 4.9,.4 c -.17,0 -.3,.14 -.3,.3 v 2.9 c 0,.17 .14,.3 .3,.3 h 1.06 c .17,0 .3,-.14 .3,-.3 v -2.9 c 0,-.17 -.14,-.3 -.3,-.3 z m 2,.03 c -.17,1e-6 -.3,.14 -.3,.3 v .96 c 0,.17 .14,.3 .3,.3 h 1.9 c .17,0 .3,-.14 .3,-.3 v -.96 c 0,-.17 -.14,-.3 -.3,-.3 z M 10.1,24.8 h 1.05 v .27 H 10.1 Z m 4.9,.4 h .7 v 2.5 h -.7 z m 2,0 h 1.5 v .6 H 17 Z M 9.94,25.75 c -.17,0 -.3,.14 -.3,.3 v .57 c 0,.17 .14,.3 .3,.3 h 1.46 c .17,0 .3,-.14 .3,-.3 v -.57 c 0,-.17 -.14,-.3 -.3,-.3 z M 10.1,26.24 h 1.1 v .2 H 10.1 Z m 6.7,.24 c -.17,0 -.3,.14 -.3,.3 v 1.16 c 0,.17 .14,.3 .3,.3 h 1.9 c .17,0 .3,-.14 .3,-.3 v -1.16 c 0,-.17 -.14,-.3 -.3,-.3 z m .2,.5 h 1.5 v .8 h -1.5 z m -7.07,.1 c -.17,0 -.3,.14 -.3,.3 v .54 c 0,.17 .14,.3 .3,.3 h 1.43 c .17,0 .3,-.14 .3,-.3 v -.54 c 0,-.17 -.14,-.3 -.3,-.3 z m 2.37,0 c -.17,0 -.3,.14 -.3,.3 v .54 c 0,.17 .14,.3 .3,.3 h 1.57 c .17,0 .3,-.14 .3,-.3 v -.54 c 0,-.17 -.14,-.3 -.3,-.3 z m -4.3,.03 c -.17,0 -.3,.14 -.3,.3 v .5 c 0,.17 .14,.3 .3,.3 h 1 c .17,0 .3,-.14 .3,-.3 v -.5 c 0,-.17 -.14,-.3 -.3,-.3 z m 11.65,0 c -.17,0 -.3,.14 -.3,.3 v .5 c 0,.17 .14,.3 .3,.3 h 1.65 c .17,0 .3,-.14 .3,-.3 v -.5 c 0,-.17 -.14,-.3 -.3,-.3 z m 2.56,0 c -.17,0 -.3,.14 -.3,.3 v .5 c 0,.17 .14,.3 .3,.3 H 24.44 c .17,0 .3,-.14 .3,-.3 v -.5 c 0,-.17 -.14,-.3 -.3,-.3 z M 10.1,27.57 h 1.05 v .17 H 10.1 Z m 2.37,0 h 1.2 v .17 h -1.2 z m -4.3,0 h .63 v .14 H 8.2 Z m 11.65,0 h 1.27 v .14 h -1.27 z m 2.55,0 h 1.86 v .14 H 22.4 Z M 4.75,28.5 c -.17,0 -.3,.14 -.3,.3 v .9 c 0,.17 .14,.3 .3,.3 H 27.7 c .17,0 .3,-.14 .3,-.3 v -.9 c 0,-.17 -.14,-.3 -.3,-.3 z m .2,.5 H 27.5 v .5 H 4.94 Z" fill="currentColor" opacity=".6"/></g><use href="#ulX" opacity=".4"></use><use fill="url(#ulV)" href="#ulX" opacity=".1"></use><path d="m 26,16 c -2,0 -4,2 -6,2 H 6 c -1.11,0 -2,.9 -2,2 v 34 c 0,1.1 .9,2 2,2 h 52 c 1.1,0 2,-.9 2,-2 V 18 c 0,-1.1 -.9,-2 -2,-2 z" fill="url(#ulU)" opacity=".2"/><path class="ColorScheme-Contrast" d="m 4,52 v 1 c 0,1.66 1.34,3 3,3 h 50 c 1.66,0 3,-1.34 3,-3 v -1 c 0,1.66 -1.34,3 -3,3 H 7 C 5.34,55 4,53.66 4,52 Z" fill="currentColor" opacity=".1"/><path class="ColorScheme-Contrast" d="M 4,52.5 V 53 c 0,1.66 1.34,3 3,3 h 50 c 1.66,0 3,-1.34 3,-3 v -0.5 c 0,1.66 -1.34,3 -3,3 H 7 c -1.66,0 -3,-1.34 -3,-3 z" fill="currentColor" opacity=".2"/><path d="m 27,16 c -3,0 -3,2 -7,2 H 7 c -1.66,0 -3,1.34 -3,3 v 1 c 0,-1.66 1.34,-3 3,-3 h 13 c 4,0 4,-2 7,-2 h 30 c 1.66,0 3,1.34 3,3 v -1 c 0,-1.66 -1.34,-3 -3,-3 z" fill="#fff" opacity=".1"/><path d="m 27,16 c -3,0 -3,2 -7,2 H 7 c -1.66,0 -3,1.34 -3,3 v 0.5 c 0,-1.66 1.34,-3 3,-3 h 13 c 4,0 4,-2 7,-2 h 30 c 1.66,0 3,1.34 3,3 V 19 c 0,-1.66 -1.34,-3 -3,-3 z" fill="#fff" opacity=".2"/><path d="m 27,15 c -3,0 -3,2 -7,2 H 7 v 1 h 13 c 4,0 4,-2 7,-2 h 30 v -1 z" opacity=".1"/><path d="m 27,15.5 c -3,0 -3,2 -7,2 H 7 V 18 h 13 c 4,0 4,-2 7,-2 h 30 v -0.5 z" opacity=".2"/></g>
</svg>