<?xml version="1.0" encoding="utf-8"?><svg height="64" width="64" xmlns="http://www.w3.org/2000/svg" xmlns:svg="http://www.w3.org/2000/svg" xmlns:xlink="http://www.w3.org/1999/xlink"><defs id="primary-definitions"><style id="current-color-scheme" type="text/css">.ColorScheme-Text           { color:#fff; }
      .ColorScheme-Background     { color:#111; }
      .ColorScheme-Highlight      { color:#3daefd; }
      .ColorScheme-ViewBackground { color:#000; }
      .ColorScheme-PositiveText   { color:#27ae60; }
      .ColorScheme-NeutralText    { color:#f67400; }
      .ColorScheme-NegativeText   { color:#da4453; }
  </style><style id="extended-color-scheme" type="text/css">.ExScheme-Black     { color:#3e3e3e; }
      .ExScheme-White     { color:#fcfcfc; }
      .ExScheme-Grey-1    { color:#cfd5d5; }
      .ExScheme-Grey-2    { color:#909c9c; }
      .ExScheme-Grey-3    { color:#536161; }
      .ExScheme-Red-1     { color:#ffafa5; }
      .ExScheme-Red-2     { color:#bf4231; }
      .ExScheme-Red-3     { color:#4d2f2b; }
      .ExScheme-Green-1   { color:#abf9c7; }
      .ExScheme-Green-2   { color:#3bb566; }
      .ExScheme-Green-3   { color:#377d50; }
      .ExScheme-Blue-1    { color:#abdaf9; }
      .ExScheme-Blue-2    { color:#3daefd; }
      .ExScheme-Blue-3    { color:#2b3c4d; }
      .ExScheme-Yellow-1  { color:#faffa5; }
      .ExScheme-Yellow-2  { color:#cac726; }
      .ExScheme-Yellow-3  { color:#4b4d2b; }
      .ExScheme-Orange-1  { color:#ffdaa5; }
      .ExScheme-Orange-2  { color:#ff9701; }
      .ExScheme-Orange-3  { color:#4d372b; }
      .ExScheme-Brown-1   { color:#e9d6bb; }
      .ExScheme-Brown-2   { color:#997657; }
      .ExScheme-Brown-3   { color:#433a35; }
      .ExScheme-Purple-1  { color:#e2abf9; }
      .ExScheme-Purple-2  { color:#b401ff; }
      .ExScheme-Purple-3  { color:#432b4d; }
      .ExScheme-Cyan-1    { color:#b2f2e6; }
      .ExScheme-Cyan-2    { color:#31bfa6; }
      .ExScheme-Cyan-3    { color:#2b4d47; }
      .ExScheme-Magenta-1 { color:#f8a6d8; }
      .ExScheme-Magenta-2 { color:#f00091; }
      .ExScheme-Magenta-3 { color:#770048; }
  </style><linearGradient id="gradientDark"><stop offset="0"/><stop offset="1" stop-opacity="0"/></linearGradient><linearGradient id="gradientLight"><stop offset="0" stop-color="#fff"/><stop offset="1" stop-color="#fff" stop-opacity="0"/></linearGradient><style class="toggle-enable-crease" type="text/css">.folder-crease { display: none; }
  </style><style class="toggle-manilla-folders" type="text/css">.folder-manilla { display: none; }
  </style><radialGradient cx=".5" cy="0" id="gl1" r="1" xlink:href="#gradientLight"/><linearGradient id="gd1" xlink:href="#gradientDark" y1="1" y2=".5"/><path d="M 10,8 C 8.338,8 7,9.338 7,11 v 7 c -1.662,0 -3,1.338 -3,3 v 32 c 0,1.662 1.338,3 3,3 h 50 c 1.662,0 3,-1.338 3,-3 V 26 21 19 c 0,-1.662 -1.338,-3 -3,-3 v -3 c 0,-1.662 -1.338,-3 -3,-3 H 28 C 24,10 24,8 21,8 Z" id="use-path-cu"/><path d="M 10,8 C 8.338,8 7,9.338 7,11 v 7 h 13 c 4,0 4,-2 7,-2 h 30 v -3 c 0,-1.662 -1.338,-3 -3,-3 H 28 C 24,10 24,8 21,8 Z" id="use-path-cv"/></defs><g id="content"><use class="folder-manilla ExScheme-Brown-1" fill="currentColor" href="#use-path-cu"/><use class="toggle-manilla-folders ExScheme-Grey-1" fill="currentColor" href="#use-path-cu" id="primary-color"/><use class="ColorScheme-Text" fill="currentColor" href="#use-path-cu" opacity=".1"/><g id="emblem" transform="translate(16,21)"><path class="ExScheme-Grey-3" d="M 4 2 C 2.892 2 2 2.892 2 4 L 2 28 C 2 29.108 2.892 30 4 30 L 13 30 L 18.81 30 L 28 30 C 29.108 30 30 29.108 30 28 L 30 4 C 30 2.892 29.108 2 28 2 L 16.562 2 L 13 2 L 4 2 z M 16.113 3 L 28 3 C 28.554 3 29 3.446 29 4 L 29 28 C 29 28.554 28.554 29 28 29 L 18.637 29 C 18.413 27.618 18.255 26.213 18.148 24.86 C 17.484 24.947 16.77 25 16 25 C 13.255 25 11.178 24.355 9.787 23.703 C 8.396 23.05 7.658 22.365 7.658 22.365 A 0.5 0.5 0 0 1 7.635 21.658 A 0.5 0.5 0 0 1 7.984 21.5 A 0.5 0.5 0 0 1 8.342 21.635 C 8.342 21.635 8.938 22.2 10.213 22.797 C 11.488 23.395 13.41 24 16 24 C 16.748 24 17.44 23.95 18.076 23.863 C 17.802 19.54 18 16 18 16 L 14 16 C 14 16 13.582 9.04 16.113 3 z M 18.076 23.863 C 18.097 24.19 18.122 24.524 18.148 24.86 C 19.853 24.635 21.212 24.173 22.213 23.703 C 23.604 23.05 24.342 22.365 24.342 22.365 A 0.5 0.5 0 0 0 24.365 21.658 A 0.5 0.5 0 0 0 23.887 21.514 A 0.5 0.5 0 0 0 23.658 21.635 C 23.658 21.635 23.062 22.2 21.787 22.797 C 20.88 23.222 19.644 23.65 18.076 23.863 z M 8.5 10 C 8.777 10 9 10.223 9 10.5 L 9 12.5 C 9 12.777 8.777 13 8.5 13 C 8.223 13 8 12.777 8 12.5 L 8 10.5 C 8 10.223 8.223 10 8.5 10 z M 23.5 10 C 23.223 10 23 10.223 23 10.5 L 23 12.5 C 23 12.777 23.223 13 23.5 13 C 23.777 13 24 12.777 24 12.5 L 24 10.5 C 24 10.223 23.777 10 23.5 10 z " fill="currentColor" opacity=".6"/><path class="ExScheme-Grey-3" d="M 4,2 C 2.892,2 2,2.892 2,4 v 24 c 0,1.108 0.892,2 2,2 h 24 c 1.108,0 2,-0.892 2,-2 V 4 C 30,2.892 29.108,2 28,2 Z M 4,2.5 H 15.863 C 13.114,8.762 13.5,16.03 13.5,16.03 13.516,16.294 13.735,16.5 14,16.5 h 3.506 c -.02,.403 -.124,3.2 .066,6.896 C 17.073,23.45 16.568,23.5 16,23.5 c -2.51,0 -4.356,-.585 -5.574,-1.156 -1.22,-.572 -1.74,-1.072 -1.74,-1.072 -6.492e-4,-6.53e-4 -0,-0 -.002,-0.002 C 8.49,21.09 8.233,20.992 7.97,21 c -.266,.008 -.518,.122 -.7,.316 -.374,.4 -.352,1.04 .047,1.414 6.511e-4,1e-6 0,1e-6 .002,0 0,0 .804,.745 2.256,1.426 C 11.024,24.836 13.177,25.5 16,25.5 c .613,0 1.165,-.055 1.713,-.11 .117,1.353 .29,2.74 .527,4.11 H 4 C 3.16,29.5 2.5,28.84 2.5,28 V 4 C 2.5,3.16 3.16,2.5 4,2.5 Z M 16.113,3 H 28 c 0.554,0 1,0.446 1,1 v 24 c 0,0.554 -0.446,1 -1,1 H 18.637 C 18.413,27.618 18.255,26.213 18.148,24.86 17.484,24.947 16.77,25 16,25 13.255,25 11.178,24.355 9.787,23.703 8.396,23.05 7.658,22.365 7.658,22.365 7.456,22.177 7.446,21.86 7.635,21.658 7.726,21.56 7.85,21.504 7.984,21.5 c .132,-.004 .26,.044 .357,.135 0,0 .596,.564 1.87,1.162 C 11.488,23.395 13.41,24 16,24 16.748,24 17.44,23.95 18.076,23.863 17.802,19.54 18,16 18,16 h -4 c 0,0 -.418,-6.96 2.113,-13 z m 1.963,20.863 c .02,.327 .046,.66 .072,.996 1.705,-.224 3.063,-.687 4.064,-1.156 1.39,-.652 2.13,-1.338 2.13,-1.338 .202,-.19 .212,-.505 .023,-.707 -.122,-.13 -.305,-.185 -.48,-.145 -.085,.02 -.164,.06 -.23,.12 0,0 -.596,.564 -1.87,1.162 -.907,.425 -2.143,.854 -3.71,1.066 z M 8.5,9.5 c -.545,0 -1,.455 -1,1 v 2 c 0,.545 .455,1 1,1 .545,0 1,-.455 1,-1 v -2 c 0,-.545 -.455,-1 -1,-1 z m 0,0.5 C 8.777,10 9,10.223 9,10.5 v 2 C 9,12.777 8.777,13 8.5,13 8.223,13 8,12.777 8,12.5 v -2 C 8,10.223 8.223,10 8.5,10 Z m 15,0 C 23.223,10 23,10.223 23,10.5 v 2 c 0,0.277 0.223,0.5 0.5,0.5 0.277,0 0.5,-0.223 0.5,-0.5 v -2 C 24,10.223 23.777,10 23.5,10 Z" fill="currentColor" opacity=".6"/></g><use href="#use-path-cv" opacity=".4"/><use class="toggle-flat-design" fill="url(#gd1)" href="#use-path-cv" opacity=".1"/><path class="toggle-flat-design" d="m 26,16 c -2,0 -4,2 -6,2 H 6 c -1.11,0 -2,0.892 -2,2 v 34 c 0,1.108 0.892,2 2,2 h 52 c 1.108,0 2,-0.892 2,-2 V 18 c 0,-1.108 -0.892,-2 -2,-2 z" fill="url(#gl1)" opacity=".2"/><path class="folder-crease" d="m 4,44 v 2 h 9 c 0.554,0 1,-0.446 1,-1 0,-0.554 -0.446,-1 -1,-1 z m 47,0 c -0.554,0 -1,0.446 -1,1 0,0.554 0.446,1 1,1 h 9 v -2 z" opacity=".4"/><path class="ColorScheme-Text" d="m 4,52 v 1 c 0,1.662 1.338,3 3,3 h 50 c 1.662,0 3,-1.338 3,-3 v -1 c 0,1.662 -1.338,3 -3,3 H 7 C 5.338,55 4,53.662 4,52 Z" fill="currentColor" opacity=".1"/><path class="ColorScheme-Text" d="M 4,52.5 V 53 c 0,1.662 1.338,3 3,3 h 50 c 1.662,0 3,-1.338 3,-3 v -0.5 c 0,1.662 -1.338,3 -3,3 H 7 c -1.662,0 -3,-1.338 -3,-3 z" fill="currentColor" opacity=".2"/><path d="m 27,16 c -3,0 -3,2 -7,2 H 7 c -1.662,0 -3,1.338 -3,3 v 1 c 0,-1.662 1.338,-3 3,-3 h 13 c 4,0 4,-2 7,-2 h 30 c 1.662,0 3,1.338 3,3 v -1 c 0,-1.662 -1.338,-3 -3,-3 z" fill="#fff" opacity=".1"/><path d="m 27,16 c -3,0 -3,2 -7,2 H 7 c -1.662,0 -3,1.338 -3,3 v 0.5 c 0,-1.662 1.338,-3 3,-3 h 13 c 4,0 4,-2 7,-2 h 30 c 1.662,0 3,1.338 3,3 V 19 c 0,-1.662 -1.338,-3 -3,-3 z" fill="#fff" opacity=".2"/><path d="m 27,15 c -3,0 -3,2 -7,2 H 7 v 1 h 13 c 4,0 4,-2 7,-2 h 30 v -1 z" opacity=".1"/><path d="m 27,15.5 c -3,0 -3,2 -7,2 H 7 V 18 h 13 c 4,0 4,-2 7,-2 h 30 v -0.5 z" opacity=".2"/></g></svg>