<svg xmlns="http://www.w3.org/2000/svg" viewBox="0 0 64 64">
  <defs id="defs3051">
    <style type="text/css" id="current-color-scheme">
      .ColorScheme-Text {
        color:#232629;
      }
      .ColorScheme-Highlight {
        color:#3daee9;
      }
      </style>
  </defs>
 <path
     style="fill:currentColor"
     d="M 4 6 L 4 11 L 4 20 L 3 20 L 3 21 L 3 21 C 3 21 3 21 3 21 L 3 57 L 3 58 L 4 58 L 60 58 L 61 58 L 61 57 L 61 21 L 61 21 L 61 16 L 60 16 L 60 11 C 60 11 60 11 60 11 L 60 11 L 60 10 L 32 10 L 28 6 L 4 6 z "
     class="ColorScheme-Highlight"
     />
 <path
     style="fill-opacity:0.33"
     d="M 4 6 L 4 11 L 4 20 L 22 20 L 26 16 L 60 16 L 60 11 C 60 11 60 11 60 11 L 60 11 L 60 10 L 32 10 L 28 6 L 4 6 z "
     />
 <path
     style="fill:#ffffff;fill-opacity:0.2"
     d="M 28 6 L 31 11 L 33 11 L 60 11 L 60 10 L 33 10 L 32 10 L 28 6 z M 26 16 L 22 20 L 3 20 L 3 21 L 23 21 L 26 16 z "
     />
 <path
     style="fill-opacity:0.2;fill-rule:evenodd"
     d="M 26 16 L 20 19 L 4 19 L 4 20 L 22 20 L 26 16 z M 3 57 L 3 58 L 4 58 L 60 58 L 61 58 L 61 57 L 60 57 L 4 57 L 3 57 z "
     class="ColorScheme-Text"
     />
 <path
     style="fill:currentColor;fill-opacity:0.6;stroke:none"
     d="M 32 27 L 22 33.6 L 22 34 L 22 35 L 23 35 L 23 46 L 22 46 L 22 47 L 42 47 L 42 46 L 41 46 L 41 35 L 42 35 L 42 34 L 42 33.6 L 32 27 z M 32 28.1 L 40.7 34 L 23.3 34 L 32 28.1 z M 24 35 L 26 35 L 26 46 L 24 46 L 24 35 z M 27 35 L 37 35 L 37 46 L 34 46 L 34 40 L 30 40 L 30 46 L 27 46 L 27 35 z M 38 35 L 40 35 L 40 46 L 38 46 L 38 35 z "
     class="ColorScheme-Text"
     />
</svg>
