<svg height="64" version="1.1" width="64" xmlns="http://www.w3.org/2000/svg" xmlns:svg="http://www.w3.org/2000/svg" xmlns:xlink="http://www.w3.org/1999/xlink">
<defs id="primary-definitions">
<style id="current-color-scheme" type="text/css">
      .ColorScheme-Text         { color: #232629; }
      .ColorScheme-Background   { color: #eff0f1; }
      .ColorScheme-Highlight    { color: #7ec9f0; }
      .ColorScheme-PositiveText { color: #27ae60; }
      .ColorScheme-NeutralText  { color: #f67400; }
      .ColorScheme-NegativeText { color: #da4453; }
      .ColorScheme-ActiveText   { color: #3daee9; }
      .ColorScheme-Complement   { color: #ffffff; }
      .ColorScheme-Contrast     { color: #000000; }
    </style>
<style id="extended-color-scheme" type="text/css">
      .ExScheme-Black     { color:#3e3e3e; }
      .ExScheme-White     { color:#fcfcfc; }
      .ExScheme-Grey-1    { color:#cfd5d5; }
      .ExScheme-Grey-2    { color:#909c9c; }
      .ExScheme-Grey-3    { color:#536161; }
      .ExScheme-Red-1     { color:#ffafa5; }
      .ExScheme-Red-2     { color:#bf4231; }
      .ExScheme-Red-3     { color:#4d2f2b; }
      .ExScheme-Green-1   { color:#abf9c7; }
      .ExScheme-Green-2   { color:#3bb566; }
      .ExScheme-Green-3   { color:#377d50; }
      .ExScheme-Blue-1    { color:#abdaf9; }
      .ExScheme-Blue-2    { color:#3daefd; }
      .ExScheme-Blue-3    { color:#2b3c4d; }
      .ExScheme-Yellow-1  { color:#faffa5; }
      .ExScheme-Yellow-2  { color:#cac726; }
      .ExScheme-Yellow-3  { color:#4b4d2b; }
      .ExScheme-Orange-1  { color:#ffdaa5; }
      .ExScheme-Orange-2  { color:#ff9701; }
      .ExScheme-Orange-3  { color:#4d372b; }
      .ExScheme-Brown-1   { color:#e9d6bb; }
      .ExScheme-Brown-2   { color:#997657; }
      .ExScheme-Brown-3   { color:#433a35; }
      .ExScheme-Purple-1  { color:#e2abf9; }
      .ExScheme-Purple-2  { color:#b401ff; }
      .ExScheme-Purple-3  { color:#432b4d; }
      .ExScheme-Cyan-1    { color:#b2f2e6; }
      .ExScheme-Cyan-2    { color:#31bfa6; }
      .ExScheme-Cyan-3    { color:#2b4d47; }
      .ExScheme-Magenta-1 { color:#f8a6d8; }
      .ExScheme-Magenta-2 { color:#f00091; }
      .ExScheme-Magenta-3 { color:#770048; }
    </style>
<linearGradient id="uNG">
<stop offset="0"/>
<stop offset="1" stop-opacity="0"/>
</linearGradient>
<linearGradient id="uNH">
<stop offset="0" stop-color="#fff"/>
<stop offset="1" stop-color="#fff" stop-opacity="0"/>
</linearGradient>
<style id="uNI" type="text/css">
        .force-display-for-editing { display: inline !important; }
    </style><style class="remove-if__show-crease" type="text/css">
        .enable-if__show-crease { display: none; }
    </style><style class="remove-if__color-sync-mimes-places" type="text/css">
        .enable-if__color-sync-mimes-places { display: none; }
    </style><radialGradient cx=".5" cy="0" id="uNJ" r="1" xlink:href="#uNH"/><linearGradient id="uNK" xlink:href="#uNG" y1="1" y2=".5"/><style class="ColorScheme-Background" fill="currentColor" opacity=".6" type="text/css">
   .ColorScheme-Text           { color:#eff0f1; }
      .ColorScheme-Background     { color:#31363b; }
      .ColorScheme-Highlight      { color:#3daefd; }
      .ColorScheme-ViewBackground { color:#fcfcfc; }
      .ColorScheme-PositiveText   { color:#27ae60; }
      .ColorScheme-NeutralText    { color:#f67400; }
      .ColorScheme-NegativeText   { color:#da4453; }
  </style><path d="M 10,8 C 8.34,8 7,9.34 7,11 v 7 c -1.66,0 -3,1.34 -3,3 v 32 c 0,1.66 1.34,3 3,3 h 50 c 1.66,0 3,-1.34 3,-3 V 26 21 19 c 0,-1.66 -1.34,-3 -3,-3 v -3 c 0,-1.66 -1.34,-3 -3,-3 H 28 C 24,10 24,8 21,8 Z" id="uNL"></path><path d="M 10,8 C 8.34,8 7,9.34 7,11 v 7 h 13 c 4,0 4,-2 7,-2 h 30 v -3 c 0,-1.66 -1.34,-3 -3,-3 H 28 C 24,10 24,8 21,8 Z" id="uNM"></path></defs>
<g id="content" transform="translate(0,0)"><use class="sync-color enable-if__color-sync-mimes-places force-display-for-editing ColorScheme-ActiveText" fill="currentColor" href="#uNL"></use><use class="primary-color remove-if__color-sync-mimes-places ColorScheme-ActiveText" fill="currentColor" href="#uNL"></use><use class="ColorScheme-Contrast" fill="currentColor" href="#uNL" opacity=".1"></use><g id="panorama" transform="translate(4,16)"><g id="layer2">
<rect fill="#fcfcfc" height="14" ry="2" stop-color="#000000" transform="rotate(7.5)" width="14" x="22.46899" y="7.5830827"/>
<path d="m 23.14,11.7 c -.55,-.07 -1.05,.3 -1.1,.86 l -1.3,9.9 c -.07,.55 .3,1.05 .86,1.1 l 9.9,1.3 c .55,.07 1.05,-.3 1.1,-.86 l 1.3,-9.9 c .07,-.55 -.3,-1.05 -.86,-1.1 z m 1.13,1.8 2.03,2.64 -2.64,2.03 -.6,-.8 1.85,-1.4 -1.4,-1.85 z" fill="#68377d" id="rect37578" stop-color="#000000"/>
<path color="#000000" d="M 24.33 22.57 C 24.13 22.6 23.94 22.6 23.75 22.66 C 23.37 22.77 23 22.94 22.7 23.25 L 17.47 28.5 C 16.83 29.1 16.63 29.87 16.86 30.74 L 18.8 37.87 C 18.8 37.9 18.8 37.96 18.8 38 L 32.66 38 L 35.05 35.6 C 35.4 35.3 35.54 34.93 35.64 34.56 C 35.74 34.2 35.8 33.8 35.66 33.35 L 33.75 26.2 C 33.63 25.8 33.4 25.45 33.13 25.2 C 32.85 24.9 32.53 24.67 32.1 24.56 L 24.96 22.65 C 24.74 22.6 24.53 22.57 24.33 22.57 z " fill="#fcfcfc"/>
<path d="M 32.4,25.9 C 32.25,25.7 32.04,25.6 31.83,25.5 L 24.7,23.6 c -.4,-.1 -1,.05 -1.3,.35 l -5.2,5.2 c -.3,.3 -.46,.9 -.35,1.3 l 1.9,7.14 c .06,.2 .2,.4 .36,.6 l 6.85,-5.83 z" fill="#659ad2"/>
<path d="m 34.67,34.4 c .06,-.23 .07,-.5 0,-.7 l -1.9,-7.14 c -.06,-.2 -.2,-.4 -.36,-.6 l -6.16,6.16 1.4,1.7 z" fill="#00599c"/>
<path d="M 26.26 32.04 L 20.3 38 L 31.25 38 L 34.35 34.9 C 34.5 34.75 34.6 34.53 34.67 34.4 L 26.26 32.04 z " fill="#004382"/>
<path d="m 27.6,37.03 c -2.75,.74 -5.6,-.9 -6.3,-3.65 -.74,-2.75 .9,-5.6 3.65,-6.3 1.77,-.5 3.7,.04 5,1.33 l -1.8,1.83 c -.65,-.65 -1.6,-.9 -2.5,-.67 -1.37,.37 -2.2,1.8 -1.8,3.16 .37,1.37 1.8,2.2 3.16,1.8 .9,-.24 1.6,-.94 1.83,-1.83 l 2.5,.67 c -.5,1.77 -1.9,3.17 -3.65,3.65 z" fill="#ffffff"/>
<polygon fill="#ffffff" points="243.666,166.508 243.666,155.175 232.334,155.175 232.334,166.508 221,166.508 221,177.841 232.334,177.841 232.334,189.175 243.666,189.175 243.666,177.841 255,177.841 255,166.508 " transform="matrix(.05,-.013,.013,.05,16.53,25.634)"/>
<polygon fill="#ffffff" points="286.166,166.508 286.166,155.175 274.834,155.175 274.834,166.508 263.5,166.508 263.5,177.841 274.834,177.841 274.834,189.175 286.166,189.175 286.166,177.841 297.5,177.841 297.5,166.508 " transform="matrix(.05,-.013,.013,.05,16.53,25.634)"/>
<path d="M 20.36 .7 C 19.34 1.3 18.36 2 15.94 2 L 8.4 2 A 8.5 8.5 0 0 0 7.1 9.1 A 8.5 8.5 0 0 0 17.5 15.1 A 8.5 8.5 0 0 0 23 10.53 L 20.36 .7 z " fill="#fcfcfc" stop-color="#000000" stroke-opacity=".2"/>
<path d="M 20 1 C 19 1.5 18 2 15.94 2 L 9.66 2 A 7.5 7.5 0 0 0 7.84 6.34 A 7.5 7.5 0 0 0 12.6 13.9 L 14.04 9.05 A 2.5 2.5 0 0 1 12.8 6.7 A 2.5 2.5 0 0 1 15.5 4.4 A 2.5 2.5 0 0 1 17.8 7.1 A 2.5 2.5 0 0 1 16.25 9.2 L 17 14.2 A 7.5 7.5 0 0 0 22.54 8.85 L 20.6 1.57 A 7.5 7.5 0 0 0 20 1 z " fill="#3bb566" stop-color="#000000" stroke-opacity=".2"/>
<path color="#000000" d="m 15.63,9.64 -1.1,.14 c -.6,.1 -1,.65 -.84,1.23 0,0 .1,.33 .14,.8 .05,.37 -.1,1.5 -.13,1.7 -.16,-.1 -.25,-.27 -.5,-.3 -.5,-.07 -1.1,.33 -1.3,.74 -.2,.4 -.15,.75 -.1,1.1 .13,.77 .34,.9 .57,1.27 -.17,.2 -.4,.43 -.4,.9 0,.25 -.03,.34 -.03,.37 -.16,.27 -.37,.74 -.16,1.46 .2,.73 .6,.97 .97,1.24 .2,.14 .35,.25 .53,.34 .1,.04 .27,.13 .3,.15 .1,.1 -.15,1.43 -.1,1.9 .04,.5 .24,.9 .47,1.23 .1,.2 -0,.8 -.2,1.03 -.56,.63 -1,1.4 -1.2,2.3 -.2,.9 -.05,1.96 .6,2.8 .4,.55 .95,1.1 1.63,1.5 .33,.2 .7,.34 1.1,.4 -0,.03 -0,.04 -0,.1 -.1,.45 -.27,1.05 -.1,1.77 .03,.14 .1,.3 .2,.4 .33,.4 .94,.7 1.45,.65 .5,-.05 .85,-.27 1.13,-.5 .56,-.4 1,-.93 1.1,-1 .5,-.35 .8,-.77 1,-1.04 .2,-.25 .3,-.33 .4,-.37 .63,-.1 1.27,-.1 1.73,.07 .5,.8 1.13,1.8 2.5,2.03 .07,0 .14,0 .2,0 .25,-0.01 .5,-.04 .76,-.17 .27,-.13 .6,-.44 .7,-.8 .2,-.67 -.07,-1 -.2,-1.3 -.14,-.26 -.5,-1.67 -.56,-2.1 .2,-.17 .5,-.3 .6,-.5 .2,-.4 .26,-.8 .26,-.8 0,-.2 -.03,-.35 -.1,-.5 .1,-.1 .2,-.14 .26,-.24 .2,-.3 .4,-.84 .15,-1.4 -.2,-.5 -.7,-.75 -1.15,-.84 -.16,-.04 -.3,-.1 -.46,-.1 -.23,-.2 -.53,-.27 -.8,-.2 -.3,-.07 -.57,-.15 -.87,-.23 -0,-.05 -0,-.07 -0,-.2 -0,-.2 0,-.53 -.13,-.93 -.04,-.1 -.1,-.33 -.05,-.35 1.4,-.56 3.2,-1.37 3.94,-3.25 0,-.03 0,-.06 .03,-.1 .55,-1.85 -1.17,-4.6 -1.67,-4.96 l 1.06,-2.1 c .26,-.5 .03,-1.14 -.5,-1.37 l -.87,-.37 c -.3,-.03 -.6,.1 -.8,.3 -0,-.03 -.04,-.07 -.06,-.1 l -.8,-.54 c -.7,-.45 -1.6,.1 -1.55,.9 l .1,1.4 c -.54,-.14 -1.05,-.34 -1.6,-.34 -.03,-0 -.05,-0 -.1,-.04 -1.1,-0 -2.1,.37 -3.03,.93 l -.1,-.1 1.3,-1.06 c .4,-.33 .5,-.9 .2,-1.35 L 18.7,10.34 C 18.34,9.86 17.67,9.77 17.2,10.15 l -.5,.4 C 16.7,10 16.2,9.57 15.63,9.64 Z" fill="#fcfcfc" fill-rule="evenodd"/>
<path d="m 23.2,14.63 .6,-.4 -.16,-2.4 .8,.54 .23,1.5 .8,-1.6 .87,.37 -1.5,2.95 z" fill="#ffafa5" fill-rule="evenodd"/>
<path d="m 21,13.9 c -1.8,-0 -3.63,1 -4.3,2.7 -.36,1.05 -.7,2.1 -1.1,3.17 .6,.5 1.26,.94 1.83,1.47 .6,.76 1.67,.76 2.45,1.25 .3,.64 -.16,.66 -.63,.7 -.4,.66 .57,1.5 -.1,2.23 -.4,.83 -.9,1.63 -1.4,2.4 -.85,-.14 -2.16,-.3 -2.2,-1.4 0,-.7 -.33,-1.97 -1,-.93 -.93,1 -1.47,2.7 -.56,3.9 .7,.94 1.84,1.85 3.1,1.54 .1,.9 -.5,1.7 -.3,2.6 .7,.9 1.7,-.57 2.3,-1 .64,-.45 .95,-1.3 1.7,-1.6 .85,-.17 1.8,-.2 2.6,.14 .5,.8 1.07,1.8 2.07,1.95 1.33,-.05 -.25,-1.3 -.13,-2 -.1,-.94 -.24,-1.86 -.4,-2.8 .5,-.03 -.1,-.8 .43,-.66 .73,.15 1.7,-1 .56,-1.16 -.8,-.2 -1.54,-.4 -2.37,-.63 -1.04,-.4 -0,-1.9 -1.1,-2.2 -.34,-.73 .45,-1.05 1,-1.15 1.34,-.54 2.83,-1.27 3.4,-2.7 .4,-1.34 -.34,-2.73 -1.2,-3.73 -1.16,-1.35 -2.9,-2.23 -4.7,-2.2 z" fill="#54d883" fill-rule="evenodd"/>
<path d="m 22.7,26.34 .44,-.2 c 0,0 .2,.7 .9,.44 .7,-.23 1.1,-.5 1.1,-.5 0,0 .6,1.1 -.05,1.83 -.63,.7 -1,.8 -1,.8 -.65,-.57 -1.2,-1.27 -1.4,-2.34 z" fill="#ffe5e1" fill-rule="evenodd"/>
<path d="m 19.86,22.7 c 0,0 .23,.47 .1,.87 -.1,.4 -.7,.87 -.7,.87 0,0 -.33,1.1 -.96,1.97 -.3,.45 -.73,.5 -1.13,.56 -.37,-.7 -.83,-.3 -1.3,.1 .1,.1 .2,.2 .3,.3 -0,0 -0,0 -0,0 -.5,.7 1.15,.94 1.15,.94 0,0 .2,-.63 1.94,-.35 1.73,.3 2.3,1.43 4.54,1.6 2.2,.16 2.3,-1.15 2.3,-1.15 0,0 -.87,-.33 -2.3,-1.97 -1.43,-1.64 -1.24,-3.3 -1.24,-3.3 L 19.86,22.7 Z m -4.57,3.1 c -.1,.36 -.04,.7 .33,.9 .55,-.7 .1,-.8 -.33,-.9 z" fill="#ffafa5" fill-rule="evenodd"/>
<path d="m 17.8,15.36 -1.26,-1.85 2,-1.64 -.7,-.96 -2.03,1.73 -.07,-2 -1.1,.14 c 0,0 .4,1.7 .1,2.65 -.33,.94 -.87,1.87 -.87,1.87 l .84,.5 1.1,-1.76 1.1,2.4 c 0,0 .3,-.14 .6,-.5 .3,-.35 .3,-.6 .3,-.6 z" fill="#ffafa5" fill-rule="evenodd"/>
<path d="m 16.7,15.36 -.76,.66 c 0,0 -.33,-1 -.4,-1.5 -.07,-.53 -.07,-1.4 -.63,-1.3 -.56,.13 -.36,2.55 -.36,2.55 0,0 -.53,.26 -.86,-.76 -.33,-1 -1.06,-1.1 -.9,-.13 .17,1 .7,1.6 .7,1.6 0,0 -.5,.33 -.5,.73 0,.4 -.07,.66 -.07,.66 0,0 -.3,.43 -.17,.9 .13,.46 1.1,1.1 1.26,1.06 .17,-.03 .4,.56 .96,.8 .56,.23 1.16,1.6 1.16,1.6 l .93,-.17 .46,-1.06 -.17,-1 z" fill="#54d883" fill-rule="evenodd"/>
<path d="m 19.3,22.7 c 0,0 .3,.44 .26,.87 -0,.4 -.4,.94 -.4,.94 0,0 -1.85,.47 -2.9,0 -1.05,-.44 -2.27,-1.83 -1.5,-2.6 .77,-.8 2.5,-1.73 2.9,-1.03 .4,.7 .37,2.2 .8,2.1 .44,-.07 .8,-.3 .8,-.3 z" fill="#ffe5e1" fill-rule="evenodd"/>
<path color="#000000" d="M 33.7 0 C 33.53 .04 33.34 .07 33.16 .1 A 1 1 0 0 0 33.16 .1 C 31.03 .7 29.35 2.2 28.3 4.1 C 28.2 4.14 28.1 4.2 28 4.1 A 1 1 0 0 0 28 4.1 C 27.7 4.2 27.37 4.4 27.1 4.64 C 26.6 5.15 26.4 5.9 26.6 6.57 L 27.5 9.9 L 28.4 13.27 C 28.7 14.45 30.04 14.95 31.1 14.53 C 32.95 15.7 35.17 16.14 37.4 15.6 A 1 1 0 0 0 37.4 15.6 C 41.56 14.44 44.1 10.04 42.96 5.8 C 42.14 2.73 39.66 .57 36.75 0 L 33.7 0 z " fill="#fcfcfc"/>
<path d="m 33.4,1.1 a 7,7 0 0 0 -4.6,4 l -0,-0 A 1,1 0 0 0 28.3,5.1 1,1 0 0 0 27.83,5.35 1,1 0 0 0 27.57,6.3 l .9,3.35 .9,3.35 a 1,1 0 0 0 1.67,.45 l 0,-0 a 7,7 0 0 0 6,1.17 7,7 0 0 0 4.95,-8.57 7,7 0 0 0 -8.57,-4.95 z" fill="#3bb566" stop-color="#000000"/>
<path d="m 32,18 -6,3.46 v -6.93 z" fill="#fcfcfc" opacity="1" stop-color="#000000" transform="rotate(-15,-4.927,.65)"/>
<path d="m 33.7,2.06 a 6,6 0 0 0 -3.9,3.3 l 1,.26 a 5,5 0 0 1 3.17,-2.6 5,5 0 0 1 6.1,3.54 5,5 0 0 1 -3.54,6.1 5,5 0 0 1 -4.04,-.67 l -.7,.7 a 6,6 0 0 0 5,.9 6,6 0 0 0 4.24,-7.35 6,6 0 0 0 -7.35,-4.24 z" fill="#fcfcfc" stop-color="#000000"/>
<path d="m 34.2,4 a 4,4 0 0 0 -2.44,1.9 l 1,.27 a 3,3 0 0 1 1.7,-1.2 3,3 0 0 1 3.67,2.1 3,3 0 0 1 -2.1,3.67 3,3 0 0 1 -2.06,-.2 l -.74,.74 a 4,4 0 0 0 3.06,.43 4,4 0 0 0 2.83,-4.9 4,4 0 0 0 -4.9,-2.83 z" fill="#fcfcfc" stop-color="#000000"/>
<path color="#000000" d="m 30.7,10.87 c -.9,.56 -1.3,1.65 -1.06,2.67 l 2.7,10.4 -.5,.33 -0,0 c -.54,.34 -.8,1 -.64,1.63 l 0,0 1.7,6.27 -0,0 c .25,.93 1.4,1.4 2.2,.86 l 0,-0 13.73,-8.66 0,-0 c .8,-.5 .9,-1.74 .17,-2.37 l -0,0 -4.93,-4.23 -0,-0 C 43.56,17.37 42.85,17.3 42.3,17.66 l -.5,.33 -8.24,-6.9 c -.8,-.7 -1.97,-.76 -2.86,-.2 z" fill="#fcfcfc"/>
<path d="m 31.2,11.7 a 1.43,1.43 0 0 0 -.6,1.57 l 3.14,12.13 a 1.43,1.43 0 0 0 1.4,1.07 c 1.6,-.04 3.25,-.7 4.47,-1.45 1.2,-.77 2.5,-2 3.23,-3.4 A 1.43,1.43 0 0 0 42.5,19.9 L 32.9,11.83 A 1.43,1.43 0 0 0 31.2,11.7 Z" fill="#ffddad"/>
<path d="m 35.33,13.87 c -.57,.6 -1.2,1.1 -1.8,1.5 -.6,.4 -1.35,.74 -2.1,1 l .9,3.53 c 1.2,-.24 2.34,-.74 3.24,-1.3 .9,-.57 1.86,-1.4 2.6,-2.36 z m 7.7,4.56 a .5,.5 0 0 0 -.2,.07 l -1.13,.7 -.9,-.76 c -.73,1.4 -2,2.6 -3.2,3.36 -1.2,.76 -2.83,1.4 -4.4,1.45 l .3,1.15 -1.13,.7 a .5,.5 0 0 0 -.2,.53 l 1.7,6.27 a .5,.5 0 0 0 .7,.3 l 13.73,-8.66 a .5,.5 0 0 0 .06,-.77 l -4.93,-4.23 a .5,.5 0 0 0 -.4,-.1 z" fill="#eb9419"/>
<path color="#31363b" d="M 3,2 C 1.34,2 -5.1e-7,3.34 0,5 v 5.24 L .64,9.75 C 1.27,12 3.14,13.8 5.6,14.1 8.87,14.55 11.9,12.23 12.3,8.96 12.53,7.37 12.1,5.84 11.2,4.64 c -0,-0 -0,-0 -0,-0 L 9.24,2 Z" fill="#fcfcfc"/>
<path class="ColorScheme-Background" color="#31363b" d="M 5.5,2 6.4,3.13 1.4,2.47 C .74,2.9 .26,3.54 .1,4.3 L 2.4,4.6 0,6.46 v 2.5 l 1.4,-1.06 C 1.25,10.5 3.1,12.8 5.7,13.13 8.46,13.5 10.97,11.56 11.33,8.83 11.5,7.5 11.14,6.23 10.4,5.23 L 8,2 Z M 6.1,5.2 A 3,3 0 0 1 6.77,5.2 3,3 0 0 1 9.35,8.56 3,3 0 0 1 6,11.15 3,3 0 0 1 3.4,7.8 3,3 0 0 1 6.1,5.2 Z M 6.5,7.2 A 1,1 0 0 0 5.4,8.04 1,1 0 0 0 6.24,9.16 1,1 0 0 0 7.37,8.3 1,1 0 0 0 6.5,7.2 Z" fill="#ffa92d"/>
<path color="#000000" d="M 8.06 11.57 C 7.73 11.57 7.4 11.6 7 11.7 C 5.8 12.07 5.16 13.1 4.9 13.87 C 4.6 14.65 4.6 15.34 4.6 15.34 A 1 1 0 0 0 4.6 15.4 L .36 12.46 A 1 1 0 0 0 0 12.3 L 0 20.17 C .2 20.46 .44 20.75 .74 21.03 C 1.76 21.96 3.1 22.04 4.2 22.04 C 4.6 22.05 4.7 22 4.9 22 C 4.6 22.64 4.1 22.94 4.1 22.94 A 1 1 0 0 0 3.5 23.83 L 3.5 26.33 A 1 1 0 0 0 5.4 26.77 L 5.96 25.67 C 6.25 25.7 6.4 25.7 7.2 25.7 C 8.7 25.76 10.26 25.1 11.26 23.9 C 12.26 22.67 12.56 20.8 11.54 19 C 10.8 17.66 10.55 16.9 10.46 16.44 L 15.1 15.3 A 1 1 0 0 0 15 13.35 L 10.77 12.8 C 10.47 12.5 9.83 11.86 8.64 11.64 C 8.46 11.6 8.26 11.6 8.06 11.57 z " fill="#fcfcfc"/>
<path d="m 5.36,24.6 -.84,1.7 v -2.5 c 3.8,.4 6.53,-1.8 4.8,-5.66 -.4,-.85 -.27,-2.2 .1,-2.5 -.5,1 .65,2.5 1.4,4.2 .1,.24 .2,.5 .26,.83 .05,.4 .05,.73 -0,1.07 -.3,1.37 -1.45,2.1 -1.85,2.33 -1.4,.74 -2.63,.7 -3.84,.5 z" fill="#2a7fff" fill-rule="evenodd" stroke="#000000" stroke-dasharray="none" stroke-linejoin="miter" stroke-width="0"/>
<path d="M 6.14,16.3 C 5.4,15.2 7.17,12.3 9.7,14.34 h 5.17 L 10.4,13.75 C 8,10.86 4.6,13.6 5.9,15.9 Z" fill="#1a1a1a" fill-rule="evenodd" stroke="#000000" stroke-dasharray="none" stroke-linejoin="miter" stroke-width="0"/>
<path d="M 0 13.4 L 0 16.9 C .3 17.3 .7 17.7 1.23 18.04 L .2 17.8 C .6 19.7 1.1 20.9 3.6 20.97 L 4.16 20.94 C 3.04 20.86 2.05 20.5 1.6 18.7 L 6.3 19.43 C 5.05 19.14 4.2 18.9 3.15 18.6 C 2.8 18.5 2.46 18.36 2.16 18.15 C .87 17.1 .8 16.04 .97 14.97 L 6.87 18.1 L 0 13.4 z " fill="#2a7fff" fill-rule="evenodd" stroke="#000000" stroke-dasharray="none" stroke-linejoin="miter" stroke-width="0"/>
<path d="M 15.63 23 C 14.9 23 14.2 23.36 13.84 24 L 12.07 27.1 L 12.07 36.85 L 14.06 38 L 21.94 38 L 25.97 31 C 26.5 30.06 26.2 28.84 25.23 28.3 L 16.57 23.3 C 16.27 23.1 15.95 23 15.63 23 z " fill="#fcfcfc" id="rect1342" stop-color="#000000" stroke-opacity=".2"/>
<path d="M 15.66 23.95 C 15.3 23.94 14.94 24.1 14.74 24.46 L 13.7 26.25 L 15.97 27.56 C 16.35 27.3 16.85 27.27 17.27 27.5 C 17.7 27.76 17.9 28.2 17.9 28.67 L 20.07 29.93 C 20.44 29.67 20.95 29.64 21.37 29.9 C 21.96 30.2 22.16 30.97 21.8 31.56 C 21.5 32.15 20.73 32.36 20.14 32 C 19.7 31.76 19.47 31.27 19.53 30.8 L 17.5 29.6 L 18.63 33.84 C 18.76 33.87 18.9 33.9 19 34 C 19.6 34.3 19.8 35.07 19.46 35.66 C 19.1 36.25 18.36 36.46 17.77 36.1 C 17.2 35.77 17 35 17.3 34.43 C 17.4 34.3 17.5 34.16 17.64 34.07 L 16.5 29.8 C 16.34 29.8 16.2 29.73 16.04 29.65 C 15.6 29.4 15.37 28.9 15.44 28.4 L 13.2 27.1 L 12.07 29.1 L 12.07 35.53 L 16.35 38 L 20.8 38 L 25.13 30.46 C 25.4 29.97 25.25 29.33 24.75 29.05 L 24.75 29.05 L 16.15 24.1 C 16 24 15.83 23.95 15.66 23.95 z " fill="#f05133"/>
<path color="#000000" d="M 11.3 23.93 C 10.7 23.96 10.4 24.4 10.3 24.63 C 10.23 24.8 10.2 24.9 10.2 25 C 9.63 24.86 9.07 24.8 8.55 24.8 C 8.1 24.8 7.7 24.8 7.3 24.93 C 7.1 25 6.94 25.2 6.75 25.3 C 6.4 25.27 5.86 25.17 4.55 25.5 C 3.04 25.86 2.26 26.56 2.07 26.73 C 1.9 26.8 .9 27.34 0 28.64 L 0 35 C 0 36.66 1.34 38 3 38 L 11.4 38 C 11.5 37.9 11.6 37.8 11.7 37.64 C 11.76 37.5 11.76 37.4 11.75 37.1 C 11.85 37.1 11.96 37.17 12.04 37.1 C 12.44 36.9 12.8 36.6 13.16 36.1 C 13.8 35.3 14.13 34.2 14.25 33 C 14.4 31.6 14.16 30.06 13.35 28.77 C 13.5 28.57 13.6 28.37 13.67 28.16 C 13.8 27.94 13.94 27.7 14 27.4 C 14.05 27.24 14.1 27.04 14.04 26.8 C 14 26.53 13.83 26.2 13.5 26 C 13.3 25.87 13 25.8 12.76 25.87 C 12.7 25.9 12.64 25.94 12.6 25.97 C 12.57 25.9 12.56 25.8 12.55 25.74 C 12.56 25.54 12.57 25.3 12.5 25 C 12.43 24.67 12.24 24.15 11.66 24 C 11.55 23.94 11.4 23.9 11.3 23.93 z M 10.3 25 C 10.2 25 10.3 25 10.3 25 C 10.2 25 10.2 25 10.2 25 L 10.3 25 z " fill="#fcfcfc"/>
<path d="M 6.9 26.1 C 6.35 26.1 4.2 26.24 3.14 27.67 C 2.2 29 2.9 33.3 3.4 34.6 C 3.5 34.93 4 34.35 4 34.35 C 4 34.35 3.64 31.36 5.5 31.8 C 7.84 32.3 5.17 35.45 5.17 35.45 C 4.86 36 4.45 35.7 4.1 35.15 C 4.1 35.15 4.27 37 5.07 38 L 8.6 38 C 10.93 36.96 13.75 34.73 13.27 31.3 C 12.6 26.66 7 26.1 7 26.1 C 7 26.1 6.96 26.1 6.9 26.1 z " fill="#01195f"/>
<path d="m 10.2,31.9 1.5,1.1 1.7,-.05 c .13,-1.3 -.1,-2.8 -.84,-3.9 -1.37,-2 -2.67,.87 -2.67,.87 0,0 .4,1.2 .3,1.96 z" fill="#43a6fa"/>
<path d="m 2.23,36.97 c 0,0 -1.83,-1.5 -2.1,-3.05 -.26,-1.53 .1,-2.05 .1,-2.05 0,0 -.4,-1.5 .4,-2.74 C 1.5,27.9 2.5,27.43 2.5,27.43 c 0,0 .7,-.75 2.23,-1.13 1.5,-.37 2.25,-.2 2.25,-.2 0,0 -2.56,.43 -3.1,2.04 -.54,1.6 .44,3.1 0,4.73 C 3.5,34.5 3.2,35.23 3.2,35.23 Z" fill="#43a6fa"/>
<path d="M 8.5 25.6 C 7.74 25.6 7.13 25.8 7 26.05 C 5.44 28.9 10 29.5 6.1 33.6 C 3.77 36.04 5.75 37.15 7.2 38 L 8.93 38 C 9.2 37.5 9.24 36.73 8.9 35.73 C 7.9 32.75 8.26 31.1 9.94 30.6 C 11.6 30.14 12.8 29.1 11.95 27.2 C 11.4 26 9.75 25.6 8.5 25.6 z M 3 32.34 C 2.97 32.34 2.95 32.34 2.93 32.34 C 2.17 32.46 3.4 34.6 2.83 35.1 C 2.3 35.6 2.56 33.97 1.74 34.3 C .9 34.6 2.3 35.97 2 36.27 C 1.6 36.63 1.04 35.1 .7 35.37 C .57 35.5 1.55 37 3.26 38 L 6.9 38 C 3.9 36.6 4.34 34.2 4.13 34.1 C 3.9 34.06 3.9 34.56 3.76 34.6 C 3.2 34.65 3.65 32.37 3 32.34 z " fill="#a2cefb"/>
<circle cx="18.22" cy="29.2" fill="#43a6fa" id="path16506-3" r=".6" stop-color="#000000" transform="rotate(22.94)"/>
<path d="M 10.74 37 C 10.45 37 10.14 37.54 9.7 37.64 C 9.16 37.75 8.45 37.5 8.3 38 L 9.7 38 C 9.7 38 9.7 38 9.73 38 C 10.45 37.6 11.23 37.33 10.9 37.04 C 10.84 37 10.8 37 10.74 37 z " fill="#43a6fa"/>
<path d="m 10.2,31.9 c -.03,.2 -.1,.4 -.26,.5 -.66,.46 -1.55,-.8 -2.23,-.1 -.7,.7 .7,1.8 1.76,1.47 1.05,-.34 .83,1.04 -.97,.75 -1.8,-.3 -2.1,-.86 -2.4,.4 -.3,1.27 2.5,.8 2.93,.5 .44,-.26 1.05,-.4 1.13,-.23 .1,.16 -.96,.5 -.7,.77 .24,.26 1.8,-1.66 2.2,-1.15 .4,.5 -.7,.6 -.7,1.13 0,.5 .5,.97 1.55,-.36 .47,-.6 .8,-1.6 .9,-2.66 z" fill="#43a6fa"/>
<path d="M 7.93,26.8 C 8.35,26.4 9.4,25.93 9.74,26.63 10.07,27.33 9.15,27.66 8.8,27.64 8.25,27.63 7.73,27.1 7.93,26.8 Z" fill="#01195f"/>
<path d="m 10.9,25.56 c 0,0 .1,-.9 .5,-.8 .43,.13 .3,1.17 .3,1.17 z" fill="#43a6fa"/>
<path d="m 11.2,26.8 c 0,0 -.6,-1.34 -.16,-1.5 .46,-.16 .75,.25 .7,.8 -0,.56 -.17,1.16 -.17,1.16 z" fill="#a2cefb"/>
<path d="m 12.43,27.36 c 0,0 .3,-.85 .67,-.64 .36,.2 -.1,1.15 -.3,1.27 -.2,.1 -.36,-.63 -.36,-.63 z" fill="#43a6fa"/>
<path d="m 12.04,28 c 0,0 .4,-1.1 .76,-1 .34,.13 .2,1.05 -.14,1.4 -.3,.34 -.77,.44 -.77,.44 z" fill="#a2cefb"/>
<path d="m 9,26.7 a .7,.7 0 0 0 -.9,.37 .7,.7 0 0 0 -.05,.23 c .06,.07 .13,.13 .2,.2 a .5,.5 0 0 1 0,-.34 .5,.5 0 0 1 .66,-.27 .5,.5 0 0 1 .27,.66 .5,.5 0 0 1 -0,.04 c .1,-.03 .16,-.06 .23,-.1 A .7,.7 0 0 0 9,26.7 Z" fill="#43a6fa" stop-color="#000000"/>
<path d="m 23,0 c -2.97,8.85e-8 -3,1.97 -6.97,2 l -1.57,5.87 c -.33,1.2 .4,2.45 1.6,2.8 l 9.14,2.45 c 1.2,.33 2.45,-.4 2.8,-1.6 L 30.43,2.35 C 30.67,1.45 30.34,.55 29.66,0 Z" fill="#fcfcfc" id="rect33149" stop-color="#000000"/>
<path d="m 23,0 c -2.7,8e-8 -2.97,1.6 -5.9,1.94 l -1.6,5.97 c -.2,.8 .26,1.6 1.06,1.84 l 8.7,2.33 c .8,.2 1.6,-.26 1.84,-1.06 L 29.4,2.3 C 29.6,1.5 29.14,.7 28.34,.5 L 26.55,0 Z m -.2,.7 1.5,.25 -.7,2.6 2.6,-2.04 1.44,.77 -2.67,2 1.24,3.23 -1.63,.07 L 23.37,4.3 22.7,6.8 21.2,6.65 Z M 20.6,1.53 c 0,-0 0,-0 .03,0 0,0 .03,0 .04,.03 l .9,1 c .15,-.04 .3,-.06 .47,-.07 l -.16,.6 c -.9,.15 -1.67,.8 -1.9,1.73 -.34,1.27 .4,2.57 1.7,2.9 .9,.24 1.8,-.06 2.4,-.7 .2,.55 .34,1 .34,1 0,0 0,.03 .04,.03 l .14,-0 L 24.75,8.75 c 0,.03 -0,.07 -.04,.1 l -.7,.4 c -.03,0 -.07,0 -.1,-0 L 23.03,8.26 c -.25,.07 -.5,.1 -.8,.1 l -.6,1.13 c -0,.03 -.05,.05 -.1,.04 L 20.75,9.3 c -.03,-0 -.06,-.04 -.05,-.1 L 20.77,7.97 C 20.54,7.84 20.34,7.7 20.16,7.5 l -1.25,.36 c -.03,0 -.07,-0 -.1,-.04 l -.4,-.7 c -0,-.03 -0,-.07 0,-.1 l .96,-.86 c -.07,-.26 -.1,-.54 -.1,-.8 l -1.1,-.6 c -.03,-0 -.04,-.05 -.04,-.1 L 18.4,3.86 c 0,-.03 .04,-.06 .1,-.06 l 1.3,.07 C 19.87,3.67 20,3.5 20.2,3.3 L 19.8,2.04 c -0,-.03 0,-.07 .04,-.1 l .7,-.4 c 0,-0 0,-0 .03,-0 z" fill="#3daefd"/>
<path d="M 42.64 0 A 8.5 8.5 0 0 0 41 7.56 A 8.5 8.5 0 0 0 51.4 13.57 A 8.5 8.5 0 0 0 56 10.47 L 56 3 C 56 1.34 54.66 0 53 0 L 42.64 0 z " fill="#fcfcfc" stop-color="#000000"/>
<path d="M 43.97 0 C 42.1 1.83 41.25 4.6 41.97 7.3 C 43.04 11.3 47.16 13.67 51.16 12.6 C 53.4 12 55.1 10.5 56 8.55 L 56 3 C 56 1.34 54.66 0 53 0 L 52.4 0 C 53.73 .8 54.8 2.1 55.2 3.75 C 55.36 4.26 55.4 4.77 55.43 5.27 L 51.7 2.86 L 49.2 8 L 50 4 L 48.7 2.66 L 45.1 10 C 44.2 9.24 43.54 8.3 43.2 6.97 C 42.47 4.2 43.7 1.4 46.05 0 L 43.97 0 z " fill="#dc682e" id="XMLID_9_"/>
<path color="#000000" d="M 53.7 5.3 C 53.4 5.3 53.15 5.5 53 5.75 L 51 9.1 C 50.8 9.1 50.56 9.16 50.4 9.3 L 49.83 9.96 C 49.67 10.16 49.6 10.4 49.6 10.67 C 48.4 10.43 47.15 10.5 45.9 10.85 C 45.9 10.67 45.8 10.5 45.67 10.4 L 44.74 9.4 C 44.1 8.7 42.94 9.3 43 10.14 L 43.2 12.3 C 41.3 14.07 40.23 16.75 41.1 19.37 C 41.1 19.43 41.13 19.5 41.16 19.54 C 41.9 20.9 43.2 21.73 44.63 22.1 C 44.6 22.2 44.5 22.4 44.53 22.5 C 44.55 22.7 44.6 22.86 44.7 23 C 44.8 23.3 45.2 24.2 45.84 24.4 C 45.27 25.1 44.7 25.84 44.3 26.85 C 44.26 27 43.96 28.5 43.97 28.74 C 44 28.97 44.06 29.3 44.3 29.57 C 44.6 29.84 44.95 29.94 45.2 29.95 C 45.5 29.96 45.7 29.9 45.9 29.85 C 46.6 29.7 47.14 29.5 47.6 29.37 C 48.07 29.26 48.4 29.25 48.77 29.4 C 48.86 29.43 48.96 29.45 49.05 29.46 C 49.97 29.53 50.95 29.5 51.94 29.4 C 52.8 30.2 53.77 30.67 54.15 31.17 C 54.23 31.26 54.86 31.66 55.2 31.67 C 55.47 31.67 55.77 31.55 56 31.4 L 56 21.7 C 55.2 22 54.5 22.3 53.8 22.5 C 53.76 22.5 53.73 22.5 53.7 22.5 C 53.33 22.65 53.43 22.6 53.4 22.5 C 53.34 22.46 53.6 21.37 53.6 21.2 C 54.2 21.33 54.87 21.33 55.6 21.06 L 55.6 21.06 C 55.73 21 55.86 20.97 56 20.9 L 56 5.8 C 54.96 5.5 53.75 5.27 53.7 5.3 z " fill="#fcfcfc" fill-rule="evenodd"/>
<path d="m 44.7,12 .24,-.96 -.93,-1 .2,2.47 z" fill="#ffa92d" fill-rule="evenodd"/>
<path d="M 56 13.7 C 54.43 15.06 52.33 17.23 52.15 19.3 L 52.16 19.33 C 52.16 19.33 53.4 20.8 55.25 20.1 C 55.5 20.04 55.75 19.94 56 19.85 L 56 13.7 z " fill="#f58273" fill-rule="evenodd"/>
<path d="M 56 6.9 C 55.97 6.9 55.95 6.9 55.93 6.9 C 54.97 7.5 54.86 8.8 54.64 9.8 C 54.6 10.2 53.5 8.74 53.13 9.84 C 52.9 10.45 54 11.13 53.33 11.9 C 53.14 12.5 52.9 13.1 52.3 12.5 C 50.05 11.43 47.2 10.76 44.95 12.1 C 42.67 13.5 41.2 16.43 42.04 19.06 C 42.97 20.77 45.2 21.67 47.05 21.14 C 46.64 21.5 47.06 22.54 46.5 21.74 C 45.66 21.3 46.73 22.9 46 22.2 C 45 21.9 45.77 23.16 46.3 23.2 C 45.7 24.7 48.75 22.7 47.4 24.04 C 46.65 25.06 45.7 26 45.26 27.2 C 45.4 27.8 44.3 29.3 45.65 28.9 C 46.83 28.6 47.9 28 49.13 28.46 C 50.17 28.54 51.23 28.6 52.27 28.4 C 53.04 29.3 54.23 29.63 54.94 30.56 C 55.9 31.15 55.3 29.2 55.3 28.65 C 55.07 27.87 55 27.3 55.97 27.3 C 56 27.3 56 27.3 56 27.27 L 56 22.8 C 55.36 23 54.7 23.26 54.06 23.44 C 52.7 24 51.93 22.6 52.54 21.5 C 52.77 20.3 52.96 19.06 53.13 17.85 C 54.1 16.7 55.07 15.55 56 14.37 L 56 6.9 z " fill="#3bb565" fill-rule="evenodd"/>
<path d="m 46.8,19.33 c 0,0 .24,.96 .93,1.5 .7,.55 1.85,.75 1.85,.75 0,0 .4,-2.1 .93,-3.26 .5,-1.17 1.17,-2.85 1.17,-2.85 0,0 -2.33,1.03 -3.26,1.9 -.93,.86 -1.6,1.95 -1.6,1.95 z" fill="#f58273" fill-rule="evenodd"/>
<path d="m 50.7,12 -.1,-1.4 .55,-.65 .2,.5 2.5,-4.2 -.1,2.1 -1.5,2.1 .7,.34 -.6,.65 -.4,-.5 -.4,.65 v .8 c 0,0 -.27,-.03 -.6,-.1 -.3,-.07 -.27,-.27 -.27,-.27 z" fill="#ffa92d" fill-rule="evenodd"/>
<path color="#000000" d="m 31.5,21.83 c -.05,0 -.2,.06 -.2,.06 -.1,.05 -.2,.1 -.3,.2 -.13,.1 -.27,.34 -.3,.6 -.04,.24 .03,.46 .1,.6 .13,.27 .25,.33 .33,.4 .16,.1 .24,.14 .33,.2 .2,.1 .4,.14 .66,.2 .53,.14 1.3,.3 2.24,.4 .8,.1 1.9,.4 2.74,.75 .35,.13 .6,.26 .8,.37 -.17,.84 -.13,1.8 .27,2.93 -.03,.05 -.04,.1 -.1,.17 -.1,.14 -.2,.3 -.26,.56 -.1,.25 -.17,.6 0,1.06 0,0 0,0 0,0 .1,.27 .5,.6 .83,.64 .06,0 .07,-0 .13,-0 0,.1 0,.2 .1,.34 .1,.2 .4,.6 .9,.65 0,0 .04,0 .06,0 .44,0 .57,-.14 .66,-.2 .1,-.07 .15,-.1 .2,-.17 .1,-.1 .16,-.2 .23,-.3 .15,-.2 .3,-.4 .45,-.65 .13,-.2 .25,-.4 .35,-.53 1.2,-.05 2.43,-.26 3.36,-.55 .55,-.17 1,-.35 1.35,-.5 .1,-.05 .9,-0 1.23,.03 .33,.05 .66,.1 .96,.1 .15,0 .3,0 .44,0 .1,-0 .16,-0 .3,-.04 .1,-.03 .3,-.04 .57,-.33 .05,-.06 .1,-.13 .14,-.2 .15,-.3 -0,-.56 -.1,-.87 .05,-0 .07,-0 .13,-0 .1,-0 .2,-.05 .4,-.17 .17,-.1 .4,-.4 .45,-.75 0,-0 0,-.04 0,-.06 .03,-.57 -.25,-.86 -.43,-1.05 -.2,-.2 -.36,-.3 -.53,-.43 -.04,-.03 .5,-.6 .87,-.94 .35,-.33 .7,-.7 .96,-1.1 .27,-.4 .6,-1 .3,-1.7 -.3,-.7 -.94,-1.1 -1.5,-1.3 -.6,-.2 -1.17,-.23 -1.7,-.2 -.46,0 -.85,.04 -1.2,.1 -.05,-.15 -.1,-.3 -.16,-.44 -.15,-.3 -.3,-.67 -.75,-.97 -.44,-.3 -1.27,-.3 -1.74,.06 -.25,.2 -.25,.45 -.34,.7 -.1,-0 -.15,-.06 -.27,-.06 -.3,0 -.6,.13 -.83,.3 -0,0 -0,0 -.03,.03 -.36,.35 -.5,.87 -.5,1.26 0,.4 .13,.7 .24,.93 .07,.15 .1,.23 .2,.33 -0,.07 -.1,.2 -.1,.24 -0,0 -9.55e-4,0 -0,0 -.2,.05 -.54,.1 -.9,.15 -.8,.1 -1.65,.1 -2.3,.23 l -0,5.18e-4 c -.5,.1 -.83,.37 -1.1,.6 -1.13,-.6 -2.76,-1.3 -4.63,-1.3 -0,6.9e-5 -0,-8.09e-4 -0,-7.34e-4 -.4,-0 -1.04,-.1 -1.56,-.17 -.26,-.04 -.5,-.1 -.7,-.1 -.1,-0 -.17,-.03 -.24,-.04 -.04,-0 -.07,-0 -.1,-0 -.03,-0 -.06,-0 -.1,-0 -.03,1.36e-4 -.06,0 -.1,0 -.03,0 -.06,0 -.1,0 z" fill="#fcfcfc"/>
<path d="m 31.75,22.8 c -.1,.1 .95,.4 2.8,.66 1.84,.24 4.6,1.35 4.5,1.7 -.33,.9 -.4,1.9 .23,3.4 .1,.26 -.6,.96 -.44,1.36 .14,.3 .86,-.56 1,-.47 .1,.2 -.1,1.47 .1,1.5 .17,0 1.2,-1.75 1.3,-1.75 2.5,.1 5.37,-1.25 5.4,-1.3 -0,-0 2.44,.44 2.6,.27 .34,-.64 -1.23,-1 -1.1,-1.35 0.06,-.2 1.83,.1 1.85,-.1 0,-.37 -1,-.86 -1.2,-1.04 -.16,-.17 -.27,-.5 -.04,-.75 .23,-.27 2.83,-2.16 2.5,-3 -.63,-1.5 -4.1,-.7 -4.2,-.8 -.04,-.05 -.45,-2.27 -1.35,-1.6 -.56,.4 .3,1.64 .4,1.8 .1,.15 -.24,.2 -.3,.17 -.2,-.13 -1,-1.45 -1.45,-1.05 -.6,.6 .4,1.65 .27,1.73 -.23,.2 -.1,.6 -.25,.94 -.2,.6 -3.06,.57 -3.93,.74 -.64,.13 -1.1,.8 -1.17,.75 -.97,-.56 -2.9,-1.47 -4.75,-1.44 -1.04,-0 -2.7,-.4 -2.74,-.35 z m 15.9,-1.13 a .35,.3 75 0 1 .4,.26 .35,.3 75 0 1 -.2,.4 .35,.3 75 0 1 -.4,-.26 .35,.3 75 0 1 .2,-.4 z m -.6,.4 c .27,.5 .5,.64 1.1,.46 -.57,.9 -1.35,-.17 -1.1,-.46 z m 2,1 c .05,-0 .1,-0 .1,-0 C 49.46,23.1 48.03,24.1 48,24 c -.03,-.05 .7,-.8 1,-.94 z m .3,.3 c 0,-0 .03,-0 .05,-0 .35,.2 -.6,1.1 -.65,1.1 -.1,-.03 .36,-1.03 .6,-1.1 z" fill="#020202" stroke="#000002" stroke-width="0.111248pt"/>
<path d="m 36.96,25.05 c -.5,0 -.97,.14 -1.4,.4 l -1.73,1 c -1.44,.83 -1.93,2.66 -1.1,4.2 l 0.5,.87 -.87,0.5 c -1.44,.83 -1.93,2.66 -1.1,4.2 l 1,1.73 c .1,.2 .2,.34 .35,.5 h 12.04 c .53,-.9 .57,-2.05 0,-3 l -0.5,-.87 .87,-0.5 c 1.44,-.83 1.93,-2.66 1.1,-4.2 l -1,-1.73 c -.83,-1.44 -2.66,-1.93 -4.2,-1.1 l -.87,0.5 -0.5,-.87 c -.57,-1 -1.6,-1.53 -2.7,-1.5 z" fill="#fcfcfc" id="rect3048" stop-color="#000000" stroke-opacity=".2"/>
<path d="m 42.95,28.4 c -.3,0 -.65,.1 -.95,.27 l -.87,0.5 0.5,.87 c .55,.96 .23,2.2 -.73,2.73 l -3.46,2 c -.5,.3 -.64,.9 -.37,1.37 l 1.2,2.1 h 5.04 c .7,-.6 .9,-1.67 .43,-2.5 l -0.5,-.87 -2.17,1.25 c -.24,.14 -.55,.06 -.7,-.2 -.14,-.24 -.1,-.64 .2,-.7 l 3.9,-2.25 c .96,-.55 1.3,-1.77 .73,-2.73 l -0.5,-.87 c -.4,-.66 -1.1,-1 -1.8,-1 z m -.2,8 c .16,0 .3,.1 .4,0.25 .13,.23 .06,.53 -.16,.67 -0,0 -0,0 -0,0 -.24,.14 -.54,.06 -.7,-.2 -.13,-.23 -.06,-.53 .16,-.67 0,-0 0,-0 0,-0 .1,-.05 .2,-.07 .3,-.07 z" fill="#ffe32b" stop-color="#000000"/>
<path d="m 37,26.05 c -.3,0 -.65,.1 -.95,.27 l -1.73,1 c -.96,.55 -1.3,1.77 -.73,2.73 l 0.5,.87 2.17,-1.25 c .24,-.14 .54,-.06 .7,.2 .14,.24 .06,.55 -.2,.7 l -2.17,1.25 -1.73,1 c -.96,.55 -1.3,1.77 -.73,2.73 l 1,1.73 c .3,.56 .87,.9 1.47,1 h .54 c .25,-.03 .5,-.1 .73,-0.25 l .87,-0.5 -0.5,-.87 c -.55,-.96 -.23,-2.2 .73,-2.73 l 1.73,-1 1.73,-1 c .5,-.3 .64,-.9 .37,-1.37 l -0.5,-.87 -1.5,-2.6 c -.4,-.66 -1.1,-1 -1.8,-1 z m -2.33,2.3 c .16,0 .3,.1 .4,0.25 .14,.24 .06,.55 -.2,.7 -.24,.14 -.55,.06 -.7,-.2 -.13,-.23 -.06,-.53 .16,-.67 0,-0 0,-0 0,-0 .1,-.05 .2,-.07 .3,-.07 z" fill="#3daefd" id="rect940" stop-color="#000000"/>
<path d="M 50.45 25.5 C 49.47 25.5 48.5 25.7 47.5 26.1 C 43.7 27.7 41.87 32.07 43.46 35.9 C 43.8 36.7 44.23 37.4 44.76 38 L 53 38 C 54.66 38 56 36.66 56 35 L 56 28.03 C 54.6 26.45 52.56 25.54 50.45 25.5 z " fill="#fcfcfc"/>
<path d="M 50.44 26.54 C 49.6 26.54 48.74 26.7 47.9 27.04 C 44.6 28.4 43.03 32.2 44.4 35.5 C 44.8 36.5 45.45 37.35 46.2 38 L 53 38 C 54.66 38 56 36.66 56 35 L 56 29.77 C 54.83 27.75 52.7 26.56 50.44 26.54 z M 51.7 27.9 C 52.8 27.9 52.1 30.44 51.24 30.8 C 50.3 31.17 49.65 28.7 51.3 28 C 51.46 27.94 51.6 27.9 51.7 27.9 z M 49 29.3 C 49.7 29.26 49.87 31.04 49.4 31.2 C 48.9 31.4 47.9 29.9 48.8 29.4 C 48.8 29.4 48.84 29.36 48.87 29.35 C 48.9 29.33 48.97 29.3 49 29.3 z M 47.66 30.63 C 48.2 30.63 48.63 31.9 48.3 32.13 C 47.9 32.4 46.76 31.4 47.4 30.76 C 47.4 30.7 47.46 30.7 47.5 30.66 C 47.5 30.66 47.54 30.65 47.55 30.65 C 47.6 30.63 47.6 30.63 47.66 30.63 z M 51.55 31.3 C 51.87 31.3 52.1 31.4 52.27 31.65 C 53.2 33.13 49.37 35.4 51.4 35.9 C 52 36.1 52.4 35.6 52.1 35.07 C 51.8 34.6 53.43 33.6 53.6 34.4 C 53.8 35.4 53.16 36.54 52.34 36.9 C 50.67 37.57 48.27 36.3 48 34.76 C 47.76 33.35 49.2 32 50.5 31.5 C 50.86 31.35 51.24 31.27 51.55 31.3 z M 46.83 32.13 C 47.3 32.1 47.87 33.1 47.64 33.34 C 47.35 33.64 46.14 32.97 46.56 32.3 C 46.6 32.2 46.7 32.2 46.74 32.15 C 46.77 32.14 46.8 32.13 46.83 32.13 z " fill="#0087ed"/>
</g><g id="layer1"/></g><use href="#uNM" opacity=".4"></use><use fill="url(#uNK)" href="#uNM" opacity=".1"></use><path d="m 26,16 c -2,0 -4,2 -6,2 H 6 c -1.11,0 -2,.9 -2,2 v 34 c 0,1.1 .9,2 2,2 h 52 c 1.1,0 2,-.9 2,-2 V 18 c 0,-1.1 -.9,-2 -2,-2 z" fill="url(#uNJ)" opacity=".2"/><path class="ColorScheme-Contrast" d="m 4,52 v 1 c 0,1.66 1.34,3 3,3 h 50 c 1.66,0 3,-1.34 3,-3 v -1 c 0,1.66 -1.34,3 -3,3 H 7 C 5.34,55 4,53.66 4,52 Z" fill="currentColor" opacity=".1"/><path class="ColorScheme-Contrast" d="M 4,52.5 V 53 c 0,1.66 1.34,3 3,3 h 50 c 1.66,0 3,-1.34 3,-3 v -0.5 c 0,1.66 -1.34,3 -3,3 H 7 c -1.66,0 -3,-1.34 -3,-3 z" fill="currentColor" opacity=".2"/><path d="m 27,16 c -3,0 -3,2 -7,2 H 7 c -1.66,0 -3,1.34 -3,3 v 1 c 0,-1.66 1.34,-3 3,-3 h 13 c 4,0 4,-2 7,-2 h 30 c 1.66,0 3,1.34 3,3 v -1 c 0,-1.66 -1.34,-3 -3,-3 z" fill="#fff" opacity=".1"/><path d="m 27,16 c -3,0 -3,2 -7,2 H 7 c -1.66,0 -3,1.34 -3,3 v 0.5 c 0,-1.66 1.34,-3 3,-3 h 13 c 4,0 4,-2 7,-2 h 30 c 1.66,0 3,1.34 3,3 V 19 c 0,-1.66 -1.34,-3 -3,-3 z" fill="#fff" opacity=".2"/><path d="m 27,15 c -3,0 -3,2 -7,2 H 7 v 1 h 13 c 4,0 4,-2 7,-2 h 30 v -1 z" opacity=".1"/><path d="m 27,15.5 c -3,0 -3,2 -7,2 H 7 V 18 h 13 c 4,0 4,-2 7,-2 h 30 v -0.5 z" opacity=".2"/></g>
</svg>