<svg height="64" version="1.1" width="64" xmlns="http://www.w3.org/2000/svg" xmlns:svg="http://www.w3.org/2000/svg" xmlns:xlink="http://www.w3.org/1999/xlink">
<defs id="primary-definitions">
<style id="current-color-scheme" type="text/css">
      .ColorScheme-Text           { color:#fff; }
      .ColorScheme-Background     { color:#111; }
      .ColorScheme-Highlight      { color:#3daefd; }
      .ColorScheme-ViewBackground { color:#000; }
      .ColorScheme-PositiveText   { color:#27ae60; }
      .ColorScheme-NeutralText    { color:#f67400; }
      .ColorScheme-NegativeText   { color:#da4453; }
    </style>
<style id="extended-color-scheme" type="text/css">
      .ExScheme-Black     { color:#3e3e3e; }
      .ExScheme-White     { color:#fcfcfc; }
      .ExScheme-Grey-1    { color:#cfd5d5; }
      .ExScheme-Grey-2    { color:#909c9c; }
      .ExScheme-Grey-3    { color:#536161; }
      .ExScheme-Red-1     { color:#ffafa5; }
      .ExScheme-Red-2     { color:#bf4231; }
      .ExScheme-Red-3     { color:#4d2f2b; }
      .ExScheme-Green-1   { color:#abf9c7; }
      .ExScheme-Green-2   { color:#3bb566; }
      .ExScheme-Green-3   { color:#377d50; }
      .ExScheme-Blue-1    { color:#abdaf9; }
      .ExScheme-Blue-2    { color:#3daefd; }
      .ExScheme-Blue-3    { color:#2b3c4d; }
      .ExScheme-Yellow-1  { color:#faffa5; }
      .ExScheme-Yellow-2  { color:#cac726; }
      .ExScheme-Yellow-3  { color:#4b4d2b; }
      .ExScheme-Orange-1  { color:#ffdaa5; }
      .ExScheme-Orange-2  { color:#ff9701; }
      .ExScheme-Orange-3  { color:#4d372b; }
      .ExScheme-Brown-1   { color:#e9d6bb; }
      .ExScheme-Brown-2   { color:#997657; }
      .ExScheme-Brown-3   { color:#433a35; }
      .ExScheme-Purple-1  { color:#e2abf9; }
      .ExScheme-Purple-2  { color:#b401ff; }
      .ExScheme-Purple-3  { color:#432b4d; }
      .ExScheme-Cyan-1    { color:#b2f2e6; }
      .ExScheme-Cyan-2    { color:#31bfa6; }
      .ExScheme-Cyan-3    { color:#2b4d47; }
      .ExScheme-Magenta-1 { color:#f8a6d8; }
      .ExScheme-Magenta-2 { color:#f00091; }
      .ExScheme-Magenta-3 { color:#770048; }
    </style>
<linearGradient id="u96">
<stop offset="0"/>
<stop offset="1" stop-opacity="0"/>
</linearGradient>
<linearGradient id="u97">
<stop offset="0" stop-color="#fff"/>
<stop offset="1" stop-color="#fff" stop-opacity="0"/>
</linearGradient>
<style class="toggle-enable-crease" type="text/css">
        .folder-crease { display: none; }
    </style><style class="toggle-manilla-folders" type="text/css">
        .folder-manilla { display: none; }
    </style><radialGradient cx=".5" cy="0" id="u98" r="1" xlink:href="#u97"/><linearGradient id="u99" xlink:href="#u96" y1="1" y2=".5"/><path d="M 10,8 C 8.34,8 7,9.34 7,11 v 7 c -1.66,0 -3,1.34 -3,3 v 32 c 0,1.66 1.34,3 3,3 h 50 c 1.66,0 3,-1.34 3,-3 V 26 21 19 c 0,-1.66 -1.34,-3 -3,-3 v -3 c 0,-1.66 -1.34,-3 -3,-3 H 28 C 24,10 24,8 21,8 Z" id="u9a"></path><path d="M 10,8 C 8.34,8 7,9.34 7,11 v 7 h 13 c 4,0 4,-2 7,-2 h 30 v -3 c 0,-1.66 -1.34,-3 -3,-3 H 28 C 24,10 24,8 21,8 Z" id="u9b"></path></defs>
<g id="content" transform="translate(0,0)"><use class="folder-manilla ExScheme-Brown-1" fill="currentColor" href="#u9a"></use><use class="toggle-manilla-folders ColorScheme-Highlight" fill="#f89406" href="#u9a" id="primary-color"></use><use class="ColorScheme-Text" fill="currentColor" href="#u9a" opacity=".1"></use><g id="emblem" transform="translate(16,21)"><path class="ColorScheme-Background" d="m 15.5,2 c -.5,0 -1,.2 -1.4,.6 -.8,.8 -.8,2.05 0,2.83 L 18.75,10 H 4 c -1.1,0 -2,.9 -2,2 0,1.1 .9,2 2,2 h 7.17 l -8.6,8.6 c -.8,.8 -.8,2.05 0,2.83 .8,.8 2.05,.8 2.83,0 l 4.6,-4.6 C 10.44,25.95 14.75,30 20,30 25.5,30 30,25.5 30,20 30,17.3 28.95,14.9 27.23,13.1 L 16.9,2.6 C 16.53,2.2 16,2 15.5,2 Z M 20,14 a 6,6 0 0 1 6,6 6,6 0 0 1 -6,6 6,6 0 0 1 -6,-6 6,6 0 0 1 6,-6 z m 0,4 a 2,2 0 0 0 -2,2 2,2 0 0 0 2,2 2,2 0 0 0 2,-2 2,2 0 0 0 -2,-2 z" fill="currentColor" opacity=".6" stop-color="#000000"/><path class="ColorScheme-Background" d="M 15.5 2 C 15 2 14.5 2.2 14.1 2.6 C 13.3 3.37 13.3 4.63 14.1 5.4 L 18.75 10 L 4 10 C 2.9 10 2 10.9 2 12 C 2 13.1 2.9 14 4 14 L 11.17 14 L 2.6 22.6 C 1.8 23.37 1.8 24.63 2.6 25.4 C 3.37 26.2 4.63 26.2 5.4 25.4 L 10.04 20.8 C 10.44 25.95 14.75 30 20 30 C 25.5 30 30 25.5 30 20 C 30 17.3 28.95 14.9 27.23 13.1 L 16.9 2.6 C 16.53 2.2 16 2 15.5 2 z M 15.5 2.5 C 15.9 2.5 16.27 2.64 16.56 2.94 L 26.9 13.45 C 28.5 15.16 29.5 17.46 29.5 20 C 29.5 25.25 25.25 29.5 20 29.5 C 15 29.5 10.9 25.65 10.53 20.76 A .5 .5 0 0 0 9.7 20.44 L 5.06 25.06 C 4.47 25.65 3.53 25.65 2.94 25.06 C 2.35 24.47 2.35 23.53 2.94 22.94 L 11.53 14.35 A .5 .5 0 0 0 11.17 13.5 L 4 13.5 C 3.16 13.5 2.5 12.84 2.5 12 C 2.5 11.16 3.16 10.5 4 10.5 L 18.75 10.5 A .5 .5 0 0 0 19.1 9.64 L 14.44 5.06 C 13.85 4.47 13.85 3.53 14.44 2.94 C 14.74 2.64 15.1 2.5 15.5 2.5 z M 20 13.5 C 16.4 13.5 13.5 16.4 13.5 20 C 13.5 23.6 16.4 26.5 20 26.5 C 23.6 26.5 26.5 23.6 26.5 20 C 26.5 16.4 23.6 13.5 20 13.5 z M 20 14 A 6 6 0 0 1 26 20 A 6 6 0 0 1 20 26 A 6 6 0 0 1 14 20 A 6 6 0 0 1 20 14 z M 20 18 A 2 2 0 0 0 18 20 A 2 2 0 0 0 20 22 A 2 2 0 0 0 22 20 A 2 2 0 0 0 20 18 z M 20 18.5 C 20.83 18.5 21.5 19.17 21.5 20 C 21.5 20.83 20.83 21.5 20 21.5 C 19.17 21.5 18.5 20.83 18.5 20 C 18.5 19.17 19.17 18.5 20 18.5 z " fill="currentColor" opacity=".6"/></g><use href="#u9b" opacity=".4"></use><use class="toggle-flat-design" fill="url(#u99)" href="#u9b" opacity=".1"></use><path class="toggle-flat-design" d="m 26,16 c -2,0 -4,2 -6,2 H 6 c -1.11,0 -2,.9 -2,2 v 34 c 0,1.1 .9,2 2,2 h 52 c 1.1,0 2,-.9 2,-2 V 18 c 0,-1.1 -.9,-2 -2,-2 z" fill="url(#u98)" opacity=".2"/><path class="folder-crease " d="m 4,44 v 2 h 9 c .55,0 1,-.45 1,-1 0,-.55 -.45,-1 -1,-1 z m 47,0 c -.55,0 -1,.45 -1,1 0,.55 .45,1 1,1 h 9 v -2 z" opacity=".4"/><path class="ColorScheme-Text" d="m 4,52 v 1 c 0,1.66 1.34,3 3,3 h 50 c 1.66,0 3,-1.34 3,-3 v -1 c 0,1.66 -1.34,3 -3,3 H 7 C 5.34,55 4,53.66 4,52 Z" fill="currentColor" opacity=".1"/><path class="ColorScheme-Text" d="M 4,52.5 V 53 c 0,1.66 1.34,3 3,3 h 50 c 1.66,0 3,-1.34 3,-3 v -0.5 c 0,1.66 -1.34,3 -3,3 H 7 c -1.66,0 -3,-1.34 -3,-3 z" fill="currentColor" opacity=".2"/><path d="m 27,16 c -3,0 -3,2 -7,2 H 7 c -1.66,0 -3,1.34 -3,3 v 1 c 0,-1.66 1.34,-3 3,-3 h 13 c 4,0 4,-2 7,-2 h 30 c 1.66,0 3,1.34 3,3 v -1 c 0,-1.66 -1.34,-3 -3,-3 z" fill="#fff" opacity=".1"/><path d="m 27,16 c -3,0 -3,2 -7,2 H 7 c -1.66,0 -3,1.34 -3,3 v 0.5 c 0,-1.66 1.34,-3 3,-3 h 13 c 4,0 4,-2 7,-2 h 30 c 1.66,0 3,1.34 3,3 V 19 c 0,-1.66 -1.34,-3 -3,-3 z" fill="#fff" opacity=".2"/><path d="m 27,15 c -3,0 -3,2 -7,2 H 7 v 1 h 13 c 4,0 4,-2 7,-2 h 30 v -1 z" opacity=".1"/><path d="m 27,15.5 c -3,0 -3,2 -7,2 H 7 V 18 h 13 c 4,0 4,-2 7,-2 h 30 v -0.5 z" opacity=".2"/></g>
</svg>