<svg height="64" version="1.1" width="64" xmlns="http://www.w3.org/2000/svg" xmlns:svg="http://www.w3.org/2000/svg" xmlns:xlink="http://www.w3.org/1999/xlink">
<defs id="primary-definitions">
<style id="current-color-scheme" type="text/css">
      .ColorScheme-Text         { color: #232629; }
      .ColorScheme-Background   { color: #eff0f1; }
      .ColorScheme-Highlight    { color: #7ec9f0; }
      .ColorScheme-PositiveText { color: #27ae60; }
      .ColorScheme-NeutralText  { color: #f67400; }
      .ColorScheme-NegativeText { color: #da4453; }
      .ColorScheme-ActiveText   { color: #3daee9; }
      .ColorScheme-Complement   { color: #ffffff; }
      .ColorScheme-Contrast     { color: #000000; }
    </style>
<style id="extended-color-scheme" type="text/css">
      .ExScheme-Black     { color:#3e3e3e; }
      .ExScheme-White     { color:#fcfcfc; }
      .ExScheme-Grey-1    { color:#cfd5d5; }
      .ExScheme-Grey-2    { color:#909c9c; }
      .ExScheme-Grey-3    { color:#536161; }
      .ExScheme-Red-1     { color:#ffafa5; }
      .ExScheme-Red-2     { color:#bf4231; }
      .ExScheme-Red-3     { color:#4d2f2b; }
      .ExScheme-Green-1   { color:#abf9c7; }
      .ExScheme-Green-2   { color:#3bb566; }
      .ExScheme-Green-3   { color:#377d50; }
      .ExScheme-Blue-1    { color:#abdaf9; }
      .ExScheme-Blue-2    { color:#3daefd; }
      .ExScheme-Blue-3    { color:#2b3c4d; }
      .ExScheme-Yellow-1  { color:#faffa5; }
      .ExScheme-Yellow-2  { color:#cac726; }
      .ExScheme-Yellow-3  { color:#4b4d2b; }
      .ExScheme-Orange-1  { color:#ffdaa5; }
      .ExScheme-Orange-2  { color:#ff9701; }
      .ExScheme-Orange-3  { color:#4d372b; }
      .ExScheme-Brown-1   { color:#e9d6bb; }
      .ExScheme-Brown-2   { color:#997657; }
      .ExScheme-Brown-3   { color:#433a35; }
      .ExScheme-Purple-1  { color:#e2abf9; }
      .ExScheme-Purple-2  { color:#b401ff; }
      .ExScheme-Purple-3  { color:#432b4d; }
      .ExScheme-Cyan-1    { color:#b2f2e6; }
      .ExScheme-Cyan-2    { color:#31bfa6; }
      .ExScheme-Cyan-3    { color:#2b4d47; }
      .ExScheme-Magenta-1 { color:#f8a6d8; }
      .ExScheme-Magenta-2 { color:#f00091; }
      .ExScheme-Magenta-3 { color:#770048; }
    </style>
<linearGradient id="uTM">
<stop offset="0"/>
<stop offset="1" stop-opacity="0"/>
</linearGradient>
<linearGradient id="uTN">
<stop offset="0" stop-color="#fff"/>
<stop offset="1" stop-color="#fff" stop-opacity="0"/>
</linearGradient>
<style id="uTO" type="text/css">
        .force-display-for-editing { display: inline !important; }
    </style><style class="remove-if__show-crease" type="text/css">
        .enable-if__show-crease { display: none; }
    </style><style class="remove-if__color-sync-mimes-places" type="text/css">
        .enable-if__color-sync-mimes-places { display: none; }
    </style><radialGradient cx=".5" cy="0" id="uTP" r="1" xlink:href="#uTN"/><linearGradient id="uTQ" xlink:href="#uTM" y1="1" y2=".5"/><style class="ColorScheme-Background" fill="currentColor" opacity=".6" type="text/css">
   .ColorScheme-Text           { color:#eff0f1; }
      .ColorScheme-Background     { color:#31363b; }
      .ColorScheme-Highlight      { color:#3daefd; }
      .ColorScheme-ViewBackground { color:#fcfcfc; }
      .ColorScheme-PositiveText   { color:#27ae60; }
      .ColorScheme-NeutralText    { color:#f67400; }
      .ColorScheme-NegativeText   { color:#da4453; }
  </style><path d="M 10,8 C 8.34,8 7,9.34 7,11 v 7 c -1.66,0 -3,1.34 -3,3 v 32 c 0,1.66 1.34,3 3,3 h 50 c 1.66,0 3,-1.34 3,-3 V 26 21 19 c 0,-1.66 -1.34,-3 -3,-3 v -3 c 0,-1.66 -1.34,-3 -3,-3 H 28 C 24,10 24,8 21,8 Z" id="uTR"></path><path d="M 10,8 C 8.34,8 7,9.34 7,11 v 7 h 13 c 4,0 4,-2 7,-2 h 30 v -3 c 0,-1.66 -1.34,-3 -3,-3 H 28 C 24,10 24,8 21,8 Z" id="uTS"></path></defs>
<g id="content" transform="translate(0,0)"><use class="sync-color enable-if__color-sync-mimes-places force-display-for-editing ColorScheme-ActiveText" fill="currentColor" href="#uTR"></use><use class="primary-color remove-if__color-sync-mimes-places ColorScheme-ActiveText" fill="currentColor" href="#uTR"></use><use class="ColorScheme-Contrast" fill="currentColor" href="#uTR" opacity=".1"></use><g id="panorama" transform="translate(4,16)"><path class="ColorScheme-Background" d="m 25,9 c -1.1,0 -2,.9 -2,2 v 14 h -3 c -2.2,0 -4,1.8 -4,4 0,2.2 1.8,4 4,4 2.2,0 4,-1.8 4,-4 V 16 h 15 v 5 h -3 c -2.2,0 -4,1.8 -4,4 0,2.2 1.8,4 4,4 2.2,0 4,-1.8 4,-4 V 11 C 40,9.9 39.1,9 38,9 Z m -1,4 h 15 v 2 H 24 Z" fill="currentColor" opacity=".6" stop-color="#000000"/><path class="ColorScheme-Background" d="m 25,9 c -1.1,0 -2,.9 -2,2 v 14 h -3 c -2.2,0 -4,1.8 -4,4 0,2.2 1.8,4 4,4 2.2,0 4,-1.8 4,-4 V 16 h 15 v 5 h -3 c -2.2,0 -4,1.8 -4,4 0,2.2 1.8,4 4,4 2.2,0 4,-1.8 4,-4 V 11 C 40,9.9 39.1,9 38,9 Z m 0,0.5 h 13 c .8,0 1.5,.7 1.5,1.5 v 2 C 39.5,12.7 39.3,12.5 39,12.5 H 24 c -.3,2.8e-5 -.5,.2 -0.5,0.5 v -2 c 0,-.8 .7,-1.5 1.5,-1.5 z M 24,13 h 15 v 2 H 24 Z m 15.5,8 v 4 c 0,1.94 -1.56,3.5 -3.5,3.5 -1.94,0 -3.5,-1.56 -3.5,-3.5 0,-1.94 1.56,-3.5 3.5,-3.5 h 3 c .3,-2.8e-5 .5,-.2 0.5,-0.5 z m -16,4 v 4 c 0,1.94 -1.56,3.5 -3.5,3.5 -1.94,0 -3.5,-1.56 -3.5,-3.5 0,-1.94 1.56,-3.5 3.5,-3.5 h 3 c .3,-2.8e-5 .5,-.2 0.5,-0.5 z" fill="currentColor" opacity=".6"/><path class="ColorScheme-Background" d="m 39.36,0 .6,.33 c .24,.14 .54,.06 .7,-.2 .03,-.05 0.04,-.1 .05,-.15 z m 7.3,0 c -.1,.2 -.05,.4 .1,.55 l .7,.7 c .2,.2 .5,.2 .7,0 .2,-.2 .2,-.5 0,-.7 L 47.6,0 Z M 38.3,.63 c -.16,0 -.3,.1 -.4,0.25 -.14,.24 -.06,.54 .2,.7 l .87,0.5 c .24,.14 .54,.06 .7,-.2 .14,-.24 .06,-.55 -.2,-.7 l -.87,-0.5 C 38.5,.65 38.4,.6 38.3,.63 Z m 7.37,.5 c -.1,0 -.24,.05 -.33,.15 -.2,.2 -.2,.5 0,.7 l .7,.7 c .2,.2 .5,.2 .7,0 .2,-.2 .2,-.5 0,-.7 L 46.03,1.26 C 45.93,1.16 45.8,1.1 45.65,1.1 Z M 18.07,1.45 c -.54,.24 -1.07,.44 -1.6,.5 .16,.17 .4,.2 .6,.1 l .87,-0.5 c .05,-.03 .1,-.07 .13,-.1 z M 9.24,2 c -.17,.2 -.17,.5 0,.7 .2,.2 .5,.2 .7,0 L 10.64,2 Z m 9.43,.36 c -.1,0 -.16,.03 -.24,.07 l -.87,0.5 c -.24,.14 -.3,.44 -.2,.7 .14,.24 .44,.3 .7,.2 l .87,-0.5 c .24,-.14 .3,-.44 .2,-.7 -.1,-.16 -.27,-.26 -.45,-.25 z m 18.64,0 c -.17,0 -.33,.1 -.4,.25 -.14,.24 -.06,.54 .2,.7 l .87,0.5 c .24,.14 .54,.06 .7,-.2 .14,-.24 .06,-.55 -.2,-.7 l -.87,-0.5 c -.1,-.05 -.17,-.07 -.26,-.07 z m -25.6,.17 c -.1,0 -.24,.05 -.33,.15 l -.7,.7 c -.2,.2 -.2,.5 0,.7 .2,.2 .5,.2 .7,0 l .7,-.7 c .2,-.2 .2,-.5 0,-.7 -.1,-.1 -.24,-.15 -.4,-.15 z m 32.53,0 c -.1,0 -.24,.05 -.33,.15 -.2,.2 -.2,.5 0,.7 l .7,.7 c .2,.2 .5,.2 .7,0 .2,-.2 .2,-.5 0,-.7 L 44.6,2.7 C 44.5,2.57 44.4,2.5 44.24,2.53 Z M 13.13,3.94 c -.1,0 -.24,.05 -.33,.15 L 12.1,4.8 c -.2,.2 -.2,.5 0,.7 .2,.2 .5,.2 .7,0 L 13.5,4.8 c .2,-.2 .2,-.5 0,-.7 C 13.4,4 13.26,3.94 13.13,3.94 Z m 29.7,0 c -.1,0 -.24,.05 -.33,.15 -.2,.2 -.2,.5 0,.7 l .7,.7 c .2,.2 .5,.2 .7,0 .2,-.2 .2,-.5 0,-.7 L 43.2,4.1 C 43.1,4 42.96,3.94 42.83,3.94 Z M 4.4,5.3 c -.17,0 -.33,.1 -.4,0.25 l -0.5,.87 c -.14,.24 -.06,.54 .2,.7 .24,.14 .55,.06 .7,-.2 l 0.5,-.87 C 5,5.83 4.9,5.5 4.7,5.4 4.7,5.34 4.5,5.3 4.4,5.3 Z m 10.1,.04 c -.1,0 -.24,.05 -.33,.15 l -.7,.7 c -.2,.2 -.2,.5 0,.7 .2,.2 .5,.2 .7,0 l .7,-.7 c .2,-.2 .2,-.5 0,-.7 -.1,-.1 -.24,-.15 -.4,-.15 z m 26.87,0 c -.1,0 -.24,.05 -.33,.15 -.2,.2 -.2,.5 0,.7 l .7,.7 c .2,.2 .5,.2 .7,0 .2,-.2 .2,-.5 0,-.7 L 41.8,5.5 C 41.7,5.4 41.55,5.35 41.4,5.36 Z M 6.16,6.3 c -.17,0 -.33,.1 -.4,0.25 l -0.5,.87 c -.14,.24 -.06,.54 .2,.7 .24,.14 .55,.06 .7,-.2 l 0.5,-.87 C 6.74,6.83 6.66,6.5 6.4,6.4 6.33,6.34 6.24,6.3 6.16,6.3 Z m 1.73,1 c -.17,0 -.33,.1 -.4,0.25 l -0.5,.87 c -.14,.24 -.06,.54 .2,.7 .24,.14 .55,.06 .7,-.2 l 0.5,-.87 C 8.47,7.83 8.4,7.5 8.15,7.4 8.07,7.34 8,7.3 7.9,7.3 Z m 1.73,1 c -.17,0 -.33,.1 -.4,0.25 l -0.5,.87 c -.14,.24 -.06,.54 .2,.7 .24,.14 .54,.06 .7,-.2 l 0.5,-.87 C 10.3,8.83 10.1,8.5 9.9,8.4 9.8,8.34 9.7,8.3 9.6,8.3 Z m 36.74,0 c -.1,0 -.16,.03 -.24,.07 -.24,.14 -.3,.44 -.2,.7 l 0.5,.87 c .14,.24 .44,.3 .7,.2 .24,-.14 .3,-.44 .2,-.7 l -0.5,-.87 C 46.7,8.4 46.53,8.3 46.36,8.3 Z M 11.35,9.3 c -.17,0 -.33,.1 -.4,0.25 l -0.5,.87 c -.14,.24 -.06,.54 .2,.7 .24,.14 .54,.06 .7,-.2 l 0.5,-.87 c .14,-.24 .06,-.54 -.2,-.7 -.1,-.05 -.17,-.07 -.26,-.07 z m 33.27,0 c -.1,0 -.16,.03 -.24,.07 -.24,.14 -.3,.44 -.2,.7 l 0.5,.87 c .14,.24 .44,.3 .7,.2 .24,-.14 .3,-.44 .2,-.7 l -0.5,-.87 C 45,9.4 44.8,9.3 44.6,9.3 Z m 9.8,2.6 c -.04,4.56e-4 -.1,0 -.1,0 -.27,.07 -.43,.35 -.35,.6 l .26,.96 c .07,.27 .35,.43 .6,.35 .27,-.07 .43,-.34 .35,-.6 l -.26,-.97 c -.06,-.23 -.26,-.37 -.5,-.37 z m -1.93,.5 c -.04,4.57e-4 -.1,0 -.1,0 -.27,.07 -.43,.35 -.35,.6 l .26,.96 c .07,.27 .35,.43 .6,.35 .27,-.07 .43,-.34 .35,-.6 l -.26,-.97 c -.06,-.23 -.26,-.37 -.5,-.37 z m -1.93,.5 c -.04,4.58e-4 -.1,0 -.1,0 -.27,.07 -.43,.35 -.36,.6 l .26,.96 c .07,.27 .35,.43 .6,.35 .27,-.07 .43,-.34 .35,-.6 L 51.05,13.3 c -.06,-.23 -.26,-.37 -.5,-.37 z M 7.3,13.45 c -.2,0 -.4,.16 -.44,.37 l -.26,.97 c -.07,.27 .1,.54 .35,.6 .27,.07 .54,-.1 .6,-.35 L 7.85,14.1 C 7.9,13.8 7.76,13.54 7.5,13.47 7.43,13.45 7.37,13.45 7.3,13.45 Z m 41.3,0 c -.03,0 -.07,0 -.1,0 -.27,.07 -.43,.35 -.35,.6 l .26,.96 c .07,.27 .34,.43 .6,.35 .27,-.07 .43,-.34 .35,-.6 l -.26,-.97 c -.06,-.23 -.3,-.4 -.5,-.37 z M 9.27,13.97 c -.2,0 -.4,.15 -.46,.37 l -.26,.97 c -.07,.27 .1,.54 .35,.6 .27,.07 .54,-.1 .6,-.36 l .26,-.96 c .07,-.27 -.1,-.54 -.35,-.6 -.05,-0 -.1,-0 -.15,-0 z m 37.4,0 c -.03,0 -.07,0 -.1,0 -.27,.07 -.43,.35 -.35,.6 l .26,.96 c .07,.27 .34,.43 .6,.36 .27,-.07 .43,-.35 .35,-.6 l -.26,-.97 c -.06,-.23 -.3,-.4 -.5,-.37 z M .47,19 C .2,19 0,19.23 0,19.5 v 1 C 0,20.8 .2,21 0.5,21 .8,21 1,20.8 1,20.5 v -1 C 1,19.2 .8,19 0.5,19 .5,19 .5,19 .47,19 Z M 2.47,19 C 2.2,19 2,19.23 2,19.5 v 1 C 2,20.8 2.2,21 2.5,21 2.8,21 3,20.8 3,20.5 v -1 C 3,19.2 2.8,19 2.5,19 2.5,19 2.5,19 2.47,19 Z m 2,0 C 4.2,19 4,19.23 4,19.5 v 1 C 4,20.8 4.2,21 4.5,21 4.8,21 5,20.8 5,20.5 v -1 C 5,19.2 4.8,19 4.5,19 4.5,19 4.5,19 4.47,19 Z m 2,0 C 6.2,19 6,19.23 6,19.5 v 1 C 6,20.8 6.2,21 6.5,21 6.8,21 7,20.8 7,20.5 v -1 C 7,19.2 6.8,19 6.5,19 6.5,19 6.5,19 6.47,19 Z m 2,0 C 8.2,19 8,19.23 8,19.5 v 1 C 8,20.8 8.2,21 8.5,21 8.8,21 9,20.8 9,20.5 v -1 C 9,19.2 8.8,19 8.5,19 8.5,19 8.5,19 8.47,19 Z M 47.47,19 C 47.2,19 47,19.23 47,19.5 v 1 c 0,.3 .2,0.5 0.5,0.5 .3,0 0.5,-.2 0.5,-0.5 v -1 C 48,19.2 47.8,19 47.5,19 c -0,0 -0,-4.3e-4 -.03,0 z m 2,0 C 49.2,19 49,19.23 49,19.5 v 1 c 0,.3 .2,0.5 0.5,0.5 .3,0 0.5,-.2 0.5,-0.5 v -1 C 50,19.2 49.8,19 49.5,19 c -0,0 -0,-4.3e-4 -.03,0 z m 2,0 C 51.2,19 51,19.23 51,19.5 v 1 c 0,.3 .2,0.5 0.5,0.5 .3,0 0.5,-.2 0.5,-0.5 v -1 C 52,19.2 51.8,19 51.5,19 c -0,0 -0,-4.3e-4 -.03,0 z M 9,24.06 c -.03,0 -.07,0 -.1,0 -.27,.07 -.43,.35 -.35,.6 l .26,.97 c .07,.27 .35,.43 .6,.35 .27,-.07 .43,-.35 .35,-.6 L 9.5,24.44 C 9.45,24.2 9.24,24.05 9,24.06 Z m 37.94,0 c -.2,0 -.4,.15 -.46,.37 l -.26,.96 c -.07,.27 .1,.54 .35,.6 .27,.07 .54,-.1 .6,-.35 l .26,-.97 c .07,-.27 -.1,-.54 -.35,-.6 -.05,-0 -.1,-0 -.15,-0 z M 7.07,24.6 c -.03,0 -.07,0 -.1,0 -.27,.07 -.43,.34 -.35,.6 l .26,.97 c .07,.27 .35,.43 .6,.35 .27,-.07 .43,-.35 .35,-.6 L 7.6,24.95 C 7.5,24.7 7.3,24.57 7.07,24.6 Z m 41.8,0 c -.2,0 -.4,.15 -.46,.37 l -.26,.96 c -.07,.27 .1,.54 .35,.6 .27,.07 .54,-.1 .6,-.35 l .26,-.97 c .07,-.27 -.1,-.54 -.35,-.6 -.05,-0 -.1,-0 -.15,-0 z M 5.14,25.1 c -.03,0 -.07,0 -.1,0 C 4.77,25.2 4.6,25.46 4.7,25.73 l .26,.97 c .07,.27 .34,.43 .6,.35 .27,-.07 .43,-.35 .36,-.6 L 5.65,25.47 C 5.6,25.24 5.4,25.1 5.14,25.1 Z m -1.93,.5 c -.03,0 -.07,0 -.1,0 -.27,.07 -.43,.34 -.35,.6 l .26,.97 c .07,.27 .34,.43 .6,.35 .27,-.07 .43,-.35 .35,-.6 L 3.7,26 C 3.66,25.75 3.44,25.6 3.2,25.6 Z m 7.64,3.2 c -.1,0 -.16,.03 -.24,.07 -.24,.14 -.3,.44 -.2,.7 l 0.5,.87 c .14,.24 .44,.3 .7,.2 .24,-.14 .3,-.44 .2,-.7 l -0.5,-.87 c -.1,-.16 -.27,-.25 -.45,-0.25 z m 34.3,0 c -.17,0 -.33,.1 -.4,0.25 l -0.5,.87 c -.14,.24 -.06,.54 .2,.7 .24,.14 .55,.06 .7,-.2 l 0.5,-.87 c .14,-.24 .06,-.54 -.2,-.7 -.1,-.05 -.17,-.07 -.26,-.07 z m -36,1 c -.1,0 -.16,.03 -.24,.07 -.24,.14 -.3,.44 -.2,.7 l 0.5,.87 c .14,.24 .44,.3 .7,.2 .24,-.14 .3,-.44 .2,-.7 l -0.5,-.87 c -.1,-.16 -.27,-.25 -.45,-0.25 z m 37.74,0 c -.17,0 -.33,.1 -.4,0.25 l -0.5,.87 c -.14,.24 -.06,.54 .2,.7 .24,.14 .55,.06 .7,-.2 l 0.5,-.87 c .14,-.24 .06,-.54 -.2,-.7 -.1,-.05 -.17,-.07 -.26,-.07 z m -39.47,1 c -.1,0 -.16,.03 -.24,.07 -.24,.14 -.3,.44 -.2,.7 l 0.5,.87 c .14,.24 .44,.3 .7,.2 .24,-.14 .3,-.44 .2,-.7 l -0.5,-.87 c -.1,-.16 -.27,-.25 -.45,-0.25 z m 41.2,0 c -.17,0 -.33,.1 -.4,0.25 l -0.5,.87 c -.14,.24 -.06,.54 .2,.7 .24,.14 .55,.06 .7,-.2 l 0.5,-.87 c .14,-.24 .06,-.54 -.2,-.7 -.1,-.05 -.17,-.07 -.26,-.07 z m -42.94,1 c -.1,0 -.16,.03 -.24,.07 -.24,.14 -.3,.44 -.2,.7 l 0.5,.87 c .14,.24 .44,.3 .7,.2 .24,-.14 .3,-.44 .2,-.7 l -0.5,-.87 c -.1,-.16 -.27,-.25 -.45,-0.25 z m 44.67,0 c -.17,0 -.33,.1 -.4,0.25 l -0.5,.87 c -.14,.24 -.06,.54 .2,.7 .24,.14 .55,.06 .7,-.2 l 0.5,-.87 c .14,-.24 .06,-.54 -.2,-.7 -.1,-.05 -.17,-.07 -.26,-.07 z m -46.4,1 c -.1,0 -.16,.03 -.24,.07 -.24,.14 -.3,.44 -.2,.7 l 0.5,.87 c .14,.24 .44,.3 .7,.2 .24,-.14 .3,-.44 .2,-.7 l -0.5,-.87 c -.1,-.16 -.27,-.25 -.45,-0.25 z m 48.13,0 c -.17,0 -.33,.1 -.4,0.25 l -0.5,.87 c -.14,.24 -.06,.54 .2,.7 .24,.14 .54,.06 .7,-.2 l 0.5,-.87 c .14,-.24 .06,-.54 -.2,-.7 -.1,-.05 -.17,-.07 -.26,-.07 z m -38.2,.1 c -.1,0 -.24,.05 -.33,.15 -.2,.2 -.2,.5 0,.7 l .7,.7 c .2,.2 .5,.2 .7,0 .2,-.2 .2,-.5 0,-.7 l -.7,-.7 c -.1,-.1 -.24,-.15 -.4,-.15 z m 28.3,0 c -.1,0 -.24,.05 -.33,.15 l -.7,.7 c -.2,.2 -.2,.5 0,.7 .2,.2 .5,.2 .7,0 l .7,-.7 c .2,-.2 .2,-.5 0,-.7 -.1,-.1 -.24,-.15 -.4,-.15 z M 2.2,33.8 c -.1,0 -.16,.03 -.24,.07 -.24,.14 -.3,.44 -.2,.7 l 0.5,.87 c .14,.24 .44,.3 .7,.2 .24,-.14 .3,-.44 .2,-.7 l -0.5,-.87 c -.1,-.16 -.27,-.25 -.45,-0.25 z m 51.6,0 c -.17,0 -.33,.1 -.4,0.25 l -0.5,.87 c -.14,.24 -.06,.54 .2,.7 .24,.14 .55,.06 .7,-.2 l 0.5,-.87 c .14,-.24 .06,-.54 -.2,-.7 -.1,-.05 -.17,-.07 -.26,-.07 z m -41.37,.53 c -.1,0 -.24,.05 -.33,.15 -.2,.2 -.2,.5 0,.7 l .7,.7 c .2,.2 .5,.2 .7,0 .2,-.2 .2,-.5 0,-.7 L 12.8,34.5 C 12.7,34.4 12.56,34.34 12.4,34.35 Z m 31.1,0 c -.1,0 -.24,.05 -.33,.15 l -.7,.7 c -.2,.2 -.2,.5 0,.7 .2,.2 .5,.2 .7,0 l .7,-.7 c .2,-.2 .2,-.5 0,-.7 -.1,-.1 -.24,-.15 -.4,-.15 z m 12,.47 c -.17,0 -.33,.1 -.4,0.25 l -0.5,.87 c -.14,.24 -.06,.54 .2,.7 .24,.14 .55,.06 .7,-.2 l 0.5,-.87 c 0,-.03 .03,-.07 .04,-.1 v -.3 c -.04,-.1 -.1,-.2 -.2,-.3 -.1,-.05 -.17,-.07 -.26,-.07 z m -10.57,.95 c -.1,0 -.24,.05 -.33,.15 l -.7,.7 c -.2,.2 -.2,.5 0,.7 .2,.2 .5,.2 .7,0 l .7,-.7 c .2,-.2 .2,-.5 0,-.7 -.1,-.1 -.24,-.15 -.4,-.15 z m -27.14,.37 c -.17,0 -.33,.1 -.4,0.25 -.14,.24 -.06,.55 .2,.7 l .87,0.5 c .24,.14 .54,.06 .7,-.2 .14,-.24 .06,-.54 -.2,-.7 l -.87,-0.5 c -.1,-.05 -.17,-.07 -.26,-.07 z m 20.36,0 c -.1,0 -.16,.03 -.24,.07 l -.87,0.5 c -.24,.14 -.3,.44 -.2,.7 .14,.24 .44,.3 .7,.2 l .87,-0.5 c .24,-.14 .3,-.44 .2,-.7 -.1,-.16 -.27,-.25 -.45,-.25 z m 8.2,1.04 c -.1,0 -.24,.05 -.33,.15 l -.7,.7 c -.2,.2 -.2,.5 0,.7 .2,.2 .5,.2 .7,0 l .7,-.7 c .2,-.2 .2,-.5 0,-.7 -.1,-.1 -.24,-.15 -.4,-.15 z m -29.55,.7 c -.17,0 -.33,.1 -.4,0.25 -.14,.24 -.06,.55 .2,.7 l .87,0.5 c .24,.14 .54,.06 .7,-.2 .14,-.24 .06,-.54 -.2,-.7 l -.87,-0.5 c -.1,-.05 -.17,-.07 -.26,-.07 z m 22.36,0 c -.1,0 -.16,.03 -.24,.07 l -.87,0.5 c -.24,.14 -.3,.44 -.2,.7 .14,.24 .44,.3 .7,.2 l .87,-0.5 c .24,-.14 .3,-.44 .2,-.7 -.1,-.16 -.27,-.25 -.45,-.25 z M 15.8,39.6 c -.16,0 -.3,.1 -.4,0.25 -.03,.05 -0.04,.1 -.05,.15 h 1.3 l -.6,-.33 c -.1,-.05 -.2,-.07 -.3,-.07 z" fill="currentColor" opacity=".6" stop-color="#000000"/></g><use href="#uTS" opacity=".4"></use><use fill="url(#uTQ)" href="#uTS" opacity=".1"></use><path d="m 26,16 c -2,0 -4,2 -6,2 H 6 c -1.11,0 -2,.9 -2,2 v 34 c 0,1.1 .9,2 2,2 h 52 c 1.1,0 2,-.9 2,-2 V 18 c 0,-1.1 -.9,-2 -2,-2 z" fill="url(#uTP)" opacity=".2"/><path class="ColorScheme-Contrast" d="m 4,52 v 1 c 0,1.66 1.34,3 3,3 h 50 c 1.66,0 3,-1.34 3,-3 v -1 c 0,1.66 -1.34,3 -3,3 H 7 C 5.34,55 4,53.66 4,52 Z" fill="currentColor" opacity=".1"/><path class="ColorScheme-Contrast" d="M 4,52.5 V 53 c 0,1.66 1.34,3 3,3 h 50 c 1.66,0 3,-1.34 3,-3 v -0.5 c 0,1.66 -1.34,3 -3,3 H 7 c -1.66,0 -3,-1.34 -3,-3 z" fill="currentColor" opacity=".2"/><path d="m 27,16 c -3,0 -3,2 -7,2 H 7 c -1.66,0 -3,1.34 -3,3 v 1 c 0,-1.66 1.34,-3 3,-3 h 13 c 4,0 4,-2 7,-2 h 30 c 1.66,0 3,1.34 3,3 v -1 c 0,-1.66 -1.34,-3 -3,-3 z" fill="#fff" opacity=".1"/><path d="m 27,16 c -3,0 -3,2 -7,2 H 7 c -1.66,0 -3,1.34 -3,3 v 0.5 c 0,-1.66 1.34,-3 3,-3 h 13 c 4,0 4,-2 7,-2 h 30 c 1.66,0 3,1.34 3,3 V 19 c 0,-1.66 -1.34,-3 -3,-3 z" fill="#fff" opacity=".2"/><path d="m 27,15 c -3,0 -3,2 -7,2 H 7 v 1 h 13 c 4,0 4,-2 7,-2 h 30 v -1 z" opacity=".1"/><path d="m 27,15.5 c -3,0 -3,2 -7,2 H 7 V 18 h 13 c 4,0 4,-2 7,-2 h 30 v -0.5 z" opacity=".2"/></g>
</svg>