<svg height="64" version="1.1" width="64" xmlns="http://www.w3.org/2000/svg" xmlns:svg="http://www.w3.org/2000/svg" xmlns:xlink="http://www.w3.org/1999/xlink">
<defs id="primary-definitions">
<style id="current-color-scheme" type="text/css">
      .ColorScheme-Text         { color: #232629; }
      .ColorScheme-Background   { color: #eff0f1; }
      .ColorScheme-Highlight    { color: #7ec9f0; }
      .ColorScheme-PositiveText { color: #27ae60; }
      .ColorScheme-NeutralText  { color: #f67400; }
      .ColorScheme-NegativeText { color: #da4453; }
      .ColorScheme-ActiveText   { color: #3daee9; }
      .ColorScheme-Complement   { color: #ffffff; }
      .ColorScheme-Contrast     { color: #000000; }
    </style>
<style id="extended-color-scheme" type="text/css">
      .ExScheme-Black     { color:#3e3e3e; }
      .ExScheme-White     { color:#fcfcfc; }
      .ExScheme-Grey-1    { color:#cfd5d5; }
      .ExScheme-Grey-2    { color:#909c9c; }
      .ExScheme-Grey-3    { color:#536161; }
      .ExScheme-Red-1     { color:#ffafa5; }
      .ExScheme-Red-2     { color:#bf4231; }
      .ExScheme-Red-3     { color:#4d2f2b; }
      .ExScheme-Green-1   { color:#abf9c7; }
      .ExScheme-Green-2   { color:#3bb566; }
      .ExScheme-Green-3   { color:#377d50; }
      .ExScheme-Blue-1    { color:#abdaf9; }
      .ExScheme-Blue-2    { color:#3daefd; }
      .ExScheme-Blue-3    { color:#2b3c4d; }
      .ExScheme-Yellow-1  { color:#faffa5; }
      .ExScheme-Yellow-2  { color:#cac726; }
      .ExScheme-Yellow-3  { color:#4b4d2b; }
      .ExScheme-Orange-1  { color:#ffdaa5; }
      .ExScheme-Orange-2  { color:#ff9701; }
      .ExScheme-Orange-3  { color:#4d372b; }
      .ExScheme-Brown-1   { color:#e9d6bb; }
      .ExScheme-Brown-2   { color:#997657; }
      .ExScheme-Brown-3   { color:#433a35; }
      .ExScheme-Purple-1  { color:#e2abf9; }
      .ExScheme-Purple-2  { color:#b401ff; }
      .ExScheme-Purple-3  { color:#432b4d; }
      .ExScheme-Cyan-1    { color:#b2f2e6; }
      .ExScheme-Cyan-2    { color:#31bfa6; }
      .ExScheme-Cyan-3    { color:#2b4d47; }
      .ExScheme-Magenta-1 { color:#f8a6d8; }
      .ExScheme-Magenta-2 { color:#f00091; }
      .ExScheme-Magenta-3 { color:#770048; }
    </style>
<linearGradient id="uBg">
<stop offset="0"/>
<stop offset="1" stop-opacity="0"/>
</linearGradient>
<linearGradient id="uBh">
<stop offset="0" stop-color="#fff"/>
<stop offset="1" stop-color="#fff" stop-opacity="0"/>
</linearGradient>
<style id="uBi" type="text/css">
        .force-display-for-editing { display: inline !important; }
    </style><style class="remove-if__show-crease" type="text/css">
        .enable-if__show-crease { display: none; }
    </style><style class="remove-if__color-sync-mimes-places" type="text/css">
        .enable-if__color-sync-mimes-places { display: none; }
    </style><radialGradient cx=".5" cy="0" id="uBj" r="1" xlink:href="#uBh"/><linearGradient id="uBk" xlink:href="#uBg" y1="1" y2=".5"/><style class="ColorScheme-Background" fill="currentColor" opacity=".6" type="text/css">
   .ColorScheme-Text           { color:#eff0f1; }
      .ColorScheme-Background     { color:#31363b; }
      .ColorScheme-Highlight      { color:#3daefd; }
      .ColorScheme-ViewBackground { color:#fcfcfc; }
      .ColorScheme-PositiveText   { color:#27ae60; }
      .ColorScheme-NeutralText    { color:#f67400; }
      .ColorScheme-NegativeText   { color:#da4453; }
  </style><path d="M 10,8 C 8.34,8 7,9.34 7,11 v 7 c -1.66,0 -3,1.34 -3,3 v 32 c 0,1.66 1.34,3 3,3 h 50 c 1.66,0 3,-1.34 3,-3 V 26 21 19 c 0,-1.66 -1.34,-3 -3,-3 v -3 c 0,-1.66 -1.34,-3 -3,-3 H 28 C 24,10 24,8 21,8 Z" id="uBl"></path><path d="M 10,8 C 8.34,8 7,9.34 7,11 v 7 h 13 c 4,0 4,-2 7,-2 h 30 v -3 c 0,-1.66 -1.34,-3 -3,-3 H 28 C 24,10 24,8 21,8 Z" id="uBm"></path></defs>
<g id="content" transform="translate(0,0)"><use class="sync-color enable-if__color-sync-mimes-places force-display-for-editing ColorScheme-ActiveText" fill="currentColor" href="#uBl"></use><use class="primary-color remove-if__color-sync-mimes-places ColorScheme-ActiveText" fill="currentColor" href="#uBl"></use><use class="ColorScheme-Contrast" fill="currentColor" href="#uBl" opacity=".1"></use><g id="decal" transform="translate(16,21)"><path class="ColorScheme-Background" d="M 5,3 C 3.9,3 3,3.9 3,5 v 22 c 0,1.1 .9,2 2,2 h 22 c 1.1,0 2,-.9 2,-2 V 5 C 29,3.9 28.1,3 27,3 Z M 6,5 H 26 V 7 H 6 Z M 4.5,8 C 4.8,8 5,8.2 5,8.5 v 5 C 5,13.8 4.8,14 4.5,14 4.2,14 4,13.8 4,13.5 v -5 C 4,8.2 4.2,8 4.5,8 Z m 23,0 C 27.8,8 28,8.2 28,8.5 v 5 C 28,13.8 27.8,14 27.5,14 27.2,14 27,13.8 27,13.5 v -5 C 27,8.2 27.2,8 27.5,8 Z M 7,9 h 2 v 4 H 7 Z m 3,0 h 2 v 4 h -2 z m 3,0 h 2 v 4 h -2 z m 3,0 h 2 v 4 h -2 z m 5,0 h 4 v 1 h -4 z m 1.5,2 C 22.8,11 23,11.2 23,11.5 23,11.8 22.8,12 22.5,12 22.2,12 22,11.8 22,11.5 22,11.2 22.2,11 22.5,11 Z m 2,0 C 24.8,11 25,11.2 25,11.5 25,11.8 24.8,12 24.5,12 24.2,12 24,11.8 24,11.5 24,11.2 24.2,11 24.5,11 Z M 6,15 h 21 v 2 H 6 Z M 4.5,18 C 4.8,18 5,18.2 5,18.5 v 5 C 5,23.8 4.8,24 4.5,24 4.2,24 4,23.8 4,23.5 v -5 C 4,18.2 4.2,18 4.5,18 Z m 23,0 c .3,0 0.5,.2 0.5,0.5 v 5 C 28,23.8 27.8,24 27.5,24 27.2,24 27,23.8 27,23.5 v -5 C 27,18.2 27.2,18 27.5,18 Z M 7,19 h 2 v 4 H 7 Z m 3,0 h 2 v 4 h -2 z m 3,0 h 2 v 4 h -2 z m 3,0 h 2 v 4 h -2 z m 5,0 h 4 v 1 h -4 z m 1.5,2 C 22.8,21 23,21.2 23,21.5 23,21.8 22.8,22 22.5,22 22.2,22 22,21.8 22,21.5 22,21.2 22.2,21 22.5,21 Z m 2,0 C 24.8,21 25,21.2 25,21.5 25,21.8 24.8,22 24.5,22 24.2,22 24,21.8 24,21.5 24,21.2 24.2,21 24.5,21 Z M 6,25 h 20 v 2 H 6 Z" fill="currentColor" opacity=".6" stop-color="#000000"/><path class="ColorScheme-Background" d="M 5 3 C 3.9 3 3 3.9 3 5 L 3 27 C 3 28.1 3.9 29 5 29 L 27 29 C 28.1 29 29 28.1 29 27 L 29 5 C 29 3.9 28.1 3 27 3 L 5 3 z M 5 3.5 L 27 3.5 C 27.84 3.5 28.5 4.16 28.5 5 L 28.5 8.5 C 28.5 7.95 28.05 7.5 27.5 7.5 C 26.95 7.5 26.5 7.95 26.5 8.5 L 26.5 13.5 C 26.5 14.05 26.95 14.5 27.5 14.5 C 28.05 14.5 28.5 14.05 28.5 13.5 L 28.5 18.5 C 28.5 17.95 28.05 17.5 27.5 17.5 C 26.95 17.5 26.5 17.95 26.5 18.5 L 26.5 23.5 C 26.5 24.05 26.95 24.5 27.5 24.5 C 28.05 24.5 28.5 24.05 28.5 23.5 L 28.5 27 C 28.5 27.84 27.84 28.5 27 28.5 L 5 28.5 C 4.16 28.5 3.5 27.84 3.5 27 L 3.5 23.5 C 3.5 24.05 3.95 24.5 4.5 24.5 C 5.05 24.5 5.5 24.05 5.5 23.5 L 5.5 18.5 C 5.5 17.95 5.05 17.5 4.5 17.5 C 3.95 17.5 3.5 17.95 3.5 18.5 L 3.5 13.5 C 3.5 14.05 3.95 14.5 4.5 14.5 C 5.05 14.5 5.5 14.05 5.5 13.5 L 5.5 8.5 C 5.5 7.95 5.05 7.5 4.5 7.5 C 3.95 7.5 3.5 7.95 3.5 8.5 L 3.5 5 C 3.5 4.16 4.16 3.5 5 3.5 z M 6 4.5 A .5 .5 0 0 0 5.5 5 L 5.5 7 A .5 .5 0 0 0 6 7.5 L 26 7.5 A .5 .5 0 0 0 26.5 7 L 26.5 5 A .5 .5 0 0 0 26 4.5 L 6 4.5 z M 6 5 L 26 5 L 26 7 L 6 7 L 6 5 z M 4.5 8 C 4.8 8 5 8.2 5 8.5 L 5 13.5 C 5 13.8 4.8 14 4.5 14 C 4.2 14 4 13.8 4 13.5 L 4 8.5 C 4 8.2 4.2 8 4.5 8 z M 27.5 8 C 27.8 8 28 8.2 28 8.5 L 28 13.5 C 28 13.8 27.8 14 27.5 14 C 27.2 14 27 13.8 27 13.5 L 27 8.5 C 27 8.2 27.2 8 27.5 8 z M 7 8.5 A .5 .5 0 0 0 6.5 9 L 6.5 13 A .5 .5 0 0 0 7 13.5 L 9 13.5 A .5 .5 0 0 0 9.5 13 A .5 .5 0 0 0 10 13.5 L 12 13.5 A .5 .5 0 0 0 12.5 13 A .5 .5 0 0 0 13 13.5 L 15 13.5 A .5 .5 0 0 0 15.5 13 A .5 .5 0 0 0 16 13.5 L 18 13.5 A .5 .5 0 0 0 18.5 13 L 18.5 9 A .5 .5 0 0 0 18 8.5 L 16 8.5 A .5 .5 0 0 0 15.5 9 A .5 .5 0 0 0 15 8.5 L 13 8.5 A .5 .5 0 0 0 12.5 9 A .5 .5 0 0 0 12 8.5 L 10 8.5 A .5 .5 0 0 0 9.5 9 A .5 .5 0 0 0 9 8.5 L 7 8.5 z M 21 8.5 A .5 .5 0 0 0 20.5 9 L 20.5 10 A .5 .5 0 0 0 21 10.5 L 22.5 10.5 L 24.5 10.5 L 25 10.5 A .5 .5 0 0 0 25.5 10 L 25.5 9 A .5 .5 0 0 0 25 8.5 L 21 8.5 z M 24.5 10.5 C 23.95 10.5 23.5 10.95 23.5 11.5 C 23.5 12.05 23.95 12.5 24.5 12.5 C 25.05 12.5 25.5 12.05 25.5 11.5 C 25.5 10.95 25.05 10.5 24.5 10.5 z M 23.5 11.5 C 23.5 10.95 23.05 10.5 22.5 10.5 C 21.95 10.5 21.5 10.95 21.5 11.5 C 21.5 12.05 21.95 12.5 22.5 12.5 C 23.05 12.5 23.5 12.05 23.5 11.5 z M 7 9 L 9 9 L 9 13 L 7 13 L 7 9 z M 10 9 L 12 9 L 12 13 L 10 13 L 10 9 z M 13 9 L 15 9 L 15 13 L 13 13 L 13 9 z M 16 9 L 18 9 L 18 13 L 16 13 L 16 9 z M 21 9 L 25 9 L 25 10 L 21 10 L 21 9 z M 22.5 11 C 22.8 11 23 11.2 23 11.5 C 23 11.8 22.8 12 22.5 12 C 22.2 12 22 11.8 22 11.5 C 22 11.2 22.2 11 22.5 11 z M 24.5 11 C 24.8 11 25 11.2 25 11.5 C 25 11.8 24.8 12 24.5 12 C 24.2 12 24 11.8 24 11.5 C 24 11.2 24.2 11 24.5 11 z M 6 14.5 A .5 .5 0 0 0 5.5 15 L 5.5 17 A .5 .5 0 0 0 6 17.5 L 27 17.5 A .5 .5 0 0 0 27.5 17 L 27.5 15 A .5 .5 0 0 0 27 14.5 L 6 14.5 z M 6 15 L 27 15 L 27 17 L 6 17 L 6 15 z M 4.5 18 C 4.8 18 5 18.2 5 18.5 L 5 23.5 C 5 23.8 4.8 24 4.5 24 C 4.2 24 4 23.8 4 23.5 L 4 18.5 C 4 18.2 4.2 18 4.5 18 z M 27.5 18 C 27.8 18 28 18.2 28 18.5 L 28 23.5 C 28 23.8 27.8 24 27.5 24 C 27.2 24 27 23.8 27 23.5 L 27 18.5 C 27 18.2 27.2 18 27.5 18 z M 7 18.5 A .5 .5 0 0 0 6.5 19 L 6.5 23 A .5 .5 0 0 0 7 23.5 L 9 23.5 A .5 .5 0 0 0 9.5 23 A .5 .5 0 0 0 10 23.5 L 12 23.5 A .5 .5 0 0 0 12.5 23 A .5 .5 0 0 0 13 23.5 L 15 23.5 A .5 .5 0 0 0 15.5 23 A .5 .5 0 0 0 16 23.5 L 18 23.5 A .5 .5 0 0 0 18.5 23 L 18.5 19 A .5 .5 0 0 0 18 18.5 L 16 18.5 A .5 .5 0 0 0 15.5 19 A .5 .5 0 0 0 15 18.5 L 13 18.5 A .5 .5 0 0 0 12.5 19 A .5 .5 0 0 0 12 18.5 L 10 18.5 A .5 .5 0 0 0 9.5 19 A .5 .5 0 0 0 9 18.5 L 7 18.5 z M 21 18.5 A .5 .5 0 0 0 20.5 19 L 20.5 20 A .5 .5 0 0 0 21 20.5 L 22.5 20.5 L 24.5 20.5 L 25 20.5 A .5 .5 0 0 0 25.5 20 L 25.5 19 A .5 .5 0 0 0 25 18.5 L 21 18.5 z M 24.5 20.5 C 23.95 20.5 23.5 20.95 23.5 21.5 C 23.5 22.05 23.95 22.5 24.5 22.5 C 25.05 22.5 25.5 22.05 25.5 21.5 C 25.5 20.95 25.05 20.5 24.5 20.5 z M 23.5 21.5 C 23.5 20.95 23.05 20.5 22.5 20.5 C 21.95 20.5 21.5 20.95 21.5 21.5 C 21.5 22.05 21.95 22.5 22.5 22.5 C 23.05 22.5 23.5 22.05 23.5 21.5 z M 7 19 L 9 19 L 9 23 L 7 23 L 7 19 z M 10 19 L 12 19 L 12 23 L 10 23 L 10 19 z M 13 19 L 15 19 L 15 23 L 13 23 L 13 19 z M 16 19 L 18 19 L 18 23 L 16 23 L 16 19 z M 21 19 L 25 19 L 25 20 L 21 20 L 21 19 z M 22.5 21 C 22.8 21 23 21.2 23 21.5 C 23 21.8 22.8 22 22.5 22 C 22.2 22 22 21.8 22 21.5 C 22 21.2 22.2 21 22.5 21 z M 24.5 21 C 24.8 21 25 21.2 25 21.5 C 25 21.8 24.8 22 24.5 22 C 24.2 22 24 21.8 24 21.5 C 24 21.2 24.2 21 24.5 21 z M 6 24.5 A .5 .5 0 0 0 5.5 25 L 5.5 27 A .5 .5 0 0 0 6 27.5 L 26 27.5 A .5 .5 0 0 0 26.5 27 L 26.5 25 A .5 .5 0 0 0 26 24.5 L 6 24.5 z M 6 25 L 26 25 L 26 27 L 6 27 L 6 25 z " fill="currentColor" opacity=".6"/></g><use href="#uBm" opacity=".4"></use><use fill="url(#uBk)" href="#uBm" opacity=".1"></use><path d="m 26,16 c -2,0 -4,2 -6,2 H 6 c -1.11,0 -2,.9 -2,2 v 34 c 0,1.1 .9,2 2,2 h 52 c 1.1,0 2,-.9 2,-2 V 18 c 0,-1.1 -.9,-2 -2,-2 z" fill="url(#uBj)" opacity=".2"/><path class="ColorScheme-Contrast" d="m 4,52 v 1 c 0,1.66 1.34,3 3,3 h 50 c 1.66,0 3,-1.34 3,-3 v -1 c 0,1.66 -1.34,3 -3,3 H 7 C 5.34,55 4,53.66 4,52 Z" fill="currentColor" opacity=".1"/><path class="ColorScheme-Contrast" d="M 4,52.5 V 53 c 0,1.66 1.34,3 3,3 h 50 c 1.66,0 3,-1.34 3,-3 v -0.5 c 0,1.66 -1.34,3 -3,3 H 7 c -1.66,0 -3,-1.34 -3,-3 z" fill="currentColor" opacity=".2"/><path d="m 27,16 c -3,0 -3,2 -7,2 H 7 c -1.66,0 -3,1.34 -3,3 v 1 c 0,-1.66 1.34,-3 3,-3 h 13 c 4,0 4,-2 7,-2 h 30 c 1.66,0 3,1.34 3,3 v -1 c 0,-1.66 -1.34,-3 -3,-3 z" fill="#fff" opacity=".1"/><path d="m 27,16 c -3,0 -3,2 -7,2 H 7 c -1.66,0 -3,1.34 -3,3 v 0.5 c 0,-1.66 1.34,-3 3,-3 h 13 c 4,0 4,-2 7,-2 h 30 c 1.66,0 3,1.34 3,3 V 19 c 0,-1.66 -1.34,-3 -3,-3 z" fill="#fff" opacity=".2"/><path d="m 27,15 c -3,0 -3,2 -7,2 H 7 v 1 h 13 c 4,0 4,-2 7,-2 h 30 v -1 z" opacity=".1"/><path d="m 27,15.5 c -3,0 -3,2 -7,2 H 7 V 18 h 13 c 4,0 4,-2 7,-2 h 30 v -0.5 z" opacity=".2"/></g>
</svg>