<svg height="64" version="1.1" width="64" xmlns="http://www.w3.org/2000/svg" xmlns:svg="http://www.w3.org/2000/svg" xmlns:xlink="http://www.w3.org/1999/xlink">
<defs id="primary-definitions">
<style id="current-color-scheme" type="text/css">
      .ColorScheme-Text           { color:#fff; }
      .ColorScheme-Background     { color:#111; }
      .ColorScheme-Highlight      { color:#3daefd; }
      .ColorScheme-ViewBackground { color:#000; }
      .ColorScheme-PositiveText   { color:#27ae60; }
      .ColorScheme-NeutralText    { color:#f67400; }
      .ColorScheme-NegativeText   { color:#da4453; }
    </style>
<style id="extended-color-scheme" type="text/css">
      .ExScheme-Black     { color:#3e3e3e; }
      .ExScheme-White     { color:#fcfcfc; }
      .ExScheme-Grey-1    { color:#cfd5d5; }
      .ExScheme-Grey-2    { color:#909c9c; }
      .ExScheme-Grey-3    { color:#536161; }
      .ExScheme-Red-1     { color:#ffafa5; }
      .ExScheme-Red-2     { color:#bf4231; }
      .ExScheme-Red-3     { color:#4d2f2b; }
      .ExScheme-Green-1   { color:#abf9c7; }
      .ExScheme-Green-2   { color:#3bb566; }
      .ExScheme-Green-3   { color:#377d50; }
      .ExScheme-Blue-1    { color:#abdaf9; }
      .ExScheme-Blue-2    { color:#3daefd; }
      .ExScheme-Blue-3    { color:#2b3c4d; }
      .ExScheme-Yellow-1  { color:#faffa5; }
      .ExScheme-Yellow-2  { color:#cac726; }
      .ExScheme-Yellow-3  { color:#4b4d2b; }
      .ExScheme-Orange-1  { color:#ffdaa5; }
      .ExScheme-Orange-2  { color:#ff9701; }
      .ExScheme-Orange-3  { color:#4d372b; }
      .ExScheme-Brown-1   { color:#e9d6bb; }
      .ExScheme-Brown-2   { color:#997657; }
      .ExScheme-Brown-3   { color:#433a35; }
      .ExScheme-Purple-1  { color:#e2abf9; }
      .ExScheme-Purple-2  { color:#b401ff; }
      .ExScheme-Purple-3  { color:#432b4d; }
      .ExScheme-Cyan-1    { color:#b2f2e6; }
      .ExScheme-Cyan-2    { color:#31bfa6; }
      .ExScheme-Cyan-3    { color:#2b4d47; }
      .ExScheme-Magenta-1 { color:#f8a6d8; }
      .ExScheme-Magenta-2 { color:#f00091; }
      .ExScheme-Magenta-3 { color:#770048; }
    </style>
<linearGradient id="uKs">
<stop offset="0"/>
<stop offset="1" stop-opacity="0"/>
</linearGradient>
<linearGradient id="uKt">
<stop offset="0" stop-color="#fff"/>
<stop offset="1" stop-color="#fff" stop-opacity="0"/>
</linearGradient>
<linearGradient id="uKu">
<stop offset="0" stop-color="#909c9c"/>
<stop offset=".105" stop-color="#909c9c"/>
<stop offset=".5" stop-color="#b0b8b8"/>
<stop offset=".895" stop-color="#909c9c"/>
<stop offset="1" stop-color="#6f8181"/>
</linearGradient><linearGradient id="uKv">
<stop offset="0" stop-color="#000000"/>
<stop offset="1" stop-color="#000000" stop-opacity="0"/>
</linearGradient><style class="toggle-enable-crease" type="text/css">
        .folder-crease { display: none; }
    </style><style class="toggle-manilla-folders" type="text/css">
        .folder-manilla { display: none; }
    </style><radialGradient cx=".5" cy="0" id="uKw" r="1" xlink:href="#uKt"/><linearGradient id="uKx" xlink:href="#uKs" y1="1" y2=".5"/><clipPath clipPathUnits="userSpaceOnUse" id="uKy">
<rect height="900" width="1600" x="0" y="58.874992"/>
</clipPath><radialGradient cx="8" cy="32" fx="8" fy="32" gradientTransform="matrix(0,2.13,-1.06,0,66.07,-9.03)" gradientUnits="userSpaceOnUse" id="uKz" r="22.54" xlink:href="#uKt"/><linearGradient gradientUnits="userSpaceOnUse" id="uKA" x1="12.11" x2="20.39" xlink:href="#uKs" y1="32.02" y2="31.5"/><linearGradient gradientTransform="matrix(-1,0,0,1,64,0)" gradientUnits="userSpaceOnUse" id="uKB" x1="12.11" x2="20.39" xlink:href="#uKv" y1="32.02" y2="31.5"/><linearGradient gradientUnits="userSpaceOnUse" id="uKC" x1="13" x2="51" xlink:href="#uKu" y1="50" y2="50"/><path d="m 13.3,8 c -1.66,0 -3.14,1.34 -3,3 l 2.75,33 L 32,48 50.95,44 53.7,11 c .14,-1.66 -1.34,-3 -3,-3 z" id="uKD" opacity=".4"></path><path d="m 68.5,41.9 -2.1,-2.6 .57,-3.05 4.2,-1.25 .44,-2.8 3.33,-1.3 6.14,1 .5,4.67 .97,1.2 -1.4,1.4 -7.95,3.03 -2.34,-.03 z" fill="#cfd5d5" id="uKE"></path><path d="m 68.5,41.9 1.9,-3.2 2.87,-1.5 2.2,.93 3.3,-.14 .8,-.56 -.64,1.77 -5.85,.75 z" id="uKF"></path><path d="m 66.97,36.26 3.44,2.44 2.87,-1.5 -2.2,-2.17 z" fill="#b0b8b8" id="uKG"></path><path d="m 75.5,38.1 -.66,-7.17 6.14,1 -1.4,5.47 -.8,.56 z" fill="#b0b8b8" id="uKH"></path><path d="m 73.13,42.27 -.04,-2.34 5.85,-.75 2.14,.06 z" fill="#b0b8b8" id="uKI"></path><path d="m 71.07,35 9.9,-3.07 -6.14,-1 -3.33,1.3 z" id="uKJ"></path><path d="m 72.53,48.4 -2.65,-2.74 2.8,-6.95 6.9,.1 3.6,-1.47 3.1,4.47 -1.76,4.9 -6.65,2.13 z" fill="#cfd5d5" id="uKK"></path><path d="m 72.7,38.7 1.1,4.4 4.2,-.2 1.6,-4.2 z" id="uKL"></path><path d="m 78,42.9 -5.47,5.5 5.4,.44 2.6,-2.97 z" fill="#909c9c" id="uKM"></path><path d="m 84.6,46.7 -1.65,-1.4 1.6,-2.97 1.8,-.55 z" id="uKN"></path><path d="M 83.2,37.34 80.5,45.87 79.7,38.8 Z" id="uKO"></path><path d="m 69.9,45.67 3.9,-2.56 4.2,-.2 5.2,-5.56 -2.7,8.53 -8,2.53 z" fill="#eff1f1" id="uKP"></path><path d="m 70.45,39.4 4.16,1.5 -1.36,4.67 3.83,1.2 6.96,-4.7 -1.26,-2.4 3.25,-3.2 -5.87,-3.1 -3.37,1.7 z" id="uKQ"></path><path d="m 74.6,40.8 -1.36,4.67 3.3,-1.83 z" id="uKR"></path><path d="m 80.16,33.35 -3.37,1.7 .7,1.8 4.06,.54 z" fill="#b0b8b8" id="uKS"></path><path d="m 74.6,40.8 2.9,-3.97 6.54,5.2 z" id="uKT"></path><path d="m 70.45,39.4 7.05,-2.45 5.3,2.83 -8.17,1.13 -1.36,4.67 z" fill="#fcfcfc" id="uKU"></path></defs>
<g id="content" transform="translate(0,0)"><use class="ColorScheme-Text" fill="currentColor" href="#uKD"></use><g>
<g transform="translate(-48.26,6.82)">
<use href="#uKE"></use>
<use fill="#909c9c" href="#uKF"></use>
<use href="#uKG"></use>
<use href="#uKH"></use>
<use href="#uKI"></use>
<use fill="#eff1f1" href="#uKJ"></use>
</g>
<g transform="translate(-36.493,-9.024)">
<use href="#uKK"></use>
<use fill="#909c9c" href="#uKL"></use>
<use href="#uKM"></use>
<use fill="#909c9c" href="#uKN"></use>
<use fill="#909c9c" href="#uKO"></use>
<use href="#uKP"></use>
</g>
<g transform="matrix(1.087,0,0,1.087,-61.947,-7.26)">
<use fill="#eff1f1" href="#uKQ"></use>
<use fill="#b0b8b8" href="#uKR"></use>
<use href="#uKS"></use>
<use fill="#b0b8b8" href="#uKT"></use>
<use href="#uKU"></use>
</g>
<g transform="rotate(167.475,48.846,28.447)">
<use href="#uKE"></use>
<use fill="#eff1f1" href="#uKF"></use>
<use href="#uKG"></use>
<use href="#uKH"></use>
<use href="#uKI"></use>
<use fill="#909c9c" href="#uKJ"></use>
</g>
<g transform="rotate(-157.83,54.38,31.95)">
<use href="#uKE"></use>
<use fill="#eff1f1" href="#uKF"></use>
<use href="#uKG"></use>
<use href="#uKH"></use>
<use href="#uKI"></use>
<use fill="#909c9c" href="#uKJ"></use>
</g>
<g transform="rotate(100.56,60.523,16.686)">
<use href="#uKK"></use>
<use fill="#b0b8b8" href="#uKL"></use>
<use href="#uKM"></use>
<use fill="#b0b8b8" href="#uKN"></use>
<use fill="#b0b8b8" href="#uKO"></use>
<use href="#uKP"></use>
</g>
<g transform="rotate(167.475,61.5,29.93)">
<use fill="#cfd5d5" href="#uKQ"></use>
<use fill="#eff1f1" href="#uKR"></use>
<use href="#uKS"></use>
<use fill="#eff1f1" href="#uKT"></use>
<use href="#uKU"></use>
</g>
<g transform="matrix(1.127,0,0,1.127,-55.89,-27.475)">
<use href="#uKE"></use>
<use fill="#909c9c" href="#uKF"></use>
<use href="#uKG"></use>
<use href="#uKH"></use>
<use href="#uKI"></use>
<use fill="#eff1f1" href="#uKJ"></use>
</g>
<g transform="rotate(100.56,59.707,4.655)">
<use href="#uKK"></use>
<use fill="#b0b8b8" href="#uKL"></use>
<use href="#uKM"></use>
<use fill="#b0b8b8" href="#uKN"></use>
<use fill="#b0b8b8" href="#uKO"></use>
<use href="#uKP"></use>
</g>
<g transform="rotate(-142.69,58.245,45.66)">
<use href="#uKE"></use>
<use fill="#eff1f1" href="#uKF"></use>
<use href="#uKG"></use>
<use href="#uKH"></use>
<use href="#uKI"></use>
<use fill="#909c9c" href="#uKJ"></use>
</g>
<g transform="matrix(1.24,-.055,.055,1.24,-52.21,-26.686)">
<use href="#uKE"></use>
<use fill="#eff1f1" href="#uKF"></use>
<use href="#uKG"></use>
<use href="#uKH"></use>
<use href="#uKI"></use>
<use fill="#eff1f1" href="#uKJ"></use>
</g>
</g><path class="ColorScheme-Text" d="M 13.3 8 C 11.64 8 10.16 9.34 10.3 11 L 13.05 44 L 15 46 L 15.03 44 L 12.3 11 C 12.16 9.34 13.64 8 15.3 8 L 13.3 8 z M 48.7 8 C 50.36 8 51.84 9.34 51.7 11 L 48.97 44 L 49 46 L 50.95 44 L 53.7 11 C 53.84 9.34 52.36 8 50.7 8 L 48.7 8 z " fill="currentColor" opacity=".4"/><use class="ColorScheme-Text" fill="currentColor" href="#uKD"></use><path d="M 13.05 44 L 13.8 53 C 13.94 54.66 15.14 56 16.8 56 L 47.2 56 C 48.86 56 50.06 54.66 50.2 53 L 50.95 44 L 13.05 44 z" fill="url(#uKC)" id="metal-cup"/><path class="ColorScheme-Background" d="m 23.6,32.45 c -.26,.47 -.47,1.2 -.47,1.6 0,.1 0,.24 .03,.4 l -3.3,-5.63 c -.1,-.2 -.2,-.44 -.2,-.7 0,-.24 .1,-.5 .2,-.7 l 1.57,-2.75 -1.76,-1 5.7,-.1 2.8,5 -1.8,-1 z m 2.5,-15.9 c .5,-.87 1.3,-1.34 2.3,-1.34 1.07,0 1.9,.5 2.5,1.5 l .9,1.5 -3.1,5.35 -5,-2.9 z m .37,20.4 c -1.5,0 -2.7,-1.23 -2.7,-2.7 0,-.4 .2,-1.13 .45,-1.57 l .84,-1.5 h 6.2 v 5.8 H 26.5 Z M 31.5,16.4 C 31.1,15.74 30.56,15.26 29.93,15 h 6.44 c .6,0 1,.24 1.3,.7 l 1.6,2.7 1.73,-1 -2.8,5 -5.7,-.1 1.76,-1 z m 9.93,14.83 c .8,0 1.44,-.2 2,-.63 l -3.25,5.66 c -.26,.44 -.73,.7 -1.3,.7 h -3.07 v 2 l -2.93,-4.9 2.93,-4.9 v 2.04 h 5.6 z m 2.5,-4.7 c .24,.4 .37,.86 .37,1.34 0,.94 -.6,1.94 -1.44,2.4 -.4,.2 -.94,.34 -1.5,.34 h -1.73 l -3.1,-5.35 5,-2.86 z" fill="currentColor" opacity=".6"/><path class="ColorScheme-Background" d="m 29.93,15 c .63,.26 1.15,.74 1.55,1.4 l 2.8,4.87 -1.76,1 5.7,.1 2.8,-5 -1.73,1 -1.6,-2.7 C 37.4,15.24 36.95,15 36.4,15 Z m -1.5,.24 c -1,0 -1.8,.47 -2.4,1.34 l -2.4,4.1 5,2.9 3.1,-5.35 -.9,-1.5 c -.6,-1 -1.44,-1.5 -2.5,-1.5 z M 31.2,15.5 H 36.4 c .44,0 .7,.14 .85,.44 l 1.85,3.16 .57,-.34 -1.73,3.1 -3.54,-.05 .6,-.33 -3.05,-5.3 C 31.73,15.85 31.4,15.74 31.2,15.5 Z m -2.74,.24 c .9,0 1.55,.37 2.1,1.27 l .74,1.24 -2.7,4.66 -4.14,-2.4 2.13,-3.7 v -0 c .4,-.73 1.03,-1.1 1.87,-1.1 z m 13.1,6.7 -5,2.86 3.1,5.35 h 1.73 c .55,-10e-7 1.1,-.13 1.5,-.34 .84,-.47 1.44,-1.47 1.44,-2.4 0,-.47 -.13,-.9 -.37,-1.34 z m -.2,.7 2.13,3.7 c .2,.36 .3,.7 .3,1.1 0,.73 -.5,1.6 -1.2,1.97 -.3,.16 -.8,.3 -1.25,.3 h -1.44 l -2.7,-4.66 z m -15.93,.53 -5.7,.1 1.76,1 -1.57,2.75 c -.1,.2 -.2,.47 -.2,.7 0,.24 .1,.5 .2,.7 l 3.3,5.63 c -.03,-.2 -.03,-.3 -.03,-.4 0,-.45 .2,-1.15 .47,-1.6 l 2.8,-4.85 1.8,1 z m -.3,.5 1.76,3.17 -.66,-.4 -3.06,5.3 -0,0 c -.15,.26 -.16,.6 -0.25,.9 l -2.6,-4.47 c -.06,-.1 -.1,-.3 -.1,-.43 0,-.13 .07,-.4 .1,-.46 l 1.8,-3.2 -.6,-.34 z m 10.67,5.07 -2.94,4.9 L 35.9,39 v -2 h 3.07 c .55,0 1,-.26 1.3,-.7 l 3.25,-5.66 c -.55,.4 -1.2,.63 -2,.63 h -5.6 z m -0.5,1.8 v .74 h 5.6 0.5 c .36,0 .6,-.2 .94,-.3 l -2.63,4.57 c -.17,.3 -.46,.46 -.85,.46 h -3.57 v .7 l -1.85,-3.1 z m -10.24,.2 -.84,1.5 c -.26,.44 -.45,1.15 -.45,1.57 0,1.5 1.23,2.7 2.7,2.7 h 4.77 v -5.8 z m .3,0.5 h 5.4 v 4.8 h -3.77 -0.5 c -1.2,0 -2.2,-1 -2.2,-2.2 0,-.27 .2,-1 .4,-1.3 l 0,-0 z" fill="currentColor" opacity=".6"/><path d="m 13.3,8 c -1.66,0 -3.14,1.34 -3,3 l 3.5,42 c .14,1.66 1.34,3 3,3 H 24 V 8 Z" fill="url(#uKA)" opacity=".2"/><path d="M 40 8 L 40 56 L 47.2 56 C 48.86 56 50.06 54.66 50.2 53 L 53.7 11 C 53.84 9.34 52.36 8 50.7 8 L 40 8 z " fill="url(#uKB)" opacity=".2"/><path d="M 13 43.5 L 13.05 44 L 50.95 44 L 51 43.5 L 13 43.5 z " opacity=".1"/><path d="M 13.05 44 L 13.1 44.5 L 50.9 44.5 L 50.95 44 L 13.05 44 z " fill="#fff" opacity=".2"/><path class="ColorScheme-Text" d="M 13.3 8 C 11.64 8 10.16 9.34 10.3 11 L 10.33 11.35 C 10.56 10 11.86 9 13.3 9 L 50.7 9 C 52.14 9 53.44 10 53.67 11.35 L 53.7 11 C 53.84 9.34 52.36 8 50.7 8 L 13.3 8 z " fill="currentColor" opacity=".05"/><path class="ColorScheme-Text" d="M 13.3 8 C 11.64 8 10.16 9.34 10.3 11 L 10.3 11.06 C 10.44 9.6 11.8 8.5 13.3 8.5 L 50.7 8.5 C 52.2 8.5 53.56 9.6 53.7 11.06 L 53.7 11 C 53.84 9.34 52.36 8 50.7 8 L 13.3 8 z " fill="currentColor" opacity=".1"/><path class="ColorScheme-Text" d="M 13.74,52.2 13.8,53 c .14,1.66 1.34,3 3,3 h 30.4 c 1.66,0 2.86,-1.34 3,-3 l .06,-.8 C 50.04,53.77 48.9,55 47.3,55 H 16.7 c -1.6,0 -2.74,-1.23 -2.96,-2.8 z" fill="currentColor" opacity=".1"/><path class="ColorScheme-Text" d="M 13.8 53.1 C 14 54.7 15.2 56 16.8 56 L 47.2 56 C 48.8 56 50 54.7 50.2 53.1 C 49.84 54.47 48.75 55.5 47.3 55.5 L 16.7 55.5 C 15.25 55.5 14.16 54.47 13.8 53.1 z " fill="currentColor" opacity=".2"/><path d="m 13.3,8 c -1.66,0 -3.14,1.34 -3,3 l 3.5,42 c .14,1.66 1.34,3 3,3 h 30.4 c 1.66,0 2.86,-1.34 3,-3 l 3.5,-42 c .14,-1.66 -1.34,-3 -3,-3 z" fill="url(#uKz)" id="gloss" opacity=".2"/></g>
</svg>