<?xml version="1.0" encoding="UTF-8" standalone="no"?>

<!-- Created with Inkscape (http://www.inkscape.org/) -->
<svg width="48" version="1.1" xmlns="http://www.w3.org/2000/svg" height="48" xmlns:xlink="http://www.w3.org/1999/xlink" xmlns:inkscape="http://www.inkscape.org/namespaces/inkscape">
 <defs id="defs5455">
  <linearGradient inkscape:collect="always" xlink:href="#linearGradient4303" id="linearGradient4274" y1="545.79797" y2="517.79797" x2="0" gradientUnits="userSpaceOnUse" gradientTransform="matrix(1.4285711 0 0 1.4285711 -163.67328 -235.91309)"/>
  <linearGradient inkscape:collect="always" id="linearGradient4159">
   <stop style="stop-color:#2a2c2f" id="stop4161"/>
   <stop offset="1" style="stop-color:#424649" id="stop4163"/>
  </linearGradient>
  <linearGradient inkscape:collect="always" id="linearGradient4227">
   <stop style="stop-color:#292c2f" id="stop4229"/>
   <stop offset="1" style="stop-opacity:0" id="stop4231"/>
  </linearGradient>
  <linearGradient inkscape:collect="always" id="linearGradient4143">
   <stop style="stop-color:#197cf1" id="stop4145"/>
   <stop offset="1" style="stop-color:#20bcfa" id="stop4147"/>
  </linearGradient>
  <linearGradient inkscape:collect="always" xlink:href="#linearGradient4143" id="linearGradient4211" y1="27" y2="11" x2="0" gradientUnits="userSpaceOnUse" gradientTransform="matrix(1 0 0 1 385.57143 499.798)"/>
  <linearGradient inkscape:collect="always" xlink:href="#linearGradient4159" id="linearGradient4224" y1="545.79797" y2="517.79797" gradientUnits="userSpaceOnUse" x2="0" gradientTransform="matrix(1.2857137 0 0 1.2857137 -106.44874 -159.94189)"/>
  <linearGradient inkscape:collect="always" xlink:href="#linearGradient4227" id="linearGradient4238" y1="11" x1="20" y2="33" x2="42" gradientUnits="userSpaceOnUse"/>
  <linearGradient inkscape:collect="always" id="linearGradient4303">
   <stop style="stop-color:#c6cdd1" id="stop4305"/>
   <stop offset="1" style="stop-color:#e0e5e7" id="stop4307"/>
  </linearGradient>
 </defs>
 <metadata id="metadata5458"/>
 <g inkscape:label="Capa 1" inkscape:groupmode="layer" id="layer1" transform="matrix(1 0 0 1 -384.57143 -499.798)">
  <rect width="39.999947" x="388.57144" y="503.798" rx="19.999973" height="39.999947" style="fill:url(#linearGradient4274)" id="rect4179"/>
  <rect width="35.999947" x="390.57144" y="505.798" rx="17.999973" height="35.999947" style="fill:url(#linearGradient4224)" id="rect4222"/>
  <path style="fill:url(#linearGradient4238);opacity:0.2;fill-rule:evenodd" id="path4215" d="M 24 11 L 24 26 L 23 26 L 36.568359 39.568359 C 39.581504 37.136214 41.86859 33.850241 43.064453 30.064453 L 24 11 z " transform="matrix(1 0 0 1 384.57143 499.798)"/>
  <path inkscape:connector-curvature="0" style="fill:url(#linearGradient4211)" id="rect4200" d="m 407.57143,510.798 0,14 0,1 1,0 11,0 0,-1 -11,0 0,-14 z"/>
  <path inkscape:connector-curvature="0" style="fill:#2c2e31;fill-opacity:0.235294" id="rect4409" d="m 388.58311,523.29795 c -0.004,0.16654 -0.0117,0.33244 -0.0117,0.5 0,11.08 8.92,20 20,20 11.08,0 20,-8.92 20,-20 0,-0.16756 -0.008,-0.33346 -0.0117,-0.5 -0.26467,10.84613 -9.07616,19.5 -19.98828,19.5 -10.91212,0 -19.72361,-8.65387 -19.98828,-19.5 z"/>
 </g>
</svg>
