<?xml version="1.0" encoding="UTF-8" standalone="no"?>
<svg
   width="32"
   height="32"
   version="1.1"
   id="svg2"
   sodipodi:docname="input-keyboard-color.svg"
   inkscape:version="1.3.2 (091e20ef0f, 2023-11-25, custom)"
   xmlns:inkscape="http://www.inkscape.org/namespaces/inkscape"
   xmlns:sodipodi="http://sodipodi.sourceforge.net/DTD/sodipodi-0.dtd"
   xmlns="http://www.w3.org/2000/svg"
   xmlns:svg="http://www.w3.org/2000/svg">
  <defs
     id="defs2" />
  <sodipodi:namedview
     id="namedview2"
     pagecolor="#ffffff"
     bordercolor="#000000"
     borderopacity="0.25"
     inkscape:showpageshadow="2"
     inkscape:pageopacity="0.0"
     inkscape:pagecheckerboard="0"
     inkscape:deskcolor="#d1d1d1"
     inkscape:zoom="26"
     inkscape:cx="15.980769"
     inkscape:cy="16"
     inkscape:window-width="1920"
     inkscape:window-height="1036"
     inkscape:window-x="0"
     inkscape:window-y="44"
     inkscape:window-maximized="1"
     inkscape:current-layer="input-keyboard-color" />
  <style
     type="text/css"
     id="current-color-scheme">.ColorScheme-Text {
        color:#31363b;
      }
      .ColorScheme-Background {
        color:#eff0f1;
      }
      .ColorScheme-Highlight {
        color:#3daee9;
      }
      .ColorScheme-ButtonText {
        color:#31363b;
      }
    </style>
  <g
     id="input-keyboard-color"
     transform="translate(-364,-460.36237) translate(-38,-96)">
    <rect
       x="402"
       y="556.36237"
       width="32"
       height="32"
       ry="0"
       fill="none"
       id="rect1" />
    <path
       class="ColorScheme-Text"
       transform="translate(364,460.36237)"
       d="m44 100v20l10 4 10-4v-10h-1v7h-18v-16h12v-1zm9.40625 4-4.40625 10h1.300781l1.322266-3h4.722656l1.349609 3h1.304688l-4.5-10zm0.552734 1.69531 1.9375 4.30469h-3.833984zm-8.958984 12.30469h18v1h-18z"
       fill="currentColor"
       id="path1" />
    <path
       style="stroke-width:0.8"
       d="m 24.203,4.176 c -0.464,1.0928 -1.07,2.008 -1.597,2.8048 -0.357,0.5552 -0.76,1.1632 -1.029,1.8392 -0.07,0.236 -0.116,0.4808 -0.116,0.7296 0,0.8648 0.444,1.6264 1.121,2.1032 0.232,0.05102 0.469,0.07723 0.706,0.07816 1.767,0 3.2,-1.366698 3.2,-3.05312 0,-0.231536 -0.03,-0.462186 -0.08,-0.687504 0.03,0.03735 0.05,0.07539 0.08,0.114064 C 26.271,7.7076 26.031,7.3316 25.805,6.9812 25.279,6.1844 24.672,5.2692 24.208,4.1764"
       class="ColorScheme-Highlight"
       fill="currentColor"
       id="path2"
       transform="translate(402,556.36237)" />
    <path
       style="stroke:none;stroke-width:0.8"
       d="M 24.203,3 C 24.07,3.4552 23.892,3.9 23.698,4.336 22.713,6.496 21.169,7.9744 21.02,9.3376 21.02,9.3576 21.01,9.38 21,9.4 l 0.01,0.0048 C 21.01,9.452 21,9.4984 21,9.5456 c 0,1.6872 1.433,3.0544 3.2,3.0544 1.767,0 3.2,-1.368 3.2,-3.0544 0,-0.0464 -0.01,-0.0936 -0.01,-0.1408 L 27.4,9.4 C 27.4,9.38 27.39,9.3576 27.38,9.3376 27.231,7.9744 25.688,6.496 24.702,4.336 24.508,3.9 24.33,3.4552 24.197,3 m 0,1.172 c 0.464,1.0928 1.07,2.008 1.597,2.8048 0.357,0.5552 0.76,1.1632 1.029,1.8392 0.07,0.236 0.116,0.4808 0.116,0.7296 0,1.4456 -1.227,2.6184 -2.742,2.6184 -1.515,0 -2.742,-1.1728 -2.742,-2.6184 0,-0.2488 0.04,-0.4936 0.116,-0.7296 C 21.84,8.1408 22.244,7.532 22.6,6.9768 23.127,6.18 23.733,5.2648 24.197,4.172"
       class="ColorScheme-Text"
       fill="currentColor"
       id="path3"
       transform="translate(402,556.36237)" />
  </g>
</svg>
