<?xml version="1.0" encoding="UTF-8" standalone="no"?>
<svg
   viewBox="0 0 32 32"
   version="1.1"
   id="svg2"
   sodipodi:docname="smartphoneconnected.svg"
   inkscape:version="1.3 (0e150ed6c4, 2023-07-21)"
   xmlns:inkscape="http://www.inkscape.org/namespaces/inkscape"
   xmlns:sodipodi="http://sodipodi.sourceforge.net/DTD/sodipodi-0.dtd"
   xmlns="http://www.w3.org/2000/svg"
   xmlns:svg="http://www.w3.org/2000/svg">
  <defs
     id="defs2" />
  <sodipodi:namedview
     id="namedview2"
     pagecolor="#ffffff"
     bordercolor="#666666"
     borderopacity="1.0"
     inkscape:showpageshadow="2"
     inkscape:pageopacity="0.0"
     inkscape:pagecheckerboard="0"
     inkscape:deskcolor="#d1d1d1"
     inkscape:zoom="12.921875"
     inkscape:cx="6.8488513"
     inkscape:cy="14.355502"
     inkscape:window-width="1920"
     inkscape:window-height="1006"
     inkscape:window-x="0"
     inkscape:window-y="0"
     inkscape:window-maximized="1"
     inkscape:current-layer="svg2" />
  <style
     type="text/css"
     id="current-color-scheme">&#10;        .ColorScheme-PositiveText {&#10;            color:#27ae60;&#10;        }&#10;        .ColorScheme-Text {&#10;            color:#232629;&#10;        }&#10;    </style>
  <rect
     style="fill:none;fill-opacity:1;stroke:#000000;stroke-width:1.07347;stroke-linecap:round;stroke-linejoin:round;stroke-dasharray:none;stroke-dashoffset:0;stroke-opacity:1;paint-order:stroke fill markers"
     id="rect6968"
     width="13.535167"
     height="25.071835"
     x="9.2324162"
     y="3.3818998"
     ry="1.5985645" />
  <path
     style="fill:none;stroke:#000000;stroke-width:0.578166;stroke-linecap:round;stroke-linejoin:miter;stroke-dasharray:none;stroke-opacity:1"
     d="m 13.655153,26.354324 c 4.746062,0 4.792475,0 4.792475,0"
     id="path6970" />
  <path
     style="fill:#030303;fill-opacity:1;stroke:none;stroke-width:1.53654;stroke-linecap:round;stroke-linejoin:round;stroke-dasharray:none;stroke-dashoffset:0;stroke-opacity:1;paint-order:stroke fill markers"
     id="path6972"
     sodipodi:type="arc"
     sodipodi:cx="18.351473"
     sodipodi:cy="5.6442175"
     sodipodi:rx="0.71955097"
     sodipodi:ry="0.71955097"
     sodipodi:start="0"
     sodipodi:end="6.2698771"
     sodipodi:open="true"
     sodipodi:arc-type="arc"
     d="m 19.071024,5.6442175 a 0.71955097,0.71955097 0 0 1 -0.717157,0.719547 0.71955097,0.71955097 0 0 1 -0.721929,-0.7147591 0.71955097,0.71955097 0 0 1 0.712353,-0.724303 0.71955097,0.71955097 0 0 1 0.726669,0.7099394" />
  <path
     style="fill:#030303;fill-opacity:1;stroke:none;stroke-width:1.53654;stroke-linecap:round;stroke-linejoin:round;stroke-dasharray:none;stroke-dashoffset:0;stroke-opacity:1;paint-order:stroke fill markers"
     id="path6974"
     sodipodi:type="arc"
     sodipodi:cx="11.315638"
     sodipodi:cy="5.6442175"
     sodipodi:rx="0.71955097"
     sodipodi:ry="0.71955097"
     sodipodi:start="0"
     sodipodi:end="6.2698771"
     sodipodi:open="true"
     sodipodi:arc-type="arc"
     d="m 12.035189,5.6442175 a 0.71955097,0.71955097 0 0 1 -0.717157,0.719547 0.71955097,0.71955097 0 0 1 -0.721929,-0.7147591 0.71955097,0.71955097 0 0 1 0.712353,-0.724303 0.71955097,0.71955097 0 0 1 0.726669,0.7099394" />
  <path
     style="fill:#030303;fill-opacity:1;stroke:none;stroke-width:1.53654;stroke-linecap:round;stroke-linejoin:round;stroke-dasharray:none;stroke-dashoffset:0;stroke-opacity:1;paint-order:stroke fill markers"
     id="path6976"
     sodipodi:type="arc"
     sodipodi:cx="20.454012"
     sodipodi:cy="5.6346445"
     sodipodi:rx="0.71955097"
     sodipodi:ry="0.71955097"
     sodipodi:start="0"
     sodipodi:end="6.2698771"
     sodipodi:open="true"
     sodipodi:arc-type="arc"
     d="m 21.173563,5.6346445 a 0.71955097,0.71955097 0 0 1 -0.717157,0.719547 0.71955097,0.71955097 0 0 1 -0.721929,-0.7147591 0.71955097,0.71955097 0 0 1 0.712353,-0.724303 0.71955097,0.71955097 0 0 1 0.726669,0.7099395" />
  <path
     style="color:#232629;fill:#1fb65f;fill-opacity:1;stroke:#1fb65f;stroke-width:0.703306;stroke-dasharray:none;stroke-opacity:1"
     d="m 19.572094,13.697382 -4.591355,4.545551 -1.749646,-1.732033 -0.436822,0.433304 1.74847,1.730857 0.437998,0.433304 0.655238,-0.649372 4.372939,-4.328315 z"
     class="ColorScheme-Text"
     id="path2002" />
</svg>
