<svg version="1.1" viewBox="0 0 22 330" xmlns="http://www.w3.org/2000/svg">
    <defs>
        <style id="current-color-scheme" type="text/css">.ColorScheme-Text {
        color:#232629;
      }</style>
    </defs>
    <g transform="translate(-421.71426,-369.79071)" fill="currentColor">
        <path class="ColorScheme-Text" d="m432.71426 372.79133c-0.67521 4e-3 -1.34721 0.093-2 0.26562v1.04493c-0.45619 0.13639-0.89728 0.31898-1.31641 0.54492l-0.74023-0.74023c-1.16695 0.68805-2.14007 1.66117-2.82812 2.82812l0.74023 0.74024c-0.22661 0.41904-0.40985 0.86013-0.54688 1.3164h-1.04882c-0.17062 0.65304-0.2579 1.32505-0.25977 2 4e-3 0.67521 0.093 1.34721 0.26563 2h1.04492c0.13639 0.45619 0.31898 0.89728 0.54492 1.31641l-0.21875 0.21875-0.52149 0.52148c0.68805 1.16696 1.66117 2.14008 2.82813 2.82813l0.52148-0.52149 0.21875-0.21875c0.41905 0.22661 0.86014 0.40986 1.31641 0.54688v1.04882c0.65304 0.17062 1.32504 0.2579 2 0.25977 0.67496-2e-3 1.34696-0.0892 2-0.25977v-1.04882c0.45627-0.13702 0.89736-0.32027 1.31641-0.54688l0.74023 0.74024c1.16696-0.68805 2.14008-1.66117 2.82813-2.82813l-0.74024-0.74023c0.22594-0.41913 0.40853-0.86022 0.54492-1.31641h1.04493c0.17263-0.65279 0.26162-1.32479 0.26562-2-2e-3 -0.67495-0.0892-1.34696-0.25977-2h-1.04882c-0.13702-0.45627-0.32027-0.89736-0.54688-1.31641l0.21875-0.21875 0.52149-0.52148c-0.68805-1.16695-1.66118-2.14008-2.82813-2.82813l-0.73242 0.73243-8e-3 8e-3c-0.41914-0.22594-0.86023-0.40853-1.31642-0.54492v-1.04493c-0.65279-0.17263-1.32479-0.26162-2-0.26562zm0 1c0.33491 1e-3 0.66956 0.0274 1 0.0762v1.00977c0.89056 0.15268 1.73514 0.50454 2.4707 1.02929l0.0645-0.0644 0.65239-0.65239c0.53734 0.40067 1.01395 0.87581 1.41602 1.41211l-0.71689 0.71689c0.5229 0.73665 0.87274 1.58189 1.02339 2.47265h1.01561c0.0483 0.33106 0.0737 0.66455 0.0742 1-1e-3 0.33491-0.0274 0.66955-0.0762 1h-1.00977c-0.15269 0.89056-0.50454 1.73514-1.02929 2.4707l0.0644 0.0645 0.65239 0.65239c-0.40067 0.53734-0.87581 1.01396-1.41211 1.41602l-0.71689-0.71689c-0.73671 0.52289-1.58195 0.87274-2.47271 1.02339v1.01562c-0.33106 0.0483-0.66455 0.0737-1 0.0742-0.33545-4.9e-4 -0.66894-0.0259-1-0.0742v-1.01562c-0.89076-0.15065-1.736-0.5005-2.47266-1.02344l-0.71689 0.71689c-0.53629-0.40205-1.01143-0.87867-1.4121-1.41601l0.65239-0.65239 0.0645-0.0644c-0.52475-0.73552-0.87661-1.5801-1.02929-2.47066h-1.00977c-0.0488-0.33045-0.075-0.66509-0.0762-1 5e-4 -0.33545 0.0259-0.66894 0.0742-1h1.01562c0.15065-0.89076 0.50049-1.736 1.02344-2.47266l-0.71689-0.71689c0.40207-0.53629 0.87868-1.01143 1.41602-1.4121l0.65239 0.65239 0.0645 0.0644c0.73557-0.52475 1.58015-0.87661 2.47071-1.02929v-1.00977c0.33044-0.0488 0.66509-0.075 1-0.0762z" fill="currentColor"/>
        <path class="ColorScheme-Text" d="m433.13295 394.8021c-0.6745-0.0313-1.35023 0.0224-2.01116 0.16059l-0.0547 1.0435c-0.4627 0.11232-0.91274 0.27158-1.34313 0.47527l-0.70047-0.77795c-1.20136 0.62603-2.22408 1.54689-2.97226 2.67623l0.70048 0.77797c-0.24823 0.4066-0.45431 0.8375-0.61503 1.28597l-1.04738-0.0549c-0.20456 0.64321-0.32689 1.30974-0.36409 1.98366-0.0313 0.6745 0.0224 1.35023 0.1606 2.01116l1.04349 0.0547c0.11232 0.4627 0.27158 0.91274 0.47527 1.34313l-0.2299 0.207-0.54806 0.49347c0.62603 1.20137 1.54689 2.22409 2.67624 2.97227l0.54806-0.49349 0.2299-0.207c0.40661 0.24823 0.83751 0.45432 1.28598 0.61503l-0.0549 1.04738c0.64321 0.20456 1.30973 0.32689 1.98366 0.36409 0.67414 0.0333 1.34978-0.0186 2.01086-0.15475l0.0549-1.04738c0.46281-0.11295 0.91289-0.27287 1.34323-0.47723l0.70047 0.77796c1.20137-0.62603 2.22409-1.54689 2.97227-2.67624l-0.70049-0.77796c0.24757-0.40673 0.45299-0.83766 0.61307-1.28608l1.0435 0.0547c0.20656-0.64287 0.33059-1.30929 0.36993-1.98336 0.0333-0.67413-0.0186-1.34978-0.15475-2.01086l-1.04738-0.0549c-0.11295-0.46281-0.27287-0.91289-0.47723-1.34323l0.2299-0.207 0.54806-0.49347c-0.62603-1.20136-1.5469-2.22409-2.67624-2.97227l-0.76975 0.6931-8e-3 8e-3c-0.40675-0.24757-0.83768-0.45299-1.2861-0.61307l0.0547-1.0435c-0.64287-0.20656-1.30929-0.33059-1.98336-0.36993zm-0.0523 0.99863c0.3344 0.0185 0.66721 0.0624 0.99464 0.12843l-0.0528 1.00839c0.88134 0.19908 1.70635 0.59466 2.41344 1.15719l0.0678-0.0609 0.68354-0.61546 2e-3 -2e-3c0.51564 0.42824 0.96673 0.92767 1.34018 1.48428l-4e-3 4e-3 -0.68353 0.61546-0.0657 0.0591c0.48363 0.76301 0.78876 1.6254 0.89258 2.52282l1.01422 0.0532c0.0309 0.33314 0.0388 0.6675 0.0218 1.00252-0.0185 0.3344-0.0624 0.6672-0.12843 0.99464l-1.00839-0.0529c-0.19909 0.88135-0.59466 1.70636-1.15718 2.41345l0.0609 0.0678 0.61546 0.68354 2e-3 2e-3c-0.42825 0.51563-0.92768 0.96673-1.48429 1.34017l-4e-3 -4e-3 -0.61546-0.68354-0.0591-0.0657c-0.76306 0.48361-1.62545 0.78875-2.52288 0.89257l-0.0531 1.01423c-0.33314 0.0309-0.6675 0.0388-1.00251 0.0218-0.33497-0.018-0.66667-0.0609-0.99475-0.12643l0.0532-1.01423c-0.88165-0.19706-1.70742-0.59067-2.41571-1.15145l-0.0657 0.0591-0.68354 0.61546-4e-3 4e-3c-0.51452-0.42956-0.96406-0.9304-1.33606-1.48797l2e-3 -2e-3 0.68354-0.61546 0.0678-0.0609c-0.48553-0.76197-0.79271-1.62381-0.89857-2.52114l-1.00839-0.0529c-0.0314-0.33255-0.0401-0.6681-0.0238-1.00262 0.0181-0.33496 0.0609-0.66666 0.12644-0.99474l1.01422 0.0532c0.19707-0.88165 0.59066-1.70743 1.15145-2.41571l-0.0591-0.0657-0.61546-0.68354-4e-3 -4e-3c0.42959-0.51452 0.93041-0.96406 1.48799-1.33606l2e-3 2e-3 0.61546 0.68354 0.061 0.0677c0.76202-0.48554 1.62386-0.79271 2.52119-0.89858l0.0528-1.00838c0.33254-0.0314 0.6681-0.0401 1.00262-0.0238z" fill="currentColor"/>
        <path class="ColorScheme-Text" d="m433.55052 416.83512c-0.67194-0.0666-1.34955-0.0483-2.01681 0.0551l-0.10924 1.0392c-0.46794 0.088-0.9257 0.22344-1.36616 0.40433l-0.65879-0.81354c-1.23248 0.56229-2.30199 1.42837-3.10825 2.517l0.6588 0.81357c-0.26917 0.39305-0.49752 0.81257-0.68149 1.25202l-1.04307-0.10965c-0.23794 0.63163-0.39499 1.29084-0.46741 1.96189-0.0666 0.67194-0.0483 1.34955 0.0551 2.01681l1.03919 0.10924c0.0879 0.46794 0.22344 0.9257 0.40433 1.36616l-0.24042 0.19468-0.57314 0.46411c0.5623 1.23249 1.42837 2.302 2.51702 3.10827l0.57314-0.46414 0.24041-0.19468c0.39307 0.26917 0.81259 0.49753 1.25203 0.68149l-0.10964 1.04307c0.63163 0.23794 1.29083 0.39499 1.96189 0.46741 0.67147 0.0685 1.3489 0.0521 2.0162-0.0493l0.10964-1.04307c0.46809-0.0886 0.92592-0.22472 1.36637-0.40628l0.65879 0.81356c1.23249-0.5623 2.302-1.42837 3.10826-2.51702l-0.65881-0.81355c0.26852-0.39322 0.49621-0.81281 0.67954-1.25223l1.0392 0.10923c0.23993-0.63118 0.39866-1.29019 0.47323-1.96128 0.0685-0.67146 0.0521-1.3489-0.0493-2.0162l-1.04307-0.10964c-0.0886-0.46809-0.22472-0.92592-0.40628-1.36637l0.24042-0.19468 0.57314-0.46411c-0.5623-1.23248-1.42838-2.302-2.51702-3.10826l-0.80497 0.65186-8e-3 8e-3c-0.39323-0.26852-0.81282-0.49621-1.25225-0.67954l0.10924-1.0392c-0.63118-0.23993-1.29019-0.39866-1.96128-0.47323zm-0.10449 0.99453c0.33297 0.036 0.66303 0.0972 0.98655 0.18031l-0.1055 1.00424c0.86971 0.24493 1.67289 0.68315 2.34957 1.28192l0.0709-0.0573 0.71482-0.57885 2e-3 -2e-3c0.49252 0.45464 0.91686 0.977 1.26066 1.55239l-4e-3 4e-3 -0.71481 0.57885-0.0687 0.0556c0.44304 0.78727 0.70261 1.66445 0.75932 2.56607l1.01005 0.10621c0.0134 0.3343 4e-3 0.66862-0.0307 1.00229-0.036 0.33297-0.0972 0.66302-0.18031 0.98655l-1.00424-0.1056c-0.24494 0.86972-0.68315 1.6729-1.2819 2.34958l0.0573 0.0709 0.57884 0.71482 2e-3 2e-3c-0.45465 0.49251-0.977 0.91685-1.55239 1.26065l-4e-3 -4e-3 -0.57884-0.71482-0.0556-0.0687c-0.78733 0.44301-1.6645 0.7026-2.56614 0.75931l-0.1061 1.01006c-0.33431 0.0134-0.66862 4e-3 -1.00228-0.0307-0.33357-0.0355-0.66257-0.0957-0.98677-0.17831l0.10621-1.01006c-0.87013-0.24293-1.67417-0.67922-2.35214-1.2763l-0.0687 0.0556-0.71482 0.57884-4e-3 4e-3c-0.49134-0.4559-0.91405-0.97958-1.25636-1.55586l2e-3 -2e-3 0.71481-0.57884 0.0709-0.0573c-0.44498-0.78634-0.70664-1.66307-0.76539-2.56471l-1.00424-0.1056c-0.0139-0.33374-5e-3 -0.66929 0.0287-1.0025 0.0356-0.33355 0.0957-0.66256 0.17833-0.98676l1.01004 0.10621c0.24294-0.87013 0.67921-1.67418 1.2763-2.35214l-0.0556-0.0687-0.57884-0.71481-4e-3 -4e-3c0.45593-0.49133 0.97959-0.91404 1.55588-1.25635l2e-3 2e-3 0.57884 0.71482 0.0574 0.0708c0.78638-0.445 1.66312-0.70664 2.56476-0.7654l0.1055-1.00424c0.33373-0.014 0.66928-5e-3 1.00249 0.0287z" fill="currentColor"/>
        <path class="ColorScheme-Text" d="m433.96583 438.88997c-0.66753-0.10167-1.34517-0.11886-2.01693-0.0505l-0.16348 1.03206c-0.4719 0.0634-0.93612 0.17469-1.38545 0.33228l-0.61531-0.8469c-1.26022 0.49701-2.37359 1.30593-3.23572 2.35087l0.61532 0.84694c-0.28937 0.37842-0.53936 0.78542-0.74608 1.21464l-1.0359-0.16409c-0.27067 0.61831-0.46201 1.26839-0.56945 1.93473-0.10167 0.66754-0.11886 1.34518-0.0505 2.01693l1.03205 0.16348c0.0633 0.4719 0.17469 0.93613 0.33228 1.38545l-0.25028 0.18183-0.59664 0.43348c0.49702 1.26023 1.30593 2.3736 2.35089 3.23574l0.59665-0.43351 0.25027-0.18183c0.37844 0.28937 0.78543 0.53938 1.21464 0.74608l-0.16408 1.03591c0.61832 0.27067 1.26839 0.462 1.93474 0.56944 0.66697 0.10355 1.34433 0.12263 2.01602 0.0563l0.16408-1.0359c0.47209-0.064 0.93641-0.17596 1.38576-0.33422l0.61531 0.84693c1.26023-0.49703 2.3736-1.30594 3.23573-2.3509l-0.61533-0.84691c0.28873-0.37863 0.53807-0.78573 0.74415-1.21495l1.03206 0.16346c0.27263-0.61775 0.46563-1.26755 0.57522-1.93382 0.10355-0.66696 0.12263-1.34433 0.0563-2.01602l-1.0359-0.16408c-0.064-0.47208-0.17596-0.93641-0.33422-1.38576l0.25028-0.18183 0.59665-0.43348c-0.49703-1.26022-1.30595-2.3736-2.3509-3.23573l-0.83798 0.60884-8e-3 8e-3c-0.37864-0.28873-0.78574-0.53807-1.21497-0.74415l0.16348-1.03205c-0.61776-0.27264-1.26756-0.46564-1.93383-0.57523zm-0.1564 0.9877c0.33063 0.0534 0.65704 0.13177 0.97576 0.2317l-0.15791 0.99734c0.8557 0.29011 1.63484 0.76976 2.27926 1.40313l0.0738-0.0535 0.74414-0.54065 2e-3 -2e-3c0.46805 0.47979 0.86447 1.02364 1.17768 1.61624l-4e-3 4e-3 -0.74412 0.54065-0.0715 0.0519c0.40123 0.80938 0.61454 1.69894 0.62398 2.60229l1.00311 0.15893c-4e-3 0.33454-0.031 0.66791-0.0831 0.99931-0.0534 0.33063-0.13177 0.65702-0.2317 0.97576l-0.99734-0.15801c-0.29012 0.8557-0.76976 1.63485-1.40311 2.27927l0.0535 0.0738 0.54064 0.74413 2e-3 2e-3c-0.4798 0.46805-1.02364 0.86447-1.61624 1.17768l-4e-3 -4e-3 -0.54064-0.74414-0.0519-0.0715c-0.80943 0.40119-1.69899 0.61452-2.60236 0.62396l-0.15882 1.00313c-0.33455-4e-3 -0.66791-0.031-0.9993-0.0831-0.33125-0.0529-0.65665-0.13024-0.97608-0.2297l0.15892-1.00312c-0.85622-0.28814-1.63632-0.76591-2.28212-1.39765l-0.0715 0.0519-0.74414 0.54064-4e-3 4e-3c-0.46681-0.48099-0.86153-1.02608-1.17321-1.61949l2e-3 -2e-3 0.74413-0.54063 0.0738-0.0535c-0.40322-0.80855-0.61864-1.69777-0.63012-2.60125l-0.99733-0.15801c4e-3 -0.33401 0.03-0.66864 0.0811-0.99962 0.053-0.33123 0.13025-0.65665 0.22973-0.97608l1.0031 0.15893c0.28815-0.85623 0.7659-1.63634 1.39765-2.28212l-0.0519-0.0715-0.54063-0.74412-4e-3 -4e-3c0.48102-0.46679 1.02609-0.86152 1.6195-1.1732l2e-3 2e-3 0.54064 0.74414 0.0536 0.0737c0.80859-0.40324 1.69782-0.61863 2.6013-0.63013l0.15791-0.99734c0.33401 3e-3 0.66863 0.03 0.99962 0.0811z" fill="currentColor"/>
        <path class="ColorScheme-Text" d="m434.37774 460.96636c-0.66129-0.13647-1.3371-0.1891-2.01152-0.15599l-0.21727 1.02209c-0.47457 0.0386-0.94398 0.12546-1.40094 0.25932l-0.57015-0.87795c-1.2845 0.43038-2.43868 1.17992-3.35432 2.17831l0.57015 0.87798c-0.30877 0.36276-0.57972 0.75612-0.80862 1.17393l-1.0259-0.21808c-0.30265 0.6033-0.52775 1.24247-0.66992 1.90227-0.13647 0.66131-0.1891 1.33712-0.15599 2.01153l1.02208 0.21727c0.0385 0.47456 0.12546 0.94399 0.25932 1.40094l-0.25946 0.16848-0.61851 0.40166c0.43039 1.28451 1.17992 2.43869 2.17833 3.35434l0.61852-0.40169 0.25944-0.16848c0.36278 0.30878 0.75612 0.57975 1.17393 0.80863l-0.21807 1.0259c0.60331 0.30266 1.24247 0.52775 1.90228 0.66992 0.66064 0.13831 1.33607 0.19281 2.01032 0.16173l0.21807-1.02589c0.47479-0.0392 0.94433-0.12672 1.40135-0.26124l0.57014 0.87797c1.28451-0.43039 2.43869-1.17992 3.35433-2.17833l-0.57016-0.87796c0.30815-0.363 0.57845-0.75649 0.80671-1.17433l1.0221 0.21725c0.30458-0.60264 0.53133-1.24145 0.67564-1.90107 0.13831-0.66063 0.19281-1.33607 0.16173-2.01031l-1.02589-0.21807c-0.0392-0.47478-0.12672-0.94434-0.26124-1.40135l0.25945-0.16849 0.61852-0.40166c-0.43039-1.2845-1.17993-2.43869-2.17833-3.35433l-0.8687 0.56415-8e-3 8e-3c-0.36301-0.30815-0.7565-0.57845-1.17436-0.80671l0.21727-1.02208c-0.60264-0.3046-1.24145-0.53135-1.90107-0.67565zm-0.20788 0.97816c0.32739 0.0706 0.64925 0.16598 0.9623 0.28245l-0.20989 0.98771c0.83934 0.33449 1.59231 0.85426 2.2027 1.52049l0.0765-0.0496 0.77142-0.50097 2e-3 -2e-3c0.4423 0.50363 0.80971 1.06748 1.09148 1.67566l-4e-3 4e-3 -0.77139 0.50096-0.0741 0.0481c0.35832 0.82927 0.52478 1.72877 0.48693 2.63138l0.99342 0.21121c-0.0215 0.33387-0.0659 0.66537-0.13529 0.99359-0.0706 0.32738-0.16597 0.64922-0.28245 0.9623l-0.9877-0.20999c-0.33451 0.83934-0.85427 1.59232-1.52048 2.20271l0.0496 0.0765 0.50095 0.7714 2e-3 2e-3c-0.50363 0.44229-1.06748 0.80971-1.67566 1.09148l-4e-3 -4e-3 -0.50095-0.77141-0.0481-0.0741c-0.82932 0.35828-1.72882 0.52476-2.63145 0.48691l-0.2111 0.99344c-0.33388-0.0215-0.66537-0.0659-0.99358-0.13529-0.32803-0.0702-0.64894-0.16442-0.96272-0.28047l0.2112-0.99342c-0.83997-0.33256-1.594-0.8505-2.20585-1.51517l-0.0741 0.0481-0.77141 0.50096-4e-3 4e-3c-0.44099-0.50476-0.80664-1.06976-1.08684-1.67867l2e-3 -2e-3 0.77141-0.50095 0.0765-0.0496c-0.36036-0.82855-0.52894-1.72782-0.49312-2.63066l-0.9877-0.20999c0.0215-0.33335 0.065-0.66616 0.13331-0.99401 0.0703-0.328 0.16444-0.64893 0.2805-0.96272l0.99341 0.21121c0.33256-0.83997 0.85049-1.59401 1.51517-2.20584l-0.0481-0.0741-0.50094-0.7714-4e-3 -4e-3c0.50479-0.44098 1.06977-0.80664 1.67868-1.08683l2e-3 2e-3 0.50096 0.77141 0.0497 0.0764c0.82858-0.36037 1.72787-0.52893 2.63071-0.49313l0.20989-0.98771c0.3334 0.0205 0.66614 0.0649 0.99401 0.13331z" fill="currentColor"/>
        <path class="ColorScheme-Text" d="m434.78512 483.06421c-0.65324-0.17089-1.32537-0.25882-2.0006-0.26105l-0.27046 1.00931c-0.47594 0.0137-0.94925 0.0759-1.41259 0.18565l-0.52342-0.90659c-1.30527 0.36257-2.49709 1.05068-3.46373 1.99978l0.52342 0.90661c-0.32733 0.34611-0.6185 0.72475-0.86895 1.13l-1.01308-0.27147c-0.33381 0.58664-0.59205 1.21315-0.76856 1.8646-0.17089 0.65326-0.25882 1.32539-0.26105 2.00061l1.00931 0.27047c0.0136 0.47592 0.0759 0.94926 0.18564 1.41259l-0.26792 0.15467-0.63868 0.36874c0.36257 1.30527 1.05067 2.4971 1.99979 3.46375l0.63869-0.36877 0.2679-0.15467c0.34613 0.32734 0.72475 0.61852 1.13001 0.86896l-0.27147 1.01308c0.58665 0.33382 1.21315 0.59205 1.86461 0.76856 0.6525 0.17269 1.32415 0.26247 1.99911 0.26672l0.27146-1.01307c0.47619-0.0143 0.94967-0.0771 1.4131-0.18754l0.52341 0.9066c1.30527-0.36257 2.4971-1.05067 3.46374-1.99979l-0.52343-0.9066c0.32672-0.34637 0.61725-0.72518 0.86706-1.1305l1.00933 0.27045c0.3357-0.58588 0.59557-1.21195 0.77421-1.86311 0.17269-0.65248 0.26247-1.32415 0.26672-1.99909l-1.01307-0.27146c-0.0143-0.47618-0.0771-0.94968-0.18754-1.4131l0.26791-0.15468 0.63869-0.36874c-0.36257-1.30527-1.05068-2.4971-1.99979-3.46374l-0.89704 0.51791-8e-3 8e-3c-0.34639-0.32672-0.72519-0.61725-1.13053-0.86706l0.27046-1.00931c-0.58587-0.33572-1.21194-0.5956-1.8631-0.77422zm-0.25878 0.96594c0.32324 0.0876 0.63967 0.19973 0.94619 0.33242l-0.26129 0.97537c0.82068 0.37796 1.54542 0.93643 2.1201 1.63369l0.079-0.0455 0.79659-0.45991 2e-3 -2e-3c0.41533 0.52609 0.75273 1.10839 1.00229 1.73049l-4e-3 4e-3 -0.79655 0.4599-0.0765 0.0442c0.31443 0.84689 0.43359 1.75387 0.34855 2.65326l0.98101 0.26291c-0.0389 0.33229-0.10064 0.66101-0.18711 0.98515-0.0876 0.32323-0.19972 0.63964-0.33242 0.9462l-0.97536-0.2614c-0.37798 0.82069-0.93644 1.54543-1.63368 2.12012l0.0455 0.079 0.45989 0.79656 2e-3 2e-3c-0.52608 0.41533-1.10839 0.75273-1.73048 1.00229l-4e-3 -4e-3 -0.45989-0.79657-0.0442-0.0765c-0.84693 0.31438-1.75391 0.43356-2.65332 0.34852l-0.26281 0.98103c-0.33229-0.0389-0.661-0.10063-0.98513-0.1871-0.32391-0.0873-0.63945-0.19816-0.94672-0.33047l0.2629-0.98101c-0.82142-0.37606-1.54731-0.93276-2.12353-1.62854l-0.0765 0.0442-0.79657 0.4599-4e-3 4e-3c-0.41397-0.52714-0.74955-1.11051-0.9975-1.73325l2e-3 -2e-3 0.79657-0.45989 0.079-0.0455c-0.31651-0.84627-0.43779-1.75313-0.35477-2.65286l-0.97536-0.26139c0.0389-0.33177 0.0998-0.66185 0.18515-0.98568 0.0874-0.32387 0.19818-0.63943 0.3305-0.94672l0.981 0.26292c0.37606-0.82142 0.93275-1.54732 1.62854-2.12352l-0.0442-0.0765-0.45988-0.79656-4e-3 -4e-3c0.52718-0.41396 1.11052-0.74955 1.73326-0.99749l2e-3 2e-3 0.4599 0.79657 0.0456 0.0789c0.8463-0.31651 1.75318-0.43777 2.65291-0.35477l0.2613-0.97537c0.33187 0.0379 0.66183 0.0997 0.98567 0.18515z" fill="currentColor"/>
        <path class="ColorScheme-Text" d="m435.18686 505.18302c-0.6434-0.20484-1.31001-0.32783-1.9842-0.3654l-0.32291 0.99378c-0.47601-0.0112-0.95192 0.0261-1.42037 0.11146l-0.47526-0.93274c-1.32245 0.29376-2.54865 0.91855-3.56364 1.81576l0.47525 0.93276c-0.34499 0.32851-0.65558 0.69139-0.9269 1.08298l-0.99748-0.32412c-0.36405 0.56837-0.65473 1.1805-0.86509 1.82182-0.20485 0.64342-0.32783 1.31003-0.3654 1.98421l0.99377 0.32292c-0.0113 0.47598 0.0261 0.95193 0.11146 1.42037l-0.27565 0.14044-0.6571 0.3348c0.29376 1.32246 0.91854 2.54867 1.81577 3.56367l0.65711-0.33484 0.27563-0.14044c0.32853 0.34501 0.69139 0.65561 1.08299 0.92691l-0.32412 0.99749c0.56837 0.36406 1.1805 0.65473 1.82183 0.86509 0.64257 0.2066 1.3086 0.33141 1.98241 0.37098l0.32411-0.99748c0.47628 0.0106 0.9524-0.0273 1.42098-0.11332l0.47524 0.93275c1.32246-0.29376 2.54867-0.91854 3.56365-1.81577l-0.47526-0.93275c0.3444-0.3288 0.65436-0.69189 0.92504-1.08358l0.99379 0.32291c0.3659-0.56751 0.65818-1.17912 0.87066-1.82004 0.2066-0.64255 0.33141-1.3086 0.37098-1.98239l-0.99748-0.32411c0.0106-0.47628-0.0273-0.95241-0.11333-1.42098l0.27564-0.14045 0.65712-0.3348c-0.29377-1.32246-0.91856-2.54867-1.81578-3.56366l-0.92291 0.47026-8e-3 8e-3c-0.32882-0.34441-0.69189-0.65436-1.0836-0.92504l0.32291-0.99378c-0.5675-0.36592-1.17911-0.65821-1.82003-0.87066zm-0.30898 0.95107c0.31821 0.1044 0.62834 0.23294 0.92749 0.38149l-0.31198 0.96036c0.79978 0.42039 1.4943 1.01602 2.0317 1.7424l0.0813-0.0413 0.81957-0.41759 2e-3 -2e-3c0.38723 0.5471 0.69369 1.14627 0.91035 1.78057l-4e-3 4e-3 -0.81953 0.41758-0.0787 0.0401c0.26968 0.86218 0.34121 1.77415 0.20921 2.66786l0.96591 0.31389c-0.0562 0.3298-0.1351 0.65484-0.23841 0.97401-0.1044 0.3182-0.23293 0.62831-0.38149 0.92751l-0.96034-0.31209c-0.42042 0.79978-1.01604 1.4943-1.7424 2.03171l0.0413 0.0813 0.41757 0.81953 2e-3 2e-3c-0.5471 0.38723-1.14627 0.69369-1.78057 0.91035l-4e-3 -4e-3 -0.41757-0.81955-0.0401-0.0787c-0.86222 0.26962-1.7742 0.34117-2.66792 0.20917l-0.3138 0.96593c-0.3298-0.0562-0.65482-0.13508-0.97398-0.2384-0.3189-0.10413-0.62821-0.23135-0.92813-0.37956l0.31388-0.96591c-0.80061-0.41853-1.49637-1.01246-2.03539-1.73744l-0.0787 0.0401-0.81954 0.41758-4e-3 4e-3c-0.38581-0.54808-0.6904-1.14822-0.90542-1.78308l2e-3 -2e-3 0.81955-0.41757 0.0813-0.0413c-0.27178-0.86167-0.34544-1.77364-0.21544-2.66779l-0.96035-0.31208c0.0562-0.32928 0.13431-0.65572 0.23649-0.97464 0.10423-0.31885 0.23137-0.62818 0.37959-0.92812l0.9659 0.3139c0.41853-0.80061 1.01245-1.49638 1.73744-2.03538l-0.0401-0.0787-0.41756-0.81953-4e-3 -4e-3c0.54812-0.3858 1.14823-0.6904 1.78309-0.90541l2e-3 2e-3 0.41758 0.81955 0.0414 0.0812c0.86171-0.27179 1.77369-0.34542 2.66784-0.21544l0.31199-0.96036c0.32943 0.0552 0.65571 0.1342 0.97463 0.23648z" fill="currentColor"/>
        <path class="ColorScheme-Text" d="m435.58182 527.32253c-0.6318-0.23824-1.29106-0.39594-1.96236-0.46875l-0.37448 0.97552c-0.47477-0.0361-0.95198-0.0238-1.42425 0.037l-0.4258-0.95633c-1.33601 0.22414-2.59323 0.7839-3.65378 1.62676l0.42578 0.95636c-0.36171 0.31-0.69087 0.65613-0.98231 1.03298l-0.97915-0.37588c-0.3933 0.54854-0.71561 1.14462-0.95925 1.77405-0.23824 0.63182-0.39594 1.29108-0.46874 1.96237l0.9755 0.37448c-0.0362 0.47474-0.0238 0.952 0.037 1.42426l-0.28262 0.12582-0.67372 0.29995c0.22414 1.33603 0.78389 2.59325 1.62677 3.65382l0.67374-0.29999 0.2826-0.12582c0.31002 0.36173 0.65613 0.69089 1.03299 0.98232l-0.37588 0.97916c0.54854 0.3933 1.14462 0.71561 1.77406 0.95925 0.63088 0.23994 1.28946 0.39944 1.96028 0.47422l0.37587-0.97915c0.47507 0.0355 0.95252 0.0226 1.42496-0.0388l0.42577 0.95635c1.33603-0.22415 2.59325-0.7839 3.6538-1.62678l-0.42579-0.95634c0.36113-0.31033 0.68967-0.6567 0.98048-1.03368l0.97553 0.37447c0.3951-0.54758 0.71899-1.14305 0.96472-1.77197 0.23995-0.63086 0.39944-1.28947 0.47422-1.96026l-0.97915-0.37587c0.0355-0.47507 0.0226-0.95254-0.0388-1.42497l0.28261-0.12583 0.67374-0.29995c-0.22416-1.33602-0.78391-2.59325-1.62678-3.6538l-0.94626 0.42131-8e-3 8e-3c-0.31034-0.36115-0.65669-0.68967-1.0337-0.98048l0.37448-0.97552c-0.54757-0.39512-1.14305-0.71902-1.77197-0.96472zm-0.35833 0.93359c0.31231 0.12091 0.61528 0.26551 0.90625 0.42951l-0.36181 0.94272c0.77668 0.46167 1.43907 1.09283 1.93772 1.84634l0.0833-0.037 0.8403-0.37412 2e-3 -2e-3c0.35807 0.56662 0.63275 1.18101 0.81592 1.82578l-4e-3 4e-3 -0.84027 0.37412-0.0807 0.0359c0.22419 0.87511 0.24789 1.78957 0.0693 2.67515l0.94816 0.36401c-0.0734 0.32641-0.16919 0.64687-0.28906 0.9602-0.12091 0.3123-0.26549 0.61526-0.42951 0.90627l-0.94269-0.36192c-0.4617 0.77668-1.09285 1.43908-1.84634 1.93773l0.037 0.0833 0.3741 0.84027 2e-3 2e-3c-0.56662 0.35806-1.18101 0.63275-1.82578 0.81591l-4e-3 -4e-3 -0.37411-0.84028-0.0359-0.0807c-0.87514 0.22412-1.78962 0.24784-2.67521 0.0692l-0.36392 0.94819c-0.32641-0.0734-0.64685-0.16917-0.96017-0.28905-0.31301-0.12068-0.61524-0.26391-0.90699-0.42762l0.364-0.94816c-0.77761-0.45985-1.44133-1.08938-1.94167-1.84158l-0.0807 0.0359-0.84027 0.37411-4e-3 4e-3c-0.3566-0.56752-0.62937-1.18278-0.81086-1.82802l2e-3 -2e-3 0.84028-0.3741 0.0833-0.037c-0.22631-0.87471-0.25214-1.78929-0.0755-2.67541l-0.9427-0.36191c0.0734-0.32589 0.16845-0.64779 0.28718-0.96093 0.12077-0.31296 0.26393-0.61521 0.42764-0.90698l0.94815 0.36402c0.45986-0.77761 1.08938-1.44134 1.84158-1.94166l-0.0359-0.0807-0.3741-0.84026-4e-3 -4e-3c0.56756-0.35658 1.18279-0.62936 1.82804-0.81084l2e-3 2e-3 0.37411 0.84028 0.0371 0.0832c0.87475-0.22632 1.78934-0.25212 2.67546-0.0755l0.36182-0.94271c0.32609 0.0724 0.64779 0.16833 0.96092 0.28716z" fill="currentColor"/>
        <path class="ColorScheme-Text" d="m435.96892 549.48235c-0.61847-0.27098-1.26857-0.46297-1.93514-0.57081l-0.42502 0.95458c-0.47223-0.0609-0.94943-0.0736-1.42424-0.0376l-0.37516-0.9773c-1.34591 0.15391-2.6307 0.64711-3.73391 1.43331l0.37514 0.97733c-0.37744 0.29064-0.72426 0.61907-1.03502 0.98015l-0.95814-0.42661c-0.42147 0.52721-0.77453 1.1056-1.05078 1.72142-0.27098 0.61849-0.46297 1.26859-0.5708 1.93515l0.95456 0.42502c-0.061 0.47219-0.0736 0.94945-0.0376 1.42424l-0.28882 0.11086-0.68849 0.26428c0.15391 1.34593 0.64709 2.63072 1.43331 3.73395l0.68852-0.26432 0.2888-0.11086c0.29066 0.37746 0.61907 0.72429 0.98016 1.03504l-0.42661 0.95815c0.52721 0.42147 1.1056 0.77453 1.72143 1.05078 0.61745 0.27263 1.26678 0.46638 1.93277 0.57616l0.4266-0.95813c0.47256 0.0603 0.95003 0.0724 1.42504 0.0358l0.37513 0.97732c1.34593-0.15392 2.63073-0.64711 3.73394-1.43333l-0.37516-0.97731c0.37688-0.291 0.72309-0.61971 1.03323-0.98095l0.9546 0.42501c0.42322-0.52615 0.77783-1.10385 1.05613-1.71905 0.27264-0.61744 0.46638-1.2668 0.57617-1.93275l-0.95814-0.4266c0.0603-0.47256 0.0724-0.95006 0.0358-1.42505l0.28881-0.11087 0.68851-0.26428c-0.15393-1.34592-0.64711-2.63072-1.43332-3.73393l-0.96701 0.37121-8e-3 8e-3c-0.29102-0.3769-0.6197-0.72309-0.98097-1.03323l0.42502-0.95459c-0.52614-0.42323-1.10385-0.77786-1.71905-1.05613zm-0.4067 0.91356c0.30555 0.13709 0.60054 0.29734 0.88253 0.47635l-0.41065 0.92249c0.75145 0.50169 1.3799 1.16665 1.83843 1.94522l0.0851-0.0326 0.85873-0.32963 2e-3 -2e-3c0.32793 0.58458 0.57008 1.21251 0.71925 1.86598l-4e-3 4e-3 -0.8587 0.32963-0.0825 0.0316c0.17808 0.88565 0.15389 1.80009-0.0708 2.67511l0.92781 0.41314c-0.0904 0.32212-0.20281 0.63713-0.33892 0.94375-0.13709 0.30555-0.29733 0.60053-0.47635 0.88255l-0.92246-0.41076c-0.50171 0.75145-1.16667 1.37992-1.94522 1.83845l0.0326 0.0851 0.32961 0.8587 2e-3 2e-3c-0.58458 0.32791-1.2125 0.57007-1.86598 0.71924l-4e-3 -4e-3 -0.32962-0.8587-0.0316-0.0825c-0.88567 0.17801-1.80014 0.15384-2.67516-0.0709l-0.41305 0.92785c-0.32212-0.0904-0.63711-0.20279-0.94373-0.33891-0.30626-0.13689-0.60058-0.29575-0.88336-0.4745l0.41312-0.92781c-0.75248-0.49992-1.38234-1.16332-1.84263-1.94068l-0.0825 0.0316-0.85869 0.32962-4e-3 4e-3c-0.32641-0.58541-0.5666-1.2141-0.71408-1.86795l2e-3 -2e-3 0.8587-0.32961 0.0851-0.0326c-0.18022-0.88535-0.15815-1.80003 0.0646-2.67569l-0.92247-0.41075c0.0904-0.32161 0.20212-0.63809 0.33708-0.94459 0.13698-0.30621 0.29577-0.60055 0.47452-0.88335l0.9278 0.41314c0.49993-0.75248 1.16332-1.38235 1.94068-1.84262l-0.0316-0.0825-0.32961-0.85868-4e-3 -4e-3c0.58545-0.32638 1.21411-0.56659 1.86797-0.71405l2e-3 2e-3 0.32962 0.85871 0.0327 0.085c0.8854-0.18023 1.80008-0.15812 2.67575 0.0646l0.41066-0.92248c0.32185 0.0894 0.63809 0.202 0.94457 0.33706z" fill="currentColor"/>
        <path class="ColorScheme-Text" d="m436.34695 571.66216c-0.60344-0.30297-1.2426-0.52873-1.90261-0.6713l-0.4744 0.93102c-0.46839-0.0855-0.94428-0.12318-1.42032-0.11208l-0.3235-0.9956c-1.35212 0.0833-2.66096 0.50855-3.8038 1.23593l0.32347 0.99562c-0.39213 0.27049-0.75566 0.58032-1.0849 0.92464l-0.9345-0.47617c-0.44848 0.50443-0.83133 1.06355-1.13943 1.66407-0.30298 0.60346-0.52873 1.24262-0.67129 1.90262l0.93101 0.4744c-0.0856 0.46835-0.12319 0.9443-0.11209 1.42032l-0.29423 0.0956-0.70138 0.22789c0.0833 1.35214 0.50853 2.66098 1.23593 3.80384l0.70141-0.22792 0.29421-0.0956c0.2705 0.39215 0.58031 0.75569 0.92464 1.08492l-0.47617 0.93451c0.50443 0.44848 1.06355 0.83133 1.66408 1.13943 0.60233 0.30457 1.24063 0.53204 1.89997 0.67652l0.47616-0.93449c0.46875 0.0849 0.94494 0.12202 1.42121 0.11033l0.32347 0.99562c1.35214-0.0833 2.66099-0.50855 3.80383-1.23595l-0.32349-0.99561c0.39159-0.27087 0.75453-0.58101 1.08315-0.92553l0.93105 0.47439c0.45017-0.50328 0.83453-1.06163 1.14465-1.66142 0.30458-0.60232 0.53204-1.24065 0.67653-1.89995l-0.9345-0.47616c0.0849-0.46875 0.12202-0.94497 0.11033-1.42122l0.29422-0.0956 0.7014-0.22789c-0.0833-1.35213-0.50854-2.66098-1.23594-3.80382l-0.98511 0.32009-8e-3 8e-3c-0.27089-0.39162-0.58101-0.75453-0.92555-1.08316l0.4744-0.93103c-0.50327-0.45019-1.06163-0.83457-1.66142-1.14465zm-0.45395 0.89102c0.29795 0.1529 0.58415 0.32837 0.85639 0.52189l-0.45837 0.89973c0.72416 0.54033 1.31695 1.23727 1.73411 2.03877l0.0867-0.0281 0.8748-0.28423 2e-3 -2e-3c0.29689 0.60095 0.50584 1.24069 0.62061 1.90107l-4e-3 4e-3 -0.87478 0.28424-0.084 0.0272c0.13148 0.89376 0.0595 1.80568-0.21071 2.66774l0.90492 0.46113c-0.10714 0.31695-0.23588 0.62564-0.38785 0.92472-0.15289 0.29796-0.32835 0.58415-0.52188 0.85641l-0.8997-0.45847c-0.54035 0.72416-1.23729 1.31697-2.03877 1.73412l0.0281 0.0867 0.28421 0.87477 2e-3 2e-3c-0.60094 0.29686-1.24068 0.50583-1.90107 0.62059l-4e-3 -4e-3 -0.28423-0.87478-0.0272-0.084c-0.89377 0.13142-1.80572 0.0594-2.66778-0.21081l-0.46105 0.90497c-0.31694-0.10714-0.62562-0.23586-0.9247-0.38784-0.29867-0.15273-0.58427-0.32678-0.85731-0.52008l0.46111-0.90492c-0.72528-0.53862-1.31956-1.23407-1.73854-2.03446l-0.084 0.0272-0.87476 0.28423-4e-3 4e-3c-0.29532-0.60169-0.50228-1.24209-0.61534-1.90277l2e-3 -2e-3 0.87477-0.28422 0.0867-0.0281c-0.13364-0.89357-0.0637-1.80584 0.20454-2.66864l-0.8997-0.45847c0.1071-0.31643 0.23523-0.62663 0.38605-0.92565 0.15282-0.29862 0.3268-0.58425 0.5201-0.8573l0.90491 0.46113c0.53862-0.72529 1.23407-1.31958 2.03445-1.73853l-0.0272-0.084-0.28421-0.87476-4e-3 -4e-3c0.60173-0.29529 1.2421-0.50227 1.90278-0.61531l2e-3 2e-3 0.28423 0.87479 0.0282 0.0866c0.89362-0.13364 1.80589-0.0637 2.6687 0.20455l0.45837-0.89972c0.31673 0.10612 0.62665 0.23512 0.92564 0.38603z" fill="currentColor"/>
        <path class="ColorScheme-Text" d="m436.71503 593.86249c-0.58676-0.33414-1.21323-0.59304-1.86487-0.76996l-0.52248 0.90492c-0.46327-0.1099-0.93654-0.17243-1.41251-0.18626l-0.27095-1.01117c-1.35462 0.0124-2.68392 0.36859-3.86327 1.03516l0.27092 1.01119c-0.40575 0.2496-0.78499 0.53998-1.1318 0.86659l-0.9083-0.52442c-0.47427 0.48026-0.88585 1.01858-1.22496 1.60215-0.33415 0.58678-0.59304 1.21325-0.76995 1.86488l0.90491 0.52248c-0.10999 0.46323-0.17244 0.93656-0.18627 1.41251l-0.29883 0.0801-0.71235 0.19087c0.0124 1.35464 0.36857 2.68394 1.03516 3.86331l0.71238-0.1909 0.29881-0.0801c0.24961 0.40577 0.53997 0.78502 0.86659 1.13182l-0.52442 0.90831c0.48026 0.47427 1.01858 0.88585 1.60216 1.22496 0.58557 0.33568 1.21109 0.59624 1.86196 0.77503l0.52442-0.90829c0.46366 0.10932 0.93726 0.17131 1.41349 0.18456l0.27092 1.01118c1.35464-0.0124 2.68395-0.36858 3.8633-1.03517l-0.27094-1.01118c0.40523-0.25 0.7839-0.54072 1.1301-0.86757l0.90495 0.52246c0.47589-0.47903 0.88895-1.0165 1.23003-1.59923 0.33569-0.58556 0.59624-1.21111 0.77504-1.86194l-0.9083-0.52442c0.10932-0.46366 0.17131-0.93729 0.18456-1.4135l0.29882-0.0801 0.71237-0.19087c-0.0124-1.35463-0.36858-2.68394-1.03517-3.86329l-1.00052 0.2681-8e-3 8e-3c-0.25003-0.40526-0.54073-0.78391-0.8676-1.13012l0.52248-0.90492c-0.47902-0.47592-1.0165-0.88899-1.59924-1.23004zm-0.49996 0.86604c0.28954 0.16828 0.56616 0.35849 0.8279 0.566l-0.50483 0.8745c0.69489 0.57749 1.25039 1.3045 1.62503 2.12674l0.0881-0.0235 0.88848-0.23806 2e-3 -2e-3c0.26503 0.61567 0.44022 1.26546 0.52027 1.93095l-4e-3 4e-3 -0.88845 0.23807-0.0853 0.0228c0.0845 0.89941-0.0351 1.80632-0.35004 2.65305l0.87954 0.50786c-0.12358 0.31091-0.2683 0.61244-0.43571 0.90315-0.16827 0.28955-0.35847 0.56617-0.56599 0.82793l-0.87447-0.50493c-0.57751 0.69489-1.30452 1.25041-2.12673 1.62504l0.0235 0.0881 0.23804 0.88845 2e-3 2e-3c-0.61565 0.265-1.26545 0.44021-1.93094 0.52025l-4e-3 -4e-3 -0.23806-0.88845-0.0228-0.0853c-0.89942 0.0845-1.80635-0.0352-2.65309-0.35014l-0.50778 0.8796c-0.3109-0.12358-0.61242-0.26828-0.90314-0.43571-0.29026-0.16815-0.56636-0.35691-0.82891-0.56423l0.50784-0.87955c-0.6961-0.57584-1.25317-1.30144-1.62969-2.12266l-0.0853 0.0228-0.88844 0.23806-4e-3 4e-3c-0.26343-0.61632-0.43659-1.26667-0.51492-1.93237l2e-3 -2e-3 0.88845-0.23805 0.0881-0.0235c-0.0867-0.89934 0.0309-1.8067 0.34393-2.65428l-0.87448-0.50493c0.12352-0.31039 0.26771-0.61346 0.43397-0.90417 0.16824-0.29022 0.35693-0.56635 0.56426-0.82891l0.87953 0.50786c0.57584-0.69611 1.30144-1.25319 2.12265-1.62968l-0.0228-0.0853-0.23803-0.88844-4e-3 -4e-3c0.61636-0.2634 1.26668-0.43658 1.93238-0.51489l2e-3 2e-3 0.23806 0.88846 0.0236 0.088c0.89939-0.0867 1.80675 0.0309 2.65434 0.34394l0.50483-0.8745c0.31074 0.12255 0.61349 0.26759 0.90417 0.43395z" fill="currentColor"/>
        <path class="ColorScheme-Text" d="m437.07214 616.08168c-0.56846-0.36439-1.18053-0.65572-1.82201-0.86651l-0.56913 0.87634c-0.45688-0.134-0.92623-0.22121-1.40082-0.25993l-0.21766-1.02396c-1.35341-0.0585-2.69953 0.22761-3.91215 0.83155l0.21762 1.02398c-0.41825 0.22802-0.81217 0.49816-1.1756 0.80617l-0.87961-0.57124c-0.49875 0.45478-0.93794 0.97082-1.30713 1.53585-0.3644 0.56849-0.65572 1.18055-0.8665 1.82203l0.87633 0.56912c-0.13408 0.45684-0.22122 0.92625-0.25994 1.40082l-0.30261 0.0644-0.72137 0.15332c-0.0585 1.35343 0.2276 2.69955 0.83156 3.91219l0.72139-0.15335 0.30259-0.0643c0.22803 0.41827 0.49815 0.8122 0.80617 1.17562l-0.57124 0.87962c0.45478 0.49875 0.97082 0.93794 1.53586 1.30713 0.5672 0.36587 1.17822 0.65881 1.81884 0.87142l0.57124-0.8796c0.4573 0.13343 0.92701 0.22012 1.40189 0.25828l0.21763 1.02397c1.35343 0.0585 2.69956-0.2276 3.91218-0.83156l-0.21764-1.02397c0.41776-0.22845 0.81112-0.49896 1.17395-0.80724l0.87637 0.56911c0.50031-0.45347 0.94093-0.96859 1.31204-1.53267 0.36588-0.56719 0.65881-1.17824 0.87143-1.81882l-0.87961-0.57124c0.13343-0.4573 0.22013-0.92704 0.25828-1.4019l0.3026-0.0644 0.72139-0.15332c0.0585-1.35342-0.22761-2.69955-0.83157-3.91217l-1.01318 0.21537-8e-3 8e-3c-0.22848-0.41779-0.49897-0.81114-0.80727-1.17398l0.56912-0.87634c-0.45345-0.50034-0.96858-0.94097-1.53267-1.31205zm-0.5446 0.83869c0.28034 0.1832 0.54663 0.38763 0.79715 0.60855l-0.54991 0.84688c0.66372 0.61307 1.1804 1.36815 1.5115 2.20887l0.0892-0.0188 0.89972-0.19124 2e-3 -2e-3c0.23245 0.6287 0.37339 1.28676 0.4185 1.95553l-4e-3 4e-3 -0.8997 0.19124-0.0864 0.0183c0.0373 0.9026-0.12959 1.80201-0.48841 2.63109l0.85175 0.5532c-0.13968 0.30401-0.29998 0.59756-0.48238 0.87911-0.18319 0.28034-0.38761 0.54663-0.60854 0.79717l-0.84685-0.55c-0.61308 0.66371-1.36817 1.18042-2.20886 1.5115l0.0189 0.0892 0.19121 0.89969 2e-3 2e-3c-0.62867 0.23241-1.28675 0.37337-1.95552 0.41848l-4e-3 -4e-3 -0.19124-0.89969-0.0183-0.0864c-0.90261 0.0373-1.80203-0.12969-2.63113-0.48851l-0.55312 0.85182c-0.30401-0.13968-0.59754-0.29996-0.8791-0.48238-0.28106-0.18311-0.5469-0.38606-0.79824-0.60684l0.55317-0.85176c-0.66501-0.61149-1.18334-1.36525-1.51636-2.20505l-0.0864 0.0183-0.89968 0.19124-4e-3 4e-3c-0.23082-0.62926-0.3697-1.28778-0.41309-1.95667l2e-3 -2e-3 0.89969-0.19123 0.0892-0.0189c-0.0395-0.90264 0.12541-1.8026 0.48237-2.63264l-0.84686-0.55c0.1396-0.3035 0.29945-0.59861 0.4807-0.88022 0.1832-0.28102 0.38608-0.5469 0.60687-0.79824l0.85174 0.55319c0.61149-0.66502 1.36525-1.18336 2.20503-1.51636l-0.0183-0.0864-0.19121-0.89968-4e-3 -4e-3c0.6293-0.23078 1.28779-0.36968 1.95668-0.41305l2e-3 2e-3 0.19124 0.8997 0.019 0.0891c0.90269-0.0395 1.80265 0.12542 2.6327 0.48239l0.54991-0.84688c0.3039 0.13864 0.59864 0.29933 0.88021 0.48067z" fill="currentColor"/>
        <path class="ColorScheme-Text" d="m437.41731 638.31861c-0.54861-0.39364-1.14459-0.71661-1.77416-0.96068l-0.61421 0.84535c-0.44925-0.15772-0.91339-0.26938-1.3853-0.33288l-0.16377-1.03395c-1.3485-0.12925-2.70775 0.086-3.95031 0.62566l0.16373 1.03397c-0.42961 0.20582-0.83713 0.45497-1.21618 0.74354l-0.84851-0.6165c-0.52187 0.42806-0.98746 0.92041-1.38572 1.46534-0.39365 0.54864-0.7166 1.14461-0.96067 1.77418l0.84535 0.61421c-0.15781 0.44919-0.2694 0.9134-0.3329 1.38529l-0.30557 0.0485-0.7284 0.11535c-0.12926 1.34852 0.086 2.70777 0.62567 3.95035l0.72843-0.11538 0.30554-0.0484c0.20582 0.42963 0.45496 0.83716 0.74354 1.2162l-0.6165 0.84852c0.42806 0.52187 0.9204 0.98746 1.46535 1.38572 0.54727 0.39505 1.14212 0.71957 1.77074 0.96542l0.61649-0.8485c0.44969 0.15718 0.91422 0.26833 1.38645 0.33129l0.16374 1.03396c1.34852 0.12925 2.70777-0.086 3.95034-0.62567l-0.16375-1.03396c0.42914-0.20627 0.83612-0.45582 1.21459-0.74469l0.84538 0.61419c0.52336-0.42666 0.99034-0.91802 1.39046-1.4619 0.39506-0.54726 0.71957-1.14215 0.96542-1.77072l-0.8485-0.61649c0.15718-0.44969 0.26834-0.91425 0.33129-1.38646l0.30556-0.0485 0.72842-0.11535c0.12926-1.34851-0.086-2.70777-0.62568-3.95033l-1.02306 0.16205-8e-3 8e-3c-0.2063-0.42918-0.45584-0.83615-0.74472-1.21462l0.6142-0.84536c-0.42664-0.52338-0.918-0.99037-1.4619-1.39046zm-0.58774 0.80904c0.27036 0.19762 0.52559 0.4157 0.7642 0.64943l-0.59347 0.81694c0.63072 0.64697 1.10717 1.42805 1.39382 2.28495l0.0901-0.0141 0.9085-0.14389 2e-3 -2e-3c0.19923 0.64001 0.30553 1.30454 0.31558 1.97476l-4e-3 4e-3 -0.90848 0.14389-0.0872 0.0138c-0.01 0.90332-0.22372 1.79276-0.62544 2.60193l0.82163 0.59702c-0.1554 0.29628-0.33084 0.58104-0.52773 0.85266-0.19761 0.27036-0.41568 0.52559-0.64942 0.76422l-0.81691-0.59356c-0.64697 0.63071-1.42807 1.1072-2.28494 1.39382l0.0142 0.0901 0.14386 0.90846 2e-3 2e-3c-0.63997 0.19919-1.30452 0.30551-1.97474 0.31556l-4e-3 -4e-3 -0.14389-0.90847-0.0138-0.0872c-0.90332-0.01-1.79277-0.22382-2.60195-0.62554l-0.59695 0.8217c-0.29628-0.1554-0.58102-0.33082-0.85265-0.52773-0.27109-0.19756-0.52594-0.41415-0.76538-0.64778l0.59699-0.82164c-0.6321-0.64546-1.11027-1.42531-1.39888-2.28139l-0.0872 0.0137-0.90846 0.14389-4e-3 4e-3c-0.19757-0.64048-0.3018-1.30536-0.31012-1.97561l2e-3 -2e-3 0.90847-0.14388 0.0901-0.0142c8e-3 -0.90347 0.21958-1.79356 0.61949-2.60379l-0.81691-0.59356c0.15529-0.29578 0.33037-0.58212 0.52611-0.85386 0.19765-0.27105 0.41417-0.52594 0.64781-0.76538l0.82162 0.597c0.64546-0.6321 1.42531-1.11028 2.28137-1.39887l-0.0138-0.0872-0.14386-0.90846-4e-3 -4e-3c0.64052-0.19753 1.30537-0.30178 1.97562-0.31008l2e-3 2e-3 0.14389 0.90848 0.0143 0.09c0.90352 8e-3 1.79362 0.21959 2.60385 0.61951l0.59348-0.81694c0.29622 0.15436 0.58215 0.33025 0.85384 0.52608z" fill="currentColor"/>
        <path class="ColorScheme-Text" d="m437.74959 660.57367c-0.52725-0.42181-1.10551-0.77553-1.72145-1.05222l-0.65761 0.81205c-0.44038-0.18102-0.89804-0.31681-1.36598-0.40493l-0.10943-1.0411c-1.33989-0.19965-2.70854-0.0558-3.97764 0.41806l0.10939 1.04112c-0.43979 0.18306-0.85979 0.41054-1.25343 0.67887l-0.81508-0.66006c-0.54356 0.40016-1.03427 0.86747-1.46051 1.39081-0.42182 0.52728-0.77552 1.10554-1.05221 1.72147l0.81205 0.65761c-0.1811 0.44032-0.31683 0.89805-0.40494 1.36597l-0.30769 0.0324-0.73344 0.0771c-0.19966 1.33991-0.0558 2.70856 0.41807 3.97768l0.73347-0.0771 0.30765-0.0323c0.18305 0.43981 0.41052 0.85982 0.67887 1.25345l-0.66006 0.81509c0.40016 0.54356 0.86746 1.03428 1.39082 1.46051 0.52584 0.42315 1.10289 0.77836 1.71778 1.05677l0.66006-0.81507c0.44084 0.1805 0.89892 0.31581 1.36721 0.4034l0.1094 1.04111c1.33991 0.19965 2.70856 0.0558 3.97767-0.41807l-0.10941-1.04111c0.43935-0.18353 0.85883-0.41144 1.2519-0.68011l0.81207 0.6576c0.54498-0.39869 1.03703-0.86493 1.46507-1.38713 0.42316-0.52583 0.77836-1.10292 1.05677-1.71777l-0.81507-0.66005c0.1805-0.44085 0.31582-0.89895 0.40339-1.36722l0.30768-0.0324 0.73346-0.0771c0.19966-1.3399 0.0558-2.70856-0.41808-3.97766l-1.03014 0.10828-8e-3 8e-3c-0.18356-0.43939-0.41146-0.85886-0.68013-1.25193l0.6576-0.81205c-0.39867-0.545-0.86491-1.03706-1.38713-1.46507zm-0.62927 0.77717c0.25964 0.2115 0.50311 0.44264 0.72916 0.68854l-0.63541 0.78476c0.596 0.67909 1.03091 1.48403 1.27232 2.35476l0.0907-9e-3 0.91478-0.0962 2e-3 -2e-3c0.16546 0.64956 0.23683 1.31874 0.21179 1.98857l-4e-3 4e-3 -0.91477 0.0961-0.0878 9e-3c-0.0573 0.90156-0.31724 1.77859-0.76076 2.56563l0.78926 0.6392c-0.17069 0.28774-0.36079 0.56293-0.57163 0.82387-0.21149 0.25965-0.44262 0.50312-0.68853 0.72919l-0.78472-0.6355c-0.67909 0.59598-1.48406 1.03094-2.35476 1.27232l9e-3 0.0907 0.0961 0.91475 2e-3 2e-3c-0.64952 0.16542-1.31872 0.23682-1.98855 0.21178l-4e-3 -4e-3 -0.0961-0.91475-9e-3 -0.0878c-0.90156-0.0573-1.7786-0.31734-2.56565-0.76085l-0.63913 0.78933c-0.28774-0.1707-0.56291-0.36078-0.82386-0.57163-0.26038-0.21148-0.50355-0.44111-0.73043-0.68695l0.63917-0.78927c-0.59745-0.67766-1.03415-1.48147-1.27756-2.35148l-0.0878 9e-3 -0.91475 0.0961-4e-3 4e-3c-0.16378-0.64994-0.23307-1.31936-0.2063-1.98913l2e-3 -2e-3 0.91476-0.0961 0.0907-9e-3c0.0553-0.90181 0.31314-1.77961 0.75491-2.5678l-0.78473-0.6355c0.17056-0.28724 0.36039-0.56403 0.57008-0.82515 0.21156-0.26034 0.44113-0.50354 0.68698-0.73043l0.78925 0.63918c0.67765-0.59745 1.48146-1.03416 2.35145-1.27755l-9e-3 -0.0878-0.0961-0.91475-4e-3 -4e-3c0.64998-0.16374 1.31938-0.23305 1.98914-0.20626l2e-3 2e-3 0.0961 0.91477 0.01 0.0906c0.90187 0.0553 1.77967 0.31316 2.56786 0.75494l0.63542-0.78476c0.28774 0.16965 0.56407 0.36026 0.82514 0.57004z" fill="currentColor"/>
        <path class="ColorScheme-Text" d="m438.06808 682.84572c-0.50446-0.44883-1.06341-0.83233-1.66403-1.14087l-0.6992 0.77652c-0.43031-0.20382-0.88023-0.36338-1.34292-0.47587l-0.0548-1.0454c-1.32761-0.2695-2.70191-0.19747-3.99407 0.20932l0.0548 1.04541c-0.44877 0.1598-0.8801 0.36498-1.28724 0.61234l-0.77942-0.70181c-0.56376 0.37117-1.07825 0.81215-1.5313 1.31247-0.44883 0.50448-0.83231 1.06344-1.14086 1.66404l0.77652 0.69921c-0.2039 0.43024-0.3634 0.88024-0.47587 1.3429l-0.30897 0.0163-0.73647 0.0386c-0.26951 1.32762-0.19748 2.70192 0.20932 3.9941l0.7365-0.0386 0.30892-0.0162c0.15978 0.44879 0.36496 0.88013 0.61234 1.28726l-0.70181 0.77943c0.37116 0.56376 0.81214 1.07826 1.31247 1.5313 0.50298 0.45009 1.06065 0.83501 1.66012 1.14522l0.70182-0.7794c0.43079 0.20332 0.88116 0.36242 1.34422 0.4744l0.0548 1.04541c1.32763 0.2695 2.70193 0.19747 3.9941-0.20933l-0.0548-1.04541c0.44835-0.16028 0.87919-0.36592 1.28578-0.61365l0.77654 0.69919c0.5651-0.36962 1.08087-0.80947 1.53566-1.30855 0.4501-0.50296 0.83501-1.06067 1.14522-1.66011l-0.77941-0.7018c0.20333-0.4308 0.36244-0.88119 0.47439-1.34423l0.30896-0.0163 0.73649-0.0386c0.26951-1.32761 0.19748-2.70192-0.20933-3.99408l-1.0344 0.0542-8e-3 8e-3c-0.16031-0.44839-0.36594-0.87921-0.61367-1.28581l0.69919-0.77652c-0.3696-0.56511-0.80945-1.0809-1.30855-1.53566zm-0.66909 0.74317c0.24822 0.2248 0.47926 0.46837 0.69213 0.72576l-0.67561 0.75043c0.55964 0.70935 0.95183 1.53595 1.14734 2.41812l0.091-4e-3 0.91856-0.0482 2e-3 -2e-3c0.13123 0.65733 0.16748 1.32933 0.10742 1.99693l-4e-3 4e-3 -0.91855 0.0481-0.0881 4e-3c-0.1044 0.89733-0.40989 1.75955-0.89399 2.5223l0.75473 0.67963c-0.18552 0.27842-0.38976 0.54328-0.61397 0.79283-0.22479 0.24822-0.46834 0.47926-0.72575 0.69215l-0.75038-0.6757c-0.70935 0.55963-1.53598 0.95186-2.41812 1.14734l4e-3 0.091 0.0481 0.91852 2e-3 2e-3c-0.65728 0.1312-1.3293 0.16748-1.99691 0.10741l-4e-3 -4e-3 -0.0481-0.91853-4e-3 -0.0881c-0.89732-0.1044-1.75955-0.40999-2.52231-0.89408l-0.67957 0.7548c-0.27841-0.18553-0.54325-0.38975-0.79281-0.61396-0.24896-0.22482-0.47977-0.46686-0.69348-0.72424l0.6796-0.75474c-0.56116-0.708-0.95519-1.53356-1.15274-2.41512l-0.0882 4e-3 -0.91852 0.0481-4e-3 4e-3c-0.12954-0.65762-0.1637-1.32975-0.10191-1.9972l2e-3 -2e-3 0.91854-0.0481 0.091-4e-3c0.10242-0.89768 0.40585-1.76079 0.88827-2.52478l-0.7504-0.67569c0.18536-0.27792 0.38942-0.5444 0.61248-0.79419 0.2249-0.24891 0.46688-0.47976 0.72427-0.69347l0.75472 0.67961c0.70799-0.56117 1.53355-0.95521 2.41509-1.15274l-4e-3 -0.0881-0.0481-0.91852-4e-3 -4e-3c0.65766-0.1295 1.32977-0.16368 1.99721-0.10187l2e-3 2e-3 0.0481 0.91855 5e-3 0.091c0.89774 0.10242 1.76084 0.40587 2.52483 0.88829l0.67562-0.75043c0.27847 0.18448 0.54445 0.38929 0.79418 0.61245z" fill="currentColor"/>
    </g>
</svg>
