<?xml version="1.0" encoding="utf-8"?>
<svg height="160" version="1.1" viewBox="0 0 224 160" width="224" xmlns="http://www.w3.org/2000/svg" xmlns:svg="http://www.w3.org/2000/svg" xmlns:xlink="http://www.w3.org/1999/xlink">
 <namedview bordercolor="#666666" borderopacity="1.0" id="namedview-conformist" pagecolor="#ffffff" pageopacity="0.0" pageshadow="0" showgrid="true">
  <grid class="ColorScheme-Background" empspacing="4" fill="currentColor" opacity="0.6" type="xygrid"/>
 </namedview>
 <defs id="primary-definitions">
  <style class="ColorScheme-Background" fill="currentColor" opacity="0.6" type="text/css">
   .ColorScheme-Text           { color:#eff0f1; }
      .ColorScheme-Background     { color:#31363b; }
      .ColorScheme-Highlight      { color:#3daefd; }
      .ColorScheme-ViewBackground { color:#fcfcfc; }
      .ColorScheme-PositiveText   { color:#27ae60; }
      .ColorScheme-NeutralText    { color:#f67400; }
      .ColorScheme-NegativeText   { color:#da4453; }
  </style>
 </defs>
 <path class="ColorScheme-Background" d="m 147,0 v 115 c 2.7e-4,0.39083 0.42867,0.6303 0.76172,0.42578 L 171,103.58789 194.23828,115.42578 C 194.57133,115.6303 194.99973,115.39083 195,115 V 0 Z" fill="currentColor" opacity="0.6" paint-order="stroke fill markers" stroke-linecap="round" stroke-linejoin="round"/>
 <path class="ColorScheme-Background" d="M 147 0 L 147 115 C 147.00027 115.39083 147.42867 115.6303 147.76172 115.42578 L 171 103.58789 L 194.23828 115.42578 C 194.57133 115.6303 194.99973 115.39083 195 115 L 195 0 L 147 0 z M 147.5 0.5 L 194.5 0.5 L 194.5 115 A 0.50005 0.50005 0 0 0 194.46484 114.98047 L 171.22656 103.14258 A 0.50005 0.50005 0 0 0 170.77344 103.14258 L 147.53516 114.98047 A 0.50005 0.50005 0 0 0 147.5 115 L 147.5 0.5 z " fill="currentColor" opacity="0.6" paint-order="stroke fill markers" stroke-linecap="round" stroke-linejoin="round"/>
</svg>