<?xml version="1.0" encoding="utf-8"?>
<svg height="60" version="1.1" viewBox="0 0 84 60" width="84" xmlns="http://www.w3.org/2000/svg" xmlns:svg="http://www.w3.org/2000/svg" xmlns:xlink="http://www.w3.org/1999/xlink">
 <namedview bordercolor="#666666" borderopacity="1.0" id="namedview-conformist" pagecolor="#ffffff" pageopacity="0.0" pageshadow="0" showgrid="true">
  <grid class="ColorScheme-Background" empspacing="4" fill="currentColor" opacity="0.6" type="xygrid"/>
 </namedview>
 <defs id="primary-definitions">
  <style class="ColorScheme-Background" fill="currentColor" opacity="0.6" type="text/css">
   .ColorScheme-Text           { color:#eff0f1; }
      .ColorScheme-Background     { color:#31363b; }
      .ColorScheme-Highlight      { color:#3daefd; }
      .ColorScheme-ViewBackground { color:#fcfcfc; }
      .ColorScheme-PositiveText   { color:#27ae60; }
      .ColorScheme-NeutralText    { color:#f67400; }
      .ColorScheme-NegativeText   { color:#da4453; }
  </style>
 </defs>
 <path class="ColorScheme-Background" d="m 56,0 v 42 c 2.58e-4,0.376853 0.40146,0.618 0.734375,0.441406 L 65,38.566406 l 8.265625,3.875 C 73.59854,42.618 73.999742,42.376853 74,42 V 0 Z" fill="currentColor" opacity="0.6" paint-order="stroke fill markers" stroke-linecap="round" stroke-linejoin="round"/>
 <path class="ColorScheme-Background" d="M 56 0 L 56 42 C 56.000258 42.376853 56.40146 42.618 56.734375 42.441406 L 65 38.566406 L 73.265625 42.441406 C 73.59854 42.618 73.999742 42.376853 74 42 L 74 0 L 56 0 z M 56.5 0.5 L 73.5 0.5 L 73.5 42 A 0.50005 0.50005 0 0 0 73.478516 41.988281 L 65.212891 38.113281 A 0.50005 0.50005 0 0 0 64.787109 38.113281 L 56.521484 41.988281 A 0.50005 0.50005 0 0 0 56.5 42 L 56.5 0.5 z " fill="currentColor" opacity="0.6" paint-order="stroke fill markers" stroke-linecap="round" stroke-linejoin="round"/>
</svg>