<?xml version="1.0" encoding="utf-8"?>
<svg height="20" version="1.1" viewBox="0 0 28 20" width="28" xmlns="http://www.w3.org/2000/svg" xmlns:svg="http://www.w3.org/2000/svg" xmlns:xlink="http://www.w3.org/1999/xlink">
 <namedview bordercolor="#666666" borderopacity="1.0" id="namedview-conformist" pagecolor="#ffffff" pageopacity="0.0" pageshadow="0" showgrid="true">
  <grid class="ColorScheme-Background" empspacing="4" fill="currentColor" opacity="0.6" type="xygrid"/>
 </namedview>
 <defs id="primary-definitions">
  <style class="ColorScheme-Background" fill="currentColor" opacity="0.6" type="text/css">
   .ColorScheme-Text           { color:#eff0f1; }
      .ColorScheme-Background     { color:#31363b; }
      .ColorScheme-Highlight      { color:#3daefd; }
      .ColorScheme-ViewBackground { color:#fcfcfc; }
      .ColorScheme-PositiveText   { color:#27ae60; }
      .ColorScheme-NeutralText    { color:#f67400; }
      .ColorScheme-NegativeText   { color:#da4453; }
  </style>
 </defs>
 <path class="ColorScheme-Background" d="m 17,0 v 14 c -9.29e-4,0.389473 0.42407,0.630452 0.757812,0.429688 L 21,13.083984 24.242188,14.429688 C 24.57593,14.630452 25.000929,14.389473 25,14 V 0 Z" fill="currentColor" opacity="0.6" paint-order="stroke fill markers" stroke-linecap="round" stroke-linejoin="round"/>
 <path class="ColorScheme-Background" d="M 17 0 L 17 14 C 16.999071 14.389473 17.42407 14.630451 17.757812 14.429688 L 21 13.083984 L 24.242188 14.429688 C 24.57593 14.630451 25.000929 14.389473 25 14 L 25 0 L 17 0 z M 17.5 0.5 L 24.5 0.5 L 24.5 14 A 0.50005 0.50005 0 0 0 24.5 14.001953 A 0.50005 0.50005 0 0 0 24.433594 13.96875 L 21.191406 12.623047 A 0.50005 0.50005 0 0 0 20.808594 12.623047 L 17.566406 13.96875 A 0.50005 0.50005 0 0 0 17.5 14.001953 A 0.50005 0.50005 0 0 0 17.5 14 L 17.5 0.5 z " fill="currentColor" opacity="0.6" paint-order="stroke fill markers" stroke-linecap="round" stroke-linejoin="round"/>
</svg>