<?xml version="1.0" encoding="utf-8"?>
<svg height="60" version="1.1" viewBox="0 0 84 60" width="84" xmlns="http://www.w3.org/2000/svg" xmlns:svg="http://www.w3.org/2000/svg" xmlns:xlink="http://www.w3.org/1999/xlink">
 <namedview bordercolor="#666666" borderopacity="1.0" id="namedview-conformist" pagecolor="#ffffff" pageopacity="0.0" pageshadow="0" showgrid="true">
  <grid class="ColorScheme-Background" empspacing="4" fill="currentColor" opacity="0.6" type="xygrid"/>
 </namedview>
 <defs id="primary-definitions">
  <style class="ColorScheme-Background" fill="currentColor" opacity="0.6" type="text/css">
   .ColorScheme-Text           { color:#eff0f1; }
      .ColorScheme-Background     { color:#31363b; }
      .ColorScheme-Highlight      { color:#3daefd; }
      .ColorScheme-ViewBackground { color:#fcfcfc; }
      .ColorScheme-PositiveText   { color:#27ae60; }
      .ColorScheme-NeutralText    { color:#f67400; }
      .ColorScheme-NegativeText   { color:#da4453; }
  </style>
 </defs>
 <path class="ColorScheme-Background" d="M 14 14 C 12.892 14 12 14.892 12 16 L 12 60 L 13 60 L 13 16 C 13 15.446 13.446 15 14 15 L 54 15 L 54 28.427734 C 54 28.427734 54.000838 32 57.572266 32 L 71 32 L 71 60 L 72 60 L 72 32 L 54 14 L 14 14 z M 20 19 C 18.892 19 18 19.892 18 21 C 18 22.108 18.892 23 20 23 L 36 23 C 37.108 23 38 22.108 38 21 C 38 19.892 37.108 19 36 19 L 20 19 z M 20 27 C 18.892 27 18 27.892 18 29 L 18 42 C 18 43.108 18.892 44 20 44 L 44 44 C 45.108 44 46 43.108 46 42 L 46 29 C 46 27.892 45.108 27 44 27 L 20 27 z M 20 28 L 44 28 C 44.554 28 45 28.446 45 29 L 45 41.009766 L 36.914062 33 C 36.518349 32.606657 36.009218 32.410201 35.5 32.410156 C 34.990782 32.410112 34.482 32.607006 34.085938 33 L 24.007812 43 L 22.501953 43 L 29.5 36 L 28.164062 34.650391 C 27.770603 34.254791 27.26389 34.062142 26.755859 34.064453 C 26.247828 34.066753 25.738477 34.264035 25.335938 34.650391 L 19 40.998047 L 19 29 C 19 28.446 19.446 28 20 28 z M 22.5 29 C 21.671573 29 21 29.671573 21 30.5 C 21 31.328427 21.671573 32 22.5 32 C 23.328427 32 24 31.328427 24 30.5 C 24 29.671573 23.328427 29 22.5 29 z M 51 36 C 50.446 36 50 36.446 50 37 C 50 37.554 50.446 38 51 38 L 61 38 C 61.554 38 62 37.554 62 37 C 62 36.446 61.554 36 61 36 L 51 36 z M 51 42 C 50.446 42 50 42.446 50 43 C 50 43.554 50.446 44 51 44 L 65 44 C 65.554 44 66 43.554 66 43 C 66 42.446 65.554 42 65 42 L 51 42 z M 19 48 C 18.446 48 18 48.446 18 49 C 18 49.554 18.446 50 19 50 L 59 50 C 59.554 50 60 49.554 60 49 C 60 48.446 59.554 48 59 48 L 19 48 z M 19 54 C 18.446 54 18 54.446 18 55 C 18 55.554 18.446 56 19 56 L 47 56 C 47.554 56 48 55.554 48 55 C 48 54.446 47.554 54 47 54 L 19 54 z " fill="currentColor" opacity="0.6"/>
 <path class="ColorScheme-Background" d="M 14 14 C 12.892 14 12 14.892 12 16 L 12 60 L 13 60 L 13 16 C 13 15.446 13.446 15 14 15 L 54 15 L 54 28.427734 C 54 28.427734 54.000838 32 57.572266 32 L 71 32 L 71 60 L 72 60 L 72 32 L 54 14 L 14 14 z M 54.5 15.207031 L 70.792969 31.5 L 57.572266 31.5 C 55.953259 31.5 55.281549 30.764088 54.894531 29.990234 C 54.507514 29.216381 54.5 28.427734 54.5 28.427734 L 54.5 15.207031 z M 20 19 C 18.892 19 18 19.892 18 21 C 18 22.108 18.892 23 20 23 L 36 23 C 37.108 23 38 22.108 38 21 C 38 19.892 37.108 19 36 19 L 20 19 z M 20 19.5 L 36 19.5 C 36.839648 19.5 37.5 20.160352 37.5 21 C 37.5 21.839648 36.839648 22.5 36 22.5 L 20 22.5 C 19.160352 22.5 18.5 21.839648 18.5 21 C 18.5 20.160352 19.160352 19.5 20 19.5 z M 20 27 C 18.892 27 18 27.892 18 29 L 18 42 C 18 43.108 18.892 44 20 44 L 44 44 C 45.108 44 46 43.108 46 42 L 46 29 C 46 27.892 45.108 27 44 27 L 20 27 z M 20 27.5 C 19.177649 27.5 18.5 28.177649 18.5 29 C 18.5 28.160352 19.160352 27.5 20 27.5 z M 44 27.5 C 44.839648 27.5 45.5 28.160352 45.5 29 C 45.5 28.177649 44.822351 27.5 44 27.5 z M 20 28 L 44 28 C 44.554 28 45 28.446 45 29 L 45 41.009766 L 36.914062 33 C 36.518349 32.606657 36.009218 32.410201 35.5 32.410156 C 34.990782 32.410112 34.482 32.607006 34.085938 33 L 24.007812 43 L 22.501953 43 L 29.5 36 L 28.164062 34.650391 C 27.770603 34.254791 27.26389 34.062142 26.755859 34.064453 C 26.247828 34.066753 25.738477 34.264035 25.335938 34.650391 L 19 40.998047 L 19 29 C 19 28.446 19.446 28 20 28 z M 22.5 29 C 21.671573 29 21 29.671573 21 30.5 C 21 31.328427 21.671573 32 22.5 32 C 23.328427 32 24 31.328427 24 30.5 C 24 29.671573 23.328427 29 22.5 29 z M 22.5 29.5 C 23.058206 29.5 23.5 29.941794 23.5 30.5 C 23.5 31.058206 23.058206 31.5 22.5 31.5 C 21.941794 31.5 21.5 31.058206 21.5 30.5 C 21.5 29.941794 21.941794 29.5 22.5 29.5 z M 35.5 32.910156 C 35.880647 32.91019 36.259832 33.054614 36.5625 33.355469 L 45.439453 42.148438 C 45.355997 42.904145 44.78113 43.5 44 43.5 L 24.212891 43.5 L 34.4375 33.355469 C 34.740859 33.05446 35.119698 32.910123 35.5 32.910156 z M 26.757812 34.564453 C 27.137933 34.562753 27.50926 34.702943 27.808594 35.003906 L 28.794922 35.998047 L 21.294922 43.5 L 20 43.5 C 19.21821 43.5 18.643155 42.90314 18.560547 42.146484 L 25.681641 35.011719 C 25.993505 34.712392 26.377707 34.566174 26.757812 34.564453 z M 51 36 C 50.446 36 50 36.446 50 37 C 50 37.554 50.446 38 51 38 L 61 38 C 61.554 38 62 37.554 62 37 C 62 36.446 61.554 36 61 36 L 51 36 z M 51 36.5 L 61 36.5 C 61.285648 36.5 61.5 36.714352 61.5 37 C 61.5 37.285648 61.285648 37.5 61 37.5 L 51 37.5 C 50.714352 37.5 50.5 37.285648 50.5 37 C 50.5 36.714352 50.714352 36.5 51 36.5 z M 51 42 C 50.446 42 50 42.446 50 43 C 50 43.554 50.446 44 51 44 L 65 44 C 65.554 44 66 43.554 66 43 C 66 42.446 65.554 42 65 42 L 51 42 z M 51 42.5 L 65 42.5 C 65.285648 42.5 65.5 42.714352 65.5 43 C 65.5 43.285648 65.285648 43.5 65 43.5 L 51 43.5 C 50.714352 43.5 50.5 43.285648 50.5 43 C 50.5 42.714352 50.714352 42.5 51 42.5 z M 19 48 C 18.446 48 18 48.446 18 49 C 18 49.554 18.446 50 19 50 L 59 50 C 59.554 50 60 49.554 60 49 C 60 48.446 59.554 48 59 48 L 19 48 z M 19 48.5 L 59 48.5 C 59.285648 48.5 59.5 48.714352 59.5 49 C 59.5 49.285648 59.285648 49.5 59 49.5 L 19 49.5 C 18.714352 49.5 18.5 49.285648 18.5 49 C 18.5 48.714352 18.714352 48.5 19 48.5 z M 19 54 C 18.446 54 18 54.446 18 55 C 18 55.554 18.446 56 19 56 L 47 56 C 47.554 56 48 55.554 48 55 C 48 54.446 47.554 54 47 54 L 19 54 z M 19 54.5 L 47 54.5 C 47.285648 54.5 47.5 54.714352 47.5 55 C 47.5 55.285648 47.285648 55.5 47 55.5 L 19 55.5 C 18.714352 55.5 18.5 55.285648 18.5 55 C 18.5 54.714352 18.714352 54.5 19 54.5 z " fill="currentColor" opacity="0.6"/>
</svg>