<?xml version="1.0" encoding="utf-8"?>
<svg height="80" version="1.1" viewBox="0 0 112 80" width="112" xmlns="http://www.w3.org/2000/svg" xmlns:svg="http://www.w3.org/2000/svg" xmlns:xlink="http://www.w3.org/1999/xlink">
 <namedview bordercolor="#666666" borderopacity="1.0" id="namedview-conformist" pagecolor="#ffffff" pageopacity="0.0" pageshadow="0" showgrid="true">
  <grid class="ColorScheme-Background" empspacing="4" fill="currentColor" opacity="0.6" type="xygrid"/>
 </namedview>
 <defs id="primary-definitions">
  <style class="ColorScheme-Background" fill="currentColor" opacity="0.6" type="text/css">
   .ColorScheme-Text           { color:#eff0f1; }
      .ColorScheme-Background     { color:#31363b; }
      .ColorScheme-Highlight      { color:#3daefd; }
      .ColorScheme-ViewBackground { color:#fcfcfc; }
      .ColorScheme-PositiveText   { color:#27ae60; }
      .ColorScheme-NeutralText    { color:#f67400; }
      .ColorScheme-NegativeText   { color:#da4453; }
  </style>
 </defs>
 <path class="ColorScheme-Background" d="M 18 16 C 16.892 16 16 16.892 16 18 L 16 80 L 17 80 L 17 18 C 17 17.446 17.446 17 18 17 L 68 17 L 68 42 C 68 43.108 68.892 44 70 44 L 95 44 L 95 80 L 96 80 L 96 44 L 68 16 L 18 16 z M 26 24 C 24.892 24 24 24.892 24 26 C 24 27.108 24.892 28 26 28 L 50 28 C 51.108 28 52 27.108 52 26 C 52 24.892 51.108 24 50 24 L 26 24 z M 26 34 C 24.892 34 24 34.892 24 36 L 24 58 C 24 59.108 24.892 60 26 60 L 58 60 C 59.108 60 60 59.108 60 58 L 60 36 C 60 34.892 59.108 34 58 34 L 26 34 z M 26 35 L 58 35 C 58.554 35 59 35.446 59 36 L 59 52.535156 L 50.664062 44.25 C 50.268349 43.856657 49.759218 43.660201 49.25 43.660156 C 48.740782 43.660112 48.231476 43.85648 47.835938 44.25 L 33.009766 59 L 31.5 59 L 41 49.5 L 37.914062 46.400391 C 37.520603 46.004791 37.01389 45.812142 36.505859 45.814453 C 35.997828 45.816753 35.488477 46.014035 35.085938 46.400391 L 25 56.498047 L 25 36 C 25 35.446 25.446 35 26 35 z M 29.5 37 C 28.119288 37 27 38.119288 27 39.5 C 27 40.880712 28.119288 42 29.5 42 C 30.880712 42 32 40.880712 32 39.5 C 32 38.119288 30.880712 37 29.5 37 z M 65 50 C 64.446 50 64 50.446 64 51 C 64 51.554 64.446 52 65 52 L 83 52 C 83.554 52 84 51.554 84 51 C 84 50.446 83.554 50 83 50 L 65 50 z M 65 58 C 64.446 58 64 58.446 64 59 C 64 59.554 64.446 60 65 60 L 87 60 C 87.554 60 88 59.554 88 59 C 88 58.446 87.554 58 87 58 L 65 58 z M 25 66 C 24.446 66 24 66.446 24 67 C 24 67.554 24.446 68 25 68 L 79 68 C 79.554 68 80 67.554 80 67 C 80 66.446 79.554 66 79 66 L 25 66 z M 25 74 C 24.446 74 24 74.446 24 75 C 24 75.554 24.446 76 25 76 L 63 76 C 63.554 76 64 75.554 64 75 C 64 74.446 63.554 74 63 74 L 25 74 z " fill="currentColor" opacity="0.6"/>
 <path class="ColorScheme-Background" d="M 18 16 C 16.892 16 16 16.892 16 18 L 16 80 L 17 80 L 17 18 C 17 17.446 17.446 17 18 17 L 68 17 L 68 42 C 68 43.108 68.892 44 70 44 L 95 44 L 95 80 L 96 80 L 96 44 L 68 16 L 18 16 z M 18 16.5 C 17.177649 16.5 16.5 17.177649 16.5 18 C 16.5 17.160352 17.160352 16.5 18 16.5 z M 68.5 17.207031 L 94.792969 43.5 L 70 43.5 C 69.160352 43.5 68.5 42.839648 68.5 42 L 68.5 17.207031 z M 26 24 C 24.892 24 24 24.892 24 26 C 24 27.108 24.892 28 26 28 L 50 28 C 51.108 28 52 27.108 52 26 C 52 24.892 51.108 24 50 24 L 26 24 z M 26 24.5 L 50 24.5 C 50.839648 24.5 51.5 25.160352 51.5 26 C 51.5 26.839648 50.839648 27.5 50 27.5 L 26 27.5 C 25.160352 27.5 24.5 26.839648 24.5 26 C 24.5 25.160352 25.160352 24.5 26 24.5 z M 26 34 C 24.892 34 24 34.892 24 36 L 24 58 C 24 59.108 24.892 60 26 60 L 58 60 C 59.108 60 60 59.108 60 58 L 60 36 C 60 34.892 59.108 34 58 34 L 26 34 z M 26 34.5 C 25.177649 34.5 24.5 35.177649 24.5 36 C 24.5 35.160352 25.160352 34.5 26 34.5 z M 58 34.5 C 58.839648 34.5 59.5 35.160352 59.5 36 C 59.5 35.177649 58.822351 34.5 58 34.5 z M 26 35 L 58 35 C 58.554 35 59 35.446 59 36 L 59 52.535156 L 50.664062 44.25 C 50.268349 43.856657 49.759218 43.660201 49.25 43.660156 C 48.740782 43.660112 48.231476 43.85648 47.835938 44.25 L 33.009766 59 L 31.5 59 L 41 49.5 L 37.914062 46.400391 C 37.520603 46.004791 37.01389 45.812142 36.505859 45.814453 C 35.997828 45.816753 35.488477 46.014035 35.085938 46.400391 L 25 56.498047 L 25 36 C 25 35.446 25.446 35 26 35 z M 29.5 37 C 28.119288 37 27 38.119288 27 39.5 C 27 40.880712 28.119288 42 29.5 42 C 30.880712 42 32 40.880712 32 39.5 C 32 38.119288 30.880712 37 29.5 37 z M 29.5 37.5 C 30.610491 37.5 31.5 38.389509 31.5 39.5 C 31.5 40.610491 30.610491 41.5 29.5 41.5 C 28.389509 41.5 27.5 40.610491 27.5 39.5 C 27.5 38.389509 28.389509 37.5 29.5 37.5 z M 49.25 44.160156 C 49.630647 44.16019 50.009832 44.304614 50.3125 44.605469 L 59.5 53.736328 L 59.5 58 C 59.5 58.839648 58.839648 59.5 58 59.5 L 33.216797 59.5 L 48.189453 44.603516 C 48.491814 44.302697 48.869353 44.160123 49.25 44.160156 z M 36.507812 46.314453 C 36.887932 46.312753 37.25926 46.452943 37.558594 46.753906 L 37.560547 46.753906 L 40.292969 49.5 L 30.292969 59.5 L 26 59.5 C 25.160352 59.5 24.5 58.839648 24.5 58 L 24.5 57.707031 L 35.431641 46.761719 C 35.743505 46.462392 36.127707 46.316174 36.507812 46.314453 z M 65 50 C 64.446 50 64 50.446 64 51 C 64 51.554 64.446 52 65 52 L 83 52 C 83.554 52 84 51.554 84 51 C 84 50.446 83.554 50 83 50 L 65 50 z M 65 50.5 L 83 50.5 C 83.285648 50.5 83.5 50.714352 83.5 51 C 83.5 51.285648 83.285648 51.5 83 51.5 L 65 51.5 C 64.714352 51.5 64.5 51.285648 64.5 51 C 64.5 50.714352 64.714352 50.5 65 50.5 z M 65 58 C 64.446 58 64 58.446 64 59 C 64 59.554 64.446 60 65 60 L 87 60 C 87.554 60 88 59.554 88 59 C 88 58.446 87.554 58 87 58 L 65 58 z M 65 58.5 L 87 58.5 C 87.285648 58.5 87.5 58.714352 87.5 59 C 87.5 59.285648 87.285648 59.5 87 59.5 L 65 59.5 C 64.714352 59.5 64.5 59.285648 64.5 59 C 64.5 58.714352 64.714352 58.5 65 58.5 z M 25 66 C 24.446 66 24 66.446 24 67 C 24 67.554 24.446 68 25 68 L 79 68 C 79.554 68 80 67.554 80 67 C 80 66.446 79.554 66 79 66 L 25 66 z M 25 66.5 L 79 66.5 C 79.285648 66.5 79.5 66.714352 79.5 67 C 79.5 67.285648 79.285648 67.5 79 67.5 L 25 67.5 C 24.714352 67.5 24.5 67.285648 24.5 67 C 24.5 66.714352 24.714352 66.5 25 66.5 z M 25 74 C 24.446 74 24 74.446 24 75 C 24 75.554 24.446 76 25 76 L 63 76 C 63.554 76 64 75.554 64 75 C 64 74.446 63.554 74 63 74 L 25 74 z M 25 74.5 L 63 74.5 C 63.285648 74.5 63.5 74.714352 63.5 75 C 63.5 75.285648 63.285648 75.5 63 75.5 L 25 75.5 C 24.714352 75.5 24.5 75.285648 24.5 75 C 24.5 74.714352 24.714352 74.5 25 74.5 z " fill="currentColor" opacity="0.6"/>
</svg>