<?xml version="1.0" encoding="utf-8"?>
<svg height="160" version="1.1" viewBox="0 0 224 160" width="224" xmlns="http://www.w3.org/2000/svg" xmlns:svg="http://www.w3.org/2000/svg" xmlns:xlink="http://www.w3.org/1999/xlink">
 <namedview bordercolor="#666666" borderopacity="1.0" id="namedview-conformist" pagecolor="#ffffff" pageopacity="0.0" pageshadow="0" showgrid="true">
  <grid class="ColorScheme-Background" empspacing="4" fill="currentColor" opacity="0.6" type="xygrid"/>
 </namedview>
 <defs id="primary-definitions">
  <style class="ColorScheme-Background" fill="currentColor" opacity="0.6" type="text/css">
   .ColorScheme-Text           { color:#eff0f1; }
      .ColorScheme-Background     { color:#31363b; }
      .ColorScheme-Highlight      { color:#3daefd; }
      .ColorScheme-ViewBackground { color:#fcfcfc; }
      .ColorScheme-PositiveText   { color:#27ae60; }
      .ColorScheme-NeutralText    { color:#f67400; }
      .ColorScheme-NegativeText   { color:#da4453; }
  </style>
 </defs>
 <path class="ColorScheme-Background" d="M 34 32 C 32.892 32 32 32.892 32 34 L 32 160 L 33 160 L 33 34 C 33 33.446 33.446 33 34 33 L 136 33 L 136 84 C 136 86.216 137.784 88 140 88 L 191 88 L 191 160 L 192 160 L 192 88 L 136 32 L 34 32 z M 50 48 C 48.892 48 48 48.892 48 50 L 48 54 C 48 55.108 48.892 56 50 56 L 102 56 C 103.108 56 104 55.108 104 54 L 104 50 C 104 48.892 103.108 48 102 48 L 50 48 z M 50 68 C 48.892 68 48 68.892 48 70 L 48 118 C 48 119.108 48.892 120 50 120 L 118 120 C 119.108 120 120 119.108 120 118 L 120 70 C 120 68.892 119.108 68 118 68 L 50 68 z M 50 69 L 118 69 C 118.554 69 119 69.446 119 70 L 119 106.50195 L 97.914062 85.416016 C 97.519532 85.021485 97.00977 84.824219 96.5 84.824219 C 95.99023 84.824219 95.480466 85.021485 95.085938 85.416016 L 61.501953 119 L 60 119 L 80.740234 98.25 L 72.414062 89.916016 C 72.019723 89.521295 71.509766 89.324219 71 89.324219 C 70.490234 89.324219 69.980469 89.521485 69.585938 89.916016 L 49 110.50195 L 49 70 C 49 69.446 49.446 69 50 69 z M 57.5 73 C 55.014719 73 53 75.014719 53 77.5 C 53 79.985281 55.014719 82 57.5 82 C 59.985281 82 62 79.985281 62 77.5 C 62 75.014719 59.985281 73 57.5 73 z M 130 100 C 128.892 100 128 100.892 128 102 C 128 103.108 128.892 104 130 104 L 166 104 C 167.108 104 168 103.108 168 102 C 168 100.892 167.108 100 166 100 L 130 100 z M 130 116 C 128.892 116 128 116.892 128 118 C 128 119.108 128.892 120 130 120 L 174 120 C 175.108 120 176 119.108 176 118 C 176 116.892 175.108 116 174 116 L 130 116 z M 50 132 C 48.892 132 48 132.892 48 134 C 48 135.108 48.892 136 50 136 L 158 136 C 159.108 136 160 135.108 160 134 C 160 132.892 159.108 132 158 132 L 50 132 z M 50 148 C 48.892 148 48 148.892 48 150 C 48 151.108 48.892 152 50 152 L 126 152 C 127.108 152 128 151.108 128 150 C 128 148.892 127.108 148 126 148 L 50 148 z " fill="currentColor" opacity="0.6"/>
 <path class="ColorScheme-Background" d="M 34 32 C 32.892 32 32 32.892 32 34 L 32 160 L 33 160 L 33 34 C 33 33.446 33.446 33 34 33 L 136 33 L 136 84 C 136 86.216 137.784 88 140 88 L 191 88 L 191 160 L 192 160 L 192 88 L 136 32 L 34 32 z M 136.5 33.207031 L 190.79297 87.5 L 140 87.5 C 138.05235 87.5 136.5 85.947647 136.5 84 L 136.5 33.207031 z M 50 48 C 48.892 48 48 48.892 48 50 L 48 54 C 48 55.108 48.892 56 50 56 L 102 56 C 103.108 56 104 55.108 104 54 L 104 50 C 104 48.892 103.108 48 102 48 L 50 48 z M 50 48.5 L 102 48.5 C 102.83965 48.5 103.5 49.160352 103.5 50 L 103.5 54 C 103.5 54.839648 102.83965 55.5 102 55.5 L 50 55.5 C 49.160352 55.5 48.5 54.839648 48.5 54 L 48.5 50 C 48.5 49.160352 49.160352 48.5 50 48.5 z M 50 68 C 48.892 68 48 68.892 48 70 L 48 118 C 48 119.108 48.892 120 50 120 L 118 120 C 119.108 120 120 119.108 120 118 L 120 70 C 120 68.892 119.108 68 118 68 L 50 68 z M 50 68.5 C 49.177649 68.5 48.5 69.177649 48.5 70 C 48.5 69.160352 49.160352 68.5 50 68.5 z M 118 68.5 C 118.83965 68.5 119.5 69.160352 119.5 70 C 119.5 69.177649 118.82235 68.5 118 68.5 z M 50 69 L 118 69 C 118.554 69 119 69.446 119 70 L 119 106.50195 L 97.914062 85.416016 C 97.519532 85.021485 97.00977 84.824219 96.5 84.824219 C 95.99023 84.824219 95.480465 85.021485 95.085938 85.416016 L 61.501953 119 L 60 119 L 80.740234 98.25 L 72.414062 89.916016 C 72.019723 89.521295 71.509766 89.324219 71 89.324219 C 70.490234 89.324219 69.980469 89.521485 69.585938 89.916016 L 49 110.50195 L 49 70 C 49 69.446 49.446 69 50 69 z M 57.5 73 C 55.014719 73 53 75.014719 53 77.5 C 53 79.985281 55.014719 82 57.5 82 C 59.985281 82 62 79.985281 62 77.5 C 62 75.014719 59.985281 73 57.5 73 z M 57.5 73.5 C 59.715059 73.5 61.5 75.284941 61.5 77.5 C 61.5 79.715059 59.715059 81.5 57.5 81.5 C 55.284941 81.5 53.5 79.715059 53.5 77.5 C 53.5 75.284941 55.284941 73.5 57.5 73.5 z M 96.5 85.324219 C 96.880779 85.324219 97.259364 85.468347 97.560547 85.769531 L 119.5 107.70898 L 119.5 118 C 119.5 118.83965 118.83965 119.5 118 119.5 L 61.708984 119.5 L 95.439453 85.769531 C 95.740633 85.468349 96.119221 85.324219 96.5 85.324219 z M 71 89.824219 C 71.380899 89.824219 71.759727 89.96842 72.060547 90.269531 L 80.033203 98.25 L 58.792969 119.5 L 50 119.5 C 49.160352 119.5 48.5 118.83965 48.5 118 L 48.5 111.70898 L 69.939453 90.269531 C 70.240637 89.968348 70.619226 89.824219 71 89.824219 z M 130 100 C 128.892 100 128 100.892 128 102 C 128 103.108 128.892 104 130 104 L 166 104 C 167.108 104 168 103.108 168 102 C 168 100.892 167.108 100 166 100 L 130 100 z M 130 100.5 L 166 100.5 C 166.83965 100.5 167.5 101.16035 167.5 102 C 167.5 102.83965 166.83965 103.5 166 103.5 L 130 103.5 C 129.16035 103.5 128.5 102.83965 128.5 102 C 128.5 101.16035 129.16035 100.5 130 100.5 z M 130 116 C 128.892 116 128 116.892 128 118 C 128 119.108 128.892 120 130 120 L 174 120 C 175.108 120 176 119.108 176 118 C 176 116.892 175.108 116 174 116 L 130 116 z M 130 116.5 L 174 116.5 C 174.83965 116.5 175.5 117.16035 175.5 118 C 175.5 118.83965 174.83965 119.5 174 119.5 L 130 119.5 C 129.16035 119.5 128.5 118.83965 128.5 118 C 128.5 117.16035 129.16035 116.5 130 116.5 z M 50 132 C 48.892 132 48 132.892 48 134 C 48 135.108 48.892 136 50 136 L 158 136 C 159.108 136 160 135.108 160 134 C 160 132.892 159.108 132 158 132 L 50 132 z M 50 132.5 L 158 132.5 C 158.83965 132.5 159.5 133.16035 159.5 134 C 159.5 134.83965 158.83965 135.5 158 135.5 L 50 135.5 C 49.160352 135.5 48.5 134.83965 48.5 134 C 48.5 133.16035 49.160352 132.5 50 132.5 z M 50 148 C 48.892 148 48 148.892 48 150 C 48 151.108 48.892 152 50 152 L 126 152 C 127.108 152 128 151.108 128 150 C 128 148.892 127.108 148 126 148 L 50 148 z M 50 148.5 L 126 148.5 C 126.83965 148.5 127.5 149.16035 127.5 150 C 127.5 150.83965 126.83965 151.5 126 151.5 L 50 151.5 C 49.160352 151.5 48.5 150.83965 48.5 150 C 48.5 149.16035 49.160352 148.5 50 148.5 z " fill="currentColor" opacity="0.6"/>
</svg>