<?xml version="1.0" encoding="utf-8"?>
<svg height="40" version="1.1" viewBox="0 0 56 40" width="56" xmlns="http://www.w3.org/2000/svg" xmlns:svg="http://www.w3.org/2000/svg" xmlns:xlink="http://www.w3.org/1999/xlink">
 <namedview bordercolor="#666666" borderopacity="1.0" id="namedview-conformist" pagecolor="#ffffff" pageopacity="0.0" pageshadow="0" showgrid="true">
  <grid class="ColorScheme-Background" empspacing="4" fill="currentColor" opacity="0.6" type="xygrid"/>
 </namedview>
 <defs id="primary-definitions">
  <style class="ColorScheme-Background" fill="currentColor" opacity="0.6" type="text/css">
   .ColorScheme-Text           { color:#eff0f1; }
      .ColorScheme-Background     { color:#31363b; }
      .ColorScheme-Highlight      { color:#3daefd; }
      .ColorScheme-ViewBackground { color:#fcfcfc; }
      .ColorScheme-PositiveText   { color:#27ae60; }
      .ColorScheme-NeutralText    { color:#f67400; }
      .ColorScheme-NegativeText   { color:#da4453; }
  </style>
 </defs>
 <path class="ColorScheme-Background" d="M 10 8 C 8.892 8 8 8.892 8 10 L 8 40 L 9 40 L 9 10 C 9 9.446 9.446 9 10 9 L 34 9 L 34 21 C 34 21.554 34.446 22 35 22 L 47 22 L 47 40 L 48 40 L 48 22 L 34 8 L 10 8 z M 13 12 C 12.446 12 12 12.446 12 13 C 12 13.554 12.446 14 13 14 L 25 14 C 25.554 14 26 13.554 26 13 C 26 12.446 25.554 12 25 12 L 13 12 z M 14 17 C 12.892 17 12 17.892 12 19 L 12 28 C 12 29.108 12.892 30 14 30 L 28 30 C 29.108 30 30 29.108 30 28 L 30 19 C 30 17.892 29.108 17 28 17 L 14 17 z M 14 18 L 28 18 C 28.554 18 29 18.446 29 19 L 29 26.015625 L 24.609375 21.666016 C 24.345565 21.403787 24.005494 21.273467 23.666016 21.273438 C 23.326537 21.273408 22.98865 21.40402 22.724609 21.666016 L 15.333984 29 L 14 29 C 13.948197 29 13.899248 28.991898 13.849609 28.984375 L 19.166016 23.666016 L 18.275391 22.767578 C 18.013086 22.503845 17.674626 22.375412 17.335938 22.376953 C 16.99725 22.378453 16.658983 22.510008 16.390625 22.767578 L 13 26.164062 L 13 19 C 13 18.446 13.446 18 14 18 z M 15 19 C 14.447715 19 14 19.447715 14 20 C 14 20.552285 14.447715 21 15 21 C 15.552285 21 16 20.552285 16 20 C 16 19.447715 15.552285 19 15 19 z M 32.5 25 C 32.223 25 32 25.223 32 25.5 C 32 25.777 32.223 26 32.5 26 L 41.5 26 C 41.777 26 42 25.777 42 25.5 C 42 25.223 41.777 25 41.5 25 L 32.5 25 z M 32.5 29 C 32.223 29 32 29.223 32 29.5 C 32 29.777 32.223 30 32.5 30 L 43.5 30 C 43.777 30 44 29.777 44 29.5 C 44 29.223 43.777 29 43.5 29 L 32.5 29 z M 12.5 33 C 12.223 33 12 33.223 12 33.5 C 12 33.777 12.223 34 12.5 34 L 39.5 34 C 39.777 34 40 33.777 40 33.5 C 40 33.223 39.777 33 39.5 33 L 12.5 33 z M 12.5 37 C 12.223 37 12 37.223 12 37.5 C 12 37.777 12.223 38 12.5 38 L 31.5 38 C 31.777 38 32 37.777 32 37.5 C 32 37.223 31.777 37 31.5 37 L 12.5 37 z " fill="currentColor" opacity="0.6"/>
 <path class="ColorScheme-Background" d="M 10 8 C 8.892 8 8 8.892 8 10 L 8 40 L 9 40 L 9 10 C 9 9.446 9.446 9 10 9 L 34 9 L 34 21 C 34 21.554 34.446 22 35 22 L 47 22 L 47 40 L 48 40 L 48 22 L 34 8 L 10 8 z M 34.5 9.2070312 L 46.792969 21.5 L 35 21.5 C 34.714352 21.5 34.5 21.285648 34.5 21 L 34.5 9.2070312 z M 13 12 C 12.446 12 12 12.446 12 13 C 12 13.554 12.446 14 13 14 L 25 14 C 25.554 14 26 13.554 26 13 C 26 12.446 25.554 12 25 12 L 13 12 z M 13 12.5 L 25 12.5 C 25.285648 12.5 25.5 12.714352 25.5 13 C 25.5 13.285648 25.285648 13.5 25 13.5 L 13 13.5 C 12.714352 13.5 12.5 13.285648 12.5 13 C 12.5 12.714352 12.714352 12.5 13 12.5 z M 14 17 C 12.892 17 12 17.892 12 19 L 12 28 C 12 29.108 12.892 30 14 30 L 28 30 C 29.108 30 30 29.108 30 28 L 30 19 C 30 17.892 29.108 17 28 17 L 14 17 z M 14 17.5 C 13.177649 17.5 12.5 18.177649 12.5 19 C 12.5 18.160352 13.160352 17.5 14 17.5 z M 28 17.5 C 28.839648 17.5 29.5 18.160352 29.5 19 C 29.5 18.177649 28.822351 17.5 28 17.5 z M 14 18 L 28 18 C 28.554 18 29 18.446 29 19 L 29 26.015625 L 24.609375 21.666016 C 24.345565 21.403787 24.005494 21.273467 23.666016 21.273438 C 23.326537 21.273408 22.98865 21.40402 22.724609 21.666016 L 15.333984 29 L 14 29 C 13.9482 29 13.899248 28.991905 13.849609 28.984375 L 19.166016 23.666016 L 18.275391 22.767578 C 18.013086 22.503845 17.674626 22.375412 17.335938 22.376953 C 16.997249 22.378453 16.658983 22.510008 16.390625 22.767578 L 13 26.164062 L 13 19 C 13 18.446 13.446 18 14 18 z M 15 19 C 14.447715 19 14 19.447715 14 20 C 14 20.552285 14.447715 21 15 21 C 15.552285 21 16 20.552285 16 20 C 16 19.447715 15.552285 19 15 19 z M 15 19.5 C 15.282065 19.5 15.5 19.717935 15.5 20 C 15.5 20.282065 15.282065 20.5 15 20.5 C 14.717935 20.5 14.5 20.282065 14.5 20 C 14.5 19.717935 14.717935 19.5 15 19.5 z M 23.666016 21.773438 C 23.877561 21.773457 24.087632 21.852327 24.257812 22.021484 L 29.5 27.214844 L 29.5 28 C 29.5 28.839648 28.839648 29.5 28 29.5 L 15.539062 29.5 L 23.076172 22.021484 C 23.247799 21.851187 23.454814 21.77342 23.666016 21.773438 z M 17.337891 22.876953 C 17.548664 22.875994 17.752034 22.952293 17.919922 23.121094 L 18.460938 23.664062 L 13.025391 29.101562 C 12.713748 28.828403 12.5 28.455307 12.5 28 L 12.5 27.373047 L 16.736328 23.128906 C 16.914609 22.957792 17.1272 22.877886 17.337891 22.876953 z M 32.5 25 C 32.223 25 32 25.223 32 25.5 C 32 25.777 32.223 26 32.5 26 L 41.5 26 C 41.777 26 42 25.777 42 25.5 C 42 25.223 41.777 25 41.5 25 L 32.5 25 z M 32.5 29 C 32.223 29 32 29.223 32 29.5 C 32 29.777 32.223 30 32.5 30 L 43.5 30 C 43.777 30 44 29.777 44 29.5 C 44 29.223 43.777 29 43.5 29 L 32.5 29 z M 12.5 33 C 12.223 33 12 33.223 12 33.5 C 12 33.777 12.223 34 12.5 34 L 39.5 34 C 39.777 34 40 33.777 40 33.5 C 40 33.223 39.777 33 39.5 33 L 12.5 33 z M 12.5 37 C 12.223 37 12 37.223 12 37.5 C 12 37.777 12.223 38 12.5 38 L 31.5 38 C 31.777 38 32 37.777 32 37.5 C 32 37.223 31.777 37 31.5 37 L 12.5 37 z " fill="currentColor" opacity="0.6"/>
</svg>