<?xml version="1.0" encoding="utf-8"?>
<svg height="20" version="1.1" viewBox="0 0 28 20" width="28" xmlns="http://www.w3.org/2000/svg" xmlns:svg="http://www.w3.org/2000/svg" xmlns:xlink="http://www.w3.org/1999/xlink">
 <namedview bordercolor="#666666" borderopacity="1.0" id="namedview-conformist" pagecolor="#ffffff" pageopacity="0.0" pageshadow="0" showgrid="true">
  <grid class="ColorScheme-Background" empspacing="4" fill="currentColor" opacity="0.6" type="xygrid"/>
 </namedview>
 <defs id="primary-definitions">
  <style class="ColorScheme-Background" fill="currentColor" opacity="0.6" type="text/css">
   .ColorScheme-Text           { color:#eff0f1; }
      .ColorScheme-Background     { color:#31363b; }
      .ColorScheme-Highlight      { color:#3daefd; }
      .ColorScheme-ViewBackground { color:#fcfcfc; }
      .ColorScheme-PositiveText   { color:#27ae60; }
      .ColorScheme-NeutralText    { color:#f67400; }
      .ColorScheme-NegativeText   { color:#da4453; }
  </style>
 </defs>
 <path class="ColorScheme-Background" d="M 11 0 L 11 8 L 9.5 8 C 8.609363 8.0003498 8.1634127 9.0770363 8.7929688 9.7070312 L 14 15 L 19.207031 9.7070312 C 19.836587 9.0770363 19.390637 8.0003498 18.5 8 L 17 8 L 17 0 L 11 0 z M 8 14 C 7.723 14 7.4030639 14.06228 7.2929688 14.292969 L 6 17 L 6 18 C 6 18.570914 6.446 19 7 19 L 21 19 C 21.554 19 22 18.598257 22 18 L 22 17 L 20.707031 14.292969 C 20.596934 14.062275 20.277 14 20 14 L 16.414062 14 L 14.707031 15.707031 A 1.0001 1.0001 0 0 1 13.292969 15.707031 L 11.585938 14 L 8 14 z " fill="currentColor" opacity="0.6" stroke-linejoin="round"/>
 <path class="ColorScheme-Background" d="M 11 0 L 11 8 L 9.5 8 C 8.609363 8.0003498 8.1634127 9.0770364 8.7929688 9.7070312 L 14 15 L 19.207031 9.7070312 C 19.836587 9.0770364 19.390637 8.0003498 18.5 8 L 17 8 L 17 0 L 11 0 z M 11.5 0.5 L 16.5 0.5 L 16.5 8 A 0.50005 0.50005 0 0 0 17 8.5 L 18.5 8.5 C 18.743869 8.5000958 18.886473 8.6288082 18.960938 8.8085938 C 19.035408 8.9883792 19.025897 9.1810144 18.853516 9.3535156 A 0.50005 0.50005 0 0 0 18.851562 9.3554688 L 14 14.287109 L 9.1484375 9.3554688 A 0.50005 0.50005 0 0 0 9.1464844 9.3535156 C 8.9741002 9.1810112 8.9645975 8.9883792 9.0390625 8.8085938 C 9.1135275 8.6288081 9.2561314 8.5000958 9.5 8.5 L 11 8.5 A 0.50005 0.50005 0 0 0 11.5 8 L 11.5 0.5 z M 8 14 C 7.723 14 7.4030639 14.06228 7.2929688 14.292969 L 6 17 L 6 18 C 6 18.570914 6.446 19 7 19 L 21 19 C 21.554 19 22 18.598257 22 18 L 22 17 L 20.707031 14.292969 C 20.596934 14.062275 20.277 14 20 14 L 16.414062 14 L 14.707031 15.707031 A 1.0001 1.0001 0 0 1 13.292969 15.707031 L 11.585938 14 L 8 14 z M 8 14.5 L 11.378906 14.5 L 12.939453 16.060547 C 13.521045 16.641897 14.478955 16.641897 15.060547 16.060547 L 16.621094 14.5 L 20 14.5 C 20.10103 14.5 20.202602 14.516133 20.251953 14.533203 C 20.269645 14.539323 20.269499 14.538939 20.271484 14.539062 L 21.5 17.113281 L 21.5 18 C 21.5 18.349757 21.312277 18.5 21 18.5 L 7 18.5 C 6.7041748 18.5 6.5 18.310513 6.5 18 L 6.5 17.113281 L 7.7285156 14.539062 C 7.7305026 14.538938 7.7303529 14.539323 7.7480469 14.533203 C 7.7973962 14.516131 7.898973 14.5 8 14.5 z " fill="currentColor" opacity="0.6" stroke-linejoin="round"/>
</svg>