<?xml version="1.0" encoding="utf-8"?>
<svg height="160" version="1.1" viewBox="0 0 224 160" width="224" xmlns="http://www.w3.org/2000/svg" xmlns:svg="http://www.w3.org/2000/svg" xmlns:xlink="http://www.w3.org/1999/xlink">
 <namedview bordercolor="#666666" borderopacity="1.0" id="namedview-conformist" pagecolor="#ffffff" pageopacity="0.0" pageshadow="0" showgrid="true">
  <grid class="ColorScheme-Background" empspacing="4" fill="currentColor" opacity="0.6" type="xygrid"/>
 </namedview>
 <defs id="primary-definitions">
  <style class="ColorScheme-Background" fill="currentColor" opacity="0.6" type="text/css">
   .ColorScheme-Text           { color:#eff0f1; }
      .ColorScheme-Background     { color:#31363b; }
      .ColorScheme-Highlight      { color:#3daefd; }
      .ColorScheme-ViewBackground { color:#fcfcfc; }
      .ColorScheme-PositiveText   { color:#27ae60; }
      .ColorScheme-NeutralText    { color:#f67400; }
      .ColorScheme-NegativeText   { color:#da4453; }
  </style>
 </defs>
 <path class="ColorScheme-Background" d="M 88 0 L 88 66 L 70 66 C 68.218743 66.0007 67.326836 68.154084 68.585938 69.414062 L 112 112.99805 L 155.41406 69.414062 C 156.67317 68.154084 155.78126 66.0007 154 66 L 136 66 L 136 0 L 88 0 z M 69.333984 96 C 67.117984 96 64.625703 96.529055 63.671875 98.337891 L 50.666016 123 C 48.59876 126.92034 54.234016 131 58.666016 131 L 165.33398 131 C 169.76598 131 175.40124 126.92034 173.33398 123 L 160.32812 98.337891 C 159.37428 96.529022 156.88202 96 154.66602 96 L 130.34375 96 L 112.70898 113.70508 A 1.0001 1.0001 0 0 1 111.29102 113.70508 L 93.65625 96 L 69.333984 96 z M 50 127.35352 L 50 135.3125 C 50 139.7445 53.568 144 58 144 L 166 144 C 170.432 144 174 139.74173 174 135.3125 L 174 127.35352 C 172.82861 129.96587 169.15608 132 166 132 L 58 132 C 54.843924 132 51.171384 129.96587 50 127.35352 z M 156 136 A 2 2 0 0 1 158 138 A 2 2 0 0 1 156 140 A 2 2 0 0 1 154 138 A 2 2 0 0 1 156 136 z M 164 136 A 2 2 0 0 1 166 138 A 2 2 0 0 1 164 140 A 2 2 0 0 1 162 138 A 2 2 0 0 1 164 136 z " fill="currentColor" opacity="0.6" paint-order="stroke fill markers" stop-color="#000000" stroke-linecap="round" stroke-linejoin="round"/>
 <path class="ColorScheme-Background" d="M 88 0 L 88 66 L 70 66 C 68.218743 66.0007 67.326836 68.154084 68.585938 69.414062 L 112 112.99805 L 155.41406 69.414062 C 156.67317 68.154084 155.78126 66.0007 154 66 L 136 66 L 136 0 L 88 0 z M 88.5 0.5 L 135.5 0.5 L 135.5 66 A 0.50005 0.50005 0 0 0 136 66.5 L 154 66.5 C 154.68918 66.500271 155.16618 66.898029 155.38477 67.425781 C 155.60335 67.953534 155.5477 68.573056 155.06055 69.060547 L 112 112.28906 L 68.939453 69.060547 C 68.452302 68.573056 68.396645 67.953534 68.615234 67.425781 C 68.833823 66.898028 69.310825 66.500271 70 66.5 L 88 66.5 A 0.50005 0.50005 0 0 0 88.5 66 L 88.5 0.5 z M 69.333984 96 C 67.117984 96 64.625703 96.529055 63.671875 98.337891 L 50.666016 123 C 48.59876 126.92034 54.234016 131 58.666016 131 L 165.33398 131 C 169.76598 131 175.40124 126.92034 173.33398 123 L 160.32812 98.337891 C 159.37428 96.529022 156.88202 96 154.66602 96 L 130.34375 96 L 112.70898 113.70508 A 1.0001 1.0001 0 0 1 111.29102 113.70508 L 93.65625 96 L 69.333984 96 z M 69.333984 96.5 L 93.449219 96.5 L 110.9375 114.05859 C 111.51969 114.64377 112.48031 114.64377 113.0625 114.05859 L 130.55078 96.5 L 154.66602 96.5 C 155.73423 96.5 156.86271 96.631709 157.80469 96.962891 C 158.74667 97.294073 159.48423 97.807021 159.88672 98.570312 L 172.89258 123.23242 C 173.34899 124.09795 173.37408 124.9247 173.10352 125.74805 C 172.83295 126.57139 172.24205 127.38468 171.43945 128.0957 C 169.83427 129.51776 167.39657 130.5 165.33398 130.5 L 58.666016 130.5 C 56.603435 130.5 54.165731 129.51776 52.560547 128.0957 C 51.757955 127.38468 51.167046 126.57139 50.896484 125.74805 C 50.625922 124.9247 50.651015 124.09795 51.107422 123.23242 L 64.113281 98.570312 C 64.515767 97.80704 65.253327 97.294077 66.195312 96.962891 C 67.137298 96.631704 68.265776 96.5 69.333984 96.5 z M 50 127.35352 L 50 135.3125 C 50 139.7445 53.568 144 58 144 L 166 144 C 170.432 144 174 139.74173 174 135.3125 L 174 127.35352 C 172.82861 129.96587 169.15608 132 166 132 L 58 132 C 54.843924 132 51.171384 129.96587 50 127.35352 z M 50.5 128.92383 C 52.210183 131.04572 55.208288 132.5 58 132.5 L 166 132.5 C 168.79172 132.5 171.78982 131.04572 173.5 128.92383 L 173.5 135.3125 C 173.5 139.47321 170.11173 143.5 166 143.5 L 58 143.5 C 53.888063 143.5 50.5 139.47614 50.5 135.3125 L 50.5 128.92383 z M 156 135.5 C 154.62521 135.5 153.5 136.62521 153.5 138 C 153.5 139.37479 154.62521 140.5 156 140.5 C 157.37479 140.5 158.5 139.37479 158.5 138 C 158.5 136.62521 157.37479 135.5 156 135.5 z M 164 135.5 C 162.62521 135.5 161.5 136.62521 161.5 138 C 161.5 139.37479 162.62521 140.5 164 140.5 C 165.37479 140.5 166.5 139.37479 166.5 138 C 166.5 136.62521 165.37479 135.5 164 135.5 z M 156 136 A 2 2 0 0 1 158 138 A 2 2 0 0 1 156 140 A 2 2 0 0 1 154 138 A 2 2 0 0 1 156 136 z M 164 136 A 2 2 0 0 1 166 138 A 2 2 0 0 1 164 140 A 2 2 0 0 1 162 138 A 2 2 0 0 1 164 136 z " fill="currentColor" opacity="0.6" paint-order="stroke fill markers" stroke-linecap="round" stroke-linejoin="round"/>
</svg>