<?xml version="1.0" encoding="utf-8"?>
<svg height="60" version="1.1" viewBox="0 0 84 60" width="84" xmlns="http://www.w3.org/2000/svg" xmlns:svg="http://www.w3.org/2000/svg" xmlns:xlink="http://www.w3.org/1999/xlink">
 <namedview bordercolor="#666666" borderopacity="1.0" id="namedview-conformist" pagecolor="#ffffff" pageopacity="0.0" pageshadow="0" showgrid="true">
  <grid class="ColorScheme-Background" empspacing="4" fill="currentColor" opacity="0.6" type="xygrid"/>
 </namedview>
 <defs id="primary-definitions">
  <style class="ColorScheme-Background" fill="currentColor" opacity="0.6" type="text/css">
   .ColorScheme-Text           { color:#eff0f1; }
      .ColorScheme-Background     { color:#31363b; }
      .ColorScheme-Highlight      { color:#3daefd; }
      .ColorScheme-ViewBackground { color:#fcfcfc; }
      .ColorScheme-PositiveText   { color:#27ae60; }
      .ColorScheme-NeutralText    { color:#f67400; }
      .ColorScheme-NegativeText   { color:#da4453; }
  </style>
 </defs>
 <path class="ColorScheme-Background" d="M 32 0 L 32 27 L 27 27 C 26.109363 27.00035 25.663413 28.077036 26.292969 28.707031 L 42 44.5 L 57.707031 28.707031 C 58.336587 28.077036 57.890637 27.00035 57 27 L 52 27 L 52 0 L 32 0 z M 26 38 C 25.169 38 24.238456 38.200667 23.876953 38.876953 L 19 48 C 18.216505 49.465734 20.338 51 22 51 L 62 51 C 63.662 51 65.783494 49.465733 65 48 L 60.123047 38.876953 C 59.761537 38.200654 58.831 38 58 38 L 49.875 38 L 42.708984 45.205078 A 1.0001 1.0001 0 0 1 41.291016 45.205078 L 34.125 38 L 26 38 z M 18.5 49.75 L 18.5 53 C 18.5 54.661998 19.838 56 21.5 56 L 62.5 56 C 64.162 56 65.5 54.66096 65.5 53 L 65.5 49.75 C 65.5 51 63.683528 52 62.5 52 L 21.5 52 C 20.316472 52 18.5 51 18.5 49.75 z M 58 53 A 1 1 0 0 1 59 54 A 1 1 0 0 1 58 55 A 1 1 0 0 1 57 54 A 1 1 0 0 1 58 53 z M 62 53 A 1 1 0 0 1 63 54 A 1 1 0 0 1 62 55 A 1 1 0 0 1 61 54 A 1 1 0 0 1 62 53 z " fill="currentColor" opacity="0.6" paint-order="stroke fill markers" stop-color="#000000" stroke-linecap="round" stroke-linejoin="round"/>
 <path class="ColorScheme-Background" d="M 32 0 L 32 27 L 27 27 C 26.109363 27.00035 25.663413 28.077036 26.292969 28.707031 L 42 44.5 L 57.707031 28.707031 C 58.336587 28.077036 57.890637 27.00035 57 27 L 52 27 L 52 0 L 32 0 z M 32.5 0.5 L 51.5 0.5 L 51.5 27 A 0.50005 0.50005 0 0 0 52 27.5 L 57 27.5 C 57.243869 27.500096 57.386474 27.628808 57.460938 27.808594 C 57.535398 27.988379 57.525897 28.181014 57.353516 28.353516 A 0.50005 0.50005 0 0 0 57.351562 28.353516 L 42 43.789062 L 26.648438 28.353516 A 0.50005 0.50005 0 0 0 26.646484 28.353516 C 26.47415 28.181014 26.464598 27.988379 26.539062 27.808594 C 26.613528 27.628808 26.756131 27.500096 27 27.5 L 32 27.5 A 0.50005 0.50005 0 0 0 32.5 27 L 32.5 0.5 z M 26 38 C 25.169 38 24.238456 38.200667 23.876953 38.876953 L 19 48 C 18.216505 49.465734 20.338 51 22 51 L 62 51 C 63.662 51 65.783494 49.465733 65 48 L 60.123047 38.876953 C 59.761537 38.200654 58.831 38 58 38 L 49.875 38 L 42.708984 45.205078 A 1.0001 1.0001 0 0 1 41.291016 45.205078 L 34.125 38 L 26 38 z M 26 38.5 L 33.917969 38.5 L 40.935547 45.558594 A 0.50005 0.50005 0 0 0 40.9375 45.558594 C 41.519695 46.143775 42.480305 46.143775 43.0625 45.558594 A 0.50005 0.50005 0 0 0 43.064453 45.558594 L 50.082031 38.5 L 58 38.5 C 58.375256 38.5 58.76569 38.54875 59.070312 38.65625 C 59.374936 38.763751 59.575275 38.914297 59.681641 39.113281 L 64.558594 48.236328 C 64.693147 48.488045 64.699401 48.692679 64.621094 48.931641 C 64.542784 49.170603 64.356437 49.436297 64.085938 49.675781 C 63.544939 50.154749 62.677142 50.5 62 50.5 L 22 50.5 C 21.322858 50.5 20.455062 50.154749 19.914062 49.675781 C 19.643563 49.436297 19.457214 49.170603 19.378906 48.931641 C 19.300596 48.692679 19.306856 48.488045 19.441406 48.236328 L 24.318359 39.113281 C 24.42472 38.914306 24.625062 38.763753 24.929688 38.65625 C 25.234313 38.548747 25.624746 38.5 26 38.5 z M 18.5 49.75 L 18.5 53 C 18.5 54.661998 19.838 56 21.5 56 L 62.5 56 C 64.162 56 65.5 54.66096 65.5 53 L 65.5 49.75 C 65.5 51 63.683528 52 62.5 52 L 21.5 52 C 20.316472 52 18.5 51 18.5 49.75 z M 19 51.494141 C 19.09963 51.575941 19.171559 51.686433 19.277344 51.757812 C 19.960158 52.218554 20.767415 52.5 21.5 52.5 L 58 52.5 L 62 52.5 L 62.5 52.5 C 63.232585 52.5 64.039842 52.218554 64.722656 51.757812 C 64.828441 51.686433 64.90037 51.575938 65 51.494141 L 65 53 C 65 54.392439 63.893439 55.5 62.5 55.5 L 62 55.5 L 58 55.5 L 21.5 55.5 C 20.106353 55.5 19 54.393645 19 53 L 19 51.494141 z M 58 55.5 C 58.822504 55.5 59.5 54.822504 59.5 54 C 59.5 53.177496 58.822504 52.5 58 52.5 C 57.177496 52.5 56.5 53.177496 56.5 54 C 56.5 54.822504 57.177496 55.5 58 55.5 z M 62 55.5 C 62.822504 55.5 63.5 54.822504 63.5 54 C 63.5 53.177496 62.822504 52.5 62 52.5 C 61.177496 52.5 60.5 53.177496 60.5 54 C 60.5 54.822504 61.177496 55.5 62 55.5 z M 58 53 A 1 1 0 0 1 59 54 A 1 1 0 0 1 58 55 A 1 1 0 0 1 57 54 A 1 1 0 0 1 58 53 z M 62 53 A 1 1 0 0 1 63 54 A 1 1 0 0 1 62 55 A 1 1 0 0 1 61 54 A 1 1 0 0 1 62 53 z " fill="currentColor" opacity="0.6" paint-order="stroke fill markers" stroke-linecap="round" stroke-linejoin="round"/>
</svg>