<?xml version="1.0" encoding="utf-8"?>
<svg height="60" version="1.1" viewBox="0 0 84 60" width="84" xmlns="http://www.w3.org/2000/svg" xmlns:svg="http://www.w3.org/2000/svg" xmlns:xlink="http://www.w3.org/1999/xlink">
 <namedview bordercolor="#666666" borderopacity="1.0" id="namedview-conformist" pagecolor="#ffffff" pageopacity="0.0" pageshadow="0" showgrid="true">
  <grid class="ColorScheme-Background" empspacing="4" fill="currentColor" opacity="0.6" type="xygrid"/>
 </namedview>
 <defs id="primary-definitions">
  <style class="ColorScheme-Background" fill="currentColor" opacity="0.6" type="text/css">
   .ColorScheme-Text           { color:#eff0f1; }
      .ColorScheme-Background     { color:#31363b; }
      .ColorScheme-Highlight      { color:#3daefd; }
      .ColorScheme-ViewBackground { color:#fcfcfc; }
      .ColorScheme-PositiveText   { color:#27ae60; }
      .ColorScheme-NeutralText    { color:#f67400; }
      .ColorScheme-NegativeText   { color:#da4453; }
  </style>
 </defs>
 <path class="ColorScheme-Background" d="M 28.5 22.5 C 25.5 22.5 16.5 24 13.5 27 C 9.1685634 36.529161 6 48 6 55.5 C 6 57.276982 6.0300641 58.749438 6.2148438 60 L 18.857422 60 L 24 55.5 C 24 55.5 25.5 54 27 54 L 57 54 C 58.5 54 60 55.5 60 55.5 L 65.142578 60 L 77.785156 60 C 77.969936 58.749438 78 57.276982 78 55.5 C 78 48 74.831436 36.529161 70.5 27 C 67.5 24 58.5 22.5 55.5 22.5 C 54 22.5 54 24 54 24 L 52.5 34.5 C 52.5 34.5 52.5 36 51 36 L 33 36 C 31.5 36 31.5 34.5 31.5 34.5 L 30 24 C 30 24 30 22.5 28.5 22.5 z M 40.380859 22.5 C 36.909283 22.5098 33.44377 22.58721 30.851562 23.167969 C 30.958724 23.495116 30.98195 23.723458 30.990234 23.859375 L 32.5 34.429688 L 32.5 34.5 C 32.5 34.5 32.513791 34.666248 32.582031 34.802734 C 32.650279 34.93922 32.583334 35 33 35 L 51 35 C 51.416666 35 51.349725 34.93922 51.417969 34.802734 C 51.486209 34.666248 51.5 34.5 51.5 34.5 L 51.5 34.429688 L 53.009766 23.859375 C 53.018066 23.723458 53.041246 23.495116 53.148438 23.167969 C 50.190356 22.500841 46.327729 22.5 42 22.5 C 41.4375 22.5 40.899413 22.4985 40.380859 22.5 z M 27 26 C 27.552285 26 28 26.447715 28 27 C 28 27.552285 27.552285 28 27 28 C 26.447715 28 26 27.552285 26 27 C 26 26.447715 26.447715 26 27 26 z M 57 26 C 57.552285 26 58 26.447715 58 27 C 58 27.552285 57.552285 28 57 28 C 56.447715 28 56 27.552285 56 27 C 56 26.447715 56.447715 26 57 26 z M 21 29 C 24.313708 29 27 31.686292 27 35 C 27 38.313708 24.313708 41 21 41 C 17.686292 41 15 38.313708 15 35 C 15 31.686292 17.686292 29 21 29 z M 63 29 C 64.104569 29 65 29.895431 65 31 C 65 32.104569 64.104569 33 63 33 C 61.895431 33 61 32.104569 61 31 C 61 29.895431 61.895431 29 63 29 z M 21 31 C 18.790861 31 17 32.790861 17 35 C 17 37.209139 18.790861 39 21 39 C 23.209139 39 25 37.209139 25 35 C 25 32.790861 23.209139 31 21 31 z M 59 33 C 60.104569 33 61 33.895431 61 35 C 61 36.104569 60.104569 37 59 37 C 57.895431 37 57 36.104569 57 35 C 57 33.895431 57.895431 33 59 33 z M 67 33 C 68.104569 33 69 33.895431 69 35 C 69 36.104569 68.104569 37 67 37 C 65.895431 37 65 36.104569 65 35 C 65 33.895431 65.895431 33 67 33 z M 63 37 C 64.104569 37 65 37.895431 65 39 C 65 40.104569 64.104569 41 63 41 C 61.895431 41 61 40.104569 61 39 C 61 37.895431 61.895431 37 63 37 z M 32 39 L 34 39 C 35.108 39 36 39.892 36 41 L 36 42 L 37 42 C 38.108 42 39 42.892 39 44 L 39 46 C 39 47.108 38.108 48 37 48 L 36 48 L 36 49 C 36 50.108 35.108 51 34 51 L 32 51 C 30.892 51 30 50.108 30 49 L 30 48 L 29 48 C 27.892 48 27 47.108 27 46 L 27 44 C 27 42.892 27.892 42 29 42 L 30 42 L 30 41 C 30 39.892 30.892 39 32 39 z M 51 39 C 54.313708 39 57 41.686292 57 45 C 57 48.313708 54.313708 51 51 51 C 47.686292 51 45 48.313708 45 45 C 45 41.686292 47.686292 39 51 39 z M 32 40 C 31.446 40 31 40.446 31 41 L 31 43 L 29 43 C 28.446 43 28 43.446 28 44 L 28 46 C 28 46.554 28.446 47 29 47 L 31 47 L 31 49 C 31 49.554 31.446 50 32 50 L 34 50 C 34.554 50 35 49.554 35 49 L 35 47 L 37 47 C 37.554 47 38 46.554 38 46 L 38 44 C 38 43.446 37.554 43 37 43 L 35 43 L 35 41 C 35 40.446 34.554 40 34 40 L 32 40 z M 51 41 C 48.790861 41 47 42.790861 47 45 C 47 47.209139 48.790861 49 51 49 C 53.209139 49 55 47.209139 55 45 C 55 42.790861 53.209139 41 51 41 z " fill="currentColor" opacity="0.6" stroke-linecap="butt" stroke-linejoin="miter" stroke-opacity="1"/>
 <path class="ColorScheme-Background" d="M 28.5 22.5 C 25.5 22.5 16.5 24 13.5 27 C 9.1685634 36.529161 6 48 6 55.5 C 6 57.276982 6.0300641 58.749438 6.2148438 60 L 18.857422 60 L 24 55.5 C 24 55.5 25.5 54 27 54 L 57 54 C 58.5 54 60 55.5 60 55.5 L 65.142578 60 L 77.785156 60 C 77.969936 58.749438 78 57.276982 78 55.5 C 78 48 74.831436 36.529161 70.5 27 C 67.5 24 58.5 22.5 55.5 22.5 C 54 22.5 54 24 54 24 L 52.5 34.5 C 52.5 34.5 52.5 36 51 36 L 33 36 C 31.5 36 31.5 34.5 31.5 34.5 L 30 24 C 30 24 30 22.5 28.5 22.5 z M 40.380859 22.5 C 36.909283 22.5098 33.44377 22.58721 30.851562 23.167969 C 30.958724 23.495116 30.98195 23.723458 30.990234 23.859375 L 32.5 34.429688 L 32.5 34.5 C 32.5 34.5 32.513791 34.666248 32.582031 34.802734 C 32.65028 34.93922 32.583334 35 33 35 L 51 35 C 51.416666 35 51.349725 34.93922 51.417969 34.802734 C 51.486209 34.666248 51.5 34.5 51.5 34.5 L 51.5 34.429688 L 53.009766 23.859375 C 53.018066 23.723458 53.041246 23.495116 53.148438 23.167969 C 50.190356 22.500839 46.327729 22.5 42 22.5 C 41.4375 22.5 40.899413 22.4985 40.380859 22.5 z M 28.5 23 C 29.083333 23 29.237363 23.216913 29.365234 23.472656 C 29.493106 23.728399 29.5 24 29.5 24 L 29.5 24.035156 L 31.005859 34.570312 C 31.00758 34.663443 31.021966 35.036131 31.240234 35.472656 C 31.487363 35.966913 32.083334 36.5 33 36.5 L 51 36.5 C 51.916666 36.5 52.512637 35.966913 52.759766 35.472656 C 52.978028 35.036131 52.992419 34.663443 52.994141 34.570312 L 54.5 24.035156 L 54.5 24 C 54.5 24 54.5069 23.728399 54.634766 23.472656 C 54.762637 23.216913 54.916667 23 55.5 23 C 56.916665 23 59.916954 23.368887 62.878906 24.109375 C 65.813064 24.842914 68.720238 25.982149 70.089844 27.318359 C 74.371774 36.772624 77.5 48.168571 77.5 55.5 C 77.5 57.100235 77.44653 58.369542 77.310547 59.5 L 65.330078 59.5 L 60.330078 55.123047 L 60.353516 55.146484 C 60.353516 55.146484 59.945012 54.73743 59.339844 54.333984 C 58.734673 53.930536 57.916666 53.5 57 53.5 L 27 53.5 C 26.083334 53.5 25.265325 53.930539 24.660156 54.333984 C 24.054988 54.73743 23.646484 55.146484 23.646484 55.146484 L 23.669922 55.123047 L 18.669922 59.5 L 6.6894531 59.5 C 6.5534652 58.369545 6.5 57.100235 6.5 55.5 C 6.5 48.168571 9.6282254 36.772624 13.910156 27.318359 C 15.279762 25.982149 18.186936 24.842914 21.121094 24.109375 C 24.083046 23.368887 27.083335 23 28.5 23 z M 40.382812 23 C 40.899402 22.9985 41.436612 23 42 23 C 46.116929 23 49.737879 23.04409 52.554688 23.601562 C 52.547387 23.663203 52.512456 23.780681 52.509766 23.824219 L 52.509766 23.828125 L 51 34.394531 L 51 34.466797 C 50.999226 34.470297 50.995288 34.48671 50.992188 34.5 L 33.007812 34.5 C 33.004712 34.48671 33.0008 34.470267 33 34.466797 L 33 34.394531 L 31.490234 23.828125 L 31.490234 23.824219 C 31.487534 23.779829 31.450929 23.660778 31.443359 23.597656 C 33.90864 23.115627 37.10977 23.00924 40.382812 23 z M 27 25.5 C 26.177496 25.5 25.5 26.177496 25.5 27 C 25.5 27.822504 26.177496 28.5 27 28.5 C 27.822504 28.5 28.5 27.822504 28.5 27 C 28.5 26.177496 27.822504 25.5 27 25.5 z M 57 25.5 C 56.177496 25.5 55.5 26.177496 55.5 27 C 55.5 27.822504 56.177496 28.5 57 28.5 C 57.822504 28.5 58.5 27.822504 58.5 27 C 58.5 26.177496 57.822504 25.5 57 25.5 z M 27 26 C 27.552285 26 28 26.447715 28 27 C 28 27.552285 27.552285 28 27 28 C 26.447715 28 26 27.552285 26 27 C 26 26.447715 26.447715 26 27 26 z M 57 26 C 57.552285 26 58 26.447715 58 27 C 58 27.552285 57.552285 28 57 28 C 56.447715 28 56 27.552285 56 27 C 56 26.447715 56.447715 26 57 26 z M 21 28.5 C 17.416075 28.5 14.5 31.416075 14.5 35 C 14.5 38.583925 17.416075 41.5 21 41.5 C 24.583925 41.5 27.5 38.583925 27.5 35 C 27.5 31.416075 24.583925 28.5 21 28.5 z M 63 28.5 C 61.625212 28.5 60.5 29.625212 60.5 31 C 60.5 32.374788 61.625212 33.5 63 33.5 C 64.374788 33.5 65.5 32.374788 65.5 31 C 65.5 29.625212 64.374788 28.5 63 28.5 z M 21 29 C 24.313708 29 27 31.686292 27 35 C 27 38.313708 24.313708 41 21 41 C 17.686292 41 15 38.313708 15 35 C 15 31.686292 17.686292 29 21 29 z M 63 29 C 64.104569 29 65 29.895431 65 31 C 65 32.104569 64.104569 33 63 33 C 61.895431 33 61 32.104569 61 31 C 61 29.895431 61.895431 29 63 29 z M 21 31 C 18.790861 31 17 32.790861 17 35 C 17 37.209139 18.790861 39 21 39 C 23.209139 39 25 37.209139 25 35 C 25 32.790861 23.209139 31 21 31 z M 21 31.5 C 22.938917 31.5 24.5 33.061083 24.5 35 C 24.5 36.938917 22.938917 38.5 21 38.5 C 19.061083 38.5 17.5 36.938917 17.5 35 C 17.5 33.061083 19.061083 31.5 21 31.5 z M 59 32.5 C 57.625212 32.5 56.5 33.625212 56.5 35 C 56.5 36.374788 57.625212 37.5 59 37.5 C 60.374788 37.5 61.5 36.374788 61.5 35 C 61.5 33.625212 60.374788 32.5 59 32.5 z M 67 32.5 C 65.625212 32.5 64.5 33.625212 64.5 35 C 64.5 36.374788 65.625212 37.5 67 37.5 C 68.374788 37.5 69.5 36.374788 69.5 35 C 69.5 33.625212 68.374788 32.5 67 32.5 z M 59 33 C 60.104569 33 61 33.895431 61 35 C 61 36.104569 60.104569 37 59 37 C 57.895431 37 57 36.104569 57 35 C 57 33.895431 57.895431 33 59 33 z M 67 33 C 68.104569 33 69 33.895431 69 35 C 69 36.104569 68.104569 37 67 37 C 65.895431 37 65 36.104569 65 35 C 65 33.895431 65.895431 33 67 33 z M 63 36.5 C 61.625212 36.5 60.5 37.625212 60.5 39 C 60.5 40.374788 61.625212 41.5 63 41.5 C 64.374788 41.5 65.5 40.374788 65.5 39 C 65.5 37.625212 64.374788 36.5 63 36.5 z M 63 37 C 64.104569 37 65 37.895431 65 39 C 65 40.104569 64.104569 41 63 41 C 61.895431 41 61 40.104569 61 39 C 61 37.895431 61.895431 37 63 37 z M 32 38.5 C 30.62365 38.5 29.5 39.62365 29.5 41 L 29.5 41.5 L 29 41.5 C 27.62365 41.5 26.5 42.62365 26.5 44 L 26.5 46 C 26.5 47.37635 27.62365 48.5 29 48.5 L 29.5 48.5 L 29.5 49 C 29.5 50.37635 30.62365 51.5 32 51.5 L 34 51.5 C 35.37635 51.5 36.5 50.37635 36.5 49 L 36.5 48.5 L 37 48.5 C 38.37635 48.5 39.5 47.37635 39.5 46 L 39.5 44 C 39.5 42.62365 38.37635 41.5 37 41.5 L 36.5 41.5 L 36.5 41 C 36.5 39.62365 35.37635 38.5 34 38.5 L 32 38.5 z M 51 38.5 C 47.416075 38.5 44.5 41.416075 44.5 45 C 44.5 48.583925 47.416075 51.5 51 51.5 C 54.583925 51.5 57.5 48.583925 57.5 45 C 57.5 41.416075 54.583925 38.5 51 38.5 z M 32 39 L 34 39 C 35.108 39 36 39.892 36 41 L 36 42 L 37 42 C 38.108 42 39 42.892 39 44 L 39 46 C 39 47.108 38.108 48 37 48 L 36 48 L 36 49 C 36 50.108 35.108 51 34 51 L 32 51 C 30.892 51 30 50.108 30 49 L 30 48 L 29 48 C 27.892 48 27 47.108 27 46 L 27 44 C 27 42.892 27.892 42 29 42 L 30 42 L 30 41 C 30 39.892 30.892 39 32 39 z M 51 39 C 54.313708 39 57 41.686292 57 45 C 57 48.313708 54.313708 51 51 51 C 47.686292 51 45 48.313708 45 45 C 45 41.686292 47.686292 39 51 39 z M 32 40 C 31.446 40 31 40.446 31 41 L 31 43 L 29 43 C 28.446 43 28 43.446 28 44 L 28 46 C 28 46.554 28.446 47 29 47 L 31 47 L 31 49 C 31 49.554 31.446 50 32 50 L 34 50 C 34.554 50 35 49.554 35 49 L 35 47 L 37 47 C 37.554 47 38 46.554 38 46 L 38 44 C 38 43.446 37.554 43 37 43 L 35 43 L 35 41 C 35 40.446 34.554 40 34 40 L 32 40 z M 32 40.5 L 34 40.5 C 34.285648 40.5 34.5 40.714352 34.5 41 L 34.5 43.5 L 37 43.5 C 37.285648 43.5 37.5 43.714352 37.5 44 L 37.5 46 C 37.5 46.285648 37.285648 46.5 37 46.5 L 34.5 46.5 L 34.5 49 C 34.5 49.285648 34.285648 49.5 34 49.5 L 32 49.5 C 31.714352 49.5 31.5 49.285648 31.5 49 L 31.5 46.5 L 29 46.5 C 28.714352 46.5 28.5 46.285648 28.5 46 L 28.5 44 C 28.5 43.714352 28.714352 43.5 29 43.5 L 31.5 43.5 L 31.5 41 C 31.5 40.714352 31.714352 40.5 32 40.5 z M 51 41 C 48.790861 41 47 42.790861 47 45 C 47 47.209139 48.790861 49 51 49 C 53.209139 49 55 47.209139 55 45 C 55 42.790861 53.209139 41 51 41 z M 51 41.5 C 52.938917 41.5 54.5 43.061083 54.5 45 C 54.5 46.938917 52.938917 48.5 51 48.5 C 49.061083 48.5 47.5 46.938917 47.5 45 C 47.5 43.061083 49.061083 41.5 51 41.5 z " fill="currentColor" opacity="0.6"/>
</svg>