<?xml version="1.0" encoding="utf-8"?>
<svg height="20" version="1.1" viewBox="0 0 28 20" width="28" xmlns="http://www.w3.org/2000/svg" xmlns:svg="http://www.w3.org/2000/svg" xmlns:xlink="http://www.w3.org/1999/xlink">
 <namedview bordercolor="#666666" borderopacity="1.0" id="namedview-conformist" pagecolor="#ffffff" pageopacity="0.0" pageshadow="0" showgrid="true">
  <grid class="ColorScheme-Background" empspacing="4" fill="currentColor" opacity="0.6" type="xygrid"/>
 </namedview>
 <defs id="primary-definitions">
  <style class="ColorScheme-Background" fill="currentColor" opacity="0.6" type="text/css">
   .ColorScheme-Text           { color:#eff0f1; }
      .ColorScheme-Background     { color:#31363b; }
      .ColorScheme-Highlight      { color:#3daefd; }
      .ColorScheme-ViewBackground { color:#fcfcfc; }
      .ColorScheme-PositiveText   { color:#27ae60; }
      .ColorScheme-NeutralText    { color:#f67400; }
      .ColorScheme-NegativeText   { color:#da4453; }
  </style>
 </defs>
 <path class="ColorScheme-Background" d="M 9.5,7.5 C 8.5,7.5 5.5,8 4.5,9 3.0561878,12.176387 2,16 2,18.5 c 0,0.592356 0.00871,1.083133 0.070312,1.5 H 6.2851562 L 8,18.5 C 8,18.5 8.5,18 9,18 h 10 c 0.5,0 1,0.5 1,0.5 l 1.714844,1.5 h 4.214844 C 25.991288,19.583133 26,19.092356 26,18.5 26,16 24.943812,12.176387 23.5,9 22.5,8 19.5,7.5 18.5,7.5 18,7.5 18,8 18,8 l -0.5,3.5 c 0,0 0,0.5 -0.5,0.5 h -6 c -0.5,0 -0.5,-0.5 -0.5,-0.5 L 10,8 C 10,8 10,7.5 9.5,7.5 Z m 3.960938,0 C 12.250977,7.503418 11.875,7.53125 11,7.75 L 11.5,11 h 5 L 17,7.75 C 16,7.5 15.5,7.5 14,7.5 c -0.1875,0 -0.366211,-4.89e-4 -0.539062,0 z M 21.5,9.5 c 0.414214,0 0.75,0.3357864 0.75,0.75 0,0.414214 -0.335786,0.75 -0.75,0.75 -0.414214,0 -0.75,-0.335786 -0.75,-0.75 0,-0.4142136 0.335786,-0.75 0.75,-0.75 z M 7,9 C 8.1045695,9 9,9.895431 9,11 9,12.104569 8.1045695,13 7,13 5.8954305,13 5,12.104569 5,11 5,9.895431 5.8954305,9 7,9 Z m 13.25,1.75 c 0.414214,0 0.75,0.335786 0.75,0.75 0,0.414214 -0.335786,0.75 -0.75,0.75 -0.414214,0 -0.75,-0.335786 -0.75,-0.75 0,-0.414214 0.335786,-0.75 0.75,-0.75 z m 2.5,0 c 0.414214,0 0.75,0.335786 0.75,0.75 0,0.414214 -0.335786,0.75 -0.75,0.75 -0.414214,0 -0.75,-0.335786 -0.75,-0.75 0,-0.414214 0.335786,-0.75 0.75,-0.75 z M 7,10 c -0.5522847,0 -1,0.447715 -1,1 0,0.552285 0.4477153,1 1,1 0.5522847,0 1,-0.447715 1,-1 0,-0.552285 -0.4477153,-1 -1,-1 z m 14.5,2 c 0.414214,0 0.75,0.335786 0.75,0.75 0,0.414214 -0.335786,0.75 -0.75,0.75 -0.414214,0 -0.75,-0.335786 -0.75,-0.75 0,-0.414214 0.335786,-0.75 0.75,-0.75 z M 11,13 c 1.104569,0 2,0.895431 2,2 0,1.104569 -0.895431,2 -2,2 -1.1045695,0 -2,-0.895431 -2,-2 0,-1.104569 0.8954305,-2 2,-2 z m 6,0 c 1.104569,0 2,0.895431 2,2 0,1.104569 -0.895431,2 -2,2 -1.104569,0 -2,-0.895431 -2,-2 0,-1.104569 0.895431,-2 2,-2 z m -6,1 c -0.552285,0 -1,0.447715 -1,1 0,0.552285 0.447715,1 1,1 0.552285,0 1,-0.447715 1,-1 0,-0.552285 -0.447715,-1 -1,-1 z m 6,0 c -0.552285,0 -1,0.447715 -1,1 0,0.552285 0.447715,1 1,1 0.552285,0 1,-0.447715 1,-1 0,-0.552285 -0.447715,-1 -1,-1 z" fill="currentColor" opacity="0.6" stroke-linecap="butt" stroke-linejoin="miter" stroke-opacity="1"/>
 <path class="ColorScheme-Background" d="M 9.5 7.5 C 8.5 7.5 5.5 8 4.5 9 C 3.0561878 12.176387 2 16 2 18.5 C 2 19.092356 2.0087105 19.583133 2.0703125 20 L 6.2851562 20 L 8 18.5 C 8 18.5 8.5 18 9 18 L 19 18 C 19.5 18 20 18.5 20 18.5 L 21.714844 20 L 25.929688 20 C 25.991288 19.583133 26 19.092356 26 18.5 C 26 16 24.943812 12.176387 23.5 9 C 22.5 8 19.5 7.5 18.5 7.5 C 18 7.5 18 8 18 8 L 17.5 11.5 C 17.5 11.5 17.5 12 17 12 L 11 12 C 10.5 12 10.5 11.5 10.5 11.5 L 10 8 C 10 8 10 7.5 9.5 7.5 z M 13.460938 7.5 C 12.250977 7.503418 11.875 7.53125 11 7.75 L 11.5 11 L 16.5 11 L 17 7.75 C 16 7.5 15.5 7.5 14 7.5 C 13.8125 7.5 13.633789 7.499511 13.460938 7.5 z M 9.5 8 L 9.5 8.0351562 L 10.005859 11.570312 C 10.009409 11.644889 10.022822 11.787825 10.115234 11.972656 C 10.237363 12.216913 10.583334 12.5 11 12.5 L 17 12.5 C 17.416666 12.5 17.762637 12.216913 17.884766 11.972656 C 17.977181 11.787825 17.990591 11.644889 17.994141 11.570312 L 17.994141 11.568359 L 18.5 8.0351562 L 18.5 8 C 18.916666 8 19.916952 8.1188864 20.878906 8.359375 C 21.81605 8.593661 22.714514 8.9822769 23.087891 9.328125 C 23.266459 9.7257237 23.368519 10.163609 23.533203 10.578125 C 23.315165 10.39383 23.054264 10.25 22.75 10.25 C 22.75 9.5655674 22.184433 9 21.5 9 C 20.815567 9 20.25 9.5655674 20.25 10.25 C 19.565567 10.25 19 10.815567 19 11.5 C 19 12.184433 19.565567 12.75 20.25 12.75 C 20.25 13.434433 20.815567 14 21.5 14 C 22.184433 14 22.75 13.434433 22.75 12.75 C 23.365419 12.75 23.82731 12.267515 23.925781 11.677734 C 24.815119 14.176385 25.5 16.731523 25.5 18.5 C 25.5 18.911454 25.476858 19.198072 25.455078 19.5 L 21.902344 19.5 L 20.330078 18.123047 C 20.299277 18.093018 20.168993 17.970084 19.964844 17.833984 C 19.734671 17.680535 19.416666 17.5 19 17.5 L 17 17.5 L 11 17.5 L 9 17.5 C 8.5833338 17.5 8.2653253 17.680538 8.0351562 17.833984 C 7.831007 17.970084 7.7007228 18.093018 7.6699219 18.123047 L 6.0976562 19.5 L 2.5449219 19.5 C 2.523137 19.198073 2.5 18.911455 2.5 18.5 C 2.5 16.169763 3.51963 12.428607 4.9121094 9.328125 C 5.10476 9.1496785 5.4383333 8.9612536 5.84375 8.7871094 C 5.0470766 9.2063796 4.5 10.04185 4.5 11 C 4.5 12.374788 5.6252117 13.5 7 13.5 C 8.3747883 13.5 9.5 12.374788 9.5 11 C 9.5 9.6252122 8.3747883 8.5 7 8.5 C 6.780596 8.5 6.5683661 8.5321799 6.3652344 8.5859375 C 6.6081107 8.5017479 6.8620301 8.4241409 7.1210938 8.359375 C 8.083048 8.1188864 9.0833338 8 9.5 8 z M 11 17.5 C 12.374788 17.5 13.5 16.374788 13.5 15 C 13.5 13.625212 12.374788 12.5 11 12.5 C 9.6252117 12.5 8.5 13.625212 8.5 15 C 8.5 16.374788 9.6252117 17.5 11 17.5 z M 17 17.5 C 18.374788 17.5 19.5 16.374788 19.5 15 C 19.5 13.625212 18.374788 12.5 17 12.5 C 15.625212 12.5 14.5 13.625212 14.5 15 C 14.5 16.374788 15.625212 17.5 17 17.5 z M 13.462891 8 C 13.633823 7.9995164 13.811631 8 14 8 C 15.263897 8 15.725855 8.054611 16.425781 8.1972656 L 16.070312 10.5 L 11.929688 10.5 L 11.574219 8.1894531 C 12.129617 8.0729051 12.492977 8.0027399 13.462891 8 z M 7 9 C 8.1045695 9 9 9.895431 9 11 C 9 12.104569 8.1045695 13 7 13 C 5.8954305 13 5 12.104569 5 11 C 5 9.895431 5.8954305 9 7 9 z M 21.5 9.5 C 21.914214 9.5 22.25 9.8357864 22.25 10.25 C 22.25 10.664214 21.914214 11 21.5 11 C 21.085786 11 20.75 10.664214 20.75 10.25 C 20.75 9.8357864 21.085786 9.5 21.5 9.5 z M 7 10 C 6.4477153 10 6 10.447715 6 11 C 6 11.552285 6.4477153 12 7 12 C 7.5522847 12 8 11.552285 8 11 C 8 10.447715 7.5522847 10 7 10 z M 7 10.5 C 7.2820645 10.5 7.5 10.717935 7.5 11 C 7.5 11.282065 7.2820645 11.5 7 11.5 C 6.7179355 11.5 6.5 11.282065 6.5 11 C 6.5 10.717935 6.7179355 10.5 7 10.5 z M 20.25 10.75 C 20.664214 10.75 21 11.085786 21 11.5 C 21 11.914214 20.664214 12.25 20.25 12.25 C 19.835786 12.25 19.5 11.914214 19.5 11.5 C 19.5 11.085786 19.835786 10.75 20.25 10.75 z M 22.75 10.75 C 23.164214 10.75 23.5 11.085786 23.5 11.5 C 23.5 11.914214 23.164214 12.25 22.75 12.25 C 22.335786 12.25 22 11.914214 22 11.5 C 22 11.085786 22.335786 10.75 22.75 10.75 z M 21.5 12 C 21.914214 12 22.25 12.335786 22.25 12.75 C 22.25 13.164214 21.914214 13.5 21.5 13.5 C 21.085786 13.5 20.75 13.164214 20.75 12.75 C 20.75 12.335786 21.085786 12 21.5 12 z M 11 13 C 12.104569 13 13 13.895431 13 15 C 13 16.104569 12.104569 17 11 17 C 9.8954305 17 9 16.104569 9 15 C 9 13.895431 9.8954305 13 11 13 z M 17 13 C 18.104569 13 19 13.895431 19 15 C 19 16.104569 18.104569 17 17 17 C 15.895431 17 15 16.104569 15 15 C 15 13.895431 15.895431 13 17 13 z M 11 14 C 10.447715 14 10 14.447715 10 15 C 10 15.552285 10.447715 16 11 16 C 11.552285 16 12 15.552285 12 15 C 12 14.447715 11.552285 14 11 14 z M 17 14 C 16.447715 14 16 14.447715 16 15 C 16 15.552285 16.447715 16 17 16 C 17.552285 16 18 15.552285 18 15 C 18 14.447715 17.552285 14 17 14 z M 11 14.5 C 11.282065 14.5 11.5 14.717935 11.5 15 C 11.5 15.282065 11.282065 15.5 11 15.5 C 10.717935 15.5 10.5 15.282065 10.5 15 C 10.5 14.717935 10.717935 14.5 11 14.5 z M 17 14.5 C 17.282065 14.5 17.5 14.717935 17.5 15 C 17.5 15.282065 17.282065 15.5 17 15.5 C 16.717935 15.5 16.5 15.282065 16.5 15 C 16.5 14.717935 16.717935 14.5 17 14.5 z " fill="currentColor" opacity="0.6"/>
</svg>