<?xml version="1.0" encoding="utf-8"?>
<svg height="80" version="1.1" viewBox="0 0 112 80" width="112" xmlns="http://www.w3.org/2000/svg" xmlns:svg="http://www.w3.org/2000/svg" xmlns:xlink="http://www.w3.org/1999/xlink">
 <namedview bordercolor="#666666" borderopacity="1.0" id="namedview-conformist" pagecolor="#ffffff" pageopacity="0.0" pageshadow="0" showgrid="true">
  <grid class="ColorScheme-Background" empspacing="4" fill="currentColor" opacity="0.6" type="xygrid"/>
 </namedview>
 <defs id="primary-definitions">
  <style class="ColorScheme-Background" fill="currentColor" opacity="0.6" type="text/css">
   .ColorScheme-Text           { color:#eff0f1; }
      .ColorScheme-Background     { color:#31363b; }
      .ColorScheme-Highlight      { color:#3daefd; }
      .ColorScheme-ViewBackground { color:#fcfcfc; }
      .ColorScheme-PositiveText   { color:#27ae60; }
      .ColorScheme-NeutralText    { color:#f67400; }
      .ColorScheme-NegativeText   { color:#da4453; }
  </style>
 </defs>
 <path class="ColorScheme-Background" d="M 112 24.453125 C 101.29004 29.550811 91.09687 35.379936 81 41.552734 L 81 42.728516 C 91.115851 36.531311 101.3057 30.679936 112 25.5625 L 112 24.453125 z M 112 35.640625 C 94.841705 44.234782 78.892427 54.619747 62.314453 65.089844 C 54.365054 70.110419 46.236035 75.133456 37.785156 80 L 39.744141 80 C 47.680527 75.389897 55.359882 70.662623 62.847656 65.933594 C 79.292349 55.547674 95.07538 45.280252 112 36.761719 L 112 35.640625 z M 112 46.939453 C 96.531522 55.055644 81.935969 64.539598 66.814453 74.089844 C 63.689407 76.063518 60.505427 78.032447 57.322266 80 L 59.212891 80 C 61.93291 78.311594 64.670944 76.624116 67.347656 74.933594 C 82.329213 65.471741 96.75482 56.097783 112 48.0625 L 112 46.939453 z M 64.027344 52.158203 C 61.957453 53.47022 59.900889 54.77212 57.814453 56.089844 C 44.830743 64.289922 31.444076 72.52933 16.773438 80 L 18.953125 80 C 32.993477 72.744264 45.869284 64.814518 58.347656 56.933594 C 60.427014 55.620341 62.473603 54.324216 64.535156 53.017578 C 64.349555 52.742454 64.182221 52.453651 64.027344 52.158203 z M 112 58.365234 C 99.844386 65.012231 88.124546 72.440064 76.197266 80 L 78.064453 80 C 89.37466 72.831404 100.50464 65.813875 112 59.501953 L 112 58.365234 z M 112 69.884766 C 106.29451 73.119364 100.66298 76.519645 95.052734 80 L 96.949219 80 C 101.93457 76.92182 106.943 73.91853 112 71.041016 L 112 69.884766 z " fill="currentColor" opacity="0.6"/>
 <path class="ColorScheme-Background" d="m 49,16 c -1.108,0 -2,0.892 -2,2 v 30 h -7 c -4.418278,0 -8,3.581722 -8,8 0,4.418278 3.581722,8 8,8 4.418278,0 8,-3.581722 8,-8 V 27 h 31 v 13 h -7 c -4.418278,0 -8,3.581722 -8,8 0,4.418278 3.581722,8 8,8 4.418278,0 8,-3.581722 8,-8 V 18 c 0,-1.108 -0.892,-2 -2,-2 z m -1,8 h 31 v 2 H 48 Z" fill="currentColor" opacity="0.6" paint-order="stroke fill markers" stop-color="#000000" stroke-linecap="round" stroke-linejoin="round"/>
 <path class="ColorScheme-Background" d="m 49,16 c -1.108,0 -2,0.892 -2,2 v 30 h -7 c -4.418278,0 -8,3.581722 -8,8 0,4.418278 3.581722,8 8,8 4.418278,0 8,-3.581722 8,-8 V 27 h 31 v 13 h -7 c -4.418278,0 -8,3.581722 -8,8 0,4.418278 3.581722,8 8,8 4.418278,0 8,-3.581722 8,-8 V 18 c 0,-1.108 -0.892,-2 -2,-2 z m 0,0.5 h 29 c 0.839648,0 1.5,0.660352 1.5,1.5 v 6 C 79.499972,23.723869 79.276131,23.500028 79,23.5 H 48 c -0.276131,2.8e-5 -0.499972,0.223869 -0.5,0.5 v -6 c 0,-0.839648 0.660352,-1.5 1.5,-1.5 z M 48,24 h 31 v 2 H 48 Z m 31.5,16 v 8 c 0,4.148054 -3.351946,7.5 -7.5,7.5 -4.148054,0 -7.5,-3.351946 -7.5,-7.5 0,-4.148054 3.351946,-7.5 7.5,-7.5 h 7 c 0.276131,-2.8e-5 0.499972,-0.223869 0.5,-0.5 z m -32,8 v 8 c 0,4.148054 -3.351946,7.5 -7.5,7.5 -4.148054,0 -7.5,-3.351946 -7.5,-7.5 0,-4.148054 3.351946,-7.5 7.5,-7.5 h 7 c 0.276131,-2.8e-5 0.499972,-0.223869 0.5,-0.5 z" fill="currentColor" opacity="0.6" paint-order="stroke fill markers" stroke-linecap="round" stroke-linejoin="round"/>
 <path class="ColorScheme-Background" d="M 112,24.453125 C 101.29004,29.550811 91.09687,35.379936 81,41.552734 v 1.175782 C 91.115851,36.531311 101.3057,30.679936 112,25.5625 Z m 0,11.1875 C 94.841705,44.234782 78.892427,54.619747 62.314453,65.089844 54.365054,70.110419 46.236035,75.133456 37.785156,80 h 1.958985 C 47.680527,75.389897 55.359882,70.662623 62.847656,65.933594 79.292349,55.547674 95.07538,45.280252 112,36.761719 Z m 0,11.298828 C 96.531522,55.055644 81.935969,64.539598 66.814453,74.089844 63.689407,76.063518 60.505427,78.032447 57.322266,80 h 1.890625 C 61.93291,78.311594 64.670944,76.624116 67.347656,74.933594 82.329213,65.471741 96.75482,56.097783 112,48.0625 Z m -47.972656,5.21875 C 61.957453,53.47022 59.900889,54.77212 57.814453,56.089844 44.830743,64.289922 31.444076,72.52933 16.773438,80 h 2.179687 c 14.040352,-7.255736 26.916159,-15.185482 39.394531,-23.066406 2.079358,-1.313253 4.125947,-2.609378 6.1875,-3.916016 -0.185601,-0.275124 -0.352935,-0.563927 -0.507812,-0.859375 z M 112,58.365234 C 99.844386,65.012231 88.124546,72.440064 76.197266,80 h 1.867187 C 89.37466,72.831404 100.50464,65.813875 112,59.501953 Z m 0,11.519532 C 106.29451,73.119364 100.66298,76.519645 95.052734,80 h 1.896485 C 101.93457,76.92182 106.943,73.91853 112,71.041016 Z" fill="currentColor" opacity="0.6"/>
</svg>