<?xml version="1.0" encoding="utf-8"?>
<svg height="30" version="1.1" viewBox="0 0 42 30" width="42" xmlns="http://www.w3.org/2000/svg" xmlns:svg="http://www.w3.org/2000/svg" xmlns:xlink="http://www.w3.org/1999/xlink">
 <namedview bordercolor="#666666" borderopacity="1.0" id="namedview-conformist" pagecolor="#ffffff" pageopacity="0.0" pageshadow="0" showgrid="true">
  <grid class="ColorScheme-Background" empspacing="4" fill="currentColor" opacity="0.6" type="xygrid"/>
 </namedview>
 <defs id="primary-definitions">
  <style class="ColorScheme-Background" fill="currentColor" opacity="0.6" type="text/css">
   .ColorScheme-Text           { color:#eff0f1; }
      .ColorScheme-Background     { color:#31363b; }
      .ColorScheme-Highlight      { color:#3daefd; }
      .ColorScheme-ViewBackground { color:#fcfcfc; }
      .ColorScheme-PositiveText   { color:#27ae60; }
      .ColorScheme-NeutralText    { color:#f67400; }
      .ColorScheme-NegativeText   { color:#da4453; }
  </style>
 </defs>
 <path class="ColorScheme-Background" d="m 18,6 c -0.554,0 -1,0.446 -1,1 v 11 h -2 c -1.656854,0 -3,1.343146 -3,3 0,1.656854 1.343146,3 3,3 1.656854,0 3,-1.343146 3,-3 V 11 h 11 v 4 h -2 c -1.656854,0 -3,1.343146 -3,3 0,1.656854 1.343146,3 3,3 1.656854,0 3,-1.343146 3,-3 V 7 C 30,6.446 29.554,6 29,6 Z m 0,2 h 11 v 2 H 18 Z" fill="currentColor" opacity="0.6" paint-order="stroke fill markers" stop-color="#000000" stroke-linecap="round" stroke-linejoin="round"/>
 <path class="ColorScheme-Background" d="m 18,6 c -0.554,0 -1,0.446 -1,1 v 11 h -2 c -1.656854,0 -3,1.343146 -3,3 0,1.656854 1.343146,3 3,3 1.656854,0 3,-1.343146 3,-3 V 11 h 11 v 4 h -2 c -1.656854,0 -3,1.343146 -3,3 0,1.656854 1.343146,3 3,3 1.656854,0 3,-1.343146 3,-3 V 7 C 30,6.446 29.554,6 29,6 Z m 0,0.5 h 11 c 0.285648,0 0.5,0.2143517 0.5,0.5 V 8 C 29.499972,7.7238691 29.276131,7.5000276 29,7.5 H 18 C 17.723869,7.5000276 17.500028,7.7238691 17.5,8 V 7 C 17.5,6.7143517 17.714352,6.5 18,6.5 Z M 18,8 h 11 v 2 H 18 Z m 11.5,7 v 3 c 0,1.386632 -1.113368,2.5 -2.5,2.5 -1.386632,0 -2.5,-1.113368 -2.5,-2.5 0,-1.386632 1.113368,-2.5 2.5,-2.5 h 2 c 0.276131,-2.8e-5 0.499972,-0.223869 0.5,-0.5 z m -12,3 v 3 c 0,1.386632 -1.113368,2.5 -2.5,2.5 -1.386632,0 -2.5,-1.113368 -2.5,-2.5 0,-1.386632 1.113368,-2.5 2.5,-2.5 h 2 c 0.276131,-2.8e-5 0.499972,-0.223869 0.5,-0.5 z" fill="currentColor" opacity="0.6" paint-order="stroke fill markers" stroke-linecap="round" stroke-linejoin="round"/>
 <path class="ColorScheme-Background" d="M 35.263672 0.00390625 C 35.14396 0.0096445873 35.02736 0.058577234 34.935547 0.15039062 C 34.739678 0.3462592 34.739678 0.66155329 34.935547 0.85742188 L 35.642578 1.5644531 C 35.838447 1.7603217 36.153741 1.7603217 36.349609 1.5644531 C 36.545478 1.3685845 36.545478 1.0532905 36.349609 0.85742188 L 35.642578 0.15039062 C 35.538523 0.046335448 35.399346 -0.0025971989 35.263672 0.00390625 z M 29.056641 0.39257812 C 28.887909 0.39620431 28.725656 0.48710407 28.634766 0.64453125 C 28.496266 0.88442029 28.576517 1.1876719 28.816406 1.3261719 L 29.683594 1.8261719 C 29.923483 1.9646719 30.226734 1.8844204 30.365234 1.6445312 C 30.503734 1.4046422 30.423483 1.0994375 30.183594 0.9609375 L 29.316406 0.4609375 C 29.233944 0.41332812 29.145024 0.39067871 29.056641 0.39257812 z M 33.849609 1.4179688 C 33.729897 1.423707 33.613298 1.4726397 33.521484 1.5644531 C 33.325616 1.7603217 33.325616 2.0756158 33.521484 2.2714844 L 34.228516 2.9785156 C 34.424384 3.1743842 34.739678 3.1743842 34.935547 2.9785156 C 35.131415 2.782647 35.131415 2.467353 34.935547 2.2714844 L 34.228516 1.5644531 C 34.12446 1.4603979 33.985283 1.4114653 33.849609 1.4179688 z M 13.201172 1.8652344 C 13.168563 1.8730036 13.137042 1.8815146 13.103516 1.8886719 C 13.136925 1.8861611 13.168219 1.8746766 13.201172 1.8652344 z M 8.3359375 2 L 8.0644531 2.2714844 C 7.8685845 2.467353 7.8685845 2.782647 8.0644531 2.9785156 C 8.2603217 3.1743842 8.5756158 3.1743842 8.7714844 2.9785156 L 9.4785156 2.2714844 C 9.5550572 2.1949428 9.5926553 2.0987626 9.609375 2 L 8.3359375 2 z M 14.919922 2.125 C 14.839358 2.1271761 14.758559 2.1500781 14.683594 2.1933594 L 13.816406 2.6933594 C 13.576517 2.8318594 13.496266 3.135111 13.634766 3.375 C 13.773266 3.614889 14.076517 3.6970936 14.316406 3.5585938 L 15.183594 3.0585938 C 15.423483 2.9200937 15.503734 2.614889 15.365234 2.375 C 15.270016 2.2100763 15.097162 2.1202126 14.919922 2.125 z M 28.056641 2.125 C 27.887909 2.1286262 27.725656 2.2175728 27.634766 2.375 C 27.496266 2.614889 27.576517 2.9200937 27.816406 3.0585938 L 28.683594 3.5585938 C 28.923483 3.6970938 29.226734 3.614889 29.365234 3.375 C 29.503734 3.135111 29.423483 2.8318594 29.183594 2.6933594 L 28.316406 2.1933594 C 28.233944 2.14575 28.145024 2.1231006 28.056641 2.125 z M 10.515625 2.8320312 C 10.395913 2.8377697 10.27736 2.8867022 10.185547 2.9785156 L 9.4785156 3.6855469 C 9.282647 3.8814155 9.282647 4.1967095 9.4785156 4.3925781 C 9.6743842 4.5884467 9.9896782 4.5884467 10.185547 4.3925781 L 10.892578 3.6855469 C 11.088447 3.4896783 11.088447 3.1743842 10.892578 2.9785156 C 10.788523 2.8744604 10.651299 2.8255279 10.515625 2.8320312 z M 32.435547 2.8320312 C 32.315835 2.8377697 32.199235 2.8867022 32.107422 2.9785156 C 31.911553 3.1743842 31.911553 3.4896783 32.107422 3.6855469 L 32.814453 4.3925781 C 33.010322 4.5884467 33.325616 4.5884467 33.521484 4.3925781 C 33.717353 4.1967095 33.717353 3.8814155 33.521484 3.6855469 L 32.814453 2.9785156 C 32.710398 2.8744604 32.571221 2.8255279 32.435547 2.8320312 z M 11.929688 4.2460938 C 11.809974 4.251832 11.691423 4.3007647 11.599609 4.3925781 L 10.892578 5.0996094 C 10.69671 5.295478 10.69671 5.610772 10.892578 5.8066406 C 11.088447 6.0025092 11.403741 6.0025092 11.599609 5.8066406 L 12.306641 5.0996094 C 12.502509 4.9037408 12.502509 4.5884467 12.306641 4.3925781 C 12.202585 4.2885229 12.06536 4.2395902 11.929688 4.2460938 z M 31.021484 4.2460938 C 30.901772 4.251832 30.785173 4.3007647 30.693359 4.3925781 C 30.497491 4.5884467 30.497491 4.9037408 30.693359 5.0996094 L 31.400391 5.8066406 C 31.596259 6.0025092 31.911553 6.0025092 32.107422 5.8066406 C 32.30329 5.610772 32.30329 5.295478 32.107422 5.0996094 L 31.400391 4.3925781 C 31.296335 4.2885229 31.157158 4.2395902 31.021484 4.2460938 z M 6.1503906 5.0664062 C 5.9816589 5.0700324 5.8194063 5.1589792 5.7285156 5.3164062 L 5.2285156 6.1835938 C 5.0900156 6.4234828 5.1722203 6.7267344 5.4121094 6.8652344 C 5.6519984 7.0037344 5.95525 6.9234828 6.09375 6.6835938 L 6.59375 5.8164062 C 6.73225 5.5765172 6.6519984 5.2732656 6.4121094 5.1347656 C 6.3296475 5.0871562 6.2387739 5.0645069 6.1503906 5.0664062 z M 7.8828125 6.0664062 C 7.7140808 6.0700324 7.5518281 6.1589792 7.4609375 6.3164062 L 6.9609375 7.1835938 C 6.8224375 7.4234828 6.9046422 7.7267344 7.1445312 7.8652344 C 7.3844204 8.0037344 7.6876719 7.9234828 7.8261719 7.6835938 L 8.3261719 6.8164062 C 8.4646719 6.5765172 8.3844204 6.2732656 8.1445312 6.1347656 C 8.0620695 6.0871562 7.9711958 6.0645069 7.8828125 6.0664062 z M 9.6152344 7.0664062 C 9.4465027 7.0700324 9.28425 7.1589792 9.1933594 7.3164062 L 8.6933594 8.1835938 C 8.5548594 8.4234827 8.635111 8.7267344 8.875 8.8652344 C 9.114889 9.0037344 9.4200937 8.9234828 9.5585938 8.6835938 L 10.058594 7.8164062 C 10.197094 7.5765172 10.114889 7.2732656 9.875 7.1347656 C 9.7925381 7.0871562 9.7036176 7.0645069 9.6152344 7.0664062 z M 33.361328 7.0664062 C 33.280765 7.0685825 33.199965 7.0914844 33.125 7.1347656 C 32.885111 7.2732656 32.802906 7.5765172 32.941406 7.8164062 L 33.441406 8.6835938 C 33.579906 8.9234827 33.885111 9.0037344 34.125 8.8652344 C 34.364889 8.7267344 34.445141 8.4234828 34.306641 8.1835938 L 33.806641 7.3164062 C 33.711422 7.1514825 33.538568 7.0616188 33.361328 7.0664062 z M 38.751953 9.3574219 C 38.710665 9.3578797 38.66876 9.363798 38.626953 9.375 C 38.359392 9.4466929 38.201745 9.7207198 38.273438 9.9882812 L 38.533203 10.953125 C 38.604896 11.220686 38.87697 11.378334 39.144531 11.306641 C 39.412093 11.234948 39.571693 10.962875 39.5 10.695312 L 39.240234 9.7285156 C 39.179744 9.5027606 38.97491 9.3549498 38.751953 9.3574219 z M 36.820312 9.875 C 36.779024 9.8754578 36.737119 9.8813761 36.695312 9.8925781 C 36.427751 9.964271 36.270104 10.238298 36.341797 10.505859 L 36.601562 11.470703 C 36.673255 11.738265 36.945329 11.895912 37.212891 11.824219 C 37.480452 11.752526 37.638099 11.480452 37.566406 11.212891 L 37.308594 10.246094 C 37.248103 10.020339 37.04327 9.8725279 36.820312 9.875 z M 8.1113281 10.392578 C 7.8883717 10.390106 7.6835377 10.537917 7.6230469 10.763672 L 7.3652344 11.730469 C 7.2935415 11.99803 7.4511885 12.270104 7.71875 12.341797 C 7.9863115 12.41349 8.2583852 12.255843 8.3300781 11.988281 L 8.5898438 11.023438 C 8.6615365 10.755876 8.5038896 10.481849 8.2363281 10.410156 C 8.1945216 10.398954 8.1526163 10.393036 8.1113281 10.392578 z M 34.888672 10.392578 C 34.847384 10.393036 34.805478 10.398954 34.763672 10.410156 C 34.49611 10.481849 34.338463 10.755876 34.410156 11.023438 L 34.669922 11.988281 C 34.741615 12.255843 35.013689 12.41349 35.28125 12.341797 C 35.548811 12.270104 35.706459 11.99803 35.634766 11.730469 L 35.376953 10.763672 C 35.316462 10.537917 35.111628 10.390106 34.888672 10.392578 z M 1.4746094 14 C 1.209695 14.013342 1 14.231656 1 14.5 L 1 15.5 C 1 15.777 1.223 16 1.5 16 C 1.777 16 2 15.777 2 15.5 L 2 14.5 C 2 14.223 1.777 14 1.5 14 C 1.4913437 14 1.483155 13.99957 1.4746094 14 z M 3.4746094 14 C 3.209695 14.013342 3 14.231656 3 14.5 L 3 15.5 C 3 15.777 3.223 16 3.5 16 C 3.777 16 4 15.777 4 15.5 L 4 14.5 C 4 14.223 3.777 14 3.5 14 C 3.4913437 14 3.483155 13.99957 3.4746094 14 z M 5.4746094 14 C 5.209695 14.013342 5 14.231656 5 14.5 L 5 15.5 C 5 15.777 5.223 16 5.5 16 C 5.777 16 6 15.777 6 15.5 L 6 14.5 C 6 14.223 5.777 14 5.5 14 C 5.4913438 14 5.483155 13.99957 5.4746094 14 z M 7.4746094 14 C 7.209695 14.013342 7 14.231656 7 14.5 L 7 15.5 C 7 15.777 7.223 16 7.5 16 C 7.777 16 8 15.777 8 15.5 L 8 14.5 C 8 14.223 7.777 14 7.5 14 C 7.4913438 14 7.483155 13.99957 7.4746094 14 z M 35.474609 14 C 35.209695 14.013342 35 14.231656 35 14.5 L 35 15.5 C 35 15.777 35.223 16 35.5 16 C 35.777 16 36 15.777 36 15.5 L 36 14.5 C 36 14.223 35.777 14 35.5 14 C 35.491344 14 35.483155 13.99957 35.474609 14 z M 37.474609 14 C 37.209695 14.013342 37 14.231656 37 14.5 L 37 15.5 C 37 15.777 37.223 16 37.5 16 C 37.777 16 38 15.777 38 15.5 L 38 14.5 C 38 14.223 37.777 14 37.5 14 C 37.491344 14 37.483155 13.99957 37.474609 14 z M 7.8183594 17.640625 C 7.7851448 17.642652 7.7521952 17.649242 7.71875 17.658203 C 7.4511885 17.729896 7.2935415 18.00197 7.3652344 18.269531 L 7.6230469 19.236328 C 7.6947398 19.50389 7.9687667 19.661537 8.2363281 19.589844 C 8.5038896 19.518151 8.6615365 19.244124 8.5898438 18.976562 L 8.3300781 18.011719 C 8.2673469 17.777602 8.0508613 17.626436 7.8183594 17.640625 z M 35.132812 17.640625 C 34.919638 17.64885 34.728172 17.794325 34.669922 18.011719 L 34.410156 18.976562 C 34.338463 19.244124 34.49611 19.518151 34.763672 19.589844 C 35.031233 19.661537 35.30526 19.50389 35.376953 19.236328 L 35.634766 18.269531 C 35.706459 18.00197 35.548811 17.729896 35.28125 17.658203 C 35.231082 17.644761 35.182007 17.638727 35.132812 17.640625 z M 5.8867188 18.158203 C 5.8535042 18.16023 5.8205546 18.16682 5.7871094 18.175781 C 5.5195479 18.247474 5.3619009 18.519548 5.4335938 18.787109 L 5.6914062 19.753906 C 5.7630991 20.021468 6.037126 20.179115 6.3046875 20.107422 C 6.572249 20.035729 6.729896 19.761702 6.6582031 19.494141 L 6.3984375 18.529297 C 6.3357062 18.295181 6.1192206 18.144014 5.8867188 18.158203 z M 3.9550781 18.675781 C 3.9218636 18.677808 3.8889138 18.684398 3.8554688 18.693359 C 3.5879072 18.765052 3.4283071 19.037126 3.5 19.304688 L 3.7597656 20.271484 C 3.8314585 20.539046 4.1054854 20.696693 4.3730469 20.625 C 4.6406083 20.553307 4.7982554 20.27928 4.7265625 20.011719 L 4.4667969 19.046875 C 4.4040656 18.812759 4.1875801 18.661593 3.9550781 18.675781 z M 9.1132812 21.066406 C 9.0327177 21.068582 8.9499653 21.091484 8.875 21.134766 C 8.635111 21.273266 8.5548594 21.576517 8.6933594 21.816406 L 9.1933594 22.683594 C 9.3318594 22.923483 9.635111 23.003734 9.875 22.865234 C 10.114889 22.726734 10.197094 22.423483 10.058594 22.183594 L 9.5585938 21.316406 C 9.4633749 21.151483 9.2905212 21.061619 9.1132812 21.066406 z M 33.863281 21.066406 C 33.69455 21.070032 33.532297 21.158979 33.441406 21.316406 L 32.941406 22.183594 C 32.802906 22.423483 32.885111 22.726734 33.125 22.865234 C 33.364889 23.003734 33.668141 22.923483 33.806641 22.683594 L 34.306641 21.816406 C 34.445141 21.576517 34.364889 21.273266 34.125 21.134766 C 34.042538 21.087156 33.951665 21.064507 33.863281 21.066406 z M 7.3808594 22.066406 C 7.3002958 22.068582 7.2194966 22.091484 7.1445312 22.134766 C 6.9046422 22.273266 6.8224375 22.576517 6.9609375 22.816406 L 7.4609375 23.683594 C 7.5994375 23.923483 7.9046422 24.003734 8.1445312 23.865234 C 8.3844204 23.726734 8.4646719 23.423483 8.3261719 23.183594 L 7.8261719 22.316406 C 7.7309531 22.151483 7.5580992 22.061619 7.3808594 22.066406 z M 35.595703 22.066406 C 35.426971 22.070032 35.264719 22.158979 35.173828 22.316406 L 34.673828 23.183594 C 34.535328 23.423483 34.61558 23.726734 34.855469 23.865234 C 35.095358 24.003734 35.400562 23.923483 35.539062 23.683594 L 36.039062 22.816406 C 36.177563 22.576517 36.095358 22.273266 35.855469 22.134766 C 35.773007 22.087156 35.684086 22.064507 35.595703 22.066406 z M 5.6484375 23.066406 C 5.5678739 23.068582 5.4870747 23.091484 5.4121094 23.134766 C 5.1722203 23.273266 5.0900156 23.576517 5.2285156 23.816406 L 5.7285156 24.683594 C 5.8670156 24.923483 6.1722203 25.003734 6.4121094 24.865234 C 6.6519984 24.726734 6.73225 24.423483 6.59375 24.183594 L 6.09375 23.316406 C 5.9985313 23.151483 5.8256774 23.061619 5.6484375 23.066406 z M 37.328125 23.066406 C 37.159393 23.070032 36.997141 23.158979 36.90625 23.316406 L 36.40625 24.183594 C 36.26775 24.423483 36.348002 24.726734 36.587891 24.865234 C 36.82778 25.003734 37.132984 24.923483 37.271484 24.683594 L 37.771484 23.816406 C 37.909984 23.576517 37.82778 23.273266 37.587891 23.134766 C 37.505429 23.087156 37.416508 23.064507 37.328125 23.066406 z M 11.246094 24.044922 C 11.118284 24.044922 10.990512 24.095425 10.892578 24.193359 C 10.69671 24.389228 10.69671 24.704522 10.892578 24.900391 L 11.599609 25.607422 C 11.795478 25.80329 12.110772 25.80329 12.306641 25.607422 C 12.502509 25.411553 12.502509 25.096259 12.306641 24.900391 L 11.599609 24.193359 C 11.501675 24.095425 11.373903 24.044922 11.246094 24.044922 z M 31.753906 24.044922 C 31.626097 24.044922 31.498325 24.095425 31.400391 24.193359 L 30.693359 24.900391 C 30.497491 25.096259 30.497491 25.411553 30.693359 25.607422 C 30.889228 25.80329 31.204522 25.80329 31.400391 25.607422 L 32.107422 24.900391 C 32.30329 24.704522 32.30329 24.389228 32.107422 24.193359 C 32.009488 24.095425 31.881716 24.044922 31.753906 24.044922 z M 3.9160156 24.066406 C 3.8354521 24.068582 3.7546528 24.091484 3.6796875 24.134766 C 3.4397985 24.273266 3.3575937 24.576517 3.4960938 24.816406 L 3.9960938 25.683594 C 4.1345936 25.923483 4.4397985 26.003734 4.6796875 25.865234 C 4.9195765 25.726734 5.0017813 25.423483 4.8632812 25.183594 L 4.3632812 24.316406 C 4.2680625 24.151483 4.0932555 24.061619 3.9160156 24.066406 z M 39.058594 24.066406 C 38.889862 24.070032 38.727609 24.158979 38.636719 24.316406 L 38.136719 25.183594 C 37.998219 25.423483 38.080424 25.726734 38.320312 25.865234 C 38.560202 26.003734 38.865406 25.923483 39.003906 25.683594 L 39.503906 24.816406 C 39.642406 24.576517 39.560202 24.273266 39.320312 24.134766 C 39.237851 24.087156 39.146977 24.064507 39.058594 24.066406 z M 40.791016 25.066406 C 40.622284 25.070032 40.460031 25.158979 40.369141 25.316406 L 39.869141 26.183594 C 39.730641 26.423483 39.812845 26.726734 40.052734 26.865234 C 40.292623 27.003734 40.597828 26.923483 40.736328 26.683594 L 41.236328 25.816406 C 41.374828 25.576517 41.292623 25.273266 41.052734 25.134766 C 40.970273 25.087156 40.879399 25.064507 40.791016 25.066406 z M 33.167969 25.458984 C 33.040159 25.458984 32.912387 25.509488 32.814453 25.607422 L 32.107422 26.314453 C 31.911553 26.510322 31.911553 26.825616 32.107422 27.021484 C 32.30329 27.217353 32.618585 27.217353 32.814453 27.021484 L 33.521484 26.314453 C 33.717353 26.118585 33.717353 25.80329 33.521484 25.607422 C 33.42355 25.509488 33.295778 25.458984 33.167969 25.458984 z M 14.03125 26.375 C 13.871265 26.386184 13.721328 26.475069 13.634766 26.625 C 13.496266 26.864889 13.576517 27.168141 13.816406 27.306641 L 14.683594 27.806641 C 14.923483 27.945141 15.226734 27.864889 15.365234 27.625 C 15.503734 27.385111 15.423483 27.079906 15.183594 26.941406 L 14.316406 26.441406 C 14.226448 26.389469 14.127241 26.36829 14.03125 26.375 z M 28.896484 26.375 C 28.82391 26.380505 28.751063 26.402453 28.683594 26.441406 L 27.816406 26.941406 C 27.576517 27.079906 27.496266 27.385111 27.634766 27.625 C 27.773266 27.864889 28.076517 27.945141 28.316406 27.806641 L 29.183594 27.306641 C 29.423483 27.168141 29.503734 26.864889 29.365234 26.625 C 29.265687 26.45258 29.081951 26.360932 28.896484 26.375 z M 34.582031 26.873047 C 34.454222 26.873047 34.32645 26.92355 34.228516 27.021484 L 33.521484 27.728516 C 33.325616 27.924384 33.325616 28.239678 33.521484 28.435547 C 33.717353 28.631415 34.032647 28.631415 34.228516 28.435547 L 34.935547 27.728516 C 35.131415 27.532647 35.131415 27.217353 34.935547 27.021484 C 34.837613 26.92355 34.709841 26.873047 34.582031 26.873047 z M 13.056641 28.105469 C 12.887909 28.109095 12.725656 28.198042 12.634766 28.355469 C 12.496266 28.595358 12.576517 28.900562 12.816406 29.039062 L 13.683594 29.539062 C 13.923483 29.677563 14.226734 29.595358 14.365234 29.355469 C 14.503734 29.11558 14.423483 28.812328 14.183594 28.673828 L 13.316406 28.173828 C 13.233944 28.126219 13.145024 28.103569 13.056641 28.105469 z " fill="currentColor" opacity="0.6" paint-order="stroke fill markers" stop-color="#000000" stroke-dasharray="none" stroke-linecap="round" stroke-linejoin="round" stroke-miterlimit="4"/>
</svg>