<?xml version="1.0" encoding="utf-8"?>
<svg height="60" version="1.1" viewBox="0 0 84 60" width="84" xmlns="http://www.w3.org/2000/svg" xmlns:svg="http://www.w3.org/2000/svg" xmlns:xlink="http://www.w3.org/1999/xlink">
 <namedview bordercolor="#666666" borderopacity="1.0" id="namedview-conformist" pagecolor="#ffffff" pageopacity="0.0" pageshadow="0" showgrid="true">
  <grid class="ColorScheme-Background" empspacing="4" fill="currentColor" opacity="0.6" type="xygrid"/>
 </namedview>
 <defs id="primary-definitions">
  <style class="ColorScheme-Background" fill="currentColor" opacity="0.6" type="text/css">
   .ColorScheme-Text           { color:#eff0f1; }
      .ColorScheme-Background     { color:#31363b; }
      .ColorScheme-Highlight      { color:#3daefd; }
      .ColorScheme-ViewBackground { color:#fcfcfc; }
      .ColorScheme-PositiveText   { color:#27ae60; }
      .ColorScheme-NeutralText    { color:#f67400; }
      .ColorScheme-NegativeText   { color:#da4453; }
  </style>
 </defs>
 <path class="ColorScheme-Background" d="M 84 19.082031 C 76.106287 23.136759 68.574253 27.736951 61 32.509766 L 61 33.693359 C 68.601684 28.89774 76.129294 24.277002 84 20.205078 L 84 19.082031 z M 84 26.660156 C 74.265644 31.883572 65.013012 37.880263 55.453125 43.917969 C 46.711449 49.43892 37.696867 54.983847 27.808594 60 L 29.990234 60 C 39.247781 55.199204 47.750287 49.965281 55.986328 44.763672 C 65.400688 38.817876 74.486014 32.937892 84 27.798828 L 84 26.660156 z M 84 34.292969 C 75.351375 39.115608 67.027775 44.502506 58.453125 49.917969 C 53.07618 53.313868 47.581775 56.713157 41.861328 60 L 43.824219 60 C 49.029324 56.970156 54.071744 53.86756 58.986328 50.763672 C 67.408042 45.444798 75.563631 40.173757 84 35.441406 L 84 34.292969 z M 48.535156 40.357422 C 37.28714 47.3832 25.45294 54.310251 11.78125 60 L 14.367188 60 C 27.257274 54.433417 38.517653 47.797471 49.228516 41.103516 C 48.980466 40.871391 48.747527 40.622993 48.535156 40.357422 z M 84 42.037109 C 76.421106 46.407312 69.02692 51.134612 61.453125 55.917969 C 59.294697 57.28116 57.098299 58.641754 54.898438 60 L 56.789062 60 C 58.525659 58.920978 60.276352 57.843636 61.986328 56.763672 C 69.401522 52.080482 76.624595 47.468267 84 43.193359 L 84 42.037109 z M 84 49.789062 C 78.476132 53.065413 73.005055 56.501045 67.484375 60 L 69.353516 60 C 74.249323 56.897151 79.111451 53.857445 84 50.945312 L 84 49.789062 z " fill="currentColor" opacity="0.6"/>
 <path class="ColorScheme-Background" d="m 37,12 c -1.042389,0 -2,0.95761 -2,2 v 22 h -5 c -3.313709,0 -6,2.686292 -6,6 0,3.313708 2.686291,6 6,6 3.313708,0 6,-2.686292 6,-6 V 19 h 23 v 11 h -5 c -3.313708,0 -6,2.686292 -6,6 0,3.313708 2.686292,6 6,6 3.313708,0 6,-2.686292 6,-6 V 14 c 0,-1.04239 -0.957611,-2 -2,-2 z m -1,4 h 23 v 2 H 36 Z" fill="currentColor" opacity="0.6" paint-order="stroke fill markers" stop-color="#000000" stroke-linecap="round" stroke-linejoin="round"/>
 <path class="ColorScheme-Background" d="m 37,12 c -1.042389,0 -2,0.95761 -2,2 v 22 h -5 c -3.313709,0 -6,2.686292 -6,6 0,3.313708 2.686291,6 6,6 3.313708,0 6,-2.686292 6,-6 V 19 h 23 v 11 h -5 c -3.313708,0 -6,2.686292 -6,6 0,3.313708 2.686292,6 6,6 3.313708,0 6,-2.686292 6,-6 V 14 c 0,-1.04239 -0.957611,-2 -2,-2 z m 0,0.5 h 21 c 0.736165,0 1.5,0.763834 1.5,1.5 v 2 C 59.499972,15.723869 59.276131,15.500028 59,15.5 H 36 c -0.276131,2.8e-5 -0.499972,0.223869 -0.5,0.5 v -2 c 0,-0.736166 0.763835,-1.5 1.5,-1.5 z M 36,16 h 23 v 2 H 36 Z m 23.5,14 v 6 c 0,3.043485 -2.456515,5.5 -5.5,5.5 -3.043485,0 -5.5,-2.456515 -5.5,-5.5 0,-3.043485 2.456515,-5.5 5.5,-5.5 h 5 c 0.276131,-2.8e-5 0.499972,-0.223869 0.5,-0.5 z m -24,6 v 6 c 0,3.043485 -2.456515,5.5 -5.5,5.5 -3.043486,0 -5.5,-2.456515 -5.5,-5.5 0,-3.043485 2.456514,-5.5 5.5,-5.5 h 5 c 0.276131,-2.8e-5 0.499972,-0.223869 0.5,-0.5 z" fill="currentColor" opacity="0.6" paint-order="stroke fill markers" stroke-linecap="round" stroke-linejoin="round"/>
 <path class="ColorScheme-Background" d="m 84,19.082031 c -7.893713,4.054728 -15.425747,8.65492 -23,13.427735 v 1.183593 C 68.601684,28.89774 76.129294,24.277002 84,20.205078 Z m 0,7.578125 C 74.265644,31.883572 65.013012,37.880263 55.453125,43.917969 46.711449,49.43892 37.696867,54.983847 27.808594,60 h 2.18164 C 39.247781,55.199204 47.750287,49.965281 55.986328,44.763672 65.400688,38.817876 74.486014,32.937892 84,27.798828 Z m 0,7.632813 C 75.351375,39.115608 67.027775,44.502506 58.453125,49.917969 53.07618,53.313868 47.581775,56.713157 41.861328,60 h 1.962891 C 49.029324,56.970156 54.071744,53.86756 58.986328,50.763672 67.408042,45.444798 75.563631,40.173757 84,35.441406 Z M 48.535156,40.357422 C 37.28714,47.3832 25.45294,54.310251 11.78125,60 h 2.585938 C 27.257274,54.433417 38.517653,47.797471 49.228516,41.103516 48.980466,40.871391 48.747527,40.622993 48.535156,40.357422 Z M 84,42.037109 C 76.421106,46.407312 69.02692,51.134612 61.453125,55.917969 59.294697,57.28116 57.098299,58.641754 54.898438,60 h 1.890624 c 1.736597,-1.079022 3.48729,-2.156364 5.197266,-3.236328 C 69.401522,52.080482 76.624595,47.468267 84,43.193359 Z m 0,7.751953 C 78.476132,53.065413 73.005055,56.501045 67.484375,60 h 1.869141 C 74.249323,56.897151 79.111451,53.857445 84,50.945312 Z" fill="currentColor" opacity="0.6"/>
</svg>