<?xml version="1.0" encoding="utf-8"?>
<svg height="60" version="1.1" viewBox="0 0 84 60" width="84" xmlns="http://www.w3.org/2000/svg" xmlns:svg="http://www.w3.org/2000/svg" xmlns:xlink="http://www.w3.org/1999/xlink">
 <namedview bordercolor="#666666" borderopacity="1.0" id="namedview-conformist" pagecolor="#ffffff" pageopacity="0.0" pageshadow="0" showgrid="true">
  <grid class="ColorScheme-Background" empspacing="4" fill="currentColor" opacity="0.6" type="xygrid"/>
 </namedview>
 <defs id="primary-definitions">
  <style class="ColorScheme-Background" fill="currentColor" opacity="0.6" type="text/css">
   .ColorScheme-Text           { color:#eff0f1; }
      .ColorScheme-Background     { color:#31363b; }
      .ColorScheme-Highlight      { color:#3daefd; }
      .ColorScheme-ViewBackground { color:#fcfcfc; }
      .ColorScheme-PositiveText   { color:#27ae60; }
      .ColorScheme-NeutralText    { color:#f67400; }
      .ColorScheme-NegativeText   { color:#da4453; }
  </style>
 </defs>
 <path class="ColorScheme-Background" d="m 37,14 c -1.042389,0 -2,0.95761 -2,2 v 22 h -5 c -3.313709,0 -6,2.686292 -6,6 0,3.313708 2.686291,6 6,6 3.313708,0 6,-2.686292 6,-6 V 21 h 23 v 11 h -5 c -3.313708,0 -6,2.686292 -6,6 0,3.313708 2.686292,6 6,6 3.313708,0 6,-2.686292 6,-6 V 16 c 0,-1.04239 -0.957611,-2 -2,-2 z m -1,4 h 23 v 2 H 36 Z" fill="currentColor" opacity="0.6" paint-order="stroke fill markers" stop-color="#000000" stroke-linecap="round" stroke-linejoin="round"/>
 <path class="ColorScheme-Background" d="m 37,14 c -1.042389,0 -2,0.95761 -2,2 v 22 h -5 c -3.313709,0 -6,2.686292 -6,6 0,3.313708 2.686291,6 6,6 3.313708,0 6,-2.686292 6,-6 V 21 h 23 v 11 h -5 c -3.313708,0 -6,2.686292 -6,6 0,3.313708 2.686292,6 6,6 3.313708,0 6,-2.686292 6,-6 V 16 c 0,-1.04239 -0.957611,-2 -2,-2 z m 0,0.5 h 21 c 0.736165,0 1.5,0.763834 1.5,1.5 v 2 C 59.499972,17.723869 59.276131,17.500028 59,17.5 H 36 c -0.276131,2.8e-5 -0.499972,0.223869 -0.5,0.5 v -2 c 0,-0.736166 0.763835,-1.5 1.5,-1.5 z M 36,18 h 23 v 2 H 36 Z m 23.5,14 v 6 c 0,3.043485 -2.456515,5.5 -5.5,5.5 -3.043485,0 -5.5,-2.456515 -5.5,-5.5 0,-3.043485 2.456515,-5.5 5.5,-5.5 h 5 c 0.276131,-2.8e-5 0.499972,-0.223869 0.5,-0.5 z m -24,6 v 6 c 0,3.043485 -2.456515,5.5 -5.5,5.5 -3.043486,0 -5.5,-2.456515 -5.5,-5.5 0,-3.043485 2.456514,-5.5 5.5,-5.5 h 5 c 0.276131,-2.8e-5 0.499972,-0.223869 0.5,-0.5 z" fill="currentColor" opacity="0.6" paint-order="stroke fill markers" stroke-linecap="round" stroke-linejoin="round"/>
 <path class="ColorScheme-Background" d="m 70.528019,0.00714455 c -0.239426,0.0114768 -0.472628,0.10934304 -0.656256,0.29297163 -0.391742,0.39174102 -0.391742,1.02233542 0,1.41407642 l 1.414076,1.4140764 c 0.391742,0.391741 1.022336,0.391741 1.414076,0 0.391742,-0.3917411 0.391742,-1.0223353 0,-1.4140764 L 71.285839,0.30011618 C 71.077727,0.09200379 70.79937,-0.00586246 70.528019,0.00714455 Z M 58.113835,0.78449596 c -0.337467,0.007252 -0.661976,0.18905386 -0.843758,0.50391124 -0.277003,0.4797828 -0.116501,1.086292 0.363283,1.3632947 l 1.734393,1.0000098 C 59.847536,3.9287145 60.454044,3.7682089 60.731047,3.2884268 61.00805,2.808644 60.847548,2.1982286 60.367763,1.9212259 L 58.63337,0.92121607 C 58.468449,0.82599633 58.290603,0.78069708 58.113835,0.78449596 Z m 9.586031,2.05080154 c -0.239427,0.01148 -0.472627,0.1093431 -0.656257,0.2929715 -0.39174,0.391741 -0.39174,1.0223355 0,1.4140765 l 1.414078,1.4140764 c 0.39174,0.391741 1.022334,0.391741 1.414076,0 0.39174,-0.3917411 0.39174,-1.0223353 0,-1.4140764 L 68.457687,3.128269 C 68.249573,2.9201565 67.971216,2.8222904 67.699866,2.8352975 Z m -41.297281,0.89454 c -0.06522,0.01554 -0.128262,0.03256 -0.195322,0.046874 0.06682,-0.00502 0.129401,-0.02799 0.195322,-0.046874 z M 16.67202,3.9993714 16.129045,4.5423455 c -0.391741,0.3917411 -0.391741,1.0223353 0,1.4140764 0.391742,0.391741 1.022336,0.391741 1.414077,0 L 18.957199,4.5423455 C 19.110281,4.38926 19.185479,4.1968985 19.21892,3.9993714 Z m 13.168098,0.2500024 c -0.161121,0.00436 -0.322729,0.050156 -0.47266,0.1367194 L 27.633065,5.386103 c -0.479783,0.2770028 -0.640287,0.8835119 -0.363284,1.3632947 0.277003,0.4797827 0.883511,0.6441935 1.363294,0.3671912 L 30.367468,6.116579 C 30.84725,5.8395769 31.007754,5.2291615 30.730751,4.7493788 30.540309,4.4195281 30.194602,4.2397989 29.840118,4.2493738 Z m 26.273697,0 c -0.337467,0.00726 -0.661976,0.1851479 -0.843758,0.500005 -0.277003,0.4797827 -0.116501,1.0901981 0.363284,1.367201 l 1.734393,1.0000099 c 0.479783,0.2770027 1.08629,0.1125911 1.363293,-0.3671912 C 59.00803,6.2696157 58.847528,5.6631066 58.367744,5.3861038 L 56.633351,4.386094 C 56.468425,4.2908742 56.290583,4.245575 56.113815,4.2493738 Z M 21.031438,5.6634502 c -0.239427,0.01148 -0.476535,0.109343 -0.660163,0.2929717 l -1.414076,1.4140765 c -0.391742,0.3917411 -0.391742,1.0223353 0,1.4140763 0.39174,0.3917411 1.022334,0.3917411 1.414076,0 l 1.414076,-1.4140763 c 0.391742,-0.3917411 0.391742,-1.0223355 0,-1.4140765 C 21.577239,5.7483094 21.302788,5.6504434 21.031438,5.6634502 Z m 43.840276,0 c -0.239427,0.01148 -0.472629,0.109343 -0.656257,0.2929717 -0.391742,0.391741 -0.391742,1.0223354 0,1.4140765 l 1.414076,1.4140763 c 0.391742,0.3917411 1.022336,0.3917411 1.414076,0 0.391742,-0.391741 0.391742,-1.0223352 0,-1.4140763 L 65.629533,5.9564219 C 65.421421,5.7483094 65.143064,5.6504434 64.871714,5.6634502 Z m -41.012123,2.828153 c -0.23943,0.01148 -0.476534,0.1093431 -0.660164,0.2929715 l -1.414076,1.4140763 c -0.39174,0.391741 -0.39174,1.022336 0,1.414077 0.391742,0.391741 1.022336,0.391741 1.414076,0 l 1.414078,-1.414077 c 0.39174,-0.3917408 0.39174,-1.0223352 0,-1.4140763 C 24.405391,8.5764623 24.130938,8.4785959 23.859591,8.4916032 Z m 38.183969,0 c -0.239426,0.01148 -0.472627,0.1093431 -0.656257,0.2929715 -0.391739,0.3917411 -0.391739,1.0223355 0,1.4140763 l 1.414078,1.414077 c 0.39174,0.391741 1.022334,0.391741 1.414076,0 0.39174,-0.391741 0.39174,-1.022336 0,-1.414077 L 62.801381,8.7845747 C 62.593267,8.5764623 62.314911,8.4785959 62.04356,8.4916032 Z M 12.300883,10.132244 c -0.337467,0.0073 -0.661975,0.185148 -0.843759,0.500005 l -1.000009,1.734392 c -0.277003,0.479783 -0.112592,1.086292 0.367191,1.363295 0.479783,0.277003 1.086292,0.116497 1.363294,-0.363285 l 1.00001,-1.734392 c 0.277003,-0.479783 0.116498,-1.086292 -0.363285,-1.363295 -0.164925,-0.09522 -0.346674,-0.140518 -0.523442,-0.13672 z m 3.464878,2.00002 c -0.337467,0.0073 -0.661976,0.185148 -0.843759,0.500005 l -1.000009,1.734392 c -0.277003,0.479783 -0.112592,1.086292 0.367191,1.363295 0.479783,0.277003 1.086292,0.116497 1.363294,-0.363285 l 1.00001,-1.734392 c 0.277003,-0.479783 0.116498,-1.086292 -0.363285,-1.363295 -0.164925,-0.09522 -0.346674,-0.140519 -0.523442,-0.13672 z m 3.464877,2.00002 c -0.337465,0.0073 -0.661975,0.185147 -0.843758,0.500005 l -1.00001,1.734392 c -0.277002,0.479782 -0.116497,1.086292 0.363285,1.363295 0.479783,0.277002 1.090199,0.116497 1.367202,-0.363285 l 1.00001,-1.734393 c 0.277002,-0.479782 0.112601,-1.086291 -0.367192,-1.363294 -0.164922,-0.09522 -0.342767,-0.14052 -0.519537,-0.13672 z m 47.492656,0 c -0.161122,0.0044 -0.322729,0.05016 -0.472661,0.136719 -0.479782,0.277003 -0.644194,0.883512 -0.367191,1.363295 l 1.00001,1.734392 c 0.277002,0.479782 0.887418,0.640287 1.367201,0.363285 0.479783,-0.277003 0.640288,-0.883512 0.363286,-1.363295 l -1.00001,-1.734392 c -0.190442,-0.329851 -0.536152,-0.50958 -0.890635,-0.500004 z M 77.50465,18.71436 c -0.08258,9.16e-4 -0.166381,0.01276 -0.250002,0.03516 -0.535127,0.143387 -0.850425,0.691446 -0.707037,1.226574 l 0.519535,1.929707 c 0.143381,0.535127 0.687541,0.850426 1.222668,0.707039 0.535129,-0.143382 0.854332,-0.687539 0.710945,-1.22267 L 78.481222,19.456555 C 78.360241,19.00504 77.950569,18.709416 77.50465,18.71436 Z m -3.86332,1.035167 c -0.08258,9.15e-4 -0.166381,0.01276 -0.250002,0.03516 -0.535128,0.143387 -0.850425,0.691447 -0.707037,1.226574 l 0.519535,1.929707 c 0.143381,0.535129 0.687541,0.850426 1.22267,0.707039 0.535127,-0.143381 0.850424,-0.687541 0.707037,-1.222668 l -0.515629,-1.933613 c -0.120983,-0.451515 -0.530653,-0.74714 -0.976574,-0.742195 z m -57.418534,1.035166 c -0.445917,-0.005 -0.855589,0.290681 -0.976572,0.742195 l -0.51563,1.933613 c -0.143387,0.535127 0.17191,1.079281 0.707038,1.222668 0.535129,0.143382 1.079281,-0.171901 1.222669,-0.707039 l 0.519536,-1.929705 c 0.143388,-0.535129 -0.171909,-1.083188 -0.707038,-1.226576 -0.08361,-0.0224 -0.167426,-0.03424 -0.250003,-0.03516 z m 53.555216,0 c -0.08258,9.16e-4 -0.166382,0.0128 -0.250002,0.03516 -0.53513,0.143382 -0.850427,0.691447 -0.707039,1.226576 l 0.519537,1.929705 c 0.143381,0.53513 0.687541,0.850427 1.222668,0.707039 0.535127,-0.143381 0.850426,-0.687541 0.707039,-1.222668 L 70.754584,21.526892 C 70.633603,21.075378 70.223928,20.779753 69.778012,20.784697 Z M 2.9492282,27.999608 C 2.4193941,28.026292 2,28.462925 2,28.999618 v 2.00002 c 0,0.554005 0.4460044,1.000009 1.0000099,1.000009 0.5540054,0 1.0000098,-0.446004 1.0000098,-1.000009 v -2.00002 c 0,-0.554006 -0.4460044,-1.00001 -1.0000098,-1.00001 -0.01732,0 -0.03369,-8.6e-4 -0.050782,0 z m 4.0000394,0 c -0.529834,0.02668 -0.9492282,0.463317 -0.9492282,1.00001 v 2.00002 c 0,0.554005 0.4460044,1.000009 1.0000099,1.000009 0.5540054,0 1.0000098,-0.446004 1.0000098,-1.000009 v -2.00002 c 0,-0.554006 -0.4460044,-1.00001 -1.0000098,-1.00001 -0.01732,0 -0.03369,-8.6e-4 -0.050782,0 z m 4.0000394,0 c -0.529834,0.02668 -0.949228,0.463317 -0.949228,1.00001 v 2.00002 c 0,0.554005 0.446004,1.000009 1.00001,1.000009 0.554005,0 1.00001,-0.446004 1.00001,-1.000009 v -2.00002 c 0,-0.554006 -0.446005,-1.00001 -1.00001,-1.00001 -0.01732,0 -0.03369,-8.6e-4 -0.05078,0 z m 4.000039,0 c -0.529834,0.02668 -0.949228,0.463317 -0.949228,1.00001 v 2.00002 c 0,0.554005 0.446005,1.000009 1.00001,1.000009 0.554006,0 1.00001,-0.446004 1.00001,-1.000009 v -2.00002 c 0,-0.554006 -0.446004,-1.00001 -1.00001,-1.00001 -0.01732,0 -0.03369,-8.6e-4 -0.05078,0 z m 56.000552,0 c -0.529834,0.02668 -0.949228,0.463317 -0.949228,1.00001 v 2.00002 c 0,0.554005 0.446005,1.000009 1.00001,1.000009 0.554006,0 1.00001,-0.446004 1.00001,-1.000009 v -2.00002 c 0,-0.554006 -0.446004,-1.00001 -1.00001,-1.00001 -0.0174,0 -0.0337,-8.6e-4 -0.05078,0 z m 4.000039,0 c -0.529833,0.02668 -0.949227,0.463317 -0.949227,1.00001 v 2.00002 c 0,0.554005 0.446004,1.000009 1.00001,1.000009 0.554005,0 1.000009,-0.446004 1.000009,-1.000009 v -2.00002 c 0,-0.554006 -0.446004,-1.00001 -1.000009,-1.00001 -0.0174,0 -0.0337,-8.6e-4 -0.05078,0 z M 15.636853,35.28093 c -0.06643,0.004 -0.132329,0.0172 -0.19922,0.03516 -0.535128,0.143381 -0.850425,0.687541 -0.707038,1.222668 l 0.51563,1.933613 c 0.143388,0.535129 0.691447,0.850427 1.226575,0.707039 0.535128,-0.143381 0.850425,-0.691447 0.707038,-1.226576 L 16.660301,36.023125 C 16.534837,35.554886 16.101862,35.252551 15.636853,35.28093 Z m 54.629444,0 c -0.426352,0.0164 -0.809288,0.307403 -0.925789,0.742195 l -0.519537,1.929705 c -0.143382,0.535129 0.171901,1.083189 0.707039,1.226576 0.535127,0.143382 1.083186,-0.171902 1.226574,-0.707039 l 0.515631,-1.933613 c 0.143381,-0.535127 -0.171902,-1.079281 -0.707039,-1.222668 -0.100341,-0.02688 -0.198482,-0.03896 -0.296879,-0.03516 z m -58.492763,1.035166 c -0.06643,0.004 -0.132329,0.0172 -0.19922,0.03516 -0.535128,0.143382 -0.850425,0.687541 -0.707038,1.222668 l 0.51563,1.933613 c 0.143387,0.53513 0.691446,0.850427 1.226574,0.707039 0.535129,-0.143381 0.850426,-0.691446 0.707039,-1.226574 l -0.519538,-1.929711 c -0.125463,-0.468236 -0.558439,-0.770573 -1.023447,-0.742195 z m -3.8633195,1.035166 c -0.066431,0.004 -0.1323293,0.0172 -0.19922,0.03516 -0.5351291,0.143384 -0.8543324,0.687537 -0.7109452,1.222667 L 7.5195856,40.5427 c 0.1433874,0.535129 0.6914464,0.850426 1.2265747,0.707039 0.5351281,-0.143382 0.8504254,-0.691447 0.7070382,-1.226575 L 8.9336621,38.093457 C 8.8081983,37.625221 8.375223,37.322886 7.9102145,37.351262 Z m 10.3165075,4.781297 c -0.161122,0.0044 -0.326635,0.05016 -0.476567,0.136722 -0.479782,0.277002 -0.640287,0.88351 -0.363285,1.363293 l 1.00001,1.734393 c 0.277002,0.479783 0.883512,0.640286 1.363295,0.363284 0.479783,-0.277003 0.644194,-0.883511 0.367192,-1.363294 l -1.00001,-1.734393 c -0.190442,-0.329849 -0.536152,-0.509579 -0.890635,-0.500005 z m 49.500488,0 c -0.337465,0.0072 -0.661975,0.185142 -0.843758,0.500005 l -1.00001,1.734393 c -0.277003,0.479783 -0.112581,1.086291 0.367191,1.363294 0.479783,0.277002 1.086293,0.116501 1.363296,-0.363284 l 1.00001,-1.734393 C 68.890941,43.152791 68.73044,42.546283 68.250653,42.269281 68.085731,42.17406 67.90398,42.128759 67.72721,42.132559 Z m -52.965365,2.00002 c -0.16113,0.0044 -0.322729,0.05016 -0.472661,0.136721 -0.479783,0.277003 -0.644194,0.883511 -0.367191,1.363294 l 1.000009,1.734393 c 0.277003,0.479783 0.887419,0.640286 1.367201,0.363283 0.479783,-0.277002 0.640288,-0.88351 0.363285,-1.363293 l -1.00001,-1.734393 c -0.19044,-0.329849 -0.53615,-0.509579 -0.890633,-0.500005 z m 56.430243,0 c -0.337467,0.0072 -0.661974,0.185142 -0.843758,0.500005 l -1.00001,1.734393 c -0.277003,0.479783 -0.116501,1.086291 0.363285,1.363293 0.479783,0.277003 1.090197,0.116502 1.3672,-0.363283 l 1.00001,-1.734393 c 0.277005,-0.479783 0.112601,-1.086291 -0.36719,-1.363294 -0.164921,-0.09522 -0.342769,-0.140521 -0.519537,-0.136721 z m -59.895121,2.00002 c -0.16113,0.0044 -0.322729,0.05016 -0.472661,0.136721 -0.479783,0.277003 -0.644194,0.883511 -0.367191,1.363293 l 1.000009,1.734394 c 0.277003,0.479782 0.887419,0.640286 1.367201,0.363283 0.479783,-0.277003 0.640288,-0.883511 0.363285,-1.363293 L 12.1876,46.632604 c -0.190439,-0.32985 -0.53615,-0.509579 -0.890633,-0.500005 z m 63.359999,0 c -0.337467,0.0072 -0.661974,0.185142 -0.843758,0.500005 l -1.00001,1.734393 c -0.277003,0.479782 -0.116501,1.08629 0.363286,1.363293 0.479782,0.277003 1.090196,0.116501 1.367199,-0.363283 l 1.00001,-1.734394 c 0.277003,-0.479782 0.112601,-1.08629 -0.36719,-1.363293 -0.164921,-0.09522 -0.342769,-0.140521 -0.519537,-0.136721 z M 22.49239,48.08965 c -0.255623,0 -0.511169,0.101001 -0.707039,0.296877 -0.39174,0.391742 -0.39174,1.022336 0,1.414078 l 1.414076,1.414076 c 0.391742,0.39174 1.022336,0.39174 1.414078,0 0.39174,-0.391742 0.39174,-1.022336 0,-1.414076 L 23.199427,48.386527 C 23.003565,48.190665 22.748011,48.08965 22.49239,48.08965 Z m 41.016028,0 c -0.25562,0 -0.511167,0.101001 -0.707037,0.296877 l -1.414078,1.414078 c -0.391739,0.39174 -0.391739,1.022334 0,1.414076 0.391742,0.39174 1.022336,0.39174 1.414078,0 l 1.414076,-1.414076 c 0.39174,-0.391742 0.39174,-1.022336 0,-1.414078 C 64.019595,48.190665 63.764041,48.08965 63.508418,48.08965 Z M 7.8320887,48.13261 c -0.1611296,0.0044 -0.3227288,0.05016 -0.4726609,0.136722 -0.4797827,0.277002 -0.6441939,0.88351 -0.367191,1.363293 l 1.0000099,1.734393 c 0.2770023,0.479783 0.8874181,0.640287 1.3672008,0.363284 0.4797828,-0.277003 0.6441935,-0.883511 0.3671911,-1.363294 L 8.7266287,48.632615 C 8.5361888,48.302766 8.186572,48.123036 7.8320887,48.13261 Z m 70.2858493,0 c -0.337467,0.0072 -0.661976,0.185142 -0.843758,0.500005 l -1.00001,1.734393 c -0.277003,0.479783 -0.112581,1.086291 0.36719,1.363294 0.479784,0.277003 1.090199,0.116501 1.367201,-0.363284 l 1.00001,-1.734393 c 0.277003,-0.479783 0.112601,-1.086291 -0.367192,-1.363293 -0.164921,-0.09522 -0.346673,-0.140522 -0.523441,-0.136722 z m 3.464878,2.00002 c -0.337467,0.0072 -0.661976,0.185142 -0.843758,0.500005 l -1.00001,1.734393 c -0.277002,0.479783 -0.112601,1.086291 0.36719,1.363294 0.479783,0.277002 1.090199,0.116501 1.367201,-0.363284 l 1.00001,-1.734393 c 0.277003,-0.479783 0.112581,-1.086291 -0.367191,-1.363294 -0.164922,-0.09522 -0.346674,-0.140521 -0.523442,-0.136721 z m -15.246244,0.785164 c -0.255622,0 -0.511169,0.101001 -0.707039,0.296879 l -1.414076,1.414076 c -0.391742,0.391742 -0.391742,1.022336 0,1.414076 0.39174,0.391742 1.022336,0.391742 1.414076,0 l 1.414076,-1.414076 c 0.391742,-0.39174 0.391742,-1.022336 0,-1.414076 -0.195862,-0.195862 -0.451416,-0.296879 -0.707037,-0.296879 z m -38.273815,1.832058 c -0.319973,0.02236 -0.61985,0.20014 -0.792976,0.500005 -0.277003,0.479783 -0.116501,1.086293 0.363284,1.363295 l 1.734393,1.00001 c 0.479782,0.277003 1.08629,0.116501 1.363293,-0.363285 0.277003,-0.479783 0.116501,-1.090199 -0.363283,-1.367202 l -1.734393,-1.00001 c -0.179922,-0.103881 -0.378334,-0.146241 -0.570318,-0.132821 z m 29.730761,0 c -0.145141,0.011 -0.290845,0.0549 -0.425784,0.132821 l -1.734393,1.00001 c -0.479783,0.277003 -0.640287,0.887419 -0.363284,1.367202 0.277003,0.479782 0.883511,0.640288 1.363294,0.363285 l 1.734393,-1.00001 c 0.479782,-0.277002 0.640286,-0.883512 0.363283,-1.363295 -0.199102,-0.344844 -0.566571,-0.528141 -0.937509,-0.500005 z m 11.371206,0.996104 c -0.25562,0 -0.511167,0.101001 -0.707037,0.296877 l -1.414078,1.414078 c -0.39174,0.391739 -0.39174,1.022334 0,1.414076 0.391742,0.391739 1.022336,0.391739 1.414078,0 l 1.414076,-1.414076 c 0.39174,-0.391742 0.39174,-1.022336 0,-1.414078 -0.195862,-0.195862 -0.451416,-0.296877 -0.707039,-0.296877 z M 26.11352,56.210824 c -0.337468,0.0072 -0.661977,0.185142 -0.843759,0.500005 -0.277002,0.479783 -0.116501,1.090197 0.363284,1.367199 l 1.734393,1.00001 c 0.479783,0.277005 1.086291,0.112601 1.363293,-0.367189 0.277003,-0.479783 0.116502,-1.086293 -0.363283,-1.363296 l -1.734393,-1.00001 c -0.164922,-0.09522 -0.342768,-0.140521 -0.519535,-0.136719 z" fill="currentColor" opacity="0.6" paint-order="stroke fill markers" stop-color="#000000" stroke-dasharray="none" stroke-linecap="round" stroke-linejoin="round" stroke-miterlimit="4"/>
</svg>