<?xml version="1.0" encoding="utf-8"?>
<svg height="160" version="1.1" viewBox="0 0 224 160" width="224" xmlns="http://www.w3.org/2000/svg" xmlns:svg="http://www.w3.org/2000/svg" xmlns:xlink="http://www.w3.org/1999/xlink">
 <namedview bordercolor="#666666" borderopacity="1.0" id="namedview-conformist" pagecolor="#ffffff" pageopacity="0.0" pageshadow="0" showgrid="true">
  <grid class="ColorScheme-Background" empspacing="4" fill="currentColor" opacity="0.6" type="xygrid"/>
 </namedview>
 <defs id="primary-definitions">
  <style class="ColorScheme-Background" fill="currentColor" opacity="0.6" type="text/css">
   .ColorScheme-Text           { color:#eff0f1; }
      .ColorScheme-Background     { color:#31363b; }
      .ColorScheme-Highlight      { color:#3daefd; }
      .ColorScheme-ViewBackground { color:#fcfcfc; }
      .ColorScheme-PositiveText   { color:#27ae60; }
      .ColorScheme-NeutralText    { color:#f67400; }
      .ColorScheme-NegativeText   { color:#da4453; }
  </style>
 </defs>
 <path class="ColorScheme-Background" d="m 97,36 c -1.108,0 -2,0.892 -2,2 v 62 H 80 c -8.836556,0 -16,7.16344 -16,16 0,8.83656 7.163444,16 16,16 8.836556,0 16,-7.16344 16,-16 V 57 h 63 v 27 h -15 c -8.83656,0 -16,7.163444 -16,16 0,8.83656 7.16344,16 16,16 8.83656,0 16,-7.16344 16,-16 V 38 c 0,-1.108 -0.892,-2 -2,-2 z m -1,16 h 63 v 4 H 96 Z" fill="currentColor" opacity="0.6" paint-order="stroke fill markers" stop-color="#000000" stroke-linecap="round" stroke-linejoin="round"/>
 <path class="ColorScheme-Background" d="m 97,36 c -1.108,0 -2,0.892 -2,2 v 62 H 80 c -8.836556,0 -16,7.16344 -16,16 0,8.83656 7.163444,16 16,16 8.836556,0 16,-7.16344 16,-16 V 57 h 63 v 27 h -15 c -8.83656,0 -16,7.163444 -16,16 0,8.83656 7.16344,16 16,16 8.83656,0 16,-7.16344 16,-16 V 38 c 0,-1.108 -0.892,-2 -2,-2 z m 0,0.5 h 61 c 0.83965,0 1.5,0.660352 1.5,1.5 v 14 c -3e-5,-0.276131 -0.22387,-0.499972 -0.5,-0.5 H 96 c -0.276131,2.8e-5 -0.499972,0.223869 -0.5,0.5 V 38 c 0,-0.839648 0.660352,-1.5 1.5,-1.5 z M 96,52 h 63 v 4 H 96 Z m 63.5,32 v 16 c 0,8.56633 -6.93367,15.5 -15.5,15.5 -8.56633,0 -15.5,-6.93367 -15.5,-15.5 0,-8.566328 6.93367,-15.5 15.5,-15.5 h 15 c 0.27613,-2.8e-5 0.49997,-0.223869 0.5,-0.5 z m -64,16 v 16 c 0,8.56633 -6.933672,15.5 -15.5,15.5 -8.566328,0 -15.5,-6.93367 -15.5,-15.5 0,-8.56633 6.933672,-15.5 15.5,-15.5 h 15 c 0.276131,-3e-5 0.499972,-0.22387 0.5,-0.5 z" fill="currentColor" opacity="0.6" paint-order="stroke fill markers" stroke-linecap="round" stroke-linejoin="round"/>
 <path class="ColorScheme-Background" d="m 157.43555,0 2.30078,1.326172 c 0.95956,0.554004 2.17256,0.225186 2.72656,-0.734375 C 162.5716,0.403498 162.619,0.201408 162.66211,0 Z m 29.11133,0 c -0.32425,0.733043 -0.19435,1.614253 0.4082,2.216797 l 2.82812,2.828125 c 0.78348,0.78348 2.04465,0.78348 2.82813,0 0.78348,-0.78348 0.78348,-2.044645 0,-2.828125 L 190.39453,0 Z m -33.41993,2.521484 c -0.63995,0.04474 -1.23968,0.400274 -1.58593,1 -0.554,0.959564 -0.23301,2.172559 0.72656,2.726563 l 3.46875,2 c 0.95957,0.554004 2.17256,0.232999 2.72656,-0.726563 0.55401,-0.959563 0.233,-2.180371 -0.72656,-2.734375 l -3.46875,-2 C 153.90774,2.57936 153.51092,2.494645 153.12695,2.521484 Z m 29.49219,1.9375 c -0.47885,0.02296 -0.95305,0.218682 -1.32031,0.585938 -0.78348,0.78348 -0.78348,2.044645 0,2.828125 l 2.82812,2.828125 c 0.78348,0.78348 2.04465,0.78348 2.82813,0 0.78348,-0.78348 0.78348,-2.044645 0,-2.828125 L 184.12695,5.044922 C 183.71072,4.628698 183.16184,4.43297 182.61914,4.458984 Z M 36.962891,8 c -0.674662,0.787437 -0.662029,1.95516 0.08398,2.701172 0.78348,0.78348 2.044645,0.78348 2.828125,0 L 42.576172,8 Z m 37.716797,1.443359 c -0.322243,0.0087 -0.645451,0.100312 -0.945313,0.273438 l -3.46875,2 c -0.959564,0.554004 -1.280566,1.774812 -0.726563,2.734375 0.554005,0.959563 1.766999,1.280566 2.726563,0.726562 l 3.46875,-2 c 0.959564,-0.554004 1.280566,-1.766999 0.726563,-2.726562 -0.380884,-0.6597 -1.072284,-1.026964 -1.78125,-1.007813 z m 74.548832,0 c -0.67493,0.01452 -1.32393,0.3781 -1.6875,1.007813 -0.554,0.959563 -0.23301,2.172559 0.72656,2.726562 l 3.46875,2 c 0.95957,0.554003 2.17256,0.232999 2.72656,-0.726562 0.55401,-0.959563 0.23301,-2.180371 -0.72656,-2.734375 l -3.46875,-2 C 149.93774,9.526359 149.58206,9.435761 149.22852,9.443359 Z M 46.851562,10.115234 c -0.478852,0.02296 -0.953054,0.218682 -1.320312,0.585938 l -2.828125,2.828125 c -0.783478,0.78348 -0.783478,2.044646 0,2.828125 0.783482,0.78348 2.044647,0.78348 2.828125,0 l 2.828125,-2.828125 c 0.783478,-0.78348 0.783478,-2.044645 0,-2.828125 -0.416224,-0.416223 -0.965118,-0.611952 -1.507813,-0.585938 z m 130.111328,0 c -0.47885,0.02296 -0.95305,0.218682 -1.32031,0.585938 -0.78348,0.78348 -0.78348,2.044645 0,2.828125 l 2.82812,2.828125 c 0.78348,0.78348 2.04465,0.78348 2.82813,0 0.78348,-0.783479 0.78348,-2.044645 0,-2.828125 l -2.82813,-2.828125 c -0.41623,-0.416223 -0.96511,-0.611952 -1.50781,-0.585938 z m -124.455078,5.65625 c -0.478852,0.02296 -0.953058,0.218682 -1.320312,0.585938 l -2.828125,2.828125 c -0.783482,0.78348 -0.783482,2.044645 0,2.828125 0.783478,0.78348 2.044643,0.78348 2.828125,0 l 2.828125,-2.828125 c 0.783482,-0.78348 0.783482,-2.044645 0,-2.828125 -0.416222,-0.416223 -0.965113,-0.611952 -1.507813,-0.585938 z m 118.798828,0 c -0.47885,0.02296 -0.95305,0.218682 -1.32031,0.585938 -0.78348,0.78348 -0.78348,2.044645 0,2.828125 l 2.82812,2.828125 c 0.78348,0.78348 2.04465,0.78348 2.82813,0 0.78348,-0.78348 0.78348,-2.044645 0,-2.828125 l -2.82813,-2.828125 c -0.41623,-0.416223 -0.96511,-0.611952 -1.50781,-0.585938 z M 17.695312,21.263672 c -0.674931,0.0146 -1.323933,0.370288 -1.6875,1 l -2,3.46875 c -0.554004,0.959564 -0.232999,2.172558 0.726563,2.726562 0.959563,0.554004 2.180371,0.233 2.734375,-0.726562 l 2,-3.46875 c 0.554004,-0.959562 0.225188,-2.172559 -0.734375,-2.726563 -0.32985,-0.19044 -0.685527,-0.281035 -1.039063,-0.273437 z m 40.46875,0.164062 c -0.478852,0.02296 -0.953058,0.218684 -1.320312,0.585938 l -2.828125,2.828125 c -0.783478,0.78348 -0.783478,2.044645 0,2.828125 0.783482,0.78348 2.044643,0.78348 2.828125,0 l 2.828125,-2.828125 c 0.783478,-0.78348 0.783478,-2.044643 0,-2.828125 -0.416222,-0.416222 -0.965117,-0.611952 -1.507813,-0.585938 z m 107.478518,0 c -0.47885,0.02296 -0.94524,0.218684 -1.3125,0.585938 -0.78348,0.783482 -0.78348,2.044645 0,2.828125 l 2.82812,2.828125 c 0.78349,0.78348 2.04465,0.78348 2.82813,0 0.78348,-0.78348 0.78348,-2.044645 0,-2.828125 l -2.82813,-2.828125 c -0.41622,-0.416224 -0.97292,-0.611954 -1.51562,-0.585938 z M 24.625,25.263672 c -0.674932,0.0146 -1.331746,0.370288 -1.695312,1 l -2,3.46875 c -0.554004,0.959562 -0.225188,2.172558 0.734374,2.726562 0.959565,0.554004 2.180371,0.232998 2.734376,-0.726562 l 2,-3.46875 C 26.952441,27.30411 26.623626,26.091113 25.664062,25.537109 25.334215,25.346669 24.978534,25.256076 24.625,25.263672 Z m 6.921875,4 c -0.674932,0.0146 -1.323936,0.370288 -1.6875,1 l -2,3.46875 c -0.554004,0.959562 -0.225187,2.172558 0.734375,2.726562 0.959562,0.554004 2.180371,0.233 2.734375,-0.726562 l 2,-3.46875 c 0.554004,-0.959562 0.225187,-2.172559 -0.734375,-2.726563 -0.32985,-0.19044 -0.693341,-0.281035 -1.046875,-0.273437 z m 6.929687,4 c -0.674931,0.0146 -1.323934,0.370288 -1.6875,1 l -2,3.46875 c -0.554003,0.959563 -0.225186,2.17256 0.734376,2.726562 0.959561,0.554004 2.172558,0.233006 2.726562,-0.726562 l 2,-3.46875 c 0.554004,-0.959564 0.232999,-2.172559 -0.726562,-2.726563 -0.329851,-0.19044 -0.69334,-0.281035 -1.046876,-0.273437 z m 146.947268,0 c -0.32224,0.0088 -0.64544,0.100319 -0.94531,0.273437 -0.95956,0.554004 -1.28057,1.766999 -0.72657,2.726563 l 2,3.46875 c 0.554,0.959566 1.76701,1.280566 2.72657,0.726562 0.95956,-0.554004 1.28837,-1.766997 0.73437,-2.726562 l -2,-3.46875 c -0.38088,-0.6597 -1.08009,-1.019152 -1.78906,-1 z m -140.01758,4 c -0.674928,0.0146 -1.323936,0.370286 -1.6875,1 l -2,3.46875 c -0.554008,0.959562 -0.225205,2.172558 0.734375,2.726562 0.959562,0.554004 2.172559,0.233004 2.726563,-0.726562 l 2,-3.46875 c 0.554003,-0.959562 0.233009,-2.172559 -0.726563,-2.726563 -0.329842,-0.19044 -0.693335,-0.281035 -1.046875,-0.273437 z m 133.0957,0 c -0.32225,0.0088 -0.65326,0.100319 -0.95312,0.273437 -0.95957,0.554004 -1.28057,1.767001 -0.72656,2.726563 l 2,3.46875 c 0.55401,0.959562 1.767,1.280566 2.72656,0.726562 0.95957,-0.554004 1.28838,-1.767 0.73437,-2.726562 l -2,-3.46875 c -0.38088,-0.659698 -1.07229,-1.01915 -1.78125,-1 z m 39.21875,10.328125 c -0.1652,0.0018 -0.33276,0.02559 -0.5,0.07031 -1.07026,0.286762 -1.70084,1.382871 -1.41406,2.453125 l 1.03125,3.859375 c 0.28676,1.070252 1.38287,1.700837 2.45313,1.414063 1.07026,-0.286762 1.70082,-1.375058 1.41406,-2.445313 l -1.03906,-3.867187 c -0.24196,-0.903026 -1.05348,-1.494267 -1.94532,-1.484375 z m -7.72656,2.070312 c -0.1652,0.0018 -0.33276,0.02559 -0.5,0.07031 -1.07026,0.286762 -1.70084,1.382873 -1.41406,2.453125 l 1.03125,3.859375 c 0.28676,1.070252 1.38288,1.700836 2.45312,1.414062 1.07026,-0.286762 1.70085,-1.375056 1.41407,-2.445312 l -1.03907,-3.867188 c -0.24196,-0.903026 -1.05347,-1.494263 -1.94531,-1.484375 z m -7.72656,2.070313 c -0.1652,0.0018 -0.33276,0.02559 -0.5,0.07031 -1.07026,0.286762 -1.70866,1.382874 -1.42188,2.453125 l 1.03907,3.859375 c 0.28676,1.07025 1.38288,1.700837 2.45312,1.414063 1.07026,-0.286762 1.70084,-1.375057 1.41406,-2.445313 l -1.03906,-3.867187 c -0.24196,-0.903026 -1.05347,-1.494263 -1.94531,-1.484375 z M 29.265625,53.810547 c -0.81278,0.07168 -1.525958,0.640424 -1.75,1.476562 l -1.03125,3.867188 c -0.286774,1.070256 0.343808,2.158538 1.414063,2.445312 1.070253,0.286762 2.158538,-0.34383 2.445312,-1.414062 l 1.039062,-3.859375 c 0.286775,-1.07025 -0.343808,-2.166351 -1.414062,-2.453125 -0.234118,-0.06272 -0.475545,-0.08254 -0.703125,-0.0625 z m 165.173825,0 c -0.13284,0.008 -0.27248,0.02678 -0.40625,0.0625 -1.07026,0.286762 -1.70084,1.382875 -1.41406,2.453125 l 1.03906,3.859375 c 0.28676,1.070252 1.37506,1.700836 2.44532,1.414062 1.07025,-0.286762 1.70083,-1.375056 1.41406,-2.445312 l -1.03125,-3.867188 c -0.25092,-0.936476 -1.11687,-1.53332 -2.04688,-1.476562 z m -157.3457,2.070312 c -0.852704,0.0328 -1.618559,0.606981 -1.851562,1.476563 l -1.03125,3.867187 c -0.286775,1.07025 0.343808,2.166351 1.414062,2.453125 1.070252,0.286762 2.158538,-0.351631 2.445312,-1.421875 l 1.039063,-3.859375 c 0.286774,-1.07025 -0.343808,-2.166351 -1.414063,-2.453125 -0.200673,-0.05376 -0.404784,-0.07006 -0.601562,-0.0625 z m 149.61914,0 c -0.13284,0.008 -0.27248,0.02678 -0.40625,0.0625 -1.07026,0.286762 -1.70084,1.382875 -1.41406,2.453125 l 1.03906,3.859375 c 0.28676,1.070256 1.37506,1.708649 2.44531,1.421875 1.07025,-0.286762 1.70085,-1.382875 1.41407,-2.453125 l -1.03125,-3.867187 c -0.25092,-0.936468 -1.11686,-1.533319 -2.04688,-1.476563 z M 1.8984375,75.998047 C 0.83877261,76.051415 0,76.926616 0,78 v 4 c 0,1.108008 0.89199213,2 2,2 1.1080078,0 2,-0.891992 2,-2 v -4 c 0,-1.108008 -0.8919922,-2.001953 -2,-2.001953 -0.034624,0 -0.067379,-0.0017 -0.1015625,0 z m 8,0 C 8.8387723,76.051407 8,76.926616 8,78 v 4 c 0,1.108008 0.8919921,2 2,2 1.108008,0 2,-0.891992 2,-2 v -4 c 0,-1.108008 -0.891992,-2.001953 -2,-2.001953 -0.03464,0 -0.067379,-0.0017 -0.1015625,0 z m 8.0000005,0 C 16.838773,76.051407 16,76.926616 16,78 v 4 c 0,1.108008 0.891992,2 2,2 1.108008,0 2,-0.891992 2,-2 v -4 c 0,-1.108008 -0.891992,-2.001953 -2,-2.001953 -0.03464,0 -0.06738,-0.0017 -0.101562,0 z m 8,0 C 24.838772,76.051407 24,76.926616 24,78 v 4 c 0,1.108008 0.891992,2 2,2 1.108008,0 2,-0.891992 2,-2 v -4 c 0,-1.108008 -0.891992,-2.001953 -2,-2.001953 -0.03464,0 -0.06738,-0.0017 -0.101562,0 z m 8,0 C 32.838774,76.051407 32,76.926616 32,78 v 4 c 0,1.108008 0.891992,2 2,2 1.108008,0 2,-0.891992 2,-2 v -4 c 0,-1.108008 -0.891992,-2.001953 -2,-2.001953 -0.03464,0 -0.06738,-0.0017 -0.101562,0 z m 156.001952,0 c -1.05966,0.05336 -1.89844,0.928569 -1.89844,2.001953 v 4 c 0,1.108008 0.89199,2 2,2 1.10801,0 2,-0.891992 2,-2 v -4 c 0,-1.108008 -0.89199,-2.001953 -2,-2.001953 -0.0348,0 -0.0674,-0.0017 -0.10156,0 z m 8,0 c -1.05966,0.05336 -1.89844,0.928569 -1.89844,2.001953 v 4 c 0,1.108008 0.89199,2 2,2 1.108,0 2,-0.891992 2,-2 v -4 c 0,-1.108008 -0.892,-2.001953 -2,-2.001953 -0.0348,0 -0.0674,-0.0017 -0.10156,0 z m 8,0 c -1.05966,0.05336 -1.89844,0.928569 -1.89844,2.001953 v 4 c 0,1.108008 0.892,2 2,2 1.10802,0 2,-0.891992 2,-2 v -4 c 0,-1.108008 -0.89198,-2.001953 -2,-2.001953 -0.0348,0 -0.0674,-0.0017 -0.10156,0 z M 36.023438,96.25781 c -0.132861,0.008 -0.264656,0.0268 -0.398438,0.0625 -1.070252,0.28676 -1.700837,1.38288 -1.414062,2.45313 l 1.03125,3.86718 c 0.286774,1.07026 1.382871,1.70084 2.453124,1.41407 1.070254,-0.28676 1.700837,-1.38288 1.414063,-2.45313 l -1.039063,-3.85937 c -0.250928,-0.93647 -1.11686,-1.54113 -2.046874,-1.48438 z m 151.759762,0 c -0.8527,0.0328 -1.61856,0.6148 -1.85156,1.48438 l -1.03906,3.85937 c -0.28677,1.07025 0.34379,2.16636 1.41406,2.45313 1.07025,0.28676 2.16636,-0.34379 2.45313,-1.41407 l 1.03125,-3.86718 c 0.28676,-1.07025 -0.3438,-2.16635 -1.41407,-2.45313 -0.20068,-0.0538 -0.39696,-0.0701 -0.59375,-0.0625 z M 28.296875,98.32813 c -0.13286,0.008 -0.264657,0.0344 -0.398437,0.0703 -1.070254,0.28676 -1.700837,1.37505 -1.414063,2.44531 l 1.03125,3.86719 c 0.286774,1.07025 1.382873,1.70084 2.453125,1.41406 1.070254,-0.28676 1.700834,-1.38288 1.414062,-2.45312 L 30.34375,99.8125 c -0.250928,-0.93647 -1.116861,-1.54113 -2.046875,-1.48437 z m 167.212895,0 c -0.8527,0.0328 -1.61856,0.61479 -1.85157,1.48437 l -1.03906,3.85938 c -0.28677,1.07026 0.34379,2.16634 1.41406,2.45312 1.07025,0.28676 2.16636,-0.34379 2.45313,-1.41406 l 1.03125,-3.86719 c 0.28676,-1.07026 -0.3438,-2.15854 -1.41406,-2.44531 -0.20069,-0.0538 -0.39696,-0.0779 -0.59375,-0.0703 z m -174.939458,2.07031 c -0.13286,0.008 -0.272467,0.0344 -0.40625,0.0703 -1.070253,0.28677 -1.700836,1.37505 -1.414062,2.44531 l 1.039062,3.86719 c 0.286775,1.07025 1.375059,1.70084 2.445313,1.41406 1.070252,-0.28676 1.708649,-1.38287 1.421875,-2.45312 l -1.039062,-3.85938 c -0.250926,-0.93647 -1.116859,-1.54112 -2.046876,-1.48437 z m -7.726562,2.07031 c -0.132862,0.008 -0.272467,0.0344 -0.40625,0.0703 -1.070253,0.28676 -1.700836,1.37507 -1.414062,2.44532 l 1.039062,3.86718 c 0.286774,1.07025 1.375058,1.70083 2.445312,1.41406 1.070253,-0.28676 1.700837,-1.38287 1.414063,-2.45312 l -1.03125,-3.85938 c -0.250927,-0.93646 -1.11686,-1.54112 -2.046875,-1.48437 z m 30.554688,12.79687 c -0.322243,0.009 -0.645447,0.10032 -0.945313,0.27344 -0.959564,0.554 -1.288383,1.767 -0.734375,2.72656 l 2,3.46876 c 0.554,0.95956 1.774813,1.28056 2.734375,0.72656 0.959564,-0.55401 1.280566,-1.76701 0.726563,-2.72656 l -2,-3.46876 c -0.380885,-0.65968 -1.072284,-1.01914 -1.78125,-1 z m 137.111332,0 c -0.67493,0.0144 -1.32393,0.37028 -1.6875,1 l -2,3.46876 c -0.55401,0.95955 -0.23301,2.17255 0.72656,2.72656 0.95956,0.554 2.18036,0.23301 2.73437,-0.72656 l 2,-3.46876 c 0.55401,-0.95956 0.22521,-2.17256 -0.73437,-2.72656 -0.32984,-0.19044 -0.68552,-0.28104 -1.03906,-0.27344 z m -144.04102,4 c -0.32226,0.009 -0.645449,0.10031 -0.945312,0.27344 -0.959565,0.554 -1.288379,1.76701 -0.734376,2.72656 l 2,3.46876 c 0.554004,0.95955 1.774813,1.28056 2.734376,0.72656 0.959561,-0.55401 1.280566,-1.767 0.726562,-2.72656 l -2,-3.46876 c -0.380878,-0.6597 -1.072286,-1.01913 -1.78125,-1 z m 150.9707,0 c -0.67493,0.0144 -1.32393,0.37028 -1.6875,1 l -2,3.46876 c -0.554,0.95955 -0.233,2.17255 0.72657,2.72656 0.95957,0.554 2.18037,0.233 2.73437,-0.72656 l 2,-3.46876 c 0.554,-0.95955 0.22521,-2.17256 -0.73437,-2.72656 -0.32984,-0.19044 -0.68554,-0.28103 -1.03907,-0.27344 z m -157.900388,4 c -0.322254,0.009 -0.64545,0.10032 -0.945312,0.27344 -0.959564,0.55401 -1.288381,1.767 -0.734375,2.72656 l 2,3.46876 c 0.554004,0.95956 1.774811,1.28056 2.734375,0.72656 0.959562,-0.55401 1.288379,-1.767 0.734375,-2.72656 l -2,-3.46876 c -0.38088,-0.6597 -1.080096,-1.01914 -1.789063,-1 z m 164.822268,0 c -0.67494,0.0144 -1.32393,0.37027 -1.6875,1 l -2,3.46876 c -0.554,0.95956 -0.22521,2.17255 0.73437,2.72656 0.95956,0.554 2.18038,0.233 2.73438,-0.72656 l 2,-3.46876 c 0.554,-0.95955 0.2252,-2.17255 -0.73438,-2.72656 -0.32985,-0.19044 -0.69334,-0.28103 -1.04687,-0.27344 z m -171.751955,4 c -0.322258,0.009 -0.645449,0.10032 -0.945313,0.27344 -0.959562,0.55401 -1.288378,1.767 -0.734374,2.72656 l 2,3.46876 c 0.554003,0.95956 1.774813,1.28057 2.734374,0.72656 0.959565,-0.554 1.288379,-1.76699 0.734376,-2.72656 l -2,-3.46876 c -0.380881,-0.6597 -1.080099,-1.01915 -1.789063,-1 z m 178.681645,0 c -0.67494,0.0144 -1.32394,0.37027 -1.6875,1 l -2,3.46876 c -0.55401,0.95957 -0.2252,2.17256 0.73437,2.72656 0.95957,0.55401 2.18038,0.23301 2.73438,-0.72656 l 2,-3.46876 c 0.554,-0.95956 0.22516,-2.17255 -0.73438,-2.72656 -0.32984,-0.19044 -0.69335,-0.28104 -1.04687,-0.27344 z m -185.60352,4 c -0.322259,0.009 -0.653262,0.10032 -0.953125,0.27344 -0.959563,0.554 -1.280566,1.767 -0.726563,2.72656 l 2,3.46876 c 0.554004,0.95957 1.767,1.28056 2.726563,0.72656 0.959563,-0.554 1.288379,-1.767 0.734375,-2.72656 l -2,-3.46876 c -0.380879,-0.65969 -1.072286,-1.01914 -1.78125,-1 z m 192.5332,0 c -0.67494,0.0144 -1.32394,0.37027 -1.6875,1 l -2,3.46876 c -0.554,0.95956 -0.22516,2.17256 0.73438,2.72656 0.95956,0.554 2.17256,0.23301 2.72656,-0.72656 l 2,-3.46876 c 0.554,-0.95956 0.233,-2.17256 -0.72656,-2.72656 -0.32986,-0.19044 -0.69336,-0.28103 -1.04688,-0.27344 z m -152.884762,0.47657 c -0.478853,0.0228 -0.953055,0.21867 -1.320313,0.58593 -0.783478,0.78348 -0.783478,2.04465 0,2.82813 l 2.828125,2.82813 c 0.783478,0.78346 2.044643,0.78346 2.828125,0 0.783478,-0.78348 0.783478,-2.04465 0,-2.82813 l -2.828125,-2.82813 c -0.416226,-0.41623 -0.965112,-0.61195 -1.507812,-0.58593 z m 113.142582,0 c -0.47885,0.0228 -0.95306,0.21867 -1.32032,0.58593 l -2.82812,2.82813 c -0.78348,0.78348 -0.78348,2.04465 0,2.82813 0.78348,0.78346 2.04465,0.78346 2.82812,0 l 2.82813,-2.82813 c 0.78348,-0.78348 0.78348,-2.04465 0,-2.82813 -0.41622,-0.41623 -0.96511,-0.61195 -1.50781,-0.58593 z M 8.7578125,135.26562 c -0.3222582,0.009 -0.6454493,0.10032 -0.9453125,0.27344 -0.9595628,0.554 -1.288379,1.767 -0.734375,2.72656 l 2,3.46876 c 0.5540038,0.95957 1.774812,1.28056 2.734375,0.72656 0.959563,-0.55401 1.280565,-1.767 0.726562,-2.72656 l -2,-3.46876 c -0.380877,-0.65969 -1.0722849,-1.01914 -1.7812495,-1 z m 206.3925775,0 c -0.67492,0.0144 -1.32394,0.37028 -1.6875,1 l -2,3.46876 c -0.554,0.95956 -0.233,2.17255 0.72656,2.72656 0.95958,0.554 2.18038,0.233 2.73438,-0.72656 l 2,-3.46876 c 0.554,-0.95957 0.22516,-2.17256 -0.73438,-2.72656 -0.32984,-0.19044 -0.68552,-0.28103 -1.03906,-0.27344 z m -165.470702,2.13282 c -0.478853,0.0228 -0.953059,0.21867 -1.320313,0.58594 -0.783482,0.78346 -0.783482,2.04464 0,2.82812 l 2.828125,2.82812 c 0.783482,0.7835 2.044647,0.7835 2.828125,0 0.783482,-0.78346 0.783482,-2.04464 0,-2.82812 L 51.1875,137.98438 c -0.416224,-0.41624 -0.965112,-0.61195 -1.507812,-0.58594 z m 124.455082,0 c -0.47885,0.0228 -0.95307,0.21867 -1.32032,0.58594 l -2.82812,2.82812 c -0.78348,0.78348 -0.78348,2.04466 0,2.82812 0.78348,0.7835 2.04463,0.7835 2.82812,0 l 2.82813,-2.82812 c 0.78348,-0.78348 0.78348,-2.04466 0,-2.82812 -0.41622,-0.41624 -0.96511,-0.61195 -1.50781,-0.58594 z m 47.94531,1.86718 c -0.67492,0.0144 -1.32394,0.37029 -1.6875,1 l -2,3.46876 c -0.554,0.95956 -0.233,2.17255 0.72656,2.72656 0.95956,0.554 2.18038,0.23301 2.73438,-0.72656 l 2,-3.46876 c 0.08,-0.13857 0.10254,-0.28915 0.14648,-0.43554 v -1.1875 c -0.14961,-0.44599 -0.43861,-0.84818 -0.88086,-1.10352 -0.32984,-0.19044 -0.68552,-0.28104 -1.03906,-0.27344 z m -42.28906,3.78907 c -0.47885,0.0228 -0.95307,0.21869 -1.32032,0.58593 l -2.82812,2.82813 c -0.78348,0.78348 -0.78348,2.04465 0,2.82813 0.78348,0.78346 2.04464,0.78346 2.82812,0 l 2.82813,-2.82813 c 0.78348,-0.78348 0.78348,-2.04463 0,-2.82813 -0.41622,-0.41622 -0.96511,-0.61194 -1.50781,-0.58593 z m -108.564458,1.49219 c -0.674931,0.0144 -1.323937,0.37027 -1.6875,1 -0.554004,0.95956 -0.233005,2.18037 0.726563,2.73437 l 3.46875,2 c 0.959562,0.554 2.172558,0.2252 2.726563,-0.73437 0.554004,-0.95957 0.233005,-2.17257 -0.726563,-2.72657 l -3.46875,-2 c -0.329842,-0.19044 -0.685529,-0.28103 -1.039063,-0.27343 z m 81.455078,0 c -0.32224,0.009 -0.64544,0.1003 -0.94531,0.27343 l -3.46875,2 c -0.95956,0.554 -1.28056,1.767 -0.72656,2.72657 0.55401,0.95957 1.767,1.28838 2.72656,0.73437 l 3.46875,-2 c 0.95956,-0.554 1.28057,-1.77481 0.72656,-2.73437 -0.38088,-0.6597 -1.07228,-1.01914 -1.78125,-1 z m 32.76563,4.16406 c -0.47885,0.0228 -0.95307,0.21867 -1.32032,0.58594 l -2.82812,2.82812 c -0.78348,0.78348 -0.78348,2.04465 0,2.82812 0.78348,0.78348 2.04464,0.78348 2.82812,0 l 2.82813,-2.82812 c 0.78348,-0.78348 0.78348,-2.04466 0,-2.82812 -0.41622,-0.41624 -0.96511,-0.61195 -1.50781,-0.58594 z m -118.220708,2.76562 c -0.674931,0.0144 -1.323937,0.37027 -1.6875,1 -0.554004,0.95956 -0.233005,2.18038 0.726563,2.73438 l 3.46875,2 c 0.959562,0.55401 2.172559,0.22519 2.726563,-0.73438 0.554004,-0.95957 0.233003,-2.17255 -0.726563,-2.72656 l -3.46875,-2 c -0.329844,-0.19044 -0.685529,-0.28104 -1.039063,-0.27344 z m 89.455078,0 c -0.32224,0.009 -0.64544,0.10032 -0.94531,0.27344 l -3.46875,2 c -0.95957,0.554 -1.28056,1.767 -0.72656,2.72656 0.55401,0.95956 1.767,1.28838 2.72656,0.73438 l 3.46875,-2 c 0.95956,-0.554 1.28057,-1.77482 0.72656,-2.73438 -0.38088,-0.6597 -1.07228,-1.01915 -1.78125,-1 z M 63.125,158.40625 c -0.639944,0.0447 -1.239688,0.40028 -1.585938,1 -0.109036,0.18886 -0.156168,0.39173 -0.199218,0.59375 h 5.228515 l -2.302734,-1.32812 c -0.359842,-0.20777 -0.756657,-0.29247 -1.140625,-0.26563 z" fill="currentColor" opacity="0.6" paint-order="stroke fill markers" stop-color="#000000" stroke-linecap="round" stroke-linejoin="round"/>
</svg>