<?xml version="1.0" encoding="utf-8"?>
<svg height="80" version="1.1" viewBox="0 0 112 80" width="112" xmlns="http://www.w3.org/2000/svg" xmlns:svg="http://www.w3.org/2000/svg" xmlns:xlink="http://www.w3.org/1999/xlink">
 <namedview bordercolor="#666666" borderopacity="1.0" id="namedview-conformist" pagecolor="#ffffff" pageopacity="0.0" pageshadow="0" showgrid="true">
  <grid class="ColorScheme-Background" empspacing="4" fill="currentColor" opacity="0.6" type="xygrid"/>
 </namedview>
 <defs id="primary-definitions">
  <style class="ColorScheme-Background" fill="currentColor" opacity="0.6" type="text/css">
   .ColorScheme-Text           { color:#eff0f1; }
      .ColorScheme-Background     { color:#31363b; }
      .ColorScheme-Highlight      { color:#3daefd; }
      .ColorScheme-ViewBackground { color:#fcfcfc; }
      .ColorScheme-PositiveText   { color:#27ae60; }
      .ColorScheme-NeutralText    { color:#f67400; }
      .ColorScheme-NegativeText   { color:#da4453; }
  </style>
 </defs>
 <path class="ColorScheme-Background" d="m 49,18 c -1.108,0 -2,0.892 -2,2 v 30 h -7 c -4.418278,0 -8,3.581722 -8,8 0,4.418278 3.581722,8 8,8 4.418278,0 8,-3.581722 8,-8 V 29 h 31 v 13 h -7 c -4.418278,0 -8,3.581722 -8,8 0,4.418278 3.581722,8 8,8 4.418278,0 8,-3.581722 8,-8 V 20 c 0,-1.108 -0.892,-2 -2,-2 z m -1,8 h 31 v 2 H 48 Z" fill="currentColor" opacity="0.6" paint-order="stroke fill markers" stop-color="#000000" stroke-linecap="round" stroke-linejoin="round"/>
 <path class="ColorScheme-Background" d="m 49,18 c -1.108,0 -2,0.892 -2,2 v 30 h -7 c -4.418278,0 -8,3.581722 -8,8 0,4.418278 3.581722,8 8,8 4.418278,0 8,-3.581722 8,-8 V 29 h 31 v 13 h -7 c -4.418278,0 -8,3.581722 -8,8 0,4.418278 3.581722,8 8,8 4.418278,0 8,-3.581722 8,-8 V 20 c 0,-1.108 -0.892,-2 -2,-2 z m 0,0.5 h 29 c 0.839648,0 1.5,0.660352 1.5,1.5 v 6 C 79.499972,25.723869 79.276131,25.500028 79,25.5 H 48 c -0.276131,2.8e-5 -0.499972,0.223869 -0.5,0.5 v -6 c 0,-0.839648 0.660352,-1.5 1.5,-1.5 z M 48,26 h 31 v 2 H 48 Z m 31.5,16 v 8 c 0,4.148054 -3.351946,7.5 -7.5,7.5 -4.148054,0 -7.5,-3.351946 -7.5,-7.5 0,-4.148054 3.351946,-7.5 7.5,-7.5 h 7 c 0.276131,-2.8e-5 0.499972,-0.223869 0.5,-0.5 z m -32,8 v 8 c 0,4.148054 -3.351946,7.5 -7.5,7.5 -4.148054,0 -7.5,-3.351946 -7.5,-7.5 0,-4.148054 3.351946,-7.5 7.5,-7.5 h 7 c 0.276131,-2.8e-5 0.499972,-0.223869 0.5,-0.5 z" fill="currentColor" opacity="0.6" paint-order="stroke fill markers" stroke-linecap="round" stroke-linejoin="round"/>
 <path class="ColorScheme-Background" d="M 78.714844 0 L 79.867188 0.6640625 C 80.346969 0.94106447 80.953467 0.77665581 81.230469 0.296875 C 81.28501 0.20240628 81.310511 0.10105541 81.332031 0 L 78.714844 0 z M 93.275391 0 C 93.112919 0.36664201 93.175122 0.80793389 93.476562 1.109375 L 94.890625 2.5234375 C 95.282365 2.9151773 95.912947 2.9151773 96.304688 2.5234375 C 96.696426 2.1316975 96.696425 1.5011148 96.304688 1.109375 L 95.195312 0 L 93.275391 0 z M 76.5625 1.2617188 C 76.242528 1.2840869 75.942656 1.4618555 75.769531 1.7617188 C 75.492529 2.2415003 75.65303 2.847998 76.132812 3.125 L 77.867188 4.125 C 78.346969 4.402002 78.953467 4.2414993 79.230469 3.7617188 C 79.507471 3.2819372 79.346971 2.6715332 78.867188 2.3945312 L 77.132812 1.3945312 C 76.952892 1.2906566 76.754484 1.2482992 76.5625 1.2617188 z M 91.308594 2.2304688 C 91.069168 2.2419488 90.832065 2.3398094 90.648438 2.5234375 C 90.256698 2.9151773 90.256697 3.54576 90.648438 3.9375 L 92.0625 5.3515625 C 92.454241 5.7433025 93.084823 5.7433025 93.476562 5.3515625 C 93.868302 4.9598227 93.868302 4.32924 93.476562 3.9375 L 92.0625 2.5234375 C 91.854389 2.3153256 91.579944 2.2174616 91.308594 2.2304688 z M 34.646484 3.828125 C 34.133365 3.9001359 33.559153 3.9420581 32.953125 3.96875 C 33.265262 4.2695829 33.736893 4.353584 34.132812 4.125 L 34.646484 3.828125 z M 18.482422 4 C 18.14426 4.3937194 18.150135 4.9782604 18.523438 5.3515625 C 18.915177 5.7433025 19.54576 5.7433025 19.9375 5.3515625 L 21.289062 4 L 18.482422 4 z M 37.339844 4.7226562 C 37.178723 4.7270163 37.017119 4.7728121 36.867188 4.859375 L 35.132812 5.859375 C 34.65303 6.136377 34.492529 6.7467811 34.769531 7.2265625 C 35.046533 7.7063441 35.65303 7.8668457 36.132812 7.5898438 L 37.867188 6.5898438 C 38.34697 6.3128418 38.507471 5.7063441 38.230469 5.2265625 C 38.040027 4.8967128 37.694327 4.7130806 37.339844 4.7226562 z M 74.613281 4.7226562 C 74.275815 4.7299162 73.951313 4.9117061 73.769531 5.2265625 C 73.492529 5.7063441 73.653029 6.3128418 74.132812 6.5898438 L 75.867188 7.5898438 C 76.34697 7.8668457 76.953467 7.7063433 77.230469 7.2265625 C 77.507471 6.7467811 77.346971 6.136377 76.867188 5.859375 L 75.132812 4.859375 C 74.967891 4.7641563 74.790049 4.7188569 74.613281 4.7226562 z M 23.425781 5.0585938 C 23.186355 5.0700737 22.949254 5.1679346 22.765625 5.3515625 L 21.351562 6.765625 C 20.959823 7.1573649 20.959823 7.7879476 21.351562 8.1796875 C 21.743303 8.5714273 22.373886 8.5714273 22.765625 8.1796875 L 24.179688 6.765625 C 24.571427 6.373885 24.571427 5.7433025 24.179688 5.3515625 C 23.971576 5.1434508 23.697128 5.0455868 23.425781 5.0585938 z M 88.480469 5.0585938 C 88.241043 5.0700737 88.003943 5.1679346 87.820312 5.3515625 C 87.428574 5.7433025 87.428574 6.373885 87.820312 6.765625 L 89.234375 8.1796875 C 89.626114 8.5714273 90.256698 8.5714273 90.648438 8.1796875 C 91.040177 7.7879476 91.040176 7.1573649 90.648438 6.765625 L 89.234375 5.3515625 C 89.026262 5.1434508 88.751819 5.0455868 88.480469 5.0585938 z M 26.253906 7.8867188 C 26.01448 7.8981987 25.777377 7.9960594 25.59375 8.1796875 L 24.179688 9.59375 C 23.787947 9.98549 23.787947 10.616072 24.179688 11.007812 C 24.571427 11.399553 25.202009 11.399553 25.59375 11.007812 L 27.007812 9.59375 C 27.399553 9.20201 27.399553 8.5714273 27.007812 8.1796875 C 26.799701 7.9715757 26.525256 7.8737117 26.253906 7.8867188 z M 85.652344 7.8867188 C 85.412918 7.8981987 85.175816 7.9960594 84.992188 8.1796875 C 84.600447 8.5714273 84.600446 9.20201 84.992188 9.59375 L 86.40625 11.007812 C 86.797991 11.399553 87.428574 11.399553 87.820312 11.007812 C 88.212053 10.616072 88.212054 9.98549 87.820312 9.59375 L 86.40625 8.1796875 C 86.198139 7.9715757 85.923694 7.8737117 85.652344 7.8867188 z M 8.8476562 10.632812 C 8.5101904 10.640113 8.185689 10.817957 8.0039062 11.132812 L 7.0039062 12.867188 C 6.7269042 13.34697 6.8874067 13.953467 7.3671875 14.230469 C 7.8469689 14.507471 8.457373 14.346969 8.734375 13.867188 L 9.734375 12.132812 C 10.011377 11.653032 9.8469689 11.046533 9.3671875 10.769531 C 9.2022625 10.674311 9.0244242 10.629013 8.8476562 10.632812 z M 29.082031 10.714844 C 28.842605 10.726324 28.605502 10.824185 28.421875 11.007812 L 27.007812 12.421875 C 26.616073 12.813615 26.616073 13.444198 27.007812 13.835938 C 27.399553 14.227678 28.030134 14.227677 28.421875 13.835938 L 29.835938 12.421875 C 30.227677 12.030135 30.227677 11.399553 29.835938 11.007812 C 29.627827 10.799701 29.353379 10.701837 29.082031 10.714844 z M 82.820312 10.714844 C 82.580887 10.726324 82.347692 10.824185 82.164062 11.007812 C 81.772323 11.399553 81.772323 12.030135 82.164062 12.421875 L 83.578125 13.835938 C 83.969866 14.227678 84.600447 14.227677 84.992188 13.835938 C 85.383927 13.444197 85.383926 12.813615 84.992188 12.421875 L 83.578125 11.007812 C 83.370014 10.799701 83.091663 10.701836 82.820312 10.714844 z M 12.3125 12.632812 C 11.975034 12.640113 11.646627 12.817956 11.464844 13.132812 L 10.464844 14.867188 C 10.187842 15.346968 10.35225 15.953467 10.832031 16.230469 C 11.311813 16.507471 11.922217 16.346968 12.199219 15.867188 L 13.199219 14.132812 C 13.476221 13.653032 13.311813 13.046533 12.832031 12.769531 C 12.667107 12.674311 12.489267 12.629014 12.3125 12.632812 z M 15.773438 14.632812 C 15.435972 14.640113 15.111469 14.817957 14.929688 15.132812 L 13.929688 16.867188 C 13.652686 17.346968 13.817094 17.953467 14.296875 18.230469 C 14.776656 18.507471 15.387061 18.346968 15.664062 17.867188 L 16.664062 16.132812 C 16.941064 15.653032 16.776656 15.046533 16.296875 14.769531 C 16.13195 14.674311 15.950204 14.629013 15.773438 14.632812 z M 19.238281 16.632812 C 18.900815 16.640113 18.576314 16.817957 18.394531 17.132812 L 17.394531 18.867188 C 17.117529 19.346968 17.281938 19.953468 17.761719 20.230469 C 18.2415 20.507471 18.847998 20.346972 19.125 19.867188 L 20.125 18.132812 C 20.402002 17.65303 20.2415 17.046533 19.761719 16.769531 C 19.596794 16.674311 19.415049 16.629013 19.238281 16.632812 z M 92.710938 16.632812 C 92.549817 16.637213 92.388212 16.682972 92.238281 16.769531 C 91.758499 17.046533 91.597998 17.65303 91.875 18.132812 L 92.875 19.867188 C 93.152002 20.346971 93.7585 20.507471 94.238281 20.230469 C 94.718062 19.953467 94.882471 19.346969 94.605469 18.867188 L 93.605469 17.132812 C 93.415028 16.802962 93.065421 16.623236 92.710938 16.632812 z M 22.703125 18.632812 C 22.365661 18.640113 22.041157 18.817955 21.859375 19.132812 L 20.859375 20.867188 C 20.582371 21.346968 20.746772 21.953467 21.226562 22.230469 C 21.706343 22.507471 22.312842 22.346971 22.589844 21.867188 L 23.589844 20.132812 C 23.866846 19.653032 23.706349 19.046533 23.226562 18.769531 C 23.061642 18.674311 22.879895 18.629014 22.703125 18.632812 z M 89.25 18.632812 C 89.088879 18.637213 88.923369 18.682972 88.773438 18.769531 C 88.293656 19.046533 88.133155 19.653031 88.410156 20.132812 L 89.410156 21.867188 C 89.687158 22.346968 90.293657 22.507471 90.773438 22.230469 C 91.25322 21.953467 91.417629 21.346969 91.140625 20.867188 L 90.140625 19.132812 C 89.950187 18.802964 89.604483 18.623238 89.25 18.632812 z M 108.85938 23.796875 C 108.77678 23.797789 108.69299 23.809671 108.60938 23.832031 C 108.07425 23.975412 107.75895 24.523467 107.90234 25.058594 L 108.41797 26.988281 C 108.56135 27.523407 109.1094 27.838699 109.64453 27.695312 C 110.17966 27.551931 110.49494 27.007784 110.35156 26.472656 L 109.83203 24.539062 C 109.71105 24.08755 109.30529 23.791929 108.85938 23.796875 z M 104.99609 24.832031 C 104.91349 24.832945 104.82971 24.844827 104.74609 24.867188 C 104.21096 25.010569 103.89567 25.558624 104.03906 26.09375 L 104.55469 28.023438 C 104.69807 28.558564 105.24613 28.873856 105.78125 28.730469 C 106.31638 28.587088 106.63167 28.04294 106.48828 27.507812 L 105.96875 25.574219 C 105.84777 25.122706 105.44201 24.827087 104.99609 24.832031 z M 101.13281 25.867188 C 101.05021 25.868104 100.96643 25.879984 100.88281 25.902344 C 100.34768 26.045725 100.02848 26.59378 100.17188 27.128906 L 100.69141 29.058594 C 100.83479 29.593719 101.38285 29.909012 101.91797 29.765625 C 102.4531 29.622244 102.76839 29.078097 102.625 28.542969 L 102.10547 26.609375 C 101.98449 26.157862 101.57873 25.862244 101.13281 25.867188 z M 14.632812 26.90625 C 14.226422 26.94209 13.869834 27.226462 13.757812 27.644531 L 13.242188 29.578125 C 13.0988 30.113253 13.414092 30.657394 13.949219 30.800781 C 14.484346 30.944162 15.028488 30.628866 15.171875 30.09375 L 15.691406 28.164062 C 15.834793 27.628937 15.519502 27.080887 14.984375 26.9375 C 14.867316 26.90614 14.746603 26.89623 14.632812 26.90625 z M 97.21875 26.90625 C 97.15233 26.91025 97.082511 26.91964 97.015625 26.9375 C 96.480499 27.080881 96.165207 27.628938 96.308594 28.164062 L 96.828125 30.09375 C 96.971506 30.628876 97.515653 30.944168 98.050781 30.800781 C 98.585907 30.6574 98.9012 30.113253 98.757812 29.578125 L 98.242188 27.644531 C 98.116726 27.176293 97.683757 26.877871 97.21875 26.90625 z M 18.546875 27.941406 C 18.120523 27.957806 17.737596 28.244896 17.621094 28.679688 L 17.105469 30.613281 C 16.962082 31.148406 17.277373 31.696457 17.8125 31.839844 C 18.347626 31.983225 18.891769 31.664028 19.035156 31.128906 L 19.554688 29.199219 C 19.698075 28.664094 19.382783 28.116043 18.847656 27.972656 C 18.747319 27.945776 18.645264 27.937626 18.546875 27.941406 z M 93.355469 27.941406 C 93.289049 27.945406 93.219229 27.954796 93.152344 27.972656 C 92.617216 28.116037 92.301925 28.664094 92.445312 29.199219 L 92.964844 31.128906 C 93.108225 31.664034 93.652374 31.983231 94.1875 31.839844 C 94.722625 31.696463 95.037918 31.148406 94.894531 30.613281 L 94.378906 28.679688 C 94.253445 28.211454 93.820476 27.913028 93.355469 27.941406 z M 0.94921875 38 C 0.4193863 38.026684 1.4802974e-16 38.463308 0 39 L 0 41 C 0 41.554004 0.44599607 42 1 42 C 1.5540039 42 2 41.554004 2 41 L 2 39 C 2 38.445996 1.5540039 38 1 38 C 0.9826879 38 0.96631014 37.99914 0.94921875 38 z M 4.9492188 38 C 4.4193862 38.02668 4 38.463308 4 39 L 4 41 C 4 41.554004 4.4459961 42 5 42 C 5.554004 42 6 41.554004 6 41 L 6 39 C 6 38.445996 5.554004 38 5 38 C 4.98268 38 4.9663102 37.99914 4.9492188 38 z M 8.9492188 38 C 8.4193863 38.02668 8 38.463308 8 39 L 8 41 C 8 41.554004 8.445996 42 9 42 C 9.5540039 42 10 41.554004 10 41 L 10 39 C 10 38.445996 9.5540039 38 9 38 C 8.98268 38 8.9663104 37.99914 8.9492188 38 z M 12.949219 38 C 12.419386 38.02668 12 38.463308 12 39 L 12 41 C 12 41.554004 12.445996 42 13 42 C 13.554004 42 14 41.554004 14 41 L 14 39 C 14 38.445996 13.554004 38 13 38 C 12.98268 38 12.966309 37.99914 12.949219 38 z M 16.949219 38 C 16.419387 38.02668 16 38.463308 16 39 L 16 41 C 16 41.554004 16.445996 42 17 42 C 17.554004 42 18 41.554004 18 41 L 18 39 C 18 38.445996 17.554004 38 17 38 C 16.98268 38 16.966309 37.99914 16.949219 38 z M 94.949219 38 C 94.419387 38.02668 94 38.463308 94 39 L 94 41 C 94 41.554004 94.445996 42 95 42 C 95.554004 42 96 41.554004 96 41 L 96 39 C 96 38.445996 95.554004 38 95 38 C 94.9826 38 94.966299 37.99914 94.949219 38 z M 98.949219 38 C 98.419388 38.02668 98 38.463308 98 39 L 98 41 C 98 41.554004 98.445996 42 99 42 C 99.554004 42 100 41.554004 100 41 L 100 39 C 100 38.445996 99.554004 38 99 38 C 98.9826 38 98.966299 37.99914 98.949219 38 z M 102.94922 38 C 102.41939 38.02668 102 38.463308 102 39 L 102 41 C 102 41.554004 102.446 42 103 42 C 103.55401 42 104 41.554004 104 41 L 104 39 C 104 38.445996 103.55401 38 103 38 C 102.9826 38 102.96632 37.99914 102.94922 38 z M 18.011719 48.128906 C 17.945289 48.132906 17.879391 48.142296 17.8125 48.160156 C 17.277374 48.303537 16.962082 48.851593 17.105469 49.386719 L 17.621094 51.320312 C 17.764481 51.855441 18.312529 52.170731 18.847656 52.027344 C 19.382783 51.883963 19.698075 51.335907 19.554688 50.800781 L 19.035156 48.871094 C 18.909692 48.402859 18.476726 48.100528 18.011719 48.128906 z M 93.890625 48.128906 C 93.464274 48.145306 93.081345 48.436303 92.964844 48.871094 L 92.445312 50.800781 C 92.301931 51.335907 92.617208 51.883957 93.152344 52.027344 C 93.68747 52.170725 94.235519 51.855449 94.378906 51.320312 L 94.894531 49.386719 C 95.037912 48.851593 94.722635 48.303543 94.1875 48.160156 C 94.087159 48.133276 93.989022 48.125126 93.890625 48.128906 z M 14.148438 49.164062 C 14.082007 49.168062 14.016109 49.181259 13.949219 49.199219 C 13.414092 49.3426 13.098801 49.886748 13.242188 50.421875 L 13.757812 52.355469 C 13.9012 52.890597 14.449249 53.205887 14.984375 53.0625 C 15.519502 52.919119 15.834792 52.371063 15.691406 51.835938 L 15.171875 49.90625 C 15.046411 49.438014 14.613445 49.135686 14.148438 49.164062 z M 97.753906 49.164062 C 97.327555 49.180462 96.944628 49.471459 96.828125 49.90625 L 96.308594 51.835938 C 96.165213 52.371063 96.480491 52.919113 97.015625 53.0625 C 97.550752 53.205881 98.098801 52.890605 98.242188 52.355469 L 98.757812 50.421875 C 98.901194 49.886748 98.585915 49.342606 98.050781 49.199219 C 97.95044 49.172339 97.852303 49.160262 97.753906 49.164062 z M 10.285156 50.199219 C 10.218726 50.203219 10.148922 50.216415 10.082031 50.234375 C 9.5469046 50.377758 9.2316132 50.921903 9.375 51.457031 L 9.8945312 53.390625 C 10.037919 53.925753 10.58206 54.241043 11.117188 54.097656 C 11.652313 53.954275 11.971512 53.40622 11.828125 52.871094 L 11.308594 50.941406 C 11.183131 50.473171 10.750164 50.170843 10.285156 50.199219 z M 6.421875 51.234375 C 6.355444 51.238375 6.2856415 51.251571 6.21875 51.269531 C 5.6836232 51.412912 5.368332 51.95706 5.5117188 52.492188 L 6.03125 54.425781 C 6.174637 54.960907 6.7187796 55.2762 7.2539062 55.132812 C 7.789033 54.989432 8.1043241 54.441376 7.9609375 53.90625 L 7.4453125 51.976562 C 7.3198492 51.508328 6.8868823 51.205997 6.421875 51.234375 z M 21.699219 57.632812 C 21.538098 57.637212 21.376496 57.68297 21.226562 57.769531 C 20.74678 58.046533 20.582371 58.653031 20.859375 59.132812 L 21.859375 60.867188 C 22.136375 61.346969 22.746781 61.507471 23.226562 61.230469 C 23.706345 60.953467 23.866846 60.34697 23.589844 59.867188 L 22.589844 58.132812 C 22.399402 57.802965 22.053702 57.623238 21.699219 57.632812 z M 90.253906 57.632812 C 89.916439 57.640012 89.591939 57.81795 89.410156 58.132812 L 88.410156 59.867188 C 88.133155 60.34697 88.293653 60.953467 88.773438 61.230469 C 89.253219 61.507471 89.863623 61.34697 90.140625 60.867188 L 91.140625 59.132812 C 91.417627 58.653031 91.253227 58.046533 90.773438 57.769531 C 90.608516 57.674311 90.430673 57.629013 90.253906 57.632812 z M 18.234375 59.632812 C 18.073245 59.637212 17.911651 59.68297 17.761719 59.769531 C 17.281937 60.046533 17.117529 60.653031 17.394531 61.132812 L 18.394531 62.867188 C 18.671533 63.346969 19.281938 63.507471 19.761719 63.230469 C 20.2415 62.953467 20.402002 62.346968 20.125 61.867188 L 19.125 60.132812 C 18.934561 59.802965 18.588857 59.623238 18.234375 59.632812 z M 93.71875 59.632812 C 93.381284 59.640012 93.056784 59.817951 92.875 60.132812 L 91.875 61.867188 C 91.597998 62.346969 91.758495 62.953467 92.238281 63.230469 C 92.718062 63.507471 93.328467 63.34697 93.605469 62.867188 L 94.605469 61.132812 C 94.882471 60.653031 94.71807 60.046533 94.238281 59.769531 C 94.07336 59.674311 93.895517 59.629012 93.71875 59.632812 z M 14.769531 61.632812 C 14.608404 61.637212 14.446806 61.68297 14.296875 61.769531 C 13.817093 62.046533 13.652685 62.65303 13.929688 63.132812 L 14.929688 64.867188 C 15.206689 65.346969 15.817093 65.507471 16.296875 65.230469 C 16.776656 64.953467 16.941065 64.346969 16.664062 63.867188 L 15.664062 62.132812 C 15.473622 61.802963 15.124014 61.623238 14.769531 61.632812 z M 97.179688 61.632812 C 96.84222 61.640012 96.517719 61.817949 96.335938 62.132812 L 95.335938 63.867188 C 95.058936 64.346969 95.223336 64.953467 95.703125 65.230469 C 96.182909 65.507471 96.793311 65.34697 97.070312 64.867188 L 98.070312 63.132812 C 98.347314 62.65303 98.182916 62.046533 97.703125 61.769531 C 97.538203 61.674311 97.356454 61.629013 97.179688 61.632812 z M 11.304688 63.632812 C 11.143558 63.637212 10.981963 63.68297 10.832031 63.769531 C 10.35225 64.046533 10.187842 64.65303 10.464844 65.132812 L 11.464844 66.867188 C 11.741846 67.34697 12.35225 67.507471 12.832031 67.230469 C 13.311813 66.953467 13.476221 66.34697 13.199219 65.867188 L 12.199219 64.132812 C 12.008779 63.802964 11.65917 63.623239 11.304688 63.632812 z M 100.64453 63.632812 C 100.30706 63.640012 99.982563 63.817951 99.800781 64.132812 L 98.800781 65.867188 C 98.523779 66.34697 98.68818 66.953467 99.167969 67.230469 C 99.64775 67.507471 100.25816 67.346971 100.53516 66.867188 L 101.53516 65.132812 C 101.81216 64.65303 101.64774 64.046533 101.16797 63.769531 C 101.00305 63.674311 100.82129 63.629013 100.64453 63.632812 z M 7.84375 65.632812 C 7.6826208 65.637213 7.5171191 65.682971 7.3671875 65.769531 C 6.8874059 66.046533 6.7269043 66.653031 7.0039062 67.132812 L 8.0039062 68.867188 C 8.2809082 69.34697 8.8874059 69.507471 9.3671875 69.230469 C 9.8469689 68.953467 10.011377 68.34697 9.734375 67.867188 L 8.734375 66.132812 C 8.5439356 65.802964 8.1982323 65.623238 7.84375 65.632812 z M 104.10938 65.632812 C 103.77191 65.640012 103.4474 65.81795 103.26562 66.132812 L 102.26562 67.867188 C 101.98862 68.34697 102.15304 68.953467 102.63281 69.230469 C 103.11259 69.507471 103.71909 69.346971 103.99609 68.867188 L 104.99609 67.132812 C 105.27309 66.653031 105.11259 66.046533 104.63281 65.769531 C 104.46788 65.674311 104.28613 65.629013 104.10938 65.632812 z M 27.667969 65.871094 C 27.428543 65.882494 27.191441 65.980434 27.007812 66.164062 C 26.616073 66.555803 26.616073 67.186386 27.007812 67.578125 L 28.421875 68.992188 C 28.813614 69.383927 29.444197 69.383927 29.835938 68.992188 C 30.227677 68.600448 30.227677 67.969866 29.835938 67.578125 L 28.421875 66.164062 C 28.213762 65.955951 27.939319 65.858086 27.667969 65.871094 z M 84.238281 65.871094 C 83.998855 65.882494 83.761754 65.980434 83.578125 66.164062 L 82.164062 67.578125 C 81.772323 67.969866 81.772323 68.600448 82.164062 68.992188 C 82.555803 69.383927 83.186386 69.383927 83.578125 68.992188 L 84.992188 67.578125 C 85.383927 67.186386 85.383926 66.555804 84.992188 66.164062 C 84.784076 65.955951 84.509629 65.858086 84.238281 65.871094 z M 4.3789062 67.632812 C 4.2177771 67.637213 4.0561816 67.68297 3.90625 67.769531 C 3.4264686 68.046533 3.2620605 68.653032 3.5390625 69.132812 L 4.5390625 70.867188 C 4.8160644 71.346969 5.4264686 71.507471 5.90625 71.230469 C 6.3860314 70.953467 6.5465331 70.346969 6.2695312 69.867188 L 5.2695312 68.132812 C 5.0790919 67.802965 4.7333886 67.623239 4.3789062 67.632812 z M 107.57422 67.632812 C 107.23676 67.640012 106.91225 67.81795 106.73047 68.132812 L 105.73047 69.867188 C 105.45347 70.346969 105.61397 70.953467 106.09375 71.230469 C 106.57354 71.507471 107.18394 71.346971 107.46094 70.867188 L 108.46094 69.132812 C 108.73794 68.653031 108.57352 68.046533 108.09375 67.769531 C 107.92883 67.674311 107.75099 67.629012 107.57422 67.632812 z M 24.839844 68.699219 C 24.600418 68.710619 24.363315 68.808557 24.179688 68.992188 C 23.787947 69.383927 23.787947 70.01451 24.179688 70.40625 L 25.59375 71.820312 C 25.985491 72.212053 26.616074 72.212053 27.007812 71.820312 C 27.399553 71.428574 27.399553 70.797991 27.007812 70.40625 L 25.59375 68.992188 C 25.385638 68.784076 25.111194 68.686213 24.839844 68.699219 z M 87.066406 68.699219 C 86.82698 68.710619 86.589878 68.808557 86.40625 68.992188 L 84.992188 70.40625 C 84.600447 70.797991 84.600446 71.428574 84.992188 71.820312 C 85.383927 72.212053 86.014509 72.212053 86.40625 71.820312 L 87.820312 70.40625 C 88.212053 70.01451 88.212054 69.383926 87.820312 68.992188 C 87.612201 68.784076 87.337756 68.686213 87.066406 68.699219 z M 111.03906 69.632812 C 110.7016 69.640012 110.37709 69.817951 110.19531 70.132812 L 109.19531 71.867188 C 108.91831 72.346969 109.07881 72.953467 109.55859 73.230469 C 110.03837 73.507471 110.64878 73.34697 110.92578 72.867188 L 111.92578 71.132812 C 111.96632 71.062596 111.97797 70.986324 112 70.912109 L 112 70.320312 C 111.92506 70.097771 111.77935 69.89699 111.55859 69.769531 C 111.39367 69.674311 111.21583 69.629012 111.03906 69.632812 z M 89.894531 71.527344 C 89.655105 71.538744 89.418003 71.636684 89.234375 71.820312 L 87.820312 73.234375 C 87.428574 73.626114 87.428574 74.256697 87.820312 74.648438 C 88.212053 75.040176 88.842635 75.040176 89.234375 74.648438 L 90.648438 73.234375 C 91.040177 72.842635 91.040176 72.212054 90.648438 71.820312 C 90.440326 71.612201 90.165879 71.514336 89.894531 71.527344 z M 35.613281 72.273438 C 35.275815 72.280637 34.951312 72.458575 34.769531 72.773438 C 34.492529 73.25322 34.653029 73.863623 35.132812 74.140625 L 36.867188 75.140625 C 37.346969 75.417627 37.953467 75.253227 38.230469 74.773438 C 38.507471 74.293656 38.346972 73.687158 37.867188 73.410156 L 36.132812 72.410156 C 35.967892 72.314936 35.790048 72.269637 35.613281 72.273438 z M 76.339844 72.273438 C 76.178723 72.277838 76.017119 72.323595 75.867188 72.410156 L 74.132812 73.410156 C 73.653031 73.687158 73.492529 74.293656 73.769531 74.773438 C 74.046533 75.25322 74.653031 75.417629 75.132812 75.140625 L 76.867188 74.140625 C 77.34697 73.863625 77.507471 73.25322 77.230469 72.773438 C 77.040028 72.443588 76.694326 72.263863 76.339844 72.273438 z M 92.722656 74.355469 C 92.48323 74.366869 92.246128 74.464806 92.0625 74.648438 L 90.648438 76.0625 C 90.256698 76.45424 90.256697 77.084824 90.648438 77.476562 C 91.040177 77.868302 91.67076 77.868302 92.0625 77.476562 L 93.476562 76.0625 C 93.868302 75.670759 93.868302 75.040176 93.476562 74.648438 C 93.268451 74.440326 92.994006 74.342463 92.722656 74.355469 z M 33.613281 75.738281 C 33.275815 75.745481 32.951312 75.923419 32.769531 76.238281 C 32.492529 76.718062 32.653028 77.328467 33.132812 77.605469 L 34.867188 78.605469 C 35.346969 78.882471 35.953467 78.71807 36.230469 78.238281 C 36.507471 77.7585 36.34697 77.152002 35.867188 76.875 L 34.132812 75.875 C 33.967891 75.77978 33.790048 75.734479 33.613281 75.738281 z M 78.339844 75.738281 C 78.178723 75.742681 78.017119 75.788439 77.867188 75.875 L 76.132812 76.875 C 75.653031 77.152002 75.492529 77.7585 75.769531 78.238281 C 76.046533 78.718062 76.653031 78.882471 77.132812 78.605469 L 78.867188 77.605469 C 79.346969 77.328467 79.507471 76.718062 79.230469 76.238281 C 79.040028 75.908431 78.694326 75.728707 78.339844 75.738281 z M 31.5625 79.203125 C 31.242528 79.225485 30.942656 79.403263 30.769531 79.703125 C 30.715013 79.797554 30.691447 79.898988 30.669922 80 L 33.285156 80 L 32.132812 79.335938 C 31.952891 79.232056 31.754484 79.189705 31.5625 79.203125 z " fill="currentColor" opacity="0.6" paint-order="stroke fill markers" stop-color="#000000" stroke-linecap="round" stroke-linejoin="round"/>
</svg>