<?xml version="1.0" encoding="utf-8"?>
<svg height="20" version="1.1" viewBox="0 0 28 20" width="28" xmlns="http://www.w3.org/2000/svg" xmlns:svg="http://www.w3.org/2000/svg" xmlns:xlink="http://www.w3.org/1999/xlink">
 <namedview bordercolor="#666666" borderopacity="1.0" id="namedview-conformist" pagecolor="#ffffff" pageopacity="0.0" pageshadow="0" showgrid="true">
  <grid class="ColorScheme-Background" empspacing="4" fill="currentColor" opacity="0.6" type="xygrid"/>
 </namedview>
 <defs id="primary-definitions">
  <style class="ColorScheme-Background" fill="currentColor" opacity="0.6" type="text/css">
   .ColorScheme-Text           { color:#eff0f1; }
      .ColorScheme-Background     { color:#31363b; }
      .ColorScheme-Highlight      { color:#3daefd; }
      .ColorScheme-ViewBackground { color:#fcfcfc; }
      .ColorScheme-PositiveText   { color:#27ae60; }
      .ColorScheme-NeutralText    { color:#f67400; }
      .ColorScheme-NegativeText   { color:#da4453; }
  </style>
 </defs>
 <path class="ColorScheme-Background" d="M 4,3 C 2.892,3 2,3.892 2,5 v 15 h 3 v -1 h 18 v 1 h 3 V 5 C 26,3.892 25.108,3 24,3 Z M 5,5 H 23 V 6 H 5 Z M 4,7 h 20 c 0.554,0 1,0.446 1,1 v 2 c 0,0.554 -0.446,1 -1,1 H 4 C 3.446,11 3,10.554 3,10 V 8 C 3,7.446 3.446,7 4,7 Z M 5.5,8 C 5.223,8 5,8.223 5,8.5 v 1 C 5,9.777 5.223,10 5.5,10 5.777,10 6,9.777 6,9.5 v -1 C 6,8.223 5.777,8 5.5,8 Z m 2,0 C 7.223,8 7,8.223 7,8.5 v 1 C 7,9.777 7.223,10 7.5,10 7.777,10 8,9.777 8,9.5 v -1 C 8,8.223 7.777,8 7.5,8 Z m 2,0 C 9.223,8 9,8.223 9,8.5 v 1 C 9,9.777 9.223,10 9.5,10 9.777,10 10,9.777 10,9.5 v -1 C 10,8.223 9.777,8 9.5,8 Z m 2,0 C 11.223,8 11,8.223 11,8.5 v 1 C 11,9.777 11.223,10 11.5,10 11.777,10 12,9.777 12,9.5 v -1 C 12,8.223 11.777,8 11.5,8 Z m 2,0 C 13.223,8 13,8.223 13,8.5 v 1 C 13,9.777 13.223,10 13.5,10 13.777,10 14,9.777 14,9.5 v -1 C 14,8.223 13.777,8 13.5,8 Z m 2,0 C 15.223,8 15,8.223 15,8.5 v 1 C 15,9.777 15.223,10 15.5,10 15.777,10 16,9.777 16,9.5 v -1 C 16,8.223 15.777,8 15.5,8 Z m 2,0 C 17.223,8 17,8.223 17,8.5 v 1 C 17,9.777 17.223,10 17.5,10 17.777,10 18,9.777 18,9.5 v -1 C 18,8.223 17.777,8 17.5,8 Z m 2,0 C 19.223,8 19,8.223 19,8.5 v 1 C 19,9.777 19.223,10 19.5,10 19.777,10 20,9.777 20,9.5 v -1 C 20,8.223 19.777,8 19.5,8 Z M 5,12 h 18 v 1 H 5 Z m -1,2 h 20 c 0.554,0 1,0.446 1,1 v 2 c 0,0.554 -0.446,1 -1,1 H 4 C 3.446,18 3,17.554 3,17 v -2 c 0,-0.554 0.446,-1 1,-1 z m 1.5,1 C 5.223,15 5,15.223 5,15.5 v 1 C 5,16.777 5.223,17 5.5,17 5.777,17 6,16.777 6,16.5 v -1 C 6,15.223 5.777,15 5.5,15 Z m 2,0 C 7.223,15 7,15.223 7,15.5 v 1 C 7,16.777 7.223,17 7.5,17 7.777,17 8,16.777 8,16.5 v -1 C 8,15.223 7.777,15 7.5,15 Z m 2,0 C 9.223,15 9,15.223 9,15.5 v 1 C 9,16.777 9.223,17 9.5,17 9.777,17 10,16.777 10,16.5 v -1 C 10,15.223 9.777,15 9.5,15 Z m 2,0 C 11.223,15 11,15.223 11,15.5 v 1 c 0,0.277 0.223,0.5 0.5,0.5 0.277,0 0.5,-0.223 0.5,-0.5 v -1 C 12,15.223 11.777,15 11.5,15 Z m 2,0 C 13.223,15 13,15.223 13,15.5 v 1 c 0,0.277 0.223,0.5 0.5,0.5 0.277,0 0.5,-0.223 0.5,-0.5 v -1 C 14,15.223 13.777,15 13.5,15 Z m 2,0 C 15.223,15 15,15.223 15,15.5 v 1 c 0,0.277 0.223,0.5 0.5,0.5 0.277,0 0.5,-0.223 0.5,-0.5 v -1 C 16,15.223 15.777,15 15.5,15 Z m 2,0 C 17.223,15 17,15.223 17,15.5 v 1 c 0,0.277 0.223,0.5 0.5,0.5 0.277,0 0.5,-0.223 0.5,-0.5 v -1 C 18,15.223 17.777,15 17.5,15 Z m 2,0 C 19.223,15 19,15.223 19,15.5 v 1 c 0,0.277 0.223,0.5 0.5,0.5 0.277,0 0.5,-0.223 0.5,-0.5 v -1 C 20,15.223 19.777,15 19.5,15 Z" fill="currentColor" opacity="0.6" paint-order="stroke markers fill" stop-color="#000000" stroke-linecap="round" stroke-linejoin="round"/>
</svg>