<?xml version="1.0" encoding="utf-8"?>
<svg height="160" version="1.1" viewBox="0 0 224 160" width="224" xmlns="http://www.w3.org/2000/svg" xmlns:svg="http://www.w3.org/2000/svg" xmlns:xlink="http://www.w3.org/1999/xlink">
 <namedview bordercolor="#666666" borderopacity="1.0" id="namedview-conformist" pagecolor="#ffffff" pageopacity="0.0" pageshadow="0" showgrid="true">
  <grid class="ColorScheme-Background" empspacing="4" fill="currentColor" opacity="0.6" type="xygrid"/>
 </namedview>
 <defs id="primary-definitions">
  <style class="ColorScheme-Background" fill="currentColor" opacity="0.6" type="text/css">
   .ColorScheme-Text           { color:#eff0f1; }
      .ColorScheme-Background     { color:#31363b; }
      .ColorScheme-Highlight      { color:#3daefd; }
      .ColorScheme-ViewBackground { color:#fcfcfc; }
      .ColorScheme-PositiveText   { color:#27ae60; }
      .ColorScheme-NeutralText    { color:#f67400; }
      .ColorScheme-NegativeText   { color:#da4453; }
  </style>
 </defs>
 <path class="ColorScheme-Background" d="M 18 33 C 16.892 33 16 33.892 16 35 L 16 160 L 36 160 L 36 157 L 188 157 L 188 160 L 208 160 L 208 35 C 208 33.892 207.108 33 206 33 L 18 33 z M 38 57 L 186 57 C 187.108 57 188 57.892 188 59 L 188 61 L 186 61 L 38 61 L 36 61 L 36 59 C 36 57.892 36.892 57 38 57 z M 22 62 L 202 62 C 203.108 62 204 62.892 204 64 L 204 104 C 204 105.108 203.108 106 202 106 L 22 106 C 20.892 106 20 105.108 20 104 L 20 64 C 20 62.892 20.892 62 22 62 z M 26 66 C 24.892 66 24 66.892 24 68 C 24 69.108 24.892 70 26 70 C 27.108 70 28 69.108 28 68 C 28 66.892 27.108 66 26 66 z M 38 66 C 36.892 66 36 66.892 36 68 L 36 100 C 36 101.108 36.892 102 38 102 L 38 97 C 38 95.892 38.892 95 40 95 L 44 95 C 45.108 95 46 95.892 46 97 L 46 102 C 47.108 102 48 101.108 48 100 L 48 68 C 48 66.892 47.108 66 46 66 L 38 66 z M 52 66 C 50.892 66 50 66.892 50 68 L 50 100 C 50 101.108 50.892 102 52 102 L 52 97 C 52 95.892 52.892 95 54 95 L 58 95 C 59.108 95 60 95.892 60 97 L 60 102 C 61.108 102 62 101.108 62 100 L 62 68 C 62 66.892 61.108 66 60 66 L 52 66 z M 66 66 C 64.892 66 64 66.892 64 68 L 64 100 C 64 101.108 64.892 102 66 102 L 66 97 C 66 95.892 66.892 95 68 95 L 72 95 C 73.108 95 74 95.892 74 97 L 74 102 C 75.108 102 76 101.108 76 100 L 76 68 C 76 66.892 75.108 66 74 66 L 66 66 z M 80 66 C 78.892 66 78 66.892 78 68 L 78 100 C 78 101.108 78.892 102 80 102 L 80 97 C 80 95.892 80.892 95 82 95 L 86 95 C 87.108 95 88 95.892 88 97 L 88 102 C 89.108 102 90 101.108 90 100 L 90 68 C 90 66.892 89.108 66 88 66 L 80 66 z M 94 66 C 92.892 66 92 66.892 92 68 L 92 100 C 92 101.108 92.892 102 94 102 L 94 97 C 94 95.892 94.892 95 96 95 L 100 95 C 101.108 95 102 95.892 102 97 L 102 102 C 103.108 102 104 101.108 104 100 L 104 68 C 104 66.892 103.108 66 102 66 L 94 66 z M 108 66 C 106.892 66 106 66.892 106 68 L 106 100 C 106 101.108 106.892 102 108 102 L 108 97 C 108 95.892 108.892 95 110 95 L 114 95 C 115.108 95 116 95.892 116 97 L 116 102 C 117.108 102 118 101.108 118 100 L 118 68 C 118 66.892 117.108 66 116 66 L 108 66 z M 122 66 C 120.892 66 120 66.892 120 68 L 120 100 C 120 101.108 120.892 102 122 102 L 122 97 C 122 95.892 122.892 95 124 95 L 128 95 C 129.108 95 130 95.892 130 97 L 130 102 C 131.108 102 132 101.108 132 100 L 132 68 C 132 66.892 131.108 66 130 66 L 122 66 z M 136 66 C 134.892 66 134 66.892 134 68 L 134 100 C 134 101.108 134.892 102 136 102 L 136 97 C 136 95.892 136.892 95 138 95 L 142 95 C 143.108 95 144 95.892 144 97 L 144 102 C 145.108 102 146 101.108 146 100 L 146 68 C 146 66.892 145.108 66 144 66 L 136 66 z M 198 66 C 196.892 66 196 66.892 196 68 C 196 69.108 196.892 70 198 70 C 199.108 70 200 69.108 200 68 C 200 66.892 199.108 66 198 66 z M 178 78 C 174.676 78 172 80.676 172 84 C 172 87.324 174.676 90 178 90 C 181.324 90 184 87.324 184 84 C 184 80.676 181.324 78 178 78 z M 178 79 C 180.77 79 183 81.23 183 84 C 183 86.77 180.77 89 178 89 C 175.23 89 173 86.77 173 84 C 173 81.23 175.23 79 178 79 z M 178 80 C 175.784 80 174 81.784 174 84 C 174 86.216 175.784 88 178 88 C 180.216 88 182 86.216 182 84 C 182 81.784 180.216 80 178 80 z M 40 96 C 39.446 96 39 96.446 39 97 L 39 102 L 40 102 L 44 102 L 45 102 L 45 97 C 45 96.446 44.554 96 44 96 L 40 96 z M 54 96 C 53.446 96 53 96.446 53 97 L 53 102 L 54 102 L 58 102 L 59 102 L 59 97 C 59 96.446 58.554 96 58 96 L 54 96 z M 68 96 C 67.446 96 67 96.446 67 97 L 67 102 L 68 102 L 72 102 L 73 102 L 73 97 C 73 96.446 72.554 96 72 96 L 68 96 z M 82 96 C 81.446 96 81 96.446 81 97 L 81 102 L 82 102 L 86 102 L 87 102 L 87 97 C 87 96.446 86.554 96 86 96 L 82 96 z M 96 96 C 95.446 96 95 96.446 95 97 L 95 102 L 96 102 L 100 102 L 101 102 L 101 97 C 101 96.446 100.554 96 100 96 L 96 96 z M 110 96 C 109.446 96 109 96.446 109 97 L 109 102 L 110 102 L 114 102 L 115 102 L 115 97 C 115 96.446 114.554 96 114 96 L 110 96 z M 124 96 C 123.446 96 123 96.446 123 97 L 123 102 L 124 102 L 128 102 L 129 102 L 129 97 C 129 96.446 128.554 96 128 96 L 124 96 z M 138 96 C 137.446 96 137 96.446 137 97 L 137 102 L 138 102 L 142 102 L 143 102 L 143 97 C 143 96.446 142.554 96 142 96 L 138 96 z M 26 98 C 24.892 98 24 98.892 24 100 C 24 101.108 24.892 102 26 102 C 27.108 102 28 101.108 28 100 C 28 98.892 27.108 98 26 98 z M 198 98 C 196.892 98 196 98.892 196 100 C 196 101.108 196.892 102 198 102 C 199.108 102 200 101.108 200 100 C 200 98.892 199.108 98 198 98 z M 36 107 L 188 107 L 188 111 L 36 111 L 36 107 z M 22 112 L 202 112 C 203.108 112 204 112.892 204 114 L 204 154 C 204 155.108 203.108 156 202 156 L 22 156 C 20.892 156 20 155.108 20 154 L 20 114 C 20 112.892 20.892 112 22 112 z M 26 116 C 24.892 116 24 116.892 24 118 C 24 119.108 24.892 120 26 120 C 27.108 120 28 119.108 28 118 C 28 116.892 27.108 116 26 116 z M 38 116 C 36.892 116 36 116.892 36 118 L 36 150 C 36 151.108 36.892 152 38 152 L 38 147 C 38 145.892 38.892 145 40 145 L 44 145 C 45.108 145 46 145.892 46 147 L 46 152 C 47.108 152 48 151.108 48 150 L 48 118 C 48 116.892 47.108 116 46 116 L 38 116 z M 52 116 C 50.892 116 50 116.892 50 118 L 50 150 C 50 151.108 50.892 152 52 152 L 52 147 C 52 145.892 52.892 145 54 145 L 58 145 C 59.108 145 60 145.892 60 147 L 60 152 C 61.108 152 62 151.108 62 150 L 62 118 C 62 116.892 61.108 116 60 116 L 52 116 z M 66 116 C 64.892 116 64 116.892 64 118 L 64 150 C 64 151.108 64.892 152 66 152 L 66 147 C 66 145.892 66.892 145 68 145 L 72 145 C 73.108 145 74 145.892 74 147 L 74 152 C 75.108 152 76 151.108 76 150 L 76 118 C 76 116.892 75.108 116 74 116 L 66 116 z M 80 116 C 78.892 116 78 116.892 78 118 L 78 150 C 78 151.108 78.892 152 80 152 L 80 147 C 80 145.892 80.892 145 82 145 L 86 145 C 87.108 145 88 145.892 88 147 L 88 152 C 89.108 152 90 151.108 90 150 L 90 118 C 90 116.892 89.108 116 88 116 L 80 116 z M 94 116 C 92.892 116 92 116.892 92 118 L 92 150 C 92 151.108 92.892 152 94 152 L 94 147 C 94 145.892 94.892 145 96 145 L 100 145 C 101.108 145 102 145.892 102 147 L 102 152 C 103.108 152 104 151.108 104 150 L 104 118 C 104 116.892 103.108 116 102 116 L 94 116 z M 108 116 C 106.892 116 106 116.892 106 118 L 106 150 C 106 151.108 106.892 152 108 152 L 108 147 C 108 145.892 108.892 145 110 145 L 114 145 C 115.108 145 116 145.892 116 147 L 116 152 C 117.108 152 118 151.108 118 150 L 118 118 C 118 116.892 117.108 116 116 116 L 108 116 z M 122 116 C 120.892 116 120 116.892 120 118 L 120 150 C 120 151.108 120.892 152 122 152 L 122 147 C 122 145.892 122.892 145 124 145 L 128 145 C 129.108 145 130 145.892 130 147 L 130 152 C 131.108 152 132 151.108 132 150 L 132 118 C 132 116.892 131.108 116 130 116 L 122 116 z M 136 116 C 134.892 116 134 116.892 134 118 L 134 150 C 134 151.108 134.892 152 136 152 L 136 147 C 136 145.892 136.892 145 138 145 L 142 145 C 143.108 145 144 145.892 144 147 L 144 152 C 145.108 152 146 151.108 146 150 L 146 118 C 146 116.892 145.108 116 144 116 L 136 116 z M 198 116 C 196.892 116 196 116.892 196 118 C 196 119.108 196.892 120 198 120 C 199.108 120 200 119.108 200 118 C 200 116.892 199.108 116 198 116 z M 178 128 C 174.676 128 172 130.676 172 134 C 172 137.324 174.676 140 178 140 C 181.324 140 184 137.324 184 134 C 184 130.676 181.324 128 178 128 z M 178 129 C 180.77 129 183 131.23 183 134 C 183 136.77 180.77 139 178 139 C 175.23 139 173 136.77 173 134 C 173 131.23 175.23 129 178 129 z M 178 130 C 175.784 130 174 131.784 174 134 C 174 136.216 175.784 138 178 138 C 180.216 138 182 136.216 182 134 C 182 131.784 180.216 130 178 130 z M 40 146 C 39.446 146 39 146.446 39 147 L 39 152 L 40 152 L 44 152 L 45 152 L 45 147 C 45 146.446 44.554 146 44 146 L 40 146 z M 54 146 C 53.446 146 53 146.446 53 147 L 53 152 L 54 152 L 58 152 L 59 152 L 59 147 C 59 146.446 58.554 146 58 146 L 54 146 z M 68 146 C 67.446 146 67 146.446 67 147 L 67 152 L 68 152 L 72 152 L 73 152 L 73 147 C 73 146.446 72.554 146 72 146 L 68 146 z M 82 146 C 81.446 146 81 146.446 81 147 L 81 152 L 82 152 L 86 152 L 87 152 L 87 147 C 87 146.446 86.554 146 86 146 L 82 146 z M 96 146 C 95.446 146 95 146.446 95 147 L 95 152 L 96 152 L 100 152 L 101 152 L 101 147 C 101 146.446 100.554 146 100 146 L 96 146 z M 110 146 C 109.446 146 109 146.446 109 147 L 109 152 L 110 152 L 114 152 L 115 152 L 115 147 C 115 146.446 114.554 146 114 146 L 110 146 z M 124 146 C 123.446 146 123 146.446 123 147 L 123 152 L 124 152 L 128 152 L 129 152 L 129 147 C 129 146.446 128.554 146 128 146 L 124 146 z M 138 146 C 137.446 146 137 146.446 137 147 L 137 152 L 138 152 L 142 152 L 143 152 L 143 147 C 143 146.446 142.554 146 142 146 L 138 146 z M 26 148 C 24.892 148 24 148.892 24 150 C 24 151.108 24.892 152 26 152 C 27.108 152 28 151.108 28 150 C 28 148.892 27.108 148 26 148 z M 198 148 C 196.892 148 196 148.892 196 150 C 196 151.108 196.892 152 198 152 C 199.108 152 200 151.108 200 150 C 200 148.892 199.108 148 198 148 z " fill="currentColor" opacity="0.6" paint-order="stroke markers fill" stop-color="#000000" stroke-linecap="round" stroke-linejoin="round"/>
</svg>