<?xml version="1.0" encoding="utf-8"?>
<svg height="80" version="1.1" viewBox="0 0 112 80" width="112" xmlns="http://www.w3.org/2000/svg" xmlns:svg="http://www.w3.org/2000/svg" xmlns:xlink="http://www.w3.org/1999/xlink">
 <namedview bordercolor="#666666" borderopacity="1.0" id="namedview-conformist" pagecolor="#ffffff" pageopacity="0.0" pageshadow="0" showgrid="true">
  <grid class="ColorScheme-Background" empspacing="4" fill="currentColor" opacity="0.6" type="xygrid"/>
 </namedview>
 <defs id="primary-definitions">
  <style class="ColorScheme-Background" fill="currentColor" opacity="0.6" type="text/css">
   .ColorScheme-Text           { color:#eff0f1; }
      .ColorScheme-Background     { color:#31363b; }
      .ColorScheme-Highlight      { color:#3daefd; }
      .ColorScheme-ViewBackground { color:#fcfcfc; }
      .ColorScheme-PositiveText   { color:#27ae60; }
      .ColorScheme-NeutralText    { color:#f67400; }
      .ColorScheme-NegativeText   { color:#da4453; }
  </style>
 </defs>
 <path class="ColorScheme-Background" d="M 11 15 C 9.338 15 8 16.338 8 18 L 8 80 L 18 80 L 18 78 L 94 78 L 94 80 L 104 80 L 104 18 C 104 16.338 102.662 15 101 15 L 11 15 z M 19 26 L 93 26 C 93.554 26 94 26.446 94 27 L 94 28 L 93 28 L 19 28 L 18 28 L 18 27 C 18 26.446 18.446 26 19 26 z M 12 29 L 100 29 C 101.108 29 102 29.892 102 31 L 102 49 C 102 50.108 101.108 51 100 51 L 12 51 C 10.892 51 10 50.108 10 49 L 10 31 C 10 29.892 10.892 29 12 29 z M 13 31 C 12.446 31 12 31.446 12 32 C 12 32.554 12.446 33 13 33 C 13.554 33 14 32.554 14 32 C 14 31.446 13.554 31 13 31 z M 20 31 C 18.892 31 18 31.892 18 33 L 18 47 C 18 47.742776 18.401923 48.387446 19 48.732422 L 19 46 C 19 45.446 19.446 45 20 45 L 22 45 C 22.554 45 23 45.446 23 46 L 23 48.732422 C 23.598077 48.387446 24 47.742776 24 47 L 24 33 C 24 31.892 23.108 31 22 31 L 20 31 z M 27 31 C 25.892 31 25 31.892 25 33 L 25 47 C 25 47.742776 25.401923 48.387446 26 48.732422 L 26 46 C 26 45.446 26.446 45 27 45 L 29 45 C 29.554 45 30 45.446 30 46 L 30 48.732422 C 30.598077 48.387446 31 47.742776 31 47 L 31 33 C 31 31.892 30.108 31 29 31 L 27 31 z M 34 31 C 32.892 31 32 31.892 32 33 L 32 47 C 32 47.742776 32.401923 48.387446 33 48.732422 L 33 46 C 33 45.446 33.446 45 34 45 L 36 45 C 36.554 45 37 45.446 37 46 L 37 48.732422 C 37.598077 48.387446 38 47.742776 38 47 L 38 33 C 38 31.892 37.108 31 36 31 L 34 31 z M 41 31 C 39.892 31 39 31.892 39 33 L 39 47 C 39 47.742776 39.401923 48.387446 40 48.732422 L 40 46 C 40 45.446 40.446 45 41 45 L 43 45 C 43.554 45 44 45.446 44 46 L 44 48.732422 C 44.598077 48.387446 45 47.742776 45 47 L 45 33 C 45 31.892 44.108 31 43 31 L 41 31 z M 48 31 C 46.892 31 46 31.892 46 33 L 46 47 C 46 47.742776 46.401923 48.387446 47 48.732422 L 47 46 C 47 45.446 47.446 45 48 45 L 50 45 C 50.554 45 51 45.446 51 46 L 51 48.732422 C 51.598077 48.387446 52 47.742776 52 47 L 52 33 C 52 31.892 51.108 31 50 31 L 48 31 z M 55 31 C 53.892 31 53 31.892 53 33 L 53 47 C 53 47.742776 53.401923 48.387446 54 48.732422 L 54 46 C 54 45.446 54.446 45 55 45 L 57 45 C 57.554 45 58 45.446 58 46 L 58 48.732422 C 58.598077 48.387446 59 47.742776 59 47 L 59 33 C 59 31.892 58.108 31 57 31 L 55 31 z M 62 31 C 60.892 31 60 31.892 60 33 L 60 47 C 60 47.742776 60.401923 48.387446 61 48.732422 L 61 46 C 61 45.446 61.446 45 62 45 L 64 45 C 64.554 45 65 45.446 65 46 L 65 48.732422 C 65.598077 48.387446 66 47.742776 66 47 L 66 33 C 66 31.892 65.108 31 64 31 L 62 31 z M 69 31 C 67.892 31 67 31.892 67 33 L 67 47 C 67 47.742776 67.401923 48.387446 68 48.732422 L 68 46 C 68 45.446 68.446 45 69 45 L 71 45 C 71.554 45 72 45.446 72 46 L 72 48.732422 C 72.598077 48.387446 73 47.742776 73 47 L 73 33 C 73 31.892 72.108 31 71 31 L 69 31 z M 99 31 C 98.446 31 98 31.446 98 32 C 98 32.554 98.446 33 99 33 C 99.554 33 100 32.554 100 32 C 100 31.446 99.554 31 99 31 z M 89 36 C 86.784 36 85 37.784 85 40 C 85 42.216 86.784 44 89 44 C 91.216 44 93 42.216 93 40 C 93 37.784 91.216 36 89 36 z M 89 37 C 90.662 37 92 38.338 92 40 C 92 41.662 90.662 43 89 43 C 87.338 43 86 41.662 86 40 C 86 38.338 87.338 37 89 37 z M 89 38 C 87.892 38 87 38.892 87 40 C 87 41.108 87.892 42 89 42 C 90.108 42 91 41.108 91 40 C 91 38.892 90.108 38 89 38 z M 20 46 L 20 49 L 22 49 L 22 46 L 20 46 z M 27 46 L 27 49 L 29 49 L 29 46 L 27 46 z M 34 46 L 34 49 L 36 49 L 36 46 L 34 46 z M 41 46 L 41 49 L 43 49 L 43 46 L 41 46 z M 48 46 L 48 49 L 50 49 L 50 46 L 48 46 z M 55 46 L 55 49 L 57 49 L 57 46 L 55 46 z M 62 46 L 62 49 L 64 49 L 64 46 L 62 46 z M 69 46 L 69 49 L 71 49 L 71 46 L 69 46 z M 13 47 C 12.446 47 12 47.446 12 48 C 12 48.554 12.446 49 13 49 C 13.554 49 14 48.554 14 48 C 14 47.446 13.554 47 13 47 z M 99 47 C 98.446 47 98 47.446 98 48 C 98 48.554 98.446 49 99 49 C 99.554 49 100 48.554 100 48 C 100 47.446 99.554 47 99 47 z M 18 52 L 94 52 L 94 54 L 18 54 L 18 52 z M 12 55 L 100 55 C 101.108 55 102 55.892 102 57 L 102 75 C 102 76.108 101.108 77 100 77 L 12 77 C 10.892 77 10 76.108 10 75 L 10 57 C 10 55.892 10.892 55 12 55 z M 13 57 C 12.446 57 12 57.446 12 58 C 12 58.554 12.446 59 13 59 C 13.554 59 14 58.554 14 58 C 14 57.446 13.554 57 13 57 z M 20 57 C 18.892 57 18 57.892 18 59 L 18 73 C 18 73.742776 18.401923 74.387446 19 74.732422 L 19 72 C 19 71.446 19.446 71 20 71 L 22 71 C 22.554 71 23 71.446 23 72 L 23 74.732422 C 23.598077 74.387446 24 73.742776 24 73 L 24 59 C 24 57.892 23.108 57 22 57 L 20 57 z M 27 57 C 25.892 57 25 57.892 25 59 L 25 73 C 25 73.742776 25.401923 74.387446 26 74.732422 L 26 72 C 26 71.446 26.446 71 27 71 L 29 71 C 29.554 71 30 71.446 30 72 L 30 74.732422 C 30.598077 74.387446 31 73.742776 31 73 L 31 59 C 31 57.892 30.108 57 29 57 L 27 57 z M 34 57 C 32.892 57 32 57.892 32 59 L 32 73 C 32 73.742776 32.401923 74.387446 33 74.732422 L 33 72 C 33 71.446 33.446 71 34 71 L 36 71 C 36.554 71 37 71.446 37 72 L 37 74.732422 C 37.598077 74.387446 38 73.742776 38 73 L 38 59 C 38 57.892 37.108 57 36 57 L 34 57 z M 41 57 C 39.892 57 39 57.892 39 59 L 39 73 C 39 73.742776 39.401923 74.387446 40 74.732422 L 40 72 C 40 71.446 40.446 71 41 71 L 43 71 C 43.554 71 44 71.446 44 72 L 44 74.732422 C 44.598077 74.387446 45 73.742776 45 73 L 45 59 C 45 57.892 44.108 57 43 57 L 41 57 z M 48 57 C 46.892 57 46 57.892 46 59 L 46 73 C 46 73.742776 46.401923 74.387446 47 74.732422 L 47 72 C 47 71.446 47.446 71 48 71 L 50 71 C 50.554 71 51 71.446 51 72 L 51 74.732422 C 51.598077 74.387446 52 73.742776 52 73 L 52 59 C 52 57.892 51.108 57 50 57 L 48 57 z M 55 57 C 53.892 57 53 57.892 53 59 L 53 73 C 53 73.742776 53.401923 74.387446 54 74.732422 L 54 72 C 54 71.446 54.446 71 55 71 L 57 71 C 57.554 71 58 71.446 58 72 L 58 74.732422 C 58.598077 74.387446 59 73.742776 59 73 L 59 59 C 59 57.892 58.108 57 57 57 L 55 57 z M 62 57 C 60.892 57 60 57.892 60 59 L 60 73 C 60 73.742776 60.401923 74.387446 61 74.732422 L 61 72 C 61 71.446 61.446 71 62 71 L 64 71 C 64.554 71 65 71.446 65 72 L 65 74.732422 C 65.598077 74.387446 66 73.742776 66 73 L 66 59 C 66 57.892 65.108 57 64 57 L 62 57 z M 69 57 C 67.892 57 67 57.892 67 59 L 67 73 C 67 73.742776 67.401923 74.387446 68 74.732422 L 68 72 C 68 71.446 68.446 71 69 71 L 71 71 C 71.554 71 72 71.446 72 72 L 72 74.732422 C 72.598077 74.387446 73 73.742776 73 73 L 73 59 C 73 57.892 72.108 57 71 57 L 69 57 z M 99 57 C 98.446 57 98 57.446 98 58 C 98 58.554 98.446 59 99 59 C 99.554 59 100 58.554 100 58 C 100 57.446 99.554 57 99 57 z M 89 62 C 86.784 62 85 63.784 85 66 C 85 68.216 86.784 70 89 70 C 91.216 70 93 68.216 93 66 C 93 63.784 91.216 62 89 62 z M 89 63 C 90.662 63 92 64.338 92 66 C 92 67.662 90.662 69 89 69 C 87.338 69 86 67.662 86 66 C 86 64.338 87.338 63 89 63 z M 89 64 C 87.892 64 87 64.892 87 66 C 87 67.108 87.892 68 89 68 C 90.108 68 91 67.108 91 66 C 91 64.892 90.108 64 89 64 z M 20 72 L 20 75 L 22 75 L 22 72 L 20 72 z M 27 72 L 27 75 L 29 75 L 29 72 L 27 72 z M 34 72 L 34 75 L 36 75 L 36 72 L 34 72 z M 41 72 L 41 75 L 43 75 L 43 72 L 41 72 z M 48 72 L 48 75 L 50 75 L 50 72 L 48 72 z M 55 72 L 55 75 L 57 75 L 57 72 L 55 72 z M 62 72 L 62 75 L 64 75 L 64 72 L 62 72 z M 69 72 L 69 75 L 71 75 L 71 72 L 69 72 z M 13 73 C 12.446 73 12 73.446 12 74 C 12 74.554 12.446 75 13 75 C 13.554 75 14 74.554 14 74 C 14 73.446 13.554 73 13 73 z M 99 73 C 98.446 73 98 73.446 98 74 C 98 74.554 98.446 75 99 75 C 99.554 75 100 74.554 100 74 C 100 73.446 99.554 73 99 73 z " fill="currentColor" opacity="0.6" paint-order="stroke markers fill" stop-color="#000000" stroke-linecap="round" stroke-linejoin="round"/>
</svg>