<?xml version="1.0" encoding="utf-8"?>
<svg height="60" version="1.1" viewBox="0 0 84 60" width="84" xmlns="http://www.w3.org/2000/svg" xmlns:svg="http://www.w3.org/2000/svg" xmlns:xlink="http://www.w3.org/1999/xlink">
 <namedview bordercolor="#666666" borderopacity="1.0" id="namedview-conformist" pagecolor="#ffffff" pageopacity="0.0" pageshadow="0" showgrid="true">
  <grid class="ColorScheme-Background" empspacing="4" fill="currentColor" opacity="0.6" type="xygrid"/>
 </namedview>
 <defs id="primary-definitions">
  <style class="ColorScheme-Background" fill="currentColor" opacity="0.6" type="text/css">
   .ColorScheme-Text           { color:#eff0f1; }
      .ColorScheme-Background     { color:#31363b; }
      .ColorScheme-Highlight      { color:#3daefd; }
      .ColorScheme-ViewBackground { color:#fcfcfc; }
      .ColorScheme-PositiveText   { color:#27ae60; }
      .ColorScheme-NeutralText    { color:#f67400; }
      .ColorScheme-NegativeText   { color:#da4453; }
  </style>
 </defs>
 <path class="ColorScheme-Background" d="M 10 12 C 8.892 12 8 12.892 8 14 L 8 60 L 14 60 L 14 58 L 70 58 L 70 60 L 76 60 L 76 14 C 76 12.892 75.108 12 74 12 L 10 12 z M 15 22 L 69 22 C 69.554 22 70 22.446 70 23 L 70 24 L 14 24 L 14 23 C 14 22.446 14.446 22 15 22 z M 12 25 L 72 25 C 73.108 25 74 25.892 74 27 L 74 37 C 74 38.108 73.108 39 72 39 L 12 39 C 10.892 39 10 38.108 10 37 L 10 27 C 10 25.892 10.892 25 12 25 z M 11.5 26 A 0.5 0.5 0 0 0 11 26.5 A 0.5 0.5 0 0 0 11.5 27 A 0.5 0.5 0 0 0 12 26.5 A 0.5 0.5 0 0 0 11.5 26 z M 14 26 C 13.446 26 13 26.446 13 27 L 13 37 C 13 37.554 13.446 38 14 38 L 14 36 C 14 35.446 14.446 35 15 35 L 16 35 C 16.554 35 17 35.446 17 36 L 17 38 C 17.554 38 18 37.554 18 37 L 18 27 C 18 26.446 17.554 26 17 26 L 14 26 z M 20 26 C 19.446 26 19 26.446 19 27 L 19 37 C 19 37.554 19.446 38 20 38 L 20 36 C 20 35.446 20.446 35 21 35 L 22 35 C 22.554 35 23 35.446 23 36 L 23 38 C 23.554 38 24 37.554 24 37 L 24 27 C 24 26.446 23.554 26 23 26 L 20 26 z M 26 26 C 25.446 26 25 26.446 25 27 L 25 37 C 25 37.554 25.446 38 26 38 L 26 36 C 26 35.446 26.446 35 27 35 L 28 35 C 28.554 35 29 35.446 29 36 L 29 38 C 29.554 38 30 37.554 30 37 L 30 27 C 30 26.446 29.554 26 29 26 L 26 26 z M 32 26 C 31.446 26 31 26.446 31 27 L 31 37 C 31 37.554 31.446 38 32 38 L 32 36 C 32 35.446 32.446 35 33 35 L 34 35 C 34.554 35 35 35.446 35 36 L 35 38 C 35.554 38 36 37.554 36 37 L 36 27 C 36 26.446 35.554 26 35 26 L 32 26 z M 38 26 C 37.446 26 37 26.446 37 27 L 37 37 C 37 37.554 37.446 38 38 38 L 38 36 C 38 35.446 38.446 35 39 35 L 40 35 C 40.554 35 41 35.446 41 36 L 41 38 C 41.554 38 42 37.554 42 37 L 42 27 C 42 26.446 41.554 26 41 26 L 38 26 z M 44 26 C 43.446 26 43 26.446 43 27 L 43 37 C 43 37.554 43.446 38 44 38 L 44 36 C 44 35.446 44.446 35 45 35 L 46 35 C 46.554 35 47 35.446 47 36 L 47 38 C 47.554 38 48 37.554 48 37 L 48 27 C 48 26.446 47.554 26 47 26 L 44 26 z M 50 26 C 49.446 26 49 26.446 49 27 L 49 37 C 49 37.554 49.446 38 50 38 L 50 36 C 50 35.446 50.446 35 51 35 L 52 35 C 52.554 35 53 35.446 53 36 L 53 38 C 53.554 38 54 37.554 54 37 L 54 27 C 54 26.446 53.554 26 53 26 L 50 26 z M 56 26 C 55.446 26 55 26.446 55 27 L 55 37 C 55 37.554 55.446 38 56 38 L 56 36 C 56 35.446 56.446 35 57 35 L 58 35 C 58.554 35 59 35.446 59 36 L 59 38 C 59.554 38 60 37.554 60 37 L 60 27 C 60 26.446 59.554 26 59 26 L 56 26 z M 72.5 26 A 0.5 0.5 0 0 0 72 26.5 A 0.5 0.5 0 0 0 72.5 27 A 0.5 0.5 0 0 0 73 26.5 A 0.5 0.5 0 0 0 72.5 26 z M 67 29 A 3 3 0 0 0 64 32 A 3 3 0 0 0 67 35 A 3 3 0 0 0 70 32 A 3 3 0 0 0 67 29 z M 67 30 A 2 2 0 0 1 69 32 A 2 2 0 0 1 67 34 A 2 2 0 0 1 65 32 A 2 2 0 0 1 67 30 z M 67 31 A 1 1 0 0 0 66 32 A 1 1 0 0 0 67 33 A 1 1 0 0 0 68 32 A 1 1 0 0 0 67 31 z M 15 36 L 15 38 L 16 38 L 16 36 L 15 36 z M 21 36 L 21 38 L 22 38 L 22 36 L 21 36 z M 27 36 L 27 38 L 28 38 L 28 36 L 27 36 z M 33 36 L 33 38 L 34 38 L 34 36 L 33 36 z M 39 36 L 39 38 L 40 38 L 40 36 L 39 36 z M 45 36 L 45 38 L 46 38 L 46 36 L 45 36 z M 51 36 L 51 38 L 52 38 L 52 36 L 51 36 z M 57 36 L 57 38 L 58 38 L 58 36 L 57 36 z M 11.5 37 A 0.5 0.5 0 0 0 11 37.5 A 0.5 0.5 0 0 0 11.5 38 A 0.5 0.5 0 0 0 12 37.5 A 0.5 0.5 0 0 0 11.5 37 z M 72.5 37 A 0.5 0.5 0 0 0 72 37.5 A 0.5 0.5 0 0 0 72.5 38 A 0.5 0.5 0 0 0 73 37.5 A 0.5 0.5 0 0 0 72.5 37 z M 14 40 L 70 40 L 70 42 L 14 42 L 14 40 z M 12 43 L 72 43 C 73.108 43 74 43.892 74 45 L 74 55 C 74 56.108 73.108 57 72 57 L 12 57 C 10.892 57 10 56.108 10 55 L 10 45 C 10 43.892 10.892 43 12 43 z M 11.5 44 A 0.5 0.5 0 0 0 11 44.5 A 0.5 0.5 0 0 0 11.5 45 A 0.5 0.5 0 0 0 12 44.5 A 0.5 0.5 0 0 0 11.5 44 z M 14 44 C 13.446 44 13 44.446 13 45 L 13 55 C 13 55.554 13.446 56 14 56 L 14 54 C 14 53.446 14.446 53 15 53 L 16 53 C 16.554 53 17 53.446 17 54 L 17 56 C 17.554 56 18 55.554 18 55 L 18 45 C 18 44.446 17.554 44 17 44 L 14 44 z M 20 44 C 19.446 44 19 44.446 19 45 L 19 55 C 19 55.554 19.446 56 20 56 L 20 54 C 20 53.446 20.446 53 21 53 L 22 53 C 22.554 53 23 53.446 23 54 L 23 56 C 23.554 56 24 55.554 24 55 L 24 45 C 24 44.446 23.554 44 23 44 L 20 44 z M 26 44 C 25.446 44 25 44.446 25 45 L 25 55 C 25 55.554 25.446 56 26 56 L 26 54 C 26 53.446 26.446 53 27 53 L 28 53 C 28.554 53 29 53.446 29 54 L 29 56 C 29.554 56 30 55.554 30 55 L 30 45 C 30 44.446 29.554 44 29 44 L 26 44 z M 32 44 C 31.446 44 31 44.446 31 45 L 31 55 C 31 55.554 31.446 56 32 56 L 32 54 C 32 53.446 32.446 53 33 53 L 34 53 C 34.554 53 35 53.446 35 54 L 35 56 C 35.554 56 36 55.554 36 55 L 36 45 C 36 44.446 35.554 44 35 44 L 32 44 z M 38 44 C 37.446 44 37 44.446 37 45 L 37 55 C 37 55.554 37.446 56 38 56 L 38 54 C 38 53.446 38.446 53 39 53 L 40 53 C 40.554 53 41 53.446 41 54 L 41 56 C 41.554 56 42 55.554 42 55 L 42 45 C 42 44.446 41.554 44 41 44 L 38 44 z M 44 44 C 43.446 44 43 44.446 43 45 L 43 55 C 43 55.554 43.446 56 44 56 L 44 54 C 44 53.446 44.446 53 45 53 L 46 53 C 46.554 53 47 53.446 47 54 L 47 56 C 47.554 56 48 55.554 48 55 L 48 45 C 48 44.446 47.554 44 47 44 L 44 44 z M 50 44 C 49.446 44 49 44.446 49 45 L 49 55 C 49 55.554 49.446 56 50 56 L 50 54 C 50 53.446 50.446 53 51 53 L 52 53 C 52.554 53 53 53.446 53 54 L 53 56 C 53.554 56 54 55.554 54 55 L 54 45 C 54 44.446 53.554 44 53 44 L 50 44 z M 56 44 C 55.446 44 55 44.446 55 45 L 55 55 C 55 55.554 55.446 56 56 56 L 56 54 C 56 53.446 56.446 53 57 53 L 58 53 C 58.554 53 59 53.446 59 54 L 59 56 C 59.554 56 60 55.554 60 55 L 60 45 C 60 44.446 59.554 44 59 44 L 56 44 z M 72.5 44 A 0.5 0.5 0 0 0 72 44.5 A 0.5 0.5 0 0 0 72.5 45 A 0.5 0.5 0 0 0 73 44.5 A 0.5 0.5 0 0 0 72.5 44 z M 67 47 A 3 3 0 0 0 64 50 A 3 3 0 0 0 67 53 A 3 3 0 0 0 70 50 A 3 3 0 0 0 67 47 z M 67 48 A 2 2 0 0 1 69 50 A 2 2 0 0 1 67 52 A 2 2 0 0 1 65 50 A 2 2 0 0 1 67 48 z M 67 49 A 1 1 0 0 0 66 50 A 1 1 0 0 0 67 51 A 1 1 0 0 0 68 50 A 1 1 0 0 0 67 49 z M 15 54 L 15 56 L 16 56 L 16 54 L 15 54 z M 21 54 L 21 56 L 22 56 L 22 54 L 21 54 z M 27 54 L 27 56 L 28 56 L 28 54 L 27 54 z M 33 54 L 33 56 L 34 56 L 34 54 L 33 54 z M 39 54 L 39 56 L 40 56 L 40 54 L 39 54 z M 45 54 L 45 56 L 46 56 L 46 54 L 45 54 z M 51 54 L 51 56 L 52 56 L 52 54 L 51 54 z M 57 54 L 57 56 L 58 56 L 58 54 L 57 54 z M 11.5 55 A 0.5 0.5 0 0 0 11 55.5 A 0.5 0.5 0 0 0 11.5 56 A 0.5 0.5 0 0 0 12 55.5 A 0.5 0.5 0 0 0 11.5 55 z M 72.5 55 A 0.5 0.5 0 0 0 72 55.5 A 0.5 0.5 0 0 0 72.5 56 A 0.5 0.5 0 0 0 73 55.5 A 0.5 0.5 0 0 0 72.5 55 z " fill="currentColor" opacity="0.6" paint-order="stroke markers fill" stop-color="#000000" stroke-linecap="round" stroke-linejoin="round"/>
</svg>