<?xml version="1.0" encoding="utf-8"?>
<svg height="40" version="1.1" viewBox="0 0 56 40" width="56" xmlns="http://www.w3.org/2000/svg" xmlns:svg="http://www.w3.org/2000/svg" xmlns:xlink="http://www.w3.org/1999/xlink">
 <namedview bordercolor="#666666" borderopacity="1.0" id="namedview-conformist" pagecolor="#ffffff" pageopacity="0.0" pageshadow="0" showgrid="true">
  <grid class="ColorScheme-Background" empspacing="4" fill="currentColor" opacity="0.6" type="xygrid"/>
 </namedview>
 <defs id="primary-definitions">
  <style class="ColorScheme-Background" fill="currentColor" opacity="0.6" type="text/css">
   .ColorScheme-Text           { color:#eff0f1; }
      .ColorScheme-Background     { color:#31363b; }
      .ColorScheme-Highlight      { color:#3daefd; }
      .ColorScheme-ViewBackground { color:#fcfcfc; }
      .ColorScheme-PositiveText   { color:#27ae60; }
      .ColorScheme-NeutralText    { color:#f67400; }
      .ColorScheme-NegativeText   { color:#da4453; }
  </style>
 </defs>
 <path class="ColorScheme-Background" d="m 51.945312,9.9980469 c -0.164526,0.014265 -0.320765,0.063172 -0.447265,0.1367191 l -43.0000001,25 C 7.6137228,35.647636 7.9777161,37.000218 9,37 h 4 v -1.5 c 0,-0.277 0.223,-0.5 0.5,-0.5 0.277,0 0.5,0.223 0.5,0.5 V 37 h 2 v -0.5 c 0,-0.268344 0.209695,-0.486658 0.474609,-0.5 0.0085,-4.3e-4 0.01674,0 0.02539,0 0.277,0 0.5,0.223 0.5,0.5 V 37 h 2 v -1.5 c 0,-0.277 0.223,-0.5 0.5,-0.5 0.277,0 0.5,0.223 0.5,0.5 V 37 h 2 v -0.5 c 0,-0.268344 0.209695,-0.486658 0.474609,-0.5 0.0085,-4.3e-4 0.01674,0 0.02539,0 0.277,0 0.5,0.223 0.5,0.5 V 37 h 2 v -1.5 c 0,-0.277 0.223,-0.5 0.5,-0.5 0.277,0 0.5,0.223 0.5,0.5 V 37 h 2 v -0.5 c 0,-0.268344 0.209695,-0.486658 0.474609,-0.5 0.0085,-4.3e-4 0.01674,0 0.02539,0 0.277,0 0.5,0.223 0.5,0.5 V 37 h 2 v -1.5 c 0,-0.277 0.223,-0.5 0.5,-0.5 0.277,0 0.5,0.223 0.5,0.5 V 37 h 2 v -0.5 c 0,-0.268344 0.209695,-0.486658 0.474609,-0.5 0.0085,-4.3e-4 0.01673,0 0.02539,0 0.277,0 0.5,0.223 0.5,0.5 V 37 h 2 v -1.5 c 0,-0.277 0.223,-0.5 0.5,-0.5 0.277,0 0.5,0.223 0.5,0.5 V 37 h 2 v -0.5 c 0,-0.268344 0.209695,-0.486658 0.474609,-0.5 0.0085,-4.3e-4 0.01673,0 0.02539,0 0.277,0 0.5,0.223 0.5,0.5 V 37 h 2 v -1.5 c 0,-0.277 0.223,-0.5 0.5,-0.5 0.277,0 0.5,0.223 0.5,0.5 V 37 h 2 v -0.5 c 0,-0.268344 0.209695,-0.486658 0.474609,-0.5 0.0085,-4.3e-4 0.01673,0 0.02539,0 0.277,0 0.5,0.223 0.5,0.5 V 37 h 2 v -1.5 c 0,-0.277 0.223,-0.5 0.5,-0.5 0.277,0 0.5,0.223 0.5,0.5 V 37 h 2 c 0.552262,-5.5e-5 0.999945,-0.447738 1,-1 V 34 H 51.5 C 51.223,34 51,33.777 51,33.5 51,33.223 51.223,33 51.5,33 H 53 V 31 H 52.5 C 52.223,31 52,30.777 52,30.5 c 0,-0.268344 0.209695,-0.486658 0.474609,-0.5 0.0085,-4.3e-4 0.01673,0 0.02539,0 H 53 V 28 H 51.5 C 51.223,28 51,27.777 51,27.5 51,27.223 51.223,27 51.5,27 H 53 V 25 H 52.5 C 52.223,25 52,24.777 52,24.5 c 0,-0.268344 0.209695,-0.486658 0.474609,-0.5 0.0085,-4.3e-4 0.01673,0 0.02539,0 H 53 V 22 H 51.5 C 51.223,22 51,21.777 51,21.5 51,21.223 51.223,21 51.5,21 H 53 V 19 H 52.5 C 52.223,19 52,18.777 52,18.5 c 0,-0.268344 0.209695,-0.486658 0.474609,-0.5 0.0085,-4.3e-4 0.01673,0 0.02539,0 H 53 V 16 H 51.5 C 51.223,16 51,15.777 51,15.5 51,15.223 51.223,15 51.5,15 H 53 V 11 C 53,10.216724 52.438893,9.9552503 51.945312,9.9980469 Z M 46,20.765625 V 30 H 30.609375 Z" fill="currentColor" opacity="0.6" stroke-linejoin="round"/>
 <path class="ColorScheme-Background" d="M 52.132812 9.9960938 C 52.070232 9.99151 52.00701 9.9926973 51.945312 9.9980469 C 51.780786 10.012312 51.624547 10.061219 51.498047 10.134766 L 8.4980469 35.134766 C 7.6137228 35.647636 7.9777161 37.000218 9 37 L 13 37 L 13 35.5 C 13 35.223 13.223 35 13.5 35 C 13.777 35 14 35.223 14 35.5 L 14 37 L 16 37 L 16 36.5 C 16 36.231656 16.209695 36.013342 16.474609 36 C 16.483109 35.99957 16.49135 36 16.5 36 C 16.777 36 17 36.223 17 36.5 L 17 37 L 19 37 L 19 35.5 C 19 35.223 19.223 35 19.5 35 C 19.777 35 20 35.223 20 35.5 L 20 37 L 22 37 L 22 36.5 C 22 36.231656 22.209695 36.013342 22.474609 36 C 22.483109 35.99957 22.49135 36 22.5 36 C 22.777 36 23 36.223 23 36.5 L 23 37 L 25 37 L 25 35.5 C 25 35.223 25.223 35 25.5 35 C 25.777 35 26 35.223 26 35.5 L 26 37 L 28 37 L 28 36.5 C 28 36.231656 28.209695 36.013342 28.474609 36 C 28.483109 35.99957 28.49135 36 28.5 36 C 28.777 36 29 36.223 29 36.5 L 29 37 L 31 37 L 31 35.5 C 31 35.223 31.223 35 31.5 35 C 31.777 35 32 35.223 32 35.5 L 32 37 L 34 37 L 34 36.5 C 34 36.231656 34.209695 36.013342 34.474609 36 C 34.483109 35.99957 34.49134 36 34.5 36 C 34.777 36 35 36.223 35 36.5 L 35 37 L 37 37 L 37 35.5 C 37 35.223 37.223 35 37.5 35 C 37.777 35 38 35.223 38 35.5 L 38 37 L 40 37 L 40 36.5 C 40 36.231656 40.209695 36.013342 40.474609 36 C 40.483109 35.99957 40.49134 36 40.5 36 C 40.777 36 41 36.223 41 36.5 L 41 37 L 43 37 L 43 35.5 C 43 35.223 43.223 35 43.5 35 C 43.777 35 44 35.223 44 35.5 L 44 37 L 46 37 L 46 36.5 C 46 36.231656 46.209695 36.013342 46.474609 36 C 46.483109 35.99957 46.49134 36 46.5 36 C 46.777 36 47 36.223 47 36.5 L 47 37 L 49 37 L 49 35.5 C 49 35.223 49.223 35 49.5 35 C 49.777 35 50 35.223 50 35.5 L 50 37 L 52 37 C 52.552262 36.999945 52.999945 36.552262 53 36 L 53 34 L 51.5 34 C 51.223 34 51 33.777 51 33.5 C 51 33.223 51.223 33 51.5 33 L 53 33 L 53 31 L 52.5 31 C 52.223 31 52 30.777 52 30.5 C 52 30.231656 52.209695 30.013342 52.474609 30 C 52.483109 29.99957 52.49134 30 52.5 30 L 53 30 L 53 28 L 51.5 28 C 51.223 28 51 27.777 51 27.5 C 51 27.223 51.223 27 51.5 27 L 53 27 L 53 25 L 52.5 25 C 52.223 25 52 24.777 52 24.5 C 52 24.231656 52.209695 24.013342 52.474609 24 C 52.483109 23.99957 52.49134 24 52.5 24 L 53 24 L 53 22 L 51.5 22 C 51.223 22 51 21.777 51 21.5 C 51 21.223 51.223 21 51.5 21 L 53 21 L 53 19 L 52.5 19 C 52.223 19 52 18.777 52 18.5 C 52 18.231656 52.209695 18.013342 52.474609 18 C 52.483109 17.99957 52.49134 18 52.5 18 L 53 18 L 53 16 L 51.5 16 C 51.223 16 51 15.777 51 15.5 C 51 15.223 51.223 15 51.5 15 L 53 15 L 53 11 C 53 10.314633 52.570873 10.02818 52.132812 9.9960938 z M 51.988281 10.496094 C 52.131522 10.483674 52.26987 10.521634 52.349609 10.583984 C 52.429346 10.646335 52.5 10.727755 52.5 11 L 52.5 14.5 L 51.5 14.5 C 50.954649 14.5 50.5 14.954649 50.5 15.5 C 50.5 16.045351 50.954649 16.5 51.5 16.5 L 52.5 16.5 L 52.5 17.5 C 52.5079 17.5 52.490799 17.4979 52.449219 17.5 C 51.923887 17.52646 51.5 17.971176 51.5 18.5 C 51.5 19.045351 51.954649 19.5 52.5 19.5 L 52.5 20.5 L 51.5 20.5 C 50.954649 20.5 50.5 20.954649 50.5 21.5 C 50.5 22.045351 50.954649 22.5 51.5 22.5 L 52.5 22.5 L 52.5 23.5 C 52.5079 23.5 52.490799 23.4979 52.449219 23.5 C 51.923887 23.52646 51.5 23.971176 51.5 24.5 C 51.5 25.045351 51.954649 25.5 52.5 25.5 L 52.5 26.5 L 51.5 26.5 C 50.954649 26.5 50.5 26.954649 50.5 27.5 C 50.5 28.045351 50.954649 28.5 51.5 28.5 L 52.5 28.5 L 52.5 29.5 C 52.5079 29.5 52.490799 29.4979 52.449219 29.5 C 51.923887 29.52646 51.5 29.971176 51.5 30.5 C 51.5 31.045351 51.954649 31.5 52.5 31.5 L 52.5 32.5 L 51.5 32.5 C 50.954649 32.5 50.5 32.954649 50.5 33.5 C 50.5 34.045351 50.954649 34.5 51.5 34.5 L 52.5 34.5 L 52.5 36 C 52.499972 36.282077 52.282077 36.499972 52 36.5 L 50.5 36.5 L 50.5 35.5 C 50.5 34.954649 50.045351 34.5 49.5 34.5 C 48.954649 34.5 48.5 34.954649 48.5 35.5 L 48.5 36.5 L 47.5 36.5 C 47.5 35.954649 47.045351 35.5 46.5 35.5 C 46.5079 35.5 46.490799 35.4979 46.449219 35.5 C 45.923883 35.526458 45.5 35.971176 45.5 36.5 L 44.5 36.5 L 44.5 35.5 C 44.5 34.954649 44.045351 34.5 43.5 34.5 C 42.954649 34.5 42.5 34.954649 42.5 35.5 L 42.5 36.5 L 41.5 36.5 C 41.5 35.954649 41.045351 35.5 40.5 35.5 C 40.5079 35.5 40.490799 35.4979 40.449219 35.5 C 39.923886 35.52646 39.5 35.971176 39.5 36.5 L 38.5 36.5 L 38.5 35.5 C 38.5 34.954649 38.045351 34.5 37.5 34.5 C 36.954649 34.5 36.5 34.954649 36.5 35.5 L 36.5 36.5 L 35.5 36.5 C 35.5 35.954649 35.045351 35.5 34.5 35.5 C 34.5079 35.5 34.490799 35.4979 34.449219 35.5 C 33.923886 35.52646 33.5 35.971176 33.5 36.5 L 32.5 36.5 L 32.5 35.5 C 32.5 34.954649 32.045351 34.5 31.5 34.5 C 30.954649 34.5 30.5 34.954649 30.5 35.5 L 30.5 36.5 L 29.5 36.5 C 29.5 35.954649 29.045351 35.5 28.5 35.5 C 28.5079 35.5 28.490799 35.4979 28.449219 35.5 C 27.923886 35.52646 27.5 35.971176 27.5 36.5 L 26.5 36.5 L 26.5 35.5 C 26.5 34.954649 26.045351 34.5 25.5 34.5 C 24.954649 34.5 24.5 34.954649 24.5 35.5 L 24.5 36.5 L 23.5 36.5 C 23.5 35.954649 23.045351 35.5 22.5 35.5 C 22.5079 35.5 22.490799 35.4979 22.449219 35.5 C 21.923886 35.52646 21.5 35.971176 21.5 36.5 L 20.5 36.5 L 20.5 35.5 C 20.5 34.954649 20.045351 34.5 19.5 34.5 C 18.954649 34.5 18.5 34.954649 18.5 35.5 L 18.5 36.5 L 17.5 36.5 C 17.5 35.954649 17.045351 35.5 16.5 35.5 C 16.5079 35.5 16.490799 35.4979 16.449219 35.5 C 15.923886 35.52646 15.5 35.971176 15.5 36.5 L 14.5 36.5 L 14.5 35.5 C 14.5 34.954649 14.045351 34.5 13.5 34.5 C 12.954649 34.5 12.5 34.954649 12.5 35.5 L 12.5 36.5 L 9 36.5 C 8.7093873 36.500062 8.5744967 36.340413 8.5175781 36.128906 C 8.4606596 35.9174 8.496653 35.712204 8.7480469 35.566406 A 0.50005 0.50005 0 0 0 8.75 35.566406 L 51.75 10.566406 C 51.80511 10.534366 51.894596 10.504214 51.988281 10.496094 z M 45.994141 20.265625 A 0.50005 0.50005 0 0 0 45.742188 20.335938 L 30.351562 29.570312 A 0.50005 0.50005 0 0 0 30.609375 30.5 L 46 30.5 A 0.50005 0.50005 0 0 0 46.5 30 L 46.5 20.765625 A 0.50005 0.50005 0 0 0 46.246094 20.330078 A 0.50005 0.50005 0 0 0 45.994141 20.265625 z M 46 20.765625 L 46 30 L 30.609375 30 L 46 20.765625 z " fill="currentColor" opacity="0.6" stroke-linejoin="round"/>
</svg>