<?xml version="1.0" encoding="utf-8"?>
<svg height="80" version="1.1" viewBox="0 0 112 80" width="112" xmlns="http://www.w3.org/2000/svg" xmlns:svg="http://www.w3.org/2000/svg" xmlns:xlink="http://www.w3.org/1999/xlink">
 <namedview bordercolor="#666666" borderopacity="1.0" id="namedview-conformist" pagecolor="#ffffff" pageopacity="0.0" pageshadow="0" showgrid="true">
  <grid class="ColorScheme-Background" empspacing="4" fill="currentColor" opacity="0.6" type="xygrid"/>
 </namedview>
 <defs id="primary-definitions">
  <style class="ColorScheme-Background" fill="currentColor" opacity="0.6" type="text/css">
   .ColorScheme-Text           { color:#eff0f1; }
      .ColorScheme-Background     { color:#31363b; }
      .ColorScheme-Highlight      { color:#3daefd; }
      .ColorScheme-ViewBackground { color:#fcfcfc; }
      .ColorScheme-PositiveText   { color:#27ae60; }
      .ColorScheme-NeutralText    { color:#f67400; }
      .ColorScheme-NegativeText   { color:#da4453; }
  </style>
 </defs>
 <path class="ColorScheme-Background" d="M 10 18 C 8.8954306 18 8 18.895431 8 20 L 8 80 L 12 80 L 12 76 C 12 74.892 12.892 74 14 74 L 18 74 C 19.108 74 20 74.892 20 76 L 20 80 L 25 80 L 25 76 C 25 74.338 26.338 73 28 73 L 84 73 C 85.662 73 87 74.338 87 76 L 87 80 L 92 80 L 92 76 C 92 74.892 92.892 74 94 74 L 98 74 C 99.108 74 100 74.892 100 76 L 100 80 L 104 80 L 104 20 C 104 18.895431 103.10457 18 102 18 C 100.89543 18 100 18.895431 100 20 C 100 21.108 99.108 22 98 22 L 94 22 C 92.892 22 92 21.108 92 20 C 92 18.895431 91.10457 18 90 18 C 88.89543 18 88 18.895431 88 20 C 88 22.216 86.216 24 84 24 L 28 24 C 25.784 24 24 22.216 24 20 C 24 18.895431 23.10457 18 22 18 C 20.89543 18 20 18.895431 20 20 C 20 21.108 19.108 22 18 22 L 14 22 C 12.892 22 12 21.108 12 20 C 12 18.895431 11.104569 18 10 18 z M 14 26 L 18 26 C 19.108 26 20 26.892 20 28 L 20 32 C 20 33.108 19.108 34 18 34 L 14 34 C 12.892 34 12 33.108 12 32 L 12 28 C 12 26.892 12.892 26 14 26 z M 94 26 L 98 26 C 99.108 26 100 26.892 100 28 L 100 32 C 100 33.108 99.108 34 98 34 L 94 34 C 92.892 34 92 33.108 92 32 L 92 28 C 92 26.892 92.892 26 94 26 z M 28 29 L 84 29 C 85.662 29 87 30.338 87 32 L 87 64 C 87 65.662 85.662 67 84 67 L 28 67 C 26.338 67 25 65.662 25 64 L 25 32 C 25 30.338 26.338 29 28 29 z M 28 30 C 26.892 30 26 30.892 26 32 L 26 64 C 26 65.108 26.892 66 28 66 L 84 66 C 85.108 66 86 65.108 86 64 L 86 32 C 86 30.892 85.108 30 84 30 L 28 30 z M 14 38 L 18 38 C 19.108 38 20 38.892 20 40 L 20 44 C 20 45.108 19.108 46 18 46 L 14 46 C 12.892 46 12 45.108 12 44 L 12 40 C 12 38.892 12.892 38 14 38 z M 94 38 L 98 38 C 99.108 38 100 38.892 100 40 L 100 44 C 100 45.108 99.108 46 98 46 L 94 46 C 92.892 46 92 45.108 92 44 L 92 40 C 92 38.892 92.892 38 94 38 z M 14 50 L 18 50 C 19.108 50 20 50.892 20 52 L 20 56 C 20 57.108 19.108 58 18 58 L 14 58 C 12.892 58 12 57.108 12 56 L 12 52 C 12 50.892 12.892 50 14 50 z M 94 50 L 98 50 C 99.108 50 100 50.892 100 52 L 100 56 C 100 57.108 99.108 58 98 58 L 94 58 C 92.892 58 92 57.108 92 56 L 92 52 C 92 50.892 92.892 50 94 50 z M 14 62 L 18 62 C 19.108 62 20 62.892 20 64 L 20 68 C 20 69.108 19.108 70 18 70 L 14 70 C 12.892 70 12 69.108 12 68 L 12 64 C 12 62.892 12.892 62 14 62 z M 94 62 L 98 62 C 99.108 62 100 62.892 100 64 L 100 68 C 100 69.108 99.108 70 98 70 L 94 70 C 92.892 70 92 69.108 92 68 L 92 64 C 92 62.892 92.892 62 94 62 z M 28 74 C 26.892 74 26 74.892 26 76 L 26 80 L 86 80 L 86 76 C 86 74.892 85.108 74 84 74 L 28 74 z " fill="currentColor" opacity="0.6" paint-order="markers stroke fill" stop-color="#000000" stroke-dasharray="none" stroke-linecap="round" stroke-linejoin="round" stroke-miterlimit="4" stroke-opacity="0.959005"/>
 <path class="ColorScheme-Background" d="M 10 18 C 8.8954306 18 8 18.895431 8 20 L 8 80 L 12 80 L 12 76 C 12 74.892 12.892 74 14 74 L 18 74 C 19.108 74 20 74.892 20 76 L 20 80 L 25 80 L 25 76 C 25 74.338 26.338 73 28 73 L 84 73 C 85.662 73 87 74.338 87 76 L 87 80 L 92 80 L 92 76 C 92 74.892 92.892 74 94 74 L 98 74 C 99.108 74 100 74.892 100 76 L 100 80 L 104 80 L 104 20 C 104 18.895431 103.10457 18 102 18 C 100.89543 18 100 18.895431 100 20 C 100 21.108 99.108 22 98 22 L 94 22 C 92.892 22 92 21.108 92 20 C 92 18.895431 91.10457 18 90 18 C 88.89543 18 88 18.895431 88 20 C 88 22.216 86.216 24 84 24 L 28 24 C 25.784 24 24 22.216 24 20 C 24 18.895431 23.10457 18 22 18 C 20.89543 18 20 18.895431 20 20 C 20 21.108 19.108 22 18 22 L 14 22 C 12.892 22 12 21.108 12 20 C 12 18.895431 11.104569 18 10 18 z M 10 18.5 C 10.834348 18.5 11.5 19.165652 11.5 20 C 11.5 21.37635 12.62365 22.5 14 22.5 L 18 22.5 C 19.37635 22.5 20.5 21.37635 20.5 20 C 20.5 19.165652 21.165651 18.5 22 18.5 C 22.834349 18.5 23.5 19.165652 23.5 20 C 23.5 22.484349 25.515651 24.5 28 24.5 L 84 24.5 C 86.484349 24.5 88.5 22.484349 88.5 20 C 88.5 19.165652 89.165651 18.5 90 18.5 C 90.834349 18.5 91.5 19.165652 91.5 20 C 91.5 21.37635 92.62365 22.5 94 22.5 L 98 22.5 C 99.37635 22.5 100.5 21.37635 100.5 20 C 100.5 19.165652 101.16565 18.5 102 18.5 C 102.83435 18.5 103.5 19.165652 103.5 20 L 103.5 79.5 L 100.5 79.5 L 100.5 76 C 100.5 74.62365 99.37635 73.5 98 73.5 L 94 73.5 C 92.62365 73.5 91.5 74.62365 91.5 76 L 91.5 79.5 L 87.5 79.5 L 87.5 76 C 87.5 74.069651 85.930349 72.5 84 72.5 L 28 72.5 C 26.069651 72.5 24.5 74.069651 24.5 76 L 24.5 79.5 L 20.5 79.5 L 20.5 76 C 20.5 74.62365 19.37635 73.5 18 73.5 L 14 73.5 C 12.62365 73.5 11.5 74.62365 11.5 76 L 11.5 79.5 L 8.5 79.5 L 8.5 20 C 8.5 19.165652 9.1656517 18.5 10 18.5 z M 14 25.5 C 12.62365 25.5 11.5 26.62365 11.5 28 L 11.5 32 C 11.5 33.37635 12.62365 34.5 14 34.5 L 18 34.5 C 19.37635 34.5 20.5 33.37635 20.5 32 L 20.5 28 C 20.5 26.62365 19.37635 25.5 18 25.5 L 14 25.5 z M 94 25.5 C 92.62365 25.5 91.5 26.62365 91.5 28 L 91.5 32 C 91.5 33.37635 92.62365 34.5 94 34.5 L 98 34.5 C 99.37635 34.5 100.5 33.37635 100.5 32 L 100.5 28 C 100.5 26.62365 99.37635 25.5 98 25.5 L 94 25.5 z M 14 26 L 18 26 C 19.108 26 20 26.892 20 28 L 20 32 C 20 33.108 19.108 34 18 34 L 14 34 C 12.892 34 12 33.108 12 32 L 12 28 C 12 26.892 12.892 26 14 26 z M 94 26 L 98 26 C 99.108 26 100 26.892 100 28 L 100 32 C 100 33.108 99.108 34 98 34 L 94 34 C 92.892 34 92 33.108 92 32 L 92 28 C 92 26.892 92.892 26 94 26 z M 28 28.5 C 26.069651 28.5 24.5 30.069651 24.5 32 L 24.5 64 C 24.5 65.930349 26.069651 67.5 28 67.5 L 84 67.5 C 85.930349 67.5 87.5 65.930349 87.5 64 L 87.5 32 C 87.5 30.069651 85.930349 28.5 84 28.5 L 28 28.5 z M 28 29 L 84 29 C 85.662 29 87 30.338 87 32 L 87 64 C 87 65.662 85.662 67 84 67 L 28 67 C 26.338 67 25 65.662 25 64 L 25 32 C 25 30.338 26.338 29 28 29 z M 28 30 C 26.892 30 26 30.892 26 32 L 26 64 C 26 65.108 26.892 66 28 66 L 84 66 C 85.108 66 86 65.108 86 64 L 86 32 C 86 30.892 85.108 30 84 30 L 28 30 z M 28 30.5 L 84 30.5 C 84.839648 30.5 85.5 31.160352 85.5 32 L 85.5 64 C 85.5 64.839648 84.839648 65.5 84 65.5 L 28 65.5 C 27.160352 65.5 26.5 64.839648 26.5 64 L 26.5 32 C 26.5 31.160352 27.160352 30.5 28 30.5 z M 14 37.5 C 12.62365 37.5 11.5 38.62365 11.5 40 L 11.5 44 C 11.5 45.37635 12.62365 46.5 14 46.5 L 18 46.5 C 19.37635 46.5 20.5 45.37635 20.5 44 L 20.5 40 C 20.5 38.62365 19.37635 37.5 18 37.5 L 14 37.5 z M 94 37.5 C 92.62365 37.5 91.5 38.62365 91.5 40 L 91.5 44 C 91.5 45.37635 92.62365 46.5 94 46.5 L 98 46.5 C 99.37635 46.5 100.5 45.37635 100.5 44 L 100.5 40 C 100.5 38.62365 99.37635 37.5 98 37.5 L 94 37.5 z M 14 38 L 18 38 C 19.108 38 20 38.892 20 40 L 20 44 C 20 45.108 19.108 46 18 46 L 14 46 C 12.892 46 12 45.108 12 44 L 12 40 C 12 38.892 12.892 38 14 38 z M 94 38 L 98 38 C 99.108 38 100 38.892 100 40 L 100 44 C 100 45.108 99.108 46 98 46 L 94 46 C 92.892 46 92 45.108 92 44 L 92 40 C 92 38.892 92.892 38 94 38 z M 14 49.5 C 12.62365 49.5 11.5 50.62365 11.5 52 L 11.5 56 C 11.5 57.37635 12.62365 58.5 14 58.5 L 18 58.5 C 19.37635 58.5 20.5 57.37635 20.5 56 L 20.5 52 C 20.5 50.62365 19.37635 49.5 18 49.5 L 14 49.5 z M 94 49.5 C 92.62365 49.5 91.5 50.62365 91.5 52 L 91.5 56 C 91.5 57.37635 92.62365 58.5 94 58.5 L 98 58.5 C 99.37635 58.5 100.5 57.37635 100.5 56 L 100.5 52 C 100.5 50.62365 99.37635 49.5 98 49.5 L 94 49.5 z M 14 50 L 18 50 C 19.108 50 20 50.892 20 52 L 20 56 C 20 57.108 19.108 58 18 58 L 14 58 C 12.892 58 12 57.108 12 56 L 12 52 C 12 50.892 12.892 50 14 50 z M 94 50 L 98 50 C 99.108 50 100 50.892 100 52 L 100 56 C 100 57.108 99.108 58 98 58 L 94 58 C 92.892 58 92 57.108 92 56 L 92 52 C 92 50.892 92.892 50 94 50 z M 14 61.5 C 12.62365 61.5 11.5 62.62365 11.5 64 L 11.5 68 C 11.5 69.37635 12.62365 70.5 14 70.5 L 18 70.5 C 19.37635 70.5 20.5 69.37635 20.5 68 L 20.5 64 C 20.5 62.62365 19.37635 61.5 18 61.5 L 14 61.5 z M 94 61.5 C 92.62365 61.5 91.5 62.62365 91.5 64 L 91.5 68 C 91.5 69.37635 92.62365 70.5 94 70.5 L 98 70.5 C 99.37635 70.5 100.5 69.37635 100.5 68 L 100.5 64 C 100.5 62.62365 99.37635 61.5 98 61.5 L 94 61.5 z M 14 62 L 18 62 C 19.108 62 20 62.892 20 64 L 20 68 C 20 69.108 19.108 70 18 70 L 14 70 C 12.892 70 12 69.108 12 68 L 12 64 C 12 62.892 12.892 62 14 62 z M 94 62 L 98 62 C 99.108 62 100 62.892 100 64 L 100 68 C 100 69.108 99.108 70 98 70 L 94 70 C 92.892 70 92 69.108 92 68 L 92 64 C 92 62.892 92.892 62 94 62 z M 28 74 C 26.892 74 26 74.892 26 76 L 26 80 L 86 80 L 86 76 C 86 74.892 85.108 74 84 74 L 28 74 z M 28 74.5 L 84 74.5 C 84.839648 74.5 85.5 75.160352 85.5 76 L 85.5 79.5 L 26.5 79.5 L 26.5 76 C 26.5 75.160352 27.160352 74.5 28 74.5 z " fill="currentColor" opacity="0.6" paint-order="markers stroke fill" stroke-linecap="round" stroke-linejoin="round"/>
</svg>