<?xml version="1.0" encoding="utf-8"?>
<svg height="30" version="1.1" viewBox="0 0 42 30" width="42" xmlns="http://www.w3.org/2000/svg" xmlns:svg="http://www.w3.org/2000/svg" xmlns:xlink="http://www.w3.org/1999/xlink">
 <namedview bordercolor="#666666" borderopacity="1.0" id="namedview-conformist" pagecolor="#ffffff" pageopacity="0.0" pageshadow="0" showgrid="true">
  <grid class="ColorScheme-Background" empspacing="4" fill="currentColor" opacity="0.6" type="xygrid"/>
 </namedview>
 <defs id="primary-definitions">
  <style class="ColorScheme-Background" fill="currentColor" opacity="0.6" type="text/css">
   .ColorScheme-Text           { color:#eff0f1; }
      .ColorScheme-Background     { color:#31363b; }
      .ColorScheme-Highlight      { color:#3daefd; }
      .ColorScheme-ViewBackground { color:#fcfcfc; }
      .ColorScheme-PositiveText   { color:#27ae60; }
      .ColorScheme-NeutralText    { color:#f67400; }
      .ColorScheme-NegativeText   { color:#da4453; }
  </style>
 </defs>
 <path class="ColorScheme-Background" d="M 4 7 A 1 1 0 0 0 3 8 L 3 30 L 5 30 L 5 28 L 7 28 L 7 30 L 9 30 L 9 28 C 9 27.446 9.446 27 10 27 L 32 27 C 32.554 27 33 27.446 33 28 L 33 30 L 35 30 L 35 28 L 37 28 L 37 30 L 39 30 L 39 8 A 1 1 0 0 0 38 7 A 1 1 0 0 0 37 8 L 37 9 L 35 9 L 35 8 A 1 1 0 0 0 34 7 A 1 1 0 0 0 33 8 C 33 8.554 32.554 9 32 9 L 10 9 C 9.446 9 9 8.554 9 8 A 1 1 0 0 0 8 7 A 1 1 0 0 0 7 8 L 7 9 L 5 9 L 5 8 A 1 1 0 0 0 4 7 z M 5 10 L 7 10 L 7 12 L 5 12 L 5 10 z M 10 10 L 32 10 C 32.554 10 33 10.446 33 11 L 33 25 C 33 25.554 32.554 26 32 26 L 10 26 C 9.446 26 9 25.554 9 25 L 9 11 C 9 10.446 9.446 10 10 10 z M 35 10 L 37 10 L 37 12 L 35 12 L 35 10 z M 10 11 L 10 25 L 32 25 L 32 11 L 10 11 z M 5 13 L 7 13 L 7 15 L 5 15 L 5 13 z M 35 13 L 37 13 L 37 15 L 35 15 L 35 13 z M 5 16 L 7 16 L 7 18 L 5 18 L 5 16 z M 35 16 L 37 16 L 37 18 L 35 18 L 35 16 z M 5 19 L 7 19 L 7 21 L 5 21 L 5 19 z M 35 19 L 37 19 L 37 21 L 35 21 L 35 19 z M 5 22 L 7 22 L 7 24 L 5 24 L 5 22 z M 35 22 L 37 22 L 37 24 L 35 24 L 35 22 z M 5 25 L 7 25 L 7 27 L 5 27 L 5 25 z M 35 25 L 37 25 L 37 27 L 35 27 L 35 25 z M 10 28 L 10 30 L 32 30 L 32 28 L 10 28 z " fill="currentColor" opacity="0.6" paint-order="markers stroke fill" stop-color="#000000" stroke-dasharray="none" stroke-linecap="round" stroke-linejoin="round" stroke-miterlimit="4" stroke-opacity="0.959005"/>
 <path class="ColorScheme-Background" d="M 4 7 A 1 1 0 0 0 3 8 L 3 30 L 5 30 L 5 28 L 7 28 L 7 30 L 9 30 L 9 28 C 9 27.446 9.446 27 10 27 L 32 27 C 32.554 27 33 27.446 33 28 L 33 30 L 35 30 L 35 28 L 37 28 L 37 30 L 39 30 L 39 8 A 1 1 0 0 0 38 7 A 1 1 0 0 0 37 8 L 37 9 L 35 9 L 35 8 A 1 1 0 0 0 34 7 A 1 1 0 0 0 33 8 C 33 8.554 32.554 9 32 9 L 10 9 C 9.446 9 9 8.554 9 8 A 1 1 0 0 0 8 7 A 1 1 0 0 0 7 8 L 7 9 L 5 9 L 5 8 A 1 1 0 0 0 4 7 z M 4 7.5 C 4.2820644 7.5 4.5 7.7179356 4.5 8 L 4.5 9 A 0.50005 0.50005 0 0 0 5 9.5 A 0.50005 0.50005 0 0 0 4.5 10 L 4.5 12 A 0.50005 0.50005 0 0 0 5 12.5 A 0.50005 0.50005 0 0 0 4.5 13 L 4.5 15 A 0.50005 0.50005 0 0 0 5 15.5 A 0.50005 0.50005 0 0 0 4.5 16 L 4.5 18 A 0.50005 0.50005 0 0 0 5 18.5 A 0.50005 0.50005 0 0 0 4.5 19 L 4.5 21 A 0.50005 0.50005 0 0 0 5 21.5 A 0.50005 0.50005 0 0 0 4.5 22 L 4.5 24 A 0.50005 0.50005 0 0 0 5 24.5 A 0.50005 0.50005 0 0 0 4.5 25 L 4.5 27 A 0.50005 0.50005 0 0 0 5 27.5 A 0.50005 0.50005 0 0 0 4.5 28 L 4.5 29.5 L 3.5 29.5 L 3.5 8 C 3.5 7.7179356 3.7179356 7.5 4 7.5 z M 8 7.5 C 8.2820644 7.5 8.5 7.7179356 8.5 8 C 8.5 8.8223506 9.1776494 9.5 10 9.5 C 9.1776494 9.5 8.5 10.177649 8.5 11 L 8.5 25 C 8.5 25.822351 9.1776494 26.5 10 26.5 C 9.1776494 26.5 8.5 27.177649 8.5 28 L 8.5 29.5 L 7.5 29.5 L 7.5 28 A 0.50005 0.50005 0 0 0 7 27.5 A 0.50005 0.50005 0 0 0 7.5 27 L 7.5 25 A 0.50005 0.50005 0 0 0 7 24.5 A 0.50005 0.50005 0 0 0 7.5 24 L 7.5 22 A 0.50005 0.50005 0 0 0 7 21.5 A 0.50005 0.50005 0 0 0 7.5 21 L 7.5 19 A 0.50005 0.50005 0 0 0 7 18.5 A 0.50005 0.50005 0 0 0 7.5 18 L 7.5 16 A 0.50005 0.50005 0 0 0 7 15.5 A 0.50005 0.50005 0 0 0 7.5 15 L 7.5 13 A 0.50005 0.50005 0 0 0 7 12.5 A 0.50005 0.50005 0 0 0 7.5 12 L 7.5 10 A 0.50005 0.50005 0 0 0 7 9.5 A 0.50005 0.50005 0 0 0 7.5 9 L 7.5 8 C 7.5 7.7179356 7.7179356 7.5 8 7.5 z M 34 7.5 C 34.282064 7.5 34.5 7.7179356 34.5 8 L 34.5 9 A 0.50005 0.50005 0 0 0 35 9.5 A 0.50005 0.50005 0 0 0 34.5 10 L 34.5 12 A 0.50005 0.50005 0 0 0 35 12.5 A 0.50005 0.50005 0 0 0 34.5 13 L 34.5 15 A 0.50005 0.50005 0 0 0 35 15.5 A 0.50005 0.50005 0 0 0 34.5 16 L 34.5 18 A 0.50005 0.50005 0 0 0 35 18.5 A 0.50005 0.50005 0 0 0 34.5 19 L 34.5 21 A 0.50005 0.50005 0 0 0 35 21.5 A 0.50005 0.50005 0 0 0 34.5 22 L 34.5 24 A 0.50005 0.50005 0 0 0 35 24.5 A 0.50005 0.50005 0 0 0 34.5 25 L 34.5 27 A 0.50005 0.50005 0 0 0 35 27.5 A 0.50005 0.50005 0 0 0 34.5 28 L 34.5 29.5 L 33.5 29.5 L 33.5 28 C 33.5 27.177649 32.822351 26.5 32 26.5 C 32.822351 26.5 33.5 25.822351 33.5 25 L 33.5 11 C 33.5 10.177649 32.822351 9.5 32 9.5 C 32.822351 9.5 33.5 8.8223506 33.5 8 C 33.5 7.7179356 33.717936 7.5 34 7.5 z M 38 7.5 C 38.282064 7.5 38.5 7.7179356 38.5 8 L 38.5 29.5 L 37.5 29.5 L 37.5 28 A 0.50005 0.50005 0 0 0 37 27.5 A 0.50005 0.50005 0 0 0 37.5 27 L 37.5 25 A 0.50005 0.50005 0 0 0 37 24.5 A 0.50005 0.50005 0 0 0 37.5 24 L 37.5 22 A 0.50005 0.50005 0 0 0 37 21.5 A 0.50005 0.50005 0 0 0 37.5 21 L 37.5 19 A 0.50005 0.50005 0 0 0 37 18.5 A 0.50005 0.50005 0 0 0 37.5 18 L 37.5 16 A 0.50005 0.50005 0 0 0 37 15.5 A 0.50005 0.50005 0 0 0 37.5 15 L 37.5 13 A 0.50005 0.50005 0 0 0 37 12.5 A 0.50005 0.50005 0 0 0 37.5 12 L 37.5 10 A 0.50005 0.50005 0 0 0 37 9.5 A 0.50005 0.50005 0 0 0 37.5 9 L 37.5 8 C 37.5 7.7179356 37.717936 7.5 38 7.5 z M 5 10 L 7 10 L 7 12 L 5 12 L 5 10 z M 10 10 L 32 10 C 32.554 10 33 10.446 33 11 L 33 25 C 33 25.554 32.554 26 32 26 L 10 26 C 9.446 26 9 25.554 9 25 L 9 11 C 9 10.446 9.446 10 10 10 z M 35 10 L 37 10 L 37 12 L 35 12 L 35 10 z M 10 11 L 10 25 L 32 25 L 32 11 L 10 11 z M 10.5 11.5 L 31.5 11.5 L 31.5 24.5 L 10.5 24.5 L 10.5 11.5 z M 5 13 L 7 13 L 7 15 L 5 15 L 5 13 z M 35 13 L 37 13 L 37 15 L 35 15 L 35 13 z M 5 16 L 7 16 L 7 18 L 5 18 L 5 16 z M 35 16 L 37 16 L 37 18 L 35 18 L 35 16 z M 5 19 L 7 19 L 7 21 L 5 21 L 5 19 z M 35 19 L 37 19 L 37 21 L 35 21 L 35 19 z M 5 22 L 7 22 L 7 24 L 5 24 L 5 22 z M 35 22 L 37 22 L 37 24 L 35 24 L 35 22 z M 5 25 L 7 25 L 7 27 L 5 27 L 5 25 z M 35 25 L 37 25 L 37 27 L 35 27 L 35 25 z M 10 28 L 10 30 L 32 30 L 32 28 L 10 28 z M 10.5 28.5 L 31.5 28.5 L 31.5 29.5 L 10.5 29.5 L 10.5 28.5 z " fill="currentColor" opacity="0.6" paint-order="markers stroke fill" stroke-linecap="round" stroke-linejoin="round"/>
</svg>