<?xml version="1.0" encoding="utf-8"?>
<svg height="60" version="1.1" viewBox="0 0 84 60" width="84" xmlns="http://www.w3.org/2000/svg" xmlns:svg="http://www.w3.org/2000/svg" xmlns:xlink="http://www.w3.org/1999/xlink">
 <namedview bordercolor="#666666" borderopacity="1.0" id="namedview-conformist" pagecolor="#ffffff" pageopacity="0.0" pageshadow="0" showgrid="true">
  <grid class="ColorScheme-Background" empspacing="4" fill="currentColor" opacity="0.6" type="xygrid"/>
 </namedview>
 <defs id="primary-definitions">
  <style class="ColorScheme-Background" fill="currentColor" opacity="0.6" type="text/css">
   .ColorScheme-Text           { color:#eff0f1; }
      .ColorScheme-Background     { color:#31363b; }
      .ColorScheme-Highlight      { color:#3daefd; }
      .ColorScheme-ViewBackground { color:#fcfcfc; }
      .ColorScheme-PositiveText   { color:#27ae60; }
      .ColorScheme-NeutralText    { color:#f67400; }
      .ColorScheme-NegativeText   { color:#da4453; }
  </style>
 </defs>
 <path class="ColorScheme-Background" d="m 9,13 c -0.554,0 -1,0.446 -1,1 v 46 h 2 c 0,-0.649513 0.446,-1 1,-1 h 2 c 0.554,0 1,0.372957 1,1 h 2 v -2 c 0,-1.108 0.892,-2 2,-2 h 48 c 1.108,0 2,0.892 2,2 v 2 h 2 c 0,-0.574115 0.446,-1 1,-1 h 2 c 0.554,0 1,0.442571 1,1 h 2 V 14 c 0,-0.554 -0.446,-1 -1,-1 -0.554,0 -1,0.446 -1,1 0,0.554 -0.446,1 -1,1 h -2 c -0.554,0 -1,-0.446 -1,-1 0,-0.554 -0.446,-1 -1,-1 -0.554,0 -1,0.54499 -1,1 0,1.214647 -0.892,2 -2,2 H 18 c -0.853286,0 -2,-0.620419 -2,-2 0,-0.6146 -0.446,-1 -1,-1 -0.554,0 -1,0.446 -1,1 0,0.554 -0.446,1 -1,1 h -2 c -0.554,0 -1,-0.446 -1,-1 0,-0.554 -0.446,-1 -1,-1 z m 2,4 h 2 c 0.554,0 1,0.446 1,1 v 2 c 0,0.554 -0.446,1 -1,1 h -2 c -0.554,0 -1,-0.446 -1,-1 v -2 c 0,-0.554 0.446,-1 1,-1 z m 60,0 h 2 c 0.554,0 1,0.446 1,1 v 2 c 0,0.554 -0.446,1 -1,1 h -2 c -0.554,0 -1,-0.446 -1,-1 v -2 c 0,-0.554 0.446,-1 1,-1 z m -53,1 h 48 c 1.108,0 2,0.892 2,2 v 32 c 0,1.108 -0.892,2 -2,2 H 18 c -1.108,0 -2,-0.892 -2,-2 V 20 c 0,-1.108 0.892,-2 2,-2 z m 0,1 c -0.554,0 -1,0.446 -1,1 v 32 c 0,0.554 0.446,1 1,1 h 48 c 0.554,0 1,-0.446 1,-1 V 20 c 0,-0.554 -0.446,-1 -1,-1 z m -7,4 h 2 c 0.554,0 1,0.446 1,1 v 2 c 0,0.554 -0.446,1 -1,1 h -2 c -0.554,0 -1,-0.446 -1,-1 v -2 c 0,-0.554 0.446,-1 1,-1 z m 60,0 h 2 c 0.554,0 1,0.446 1,1 v 2 c 0,0.554 -0.446,1 -1,1 h -2 c -0.554,0 -1,-0.446 -1,-1 v -2 c 0,-0.554 0.446,-1 1,-1 z m -60,6 h 2 c 0.554,0 1,0.446 1,1 v 2 c 0,0.554 -0.446,1 -1,1 h -2 c -0.554,0 -1,-0.446 -1,-1 v -2 c 0,-0.554 0.446,-1 1,-1 z m 60,0 h 2 c 0.554,0 1,0.446 1,1 v 2 c 0,0.554 -0.446,1 -1,1 h -2 c -0.554,0 -1,-0.446 -1,-1 v -2 c 0,-0.554 0.446,-1 1,-1 z m -60,6 h 2 c 0.554,0 1,0.446 1,1 v 2 c 0,0.554 -0.446,1 -1,1 h -2 c -0.554,0 -1,-0.446 -1,-1 v -2 c 0,-0.554 0.446,-1 1,-1 z m 60,0 h 2 c 0.554,0 1,0.446 1,1 v 2 c 0,0.554 -0.446,1 -1,1 h -2 c -0.554,0 -1,-0.446 -1,-1 v -2 c 0,-0.554 0.446,-1 1,-1 z m -60,6 h 2 c 0.554,0 1,0.446 1,1 v 2 c 0,0.554 -0.446,1 -1,1 h -2 c -0.554,0 -1,-0.446 -1,-1 v -2 c 0,-0.554 0.446,-1 1,-1 z m 60,0 h 2 c 0.554,0 1,0.446 1,1 v 2 c 0,0.554 -0.446,1 -1,1 h -2 c -0.554,0 -1,-0.446 -1,-1 v -2 c 0,-0.554 0.446,-1 1,-1 z m -60,6 h 2 c 0.554,0 1,0.446 1,1 v 2 c 0,0.554 -0.446,1 -1,1 h -2 c -0.554,0 -1,-0.446 -1,-1 v -2 c 0,-0.554 0.446,-1 1,-1 z m 60,0 h 2 c 0.554,0 1,0.446 1,1 v 2 c 0,0.554 -0.446,1 -1,1 h -2 c -0.554,0 -1,-0.446 -1,-1 v -2 c 0,-0.554 0.446,-1 1,-1 z m -60,6 h 2 c 0.554,0 1,0.446 1,1 v 2 c 0,0.554 -0.446,1 -1,1 h -2 c -0.554,0 -1,-0.446 -1,-1 v -2 c 0,-0.554 0.446,-1 1,-1 z m 60,0 h 2 c 0.554,0 1,0.446 1,1 v 2 c 0,0.554 -0.446,1 -1,1 h -2 c -0.554,0 -1,-0.446 -1,-1 v -2 c 0,-0.554 0.446,-1 1,-1 z m -53,4 c -0.554,0 -1,0.41755 -1,1 v 2 h 50 v -2 c 0,-0.554 -0.446,-1 -1,-1 z" fill="currentColor" opacity="0.6" paint-order="markers stroke fill" stop-color="#000000" stroke-dasharray="none" stroke-linecap="round" stroke-linejoin="round" stroke-miterlimit="4" stroke-opacity="0.959005"/>
 <path class="ColorScheme-Background" d="M 9 13 C 8.446 13 8 13.446 8 14 L 8 60 L 10 60 C 10 59.350487 10.446 59 11 59 L 13 59 C 13.554 59 14 59.372957 14 60 L 16 60 L 16 58 C 16 56.892 16.892 56 18 56 L 66 56 C 67.108 56 68 56.892 68 58 L 68 60 L 70 60 C 70 59.425885 70.446 59 71 59 L 73 59 C 73.554 59 74 59.442571 74 60 L 76 60 L 76 14 C 76 13.446 75.554 13 75 13 C 74.446 13 74 13.446 74 14 C 74 14.554 73.554 15 73 15 L 71 15 C 70.446 15 70 14.554 70 14 C 70 13.446 69.554 13 69 13 C 68.446 13 68 13.54499 68 14 C 68 15.214647 67.108 16 66 16 L 18 16 C 17.146714 16 16 15.379581 16 14 C 16 13.3854 15.554 13 15 13 C 14.446 13 14 13.446 14 14 C 14 14.554 13.554 15 13 15 L 11 15 C 10.446 15 10 14.554 10 14 C 10 13.446 9.554 13 9 13 z M 9 13.5 C 9.2856483 13.5 9.5 13.714352 9.5 14 C 9.5 14.822351 10.177649 15.5 11 15.5 L 13 15.5 C 13.822351 15.5 14.5 14.822351 14.5 14 C 14.5 13.714352 14.714352 13.5 15 13.5 C 15.32211 13.5 15.5 13.627292 15.5 14 C 15.5 14.828324 15.865567 15.491126 16.359375 15.902344 C 16.853183 16.313561 17.452175 16.5 18 16.5 L 66 16.5 C 67.344266 16.5 68.5 15.459435 68.5 14 C 68.5 13.93586 68.55446 13.782721 68.658203 13.671875 C 68.761947 13.561029 68.886956 13.5 69 13.5 C 69.285648 13.5 69.5 13.714352 69.5 14 C 69.5 14.822351 70.177649 15.5 71 15.5 L 73 15.5 C 73.822351 15.5 74.5 14.822351 74.5 14 C 74.5 13.714352 74.714352 13.5 75 13.5 C 75.285648 13.5 75.5 13.714352 75.5 14 L 75.5 59.5 L 74.291016 59.5 C 74.068797 58.946383 73.626625 58.5 73 58.5 L 71 58.5 C 70.380321 58.5 69.933045 58.943825 69.708984 59.5 L 68.5 59.5 L 68.5 58 C 68.5 56.62365 67.37635 55.5 66 55.5 L 18 55.5 C 16.62365 55.5 15.5 56.62365 15.5 58 L 15.5 59.5 L 14.296875 59.5 C 14.22021 59.292462 14.206399 59.048246 14.052734 58.902344 C 13.770615 58.634475 13.389201 58.5 13 58.5 L 11 58.5 C 10.617559 58.5 10.236925 58.623747 9.9511719 58.890625 C 9.7941891 59.037239 9.7799438 59.287816 9.703125 59.5 L 8.5 59.5 L 8.5 14 C 8.5 13.714352 8.7143517 13.5 9 13.5 z M 11 16.5 C 10.177649 16.5 9.5 17.177649 9.5 18 L 9.5 20 C 9.5 20.822351 10.177649 21.5 11 21.5 L 13 21.5 C 13.822351 21.5 14.5 20.822351 14.5 20 L 14.5 18 C 14.5 17.177649 13.822351 16.5 13 16.5 L 11 16.5 z M 71 16.5 C 70.177649 16.5 69.5 17.177649 69.5 18 L 69.5 20 C 69.5 20.822351 70.177649 21.5 71 21.5 L 73 21.5 C 73.822351 21.5 74.5 20.822351 74.5 20 L 74.5 18 C 74.5 17.177649 73.822351 16.5 73 16.5 L 71 16.5 z M 11 17 L 13 17 C 13.554 17 14 17.446 14 18 L 14 20 C 14 20.554 13.554 21 13 21 L 11 21 C 10.446 21 10 20.554 10 20 L 10 18 C 10 17.446 10.446 17 11 17 z M 71 17 L 73 17 C 73.554 17 74 17.446 74 18 L 74 20 C 74 20.554 73.554 21 73 21 L 71 21 C 70.446 21 70 20.554 70 20 L 70 18 C 70 17.446 70.446 17 71 17 z M 18 17.5 C 16.62365 17.5 15.5 18.62365 15.5 20 L 15.5 52 C 15.5 53.37635 16.62365 54.5 18 54.5 L 66 54.5 C 67.37635 54.5 68.5 53.37635 68.5 52 L 68.5 20 C 68.5 18.62365 67.37635 17.5 66 17.5 L 18 17.5 z M 18 18 L 66 18 C 67.108 18 68 18.892 68 20 L 68 52 C 68 53.108 67.108 54 66 54 L 18 54 C 16.892 54 16 53.108 16 52 L 16 20 C 16 18.892 16.892 18 18 18 z M 18 19 C 17.446 19 17 19.446 17 20 L 17 52 C 17 52.554 17.446 53 18 53 L 66 53 C 66.554 53 67 52.554 67 52 L 67 20 C 67 19.446 66.554 19 66 19 L 18 19 z M 18 19.5 L 66 19.5 C 66.285648 19.5 66.5 19.714352 66.5 20 L 66.5 52 C 66.5 52.285648 66.285648 52.5 66 52.5 L 18 52.5 C 17.714352 52.5 17.5 52.285648 17.5 52 L 17.5 20 C 17.5 19.714352 17.714352 19.5 18 19.5 z M 11 22.5 C 10.177649 22.5 9.5 23.177649 9.5 24 L 9.5 26 C 9.5 26.822351 10.177649 27.5 11 27.5 L 13 27.5 C 13.822351 27.5 14.5 26.822351 14.5 26 L 14.5 24 C 14.5 23.177649 13.822351 22.5 13 22.5 L 11 22.5 z M 71 22.5 C 70.177649 22.5 69.5 23.177649 69.5 24 L 69.5 26 C 69.5 26.822351 70.177649 27.5 71 27.5 L 73 27.5 C 73.822351 27.5 74.5 26.822351 74.5 26 L 74.5 24 C 74.5 23.177649 73.822351 22.5 73 22.5 L 71 22.5 z M 11 23 L 13 23 C 13.554 23 14 23.446 14 24 L 14 26 C 14 26.554 13.554 27 13 27 L 11 27 C 10.446 27 10 26.554 10 26 L 10 24 C 10 23.446 10.446 23 11 23 z M 71 23 L 73 23 C 73.554 23 74 23.446 74 24 L 74 26 C 74 26.554 73.554 27 73 27 L 71 27 C 70.446 27 70 26.554 70 26 L 70 24 C 70 23.446 70.446 23 71 23 z M 11 28.5 C 10.177649 28.5 9.5 29.177649 9.5 30 L 9.5 32 C 9.5 32.822351 10.177649 33.5 11 33.5 L 13 33.5 C 13.822351 33.5 14.5 32.822351 14.5 32 L 14.5 30 C 14.5 29.177649 13.822351 28.5 13 28.5 L 11 28.5 z M 71 28.5 C 70.177649 28.5 69.5 29.177649 69.5 30 L 69.5 32 C 69.5 32.822351 70.177649 33.5 71 33.5 L 73 33.5 C 73.822351 33.5 74.5 32.822351 74.5 32 L 74.5 30 C 74.5 29.177649 73.822351 28.5 73 28.5 L 71 28.5 z M 11 29 L 13 29 C 13.554 29 14 29.446 14 30 L 14 32 C 14 32.554 13.554 33 13 33 L 11 33 C 10.446 33 10 32.554 10 32 L 10 30 C 10 29.446 10.446 29 11 29 z M 71 29 L 73 29 C 73.554 29 74 29.446 74 30 L 74 32 C 74 32.554 73.554 33 73 33 L 71 33 C 70.446 33 70 32.554 70 32 L 70 30 C 70 29.446 70.446 29 71 29 z M 11 34.5 C 10.177649 34.5 9.5 35.177649 9.5 36 L 9.5 38 C 9.5 38.822351 10.177649 39.5 11 39.5 L 13 39.5 C 13.822351 39.5 14.5 38.822351 14.5 38 L 14.5 36 C 14.5 35.177649 13.822351 34.5 13 34.5 L 11 34.5 z M 71 34.5 C 70.177649 34.5 69.5 35.177649 69.5 36 L 69.5 38 C 69.5 38.822351 70.177649 39.5 71 39.5 L 73 39.5 C 73.822351 39.5 74.5 38.822351 74.5 38 L 74.5 36 C 74.5 35.177649 73.822351 34.5 73 34.5 L 71 34.5 z M 11 35 L 13 35 C 13.554 35 14 35.446 14 36 L 14 38 C 14 38.554 13.554 39 13 39 L 11 39 C 10.446 39 10 38.554 10 38 L 10 36 C 10 35.446 10.446 35 11 35 z M 71 35 L 73 35 C 73.554 35 74 35.446 74 36 L 74 38 C 74 38.554 73.554 39 73 39 L 71 39 C 70.446 39 70 38.554 70 38 L 70 36 C 70 35.446 70.446 35 71 35 z M 11 40.5 C 10.177649 40.5 9.5 41.177649 9.5 42 L 9.5 44 C 9.5 44.822351 10.177649 45.5 11 45.5 L 13 45.5 C 13.822351 45.5 14.5 44.822351 14.5 44 L 14.5 42 C 14.5 41.177649 13.822351 40.5 13 40.5 L 11 40.5 z M 71 40.5 C 70.177649 40.5 69.5 41.177649 69.5 42 L 69.5 44 C 69.5 44.822351 70.177649 45.5 71 45.5 L 73 45.5 C 73.822351 45.5 74.5 44.822351 74.5 44 L 74.5 42 C 74.5 41.177649 73.822351 40.5 73 40.5 L 71 40.5 z M 11 41 L 13 41 C 13.554 41 14 41.446 14 42 L 14 44 C 14 44.554 13.554 45 13 45 L 11 45 C 10.446 45 10 44.554 10 44 L 10 42 C 10 41.446 10.446 41 11 41 z M 71 41 L 73 41 C 73.554 41 74 41.446 74 42 L 74 44 C 74 44.554 73.554 45 73 45 L 71 45 C 70.446 45 70 44.554 70 44 L 70 42 C 70 41.446 70.446 41 71 41 z M 11 46.5 C 10.177649 46.5 9.5 47.177649 9.5 48 L 9.5 50 C 9.5 50.822351 10.177649 51.5 11 51.5 L 13 51.5 C 13.822351 51.5 14.5 50.822351 14.5 50 L 14.5 48 C 14.5 47.177649 13.822351 46.5 13 46.5 L 11 46.5 z M 71 46.5 C 70.177649 46.5 69.5 47.177649 69.5 48 L 69.5 50 C 69.5 50.822351 70.177649 51.5 71 51.5 L 73 51.5 C 73.822351 51.5 74.5 50.822351 74.5 50 L 74.5 48 C 74.5 47.177649 73.822351 46.5 73 46.5 L 71 46.5 z M 11 47 L 13 47 C 13.554 47 14 47.446 14 48 L 14 50 C 14 50.554 13.554 51 13 51 L 11 51 C 10.446 51 10 50.554 10 50 L 10 48 C 10 47.446 10.446 47 11 47 z M 71 47 L 73 47 C 73.554 47 74 47.446 74 48 L 74 50 C 74 50.554 73.554 51 73 51 L 71 51 C 70.446 51 70 50.554 70 50 L 70 48 C 70 47.446 70.446 47 71 47 z M 11 52.5 C 10.177649 52.5 9.5 53.177649 9.5 54 L 9.5 56 C 9.5 56.822351 10.177649 57.5 11 57.5 L 13 57.5 C 13.822351 57.5 14.5 56.822351 14.5 56 L 14.5 54 C 14.5 53.177649 13.822351 52.5 13 52.5 L 11 52.5 z M 71 52.5 C 70.177649 52.5 69.5 53.177649 69.5 54 L 69.5 56 C 69.5 56.822351 70.177649 57.5 71 57.5 L 73 57.5 C 73.822351 57.5 74.5 56.822351 74.5 56 L 74.5 54 C 74.5 53.177649 73.822351 52.5 73 52.5 L 71 52.5 z M 11 53 L 13 53 C 13.554 53 14 53.446 14 54 L 14 56 C 14 56.554 13.554 57 13 57 L 11 57 C 10.446 57 10 56.554 10 56 L 10 54 C 10 53.446 10.446 53 11 53 z M 71 53 L 73 53 C 73.554 53 74 53.446 74 54 L 74 56 C 74 56.554 73.554 57 73 57 L 71 57 C 70.446 57 70 56.554 70 56 L 70 54 C 70 53.446 70.446 53 71 53 z M 18 57 C 17.446 57 17 57.41755 17 58 L 17 60 L 67 60 L 67 58 C 67 57.446 66.554 57 66 57 L 18 57 z M 18 57.5 L 66 57.5 C 66.285648 57.5 66.5 57.714352 66.5 58 L 66.5 59.5 L 17.5 59.5 L 17.5 58 C 17.5 57.672794 17.697234 57.5 18 57.5 z " fill="currentColor" opacity="0.6" paint-order="markers stroke fill" stroke-linecap="round" stroke-linejoin="round"/>
</svg>