<svg xmlns="http://www.w3.org/2000/svg" viewBox="0 0 16 16">
  <defs id="defs3051">
    <style type="text/css" id="current-color-scheme">
      .ColorScheme-Text {
        color:#4d4d4d;
      }
      </style>
  </defs>
    <path
       style="fill:currentColor;fill-opacity:1;stroke:none" 
       d="M 4 2 L 4 14 L 6 14 L 6 13 L 6 12 L 5 12 L 5 5 L 11 5 L 11 6 L 12 6 L 12 2 L 4 2 z M 7 3 L 9 3 L 9 4 L 7 4 L 7 3 z M 9.5 6 L 9.2226562 7.1074219 A 3 3 0 0 0 8.5019531 7.4042969 L 7.5253906 6.8183594 L 6.8183594 7.5253906 L 7.4042969 8.5019531 A 3 3 0 0 0 7.1035156 9.2246094 L 6 9.5 L 6 10.5 L 7.1074219 10.777344 A 3 3 0 0 0 7.4042969 11.498047 L 6.8183594 12.474609 L 7.5253906 13.181641 L 8.5019531 12.595703 A 3 3 0 0 0 9.2246094 12.896484 L 9.5 14 L 10.5 14 L 10.777344 12.892578 A 3 3 0 0 0 11.498047 12.595703 L 12.474609 13.181641 L 13.181641 12.474609 L 12.595703 11.498047 A 3 3 0 0 0 12.896484 10.775391 L 14 10.5 L 14 9.5 L 12.892578 9.2226562 A 3 3 0 0 0 12.595703 8.5019531 L 13.181641 7.5253906 L 12.474609 6.8183594 L 11.498047 7.4042969 A 3 3 0 0 0 10.775391 7.1035156 L 10.5 6 L 9.5 6 z M 10 8 A 2 2 0 0 1 10.199219 8.0097656 A 2 2 0 0 1 10.396484 8.0390625 A 2 2 0 0 1 10.591797 8.0898438 A 2 2 0 0 1 10.779297 8.1582031 A 2 2 0 0 1 10.958984 8.2441406 A 2 2 0 0 1 11.128906 8.3496094 A 2 2 0 0 1 11.289062 8.4707031 A 2 2 0 0 1 11.435547 8.6074219 A 2 2 0 0 1 11.566406 8.7558594 A 2 2 0 0 1 11.683594 8.9199219 A 2 2 0 0 1 11.783203 9.09375 A 2 2 0 0 1 11.863281 9.2753906 A 2 2 0 0 1 11.927734 9.4648438 A 2 2 0 0 1 11.970703 9.6601562 A 2 2 0 0 1 11.994141 9.859375 A 2 2 0 0 1 12 10 A 2 2 0 0 1 11.990234 10.199219 A 2 2 0 0 1 11.960938 10.396484 A 2 2 0 0 1 11.910156 10.591797 A 2 2 0 0 1 11.841797 10.779297 A 2 2 0 0 1 11.755859 10.958984 A 2 2 0 0 1 11.650391 11.128906 A 2 2 0 0 1 11.529297 11.289062 A 2 2 0 0 1 11.392578 11.435547 A 2 2 0 0 1 11.244141 11.566406 A 2 2 0 0 1 11.080078 11.683594 A 2 2 0 0 1 10.90625 11.783203 A 2 2 0 0 1 10.724609 11.863281 A 2 2 0 0 1 10.535156 11.927734 A 2 2 0 0 1 10.339844 11.970703 A 2 2 0 0 1 10.140625 11.994141 A 2 2 0 0 1 10.056641 12.003906 L 9.9199219 12.003906 A 2 2 0 0 1 9.8007812 11.994141 A 2 2 0 0 1 9.6035156 11.964844 A 2 2 0 0 1 9.4082031 11.914062 A 2 2 0 0 1 9.2207031 11.845703 A 2 2 0 0 1 9.0410156 11.759766 A 2 2 0 0 1 8.8710938 11.654297 A 2 2 0 0 1 8.7109375 11.533203 A 2 2 0 0 1 8.6230469 11.451172 L 8.5351562 11.363281 A 2 2 0 0 1 8.4335938 11.248047 A 2 2 0 0 1 8.3164062 11.083984 A 2 2 0 0 1 8.2167969 10.910156 A 2 2 0 0 1 8.1367188 10.728516 A 2 2 0 0 1 8.0722656 10.539062 A 2 2 0 0 1 8.0292969 10.34375 A 2 2 0 0 1 8.0058594 10.144531 A 2 2 0 0 1 8 10.003906 A 2 2 0 0 1 8.0097656 9.8046875 A 2 2 0 0 1 8.0390625 9.6074219 A 2 2 0 0 1 8.0898438 9.4121094 A 2 2 0 0 1 8.1582031 9.2246094 A 2 2 0 0 1 8.2441406 9.0449219 A 2 2 0 0 1 8.3496094 8.875 A 2 2 0 0 1 8.4707031 8.7148438 A 2 2 0 0 1 8.6074219 8.5683594 A 2 2 0 0 1 8.7558594 8.4375 A 2 2 0 0 1 8.9199219 8.3203125 A 2 2 0 0 1 9.09375 8.2207031 A 2 2 0 0 1 9.2753906 8.140625 A 2 2 0 0 1 9.4648438 8.0761719 A 2 2 0 0 1 9.6601562 8.0332031 A 2 2 0 0 1 9.859375 8.0097656 A 2 2 0 0 1 10 8 z "
       id="path3373" 
       class="ColorScheme-Text"/>
</svg>
