<svg id="svg1" version="1.1" viewBox="0 0 16 16" xmlns="http://www.w3.org/2000/svg">
    <defs id="defs1">
        <style id="current-color-scheme" type="text/css">.ColorScheme-Text {
          color:#232629;
        }
        .ColorScheme-Highlight {
          color:#3daee9;
        }</style>
    </defs>
    <path id="smartphone" class="ColorScheme-Highlight" d="m6 2c-0.968549 0-2 1.031401-2 2v8c0 0.968549 1.031401 2 2 2h4c0.968549 0 2-1.031401 2-2v-1.449219h-1v1.449219c0 0.562079-0.437881 1-1 1h-4c-0.5620794 0-1-0.437881-1-1v-8c0-0.5620794 0.4378806-1 1-1h4c0.562079 0 1 0.4378806 1 1v0.3769531h1v-0.3769531c0-0.968549-1.031401-2-2-2h-4zm0.5332031 2.0214844c-0.2693197 0.0029772-0.485695 0.2228477-0.484375 0.4921875 0.0019079 0.2693197 0.2209047 0.4865681 0.4902344 0.4863281 0.2700797-8.38e-4 0.4885212-0.2201546 0.4882813-0.4902344v-0.0058594c-0.0040476-0.2693197-0.2248009-0.4848418-0.4941407-0.4824218zm-0.0332031 6.9785156c-0.2769997 0-0.5 0.223-0.5 0.5s0.2230003 0.5 0.5 0.5h3c0.2769997 0 0.5-0.223 0.5-0.5s-0.2230003-0.5-0.5-0.5h-3z" fill="#3daee9"/>
    <path id="checkmark" class="ColorScheme-PositiveText" d="m14.046099 4.1803558-3.625542 4.1440523-1.8127721-1.657621-0.9063858 0.8288105 2.7191579 2.4864313 4.531928-4.9728626z" color="#27ae60" fill="#3daee9" stroke-width=".86673"/>
</svg>
