<svg viewBox="0 0 22 22" xmlns="http://www.w3.org/2000/svg">
    <style type="text/css" id="current-color-scheme">
      .ColorScheme-Text {
        color:#232629;
      }
    </style>
    <path
        style="fill:currentColor;fill-opacity:1;stroke:none"
        class="ColorScheme-Text"
        d="m16 8c-1.6569 0-3 1.34315-3 3 0 1.6569 1.3431 3 3 3s3-1.3431 3-3c0-1.65685-1.3431-3-3-3zm-5 5c-1.65685 0-3 1.3431-3 3s1.34315 3 3 3c1.6569 0 3-1.3431 3-3s-1.3431-3-3-3z"
        opacity=".2" />
    <path
        style="fill:currentColor;fill-opacity:1;stroke:none"
        class="ColorScheme-Text"
        clip-rule="evenodd"
        d="m11 3c-1.65685 0-3 1.34315-3 3s1.34315 3 3 3c1.6569 0 3-1.34315 3-3s-1.3431-3-3-3zm0 1c1.1046 0 2 .89543 2 2s-.8954 2-2 2c-1.10457 0-2-.89543-2-2s.89543-2 2-2zm-5 4c-1.65685 0-3 1.34315-3 3 0 1.6569 1.34315 3 3 3s3-1.3431 3-3c0-1.65685-1.34315-3-3-3zm10 0c-1.6569 0-3 1.34315-3 3 0 1.6569 1.3431 3 3 3s3-1.3431 3-3c0-1.65685-1.3431-3-3-3zm-10 1c1.10457 0 2 .89543 2 2 0 1.1046-.89543 2-2 2s-2-.8954-2-2c0-1.10457.89543-2 2-2zm10 0c1.1046 0 2 .89543 2 2 0 1.1046-.8954 2-2 2s-2-.8954-2-2c0-1.10457.8954-2 2-2zm-5 4c-1.65685 0-3 1.3431-3 3s1.34315 3 3 3c1.6569 0 3-1.3431 3-3s-1.3431-3-3-3zm0 1c1.1046 0 2 .8954 2 2s-.8954 2-2 2c-1.10457 0-2-.8954-2-2s.89543-2 2-2z"
        fill-rule="evenodd" />
</svg>
