<svg viewBox="0 0 22 22" xmlns="http://www.w3.org/2000/svg">
    <style type="text/css" id="current-color-scheme">
      .ColorScheme-Text {
        color:#232629;
      }
    </style>
    <g
        style="fill:currentColor;fill-opacity:1;stroke:none"
        class="ColorScheme-Text"
        clip-rule="evenodd"
        fill-rule="evenodd" >

        <path d="m11.2869 9.072c-.2613 0-.4933.048-.696.144-.2026.096-.376.23467-.52.416-.13863.18133-.2453.4-.31996.656-.06934.256-.104.544-.104.864 0 .432.05866.8027.176 1.112.11733.304.29596.5387.53596.704.2454.1653.552.248.92.248.2454 0 .48-.024.704-.072.2294-.0533.4694-.1227.72-.208v.872c-.2346.096-.472.1653-.712.208-.2346.0427-.5066.064-.816.064-.5866 0-1.072-.12-1.45596-.36-.384-.2453-.66934-.5867-.856-1.024-.18667-.4427-.28-.96-.28-1.552 0-.432.05866-.8267.176-1.184.12266-.35733.296-.66667.52-.928.22933-.26133.512-.464.84796-.608.336-.144.7227-.216 1.16-.216.288 0 .5707.03467.848.104.2827.064.5467.15467.792.272l-.352.84c-.2026-.09067-.4133-.17067-.632-.24-.2133-.07467-.432-.112-.656-.112z"/>
        <path d="m5.79767 6.73994c-1.15183 1.04712-1.79767 2.52131-1.79767 4.26006 0 1.7387.64584 3.2129 1.79768 4.26 1.15758 1.0524 2.90202 1.74 5.20232 1.74 2.3004 0 4.0448-.6876 5.2023-1.7399 1.1519-1.0471 1.7977-2.5213 1.7977-4.2601 0-1.73873-.6458-3.21293-1.7977-4.26006-1.1576-1.05234-2.902-1.73994-5.2023-1.73994-2.30033 0-4.04476.6876-5.20233 1.73994zm5.20233-2.73994c-5 0-8 3-8 7s3 7 8 7c5.0001 0 8-3 8-7s-3-7-8-7z"/>
    </g>
</svg>
