<svg viewBox="0 0 22 22" width="22" xmlns="http://www.w3.org/2000/svg">
    <style type="text/css" id="current-color-scheme">
      .ColorScheme-Text {
        color:#232629;
      }
    </style>
    <path
        style="fill:currentColor;fill-opacity:1;stroke:none"
        class="ColorScheme-Text"
        clip-rule="evenodd"
        d="m17 18h-12v-8c0-1.57708.39092-2.6595.99248-3.43293.60828-.78209 1.50859-1.34667 2.69875-1.74339 2.20737-.7358 5.13427-.81443 8.30877-.82272zm0-14.99924c-6.6513.01514-13 .33283-13 6.99924v9h14v-16c-.3336 0-.6672 0-1 .00076z"
        fill-rule="evenodd" />
    <path
        style="fill:currentColor;fill-opacity:1;stroke:none"
        class="ColorScheme-Text"
        d="m7.05572 16v-5.712h1.024v4.848h2.38398v.864z" />
    <path
        style="fill:currentColor;fill-opacity:1;stroke:none"
        class="ColorScheme-Text"
        d="m14.9662 16h-3.912v-.744l1.456-1.472c.288-.2933.5226-.544.704-.752.1866-.2133.3226-.4107.408-.592.0906-.1813.136-.3787.136-.592 0-.2613-.0747-.456-.224-.584-.1494-.1333-.3467-.2-.592-.2-.24 0-.464.0507-.672.152-.208.096-.424.2347-.648.416l-.552-.664c.16-.1387.3306-.264.512-.376.1813-.1173.3866-.2107.616-.28.2293-.0693.496-.104.8-.104.368 0 .6826.0667.944.2.2666.128.472.3067.616.536s.216.496.216.8c0 .2347-.0347.4533-.104.656-.0694.1973-.1707.392-.304.584-.1334.192-.296.3867-.488.584s-.408.4107-.648.64l-.904.872v.048h2.64z" />
</svg>
