<svg viewBox="0 0 22 22" xmlns="http://www.w3.org/2000/svg">
    <style type="text/css" id="current-color-scheme">
      .ColorScheme-Text {
        color:#232629;
      }
    </style>
    <g
        style="fill:currentColor;fill-opacity:1;stroke:none"
        class="ColorScheme-Text"
        clip-rule="evenodd"
        fill-rule="evenodd" >

        <path d="m4 19v-15.99999l14-.00001v16zm13-1v-14l-12 .00001v13.99999z"/>
        <path d="m10.664 10.288c.496 0 .912.048 1.248.144.336.0907.5867.24.752.448.1707.208.256.488.256.84 0 .2187-.0373.416-.112.592s-.184.32-.328.432c-.1387.112-.312.1867-.52.224v.04c.2133.0374.4027.1067.568.208.1707.096.304.2374.4.424.1013.1814.152.4214.152.72 0 .3467-.0827.6427-.248.888-.1653.2454-.4027.432-.712.56-.304.128-.6667.192-1.088.192h-2.088v-5.712zm.136 2.328c.4053 0 .6827-.064.832-.192.1547-.128.232-.3173.232-.568 0-.256-.0907-.44-.272-.552s-.472-.168-.872-.168h-.752v1.48zm-.832.824v1.704h.928c.416 0 .704-.08.864-.24.1653-.16.248-.3733.248-.64 0-.1706-.0347-.3173-.104-.44-.0693-.1226-.1893-.216-.36-.28-.1707-.0693-.4027-.104-.696-.104z"/>
    </g>
</svg>
