<svg viewBox="0 0 22 22" xmlns="http://www.w3.org/2000/svg">
    <style type="text/css" id="current-color-scheme">
      .ColorScheme-Text {
        color:#232629;
      }
    </style>
    <path
        style="fill:currentColor;fill-opacity:1;stroke:none"
        class="ColorScheme-Text"
        clip-rule="evenodd"
        d="m11 18c3.866 0 7-3.134 7-7 0-3.86599-3.134-7-7-7-3.86599 0-7 3.13401-7 7 0 3.866 3.13401 7 7 7zm0 1c4.4183 0 8-3.5817 8-8 0-4.41828-3.5817-8-8-8-4.41828 0-8 3.58172-8 8 0 4.4183 3.58172 8 8 8z"
        fill-rule="evenodd" />
    <path
        style="fill:currentColor;fill-opacity:1;stroke:none"
        class="ColorScheme-Text"
        d="m10.9597 6.782c.712 0 1.308.068 1.788.204.488.136.852.36 1.092.672.248.312.372.728.372 1.248 0 .336-.064.636-.192.9-.12.256-.304.472-.552.648-.24.168-.536.284-.888.348v.06c.36.056.684.16.972.312.296.152.528.368.696.648s.252.644.252 1.092c0 .52-.12.964-.36 1.332-.24.36-.584.636-1.032.828-.44.184-.968.276-1.584.276h-3.01204v-8.568zm.216 3.648c.736 0 1.24-.116 1.512-.348.272-.24.408-.592.408-1.056 0-.472-.168-.808-.504-1.008-.328-.208-.856-.312-1.584-.312h-1.41604v2.724zm-1.58404.9v3.108h1.72804c.76 0 1.288-.148 1.584-.444s.444-.684.444-1.164c0-.304-.068-.568-.204-.792-.128-.224-.348-.396-.66-.516-.304-.128-.72-.192-1.248-.192z" />
</svg>
