<svg viewBox="0 0 22 22" xmlns="http://www.w3.org/2000/svg">
    <style type="text/css" id="current-color-scheme">
      .ColorScheme-Text {
        color:#232629;
      }
    </style>
    <g
        style="fill:currentColor;fill-opacity:1;stroke:none"
        class="ColorScheme-Text"
        clip-rule="evenodd"
        fill-rule="evenodd" >

        <path d="m11 18c3.866 0 7-3.134 7-7s-3.134-7-7-7-7 3.134-7 7 3.134 7 7 7zm0 1c4.4183 0 8-3.5817 8-8 0-4.41828-3.5817-8-8-8-4.41828 0-8 3.58172-8 8 0 4.4183 3.58172 8 8 8z"/>
        <path d="m10.9999 5.00003-1.49996 2h2.99996zm1.5 9.99997h-2.99996l1.49996 2zm-7.49996-4 2 1.5v-2.99997zm9.99996-1.49997v2.99997l2-1.5z"/>
        <path d="m10.9999 13c1.1046 0 2-.8954 2-2 0-1.10454-.8954-1.99997-2-1.99997-1.10454 0-1.99997.89543-1.99997 1.99997 0 1.1046.89543 2 1.99997 2zm0 1c1.6569 0 3-1.3431 3-3 0-1.65682-1.3431-2.99997-3-2.99997-1.65683 0-2.99997 1.34315-2.99997 2.99997 0 1.6569 1.34314 3 2.99997 3z"/>
    </g>
</svg>
