<svg viewBox="0 0 22 22" xmlns="http://www.w3.org/2000/svg">
    <style type="text/css" id="current-color-scheme">
      .ColorScheme-Text {
        color:#232629;
      }
    </style>
    <g
        style="fill:currentColor;fill-opacity:1;stroke:none"
        class="ColorScheme-Text"
        clip-rule="evenodd"
        fill-rule="evenodd" >

        <path d="m11 18c3.866 0 7-3.134 7-7 0-3.86599-3.134-7-7-7-3.86599 0-7 3.13401-7 7 0 3.866 3.13401 7 7 7zm0 1c4.4183 0 8-3.5817 8-8 0-4.41828-3.5817-8-8-8-4.41828 0-8 3.58172-8 8 0 4.4183 3.58172 8 8 8z"/>
        <path d="m10.558 10.778c0 .486-.048.933-.144 1.341-.09.402-.228.753-.414 1.053-.186.294-.426.522-.72.684-.288.156-.63.234-1.026.234-.402 0-.75-.081-1.044-.243s-.534-.39-.72-.684c-.186-.3-.324-.651-.414-1.053-.09-.408-.135-.855-.135-1.341 0-.714.084-1.314.252-1.8.174-.492.432-.864.774-1.116.348-.252.777-.378 1.287-.378.528 0 .963.141 1.305.423s.594.669.756 1.161.243 1.065.243 1.719zm-3.573 0c0 .528.048.972.144 1.332s.237.633.423.819c.186.18.417.27.693.27.282 0 .516-.09.702-.27s.324-.45.414-.81c.096-.36.144-.807.144-1.341 0-.798-.105-1.401-.315-1.809-.204-.408-.516-.612-.936-.612-.282 0-.519.093-.711.279-.186.186-.327.459-.423.819-.09.354-.135.795-.135 1.323z"/>
        <path d="m15.7812 14h-1.125l-1.359-2.817-.459.459v2.358h-1.008v-6.426h1.008v3.087c.054-.108.123-.237.207-.387.084-.156.183-.333.297-.531l1.296-2.169h1.098l-1.728 2.844z"/>
    </g>
</svg>
