<svg viewBox="0 0 22 22" xmlns="http://www.w3.org/2000/svg">
    <style type="text/css" id="current-color-scheme">
      .ColorScheme-Text {
        color:#232629;
      }
    </style>
    <path
        style="fill:currentColor;fill-opacity:1;stroke:none"
        class="ColorScheme-Text"
        clip-rule="evenodd"
        fill-rule="evenodd"
        d="m11 18c3.866 0 7-3.134 7-7 0-3.86599-3.134-7-7-7-3.86599 0-7 3.13401-7 7 0 3.866 3.13401 7 7 7zm0 1c4.4183 0 8-3.5817 8-8 0-4.41828-3.5817-8-8-8-4.41828 0-8 3.58172-8 8 0 4.4183 3.58172 8 8 8z" />
    <path
        style="fill:currentColor;fill-opacity:1;stroke:none"
        class="ColorScheme-Text"
        d="m10.2929 11-3.14645-3.14644.70711-.70711 3.14644 3.14645 3.1464-3.14643.7071.7071-3.1464 3.14643 3.1465 3.1464-.7072.7072-3.1464-3.1465-3.14646 3.1465-.70711-.7071z" />
</svg>
