<svg id="svg4" version="1.1" viewBox="0 0 22 22" xmlns="http://www.w3.org/2000/svg">
    <defs id="defs1">
        <style id="current-color-scheme" type="text/css">.ColorScheme-Text {
        color:#232629;
      }</style>
    </defs>
    <path id="smartphone" class="ColorScheme-Text" d="m7.9667969 2.984375c-0.7186056 0-1.3066406 0.5880351-1.3066407 1.3066406v13.394531c0 0.718605 0.5880351 1.306641 1.3066407 1.306641h6.3300781c0.718605 0 1.306641-0.588036 1.306641-1.306641v-13.394531c0-0.7186055-0.588036-1.3066406-1.306641-1.3066406h-0.68942zm0.093114 0.7609391h6.1712391c0.365859 0 0.650391 0.2845323 0.650391 0.6503906v13.178119c0 0.365859-0.284532 0.650391-0.650391 0.650391h-6.1712392c-0.3658585 0-0.6503907-0.284532-0.6503907-0.650391v-13.178119c0-0.3658583 0.2845322-0.6503906 0.6503908-0.6503906zm0.4688466 0.6715231c-0.2424494 0.00275-0.4371032 0.2008992-0.4355469 0.4433593 0.00168 0.2424491 0.1989518 0.4379716 0.4414063 0.4375 0.2424507-6.084e-4 0.4388446-0.1970023 0.439453-0.4394531v-0.00586c-0.0027535-0.2432177-0.2020929-0.4381856-0.4453124-0.4355462zm1.1685081 12.633944c-0.098329-4.09e-4 -0.1781436 0.07941-0.1777344 0.177735 6.711e-4 0.09756 0.080168 0.176188 0.1777344 0.175781h2.9335934c0.09681-6.64e-4 0.175118-0.07898 0.175782-0.175781 4.07e-4 -0.09757-0.07822-0.177064-0.175782-0.177735z" fill="currentColor"/>
</svg>
