<?xml version="1.0" encoding="UTF-8" standalone="no"?>
<svg
   viewBox="0 0 22 22"
   version="1.1"
   id="svg1"
   sodipodi:docname="smartphone.svg"
   inkscape:version="1.3 (0e150ed6c4, 2023-07-21)"
   xmlns:inkscape="http://www.inkscape.org/namespaces/inkscape"
   xmlns:sodipodi="http://sodipodi.sourceforge.net/DTD/sodipodi-0.dtd"
   xmlns="http://www.w3.org/2000/svg"
   xmlns:svg="http://www.w3.org/2000/svg">
  <sodipodi:namedview
     id="namedview1"
     pagecolor="#ffffff"
     bordercolor="#666666"
     borderopacity="1.0"
     inkscape:showpageshadow="2"
     inkscape:pageopacity="0.0"
     inkscape:pagecheckerboard="0"
     inkscape:deskcolor="#d1d1d1"
     inkscape:zoom="26.195092"
     inkscape:cx="4.1992599"
     inkscape:cy="10.059136"
     inkscape:window-width="1920"
     inkscape:window-height="1006"
     inkscape:window-x="0"
     inkscape:window-y="0"
     inkscape:window-maximized="1"
     inkscape:current-layer="svg1" />
  <defs
     id="defs3051">
    <style
       type="text/css"
       id="current-color-scheme">&#10;      .ColorScheme-Text {&#10;        color:#232629;&#10;      }&#10;      </style>
  </defs>
  <path
     style="fill:#030303;fill-opacity:1;stroke:none;stroke-width:1.0626;stroke-linecap:round;stroke-linejoin:round;stroke-dasharray:none;stroke-dashoffset:0;stroke-opacity:1;paint-order:stroke fill markers"
     id="path6972-2"
     sodipodi:type="arc"
     sodipodi:cx="13"
     sodipodi:cy="3.5023918"
     sodipodi:rx="0.49760824"
     sodipodi:ry="0.49760824"
     sodipodi:start="0"
     sodipodi:end="6.2698771"
     sodipodi:open="true"
     sodipodi:arc-type="arc"
     d="m 13.497608,3.5023918 a 0.49760824,0.49760824 0 0 1 -0.495952,0.4976055 0.49760824,0.49760824 0 0 1 -0.499253,-0.4942944 0.49760824,0.49760824 0 0 1 0.49263,-0.5008945 0.49760824,0.49760824 0 0 1 0.502531,0.4909613" />
  <path
     style="fill:#030303;fill-opacity:1;stroke:none;stroke-width:1.0626;stroke-linecap:round;stroke-linejoin:round;stroke-dasharray:none;stroke-dashoffset:0;stroke-opacity:1;paint-order:stroke fill markers"
     id="path6974-9"
     sodipodi:type="arc"
     sodipodi:cx="7.855073"
     sodipodi:cy="3.5023918"
     sodipodi:rx="0.49760824"
     sodipodi:ry="0.49760824"
     sodipodi:start="0"
     sodipodi:end="6.2698771"
     sodipodi:open="true"
     sodipodi:arc-type="arc"
     d="M 8.3526812,3.5023918 A 0.49760824,0.49760824 0 0 1 7.8567285,3.9999973 0.49760824,0.49760824 0 0 1 7.3574757,3.5057029 0.49760824,0.49760824 0 0 1 7.8501064,3.0048084 0.49760824,0.49760824 0 0 1 8.3526372,3.4957697" />
  <path
     style="fill:#030303;fill-opacity:1;stroke:none;stroke-width:1.0626;stroke-linecap:round;stroke-linejoin:round;stroke-dasharray:none;stroke-dashoffset:0;stroke-opacity:1;paint-order:stroke fill markers"
     id="path6976-1"
     sodipodi:type="arc"
     sodipodi:cx="14.454021"
     sodipodi:cy="3.4957705"
     sodipodi:rx="0.49760824"
     sodipodi:ry="0.49760824"
     sodipodi:start="0"
     sodipodi:end="6.2698771"
     sodipodi:open="true"
     sodipodi:arc-type="arc"
     d="M 14.95163,3.4957705 A 0.49760824,0.49760824 0 0 1 14.455677,3.9933759 0.49760824,0.49760824 0 0 1 13.956424,3.4990816 0.49760824,0.49760824 0 0 1 14.449055,2.998187 0.49760824,0.49760824 0 0 1 14.951586,3.4891484" />
  <rect
     style="fill:none;fill-opacity:1;stroke:#000000;stroke-width:0.742358;stroke-linecap:round;stroke-linejoin:round;stroke-dasharray:none;stroke-dashoffset:0;stroke-opacity:1;paint-order:stroke fill markers"
     id="rect4909-1"
     width="9.3602982"
     height="17.338524"
     x="6.4518108"
     y="2.0384789"
     ry="1.1054935" />
  <path
     style="fill:none;stroke:#000000;stroke-width:0.399833;stroke-linecap:round;stroke-linejoin:miter;stroke-dasharray:none;stroke-opacity:1"
     d="m 9.5103843,17.755842 c 3.2821587,0 3.3142547,0 3.3142547,0"
     id="path4915-2" />
</svg>
