<svg height="128" version="1.1" width="128" xmlns="http://www.w3.org/2000/svg" xmlns:svg="http://www.w3.org/2000/svg" xmlns:xlink="http://www.w3.org/1999/xlink">
<defs id="primary-definitions">
<style id="current-color-scheme" type="text/css">
      .ColorScheme-Text           { color:#fff; }
      .ColorScheme-Background     { color:#111; }
      .ColorScheme-Highlight      { color:#3daefd; }
      .ColorScheme-ViewBackground { color:#000; }
      .ColorScheme-PositiveText   { color:#27ae60; }
      .ColorScheme-NeutralText    { color:#f67400; }
      .ColorScheme-NegativeText   { color:#da4453; }
    </style>
<style id="extended-color-scheme" type="text/css">
      .ExScheme-Black     { color:#3e3e3e; }
      .ExScheme-White     { color:#fcfcfc; }
      .ExScheme-Grey-1    { color:#cfd5d5; }
      .ExScheme-Grey-2    { color:#909c9c; }
      .ExScheme-Grey-3    { color:#536161; }
      .ExScheme-Red-1     { color:#ffafa5; }
      .ExScheme-Red-2     { color:#bf4231; }
      .ExScheme-Red-3     { color:#4d2f2b; }
      .ExScheme-Green-1   { color:#abf9c7; }
      .ExScheme-Green-2   { color:#3bb566; }
      .ExScheme-Green-3   { color:#377d50; }
      .ExScheme-Blue-1    { color:#abdaf9; }
      .ExScheme-Blue-2    { color:#3daefd; }
      .ExScheme-Blue-3    { color:#2b3c4d; }
      .ExScheme-Yellow-1  { color:#faffa5; }
      .ExScheme-Yellow-2  { color:#cac726; }
      .ExScheme-Yellow-3  { color:#4b4d2b; }
      .ExScheme-Orange-1  { color:#ffdaa5; }
      .ExScheme-Orange-2  { color:#ff9701; }
      .ExScheme-Orange-3  { color:#4d372b; }
      .ExScheme-Brown-1   { color:#e9d6bb; }
      .ExScheme-Brown-2   { color:#997657; }
      .ExScheme-Brown-3   { color:#433a35; }
      .ExScheme-Purple-1  { color:#e2abf9; }
      .ExScheme-Purple-2  { color:#b401ff; }
      .ExScheme-Purple-3  { color:#432b4d; }
      .ExScheme-Cyan-1    { color:#b2f2e6; }
      .ExScheme-Cyan-2    { color:#31bfa6; }
      .ExScheme-Cyan-3    { color:#2b4d47; }
      .ExScheme-Magenta-1 { color:#f8a6d8; }
      .ExScheme-Magenta-2 { color:#f00091; }
      .ExScheme-Magenta-3 { color:#770048; }
    </style>
<linearGradient id="utL">
<stop offset="0"/>
<stop offset="1" stop-opacity="0"/>
</linearGradient>
<linearGradient id="utM">
<stop offset="0" stop-color="#fff"/>
<stop offset="1" stop-color="#fff" stop-opacity="0"/>
</linearGradient>
<style class="toggle-enable-crease" type="text/css">
        .folder-crease { display: none; }
    </style><style class="toggle-manilla-folders" type="text/css">
        .folder-manilla { display: none; }
    </style><radialGradient cx=".5" cy="0" id="utN" r="1" xlink:href="#utM"/><linearGradient id="utO" xlink:href="#utL" y1="1" y2=".5"/><path d="m 20,16 c -3.3,0 -6,2.7 -6,6 v 14 c -3.3,0 -6,2.7 -6,6 v 64 c 0,3.3 2.7,6 6,6 h 100 c 3.3,0 6,-2.7 6,-6 V 52 42 38 c 0,-3.3 -2.7,-6 -6,-6 v -6 c 0,-3.3 -2.7,-6 -6,-6 H 56 c -8,0 -8,-4 -14,-4 z" id="utP"></path><path d="m 20,16 c -3.3,0 -6,2.7 -6,6 v 14 h 26 c 8,0 8,-4 14,-4 h 60 v -6 c 0,-3.3 -2.7,-6 -6,-6 H 56 c -8,0 -8,-4 -14,-4 z" id="utQ"></path></defs>
<g id="content" transform="translate(0,0)"><use class="folder-manilla ExScheme-Brown-1" fill="currentColor" href="#utP"></use><use class="toggle-manilla-folders ColorScheme-Highlight" fill="currentColor" href="#utP" id="primary-color"></use><use class="ColorScheme-Text" fill="currentColor" href="#utP" opacity=".1"></use><g id="panorama" transform="translate(8,32)"><path class="ColorScheme-Background" d="m 49,18 c -1.1,0 -2,.9 -2,2 v 30 h -7 c -4.4,0 -8,3.6 -8,8 0,4.4 3.6,8 8,8 4.4,0 8,-3.6 8,-8 V 29 h 31 v 13 h -7 c -4.4,0 -8,3.6 -8,8 0,4.4 3.6,8 8,8 4.4,0 8,-3.6 8,-8 V 20 c 0,-1.1 -.9,-2 -2,-2 z m -1,8 h 31 v 2 H 48 Z" fill="currentColor" opacity=".6" stop-color="#000000"/><path class="ColorScheme-Background" d="m 49,18 c -1.1,0 -2,.9 -2,2 v 30 h -7 c -4.4,0 -8,3.6 -8,8 0,4.4 3.6,8 8,8 4.4,0 8,-3.6 8,-8 V 29 h 31 v 13 h -7 c -4.4,0 -8,3.6 -8,8 0,4.4 3.6,8 8,8 4.4,0 8,-3.6 8,-8 V 20 c 0,-1.1 -.9,-2 -2,-2 z m 0,0.5 h 29 c .84,0 1.5,.66 1.5,1.5 v 6 C 79.5,25.7 79.3,25.5 79,25.5 H 48 c -.3,2.8e-5 -.5,.2 -0.5,0.5 v -6 c 0,-.84 .66,-1.5 1.5,-1.5 z M 48,26 h 31 v 2 H 48 Z m 31.5,16 v 8 c 0,4.15 -3.35,7.5 -7.5,7.5 -4.15,0 -7.5,-3.35 -7.5,-7.5 0,-4.15 3.35,-7.5 7.5,-7.5 h 7 c .3,-2.8e-5 .5,-.2 0.5,-0.5 z m -32,8 v 8 c 0,4.15 -3.35,7.5 -7.5,7.5 -4.15,0 -7.5,-3.35 -7.5,-7.5 0,-4.15 3.35,-7.5 7.5,-7.5 h 7 c .3,-2.8e-5 .5,-.2 0.5,-0.5 z" fill="currentColor" opacity=".6"/><path class="ColorScheme-Background" d="M 78.7 0 L 79.87 .66 C 80.35 .94 80.95 .8 81.23 .3 C 81.3 .2 81.3 .1 81.33 0 L 78.7 0 z M 93.3 0 C 93.1 .37 93.2 .8 93.5 1.1 L 94.9 2.5 C 95.3 2.9 95.9 2.9 96.3 2.5 C 96.7 2.13 96.7 1.5 96.3 1.1 L 95.2 0 L 93.3 0 z M 76.56 1.26 C 76.24 1.3 75.94 1.46 75.77 1.76 C 75.5 2.24 75.65 2.85 76.13 3.1 L 77.87 4.1 C 78.35 4.4 78.95 4.24 79.23 3.76 C 79.5 3.3 79.35 2.67 78.87 2.4 L 77.13 1.4 C 76.95 1.3 76.75 1.25 76.56 1.26 z M 91.3 2.23 C 91.07 2.24 90.83 2.34 90.65 2.5 C 90.26 2.9 90.26 3.55 90.65 3.94 L 92.06 5.35 C 92.45 5.74 93.1 5.74 93.5 5.35 C 93.87 4.96 93.87 4.33 93.5 3.94 L 92.06 2.5 C 91.85 2.3 91.6 2.2 91.3 2.23 z M 34.65 3.83 C 34.13 3.9 33.56 3.94 32.95 3.97 C 33.27 4.27 33.74 4.35 34.13 4.1 L 34.65 3.83 z M 18.5 4 C 18.14 4.4 18.15 5 18.5 5.35 C 18.9 5.74 19.55 5.74 19.94 5.35 L 21.3 4 L 18.5 4 z M 37.34 4.7 C 37.2 4.73 37 4.77 36.87 4.86 L 35.13 5.86 C 34.65 6.14 34.5 6.75 34.77 7.23 C 35.05 7.7 35.65 7.87 36.13 7.6 L 37.87 6.6 C 38.35 6.3 38.5 5.7 38.23 5.23 C 38.04 4.9 37.7 4.7 37.34 4.7 z M 74.6 4.7 C 74.3 4.73 73.95 4.9 73.77 5.23 C 73.5 5.7 73.65 6.3 74.13 6.6 L 75.87 7.6 C 76.35 7.87 76.95 7.7 77.23 7.23 C 77.5 6.75 77.35 6.14 76.87 5.86 L 75.13 4.86 C 74.97 4.76 74.8 4.7 74.6 4.7 z M 23.43 5.06 C 23.2 5.07 22.95 5.17 22.77 5.35 L 21.35 6.77 C 20.96 7.16 20.96 7.8 21.35 8.2 C 21.74 8.57 22.37 8.57 22.77 8.2 L 24.2 6.77 C 24.57 6.37 24.57 5.74 24.2 5.35 C 23.97 5.14 23.7 5.05 23.43 5.06 z M 88.5 5.06 C 88.24 5.07 88 5.17 87.8 5.35 C 87.43 5.74 87.43 6.37 87.8 6.77 L 89.23 8.2 C 89.63 8.57 90.26 8.57 90.65 8.2 C 91.04 7.8 91.04 7.16 90.65 6.77 L 89.23 5.35 C 89.03 5.14 88.75 5.05 88.5 5.06 z M 26.25 7.9 C 26 7.9 25.8 8 25.6 8.2 L 24.2 9.6 C 23.8 10 23.8 10.6 24.2 11 C 24.57 11.4 25.2 11.4 25.6 11 L 27 9.6 C 27.4 9.3 27.4 8.57 27 8.2 C 26.8 7.97 26.53 7.87 26.25 7.9 z M 85.65 7.9 C 85.4 7.9 85.2 8 85 8.2 C 84.6 8.57 84.6 9.3 85 9.6 L 86.4 11 C 86.8 11.4 87.43 11.4 87.8 11 C 88.2 10.6 88.2 10 87.8 9.6 L 86.4 8.2 C 86.2 7.97 85.9 7.87 85.65 7.9 z M 8.85 10.63 C 8.5 10.64 8.2 10.8 8 11.13 L 7 12.87 C 6.73 13.35 6.9 13.95 7.37 14.23 C 7.85 14.5 8.46 14.35 8.73 13.87 L 9.73 12.13 C 10 11.65 9.85 11.05 9.37 10.77 C 9.3 10.67 9 10.63 8.85 10.63 z M 29.1 10.7 C 28.84 10.73 28.6 10.8 28.4 11 L 27 12.4 C 26.6 12.8 26.6 13.44 27 13.84 C 27.4 14.23 28.03 14.23 28.4 13.84 L 29.84 12.4 C 30.23 12.03 30.23 11.4 29.84 11 C 29.63 10.8 29.35 10.7 29.1 10.7 z M 82.8 10.7 C 82.6 10.73 82.35 10.8 82.16 11 C 81.77 11.4 81.77 12.03 82.16 12.4 L 83.6 13.84 C 83.97 14.23 84.6 14.23 85 13.84 C 85.4 13.44 85.4 12.8 85 12.4 L 83.6 11 C 83.37 10.8 83.1 10.7 82.8 10.7 z M 12.3 12.63 C 12 12.64 11.65 12.8 11.46 13.13 L 10.46 14.87 C 10.2 15.35 10.35 15.95 10.83 16.23 C 11.3 16.5 11.9 16.35 12.2 15.87 L 13.2 14.13 C 13.5 13.65 13.3 13.05 12.83 12.77 C 12.67 12.67 12.5 12.63 12.3 12.63 z M 15.77 14.63 C 15.44 14.64 15.1 14.8 14.93 15.13 L 13.93 16.87 C 13.65 17.35 13.8 17.95 14.3 18.23 C 14.8 18.5 15.4 18.35 15.66 17.87 L 16.66 16.13 C 16.94 15.65 16.8 15.05 16.3 14.77 C 16.13 14.67 15.95 14.63 15.77 14.63 z M 19.24 16.63 C 19 16.64 18.6 16.8 18.4 17.13 L 17.4 18.87 C 17.1 19.35 17.3 19.95 17.76 20.23 C 18.24 20.5 18.85 20.35 19.1 19.87 L 20.1 18.13 C 20.5 17.65 20.24 17.05 19.76 16.77 C 19.6 16.67 19.4 16.63 19.24 16.63 z M 92.7 16.63 C 92.55 16.64 92.4 16.7 92.24 16.77 C 91.76 17.05 91.6 17.65 91.9 18.13 L 92.9 19.87 C 93.15 20.35 93.76 20.5 94.24 20.23 C 94.7 19.95 94.9 19.35 94.6 18.87 L 93.6 17.13 C 93.4 16.8 93.07 16.6 92.7 16.63 z M 22.7 18.63 C 22.37 18.64 22.04 18.8 21.86 19.13 L 20.86 20.87 C 20.6 21.35 20.75 21.95 21.23 22.23 C 21.7 22.5 22.3 22.35 22.6 21.87 L 23.6 20.13 C 23.87 19.65 23.7 19.05 23.23 18.77 C 23.06 18.67 22.9 18.63 22.7 18.63 z M 89.25 18.63 C 89.1 18.64 88.9 18.7 88.77 18.77 C 88.3 19.05 88.13 19.65 88.4 20.13 L 89.4 21.87 C 89.7 22.35 90.3 22.5 90.77 22.23 C 91.25 21.95 91.4 21.35 91.14 20.87 L 90.14 19.13 C 89.95 18.8 89.6 18.6 89.25 18.63 z M 108.86 23.8 C 108.8 23.8 108.7 23.8 108.6 23.83 C 108.07 24 107.76 24.5 107.9 25.06 L 108.4 27 C 108.56 27.5 109.1 27.84 109.64 27.7 C 110.2 27.55 110.5 27 110.35 26.47 L 109.83 24.54 C 109.7 24.1 109.3 23.8 108.86 23.8 z M 105 24.83 C 104.9 24.83 104.83 24.84 104.75 24.87 C 104.2 25 103.9 25.56 104.04 26.1 L 104.55 28 C 104.7 28.56 105.25 28.87 105.8 28.73 C 106.3 28.6 106.63 28.04 106.5 27.5 L 105.97 25.57 C 105.85 25.1 105.44 24.83 105 24.83 z M 101.13 25.87 C 101.05 25.87 100.97 25.9 100.9 25.9 C 100.35 26.05 100.03 26.6 100.17 27.13 L 100.7 29.06 C 100.83 29.6 101.4 29.9 101.9 29.77 C 102.45 29.6 102.77 29.1 102.6 28.54 L 102.1 26.6 C 102 26.16 101.6 25.86 101.13 25.87 z M 14.63 26.9 C 14.23 26.94 13.87 27.23 13.76 27.64 L 13.24 29.6 C 13.1 30.1 13.4 30.66 13.95 30.8 C 14.5 30.94 15.03 30.63 15.17 30.1 L 15.7 28.16 C 15.83 27.63 15.5 27.1 15 26.94 C 14.87 26.9 14.75 26.9 14.63 26.9 z M 97.2 26.9 C 97.15 26.9 97.1 26.9 97 26.94 C 96.5 27.1 96.17 27.63 96.3 28.16 L 96.83 30.1 C 96.97 30.63 97.5 30.94 98.05 30.8 C 98.6 30.66 98.9 30.1 98.76 29.6 L 98.24 27.64 C 98.1 27.2 97.7 26.9 97.2 26.9 z M 18.55 27.94 C 18.1 27.96 17.74 28.24 17.6 28.7 L 17.1 30.6 C 16.96 31.15 17.3 31.7 17.8 31.84 C 18.35 32 18.9 31.66 19.04 31.13 L 19.55 29.2 C 19.7 28.66 19.4 28.1 18.85 27.97 C 18.75 27.95 18.65 27.94 18.55 27.94 z M 93.36 27.94 C 93.3 27.95 93.2 27.95 93.15 27.97 C 92.6 28.1 92.3 28.66 92.45 29.2 L 92.96 31.13 C 93.1 31.66 93.65 32 94.2 31.84 C 94.7 31.7 95.04 31.15 94.9 30.6 L 94.4 28.7 C 94.25 28.2 93.8 27.9 93.36 27.94 z M .95 38 C .4 38.03 1.5e-16 38.46 0 39 L 0 41 C 0 41.55 .45 42 1 42 C 1.55 42 2 41.55 2 41 L 2 39 C 2 38.45 1.55 38 1 38 C 1 38 .97 38 .95 38 z M 4.95 38 C 4.4 38.03 4 38.46 4 39 L 4 41 C 4 41.55 4.45 42 5 42 C 5.55 42 6 41.55 6 41 L 6 39 C 6 38.45 5.55 38 5 38 C 5 38 4.97 38 4.95 38 z M 8.95 38 C 8.4 38.03 8 38.46 8 39 L 8 41 C 8 41.55 8.45 42 9 42 C 9.55 42 10 41.55 10 41 L 10 39 C 10 38.45 9.55 38 9 38 C 9 38 8.97 38 8.95 38 z M 12.95 38 C 12.4 38.03 12 38.46 12 39 L 12 41 C 12 41.55 12.45 42 13 42 C 13.55 42 14 41.55 14 41 L 14 39 C 14 38.45 13.55 38 13 38 C 13 38 12.97 38 12.95 38 z M 16.95 38 C 16.4 38.03 16 38.46 16 39 L 16 41 C 16 41.55 16.45 42 17 42 C 17.55 42 18 41.55 18 41 L 18 39 C 18 38.45 17.55 38 17 38 C 17 38 16.97 38 16.95 38 z M 94.95 38 C 94.4 38.03 94 38.46 94 39 L 94 41 C 94 41.55 94.45 42 95 42 C 95.55 42 96 41.55 96 41 L 96 39 C 96 38.45 95.55 38 95 38 C 95 38 94.97 38 94.95 38 z M 98.95 38 C 98.4 38.03 98 38.46 98 39 L 98 41 C 98 41.55 98.45 42 99 42 C 99.55 42 100 41.55 100 41 L 100 39 C 100 38.45 99.55 38 99 38 C 99 38 98.97 38 98.95 38 z M 102.95 38 C 102.4 38.03 102 38.46 102 39 L 102 41 C 102 41.55 102.45 42 103 42 C 103.55 42 104 41.55 104 41 L 104 39 C 104 38.45 103.55 38 103 38 C 103 38 102.97 38 102.95 38 z M 18 48.13 C 17.95 48.13 17.9 48.14 17.8 48.16 C 17.3 48.3 16.96 48.85 17.1 49.4 L 17.6 51.3 C 17.76 51.86 18.3 52.17 18.85 52.03 C 19.4 51.9 19.7 51.34 19.55 50.8 L 19.04 48.87 C 18.9 48.4 18.5 48.1 18 48.13 z M 93.9 48.13 C 93.46 48.15 93.1 48.44 92.96 48.87 L 92.45 50.8 C 92.3 51.34 92.6 51.9 93.15 52.03 C 93.7 52.17 94.24 51.86 94.4 51.3 L 94.9 49.4 C 95.04 48.85 94.7 48.3 94.2 48.16 C 94.1 48.13 94 48.13 93.9 48.13 z M 14.15 49.16 C 14.1 49.17 14 49.2 13.95 49.2 C 13.4 49.34 13.1 49.9 13.24 50.4 L 13.76 52.36 C 13.9 52.9 14.45 53.2 15 53.06 C 15.5 52.9 15.83 52.37 15.7 51.84 L 15.17 49.9 C 15.05 49.44 14.6 49.14 14.15 49.16 z M 97.75 49.16 C 97.33 49.2 96.94 49.47 96.83 49.9 L 96.3 51.84 C 96.17 52.37 96.5 52.9 97 53.06 C 97.55 53.2 98.1 52.9 98.24 52.36 L 98.76 50.4 C 98.9 49.9 98.6 49.34 98.05 49.2 C 97.95 49.17 97.85 49.16 97.75 49.16 z M 10.3 50.2 C 10.2 50.2 10.15 50.2 10.1 50.23 C 9.55 50.4 9.23 50.9 9.4 51.46 L 9.9 53.4 C 10.04 53.93 10.6 54.24 11.1 54.1 C 11.65 53.95 11.97 53.4 11.83 52.87 L 11.3 50.94 C 11.2 50.47 10.75 50.17 10.3 50.2 z M 6.4 51.23 C 6.36 51.24 6.3 51.25 6.2 51.27 C 5.7 51.4 5.37 51.96 5.5 52.5 L 6.03 54.43 C 6.17 54.96 6.7 55.3 7.25 55.13 C 7.8 55 8.1 54.44 7.96 53.9 L 7.45 52 C 7.3 51.5 6.9 51.2 6.4 51.23 z M 21.7 57.63 C 21.54 57.64 21.4 57.7 21.23 57.77 C 20.75 58.05 20.6 58.65 20.86 59.13 L 21.86 60.87 C 22.14 61.35 22.75 61.5 23.23 61.23 C 23.7 60.95 23.87 60.35 23.6 59.87 L 22.6 58.13 C 22.4 57.8 22.05 57.6 21.7 57.63 z M 90.25 57.63 C 89.9 57.64 89.6 57.8 89.4 58.13 L 88.4 59.87 C 88.13 60.35 88.3 60.95 88.77 61.23 C 89.25 61.5 89.86 61.35 90.14 60.87 L 91.14 59.13 C 91.4 58.65 91.25 58.05 90.77 57.77 C 90.6 57.67 90.43 57.63 90.25 57.63 z M 18.23 59.63 C 18.07 59.64 17.9 59.7 17.76 59.77 C 17.3 60.05 17.1 60.65 17.4 61.13 L 18.4 62.87 C 18.67 63.35 19.3 63.5 19.76 63.23 C 20.24 62.95 20.5 62.35 20.1 61.87 L 19.1 60.13 C 18.93 59.8 18.6 59.6 18.23 59.63 z M 93.7 59.63 C 93.4 59.64 93.06 59.8 92.9 60.13 L 91.9 61.87 C 91.6 62.35 91.76 62.95 92.24 63.23 C 92.7 63.5 93.33 63.35 93.6 62.87 L 94.6 61.13 C 94.9 60.65 94.7 60.05 94.24 59.77 C 94.07 59.67 93.9 59.63 93.7 59.63 z M 14.77 61.63 C 14.6 61.64 14.45 61.7 14.3 61.77 C 13.8 62.05 13.65 62.65 13.93 63.13 L 14.93 64.87 C 15.2 65.35 15.8 65.5 16.3 65.23 C 16.8 64.95 16.94 64.35 16.66 63.87 L 15.66 62.13 C 15.47 61.8 15.1 61.6 14.77 61.63 z M 97.2 61.63 C 96.84 61.64 96.5 61.8 96.34 62.13 L 95.34 63.87 C 95.06 64.35 95.2 64.95 95.7 65.23 C 96.2 65.5 96.8 65.35 97.07 64.87 L 98.07 63.13 C 98.35 62.65 98.2 62.05 97.7 61.77 C 97.54 61.67 97.36 61.63 97.2 61.63 z M 11.3 63.63 C 11.14 63.64 11 63.7 10.83 63.77 C 10.35 64.05 10.2 64.65 10.46 65.13 L 11.46 66.87 C 11.74 67.35 12.35 67.5 12.83 67.23 C 13.3 66.95 13.5 66.35 13.2 65.87 L 12.2 64.13 C 12 63.8 11.66 63.6 11.3 63.63 z M 100.64 63.63 C 100.3 63.64 100 63.8 99.8 64.13 L 98.8 65.87 C 98.5 66.35 98.7 66.95 99.17 67.23 C 99.65 67.5 100.26 67.35 100.54 66.87 L 101.54 65.13 C 101.8 64.65 101.65 64.05 101.17 63.77 C 101 63.67 100.8 63.63 100.64 63.63 z M 7.84 65.63 C 7.7 65.64 7.5 65.7 7.37 65.77 C 6.9 66.05 6.73 66.65 7 67.13 L 8 68.87 C 8.3 69.35 8.9 69.5 9.37 69.23 C 9.85 68.95 10 68.35 9.73 67.87 L 8.73 66.13 C 8.54 65.8 8.3 65.6 7.84 65.63 z M 104.1 65.63 C 103.77 65.64 103.45 65.8 103.27 66.13 L 102.27 67.87 C 102 68.35 102.15 68.95 102.63 69.23 C 103.1 69.5 103.7 69.35 104 68.87 L 105 67.13 C 105.27 66.65 105.1 66.05 104.63 65.77 C 104.47 65.67 104.3 65.63 104.1 65.63 z M 27.67 65.87 C 27.43 65.9 27.2 66 27 66.16 C 26.6 66.56 26.6 67.2 27 67.6 L 28.4 69 C 28.8 69.4 29.44 69.4 29.84 69 C 30.23 68.7 30.23 67.97 29.84 67.6 L 28.4 66.16 C 28.2 65.96 27.94 65.86 27.67 65.87 z M 84.24 65.87 C 84 65.9 83.76 66 83.6 66.16 L 82.16 67.6 C 81.77 67.97 81.77 68.7 82.16 69 C 82.56 69.4 83.2 69.4 83.6 69 L 85 67.6 C 85.4 67.2 85.4 66.56 85 66.16 C 84.8 65.96 84.5 65.86 84.24 65.87 z M 4.4 67.63 C 4.2 67.64 4.06 67.7 3.9 67.77 C 3.43 68.05 3.26 68.65 3.54 69.13 L 4.54 70.87 C 4.8 71.35 5.43 71.5 5.9 71.23 C 6.4 70.95 6.55 70.35 6.27 69.87 L 5.27 68.13 C 5.1 67.8 4.73 67.6 4.4 67.63 z M 107.57 67.63 C 107.24 67.64 106.9 67.8 106.73 68.13 L 105.73 69.87 C 105.45 70.35 105.6 70.95 106.1 71.23 C 106.57 71.5 107.2 71.35 107.46 70.87 L 108.46 69.13 C 108.74 68.65 108.57 68.05 108.1 67.77 C 107.93 67.67 107.75 67.63 107.57 67.63 z M 24.84 68.7 C 24.6 68.7 24.36 68.8 24.2 69 C 23.8 69.4 23.8 70 24.2 70.4 L 25.6 71.8 C 26 72.2 26.6 72.2 27 71.8 C 27.4 71.43 27.4 70.8 27 70.4 L 25.6 69 C 25.4 68.8 25.1 68.7 24.84 68.7 z M 87.07 68.7 C 86.83 68.7 86.6 68.8 86.4 69 L 85 70.4 C 84.6 70.8 84.6 71.43 85 71.8 C 85.4 72.2 86 72.2 86.4 71.8 L 87.8 70.4 C 88.2 70 88.2 69.4 87.8 69 C 87.6 68.8 87.34 68.7 87.07 68.7 z M 111.04 69.63 C 110.7 69.64 110.4 69.8 110.2 70.13 L 109.2 71.87 C 108.9 72.35 109.1 72.95 109.56 73.23 C 110.04 73.5 110.65 73.35 110.93 72.87 L 111.93 71.13 C 111.97 71.06 112 71 112 70.9 L 112 70.3 C 111.93 70.2 111.8 69.9 111.56 69.77 C 111.4 69.67 111.2 69.63 111.04 69.63 z M 89.9 71.53 C 89.66 71.54 89.4 71.64 89.23 71.8 L 87.8 73.23 C 87.43 73.63 87.43 74.26 87.8 74.65 C 88.2 75.04 88.84 75.04 89.23 74.65 L 90.65 73.23 C 91.04 72.84 91.04 72.2 90.65 71.8 C 90.44 71.6 90.17 71.5 89.9 71.53 z M 35.6 72.27 C 35.3 72.3 34.95 72.46 34.77 72.77 C 34.5 73.25 34.65 73.86 35.13 74.14 L 36.87 75.14 C 37.35 75.4 37.95 75.25 38.23 74.77 C 38.5 74.3 38.35 73.7 37.87 73.4 L 36.13 72.4 C 35.97 72.3 35.8 72.27 35.6 72.27 z M 76.34 72.27 C 76.2 72.3 76 72.3 75.87 72.4 L 74.13 73.4 C 73.65 73.7 73.5 74.3 73.77 74.77 C 74.05 75.25 74.65 75.4 75.13 75.14 L 76.87 74.14 C 77.35 73.86 77.5 73.25 77.23 72.77 C 77.04 72.44 76.7 72.26 76.34 72.27 z M 92.7 74.36 C 92.5 74.37 92.25 74.46 92.06 74.65 L 90.65 76.06 C 90.26 76.45 90.26 77.1 90.65 77.5 C 91.04 77.87 91.67 77.87 92.06 77.5 L 93.5 76.06 C 93.87 75.67 93.87 75.04 93.5 74.65 C 93.27 74.44 93 74.34 92.7 74.36 z M 33.6 75.74 C 33.3 75.75 32.95 75.9 32.77 76.24 C 32.5 76.7 32.65 77.33 33.13 77.6 L 34.87 78.6 C 35.35 78.9 35.95 78.7 36.23 78.24 C 36.5 77.76 36.35 77.15 35.87 76.9 L 34.13 75.9 C 33.97 75.8 33.8 75.73 33.6 75.74 z M 78.34 75.74 C 78.2 75.74 78 75.8 77.87 75.9 L 76.13 76.9 C 75.65 77.15 75.5 77.76 75.77 78.24 C 76.05 78.7 76.65 78.9 77.13 78.6 L 78.87 77.6 C 79.35 77.33 79.5 76.7 79.23 76.24 C 79.04 75.9 78.7 75.73 78.34 75.74 z M 31.56 79.2 C 31.24 79.23 30.94 79.4 30.77 79.7 C 30.7 79.8 30.7 79.9 30.67 80 L 33.3 80 L 32.13 79.34 C 31.95 79.23 31.75 79.2 31.56 79.2 z " fill="currentColor" opacity=".6" stop-color="#000000"/></g><use href="#utQ" opacity=".4"></use><use class="toggle-flat-design" fill="url(#utO)" href="#utQ" opacity=".2"></use><path class="toggle-flat-design" d="m 54,32 c -6,0 -6,4 -14,4 H 14 c -3.3,0 -6,2.7 -6,6 v 64 c 0,3.3 2.7,6 6,6 h 100 c 3.3,0 6,-2.7 6,-6 V 52 42 38 c 0,-3.3 -2.7,-6 -6,-6 z" fill="url(#utN)" opacity=".2"/><path class="folder-crease " d="m 8,88 v 4 h 4 c 1.1,0 2,-.9 2,-2 0,-1.1 -.9,-2 -2,-2 z m 108,0 c -1.1,0 -2,.9 -2,2 0,1.1 .9,2 2,2 h 4 v -4 z" opacity=".4"/><path class="ColorScheme-Text" d="m 8,105 v 1 c 0,3.3 2.7,6 6,6 h 100 c 3.3,0 6,-2.7 6,-6 v -1 c 0,3.3 -2.7,6 -6,6 H 14 c -3.3,0 -6,-2.7 -6,-6 z" fill="currentColor" opacity=".1"/><path class="ColorScheme-Text" d="m 8,105.5 v 0.5 c 0,3.3 2.7,6 6,6 h 100 c 3.3,0 6,-2.7 6,-6 v -0.5 c 0,3.3 -2.7,6 -6,6 H 14 c -3.3,0 -6,-2.7 -6,-6 z" fill="currentColor" opacity=".2"/><path d="m 54,32 c -6,0 -6,4 -14,4 H 14 c -3.3,0 -6,2.7 -6,6 v 1 c 0,-3.3 2.7,-6 6,-6 h 26 c 8,0 8,-4 14,-4 h 60 c 3.3,0 6,2.7 6,6 v -1 c 0,-3.3 -2.7,-6 -6,-6 z" fill="#fff" opacity=".1"/><path d="m 54,32 c -6,0 -6,4 -14,4 H 14 c -3.3,0 -6,2.7 -6,6 v 0.5 c 0,-3.3 2.7,-6 6,-6 h 26 c 8,0 8,-4 14,-4 h 60 c 3.3,0 6,2.7 6,6 V 38 c 0,-3.3 -2.7,-6 -6,-6 z" fill="#fff" opacity=".2"/><path d="m 54,31 c -6,0 -6,4 -14,4 H 14 v 1 h 26 c 8,0 8,-4 14,-4 h 60 v -1 z" opacity=".1"/><path d="m 54,31.5 c -6,0 -6,4 -14,4 H 14 V 36 h 26 c 8,0 8,-4 14,-4 h 60 v -0.5 z" opacity=".2"/></g>
</svg>