<svg height="128" version="1.1" width="128" xmlns="http://www.w3.org/2000/svg" xmlns:svg="http://www.w3.org/2000/svg" xmlns:xlink="http://www.w3.org/1999/xlink">
<defs id="primary-definitions">
<style id="current-color-scheme" type="text/css">
      .ColorScheme-Text         { color: #232629; }
      .ColorScheme-Background   { color: #eff0f1; }
      .ColorScheme-Highlight    { color: #7ec9f0; }
      .ColorScheme-PositiveText { color: #27ae60; }
      .ColorScheme-NeutralText  { color: #f67400; }
      .ColorScheme-NegativeText { color: #da4453; }
      .ColorScheme-ActiveText   { color: #3daee9; }
      .ColorScheme-Complement   { color: #ffffff; }
      .ColorScheme-Contrast     { color: #000000; }
    </style>
<style id="extended-color-scheme" type="text/css">
      .ExScheme-Black     { color:#3e3e3e; }
      .ExScheme-White     { color:#fcfcfc; }
      .ExScheme-Grey-1    { color:#cfd5d5; }
      .ExScheme-Grey-2    { color:#909c9c; }
      .ExScheme-Grey-3    { color:#536161; }
      .ExScheme-Red-1     { color:#ffafa5; }
      .ExScheme-Red-2     { color:#bf4231; }
      .ExScheme-Red-3     { color:#4d2f2b; }
      .ExScheme-Green-1   { color:#abf9c7; }
      .ExScheme-Green-2   { color:#3bb566; }
      .ExScheme-Green-3   { color:#377d50; }
      .ExScheme-Blue-1    { color:#abdaf9; }
      .ExScheme-Blue-2    { color:#3daefd; }
      .ExScheme-Blue-3    { color:#2b3c4d; }
      .ExScheme-Yellow-1  { color:#faffa5; }
      .ExScheme-Yellow-2  { color:#cac726; }
      .ExScheme-Yellow-3  { color:#4b4d2b; }
      .ExScheme-Orange-1  { color:#ffdaa5; }
      .ExScheme-Orange-2  { color:#ff9701; }
      .ExScheme-Orange-3  { color:#4d372b; }
      .ExScheme-Brown-1   { color:#e9d6bb; }
      .ExScheme-Brown-2   { color:#997657; }
      .ExScheme-Brown-3   { color:#433a35; }
      .ExScheme-Purple-1  { color:#e2abf9; }
      .ExScheme-Purple-2  { color:#b401ff; }
      .ExScheme-Purple-3  { color:#432b4d; }
      .ExScheme-Cyan-1    { color:#b2f2e6; }
      .ExScheme-Cyan-2    { color:#31bfa6; }
      .ExScheme-Cyan-3    { color:#2b4d47; }
      .ExScheme-Magenta-1 { color:#f8a6d8; }
      .ExScheme-Magenta-2 { color:#f00091; }
      .ExScheme-Magenta-3 { color:#770048; }
    </style>
<linearGradient id="uAO">
<stop offset="0"/>
<stop offset="1" stop-opacity="0"/>
</linearGradient>
<linearGradient id="uAP">
<stop offset="0" stop-color="#fff"/>
<stop offset="1" stop-color="#fff" stop-opacity="0"/>
</linearGradient>
<style id="uAQ" type="text/css">
        .force-display-for-editing { display: inline !important; }
    </style><style class="remove-if__show-crease" type="text/css">
        .enable-if__show-crease { display: none; }
    </style><style class="remove-if__color-sync-mimes-places" type="text/css">
        .enable-if__color-sync-mimes-places { display: none; }
    </style><radialGradient cx=".5" cy="0" id="uAR" r="1" xlink:href="#uAP"/><linearGradient id="uAS" xlink:href="#uAO" y1="1" y2=".5"/><style class="ColorScheme-Background" fill="currentColor" opacity=".6" type="text/css">
   .ColorScheme-Text           { color:#eff0f1; }
      .ColorScheme-Background     { color:#31363b; }
      .ColorScheme-Highlight      { color:#3daefd; }
      .ColorScheme-ViewBackground { color:#fcfcfc; }
      .ColorScheme-PositiveText   { color:#27ae60; }
      .ColorScheme-NeutralText    { color:#f67400; }
      .ColorScheme-NegativeText   { color:#da4453; }
  </style><path d="m 20,16 c -3.3,0 -6,2.7 -6,6 v 14 c -3.3,0 -6,2.7 -6,6 v 64 c 0,3.3 2.7,6 6,6 h 100 c 3.3,0 6,-2.7 6,-6 V 52 42 38 c 0,-3.3 -2.7,-6 -6,-6 v -6 c 0,-3.3 -2.7,-6 -6,-6 H 56 c -8,0 -8,-4 -14,-4 z" id="uAT"></path><path d="m 20,16 c -3.3,0 -6,2.7 -6,6 v 14 h 26 c 8,0 8,-4 14,-4 h 60 v -6 c 0,-3.3 -2.7,-6 -6,-6 H 56 c -8,0 -8,-4 -14,-4 z" id="uAU"></path></defs>
<g id="content" transform="translate(0,0)"><use class="sync-color enable-if__color-sync-mimes-places force-display-for-editing ColorScheme-ActiveText" fill="currentColor" href="#uAT"></use><use class="primary-color remove-if__color-sync-mimes-places ColorScheme-ActiveText" fill="currentColor" href="#uAT"></use><use class="ColorScheme-Contrast" fill="currentColor" href="#uAT" opacity=".1"></use><g id="decal" transform="translate(32,42)"><path class="ColorScheme-Background" d="M 48 8 A 8 8 0 0 0 40 16 A 8 8 0 0 0 40.47 18.65 L 22.65 27.55 A 8 8 0 0 0 16 24 A 8 8 0 0 0 8 32 A 8 8 0 0 0 16 40 A 8 8 0 0 0 22.64 36.44 L 40.47 45.35 A 8 8 0 0 0 40 48 A 8 8 0 0 0 48 56 A 8 8 0 0 0 56 48 A 8 8 0 0 0 48 40 A 8 8 0 0 0 41.36 43.56 L 23.53 34.65 A 8 8 0 0 0 24 32 A 8 8 0 0 0 23.55 29.35 L 41.36 20.44 A 8 8 0 0 0 48 24 A 8 8 0 0 0 56 16 A 8 8 0 0 0 48 8 z M 48 9 A 7 7 0 0 1 55 16 A 7 7 0 0 1 48 23 A 7 7 0 0 1 41 16 A 7 7 0 0 1 48 9 z M 16 25 A 7 7 0 0 1 23 32 A 7 7 0 0 1 16 39 A 7 7 0 0 1 9 32 A 7 7 0 0 1 16 25 z M 48 41 A 7 7 0 0 1 55 48 A 7 7 0 0 1 48 55 A 7 7 0 0 1 41 48 A 7 7 0 0 1 48 41 z " fill="currentColor" opacity=".6" stop-color="#000000"/><path class="ColorScheme-Background" d="m 48,8 c -4.4,0 -8,3.6 -8,8 0,.9 .17,1.8 .47,2.65 L 22.65,27.55 C 21.17,25.33 18.67,24 16,24 c -4.4,0 -8,3.6 -8,8 0,4.4 3.6,8 8,8 2.67,-0 5.16,-1.34 6.64,-3.56 l 17.83,8.9 C 40.17,46.2 40,47.1 40,48 c 0,4.4 3.6,8 8,8 4.4,0 8,-3.6 8,-8 0,-4.4 -3.6,-8 -8,-8 -2.67,0 -5.16,1.34 -6.64,3.56 L 23.53,34.65 C 23.83,33.9 24,32.9 24,32 c 1.3e-5,-.9 -.15,-1.8 -.45,-2.65 l 17.8,-8.9 C 42.84,22.66 45.33,24 48,24 c 4.4,0 8,-3.6 8,-8 0,-4.4 -3.6,-8 -8,-8 z m 0,1 c 3.87,0 7,3.13 7,7 0,3.87 -3.13,7 -7,7 -3.87,0 -7,-3.13 -7,-7 0,-3.87 3.13,-7 7,-7 z m -5.8,11.54 c -.1,-.15 -.3,-.2 -.4,-.37 -.14,-.2 -.4,-.3 -.64,-.17 l -17.8,8.9 c -.2,.1 -.33,.4 -.25,.6 .3,.8 -.27,-.8 -1.3,-2.1 .13,.16 .33,.23 .44,.4 .14,.2 .4,.3 .64,.17 L 40.7,19.1 c .23,-.1 .33,-.4 .25,-.6 -.2,-.56 .4,1 1.24,2.06 z M 16,25 c 3.87,0 7,3.13 7,7 0,3.87 -3.13,7 -7,7 -3.87,0 -7,-3.13 -7,-7 0,-3.87 3.13,-7 7,-7 z m 7.06,9.5 c -.1,.24 0,.5 .25,.6 l 17.83,8.9 c .23,.1 .5,.04 .64,-.17 .1,-.16 .3,-.2 .4,-.37 -.85,1.1 -1.44,2.6 -1.24,2.06 .1,-.24 -0,-.5 -.25,-.6 L 22.87,36 c -.23,-.1 -.5,-.04 -.64,.17 -.1,.16 -.3,.2 -.4,.37 .85,-1.1 1.44,-2.6 1.24,-2.06 z M 48,41 c 3.87,0 7,3.13 7,7 0,3.87 -3.13,7 -7,7 -3.87,0 -7,-3.13 -7,-7 0,-3.87 3.13,-7 7,-7 z" fill="currentColor" opacity=".6"/></g><use href="#uAU" opacity=".4"></use><use fill="url(#uAS)" href="#uAU" opacity=".2"></use><path d="m 54,32 c -6,0 -6,4 -14,4 H 14 c -3.3,0 -6,2.7 -6,6 v 64 c 0,3.3 2.7,6 6,6 h 100 c 3.3,0 6,-2.7 6,-6 V 52 42 38 c 0,-3.3 -2.7,-6 -6,-6 z" fill="url(#uAR)" opacity=".2"/><path class="ColorScheme-Contrast" d="m 8,105 v 1 c 0,3.3 2.7,6 6,6 h 100 c 3.3,0 6,-2.7 6,-6 v -1 c 0,3.3 -2.7,6 -6,6 H 14 c -3.3,0 -6,-2.7 -6,-6 z" fill="currentColor" opacity=".1"/><path class="ColorScheme-Contrast" d="m 8,105.5 v 0.5 c 0,3.3 2.7,6 6,6 h 100 c 3.3,0 6,-2.7 6,-6 v -0.5 c 0,3.3 -2.7,6 -6,6 H 14 c -3.3,0 -6,-2.7 -6,-6 z" fill="currentColor" opacity=".2"/><path d="m 54,32 c -6,0 -6,4 -14,4 H 14 c -3.3,0 -6,2.7 -6,6 v 1 c 0,-3.3 2.7,-6 6,-6 h 26 c 8,0 8,-4 14,-4 h 60 c 3.3,0 6,2.7 6,6 v -1 c 0,-3.3 -2.7,-6 -6,-6 z" fill="#fff" opacity=".1"/><path d="m 54,32 c -6,0 -6,4 -14,4 H 14 c -3.3,0 -6,2.7 -6,6 v 0.5 c 0,-3.3 2.7,-6 6,-6 h 26 c 8,0 8,-4 14,-4 h 60 c 3.3,0 6,2.7 6,6 V 38 c 0,-3.3 -2.7,-6 -6,-6 z" fill="#fff" opacity=".2"/><path d="m 54,31 c -6,0 -6,4 -14,4 H 14 v 1 h 26 c 8,0 8,-4 14,-4 h 60 v -1 z" opacity=".1"/><path d="m 54,31.5 c -6,0 -6,4 -14,4 H 14 V 36 h 26 c 8,0 8,-4 14,-4 h 60 v -0.5 z" opacity=".2"/></g>
</svg>