<svg height="128" version="1.1" width="128" xmlns="http://www.w3.org/2000/svg" xmlns:svg="http://www.w3.org/2000/svg" xmlns:xlink="http://www.w3.org/1999/xlink">
<defs id="primary-definitions">
<style id="current-color-scheme" type="text/css">
      .ColorScheme-Text         { color: #232629; }
      .ColorScheme-Background   { color: #eff0f1; }
      .ColorScheme-Highlight    { color: #7ec9f0; }
      .ColorScheme-PositiveText { color: #27ae60; }
      .ColorScheme-NeutralText  { color: #f67400; }
      .ColorScheme-NegativeText { color: #da4453; }
      .ColorScheme-ActiveText   { color: #3daee9; }
      .ColorScheme-Complement   { color: #ffffff; }
      .ColorScheme-Contrast     { color: #000000; }
    </style>
<style id="extended-color-scheme" type="text/css">
      .ExScheme-Black     { color:#3e3e3e; }
      .ExScheme-White     { color:#fcfcfc; }
      .ExScheme-Grey-1    { color:#cfd5d5; }
      .ExScheme-Grey-2    { color:#909c9c; }
      .ExScheme-Grey-3    { color:#536161; }
      .ExScheme-Red-1     { color:#ffafa5; }
      .ExScheme-Red-2     { color:#bf4231; }
      .ExScheme-Red-3     { color:#4d2f2b; }
      .ExScheme-Green-1   { color:#abf9c7; }
      .ExScheme-Green-2   { color:#3bb566; }
      .ExScheme-Green-3   { color:#377d50; }
      .ExScheme-Blue-1    { color:#abdaf9; }
      .ExScheme-Blue-2    { color:#3daefd; }
      .ExScheme-Blue-3    { color:#2b3c4d; }
      .ExScheme-Yellow-1  { color:#faffa5; }
      .ExScheme-Yellow-2  { color:#cac726; }
      .ExScheme-Yellow-3  { color:#4b4d2b; }
      .ExScheme-Orange-1  { color:#ffdaa5; }
      .ExScheme-Orange-2  { color:#ff9701; }
      .ExScheme-Orange-3  { color:#4d372b; }
      .ExScheme-Brown-1   { color:#e9d6bb; }
      .ExScheme-Brown-2   { color:#997657; }
      .ExScheme-Brown-3   { color:#433a35; }
      .ExScheme-Purple-1  { color:#e2abf9; }
      .ExScheme-Purple-2  { color:#b401ff; }
      .ExScheme-Purple-3  { color:#432b4d; }
      .ExScheme-Cyan-1    { color:#b2f2e6; }
      .ExScheme-Cyan-2    { color:#31bfa6; }
      .ExScheme-Cyan-3    { color:#2b4d47; }
      .ExScheme-Magenta-1 { color:#f8a6d8; }
      .ExScheme-Magenta-2 { color:#f00091; }
      .ExScheme-Magenta-3 { color:#770048; }
    </style>
<linearGradient id="uKo">
<stop offset="0"/>
<stop offset="1" stop-opacity="0"/>
</linearGradient>
<linearGradient id="uKp">
<stop offset="0" stop-color="#fff"/>
<stop offset="1" stop-color="#fff" stop-opacity="0"/>
</linearGradient>
<style id="uKq" type="text/css">
        .force-display-for-editing { display: inline !important; }
    </style><style class="remove-if__show-crease" type="text/css">
        .enable-if__show-crease { display: none; }
    </style><style class="remove-if__color-sync-mimes-places" type="text/css">
        .enable-if__color-sync-mimes-places { display: none; }
    </style><radialGradient cx=".5" cy="0" id="uKr" r="1" xlink:href="#uKp"/><linearGradient id="uKs" xlink:href="#uKo" y1="1" y2=".5"/><style class="ColorScheme-Background" fill="currentColor" opacity=".6" type="text/css">
   .ColorScheme-Text           { color:#eff0f1; }
      .ColorScheme-Background     { color:#31363b; }
      .ColorScheme-Highlight      { color:#3daefd; }
      .ColorScheme-ViewBackground { color:#fcfcfc; }
      .ColorScheme-PositiveText   { color:#27ae60; }
      .ColorScheme-NeutralText    { color:#f67400; }
      .ColorScheme-NegativeText   { color:#da4453; }
  </style><path d="m 20,16 c -3.3,0 -6,2.7 -6,6 v 14 c -3.3,0 -6,2.7 -6,6 v 64 c 0,3.3 2.7,6 6,6 h 100 c 3.3,0 6,-2.7 6,-6 V 52 42 38 c 0,-3.3 -2.7,-6 -6,-6 v -6 c 0,-3.3 -2.7,-6 -6,-6 H 56 c -8,0 -8,-4 -14,-4 z" id="uKt"></path><path d="m 20,16 c -3.3,0 -6,2.7 -6,6 v 14 h 26 c 8,0 8,-4 14,-4 h 60 v -6 c 0,-3.3 -2.7,-6 -6,-6 H 56 c -8,0 -8,-4 -14,-4 z" id="uKu"></path></defs>
<g id="content" transform="translate(0,0)"><use class="sync-color enable-if__color-sync-mimes-places force-display-for-editing ColorScheme-ActiveText" fill="currentColor" href="#uKt"></use><use class="primary-color remove-if__color-sync-mimes-places ColorScheme-ActiveText" fill="#f89406" href="#uKt"></use><use class="ColorScheme-Contrast" fill="currentColor" href="#uKt" opacity=".1"></use><g id="decal" transform="translate(32,42)"><path class="ColorScheme-Background" d="m 16,8 v 8 a 32,32 0 0 1 32,32 h 8 A 40,40 0 0 0 16,8 Z m 0,16 v 8 a 16,16 0 0 1 16,16 h 8 A 24,24 0 0 0 16,24 Z m 0,16 a 8,8 0 0 0 -8,8 8,8 0 0 0 8,8 8,8 0 0 0 8,-8 8,8 0 0 0 -8,-8 z" fill="currentColor" opacity=".6" stop-color="#000000"/><path class="ColorScheme-Background" d="M 16 8 L 16 16 A 32 32 0 0 1 48 48 L 56 48 A 40 40 0 0 0 16 8 z M 16.5 8.55 C 37.9 8.8 55.2 26.1 55.45 47.5 L 48.45 47.5 C 48.2 29.96 34.04 15.8 16.5 15.55 L 16.5 8.55 z M 16 24 L 16 32 A 16 16 0 0 1 32 48 L 40 48 A 24 24 0 0 0 16 24 z M 16.5 24.55 C 29.1 24.8 39.2 34.9 39.45 47.5 L 32.45 47.5 C 32.2 38.9 25.2 31.8 16.5 31.55 L 16.5 24.55 z M 16 40 A 8 8 0 0 0 8 48 A 8 8 0 0 0 16 56 A 8 8 0 0 0 24 48 A 8 8 0 0 0 16 40 z M 16 40.5 C 20.15 40.5 23.5 43.85 23.5 48 C 23.5 52.15 20.15 55.5 16 55.5 C 11.85 55.5 8.5 52.15 8.5 48 C 8.5 43.85 11.85 40.5 16 40.5 z " fill="currentColor" opacity=".6"/></g><use href="#uKu" opacity=".4"></use><use fill="url(#uKs)" href="#uKu" opacity=".2"></use><path d="m 54,32 c -6,0 -6,4 -14,4 H 14 c -3.3,0 -6,2.7 -6,6 v 64 c 0,3.3 2.7,6 6,6 h 100 c 3.3,0 6,-2.7 6,-6 V 52 42 38 c 0,-3.3 -2.7,-6 -6,-6 z" fill="url(#uKr)" opacity=".2"/><path class="ColorScheme-Contrast" d="m 8,105 v 1 c 0,3.3 2.7,6 6,6 h 100 c 3.3,0 6,-2.7 6,-6 v -1 c 0,3.3 -2.7,6 -6,6 H 14 c -3.3,0 -6,-2.7 -6,-6 z" fill="currentColor" opacity=".1"/><path class="ColorScheme-Contrast" d="m 8,105.5 v 0.5 c 0,3.3 2.7,6 6,6 h 100 c 3.3,0 6,-2.7 6,-6 v -0.5 c 0,3.3 -2.7,6 -6,6 H 14 c -3.3,0 -6,-2.7 -6,-6 z" fill="currentColor" opacity=".2"/><path d="m 54,32 c -6,0 -6,4 -14,4 H 14 c -3.3,0 -6,2.7 -6,6 v 1 c 0,-3.3 2.7,-6 6,-6 h 26 c 8,0 8,-4 14,-4 h 60 c 3.3,0 6,2.7 6,6 v -1 c 0,-3.3 -2.7,-6 -6,-6 z" fill="#fff" opacity=".1"/><path d="m 54,32 c -6,0 -6,4 -14,4 H 14 c -3.3,0 -6,2.7 -6,6 v 0.5 c 0,-3.3 2.7,-6 6,-6 h 26 c 8,0 8,-4 14,-4 h 60 c 3.3,0 6,2.7 6,6 V 38 c 0,-3.3 -2.7,-6 -6,-6 z" fill="#fff" opacity=".2"/><path d="m 54,31 c -6,0 -6,4 -14,4 H 14 v 1 h 26 c 8,0 8,-4 14,-4 h 60 v -1 z" opacity=".1"/><path d="m 54,31.5 c -6,0 -6,4 -14,4 H 14 V 36 h 26 c 8,0 8,-4 14,-4 h 60 v -0.5 z" opacity=".2"/></g>
</svg>