<svg height="128" version="1.1" width="128" xmlns="http://www.w3.org/2000/svg" xmlns:svg="http://www.w3.org/2000/svg" xmlns:xlink="http://www.w3.org/1999/xlink">
<defs id="primary-definitions">
<style id="current-color-scheme" type="text/css">
      .ColorScheme-Text           { color:#fff; }
      .ColorScheme-Background     { color:#111; }
      .ColorScheme-Highlight      { color:#3daefd; }
      .ColorScheme-ViewBackground { color:#000; }
      .ColorScheme-PositiveText   { color:#27ae60; }
      .ColorScheme-NeutralText    { color:#f67400; }
      .ColorScheme-NegativeText   { color:#da4453; }
    </style>
<style id="extended-color-scheme" type="text/css">
      .ExScheme-Black     { color:#3e3e3e; }
      .ExScheme-White     { color:#fcfcfc; }
      .ExScheme-Grey-1    { color:#cfd5d5; }
      .ExScheme-Grey-2    { color:#909c9c; }
      .ExScheme-Grey-3    { color:#536161; }
      .ExScheme-Red-1     { color:#ffafa5; }
      .ExScheme-Red-2     { color:#bf4231; }
      .ExScheme-Red-3     { color:#4d2f2b; }
      .ExScheme-Green-1   { color:#abf9c7; }
      .ExScheme-Green-2   { color:#3bb566; }
      .ExScheme-Green-3   { color:#377d50; }
      .ExScheme-Blue-1    { color:#abdaf9; }
      .ExScheme-Blue-2    { color:#3daefd; }
      .ExScheme-Blue-3    { color:#2b3c4d; }
      .ExScheme-Yellow-1  { color:#faffa5; }
      .ExScheme-Yellow-2  { color:#cac726; }
      .ExScheme-Yellow-3  { color:#4b4d2b; }
      .ExScheme-Orange-1  { color:#ffdaa5; }
      .ExScheme-Orange-2  { color:#ff9701; }
      .ExScheme-Orange-3  { color:#4d372b; }
      .ExScheme-Brown-1   { color:#e9d6bb; }
      .ExScheme-Brown-2   { color:#997657; }
      .ExScheme-Brown-3   { color:#433a35; }
      .ExScheme-Purple-1  { color:#e2abf9; }
      .ExScheme-Purple-2  { color:#b401ff; }
      .ExScheme-Purple-3  { color:#432b4d; }
      .ExScheme-Cyan-1    { color:#b2f2e6; }
      .ExScheme-Cyan-2    { color:#31bfa6; }
      .ExScheme-Cyan-3    { color:#2b4d47; }
      .ExScheme-Magenta-1 { color:#f8a6d8; }
      .ExScheme-Magenta-2 { color:#f00091; }
      .ExScheme-Magenta-3 { color:#770048; }
    </style>
<linearGradient id="ubE">
<stop offset="0"/>
<stop offset="1" stop-opacity="0"/>
</linearGradient>
<linearGradient id="ubF">
<stop offset="0" stop-color="#fff"/>
<stop offset="1" stop-color="#fff" stop-opacity="0"/>
</linearGradient>
<style class="toggle-enable-crease" type="text/css">
        .folder-crease { display: none; }
    </style><style class="toggle-manilla-folders" type="text/css">
        .folder-manilla { display: none; }
    </style><radialGradient cx=".5" cy="0" id="ubG" r="1" xlink:href="#ubF"/><linearGradient id="ubH" xlink:href="#ubE" y1="1" y2=".5"/><path d="m 20,16 c -3.3,0 -6,2.7 -6,6 v 14 c -3.3,0 -6,2.7 -6,6 v 64 c 0,3.3 2.7,6 6,6 h 100 c 3.3,0 6,-2.7 6,-6 V 52 42 38 c 0,-3.3 -2.7,-6 -6,-6 v -6 c 0,-3.3 -2.7,-6 -6,-6 H 56 c -8,0 -8,-4 -14,-4 z" id="ubI"></path><path d="m 20,16 c -3.3,0 -6,2.7 -6,6 v 14 h 26 c 8,0 8,-4 14,-4 h 60 v -6 c 0,-3.3 -2.7,-6 -6,-6 H 56 c -8,0 -8,-4 -14,-4 z" id="ubJ"></path></defs>
<g id="content" transform="translate(0,0)"><use class="folder-manilla ExScheme-Brown-1" fill="currentColor" href="#ubI"></use><use class="toggle-manilla-folders ColorScheme-Highlight" fill="currentColor" href="#ubI" id="primary-color"></use><use class="ColorScheme-Text" fill="currentColor" href="#ubI" opacity=".1"></use><g id="emblem" transform="translate(32,42)"><path class="ColorScheme-Background" d="M 32 6 C 29.16 6 29.8 8 27.1 8.86 C 24.37 9.74 23.7 7.77 21.4 9.44 C 19.1 11.1 20.8 12.34 19.1 14.64 C 17.45 16.94 15.76 15.73 14.9 18.44 C 14 21.14 16.1 21.16 16.1 24 C 16.1 26.84 14 26.86 14.9 29.56 C 15.76 32.27 17.45 31.06 19.1 33.36 C 20.8 35.66 19.1 36.9 21.4 38.56 C 23.7 40.23 24.37 38.26 27.1 39.14 C 29.8 40 29.16 42 32 42 C 34.84 42 34.2 40 36.9 39.14 C 39.63 38.26 40.3 40.23 42.6 38.56 C 44.9 36.9 43.2 35.66 44.9 33.36 C 46.55 31.06 48.24 32.27 49.1 29.56 C 50 26.86 47.9 26.84 47.9 24 C 47.9 21.16 50 21.14 49.1 18.44 C 48.24 15.73 46.55 16.94 44.9 14.64 C 43.2 12.34 44.9 11.1 42.6 9.44 C 40.3 7.77 39.63 9.74 36.9 8.86 C 34.2 8 34.84 6 32 6 z M 32 10 A 14 14 0 0 1 46 24 A 14 14 0 0 1 32 38 A 14 14 0 0 1 18 24 A 14 14 0 0 1 32 10 z M 32 11 A 13 13 0 0 0 19 24 A 13 13 0 0 0 32 37 A 13 13 0 0 0 45 24 A 13 13 0 0 0 32 11 z M 25.73 39.9 C 25.24 39.9 24.85 40 24.3 40.13 C 24.2 40.15 24.1 40.17 24 40.2 L 24 60 L 32 56 L 40 60 L 39.94 40.17 C 39.85 40.16 39.76 40.14 39.7 40.13 C 38.83 39.94 38.35 39.73 37.23 40.1 C 36.1 40.46 35.84 40.9 35.26 41.56 C 34.7 42.2 33.65 43 32 43 C 30.35 43 29.3 42.2 28.74 41.56 C 28.16 40.9 27.9 40.46 26.77 40.1 C 26.35 39.96 26 39.9 25.73 39.9 z " fill="currentColor" opacity=".6"/><path class="ColorScheme-Background" d="M 32 6 C 29.16 6 29.8 8 27.1 8.86 C 24.37 9.74 23.7 7.77 21.4 9.44 C 19.1 11.1 20.8 12.34 19.1 14.64 C 17.45 16.94 15.76 15.73 14.9 18.44 C 14 21.14 16.1 21.16 16.1 24 C 16.1 26.84 14 26.86 14.9 29.56 C 15.76 32.27 17.45 31.06 19.1 33.36 C 20.8 35.66 19.1 36.9 21.4 38.56 C 23.7 40.23 24.37 38.26 27.1 39.14 C 29.8 40 29.16 42 32 42 C 34.84 42 34.2 40 36.9 39.14 C 39.63 38.26 40.3 40.23 42.6 38.56 C 44.9 36.9 43.2 35.66 44.9 33.36 C 46.55 31.06 48.24 32.27 49.1 29.56 C 50 26.86 47.9 26.84 47.9 24 C 47.9 21.16 50 21.14 49.1 18.44 C 48.24 15.73 46.55 16.94 44.9 14.64 C 43.2 12.34 44.9 11.1 42.6 9.44 C 40.3 7.77 39.63 9.74 36.9 8.86 C 34.2 8 34.84 6 32 6 z M 32 6.5 C 33.3 6.5 33.63 6.85 34.14 7.43 C 34.65 8 35.4 8.85 36.77 9.33 C 38.23 9.8 39.26 9.5 40 9.34 C 40.76 9.17 41.23 9.07 42.3 9.84 C 43.34 10.6 43.4 11.1 43.47 11.85 C 43.54 12.6 43.57 13.7 44.5 14.94 C 45.4 16.2 46.4 16.54 47.1 16.85 C 47.8 17.16 48.24 17.35 48.64 18.6 C 49.05 19.83 48.8 20.25 48.4 20.9 C 48.03 21.6 47.4 22.46 47.4 24 C 47.4 25.54 48.03 26.4 48.4 27.1 C 48.8 27.75 49.05 28.17 48.64 29.4 C 48.24 30.65 47.8 30.84 47.1 31.15 C 46.4 31.46 45.4 31.8 44.5 33.06 C 43.57 34.3 43.54 35.4 43.47 36.15 C 43.4 36.9 43.34 37.4 42.3 38.16 C 41.23 38.93 40.76 38.83 40 38.66 C 39.26 38.5 38.23 38.2 36.77 38.67 C 35.4 39.15 34.65 40 34.14 40.57 C 33.63 41.15 33.3 41.5 32 41.5 C 30.7 41.5 30.37 41.15 29.86 40.57 C 29.35 40 28.7 39.15 27.23 38.67 C 25.77 38.2 24.74 38.5 24 38.66 C 23.24 38.83 22.77 38.93 21.7 38.16 C 20.66 37.4 20.6 36.9 20.53 36.15 C 20.46 35.4 20.43 34.3 19.5 33.06 C 18.6 31.8 17.6 31.46 17 31.15 C 16.2 30.84 15.76 30.65 15.36 29.4 C 14.95 28.17 15.2 27.75 15.6 27.1 C 15.97 26.4 16.6 25.54 16.6 24 C 16.6 22.46 15.97 21.6 15.6 20.9 C 15.2 20.25 14.95 19.83 15.36 18.6 C 15.76 17.35 16.2 17.16 17 16.85 C 17.6 16.54 18.6 16.2 19.5 14.94 C 20.43 13.7 20.46 12.6 20.53 11.85 C 20.6 11.1 20.66 10.6 21.7 9.84 C 22.77 9.07 23.24 9.17 24 9.34 C 24.74 9.5 25.77 9.8 27.23 9.33 C 28.7 8.85 29.35 8 29.86 7.43 C 30.37 6.85 30.7 6.5 32 6.5 z M 32 9.5 C 24 9.5 17.5 16 17.5 24 C 17.5 32 24 38.5 32 38.5 C 40 38.5 46.5 32 46.5 24 C 46.5 16 40 9.5 32 9.5 z M 32 10 A 14 14 0 0 1 46 24 A 14 14 0 0 1 32 38 A 14 14 0 0 1 18 24 A 14 14 0 0 1 32 10 z M 32 11 A 13 13 0 0 0 19 24 A 13 13 0 0 0 32 37 A 13 13 0 0 0 45 24 A 13 13 0 0 0 32 11 z M 32 11.5 C 38.9 11.5 44.5 17.1 44.5 24 C 44.5 30.9 38.9 36.5 32 36.5 C 25.1 36.5 19.5 30.9 19.5 24 C 19.5 17.1 25.1 11.5 32 11.5 z M 25.73 39.9 C 25.24 39.9 24.85 40 24.3 40.13 C 24.2 40.15 24.1 40.17 24 40.2 L 24 60 L 32 56 L 40 60 L 39.94 40.17 C 39.85 40.16 39.76 40.14 39.7 40.13 C 38.83 39.94 38.35 39.73 37.23 40.1 C 36.1 40.46 35.84 40.9 35.26 41.56 C 34.7 42.2 33.65 43 32 43 C 30.35 43 29.3 42.2 28.74 41.56 C 28.16 40.9 27.9 40.46 26.77 40.1 C 26.35 39.96 26 39.9 25.73 39.9 z M 38.53 40.4 C 38.9 40.4 39.1 40.5 39.44 40.6 L 39.5 59.2 L 32 55.44 L 24.5 59.2 L 24.5 40.6 C 25 40.5 25.34 40.4 25.7 40.4 C 25.96 40.4 26.23 40.44 26.6 40.57 C 27.65 40.9 27.76 41.2 28.37 41.9 C 29 42.6 30.2 43.5 32 43.5 C 33.8 43.5 35 42.6 35.63 41.9 C 36.24 41.2 36.35 40.9 37.4 40.57 C 37.9 40.4 38.2 40.36 38.53 40.4 z " fill="currentColor" opacity=".6"/></g><use href="#ubJ" opacity=".4"></use><use class="toggle-flat-design" fill="url(#ubH)" href="#ubJ" opacity=".2"></use><path class="toggle-flat-design" d="m 54,32 c -6,0 -6,4 -14,4 H 14 c -3.3,0 -6,2.7 -6,6 v 64 c 0,3.3 2.7,6 6,6 h 100 c 3.3,0 6,-2.7 6,-6 V 52 42 38 c 0,-3.3 -2.7,-6 -6,-6 z" fill="url(#ubG)" opacity=".2"/><path class="folder-crease " d="m 8,88 v 4 h 18 c 1.1,0 2,-.9 2,-2 0,-1.1 -.9,-2 -2,-2 z m 94,0 c -1.1,0 -2,.9 -2,2 0,1.1 .9,2 2,2 h 18 v -4 z" opacity=".4"/><path class="ColorScheme-Text" d="m 8,105 v 1 c 0,3.3 2.7,6 6,6 h 100 c 3.3,0 6,-2.7 6,-6 v -1 c 0,3.3 -2.7,6 -6,6 H 14 c -3.3,0 -6,-2.7 -6,-6 z" fill="currentColor" opacity=".1"/><path class="ColorScheme-Text" d="m 8,105.5 v 0.5 c 0,3.3 2.7,6 6,6 h 100 c 3.3,0 6,-2.7 6,-6 v -0.5 c 0,3.3 -2.7,6 -6,6 H 14 c -3.3,0 -6,-2.7 -6,-6 z" fill="currentColor" opacity=".2"/><path d="m 54,32 c -6,0 -6,4 -14,4 H 14 c -3.3,0 -6,2.7 -6,6 v 1 c 0,-3.3 2.7,-6 6,-6 h 26 c 8,0 8,-4 14,-4 h 60 c 3.3,0 6,2.7 6,6 v -1 c 0,-3.3 -2.7,-6 -6,-6 z" fill="#fff" opacity=".1"/><path d="m 54,32 c -6,0 -6,4 -14,4 H 14 c -3.3,0 -6,2.7 -6,6 v 0.5 c 0,-3.3 2.7,-6 6,-6 h 26 c 8,0 8,-4 14,-4 h 60 c 3.3,0 6,2.7 6,6 V 38 c 0,-3.3 -2.7,-6 -6,-6 z" fill="#fff" opacity=".2"/><path d="m 54,31 c -6,0 -6,4 -14,4 H 14 v 1 h 26 c 8,0 8,-4 14,-4 h 60 v -1 z" opacity=".1"/><path d="m 54,31.5 c -6,0 -6,4 -14,4 H 14 V 36 h 26 c 8,0 8,-4 14,-4 h 60 v -0.5 z" opacity=".2"/></g>
</svg>