<svg height="128" version="1.1" width="128" xmlns="http://www.w3.org/2000/svg" xmlns:svg="http://www.w3.org/2000/svg" xmlns:xlink="http://www.w3.org/1999/xlink">
<defs id="primary-definitions">
<style id="current-color-scheme" type="text/css">
      .ColorScheme-Text         { color: #232629; }
      .ColorScheme-Background   { color: #eff0f1; }
      .ColorScheme-Highlight    { color: #7ec9f0; }
      .ColorScheme-PositiveText { color: #27ae60; }
      .ColorScheme-NeutralText  { color: #f67400; }
      .ColorScheme-NegativeText { color: #da4453; }
      .ColorScheme-ActiveText   { color: #3daee9; }
      .ColorScheme-Complement   { color: #ffffff; }
      .ColorScheme-Contrast     { color: #000000; }
    </style>
<style id="extended-color-scheme" type="text/css">
      .ExScheme-Black     { color:#3e3e3e; }
      .ExScheme-White     { color:#fcfcfc; }
      .ExScheme-Grey-1    { color:#cfd5d5; }
      .ExScheme-Grey-2    { color:#909c9c; }
      .ExScheme-Grey-3    { color:#536161; }
      .ExScheme-Red-1     { color:#ffafa5; }
      .ExScheme-Red-2     { color:#bf4231; }
      .ExScheme-Red-3     { color:#4d2f2b; }
      .ExScheme-Green-1   { color:#abf9c7; }
      .ExScheme-Green-2   { color:#3bb566; }
      .ExScheme-Green-3   { color:#377d50; }
      .ExScheme-Blue-1    { color:#abdaf9; }
      .ExScheme-Blue-2    { color:#3daefd; }
      .ExScheme-Blue-3    { color:#2b3c4d; }
      .ExScheme-Yellow-1  { color:#faffa5; }
      .ExScheme-Yellow-2  { color:#cac726; }
      .ExScheme-Yellow-3  { color:#4b4d2b; }
      .ExScheme-Orange-1  { color:#ffdaa5; }
      .ExScheme-Orange-2  { color:#ff9701; }
      .ExScheme-Orange-3  { color:#4d372b; }
      .ExScheme-Brown-1   { color:#e9d6bb; }
      .ExScheme-Brown-2   { color:#997657; }
      .ExScheme-Brown-3   { color:#433a35; }
      .ExScheme-Purple-1  { color:#e2abf9; }
      .ExScheme-Purple-2  { color:#b401ff; }
      .ExScheme-Purple-3  { color:#432b4d; }
      .ExScheme-Cyan-1    { color:#b2f2e6; }
      .ExScheme-Cyan-2    { color:#31bfa6; }
      .ExScheme-Cyan-3    { color:#2b4d47; }
      .ExScheme-Magenta-1 { color:#f8a6d8; }
      .ExScheme-Magenta-2 { color:#f00091; }
      .ExScheme-Magenta-3 { color:#770048; }
    </style>
<linearGradient id="urU">
<stop offset="0"/>
<stop offset="1" stop-opacity="0"/>
</linearGradient>
<linearGradient id="urV">
<stop offset="0" stop-color="#fff"/>
<stop offset="1" stop-color="#fff" stop-opacity="0"/>
</linearGradient>
<style id="urW" type="text/css">
        .force-display-for-editing { display: inline !important; }
    </style><style class="remove-if__show-crease" type="text/css">
        .enable-if__show-crease { display: none; }
    </style><style class="remove-if__color-sync-mimes-places" type="text/css">
        .enable-if__color-sync-mimes-places { display: none; }
    </style><radialGradient cx=".5" cy="0" id="urX" r="1" xlink:href="#urV"/><linearGradient id="urY" xlink:href="#urU" y1="1" y2=".5"/><style class="ColorScheme-Background" fill="currentColor" opacity=".6" type="text/css">
   .ColorScheme-Text           { color:#eff0f1; }
      .ColorScheme-Background     { color:#31363b; }
      .ColorScheme-Highlight      { color:#3daefd; }
      .ColorScheme-ViewBackground { color:#fcfcfc; }
      .ColorScheme-PositiveText   { color:#27ae60; }
      .ColorScheme-NeutralText    { color:#f67400; }
      .ColorScheme-NegativeText   { color:#da4453; }
  </style><path d="m 20,16 c -3.3,0 -6,2.7 -6,6 v 14 c -3.3,0 -6,2.7 -6,6 v 64 c 0,3.3 2.7,6 6,6 h 100 c 3.3,0 6,-2.7 6,-6 V 52 42 38 c 0,-3.3 -2.7,-6 -6,-6 v -6 c 0,-3.3 -2.7,-6 -6,-6 H 56 c -8,0 -8,-4 -14,-4 z" id="urZ"></path><path d="m 20,16 c -3.3,0 -6,2.7 -6,6 v 14 h 26 c 8,0 8,-4 14,-4 h 60 v -6 c 0,-3.3 -2.7,-6 -6,-6 H 56 c -8,0 -8,-4 -14,-4 z" id="us0"></path></defs>
<g id="content" transform="translate(0,0)"><use class="sync-color enable-if__color-sync-mimes-places force-display-for-editing ColorScheme-ActiveText" fill="currentColor" href="#urZ"></use><use class="primary-color remove-if__color-sync-mimes-places ColorScheme-ActiveText" fill="currentColor" href="#urZ"></use><use class="ColorScheme-Contrast" fill="currentColor" href="#urZ" opacity=".1"></use><g id="panorama" transform="translate(8,32)"><path class="ColorScheme-Background" d="M 38 30 C 34 30 22 32 18 36 C 12.2 48.7 8 64 8 74 C 8 76.37 8.04 78.33 8.3 80 L 25.14 80 L 32 74 C 32 74 34 72 36 72 L 76 72 C 78 72 80 74 80 74 L 86.86 80 L 103.7 80 C 103.96 78.33 104 76.37 104 74 C 104 64 99.8 48.7 94 36 C 90 32 78 30 74 30 C 72 30 72 32 72 32 L 70 46 C 70 46 70 48 68 48 L 44 48 C 42 48 42 46 42 46 L 40 32 C 40 32 40 30 38 30 z M 53.84 30 C 49.33 30 44.26 30.1 40.75 30.83 C 41 31.46 41 32 41 32 L 41 31.86 L 43 45.93 L 43 46 C 43 46 43 46.3 43.14 46.55 C 43.3 46.8 43.33 47 44 47 L 68 47 C 68.67 47 68.7 46.8 68.86 46.55 C 69 46.3 69 46 69 46 L 69 45.93 L 71 31.86 L 71 32 C 71 32 71 31.46 71.25 30.83 C 67.27 30 61.63 30 56 30 C 55.25 30 54.53 30 53.84 30 z M 36 34 C 37.1 34 38 34.9 38 36 C 38 37.1 37.1 38 36 38 C 34.9 38 34 37.1 34 36 C 34 34.9 34.9 34 36 34 z M 76 34 C 77.2 34 78 34.9 78 36 C 78 37.1 77.2 38 76 38 C 74.9 38 74 37.1 74 36 C 74 34.9 74.9 34 76 34 z M 84 37 C 85.66 37 87 38.34 87 40 C 87 41.66 85.66 43 84 43 C 82.34 43 81 41.66 81 40 C 81 38.34 82.34 37 84 37 z M 28 38 C 32.4 38 36 41.6 36 46 C 36 50.4 32.4 54 28 54 C 23.6 54 20 50.4 20 46 C 20 41.6 23.6 38 28 38 z M 28 42 C 25.8 42 24 43.8 24 46 C 24 48.2 25.8 50 28 50 C 30.2 50 32 48.2 32 46 C 32 43.8 30.2 42 28 42 z M 78 43 C 79.66 43 81 44.34 81 46 C 81 47.66 79.66 49 78 49 C 76.34 49 75 47.66 75 46 C 75 44.34 76.34 43 78 43 z M 90 43 C 91.66 43 93 44.34 93 46 C 93 47.66 91.66 49 90 49 C 88.34 49 87 47.66 87 46 C 87 44.34 88.34 43 90 43 z M 84 49 C 85.66 49 87 50.34 87 52 C 87 53.66 85.66 55 84 55 C 82.34 55 81 53.66 81 52 C 81 50.34 82.34 49 84 49 z M 68 52 C 72.4 52 76 55.6 76 60 C 76 64.4 72.4 68 68 68 C 63.6 68 60 64.4 60 60 C 60 55.6 63.6 52 68 52 z M 43 53 L 45 53 C 46.1 53 47 53.9 47 55 L 47 57 L 49 57 C 50.1 57 51 57.9 51 59 L 51 61 C 51 62.1 50.1 63 49 63 L 47 63 L 47 65 C 47 66.1 46.1 67 45 67 L 43 67 C 41.9 67 41 66.1 41 65 L 41 63 L 39 63 C 37.9 63 37 62.1 37 61 L 37 59 C 37 57.9 37.9 57 39 57 L 41 57 L 41 55 C 41 53.9 41.9 53 43 53 z M 68 56 C 65.8 56 64 57.8 64 60 C 64 62.2 65.8 64 68 64 C 70.2 64 72 62.2 72 60 C 72 57.8 70.2 56 68 56 z " fill="currentColor" opacity=".6"/><path class="ColorScheme-Background" d="M 43 54 C 42.45 54 42 54.45 42 55 L 42 58 L 39 58 C 38.45 58 38 58.45 38 59 L 38 61 C 38 61.55 38.45 62 39 62 L 42 62 L 42 65 C 42 65.55 42.45 66 43 66 L 45 66 C 45.55 66 46 65.55 46 65 L 46 62 L 49 62 C 49.55 62 50 61.55 50 61 L 50 59 C 50 58.45 49.55 58 49 58 L 46 58 L 46 55 C 46 54.45 45.55 54 45 54 L 43 54 z " fill="currentColor" opacity=".6" stop-color="#000000"/><path class="ColorScheme-Background" d="M 38 30 C 34 30 22 32 18 36 C 12.2 48.7 8 64 8 74 C 8 76.37 8.04 78.33 8.3 80 L 25.14 80 L 32 74 C 32 74 34 72 36 72 L 76 72 C 78 72 80 74 80 74 L 86.86 80 L 103.7 80 C 103.96 78.33 104 76.37 104 74 C 104 64 99.8 48.7 94 36 C 90 32 78 30 74 30 C 72 30 72 32 72 32 L 70 46 C 70 46 70 48 68 48 L 44 48 C 42 48 42 46 42 46 L 40 32 C 40 32 40 30 38 30 z M 53.84 30 C 49.33 30 44.26 30.1 40.75 30.83 C 41 31.46 41 32 41 32 L 41 31.86 L 43 45.93 L 43 46 C 43 46 43 46.3 43.14 46.55 C 43.3 46.8 43.33 47 44 47 L 68 47 C 68.67 47 68.7 46.8 68.86 46.55 C 69 46.3 69 46 69 46 L 69 45.93 L 71 31.86 L 71 32 C 71 32 71 31.46 71.25 30.83 C 67.27 30 61.63 30 56 30 C 55.25 30 54.53 30 53.84 30 z M 38 30.5 C 38.83 30.5 39.1 30.84 39.4 31.2 C 39.5 31.6 39.5 32 39.5 32 L 39.5 32.04 L 41.5 46.07 C 41.5 46.17 41.5 46.66 41.8 47.2 C 42.1 47.84 42.83 48.5 44 48.5 L 68 48.5 C 69.17 48.5 69.9 47.84 70.2 47.2 C 70.5 46.66 70.5 46.17 70.5 46.07 L 72.5 32.04 L 72.5 32 C 72.5 32 72.5 31.6 72.7 31.2 C 72.9 30.84 73.17 30.5 74 30.5 C 75.9 30.5 79.9 31 83.9 32 C 87.8 32.97 91.7 34.5 93.6 36.3 C 99.3 48.95 103.5 64.17 103.5 74 C 103.5 76.2 103.43 77.95 103.24 79.5 L 87.04 79.5 L 80.33 73.6 L 80.35 73.65 C 80.35 73.65 79.8 73.1 79.03 72.6 C 78.23 72.06 77.17 71.5 76 71.5 L 36 71.5 C 34.83 71.5 33.77 72.06 32.97 72.6 C 32.2 73.1 31.65 73.65 31.65 73.65 L 31.67 73.6 L 24.96 79.5 L 8.76 79.5 C 8.57 77.95 8.5 76.2 8.5 74 C 8.5 64.17 12.7 48.95 18.4 36.3 C 20.3 34.5 24.2 32.97 28.1 32 C 32.1 31 36.1 30.5 38 30.5 z M 53.84 30.5 C 54.53 30.5 55.25 30.5 56 30.5 C 61.43 30.5 66.8 30.54 70.65 31.27 C 70.6 31.47 70.55 31.7 70.54 31.8 L 70.5 31.8 L 70.5 31.8 L 68.5 45.9 L 68.5 46 C 68.5 46 68.5 46.2 68.4 46.33 C 68.33 46.5 68.33 46.47 68.34 46.46 C 68.36 46.45 68.3 46.5 68 46.5 L 44 46.5 C 43.7 46.5 43.64 46.45 43.66 46.46 C 43.67 46.47 43.67 46.5 43.6 46.33 C 43.5 46.2 43.5 46 43.5 46 L 43.5 45.9 L 41.5 31.8 L 41.5 31.8 L 41.46 31.8 C 41.45 31.7 41.4 31.47 41.35 31.27 C 44.76 30.64 49.5 30.5 53.84 30.5 z M 36 33.5 C 34.63 33.5 33.5 34.63 33.5 36 C 33.5 37.37 34.63 38.5 36 38.5 C 37.37 38.5 38.5 37.37 38.5 36 C 38.5 34.63 37.37 33.5 36 33.5 z M 76 33.5 C 74.63 33.5 73.5 34.63 73.5 36 C 73.5 37.37 74.63 38.5 76 38.5 C 77.37 38.5 78.5 37.37 78.5 36 C 78.5 34.63 77.37 33.5 76 33.5 z M 36 34 C 37.1 34 38 34.9 38 36 C 38 37.1 37.1 38 36 38 C 34.9 38 34 37.1 34 36 C 34 34.9 34.9 34 36 34 z M 76 34 C 77.2 34 78 34.9 78 36 C 78 37.1 77.2 38 76 38 C 74.9 38 74 37.1 74 36 C 74 34.9 74.9 34 76 34 z M 84 36.5 C 82.07 36.5 80.5 38.07 80.5 40 C 80.5 41.93 82.07 43.5 84 43.5 C 85.93 43.5 87.5 41.93 87.5 40 C 87.5 38.07 85.93 36.5 84 36.5 z M 84 37 C 85.66 37 87 38.34 87 40 C 87 41.66 85.66 43 84 43 C 82.34 43 81 41.66 81 40 C 81 38.34 82.34 37 84 37 z M 28 37.5 C 23.3 37.5 19.5 41.3 19.5 46 C 19.5 50.7 23.3 54.5 28 54.5 C 32.7 54.5 36.5 50.7 36.5 46 C 36.5 41.3 32.7 37.5 28 37.5 z M 28 38 C 32.4 38 36 41.6 36 46 C 36 50.4 32.4 54 28 54 C 23.6 54 20 50.4 20 46 C 20 41.6 23.6 38 28 38 z M 28 42 C 25.8 42 24 43.8 24 46 C 24 48.2 25.8 50 28 50 C 30.2 50 32 48.2 32 46 C 32 43.8 30.2 42 28 42 z M 28 42.5 C 29.94 42.5 31.5 44.06 31.5 46 C 31.5 47.94 29.94 49.5 28 49.5 C 26.06 49.5 24.5 47.94 24.5 46 C 24.5 44.06 26.06 42.5 28 42.5 z M 78 42.5 C 76.07 42.5 74.5 44.07 74.5 46 C 74.5 47.93 76.07 49.5 78 49.5 C 79.93 49.5 81.5 47.93 81.5 46 C 81.5 44.07 79.93 42.5 78 42.5 z M 90 42.5 C 88.07 42.5 86.5 44.07 86.5 46 C 86.5 47.93 88.07 49.5 90 49.5 C 91.93 49.5 93.5 47.93 93.5 46 C 93.5 44.07 91.93 42.5 90 42.5 z M 78 43 C 79.66 43 81 44.34 81 46 C 81 47.66 79.66 49 78 49 C 76.34 49 75 47.66 75 46 C 75 44.34 76.34 43 78 43 z M 90 43 C 91.66 43 93 44.34 93 46 C 93 47.66 91.66 49 90 49 C 88.34 49 87 47.66 87 46 C 87 44.34 88.34 43 90 43 z M 84 48.5 C 82.07 48.5 80.5 50.07 80.5 52 C 80.5 53.93 82.07 55.5 84 55.5 C 85.93 55.5 87.5 53.93 87.5 52 C 87.5 50.07 85.93 48.5 84 48.5 z M 84 49 C 85.66 49 87 50.34 87 52 C 87 53.66 85.66 55 84 55 C 82.34 55 81 53.66 81 52 C 81 50.34 82.34 49 84 49 z M 68 51.5 C 63.3 51.5 59.5 55.3 59.5 60 C 59.5 64.7 63.3 68.5 68 68.5 C 72.7 68.5 76.5 64.7 76.5 60 C 76.5 55.3 72.7 51.5 68 51.5 z M 68 52 C 72.4 52 76 55.6 76 60 C 76 64.4 72.4 68 68 68 C 63.6 68 60 64.4 60 60 C 60 55.6 63.6 52 68 52 z M 43 52.5 C 41.6 52.5 40.5 53.6 40.5 55 L 40.5 56.5 L 39 56.5 C 37.6 56.5 36.5 57.6 36.5 59 L 36.5 61 C 36.5 62.4 37.6 63.5 39 63.5 L 40.5 63.5 L 40.5 65 C 40.5 66.4 41.6 67.5 43 67.5 L 45 67.5 C 46.4 67.5 47.5 66.4 47.5 65 L 47.5 63.5 L 49 63.5 C 50.4 63.5 51.5 62.4 51.5 61 L 51.5 59 C 51.5 57.6 50.4 56.5 49 56.5 L 47.5 56.5 L 47.5 55 C 47.5 53.6 46.4 52.5 45 52.5 L 43 52.5 z M 43 53 L 45 53 C 46.1 53 47 53.9 47 55 L 47 57 L 49 57 C 50.1 57 51 57.9 51 59 L 51 61 C 51 62.1 50.1 63 49 63 L 47 63 L 47 65 C 47 66.1 46.1 67 45 67 L 43 67 C 41.9 67 41 66.1 41 65 L 41 63 L 39 63 C 37.9 63 37 62.1 37 61 L 37 59 C 37 57.9 37.9 57 39 57 L 41 57 L 41 55 C 41 53.9 41.9 53 43 53 z M 68 56 C 65.8 56 64 57.8 64 60 C 64 62.2 65.8 64 68 64 C 70.2 64 72 62.2 72 60 C 72 57.8 70.2 56 68 56 z M 68 56.5 C 69.94 56.5 71.5 58.06 71.5 60 C 71.5 61.94 69.94 63.5 68 63.5 C 66.06 63.5 64.5 61.94 64.5 60 C 64.5 58.06 66.06 56.5 68 56.5 z " fill="currentColor" opacity=".6"/></g><use href="#us0" opacity=".4"></use><use fill="url(#urY)" href="#us0" opacity=".2"></use><path d="m 54,32 c -6,0 -6,4 -14,4 H 14 c -3.3,0 -6,2.7 -6,6 v 64 c 0,3.3 2.7,6 6,6 h 100 c 3.3,0 6,-2.7 6,-6 V 52 42 38 c 0,-3.3 -2.7,-6 -6,-6 z" fill="url(#urX)" opacity=".2"/><path class="ColorScheme-Contrast" d="m 8,105 v 1 c 0,3.3 2.7,6 6,6 h 100 c 3.3,0 6,-2.7 6,-6 v -1 c 0,3.3 -2.7,6 -6,6 H 14 c -3.3,0 -6,-2.7 -6,-6 z" fill="currentColor" opacity=".1"/><path class="ColorScheme-Contrast" d="m 8,105.5 v 0.5 c 0,3.3 2.7,6 6,6 h 100 c 3.3,0 6,-2.7 6,-6 v -0.5 c 0,3.3 -2.7,6 -6,6 H 14 c -3.3,0 -6,-2.7 -6,-6 z" fill="currentColor" opacity=".2"/><path d="m 54,32 c -6,0 -6,4 -14,4 H 14 c -3.3,0 -6,2.7 -6,6 v 1 c 0,-3.3 2.7,-6 6,-6 h 26 c 8,0 8,-4 14,-4 h 60 c 3.3,0 6,2.7 6,6 v -1 c 0,-3.3 -2.7,-6 -6,-6 z" fill="#fff" opacity=".1"/><path d="m 54,32 c -6,0 -6,4 -14,4 H 14 c -3.3,0 -6,2.7 -6,6 v 0.5 c 0,-3.3 2.7,-6 6,-6 h 26 c 8,0 8,-4 14,-4 h 60 c 3.3,0 6,2.7 6,6 V 38 c 0,-3.3 -2.7,-6 -6,-6 z" fill="#fff" opacity=".2"/><path d="m 54,31 c -6,0 -6,4 -14,4 H 14 v 1 h 26 c 8,0 8,-4 14,-4 h 60 v -1 z" opacity=".1"/><path d="m 54,31.5 c -6,0 -6,4 -14,4 H 14 V 36 h 26 c 8,0 8,-4 14,-4 h 60 v -0.5 z" opacity=".2"/></g>
</svg>