<svg height="128" version="1.1" width="128" xmlns="http://www.w3.org/2000/svg" xmlns:svg="http://www.w3.org/2000/svg" xmlns:xlink="http://www.w3.org/1999/xlink">
<defs id="primary-definitions">
<style id="current-color-scheme" type="text/css">
      .ColorScheme-Text           { color:#fff; }
      .ColorScheme-Background     { color:#111; }
      .ColorScheme-Highlight      { color:#3daefd; }
      .ColorScheme-ViewBackground { color:#000; }
      .ColorScheme-PositiveText   { color:#27ae60; }
      .ColorScheme-NeutralText    { color:#f67400; }
      .ColorScheme-NegativeText   { color:#da4453; }
    </style>
<style id="extended-color-scheme" type="text/css">
      .ExScheme-Black     { color:#3e3e3e; }
      .ExScheme-White     { color:#fcfcfc; }
      .ExScheme-Grey-1    { color:#cfd5d5; }
      .ExScheme-Grey-2    { color:#909c9c; }
      .ExScheme-Grey-3    { color:#536161; }
      .ExScheme-Red-1     { color:#ffafa5; }
      .ExScheme-Red-2     { color:#bf4231; }
      .ExScheme-Red-3     { color:#4d2f2b; }
      .ExScheme-Green-1   { color:#abf9c7; }
      .ExScheme-Green-2   { color:#3bb566; }
      .ExScheme-Green-3   { color:#377d50; }
      .ExScheme-Blue-1    { color:#abdaf9; }
      .ExScheme-Blue-2    { color:#3daefd; }
      .ExScheme-Blue-3    { color:#2b3c4d; }
      .ExScheme-Yellow-1  { color:#faffa5; }
      .ExScheme-Yellow-2  { color:#cac726; }
      .ExScheme-Yellow-3  { color:#4b4d2b; }
      .ExScheme-Orange-1  { color:#ffdaa5; }
      .ExScheme-Orange-2  { color:#ff9701; }
      .ExScheme-Orange-3  { color:#4d372b; }
      .ExScheme-Brown-1   { color:#e9d6bb; }
      .ExScheme-Brown-2   { color:#997657; }
      .ExScheme-Brown-3   { color:#433a35; }
      .ExScheme-Purple-1  { color:#e2abf9; }
      .ExScheme-Purple-2  { color:#b401ff; }
      .ExScheme-Purple-3  { color:#432b4d; }
      .ExScheme-Cyan-1    { color:#b2f2e6; }
      .ExScheme-Cyan-2    { color:#31bfa6; }
      .ExScheme-Cyan-3    { color:#2b4d47; }
      .ExScheme-Magenta-1 { color:#f8a6d8; }
      .ExScheme-Magenta-2 { color:#f00091; }
      .ExScheme-Magenta-3 { color:#770048; }
    </style>
<linearGradient id="upE">
<stop offset="0"/>
<stop offset="1" stop-opacity="0"/>
</linearGradient>
<linearGradient id="upF">
<stop offset="0" stop-color="#fff"/>
<stop offset="1" stop-color="#fff" stop-opacity="0"/>
</linearGradient>
<style class="toggle-enable-crease" type="text/css">
        .folder-crease { display: none; }
    </style><style class="toggle-manilla-folders" type="text/css">
        .folder-manilla { display: none; }
    </style><radialGradient cx=".5" cy="0" id="upG" r="1" xlink:href="#upF"/><linearGradient id="upH" xlink:href="#upE" y1="1" y2=".5"/><path d="m 20,16 c -3.3,0 -6,2.7 -6,6 v 14 c -3.3,0 -6,2.7 -6,6 v 64 c 0,3.3 2.7,6 6,6 h 100 c 3.3,0 6,-2.7 6,-6 V 52 42 38 c 0,-3.3 -2.7,-6 -6,-6 v -6 c 0,-3.3 -2.7,-6 -6,-6 H 56 c -8,0 -8,-4 -14,-4 z" id="upI"></path><path d="m 20,16 c -3.3,0 -6,2.7 -6,6 v 14 h 26 c 8,0 8,-4 14,-4 h 60 v -6 c 0,-3.3 -2.7,-6 -6,-6 H 56 c -8,0 -8,-4 -14,-4 z" id="upJ"></path></defs>
<g id="content" transform="translate(0,0)"><use class="folder-manilla ExScheme-Brown-1" fill="currentColor" href="#upI"></use><use class="toggle-manilla-folders ColorScheme-NegativeText" fill="currentColor" href="#upI" id="primary-color"></use><use class="ColorScheme-Text" fill="currentColor" href="#upI" opacity=".1"></use><g id="emblem" transform="translate(32,42)"><path class="ColorScheme-Background" d="m 32,18 c -2.2,0 -4.3,1.8 -4,4 l 2,14 c .15,1.07 .76,2 2,2 1.24,0 1.85,-.93 2,-2 l 2,-14 c .3,-2.2 -1.8,-4 -4,-4 z m 0,24 c -2.2,0 -4,1.8 -4,4 -2.8e-5,2.2 1.8,4 4,4 2.2,0 4,-1.8 4,-4 2.8e-5,-2.2 -1.8,-4 -4,-4 z" fill="currentColor" opacity=".6"/><path class="ColorScheme-Background" d="M 32 7 C 31.3 7 30.63 7.4 30.27 8 L 4.27 53 C 3.5 54.3 4.5 56 6 56 L 58 56 C 59.5 56 60.5 54.3 59.73 53 L 33.73 8 C 33.37 7.4 32.7 7 32 7 z M 32 8 A 1 1 0 0 1 32.87 8.5 L 58.87 53.5 A 1 1 0 0 1 58 55 L 6 55 A 1 1 0 0 1 5.13 53.5 L 31.13 8.5 A 1 1 0 0 1 32 8 z " fill="currentColor" opacity=".6"/><path class="ColorScheme-Background" d="M 32 18 C 29.8 18 27.7 19.8 28 22 L 30 36 C 30.15 37.07 30.76 38 32 38 C 33.24 38 33.85 37.07 34 36 L 36 22 C 36.3 19.8 34.2 18 32 18 z M 32 18.5 C 32.97 18.5 33.93 19 34.6 19.54 C 35.27 20.2 35.64 21 35.5 21.93 L 33.5 35.93 C 33.44 36.4 33.27 36.9 33.03 37.07 C 32.8 37.34 32.5 37.5 32 37.5 C 31.5 37.5 31.2 37.34 30.97 37.07 C 30.73 36.9 30.56 36.4 30.5 35.93 L 28.5 21.93 C 28.36 21 28.73 20.2 29.4 19.54 C 30.07 19 31.03 18.5 32 18.5 z M 32 42 C 29.8 42 28 43.8 28 46 C 28 48.2 29.8 50 32 50 C 34.2 50 36 48.2 36 46 C 36 43.8 34.2 42 32 42 z M 32 42.5 C 33.94 42.5 35.5 44.06 35.5 46 C 35.5 47.94 33.94 49.5 32 49.5 C 30.06 49.5 28.5 47.94 28.5 46 C 28.5 44.06 30.06 42.5 32 42.5 z " fill="currentColor" opacity=".6"/><path class="ColorScheme-Background" d="m 32,7 c -.7,6.05e-4 -1.37,.4 -1.73,1 L 4.27,53 C 3.5,54.3 4.5,56 6,56 h 52 c 1.5,-0 2.5,-1.7 1.73,-3 l -26,-45 C 33.37,7.4 32.7,7 32,7 Z m 0,1 a 1,1 0 0 1 .87,0.5 l 26,45 A 1,1 0 0 1 58,55 H 6 A 1,1 0 0 1 5.13,53.5 L 31.13,8.5 A 1,1 0 0 1 32,8 Z" fill="currentColor" opacity=".6"/></g><use href="#upJ" opacity=".4"></use><use class="toggle-flat-design" fill="url(#upH)" href="#upJ" opacity=".2"></use><path class="toggle-flat-design" d="m 54,32 c -6,0 -6,4 -14,4 H 14 c -3.3,0 -6,2.7 -6,6 v 64 c 0,3.3 2.7,6 6,6 h 100 c 3.3,0 6,-2.7 6,-6 V 52 42 38 c 0,-3.3 -2.7,-6 -6,-6 z" fill="url(#upG)" opacity=".2"/><path class="folder-crease " d="m 8,88 v 4 h 18 c 1.1,0 2,-.9 2,-2 0,-1.1 -.9,-2 -2,-2 z m 94,0 c -1.1,0 -2,.9 -2,2 0,1.1 .9,2 2,2 h 18 v -4 z" opacity=".4"/><path class="ColorScheme-Text" d="m 8,105 v 1 c 0,3.3 2.7,6 6,6 h 100 c 3.3,0 6,-2.7 6,-6 v -1 c 0,3.3 -2.7,6 -6,6 H 14 c -3.3,0 -6,-2.7 -6,-6 z" fill="currentColor" opacity=".1"/><path class="ColorScheme-Text" d="m 8,105.5 v 0.5 c 0,3.3 2.7,6 6,6 h 100 c 3.3,0 6,-2.7 6,-6 v -0.5 c 0,3.3 -2.7,6 -6,6 H 14 c -3.3,0 -6,-2.7 -6,-6 z" fill="currentColor" opacity=".2"/><path d="m 54,32 c -6,0 -6,4 -14,4 H 14 c -3.3,0 -6,2.7 -6,6 v 1 c 0,-3.3 2.7,-6 6,-6 h 26 c 8,0 8,-4 14,-4 h 60 c 3.3,0 6,2.7 6,6 v -1 c 0,-3.3 -2.7,-6 -6,-6 z" fill="#fff" opacity=".1"/><path d="m 54,32 c -6,0 -6,4 -14,4 H 14 c -3.3,0 -6,2.7 -6,6 v 0.5 c 0,-3.3 2.7,-6 6,-6 h 26 c 8,0 8,-4 14,-4 h 60 c 3.3,0 6,2.7 6,6 V 38 c 0,-3.3 -2.7,-6 -6,-6 z" fill="#fff" opacity=".2"/><path d="m 54,31 c -6,0 -6,4 -14,4 H 14 v 1 h 26 c 8,0 8,-4 14,-4 h 60 v -1 z" opacity=".1"/><path d="m 54,31.5 c -6,0 -6,4 -14,4 H 14 V 36 h 26 c 8,0 8,-4 14,-4 h 60 v -0.5 z" opacity=".2"/></g>
</svg>