<svg height="128" version="1.1" width="128" xmlns="http://www.w3.org/2000/svg" xmlns:svg="http://www.w3.org/2000/svg" xmlns:xlink="http://www.w3.org/1999/xlink">
<defs id="primary-definitions">
<style id="current-color-scheme" type="text/css">
      .ColorScheme-Text         { color: #232629; }
      .ColorScheme-Background   { color: #eff0f1; }
      .ColorScheme-Highlight    { color: #7ec9f0; }
      .ColorScheme-PositiveText { color: #27ae60; }
      .ColorScheme-NeutralText  { color: #f67400; }
      .ColorScheme-NegativeText { color: #da4453; }
      .ColorScheme-ActiveText   { color: #3daee9; }
      .ColorScheme-Complement   { color: #ffffff; }
      .ColorScheme-Contrast     { color: #000000; }
    </style>
<style id="extended-color-scheme" type="text/css">
      .ExScheme-Black     { color:#3e3e3e; }
      .ExScheme-White     { color:#fcfcfc; }
      .ExScheme-Grey-1    { color:#cfd5d5; }
      .ExScheme-Grey-2    { color:#909c9c; }
      .ExScheme-Grey-3    { color:#536161; }
      .ExScheme-Red-1     { color:#ffafa5; }
      .ExScheme-Red-2     { color:#bf4231; }
      .ExScheme-Red-3     { color:#4d2f2b; }
      .ExScheme-Green-1   { color:#abf9c7; }
      .ExScheme-Green-2   { color:#3bb566; }
      .ExScheme-Green-3   { color:#377d50; }
      .ExScheme-Blue-1    { color:#abdaf9; }
      .ExScheme-Blue-2    { color:#3daefd; }
      .ExScheme-Blue-3    { color:#2b3c4d; }
      .ExScheme-Yellow-1  { color:#faffa5; }
      .ExScheme-Yellow-2  { color:#cac726; }
      .ExScheme-Yellow-3  { color:#4b4d2b; }
      .ExScheme-Orange-1  { color:#ffdaa5; }
      .ExScheme-Orange-2  { color:#ff9701; }
      .ExScheme-Orange-3  { color:#4d372b; }
      .ExScheme-Brown-1   { color:#e9d6bb; }
      .ExScheme-Brown-2   { color:#997657; }
      .ExScheme-Brown-3   { color:#433a35; }
      .ExScheme-Purple-1  { color:#e2abf9; }
      .ExScheme-Purple-2  { color:#b401ff; }
      .ExScheme-Purple-3  { color:#432b4d; }
      .ExScheme-Cyan-1    { color:#b2f2e6; }
      .ExScheme-Cyan-2    { color:#31bfa6; }
      .ExScheme-Cyan-3    { color:#2b4d47; }
      .ExScheme-Magenta-1 { color:#f8a6d8; }
      .ExScheme-Magenta-2 { color:#f00091; }
      .ExScheme-Magenta-3 { color:#770048; }
    </style>
<linearGradient id="u7Z">
<stop offset="0"/>
<stop offset="1" stop-opacity="0"/>
</linearGradient>
<linearGradient id="u80">
<stop offset="0" stop-color="#fff"/>
<stop offset="1" stop-color="#fff" stop-opacity="0"/>
</linearGradient>
<style id="u81" type="text/css">
        .force-display-for-editing { display: inline !important; }
    </style><style class="remove-if__show-crease" type="text/css">
        .enable-if__show-crease { display: none; }
    </style><style class="remove-if__color-sync-mimes-places" type="text/css">
        .enable-if__color-sync-mimes-places { display: none; }
    </style><radialGradient cx=".5" cy="0" id="u82" r="1" xlink:href="#u80"/><linearGradient id="u83" xlink:href="#u7Z" y1="1" y2=".5"/><style class="ColorScheme-Background" fill="currentColor" opacity=".6" type="text/css">
   .ColorScheme-Text           { color:#eff0f1; }
      .ColorScheme-Background     { color:#31363b; }
      .ColorScheme-Highlight      { color:#3daefd; }
      .ColorScheme-ViewBackground { color:#fcfcfc; }
      .ColorScheme-PositiveText   { color:#27ae60; }
      .ColorScheme-NeutralText    { color:#f67400; }
      .ColorScheme-NegativeText   { color:#da4453; }
  </style><path d="m 20,16 c -3.3,0 -6,2.7 -6,6 v 14 c -3.3,0 -6,2.7 -6,6 v 64 c 0,3.3 2.7,6 6,6 h 100 c 3.3,0 6,-2.7 6,-6 V 52 42 38 c 0,-3.3 -2.7,-6 -6,-6 v -6 c 0,-3.3 -2.7,-6 -6,-6 H 56 c -8,0 -8,-4 -14,-4 z" id="u84"></path><path d="m 20,16 c -3.3,0 -6,2.7 -6,6 v 14 h 26 c 8,0 8,-4 14,-4 h 60 v -6 c 0,-3.3 -2.7,-6 -6,-6 H 56 c -8,0 -8,-4 -14,-4 z" id="u85"></path></defs>
<g id="content" transform="translate(0,0)"><use class="sync-color enable-if__color-sync-mimes-places force-display-for-editing ColorScheme-ActiveText" fill="currentColor" href="#u84"></use><use class="primary-color remove-if__color-sync-mimes-places ColorScheme-ActiveText" fill="currentColor" href="#u84"></use><use class="ColorScheme-Contrast" fill="currentColor" href="#u84" opacity=".1"></use><g id="decal" transform="translate(32,42)"><path class="ColorScheme-Background" d="M 46 8 C 45.47 8 44.94 8.05 44.4 8.14 L 44.1 10.25 C 43.3 10.44 42.56 10.75 41.87 11.16 L 40.15 9.9 C 39.3 10.54 38.54 11.3 37.9 12.15 L 39.16 13.87 C 38.75 14.56 38.44 15.3 38.25 16.1 L 36.14 16.4 C 36.05 16.94 36 17.47 36 18 C 36 18.53 36.05 19.06 36.14 19.6 L 38.25 19.9 C 38.44 20.7 38.75 21.44 39.16 22.13 L 37.9 23.85 C 38.54 24.7 39.3 25.46 40.15 26.1 L 41.87 24.84 C 42.56 25.25 43.3 25.56 44.1 25.75 L 44.4 27.86 C 44.94 27.95 45.47 28 46 28 C 46.53 28 47.06 27.95 47.6 27.86 L 47.9 25.75 C 48.7 25.56 49.44 25.25 50.13 24.84 L 51.85 26.1 C 52.7 25.46 53.46 24.7 54.1 23.85 L 52.84 22.13 C 53.25 21.44 53.56 20.7 53.75 19.9 L 55.86 19.6 C 55.95 19.06 56 18.53 56 18 C 56 17.47 55.96 16.94 55.87 16.4 L 53.77 16.1 C 53.6 15.3 53.26 14.55 52.84 13.85 L 54.1 12.13 C 53.47 11.3 52.7 10.53 51.87 9.9 L 50.15 11.16 C 49.45 10.74 48.7 10.4 47.9 10.23 L 47.6 8.13 C 47.06 8.04 46.53 8 46 8 z M 46 14 C 48.2 14 50 15.8 50 18 C 50 20.2 48.2 22 46 22 C 43.8 22 42 20.2 42 18 C 42 15.8 43.8 14 46 14 z M 29.54 18.2 L 28.5 21.07 A 16 16 0 0 0 27 21 A 16 16 0 0 0 25.7 21.1 L 24.5 18.2 A 19 19 0 0 0 22.13 18.66 L 22.27 21.73 A 16 16 0 0 0 19.6 22.86 L 17.44 20.6 A 19 19 0 0 0 15.44 22 L 16.73 24.75 A 16 16 0 0 0 14.66 26.85 L 11.84 25.63 A 19 19 0 0 0 10.5 27.63 L 12.8 29.7 A 16 16 0 0 0 11.66 32.47 L 8.6 32.4 A 19 19 0 0 0 8.16 34.77 L 11.1 35.84 A 16 16 0 0 0 11 37 A 16 16 0 0 0 11.13 38.9 L 8.25 39.93 A 19 19 0 0 0 8.75 42.3 L 11.9 42.14 A 16 16 0 0 0 13.07 44.8 L 10.84 46.95 A 19 19 0 0 0 12.26 48.93 L 15.05 47.6 A 16 16 0 0 0 17.15 49.56 L 15.9 52.4 A 19 19 0 0 0 18 53.7 L 20.1 51.4 A 16 16 0 0 0 22.7 52.4 L 22.64 55.45 A 19 19 0 0 0 25.1 55.86 L 26.2 52.94 A 16 16 0 0 0 27 53 A 16 16 0 0 0 28.85 52.87 L 30 55.74 A 19 19 0 0 0 32.47 55.2 L 32.33 52.05 A 16 16 0 0 0 34.7 51 L 36.84 53.2 A 19 19 0 0 0 38.95 51.73 L 37.64 48.93 A 16 16 0 0 0 39.4 47.1 L 42.2 48.3 A 19 19 0 0 0 43.6 46.1 L 41.34 44.03 A 16 16 0 0 0 42.3 41.7 L 45.36 41.75 A 19 19 0 0 0 45.84 39.2 L 42.9 38.1 A 16 16 0 0 0 43 37 A 16 16 0 0 0 42.93 35.6 L 45.8 34.46 A 19 19 0 0 0 45.3 31.93 L 42.2 32.07 A 16 16 0 0 0 41.23 29.7 L 43.46 27.5 A 19 19 0 0 0 42.04 25.4 L 39.24 26.7 A 16 16 0 0 0 37.4 24.83 L 38.6 21.97 A 19 19 0 0 0 36.53 20.57 L 34.45 22.84 A 16 16 0 0 0 31.9 21.8 L 31.97 18.67 A 19 19 0 0 0 29.54 18.2 z M 27 25 A 12 12 0 0 1 39 37 A 12 12 0 0 1 27 49 A 12 12 0 0 1 15 37 A 12 12 0 0 1 27 25 z " fill="currentColor" opacity=".6" stop-color="#000000"/><path class="ColorScheme-Background" d="M 27 26 A 11 11 0 0 0 16 37 A 11 11 0 0 0 27 48 A 11 11 0 0 0 38 37 A 11 11 0 0 0 27 26 z M 27 27 A 10 10 0 0 1 37 37 A 10 10 0 0 1 27 47 A 10 10 0 0 1 17 37 A 10 10 0 0 1 27 27 z " fill="currentColor" opacity=".6" stop-color="#000000"/><path class="ColorScheme-Background" d="M 27,26 A 11,11 0 0 0 16,37 11,11 0 0 0 27,48 11,11 0 0 0 38,37 11,11 0 0 0 27,26 Z m 0,1 A 10,10 0 0 1 37,37 10,10 0 0 1 27,47 10,10 0 0 1 17,37 10,10 0 0 1 27,27 Z" fill="currentColor" opacity=".6" stop-color="#000000"/><path class="ColorScheme-Background" d="M 46 8 C 45.47 8 44.94 8.05 44.4 8.14 L 44.1 10.25 C 43.3 10.44 42.56 10.75 41.87 11.16 L 40.15 9.9 C 39.3 10.54 38.54 11.3 37.9 12.15 L 39.16 13.87 C 38.75 14.56 38.44 15.3 38.25 16.1 L 36.14 16.4 C 36.05 16.94 36 17.47 36 18 C 36 18.53 36.05 19.06 36.14 19.6 L 38.25 19.9 C 38.44 20.7 38.75 21.44 39.16 22.13 L 37.9 23.85 C 38.54 24.7 39.3 25.46 40.15 26.1 L 41.87 24.84 C 42.56 25.25 43.3 25.56 44.1 25.75 L 44.4 27.86 C 44.94 27.95 45.47 28 46 28 C 46.53 28 47.06 27.95 47.6 27.86 L 47.9 25.75 C 48.7 25.56 49.44 25.25 50.13 24.84 L 51.85 26.1 C 52.7 25.46 53.46 24.7 54.1 23.85 L 52.84 22.13 C 53.25 21.44 53.56 20.7 53.75 19.9 L 55.86 19.6 C 55.95 19.06 56 18.53 56 18 C 56 17.47 55.96 16.94 55.87 16.4 L 53.77 16.1 C 53.6 15.3 53.26 14.55 52.84 13.85 L 54.1 12.13 C 53.47 11.3 52.7 10.53 51.87 9.9 L 50.15 11.16 C 49.45 10.74 48.7 10.4 47.9 10.23 L 47.6 8.13 C 47.06 8.04 46.53 8 46 8 z M 46 8.5 L 46 8.5 C 46.4 8.5 46.77 8.55 47.14 8.6 L 47.4 10.3 A .5 .5 0 0 0 47.8 10.7 C 48.53 10.9 49.24 11.2 49.9 11.6 A .5 .5 0 0 0 50.44 11.56 L 51.8 10.56 C 52.43 11.03 52.97 11.57 53.44 12.2 L 52.44 13.56 A .5 .5 0 0 0 52.4 14.1 C 52.8 14.76 53.1 15.47 53.3 16.2 A .5 .5 0 0 0 53.7 16.6 L 55.4 16.86 C 55.45 17.23 55.5 17.6 55.5 18 L 55.5 18 C 55.5 18 55.5 18 55.5 18 C 55.5 18.4 55.45 18.77 55.4 19.14 L 53.67 19.4 A .5 .5 0 0 0 53.26 19.8 C 53.1 20.5 52.8 21.23 52.4 21.9 A .5 .5 0 0 0 52.43 22.43 L 53.43 23.8 C 52.96 24.4 52.4 24.96 51.8 25.43 L 50.43 24.43 A .5 .5 0 0 0 49.9 24.4 C 49.23 24.8 48.5 25.1 47.8 25.26 A .5 .5 0 0 0 47.4 25.67 L 47.14 27.4 C 46.77 27.45 46.4 27.5 46 27.5 C 45.6 27.5 45.24 27.45 44.86 27.4 L 44.6 25.67 A .5 .5 0 0 0 44.2 25.26 C 43.5 25.1 42.77 24.8 42.1 24.4 A .5 .5 0 0 0 41.57 24.43 L 40.2 25.43 C 39.6 24.96 39.04 24.4 38.57 23.8 L 39.57 22.43 A .5 .5 0 0 0 39.6 21.9 C 39.2 21.23 38.9 20.5 38.74 19.8 A .5 .5 0 0 0 38.33 19.4 L 36.6 19.14 C 36.55 18.77 36.5 18.4 36.5 18 L 36.5 18 C 36.5 18 36.5 18 36.5 18 C 36.5 17.6 36.55 17.23 36.6 16.86 L 38.33 16.6 A .5 .5 0 0 0 38.74 16.2 C 38.9 15.5 39.2 14.77 39.6 14.1 A .5 .5 0 0 0 39.57 13.57 L 38.57 12.2 C 39.04 11.6 39.6 11.04 40.2 10.57 L 41.57 11.57 A .5 .5 0 0 0 42.1 11.6 C 42.77 11.2 43.5 10.9 44.2 10.74 A .5 .5 0 0 0 44.6 10.33 L 44.86 8.6 C 45.23 8.55 45.6 8.5 46 8.5 z M 46 13.5 C 43.5 13.5 41.5 15.5 41.5 18 C 41.5 20.5 43.5 22.5 46 22.5 C 48.5 22.5 50.5 20.5 50.5 18 C 50.5 15.5 48.5 13.5 46 13.5 z M 46 14 C 48.2 14 50 15.8 50 18 C 50 20.2 48.2 22 46 22 C 43.8 22 42 20.2 42 18 C 42 15.8 43.8 14 46 14 z M 29.54 18.2 L 28.5 21.07 A 16 16 0 0 0 27 21 A 16 16 0 0 0 25.7 21.1 L 24.5 18.2 A 19 19 0 0 0 22.13 18.66 L 22.27 21.73 A 16 16 0 0 0 19.6 22.86 L 17.44 20.6 A 19 19 0 0 0 15.44 22 L 16.73 24.75 A 16 16 0 0 0 14.66 26.85 L 11.84 25.63 A 19 19 0 0 0 10.5 27.63 L 12.8 29.7 A 16 16 0 0 0 11.66 32.47 L 8.6 32.4 A 19 19 0 0 0 8.16 34.77 L 11.1 35.84 A 16 16 0 0 0 11 37 A 16 16 0 0 0 11.13 38.9 L 8.25 39.93 A 19 19 0 0 0 8.75 42.3 L 11.9 42.14 A 16 16 0 0 0 13.07 44.8 L 10.84 46.95 A 19 19 0 0 0 12.26 48.93 L 15.05 47.6 A 16 16 0 0 0 17.15 49.56 L 15.9 52.4 A 19 19 0 0 0 18 53.7 L 20.1 51.4 A 16 16 0 0 0 22.7 52.4 L 22.64 55.45 A 19 19 0 0 0 25.1 55.86 L 26.2 52.94 A 16 16 0 0 0 27 53 A 16 16 0 0 0 28.85 52.87 L 30 55.74 A 19 19 0 0 0 32.47 55.2 L 32.33 52.05 A 16 16 0 0 0 34.7 51 L 36.84 53.2 A 19 19 0 0 0 38.95 51.73 L 37.64 48.93 A 16 16 0 0 0 39.4 47.1 L 42.2 48.3 A 19 19 0 0 0 43.6 46.1 L 41.34 44.03 A 16 16 0 0 0 42.3 41.7 L 45.36 41.75 A 19 19 0 0 0 45.84 39.2 L 42.9 38.1 A 16 16 0 0 0 43 37 A 16 16 0 0 0 42.93 35.6 L 45.8 34.46 A 19 19 0 0 0 45.3 31.93 L 42.2 32.07 A 16 16 0 0 0 41.23 29.7 L 43.46 27.5 A 19 19 0 0 0 42.04 25.4 L 39.24 26.7 A 16 16 0 0 0 37.4 24.83 L 38.6 21.97 A 19 19 0 0 0 36.53 20.57 L 34.45 22.84 A 16 16 0 0 0 31.9 21.8 L 31.97 18.67 A 19 19 0 0 0 29.54 18.2 z M 29.87 18.75 C 30.4 18.83 30.94 18.94 31.47 19.07 L 31.4 21.77 A .5 .5 0 0 0 31.77 22.25 C 32.6 22.53 33.43 22.87 34.2 23.3 A .5 .5 0 0 0 34.8 23.2 L 36.6 21.2 C 37.1 21.5 37.54 21.8 38 22.15 L 36.9 24.63 A .5 .5 0 0 0 37.05 25.2 C 37.7 25.76 38.3 26.37 38.86 27.03 A .5 .5 0 0 0 39.45 27.16 L 41.86 26.03 C 42.2 26.5 42.5 26.97 42.8 27.46 L 40.9 29.33 A .5 .5 0 0 0 40.8 29.9 C 41.16 30.66 41.5 31.43 41.74 32.2 A .5 .5 0 0 0 42.24 32.57 L 44.9 32.45 C 45.05 33 45.16 33.6 45.25 34.15 L 42.75 35.14 A .5 .5 0 0 0 42.44 35.65 C 42.5 36.1 42.5 36.54 42.5 37 C 42.5 37.35 42.46 37.7 42.4 38.07 A .5 .5 0 0 0 42.75 38.6 L 45.3 39.5 C 45.2 40.1 45.1 40.67 44.95 41.24 L 42.3 41.2 A .5 .5 0 0 0 41.8 41.55 C 41.56 42.3 41.26 43.1 40.9 43.8 A .5 .5 0 0 0 41 44.4 L 42.97 46.2 C 42.7 46.7 42.36 47.2 42 47.7 L 39.6 46.6 A .5 .5 0 0 0 39 46.77 C 38.5 47.4 37.9 48 37.3 48.55 A .5 .5 0 0 0 37.2 49.14 L 38.3 51.56 C 37.87 51.9 37.4 52.25 36.9 52.56 L 35.05 50.64 A .5 .5 0 0 0 34.45 50.55 C 33.7 50.95 32.95 51.3 32.16 51.6 A .5 .5 0 0 0 31.83 52.07 L 31.95 54.8 C 31.4 54.94 30.85 55.06 30.3 55.16 L 29.3 52.7 A .5 .5 0 0 0 28.8 52.37 C 28.2 52.45 27.6 52.5 27 52.5 C 26.75 52.5 26.5 52.47 26.23 52.44 A .5 .5 0 0 0 25.7 52.77 L 24.8 55.3 C 24.24 55.23 23.7 55.14 23.15 55.03 L 23.2 52.4 A .5 .5 0 0 0 22.83 51.9 C 21.97 51.67 21.13 51.35 20.3 50.97 A .5 .5 0 0 0 19.73 51.1 L 17.93 53.05 C 17.46 52.8 17 52.5 16.55 52.2 L 17.6 49.76 A .5 .5 0 0 0 17.45 49.16 C 16.7 48.6 16.04 47.97 15.43 47.3 A .5 .5 0 0 0 14.84 47.17 L 12.4 48.3 C 12.1 47.9 11.8 47.46 11.5 47 L 13.4 45.16 A .5 .5 0 0 0 13.5 44.55 C 13.05 43.73 12.66 42.87 12.36 41.97 A .5 .5 0 0 0 11.86 41.64 L 9.15 41.76 C 9 41.26 8.9 40.75 8.8 40.24 L 11.3 39.26 A .5 .5 0 0 0 11.6 38.73 C 11.55 38.16 11.5 37.6 11.5 37 C 11.5 36.63 11.54 36.26 11.6 35.9 A .5 .5 0 0 0 11.25 35.37 L 8.73 34.45 C 8.8 33.94 8.9 33.43 9 32.93 L 11.65 32.97 A .5 .5 0 0 0 12.13 32.6 C 12.4 31.7 12.8 30.8 13.24 29.95 A .5 .5 0 0 0 13.13 29.35 L 11.17 27.55 C 11.44 27.1 11.7 26.67 12.03 26.25 L 14.46 27.3 A .5 .5 0 0 0 15.05 27.17 C 15.65 26.43 16.33 25.75 17.06 25.13 A .5 .5 0 0 0 17.2 24.54 L 16.07 22.15 C 16.5 21.84 16.93 21.55 17.37 21.27 L 19.24 23.2 A .5 .5 0 0 0 19.83 23.3 C 20.66 22.86 21.5 22.5 22.4 22.2 A .5 .5 0 0 0 22.77 21.7 L 22.65 19.07 C 23.17 18.94 23.7 18.83 24.2 18.75 L 25.2 21.3 A .5 .5 0 0 0 25.73 21.6 C 26.16 21.54 26.6 21.5 27 21.5 C 27.5 21.5 27.97 21.53 28.44 21.57 A .5 .5 0 0 0 28.96 21.24 L 29.87 18.75 z M 27 24.5 C 20.1 24.5 14.5 30.1 14.5 37 C 14.5 43.9 20.1 49.5 27 49.5 C 33.9 49.5 39.5 43.9 39.5 37 C 39.5 30.1 33.9 24.5 27 24.5 z M 27 25 A 12 12 0 0 1 39 37 A 12 12 0 0 1 27 49 A 12 12 0 0 1 15 37 A 12 12 0 0 1 27 25 z " fill="currentColor" opacity=".6"/></g><use href="#u85" opacity=".4"></use><use fill="url(#u83)" href="#u85" opacity=".2"></use><path d="m 54,32 c -6,0 -6,4 -14,4 H 14 c -3.3,0 -6,2.7 -6,6 v 64 c 0,3.3 2.7,6 6,6 h 100 c 3.3,0 6,-2.7 6,-6 V 52 42 38 c 0,-3.3 -2.7,-6 -6,-6 z" fill="url(#u82)" opacity=".2"/><path class="ColorScheme-Contrast" d="m 8,105 v 1 c 0,3.3 2.7,6 6,6 h 100 c 3.3,0 6,-2.7 6,-6 v -1 c 0,3.3 -2.7,6 -6,6 H 14 c -3.3,0 -6,-2.7 -6,-6 z" fill="currentColor" opacity=".1"/><path class="ColorScheme-Contrast" d="m 8,105.5 v 0.5 c 0,3.3 2.7,6 6,6 h 100 c 3.3,0 6,-2.7 6,-6 v -0.5 c 0,3.3 -2.7,6 -6,6 H 14 c -3.3,0 -6,-2.7 -6,-6 z" fill="currentColor" opacity=".2"/><path d="m 54,32 c -6,0 -6,4 -14,4 H 14 c -3.3,0 -6,2.7 -6,6 v 1 c 0,-3.3 2.7,-6 6,-6 h 26 c 8,0 8,-4 14,-4 h 60 c 3.3,0 6,2.7 6,6 v -1 c 0,-3.3 -2.7,-6 -6,-6 z" fill="#fff" opacity=".1"/><path d="m 54,32 c -6,0 -6,4 -14,4 H 14 c -3.3,0 -6,2.7 -6,6 v 0.5 c 0,-3.3 2.7,-6 6,-6 h 26 c 8,0 8,-4 14,-4 h 60 c 3.3,0 6,2.7 6,6 V 38 c 0,-3.3 -2.7,-6 -6,-6 z" fill="#fff" opacity=".2"/><path d="m 54,31 c -6,0 -6,4 -14,4 H 14 v 1 h 26 c 8,0 8,-4 14,-4 h 60 v -1 z" opacity=".1"/><path d="m 54,31.5 c -6,0 -6,4 -14,4 H 14 V 36 h 26 c 8,0 8,-4 14,-4 h 60 v -0.5 z" opacity=".2"/></g>
</svg>