<svg height="128" version="1.1" width="128" xmlns="http://www.w3.org/2000/svg" xmlns:svg="http://www.w3.org/2000/svg" xmlns:xlink="http://www.w3.org/1999/xlink">
<defs id="primary-definitions">
<style id="current-color-scheme" type="text/css">
      .ColorScheme-Text         { color: #232629; }
      .ColorScheme-Background   { color: #eff0f1; }
      .ColorScheme-Highlight    { color: #7ec9f0; }
      .ColorScheme-PositiveText { color: #27ae60; }
      .ColorScheme-NeutralText  { color: #f67400; }
      .ColorScheme-NegativeText { color: #da4453; }
      .ColorScheme-ActiveText   { color: #3daee9; }
      .ColorScheme-Complement   { color: #ffffff; }
      .ColorScheme-Contrast     { color: #000000; }
    </style>
<style id="extended-color-scheme" type="text/css">
      .ExScheme-Black     { color:#3e3e3e; }
      .ExScheme-White     { color:#fcfcfc; }
      .ExScheme-Grey-1    { color:#cfd5d5; }
      .ExScheme-Grey-2    { color:#909c9c; }
      .ExScheme-Grey-3    { color:#536161; }
      .ExScheme-Red-1     { color:#ffafa5; }
      .ExScheme-Red-2     { color:#bf4231; }
      .ExScheme-Red-3     { color:#4d2f2b; }
      .ExScheme-Green-1   { color:#abf9c7; }
      .ExScheme-Green-2   { color:#3bb566; }
      .ExScheme-Green-3   { color:#377d50; }
      .ExScheme-Blue-1    { color:#abdaf9; }
      .ExScheme-Blue-2    { color:#3daefd; }
      .ExScheme-Blue-3    { color:#2b3c4d; }
      .ExScheme-Yellow-1  { color:#faffa5; }
      .ExScheme-Yellow-2  { color:#cac726; }
      .ExScheme-Yellow-3  { color:#4b4d2b; }
      .ExScheme-Orange-1  { color:#ffdaa5; }
      .ExScheme-Orange-2  { color:#ff9701; }
      .ExScheme-Orange-3  { color:#4d372b; }
      .ExScheme-Brown-1   { color:#e9d6bb; }
      .ExScheme-Brown-2   { color:#997657; }
      .ExScheme-Brown-3   { color:#433a35; }
      .ExScheme-Purple-1  { color:#e2abf9; }
      .ExScheme-Purple-2  { color:#b401ff; }
      .ExScheme-Purple-3  { color:#432b4d; }
      .ExScheme-Cyan-1    { color:#b2f2e6; }
      .ExScheme-Cyan-2    { color:#31bfa6; }
      .ExScheme-Cyan-3    { color:#2b4d47; }
      .ExScheme-Magenta-1 { color:#f8a6d8; }
      .ExScheme-Magenta-2 { color:#f00091; }
      .ExScheme-Magenta-3 { color:#770048; }
    </style>
<linearGradient id="uHG">
<stop offset="0"/>
<stop offset="1" stop-opacity="0"/>
</linearGradient>
<linearGradient id="uHH">
<stop offset="0" stop-color="#fff"/>
<stop offset="1" stop-color="#fff" stop-opacity="0"/>
</linearGradient>
<style id="uHI" type="text/css">
        .force-display-for-editing { display: inline !important; }
    </style><style class="remove-if__show-crease" type="text/css">
        .enable-if__show-crease { display: none; }
    </style><style class="remove-if__color-sync-mimes-places" type="text/css">
        .enable-if__color-sync-mimes-places { display: none; }
    </style><radialGradient cx=".5" cy="0" id="uHJ" r="1" xlink:href="#uHH"/><linearGradient id="uHK" xlink:href="#uHG" y1="1" y2=".5"/><style class="ColorScheme-Background" fill="currentColor" opacity=".6" type="text/css">
   .ColorScheme-Text           { color:#eff0f1; }
      .ColorScheme-Background     { color:#31363b; }
      .ColorScheme-Highlight      { color:#3daefd; }
      .ColorScheme-ViewBackground { color:#fcfcfc; }
      .ColorScheme-PositiveText   { color:#27ae60; }
      .ColorScheme-NeutralText    { color:#f67400; }
      .ColorScheme-NegativeText   { color:#da4453; }
  </style><path d="m 20,16 c -3.3,0 -6,2.7 -6,6 v 14 c -3.3,0 -6,2.7 -6,6 v 64 c 0,3.3 2.7,6 6,6 h 100 c 3.3,0 6,-2.7 6,-6 V 52 42 38 c 0,-3.3 -2.7,-6 -6,-6 v -6 c 0,-3.3 -2.7,-6 -6,-6 H 56 c -8,0 -8,-4 -14,-4 z" id="uHL"></path><path d="m 20,16 c -3.3,0 -6,2.7 -6,6 v 14 h 26 c 8,0 8,-4 14,-4 h 60 v -6 c 0,-3.3 -2.7,-6 -6,-6 H 56 c -8,0 -8,-4 -14,-4 z" id="uHM"></path></defs>
<g id="content" transform="translate(0,0)"><use class="sync-color enable-if__color-sync-mimes-places force-display-for-editing ColorScheme-ActiveText" fill="currentColor" href="#uHL"></use><use class="primary-color remove-if__color-sync-mimes-places ColorScheme-ActiveText" fill="currentColor" href="#uHL"></use><use class="ColorScheme-Contrast" fill="currentColor" href="#uHL" opacity=".1"></use><g id="decal" transform="translate(32,42)"><path class="ColorScheme-Background" d="M 41 13 A 8 8 0 0 0 33 21 A 8 8 0 0 0 41 29 A 8 8 0 0 0 49 21 A 8 8 0 0 0 41 13 z M 23 19 A 8 8 0 0 0 15 27 A 8 8 0 0 0 23 35 A 8 8 0 0 0 31 27 A 8 8 0 0 0 23 19 z M 41 30 C 36.1 30 31.84 32.7 29.6 36.7 C 32.87 38.43 35.34 41.4 36.4 45 L 52 45 C 53.1 45 54 44.1 54 43 C 54 35.9 48.2 30 41 30 z M 23 36 C 15.8 36 10 41.8 10 49 C 10 50.1 10.9 51 12 51 L 34 51 C 35.1 51 36 50.1 36 49 C 36 41.8 30.2 36 23 36 z " fill="currentColor" opacity=".6"/><path class="ColorScheme-Background" d="M 41 13 A 8 8 0 0 0 33 21 A 8 8 0 0 0 41 29 A 8 8 0 0 0 49 21 A 8 8 0 0 0 41 13 z M 41 13.5 C 45.15 13.5 48.5 16.85 48.5 21 C 48.5 25.15 45.15 28.5 41 28.5 C 36.85 28.5 33.5 25.15 33.5 21 C 33.5 16.85 36.85 13.5 41 13.5 z M 23 19 A 8 8 0 0 0 15 27 A 8 8 0 0 0 23 35 A 8 8 0 0 0 31 27 A 8 8 0 0 0 23 19 z M 23 19.5 C 27.15 19.5 30.5 22.85 30.5 27 C 30.5 31.15 27.15 34.5 23 34.5 C 18.85 34.5 15.5 31.15 15.5 27 C 15.5 22.85 18.85 19.5 23 19.5 z M 41 30 C 36.1 30 31.84 32.7 29.6 36.7 C 32.87 38.43 35.34 41.4 36.4 45 L 52 45 C 53.1 45 54 44.1 54 43 C 54 35.9 48.2 30 41 30 z M 41 30.5 C 47.93 30.5 53.5 36.07 53.5 43 C 53.5 43.84 52.84 44.5 52 44.5 L 36.75 44.5 C 35.64 41.13 33.34 38.33 30.33 36.56 C 32.5 32.94 36.44 30.5 41 30.5 z M 23 36 C 15.8 36 10 41.8 10 49 C 10 50.1 10.9 51 12 51 L 34 51 C 35.1 51 36 50.1 36 49 C 36 41.8 30.2 36 23 36 z M 23 36.5 C 29.93 36.5 35.5 42.07 35.5 49 C 35.5 49.84 34.84 50.5 34 50.5 L 12 50.5 C 11.16 50.5 10.5 49.84 10.5 49 C 10.5 42.07 16.07 36.5 23 36.5 z " fill="currentColor" opacity=".6"/></g><use href="#uHM" opacity=".4"></use><use fill="url(#uHK)" href="#uHM" opacity=".2"></use><path d="m 54,32 c -6,0 -6,4 -14,4 H 14 c -3.3,0 -6,2.7 -6,6 v 64 c 0,3.3 2.7,6 6,6 h 100 c 3.3,0 6,-2.7 6,-6 V 52 42 38 c 0,-3.3 -2.7,-6 -6,-6 z" fill="url(#uHJ)" opacity=".2"/><path class="ColorScheme-Contrast" d="m 8,105 v 1 c 0,3.3 2.7,6 6,6 h 100 c 3.3,0 6,-2.7 6,-6 v -1 c 0,3.3 -2.7,6 -6,6 H 14 c -3.3,0 -6,-2.7 -6,-6 z" fill="currentColor" opacity=".1"/><path class="ColorScheme-Contrast" d="m 8,105.5 v 0.5 c 0,3.3 2.7,6 6,6 h 100 c 3.3,0 6,-2.7 6,-6 v -0.5 c 0,3.3 -2.7,6 -6,6 H 14 c -3.3,0 -6,-2.7 -6,-6 z" fill="currentColor" opacity=".2"/><path d="m 54,32 c -6,0 -6,4 -14,4 H 14 c -3.3,0 -6,2.7 -6,6 v 1 c 0,-3.3 2.7,-6 6,-6 h 26 c 8,0 8,-4 14,-4 h 60 c 3.3,0 6,2.7 6,6 v -1 c 0,-3.3 -2.7,-6 -6,-6 z" fill="#fff" opacity=".1"/><path d="m 54,32 c -6,0 -6,4 -14,4 H 14 c -3.3,0 -6,2.7 -6,6 v 0.5 c 0,-3.3 2.7,-6 6,-6 h 26 c 8,0 8,-4 14,-4 h 60 c 3.3,0 6,2.7 6,6 V 38 c 0,-3.3 -2.7,-6 -6,-6 z" fill="#fff" opacity=".2"/><path d="m 54,31 c -6,0 -6,4 -14,4 H 14 v 1 h 26 c 8,0 8,-4 14,-4 h 60 v -1 z" opacity=".1"/><path d="m 54,31.5 c -6,0 -6,4 -14,4 H 14 V 36 h 26 c 8,0 8,-4 14,-4 h 60 v -0.5 z" opacity=".2"/></g>
</svg>