<svg height="128" version="1.1" width="128" xmlns="http://www.w3.org/2000/svg" xmlns:svg="http://www.w3.org/2000/svg" xmlns:xlink="http://www.w3.org/1999/xlink">
<defs id="primary-definitions">
<style id="current-color-scheme" type="text/css">
      .ColorScheme-Text         { color: #232629; }
      .ColorScheme-Background   { color: #eff0f1; }
      .ColorScheme-Highlight    { color: #7ec9f0; }
      .ColorScheme-PositiveText { color: #27ae60; }
      .ColorScheme-NeutralText  { color: #f67400; }
      .ColorScheme-NegativeText { color: #da4453; }
      .ColorScheme-ActiveText   { color: #3daee9; }
      .ColorScheme-Complement   { color: #ffffff; }
      .ColorScheme-Contrast     { color: #000000; }
    </style>
<style id="extended-color-scheme" type="text/css">
      .ExScheme-Black     { color:#3e3e3e; }
      .ExScheme-White     { color:#fcfcfc; }
      .ExScheme-Grey-1    { color:#cfd5d5; }
      .ExScheme-Grey-2    { color:#909c9c; }
      .ExScheme-Grey-3    { color:#536161; }
      .ExScheme-Red-1     { color:#ffafa5; }
      .ExScheme-Red-2     { color:#bf4231; }
      .ExScheme-Red-3     { color:#4d2f2b; }
      .ExScheme-Green-1   { color:#abf9c7; }
      .ExScheme-Green-2   { color:#3bb566; }
      .ExScheme-Green-3   { color:#377d50; }
      .ExScheme-Blue-1    { color:#abdaf9; }
      .ExScheme-Blue-2    { color:#3daefd; }
      .ExScheme-Blue-3    { color:#2b3c4d; }
      .ExScheme-Yellow-1  { color:#faffa5; }
      .ExScheme-Yellow-2  { color:#cac726; }
      .ExScheme-Yellow-3  { color:#4b4d2b; }
      .ExScheme-Orange-1  { color:#ffdaa5; }
      .ExScheme-Orange-2  { color:#ff9701; }
      .ExScheme-Orange-3  { color:#4d372b; }
      .ExScheme-Brown-1   { color:#e9d6bb; }
      .ExScheme-Brown-2   { color:#997657; }
      .ExScheme-Brown-3   { color:#433a35; }
      .ExScheme-Purple-1  { color:#e2abf9; }
      .ExScheme-Purple-2  { color:#b401ff; }
      .ExScheme-Purple-3  { color:#432b4d; }
      .ExScheme-Cyan-1    { color:#b2f2e6; }
      .ExScheme-Cyan-2    { color:#31bfa6; }
      .ExScheme-Cyan-3    { color:#2b4d47; }
      .ExScheme-Magenta-1 { color:#f8a6d8; }
      .ExScheme-Magenta-2 { color:#f00091; }
      .ExScheme-Magenta-3 { color:#770048; }
    </style>
<linearGradient id="uDA">
<stop offset="0"/>
<stop offset="1" stop-opacity="0"/>
</linearGradient>
<linearGradient id="uDB">
<stop offset="0" stop-color="#fff"/>
<stop offset="1" stop-color="#fff" stop-opacity="0"/>
</linearGradient>
<style id="uDC" type="text/css">
        .force-display-for-editing { display: inline !important; }
    </style><style class="remove-if__show-crease" type="text/css">
        .enable-if__show-crease { display: none; }
    </style><style class="remove-if__color-sync-mimes-places" type="text/css">
        .enable-if__color-sync-mimes-places { display: none; }
    </style><radialGradient cx=".5" cy="0" id="uDD" r="1" xlink:href="#uDB"/><linearGradient id="uDE" xlink:href="#uDA" y1="1" y2=".5"/><style class="ColorScheme-Background" fill="currentColor" opacity=".6" type="text/css">
   .ColorScheme-Text           { color:#eff0f1; }
      .ColorScheme-Background     { color:#31363b; }
      .ColorScheme-Highlight      { color:#3daefd; }
      .ColorScheme-ViewBackground { color:#fcfcfc; }
      .ColorScheme-PositiveText   { color:#27ae60; }
      .ColorScheme-NeutralText    { color:#f67400; }
      .ColorScheme-NegativeText   { color:#da4453; }
  </style><path d="m 20,16 c -3.3,0 -6,2.7 -6,6 v 14 c -3.3,0 -6,2.7 -6,6 v 64 c 0,3.3 2.7,6 6,6 h 100 c 3.3,0 6,-2.7 6,-6 V 52 42 38 c 0,-3.3 -2.7,-6 -6,-6 v -6 c 0,-3.3 -2.7,-6 -6,-6 H 56 c -8,0 -8,-4 -14,-4 z" id="uDF"></path><path d="m 20,16 c -3.3,0 -6,2.7 -6,6 v 14 h 26 c 8,0 8,-4 14,-4 h 60 v -6 c 0,-3.3 -2.7,-6 -6,-6 H 56 c -8,0 -8,-4 -14,-4 z" id="uDG"></path></defs>
<g id="content" transform="translate(0,0)"><use class="sync-color enable-if__color-sync-mimes-places force-display-for-editing ColorScheme-ActiveText" fill="currentColor" href="#uDF"></use><use class="primary-color remove-if__color-sync-mimes-places ColorScheme-ActiveText" fill="currentColor" href="#uDF"></use><use class="ColorScheme-Contrast" fill="currentColor" href="#uDF" opacity=".1"></use><g id="decal" transform="translate(32,42)"><path class="ColorScheme-Background" d="M 56.8 4 C 54.14 3.97 32.3 24.2 28.1 28.33 L 26.65 29.75 C 26.3 30.1 26.6 30.4 26.2 30.74 C 25.86 31.1 25.57 30.8 25.2 31.17 C 24.85 31.5 25.14 31.8 24.8 32.16 C 24.4 32.5 24.13 32.23 23.77 32.6 C 21.25 35.07 16.9 41.45 16.9 41.45 L 19.07 43.6 C 19.07 43.6 25.57 39.33 28.1 36.85 C 28.45 36.5 28.16 36.2 28.5 35.86 C 28.9 35.5 29.17 35.8 29.53 35.43 C 29.9 35.07 29.6 34.8 29.96 34.44 C 30.3 34.1 30.6 34.36 30.97 34 L 32.4 32.6 C 36.73 28.33 58.45 5.5 57 4.07 C 56.96 4 56.9 4 56.8 4 z M 57.5 22.66 C 56.3 22.74 54.94 25.23 54 29.9 C 52 39.9 33.16 51.1 30 47.9 C 28 45.9 30.24 42.5 26 43.9 C 22.6 45.05 21.15 45.54 19.8 45.4 C 19.8 45.47 19.8 45.54 19.8 45.6 C 19.84 46.34 19.75 47.13 19.6 47.93 C 19.23 49.5 18.65 51.1 17.63 52.1 C 15.3 54.4 12.37 55.85 10.93 56.96 C 10.56 57.24 10.3 57.5 10.2 57.67 C 10.05 57.84 10.07 57.9 10.07 57.9 C 10.07 57.9 10.1 58 10.27 58.2 L 10.34 58.26 C 10.6 58.5 11 58.8 11.6 59.1 A 1 1 0 0 1 12.1 59.9 C 17.9 57.97 14.15 59.9 32 59.9 C 50 59.9 60 43.9 60 31.9 C 60 25.55 58.87 22.56 57.5 22.66 z M 34.1 40.9 C 33.53 40.9 32.93 41.06 32.46 41.4 C 31.4 42.2 30.16 43.36 30.7 44.07 C 31.2 44.8 33.3 44.76 34.4 43.96 C 35.44 43.17 36.36 42.2 35.83 41.5 C 35.53 41.1 34.84 40.87 34.1 40.9 z M 13.73 41.6 C 11.6 41.7 8.7 42.47 6.86 44.3 C 2.54 48.56 2.5 60 11.13 60 C 5.54 57 12.6 55.66 16.93 51.4 C 18.37 50 19.45 45.37 18.37 44.3 L 16.2 42.17 C 15.9 41.84 15.1 41.65 14.15 41.6 C 14 41.6 13.87 41.6 13.73 41.6 z " fill="currentColor" opacity=".6"/><path class="ColorScheme-Background" d="M 56.8 4 C 54.14 3.97 32.3 24.2 28.1 28.33 L 26.65 29.75 C 26.3 30.1 26.6 30.4 26.2 30.74 C 25.86 31.1 25.57 30.8 25.2 31.17 C 24.85 31.5 25.14 31.8 24.8 32.16 C 24.4 32.5 24.13 32.23 23.77 32.6 C 21.25 35.07 16.9 41.45 16.9 41.45 L 19.07 43.6 C 19.07 43.6 25.57 39.33 28.1 36.85 C 28.45 36.5 28.16 36.2 28.5 35.86 C 28.9 35.5 29.17 35.8 29.53 35.43 C 29.9 35.07 29.6 34.8 29.96 34.44 C 30.3 34.1 30.6 34.36 30.97 34 L 32.4 32.6 C 36.73 28.33 58.45 5.5 57 4.07 C 56.96 4 56.9 4 56.8 4 z M 56.44 4.63 C 56.36 4.8 56.3 5 56.1 5.27 C 55.67 6 54.93 7 54 8.2 C 52.1 10.6 49.4 13.7 46.5 16.93 C 40.7 23.34 34.2 30.1 32.06 32.23 L 30.6 33.65 C 30.53 33.74 30.57 33.7 30.4 33.7 C 30.25 33.74 29.9 33.8 29.6 34.1 C 29.33 34.35 29.27 34.7 29.25 34.9 C 29.23 35.04 29.26 35 29.2 35.07 C 29.1 35.16 29.13 35.13 28.97 35.14 C 28.8 35.16 28.44 35.23 28.17 35.5 C 27.9 35.77 27.83 36.14 27.8 36.4 C 27.8 36.46 27.83 36.4 27.74 36.5 C 25.44 38.76 19.7 42.57 19.13 42.94 L 17.56 41.4 C 17.95 40.83 21.8 35.2 24.1 32.94 C 24.21 32.86 24.17 32.9 24.33 32.87 C 24.5 32.86 24.86 32.8 25.13 32.5 C 25.4 32.25 25.47 31.9 25.5 31.7 C 25.5 31.56 25.5 31.6 25.56 31.5 C 25.65 31.44 25.6 31.47 25.77 31.45 C 25.93 31.44 26.3 31.37 26.57 31.1 C 26.85 30.83 26.9 30.46 26.93 30.3 C 26.95 30.14 26.9 30.2 27 30.1 L 28.44 28.7 C 30.5 26.64 37.03 20.54 43.35 15 C 46.5 12.2 49.6 9.55 52.1 7.6 C 53.33 6.63 54.4 5.83 55.25 5.3 C 55.67 5 56.03 4.8 56.3 4.67 C 56.4 4.64 56.4 4.65 56.44 4.63 z M 57.5 22.66 C 56.3 22.74 54.94 25.23 54 29.9 C 52 39.9 33.16 51.1 30 47.9 C 28 45.9 30.24 42.5 26 43.9 C 22.6 45.05 21.15 45.54 19.8 45.4 C 19.8 45.47 19.8 45.54 19.8 45.6 C 19.84 46.34 19.75 47.13 19.6 47.93 C 19.23 49.5 18.65 51.1 17.63 52.1 C 15.3 54.4 12.37 55.85 10.93 56.96 C 10.56 57.24 10.3 57.5 10.2 57.67 C 10.05 57.84 10.07 57.9 10.07 57.9 C 10.07 57.9 10.1 58 10.27 58.2 L 10.34 58.26 C 10.6 58.5 11 58.8 11.6 59.1 A 1 1 0 0 1 12.1 59.9 C 17.9 57.97 14.15 59.9 32 59.9 C 50 59.9 60 43.9 60 31.9 C 60 25.55 58.87 22.56 57.5 22.66 z M 57.55 23.15 C 57.7 23.14 57.85 23.2 58.1 23.5 C 58.3 23.77 58.57 24.3 58.8 25 C 59.2 26.46 59.5 28.76 59.5 31.9 C 59.5 37.8 57.04 44.7 52.37 50.1 C 47.7 55.5 40.85 59.4 32 59.4 C 23.1 59.4 19.6 58.94 17.6 58.7 C 15.7 58.45 14.84 58.5 12.3 59.33 C 12.15 59.1 12.1 58.8 11.85 58.7 L 11.85 58.7 C 11.25 58.36 10.87 58.1 10.7 57.9 L 10.67 57.9 C 10.76 57.77 10.94 57.6 11.23 57.36 C 12.6 56.3 15.6 54.83 18 52.47 C 19.1 51.35 19.7 49.7 20.06 48.04 C 20.2 47.3 20.3 46.55 20.3 45.84 C 21.65 45.85 23.15 45.4 26.16 44.4 C 27.17 44.06 27.74 44.06 27.96 44.14 C 28.2 44.2 28.26 44.36 28.35 44.76 C 28.54 45.56 28.5 47.1 29.65 48.3 C 30.2 48.8 30.97 49 31.87 48.97 C 32.77 48.94 33.8 48.7 34.96 48.3 C 37.27 47.55 40 46.1 42.7 44.27 C 48.13 40.6 53.44 35.3 54.5 30 C 54.95 27.7 55.53 25.94 56.1 24.8 C 56.4 24.2 56.7 23.8 56.95 23.5 C 57.2 23.25 57.4 23.16 57.55 23.15 z M 34.1 40.9 C 33.53 40.9 32.93 41.06 32.46 41.4 C 31.4 42.2 30.16 43.36 30.7 44.07 C 31.2 44.8 33.3 44.76 34.4 43.96 C 35.44 43.17 36.36 42.2 35.83 41.5 C 35.53 41.1 34.84 40.87 34.1 40.9 z M 34.1 41.4 C 34.74 41.37 35.4 41.6 35.43 41.8 C 35.5 41.9 35.5 41.9 35.5 42 C 35.47 42.1 35.4 42.24 35.3 42.4 C 35.05 42.76 34.6 43.2 34.1 43.56 C 33.67 43.87 32.96 44.07 32.3 44.1 C 31.7 44.1 31.16 43.87 31.1 43.77 C 31.05 43.7 31.04 43.7 31.1 43.6 C 31.1 43.5 31.2 43.3 31.37 43.1 C 31.7 42.66 32.25 42.2 32.76 41.8 C 33.1 41.54 33.63 41.4 34.1 41.4 z M 13.73 41.6 C 11.6 41.7 8.7 42.47 6.86 44.3 C 2.54 48.56 2.5 60 11.13 60 C 5.54 57 12.6 55.66 16.93 51.4 C 18.37 50 19.45 45.37 18.37 44.3 L 16.2 42.17 C 15.9 41.84 15.1 41.65 14.15 41.6 C 14 41.6 13.87 41.6 13.73 41.6 z M 13.74 42.1 C 13.9 42.1 14 42.1 14.13 42.1 C 15.05 42.15 15.7 42.4 15.86 42.53 L 18 44.66 C 18.13 44.77 18.3 45.14 18.3 45.7 C 18.33 46.23 18.26 46.9 18.1 47.6 C 17.8 49 17.15 50.5 16.6 51.05 C 14.5 53.1 11.7 54.47 10 55.77 C 9.6 56.1 9.23 56.4 8.96 56.8 C 8.8 57.15 8.53 57.6 8.57 58.03 C 8.6 58.44 8.86 58.8 9.17 59.16 C 8.13 58.9 7.2 58.45 6.56 57.8 C 5.5 56.74 4.9 55.3 4.6 53.67 C 4.1 50.44 5.2 46.63 7.2 44.66 C 8.93 42.96 11.74 42.17 13.74 42.1 z " fill="currentColor" opacity=".6"/></g><use href="#uDG" opacity=".4"></use><use fill="url(#uDE)" href="#uDG" opacity=".2"></use><path d="m 54,32 c -6,0 -6,4 -14,4 H 14 c -3.3,0 -6,2.7 -6,6 v 64 c 0,3.3 2.7,6 6,6 h 100 c 3.3,0 6,-2.7 6,-6 V 52 42 38 c 0,-3.3 -2.7,-6 -6,-6 z" fill="url(#uDD)" opacity=".2"/><path class="ColorScheme-Contrast" d="m 8,105 v 1 c 0,3.3 2.7,6 6,6 h 100 c 3.3,0 6,-2.7 6,-6 v -1 c 0,3.3 -2.7,6 -6,6 H 14 c -3.3,0 -6,-2.7 -6,-6 z" fill="currentColor" opacity=".1"/><path class="ColorScheme-Contrast" d="m 8,105.5 v 0.5 c 0,3.3 2.7,6 6,6 h 100 c 3.3,0 6,-2.7 6,-6 v -0.5 c 0,3.3 -2.7,6 -6,6 H 14 c -3.3,0 -6,-2.7 -6,-6 z" fill="currentColor" opacity=".2"/><path d="m 54,32 c -6,0 -6,4 -14,4 H 14 c -3.3,0 -6,2.7 -6,6 v 1 c 0,-3.3 2.7,-6 6,-6 h 26 c 8,0 8,-4 14,-4 h 60 c 3.3,0 6,2.7 6,6 v -1 c 0,-3.3 -2.7,-6 -6,-6 z" fill="#fff" opacity=".1"/><path d="m 54,32 c -6,0 -6,4 -14,4 H 14 c -3.3,0 -6,2.7 -6,6 v 0.5 c 0,-3.3 2.7,-6 6,-6 h 26 c 8,0 8,-4 14,-4 h 60 c 3.3,0 6,2.7 6,6 V 38 c 0,-3.3 -2.7,-6 -6,-6 z" fill="#fff" opacity=".2"/><path d="m 54,31 c -6,0 -6,4 -14,4 H 14 v 1 h 26 c 8,0 8,-4 14,-4 h 60 v -1 z" opacity=".1"/><path d="m 54,31.5 c -6,0 -6,4 -14,4 H 14 V 36 h 26 c 8,0 8,-4 14,-4 h 60 v -0.5 z" opacity=".2"/></g>
</svg>