<svg height="128" version="1.1" width="128" xmlns="http://www.w3.org/2000/svg" xmlns:svg="http://www.w3.org/2000/svg" xmlns:xlink="http://www.w3.org/1999/xlink">
<defs id="primary-definitions">
<style id="current-color-scheme" type="text/css">
      .ColorScheme-Text         { color: #232629; }
      .ColorScheme-Background   { color: #eff0f1; }
      .ColorScheme-Highlight    { color: #7ec9f0; }
      .ColorScheme-PositiveText { color: #27ae60; }
      .ColorScheme-NeutralText  { color: #f67400; }
      .ColorScheme-NegativeText { color: #da4453; }
      .ColorScheme-ActiveText   { color: #3daee9; }
      .ColorScheme-Complement   { color: #ffffff; }
      .ColorScheme-Contrast     { color: #000000; }
    </style>
<style id="extended-color-scheme" type="text/css">
      .ExScheme-Black     { color:#3e3e3e; }
      .ExScheme-White     { color:#fcfcfc; }
      .ExScheme-Grey-1    { color:#cfd5d5; }
      .ExScheme-Grey-2    { color:#909c9c; }
      .ExScheme-Grey-3    { color:#536161; }
      .ExScheme-Red-1     { color:#ffafa5; }
      .ExScheme-Red-2     { color:#bf4231; }
      .ExScheme-Red-3     { color:#4d2f2b; }
      .ExScheme-Green-1   { color:#abf9c7; }
      .ExScheme-Green-2   { color:#3bb566; }
      .ExScheme-Green-3   { color:#377d50; }
      .ExScheme-Blue-1    { color:#abdaf9; }
      .ExScheme-Blue-2    { color:#3daefd; }
      .ExScheme-Blue-3    { color:#2b3c4d; }
      .ExScheme-Yellow-1  { color:#faffa5; }
      .ExScheme-Yellow-2  { color:#cac726; }
      .ExScheme-Yellow-3  { color:#4b4d2b; }
      .ExScheme-Orange-1  { color:#ffdaa5; }
      .ExScheme-Orange-2  { color:#ff9701; }
      .ExScheme-Orange-3  { color:#4d372b; }
      .ExScheme-Brown-1   { color:#e9d6bb; }
      .ExScheme-Brown-2   { color:#997657; }
      .ExScheme-Brown-3   { color:#433a35; }
      .ExScheme-Purple-1  { color:#e2abf9; }
      .ExScheme-Purple-2  { color:#b401ff; }
      .ExScheme-Purple-3  { color:#432b4d; }
      .ExScheme-Cyan-1    { color:#b2f2e6; }
      .ExScheme-Cyan-2    { color:#31bfa6; }
      .ExScheme-Cyan-3    { color:#2b4d47; }
      .ExScheme-Magenta-1 { color:#f8a6d8; }
      .ExScheme-Magenta-2 { color:#f00091; }
      .ExScheme-Magenta-3 { color:#770048; }
    </style>
<linearGradient id="um6">
<stop offset="0"/>
<stop offset="1" stop-opacity="0"/>
</linearGradient>
<linearGradient id="um7">
<stop offset="0" stop-color="#fff"/>
<stop offset="1" stop-color="#fff" stop-opacity="0"/>
</linearGradient>
<style id="um8" type="text/css">
        .force-display-for-editing { display: inline !important; }
    </style><style class="remove-if__show-crease" type="text/css">
        .enable-if__show-crease { display: none; }
    </style><style class="remove-if__color-sync-mimes-places" type="text/css">
        .enable-if__color-sync-mimes-places { display: none; }
    </style><radialGradient cx=".5" cy="0" id="um9" r="1" xlink:href="#um7"/><linearGradient id="uma" xlink:href="#um6" y1="1" y2=".5"/><style class="ColorScheme-Background" fill="currentColor" opacity=".6" type="text/css">
   .ColorScheme-Text           { color:#eff0f1; }
      .ColorScheme-Background     { color:#31363b; }
      .ColorScheme-Highlight      { color:#3daefd; }
      .ColorScheme-ViewBackground { color:#fcfcfc; }
      .ColorScheme-PositiveText   { color:#27ae60; }
      .ColorScheme-NeutralText    { color:#f67400; }
      .ColorScheme-NegativeText   { color:#da4453; }
  </style><clipPath clipPathUnits="userSpaceOnUse" id="umb"><rect height="68.343513" width="59.661438" x="15.137977" y="110.41818"/></clipPath><path d="m 20,16 c -3.3,0 -6,2.7 -6,6 v 14 c -3.3,0 -6,2.7 -6,6 v 64 c 0,3.3 2.7,6 6,6 h 100 c 3.3,0 6,-2.7 6,-6 V 52 42 38 c 0,-3.3 -2.7,-6 -6,-6 v -6 c 0,-3.3 -2.7,-6 -6,-6 H 56 c -8,0 -8,-4 -14,-4 z" id="umc"></path><path d="m 20,16 c -3.3,0 -6,2.7 -6,6 v 14 h 26 c 8,0 8,-4 14,-4 h 60 v -6 c 0,-3.3 -2.7,-6 -6,-6 H 56 c -8,0 -8,-4 -14,-4 z" id="umd"></path></defs>
<g id="content" transform="translate(0,0)"><use class="sync-color enable-if__color-sync-mimes-places force-display-for-editing ColorScheme-ActiveText" fill="currentColor" href="#umc"></use><use class="primary-color remove-if__color-sync-mimes-places ColorScheme-ActiveText" fill="currentColor" href="#umc"></use><use class="ColorScheme-Contrast" fill="currentColor" href="#umc" opacity=".1"></use><g id="decal" transform="translate(32,42)"><path class="ColorScheme-Background" d="m 7.8,3.75 c -.2,0 -.36,.17 -.36,.36 v 1.9 c 0,.2 .17,.37 .36,.37 H 56.2 c .2,0 .36,-.17 .36,-.37 V 4.1 c 0,-.2 -.17,-.36 -.36,-.36 z M 10.35,7.63 C 10.15,7.63 10,7.8 10,8 v 47.9 c 0,.2 .17,.36 .37,.36 h 2.3 c .2,0 .37,-.17 .37,-.36 V 8 c 0,-.2 -.17,-.37 -.37,-.37 z m 8.7,0 c -.2,0 -.36,.17 -.36,.36 v 1.77 c 0,.2 .17,.37 .36,.37 h 2.8 c .2,0 .37,-.17 .37,-.37 v -1.77 c 0,-.2 -.17,-.36 -.37,-.36 z m -4.3,.05 c -.2,0 -.37,.17 -.37,.36 v 2 c 0,.2 .17,.36 .37,.36 h 2.2 c .2,0 .37,-.17 .37,-.36 V 8.05 c 0,-.2 -.17,-.36 -.37,-.36 z m 26.7,0 c -.2,0 -.36,.17 -.36,.36 v 1.7 c 0,.2 .17,.37 .36,.37 h 2.96 c .2,0 .37,-.17 .37,-.37 V 8.05 c 0,-.2 -.17,-.36 -.37,-.36 z m 9.93,.04 c -.2,0 -.36,.17 -.36,.36 V 55.96 c 0,.2 .17,.37 .36,.37 h 2.3 c .2,0 .36,-.17 .36,-.37 V 8.1 c 0,-.2 -.17,-.36 -.36,-.36 z M 23.8,8.87 c -.2,0 -.36,.17 -.36,.36 v 1.3 c 0,.2 .17,.36 .36,.36 h 3.37 c .2,0 .36,-.17 .36,-.36 V 9.24 c 0,-.2 -.17,-.36 -.36,-.36 z m 22.45,0 c -.2,0 -.36,.17 -.36,.36 v 1.3 c 0,.2 .17,.36 .36,.36 h 3.06 c .2,0 .37,-.17 .37,-.36 V 9.24 c 0,-.2 -.17,-.36 -.37,-.36 z m -11.9,.83 c -.2,0 -.36,.17 -.36,.36 v 2.03 c 0,.2 .17,.36 .36,.36 h 1.6 c .2,0 .37,-.17 .37,-.36 v -2.03 c 0,-.2 -.17,-.36 -.37,-.36 z m -5.3,.5 c -.2,0 -.37,.17 -.37,.36 v 1.4 c 0,.2 .17,.36 .37,.36 h 3.27 c .2,0 .37,-.17 .37,-.36 v -1.4 c 0,-.2 -.17,-.36 -.37,-.36 z m 8.8,0 c -.2,0 -.36,.17 -.36,.36 v 1.7 c 0,.2 .17,.36 .36,.36 h 1.6 c .2,0 .37,-.17 .37,-.36 v -1.7 c 0,-.2 -.17,-.36 -.37,-.36 z m -19.04,.83 c -.2,0 -.36,.17 -.36,.37 v 5.7 c 0,.2 .17,.36 .36,.36 h 3 c .2,0 .37,-.17 .37,-.36 v -5.7 c 0,-.2 -.17,-.37 -.37,-.37 z m 22.55,0 c -.2,0 -.36,.17 -.36,.37 v 5.65 c 0,.2 .17,.36 .36,.36 h 3.06 c .2,0 .36,-.17 .36,-.36 v -5.65 c 0,-.2 -.17,-.37 -.36,-.37 z m -26.7,.6 c -.2,0 -.36,.17 -.36,.36 v .7 c 0,.2 .17,.36 .36,.36 h 2.23 c .2,0 .37,-.17 .37,-.36 v -.7 c 0,-.2 -.17,-.36 -.37,-.36 z m 31.55,.1 c -.2,0 -.36,.17 -.36,.37 v 5.3 c 0,.2 .17,.36 .36,.36 h 3.1 c .2,0 .37,-.17 .37,-.36 v -5.3 c 0,-.2 -.17,-.37 -.37,-.37 z m -22.5,.06 c -.2,0 -.36,.17 -.36,.36 v 5.4 c 0,.2 .17,.37 .36,.37 h 3.43 c .2,0 .36,-.17 .36,-.37 v -5.4 c 0,-.2 -.17,-.36 -.36,-.36 z m 5.33,1.4 c -.2,0 -.37,.17 -.37,.36 v 3.94 c 0,.2 .17,.36 .37,.36 h 3.2 c .2,0 .36,-.17 .36,-.36 v -3.94 c 0,-.2 -.17,-.36 -.36,-.36 z m 5.2,.15 c -.2,0 -.37,.17 -.37,.36 v 6.53 c 0,.2 .17,.36 .37,.36 h 1.67 c .2,0 .36,-.17 .36,-.36 v -6.53 c 0,-.2 -.17,-.36 -.36,-.36 z m 3.57,.15 c -.2,0 -.36,.17 -.36,.37 v 6.37 c 0,.2 .17,.36 .36,.36 h 1.6 c .2,0 .37,-.17 .37,-.36 v -6.37 c 0,-.2 -.17,-.37 -.37,-.37 z m -23.17,.5 c -.2,0 -.36,.17 -.36,.37 v 5.86 c 0,.2 .17,.36 .36,.36 h 2.23 c .2,0 .37,-.17 .37,-.36 v -5.86 c 0,-.2 -.17,-.37 -.37,-.37 z m 4.2,4.3 c -.2,0 -.36,.17 -.36,.37 v 1.5 c 0,.2 .17,.36 .36,.36 h 2.96 c .2,0 .37,-.17 .37,-.36 v -1.5 c 0,-.2 -.17,-.37 -.37,-.37 z m 22.55,0 c -.2,0 -.36,.17 -.36,.37 v 1.56 c 0,.2 .17,.36 .36,.36 h 3 c .2,0 .36,-.17 .36,-.36 v -1.56 c 0,-.2 -.17,-.37 -.36,-.37 z m -17.64,.47 c -.2,0 -.36,.17 -.36,.36 v 1.1 c 0,.2 .17,.36 .36,.36 h 3.37 c .2,0 .36,-.17 .36,-.36 v -1.1 c 0,-.2 -.17,-.36 -.36,-.36 z m 5.3,0 c -.2,0 -.37,.17 -.37,.36 v 1.1 c 0,.2 .17,.36 .37,.36 h 3.3 c .2,0 .37,-.17 .37,-.36 v -1.1 c 0,-.2 -.17,-.36 -.37,-.36 z m 17.17,0 c -.2,0 -.36,.17 -.36,.36 v 1.1 c 0,.2 .17,.36 .36,.36 h 3.17 c .2,0 .37,-.17 .37,-.36 v -1.1 c 0,-.2 -.17,-.36 -.37,-.36 z M 14.6,21.7 c -.2,0 -.36,.17 -.36,.36 v 1.77 c 0,.2 .17,.36 .36,.36 h 34.77 c .2,0 .36,-.17 .36,-.36 v -1.77 c 0,-.2 -.17,-.36 -.36,-.36 z m 24.8,3.8 c -.2,0 -.36,.17 -.36,.37 v 2.06 c 0,.2 .17,.36 .36,.36 h 3.1 c .2,0 .37,-.17 .37,-.36 v -2.06 c 0,-.2 -.17,-.37 -.37,-.37 z m -20.57,.04 c -.2,0 -.36,.17 -.36,.37 v 2 c 0,.2 .17,.36 .36,.36 h 3.06 c .2,0 .36,-.17 .36,-.36 v -2 c 0,-.2 -.17,-.37 -.36,-.37 z m 8.8,.06 c -.2,0 -.36,.17 -.36,.36 v 2.8 c 0,.2 .17,.36 .36,.36 h 1.8 c .2,0 .36,-.17 .36,-.36 V 25.96 c 0,-.2 -.17,-.36 -.36,-.36 z m 7.4,1.33 c -.2,0 -.36,.17 -.36,.36 v 1.5 c 0,.2 .17,.37 .36,.37 h 2.34 c .2,0 .37,-.17 .37,-.37 v -1.5 c 0,-.2 -.17,-.36 -.37,-.36 z m -11.2,.05 c -.2,0 -.36,.17 -.36,.37 v 1.5 c 0,.2 .17,.36 .36,.36 h 1.8 c .2,0 .36,-.17 .36,-.36 v -1.5 c 0,-.2 -.17,-.37 -.36,-.37 z m 23.9,0 c -.2,0 -.36,.17 -.36,.37 v 1.77 c 0,.2 .17,.37 .36,.37 h 1.67 c .2,0 .36,-.17 .36,-.37 v -1.77 c 0,-.2 -.17,-.37 -.36,-.37 z m -33,.2 c -.2,0 -.36,.17 -.36,.36 v 1.5 c 0,.2 .17,.36 .36,.36 h 2.23 c .2,0 .37,-.17 .37,-.36 v -1.5 c 0,-.2 -.17,-.36 -.37,-.36 z m 16.86,.53 c -.2,0 -.36,.17 -.36,.37 v 1.8 c 0,.2 .17,.37 .36,.37 h 1.5 c .2,0 .37,-.17 .37,-.37 v -1.8 c 0,-.2 -.17,-.37 -.37,-.37 z m 12.83,.4 c -.2,0 -.36,.17 -.36,.36 v 1.6 c 0,.2 .17,.37 .36,.37 h 1.5 c .2,0 .37,-.17 .37,-.37 v -1.6 c 0,-.2 -.17,-.36 -.37,-.36 z m -25.55,1.04 c -.2,0 -.36,.17 -.36,.36 v 4.8 c 0,.2 .17,.36 .36,.36 h 3.06 c .2,0 .36,-.17 .36,-.36 v -4.8 c 0,-.2 -.17,-.36 -.36,-.36 z m 20.5,0 c -.2,0 -.37,.17 -.37,.36 v 4.8 c 0,.2 .17,.36 .37,.36 h 3.16 c .2,0 .37,-.17 .37,-.36 v -4.8 c 0,-.2 -.17,-.36 -.37,-.36 z m -4.35,.93 c -.2,0 -.36,.17 -.36,.37 v 7.15 c 0,.2 .17,.36 .36,.36 h 2.4 c .2,0 .37,-.17 .37,-.36 v -7.15 c 0,-.2 -.17,-.37 -.37,-.37 z m -7.35,0 c -.2,0 -.36,.17 -.36,.36 v 7.14 c 0,.2 .17,.36 .36,.36 h 2 c .2,0 .36,-.17 .36,-.36 V 30.46 c 0,-.2 -.17,-.36 -.36,-.36 z m -3.9,.04 c -.2,0 -.36,.17 -.36,.36 v 7.1 c 0,.2 .17,.36 .36,.36 h 1.8 c .2,0 .36,-.17 .36,-.36 v -7.1 c 0,-.2 -.17,-.36 -.36,-.36 z m -9.05,.26 c -.2,0 -.36,.17 -.36,.36 v 3.84 c 0,.2 .17,.36 .36,.36 h 2.2 c .2,0 .36,-.17 .36,-.36 v -3.84 c 0,-.2 -.17,-.36 -.36,-.36 z m 33,0 c -.2,0 -.36,.17 -.36,.36 v 6.9 c 0,.2 .17,.36 .36,.36 h 1.7 c .2,0 .37,-.17 .37,-.36 v -6.9 c 0,-.2 -.17,-.36 -.37,-.36 z m -16.14,.83 c -.2,0 -.36,.17 -.36,.36 v 5.96 c 0,.2 .17,.36 .36,.36 h 1.6 c .2,0 .37,-.17 .37,-.36 v -5.96 c 0,-.2 -.17,-.36 -.37,-.36 z m 12.83,.1 c -.2,0 -.36,.17 -.36,.36 v 5.9 c 0,.2 .17,.36 .36,.36 h 1.46 c .2,0 .36,-.17 .36,-.36 v -5.9 c 0,-.2 -.17,-.36 -.36,-.36 z m -5.1,4.3 c -.2,0 -.36,.17 -.36,.36 v 1.67 c 0,.2 .17,.36 .36,.36 h 3.2 c .2,10e-7 .37,-.17 .37,-.36 V 36 c 0,-.2 -.17,-.36 -.37,-.36 z m -20.43,.06 c -.2,0 -.36,.17 -.36,.37 v 1.55 c 0,.2 .17,.36 .36,.36 h 3 c .2,0 .37,-.17 .37,-.36 v -1.55 c 0,-.2 -.17,-.37 -.37,-.37 z m -4.1,0.25 c -.2,0 -.37,.17 -.37,.36 v 1.3 c 0,.2 .17,.36 .37,.36 h 2.13 c .2,0 .36,-.17 .36,-.36 v -1.3 c 0,-.2 -.17,-.36 -.36,-.36 z M 14.94,39 c -.2,0 -.36,.17 -.36,.37 v 1.8 c 0,.2 .17,.36 .36,.36 h 34.5 c .2,0 .36,-.17 .36,-.36 V 39.37 C 49.8,39.17 49.6,39 49.4,39 Z m 14.43,3.73 c -.2,0 -.36,.17 -.36,.36 v 2.26 c 0,.2 .17,.36 .36,.36 h 2 c .2,0 .37,-.17 .37,-.36 v -2.26 c 0,-.2 -.17,-.36 -.37,-.36 z m -10.53,.1 c -.2,0 -.36,.17 -.36,.37 v 1.37 c 0,.2 .17,.36 .36,.36 h 3.06 c .2,0 .36,-.17 .36,-.36 v -1.37 c 0,-.2 -.17,-.37 -.36,-.37 z m -4.14,1.4 c -.2,0 -.36,.17 -.36,.36 v 1.5 c 0,.2 .17,.37 .36,.37 h 2.23 c .2,0 .37,-.17 .37,-.37 v -1.5 c 0,-.2 -.17,-.36 -.37,-.36 z m 9.1,0 c -.2,0 -.36,.17 -.36,.36 v 1.5 c 0,.2 .17,.37 .36,.37 h 3.37 c .2,0 .36,-.17 .36,-.37 v -1.5 c 0,-.2 -.17,-.36 -.36,-.36 z m 15.4,0 c -.2,0 -.37,.17 -.37,.36 v 1.5 c 0,.2 .17,.37 .37,.37 h 3.6 c .2,0 .37,-.17 .37,-.37 v -1.5 c 0,-.2 -.17,-.36 -.37,-.36 z m 5.5,.06 c -.2,0 -.36,.17 -.36,.37 v 1.5 c 0,.2 .17,.36 .36,.36 h 4.64 c .2,0 .36,-.17 .36,-.36 v -1.5 c 0,-.2 -.17,-.37 -.36,-.37 z m -25.9,1.6 c -.2,0 -.36,.17 -.36,.37 v 1.1 c 0,.2 .17,.36 .36,.36 h 3.07 c .2,0 .36,-.17 .36,-.36 v -1.1 c 0,-.2 -.17,-.37 -.36,-.37 z M 33.3,46.53 c -.2,0 -.36,.17 -.36,.36 v 1.46 c 0,.2 .17,.37 .36,.37 h 3.94 c .2,0 .37,-.17 .37,-.37 v -1.46 c 0,-.2 -.17,-.36 -.37,-.36 z m -4.2,.05 c -.2,0 -.36,.17 -.36,.36 v 1.3 c 0,.2 .17,.37 .36,.37 h 2.23 c .2,0 .37,-.17 .37,-.37 v -1.3 c 0,-.2 -.17,-.36 -.37,-.36 z m -14.43,.9 c -.2,0 -.36,.17 -.36,.36 v 5.34 c 0,.2 .17,.37 .36,.37 h 2.23 c .2,0 .37,-.17 .37,-.37 v -5.34 c 0,-.2 -.17,-.36 -.37,-.36 z m 24.5,0 c -.2,0 -.37,.17 -.37,.36 v 5.2 c 0,.2 .17,.36 .37,.36 h 3.6 c .2,1.2e-5 .37,-.17 .37,-.36 v -5.2 c 0,-.2 -.17,-.36 -.37,-.36 z m -15.46,.05 c -.2,0 -.37,.17 -.37,.37 v 5.3 c 0,.2 .17,.37 .37,.37 h 3.4 c .2,0 .36,-.17 .36,-.37 v -5.3 c 0,-.2 -.17,-.37 -.36,-.37 z m 20.9,0 c -.2,0 -.37,.17 -.37,.37 v 5.3 c 0,.2 .17,.37 .37,.37 h 4.76 c .2,0 .37,-.17 .37,-.37 v -5.3 c 0,-.2 -.17,-.37 -.37,-.37 z m -25.8,1.1 c -.2,0 -.36,.17 -.36,.37 v 1.36 c 0,.2 .17,.36 .36,.36 h 3 c .2,0 .37,-.17 .37,-.36 v -1.36 c 0,-.2 -.17,-.37 -.37,-.37 z m 10.3,.9 c -.2,0 -.36,.17 -.36,.36 v 6.06 c 0,.2 .17,.36 .36,.36 h 2.23 c .2,0 .37,-.17 .37,-.36 v -6.06 c 0,-.2 -.17,-.36 -.37,-.36 z m 4.2,.05 c -.2,0 -.36,.17 -.36,.36 v 2.03 c 0,.2 .17,.36 .36,.36 h 4 c .2,0 .36,-.17 .36,-.36 v -2.03 c 0,-.2 -.17,-.36 -.36,-.36 z m -14.5,2.07 c -.2,0 -.36,.17 -.36,.36 v 1.2 c 0,.2 .17,.37 .36,.37 h 3.06 c .2,0 .36,-.17 .36,-.37 v -1.2 c 0,-.2 -.17,-.36 -.36,-.36 z m 14.5,1.55 c -.2,0 -.36,.17 -.36,.36 v 2.44 c 0,.2 .17,.37 .36,.37 h 4 c .2,0 .36,-.17 .36,-.37 v -2.44 c 0,-.2 -.17,-.36 -.36,-.36 z m -14.5,1.24 c -.2,0 -.36,.17 -.36,.36 v 1.15 c 0,.2 .17,.36 .36,.36 h 3 c .2,0 .37,-.17 .37,-.36 v -1.15 c 0,-.2 -.17,-.36 -.37,-.36 z m 5,0 c -.2,0 -.37,.17 -.37,.36 v 1.15 c 0,.2 .17,.36 .37,.36 h 3.3 c .2,0 .36,-.17 .36,-.36 v -1.15 c 0,-.2 -.17,-.36 -.36,-.36 z m -9.07,.05 c -.2,0 -.37,.17 -.37,.36 v 1.1 c 0,.2 .17,.36 .37,.36 h 2.13 c .2,0 .36,-.17 .36,-.36 v -1.1 c 0,-.2 -.17,-.36 -.36,-.36 z m 24.5,0 c -.2,0 -.36,.17 -.36,.36 v 1.1 c 0,.2 .17,.36 .36,.36 h 3.5 c .2,0 .36,-.17 .36,-.36 v -1.1 c 0,-.2 -.17,-.36 -.36,-.36 z m 5.4,0 c -.2,0 -.36,.17 -.36,.36 v 1.1 c 0,.2 .17,.36 .36,.36 h 4.7 c .2,0 .36,-.17 .36,-.36 v -1.1 c 0,-.2 -.17,-.36 -.36,-.36 z M 7.9,57.4 c -.2,0 -.36,.17 -.36,.37 v 1.9 c 0,.2 .17,.36 .36,.36 H 56.2 c .2,0 .36,-.17 .36,-.36 v -1.9 c 0,-.2 -.17,-.37 -.36,-.37 z" fill="currentColor" opacity=".6"/><path class="ColorScheme-Background" d="m 7.8,3.75 c -.2,0 -.36,.17 -.36,.37 v 1.9 c 0,.2 .17,.36 .36,.36 H 56.2 c .2,0 .36,-.17 .36,-.36 v -1.9 c 0,-.2 -.17,-.37 -.36,-.37 z m .1,.5 H 56.07 v 1.7 H 7.93 Z m 2.4,3.4 c -.2,0 -.37,.17 -.37,.36 V 55.9 c 0,.2 .17,.37 .37,.37 h 2.3 c .2,0 .37,-.17 .37,-.37 V 8 c 0,-.2 -.17,-.36 -.37,-.36 z m 8.7,0 c -.2,0 -.36,.17 -.36,.36 v 1.77 c 0,.2 .17,.36 .36,.36 h 2.8 c .2,0 .37,-.17 .37,-.36 v -1.77 c 0,-.2 -.17,-.36 -.37,-.36 z m -4.3,.05 c -.2,0 -.37,.17 -.37,.36 v 2 c 0,.2 .17,.37 .37,.37 h 2.2 c .2,0 .37,-.17 .37,-.37 V 8.05 c 0,-.2 -.17,-.36 -.37,-.36 z m 26.7,0 c -.2,0 -.36,.17 -.36,.36 v 1.7 c 0,.2 .17,.36 .36,.36 h 2.96 c .2,0 .37,-.17 .37,-.36 v -1.7 c 0,-.2 -.17,-.36 -.37,-.36 z m 9.93,.04 c -.2,0 -.36,.17 -.36,.37 V 55.96 c 0,.2 .17,.36 .36,.36 h 2.3 c .2,0 .36,-.17 .36,-.36 V 8.1 c 0,-.2 -.17,-.37 -.36,-.37 z m -40.9,.4 h 2.05 V 55.8 h -2.05 z m 8.7,0 h 2.6 v 1.54 h -2.6 z m -4.3,.05 h 1.95 v 1.74 h -1.95 z m 26.7,0 h 2.73 v 1.5 h -2.73 z m 9.93,.04 h 2.06 V 55.84 h -2.06 z m -27.7,.67 c -.2,0 -.36,.17 -.36,.37 v 1.3 c 0,.2 .17,.36 .36,.36 h 3.37 c .2,0 .36,-.17 .36,-.36 V 9.24 c 0,-.2 -.17,-.37 -.36,-.37 z m 22.45,0 c -.2,0 -.36,.17 -.36,.37 v 1.3 c 0,.2 .17,.36 .36,.36 h 3.06 c .2,0 .37,-.17 .37,-.36 V 9.24 c 0,-.2 -.17,-.37 -.37,-.37 z m -22.33,.5 h 3.14 v 1.07 h -3.14 z m 22.45,0 h 2.83 v 1.07 h -2.83 z m -12,.35 c -.2,0 -.36,.17 -.36,.36 v 2.03 c 0,.2 .17,.37 .36,.37 h 1.6 c .2,0 .37,-.17 .37,-.37 v -2.03 c 0,-.2 -.17,-.36 -.37,-.36 z m .1,.5 h 1.4 v 1.8 h -1.4 z m -5.4,.04 c -.2,0 -.37,.17 -.37,.36 v 1.4 c 0,.2 .17,.36 .37,.36 h 3.27 c .2,0 .37,-.17 .37,-.36 v -1.4 c 0,-.2 -.17,-.36 -.37,-.36 z m 8.8,0 c -.2,0 -.36,.17 -.36,.36 v 1.7 c 0,.2 .17,.37 .36,.37 h 1.6 c .2,0 .37,-.17 .37,-.37 v -1.7 c 0,-.2 -.17,-.36 -.37,-.36 z m -8.7,.5 h 3.04 v 1.2 h -3.04 z m 8.8,0 h 1.4 v 1.5 h -1.4 z m -19.15,.35 c -.2,0 -.36,.17 -.36,.36 v 5.7 c 0,.2 .17,.37 .36,.37 h 3 c .2,0 .37,-.17 .37,-.37 v -5.7 c 0,-.2 -.17,-.36 -.37,-.36 z m 22.55,0 c -.2,0 -.36,.17 -.36,.36 v 5.65 c 0,.2 .17,.36 .36,.36 h 3.06 c .2,10e-7 .36,-.17 .36,-.36 v -5.65 c 0,-.2 -.17,-.36 -.36,-.36 z m -22.44,.5 h 2.8 v 5.47 h -2.8 z m 22.55,0 h 2.83 v 5.4 h -2.83 z m -26.8,.14 c -.2,0 -.36,.17 -.36,.37 v .7 c 0,.2 .17,.37 .36,.37 h 2.23 c .2,0 .37,-.17 .37,-.37 v -.7 c 0,-.2 -.17,-.37 -.37,-.37 z m 31.55,.1 c -.2,0 -.36,.17 -.36,.36 v 5.3 c 0,.2 .17,.37 .36,.37 h 3.1 c .2,0 .37,-.17 .37,-.37 v -5.3 c 0,-.2 -.17,-.36 -.37,-.36 z m -22.5,.06 c -.2,0 -.36,.17 -.36,.36 v 5.4 c 0,.2 .17,.36 .36,.36 h 3.43 c .2,0 .36,-.17 .36,-.36 v -5.4 c 0,-.2 -.17,-.36 -.36,-.36 z m -8.94,.3 h 2 v .45 h -2 z m 31.55,.1 h 2.87 v 5.1 h -2.87 z m -22.5,.06 h 3.2 v 5.16 h -3.2 z m 5.2,.9 c -.2,10e-7 -.37,.17 -.37,.36 v 3.94 c 0,.2 .17,.37 .37,.37 h 3.2 c .2,0 .36,-.17 .36,-.37 v -3.94 c 0,-.2 -.17,-.36 -.36,-.36 z m 5.2,.15 c -.2,0 -.37,.17 -.37,.37 v 6.53 c 0,.2 .17,.36 .37,.36 h 1.67 c .2,0 .36,-.17 .36,-.36 v -6.53 c 0,-.2 -.17,-.37 -.36,-.37 z m 3.57,.16 c -.2,0 -.36,.17 -.36,.36 v 6.37 c 0,.2 .17,.36 .36,.36 h 1.6 c .2,0 .37,-.17 .37,-.36 v -6.37 c 0,-.2 -.17,-.36 -.37,-.36 z m -8.7,.17 h 3 v 3.7 h -3 z m 5.2,.16 h 1.44 v 6.3 h -1.44 z m 3.57,.15 h 1.4 v 6.14 h -1.4 z m -23.3,.04 c -.2,0 -.36,.17 -.36,.36 v 5.86 c 0,.2 .17,.36 .36,.36 h 2.23 c .2,0 .37,-.17 .37,-.36 v -5.86 c 0,-.2 -.17,-.36 -.37,-.36 z m .1,.5 h 2 v 5.6 h -2 z m 4.07,3.8 c -.2,0 -.36,.17 -.36,.36 v 1.5 c 0,.2 .17,.37 .36,.37 h 2.96 c .2,0 .37,-.17 .37,-.37 v -1.5 c 0,-.2 -.17,-.36 -.37,-.36 z m 22.55,0 c -.2,0 -.36,.17 -.36,.36 v 1.56 c 0,.2 .17,.36 .36,.36 h 3 c .2,0 .36,-.17 .36,-.36 v -1.56 c 0,-.2 -.17,-.36 -.36,-.36 z m -17.64,.46 c -.2,0 -.36,.17 -.36,.36 v 1.1 c 0,.2 .17,.36 .36,.36 h 3.37 c .2,0 .36,-.17 .36,-.36 v -1.1 c 0,-.2 -.17,-.36 -.36,-.36 z m 5.3,0 c -.2,0 -.37,.17 -.37,.36 v 1.1 c 0,.2 .17,.36 .37,.36 h 3.3 c .2,0 .37,-.17 .37,-.36 v -1.1 c 0,-.2 -.17,-.36 -.37,-.36 z m 17.17,0 c -.2,0 -.36,.17 -.36,.36 v 1.1 c 0,.2 .17,.36 .36,.36 h 3.17 c .2,0 .37,-.17 .37,-.36 v -1.1 c 0,-.2 -.17,-.36 -.37,-.36 z m -27.25,0 h 2.73 v 1.3 h -2.73 z m 22.55,0 h 2.8 v 1.33 h -2.8 z m -17.64,.47 h 3.14 v .87 h -3.14 z m 5.3,0 h 3.05 v .87 h -3.05 z m 17.17,0 h 2.93 v .87 h -2.93 z M 14.6,21.7 c -.2,0 -.36,.17 -.36,.37 v 1.77 c 0,.2 .17,.37 .36,.37 h 34.77 c .2,0 .36,-.17 .36,-.37 v -1.77 c 0,-.2 -.17,-.37 -.36,-.37 z m .1,.5 h 34.54 v 1.54 H 14.7 Z m 24.7,3.3 c -.2,0 -.36,.17 -.36,.36 v 2.06 c 0,.2 .17,.36 .36,.36 h 3.1 c .2,0 .37,-.17 .37,-.36 V 25.86 c 0,-.2 -.17,-.36 -.37,-.36 z m -20.57,.04 c -.2,0 -.36,.17 -.36,.36 v 2 c 0,.2 .17,.36 .36,.36 h 3.06 c .2,0 .36,-.17 .36,-.36 V 25.9 c 0,-.2 -.17,-.36 -.36,-.36 z m 8.8,.06 c -.2,0 -.36,.17 -.36,.36 v 2.8 c 0,.2 .17,.37 .36,.37 h 1.8 c .2,0 .36,-.17 .36,-.37 V 25.96 c 0,-.2 -.17,-.36 -.36,-.36 z m 11.9,.4 h 2.85 v 1.83 h -2.85 z m -20.57,.04 h 2.83 v 1.8 h -2.83 z m 8.8,.06 h 1.57 v 2.55 h -1.57 z m 7.27,.85 c -.2,0 -.36,.17 -.36,.36 v 1.5 c 0,.2 .17,.36 .36,.36 h 2.34 c .2,0 .37,-.17 .37,-.36 v -1.5 c 0,-.2 -.17,-.36 -.37,-.36 z m -11.2,.05 c -.2,0 -.36,.17 -.36,.36 v 1.5 c 0,.2 .17,.37 .36,.37 h 1.8 c .2,0 .36,-.17 .36,-.37 v -1.5 c 0,-.2 -.17,-.36 -.36,-.36 z m 23.9,0 c -.2,0 -.36,.17 -.36,.36 v 1.77 c 0,.2 .17,.36 .36,.36 h 1.67 c .2,0 .36,-.17 .36,-.36 v -1.77 c 0,-.2 -.17,-.36 -.36,-.36 z m -33,.2 c -.2,0 -.36,.17 -.36,.37 v 1.5 c 0,.2 .17,.37 .36,.37 h 2.23 c .2,0 .37,-.17 .37,-.37 V 27.56 c 0,-.2 -.17,-.37 -.37,-.37 z m 20.45,.2 h 2.1 v 1.3 h -2.1 z m -11.2,.05 h 1.57 v 1.3 h -1.57 z m 23.9,0 h 1.44 v 1.54 h -1.44 z m -33,.2 h 2 v 1.27 h -2 z m 16.75,.05 c -.2,0 -.36,.17 -.36,.36 v 1.8 c 0,.2 .17,.36 .36,.36 h 1.5 c .2,0 .37,-.17 .37,-.36 v -1.8 c 0,-.2 -.17,-.36 -.37,-.36 z m 12.83,.4 c -.2,0 -.36,.17 -.36,.37 v 1.6 c 0,.2 .17,.36 .36,.36 h 1.5 c .2,0 .37,-.17 .37,-.36 v -1.6 c 0,-.2 -.17,-.37 -.37,-.37 z m -12.7,.1 h 1.3 v 1.57 h -1.3 z m 12.83,.4 h 1.3 v 1.4 h -1.3 z m -25.67,.55 c -.2,0 -.36,.17 -.36,.36 v 4.8 c 0,.2 .17,.36 .36,.36 h 3.06 c .2,0 .36,-.17 .36,-.36 v -4.8 c 0,-.2 -.17,-.36 -.36,-.36 z m 20.5,0 c -.2,0 -.37,.17 -.37,.36 v 4.8 c 0,.2 .17,.36 .37,.36 h 3.16 c .2,0 .37,-.17 .37,-.36 v -4.8 c 0,-.2 -.17,-.36 -.37,-.36 z m -20.37,.5 h 2.83 v 4.6 h -2.83 z m 20.5,0 h 2.93 v 4.6 h -2.93 z m -4.46,.45 c -.2,0 -.36,.17 -.36,.36 v 7.15 c 0,.2 .17,.36 .36,.36 h 2.4 c .2,0 .37,-.17 .37,-.36 v -7.15 c 0,-.2 -.17,-.36 -.37,-.36 z m -7.35,0 c -.2,0 -.36,.17 -.36,.37 v 7.13 c 0,.2 .17,.36 .36,.36 h 2 c .2,0 .36,-.17 .36,-.36 v -7.13 c 0,-.2 -.17,-.37 -.36,-.37 z m -3.9,.04 c -.2,0 -.36,.17 -.36,.36 v 7.1 c 0,.2 .17,.36 .36,.36 h 1.8 c .2,0 .36,-.17 .36,-.36 v -7.1 c 0,-.2 -.17,-.36 -.36,-.36 z m -9.05,.26 c -.2,0 -.36,.17 -.36,.36 v 3.84 c 0,.2 .17,.36 .36,.36 h 2.2 c .2,0 .36,-.17 .36,-.36 v -3.84 c 0,-.2 -.17,-.36 -.36,-.36 z m 33,0 c -.2,0 -.36,.17 -.36,.36 v 6.9 c 0,.2 .17,.37 .36,.37 h 1.7 c .2,0 .37,-.17 .37,-.37 v -6.9 c 0,-.2 -.17,-.36 -.37,-.36 z m -12.6,.17 h 2.16 v 6.9 h -2.16 z m -7.35,0 h 1.75 v 6.9 h -1.75 z m -3.9,.04 h 1.6 v 6.87 h -1.6 z m -9.05,.26 h 1.95 v 3.6 h -1.95 z m 33,0 h 1.5 v 6.66 h -1.5 z m -16.25,.35 c -.2,0 -.36,.17 -.36,.37 v 5.96 c 0,.2 .17,.37 .36,.37 h 1.6 c .2,0 .37,-.17 .37,-.37 v -5.96 c 0,-.2 -.17,-.37 -.37,-.37 z m 12.83,.1 c -.2,0 -.36,.17 -.36,.36 v 5.9 c 0,.2 .17,.36 .36,.36 h 1.46 c .2,0 .36,-.17 .36,-.36 v -5.9 c 0,-.2 -.17,-.36 -.36,-.36 z m -12.7,.4 h 1.4 v 5.73 h -1.4 z m 12.83,.1 h 1.23 v 5.7 h -1.23 z m -5.24,3.8 c -.2,0 -.36,.17 -.36,.37 v 1.66 c 0,.2 .17,.37 .36,.37 h 3.2 c .2,0 .37,-.17 .37,-.37 v -1.66 c 0,-.2 -.17,-.37 -.37,-.37 z m -20.43,.06 c -.2,0 -.36,.17 -.36,.36 v 1.55 c 0,.2 .17,.36 .36,.36 h 3 c .2,0 .37,-.17 .37,-.36 v -1.55 c 0,-.2 -.17,-.36 -.37,-.36 z m -4.1,.25 c -.2,0 -.37,.17 -.37,.37 v 1.3 c 0,.2 .17,.36 .37,.36 h 2.13 c .2,0 .36,-.17 .36,-.36 v -1.3 c 0,-.2 -.17,-.37 -.36,-.37 z m 24.63,.17 h 3 v 1.43 h -3 z m -20.43,.06 h 2.8 v 1.3 h -2.8 z m -4.1,0.25 h 1.9 v 1.07 h -1.9 z m .1,2.6 c -.2,0 -.36,.17 -.36,.36 v 1.8 c 0,.2 .17,.37 .36,.37 h 34.5 c .2,0 .36,-.17 .36,-.37 v -1.8 c 0,-.2 -.17,-.36 -.36,-.36 z m .1,.5 h 34.25 v 1.57 H 15.05 Z m 14.3,3.25 c -.2,0 -.36,.17 -.36,.36 v 2.26 c 0,.2 .17,.36 .36,.36 h 2 c .2,0 .37,-.17 .37,-.36 v -2.26 c 0,-.2 -.17,-.36 -.37,-.36 z m -10.53,.1 c -.2,0 -.36,.17 -.36,.36 v 1.37 c 0,.2 .17,.37 .36,.37 h 3.06 c .2,0 .36,-.17 .36,-.37 v -1.37 c 0,-.2 -.17,-.36 -.36,-.36 z m 10.65,.36 h 1.76 v 2.03 h -1.76 z m -10.53,.1 h 2.83 v 1.13 h -2.83 z m -4.25,.93 c -.2,0 -.36,.17 -.36,.37 v 1.5 c 0,.2 .17,.36 .36,.36 h 2.23 c .2,-10e-6 .37,-.17 .37,-.36 v -1.5 c 0,-.2 -.17,-.37 -.37,-.37 z m 9.1,0 c -.2,0 -.36,.17 -.36,.37 v 1.5 c 0,.2 .17,.36 .36,.36 h 3.37 c .2,-10e-6 .36,-.17 .36,-.36 v -1.5 c 0,-.2 -.17,-.37 -.36,-.37 z m 15.4,0 c -.2,0 -.37,.17 -.37,.37 v 1.5 c 0,.2 .17,.36 .37,.36 h 3.6 c .2,-10e-6 .37,-.17 .37,-.36 v -1.5 c 0,-.2 -.17,-.37 -.37,-.37 z m 5.5,.06 c -.2,0 -.36,.17 -.36,.36 v 1.5 c 0,.2 .17,.37 .36,.37 h 4.64 c .2,0 .36,-.17 .36,-.37 v -1.5 c 0,-.2 -.17,-.36 -.36,-.36 z m -29.9,.4 h 2 v 1.3 h -2 z m 9.1,0 h 3.14 v 1.3 h -3.14 z m 15.4,0 h 3.35 v 1.3 h -3.35 z m 5.5,.06 h 4.4 v 1.27 h -4.4 z m -26,1.13 c -.2,-1e-5 -.36,.17 -.36,.36 v 1.1 c 0,.2 .17,.37 .36,.37 h 3.07 c .2,0 .36,-.17 .36,-.37 v -1.1 c 0,-.2 -.17,-.36 -.36,-.36 z m .1,.5 h 2.84 v .85 h -2.84 z m 14.4,.1 c -.2,0 -.36,.17 -.36,.36 v 1.46 c 0,.2 .17,.36 .36,.36 h 3.94 c .2,0 .37,-.17 .37,-.36 v -1.46 c 0,-.2 -.17,-.36 -.37,-.36 z m -4.2,.05 c -.2,0 -.36,.17 -.36,.36 v 1.3 c 0,.2 .17,.36 .36,.36 h 2.23 c .2,0 .37,-.17 .37,-.36 v -1.3 c 0,-.2 -.17,-.36 -.37,-.36 z m 4.3,.43 h 3.7 v 1.23 h -3.7 z m -4.2,.05 h 2 v 1.07 h -2 z m -14.55,.4 c -.2,0 -.36,.17 -.36,.36 v 5.34 c 0,.2 .17,.36 .36,.36 h 2.23 c .2,0 .37,-.17 .37,-.36 v -5.34 c 0,-.2 -.17,-.36 -.37,-.36 z m 24.5,0 c -.2,0 -.37,.17 -.37,.36 v 5.2 c 0,.2 .17,.37 .37,.37 h 3.6 c .2,0 .37,-.17 .37,-.37 v -5.2 c 0,-.2 -.17,-.36 -.37,-.36 z m -15.46,.05 c -.2,0 -.37,.17 -.37,.36 v 5.3 c 0,.2 .17,.36 .37,.36 h 3.4 c .2,0 .36,-.17 .36,-.36 v -5.3 c 0,-.2 -.17,-.36 -.36,-.36 z m 20.9,0 c -.2,0 -.37,.17 -.37,.36 v 5.3 c 0,.2 .17,.36 .37,.36 h 4.76 c .2,0 .37,-.17 .37,-.36 v -5.3 c 0,-.2 -.17,-.36 -.37,-.36 z m -29.85,.43 h 2 v 5.1 h -2 z m 24.5,0 h 3.35 v 5 h -3.35 z m -15.46,.05 h 3.2 v 5.05 h -3.2 z m 20.9,0 h 4.53 v 5.05 h -4.53 z m -25.94,.6 c -.2,0 -.36,.17 -.36,.36 v 1.36 c 0,.2 .17,.36 .36,.36 h 3 c .2,0 .37,-.17 .37,-.36 v -1.36 c 0,-.2 -.17,-.36 -.37,-.36 z m .1,.5 h 2.8 v 1.1 h -2.8 z m 10.2,.4 c -.2,0 -.36,.17 -.36,.36 v 6.06 c 0,.2 .17,.37 .36,.37 h 2.23 c .2,0 .37,-.17 .37,-.37 v -6.06 c 0,-.2 -.17,-.36 -.37,-.36 z m 4.2,.05 c -.2,0 -.36,.17 -.36,.36 v 2.03 c 0,.2 .17,.36 .36,.36 h 4 c .2,0 .36,-.17 .36,-.36 v -2.03 c 0,-.2 -.17,-.36 -.36,-.36 z m -4.07,.43 h 2 v 5.83 h -2 z m 4.2,.05 h 3.76 v 1.8 h -3.76 z m -14.6,1.6 c -.2,0 -.36,.17 -.36,.36 v 1.2 c 0,.2 .17,.36 .36,.36 h 3.06 c .2,0 .36,-.17 .36,-.36 v -1.2 c 0,-.2 -.17,-.36 -.36,-.36 z m .1,.5 h 2.83 v .97 h -2.83 z m 14.37,1.07 c -.2,0 -.36,.17 -.36,.37 v 2.44 c 0,.2 .17,.36 .36,.36 h 4 c .2,0 .36,-.17 .36,-.36 v -2.44 c 0,-.2 -.17,-.37 -.36,-.37 z m .1,.5 h 3.76 v 2.2 h -3.76 z m -14.6,.76 c -.2,0 -.36,.17 -.36,.36 v 1.15 c 0,.2 .17,.37 .36,.37 h 3 c .2,0 .37,-.17 .37,-.37 v -1.15 c 0,-.2 -.17,-.36 -.37,-.36 z m 5,0 c -.2,0 -.37,.17 -.37,.36 v 1.15 c 0,.2 .17,.37 .37,.37 h 3.3 c .2,0 .36,-.17 .36,-.37 v -1.15 c 0,-.2 -.17,-.36 -.36,-.36 z m -9.07,.05 c -.2,0 -.37,.17 -.37,.37 v 1.1 c 0,.2 .17,.37 .37,.37 h 2.13 c .2,0 .36,-.17 .36,-.37 v -1.1 c 0,-.2 -.17,-.37 -.36,-.37 z m 24.5,0 c -.2,0 -.36,.17 -.36,.37 v 1.1 c 0,.2 .17,.37 .36,.37 h 3.5 c .2,0 .36,-.17 .36,-.37 v -1.1 c 0,-.2 -.17,-.37 -.36,-.37 z m 5.4,0 c -.2,0 -.36,.17 -.36,.37 v 1.1 c 0,.2 .17,.37 .36,.37 h 4.7 c .2,0 .36,-.17 .36,-.37 v -1.1 c 0,-.2 -.17,-.37 -.36,-.37 z m -25.7,.43 h 2.8 v .9 h -2.8 z m 5,0 h 3.07 v .9 h -3.07 z m -9.07,.05 h 1.9 v .87 h -1.9 z m 24.5,0 h 3.25 v .87 h -3.25 z m 5.4,0 h 4.5 v .87 h -4.5 z M 7.9,57.4 c -.2,0 -.36,.17 -.36,.36 v 1.9 c 0,.2 .17,.36 .36,.36 H 56.2 c .2,1e-5 .36,-.17 .36,-.36 v -1.9 c 0,-.2 -.17,-.36 -.36,-.36 z m .1,.5 H 56.07 v 1.64 H 8 Z" fill="currentColor" opacity=".6"/><path d="m 15.26,-327.2 c -.07,0 -.1,.06 -.1,.1 v 1.9 c 0,.07 .06,.1 .1,.1 h 48.37 c .07,0 .1,-.06 .1,-.1 v -1.9 c 0,-.07 -.06,-.1 -.1,-.1 z m 11.2,3.9 c -.07,0 -.1,.06 -.1,.1 v 1.77 c 0,.07 .06,.1 .1,.1 h 2.8 c .07,0 .1,-.06 .1,-.1 v -1.77 c 0,-.07 -.06,-.1 -.1,-.1 z m -8.7,2.1e-4 c -.07,0 -.1,.06 -.1,.1 v 47.9 c 0,.07 .06,.1 .1,.1 h 2.3 c .07,0 .1,-.06 .1,-.1 v -47.9 c 0,-.07 -.06,-.1 -.1,-.1 z m 4.4,.05 c -.07,0 -.1,.06 -.1,.1 v 2 c 0,.07 .06,.1 .1,.1 h 2.2 c .07,0 .1,-.06 .1,-.1 v -2 c 0,-.07 -.06,-.1 -.1,-.1 z m 26.7,0 c -.07,0 -.1,.06 -.1,.1 v 1.7 c 0,.07 .06,.1 .1,.1 h 2.96 c .07,0 .1,-.06 .1,-.1 v -1.7 c 0,-.07 -.06,-.1 -.1,-.1 z m 9.93,.04 c -.07,0 -.1,.06 -.1,.1 v 47.87 c 0,.07 .06,.1 .1,.1 h 2.3 c .07,0 .1,-.06 .1,-.1 v -47.87 c 0,-.07 -.06,-.1 -.1,-.1 z m -27.57,1.15 c -.07,0 -.1,.06 -.1,.1 v 1.3 c 0,.07 .06,.1 .1,.1 h 3.37 c .07,0 .1,-.06 .1,-.1 v -1.3 c 0,-.07 -.06,-.1 -.1,-.1 z m 22.45,0 c -.07,0 -.1,.06 -.1,.1 v 1.3 c 0,.07 .06,.1 .1,.1 h 3.06 c .07,0 .1,-.06 .1,-.1 v -1.3 c 0,-.07 -.06,-.1 -.1,-.1 z m -11.9,.83 c -.07,0 -.1,.06 -.1,.1 v 2.03 c 0,.07 .06,.1 .1,.1 h 1.6 c .07,0 .1,-.06 .1,-.1 v -2.03 c 0,-.07 -.06,-.1 -.1,-.1 z m -5.3,.5 c -.07,0 -.1,.06 -.1,.1 v 1.4 c 0,.07 .06,.1 .1,.1 h 3.27 c .07,0 .1,-.06 .1,-.1 v -1.4 c 0,-.07 -.06,-.1 -.1,-.1 z m 8.8,0 c -.07,0 -.1,.06 -.1,.1 v 1.7 c 0,.07 .06,.1 .1,.1 h 1.6 c .07,0 .1,-.06 .1,-.1 v -1.7 c 0,-.07 -.06,-.1 -.1,-.1 z m -19.04,.83 c -.07,0 -.1,.06 -.1,.1 v 5.7 c 0,.07 .06,.1 .1,.1 h 3 c .07,0 .1,-.06 .1,-.1 v -5.7 c 0,-.07 -.06,-.1 -.1,-.1 z m 22.55,0 c -.07,0 -.1,.06 -.1,.1 v 5.65 c 0,.07 .06,.1 .1,.1 h 3.06 c .07,0 .1,-.06 .1,-.1 v -5.65 c 0,-.07 -.06,-.1 -.1,-.1 z m -26.7,.6 c -.07,0 -.1,.06 -.1,.1 v .7 c 0,.07 .06,.1 .1,.1 h 2.23 c .07,0 .1,-.06 .1,-.1 v -.7 c 0,-.07 -.06,-.1 -.1,-.1 z m 31.55,.1 c -.07,0 -.1,.06 -.1,.1 v 5.3 c 0,.07 .06,.1 .1,.1 h 3.1 c .07,0 .1,-.06 .1,-.1 v -5.3 c 0,-.07 -.06,-.1 -.1,-.1 z m -22.5,.06 c -.07,0 -.1,.06 -.1,.1 v 5.4 c 0,.07 .06,.1 .1,.1 h 3.43 c .07,0 .1,-.06 .1,-.1 v -5.4 c 0,-.07 -.06,-.1 -.1,-.1 z m 5.33,1.4 c -.07,0 -.1,.06 -.1,.1 v 3.94 c 0,.07 .06,.1 .1,.1 h 3.2 c .07,0 .1,-.06 .1,-.1 v -3.94 c 0,-.07 -.06,-.1 -.1,-.1 z m 5.2,.16 c -.07,0 -.1,.06 -.1,.1 v 6.53 c 0,.07 .06,.1 .1,.1 h 1.67 c .07,0 .1,-.06 .1,-.1 v -6.53 c 0,-.07 -.06,-.1 -.1,-.1 z m 3.57,.16 c -.07,0 -.1,.06 -.1,.1 v 6.37 c 0,.07 .06,.1 .1,.1 h 1.6 c .07,0 .1,-.06 .1,-.1 v -6.37 c 0,-.07 -.06,-.1 -.1,-.1 z m -23.17,.5 c -.07,0 -.1,.06 -.1,.1 v 5.86 c 0,.07 .06,.1 .1,.1 h 2.23 c .07,0 .1,-.06 .1,-.1 v -5.86 c 0,-.07 -.06,-.1 -.1,-.1 z m 4.2,4.3 c -.07,0 -.1,.06 -.1,.1 v 1.5 c 0,.07 .06,.1 .1,.1 h 2.96 c .07,0 .1,-.06 .1,-.1 v -1.5 c 0,-.07 -.06,-.1 -.1,-.1 z m 22.55,0 c -.07,0 -.1,.06 -.1,.1 v 1.56 c 0,.07 .06,.1 .1,.1 h 3 c .07,0 .1,-.06 .1,-.1 v -1.56 c 0,-.07 -.06,-.1 -.1,-.1 z m -17.64,.47 c -.07,0 -.1,.06 -.1,.1 v 1.1 c 0,.07 .06,.1 .1,.1 h 3.37 c .07,0 .1,-.06 .1,-.1 v -1.1 c 0,-.07 -.06,-.1 -.1,-.1 z m 5.3,0 c -.07,0 -.1,.06 -.1,.1 v 1.1 c 0,.07 .06,.1 .1,.1 h 3.3 c .07,0 .1,-.06 .1,-.1 v -1.1 c 0,-.07 -.06,-.1 -.1,-.1 z m 17.17,0 c -.07,0 -.1,.06 -.1,.1 v 1.1 c 0,.07 .06,.1 .1,.1 h 3.17 c .07,0 .1,-.06 .1,-.1 v -1.1 c 0,-.07 -.06,-.1 -.1,-.1 z m -31.66,2.9 c -.07,0 -.1,.06 -.1,.1 v 1.77 c 0,.07 .06,.1 .1,.1 H 56.8 c .07,0 .1,-.06 .1,-.1 v -1.77 c 0,-.07 -.06,-.1 -.1,-.1 z m 24.8,3.8 c -.07,0 -.1,.06 -.1,.1 v 2.06 c 0,.07 .06,.1 .1,.1 h 3.1 c .07,0 .1,-.06 .1,-.1 v -2.06 c 0,-.07 -.06,-.1 -.1,-.1 z m -20.57,.04 c -.07,0 -.1,.06 -.1,.1 v 2 c 0,.07 .06,.1 .1,.1 h 3.06 c .07,0 .1,-.06 .1,-.1 v -2 c 0,-.07 -.06,-.1 -.1,-.1 z m 8.8,.06 c -.07,0 -.1,.06 -.1,.1 v 2.8 c 0,.07 .06,.1 .1,.1 h 1.8 c .07,0 .1,-.06 .1,-.1 v -2.8 c 0,-.07 -.06,-.1 -.1,-.1 z m 7.4,1.33 c -.07,0 -.1,.06 -.1,.1 v 1.5 c 0,.07 .06,.1 .1,.1 h 2.34 c .07,0 .1,-.06 .1,-.1 v -1.5 c 0,-.07 -.06,-.1 -.1,-.1 z m -11.2,.05 c -.07,0 -.1,.06 -.1,.1 v 1.5 c 0,.07 .06,.1 .1,.1 h 1.8 c .07,0 .1,-.06 .1,-.1 v -1.5 c 0,-.07 -.06,-.1 -.1,-.1 z m 23.9,0 c -.07,0 -.1,.06 -.1,.1 v 1.77 c 0,.07 .06,.1 .1,.1 h 1.67 c .07,0 .1,-.06 .1,-.1 v -1.77 c 0,-.07 -.06,-.1 -.1,-.1 z m -33,.2 c -.07,0 -.1,.06 -.1,.1 v 1.5 c 0,.07 .06,.1 .1,.1 h 2.23 c .07,0 .1,-.06 .1,-.1 v -1.5 c 0,-.07 -.06,-.1 -.1,-.1 z m 16.86,.53 c -.07,0 -.1,.06 -.1,.1 v 1.8 c 0,.07 .06,.1 .1,.1 h 1.5 c .07,0 .1,-.06 .1,-.1 v -1.8 c 0,-.07 -.06,-.1 -.1,-.1 z m 12.83,.4 c -.07,0 -.1,.06 -.1,.1 v 1.6 c 0,.07 .06,.1 .1,.1 h 1.5 c .07,0 .1,-.06 .1,-.1 v -1.6 c 0,-.07 -.06,-.1 -.1,-.1 z m -25.55,1.03 c -.07,0 -.1,.06 -.1,.1 v 4.8 c 0,.07 .06,.1 .1,.1 h 3.06 c .07,0 .1,-.06 .1,-.1 v -4.8 c 0,-.07 -.06,-.1 -.1,-.1 z m 20.5,0 c -.07,0 -.1,.06 -.1,.1 v 4.8 c 0,.07 .06,.1 .1,.1 h 3.17 c .07,0 .1,-.06 .1,-.1 v -4.8 c 0,-.07 -.06,-.1 -.1,-.1 z m -4.34,.93 c -.07,0 -.1,.06 -.1,.1 v 7.15 c 0,.07 .06,.1 .1,.1 h 2.4 c .07,0 .1,-.06 .1,-.1 v -7.15 c 0,-.07 -.06,-.1 -.1,-.1 z m -7.35,0 c -.07,0 -.1,.06 -.1,.1 v 7.14 c 0,.07 .06,.1 .1,.1 h 2 c .07,0 .1,-.06 .1,-.1 v -7.14 c 0,-.07 -.06,-.1 -.1,-.1 z m -3.9,.04 c -.07,0 -.1,.06 -.1,.1 v 7.1 c 0,.07 .06,.1 .1,.1 h 1.8 c .07,0 .1,-.06 .1,-.1 v -7.1 c 0,-.07 -.06,-.1 -.1,-.1 z m -9.05,.26 c -.07,0 -.1,.06 -.1,.1 v 3.84 c 0,.07 .06,.1 .1,.1 h 2.2 c .07,0 .1,-.06 .1,-.1 v -3.84 c 0,-.07 -.06,-.1 -.1,-.1 z m 33,0 c -.07,0 -.1,.06 -.1,.1 v 6.9 c 0,.07 .06,.1 .1,.1 h 1.7 c .07,0 .1,-.06 .1,-.1 v -6.9 c 0,-.07 -.06,-.1 -.1,-.1 z m -16.14,.83 c -.07,0 -.1,.06 -.1,.1 v 5.96 c 0,.07 .06,.1 .1,.1 h 1.6 c .07,0 .1,-.06 .1,-.1 v -5.96 c 0,-.07 -.06,-.1 -.1,-.1 z m 12.83,.1 c -.07,0 -.1,.06 -.1,.1 v 5.9 c 0,.07 .06,.1 .1,.1 h 1.46 c .07,0 .1,-.06 .1,-.1 v -5.9 c 0,-.07 -.06,-.1 -.1,-.1 z m -5.1,4.3 c -.07,0 -.1,.06 -.1,.1 v 1.67 c 0,.07 .06,.1 .1,.1 h 3.2 c .07,0 .1,-.06 .1,-.1 v -1.67 c 0,-.07 -.06,-.1 -.1,-.1 z m -20.43,.06 c -.07,0 -.1,.06 -.1,.1 v 1.55 c 0,.07 .06,.1 .1,.1 h 3 c .07,0 .1,-.06 .1,-.1 v -1.55 c 0,-.07 -.06,-.1 -.1,-.1 z m -4.1,.25 c -.07,0 -.1,.06 -.1,.1 v 1.3 c 0,.07 .06,.1 .1,.1 h 2.13 c .07,0 .1,-.06 .1,-.1 v -1.3 c 0,-.07 -.06,-.1 -.1,-.1 z m .2,3.07 c -.07,0 -.1,.06 -.1,.1 v 1.8 c 0,.07 .06,.1 .1,.1 H 56.87 c .07,0 .1,-.06 .1,-.1 v -1.8 c 0,-.07 -.06,-.1 -.1,-.1 z m 14.43,3.73 c -.07,0 -.1,.06 -.1,.1 v 2.26 c 0,.07 .06,.1 .1,.1 h 2 c .07,0 .1,-.06 .1,-.1 v -2.26 c 0,-.07 -.06,-.1 -.1,-.1 z m -10.53,.1 c -.07,0 -.1,.06 -.1,.1 v 1.37 c 0,.07 .06,.1 .1,.1 h 3.06 c .07,0 .1,-.06 .1,-.1 v -1.37 c 0,-.07 -.06,-.1 -.1,-.1 z m -4.14,1.4 c -.07,0 -.1,.06 -.1,.1 v 1.5 c 0,.07 .06,.1 .1,.1 h 2.23 c .07,0 .1,-.06 .1,-.1 v -1.5 c 0,-.07 -.06,-.1 -.1,-.1 z m 9.1,0 c -.07,0 -.1,.06 -.1,.1 v 1.5 c 0,.07 .06,.1 .1,.1 h 3.37 c .07,0 .1,-.06 .1,-.1 v -1.5 c 0,-.07 -.06,-.1 -.1,-.1 z m 15.4,0 c -.07,0 -.1,.06 -.1,.1 v 1.5 c 0,.07 .06,.1 .1,.1 h 3.6 c .07,0 .1,-.06 .1,-.1 v -1.5 c 0,-.07 -.06,-.1 -.1,-.1 z m 5.5,.06 c -.07,0 -.1,.06 -.1,.1 v 1.5 c 0,.07 .06,.1 .1,.1 h 4.64 c .07,0 .1,-.06 .1,-.1 v -1.5 c 0,-.07 -.06,-.1 -.1,-.1 z m -25.9,1.6 c -.07,0 -.1,.06 -.1,.1 v 1.1 c 0,.07 .06,.1 .1,.1 h 3.07 c .07,0 .1,-.06 .1,-.1 v -1.1 c 0,-.07 -.06,-.1 -.1,-.1 z m 14.5,.6 c -.07,0 -.1,.06 -.1,.1 v 1.46 c 0,.07 .06,.1 .1,.1 h 3.94 c .07,0 .1,-.06 .1,-.1 v -1.46 c 0,-.07 -.06,-.1 -.1,-.1 z m -4.2,.05 c -.07,0 -.1,.06 -.1,.1 v 1.3 c 0,.07 .06,.1 .1,.1 h 2.23 c .07,0 .1,-.06 .1,-.1 v -1.3 c 0,-.07 -.06,-.1 -.1,-.1 z m -14.43,.9 c -.07,0 -.1,.06 -.1,.1 v 5.34 c 0,.07 .06,.1 .1,.1 h 2.23 c .07,0 .1,-.06 .1,-.1 v -5.34 c 0,-.07 -.06,-.1 -.1,-.1 z m 24.5,0 c -.07,0 -.1,.06 -.1,.1 v 5.2 c 0,.07 .06,.1 .1,.1 h 3.6 c .07,0 .1,-.06 .1,-.1 v -5.2 c 0,-.07 -.06,-.1 -.1,-.1 z m -15.46,.05 c -.07,0 -.1,.06 -.1,.1 v 5.3 c 0,.07 .06,.1 .1,.1 h 3.4 c .07,0 .1,-.06 .1,-.1 v -5.3 c 0,-.07 -.06,-.1 -.1,-.1 z m 20.9,0 c -.07,0 -.1,.06 -.1,.1 v 5.3 c 0,.07 .06,.1 .1,.1 h 4.76 c .07,0 .1,-.06 .1,-.1 v -5.3 c 0,-.07 -.06,-.1 -.1,-.1 z m -25.8,1.1 c -.07,0 -.1,.06 -.1,.1 v 1.36 c 0,.07 .06,.1 .1,.1 h 3 c .07,0 .1,-.06 .1,-.1 v -1.36 c 0,-.07 -.06,-.1 -.1,-.1 z m 10.3,.9 c -.07,0 -.1,.06 -.1,.1 v 6.06 c 0,.07 .06,.1 .1,.1 h 2.23 c .07,0 .1,-.06 .1,-.1 v -6.06 c 0,-.07 -.06,-.1 -.1,-.1 z m 4.2,.05 c -.07,0 -.1,.06 -.1,.1 v 2.03 c 0,.07 .06,.1 .1,.1 h 4 c .07,0 .1,-.06 .1,-.1 v -2.03 c 0,-.07 -.06,-.1 -.1,-.1 z m -14.5,2.07 c -.07,0 -.1,.06 -.1,.1 v 1.2 c 0,.07 .06,.1 .1,.1 h 3.06 c .07,0 .1,-.06 .1,-.1 v -1.2 c 0,-.07 -.06,-.1 -.1,-.1 z m 14.5,1.55 c -.07,0 -.1,.06 -.1,.1 v 2.44 c 0,.07 .06,.1 .1,.1 h 4 c .07,0 .1,-.06 .1,-.1 v -2.44 c 0,-.07 -.06,-.1 -.1,-.1 z m -14.5,1.24 c -.07,0 -.1,.06 -.1,.1 v 1.15 c 0,.07 .06,.1 .1,.1 h 3 c .07,0 .1,-.06 .1,-.1 v -1.15 c 0,-.07 -.06,-.1 -.1,-.1 z m 5,0 c -.07,0 -.1,.06 -.1,.1 v 1.15 c 0,.07 .06,.1 .1,.1 h 3.3 c .07,0 .1,-.06 .1,-.1 v -1.15 c 0,-.07 -.06,-.1 -.1,-.1 z m -9.07,.05 c -.07,0 -.1,.06 -.1,.1 v 1.1 c 0,.07 .06,.1 .1,.1 h 2.13 c .07,0 .1,-.06 .1,-.1 v -1.1 c 0,-.07 -.06,-.1 -.1,-.1 z m 24.5,0 c -.07,0 -.1,.06 -.1,.1 v 1.1 c 0,.07 .06,.1 .1,.1 h 3.5 c .07,0 .1,-.06 .1,-.1 v -1.1 c 0,-.07 -.06,-.1 -.1,-.1 z m 5.4,0 c -.07,0 -.1,.06 -.1,.1 v 1.1 c 0,.07 .06,.1 .1,.1 h 4.7 c .07,0 .1,-.06 .1,-.1 v -1.1 c 0,-.07 -.06,-.1 -.1,-.1 z m -36.73,2.95 c -.07,0 -.1,.06 -.1,.1 v 1.9 c 0,.07 .06,.1 .1,.1 H 63.64 c .07,0 .1,-.06 .1,-.1 v -1.9 c 0,-.07 -.06,-.1 -.1,-.1 z" fill="currentColor" opacity=".6"/></g><use href="#umd" opacity=".4"></use><use fill="url(#uma)" href="#umd" opacity=".2"></use><path d="m 54,32 c -6,0 -6,4 -14,4 H 14 c -3.3,0 -6,2.7 -6,6 v 64 c 0,3.3 2.7,6 6,6 h 100 c 3.3,0 6,-2.7 6,-6 V 52 42 38 c 0,-3.3 -2.7,-6 -6,-6 z" fill="url(#um9)" opacity=".2"/><path class="ColorScheme-Contrast" d="m 8,105 v 1 c 0,3.3 2.7,6 6,6 h 100 c 3.3,0 6,-2.7 6,-6 v -1 c 0,3.3 -2.7,6 -6,6 H 14 c -3.3,0 -6,-2.7 -6,-6 z" fill="currentColor" opacity=".1"/><path class="ColorScheme-Contrast" d="m 8,105.5 v 0.5 c 0,3.3 2.7,6 6,6 h 100 c 3.3,0 6,-2.7 6,-6 v -0.5 c 0,3.3 -2.7,6 -6,6 H 14 c -3.3,0 -6,-2.7 -6,-6 z" fill="currentColor" opacity=".2"/><path d="m 54,32 c -6,0 -6,4 -14,4 H 14 c -3.3,0 -6,2.7 -6,6 v 1 c 0,-3.3 2.7,-6 6,-6 h 26 c 8,0 8,-4 14,-4 h 60 c 3.3,0 6,2.7 6,6 v -1 c 0,-3.3 -2.7,-6 -6,-6 z" fill="#fff" opacity=".1"/><path d="m 54,32 c -6,0 -6,4 -14,4 H 14 c -3.3,0 -6,2.7 -6,6 v 0.5 c 0,-3.3 2.7,-6 6,-6 h 26 c 8,0 8,-4 14,-4 h 60 c 3.3,0 6,2.7 6,6 V 38 c 0,-3.3 -2.7,-6 -6,-6 z" fill="#fff" opacity=".2"/><path d="m 54,31 c -6,0 -6,4 -14,4 H 14 v 1 h 26 c 8,0 8,-4 14,-4 h 60 v -1 z" opacity=".1"/><path d="m 54,31.5 c -6,0 -6,4 -14,4 H 14 V 36 h 26 c 8,0 8,-4 14,-4 h 60 v -0.5 z" opacity=".2"/></g>
</svg>