<svg height="128" version="1.1" width="128" xmlns="http://www.w3.org/2000/svg" xmlns:svg="http://www.w3.org/2000/svg" xmlns:xlink="http://www.w3.org/1999/xlink">
<defs id="primary-definitions">
<style id="current-color-scheme" type="text/css">
      .ColorScheme-Text         { color: #232629; }
      .ColorScheme-Background   { color: #eff0f1; }
      .ColorScheme-Highlight    { color: #7ec9f0; }
      .ColorScheme-PositiveText { color: #27ae60; }
      .ColorScheme-NeutralText  { color: #f67400; }
      .ColorScheme-NegativeText { color: #da4453; }
      .ColorScheme-ActiveText   { color: #3daee9; }
      .ColorScheme-Complement   { color: #ffffff; }
      .ColorScheme-Contrast     { color: #000000; }
    </style>
<style id="extended-color-scheme" type="text/css">
      .ExScheme-Black     { color:#3e3e3e; }
      .ExScheme-White     { color:#fcfcfc; }
      .ExScheme-Grey-1    { color:#cfd5d5; }
      .ExScheme-Grey-2    { color:#909c9c; }
      .ExScheme-Grey-3    { color:#536161; }
      .ExScheme-Red-1     { color:#ffafa5; }
      .ExScheme-Red-2     { color:#bf4231; }
      .ExScheme-Red-3     { color:#4d2f2b; }
      .ExScheme-Green-1   { color:#abf9c7; }
      .ExScheme-Green-2   { color:#3bb566; }
      .ExScheme-Green-3   { color:#377d50; }
      .ExScheme-Blue-1    { color:#abdaf9; }
      .ExScheme-Blue-2    { color:#3daefd; }
      .ExScheme-Blue-3    { color:#2b3c4d; }
      .ExScheme-Yellow-1  { color:#faffa5; }
      .ExScheme-Yellow-2  { color:#cac726; }
      .ExScheme-Yellow-3  { color:#4b4d2b; }
      .ExScheme-Orange-1  { color:#ffdaa5; }
      .ExScheme-Orange-2  { color:#ff9701; }
      .ExScheme-Orange-3  { color:#4d372b; }
      .ExScheme-Brown-1   { color:#e9d6bb; }
      .ExScheme-Brown-2   { color:#997657; }
      .ExScheme-Brown-3   { color:#433a35; }
      .ExScheme-Purple-1  { color:#e2abf9; }
      .ExScheme-Purple-2  { color:#b401ff; }
      .ExScheme-Purple-3  { color:#432b4d; }
      .ExScheme-Cyan-1    { color:#b2f2e6; }
      .ExScheme-Cyan-2    { color:#31bfa6; }
      .ExScheme-Cyan-3    { color:#2b4d47; }
      .ExScheme-Magenta-1 { color:#f8a6d8; }
      .ExScheme-Magenta-2 { color:#f00091; }
      .ExScheme-Magenta-3 { color:#770048; }
    </style>
<linearGradient id="uhu">
<stop offset="0"/>
<stop offset="1" stop-opacity="0"/>
</linearGradient>
<linearGradient id="uhv">
<stop offset="0" stop-color="#fff"/>
<stop offset="1" stop-color="#fff" stop-opacity="0"/>
</linearGradient>
<style id="uhw" type="text/css">
        .force-display-for-editing { display: inline !important; }
    </style><style class="remove-if__show-crease" type="text/css">
        .enable-if__show-crease { display: none; }
    </style><style class="remove-if__color-sync-mimes-places" type="text/css">
        .enable-if__color-sync-mimes-places { display: none; }
    </style><radialGradient cx=".5" cy="0" id="uhx" r="1" xlink:href="#uhv"/><linearGradient id="uhy" xlink:href="#uhu" y1="1" y2=".5"/><style class="ColorScheme-Background" fill="currentColor" opacity=".6" type="text/css">
   .ColorScheme-Text           { color:#eff0f1; }
      .ColorScheme-Background     { color:#31363b; }
      .ColorScheme-Highlight      { color:#3daefd; }
      .ColorScheme-ViewBackground { color:#fcfcfc; }
      .ColorScheme-PositiveText   { color:#27ae60; }
      .ColorScheme-NeutralText    { color:#f67400; }
      .ColorScheme-NegativeText   { color:#da4453; }
  </style><path d="m 20,16 c -3.3,0 -6,2.7 -6,6 v 14 c -3.3,0 -6,2.7 -6,6 v 64 c 0,3.3 2.7,6 6,6 h 100 c 3.3,0 6,-2.7 6,-6 V 52 42 38 c 0,-3.3 -2.7,-6 -6,-6 v -6 c 0,-3.3 -2.7,-6 -6,-6 H 56 c -8,0 -8,-4 -14,-4 z" id="uhz"></path><path d="m 20,16 c -3.3,0 -6,2.7 -6,6 v 14 h 26 c 8,0 8,-4 14,-4 h 60 v -6 c 0,-3.3 -2.7,-6 -6,-6 H 56 c -8,0 -8,-4 -14,-4 z" id="uhA"></path></defs>
<g id="content" transform="translate(0,0)"><use class="sync-color enable-if__color-sync-mimes-places force-display-for-editing ColorScheme-ActiveText" fill="currentColor" href="#uhz"></use><use class="primary-color remove-if__color-sync-mimes-places ColorScheme-ActiveText" fill="#d70a53" href="#uhz"></use><use class="ColorScheme-Contrast" fill="currentColor" href="#uhz" opacity=".1"></use><g id="decal" transform="translate(32,42)"><path class="ColorScheme-Background" clip-rule="nonzero" color-interpolation="sRGB" color-interpolation-filters="linearRGB" color-rendering="auto" connector-curvature="0" d="M 35.63,57.85 C 32.84,57.4 28.84,55.8 26.36,54.2 20.9,50.64 17.37,46.7 15.17,41.8 14.44,40.15 14.04,38.9 12.9,34.56 12.6,33.5 12.26,32.4 12.1,31.93 c -.25,-.63 -.26,-.84 -.15,-2.93 .1,-2 .44,-4.67 .6,-4.95 .03,-.05 .1,-.07 .2,-.03 .2,.13 .43,-.5 .63,-1.87 .1,-.76 .3,-1.56 .4,-1.8 .1,-.2 .27,-.7 .4,-1.05 .25,-.84 .6,-1.5 1.65,-3.1 .46,-.7 .95,-1.5 1.07,-1.73 .15,-.3 .3,-.4 .46,-.4 .14,.03 .4,-.15 .63,-.5 1.07,-1.4 6.14,-5.6 6.6,-5.46 .13,.04 .66,-.14 1.2,-.4 .95,-.46 1.37,-.57 1.37,-.35 0,.06 -.14,.2 -.3,.3 -.3,.2 -.3,.2 .17,.1 .26,-.06 .7,-.15 1,-.2 .34,-.06 .5,-.14 .43,-.26 -.04,-.1 .06,-.2 .24,-.25 .47,-.1 1.2,-.1 1.2,.03 0,.16 -.4,.3 -.75,.3 -.23,-0 -.24,-0 -.07,.1 .17,.1 .17,.13 0,.14 -.1,0 -.16,.04 -.1,.1 .04,.04 .33,-.05 .63,-.2 .3,-.15 .86,-.33 1.23,-.4 .46,-.1 .7,-.2 .7,-.34 0,-.2 .2,-.2 1.66,-.1 .9,.05 2.3,.2 3.06,.3 1.4,.2 1.4,.2 1.93,-.07 .63,-.35 1.64,-.4 1.9,-.1 .1,.1 .36,.3 .6,.4 .37,.2 .4,.2 .24,0 -.3,-.35 -0,-.34 1.16,.03 3.74,1.2 6.8,3.34 9.04,6.35 .54,.7 .57,1.03 .06,.6 l -.3,-.25 .2,.4 c .1,.23 .2,.5 .2,.57 0,.1 .36,.7 .8,1.4 1,1.55 1.27,2.07 1.2,2.26 -.03,.1 -.47,-.46 -.97,-1.2 -.5,-.75 -1.26,-1.76 -1.67,-2.24 -.6,-.7 -.77,-.85 -.9,-.7 -.1,.1 -.3,.2 -.45,.23 l -.3,.04 .3,.56 c .16,.3 .3,.5 .35,.4 .14,-.4 .8,.13 1.1,.9 .1,.25 .36,.77 .6,1.15 .2,.4 .37,.7 .34,.75 -.03,.03 -.23,-.07 -.45,-.23 l -.4,-.3 .26,.43 c .14,.24 .4,.53 .54,.65 .2,.15 .3,.4 .3,.74 0,.67 .4,1.45 .63,1.25 .34,-.3 .4,-.1 .3,.94 -.06,.8 -.03,1.3 .1,1.84 .23,.83 .2,1.03 -.15,.65 -.2,-.25 -.2,-.25 -.1,0 .2,.55 .35,1.37 .3,1.7 -.1,.6 -.3,.35 -.4,-.4 l -.1,-.75 -0,.8 c -0,.44 -.1,1.3 -.24,1.9 -.1,.6 -.2,1.34 -.14,1.65 .1,.6 0,.6 -.5,.2 -.2,-.17 -.24,-.14 -.4,.37 -.1,.43 -.1,.67 0,1.03 .1,.26 .14,.6 .1,.8 -.06,.4 -.4,.5 -.4,.14 0,-.46 -.2,-.3 -.75,.67 -1.5,2.6 -3.9,4.64 -6.63,5.6 -1.6,.56 -2.7,.77 -4.5,.87 l -1.63,.1 .8,.24 c .65,.2 1.03,.2 1.97,.15 1.23,-.1 2.67,-.35 3.3,-.6 .26,-.1 .44,-.1 .53,-0 .2,.2 -1.7,1 -2.8,1.2 -1.9,.3 -4.46,-.03 -6.7,-.9 -1.53,-.6 -3.8,-2.1 -3.45,-2.3 .07,-.04 .5,.16 .96,.44 .6,.36 .84,.45 .84,.3 0,-.25 .1,-.24 .56,.1 .4,.3 1.73,.83 2.66,1.1 1,.3 .63,-.06 -.75,-.7 -4.34,-1.94 -6.14,-3.9 -7.04,-7.6 -.33,-1.36 0,-4.33 .6,-5.27 .15,-.24 .3,-.53 .3,-.65 0,-.5 .9,-1.9 1.8,-2.76 1.6,-1.55 3.3,-2.2 5.5,-2.1 1.06,.05 1.5,.14 2.4,.47 1,.4 2.25,1.2 1.87,1.2 -.1,0 -.5,-.13 -.9,-.3 -.6,-.24 -1,-.3 -2.34,-.3 -1.9,-0 -2.84,.25 -4.2,1.17 -1.93,1.3 -3,2.8 -3.4,4.73 -.25,1.3 -.26,1.65 -.06,2.93 .1,.74 .2,.95 .34,.9 .1,-.04 .2,0 .2,.2 0,.46 1.04,2.3 1.76,3.14 1.73,2 4.53,3.27 7.2,3.27 1.4,0 2.5,-.25 3.5,-.8 .4,-.2 .93,-.5 1.16,-.6 .8,-.4 1.3,-.8 1.85,-1.66 .3,-.46 .66,-.84 .77,-.84 .15,0 .15,.07 -.04,.36 -.6,.96 .8,-.8 1.55,-1.9 l .8,-1.25 -.1,-.8 c -.1,-.8 -.07,-.84 .3,-1.24 .4,-.4 .4,-.5 .46,-1.5 .04,-.9 0,-1.1 -.16,-1.1 -.16,-8.99e-4 -.2,-.24 -.3,-1.04 -.1,-1.06 -1,-4.6 -1.2,-4.75 -.06,-.04 -.24,-.4 -.4,-.76 -.5,-1.3 -1.4,-2.5 -2.8,-3.87 -2,-1.94 -4.53,-3.44 -6.9,-4.2 -2.03,-.57 -5.5,-.36 -7.93,.47 -1.2,.4 -2.4,.94 -2.6,1.17 -.1,.1 -.2,.16 -.3,.1 -.07,-.04 -.05,-.16 .05,-.3 .45,-.5 -1.05,.43 -2,1.3 -.6,.5 -1.1,.95 -1.1,.97 -.03,0 .1,8.98e-4 .25,-.04 .27,-.07 .3,-.05 .14,.2 -.1,.17 -.6,.5 -1.2,.74 -1,.45 -1.7,.94 -2.2,1.64 -.2,.3 -.2,.34 -.06,.3 .1,-.04 .2,-0 .2,.06 0,.37 -.35,.8 -.87,1.03 -1.15,.54 -3.2,3.4 -4.27,6.05 -.5,1.2 -.5,1.14 -.2,1.14 .3,0 .26,.3 -.1,1.93 -.56,2.37 -.56,2.3 .05,5.6 .74,4.06 1.17,5.4 2,6.25 .2,.2 .4,.6 .46,1.04 .1,.5 .27,.83 .6,1.15 .3,.3 .4,.46 .27,.5 -.2,.07 .46,1.04 1.07,1.53 .3,.25 .54,.33 .8,.3 .54,-.1 1.1,.2 1.94,1.05 .9,.9 .97,1.13 .4,1.04 -.4,-.05 -.4,-.04 -.2,.23 .1,.16 .5,.53 .87,.83 .5,.4 .66,.6 .6,.8 -.1,.3 .2,.55 .8,.8 .4,.14 .5,.44 .2,.53 -.1,.03 .45,.55 1.2,1.17 .83,.7 1.4,1.1 1.47,1 .2,-.2 .5,-.14 .5,.1 0,.27 .24,.55 1.1,1.3 .54,.47 .7,.53 1,.44 .3,-.1 .5,-.03 .93,.25 .86,.56 1.4,.8 1.8,.8 .44,0 .5,.1 .27,.53 -.1,.2 -.1,.25 .2,.25 .2,0 .7,.1 1.1,.26 1,.33 1.4,.35 1.15,.06 -.36,-.4 0,-.3 1.33,.4 1.8,1 2.74,1.1 6.37,.77 .54,-.05 .7,-0 .7,.1 0,.1 -.47,.3 -1.3,.5 -1.13,.26 -1.73,.3 -4.03,.34 -1.8,0 -3.06,-.03 -3.77,-.14 z m -1.85,-19.5 c 0,-.03 -.17,-.15 -.37,-.27 l -.37,-.2 .3,.27 c .3,.26 .43,.3 .43,.2 z M 52.44,24.7 c -.04,-.1 -.1,-.07 -.1,.1 -0,.14 .03,.2 .07,.17 .05,-.04 .05,-.16 0,-.25 z M 21.6,11 c .17,-.2 .16,-.2 -.05,-.05 -.13,.1 -.24,.2 -.24,.23 0,.1 .1,.04 .3,-.2 z m 1.54,-1.2 c .13,-.14 .2,-.26 .2,-.26 -.04,0 -.2,.1 -.3,.26 -.13,.14 -.2,.26 -.2,.26 .04,0 .2,-.1 .3,-.26 z M 24.84,8.86 c .45,-.15 .7,-.17 .8,-.1 .1,.1 .44,.04 1.1,-.17 .53,-.17 .93,-.3 .9,-.35 -.03,-.03 -.46,.1 -.96,.24 -.7,.2 -.93,.25 -1,.13 -.13,-.2 -1.36,.2 -1.9,.6 l -.36,.3 .4,-.2 c .2,-.1 .7,-.3 1.05,-.44 z m 3.9,-.33 c .4,-.1 .7,-.23 .66,-.25 -.06,-.06 -1.47,.3 -1.47,.4 0,.1 0,.1 .8,-.15 z m 2.25,-.7 .54,-.1 -.47,-0 c -.26,-0 -.63,.1 -.8,.2 -.2,.13 -.24,.17 -.07,.1 .15,-.05 .5,-.14 .8,-.2 z m 1.1,-.25 c .04,-.06 -.05,-.1 -.2,-.05 -.3,.1 -.36,.17 -.1,.17 .1,0 .23,-.05 .27,-.1 z m 4.4,.04 c -.05,-.04 -.16,-.05 -.26,-0 -.1,.04 -.1,.07 .1,.1 .14,0 .2,-.03 .2,-.07 z m -.8,-.14 c -.13,-.03 -.34,-.03 -.47,0 -.13,.03 -0,.06 .24,.06 .26,0 .37,-.03 .24,-.06 z m -1.35,-.13 c -.3,-.03 -.77,-.03 -1.1,-8.51e-4 -.3,.03 -.1,.05 .5,.05 .6,4.73e-4 .86,-0 .6,-.05 z m -1.77,-.1 c -.05,-.04 -.16,-.05 -.26,-0 -.1,.04 -.1,.07 .1,.1 .14,0 .2,-.03 .2,-.07 z M 31.6,38.5 c -1.4,-.95 -1.9,-1.44 -1.9,-1.8 0,-.2 .05,-.36 .1,-.36 .2,0 2.5,2.3 2.45,2.46 -.03,.1 -.3,-.03 -.67,-.3 z M 30.9,36.1 c -.7,-.7 -.95,-1.07 -.66,-1.07 .17,0 1.5,1.47 1.5,1.66 0,.1 -0,.16 -.04,.16 -0,0 -.4,-.34 -.8,-.75 z m 7.94,-2.85 c -.4,-.15 -.14,-.4 .47,-.55 .35,-.07 .9,-.25 1.25,-.4 .33,-.14 .63,-.24 .66,-.2 .03,.03 -.1,.3 -.34,.64 -.4,.6 -.4,.6 -1.13,.6 -.4,-0 -.8,-.04 -.9,-.1 z m 4.07,-2.9 c -.37,-.14 -.4,-.4 -.1,-1.2 .26,-.7 .53,-.84 .4,-.2 -.05,.23 -.13,.57 -.16,.75 l -.06,.33 .27,-.3 c .16,-.2 .3,-.6 .36,-1 .05,-.4 .15,-.7 .2,-.64 .17,.1 .15,1.13 -.03,1.8 -.16,.6 -.3,.67 -.9,.44 z M 10.8,28.7 c -.05,-.1 -.1,-.56 -.1,-1 0,-.57 .05,-.77 .17,-.73 .2,.06 .3,1.9 .1,1.9 -.07,0 -.16,-.1 -.2,-.2 z m 32.6,-3.04 c -.2,-.27 -.3,-.5 -.2,-.7 .1,-.47 .44,-.4 .7,.14 .37,.85 .05,1.24 -.46,.6 z m -32.65,-2.07 c -0,-.74 -7.1e-5,-.76 .34,-.75 .3,0 .36,.1 .4,.4 .04,.37 -.4,1.1 -.63,1.1 -.05,0 -.1,-.34 -.1,-.76 z M 45.93,7.6 c 0,-1.16 .2,-1.56 .4,-.74 .1,.57 -.03,1.57 -.25,1.74 -.1,.1 -.15,-.16 -.14,-1 z M 28.1,6.9 c .05,-.16 1.9,-.9 2.27,-.9 .4,0 -.3,.5 -1.16,.76 -.94,.3 -1.2,.35 -1.1,.13 z" display="inline" enable-background="accumulate" fill="currentColor" image-rendering="auto" isolation="auto" mix-blend-mode="normal" opacity=".6" overflow="visible" shape-rendering="auto" solid-color="#000000" solid-opacity="1" text-rendering="auto" visibility="visible"/><path class="ColorScheme-Background" d="m 30.4,6 c -.35,0 -2.2,.74 -2.27,.9 -.07,.2 .17,.2 1.1,-.13 C 30.06,6.5 30.8,6 30.4,6 Z m 15.74,.4 c -.1,0 -.2,.45 -.2,1.17 -0,.84 0,1.1 .14,1 .2,-.17 .36,-1.17 .25,-1.74 -.06,-.3 -.13,-.44 -.2,-.43 z m -6.9,.24 c -.36,0 -.77,.1 -1.1,.3 -.5,.3 -.5,.3 -1.9,.07 C 35.4,6.9 34.04,6.75 33.13,6.7 31.7,6.63 31.47,6.64 31.47,6.8 c 0,.14 -.2,.25 -.7,.34 -.4,.1 -.93,.26 -1.23,.4 -.3,.15 -.6,.24 -.63,.2 -.04,-.04 0,-.1 .1,-.1 .16,-0 .16,-.03 -0,-.14 -.17,-.1 -.16,-.13 .07,-.1 .33,.03 .75,-.13 .75,-.3 0,-.13 -.73,-.15 -1.2,-.03 -.2,.05 -.3,.15 -.24,.25 .05,.1 -.1,.2 -.43,.25 -.3,.04 -.7,.13 -1,.2 -.46,.1 -.46,.1 -.17,-.1 .17,-.1 .3,-.25 .3,-.3 0,-.2 -.4,-.1 -1.37,.35 -.53,.25 -1.06,.43 -1.2,.4 -.47,-.14 -5.53,4.04 -6.6,5.46 -.25,.33 -.5,.5 -.63,.5 -.15,-.03 -.3,.1 -.46,.4 -.13,.24 -.6,1 -1.07,1.73 -1.06,1.63 -1.4,2.27 -1.65,3.1 -.1,.36 -.3,.84 -.4,1.05 -.1,.2 -.3,1 -.4,1.8 -.2,1.4 -.4,2 -.63,1.87 -.07,-.04 -.15,-.03 -.2,.03 -.2,.3 -.5,2.97 -.6,4.96 -.1,2.1 -.1,2.4 .15,2.93 .15,.37 .5,1.55 .8,2.63 1.14,4.3 1.54,5.6 2.27,7.2 2.2,4.9 5.75,8.86 11.2,12.4 2.5,1.6 6.5,3.2 9.27,3.66 v -0 c .7,.1 1.95,.16 3.77,.14 2.3,-.03 2.9,-.1 4.03,-.34 .86,-.2 1.3,-.37 1.3,-.5 0,-.13 -.17,-.16 -.7,-.1 -3.63,.3 -4.55,.2 -6.37,-.8 -1.3,-.7 -1.7,-.8 -1.33,-.4 .25,.3 -.16,.26 -1.15,-.06 -.43,-.14 -.93,-.26 -1.1,-.26 -.3,0 -.3,-.04 -.2,-.25 .23,-.4 .16,-.53 -.27,-.53 -.45,0 -.96,-.2 -1.8,-.8 -.43,-.3 -.6,-.33 -.93,-0.25 -.33,.1 -.47,.03 -1,-.44 -.86,-.75 -1.1,-1.03 -1.1,-1.3 -0,-.24 -.3,-.3 -.5,-.1 -.1,.07 -.64,-.3 -1.47,-1 -.74,-.6 -1.27,-1.14 -1.2,-1.17 .3,-.1 .16,-.4 -.2,-.53 -.6,-.2 -.9,-.5 -.8,-.8 .07,-.2 -.07,-.4 -.6,-.8 -.37,-.3 -.77,-.7 -.87,-.83 -.2,-.27 -.2,-.3 .2,-.23 .6,.1 .5,-.16 -.4,-1.04 -.85,-.85 -1.4,-1.15 -1.94,-1.05 -.25,.05 -.5,-.04 -.8,-.3 -.6,-.5 -1.3,-1.45 -1.07,-1.53 .1,-.04 0,-.2 -.27,-.5 C 18.6,41.83 18.4,41.5 18.3,41 c -.1,-.4 -.27,-.84 -.46,-1.04 -.8,-.84 -1.25,-2.2 -2,-6.25 -.6,-3.33 -.6,-3.25 -.05,-5.6 .4,-1.6 .4,-1.93 .1,-1.93 -.26,0 -.27,.04 .2,-1.13 1.1,-2.64 3.1,-5.5 4.27,-6.05 .5,-.24 .87,-.66 .87,-1.03 0,-.1 -.1,-.1 -.2,-.06 -.17,.06 -.15,4.72e-4 .06,-.3 .53,-.7 1.2,-1.2 2.2,-1.63 .6,-.27 1.1,-.57 1.2,-.74 .15,-.27 .14,-.3 -.14,-.2 -.16,.04 -.3,.06 -.25,.04 .03,-0 .53,-.46 1.1,-.97 .97,-.85 2.47,-1.8 2,-1.3 -.1,.1 -.1,.23 -.05,.3 .07,.04 .2,-0 .3,-.1 .2,-.23 1.4,-.77 2.6,-1.17 2.46,-.83 5.9,-1.04 7.93,-.47 2.4,.66 4.9,2.16 6.9,4.2 1.4,1.35 2.3,2.6 2.8,3.87 .15,.4 .33,.7 .4,.76 .2,.1 1.1,3.7 1.2,4.75 .07,.8 .13,1.04 .3,1.04 .17,10e-4 .2,.2 .16,1.1 -.04,1 -.1,1.14 -.46,1.5 -.4,.4 -.4,.45 -.3,1.24 l .1,.8 -.8,1.25 c -.74,1.1 -2.16,2.86 -1.55,1.9 .2,-.3 .2,-.36 .04,-.36 -.1,0 -.45,.4 -.77,.84 -.57,.84 -1.06,1.27 -1.85,1.66 -.2,.1 -.74,.4 -1.16,.6 -1.03,.55 -2.14,.8 -3.5,.8 -2.66,0 -5.46,-1.27 -7.2,-3.27 -.7,-.83 -1.76,-2.7 -1.76,-3.14 0,-.16 -.07,-.2 -.2,-.2 -.14,.05 -.23,-.16 -.34,-.9 -.2,-1.3 -.2,-1.64 .06,-2.93 .4,-1.9 1.45,-3.43 3.4,-4.73 1.36,-.9 2.3,-1.2 4.2,-1.17 1.36,0 1.74,.05 2.34,.3 .4,.16 .8,.3 .9,.3 .4,-0 -.87,-.8 -1.87,-1.2 -.9,-.34 -1.33,-.43 -2.4,-.47 -2.2,-.1 -3.87,.55 -5.5,2.1 -.9,.9 -1.8,2.25 -1.8,2.76 0,.1 -.1,.4 -.3,.64 -.6,.93 -.95,3.9 -.6,5.27 .9,3.7 2.7,5.64 7.04,7.6 1.37,.6 1.77,.97 .74,.7 -.94,-.27 -2.24,-.8 -2.66,-1.1 -.47,-.3 -.56,-.33 -.56,-.1 0,.13 -.25,.04 -.84,-.3 -.46,-.3 -.9,-.5 -.96,-.44 -.35,.2 1.9,1.7 3.45,2.3 2.25,.85 4.8,1.2 6.7,.9 1.1,-.2 3,-1 2.8,-1.2 -.1,-.1 -.27,-.1 -.53,0 -.65,.24 -2.1,.5 -3.3,.6 -.94,.07 -1.3,.05 -1.96,-.15 L 37.5,39.1 39.13,39.04 c 1.8,-.1 2.9,-.3 4.5,-.87 2.7,-.95 5.1,-3 6.64,-5.6 .56,-.97 .74,-1.13 .74,-.67 0,.37 .33,.25 .4,-.14 .03,-.17 -.03,-.5 -.1,-.8 -.1,-.36 -.1,-.6 -0,-1.03 .14,-.5 .2,-.54 .4,-.37 .5,.4 .57,.4 .5,-.2 -.04,-.3 0,-1.04 .14,-1.65 .1,-.6 .23,-1.45 .24,-1.9 l 0,-.8 .1,.75 c .1,.77 .3,1 .4,.4 .04,-.3 -.1,-1.14 -.3,-1.7 -.1,-.26 -.1,-.26 .1,-0 .33,.4 .4,.2 .15,-.65 -.15,-.55 -.2,-1.06 -.1,-1.84 .1,-1.06 0,-1.26 -.3,-.94 -.2,.2 -.6,-.6 -.63,-1.25 -0,-.36 -.1,-.6 -.3,-.74 -.15,-.1 -.4,-.4 -.54,-.65 l -.26,-.43 .4,.3 c .2,.16 .4,.26 .45,.23 .03,-.03 -.1,-.37 -.34,-0.75 -.2,-.4 -.5,-.9 -.6,-1.15 -.3,-.77 -.97,-1.3 -1.1,-.9 -.03,.1 -.2,-.1 -.35,-.4 l -.3,-.56 .3,-.04 c .17,-0 .37,-.13 .45,-.23 .13,-.15 .3,-.03 .9,.7 .4,.5 1.16,1.5 1.67,2.24 .5,.75 .94,1.3 .97,1.2 .07,-.2 -.2,-.7 -1.2,-2.26 -.44,-.7 -.8,-1.3 -.8,-1.4 0,-.1 -.1,-.34 -.2,-.57 L 50.8,14 51.1,14.25 c .5,.43 .5,.1 -.06,-.6 -2.26,-3 -5.3,-5.15 -9.04,-6.35 -1.16,-.37 -1.46,-.4 -1.16,-.03 .16,.2 .13,.2 -.24,-0 C 40.4,7.15 40.1,6.97 40,6.85 39.9,6.7 39.57,6.64 39.2,6.65 Z m 0,0.5 c .3,-0 .5,.1 .4,.03 .2,.25 .46,.4 .75,.53 .1,.05 .17,.1 .24,.1 .07,.03 .06,.1 .3,.1 .03,3.04e-4 .07,-0 .1,-0 0,-0 .05,-0 .1,-.03 .03,-0 .1,-.05 .1,-.05 9.67e-4,-6.4e-4 .13,-.14 .15,-.17 .17,.04 .2,.04 .5,.13 3.65,1.17 6.6,3.24 8.8,6.17 0,0 0,.03 .03,.04 l -.3,.24 c -.03,-0 -.07,-.1 -.1,-.1 -.1,-.1 -.23,-.17 -.45,-.2 -.2,-0 -.43,.14 -.5,.24 .06,-.1 -.1,.05 -.13,.05 l -1,.14 .63,1.2 c .1,.2 .2,.3 .3,.44 .05,.06 .1,.1 .2,.2 .07,.04 .2,.1 .4,.06 .05,-0 .06,-.06 .1,-.1 .13,.1 .33,.37 .45,.67 .1,.3 .33,.7 .54,1.07 l -.4,.4 .26,.43 c .2,.3 .4,.6 .66,.8 .05,.04 .1,.07 .1,.36 v 0 c 0,.43 .13,.83 .3,1.16 .1,.16 .17,.3 .33,.45 .1,.06 .2,.1 .34,.14 0,.14 0,.13 -0,.4 -.06,.76 -0,1.3 .1,1.87 -0,0 -0,0 -0,0 -3.95e-4,1.6e-4 -.14,.1 -.14,.1 -6.44e-4,5.66e-4 -.15,.2 -.15,.2 -5e-5,1.5e-4 -0,0 -0,0 h -.5 l .2,.45 c -0,.03 -0,.07 -0,.1 v 0 0 c -0,.1 -0,.2 .05,.37 0,.03 .1,.07 .1,.1 l -0,.6 c -0,.37 -.1,1.24 -.23,1.8 -.1,.5 -.1,.95 -.1,1.4 -.16,-.05 -.46,-0 -.6,.1 -.14,.13 -.16,.23 -.2,.33 -.04,.1 -.07,.2 -.1,.33 -.13,.5 -.13,.9 0,1.33 0,0 0,0 0,0 -.16,.04 -.24,.1 -.3,.16 -.25,.23 -.4,.5 -.7,1 -1.46,2.5 -3.77,4.46 -6.37,5.37 -1.57,.55 -2.57,.74 -4.35,.84 l -1.63,.1 -.1,.77 c -.1,-0 -.25,-.07 -.37,-.1 .1,-.07 .2,-.15 .24,-.3 .03,-.2 -.05,-.3 -.1,-.4 -.04,-.07 -.1,-.1 -.1,-.14 -.15,-.13 -.3,-.2 -.53,-.34 -.23,-.1 -.5,-.27 -.87,-.4 -4.27,-1.9 -5.9,-3.65 -6.75,-7.24 -.14,-.56 -.14,-1.6 -.03,-2.6 .1,-1 .4,-1.96 .6,-2.26 .1,-.14 .17,-.3 .23,-.44 .06,-.15 .1,-.24 .1,-.47 0,0 .03,-.13 .1,-.3 .1,-.2 .2,-.4 .37,-.65 .3,-.5 .75,-1 1.2,-1.43 1.54,-1.5 3.05,-2.06 5.1,-1.96 .3,0 .44,.1 .65,.13 -1.67,.04 -2.8,.34 -4.1,1.2 -2,1.35 -3.2,3 -3.6,5.04 -.26,1.3 -.27,1.8 -.07,3.1 .06,.4 .1,.63 .2,.85 .04,.1 .1,.23 .23,.35 .04,.03 .1,0 .16,.03 .03,.2 .07,.35 .15,.55 .1,.27 .3,.6 .46,.9 .36,.65 .8,1.33 1.2,1.8 1.84,2.1 4.75,3.44 7.57,3.44 1.44,0 2.65,-.27 3.76,-.86 .4,-.2 .93,-.5 1.14,-.6 .85,-.4 1.44,-.95 2.04,-1.8 0,-0 0,-0 0,-0 0,0 .17,.03 .17,.03 8.27e-4,-1.3e-5 .1,-0 .1,-0 .03,-0 .05,-0 .07,-.03 .1,-.03 .1,-.06 .13,-.1 .1,-.1 .14,-.13 .2,-.2 .07,-.1 .16,-.2 .26,-.3 .4,-.47 .93,-1.2 1.3,-1.77 l .9,-1.4 -.1,-1 c -.04,-.4 -.04,-.56 -.03,-.6 0,-0 0,-.05 .2,-.24 .2,-.2 .4,-.43 .5,-.73 .1,-.3 .1,-.6 .1,-1.1 0,-.46 .03,-.74 -0,-1 -0,-.1 -.04,-.26 -.16,-.4 -.05,-.06 -.1,-.05 -.2,-.1 v -0 c -0,-.1 -.06,-.34 -.1,-.73 -.05,-.6 -.3,-1.75 -.57,-2.8 -.13,-.53 -.27,-1 -.4,-1.4 -.06,-.2 -.1,-.35 -.17,-.5 -.03,-.07 -.05,-.13 -.1,-.2 -.03,-.06 -.03,-.13 -.23,-.25 .07,.04 .1,.05 .1,.07 -0,-0 -.04,-.06 -.06,-.1 -.06,-.1 -.14,-.3 -.2,-.47 -.54,-1.37 -1.5,-2.67 -2.9,-4.05 -2.06,-2 -4.65,-3.53 -7.13,-4.2 -2.2,-.6 -5.66,-.4 -8.23,.5 -.6,.2 -1.2,.45 -1.7,.67 -.2,.1 -.4,.2 -.6,.3 -.1,-.06 -.2,-.1 -.25,-.1 -.16,-0 -.2,0 -.27,.03 -.2,.07 -.37,.17 -.6,.3 -.47,.3 -1.1,.76 -1.6,1.2 -.3,.26 -.56,.5 -.76,.67 -.1,.1 -.2,.16 -.24,.2 -.03,.03 -.05,.05 -.07,.06 l -0,0 c -0,0 -.03,0 -.05,.04 -0,0 -.1,.1 -.1,.1 -1.38e-4,2.24e-4 -.05,.1 -.05,.1 -7.3e-5,2.07e-4 -.03,.14 -.03,.14 -9e-6,1.89e-4 0,.2 0,.2 9e-6,2.8e-5 0.01,0 0,.03 -.16,.1 -.33,.2 -.54,.3 -1.07,.47 -1.83,1 -2.4,1.8 -.06,.07 -.1,.14 -.14,.2 -.04,.06 -.1,.1 -.1,.27 -0,.1 -.03,.24 .1,.4 -.1,.13 -.1,.23 -.35,.34 -.8,.37 -1.55,1.25 -2.36,2.4 -.8,1.15 -1.6,2.55 -2.16,3.9 -.24,.6 -.36,.8 -.4,1.1 -0,.07 -.03,.16 0,.3 .04,.14 .17,.3 .3,.36 0,0 0,-0 .03,0 -0,.2 -.1,.63 -.27,1.37 -.55,2.36 -.56,2.5 .04,5.8 .37,2.04 .66,3.4 1,4.4 .3,1 .67,1.63 1.14,2.1 .06,.06 .26,.44 .33,.8 .1,.57 .34,1.03 .7,1.4 .07,.07 .07,.1 .1,.1 -0,.03 -0,.06 -0,.1 -0,.15 .03,.24 .07,.33 .07,.2 .17,.34 .3,.5 .25,.35 .6,.73 .94,1 .36,.3 .8,.47 1.2,.4 .15,-.03 .3,-0 .53,.1 .24,.13 .56,.4 .97,.8 .1,.1 .16,.17 .24,.25 -.06,.03 -.1,.03 -.2,.1 -.1,.13 -.14,.33 -.1,.43 0,.1 .04,.15 .06,.2 .04,.1 .1,.14 .13,.2 h 0 c .1,.16 .23,.3 .4,.44 .17,.16 .37,.34 .57,.5 .24,.2 .37,.33 .4,.4 -.04,.3 .1,.6 .27,.8 .2,.2 .46,.3 .76,.44 -0,0 -.04,.03 -.04,.05 -0,.16 0,.2 .04,.3 .04,.1 .1,.14 .1,.2 .1,.1 .17,.2 .3,.3 .23,.23 .56,.5 .93,.84 .4,.35 .8,.63 1.06,.8 .14,.1 .25,.17 .4,.2 .06,.03 .1,.05 .2,.07 .05,0.01 .17,-.05 .27,-.07 .06,.16 .1,.33 .2,.47 .2,.24 .5,.5 .93,.9 .3,.24 .46,.4 .7,.5 .25,.1 .55,.1 .76,.04 .1,-.03 .1,-0 .16,-0 .05,0 .17,.07 .37,.2 .8,.5 1.33,.7 1.9,.77 -0,.03 -.03,.06 -.05,.1 -.03,.1 -.06,.3 .1,.5 .14,.2 .3,.2 .4,.24 .1,0 .17,0 .25,0 -0,0 .16,0 .34,.06 .2,.04 .4,.1 .6,.17 .5,.17 .86,.27 1.17,.3 .1,0 .15,0 .26,-0 .07,-0 .17,-.1 .26,-.2 .2,.1 .33,.14 .7,.34 .75,.4 1.43,.6 2.17,0.75 -.1,0 -.1,0 -.2,0 v -0 c -1.8,0 -3.04,-.03 -3.7,-.14 l -0,-0 C 33,56.9 29.03,55.33 26.64,53.77 21.25,50.26 17.8,46.4 15.6,41.6 c -.7,-1.6 -1.1,-2.83 -2.24,-7.14 -.3,-1.1 -.6,-2.23 -.8,-2.7 -.1,-.3 -.16,-.4 -.2,-.76 -0,-.35 0,-.9 .06,-1.96 .05,-1 .16,-2.14 .3,-3.1 .06,-.47 .1,-.9 .2,-1.2 0,-.1 .03,-.16 .05,-.23 h 0 c .16,-.04 .27,-.13 .34,-.2 .14,-.16 .2,-.3 .26,-.5 .1,-.37 .23,-.9 .33,-1.6 .05,-.37 .1,-.75 .2,-1.06 .07,-.3 .16,-.6 .15,-.57 .13,-.27 .3,-.74 .4,-1.1 .24,-.8 .54,-1.36 1.6,-3 .47,-.7 .94,-1.46 1.1,-1.77 .04,-.1 .06,-.1 .1,-.1 .23,-0 .4,-.1 .5,-.2 .16,-.1 .3,-.3 .45,-.47 .34,-.45 1.5,-1.5 2.6,-2.43 .05,.07 .1,.14 .2,.2 .3,.1 .4,-0 .5,-.05 .06,-.04 .1,-.1 .13,-.13 l .04,0 .16,-.2 c .04,-.05 .1,-.1 .1,-.14 0,-0 .03,-.04 .06,-.1 0,-0 .03,-.05 .05,-.1 0,-0 0,-.07 0,-.07 6e-5,-4.81e-4 0,-.1 0,-.1 -3.3e-5,-3.92e-4 -.04,-.15 -.04,-.15 -1.03e-4,-2.45e-4 -.07,-.1 -.1,-.14 .1,-.1 .17,-.13 .27,-.2 h .04 c 0,.03 .03,.06 .03,.06 4.98e-4,6.61e-4 .14,.1 .14,.1 7.17e-4,4.46e-4 .1,.05 .15,.06 .05,0 .1,0 .1,0 .27,0 .27,-.07 .3,-.1 .05,-.03 .1,-.06 .1,-.1 .1,-.06 .16,-.14 .24,-.23 l .15,-.16 0,0 .4,-.2 c .14,-.1 .6,-.3 .95,-.4 0,-0 0,-4.8e-4 0,-0 .2,-.06 .35,-.1 .4,-.1 .04,-0 -.04,-.04 -.1,-.05 v -0 c .13,.1 .27,.15 .4,.16 .1,0 .2,-1.3e-4 .34,-0 .23,-.03 .5,-.1 .83,-.2 .24,-.1 .45,-.15 .6,-.2 .04,.1 .1,.23 .2,.3 .25,.14 .34,.07 .4,.05 .16,-.03 .35,-.1 .74,-.2 L 29.25,8.9 V 8.9 c .05,-0 .1,-.04 .17,-.05 .07,-.03 .13,-.05 .2,-.1 .03,-0 .07,-.03 .14,-.1 0,-0 .04,-.04 .06,-.07 0,-0 0,-.04 .04,-.06 0,-0 0,-0 0,-.03 0,0 .1,.03 .13,.04 .03,0 .06,0 .1,0 .04,2.4e-4 .07,-0 .1,-0 .1,-0 .1,-.03 .2,-.05 .07,-0 .46,-.1 .74,-.17 l .54,-.1 -0,-.05 c .06,0 .1,0 .2,0 .14,0 .25,-.03 .36,-.1 .1,-.05 .2,-.1 .33,-.27 0,-0 -0,-.06 0,-.1 .06,-0 .1,0 .2,-.03 0,-0 0,-.03 .03,-.03 .03,0 .1,.07 .1,.07 0,6.94e-4 .1,.05 .1,.05 .1,.03 .1,.03 .15,.03 .14,0 .34,0 .64,0 .3,2.4e-4 .5,-0 .66,-0 .04,-0 .07,-0 .1,-0 .03,-0 .06,-0 .16,-.06 0,-0 0,-0 .04,-.03 0,0 .03,.05 .05,.07 .03,.04 .06,.06 .1,.1 .1,.07 .15,.1 .2,.1 .16,.04 .24,.03 .4,.03 .14,0 .23,0 .4,-.03 0,0 0,0 0,0 .17,.16 .24,.13 .3,.15 .06,0 .1,0 .17,0 h 0 0 c .1,0 .2,0 .35,-.05 .1,-.03 .23,-.1 .3,-.3 .03,-.07 0,-.15 0,-.23 .17,0 .44,.07 .6,.07 .33,-0 .6,-.14 .86,-.3 .2,-.1 .6,-.2 .87,-.2 z m 9.27,12.54 c 0,0 0,0 0,0 0,0 0,0 -0,-0 z M 32.36,7.2 c .07,0 .27,.05 .13,.1 -.03,0 -.1,0 -.15,0 -.16,-0 -.2,-.04 -.1,-.1 .04,-0 .1,-0 .1,-0 -0,-0 -0,-0 -0,-0 z m -.55,.36 c 0,-0 .04,-0 .07,-0 .15,-.04 .24,-0 .2,.05 -.03,.04 -.1,.07 -.16,.1 .06,.04 .1,.05 .14,.06 -0,.04 -.35,.2 -.43,0 -.07,-.16 .16,-.26 .2,-.2 z m 1.95,-.23 c .2,1.65e-4 .4,0 .53,0 .3,.03 0,.05 -.6,.05 -.6,-4.7e-4 -.8,-0 -.5,-.05 .16,-0 .36,-0 .56,-0 z m 1.46,.1 c .13,0 .26,0 .4,.04 9.64e-4,0 10e-4,0 0,0 0,0 .03,9.43e-4 .04,0 .1,0 .05,.04 -.04,.05 0,0 0,.04 0,.04 1.11e-4,-8.67e-4 -.07,.2 -.07,.2 5.32e-4,-8.9e-4 -.06,.1 -.1,.1 -0,0 -.04,.03 -.05,.04 -0,-0 -.03,-0 -.05,-.04 -0,-0 -.1,-.1 -.1,-.1 5.33e-4,8.9e-4 -.07,-.2 -.07,-.2 2.2e-5,1.7e-4 0,-.03 0,-.04 -.1,-0 -.1,-.03 -.04,-.05 0,-0 .03,-0 .04,-0 0,-0 0,-.03 0,-.05 z m .97,.1 c .2,.03 .24,0 .4,.04 0,.06 .07,.1 .06,.17 -.03,.16 -.1,.24 -.15,.3 -.1,.1 -.1,.07 -.1,.07 h -0 c -0,0 -0,0 -.05,0 -.03,-9.86e-4 -.1,0 -.2,-.1 l -.06,-.1 c 0,-0 0,-0 .03,-.03 0,-0 .05,-.07 .05,-.07 2.54e-4,-4.16e-4 .04,-.1 .04,-.1 7e-6,-2.09e-5 -3.3e-5,-0 0,-0 -.03,-0 -.03,-0 0,-.04 0,-.03 0,-.06 0,-.1 z m -5.1,.2 .47,0 -.54,.1 c -.3,.05 -.67,.14 -.8,.2 -.2,.06 -.15,0 .07,-.1 .2,-.1 .55,-.2 .8,-.2 z m -5.15,.53 c 0,0 .04,.03 .07,.05 -0,5e-4 -0,0 -0,0 -0,-0 -.05,-.03 -.07,-.04 0,-0 0,-0 0,-0 z m 1.7,0 c .03,.03 -.4,.2 -.9,.35 -.65,.2 -1,.26 -1.1,.17 -.1,-.1 -.35,-.06 -.8,.1 -.36,.1 -.83,.3 -1.04,.44 l -.4,.2 .36,-.3 c .53,-.4 1.76,-.8 1.9,-.6 .1,.1 .33,.1 1,-.13 .5,-.16 .93,-.27 .96,-.24 z m 1.8,0 c .03,.03 -.27,.14 -.66,.25 v 0 c -.8,.23 -.8,.23 -.8,.15 10e-7,-.1 1.4,-.47 1.47,-.4 z m -6.1,1.24 c .03,0 -.03,.1 -.1,.2 0,0 0,0 0,0 -4.97e-4,-6.6e-4 .07,.15 .07,.14 -2.81e-4,-8.8e-4 0,.1 0,.1 5.53e-4,0 -1.2e-4,0 0,0 -.03,0 -.07,-0 -.1,-0 -.04,-0 -.15,-.06 -.14,-.06 2.52e-4,1.57e-4 -.03,-.03 -.05,-.04 -.1,.1 -.16,.14 -.2,.14 -.03,0 .03,-.1 .13,-.2 l -0,-0 c .03,-0 .06,-.04 .1,-.07 .13,-.13 .25,-.23 .3,-.23 z m -1.6,1.3 c 0,0 -.04,.05 -.05,.07 .04,.04 .1,.07 .1,.1 .04,.1 .04,.13 .04,.16 0,.1 -0,.1 -.04,.16 -0,1.8e-5 -.1,0 -.1,0 4.07e-4,3.1e-5 -.14,-.03 -.14,-.03 2.8e-4,1.08e-4 -.1,-.1 -.15,-.1 -.05,.03 -.1,0 -.1,-.03 0,-.03 .1,-.13 .24,-.23 .04,-.03 .04,-0 .07,-.04 0,-0 0,-0 .03,-.03 l 0,0 c 0,-0 .07,-.05 .07,-.05 z m 28.4,5.1 c -0,0 -.04,.1 -.1,.13 -0,0 -.04,0 -.06,0 .06,-.06 .15,-.1 .17,-.15 z m -38.96,6.9 c -.34,-0 -.35,0 -.34,.75 0,.4 .05,.76 .1,.76 .25,0 .66,-.73 .63,-1.1 -.03,-.33 -.1,-.4 -.4,-.4 z m 41.06,1.76 c 0,.04 0,.07 .04,.1 .03,.1 .06,.2 .1,.3 l -.2,0 c -0,-0 -.06,-0 -.07,-.03 -.1,-.1 -.1,-.1 -.1,-.1 v -0 z m -8.7,.03 c -.13,-.03 -.24,.07 -.3,.3 -.06,.23 0,.45 .2,.7 .5,.67 .83,.27 .46,-.6 -.1,-.27 -.26,-.43 -.4,-.45 z m 8.9,.03 c 0,-0 .03,0 .05,.06 h -0 c .04,.1 .04,.2 -0,0.25 -.04,.04 -.1,-.03 -.07,-.17 0,-.1 0,-.1 .03,-.14 z m -2.75,.7 c .1,5.11e-4 .23,.07 .3,.13 .04,.04 0,.04 0,0 -.1,-.06 -.2,-.14 -.3,-.14 z m -38.75,1.64 c -.1,-.04 -.17,.16 -.17,.73 0,.43 .04,.87 .1,1 .05,.1 .14,.2 .2,.2 .2,0 .1,-1.86 -.1,-1.9 z M 43.8,28.06 c -.07,-.04 -.16,.25 -.2,.64 -.05,.4 -.2,.83 -.36,1 l -.27,.3 .06,-.33 c .03,-.2 .1,-.5 .16,-.75 .15,-.65 -.1,-.5 -.4,.2 -.3,.8 -.3,1.06 .07,1.2 .6,.23 .74,.16 .9,-.44 .2,-.7 .2,-1.7 .03,-1.8 z m -2.6,4.03 c -.03,-.03 -.33,.07 -.66,.2 -.33,.14 -.9,.3 -1.25,.4 -.6,.13 -.85,.4 -.47,.54 .1,.04 .5,.07 .9,.1 .74,0.01 .75,0 1.13,-.6 .2,-.33 .37,-.6 .34,-.64 z m -11,2.93 c -.3,0 -.06,.37 .66,1.07 .43,.4 .8,.75 .8,.75 0,0 .04,-.07 .04,-.16 -10e-7,-.2 -1.34,-1.66 -1.5,-1.66 z M 29.8,36.3 c -.06,0 -.1,.16 -.1,.36 0,.4 .5,.87 1.9,1.8 .36,.25 .64,.36 .67,.3 .05,-.15 -2.26,-2.46 -2.45,-2.46 z m 3.2,1.54 .37,.2 c .2,.1 .37,.24 .37,.27 0,.1 -.1,.04 -.43,-.2 z m -7.56,11.4 c -.06,0 -.1,.1 -.15,.2 0,-0 -0,-.03 0,-.04 .05,-.1 .13,-.14 .15,-.14 z" fill="currentColor" opacity=".6"/></g><use href="#uhA" opacity=".4"></use><use fill="url(#uhy)" href="#uhA" opacity=".2"></use><path d="m 54,32 c -6,0 -6,4 -14,4 H 14 c -3.3,0 -6,2.7 -6,6 v 64 c 0,3.3 2.7,6 6,6 h 100 c 3.3,0 6,-2.7 6,-6 V 52 42 38 c 0,-3.3 -2.7,-6 -6,-6 z" fill="url(#uhx)" opacity=".2"/><path class="ColorScheme-Contrast" d="m 8,105 v 1 c 0,3.3 2.7,6 6,6 h 100 c 3.3,0 6,-2.7 6,-6 v -1 c 0,3.3 -2.7,6 -6,6 H 14 c -3.3,0 -6,-2.7 -6,-6 z" fill="currentColor" opacity=".1"/><path class="ColorScheme-Contrast" d="m 8,105.5 v 0.5 c 0,3.3 2.7,6 6,6 h 100 c 3.3,0 6,-2.7 6,-6 v -0.5 c 0,3.3 -2.7,6 -6,6 H 14 c -3.3,0 -6,-2.7 -6,-6 z" fill="currentColor" opacity=".2"/><path d="m 54,32 c -6,0 -6,4 -14,4 H 14 c -3.3,0 -6,2.7 -6,6 v 1 c 0,-3.3 2.7,-6 6,-6 h 26 c 8,0 8,-4 14,-4 h 60 c 3.3,0 6,2.7 6,6 v -1 c 0,-3.3 -2.7,-6 -6,-6 z" fill="#fff" opacity=".1"/><path d="m 54,32 c -6,0 -6,4 -14,4 H 14 c -3.3,0 -6,2.7 -6,6 v 0.5 c 0,-3.3 2.7,-6 6,-6 h 26 c 8,0 8,-4 14,-4 h 60 c 3.3,0 6,2.7 6,6 V 38 c 0,-3.3 -2.7,-6 -6,-6 z" fill="#fff" opacity=".2"/><path d="m 54,31 c -6,0 -6,4 -14,4 H 14 v 1 h 26 c 8,0 8,-4 14,-4 h 60 v -1 z" opacity=".1"/><path d="m 54,31.5 c -6,0 -6,4 -14,4 H 14 V 36 h 26 c 8,0 8,-4 14,-4 h 60 v -0.5 z" opacity=".2"/></g>
</svg>