<svg height="128" version="1.1" width="128" xmlns="http://www.w3.org/2000/svg" xmlns:svg="http://www.w3.org/2000/svg" xmlns:xlink="http://www.w3.org/1999/xlink">
<defs id="primary-definitions">
<style id="current-color-scheme" type="text/css">
      .ColorScheme-Text         { color: #232629; }
      .ColorScheme-Background   { color: #eff0f1; }
      .ColorScheme-Highlight    { color: #7ec9f0; }
      .ColorScheme-PositiveText { color: #27ae60; }
      .ColorScheme-NeutralText  { color: #f67400; }
      .ColorScheme-NegativeText { color: #da4453; }
      .ColorScheme-ActiveText   { color: #3daee9; }
      .ColorScheme-Complement   { color: #ffffff; }
      .ColorScheme-Contrast     { color: #000000; }
    </style>
<style id="extended-color-scheme" type="text/css">
      .ExScheme-Black     { color:#3e3e3e; }
      .ExScheme-White     { color:#fcfcfc; }
      .ExScheme-Grey-1    { color:#cfd5d5; }
      .ExScheme-Grey-2    { color:#909c9c; }
      .ExScheme-Grey-3    { color:#536161; }
      .ExScheme-Red-1     { color:#ffafa5; }
      .ExScheme-Red-2     { color:#bf4231; }
      .ExScheme-Red-3     { color:#4d2f2b; }
      .ExScheme-Green-1   { color:#abf9c7; }
      .ExScheme-Green-2   { color:#3bb566; }
      .ExScheme-Green-3   { color:#377d50; }
      .ExScheme-Blue-1    { color:#abdaf9; }
      .ExScheme-Blue-2    { color:#3daefd; }
      .ExScheme-Blue-3    { color:#2b3c4d; }
      .ExScheme-Yellow-1  { color:#faffa5; }
      .ExScheme-Yellow-2  { color:#cac726; }
      .ExScheme-Yellow-3  { color:#4b4d2b; }
      .ExScheme-Orange-1  { color:#ffdaa5; }
      .ExScheme-Orange-2  { color:#ff9701; }
      .ExScheme-Orange-3  { color:#4d372b; }
      .ExScheme-Brown-1   { color:#e9d6bb; }
      .ExScheme-Brown-2   { color:#997657; }
      .ExScheme-Brown-3   { color:#433a35; }
      .ExScheme-Purple-1  { color:#e2abf9; }
      .ExScheme-Purple-2  { color:#b401ff; }
      .ExScheme-Purple-3  { color:#432b4d; }
      .ExScheme-Cyan-1    { color:#b2f2e6; }
      .ExScheme-Cyan-2    { color:#31bfa6; }
      .ExScheme-Cyan-3    { color:#2b4d47; }
      .ExScheme-Magenta-1 { color:#f8a6d8; }
      .ExScheme-Magenta-2 { color:#f00091; }
      .ExScheme-Magenta-3 { color:#770048; }
    </style>
<linearGradient id="uQC">
<stop offset="0"/>
<stop offset="1" stop-opacity="0"/>
</linearGradient>
<linearGradient id="uQD">
<stop offset="0" stop-color="#fff"/>
<stop offset="1" stop-color="#fff" stop-opacity="0"/>
</linearGradient>
<style id="uQE" type="text/css">
        .force-display-for-editing { display: inline !important; }
    </style><style class="remove-if__show-crease" type="text/css">
        .enable-if__show-crease { display: none; }
    </style><style class="remove-if__color-sync-mimes-places" type="text/css">
        .enable-if__color-sync-mimes-places { display: none; }
    </style><radialGradient cx=".5" cy="0" id="uQF" r="1" xlink:href="#uQD"/><linearGradient id="uQG" xlink:href="#uQC" y1="1" y2=".5"/><style class="ColorScheme-Background" fill="currentColor" opacity=".6" type="text/css">
   .ColorScheme-Text           { color:#eff0f1; }
      .ColorScheme-Background     { color:#31363b; }
      .ColorScheme-Highlight      { color:#3daefd; }
      .ColorScheme-ViewBackground { color:#fcfcfc; }
      .ColorScheme-PositiveText   { color:#27ae60; }
      .ColorScheme-NeutralText    { color:#f67400; }
      .ColorScheme-NegativeText   { color:#da4453; }
  </style><path d="m 20,16 c -3.3,0 -6,2.7 -6,6 v 14 c -3.3,0 -6,2.7 -6,6 v 64 c 0,3.3 2.7,6 6,6 h 100 c 3.3,0 6,-2.7 6,-6 V 52 42 38 c 0,-3.3 -2.7,-6 -6,-6 v -6 c 0,-3.3 -2.7,-6 -6,-6 H 56 c -8,0 -8,-4 -14,-4 z" id="uQH"></path><path d="m 20,16 c -3.3,0 -6,2.7 -6,6 v 14 h 26 c 8,0 8,-4 14,-4 h 60 v -6 c 0,-3.3 -2.7,-6 -6,-6 H 56 c -8,0 -8,-4 -14,-4 z" id="uQI"></path></defs>
<g id="content" transform="translate(0,0)"><use class="sync-color enable-if__color-sync-mimes-places force-display-for-editing ColorScheme-ActiveText" fill="currentColor" href="#uQH"></use><use class="primary-color remove-if__color-sync-mimes-places ColorScheme-ActiveText" fill="currentColor" href="#uQH"></use><use class="ColorScheme-Contrast" fill="currentColor" href="#uQH" opacity=".1"></use><g id="panorama" transform="translate(8,32)"><path class="ColorScheme-Background" d="M 105.05 17.24 C 104.87 17.24 104.7 17.3 104.5 17.5 L 11.8 72.13 C 10.9 72.65 11.27 74 12.3 74 L 17 74 L 17 71.5 C 17 71.2 17.2 71 17.5 71 C 17.8 71 18 71.2 18 71.5 L 18 74 L 20 74 L 20 73.5 C 20 73.2 20.2 73 20.5 73 C 20.8 73 21 73.2 21 73.5 L 21 74 L 23 74 L 23 73.5 C 23 73.2 23.2 73 23.5 73 C 23.8 73 24 73.2 24 73.5 L 24 74 L 26 74 L 26 73.5 C 26 73.2 26.2 73 26.5 73 C 26.8 73 27 73.2 27 73.5 L 27 74 L 29 74 L 29 71.5 C 29 71.2 29.2 71 29.5 71 C 29.8 71 30 71.2 30 71.5 L 30 74 L 32 74 L 32 73.5 C 32 73.2 32.2 73 32.5 73 C 32.8 73 33 73.2 33 73.5 L 33 74 L 35 74 L 35 73.5 C 35 73.2 35.2 73 35.5 73 C 35.8 73 36 73.2 36 73.5 L 36 74 L 38 74 L 38 73.5 C 38 73.2 38.2 73 38.5 73 C 38.8 73 39 73.2 39 73.5 L 39 74 L 41 74 L 41 71.5 C 41 71.2 41.2 71 41.5 71 C 41.8 71 42 71.2 42 71.5 L 42 74 L 44 74 L 44 73.5 C 44 73.2 44.2 73 44.5 73 C 44.8 73 45 73.2 45 73.5 L 45 74 L 47 74 L 47 73.5 C 47 73.2 47.2 73 47.5 73 C 47.8 73 48 73.2 48 73.5 L 48 74 L 50 74 L 50 73.5 C 50 73.2 50.2 73 50.5 73 C 50.8 73 51 73.2 51 73.5 L 51 74 L 53 74 L 53 71.5 C 53 71.2 53.2 71 53.5 71 C 53.8 71 54 71.2 54 71.5 L 54 74 L 56 74 L 56 73.5 C 56 73.2 56.2 73 56.5 73 C 56.8 73 57 73.2 57 73.5 L 57 74 L 59 74 L 59 73.5 C 59 73.2 59.2 73 59.5 73 C 59.8 73 60 73.2 60 73.5 L 60 74 L 62 74 L 62 73.5 C 62 73.2 62.2 73 62.5 73 C 62.8 73 63 73.2 63 73.5 L 63 74 L 65 74 L 65 71.5 C 65 71.2 65.2 71 65.5 71 C 65.8 71 66 71.2 66 71.5 L 66 74 L 68 74 L 68 73.5 C 68 73.2 68.2 73 68.5 73 C 68.8 73 69 73.2 69 73.5 L 69 74 L 71 74 L 71 73.5 C 71 73.2 71.2 73 71.5 73 C 71.8 73 72 73.2 72 73.5 L 72 74 L 74 74 L 74 73.5 C 74 73.2 74.2 73 74.5 73 C 74.8 73 75 73.2 75 73.5 L 75 74 L 77 74 L 77 71.5 C 77 71.2 77.2 71 77.5 71 C 77.8 71 78 71.2 78 71.5 L 78 74 L 80 74 L 80 73.5 C 80 73.2 80.2 73 80.5 73 C 80.8 73 81 73.2 81 73.5 L 81 74 L 83 74 L 83 73.5 C 83 73.2 83.2 73 83.5 73 C 83.8 73 84 73.2 84 73.5 L 84 74 L 86 74 L 86 73.5 C 86 73.2 86.2 73 86.5 73 C 86.8 73 87 73.2 87 73.5 L 87 74 L 89 74 L 89 71.5 C 89 71.2 89.2 71 89.5 71 C 89.8 71 90 71.2 90 71.5 L 90 74 L 92 74 L 92 73.5 C 92 73.2 92.2 73 92.5 73 C 92.8 73 93 73.2 93 73.5 L 93 74 L 95 74 L 95 73.5 C 95 73.2 95.2 73 95.5 73 C 95.8 73 96 73.2 96 73.5 L 96 74 L 98 74 L 98 73.5 C 98 73.2 98.2 73 98.5 73 C 98.8 73 99 73.2 99 73.5 L 99 74 L 101 74 L 101 71.5 C 101 71.2 101.2 71 101.5 71 C 101.8 71 102 71.2 102 71.5 L 102 74 L 105 74 C 105.55 74 106 73.55 106 73 L 106 70 L 103.5 70 C 103.2 70 103 69.8 103 69.5 C 103 69.2 103.2 69 103.5 69 L 106 69 L 106 67 L 105.5 67 C 105.2 67 105 66.8 105 66.5 C 105 66.2 105.2 66 105.5 66 L 106 66 L 106 64 L 105.5 64 C 105.2 64 105 63.8 105 63.5 C 105 63.2 105.2 63 105.5 63 L 106 63 L 106 61 L 105.5 61 C 105.2 61 105 60.8 105 60.5 C 105 60.2 105.2 60 105.5 60 L 106 60 L 106 58 L 103.5 58 C 103.2 58 103 57.8 103 57.5 C 103 57.2 103.2 57 103.5 57 L 106 57 L 106 55 L 105.5 55 C 105.2 55 105 54.8 105 54.5 C 105 54.2 105.2 54 105.5 54 L 106 54 L 106 52 L 105.5 52 C 105.2 52 105 51.8 105 51.5 C 105 51.2 105.2 51 105.5 51 L 106 51 L 106 49 L 105.5 49 C 105.2 49 105 48.8 105 48.5 C 105 48.2 105.2 48 105.5 48 L 106 48 L 106 46 L 103.5 46 C 103.2 46 103 45.8 103 45.5 C 103 45.2 103.2 45 103.5 45 L 106 45 L 106 43 L 105.5 43 C 105.2 43 105 42.8 105 42.5 C 105 42.2 105.2 42 105.5 42 L 106 42 L 106 40 L 105.5 40 C 105.2 40 105 39.8 105 39.5 C 105 39.2 105.2 39 105.5 39 L 106 39 L 106 37 L 105.5 37 C 105.2 37 105 36.8 105 36.5 C 105 36.2 105.2 36 105.5 36 L 106 36 L 106 34 L 103.5 34 C 103.2 34 103 33.8 103 33.5 C 103 33.2 103.2 33 103.5 33 L 106 33 L 106 31 L 105.5 31 C 105.2 31 105 30.8 105 30.5 C 105 30.2 105.2 30 105.5 30 L 106 30 L 106 28 L 105.5 28 C 105.2 28 105 27.8 105 27.5 C 105 27.2 105.2 27 105.5 27 L 106 27 L 106 25 L 105.5 25 C 105.2 25 105 24.8 105 24.5 C 105 24.2 105.2 24 105.5 24 L 106 24 L 106 22 L 103.5 22 C 103.2 22 103 21.8 103 21.5 C 103 21.2 103.2 21 103.5 21 L 106 21 L 106 18.26 C 106 17.73 105.6 17.26 105.05 17.24 z M 92 40.53 L 92 60 L 60.2 60 L 92 40.53 z " fill="currentColor" opacity=".6"/><path class="ColorScheme-Background" d="M 105.05 17.24 C 104.87 17.24 104.7 17.3 104.5 17.5 L 11.8 72.13 C 10.9 72.65 11.27 74 12.3 74 L 17 74 L 17 71.5 C 17 71.2 17.2 71 17.5 71 C 17.8 71 18 71.2 18 71.5 L 18 74 L 20 74 L 20 73.5 C 20 73.2 20.2 73 20.5 73 C 20.8 73 21 73.2 21 73.5 L 21 74 L 23 74 L 23 73.5 C 23 73.2 23.2 73 23.5 73 C 23.8 73 24 73.2 24 73.5 L 24 74 L 26 74 L 26 73.5 C 26 73.2 26.2 73 26.5 73 C 26.8 73 27 73.2 27 73.5 L 27 74 L 29 74 L 29 71.5 C 29 71.2 29.2 71 29.5 71 C 29.8 71 30 71.2 30 71.5 L 30 74 L 32 74 L 32 73.5 C 32 73.2 32.2 73 32.5 73 C 32.8 73 33 73.2 33 73.5 L 33 74 L 35 74 L 35 73.5 C 35 73.2 35.2 73 35.5 73 C 35.8 73 36 73.2 36 73.5 L 36 74 L 38 74 L 38 73.5 C 38 73.2 38.2 73 38.5 73 C 38.8 73 39 73.2 39 73.5 L 39 74 L 41 74 L 41 71.5 C 41 71.2 41.2 71 41.5 71 C 41.8 71 42 71.2 42 71.5 L 42 74 L 44 74 L 44 73.5 C 44 73.2 44.2 73 44.5 73 C 44.8 73 45 73.2 45 73.5 L 45 74 L 47 74 L 47 73.5 C 47 73.2 47.2 73 47.5 73 C 47.8 73 48 73.2 48 73.5 L 48 74 L 50 74 L 50 73.5 C 50 73.2 50.2 73 50.5 73 C 50.8 73 51 73.2 51 73.5 L 51 74 L 53 74 L 53 71.5 C 53 71.2 53.2 71 53.5 71 C 53.8 71 54 71.2 54 71.5 L 54 74 L 56 74 L 56 73.5 C 56 73.2 56.2 73 56.5 73 C 56.8 73 57 73.2 57 73.5 L 57 74 L 59 74 L 59 73.5 C 59 73.2 59.2 73 59.5 73 C 59.8 73 60 73.2 60 73.5 L 60 74 L 62 74 L 62 73.5 C 62 73.2 62.2 73 62.5 73 C 62.8 73 63 73.2 63 73.5 L 63 74 L 65 74 L 65 71.5 C 65 71.2 65.2 71 65.5 71 C 65.8 71 66 71.2 66 71.5 L 66 74 L 68 74 L 68 73.5 C 68 73.2 68.2 73 68.5 73 C 68.8 73 69 73.2 69 73.5 L 69 74 L 71 74 L 71 73.5 C 71 73.2 71.2 73 71.5 73 C 71.8 73 72 73.2 72 73.5 L 72 74 L 74 74 L 74 73.5 C 74 73.2 74.2 73 74.5 73 C 74.8 73 75 73.2 75 73.5 L 75 74 L 77 74 L 77 71.5 C 77 71.2 77.2 71 77.5 71 C 77.8 71 78 71.2 78 71.5 L 78 74 L 80 74 L 80 73.5 C 80 73.2 80.2 73 80.5 73 C 80.8 73 81 73.2 81 73.5 L 81 74 L 83 74 L 83 73.5 C 83 73.2 83.2 73 83.5 73 C 83.8 73 84 73.2 84 73.5 L 84 74 L 86 74 L 86 73.5 C 86 73.2 86.2 73 86.5 73 C 86.8 73 87 73.2 87 73.5 L 87 74 L 89 74 L 89 71.5 C 89 71.2 89.2 71 89.5 71 C 89.8 71 90 71.2 90 71.5 L 90 74 L 92 74 L 92 73.5 C 92 73.2 92.2 73 92.5 73 C 92.8 73 93 73.2 93 73.5 L 93 74 L 95 74 L 95 73.5 C 95 73.2 95.2 73 95.5 73 C 95.8 73 96 73.2 96 73.5 L 96 74 L 98 74 L 98 73.5 C 98 73.2 98.2 73 98.5 73 C 98.8 73 99 73.2 99 73.5 L 99 74 L 101 74 L 101 71.5 C 101 71.2 101.2 71 101.5 71 C 101.8 71 102 71.2 102 71.5 L 102 74 L 105 74 C 105.55 74 106 73.55 106 73 L 106 70 L 103.5 70 C 103.2 70 103 69.8 103 69.5 C 103 69.2 103.2 69 103.5 69 L 106 69 L 106 67 L 105.5 67 C 105.2 67 105 66.8 105 66.5 C 105 66.2 105.2 66 105.5 66 L 106 66 L 106 64 L 105.5 64 C 105.2 64 105 63.8 105 63.5 C 105 63.2 105.2 63 105.5 63 L 106 63 L 106 61 L 105.5 61 C 105.2 61 105 60.8 105 60.5 C 105 60.2 105.2 60 105.5 60 L 106 60 L 106 58 L 103.5 58 C 103.2 58 103 57.8 103 57.5 C 103 57.2 103.2 57 103.5 57 L 106 57 L 106 55 L 105.5 55 C 105.2 55 105 54.8 105 54.5 C 105 54.2 105.2 54 105.5 54 L 106 54 L 106 52 L 105.5 52 C 105.2 52 105 51.8 105 51.5 C 105 51.2 105.2 51 105.5 51 L 106 51 L 106 49 L 105.5 49 C 105.2 49 105 48.8 105 48.5 C 105 48.2 105.2 48 105.5 48 L 106 48 L 106 46 L 103.5 46 C 103.2 46 103 45.8 103 45.5 C 103 45.2 103.2 45 103.5 45 L 106 45 L 106 43 L 105.5 43 C 105.2 43 105 42.8 105 42.5 C 105 42.2 105.2 42 105.5 42 L 106 42 L 106 40 L 105.5 40 C 105.2 40 105 39.8 105 39.5 C 105 39.2 105.2 39 105.5 39 L 106 39 L 106 37 L 105.5 37 C 105.2 37 105 36.8 105 36.5 C 105 36.2 105.2 36 105.5 36 L 106 36 L 106 34 L 103.5 34 C 103.2 34 103 33.8 103 33.5 C 103 33.2 103.2 33 103.5 33 L 106 33 L 106 31 L 105.5 31 C 105.2 31 105 30.8 105 30.5 C 105 30.2 105.2 30 105.5 30 L 106 30 L 106 28 L 105.5 28 C 105.2 28 105 27.8 105 27.5 C 105 27.2 105.2 27 105.5 27 L 106 27 L 106 25 L 105.5 25 C 105.2 25 105 24.8 105 24.5 C 105 24.2 105.2 24 105.5 24 L 106 24 L 106 22 L 103.5 22 C 103.2 22 103 21.8 103 21.5 C 103 21.2 103.2 21 103.5 21 L 106 21 L 106 18.26 C 106 17.73 105.6 17.26 105.05 17.24 z M 105.04 17.74 C 105.3 17.75 105.5 18 105.5 18.26 L 105.5 20.5 L 103.5 20.5 C 102.95 20.5 102.5 20.95 102.5 21.5 C 102.5 22.05 102.95 22.5 103.5 22.5 L 105.5 22.5 L 105.5 23.5 C 104.95 23.5 104.5 23.95 104.5 24.5 C 104.5 25.05 104.95 25.5 105.5 25.5 L 105.5 26.5 C 104.95 26.5 104.5 26.95 104.5 27.5 C 104.5 28.05 104.95 28.5 105.5 28.5 L 105.5 29.5 C 104.95 29.5 104.5 29.95 104.5 30.5 C 104.5 31.05 104.95 31.5 105.5 31.5 L 105.5 32.5 L 103.5 32.5 C 102.95 32.5 102.5 32.95 102.5 33.5 C 102.5 34.05 102.95 34.5 103.5 34.5 L 105.5 34.5 L 105.5 35.5 C 104.95 35.5 104.5 35.95 104.5 36.5 C 104.5 37.05 104.95 37.5 105.5 37.5 L 105.5 38.5 C 104.95 38.5 104.5 38.95 104.5 39.5 C 104.5 40.05 104.95 40.5 105.5 40.5 L 105.5 41.5 C 104.95 41.5 104.5 41.95 104.5 42.5 C 104.5 43.05 104.95 43.5 105.5 43.5 L 105.5 44.5 L 103.5 44.5 C 102.95 44.5 102.5 44.95 102.5 45.5 C 102.5 46.05 102.95 46.5 103.5 46.5 L 105.5 46.5 L 105.5 47.5 C 104.95 47.5 104.5 47.95 104.5 48.5 C 104.5 49.05 104.95 49.5 105.5 49.5 L 105.5 50.5 C 104.95 50.5 104.5 50.95 104.5 51.5 C 104.5 52.05 104.95 52.5 105.5 52.5 L 105.5 53.5 C 104.95 53.5 104.5 53.95 104.5 54.5 C 104.5 55.05 104.95 55.5 105.5 55.5 L 105.5 56.5 L 103.5 56.5 C 102.95 56.5 102.5 56.95 102.5 57.5 C 102.5 58.05 102.95 58.5 103.5 58.5 L 105.5 58.5 L 105.5 59.5 C 104.95 59.5 104.5 59.95 104.5 60.5 C 104.5 61.05 104.95 61.5 105.5 61.5 L 105.5 62.5 C 104.95 62.5 104.5 62.95 104.5 63.5 C 104.5 64.05 104.95 64.5 105.5 64.5 L 105.5 65.5 C 104.95 65.5 104.5 65.95 104.5 66.5 C 104.5 67.05 104.95 67.5 105.5 67.5 L 105.5 68.5 L 103.5 68.5 C 102.95 68.5 102.5 68.95 102.5 69.5 C 102.5 70.05 102.95 70.5 103.5 70.5 L 105.5 70.5 L 105.5 73 C 105.5 73.3 105.3 73.5 105 73.5 L 102.5 73.5 L 102.5 71.5 C 102.5 70.95 102.05 70.5 101.5 70.5 C 100.95 70.5 100.5 70.95 100.5 71.5 L 100.5 73.5 L 99.5 73.5 C 99.5 72.95 99.05 72.5 98.5 72.5 C 97.95 72.5 97.5 72.95 97.5 73.5 L 96.5 73.5 C 96.5 72.95 96.05 72.5 95.5 72.5 C 94.95 72.5 94.5 72.95 94.5 73.5 L 93.5 73.5 C 93.5 72.95 93.05 72.5 92.5 72.5 C 91.95 72.5 91.5 72.95 91.5 73.5 L 90.5 73.5 L 90.5 71.5 C 90.5 70.95 90.05 70.5 89.5 70.5 C 88.95 70.5 88.5 70.95 88.5 71.5 L 88.5 73.5 L 87.5 73.5 C 87.5 72.95 87.05 72.5 86.5 72.5 C 85.95 72.5 85.5 72.95 85.5 73.5 L 84.5 73.5 C 84.5 72.95 84.05 72.5 83.5 72.5 C 82.95 72.5 82.5 72.95 82.5 73.5 L 81.5 73.5 C 81.5 72.95 81.05 72.5 80.5 72.5 C 79.95 72.5 79.5 72.95 79.5 73.5 L 78.5 73.5 L 78.5 71.5 C 78.5 70.95 78.05 70.5 77.5 70.5 C 76.95 70.5 76.5 70.95 76.5 71.5 L 76.5 73.5 L 75.5 73.5 C 75.5 72.95 75.05 72.5 74.5 72.5 C 73.95 72.5 73.5 72.95 73.5 73.5 L 72.5 73.5 C 72.5 72.95 72.05 72.5 71.5 72.5 C 70.95 72.5 70.5 72.95 70.5 73.5 L 69.5 73.5 C 69.5 72.95 69.05 72.5 68.5 72.5 C 67.95 72.5 67.5 72.95 67.5 73.5 L 66.5 73.5 L 66.5 71.5 C 66.5 70.95 66.05 70.5 65.5 70.5 C 64.95 70.5 64.5 70.95 64.5 71.5 L 64.5 73.5 L 63.5 73.5 C 63.5 72.95 63.05 72.5 62.5 72.5 C 61.95 72.5 61.5 72.95 61.5 73.5 L 60.5 73.5 C 60.5 72.95 60.05 72.5 59.5 72.5 C 58.95 72.5 58.5 72.95 58.5 73.5 L 57.5 73.5 C 57.5 72.95 57.05 72.5 56.5 72.5 C 55.95 72.5 55.5 72.95 55.5 73.5 L 54.5 73.5 L 54.5 71.5 C 54.5 70.95 54.05 70.5 53.5 70.5 C 52.95 70.5 52.5 70.95 52.5 71.5 L 52.5 73.5 L 51.5 73.5 C 51.5 72.95 51.05 72.5 50.5 72.5 C 49.95 72.5 49.5 72.95 49.5 73.5 L 48.5 73.5 C 48.5 72.95 48.05 72.5 47.5 72.5 C 46.95 72.5 46.5 72.95 46.5 73.5 L 45.5 73.5 C 45.5 72.95 45.05 72.5 44.5 72.5 C 43.95 72.5 43.5 72.95 43.5 73.5 L 42.5 73.5 L 42.5 71.5 C 42.5 70.95 42.05 70.5 41.5 70.5 C 40.95 70.5 40.5 70.95 40.5 71.5 L 40.5 73.5 L 39.5 73.5 C 39.5 72.95 39.05 72.5 38.5 72.5 C 37.95 72.5 37.5 72.95 37.5 73.5 L 36.5 73.5 C 36.5 72.95 36.05 72.5 35.5 72.5 C 34.95 72.5 34.5 72.95 34.5 73.5 L 33.5 73.5 C 33.5 72.95 33.05 72.5 32.5 72.5 C 31.95 72.5 31.5 72.95 31.5 73.5 L 30.5 73.5 L 30.5 71.5 C 30.5 70.95 30.05 70.5 29.5 70.5 C 28.95 70.5 28.5 70.95 28.5 71.5 L 28.5 73.5 L 27.5 73.5 C 27.5 72.95 27.05 72.5 26.5 72.5 C 25.95 72.5 25.5 72.95 25.5 73.5 L 24.5 73.5 C 24.5 72.95 24.05 72.5 23.5 72.5 C 22.95 72.5 22.5 72.95 22.5 73.5 L 21.5 73.5 C 21.5 72.95 21.05 72.5 20.5 72.5 C 19.95 72.5 19.5 72.95 19.5 73.5 L 18.5 73.5 L 18.5 71.5 C 18.5 70.95 18.05 70.5 17.5 70.5 C 16.95 70.5 16.5 70.95 16.5 71.5 L 16.5 73.5 L 12.3 73.5 C 12 73.5 11.87 73.34 11.8 73.13 C 11.75 72.9 11.8 72.7 12.04 72.57 A .5 .5 0 0 0 12.04 72.56 L 104.75 17.83 C 104.87 17.76 104.96 17.74 105.04 17.74 z M 92.24 40.1 A .5 .5 0 0 0 91.74 40.1 L 59.96 59.57 A .5 .5 0 0 0 60.2 60.5 L 92 60.5 A .5 .5 0 0 0 92.5 60 L 92.5 40.53 A .5 .5 0 0 0 92.24 40.1 z M 92 40.53 L 92 60 L 60.2 60 L 92 40.53 z " fill="currentColor" opacity=".6"/></g><use href="#uQI" opacity=".4"></use><use fill="url(#uQG)" href="#uQI" opacity=".2"></use><path d="m 54,32 c -6,0 -6,4 -14,4 H 14 c -3.3,0 -6,2.7 -6,6 v 64 c 0,3.3 2.7,6 6,6 h 100 c 3.3,0 6,-2.7 6,-6 V 52 42 38 c 0,-3.3 -2.7,-6 -6,-6 z" fill="url(#uQF)" opacity=".2"/><path class="ColorScheme-Contrast" d="m 8,105 v 1 c 0,3.3 2.7,6 6,6 h 100 c 3.3,0 6,-2.7 6,-6 v -1 c 0,3.3 -2.7,6 -6,6 H 14 c -3.3,0 -6,-2.7 -6,-6 z" fill="currentColor" opacity=".1"/><path class="ColorScheme-Contrast" d="m 8,105.5 v 0.5 c 0,3.3 2.7,6 6,6 h 100 c 3.3,0 6,-2.7 6,-6 v -0.5 c 0,3.3 -2.7,6 -6,6 H 14 c -3.3,0 -6,-2.7 -6,-6 z" fill="currentColor" opacity=".2"/><path d="m 54,32 c -6,0 -6,4 -14,4 H 14 c -3.3,0 -6,2.7 -6,6 v 1 c 0,-3.3 2.7,-6 6,-6 h 26 c 8,0 8,-4 14,-4 h 60 c 3.3,0 6,2.7 6,6 v -1 c 0,-3.3 -2.7,-6 -6,-6 z" fill="#fff" opacity=".1"/><path d="m 54,32 c -6,0 -6,4 -14,4 H 14 c -3.3,0 -6,2.7 -6,6 v 0.5 c 0,-3.3 2.7,-6 6,-6 h 26 c 8,0 8,-4 14,-4 h 60 c 3.3,0 6,2.7 6,6 V 38 c 0,-3.3 -2.7,-6 -6,-6 z" fill="#fff" opacity=".2"/><path d="m 54,31 c -6,0 -6,4 -14,4 H 14 v 1 h 26 c 8,0 8,-4 14,-4 h 60 v -1 z" opacity=".1"/><path d="m 54,31.5 c -6,0 -6,4 -14,4 H 14 V 36 h 26 c 8,0 8,-4 14,-4 h 60 v -0.5 z" opacity=".2"/></g>
</svg>