<svg height="128" version="1.1" width="128" xmlns="http://www.w3.org/2000/svg" xmlns:svg="http://www.w3.org/2000/svg" xmlns:xlink="http://www.w3.org/1999/xlink">
<defs id="primary-definitions">
<style id="current-color-scheme" type="text/css">
      .ColorScheme-Text           { color:#fff; }
      .ColorScheme-Background     { color:#111; }
      .ColorScheme-Highlight      { color:#3daefd; }
      .ColorScheme-ViewBackground { color:#000; }
      .ColorScheme-PositiveText   { color:#27ae60; }
      .ColorScheme-NeutralText    { color:#f67400; }
      .ColorScheme-NegativeText   { color:#da4453; }
    </style>
<style id="extended-color-scheme" type="text/css">
      .ExScheme-Black     { color:#3e3e3e; }
      .ExScheme-White     { color:#fcfcfc; }
      .ExScheme-Grey-1    { color:#cfd5d5; }
      .ExScheme-Grey-2    { color:#909c9c; }
      .ExScheme-Grey-3    { color:#536161; }
      .ExScheme-Red-1     { color:#ffafa5; }
      .ExScheme-Red-2     { color:#bf4231; }
      .ExScheme-Red-3     { color:#4d2f2b; }
      .ExScheme-Green-1   { color:#abf9c7; }
      .ExScheme-Green-2   { color:#3bb566; }
      .ExScheme-Green-3   { color:#377d50; }
      .ExScheme-Blue-1    { color:#abdaf9; }
      .ExScheme-Blue-2    { color:#3daefd; }
      .ExScheme-Blue-3    { color:#2b3c4d; }
      .ExScheme-Yellow-1  { color:#faffa5; }
      .ExScheme-Yellow-2  { color:#cac726; }
      .ExScheme-Yellow-3  { color:#4b4d2b; }
      .ExScheme-Orange-1  { color:#ffdaa5; }
      .ExScheme-Orange-2  { color:#ff9701; }
      .ExScheme-Orange-3  { color:#4d372b; }
      .ExScheme-Brown-1   { color:#e9d6bb; }
      .ExScheme-Brown-2   { color:#997657; }
      .ExScheme-Brown-3   { color:#433a35; }
      .ExScheme-Purple-1  { color:#e2abf9; }
      .ExScheme-Purple-2  { color:#b401ff; }
      .ExScheme-Purple-3  { color:#432b4d; }
      .ExScheme-Cyan-1    { color:#b2f2e6; }
      .ExScheme-Cyan-2    { color:#31bfa6; }
      .ExScheme-Cyan-3    { color:#2b4d47; }
      .ExScheme-Magenta-1 { color:#f8a6d8; }
      .ExScheme-Magenta-2 { color:#f00091; }
      .ExScheme-Magenta-3 { color:#770048; }
    </style>
<linearGradient id="uyv">
<stop offset="0"/>
<stop offset="1" stop-opacity="0"/>
</linearGradient>
<linearGradient id="uyw">
<stop offset="0" stop-color="#fff"/>
<stop offset="1" stop-color="#fff" stop-opacity="0"/>
</linearGradient>
<style class="toggle-enable-crease" type="text/css">
        .folder-crease { display: none; }
    </style><style class="toggle-manilla-folders" type="text/css">
        .folder-manilla { display: none; }
    </style><radialGradient cx=".5" cy="0" id="uyx" r="1" xlink:href="#uyw"/><linearGradient id="uyy" xlink:href="#uyv" y1="1" y2=".5"/><path d="m 20,16 c -3.3,0 -6,2.7 -6,6 v 14 c -3.3,0 -6,2.7 -6,6 v 64 c 0,3.3 2.7,6 6,6 h 100 c 3.3,0 6,-2.7 6,-6 V 52 42 38 c 0,-3.3 -2.7,-6 -6,-6 v -6 c 0,-3.3 -2.7,-6 -6,-6 H 56 c -8,0 -8,-4 -14,-4 z" id="uyz"></path><path d="m 20,16 c -3.3,0 -6,2.7 -6,6 v 14 h 26 c 8,0 8,-4 14,-4 h 60 v -6 c 0,-3.3 -2.7,-6 -6,-6 H 56 c -8,0 -8,-4 -14,-4 z" id="uyA"></path></defs>
<g id="content" transform="translate(0,0)"><use class="folder-manilla ExScheme-Brown-1" fill="currentColor" href="#uyz"></use><use class="toggle-manilla-folders ColorScheme-Highlight" fill="currentColor" href="#uyz" id="primary-color"></use><use class="ColorScheme-Text" fill="currentColor" href="#uyz" opacity=".1"></use><g id="emblem" transform="translate(32,42)"><path class="ColorScheme-Background" d="M 19 6 L 19 16 L 18 16 L 9 16 C 7.34 16 6 17.34 6 19 L 6 45 C 6 46.66 7.34 48 9 48 L 19 48 L 19 58 L 45 58 L 45 48 L 55 48 C 56.66 48 58 46.66 58 45 L 58 19 C 58 17.34 56.66 16 55 16 L 46 16 L 45 16 L 45 6 L 19 6 z M 20 7 L 44 7 L 44 20 L 20 20 L 20 7 z M 9 17 L 17 17 L 17 20 C 17 20.55 17.45 21 18 21 L 46 21 C 46.55 21 47 20.55 47 20 L 47 17 L 55 17 C 56.1 17 57 17.9 57 19 L 57 45 C 57 46.1 56.1 47 55 47 L 47 47 L 47 37 C 47 36.45 46.55 36 46 36 L 18 36 C 17.45 36 17 36.45 17 37 L 17 47 L 9 47 C 7.9 47 7 46.1 7 45 L 7 19 C 7 17.9 7.9 17 9 17 z M 48 31 A 1 1 0 0 0 47 32 A 1 1 0 0 0 48 33 A 1 1 0 0 0 49 32 A 1 1 0 0 0 48 31 z M 53 31 A 1 1 0 0 0 52 32 A 1 1 0 0 0 53 33 A 1 1 0 0 0 54 32 A 1 1 0 0 0 53 31 z M 20 42 L 44 42 L 44 57 L 20 57 L 20 42 z " fill="currentColor" opacity=".6" stop-color="#000000"/><path class="ColorScheme-Background" d="M 28 45 L 28 46 L 42 46 L 42 45 L 28 45 z M 34 49 L 34 50 L 42 50 L 42 49 L 34 49 z M 30 53 L 30 54 L 42 54 L 42 53 L 30 53 z " fill="currentColor" opacity=".6" stop-color="#000000"/><path class="ColorScheme-Background" d="m 28,45 v 1 h 14 v -1 z m 6,4 v 1 h 8 v -1 z m -4,4 v 1 h 12 v -1 z" fill="currentColor" opacity=".6" stop-color="#000000"/><path class="ColorScheme-Background" d="M 19,6 V 16 H 18 9 c -1.66,0 -3,1.34 -3,3 v 26 c 0,1.66 1.34,3 3,3 H 19 V 58 H 45 V 48 h 10 c 1.66,0 3,-1.34 3,-3 V 19 c 0,-1.66 -1.34,-3 -3,-3 H 46 45 V 6 Z m 1,1 H 44 V 20 H 20 Z m -0.5,9 v 4 c 2.8e-5,.3 .2,.5 0.5,0.5 h -2 c -.3,0 -0.5,-.2 -0.5,-0.5 v -3 c -2.8e-5,-.3 -.2,-.5 -0.5,-0.5 h 1 1 c .3,-2.8e-5 .5,-.2 0.5,-0.5 z m 25,0 c 2.8e-5,.3 .2,.5 0.5,0.5 h 1 1 c -.3,2.8e-5 -.5,.2 -0.5,0.5 v 3 c 0,.3 -.2,0.5 -0.5,0.5 h -2 c .3,-2.8e-5 .5,-.2 0.5,-0.5 z M 9,17 h 8 v 3 c 0,.55 .45,1 1,1 h 28 c .55,0 1,-.45 1,-1 v -3 h 8 c 1.1,0 2,.9 2,2 v 26 c 0,1.1 -.9,2 -2,2 H 47 V 37 c 0,-.55 -.45,-1 -1,-1 H 18 c -.55,0 -1,.45 -1,1 V 47 H 9 C 7.9,47 7,46.1 7,45 V 19 c 0,-1.1 .9,-2 2,-2 z m 39,14 c -.55,-1e-6 -1,.45 -1,1 0,.55 .45,1 1,1 .55,10e-7 1,-.45 1,-1 0,-.55 -.45,-1 -1,-1 z m 5,0 c -.55,-1e-6 -1,.45 -1,1 0,.55 .45,1 1,1 .55,10e-7 1,-.45 1,-1 0,-.55 -.45,-1 -1,-1 z m -5,0.5 c .3,0 0.5,.2 0.5,0.5 0,.3 -.2,0.5 -0.5,0.5 -.3,0 -0.5,-.2 -0.5,-0.5 0,-.3 .2,-0.5 0.5,-0.5 z m 5,0 c .3,0 0.5,.2 0.5,0.5 0,.3 -.2,0.5 -0.5,0.5 -.3,0 -0.5,-.2 -0.5,-0.5 0,-.3 .2,-0.5 0.5,-0.5 z m -35,5 h 28 c .3,0 0.5,.2 0.5,0.5 v 10 c 2.8e-5,.3 .2,.5 0.5,0.5 h -2 c -.3,2.8e-5 -.5,.2 -0.5,0.5 V 42 C 44.5,41.7 44.3,41.5 44,41.5 H 20 c -.3,2.8e-5 -.5,.2 -0.5,0.5 v 6 c -2.8e-5,-.3 -.2,-.5 -0.5,-0.5 h -2 c .3,-2.8e-5 .5,-.2 0.5,-0.5 V 37 c 0,-.3 .2,-0.5 0.5,-0.5 z M 20,42 H 44 V 57 H 20 Z" fill="currentColor" opacity=".6"/></g><use href="#uyA" opacity=".4"></use><use class="toggle-flat-design" fill="url(#uyy)" href="#uyA" opacity=".2"></use><path class="toggle-flat-design" d="m 54,32 c -6,0 -6,4 -14,4 H 14 c -3.3,0 -6,2.7 -6,6 v 64 c 0,3.3 2.7,6 6,6 h 100 c 3.3,0 6,-2.7 6,-6 V 52 42 38 c 0,-3.3 -2.7,-6 -6,-6 z" fill="url(#uyx)" opacity=".2"/><path class="folder-crease " d="m 8,88 v 4 h 18 c 1.1,0 2,-.9 2,-2 0,-1.1 -.9,-2 -2,-2 z m 94,0 c -1.1,0 -2,.9 -2,2 0,1.1 .9,2 2,2 h 18 v -4 z" opacity=".4"/><path class="ColorScheme-Text" d="m 8,105 v 1 c 0,3.3 2.7,6 6,6 h 100 c 3.3,0 6,-2.7 6,-6 v -1 c 0,3.3 -2.7,6 -6,6 H 14 c -3.3,0 -6,-2.7 -6,-6 z" fill="currentColor" opacity=".1"/><path class="ColorScheme-Text" d="m 8,105.5 v 0.5 c 0,3.3 2.7,6 6,6 h 100 c 3.3,0 6,-2.7 6,-6 v -0.5 c 0,3.3 -2.7,6 -6,6 H 14 c -3.3,0 -6,-2.7 -6,-6 z" fill="currentColor" opacity=".2"/><path d="m 54,32 c -6,0 -6,4 -14,4 H 14 c -3.3,0 -6,2.7 -6,6 v 1 c 0,-3.3 2.7,-6 6,-6 h 26 c 8,0 8,-4 14,-4 h 60 c 3.3,0 6,2.7 6,6 v -1 c 0,-3.3 -2.7,-6 -6,-6 z" fill="#fff" opacity=".1"/><path d="m 54,32 c -6,0 -6,4 -14,4 H 14 c -3.3,0 -6,2.7 -6,6 v 0.5 c 0,-3.3 2.7,-6 6,-6 h 26 c 8,0 8,-4 14,-4 h 60 c 3.3,0 6,2.7 6,6 V 38 c 0,-3.3 -2.7,-6 -6,-6 z" fill="#fff" opacity=".2"/><path d="m 54,31 c -6,0 -6,4 -14,4 H 14 v 1 h 26 c 8,0 8,-4 14,-4 h 60 v -1 z" opacity=".1"/><path d="m 54,31.5 c -6,0 -6,4 -14,4 H 14 V 36 h 26 c 8,0 8,-4 14,-4 h 60 v -0.5 z" opacity=".2"/></g>
</svg>