<svg height="128" version="1.1" width="128" xmlns="http://www.w3.org/2000/svg" xmlns:svg="http://www.w3.org/2000/svg" xmlns:xlink="http://www.w3.org/1999/xlink">
<defs id="primary-definitions">
<style id="current-color-scheme" type="text/css">
      .ColorScheme-Text           { color:#fff; }
      .ColorScheme-Background     { color:#111; }
      .ColorScheme-Highlight      { color:#3daefd; }
      .ColorScheme-ViewBackground { color:#000; }
      .ColorScheme-PositiveText   { color:#27ae60; }
      .ColorScheme-NeutralText    { color:#f67400; }
      .ColorScheme-NegativeText   { color:#da4453; }
    </style>
<style id="extended-color-scheme" type="text/css">
      .ExScheme-Black     { color:#3e3e3e; }
      .ExScheme-White     { color:#fcfcfc; }
      .ExScheme-Grey-1    { color:#cfd5d5; }
      .ExScheme-Grey-2    { color:#909c9c; }
      .ExScheme-Grey-3    { color:#536161; }
      .ExScheme-Red-1     { color:#ffafa5; }
      .ExScheme-Red-2     { color:#bf4231; }
      .ExScheme-Red-3     { color:#4d2f2b; }
      .ExScheme-Green-1   { color:#abf9c7; }
      .ExScheme-Green-2   { color:#3bb566; }
      .ExScheme-Green-3   { color:#377d50; }
      .ExScheme-Blue-1    { color:#abdaf9; }
      .ExScheme-Blue-2    { color:#3daefd; }
      .ExScheme-Blue-3    { color:#2b3c4d; }
      .ExScheme-Yellow-1  { color:#faffa5; }
      .ExScheme-Yellow-2  { color:#cac726; }
      .ExScheme-Yellow-3  { color:#4b4d2b; }
      .ExScheme-Orange-1  { color:#ffdaa5; }
      .ExScheme-Orange-2  { color:#ff9701; }
      .ExScheme-Orange-3  { color:#4d372b; }
      .ExScheme-Brown-1   { color:#e9d6bb; }
      .ExScheme-Brown-2   { color:#997657; }
      .ExScheme-Brown-3   { color:#433a35; }
      .ExScheme-Purple-1  { color:#e2abf9; }
      .ExScheme-Purple-2  { color:#b401ff; }
      .ExScheme-Purple-3  { color:#432b4d; }
      .ExScheme-Cyan-1    { color:#b2f2e6; }
      .ExScheme-Cyan-2    { color:#31bfa6; }
      .ExScheme-Cyan-3    { color:#2b4d47; }
      .ExScheme-Magenta-1 { color:#f8a6d8; }
      .ExScheme-Magenta-2 { color:#f00091; }
      .ExScheme-Magenta-3 { color:#770048; }
    </style>
<linearGradient id="ub4">
<stop offset="0"/>
<stop offset="1" stop-opacity="0"/>
</linearGradient>
<linearGradient id="ub5">
<stop offset="0" stop-color="#fff"/>
<stop offset="1" stop-color="#fff" stop-opacity="0"/>
</linearGradient>
<style class="toggle-enable-crease" type="text/css">
        .folder-crease { display: none; }
    </style><style class="toggle-manilla-folders" type="text/css">
        .folder-manilla { display: none; }
    </style><radialGradient cx=".5" cy="0" id="ub6" r="1" xlink:href="#ub5"/><linearGradient id="ub7" xlink:href="#ub4" y1="1" y2=".5"/><path d="m 20,16 c -3.3,0 -6,2.7 -6,6 v 14 c -3.3,0 -6,2.7 -6,6 v 64 c 0,3.3 2.7,6 6,6 h 100 c 3.3,0 6,-2.7 6,-6 V 52 42 38 c 0,-3.3 -2.7,-6 -6,-6 v -6 c 0,-3.3 -2.7,-6 -6,-6 H 56 c -8,0 -8,-4 -14,-4 z" id="ub8"></path><path d="m 20,16 c -3.3,0 -6,2.7 -6,6 v 14 h 26 c 8,0 8,-4 14,-4 h 60 v -6 c 0,-3.3 -2.7,-6 -6,-6 H 56 c -8,0 -8,-4 -14,-4 z" id="ub9"></path></defs>
<g id="content" transform="translate(0,0)"><use class="folder-manilla ExScheme-Brown-1" fill="currentColor" href="#ub8"></use><use class="toggle-manilla-folders ColorScheme-Highlight" fill="currentColor" href="#ub8" id="primary-color"></use><use class="ColorScheme-Text" fill="currentColor" href="#ub8" opacity=".1"></use><g id="emblem" transform="translate(32,42)"><path class="ColorScheme-Background" d="M 25.76 12 L 16 31.53 L 12.24 24 L 4 24 L 4 28 L 9.76 28 L 13.76 36 L 18.24 36 L 28.24 16 L 56 16 L 56 20 L 60 20 L 60 12 L 25.76 12 z M 44 20 C 39.6 20 36 23.6 36 28 C 36 32.4 39.6 36 44 36 C 45.4 36 46.8 35.6 48 34.9 L 48 36 L 52 36 L 52 28 L 52 20 L 48 20 L 48 21.1 C 46.8 20.37 45.4 20 44 20 z M 44 24 C 46.2 24 48 25.8 48 28 C 48 30.2 46.2 32 44 32 C 41.8 32 40 30.2 40 28 C 40 25.8 41.8 24 44 24 z M 4 40 L 4 44 L 60 44 L 60 40 L 4 40 z M 28 48 L 28 52 L 36 52 L 36 48 L 28 48 z " fill="currentColor" opacity=".6"/><path class="ColorScheme-Background" d="M 25.76 12 L 16 31.53 L 12.24 24 L 4 24 L 4 28 L 9.76 28 L 13.76 36 L 18.24 36 L 28.24 16 L 56 16 L 56 20 L 60 20 L 60 12 L 25.76 12 z M 26.07 12.5 L 59.5 12.5 L 59.5 19.5 L 56.5 19.5 L 56.5 15.5 L 27.93 15.5 L 17.93 35.5 L 14.07 35.5 L 10.07 27.5 L 4.5 27.5 L 4.5 24.5 L 11.93 24.5 L 16 32.64 L 26.07 12.5 z M 44 20 C 39.6 20 36 23.6 36 28 C 36 32.4 39.6 36 44 36 C 45.4 36 46.8 35.6 48 34.9 L 48 36 L 52 36 L 52 28 L 52 20 L 48 20 L 48 21.1 C 46.8 20.37 45.4 20 44 20 z M 44 20.5 C 45.3 20.5 46.6 20.85 47.75 21.5 L 48.5 21.95 L 48.5 20.5 L 51.5 20.5 L 51.5 28 L 51.5 35.5 L 48.5 35.5 L 48.5 34.04 L 47.75 34.47 C 46.6 35.14 45.3 35.5 44 35.5 C 39.85 35.5 36.5 32.15 36.5 28 C 36.5 23.85 39.85 20.5 44 20.5 z M 44 23.5 C 41.5 23.5 39.5 25.5 39.5 28 C 39.5 30.5 41.5 32.5 44 32.5 C 46.5 32.5 48.5 30.5 48.5 28 C 48.5 25.5 46.5 23.5 44 23.5 z M 44 24 C 46.2 24 48 25.8 48 28 C 48 30.2 46.2 32 44 32 C 41.8 32 40 30.2 40 28 C 40 25.8 41.8 24 44 24 z M 4 40 L 4 44 L 60 44 L 60 40 L 4 40 z M 4.5 40.5 L 59.5 40.5 L 59.5 43.5 L 4.5 43.5 L 4.5 40.5 z M 28 48 L 28 52 L 36 52 L 36 48 L 28 48 z M 28.5 48.5 L 35.5 48.5 L 35.5 51.5 L 28.5 51.5 L 28.5 48.5 z " fill="currentColor" opacity=".6"/></g><use href="#ub9" opacity=".4"></use><use class="toggle-flat-design" fill="url(#ub7)" href="#ub9" opacity=".2"></use><path class="toggle-flat-design" d="m 54,32 c -6,0 -6,4 -14,4 H 14 c -3.3,0 -6,2.7 -6,6 v 64 c 0,3.3 2.7,6 6,6 h 100 c 3.3,0 6,-2.7 6,-6 V 52 42 38 c 0,-3.3 -2.7,-6 -6,-6 z" fill="url(#ub6)" opacity=".2"/><path class="folder-crease " d="m 8,88 v 4 h 18 c 1.1,0 2,-.9 2,-2 0,-1.1 -.9,-2 -2,-2 z m 94,0 c -1.1,0 -2,.9 -2,2 0,1.1 .9,2 2,2 h 18 v -4 z" opacity=".4"/><path class="ColorScheme-Text" d="m 8,105 v 1 c 0,3.3 2.7,6 6,6 h 100 c 3.3,0 6,-2.7 6,-6 v -1 c 0,3.3 -2.7,6 -6,6 H 14 c -3.3,0 -6,-2.7 -6,-6 z" fill="currentColor" opacity=".1"/><path class="ColorScheme-Text" d="m 8,105.5 v 0.5 c 0,3.3 2.7,6 6,6 h 100 c 3.3,0 6,-2.7 6,-6 v -0.5 c 0,3.3 -2.7,6 -6,6 H 14 c -3.3,0 -6,-2.7 -6,-6 z" fill="currentColor" opacity=".2"/><path d="m 54,32 c -6,0 -6,4 -14,4 H 14 c -3.3,0 -6,2.7 -6,6 v 1 c 0,-3.3 2.7,-6 6,-6 h 26 c 8,0 8,-4 14,-4 h 60 c 3.3,0 6,2.7 6,6 v -1 c 0,-3.3 -2.7,-6 -6,-6 z" fill="#fff" opacity=".1"/><path d="m 54,32 c -6,0 -6,4 -14,4 H 14 c -3.3,0 -6,2.7 -6,6 v 0.5 c 0,-3.3 2.7,-6 6,-6 h 26 c 8,0 8,-4 14,-4 h 60 c 3.3,0 6,2.7 6,6 V 38 c 0,-3.3 -2.7,-6 -6,-6 z" fill="#fff" opacity=".2"/><path d="m 54,31 c -6,0 -6,4 -14,4 H 14 v 1 h 26 c 8,0 8,-4 14,-4 h 60 v -1 z" opacity=".1"/><path d="m 54,31.5 c -6,0 -6,4 -14,4 H 14 V 36 h 26 c 8,0 8,-4 14,-4 h 60 v -0.5 z" opacity=".2"/></g>
</svg>