<svg height="128" version="1.1" width="128" xmlns="http://www.w3.org/2000/svg" xmlns:svg="http://www.w3.org/2000/svg" xmlns:xlink="http://www.w3.org/1999/xlink">
<defs id="primary-definitions">
<style id="current-color-scheme" type="text/css">
      .ColorScheme-Text         { color: #232629; }
      .ColorScheme-Background   { color: #eff0f1; }
      .ColorScheme-Highlight    { color: #7ec9f0; }
      .ColorScheme-PositiveText { color: #27ae60; }
      .ColorScheme-NeutralText  { color: #f67400; }
      .ColorScheme-NegativeText { color: #da4453; }
      .ColorScheme-ActiveText   { color: #3daee9; }
      .ColorScheme-Complement   { color: #ffffff; }
      .ColorScheme-Contrast     { color: #000000; }
    </style>
<style id="extended-color-scheme" type="text/css">
      .ExScheme-Black     { color:#3e3e3e; }
      .ExScheme-White     { color:#fcfcfc; }
      .ExScheme-Grey-1    { color:#cfd5d5; }
      .ExScheme-Grey-2    { color:#909c9c; }
      .ExScheme-Grey-3    { color:#536161; }
      .ExScheme-Red-1     { color:#ffafa5; }
      .ExScheme-Red-2     { color:#bf4231; }
      .ExScheme-Red-3     { color:#4d2f2b; }
      .ExScheme-Green-1   { color:#abf9c7; }
      .ExScheme-Green-2   { color:#3bb566; }
      .ExScheme-Green-3   { color:#377d50; }
      .ExScheme-Blue-1    { color:#abdaf9; }
      .ExScheme-Blue-2    { color:#3daefd; }
      .ExScheme-Blue-3    { color:#2b3c4d; }
      .ExScheme-Yellow-1  { color:#faffa5; }
      .ExScheme-Yellow-2  { color:#cac726; }
      .ExScheme-Yellow-3  { color:#4b4d2b; }
      .ExScheme-Orange-1  { color:#ffdaa5; }
      .ExScheme-Orange-2  { color:#ff9701; }
      .ExScheme-Orange-3  { color:#4d372b; }
      .ExScheme-Brown-1   { color:#e9d6bb; }
      .ExScheme-Brown-2   { color:#997657; }
      .ExScheme-Brown-3   { color:#433a35; }
      .ExScheme-Purple-1  { color:#e2abf9; }
      .ExScheme-Purple-2  { color:#b401ff; }
      .ExScheme-Purple-3  { color:#432b4d; }
      .ExScheme-Cyan-1    { color:#b2f2e6; }
      .ExScheme-Cyan-2    { color:#31bfa6; }
      .ExScheme-Cyan-3    { color:#2b4d47; }
      .ExScheme-Magenta-1 { color:#f8a6d8; }
      .ExScheme-Magenta-2 { color:#f00091; }
      .ExScheme-Magenta-3 { color:#770048; }
    </style>
<linearGradient id="uNU">
<stop offset="0"/>
<stop offset="1" stop-opacity="0"/>
</linearGradient>
<linearGradient id="uNV">
<stop offset="0" stop-color="#fff"/>
<stop offset="1" stop-color="#fff" stop-opacity="0"/>
</linearGradient>
<style id="uNW" type="text/css">
        .force-display-for-editing { display: inline !important; }
    </style><style class="remove-if__show-crease" type="text/css">
        .enable-if__show-crease { display: none; }
    </style><style class="remove-if__color-sync-mimes-places" type="text/css">
        .enable-if__color-sync-mimes-places { display: none; }
    </style><radialGradient cx=".5" cy="0" id="uNX" r="1" xlink:href="#uNV"/><linearGradient id="uNY" xlink:href="#uNU" y1="1" y2=".5"/><style class="ColorScheme-Background" fill="currentColor" opacity=".6" type="text/css">
   .ColorScheme-Text           { color:#eff0f1; }
      .ColorScheme-Background     { color:#31363b; }
      .ColorScheme-Highlight      { color:#3daefd; }
      .ColorScheme-ViewBackground { color:#fcfcfc; }
      .ColorScheme-PositiveText   { color:#27ae60; }
      .ColorScheme-NeutralText    { color:#f67400; }
      .ColorScheme-NegativeText   { color:#da4453; }
  </style><path d="m 20,16 c -3.3,0 -6,2.7 -6,6 v 14 c -3.3,0 -6,2.7 -6,6 v 64 c 0,3.3 2.7,6 6,6 h 100 c 3.3,0 6,-2.7 6,-6 V 52 42 38 c 0,-3.3 -2.7,-6 -6,-6 v -6 c 0,-3.3 -2.7,-6 -6,-6 H 56 c -8,0 -8,-4 -14,-4 z" id="uNZ"></path><path d="m 20,16 c -3.3,0 -6,2.7 -6,6 v 14 h 26 c 8,0 8,-4 14,-4 h 60 v -6 c 0,-3.3 -2.7,-6 -6,-6 H 56 c -8,0 -8,-4 -14,-4 z" id="uO0"></path></defs>
<g id="content" transform="translate(0,0)"><use class="sync-color enable-if__color-sync-mimes-places force-display-for-editing ColorScheme-ActiveText" fill="currentColor" href="#uNZ"></use><use class="primary-color remove-if__color-sync-mimes-places ColorScheme-ActiveText" fill="currentColor" href="#uNZ"></use><use class="ColorScheme-Contrast" fill="currentColor" href="#uNZ" opacity=".1"></use><g id="panorama" transform="translate(8,32)"><rect fill="#fcfcfc" height="28.00004" ry="4" stop-color="#000000" transform="rotate(7.5)" width="28.00004" x="44.938217" y="15.165679"/><path d="m 46.3,23.4 c -1.1,-.14 -2.1,.6 -2.24,1.7 l -2.6,19.83 c -.14,1.1 .6,2.1 1.7,2.24 l 19.83,2.6 c 1.1,.14 2.1,-.6 2.24,-1.7 L 67.83,28.26 c .14,-1.1 -.6,-2.1 -1.7,-2.24 z m 2.25,3.6 4.05,5.3 -5.3,4.05 -1.2,-1.6 3.7,-2.83 -2.83,-3.7 z" fill="#68377d" id="rect37578" stop-color="#000000"/><path color="#000000" d="M 48.66 45.15 C 48.26 45.16 47.87 45.23 47.5 45.33 C 46.74 45.53 46 45.87 45.4 46.5 L 34.94 56.96 C 33.67 58.2 33.26 59.74 33.7 61.47 L 37.55 75.75 C 37.8 76.6 38.24 77.27 38.8 77.8 C 39.34 78.36 40 78.8 40.86 79.06 L 44.4 80 L 61.3 80 L 70.1 71.2 C 70.75 70.6 71.1 69.86 71.3 69.1 C 71.5 68.36 71.55 67.57 71.3 66.7 L 67.5 52.4 C 67.26 51.55 66.8 50.9 66.25 50.36 C 65.7 49.8 65.05 49.35 64.2 49.1 L 49.9 45.3 C 49.5 45.2 49.06 45.13 48.66 45.15 z " fill="#fcfcfc"/><path d="M 64.84,51.77 C 64.5,51.43 64.1,51.16 63.67,51.05 L 49.4,47.2 c -.8,-.2 -2,.1 -2.6,.7 L 36.35,58.37 c -.6,.6 -.9,1.77 -.7,2.6 l 3.8,14.27 c .1,.4 .4,.83 .7,1.17 L 53.9,64.74 Z" fill="#659ad2"/><path d="m 69.35,68.7 c .13,-.47 .15,-.97 .04,-1.4 L 65.56,52.94 c -.1,-.4 -.4,-.83 -.7,-1.17 l -12.3,12.3 2.8,3.4 z" fill="#00599c"/><path d="M 52.5 64.1 L 40.2 76.4 C 40.55 76.75 40.97 77 41.4 77.13 L 52.1 80 L 58.5 80 L 68.7 69.8 C 69 69.5 69.2 69.07 69.35 68.7 L 52.5 64.1 z " fill="#004382"/><path d="m 55.2,74.06 c -5.5,1.47 -11.17,-1.8 -12.64,-7.3 -1.47,-5.5 1.8,-11.17 7.3,-12.64 3.55,-.95 7.37,.07 9.97,2.67 l -3.65,3.65 c -1.3,-1.3 -3.2,-1.8 -5,-1.34 -2.75,.74 -4.4,3.57 -3.65,6.3 .74,2.75 3.57,4.4 6.3,3.65 1.77,-.5 3.17,-1.87 3.65,-3.65 l 5,1.34 c -.95,3.55 -3.75,6.34 -7.3,7.3 z" fill="#ffffff"/><polygon fill="#ffffff" points="243.666,177.841 255,177.841 255,166.508 243.666,166.508 243.666,155.175 232.334,155.175 232.334,166.508 221,166.508 221,177.841 232.334,177.841 232.334,189.175 243.666,189.175 " transform="matrix(.1,-.026,.026,.1,33.06,51.267)"/><polygon fill="#ffffff" points="286.166,177.841 297.5,177.841 297.5,166.508 286.166,166.508 286.166,155.175 274.834,155.175 274.834,166.508 263.5,166.508 263.5,177.841 274.834,177.841 274.834,189.175 286.166,189.175 " transform="matrix(.1,-.026,.026,.1,33.06,51.267)"/><path d="M 40.73 1.45 C 38.7 2.6 36.76 4 32 4 L 16.76 4 A 17 17 0 0 0 14.2 18.2 A 17 17 0 0 0 35.03 30.2 A 17 17 0 0 0 46 21.07 L 40.73 1.45 z " fill="#fcfcfc" stop-color="#000000" stroke-opacity=".2"/><path d="M 39.8 1.97 C 38.04 3 36.05 4 32 4 L 19.33 4 A 15 15 0 0 0 15.67 12.7 A 15 15 0 0 0 25.17 27.76 L 28.1 18.1 A 5 5 0 0 1 25.64 13.43 A 5 5 0 0 1 31 8.8 A 5 5 0 0 1 35.6 14.17 A 5 5 0 0 1 32.5 18.43 L 33.96 28.4 A 15 15 0 0 0 45.1 17.7 L 41.2 3.15 A 15 15 0 0 0 39.8 1.97 z " fill="#3bb566" stop-color="#000000" stroke-opacity=".2"/><path color="#000000" d="m 31.26,19.3 -2.15,.3 c -1.2,.15 -1.97,1.3 -1.7,2.46 0,0 .16,.66 .3,1.55 .1,.74 -.2,3 -.27,3.4 -.3,-.23 -.5,-.55 -1,-.6 -1,-.14 -2.24,.67 -2.6,1.47 -.35,.8 -.3,1.5 -.2,2.2 .26,1.54 .7,1.83 1.13,2.54 -.35,.45 -.77,.86 -.77,1.77 0,.5 -.05,.67 -.07,.73 -.3,.54 -.74,1.5 -.3,2.93 .4,1.46 1.23,1.93 1.95,2.47 .36,.27 .7,.5 1.06,.7 .16,.1 .54,.26 .6,.3 .2,.2 -.3,2.86 -.2,3.83 .1,.97 .47,1.77 .94,2.46 .25,.37 -.04,1.6 -.36,2.06 -1.1,1.26 -2,2.8 -2.36,4.6 -.36,1.8 -.1,3.9 1.2,5.6 .83,1.1 1.9,2.2 3.26,3 .66,.4 1.4,.7 2.23,.85 -0,.07 -0,.1 -0,.16 -.2,.9 -.54,2.1 -.2,3.53 .07,.3 .2,.56 .4,.8 .67,.83 1.9,1.4 2.9,1.3 1,-.1 1.7,-.55 2.25,-.96 1.1,-.84 2.03,-1.86 2.2,-2 1,-.7 1.55,-1.54 2,-2.1 .4,-.5 .63,-.66 .8,-.73 1.25,-.23 2.54,-.16 3.47,.14 .96,1.57 2.26,3.6 4.96,4.06 .14,.03 .3,.04 .43,.03 .5,-0.02 1,-.1 1.5,-.34 .55,-.26 1.16,-.9 1.36,-1.55 .4,-1.35 -.14,-2.03 -.4,-2.55 -.3,-.53 -1,-3.34 -1.1,-4.16 .4,-.35 1,-.6 1.2,-.96 .44,-.77 .53,-1.6 .53,-1.6 0,-.35 -.06,-.7 -.2,-1 .16,-.2 .4,-.3 .5,-.5 .4,-.64 .8,-1.67 .3,-2.76 -.45,-1 -1.43,-1.5 -2.3,-1.67 -.3,-.1 -.6,-.16 -.9,-.23 -.46,-.4 -1.06,-.54 -1.64,-.43 -.57,-.15 -1.14,-.3 -1.73,-.47 -0,-.1 -.03,-.15 -.04,-.43 -0,-.44 0,-1.05 -.26,-1.86 -.07,-.2 -.24,-.65 -.1,-.7 2.77,-1.1 6.4,-2.75 7.9,-6.5 0,-.06 .04,-.1 .06,-.17 1.1,-3.7 -2.35,-9.15 -3.35,-9.93 l 2.13,-4.2 c .5,-1.03 .07,-2.3 -1,-2.74 L 51.7,22.6 c -.6,-.06 -1.2,.16 -1.6,.6 -.04,-.07 -.1,-.14 -.13,-.2 l -1.64,-1.1 c -1.4,-.9 -3.2,.16 -3.1,1.8 l .2,2.8 c -1.07,-.3 -2.1,-.7 -3.24,-.7 -.05,-.03 -.1,-.05 -.16,-.07 -2.17,-.03 -4.2,.74 -6.07,1.86 l -.17,-.25 2.57,-2.1 c .8,-.66 .97,-1.84 .37,-2.7 l -1.35,-1.9 c -.7,-.96 -2.04,-1.14 -2.93,-.37 l -.95,.8 c -.1,-1.13 -1.1,-1.96 -2.2,-1.84 z" fill="#fcfcfc" fill-rule="evenodd"/><path d="m 46.4,29.26 1.17,-.84 -.33,-4.8 1.64,1.1 .47,3 1.6,-3.23 1.73,.75 -3,5.9 z" fill="#ffafa5" fill-rule="evenodd"/><path d="m 42,27.8 c -3.6,-.04 -7.26,2 -8.64,5.43 -.7,2.1 -1.44,4.2 -2.16,6.33 1.2,1 2.5,1.9 3.65,2.95 1.2,1.5 3.35,1.5 4.9,2.5 .56,1.3 -.33,1.3 -1.26,1.44 -.75,1.3 1.13,3.04 -.2,4.45 -.8,1.67 -1.8,3.26 -2.76,4.83 -1.7,-.3 -4.33,-.6 -4.37,-2.8 0,-1.35 -.67,-3.94 -2.04,-1.86 -1.85,2 -2.94,5.37 -1.1,7.76 1.4,1.87 3.7,3.7 6.17,3.1 .2,1.8 -.97,3.44 -.55,5.2 1.43,1.8 3.4,-1.14 4.64,-2.03 1.3,-.9 1.9,-2.65 3.4,-3.16 1.7,-.34 3.65,-.4 5.2,.3 1,1.6 2.14,3.56 4.14,3.9 2.66,-.1 -.5,-2.6 -.26,-3.95 -.15,-1.87 -.5,-3.7 -.8,-5.57 .95,-.07 -.2,-1.6 .86,-1.3 1.46,.3 3.36,-2 1.1,-2.33 -1.6,-.4 -3.1,-.8 -4.74,-1.25 -2.1,-.76 -.05,-3.8 -2.25,-4.36 -.7,-1.46 .9,-2.1 2.04,-2.4 2.67,-1.1 5.65,-2.54 6.8,-5.4 .8,-2.7 -.7,-5.45 -2.36,-7.47 -2.3,-2.7 -5.8,-4.45 -9.37,-4.36 z" fill="#54d883" fill-rule="evenodd"/><path d="m 45.36,52.7 .9,-.4 c 0,0 .4,1.35 1.8,.9 1.4,-.47 2.2,-1.03 2.2,-1.03 0,0 1.17,2.25 -.1,3.65 -1.26,1.4 -2,1.6 -2,1.6 -1.3,-1.15 -2.4,-2.54 -2.8,-4.7 z" fill="#ffe5e1" fill-rule="evenodd"/><path d="m 39.73,45.36 c 0,0 .47,.94 .23,1.73 -.23,.8 -1.45,1.73 -1.45,1.73 0,0 -.66,2.15 -1.9,3.93 -.63,.9 -1.46,1.03 -2.27,1.13 -.75,-1.4 -1.65,-.6 -2.6,.2 .17,.23 .36,.4 .55,.6 -0,0 -0,0 -.03,.04 -1.03,1.4 2.3,1.87 2.3,1.87 0,0 .4,-1.27 3.9,-.7 3.46,.56 4.63,2.85 9.1,3.2 4.44,.33 4.63,-2.3 4.63,-2.3 0,0 -1.73,-.66 -4.6,-3.93 -2.85,-3.3 -2.5,-6.65 -2.5,-6.65 l -5.34,-.84 z m -9.15,6.2 c -.2,.73 -.1,1.36 .67,1.84 1.1,-1.45 .24,-1.64 -.67,-1.84 z" fill="#ffafa5" fill-rule="evenodd"/><path d="m 35.63,30.7 -2.53,-3.7 4,-3.3 -1.35,-1.9 -4.07,3.46 -.14,-4.03 -2.15,.3 c 0,0 .84,3.4 .2,5.3 -.66,1.87 -1.73,3.75 -1.73,3.75 l 1.7,1.03 2.15,-3.5 2.2,4.77 c 0,0 .6,-.3 1.2,-1 .6,-.7 .56,-1.17 .56,-1.17 z" fill="#ffafa5" fill-rule="evenodd"/><path d="m 33.43,30.7 -1.5,1.3 c 0,0 -.66,-2 -.8,-3.05 -.13,-1.06 -.13,-2.85 -1.26,-2.6 -1.13,.26 -.73,5.1 -.73,5.1 0,0 -1.06,.53 -1.7,-1.5 -.66,-2.05 -2.1,-2.25 -1.8,-.26 .33,2 1.4,3.2 1.4,3.2 0,0 -1,.66 -1,1.46 0,.8 -.13,1.3 -.13,1.3 0,0 -.6,.86 -.33,1.8 .26,.93 2.2,2.2 2.5,2.1 .33,-.07 .8,1.13 1.9,1.6 1.13,.46 2.3,3.24 2.3,3.24 l 1.85,-.33 .93,-2.1 -.33,-2.05 z" fill="#54d883" fill-rule="evenodd"/><path d="m 38.55,45.36 c 0,0 .56,.9 .5,1.73 -.05,.84 -.8,1.87 -.8,1.87 0,0 -3.7,.94 -5.8,.05 -2.1,-.9 -4.54,-3.65 -3,-5.24 1.54,-1.6 5,-3.46 5.8,-2.06 .8,1.4 .75,4.36 1.64,4.2 .9,-.14 1.64,-.56 1.64,-.56 z" fill="#ffe5e1" fill-rule="evenodd"/><path color="#000000" d="M 67.4 0 C 67.04 .07 66.7 .15 66.3 .25 A 2 2 0 0 0 66.3 .25 C 62.07 1.4 58.7 4.4 56.63 8.25 C 56.43 8.27 56.24 8.3 56.05 8.25 A 2 2 0 0 0 56.04 8.25 C 55.36 8.43 54.74 8.8 54.25 9.3 C 53.24 10.3 52.85 11.77 53.2 13.15 L 55 19.85 L 56.8 26.54 C 57.44 28.9 60.07 29.9 62.2 29.06 C 65.9 31.36 70.33 32.3 74.7 31.16 A 2 2 0 0 0 74.6 31.16 C 83.1 28.9 88.2 20.07 85.9 11.56 C 84.3 5.47 79.3 1.13 73.5 0 L 67.4 0 z " fill="#fcfcfc"/><path d="m 66.84,2.2 a 14,14 0 0 0 -9.2,8 l -.03,-0 a 2,2 0 0 0 -1.04,-0 2,2 0 0 0 -.9,.5 2,2 0 0 0 -.5,1.93 l 1.8,6.7 1.8,6.7 a 2,2 0 0 0 3.35,.9 l 0,-0 A 14,14 0 0 0 74.1,29.23 14,14 0 0 0 84,12.1 14,14 0 0 0 66.84,2.2 Z" fill="#3bb566" stop-color="#000000"/><path d="m 32,18 -6,3.46 v -6.93 z" fill="#fcfcfc" opacity="1" stop-color="#000000" transform="matrix(1.93,-.52,.52,1.93,-.673,-2.507)"/><path d="m 67.36,4.1 a 12,12 0 0 0 -7.8,6.6 l 2,.53 A 10,10 0 0 1 67.9,6.04 10,10 0 0 1 80.1,13.1 10,10 0 0 1 73.05,25.36 10,10 0 0 1 64.97,24.03 l -1.45,1.45 a 12,12 0 0 0 10.05,1.8 12,12 0 0 0 8.5,-14.7 12,12 0 0 0 -14.7,-8.5 z" fill="#fcfcfc" stop-color="#000000"/><path d="m 68.4,7.97 a 8,8 0 0 0 -4.87,3.8 l 2,.54 a 6,6 0 0 1 3.4,-2.4 6,6 0 0 1 7.35,4.24 6,6 0 0 1 -4.24,7.35 6,6 0 0 1 -4.13,-.4 l -1.5,1.5 a 8,8 0 0 0 6.1,.85 8,8 0 0 0 5.66,-9.8 A 8,8 0 0 0 68.4,7.97 Z" fill="#fcfcfc" stop-color="#000000"/><path color="#000000" d="m 61.37,21.75 c -1.8,1.1 -2.64,3.3 -2.1,5.33 l 5.4,20.83 -1.03,.65 -0,0 c -1.1,.7 -1.6,2 -1.3,3.26 l 0,0 3.4,12.54 -0,0 c .5,1.86 2.8,2.75 4.4,1.73 l 0,-0 27.47,-17.3 0,-0 c 1.63,-1.03 1.8,-3.5 .34,-4.73 l -0,0 -9.85,-8.47 -0,-0 c -1,-.84 -2.4,-.94 -3.5,-.25 L 83.57,35.97 67.2,22.14 C 65.5,20.8 63.15,20.6 61.37,21.75 Z" fill="#fcfcfc"/><path d="m 62.43,23.44 a 2.86,2.86 0 0 0 -1.24,3.14 l 6.27,24.27 a 2.86,2.86 0 0 0 2.85,2.15 c 3.2,-.1 6.5,-1.36 8.93,-2.9 2.44,-1.54 5,-3.96 6.47,-6.8 A 2.86,2.86 0 0 0 85,39.8 L 65.8,23.67 a 2.86,2.86 0 0 0 -3.37,-.23 z" fill="#ffddad"/><path d="m 70.67,27.74 c -1.14,1.17 -2.4,2.2 -3.64,2.96 -1.23,.8 -2.7,1.5 -4.24,2 l 3.57,13.8 -1.74,-6.74 c 2.37,-.47 4.67,-1.47 6.5,-2.6 1.8,-1.15 3.7,-2.8 5.16,-4.73 z m -4.3,18.8 .6,2.4 L 64.67,50.25 a .95,.95 0 0 0 -.4,1.06 l 3.4,12.54 a .95,.95 0 0 0 1.43,.56 L 96.54,47.1 a .95,.95 0 0 0 .1,-1.53 l -9.85,-8.46 a .95,.95 0 0 0 -1.13,-.1 l -2.27,1.43 -1.8,-1.53 c -1.46,2.8 -4,5.2 -6.4,6.7 -2.4,1.5 -5.66,2.8 -8.8,2.9 z" fill="#eb9419"/><path color="#31363b" d="M 6,4 C 2.7,4 2.36e-4,6.7 2.37e-4,10 V 20.5 L 1.3,19.5 c 1.25,4.5 5,8.1 9.9,8.75 6.55,.86 12.6,-3.8 13.46,-10.33 .4,-3.17 -.46,-6.24 -2.2,-8.64 -0,-0 -0,-0 -0,-.03 L 18.47,4 Z" fill="#fcfcfc"/><path class="ColorScheme-Background" color="#31363b" d="M 11.04,4 12.8,6.27 2.8,4.95 C 1.5,5.8 .53,7.1 .17,8.64 L 4.8,9.25 2.37e-4,12.9 v 5.05 L 2.77,15.84 c -.27,5.16 3.47,9.74 8.7,10.43 5.5,.7 10.5,-3.13 11.2,-8.6 .35,-2.65 -.4,-5.2 -1.84,-7.2 L 15.97,4 Z m 1.14,6.4 a 6,6 0 0 1 1.34,0 6,6 0 0 1 5.17,6.73 6,6 0 0 1 -6.73,5.17 6,6 0 0 1 -5.16,-6.73 6,6 0 0 1 5.4,-5.2 z m .8,4 a 2,2 0 0 0 -2.25,1.7 2,2 0 0 0 1.7,2.24 2,2 0 0 0 2.24,-1.7 2,2 0 0 0 -1.7,-2.25 z" fill="#ffa92d"/><path color="#000000" d="M 16.13 23.15 C 15.46 23.13 14.75 23.2 14 23.43 C 11.6 24.14 10.3 26.17 9.8 27.73 C 9.23 29.3 9.23 30.7 9.23 30.7 A 2 2 0 0 0 9.24 30.76 L .7 24.9 A 2 2 0 0 0 0 24.6 L 0 40.33 C .4 40.9 .9 41.5 1.5 42.06 C 3.53 43.93 6.23 44.07 8.4 44.1 C 9.2 44.1 9.2 44.03 9.83 44 C 9.16 45.27 8.15 45.9 8.15 45.9 A 2 2 0 0 0 7.04 47.66 L 7.04 52.67 A 2 2 0 0 0 10.84 53.55 L 11.9 51.34 C 12.5 51.36 12.8 51.4 14.37 51.43 C 17.45 51.5 20.53 50.2 22.5 47.77 C 24.5 45.35 25.1 41.6 23.1 38 C 21.57 35.3 21.1 33.8 20.9 32.9 L 30.25 30.63 A 2 2 0 0 0 30.04 26.7 L 21.54 25.6 C 20.94 25 19.67 23.73 17.3 23.27 C 16.9 23.2 16.53 23.16 16.13 23.15 z " fill="#fcfcfc"/><path d="m 10.7,49.25 -1.67,3.4 v -5 c 7.6,.8 13.06,-3.57 9.6,-11.3 -.76,-1.7 -.54,-4.4 .16,-5 -1,1.96 1.3,4.96 2.8,8.45 .2,.5 .43,1 .5,1.65 .1,.85 .1,1.45 -.05,2.13 -.6,2.75 -2.9,4.2 -3.7,4.67 -2.8,1.5 -5.26,1.4 -7.7,1.03 z" fill="#2a7fff" fill-rule="evenodd" stroke="#000000" stroke-dasharray="none" stroke-linejoin="miter" stroke-width="0"/><path d="m 12.3,32.6 c -1.5,-2.2 2.06,-7.97 7.16,-3.9 H 29.8 L 20.77,27.5 C 16.05,21.7 9.17,27.25 11.76,31.84 Z" fill="#1a1a1a" fill-rule="evenodd" stroke="#000000" stroke-dasharray="none" stroke-linejoin="miter" stroke-width="0"/><path d="M 0 26.85 L 0 33.8 C .57 34.63 1.37 35.4 2.46 36.1 L .43 35.6 C 1.17 39.45 2.2 41.83 7.24 41.95 L 8.3 41.87 C 6.1 41.7 4.2 40.97 3.25 37.4 L 12.65 38.85 C 10.1 38.3 8.44 37.84 6.3 37.16 C 5.63 36.96 4.9 36.7 4.3 36.4 C 1.74 34.2 1.6 32.1 1.94 29.94 L 13.75 36.2 L 0 26.85 z " fill="#2a7fff" fill-rule="evenodd" stroke="#000000" stroke-dasharray="none" stroke-linejoin="miter" stroke-width="0"/><path d="M 31.25 46.03 C 29.84 46 28.45 46.7 27.7 48.04 L 24.13 54.2 L 24.13 73.7 L 35.05 80 L 41.47 80 C 41.64 79.8 41.8 79.6 41.93 79.36 L 51.93 62.04 C 53.04 60.1 52.4 57.7 50.47 56.57 L 33.15 46.57 C 32.55 46.2 31.9 46.05 31.25 46.03 z " fill="#fcfcfc" id="rect1342" stop-color="#000000" stroke-opacity=".2"/><path d="m 31.33,47.9 c -.73,-0 -1.45,.35 -1.85,1.04 l -2.06,3.57 4.53,2.6 c .76,-.5 1.75,-.57 2.6,-.1 .84,.5 1.3,1.4 1.2,2.3 l 4.37,2.5 c .76,-.5 1.77,-.6 2.6,-.1 1.2,.7 1.6,2.2 .9,3.37 -.7,1.2 -2.2,1.6 -3.37,.9 -.9,-.5 -1.33,-1.5 -1.2,-2.45 l -4.07,-2.35 2.26,8.45 c .26,.05 .5,.14 .75,.3 1.2,.7 1.6,2.2 .9,3.37 -.7,1.2 -2.2,1.6 -3.36,.9 -1.2,-.7 -1.6,-2.2 -.9,-3.37 .17,-.3 .4,-.54 .64,-.73 l -2.3,-8.53 c -.3,-.04 -.63,-.14 -.9,-.3 -.9,-.5 -1.34,-1.5 -1.2,-2.46 l -4.46,-2.6 -2.27,3.94 -1e-6,12.86 13.4,7.75 c 1,.57 2.26,.23 2.83,-.76 l 9.9,-17.1 c .57,-1 .23,-2.26 -.76,-2.83 v -0 L 32.3,48.17 c -.3,-.2 -.65,-.27 -1,-.3 z" fill="#f05133"/><path color="#000000" d="M 22.56 51.87 C 21.44 51.9 20.85 52.77 20.6 53.27 C 20.45 53.6 20.43 53.8 20.37 54 C 19.26 53.73 18.15 53.56 17.1 53.56 C 16.2 53.56 15.4 53.65 14.63 53.86 C 14.23 53.97 13.9 54.4 13.5 54.63 C 12.84 54.54 11.7 54.34 9.1 55 C 6.1 55.73 4.5 57.1 4.14 57.46 C 3.85 57.6 1.76 58.7 0 61.3 L 0 74 C 0 77.3 2.7 80 6 80 L 22.85 80 C 23.03 79.84 23.2 79.6 23.4 79.3 C 23.53 79 23.53 78.6 23.5 78.23 C 23.7 78.2 23.9 78.33 24.1 78.25 C 24.9 77.84 25.56 77.2 26.3 76.2 C 27.57 74.63 28.27 72.43 28.5 70.03 C 28.8 67.2 28.3 64.1 26.7 61.54 C 27 61.15 27.2 60.74 27.35 60.3 C 27.6 59.9 27.9 59.43 28 58.84 C 28.1 58.5 28.17 58.1 28.1 57.6 C 28 57.07 27.66 56.35 27 56 C 26.6 55.74 26 55.65 25.5 55.75 C 25.35 55.8 25.3 55.9 25.15 55.94 C 25.15 55.8 25.1 55.63 25.1 55.47 C 25.1 55.1 25.14 54.6 25 53.97 C 24.87 53.35 24.47 52.3 23.33 51.96 C 23.1 51.9 22.84 51.85 22.56 51.87 z M 20.5 54 C 20.4 54 20.5 54 20.4 54.03 C 20.4 54.03 20.4 54.03 20.4 54.03 L 20.5 54 z " fill="#fcfcfc"/><path d="M 13.76 56.2 C 12.7 56.23 8.36 56.5 6.3 59.33 C 4.4 61.96 5.8 70.56 6.76 73.2 C 7 73.86 8.03 72.7 8.03 72.7 C 8.03 72.7 7.27 66.7 11 67.6 C 15.7 68.65 10.34 74.9 10.34 74.9 C 9.7 75.96 8.9 75.4 8.2 74.3 C 8.2 74.3 8.55 77.96 10.14 80 L 17.2 80 C 21.87 77.93 27.5 73.47 26.55 66.6 C 25.25 57.3 14 56.2 14 56.2 C 14 56.2 13.9 56.2 13.76 56.2 z " fill="#01195f"/><path d="m 20.44,67.76 3.05,2.2 3.37,-.1 c .26,-2.64 -.17,-5.6 -1.7,-7.76 -2.74,-3.97 -5.33,1.74 -5.33,1.74 0,0 .8,2.4 .6,3.9 z" fill="#43a6fa"/><path d="m 4.46,77.94 c 0,0 -3.65,-3.04 -4.2,-6.1 -.5,-3.07 .24,-4.1 .24,-4.1 0,0 -.83,-3 .8,-5.5 1.65,-2.47 3.7,-3.4 3.7,-3.4 0,0 1.44,-1.5 4.46,-2.25 3.03,-.75 4.5,-.4 4.5,-.4 0,0 -5.1,.86 -6.2,4.1 -1.07,3.2 .9,6.2 0,9.45 -.86,3.24 -1.4,4.7 -1.4,4.7 z" fill="#43a6fa"/><path d="M 17 55.2 C 15.5 55.25 14.27 55.6 14 56.1 C 10.9 61.77 20 63 12.23 71.15 C 7.54 76.1 11.5 78.3 14.4 80 L 17.87 80 C 18.44 78.95 18.5 77.46 17.8 75.47 C 15.76 69.5 16.53 66.2 19.9 65.25 C 23.25 64.27 25.65 62.2 23.9 58.4 C 22.8 56.03 19.5 55.2 17 55.2 z M 6 68.7 C 5.94 68.7 5.9 68.7 5.85 68.7 C 4.35 68.9 6.77 73.24 5.67 74.23 C 4.56 75.23 5.13 71.94 3.47 72.57 C 1.8 73.2 4.65 75.94 4 76.53 C 3.2 77.26 2.07 74.2 1.4 74.74 C 1.15 74.97 3.1 77.97 6.53 80 L 13.8 80 C 7.8 77.16 8.7 72.36 8.27 72.24 C 7.8 72.1 7.8 73.1 7.5 73.16 C 6.37 73.3 7.3 68.75 6 68.7 z " fill="#a2cefb"/><circle cx="37.99" cy="62.08" fill="#43a6fa" id="path16506-3" r="1.2" stop-color="#000000" transform="rotate(22.94)"/><path d="M 21.47 77.96 C 20.9 77.96 20.3 79.1 19.4 79.3 C 18.33 79.5 16.9 79 16.55 80 L 19.4 80 C 19.43 80 19.44 80 19.46 80 C 20.9 79.2 22.47 78.66 21.8 78.1 C 21.7 78 21.6 77.96 21.47 77.96 z " fill="#43a6fa"/><path d="m 20.44,67.76 c -.07,.45 -.2,.8 -.5,1.03 -1.3,.93 -3.1,-1.56 -4.46,-.2 -1.36,1.36 1.43,3.6 3.5,2.93 2.1,-.67 1.65,2.07 -1.95,1.5 -3.6,-.6 -4.2,-1.7 -4.8,.8 -.57,2.54 5,1.56 5.85,1.05 .87,-.5 2.1,-.8 2.26,-.47 .17,.3 -1.9,1 -1.44,1.54 .47,.5 3.64,-3.3 4.4,-2.3 .8,1 -1.45,1.2 -1.43,2.26 0,1.04 1,1.94 3.1,-.7 .94,-1.2 1.6,-3.16 1.84,-5.33 z" fill="#43a6fa"/><path d="m 15.85,57.55 c .84,-.8 3,-1.7 3.63,-.3 .65,1.4 -1.2,2.06 -2.1,2.03 -.9,-0 -1.94,-1.13 -1.54,-1.73 z" fill="#01195f"/><path d="m 21.8,55.1 c 0,0 .17,-1.8 1.04,-1.56 .86,.26 .56,2.33 .56,2.33 z" fill="#43a6fa"/><path d="m 22.4,57.6 c 0,0 -1.23,-2.67 -.3,-3 .9,-.3 1.5,.5 1.45,1.6 -.04,1.1 -.35,2.3 -.35,2.3 z" fill="#a2cefb"/><path d="m 24.86,58.7 c 0,0 .6,-1.7 1.34,-1.3 .7,.4 -.2,2.4 -.6,2.53 -.4,.23 -.7,-1.25 -.7,-1.25 z" fill="#43a6fa"/><path d="m 24.1,60 c 0,0 .84,-2.24 1.5,-2 .67,.25 .36,2.1 -.3,2.77 -.64,.7 -1.53,.9 -1.53,.9 z" fill="#a2cefb"/><path d="m 18,57.4 a 1.37,1.37 0 0 0 -1.8,.73 1.37,1.37 0 0 0 -.1,.45 c .1,.13 .25,.26 .4,.37 a 1,1 0 0 1 .04,-.7 1,1 0 0 1 1.3,-.54 1,1 0 0 1 .54,1.3 1,1 0 0 1 -.04,.07 c .16,-.05 .3,-.1 .46,-.2 A 1.37,1.37 0 0 0 18,57.4 Z" fill="#43a6fa" stop-color="#000000"/><path d="M 46,-4.8e-4 C 40.05,-4.8e-4 40,3.93 32.05,4 L 28.9,15.73 c -.65,2.43 .8,4.9 3.2,5.56 l 18.3,4.9 c 2.43,.65 4.9,-.8 5.56,-3.2 L 60.85,4.7 C 61.33,2.9 60.7,1.1 59.3,-4.8e-4 Z" fill="#fcfcfc" id="rect33149" stop-color="#000000"/><path d="M 46,-4.8e-4 C 40.63,-4.8e-4 40.05,3.2 34.16,3.87 L 30.96,15.8 c -.43,1.6 .5,3.24 2.1,3.67 l 17.4,4.66 c 1.6,.43 3.24,-.5 3.67,-2.1 L 58.8,4.63 C 59.23,3.03 58.3,1.4 56.7,.96 L 53.1,-4.8e-4 Z M 45.6,1.4 l 2.96,.5 -1.43,5.2 5.2,-4.1 2.9,1.53 -5.33,4.04 2.5,6.46 -3.27,.14 -2.33,-6.65 -1.36,5.07 -2.97,-.34 z m -4.4,1.64 c 0,-0 .03,-0 .05,0 .03,0 .07,0 .1,.05 l 1.8,2 c .3,-.07 .6,-.1 .94,-.14 l -.3,1.2 c -1.8,.3 -3.33,1.6 -3.83,3.46 -.7,2.54 .83,5.14 3.36,5.8 1.8,.5 3.6,-.13 4.76,-1.4 .4,1.1 .7,1.95 .7,1.95 0,.04 .05,.06 .1,.06 l .27,-0 .43,1.5 c 0,.07 -0,.14 -.07,.2 l -1.44,.83 c -.06,.04 -.14,0 -.2,-.03 l -1.74,-1.95 c -.5,.14 -1,.2 -1.55,.2 l -1.23,2.25 c -.03,.06 -.1,.1 -.17,.07 l -1.6,-.43 c -.07,-0 -.1,-.1 -.1,-.16 l .14,-2.54 c -.45,-.26 -.85,-.57 -1.2,-.93 l -2.5,.73 c -.07,0 -.14,-0 -.17,-.07 L 36.83,14.23 c -.04,-.06 -0,-.14 .03,-.2 l 1.93,-1.7 c -.14,-.5 -.2,-1.07 -.2,-1.63 L 36.4,9.5 c -.06,-.03 -.1,-.1 -.07,-.17 l .43,-1.6 c 0,-.07 .1,-.1 .16,-.1 l 2.57,.14 C 39.73,7.33 40.04,6.96 40.4,6.6 L 39.64,4.1 c -0,-.07 0,-.14 .07,-.2 l 1.43,-.83 c 0,-0 .03,-0 .05,-0 z" fill="#3daefd"/><path d="M 85.3 0 A 17 17 0 0 0 82 15.1 A 17 17 0 0 0 102.83 27.13 A 17 17 0 0 0 112 20.95 L 112 20 L 112 10 L 112 6 C 112 2.7 109.3 0 106 0 L 85.3 0 z " fill="#fcfcfc" stop-color="#000000"/><path d="M 87.94 0 C 84.2 3.67 82.5 9.2 83.94 14.6 C 86.1 22.6 94.3 27.35 102.3 25.2 C 106.75 24 110.2 20.96 112 17.1 L 112 10 L 112 6 C 112 2.7 109.3 0 106 0 L 104.76 0 C 107.47 1.6 109.57 4.2 110.45 7.5 C 110.7 8.5 110.85 9.54 110.86 10.55 L 103.45 5.73 L 98.37 16 L 100 8 L 97.4 5.3 L 90.2 20.04 C 88.43 18.5 87.07 16.4 86.4 13.93 C 84.93 8.4 87.4 2.77 92.1 0 L 87.94 0 z " fill="#dc682e" id="XMLID_9_"/><path color="#000000" d="M 107.4 10.55 C 106.8 10.64 106.3 11 106 11.5 L 102.04 18.15 C 101.57 18.16 101.1 18.3 100.76 18.6 L 99.66 19.93 C 99.34 20.3 99.17 20.83 99.2 21.34 C 96.76 20.85 94.3 21 91.8 21.7 C 91.75 21.34 91.6 21 91.34 20.75 L 89.5 18.76 C 88.2 17.37 85.9 18.4 86.03 20.3 L 86.4 24.6 C 82.6 28.13 80.46 33.5 82.2 38.75 C 82.2 38.86 82.26 38.97 82.3 39.1 C 83.8 41.77 86.4 43.46 89.26 44.16 C 89.2 44.44 89.03 44.76 89.05 44.97 C 89.1 45.4 89.2 45.7 89.36 46 C 89.63 46.57 90.36 48.37 91.67 48.8 C 90.54 50.2 89.4 51.67 88.64 53.7 C 88.5 54.05 87.9 57.03 87.95 57.5 C 87.97 57.94 88.13 58.6 88.65 59.14 C 89.17 59.7 89.9 59.9 90.43 59.9 C 90.95 59.9 91.4 59.83 91.83 59.7 C 93.16 59.4 94.3 58.95 95.2 58.74 C 96.15 58.53 96.8 58.5 97.54 58.8 C 97.7 58.85 97.9 58.9 98.1 58.9 C 99.93 59.06 101.9 59.03 103.9 58.8 C 105.63 60.4 107.54 61.34 108.3 62.34 C 108.45 62.53 109.7 63.3 110.43 63.34 C 110.94 63.35 111.55 63.1 112 62.76 L 112 43.43 C 110.45 44 109 44.57 107.6 44.95 C 107.5 44.97 107.45 45 107.4 45 C 106.66 45.3 106.85 45.17 106.77 45.04 C 106.7 44.9 107.15 42.73 107.2 42.43 C 108.4 42.66 109.73 42.66 111.2 42.1 L 111.2 42.1 C 111.46 42.03 111.73 41.93 112 41.83 L 112 20 L 112 11.63 C 109.9 11 107.5 10.54 107.4 10.55 z " fill="#fcfcfc" fill-rule="evenodd"/><path d="M 89.4,24.03 89.9,22.1 88,20.1 88.43,25.06 Z" fill="#ffa92d" fill-rule="evenodd"/><path d="M 112 27.4 C 108.85 30.1 104.66 34.46 104.3 38.65 L 104.33 38.67 C 104.33 38.67 106.8 41.6 110.5 40.25 C 111 40.07 111.5 39.9 112 39.7 L 112 27.4 z " fill="#f58273" fill-rule="evenodd"/><path d="M 112 13.8 C 111.95 13.8 111.9 13.8 111.85 13.8 C 109.95 15.05 109.73 17.6 109.3 19.63 C 109.17 20.43 106.96 17.5 106.27 19.7 C 105.83 20.9 108 22.26 106.66 23.8 C 106.3 24.97 105.85 26.16 104.6 25 C 100.1 22.86 94.43 21.5 89.9 24.2 C 85.33 26.97 82.35 32.85 84.1 38.1 C 85.93 41.54 90.37 43.34 94.1 42.3 C 93.3 43.04 94.1 45.1 93 43.5 C 91.3 42.65 93.46 45.8 91.96 44.43 C 90.04 43.77 91.54 46.3 92.6 46.4 C 91.44 49.36 97.5 45.4 94.8 48.1 C 93.3 50.1 91.4 51.96 90.5 54.4 C 90.8 55.6 88.6 58.56 91.3 57.77 C 93.67 57.2 95.85 56 98.26 56.9 C 100.34 57.1 102.47 57.17 104.54 56.84 C 106.07 58.6 108.46 59.26 109.9 61.1 C 111.8 62.3 110.6 58.35 110.6 57.3 C 110.15 55.74 110.03 54.65 111.94 54.57 C 111.96 54.56 112 54.55 112 54.54 L 112 45.57 C 110.7 46.04 109.43 46.5 108.1 46.9 C 105.35 47.96 103.87 45.2 105.1 42.96 C 105.55 40.56 105.9 38.13 106.26 35.7 C 108.17 33.4 110.14 31.1 112 28.75 L 112 20 L 112 13.8 z " fill="#3bb565" fill-rule="evenodd"/><path d="m 93.57,38.67 c 0,0 .5,1.9 1.85,3 1.37,1.1 3.7,1.5 3.7,1.5 0,0 .8,-4.2 1.85,-6.5 1.03,-2.34 2.34,-5.7 2.34,-5.7 0,0 -4.66,2.06 -6.5,3.8 -1.85,1.7 -3.23,3.9 -3.23,3.9 z" fill="#f58273" fill-rule="evenodd"/><path d="m 101.4,24.03 -.2,-2.8 1.1,-1.3 .4,1.03 5,-8.4 -.2,4.2 -3,4.2 1.37,.7 -1.24,1.3 -.75,-1.03 -.75,1.3 v 1.65 c 0,0 -.55,-.07 -1.16,-.2 -.6,-.14 -.55,-.55 -.55,-.55 z" fill="#ffa92d" fill-rule="evenodd"/><path color="#000000" d="m 63.04,43.65 c -.1,0 -.37,.13 -.37,.13 -.2,.1 -.4,.2 -.55,.4 -.26,.24 -.53,.7 -.6,1.17 -.07,.5 .05,.9 .2,1.2 .27,.54 .5,.66 .66,.8 .3,.23 .47,.3 .66,.36 .4,.15 .8,.3 1.3,.4 1.07,.3 2.57,.57 4.5,.8 1.57,.2 3.8,.85 5.47,1.5 .7,.27 1.2,.5 1.6,.73 -.33,1.7 -.26,3.6 .53,5.85 -.06,.1 -.1,.17 -.2,.34 -.16,.3 -.36,.63 -.5,1.1 -.16,.5 -.33,1.25 .04,2.1 0,0 0,0 0,.03 .25,.55 1,1.17 1.66,1.3 .13,0 .15,-.04 .25,-.04 .03,.2 .03,.37 .17,.67 .2,.4 .84,1.2 1.8,1.3 .04,0 .1,0 .1,0 .9,0 1.13,-.3 1.33,-.43 .2,-.14 .3,-.25 .4,-.35 .2,-.2 .3,-.37 .47,-.57 .3,-.4 .6,-.85 .9,-1.3 .26,-.4 .5,-.76 .7,-1.05 2.4,-.1 4.86,-.5 6.7,-1.1 1.1,-.35 2.03,-.7 2.7,-1 .23,-.1 1.8,-.03 2.46,.06 .65,.1 1.3,.2 1.9,.2 .3,0 .57,.03 .9,0 .16,-0 .3,-0 .55,-.1 .24,-.06 .6,-.1 1.14,-.67 .1,-.1 .2,-.26 .3,-.4 .3,-.55 -.03,-1.1 -.15,-1.74 .1,-0 .14,-0 .25,-.03 .2,-.05 .4,-.1 .76,-.34 .34,-.23 .83,-.8 .9,-1.5 0,-.04 0,-.07 0,-.1 .07,-1.14 -.5,-1.7 -.86,-2.1 -.36,-.4 -.7,-.63 -1.05,-.86 -.1,-.06 1.05,-1.2 1.74,-1.87 .7,-.66 1.37,-1.37 1.9,-2.2 .54,-.8 1.2,-1.96 .6,-3.43 -.6,-1.4 -1.9,-2.24 -3.04,-2.6 -1.17,-.4 -2.34,-.45 -3.4,-.45 -.9,0 -1.7,.1 -2.37,.15 -.1,-.3 -.16,-.56 -.3,-.9 -.3,-.63 -.63,-1.34 -1.5,-1.95 -.87,-.6 -2.54,-.56 -3.5,.1 -.5,.36 -.5,.9 -.7,1.43 -.2,-.04 -.3,-.13 -.53,-.1 -.56,0 -1.2,.26 -1.65,.65 -0,0 -.04,.04 -.06,.06 -.7,.7 -1.04,1.74 -1,2.53 .03,.8 .26,1.4 .5,1.86 .14,.3 .24,.46 .35,.66 -.03,.14 -.2,.4 -.2,.5 -0,0 -0,0 -0,.03 -.43,.1 -1.1,.2 -1.84,.3 -1.6,.17 -3.3,.2 -4.6,.46 l -0,0 c -1.04,.2 -1.66,.74 -2.17,1.16 -2.25,-1.2 -5.5,-2.6 -9.26,-2.6 -0,1.39e-4 -0,-0 -0,-0 -.8,-0 -2.1,-.17 -3.13,-.35 -.53,-.1 -1,-.17 -1.37,-.24 -.2,-.03 -.33,-.06 -.5,-.1 -.07,-0 -.14,-0 -.25,-.03 -.05,-0 -.1,-0 -.23,-0 -.06,2.73e-4 -.13,0 -.25,0 -.06,0 -.13,0 -.2,.04 z" fill="#fcfcfc"/><path d="m 63.5,45.6 c -.17,.16 1.9,.84 5.6,1.3 3.67,.5 9.17,2.7 8.96,3.35 -.67,1.8 -.8,3.8 .45,6.77 .23,.5 -1.2,1.9 -.87,2.7 .27,.6 1.73,-1.13 2,-.93 .24,.4 -.24,2.94 .24,3 .34,0 2.4,-3.5 2.6,-3.5 5,.16 10.73,-2.5 10.84,-2.6 -0,-0 4.87,.9 5.2,.53 .7,-1.3 -2.47,-2 -2.16,-2.7 .1,-.36 3.66,.24 3.7,-.2 .04,-.74 -2.03,-1.7 -2.4,-2.1 -.33,-.33 -.54,-.95 -.1,-1.5 .46,-.55 5.67,-4.3 4.96,-5.97 -1.26,-3 -8.25,-1.35 -8.43,-1.6 -.1,-.1 -.9,-4.54 -2.7,-3.2 -1.1,.8 .64,3.3 .8,3.6 .16,.3 -.47,.44 -.63,.33 -.35,-.25 -2,-2.9 -2.9,-2.1 -1.23,1.2 .8,3.3 .53,3.46 -.45,.44 -.23,1.16 -.5,1.87 -.44,1.2 -6.13,1.13 -7.86,1.5 -1.27,.26 -2.2,1.6 -2.34,1.5 -1.93,-1.1 -5.8,-2.93 -9.5,-2.9 -2.1,-0 -5.37,-.76 -5.5,-.7 z m 31.8,-2.27 a .7,.6 75 0 1 .8,.5 .7,.6 75 0 1 -.4,.84 .7,.6 75 0 1 -.8,-.5 .7,.6 75 0 1 .4,-.84 z m -1.24,.8 c .55,1.03 1.04,1.27 2.2,.9 -1.14,1.8 -2.7,-.34 -2.2,-.9 z m 4,2 c .1,-.03 .17,-.04 .2,-0 .66,.06 -2.2,2.04 -2.27,1.9 -.06,-.1 1.4,-1.65 2.05,-1.9 z m .6,.6 c .03,-0 .06,-0 .1,-0 .7,.4 -1.2,2.17 -1.3,2.23 -.2,-.06 .7,-2.05 1.2,-2.2 z" fill="#020202" stroke="#000002" stroke-width="0.222496pt"/><path d="m 73.9,53.64 c -.97,.03 -1.94,.3 -2.84,.8 l -3.46,2 c -2.9,1.66 -3.86,5.3 -2.2,8.3 l 1,1.73 -1.73,1 c -2.9,1.66 -3.86,5.3 -2.2,8.3 l 2,3.46 C 64.7,79.4 64.9,79.7 65.2,80 l 24.07,-10e-7 c 1.06,-1.8 1.15,-4.1 0,-6.04 l -1,-1.73 1.73,-1 c 2.9,-1.66 3.86,-5.3 2.2,-8.3 L 90.2,59.57 C 88.54,56.7 84.9,55.7 82,57.37 l -1.73,1 -1,-1.73 C 78.13,54.67 76.05,53.6 73.9,53.64 Z" fill="#fcfcfc" id="rect3048" stop-color="#000000" stroke-opacity=".2"/><path d="m 85.9,60.3 c -.64,0 -1.3,.2 -1.9,.54 l -1.73,1 1,1.73 c 1.1,1.9 .45,4.36 -1.46,5.46 l -6.93,4 c -.96,.55 -1.3,1.77 -.73,2.73 L 76.6,80 l 10.1,-10e-7 c 1.44,-1.23 1.85,-3.33 .87,-5.04 l -1,-1.73 -4.33,2.5 c -.5,.3 -1.1,.1 -1.37,-.36 -.3,-.5 -.2,-1.3 .37,-1.37 l 7.8,-4.5 c 1.9,-1.1 2.57,-3.55 1.46,-5.46 l -1,-1.73 C 88.7,61 87.3,60.26 85.9,60.3 Z m -.4,16.03 c .3,0 .6,.2 .8,.5 .27,.46 .13,1.05 -.3,1.34 -0,0 -.03,0 -.05,0 -.5,.3 -1.1,.1 -1.36,-.36 -.27,-.46 -.13,-1.06 .3,-1.34 0,-0 .03,-0 .04,-0 .2,-.1 .4,-.15 .57,-.13 z" fill="#ffe32b" stop-color="#000000"/><path d="m 73.97,55.64 c -.64,0 -1.3,.2 -1.9,.54 l -3.46,2 c -1.9,1.1 -2.57,3.55 -1.46,5.46 l 1,1.73 4.33,-2.5 c .5,-.3 1.1,-.1 1.36,.37 .3,.5 .1,1.1 -.36,1.37 l -4.33,2.5 -3.46,2 c -1.9,1.1 -2.57,3.54 -1.46,5.46 l 2,3.46 C 66.87,79.16 67.97,79.84 69.15,80 h 1.07 c .5,-.07 1,-.23 1.46,-.5 l 1.73,-1 -1,-1.73 c -1.1,-1.9 -.46,-4.36 1.46,-5.46 l 3.46,-2 3.46,-2 c .96,-.55 1.3,-1.77 .73,-2.73 l -1,-1.73 -3,-5.2 C 76.8,56.33 75.4,55.6 73.97,55.64 Z m -4.66,4.64 c .3,0 .6,.2 .8,.5 .3,.5 .1,1.1 -.37,1.37 -.5,.3 -1.1,.1 -1.37,-.37 -.27,-.46 -.1,-1.05 .3,-1.34 0,-0 .03,-0 .04,-.03 .2,-.1 .4,-.15 .57,-.13 z" fill="#3daefd" id="rect940" stop-color="#000000"/><path d="M 100.9 51.04 C 98.95 51 96.96 51.4 95.04 52.2 C 87.4 55.36 83.74 64.15 86.9 71.8 C 88.5 75.7 91.57 78.55 95.2 80 L 106 80 C 106.2 80 106.35 79.96 106.53 79.95 C 106.53 79.95 106.54 79.94 106.54 79.94 C 108.35 79.2 109.93 78.13 111.26 76.84 C 111.7 76 112 75.03 112 74 L 112 56.06 C 109.17 52.9 105.1 51.07 100.9 51.04 z " fill="#fcfcfc"/><path d="M 100.9 53.1 C 99.2 53.07 97.5 53.4 95.8 54.1 C 89.2 56.8 86.06 64.4 88.8 71.03 C 91.54 77.65 99.13 80.8 105.76 78.05 C 108.5 76.9 110.6 74.97 112 72.7 L 112 59.53 C 109.66 55.5 105.4 53.1 100.9 53.1 z M 103.4 55.8 C 105.6 55.75 104.17 60.9 102.5 61.57 C 100.63 62.34 99.3 57.4 102.6 56 C 102.9 55.9 103.2 55.8 103.4 55.8 z M 98.03 58.63 C 99.4 58.53 99.74 62.1 98.8 62.4 C 97.8 62.76 95.8 59.8 97.57 58.8 C 97.63 58.75 97.7 58.73 97.73 58.7 C 97.83 58.66 97.93 58.64 98.03 58.63 z M 95.3 61.26 C 96.35 61.26 97.25 63.8 96.6 64.26 C 95.84 64.8 93.5 62.76 94.75 61.5 C 94.84 61.44 94.93 61.37 95 61.33 C 95.04 61.3 95.07 61.3 95.1 61.3 C 95.17 61.27 95.24 61.26 95.3 61.26 z M 103.1 62.57 C 103.74 62.6 104.24 62.84 104.53 63.3 C 106.4 66.26 98.74 70.8 102.77 71.85 C 104.03 72.2 104.8 71.2 104.16 70.14 C 103.64 69.24 106.86 67.24 107.2 68.8 C 107.6 70.8 106.33 73.07 104.7 73.75 C 101.35 75.14 96.55 72.6 96 69.5 C 95.5 66.7 98.37 64 100.95 63 C 101.73 62.7 102.5 62.54 103.1 62.57 z M 93.67 64.26 C 94.57 64.2 95.75 66.2 95.27 66.67 C 94.7 67.27 92.27 65.94 93.13 64.6 C 93.23 64.45 93.36 64.35 93.5 64.3 C 93.55 64.3 93.6 64.27 93.67 64.26 z " fill="#0087ed"/></g><use href="#uO0" opacity=".4"></use><use fill="url(#uNY)" href="#uO0" opacity=".2"></use><path d="m 54,32 c -6,0 -6,4 -14,4 H 14 c -3.3,0 -6,2.7 -6,6 v 64 c 0,3.3 2.7,6 6,6 h 100 c 3.3,0 6,-2.7 6,-6 V 52 42 38 c 0,-3.3 -2.7,-6 -6,-6 z" fill="url(#uNX)" opacity=".2"/><path class="ColorScheme-Contrast" d="m 8,105 v 1 c 0,3.3 2.7,6 6,6 h 100 c 3.3,0 6,-2.7 6,-6 v -1 c 0,3.3 -2.7,6 -6,6 H 14 c -3.3,0 -6,-2.7 -6,-6 z" fill="currentColor" opacity=".1"/><path class="ColorScheme-Contrast" d="m 8,105.5 v 0.5 c 0,3.3 2.7,6 6,6 h 100 c 3.3,0 6,-2.7 6,-6 v -0.5 c 0,3.3 -2.7,6 -6,6 H 14 c -3.3,0 -6,-2.7 -6,-6 z" fill="currentColor" opacity=".2"/><path d="m 54,32 c -6,0 -6,4 -14,4 H 14 c -3.3,0 -6,2.7 -6,6 v 1 c 0,-3.3 2.7,-6 6,-6 h 26 c 8,0 8,-4 14,-4 h 60 c 3.3,0 6,2.7 6,6 v -1 c 0,-3.3 -2.7,-6 -6,-6 z" fill="#fff" opacity=".1"/><path d="m 54,32 c -6,0 -6,4 -14,4 H 14 c -3.3,0 -6,2.7 -6,6 v 0.5 c 0,-3.3 2.7,-6 6,-6 h 26 c 8,0 8,-4 14,-4 h 60 c 3.3,0 6,2.7 6,6 V 38 c 0,-3.3 -2.7,-6 -6,-6 z" fill="#fff" opacity=".2"/><path d="m 54,31 c -6,0 -6,4 -14,4 H 14 v 1 h 26 c 8,0 8,-4 14,-4 h 60 v -1 z" opacity=".1"/><path d="m 54,31.5 c -6,0 -6,4 -14,4 H 14 V 36 h 26 c 8,0 8,-4 14,-4 h 60 v -0.5 z" opacity=".2"/></g>
</svg>