<svg height="128" version="1.1" width="128" xmlns="http://www.w3.org/2000/svg" xmlns:svg="http://www.w3.org/2000/svg" xmlns:xlink="http://www.w3.org/1999/xlink">
<defs id="primary-definitions">
<style id="current-color-scheme" type="text/css">
      .ColorScheme-Text         { color: #232629; }
      .ColorScheme-Background   { color: #eff0f1; }
      .ColorScheme-Highlight    { color: #7ec9f0; }
      .ColorScheme-PositiveText { color: #27ae60; }
      .ColorScheme-NeutralText  { color: #f67400; }
      .ColorScheme-NegativeText { color: #da4453; }
      .ColorScheme-ActiveText   { color: #3daee9; }
      .ColorScheme-Complement   { color: #ffffff; }
      .ColorScheme-Contrast     { color: #000000; }
    </style>
<style id="extended-color-scheme" type="text/css">
      .ExScheme-Black     { color:#3e3e3e; }
      .ExScheme-White     { color:#fcfcfc; }
      .ExScheme-Grey-1    { color:#cfd5d5; }
      .ExScheme-Grey-2    { color:#909c9c; }
      .ExScheme-Grey-3    { color:#536161; }
      .ExScheme-Red-1     { color:#ffafa5; }
      .ExScheme-Red-2     { color:#bf4231; }
      .ExScheme-Red-3     { color:#4d2f2b; }
      .ExScheme-Green-1   { color:#abf9c7; }
      .ExScheme-Green-2   { color:#3bb566; }
      .ExScheme-Green-3   { color:#377d50; }
      .ExScheme-Blue-1    { color:#abdaf9; }
      .ExScheme-Blue-2    { color:#3daefd; }
      .ExScheme-Blue-3    { color:#2b3c4d; }
      .ExScheme-Yellow-1  { color:#faffa5; }
      .ExScheme-Yellow-2  { color:#cac726; }
      .ExScheme-Yellow-3  { color:#4b4d2b; }
      .ExScheme-Orange-1  { color:#ffdaa5; }
      .ExScheme-Orange-2  { color:#ff9701; }
      .ExScheme-Orange-3  { color:#4d372b; }
      .ExScheme-Brown-1   { color:#e9d6bb; }
      .ExScheme-Brown-2   { color:#997657; }
      .ExScheme-Brown-3   { color:#433a35; }
      .ExScheme-Purple-1  { color:#e2abf9; }
      .ExScheme-Purple-2  { color:#b401ff; }
      .ExScheme-Purple-3  { color:#432b4d; }
      .ExScheme-Cyan-1    { color:#b2f2e6; }
      .ExScheme-Cyan-2    { color:#31bfa6; }
      .ExScheme-Cyan-3    { color:#2b4d47; }
      .ExScheme-Magenta-1 { color:#f8a6d8; }
      .ExScheme-Magenta-2 { color:#f00091; }
      .ExScheme-Magenta-3 { color:#770048; }
    </style>
<linearGradient id="umG">
<stop offset="0"/>
<stop offset="1" stop-opacity="0"/>
</linearGradient>
<linearGradient id="umH">
<stop offset="0" stop-color="#fff"/>
<stop offset="1" stop-color="#fff" stop-opacity="0"/>
</linearGradient>
<style id="umI" type="text/css">
        .force-display-for-editing { display: inline !important; }
    </style><style class="remove-if__show-crease" type="text/css">
        .enable-if__show-crease { display: none; }
    </style><style class="remove-if__color-sync-mimes-places" type="text/css">
        .enable-if__color-sync-mimes-places { display: none; }
    </style><radialGradient cx=".5" cy="0" id="umJ" r="1" xlink:href="#umH"/><linearGradient id="umK" xlink:href="#umG" y1="1" y2=".5"/><style class="ColorScheme-Background" fill="currentColor" opacity=".6" type="text/css">
   .ColorScheme-Text           { color:#eff0f1; }
      .ColorScheme-Background     { color:#31363b; }
      .ColorScheme-Highlight      { color:#3daefd; }
      .ColorScheme-ViewBackground { color:#fcfcfc; }
      .ColorScheme-PositiveText   { color:#27ae60; }
      .ColorScheme-NeutralText    { color:#f67400; }
      .ColorScheme-NegativeText   { color:#da4453; }
  </style><clipPath clipPathUnits="userSpaceOnUse" id="umL"><rect height="68.343513" width="59.661438" x="15.137977" y="110.41818"/></clipPath><path d="m 20,16 c -3.3,0 -6,2.7 -6,6 v 14 c -3.3,0 -6,2.7 -6,6 v 64 c 0,3.3 2.7,6 6,6 h 100 c 3.3,0 6,-2.7 6,-6 V 52 42 38 c 0,-3.3 -2.7,-6 -6,-6 v -6 c 0,-3.3 -2.7,-6 -6,-6 H 56 c -8,0 -8,-4 -14,-4 z" id="umM"></path><path d="m 20,16 c -3.3,0 -6,2.7 -6,6 v 14 h 26 c 8,0 8,-4 14,-4 h 60 v -6 c 0,-3.3 -2.7,-6 -6,-6 H 56 c -8,0 -8,-4 -14,-4 z" id="umN"></path></defs>
<g id="content" transform="translate(0,0)"><use class="sync-color enable-if__color-sync-mimes-places force-display-for-editing ColorScheme-ActiveText" fill="currentColor" href="#umM"></use><use class="primary-color remove-if__color-sync-mimes-places ColorScheme-ActiveText" fill="currentColor" href="#umM"></use><use class="ColorScheme-Contrast" fill="currentColor" href="#umM" opacity=".1"></use><g id="decal" transform="translate(32,42)"><path d="m 15.26,-327.2 c -.07,0 -.1,.06 -.1,.1 v 1.9 c 0,.07 .06,.1 .1,.1 h 48.37 c .07,0 .1,-.06 .1,-.1 v -1.9 c 0,-.07 -.06,-.1 -.1,-.1 z m 11.2,3.9 c -.07,0 -.1,.06 -.1,.1 v 1.77 c 0,.07 .06,.1 .1,.1 h 2.8 c .07,0 .1,-.06 .1,-.1 v -1.77 c 0,-.07 -.06,-.1 -.1,-.1 z m -8.7,2.1e-4 c -.07,0 -.1,.06 -.1,.1 v 47.9 c 0,.07 .06,.1 .1,.1 h 2.3 c .07,0 .1,-.06 .1,-.1 v -47.9 c 0,-.07 -.06,-.1 -.1,-.1 z m 4.4,.05 c -.07,0 -.1,.06 -.1,.1 v 2 c 0,.07 .06,.1 .1,.1 h 2.2 c .07,0 .1,-.06 .1,-.1 v -2 c 0,-.07 -.06,-.1 -.1,-.1 z m 26.7,0 c -.07,0 -.1,.06 -.1,.1 v 1.7 c 0,.07 .06,.1 .1,.1 h 2.96 c .07,0 .1,-.06 .1,-.1 v -1.7 c 0,-.07 -.06,-.1 -.1,-.1 z m 9.93,.04 c -.07,0 -.1,.06 -.1,.1 v 47.87 c 0,.07 .06,.1 .1,.1 h 2.3 c .07,0 .1,-.06 .1,-.1 v -47.87 c 0,-.07 -.06,-.1 -.1,-.1 z m -27.57,1.15 c -.07,0 -.1,.06 -.1,.1 v 1.3 c 0,.07 .06,.1 .1,.1 h 3.37 c .07,0 .1,-.06 .1,-.1 v -1.3 c 0,-.07 -.06,-.1 -.1,-.1 z m 22.45,0 c -.07,0 -.1,.06 -.1,.1 v 1.3 c 0,.07 .06,.1 .1,.1 h 3.06 c .07,0 .1,-.06 .1,-.1 v -1.3 c 0,-.07 -.06,-.1 -.1,-.1 z m -11.9,.83 c -.07,0 -.1,.06 -.1,.1 v 2.03 c 0,.07 .06,.1 .1,.1 h 1.6 c .07,0 .1,-.06 .1,-.1 v -2.03 c 0,-.07 -.06,-.1 -.1,-.1 z m -5.3,.5 c -.07,0 -.1,.06 -.1,.1 v 1.4 c 0,.07 .06,.1 .1,.1 h 3.27 c .07,0 .1,-.06 .1,-.1 v -1.4 c 0,-.07 -.06,-.1 -.1,-.1 z m 8.8,0 c -.07,0 -.1,.06 -.1,.1 v 1.7 c 0,.07 .06,.1 .1,.1 h 1.6 c .07,0 .1,-.06 .1,-.1 v -1.7 c 0,-.07 -.06,-.1 -.1,-.1 z m -19.04,.83 c -.07,0 -.1,.06 -.1,.1 v 5.7 c 0,.07 .06,.1 .1,.1 h 3 c .07,0 .1,-.06 .1,-.1 v -5.7 c 0,-.07 -.06,-.1 -.1,-.1 z m 22.55,0 c -.07,0 -.1,.06 -.1,.1 v 5.65 c 0,.07 .06,.1 .1,.1 h 3.06 c .07,0 .1,-.06 .1,-.1 v -5.65 c 0,-.07 -.06,-.1 -.1,-.1 z m -26.7,.6 c -.07,0 -.1,.06 -.1,.1 v .7 c 0,.07 .06,.1 .1,.1 h 2.23 c .07,0 .1,-.06 .1,-.1 v -.7 c 0,-.07 -.06,-.1 -.1,-.1 z m 31.55,.1 c -.07,0 -.1,.06 -.1,.1 v 5.3 c 0,.07 .06,.1 .1,.1 h 3.1 c .07,0 .1,-.06 .1,-.1 v -5.3 c 0,-.07 -.06,-.1 -.1,-.1 z m -22.5,.06 c -.07,0 -.1,.06 -.1,.1 v 5.4 c 0,.07 .06,.1 .1,.1 h 3.43 c .07,0 .1,-.06 .1,-.1 v -5.4 c 0,-.07 -.06,-.1 -.1,-.1 z m 5.33,1.4 c -.07,0 -.1,.06 -.1,.1 v 3.94 c 0,.07 .06,.1 .1,.1 h 3.2 c .07,0 .1,-.06 .1,-.1 v -3.94 c 0,-.07 -.06,-.1 -.1,-.1 z m 5.2,.16 c -.07,0 -.1,.06 -.1,.1 v 6.53 c 0,.07 .06,.1 .1,.1 h 1.67 c .07,0 .1,-.06 .1,-.1 v -6.53 c 0,-.07 -.06,-.1 -.1,-.1 z m 3.57,.16 c -.07,0 -.1,.06 -.1,.1 v 6.37 c 0,.07 .06,.1 .1,.1 h 1.6 c .07,0 .1,-.06 .1,-.1 v -6.37 c 0,-.07 -.06,-.1 -.1,-.1 z m -23.17,.5 c -.07,0 -.1,.06 -.1,.1 v 5.86 c 0,.07 .06,.1 .1,.1 h 2.23 c .07,0 .1,-.06 .1,-.1 v -5.86 c 0,-.07 -.06,-.1 -.1,-.1 z m 4.2,4.3 c -.07,0 -.1,.06 -.1,.1 v 1.5 c 0,.07 .06,.1 .1,.1 h 2.96 c .07,0 .1,-.06 .1,-.1 v -1.5 c 0,-.07 -.06,-.1 -.1,-.1 z m 22.55,0 c -.07,0 -.1,.06 -.1,.1 v 1.56 c 0,.07 .06,.1 .1,.1 h 3 c .07,0 .1,-.06 .1,-.1 v -1.56 c 0,-.07 -.06,-.1 -.1,-.1 z m -17.64,.47 c -.07,0 -.1,.06 -.1,.1 v 1.1 c 0,.07 .06,.1 .1,.1 h 3.37 c .07,0 .1,-.06 .1,-.1 v -1.1 c 0,-.07 -.06,-.1 -.1,-.1 z m 5.3,0 c -.07,0 -.1,.06 -.1,.1 v 1.1 c 0,.07 .06,.1 .1,.1 h 3.3 c .07,0 .1,-.06 .1,-.1 v -1.1 c 0,-.07 -.06,-.1 -.1,-.1 z m 17.17,0 c -.07,0 -.1,.06 -.1,.1 v 1.1 c 0,.07 .06,.1 .1,.1 h 3.17 c .07,0 .1,-.06 .1,-.1 v -1.1 c 0,-.07 -.06,-.1 -.1,-.1 z m -31.66,2.9 c -.07,0 -.1,.06 -.1,.1 v 1.77 c 0,.07 .06,.1 .1,.1 H 56.8 c .07,0 .1,-.06 .1,-.1 v -1.77 c 0,-.07 -.06,-.1 -.1,-.1 z m 24.8,3.8 c -.07,0 -.1,.06 -.1,.1 v 2.06 c 0,.07 .06,.1 .1,.1 h 3.1 c .07,0 .1,-.06 .1,-.1 v -2.06 c 0,-.07 -.06,-.1 -.1,-.1 z m -20.57,.04 c -.07,0 -.1,.06 -.1,.1 v 2 c 0,.07 .06,.1 .1,.1 h 3.06 c .07,0 .1,-.06 .1,-.1 v -2 c 0,-.07 -.06,-.1 -.1,-.1 z m 8.8,.06 c -.07,0 -.1,.06 -.1,.1 v 2.8 c 0,.07 .06,.1 .1,.1 h 1.8 c .07,0 .1,-.06 .1,-.1 v -2.8 c 0,-.07 -.06,-.1 -.1,-.1 z m 7.4,1.33 c -.07,0 -.1,.06 -.1,.1 v 1.5 c 0,.07 .06,.1 .1,.1 h 2.34 c .07,0 .1,-.06 .1,-.1 v -1.5 c 0,-.07 -.06,-.1 -.1,-.1 z m -11.2,.05 c -.07,0 -.1,.06 -.1,.1 v 1.5 c 0,.07 .06,.1 .1,.1 h 1.8 c .07,0 .1,-.06 .1,-.1 v -1.5 c 0,-.07 -.06,-.1 -.1,-.1 z m 23.9,0 c -.07,0 -.1,.06 -.1,.1 v 1.77 c 0,.07 .06,.1 .1,.1 h 1.67 c .07,0 .1,-.06 .1,-.1 v -1.77 c 0,-.07 -.06,-.1 -.1,-.1 z m -33,.2 c -.07,0 -.1,.06 -.1,.1 v 1.5 c 0,.07 .06,.1 .1,.1 h 2.23 c .07,0 .1,-.06 .1,-.1 v -1.5 c 0,-.07 -.06,-.1 -.1,-.1 z m 16.86,.53 c -.07,0 -.1,.06 -.1,.1 v 1.8 c 0,.07 .06,.1 .1,.1 h 1.5 c .07,0 .1,-.06 .1,-.1 v -1.8 c 0,-.07 -.06,-.1 -.1,-.1 z m 12.83,.4 c -.07,0 -.1,.06 -.1,.1 v 1.6 c 0,.07 .06,.1 .1,.1 h 1.5 c .07,0 .1,-.06 .1,-.1 v -1.6 c 0,-.07 -.06,-.1 -.1,-.1 z m -25.55,1.03 c -.07,0 -.1,.06 -.1,.1 v 4.8 c 0,.07 .06,.1 .1,.1 h 3.06 c .07,0 .1,-.06 .1,-.1 v -4.8 c 0,-.07 -.06,-.1 -.1,-.1 z m 20.5,0 c -.07,0 -.1,.06 -.1,.1 v 4.8 c 0,.07 .06,.1 .1,.1 h 3.17 c .07,0 .1,-.06 .1,-.1 v -4.8 c 0,-.07 -.06,-.1 -.1,-.1 z m -4.34,.93 c -.07,0 -.1,.06 -.1,.1 v 7.15 c 0,.07 .06,.1 .1,.1 h 2.4 c .07,0 .1,-.06 .1,-.1 v -7.15 c 0,-.07 -.06,-.1 -.1,-.1 z m -7.35,0 c -.07,0 -.1,.06 -.1,.1 v 7.14 c 0,.07 .06,.1 .1,.1 h 2 c .07,0 .1,-.06 .1,-.1 v -7.14 c 0,-.07 -.06,-.1 -.1,-.1 z m -3.9,.04 c -.07,0 -.1,.06 -.1,.1 v 7.1 c 0,.07 .06,.1 .1,.1 h 1.8 c .07,0 .1,-.06 .1,-.1 v -7.1 c 0,-.07 -.06,-.1 -.1,-.1 z m -9.05,.26 c -.07,0 -.1,.06 -.1,.1 v 3.84 c 0,.07 .06,.1 .1,.1 h 2.2 c .07,0 .1,-.06 .1,-.1 v -3.84 c 0,-.07 -.06,-.1 -.1,-.1 z m 33,0 c -.07,0 -.1,.06 -.1,.1 v 6.9 c 0,.07 .06,.1 .1,.1 h 1.7 c .07,0 .1,-.06 .1,-.1 v -6.9 c 0,-.07 -.06,-.1 -.1,-.1 z m -16.14,.83 c -.07,0 -.1,.06 -.1,.1 v 5.96 c 0,.07 .06,.1 .1,.1 h 1.6 c .07,0 .1,-.06 .1,-.1 v -5.96 c 0,-.07 -.06,-.1 -.1,-.1 z m 12.83,.1 c -.07,0 -.1,.06 -.1,.1 v 5.9 c 0,.07 .06,.1 .1,.1 h 1.46 c .07,0 .1,-.06 .1,-.1 v -5.9 c 0,-.07 -.06,-.1 -.1,-.1 z m -5.1,4.3 c -.07,0 -.1,.06 -.1,.1 v 1.67 c 0,.07 .06,.1 .1,.1 h 3.2 c .07,0 .1,-.06 .1,-.1 v -1.67 c 0,-.07 -.06,-.1 -.1,-.1 z m -20.43,.06 c -.07,0 -.1,.06 -.1,.1 v 1.55 c 0,.07 .06,.1 .1,.1 h 3 c .07,0 .1,-.06 .1,-.1 v -1.55 c 0,-.07 -.06,-.1 -.1,-.1 z m -4.1,.25 c -.07,0 -.1,.06 -.1,.1 v 1.3 c 0,.07 .06,.1 .1,.1 h 2.13 c .07,0 .1,-.06 .1,-.1 v -1.3 c 0,-.07 -.06,-.1 -.1,-.1 z m .2,3.07 c -.07,0 -.1,.06 -.1,.1 v 1.8 c 0,.07 .06,.1 .1,.1 H 56.87 c .07,0 .1,-.06 .1,-.1 v -1.8 c 0,-.07 -.06,-.1 -.1,-.1 z m 14.43,3.73 c -.07,0 -.1,.06 -.1,.1 v 2.26 c 0,.07 .06,.1 .1,.1 h 2 c .07,0 .1,-.06 .1,-.1 v -2.26 c 0,-.07 -.06,-.1 -.1,-.1 z m -10.53,.1 c -.07,0 -.1,.06 -.1,.1 v 1.37 c 0,.07 .06,.1 .1,.1 h 3.06 c .07,0 .1,-.06 .1,-.1 v -1.37 c 0,-.07 -.06,-.1 -.1,-.1 z m -4.14,1.4 c -.07,0 -.1,.06 -.1,.1 v 1.5 c 0,.07 .06,.1 .1,.1 h 2.23 c .07,0 .1,-.06 .1,-.1 v -1.5 c 0,-.07 -.06,-.1 -.1,-.1 z m 9.1,0 c -.07,0 -.1,.06 -.1,.1 v 1.5 c 0,.07 .06,.1 .1,.1 h 3.37 c .07,0 .1,-.06 .1,-.1 v -1.5 c 0,-.07 -.06,-.1 -.1,-.1 z m 15.4,0 c -.07,0 -.1,.06 -.1,.1 v 1.5 c 0,.07 .06,.1 .1,.1 h 3.6 c .07,0 .1,-.06 .1,-.1 v -1.5 c 0,-.07 -.06,-.1 -.1,-.1 z m 5.5,.06 c -.07,0 -.1,.06 -.1,.1 v 1.5 c 0,.07 .06,.1 .1,.1 h 4.64 c .07,0 .1,-.06 .1,-.1 v -1.5 c 0,-.07 -.06,-.1 -.1,-.1 z m -25.9,1.6 c -.07,0 -.1,.06 -.1,.1 v 1.1 c 0,.07 .06,.1 .1,.1 h 3.07 c .07,0 .1,-.06 .1,-.1 v -1.1 c 0,-.07 -.06,-.1 -.1,-.1 z m 14.5,.6 c -.07,0 -.1,.06 -.1,.1 v 1.46 c 0,.07 .06,.1 .1,.1 h 3.94 c .07,0 .1,-.06 .1,-.1 v -1.46 c 0,-.07 -.06,-.1 -.1,-.1 z m -4.2,.05 c -.07,0 -.1,.06 -.1,.1 v 1.3 c 0,.07 .06,.1 .1,.1 h 2.23 c .07,0 .1,-.06 .1,-.1 v -1.3 c 0,-.07 -.06,-.1 -.1,-.1 z m -14.43,.9 c -.07,0 -.1,.06 -.1,.1 v 5.34 c 0,.07 .06,.1 .1,.1 h 2.23 c .07,0 .1,-.06 .1,-.1 v -5.34 c 0,-.07 -.06,-.1 -.1,-.1 z m 24.5,0 c -.07,0 -.1,.06 -.1,.1 v 5.2 c 0,.07 .06,.1 .1,.1 h 3.6 c .07,0 .1,-.06 .1,-.1 v -5.2 c 0,-.07 -.06,-.1 -.1,-.1 z m -15.46,.05 c -.07,0 -.1,.06 -.1,.1 v 5.3 c 0,.07 .06,.1 .1,.1 h 3.4 c .07,0 .1,-.06 .1,-.1 v -5.3 c 0,-.07 -.06,-.1 -.1,-.1 z m 20.9,0 c -.07,0 -.1,.06 -.1,.1 v 5.3 c 0,.07 .06,.1 .1,.1 h 4.76 c .07,0 .1,-.06 .1,-.1 v -5.3 c 0,-.07 -.06,-.1 -.1,-.1 z m -25.8,1.1 c -.07,0 -.1,.06 -.1,.1 v 1.36 c 0,.07 .06,.1 .1,.1 h 3 c .07,0 .1,-.06 .1,-.1 v -1.36 c 0,-.07 -.06,-.1 -.1,-.1 z m 10.3,.9 c -.07,0 -.1,.06 -.1,.1 v 6.06 c 0,.07 .06,.1 .1,.1 h 2.23 c .07,0 .1,-.06 .1,-.1 v -6.06 c 0,-.07 -.06,-.1 -.1,-.1 z m 4.2,.05 c -.07,0 -.1,.06 -.1,.1 v 2.03 c 0,.07 .06,.1 .1,.1 h 4 c .07,0 .1,-.06 .1,-.1 v -2.03 c 0,-.07 -.06,-.1 -.1,-.1 z m -14.5,2.07 c -.07,0 -.1,.06 -.1,.1 v 1.2 c 0,.07 .06,.1 .1,.1 h 3.06 c .07,0 .1,-.06 .1,-.1 v -1.2 c 0,-.07 -.06,-.1 -.1,-.1 z m 14.5,1.55 c -.07,0 -.1,.06 -.1,.1 v 2.44 c 0,.07 .06,.1 .1,.1 h 4 c .07,0 .1,-.06 .1,-.1 v -2.44 c 0,-.07 -.06,-.1 -.1,-.1 z m -14.5,1.24 c -.07,0 -.1,.06 -.1,.1 v 1.15 c 0,.07 .06,.1 .1,.1 h 3 c .07,0 .1,-.06 .1,-.1 v -1.15 c 0,-.07 -.06,-.1 -.1,-.1 z m 5,0 c -.07,0 -.1,.06 -.1,.1 v 1.15 c 0,.07 .06,.1 .1,.1 h 3.3 c .07,0 .1,-.06 .1,-.1 v -1.15 c 0,-.07 -.06,-.1 -.1,-.1 z m -9.07,.05 c -.07,0 -.1,.06 -.1,.1 v 1.1 c 0,.07 .06,.1 .1,.1 h 2.13 c .07,0 .1,-.06 .1,-.1 v -1.1 c 0,-.07 -.06,-.1 -.1,-.1 z m 24.5,0 c -.07,0 -.1,.06 -.1,.1 v 1.1 c 0,.07 .06,.1 .1,.1 h 3.5 c .07,0 .1,-.06 .1,-.1 v -1.1 c 0,-.07 -.06,-.1 -.1,-.1 z m 5.4,0 c -.07,0 -.1,.06 -.1,.1 v 1.1 c 0,.07 .06,.1 .1,.1 h 4.7 c .07,0 .1,-.06 .1,-.1 v -1.1 c 0,-.07 -.06,-.1 -.1,-.1 z m -36.73,2.95 c -.07,0 -.1,.06 -.1,.1 v 1.9 c 0,.07 .06,.1 .1,.1 H 63.64 c .07,0 .1,-.06 .1,-.1 v -1.9 c 0,-.07 -.06,-.1 -.1,-.1 z" fill="currentColor" opacity=".6"/><path d="m 58.8,151.1 c .63,0 23.8,.04 23.8,.04 0,0 3,-.4 3,-3 0,-2.6 .03,-24.96 .03,-24.96 0,0 .2,-3.3 -2.97,-3.3 H 62.06 v 31.03" fill="none" stroke="#474e54" stroke-dasharray="none" stroke-linecap="round" stroke-width="1.5"/><path d="M 59.2,153.6 H 72" fill="none" stroke="#474e54" stroke-dasharray="none" stroke-linecap="round" stroke-width="1.5"/><path d="m 76.6,153.6 h 5.8" fill="none" stroke="#474e54" stroke-dasharray="none" stroke-linecap="round" stroke-width="1.5"/><path d="M 59.16,155.65 H 82.93" fill="none" stroke="#474e54" stroke-dasharray="none" stroke-linecap="round" stroke-width="1.5"/><path d="m 69.2,158.3 h 14.14 c 0,0 3.46,.1 3.46,-3.46" fill="none" stroke="#474e54" stroke-dasharray="none" stroke-linecap="round" stroke-width="1.5"/><path d="M 66.43,124.94 H 80.9" fill="none" stroke="#474e54" stroke-dasharray="none" stroke-linecap="round" stroke-width="1.5"/><path d="M 66.43,127.3 H 80.9" fill="none" stroke="#474e54" stroke-dasharray="none" stroke-linecap="round" stroke-width="1.5"/><path d="M 66.43,129.7 H 80.9" fill="none" stroke="#474e54" stroke-dasharray="none" stroke-linecap="round" stroke-width="1.5"/><path d="M 66.43,132.06 H 80.9" fill="none" stroke="#474e54" stroke-dasharray="none" stroke-linecap="round" stroke-width="1.5"/><path d="m 61.7,156.27 v 5.5 l 2.4,-1.7 2.43,1.76 -.04,-5.54 z" fill="#474e54"/><path d="m 163.56,-44.2 a 3.8,3.8 0 0 1 -1.9,3.3 3.8,3.8 0 0 1 -3.8,0 3.8,3.8 0 0 1 -1.9,-3.3" fill="none" stroke="#474e54" stroke-dasharray="none" stroke-linecap="round" stroke-width="1.5" transform="rotate(84.603)"/><path d="m 120.9,-60.4 a 3.8,3.8 0 0 1 -3.56,-3.8" fill="none" stroke="#474e54" stroke-dasharray="none" stroke-linecap="round" stroke-width="1.5" transform="rotate(92.405)"/><path d="m 59.2,119.93 h 3.9" fill="none" stroke="#474e54" stroke-dasharray="none" stroke-linecap="round" stroke-width="1.5"/><path d="m 55.24,123.56 v 31.7" fill="none" stroke="#474e54" stroke-dasharray="none" stroke-linecap="round" stroke-width="1.5"/><path class="ColorScheme-Background" d="m 16.2,5.3 c -3.03,0 -5.6,2.34 -5.93,5.4 a 1,1 0 0 0 0,.27 1,1 0 0 0 -.04,.13 v 40.93 c -0,.3 -0,.6 0,.9 v 0 a 1,1 0 0 0 0,0 c .1,1.06 .45,2.1 1.1,3 1.24,1.75 3.3,2.7 5.45,2.5 a 1,1 0 0 0 .9,-1.1 1,1 0 0 0 -1.1,-.9 c -1.43,.14 -2.8,-.5 -3.65,-1.67 -.4,-.6 -.65,-1.24 -.7,-1.93 v -.8 c .04,-.43 .16,-.86 .34,-1.27 .6,-1.3 1.84,-2.2 3.27,-2.33 a 1,1 0 0 0 .1,-0 c .8,3e-5 31.44,.06 31.44,.06 h .06 l .06,-0 c 0,0 1.16,-.14 2.33,-.8 1.2,-.66 2.5,-2 2.5,-4.1 0,-3.43 .04,-32.95 .04,-32.95 0,-.16 .06,-1.3 -.47,-2.55 -.56,-1.33 -2,-2.77 -4.45,-2.77 H 19.25 v 0 h -2.77 c -.1,-0 -.2,-0 -.3,-0 z m 0,2 c .07,-4.09e-4 .13,-2.21e-4 .2,0 a 1,1 0 0 0 0,0 1,1 0 0 0 .03,0 h 2.8 V 46.46 c -.7,-10e-4 -3.25,-0 -3.34,-0 a 1,1 0 0 0 -.1,.03 1,1 0 0 0 -.14,-0 c -1.3,.1 -2.5,.66 -3.43,1.5 v -36.9 a 1,1 0 0 0 -0,-.1 1,1 0 0 0 .03,-.1 C 12.44,8.8 14.15,7.3 16.2,7.26 Z m 5.46,0 H 47.4 c 1.76,0 2.27,.73 2.6,1.56 .35,.83 .3,1.7 .3,1.7 l -0,.03 v .03 c 0,0 -.04,29.5 -.04,32.96 0,1.34 -.67,1.95 -1.47,2.4 -.8,.44 -1.57,.55 -1.6,.55 -.17,-3e-4 -18.5,-.03 -26,-.05 V 7.27 H 21.6 a 1,1 0 0 0 .04,-0 z m 4.35,4.64 a 1,1 0 0 0 -1,1 1,1 0 0 0 1,1 h 19.1 a 1,1 0 0 0 1,-1 1,1 0 0 0 -1,-1 z m 0,3.13 a 1,1 0 0 0 -1,1 1,1 0 0 0 1,1 h 19.1 a 1,1 0 0 0 1,-1 1,1 0 0 0 -1,-1 z m 0,3.14 a 1,1 0 0 0 -1,1 1,1 0 0 0 1,1 h 19.1 a 1,1 0 0 0 1,-1 1,1 0 0 0 -1,-1 z m 0,3.13 a 1,1 0 0 0 -1,1 1,1 0 0 0 1,1 h 19.1 a 1,1 0 0 0 1,-1 1,1 0 0 0 -1,-1 z m -9.6,28.4 a 1,1 0 0 0 -1,1 1,1 0 0 0 1,1 h 16.93 a 1,1 0 0 0 1,-1 1,1 0 0 0 -1,-1 z m 23.03,0 a 1,1 0 0 0 -1,1 1,1 0 0 0 1,1 h 7.7 a 1,1 0 0 0 1,-1 1,1 0 0 0 -1,-1 z m 13.3,1.63 a 1,1 0 0 0 -1,1 c 0,2 -.83,2.7 -1.73,3.15 -.9,.44 -1.83,.43 -1.83,.43 H 48.2 29.53 a 1,1 0 0 0 -1,1 1,1 0 0 0 1,1 h 18.65 c 0,0 1.36,.05 2.74,-.63 1.4,-.7 2.84,-2.27 2.84,-4.93 a 1,1 0 0 0 -1,-1 z m -36.37,1.1 a 1,1 0 0 0 -1,1 1,1 0 0 0 1,1 h 3.36 v 7.1 l 3.2,-2.27 3.2,2.33 -.05,-7.15 h 21.7 a 1,1 0 0 0 1,-1 1,1 0 0 0 -1,-1 z" fill="currentColor" opacity=".6"/></g><use href="#umN" opacity=".4"></use><use fill="url(#umK)" href="#umN" opacity=".2"></use><path d="m 54,32 c -6,0 -6,4 -14,4 H 14 c -3.3,0 -6,2.7 -6,6 v 64 c 0,3.3 2.7,6 6,6 h 100 c 3.3,0 6,-2.7 6,-6 V 52 42 38 c 0,-3.3 -2.7,-6 -6,-6 z" fill="url(#umJ)" opacity=".2"/><path class="ColorScheme-Contrast" d="m 8,105 v 1 c 0,3.3 2.7,6 6,6 h 100 c 3.3,0 6,-2.7 6,-6 v -1 c 0,3.3 -2.7,6 -6,6 H 14 c -3.3,0 -6,-2.7 -6,-6 z" fill="currentColor" opacity=".1"/><path class="ColorScheme-Contrast" d="m 8,105.5 v 0.5 c 0,3.3 2.7,6 6,6 h 100 c 3.3,0 6,-2.7 6,-6 v -0.5 c 0,3.3 -2.7,6 -6,6 H 14 c -3.3,0 -6,-2.7 -6,-6 z" fill="currentColor" opacity=".2"/><path d="m 54,32 c -6,0 -6,4 -14,4 H 14 c -3.3,0 -6,2.7 -6,6 v 1 c 0,-3.3 2.7,-6 6,-6 h 26 c 8,0 8,-4 14,-4 h 60 c 3.3,0 6,2.7 6,6 v -1 c 0,-3.3 -2.7,-6 -6,-6 z" fill="#fff" opacity=".1"/><path d="m 54,32 c -6,0 -6,4 -14,4 H 14 c -3.3,0 -6,2.7 -6,6 v 0.5 c 0,-3.3 2.7,-6 6,-6 h 26 c 8,0 8,-4 14,-4 h 60 c 3.3,0 6,2.7 6,6 V 38 c 0,-3.3 -2.7,-6 -6,-6 z" fill="#fff" opacity=".2"/><path d="m 54,31 c -6,0 -6,4 -14,4 H 14 v 1 h 26 c 8,0 8,-4 14,-4 h 60 v -1 z" opacity=".1"/><path d="m 54,31.5 c -6,0 -6,4 -14,4 H 14 V 36 h 26 c 8,0 8,-4 14,-4 h 60 v -0.5 z" opacity=".2"/></g>
</svg>