<svg height="128" version="1.1" width="128" xmlns="http://www.w3.org/2000/svg" xmlns:svg="http://www.w3.org/2000/svg" xmlns:xlink="http://www.w3.org/1999/xlink">
<defs id="primary-definitions">
<style id="current-color-scheme" type="text/css">
      .ColorScheme-Text           { color:#fff; }
      .ColorScheme-Background     { color:#111; }
      .ColorScheme-Highlight      { color:#3daefd; }
      .ColorScheme-ViewBackground { color:#000; }
      .ColorScheme-PositiveText   { color:#27ae60; }
      .ColorScheme-NeutralText    { color:#f67400; }
      .ColorScheme-NegativeText   { color:#da4453; }
    </style>
<style id="extended-color-scheme" type="text/css">
      .ExScheme-Black     { color:#3e3e3e; }
      .ExScheme-White     { color:#fcfcfc; }
      .ExScheme-Grey-1    { color:#cfd5d5; }
      .ExScheme-Grey-2    { color:#909c9c; }
      .ExScheme-Grey-3    { color:#536161; }
      .ExScheme-Red-1     { color:#ffafa5; }
      .ExScheme-Red-2     { color:#bf4231; }
      .ExScheme-Red-3     { color:#4d2f2b; }
      .ExScheme-Green-1   { color:#abf9c7; }
      .ExScheme-Green-2   { color:#3bb566; }
      .ExScheme-Green-3   { color:#377d50; }
      .ExScheme-Blue-1    { color:#abdaf9; }
      .ExScheme-Blue-2    { color:#3daefd; }
      .ExScheme-Blue-3    { color:#2b3c4d; }
      .ExScheme-Yellow-1  { color:#faffa5; }
      .ExScheme-Yellow-2  { color:#cac726; }
      .ExScheme-Yellow-3  { color:#4b4d2b; }
      .ExScheme-Orange-1  { color:#ffdaa5; }
      .ExScheme-Orange-2  { color:#ff9701; }
      .ExScheme-Orange-3  { color:#4d372b; }
      .ExScheme-Brown-1   { color:#e9d6bb; }
      .ExScheme-Brown-2   { color:#997657; }
      .ExScheme-Brown-3   { color:#433a35; }
      .ExScheme-Purple-1  { color:#e2abf9; }
      .ExScheme-Purple-2  { color:#b401ff; }
      .ExScheme-Purple-3  { color:#432b4d; }
      .ExScheme-Cyan-1    { color:#b2f2e6; }
      .ExScheme-Cyan-2    { color:#31bfa6; }
      .ExScheme-Cyan-3    { color:#2b4d47; }
      .ExScheme-Magenta-1 { color:#f8a6d8; }
      .ExScheme-Magenta-2 { color:#f00091; }
      .ExScheme-Magenta-3 { color:#770048; }
    </style>
<linearGradient id="ucO">
<stop offset="0"/>
<stop offset="1" stop-opacity="0"/>
</linearGradient>
<linearGradient id="ucP">
<stop offset="0" stop-color="#fff"/>
<stop offset="1" stop-color="#fff" stop-opacity="0"/>
</linearGradient>
<style class="toggle-enable-crease" type="text/css">
        .folder-crease { display: none; }
    </style><style class="toggle-manilla-folders" type="text/css">
        .folder-manilla { display: none; }
    </style><radialGradient cx=".5" cy="0" id="ucQ" r="1" xlink:href="#ucP"/><linearGradient id="ucR" xlink:href="#ucO" y1="1" y2=".5"/><path d="m 20,16 c -3.3,0 -6,2.7 -6,6 v 14 c -3.3,0 -6,2.7 -6,6 v 64 c 0,3.3 2.7,6 6,6 h 100 c 3.3,0 6,-2.7 6,-6 V 52 42 38 c 0,-3.3 -2.7,-6 -6,-6 v -6 c 0,-3.3 -2.7,-6 -6,-6 H 56 c -8,0 -8,-4 -14,-4 z" id="ucS"></path><path d="m 20,16 c -3.3,0 -6,2.7 -6,6 v 14 h 26 c 8,0 8,-4 14,-4 h 60 v -6 c 0,-3.3 -2.7,-6 -6,-6 H 56 c -8,0 -8,-4 -14,-4 z" id="ucT"></path></defs>
<g id="content" transform="translate(0,0)"><use class="folder-manilla ExScheme-Brown-1" fill="currentColor" href="#ucS"></use><use class="toggle-manilla-folders ColorScheme-Highlight ExScheme-Red-2" fill="currentColor" href="#ucS" id="primary-color"></use><use class="ColorScheme-Text" fill="currentColor" href="#ucS" opacity=".1"></use><g id="emblem" transform="translate(32,42)"><path class="ColorScheme-Background" d="m 10,10 v 4 h 4 v -4 z m 4,4 v 4 h 4 v -4 z m 4,0 h 4 v -4 h -4 z m 0,4 v 4 h 4 v -4 z m -4,0 h -4 v 4 h 4 z m 28,-8 v 4 h 4 v -4 z m 4,4 v 4 h 4 v -4 z m 4,0 h 4 v -4 h -4 z m 0,4 v 4 h 4 v -4 z m -4,0 h -4 v 4 h 4 z M 14,46 v 4 h 36 v -4 z m 36,4 v 4 h 4 v -4 z m -36,0 h -4 v 4 h 4 z" fill="currentColor" opacity=".6" stop-color="#000000" stroke-opacity=".16"/><path class="ColorScheme-Background" d="M 10 10 L 10 14 L 14 14 L 14 10 L 10 10 z M 14 14 L 14 18 L 18 18 L 18 14 L 14 14 z M 18 14 L 22 14 L 22 10 L 18 10 L 18 14 z M 18 18 L 18 22 L 22 22 L 22 18 L 18 18 z M 14 18 L 10 18 L 10 22 L 14 22 L 14 18 z M 42 10 L 42 14 L 46 14 L 46 10 L 42 10 z M 46 14 L 46 18 L 50 18 L 50 14 L 46 14 z M 50 14 L 54 14 L 54 10 L 50 10 L 50 14 z M 50 18 L 50 22 L 54 22 L 54 18 L 50 18 z M 46 18 L 42 18 L 42 22 L 46 22 L 46 18 z M 10.5 10.5 L 13.5 10.5 L 13.5 13.5 L 10.5 13.5 L 10.5 10.5 z M 18.5 10.5 L 21.5 10.5 L 21.5 13.5 L 18.5 13.5 L 18.5 10.5 z M 42.5 10.5 L 45.5 10.5 L 45.5 13.5 L 42.5 13.5 L 42.5 10.5 z M 50.5 10.5 L 53.5 10.5 L 53.5 13.5 L 50.5 13.5 L 50.5 10.5 z M 14.5 14.5 L 17.5 14.5 L 17.5 17.5 L 14.5 17.5 L 14.5 14.5 z M 46.5 14.5 L 49.5 14.5 L 49.5 17.5 L 46.5 17.5 L 46.5 14.5 z M 10.5 18.5 L 13.5 18.5 L 13.5 21.5 L 10.5 21.5 L 10.5 18.5 z M 18.5 18.5 L 21.5 18.5 L 21.5 21.5 L 18.5 21.5 L 18.5 18.5 z M 42.5 18.5 L 45.5 18.5 L 45.5 21.5 L 42.5 21.5 L 42.5 18.5 z M 50.5 18.5 L 53.5 18.5 L 53.5 21.5 L 50.5 21.5 L 50.5 18.5 z M 14 46 L 14 50 L 50 50 L 50 46 L 14 46 z M 50 50 L 50 54 L 54 54 L 54 50 L 50 50 z M 14 50 L 10 50 L 10 54 L 14 54 L 14 50 z M 14.5 46.5 L 49.5 46.5 L 49.5 49.5 L 14.5 49.5 L 14.5 46.5 z M 10.5 50.5 L 13.5 50.5 L 13.5 53.5 L 10.5 53.5 L 10.5 50.5 z M 50.5 50.5 L 53.5 50.5 L 53.5 53.5 L 50.5 53.5 L 50.5 50.5 z " fill="currentColor" opacity=".6"/></g><use href="#ucT" opacity=".4"></use><use class="toggle-flat-design" fill="url(#ucR)" href="#ucT" opacity=".2"></use><path class="toggle-flat-design" d="m 54,32 c -6,0 -6,4 -14,4 H 14 c -3.3,0 -6,2.7 -6,6 v 64 c 0,3.3 2.7,6 6,6 h 100 c 3.3,0 6,-2.7 6,-6 V 52 42 38 c 0,-3.3 -2.7,-6 -6,-6 z" fill="url(#ucQ)" opacity=".2"/><path class="folder-crease " d="m 8,88 v 4 h 18 c 1.1,0 2,-.9 2,-2 0,-1.1 -.9,-2 -2,-2 z m 94,0 c -1.1,0 -2,.9 -2,2 0,1.1 .9,2 2,2 h 18 v -4 z" opacity=".4"/><path class="ColorScheme-Text" d="m 8,105 v 1 c 0,3.3 2.7,6 6,6 h 100 c 3.3,0 6,-2.7 6,-6 v -1 c 0,3.3 -2.7,6 -6,6 H 14 c -3.3,0 -6,-2.7 -6,-6 z" fill="currentColor" opacity=".1"/><path class="ColorScheme-Text" d="m 8,105.5 v 0.5 c 0,3.3 2.7,6 6,6 h 100 c 3.3,0 6,-2.7 6,-6 v -0.5 c 0,3.3 -2.7,6 -6,6 H 14 c -3.3,0 -6,-2.7 -6,-6 z" fill="currentColor" opacity=".2"/><path d="m 54,32 c -6,0 -6,4 -14,4 H 14 c -3.3,0 -6,2.7 -6,6 v 1 c 0,-3.3 2.7,-6 6,-6 h 26 c 8,0 8,-4 14,-4 h 60 c 3.3,0 6,2.7 6,6 v -1 c 0,-3.3 -2.7,-6 -6,-6 z" fill="#fff" opacity=".1"/><path d="m 54,32 c -6,0 -6,4 -14,4 H 14 c -3.3,0 -6,2.7 -6,6 v 0.5 c 0,-3.3 2.7,-6 6,-6 h 26 c 8,0 8,-4 14,-4 h 60 c 3.3,0 6,2.7 6,6 V 38 c 0,-3.3 -2.7,-6 -6,-6 z" fill="#fff" opacity=".2"/><path d="m 54,31 c -6,0 -6,4 -14,4 H 14 v 1 h 26 c 8,0 8,-4 14,-4 h 60 v -1 z" opacity=".1"/><path d="m 54,31.5 c -6,0 -6,4 -14,4 H 14 V 36 h 26 c 8,0 8,-4 14,-4 h 60 v -0.5 z" opacity=".2"/></g>
</svg>