<svg height="128" version="1.1" width="128" xmlns="http://www.w3.org/2000/svg" xmlns:svg="http://www.w3.org/2000/svg" xmlns:xlink="http://www.w3.org/1999/xlink">
<defs id="primary-definitions">
<style id="current-color-scheme" type="text/css">
      .ColorScheme-Text           { color:#fff; }
      .ColorScheme-Background     { color:#111; }
      .ColorScheme-Highlight      { color:#3daefd; }
      .ColorScheme-ViewBackground { color:#000; }
      .ColorScheme-PositiveText   { color:#27ae60; }
      .ColorScheme-NeutralText    { color:#f67400; }
      .ColorScheme-NegativeText   { color:#da4453; }
    </style>
<style id="extended-color-scheme" type="text/css">
      .ExScheme-Black     { color:#3e3e3e; }
      .ExScheme-White     { color:#fcfcfc; }
      .ExScheme-Grey-1    { color:#cfd5d5; }
      .ExScheme-Grey-2    { color:#909c9c; }
      .ExScheme-Grey-3    { color:#536161; }
      .ExScheme-Red-1     { color:#ffafa5; }
      .ExScheme-Red-2     { color:#bf4231; }
      .ExScheme-Red-3     { color:#4d2f2b; }
      .ExScheme-Green-1   { color:#abf9c7; }
      .ExScheme-Green-2   { color:#3bb566; }
      .ExScheme-Green-3   { color:#377d50; }
      .ExScheme-Blue-1    { color:#abdaf9; }
      .ExScheme-Blue-2    { color:#3daefd; }
      .ExScheme-Blue-3    { color:#2b3c4d; }
      .ExScheme-Yellow-1  { color:#faffa5; }
      .ExScheme-Yellow-2  { color:#cac726; }
      .ExScheme-Yellow-3  { color:#4b4d2b; }
      .ExScheme-Orange-1  { color:#ffdaa5; }
      .ExScheme-Orange-2  { color:#ff9701; }
      .ExScheme-Orange-3  { color:#4d372b; }
      .ExScheme-Brown-1   { color:#e9d6bb; }
      .ExScheme-Brown-2   { color:#997657; }
      .ExScheme-Brown-3   { color:#433a35; }
      .ExScheme-Purple-1  { color:#e2abf9; }
      .ExScheme-Purple-2  { color:#b401ff; }
      .ExScheme-Purple-3  { color:#432b4d; }
      .ExScheme-Cyan-1    { color:#b2f2e6; }
      .ExScheme-Cyan-2    { color:#31bfa6; }
      .ExScheme-Cyan-3    { color:#2b4d47; }
      .ExScheme-Magenta-1 { color:#f8a6d8; }
      .ExScheme-Magenta-2 { color:#f00091; }
      .ExScheme-Magenta-3 { color:#770048; }
    </style>
<linearGradient id="uHl">
<stop offset="0"/>
<stop offset="1" stop-opacity="0"/>
</linearGradient>
<linearGradient id="uHm">
<stop offset="0" stop-color="#fff"/>
<stop offset="1" stop-color="#fff" stop-opacity="0"/>
</linearGradient>
<style class="toggle-enable-crease" type="text/css">
        .folder-crease { display: none; }
    </style><style class="toggle-manilla-folders" type="text/css">
        .folder-manilla { display: none; }
    </style><radialGradient cx=".5" cy="0" id="uHn" r="1" xlink:href="#uHm"/><linearGradient id="uHo" xlink:href="#uHl" y1="1" y2=".5"/><path d="m 20,16 c -3.3,0 -6,2.7 -6,6 v 14 c -3.3,0 -6,2.7 -6,6 v 64 c 0,3.3 2.7,6 6,6 h 100 c 3.3,0 6,-2.7 6,-6 V 52 42 38 c 0,-3.3 -2.7,-6 -6,-6 v -6 c 0,-3.3 -2.7,-6 -6,-6 H 56 c -8,0 -8,-4 -14,-4 z" id="uHp"></path><path d="m 20,16 c -3.3,0 -6,2.7 -6,6 v 14 h 26 c 8,0 8,-4 14,-4 h 60 v -6 c 0,-3.3 -2.7,-6 -6,-6 H 56 c -8,0 -8,-4 -14,-4 z" id="uHq"></path></defs>
<g id="content" transform="translate(0,0)"><use class="folder-manilla ExScheme-Brown-1" fill="currentColor" href="#uHp"></use><use fill="#e5f2ff" href="#uHp" id="primary-color"></use><use class="ColorScheme-Text" fill="currentColor" href="#uHp" opacity=".1"></use><g id="emblem" transform="translate(32,42)"><path class="ColorScheme-Background" d="M 12 8 C 9.8 8 8 9.8 8 12 L 8 31 L 31 31 L 31 8 L 12 8 z M 33 8 L 33 31 L 56 31 L 56 12 C 56 9.8 54.2 8 52 8 L 33 8 z M 8 33 L 8 52 C 8 54.2 9.8 56 12 56 L 31 56 L 31 33 L 8 33 z M 33 33 L 33 56 L 52 56 C 54.2 56 56 54.2 56 52 L 56 33 L 33 33 z " fill="#004d98" opacity=".6" stop-color="#000000"/><path class="ColorScheme-Background" d="M 12 8 C 9.8 8 8 9.8 8 12 L 8 31 L 31 31 L 31 8 L 12 8 z M 33 8 L 33 31 L 56 31 L 56 12 C 56 9.8 54.2 8 52 8 L 33 8 z M 12 8.5 L 30.5 8.5 L 30.5 30.5 L 8.5 30.5 L 8.5 12 C 8.5 10.05 10.05 8.5 12 8.5 z M 33.5 8.5 L 52 8.5 C 53.95 8.5 55.5 10.05 55.5 12 L 55.5 30.5 L 33.5 30.5 L 33.5 8.5 z M 8 33 L 8 52 C 8 54.2 9.8 56 12 56 L 31 56 L 31 33 L 8 33 z M 33 33 L 33 56 L 52 56 C 54.2 56 56 54.2 56 52 L 56 33 L 33 33 z M 8.5 33.5 L 30.5 33.5 L 30.5 55.5 L 12 55.5 C 10.05 55.5 8.5 53.95 8.5 52 L 8.5 33.5 z M 33.5 33.5 L 55.5 33.5 L 55.5 52 C 55.5 53.95 53.95 55.5 52 55.5 L 33.5 55.5 L 33.5 33.5 z " fill="#004d98" opacity=".6"/></g><use href="#uHq" opacity=".4"></use><use class="toggle-flat-design" fill="url(#uHo)" href="#uHq" opacity=".2"></use><path class="toggle-flat-design" d="m 54,32 c -6,0 -6,4 -14,4 H 14 c -3.3,0 -6,2.7 -6,6 v 64 c 0,3.3 2.7,6 6,6 h 100 c 3.3,0 6,-2.7 6,-6 V 52 42 38 c 0,-3.3 -2.7,-6 -6,-6 z" fill="url(#uHn)" opacity=".2"/><path class="folder-crease " d="m 8,88 v 4 h 18 c 1.1,0 2,-.9 2,-2 0,-1.1 -.9,-2 -2,-2 z m 94,0 c -1.1,0 -2,.9 -2,2 0,1.1 .9,2 2,2 h 18 v -4 z" opacity=".4"/><path class="ColorScheme-Text" d="m 8,105 v 1 c 0,3.3 2.7,6 6,6 h 100 c 3.3,0 6,-2.7 6,-6 v -1 c 0,3.3 -2.7,6 -6,6 H 14 c -3.3,0 -6,-2.7 -6,-6 z" fill="currentColor" opacity=".1"/><path class="ColorScheme-Text" d="m 8,105.5 v 0.5 c 0,3.3 2.7,6 6,6 h 100 c 3.3,0 6,-2.7 6,-6 v -0.5 c 0,3.3 -2.7,6 -6,6 H 14 c -3.3,0 -6,-2.7 -6,-6 z" fill="currentColor" opacity=".2"/><path d="m 54,32 c -6,0 -6,4 -14,4 H 14 c -3.3,0 -6,2.7 -6,6 v 1 c 0,-3.3 2.7,-6 6,-6 h 26 c 8,0 8,-4 14,-4 h 60 c 3.3,0 6,2.7 6,6 v -1 c 0,-3.3 -2.7,-6 -6,-6 z" fill="#fff" opacity=".1"/><path d="m 54,32 c -6,0 -6,4 -14,4 H 14 c -3.3,0 -6,2.7 -6,6 v 0.5 c 0,-3.3 2.7,-6 6,-6 h 26 c 8,0 8,-4 14,-4 h 60 c 3.3,0 6,2.7 6,6 V 38 c 0,-3.3 -2.7,-6 -6,-6 z" fill="#fff" opacity=".2"/><path d="m 54,31 c -6,0 -6,4 -14,4 H 14 v 1 h 26 c 8,0 8,-4 14,-4 h 60 v -1 z" opacity=".1"/><path d="m 54,31.5 c -6,0 -6,4 -14,4 H 14 V 36 h 26 c 8,0 8,-4 14,-4 h 60 v -0.5 z" opacity=".2"/></g>
</svg>