<svg height="128" version="1.1" width="128" xmlns="http://www.w3.org/2000/svg" xmlns:svg="http://www.w3.org/2000/svg" xmlns:xlink="http://www.w3.org/1999/xlink">
<defs id="primary-definitions">
<style id="current-color-scheme" type="text/css">
      .ColorScheme-Text         { color: #232629; }
      .ColorScheme-Background   { color: #eff0f1; }
      .ColorScheme-Highlight    { color: #7ec9f0; }
      .ColorScheme-PositiveText { color: #27ae60; }
      .ColorScheme-NeutralText  { color: #f67400; }
      .ColorScheme-NegativeText { color: #da4453; }
      .ColorScheme-ActiveText   { color: #3daee9; }
      .ColorScheme-Complement   { color: #ffffff; }
      .ColorScheme-Contrast     { color: #000000; }
    </style>
<style id="extended-color-scheme" type="text/css">
      .ExScheme-Black     { color:#3e3e3e; }
      .ExScheme-White     { color:#fcfcfc; }
      .ExScheme-Grey-1    { color:#cfd5d5; }
      .ExScheme-Grey-2    { color:#909c9c; }
      .ExScheme-Grey-3    { color:#536161; }
      .ExScheme-Red-1     { color:#ffafa5; }
      .ExScheme-Red-2     { color:#bf4231; }
      .ExScheme-Red-3     { color:#4d2f2b; }
      .ExScheme-Green-1   { color:#abf9c7; }
      .ExScheme-Green-2   { color:#3bb566; }
      .ExScheme-Green-3   { color:#377d50; }
      .ExScheme-Blue-1    { color:#abdaf9; }
      .ExScheme-Blue-2    { color:#3daefd; }
      .ExScheme-Blue-3    { color:#2b3c4d; }
      .ExScheme-Yellow-1  { color:#faffa5; }
      .ExScheme-Yellow-2  { color:#cac726; }
      .ExScheme-Yellow-3  { color:#4b4d2b; }
      .ExScheme-Orange-1  { color:#ffdaa5; }
      .ExScheme-Orange-2  { color:#ff9701; }
      .ExScheme-Orange-3  { color:#4d372b; }
      .ExScheme-Brown-1   { color:#e9d6bb; }
      .ExScheme-Brown-2   { color:#997657; }
      .ExScheme-Brown-3   { color:#433a35; }
      .ExScheme-Purple-1  { color:#e2abf9; }
      .ExScheme-Purple-2  { color:#b401ff; }
      .ExScheme-Purple-3  { color:#432b4d; }
      .ExScheme-Cyan-1    { color:#b2f2e6; }
      .ExScheme-Cyan-2    { color:#31bfa6; }
      .ExScheme-Cyan-3    { color:#2b4d47; }
      .ExScheme-Magenta-1 { color:#f8a6d8; }
      .ExScheme-Magenta-2 { color:#f00091; }
      .ExScheme-Magenta-3 { color:#770048; }
    </style>
<linearGradient id="uqy">
<stop offset="0"/>
<stop offset="1" stop-opacity="0"/>
</linearGradient>
<linearGradient id="uqz">
<stop offset="0" stop-color="#fff"/>
<stop offset="1" stop-color="#fff" stop-opacity="0"/>
</linearGradient>
<style id="uqA" type="text/css">
        .force-display-for-editing { display: inline !important; }
    </style><style class="remove-if__show-crease" type="text/css">
        .enable-if__show-crease { display: none; }
    </style><style class="remove-if__color-sync-mimes-places" type="text/css">
        .enable-if__color-sync-mimes-places { display: none; }
    </style><radialGradient cx=".5" cy="0" id="uqB" r="1" xlink:href="#uqz"/><linearGradient id="uqC" xlink:href="#uqy" y1="1" y2=".5"/><style class="ColorScheme-Background" fill="currentColor" opacity=".6" type="text/css">
   .ColorScheme-Text           { color:#eff0f1; }
      .ColorScheme-Background     { color:#31363b; }
      .ColorScheme-Highlight      { color:#3daefd; }
      .ColorScheme-ViewBackground { color:#fcfcfc; }
      .ColorScheme-PositiveText   { color:#27ae60; }
      .ColorScheme-NeutralText    { color:#f67400; }
      .ColorScheme-NegativeText   { color:#da4453; }
  </style><path d="m 20,16 c -3.3,0 -6,2.7 -6,6 v 14 c -3.3,0 -6,2.7 -6,6 v 64 c 0,3.3 2.7,6 6,6 h 100 c 3.3,0 6,-2.7 6,-6 V 52 42 38 c 0,-3.3 -2.7,-6 -6,-6 v -6 c 0,-3.3 -2.7,-6 -6,-6 H 56 c -8,0 -8,-4 -14,-4 z" id="uqD"></path><path d="m 20,16 c -3.3,0 -6,2.7 -6,6 v 14 h 26 c 8,0 8,-4 14,-4 h 60 v -6 c 0,-3.3 -2.7,-6 -6,-6 H 56 c -8,0 -8,-4 -14,-4 z" id="uqE"></path></defs>
<g id="content" transform="translate(0,0)"><use class="sync-color enable-if__color-sync-mimes-places force-display-for-editing ColorScheme-ActiveText" fill="currentColor" href="#uqD"></use><use class="primary-color remove-if__color-sync-mimes-places ColorScheme-ActiveText ExScheme-Grey-3" fill="currentColor" href="#uqD"></use><use class="ColorScheme-Contrast" fill="currentColor" href="#uqD" opacity=".1"></use><g id="panorama" transform="translate(8,32)"><g id="decal" transform="translate(24,8)"><path class="ExScheme-White" d="M 32 8 C 23.16 8 16 15.16 16 24 L 16 28 L 14 28 C 12.9 28 12 28.9 12 30 L 12 54 C 12 55.1 12.9 56 14 56 L 50 56 C 51.1 56 52 55.1 52 54 L 52 30 C 52 28.9 51.1 28 50 28 L 48 28 L 48 24 C 48 15.16 40.84 8 32 8 z M 32 9 A 15 15 0 0 1 47 24 L 47 28 L 45 28 L 45 24 A 13 13 0 0 0 32 11 A 13 13 0 0 0 19 24 L 19 28 L 17 28 L 17 24 A 15 15 0 0 1 32 9 z M 32 12 C 38.63 12 44 17.37 44 24 L 44 28 L 20 28 L 20 24 C 20 17.37 25.37 12 32 12 z " fill="currentColor" opacity=".6" stop-color="#000000"/><path class="ExScheme-White" d="M 32,8 C 23.16,8 16,15.16 16,24 v 4 h -2 c -1.1,0 -2,.9 -2,2 v 24 c 0,1.1 .9,2 2,2 h 36 c 1.1,0 2,-.9 2,-2 V 30 c 0,-1.1 -.9,-2 -2,-2 H 48 V 24 C 48,15.16 40.84,8 32,8 Z m 0,1 c 8.3,0 15,6.7 15,15 v 4 H 45 V 24 C 45,16.8 39.2,11 32,11 24.8,11 19,16.8 19,24 v 4 H 17 V 24 C 17,15.7 23.7,9 32,9 Z m 0,3 c 6.63,0 12,5.37 12,12 v 4 H 20 v -4 c 0,-6.63 5.37,-12 12,-12 z m 18,16.5 c .84,0 1.5,.66 1.5,1.5 v 24 c 0,.84 -.66,1.5 -1.5,1.5 H 14 c -.84,0 -1.5,-.66 -1.5,-1.5 V 30 c 0,-.84 .66,-1.5 1.5,-1.5 z" fill="currentColor" opacity=".6"/></g><path d="M 0 74 C 0 74.7 .14 75.37 .37 76 L 2 76 L 2 74 L 0 74 z M 2 76 L 2 78 L 4 78 L 4 76 L 2 76 z M 4 76 L 6 76 L 6 74 L 4 74 L 4 76 z M 6 76 L 6 78 L 8 78 L 8 76 L 6 76 z M 8 76 L 10 76 L 10 74 L 8 74 L 8 76 z M 10 76 L 10 78 L 12 78 L 12 76 L 10 76 z M 12 76 L 14 76 L 14 74 L 12 74 L 12 76 z M 14 76 L 14 78 L 16 78 L 16 76 L 14 76 z M 16 76 L 18 76 L 18 74 L 16 74 L 16 76 z M 18 76 L 18 78 L 20 78 L 20 76 L 18 76 z M 20 76 L 22 76 L 22 74 L 20 74 L 20 76 z M 22 76 L 22 78 L 24 78 L 24 76 L 22 76 z M 24 76 L 26 76 L 26 74 L 24 74 L 24 76 z M 26 76 L 26 78 L 28 78 L 28 76 L 26 76 z M 28 76 L 30 76 L 30 74 L 28 74 L 28 76 z M 30 76 L 30 78 L 32 78 L 32 76 L 30 76 z M 32 76 L 34 76 L 34 74 L 32 74 L 32 76 z M 34 76 L 34 78 L 36 78 L 36 76 L 34 76 z M 36 76 L 38 76 L 38 74 L 36 74 L 36 76 z M 38 76 L 38 78 L 40 78 L 40 76 L 38 76 z M 40 76 L 42 76 L 42 74 L 40 74 L 40 76 z M 42 76 L 42 78 L 44 78 L 44 76 L 42 76 z M 44 76 L 46 76 L 46 74 L 44 74 L 44 76 z M 46 76 L 46 78 L 48 78 L 48 76 L 46 76 z M 48 76 L 50 76 L 50 74 L 48 74 L 48 76 z M 50 76 L 50 78 L 52 78 L 52 76 L 50 76 z M 52 76 L 54 76 L 54 74 L 52 74 L 52 76 z M 54 76 L 54 78 L 56 78 L 56 76 L 54 76 z M 56 76 L 58 76 L 58 74 L 56 74 L 56 76 z M 58 76 L 58 78 L 60 78 L 60 76 L 58 76 z M 60 76 L 62 76 L 62 74 L 60 74 L 60 76 z M 62 76 L 62 78 L 64 78 L 64 76 L 62 76 z M 64 76 L 66 76 L 66 74 L 64 74 L 64 76 z M 66 76 L 66 78 L 68 78 L 68 76 L 66 76 z M 68 76 L 70 76 L 70 74 L 68 74 L 68 76 z M 70 76 L 70 78 L 72 78 L 72 76 L 70 76 z M 72 76 L 74 76 L 74 74 L 72 74 L 72 76 z M 74 76 L 74 78 L 76 78 L 76 76 L 74 76 z M 76 76 L 78 76 L 78 74 L 76 74 L 76 76 z M 78 76 L 78 78 L 80 78 L 80 76 L 78 76 z M 80 76 L 82 76 L 82 74 L 80 74 L 80 76 z M 82 76 L 82 78 L 84 78 L 84 76 L 82 76 z M 84 76 L 86 76 L 86 74 L 84 74 L 84 76 z M 86 76 L 86 78 L 88 78 L 88 76 L 86 76 z M 88 76 L 90 76 L 90 74 L 88 74 L 88 76 z M 90 76 L 90 78 L 92 78 L 92 76 L 90 76 z M 92 76 L 94 76 L 94 74 L 92 74 L 92 76 z M 94 76 L 94 78 L 96 78 L 96 76 L 94 76 z M 96 76 L 98 76 L 98 74 L 96 74 L 96 76 z M 98 76 L 98 78 L 100 78 L 100 76 L 98 76 z M 100 76 L 102 76 L 102 74 L 100 74 L 100 76 z M 102 76 L 102 78 L 104 78 L 104 76 L 102 76 z M 104 76 L 106 76 L 106 74 L 104 74 L 104 76 z M 106 76 L 106 78 L 108 78 L 108 76 L 106 76 z M 108 76 L 110 76 L 110 74 L 108 74 L 108 76 z M 110 76 L 110 78 L 110.45 78 C 110.97 77.4 111.37 76.75 111.63 76 L 110 76 z M 110 78 L 108 78 L 108 79.63 C 108.75 79.37 109.4 78.97 110 78.45 L 110 78 z M 106 78 L 104 78 L 104 80 L 106 80 L 106 78 z M 102 78 L 100 78 L 100 80 L 102 80 L 102 78 z M 98 78 L 96 78 L 96 80 L 98 80 L 98 78 z M 94 78 L 92 78 L 92 80 L 94 80 L 94 78 z M 90 78 L 88 78 L 88 80 L 90 80 L 90 78 z M 86 78 L 84 78 L 84 80 L 86 80 L 86 78 z M 82 78 L 80 78 L 80 80 L 82 80 L 82 78 z M 78 78 L 76 78 L 76 80 L 78 80 L 78 78 z M 74 78 L 72 78 L 72 80 L 74 80 L 74 78 z M 70 78 L 68 78 L 68 80 L 70 80 L 70 78 z M 66 78 L 64 78 L 64 80 L 66 80 L 66 78 z M 62 78 L 60 78 L 60 80 L 62 80 L 62 78 z M 58 78 L 56 78 L 56 80 L 58 80 L 58 78 z M 54 78 L 52 78 L 52 80 L 54 80 L 54 78 z M 50 78 L 48 78 L 48 80 L 50 80 L 50 78 z M 46 78 L 44 78 L 44 80 L 46 80 L 46 78 z M 42 78 L 40 78 L 40 80 L 42 80 L 42 78 z M 38 78 L 36 78 L 36 80 L 38 80 L 38 78 z M 34 78 L 32 78 L 32 80 L 34 80 L 34 78 z M 30 78 L 28 78 L 28 80 L 30 80 L 30 78 z M 26 78 L 24 78 L 24 80 L 26 80 L 26 78 z M 22 78 L 20 78 L 20 80 L 22 80 L 22 78 z M 18 78 L 16 78 L 16 80 L 18 80 L 18 78 z M 14 78 L 12 78 L 12 80 L 14 80 L 14 78 z M 10 78 L 8 78 L 8 80 L 10 80 L 10 78 z M 6 78 L 4 78 L 4 79.63 C 4.63 79.86 5.3 80 6 80 L 6 78 z M 2 78 L 1.55 78 C 1.7 78.16 1.84 78.3 2 78.45 L 2 78 z " fill="#ffffff" id="rect3899" opacity=".2" stop-color="#000000"/></g><use href="#uqE" opacity=".4"></use><use fill="url(#uqC)" href="#uqE" opacity=".2"></use><path d="m 54,32 c -6,0 -6,4 -14,4 H 14 c -3.3,0 -6,2.7 -6,6 v 64 c 0,3.3 2.7,6 6,6 h 100 c 3.3,0 6,-2.7 6,-6 V 52 42 38 c 0,-3.3 -2.7,-6 -6,-6 z" fill="url(#uqB)" opacity=".2"/><path class="ColorScheme-Contrast" d="m 8,105 v 1 c 0,3.3 2.7,6 6,6 h 100 c 3.3,0 6,-2.7 6,-6 v -1 c 0,3.3 -2.7,6 -6,6 H 14 c -3.3,0 -6,-2.7 -6,-6 z" fill="currentColor" opacity=".1"/><path class="ColorScheme-Contrast" d="m 8,105.5 v 0.5 c 0,3.3 2.7,6 6,6 h 100 c 3.3,0 6,-2.7 6,-6 v -0.5 c 0,3.3 -2.7,6 -6,6 H 14 c -3.3,0 -6,-2.7 -6,-6 z" fill="currentColor" opacity=".2"/><path d="m 54,32 c -6,0 -6,4 -14,4 H 14 c -3.3,0 -6,2.7 -6,6 v 1 c 0,-3.3 2.7,-6 6,-6 h 26 c 8,0 8,-4 14,-4 h 60 c 3.3,0 6,2.7 6,6 v -1 c 0,-3.3 -2.7,-6 -6,-6 z" fill="#fff" opacity=".1"/><path d="m 54,32 c -6,0 -6,4 -14,4 H 14 c -3.3,0 -6,2.7 -6,6 v 0.5 c 0,-3.3 2.7,-6 6,-6 h 26 c 8,0 8,-4 14,-4 h 60 c 3.3,0 6,2.7 6,6 V 38 c 0,-3.3 -2.7,-6 -6,-6 z" fill="#fff" opacity=".2"/><path d="m 54,31 c -6,0 -6,4 -14,4 H 14 v 1 h 26 c 8,0 8,-4 14,-4 h 60 v -1 z" opacity=".1"/><path d="m 54,31.5 c -6,0 -6,4 -14,4 H 14 V 36 h 26 c 8,0 8,-4 14,-4 h 60 v -0.5 z" opacity=".2"/></g>
</svg>