<svg height="128" version="1.1" width="128" xmlns="http://www.w3.org/2000/svg" xmlns:svg="http://www.w3.org/2000/svg" xmlns:xlink="http://www.w3.org/1999/xlink">
<defs id="primary-definitions">
<style id="current-color-scheme" type="text/css">
      .ColorScheme-Text           { color:#fff; }
      .ColorScheme-Background     { color:#111; }
      .ColorScheme-Highlight      { color:#3daefd; }
      .ColorScheme-ViewBackground { color:#000; }
      .ColorScheme-PositiveText   { color:#27ae60; }
      .ColorScheme-NeutralText    { color:#f67400; }
      .ColorScheme-NegativeText   { color:#da4453; }
    </style>
<style id="extended-color-scheme" type="text/css">
      .ExScheme-Black     { color:#3e3e3e; }
      .ExScheme-White     { color:#fcfcfc; }
      .ExScheme-Grey-1    { color:#cfd5d5; }
      .ExScheme-Grey-2    { color:#909c9c; }
      .ExScheme-Grey-3    { color:#536161; }
      .ExScheme-Red-1     { color:#ffafa5; }
      .ExScheme-Red-2     { color:#bf4231; }
      .ExScheme-Red-3     { color:#4d2f2b; }
      .ExScheme-Green-1   { color:#abf9c7; }
      .ExScheme-Green-2   { color:#3bb566; }
      .ExScheme-Green-3   { color:#377d50; }
      .ExScheme-Blue-1    { color:#abdaf9; }
      .ExScheme-Blue-2    { color:#3daefd; }
      .ExScheme-Blue-3    { color:#2b3c4d; }
      .ExScheme-Yellow-1  { color:#faffa5; }
      .ExScheme-Yellow-2  { color:#cac726; }
      .ExScheme-Yellow-3  { color:#4b4d2b; }
      .ExScheme-Orange-1  { color:#ffdaa5; }
      .ExScheme-Orange-2  { color:#ff9701; }
      .ExScheme-Orange-3  { color:#4d372b; }
      .ExScheme-Brown-1   { color:#e9d6bb; }
      .ExScheme-Brown-2   { color:#997657; }
      .ExScheme-Brown-3   { color:#433a35; }
      .ExScheme-Purple-1  { color:#e2abf9; }
      .ExScheme-Purple-2  { color:#b401ff; }
      .ExScheme-Purple-3  { color:#432b4d; }
      .ExScheme-Cyan-1    { color:#b2f2e6; }
      .ExScheme-Cyan-2    { color:#31bfa6; }
      .ExScheme-Cyan-3    { color:#2b4d47; }
      .ExScheme-Magenta-1 { color:#f8a6d8; }
      .ExScheme-Magenta-2 { color:#f00091; }
      .ExScheme-Magenta-3 { color:#770048; }
    </style>
<linearGradient id="uxj">
<stop offset="0"/>
<stop offset="1" stop-opacity="0"/>
</linearGradient>
<linearGradient id="uxk">
<stop offset="0" stop-color="#fff"/>
<stop offset="1" stop-color="#fff" stop-opacity="0"/>
</linearGradient>
<style class="toggle-enable-crease" type="text/css">
        .folder-crease { display: none; }
    </style><style class="toggle-manilla-folders" type="text/css">
        .folder-manilla { display: none; }
    </style><radialGradient cx=".5" cy="0" id="uxl" r="1" xlink:href="#uxk"/><linearGradient id="uxm" xlink:href="#uxj" y1="1" y2=".5"/><path d="m 20,16 c -3.3,0 -6,2.7 -6,6 v 14 c -3.3,0 -6,2.7 -6,6 v 64 c 0,3.3 2.7,6 6,6 h 100 c 3.3,0 6,-2.7 6,-6 V 52 42 38 c 0,-3.3 -2.7,-6 -6,-6 v -6 c 0,-3.3 -2.7,-6 -6,-6 H 56 c -8,0 -8,-4 -14,-4 z" id="uxn"></path><path d="m 20,16 c -3.3,0 -6,2.7 -6,6 v 14 h 26 c 8,0 8,-4 14,-4 h 60 v -6 c 0,-3.3 -2.7,-6 -6,-6 H 56 c -8,0 -8,-4 -14,-4 z" id="uxo"></path></defs>
<g id="content" transform="translate(0,0)"><use class="folder-manilla ExScheme-Brown-1" fill="currentColor" href="#uxn"></use><use class="toggle-manilla-folders ColorScheme-Highlight" fill="currentColor" href="#uxn" id="primary-color"></use><use class="ColorScheme-Text" fill="currentColor" href="#uxn" opacity=".1"></use><g id="panorama" transform="translate(8,32)"><path class="ColorScheme-Background" d="M 18 16 C 14.7 16 12 18.7 12 22 C 12 25.3 14.7 28 18 28 C 21.3 28 24 25.3 24 22 C 24 18.7 21.3 16 18 16 z M 70 31.8 C 69.5 31.8 69 32 68.6 32.4 L 21 80 L 106 80 C 109.3 80 112 77.3 112 74 L 112 73 L 71.4 32.4 C 71 32 70.5 31.8 70 31.8 z M 36 37.83 C 35.5 37.83 35 38 34.6 38.4 L 0 73 L 0 74 C 0 77.3 2.7 80 6 80 L 19.5 80 L 49.25 50.25 L 37.4 38.4 C 37 38 36.5 37.83 36 37.83 z " fill="currentColor" opacity=".6"/><path class="ColorScheme-Background" d="M 18 16 C 14.7 16 12 18.7 12 22 C 12 25.3 14.7 28 18 28 C 21.3 28 24 25.3 24 22 C 24 18.7 21.3 16 18 16 z M 18 16.5 C 21.04 16.5 23.5 18.96 23.5 22 C 23.5 25.04 21.04 27.5 18 27.5 C 14.96 27.5 12.5 25.04 12.5 22 C 12.5 18.96 14.96 16.5 18 16.5 z M 70 31.8 C 69.5 31.8 69 32 68.6 32.4 L 21 80 L 106 80 C 109.3 80 112 77.3 112 74 L 112 73 L 71.4 32.4 C 71 32 70.5 31.8 70 31.8 z M 70 32.3 C 70.4 32.3 70.76 32.47 71.06 32.77 L 111.5 73.2 L 111.5 74 C 111.5 77.06 109.06 79.5 106 79.5 L 22.2 79.5 L 68.94 32.77 C 69.24 32.47 69.6 32.3 70 32.3 z M 36 37.83 C 35.5 37.83 35 38 34.6 38.4 L 0 73 L 0 74 C 0 77.3 2.7 80 6 80 L 19.5 80 L 49.25 50.25 L 37.4 38.4 C 37 38 36.5 37.83 36 37.83 z M 36 38.33 C 36.4 38.33 36.76 38.47 37.06 38.77 L 48.54 50.25 L 19.3 79.5 L 6 79.5 C 2.94 79.5 0.5 77.06 0.5 74 L 0.5 73.2 L 34.94 38.77 L 34.94 38.77 C 35.24 38.47 35.6 38.33 36 38.33 z " fill="currentColor" opacity=".6"/></g><use href="#uxo" opacity=".4"></use><use class="toggle-flat-design" fill="url(#uxm)" href="#uxo" opacity=".2"></use><path class="toggle-flat-design" d="m 54,32 c -6,0 -6,4 -14,4 H 14 c -3.3,0 -6,2.7 -6,6 v 64 c 0,3.3 2.7,6 6,6 h 100 c 3.3,0 6,-2.7 6,-6 V 52 42 38 c 0,-3.3 -2.7,-6 -6,-6 z" fill="url(#uxl)" opacity=".2"/><path class="folder-crease " d="m 8,88 v 4 h 4 c 1.1,0 2,-.9 2,-2 0,-1.1 -.9,-2 -2,-2 z m 108,0 c -1.1,0 -2,.9 -2,2 0,1.1 .9,2 2,2 h 4 v -4 z" opacity=".4"/><path class="ColorScheme-Text" d="m 8,105 v 1 c 0,3.3 2.7,6 6,6 h 100 c 3.3,0 6,-2.7 6,-6 v -1 c 0,3.3 -2.7,6 -6,6 H 14 c -3.3,0 -6,-2.7 -6,-6 z" fill="currentColor" opacity=".1"/><path class="ColorScheme-Text" d="m 8,105.5 v 0.5 c 0,3.3 2.7,6 6,6 h 100 c 3.3,0 6,-2.7 6,-6 v -0.5 c 0,3.3 -2.7,6 -6,6 H 14 c -3.3,0 -6,-2.7 -6,-6 z" fill="currentColor" opacity=".2"/><path d="m 54,32 c -6,0 -6,4 -14,4 H 14 c -3.3,0 -6,2.7 -6,6 v 1 c 0,-3.3 2.7,-6 6,-6 h 26 c 8,0 8,-4 14,-4 h 60 c 3.3,0 6,2.7 6,6 v -1 c 0,-3.3 -2.7,-6 -6,-6 z" fill="#fff" opacity=".1"/><path d="m 54,32 c -6,0 -6,4 -14,4 H 14 c -3.3,0 -6,2.7 -6,6 v 0.5 c 0,-3.3 2.7,-6 6,-6 h 26 c 8,0 8,-4 14,-4 h 60 c 3.3,0 6,2.7 6,6 V 38 c 0,-3.3 -2.7,-6 -6,-6 z" fill="#fff" opacity=".2"/><path d="m 54,31 c -6,0 -6,4 -14,4 H 14 v 1 h 26 c 8,0 8,-4 14,-4 h 60 v -1 z" opacity=".1"/><path d="m 54,31.5 c -6,0 -6,4 -14,4 H 14 V 36 h 26 c 8,0 8,-4 14,-4 h 60 v -0.5 z" opacity=".2"/></g>
</svg>