<svg height="128" version="1.1" width="128" xmlns="http://www.w3.org/2000/svg" xmlns:svg="http://www.w3.org/2000/svg" xmlns:xlink="http://www.w3.org/1999/xlink">
<defs id="primary-definitions">
<style id="current-color-scheme" type="text/css">
      .ColorScheme-Text           { color:#fff; }
      .ColorScheme-Background     { color:#111; }
      .ColorScheme-Highlight      { color:#3daefd; }
      .ColorScheme-ViewBackground { color:#000; }
      .ColorScheme-PositiveText   { color:#27ae60; }
      .ColorScheme-NeutralText    { color:#f67400; }
      .ColorScheme-NegativeText   { color:#da4453; }
    </style>
<style id="extended-color-scheme" type="text/css">
      .ExScheme-Black     { color:#3e3e3e; }
      .ExScheme-White     { color:#fcfcfc; }
      .ExScheme-Grey-1    { color:#cfd5d5; }
      .ExScheme-Grey-2    { color:#909c9c; }
      .ExScheme-Grey-3    { color:#536161; }
      .ExScheme-Red-1     { color:#ffafa5; }
      .ExScheme-Red-2     { color:#bf4231; }
      .ExScheme-Red-3     { color:#4d2f2b; }
      .ExScheme-Green-1   { color:#abf9c7; }
      .ExScheme-Green-2   { color:#3bb566; }
      .ExScheme-Green-3   { color:#377d50; }
      .ExScheme-Blue-1    { color:#abdaf9; }
      .ExScheme-Blue-2    { color:#3daefd; }
      .ExScheme-Blue-3    { color:#2b3c4d; }
      .ExScheme-Yellow-1  { color:#faffa5; }
      .ExScheme-Yellow-2  { color:#cac726; }
      .ExScheme-Yellow-3  { color:#4b4d2b; }
      .ExScheme-Orange-1  { color:#ffdaa5; }
      .ExScheme-Orange-2  { color:#ff9701; }
      .ExScheme-Orange-3  { color:#4d372b; }
      .ExScheme-Brown-1   { color:#e9d6bb; }
      .ExScheme-Brown-2   { color:#997657; }
      .ExScheme-Brown-3   { color:#433a35; }
      .ExScheme-Purple-1  { color:#e2abf9; }
      .ExScheme-Purple-2  { color:#b401ff; }
      .ExScheme-Purple-3  { color:#432b4d; }
      .ExScheme-Cyan-1    { color:#b2f2e6; }
      .ExScheme-Cyan-2    { color:#31bfa6; }
      .ExScheme-Cyan-3    { color:#2b4d47; }
      .ExScheme-Magenta-1 { color:#f8a6d8; }
      .ExScheme-Magenta-2 { color:#f00091; }
      .ExScheme-Magenta-3 { color:#770048; }
    </style>
<linearGradient id="uDh">
<stop offset="0"/>
<stop offset="1" stop-opacity="0"/>
</linearGradient>
<linearGradient id="uDi">
<stop offset="0" stop-color="#fff"/>
<stop offset="1" stop-color="#fff" stop-opacity="0"/>
</linearGradient>
<style class="toggle-enable-crease" type="text/css">
        .folder-crease { display: none; }
    </style><style class="toggle-manilla-folders" type="text/css">
        .folder-manilla { display: none; }
    </style><radialGradient cx=".5" cy="0" id="uDj" r="1" xlink:href="#uDi"/><linearGradient id="uDk" xlink:href="#uDh" y1="1" y2=".5"/><path d="m 20,16 c -3.3,0 -6,2.7 -6,6 v 14 c -3.3,0 -6,2.7 -6,6 v 64 c 0,3.3 2.7,6 6,6 h 100 c 3.3,0 6,-2.7 6,-6 V 52 42 38 c 0,-3.3 -2.7,-6 -6,-6 v -6 c 0,-3.3 -2.7,-6 -6,-6 H 56 c -8,0 -8,-4 -14,-4 z" id="uDl"></path><path d="m 20,16 c -3.3,0 -6,2.7 -6,6 v 14 h 26 c 8,0 8,-4 14,-4 h 60 v -6 c 0,-3.3 -2.7,-6 -6,-6 H 56 c -8,0 -8,-4 -14,-4 z" id="uDm"></path></defs>
<g id="content" transform="translate(0,0)"><use class="folder-manilla ExScheme-Brown-1" fill="currentColor" href="#uDl"></use><use class="toggle-manilla-folders ColorScheme-Highlight" fill="currentColor" href="#uDl" id="primary-color"></use><use class="ColorScheme-Text" fill="currentColor" href="#uDl" opacity=".1"></use><g id="emblem" transform="translate(32,42)"><path class="ColorScheme-Background" d="M 45,2.84 C 44.5,2.57 43.9,2.73 43.63,3.2 L 42.13,5.8 41.27,5.3 C 40.3,4.75 39.1,5.1 38.54,6.04 L 28.54,23.36 c -.55,.96 -.23,2.2 .73,2.73 l 3.46,2 c .96,.55 2.2,.23 2.73,-.73 l 7.46,-12.9 c .4,1.5 .4,3.33 -.73,5.26 l -9,15.6 a 1,1 0 0 0 .37,1.37 1,1 0 0 0 1.37,-.37 l 9,-15.6 c 1.9,-3.27 1.2,-6.4 .3,-8.5 l 1.26,-2.2 C 46,9.1 45.7,7.86 44.73,7.3 L 43.87,6.8 45.37,4.2 C 45.64,3.73 45.5,3.1 45,2.84 Z M 26.54,26.8 16.54,44.14 C 12.54,51.07 12,60 12,60 c 0,0 7.46,-4.93 11.46,-11.86 L 33.46,30.8 Z" fill="currentColor" opacity=".6"/><path class="ColorScheme-Background" d="M 35.7 44.17 C 35.66 44.17 35.6 44.17 35.56 44.2 C 34.7 44.26 34 44.8 33.34 45.55 C 32.4 46.65 31.7 48.2 31.23 49.7 C 31.2 49.73 31.16 49.75 31.1 49.76 C 27.25 50.85 23.05 51.5 23.05 51.5 A 0.5 0.5 0 0 0 22.63 52.07 A 0.5 0.5 0 0 0 23.2 52.5 C 23.2 52.5 27.15 51.8 30.87 50.84 C 30.83 51 30.75 51.14 30.7 51.3 C 30.45 52.66 29.9 53.8 29.4 54.84 C 29.1 54.96 28.65 55.07 28.4 55.2 C 27.9 55.44 27.47 55.7 27.17 56 C 27 56.14 26.9 56.3 26.83 56.54 C 26.77 56.77 26.8 57.05 26.94 57.25 C 27.1 57.5 27.34 57.74 27.64 57.84 C 27.93 57.93 28.24 57.9 28.5 57.77 C 29 57.54 29.4 57.07 29.8 56.46 C 29.95 56.25 30 55.86 30.13 55.63 C 30.9 55.34 31.6 55.04 32.5 54.8 C 34.4 54.2 36.25 53.77 37.3 53.5 L 36 55.73 A 0.5 0.5 0 0 0 36.2 56.4 A 0.5 0.5 0 0 0 36.9 56.24 L 39.3 52.1 C 39.5 52.3 39.54 52.56 39.8 52.65 C 40 52.7 40.4 52.6 40.5 52.64 C 40.5 52.9 40.44 53.15 40.54 53.4 C 40.7 53.83 41.2 54.2 41.8 54.17 C 42.67 54.1 43.4 53.73 43.9 53.5 C 44.1 53.4 44.2 53.37 44.3 53.35 C 44.3 53.37 44.3 53.4 44.26 53.54 C 44.2 53.8 44.14 54.1 44.03 54.5 C 43.97 54.7 43.86 55 43.8 55.2 C 43.3 55.85 42.75 56.34 42.34 57 C 41.8 57.84 41.36 58.65 41.1 59.3 C 40.97 59.64 40.87 59.93 40.85 60.2 C 40.84 60.36 40.84 60.5 40.9 60.66 C 40.94 60.8 41.05 61 41.2 61.1 C 41.4 61.2 41.67 61.2 41.84 61.14 C 42 61.07 42.1 61 42.23 60.9 C 42.44 60.66 42.63 60.4 42.83 60.06 C 43.23 59.4 43.65 58.5 44.03 57.53 C 44.3 56.9 44.5 56.3 44.7 55.67 C 45.43 54.7 46.16 53.6 46.83 53 C 46.97 52.9 46.97 52.83 47.1 52.7 L 46.4 54.36 L 46.4 54.36 C 46.4 54.36 46.37 54.4 46.37 54.4 A .5 .5 0 0 0 47.3 54.76 L 47.3 54.74 C 47.3 54.74 47.3 54.74 47.3 54.74 C 47.3 54.73 48 52.9 49.8 52.2 C 51.1 51.7 51.2 51.7 51.63 51.6 C 51.5 51.93 51.44 52 51.25 52.43 C 51.04 52.9 50.83 53.44 50.7 53.9 C 50.6 54.13 50.55 54.34 50.5 54.54 C 50.5 54.74 50.45 54.9 50.5 55.15 C 50.54 55.24 50.57 55.54 50.7 55.86 C 50.77 56 50.9 56.2 51.06 56.3 C 51.24 56.46 51.5 56.53 51.74 56.5 C 52.23 56.5 52.73 56.23 53.46 55.7 C 54.2 55.15 55.1 54.3 56.4 53.03 A 0.5 0.5 0 0 0 56.4 52.3 A 0.5 0.5 0 0 0 55.67 52.33 C 54.43 53.6 53.5 54.4 52.86 54.9 C 52.2 55.37 51.8 55.5 51.7 55.5 C 51.66 55.5 51.66 55.5 51.65 55.5 C 51.66 55.5 51.64 55.5 51.6 55.46 C 51.6 55.35 51.55 55.13 51.5 54.9 C 51.5 54.94 51.5 54.85 51.5 54.7 C 51.5 54.6 51.57 54.4 51.64 54.2 C 51.77 53.8 51.96 53.3 52.17 52.8 C 52.6 51.86 53 51 53 51 A .5 .5 0 0 0 52.46 50.27 C 52.46 50.27 51.5 50.5 49.46 51.3 C 49.1 51.4 48.86 51.6 48.57 51.8 L 49.6 49.4 L 49.6 49.4 C 49.6 49.4 49.64 49.3 49.64 49.3 A .5 .5 0 0 0 49.06 48.73 A .5 .5 0 0 0 48.7 49.03 L 48.54 49.4 C 48.5 49.5 48.5 49.5 48.3 49.87 C 47.97 50.4 47.34 51.2 46.17 52.25 C 45.86 52.53 45.56 53.06 45.23 53.4 C 45.26 53.24 45.3 53.1 45.2 52.85 C 45.14 52.7 45 52.5 44.84 52.4 C 44.66 52.3 44.47 52.3 44.3 52.3 C 44 52.34 43.75 52.46 43.5 52.6 C 42.94 52.84 42.34 53.14 41.7 53.17 C 41.53 53.2 41.53 53.16 41.46 53 C 41.43 52.9 41.47 52.75 41.46 52.63 C 41.6 52.6 41.66 52.66 41.83 52.63 C 42.7 52.45 43.4 52.2 43.87 51.96 C 44.36 51.7 44.7 51.4 44.85 50.97 C 44.9 50.75 44.9 50.5 44.77 50.3 C 44.66 50.1 44.47 49.94 44.3 49.85 C 43.9 49.67 43.4 49.63 42.84 49.7 C 41.64 49.8 40.9 50.75 40.6 51.7 C 40.5 51.67 40.2 51.7 40.13 51.7 C 39.9 51.63 39.94 51.6 39.9 51.5 C 39.9 51.3 40.1 50.8 40.1 50.8 C 40.1 50.8 40.1 50.8 40.1 50.8 C 40.1 50.8 40.1 50.8 40.1 50.8 A .5 .5 0 0 0 39.24 50.3 L 39.23 50.3 C 39.23 50.3 39.23 50.3 39.23 50.3 L 38 52.34 A 0.5 0.5 0 0 0 38 52.34 C 38 52.34 35.06 52.97 32.2 53.8 C 31.6 54 31.16 54.2 30.6 54.4 C 31 53.44 31.5 52.6 31.7 51.47 C 31.77 51.16 31.93 50.8 32.03 50.47 C 33.74 49.97 35.4 49.4 36.57 48.7 C 37.23 48.3 37.76 47.9 38.05 47.36 C 38.35 46.8 38.33 46.1 37.94 45.54 C 37.4 44.63 36.5 44.16 35.7 44.17 z M 35.8 45.17 C 36.2 45.2 36.63 45.4 37.1 46.1 C 37.34 46.44 37.33 46.6 37.2 46.9 C 37 47.15 36.63 47.5 36.06 47.86 C 35.2 48.37 33.8 48.8 32.43 49.26 C 32.9 48.1 33.44 46.97 34.1 46.2 C 34.64 45.57 35.2 45.2 35.65 45.17 C 35.7 45.17 35.77 45.17 35.8 45.17 z M 43.24 50.67 C 43.5 50.67 43.7 50.7 43.8 50.75 C 43.77 50.8 43.7 50.9 43.4 51.1 C 43.05 51.26 42.5 51.45 41.74 51.6 C 42 51.15 42.37 50.74 42.94 50.7 C 43.05 50.67 43.15 50.67 43.24 50.67 z M 28.8 56.1 C 28.5 56.47 28.24 56.8 28.1 56.86 C 28 56.9 28 56.9 27.95 56.9 C 27.94 56.9 27.9 56.8 27.83 56.76 C 27.84 56.74 27.83 56.74 27.9 56.7 C 28 56.55 28.36 56.34 28.8 56.1 z " fill="currentColor" opacity=".6"/><path class="ColorScheme-Background" d="m 35.7,44.17 c -.05,8.36e-4 -.1,0 -.16,0 -.85,.1 -1.6,.64 -2.2,1.37 -.94,1.1 -1.6,2.64 -2.1,4.17 -.04,0 -.07,.03 -.1,.04 -3.87,1.1 -8.06,1.74 -8.06,1.74 a 0.5,0.5 0 0 0 -.4,.57 0.5,0.5 0 0 0 .57,.4 c 0,0 3.95,-.67 7.66,-1.65 -.03,.15 -.1,.3 -.14,.44 -.27,1.4 -.8,2.5 -1.34,3.56 -.3,.1 -.73,.23 -1,.36 -.5,.25 -.9,.5 -1.2,.8 -.15,.15 -.3,.3 -.34,.55 -.06,.23 -0,.5 .1,.7 .17,.27 .4,.5 .7,.6 .3,.1 .6,.05 .87,-.06 .5,-.23 .9,-.7 1.3,-1.3 .13,-.2 .2,-.6 .3,-.83 .76,-.3 1.46,-.6 2.36,-.85 1.9,-.56 3.76,-1 4.83,-1.25 l -1.3,2.2 a 0.5,0.5 0 0 0 .17,.7 0.5,0.5 0 0 0 .7,-.2 l 2.45,-4.13 c .15,.2 .2,.45 .5,.54 .17,.06 .5,-0 .7,-0 0,.25 -.07,.5 .03,.74 .2,.45 .7,.8 1.24,.8 .9,-.05 1.6,-.44 2.1,-.7 .2,-.1 .3,-.1 .4,-.15 -0,.03 -0,.03 -.03,.2 -.04,.24 -.1,.6 -.23,.96 -.06,.2 -.17,.47 -.24,.7 -.5,.65 -1.04,1.14 -1.45,1.8 -.54,.86 -1,1.66 -1.24,2.3 -.13,.33 -.2,.6 -.25,.9 -0,.14 -0,.3 .04,.44 .05,.16 .16,.33 .33,.43 .2,.1 .45,.1 .6,.04 .17,-.06 .3,-.16 .4,-.26 .2,-.2 .4,-.5 .6,-.8 .4,-.67 .8,-1.6 1.2,-2.53 .26,-.64 .45,-1.25 .65,-1.86 .75,-.97 1.5,-2.07 2.15,-2.67 .14,-.1 .13,-.2 .26,-.3 l -.7,1.65 0,0 c -8.6e-5,2.26e-4 -0,0 -0,0 a .5,.5 0 0 0 .93,.4 l 0,-0 c 0,0 0,-0 0,-0 0,-0 .7,-1.8 2.5,-2.5 1.27,-.5 1.4,-.5 1.8,-.6 -.15,.33 -.2,.4 -.4,.8 -.2,.5 -.4,1 -.57,1.47 -.07,.23 -.13,.44 -.17,.64 -.04,.2 -.07,.37 -0,.6 .03,.1 .05,.4 .2,.7 .07,.16 .17,.33 .36,.47 .2,.14 .44,.2 .7,.2 .5,-.03 1,-.3 1.7,-.83 .7,-.54 1.67,-1.4 2.93,-2.66 a 0.5,0.5 0 0 0 -0,-.7 0.5,0.5 0 0 0 -.7,0 c -1.24,1.26 -2.15,2.07 -2.8,2.56 -.66,.5 -1.06,.6 -1.2,.63 -0,0 -.03,0 -.03,0 0,0 -0,-0 -.03,-.06 -.05,-.1 -.07,-.33 -.14,-.6 0,.06 -0,-.03 0,-.16 0,-.13 .07,-.3 .14,-.5 .13,-.4 .33,-.9 .53,-1.4 .4,-.96 .85,-1.84 .85,-1.84 a .5,.5 0 0 0 -.55,-.7 c 0,0 -.96,.2 -3,1 -.35,.14 -.6,.34 -.9,.53 l 1.04,-2.4 -0,-0 c 0,-0 .05,-.1 .05,-.1 a .5,.5 0 0 0 -.6,-.6 .5,.5 0 0 0 -.36,.3 l -.16,.36 c -.03,.1 -0,.13 -.23,.5 -.33,.54 -.96,1.35 -2.13,2.4 -.3,.3 -.6,.8 -.94,1.16 0,-.17 .1,-.34 -0,-.56 -.1,-.17 -.2,-.33 -.4,-.43 -.17,-.1 -.37,-.1 -.53,-.1 -.3,.03 -.56,.15 -.83,.27 -.54,.25 -1.14,.55 -1.75,.6 -.2,0 -.2,-0 -.26,-.17 -.03,-.07 0,-.24 -0,-.37 .15,-0 .2,.03 .37,-0 .9,-.2 1.55,-.4 2.04,-.67 .5,-.26 .84,-.55 .97,-1 .07,-.2 .04,-.5 -.07,-.7 -.1,-.2 -.3,-.34 -.5,-.43 -.4,-.2 -.86,-.2 -1.45,-.16 -1.2,.1 -1.9,1.06 -2.2,2 -.1,-0 -.4,.04 -.5,0 -.2,-.07 -.2,-.1 -.2,-.2 -.04,-.2 .2,-.7 .2,-.7 0,0 0,-0 0,-0 0,0 0,-0 0,-0 a .5,.5 0 0 0 -.86,-.5 l -0,0 c 0,0 0,0 0,0 L 38,52.34 a 0.5,0.5 0 0 0 -0,0 c 0,0 -2.96,.63 -5.8,1.5 -.6,.2 -1.05,.4 -1.6,.6 .4,-.96 .9,-1.8 1.1,-2.93 .06,-.3 .23,-.67 .33,-1 1.7,-.5 3.4,-1.06 4.54,-1.75 .66,-.4 1.2,-.8 1.5,-1.37 .3,-.54 .3,-1.24 -.1,-1.8 -.64,-.9 -1.43,-1.4 -2.2,-1.4 z m .1,1 c .4,0 .8,.25 1.3,.95 .2,.3 .2,.5 .06,.76 -.15,.3 -.54,.64 -1.1,1 -.85,.5 -2.27,.95 -3.63,1.4 .46,-1.16 1,-2.3 1.67,-3.05 .54,-.63 1.1,-1 1.55,-1.03 .06,-0 .1,-0 .17,-0 z m 7.4,5.5 c .27,6.23e-4 .46,.05 .56,.1 -.04,.05 -.1,.16 -.4,.3 -.35,.2 -.9,.4 -1.65,.53 .26,-.46 .63,-.87 1.2,-.93 .1,-0 0.21,-0 .3,-0 z M 28.8,56.1 c -.26,.34 -.55,.67 -.7,.74 -.1,.04 -.1,.03 -.14,.03 -0,-0 -.07,-.06 -.13,-.13 0,-0 0,-0 .05,-.07 .14,-.14 .5,-.35 .9,-.56 z" fill="currentColor" opacity=".6"/><path class="ColorScheme-Background" d="M 44.43 2.7 C 44.1 2.73 43.8 2.9 43.63 3.2 L 42.13 5.8 L 41.27 5.3 C 40.3 4.75 39.1 5.1 38.54 6.04 L 28.54 23.36 C 28 24.3 28.3 25.54 29.27 26.1 L 32.73 28.1 C 33.7 28.65 34.9 28.3 35.46 27.36 L 42.9 14.44 C 43.3 15.93 43.3 17.77 42.2 19.7 L 33.2 35.3 A 1 1 0 0 0 33.56 36.65 A 1 1 0 0 0 34.93 36.3 L 43.93 20.7 C 45.8 17.43 45.14 14.3 44.2 12.2 L 45.46 10.04 C 46 9.1 45.7 7.86 44.73 7.3 L 43.87 6.8 L 45.37 4.2 C 45.64 3.73 45.5 3.1 45 2.84 C 44.8 2.74 44.6 2.7 44.43 2.7 z M 44.56 3.2 C 44.6 3.2 44.7 3.24 44.75 3.3 C 45 3.4 45.1 3.7 44.93 3.96 L 43.2 7 L 44.5 7.74 C 45.2 8.16 45.45 9.06 45.03 9.8 L 43.65 12.2 L 43.75 12.4 C 44.65 14.43 45.3 17.34 43.5 20.45 L 34.5 36.04 C 34.36 36.3 34.06 36.36 33.8 36.2 C 33.57 36.1 33.5 35.8 33.63 35.54 L 42.63 19.95 C 43.8 18 43.8 15.9 43.4 14.3 L 43.1 13.13 L 35.03 27.1 C 34.6 27.84 33.7 28.1 33 27.66 L 29.5 25.66 C 28.8 25.24 28.55 24.34 28.97 23.6 L 38.97 6.3 C 39.4 5.56 40.3 5.3 41 5.74 L 42.3 6.5 L 44.07 3.46 C 44.17 3.27 44.37 3.2 44.56 3.2 z M 26.54 26.8 L 16.54 44.14 C 12.54 51.07 12 60 12 60 C 12 60 19.46 55.07 23.46 48.14 L 33.46 30.8 L 26.54 26.8 z M 26.7 27.5 L 32.8 31 L 23.03 47.9 C 19.56 53.9 14.04 57.9 12.67 58.84 C 12.8 57.2 13.5 50.4 16.97 44.4 L 26.7 27.5 z " fill="currentColor" opacity=".6"/></g><use href="#uDm" opacity=".4"></use><use class="toggle-flat-design" fill="url(#uDk)" href="#uDm" opacity=".2"></use><path class="toggle-flat-design" d="m 54,32 c -6,0 -6,4 -14,4 H 14 c -3.3,0 -6,2.7 -6,6 v 64 c 0,3.3 2.7,6 6,6 h 100 c 3.3,0 6,-2.7 6,-6 V 52 42 38 c 0,-3.3 -2.7,-6 -6,-6 z" fill="url(#uDj)" opacity=".2"/><path class="folder-crease " d="m 8,88 v 4 h 18 c 1.1,0 2,-.9 2,-2 0,-1.1 -.9,-2 -2,-2 z m 94,0 c -1.1,0 -2,.9 -2,2 0,1.1 .9,2 2,2 h 18 v -4 z" opacity=".4"/><path class="ColorScheme-Text" d="m 8,105 v 1 c 0,3.3 2.7,6 6,6 h 100 c 3.3,0 6,-2.7 6,-6 v -1 c 0,3.3 -2.7,6 -6,6 H 14 c -3.3,0 -6,-2.7 -6,-6 z" fill="currentColor" opacity=".1"/><path class="ColorScheme-Text" d="m 8,105.5 v 0.5 c 0,3.3 2.7,6 6,6 h 100 c 3.3,0 6,-2.7 6,-6 v -0.5 c 0,3.3 -2.7,6 -6,6 H 14 c -3.3,0 -6,-2.7 -6,-6 z" fill="currentColor" opacity=".2"/><path d="m 54,32 c -6,0 -6,4 -14,4 H 14 c -3.3,0 -6,2.7 -6,6 v 1 c 0,-3.3 2.7,-6 6,-6 h 26 c 8,0 8,-4 14,-4 h 60 c 3.3,0 6,2.7 6,6 v -1 c 0,-3.3 -2.7,-6 -6,-6 z" fill="#fff" opacity=".1"/><path d="m 54,32 c -6,0 -6,4 -14,4 H 14 c -3.3,0 -6,2.7 -6,6 v 0.5 c 0,-3.3 2.7,-6 6,-6 h 26 c 8,0 8,-4 14,-4 h 60 c 3.3,0 6,2.7 6,6 V 38 c 0,-3.3 -2.7,-6 -6,-6 z" fill="#fff" opacity=".2"/><path d="m 54,31 c -6,0 -6,4 -14,4 H 14 v 1 h 26 c 8,0 8,-4 14,-4 h 60 v -1 z" opacity=".1"/><path d="m 54,31.5 c -6,0 -6,4 -14,4 H 14 V 36 h 26 c 8,0 8,-4 14,-4 h 60 v -0.5 z" opacity=".2"/></g>
</svg>