<svg height="128" version="1.1" width="128" xmlns="http://www.w3.org/2000/svg" xmlns:svg="http://www.w3.org/2000/svg" xmlns:xlink="http://www.w3.org/1999/xlink">
<defs id="primary-definitions">
<style id="current-color-scheme" type="text/css">
      .ColorScheme-Text         { color: #232629; }
      .ColorScheme-Background   { color: #eff0f1; }
      .ColorScheme-Highlight    { color: #7ec9f0; }
      .ColorScheme-PositiveText { color: #27ae60; }
      .ColorScheme-NeutralText  { color: #f67400; }
      .ColorScheme-NegativeText { color: #da4453; }
      .ColorScheme-ActiveText   { color: #3daee9; }
      .ColorScheme-Complement   { color: #ffffff; }
      .ColorScheme-Contrast     { color: #000000; }
    </style>
<style id="extended-color-scheme" type="text/css">
      .ExScheme-Black     { color:#3e3e3e; }
      .ExScheme-White     { color:#fcfcfc; }
      .ExScheme-Grey-1    { color:#cfd5d5; }
      .ExScheme-Grey-2    { color:#909c9c; }
      .ExScheme-Grey-3    { color:#536161; }
      .ExScheme-Red-1     { color:#ffafa5; }
      .ExScheme-Red-2     { color:#bf4231; }
      .ExScheme-Red-3     { color:#4d2f2b; }
      .ExScheme-Green-1   { color:#abf9c7; }
      .ExScheme-Green-2   { color:#3bb566; }
      .ExScheme-Green-3   { color:#377d50; }
      .ExScheme-Blue-1    { color:#abdaf9; }
      .ExScheme-Blue-2    { color:#3daefd; }
      .ExScheme-Blue-3    { color:#2b3c4d; }
      .ExScheme-Yellow-1  { color:#faffa5; }
      .ExScheme-Yellow-2  { color:#cac726; }
      .ExScheme-Yellow-3  { color:#4b4d2b; }
      .ExScheme-Orange-1  { color:#ffdaa5; }
      .ExScheme-Orange-2  { color:#ff9701; }
      .ExScheme-Orange-3  { color:#4d372b; }
      .ExScheme-Brown-1   { color:#e9d6bb; }
      .ExScheme-Brown-2   { color:#997657; }
      .ExScheme-Brown-3   { color:#433a35; }
      .ExScheme-Purple-1  { color:#e2abf9; }
      .ExScheme-Purple-2  { color:#b401ff; }
      .ExScheme-Purple-3  { color:#432b4d; }
      .ExScheme-Cyan-1    { color:#b2f2e6; }
      .ExScheme-Cyan-2    { color:#31bfa6; }
      .ExScheme-Cyan-3    { color:#2b4d47; }
      .ExScheme-Magenta-1 { color:#f8a6d8; }
      .ExScheme-Magenta-2 { color:#f00091; }
      .ExScheme-Magenta-3 { color:#770048; }
    </style>
<linearGradient id="uyM">
<stop offset="0"/>
<stop offset="1" stop-opacity="0"/>
</linearGradient>
<linearGradient id="uyN">
<stop offset="0" stop-color="#fff"/>
<stop offset="1" stop-color="#fff" stop-opacity="0"/>
</linearGradient>
<style id="uyO" type="text/css">
        .force-display-for-editing { display: inline !important; }
    </style><style class="remove-if__show-crease" type="text/css">
        .enable-if__show-crease { display: none; }
    </style><style class="remove-if__color-sync-mimes-places" type="text/css">
        .enable-if__color-sync-mimes-places { display: none; }
    </style><radialGradient cx=".5" cy="0" id="uyP" r="1" xlink:href="#uyN"/><linearGradient id="uyQ" xlink:href="#uyM" y1="1" y2=".5"/><style class="ColorScheme-Background" fill="currentColor" opacity=".6" type="text/css">
   .ColorScheme-Text           { color:#eff0f1; }
      .ColorScheme-Background     { color:#31363b; }
      .ColorScheme-Highlight      { color:#3daefd; }
      .ColorScheme-ViewBackground { color:#fcfcfc; }
      .ColorScheme-PositiveText   { color:#27ae60; }
      .ColorScheme-NeutralText    { color:#f67400; }
      .ColorScheme-NegativeText   { color:#da4453; }
  </style><path d="m 20,16 c -3.3,0 -6,2.7 -6,6 v 14 c -3.3,0 -6,2.7 -6,6 v 64 c 0,3.3 2.7,6 6,6 h 100 c 3.3,0 6,-2.7 6,-6 V 52 42 38 c 0,-3.3 -2.7,-6 -6,-6 v -6 c 0,-3.3 -2.7,-6 -6,-6 H 56 c -8,0 -8,-4 -14,-4 z" id="uyR"></path><path d="m 20,16 c -3.3,0 -6,2.7 -6,6 v 14 h 26 c 8,0 8,-4 14,-4 h 60 v -6 c 0,-3.3 -2.7,-6 -6,-6 H 56 c -8,0 -8,-4 -14,-4 z" id="uyS"></path></defs>
<g id="content" transform="translate(0,0)"><use class="sync-color enable-if__color-sync-mimes-places force-display-for-editing ColorScheme-ActiveText" fill="currentColor" href="#uyR"></use><use class="primary-color remove-if__color-sync-mimes-places ColorScheme-ActiveText ExScheme-Grey-1" fill="currentColor" href="#uyR"></use><use class="ColorScheme-Contrast" fill="currentColor" href="#uyR" opacity=".1"></use><g id="decal" transform="translate(32,42)"><path class="ExScheme-Grey-3" d="M 8,4 C 5.8,4 4,5.8 4,8 v 48 c 0,2.2 1.8,4 4,4 h 48 c 2.2,0 4,-1.8 4,-4 V 8 C 60,5.8 58.2,4 56,4 Z M 32.66,5 H 56 c 1.66,0 3,1.34 3,3 v 48 c 0,1.66 -1.34,3 -3,3 H 37.45 C 36.9,55.9 36.53,52.76 36.3,49.7 34.97,49.9 33.54,50 32,50 26.5,50 22.36,48.7 19.6,47.4 16.8,46.1 15.3,44.73 15.3,44.73 14.9,44.35 14.9,43.7 15.27,43.3 15.45,43.1 15.7,43 15.97,43 c .27,-0 .5,.1 .7,.27 0,0 1.2,1.13 3.74,2.3 C 22.97,46.8 26.8,48 32,48 33.5,48 34.9,47.9 36.15,47.7 35.6,39.1 36,32 36,32 h -8 c 0,0 -.9,-14.7 4.66,-27 z m 3.5,42.7 c .04,.66 .1,1.33 .14,2 3.4,-.45 6.13,-1.4 8.13,-2.3 2.8,-1.3 4.26,-2.7 4.26,-2.7 .4,-.4 .4,-1 .05,-1.4 -.24,-.26 -.6,-.37 -.96,-.3 -.17,.04 -.33,.1 -.46,.24 0,0 -1.2,1.13 -3.74,2.3 -1.8,.85 -4.3,1.7 -7.43,2.13 z M 17,20 c .55,0 1,.45 1,1 v 4 c 0,.55 -.45,1 -1,1 -.55,0 -1,-.45 -1,-1 v -4 c 0,-.55 .45,-1 1,-1 z m 30,0 c -.55,0 -1,.45 -1,1 v 4 c 0,.55 .45,1 1,1 .55,0 1,-.45 1,-1 v -4 c 0,-.55 -.45,-1 -1,-1 z" fill="currentColor" opacity=".6"/><path class="ExScheme-Grey-3" d="M 8,4 C 5.8,4 4,5.8 4,8 v 48 c 0,2.2 1.8,4 4,4 h 48 c 2.2,0 4,-1.8 4,-4 V 8 C 60,5.8 58.2,4 56,4 Z M 8,4.5 H 32.4 C 26.6,17 27.5,32.03 27.5,32.03 27.5,32.3 27.73,32.5 28,32.5 h 7.5 c -.04,.73 -.3,6.83 .16,14.76 C 34.5,47.4 33.3,47.5 32,47.5 c -5.2,0 -8.87,-1.2 -11.36,-2.36 -2.5,-1.17 -3.6,-2.23 -3.6,-2.23 -6.65e-4,-6.69e-4 -0,-0 -0,-0 C 16.74,42.63 16.35,42.5 15.95,42.5 h -0 c -.4,0 -.77,.2 -1.04,.47 -.56,.6 -.53,1.56 .07,2.1 6.65e-4,6.69e-4 0,0 0,0 0,0 1.54,1.43 4.4,2.76 C 22.2,49.2 26.43,50.5 32,50.5 c 1.4,0 2.65,-.1 3.86,-0.25 .25,3.04 .63,6.2 1.2,9.25 H 8 C 6.05,59.5 4.5,57.95 4.5,56 V 8 C 4.5,6.05 6.05,4.5 8,4.5 Z M 32.66,5 H 56 c 1.66,0 3,1.34 3,3 v 48 c 0,1.66 -1.34,3 -3,3 H 37.45 C 36.9,55.9 36.53,52.76 36.3,49.7 34.97,49.9 33.54,50 32,50 26.5,50 22.36,48.7 19.6,47.4 16.8,46.1 15.3,44.73 15.3,44.73 14.9,44.35 14.9,43.7 15.27,43.3 15.45,43.1 15.7,43 15.97,43 c .27,-0 .5,.1 .7,.27 0,0 1.2,1.13 3.74,2.3 C 22.97,46.8 26.8,48 32,48 33.5,48 34.9,47.9 36.15,47.7 35.6,39.1 36,32 36,32 h -8 c 0,0 -.9,-14.7 4.66,-27 z m 3.5,42.7 c .04,.66 .1,1.33 .14,2 3.4,-.45 6.13,-1.4 8.13,-2.3 2.8,-1.3 4.26,-2.7 4.26,-2.7 .4,-.4 .4,-1 .05,-1.4 -.24,-.26 -.6,-.37 -.96,-.3 -.17,.04 -.33,.1 -.46,.24 0,0 -1.2,1.13 -3.74,2.3 -1.8,.85 -4.3,1.7 -7.43,2.13 z M 17,19.5 c -.8,0 -1.5,.7 -1.5,1.5 v 4 c 0,.8 .7,1.5 1.5,1.5 .8,0 1.5,-.7 1.5,-1.5 v -4 c 0,-.8 -.7,-1.5 -1.5,-1.5 z m 0,0.5 c .55,0 1,.45 1,1 v 4 c 0,.55 -.45,1 -1,1 -.55,0 -1,-.45 -1,-1 v -4 c 0,-.55 .45,-1 1,-1 z m 30,0 c -.55,0 -1,.45 -1,1 v 4 c 0,.55 .45,1 1,1 .55,0 1,-.45 1,-1 v -4 c 0,-.55 -.45,-1 -1,-1 z m 0,0.5 c .3,0 0.5,.2 0.5,0.5 v 4 c 0,.3 -.2,0.5 -0.5,0.5 -.3,0 -0.5,-.2 -0.5,-0.5 v -4 c 0,-.3 .2,-0.5 0.5,-0.5 z m .9,23 c .17,-.04 .36,0 .5,.15 .2,.2 .2,.5 -0,.7 -0,0 -1.4,1.3 -4.13,2.6 -1.85,.87 -4.37,1.7 -7.46,2.16 -.03,-.33 -.05,-.66 -.07,-1 2.95,-.45 5.35,-1.25 7.1,-2.07 2.6,-1.2 3.87,-2.4 3.87,-2.4 l 0,-0 c .06,-.06 .14,-.1 .23,-.1 z" fill="currentColor" opacity=".6"/></g><use href="#uyS" opacity=".4"></use><use fill="url(#uyQ)" href="#uyS" opacity=".2"></use><path d="m 54,32 c -6,0 -6,4 -14,4 H 14 c -3.3,0 -6,2.7 -6,6 v 64 c 0,3.3 2.7,6 6,6 h 100 c 3.3,0 6,-2.7 6,-6 V 52 42 38 c 0,-3.3 -2.7,-6 -6,-6 z" fill="url(#uyP)" opacity=".2"/><path class="ColorScheme-Contrast" d="m 8,105 v 1 c 0,3.3 2.7,6 6,6 h 100 c 3.3,0 6,-2.7 6,-6 v -1 c 0,3.3 -2.7,6 -6,6 H 14 c -3.3,0 -6,-2.7 -6,-6 z" fill="currentColor" opacity=".1"/><path class="ColorScheme-Contrast" d="m 8,105.5 v 0.5 c 0,3.3 2.7,6 6,6 h 100 c 3.3,0 6,-2.7 6,-6 v -0.5 c 0,3.3 -2.7,6 -6,6 H 14 c -3.3,0 -6,-2.7 -6,-6 z" fill="currentColor" opacity=".2"/><path d="m 54,32 c -6,0 -6,4 -14,4 H 14 c -3.3,0 -6,2.7 -6,6 v 1 c 0,-3.3 2.7,-6 6,-6 h 26 c 8,0 8,-4 14,-4 h 60 c 3.3,0 6,2.7 6,6 v -1 c 0,-3.3 -2.7,-6 -6,-6 z" fill="#fff" opacity=".1"/><path d="m 54,32 c -6,0 -6,4 -14,4 H 14 c -3.3,0 -6,2.7 -6,6 v 0.5 c 0,-3.3 2.7,-6 6,-6 h 26 c 8,0 8,-4 14,-4 h 60 c 3.3,0 6,2.7 6,6 V 38 c 0,-3.3 -2.7,-6 -6,-6 z" fill="#fff" opacity=".2"/><path d="m 54,31 c -6,0 -6,4 -14,4 H 14 v 1 h 26 c 8,0 8,-4 14,-4 h 60 v -1 z" opacity=".1"/><path d="m 54,31.5 c -6,0 -6,4 -14,4 H 14 V 36 h 26 c 8,0 8,-4 14,-4 h 60 v -0.5 z" opacity=".2"/></g>
</svg>