<svg height="128" version="1.1" width="128" xmlns="http://www.w3.org/2000/svg" xmlns:svg="http://www.w3.org/2000/svg" xmlns:xlink="http://www.w3.org/1999/xlink">
<defs id="primary-definitions">
<style id="current-color-scheme" type="text/css">
      .ColorScheme-Text           { color:#fff; }
      .ColorScheme-Background     { color:#111; }
      .ColorScheme-Highlight      { color:#3daefd; }
      .ColorScheme-ViewBackground { color:#000; }
      .ColorScheme-PositiveText   { color:#27ae60; }
      .ColorScheme-NeutralText    { color:#f67400; }
      .ColorScheme-NegativeText   { color:#da4453; }
    </style>
<style id="extended-color-scheme" type="text/css">
      .ExScheme-Black     { color:#3e3e3e; }
      .ExScheme-White     { color:#fcfcfc; }
      .ExScheme-Grey-1    { color:#cfd5d5; }
      .ExScheme-Grey-2    { color:#909c9c; }
      .ExScheme-Grey-3    { color:#536161; }
      .ExScheme-Red-1     { color:#ffafa5; }
      .ExScheme-Red-2     { color:#bf4231; }
      .ExScheme-Red-3     { color:#4d2f2b; }
      .ExScheme-Green-1   { color:#abf9c7; }
      .ExScheme-Green-2   { color:#3bb566; }
      .ExScheme-Green-3   { color:#377d50; }
      .ExScheme-Blue-1    { color:#abdaf9; }
      .ExScheme-Blue-2    { color:#3daefd; }
      .ExScheme-Blue-3    { color:#2b3c4d; }
      .ExScheme-Yellow-1  { color:#faffa5; }
      .ExScheme-Yellow-2  { color:#cac726; }
      .ExScheme-Yellow-3  { color:#4b4d2b; }
      .ExScheme-Orange-1  { color:#ffdaa5; }
      .ExScheme-Orange-2  { color:#ff9701; }
      .ExScheme-Orange-3  { color:#4d372b; }
      .ExScheme-Brown-1   { color:#e9d6bb; }
      .ExScheme-Brown-2   { color:#997657; }
      .ExScheme-Brown-3   { color:#433a35; }
      .ExScheme-Purple-1  { color:#e2abf9; }
      .ExScheme-Purple-2  { color:#b401ff; }
      .ExScheme-Purple-3  { color:#432b4d; }
      .ExScheme-Cyan-1    { color:#b2f2e6; }
      .ExScheme-Cyan-2    { color:#31bfa6; }
      .ExScheme-Cyan-3    { color:#2b4d47; }
      .ExScheme-Magenta-1 { color:#f8a6d8; }
      .ExScheme-Magenta-2 { color:#f00091; }
      .ExScheme-Magenta-3 { color:#770048; }
    </style>
<linearGradient id="unR">
<stop offset="0"/>
<stop offset="1" stop-opacity="0"/>
</linearGradient>
<linearGradient id="unS">
<stop offset="0" stop-color="#fff"/>
<stop offset="1" stop-color="#fff" stop-opacity="0"/>
</linearGradient>
<style class="toggle-enable-crease" type="text/css">
        .folder-crease { display: none; }
    </style><style class="toggle-manilla-folders" type="text/css">
        .folder-manilla { display: none; }
    </style><radialGradient cx=".5" cy="0" id="unT" r="1" xlink:href="#unS"/><linearGradient id="unU" xlink:href="#unR" y1="1" y2=".5"/><path d="m 20,16 c -3.3,0 -6,2.7 -6,6 v 14 c -3.3,0 -6,2.7 -6,6 v 64 c 0,3.3 2.7,6 6,6 h 100 c 3.3,0 6,-2.7 6,-6 V 52 42 38 c 0,-3.3 -2.7,-6 -6,-6 v -6 c 0,-3.3 -2.7,-6 -6,-6 H 56 c -8,0 -8,-4 -14,-4 z" id="unV"></path><path d="m 20,16 c -3.3,0 -6,2.7 -6,6 v 14 h 26 c 8,0 8,-4 14,-4 h 60 v -6 c 0,-3.3 -2.7,-6 -6,-6 H 56 c -8,0 -8,-4 -14,-4 z" id="unW"></path></defs>
<g id="content" transform="translate(0,0)"><use class="folder-manilla ExScheme-Brown-1" fill="currentColor" href="#unV"></use><use class="toggle-manilla-folders ColorScheme-Highlight" fill="currentColor" href="#unV" id="primary-color"></use><use class="ColorScheme-Text" fill="currentColor" href="#unV" opacity=".1"></use><g id="emblem" transform="translate(32,42)"><path class="ColorScheme-Background" d="m 32.2,4 a 2,2 0 0 0 -.7,.06 2,2 0 0 0 -.9,.5 l -4.6,4.6 4.97,4.97 A 4,4 0 0 1 32,14 a 4,4 0 0 1 4,4 4,4 0 0 1 -.14,1.03 l 9.1,9.1 a 4,4 0 0 1 1.03,-.14 4,4 0 0 1 4,4 4,4 0 0 1 -4,4 4,4 0 0 1 -4,-4 4,4 0 0 1 .14,-1.03 L 34,22.83 V 42.54 A 4,4 0 0 1 36,46 4,4 0 0 1 32,50 4,4 0 0 1 28,46 4,4 0 0 1 30,42.55 V 21.45 a 4,4 0 0 1 -2,-3.45 4,4 0 0 1 .14,-1.03 L 23.17,12 4.6,30.6 a 2,2 0 0 0 0,2.83 l 26,26 a 2,2 0 0 0 2.83,0 l 26,-26 a 2,2 0 0 0 0,-2.83 L 33.4,4.6 A 2,2 0 0 0 32.2,4 Z" fill="currentColor" opacity=".6"/><path class="ColorScheme-Background" d="M 32.2 4 A 2 2 0 0 0 31.5 4.07 A 2 2 0 0 0 30.6 4.6 L 26 9.17 L 30.97 14.14 A 4 4 0 0 1 32 14 A 4 4 0 0 1 36 18 A 4 4 0 0 1 35.86 19.03 L 44.97 28.14 A 4 4 0 0 1 46 28 A 4 4 0 0 1 50 32 A 4 4 0 0 1 46 36 A 4 4 0 0 1 42 32 A 4 4 0 0 1 42.14 30.97 L 34 22.83 L 34 42.54 A 4 4 0 0 1 36 46 A 4 4 0 0 1 32 50 A 4 4 0 0 1 28 46 A 4 4 0 0 1 30 42.55 L 30 21.45 A 4 4 0 0 1 28 18 A 4 4 0 0 1 28.14 16.97 L 23.17 12 L 4.6 30.6 A 2 2 0 0 0 4.6 33.4 L 30.6 59.4 A 2 2 0 0 0 33.4 59.4 L 59.4 33.4 A 2 2 0 0 0 59.4 30.6 L 33.4 4.6 A 2 2 0 0 0 32.2 4 z M 31.87 4.5 C 31.96 4.5 32.04 4.5 32.13 4.5 L 32.13 4.5 C 32.5 4.54 32.8 4.7 33.06 4.94 L 59.06 30.94 C 59.65 31.53 59.65 32.47 59.06 33.06 L 33.06 59.06 C 32.47 59.65 31.53 59.65 30.94 59.06 L 4.94 33.06 C 4.35 32.47 4.35 31.53 4.94 30.94 L 23.17 12.7 L 27.6 17.15 C 27.56 17.43 27.5 17.7 27.5 18 A .5 .5 0 0 0 27.5 18 C 27.5 19.5 28.3 20.8 29.5 21.64 L 29.5 42.36 C 28.3 43.2 27.5 44.5 27.5 46 A .5 .5 0 0 0 27.5 46 C 27.5 48.5 29.5 50.5 32 50.5 C 34.5 50.5 36.5 48.5 36.5 46 C 36.5 44.5 35.7 43.2 34.5 42.36 L 34.5 24.04 L 41.6 31.15 C 41.56 31.43 41.5 31.7 41.5 32 A .5 .5 0 0 0 41.5 32 C 41.5 34.5 43.5 36.5 46 36.5 C 48.5 36.5 50.5 34.5 50.5 32 C 50.5 29.5 48.5 27.5 46 27.5 A .5 .5 0 0 0 46 27.5 C 45.7 27.5 45.43 27.56 45.15 27.6 L 36.4 18.85 C 36.44 18.57 36.5 18.3 36.5 18 A .5 .5 0 0 0 36.5 18 C 36.5 15.5 34.5 13.5 32 13.5 A .5 .5 0 0 0 32 13.5 C 31.7 13.5 31.43 13.56 31.15 13.6 L 26.7 9.17 L 30.94 4.94 C 31.13 4.75 31.36 4.6 31.6 4.55 A .5 .5 0 0 0 31.6 4.55 C 31.7 4.53 31.8 4.5 31.87 4.5 z " fill="currentColor" opacity=".6"/></g><use href="#unW" opacity=".4"></use><use class="toggle-flat-design" fill="url(#unU)" href="#unW" opacity=".2"></use><path class="toggle-flat-design" d="m 54,32 c -6,0 -6,4 -14,4 H 14 c -3.3,0 -6,2.7 -6,6 v 64 c 0,3.3 2.7,6 6,6 h 100 c 3.3,0 6,-2.7 6,-6 V 52 42 38 c 0,-3.3 -2.7,-6 -6,-6 z" fill="url(#unT)" opacity=".2"/><path class="folder-crease " d="m 8,88 v 4 h 18 c 1.1,0 2,-.9 2,-2 0,-1.1 -.9,-2 -2,-2 z m 94,0 c -1.1,0 -2,.9 -2,2 0,1.1 .9,2 2,2 h 18 v -4 z" opacity=".4"/><path class="ColorScheme-Text" d="m 8,105 v 1 c 0,3.3 2.7,6 6,6 h 100 c 3.3,0 6,-2.7 6,-6 v -1 c 0,3.3 -2.7,6 -6,6 H 14 c -3.3,0 -6,-2.7 -6,-6 z" fill="currentColor" opacity=".1"/><path class="ColorScheme-Text" d="m 8,105.5 v 0.5 c 0,3.3 2.7,6 6,6 h 100 c 3.3,0 6,-2.7 6,-6 v -0.5 c 0,3.3 -2.7,6 -6,6 H 14 c -3.3,0 -6,-2.7 -6,-6 z" fill="currentColor" opacity=".2"/><path d="m 54,32 c -6,0 -6,4 -14,4 H 14 c -3.3,0 -6,2.7 -6,6 v 1 c 0,-3.3 2.7,-6 6,-6 h 26 c 8,0 8,-4 14,-4 h 60 c 3.3,0 6,2.7 6,6 v -1 c 0,-3.3 -2.7,-6 -6,-6 z" fill="#fff" opacity=".1"/><path d="m 54,32 c -6,0 -6,4 -14,4 H 14 c -3.3,0 -6,2.7 -6,6 v 0.5 c 0,-3.3 2.7,-6 6,-6 h 26 c 8,0 8,-4 14,-4 h 60 c 3.3,0 6,2.7 6,6 V 38 c 0,-3.3 -2.7,-6 -6,-6 z" fill="#fff" opacity=".2"/><path d="m 54,31 c -6,0 -6,4 -14,4 H 14 v 1 h 26 c 8,0 8,-4 14,-4 h 60 v -1 z" opacity=".1"/><path d="m 54,31.5 c -6,0 -6,4 -14,4 H 14 V 36 h 26 c 8,0 8,-4 14,-4 h 60 v -0.5 z" opacity=".2"/></g>
</svg>