<svg height="128" version="1.1" width="128" xmlns="http://www.w3.org/2000/svg" xmlns:svg="http://www.w3.org/2000/svg" xmlns:xlink="http://www.w3.org/1999/xlink">
<defs id="primary-definitions">
<style id="current-color-scheme" type="text/css">
      .ColorScheme-Text           { color:#fff; }
      .ColorScheme-Background     { color:#111; }
      .ColorScheme-Highlight      { color:#3daefd; }
      .ColorScheme-ViewBackground { color:#000; }
      .ColorScheme-PositiveText   { color:#27ae60; }
      .ColorScheme-NeutralText    { color:#f67400; }
      .ColorScheme-NegativeText   { color:#da4453; }
    </style>
<style id="extended-color-scheme" type="text/css">
      .ExScheme-Black     { color:#3e3e3e; }
      .ExScheme-White     { color:#fcfcfc; }
      .ExScheme-Grey-1    { color:#cfd5d5; }
      .ExScheme-Grey-2    { color:#909c9c; }
      .ExScheme-Grey-3    { color:#536161; }
      .ExScheme-Red-1     { color:#ffafa5; }
      .ExScheme-Red-2     { color:#bf4231; }
      .ExScheme-Red-3     { color:#4d2f2b; }
      .ExScheme-Green-1   { color:#abf9c7; }
      .ExScheme-Green-2   { color:#3bb566; }
      .ExScheme-Green-3   { color:#377d50; }
      .ExScheme-Blue-1    { color:#abdaf9; }
      .ExScheme-Blue-2    { color:#3daefd; }
      .ExScheme-Blue-3    { color:#2b3c4d; }
      .ExScheme-Yellow-1  { color:#faffa5; }
      .ExScheme-Yellow-2  { color:#cac726; }
      .ExScheme-Yellow-3  { color:#4b4d2b; }
      .ExScheme-Orange-1  { color:#ffdaa5; }
      .ExScheme-Orange-2  { color:#ff9701; }
      .ExScheme-Orange-3  { color:#4d372b; }
      .ExScheme-Brown-1   { color:#e9d6bb; }
      .ExScheme-Brown-2   { color:#997657; }
      .ExScheme-Brown-3   { color:#433a35; }
      .ExScheme-Purple-1  { color:#e2abf9; }
      .ExScheme-Purple-2  { color:#b401ff; }
      .ExScheme-Purple-3  { color:#432b4d; }
      .ExScheme-Cyan-1    { color:#b2f2e6; }
      .ExScheme-Cyan-2    { color:#31bfa6; }
      .ExScheme-Cyan-3    { color:#2b4d47; }
      .ExScheme-Magenta-1 { color:#f8a6d8; }
      .ExScheme-Magenta-2 { color:#f00091; }
      .ExScheme-Magenta-3 { color:#770048; }
    </style>
<linearGradient id="uAP">
<stop offset="0"/>
<stop offset="1" stop-opacity="0"/>
</linearGradient>
<linearGradient id="uAQ">
<stop offset="0" stop-color="#fff"/>
<stop offset="1" stop-color="#fff" stop-opacity="0"/>
</linearGradient>
<style class="toggle-enable-crease" type="text/css">
        .folder-crease { display: none; }
    </style><style class="toggle-manilla-folders" type="text/css">
        .folder-manilla { display: none; }
    </style><radialGradient cx=".5" cy="0" id="uAR" r="1" xlink:href="#uAQ"/><linearGradient id="uAS" xlink:href="#uAP" y1="1" y2=".5"/><path d="m 20,16 c -3.3,0 -6,2.7 -6,6 v 14 c -3.3,0 -6,2.7 -6,6 v 64 c 0,3.3 2.7,6 6,6 h 100 c 3.3,0 6,-2.7 6,-6 V 52 42 38 c 0,-3.3 -2.7,-6 -6,-6 v -6 c 0,-3.3 -2.7,-6 -6,-6 H 56 c -8,0 -8,-4 -14,-4 z" id="uAT"></path><path d="m 20,16 c -3.3,0 -6,2.7 -6,6 v 14 h 26 c 8,0 8,-4 14,-4 h 60 v -6 c 0,-3.3 -2.7,-6 -6,-6 H 56 c -8,0 -8,-4 -14,-4 z" id="uAU"></path></defs>
<g id="content" transform="translate(0,0)"><use class="folder-manilla ExScheme-Brown-1" fill="currentColor" href="#uAT"></use><use class="toggle-manilla-folders ColorScheme-Highlight" fill="#d81b1e" href="#uAT" id="primary-color"></use><use class="ColorScheme-Text" fill="currentColor" href="#uAT" opacity=".1"></use><g id="emblem" transform="translate(32,42)"><g class="ColorScheme-Background" fill="currentColor" transform="matrix(2,0,0,2,8.8e-4,0)">
<path d="M 32 12.96 C 26.3 12.96 20.74 14.77 16.13 18.1 C 6.67 25 2.7 37.2 6.3 48.3 A 1 1 0 0 0 7.6 48.95 L 14.2 46.8 A 1 1 0 0 0 14.8 45.54 C 14.25 43.8 13.93 41.9 13.93 39.96 C 13.93 34.86 15.2 29.4 18.1 25.3 C 20.96 21.23 25.35 18.43 32 18.43 C 37.15 18.43 40.93 20.14 43.73 22.8 A 1 1 0 0 0 45.2 22.7 L 47.84 19.5 A 1 1 0 0 0 47.64 17.96 C 43.07 14.7 37.6 12.96 32 12.96 z M 32 13.96 C 37.4 13.96 42.66 15.65 47.06 18.77 L 44.4 22.07 C 41.45 19.25 37.37 17.43 32 17.43 C 25.07 17.43 20.3 20.44 17.27 24.75 C 14.23 29.07 12.93 34.7 12.93 39.96 C 12.93 42 13.26 44 13.87 45.86 L 7.27 48 C 3.8 37.3 7.6 25.55 16.7 18.93 C 21.16 15.7 26.5 13.96 32 13.96 z M 49.3 19.65 A 1 1 0 0 0 48.6 20.03 L 45.66 23.73 A 1 1 0 0 0 45.64 24.95 C 48.7 29.1 50.06 34.7 50.06 39.96 C 50.06 40.1 50.06 40.23 50.06 40.36 L 55.07 41 C 56.15 41.16 56.93 42.2 56.8 43.26 C 56.65 44.34 55.63 45.13 54.54 45 L 49.53 44.3 C 49.4 44.74 49.3 45.14 49.2 45.54 A 1 1 0 0 0 49.8 46.8 L 56.4 48.95 A 1 1 0 0 0 57.7 48.3 C 61 38.1 57.9 27 50.07 19.9 A 1 1 0 0 0 49.3 19.65 z M 32 38 A 2 2 0 0 0 30 40 A 2 2 0 0 0 32 42 A 2 2 0 0 0 33.6 41.2 L 54.67 44 C 55.2 44.06 55.7 43.7 55.8 43.13 C 55.87 42.6 55.5 42.1 54.93 42 L 33.85 39.23 A 2 2 0 0 0 32 38 z " opacity=".6" stop-color="#000000" transform="matrix(.5,0,0,.5,-4.4e-4,0)"/>
<path d="M 32 12.96 C 26.3 12.96 20.74 14.77 16.13 18.1 C 6.67 25 2.7 37.2 6.3 48.3 A 1 1 0 0 0 7.6 48.95 L 14.2 46.8 A 1 1 0 0 0 14.8 45.54 C 14.25 43.8 13.93 41.9 13.93 39.96 C 13.93 34.86 15.2 29.4 18.1 25.3 C 20.96 21.23 25.35 18.43 32 18.43 C 37.15 18.43 40.93 20.14 43.73 22.8 A 1 1 0 0 0 45.2 22.7 L 47.84 19.5 A 1 1 0 0 0 47.64 17.96 C 43.07 14.7 37.6 12.96 32 12.96 z M 32 13.96 C 37.4 13.96 42.66 15.65 47.06 18.77 L 44.4 22.07 C 41.45 19.25 37.37 17.43 32 17.43 C 25.07 17.43 20.3 20.44 17.27 24.75 C 14.23 29.07 12.93 34.7 12.93 39.96 C 12.93 42 13.26 44 13.87 45.86 L 7.27 48 C 3.8 37.3 7.6 25.55 16.7 18.93 C 21.16 15.7 26.5 13.96 32 13.96 z M 49.3 19.65 A 1 1 0 0 0 48.6 20.03 L 45.66 23.73 A 1 1 0 0 0 45.64 24.95 C 48.7 29.1 50.06 34.7 50.06 39.96 C 50.06 40.1 50.06 40.23 50.06 40.36 L 55.07 41 C 56.15 41.16 56.93 42.2 56.8 43.26 C 56.65 44.34 55.63 45.13 54.54 45 L 49.53 44.3 C 49.4 44.74 49.3 45.14 49.2 45.54 A 1 1 0 0 0 49.8 46.8 L 56.4 48.95 A 1 1 0 0 0 57.7 48.3 C 61 38.1 57.9 27 50.07 19.9 A 1 1 0 0 0 49.3 19.65 z M 49.36 20.15 C 49.5 20.14 49.63 20.2 49.73 20.3 C 57.44 27.2 60.46 38.13 57.2 48.16 C 57.1 48.4 56.84 48.56 56.57 48.5 L 50 46.33 C 49.7 46.24 49.57 45.97 49.66 45.7 C 49.74 45.43 49.8 45.15 49.9 44.9 L 54.5 45.5 C 55.84 45.66 57.1 44.7 57.3 43.33 C 57.46 41.97 56.5 40.7 55.13 40.5 L 50.55 39.9 C 50.55 34.6 49.2 28.9 46.04 24.65 C 45.9 24.47 45.9 24.2 46.05 24.04 L 46.05 24.04 L 49 20.34 C 49.1 20.23 49.2 20.16 49.36 20.15 z M 32 38 A 2 2 0 0 0 30 40 A 2 2 0 0 0 32 42 A 2 2 0 0 0 33.6 41.2 L 54.67 44 C 55.2 44.06 55.7 43.7 55.8 43.13 C 55.87 42.6 55.5 42.1 54.93 42 L 33.85 39.23 A 2 2 0 0 0 32 38 z M 32 38.5 C 32.6 38.5 33.15 38.86 33.4 39.43 A .5 .5 0 0 0 33.8 39.73 L 54.87 42.5 C 55.15 42.55 55.34 42.8 55.3 43.07 C 55.26 43.35 55 43.53 54.74 43.5 L 33.65 40.7 A .5 .5 0 0 0 33.2 40.9 C 32.9 41.3 32.47 41.5 32 41.5 C 31.17 41.5 30.5 40.83 30.5 40 C 30.5 39.17 31.17 38.5 32 38.5 z " opacity=".6" transform="matrix(.5,0,0,.5,-4.4e-4,0)"/>
</g></g><use href="#uAU" opacity=".4"></use><use class="toggle-flat-design" fill="url(#uAS)" href="#uAU" opacity=".2"></use><path class="toggle-flat-design" d="m 54,32 c -6,0 -6,4 -14,4 H 14 c -3.3,0 -6,2.7 -6,6 v 64 c 0,3.3 2.7,6 6,6 h 100 c 3.3,0 6,-2.7 6,-6 V 52 42 38 c 0,-3.3 -2.7,-6 -6,-6 z" fill="url(#uAR)" opacity=".2"/><path class="folder-crease " d="m 8,88 v 4 h 18 c 1.1,0 2,-.9 2,-2 0,-1.1 -.9,-2 -2,-2 z m 94,0 c -1.1,0 -2,.9 -2,2 0,1.1 .9,2 2,2 h 18 v -4 z" opacity=".4"/><path class="ColorScheme-Text" d="m 8,105 v 1 c 0,3.3 2.7,6 6,6 h 100 c 3.3,0 6,-2.7 6,-6 v -1 c 0,3.3 -2.7,6 -6,6 H 14 c -3.3,0 -6,-2.7 -6,-6 z" fill="currentColor" opacity=".1"/><path class="ColorScheme-Text" d="m 8,105.5 v 0.5 c 0,3.3 2.7,6 6,6 h 100 c 3.3,0 6,-2.7 6,-6 v -0.5 c 0,3.3 -2.7,6 -6,6 H 14 c -3.3,0 -6,-2.7 -6,-6 z" fill="currentColor" opacity=".2"/><path d="m 54,32 c -6,0 -6,4 -14,4 H 14 c -3.3,0 -6,2.7 -6,6 v 1 c 0,-3.3 2.7,-6 6,-6 h 26 c 8,0 8,-4 14,-4 h 60 c 3.3,0 6,2.7 6,6 v -1 c 0,-3.3 -2.7,-6 -6,-6 z" fill="#fff" opacity=".1"/><path d="m 54,32 c -6,0 -6,4 -14,4 H 14 c -3.3,0 -6,2.7 -6,6 v 0.5 c 0,-3.3 2.7,-6 6,-6 h 26 c 8,0 8,-4 14,-4 h 60 c 3.3,0 6,2.7 6,6 V 38 c 0,-3.3 -2.7,-6 -6,-6 z" fill="#fff" opacity=".2"/><path d="m 54,31 c -6,0 -6,4 -14,4 H 14 v 1 h 26 c 8,0 8,-4 14,-4 h 60 v -1 z" opacity=".1"/><path d="m 54,31.5 c -6,0 -6,4 -14,4 H 14 V 36 h 26 c 8,0 8,-4 14,-4 h 60 v -0.5 z" opacity=".2"/></g>
</svg>