<svg height="128" version="1.1" width="128" xmlns="http://www.w3.org/2000/svg" xmlns:svg="http://www.w3.org/2000/svg" xmlns:xlink="http://www.w3.org/1999/xlink">
<defs id="primary-definitions">
<style id="current-color-scheme" type="text/css">
      .ColorScheme-Text         { color: #232629; }
      .ColorScheme-Background   { color: #eff0f1; }
      .ColorScheme-Highlight    { color: #7ec9f0; }
      .ColorScheme-PositiveText { color: #27ae60; }
      .ColorScheme-NeutralText  { color: #f67400; }
      .ColorScheme-NegativeText { color: #da4453; }
      .ColorScheme-ActiveText   { color: #3daee9; }
      .ColorScheme-Complement   { color: #ffffff; }
      .ColorScheme-Contrast     { color: #000000; }
    </style>
<style id="extended-color-scheme" type="text/css">
      .ExScheme-Black     { color:#3e3e3e; }
      .ExScheme-White     { color:#fcfcfc; }
      .ExScheme-Grey-1    { color:#cfd5d5; }
      .ExScheme-Grey-2    { color:#909c9c; }
      .ExScheme-Grey-3    { color:#536161; }
      .ExScheme-Red-1     { color:#ffafa5; }
      .ExScheme-Red-2     { color:#bf4231; }
      .ExScheme-Red-3     { color:#4d2f2b; }
      .ExScheme-Green-1   { color:#abf9c7; }
      .ExScheme-Green-2   { color:#3bb566; }
      .ExScheme-Green-3   { color:#377d50; }
      .ExScheme-Blue-1    { color:#abdaf9; }
      .ExScheme-Blue-2    { color:#3daefd; }
      .ExScheme-Blue-3    { color:#2b3c4d; }
      .ExScheme-Yellow-1  { color:#faffa5; }
      .ExScheme-Yellow-2  { color:#cac726; }
      .ExScheme-Yellow-3  { color:#4b4d2b; }
      .ExScheme-Orange-1  { color:#ffdaa5; }
      .ExScheme-Orange-2  { color:#ff9701; }
      .ExScheme-Orange-3  { color:#4d372b; }
      .ExScheme-Brown-1   { color:#e9d6bb; }
      .ExScheme-Brown-2   { color:#997657; }
      .ExScheme-Brown-3   { color:#433a35; }
      .ExScheme-Purple-1  { color:#e2abf9; }
      .ExScheme-Purple-2  { color:#b401ff; }
      .ExScheme-Purple-3  { color:#432b4d; }
      .ExScheme-Cyan-1    { color:#b2f2e6; }
      .ExScheme-Cyan-2    { color:#31bfa6; }
      .ExScheme-Cyan-3    { color:#2b4d47; }
      .ExScheme-Magenta-1 { color:#f8a6d8; }
      .ExScheme-Magenta-2 { color:#f00091; }
      .ExScheme-Magenta-3 { color:#770048; }
    </style>
<linearGradient id="uc3">
<stop offset="0"/>
<stop offset="1" stop-opacity="0"/>
</linearGradient>
<linearGradient id="uc4">
<stop offset="0" stop-color="#fff"/>
<stop offset="1" stop-color="#fff" stop-opacity="0"/>
</linearGradient>
<style id="uc5" type="text/css">
        .force-display-for-editing { display: inline !important; }
    </style><style class="remove-if__show-crease" type="text/css">
        .enable-if__show-crease { display: none; }
    </style><style class="remove-if__color-sync-mimes-places" type="text/css">
        .enable-if__color-sync-mimes-places { display: none; }
    </style><radialGradient cx=".5" cy="0" id="uc6" r="1" xlink:href="#uc4"/><linearGradient id="uc7" xlink:href="#uc3" y1="1" y2=".5"/><style class="ColorScheme-Background" fill="currentColor" opacity=".6" type="text/css">
   .ColorScheme-Text           { color:#eff0f1; }
      .ColorScheme-Background     { color:#31363b; }
      .ColorScheme-Highlight      { color:#3daefd; }
      .ColorScheme-ViewBackground { color:#fcfcfc; }
      .ColorScheme-PositiveText   { color:#27ae60; }
      .ColorScheme-NeutralText    { color:#f67400; }
      .ColorScheme-NegativeText   { color:#da4453; }
  </style><path d="m 20,16 c -3.3,0 -6,2.7 -6,6 v 14 c -3.3,0 -6,2.7 -6,6 v 64 c 0,3.3 2.7,6 6,6 h 100 c 3.3,0 6,-2.7 6,-6 V 52 42 38 c 0,-3.3 -2.7,-6 -6,-6 v -6 c 0,-3.3 -2.7,-6 -6,-6 H 56 c -8,0 -8,-4 -14,-4 z" id="uc8"></path><path d="m 20,16 c -3.3,0 -6,2.7 -6,6 v 14 h 26 c 8,0 8,-4 14,-4 h 60 v -6 c 0,-3.3 -2.7,-6 -6,-6 H 56 c -8,0 -8,-4 -14,-4 z" id="uc9"></path></defs>
<g id="content" transform="translate(0,0)"><use class="sync-color enable-if__color-sync-mimes-places force-display-for-editing ColorScheme-ActiveText" fill="currentColor" href="#uc8"></use><use class="primary-color remove-if__color-sync-mimes-places ColorScheme-ActiveText" fill="currentColor" href="#uc8"></use><use class="ColorScheme-Contrast" fill="currentColor" href="#uc8" opacity=".1"></use><g id="decal" transform="translate(32,42)"><path class="ColorScheme-Background" d="M 32,8 A 24,8 0 0 0 8,16 v 8 a 24,8 0 0 0 24,8 24,8 0 0 0 24,-8 V 16 A 24,8 0 0 0 32,8 Z M 8,30.7 V 36 a 24,8 0 0 0 24,8 24,8 0 0 0 24,-8 v -5.3 c -1.65,1.16 -3.57,2 -5.77,2.75 C 45.3,35.1 39,36 32,36 25,36 18.7,35.1 13.77,33.45 11.57,32.7 9.65,31.87 8,30.7 Z m 0,12 V 48 a 24,8 0 0 0 24,8 24,8 0 0 0 24,-8 v -5.3 c -1.65,1.16 -3.57,2 -5.77,2.75 C 45.3,47.1 39,48 32,48 25,48 18.7,47.1 13.77,45.45 11.57,44.7 9.65,43.87 8,42.7 Z" fill="currentColor" opacity=".6" stop-color="#000000"/><path class="ColorScheme-Background" d="M 32 8 A 24 8 0 0 0 8 16 L 8 24 A 24 8 0 0 0 32 32 A 24 8 0 0 0 56 24 L 56 16 A 24 8 0 0 0 32 8 z M 32 8.5 C 38.6 8.5 44.54 9.4 48.8 10.8 C 50.95 11.53 52.66 12.4 53.8 13.3 C 54.95 14.2 55.5 15.1 55.5 16 L 55.5 24 C 55.5 24.9 54.95 25.8 53.8 26.7 C 52.66 27.6 50.95 28.47 48.8 29.2 C 44.54 30.6 38.6 31.5 32 31.5 C 25.4 31.5 19.46 30.6 15.2 29.2 C 13.05 28.47 11.34 27.6 10.3 26.7 C 9.05 25.8 8.5 24.9 8.5 24 L 8.5 16 C 8.5 15.1 9.05 14.2 10.3 13.3 C 11.34 12.4 13.05 11.53 15.2 10.8 C 19.46 9.4 25.4 8.5 32 8.5 z M 8 30.7 L 8 36 A 24 8 0 0 0 32 44 A 24 8 0 0 0 56 36 L 56 30.7 C 54.35 31.87 52.43 32.7 50.23 33.45 C 45.3 35.1 39 36 32 36 C 25 36 18.7 35.1 13.77 33.45 C 11.57 32.7 9.65 31.87 8 30.7 z M 8.5 31.56 C 10 32.5 11.7 33.3 13.6 33.93 C 18.6 35.6 24.97 36.5 32 36.5 C 39.03 36.5 45.4 35.6 50.4 33.93 C 52.3 33.3 54 32.5 55.5 31.56 L 55.5 36 C 55.5 36.9 54.95 37.8 53.8 38.7 C 52.66 39.6 50.95 40.47 48.8 41.2 C 44.54 42.6 38.6 43.5 32 43.5 C 25.4 43.5 19.46 42.6 15.2 41.2 C 13.05 40.47 11.34 39.6 10.3 38.7 C 9.05 37.8 8.5 36.9 8.5 36 L 8.5 31.56 z M 8 42.7 L 8 48 A 24 8 0 0 0 32 56 A 24 8 0 0 0 56 48 L 56 42.7 C 54.35 43.87 52.43 44.7 50.23 45.45 C 45.3 47.1 39 48 32 48 C 25 48 18.7 47.1 13.77 45.45 C 11.57 44.7 9.65 43.87 8 42.7 z M 8.5 43.56 C 10 44.5 11.7 45.3 13.6 45.93 C 18.6 47.6 24.97 48.5 32 48.5 C 39.03 48.5 45.4 47.6 50.4 45.93 C 52.3 45.3 54 44.5 55.5 43.56 L 55.5 48 C 55.5 48.9 54.95 49.8 53.8 50.7 C 52.66 51.6 50.95 52.47 48.8 53.2 C 44.54 54.6 38.6 55.5 32 55.5 C 25.4 55.5 19.46 54.6 15.2 53.2 C 13.05 52.47 11.34 51.6 10.3 50.7 C 9.05 49.8 8.5 48.9 8.5 48 L 8.5 43.56 z " fill="currentColor" opacity=".6"/></g><use href="#uc9" opacity=".4"></use><use fill="url(#uc7)" href="#uc9" opacity=".2"></use><path d="m 54,32 c -6,0 -6,4 -14,4 H 14 c -3.3,0 -6,2.7 -6,6 v 64 c 0,3.3 2.7,6 6,6 h 100 c 3.3,0 6,-2.7 6,-6 V 52 42 38 c 0,-3.3 -2.7,-6 -6,-6 z" fill="url(#uc6)" opacity=".2"/><path class="ColorScheme-Contrast" d="m 8,105 v 1 c 0,3.3 2.7,6 6,6 h 100 c 3.3,0 6,-2.7 6,-6 v -1 c 0,3.3 -2.7,6 -6,6 H 14 c -3.3,0 -6,-2.7 -6,-6 z" fill="currentColor" opacity=".1"/><path class="ColorScheme-Contrast" d="m 8,105.5 v 0.5 c 0,3.3 2.7,6 6,6 h 100 c 3.3,0 6,-2.7 6,-6 v -0.5 c 0,3.3 -2.7,6 -6,6 H 14 c -3.3,0 -6,-2.7 -6,-6 z" fill="currentColor" opacity=".2"/><path d="m 54,32 c -6,0 -6,4 -14,4 H 14 c -3.3,0 -6,2.7 -6,6 v 1 c 0,-3.3 2.7,-6 6,-6 h 26 c 8,0 8,-4 14,-4 h 60 c 3.3,0 6,2.7 6,6 v -1 c 0,-3.3 -2.7,-6 -6,-6 z" fill="#fff" opacity=".1"/><path d="m 54,32 c -6,0 -6,4 -14,4 H 14 c -3.3,0 -6,2.7 -6,6 v 0.5 c 0,-3.3 2.7,-6 6,-6 h 26 c 8,0 8,-4 14,-4 h 60 c 3.3,0 6,2.7 6,6 V 38 c 0,-3.3 -2.7,-6 -6,-6 z" fill="#fff" opacity=".2"/><path d="m 54,31 c -6,0 -6,4 -14,4 H 14 v 1 h 26 c 8,0 8,-4 14,-4 h 60 v -1 z" opacity=".1"/><path d="m 54,31.5 c -6,0 -6,4 -14,4 H 14 V 36 h 26 c 8,0 8,-4 14,-4 h 60 v -0.5 z" opacity=".2"/></g>
</svg>