<svg fill="none" viewBox="0 0 16 16" xmlns="http://www.w3.org/2000/svg">
    <style type="text/css" id="current-color-scheme">
        .ColorScheme-Text {
            color:#232629;
        }
    </style>
    <g class="ColorScheme-Text" style="fill:currentColor;fill-opacity:1;stroke:none">
        <path d="m2 13v-10h12v10h-1v-9h-10v8h2v1z"/>
        <path d="m8 14h3.15l1-3s-2.15-1-3.15-1.00002v-2.25427c0-.99999-1-.99999-1 .00009v4.2542h-.25l-.5-1c-.75-1.5-1.5 0-1.5 0z"/>
        <path d="m10 7.25v1.75c.5664-.35 1-1.04318 1-1.75 0-1.24264-1.11929-2.25-2.5-2.25s-2.5 1.00736-2.5 2.25c0 .70682.43361 1.4 1 1.75v-1.75c0-.59386.56986-1.25 1.5-1.25s1.5.65614 1.5 1.25z"/>
    </g>
</svg>
