<svg xmlns="http://www.w3.org/2000/svg" viewBox="0 0 16 16">
  <defs>
    <style type="text/css" id="current-color-scheme">
      .ColorScheme-Text {
        color:#232629;
      }
      </style>
  </defs>
  <g
    style="fill:currentColor"
    class="ColorScheme-Text">
    <path d="m.167969 4.21094c2.279191-1.39422 4.953751-2.21094 7.832031-2.21094v1c-2.64091 0-5.09775.73691-7.201172 1.99805z"/>
    <path d="m2.14844 6.6875c1.69413-1.06392 3.69516-1.6875 5.85156-1.6875v1c-1.91821 0-3.70157.54375-5.2207 1.47266z"/>
    <path d="m8 8c-1.43382 0-2.76331.42837-3.87109 1.16211l.63086.78711c.93388-.599 2.04372-.94922 3.24023-.94922z"/>
    <path d="m6.93934 11.4393c.2813-.2813.66284-.4393 1.06066-.4393s.77936.158 1.06066.4393.43934.6629.43934 1.0607-.15804.7794-.43934 1.0607-.66284.4393-1.06066.4393-.77936-.158-1.06066-.4393-.43934-.6629-.43934-1.0607.15804-.7794.43934-1.0607z"/>
    <path d="m11.8101 2h-.8101v3.29289l-1.64641-1.64644-.35359 1.02113 1.5 1.33242-1.5 1.33242.35359 1.02113 1.64641-1.64644v3.29289h.8101c.5839 0 1.1386-.25513 1.5185-.69842l1.33-1.55158-1.6586-1.75 1.6586-1.75-1.33-1.55158c-.3799-.44329-.9346-.69842-1.5185-.69842zm.6357 3.29498c-.1115.13013-.2744.30502-.4458.30502v-2.6c.1714 0 .3343.07489.4458.20502l.8957 1.04498zm-.4458 3.70502v-2.6c.1714 0 .3343.17489.4458.30502l.8957 1.04498-.8957 1.04498c-.1115.13013-.2744.20502-.4458.20502z" />
  </g>
</svg>
