<svg version="1.1" viewBox="0 0 16 16" xmlns="http://www.w3.org/2000/svg">
    <defs>
        <style id="current-color-scheme" type="text/css">.ColorScheme-Text {
          color:#232629;
        }</style>
    </defs>
    <path id="smartphone" class="ColorScheme-Text" d="m6 2c-0.96855 0-2 1.0314-2 2v8c0 0.96855 1.0314 2 2 2h4c0.96855 0 2-1.0314 2-2v-8c0-0.96855-1.0314-2-2-2h-0.5-3-0.5zm0 1a0.5 0.5 0 0 1 0.5 0.47461v0.025391c0 0.277 0.223 0.5 0.5 0.5h2c0.277 0 0.5-0.223 0.5-0.5a0.5 0.5 0 0 1 0.5-0.5c0.56208 0 1 0.43788 1 1v8c0 0.56208-0.43788 1-1 1h-4c-0.56208 0-1-0.43788-1-1v-8c0-0.56208 0.43788-1 1-1zm0.5 8c-0.277 0-0.5 0.223-0.5 0.5s0.223 0.5 0.5 0.5h3c0.277 0 0.5-0.223 0.5-0.5s-0.223-0.5-0.5-0.5h-3z" fill="currentColor"/>
</svg>
