<svg id="svg1" version="1.1" viewBox="0 0 16 16" xmlns="http://www.w3.org/2000/svg">
    <defs id="defs1">
        <style id="current-color-scheme" type="text/css">.ColorScheme-Text {
        color:#232629;
      }</style>
    </defs>
    <path id="path1" class="ColorScheme-Text" d="m6.209 2.0469c-0.96855 0-1.7598 0.79122-1.7598 1.7598v8.3867c0 0.96855 0.79122 1.7598 1.7598 1.7598h3.582c0.96855 0 1.7598-0.79122 1.7598-1.7598v-8.3867c0-0.96855-0.79122-1.7598-1.7598-1.7598zm0 0.75781h0.693v0.7979237h2.26v-0.7979237h0.629c0.56208 0 1.002 0.43988 1.002 1.002v8.3867c0 0.56208-0.43988 1.002-1.002 1.002h-3.582c-0.56208 0-1.002-0.43988-1.002-1.002v-8.3867c0-0.56208 0.43988-1.002 1.002-1.002zm0.4082 8.62886c-0.2028553-1.49e-4 -0.3673393 0.164335-0.36719 0.36719-1.493e-4 0.202855 0.1643347 0.367339 0.36719 0.36719h2.7695c0.2028553 1.49e-4 0.3673393-0.164335 0.36719-0.36719 1.493e-4 -0.202855-0.1643347-0.367339-0.36719-0.36719z" fill="currentColor"/>
</svg>
