<svg version="1.1" viewBox="0 0 16 16" xmlns="http://www.w3.org/2000/svg">
    <defs>
        <style id="current-color-scheme" type="text/css">.ColorScheme-Text {
          color:#232629;
        }</style>
    </defs>
    <g fill="currentColor">
        <path id="smartphone" class="ColorScheme-Text" d="m6 2c-0.96855 0-2 1.0314-2 2v8c0 0.96855 1.0314 2 2 2h4c0.96855 0 2-1.0314 2-2v-8c0-0.96855-1.0314-2-2-2h-4zm0 1h4c0.56208 0 1 0.43788 1 1v8c0 0.56208-0.43788 1-1 1h-4c-0.56208 0-1-0.43788-1-1v-8c0-0.56208 0.43788-1 1-1zm0.5 1a0.5 0.5 0 0 0-0.5 0.5 0.5 0.5 0 0 0 0.5 0.5 0.5 0.5 0 0 0 0.5-0.5 0.5 0.5 0 0 0-0.5-0.5zm0 7c-0.277 0-0.5 0.223-0.5 0.5s0.223 0.5 0.5 0.5h3c0.277 0 0.5-0.223 0.5-0.5s-0.223-0.5-0.5-0.5h-3z" fill="currentColor"/>
        <path id="lightningBolt" class="ColorScheme-Text" d="m8 5-2 3.5h2v2.5l2-3.5h-2z" fill="currentColor"/>
    </g>
</svg>
