<svg version="1.1" viewBox="0 0 16 16" xmlns="http://www.w3.org/2000/svg">
    <defs>
        <style id="current-color-scheme" type="text/css">.ColorScheme-Text {
        color:#232629;
      }</style>
    </defs>
    <path class="ColorScheme-Text" d="m6.209 2.0469c-0.96855 0-1.7598 0.79122-1.7598 1.7598v8.3867c0 0.96855 0.79122 1.7598 1.7598 1.7598h3.582c0.96855 0 1.7598-0.79122 1.7598-1.7598v-8.3867c0-0.96855-0.79122-1.7598-1.7598-1.7598zm0 0.75781h3.582c0.56208 0 1.002 0.43988 1.002 1.002v8.3867c0 0.56208-0.43988 1.002-1.002 1.002h-3.582c-0.56208 0-1.002-0.43988-1.002-1.002v-8.3867c0-0.56208 0.43988-1.002 1.002-1.002zm0.29492 0.72656a0.4898 0.4898 0 0 0-0.48438 0.49219 0.4898 0.4898 0 0 0 0.49023 0.48633 0.4898 0.4898 0 0 0 0.48828-0.49023v-0.00586a0.4898 0.4898 0 0 0-0.49414-0.48242zm0.11328 7.9023a0.36692 0.36692 0 0 0-0.36719 0.36719 0.36692 0.36692 0 0 0 0.36719 0.36719h2.7695a0.36692 0.36692 0 0 0 0.36719-0.36719 0.36692 0.36692 0 0 0-0.36719-0.36719z" fill="currentColor"/>
</svg>
