<svg height="16" viewBox="0 0 16 16" width="16" xmlns="http://www.w3.org/2000/svg" xmlns:xlink="http://www.w3.org/1999/xlink"><linearGradient id="a" gradientUnits="userSpaceOnUse" x1="0" x2="0" y1="16" y2="0"><stop offset="0" stop-color="#be1111"/><stop offset="1" stop-color="#e74c3c"/></linearGradient><linearGradient id="b" gradientUnits="userSpaceOnUse" x1="2" x2="30" y1="4" y2="32"><stop offset="0" stop-color="#fcfcfc"/><stop offset="1" stop-color="#e74c3c"/></linearGradient><linearGradient id="c" gradientUnits="userSpaceOnUse" x1="6" x2="14" y1="8" y2="16"><stop offset="0"/><stop offset="1" stop-opacity="0"/></linearGradient><rect fill="url(#a)" height="16" ry="2" width="16"/><path d="m6 12 4 4h6v-6l-2-2-2 2-2-2z" fill="url(#c)" opacity=".2"/><path d="m6 4-4 4 4 4 4-4zm4 0-1 1 3 3-3 3 1 1 4-4z" fill="url(#b)"/><path d="m0 13v1c0 1.108.892 2 2 2h12c1.108 0 2-.892 2-2v-1c0 1.108-.892 2-2 2h-12c-1.108 0-2-.892-2-2z" fill="#8e0d0d"/></svg>