<?xml version="1.0" encoding="UTF-8" standalone="no"?>
<svg
   width="16"
   height="16"
   version="1.1"
   id="svg6"
   sodipodi:docname="16-16-kdeconnect.svg"
   inkscape:version="1.2.2 (b0a8486541, 2022-12-01)"
   xmlns:inkscape="http://www.inkscape.org/namespaces/inkscape"
   xmlns:sodipodi="http://sodipodi.sourceforge.net/DTD/sodipodi-0.dtd"
   xmlns="http://www.w3.org/2000/svg"
   xmlns:svg="http://www.w3.org/2000/svg">
  <defs
     id="defs10" />
  <sodipodi:namedview
     id="namedview8"
     pagecolor="#ffffff"
     bordercolor="#000000"
     borderopacity="0.25"
     inkscape:showpageshadow="2"
     inkscape:pageopacity="0.0"
     inkscape:pagecheckerboard="0"
     inkscape:deskcolor="#d1d1d1"
     showgrid="false"
     inkscape:zoom="48.3125"
     inkscape:cx="6.8926261"
     inkscape:cy="7.9896507"
     inkscape:window-width="1920"
     inkscape:window-height="1011"
     inkscape:window-x="0"
     inkscape:window-y="0"
     inkscape:window-maximized="1"
     inkscape:current-layer="svg6" />
  <style
     type="text/css"
     id="current-color-scheme">
      .ColorScheme-Text {
        color:#31363b;
      }
      .ColorScheme-Background {
        color:#eff0f1;
      }
      .ColorScheme-Accent {
        color:#3daee9;
      }
      .ColorScheme-ButtonText {
        color:#31363b;
      }
      </style>
  <g
     id="16-16-kdeconnect"
     transform="translate(-303,-537.36218)">
    <rect
       y="537.36218"
       x="303"
       height="16"
       width="16"
       id="rect4442"
       style="opacity:1;fill:none;fill-opacity:1;stroke:none;stroke-width:0.10079;stroke-linecap:square;stroke-linejoin:miter;stroke-miterlimit:4;stroke-dasharray:none;stroke-dashoffset:0;stroke-opacity:1" />
    <path
       style="opacity:1;fill:currentColor;fill-opacity:1;stroke:none"
       d="m -14,10 v 12 h 2 v -1 -1 h -1 v -7 h 6 v 1 h 1 v -4 z m 3,1 h 2 v 1 h -2 z m 2.5,3 -0.2773438,1.107422 a 3,3 0 0 0 -0.7207031,0.296875 l -0.9765621,-0.585938 -0.707032,0.707032 0.585938,0.976562 a 3,3 0 0 0 -0.300781,0.722656 L -12,17.5 v 1 l 1.107422,0.277344 a 3,3 0 0 0 0.296875,0.720703 l -0.585938,0.976562 0.707032,0.707032 0.9765621,-0.585938 a 3,3 0 0 0 0.7226563,0.300781 L -8.5,22 h 1 l 0.2773438,-1.107422 a 3,3 0 0 0 0.7207031,-0.296875 l 0.9765625,0.585938 0.7070312,-0.707032 -0.5859375,-0.976562 a 3,3 0 0 0 0.3007813,-0.722656 L -4,18.5 v -1 l -1.1074219,-0.277344 a 3,3 0 0 0 -0.296875,-0.720703 l 0.5859375,-0.976562 -0.7070312,-0.707032 -0.9765625,0.585938 A 3,3 0 0 0 -7.2246094,15.103516 L -7.5,14 Z m 0.5,2 a 2,2 0 0 1 0.1992188,0.0098 2,2 0 0 1 0.1972656,0.0293 2,2 0 0 1 0.1953125,0.05078 2,2 0 0 1 0.1875,0.06836 2,2 0 0 1 0.1796875,0.08594 2,2 0 0 1 0.1699218,0.105468 2,2 0 0 1 0.1601563,0.121094 2,2 0 0 1 0.1464844,0.136719 2,2 0 0 1 0.1308593,0.148437 2,2 0 0 1 0.1171876,0.164063 2,2 0 0 1 0.099609,0.173828 2,2 0 0 1 0.080078,0.181641 2,2 0 0 1 0.064453,0.189453 2,2 0 0 1 0.042969,0.195312 2,2 0 0 1 0.023437,0.199219 A 2,2 0 0 1 -6,18 a 2,2 0 0 1 -0.00977,0.199219 2,2 0 0 1 -0.029297,0.197265 2,2 0 0 1 -0.050781,0.195313 2,2 0 0 1 -0.068359,0.1875 2,2 0 0 1 -0.085937,0.179687 2,2 0 0 1 -0.1054688,0.169922 2,2 0 0 1 -0.1210937,0.160156 2,2 0 0 1 -0.1367188,0.146485 2,2 0 0 1 -0.1484375,0.130859 2,2 0 0 1 -0.1640625,0.117188 2,2 0 0 1 -0.1738281,0.09961 2,2 0 0 1 -0.1816406,0.08008 2,2 0 0 1 -0.1894532,0.06445 2,2 0 0 1 -0.1953124,0.04297 2,2 0 0 1 -0.1992188,0.02344 2,2 0 0 1 -0.083984,0.0098 h -0.1367187 a 2,2 0 0 1 -0.1191407,-0.0098 2,2 0 0 1 -0.1972656,-0.0293 2,2 0 0 1 -0.1953125,-0.05078 2,2 0 0 1 -0.1875,-0.06836 2,2 0 0 1 -0.1796875,-0.08594 2,2 0 0 1 -0.1699218,-0.105469 2,2 0 0 1 -0.1601563,-0.121094 2,2 0 0 1 -0.087891,-0.08203 l -0.087891,-0.08789 a 2,2 0 0 1 -0.1015624,-0.115234 2,2 0 0 1 -0.1171876,-0.164063 2,2 0 0 1 -0.099609,-0.173828 2,2 0 0 1 -0.080078,-0.18164 2,2 0 0 1 -0.064453,-0.189454 2,2 0 0 1 -0.042969,-0.195312 2,2 0 0 1 -0.023437,-0.199219 A 2,2 0 0 1 -10,18.003906 a 2,2 0 0 1 0.00977,-0.199218 2,2 0 0 1 0.029297,-0.197266 2,2 0 0 1 0.050781,-0.195313 2,2 0 0 1 0.068359,-0.1875 2,2 0 0 1 0.085937,-0.179687 2,2 0 0 1 0.1054688,-0.169922 2,2 0 0 1 0.1210937,-0.160156 2,2 0 0 1 0.1367188,-0.146485 2,2 0 0 1 0.1484375,-0.130859 2,2 0 0 1 0.1640625,-0.117188 2,2 0 0 1 0.1738281,-0.09961 2,2 0 0 1 0.1816406,-0.08008 2,2 0 0 1 0.1894532,-0.06445 2,2 0 0 1 0.1953124,-0.04297 2,2 0 0 1 0.1992188,-0.02344 A 2,2 0 0 1 -8,16 Z"
       transform="translate(321,529.36218)"
       id="rect4148"
       class="ColorScheme-Text" />
  </g>
</svg>
