<?xml version="1.0" encoding="UTF-8" standalone="no"?>

<!-- Created with Inkscape (http://www.inkscape.org/) -->
<svg width="32" version="1.1" xmlns="http://www.w3.org/2000/svg" height="32" xmlns:xlink="http://www.w3.org/1999/xlink" xmlns:inkscape="http://www.inkscape.org/namespaces/inkscape">
 <defs id="defs5455">
  <linearGradient inkscape:collect="always" id="linearGradient4231">
   <stop style="stop-color:#f6a06f" id="stop4233"/>
   <stop offset="1" style="stop-color:#facebe" id="stop4235"/>
  </linearGradient>
  <linearGradient inkscape:collect="always" xlink:href="#linearGradient4300-8-4" id="linearGradient4149" y1="545.79797" y2="517.79797" x2="0" gradientUnits="userSpaceOnUse"/>
  <linearGradient inkscape:collect="always" id="linearGradient4300-8-4">
   <stop style="stop-color:#f27935" id="stop4302-5-4"/>
   <stop offset="1" style="stop-color:#f2784b" id="stop4304-7-6"/>
  </linearGradient>
  <linearGradient inkscape:collect="always" xlink:href="#linearGradient4231" id="linearGradient4280" y1="22.999973" y2="8.999974" x2="0" gradientUnits="userSpaceOnUse"/>
  <linearGradient inkscape:collect="always" xlink:href="#linearGradient4227" id="linearGradient4291" y1="8.999974" x1="9" y2="24" x2="24.00003" gradientUnits="userSpaceOnUse"/>
  <linearGradient inkscape:collect="always" id="linearGradient4227">
   <stop style="stop-color:#292c2f" id="stop4229"/>
   <stop offset="1" style="stop-opacity:0" id="stop4231"/>
  </linearGradient>
 </defs>
 <metadata id="metadata5458"/>
 <g inkscape:label="Capa 1" inkscape:groupmode="layer" id="layer1" transform="matrix(1 0 0 1 -384.57143 -515.798)">
  <rect width="28.00001" x="386.57144" y="517.79797" rx="14.00001" height="28.00003" style="fill:url(#linearGradient4149)" id="rect4130"/>
  <path style="fill:url(#linearGradient4291);opacity:0.2" id="rect4253" d="M 20.882812 10.982422 C 20.685137 11.168231 20.368662 11.473793 20.152344 11.677734 A 5.9999881 6 0 0 1 22 16 A 5.9999881 6 0 0 1 16 22 A 5.9999881 6 0 0 1 11.564453 20.03125 C 11.338377 20.263722 11.05609 20.540688 10.853516 20.753906 L 19.615234 29.515625 C 24.449991 28.233408 28.233408 24.449991 29.515625 19.615234 L 20.882812 10.982422 z " transform="matrix(1 0 0 1 384.57143 515.798)"/>
  <path style="fill:url(#linearGradient4280)" id="path4269" d="M 16 9 A 7.000021 7.0000005 0 0 0 9 16 A 7.000021 7.0000005 0 0 0 16 23 A 7.000021 7.0000005 0 0 0 23 16 A 7.000021 7.0000005 0 0 0 16 9 z M 16 10 A 6.000021 6.0000033 0 0 1 21.914062 15 L 10.089844 15 A 6.000021 6.0000033 0 0 1 16 10 z M 10.085938 17 L 21.910156 17 A 6.000021 6.0000033 0 0 1 16 22 A 6.000021 6.0000033 0 0 1 10.085938 17 z " transform="matrix(1 0 0 1 384.57143 515.798)"/>
 </g>
</svg>
