<?xml version="1.0" encoding="UTF-8" standalone="no"?>

<!-- Created with Inkscape (http://www.inkscape.org/) -->
<svg width="32" version="1.1" xmlns="http://www.w3.org/2000/svg" height="32" xmlns:xlink="http://www.w3.org/1999/xlink" xmlns:inkscape="http://www.inkscape.org/namespaces/inkscape">
 <defs id="defs5455">
  <linearGradient inkscape:collect="always" xlink:href="#linearGradient4143" id="linearGradient4149" y1="545.79797" y2="517.79797" x2="0" gradientUnits="userSpaceOnUse"/>
  <linearGradient inkscape:collect="always" id="linearGradient4143">
   <stop style="stop-color:#197cf1" id="stop4145"/>
   <stop offset="1" style="stop-color:#20bcfa" id="stop4147"/>
  </linearGradient>
  <linearGradient inkscape:collect="always" id="linearGradient4290">
   <stop style="stop-color:#7cbaf8" id="stop4292"/>
   <stop offset="1" style="stop-color:#f4fcff" id="stop4294"/>
  </linearGradient>
  <linearGradient inkscape:collect="always" id="linearGradient4227">
   <stop style="stop-color:#292c2f" id="stop4229"/>
   <stop offset="1" style="stop-opacity:0" id="stop4231"/>
  </linearGradient>
  <linearGradient inkscape:collect="always" xlink:href="#linearGradient4290" id="linearGradient4185" y1="604.90179" y2="588.90179" x2="0" gradientUnits="userSpaceOnUse" gradientTransform="matrix(1 0 0 1 -179.31141 -65.10378)"/>
  <linearGradient inkscape:collect="always" xlink:href="#linearGradient4290" id="linearGradient4210" y1="604.90179" y2="588.90179" gradientUnits="userSpaceOnUse" x2="0" gradientTransform="matrix(1 0 0 1 -563.88284 -580.90178)"/>
  <linearGradient inkscape:collect="always" xlink:href="#linearGradient4227" id="linearGradient4289" y1="8.999974" x1="9.00001" y2="23.00001" x2="23.00004" gradientUnits="userSpaceOnUse"/>
 </defs>
 <metadata id="metadata5458"/>
 <g inkscape:label="Capa 1" inkscape:groupmode="layer" id="layer1" transform="matrix(1 0 0 1 -384.57143 -515.798)">
  <rect width="28.00001" x="386.57144" y="517.79797" rx="14.00001" height="28.00003" style="fill:url(#linearGradient4149)" id="rect4130"/>
  <path style="fill:url(#linearGradient4289);opacity:0.2" id="rect4225" d="M 16.707031 8.2929688 L 15.292969 9.7070312 L 16.630859 11.044922 C 16.423803 11.018727 16.214569 11 16 11 C 14.796436 11 13.710651 11.439205 12.849609 12.142578 L 11.353516 10.646484 L 10.646484 11.353516 L 12.142578 12.849609 C 11.439205 13.710651 11 14.796436 11 16 C 11 16.214569 11.018727 16.423803 11.044922 16.630859 L 9.7070312 15.292969 L 8.2929688 16.707031 L 10.398438 18.8125 L 11.685547 19.607422 L 12.330078 20.376953 L 12.146484 20.560547 L 20.748047 29.162109 C 21.073384 29.045333 21.393961 28.917799 21.708984 28.78125 C 24.856692 27.379358 27.379358 24.856692 28.78125 21.708984 C 28.917798 21.393961 29.045333 21.073384 29.162109 20.748047 L 16.707031 8.2929688 z M 22 10.707031 L 20.707031 12 L 29.240234 20.533203 C 29.466565 19.868429 29.644227 19.182766 29.769531 18.476562 L 22 10.707031 z M 12 20.707031 L 10.707031 22 L 18.476562 29.769531 C 19.182766 29.644227 19.868429 29.466565 20.533203 29.240234 L 12 20.707031 z " transform="matrix(1 0 0 1 384.57143 515.798)"/>
  <path style="stroke-opacity:0.550265;fill:url(#linearGradient4185);stroke-width:2.8" id="path4208" d="m 400.57143,523.798 c -0.554,0 -1,0.446 -1,1 0,0.554 0.446,1 1,1 0.554,0 1,-0.446 1,-1 0,-0.554 -0.446,-1 -1,-1 z"/>
  <path style="stroke-opacity:0.550265;fill:url(#linearGradient4185);stroke-width:2.8" id="path4206" d="m 395.27846,525.798 -0.70703,0.70703 1.29297,1.29297 0.70703,-0.70703 -1.29297,-1.29297 z"/>
  <path style="stroke-opacity:0.550265;fill:url(#linearGradient4185);stroke-width:2.8" id="path4204" d="m 405.8644,525.798 -1.29297,1.29297 0.70703,0.70703 1.29297,-1.29297 -0.70703,-0.70703 z"/>
  <path style="stroke-opacity:0.550265;fill:url(#linearGradient4210);stroke-width:2.8" id="path4202" d="M 16 11 C 13.23 11 11 13.23 11 16 C 11 18.77 13.23 21 16 21 C 18.77 21 21 18.77 21 16 C 21 13.23 18.77 11 16 11 z M 16 12 C 18.216 12 20 13.784 20 16 C 20 18.216 18.216 20 16 20 C 13.784 20 12 18.216 12 16 C 12 13.784 13.784 12 16 12 z " transform="matrix(1 0 0 1 384.57143 515.798)"/>
  <path style="stroke-opacity:0.550265;fill:url(#linearGradient4185);stroke-width:2.8" id="path4198" d="m 393.57143,530.798 c -0.554,0 -1,0.446 -1,1 0,0.554 0.446,1 1,1 0.554,0 1,-0.446 1,-1 0,-0.554 -0.446,-1 -1,-1 z"/>
  <path style="stroke-opacity:0.550265;fill:url(#linearGradient4185);stroke-width:2.8" id="path4196" d="m 407.57143,530.798 c -0.554,0 -1,0.446 -1,1 0,0.554 0.446,1 1,1 0.554,0 1,-0.446 1,-1 0,-0.554 -0.446,-1 -1,-1 z"/>
  <path style="stroke-opacity:0.550265;fill:url(#linearGradient4185);stroke-width:2.8" id="path4194" d="m 395.8644,535.798 -1.29297,1.29297 0.70703,0.70703 1.29297,-1.29297 -0.70703,-0.70703 z"/>
  <path style="stroke-opacity:0.550265;fill:url(#linearGradient4185);stroke-width:2.8" id="path4192" d="m 405.27846,535.798 -0.70703,0.70703 1.29297,1.29297 0.70703,-0.70703 -1.29297,-1.29297 z"/>
  <path style="stroke-opacity:0.550265;fill:url(#linearGradient4185);stroke-width:2.8" id="rect4148" d="m 400.57143,537.798 c -0.554,0 -1,0.446 -1,1 0,0.554 0.446,1 1,1 0.554,0 1,-0.446 1,-1 0,-0.554 -0.446,-1 -1,-1 z"/>
 </g>
</svg>
