<?xml version="1.0" encoding="UTF-8" standalone="no"?>

<!-- Created with Inkscape (http://www.inkscape.org/) -->
<svg width="32" version="1.1" xmlns="http://www.w3.org/2000/svg" height="32" viewBox="0 0 32 32" xmlns:xlink="http://www.w3.org/1999/xlink" xmlns:inkscape="http://www.inkscape.org/namespaces/inkscape">
 <defs id="defs5455">
  <linearGradient inkscape:collect="always" xlink:href="#linearGradient4300-1" id="linearGradient4149" y1="545.79797" y2="517.79797" x2="0" gradientUnits="userSpaceOnUse"/>
  <linearGradient inkscape:collect="always" id="linearGradient4227">
   <stop style="stop-color:#292c2f" id="stop4229"/>
   <stop offset="1" style="stop-opacity:0" id="stop4231"/>
  </linearGradient>
  <linearGradient inkscape:collect="always" id="linearGradient4298">
   <stop style="stop-color:#b985ce" id="stop4300"/>
   <stop offset="1" style="stop-color:#e2cdeb" id="stop4302"/>
  </linearGradient>
  <linearGradient inkscape:collect="always" id="linearGradient4300-1">
   <stop style="stop-color:#8e44ad" id="stop4302-0"/>
   <stop offset="1" style="stop-color:#9b59b6" id="stop4304-6"/>
  </linearGradient>
  <linearGradient inkscape:collect="always" id="linearGradient4189" xlink:href="#linearGradient4298" y1="537.79797" y2="524.79797" gradientUnits="userSpaceOnUse" x2="0" gradientTransform="matrix(1 0 0 1 -0.000017 0.000013)"/>
  <linearGradient inkscape:collect="always" id="linearGradient4203" xlink:href="#linearGradient4227" y1="9" y2="22.999989" x1="9.00001" gradientUnits="userSpaceOnUse" x2="23" gradientTransform="matrix(1 0 0 1 384.57141 515.79801)"/>
 </defs>
 <metadata id="metadata5458"/>
 <g inkscape:label="Capa 1" inkscape:groupmode="layer" id="layer1" transform="matrix(1 0 0 1 -384.57143 -515.798)">
  <rect width="28.00001" x="386.57144" y="517.79797" rx="14.00001" height="28.00003" style="fill:url(#linearGradient4149)" id="rect4130"/>
  <path inkscape:connector-curvature="0" style="fill:url(#linearGradient4203);opacity:0.2;fill-rule:evenodd" id="path4191" d="m 399.57141,525.79801 -1,1 0,4 -3,0 0,5 0,0.22656 0,1.77344 7.73047,7.73047 c 2.94825,-0.57879 5.5496,-2.08206 7.51367,-4.19141 0.031,-0.0347 0.0623,-0.0691 0.0937,-0.10351 0.28206,-0.30972 0.55125,-0.63045 0.80469,-0.96485 5.5e-4,-7.2e-4 0.001,-0.001 0.002,-0.002 0.0574,-0.0755 0.11404,-0.15177 0.16992,-0.22851 0.27549,-0.37955 0.53467,-0.77239 0.77148,-1.17969 0.0117,-0.02 0.025,-0.0389 0.0371,-0.0586 0.006,-0.0104 0.0116,-0.0209 0.0176,-0.0312 0.35083,-0.61406 0.63838,-1.26705 0.89454,-1.93555 l -11.03521,-11.03511 -2,0 -1,0 z"/>
  <path inkscape:connector-curvature="0" style="fill:url(#linearGradient4189)" id="rect4136-1" d="m 400.57141,524.79801 c -1.662,0 -3,1.338 -3,3 l 0,1 0,2 -1,0 -1,0 0,0.75 0,6.25 10,0 0,-7 -2,0 0,-3 c 0,-1.662 -1.338,-3 -3,-3 z m 0,1 c 1.2465,0 2,0.5458 2,2 l 0,3 -3,0 -1,0 0,-2 0,-1 c 0,-1.4542 0.75351,-2 2,-2 z m -4,6 8,0 0,5 -8,0 z"/>
 </g>
</svg>
