<?xml version="1.0"?>
<!-- Created with Inkscape (http://www.inkscape.org/) -->
<svg xmlns:dc="http://purl.org/dc/elements/1.1/" xmlns:cc="http://creativecommons.org/ns#" xmlns:rdf="http://www.w3.org/1999/02/22-rdf-syntax-ns#" xmlns:svg="http://www.w3.org/2000/svg" xmlns="http://www.w3.org/2000/svg" xmlns:sodipodi="http://sodipodi.sourceforge.net/DTD/sodipodi-0.dtd" xmlns:inkscape="http://www.inkscape.org/namespaces/inkscape" width="24" height="24" id="svg3049" version="1.1" inkscape:version="0.91 r13725" sodipodi:docname="media-repeat-album-amarok.svg" inkscape:export-filename="/home/uri/.kde/share/icons/NITRUX-KDE/16x16/actions/view-right-new.png" inkscape:export-xdpi="30" inkscape:export-ydpi="30">
  <defs id="defs3051">
    <style type="text/css" id="current-color-scheme">
      .ColorScheme-Text {
        color:#4d4d4d;
      }
      .ColorScheme-Background {
        color:#eff0f1;
      }
      .ColorScheme-Highlight {
        color:#3daee9;
      }
      .ColorScheme-ViewText {
        color:#31363b;
      }
      .ColorScheme-ViewBackground {
        color:#fcfcfc;
      }
      .ColorScheme-ViewHover {
        color:#93cee9;
      }
      .ColorScheme-ViewFocus{
        color:#3daee9;
      }
      .ColorScheme-ButtonText {
        color:#31363b;
      }
      .ColorScheme-ButtonBackground {
        color:#eff0f1;
      }
      .ColorScheme-ButtonHover {
        color:#93cee9;
      }
      .ColorScheme-ButtonFocus{
        color:#3daee9;
      }
      </style>
  </defs>
  <sodipodi:namedview id="base" pagecolor="#ffffff" bordercolor="#666666" borderopacity="1.0" inkscape:pageopacity="0.0" inkscape:pageshadow="2" inkscape:zoom="16.000001" inkscape:cx="-14.733171" inkscape:cy="16.985815" inkscape:document-units="px" inkscape:current-layer="layer1" showgrid="true" fit-margin-top="0" fit-margin-left="0" fit-margin-right="0" fit-margin-bottom="0" inkscape:window-width="2560" inkscape:window-height="948" inkscape:window-x="0" inkscape:window-y="35" inkscape:window-maximized="1" inkscape:showpageshadow="false" borderlayer="true" showguides="true" inkscape:object-nodes="true">
    <sodipodi:guide position="3,21" orientation="18,0" id="guide4067"/>
    <sodipodi:guide position="3,3" orientation="0,18" id="guide4069"/>
    <sodipodi:guide position="21,3" orientation="-18,0" id="guide4071"/>
    <sodipodi:guide position="21,21" orientation="0,-18" id="guide4073"/>
    <sodipodi:guide position="4,20" orientation="16,0" id="guide4077"/>
    <sodipodi:guide position="4,4" orientation="0,16" id="guide4079"/>
    <sodipodi:guide position="20,4" orientation="-16,0" id="guide4081"/>
    <sodipodi:guide position="20,20" orientation="0,-16" id="guide4083"/>
    <inkscape:grid type="xygrid" id="grid4085" originx="0.99999557" originy="0.99997045"/>
  </sodipodi:namedview>
  <metadata id="metadata3054">
    <rdf:RDF>
      <cc:Work rdf:about="">
        <dc:format>image/svg+xml</dc:format>
        <dc:type rdf:resource="http://purl.org/dc/dcmitype/StillImage"/>
        <dc:title/>
      </cc:Work>
    </rdf:RDF>
  </metadata>
  <g inkscape:label="Capa 1" inkscape:groupmode="layer" id="layer1" transform="translate(-420.71429,-524.79071)">
    <path style="fill:currentColor;fill-opacity:1;stroke:none" d="m 2,3 0,16 1,0 6,0 0,-1 -1,0 C 8,17.447715 7.5522847,17 7,17 6.4477153,17 6,17.447715 6,18 L 5,18 5,11 5,4 6,4 C 6,4.5522847 6.4477153,5 7,5 7.5522847,5 8,4.5522847 8,4 l 4,0 4,0 c 0,0.5522847 0.447715,1 1,1 0.552285,0 1,-0.4477153 1,-1 l 1,0 0,7 0,1 1,0 0,-9 -17,0 z m 17,8 C 19,7.1340068 15.865993,4 12,4 8.1340068,4 5,7.1340068 5,11 c 0.00315,2.700827 1.5597788,5.15891 4,6.316406 L 9,16.189453 C 7.1456648,15.118854 6.0023916,13.1412 6,11 6,7.6862915 8.6862915,5 12,5 c 3.313708,0 6,2.6862915 6,6 -0.002,0.335258 -0.03201,0.669762 -0.08984,1 l 1.011719,0 C 18.971796,11.668964 18.997905,11.334773 19,11 Z M 3,4 4,4 4,18 3,18 Z" transform="translate(421.71429,525.79074)" id="rect4143" inkscape:connector-curvature="0" sodipodi:nodetypes="ccccccscccccscccscccccccccsccccsccccccccc" class="ColorScheme-Text"/>
    <path style="opacity:1;fill:currentColor;fill-opacity:1;stroke:none" d="m 12,12 -2,1.5 2,1.5 0,-1 5,0 c 0.554,0 1,0.446 1,1 l 1,0 c 0,-1.108008 -0.891992,-2 -2,-2 l -5,0 z m -2,4 c 0,1.10801 0.89199,2 2,2 l 5,0 0,1 2,-1.5 -2,-1.5 0,1 -5,0 c -0.554,0 -1,-0.446 -1,-1 z" transform="translate(421.71429,525.79074)" id="rect3344" inkscape:connector-curvature="0" sodipodi:nodetypes="ccccsccscccscccccscc" class="ColorScheme-Text"/>
  </g>
</svg>
