<?xml version="1.0"?>
<!-- Created with Inkscape (http://www.inkscape.org/) -->
<svg xmlns:dc="http://purl.org/dc/elements/1.1/" xmlns:cc="http://creativecommons.org/ns#" xmlns:rdf="http://www.w3.org/1999/02/22-rdf-syntax-ns#" xmlns:svg="http://www.w3.org/2000/svg" xmlns="http://www.w3.org/2000/svg" xmlns:sodipodi="http://sodipodi.sourceforge.net/DTD/sodipodi-0.dtd" xmlns:inkscape="http://www.inkscape.org/namespaces/inkscape" width="24" height="24" id="svg3869" version="1.1" inkscape:version="0.91 r13725" sodipodi:docname="media-album-track.svg">
  <defs id="defs3871">
    <style type="text/css" id="current-color-scheme">
      .ColorScheme-Text {
        color:#4d4d4d;
      }
      .ColorScheme-Background {
        color:#eff0f1;
      }
      .ColorScheme-Highlight {
        color:#3daee9;
      }
      .ColorScheme-ViewText {
        color:#31363b;
      }
      .ColorScheme-ViewBackground {
        color:#fcfcfc;
      }
      .ColorScheme-ViewHover {
        color:#93cee9;
      }
      .ColorScheme-ViewFocus{
        color:#3daee9;
      }
      .ColorScheme-ButtonText {
        color:#31363b;
      }
      .ColorScheme-ButtonBackground {
        color:#eff0f1;
      }
      .ColorScheme-ButtonHover {
        color:#93cee9;
      }
      .ColorScheme-ButtonFocus{
        color:#3daee9;
      }
      </style>
    <linearGradient id="linearGradient4290-48">
      <stop id="stop4292-0" offset="0" style="stop-color:#a5a5a5;stop-opacity:1;"/>
      <stop id="stop4294-0" offset="1" style="stop-color:#f5f2f5;stop-opacity:1;"/>
    </linearGradient>
    <inkscape:perspective id="perspective4146-9" inkscape:persp3d-origin="12 : 8 : 1" inkscape:vp_z="24 : 12 : 1" inkscape:vp_y="0 : 1000 : 0" inkscape:vp_x="0 : 12 : 1" sodipodi:type="inkscape:persp3d"/>
    <inkscape:perspective id="perspective4146" inkscape:persp3d-origin="12 : 8 : 1" inkscape:vp_z="24 : 12 : 1" inkscape:vp_y="0 : 1000 : 0" inkscape:vp_x="0 : 12 : 1" sodipodi:type="inkscape:persp3d"/>
  </defs>
  <sodipodi:namedview id="base" pagecolor="#ffffff" bordercolor="#666666" borderopacity="1.0" inkscape:pageopacity="0.0" inkscape:pageshadow="2" inkscape:zoom="22.627416" inkscape:cx="-1.4804085" inkscape:cy="14.450128" inkscape:document-units="px" inkscape:current-layer="layer1" showgrid="true" fit-margin-top="0" fit-margin-left="0" fit-margin-right="0" fit-margin-bottom="0" inkscape:window-width="2560" inkscape:window-height="948" inkscape:window-x="0" inkscape:window-y="35" inkscape:window-maximized="1" inkscape:showpageshadow="false" inkscape:snap-bbox="true" inkscape:object-nodes="true">
    <inkscape:grid type="xygrid" id="grid4132" originx="1" originy="0.99998262"/>
    <sodipodi:guide position="3,21" orientation="18,0" id="guide4138"/>
    <sodipodi:guide position="3,3" orientation="0,18" id="guide4140"/>
    <sodipodi:guide position="21,3" orientation="-18,0" id="guide4142"/>
    <sodipodi:guide position="21,21" orientation="0,-18" id="guide4144"/>
    <sodipodi:guide position="4,20" orientation="16,0" id="guide4146"/>
    <sodipodi:guide position="4,4" orientation="0,16" id="guide4148"/>
    <sodipodi:guide position="20,4" orientation="-16,0" id="guide4150"/>
    <sodipodi:guide position="11,19.999983" orientation="0,-16" id="guide4152"/>
  </sodipodi:namedview>
  <metadata id="metadata3874">
    <rdf:RDF>
      <cc:Work rdf:about="">
        <dc:format>image/svg+xml</dc:format>
        <dc:type rdf:resource="http://purl.org/dc/dcmitype/StillImage"/>
        <dc:title/>
      </cc:Work>
    </rdf:RDF>
  </metadata>
  <g inkscape:label="Capa 1" inkscape:groupmode="layer" id="layer1" transform="translate(-325,-533.36218)">
    <path inkscape:connector-curvature="0" id="path4167" d="m 342,542.36223 0,1 0,5.5 c -0.4182,-0.3148 -0.934,-0.5 -1.5,-0.5 -1.385,0 -2.5,1.115 -2.5,2.5 0,1.385 1.115,2.5 2.5,2.5 1.385,0 2.5,-1.115 2.5,-2.5 l 0,-6.5 2,0 c 0,-1.108 -0.892,-2 -2,-2 l -1,0 z" style="text-decoration:none;text-decoration-line:none;display:inline;overflow:visible;visibility:visible;fill:currentColor;fill-opacity:1;fill-rule:nonzero;stroke:none;enable-background:accumulate" class="ColorScheme-Text"/>
    <path style="fill:currentColor;fill-opacity:1;stroke:none" d="m 2,3 0,16 1,0 8,0 0,-1 -3,0 A 1,1 0 0 0 7,17 1,1 0 0 0 6,18 L 5,18 5,11 5,4 6,4 A 1,1 0 0 0 7,5 1,1 0 0 0 8,4 l 4,0 4,0 a 1,1 0 0 0 1,1 1,1 0 0 0 1,-1 l 1,0 0,3 1,0 L 20,3 3,3 2,3 Z m 10,1 a 7,7 0 0 0 -7,7 7,7 0 0 0 6,6.921875 l 0,-1.011719 A 6,6 0 0 1 6,11 6,6 0 0 1 12,5 6,6 0 0 1 16.462891,7 l 1.279297,0 A 7,7 0 0 0 12,4 Z M 3,4 4,4 4,18 3,18 3,4 Z" transform="translate(326,534.3622)" id="rect4143" inkscape:connector-curvature="0" class="ColorScheme-Text"/>
  </g>
</svg>
