<?xml version="1.0" encoding="UTF-8" standalone="no"?>
<!-- Created with Inkscape (http://www.inkscape.org/) -->

<svg
   xmlns:dc="http://purl.org/dc/elements/1.1/"
   xmlns:cc="http://creativecommons.org/ns#"
   xmlns:rdf="http://www.w3.org/1999/02/22-rdf-syntax-ns#"
   xmlns:svg="http://www.w3.org/2000/svg"
   xmlns="http://www.w3.org/2000/svg"
   xmlns:sodipodi="http://sodipodi.sourceforge.net/DTD/sodipodi-0.dtd"
   xmlns:inkscape="http://www.inkscape.org/namespaces/inkscape"
   width="24"
   height="24"
   id="svg2"
   version="1.1"
   inkscape:version="0.91 r13725"
   viewBox="0 0 24 24"
   sodipodi:docname="path-simplify.svg">
  <defs
     id="defs4">
    <style
       type="text/css"
       id="current-color-scheme">
      .ColorScheme-Text {
        color:#4d4d4d;
      }
      .ColorScheme-Background {
        color:#eff0f1;
      }
      .ColorScheme-Highlight {
        color:#3daee9;
      }
      .ColorScheme-ViewText {
        color:#31363b;
      }
      .ColorScheme-ViewBackground {
        color:#fcfcfc;
      }
      .ColorScheme-ViewHover {
        color:#93cee9;
      }
      .ColorScheme-ViewFocus{
        color:#3daee9;
      }
      .ColorScheme-ButtonText {
        color:#31363b;
      }
      .ColorScheme-ButtonBackground {
        color:#eff0f1;
      }
      .ColorScheme-ButtonHover {
        color:#93cee9;
      }
      .ColorScheme-ButtonFocus{
        color:#3daee9;
      }
      </style>
  </defs>
  <sodipodi:namedview
     id="base"
     pagecolor="#ffffff"
     bordercolor="#666666"
     borderopacity="1.0"
     inkscape:pageopacity="0.0"
     inkscape:pageshadow="2"
     inkscape:zoom="23.818182"
     inkscape:cx="5.025368"
     inkscape:cy="11.107946"
     inkscape:document-units="px"
     inkscape:current-layer="layer1"
     showgrid="true"
     inkscape:showpageshadow="false"
     borderlayer="true"
     inkscape:window-width="1920"
     inkscape:window-height="1017"
     inkscape:window-x="0"
     inkscape:window-y="0"
     inkscape:window-maximized="1"
     units="px"
     fit-margin-top="0"
     fit-margin-left="0"
     fit-margin-right="0"
     fit-margin-bottom="0"
     inkscape:object-nodes="true"
     inkscape:snap-bbox="true">
    <sodipodi:guide
       position="4,20"
       orientation="16,0"
       id="guide4093" />
    <sodipodi:guide
       position="4,4"
       orientation="0,16"
       id="guide4095" />
    <sodipodi:guide
       position="20,4"
       orientation="-16,0"
       id="guide4097" />
    <sodipodi:guide
       position="20,20"
       orientation="0,-16"
       id="guide4099" />
    <inkscape:grid
       type="xygrid"
       id="grid4101"
       originx="1px"
       originy="0.99998262px" />
    <sodipodi:guide
       position="4,20"
       orientation="16,0"
       id="guide4123" />
    <sodipodi:guide
       position="4,4"
       orientation="0,2.000001"
       id="guide4125" />
    <sodipodi:guide
       position="6.000001,20"
       orientation="0,-2.000001"
       id="guide4129" />
    <sodipodi:guide
       position="18,4"
       orientation="0,2"
       id="guide4133" />
    <sodipodi:guide
       position="20,4"
       orientation="-16,0"
       id="guide4135" />
    <sodipodi:guide
       position="20,20"
       orientation="0,-2"
       id="guide4137" />
  </sodipodi:namedview>
  <metadata
     id="metadata7">
    <rdf:RDF>
      <cc:Work
         rdf:about="">
        <dc:format>image/svg+xml</dc:format>
        <dc:type
           rdf:resource="http://purl.org/dc/dcmitype/StillImage" />
        <dc:title></dc:title>
      </cc:Work>
    </rdf:RDF>
  </metadata>
  <g
     inkscape:label="Capa 1"
     inkscape:groupmode="layer"
     id="layer1"
     transform="translate(1,-1029.3622)">
    <rect
       style="fill:#4d4d4d;fill-opacity:1;stroke:none;stroke-linecap:square"
       id="rect4282"
       width="16"
       height="1"
       x="3"
       y="1048.3622" />
    <path
       style="color:#000000;font-style:normal;font-variant:normal;font-weight:normal;font-stretch:normal;font-size:medium;line-height:normal;font-family:sans-serif;text-indent:0;text-align:start;text-decoration:none;text-decoration-line:none;text-decoration-style:solid;text-decoration-color:#000000;letter-spacing:normal;word-spacing:normal;text-transform:none;direction:ltr;block-progression:tb;writing-mode:lr-tb;baseline-shift:baseline;text-anchor:start;white-space:normal;clip-rule:nonzero;display:inline;overflow:visible;visibility:visible;opacity:1;isolation:auto;mix-blend-mode:normal;color-interpolation:sRGB;color-interpolation-filters:linearRGB;solid-color:#000000;solid-opacity:1;fill:#4d4d4d;fill-opacity:1;fill-rule:evenodd;stroke:none;stroke-width:1px;stroke-linecap:square;stroke-linejoin:miter;stroke-miterlimit:4;stroke-dasharray:none;stroke-dashoffset:0;stroke-opacity:1;color-rendering:auto;image-rendering:auto;shape-rendering:auto;text-rendering:auto;enable-background:accumulate"
       d="m 8,1041.3622 c -1.16667,0 -2.44284,0.5378 -3.47266,1.0527 -0.7531,0.3765 -1.25027,0.6818 -1.52734,0.8574 l 0,1.1914 0.27734,-0.1855 c 0,0 0.72513,-0.4837 1.69532,-0.9688 0.97018,-0.4851 2.19401,-0.9472 3.02734,-0.9472 0.33333,0 0.74189,0.1823 1.19922,0.5253 0.45733,0.343 0.94726,0.8282 1.44726,1.3282 0.5,0.5 1.01007,1.0148 1.55274,1.4218 0.54267,0.407 1.13411,0.7247 1.80078,0.7247 1.16667,0 2.44284,-0.5379 3.47266,-1.0528 0.75263,-0.3763 1.25002,-0.6817 1.52734,-0.8574 l 0,-1.1914 -0.27734,0.1855 c 0,0 -0.72513,0.4837 -1.69532,0.9688 -0.97018,0.4851 -2.19401,0.9473 -3.02734,0.9473 -0.33333,0 -0.74189,-0.1805 -1.19922,-0.5235 -0.45733,-0.343 -0.94726,-0.8301 -1.44726,-1.3301 -0.5,-0.5 -1.01007,-1.0129 -1.55274,-1.4199 -0.54267,-0.407 -1.13411,-0.7265 -1.80078,-0.7265 z"
       id="path4324"
       inkscape:connector-curvature="0" />
    <path
       style="color:#000000;font-style:normal;font-variant:normal;font-weight:normal;font-stretch:normal;font-size:medium;line-height:normal;font-family:sans-serif;text-indent:0;text-align:start;text-decoration:none;text-decoration-line:none;text-decoration-style:solid;text-decoration-color:#000000;letter-spacing:normal;word-spacing:normal;text-transform:none;direction:ltr;block-progression:tb;writing-mode:lr-tb;baseline-shift:baseline;text-anchor:start;white-space:normal;clip-rule:nonzero;display:inline;overflow:visible;visibility:visible;opacity:1;isolation:auto;mix-blend-mode:normal;color-interpolation:sRGB;color-interpolation-filters:linearRGB;solid-color:#000000;solid-opacity:1;fill:#4d4d4d;fill-opacity:1;fill-rule:evenodd;stroke:none;stroke-width:1px;stroke-linecap:butt;stroke-linejoin:miter;stroke-miterlimit:4;stroke-dasharray:none;stroke-dashoffset:0;stroke-opacity:1;color-rendering:auto;image-rendering:auto;shape-rendering:auto;text-rendering:auto;enable-background:accumulate"
       d="m 10.95718,1033.3647 c -0.3411,0 -0.66329,0.1277 -0.90189,0.3299 -0.2386,0.2022 -0.40199,0.4611 -0.52895,0.738 -0.25394,0.5538 -0.3775,1.2046 -0.50613,1.8293 -0.12863,0.6247 -0.26191,1.2235 -0.43763,1.6067 -0.0879,0.1916 -0.18242,0.3232 -0.26638,0.3944 -0.084,0.071 -0.14933,0.1 -0.2816,0.1 -0.12902,0 -0.19107,-0.028 -0.27589,-0.1015 -0.0849,-0.074 -0.18323,-0.2116 -0.27209,-0.41 -0.17775,-0.3969 -0.31044,-1.0129 -0.43953,-1.6478 -0.1291,-0.6348 -0.25194,-1.2864 -0.50803,-1.8371 -0.12804,-0.2753 -0.29478,-0.5342 -0.54228,-0.7282 -0.24748,-0.1939 -0.58138,-0.2994 -0.92281,-0.2713 -0.65328,0.054 -1.1199,0.5445 -1.42514,1.0933 -0.30526,0.5487 -0.49868,1.2054 -0.63932,1.8488 -0.004,0.019 -0.006,0.036 -0.01,0.055 l 1.00274,0 c 0.12581,-0.5297 0.29066,-1.0462 0.4928,-1.4096 0.22349,-0.4018 0.43624,-0.5716 0.65454,-0.5896 0.13042,-0.011 0.18263,0.01 0.25686,0.068 0.0742,0.058 0.16658,0.1772 0.25307,0.3631 0.17299,0.372 0.30488,0.9786 0.43382,1.6126 0.12893,0.6341 0.25518,1.2961 0.50803,1.8606 0.12642,0.2822 0.28711,0.5462 0.52515,0.7536 0.23803,0.2073 0.56325,0.3396 0.9076,0.3396 0.3411,0 0.66329,-0.1258 0.90189,-0.3279 0.2386,-0.2022 0.40199,-0.463 0.52895,-0.74 0.25394,-0.5538 0.37749,-1.2026 0.50613,-1.8273 0.12863,-0.6247 0.26191,-1.2254 0.43762,-1.6087 0.0879,-0.1916 0.18242,-0.3213 0.26639,-0.3924 0.084,-0.071 0.14933,-0.1015 0.2816,-0.1015 0.13227,0 0.1957,0.029 0.27779,0.1 0.082,0.07 0.17471,0.2011 0.26068,0.3924 0.17193,0.3826 0.29893,0.9831 0.42431,1.6087 0.12537,0.6256 0.25002,1.2752 0.50802,1.8312 0.12899,0.2781 0.29529,0.5405 0.53847,0.7419 0.24319,0.2014 0.56828,0.3241 0.91331,0.3241 0.34503,0 0.67103,-0.1237 0.91331,-0.3261 0.24228,-0.2023 0.40615,-0.4635 0.53276,-0.7418 0.25319,-0.5567 0.37103,-1.2065 0.4928,-1.8313 0.12178,-0.6247 0.24749,-1.2244 0.4205,-1.6047 0.0865,-0.1902 0.18141,-0.3195 0.26639,-0.3905 0.085,-0.071 0.15476,-0.1035 0.29682,-0.1035 0.28415,0 0.48296,0.1543 0.70781,0.5389 0.21185,0.3622 0.37891,0.9031 0.49471,1.4603 l 0.99513,0 c -0.006,-0.033 -0.009,-0.064 -0.0152,-0.098 -0.12789,-0.6562 -0.31427,-1.3236 -0.6374,-1.8762 -0.32313,-0.5526 -0.85497,-1.0249 -1.54502,-1.0249 -0.34503,0 -0.67102,0.1256 -0.9133,0.328 -0.24229,0.2023 -0.40616,0.4635 -0.53277,0.7418 -0.25319,0.5567 -0.37103,1.2065 -0.49281,1.8313 -0.12177,0.6247 -0.24748,1.2243 -0.4205,1.6047 -0.0865,0.1902 -0.18139,0.3195 -0.26637,0.3905 -0.0849,0.071 -0.15476,0.1015 -0.29683,0.1015 -0.14207,0 -0.21377,-0.031 -0.30064,-0.1035 -0.0869,-0.072 -0.18368,-0.2018 -0.27208,-0.3924 -0.17679,-0.381 -0.30689,-0.9789 -0.43192,-1.6028 -0.12502,-0.6238 -0.24557,-1.2729 -0.4947,-1.8273 -0.12457,-0.2772 -0.28367,-0.5368 -0.52135,-0.7399 -0.23768,-0.2032 -0.56079,-0.3319 -0.90189,-0.3319 z"
       id="path4330"
       inkscape:connector-curvature="0" />
  </g>
</svg>
