<?xml version="1.0" encoding="UTF-8" standalone="no"?>
<!-- Created with Inkscape (http://www.inkscape.org/) -->

<svg
   xmlns:dc="http://purl.org/dc/elements/1.1/"
   xmlns:cc="http://creativecommons.org/ns#"
   xmlns:rdf="http://www.w3.org/1999/02/22-rdf-syntax-ns#"
   xmlns:svg="http://www.w3.org/2000/svg"
   xmlns="http://www.w3.org/2000/svg"
   xmlns:sodipodi="http://sodipodi.sourceforge.net/DTD/sodipodi-0.dtd"
   xmlns:inkscape="http://www.inkscape.org/namespaces/inkscape"
   width="24"
   height="24"
   id="svg2"
   version="1.1"
   inkscape:version="0.91 r13725"
   viewBox="0 0 24 24"
   sodipodi:docname="tool-tweak.svg">
  <defs
     id="defs4">
    <style
       type="text/css"
       id="current-color-scheme">
      .ColorScheme-Text {
        color:#4d4d4d;
      }
      .ColorScheme-Background {
        color:#eff0f1;
      }
      .ColorScheme-Highlight {
        color:#3daee9;
      }
      .ColorScheme-ViewText {
        color:#31363b;
      }
      .ColorScheme-ViewBackground {
        color:#fcfcfc;
      }
      .ColorScheme-ViewHover {
        color:#93cee9;
      }
      .ColorScheme-ViewFocus{
        color:#3daee9;
      }
      .ColorScheme-ButtonText {
        color:#31363b;
      }
      .ColorScheme-ButtonBackground {
        color:#eff0f1;
      }
      .ColorScheme-ButtonHover {
        color:#93cee9;
      }
      .ColorScheme-ButtonFocus{
        color:#3daee9;
      }
      </style>
  </defs>
  <sodipodi:namedview
     id="base"
     pagecolor="#ffffff"
     bordercolor="#666666"
     borderopacity="1.0"
     inkscape:pageopacity="0.0"
     inkscape:pageshadow="2"
     inkscape:zoom="33.683996"
     inkscape:cx="4.3226496"
     inkscape:cy="13.354899"
     inkscape:document-units="px"
     inkscape:current-layer="layer1"
     showgrid="true"
     inkscape:showpageshadow="false"
     borderlayer="true"
     inkscape:window-width="1920"
     inkscape:window-height="1017"
     inkscape:window-x="0"
     inkscape:window-y="0"
     inkscape:window-maximized="1"
     units="px"
     fit-margin-top="0"
     fit-margin-left="0"
     fit-margin-right="0"
     fit-margin-bottom="0"
     inkscape:object-nodes="true"
     inkscape:snap-bbox="true">
    <sodipodi:guide
       position="4,20"
       orientation="16,0"
       id="guide4093" />
    <sodipodi:guide
       position="4,4"
       orientation="0,16"
       id="guide4095" />
    <sodipodi:guide
       position="20,4"
       orientation="-16,0"
       id="guide4097" />
    <sodipodi:guide
       position="20,20"
       orientation="0,-16"
       id="guide4099" />
    <inkscape:grid
       type="xygrid"
       id="grid4101"
       originx="1px"
       originy="0.99998262px" />
    <sodipodi:guide
       position="4,20"
       orientation="16,0"
       id="guide4123" />
    <sodipodi:guide
       position="4,4"
       orientation="0,2.000001"
       id="guide4125" />
    <sodipodi:guide
       position="6.000001,20"
       orientation="0,-2.000001"
       id="guide4129" />
    <sodipodi:guide
       position="18,4"
       orientation="0,2"
       id="guide4133" />
    <sodipodi:guide
       position="20,4"
       orientation="-16,0"
       id="guide4135" />
    <sodipodi:guide
       position="20,20"
       orientation="0,-2"
       id="guide4137" />
  </sodipodi:namedview>
  <metadata
     id="metadata7">
    <rdf:RDF>
      <cc:Work
         rdf:about="">
        <dc:format>image/svg+xml</dc:format>
        <dc:type
           rdf:resource="http://purl.org/dc/dcmitype/StillImage" />
        <dc:title />
      </cc:Work>
    </rdf:RDF>
  </metadata>
  <g
     inkscape:label="Capa 1"
     inkscape:groupmode="layer"
     id="layer1"
     transform="translate(1,-1029.3622)">
    <path
       style="color:#000000;font-style:normal;font-variant:normal;font-weight:normal;font-stretch:normal;font-size:medium;line-height:normal;font-family:sans-serif;text-indent:0;text-align:start;text-decoration:none;text-decoration-line:none;text-decoration-style:solid;text-decoration-color:#000000;letter-spacing:normal;word-spacing:normal;text-transform:none;direction:ltr;block-progression:tb;writing-mode:lr-tb;baseline-shift:baseline;text-anchor:start;white-space:normal;clip-rule:nonzero;display:inline;overflow:visible;visibility:visible;opacity:1;isolation:auto;mix-blend-mode:normal;color-interpolation:sRGB;color-interpolation-filters:linearRGB;solid-color:#000000;solid-opacity:1;fill:#4d4d4d;fill-opacity:1;fill-rule:evenodd;stroke:none;stroke-width:0.99955291px;stroke-linecap:butt;stroke-linejoin:miter;stroke-miterlimit:4;stroke-dasharray:none;stroke-dashoffset:0;stroke-opacity:1;color-rendering:auto;image-rendering:auto;shape-rendering:auto;text-rendering:auto;enable-background:accumulate"
       d="m 13.005859,1034.3633 c -1.692648,-0.039 -2.939222,0.8949 -3.7695309,2.1894 -0.8309939,1.2956 -1.3295417,2.9601 -1.7460937,4.6055 -0.4165521,1.6454 -0.7475246,3.2766 -1.1601563,4.4531 -0.2063158,0.5883 -0.4356045,1.059 -0.6679687,1.3477 -0.2323643,0.2887 -0.418967,0.3915 -0.671875,0.3965 -0.8603808,2e-4 -1.9902344,0 -1.9902344,0 l 0,1 c 0,0 1.1376932,2e-4 2,0 l 0.00391,0 0.00586,0 c 0.5801965,-0.011 1.0789397,-0.3314 1.4316406,-0.7696 0.352701,-0.4381 0.6060712,-0.9983 0.8320313,-1.6425 0.4519203,-1.2886 0.777203,-2.9281 1.1855469,-4.5411 0.4083438,-1.6129 0.9028937,-3.1938 1.6191406,-4.3105 0.716247,-1.1167 1.569447,-1.7608 2.90625,-1.7285 l 0.0039,0 0.0039,0 c 2.71168,0.022 3.864252,1.1376 4.455078,2.25 0.389039,0.7324 0.328312,1.0498 0.361328,1.4648 -1.69893,-0.7543 -3.136021,-0.9511 -4.144532,-0.4179 -1.201446,0.6351 -1.745653,1.9767 -1.833984,3.3808 -0.08833,1.4042 0.256555,2.926 0.955078,4.1445 0.698524,1.2186 1.807965,2.1706 3.210938,2.17 1.547893,0.015 3.003906,0 3.003906,0 l -0.0098,-1 c 0,0 -1.451508,0.015 -2.990234,0 l -0.002,0 -0.002,0 c -0.9516,4e-4 -1.756588,-0.6417 -2.34375,-1.666 -0.587162,-1.0244 -0.899087,-2.3939 -0.824219,-3.584 0.07487,-1.1902 0.512101,-2.1446 1.302734,-2.5625 0.790634,-0.418 2.09559,-0.3937 4.117188,0.7519 l 0.710937,0.4024 0.03516,-0.8145 c 0,0 0.06615,-1.3635 -0.664063,-2.7383 -0.729688,-1.3737 -2.327863,-2.7551 -5.324219,-2.7812 z"
       id="path4140"
       inkscape:connector-curvature="0" />
  </g>
</svg>
