<?xml version="1.0" encoding="UTF-8" standalone="no"?>
<svg width="64" version="1.1" xmlns="http://www.w3.org/2000/svg" viewBox="0 0 64 64" height="64" xmlns:xlink="http://www.w3.org/1999/xlink" xmlns:inkscape="http://www.inkscape.org/namespaces/inkscape">
 <defs id="defs4">
  <linearGradient inkscape:collect="always" id="linearGradient4410">
   <stop style="stop-color:#383e51" id="stop4412"/>
   <stop offset="1" style="stop-color:#655c6f;stop-opacity:0" id="stop4414"/>
  </linearGradient>
  <linearGradient inkscape:collect="always" xlink:href="#linearGradient4300" id="linearGradient4306-5" y1="61" y2="3" x2="0" gradientUnits="userSpaceOnUse"/>
  <linearGradient inkscape:collect="always" id="linearGradient4300">
   <stop style="stop-color:#26c281" id="stop4302"/>
   <stop offset="1" style="stop-color:#3fc380" id="stop4304"/>
  </linearGradient>
  <linearGradient inkscape:collect="always" xlink:href="#linearGradient4410" id="linearGradient4427-5" y1="31" x1="54" y2="17" x2="40" gradientUnits="userSpaceOnUse" gradientTransform="matrix(1 0 0 -1 -14 78)"/>
  <linearGradient inkscape:collect="always" xlink:href="#linearGradient4351" id="linearGradient4357-8" y1="61" y2="47" x2="0" gradientUnits="userSpaceOnUse"/>
  <linearGradient inkscape:collect="always" id="linearGradient4351">
   <stop style="stop-color:#036b53" id="stop4353"/>
   <stop offset="1" style="stop-color:#036b53" id="stop4355"/>
  </linearGradient>
 </defs>
 <metadata id="metadata84"/>
 <path inkscape:connector-curvature="0" style="fill:url(#linearGradient4306-5)" id="rect3500-9" d="M 10,3 10,61 40,61 54,47 54,17 54,3 40,3 10,3 Z"/>
 <rect width="30" x="10" y="60" height="1" style="fill:#2e3132;fill-opacity:0.294118" id="rect4169-2"/>
 <rect width="44" x="10" y="3" height="1" style="fill:#ffffff;fill-opacity:0.409836" id="rect4236-8"/>
 <path inkscape:connector-curvature="0" style="fill:url(#linearGradient4357-8);fill-rule:evenodd" id="path4314-9" d="M 54,47 40,61 40,47 Z"/>
 <path inkscape:connector-curvature="0" style="fill:url(#linearGradient4427-5);opacity:0.2;fill-rule:evenodd" id="path4320-7" d="M 26,61 40,47 40,61 Z"/>
 <path inkscape:connector-curvature="0" style="fill:#036b53" id="rect4173" d="m 21,32 0,11 22,0 0,-11 -1,0 0,10 -20,0 0,-10 z"/>
 <path inkscape:connector-curvature="0" style="fill:#036b53;stroke-linecap:round;stroke-linejoin:round;stroke-width:2" id="path4835" d="M 32,21 A 11,11 0 0 0 21,32 l 1,0 A 10,10 0 0 1 32,22 10,10 0 0 1 42,32 l 1,0 A 11,11 0 0 0 32,21 Z"/>
 <path inkscape:connector-curvature="0" style="fill:#036b53;stroke-linecap:round;stroke-linejoin:round;stroke-width:2" id="rect4847" d="m 30,38 0,1 0,2 4,0 0,-2 -2,0 0,-1 -2,0 z"/>
 <rect width="2" x="32" y="36" height="2" style="fill:#036b53;stroke-linecap:round;stroke-linejoin:round;stroke-width:2" id="rect4855"/>
 <rect width="2" x="30" y="34" height="2" style="fill:#036b53;stroke-linecap:round;stroke-linejoin:round;stroke-width:2" id="rect4857"/>
 <circle cx="26.5" cy="28.5" style="fill:#036b53;stroke-linecap:round;stroke-linejoin:round;stroke-width:2" id="path4867" r="1.5"/>
 <circle cx="37.5" cy="28.5" style="fill:#036b53;stroke-linecap:round;stroke-linejoin:round;stroke-width:2" id="path4869" r="1.5"/>
 <rect width="20" x="22" y="34" height="1" style="fill:#036b53;stroke-linecap:round;stroke-linejoin:round;stroke-width:2" id="rect4872"/>
 <path inkscape:connector-curvature="0" style="shape-rendering:auto;color-interpolation-filters:linearRGB;fill:#036b53;image-rendering:auto;text-rendering:auto;color:#000000;fill-rule:evenodd;stroke-linecap:round;stroke-linejoin:round;color-rendering:auto;color-interpolation:sRGB" id="path4874" d="m 21.994141,22.494141 c -0.449403,9.1e-5 -0.670588,0.54684 -0.347657,0.859375 l 2,2 c 0.471255,0.490773 1.197805,-0.235777 0.707032,-0.707032 l -2,-2 c -0.09421,-0.09737 -0.223892,-0.152343 -0.359375,-0.152343 z"/>
 <path inkscape:connector-curvature="0" style="shape-rendering:auto;color-interpolation-filters:linearRGB;fill:#036b53;image-rendering:auto;text-rendering:auto;color:#000000;fill-rule:evenodd;stroke-linecap:round;stroke-linejoin:round;color-rendering:auto;color-interpolation:sRGB" id="path4874-1" d="m 42.007273,22.494141 c 0.449403,9.1e-5 0.670588,0.54684 0.347657,0.859375 l -2,2 c -0.471255,0.490773 -1.197805,-0.235777 -0.707032,-0.707032 l 2,-2 c 0.09421,-0.09737 0.223892,-0.152343 0.359375,-0.152343 z"/>
</svg>
