<?xml version="1.0" encoding="UTF-8" standalone="no"?>
<svg width="64" version="1.1" xmlns="http://www.w3.org/2000/svg" viewBox="0 0 64 64" height="64" xmlns:xlink="http://www.w3.org/1999/xlink" xmlns:inkscape="http://www.inkscape.org/namespaces/inkscape">
 <defs id="defs4">
  <linearGradient inkscape:collect="always" xlink:href="#linearGradient4300-7" id="linearGradient4306" y1="61" y2="3" x2="0" gradientUnits="userSpaceOnUse"/>
  <linearGradient inkscape:collect="always" id="linearGradient4410">
   <stop style="stop-color:#383e51" id="stop4412"/>
   <stop offset="1" style="stop-color:#655c6f;stop-opacity:0" id="stop4414"/>
  </linearGradient>
  <linearGradient inkscape:collect="always" xlink:href="#linearGradient4351-8" id="linearGradient4357" y1="61" y2="47" x2="0" gradientUnits="userSpaceOnUse"/>
  <linearGradient inkscape:collect="always" id="linearGradient4351-8">
   <stop style="stop-color:#dedede" id="stop4353-5"/>
   <stop offset="1" style="stop-color:#ececec" id="stop4355-8"/>
  </linearGradient>
  <linearGradient inkscape:collect="always" id="linearGradient4300-7">
   <stop style="stop-color:#6c7a89" id="stop4302-2"/>
   <stop offset="1" style="stop-color:#768492" id="stop4304-4"/>
  </linearGradient>
  <linearGradient inkscape:collect="always" id="linearGradient4300-5-6">
   <stop style="stop-color:#22a7f0" id="stop4302-7-2"/>
   <stop offset="1" style="stop-color:#19b5fe" id="stop4304-1-5"/>
  </linearGradient>
  <linearGradient id="linearGradient4351-1-8">
   <stop style="stop-color:#c8e3fe" id="stop4353-6-8"/>
   <stop offset="1" style="stop-color:#e4f1fe" id="stop4355-2-0"/>
  </linearGradient>
  <linearGradient inkscape:collect="always" id="linearGradient4357-3" xlink:href="#linearGradient4351-1-8" y1="61" y2="47" gradientUnits="userSpaceOnUse" x2="0"/>
  <linearGradient inkscape:collect="always" id="linearGradient4427-1" xlink:href="#linearGradient4410" y1="31" y2="17" x1="54" gradientUnits="userSpaceOnUse" x2="40" gradientTransform="matrix(1 0 0 -1 -14 78)"/>
  <linearGradient inkscape:collect="always" id="linearGradient4306-1" xlink:href="#linearGradient4300-5-6" y1="61" y2="3" gradientUnits="userSpaceOnUse" x2="0"/>
  <linearGradient inkscape:collect="always" xlink:href="#linearGradient4410" id="linearGradient3092" y1="31" x1="54" y2="17" gradientUnits="userSpaceOnUse" x2="40" gradientTransform="matrix(1 0 0 -1 42.681461 72.28764)"/>
  <linearGradient inkscape:collect="always" xlink:href="#linearGradient4351-1-8" id="linearGradient3095" y1="61" y2="47" gradientUnits="userSpaceOnUse" x2="0" gradientTransform="matrix(1 0 0 1 56.681461 -5.712363)"/>
  <linearGradient inkscape:collect="always" xlink:href="#linearGradient4300-5-6" id="linearGradient3100" y1="61" y2="3" gradientUnits="userSpaceOnUse" x2="0" gradientTransform="matrix(1 0 0 1 56.681461 -5.712363)"/>
 </defs>
 <metadata id="metadata84"/>
 <path style="fill:#ececec;fill-rule:evenodd" id="path4171" d="M 21 21 L 21 43 L 43 43 L 43 21 L 21 21 z M 22 26 L 42 26 L 42 42 L 22 42 L 22 26 z "/>
 <path style="fill:url(#linearGradient4306)" id="rect3500" d="M 10 3 L 10 61 L 40 61 L 54 47 L 54 17 L 54 3 L 40 3 L 10 3 z "/>
 <rect width="30" x="10" y="60" height="1" style="fill:#2e3132;fill-opacity:0.294118" id="rect4169"/>
 <rect width="44" x="10" y="3" height="1" style="fill:#ffffff;fill-opacity:0.409836" id="rect4236"/>
 <path inkscape:connector-curvature="0" style="fill:url(#linearGradient4357);fill-rule:evenodd" id="path4314" d="M 54,47 40,61 40,47 Z"/>
 <path inkscape:connector-curvature="0" style="fill:url(#linearGradient4427-1);opacity:0.2;fill-rule:evenodd" id="path4320" d="M 26,61 40,47 40,61 Z"/>
 <path inkscape:connector-curvature="0" style="fill:#ececec" id="rect4168-5" d="m 21,21 0,22 1,0 0,-2 2,0 0,2 1,0 14,0 1,0 0,-2 2,0 0,2 1,0 0,-22 -1,0 0,2 -2,0 0,-2 -16,0 0,2 -2,0 0,-2 -1,0 z m 4,1 14,0 0,9 -14,0 0,-9 z m -3,3 2,0 0,2 -2,0 0,-2 z m 18,0 2,0 0,2 -2,0 0,-2 z m -18,4 2,0 0,2 -2,0 0,-2 z m 18,0 2,0 0,2 -2,0 0,-2 z m -18,4 2,0 0,2 -2,0 0,-2 z m 3,0 14,0 0,9 -14,0 0,-9 z m 15,0 2,0 0,2 -2,0 0,-2 z m -18,4 2,0 0,2 -2,0 0,-2 z m 18,0 2,0 0,2 -2,0 0,-2 z"/>
</svg>
