<?xml version="1.0" encoding="UTF-8" standalone="no"?>
<svg width="64" version="1.1" xmlns="http://www.w3.org/2000/svg" viewBox="0 0 64 64" height="64" xmlns:xlink="http://www.w3.org/1999/xlink" xmlns:inkscape="http://www.inkscape.org/namespaces/inkscape">
 <defs id="defs4">
  <linearGradient inkscape:collect="always" id="linearGradient4351">
   <stop style="stop-color:#fb7d80" id="stop4353"/>
   <stop offset="1" style="stop-color:#fcbcbe" id="stop4355"/>
  </linearGradient>
  <linearGradient inkscape:collect="always" id="linearGradient4300">
   <stop style="stop-color:#cf000f" id="stop4302"/>
   <stop offset="1" style="stop-color:#d91e18" id="stop4304"/>
  </linearGradient>
  <linearGradient inkscape:collect="always" xlink:href="#linearGradient4300" id="linearGradient4306" y1="61" y2="3" x2="0" gradientUnits="userSpaceOnUse"/>
  <linearGradient inkscape:collect="always" xlink:href="#linearGradient4410" id="linearGradient4427" y1="31" x1="54" y2="17" x2="40" gradientUnits="userSpaceOnUse" gradientTransform="matrix(1 0 0 -1 -14 78)"/>
  <linearGradient inkscape:collect="always" id="linearGradient4410">
   <stop style="stop-color:#383e51" id="stop4412"/>
   <stop offset="1" style="stop-color:#655c6f;stop-opacity:0" id="stop4414"/>
  </linearGradient>
  <linearGradient inkscape:collect="always" xlink:href="#linearGradient4351" id="linearGradient4357" y1="61" y2="47" x2="0" gradientUnits="userSpaceOnUse"/>
 </defs>
 <metadata id="metadata84"/>
 <path style="fill:url(#linearGradient4306)" id="rect3500" d="M 10 3 L 10 61 L 40 61 L 54 47 L 54 17 L 54 3 L 40 3 L 10 3 z "/>
 <rect width="30" x="10" y="60" height="1" style="fill:#2e3132;fill-opacity:0.294118" id="rect4169"/>
 <rect width="44" x="10" y="3" height="1" style="fill:#ffffff;fill-opacity:0.409836" id="rect4236"/>
 <path inkscape:connector-curvature="0" style="fill:url(#linearGradient4357);fill-rule:evenodd" id="path4314" d="M 54,47 40,61 40,47 Z"/>
 <path inkscape:connector-curvature="0" style="fill:url(#linearGradient4427);opacity:0.2;fill-rule:evenodd" id="path4320" d="M 26,61 40,47 40,61 Z"/>
 <path style="fill:#fcbcbe" id="rect4186" d="M 27.966797 21 L 27 21.259766 L 27.513672 23.173828 L 28.478516 22.914062 L 27.966797 21 z M 36.033203 21 L 35.521484 22.914062 L 36.486328 23.173828 L 37 21.259766 L 36.033203 21 z M 23.865234 21.400391 L 23 21.900391 L 25 25.363281 L 25.865234 24.863281 L 23.865234 21.400391 z M 40.134766 21.400391 L 38.134766 24.863281 L 39 25.363281 L 41 21.900391 L 40.134766 21.400391 z M 21.5 25.158203 L 21 26.023438 L 22.716797 27.015625 L 23.216797 26.148438 L 21.5 25.158203 z M 42.5 25.158203 L 40.783203 26.148438 L 41.283203 27.015625 L 43 26.023438 L 42.5 25.158203 z M 25.986328 27 L 22 30.986328 L 22 31 L 31.126953 41.953125 L 31.166016 42 L 32 43 L 32.873047 41.953125 L 32.931641 41.880859 L 42 31 L 42 30.992188 L 38.007812 27 L 38 27 L 27.080078 27 L 25.986328 27 z M 26.400391 28 L 27.349609 28 L 27.884766 30 L 24.400391 30 L 26.400391 28 z M 28.384766 28 L 30.828125 28 L 29.673828 30 L 28.921875 30 L 28.384766 28 z M 31.984375 28 L 32.015625 28 L 33.169922 30 L 30.830078 30 L 31.984375 28 z M 33.171875 28 L 35.615234 28 L 35.078125 30 L 34.326172 30 L 33.171875 28 z M 36.652344 28 L 37.59375 28 L 39.59375 30 L 36.115234 30 L 36.652344 28 z M 23.287109 31 L 23.400391 31 L 28.152344 31 L 30.462891 39.619141 L 23.287109 31 z M 29.189453 31 L 30.251953 31 L 33.748047 31 L 34.810547 31 L 32.009766 41.455078 L 32 41.466797 L 31.990234 41.455078 L 29.189453 31 z M 35.847656 31 L 40.59375 31 L 40.712891 31 L 33.537109 39.619141 L 35.847656 31 z "/>
</svg>
