<?xml version="1.0" encoding="UTF-8" standalone="no"?>
<svg width="64" version="1.1" xmlns="http://www.w3.org/2000/svg" viewBox="0 0 64 64" height="64" xmlns:xlink="http://www.w3.org/1999/xlink" xmlns:inkscape="http://www.inkscape.org/namespaces/inkscape">
 <defs id="defs4">
  <linearGradient inkscape:collect="always" xlink:href="#linearGradient4300-7" id="linearGradient4306" y1="61" y2="3" x2="0" gradientUnits="userSpaceOnUse"/>
  <linearGradient inkscape:collect="always" xlink:href="#linearGradient4410" id="linearGradient4427" y1="31" x1="54" y2="17" x2="40" gradientUnits="userSpaceOnUse" gradientTransform="matrix(1 0 0 -1 -14 78)"/>
  <linearGradient inkscape:collect="always" id="linearGradient4410">
   <stop style="stop-color:#383e51" id="stop4412"/>
   <stop offset="1" style="stop-color:#655c6f;stop-opacity:0" id="stop4414"/>
  </linearGradient>
  <linearGradient inkscape:collect="always" xlink:href="#linearGradient4351-8" id="linearGradient4357" y1="61" y2="47" x2="0" gradientUnits="userSpaceOnUse"/>
  <linearGradient inkscape:collect="always" id="linearGradient4351-8">
   <stop style="stop-color:#dedede" id="stop4353-5"/>
   <stop offset="1" style="stop-color:#fbfbfb" id="stop4355-8"/>
  </linearGradient>
  <linearGradient inkscape:collect="always" id="linearGradient4300-7">
   <stop style="stop-color:#5e6b78" id="stop4302-2"/>
   <stop offset="1" style="stop-color:#768492" id="stop4304-4"/>
  </linearGradient>
 </defs>
 <metadata id="metadata84"/>
 <path style="fill:url(#linearGradient4306)" id="rect3500" d="M 10 3 L 10 61 L 40 61 L 54 47 L 54 17 L 54 3 L 40 3 L 10 3 z "/>
 <rect width="30" x="10" y="60" height="1" style="fill:#2e3132;fill-opacity:0.294118" id="rect4169"/>
 <rect width="44" x="10" y="3" height="1" style="fill:#ffffff;fill-opacity:0.409836" id="rect4236"/>
 <path inkscape:connector-curvature="0" style="fill:url(#linearGradient4357);fill-rule:evenodd" id="path4314" d="M 54,47 40,61 40,47 Z"/>
 <path inkscape:connector-curvature="0" style="fill:url(#linearGradient4427);opacity:0.2;fill-rule:evenodd" id="path4320" d="M 26,61 40,47 40,61 Z"/>
 <path inkscape:connector-curvature="0" style="fill:#fbfbfb;fill-rule:evenodd" id="path4171" d="m 21,21 0,22 22,0 0,-22 z m 1,5 20,0 0,16 -20,0 z"/>
 <path inkscape:connector-curvature="0" style="fill:#ffffff;stroke-linecap:round;stroke-linejoin:round;stroke-width:2" id="rect4169-4" d="m 32.5,28 c -0.97222,0 -1.880002,0.340939 -2.519531,0.980469 C 29.340939,29.619998 29,30.52778 29,31.5 l 2,0 c 0,-0.527775 0.159067,-0.869999 0.394531,-1.105469 C 31.630001,30.159061 31.972225,30 32.5,30 c 0.52778,0 0.869998,0.159061 1.105469,0.394531 C 33.840939,30.630001 34,30.972225 34,31.5 c 0,0.458335 -0.09035,0.653322 -0.210938,0.826172 -0.521275,0.525906 -1.151711,0.975552 -1.658203,1.40625 -0.571674,0.429224 -1.130566,0.99196 -1.130566,1.767578 l 0,0.5 2,0 0,-0.5 c 0.71082,-0.727657 1.769964,-1.362163 2.429394,-2.029297 C 35.777847,32.971673 36,32.29167 36,31.5 36,30.52778 35.659067,29.619999 35.019531,28.980469 34.380001,28.340939 33.472225,28 32.5,28 Z m -1.499707,10 0,2 2,0 0,-2 z"/>
</svg>
