<?xml version="1.0" encoding="UTF-8" standalone="no"?>
<svg width="64" version="1.1" xmlns="http://www.w3.org/2000/svg" viewBox="0 0 64 64" height="64" xmlns:xlink="http://www.w3.org/1999/xlink" xmlns:inkscape="http://www.inkscape.org/namespaces/inkscape">
 <defs id="defs4">
  <linearGradient inkscape:collect="always" id="linearGradient4351">
   <stop style="stop-color:#c8e3fe" id="stop4353"/>
   <stop offset="1" style="stop-color:#ffffff" id="stop4355"/>
  </linearGradient>
  <linearGradient inkscape:collect="always" id="linearGradient4300">
   <stop style="stop-color:#22a7f0" id="stop4302"/>
   <stop offset="1" style="stop-color:#19b5fe" id="stop4304"/>
  </linearGradient>
  <linearGradient inkscape:collect="always" xlink:href="#linearGradient4300" id="linearGradient4306" y1="61" y2="3" x2="0" gradientUnits="userSpaceOnUse"/>
  <linearGradient inkscape:collect="always" xlink:href="#linearGradient4410" id="linearGradient4427" y1="31" x1="54" y2="17" x2="40" gradientUnits="userSpaceOnUse" gradientTransform="matrix(1 0 0 -1 -14 78)"/>
  <linearGradient inkscape:collect="always" id="linearGradient4410">
   <stop style="stop-color:#383e51" id="stop4412"/>
   <stop offset="1" style="stop-color:#655c6f;stop-opacity:0" id="stop4414"/>
  </linearGradient>
  <linearGradient inkscape:collect="always" xlink:href="#linearGradient4351" id="linearGradient4357" y1="61" y2="47" x2="0" gradientUnits="userSpaceOnUse"/>
 </defs>
 <metadata id="metadata84"/>
 <path style="fill:url(#linearGradient4306)" id="rect3500" d="M 10 3 L 10 61 L 40 61 L 54 47 L 54 17 L 54 3 L 40 3 L 10 3 z "/>
 <rect width="30" x="10" y="60" height="1" style="fill:#2e3132;fill-opacity:0.294118" id="rect4169"/>
 <rect width="44" x="10" y="3" height="1" style="fill:#ffffff;fill-opacity:0.409836" id="rect4236"/>
 <path inkscape:connector-curvature="0" style="fill:url(#linearGradient4357);fill-rule:evenodd" id="path4314" d="M 54,47 40,61 40,47 Z"/>
 <path inkscape:connector-curvature="0" style="fill:url(#linearGradient4427);opacity:0.2;fill-rule:evenodd" id="path4320" d="M 26,61 40,47 40,61 Z"/>
 <rect width="0" x="-84.52589" y="-16.787926" height="26.669199" style="fill:#ffffff" id="rect4035"/>
 <rect width="0" x="-71.67561" y="24.24934" height="26.669199" style="fill:#ffffff" id="rect4035-8"/>
 <rect width="0" x="-68.32799" y="22.320848" height="26.669199" style="fill:#ffffff" id="rect4035-0"/>
 <rect width="0" x="-84.52589" y="-16.787926" height="26.669199" style="fill:#ffffff" id="rect4035-3"/>
 <rect width="0" x="-71.67561" y="24.24934" height="26.669199" style="fill:#ffffff" id="rect4035-8-9"/>
 <rect width="0" x="-68.328" y="22.320848" height="26.669199" style="fill:#ffffff" id="rect4035-0-4"/>
 <path inkscape:connector-curvature="0" style="fill:#ffffff" id="rect4274" d="m 21,21 0,1 0,1 0,1 22,0 0,-1 0,-1 0,-1 -22,0 z m 8.46875,5 0.03125,0.875 6,8.125 -6.5,8 0,1 14,0 0,-5 -1,0 c 0,1 0.259312,1.620032 -0.59375,2.21875 C 40.47102,41.87512 39.239383,42 38.15625,42 L 33,42 l 5,-7 -5,-8 2.9375,0 c 2.084094,0 5.050355,-0.192414 5.875,2.3125 C 41.95347,29.740691 41.96451,30.550399 42,31 l 1,0 0,-5 -13.53125,0 z M 21,27 l 0,1 7,0 0,-1 -7,0 z m 0,3 0,1 9,0 0,-1 -9,0 z m 0,3 0,1 11,0 0,-1 -11,0 z m 0,3 0,1 11,0 0,-1 -11,0 z m 0,3 0,1 9,0 0,-1 -9,0 z m 0,3 0,1 6,0 0,-1 -6,0 z"/>
</svg>
