<svg width="64" height="64" viewBox="0 0 64 64" fill="none" xmlns="http://www.w3.org/2000/svg">
<path d="M10 60.978V2.978H40L54 16.978V60.978H40H10Z" fill="#87D062"/>
<path opacity="0.5" d="M40 3H10V4H40V3Z" fill="white"/>
<path opacity="0.25" d="M54 60H10V61H54V60Z" fill="black"/>
<path opacity="0.5" fill-rule="evenodd" clip-rule="evenodd" d="M54 17L40 3V17H54Z" fill="white"/>
<path opacity="0.2" fill-rule="evenodd" clip-rule="evenodd" d="M40 17L54 31V17H40Z" fill="url(#paint0_linear)"/>
<path d="M10 60.978V2.978H40L54 16.978V60.978H40H10Z" fill="url(#paint1_linear)"/>
<path fill-rule="evenodd" clip-rule="evenodd" d="M29.4805 21.8377C28.4594 22.1179 27.507 22.5642 26.6542 23.1457C26.5734 23.4668 26.5218 23.7945 26.5 24.125C26.5394 26.0499 27.3324 27.8141 29 28.7764V37L32 40L36.4097 35.8125L35 34V33L36.4097 31.6875L35 30V28.7764C36.6676 27.8141 37.4606 26.0499 37.5 24.125C37.4898 23.805 37.4518 23.4866 37.3863 23.1735C36.5238 22.5788 35.5583 22.123 34.5218 21.8383C34.6495 22.1266 34.7268 22.4349 34.75 22.75C34.75 24.2688 33.5188 25.5 32 25.5C30.4812 25.5 29.25 24.2688 29.25 22.75C29.2739 22.4347 29.3519 22.1261 29.4805 21.8377ZM31 29H30V36H31V29Z" fill="white"/>
<circle cx="32" cy="32" r="10.5" stroke="white"/>
<path d="M46.5 41.5C46.5 41.538 46.4841 41.6161 46.3691 41.7326C46.2519 41.8514 46.0575 41.9812 45.7779 42.1011C45.2204 42.34 44.4154 42.5 43.5 42.5C42.5846 42.5 41.7796 42.34 41.2221 42.1011C40.9425 41.9812 40.7481 41.8514 40.6309 41.7326C40.5159 41.6161 40.5 41.538 40.5 41.5C40.5 41.462 40.5159 41.3839 40.6309 41.2674C40.7481 41.1486 40.9425 41.0188 41.2221 40.8989C41.7796 40.66 42.5846 40.5 43.5 40.5C44.4154 40.5 45.2204 40.66 45.7779 40.8989C46.0575 41.0188 46.2519 41.1486 46.3691 41.2674C46.4841 41.3839 46.5 41.462 46.5 41.5Z" stroke="white"/>
<rect x="40" y="41.5" width="1" height="4" fill="white"/>
<rect x="46" y="41.5" width="1" height="4" fill="white"/>
<path fill-rule="evenodd" clip-rule="evenodd" d="M41.1426 43.5H40C40 44.3284 41.567 45 43.5 45C45.433 45 47 44.3284 47 43.5H45.8574C45.7879 43.5433 45.6971 43.5918 45.581 43.6415C45.0994 43.8479 44.3643 44 43.5 44C42.6357 44 41.9006 43.8479 41.419 43.6415C41.3029 43.5918 41.2121 43.5433 41.1426 43.5Z" fill="white"/>
<path fill-rule="evenodd" clip-rule="evenodd" d="M41.1426 45.5H40C40 46.3284 41.567 47 43.5 47C45.433 47 47 46.3284 47 45.5H45.8574C45.7879 45.5433 45.6971 45.5918 45.581 45.6415C45.0994 45.8479 44.3643 46 43.5 46C42.6357 46 41.9006 45.8479 41.419 45.6415C41.3029 45.5918 41.2121 45.5433 41.1426 45.5Z" fill="white"/>
<defs>
<linearGradient id="paint0_linear" x1="40" y1="17" x2="54" y2="31" gradientUnits="userSpaceOnUse">
<stop stop-color="#383E51"/>
<stop offset="1" stop-color="#655C6F" stop-opacity="0"/>
</linearGradient>
<linearGradient id="paint1_linear" x1="-3.14279e-07" y1="2.978" x2="-3.14279e-07" y2="60.978" gradientUnits="userSpaceOnUse">
<stop stop-color="white" stop-opacity="0"/>
<stop offset="1" stop-color="white" stop-opacity="0.2"/>
</linearGradient>
</defs>
</svg>
