<?xml version="1.0" encoding="UTF-8" standalone="no"?>
<svg width="64" version="1.1" xmlns="http://www.w3.org/2000/svg" viewBox="0 0 64 64" height="64" xmlns:xlink="http://www.w3.org/1999/xlink" xmlns:inkscape="http://www.inkscape.org/namespaces/inkscape">
 <defs id="defs4">
  <linearGradient inkscape:collect="always" xlink:href="#linearGradient4300-1" id="linearGradient4306" y1="61" y2="3" x2="0" gradientUnits="userSpaceOnUse"/>
  <linearGradient inkscape:collect="always" xlink:href="#linearGradient4410" id="linearGradient4427" y1="31" x1="54" y2="17" x2="40" gradientUnits="userSpaceOnUse" gradientTransform="matrix(1 0 0 -1 -14 78)"/>
  <linearGradient inkscape:collect="always" id="linearGradient4410">
   <stop style="stop-color:#383e51" id="stop4412"/>
   <stop offset="1" style="stop-color:#655c6f;stop-opacity:0" id="stop4414"/>
  </linearGradient>
  <linearGradient inkscape:collect="always" xlink:href="#linearGradient4351-2" id="linearGradient4357" y1="61" y2="47" x2="0" gradientUnits="userSpaceOnUse"/>
  <linearGradient inkscape:collect="always" id="linearGradient4351-2">
   <stop style="stop-color:#d3bdd7" id="stop4353-8"/>
   <stop offset="1" style="stop-color:#e8d9eb" id="stop4355-6"/>
  </linearGradient>
  <linearGradient inkscape:collect="always" id="linearGradient4300-1">
   <stop style="stop-color:#8e44ad" id="stop4302-0"/>
   <stop offset="1" style="stop-color:#9b59b6" id="stop4304-6"/>
  </linearGradient>
 </defs>
 <metadata id="metadata84"/>
 <path style="fill:url(#linearGradient4306)" id="rect3500" d="M 10 3 L 10 61 L 40 61 L 54 47 L 54 17 L 54 3 L 40 3 L 10 3 z "/>
 <rect width="30" x="10" y="60" height="1" style="fill:#2e3132;fill-opacity:0.294118" id="rect4169"/>
 <rect width="44" x="10" y="3" height="1" style="fill:#ffffff;fill-opacity:0.409836" id="rect4236"/>
 <path inkscape:connector-curvature="0" style="fill:url(#linearGradient4357);fill-rule:evenodd" id="path4314" d="M 54,47 40,61 40,47 Z"/>
 <path inkscape:connector-curvature="0" style="fill:url(#linearGradient4427);opacity:0.2;fill-rule:evenodd" id="path4320" d="M 26,61 40,47 40,61 Z"/>
 <path style="fill:#e8d9eb" id="rect4185" d="M 32 21 A 11 3 0 0 0 21 24 L 21 29 L 21 35 L 21 40 A 11 3 0 0 0 32 43 A 11 3 0 0 0 43 40 L 43 35 L 43 29 L 43 24 A 11 3 0 0 0 32 21 z M 32 22 A 10 2 0 0 1 42 24 A 10 2 0 0 1 32 26 A 10 2 0 0 1 22 24 A 10 2 0 0 1 32 22 z M 22 25.242188 A 11 3 0 0 0 32 27 A 11 3 0 0 0 42 25.242188 L 42 29 A 10 2 0 0 1 32 31 A 10 2 0 0 1 22 29 L 22 25.242188 z M 22 30.242188 A 11 3 0 0 0 32 32 A 11 3 0 0 0 42 30.242188 L 42 35 A 10 2 0 0 1 32 37 A 10 2 0 0 1 22 35 L 22 30.242188 z M 22 36.242188 A 11 3 0 0 0 32 38 A 11 3 0 0 0 42 36.242188 L 42 39 L 42 40 A 10 2 0 0 1 32 42 A 10 2 0 0 1 22 40 L 22 39 L 22 36.242188 z "/>
</svg>
