<?xml version="1.0" encoding="UTF-8" standalone="no"?>
<svg width="64" version="1.1" xmlns="http://www.w3.org/2000/svg" viewBox="0 0 64 64" height="64" xmlns:xlink="http://www.w3.org/1999/xlink" xmlns:inkscape="http://www.inkscape.org/namespaces/inkscape">
 <defs id="defs4">
  <linearGradient inkscape:collect="always" id="linearGradient4351">
   <stop style="stop-color:#444e7e" id="stop4353"/>
   <stop offset="1" style="stop-color:#5a669e" id="stop4355"/>
  </linearGradient>
  <linearGradient inkscape:collect="always" id="linearGradient4300">
   <stop style="stop-color:#8892bf" id="stop4302"/>
   <stop offset="1" style="stop-color:#939dc9" id="stop4304"/>
  </linearGradient>
  <linearGradient inkscape:collect="always" xlink:href="#linearGradient4300" id="linearGradient4306" y1="61" y2="3" x2="0" gradientUnits="userSpaceOnUse"/>
  <linearGradient inkscape:collect="always" xlink:href="#linearGradient4410" id="linearGradient4427" y1="31" x1="54" y2="17" x2="40" gradientUnits="userSpaceOnUse" gradientTransform="matrix(1 0 0 -1 -14 78)"/>
  <linearGradient inkscape:collect="always" id="linearGradient4410">
   <stop style="stop-color:#383e51" id="stop4412"/>
   <stop offset="1" style="stop-color:#655c6f;stop-opacity:0" id="stop4414"/>
  </linearGradient>
  <linearGradient inkscape:collect="always" xlink:href="#linearGradient4351" id="linearGradient4357" y1="61" y2="47" x2="0" gradientUnits="userSpaceOnUse"/>
 </defs>
 <metadata id="metadata84"/>
 <path style="fill:url(#linearGradient4306)" id="rect3500" d="M 10 3 L 10 61 L 40 61 L 54 47 L 54 17 L 54 3 L 40 3 L 10 3 z "/>
 <rect width="30" x="10" y="60" height="1" style="fill:#2e3132;fill-opacity:0.294118" id="rect4169"/>
 <rect width="44" x="10" y="3" height="1" style="fill:#ffffff;fill-opacity:0.409836" id="rect4236"/>
 <path inkscape:connector-curvature="0" style="fill:url(#linearGradient4357);fill-rule:evenodd" id="path4314" d="M 54,47 40,61 40,47 Z"/>
 <path inkscape:connector-curvature="0" style="fill:url(#linearGradient4427);opacity:0.2;fill-rule:evenodd" id="path4320" d="M 26,61 40,47 40,61 Z"/>
 <path inkscape:connector-curvature="0" style="fill:#444e7e" id="path4317" d="M 27,26 27.707031,26.707031 22.414062,32 27.707031,37.292969 27,38 21.707031,32.707031 21,32 21.707031,31.292969 27,26 Z"/>
 <rect width="1" x="38.691837" y="11.373416" height="22.507999" style="fill:#444e7e" id="rect4323" transform="matrix(0.96592583 0.25881905 -0.25881905 0.96592583 0 0)"/>
 <path inkscape:connector-curvature="0" style="fill:#444e7e;stroke-width:3.779527" id="rect4210" d="m 39,24 c -2.216,0 -4,1.784 -4,4 l 0,2 1,0 0,-2 c 0,-1.662 1.338,-3 3,-3 1.662,0 3,1.338 3,3 l 0,2.138672 C 40.273703,30.582364 39,32.13145 39,34 l 1,0 c 0,-1.319549 0.843422,-2.434861 2.022784,-2.838454 C 43,30.899702 43,30.998627 43,30 l 0,-2 c 0,-2.216 -1.784,-4 -4,-4 z m 0.5,11 C 38.671573,35 38,35.671573 38,36.5 38,37.328427 38.671573,38 39.5,38 40.328427,38 41,37.328427 41,36.5 41,35.671573 40.328427,35 39.5,35 Z"/>
</svg>
