<?xml version="1.0" encoding="UTF-8" standalone="no"?>
<svg width="64" version="1.1" xmlns="http://www.w3.org/2000/svg" viewBox="0 0 64 64" height="64" xmlns:xlink="http://www.w3.org/1999/xlink" xmlns:inkscape="http://www.inkscape.org/namespaces/inkscape">
 <defs id="defs4">
  <linearGradient inkscape:collect="always" xlink:href="#linearGradient4300-9" id="linearGradient4306" y1="61" y2="3" x2="0" gradientUnits="userSpaceOnUse"/>
  <linearGradient inkscape:collect="always" xlink:href="#linearGradient4410" id="linearGradient4427" y1="31" x1="54" y2="17" x2="40" gradientUnits="userSpaceOnUse" gradientTransform="matrix(1 0 0 -1 -14 78)"/>
  <linearGradient inkscape:collect="always" id="linearGradient4410">
   <stop style="stop-color:#383e51" id="stop4412"/>
   <stop offset="1" style="stop-color:#655c6f;stop-opacity:0" id="stop4414"/>
  </linearGradient>
  <linearGradient inkscape:collect="always" xlink:href="#linearGradient4351-5" id="linearGradient4357" y1="61" y2="47" x2="0" gradientUnits="userSpaceOnUse"/>
  <linearGradient inkscape:collect="always" id="linearGradient4271">
   <stop style="stop-color:#2a2c2f" id="stop4273"/>
   <stop offset="1" style="stop-color:#424649" id="stop4275"/>
  </linearGradient>
  <clipPath id="clipPath4528">
   <rect width="31.999989" x="8.00001" y="8" rx="15.999986" height="31.999971" style="fill:url(#linearGradient4532)" id="rect4530"/>
  </clipPath>
  <linearGradient inkscape:collect="always" id="linearGradient4532" xlink:href="#linearGradient4271" y1="543.79797" y2="503.798" x2="0" gradientUnits="userSpaceOnUse" gradientTransform="matrix(0.79999996 0 0 0.79999996 -302.85712 -395.03837)"/>
  <clipPath id="clipPath4534">
   <rect width="31.999989" x="8.00001" y="8" rx="15.999986" height="31.999971" style="fill:url(#linearGradient4532)" id="rect4536"/>
  </clipPath>
  <clipPath id="clipPath4544">
   <rect width="31.999989" x="392.57144" y="507.798" rx="15.999986" height="31.999971" style="fill:url(#linearGradient4548)" id="rect4546"/>
  </clipPath>
  <linearGradient inkscape:collect="always" id="linearGradient4548" xlink:href="#linearGradient4271" y1="543.79797" y2="503.798" x2="0" gradientUnits="userSpaceOnUse" gradientTransform="matrix(0.79999995 0 0 0.79999995 81.71431 104.75963)"/>
  <clipPath id="clipPath4550">
   <rect width="31.999989" x="392.57144" y="507.798" rx="15.999986" height="31.999971" style="fill:url(#linearGradient4548)" id="rect4552"/>
  </clipPath>
  <clipPath id="clipPath4562">
   <rect width="31.999989" x="392.57144" y="507.798" rx="15.999986" height="31.999971" style="fill:url(#linearGradient4548)" id="rect4564"/>
  </clipPath>
  <clipPath id="clipPath4568">
   <rect width="31.999989" x="392.57144" y="507.798" rx="15.999986" height="31.999971" style="fill:url(#linearGradient4548)" id="rect4570"/>
  </clipPath>
  <clipPath id="clipPath4578">
   <rect width="31.999989" x="392.57144" y="507.798" rx="15.999986" height="31.999971" style="fill:url(#linearGradient4548)" id="rect4580"/>
  </clipPath>
  <clipPath id="clipPath4584">
   <rect width="31.999989" x="392.57144" y="507.798" rx="15.999986" height="31.999971" style="fill:url(#linearGradient4548)" id="rect4586"/>
  </clipPath>
  <clipPath id="clipPath4528-1">
   <rect width="31.999989" x="8.00001" y="8" rx="15.999986" height="31.999971" style="fill:url(#linearGradient4532)" id="rect4530-7"/>
  </clipPath>
  <clipPath id="clipPath4534-1">
   <rect width="31.999989" x="8.00001" y="8" rx="15.999986" height="31.999971" style="fill:url(#linearGradient4532)" id="rect4536-8"/>
  </clipPath>
  <clipPath id="clipPath4544-1">
   <rect width="31.999989" x="392.57144" y="507.798" rx="15.999986" height="31.999971" style="fill:url(#linearGradient4548)" id="rect4546-1"/>
  </clipPath>
  <clipPath id="clipPath4550-4">
   <rect width="31.999989" x="392.57144" y="507.798" rx="15.999986" height="31.999971" style="fill:url(#linearGradient4548)" id="rect4552-1"/>
  </clipPath>
  <clipPath id="clipPath4562-8">
   <rect width="31.999989" x="392.57144" y="507.798" rx="15.999986" height="31.999971" style="fill:url(#linearGradient4548)" id="rect4564-8"/>
  </clipPath>
  <clipPath id="clipPath4568-4">
   <rect width="31.999989" x="392.57144" y="507.798" rx="15.999986" height="31.999971" style="fill:url(#linearGradient4548)" id="rect4570-1"/>
  </clipPath>
  <clipPath id="clipPath4578-8">
   <rect width="31.999989" x="392.57144" y="507.798" rx="15.999986" height="31.999971" style="fill:url(#linearGradient4548)" id="rect4580-7"/>
  </clipPath>
  <clipPath id="clipPath4584-9">
   <rect width="31.999989" x="392.57144" y="507.798" rx="15.999986" height="31.999971" style="fill:url(#linearGradient4548)" id="rect4586-2"/>
  </clipPath>
  <linearGradient inkscape:collect="always" xlink:href="#linearGradient4410" id="linearGradient4265" y1="17" x1="40" y2="31" x2="54" gradientUnits="userSpaceOnUse"/>
  <linearGradient id="linearGradient4351-5">
   <stop style="stop-color:#036b53" id="stop4353-7"/>
   <stop offset="1" style="stop-color:#036b53" id="stop4355-6"/>
  </linearGradient>
  <linearGradient inkscape:collect="always" id="linearGradient4300-9">
   <stop style="stop-color:#26c281" id="stop4302-0"/>
   <stop offset="1" style="stop-color:#3fc380" id="stop4304-3-9"/>
  </linearGradient>
 </defs>
 <metadata id="metadata84"/>
 <path style="fill:url(#linearGradient4306)" id="rect3500" d="M 10 3 L 10 61 L 40 61 L 54 47 L 54 17 L 54 3 L 40 3 L 10 3 z "/>
 <rect width="30" x="10" y="60" height="1" style="fill:#2e3132;fill-opacity:0.294118" id="rect4169"/>
 <rect width="44" x="10" y="3" height="1" style="fill:#ffffff;fill-opacity:0.409836" id="rect4236"/>
 <path inkscape:connector-curvature="0" style="fill:url(#linearGradient4357);fill-rule:evenodd" id="path4314" d="M 54,47 40,61 40,47 Z"/>
 <path inkscape:connector-curvature="0" style="fill:url(#linearGradient4427);opacity:0.2;fill-rule:evenodd" id="path4320" d="M 26,61 40,47 40,61 Z"/>
 <path inkscape:connector-curvature="0" style="fill:#036b53" id="rect4173" d="M 25.707031,25 25,25.707031 30.292969,31 25,36.292969 25.707031,37 31,31.707031 31.707031,31 31,30.292969 25.707031,25 Z M 32,38 l 0,1 7,0 0,-1 -7,0 z"/>
</svg>
