<?xml version="1.0" encoding="UTF-8" standalone="no"?>
<svg width="64" version="1.1" xmlns="http://www.w3.org/2000/svg" viewBox="0 0 64 64" height="64" xmlns:xlink="http://www.w3.org/1999/xlink" xmlns:inkscape="http://www.inkscape.org/namespaces/inkscape">
 <defs id="defs4">
  <linearGradient inkscape:collect="always" id="linearGradient4351">
   <stop style="stop-color:#f7ab89" id="stop4353"/>
   <stop offset="1" style="stop-color:#fbd2bf" id="stop4355"/>
  </linearGradient>
  <linearGradient inkscape:collect="always" xlink:href="#linearGradient4300-8" id="linearGradient4306" y1="61" y2="3" x2="0" gradientUnits="userSpaceOnUse"/>
  <linearGradient inkscape:collect="always" xlink:href="#linearGradient4410" id="linearGradient4427" y1="31" x1="54" y2="17" x2="40" gradientUnits="userSpaceOnUse" gradientTransform="matrix(1 0 0 -1 -14 78)"/>
  <linearGradient inkscape:collect="always" id="linearGradient4410">
   <stop style="stop-color:#383e51" id="stop4412"/>
   <stop offset="1" style="stop-color:#655c6f;stop-opacity:0" id="stop4414"/>
  </linearGradient>
  <linearGradient inkscape:collect="always" xlink:href="#linearGradient4351" id="linearGradient4357" y1="61" y2="47" x2="0" gradientUnits="userSpaceOnUse"/>
  <linearGradient inkscape:collect="always" id="linearGradient4300-8">
   <stop style="stop-color:#f27935" id="stop4302-5"/>
   <stop offset="1" style="stop-color:#f2784b" id="stop4304-7"/>
  </linearGradient>
 </defs>
 <metadata id="metadata84"/>
 <path style="fill:url(#linearGradient4306)" id="rect3500" d="M 10 3 L 10 61 L 40 61 L 54 47 L 54 17 L 54 3 L 40 3 L 10 3 z "/>
 <rect width="30" x="10" y="60" height="1" style="fill:#2e3132;fill-opacity:0.294118" id="rect4169"/>
 <rect width="44" x="10" y="3" height="1" style="fill:#ffffff;fill-opacity:0.409836" id="rect4236"/>
 <path inkscape:connector-curvature="0" style="fill:url(#linearGradient4357);fill-rule:evenodd" id="path4314" d="M 54,47 40,61 40,47 Z"/>
 <path inkscape:connector-curvature="0" style="fill:url(#linearGradient4427);opacity:0.2;fill-rule:evenodd" id="path4320" d="M 26,61 40,47 40,61 Z"/>
 <path style="fill:#fbd2bf" id="rect4166" d="M 29 21 L 29 27 L 30 27 L 30 21 L 29 21 z M 33 23 L 33 26 L 34 26 L 34 23 L 33 23 z M 25 24 L 25 28 L 26 28 L 26 24 L 25 24 z M 22 29 L 22 36 C 22 39.324 24.676 42 28 42 L 23 42 L 23 43 L 37 43 L 37 42 L 32 42 C 34.620656 42 36.831094 40.332867 37.652344 38 L 39.5 38 C 40.885 38 42 36.885 42 35.5 L 42 33.5 C 42 32.115 40.885 31 39.5 31 L 38 31 L 38 29 L 22 29 z M 23 30 L 37 30 L 37 31 L 37 32 L 37 36 C 37 38.77 34.77 41 32 41 L 28 41 C 25.23 41 23 38.77 23 36 L 23 30 z M 38 32 L 39.5 32 L 39.671875 32 C 40.407659 32 41 32.592341 41 33.328125 L 41 35.671875 C 41 36.407659 40.407659 37 39.671875 37 L 39.5 37 L 37.910156 37 C 37.964459 36.674346 38 36.341536 38 36 L 38 32 z "/>
</svg>
