<?xml version="1.0" encoding="UTF-8" standalone="no"?>
<svg width="64" version="1.1" xmlns="http://www.w3.org/2000/svg" viewBox="0 0 64 64" height="64" xmlns:xlink="http://www.w3.org/1999/xlink" xmlns:inkscape="http://www.inkscape.org/namespaces/inkscape">
 <defs id="defs4">
  <linearGradient inkscape:collect="always" xlink:href="#linearGradient4300-1" id="linearGradient4306" y1="61" y2="3" x2="0" gradientUnits="userSpaceOnUse"/>
  <linearGradient inkscape:collect="always" xlink:href="#linearGradient4410" id="linearGradient4427" y1="31" x1="54" y2="17" x2="40" gradientUnits="userSpaceOnUse" gradientTransform="matrix(1 0 0 -1 -14 78)"/>
  <linearGradient inkscape:collect="always" id="linearGradient4410">
   <stop style="stop-color:#383e51" id="stop4412"/>
   <stop offset="1" style="stop-color:#655c6f;stop-opacity:0" id="stop4414"/>
  </linearGradient>
  <linearGradient inkscape:collect="always" xlink:href="#linearGradient4351-4" id="linearGradient4357" y1="61" y2="47" x2="0" gradientUnits="userSpaceOnUse"/>
  <linearGradient id="linearGradient4351-4">
   <stop style="stop-color:#c8e3fe" id="stop4353-8"/>
   <stop offset="1" style="stop-color:#ffffff" id="stop4355-4"/>
  </linearGradient>
  <linearGradient inkscape:collect="always" id="linearGradient4300-1">
   <stop style="stop-color:#22a7f0" id="stop4302-6"/>
   <stop offset="1" style="stop-color:#19b5fe" id="stop4304-7"/>
  </linearGradient>
 </defs>
 <metadata id="metadata84"/>
 <path style="fill:url(#linearGradient4306)" id="rect3500" d="M 10 3 L 10 61 L 40 61 L 54 47 L 54 17 L 54 3 L 40 3 L 10 3 z "/>
 <rect width="30" x="10" y="60" height="1" style="fill:#2e3132;fill-opacity:0.294118" id="rect4169"/>
 <rect width="44" x="10" y="3" height="1" style="fill:#ffffff;fill-opacity:0.409836" id="rect4236"/>
 <path inkscape:connector-curvature="0" style="fill:url(#linearGradient4357);fill-rule:evenodd" id="path4314" d="M 54,47 40,61 40,47 Z"/>
 <path inkscape:connector-curvature="0" style="fill:url(#linearGradient4427);opacity:0.2;fill-rule:evenodd" id="path4320" d="M 26,61 40,47 40,61 Z"/>
 <path style="shape-rendering:auto;color-interpolation-filters:linearRGB;fill:#ffffff;image-rendering:auto;text-rendering:auto;color:#000000;color-rendering:auto;color-interpolation:sRGB" id="rect4204" d="M 27 21 L 27 37.052734 C 26.365433 36.404437 25.483041 36 24.5 36 C 22.561 36 21 37.561 21 39.5 C 21 41.439 22.561 43 24.5 43 C 26.404858 43 27.93659 41.49103 27.990234 39.599609 L 28 39.599609 L 28 39.5 L 28 26 L 42 26 L 42 34.052734 C 41.365433 33.404437 40.483041 33 39.5 33 C 37.561 33 36 34.561 36 36.5 C 36 38.439 37.561 40 39.5 40 C 41.439 40 43 38.439 43 36.5 L 43 21 L 42 21 L 28 21 L 27 21 z M 28 23 L 42 23 L 42 25 L 28 25 L 28 23 z "/>
</svg>
