<?xml version="1.0" encoding="UTF-8" standalone="no"?>
<svg
   xmlns:dc="http://purl.org/dc/elements/1.1/"
   xmlns:cc="http://creativecommons.org/ns#"
   xmlns:rdf="http://www.w3.org/1999/02/22-rdf-syntax-ns#"
   xmlns:svg="http://www.w3.org/2000/svg"
   xmlns="http://www.w3.org/2000/svg"
   xmlns:xlink="http://www.w3.org/1999/xlink"
   xmlns:sodipodi="http://sodipodi.sourceforge.net/DTD/sodipodi-0.dtd"
   xmlns:inkscape="http://www.inkscape.org/namespaces/inkscape"
   width="64"
   version="1.1"
   viewBox="0 0 64 64"
   height="64"
   id="svg2"
   inkscape:version="0.91 r13725"
   sodipodi:docname="image-vnd.djvu.svg">
  <sodipodi:namedview
     pagecolor="#ffffff"
     bordercolor="#666666"
     borderopacity="1"
     objecttolerance="10"
     gridtolerance="10"
     guidetolerance="10"
     inkscape:pageopacity="0"
     inkscape:pageshadow="2"
     inkscape:window-width="1920"
     inkscape:window-height="1017"
     id="namedview24"
     showgrid="true"
     inkscape:object-nodes="true"
     inkscape:zoom="14.75"
     inkscape:cx="35.779971"
     inkscape:cy="29.02274"
     inkscape:window-x="0"
     inkscape:window-y="0"
     inkscape:window-maximized="1"
     inkscape:current-layer="svg2">
    <inkscape:grid
       type="xygrid"
       id="grid4152" />
  </sodipodi:namedview>
  <defs
     id="defs4">
    <linearGradient
       inkscape:collect="always"
       xlink:href="#linearGradient4300-2"
       id="linearGradient4306"
       y1="61"
       y2="3"
       x2="0"
       gradientUnits="userSpaceOnUse" />
    <linearGradient
       inkscape:collect="always"
       xlink:href="#linearGradient4410"
       id="linearGradient4427"
       y1="31"
       x1="54"
       y2="17"
       x2="40"
       gradientUnits="userSpaceOnUse"
       gradientTransform="matrix(1 0 0 -1 -14 78)" />
    <linearGradient
       inkscape:collect="always"
       id="linearGradient4410">
      <stop
         style="stop-color:#383e51"
         id="stop4412" />
      <stop
         offset="1"
         style="stop-color:#655c6f;stop-opacity:0"
         id="stop4414" />
    </linearGradient>
    <linearGradient
       inkscape:collect="always"
       xlink:href="#linearGradient4351-4"
       id="linearGradient4357"
       y1="61"
       y2="47"
       x2="0"
       gradientUnits="userSpaceOnUse" />
    <linearGradient
       inkscape:collect="always"
       id="linearGradient4351-4">
      <stop
         style="stop-color:#fbd783"
         id="stop4353-4" />
      <stop
         offset="1"
         style="stop-color:#fde8b9"
         id="stop4355-3" />
    </linearGradient>
    <linearGradient
       id="linearGradient4300-2">
      <stop
         style="stop-color:#f9b425"
         id="stop4302-4" />
      <stop
         offset="1"
         style="stop-color:#f9bf3b"
         id="stop4304-1" />
    </linearGradient>
  </defs>
  <metadata
     id="metadata84">
    <rdf:RDF>
      <cc:Work
         rdf:about="">
        <dc:format>image/svg+xml</dc:format>
        <dc:type
           rdf:resource="http://purl.org/dc/dcmitype/StillImage" />
        <dc:title></dc:title>
      </cc:Work>
    </rdf:RDF>
  </metadata>
  <path
     style="fill:url(#linearGradient4306)"
     id="rect3500"
     d="M 10 3 L 10 61 L 40 61 L 54 47 L 54 17 L 54 3 L 40 3 L 10 3 z " />
  <rect
     width="30"
     x="10"
     y="60"
     height="1"
     style="fill:#2e3132;fill-opacity:0.294118"
     id="rect4169" />
  <rect
     width="44"
     x="10"
     y="3"
     height="1"
     style="fill:#ffffff;fill-opacity:0.409836"
     id="rect4236" />
  <path
     inkscape:connector-curvature="0"
     style="fill:url(#linearGradient4357);fill-rule:evenodd"
     id="path4314"
     d="M 54,47 40,61 40,47 Z" />
  <path
     inkscape:connector-curvature="0"
     style="fill:url(#linearGradient4427);opacity:0.2;fill-rule:evenodd"
     id="path4320"
     d="M 26,61 40,47 40,61 Z" />
  <path
     inkscape:connector-curvature="0"
     style="opacity:1;fill:#fde8b9;fill-opacity:1;stroke:none"
     d="m 21,21 0,2.75 0,1.375 0,17.875 1.375,0 c 6.875,0 13.75,0 20.625,0 0,-6.416667 0,-12.833333 0,-19.25 l 0,-2.75 -1,0 0,1 -2,0 0,-1 -2,0 0,1 -2,0 0,-1 -2,0 0,1 -3,0 0,-1 -2,0 0,1 -3,0 0,-1 -2,0 0,1 -2,0 0,-1 z m 1,3 20,0 c 0,6.070034 0,12.197946 0,18 -6.416667,0 -13.583333,0 -20,0 0,-5.5 0,-12.5 0,-18 z m 3,4 0,1 14,0 0,-1 z m 0,4 0,1 8,0 0,-1 z m 0,4 0,1 11,0 0,-1 z m 11,3 0,1 3,0 0,-1 z"
     id="rect4108"
     class="ColorScheme-Text"
     sodipodi:nodetypes="cccccccccccccccccccccccccccccccccccccccccccccccccccccc" />
</svg>
