<?xml version="1.0" encoding="UTF-8" standalone="no"?>
<svg width="64" version="1.1" xmlns="http://www.w3.org/2000/svg" viewBox="0 0 64 64" height="64" xmlns:xlink="http://www.w3.org/1999/xlink" xmlns:inkscape="http://www.inkscape.org/namespaces/inkscape">
 <defs id="defs4">
  <linearGradient inkscape:collect="always" id="linearGradient4351">
   <stop style="stop-color:#036b53" id="stop4353"/>
   <stop offset="1" style="stop-color:#036b53" id="stop4355"/>
  </linearGradient>
  <linearGradient inkscape:collect="always" id="linearGradient4300">
   <stop style="stop-color:#26c281" id="stop4302"/>
   <stop offset="1" style="stop-color:#3fc380" id="stop4304"/>
  </linearGradient>
  <linearGradient inkscape:collect="always" xlink:href="#linearGradient4300" id="linearGradient4306" y1="61" y2="3" x2="0" gradientUnits="userSpaceOnUse"/>
  <linearGradient inkscape:collect="always" xlink:href="#linearGradient4410" id="linearGradient4427" y1="31" x1="54" y2="17" x2="40" gradientUnits="userSpaceOnUse" gradientTransform="matrix(1 0 0 -1 -14 78)"/>
  <linearGradient inkscape:collect="always" id="linearGradient4410">
   <stop style="stop-color:#383e51" id="stop4412"/>
   <stop offset="1" style="stop-color:#655c6f;stop-opacity:0" id="stop4414"/>
  </linearGradient>
  <linearGradient inkscape:collect="always" xlink:href="#linearGradient4351" id="linearGradient4357" y1="61" y2="47" x2="0" gradientUnits="userSpaceOnUse"/>
 </defs>
 <metadata id="metadata84"/>
 <path style="fill:url(#linearGradient4306)" id="rect3500" d="M 10 3 L 10 61 L 40 61 L 54 47 L 54 17 L 54 3 L 40 3 L 10 3 z "/>
 <rect width="30" x="10" y="60" height="1" style="fill:#2e3132;fill-opacity:0.294118" id="rect4169"/>
 <rect width="44" x="10" y="3" height="1" style="fill:#ffffff;fill-opacity:0.409836" id="rect4236"/>
 <path inkscape:connector-curvature="0" style="fill:url(#linearGradient4357);fill-rule:evenodd" id="path4314" d="M 54,47 40,61 40,47 Z"/>
 <path inkscape:connector-curvature="0" style="fill:url(#linearGradient4427);opacity:0.2;fill-rule:evenodd" id="path4320" d="M 26,61 40,47 40,61 Z"/>
 <path style="shape-rendering:auto;color-interpolation-filters:linearRGB;fill:#036b53;image-rendering:auto;text-rendering:auto;color:#000000;color-rendering:auto;color-interpolation:sRGB" id="rect4167" d="M 21 21 L 21 43 L 35 43 L 35 42 L 28 42 L 28 39 L 35 39 L 35 38 L 28 38 L 28 35 L 35 35 L 36 35 L 37 35 L 42 35 L 43 35 L 43 21 L 21 21 z M 22 22 L 42 22 L 42 26 L 22 26 L 22 22 z M 22 27 L 27 27 L 27 30 L 22 30 L 22 27 z M 28 27 L 36 27 L 36 30 L 28 30 L 28 27 z M 37 27 L 42 27 L 42 30 L 37 30 L 37 27 z M 22 31 L 27 31 L 27 34 L 22 34 L 22 31 z M 28 31 L 36 31 L 36 34 L 28 34 L 28 31 z M 37 31 L 42 31 L 42 34 L 37 34 L 37 31 z M 22 35 L 27 35 L 27 38 L 22 38 L 22 35 z M 40 36 C 38.892 36 38 36.892 38 38 C 38 39.067861 38.830889 39.926849 39.882812 39.988281 C 39.959502 40.353784 39.99877 40.726148 40 41.099609 C 39.9979 41.747076 39.881569 42.389094 39.65625 42.996094 C 41.122911 41.968363 41.997349 40.290899 42 38.5 L 42 38 C 42 36.892 41.108 36 40 36 z M 22 39 L 27 39 L 27 42 L 22 42 L 22 39 z "/>
</svg>
