<?xml version="1.0" encoding="UTF-8" standalone="no"?>
<svg width="64" version="1.1" xmlns="http://www.w3.org/2000/svg" viewBox="0 0 64 64" height="64" xmlns:xlink="http://www.w3.org/1999/xlink" xmlns:inkscape="http://www.inkscape.org/namespaces/inkscape">
 <defs id="defs4">
  <linearGradient inkscape:collect="always" xlink:href="#linearGradient4300-7-4" id="linearGradient4306" y1="61" y2="3" x2="0" gradientUnits="userSpaceOnUse"/>
  <linearGradient inkscape:collect="always" xlink:href="#linearGradient4410" id="linearGradient4427" y1="31" x1="54" y2="17" x2="40" gradientUnits="userSpaceOnUse" gradientTransform="matrix(1 0 0 -1 -14 78)"/>
  <linearGradient inkscape:collect="always" id="linearGradient4410">
   <stop style="stop-color:#383e51" id="stop4412"/>
   <stop offset="1" style="stop-color:#655c6f;stop-opacity:0" id="stop4414"/>
  </linearGradient>
  <linearGradient inkscape:collect="always" xlink:href="#linearGradient4351-6" id="linearGradient4357" y1="61" y2="47" x2="0" gradientUnits="userSpaceOnUse"/>
  <linearGradient inkscape:collect="always" id="linearGradient4351-6">
   <stop style="stop-color:#dedede" id="stop4353-1"/>
   <stop offset="1" style="stop-color:#fbfbfb" id="stop4355-9"/>
  </linearGradient>
  <linearGradient inkscape:collect="always" id="linearGradient4300-7-4">
   <stop style="stop-color:#5e6b78" id="stop4302-2"/>
   <stop offset="1" style="stop-color:#768492" id="stop4304-4-8"/>
  </linearGradient>
 </defs>
 <metadata id="metadata84"/>
 <path style="fill:url(#linearGradient4306)" id="rect3500" d="M 10 3 L 10 61 L 40 61 L 54 47 L 54 17 L 54 3 L 40 3 L 10 3 z "/>
 <rect width="30" x="10" y="60" height="1" style="fill:#2e3132;fill-opacity:0.294118" id="rect4169"/>
 <rect width="44" x="10" y="3" height="1" style="fill:#ffffff;fill-opacity:0.409836" id="rect4236"/>
 <path inkscape:connector-curvature="0" style="fill:url(#linearGradient4357);fill-rule:evenodd" id="path4314" d="M 54,47 40,61 40,47 Z"/>
 <path inkscape:connector-curvature="0" style="fill:url(#linearGradient4427);opacity:0.2;fill-rule:evenodd" id="path4320" d="M 26,61 40,47 40,61 Z"/>
 <path style="fill:#fbfbfb" id="rect4170" d="M 21 21 L 21 22 L 43 22 L 43 21 L 21 21 z M 21 23 L 21 24 L 22 24 L 22 23 L 21 23 z M 25 26 C 24.446 26 24 26.446 24 27 C 24 27.554 24.446 28 25 28 C 25.554 28 26 27.554 26 27 C 26 26.446 25.554 26 25 26 z M 28 26 L 28 27 L 39 27 L 39 26 L 28 26 z M 28 28 L 28 29 L 32 29 L 32 28 L 28 28 z M 25 34 C 24.446 34 24 34.446 24 35 C 24 35.554 24.446 36 25 36 C 25.554 36 26 35.554 26 35 C 26 34.446 25.554 34 25 34 z M 28 34 L 28 35 L 33 35 L 33 34 L 28 34 z M 28 36 L 28 37 L 35 37 L 35 36 L 28 36 z M 28 38 L 28 39 L 42 39 L 42 38 L 28 38 z M 21 40 L 21 41 L 22 41 L 22 40 L 21 40 z M 21 42 L 21 43 L 43 43 L 43 42 L 21 42 z "/>
</svg>
