<svg width="64" xmlns="http://www.w3.org/2000/svg" viewBox="0 0 64 64" height="64">
 <defs>
  <linearGradient id="a" y1="61" y2="3" x2="0" gradientUnits="userSpaceOnUse">
   <stop stop-color="#96281b"/>
   <stop offset="1" stop-color="#a5281b"/>
  </linearGradient>
  <linearGradient id="b" y1="31" x1="54" y2="17" x2="40" gradientUnits="userSpaceOnUse" gradientTransform="matrix(1 0 0-1-14 78)">
   <stop stop-color="#383e51"/>
   <stop offset="1" stop-color="#655c6f" stop-opacity="0"/>
  </linearGradient>
  <linearGradient id="c" y1="61" y2="47" x2="0" gradientUnits="userSpaceOnUse">
   <stop stop-color="#e87c73"/>
   <stop offset="1" stop-color="#f0aba4"/>
  </linearGradient>
 </defs>
 <path fill="url(#a)" d="m10 3v58h30l14-14v-44h-14z"/>
 <rect width="30" x="10" y="60" fill="#2e3132" height="1" fill-opacity=".294"/>
 <rect width="44" x="10" y="3" fill="#ffffff" height="1" fill-opacity=".41"/>
 <g fill-rule="evenodd">
  <path fill="url(#c)" d="m54 47l-14 14v-14z"/>
  <path opacity=".2" fill="url(#b)" d="m26 61l14-14v14z"/>
 </g>
 <g fill="#f0aba4" color-rendering="auto" shape-rendering="auto" color-interpolation-filters="linearRGB" image-rendering="auto" text-rendering="auto" color-interpolation="sRGB" color="#4d4d4d">
  <path d="m43 32c-11.921 4.372-16.851 4.113-22 4v7c7.357-.629 14.73-.779 22-4v-6zm-1 1.369v4.924c-6.515 2.732-13.189 3.061-20 3.609v-4.895c4.615.097 9.78-.051 20-3.639"/>
  <path d="m43 21c-11.921 4.372-16.851 4.113-22 4v7c7.357-.629 14.73-.779 22-4v-6zm-1 1.369v4.924c-6.515 2.732-13.189 3.061-20 3.609v-4.895c4.615.097 9.78-.051 20-3.639"/>
 </g>
</svg>
