<?xml version="1.0" encoding="UTF-8" standalone="no"?>
<svg
   xmlns:dc="http://purl.org/dc/elements/1.1/"
   xmlns:cc="http://creativecommons.org/ns#"
   xmlns:rdf="http://www.w3.org/1999/02/22-rdf-syntax-ns#"
   xmlns:svg="http://www.w3.org/2000/svg"
   xmlns="http://www.w3.org/2000/svg"
   xmlns:xlink="http://www.w3.org/1999/xlink"
   xmlns:sodipodi="http://sodipodi.sourceforge.net/DTD/sodipodi-0.dtd"
   xmlns:inkscape="http://www.inkscape.org/namespaces/inkscape"
   width="64"
   version="1.1"
   viewBox="0 0 64 64"
   height="64"
   id="svg2"
   inkscape:version="0.91 r13725"
   sodipodi:docname="text-wiki.svg">
  <sodipodi:namedview
     pagecolor="#ffffff"
     bordercolor="#666666"
     borderopacity="1"
     objecttolerance="10"
     gridtolerance="10"
     guidetolerance="10"
     inkscape:pageopacity="0"
     inkscape:pageshadow="2"
     inkscape:window-width="1280"
     inkscape:window-height="776"
     id="namedview24"
     showgrid="false"
     inkscape:snap-bbox="true"
     inkscape:bbox-nodes="true"
     inkscape:zoom="5.6568542"
     inkscape:cx="46.506614"
     inkscape:cy="26.77892"
     inkscape:window-x="0"
     inkscape:window-y="24"
     inkscape:window-maximized="1"
     inkscape:current-layer="svg2">
    <inkscape:grid
       type="xygrid"
       id="grid4194" />
  </sodipodi:namedview>
  <defs
     id="defs4">
    <linearGradient
       inkscape:collect="always"
       xlink:href="#linearGradient4300-2"
       id="linearGradient4306"
       y1="61"
       y2="3"
       x2="0"
       gradientUnits="userSpaceOnUse" />
    <linearGradient
       inkscape:collect="always"
       xlink:href="#linearGradient4410"
       id="linearGradient4427"
       y1="31"
       x1="54"
       y2="17"
       x2="40"
       gradientUnits="userSpaceOnUse"
       gradientTransform="matrix(1 0 0 -1 -14 78)" />
    <linearGradient
       inkscape:collect="always"
       id="linearGradient4410">
      <stop
         style="stop-color:#383e51"
         id="stop4412" />
      <stop
         offset="1"
         style="stop-color:#655c6f;stop-opacity:0"
         id="stop4414" />
    </linearGradient>
    <linearGradient
       inkscape:collect="always"
       xlink:href="#linearGradient4351-4"
       id="linearGradient4357"
       y1="61"
       y2="47"
       x2="0"
       gradientUnits="userSpaceOnUse" />
    <linearGradient
       inkscape:collect="always"
       id="linearGradient4351-4">
      <stop
         style="stop-color:#fbd783"
         id="stop4353-4" />
      <stop
         offset="1"
         style="stop-color:#fde8b9"
         id="stop4355-3" />
    </linearGradient>
    <linearGradient
       id="linearGradient4300-2">
      <stop
         style="stop-color:#f9b425"
         id="stop4302-4" />
      <stop
         offset="1"
         style="stop-color:#f9bf3b"
         id="stop4304-1" />
    </linearGradient>
    <linearGradient
       id="linearGradient4351">
      <stop
         id="stop4353"
         style="stop-color:#c8e3fe" />
      <stop
         id="stop4355"
         style="stop-color:#ffffff"
         offset="1" />
    </linearGradient>
  </defs>
  <metadata
     id="metadata84">
    <rdf:RDF>
      <cc:Work
         rdf:about="">
        <dc:format>image/svg+xml</dc:format>
        <dc:type
           rdf:resource="http://purl.org/dc/dcmitype/StillImage" />
        <dc:title></dc:title>
      </cc:Work>
    </rdf:RDF>
  </metadata>
  <path
     style="fill:url(#linearGradient4306)"
     id="rect3500"
     d="M 10 3 L 10 61 L 40 61 L 54 47 L 54 17 L 54 3 L 40 3 L 10 3 z " />
  <rect
     width="30"
     x="10"
     y="60"
     height="1"
     style="fill:#2e3132;fill-opacity:0.294118"
     id="rect4169" />
  <rect
     width="44"
     x="10"
     y="3"
     height="1"
     style="fill:#ffffff;fill-opacity:0.409836"
     id="rect4236" />
  <path
     inkscape:connector-curvature="0"
     style="fill:url(#linearGradient4357);fill-rule:evenodd"
     id="path4314"
     d="M 54,47 40,61 40,47 Z" />
  <path
     inkscape:connector-curvature="0"
     style="fill:url(#linearGradient4427);opacity:0.2;fill-rule:evenodd"
     id="path4320"
     d="M 26,61 40,47 40,61 Z" />
  <path
     sodipodi:nodetypes="sssssssssssccssccccccss"
     d="m 23,22.09961 c 1.662,0 3,1.338 3,3 0,1.662001 -1.338,3 -3,3 -1.662,0 -3,-1.337999 -3,-3 0,-1.662 1.338,-3 3,-3 z m 0,1 c -1.108,0 -2,0.892 -2,2 0,1.108001 0.892,2 2,2 1.108,0 2,-0.891999 2,-2 0,-1.108 -0.892,-2 -2,-2 z M 23,30 c 1.185799,0 2.235553,0.521432 2.966797,1.335938 -0.247422,0.224398 -0.482161,0.462396 -0.703125,0.71289 C 24.714351,31.411429 23.911316,31 23,31 c -1.662,0 -3,1.338 -3,3 l 0,3 3,0 0.01636,1 L 20,38 l -1,0 0,-1 0,-3 c 0,-2.216 1.784,-4 4,-4 z"
     id="path4263"
     style="color:#000000;clip-rule:nonzero;display:inline;overflow:visible;visibility:visible;opacity:1;isolation:auto;mix-blend-mode:normal;color-interpolation:sRGB;color-interpolation-filters:linearRGB;solid-color:#000000;solid-opacity:1;fill:#fde8b9;fill-opacity:1;fill-rule:nonzero;stroke-width:1;stroke-linecap:butt;stroke-linejoin:miter;stroke-miterlimit:4;stroke-dasharray:none;stroke-dashoffset:0;stroke-opacity:1;color-rendering:auto;image-rendering:auto;shape-rendering:auto;text-rendering:auto;enable-background:accumulate"
     inkscape:connector-curvature="0" />
  <path
     inkscape:connector-curvature="0"
     style="color:#000000;clip-rule:nonzero;display:inline;overflow:visible;visibility:visible;opacity:1;isolation:auto;mix-blend-mode:normal;color-interpolation:sRGB;color-interpolation-filters:linearRGB;solid-color:#000000;solid-opacity:1;fill:#fde8b9;fill-opacity:1;fill-rule:nonzero;stroke-width:1;stroke-linecap:butt;stroke-linejoin:miter;stroke-miterlimit:4;stroke-dasharray:none;stroke-dashoffset:0;stroke-opacity:1;color-rendering:auto;image-rendering:auto;shape-rendering:auto;text-rendering:auto;enable-background:accumulate"
     id="path4265"
     d="m 32,24.09961 c 1.662,0 3,1.338 3,3 0,1.662001 -1.338,3 -3,3 -1.662,0 -3,-1.337999 -3,-3 0,-1.662 1.338,-3 3,-3 z m 0,1 c -1.108,0 -2,0.892 -2,2 0,1.108001 0.892,2 2,2 1.108,0 2,-0.891999 2,-2 0,-1.108 -0.892,-2 -2,-2 z"
     sodipodi:nodetypes="ssssssssss" />
  <path
     inkscape:connector-curvature="0"
     style="color:#000000;clip-rule:nonzero;display:inline;overflow:visible;visibility:visible;opacity:1;isolation:auto;mix-blend-mode:normal;color-interpolation:sRGB;color-interpolation-filters:linearRGB;solid-color:#000000;solid-opacity:1;fill:#fde8b9;fill-opacity:1;fill-rule:nonzero;stroke-width:1;stroke-linecap:butt;stroke-linejoin:miter;stroke-miterlimit:4;stroke-dasharray:none;stroke-dashoffset:0;stroke-opacity:1;color-rendering:auto;image-rendering:auto;shape-rendering:auto;text-rendering:auto;enable-background:accumulate"
     id="path4267"
     d="m 41,22.09961 c -1.662,0 -3,1.338 -3,3 0,1.662001 1.338,3 3,3 1.662,0 3,-1.337999 3,-3 0,-1.662 -1.338,-3 -3,-3 z m 0,1 c 1.108,0 2,0.892 2,2 0,1.108001 -0.892,2 -2,2 -1.108,0 -2,-0.891999 -2,-2 0,-1.108 0.892,-2 2,-2 z M 41,30 c -1.185799,0 -2.235553,0.521432 -2.966797,1.335938 0.247422,0.224398 0.482161,0.462396 0.703125,0.71289 C 39.285649,31.411429 40.088684,31 41,31 c 1.662,0 3,1.338 3,3 l 0,3 -3,0 -0.01636,1 3.01636,0 1,0 0,-1 0,-3 c 0,-2.216 -1.784,-4 -4,-4 z"
     sodipodi:nodetypes="sssssssssssccssccccccss" />
  <path
     inkscape:connector-curvature="0"
     style="color:#000000;clip-rule:nonzero;display:inline;overflow:visible;visibility:visible;opacity:1;isolation:auto;mix-blend-mode:normal;color-interpolation:sRGB;color-interpolation-filters:linearRGB;solid-color:#000000;solid-opacity:1;fill:#fde8b9;fill-opacity:1;fill-rule:nonzero;stroke-width:1;stroke-linecap:butt;stroke-linejoin:miter;stroke-miterlimit:4;stroke-dasharray:none;stroke-dashoffset:0;stroke-opacity:1;color-rendering:auto;image-rendering:auto;shape-rendering:auto;text-rendering:auto;enable-background:accumulate"
     id="path4269"
     d="M 32.03125,31.03125 C 36.18625,31.03125 38,34 38,37.5 l 0,0.5 0,1 -1,0 -10,0 -1,0 0,-1 0,-0.5 c 0,-3.5 1.87625,-6.46875 6.03125,-6.46875 z m -0.01563,0.992187 C 28.414625,32.023437 27,34.277883 27,37.601562 L 27,38 l 10,0 0,-0.398438 c 0,-3.600999 -1.383375,-5.578125 -4.98438,-5.578125 z"
     sodipodi:nodetypes="ssccccccssssccss" />
</svg>
