<?xml version="1.0" encoding="UTF-8"?>
<svg id="svg1867" width="16" height="16" version="1.1" viewBox="0 0 16 16" xmlns="http://www.w3.org/2000/svg">
 <g id="g1865" transform="translate(-1.696 -1035.2)" fill="#555">
  <path id="path1861" d="m11.133 1040.1c0.019-0.144 0.032-0.29 0.032-0.439s-0.014-0.295-0.032-0.439l0.978-0.745c0.088-0.067 0.113-0.189 0.055-0.288l-0.925-1.559c-0.058-0.097-0.178-0.137-0.282-0.097l-1.152 0.452c-0.238-0.178-0.5-0.328-0.782-0.443l-0.173-1.193c-0.021-0.106-0.116-0.189-0.231-0.189h-1.85c-0.116 0-0.21 0.083-0.229 0.189l-0.173 1.193c-0.282 0.115-0.543 0.263-0.782 0.443l-1.152-0.452c-0.104-0.038-0.224 0-0.282 0.097l-0.925 1.559c-0.058 0.097-0.032 0.218 0.055 0.288l0.976 0.745c-0.019 0.144-0.032 0.29-0.032 0.439 0 0.148 0.014 0.295 0.032 0.439l-0.976 0.745c-0.088 0.067-0.113 0.189-0.055 0.288l0.925 1.559c0.058 0.097 0.178 0.137 0.282 0.097l1.152-0.452c0.238 0.178 0.5 0.328 0.782 0.443l0.173 1.193c0.019 0.106 0.113 0.189 0.229 0.189h1.85c0.116 0 0.21-0.083 0.229-0.189l0.173-1.193c0.282-0.115 0.543-0.263 0.782-0.443l1.152 0.452c0.104 0.038 0.224 0 0.282-0.097l0.925-1.559c0.058-0.097 0.032-0.218-0.055-0.288zm-3.436 1.136c-0.895 0-1.619-0.704-1.619-1.575s0.724-1.575 1.619-1.575 1.619 0.704 1.619 1.575-0.724 1.575-1.619 1.575"/>
  <path id="path1863" d="m15.108 1046.6c0.039-0.103 0.074-0.209 0.1-0.319s0.042-0.221 0.053-0.33l0.839-0.376c0.076-0.034 0.115-0.119 0.091-0.203l-0.396-1.319c-0.025-0.081-0.105-0.133-0.187-0.122l-0.913 0.128c-0.141-0.174-0.304-0.332-0.488-0.468l0.083-0.913c4e-3 -0.082-0.05-0.161-0.134-0.181l-1.339-0.331c-0.084-0.021-0.167 0.024-0.199 0.099l-0.335 0.851c-0.224 0.034-0.439 0.098-0.643 0.188l-0.754-0.541c-0.069-0.047-0.162-0.04-0.221 0.021l-0.943 0.988c-0.059 0.061-0.062 0.156-0.01 0.223l0.576 0.726c-0.039 0.103-0.074 0.209-0.1 0.319s-0.042 0.22-0.053 0.331l-0.837 0.376c-0.076 0.034-0.115 0.119-0.091 0.203l0.396 1.319c0.026 0.082 0.105 0.133 0.187 0.122l0.913-0.128c0.141 0.174 0.304 0.333 0.488 0.468l-0.083 0.913c-5e-3 0.081 0.049 0.16 0.133 0.181l1.339 0.332c0.084 0.021 0.167-0.025 0.199-0.099l0.335-0.851c0.224-0.034 0.439-0.098 0.643-0.188l0.754 0.541c0.069 0.047 0.162 0.04 0.221-0.021l0.943-0.988c0.059-0.062 0.062-0.156 0.01-0.223zm-2.687 0.225c-0.648-0.16-1.048-0.811-0.896-1.455 0.153-0.644 0.8-1.035 1.448-0.875s1.048 0.811 0.896 1.455c-0.153 0.644-0.8 1.035-1.448 0.875"/>
 </g>
 <path id="path2123" d="m0 9v3h3v-3zm4 0v3h3v-3zm-4 4v3h3v-3zm4 0v3h3v-3z" fill="#555"/>
</svg>
