<?xml version="1.0" encoding="UTF-8" standalone="no"?>

<!-- Created with Inkscape (http://www.inkscape.org/) -->
<svg width="16" version="1.1" xmlns="http://www.w3.org/2000/svg" height="16" viewBox="0 0 16 16" xmlns:inkscape="http://www.inkscape.org/namespaces/inkscape">
 <defs id="defs4"/>
 <metadata id="metadata7"/>
 <g inkscape:label="Capa 1" inkscape:groupmode="layer" id="layer1" transform="matrix(1 0 0 1 0 -1036.3622)">
  <path inkscape:connector-curvature="0" style="fill:#6c7a89" id="rect4173-6" d="m 2,1038.3622 0,12 12,0 0,-12 -12,0 z m 1,1 4,0 1,0 1,0 4,0 0,10 -10,0 0,-10 z"/>
  <rect width="8" x="4.00001" y="1040.3622" height="2" style="fill:#6c7a89" id="rect4174"/>
  <rect width="2.999988" x="4.00001" y="1043.3622" height="1" style="fill:#6c7a89" id="rect4176"/>
  <rect width="3.00001" x="9.00001" y="1043.3622" height="1" style="fill:#6c7a89" id="rect4176-5"/>
  <rect width="2.999988" x="4.00001" y="1045.3622" height="1" style="fill:#6c7a89" id="rect4176-7"/>
  <rect width="3.00001" x="9.00001" y="1045.3622" height="1" style="fill:#6c7a89" id="rect4176-5-2"/>
  <rect width="2.999988" x="4.00001" y="1047.3622" height="1" style="fill:#6c7a89" id="rect4176-72"/>
  <rect width="3.00001" x="9.00001" y="1047.3622" height="1" style="fill:#6c7a89" id="rect4176-5-3"/>
 </g>
</svg>
