<?xml version="1.0" encoding="UTF-8" standalone="no"?>

<!-- Created with Inkscape (http://www.inkscape.org/) -->
<svg width="16" version="1.1" xmlns="http://www.w3.org/2000/svg" height="16" viewBox="0 0 16 16" xmlns:inkscape="http://www.inkscape.org/namespaces/inkscape">
 <defs id="defs4"/>
 <metadata id="metadata7"/>
 <path inkscape:label="Capa 1" inkscape:groupmode="layer" style="fill:#f27935" id="path4211" d="M 7 2 C 5.8353112 2.411 5 3.5072531 5 4.8144531 L 5 4.9960938 L 5 5.0136719 L 5 5.1953125 C 5 5.9353125 4.5957989 6.5728687 4 6.9179688 L 4 8.0097656 L 4 9.0839844 C 4.5957989 9.4290844 5 10.064687 5 10.804688 L 5 10.986328 L 5 11.005859 L 5 11.185547 C 5 12.492647 5.8353112 13.589 7 14 L 7 12.908203 C 6.4042011 12.563103 6 11.925547 6 11.185547 L 6 11.005859 L 6 10.986328 L 6 10.804688 C 6 9.5049837 5.1737685 8.4164389 4.0195312 8 C 5.1733963 7.5833683 6 6.4946497 6 5.1953125 L 6 5.0136719 L 6 4.9960938 L 6 4.8144531 C 6 4.0744531 6.4042011 3.4368969 7 3.0917969 L 7 2 z M 9 2 L 9 3.0917969 C 9.595799 3.4367969 10 4.0744531 10 4.8144531 L 10 4.9960938 L 10 5.0136719 L 10 5.1953125 C 10 6.4946497 10.826604 7.5833683 11.980469 8 C 10.826231 8.41644 10 9.5050831 10 10.804688 L 10 10.986328 L 10 11.005859 L 10 11.185547 C 10 11.925547 9.595799 12.563203 9 12.908203 L 9 14 C 10.164689 13.589 11 12.492747 11 11.185547 L 11 11.005859 L 11 10.986328 L 11 10.804688 C 11 10.064687 11.404201 9.4290844 12 9.0839844 L 12 8.0097656 L 12 7.9921875 L 12 6.9179688 C 11.404201 6.5728687 11 5.9353125 11 5.1953125 L 11 5.0136719 L 11 4.9960938 L 11 4.8144531 C 11 3.5072531 10.164689 2.411 9 2 z M 8 5 A 1 1 0 0 0 7 6 A 1 1 0 0 0 8 7 A 1 1 0 0 0 9 6 A 1 1 0 0 0 8 5 z M 8 9 A 1 1 0 0 0 7 10 A 1 1 0 0 0 8 11 L 8 12 L 8.1308594 12 C 8.3681322 11.742955 8.8171461 10.990681 8.9453125 10.324219 A 1 1 0 0 0 9 10 A 1 1 0 0 0 8 9 z "/>
</svg>
