<?xml version="1.0" encoding="UTF-8" standalone="no"?>

<!-- Created with Inkscape (http://www.inkscape.org/) -->
<svg width="16" version="1.1" xmlns="http://www.w3.org/2000/svg" height="16" viewBox="0 0 16 16" xmlns:inkscape="http://www.inkscape.org/namespaces/inkscape">
 <defs id="defs4"/>
 <metadata id="metadata7"/>
 <path inkscape:label="Capa 1" inkscape:groupmode="layer" style="fill:#6c7a89;color:#000000;stroke-width:0.1" id="path3787-7" d="M 8 2 C 4.686287 2 2 4.6863 2 8 C 2 10.975613 4.1585868 13.433271 7 13.90625 L 7 12.90625 C 4.7215842 12.440014 3 10.416225 3 8 C 3 5.2386 5.238576 3 8 3 C 10.416246 3 12.440019 4.7215957 12.90625 7 L 13.90625 7 C 13.433273 4.1585941 10.975625 2 8 2 z M 8 4 C 5.790861 4 4 5.7909 4 8 L 6 8 C 6 6.8954 6.895431 6 8 6 L 8 4 z M 8 7 C 7.4477153 7 7 7.4477153 7 8 C 7 8.5522847 7.4477153 9 8 9 C 8.5522847 9 9 8.5522847 9 8 C 9 7.4477153 8.5522847 7 8 7 z M 12 8 L 12 11.091797 C 11.84278 11.036139 11.676759 11 11.5 11 C 10.669005 11 10 11.669005 10 12.5 C 10 13.330995 10.669005 14 11.5 14 C 12.330995 14 13 13.330995 13 12.5 L 13 10 L 14 10 L 13 8 L 12 8 z "/>
</svg>
