<?xml version="1.0" encoding="UTF-8" standalone="no"?>

<!-- Created with Inkscape (http://www.inkscape.org/) -->
<svg width="16" version="1.1" xmlns="http://www.w3.org/2000/svg" height="16" viewBox="0 0 16 16" xmlns:inkscape="http://www.inkscape.org/namespaces/inkscape">
 <defs id="defs4"/>
 <metadata id="metadata7"/>
 <path inkscape:label="Capa 1" inkscape:groupmode="layer" style="fill:#6c7a89" id="path4141" d="M 3 2 L 3 3 L 3 13.25 L 3 14 L 5 14 L 5 13 L 4 13 L 4 3 L 12 3 L 12 8 L 13 8 L 13 2 L 3 2 z M 11.501953 8 L 10.753906 8.7441406 L 10.751953 8.7441406 L 7 12.476562 L 7.0039062 12.486328 L 7 12.498047 L 7.0058594 12.507812 L 7.0019531 13.248047 L 7 13.248047 L 7 13.990234 L 7 14 L 8.5 14 L 8.5039062 13.990234 L 8.5078125 13.990234 L 8.515625 13.990234 L 8.5097656 13.980469 L 9.25 13.242188 L 12.251953 10.255859 L 13 9.5097656 L 11.501953 8.0175781 L 11.501953 8 z "/>
</svg>
