<?xml version="1.0" encoding="UTF-8" standalone="no"?>
<!-- Created with Inkscape (http://www.inkscape.org/) -->

<svg
   xmlns:dc="http://purl.org/dc/elements/1.1/"
   xmlns:cc="http://creativecommons.org/ns#"
   xmlns:rdf="http://www.w3.org/1999/02/22-rdf-syntax-ns#"
   xmlns:svg="http://www.w3.org/2000/svg"
   xmlns="http://www.w3.org/2000/svg"
   xmlns:sodipodi="http://sodipodi.sourceforge.net/DTD/sodipodi-0.dtd"
   xmlns:inkscape="http://www.inkscape.org/namespaces/inkscape"
   width="16"
   version="1.1"
   height="16"
   viewBox="0 0 16 16"
   id="svg2"
   inkscape:version="0.91 r13725"
   sodipodi:docname="x-office-spreadsheet.svg">
  <sodipodi:namedview
     pagecolor="#ffffff"
     bordercolor="#666666"
     borderopacity="1"
     objecttolerance="10"
     gridtolerance="10"
     guidetolerance="10"
     inkscape:pageopacity="0"
     inkscape:pageshadow="2"
     inkscape:window-width="1366"
     inkscape:window-height="699"
     id="namedview9"
     showgrid="false"
     inkscape:zoom="38.928786"
     inkscape:cx="8.4745763"
     inkscape:cy="10.055035"
     inkscape:window-x="0"
     inkscape:window-y="0"
     inkscape:window-maximized="1"
     inkscape:current-layer="layer1" />
  <defs
     id="defs4" />
  <metadata
     id="metadata7">
    <rdf:RDF>
      <cc:Work
         rdf:about="">
        <dc:format>image/svg+xml</dc:format>
        <dc:type
           rdf:resource="http://purl.org/dc/dcmitype/StillImage" />
      </cc:Work>
    </rdf:RDF>
  </metadata>
  <g
     inkscape:label="Capa 1"
     inkscape:groupmode="layer"
     id="layer1"
     transform="matrix(1 0 0 1 0 -1036.3622)">
    <rect
       width="0"
       x="3"
       y="3"
       height="10.999983"
       style="fill:#04896a"
       id="rect4035"
       transform="matrix(1 0 0 1 0 1036.3622)" />
    <path
       style="fill:#3cc380;fill-opacity:1"
       inkscape:connector-curvature="0"
       d="m 8.2599538,1038.6452 0.8078868,0 c 0,0.3631 0,0.7249 0,1.088 1.3614394,0 2.7228784,0 4.0843174,-0.01 0.229853,0.01 0.482828,-0.01 0.68276,0.1306 0.140088,0.2013 0.123767,0.4569 0.133287,0.6882 -0.0068,2.361 -0.0041,4.7208 -0.0027,7.0805 -0.0068,0.3958 0.03672,0.7997 -0.04624,1.1901 -0.0544,0.2829 -0.394423,0.2897 -0.621556,0.2992 -1.409042,0.01 -2.819443,0 -4.2298455,0 0,0.408 0,0.8161 0,1.2241 l -0.8446089,0 c -2.0727876,-0.3734 -4.1496282,-0.7215 -6.2251088,-1.0847 0,-3.1731 0,-6.3461 0,-9.5192 2.0877213,-0.3632 4.1754425,-0.7209 6.261804,-1.0894 z"
       id="path12" />
    <path
       style="fill:#ffffff;fill-opacity:1"
       inkscape:connector-curvature="0"
       d="m 9.0678406,1040.1412 c 1.4960864,0 2.9921744,0 4.4882604,0 0,2.8562 0,5.7124 0,8.5685 -1.496086,0 -2.992174,0 -4.4882604,0 0,-0.2719 0,-0.544 0,-0.816 0.363141,0 0.7249221,0 1.0880634,0 0,-0.3169 0,-0.6351 0,-0.9521 -0.3631413,0 -0.7249224,0 -1.0880634,0 0,-0.1808 0,-0.3631 0,-0.544 0.363141,0 0.7249221,0 1.0880634,0 0,-0.3169 0,-0.6352 0,-0.952 -0.3631413,0 -0.7249224,0 -1.0880634,0 0,-0.1809 0,-0.3632 0,-0.5441 0.363141,0 0.7249221,0 1.0880634,0 0,-0.3168 0,-0.6351 0,-0.9521 -0.3631413,0 -0.7249224,0 -1.0880634,0 0,-0.1808 0,-0.3631 0,-0.5439 0.363141,0 0.7249221,0 1.0880634,0 0,-0.317 0,-0.6352 0,-0.9521 -0.3631413,0 -0.7249224,0 -1.0880634,0 0,-0.1809 0,-0.3632 0,-0.5441 0.363141,0 0.7249221,0 1.0880634,0 0,-0.3168 0,-0.6351 0,-0.952 -0.3631413,0 -0.7249224,0 -1.0880634,0 0,-0.272 0,-0.544 0,-0.8161 z"
       id="path14" />
    <path
       style="fill:#3cc380;fill-opacity:1"
       inkscape:connector-curvature="0"
       d="m 10.699935,1040.9573 c 0.635158,0 1.268954,0 1.904111,0 0,0.3169 0,0.6352 0,0.952 -0.635157,0 -1.268953,0 -1.904111,0 0,-0.3168 0,-0.6351 0,-0.952 z"
       id="path16" />
    <path
       style="fill:#ffffff;fill-opacity:1"
       inkscape:connector-curvature="0"
       d="m 6.0267038,1042.2317 c 0.3073779,-0.022 0.6161158,-0.04 0.9248538,-0.055 -0.3631411,0.744 -0.7276423,1.4879 -1.0975838,2.2292 0.3740217,0.7617 0.7562039,1.5178 1.1315857,2.2795 -0.327779,-0.019 -0.6541979,-0.04 -0.981977,-0.063 -0.2312135,-0.5671 -0.5127498,-1.1152 -0.6786795,-1.7082 -0.1849706,0.5522 -0.448826,1.0731 -0.6609983,1.6144 -0.2978574,-0.01 -0.5957146,-0.016 -0.893572,-0.028 0.3495404,-0.6841 0.6868399,-1.3737 1.0472609,-2.0537 -0.3060178,-0.7005 -0.6419573,-1.3873 -0.9574956,-2.0836 0.2992174,-0.018 0.5984347,-0.035 0.8976521,-0.052 0.2026518,0.5317 0.4243447,1.0568 0.5916344,1.6022 0.1795304,-0.5781 0.447466,-1.1222 0.6773193,-1.6812 z"
       id="path18" />
    <path
       style="fill:#3cc380;fill-opacity:1"
       inkscape:connector-curvature="0"
       d="m 10.699935,1042.4534 c 0.635158,0 1.268954,0 1.904111,0 0,0.3169 0,0.6351 0,0.9521 -0.635157,0 -1.268953,0 -1.904111,0 0,-0.317 0,-0.6352 0,-0.9521 z"
       id="path20" />
    <path
       style="fill:#3cc380;fill-opacity:1"
       inkscape:connector-curvature="0"
       d="m 10.699935,1043.9494 c 0.635158,0 1.268954,0 1.904111,0 0,0.317 0,0.6353 0,0.9521 -0.635157,0 -1.268953,0 -1.904111,0 0,-0.3168 0,-0.6351 0,-0.9521 z"
       id="path22" />
    <path
       style="fill:#3cc380;fill-opacity:1"
       inkscape:connector-curvature="0"
       d="m 10.699935,1045.4456 c 0.635158,0 1.268954,0 1.904111,0 0,0.3168 0,0.6351 0,0.952 -0.635157,0 -1.268953,0 -1.904111,0 0,-0.3169 0,-0.6352 0,-0.952 z"
       id="path24" />
    <path
       style="fill:#3cc380;fill-opacity:1"
       inkscape:connector-curvature="0"
       d="m 10.699935,1046.9416 c 0.635158,0 1.268954,0 1.904111,0 0,0.317 0,0.6352 0,0.9521 -0.635157,0 -1.268953,0 -1.904111,0 0,-0.3169 0,-0.6351 0,-0.9521 z"
       id="path26" />
  </g>
</svg>
