<?xml version="1.0" encoding="UTF-8" standalone="no"?>

<!-- Created with Inkscape (http://www.inkscape.org/) -->
<svg width="16" version="1.1" xmlns="http://www.w3.org/2000/svg" height="16" viewBox="0 0 16 16" xmlns:inkscape="http://www.inkscape.org/namespaces/inkscape">
 <defs id="defs4"/>
 <metadata id="metadata7"/>
 <path inkscape:label="Capa 1" inkscape:groupmode="layer" style="fill:#fdd285" id="rect4136-1" d="M 8 2 C 6.338 2 5 3.338 5 5 L 5 6 L 6 6 L 6 5 C 6 3.5458 6.753506 3 8 3 C 9.2465 3 10 3.5458 10 5 L 10 8 L 7 8 L 6 8 L 5 8 L 4 8 L 3 8 L 3 8.75 L 3 14 L 13 14 L 13 8 L 11 8 L 11 5 C 11 3.338 9.662 2 8 2 z M 4 9 L 12 9 L 12 13 L 4 13 L 4 9 z "/>
</svg>
