<?xml version="1.0" encoding="UTF-8" standalone="no"?>
<!-- Created with Inkscape (http://www.inkscape.org/) -->

<svg
   xmlns:dc="http://purl.org/dc/elements/1.1/"
   xmlns:cc="http://creativecommons.org/ns#"
   xmlns:rdf="http://www.w3.org/1999/02/22-rdf-syntax-ns#"
   xmlns:svg="http://www.w3.org/2000/svg"
   xmlns="http://www.w3.org/2000/svg"
   xmlns:sodipodi="http://sodipodi.sourceforge.net/DTD/sodipodi-0.dtd"
   xmlns:inkscape="http://www.inkscape.org/namespaces/inkscape"
   width="16"
   version="1.1"
   height="16"
   viewBox="0 0 16 16"
   id="svg2"
   inkscape:version="0.91 r13725"
   sodipodi:docname="application-msonenote-16.svg">
  <sodipodi:namedview
     pagecolor="#ffffff"
     bordercolor="#666666"
     borderopacity="1"
     objecttolerance="10"
     gridtolerance="10"
     guidetolerance="10"
     inkscape:pageopacity="0"
     inkscape:pageshadow="2"
     inkscape:window-width="1366"
     inkscape:window-height="699"
     id="namedview7"
     showgrid="false"
     inkscape:zoom="14.75"
     inkscape:cx="-1.4237288"
     inkscape:cy="8"
     inkscape:window-x="0"
     inkscape:window-y="0"
     inkscape:window-maximized="1"
     inkscape:current-layer="svg2" />
  <defs
     id="defs4" />
  <metadata
     id="metadata7">
    <rdf:RDF>
      <cc:Work
         rdf:about="">
        <dc:format>image/svg+xml</dc:format>
        <dc:type
           rdf:resource="http://purl.org/dc/dcmitype/StillImage" />
        <dc:title></dc:title>
      </cc:Work>
    </rdf:RDF>
  </metadata>
  <g
     transform="matrix(0.13674411,0,0,0.13674411,-70.601793,2.1766831)"
     id="onenote">
    <path
       style="fill:#913d88;fill-opacity:1"
       inkscape:connector-curvature="0"
       d="M 576.02,0 582,0 c 0,2.67 0,5.34 0.01,8.01 9.36,0.36 18.83,-0.76 28.12,0.64 0.33,1.06 0.68,2.11 1.03,3.16 2.36,0.42 6.16,0.13 6.53,3.33 0.76,5.85 0.23,11.77 -0.15,17.63 0.54,6.23 0.91,12.56 -0.18,18.75 0.91,5.73 0.92,11.61 0.31,17.36 -0.43,3.11 -4.12,2.89 -6.45,3.33 -0.34,1.63 -0.31,3.42 -1.19,4.87 -1.8,1.13 -4.03,0.86 -6.04,0.95 -7.33,-0.07 -14.66,-0.04 -21.98,-0.04 C 582,80.66 582,83.33 582,86 l -6.26,0 C 560.53,83.21 545.28,80.66 530.05,78 530.04,54.67 530.04,31.35 530.04,8.02 545.37,5.35 560.7,2.73 576.02,0 Z"
       id="path66" />
    <path
       style="fill:#ffffff;fill-opacity:1"
       inkscape:connector-curvature="0"
       d="m 582,10.99 c 8.67,0 17.34,-0.01 26.01,0 -0.01,1.33 -0.01,2.65 0,3.98 2.3,0.01 4.6,0.05 6.91,0.15 0.13,5.26 0.18,10.52 -0.04,15.78 -2.29,0.08 -4.59,0.12 -6.87,0.13 0,14.66 0.01,29.32 0,43.98 -8.67,0.01 -17.34,0 -26.01,0 0,-2.67 0,-5.35 0,-8.02 6.33,-0.01 12.66,0 19,0 -0.01,-1.33 -0.01,-2.65 0,-3.98 -6.34,0 -12.67,0.01 -19,0 0,-1.67 0,-3.35 0,-5.02 6.33,-0.01 12.66,0 19,0 -0.01,-1.33 -0.01,-2.65 0,-3.98 -6.34,0 -12.67,0.01 -19,0 0,-1.67 0,-3.35 0,-5.02 6.33,-0.01 12.66,0 19,0 -0.01,-1.33 -0.01,-2.65 0,-3.98 -6.34,0 -12.67,0.01 -19,0 0,-1.67 0,-3.35 0,-5.02 6.33,-0.01 12.66,0 18.99,0 0,-1.33 0,-2.65 0.01,-3.98 -6.34,0 -12.67,0.01 -19,0 0,-1.67 0,-3.35 0,-5.02 6.33,-0.01 12.66,0 19,0 -0.01,-1.33 -0.01,-2.65 0,-3.98 -6.34,0 -12.67,0.01 -19,0 0,-1.67 0,-3.35 0,-5.02 6.33,-0.01 12.66,0 19,0 -0.01,-1.33 -0.01,-2.65 0,-3.98 -6.34,0 -12.67,0.01 -19,0 0,-2.34 0,-4.68 0,-7.02 z"
       id="path68" />
    <path
       style="fill:#ffffff;fill-opacity:1"
       inkscape:connector-curvature="0"
       d="m 560.94,26.23 c 1.99,-0.11 3.99,-0.22 6,-0.31 0,11.04 0,22.09 0,33.13 -2.16,-0.09 -4.3,-0.21 -6.44,-0.33 -3.98,-7.65 -8.29,-15.13 -12.14,-22.85 0.22,7.4 0.09,14.81 0.11,22.21 -1.82,-0.12 -3.62,-0.23 -5.43,-0.34 0.03,-10.16 0.02,-20.33 0,-30.49 2.06,-0.11 4.11,-0.22 6.18,-0.33 3.91,7.16 7.88,14.29 11.68,21.52 0.08,-7.4 0,-14.81 0.04,-22.21 z"
       id="path70" />
    <path
       style="fill:#ffffff;fill-opacity:1"
       inkscape:connector-curvature="0"
       d="m 610.99,33.95 c 1.3,0.05 2.6,0.11 3.91,0.17 0.17,5.26 0.2,10.51 -0.03,15.76 -1.3,0.06 -2.59,0.12 -3.88,0.17 -0.01,-5.37 -0.01,-10.74 0,-16.1 z"
       id="path72" />
    <path
       style="fill:#ffffff;fill-opacity:1"
       inkscape:connector-curvature="0"
       d="m 610.99,52.94 c 1.3,0.06 2.61,0.13 3.93,0.2 0.15,5.23 0.14,10.46 0,15.69 -1.32,0.08 -2.63,0.16 -3.93,0.24 -0.01,-5.38 -0.01,-10.75 0,-16.13 z"
       id="path74" />
  </g>
</svg>
