<?xml version="1.0" encoding="UTF-8" standalone="no"?>
<!-- Created with Inkscape (http://www.inkscape.org/) -->

<svg
   xmlns:dc="http://purl.org/dc/elements/1.1/"
   xmlns:cc="http://creativecommons.org/ns#"
   xmlns:rdf="http://www.w3.org/1999/02/22-rdf-syntax-ns#"
   xmlns:svg="http://www.w3.org/2000/svg"
   xmlns="http://www.w3.org/2000/svg"
   xmlns:sodipodi="http://sodipodi.sourceforge.net/DTD/sodipodi-0.dtd"
   xmlns:inkscape="http://www.inkscape.org/namespaces/inkscape"
   width="16"
   version="1.1"
   height="16"
   viewBox="0 0 16 16"
   id="svg2"
   inkscape:version="0.91 r13725"
   sodipodi:docname="application-msword-template.svg">
  <sodipodi:namedview
     pagecolor="#ffffff"
     bordercolor="#666666"
     borderopacity="1"
     objecttolerance="10"
     gridtolerance="10"
     guidetolerance="10"
     inkscape:pageopacity="0"
     inkscape:pageshadow="2"
     inkscape:window-width="1920"
     inkscape:window-height="1025"
     id="namedview7"
     showgrid="false"
     inkscape:zoom="20.85965"
     inkscape:cx="-3.1015466"
     inkscape:cy="3.9090689"
     inkscape:window-x="0"
     inkscape:window-y="26"
     inkscape:window-maximized="1"
     inkscape:current-layer="word" />
  <defs
     id="defs4" />
  <metadata
     id="metadata7">
    <rdf:RDF>
      <cc:Work
         rdf:about="">
        <dc:format>image/svg+xml</dc:format>
        <dc:type
           rdf:resource="http://purl.org/dc/dcmitype/StillImage" />
      </cc:Work>
    </rdf:RDF>
  </metadata>
  <g
     transform="matrix(0.188559,0,0,0.188559,3.8509439,-11.6738)"
     id="word">
    <rect
       width="0"
       x="-179.00233"
       y="46.888802"
       height="58.337086"
       style="fill:#ffffff"
       id="rect4035-75" />
    <rect
       width="0"
       x="-180.70351"
       y="41.585419"
       height="58.337086"
       style="fill:#ffffff"
       id="rect4035-4-3" />
    <rect
       width="0"
       x="-188.84874"
       y="40.981743"
       height="58.941235"
       style="fill:#fbd2bf"
       id="rect4035-3-56" />
    <rect
       width="0"
       x="-180.70351"
       y="41.585419"
       height="58.337086"
       style="fill:#fbd2bf"
       id="rect4035-1-2" />
    <rect
       width="0"
       x="-180.70351"
       y="41.585419"
       height="58.337086"
       style="fill:#fbfbfb"
       id="rect4035-5-9" />
    <rect
       width="0"
       x="-179.00233"
       y="46.888802"
       height="58.337086"
       style="fill:#ffffff"
       id="rect4035-7-1" />
    <rect
       width="0"
       x="-180.70351"
       y="41.585419"
       height="58.337086"
       style="fill:#ffffff"
       id="rect4035-4-53" />
    <rect
       width="0"
       x="-188.84874"
       y="40.981743"
       height="58.941235"
       style="fill:#fbd2bf"
       id="rect4035-3-5" />
    <rect
       width="0"
       x="-180.70351"
       y="41.585419"
       height="58.337086"
       style="fill:#fbd2bf"
       id="rect4035-1-6" />
    <rect
       width="0"
       x="-180.70351"
       y="41.585419"
       height="58.337086"
       style="fill:#fbfbfb"
       id="rect4035-5-2" />
    <rect
       width="0"
       x="-179.00233"
       y="46.888802"
       height="58.337086"
       style="fill:#ffffff"
       id="rect4035-53" />
    <rect
       width="0"
       x="-180.70351"
       y="41.585419"
       height="58.337086"
       style="fill:#ffffff"
       id="rect4035-4-5" />
    <rect
       width="0"
       x="-179.00233"
       y="46.888802"
       height="58.337086"
       style="fill:#ffffff"
       id="rect4035-6" />
    <rect
       width="0"
       x="-180.70351"
       y="41.585419"
       height="58.337086"
       style="fill:#ffffff"
       id="rect4035-4-2" />
    <rect
       width="0"
       x="-188.84874"
       y="40.981743"
       height="58.941235"
       style="fill:#fbd2bf"
       id="rect4035-3-9" />
    <rect
       width="0"
       x="-180.70351"
       y="41.585419"
       height="58.337086"
       style="fill:#fbd2bf"
       id="rect4035-1-1" />
    <rect
       width="0"
       x="-180.70351"
       y="41.585419"
       height="58.337086"
       style="fill:#fbfbfb"
       id="rect4035-5-27" />
    <rect
       width="0"
       x="-180.70351"
       y="41.585419"
       height="58.337086"
       style="fill:#fffcf9"
       id="rect4035-8-0" />
    <rect
       width="0"
       x="-180.70351"
       y="41.585419"
       height="58.337086"
       style="fill:#e8d9eb"
       id="rect4035-44" />
    <rect
       width="0"
       x="-180.70351"
       y="41.585419"
       height="58.337086"
       style="fill:#e8d9eb"
       id="rect4035-7" />
    <rect
       width="0"
       x="-179.00233"
       y="46.888802"
       height="58.337086"
       style="fill:#ffffff"
       id="rect4035-753" />
    <rect
       width="0"
       x="-180.70351"
       y="41.585419"
       height="58.337086"
       style="fill:#ffffff"
       id="rect4035-4-56" />
    <rect
       width="0"
       x="-188.84874"
       y="40.981743"
       height="58.941235"
       style="fill:#fbd2bf"
       id="rect4035-3-2" />
    <rect
       width="0"
       x="-180.70351"
       y="41.585419"
       height="58.337086"
       style="fill:#fbd2bf"
       id="rect4035-1-9" />
    <rect
       width="0"
       x="-180.70351"
       y="41.585419"
       height="58.337086"
       style="fill:#fbfbfb"
       id="rect4035-5-1" />
    <rect
       width="0"
       x="-180.70351"
       y="41.585419"
       height="58.337086"
       style="fill:#fffcf9"
       id="rect4035-8-2" />
    <rect
       width="0"
       x="-179.00233"
       y="46.888802"
       height="58.337086"
       style="fill:#ffffff"
       id="rect4035" />
    <rect
       width="0"
       x="-180.70351"
       y="41.585419"
       height="58.337086"
       style="fill:#ffffff"
       id="rect4035-4" />
    <rect
       width="0"
       x="-188.84874"
       y="40.981743"
       height="58.941235"
       style="fill:#fbd2bf"
       id="rect4035-3" />
    <rect
       width="0"
       x="-180.70351"
       y="41.585419"
       height="58.337086"
       style="fill:#fbd2bf"
       id="rect4035-1" />
    <rect
       width="0"
       x="-180.70351"
       y="41.585419"
       height="58.337086"
       style="fill:#fbfbfb"
       id="rect4035-5" />
    <rect
       width="0"
       x="-180.70351"
       y="41.585419"
       height="58.337086"
       style="fill:#fffcf9"
       id="rect4035-8" />
    <path
       inkscape:connector-curvature="0"
       style="opacity:0.75;fill:#0b0b64;fill-opacity:1;stroke:none;stroke-width:10;stroke-miterlimit:4;stroke-dasharray:none;stroke-opacity:1"
       d="m -1.8611895,136.15791 c -2.93813,0 -5.30338,-2.3652 -5.30338,-5.30338 l 0,-53.033796 c 0,-2.93818 2.36525,-5.30338 5.30338,-5.30338 l 47.7304195,0 c 2.93817,0 5.30338,2.3652 5.30338,5.30338 l 0,53.033796 c 0,2.93818 -2.36521,5.30338 -5.30338,5.30338 z m 0,-5.30338 47.7304195,0 0,-53.033796 -47.7304195,0 z m 5.30338,-10.60676 0,-5.30338 37.1236595,0 0,5.30338 z m 0,-10.60676 0,-5.30338 37.1236595,0 0,5.30338 z m 0,-10.606756 0,-5.30338 37.1236595,0 0,5.30338 z m 0,-10.60676 0,-5.30338 37.1236595,0 0,5.30338 z"
       id="rect4222"
       sodipodi:nodetypes="sssssssssccccccccccccccccccccccccc" />
    <rect
       width="0"
       x="-233.72694"
       y="253.73099"
       height="58.337086"
       style="fill:#036b53"
       id="rect4035-70" />
    <rect
       width="0"
       x="-232.02577"
       y="259.03436"
       height="58.337086"
       style="fill:#ffffff"
       id="rect4035-67" />
    <rect
       width="0"
       x="-233.72694"
       y="253.73099"
       height="58.337086"
       style="fill:#ffffff"
       id="rect4035-4-93" />
    <rect
       width="0"
       x="-241.87219"
       y="253.12729"
       height="58.941235"
       style="fill:#fbd2bf"
       id="rect4035-3-60" />
    <rect
       width="0"
       x="-233.72694"
       y="253.73099"
       height="58.337086"
       style="fill:#fbd2bf"
       id="rect4035-1-62" />
    <rect
       width="0"
       x="-233.72694"
       y="253.73099"
       height="58.337086"
       style="fill:#fbfbfb"
       id="rect4035-5-6" />
    <rect
       width="0"
       x="-233.72694"
       y="253.73099"
       height="58.337086"
       style="fill:#fffcf9"
       id="rect4035-8-1" />
    <rect
       width="0"
       x="-232.02577"
       y="46.899162"
       height="58.337086"
       style="fill:#ffffff"
       id="rect4035-6-8" />
    <rect
       width="0"
       x="-233.72694"
       y="41.595779"
       height="58.337086"
       style="fill:#ffffff"
       id="rect4035-4-2-7" />
    <rect
       width="0"
       x="-241.87219"
       y="40.992104"
       height="58.941235"
       style="fill:#fbd2bf"
       id="rect4035-3-9-9" />
    <rect
       width="0"
       x="-233.72694"
       y="41.595779"
       height="58.337086"
       style="fill:#fbd2bf"
       id="rect4035-1-1-2" />
    <rect
       width="0"
       x="-233.72694"
       y="41.595779"
       height="58.337086"
       style="fill:#fbfbfb"
       id="rect4035-5-2-0" />
    <rect
       width="0"
       x="-233.72694"
       y="41.595779"
       height="58.337086"
       style="fill:#fffcf9"
       id="rect4035-8-7" />
    <rect
       width="0"
       x="-233.72694"
       y="41.595779"
       height="58.337086"
       style="fill:#e8d9eb"
       id="rect4035-44-2" />
    <rect
       width="0"
       x="-444.16098"
       y="46.899162"
       height="58.337086"
       style="fill:#ffffff"
       id="rect4035-62" />
    <rect
       width="0"
       x="-445.86215"
       y="41.595779"
       height="58.337086"
       style="fill:#ffffff"
       id="rect4035-4-9" />
    <rect
       width="0"
       x="-454.00739"
       y="40.992104"
       height="58.941235"
       style="fill:#fbd2bf"
       id="rect4035-3-1" />
    <rect
       width="0"
       x="-445.86215"
       y="41.595779"
       height="58.337086"
       style="fill:#fbd2bf"
       id="rect4035-1-2-3" />
    <rect
       width="0"
       x="-445.86215"
       y="41.595779"
       height="58.337086"
       style="fill:#fbfbfb"
       id="rect4035-5-7" />
    <rect
       width="0"
       x="-445.86215"
       y="41.595779"
       height="58.337086"
       style="fill:#fffcf9"
       id="rect4035-8-0-7" />
    <rect
       width="0"
       x="-445.86215"
       y="41.595779"
       height="58.337086"
       style="fill:#e8d9eb"
       id="rect4035-44-9" />
    <rect
       width="0"
       x="-445.86215"
       y="41.595779"
       height="58.337086"
       style="fill:#e8d9eb"
       id="rect4035-7-5" />
    <rect
       width="0"
       x="-439.12723"
       y="46.899162"
       height="58.337086"
       style="fill:#ffffff"
       id="rect4035-36" />
    <rect
       width="0"
       x="-440.8284"
       y="41.595779"
       height="58.337086"
       style="fill:#ffffff"
       id="rect4035-4-0" />
    <rect
       width="0"
       x="-448.97363"
       y="40.992104"
       height="58.941235"
       style="fill:#fbd2bf"
       id="rect4035-3-6" />
    <rect
       width="0"
       x="-440.8284"
       y="41.595779"
       height="58.337086"
       style="fill:#fbd2bf"
       id="rect4035-1-26" />
    <rect
       width="0"
       x="-440.8284"
       y="41.595779"
       height="58.337086"
       style="fill:#fbfbfb"
       id="rect4035-5-1-9" />
    <rect
       width="0"
       x="-440.8284"
       y="41.595779"
       height="58.337086"
       style="fill:#fffcf9"
       id="rect4035-8-8" />
    <rect
       width="0"
       x="-440.8284"
       y="41.595779"
       height="58.337086"
       style="fill:#e8d9eb"
       id="rect4035-44-7" />
    <rect
       width="0"
       x="-440.8284"
       y="41.595779"
       height="58.337086"
       style="fill:#e8d9eb"
       id="rect4035-7-9" />
  </g>
</svg>
