<?xml version="1.0" encoding="UTF-8" standalone="no"?>
<!-- Created with Inkscape (http://www.inkscape.org/) -->

<svg
   xmlns:dc="http://purl.org/dc/elements/1.1/"
   xmlns:cc="http://creativecommons.org/ns#"
   xmlns:rdf="http://www.w3.org/1999/02/22-rdf-syntax-ns#"
   xmlns:svg="http://www.w3.org/2000/svg"
   xmlns="http://www.w3.org/2000/svg"
   xmlns:sodipodi="http://sodipodi.sourceforge.net/DTD/sodipodi-0.dtd"
   xmlns:inkscape="http://www.inkscape.org/namespaces/inkscape"
   width="16"
   version="1.1"
   height="16"
   viewBox="0 0 16 16"
   id="svg2"
   inkscape:version="0.91 r13725"
   sodipodi:docname="application-msword-template-16.svg">
  <sodipodi:namedview
     pagecolor="#ffffff"
     bordercolor="#666666"
     borderopacity="1"
     objecttolerance="10"
     gridtolerance="10"
     guidetolerance="10"
     inkscape:pageopacity="0"
     inkscape:pageshadow="2"
     inkscape:window-width="1366"
     inkscape:window-height="699"
     id="namedview7"
     showgrid="false"
     inkscape:zoom="14.75"
     inkscape:cx="-1.4237288"
     inkscape:cy="8"
     inkscape:window-x="0"
     inkscape:window-y="0"
     inkscape:window-maximized="1"
     inkscape:current-layer="word" />
  <defs
     id="defs4" />
  <metadata
     id="metadata7">
    <rdf:RDF>
      <cc:Work
         rdf:about="">
        <dc:format>image/svg+xml</dc:format>
        <dc:type
           rdf:resource="http://purl.org/dc/dcmitype/StillImage" />
      </cc:Work>
    </rdf:RDF>
  </metadata>
  <g
     transform="matrix(0.188559,0,0,0.188559,3.8509439,-11.6738)"
     id="word">
    <path
       style="fill:#6c7a89;fill-opacity:1"
       inkscape:connector-curvature="0"
       d="m 23.266174,73.87809 4.328233,0 c 0,1.932506 0,3.857774 0,5.790279 7.744498,0.04343 15.481759,-0.07962 23.219019,0.04343 1.65023,-0.166471 2.945805,1.114628 2.79381,2.764858 0.123043,14.258562 -0.02895,28.524363 0.07238,42.782923 -0.07238,1.46204 0.144757,3.08332 -0.702071,4.3789 -1.056726,0.75273 -2.424679,0.65864 -3.655114,0.71654 -7.245086,-0.0362 -14.482935,-0.0217 -21.728022,-0.0217 0,1.93251 0,3.85777 0,5.79028 l -4.523655,0 c -11.016006,-2.01212 -22.0609611,-3.85777 -33.098681,-5.79028 -0.0072,-16.8859 0,-33.771799 0,-50.650463 11.0956226,-1.939743 22.19848,-3.828822 33.294103,-5.804755 z"
       id="path5" />
    <path
       style="fill:#ffffff;fill-opacity:1"
       inkscape:connector-curvature="0"
       d="m 27.594407,81.839724 c 7.961634,0 15.923268,0 23.884901,0 0,15.438332 0,30.883896 0,46.322236 -7.961633,0 -15.923267,0 -23.884901,0 0,-1.93251 0,-3.85778 0,-5.79028 6.275215,0 12.543192,0 18.818407,0 0,-0.96264 0,-1.93251 0,-2.89514 -6.275215,0 -12.543192,0 -18.818407,0 0,-1.20872 0,-2.41021 0,-3.61893 6.275215,0 12.543192,0 18.818407,0 0,-0.96263 0,-1.9325 0,-2.89514 -6.275215,0 -12.543192,0 -18.818407,0 0,-1.20872 0,-2.4102 0,-3.61892 6.275215,0 12.543192,0 18.818407,0 0,-0.96263 0,-1.93251 0,-2.89514 -6.275215,0 -12.543192,0 -18.818407,0 0,-1.20872 0,-2.4102 0,-3.61892 6.275215,0 12.543192,0 18.818407,0 0,-0.96264 0,-1.93251 0,-2.895144 -6.275215,0 -12.543192,0 -18.818407,0 0,-1.208721 0,-2.410204 0,-3.618924 6.275215,0 12.543192,0 18.818407,0 0,-0.962634 0,-1.932506 0,-2.89514 -6.275215,0 -12.543192,0 -18.818407,0 0,-1.208721 0,-2.410204 0,-3.618924 6.275215,0 12.543192,0 18.818407,0 0,-0.962634 0,-1.932506 0,-2.89514 -6.275215,0 -12.543192,0 -18.818407,0 0,-1.686419 0,-3.380075 0,-5.066494 z"
       id="path7" />
    <path
       style="fill:#ffffff;fill-opacity:1"
       inkscape:connector-curvature="0"
       d="m 4.9254648,94.629003 c 1.3751913,-0.07962 2.7503826,-0.137519 4.1255738,-0.209898 0.9626344,4.885548 1.9469814,9.763855 2.9892314,14.627695 0.817877,-5.02307 1.722608,-10.031661 2.598388,-15.04749 1.44757,-0.05066 2.895139,-0.130281 4.335471,-0.217135 -1.635754,7.013475 -3.068848,14.084855 -4.856596,21.054905 -1.208721,0.62969 -3.018183,-0.0289 -4.4512772,0.0724 C 8.7036219,110.118 7.5817553,105.35549 6.7204513,100.54233 5.873623,105.21798 4.77347,109.8502 3.8035983,114.4969 2.4139335,114.42452 1.0170287,114.33767 -0.37987611,114.24357 -1.581359,107.87427 -2.9927395,101.54839 -4.1146061,95.164604 c 1.2376721,-0.0579 2.4825821,-0.108568 3.72025429,-0.151995 0.74549843,4.61051 1.59232671,9.199301 2.24373311,13.817051 1.0205367,-4.73355 2.0627848,-9.467104 3.0760835,-14.200657 z"
       id="path9" />
  </g>
</svg>
