<?xml version="1.0" encoding="UTF-8" standalone="no"?>

<!-- Created with Inkscape (http://www.inkscape.org/) -->
<svg width="16" version="1.1" xmlns="http://www.w3.org/2000/svg" height="16" viewBox="0 0 16 16" xmlns:inkscape="http://www.inkscape.org/namespaces/inkscape">
 <defs id="defs4"/>
 <metadata id="metadata7"/>
 <g inkscape:label="Capa 1" inkscape:groupmode="layer" id="layer1" transform="matrix(1 0 0 1 0 -1036.3622)">
  <path inkscape:connector-curvature="0" style="fill:#6c7a89" id="rect4138" d="M 2,2 2,5 2,13.25 2,14 14,14 14,13.25 14,9.5 14,5 14,2 Z m 1,3 10,0 0,8 C 9.449069,12.963 6.549687,12.923 3,13 Z" transform="matrix(1 0 0 1 0 1036.3622)"/>
  <path inkscape:connector-curvature="0" style="fill:#6c7a89;stroke-linecap:round;stroke-linejoin:round;stroke-width:2" id="rect4169-4" d="m 8,1042.3622 c -0.5555545,0 -1.0742855,0.1705 -1.439737,0.4902 C 6.194823,1043.1722 6,1043.6261 6,1044.1122 l 1.142857,0 c 0,-0.2639 0.090858,-0.435 0.2254515,-0.5527 0.1345485,-0.1178 0.330103,-0.1973 0.6316915,-0.1973 0.3015885,0 0.497143,0.08 0.6316915,0.1973 0.13456,0.1177 0.2254515,0.2888 0.2254515,0.5527 0,0.2292 -0.051658,0.3267 -0.1205375,0.4131 -0.297874,0.2629 -0.6581255,0.4878 -0.9475425,0.7031 -0.3266745,0.2146 -0.646046,0.496 -0.646046,0.8838 l 0,0.25 1.1428575,0 0,-0.25 c 0.4061825,-0.3638 1.011417,-0.6811 1.3882285,-1.0146 C 9.873051,1044.848 10,1044.508 10,1044.1122 c 0,-0.4861 -0.194823,-0.94 -0.560263,-1.2598 C 9.0742855,1042.5327 8.5555545,1042.3622 8,1042.3622 Z m -0.856983,5 0,1 1.1428575,0 0,-1 z"/>
 </g>
</svg>
