<?xml version="1.0" encoding="UTF-8" standalone="no"?>
<!-- Created with Inkscape (http://www.inkscape.org/) -->

<svg
   xmlns:dc="http://purl.org/dc/elements/1.1/"
   xmlns:cc="http://creativecommons.org/ns#"
   xmlns:rdf="http://www.w3.org/1999/02/22-rdf-syntax-ns#"
   xmlns:svg="http://www.w3.org/2000/svg"
   xmlns="http://www.w3.org/2000/svg"
   xmlns:sodipodi="http://sodipodi.sourceforge.net/DTD/sodipodi-0.dtd"
   xmlns:inkscape="http://www.inkscape.org/namespaces/inkscape"
   width="16"
   version="1.1"
   height="16"
   viewBox="0 0 16 16"
   id="svg2"
   inkscape:version="0.91 r13725"
   sodipodi:docname="application-msonenote.svg">
  <sodipodi:namedview
     pagecolor="#ffffff"
     bordercolor="#666666"
     borderopacity="1"
     objecttolerance="10"
     gridtolerance="10"
     guidetolerance="10"
     inkscape:pageopacity="0"
     inkscape:pageshadow="2"
     inkscape:window-width="1920"
     inkscape:window-height="1025"
     id="namedview7"
     showgrid="false"
     inkscape:zoom="29.5"
     inkscape:cx="5.8000501"
     inkscape:cy="8.98128"
     inkscape:window-x="0"
     inkscape:window-y="26"
     inkscape:window-maximized="1"
     inkscape:current-layer="svg2" />
  <defs
     id="defs4">
    <linearGradient
       id="linearGradient4300-2">
      <stop
         style="stop-color:#913d88"
         id="stop4302-4" />
      <stop
         offset="1"
         style="stop-color:#9b4792"
         id="stop4304-1" />
    </linearGradient>
  </defs>
  <metadata
     id="metadata7">
    <rdf:RDF>
      <cc:Work
         rdf:about="">
        <dc:format>image/svg+xml</dc:format>
        <dc:type
           rdf:resource="http://purl.org/dc/dcmitype/StillImage" />
        <dc:title />
      </cc:Work>
    </rdf:RDF>
  </metadata>
  <path
     style="opacity:1;fill:#94408b;fill-opacity:1;stroke:none;stroke-width:10;stroke-miterlimit:4;stroke-dasharray:none;stroke-opacity:1"
     d="m 3.0000001,1.9999999 c -0.55401,0 -1,0.44598 -1,1 l 0,10.0000001 c 0,0.55402 0.44599,1 1,1 L 11,14 c 0.55402,0 1,-0.44598 1,-1 l 1,0 c 0.55402,0 1,-0.44598 1,-1 l 0,-2 C 14,9.8136299 13.9357,9.6490499 13.84766,9.5 13.93576,9.35095 14,9.18637 14,9 l 0,-2.0000001 c 0,-0.18637 -0.0643,-0.35095 -0.15234,-0.5 0.0881,-0.14905 0.15234,-0.31363 0.15234,-0.5 l 0,-2 c 0,-0.55402 -0.44598,-1 -1,-1 l -1,0 c 0,-0.55402 -0.44598,-1 -1,-1 l -8,0 z m 0,1 7.9999999,0 0,1 0,2 0,1 L 11,9 l 0,1 0,2 0,1 -8,0 0,-10.0000001 z m 1,1 0,2 5.9999999,0 0,-2 -6,0 z m 7.9999999,0 1,0 0,2 -1,0 0,-2 z m -8,3 0,1 6,0 0,-1 -6,0 z m 8,0 1,0 L 13,9 12,9 12,6.9999999 Z M 4,9 l 0,1 6,0 0,-1 -6,0 z m 8,1 1,0 0,2 -1,0 0,-2 z m -8,1 0,1 6,0 0,-1 -6,0 z"
     id="rect4223"
     inkscape:connector-curvature="0" />
</svg>
