<?xml version="1.0" encoding="UTF-8" standalone="no"?>

<!-- Created with Inkscape (http://www.inkscape.org/) -->
<svg width="16" version="1.1" xmlns="http://www.w3.org/2000/svg" height="16" viewBox="0 0 16 16" xmlns:inkscape="http://www.inkscape.org/namespaces/inkscape">
 <defs id="defs4"/>
 <metadata id="metadata7"/>
 <g inkscape:label="Capa 1" inkscape:groupmode="layer" id="layer1" transform="matrix(1 0 0 1 0 -1036.3622)">
  <rect width="0" x="-17" y="1039.3622" height="10.999983" style="fill:#f62459" id="rect4035"/>
  <path inkscape:connector-curvature="0" style="fill:#f62459" id="rect4145" d="m 3,1038.3622 0,1 0,3 -1,0 0,1 0,5 1,0 2,0 0,1 0,1 6,0 0,-1 0,-1 3,0 0,-1 0,-4 0,-1 -1,0 0,-3 0,-1 z m 1,1 8,0 0,3 -1,0 0,-1 -6,0 0,1 -1,0 z m 1,0 0,1 6,0 0,-1 z m -2,4 10,0 0,4 -1,0 0,-1 -8,0 0,1 -1,0 z m 7,1 0,1 2,0 0,-1 z m -4,4 4,0 0,1 -4,0 z"/>
 </g>
</svg>
