<?xml version="1.0" encoding="UTF-8" standalone="no"?>
<!-- Created with Inkscape (http://www.inkscape.org/) -->

<svg
   xmlns:dc="http://purl.org/dc/elements/1.1/"
   xmlns:cc="http://creativecommons.org/ns#"
   xmlns:rdf="http://www.w3.org/1999/02/22-rdf-syntax-ns#"
   xmlns:svg="http://www.w3.org/2000/svg"
   xmlns="http://www.w3.org/2000/svg"
   xmlns:sodipodi="http://sodipodi.sourceforge.net/DTD/sodipodi-0.dtd"
   xmlns:inkscape="http://www.inkscape.org/namespaces/inkscape"
   width="16"
   version="1.1"
   height="16"
   viewBox="0 0 16 16"
   id="svg2"
   inkscape:version="0.91 r13725"
   sodipodi:docname="application-vnd.ms-excel.template.macroenabled.12-16.svg">
  <sodipodi:namedview
     pagecolor="#ffffff"
     bordercolor="#666666"
     borderopacity="1"
     objecttolerance="10"
     gridtolerance="10"
     guidetolerance="10"
     inkscape:pageopacity="0"
     inkscape:pageshadow="2"
     inkscape:window-width="1366"
     inkscape:window-height="699"
     id="namedview9"
     showgrid="false"
     inkscape:zoom="41.7193"
     inkscape:cx="8.167788"
     inkscape:cy="7.0412111"
     inkscape:window-x="0"
     inkscape:window-y="0"
     inkscape:window-maximized="1"
     inkscape:current-layer="layer1" />
  <defs
     id="defs4" />
  <metadata
     id="metadata7">
    <rdf:RDF>
      <cc:Work
         rdf:about="">
        <dc:format>image/svg+xml</dc:format>
        <dc:type
           rdf:resource="http://purl.org/dc/dcmitype/StillImage" />
      </cc:Work>
    </rdf:RDF>
  </metadata>
  <g
     inkscape:label="Capa 1"
     inkscape:groupmode="layer"
     id="layer1"
     transform="matrix(1 0 0 1 0 -1036.3622)">
    <path
       inkscape:connector-curvature="0"
       style="fill:#6c7a89;stroke-linecap:round;stroke-linejoin:round;stroke-width:2"
       id="rect4169-4"
       d="m 8,1042.3622 c -0.5555545,0 -1.0742855,0.1705 -1.439737,0.4902 C 6.194823,1043.1722 6,1043.6261 6,1044.1122 l 1.142857,0 c 0,-0.2639 0.090858,-0.435 0.2254515,-0.5527 0.1345485,-0.1178 0.330103,-0.1973 0.6316915,-0.1973 0.3015885,0 0.497143,0.08 0.6316915,0.1973 0.13456,0.1177 0.2254515,0.2888 0.2254515,0.5527 0,0.2292 -0.051658,0.3267 -0.1205375,0.4131 -0.297874,0.2629 -0.6581255,0.4878 -0.9475425,0.7031 -0.3266745,0.2146 -0.646046,0.496 -0.646046,0.8838 l 0,0.25 1.1428575,0 0,-0.25 c 0.4061825,-0.3638 1.011417,-0.6811 1.3882285,-1.0146 C 9.873051,1044.848 10,1044.508 10,1044.1122 c 0,-0.4861 -0.194823,-0.94 -0.560263,-1.2598 C 9.0742855,1042.5327 8.5555545,1042.3622 8,1042.3622 Z m -0.856983,5 0,1 1.1428575,0 0,-1 z" />
    <path
       inkscape:connector-curvature="0"
       style="fill:#6c7a89;stroke-width:2;stroke-linecap:round;stroke-linejoin:round"
       id="rect4169-4-9"
       d="m 7.9929894,1042.1255 c -0.6267227,0 -1.2120073,0.1924 -1.6243254,0.5532 -0.4124009,0.3609 -0.6322673,0.8731 -0.6322673,1.4216 l 1.2893536,0 c 0,-0.2978 0.102805,-0.4909 0.2545711,-0.6236 0.1516607,-0.133 0.3725879,-0.2228 0.712668,-0.2228 0.3407047,0 0.5610075,0.09 0.713067,0.2228 0.1518488,0.1327 0.2541723,0.3258 0.2541723,0.6236 0,0.2586 -0.057177,0.3687 -0.1358169,0.4662 -0.3362131,0.2969 -0.7425728,0.5505 -1.0692167,0.7935 -0.3688489,0.2421 -0.729031,0.5596 -0.729031,0.9973 l 0,0.2821 1.2895044,0 0,-0.2821 c 0.4585182,-0.4106 1.1412889,-0.7686 1.5667125,-1.145 0.224501,-0.2816 0.367954,-0.6651 0.367954,-1.1122 0,-0.5484 -0.219987,-1.0605 -0.6321397,-1.4214 -0.412446,-0.3608 -0.9981219,-0.5532 -1.6249426,-0.5532 z m -0.9668253,5.6426 0,1.1283 1.2895044,0 0,-1.1283 z" />
    <path
       inkscape:connector-curvature="0"
       style="fill:#ffffff;stroke-width:2;stroke-linecap:round;stroke-linejoin:round"
       id="rect4169-4-1"
       d="m 8.1929721,1042.3593 c -0.4865576,0 -0.9408553,0.1706 -1.2609161,0.4906 -0.3200532,0.3201 -0.49068,0.7744 -0.49068,1.2609 l 1.000913,0 c 0,-0.2641 0.079573,-0.4354 0.1974471,-0.5532 0.1178364,-0.1179 0.2891027,-0.1974 0.553236,-0.1974 0.2641256,0 0.4353919,0.079 0.5532282,0.1974 0.1178514,0.1178 0.1974547,0.2891 0.1974547,0.5532 0,0.2294 -0.045215,0.327 -0.105566,0.4135 -0.260883,0.2632 -0.5763846,0.4882 -0.8298576,0.7037 -0.2861009,0.2149 -0.565807,0.4965 -0.565807,0.8847 l 0,0.2502 1.0009133,0 0,-0.2502 c 0.3557359,-0.3642 0.8857925,-0.6818 1.2158065,-1.0157 0.174238,-0.2497 0.2854163,-0.59 0.2854163,-0.9862 0,-0.4865 -0.1706269,-0.9408 -0.4906726,-1.2609 -0.3200607,-0.32 -0.774366,-0.4906 -1.2609158,-0.4906 z m -0.7505477,5.0045 0,1.0009 1.0009133,0 0,-1.0009 z" />
    <path
       inkscape:connector-curvature="0"
       style="fill:#ffffff;stroke-width:2;stroke-linecap:round;stroke-linejoin:round"
       id="rect4169-4-5"
       d="m 8.2967024,1042.1539 c -0.5327126,0 -1.0301184,0.1868 -1.3805354,0.5372 -0.350417,0.3504 -0.5372338,0.8479 -0.5372338,1.3805 l 1.0958712,0 c 0,-0.2892 0.087179,-0.4766 0.21618,-0.6057 0.1290158,-0.129 0.3165248,-0.2161 0.605718,-0.2161 0.2891854,0 0.4766944,0.087 0.6057253,0.2161 0.1290234,0.1291 0.2161725,0.3165 0.2161725,0.6057 0,0.2512 -0.049578,0.3581 -0.1155869,0.4528 -0.2856194,0.2881 -0.6310485,0.5345 -0.9085729,0.7705 -0.3132375,0.2352 -0.6194705,0.5435 -0.6194705,0.9685 l 0,0.274 1.0958564,0 0,-0.274 c 0.3894776,-0.3987 0.969827,-0.7464 1.3311452,-1.112 0.1907745,-0.2734 0.3124995,-0.646 0.3124995,-1.0798 0,-0.5326 -0.186801,-1.0301 -0.5372334,-1.3805 -0.3504245,-0.3504 -0.8478228,-0.5372 -1.3805352,-0.5372 z m -0.8217325,5.4793 0,1.0959 1.0958564,0 0,-1.0959 z" />
    <path
       style="fill:#6c7a89;fill-opacity:1"
       inkscape:connector-curvature="0"
       d="m 8.2652252,1038.6228 0.8106205,0 c 0,0.3644 0,0.7275 0,1.0918 1.3660453,0 2.7320973,0 4.0981503,-0.01 0.23064,0.01 0.484474,-0.01 0.685073,0.131 0.140556,0.202 0.124193,0.4585 0.13374,0.6905 -0.0068,2.3691 -0.0038,4.7368 -0.003,7.1046 -0.0068,0.3971 0.03686,0.8024 -0.04642,1.1941 -0.05454,0.2838 -0.395767,0.2907 -0.623676,0.3002 -1.413803,0 -2.828989,0 -4.2441688,0 0,0.4094 0,0.8188 0,1.2282 l -0.8474692,0 c -2.0797745,-0.378 -4.1636489,-0.7273 -6.2461614,-1.0917 0,-3.1838 0,-6.3677 0,-9.5515 2.094798,-0.3643 4.1895886,-0.7233 6.2830252,-1.0931 z"
       id="path12" />
    <path
       style="fill:#ffffff;fill-opacity:1"
       inkscape:connector-curvature="0"
       d="m 9.0758457,1040.124 c 1.5011553,0 3.0023093,0 4.5034643,0 0,2.8659 0,5.7317 0,8.5976 -1.501155,0 -3.002309,0 -4.5034643,0 0,-0.273 0,-0.5459 0,-0.8188 0.36438,0 0.7273759,0 1.0917483,0 0,-0.3181 0,-0.6373 0,-0.9553 -0.3643724,0 -0.7273683,0 -1.0917483,0 0,-0.1816 0,-0.3644 0,-0.5459 0.36438,0 0.7273759,0 1.0917483,0 0,-0.318 0,-0.6373 0,-0.9553 -0.3643724,0 -0.7273683,0 -1.0917483,0 0,-0.1815 0,-0.3644 0,-0.5458 0.36438,0 0.7273759,0 1.0917483,0 0,-0.3181 0,-0.6374 0,-0.9553 -0.3643724,0 -0.7273683,0 -1.0917483,0 0,-0.1816 0,-0.3645 0,-0.5459 0.36438,0 0.7273759,0 1.0917483,0 0,-0.318 0,-0.6373 0,-0.9553 -0.3643724,0 -0.7273683,0 -1.0917483,0 0,-0.1815 0,-0.3644 0,-0.5459 0.36438,0 0.7273759,0 1.0917483,0 0,-0.3179 0,-0.6373 0,-0.9552 -0.3643724,0 -0.7273683,0 -1.0917483,0 0,-0.273 0,-0.5459 0,-0.8189 z"
       id="path14" />
    <path
       style="fill:#6c7a89;fill-opacity:1"
       inkscape:connector-curvature="0"
       d="m 10.713472,1040.9429 c 0.637308,0 1.273246,0 1.910554,0 0,0.3179 0,0.6373 0,0.9552 -0.637308,0 -1.273246,0 -1.910554,0 0,-0.3179 0,-0.6373 0,-0.9552 z"
       id="path16" />
    <path
       style="fill:#ffffff;fill-opacity:1"
       inkscape:connector-curvature="0"
       d="m 6.0244085,1042.2215 c 0.3084223,-0.022 0.6181988,-0.041 0.9279828,-0.056 -0.3643725,0.7466 -0.7301068,1.493 -1.1013029,2.2368 0.3752963,0.7642 0.7587628,1.523 1.1354208,2.2872 -0.3288855,-0.019 -0.6564168,-0.04 -0.9853023,-0.062 -0.2319938,-0.569 -0.5144911,-1.119 -0.6809726,-1.714 -0.1856056,0.5541 -0.4503557,1.0767 -0.663248,1.6199 -0.2988678,0 -0.5977356,-0.017 -0.8965959,-0.029 0.3507254,-0.6865 0.6891654,-1.3783 1.050807,-2.0607 -0.3070606,-0.7028 -0.6441388,-1.392 -0.9607389,-2.0907 0.300237,-0.018 0.6004665,-0.035 0.9006885,-0.052 0.2033454,0.5336 0.4257923,1.0604 0.5936431,1.6076 0.1801437,-0.58 0.4489863,-1.1259 0.6796184,-1.6867 z"
       id="path18" />
    <path
       style="fill:#6c7a89;fill-opacity:1"
       inkscape:connector-curvature="0"
       d="m 10.713472,1042.444 c 0.637308,0 1.273246,0 1.910554,0 0,0.318 0,0.6373 0,0.9553 -0.637308,0 -1.273246,0 -1.910554,0 0,-0.318 0,-0.6373 0,-0.9553 z"
       id="path20" />
    <path
       style="fill:#6c7a89;fill-opacity:1"
       inkscape:connector-curvature="0"
       d="m 10.713472,1043.9452 c 0.637308,0 1.273246,0 1.910554,0 0,0.3179 0,0.6372 0,0.9553 -0.637308,0 -1.273246,0 -1.910554,0 0,-0.3181 0,-0.6374 0,-0.9553 z"
       id="path22" />
    <path
       style="fill:#6c7a89;fill-opacity:1"
       inkscape:connector-curvature="0"
       d="m 10.713472,1045.4463 c 0.637308,0 1.273246,0 1.910554,0 0,0.318 0,0.6373 0,0.9553 -0.637308,0 -1.273246,0 -1.910554,0 0,-0.318 0,-0.6373 0,-0.9553 z"
       id="path24" />
    <path
       style="fill:#6c7a89;fill-opacity:1"
       inkscape:connector-curvature="0"
       d="m 10.713472,1046.9475 c 0.637308,0 1.273246,0 1.910554,0 0,0.318 0,0.6372 0,0.9553 -0.637308,0 -1.273246,0 -1.910554,0 0,-0.3181 0,-0.6373 0,-0.9553 z"
       id="path26" />
  </g>
</svg>
