<?xml version="1.0" encoding="UTF-8" standalone="no"?>
<!-- Created with Inkscape (http://www.inkscape.org/) -->

<svg
   xmlns:dc="http://purl.org/dc/elements/1.1/"
   xmlns:cc="http://creativecommons.org/ns#"
   xmlns:rdf="http://www.w3.org/1999/02/22-rdf-syntax-ns#"
   xmlns:svg="http://www.w3.org/2000/svg"
   xmlns="http://www.w3.org/2000/svg"
   xmlns:sodipodi="http://sodipodi.sourceforge.net/DTD/sodipodi-0.dtd"
   xmlns:inkscape="http://www.inkscape.org/namespaces/inkscape"
   width="16"
   height="16"
   id="svg2"
   version="1.1"
   inkscape:version="0.91 r13725"
   viewBox="0 0 16 16"
   sodipodi:docname="application-x-apple-diskimage.svg">
  <defs
     id="defs4" />
  <sodipodi:namedview
     id="base"
     pagecolor="#ffffff"
     bordercolor="#666666"
     borderopacity="1.0"
     inkscape:pageopacity="0.0"
     inkscape:pageshadow="2"
     inkscape:zoom="31.625"
     inkscape:cx="6.5815923"
     inkscape:cy="9.0118582"
     inkscape:document-units="px"
     inkscape:current-layer="layer1"
     showgrid="true"
     inkscape:showpageshadow="false"
     borderlayer="true"
     inkscape:window-width="1366"
     inkscape:window-height="699"
     inkscape:window-x="0"
     inkscape:window-y="0"
     inkscape:window-maximized="1"
     units="px"
     inkscape:snap-bbox="true"
     inkscape:snap-global="true">
    <inkscape:grid
       type="xygrid"
       id="grid4101" />
    <sodipodi:guide
       position="2,14.000017"
       orientation="12,0"
       id="guide4071" />
    <sodipodi:guide
       position="2,2.0000174"
       orientation="0,12"
       id="guide4073" />
    <sodipodi:guide
       position="14,2.0000174"
       orientation="-12,0"
       id="guide4075" />
    <sodipodi:guide
       position="14,14.000017"
       orientation="0,-12"
       id="guide4077" />
  </sodipodi:namedview>
  <metadata
     id="metadata7">
    <rdf:RDF>
      <cc:Work
         rdf:about="">
        <dc:format>image/svg+xml</dc:format>
        <dc:type
           rdf:resource="http://purl.org/dc/dcmitype/StillImage" />
        <dc:title />
      </cc:Work>
    </rdf:RDF>
  </metadata>
  <g
     inkscape:label="Capa 1"
     inkscape:groupmode="layer"
     id="layer1"
     transform="translate(0,-1036.3622)">
    <g
       transform="matrix(0.01224786,0,0,0.01224786,1.8691098,1038.2375)"
       id="g6"
       style="fill:#22a7f0;fill-opacity:1">
      <path
         inkscape:connector-curvature="0"
         d="m 530.2,118.2 c 0,17.3 -14.1,31.2 -31.4,31.2 l 0,0 c -17.4,0 -31.4,-14 -31.4,-31.2 l 0,-76.9 C 467.4,24 481.5,10 498.8,10 l 0,0 c 17.4,0 31.4,14 31.4,31.3 l 0,76.9 z"
         id="path8"
         style="fill:#22a7f0;fill-opacity:1" />
      <path
         inkscape:connector-curvature="0"
         d="m 525.4,662 c 0,14.2 -11.6,25.7 -25.9,25.7 l -1.4,0 c -14.3,0 -25.9,-11.5 -25.9,-25.7 l 0,-83.1 c 0,-14.2 11.6,-25.8 25.9,-25.8 l 1.4,0 c 14.3,0 25.9,11.5 25.9,25.8 l 0,83.1 z"
         id="path10"
         style="fill:#22a7f0;fill-opacity:1" />
      <path
         inkscape:connector-curvature="0"
         d="m 825.5,906.7 c 10.4,-10.7 13.8,-27.1 7.1,-41.5 L 572.6,314 c -0.2,-1.5 -0.2,-3.1 -0.2,-4.7 0,-5.4 2,-10.4 5.2,-14.3 31,-23.3 51,-60.3 51,-101.9 0,-70.6 -57.5,-127.7 -128.5,-127.8 -72.3,0 -128.6,57.2 -128.6,127.8 0,41.6 19.9,78.6 50.9,101.9 3.3,3.9 5.3,8.8 5.3,14.3 0,1.6 0,3.2 -0.2,4.7 l -260,551.2 c -6.7,14.3 -3.4,30.8 7.1,41.5 l -41,83.3 64.8,-70.2 c 17.2,4.5 35.6,-3.7 43.4,-20.2 L 489.7,374.2 c 2.3,-2.9 5.8,-4.7 9.8,-4.7 0.2,0 0.6,0 0.6,0 0.2,0 0.4,0 0.6,0 4,0 7.5,1.9 9.7,4.7 l 247.9,525.4 c 7.7,16.6 26.2,24.7 43.3,20.2 L 866.4,990 825.5,906.7 Z M 500.1,266.6 c -41,0 -73.8,-32.9 -73.8,-73.5 0,-40.5 32.9,-73.4 73.8,-73.5 40.8,0 73.8,32.9 73.8,73.5 0,40.6 -33,73.5 -73.8,73.5 z"
         id="path12"
         style="fill:#22a7f0;fill-opacity:1" />
      <path
         inkscape:connector-curvature="0"
         d="m 781.7,622.9 c 0,9.3 -7.5,16.8 -16.9,16.8 l -532.1,0 c -9.3,0 -16.9,-7.5 -16.9,-16.8 l 0,-0.1 c 0,-9.3 7.6,-16.8 16.9,-16.8 l 532.1,0 c 9.4,0.1 16.9,7.6 16.9,16.9 l 0,0 z"
         id="path14"
         style="fill:#22a7f0;fill-opacity:1" />
    </g>
  </g>
</svg>
