<?xml version="1.0" encoding="UTF-8" standalone="no"?>
<!-- Created with Inkscape (http://www.inkscape.org/) -->

<svg
   xmlns:dc="http://purl.org/dc/elements/1.1/"
   xmlns:cc="http://creativecommons.org/ns#"
   xmlns:rdf="http://www.w3.org/1999/02/22-rdf-syntax-ns#"
   xmlns:svg="http://www.w3.org/2000/svg"
   xmlns="http://www.w3.org/2000/svg"
   xmlns:sodipodi="http://sodipodi.sourceforge.net/DTD/sodipodi-0.dtd"
   xmlns:inkscape="http://www.inkscape.org/namespaces/inkscape"
   width="16"
   height="16"
   id="svg2"
   version="1.1"
   inkscape:version="0.91 r13725"
   viewBox="0 0 16 16"
   sodipodi:docname="application-x-lyx.svg">
  <defs
     id="defs4" />
  <sodipodi:namedview
     id="base"
     pagecolor="#ffffff"
     bordercolor="#666666"
     borderopacity="1.0"
     inkscape:pageopacity="0.0"
     inkscape:pageshadow="2"
     inkscape:zoom="22.4"
     inkscape:cx="9.0866816"
     inkscape:cy="8.1882205"
     inkscape:document-units="px"
     inkscape:current-layer="layer1"
     showgrid="true"
     inkscape:showpageshadow="false"
     borderlayer="true"
     inkscape:window-width="1920"
     inkscape:window-height="1006"
     inkscape:window-x="0"
     inkscape:window-y="0"
     inkscape:window-maximized="1"
     units="px"
     inkscape:snap-bbox="true"
     inkscape:snap-global="true"
     inkscape:object-nodes="true">
    <inkscape:grid
       type="xygrid"
       id="grid4101" />
    <sodipodi:guide
       position="2,14.000017"
       orientation="12,0"
       id="guide4071" />
    <sodipodi:guide
       position="2,2.0000174"
       orientation="0,12"
       id="guide4073" />
    <sodipodi:guide
       position="14,2.0000174"
       orientation="-12,0"
       id="guide4075" />
    <sodipodi:guide
       position="3,14"
       orientation="0,-12"
       id="guide4077" />
  </sodipodi:namedview>
  <metadata
     id="metadata7">
    <rdf:RDF>
      <cc:Work
         rdf:about="">
        <dc:format>image/svg+xml</dc:format>
        <dc:type
           rdf:resource="http://purl.org/dc/dcmitype/StillImage" />
        <dc:title />
      </cc:Work>
    </rdf:RDF>
  </metadata>
  <g
     inkscape:label="Capa 1"
     inkscape:groupmode="layer"
     id="layer1"
     transform="translate(0,-1036.3622)">
    <rect
       style="fill:#8e44ad;fill-opacity:1;stroke:none"
       id="rect4035"
       width="0"
       height="14.668059"
       x="-54.618191"
       y="1017.4788" />
    <rect
       style="fill:#8e44ad;fill-opacity:1;stroke:none"
       id="rect4035-8"
       width="0"
       height="14.668059"
       x="-47.657619"
       y="1040.0493" />
    <rect
       style="fill:#8e44ad;fill-opacity:1;stroke:none"
       id="rect4035-0"
       width="0"
       height="14.668059"
       x="-45.844326"
       y="1038.9886" />
    <g
       transform="matrix(1.3333333,0,0,1.3333333,-1.6666651,-348.1207)"
       id="layer1-2"
       inkscape:label="Capa 1"
       style="fill:#8e44ad;fill-opacity:1" />
    <rect
       style="fill:#22a7f0;fill-opacity:1;stroke:none"
       id="rect4035-3"
       width="0"
       height="14.668059"
       x="-54.618195"
       y="1017.4788" />
    <rect
       style="fill:#22a7f0;fill-opacity:1;stroke:none"
       id="rect4035-8-9"
       width="0"
       height="14.668059"
       x="-47.657623"
       y="1040.0493" />
    <rect
       style="fill:#22a7f0;fill-opacity:1;stroke:none"
       id="rect4035-0-4"
       width="0"
       height="14.668059"
       x="-45.84433"
       y="1038.9886" />
    <path
       inkscape:connector-curvature="0"
       style="opacity:1;fill:#22a7f0;fill-opacity:1;stroke:none"
       d="m 2,1038.3622 0,1 12,0 0,-1 -12,0 z m 4.2675781,2 0.017578,0.4863 3.4296876,4.5137 L 6,1049.8075 l 0,0.5547 8,0 0,-2.7773 -0.572266,0 c 0,0.5553 0.149571,0.8998 -0.33789,1.2324 -0.534418,0.3649 -1.238487,0.4336 -1.857422,0.4336 l -2.9472658,0 2.8574218,-3.8887 -2.8574218,-4.4453 1.6796876,0 c 1.1909132,0 2.8861952,-0.1067 3.3574222,1.2851 0.08056,0.2376 0.08519,0.6878 0.105468,0.9375 l 0.572266,0 0,-2.7773 -7.7324219,0 z m -4.2675781,1 0,1 4,0 0,-1 -4,0 z m 0,2 0,1 5,0 0,-1 -5,0 z m 0,3 0,1 5,0 0,-1 -5,0 z m 0,2 0,1 4,0 0,-1 -4,0 z"
       id="rect4274" />
  </g>
</svg>
