<svg width="16" height="16" viewBox="0 0 16 16" fill="none" xmlns="http://www.w3.org/2000/svg">
<circle cx="8" cy="8" r="5.5" stroke="#559F2F"/>
<path fill-rule="evenodd" clip-rule="evenodd" d="M8 2C6.34315 2 5 3.34315 5 5C5 6.65685 6.34315 8 8 8C9.65685 8 11 6.65685 11 5C11 3.34315 9.65685 2 8 2ZM8 3C7.44772 3 7 3.44772 7 4C7 4.55228 7.44772 5 8 5C8.55228 5 9 4.55228 9 4C9 3.44772 8.55228 3 8 3Z" fill="#559F2F"/>
<path fill-rule="evenodd" clip-rule="evenodd" d="M6 7V11L8 13L10 11V9V8V7H6ZM7 11V8H8V11H7Z" fill="#559F2F"/>
</svg>
