<?xml version="1.0" encoding="UTF-8" standalone="no"?>

<!-- Created with Inkscape (http://www.inkscape.org/) -->
<svg width="16" version="1.1" xmlns="http://www.w3.org/2000/svg" height="16" viewBox="0 0 16 16" xmlns:inkscape="http://www.inkscape.org/namespaces/inkscape">
 <defs id="defs4"/>
 <metadata id="metadata7"/>
 <path inkscape:label="Capa 1" inkscape:groupmode="layer" inkscape:connector-curvature="0" style="fill:#3a539b" id="rect4173" d="m 2,1038.3622 0,12 12,0 0,-12 z m 1,1 4,0 0,1 1,0 0,-1 5,0 0,10 -10,0 z m 5,1 0,1 1,0 0,-1 z m 0,1 -1,0 0,1 1,0 z m 0,1 0,1 1,0 0,-1 z m 0,1 -1,0 0,1 1,0 z m 0,1 0,1 1,0 0,-1 z m 0,1 -1,0 0,1 0,1 2,0 0,-1 0,0 -1,0 z" transform="matrix(1 0 0 1 0 -1036.3622)"/>
</svg>
