<?xml version="1.0" encoding="UTF-8" standalone="no"?>
<!-- Created with Inkscape (http://www.inkscape.org/) -->

<svg
   xmlns:dc="http://purl.org/dc/elements/1.1/"
   xmlns:cc="http://creativecommons.org/ns#"
   xmlns:rdf="http://www.w3.org/1999/02/22-rdf-syntax-ns#"
   xmlns:svg="http://www.w3.org/2000/svg"
   xmlns="http://www.w3.org/2000/svg"
   xmlns:sodipodi="http://sodipodi.sourceforge.net/DTD/sodipodi-0.dtd"
   xmlns:inkscape="http://www.inkscape.org/namespaces/inkscape"
   width="16"
   version="1.1"
   height="16"
   viewBox="0 0 16 16"
   id="svg2"
   inkscape:version="0.91 r13725"
   sodipodi:docname="application-dicom.svg">
  <sodipodi:namedview
     pagecolor="#ffffff"
     bordercolor="#666666"
     borderopacity="1"
     objecttolerance="10"
     gridtolerance="10"
     guidetolerance="10"
     inkscape:pageopacity="0"
     inkscape:pageshadow="2"
     inkscape:window-width="1920"
     inkscape:window-height="1025"
     id="namedview9"
     showgrid="false"
     inkscape:zoom="14.75"
     inkscape:cx="-3.8644068"
     inkscape:cy="7.4576271"
     inkscape:window-x="0"
     inkscape:window-y="26"
     inkscape:window-maximized="1"
     inkscape:current-layer="layer1" />
  <defs
     id="defs4" />
  <metadata
     id="metadata7">
    <rdf:RDF>
      <cc:Work
         rdf:about="">
        <dc:format>image/svg+xml</dc:format>
        <dc:type
           rdf:resource="http://purl.org/dc/dcmitype/StillImage" />
        <dc:title />
      </cc:Work>
    </rdf:RDF>
  </metadata>
  <g
     inkscape:label="Capa 1"
     inkscape:groupmode="layer"
     id="layer1"
     transform="matrix(1 0 0 1 0 -1036.3622)">
    <path
       style="fill:#687583;fill-opacity:1"
       d="m 7.0750388,1037.3622 c -0.6842686,0 -1.5760085,0.4061 -2.3913693,1.0851 -0.489379,0.2199 -0.8337423,0.7277 -0.8337423,1.319 0,0.1853 0.033358,0.3669 0.098087,0.5354 -0.8456263,0.1714 -1.4850423,0.9495 -1.4850423,1.8831 0,0.1939 0.027145,0.3856 0.082393,0.5702 C 2.1967561,1043.115 2,1043.6048 2,1044.1211 c 0,0.4036 0.1194153,0.7777 0.3236882,1.0872 C 2.1114012,1045.5292 2,1045.9034 2,1046.2975 c 0,0.6982 0.3633616,1.3387 0.9396767,1.6759 -0.010004,0.086 -0.013732,0.1738 -0.013732,0.2607 0,0.9417 0.587561,1.7734 1.4399221,2.0572 0.3707704,0.6635 1.0447948,1.0709 1.7832278,1.0709 0.8095744,0 1.5126557,-0.4876 1.8518889,-1.1981 0.3392332,0.7105 1.0403604,1.1981 1.8499272,1.1981 0.7384323,0 1.4144263,-0.4074 1.7851903,-1.0709 0.852367,-0.2839 1.439921,-1.1155 1.439921,-2.0572 0,-0.087 -0.0059,-0.1744 -0.0157,-0.2607 0.576315,-0.3372 0.939677,-0.9777 0.939677,-1.6759 0,-0.3941 -0.111401,-0.7683 -0.323688,-1.0892 C 13.880568,1044.8988 14,1044.5247 14,1044.1211 c 0,-0.5163 -0.196757,-1.0061 -0.545367,-1.3661 0.05523,-0.1846 0.08436,-0.3763 0.08436,-0.5702 0,-0.9336 -0.641377,-1.7117 -1.487003,-1.8831 0.06456,-0.1685 0.09809,-0.3501 0.09809,-0.5354 0,-0.5913 -0.344364,-1.0991 -0.833742,-1.319 -0.815362,-0.679 -1.7071018,-1.0851 -2.3913701,-1.0851 -0.3803498,0 -0.7162636,0.1965 -0.9239828,0.4964 -0.2077268,-0.2999 -0.5455872,-0.4964 -0.9259444,-0.4964 z m 0,0.4533 c 0.3906514,0 0.7081905,0.334 0.7081905,0.7426 l 0,2.9332 c -0.1948741,-0.1615 -0.4407003,-0.2584 -0.7081905,-0.2584 -0.1197826,0 -0.2177539,0.1034 -0.2177539,0.2277 0,0.1253 0.097994,0.2257 0.2177539,0.2257 0.3906514,0 0.7081905,0.332 0.7081905,0.7406 l 0,5.4522 c -0.2696574,-0.3638 -0.6494297,-0.6374 -1.0966164,-0.7631 -0.1156513,-0.032 -0.2357044,0.039 -0.2667976,0.1599 -0.031153,0.1211 0.037388,0.2447 0.1530163,0.277 0.7121863,0.2002 1.2103977,0.8769 1.2103977,1.6473 0,0.9421 -0.7332224,1.7086 -1.634135,1.7086 -0.6081306,0 -1.1618901,-0.3505 -1.4458073,-0.9148 -0.028144,-0.056 -0.077027,-0.096 -0.1353606,-0.1129 -0.7117645,-0.2004 -1.208436,-0.8771 -1.208436,-1.647 0,-0.1153 0.00956,-0.2323 0.031388,-0.3448 0.020242,-0.1044 -0.030634,-0.209 -0.1235901,-0.2523 -0.5066112,-0.2354 -0.8337423,-0.7612 -0.8337423,-1.3395 0,-0.2631 0.06588,-0.5137 0.1902894,-0.7364 0.3237695,0.2986 0.747813,0.4801 1.2123595,0.4801 0.119775,0 0.2157922,-0.1034 0.2157921,-0.2277 0,-0.1253 -0.096047,-0.2257 -0.2157921,-0.2257 -0.7733714,0 -1.4026489,-0.658 -1.4026489,-1.4667 0,-0.4353 0.1838686,-0.8462 0.5041689,-1.1261 0.072315,-0.062 0.096295,-0.1672 0.060814,-0.2584 -0.068552,-0.1765 -0.1020109,-0.3632 -0.1020109,-0.5518 0,-0.8087 0.629285,-1.4646 1.4026489,-1.4646 0.7733715,0 1.402649,0.6559 1.402649,1.4646 0,0.1252 0.096047,0.2276 0.2157921,0.2276 0.11979,0 0.2177539,-0.1034 0.2177539,-0.2276 0,-1.0173 -0.7607494,-1.8501 -1.7184901,-1.9139 -0.086793,-0.1518 -0.1333988,-0.3256 -0.1333988,-0.5046 0,-0.4043 0.2345569,-0.7519 0.5689065,-0.9025 0.012868,-0.011 0.026971,-0.012 0.039235,-0.017 0.1035888,-0.041 0.2143337,-0.065 0.3315352,-0.065 0.363125,0 0.6887503,0.2122 0.8474746,0.5539 0.052374,0.1127 0.1806642,0.1594 0.2883766,0.1055 0.1077502,-0.055 0.1543617,-0.189 0.102011,-0.3015 -0.1812015,-0.3902 -0.5251111,-0.672 -0.9200593,-0.7713 0.5535595,-0.3533 1.0989842,-0.554 1.534086,-0.554 z m 1.8499271,0 c 0.4351089,0 0.980526,0.2007 1.5340851,0.5539 -0.394932,0.099 -0.7368953,0.3812 -0.9180966,0.7713 -0.052374,0.1127 -0.00707,0.2468 0.1000487,0.3016 0.1077351,0.055 0.2360255,0.011 0.2883768,-0.1056 0.1587251,-0.3418 0.4843431,-0.5538 0.8474751,-0.5538 0.117202,0 0.227976,0.023 0.331536,0.063 0.01219,0.011 0.02637,0.013 0.03923,0.017 0.334411,0.1508 0.568908,0.4983 0.568908,0.9026 0,0.1792 -0.04658,0.3509 -0.133399,0.5026 -0.957749,0.064 -1.7184909,0.8987 -1.7184909,1.9159 0,0.1252 0.09801,0.2276 0.2177539,0.2276 0.11979,0 0.217754,-0.1034 0.217754,-0.2276 0,-0.8087 0.627324,-1.4667 1.400688,-1.4667 0.773364,0 1.402649,0.658 1.402649,1.4667 0,0.1889 -0.03347,0.3753 -0.102011,0.5518 -0.03545,0.091 -0.01149,0.1953 0.06082,0.2584 0.320271,0.28 0.504171,0.6908 0.50417,1.1261 0,0.8087 -0.629286,1.4666 -1.402649,1.4666 -0.119782,0 -0.215793,0.1013 -0.215793,0.2258 0,0.1253 0.09604,0.2277 0.215793,0.2277 0.464547,0 0.890568,-0.1818 1.214321,-0.4801 0.124532,0.2227 0.188329,0.4733 0.188328,0.7364 0,0.5783 -0.327133,1.1041 -0.833744,1.3395 -0.09302,0.043 -0.143884,0.1481 -0.123588,0.2523 0.0219,0.1125 0.03335,0.2295 0.03335,0.3446 0,0.7699 -0.498634,1.4469 -1.210399,1.6472 -0.05832,0.017 -0.107247,0.057 -0.13536,0.1129 -0.283918,0.5641 -0.837685,0.9148 -1.445808,0.9148 -0.9009274,0 -1.6341351,-0.7667 -1.6341351,-1.7086 0,-0.065 -0.00288,-0.1263 -0.00784,-0.1888 0.00526,-0.019 0.00784,-0.04 0.00784,-0.061 l 0,-7.4893 c 0,-0.4084 0.3175316,-0.7425 0.7081906,-0.7425 0.119775,0 0.2177539,-0.1012 0.2177539,-0.2256 0,-0.1254 -0.098002,-0.2277 -0.2177539,-0.2277 -0.2674978,0 -0.5133164,0.097 -0.7081906,0.2585 l 0,-1.9652 c 0,-0.4086 0.3175316,-0.7426 0.7081906,-0.7426 z m 3.2388441,3.9016 c -0.119775,0 -0.215793,0.1033 -0.215793,0.2276 0,0.8088 -0.629292,1.4646 -1.402648,1.4646 -0.38008,0 -0.7364301,-0.1549 -1.0024529,-0.4389 -0.083775,-0.089 -0.2204736,-0.092 -0.3060325,0 -0.085589,0.087 -0.087906,0.2304 -0.00393,0.3199 0.3008032,0.3211 0.689417,0.5165 1.1103484,0.5641 0.09965,0.6903 0.671994,1.2227 1.35949,1.2227 0.119775,0 0.215793,-0.1034 0.215793,-0.2277 0,-0.1254 -0.09603,-0.2256 -0.215793,-0.2256 l -0.002,0 c -0.449278,0 -0.823866,-0.332 -0.916136,-0.7734 0.900114,-0.1227 1.596862,-0.9273 1.596862,-1.9014 0,-0.1253 -0.09799,-0.2277 -0.217754,-0.2277 z m -7.8646429,0.2379 c -0.1197749,0 -0.2177539,0.1033 -0.2177539,0.2276 0,0.9741 0.698709,1.7809 1.5988236,1.9037 l 0,0 c -0.092317,0.4412 -0.4688265,0.7732 -0.9180974,0.7732 -0.1197826,0 -0.2177539,0.1034 -0.2177539,0.2278 0,0.1252 0.098001,0.2256 0.2177539,0.2256 0.687504,0 1.2579282,-0.5304 1.3575287,-1.2206 0.4209319,-0.047 0.8095303,-0.243 1.1103487,-0.5641 0.083775,-0.089 0.081458,-0.2344 -0.00393,-0.322 -0.085589,-0.087 -0.2222042,-0.086 -0.3060325,0 -0.266023,0.284 -0.6223737,0.441 -1.0024526,0.441 -0.7733639,0 -1.4026488,-0.6581 -1.4026488,-1.4666 0,-0.1254 -0.096032,-0.2277 -0.2157922,-0.2277 z m 4.6257988,3.3909 c -0.1197901,0 -0.2157921,0.1033 -0.2157921,0.2276 0,0.1253 0.096032,0.2256 0.2157921,0.2256 0.773364,0 1.4026491,0.658 1.4026491,1.4667 0,0.052 -0.0029,0.1055 -0.0078,0.1558 -0.6728986,0.2853 -1.1476225,0.9758 -1.1476225,1.7805 0,0.1254 0.09604,0.2257 0.2157921,0.2257 0.1197825,0 0.2177539,-0.1012 0.2177539,-0.2257 0,-0.8085 0.6292855,-1.4667 1.4026485,-1.4667 0.119774,0 0.215793,-0.1033 0.215793,-0.2276 0,-0.1254 -0.09603,-0.2256 -0.215793,-0.2256 l 0,0 c -0.08357,0 -0.166527,0.012 -0.247179,0.019 1.8e-4,-0.012 0,-0.023 0,-0.032 0,-1.0587 -0.823643,-1.9199 -1.8361955,-1.9199 z m -2.5443855,0.4839 c -1.0125452,0 -1.8361949,0.8614 -1.8361949,1.9201 0,0.011 -1.204e-4,0.022 0,0.032 -0.080661,-0.011 -0.1616461,-0.018 -0.2452184,-0.018 -0.11979,0 -0.2177539,0.1012 -0.2177539,0.2255 0,0.1253 0.097994,0.2278 0.2177539,0.2278 0.773364,0 1.402649,0.6578 1.402649,1.4666 0,0.1252 0.096047,0.2277 0.2157921,0.2277 0.119775,0 0.2177539,-0.1034 0.2177539,-0.2277 0,-0.8047 -0.4766705,-1.4954 -1.1495836,-1.7805 -0.00526,-0.052 -0.00784,-0.1033 -0.00784,-0.1539 0,-0.8086 0.6292849,-1.4666 1.4026489,-1.4666 0.119775,0 0.2177539,-0.1034 0.2177539,-0.2278 0,-0.1252 -0.097994,-0.2255 -0.2177539,-0.2255 z"
       id="path5"
       inkscape:connector-curvature="0" />
  </g>
</svg>
