<?xml version="1.0" encoding="UTF-8" standalone="no"?>
<!-- Created with Inkscape (http://www.inkscape.org/) -->

<svg
   xmlns:dc="http://purl.org/dc/elements/1.1/"
   xmlns:cc="http://creativecommons.org/ns#"
   xmlns:rdf="http://www.w3.org/1999/02/22-rdf-syntax-ns#"
   xmlns:svg="http://www.w3.org/2000/svg"
   xmlns="http://www.w3.org/2000/svg"
   xmlns:sodipodi="http://sodipodi.sourceforge.net/DTD/sodipodi-0.dtd"
   xmlns:inkscape="http://www.inkscape.org/namespaces/inkscape"
   width="16"
   version="1.1"
   height="16"
   viewBox="0 0 16 16"
   id="svg9"
   inkscape:version="0.91 r13725"
   sodipodi:docname="application-atom+xml.svg">
  <sodipodi:namedview
     pagecolor="#ffffff"
     bordercolor="#666666"
     borderopacity="1"
     objecttolerance="10"
     gridtolerance="10"
     guidetolerance="10"
     inkscape:pageopacity="0"
     inkscape:pageshadow="2"
     inkscape:window-width="1920"
     inkscape:window-height="1025"
     id="namedview14"
     showgrid="false"
     inkscape:zoom="14.75"
     inkscape:cx="8"
     inkscape:cy="7.4576271"
     inkscape:window-x="0"
     inkscape:window-y="26"
     inkscape:window-maximized="1"
     inkscape:current-layer="svg9" />
  <defs
     id="defs4" />
  <metadata
     id="metadata7">
    <rdf:RDF>
      <cc:Work
         rdf:about="">
        <dc:format>image/svg+xml</dc:format>
        <dc:type
           rdf:resource="http://purl.org/dc/dcmitype/StillImage" />
      </cc:Work>
    </rdf:RDF>
  </metadata>
  <path
     inkscape:label="Capa 1"
     inkscape:groupmode="layer"
     style="fill:#fc963a;color:#000000;stroke-width:0.1;fill-opacity:1"
     id="path3843"
     d="M 2 2 L 2 3 L 2 4 C 7.5228475 4 12 8.4771538 12 14 L 14 14 C 14 13.978814 14.00011 13.95866 14 13.9375 C 14 13.54628 13.974212 13.162781 13.9375 12.78125 C 13.935396 12.760535 13.939709 12.739434 13.9375 12.71875 C 13.898865 12.337871 13.823537 11.963149 13.75 11.59375 C 13.745921 11.573817 13.754178 11.551147 13.75 11.53125 C 13.513576 10.374719 13.106737 9.2893029 12.5625 8.28125 C 12.558349 8.2736081 12.566667 8.2576318 12.5625 8.25 C 11.083622 5.5263066 8.5791561 3.4520375 5.5625 2.53125 C 5.2059209 2.4203423 4.8387302 2.327682 4.46875 2.25 C 4.4487903 2.2459197 4.426246 2.2539806 4.40625 2.25 C 4.0357216 2.1741789 3.6633615 2.1033085 3.28125 2.0625 C 3.2607145 2.060417 3.2393163 2.064479 3.21875 2.0625 C 2.8359783 2.0236274 2.4550493 2.0020345 2.0625 2 C 2.0414115 2 2.0210627 1.999891 2 2 z M 2 6 L 2 7 L 2 8 C 5.3137084 8 8 10.686305 8 14 L 9 14 L 10 14 C 10 9.5817315 6.418278 6 2 6 z M 4 10 C 2.8954305 10 2 10.895431 2 12 C 2 13.104569 2.8954305 14 4 14 C 5.1045695 14 6 13.104569 6 12 C 6 10.895431 5.1045695 10 4 10 z " />
</svg>
