<?xml version="1.0" encoding="UTF-8" standalone="no"?>
<!-- Created with Inkscape (http://www.inkscape.org/) -->

<svg
   xmlns:dc="http://purl.org/dc/elements/1.1/"
   xmlns:cc="http://creativecommons.org/ns#"
   xmlns:rdf="http://www.w3.org/1999/02/22-rdf-syntax-ns#"
   xmlns:svg="http://www.w3.org/2000/svg"
   xmlns="http://www.w3.org/2000/svg"
   xmlns:sodipodi="http://sodipodi.sourceforge.net/DTD/sodipodi-0.dtd"
   xmlns:inkscape="http://www.inkscape.org/namespaces/inkscape"
   width="16"
   version="1.1"
   height="16"
   viewBox="0 0 16 16"
   id="svg2"
   inkscape:version="0.91 r13725"
   sodipodi:docname="application-vnd.ms-powerpoint.template.macroenabled.12-16.svg">
  <sodipodi:namedview
     pagecolor="#ffffff"
     bordercolor="#666666"
     borderopacity="1"
     objecttolerance="10"
     gridtolerance="10"
     guidetolerance="10"
     inkscape:pageopacity="0"
     inkscape:pageshadow="2"
     inkscape:window-width="1366"
     inkscape:window-height="699"
     id="namedview9"
     showgrid="false"
     inkscape:zoom="18.163026"
     inkscape:cx="8.1271448"
     inkscape:cy="5.5502583"
     inkscape:window-x="0"
     inkscape:window-y="0"
     inkscape:window-maximized="1"
     inkscape:current-layer="layer1" />
  <defs
     id="defs4" />
  <metadata
     id="metadata7">
    <rdf:RDF>
      <cc:Work
         rdf:about="">
        <dc:format>image/svg+xml</dc:format>
        <dc:type
           rdf:resource="http://purl.org/dc/dcmitype/StillImage" />
      </cc:Work>
    </rdf:RDF>
  </metadata>
  <g
     inkscape:label="Capa 1"
     inkscape:groupmode="layer"
     id="layer1"
     transform="matrix(1 0 0 1 0 -1036.3622)">
    <path
       inkscape:connector-curvature="0"
       style="fill:#6c7a89;stroke-linecap:round;stroke-linejoin:round;stroke-width:2"
       id="rect4169-4"
       d="m 8,1042.3622 c -0.5555545,0 -1.0742855,0.1705 -1.439737,0.4902 C 6.194823,1043.1722 6,1043.6261 6,1044.1122 l 1.142857,0 c 0,-0.2639 0.090858,-0.435 0.2254515,-0.5527 0.1345485,-0.1178 0.330103,-0.1973 0.6316915,-0.1973 0.3015885,0 0.497143,0.08 0.6316915,0.1973 0.13456,0.1177 0.2254515,0.2888 0.2254515,0.5527 0,0.2292 -0.051658,0.3267 -0.1205375,0.4131 -0.297874,0.2629 -0.6581255,0.4878 -0.9475425,0.7031 -0.3266745,0.2146 -0.646046,0.496 -0.646046,0.8838 l 0,0.25 1.1428575,0 0,-0.25 c 0.4061825,-0.3638 1.011417,-0.6811 1.3882285,-1.0146 C 9.873051,1044.848 10,1044.508 10,1044.1122 c 0,-0.4861 -0.194823,-0.94 -0.560263,-1.2598 C 9.0742855,1042.5327 8.5555545,1042.3622 8,1042.3622 Z m -0.856983,5 0,1 1.1428575,0 0,-1 z" />
    <path
       inkscape:connector-curvature="0"
       style="fill:#6c7a89;stroke-width:2;stroke-linecap:round;stroke-linejoin:round"
       id="rect4169-4-8"
       d="m 8.0253451,1042.1214 c -0.6256768,0 -1.2099848,0.1921 -1.6216148,0.5523 -0.4117127,0.3603 -0.6312122,0.8717 -0.6312122,1.4193 l 1.287202,0 c 0,-0.2974 0.1026334,-0.4901 0.2541463,-0.6226 0.1514077,-0.1327 0.3719662,-0.2224 0.7114787,-0.2224 0.3401359,0 0.560071,0.09 0.7118768,0.2224 0.1515955,0.1325 0.2537481,0.3252 0.2537481,0.6226 0,0.2582 -0.057081,0.368 -0.1355902,0.4654 -0.3356521,0.2964 -0.7413337,0.5495 -1.0674321,0.7921 -0.3682334,0.2417 -0.7278145,0.5588 -0.7278145,0.9957 l 0,0.2816 1.2873522,0 0,-0.2816 c 0.4577532,-0.4099 1.1393845,-0.7674 1.5640989,-1.1432 0.2241267,-0.281 0.3673397,-0.6639 0.3673397,-1.1103 0,-0.5475 -0.219619,-1.0587 -0.6310846,-1.419 -0.4117585,-0.3602 -0.996457,-0.5523 -1.6222315,-0.5523 z m -0.9652119,5.6332 0,1.1264 1.2873522,0 0,-1.1264 z" />
    <path
       inkscape:connector-curvature="0"
       style="fill:#ffffff;stroke-width:2;stroke-linecap:round;stroke-linejoin:round"
       id="rect4169-4-4"
       d="m 8.2156881,1042.3741 c -0.4867367,0 -0.9412002,0.1708 -1.2613803,0.4909 -0.320165,0.3202 -0.4908527,0.7747 -0.4908527,1.2614 l 1.0012707,0 c 0,-0.2642 0.079606,-0.4356 0.1975232,-0.5535 0.1178801,-0.1178 0.2892061,-0.1975 0.5534391,-0.1975 0.2642256,0 0.4355516,0.08 0.5534316,0.1975 0.1178876,0.1179 0.1975233,0.2893 0.1975233,0.5535 0,0.2294 -0.045289,0.3271 -0.1056076,0.4136 -0.2609735,0.2633 -0.5765946,0.4884 -0.830155,0.704 -0.2862092,0.2149 -0.5660119,0.4966 -0.5660119,0.8849 l 0,0.2504 1.0012781,0 0,-0.2504 c 0.3558633,-0.3643 0.886117,-0.6819 1.2162495,-1.0159 0.1743002,-0.2498 0.2855258,-0.5903 0.2855258,-0.9866 0,-0.4867 -0.1706876,-0.9412 -0.4908609,-1.2614 -0.3201801,-0.3201 -0.7746436,-0.4909 -1.2613729,-0.4909 z m -0.7508196,5.0064 0,1.0013 1.0012781,0 0,-1.0013 z" />
    <path
       inkscape:connector-curvature="0"
       style="fill:#ffffff;stroke-width:2;stroke-linecap:round;stroke-linejoin:round"
       id="rect4169-4-6"
       d="m 8.289518,1042.1609 c -0.5324467,0 -1.0295933,0.1867 -1.3798161,0.5369 -0.3502453,0.3503 -0.5369532,0.8474 -0.5369532,1.3798 l 1.0952818,0 c 0,-0.289 0.087116,-0.4764 0.2160746,-0.6053 0.1289583,-0.129 0.3163722,-0.2161 0.6054129,-0.2161 0.2890409,0 0.4764397,0.087 0.6054055,0.2161 0.1289508,0.1289 0.2160596,0.3163 0.2160596,0.6053 0,0.251 -0.04942,0.3578 -0.1155142,0.4525 -0.2854807,0.288 -0.6307314,0.5343 -0.9081157,0.7701 -0.3130824,0.2351 -0.61915,0.5433 -0.61915,0.9681 l 0,0.2737 1.0952817,0 0,-0.2737 c 0.3892859,-0.3985 0.9693285,-0.7461 1.3304568,-1.1114 0.1906743,-0.2733 0.3123393,-0.6457 0.3123393,-1.0793 0,-0.5324 -0.186715,-1.0295 -0.5369535,-1.3798 -0.3502386,-0.3502 -0.8473777,-0.5369 -1.3798095,-0.5369 z m -0.8213148,5.4765 0,1.0953 1.0952817,0 0,-1.0953 z" />
    <path
       style="fill:#6c7a89;fill-opacity:1"
       inkscape:connector-curvature="0"
       d="m 8.3157371,1038.6194 0.7736078,0 c 0,0.4093 0,0.8187 0,1.2279 1.4585281,0.01 2.9184201,-0.015 4.3755851,0.01 0.313809,-0.03 0.559398,0.2142 0.528017,0.528 0.02319,2.5487 -0.0055,5.0988 0.01365,7.6488 -0.01365,0.2756 0.02729,0.5812 -0.13098,0.8255 -0.199201,0.1446 -0.458434,0.1255 -0.691744,0.1364 -1.364386,-0.01 -2.728771,-0.01 -4.0945219,-0.01 0,0.4543 0,0.91 0,1.3644 l -0.8486484,0 c -2.0793255,-0.3794 -4.1627428,-0.7259 -6.2434309,-1.0916 -0.00137,-3.1831 0,-6.3662 0,-9.5479 2.1052471,-0.3615 4.2104938,-0.7326 6.3184693,-1.0915 z"
       id="path29" />
    <path
       style="fill:#ffffff;fill-opacity:1"
       inkscape:connector-curvature="0"
       d="m 9.0893449,1040.2567 c 1.5008241,0 3.0016491,0 4.5024731,0 0,2.7738 0,5.5489 0,8.3227 -1.500824,0 -3.001649,0 -4.5024731,0 0,-0.3643 0,-0.7272 0,-1.0915 1.0915091,0 2.1830181,0 3.2745261,0 0,-0.1814 0,-0.3643 0,-0.5458 -1.091508,0 -2.183017,0 -3.2745261,0 0,-0.2278 0,-0.4543 0,-0.6822 1.0915091,0 2.1830181,0 3.2745261,0 0,-0.1814 0,-0.3642 0,-0.5457 -1.091508,0 -2.183017,0 -3.2731622,0 -0.00135,-0.2674 -0.00135,-0.5348 -0.0027,-0.8023 0.5402969,0.1679 1.1556342,0.1638 1.6386272,-0.1609 0.522559,-0.3098 0.795437,-0.9006 0.840461,-1.4899 -0.598965,-0.01 -1.197931,0 -1.7955312,0 -0.00135,-0.5935 0.00683,-1.187 -0.01228,-1.7792 -0.2237596,0.044 -0.4475191,0.09 -0.6699139,0.1379 0,-0.453 0,-0.9074 0,-1.3604 z"
       id="path31" />
    <path
       style="fill:#6c7a89;fill-opacity:1"
       inkscape:connector-curvature="0"
       d="m 10.04578,1041.194 c 0.948248,0.043 1.745049,0.8419 1.795532,1.7874 -0.598966,0.01 -1.197931,0.01 -1.796896,0.01 0,-0.5976 -0.0014,-1.1952 0.0014,-1.7915 z"
       id="path33" />
    <path
       style="fill:#ffffff;fill-opacity:1"
       inkscape:connector-curvature="0"
       d="m 4.1857424,1042.2241 c 0.7408615,0.035 1.6386274,-0.2933 2.2526004,0.2619 0.5880502,0.7136 0.4325108,2.0262 -0.4393322,2.4533 -0.3097155,0.1582 -0.6644555,0.1364 -1.0014587,0.1255 -0.00137,0.5334 -0.00273,1.0669 -0.00137,1.6004 -0.2701484,-0.023 -0.5416611,-0.047 -0.8118095,-0.068 -0.012279,-1.4572 -0.015008,-2.9157 0.00137,-4.3729 z"
       id="path35" />
    <path
       style="fill:#6c7a89;fill-opacity:1"
       inkscape:connector-curvature="0"
       d="m 4.9961876,1042.9622 c 0.2687839,-0.012 0.6016938,-0.062 0.7831569,0.191 0.1555404,0.2675 0.1473539,0.6195 0.017737,0.8951 -0.1555393,0.2811 -0.5075513,0.2538 -0.779064,0.2865 -0.028652,-0.457 -0.025923,-0.9141 -0.021831,-1.3726 z"
       id="path37" />
  </g>
</svg>
