<?xml version="1.0" encoding="UTF-8" standalone="no"?>

<!-- Created with Inkscape (http://www.inkscape.org/) -->
<svg width="16" version="1.1" xmlns="http://www.w3.org/2000/svg" height="16" viewBox="0 0 16 16" xmlns:inkscape="http://www.inkscape.org/namespaces/inkscape">
 <defs id="defs4"/>
 <metadata id="metadata7"/>
 <path inkscape:label="Capa 1" inkscape:groupmode="layer" style="fill:#22a7f0" id="path4141" d="M 12.501953 2 L 11.753906 2.7441406 L 11.751953 2.7441406 L 6 8.4765625 L 6.0039062 8.4863281 L 6 8.4980469 L 6.0058594 8.5078125 L 6.0019531 9.2480469 L 6 9.2480469 L 6 9.9902344 L 6 10.001953 L 7.5 10.001953 L 7.5039062 9.9902344 L 7.5078125 9.9902344 L 7.515625 9.9902344 L 7.5097656 9.9804688 L 8.25 9.2421875 L 13.251953 4.2558594 L 14 3.5097656 L 12.501953 2.0175781 L 12.501953 2 z M 2 9 L 2 10 L 2 14 L 3 14 L 14 14 L 14 13 L 14 10 L 14 9 L 10 9 L 10 10 L 13 10 L 13 13 L 11.900391 13 L 11.900391 12 L 10.900391 12 L 10.900391 13 L 9.9003906 13 L 9.9003906 11 L 8.9003906 11 L 8.9003906 13 L 7 13 L 7 12 L 6 12 L 6 13 L 5 13 L 5 11 L 4 11 L 4 13 L 3 13 L 3 10 L 5 10 L 5 9 L 2 9 z "/>
</svg>
