<?xml version="1.0" encoding="UTF-8" standalone="no"?>
<!-- Created with Inkscape (http://www.inkscape.org/) -->

<svg
   xmlns:dc="http://purl.org/dc/elements/1.1/"
   xmlns:cc="http://creativecommons.org/ns#"
   xmlns:rdf="http://www.w3.org/1999/02/22-rdf-syntax-ns#"
   xmlns:svg="http://www.w3.org/2000/svg"
   xmlns="http://www.w3.org/2000/svg"
   xmlns:sodipodi="http://sodipodi.sourceforge.net/DTD/sodipodi-0.dtd"
   xmlns:inkscape="http://www.inkscape.org/namespaces/inkscape"
   width="16"
   version="1.1"
   height="16"
   viewBox="0 0 16 16"
   id="svg2"
   inkscape:version="0.91 r13725"
   sodipodi:docname="application-vnd.ms-excel.addin.macroenabled.12.svg">
  <sodipodi:namedview
     pagecolor="#ffffff"
     bordercolor="#666666"
     borderopacity="1"
     objecttolerance="10"
     gridtolerance="10"
     guidetolerance="10"
     inkscape:pageopacity="0"
     inkscape:pageshadow="2"
     inkscape:window-width="1920"
     inkscape:window-height="1025"
     id="namedview9"
     showgrid="false"
     inkscape:zoom="27.526809"
     inkscape:cx="0.96423282"
     inkscape:cy="9.634382"
     inkscape:window-x="0"
     inkscape:window-y="26"
     inkscape:window-maximized="1"
     inkscape:current-layer="layer1" />
  <defs
     id="defs4" />
  <metadata
     id="metadata7">
    <rdf:RDF>
      <cc:Work
         rdf:about="">
        <dc:format>image/svg+xml</dc:format>
        <dc:type
           rdf:resource="http://purl.org/dc/dcmitype/StillImage" />
      </cc:Work>
    </rdf:RDF>
  </metadata>
  <g
     inkscape:label="Capa 1"
     inkscape:groupmode="layer"
     id="layer1"
     transform="matrix(1 0 0 1 0 -1036.3622)">
    <rect
       width="0"
       x="3"
       y="3"
       height="10.999983"
       style="fill:#04896a"
       id="rect4035"
       transform="matrix(1 0 0 1 0 1036.3622)" />
    <rect
       width="0"
       x="-41.479027"
       y="1038.1659"
       height="10.999983"
       style="fill:#ffffff"
       id="rect4035-75" />
    <rect
       width="0"
       x="-41.799797"
       y="1037.1659"
       height="10.999983"
       style="fill:#ffffff"
       id="rect4035-4-3" />
    <rect
       width="0"
       x="-43.335655"
       y="1037.052"
       height="11.1139"
       style="fill:#fbd2bf"
       id="rect4035-3-56" />
    <rect
       width="0"
       x="-41.799797"
       y="1037.1659"
       height="10.999983"
       style="fill:#fbd2bf"
       id="rect4035-1-2" />
    <rect
       width="0"
       x="-41.799797"
       y="1037.1659"
       height="10.999983"
       style="fill:#fbfbfb"
       id="rect4035-5-9" />
    <rect
       width="0"
       x="-41.479027"
       y="1038.1659"
       height="10.999983"
       style="fill:#ffffff"
       id="rect4035-7-1" />
    <rect
       width="0"
       x="-41.799797"
       y="1037.1659"
       height="10.999983"
       style="fill:#ffffff"
       id="rect4035-4-53" />
    <rect
       width="0"
       x="-43.335655"
       y="1037.052"
       height="11.1139"
       style="fill:#fbd2bf"
       id="rect4035-3-5" />
    <rect
       width="0"
       x="-41.799797"
       y="1037.1659"
       height="10.999983"
       style="fill:#fbd2bf"
       id="rect4035-1-6" />
    <rect
       width="0"
       x="-41.799797"
       y="1037.1659"
       height="10.999983"
       style="fill:#fbfbfb"
       id="rect4035-5-2" />
    <rect
       width="0"
       x="-41.479027"
       y="1038.1659"
       height="10.999983"
       style="fill:#ffffff"
       id="rect4035-53" />
    <rect
       width="0"
       x="-41.799797"
       y="1037.1659"
       height="10.999983"
       style="fill:#ffffff"
       id="rect4035-4-5" />
    <rect
       width="0"
       x="-41.479027"
       y="1038.1659"
       height="10.999983"
       style="fill:#ffffff"
       id="rect4035-6-5" />
    <rect
       width="0"
       x="-41.799797"
       y="1037.1659"
       height="10.999983"
       style="fill:#ffffff"
       id="rect4035-4-2" />
    <rect
       width="0"
       x="-43.335655"
       y="1037.052"
       height="11.1139"
       style="fill:#fbd2bf"
       id="rect4035-3-9" />
    <rect
       width="0"
       x="-41.799797"
       y="1037.1659"
       height="10.999983"
       style="fill:#fbd2bf"
       id="rect4035-1-1" />
    <rect
       width="0"
       x="-41.799797"
       y="1037.1659"
       height="10.999983"
       style="fill:#fbfbfb"
       id="rect4035-5-27" />
    <rect
       width="0"
       x="-41.799797"
       y="1037.1659"
       height="10.999983"
       style="fill:#fffcf9"
       id="rect4035-8-0" />
    <rect
       width="0"
       x="-41.799797"
       y="1037.1659"
       height="10.999983"
       style="fill:#e8d9eb"
       id="rect4035-44" />
    <rect
       width="0"
       x="-41.799797"
       y="1037.1659"
       height="10.999983"
       style="fill:#e8d9eb"
       id="rect4035-7" />
    <rect
       width="0"
       x="-41.479027"
       y="1038.1659"
       height="10.999983"
       style="fill:#ffffff"
       id="rect4035-35" />
    <rect
       width="0"
       x="-41.799797"
       y="1037.1659"
       height="10.999983"
       style="fill:#ffffff"
       id="rect4035-4" />
    <rect
       width="0"
       x="-43.335655"
       y="1037.052"
       height="11.1139"
       style="fill:#fbd2bf"
       id="rect4035-3-6" />
    <rect
       width="0"
       x="-41.799797"
       y="1037.1659"
       height="10.999983"
       style="fill:#fbd2bf"
       id="rect4035-1" />
    <rect
       width="0"
       x="-41.799797"
       y="1037.1659"
       height="10.999983"
       style="fill:#fbfbfb"
       id="rect4035-5" />
    <rect
       width="0"
       x="-41.799797"
       y="1037.1659"
       height="10.999983"
       style="fill:#fffcf9"
       id="rect4035-8" />
    <rect
       width="0"
       x="-41.799797"
       y="1037.1659"
       height="10.999983"
       style="fill:#036b53"
       id="rect4035-7535" />
    <rect
       width="0"
       x="-41.799797"
       y="1037.1659"
       height="10.999983"
       style="fill:#036b53"
       id="rect4035-6" />
    <rect
       width="0"
       x="-41.799797"
       y="1037.1659"
       height="10.999983"
       style="fill:#036b53"
       id="rect4035-3" />
    <rect
       width="0"
       x="-21.799799"
       y="1037.1659"
       height="10.999983"
       style="fill:#036b53"
       id="rect4035-0" />
    <rect
       width="0"
       x="-1.4790281"
       y="1038.1659"
       height="10.999983"
       style="fill:#ffffff"
       id="rect4035-75-3" />
    <rect
       width="0"
       x="-1.7997984"
       y="1037.1659"
       height="10.999983"
       style="fill:#ffffff"
       id="rect4035-4-3-6" />
    <rect
       width="0"
       x="-3.3356564"
       y="1037.052"
       height="11.1139"
       style="fill:#fbd2bf"
       id="rect4035-3-56-75" />
    <rect
       width="0"
       x="-1.7997984"
       y="1037.1659"
       height="10.999983"
       style="fill:#fbd2bf"
       id="rect4035-1-2-35" />
    <rect
       width="0"
       x="-1.7997984"
       y="1037.1659"
       height="10.999983"
       style="fill:#fbfbfb"
       id="rect4035-5-9-6" />
    <rect
       width="0"
       x="-1.4790281"
       y="1038.1659"
       height="10.999983"
       style="fill:#ffffff"
       id="rect4035-7-1-2" />
    <rect
       width="0"
       x="-1.7997984"
       y="1037.1659"
       height="10.999983"
       style="fill:#ffffff"
       id="rect4035-4-53-9" />
    <rect
       width="0"
       x="-3.3356564"
       y="1037.052"
       height="11.1139"
       style="fill:#fbd2bf"
       id="rect4035-3-5-1" />
    <rect
       width="0"
       x="-1.7997984"
       y="1037.1659"
       height="10.999983"
       style="fill:#fbd2bf"
       id="rect4035-1-6-2" />
    <rect
       width="0"
       x="-1.7997984"
       y="1037.1659"
       height="10.999983"
       style="fill:#fbfbfb"
       id="rect4035-5-2-7" />
    <rect
       width="0"
       x="-1.4790281"
       y="1038.1659"
       height="10.999983"
       style="fill:#ffffff"
       id="rect4035-53-0" />
    <rect
       width="0"
       x="-1.7997984"
       y="1037.1659"
       height="10.999983"
       style="fill:#ffffff"
       id="rect4035-4-5-9" />
    <rect
       width="0"
       x="-1.4790281"
       y="1038.1659"
       height="10.999983"
       style="fill:#ffffff"
       id="rect4035-6-3" />
    <rect
       width="0"
       x="-1.7997984"
       y="1037.1659"
       height="10.999983"
       style="fill:#ffffff"
       id="rect4035-4-2-6" />
    <rect
       width="0"
       x="-3.3356564"
       y="1037.052"
       height="11.1139"
       style="fill:#fbd2bf"
       id="rect4035-3-9-0" />
    <rect
       width="0"
       x="-1.7997984"
       y="1037.1659"
       height="10.999983"
       style="fill:#fbd2bf"
       id="rect4035-1-1-6" />
    <rect
       width="0"
       x="-1.7997984"
       y="1037.1659"
       height="10.999983"
       style="fill:#fbfbfb"
       id="rect4035-5-27-26" />
    <rect
       width="0"
       x="-1.7997984"
       y="1037.1659"
       height="10.999983"
       style="fill:#fffcf9"
       id="rect4035-8-0-1" />
    <rect
       width="0"
       x="-1.7997984"
       y="1037.1659"
       height="10.999983"
       style="fill:#e8d9eb"
       id="rect4035-44-8" />
    <rect
       width="0"
       x="-1.7997984"
       y="1037.1659"
       height="10.999983"
       style="fill:#e8d9eb"
       id="rect4035-7-7" />
    <rect
       width="0"
       x="-1.4790281"
       y="1038.1659"
       height="10.999983"
       style="fill:#ffffff"
       id="rect4035-753" />
    <rect
       width="0"
       x="-1.7997984"
       y="1037.1659"
       height="10.999983"
       style="fill:#ffffff"
       id="rect4035-4-56" />
    <rect
       width="0"
       x="-3.3356564"
       y="1037.052"
       height="11.1139"
       style="fill:#fbd2bf"
       id="rect4035-3-2" />
    <rect
       width="0"
       x="-1.7997984"
       y="1037.1659"
       height="10.999983"
       style="fill:#fbd2bf"
       id="rect4035-1-9" />
    <rect
       width="0"
       x="-1.7997984"
       y="1037.1659"
       height="10.999983"
       style="fill:#fbfbfb"
       id="rect4035-5-92" />
    <rect
       width="0"
       x="-1.7997984"
       y="1037.1659"
       height="10.999983"
       style="fill:#fffcf9"
       id="rect4035-8-1" />
    <rect
       width="0"
       x="-1.4790281"
       y="1038.1659"
       height="10.999983"
       style="fill:#ffffff"
       id="rect4035-02" />
    <rect
       width="0"
       x="-1.7997984"
       y="1037.1659"
       height="10.999983"
       style="fill:#ffffff"
       id="rect4035-4-37" />
    <rect
       width="0"
       x="-3.3356564"
       y="1037.052"
       height="11.1139"
       style="fill:#fbd2bf"
       id="rect4035-3-59" />
    <rect
       width="0"
       x="-1.7997984"
       y="1037.1659"
       height="10.999983"
       style="fill:#fbd2bf"
       id="rect4035-1-22" />
    <rect
       width="0"
       x="18.200201"
       y="1037.1659"
       height="10.999983"
       style="fill:#fbfbfb"
       id="rect4035-2" />
    <rect
       width="0"
       x="-1.7997984"
       y="1037.1659"
       height="10.999983"
       style="fill:#fbfbfb"
       id="rect4035-8-89" />
    <rect
       width="0"
       x="-1.4810728"
       y="1038.1639"
       height="10.999983"
       style="fill:#ffffff"
       id="rect4035-75-1" />
    <rect
       width="0"
       x="-1.801843"
       y="1037.1639"
       height="10.999983"
       style="fill:#ffffff"
       id="rect4035-4-3-2" />
    <rect
       width="0"
       x="-3.3377011"
       y="1037.0502"
       height="11.1139"
       style="fill:#fbd2bf"
       id="rect4035-3-56-7" />
    <rect
       width="0"
       x="-1.801843"
       y="1037.1639"
       height="10.999983"
       style="fill:#fbd2bf"
       id="rect4035-1-2-0" />
    <rect
       width="0"
       x="-1.801843"
       y="1037.1639"
       height="10.999983"
       style="fill:#fbfbfb"
       id="rect4035-5-9-9" />
    <rect
       width="0"
       x="-1.4810728"
       y="1038.1639"
       height="10.999983"
       style="fill:#ffffff"
       id="rect4035-7-1-3" />
    <rect
       width="0"
       x="-1.801843"
       y="1037.1639"
       height="10.999983"
       style="fill:#ffffff"
       id="rect4035-4-53-6" />
    <rect
       width="0"
       x="-3.3377011"
       y="1037.0502"
       height="11.1139"
       style="fill:#fbd2bf"
       id="rect4035-3-5-0" />
    <rect
       width="0"
       x="-1.801843"
       y="1037.1639"
       height="10.999983"
       style="fill:#fbd2bf"
       id="rect4035-1-6-6" />
    <rect
       width="0"
       x="-1.801843"
       y="1037.1639"
       height="10.999983"
       style="fill:#fbfbfb"
       id="rect4035-5-2-2" />
    <rect
       width="0"
       x="-1.4810728"
       y="1038.1639"
       height="10.999983"
       style="fill:#ffffff"
       id="rect4035-53-6" />
    <rect
       width="0"
       x="-1.801843"
       y="1037.1639"
       height="10.999983"
       style="fill:#ffffff"
       id="rect4035-4-5-1" />
    <rect
       width="0"
       x="-1.4810728"
       y="1038.1639"
       height="10.999983"
       style="fill:#ffffff"
       id="rect4035-6-87" />
    <rect
       width="0"
       x="-1.801843"
       y="1037.1639"
       height="10.999983"
       style="fill:#ffffff"
       id="rect4035-4-2-9" />
    <rect
       width="0"
       x="-3.3377011"
       y="1037.0502"
       height="11.1139"
       style="fill:#fbd2bf"
       id="rect4035-3-9-2" />
    <rect
       width="0"
       x="-1.801843"
       y="1037.1639"
       height="10.999983"
       style="fill:#fbd2bf"
       id="rect4035-1-1-0" />
    <rect
       width="0"
       x="-1.801843"
       y="1037.1639"
       height="10.999983"
       style="fill:#fbfbfb"
       id="rect4035-5-27-2" />
    <rect
       width="0"
       x="-1.801843"
       y="1037.1639"
       height="10.999983"
       style="fill:#fffcf9"
       id="rect4035-8-0-3" />
    <rect
       width="0"
       x="-1.801843"
       y="1037.1639"
       height="10.999983"
       style="fill:#e8d9eb"
       id="rect4035-44-75" />
    <rect
       width="0"
       x="-1.801843"
       y="1037.1639"
       height="10.999983"
       style="fill:#e8d9eb"
       id="rect4035-7-92" />
    <rect
       width="0"
       x="-1.4810728"
       y="1038.1639"
       height="10.999983"
       style="fill:#ffffff"
       id="rect4035-753-2" />
    <rect
       width="0"
       x="-1.801843"
       y="1037.1639"
       height="10.999983"
       style="fill:#ffffff"
       id="rect4035-4-56-8" />
    <rect
       width="0"
       x="-3.3377011"
       y="1037.0502"
       height="11.1139"
       style="fill:#fbd2bf"
       id="rect4035-3-2-9" />
    <rect
       width="0"
       x="-1.801843"
       y="1037.1639"
       height="10.999983"
       style="fill:#fbd2bf"
       id="rect4035-1-9-7" />
    <rect
       width="0"
       x="-1.801843"
       y="1037.1639"
       height="10.999983"
       style="fill:#fbfbfb"
       id="rect4035-5-1" />
    <rect
       width="0"
       x="-1.801843"
       y="1037.1639"
       height="10.999983"
       style="fill:#fffcf9"
       id="rect4035-8-2" />
    <rect
       width="0"
       x="-1.4810728"
       y="1038.1639"
       height="10.999983"
       style="fill:#ffffff"
       id="rect4035-361" />
    <rect
       width="0"
       x="-1.801843"
       y="1037.1639"
       height="10.999983"
       style="fill:#ffffff"
       id="rect4035-4-29" />
    <rect
       width="0"
       x="-3.3377011"
       y="1037.0502"
       height="11.1139"
       style="fill:#fbd2bf"
       id="rect4035-3-3" />
    <rect
       width="0"
       x="-1.801843"
       y="1037.1639"
       height="10.999983"
       style="fill:#fbd2bf"
       id="rect4035-1-19" />
    <rect
       width="0"
       x="-1.801843"
       y="1037.1639"
       height="10.999983"
       style="fill:#fbfbfb"
       id="rect4035-5-4" />
    <rect
       width="0"
       x="-1.801843"
       y="1037.1639"
       height="10.999983"
       style="fill:#fffcf9"
       id="rect4035-8-78" />
    <rect
       width="0"
       x="-11.79989"
       y="1077.1659"
       height="10.999983"
       style="fill:#036b53"
       id="rect4035-70" />
    <rect
       width="0"
       x="-11.479119"
       y="1078.1659"
       height="10.999983"
       style="fill:#ffffff"
       id="rect4035-67" />
    <rect
       width="0"
       x="-11.79989"
       y="1077.1659"
       height="10.999983"
       style="fill:#ffffff"
       id="rect4035-4-93" />
    <rect
       width="0"
       x="-13.335748"
       y="1077.0521"
       height="11.1139"
       style="fill:#fbd2bf"
       id="rect4035-3-60" />
    <rect
       width="0"
       x="-11.79989"
       y="1077.1659"
       height="10.999983"
       style="fill:#fbd2bf"
       id="rect4035-1-62" />
    <rect
       width="0"
       x="-11.79989"
       y="1077.1659"
       height="10.999983"
       style="fill:#fbfbfb"
       id="rect4035-5-6" />
    <rect
       width="0"
       x="-11.79989"
       y="1077.1659"
       height="10.999983"
       style="fill:#fffcf9"
       id="rect4035-8-1-4" />
    <rect
       width="0"
       x="-11.479119"
       y="1038.1659"
       height="10.999983"
       style="fill:#ffffff"
       id="rect4035-6-8" />
    <rect
       width="0"
       x="-11.79989"
       y="1037.1659"
       height="10.999983"
       style="fill:#ffffff"
       id="rect4035-4-2-7" />
    <rect
       width="0"
       x="-13.335748"
       y="1037.0521"
       height="11.1139"
       style="fill:#fbd2bf"
       id="rect4035-3-9-9" />
    <rect
       width="0"
       x="-11.79989"
       y="1037.1659"
       height="10.999983"
       style="fill:#fbd2bf"
       id="rect4035-1-1-2" />
    <rect
       width="0"
       x="-11.79989"
       y="1037.1659"
       height="10.999983"
       style="fill:#fbfbfb"
       id="rect4035-5-2-0" />
    <rect
       width="0"
       x="-11.79989"
       y="1037.1659"
       height="10.999983"
       style="fill:#fffcf9"
       id="rect4035-8-7" />
    <rect
       width="0"
       x="-11.79989"
       y="1037.1659"
       height="10.999983"
       style="fill:#e8d9eb"
       id="rect4035-44-2" />
    <rect
       width="0"
       x="-51.479118"
       y="1038.1659"
       height="10.999983"
       style="fill:#ffffff"
       id="rect4035-62" />
    <rect
       width="0"
       x="-51.799889"
       y="1037.1659"
       height="10.999983"
       style="fill:#ffffff"
       id="rect4035-4-9" />
    <rect
       width="0"
       x="-53.335747"
       y="1037.0521"
       height="11.1139"
       style="fill:#fbd2bf"
       id="rect4035-3-1" />
    <rect
       width="0"
       x="-51.799889"
       y="1037.1659"
       height="10.999983"
       style="fill:#fbd2bf"
       id="rect4035-1-2-3" />
    <rect
       width="0"
       x="-51.799889"
       y="1037.1659"
       height="10.999983"
       style="fill:#fbfbfb"
       id="rect4035-5-7" />
    <rect
       width="0"
       x="-51.799889"
       y="1037.1659"
       height="10.999983"
       style="fill:#fffcf9"
       id="rect4035-8-0-7" />
    <rect
       width="0"
       x="-51.799889"
       y="1037.1659"
       height="10.999983"
       style="fill:#e8d9eb"
       id="rect4035-44-9" />
    <rect
       width="0"
       x="-51.799889"
       y="1037.1659"
       height="10.999983"
       style="fill:#e8d9eb"
       id="rect4035-7-5" />
    <rect
       width="0"
       x="-50.529961"
       y="1038.1659"
       height="10.999983"
       style="fill:#ffffff"
       id="rect4035-36" />
    <rect
       width="0"
       x="-50.850731"
       y="1037.1659"
       height="10.999983"
       style="fill:#ffffff"
       id="rect4035-4-0" />
    <rect
       width="0"
       x="-52.386589"
       y="1037.0521"
       height="11.1139"
       style="fill:#fbd2bf"
       id="rect4035-3-6-7" />
    <rect
       width="0"
       x="-50.850731"
       y="1037.1659"
       height="10.999983"
       style="fill:#fbd2bf"
       id="rect4035-1-26" />
    <rect
       width="0"
       x="-50.850731"
       y="1037.1659"
       height="10.999983"
       style="fill:#fbfbfb"
       id="rect4035-5-1-9" />
    <rect
       width="0"
       x="-50.850731"
       y="1037.1659"
       height="10.999983"
       style="fill:#fffcf9"
       id="rect4035-8-8" />
    <rect
       width="0"
       x="-50.850731"
       y="1037.1659"
       height="10.999983"
       style="fill:#e8d9eb"
       id="rect4035-44-7" />
    <rect
       width="0"
       x="-50.850731"
       y="1037.1659"
       height="10.999983"
       style="fill:#e8d9eb"
       id="rect4035-7-9" />
    <path
       inkscape:connector-curvature="0"
       style="color:#000000;clip-rule:nonzero;display:inline;overflow:visible;visibility:visible;opacity:1;isolation:auto;mix-blend-mode:normal;color-interpolation:sRGB;color-interpolation-filters:linearRGB;solid-color:#000000;solid-opacity:1;fill:#25bb70;fill-opacity:1;fill-rule:nonzero;stroke:none;stroke-width:1;stroke-linecap:butt;stroke-linejoin:miter;stroke-miterlimit:4;stroke-dasharray:none;stroke-dashoffset:0;stroke-opacity:1;color-rendering:auto;image-rendering:auto;shape-rendering:auto;text-rendering:auto;enable-background:accumulate"
       d="m 3,1038.3622 c -0.55401,0 -1,0.4459 -1,1 l 0,10 c 0,0.554 0.44599,1 1,1 l 10,0 c 0.55402,0 1,-0.446 1,-1 l 0,-10 c 0,-0.5541 -0.44598,-1 -1,-1 l -10,0 z m 0,1 10,0 0,10 -10,0 0,-10 z m 1,1 0,1 2,0 0,-1 -2,0 z m 3.00195,0 0,1 2,0 0,-1 -2,0 z m 3,0 0,1 2,0 0,-1 -2,0 z M 4,1042.3602 l 0,1 2,0 0,-1 -2,0 z m 3.00195,0 0,1 2,0 0,-1 -2,0 z m 3,0 0,1 2,0 0,-1 -2,0 z M 4,1044.3583 l 0,1 2,0 0,-1 -2,0 z m 3.00195,0 0,1 2,0 0,-1 -2,0 z m 3,0 0,1 2,0 0,-1 -2,0 z M 4,1046.3563 l 0,1 2,0 0,-1 -2,0 z m 3.00195,0 0,1 2,0 0,-1 -2,0 z m 3,0 0,1 2,0 0,-1 -2,0 z"
       id="rect4222" />
  </g>
</svg>
