<svg version="1.1" viewBox="0 0 16 16" xmlns="http://www.w3.org/2000/svg">
    <path d="m6.9788754 2.0014103s-0.035775 0.0543-0.05355 0.081637c-0.4274167 0.6560093-0.8232811 1.3785131-1.187503 2.1671968-0.4493768 0.9907109-0.7864412 2.0208493-1.0111333 3.0908125-0.2419721 1.0699558-0.3454195 2.0508862-0.310852 2.9425224 0.0519 0.871814 0.2158121 1.605102 0.4923592 2.199521 0.2765395 0.594419 0.6565264 1.020351 1.1404781 1.277938 0.4839517 0.25758 1.0546258 0.306787 1.7114222 0.148283 0.639494-0.15852 1.2881529-0.503677 1.9443794-1.039574 0.1202323-0.09818 0.800496-0.765096 1.26806-1.28132 0.346702-0.382784 0.522802-0.649911 0.618119-0.755668v-1.8113902c-0.05775 0.05153-0.195509 0.302167-0.532926 0.663861-0.416137 0.4460702-1.045873 1.0179442-1.1195909 1.0742912-0.5185192 0.376462-1.0202309 0.594276-1.5041826 0.653714-0.5012392 0.05948-0.924156-0.03982-1.2698304-0.29736-0.3456819-0.257586-0.613784-0.643986-0.8039012-1.1591522-0.1728447-0.515167-0.2593946-1.129064-0.2593946-1.8423724 0-0.7331164 0.1034474-1.5260901 0.310852-2.3780962 0.2074122-0.8519986 0.5015392-1.6643373 0.8817886-2.437091 0.2175821-0.4535093 0.4463693-0.8746786 0.6864964-1.263388 0.0075-0.011925 0.022125-0.035775 0.022125-0.035775z" fill="#da2c2c"/>
</svg>
