<?xml version="1.0" encoding="UTF-8" standalone="no"?>
<!-- Created with Inkscape (http://www.inkscape.org/) -->

<svg
   xmlns:dc="http://purl.org/dc/elements/1.1/"
   xmlns:cc="http://creativecommons.org/ns#"
   xmlns:rdf="http://www.w3.org/1999/02/22-rdf-syntax-ns#"
   xmlns:svg="http://www.w3.org/2000/svg"
   xmlns="http://www.w3.org/2000/svg"
   xmlns:sodipodi="http://sodipodi.sourceforge.net/DTD/sodipodi-0.dtd"
   xmlns:inkscape="http://www.inkscape.org/namespaces/inkscape"
   width="16"
   version="1.1"
   height="16"
   viewBox="0 0 16 16"
   id="svg2"
   inkscape:version="0.91 r13725"
   sodipodi:docname="application-epub+zip.svg">
  <sodipodi:namedview
     pagecolor="#ffffff"
     bordercolor="#666666"
     borderopacity="1"
     objecttolerance="10"
     gridtolerance="10"
     guidetolerance="10"
     inkscape:pageopacity="0"
     inkscape:pageshadow="2"
     inkscape:window-width="1920"
     inkscape:window-height="1025"
     id="namedview9"
     showgrid="false"
     inkscape:zoom="14.75"
     inkscape:cx="-3.9322034"
     inkscape:cy="7.4576271"
     inkscape:window-x="0"
     inkscape:window-y="26"
     inkscape:window-maximized="1"
     inkscape:current-layer="layer1" />
  <defs
     id="defs4" />
  <metadata
     id="metadata7">
    <rdf:RDF>
      <cc:Work
         rdf:about="">
        <dc:format>image/svg+xml</dc:format>
        <dc:type
           rdf:resource="http://purl.org/dc/dcmitype/StillImage" />
        <dc:title />
      </cc:Work>
    </rdf:RDF>
  </metadata>
  <g
     inkscape:label="Capa 1"
     inkscape:groupmode="layer"
     id="layer1"
     transform="matrix(1 0 0 1 0 -1036.3622)">
    <rect
       width="0"
       x="3"
       y="3"
       height="10.999983"
       style="fill:#04896a"
       id="rect4035"
       transform="matrix(1 0 0 1 0 1036.3622)" />
    <path
       inkscape:connector-curvature="0"
       style="fill:#f9d24c;fill-opacity:1;fill-rule:nonzero;stroke:none"
       d="m 7.9661092,1048.0836 -3.7571202,-3.7571 3.7571202,-3.7539 1.2534401,1.2502 -2.5068949,2.5037 1.2534548,1.2534 3.7571058,-3.7571 -3.2737805,-3.2706 c -0.2658333,-0.2658 -0.7008395,-0.2658 -0.9666578,0 l -5.2908987,5.2909 c -0.2690551,0.2659 -0.2690551,0.7009 0,0.9699 l 5.2908987,5.2909 c 0.2658183,0.2659 0.7008245,0.2659 0.9666578,0 l 5.2908915,-5.2909 c 0.269055,-0.269 0.269055,-0.704 0,-0.9699 l -0.766886,-0.7668 z m 0,0"
       id="path11" />
  </g>
</svg>
