<?xml version="1.0" encoding="UTF-8" standalone="no"?>

<!-- Created with Inkscape (http://www.inkscape.org/) -->
<svg width="16" version="1.1" xmlns="http://www.w3.org/2000/svg" height="16" viewBox="0 0 16 16" xmlns:inkscape="http://www.inkscape.org/namespaces/inkscape">
 <defs id="defs4"/>
 <metadata id="metadata7"/>
 <g inkscape:label="Capa 1" inkscape:groupmode="layer" id="layer1" transform="matrix(1 0 0 1 0 -1036.3622)">
  <rect width="0" x="-17" y="1039.3622" height="10.999983" style="fill:#04896a" id="rect4035"/>
  <path inkscape:connector-curvature="0" style="fill:#04896a" id="rect4099" d="m 6,1038.3622 0,1 0,3 1,0 0,-3 2,0 0,3 1,0 0,-3 0,-1 -4,0 z m -2.2929688,4 L 3,1043.0692 6.2929688,1046.3622 8,1048.0692 9.7070312,1046.3622 13,1043.0692 12.292969,1042.3622 9,1045.6552 l -1,1 -1,-1 -3.2929688,-3.293 z m -1.7070312,6 0,2 1,0 11,0 0,-1 0,-1 -1,0 0,1 -10,0 0,-1 -1,0 z"/>
 </g>
</svg>
