<?xml version="1.0" encoding="UTF-8" standalone="no"?>
<!-- Created with Inkscape (http://www.inkscape.org/) -->

<svg
   xmlns:dc="http://purl.org/dc/elements/1.1/"
   xmlns:cc="http://creativecommons.org/ns#"
   xmlns:rdf="http://www.w3.org/1999/02/22-rdf-syntax-ns#"
   xmlns:svg="http://www.w3.org/2000/svg"
   xmlns="http://www.w3.org/2000/svg"
   xmlns:sodipodi="http://sodipodi.sourceforge.net/DTD/sodipodi-0.dtd"
   xmlns:inkscape="http://www.inkscape.org/namespaces/inkscape"
   width="16"
   version="1.1"
   height="16"
   viewBox="0 0 16 16"
   id="svg2"
   inkscape:version="0.91 r13725"
   sodipodi:docname="application-dicom-16.svg">
  <sodipodi:namedview
     pagecolor="#ffffff"
     bordercolor="#666666"
     borderopacity="1"
     objecttolerance="10"
     gridtolerance="10"
     guidetolerance="10"
     inkscape:pageopacity="0"
     inkscape:pageshadow="2"
     inkscape:window-width="1366"
     inkscape:window-height="699"
     id="namedview9"
     showgrid="false"
     inkscape:zoom="14.75"
     inkscape:cx="8.4745763"
     inkscape:cy="8"
     inkscape:window-x="0"
     inkscape:window-y="0"
     inkscape:window-maximized="1"
     inkscape:current-layer="layer1" />
  <defs
     id="defs4" />
  <metadata
     id="metadata7">
    <rdf:RDF>
      <cc:Work
         rdf:about="">
        <dc:format>image/svg+xml</dc:format>
        <dc:type
           rdf:resource="http://purl.org/dc/dcmitype/StillImage" />
        <dc:title></dc:title>
      </cc:Work>
    </rdf:RDF>
  </metadata>
  <g
     inkscape:label="Capa 1"
     inkscape:groupmode="layer"
     id="layer1"
     transform="matrix(1 0 0 1 0 -1036.3622)">
    <path
       inkscape:connector-curvature="0"
       d="m 5.6554386,1043.4176 c -0.091911,0.4201 -0.466678,0.7357 -0.9139744,0.7357 -0.1192561,0 -0.2159316,0.097 -0.2159316,0.2159 0,0.1193 0.096705,0.216 0.2159316,0.216 0.6844825,0 1.2530503,-0.5056 1.3522131,-1.1628 0.4190819,-0.045 0.8059415,-0.232 1.1054377,-0.5377 0.083407,-0.085 0.082006,-0.222 -0.003,-0.3054 -0.085213,-0.083 -0.2218951,-0.082 -0.3053549,0 -0.2648539,0.2704 -0.6191009,0.4193 -0.9975093,0.4193 -0.7699651,0 -1.3963704,-0.6265 -1.3963704,-1.3964 0,-0.1193 -0.096713,-0.216 -0.2159466,-0.216 -0.1192485,0 -0.215924,0.097 -0.215924,0.216 0,0.9274 0.6944167,1.6953 1.5905754,1.8122 z"
       id="path5"
       style="fill:#d5dadc;fill-opacity:1" />
    <path
       inkscape:connector-curvature="0"
       d="m 6.5696977,1045.2906 c 0,-0.1193 -0.096698,-0.216 -0.2159316,-0.216 -1.0080951,0 -1.8282335,0.8202 -1.8282335,1.8282 0,0.01 4.196e-4,0.021 5.394e-4,0.031 -0.080306,-0.01 -0.1620648,-0.017 -0.2452698,-0.017 -0.1192636,0 -0.2159391,0.097 -0.2159391,0.2159 0,0.1193 0.096705,0.216 0.2159391,0.216 0.7699651,0 1.3963779,0.6264 1.3963779,1.3964 0,0.1192 0.096705,0.2159 0.215924,0.2159 0.1192486,0 0.2159316,-0.097 0.2159316,-0.2159 0,-0.7662 -0.4739451,-1.4234 -1.1439008,-1.6949 -0.00524,-0.049 -0.00794,-0.099 -0.00794,-0.1478 0,-0.77 0.6264128,-1.3964 1.3963779,-1.3964 0.1192486,0 0.2159391,-0.097 0.2159391,-0.2159 z"
       id="path7"
       style="fill:#d5dadc;fill-opacity:1" />
    <path
       inkscape:connector-curvature="0"
       d="m 13.940267,1043.4479 c 0,-0.4916 -0.196355,-0.9574 -0.543432,-1.3001 0.05499,-0.1758 0.0828,-0.3578 0.0828,-0.5425 0,-0.8889 -0.637778,-1.6313 -1.479688,-1.7945 0.06428,-0.1604 0.09771,-0.3324 0.09771,-0.5088 0,-0.5631 -0.342141,-1.0477 -0.829369,-1.2571 -0.811777,-0.6465 -1.6996048,-1.0318 -2.3808658,-1.0318 -0.3786781,0 -0.7145101,0.1862 -0.9213164,0.4717 -0.2068139,-0.2855 -0.5426309,-0.4717 -0.9213165,-0.4717 -0.6812613,0 -1.5691039,0.3853 -2.3808813,1.0318 -0.4872282,0.2094 -0.8293609,0.694 -0.8293609,1.2571 0,0.1764 0.033264,0.3484 0.097709,0.5088 -0.8419098,0.1632 -1.4796878,0.9056 -1.4796878,1.7945 0,0.1847 0.027795,0.3667 0.0828,0.5425 -0.3470773,0.3427 -0.5434325,0.8085 -0.5434325,1.3001 0,0.3843 0.1194584,0.7411 0.3228335,1.0358 -0.211354,0.3055 -0.3228335,0.6619 -0.3228335,1.0372 0,0.6647 0.3623982,1.2737 0.9361804,1.5949 -0.00996,0.082 -0.014909,0.165 -0.014909,0.2477 0,0.8967 0.5849002,1.6895 1.4335152,1.9597 0.3691409,0.6317 1.041524,1.0202 1.7767117,1.0202 0.8060164,0 1.5048984,-0.4658 1.8426407,-1.1422 0.3377423,0.6764 1.0366242,1.1422 1.8426329,1.1422 0.7351873,0 1.4075783,-0.3885 1.7767113,-1.0202 0.848623,-0.2703 1.433523,-1.063 1.433523,-1.9597 0,-0.083 -0.0052,-0.1656 -0.01491,-0.2477 0.573782,-0.3212 0.936181,-0.9302 0.936181,-1.5949 0,-0.3753 -0.11148,-0.7317 -0.322834,-1.0372 0.20336,-0.2947 0.322826,-0.6515 0.322826,-1.0358 z m -7.8168244,6.4637 c -0.6054579,0 -1.1571465,-0.3339 -1.4398159,-0.8712 -0.02802,-0.053 -0.076912,-0.092 -0.1349891,-0.1079 -0.7086364,-0.1908 -1.2035513,-0.8359 -1.2035513,-1.569 0,-0.1097 0.011088,-0.2195 0.032814,-0.3266 0.020153,-0.099 -0.031316,-0.1992 -0.1238636,-0.2404 -0.5043847,-0.2242 -0.8303048,-0.725 -0.8303048,-1.2756 0,-0.2505 0.06503,-0.4899 0.1888933,-0.702 0.3223465,0.2843 0.7449796,0.4573 1.2074845,0.4573 0.1192486,0 0.2159241,-0.097 0.2159241,-0.216 0,-0.1193 -0.096705,-0.2159 -0.2159241,-0.2159 -0.7699725,0 -1.3963778,-0.6264 -1.3963778,-1.3964 0,-0.4145 0.1828773,-0.8051 0.50177,-1.0716 0.071997,-0.06 0.096908,-0.16 0.061583,-0.2469 -0.068251,-0.168 -0.1027289,-0.3444 -0.1027289,-0.5241 0,-0.77 0.6264128,-1.3964 1.3963779,-1.3964 0.7699725,0 1.3963778,0.6264 1.3963778,1.3964 0,0.1193 0.096705,0.2159 0.2159241,0.2159 0.1192636,0 0.2159465,-0.097 0.2159465,-0.2159 0,-0.9686 -0.7572738,-1.7633 -1.7108054,-1.8241 -0.086412,-0.1445 -0.1318425,-0.3088 -0.1318425,-0.4792 0,-0.3849 0.2336799,-0.7162 0.56656,-0.8597 0.012811,-0.01 0.025473,-0.01 0.037684,-0.015 0.1031335,-0.039 0.2148227,-0.061 0.3315091,-0.061 0.3615291,0 0.6842802,0.2022 0.8423069,0.5276 0.052144,0.1073 0.1813414,0.1521 0.2885805,0.1 0.1072765,-0.052 0.1520256,-0.1813 0.099905,-0.2885 -0.180405,-0.3715 -0.5218334,-0.6385 -0.9150458,-0.7331 0.5511267,-0.3363 1.0937051,-0.5272 1.5268946,-0.5272 0.3889345,0 0.7053774,0.3164 0.7053774,0.7054 l 0,2.7942 c -0.1940177,-0.1539 -0.4390628,-0.2462 -0.7053774,-0.2462 -0.1192561,0 -0.2159465,0.097 -0.2159465,0.216 0,0.1193 0.096713,0.2159 0.2159465,0.2159 0.3889345,0 0.7053774,0.3164 0.7053774,0.7054 l 0,5.1904 c -0.2684723,-0.3464 -0.6469706,-0.6078 -1.092192,-0.7274 -0.115143,-0.031 -0.2336125,0.037 -0.264569,0.1525 -0.031016,0.1152 0.037385,0.2337 0.1525051,0.2645 0.7090563,0.1906 1.2042559,0.8358 1.2042559,1.5692 0,0.897 -0.7297411,1.6267 -1.6266942,1.6267 z m 6.5546494,-3.1151 c -0.09261,0.041 -0.14407,0.1412 -0.123864,0.2404 0.0218,0.1071 0.03274,0.217 0.03274,0.3267 0,0.733 -0.494923,1.3782 -1.203559,1.5689 -0.05806,0.016 -0.106985,0.055 -0.134974,0.108 -0.28267,0.5372 -0.834373,0.8711 -1.4398237,0.8711 -0.8969678,0 -1.6267014,-0.7298 -1.6267014,-1.6267 0,-0.061 -0.003,-0.121 -0.00794,-0.1806 0.00524,-0.019 0.00794,-0.037 0.00794,-0.058 l 0,-7.1321 c 0,-0.3889 0.3164429,-0.7054 0.7053849,-0.7054 0.1192486,0 0.2159391,-0.097 0.2159391,-0.2159 0,-0.1193 -0.096713,-0.2159 -0.2159391,-0.2159 -0.2663221,0 -0.5113672,0.092 -0.7053849,0.2462 l 0,-1.8729 c 0,-0.389 0.3164429,-0.7054 0.7053849,-0.7054 0.4331967,0 0.9757601,0.1909 1.5268872,0.5272 -0.393198,0.094 -0.7346412,0.3616 -0.9150462,0.7331 -0.052144,0.1073 -0.00674,0.2364 0.099912,0.2885 0.1072616,0.052 0.2364519,0.01 0.288573,-0.1 0.1580272,-0.3255 0.4807782,-0.5276 0.8423142,-0.5276 0.116687,0 0.228398,0.022 0.331502,0.061 0.01214,0.01 0.0248,0.011 0.03761,0.015 0.33294,0.1436 0.566635,0.4748 0.566635,0.8597 0,0.1706 -0.0454,0.3349 -0.131835,0.4793 -0.953539,0.061 -1.7108053,0.8555 -1.7108053,1.824 0,0.1193 0.096713,0.216 0.2159313,0.216 0.119264,0 0.215939,-0.097 0.215939,-0.216 0,-0.7699 0.626413,-1.3963 1.396378,-1.3963 0.769965,0 1.396378,0.6264 1.396378,1.3963 0,0.1799 -0.03446,0.3562 -0.102706,0.5242 -0.03529,0.087 -0.01041,0.1867 0.06158,0.2468 0.318863,0.2666 0.501748,0.6572 0.501748,1.0717 0,0.77 -0.626413,1.3964 -1.396378,1.3964 -0.119256,0 -0.215924,0.097 -0.215924,0.2159 0,0.1193 0.0967,0.2159 0.215924,0.2159 0.462505,0 0.885138,-0.173 1.207469,-0.4571 0.123984,0.2121 0.188909,0.4514 0.188909,0.7019 0,0.5506 -0.325921,1.0514 -0.830305,1.2756 z"
       id="path9"
       style="fill:#d5dadc;fill-opacity:1" />
    <path
       inkscape:connector-curvature="0"
       d="m 11.651364,1043.923 c -0.447304,0 -0.822109,-0.3156 -0.913974,-0.7358 0.896158,-0.1169 1.590575,-0.8848 1.590575,-1.8123 0,-0.1193 -0.09671,-0.2159 -0.215946,-0.2159 -0.119249,0 -0.215932,0.097 -0.215932,0.2159 0,0.77 -0.626413,1.3964 -1.39637,1.3964 -0.378409,0 -0.7326483,-0.1488 -0.997502,-0.4192 -0.083407,-0.085 -0.220172,-0.087 -0.3053549,0 -0.085213,0.083 -0.086614,0.2202 -0.003,0.3054 0.2994812,0.3056 0.6863629,0.4924 1.1054446,0.5377 0.09921,0.6573 0.667731,1.1628 1.352206,1.1628 0.119248,0 0.215939,-0.097 0.215939,-0.216 0,-0.1193 -0.09671,-0.2159 -0.215939,-0.2159 z"
       id="path11"
       style="fill:#d5dadc;fill-opacity:1" />
    <path
       inkscape:connector-curvature="0"
       d="m 10.960379,1046.4566 c -0.0832,0 -0.164987,0.01 -0.245285,0.017 1.8e-4,-0.011 5.54e-4,-0.021 5.54e-4,-0.031 0,-1.0081 -0.8201457,-1.8283 -1.8282483,-1.8283 -0.1192636,0 -0.2159316,0.097 -0.2159316,0.2159 0,0.1193 0.096698,0.216 0.2159316,0.216 0.7699651,0 1.3963783,0.6264 1.3963783,1.3964 0,0.049 -0.003,0.099 -0.0079,0.1477 -0.6699406,0.2716 -1.1439082,0.9287 -1.1439082,1.6949 0,0.1193 0.096713,0.2159 0.2159391,0.2159 0.119256,0 0.215939,-0.097 0.215939,-0.2159 0,-0.7699 0.6264051,-1.3963 1.3963701,-1.3963 0.119249,0 0.215939,-0.097 0.215939,-0.216 0,-0.1193 -0.09671,-0.2159 -0.215939,-0.2159 z"
       id="path13"
       style="fill:#d5dadc;fill-opacity:1" />
  </g>
</svg>
