<?xml version="1.0" encoding="UTF-8" standalone="no"?>

<!-- Created with Inkscape (http://www.inkscape.org/) -->
<svg width="16" version="1.1" xmlns="http://www.w3.org/2000/svg" height="16" viewBox="0 0 16 16" xmlns:inkscape="http://www.inkscape.org/namespaces/inkscape">
 <defs id="defs4"/>
 <metadata id="metadata7"/>
 <path inkscape:label="Capa 1" inkscape:groupmode="layer" inkscape:connector-curvature="0" style="fill:#f27935;stroke-linecap:square;stroke-width:2" id="path4177" d="m 7.380859,1038.3136 a 0.5,0.5 0 0 0 -0.345703,0.1464 0.5,0.5 0 0 0 0,0.7071 l 3.205078,3.2051 A 4,4 0 0 0 10,1042.3622 l -7.5,0 a 0.5,0.5 0 0 0 -0.5,0.5 0.5,0.5 0 0 0 0.5,0.5 l 4.792969,0 -5.146485,5.1465 a 0.50001151,0.5 0 0 0 0,0.7071 0.50001151,0.5 0 0 0 0.707032,0 l 3.164062,-3.1641 A 4,4 0 0 0 6,1046.3622 a 4,4 0 0 0 4,4 4,4 0 0 0 4,-4 4,4 0 0 0 -0.960938,-2.5957 l 0.0059,-0.01 -0.134766,-0.1347 a 4,4 0 0 0 -0.203165,-0.2031 l -4.964843,-4.9649 a 0.5,0.5 0 0 0 -0.361329,-0.1464 z M 10,1043.3643 a 3,3 0 0 1 1.996094,0.7637 l 0.226562,0.2266 A 3,3 0 0 1 13,1046.3643 a 3,3 0 0 1 -3,3 3,3 0 0 1 -3,-3 3,3 0 0 1 3,-3 z m 0,2 a 1,1 0 0 0 -1,1 1,1 0 0 0 1,1 1,1 0 0 0 1,-1 1,1 0 0 0 -1,-1 z" transform="matrix(1 0 0 1 0 -1036.3622)"/>
</svg>
