<?xml version="1.0" encoding="UTF-8" standalone="no"?>

<!-- Created with Inkscape (http://www.inkscape.org/) -->
<svg width="16" version="1.1" xmlns="http://www.w3.org/2000/svg" height="16" viewBox="0 0 16 16" xmlns:inkscape="http://www.inkscape.org/namespaces/inkscape">
 <defs id="defs4"/>
 <metadata id="metadata7"/>
 <path inkscape:label="Capa 1" inkscape:groupmode="layer" style="fill:#22a7f0" id="rect4160" d="M 2 2 L 2 3 L 2 11 L 2 14 L 14 14 L 14 11 L 14 3 L 14 2 L 2 2 z M 3 3 L 13 3 L 13 11 L 3 11 L 3 3 z M 5 4 L 5 6 L 7 6 L 7 4 L 5 4 z M 9 4 L 9 6 L 11 6 L 11 4 L 9 4 z M 5 8 L 5 10 L 7 10 L 7 8 L 5 8 z M 9 8 L 9 10 L 11 10 L 11 8 L 9 8 z M 3 12 L 13 12 L 13 13 L 3 13 L 3 12 z "/>
</svg>
