<?xml version="1.0" encoding="UTF-8" standalone="no"?>

<!-- Created with Inkscape (http://www.inkscape.org/) -->
<svg width="16" version="1.1" xmlns="http://www.w3.org/2000/svg" height="16" viewBox="0 0 16 16" xmlns:inkscape="http://www.inkscape.org/namespaces/inkscape">
 <defs id="defs4"/>
 <metadata id="metadata7"/>
 <path inkscape:label="Capa 1" inkscape:groupmode="layer" inkscape:connector-curvature="0" style="fill:#22a7f0;color:#000000" id="path2988" d="m 2,1039.3622 0,0.6875 0,7.8125 0,1.2813 0,0.2187 12,0 0,-0.2187 0,-1.2813 0,-7.8125 0,-0.6875 -0.6875,0 -10.625,0 -0.6875,0 z m 1.6875,1 8.625,0 -3.25,3.25 -0.71875,0.7188 -0.34375,0.3437 -0.34375,-0.3437 -0.71875,-0.7188 -3.25,-3.25 z M 3,1041.0497 l 3.21875,3.2188 -3.21875,2.75 0,-5.9688 z m 10,0 0,5.9688 -3.21875,-2.75 L 13,1041.0497 z m -6.09375,3.9063 0.75,0.75 0.34375,0.375 0.34375,-0.375 0.75,-0.75 3.90625,3.3437 0,0.062 -10,0 0,-0.062 3.90625,-3.3437 z" transform="matrix(1 0 0 1 0 -1036.3622)"/>
</svg>
