<?xml version="1.0" encoding="UTF-8" standalone="no"?>

<!-- Created with Inkscape (http://www.inkscape.org/) -->
<svg width="16" version="1.1" xmlns="http://www.w3.org/2000/svg" height="16" viewBox="0 0 16 16" xmlns:inkscape="http://www.inkscape.org/namespaces/inkscape">
 <defs id="defs4"/>
 <metadata id="metadata7"/>
 <path inkscape:label="Capa 1" inkscape:groupmode="layer" style="fill:#22a7f0;color:#000000;stroke-width:1.4" id="rect4020" d="M 3.7402344 2 L 3.40625 2.9433594 L 10.259766 5 L 1 5 L 1 14 L 15 14 L 15 5 L 14.009766 5 L 12.144531 4.5214844 L 3.7402344 2 z M 2 6 L 14 6 L 14 13 L 2 13 L 2 6 z M 3 7 L 3 8 L 7 8 L 7 7 L 3 7 z M 10.5 7 A 2.4998046 2.4998046 0 0 0 8 9.5 A 2.4998046 2.4998046 0 0 0 10.5 12 A 2.4998046 2.4998046 0 0 0 13 9.5 A 2.4998046 2.4998046 0 0 0 10.5 7 z M 10.548828 8.0195312 A 1.4805294 1.4805294 0 0 1 12.029297 9.5 A 1.4805294 1.4805294 0 0 1 10.548828 10.980469 A 1.4805294 1.4805294 0 0 1 9.0703125 9.5 A 1.4805294 1.4805294 0 0 1 10.548828 8.0195312 z M 3 9 L 3 10 L 7 10 L 7 9 L 3 9 z M 3 11 L 3 12 L 7 12 L 7 11 L 3 11 z "/>
</svg>
