<svg xmlns="http://www.w3.org/2000/svg" viewBox="0 0 16 16">
 <path style="fill:#8e44ad" d="m2 3.501v1.999c.53.001 1.469 0 2 0v5h-2v1.99c2.112.008 3.879.01 6 .01v-2h-2v-1.532l2.488.017c.164.001.874.048 1.102.983.071.287.228 1.222.334 1.522.107.336.54 1.01 1 1.01.992-.007 2.151.004 3.073.004v-2.387c-.137.088-.295.126-.445.143-.362.042-.763-.156-.812-.383-.213-1.234-.569-1.498-1.13-1.953.697-.455 1.422-1.126 1.422-2.025 0-.97-.647-1.582-1.088-1.881-.619-.419-1.303-.513-1.488-.513-2.828.014-5.662 0-8.458 0zm4 1.999h3c.121 0 1 .273 1 .836 0 .468-.672.721-1.134.721l-2.866-.017z"/>
</svg>
