<?xml version="1.0" encoding="UTF-8" standalone="no"?>

<!-- Created with Inkscape (http://www.inkscape.org/) -->
<svg width="16" version="1.1" xmlns="http://www.w3.org/2000/svg" height="16" viewBox="0 0 16 16" xmlns:inkscape="http://www.inkscape.org/namespaces/inkscape">
 <defs id="defs4"/>
 <metadata id="metadata7"/>
 <path inkscape:label="Capa 1" inkscape:groupmode="layer" inkscape:connector-curvature="0" style="fill:#04896a" id="rect4031" d="m 2,2 0,1 0,10 0,1 1,0 6,0 0,-1 -3,0 0,-3 3,0 0,-1 -3,0 0,-3 4,0 0,2 1,0 0,-2 2,0 0,2 1,0 L 14,2 3,2 Z M 3,3 13,3 13,5 3,5 Z M 3,6 5,6 5,9 3,9 Z m 8.5,3 C 10.668995,9 10,9.6379875 10,10.429688 c 0,0.7634 0.62316,1.376321 1.412109,1.419921 0.05749,0.2617 0.08693,0.528122 0.08789,0.794922 C 11.4978,13.107631 11.411159,13.5666 11.242188,14 12.342191,13.2657 12.998014,12.067109 13,10.787109 l 0,-0.357421 C 13,9.6378875 12.330999,9 11.5,9 Z m -8.5,1 2,0 0,3 -2,0 z"/>
</svg>
