<svg version="1.1" viewBox="0 0 16 16" xmlns="http://www.w3.org/2000/svg">
    <g transform="matrix(.048205 0 0 .048205 -6.4618 -10.802)" fill="#be1756">
        <path d="m299.85 271.79c-34.635-1.7579-72.549 13.989-89.157 45.745-18.726 35.568 9.3818 85.147 49.614 87.084 16.946 1.5225 33.051-5.019 47.435-13.335 16.145-8.9916 35.749-18.95 54.27-10.826 19.69 8.1679 25.108 33.505 17.822 51.949-4.9018 15.08-18.482 24.499-30.904 33.088-35.125 21.568-81.796 14.082-113.99-9.4783-18.742-13.271-32.825-32.81-40.055-54.488-4.013-15.482-1.8647-31.58-2.6458-47.295-17.955 33.951-9.7974 76.616 12.71 106.39 17.533 24.31 44.588 41.281 74.172 46.244 61.587 12.065 128.34-33.86 137.62-96.237 11.308-58.582-29.421-121.43-87.29-135.49-9.669-2.3243-19.663-3.3767-29.6-3.3504z" fill="#be1756" stroke-width="3.9233"/>
    </g>
</svg>
