<?xml version="1.0" encoding="UTF-8" standalone="no"?>

<!-- Created with Inkscape (http://www.inkscape.org/) -->
<svg width="16" version="1.1" xmlns="http://www.w3.org/2000/svg" height="16" viewBox="0 0 16 16" xmlns:inkscape="http://www.inkscape.org/namespaces/inkscape">
 <defs id="defs4"/>
 <metadata id="metadata7"/>
 <path inkscape:label="Capa 1" inkscape:groupmode="layer" style="fill:#6c7a89" id="rect4143" d="M 5.5 2 A 1.5 1.5 0 0 0 4 3.5 A 1.5 1.5 0 0 0 5 4.9121094 L 5 11.087891 A 1.4999913 1.4999913 0 0 0 4 12.5 A 1.4999913 1.4999913 0 0 0 5.5 14 A 1.4999913 1.4999913 0 0 0 7 12.5 A 1.4999913 1.4999913 0 0 0 6 11.087891 L 6 4.9121094 A 1.5 1.5 0 0 0 7 3.5 A 1.5 1.5 0 0 0 5.5 2 z M 9 2 L 7 3.4003906 L 9 5 L 9 4 L 10 4 C 10.554 4 11 4.446 11 5 L 11 11.087891 A 1.4999913 1.4999913 0 0 0 10 12.5 A 1.4999913 1.4999913 0 0 0 11.5 14 A 1.4999913 1.4999913 0 0 0 13 12.5 A 1.4999913 1.4999913 0 0 0 12 11.087891 L 12 5 C 12 3.892 11.106618 3.0553 10 3 L 9 3 L 9 2 z M 5.5 3 A 0.5 0.5 0 0 1 6 3.5 A 0.5 0.5 0 0 1 5.5 4 A 0.5 0.5 0 0 1 5 3.5 A 0.5 0.5 0 0 1 5.5 3 z M 5.5 12 A 0.4999913 0.4999913 0 0 1 6 12.5 A 0.4999913 0.4999913 0 0 1 5.5 13 A 0.4999913 0.4999913 0 0 1 5 12.5 A 0.4999913 0.4999913 0 0 1 5.5 12 z M 11.5 12 A 0.4999913 0.4999913 0 0 1 12 12.5 A 0.4999913 0.4999913 0 0 1 11.5 13 A 0.4999913 0.4999913 0 0 1 11 12.5 A 0.4999913 0.4999913 0 0 1 11.5 12 z "/>
</svg>
