<svg width="16" height="16" version="1.1" viewBox="0 0 16 16" xmlns="http://www.w3.org/2000/svg">
 <g transform="matrix(.5 0 0 .48828 -1.2857e-7 .50237)" fill="#f5d916">
  <path d="m16.111 6.405s-1.073 0.847-2.167 1.69a15.361 15.361 0 0 0-4.527 0.651c-1.1-0.7-2.07-1.469-2.07-1.469s-0.827 1.423-1.347 2.258a11.382 11.382 0 0 0-2.236 1.482c-0.803-0.317-1.734-0.707-1.764-0.717 1.063 2.145 1.778 4.292 3.722 5.583 3.1-4.889 17.48-4.439 20.639-0.028 2.039-1.068 2.839-3.355 3.639-5.475-0.088 0.029-1.181 0.395-1.889 0.665a11.489 11.489 0 0 0-1.986-1.51c-0.537-0.984-1.319-2.313-1.319-2.313s-0.927 0.689-2 1.44a21.265 21.265 0 0 0-4.681-0.512c-1-0.826-2.014-1.746-2.014-1.746z"/>
  <path d="m3.1 14.854 2.554 6.185c4.435 5.85 15.759 6.257 20.7 0.113 1.168-2.633 2.745-6.333 2.745-6.333a13.379 13.379 0 0 1-4.6 3.869 12.217 12.217 0 0 1-2.983 0.793l-5.465-2.832-5.5 2.775a15.679 15.679 0 0 1-2.983-0.764 14.076 14.076 0 0 1-4.468-3.806z"/>
 </g>
</svg>
