<?xml version="1.0" encoding="UTF-8" standalone="no"?>

<!-- Created with Inkscape (http://www.inkscape.org/) -->
<svg width="16" version="1.1" xmlns="http://www.w3.org/2000/svg" height="16" viewBox="0 0 16 16" xmlns:inkscape="http://www.inkscape.org/namespaces/inkscape">
 <defs id="defs4"/>
 <metadata id="metadata7"/>
 <g inkscape:label="Capa 1" inkscape:groupmode="layer" id="layer1" transform="matrix(1 0 0 1 0 -1036.3622)">
  <rect width="0" x="-17" y="1039.3622" height="10.999983" style="fill:#04896a" id="rect4035"/>
  <path inkscape:connector-curvature="0" style="fill:#04896a" id="rect4074" d="m 2,1038.3622 0,12 12,0 0,-12 -12,0 z m 3,1 6,0 0,4 -6,0 0,-4 z m -2,1 1,0 0,1 -1,0 0,-1 z m 9,0 1,0 0,1 -1,0 0,-1 z m -9,3.5 1,0 0,1 -1,0 0,-1 z m 9,0 1,0 0,1 -1,0 0,-1 z m -7,1.5 6,0 0,4 -6,0 0,-4 z m -2,2 1,0 0,1 -1,0 0,-1 z m 9,0 1,0 0,1 -1,0 0,-1 z"/>
 </g>
</svg>
