<?xml version="1.0" encoding="UTF-8" standalone="no"?>
<!-- Created with Inkscape (http://www.inkscape.org/) -->

<svg
   xmlns:dc="http://purl.org/dc/elements/1.1/"
   xmlns:cc="http://creativecommons.org/ns#"
   xmlns:rdf="http://www.w3.org/1999/02/22-rdf-syntax-ns#"
   xmlns:svg="http://www.w3.org/2000/svg"
   xmlns="http://www.w3.org/2000/svg"
   xmlns:sodipodi="http://sodipodi.sourceforge.net/DTD/sodipodi-0.dtd"
   xmlns:inkscape="http://www.inkscape.org/namespaces/inkscape"
   width="16"
   version="1.1"
   height="16"
   viewBox="0 0 16 16"
   id="svg2"
   inkscape:version="0.91 r13725"
   sodipodi:docname="video-webm.svg">
  <sodipodi:namedview
     pagecolor="#ffffff"
     bordercolor="#666666"
     borderopacity="1"
     objecttolerance="10"
     gridtolerance="10"
     guidetolerance="10"
     inkscape:pageopacity="0"
     inkscape:pageshadow="2"
     inkscape:window-width="640"
     inkscape:window-height="480"
     id="namedview9"
     showgrid="false"
     inkscape:zoom="22.4375"
     inkscape:cx="0.13370474"
     inkscape:cy="8"
     inkscape:current-layer="layer1" />
  <defs
     id="defs4" />
  <metadata
     id="metadata7">
    <rdf:RDF>
      <cc:Work
         rdf:about="">
        <dc:format>image/svg+xml</dc:format>
        <dc:type
           rdf:resource="http://purl.org/dc/dcmitype/StillImage" />
      </cc:Work>
    </rdf:RDF>
  </metadata>
  <g
     inkscape:label="Capa 1"
     inkscape:groupmode="layer"
     id="layer1"
     transform="matrix(1 0 0 1 0 -1036.3622)">
    <rect
       width="0"
       x="-17"
       y="1039.3622"
       height="10.999983"
       style="fill:#8e44ad"
       id="rect4035" />
    <path
       inkscape:connector-curvature="0"
       style="fill:#8542c2;fill-opacity:1"
       id="rect4074"
       d="m 2,1038.3622 0,12 12,0 0,-12 -12,0 z m 3,1 6,0 0,4 -6,0 0,-4 z m -2,1 1,0 0,1 -1,0 0,-1 z m 9,0 1,0 0,1 -1,0 0,-1 z m -9,3.5 1,0 0,1 -1,0 0,-1 z m 9,0 1,0 0,1 -1,0 0,-1 z m -7,1.5 6,0 0,4 -6,0 0,-4 z m -2,2 1,0 0,1 -1,0 0,-1 z m 9,0 1,0 0,1 -1,0 0,-1 z" />
  </g>
</svg>
