<?xml version="1.0" encoding="UTF-8" standalone="no"?>
<!-- Created with Inkscape (http://www.inkscape.org/) -->

<svg
   xmlns:dc="http://purl.org/dc/elements/1.1/"
   xmlns:cc="http://creativecommons.org/ns#"
   xmlns:rdf="http://www.w3.org/1999/02/22-rdf-syntax-ns#"
   xmlns:svg="http://www.w3.org/2000/svg"
   xmlns="http://www.w3.org/2000/svg"
   xmlns:sodipodi="http://sodipodi.sourceforge.net/DTD/sodipodi-0.dtd"
   xmlns:inkscape="http://www.inkscape.org/namespaces/inkscape"
   width="16"
   version="1.1"
   height="16"
   viewBox="0 0 16 16"
   id="svg2"
   inkscape:version="0.91 r13725"
   sodipodi:docname="video-x-matroska.svg">
  <sodipodi:namedview
     pagecolor="#ffffff"
     bordercolor="#666666"
     borderopacity="1"
     objecttolerance="10"
     gridtolerance="10"
     guidetolerance="10"
     inkscape:pageopacity="0"
     inkscape:pageshadow="2"
     inkscape:window-width="640"
     inkscape:window-height="480"
     id="namedview9"
     showgrid="false"
     inkscape:zoom="22.4375"
     inkscape:cx="0.13370474"
     inkscape:cy="8"
     inkscape:current-layer="layer1" />
  <defs
     id="defs4">
    <linearGradient
       id="linearGradient4351-4">
      <stop
         style="stop-color:#036b53"
         id="stop4353-0" />
      <stop
         offset="1"
         style="stop-color:#036b53"
         id="stop4355-6" />
    </linearGradient>
    <linearGradient
       id="linearGradient4351-1">
      <stop
         style="stop-color:#c8e3fe"
         id="stop4353-6" />
      <stop
         offset="1"
         style="stop-color:#ffffff"
         id="stop4355-2" />
    </linearGradient>
    <linearGradient
       id="linearGradient4300-3-3">
      <stop
         style="stop-color:#f39c12"
         id="stop4302-6" />
      <stop
         offset="1"
         style="stop-color:#f89406"
         id="stop4304-7-6" />
    </linearGradient>
    <linearGradient
       id="linearGradient4351-5">
      <stop
         style="stop-color:#fddda3"
         id="stop4353-1" />
      <stop
         offset="1"
         style="stop-color:#fde3a7"
         id="stop4355-8" />
    </linearGradient>
  </defs>
  <metadata
     id="metadata7">
    <rdf:RDF>
      <cc:Work
         rdf:about="">
        <dc:format>image/svg+xml</dc:format>
        <dc:type
           rdf:resource="http://purl.org/dc/dcmitype/StillImage" />
      </cc:Work>
    </rdf:RDF>
  </metadata>
  <g
     inkscape:label="Capa 1"
     inkscape:groupmode="layer"
     id="layer1"
     transform="matrix(1 0 0 1 0 -1036.3622)">
    <rect
       width="0"
       x="-17"
       y="1039.3622"
       height="10.999983"
       style="fill:#04896a"
       id="rect4035" />
    <path
       inkscape:connector-curvature="0"
       style="fill:#4154ba;color:#000000;clip-rule:nonzero;display:inline;overflow:visible;visibility:visible;opacity:1;isolation:auto;mix-blend-mode:normal;color-interpolation:sRGB;color-interpolation-filters:linearRGB;solid-color:#000000;solid-opacity:1;fill-opacity:1;fill-rule:nonzero;stroke-width:1;stroke-linecap:butt;stroke-linejoin:miter;stroke-miterlimit:4;stroke-dasharray:none;stroke-dashoffset:0;stroke-opacity:1;filter-blend-mode:normal;filter-gaussianBlur-deviation:0;color-rendering:auto;image-rendering:auto;shape-rendering:auto;text-rendering:auto;enable-background:accumulate"
       id="rect4074"
       d="m 2,1038.3622 0,12 12,0 0,-12 -12,0 z m 3,1 6,0 0,4 -6,0 0,-4 z m -2,1 1,0 0,1 -1,0 0,-1 z m 9,0 1,0 0,1 -1,0 0,-1 z m -9,3.5 1,0 0,1 -1,0 0,-1 z m 9,0 1,0 0,1 -1,0 0,-1 z m -7,1.5 6,0 0,4 -6,0 0,-4 z m -2,2 1,0 0,1 -1,0 0,-1 z m 9,0 1,0 0,1 -1,0 0,-1 z" />
  </g>
</svg>
