<?xml version="1.0" encoding="UTF-8" standalone="no"?>
<!-- Created with Inkscape (http://www.inkscape.org/) -->

<svg
   xmlns:dc="http://purl.org/dc/elements/1.1/"
   xmlns:cc="http://creativecommons.org/ns#"
   xmlns:rdf="http://www.w3.org/1999/02/22-rdf-syntax-ns#"
   xmlns:svg="http://www.w3.org/2000/svg"
   xmlns="http://www.w3.org/2000/svg"
   xmlns:sodipodi="http://sodipodi.sourceforge.net/DTD/sodipodi-0.dtd"
   xmlns:inkscape="http://www.inkscape.org/namespaces/inkscape"
   width="16"
   version="1.1"
   height="16"
   viewBox="0 0 16 16"
   id="svg2"
   inkscape:version="0.91 r13725"
   sodipodi:docname="video-x-theora+ogg.svg">
  <sodipodi:namedview
     pagecolor="#ffffff"
     bordercolor="#666666"
     borderopacity="1"
     objecttolerance="10"
     gridtolerance="10"
     guidetolerance="10"
     inkscape:pageopacity="0"
     inkscape:pageshadow="2"
     inkscape:window-width="640"
     inkscape:window-height="480"
     id="namedview9"
     showgrid="false"
     inkscape:zoom="5.609375"
     inkscape:cx="-61.256575"
     inkscape:cy="19.938347"
     inkscape:current-layer="layer1" />
  <defs
     id="defs4">
    <linearGradient
       id="linearGradient4351-4">
      <stop
         id="stop4353-0"
         style="stop-color:#036b53" />
      <stop
         id="stop4355-6"
         style="stop-color:#036b53"
         offset="1" />
    </linearGradient>
    <linearGradient
       id="linearGradient4351-1">
      <stop
         id="stop4353-6"
         style="stop-color:#c8e3fe" />
      <stop
         id="stop4355-2"
         style="stop-color:#ffffff"
         offset="1" />
    </linearGradient>
    <linearGradient
       id="linearGradient4300-3-3">
      <stop
         id="stop4302-6"
         style="stop-color:#f39c12" />
      <stop
         id="stop4304-7-6"
         style="stop-color:#f89406"
         offset="1" />
    </linearGradient>
    <linearGradient
       id="linearGradient4351-5">
      <stop
         id="stop4353-1"
         style="stop-color:#fddda3" />
      <stop
         id="stop4355-8"
         style="stop-color:#fde3a7"
         offset="1" />
    </linearGradient>
  </defs>
  <metadata
     id="metadata7">
    <rdf:RDF>
      <cc:Work
         rdf:about="">
        <dc:format>image/svg+xml</dc:format>
        <dc:type
           rdf:resource="http://purl.org/dc/dcmitype/StillImage" />
      </cc:Work>
    </rdf:RDF>
  </metadata>
  <g
     inkscape:label="Capa 1"
     inkscape:groupmode="layer"
     id="layer1"
     transform="matrix(1 0 0 1 0 -1036.3622)">
    <rect
       width="0"
       x="-17"
       y="1039.3622"
       height="10.999983"
       style="fill:#22a7f0"
       id="rect4035" />
    <path
       inkscape:connector-curvature="0"
       style="fill:#f9d24c;color:#000000;clip-rule:nonzero;display:inline;overflow:visible;visibility:visible;opacity:1;isolation:auto;mix-blend-mode:normal;color-interpolation:sRGB;color-interpolation-filters:linearRGB;solid-color:#000000;solid-opacity:1;fill-opacity:1;fill-rule:nonzero;stroke:none;stroke-width:1;stroke-linecap:butt;stroke-linejoin:miter;stroke-miterlimit:4;stroke-dasharray:none;stroke-dashoffset:0;stroke-opacity:1;marker:none;filter-blend-mode:normal;filter-gaussianBlur-deviation:0;color-rendering:auto;image-rendering:auto;shape-rendering:auto;text-rendering:auto;enable-background:accumulate"
       id="rect4074"
       d="m 2,1038.3622 0,12 12,0 0,-12 -12,0 z m 3,1 6,0 0,4 -6,0 0,-4 z m -2,1 1,0 0,1 -1,0 0,-1 z m 9,0 1,0 0,1 -1,0 0,-1 z m -9,3.5 1,0 0,1 -1,0 0,-1 z m 9,0 1,0 0,1 -1,0 0,-1 z m -7,1.5 6,0 0,4 -6,0 0,-4 z m -2,2 1,0 0,1 -1,0 0,-1 z m 9,0 1,0 0,1 -1,0 0,-1 z" />
    <rect
       width="0"
       x="-112.49033"
       y="1068.5457"
       height="10.999983"
       style="fill:#036b53"
       id="rect4035-7535" />
    <rect
       width="0"
       x="-112.49033"
       y="1068.5457"
       height="10.999983"
       style="fill:#036b53"
       id="rect4035-6" />
    <rect
       width="0"
       x="-112.49033"
       y="1068.5457"
       height="10.999983"
       style="fill:#036b53"
       id="rect4035-3" />
    <rect
       width="0"
       x="-112.16956"
       y="1029.5457"
       height="10.999983"
       style="fill:#ffffff"
       id="rect4035-62" />
    <rect
       width="0"
       x="-112.49033"
       y="1028.5457"
       height="10.999983"
       style="fill:#ffffff"
       id="rect4035-4" />
    <rect
       width="0"
       x="-104.57639"
       y="1041.4779"
       height="10.999983"
       style="fill:#ffffff"
       id="rect4035-367" />
    <rect
       width="0"
       x="-104.89716"
       y="1040.4779"
       height="10.999983"
       style="fill:#ffffff"
       id="rect4035-4-535" />
    <rect
       width="0"
       x="-106.43301"
       y="1040.364"
       height="11.1139"
       style="fill:#fbd2bf"
       id="rect4035-3-6" />
    <rect
       width="0"
       x="-104.89716"
       y="1040.4779"
       height="10.999983"
       style="fill:#fbd2bf"
       id="rect4035-1" />
    <rect
       width="0"
       x="-84.897156"
       y="1040.4779"
       height="10.999983"
       style="fill:#fbfbfb"
       id="rect4035-2" />
    <rect
       width="0"
       x="-104.89716"
       y="1040.4779"
       height="10.999983"
       style="fill:#fbfbfb"
       id="rect4035-8" />
    <rect
       width="0"
       x="-104.89716"
       y="1040.4779"
       height="10.999983"
       style="fill:#fbfbfb"
       id="rect4035-9" />
    <rect
       width="0"
       x="-104.57639"
       y="1041.4779"
       height="10.999983"
       style="fill:#ffffff"
       id="rect4035-36" />
    <rect
       width="0"
       x="-104.57639"
       y="1041.4779"
       height="10.999983"
       style="fill:#ffffff"
       id="rect4035-7" />
    <rect
       width="0"
       x="-104.89716"
       y="1040.4779"
       height="10.999983"
       style="fill:#ffffff"
       id="rect4035-4-7" />
    <rect
       width="0"
       x="-106.43301"
       y="1040.364"
       height="11.1139"
       style="fill:#fbd2bf"
       id="rect4035-3-53" />
    <rect
       width="0"
       x="-104.89716"
       y="1040.4779"
       height="10.999983"
       style="fill:#fbd2bf"
       id="rect4035-1-5" />
    <rect
       width="0"
       x="-84.897156"
       y="1040.4779"
       height="10.999983"
       style="fill:#fbfbfb"
       id="rect4035-2-6" />
    <rect
       width="0"
       x="-104.89716"
       y="1040.4779"
       height="10.999983"
       style="fill:#fbfbfb"
       id="rect4035-8-2" />
    <rect
       width="0"
       x="-104.89716"
       y="1040.4779"
       height="10.999983"
       style="fill:#fbfbfb"
       id="rect4035-9-9" />
    <rect
       width="0"
       x="-91.639465"
       y="1049.2323"
       height="10.999983"
       style="fill:#ffffff"
       id="rect4035-75" />
    <rect
       width="0"
       x="-91.960236"
       y="1048.2323"
       height="10.999983"
       style="fill:#ffffff"
       id="rect4035-4-3" />
    <rect
       width="0"
       x="-93.496094"
       y="1048.1184"
       height="11.1139"
       style="fill:#fbd2bf"
       id="rect4035-3-56" />
    <rect
       width="0"
       x="-91.960236"
       y="1048.2323"
       height="10.999983"
       style="fill:#fbd2bf"
       id="rect4035-1-2" />
    <rect
       width="0"
       x="-91.960236"
       y="1048.2323"
       height="10.999983"
       style="fill:#fbfbfb"
       id="rect4035-5-9" />
    <rect
       width="0"
       x="-91.639465"
       y="1049.2323"
       height="10.999983"
       style="fill:#ffffff"
       id="rect4035-7-1" />
    <rect
       width="0"
       x="-91.960236"
       y="1048.2323"
       height="10.999983"
       style="fill:#ffffff"
       id="rect4035-4-53" />
    <rect
       width="0"
       x="-93.496094"
       y="1048.1184"
       height="11.1139"
       style="fill:#fbd2bf"
       id="rect4035-3-5" />
    <rect
       width="0"
       x="-91.960236"
       y="1048.2323"
       height="10.999983"
       style="fill:#fbd2bf"
       id="rect4035-1-6" />
    <rect
       width="0"
       x="-91.960236"
       y="1048.2323"
       height="10.999983"
       style="fill:#fbfbfb"
       id="rect4035-5-2" />
    <rect
       width="0"
       x="-91.639465"
       y="1049.2323"
       height="10.999983"
       style="fill:#ffffff"
       id="rect4035-53" />
    <rect
       width="0"
       x="-91.960236"
       y="1048.2323"
       height="10.999983"
       style="fill:#ffffff"
       id="rect4035-4-5" />
    <rect
       width="0"
       x="-91.639465"
       y="1049.2323"
       height="10.999983"
       style="fill:#ffffff"
       id="rect4035-535" />
    <rect
       width="0"
       x="-91.960236"
       y="1048.2323"
       height="10.999983"
       style="fill:#ffffff"
       id="rect4035-4-6" />
    <rect
       width="0"
       x="-93.496094"
       y="1048.1184"
       height="11.1139"
       style="fill:#fbd2bf"
       id="rect4035-3-2" />
    <rect
       width="0"
       x="-91.960236"
       y="1048.2323"
       height="10.999983"
       style="fill:#fbd2bf"
       id="rect4035-1-9" />
    <rect
       width="0"
       x="-91.960236"
       y="1048.2323"
       height="10.999983"
       style="fill:#fbfbfb"
       id="rect4035-5" />
    <rect
       width="0"
       x="-91.960236"
       y="1048.2323"
       height="10.999983"
       style="fill:#fffcf9"
       id="rect4035-8-0" />
    <rect
       width="0"
       x="-91.960236"
       y="1048.2323"
       height="10.999983"
       style="fill:#e8d9eb"
       id="rect4035-44" />
    <rect
       width="0"
       x="-91.960236"
       y="1048.2323"
       height="10.999983"
       style="fill:#e8d9eb"
       id="rect4035-7-6" />
    <rect
       width="0"
       x="-91.639465"
       y="1049.2323"
       height="10.999983"
       style="fill:#ffffff"
       id="rect4035-26" />
    <rect
       width="0"
       x="-91.960236"
       y="1048.2323"
       height="10.999983"
       style="fill:#ffffff"
       id="rect4035-4-1" />
    <rect
       width="0"
       x="-93.496094"
       y="1048.1184"
       height="11.1139"
       style="fill:#fbd2bf"
       id="rect4035-3-8" />
    <rect
       width="0"
       x="-91.960236"
       y="1048.2323"
       height="10.999983"
       style="fill:#fbd2bf"
       id="rect4035-1-7" />
    <rect
       width="0"
       x="-95.304535"
       y="1044.1207"
       height="22.785679"
       style="fill:#ffffff"
       id="rect4035-753" />
    <rect
       width="0"
       x="-95.304535"
       y="1044.1207"
       height="22.785679"
       style="fill:#ffffff"
       id="rect4035-7-5" />
    <rect
       width="0"
       x="-95.968964"
       y="1042.0493"
       height="22.785679"
       style="fill:#ffffff"
       id="rect4035-4-62" />
    <rect
       width="0"
       x="-99.15036"
       y="1041.8135"
       height="23.02165"
       style="fill:#fbd2bf"
       id="rect4035-3-9" />
    <rect
       width="0"
       x="-95.968964"
       y="1042.0493"
       height="22.785679"
       style="fill:#fbd2bf"
       id="rect4035-1-1" />
    <rect
       width="0"
       x="-54.540497"
       y="1042.0493"
       height="22.785679"
       style="fill:#fbfbfb"
       id="rect4035-2-2" />
    <rect
       width="0"
       x="-95.968964"
       y="1042.0493"
       height="22.785679"
       style="fill:#fbfbfb"
       id="rect4035-8-7" />
    <rect
       width="0"
       x="-95.968964"
       y="1042.0493"
       height="22.785679"
       style="fill:#fbfbfb"
       id="rect4035-9-0" />
    <rect
       width="0"
       x="-68.506683"
       y="1060.1833"
       height="22.785679"
       style="fill:#ffffff"
       id="rect4035-75-6" />
    <rect
       width="0"
       x="-69.171173"
       y="1058.1119"
       height="22.785679"
       style="fill:#ffffff"
       id="rect4035-4-3-0" />
    <rect
       width="0"
       x="-72.35257"
       y="1057.8761"
       height="23.02165"
       style="fill:#fbd2bf"
       id="rect4035-3-56-6" />
    <rect
       width="0"
       x="-69.171173"
       y="1058.1119"
       height="22.785679"
       style="fill:#fbd2bf"
       id="rect4035-1-2-2" />
    <rect
       width="0"
       x="-69.171173"
       y="1058.1119"
       height="22.785679"
       style="fill:#fbfbfb"
       id="rect4035-5-9-6" />
    <rect
       width="0"
       x="-68.506683"
       y="1060.1833"
       height="22.785679"
       style="fill:#ffffff"
       id="rect4035-7-1-1" />
    <rect
       width="0"
       x="-69.171173"
       y="1058.1119"
       height="22.785679"
       style="fill:#ffffff"
       id="rect4035-4-53-8" />
    <rect
       width="0"
       x="-72.35257"
       y="1057.8761"
       height="23.02165"
       style="fill:#fbd2bf"
       id="rect4035-3-5-7" />
    <rect
       width="0"
       x="-69.171173"
       y="1058.1119"
       height="22.785679"
       style="fill:#fbd2bf"
       id="rect4035-1-6-9" />
    <rect
       width="0"
       x="-69.171173"
       y="1058.1119"
       height="22.785679"
       style="fill:#fbfbfb"
       id="rect4035-5-2-2" />
    <rect
       width="0"
       x="-68.506683"
       y="1060.1833"
       height="22.785679"
       style="fill:#ffffff"
       id="rect4035-53-0" />
    <rect
       width="0"
       x="-69.171173"
       y="1058.1119"
       height="22.785679"
       style="fill:#ffffff"
       id="rect4035-4-5-2" />
    <rect
       width="0"
       x="-68.506683"
       y="1060.1833"
       height="22.785679"
       style="fill:#ffffff"
       id="rect4035-535-3" />
    <rect
       width="0"
       x="-69.171173"
       y="1058.1119"
       height="22.785679"
       style="fill:#ffffff"
       id="rect4035-4-6-7" />
    <rect
       width="0"
       x="-72.35257"
       y="1057.8761"
       height="23.02165"
       style="fill:#fbd2bf"
       id="rect4035-3-2-5" />
    <rect
       width="0"
       x="-69.171173"
       y="1058.1119"
       height="22.785679"
       style="fill:#fbd2bf"
       id="rect4035-1-9-9" />
    <rect
       width="0"
       x="-69.171173"
       y="1058.1119"
       height="22.785679"
       style="fill:#fbfbfb"
       id="rect4035-5-22" />
    <rect
       width="0"
       x="-69.171173"
       y="1058.1119"
       height="22.785679"
       style="fill:#fffcf9"
       id="rect4035-8-0-8" />
    <rect
       width="0"
       x="-69.171173"
       y="1058.1119"
       height="22.785679"
       style="fill:#e8d9eb"
       id="rect4035-44-9" />
    <rect
       width="0"
       x="-69.171173"
       y="1058.1119"
       height="22.785679"
       style="fill:#e8d9eb"
       id="rect4035-7-6-7" />
    <rect
       width="0"
       x="-68.506683"
       y="1060.1833"
       height="22.785679"
       style="fill:#ffffff"
       id="rect4035-26-3" />
    <rect
       width="0"
       x="-69.171173"
       y="1058.1119"
       height="22.785679"
       style="fill:#ffffff"
       id="rect4035-4-1-6" />
    <rect
       width="0"
       x="-72.35257"
       y="1057.8761"
       height="23.02165"
       style="fill:#fbd2bf"
       id="rect4035-3-8-1" />
    <rect
       width="0"
       x="-69.171173"
       y="1058.1119"
       height="22.785679"
       style="fill:#fbd2bf"
       id="rect4035-1-7-2" />
  </g>
</svg>
